<svg xmlns="http://www.w3.org/2000/svg" xmlns:xlink="http://www.w3.org/1999/xlink" fill="none" version="1.1" width="24" height="24" viewBox="0 0 24 24"><defs><clipPath id="master_svg0_50_4757"><rect x="0" y="0" width="24" height="24" rx="0"/></clipPath></defs><g clip-path="url(#master_svg0_50_4757)"><g><path d="M22.75,19L22.75,17.75Q22.75,17.676099999999998,22.7356,17.6037Q22.7212,17.5312,22.6929,17.463Q22.6646,17.3947,22.6236,17.3333Q22.5826,17.271900000000002,22.5303,17.2197Q22.4781,17.1674,22.4167,17.1264Q22.3553,17.0854,22.287,17.0571Q22.2188,17.0288,22.1463,17.014400000000002Q22.0739,17,22,17Q21.9261,17,21.8537,17.014400000000002Q21.7812,17.0288,21.713,17.0571Q21.6447,17.0854,21.5833,17.1264Q21.5219,17.1674,21.4697,17.2197Q21.4174,17.271900000000002,21.3764,17.3333Q21.3354,17.3947,21.3071,17.463Q21.2788,17.5312,21.2644,17.6037Q21.25,17.676099999999998,21.25,17.75L21.25,19Q21.25,19.1036,21.1768,19.1768Q21.1036,19.25,21,19.25L3,19.25Q2.75,19.25,2.75,19L2.75,6Q2.75,5.75,3,5.75L10,5.75Q10.07387,5.75,10.14632,5.735589Q10.21877,5.721178,10.28701,5.69291Q10.35526,5.664641,10.41668,5.623602Q10.4781,5.582563,10.53033,5.53033Q10.58256,5.478097,10.6236,5.416678Q10.66464,5.355258,10.69291,5.287013Q10.72118,5.218767,10.73559,5.146318Q10.75,5.0738685,10.75,5Q10.75,4.9261315,10.73559,4.853682Q10.72118,4.781233,10.69291,4.712987Q10.66464,4.644742,10.6236,4.583322Q10.58256,4.521903,10.53033,4.46967Q10.4781,4.417437,10.41668,4.376398Q10.35526,4.335359,10.28701,4.30709Q10.21877,4.278822,10.14632,4.264411Q10.07387,4.25,10,4.25L3,4.25Q2.275126,4.25,1.762566,4.762555Q1.25,5.2751149999999996,1.25,6L1.25,19Q1.25,19.724899999999998,1.762566,20.2374Q2.275126,20.75,3,20.75L21,20.75Q21.7249,20.75,22.2374,20.2374Q22.75,19.724899999999998,22.75,19Z" fill-rule="evenodd" fill="#000000" fill-opacity="1" style="mix-blend-mode:passthrough"/></g><g><path d="M5,10.75L9,10.75Q9.07387,10.75,9.14632,10.764410999999999Q9.21877,10.778822,9.28701,10.80709Q9.355260000000001,10.835359,9.41668,10.876398Q9.478100000000001,10.917437,9.53033,10.96967Q9.58256,11.021903,9.6236,11.083322Q9.66464,11.144742,9.692910000000001,11.212987Q9.72118,11.281233,9.73559,11.353682Q9.75,11.4261315,9.75,11.5Q9.75,11.5738685,9.73559,11.646318Q9.72118,11.718767,9.692910000000001,11.787013Q9.66464,11.855258,9.6236,11.916678Q9.58256,11.978097,9.53033,12.03033Q9.478100000000001,12.082563,9.41668,12.123602Q9.355260000000001,12.164641,9.28701,12.19291Q9.21877,12.221178,9.14632,12.235589000000001Q9.07387,12.25,9,12.25L5,12.25Q4.9261315,12.25,4.853682,12.235589000000001Q4.781233,12.221178,4.712987,12.19291Q4.644742,12.164641,4.583322,12.123602Q4.521903,12.082563,4.46967,12.03033Q4.417437,11.978097,4.376398,11.916678Q4.335359,11.855258,4.30709,11.787013Q4.278822,11.718767,4.264411,11.646318Q4.25,11.5738685,4.25,11.5Q4.25,11.4261315,4.264411,11.353682Q4.278822,11.281233,4.30709,11.212987Q4.335359,11.144742,4.376398,11.083322Q4.417437,11.021903,4.46967,10.96967Q4.521903,10.917437,4.583322,10.876398Q4.644742,10.835359,4.712987,10.80709Q4.781233,10.778822,4.853682,10.764410999999999Q4.9261315,10.75,5,10.75Z" fill-rule="evenodd" fill="#000000" fill-opacity="1" style="mix-blend-mode:passthrough"/></g><g><path d="M5,14.75L17,14.75Q17.073900000000002,14.75,17.1463,14.764410999999999Q17.2188,14.778822,17.287,14.80709Q17.3553,14.835359,17.4167,14.876398Q17.478099999999998,14.917437,17.5303,14.96967Q17.5826,15.021903,17.6236,15.083322Q17.6646,15.144742,17.6929,15.212987Q17.7212,15.281233,17.735599999999998,15.353682Q17.75,15.4261315,17.75,15.5Q17.75,15.5738685,17.735599999999998,15.646318Q17.7212,15.718767,17.6929,15.787013Q17.6646,15.855258,17.6236,15.916678Q17.5826,15.978097,17.5303,16.03033Q17.478099999999998,16.082563,17.4167,16.123601999999998Q17.3553,16.164641,17.287,16.19291Q17.2188,16.221178,17.1463,16.235589Q17.073900000000002,16.25,17,16.25L5,16.25Q4.9261315,16.25,4.853682,16.235589Q4.781233,16.221178,4.712987,16.19291Q4.644742,16.164641,4.583322,16.123601999999998Q4.521903,16.082563,4.46967,16.03033Q4.417437,15.978097,4.376398,15.916678Q4.335359,15.855258,4.30709,15.787013Q4.278822,15.718767,4.264411,15.646318Q4.25,15.5738685,4.25,15.5Q4.25,15.4261315,4.264411,15.353682Q4.278822,15.281233,4.30709,15.212987Q4.335359,15.144742,4.376398,15.083322Q4.417437,15.021903,4.46967,14.96967Q4.521903,14.917437,4.583322,14.876398Q4.644742,14.835359,4.712987,14.80709Q4.781233,14.778822,4.853682,14.764410999999999Q4.9261315,14.75,5,14.75Z" fill-rule="evenodd" fill="#000000" fill-opacity="1" style="mix-blend-mode:passthrough"/></g><g><ellipse cx="17" cy="8" rx="3" ry="3" fill-opacity="0" stroke-opacity="1" stroke="#000000" fill="none" stroke-width="1.5" stroke-linecap="ROUND" stroke-linejoin="round" style="mix-blend-mode:passthrough"/></g><g><path d="M12.471198563598632,11.944497L12.471010563598632,11.944668Q12.353555563598633,12.05128,12.289327563598633,12.19633Q12.225099563598633,12.34137,12.225099563598633,12.5Q12.225099563598633,12.57387,12.239510563598632,12.64632Q12.253921563598633,12.71877,12.282189563598633,12.78701Q12.310458563598633,12.85526,12.351497563598633,12.91668Q12.392536563598632,12.9781,12.444769563598634,13.03033Q12.497002563598633,13.08256,12.558421563598634,13.1236Q12.619841563598634,13.16464,12.688086563598633,13.19291Q12.756332563598633,13.22118,12.828781563598632,13.23559Q12.901231063598633,13.25,12.975099563598633,13.25Q13.114885563598634,13.25,13.245285563598634,13.19964Q13.375685563598633,13.149280000000001,13.479188563598633,13.05533Q14.232089563598633,12.3719,14.908619563598632,12.09348Q15.743249563598633,11.75,16.999949563598634,11.75Q18.279209563598634,11.75,19.478479563598633,12.52017Q20.691109563598634,13.29893,21.331689563598633,14.54974L21.332359563598633,14.55104Q21.379539563598634,14.64324,21.449949563598633,14.719190000000001Q21.520349563598632,14.79515,21.608699563598634,14.84918Q21.697049563598632,14.903220000000001,21.796739563598635,14.931280000000001Q21.896439563598634,14.95935,21.999999563598635,14.95935Q22.073869563598635,14.95935,22.14631956359863,14.944939999999999Q22.218769563598634,14.930530000000001,22.28700956359863,14.90226Q22.355259563598633,14.87399,22.416679563598635,14.83295Q22.478099563598633,14.79191,22.530329563598634,14.73968Q22.582559563598632,14.68745,22.62359956359863,14.62603Q22.664639563598634,14.56461,22.692909563598633,14.49636Q22.721179563598632,14.42812,22.735589563598634,14.35567Q22.749999563598635,14.28322,22.749999563598635,14.20935Q22.749999563598635,14.02858,22.667639563598634,13.86766L22.667569563598633,13.86751L22.667299563598633,13.86698Q21.842389563598633,12.2556,20.289029563598632,11.258028Q18.719379563598633,10.25,16.999949563598634,10.25Q15.446659563598633,10.25,14.337759563598633,10.706356Q13.418464563598633,11.0846846,12.471198563598632,11.944497Z" fill-rule="evenodd" fill="#000000" fill-opacity="1" style="mix-blend-mode:passthrough"/></g></g></svg>