<svg xmlns="http://www.w3.org/2000/svg" xmlns:xlink="http://www.w3.org/1999/xlink" fill="none" version="1.1" width="24" height="24" viewBox="0 0 24 24"><defs><clipPath id="master_svg0_5851_03534"><rect x="0" y="0" width="24" height="24" rx="0"/></clipPath></defs><g clip-path="url(#master_svg0_5851_03534)"><g><path d="M16.208727836608887,5.999933256378174L16.208727836608887,17.999843256378174Q16.208727836608887,18.073643256378176,16.22312783660889,18.146143256378174Q16.237527836608887,18.218543256378176,16.265827836608885,18.286843256378173Q16.294127836608887,18.355043256378174,16.335127836608887,18.416543256378176Q16.376127836608887,18.477943256378175,16.428427836608886,18.530143256378174Q16.48062783660889,18.582343256378174,16.542027836608888,18.623443256378174Q16.603427836608887,18.664443256378174,16.671727836608888,18.692743256378172Q16.739927836608885,18.721043256378174,16.812427836608887,18.735443256378176Q16.884827836608885,18.749843256378174,16.958727836608887,18.749843256378174Q17.03262783660889,18.749843256378174,17.105027836608887,18.735443256378176Q17.17752783660889,18.721043256378174,17.245727836608886,18.692743256378172Q17.314027836608886,18.664443256378174,17.375427836608885,18.623443256378174Q17.436827836608884,18.582343256378174,17.489027836608887,18.530143256378174Q17.541327836608886,18.477943256378175,17.582327836608886,18.416543256378176Q17.623327836608887,18.355043256378174,17.65162783660889,18.286843256378173Q17.679927836608886,18.218543256378176,17.694327836608885,18.146143256378174Q17.708727836608887,18.073643256378176,17.708727836608887,17.999843256378174L17.708727836608887,5.999933256378174Q17.708727836608887,5.926065256378174,17.694327836608885,5.8536162563781735Q17.679927836608886,5.781167256378174,17.65162783660889,5.7129212563781735Q17.623327836608887,5.644675256378174,17.582327836608886,5.583256256378174Q17.541327836608886,5.521836256378174,17.489027836608887,5.469603256378174Q17.436827836608884,5.417370256378174,17.375427836608885,5.376331256378174Q17.314027836608886,5.335292356378174,17.245727836608886,5.307024056378173Q17.17752783660889,5.278755756378174,17.105027836608887,5.264344756378174Q17.03262783660889,5.2499337196381735,16.958727836608887,5.2499337196381735Q16.884827836608885,5.2499337196381735,16.812427836608887,5.264344756378174Q16.739927836608885,5.278755756378174,16.671727836608888,5.307024056378173Q16.603427836608887,5.335292356378174,16.542027836608888,5.376331256378174Q16.48062783660889,5.417370256378174,16.428427836608886,5.469603256378174Q16.376127836608887,5.521836256378174,16.335127836608887,5.583256256378174Q16.294127836608887,5.644675256378174,16.265827836608885,5.7129212563781735Q16.237527836608887,5.781167256378174,16.22312783660889,5.8536162563781735Q16.208727836608887,5.926065256378174,16.208727836608887,5.999933256378174ZM11.886797836608887,13.124943256378174L10.020767836608886,7.627713256378174L8.155167836608886,13.124943256378174L11.886797836608887,13.124943256378174ZM12.395967836608886,14.624943256378174L13.623257836608886,18.240443256378175L13.623447836608888,18.241043256378173Q13.642217836608888,18.296343256378172,13.669337836608888,18.348043256378176Q13.696447836608886,18.399843256378176,13.731237836608887,18.446743256378173Q13.766037836608886,18.493643256378174,13.807667836608887,18.534643256378175Q13.849307836608887,18.575543256378175,13.896787836608887,18.609543256378174Q13.944267836608887,18.643643256378176,13.996437836608887,18.669843256378172Q14.048607836608888,18.69614325637817,14.104217836608887,18.714043256378176Q14.159827836608887,18.731843256378173,14.217537836608887,18.740943256378173Q14.275237836608886,18.749943256378174,14.333647836608886,18.749943256378174Q14.407517836608887,18.749943256378174,14.479967836608887,18.735543256378172Q14.552407836608888,18.721143256378173,14.620657836608887,18.692843256378175Q14.688907836608887,18.664543256378174,14.750327836608887,18.623543256378174Q14.811737836608886,18.582543256378173,14.863977836608887,18.530243256378174Q14.916207836608887,18.47804325637817,14.957247836608886,18.416643256378173Q14.998327836608887,18.355243256378174,15.026527836608887,18.286943256378173Q15.054827836608887,18.218743256378175,15.069227836608887,18.146243256378174Q15.083627836608887,18.073843256378176,15.083627836608887,17.999943256378174Q15.083627836608887,17.876143256378175,15.043827836608887,17.758843256378174L15.043627836608886,17.758343256378176L10.970487836608886,5.758988256378174Q10.951717836608886,5.703679256378174,10.924597836608886,5.651943256378174Q10.897487836608887,5.600207256378174,10.862697836608888,5.553292256378174Q10.827907836608887,5.506378256378174,10.786267836608886,5.465415256378174Q10.744627836608887,5.4244532563781735,10.697147836608886,5.390431256378174Q10.649667836608888,5.356409256378174,10.597497836608888,5.330147656378174Q10.545327836608887,5.303886156378174,10.489717836608886,5.286018556378174Q10.434107836608888,5.268150956378173,10.376407836608887,5.259108186378174Q10.318697836608887,5.250065373378174,10.260287836608887,5.250065386378174L9.781127836608887,5.250065386378174Q9.722717836608886,5.250065392378174,9.665007836608886,5.259109256378173Q9.607297836608886,5.268153156378174,9.551687836608886,5.286022756378173Q9.496077836608887,5.3038923563781735,9.443897836608887,5.330156756378174Q9.391727836608887,5.356421256378174,9.344247836608886,5.390447256378174Q9.296767836608886,5.4244722563781735,9.255127836608887,5.465439256378174Q9.213487836608888,5.506406256378174,9.178697836608887,5.553325256378174Q9.143897836608886,5.600244256378174,9.116797836608887,5.651985256378174Q9.089687836608887,5.703725256378174,9.070907836608887,5.759039256378173L4.998543836608887,17.758843256378174L4.998512036608886,17.758943256378174Q4.958727836608887,17.876143256378175,4.958727836608887,17.999943256378174Q4.958727836608887,18.073843256378176,4.973138836608887,18.146243256378174Q4.987549936608887,18.218743256378175,5.015818136608886,18.286943256378173Q5.044086436608887,18.355243256378174,5.085125836608887,18.416643256378173Q5.126164836608886,18.47804325637817,5.1783978366088865,18.530243256378174Q5.230630836608887,18.582543256378173,5.292049836608887,18.623543256378174Q5.353469836608887,18.664543256378174,5.421714836608887,18.692843256378175Q5.489960836608887,18.721143256378173,5.562409836608887,18.735543256378172Q5.6348588366088865,18.749943256378174,5.708727836608887,18.749943256378174Q5.767139836608886,18.749943256378174,5.824848836608886,18.740943256378173Q5.882556836608886,18.731843256378173,5.938168836608886,18.714043256378176Q5.993777836608887,18.69614325637817,6.045957836608887,18.669843256378172Q6.098127836608887,18.643643256378176,6.145607836608887,18.609543256378174Q6.193087836608886,18.575543256378175,6.2347278366088865,18.53454325637817Q6.276367836608887,18.493643256378174,6.311157836608887,18.446643256378174Q6.345947836608887,18.399743256378173,6.373057836608886,18.348043256378176Q6.400167836608887,18.296243256378176,6.418947836608886,18.240943256378173L6.418977836608887,18.240843256378174L7.646117836608887,14.624943256378174L12.395967836608886,14.624943256378174Z" fill-rule="evenodd" fill="#000000" fill-opacity="1"/></g><g><path d="M4.5,2.75L7,2.75Q7.07387,2.75,7.14632,2.735589Q7.21877,2.721178,7.28701,2.69291Q7.35526,2.664641,7.41668,2.623602Q7.4781,2.582563,7.53033,2.53033Q7.58256,2.478097,7.6236,2.416678Q7.66464,2.355258,7.69291,2.287013Q7.72118,2.218767,7.73559,2.146318Q7.75,2.0738685,7.75,2Q7.75,1.9261314999999999,7.73559,1.853682Q7.72118,1.781233,7.69291,1.712987Q7.66464,1.644742,7.6236,1.583322Q7.58256,1.521903,7.53033,1.46967Q7.4781,1.417437,7.41668,1.376398Q7.35526,1.335359,7.28701,1.30709Q7.21877,1.278822,7.14632,1.264411Q7.07387,1.25,7,1.25L4.5,1.25Q3.15381,1.25,2.201903,2.201903Q1.25,3.15381,1.25,4.5L1.25,5.75Q1.25,5.823869999999999,1.264411,5.896319999999999Q1.278822,5.96877,1.30709,6.03701Q1.335359,6.10526,1.376398,6.16668Q1.417437,6.2281,1.46967,6.28033Q1.521903,6.33256,1.583322,6.3736Q1.644742,6.41464,1.712987,6.44291Q1.781233,6.47118,1.853682,6.48559Q1.9261314999999999,6.5,2,6.5Q2.0738685,6.5,2.146318,6.48559Q2.218767,6.47118,2.287013,6.44291Q2.355258,6.41464,2.416678,6.3736Q2.478097,6.33256,2.53033,6.28033Q2.582563,6.2281,2.623602,6.16668Q2.664641,6.10526,2.69291,6.03701Q2.721178,5.96877,2.735589,5.896319999999999Q2.75,5.823869999999999,2.75,5.75L2.75,4.5Q2.75,3.77513,3.2625599999999997,3.2625599999999997Q3.77513,2.75,4.5,2.75Z" fill-rule="evenodd" fill="#000000" fill-opacity="1"/></g><g><path d="M1.25,18.25Q1.25,18.1761315,1.264411,18.103682Q1.278822,18.031233,1.30709,17.962987Q1.335359,17.894742,1.376398,17.833322Q1.417437,17.771903000000002,1.46967,17.71967Q1.521903,17.667437,1.583322,17.626398000000002Q1.644742,17.585359,1.712987,17.55709Q1.781233,17.528822,1.853682,17.514411Q1.9261314999999999,17.5,2,17.5Q2.0738685,17.5,2.146318,17.514411Q2.218767,17.528822,2.287013,17.55709Q2.355258,17.585359,2.416678,17.626398000000002Q2.478097,17.667437,2.53033,17.71967Q2.582563,17.771903000000002,2.623602,17.833322Q2.664641,17.894742,2.69291,17.962987Q2.721178,18.031233,2.735589,18.103682Q2.75,18.1761315,2.75,18.25L2.75,19.5Q2.75,20.22487,3.2625599999999997,20.73744Q3.77513,21.25,4.5,21.25L7,21.25Q7.07387,21.25,7.14632,21.264409999999998Q7.21877,21.27882,7.28701,21.30709Q7.35526,21.33536,7.41668,21.3764Q7.4781,21.41744,7.53033,21.46967Q7.58256,21.5219,7.6236,21.58332Q7.66464,21.64474,7.69291,21.71299Q7.72118,21.78123,7.73559,21.85368Q7.75,21.92613,7.75,22Q7.75,22.07387,7.73559,22.14632Q7.72118,22.21877,7.69291,22.287010000000002Q7.66464,22.35526,7.6236,22.41668Q7.58256,22.4781,7.53033,22.53033Q7.4781,22.58256,7.41668,22.6236Q7.35526,22.66464,7.28701,22.69291Q7.21877,22.72118,7.14632,22.735590000000002Q7.07387,22.75,7,22.75L4.5,22.75Q3.15381,22.75,2.201903,21.798099999999998Q1.25,20.84619,1.25,19.5L1.25,18.25Z" fill-rule="evenodd" fill="#000000" fill-opacity="1"/></g><g><path d="M17,1.25L19.5,1.25Q20.84619,1.25,21.798099999999998,2.201903Q22.75,3.15381,22.75,4.5L22.75,5.75Q22.75,5.823869999999999,22.735590000000002,5.896319999999999Q22.72118,5.96877,22.69291,6.03701Q22.66464,6.10526,22.6236,6.16668Q22.58256,6.2281,22.53033,6.28033Q22.4781,6.33256,22.41668,6.3736Q22.35526,6.41464,22.287010000000002,6.44291Q22.21877,6.47118,22.14632,6.48559Q22.07387,6.5,22,6.5Q21.92613,6.5,21.85368,6.48559Q21.78123,6.47118,21.712989999999998,6.44291Q21.64474,6.41464,21.58332,6.3736Q21.5219,6.33256,21.46967,6.28033Q21.41744,6.2281,21.3764,6.16668Q21.33536,6.10526,21.30709,6.03701Q21.27882,5.96877,21.264409999999998,5.896319999999999Q21.25,5.823869999999999,21.25,5.75L21.25,5.74915L21.25,4.5Q21.25,3.77513,20.73744,3.2625599999999997Q20.22487,2.75,19.5,2.75L17,2.75Q16.9261315,2.75,16.853682,2.735589Q16.781233,2.721178,16.712987,2.69291Q16.644742,2.664641,16.583322,2.623602Q16.521903000000002,2.582563,16.46967,2.53033Q16.417437,2.478097,16.376398000000002,2.416678Q16.335359,2.355258,16.30709,2.287013Q16.278822,2.218767,16.264411,2.146318Q16.25,2.0738685,16.25,2Q16.25,1.9261314999999999,16.264411,1.853682Q16.278822,1.781233,16.30709,1.712987Q16.335359,1.644742,16.376398000000002,1.583322Q16.417437,1.521903,16.46967,1.46967Q16.521903000000002,1.417437,16.583322,1.376398Q16.644742,1.335359,16.712987,1.30709Q16.781233,1.278822,16.853682,1.264411Q16.9261315,1.25,17,1.25Z" fill-rule="evenodd" fill="#000000" fill-opacity="1"/></g><g><path d="M21.25,18.25Q21.25,18.1761315,21.264409999999998,18.103682Q21.27882,18.031233,21.30709,17.962987Q21.33536,17.894742,21.3764,17.833322Q21.41744,17.771903000000002,21.46967,17.71967Q21.5219,17.667437,21.58332,17.626398000000002Q21.64474,17.585359,21.712989999999998,17.55709Q21.78123,17.528822,21.85368,17.514411Q21.92613,17.5,22,17.5Q22.07387,17.5,22.14632,17.514411Q22.21877,17.528822,22.287010000000002,17.55709Q22.35526,17.585359,22.41668,17.626398000000002Q22.4781,17.667437,22.53033,17.71967Q22.58256,17.771903000000002,22.6236,17.833322Q22.66464,17.894742,22.69291,17.962987Q22.72118,18.031233,22.735590000000002,18.103682Q22.75,18.1761315,22.75,18.25L22.75,19.5Q22.75,20.8462,21.798099999999998,21.798099999999998Q20.8462,22.75,19.5,22.75L17,22.75Q16.9261315,22.75,16.853682,22.735590000000002Q16.781233,22.72118,16.712987,22.69291Q16.644742,22.66464,16.583322,22.6236Q16.521903000000002,22.58256,16.46967,22.53033Q16.417437,22.4781,16.376398000000002,22.41668Q16.335359,22.35526,16.30709,22.287010000000002Q16.278822,22.21877,16.264411,22.14632Q16.25,22.07387,16.25,22Q16.25,21.92613,16.264411,21.85368Q16.278822,21.78123,16.30709,21.71299Q16.335359,21.64474,16.376398000000002,21.58332Q16.417437,21.5219,16.46967,21.46967Q16.521903000000002,21.41744,16.583322,21.3764Q16.644742,21.33536,16.712987,21.30709Q16.781233,21.27882,16.853682,21.264409999999998Q16.9261315,21.25,17,21.25L19.5,21.25Q20.22487,21.25,20.73744,20.73744Q21.25,20.22488,21.25,19.5L21.25,18.25L21.25,18.25Z" fill-rule="evenodd" fill="#000000" fill-opacity="1"/></g></g></svg>