<svg xmlns="http://www.w3.org/2000/svg" xmlns:xlink="http://www.w3.org/1999/xlink" fill="none" version="1.1" width="24" height="24" viewBox="0 0 24 24"><defs><clipPath id="master_svg0_5851_03401"><rect x="0" y="0" width="24" height="24" rx="0"/></clipPath></defs><g clip-path="url(#master_svg0_5851_03401)"><g><path d="M6.25,12.5L6.25,20.5Q6.25,20.573900000000002,6.264411,20.6463Q6.278822,20.7188,6.30709,20.787Q6.335359,20.8553,6.376398,20.9167Q6.417437,20.978099999999998,6.46967,21.0303Q6.521903,21.0826,6.583322,21.1236Q6.644742,21.1646,6.712987,21.1929Q6.781233,21.2212,6.853682,21.235599999999998Q6.9261315,21.25,7,21.25L17,21.25Q17.073900000000002,21.25,17.1463,21.235599999999998Q17.2188,21.2212,17.287,21.1929Q17.3553,21.1646,17.4167,21.1236Q17.478099999999998,21.0826,17.5303,21.0303Q17.5826,20.978099999999998,17.6236,20.9167Q17.6646,20.8553,17.6929,20.787Q17.7212,20.7188,17.735599999999998,20.6463Q17.75,20.573900000000002,17.75,20.5L17.75,12.5Q17.75,10.11829,16.06586,8.434145000000001Q14.38171,6.75,12,6.75Q9.61829,6.75,7.934145,8.434145000000001Q6.25,10.11829,6.25,12.5ZM7.75,19.75L16.25,19.75L16.25,12.5Q16.25,10.739609999999999,15.0052,9.49481Q13.760390000000001,8.25,12,8.25Q10.239609999999999,8.25,8.99481,9.4948Q7.75,10.739609999999999,7.75,12.5L7.75,19.75Z" fill-rule="evenodd" fill="#000000" fill-opacity="1" style="mix-blend-mode:passthrough"/></g><g><path d="M11.25,2.5Q11.25,2.4261315,11.264410999999999,2.353682Q11.278822,2.281233,11.30709,2.212987Q11.335359,2.144742,11.376398,2.083322Q11.417437,2.021903,11.46967,1.96967Q11.521903,1.917437,11.583322,1.876398Q11.644742,1.835359,11.712987,1.80709Q11.781233,1.778822,11.853682,1.764411Q11.9261315,1.75,12,1.75Q12.0738685,1.75,12.146318,1.764411Q12.218767,1.778822,12.287013,1.80709Q12.355258,1.835359,12.416678,1.876398Q12.478097,1.917437,12.53033,1.96967Q12.582563,2.021903,12.623602,2.083322Q12.664641,2.144742,12.69291,2.212987Q12.721178,2.281233,12.735589000000001,2.353682Q12.75,2.4261315,12.75,2.5L12.75,4Q12.75,4.07387,12.735589000000001,4.14632Q12.721178,4.21877,12.69291,4.28701Q12.664641,4.3552599999999995,12.623602,4.4166799999999995Q12.582563,4.4780999999999995,12.53033,4.53033Q12.478097,4.58256,12.416678,4.6236Q12.355258,4.66464,12.287013,4.6929099999999995Q12.218767,4.72118,12.146318,4.73559Q12.0738685,4.75,12,4.75Q11.9261315,4.75,11.853682,4.73559Q11.781233,4.72118,11.712987,4.6929099999999995Q11.644742,4.66464,11.583322,4.6236Q11.521903,4.58256,11.46967,4.53033Q11.417437,4.4780999999999995,11.376398,4.4166799999999995Q11.335359,4.3552599999999995,11.30709,4.28701Q11.278822,4.21877,11.264410999999999,4.14632Q11.25,4.07387,11.25,4L11.25,2.5Z" fill-rule="evenodd" fill="#000000" fill-opacity="1" style="mix-blend-mode:passthrough"/></g><g><path d="M18.520430897216798,5.146205952087402Q18.6054408972168,5.044900952087402,18.6506708972168,4.920629952087403Q18.695900897216795,4.7963599520874025,18.695900897216795,4.664114952087402Q18.695900897216795,4.590246452087403,18.681490897216797,4.517796952087402Q18.667080897216795,4.445347952087403,18.638810897216796,4.377101952087402Q18.610540897216797,4.308856952087402,18.5695008972168,4.247436952087402Q18.528460897216796,4.186017952087402,18.476230897216798,4.133784952087402Q18.424000897216796,4.081551952087402,18.362580897216798,4.040512952087402Q18.301160897216796,3.9994739520874023,18.232910897216797,3.9712049520874024Q18.164670897216798,3.9429369520874022,18.092220897216798,3.9285259520874023Q18.019770897216798,3.9141149520874023,17.945899897216798,3.9141149520874023Q17.779628897216796,3.9141149520874023,17.628936897216796,3.9843839520874025Q17.478243897216796,4.054652952087403,17.371366897216795,4.182023952087403L17.371260897216796,4.182149952087403L16.407360897216797,5.330878952087402L16.407167897216798,5.331108952087402Q16.322161897216798,5.432413952087402,16.276931897216798,5.556683952087402Q16.231700897216797,5.6809549520874025,16.231700897216797,5.8132049520874025Q16.231700897216797,5.887064952087402,16.246111897216796,5.959514952087402Q16.2605228972168,6.031964952087402,16.288790897216796,6.100214952087402Q16.317059897216797,6.168454952087402,16.3580988972168,6.229874952087402Q16.399137897216796,6.291294952087402,16.451370897216798,6.343524952087402Q16.5036038972168,6.3957649520874025,16.565022897216796,6.436804952087402Q16.626442897216798,6.477844952087402,16.694687897216795,6.506104952087402Q16.762933897216797,6.534374952087402,16.835382897216796,6.548784952087402Q16.907832397216797,6.563194952087402,16.981700897216797,6.5632049520874025Q17.147971897216795,6.563194952087402,17.298663897216798,6.492934952087403Q17.4493568972168,6.422664952087402,17.556233897216796,6.295294952087403L18.520270897216797,5.146395952087403L18.520430897216798,5.146205952087402L18.520430897216798,5.146205952087402Z" fill-rule="evenodd" fill="#000000" fill-opacity="1" style="mix-blend-mode:passthrough"/></g><g><path d="M21.23959915161133,10.882254054931641Q21.304219151611328,10.87085905493164,21.365869151611328,10.84841605493164Q21.427529151611328,10.82597405493164,21.48435915161133,10.79316505493164Q21.541179151611328,10.76035705493164,21.59144915161133,10.71817905493164Q21.641709151611327,10.67600205493164,21.68388915161133,10.62573705493164Q21.726059151611327,10.575472054931641,21.75886915161133,10.518647054931641Q21.791679151611326,10.461822054931641,21.81411915161133,10.40016305493164Q21.83655915161133,10.33850405493164,21.847959151611327,10.273885054931641Q21.85934915161133,10.20926595493164,21.85934915161133,10.14365005493164Q21.85934915161133,10.069781554931641,21.844939151611328,9.99733205493164Q21.83052915161133,9.924883054931641,21.802259151611327,9.85663705493164Q21.773989151611328,9.788392054931641,21.73294915161133,9.726972054931641Q21.691909151611327,9.66555305493164,21.63967915161133,9.613320054931641Q21.587449151611327,9.56108705493164,21.52602915161133,9.52004805493164Q21.464609151611327,9.479009054931641,21.39635915161133,9.450740054931641Q21.32811915161133,9.42247205493164,21.25566915161133,9.40806105493164Q21.18321915161133,9.39365005493164,21.10934915161133,9.39365005493164Q21.043729151611327,9.39365005493164,20.97909915161133,9.40504605493164L19.50185315161133,9.66554605493164Q19.437234151611328,9.67694105493164,19.37557515161133,9.69938305493164Q19.313917151611328,9.72182605493164,19.257092151611328,9.75463505493164Q19.20026815161133,9.787443054931641,19.15000315161133,9.829621054931641Q19.099739151611328,9.871798054931642,19.05756215161133,9.922063054931641Q19.015386151611327,9.97232805493164,18.982578151611328,10.02915305493164Q18.94977015161133,10.08597845493164,18.92732915161133,10.147637294931641Q18.904887151611327,10.209296154931641,18.893493151611327,10.27391505493164Q18.882099151611328,10.33853405493164,18.882099151611328,10.404150054931641Q18.882099151611328,10.47801805493164,18.896510151611327,10.55046805493164Q18.91092115161133,10.62291705493164,18.939189151611327,10.69116205493164Q18.96745815161133,10.75940805493164,19.00849715161133,10.82082805493164Q19.049536151611328,10.882247054931641,19.10176915161133,10.93448005493164Q19.15400215161133,10.986713054931641,19.215421151611327,11.027752054931641Q19.27684115161133,11.06879105493164,19.345086151611326,11.097059054931641Q19.41333215161133,11.125328054931641,19.485781151611327,11.13973905493164Q19.55823065161133,11.154150054931641,19.632099151611328,11.154150054931641Q19.697720751611328,11.154150054931641,19.762345151611328,11.14275405493164L21.23959915161133,10.882254054931641L21.23959915161133,10.882254054931641Z" fill-rule="evenodd" fill="#000000" fill-opacity="1" style="mix-blend-mode:passthrough"/></g><g><path d="M3.02099193888855,9.405124645996093L4.49801993888855,9.665542645996094Q4.56263993888855,9.676935645996094,4.62429993888855,9.699377645996094Q4.68595993888855,9.721818645996093,4.74277993888855,9.754626645996094Q4.799609938888549,9.787434645996093,4.84987993888855,9.829612645996093Q4.90013993888855,9.871789645996094,4.94231993888855,9.922055645996094Q4.98449993888855,9.972320645996094,5.01730993888855,10.029146645996093Q5.05011993888855,10.085972545996094,5.072559938888549,10.147632435996094Q5.09499993888855,10.209292345996094,5.10639993888855,10.273912645996093Q5.117789938888549,10.338532645996093,5.117789938888549,10.404149645996094Q5.117789938888549,10.478018645996094,5.1033799388885495,10.550467645996093Q5.08896993888855,10.622916645996094,5.06069993888855,10.691162645996094Q5.03242993888855,10.759408645996094,4.99138993888855,10.820827645996093Q4.95034993888855,10.882246645996094,4.89811993888855,10.934479645996094Q4.84588993888855,10.986712645996093,4.78446993888855,11.027751645996094Q4.72304993888855,11.068791645996093,4.65479993888855,11.097059645996094Q4.58655993888855,11.125327645996094,4.5141099388885495,11.139738645996093Q4.44165993888855,11.154149645996094,4.367789938888549,11.154149645996094Q4.30217993888855,11.154149645996094,4.23755993888855,11.142757645996094L4.2374099388885496,11.142730645996094L2.76054093888855,10.882339645996094L2.76035393888855,10.882307645996093Q2.6957339388885497,10.870913645996094,2.63407393888855,10.848472645996093Q2.57241293888855,10.826030645996093,2.51558693888855,10.793222645996094Q2.4587599388885497,10.760414645996093,2.40849393888855,10.718237645996094Q2.35822793888855,10.676059645996094,2.3160499388885496,10.625794645996093Q2.2738719388885498,10.575528645996094,2.24106293888855,10.518702645996093Q2.20825393888855,10.461876645996094,2.18581093888855,10.400217645996094Q2.1633689388885498,10.338557645996094,2.15197393888855,10.273936645996093Q2.14057993888855,10.209316845996094,2.14057993888855,10.143699645996094Q2.14057993888855,10.069831145996094,2.1549909388885498,9.997381645996093Q2.1694019388885497,9.924932645996094,2.19766993888855,9.856686645996094Q2.2259389388885498,9.788441645996095,2.26697793888855,9.727021645996095Q2.30801693888855,9.665602645996094,2.3602499388885496,9.613369645996094Q2.41248293888855,9.561136645996093,2.4739019388885497,9.520097645996094Q2.5353219388885497,9.479058645996094,2.60356693888855,9.450789645996094Q2.6718129388885496,9.422521645996094,2.74426193888855,9.408110645996093Q2.8167114388885497,9.393699645996094,2.89057993888855,9.393699645996094Q2.9561910388885497,9.393699645996094,3.0208059388885498,9.405091645996094L3.02099193888855,9.405124645996093Z" fill-rule="evenodd" fill="#000000" fill-opacity="1" style="mix-blend-mode:passthrough"/></g><g><path d="M6.628875831390381,4.181970047912598L7.593029831390381,5.331009047912597Q7.678039831390381,5.4323150479125974,7.723269831390381,5.5565850479125976Q7.768499831390381,5.680850047912598,7.768499831390381,5.813100047912598Q7.768499831390381,5.886970047912598,7.754089831390381,5.959420047912598Q7.739679831390381,6.031870047912598,7.711409831390381,6.100110047912597Q7.683139831390381,6.168360047912598,7.6420998313903805,6.229780047912598Q7.601059831390381,6.291200047912597,7.548829831390381,6.343430047912598Q7.49659983139038,6.395660047912598,7.435179831390381,6.4367000479125975Q7.373759831390381,6.477740047912597,7.305509831390381,6.506010047912598Q7.237269831390381,6.534280047912597,7.164819831390381,6.548690047912597Q7.092369831390381,6.563100047912598,7.018499831390381,6.563100047912598Q6.852228831390381,6.563100047912598,6.701535831390381,6.492830047912598Q6.550842831390381,6.422560047912597,6.443966831390381,6.295190047912598L5.479808831390381,5.146151047912598L5.479765831390381,5.146100047912598Q5.394760831390381,5.044795047912598,5.349530831390381,4.920525047912598Q5.304299831390381,4.796255047912598,5.304299831390381,4.664010047912598Q5.304299831390381,4.590141547912598,5.318710831390381,4.517692047912598Q5.333121831390381,4.445243047912598,5.3613898313903805,4.376997047912598Q5.389658831390381,4.308752047912598,5.430697831390381,4.2473320479125976Q5.4717368313903805,4.185913047912598,5.523969831390381,4.1336800479125975Q5.576202831390381,4.081447047912597,5.637621831390381,4.040408047912598Q5.699041831390381,3.9993690479125976,5.767286831390381,3.9711000479125977Q5.835532831390381,3.9428320479125976,5.907981831390381,3.9284210479125976Q5.980431331390381,3.9140100479125977,6.054299831390381,3.9140100479125977Q6.220570831390381,3.9140100479125977,6.371263831390381,3.984279047912598Q6.521956831390381,4.054548047912598,6.628833831390381,4.181920047912597L6.628875831390381,4.181970047912598Z" fill-rule="evenodd" fill="#000000" fill-opacity="1" style="mix-blend-mode:passthrough"/></g><g><path d="M3,19.75L21.5,19.75Q21.5739,19.75,21.6463,19.764411Q21.7188,19.778822,21.787,19.80709Q21.8553,19.835359,21.9167,19.876398000000002Q21.9781,19.917437,22.0303,19.96967Q22.0826,20.021903000000002,22.1236,20.083322Q22.1646,20.144742,22.1929,20.212987Q22.2212,20.281233,22.2356,20.353682Q22.25,20.4261315,22.25,20.5Q22.25,20.5738685,22.2356,20.646318Q22.2212,20.718767,22.1929,20.787013Q22.1646,20.855258,22.1236,20.916678Q22.0826,20.978096999999998,22.0303,21.03033Q21.9781,21.082563,21.9167,21.123601999999998Q21.8553,21.164641,21.787,21.19291Q21.7188,21.221178,21.6463,21.235589Q21.5739,21.25,21.5,21.25L3,21.25Q2.9261315,21.25,2.853682,21.235589Q2.781233,21.221178,2.712987,21.19291Q2.644742,21.164641,2.583322,21.123601999999998Q2.521903,21.082563,2.46967,21.03033Q2.417437,20.978096999999998,2.376398,20.916678Q2.335359,20.855258,2.30709,20.787013Q2.278822,20.718767,2.264411,20.646318Q2.25,20.5738685,2.25,20.5Q2.25,20.4261315,2.264411,20.353682Q2.278822,20.281233,2.30709,20.212987Q2.335359,20.144742,2.376398,20.083322Q2.417437,20.021903000000002,2.46967,19.96967Q2.521903,19.917437,2.583322,19.876398000000002Q2.644742,19.835359,2.712987,19.80709Q2.781233,19.778822,2.853682,19.764411Q2.9261315,19.75,3,19.75Z" fill-rule="evenodd" fill="#000000" fill-opacity="1" style="mix-blend-mode:passthrough"/></g></g></svg>