<svg xmlns="http://www.w3.org/2000/svg" xmlns:xlink="http://www.w3.org/1999/xlink" fill="none" version="1.1" width="24" height="24" viewBox="0 0 24 24"><defs><clipPath id="master_svg0_91_01622"><rect x="0" y="0" width="24" height="24" rx="0"/></clipPath></defs><g clip-path="url(#master_svg0_91_01622)"><g><path d="M17.4801,7.51992Q15.2102,5.25,12,5.249999Q8.78984,5.25,6.51992,7.51992Q4.25,9.78984,4.249999,13Q4.25,16.2102,6.51992,18.4801Q8.78985,20.75,12,20.75Q15.2102,20.75,17.4801,18.4801Q19.75,16.2102,19.75,13Q19.75,9.78984,17.4801,7.51992ZM7.580579999999999,8.58058Q9.411159999999999,6.75,12,6.75Q14.58883,6.75,16.4194,8.58058Q18.25,10.411159999999999,18.25,13Q18.25,15.58883,16.4194,17.4194Q14.58884,19.25,12,19.25Q9.411159999999999,19.25,7.580579999999999,17.4194Q5.75,15.58884,5.749999,13Q5.75,10.411159999999999,7.580579999999999,8.58058Z" fill-rule="evenodd" fill="#000000" fill-opacity="1" style="mix-blend-mode:passthrough"/></g><g><path d="M11.25,10Q11.25,9.9261315,11.264410999999999,9.853682Q11.278822,9.781233,11.30709,9.712987Q11.335359,9.644742,11.376398,9.583322Q11.417437,9.521903,11.46967,9.46967Q11.521903,9.417437,11.583322,9.376398Q11.644742,9.335359,11.712987,9.30709Q11.781233,9.278822,11.853682,9.264410999999999Q11.9261315,9.25,12,9.25Q12.0738685,9.25,12.146318,9.264410999999999Q12.218767,9.278822,12.287013,9.30709Q12.355258,9.335359,12.416678,9.376398Q12.478097,9.417437,12.53033,9.46967Q12.582563,9.521903,12.623602,9.583322Q12.664641,9.644742,12.69291,9.712987Q12.721178,9.781233,12.735589000000001,9.853682Q12.75,9.9261315,12.75,10L12.75,12.25L14,12.25Q14.07387,12.25,14.14632,12.26441Q14.21877,12.27882,14.28701,12.30709Q14.35526,12.33536,14.41668,12.3764Q14.4781,12.41744,14.53033,12.46967Q14.58256,12.5219,14.6236,12.58332Q14.66464,12.64474,14.69291,12.71299Q14.72118,12.78123,14.73559,12.85368Q14.75,12.92613,14.75,13Q14.75,13.07387,14.73559,13.14632Q14.72118,13.21877,14.69291,13.28701Q14.66464,13.35526,14.6236,13.41668Q14.58256,13.4781,14.53033,13.53033Q14.4781,13.58256,14.41668,13.6236Q14.35526,13.66464,14.28701,13.69291Q14.21877,13.72118,14.14632,13.73559Q14.07387,13.75,14,13.75L12,13.75Q11.9261315,13.75,11.853682,13.73559Q11.781233,13.72118,11.712987,13.69291Q11.644742,13.66464,11.583322,13.6236Q11.521903,13.58256,11.46967,13.53033Q11.417437,13.4781,11.376398,13.41668Q11.335359,13.35526,11.30709,13.28701Q11.278822,13.21877,11.264410999999999,13.14632Q11.25,13.07387,11.25,13L11.25,10Z" fill-rule="evenodd" fill="#000000" fill-opacity="1" style="mix-blend-mode:passthrough"/></g><g><path d="M7.441129999999999,4.606552Q7.51288,4.554368,7.57048,4.486882Q7.628080000000001,4.419396,7.668340000000001,4.340333Q7.708600000000001,4.261271,7.7293,4.174997Q7.75,4.0887229,7.75,4Q7.75,3.9261315,7.73559,3.853682Q7.72118,3.781233,7.6929099999999995,3.712987Q7.66464,3.644742,7.6236,3.583322Q7.58256,3.521903,7.53033,3.46967Q7.4780999999999995,3.417437,7.4166799999999995,3.376398Q7.3552599999999995,3.335359,7.28701,3.30709Q7.21877,3.278822,7.146319999999999,3.264411Q7.073869999999999,3.25,7,3.25Q6.75611,3.25,6.558870000000001,3.3934480000000002L6.55872,3.393555L3.808871,5.39345Q3.737118,5.4456299999999995,3.6795210000000003,5.51312Q3.621924,5.5806000000000004,3.581664,5.65967Q3.541403,5.73873,3.520702,5.825Q3.5,5.91128,3.5,6Q3.5,6.073869999999999,3.514411,6.146319999999999Q3.528822,6.21877,3.55709,6.28701Q3.585359,6.3552599999999995,3.626398,6.4166799999999995Q3.667437,6.4780999999999995,3.71967,6.53033Q3.771903,6.58256,3.833322,6.6236Q3.894742,6.66464,3.962987,6.6929099999999995Q4.031233,6.72118,4.103682,6.73559Q4.1761315,6.75,4.25,6.75Q4.493888,6.75,4.691129,6.60655L7.441129999999999,4.606552Z" fill-rule="evenodd" fill="#000000" fill-opacity="1" style="mix-blend-mode:passthrough"/></g><g><path d="M17.441129,3.3934480000000002L20.19113,5.39345Q20.26288,5.4456299999999995,20.32048,5.51312Q20.37808,5.5806000000000004,20.41834,5.65967Q20.4586,5.73873,20.4793,5.825Q20.5,5.91128,20.5,6Q20.5,6.073869999999999,20.485590000000002,6.146319999999999Q20.47118,6.21877,20.44291,6.28701Q20.41464,6.3552599999999995,20.3736,6.4166799999999995Q20.33256,6.4780999999999995,20.28033,6.53033Q20.2281,6.58256,20.16668,6.6236Q20.10526,6.66464,20.03701,6.6929099999999995Q19.96877,6.72118,19.89632,6.73559Q19.82387,6.75,19.75,6.75Q19.50611,6.75,19.30887,6.60655L16.558871,4.606552Q16.487118,4.554368,16.429521,4.486882Q16.371924,4.419396,16.331664,4.340333Q16.291403,4.261271,16.270702,4.174997Q16.25,4.0887229,16.25,4Q16.25,3.9261315,16.264411,3.853682Q16.278822,3.781233,16.30709,3.712987Q16.335359,3.644742,16.376398000000002,3.583322Q16.417437,3.521903,16.46967,3.46967Q16.521903000000002,3.417437,16.583322,3.376398Q16.644742,3.335359,16.712987,3.30709Q16.781233,3.278822,16.853682,3.264411Q16.9261315,3.25,17,3.25Q17.243888,3.25,17.441129,3.3934480000000002Z" fill-rule="evenodd" fill="#000000" fill-opacity="1" style="mix-blend-mode:passthrough"/></g></g></svg>