<svg xmlns="http://www.w3.org/2000/svg" xmlns:xlink="http://www.w3.org/1999/xlink" fill="none" version="1.1" width="24" height="24" viewBox="0 0 24 24"><defs><clipPath id="master_svg0_91_02054"><rect x="0" y="0" width="24" height="24" rx="0"/></clipPath></defs><g clip-path="url(#master_svg0_91_02054)"><g><path d="M19,13Q19,13.17184,18.9916,13.34347Q18.9831,13.51511,18.9663,13.686119999999999Q18.9494,13.85713,18.9242,14.02711Q18.899,14.19709,18.8655,14.36563Q18.832,14.53417,18.7902,14.70086Q18.7485,14.86755,18.6986,15.03199Q18.648699999999998,15.19643,18.5908,15.35823Q18.532899999999998,15.52002,18.4672,15.67878Q18.401400000000002,15.83754,18.3279,15.99288Q18.2545,16.1482,18.1734,16.299799999999998Q18.092399999999998,16.4513,18.0041,16.5987Q17.9158,16.7461,17.8203,16.889Q17.724800000000002,17.0319,17.622500000000002,17.1699Q17.5201,17.3079,17.411099999999998,17.4408Q17.3021,17.5736,17.186700000000002,17.7009Q17.0713,17.828200000000002,16.9497,17.9497Q16.828200000000002,18.0713,16.7009,18.186700000000002Q16.5736,18.3021,16.4408,18.411099999999998Q16.3079,18.5201,16.1699,18.622500000000002Q16.0319,18.724800000000002,15.889,18.8203Q15.7461,18.9158,15.5987,19.0041Q15.4513,19.092399999999998,15.2998,19.1734Q15.1482,19.2545,14.99288,19.3279Q14.83754,19.401400000000002,14.67878,19.4672Q14.52002,19.532899999999998,14.35823,19.5908Q14.19643,19.648699999999998,14.03199,19.6986Q13.86755,19.7485,13.70086,19.7902Q13.53417,19.832,13.36563,19.8655Q13.19709,19.899,13.02711,19.9242Q12.85713,19.9494,12.686119999999999,19.9663Q12.51511,19.9831,12.34347,19.9916Q12.17184,20,12,20Q11.82816,20,11.65653,19.9916Q11.48489,19.9831,11.313880000000001,19.9663Q11.14287,19.9494,10.97289,19.9242Q10.80291,19.899,10.63437,19.8655Q10.46583,19.832,10.299140000000001,19.7902Q10.13245,19.7485,9.96801,19.6986Q9.80357,19.648699999999998,9.641770000000001,19.5908Q9.479980000000001,19.532899999999998,9.32122,19.4672Q9.16246,19.401400000000002,9.00711,19.3279Q8.85177,19.2545,8.70022,19.1734Q8.54867,19.092399999999998,8.40128,19.0041Q8.25389,18.9158,8.11101,18.8203Q7.96813,18.724800000000002,7.8301,18.622500000000002Q7.69208,18.5201,7.5592500000000005,18.411099999999998Q7.426410000000001,18.3021,7.29909,18.186700000000002Q7.17176,18.0713,7.05025,17.9497Q6.9287399999999995,17.828200000000002,6.81334,17.7009Q6.69794,17.5736,6.5889299999999995,17.4408Q6.47991,17.3079,6.37755,17.1699Q6.27518,17.0319,6.17971,16.889Q6.08424,16.7461,5.9959,16.5987Q5.907556,16.4513,5.826551,16.299799999999998Q5.745546,16.1482,5.6720749999999995,15.99288Q5.598604,15.83754,5.532843,15.67878Q5.467083,15.52002,5.409191,15.35823Q5.3513,15.19643,5.301418,15.03199Q5.251535,14.86755,5.2097809999999996,14.70086Q5.168027,14.53417,5.134503,14.36563Q5.100979,14.19709,5.0757644,14.02711Q5.0505502,13.85713,5.0337069,13.686119999999999Q5.0168636,13.51511,5.0084318,13.34347Q5,13.17184,5,13Q5,12.82816,5.0084318,12.65653Q5.0168636,12.48489,5.0337069,12.313880000000001Q5.0505502,12.14287,5.0757644,11.97289Q5.100979,11.80291,5.134503,11.63437Q5.168027,11.46583,5.2097809999999996,11.299140000000001Q5.251535,11.13245,5.301418,10.96801Q5.3513,10.80357,5.409191,10.641770000000001Q5.467083,10.479980000000001,5.532843,10.32122Q5.598604,10.16246,5.6720749999999995,10.00711Q5.745546,9.85177,5.826551,9.70022Q5.907556,9.54867,5.995899,9.40128Q6.08424,9.25389,6.17971,9.11101Q6.27518,8.96813,6.37755,8.8301Q6.47991,8.69208,6.5889299999999995,8.55925Q6.69794,8.42641,6.81334,8.29909Q6.9287399999999995,8.171759999999999,7.05025,8.05025Q7.17176,7.9287399999999995,7.29909,7.81334Q7.426410000000001,7.69794,7.5592500000000005,7.5889299999999995Q7.69208,7.47991,7.8301,7.37755Q7.96813,7.27518,8.11101,7.17971Q8.25389,7.08424,8.40128,6.9959Q8.54867,6.907556,8.70022,6.826551Q8.85177,6.745546,9.00711,6.6720749999999995Q9.16246,6.598604,9.32122,6.532843Q9.479980000000001,6.467083,9.641770000000001,6.409191Q9.80357,6.3513,9.96801,6.301418Q10.13245,6.251535,10.299140000000001,6.2097809999999996Q10.46583,6.168027,10.63437,6.134503Q10.80291,6.100979,10.97289,6.0757644Q11.14287,6.0505502,11.313880000000001,6.0337069Q11.48489,6.0168636,11.65653,6.0084318Q11.82816,6,12,6Q12.17184,6,12.34347,6.0084318Q12.51511,6.0168636,12.686119999999999,6.0337069Q12.85713,6.0505502,13.02711,6.0757644Q13.19709,6.100979,13.36563,6.134503Q13.53417,6.168027,13.70086,6.2097809999999996Q13.86755,6.251535,14.03199,6.301418Q14.19643,6.3513,14.35823,6.409191Q14.52002,6.467083,14.67878,6.532843Q14.83754,6.598604,14.99288,6.6720749999999995Q15.1482,6.745546,15.2998,6.826551Q15.4513,6.907556,15.5987,6.995899Q15.7461,7.08424,15.889,7.17971Q16.0319,7.27518,16.1699,7.37755Q16.3079,7.47991,16.4408,7.5889299999999995Q16.5736,7.69794,16.7009,7.81334Q16.828200000000002,7.9287399999999995,16.9497,8.05025Q17.0713,8.171759999999999,17.186700000000002,8.29909Q17.3021,8.42641,17.411099999999998,8.55925Q17.5201,8.69208,17.622500000000002,8.8301Q17.724800000000002,8.96813,17.8203,9.11101Q17.9158,9.25389,18.0041,9.40128Q18.092399999999998,9.54867,18.1734,9.70022Q18.2545,9.85177,18.3279,10.00711Q18.401400000000002,10.16246,18.4672,10.32122Q18.532899999999998,10.479980000000001,18.5908,10.641770000000001Q18.648699999999998,10.80357,18.6986,10.96801Q18.7485,11.13245,18.7902,11.299140000000001Q18.832,11.46583,18.8655,11.63437Q18.899,11.80291,18.9242,11.97289Q18.9494,12.14287,18.9663,12.313880000000001Q18.9831,12.48489,18.9916,12.65653Q19,12.82816,19,13Z" fill="#7700FF" fill-opacity="1"/><path d="M17.4801,7.51992Q15.2102,5.25,12,5.249999Q8.78984,5.25,6.51992,7.51992Q4.25,9.78984,4.249999,13Q4.25,16.2102,6.51992,18.4801Q8.78985,20.75,12,20.75Q15.2102,20.75,17.4801,18.4801Q19.75,16.2102,19.75,13Q19.75,9.78984,17.4801,7.51992ZM7.580579999999999,8.58058Q9.411159999999999,6.75,12,6.75Q14.58883,6.75,16.4194,8.58058Q18.25,10.411159999999999,18.25,13Q18.25,15.58883,16.4194,17.4194Q14.58884,19.25,12,19.25Q9.411159999999999,19.25,7.580579999999999,17.4194Q5.75,15.58884,5.749999,13Q5.75,10.411159999999999,7.580579999999999,8.58058Z" fill-rule="evenodd" fill="#7700FF" fill-opacity="1" style="mix-blend-mode:passthrough"/></g><g><path d="M11.25,9Q11.25,8.9261315,11.264410999999999,8.853682Q11.278822,8.781233,11.30709,8.712987Q11.335359,8.644742,11.376398,8.583322Q11.417437,8.521903,11.46967,8.46967Q11.521903,8.417437,11.583322,8.376398Q11.644742,8.335359,11.712987,8.30709Q11.781233,8.278822,11.853682,8.264410999999999Q11.9261315,8.25,12,8.25Q12.0738685,8.25,12.146318,8.264410999999999Q12.218767,8.278822,12.287013,8.30709Q12.355258,8.335359,12.416678,8.376398Q12.478097,8.417437,12.53033,8.46967Q12.582563,8.521903,12.623602,8.583322Q12.664641,8.644742,12.69291,8.712987Q12.721178,8.781233,12.735589000000001,8.853682Q12.75,8.9261315,12.75,9L12.75,12.25L15,12.25Q15.07387,12.25,15.14632,12.26441Q15.21877,12.27882,15.28701,12.30709Q15.35526,12.33536,15.41668,12.3764Q15.4781,12.41744,15.53033,12.46967Q15.58256,12.5219,15.6236,12.58332Q15.66464,12.64474,15.69291,12.71299Q15.72118,12.78123,15.73559,12.85368Q15.75,12.92613,15.75,13Q15.75,13.07387,15.73559,13.14632Q15.72118,13.21877,15.69291,13.28701Q15.66464,13.355260000000001,15.6236,13.41668Q15.58256,13.478100000000001,15.53033,13.53033Q15.4781,13.58256,15.41668,13.6236Q15.35526,13.66464,15.28701,13.692910000000001Q15.21877,13.72118,15.14632,13.73559Q15.07387,13.75,15,13.75L12,13.75Q11.9261315,13.75,11.853682,13.73559Q11.781233,13.72118,11.712987,13.692910000000001Q11.644742,13.66464,11.583322,13.6236Q11.521903,13.58256,11.46967,13.53033Q11.417437,13.478100000000001,11.376398,13.41668Q11.335359,13.355260000000001,11.30709,13.28701Q11.278822,13.21877,11.264410999999999,13.14632Q11.25,13.07387,11.25,13L11.25,9Z" fill-rule="evenodd" fill="#FFFFFF" fill-opacity="1" style="mix-blend-mode:passthrough"/></g><g><path d="M7.441129999999999,4.606552Q7.51288,4.554368,7.57048,4.486882Q7.628080000000001,4.419396,7.668340000000001,4.340333Q7.708600000000001,4.261271,7.7293,4.174997Q7.75,4.0887229,7.75,4Q7.75,3.9261315,7.73559,3.853682Q7.72118,3.781233,7.6929099999999995,3.712987Q7.66464,3.644742,7.6236,3.583322Q7.58256,3.521903,7.53033,3.46967Q7.4780999999999995,3.417437,7.4166799999999995,3.376398Q7.3552599999999995,3.335359,7.28701,3.30709Q7.21877,3.278822,7.146319999999999,3.264411Q7.073869999999999,3.25,7,3.25Q6.75611,3.25,6.558870000000001,3.3934480000000002L6.55872,3.393555L3.808871,5.39345Q3.737118,5.4456299999999995,3.6795210000000003,5.51312Q3.621924,5.5806000000000004,3.581664,5.65967Q3.541403,5.73873,3.520702,5.825Q3.5,5.91128,3.5,6Q3.5,6.073869999999999,3.514411,6.146319999999999Q3.528822,6.21877,3.55709,6.28701Q3.585359,6.3552599999999995,3.626398,6.4166799999999995Q3.667437,6.4780999999999995,3.71967,6.53033Q3.771903,6.58256,3.833322,6.6236Q3.894742,6.66464,3.962987,6.6929099999999995Q4.031233,6.72118,4.103682,6.73559Q4.1761315,6.75,4.25,6.75Q4.493888,6.75,4.691129,6.60655L7.441129999999999,4.606552Z" fill-rule="evenodd" fill="#7700FF" fill-opacity="1" style="mix-blend-mode:passthrough"/></g><g><path d="M17.441129,3.3934480000000002L20.19113,5.39345Q20.26288,5.4456299999999995,20.32048,5.51312Q20.37808,5.5806000000000004,20.41834,5.65967Q20.4586,5.73873,20.4793,5.825Q20.5,5.91128,20.5,6Q20.5,6.073869999999999,20.485590000000002,6.146319999999999Q20.47118,6.21877,20.44291,6.28701Q20.41464,6.3552599999999995,20.3736,6.4166799999999995Q20.33256,6.4780999999999995,20.28033,6.53033Q20.2281,6.58256,20.16668,6.6236Q20.10526,6.66464,20.03701,6.6929099999999995Q19.96877,6.72118,19.89632,6.73559Q19.82387,6.75,19.75,6.75Q19.50611,6.75,19.30887,6.60655L16.558871,4.606552Q16.487118,4.554368,16.429521,4.486882Q16.371924,4.419396,16.331664,4.340333Q16.291403,4.261271,16.270702,4.174997Q16.25,4.0887229,16.25,4Q16.25,3.9261315,16.264411,3.853682Q16.278822,3.781233,16.30709,3.712987Q16.335359,3.644742,16.376398000000002,3.583322Q16.417437,3.521903,16.46967,3.46967Q16.521903000000002,3.417437,16.583322,3.376398Q16.644742,3.335359,16.712987,3.30709Q16.781233,3.278822,16.853682,3.264411Q16.9261315,3.25,17,3.25Q17.243888,3.25,17.441129,3.3934480000000002Z" fill-rule="evenodd" fill="#7700FF" fill-opacity="1" style="mix-blend-mode:passthrough"/></g></g></svg>