<svg xmlns="http://www.w3.org/2000/svg" xmlns:xlink="http://www.w3.org/1999/xlink" fill="none" version="1.1" width="24" height="24" viewBox="0 0 24 24"><defs><clipPath id="master_svg0_91_08980"><rect x="0" y="0" width="24" height="24" rx="0"/></clipPath></defs><g clip-path="url(#master_svg0_91_08980)"><g><path d="M12.003193722656249,5.4987351562499995C11.72705272265625,5.4987351562499995,11.50299072265625,5.27500515625,11.50299072265625,4.99886515625L11.50299072265625,3.99836315625C11.50299072265625,3.72226915625,11.72709972265625,3.49853515625,12.003193722656249,3.49853515625C12.27928772265625,3.49853515625,12.50344072265625,3.72226915625,12.50344072265625,3.99836315625L12.50344072265625,4.99886515625C12.50344072265625,5.27495515625,12.27933372265625,5.4987351562499995,12.003193722656249,5.4987351562499995Z" fill="#FFBC00" fill-opacity="1" style="mix-blend-mode:passthrough"/></g><g><path d="M6.501344172851563,20.50246828125C6.414203172851563,20.50246828125,6.325937172851562,20.479788281250002,6.245734172851562,20.43215828125C6.008453132851563,20.29077828125,5.930828172851562,19.98393828125,6.072156472851563,19.74660828125L8.082622172851563,16.37020528125C8.224002172851563,16.13292408125,8.530842172851562,16.05525208125,8.768172172851562,16.19587708125C9.005452172851562,16.33725328125,9.083502172851563,16.64409628125,8.942122172851562,16.88217528125L6.931281172851563,20.25857828125C6.840988172851563,20.40998828125,6.677631172851562,20.50265828125,6.501344172851563,20.50246828125ZM17.510602172851563,20.50246828125C17.339202172851564,20.50246828125,17.173702172851563,20.415328281249998,17.07990217285156,20.25857828125L15.068782172851563,16.88217328125C14.928152172851563,16.64414228125,15.005782172851562,16.33725128125,15.243062172851563,16.19587608125C15.480342172851563,16.05449958125,15.787232172851562,16.13287640125,15.928612172851562,16.37020328125L17.93970217285156,19.74660828125C18.080402172851564,19.98388828125,18.002702172851563,20.29077828125,17.765402172851562,20.43215828125C17.688302172851564,20.47802828125,17.600302172851563,20.502308281250002,17.510602172851563,20.50246828125Z" fill="#231F2E" fill-opacity="1"/></g><g><path d="M16.00403759765625,3.49853515625C14.26453759765625,3.49853515625,12.75209759765625,4.49055015625,12.00317759765625,5.93894515625C11.25430759765625,4.49059815625,9.74187759765625,3.49853515625,8.00201759765625,3.49853515625C5.52026759765625,3.49853515625,3.50103759765625,5.51739515625,3.50103759765625,7.99951515625C3.50103759765625,10.48164515625,5.52026759765625,12.50087515625,8.00201759765625,12.50087515625C9.74187759765625,12.50087515625,11.25430759765625,11.50848515625,12.00317759765625,10.05976515625C12.75209759765625,11.50848515625,14.26453759765625,12.50087515625,16.00403759765625,12.50087515625C18.48603759765625,12.50087515625,20.50533759765625,10.48164515625,20.50533759765625,7.99951515625C20.50533759765625,5.51739515625,18.48603759765625,3.498534240723,16.00403759765625,3.49853515625Z" fill="#F95002" fill-opacity="1" style="mix-blend-mode:passthrough"/></g><g><path d="M19.004673291015624,12.000619296875Q19.004673291015624,12.172499296875,18.996273291015626,12.344179296875Q18.987773291015625,12.515859296875,18.970973291015625,12.686919296875Q18.954073291015625,12.857969296875,18.928873291015627,13.027999296875Q18.903673291015625,13.198019296875,18.870173291015625,13.366599296875Q18.836573291015625,13.535189296875,18.794873291015627,13.701919296875Q18.753073291015625,13.868659296875,18.703173291015624,14.033139296875Q18.653273291015623,14.197619296875,18.595373291015626,14.359459296875Q18.537473291015623,14.521299296875,18.471673291015627,14.680099296875Q18.405873291015624,14.838899296875,18.332473291015624,14.994279296875Q18.258973291015625,15.149679296875,18.177873291015626,15.301279296875Q18.096873291015626,15.452879296875,18.008573291015622,15.600279296875Q17.920173291015622,15.747679296875,17.824673291015625,15.890579296875Q17.729173291015627,16.033579296875,17.626773291015624,16.171579296875002Q17.524373291015625,16.309679296875,17.415373291015626,16.442579296875Q17.306373291015625,16.575379296875,17.190873291015627,16.702779296875Q17.075473291015626,16.830079296875,16.953973291015625,16.951679296875Q16.832373291015625,17.073179296875,16.705073291015623,17.188679296875Q16.577673291015625,17.304079296875003,16.444773291015625,17.413079296875Q16.311973291015626,17.522179296875002,16.173873291015624,17.624579296874998Q16.035873291015626,17.726979296875,15.892973291015625,17.822379296875Q15.749973291015625,17.917879296875,15.602573291015625,18.006279296875Q15.455173291015624,18.094679296875,15.303573291015624,18.175679296875Q15.151973291015626,18.256679296875,14.996613291015626,18.330179296875002Q14.841233291015625,18.403679296874998,14.682433291015625,18.469479296875Q14.523633291015624,18.535279296875,14.361803291015624,18.593179296875Q14.199973291015626,18.651079296875,14.035493291015625,18.700979296874998Q13.871013291015625,18.750879296875,13.704283291015624,18.792579296874997Q13.537553291015625,18.834379296875,13.368973291015624,18.867879296875Q13.200393291015626,18.901479296875,13.030373291015625,18.926679296875Q12.860353291015624,18.951879296875,12.689303291015625,18.968779296875Q12.518253291015625,18.985579296875002,12.346573291015625,18.993979296875Q12.174903291015625,19.002479296875002,12.003023291015625,19.002479296875002Q11.831143291015625,19.002479296875002,11.659463291015625,18.993979296875Q11.487793291015624,18.985579296875002,11.316743291015625,18.968779296875Q11.145683291015626,18.951879296875,10.975663291015625,18.926679296875Q10.805643291015624,18.901479296875,10.637063291015625,18.867879296875Q10.468493291015626,18.834379296875,10.301763291015625,18.792579296874997Q10.135033291015624,18.750879296875,9.970553291015625,18.700979296874998Q9.806073291015625,18.651079296875,9.644233291015624,18.593179296875Q9.482403291015626,18.535279296875,9.323603291015626,18.469479296875Q9.164813291015625,18.403679296874998,9.009433291015625,18.330179296875002Q8.854053291015624,18.256679296875,8.702463291015626,18.175679296875Q8.550883291015625,18.094679296875,8.403453291015625,18.006279296875Q8.256023291015625,17.917879296875,8.113113291015626,17.822379296875Q7.9702032910156255,17.726979296875,7.832143291015624,17.624579296874998Q7.694093291015625,17.522179296875002,7.561223291015625,17.413079296875Q7.428353291015625,17.304079296875003,7.3010032910156255,17.188679296875Q7.173643291015625,17.073179296875,7.052113291015624,16.951679296875Q6.930573291015625,16.830079296875,6.815143291015625,16.702779296875Q6.699713291015625,16.575379296875,6.590673291015625,16.442579296875Q6.4816332910156245,16.309679296875,6.379243291015625,16.171579296875002Q6.276853291015625,16.033579296875,6.181363291015625,15.890579296875Q6.085873291015625,15.747679296875,5.997507291015625,15.600279296875Q5.909143291015625,15.452879296875,5.828119291015625,15.301279296875Q5.747095291015625,15.149679296875,5.673606291015625,14.994279296875Q5.600118291015625,14.838899296875,5.534342291015625,14.680099296875Q5.468566291015625,14.521299296875,5.410661291015625,14.359459296875Q5.352756291015625,14.197619296875,5.302862291015625,14.033139296875Q5.252967291015625,13.868659296875,5.211204291015625,13.701919296875Q5.169440291015625,13.535189296875,5.135908291015625,13.366599296875Q5.102375291015625,13.198019296875,5.077155591015625,13.027999296875Q5.051935391015625,12.857969296875,5.035088091015625,12.686919296875Q5.018240891015625,12.515859296875,5.009807081015625,12.344179296875Q5.001373291015625,12.172499296875,5.001373291015625,12.000619296875Q5.001373291015625,11.828729296875,5.009807081015625,11.657049296875Q5.018240891015625,11.485369296875,5.035088091015625,11.314319296875Q5.051935391015625,11.143259296875,5.077155591015625,10.973229296875001Q5.102375291015625,10.803209296875,5.135908291015625,10.634619296875Q5.169440291015625,10.466039296875,5.211204291015625,10.299309296875Q5.252967291015625,10.132569296875001,5.302862291015625,9.968089296875Q5.352756291015625,9.803609296874999,5.410661291015625,9.641769296875001Q5.468566291015625,9.479929296875,5.534342291015625,9.321129296875Q5.600118291015625,9.162329296875,5.673606291015625,9.006939296875Q5.747095291015625,8.851559296875,5.828119291015625,8.699969296875Q5.909143291015625,8.548379296875,5.997507291015625,8.400949296875Q6.085873291015625,8.253519296875,6.181363291015625,8.110599296875Q6.276853291015625,7.967689296875,6.379243291015625,7.829629296875Q6.4816332910156245,7.6915692968750005,6.590673291015625,7.558699296875Q6.699713291015625,7.4258292968749995,6.815143291015625,7.298469296875Q6.930573291015625,7.1711092968750005,7.052113291015624,7.049569296875Q7.173643291015625,6.928029296875,7.3010032910156255,6.812599296875Q7.428353291015625,6.697169296875,7.561223291015625,6.588119296875Q7.694093291015625,6.479079296875,7.832143291015624,6.376689296875Q7.9702032910156255,6.274299296875,8.113113291015626,6.178799296875Q8.256023291015625,6.083309296875,8.403453291015625,5.994940296875Q8.550883291015625,5.906573296875,8.702463291015626,5.8255472968749995Q8.854053291015624,5.744521296875,9.009433291015625,5.671030296875Q9.164813291015625,5.597540296875,9.323603291015626,5.531762296875Q9.482403291015626,5.465984296875,9.644233291015624,5.408078296875Q9.806073291015625,5.350171296875,9.970553291015625,5.300276296875Q10.135033291015624,5.250380296875,10.301763291015625,5.208615296875Q10.468493291015626,5.166850296875,10.637063291015625,5.133317296875Q10.805643291015624,5.099784296875,10.975663291015625,5.074563596875Q11.145683291015626,5.049342796875,11.316743291015625,5.032495096875Q11.487793291015624,5.015647296875,11.659463291015625,5.007213316875Q11.831143291015625,4.998779296875,12.003023291015625,4.998779296875Q12.174903291015625,4.998779296875,12.346573291015625,5.007213316875Q12.518253291015625,5.015647296875,12.689303291015625,5.032495096875Q12.860353291015624,5.049342796875,13.030373291015625,5.074563596875Q13.200393291015626,5.099784296875,13.368973291015624,5.133317296875Q13.537553291015625,5.166850296875,13.704283291015624,5.208615296875Q13.871013291015625,5.250380296875,14.035493291015625,5.300276296875Q14.199973291015626,5.350171296875,14.361803291015624,5.408078296875Q14.523633291015624,5.465984296875,14.682433291015625,5.531762296875Q14.841233291015625,5.597540296875,14.996613291015626,5.671030296875Q15.151973291015626,5.744521296875,15.303573291015624,5.8255472968749995Q15.455173291015624,5.906573296875,15.602573291015625,5.994940296875Q15.749973291015625,6.083309296875,15.892973291015625,6.178799296875Q16.035873291015626,6.274299296875,16.173873291015624,6.376689296875Q16.311973291015626,6.479079296875,16.444773291015625,6.588119296875Q16.577673291015625,6.697169296875,16.705073291015623,6.812599296875Q16.832373291015625,6.928029296875,16.953973291015625,7.049569296875Q17.075473291015626,7.1711092968750005,17.190873291015627,7.298469296875Q17.306373291015625,7.4258292968749995,17.415373291015626,7.558699296875Q17.524373291015625,7.6915692968750005,17.626773291015624,7.829629296875Q17.729173291015627,7.967689296875,17.824673291015625,8.110599296875Q17.920173291015622,8.253519296875,18.008573291015622,8.400949296875Q18.096873291015626,8.548379296875,18.177873291015626,8.699969296875Q18.258973291015625,8.851559296875,18.332473291015624,9.006939296875Q18.405873291015624,9.162329296875,18.471673291015627,9.321129296875Q18.537473291015623,9.479929296875,18.595373291015626,9.641769296875001Q18.653273291015623,9.803609296874999,18.703173291015624,9.968089296875Q18.753073291015625,10.132569296875001,18.794873291015627,10.299309296875Q18.836573291015625,10.466039296875,18.870173291015625,10.634619296875Q18.903673291015625,10.803209296875,18.928873291015627,10.973229296875001Q18.954073291015625,11.143259296875,18.970973291015625,11.314319296875Q18.987773291015625,11.485369296875,18.996273291015626,11.657049296875Q19.004673291015624,11.828729296875,19.004673291015624,12.000619296875Z" fill="#FFDE7B" fill-opacity="1" style="mix-blend-mode:passthrough"/></g><g><path d="M12.003178115234375,19.50263515625C9.999268115234376,19.50263515625,8.115548115234375,18.721935156249998,6.698338115234375,17.30543515625C5.281490115234375,15.88823515625,4.501068115234375,14.00450515625,4.501068115234375,12.00059515625C4.501068115234375,9.99673515625,5.281443115234375,8.11297515625,6.698338115234375,6.69580515625C8.115548115234375,5.27891015625,9.999268115234376,4.49853515625,12.003178115234375,4.49853515625C14.006708115234375,4.49853515625,15.890468115234375,5.27891015625,17.307668115234375,6.69580515625C18.724868115234376,8.11297515625,19.504868115234373,9.99673515625,19.504868115234373,12.00059515625C19.504868115234373,14.00450515625,18.724768115234376,15.88823515625,17.307668115234375,17.30543515625C15.890468115234375,18.721935156249998,14.006758115234375,19.50263515625,12.003178115234375,19.50263515625ZM12.003178115234375,5.49865515625C8.418038115234374,5.49865515625,5.501568115234375,8.415455156250001,5.501568115234375,12.00059515625C5.501568115234375,15.58573515625,8.418038115234374,18.502235156250002,12.003178115234375,18.502235156250002C15.588668115234375,18.502235156250002,18.505068115234373,15.58573515625,18.505068115234373,12.00059515625C18.505068115234373,8.415455156250001,15.588768115234375,5.49866515625,12.003178115234375,5.49865515625Z" fill="#FFBC00" fill-opacity="1" style="mix-blend-mode:passthrough"/></g><g><path d="M12.003193722656249,12.500877578125C11.72705272265625,12.500877578125,11.50299072265625,12.276767578125,11.50299072265625,12.000627578125L11.50299072265625,7.999517578125C11.50299072265625,7.723376578125,11.72709972265625,7.499267578125,12.003193722656249,7.499267578125C12.27928772265625,7.499267578125,12.50344072265625,7.723376578125,12.50344072265625,7.999517578125L12.50344072265625,12.000627578125C12.50344072265625,12.276717578125,12.27933372265625,12.500877578125,12.003193722656249,12.500877578125Z" fill="#231F2E" fill-opacity="1"/></g><g><path d="M14.8321917578125,15.32922C14.6994517578125,15.32956,14.5720717578125,15.27682,14.4784317578125,15.18273L11.6494287578125,12.354156C11.4542596578125,12.158708,11.4542596578125,11.842119,11.6494287578125,11.646671C11.8446167578125,11.451109,12.1613977578125,11.451109,12.3565847578125,11.646671L15.1858617578125,14.475950000000001C15.3806817578125,14.67072,15.3806817578125,14.98788,15.1858617578125,15.182690000000001C15.0922817578125,15.27681,14.9649217578125,15.32958,14.8321917578125,15.32922Z" fill="#231F2E" fill-opacity="1"/></g></g></svg>