<svg xmlns="http://www.w3.org/2000/svg" xmlns:xlink="http://www.w3.org/1999/xlink" fill="none" version="1.1" width="24" height="24" viewBox="0 0 24 24"><defs><clipPath id="master_svg0_5851_02607"><rect x="0" y="0" width="24" height="24" rx="0"/></clipPath></defs><g clip-path="url(#master_svg0_5851_02607)"><g><path d="M9,3L4,3C3.447715,3,3,3.447715,3,4L3,9C3,9.552299999999999,3.447715,10,4,10L9,10C9.552299999999999,10,10,9.552299999999999,10,9L10,4C10,3.447715,9.552299999999999,3,9,3Z" fill="#000000" fill-opacity="1"/><path d="M10.75,9L10.75,4Q10.75,3.275126,10.237449999999999,2.762566Q9.72489,2.25,9,2.25L4,2.25Q3.275126,2.25,2.762563,2.762563Q2.25,3.275126,2.25,4L2.25,9Q2.25,9.72489,2.762566,10.237449999999999Q3.275126,10.75,4,10.75L9,10.75Q9.724879999999999,10.75,10.23744,10.23744Q10.75,9.72489,10.75,9ZM9,3.75Q9.25,3.75,9.25,4L9.25,9Q9.25,9.25,9,9.25L4,9.25Q3.75,9.25,3.75,9L3.75,4Q3.75,3.75,4,3.75L9,3.75Z" fill-rule="evenodd" fill="#000000" fill-opacity="1" style="mix-blend-mode:passthrough"/></g><g><path d="M9,14L4,14C3.447715,14,3,14.4477,3,15L3,20C3,20.5523,3.447715,21,4,21L9,21C9.552299999999999,21,10,20.5523,10,20L10,15C10,14.4477,9.552299999999999,14,9,14Z" fill="#000000" fill-opacity="1"/><path d="M10.75,20L10.75,15Q10.75,14.275115,10.23744,13.762558Q9.72489,13.25,9,13.25L4,13.25Q3.275126,13.25,2.762566,13.762554Q2.25,14.275115,2.25,15L2.25,20Q2.25,20.72488,2.762566,21.23744Q3.275126,21.75,4,21.75L9,21.75Q9.724879999999999,21.75,10.23744,21.23744Q10.75,20.72488,10.75,20ZM9.17678,14.823217Q9.25,14.896434,9.25,15L9.25,20Q9.25,20.25,9,20.25L4,20.25Q3.75,20.25,3.75,20L3.75,15Q3.75,14.75,4,14.75L9,14.75Q9.103570000000001,14.75,9.17678,14.823217Z" fill-rule="evenodd" fill="#000000" fill-opacity="1" style="mix-blend-mode:passthrough"/></g><g><path d="M20,3L15,3C14.4477,3,14,3.447715,14,4L14,9C14,9.552299999999999,14.4477,10,15,10L20,10C20.5523,10,21,9.552299999999999,21,9L21,4C21,3.447715,20.5523,3,20,3Z" fill="#000000" fill-opacity="1"/><path d="M21.75,9L21.75,4Q21.75,3.275126,21.23744,2.762566Q20.72488,2.25,20,2.25L15,2.25Q14.275115,2.25,13.762554,2.762566Q13.25,3.275126,13.25,4L13.25,9Q13.25,9.724879999999999,13.762557,10.23744Q14.275115,10.75,15,10.75L20,10.75Q20.72488,10.75,21.23744,10.23744Q21.75,9.72489,21.75,9ZM20,3.75Q20.25,3.75,20.25,4L20.25,9Q20.25,9.25,20,9.25L15,9.25Q14.75,9.25,14.75,9L14.75,4Q14.75,3.75,15,3.75L20,3.75Z" fill-rule="evenodd" fill="#000000" fill-opacity="1" style="mix-blend-mode:passthrough"/></g><g><path d="M20,14L15,14C14.4477,14,14,14.4477,14,15L14,20C14,20.5523,14.4477,21,15,21L20,21C20.5523,21,21,20.5523,21,20L21,15C21,14.4477,20.5523,14,20,14Z" fill="#000000" fill-opacity="1"/><path d="M21.75,20L21.75,15Q21.75,14.275115,21.23744,13.762557Q20.72488,13.25,20,13.25L15,13.25Q14.275115,13.25,13.762557,13.762557Q13.25,14.275115,13.25,15L13.25,20Q13.25,20.72488,13.762557,21.23744Q14.275115,21.75,15,21.75L20,21.75Q20.72488,21.75,21.23744,21.23744Q21.75,20.72488,21.75,20ZM20.17678,14.823218Q20.25,14.896435,20.25,15L20.25,20Q20.25,20.25,20,20.25L15,20.25Q14.75,20.25,14.75,20L14.75,15Q14.75,14.75,15,14.75L20,14.75Q20.10356,14.75,20.17678,14.823218Z" fill-rule="evenodd" fill="#000000" fill-opacity="1" style="mix-blend-mode:passthrough"/></g></g></svg>