<svg xmlns="http://www.w3.org/2000/svg" xmlns:xlink="http://www.w3.org/1999/xlink" fill="none" version="1.1" width="24" height="24" viewBox="0 0 24 24"><defs><clipPath id="master_svg0_5898_02693"><rect x="0" y="0" width="24" height="24" rx="0"/></clipPath></defs><g clip-path="url(#master_svg0_5898_02693)"><g><path d="M11.142859999999999,9.642859999999999L11.142859999999999,5.357143Q11.142859999999999,4.735822,10.70353,4.296485Q10.26419,3.8571429999999998,9.642859999999999,3.8571429999999998L5.357143,3.8571429999999998Q4.735822,3.8571429999999998,4.296483,4.296483Q3.8571429999999998,4.735822,3.8571429999999998,5.357143L3.8571429999999998,9.642859999999999Q3.8571429999999998,10.26419,4.296485,10.70353Q4.735821,11.142859999999999,5.357143,11.142859999999999L9.642859999999999,11.142859999999999Q10.26419,11.142859999999999,10.703520000000001,10.703520000000001Q11.142859999999999,10.26419,11.142859999999999,9.642859999999999ZM9.642859999999999,5.142857Q9.857140000000001,5.142857,9.857140000000001,5.357143L9.857140000000001,9.642859999999999Q9.857140000000001,9.73163,9.79439,9.79438Q9.73163,9.857140000000001,9.642859999999999,9.857140000000001L5.357143,9.857140000000001Q5.268378,9.857140000000001,5.205617,9.79438Q5.142857,9.73162,5.142857,9.642859999999999L5.142857,5.357143Q5.142857,5.142857,5.357143,5.142857L9.642859999999999,5.142857Z" fill-rule="evenodd" fill="#000000" fill-opacity="1" style="mix-blend-mode:passthrough"/></g><g><path d="M11.142859999999999,18.64286L11.142859999999999,14.357143Q11.142859999999999,13.735812,10.703520000000001,13.296478Q10.26419,12.857143,9.642859999999999,12.857143L5.357143,12.857143Q4.735822,12.857143,4.296485,13.296475Q3.8571429999999998,13.735813,3.8571429999999998,14.357143L3.8571429999999998,18.64286Q3.8571429999999998,19.26419,4.296485,19.70352Q4.735822,20.14286,5.357143,20.14286L9.642859999999999,20.14286Q10.26419,20.14286,10.703520000000001,19.70352Q11.142859999999999,19.26419,11.142859999999999,18.64286ZM9.642859999999999,14.142857Q9.857140000000001,14.142857,9.857140000000001,14.357143L9.857140000000001,18.64286Q9.857140000000001,18.73163,9.79438,18.79438Q9.73163,18.85714,9.642859999999999,18.85714L5.357143,18.85714Q5.268379,18.85714,5.205618,18.79438Q5.142857,18.73162,5.142857,18.64286L5.142857,14.357143Q5.142857,14.142857,5.357143,14.142857L9.642859999999999,14.142857Z" fill-rule="evenodd" fill="#000000" fill-opacity="1" style="mix-blend-mode:passthrough"/></g><g><path d="M20.14286,9.642859999999999L20.14286,5.357143Q20.14286,4.735822,19.70352,4.296485Q19.26419,3.8571429999999998,18.64286,3.8571429999999998L14.357143,3.8571429999999998Q13.735813,3.8571429999999998,13.296475,4.296485Q12.857143,4.735822,12.857143,5.357143L12.857143,9.642859999999999Q12.857143,10.26419,13.296478,10.703520000000001Q13.735812,11.142859999999999,14.357143,11.142859999999999L18.64286,11.142859999999999Q19.26419,11.142859999999999,19.70352,10.703520000000001Q20.14286,10.26419,20.14286,9.642859999999999ZM18.64286,5.142857Q18.85714,5.142857,18.85714,5.357143L18.85714,9.642859999999999Q18.85714,9.73163,18.79438,9.79438Q18.73163,9.857140000000001,18.64286,9.857140000000001L14.357143,9.857140000000001Q14.268373,9.857140000000001,14.205615,9.79438Q14.142857,9.73163,14.142857,9.642859999999999L14.142857,5.357143Q14.142857,5.142857,14.357143,5.142857L18.64286,5.142857Z" fill-rule="evenodd" fill="#000000" fill-opacity="1" style="mix-blend-mode:passthrough"/></g><g><path d="M20.14286,18.64286L20.14286,14.357143Q20.14286,13.735813,19.70352,13.296478Q19.26419,12.857143,18.64286,12.857143L14.357143,12.857143Q13.735812,12.857143,13.296478,13.296478Q12.857143,13.735812,12.857143,14.357143L12.857143,18.64286Q12.857143,19.26419,13.296478,19.70352Q13.735813,20.14286,14.357143,20.14286L18.64286,20.14286Q19.26419,20.14286,19.70352,19.70352Q20.14286,19.26419,20.14286,18.64286ZM18.64286,14.142857Q18.85714,14.142857,18.85714,14.357143L18.85714,18.64286Q18.85714,18.73163,18.79438,18.79438Q18.73163,18.85714,18.64286,18.85714L14.357143,18.85714Q14.268373,18.85714,14.205615,18.79438Q14.142857,18.73163,14.142857,18.64286L14.142857,14.357143Q14.142857,14.142857,14.357143,14.142857L18.64286,14.142857Z" fill-rule="evenodd" fill="#000000" fill-opacity="1" style="mix-blend-mode:passthrough"/></g></g></svg>