<svg xmlns="http://www.w3.org/2000/svg" xmlns:xlink="http://www.w3.org/1999/xlink" fill="none" version="1.1" width="24" height="24" viewBox="0 0 24 24"><defs><clipPath id="master_svg0_6076_02697"><rect x="0" y="0" width="24" height="24" rx="0"/></clipPath></defs><g clip-path="url(#master_svg0_6076_02697)"><g><path d="M11.25,9Q11.25,8.926131457,11.264411,8.85368228Q11.2788219,8.78123312,11.3070898,8.71298748Q11.3353577,8.64474183,11.3763971,8.58332238Q11.4174366,8.52190292,11.4696693,8.46966994Q11.5219021,8.41743702,11.5833206,8.37639785Q11.6447411,8.33535868,11.712986,8.3070904Q11.7812319,8.27882212,11.8536816,8.26441109Q11.9261312,8.25,12,8.25Q12.0738678,8.25,12.1463165,8.26441109Q12.2187653,8.27882212,12.2870111,8.3070904Q12.355257,8.33535868,12.4166756,8.37639785Q12.478096,8.41743702,12.5303288,8.46966994Q12.5825615,8.52190292,12.623601,8.58332238Q12.6646404,8.64474183,12.6929083,8.71298748Q12.7211761,8.78123312,12.7355881,8.85368228Q12.75,8.926131457,12.75,9L12.75,20.215618Q15.273249,19.979799,17.126524,18.1265249Q18.979799,16.2732496,19.215618,13.75L19,13.75Q18.92613,13.75,18.853682,13.735589000000001Q18.781232,13.7211776,18.712986,13.692909199999999Q18.64474,13.6646409,18.583320999999998,13.6236019Q18.521902,13.5825624,18.469669,13.5303297Q18.417437,13.478097,18.376396,13.416677Q18.335358,13.355258,18.307088999999998,13.2870121Q18.27882,13.2187667,18.264409999999998,13.1463175Q18.249999000000003,13.0738688,18.25,13Q18.249999000000003,12.9261312,18.264409999999998,12.853682Q18.27882,12.7812326,18.307088999999998,12.7129869Q18.335358,12.6447415,18.376396,12.583321999999999Q18.417437,12.5219026,18.469669,12.4696698Q18.521902,12.4174368,18.583320999999998,12.3763976Q18.64474,12.3353586,18.712986,12.30709Q18.781232,12.2788219,18.853682,12.264410999999999Q18.92613,12.25,19,12.25L21,12.25Q21.073868,12.25,21.146317,12.264410999999999Q21.218765,12.2788219,21.28701,12.30709Q21.355255,12.3353586,21.416676,12.3763976Q21.478096,12.4174368,21.530329,12.4696698Q21.582561,12.5219026,21.6236,12.583322299999999Q21.664639,12.6447415,21.692907,12.7129872Q21.721176,12.7812328,21.735588,12.853682Q21.75,12.9261312,21.75,13Q21.75,13.0738688,21.735588,13.1463175Q21.721176,13.2187667,21.692907,13.2870121Q21.664639,13.355258,21.6236,13.416677Q21.582561,13.478097,21.530329,13.5303297Q21.478096,13.5825624,21.416676,13.6236019Q21.355255,13.6646409,21.28701,13.692909199999999Q21.218765,13.7211776,21.146317,13.735589000000001Q21.073868,13.75,21,13.75L20.721701,13.75Q20.480692,16.8936787,18.187185,19.187185Q15.62437,21.75,12,21.75Q8.3756313,21.75,5.8128154,19.187184000000002Q3.51930845,16.893677699999998,3.27829841,13.75L3,13.75Q2.926131457,13.75,2.85368228,13.735589000000001Q2.78123312,13.7211776,2.71298748,13.692909199999999Q2.64474183,13.6646409,2.58332238,13.6236019Q2.52190292,13.5825624,2.46966994,13.5303297Q2.41743702,13.478097,2.37639785,13.416677Q2.33535868,13.355258,2.3070904,13.2870121Q2.27882212,13.2187667,2.26441109,13.1463175Q2.25,13.0738688,2.25,13Q2.25,12.9261312,2.26441109,12.853682Q2.27882212,12.7812326,2.3070904,12.7129869Q2.33535868,12.6447415,2.37639785,12.583321999999999Q2.41743702,12.5219026,2.46966994,12.4696698Q2.52190292,12.4174368,2.58332238,12.3763976Q2.64474183,12.3353586,2.71298748,12.30709Q2.78123312,12.2788219,2.85368228,12.264410999999999Q2.926131457,12.25,3,12.25L5,12.25Q5.0738683,12.25,5.1463175,12.264410999999999Q5.2187667,12.2788219,5.2870121,12.30709Q5.355258,12.3353586,5.4166775000000005,12.3763976Q5.478097,12.4174368,5.530329699999999,12.4696698Q5.5825627,12.5219026,5.623601900000001,12.583322299999999Q5.6646409,12.6447415,5.6929092,12.7129872Q5.7211776,12.7812328,5.7355886,12.853682Q5.75,12.9261312,5.75,13Q5.75,13.0738688,5.7355886,13.1463175Q5.7211776,13.2187667,5.6929092,13.2870121Q5.6646409,13.355258,5.623601900000001,13.416677Q5.5825629,13.478097,5.5303299,13.5303297Q5.478097,13.5825624,5.4166775000000005,13.6236019Q5.355258,13.6646409,5.2870121,13.692909199999999Q5.2187667,13.7211776,5.1463175,13.735589000000001Q5.0738683,13.75,5,13.75L4.7843800000000005,13.75Q5.0201993,16.2732487,6.8734753,18.126524Q8.7267504,19.979799,11.25,20.215618L11.25,9Z" fill-rule="evenodd" fill="#000000" fill-opacity="1" style="mix-blend-mode:passthrough"/></g><g><path d="M14.651650400000001,3.34834963Q13.5533009,2.25000024,12,2.25000018Q10.4466988,2.25,9.34834957,3.34834945Q8.25000018,4.4466988999999995,8.25000018,6Q8.25,7.5533013,9.34834945,8.651650400000001Q10.4466991,9.75,12,9.75Q13.5533009,9.75,14.651650400000001,8.651650400000001Q15.75,7.5533009,15.75,6Q15.75,4.4466991,14.651650400000001,3.34834963ZM10.4090098,4.4090097Q11.0680194,3.75,12,3.75Q12.9319811,3.75000018,13.5909905,4.4090098Q14.25,5.0680194,14.25,6Q14.25,6.9319811,13.5909905,7.5909905Q12.9319811,8.25,12,8.25Q11.0680192,8.25,10.4090097,7.5909905Q9.75,6.9319811,9.75000018,6Q9.75000018,5.0680194,10.4090098,4.4090097Z" fill-rule="evenodd" fill="#000000" fill-opacity="1" style="mix-blend-mode:passthrough"/></g></g></svg>