<svg xmlns="http://www.w3.org/2000/svg" xmlns:xlink="http://www.w3.org/1999/xlink" fill="none" version="1.1" width="24" height="24" viewBox="0 0 24 24"><defs><clipPath id="master_svg0_6079_02799"><rect x="0" y="0" width="24" height="24" rx="0"/></clipPath></defs><g clip-path="url(#master_svg0_6079_02799)"><g><path d="M11.25,9Q11.25,8.926131457,11.264411,8.85368228Q11.2788219,8.78123312,11.3070898,8.71298748Q11.3353577,8.64474183,11.3763971,8.58332238Q11.4174366,8.52190292,11.4696693,8.46966994Q11.5219021,8.41743702,11.5833206,8.37639785Q11.6447411,8.33535868,11.712986,8.3070904Q11.7812319,8.27882212,11.8536816,8.26441109Q11.9261312,8.25,12,8.25Q12.0738678,8.25,12.1463165,8.26441109Q12.2187653,8.27882212,12.2870111,8.3070904Q12.355257,8.33535868,12.4166756,8.37639785Q12.478096,8.41743702,12.5303288,8.46966994Q12.5825615,8.52190292,12.623601,8.58332238Q12.6646404,8.64474183,12.6929083,8.71298748Q12.7211761,8.78123312,12.7355881,8.85368228Q12.75,8.926131457,12.75,9L12.75,20.215619Q15.273249,19.979799999999997,17.126524,18.1265249Q17.232013000000002,18.021034200000003,17.369842,17.963944400000003Q17.507669,17.906854600000003,17.656855,17.906854600000003Q17.730722,17.906854600000003,17.803171,17.921265599999998Q17.875619999999998,17.9356766,17.943865000000002,17.963944400000003Q18.012111,17.9922123,18.073529999999998,18.033251800000002Q18.134951,18.074291199999998,18.187182999999997,18.126524Q18.239416,18.1787567,18.280455,18.2401752Q18.321493,18.3015957,18.349762,18.3698406Q18.378031,18.4380865,18.392442000000003,18.5105362Q18.406854,18.5829849,18.406855,18.656854600000003Q18.406855,18.8060389,18.349764,18.9438667Q18.292673,19.081696,18.187184000000002,19.187184000000002Q15.62437,21.75,12,21.75Q8.3756313,21.75,5.8128154,19.187184000000002Q3.51930845,16.893677699999998,3.27829841,13.75L3,13.75Q2.926131457,13.75,2.85368228,13.735589000000001Q2.78123312,13.7211776,2.71298748,13.692909199999999Q2.64474183,13.6646409,2.58332238,13.6236019Q2.52190292,13.5825624,2.46966994,13.5303297Q2.41743702,13.478097,2.37639785,13.416677Q2.33535868,13.355258,2.3070904,13.2870121Q2.27882212,13.2187667,2.26441109,13.1463175Q2.25,13.0738688,2.25,13Q2.25,12.9261312,2.26441109,12.853682Q2.27882212,12.7812326,2.3070904,12.7129869Q2.33535868,12.6447415,2.37639785,12.583321999999999Q2.41743702,12.5219026,2.46966994,12.4696698Q2.52190292,12.4174368,2.58332238,12.3763976Q2.64474183,12.3353586,2.71298748,12.30709Q2.78123312,12.2788219,2.85368228,12.264410999999999Q2.926131457,12.25,3,12.25L5,12.25Q5.0738683,12.25,5.1463175,12.264410999999999Q5.2187667,12.2788219,5.2870121,12.30709Q5.355258,12.3353586,5.4166775000000005,12.3763976Q5.478097,12.4174368,5.530329699999999,12.4696698Q5.5825627,12.5219026,5.623601900000001,12.583322299999999Q5.6646409,12.6447415,5.6929092,12.7129872Q5.7211776,12.7812328,5.7355886,12.853682Q5.75,12.9261312,5.75,13Q5.75,13.0738688,5.7355886,13.1463175Q5.7211776,13.2187667,5.6929092,13.2870121Q5.6646409,13.355258,5.623601900000001,13.416677Q5.5825629,13.478097,5.5303299,13.5303297Q5.478097,13.5825624,5.4166775000000005,13.6236019Q5.355258,13.6646409,5.2870121,13.692909199999999Q5.2187667,13.7211776,5.1463175,13.735589000000001Q5.0738683,13.75,5,13.75L4.7843800000000005,13.75Q5.0201993,16.2732487,6.8734753,18.126524Q8.7267504,19.979799,11.25,20.215618L11.25,9Z" fill-rule="evenodd" fill="#000000" fill-opacity="1" style="mix-blend-mode:passthrough"/></g><g><path d="M14.651650400000001,3.34834963Q13.5533009,2.25000024,12,2.25000018Q10.4466988,2.25,9.34834957,3.34834945Q8.25000018,4.4466988999999995,8.25000018,6Q8.25,7.5533013,9.34834945,8.651650400000001Q10.4466991,9.75,12,9.75Q13.5533009,9.75,14.651650400000001,8.651650400000001Q15.75,7.5533009,15.75,6Q15.75,4.4466991,14.651650400000001,3.34834963ZM10.4090098,4.4090097Q11.0680194,3.75,12,3.75Q12.9319811,3.75000018,13.5909905,4.4090098Q14.25,5.0680194,14.25,6Q14.25,6.9319811,13.5909905,7.5909905Q12.9319811,8.25,12,8.25Q11.0680192,8.25,10.4090097,7.5909905Q9.75,6.9319811,9.75000018,6Q9.75000018,5.0680194,10.4090098,4.4090097Z" fill-rule="evenodd" fill="#000000" fill-opacity="1" style="mix-blend-mode:passthrough"/></g><g><g><ellipse cx="18" cy="18" rx="4" ry="4" fill="#22C55E" fill-opacity="1"/><ellipse cx="18" cy="18" rx="4" ry="4" fill-opacity="0" stroke-opacity="1" stroke="#FFFFFF" fill="none" stroke-width="4"/></g><g><ellipse cx="18" cy="18" rx="4" ry="4" fill="#22C55E" fill-opacity="1"/><ellipse cx="18" cy="18" rx="4" ry="4" fill-opacity="0" stroke-opacity="1" stroke="#22C55E" fill="none" stroke-width="1.5"/></g><g><path d="M20.7803297,17.03033024Q20.885818999999998,16.92484105,20.9429092,16.7870127Q21,16.64918433,21,16.5Q21,16.426131457,20.985589,16.35368228Q20.9711781,16.28123312,20.9429092,16.21298748Q20.914640900000002,16.14474183,20.8736019,16.08332238Q20.8325624,16.02190292,20.7803297,15.96966994Q20.728096999999998,15.91743702,20.666677,15.87639785Q20.605258,15.83535868,20.5370121,15.8070904Q20.4687662,15.77882212,20.396317500000002,15.76441109Q20.3238683,15.75,20.25,15.75Q20.1008158,15.75000006,19.9629874,15.8070904Q19.8251591,15.86418074,19.719670100000002,15.96966988L19.7193751,15.96996492L17.25,18.4393398L16.28033006,17.46966988Q16.17484081,17.36418062,16.03701252,17.30709028Q15.89918424,17.25,15.75,17.25Q15.676131457,17.25,15.60368228,17.26441103Q15.53123312,17.27882206,15.46298748,17.30709028Q15.39474183,17.3353585,15.33332238,17.37639767Q15.27190292,17.4174369,15.21966994,17.46966988Q15.16743702,17.5219028,15.12639785,17.5833223Q15.08535868,17.6447418,15.0570904,17.7129873Q15.02882212,17.781233,15.01441109,17.8536822Q15,17.9261314,15,18Q15,18.1491843,15.05709034,18.2870126Q15.1141808,18.4248409,15.21967,18.5303302L16.71966988,20.030329899999998Q16.8251591,20.1358192,16.9629874,20.1929097Q17.1008158,20.25,17.2500001,20.25Q17.3991845,20.25,17.5370127,20.1929097Q17.6748409,20.1358192,17.7803302,20.030329899999998L20.7798681,17.03079182L20.7803297,17.03033006L20.7803297,17.03033024Z" fill-rule="evenodd" fill="#FFFFFF" fill-opacity="1" style="mix-blend-mode:passthrough"/></g></g></g></svg>