<svg id="图层_1" data-name="图层 1" xmlns="http://www.w3.org/2000/svg" viewBox="0 0 18 18">
  <defs>
    <style>
      .werbrdcga45-1 {
        fill: #854bfa;
      }

      .werbrdcga45-2 {
        fill: #fff;
      }
    </style>
  </defs>
  <g id="IconAomMenuGJKColor">
    <rect class="werbrdcga45-1" width="18" height="18" rx="4" />
  </g>
  <path class="werbrdcga45-2"
    d="M7.57,4H5.07a1,1,0,0,0-1,1v8a1,1,0,0,0,1,1h2.5a1,1,0,0,0,1-1V5A1,1,0,0,0,7.57,4ZM5,5.14h.54a.4.4,0,0,1,0,.8H5a.4.4,0,1,1,0-.8ZM5,6.87h.54a.4.4,0,1,1,0,.8H5a.4.4,0,1,1,0-.8Zm.54,6H5a.4.4,0,0,1-.4-.4.39.39,0,0,1,.4-.4h.54a.39.39,0,0,1,.4.4A.4.4,0,0,1,5.51,12.86Zm0-1.73H5a.4.4,0,1,1,0-.8h.54a.4.4,0,1,1,0,.8ZM6,9.4H5a.4.4,0,1,1,0-.8H6a.4.4,0,1,1,0,.8Z" />
  <path class="werbrdcga45-2"
    d="M13.9,13.44,10,4.17a.28.28,0,0,0-.54.11V13.2a.8.8,0,0,0,.8.8h3.29A.4.4,0,0,0,13.9,13.44Zm-2.09-1.07h-.93a.18.18,0,0,1-.17-.17V9.77a.08.08,0,0,1,.15,0l1,2.48A.11.11,0,0,1,11.81,12.37Z" />
</svg>