<svg id="图层_1" data-name="图层 1" xmlns="http://www.w3.org/2000/svg" viewBox="0 0 18 18">
  <defs>
    <style>
      .chuiehg6321 {
        fill: #3b82f6;
      }

      .chuiehg6322 {
        fill: #fff;
      }
    </style>
  </defs>
  <g id="IconAomMenuGJKColor">
    <rect class="chuiehg6321" width="18" height="18" rx="4" />
  </g>
  <path class="chuiehg6322"
    d="M13.86,9.72H13.4l-.14,0V8.26l.14,0h.46a.54.54,0,0,0,.54-.54.54.54,0,0,0-.54-.54H13.4a.58.58,0,0,0-.14,0V5.82a1.09,1.09,0,0,0-1.08-1.08H10.77a.58.58,0,0,0,0-.14V4.14a.54.54,0,0,0-.54-.54.54.54,0,0,0-.54.54V4.6a.59.59,0,0,0,0,.14H8.26a.59.59,0,0,0,0-.14V4.14a.54.54,0,0,0-.54-.54.54.54,0,0,0-.54.54V4.6a.58.58,0,0,0,0,.14H5.82A1.09,1.09,0,0,0,4.74,5.82V7.23a.58.58,0,0,0-.14,0H4.14a.54.54,0,0,0-.54.54.54.54,0,0,0,.54.54H4.6l.14,0V9.74l-.14,0H4.14a.54.54,0,0,0-.54.54.54.54,0,0,0,.54.54H4.6a.58.58,0,0,0,.14,0v1.41a1.09,1.09,0,0,0,1.08,1.08H7.23a.58.58,0,0,0,0,.14v.46a.54.54,0,0,0,.54.54.54.54,0,0,0,.54-.54V13.4a.59.59,0,0,0,0-.14H9.74a.59.59,0,0,0,0,.14v.46a.54.54,0,0,0,.54.54.54.54,0,0,0,.54-.54V13.4a.58.58,0,0,0,0-.14h1.41a1.09,1.09,0,0,0,1.08-1.08V10.77a.58.58,0,0,0,.14,0h.46a.54.54,0,0,0,.54-.54A.54.54,0,0,0,13.86,9.72Zm-2.5-1.44L9.8,9.94a.43.43,0,0,1-.57.05L8.31,9.3l-1.06,1a.42.42,0,0,1-.3.12.48.48,0,0,1-.31-.13.44.44,0,0,1,0-.61L8,8.42a.44.44,0,0,1,.56,0l.9.67,1.29-1.37a.43.43,0,1,1,.63.59Z" />
</svg>