<svg id="图层_1" data-name="图层 1" xmlns="http://www.w3.org/2000/svg" viewBox="0 0 18 18">
  <defs>
    <style>
      .fpgloic91 {
        fill: #30b0f0;
      }

      .fpgloic92 {
        fill: #fff;
      }
    </style>
  </defs>
  <g id="IconAomMenuGJKGLColor">
    <rect class="fpgloic91" width="18" height="18" rx="4" />
  </g>
  <path class="fpgloic92"
    d="M11.35,12.9a24.6,24.6,0,0,0-4.7,0,.52.52,0,0,0,0,1h0a24.37,24.37,0,0,1,4.52,0,.52.52,0,0,0,.09-1Z" />
  <path class="fpgloic92" d="M10.38,9.05V7.12c-.47,0-.92,0-1.38,0s-.91,0-1.38,0V9.05A25.41,25.41,0,0,1,10.38,9.05Z" />
  <path class="fpgloic92" d="M6.79,4.28c-.6,0-1.24-.12-1.95-.21A.89.89,0,0,0,3.8,5v1c1.12.14,2.08.25,3,.32Z" />
  <path class="fpgloic92" d="M10.38,6.29V4.34a21.18,21.18,0,0,1-2.76,0v2C8.56,6.33,9.44,6.33,10.38,6.29Z" />
  <path class="fpgloic92" d="M14.2,5a.89.89,0,0,0-1-.89c-.71.09-1.35.16-1.95.21v2c.91-.07,1.87-.18,3-.32Z" />
  <path class="fpgloic92" d="M14.2,6.75c-1.11.15-2.08.26-3,.32v2c.91.06,1.88.17,3,.31Z" />
  <path class="fpgloic92" d="M11.21,11.89c.6,0,1.24.12,1.95.21a.89.89,0,0,0,1-.9v-.95c-1.12-.14-2.08-.25-3-.32Z" />
  <path class="fpgloic92" d="M10.38,11.82V9.88c-.94,0-1.82,0-2.76,0v1.94A25.41,25.41,0,0,1,10.38,11.82Z" />
  <path class="fpgloic92" d="M6.79,9.93c-.91.07-1.87.18-3,.32v.95a.89.89,0,0,0,1,.9c.71-.09,1.35-.16,2-.21Z" />
  <path class="fpgloic92" d="M6.79,9.1v-2c-.91-.06-1.88-.17-3-.32V9.41C4.91,9.27,5.88,9.16,6.79,9.1Z" />
</svg>