<svg xmlns="http://www.w3.org/2000/svg" xmlns:xlink="http://www.w3.org/1999/xlink" fill="none" version="1.1" width="24" height="24" viewBox="0 0 24 24"><defs><clipPath id="master_svg0_1346_35834"><rect x="0" y="0" width="24" height="24" rx="0"/></clipPath></defs><g clip-path="url(#master_svg0_1346_35834)"><g><path d="M1,6C1,3.23858,3.23858,1,6,1C8.761420000000001,1,11,3.23858,11,6L11,9C11,10.10457,10.10457,11,9,11L6,11C3.23858,11,1,8.761420000000001,1,6ZM1,18C1,15.2386,3.23858,13,6,13L9,13C10.10457,13,11,13.8954,11,15L11,18C11,20.7614,8.761420000000001,23,6,23C3.23858,23,1,20.7614,1,18ZM18,1C15.2386,1,13,3.23858,13,6L13,9C13,10.10457,13.8954,11,15,11L18,11C20.7614,11,23,8.761420000000001,23,6C23,3.23858,20.7614,1,18,1Z" fill="#165DFF" fill-opacity="1" style="mix-blend-mode:passthrough"/></g><g><path d="M16.80929,15.48429C14.95029,14.82688,13,16.2063,13,18.17857C13,18.47429,13.24,18.71429,13.535714,18.71429L15.908570000000001,18.71429C16.317140000000002,19.221429999999998,16.77929,19.682859999999998,17.28571,20.09143L17.28571,22.46429C17.28571,22.759999999999998,17.52571,23,17.82143,23C19.79347,23.0003,21.1729,21.05003,20.51572,19.19071C22.101,17.73808,23.002499999999998,15.68589,23,13.535714C23,13.239847,22.76015,13.0000000851495,22.46429,13C20.22643,13,18.212139999999998,13.957143,16.80929,15.48429ZM20.85714,16.21429C20.85714,16.80602,20.37745,17.28572,19.78572,17.28572C19.19398,17.28572,18.71429,16.80602,18.71429,16.21429C18.71429,15.62255,19.19398,15.14286,19.78572,15.14286C20.37745,15.14286,20.85714,15.62255,20.85714,16.21429Z" fill-rule="evenodd" fill="#4AD9E4" fill-opacity="1" style="mix-blend-mode:passthrough"/></g><g><path d="M15.072853481445312,19.915546953125C15.220723481445312,19.656040953125,15.127823481445313,19.325726953125,14.866353481445312,19.181351853125C14.604888481445313,19.036977053125,14.275851481445313,19.134307753125,14.134999481445313,19.397689953125C13.732614381445313,20.129481953125,13.613381481445312,20.983681953125,13.799999281445313,21.797691953125C13.846070481445313,21.997891953125,14.002572481445313,22.154111953125,14.202856481445313,22.199831953125C15.016713481445313,22.386321953124998,15.870733481445313,22.266821953125,16.602143481445314,21.864121953125C16.87305348144531,21.727141953125,16.976133481445313,21.392641953125,16.82930348144531,21.126931953125002C16.682483481445313,20.861231953125,16.34442348144531,20.770501953125,16.08428348144531,20.926971953125C15.689963481445313,21.144711953125,15.240543481445313,21.242291953125,14.791423481445312,21.207691953125C14.757083481445312,20.758511953125,14.854913481445312,20.309091953125,15.072853481445312,19.914830953125L15.072853481445312,19.915546953125Z" fill="#4AD9E4" fill-opacity="1" style="mix-blend-mode:passthrough"/></g></g></svg>