<svg id="图层_1" data-name="图层 1" xmlns="http://www.w3.org/2000/svg" viewBox="0 0 18 18">
  <defs>
    <style>
      .lk93vcuys1 {
        fill: #854bfa;
      }

      .lk93vcuys2 {
        fill: #fff;
      }
    </style>
  </defs>
  <g id="IconAomMenuCSGLColor">
    <rect class="lk93vcuys1" width="18" height="18" rx="4" />
  </g>
  <path class="lk93vcuys2"
    d="M7.67,7.48h0a.47.47,0,0,0-.51.41v.86a.47.47,0,0,0,.51.4.47.47,0,0,0,.51-.4V7.89A.47.47,0,0,0,7.67,7.48Z" />
  <path class="lk93vcuys2" d="M10.33,7.48a.47.47,0,0,0-.51.41v.86a.53.53,0,0,0,1,0V7.89a.47.47,0,0,0-.51-.41Z" />
  <path class="lk93vcuys2"
    d="M13.56,12.75a.76.76,0,0,0-.67.42H10.63a.35.35,0,0,1-.36-.35.36.36,0,0,1,.36-.35h2.26a1,1,0,0,0,1-1,1,1,0,0,0-.74-1,.73.73,0,0,0-.25,0H10.62a.74.74,0,0,0-1.41.32s0,.06,0,.09h0a.73.73,0,0,0,.08.25h0a.74.74,0,0,0,.16.2h0a.74.74,0,0,0,.21.13h0a.7.7,0,0,0,.25,0,.74.74,0,0,0,.67-.42h2.27a.36.36,0,0,1,0,.71H10.63a1,1,0,1,0,0,2h2.26a.76.76,0,0,0,.67.42.75.75,0,0,0,0-1.49Z" />
  <path class="lk93vcuys2"
    d="M9,12a1.62,1.62,0,0,1-.59-1.15H8.09a2.55,2.55,0,0,1,.06-5.1h.14l.41.32a.44.44,0,0,0,.6,0l.41-.32h.2A2.56,2.56,0,0,1,12.4,8.34,2.49,2.49,0,0,1,12,9.63h.86a1.82,1.82,0,0,1,1,.32A2.72,2.72,0,0,0,14.3,8.4c0-1-.3-1.72-.66-1.72a.27.27,0,0,0-.17.06,3.84,3.84,0,0,0-2.55-2.13s0-.08,0-.12a.73.73,0,0,0-.73-.73H7.68a.73.73,0,0,0-.6.83A3.89,3.89,0,0,0,4.53,6.73a.34.34,0,0,0-.17-.05c-.36,0-.66.77-.66,1.72s.3,1.72.66,1.72A.29.29,0,0,0,4.57,10a3.84,3.84,0,0,0,3.27,2.15c-1.3.21-2.24.77-2.24,1.43,0,.45,2,.66,3.85.62A1.81,1.81,0,0,1,9,12Z" />
</svg>