<svg xmlns="http://www.w3.org/2000/svg" xmlns:xlink="http://www.w3.org/1999/xlink" fill="none" version="1.1" width="24" height="24" viewBox="0 0 24 24"><defs><clipPath id="master_svg0_644_31798"><rect x="0" y="0" width="24" height="24" rx="0"/></clipPath></defs><g clip-path="url(#master_svg0_644_31798)"><g><path d="M5.507000085830688,4.048C6.076990085830689,3.382835,6.909140085830689,3,7.7850000858306885,3L16.215000085830688,3C17.09090008583069,3.000026226,17.92310008583069,3.382862,18.493000085830687,4.048L20.215000085830688,6.056C19.97850008583069,6.01848,19.739400085830688,5.999750000000001,19.50000008583069,6L4.500000085830688,6C4.257000085830688,6,4.018000085830688,6.02,3.7850000858306885,6.056L5.507000085830688,4.048Z" fill="#4CD263" fill-opacity="1"/></g><g><path d="M1.5,10.5C1.499999761581,8.84315,2.84315,7.5,4.5,7.5L19.5,7.5C21.1569,7.5,22.5,8.84315,22.5,10.5C22.5,12.15685,21.1569,13.5,19.5,13.5L4.5,13.5C2.84315,13.5,1.5,12.15685,1.5,10.5ZM16.5,10.5C16.5,10.91421,16.1642,11.25,15.75,11.25C15.3358,11.25,15,10.91421,15,10.5C15,10.08579,15.3358,9.75,15.75,9.75C16.1642,9.75,16.5,10.08579,16.5,10.5ZM18.75,11.25C19.1642,11.25,19.5,10.91421,19.5,10.5C19.5,10.08579,19.1642,9.75,18.75,9.75C18.3358,9.75,18,10.08579,18,10.5C18,10.91421,18.3358,11.25,18.75,11.25ZM4.5,15C2.84315,15,1.5,16.34315,1.5,18C1.5,19.6569,2.84315,21,4.5,21L19.5,21C21.1569,21,22.5,19.6569,22.5,18C22.5,16.34315,21.1569,15,19.5,15L4.5,15ZM15.75,18.75C16.1642,18.75,16.5,18.4142,16.5,18C16.5,17.5858,16.1642,17.25,15.75,17.25C15.3358,17.25,15,17.5858,15,18C15,18.4142,15.3358,18.75,15.75,18.75ZM19.5,18C19.5,18.4142,19.1642,18.75,18.75,18.75C18.3358,18.75,18,18.4142,18,18C18,17.5858,18.3358,17.25,18.75,17.25C19.1642,17.25,19.5,17.5858,19.5,18Z" fill-rule="evenodd" fill="#00B42A" fill-opacity="1"/></g></g></svg>