<?xml version="1.0" encoding="utf-8"?>
<!-- Generator: Adobe Illustrator 24.2.0, SVG Export Plug-In . SVG Version: 6.00 Build 0)  -->
<svg version="1.1" id="_1" xmlns="http://www.w3.org/2000/svg" xmlns:xlink="http://www.w3.org/1999/xlink" x="0px" y="0px"
	 viewBox="0 0 24 24" style="enable-background:new 0 0 24 24;" xml:space="preserve">
<path d="M12,0C5.4,0,0,5.4,0,12s5.4,12,12,12s12-5.4,12-12S18.6,0,12,0z M18.6,9.2l-7.2,7.2c-0.2,0.2-0.5,0.4-0.8,0.4
	s-0.6-0.1-0.8-0.4l-4.3-4.3c-0.5-0.5-0.5-1.2,0-1.7c0.5-0.5,1.2-0.5,1.7,0l3.4,3.4l6.4-6.4c0.5-0.5,1.2-0.5,1.7,0
	C19.1,8,19.1,8.8,18.6,9.2z"/>
</svg>
