<svg id="图层_1" data-name="图层 1" xmlns="http://www.w3.org/2000/svg" viewBox="0 0 18 18">
  <defs>
    <style>
      .zxrthaq30-1 {
        fill: #34c765;
      }

      .zxrthaq30-2 {
        fill: #fff;
      }
    </style>
  </defs>
  <g id="IconAomMenuGJKColor">
    <rect class="zxrthaq30-1" width="18" height="18" rx="4" />
  </g>
  <path class="zxrthaq30-2"
    d="M11.44,7.57V5.48a.65.65,0,0,0-.31-.55l-1.82-1a.58.58,0,0,0-.62,0l-1.82,1a.65.65,0,0,0-.31.55V7.57a.62.62,0,0,0,.31.54L8.69,9.16a.62.62,0,0,0,.62,0l1.82-1.05A.62.62,0,0,0,11.44,7.57Z" />
  <path class="zxrthaq30-2"
    d="M8.27,9.89,6.45,8.84a.62.62,0,0,0-.62,0L4,9.89a.62.62,0,0,0-.31.54v2.09a.65.65,0,0,0,.31.55l1.82,1a.58.58,0,0,0,.62,0l1.82-1a.65.65,0,0,0,.31-.55V10.43A.62.62,0,0,0,8.27,9.89Z" />
  <path class="zxrthaq30-2"
    d="M14,9.89,12.17,8.84a.62.62,0,0,0-.62,0L9.73,9.89a.62.62,0,0,0-.31.54v2.09a.65.65,0,0,0,.31.55l1.82,1a.58.58,0,0,0,.62,0l1.82-1a.65.65,0,0,0,.31-.55V10.43A.62.62,0,0,0,14,9.89ZM11.86,13a1.57,1.57,0,1,1,1.57-1.56A1.57,1.57,0,0,1,11.86,13Z" />
  <path class="zxrthaq30-2" d="M11.86,10.74a.74.74,0,1,0,.73.74A.74.74,0,0,0,11.86,10.74Z" />
</svg>