<svg xmlns="http://www.w3.org/2000/svg" xmlns:xlink="http://www.w3.org/1999/xlink" fill="none" version="1.1" width="24" height="24" viewBox="0 0 24 24"><defs><clipPath id="master_svg0_700_32421"><rect x="0" y="0" width="24" height="24" rx="0"/></clipPath></defs><g clip-path="url(#master_svg0_700_32421)"><g><path d="M7,12.5C7,9.7386,9.2386,7.5,12,7.5C14.7614,7.5,17,9.7386,17,12.5L17,20.5L7,20.5L7,12.5Z" fill="#FF7D00" fill-opacity="1"/><path d="M6,12.5L6,20.5Q6,20.5985,6.019215,20.6951Q6.03843,20.7917,6.076121,20.8827Q6.113812,20.9737,6.16853,21.0556Q6.223249,21.1375,6.292893,21.2071Q6.362537,21.276699999999998,6.44443,21.3315Q6.526322,21.386200000000002,6.617317,21.4239Q6.708311,21.4616,6.80491,21.480800000000002Q6.9015086,21.5,7,21.5L17,21.5Q17.0985,21.5,17.1951,21.480800000000002Q17.2917,21.4616,17.3827,21.4239Q17.4737,21.386200000000002,17.5556,21.3315Q17.6375,21.276699999999998,17.7071,21.2071Q17.776699999999998,21.1375,17.8315,21.0556Q17.886200000000002,20.9737,17.9239,20.8827Q17.9616,20.7917,17.980800000000002,20.6951Q18,20.5985,18,20.5L18,12.5Q18,10.01474,16.24263,8.257368Q14.48526,6.5,12,6.5Q9.51474,6.5,7.757368,8.257368Q6,10.01474,6,12.5ZM8,19.5L16,19.5L16,12.5Q16,10.843160000000001,14.828420000000001,9.67158Q13.656839999999999,8.5,12,8.5Q10.343160000000001,8.5,9.17158,9.67158Q8,10.843160000000001,8,12.5L8,19.5Z" fill-rule="evenodd" fill="#FF7D00" fill-opacity="1"/></g><g><path d="M13,2.5L13,4Q13,4.09849,12.980785000000001,4.19509Q12.96157,4.29169,12.923879,4.38268Q12.886188,4.47368,12.83147,4.5555699999999995Q12.776751,4.63746,12.707107,4.70711Q12.637463,4.77675,12.55557,4.8314699999999995Q12.473678,4.88619,12.382683,4.9238800000000005Q12.291689,4.96157,12.19509,4.98078Q12.0984914,5,12,5Q11.9015086,5,11.80491,4.98078Q11.708311,4.96157,11.617317,4.9238800000000005Q11.526322,4.88619,11.44443,4.8314699999999995Q11.362537,4.77675,11.292893,4.70711Q11.223249,4.63746,11.16853,4.5555699999999995Q11.113812,4.47368,11.076121,4.38268Q11.03843,4.29169,11.019214999999999,4.19509Q11,4.09849,11,4L11,2.5Q11,2.4015086,11.019214999999999,2.30491Q11.03843,2.208311,11.076121,2.117317Q11.113812,2.026322,11.16853,1.94443Q11.223249,1.862537,11.292893,1.7928929999999998Q11.362537,1.723249,11.44443,1.66853Q11.526322,1.613812,11.617317,1.576121Q11.708311,1.53843,11.80491,1.519215Q11.9015086,1.5,12,1.5Q12.0984914,1.5,12.19509,1.519215Q12.291689,1.53843,12.382683,1.576121Q12.473678,1.613812,12.55557,1.66853Q12.637463,1.723249,12.707107,1.7928929999999998Q12.776751,1.862537,12.83147,1.94443Q12.886188,2.026322,12.923879,2.117317Q12.96157,2.208311,12.980785000000001,2.30491Q13,2.4015086,13,2.5Z" fill-rule="evenodd" fill="#F9CC45" fill-opacity="1"/></g><g><path d="M18.711940897216795,5.306902952087403Q18.825280897216796,5.171828952087402,18.885590897216797,5.006135952087402Q18.945900897216795,4.840441952087402,18.945900897216795,4.664114952087402Q18.945900897216795,4.565623552087402,18.926680897216798,4.469024952087402Q18.907470897216797,4.3724259520874025,18.869780897216796,4.281431952087402Q18.832090897216798,4.190436952087403,18.777370897216798,4.108544952087402Q18.7226508972168,4.026651952087402,18.653010897216795,3.957007952087402Q18.583360897216796,3.8873639520874024,18.501470897216798,3.8326449520874024Q18.419580897216797,3.7779269520874026,18.328580897216796,3.7402359520874024Q18.237590897216798,3.7025449520874023,18.140990897216795,3.6833299520874023Q18.044390897216797,3.6641149520874023,17.945899897216798,3.6641149520874023Q17.836381897216796,3.6641149520874023,17.729460897216796,3.6878189520874023Q17.622538897216796,3.7115229520874022,17.523281897216798,3.7578069520874022Q17.424025897216797,3.8040909520874022,17.337138897216796,3.8707609520874025Q17.250252897216797,3.9374309520874022,17.179855897216797,4.021326952087402L16.215825897216796,5.1702099520874025L16.215656897216796,5.170411952087402Q16.102315897216798,5.305485952087403,16.042008897216796,5.471178952087403Q15.981700897216797,5.636872952087402,15.981700897216797,5.8132049520874025Q15.981700897216797,5.9116949520874025,16.000915897216796,6.008294952087402Q16.020130897216795,6.104884952087403,16.057821897216797,6.195884952087402Q16.095512897216796,6.286874952087402,16.150230897216797,6.368774952087403Q16.204949897216796,6.450664952087402,16.274593897216796,6.520304952087402Q16.344237897216797,6.589954952087402,16.426130897216797,6.644664952087402Q16.508022897216797,6.699384952087403,16.599017897216797,6.7370749520874025Q16.690011897216795,6.7747749520874025,16.786610897216796,6.793984952087403Q16.883209497216797,6.8132049520874025,16.981700897216797,6.8132049520874025Q17.091218897216798,6.8132049520874025,17.198139897216798,6.789494952087402Q17.305061897216795,6.765794952087402,17.404318897216797,6.719504952087402Q17.503574897216797,6.673224952087402,17.590461897216798,6.606554952087402Q17.677347897216798,6.5398849520874025,17.747744897216798,6.455984952087403L18.711940897216795,5.306902952087403Z" fill-rule="evenodd" fill="#F9CC45" fill-opacity="1"/></g><g><path d="M21.283009151611328,11.12845505493164Q21.369169151611327,11.11326205493164,21.451379151611327,11.08333905493164Q21.533589151611327,11.05341505493164,21.60935915161133,11.009670054931641Q21.685129151611328,10.965926054931641,21.752149151611327,10.90968905493164Q21.819159151611327,10.85345205493164,21.87539915161133,10.786432054931641Q21.93163915161133,10.71941205493164,21.975379151611328,10.64364605493164Q22.019119151611328,10.567879054931641,22.04903915161133,10.48566705493164Q22.07896915161133,10.40345505493164,22.09415915161133,10.317297054931641Q22.10934915161133,10.23113785493164,22.10934915161133,10.14365005493164Q22.10934915161133,10.04515865493164,22.09013915161133,9.94856005493164Q22.070919151611328,9.85196105493164,22.03322915161133,9.76096705493164Q21.99553915161133,9.669972054931641,21.94081915161133,9.588080054931641Q21.88609915161133,9.50618705493164,21.816459151611326,9.43654305493164Q21.746809151611327,9.36689905493164,21.66491915161133,9.312180054931641Q21.583029151611328,9.25746205493164,21.492029151611327,9.219771054931641Q21.40103915161133,9.18208005493164,21.304439151611327,9.16286505493164Q21.207839151611328,9.14365005493164,21.10934915161133,9.14365005493164Q21.021859151611327,9.14365005493164,20.935689151611328,9.158845054931641L19.458437151611328,9.419345054931641Q19.372279151611327,9.434538054931641,19.29006815161133,9.46446105493164Q19.207856151611328,9.49438505493164,19.13209015161133,9.53813005493164Q19.056324151611328,9.58187405493164,18.98930515161133,9.63811105493164Q18.922286151611328,9.694348054931641,18.86605015161133,9.76136805493164Q18.80981515161133,9.82838805493164,18.766071151611328,9.90415405493164Q18.722327151611328,9.97992105493164,18.69240515161133,10.06213305493164Q18.66248315161133,10.144344819931641,18.647291151611327,10.23050355493164Q18.632099151611328,10.31666205493164,18.632099151611328,10.404150054931641Q18.632099151611328,10.50264105493164,18.651314151611327,10.599240054931641Q18.670529151611326,10.69583905493164,18.70822015161133,10.786833054931641Q18.745911151611327,10.877827054931641,18.80062915161133,10.95972005493164Q18.855348151611327,11.041613054931641,18.924992151611328,11.11125705493164Q18.994636151611328,11.18090005493164,19.07652915161133,11.23562005493164Q19.15842115161133,11.29034005493164,19.249416151611328,11.328030054931642Q19.340410151611326,11.365720054931641,19.437009151611328,11.38494005493164Q19.533607751611328,11.404150054931641,19.632099151611328,11.404150054931641Q19.719594651611327,11.404150054931641,19.80576115161133,11.38896005493164L19.806044151611328,11.38891005493164L21.283009151611328,11.12845505493164Z" fill-rule="evenodd" fill="#F9CC45" fill-opacity="1"/></g><g><path d="M3.0642139388885496,9.158889645996094Q2.97806143888855,9.143699645996094,2.89057993888855,9.143699645996094Q2.79208853888855,9.143699645996094,2.69548993888855,9.162914645996093Q2.59889093888855,9.182129645996094,2.5078969388885497,9.219820645996094Q2.4169019388885498,9.257511645996093,2.33500993888855,9.312229645996094Q2.25311693888855,9.366948645996093,2.1834729388885497,9.436592645996093Q2.11382893888855,9.506236645996093,2.05910993888855,9.588129645996094Q2.00439193888855,9.670021645996094,1.96670093888855,9.761016645996094Q1.9290099388885498,9.852010645996094,1.9097949388885498,9.948609645996093Q1.8905799388885498,10.045208245996093,1.8905799388885498,10.143699645996094Q1.8905799388885498,10.231189245996093,1.9057729388885498,10.317349645996094Q1.9209649388885497,10.403509645996094,1.9508889388885498,10.485722645996093Q1.9808119388885497,10.567936645996094,2.0245569388885496,10.643704645996094Q2.06830193888855,10.719472645996094,2.1245399388885495,10.786492645996093Q2.18077793888855,10.853513645996093,2.2477989388885495,10.909749645996094Q2.3148209388885497,10.965986645996093,2.3905889388885497,11.009730645996093Q2.46635793888855,11.053474645996094,2.54857193888855,11.083396645996094Q2.63078493888855,11.113318645996094,2.71694593888855,11.128509645996093L4.19415993888855,11.388959645996094Q4.28030993888855,11.404149645996094,4.367789938888549,11.404149645996094Q4.46627993888855,11.404149645996094,4.56287993888855,11.384939645996093Q4.65947993888855,11.365719645996094,4.75046993888855,11.328029645996093Q4.84146993888855,11.290339645996093,4.92335993888855,11.235619645996094Q5.00524993888855,11.180899645996094,5.074899938888549,11.111256645996093Q5.14453993888855,11.041612645996093,5.19925993888855,10.959719645996094Q5.25397993888855,10.877827645996094,5.29166993888855,10.786833645996094Q5.329359938888549,10.695839645996093,5.34857993888855,10.599240645996094Q5.367789938888549,10.502641645996095,5.367789938888549,10.404149645996094Q5.367789938888549,10.316660645996095,5.35259993888855,10.230500045996093Q5.33740993888855,10.144339710996094,5.30747993888855,10.062126545996094Q5.277559938888549,9.979913645996094,5.23380993888855,9.904145645996094Q5.19006993888855,9.828377645996094,5.1338299388885495,9.761356645996093Q5.07758993888855,9.694336645996094,5.010569938888549,9.638099645996094Q4.94354993888855,9.581863645996094,4.86777993888855,9.538119645996094Q4.792009938888549,9.494375645996094,4.709799938888549,9.464452645996094Q4.62757993888855,9.434530645996094,4.54141993888855,9.419339645996093L3.0642139388885496,9.158889645996094Z" fill-rule="evenodd" fill="#F9CC45" fill-opacity="1"/></g><g><path d="M5.288254831390381,5.306797047912598Q5.174914831390381,5.1717230479125975,5.114606831390381,5.006030047912597Q5.054299831390381,4.840337047912597,5.054299831390381,4.664010047912598Q5.054299831390381,4.565518647912597,5.073514831390381,4.468920047912597Q5.092729831390381,4.372321047912598,5.1304208313903805,4.2813270479125975Q5.168111831390381,4.190332047912598,5.2228298313903805,4.108440047912597Q5.277548831390381,4.026547047912597,5.347192831390381,3.9569030479125975Q5.4168368313903805,3.8872590479125977,5.4987298313903805,3.8325400479125977Q5.580621831390381,3.777822047912598,5.671616831390381,3.7401310479125978Q5.762610831390381,3.7024400479125976,5.85920983139038,3.6832250479125976Q5.9558084313903805,3.6640100479125977,6.054299831390381,3.6640100479125977Q6.16381783139038,3.6640100479125977,6.270739831390381,3.6877140479125976Q6.377661831390381,3.7114180479125976,6.476917831390381,3.7577020479125975Q6.5761748313903805,3.8039870479125977,6.663061831390381,3.870657047912598Q6.749947831390381,3.9373270479125977,6.820344831390381,4.021223047912597L7.784539831390381,5.170313047912598Q7.897889831390381,5.305387047912598,7.958189831390381,5.471080047912597Q8.01849983139038,5.636773047912598,8.01849983139038,5.813100047912598Q8.01849983139038,5.911590047912598,7.999289831390381,6.008190047912597Q7.980069831390381,6.104790047912598,7.942379831390381,6.1957800479125975Q7.904689831390381,6.286780047912598,7.849969831390381,6.368670047912598Q7.795249831390381,6.450560047912598,7.725609831390381,6.520210047912598Q7.655959831390381,6.589850047912598,7.574069831390381,6.644570047912598Q7.492179831390381,6.699290047912598,7.401179831390381,6.736980047912597Q7.310189831390381,6.774670047912598,7.213589831390381,6.793880047912598Q7.116989831390381,6.813100047912598,7.018499831390381,6.813100047912598Q6.908981831390381,6.813100047912598,6.80205983139038,6.789400047912597Q6.695137831390381,6.765690047912598,6.595881831390381,6.719410047912598Q6.496624831390381,6.673120047912597,6.409737831390381,6.606450047912597Q6.3228518313903805,6.539780047912598,6.252454831390381,6.455890047912598L5.288254831390381,5.306797047912598L5.288254831390381,5.306797047912598Z" fill-rule="evenodd" fill="#F9CC45" fill-opacity="1"/></g><g><path d="M3,19.5L21.5,19.5Q21.5985,19.5,21.6951,19.519215Q21.7917,19.538429999999998,21.8827,19.576121Q21.9737,19.613812,22.0556,19.66853Q22.1375,19.723249,22.2071,19.792893Q22.2767,19.862537,22.3315,19.94443Q22.3862,20.026322,22.4239,20.117317Q22.4616,20.208311,22.4808,20.30491Q22.5,20.4015086,22.5,20.5Q22.5,20.5984914,22.4808,20.69509Q22.4616,20.791689,22.4239,20.882683Q22.3862,20.973678,22.3315,21.05557Q22.2767,21.137463,22.2071,21.207107Q22.1375,21.276751,22.0556,21.33147Q21.9737,21.386188,21.8827,21.423879Q21.7917,21.461570000000002,21.6951,21.480785Q21.5985,21.5,21.5,21.5L3,21.5Q2.9015086,21.5,2.80491,21.480785Q2.708311,21.461570000000002,2.617317,21.423879Q2.526322,21.386188,2.44443,21.33147Q2.362537,21.276751,2.292893,21.207107Q2.223249,21.137463,2.16853,21.05557Q2.1138120000000002,20.973678,2.076121,20.882683Q2.03843,20.791689,2.019215,20.69509Q2,20.5984914,2,20.5Q2,20.4015086,2.019215,20.30491Q2.03843,20.208311,2.076121,20.117317Q2.1138120000000002,20.026322,2.16853,19.94443Q2.223249,19.862537,2.292893,19.792893Q2.362537,19.723249,2.44443,19.66853Q2.526322,19.613812,2.617317,19.576121Q2.708311,19.538429999999998,2.80491,19.519215Q2.9015086,19.5,3,19.5Z" fill-rule="evenodd" fill="#FF7D00" fill-opacity="1"/></g><g><g><path d="M22.999996507720947,20.16751223572095L22.999996507720947,22.499996507720947Q22.999996507720947,22.573686507720947,22.992776507720947,22.64702650772095Q22.985556507720947,22.720356507720947,22.971176507720948,22.792636507720946Q22.95679650772095,22.864906507720946,22.93540650772095,22.935426507720948Q22.914016507720948,23.005946507720946,22.885816507720946,23.074026507720948Q22.857616507720948,23.142106507720946,22.82287650772095,23.207096507720948Q22.788146507720946,23.272086507720946,22.747206507720946,23.333356507720946Q22.706266507720947,23.394626507720947,22.659516507720948,23.451586507720947Q22.61276650772095,23.508556507720947,22.560656507720946,23.560656507720946Q22.508556507720947,23.61276650772095,22.451586507720947,23.659516507720948Q22.394626507720947,23.706266507720947,22.333356507720946,23.747206507720946Q22.272086507720946,23.788146507720946,22.207096507720948,23.82287650772095Q22.142106507720946,23.857616507720948,22.074026507720948,23.885816507720946Q22.005946507720946,23.914016507720948,21.935426507720948,23.93540650772095Q21.864906507720946,23.95679650772095,21.792636507720946,23.971176507720948Q21.720356507720947,23.985556507720947,21.64702650772095,23.992776507720947Q21.573686507720947,23.999996507720947,21.499996507720947,23.999996507720947L19.166666507720947,23.999996507720947Q19.092976207720948,23.999996507720947,19.019640507720947,23.992776507720947Q18.946305507720947,23.985556507720947,18.874031507720947,23.971176507720948Q18.80175650772095,23.95679650772095,18.731239507720947,23.93540650772095Q18.660722507720948,23.914016507720948,18.59264150772095,23.885816507720946Q18.52456050772095,23.857616507720948,18.45957150772095,23.82287650772095Q18.394582507720948,23.788146507720946,18.333311507720946,23.747206507720946Q18.272039507720947,23.706266507720947,18.215076507720948,23.659516507720948Q18.158116507720948,23.61276650772095,18.10600650772095,23.560656507720946Q18.053896507720946,23.508556507720947,18.007146507720947,23.451586507720947Q17.960406507720947,23.394626507720947,17.919466507720948,23.333356507720946Q17.87852650772095,23.272086507720946,17.843786507720946,23.207096507720948Q17.809046507720947,23.142106507720946,17.78084650772095,23.074026507720948Q17.752646507720947,23.005946507720946,17.731256507720946,22.935426507720948Q17.709866507720946,22.864906507720946,17.695486507720947,22.792636507720946Q17.681116507720947,22.720356507720947,17.673886507720947,22.64702650772095Q17.666666507720947,22.573686507720947,17.666666507720947,22.499996507720947Q17.666666507720947,22.42630650772095,17.673886507720947,22.352976507720946Q17.681116507720947,22.279636507720948,17.695486507720947,22.20736650772095Q17.709866507720946,22.13508650772095,17.731256507720946,22.064576507720947Q17.752646507720947,21.99405650772095,17.78084650772095,21.925976507720947Q17.809046507720947,21.857896507720948,17.843786507720946,21.792906507720947Q17.87852650772095,21.72791650772095,17.919466507720948,21.666646507720948Q17.960406507720947,21.605376507720948,18.007146507720947,21.548406507720948Q18.053896507720946,21.491446507720948,18.10600650772095,21.43933650772095Q18.158116507720948,21.387236507720946,18.215076507720948,21.340486507720946Q18.272039507720947,21.293736507720947,18.333311507720946,21.252796507720948Q18.394582507720948,21.21185650772095,18.45957150772095,21.177116507720946Q18.52456050772095,21.142380507720947,18.59264150772095,21.114180507720945Q18.660722507720948,21.085980507720947,18.731239507720947,21.064589507720946Q18.80175650772095,21.04319850772095,18.874031507720947,21.02882150772095Q18.946305507720947,21.014445507720946,19.019640507720947,21.007222507720947Q19.092976207720948,20.999999507720947,19.166666507720947,20.999999507720947L19.167089371720948,20.999999507720947L19.999999507720947,20.999999507720947L19.999999507720947,20.166666507720947Q19.999999507720947,20.092976207720948,20.007222507720947,20.019640507720947Q20.014445507720946,19.946305507720947,20.02882150772095,19.874031507720947Q20.04319850772095,19.80175650772095,20.064589507720946,19.731239507720947Q20.085980507720947,19.660722507720948,20.114180507720945,19.59264150772095Q20.142380507720947,19.52456050772095,20.177116507720946,19.45957150772095Q20.21185650772095,19.394582507720948,20.252796507720948,19.333311507720946Q20.293736507720947,19.272039507720947,20.340486507720946,19.215076507720948Q20.387236507720946,19.158116507720948,20.43933650772095,19.10600650772095Q20.491446507720948,19.053896507720946,20.548406507720948,19.007146507720947Q20.605376507720948,18.960406507720947,20.666646507720948,18.919466507720948Q20.72791650772095,18.87852650772095,20.792906507720947,18.843786507720946Q20.857896507720948,18.809046507720947,20.925976507720947,18.78084650772095Q20.99405650772095,18.752646507720947,21.064576507720947,18.731256507720946Q21.13508650772095,18.709866507720946,21.20736650772095,18.695486507720947Q21.279636507720948,18.681116507720947,21.352976507720946,18.673886507720947Q21.42630650772095,18.666666507720947,21.499996507720947,18.666666507720947Q21.573686507720947,18.666666507720947,21.64702650772095,18.673886507720947Q21.720356507720947,18.681116507720947,21.792636507720946,18.695486507720947Q21.864906507720946,18.709866507720946,21.935426507720948,18.731256507720946Q22.005946507720946,18.752646507720947,22.074026507720948,18.78084650772095Q22.142106507720946,18.809046507720947,22.207096507720948,18.843786507720946Q22.272086507720946,18.87852650772095,22.333356507720946,18.919466507720948Q22.394626507720947,18.960406507720947,22.451586507720947,19.007146507720947Q22.508556507720947,19.053896507720946,22.560656507720946,19.10600650772095Q22.61276650772095,19.158116507720948,22.659516507720948,19.215076507720948Q22.706266507720947,19.272039507720947,22.747206507720946,19.333311507720946Q22.788146507720946,19.394582507720948,22.82287650772095,19.45957150772095Q22.857616507720948,19.52456050772095,22.885816507720946,19.59264150772095Q22.914016507720948,19.660722507720948,22.93540650772095,19.731239507720947Q22.95679650772095,19.80175650772095,22.971176507720948,19.874031507720947Q22.985556507720947,19.946305507720947,22.992776507720947,20.019640507720947Q22.999996507720947,20.092976207720948,22.999996507720947,20.166666507720947L22.999996507720947,20.16751223572095Z" fill-rule="evenodd" fill="#FFFFFF" fill-opacity="1"/></g><g><path d="M19.16726452772095,17L19.166666507720947,17Q19.092976207720948,17,19.019640507720947,16.99278Q18.946305507720947,16.98555,18.874031507720947,16.97118Q18.80175650772095,16.9568,18.731239507720947,16.93541Q18.660722507720948,16.91402,18.59264150772095,16.88582Q18.52456050772095,16.85762,18.45957150772095,16.82288Q18.394582507720948,16.78814,18.333311507720946,16.7472Q18.272039507720947,16.70626,18.215076507720948,16.65952Q18.158116507720948,16.61277,18.10600650772095,16.56066Q18.053896507720946,16.50855,18.007146507720947,16.45159Q17.960406507720947,16.394627,17.919466507720948,16.333355Q17.87852650772095,16.272084,17.843786507720946,16.207095Q17.809046507720947,16.142106,17.78084650772095,16.074025Q17.752646507720947,16.005944,17.731256507720946,15.935427Q17.709866507720946,15.86491,17.695486507720947,15.792635Q17.681116507720947,15.720361,17.673886507720947,15.647026Q17.666666507720947,15.5736903,17.666666507720947,15.5Q17.666666507720947,15.4263097,17.673886507720947,15.352974Q17.681116507720947,15.279639,17.695486507720947,15.207365Q17.709866507720946,15.13509,17.731256507720946,15.064573Q17.752646507720947,14.994056,17.78084650772095,14.925975Q17.809046507720947,14.857894,17.843786507720946,14.792905Q17.87852650772095,14.727916,17.919466507720948,14.666645Q17.960406507720947,14.605373,18.007146507720947,14.54841Q18.053896507720946,14.49145,18.10600650772095,14.43934Q18.158116507720948,14.38723,18.215076507720948,14.34048Q18.272039507720947,14.29374,18.333311507720946,14.2528Q18.394582507720948,14.21186,18.45957150772095,14.17712Q18.52456050772095,14.14238,18.59264150772095,14.11418Q18.660722507720948,14.08598,18.731239507720947,14.064589999999999Q18.80175650772095,14.0432,18.874031507720947,14.02882Q18.946305507720947,14.01445,19.019640507720947,14.00722Q19.092976207720948,14,19.166666507720947,14L19.16726452772095,14L21.499996507720947,14Q21.573686507720947,14,21.64702650772095,14.00722Q21.720356507720947,14.01445,21.792636507720946,14.02882Q21.864906507720946,14.0432,21.935426507720948,14.064589999999999Q22.005946507720946,14.08598,22.074026507720948,14.11418Q22.142106507720946,14.14238,22.207096507720948,14.17712Q22.272086507720946,14.21186,22.333356507720946,14.2528Q22.394626507720947,14.29374,22.451586507720947,14.34048Q22.508556507720947,14.38723,22.560656507720946,14.43934Q22.61276650772095,14.49145,22.659516507720948,14.54841Q22.706266507720947,14.605373,22.747206507720946,14.666645Q22.788146507720946,14.727916,22.82287650772095,14.792905Q22.857616507720948,14.857894,22.885816507720946,14.925975Q22.914016507720948,14.994056,22.93540650772095,15.064573Q22.95679650772095,15.13509,22.971176507720948,15.207365Q22.985556507720947,15.279639,22.992776507720947,15.352974Q22.999996507720947,15.4263097,22.999996507720947,15.5L22.999996507720947,17.83333Q22.999996507720947,17.90702,22.992776507720947,17.98036Q22.985556507720947,18.05369,22.971176507720948,18.12597Q22.95679650772095,18.19824,22.93540650772095,18.26876Q22.914016507720948,18.33928,22.885816507720946,18.40736Q22.857616507720948,18.47544,22.82287650772095,18.54043Q22.788146507720946,18.60542,22.747206507720946,18.66669Q22.706266507720947,18.72796,22.659516507720948,18.78492Q22.61276650772095,18.84189,22.560656507720946,18.89399Q22.508556507720947,18.9461,22.451586507720947,18.99285Q22.394626507720947,19.0396,22.333356507720946,19.08054Q22.272086507720946,19.12148,22.207096507720948,19.15621Q22.142106507720946,19.19095,22.074026507720948,19.21915Q22.005946507720946,19.24735,21.935426507720948,19.26874Q21.864906507720946,19.29013,21.792636507720946,19.30451Q21.720356507720947,19.31889,21.64702650772095,19.32611Q21.573686507720947,19.33333,21.499996507720947,19.33333Q21.42630650772095,19.33333,21.352976507720946,19.32611Q21.279636507720948,19.31889,21.20736650772095,19.30451Q21.13508650772095,19.29013,21.064576507720947,19.26874Q20.99405650772095,19.24735,20.925976507720947,19.21915Q20.857896507720948,19.19095,20.792906507720947,19.15621Q20.72791650772095,19.12148,20.666646507720948,19.08054Q20.605376507720948,19.0396,20.548406507720948,18.99285Q20.491446507720948,18.9461,20.43933650772095,18.89399Q20.387236507720946,18.84189,20.340486507720946,18.78492Q20.293736507720947,18.72796,20.252796507720948,18.66669Q20.21185650772095,18.60542,20.177116507720946,18.54043Q20.142380507720947,18.47544,20.114180507720945,18.40736Q20.085980507720947,18.33928,20.064589507720946,18.26876Q20.04319850772095,18.19824,20.02882150772095,18.12597Q20.014445507720946,18.05369,20.007222507720947,17.98036Q19.999999507720947,17.90702,19.999999507720947,17.83333L19.999999507720947,17.83291L19.999999507720947,17L19.16726452772095,17Z" fill-rule="evenodd" fill="#FFFFFF" fill-opacity="1"/></g><g><path d="M22.56066,16.56066Q22.66512,16.456195,22.7472,16.333356Q22.82928,16.210517,22.885820000000002,16.074025Q22.94236,15.937534,22.97118,15.792636Q23,15.647737,23,15.5Q23,15.4263097,22.99278,15.352974Q22.98555,15.279639,22.97118,15.207365Q22.9568,15.13509,22.935409999999997,15.064573Q22.91402,14.994056,22.885820000000002,14.925975Q22.85762,14.857894,22.822879999999998,14.792905Q22.78814,14.727916,22.7472,14.666645Q22.70626,14.605373,22.65952,14.54841Q22.612769999999998,14.49145,22.56066,14.43934Q22.50855,14.38723,22.45159,14.34048Q22.39463,14.29374,22.33335,14.2528Q22.27208,14.21186,22.20709,14.17712Q22.14211,14.14238,22.07402,14.11418Q22.00594,14.08598,21.93543,14.064589999999999Q21.864910000000002,14.0432,21.79263,14.02882Q21.72036,14.01445,21.64703,14.00722Q21.57369,14,21.5,14Q21.35226,14,21.20736,14.02882Q21.06247,14.05764,20.92597,14.11418Q20.78948,14.17072,20.66664,14.2528Q20.54381,14.33487,20.43934,14.43934L13.43934,21.43934Q13.33487,21.54381,13.2528,21.66664Q13.17072,21.78948,13.11418,21.92597Q13.05764,22.06247,13.02882,22.20736Q13,22.35226,13,22.5Q13,22.57369,13.00722,22.64703Q13.01445,22.72036,13.02882,22.79263Q13.0432,22.864910000000002,13.064589999999999,22.93543Q13.08598,23.00594,13.11418,23.07402Q13.14238,23.14211,13.17712,23.20709Q13.21186,23.27208,13.2528,23.33335Q13.29374,23.39463,13.34048,23.45159Q13.38723,23.50855,13.43934,23.56066Q13.49145,23.612769999999998,13.54841,23.65952Q13.605373,23.70626,13.666645,23.7472Q13.727916,23.78814,13.792905,23.822879999999998Q13.857894,23.85762,13.925975,23.885820000000002Q13.994056,23.91402,14.064573,23.935409999999997Q14.13509,23.9568,14.207365,23.97118Q14.279639,23.98555,14.352974,23.99278Q14.4263097,24,14.5,24Q14.647737,24,14.792636,23.97118Q14.937534,23.94236,15.074025,23.885820000000002Q15.210517,23.82928,15.333356,23.7472Q15.456195,23.66512,15.56066,23.56066L15.56158,23.559739999999998L22.559739999999998,16.56158L22.56066,16.56066L22.56066,16.56066Z" fill-rule="evenodd" fill="#FFFFFF" fill-opacity="1"/></g><g><path d="M13.43934,14.43934Q13.38723,14.49145,13.34048,14.54841Q13.29374,14.605373,13.2528,14.666645Q13.21186,14.727916,13.17712,14.792905Q13.14238,14.857894,13.11418,14.925975Q13.08598,14.994056,13.064589999999999,15.064573Q13.0432,15.13509,13.02882,15.207365Q13.01445,15.279639,13.00722,15.352974Q13,15.4263097,13,15.5Q13,15.5736903,13.00722,15.647026Q13.01445,15.720361,13.02882,15.792635Q13.0432,15.86491,13.064589999999999,15.935427Q13.08598,16.005944,13.11418,16.074025Q13.14238,16.142106,13.17712,16.207095Q13.21186,16.272084,13.2528,16.333355Q13.29374,16.394627,13.34048,16.45159Q13.38723,16.50855,13.43934,16.56066L16.93934,20.06066Q17.04014,20.161459999999998,17.15812,20.24147Q17.2761,20.321469999999998,17.40704,20.37782Q17.53798,20.43417,17.67719,20.46485Q17.8164,20.49553,17.9589,20.49944Q17.9628,20.641930000000002,17.993479999999998,20.78114Q18.024160000000002,20.92035,18.08051,21.05129Q18.13686,21.18223,18.21687,21.30021Q18.29687,21.41819,18.39767,21.51899L18.39826,21.51958L19.85601,22.977330000000002L20.34212,23.46344L20.43857,23.55989L20.43934,23.56066Q20.54381,23.66512,20.66664,23.7472Q20.78948,23.82928,20.92597,23.885820000000002Q21.06247,23.94236,21.20736,23.97118Q21.35226,24,21.5,24Q21.57369,24,21.64703,23.99278Q21.72036,23.98555,21.79263,23.97118Q21.864910000000002,23.9568,21.93543,23.935409999999997Q22.00594,23.91402,22.07402,23.885820000000002Q22.14211,23.85762,22.20709,23.822879999999998Q22.27208,23.78814,22.33335,23.7472Q22.39463,23.70626,22.45159,23.65952Q22.50855,23.612769999999998,22.56066,23.56066Q22.612769999999998,23.50855,22.65952,23.45159Q22.70626,23.39463,22.7472,23.33335Q22.78814,23.27208,22.822879999999998,23.20709Q22.85762,23.14211,22.885820000000002,23.07402Q22.91402,23.00594,22.935409999999997,22.93543Q22.9568,22.864910000000002,22.97118,22.79263Q22.98555,22.72036,22.99278,22.64703Q23,22.57369,23,22.5Q23,22.35226,22.97118,22.20736Q22.94236,22.06247,22.885820000000002,21.92597Q22.82928,21.78948,22.7472,21.66664Q22.66512,21.5438,22.56066,21.43934L22.55989,21.43857L22.46344,21.34212L21.977330000000002,20.85601L20.51958,19.39826L20.51899,19.39767Q20.41819,19.29687,20.30021,19.21687Q20.18223,19.13686,20.05129,19.08051Q19.92035,19.024160000000002,19.78114,18.993479999999998Q19.641930000000002,18.9628,19.49943,18.9589Q19.49553,18.8164,19.46485,18.67719Q19.43417,18.53798,19.37782,18.40704Q19.321469999999998,18.2761,19.24147,18.15812Q19.161459999999998,18.04014,19.06066,17.93934L15.56066,14.43934Q15.50855,14.38723,15.45159,14.34048Q15.394627,14.29374,15.333355,14.2528Q15.272084,14.21186,15.207095,14.17712Q15.142106,14.14238,15.074025,14.11418Q15.005944,14.08598,14.935427,14.064589999999999Q14.86491,14.0432,14.792635,14.02882Q14.720361,14.01445,14.647026,14.00722Q14.5736903,14,14.5,14Q14.4263097,14,14.352974,14.00722Q14.279639,14.01445,14.207365,14.02882Q14.13509,14.0432,14.064573,14.064589999999999Q13.994056,14.08598,13.925975,14.11418Q13.857894,14.14238,13.792905,14.17712Q13.727916,14.21186,13.666645,14.2528Q13.605373,14.29374,13.54841,14.34048Q13.49145,14.38723,13.43934,14.43934Z" fill-rule="evenodd" fill="#FFFFFF" fill-opacity="1"/></g></g><g><g><path d="M20.999996507720947,20.166666507720947Q20.999996507720947,20.117420807720947,21.009606507720946,20.069121407720946Q21.019216507720948,20.020821507720946,21.03805650772095,19.97532450772095Q21.056906507720946,19.929827507720947,21.084266507720947,19.888881507720946Q21.11162650772095,19.847935507720948,21.14644650772095,19.813113507720946Q21.18126650772095,19.778291507720947,21.222216507720947,19.750931507720946Q21.263156507720947,19.72357250772095,21.308656507720947,19.70472650772095Q21.354156507720948,19.685881507720946,21.40245650772095,19.676273507720946Q21.450756507720946,19.666666507720947,21.499996507720947,19.666666507720947Q21.549246507720948,19.666666507720947,21.59754650772095,19.676273507720946Q21.645846507720947,19.685881507720946,21.691336507720948,19.70472650772095Q21.736836507720948,19.72357250772095,21.777786507720947,19.750931507720946Q21.818726507720946,19.778291507720947,21.853556507720945,19.813113507720946Q21.88837650772095,19.847935507720948,21.915736507720947,19.888881507720946Q21.94309650772095,19.929827507720947,21.961936507720946,19.97532450772095Q21.980786507720946,20.020821507720946,21.99039650772095,20.069121407720946Q21.999996507720947,20.117420807720947,21.999996507720947,20.166666507720947L21.999996507720947,22.499996507720947Q21.999996507720947,22.549246507720948,21.99039650772095,22.59754650772095Q21.980786507720946,22.645846507720947,21.961936507720946,22.691336507720948Q21.94309650772095,22.736836507720948,21.915736507720947,22.777786507720947Q21.88837650772095,22.818726507720946,21.853556507720945,22.853556507720945Q21.818726507720946,22.88837650772095,21.777786507720947,22.915736507720947Q21.736836507720948,22.94309650772095,21.691336507720948,22.961936507720946Q21.645846507720947,22.980786507720946,21.59754650772095,22.99039650772095Q21.549246507720948,22.999996507720947,21.499996507720947,22.999996507720947L19.166666507720947,22.999996507720947Q19.117420807720947,22.999996507720947,19.069121407720946,22.99039650772095Q19.020821507720946,22.980786507720946,18.97532450772095,22.961936507720946Q18.929827507720947,22.94309650772095,18.888881507720946,22.915736507720947Q18.847935507720948,22.88837650772095,18.813113507720946,22.853556507720945Q18.778291507720947,22.818726507720946,18.750931507720946,22.777786507720947Q18.72357250772095,22.736836507720948,18.70472650772095,22.691336507720948Q18.685881507720946,22.645846507720947,18.676273507720946,22.59754650772095Q18.666666507720947,22.549246507720948,18.666666507720947,22.499996507720947Q18.666666507720947,22.450756507720946,18.676273507720946,22.40245650772095Q18.685881507720946,22.354156507720948,18.70472650772095,22.308656507720947Q18.72357250772095,22.263156507720947,18.750931507720946,22.222216507720947Q18.778291507720947,22.18126650772095,18.813113507720946,22.14644650772095Q18.847935507720948,22.11162650772095,18.888881507720946,22.084266507720947Q18.929827507720947,22.056906507720946,18.97532450772095,22.03805650772095Q19.020821507720946,22.019216507720948,19.069121407720946,22.009606507720946Q19.117420807720947,21.999996507720947,19.166666507720947,21.999996507720947L20.999996507720947,21.999996507720947L20.999996507720947,20.166666507720947Z" fill-rule="evenodd" fill="#D25F00" fill-opacity="1"/></g><g><path d="M19.166666507720947,15L21.499996507720947,15Q21.549246507720948,15,21.59754650772095,15.009607Q21.645846507720947,15.019214999999999,21.691336507720948,15.03806Q21.736836507720948,15.056906,21.777786507720947,15.084265Q21.818726507720946,15.111625,21.853556507720945,15.146447Q21.88837650772095,15.181269,21.915736507720947,15.222215Q21.94309650772095,15.263161,21.961936507720946,15.308658Q21.980786507720946,15.354155,21.99039650772095,15.4024549Q21.999996507720947,15.4507543,21.999996507720947,15.5L21.999996507720947,17.83333Q21.999996507720947,17.88258,21.99039650772095,17.930880000000002Q21.980786507720946,17.97918,21.961936507720946,18.02467Q21.94309650772095,18.07017,21.915736507720947,18.11112Q21.88837650772095,18.15206,21.853556507720945,18.18689Q21.818726507720946,18.22171,21.777786507720947,18.24907Q21.736836507720948,18.27643,21.691336507720948,18.29527Q21.645846507720947,18.31412,21.59754650772095,18.32373Q21.549246507720948,18.33333,21.499996507720947,18.33333Q21.450756507720946,18.33333,21.40245650772095,18.32373Q21.354156507720948,18.31412,21.308656507720947,18.29527Q21.263156507720947,18.27643,21.222216507720947,18.24907Q21.18126650772095,18.22171,21.14644650772095,18.18689Q21.11162650772095,18.15206,21.084266507720947,18.11112Q21.056906507720946,18.07017,21.03805650772095,18.02467Q21.019216507720948,17.97918,21.009606507720946,17.930880000000002Q20.999996507720947,17.88258,20.999996507720947,17.83333L20.999996507720947,16L19.166666507720947,16Q19.117420807720947,16,19.069121407720946,15.990393Q19.020821507720946,15.980785000000001,18.97532450772095,15.96194Q18.929827507720947,15.943094,18.888881507720946,15.915735Q18.847935507720948,15.888375,18.813113507720946,15.853553Q18.778291507720947,15.818731,18.750931507720946,15.777785Q18.72357250772095,15.736839,18.70472650772095,15.691342Q18.685881507720946,15.645845,18.676273507720946,15.5975451Q18.666666507720947,15.5492457,18.666666507720947,15.5Q18.666666507720947,15.4507543,18.676273507720946,15.4024549Q18.685881507720946,15.354155,18.70472650772095,15.308658Q18.72357250772095,15.263161,18.750931507720946,15.222215Q18.778291507720947,15.181269,18.813113507720946,15.146447Q18.847935507720948,15.111625,18.888881507720946,15.084265Q18.929827507720947,15.056906,18.97532450772095,15.03806Q19.020821507720946,15.019214999999999,19.069121407720946,15.009607Q19.117420807720947,15,19.166666507720947,15Z" fill-rule="evenodd" fill="#D25F00" fill-opacity="1"/></g><g><path d="M21.85355,15.853553Q21.92388,15.783227,21.96194,15.691342Q22,15.5994562,22,15.5Q22,15.4507543,21.990389999999998,15.4024549Q21.98078,15.354155,21.96194,15.308658Q21.943089999999998,15.263161,21.91573,15.222215Q21.888370000000002,15.181269,21.85355,15.146447Q21.818730000000002,15.111625,21.77778,15.084265Q21.73684,15.056906,21.69134,15.03806Q21.64584,15.019214999999999,21.597540000000002,15.009607Q21.54925,15,21.5,15Q21.40054,15,21.30866,15.03806Q21.21677,15.076121,21.14645,15.146447L14.146447,22.14645Q14.07612,22.21677,14.03806,22.30866Q14,22.40054,14,22.5Q14,22.54925,14.009607,22.597540000000002Q14.019214999999999,22.64584,14.03806,22.69134Q14.056906,22.73684,14.084265,22.77778Q14.111625,22.818730000000002,14.146447,22.85355Q14.181269,22.888370000000002,14.222215,22.91573Q14.263161,22.943089999999998,14.308658,22.96194Q14.354155,22.98078,14.4024549,22.990389999999998Q14.4507543,23,14.5,23Q14.5994562,23,14.691342,22.96194Q14.783227,22.92388,14.853553,22.85355L14.853767,22.85334L21.85334,15.853767L21.85355,15.853553L21.85355,15.853553Z" fill-rule="evenodd" fill="#D25F00" fill-opacity="1"/></g><g><path d="M14.146447,15.146447Q14.111625,15.181269,14.084265,15.222215Q14.056906,15.263161,14.03806,15.308658Q14.019214999999999,15.354155,14.009607,15.4024549Q14,15.4507543,14,15.5Q14,15.5492457,14.009607,15.5975451Q14.019214999999999,15.645845,14.03806,15.691342Q14.056906,15.736839,14.084265,15.777785Q14.111625,15.818731,14.146447,15.853553L17.64645,19.35355Q17.71677,19.42388,17.80866,19.46194Q17.90054,19.5,18,19.5Q18.09946,19.5,18.19134,19.46194Q18.28323,19.42388,18.35355,19.35355Q18.42388,19.28323,18.46194,19.19134Q18.5,19.09946,18.5,19Q18.5,18.90054,18.46194,18.80866Q18.42388,18.71677,18.35355,18.64645L14.853553,15.146447Q14.818731,15.111625,14.777785,15.084265Q14.736839,15.056906,14.691342,15.03806Q14.645845,15.019214999999999,14.5975451,15.009607Q14.5492457,15,14.5,15Q14.4507543,15,14.4024549,15.009607Q14.354155,15.019214999999999,14.308658,15.03806Q14.263161,15.056906,14.222215,15.084265Q14.181269,15.111625,14.146447,15.146447ZM19.81237,20.10527L19.81189,20.104779999999998Q19.74156,20.03445,19.64967,19.996389999999998Q19.55779,19.95833,19.45833,19.95833Q19.40909,19.95833,19.36079,19.96794Q19.31249,19.97755,19.26699,19.996389999999998Q19.22149,20.01524,19.18055,20.0426Q19.1396,20.069960000000002,19.104779999999998,20.104779999999998Q19.069960000000002,20.1396,19.0426,20.18055Q19.01524,20.22149,18.996389999999998,20.26699Q18.97755,20.31249,18.96794,20.36079Q18.95833,20.40909,18.95833,20.45833Q18.95833,20.55779,18.996389999999998,20.64967Q19.03445,20.74156,19.104779999999998,20.81189L19.10527,20.81237L19.59089,21.298000000000002L21.04922,22.75633L21.14645,22.85355Q21.21677,22.92388,21.30866,22.96194Q21.40054,23,21.5,23Q21.54925,23,21.597540000000002,22.990389999999998Q21.64584,22.98078,21.69134,22.96194Q21.73684,22.943089999999998,21.77778,22.91573Q21.818730000000002,22.888370000000002,21.85355,22.85355Q21.888370000000002,22.818730000000002,21.91573,22.77778Q21.943089999999998,22.73684,21.96194,22.69134Q21.98078,22.64584,21.990389999999998,22.597540000000002Q22,22.54925,22,22.5Q22,22.40054,21.96194,22.30866Q21.92388,22.21677,21.85355,22.14645L21.75633,22.04922L20.298000000000002,20.59089L19.81237,20.10527Z" fill-rule="evenodd" fill="#D25F00" fill-opacity="1"/></g></g></g></svg>