<svg id="图层_1" data-name="图层 1" xmlns="http://www.w3.org/2000/svg" viewBox="0 0 18 18">
  <defs>
    <style>
      .bbbbbiodhwoq-1 {
        fill: #f0953a;
      }

      .bbbbbiodhwoq-2 {
        fill: #fff;
      }
    </style>
  </defs>
  <g id="IconAomMenuMJRWColor">
    <rect class="bbbbbiodhwoq-1" width="18" height="18" rx="4" />
  </g>
  <path class="bbbbbiodhwoq-2"
    d="M13.15,7.8H9.7a1.35,1.35,0,0,1,0,1.55,3.83,3.83,0,0,1,1.32-.26,4.52,4.52,0,0,1,2.63,1,1,1,0,0,0,.52-.9v-.3A1,1,0,0,0,13.15,7.8Z" />
  <path class="bbbbbiodhwoq-2" d="M13.15,4.24H9.08a1.88,1.88,0,0,1,.32,1V6.63h3.75a1,1,0,0,0,1-1v-.3A1,1,0,0,0,13.15,4.24Z" />
  <path class="bbbbbiodhwoq-2"
    d="M7.43,10.94a6.85,6.85,0,0,1,1.13-1V9.12h0a.52.52,0,0,0,.53-.52.53.53,0,0,0-.53-.53h0V5.28A1,1,0,0,0,8.51,5a.43.43,0,0,1,0-.05,1.3,1.3,0,0,0-.14-.26h0a1,1,0,0,0-.84-.42H5.41a1,1,0,0,0-1,1V8.07h0a.52.52,0,0,0-.52.53.52.52,0,0,0,.52.52h0v3.6a1,1,0,0,0,1,1h2.1a1.05,1.05,0,0,0,.71-.28,7.39,7.39,0,0,1-.79-.72A1.33,1.33,0,0,1,7.43,10.94Zm-2-5.66h2.1V8.07H5.41Z" />
  <path class="bbbbbiodhwoq-2"
    d="M11.05,9.93a4.58,4.58,0,0,0-3,1.58.48.48,0,0,0,0,.67,4.58,4.58,0,0,0,3,1.58,4.58,4.58,0,0,0,3-1.58.5.5,0,0,0,0-.67A4.58,4.58,0,0,0,11.05,9.93Zm0,3a1,1,0,0,1,0-2.09,1,1,0,0,1,.4.08.56.56,0,0,0,.28,1,.57.57,0,0,0,.36-.14s0,0,0,.06A1,1,0,0,1,11.05,12.89Z" />
</svg>