<svg id="图层_1" data-name="图层 1" xmlns="http://www.w3.org/2000/svg" viewBox="0 0 18 18">
  <defs>
    <style>
      .nckhfio85c-1 {
        fill: #3b82f6;
      }

      .nckhfio85c-2 {
        fill: #fff;
      }
    </style>
  </defs>
  <g id="IconAomMenuGJKColor">
    <rect class="nckhfio85c-1" width="18" height="18" rx="4" />
  </g>
  <path class="nckhfio85c-2"
    d="M13.29,8.45h-.61V6.61a1.22,1.22,0,0,0-1.22-1.22H9.62V4.78a1.22,1.22,0,0,0-2.44,0v.61H5.34A1.22,1.22,0,0,0,4.12,6.61V8.45h.61a1.23,1.23,0,0,1,0,2.45H4.12v1.83A1.23,1.23,0,0,0,5.34,14H7.18v-.62a1.22,1.22,0,1,1,2.44,0V14h1.84a1.23,1.23,0,0,0,1.22-1.23V10.9h.61a1.23,1.23,0,1,0,0-2.45Z" />
</svg>