<svg id="_1" data-name="1" xmlns="http://www.w3.org/2000/svg" viewBox="0 0 24 24">
  <path
    d="M7.53,0H1.47A1.47,1.47,0,0,0,0,1.47V7.53a.84.84,0,0,0,.84.84.83.83,0,0,0,.83-.84V1.67H7.53A.83.83,0,0,0,8.37.84.84.84,0,0,0,7.53,0Zm15,0H16.47a.84.84,0,0,0-.84.84.83.83,0,0,0,.84.83h5.86V7.53a.84.84,0,1,0,1.67,0V1.47A1.47,1.47,0,0,0,22.53,0Zm.63,15.63a.83.83,0,0,0-.83.84v5.86H16.47a.84.84,0,1,0,0,1.67h6.06A1.47,1.47,0,0,0,24,22.53V16.47A.83.83,0,0,0,23.16,15.63ZM7.53,22.33H1.67V16.47a.83.83,0,0,0-.83-.84.84.84,0,0,0-.84.84v6.06A1.47,1.47,0,0,0,1.47,24H7.53a.84.84,0,1,0,0-1.67Z" />
</svg>