<svg xmlns="http://www.w3.org/2000/svg" xmlns:xlink="http://www.w3.org/1999/xlink" fill="none" version="1.1" width="24" height="24" viewBox="0 0 24 24"><defs><clipPath id="master_svg0_1346_35717"><rect x="0" y="0" width="24" height="24" rx="0"/></clipPath></defs><g clip-path="url(#master_svg0_1346_35717)"><g><path d="M1,6C1,3.23858,3.23858,1,6,1C8.761420000000001,1,11,3.23858,11,6L11,9C11,10.10457,10.10457,11,9,11L6,11C3.23858,11,1,8.761420000000001,1,6ZM1,18C1,15.2386,3.23858,13,6,13L9,13C10.10457,13,11,13.8954,11,15L11,18C11,20.7614,8.761420000000001,23,6,23C3.23858,23,1,20.7614,1,18ZM18,1C15.2386,1,13,3.23858,13,6L13,9C13,10.10457,13.8954,11,15,11L18,11C20.7614,11,23,8.761420000000001,23,6C23,3.23858,20.7614,1,18,1Z" fill="#165DFF" fill-opacity="1" style="mix-blend-mode:passthrough"/></g><g><path d="M17.2798880078125,13C16.9743380078125,13,16.7132180078125,13.221111,16.6632280078125,13.522222L16.5443380078125,14.23389C16.5098880078125,14.44167,16.3709980078125,14.615,16.1865580078125,14.71667C16.1454480078125,14.74,16.1043380078125,14.76333,16.064338007812502,14.78778C15.8837780078125,14.89667,15.6643380078125,14.93055,15.4665580078125,14.85667L14.790998007812501,14.60333C14.5047280078125,14.49582,14.1826990078125,14.611229999999999,14.0298900078125,14.87611L13.3093342078125,16.12444C13.1570007078125,16.389,13.2180715878125,16.72489,13.4537790078125,16.91889L14.0115560078125,17.37833C14.1737790078125,17.51222,14.2543380078125,17.71833,14.2504480078125,17.92944C14.2495780078125,17.97666,14.2495780078125,18.02389,14.2504480078125,18.07111C14.2543380078125,18.281109999999998,14.1737790078125,18.48833,14.0115560078125,18.62167L13.4537790078125,19.08111C13.2177754278125,19.27518,13.1566814078125,19.61143,13.3093342078125,19.87611L14.0298900078125,21.12444C14.1828310078125,21.388840000000002,14.5044680078125,21.50396,14.7904480078125,21.39667L15.4665580078125,21.14333C15.6643380078125,21.06944,15.8837780078125,21.10333,16.064338007812502,21.212220000000002C16.1046180078125,21.236530000000002,16.1453580078125,21.26006,16.1865580078125,21.282780000000002C16.3709980078125,21.384999999999998,16.5098880078125,21.558329999999998,16.5443380078125,21.766109999999998L16.6626680078125,22.47778C16.7132280078125,22.77889,16.9737780078125,23,17.2793380078125,23L18.7204480078125,23C19.0259980078125,23,19.2871080078125,22.77944,19.3371080078125,22.47778L19.4554480078125,21.766109999999998C19.4904480078125,21.55834,19.6293380078125,21.384999999999998,19.813228007812498,21.28333C19.8544280078125,21.26044,19.8951780078125,21.23673,19.9354480078125,21.212220000000002C20.1165580078125,21.10333,20.3359980078125,21.06945,20.5332280078125,21.14333L21.209338007812498,21.39667C21.4954480078125,21.50387,21.8171280078125,21.388489999999997,21.9698880078125,21.12389L22.6909980078125,19.87556C22.8432280078125,19.61167,22.7821080078125,19.27556,22.5465580078125,19.08111L21.9887780078125,18.62167C21.8259980078125,18.48778,21.7454480078125,18.281109999999998,21.7498880078125,18.07111C21.7506680078125,18.02389,21.7506680078125,17.97666,21.7498880078125,17.92944C21.7454480078125,17.718890000000002,21.8259980078125,17.51222,21.9887780078125,17.37833L22.5459980078125,16.91889C22.7820080078125,16.72482,22.8430980078125,16.38857,22.6904480078125,16.12389L21.9704480078125,14.87556C21.817458007812498,14.61089,21.495468007812498,14.49572,21.209338007812498,14.60333L20.5332280078125,14.85667C20.3359980078125,14.93056,20.1165580078125,14.89667,19.9359980078125,14.78778C19.8954480078125,14.76333,19.854888007812498,14.73944,19.813778007812502,14.71722C19.6293380078125,14.615,19.4904480078125,14.44167,19.4554480078125,14.23389L19.3371080078125,13.522222C19.2871080078125,13.221111,19.0259980078125,13,18.7204480078125,13L17.2798880078125,13ZM17.9998880078125,19.66683Q18.0817680078125,19.66683,18.1632480078125,19.6588Q18.2447380078125,19.65078,18.325038007812502,19.6348Q18.4053480078125,19.61883,18.4836980078125,19.59506Q18.5620480078125,19.5713,18.6376980078125,19.53996Q18.7133380078125,19.50863,18.7855480078125,19.47003Q18.8577580078125,19.43143,18.9258380078125,19.38595Q18.9939180078125,19.34046,19.0572080078125,19.28851Q19.1204980078125,19.23657,19.1783980078125,19.17867Q19.2362980078125,19.12078,19.2882380078125,19.05749Q19.3401780078125,18.99419,19.385668007812498,18.92611Q19.4311580078125,18.85803,19.4697580078125,18.78582Q19.5083580078125,18.71361,19.5396880078125,18.63797Q19.571018007812498,18.56232,19.5947880078125,18.48397Q19.6185580078125,18.40562,19.6345280078125,18.32531Q19.6505080078125,18.24501,19.6585280078125,18.16352Q19.6665580078125,18.08204,19.6665580078125,18.00016Q19.6665580078125,17.91828,19.6585280078125,17.8368Q19.6505080078125,17.75532,19.6345280078125,17.67501Q19.6185580078125,17.59471,19.5947880078125,17.51635Q19.571018007812498,17.438,19.5396880078125,17.36236Q19.5083580078125,17.28671,19.4697580078125,17.2145Q19.4311580078125,17.14229,19.385668007812498,17.07421Q19.3401780078125,17.00613,19.2882380078125,16.94284Q19.2362980078125,16.879550000000002,19.1783980078125,16.821649999999998Q19.1204980078125,16.76375,19.0572080078125,16.71181Q18.9939180078125,16.65987,18.9258380078125,16.61438Q18.8577580078125,16.56889,18.7855480078125,16.53029Q18.7133380078125,16.4917,18.6376880078125,16.46036Q18.5620480078125,16.42903,18.4836980078125,16.40526Q18.4053480078125,16.38149,18.325038007812502,16.36552Q18.2447380078125,16.34955,18.1632480078125,16.34152Q18.0817680078125,16.3335,17.9998880078125,16.3335Q17.9180080078125,16.3335,17.8365280078125,16.34152Q17.7550380078125,16.34955,17.6747380078125,16.36552Q17.5944280078125,16.38149,17.5160780078125,16.40526Q17.4377280078125,16.42903,17.3620780078125,16.46036Q17.2864380078125,16.4917,17.2142280078125,16.53029Q17.1420180078125,16.56889,17.0739380078125,16.61438Q17.0058580078125,16.65987,16.9425680078125,16.71181Q16.879278007812502,16.76375,16.8213780078125,16.821649999999998Q16.763478007812502,16.879550000000002,16.7115380078125,16.94284Q16.659598007812498,17.00613,16.6141080078125,17.07421Q16.5686180078125,17.14229,16.5300180078125,17.2145Q16.4914180078125,17.28671,16.4600880078125,17.36236Q16.4287580078125,17.438,16.4049880078125,17.51635Q16.3812180078125,17.59471,16.3652480078125,17.67501Q16.3492680078125,17.75532,16.3412480078125,17.8368Q16.3332180078125,17.91828,16.3332180078125,18.00016Q16.3332180078125,18.08204,16.3412480078125,18.16353Q16.3492680078125,18.24501,16.3652480078125,18.32531Q16.3812180078125,18.40562,16.4049880078125,18.48397Q16.4287580078125,18.56232,16.4600880078125,18.63797Q16.4914180078125,18.71361,16.5300180078125,18.78582Q16.5686180078125,18.85803,16.6141080078125,18.92611Q16.659598007812498,18.99419,16.7115380078125,19.05749Q16.763478007812502,19.12078,16.8213780078125,19.17867Q16.879278007812502,19.23657,16.9425680078125,19.28851Q17.0058580078125,19.34046,17.0739380078125,19.38595Q17.1420180078125,19.43143,17.2142280078125,19.47003Q17.2864380078125,19.50863,17.3620780078125,19.53996Q17.4377280078125,19.5713,17.5160780078125,19.59506Q17.5944280078125,19.61883,17.6747380078125,19.6348Q17.7550380078125,19.65078,17.8365280078125,19.6588Q17.9180080078125,19.66683,17.9998880078125,19.66683Z" fill-rule="evenodd" fill="#4AD9E4" fill-opacity="1"/></g></g></svg>