<svg id="图层_1" data-name="图层 1" xmlns="http://www.w3.org/2000/svg" viewBox="0 0 18 18">
  <defs>
    <style>
      .coisjcopa-1 {
        fill: #3b82f6;
      }

      .coisjcopa-2 {
        fill: #fff;
      }
    </style>
  </defs>
  <rect class="coisjcopa-1" width="18" height="18" rx="4" />
  <path class="coisjcopa-2"
    d="M8.81,6.49,4.52,10.57V13.4a.78.78,0,0,0,.78.78H7.87V11.67a1.18,1.18,0,0,1,1-1.19,1.14,1.14,0,0,1,1.25,1.13v2.57H12.7a.78.78,0,0,0,.78-.78V10.64L9,6.49A.11.11,0,0,0,8.81,6.49Z" />
  <path class="coisjcopa-2"
    d="M4.07,9.47H4.4l4.17-4a.45.45,0,0,1,.6,0l4.35,4h.41a.57.57,0,0,0,.39-1L9.44,4A.79.79,0,0,0,8.37,4L3.68,8.5A.56.56,0,0,0,4.07,9.47Z" />
</svg>