<svg id="图层_1" data-name="图层 1" xmlns="http://www.w3.org/2000/svg" viewBox="0 0 18 18">
  <defs>
    <style>
      .aokvbcj121 {
        fill: #34c765;
      }

      .aokvbcj122 {
        fill: #fff;
      }
    </style>
  </defs>
  <g id="IconAomMenuMJRWColor">
    <rect class="aokvbcj121" width="18" height="18" rx="4" />
  </g>
  <path class="aokvbcj122"
    d="M13.33,4h-1a.5.5,0,0,0-.5.5v8a.57.57,0,0,0,.08.28l.75,1.12a.21.21,0,0,0,.34,0l.75-1.12a.57.57,0,0,0,.08-.28v-8A.5.5,0,0,0,13.33,4Z" />
  <path class="aokvbcj122"
    d="M10.53,4H5.83a1,1,0,0,0-1,1v.86H4.67a.5.5,0,0,0-.5.5.5.5,0,0,0,.5.5h.16V8.5H4.67a.5.5,0,0,0,0,1h.16v1.64H4.67a.5.5,0,0,0,0,1h.16V13a1,1,0,0,0,1,1h4.7a.5.5,0,0,0,.5-.5v-9A.5.5,0,0,0,10.53,4Zm-3.8,8.5a.5.5,0,0,1-1,0v-.36h.19a.5.5,0,1,0,0-1H5.73V9.5h.19a.5.5,0,0,0,0-1H5.73V6.86h.19a.5.5,0,0,0,.5-.5.5.5,0,0,0-.5-.5H5.73V5.5a.5.5,0,0,1,1,0Z" />
</svg>