<svg id="图层_1" data-name="图层 1" xmlns="http://www.w3.org/2000/svg" viewBox="0 0 18 18">
  <defs>
    <style>
      .qwdgfx981 {
        fill: #30b0f0;
      }

      .qwdgfx982 {
        fill: #fff;
      }
    </style>
  </defs>
  <g id="IconAomMenuGJKGLColor">
    <rect class="qwdgfx981" width="18" height="18" rx="4" />
  </g>
  <path class="qwdgfx982"
    d="M8.13,3.8a4.26,4.26,0,0,0-1.73.36.5.5,0,0,0-.3.36A.54.54,0,0,0,6.24,5L7.77,6.53A.88.88,0,0,1,7.15,8a.91.91,0,0,1-.62-.26L5,6.24a.49.49,0,0,0-.44-.14.52.52,0,0,0-.36.3A4.26,4.26,0,0,0,3.8,8.13a4.34,4.34,0,0,0,6.07,4l1.63,1.64a1.61,1.61,0,0,0,1.13.47,1.57,1.57,0,0,0,1.57-1.58h0a1.55,1.55,0,0,0-.46-1.12L12.1,9.86a4.47,4.47,0,0,0,.36-1.73A4.34,4.34,0,0,0,8.13,3.8Zm5,9.37a.83.83,0,1,1,0-1.18A.85.85,0,0,1,13.17,13.17Z" />
</svg>