<svg id="图层_1" data-name="图层 1" xmlns="http://www.w3.org/2000/svg" viewBox="0 0 18 18">
  <defs>
    <style>
      .buyasfgu31-1 {
        fill: #30b0f0;
      }

      .buyasfgu31-2 {
        fill: #fff;
      }
    </style>
  </defs>
  <g id="IconAomMenuGJKGLColor">
    <rect class="buyasfgu31-1" width="18" height="18" rx="4" />
  </g>
  <path class="buyasfgu31-2"
    d="M5.34,11.31a1.35,1.35,0,1,0,1.25,1.85h.63a1.77,1.77,0,0,1,.42-1h-1A1.34,1.34,0,0,0,5.34,11.31Z" />
  <path class="buyasfgu31-2" d="M12.67,11.49h.38a2.54,2.54,0,0,0,.11-.67,2.4,2.4,0,0,0-.12-.71,2.22,2.22,0,0,1-.61.75Z" />
  <path class="buyasfgu31-2"
    d="M7.17,9.5H8.74a3,3,0,0,1,0-.43,2.12,2.12,0,0,1,.08-.57H7.17a1.33,1.33,0,0,1,0-2.66h4.24a1.34,1.34,0,1,0,0-1H7.17a2.33,2.33,0,0,0,0,4.66Z" />
  <path class="buyasfgu31-2"
    d="M13,12.29h-.53A.42.42,0,0,1,12,12l-.44-1.12a.43.43,0,0,1,.18-.53,1.25,1.25,0,0,0,.42-.37h0a1.76,1.76,0,0,0,.14-.23h0a1.67,1.67,0,0,0,.15-.54h0a1.43,1.43,0,0,0-.2-.89A1.49,1.49,0,0,0,11,7.57h0a1.51,1.51,0,0,0-1.39.93h0a2.29,2.29,0,0,0-.08.28,1.36,1.36,0,0,0,0,.29,1.65,1.65,0,0,0,0,.32,1.47,1.47,0,0,0,.7,1,.43.43,0,0,1,.18.53L10,12a.4.4,0,0,1-.1.15h0l-.12.08h0a.42.42,0,0,1-.16,0H9.05a.65.65,0,0,0-.2,0H8.78l-.12,0-.08,0-.09,0-.08.06-.06.05a.6.6,0,0,0-.08.08l0,0-.07.11,0,0L8.07,13v0a1,1,0,0,0-.06.34v.29a.38.38,0,0,0,.37.37h5.26a.38.38,0,0,0,.37-.37v-.29A1,1,0,0,0,13,12.29Z" />
</svg>