<svg id="图层_1" data-name="图层 1" xmlns="http://www.w3.org/2000/svg" viewBox="0 0 18 18">
  <defs>
    <style>
      .hhgcwi37ca-1 {
        fill: #f0953a;
      }

      .hhgcwi37ca-2 {
        fill: #fff;
      }
    </style>
  </defs>
  <g id="IconAomMenuMJRWColor">
    <rect class="hhgcwi37ca-1" width="18" height="18" rx="4" />
  </g>
  <path class="hhgcwi37ca-2"
    d="M13.28,5.91,9.54,3.74a1.09,1.09,0,0,0-1.08,0L4.72,5.91a1.05,1.05,0,0,0-.54.93v4.32a1.05,1.05,0,0,0,.54.93l3.74,2.17a1.09,1.09,0,0,0,1.08,0l3.74-2.17a1.05,1.05,0,0,0,.54-.93V6.84A1.05,1.05,0,0,0,13.28,5.91ZM11.4,8.11l-2,1.14v2.27a.43.43,0,0,1-.86,0V9.25l-2-1.14a.43.43,0,0,1-.15-.59A.42.42,0,0,1,7,7.37L9,8.5l2-1.13a.42.42,0,0,1,.58.15A.43.43,0,0,1,11.4,8.11Z" />
</svg>