<svg id="图层_1" data-name="图层 1" xmlns="http://www.w3.org/2000/svg" viewBox="0 0 18 18">
  <defs>
    <style>
      .bcuswg090-1 {
        fill: #854bfa;
      }

      .bcuswg090-2 {
        fill: #fff;
      }
    </style>
  </defs>
  <g id="IconAomMenuCSGLColor">
    <rect class="bcuswg090-1" width="18" height="18" rx="4" />
  </g>
  <path class="bcuswg090-2"
    d="M13.58,12.27a2.17,2.17,0,0,0-.37-2.58,2.14,2.14,0,0,0-1.54-.64,2.18,2.18,0,1,0,0,4.36,2.27,2.27,0,0,0,1-.26l.43.43a.94.94,0,0,0,.18.12.6.6,0,0,0,.27.06.64.64,0,0,0,.44-.18.63.63,0,0,0,0-.88Z" />
  <path class="bcuswg090-2"
    d="M9.34,13.15a1.85,1.85,0,0,1-.26.61H10a2.63,2.63,0,0,1-.49-.39C9.46,13.3,9.41,13.22,9.34,13.15Z" />
  <path class="bcuswg090-2"
    d="M13.15,7.8H9.7a1.39,1.39,0,0,1,.26.8c0,.05,0,.1,0,.15a3,3,0,0,1,3.86.34,4.12,4.12,0,0,1,.33.4,1,1,0,0,0,.06-.34v-.3A1,1,0,0,0,13.15,7.8Z" />
  <path class="bcuswg090-2" d="M13.15,4.24H9.08a1.88,1.88,0,0,1,.32,1V6.63h3.75a1,1,0,0,0,1-1v-.3A1,1,0,0,0,13.15,4.24Z" />
  <path class="bcuswg090-2"
    d="M8.6,8.07h0V5.28A1,1,0,0,0,8.51,5a.43.43,0,0,1,0-.05,1.3,1.3,0,0,0-.14-.26h0a1,1,0,0,0-.84-.42H5.41a1,1,0,0,0-1,1V8.07h0a.52.52,0,0,0-.52.53.52.52,0,0,0,.52.52h0v3.6a1,1,0,0,0,1,1h2.1a1,1,0,0,0,.84-.42h0a1.3,1.3,0,0,0,.14-.26.43.43,0,0,1,0-.05,1,1,0,0,0,.05-.3V9.12h0a.52.52,0,0,0,.53-.52A.53.53,0,0,0,8.6,8.07Zm-1.09,0H5.41V5.28h2.1Z" />
</svg>