<svg id="图层_1" data-name="图层 1" xmlns="http://www.w3.org/2000/svg" viewBox="0 0 18 18">
  <defs>
    <style>
      .hciuhb6io8w-1 {
        fill: #fff;
      }

      .hciuhb6io8w-2 {
        fill: #30b0f0;
      }
    </style>
  </defs>
  <polygon class="hciuhb6io8w-1" points="9 14.43 9 14.43 9 14.43 9 14.43" />
  <polygon class="hciuhb6io8w-1" points="4.26 6.22 4.26 6.22 4.26 6.22 4.26 6.22" />
  <g id="IconAomMenuGJKColor">
    <rect class="hciuhb6io8w-2" width="18" height="18" rx="4" />
  </g>
  <path class="hciuhb6io8w-1"
    d="M5.8,10.32V6.64h-1a1,1,0,0,0-1,1v5.48a1,1,0,0,0,1,1h5.48a1,1,0,0,0,1-1v-1H7.68A1.88,1.88,0,0,1,5.8,10.32Z" />
  <path class="hciuhb6io8w-1"
    d="M13.16,3.8H7.68a1,1,0,0,0-1,1v5.48a1.5,1.5,0,0,0,0,.22l3-3L9,6.84a.56.56,0,0,1,.39-1h2.17a.56.56,0,0,1,.56.56V8.61a.56.56,0,0,1-1,.39l-.68-.68-3,3,.22,0h5.48a1,1,0,0,0,1-1V4.84A1,1,0,0,0,13.16,3.8Z" />
</svg>