<svg xmlns="http://www.w3.org/2000/svg" xmlns:xlink="http://www.w3.org/1999/xlink" fill="none" version="1.1" width="24" height="24" viewBox="0 0 24 24"><defs><clipPath id="master_svg0_644_31808"><rect x="0" y="0" width="24" height="24" rx="0"/></clipPath></defs><g clip-path="url(#master_svg0_644_31808)"><g><path d="M12.00018310546875,1.5C14.48546310546875,1.5,16.50018310546875,3.51472,16.50018310546875,6L16.50018310546875,6.75L15.00018310546875,6.75L15.00018310546875,6C15.00018310546875,4.34315,13.65703310546875,3,12.00018310546875,3C10.34333310546875,3,9.00018310546875,4.34315,9.00018310546875,6L9.00018310546875,6.75L7.50018310546875,6.75L7.50018310546875,6C7.50018310546875,3.51472,9.51490310546875,1.5,12.00018310546875,1.5Z" fill="#4CD263" fill-opacity="1"/></g><g><path d="M18.487208447265626,6.75C19.446908447265624,6.75,20.251908447265624,7.4744969999999995,20.352208447265625,8.429L21.615208447265626,20.429000000000002C21.670708447265625,20.9575,21.499408447265626,21.4848,21.143808447265624,21.8797C20.788108447265625,22.2746,20.281608447265626,22.5,19.750208447265624,22.5L4.250188447265625,22.5C3.718748447265625,22.5,3.212239447265625,22.2746,2.856608447265625,21.8797C2.500977447265625,21.4848,2.329636047265625,20.9575,2.385189347265625,20.429000000000002L3.6481884472656247,8.429C3.7491884472656247,7.474,4.553188447265625,6.75,5.513188447265625,6.75L18.487208447265626,6.75ZM15.750208447265624,9.75C15.336008447265625,9.75,15.000208447265624,10.08579,15.000208447265624,10.5L15.000208447265624,11.25C15.000208447265624,12.90685,13.657008447265625,14.25,12.000188447265625,14.25C10.343338447265625,14.25,9.000188447265625,12.90685,9.000188447265625,11.25L9.000188447265625,10.5C9.000188447265625,10.08579,8.664398447265626,9.75,8.250188447265625,9.75C7.835978447265625,9.75,7.500188447265625,10.08579,7.500188447265625,10.5L7.500188447265625,11.25C7.500188447265625,13.73528,9.514908447265626,15.75,12.000188447265625,15.75C14.485508447265625,15.75,16.500208447265624,13.73528,16.500208447265624,11.25L16.500208447265624,10.5C16.500208447265624,10.08579,16.164408447265625,9.75,15.750208447265624,9.75Z" fill="#00B42A" fill-opacity="1"/></g></g></svg>