<svg xmlns="http://www.w3.org/2000/svg" xmlns:xlink="http://www.w3.org/1999/xlink" fill="none" version="1.1" width="24" height="24" viewBox="0 0 24 24"><defs><clipPath id="master_svg0_630_29765"><rect x="0" y="0" width="24" height="24" rx="0"/></clipPath></defs><g clip-path="url(#master_svg0_630_29765)"><g><path d="M17.739172680664062,1L3.3913726806640625,1C4.711852680664062,1,5.782672680664063,2.0708200000000003,5.782672680664063,3.3913L5.782672680664063,20.6087C5.782672680664063,21.9291,6.853502680664063,23,8.173972680664063,23L20.130472680664063,23L20.130472680664063,3.3913C20.130472680664063,2.0708200000000003,19.059672680664065,1,17.739172680664062,1Z" fill="#165DFF" fill-opacity="1"/></g><g><path d="M3.391330517578125,1C2.0708505175781253,1,1.000030517578125,2.0708200000000003,1.000030517578125,3.3913L5.782630517578125,3.3913C5.782630517578125,2.0708200000000003,4.711810517578125,1,3.391330517578125,1Z" fill="#7BC0FC" fill-opacity="1"/></g><g><path d="M10.565265454101564,20.6083984375C10.565265454101564,21.9288784375,9.494445454101562,22.9996984375,8.173965454101562,22.9996984375L20.60876545410156,22.9996984375C21.92926545410156,22.9996984375,23.000065454101563,21.9288784375,23.000065454101563,20.6083984375L10.565265454101564,20.6083984375Z" fill="#7BC0FC" fill-opacity="1"/></g><g><path d="M17.136400000000002,11.2728L16.7364,11.2728C16.482,11.2728,16.2636,11.1272,16.1544,10.9092C16.0456,10.6908,16.118000000000002,10.4,16.3,10.2544L16.5544,10C16.7,9.8544,16.7,9.6364,16.5544,9.4908L16.0452,8.981599C15.8996,8.835999,15.6816,8.835999,15.536,8.981599L15.281600000000001,9.236C15.099599999999999,9.418,14.8452,9.454,14.6272,9.3816C14.4092,9.2724,14.2636,9.0544,14.2636,8.799599L14.2636,8.3632C14.2636,8.1456,14.118,8,13.9,8L13.1728,8C12.9548,8,12.8092,8.1456,12.8092,8.3636L12.8092,8.7636C12.8092,9.018,12.6636,9.2364,12.4456,9.3456C12.1548,9.4184,11.9,9.3456,11.718399999999999,9.2L11.4276,8.9092C11.282,8.7636,11.064,8.7636,10.9184,8.9092L10.409199,9.4184C10.263599,9.564,10.263599,9.782,10.409199,9.9276L10.6636,10.182C10.8456,10.364,10.8816,10.6184,10.8092,10.8364C10.7,11.0544,10.482,11.2,10.2272,11.2L9.8636,11.2C9.6456,11.2,9.5,11.345600000000001,9.5,11.563600000000001L9.5,12.2908C9.5,12.5088,9.6456,12.654399999999999,9.8636,12.654399999999999L10.2636,12.654399999999999C10.518,12.654399999999999,10.7364,12.8,10.8456,13.018C10.9548,13.236,10.882,13.5272,10.7,13.6724L10.4456,13.9268C10.3,14.0724,10.3,14.2904,10.4456,14.436L10.9548,14.9452C11.1004,15.0908,11.3184,15.0908,11.464,14.9452L11.718399999999999,14.6908C11.9004,14.5088,12.1548,14.4728,12.3728,14.545200000000001C12.5908,14.654399999999999,12.7364,14.872399999999999,12.7364,15.1272L12.7364,15.6364C12.7364,15.8544,12.882,16,13.1,16L13.827200000000001,16C14.045200000000001,16,14.1908,15.8544,14.1908,15.6364L14.1908,15.2364C14.1908,14.982,14.336400000000001,14.7636,14.554400000000001,14.654399999999999C14.772400000000001,14.545200000000001,15.063600000000001,14.618,15.2088,14.8L15.4632,15.054400000000001C15.608799999999999,15.2,15.8268,15.2,15.9724,15.054400000000001L16.4816,14.545200000000001C16.627200000000002,14.3996,16.627200000000002,14.1816,16.4816,14.036L16.2272,13.781600000000001C16.0452,13.599599999999999,16.0092,13.3452,16.0816,13.1272C16.1908,12.9092,16.4088,12.7636,16.6636,12.7636L17.136400000000002,12.7636C17.3544,12.7636,17.5,12.618,17.5,12.4L17.5,11.6728C17.5,11.418,17.3544,11.2728,17.136400000000002,11.2728ZM13.5,13.2C12.8372,13.2,12.3,12.6628,12.3,12C12.3,11.3372,12.8372,10.8,13.5,10.8C14.1628,10.8,14.7,11.3372,14.7,12C14.7,12.6628,14.1628,13.2,13.5,13.2Z" fill="#FFFFFF" fill-opacity="1"/></g></g></svg>