<?xml version="1.0" encoding="UTF-8"?>
<svg id="_图层_1" data-name="图层 1" xmlns="http://www.w3.org/2000/svg" viewBox="0 0 24 24">
  <defs>
    <style>
      .cls-1 {
        fill: #ddbef6;
      }

      .cls-2 {
        fill: #8d4eda;
      }
    </style>
  </defs>
  <path class="cls-2" d="M20.5,2.5H3.5c-1.1,0-2,.9-2,2v4H22.5v-4c0-1.1-.9-2-2-2ZM5.41,6.29c-.43,0-.79-.35-.79-.79s.35-.79,.79-.79,.79,.35,.79,.79-.35,.79-.79,.79Zm3.15,0c-.43,0-.79-.35-.79-.79s.35-.79,.79-.79,.79,.35,.79,.79-.35,.79-.79,.79Z"/>
  <path class="cls-2" d="M14.66,21.05l-.58-1s-.05-.09-.07-.14c-.33-.68-.19-1.27,.42-1.77l.11-.09-.11-.09c-.65-.54-.77-1.17-.35-1.91l.58-1c.42-.73,1.03-.95,1.83-.65l.14,.05,.02-.14h0c.14-.84,.63-1.25,1.48-1.25h1.15c.85,0,1.34,.42,1.48,1.25l.02,.14,.14-.05c.66-.25,1.18-.12,1.58,.34v-4.77H1.5v9.53c0,1.1,.9,2,2,2H15.01c-.13-.12-.24-.27-.35-.45Z"/>
  <path class="cls-1" d="M21.89,18.55c-.13-.11-.2-.27-.19-.44v-.11c0-.17,.06-.33,.19-.44l.45-.37c.19-.16,.24-.42,.12-.64l-.58-1c-.12-.21-.38-.3-.61-.22l-.54,.2c-.16,.06-.33,.03-.48-.05-.03-.02-.06-.04-.1-.06-.15-.08-.26-.22-.29-.39l-.1-.57c-.04-.24-.25-.42-.49-.42h-1.15c-.24,0-.45,.18-.49,.42l-.09,.57c-.03,.17-.14,.31-.29,.39l-.1,.06c-.15,.09-.32,.11-.48,.05l-.54-.2c-.23-.09-.49,0-.61,.22l-.58,1c-.12,.21-.07,.48,.11,.64l.45,.37c.13,.11,.2,.27,.19,.44v.11c0,.17-.06,.33-.19,.44l-.45,.37c-.19,.16-.24,.42-.11,.64l.58,1c.12,.21,.38,.3,.61,.22l.54-.2c.16-.06,.34-.04,.48,.06l.1,.06c.15,.08,.25,.22,.29,.39l.09,.57c.04,.24,.25,.42,.49,.42h1.15c.24,0,.45-.18,.49-.42l.1-.57c.03-.17,.14-.31,.29-.39,.03-.02,.07-.04,.1-.06,.14-.09,.32-.11,.48-.06l.54,.2c.23,.09,.49,0,.61-.22l.58-1c.12-.21,.07-.48-.11-.63l-.45-.37Zm-1.86-.37s-.01,.09-.02,.13-.02,.09-.03,.13c-.01,.04-.03,.08-.04,.12-.02,.04-.04,.08-.06,.12-.02,.04-.04,.08-.07,.11-.02,.04-.05,.07-.08,.1-.03,.03-.06,.07-.09,.1-.03,.03-.06,.06-.1,.09-.03,.03-.07,.05-.1,.08-.04,.02-.07,.05-.11,.07-.04,.02-.08,.04-.12,.06-.04,.02-.08,.03-.12,.04-.04,.01-.08,.02-.13,.03-.04,0-.09,.01-.13,.02s-.09,0-.13,0-.09,0-.13,0c-.04,0-.09-.01-.13-.02-.04,0-.09-.02-.13-.03-.04-.01-.08-.03-.12-.04-.04-.02-.08-.04-.12-.06-.04-.02-.08-.04-.11-.07-.04-.02-.07-.05-.11-.08-.03-.03-.07-.06-.1-.09s-.06-.06-.09-.1c-.03-.03-.05-.07-.08-.1-.02-.04-.05-.07-.07-.11-.02-.04-.04-.08-.05-.12-.02-.04-.03-.08-.04-.12-.01-.04-.02-.08-.03-.13s-.01-.09-.02-.13,0-.09,0-.13,0-.09,0-.13c0-.04,0-.09,.02-.13,.01-.04,.02-.09,.03-.13,0-.04,.02-.08,.04-.12,.02-.04,.04-.08,.05-.12,.02-.04,.04-.08,.07-.11,.02-.04,.05-.07,.08-.1,.03-.03,.06-.07,.09-.1s.06-.06,.1-.09c.03-.03,.07-.05,.11-.08,.04-.02,.07-.05,.11-.07,.04-.02,.08-.04,.12-.06,.04-.02,.08-.03,.12-.04,.04-.01,.08-.02,.13-.03s.09-.01,.13-.02c.04,0,.09,0,.13,0s.09,0,.13,0,.09,.01,.13,.02,.09,.02,.13,.03,.08,.03,.12,.04c.04,.02,.08,.04,.12,.06,.04,.02,.08,.04,.11,.07,.04,.02,.07,.05,.1,.08,.03,.03,.07,.06,.1,.09,.03,.03,.06,.06,.09,.1,.03,.03,.05,.07,.08,.1,.02,.04,.05,.07,.07,.11s.04,.08,.06,.12c.02,.04,.03,.08,.04,.12,.01,.04,.02,.08,.03,.13s.01,.09,.02,.13c0,.04,0,.09,0,.13s0,.09,0,.13Z"/>
</svg>