<?xml version="1.0" encoding="UTF-8"?>
<svg id="_图层_1" data-name="图层 1" xmlns="http://www.w3.org/2000/svg" viewBox="0 0 24 24">
  <defs>
    <style>
      .cls-1 {
        fill: #ddbef6;
      }

      .cls-2 {
        fill: #8d4eda;
      }
    </style>
  </defs>
  <path class="cls-2" d="M20.5,2.5H3.5c-1.1,0-2,.9-2,2v4H22.5v-4c0-1.1-.9-2-2-2ZM5.41,6.29c-.43,0-.79-.35-.79-.79s.35-.79,.79-.79,.79,.35,.79,.79-.35,.79-.79,.79Zm3.15,0c-.43,0-.79-.35-.79-.79s.35-.79,.79-.79,.79,.35,.79,.79-.35,.79-.79,.79Z"/>
  <g>
    <path class="cls-2" d="M14.94,21.44h-.01s-2.67-2.68-2.67-2.68c-.39-.39-.39-1.02,0-1.41l.27-.27c.49-.49,1.08-.73,1.77-.73s1.28,.24,1.77,.73l.9,.9,3.57-3.57c.49-.49,1.08-.73,1.77-.73,.07,0,.13,.01,.2,.02v-3.72H1.5v9.53c0,1.1,.9,2,2,2H15l-.06-.06Z"/>
    <path class="cls-2" d="M18.94,21.5h1.56c1.1,0,2-.9,2-2v-1.56l-3.56,3.56Z"/>
  </g>
  <g>
    <path class="cls-1" d="M12.97,18.05l2.67,2.67,1.33-1.33-1.61-1.61c-.59-.59-1.54-.59-2.12,0l-.27,.27Z"/>
    <path class="cls-1" d="M15.64,20.72l.27,.27c.59,.59,1.54,.59,2.12,0h0s5.61-5.61,5.61-5.61l-.27-.27c-.59-.59-1.54-.59-2.12,0l-5.61,5.61Z"/>
  </g>
</svg>