<svg xmlns="http://www.w3.org/2000/svg" viewBox="0 0 18 18">
  <g id="图层_2" data-name="图层 2">
    <g id="图层_1-2" data-name="图层 1">
      <g id="IconAomMenuMJRWColor">
        <rect fill="#f0953a" width="18" height="18" rx="4" />
        <path fill="#fff"
          d="M13.83,4.47a.46.46,0,0,0-.29-.29,6.48,6.48,0,0,0-6,1.72c-.24.25.09,0-.11.22a.27.27,0,0,1-.2.15A4.89,4.89,0,0,0,4.85,7.6a3.82,3.82,0,0,0-.79,1,.38.38,0,0,0,.49.54,5.22,5.22,0,0,1,1.72-.29.18.18,0,0,1,0,.14,15,15,0,0,0,1.33,1.43c.44.45.93.89,1.42,1.33a.18.18,0,0,0,.15,0,5.23,5.23,0,0,1-.29,1.73.39.39,0,0,0,.54.49,7.08,7.08,0,0,0,1-.79,4.68,4.68,0,0,0,1.33-2.36c0-.1,0-.15.15-.2s0,.13.22-.12A6.42,6.42,0,0,0,13.83,4.47Zm-1.8,4a1.72,1.72,0,0,1-1.2.49,1.7,1.7,0,0,1-1.19-.49,1.65,1.65,0,0,1-.49-1.19A1.67,1.67,0,0,1,9.64,6,1.71,1.71,0,0,1,12,6,1.73,1.73,0,0,1,12,8.42Z" />
        <path fill="#fff"
          d="M10.83,6.35a.85.85,0,0,0-.88.88.87.87,0,0,0,.25.62.91.91,0,0,0,1.26,0,.89.89,0,0,0,0-1.25A.88.88,0,0,0,10.83,6.35Z" />
        <path fill="#fff"
          d="M5.66,10.62c-.39.4-1,1.81-.52,2.25s1.85-.13,2.25-.52a1.13,1.13,0,0,0-.15-1.58A1.13,1.13,0,0,0,5.66,10.62Z" />
      </g>
    </g>
  </g>
</svg>