<svg id="图层_1" data-name="图层 1" xmlns="http://www.w3.org/2000/svg" viewBox="0 0 18 18">
  <defs>
    <style>
      .nnnncgi74-1 {
        fill: #30b0f0;
      }

      .nnnncgi74-2 {
        fill: #fff;
      }
    </style>
  </defs>
  <g id="IconAomMenuGJKColor">
    <rect class="nnnncgi74-1" width="18" height="18" rx="4" />
  </g>
  <path class="nnnncgi74-2" d="M13.15,11.37H9.4v1.35a1.88,1.88,0,0,1-.32,1h4.07a1,1,0,0,0,1-1v-.3A1,1,0,0,0,13.15,11.37Z" />
  <path class="nnnncgi74-2"
    d="M13.15,7.8H9.7a1.39,1.39,0,0,1,.26.8A1.35,1.35,0,0,1,9.4,9.7v.5h3.75a1,1,0,0,0,1-1v-.3A1,1,0,0,0,13.15,7.8Z" />
  <path class="nnnncgi74-2" d="M13.15,4.24H9.08a1.88,1.88,0,0,1,.32,1V6.63h3.75a1,1,0,0,0,1-1v-.3A1,1,0,0,0,13.15,4.24Z" />
  <path class="nnnncgi74-2"
    d="M8.6,8.07h0V5.28A1,1,0,0,0,8.51,5a.43.43,0,0,1,0-.05,1.3,1.3,0,0,0-.14-.26h0a1,1,0,0,0-.84-.42H5.41a1,1,0,0,0-1,1V8.07h0a.52.52,0,0,0-.52.53.52.52,0,0,0,.52.52h0v3.6a1,1,0,0,0,1,1h2.1a1,1,0,0,0,.84-.42h0a1.3,1.3,0,0,0,.14-.26.43.43,0,0,1,0-.05,1,1,0,0,0,.05-.3V9.12h0a.52.52,0,0,0,.53-.52A.53.53,0,0,0,8.6,8.07Zm-1.09,0H5.41V5.28h2.1Z" />
</svg>