<svg id="图层_1" data-name="图层 1" xmlns="http://www.w3.org/2000/svg" viewBox="0 0 18 18">
  <defs>
    <style>
      .ffguyd871 {
        fill: #854bfa;
      }

      .ffguyd872 {
        fill: #fff;
      }
    </style>
  </defs>
  <g id="IconAomMenuMJRWColor">
    <rect class="ffguyd871" width="18" height="18" rx="4" />
  </g>
  <path class="ffguyd872"
    d="M12.64,3.9H10.92a.56.56,0,1,0,0,1.11h1.72a.35.35,0,0,1,.35.35v7.28a.35.35,0,0,1-.35.35H10.92a.56.56,0,1,0,0,1.11h1.72a1.47,1.47,0,0,0,1.46-1.46V5.36A1.47,1.47,0,0,0,12.64,3.9Z" />
  <path class="ffguyd872"
    d="M5.36,5H7.08a.56.56,0,1,0,0-1.11H5.36A1.47,1.47,0,0,0,3.9,5.36v7.28A1.47,1.47,0,0,0,5.36,14.1H7.08a.56.56,0,1,0,0-1.11H5.36A.35.35,0,0,1,5,12.64V5.36A.35.35,0,0,1,5.36,5Z" />
  <path class="ffguyd872"
    d="M8.18,5.7h-2a.47.47,0,0,0-.47.47v5.66a.47.47,0,0,0,.47.47h2a.47.47,0,0,0,.48-.47V6.17A.47.47,0,0,0,8.18,5.7ZM7.57,8.88H6.81a.37.37,0,0,1-.37-.37.38.38,0,0,1,.37-.38h.76A.38.38,0,0,1,8,8.51.37.37,0,0,1,7.57,8.88Zm0-1.34H6.81a.38.38,0,0,1,0-.76h.76a.38.38,0,0,1,0,.76Z" />
  <path class="ffguyd872"
    d="M11.8,5.7h-2a.47.47,0,0,0-.48.47v5.66a.47.47,0,0,0,.48.47h2a.47.47,0,0,0,.47-.47V6.17A.47.47,0,0,0,11.8,5.7Zm-.61,3.18h-.76a.37.37,0,0,1-.38-.37.38.38,0,0,1,.38-.38h.76a.38.38,0,0,1,.37.38A.37.37,0,0,1,11.19,8.88Zm0-1.34h-.76a.38.38,0,0,1,0-.76h.76a.38.38,0,0,1,0,.76Z" />
</svg>