<svg xmlns="http://www.w3.org/2000/svg" xmlns:xlink="http://www.w3.org/1999/xlink" fill="none" version="1.1" width="24" height="24" viewBox="0 0 24 24"><defs><clipPath id="master_svg0_1343_38024"><rect x="0" y="0" width="24" height="24" rx="0"/></clipPath></defs><g clip-path="url(#master_svg0_1343_38024)"><g><rect x="1.5" y="12.5" width="21" height="7" rx="1.5" fill="#DDBEF6" fill-opacity="1"/></g><g><path d="M12.000004523925782,9C11.840004523925781,9,11.68950452392578,8.9235,11.595504523925781,8.794L7.595500423925781,3.294C7.433000523925781,3.0705,7.482500523925781,2.758,7.706000523925781,2.5955C7.791500523925781,2.5335,7.894500523925782,2.5,8.000000523925781,2.5L16.00000452392578,2.5C16.27599452392578,2.5,16.50000452392578,2.724,16.50000452392578,3C16.50000452392578,3.1055,16.466494523925782,3.2085,16.40449452392578,3.294L12.40450452392578,8.794C12.31050452392578,8.9235,12.160004523925782,9,12.000004523925782,9Z" fill="#8D4EDA" fill-opacity="1" style="mix-blend-mode:passthrough"/></g><g><path d="M12.002449035644531,13.5L3.5024490356445312,13.5C2.9501640356445313,13.5,2.5024490356445312,13.947715,2.5024490356445312,14.5L2.5024490356445312,17.5C2.5024490356445312,18.05228,2.9501640356445313,18.5,3.5024490356445312,18.5L12.002449035644531,18.5L12.002449035644531,13.5Z" fill="#8D4EDA" fill-opacity="1" style="mix-blend-mode:passthrough"/></g><g><path d="M11.247550964355469,12Q11.247550964355469,11.9261315,11.261961964355468,11.853682Q11.276372964355469,11.781233,11.30464096435547,11.712987Q11.33290996435547,11.644742,11.373948964355469,11.583322Q11.414987964355468,11.521903,11.46722096435547,11.46967Q11.519453964355469,11.417437,11.58087296435547,11.376398Q11.64229296435547,11.335359,11.710537964355469,11.30709Q11.778783964355469,11.278822,11.851232964355468,11.264410999999999Q11.923682464355469,11.25,11.997550964355469,11.25Q12.071419464355468,11.25,12.14386896435547,11.264410999999999Q12.216317964355468,11.278822,12.284563964355469,11.30709Q12.352808964355468,11.335359,12.414228964355468,11.376398Q12.475647964355469,11.417437,12.527880964355468,11.46967Q12.58011396435547,11.521903,12.621152964355469,11.583322Q12.662191964355468,11.644742,12.690460964355468,11.712987Q12.718728964355469,11.781233,12.73313996435547,11.853682Q12.747550964355469,11.9261315,12.747550964355469,12L12.747550964355469,20Q12.747550964355469,20.07387,12.73313996435547,20.14632Q12.718728964355469,20.21877,12.690460964355468,20.287010000000002Q12.662191964355468,20.35526,12.621152964355469,20.41668Q12.58011396435547,20.478099999999998,12.527880964355468,20.53033Q12.475647964355469,20.58256,12.414228964355468,20.6236Q12.352808964355468,20.66464,12.284563964355469,20.692909999999998Q12.216317964355468,20.72118,12.14386896435547,20.735590000000002Q12.071419464355468,20.75,11.997550964355469,20.75Q11.923682464355469,20.75,11.851232964355468,20.735590000000002Q11.778783964355469,20.72118,11.710537964355469,20.692909999999998Q11.64229296435547,20.66464,11.58087296435547,20.6236Q11.519453964355469,20.58256,11.46722096435547,20.53033Q11.414987964355468,20.478099999999998,11.373948964355469,20.41668Q11.33290996435547,20.35526,11.30464096435547,20.287010000000002Q11.276372964355469,20.21877,11.261961964355468,20.14632Q11.247550964355469,20.07387,11.247550964355469,20L11.247550964355469,12Z" fill-rule="evenodd" fill="#8D4EDA" fill-opacity="1" style="mix-blend-mode:passthrough"/></g><g><path d="M19.06558,14.966577000000001L15.499880000000001,18.532155L14.601099999999999,17.633375Q13.86887,16.901145,12.83333,16.901145Q11.7978,16.901145,11.065566,17.633375L10.792893,17.906045C10.4023689,18.296575,10.4023689,18.929735,10.792893,19.320265L13.4596,21.986964999999998C13.4596,21.986964999999998,13.4707,21.997905,13.4707,21.997905L13.73221,22.259425Q14.46443,22.991695,15.49999,22.991715Q16.53555,22.991735,17.2678,22.259484999999998L22.8738,16.653515C23.2643,16.262985,23.2643,15.629825,22.8738,15.239305L22.601100000000002,14.966609Q21.8689,14.23438429832,20.8333,14.234375Q19.79782,14.23436582088,19.06558,14.966577000000001Z" fill-rule="evenodd" fill="#FFFFFF" fill-opacity="1"/></g><g><path d="M11.5,18.612626875L14.1667,21.279336875L15.5,19.945966875L13.89399,18.339956875C13.30821,17.754170875,12.358460000000001,17.754170875,11.772673,18.339956875L11.5,18.612626875Z" fill="#DDBEF6" fill-opacity="1"/></g><g><path d="M14.1666259765625,21.27929296875L14.4393699765625,21.55206296875C15.0251509765625,22.13788296875,15.9749259765625,22.137892968750002,16.5607259765625,21.55209296875L22.1666959765625,15.94612296875L21.8940059765625,15.67343296875C21.3082259765625,15.08765596875,20.3584959765625,15.08764696875,19.7727059765625,15.67341296875L14.1666259765625,21.27929296875Z" fill="#8D4EDA" fill-opacity="1"/></g></g></svg>