<svg xmlns="http://www.w3.org/2000/svg" viewBox="0 0 18 18">
  <g id="图层_2" data-name="图层 2">
    <g id="图层_1-2" data-name="图层 1">
      <g id="IconAomMenuSJZDColor">
        <rect fill="#34c765" width="18" height="18" rx="4" />
        <path fill="#fff" d="M10.26,6.82a.39.39,0,0,1,.21.06l1,.62V4H9.07V7.5l1-.62A.43.43,0,0,1,10.26,6.82Z" />
        <path fill="#fff"
          d="M6.39,12.74a.39.39,0,0,1-.4-.4.4.4,0,0,1,.4-.4H13.5V5a1,1,0,0,0-1-1h-.25V8.24a.4.4,0,0,1-.21.35.45.45,0,0,1-.19.05.44.44,0,0,1-.22-.07l-1.37-.88-1.38.88a.38.38,0,0,1-.4,0,.4.4,0,0,1-.21-.35V4H5.5a1,1,0,0,0-1,1v8a1,1,0,0,0,1,1h7a1,1,0,0,0,1-1v-.26Z" />
      </g>
    </g>
  </g>
</svg>