<svg id="图层_1" data-name="图层 1" xmlns="http://www.w3.org/2000/svg" viewBox="0 0 18 18">
  <defs>
    <style>
      .bbbbhgdsf1 {
        fill: #3b82f6;
      }

      .bbbbhgdsf2 {
        fill: #fff;
      }
    </style>
  </defs>
  <g id="IconAomMenuGJKColor">
    <rect class="bbbbhgdsf1" width="18" height="18" rx="4" />
  </g>
  <path class="bbbbhgdsf2"
    d="M11.35,12.9a24.6,24.6,0,0,0-4.7,0,.52.52,0,1,0,.09,1,24.37,24.37,0,0,1,4.52,0h0a.52.52,0,0,0,.52-.48A.52.52,0,0,0,11.35,12.9Z" />
  <path class="bbbbhgdsf2"
    d="M14.2,5a.89.89,0,0,0-1-.89,27.63,27.63,0,0,1-8.32,0A.89.89,0,0,0,3.8,5V11.2a.89.89,0,0,0,1,.9,27.63,27.63,0,0,1,8.32,0,.89.89,0,0,0,1-.9ZM7.46,6.78H6a.42.42,0,0,1,0-.84H7.46a.42.42,0,0,1,0,.84Zm4.34,2.1-.45.2a.16.16,0,0,0-.09.09l-.2.45a1,1,0,0,1-.92.61h0A1,1,0,0,1,9.2,9.6L8.35,7.48A1,1,0,0,1,9.66,6.17L11.78,7a1,1,0,0,1,0,1.86Z" />
  <path class="bbbbhgdsf2"
    d="M11.47,7.79,9.35,6.94l-.07,0A.14.14,0,0,0,9.16,7a.16.16,0,0,0,0,.19L10,9.28a.18.18,0,0,0,.33,0l.19-.45A1.05,1.05,0,0,1,11,8.31l.45-.19a.16.16,0,0,0,.1-.17A.17.17,0,0,0,11.47,7.79Z" />
</svg>