<svg id="图层_1" data-name="图层 1" xmlns="http://www.w3.org/2000/svg" viewBox="0 0 18 18">
  <defs>
    <style>
      .ioiouy5t6-1 {
        fill: #f0953a;
      }

      .ioiouy5t6-2 {
        fill: #fff;
      }
    </style>
  </defs>
  <g id="IconAomMenuMJRWColor">
    <rect class="ioiouy5t6-1" width="18" height="18" rx="4" />
  </g>
  <path class="ioiouy5t6-2"
    d="M14,6.69V6.12a1,1,0,0,0-1-1H11.51V4.61a.5.5,0,0,0-.5-.5.5.5,0,0,0-.5.5v.51h-3V4.61a.5.5,0,0,0-.5-.5.5.5,0,0,0-.5.5v.51H5a1,1,0,0,0-1,1v.57Z" />
  <path class="ioiouy5t6-2"
    d="M4,7.48v5.41a1,1,0,0,0,1,1h8a1,1,0,0,0,1-1V7.48Zm7.73,5.19a.59.59,0,0,1-.44-.2H8.13a1.1,1.1,0,0,1,0-2.19H10a.29.29,0,0,0,0-.58H6.71a.59.59,0,0,1-.44.2.6.6,0,1,1,0-1.2.59.59,0,0,1,.44.2H10a1.09,1.09,0,1,1,0,2.18H8.13a.3.3,0,0,0,0,.59h3.16a.59.59,0,0,1,.44-.2.6.6,0,0,1,0,1.2Z" />
</svg>