<svg xmlns="http://www.w3.org/2000/svg" xmlns:xlink="http://www.w3.org/1999/xlink" fill="none" version="1.1" width="24" height="24" viewBox="0 0 24 24"><defs><clipPath id="master_svg0_644_33052"><rect x="0" y="0" width="24" height="24" rx="0"/></clipPath></defs><g clip-path="url(#master_svg0_644_33052)"><g><rect x="2" y="3" width="20" height="15" rx="2" fill="#00B42A" fill-opacity="1"/><path d="M1,16L1,5Q1,2,4,2L20,2Q23,2,23,5L23,16Q23,19,20,19L4,19Q1,19,1,16ZM3,16Q3,17,4,17L20,17Q21,17,21,16L21,5Q21,4,20,4L4,4Q3,4,3,5L3,16Z" fill="#00B42A" fill-opacity="1"/></g><g><path d="M5,20.5L19,20.5Q19.0985,20.5,19.1951,20.519215Q19.2917,20.538429999999998,19.3827,20.576121Q19.4737,20.613812,19.5556,20.66853Q19.6375,20.723249,19.7071,20.792893Q19.776699999999998,20.862537,19.8315,20.94443Q19.886200000000002,21.026322,19.9239,21.117317Q19.9616,21.208311,19.980800000000002,21.30491Q20,21.4015086,20,21.5Q20,21.5984914,19.980800000000002,21.69509Q19.9616,21.791689,19.9239,21.882683Q19.886200000000002,21.973678,19.8315,22.05557Q19.776699999999998,22.137463,19.7071,22.207107Q19.6375,22.276751,19.5556,22.33147Q19.4737,22.386188,19.3827,22.423879Q19.2917,22.461570000000002,19.1951,22.480785Q19.0985,22.5,19,22.5L5,22.5Q4.9015086,22.5,4.80491,22.480785Q4.708311,22.461570000000002,4.617317,22.423879Q4.526322,22.386188,4.44443,22.33147Q4.362537,22.276751,4.292893,22.207107Q4.223249,22.137463,4.16853,22.05557Q4.113812,21.973678,4.076121,21.882683Q4.03843,21.791689,4.019215,21.69509Q4,21.5984914,4,21.5Q4,21.4015086,4.019215,21.30491Q4.03843,21.208311,4.076121,21.117317Q4.113812,21.026322,4.16853,20.94443Q4.223249,20.862537,4.292893,20.792893Q4.362537,20.723249,4.44443,20.66853Q4.526322,20.613812,4.617317,20.576121Q4.708311,20.538429999999998,4.80491,20.519215Q4.9015086,20.5,5,20.5Z" fill-rule="evenodd" fill="#4CD263" fill-opacity="1"/></g><g style="opacity:0.800000011920929;"><path d="M9.600067138671875,9.75L14.399967138671876,9.75Q14.473827138671876,9.75,14.546277138671876,9.764410999999999Q14.618727138671876,9.778822,14.686977138671875,9.80709Q14.755217138671874,9.835359,14.816637138671876,9.876398Q14.878057138671874,9.917437,14.930297138671875,9.96967Q14.982527138671875,10.021903,15.023567138671876,10.083322Q15.064607138671875,10.144742,15.092867138671874,10.212987Q15.121137138671875,10.281233,15.135547138671875,10.353682Q15.149967138671876,10.4261315,15.149967138671876,10.5Q15.149967138671876,10.5738685,15.135547138671875,10.646318Q15.121137138671875,10.718767,15.092867138671874,10.787013Q15.064607138671875,10.855258,15.023567138671876,10.916678Q14.982527138671875,10.978097,14.930297138671875,11.03033Q14.878057138671874,11.082563,14.816637138671876,11.123602Q14.755217138671874,11.164641,14.686977138671875,11.19291Q14.618727138671876,11.221178,14.546277138671876,11.235589000000001Q14.473827138671876,11.25,14.399967138671876,11.25L9.600067138671875,11.25Q9.526198638671875,11.25,9.453749138671874,11.235589000000001Q9.381300138671875,11.221178,9.313054138671875,11.19291Q9.244809138671876,11.164641,9.183389138671876,11.123602Q9.121970138671875,11.082563,9.069737138671876,11.03033Q9.017504138671875,10.978097,8.976465138671875,10.916678Q8.935426138671875,10.855258,8.907157138671876,10.787013Q8.878889138671875,10.718767,8.864478138671874,10.646318Q8.850067138671875,10.5738685,8.850067138671875,10.5Q8.850067138671875,10.4261315,8.864478138671874,10.353682Q8.878889138671875,10.281233,8.907157138671876,10.212987Q8.935426138671875,10.144742,8.976465138671875,10.083322Q9.017504138671875,10.021903,9.069737138671876,9.96967Q9.121970138671875,9.917437,9.183389138671876,9.876398Q9.244809138671876,9.835359,9.313054138671875,9.80709Q9.381300138671875,9.778822,9.453749138671874,9.764410999999999Q9.526198638671875,9.75,9.600067138671875,9.75Z" fill-rule="evenodd" fill="#E8FFEA" fill-opacity="1"/></g><g style="opacity:0.800000011920929;"><path d="M12.585667138671875,6.769058109375Q12.665457138671876,6.669320109375,12.707737138671876,6.548792109375Q12.750017138671875,6.428265109375,12.750017138671875,6.300537109375Q12.750017138671875,6.226668609375,12.735607138671876,6.154219109375Q12.721197138671876,6.081770109375,12.692927138671875,6.013524109375Q12.664657138671874,5.945279109375,12.623617138671875,5.883859109375Q12.582577138671875,5.822440109375,12.530347138671875,5.770207109375Q12.478107138671875,5.717974109375,12.416697138671875,5.676935109375Q12.355277138671875,5.635896109375,12.287027138671874,5.607627109375Q12.218777138671875,5.579359109375,12.146337138671875,5.564948109375Q12.073887138671875,5.550537109375,12.000017138671875,5.550537109375Q11.915657138671875,5.550537109375,11.833407138671875,5.569277109375Q11.751157138671875,5.588016109375,11.675127138671876,5.624560109375Q11.599087138671875,5.661103109375,11.533077138671874,5.713623109375Q11.467057138671874,5.766143109375,11.414367138671874,5.832016109375L11.414207138671875,5.832213109375L9.014415138671875,8.831947109375001Q8.934624138671875,8.931687109375,8.892346138671876,9.052217109375Q8.850067138671875,9.172747109374999,8.850067138671875,9.300467109374999Q8.850067138671875,9.374337109375,8.864478138671874,9.446787109375Q8.878889138671875,9.519237109375,8.907157138671876,9.587487109375001Q8.935426138671875,9.655727109375,8.976465138671875,9.717147109375Q9.017504138671875,9.778567109375,9.069737138671876,9.830797109375Q9.121970138671875,9.883037109375,9.183389138671876,9.924077109375Q9.244809138671876,9.965117109375,9.313054138671875,9.993377109375Q9.381300138671875,10.021647109375,9.453749138671874,10.036057109375001Q9.526198638671875,10.050467109374999,9.600067138671875,10.050467109374999Q9.684425438671875,10.050467109374999,9.766676138671874,10.031727109375Q9.848926138671874,10.012997109375,9.924959138671875,9.976447109375Q10.000991138671875,9.939907109375,10.067006138671875,9.887387109375Q10.133020138671874,9.834867109375,10.185719138671875,9.768997109375L10.185935138671875,9.768727109375L12.585667138671875,6.769058109375Z" fill-rule="evenodd" fill="#E8FFEA" fill-opacity="1"/></g><g style="opacity:0.800000011920929;"><path d="M15.58593662109375,11.56865865625Q15.66573662109375,11.46891465625,15.708026621093751,11.34837665625Q15.75031662109375,11.22783865625,15.75031662109375,11.10009765625Q15.75031662109375,11.02622915625,15.73590662109375,10.95377965625Q15.721496621093749,10.88133065625,15.69322662109375,10.81308465625Q15.66495662109375,10.74483965625,15.62391662109375,10.68341965625Q15.58287662109375,10.62200065625,15.53064662109375,10.56976765625Q15.47841662109375,10.51753465625,15.41699662109375,10.47649565625Q15.35557662109375,10.43545665625,15.28732662109375,10.40718765625Q15.21908662109375,10.37891965625,15.14663662109375,10.364508656249999Q15.07418662109375,10.35009765625,15.00031662109375,10.35009765625Q14.91596662109375,10.35009765625,14.83371662109375,10.36883465625Q14.751476621093751,10.38757165625,14.67544662109375,10.42410965625Q14.59941662109375,10.46064765625,14.53340662109375,10.51315965625Q14.46739662109375,10.56567265625,14.41469662109375,10.63153665625L14.41464662109375,10.63159565625L12.01468662109375,13.63113765625L12.01441662109375,13.631467656249999Q11.93461062109375,13.73121765625,11.89232362109375,13.851757656250001Q11.85003662109375,13.97228765625,11.85003662109375,14.100027656249999Q11.85003662109375,14.17389765625,11.864447621093749,14.24634765625Q11.87885862109375,14.31879765625,11.90712662109375,14.387047656250001Q11.93539562109375,14.45528765625,11.97643462109375,14.51670765625Q12.01747362109375,14.57812765625,12.06970662109375,14.63035765625Q12.12193962109375,14.68259765625,12.18335862109375,14.72363765625Q12.24477862109375,14.76467765625,12.31302362109375,14.79293765625Q12.38126962109375,14.82120765625,12.45371862109375,14.835617656250001Q12.52616812109375,14.850027656249999,12.60003662109375,14.850027656249999Q12.68438852109375,14.850027656249999,12.76663262109375,14.83129765625Q12.84887762109375,14.81255765625,12.92490562109375,14.77601765625Q13.00093362109375,14.73948765625,13.06694562109375,14.68696765625Q13.13295762109375,14.63445765625,13.18565662109375,14.56859765625L15.58559662109375,11.56907465625L15.58593662109375,11.56865865625L15.58593662109375,11.56865865625Z" fill-rule="evenodd" fill="#E8FFEA" fill-opacity="1"/></g><g><ellipse cx="11.4000244140625" cy="15.300048828125" rx="2" ry="2" fill="#FFFFFF" fill-opacity="1"/></g><g><ellipse cx="12.5999755859375" cy="5.699951171875" rx="2" ry="2" fill="#FFFFFF" fill-opacity="1"/></g><g><ellipse cx="15.59991455078125" cy="10.50048828125" rx="2" ry="2" fill="#FFFFFF" fill-opacity="1"/></g><g><ellipse cx="8.40008544921875" cy="10.50048828125" rx="2" ry="2" fill="#FFFFFF" fill-opacity="1"/></g></g></svg>