<svg id="图层_1" data-name="图层 1" xmlns="http://www.w3.org/2000/svg" viewBox="0 0 18 18">
  <defs>
    <style>
      .chyu83gnkjsac-1 {
        fill: #854bfa;
      }

      .chyu83gnkjsac-2 {
        fill: #fff;
      }
    </style>
  </defs>
  <g id="IconAomMenuGJKColor">
    <rect class="chyu83gnkjsac-1" width="18" height="18" rx="4" />
  </g>
  <path class="chyu83gnkjsac-2"
    d="M12.68,5.32a5.2,5.2,0,1,0,0,7.36A5.21,5.21,0,0,0,12.68,5.32Zm-6,6.55a.42.42,0,0,1-.29.12.42.42,0,0,1-.3-.12,4.06,4.06,0,0,1,0-5.74.42.42,0,0,1,.59.59,3.24,3.24,0,0,0,0,4.56A.42.42,0,0,1,6.72,11.87ZM10.1,10.1a1.56,1.56,0,1,1,0-2.2A1.55,1.55,0,0,1,10.1,10.1Zm1.77,1.77a.42.42,0,0,1-.3.12.42.42,0,0,1-.29-.12.42.42,0,0,1,0-.59,3.22,3.22,0,0,0,0-4.56.42.42,0,0,1,.59-.59A4.07,4.07,0,0,1,11.87,11.87Z" />
</svg>