<svg xmlns="http://www.w3.org/2000/svg" xmlns:xlink="http://www.w3.org/1999/xlink" fill="none" version="1.1" width="24" height="24" viewBox="0 0 24 24"><defs><clipPath id="master_svg0_1343_37028"><rect x="0" y="0" width="24" height="24" rx="0"/></clipPath></defs><g clip-path="url(#master_svg0_1343_37028)"><g><rect x="1.5" y="12.5" width="21" height="7" rx="1.5" fill="#DDBEF6" fill-opacity="1"/></g><g><path d="M12.000004523925782,9C11.840004523925781,9,11.68950452392578,8.9235,11.595504523925781,8.794L7.595500423925781,3.294C7.433000523925781,3.0705,7.482500523925781,2.758,7.706000523925781,2.5955C7.791500523925781,2.5335,7.894500523925782,2.5,8.000000523925781,2.5L16.00000452392578,2.5C16.27599452392578,2.5,16.50000452392578,2.724,16.50000452392578,3C16.50000452392578,3.1055,16.466494523925782,3.2085,16.40449452392578,3.294L12.40450452392578,8.794C12.31050452392578,8.9235,12.160004523925782,9,12.000004523925782,9Z" fill="#8D4EDA" fill-opacity="1" style="mix-blend-mode:passthrough"/></g><g><path d="M12.002445220947266,13.5L3.5024452209472656,13.5C2.9501602209472657,13.5,2.5024452209472656,13.947715,2.5024452209472656,14.5L2.5024452209472656,17.5C2.5024452209472656,18.05228,2.9501602209472657,18.5,3.5024452209472656,18.5L12.002445220947266,18.5L12.002445220947266,13.5Z" fill="#8D4EDA" fill-opacity="1" style="mix-blend-mode:passthrough"/></g><g><path d="M11.247550964355469,12Q11.247550964355469,11.9261315,11.261961964355468,11.853682Q11.276372964355469,11.781233,11.30464096435547,11.712987Q11.33290996435547,11.644742,11.373948964355469,11.583322Q11.414987964355468,11.521903,11.46722096435547,11.46967Q11.519453964355469,11.417437,11.58087296435547,11.376398Q11.64229296435547,11.335359,11.710537964355469,11.30709Q11.778783964355469,11.278822,11.851232964355468,11.264410999999999Q11.923682464355469,11.25,11.997550964355469,11.25Q12.071419464355468,11.25,12.14386896435547,11.264410999999999Q12.216317964355468,11.278822,12.284563964355469,11.30709Q12.352808964355468,11.335359,12.414228964355468,11.376398Q12.475647964355469,11.417437,12.527880964355468,11.46967Q12.58011396435547,11.521903,12.621152964355469,11.583322Q12.662191964355468,11.644742,12.690460964355468,11.712987Q12.718728964355469,11.781233,12.73313996435547,11.853682Q12.747550964355469,11.9261315,12.747550964355469,12L12.747550964355469,20Q12.747550964355469,20.07387,12.73313996435547,20.14632Q12.718728964355469,20.21877,12.690460964355468,20.287010000000002Q12.662191964355468,20.35526,12.621152964355469,20.41668Q12.58011396435547,20.478099999999998,12.527880964355468,20.53033Q12.475647964355469,20.58256,12.414228964355468,20.6236Q12.352808964355468,20.66464,12.284563964355469,20.692909999999998Q12.216317964355468,20.72118,12.14386896435547,20.735590000000002Q12.071419464355468,20.75,11.997550964355469,20.75Q11.923682464355469,20.75,11.851232964355468,20.735590000000002Q11.778783964355469,20.72118,11.710537964355469,20.692909999999998Q11.64229296435547,20.66464,11.58087296435547,20.6236Q11.519453964355469,20.58256,11.46722096435547,20.53033Q11.414987964355468,20.478099999999998,11.373948964355469,20.41668Q11.33290996435547,20.35526,11.30464096435547,20.287010000000002Q11.276372964355469,20.21877,11.261961964355468,20.14632Q11.247550964355469,20.07387,11.247550964355469,20L11.247550964355469,12Z" fill-rule="evenodd" fill="#8D4EDA" fill-opacity="1" style="mix-blend-mode:passthrough"/></g><g><g><path d="M17.272577749023437,14.917778C17.312577749023436,14.676889,17.521467749023437,14.5,17.765917749023437,14.5L18.918357749023436,14.5C19.162797749023436,14.5,19.371687749023437,14.676889,19.411687749023436,14.917778L19.506357749023437,15.487111C19.53435774902344,15.65333,19.64546774902344,15.792,19.793027749023437,15.87378C19.82591774902344,15.89156,19.858357749023437,15.91067,19.890797749023438,15.93022C20.035247749023437,16.01733,20.21079774902344,16.04444,20.368577749023437,15.98533L20.909467749023438,15.78267C21.138377749023437,15.69658,21.395967749023438,15.78871,21.518357749023437,16.00044L22.094357749023438,16.99911C22.216477749023436,17.21086,22.16760774902344,17.47986,21.978797749023435,17.63511L21.53302774902344,18.002670000000002C21.402807749023438,18.10978,21.338357749023437,18.27511,21.341917749023438,18.44356C21.342537749023435,18.48133,21.342537749023435,18.51911,21.341917749023438,18.55689C21.338357749023437,18.724890000000002,21.40279774902344,18.89022,21.53302774902344,18.997329999999998L21.979247749023436,19.36489C22.167687749023436,19.52044,22.216577749023436,19.78933,22.09479774902344,20.00044L21.51791774902344,20.99911C21.395697749023437,21.21079,21.138357749023438,21.30309,20.909467749023438,21.21733L20.368577749023437,21.01467C20.21079774902344,20.95556,20.035247749023437,20.98267,19.890357749023437,21.06978C19.858137749023438,21.08938,19.82553774902344,21.10835,19.792577749023437,21.12667C19.64546774902344,21.208,19.53435774902344,21.34667,19.506357749023437,21.51289L19.411687749023436,22.08222C19.371687749023437,22.32356,19.162797749023436,22.5,18.918357749023436,22.5L17.765467749023436,22.5C17.52102774902344,22.5,17.312577749023436,22.32311,17.272137749023436,22.08222L17.17746774902344,21.51289C17.149917749023437,21.34667,17.038797749023438,21.208,16.89124774902344,21.12622C16.858287749023436,21.10804,16.825687749023437,21.08922,16.79346774902344,21.06978C16.64902774902344,20.98267,16.47346774902344,20.95555,16.315247749023438,21.01467L15.774357749023437,21.21733C15.545577749023437,21.30317,15.288265749023438,21.21107,15.165912749023438,20.99955L14.589468749023437,20.00089C14.467346549023437,19.78914,14.516221679023438,19.520139999999998,14.705024749023437,19.36489L15.151246749023437,18.997329999999998C15.281024749023437,18.89067,15.345468749023437,18.724890000000002,15.342357749023437,18.55689C15.341662749023438,18.51911,15.341662749023438,18.48133,15.342357749023437,18.443550000000002C15.345468749023437,18.27467,15.281024749023437,18.10978,15.151246749023437,18.002670000000002L14.705024749023437,17.63511C14.516458619023437,17.47991,14.467601849023438,17.211199999999998,14.589468749023437,16.99955L15.165912749023438,16.00089C15.288160749023437,15.78899,15.545787749023438,15.69666,15.774797749023438,15.78267L16.315247749023438,15.98533C16.47346774902344,16.04444,16.64902774902344,16.01733,16.79346774902344,15.93022C16.82546774902344,15.91067,16.858357749023437,15.892,16.89124774902344,15.87333C17.038797749023438,15.792,17.149917749023437,15.65333,17.17746774902344,15.48711L17.272577749023437,14.917778L17.272577749023437,14.917778Z" fill="#8D4EDA" fill-opacity="1"/><path d="M16.28624774902344,14.753004L16.286087749023437,14.75397L16.26212774902344,14.897411L16.126387749023436,14.84651Q15.611097749023438,14.652986,15.092937749023438,14.838691Q14.574778349023438,15.024397,14.299836749023438,15.50098L13.722867749023438,16.50055Q13.448667749023437,16.97675,13.546964749023438,17.51738Q13.645261749023437,18.05802,14.069235749023438,18.40697L14.182171749023437,18.5L14.069881749023438,18.592489999999998Q13.671625749023438,18.91998,13.560322749023438,19.41605Q13.552902749023438,19.44912,13.546757749023438,19.48294Q13.448437749023437,20.02406,13.723391749023438,20.500799999999998L14.300301749023438,21.50027Q14.575594949023438,21.97618,15.093233749023437,22.161459999999998Q15.610877749023437,22.34673,16.125227749023438,22.15376L16.261797749023437,22.10259L16.28593774902344,22.247799999999998Q16.365497749023437,22.72167,16.696207749023436,23.052709999999998Q16.74344774902344,23.1,16.79581774902344,23.144370000000002Q17.189267749023436,23.47777,17.697227749023437,23.49861Q17.731107749023437,23.5,17.765467749023436,23.5L18.918357749023436,23.5Q19.46810774902344,23.5,19.88765774902344,23.14498Q20.281877749023437,22.81138,20.385607749023436,22.313380000000002Q20.392527749023436,22.28017,20.398147749023437,22.24625L20.42203774902344,22.10259L20.558617749023437,22.15376Q21.041437749023437,22.33466,21.526597749023438,22.18278Q21.558937749023436,22.17266,21.59129774902344,22.16105Q22.10897774902344,21.97538,22.383817749023436,21.49931L22.961017749023437,20.50011Q23.23561774902344,20.024079999999998,23.137227749023438,19.48295Q23.039067749023438,18.94305,22.615037749023436,18.59302L22.501937749023437,18.499859999999998L22.61394774902344,18.4075Q23.012197749023436,18.08002,23.12350774902344,17.58395Q23.130927749023435,17.55088,23.137067749023437,17.51706Q23.235387749023438,16.975929999999998,22.960597749023435,16.49949L22.38412774902344,15.5Q22.108747749023436,15.023599,21.590627749023437,14.838286Q21.072507749023437,14.652972,20.558597749023438,14.846243L20.42203774902344,14.897412L20.398187749023435,14.75397Q20.319317749023437,14.279044,19.98780774902344,13.94729Q19.940447749023438,13.899898,19.887937749023436,13.855426Q19.468227749023438,13.5,18.918357749023436,13.5L17.765917749023437,13.5Q17.21604774902344,13.5,16.796337749023436,13.855426Q16.376587749023436,14.210881,16.28624774902344,14.753004ZM17.765917749023437,14.5C17.521467749023437,14.5,17.312577749023436,14.676889,17.272577749023437,14.917778L17.17746774902344,15.48711C17.149917749023437,15.65333,17.038797749023438,15.792,16.89124774902344,15.87333C16.858357749023437,15.892,16.82546774902344,15.91067,16.79346774902344,15.93022C16.64902774902344,16.01733,16.47346774902344,16.04444,16.315247749023438,15.98533L15.774797749023438,15.78267C15.545787749023438,15.69666,15.288160749023437,15.78899,15.165912749023438,16.00089L14.589468749023437,16.99955C14.467601849023438,17.211199999999998,14.516458619023437,17.47991,14.705024749023437,17.63511L15.151246749023437,18.002670000000002C15.281024749023437,18.10978,15.345468749023437,18.27467,15.342357749023437,18.443550000000002C15.341662749023438,18.48133,15.341662749023438,18.51911,15.342357749023437,18.55689C15.345468749023437,18.724890000000002,15.281024749023437,18.89067,15.151246749023437,18.997329999999998L14.705024749023437,19.36489C14.516221679023438,19.520139999999998,14.467346549023437,19.78914,14.589468749023437,20.00089L15.165912749023438,20.99955C15.288265749023438,21.21107,15.545577749023437,21.30317,15.774357749023437,21.21733L16.315247749023438,21.01467C16.47346774902344,20.95555,16.64902774902344,20.98267,16.79346774902344,21.06978C16.825687749023437,21.08922,16.858287749023436,21.10804,16.89124774902344,21.12622C17.038797749023438,21.208,17.149917749023437,21.34667,17.17746774902344,21.51289L17.272137749023436,22.08222C17.312577749023436,22.32311,17.52102774902344,22.5,17.765467749023436,22.5L18.918357749023436,22.5C19.162797749023436,22.5,19.371687749023437,22.32356,19.411687749023436,22.08222L19.506357749023437,21.51289C19.53435774902344,21.34667,19.64546774902344,21.208,19.792577749023437,21.12667C19.82553774902344,21.10835,19.858137749023438,21.08938,19.890357749023437,21.06978C20.035247749023437,20.98267,20.21079774902344,20.95556,20.368577749023437,21.01467L20.909467749023438,21.21733C21.138357749023438,21.30309,21.395697749023437,21.21079,21.51791774902344,20.99911L22.09479774902344,20.00044C22.216577749023436,19.78933,22.167687749023436,19.52044,21.979247749023436,19.36489L21.53302774902344,18.997329999999998C21.40279774902344,18.89022,21.338357749023437,18.724890000000002,21.341917749023438,18.55689C21.342537749023435,18.51911,21.342537749023435,18.48133,21.341917749023438,18.44356C21.338357749023437,18.27511,21.402807749023438,18.10978,21.53302774902344,18.002670000000002L21.978797749023435,17.63511C22.16760774902344,17.47986,22.216477749023436,17.21086,22.094357749023438,16.99911L21.518357749023437,16.00044C21.395967749023438,15.78871,21.138377749023437,15.69658,20.909467749023438,15.78267L20.368577749023437,15.98533C20.21079774902344,16.04444,20.035247749023437,16.01733,19.890797749023438,15.93022C19.858357749023437,15.91067,19.82591774902344,15.89156,19.793027749023437,15.87378C19.64546774902344,15.792,19.53435774902344,15.65333,19.506357749023437,15.487111L19.411687749023436,14.917778C19.371687749023437,14.676889,19.162797749023436,14.5,18.918357749023436,14.5L17.765917749023437,14.5Z" fill-rule="evenodd" fill="#FFFFFF" fill-opacity="1"/></g><g><path d="M19.675243293685913,18.500182712631226Q19.675243293685913,18.565692712631225,19.668823293685914,18.630872712631227Q19.662403293685912,18.696062712631225,19.649623293685913,18.760302712631226Q19.636843293685914,18.824552712631224,19.617823293685912,18.887232712631224Q19.598813293685915,18.949912712631225,19.573743293685915,19.010432712631225Q19.54868329368591,19.070942712631226,19.517803293685912,19.128712712631227Q19.486923293685912,19.186482712631225,19.450533293685915,19.240942712631224Q19.414143293685914,19.295412712631226,19.372583293685913,19.346042712631224Q19.331033293685913,19.396682712631225,19.28471329368591,19.442992712631224Q19.238403293685913,19.489312712631225,19.18776329368591,19.530862712631226Q19.137133293685913,19.572422712631226,19.08266329368591,19.608812712631227Q19.028203293685912,19.645202712631225,18.970433293685915,19.676082712631224Q18.912663293685913,19.706962712631224,18.852153293685912,19.732022712631228Q18.791633293685912,19.757092712631227,18.72895329368591,19.776102712631225Q18.66627329368591,19.795122712631226,18.602023293685914,19.807902712631225Q18.537783293685912,19.820682712631225,18.472593293685915,19.827102712631227Q18.407413293685913,19.833522712631225,18.341903293685913,19.833522712631225Q18.276403293685913,19.833522712631225,18.211213293685912,19.827102712631227Q18.146033293685914,19.820682712631225,18.081783293685913,19.807902712631225Q18.017543293685915,19.795122712631226,17.954860293685915,19.776102712631225Q17.892178293685912,19.757092712631227,17.831662293685913,19.732022712631228Q17.771145293685912,19.706962712631224,17.713377293685912,19.676082712631224Q17.655609293685913,19.645202712631225,17.601146293685915,19.608812712631227Q17.546683293685913,19.572422712631226,17.496049293685914,19.530862712631226Q17.44541529368591,19.489312712631225,17.399097293685912,19.442992712631224Q17.352780293685914,19.396682712631225,17.311226293685912,19.346042712631224Q17.269671293685914,19.295412712631226,17.23328029368591,19.240942712631224Q17.196889293685913,19.186482712631225,17.166011293685912,19.128712712631227Q17.135134293685912,19.070942712631226,17.110067293685912,19.010432712631225Q17.085000593685912,18.949912712631225,17.065986193685912,18.887232712631224Q17.046971793685913,18.824552712631224,17.034192893685912,18.760302712631226Q17.021413993685915,18.696062712631225,17.014993653685913,18.630872712631227Q17.008573293685913,18.565692712631225,17.008573293685913,18.500182712631226Q17.008573293685913,18.434682712631226,17.014993653685913,18.369492712631224Q17.021413993685915,18.304312712631226,17.034192893685912,18.240062712631225Q17.046971793685913,18.175822712631227,17.065986193685912,18.113139712631227Q17.085000593685912,18.050457712631225,17.110067293685912,17.989941712631225Q17.135134293685912,17.929424712631224,17.166011293685912,17.871656712631225Q17.196889293685913,17.813888712631226,17.23328029368591,17.759425712631227Q17.269671293685914,17.704962712631225,17.311226293685912,17.654328712631226Q17.352780293685914,17.603694712631224,17.399097293685912,17.557376712631225Q17.44541529368591,17.511059712631226,17.496049293685914,17.469505712631225Q17.546683293685913,17.427950712631226,17.601146293685915,17.391559712631224Q17.655609293685913,17.355168712631226,17.713377293685912,17.324290712631225Q17.771145293685912,17.293413712631224,17.831662293685913,17.268346712631224Q17.892178293685912,17.243280012631224,17.954860293685915,17.224265612631225Q18.017543293685915,17.205251212631225,18.081783293685913,17.192472312631224Q18.146033293685914,17.179693412631227,18.211213293685912,17.173273072631225Q18.276403293685913,17.166852712631226,18.341903293685913,17.166852712631226Q18.407413293685913,17.166852712631226,18.472593293685915,17.173273072631225Q18.537783293685912,17.179693412631227,18.602023293685914,17.192472312631224Q18.66627329368591,17.205251212631225,18.72895329368591,17.224265612631225Q18.791633293685912,17.243280012631224,18.852153293685912,17.268346712631224Q18.912663293685913,17.293413712631224,18.970433293685915,17.324290712631225Q19.028203293685912,17.355168712631226,19.08266329368591,17.391559712631224Q19.137133293685913,17.427950712631226,19.18776329368591,17.469505712631225Q19.238403293685913,17.511059712631226,19.28471329368591,17.557376712631225Q19.331033293685913,17.603694712631224,19.372583293685913,17.654328712631226Q19.414143293685914,17.704962712631225,19.450533293685915,17.759425712631227Q19.486923293685912,17.813888712631226,19.517803293685912,17.871656712631225Q19.54868329368591,17.929424712631224,19.573743293685915,17.989941712631225Q19.598813293685915,18.050457712631225,19.617823293685912,18.113139712631227Q19.636843293685914,18.175822712631227,19.649623293685913,18.240062712631225Q19.662403293685912,18.304312712631226,19.668823293685914,18.369492712631224Q19.675243293685913,18.434682712631226,19.675243293685913,18.500182712631226Z" fill="#FFFFFF" fill-opacity="1"/></g></g></g></svg>