<svg id="图层_1" data-name="图层 1" xmlns="http://www.w3.org/2000/svg" viewBox="0 0 18 18">
  <defs>
    <style>
      .nbiucs1 {
        fill: #854bfa;
      }

      .nbiucs2 {
        fill: #fff;
      }
    </style>
  </defs>
  <g id="IconAomMenuCSGLColor">
    <rect class="nbiucs1" width="18" height="18" rx="4" />
  </g>
  <path class="nbiucs2"
    d="M12.57,4H6.09a1,1,0,0,0-1,1v.86H4.93a.5.5,0,0,0-.5.5.5.5,0,0,0,.5.5h.16V8.5H4.93a.5.5,0,0,0,0,1h.16v1.64H4.93a.5.5,0,0,0-.5.5.5.5,0,0,0,.5.5h.16V13a1,1,0,0,0,1,1h6.48a1,1,0,0,0,1-1V5A1,1,0,0,0,12.57,4ZM7,12.5a.5.5,0,0,1-.5.5.5.5,0,0,1-.5-.5v-.36h.19a.5.5,0,0,0,.5-.5.5.5,0,0,0-.5-.5H6V9.5h.19a.5.5,0,0,0,0-1H6V6.86h.19a.5.5,0,0,0,.5-.5.5.5,0,0,0-.5-.5H6V5.5a.5.5,0,0,1,.5-.5.5.5,0,0,1,.5.5Z" />
</svg>