<svg id="图层_1" data-name="图层 1" xmlns="http://www.w3.org/2000/svg" viewBox="0 0 18 18">
  <defs>
    <style>
      .bvchujdgw31 {
        fill: #fff;
      }

      .bvchujdgw32 {
        fill: #30b0f0;
      }
    </style>
  </defs>
  <polygon class="bvchujdgw31" points="9 14.43 9 14.43 9 14.43 9 14.43" />
  <polygon class="bvchujdgw31" points="4.26 6.22 4.26 6.22 4.26 6.22 4.26 6.22" />
  <g id="IconAomMenuGJKColor">
    <rect class="bvchujdgw32" width="18" height="18" rx="4" />
  </g>
  <path class="bvchujdgw31"
    d="M8.29,9.34,5,7.44A.63.63,0,0,0,4.07,8v3.8a.63.63,0,0,0,.31.54l3.29,1.9a.63.63,0,0,0,.94-.54V9.88A.62.62,0,0,0,8.29,9.34Z" />
  <path class="bvchujdgw31"
    d="M9.39,9.88v3.8a.63.63,0,0,0,.94.54l3.29-1.9a.63.63,0,0,0,.31-.54V8A.63.63,0,0,0,13,7.44L9.71,9.34A.62.62,0,0,0,9.39,9.88Z" />
  <path class="bvchujdgw31"
    d="M9.31,8.66l3.29-1.9a.63.63,0,0,0,0-1.08L9.31,3.78a.62.62,0,0,0-.62,0L5.4,5.68a.63.63,0,0,0,0,1.08l3.29,1.9A.62.62,0,0,0,9.31,8.66Z" />
</svg>