<svg id="图层_1" data-name="图层 1" xmlns="http://www.w3.org/2000/svg" viewBox="0 0 18 18">
  <defs>
    <style>
      .cssacj451 {
        fill: #fff;
      }

      .cssacj452 {
        fill: #3b82f6;
      }
    </style>
  </defs>
  <polygon class="cssacj451" points="9 14.43 9 14.43 9 14.43 9 14.43" />
  <polygon class="cssacj451" points="9 9 9 9 9 9 9 9" />
  <g id="IconAomMenuGJKColor">
    <rect class="cssacj452" width="18" height="18" rx="4" />
  </g>
  <path class="cssacj451"
    d="M13.62,6.21H12.41l-.23-.86A1.88,1.88,0,0,0,10.44,3.8H7.5A2,2,0,0,0,5.76,5.41l-.17.8H4.38a.58.58,0,1,0,0,1.15H5l.47,5.81a1.13,1.13,0,0,0,1.15,1h4.8a1.18,1.18,0,0,0,1.15-1L13,7.36h.58a.58.58,0,1,0,0-1.15ZM7.09,5.75c.12-.34.29-.51.47-.51H10.5c.18,0,.35.17.46.51l.06.41H7Zm-.73,5.36a.62.62,0,0,1-.06-.17.3.3,0,0,1,0-.15l.32-.54-.29-.18,1-.22.44,1.08-.29-.17-.43.67a1,1,0,0,0-.14.44.76.76,0,0,0,.06.39Zm1,1.36a.3.3,0,0,1-.13-.06.39.39,0,0,1-.14-.18.89.89,0,0,1,0-.46.88.88,0,0,1,.16-.34H8.57v1Zm.94-2.93L7.4,9,8,8a.62.62,0,0,1,.12-.08.5.5,0,0,1,.23,0,1,1,0,0,1,.43.19,1,1,0,0,1,.23.3ZM9,8.31A1.17,1.17,0,0,0,8.73,8a.77.77,0,0,0-.39-.14H9.7a.39.39,0,0,1,.18,0c.06,0,.12.11.11.11l.32.54.31-.16-.32,1L9.12,9.17,9.42,9Zm2,4a.7.7,0,0,1-.12.14.32.32,0,0,1-.16,0h-.63v.34l-.72-.76.74-.92v.33l.8,0a1.22,1.22,0,0,0,.46-.1.72.72,0,0,0,.32-.25Zm.62-1.19a.83.83,0,0,1-.38.27,1.08,1.08,0,0,1-.38.05l-.68-1.16.92-.52.59,1a.61.61,0,0,1,0,.15A.46.46,0,0,1,11.61,11.1Z" />
</svg>