<svg id="图层_1" data-name="图层 1" xmlns="http://www.w3.org/2000/svg" viewBox="0 0 18 18">
  <defs>
    <style>
      .bhfgduvyfd {
        fill: #34c765;
      }

      .huvyfdss {
        fill: #fff;
      }
    </style>
  </defs>
  <g id="IconAomMenuGJKGLColor">
    <rect class="bhfgduvyfd" width="18" height="18" rx="4" />
  </g>
  <path class="huvyfdss"
    d="M4.66,5.61c0-.52.12-.9.61-1a6.11,6.11,0,0,1,2.46-.39A1.8,1.8,0,0,1,9.32,5.61c.14.55.32,1.16.49,1.69a4.07,4.07,0,0,0,.25-.39A17.35,17.35,0,0,1,11.28,5a4.92,4.92,0,0,1,.86-.77,1.14,1.14,0,0,1,1.6.39,1.61,1.61,0,0,1-.13,1.94,1.58,1.58,0,0,1-1.71.65L11.41,7a.68.68,0,0,0-.74.25,4,4,0,0,0-.49.78.48.48,0,0,0,0,.39c.25,1,.49,2.07.74,3a1.25,1.25,0,0,0,1.71,1c.24-.07.62-.31.62-.12,0,.64-.13.77-.62,1a4,4,0,0,1-2.45.52,1.83,1.83,0,0,1-1.59-1.43c-.13-.51-.34-1.23-.5-1.81-.09.14-.13.2-.24.39a18.75,18.75,0,0,1-1.23,2.07,1.89,1.89,0,0,1-1,.78,1.11,1.11,0,0,1-1.47-.52,2.21,2.21,0,0,1,.12-1.94,1.56,1.56,0,0,1,1.84-.65l.37.13a.67.67,0,0,0,.74-.26c.16-.24.34-.55.49-.78s0-.25,0-.38c-.25-.91-.37-1.82-.62-2.59-.36-1.17-.85-1.56-1.84-1.17-.23.09-.61.19-.61-.13Z" />
</svg>