<svg xmlns="http://www.w3.org/2000/svg" xmlns:xlink="http://www.w3.org/1999/xlink" fill="none" version="1.1" width="24" height="24" viewBox="0 0 24 24"><defs><clipPath id="master_svg0_732_41887"><rect x="0" y="0" width="24" height="24" rx="0"/></clipPath></defs><g clip-path="url(#master_svg0_732_41887)"><g><path d="M9,3L4,3C3.447715,3,3,3.447715,3,4L3,9C3,9.552299999999999,3.447715,10,4,10L9,10C9.552299999999999,10,10,9.552299999999999,10,9L10,4C10,3.447715,9.552299999999999,3,9,3Z" fill="#165DFF" fill-opacity="1"/><path d="M11,9L11,4Q11,3.171574,10.41422,2.585791Q9.82844,2,9,2L4,2Q3.171573,2,2.585786,2.585786Q2,3.171573,2,4L2,9Q2,9.82844,2.58579,10.41422Q3.171574,11,4,11L9,11Q9.82844,11,10.41422,10.41422Q11,9.82844,11,9ZM9,9L4,9L4,4L9,4L9.00001,9.00001L9,9Z" fill-rule="evenodd" fill="#165DFF" fill-opacity="1"/></g><g><path d="M9,14L4,14C3.447715,14,3,14.4477,3,15L3,20C3,20.5523,3.447715,21,4,21L9,21C9.552299999999999,21,10,20.5523,10,20L10,15C10,14.4477,9.552299999999999,14,9,14Z" fill="#165DFF" fill-opacity="1"/><path d="M11,20L11,15Q11,14.171562,10.41422,13.585781Q9.82844,13,9,13L4,13Q3.171573,13,2.58579,13.585777Q2,14.171561,2,15L2,20Q2,20.82844,2.58579,21.41422Q3.171574,22,4,22L9,22Q9.82844,22,10.41422,21.41422Q11,20.82844,11,20ZM4,15L9,15L9,20L4,20L4,15Z" fill-rule="evenodd" fill="#165DFF" fill-opacity="1"/></g><g><path d="M21,17.5Q21,17.67194,20.983150000000002,17.84306Q20.96629,18.01418,20.93275,18.18282Q20.8992,18.35146,20.84929,18.516Q20.79938,18.68054,20.73358,18.83939Q20.66778,18.99825,20.58672,19.14989Q20.505670000000002,19.30153,20.41014,19.444499999999998Q20.314619999999998,19.58746,20.20554,19.72038Q20.09646,19.85329,19.97487,19.97487Q19.85329,20.09646,19.72038,20.20554Q19.58746,20.314619999999998,19.444499999999998,20.41014Q19.30153,20.505670000000002,19.14989,20.58672Q18.99825,20.66778,18.83939,20.73358Q18.68054,20.79938,18.516,20.84929Q18.35146,20.8992,18.18282,20.93275Q18.01418,20.96629,17.84306,20.983150000000002Q17.67194,21,17.5,21Q17.32806,21,17.15694,20.983150000000002Q16.98582,20.96629,16.81718,20.93275Q16.64854,20.8992,16.484,20.84929Q16.31946,20.79938,16.16061,20.73358Q16.00175,20.66778,15.85011,20.58672Q15.69847,20.505670000000002,15.5555,20.41014Q15.41254,20.314619999999998,15.27962,20.20554Q15.14671,20.09646,15.02513,19.97487Q14.903542999999999,19.85329,14.794463,19.72038Q14.685383,19.58746,14.589856,19.444499999999998Q14.494329,19.30153,14.413276,19.14989Q14.332222,18.99825,14.266422,18.83939Q14.200622,18.68054,14.150709,18.516Q14.100796,18.35146,14.0672515,18.18282Q14.0337069,18.01418,14.0168535,17.84306Q14,17.67194,14,17.5Q14,17.32806,14.0168535,17.15694Q14.0337069,16.98582,14.0672515,16.81718Q14.100796,16.64854,14.150709,16.484Q14.200622,16.31946,14.266422,16.16061Q14.332222,16.00175,14.413276,15.85011Q14.494329,15.69847,14.589856,15.5555Q14.685383,15.41254,14.794463,15.27962Q14.903542999999999,15.14671,15.02513,15.02513Q15.14671,14.903542999999999,15.27962,14.794463Q15.41254,14.685383,15.5555,14.589856Q15.69847,14.494329,15.85011,14.413276Q16.00175,14.332222,16.16061,14.266422Q16.31946,14.200622,16.484,14.150709Q16.64854,14.100796,16.81718,14.0672515Q16.98582,14.0337069,17.15694,14.0168535Q17.32806,14,17.5,14Q17.67194,14,17.84306,14.0168535Q18.01418,14.0337069,18.18282,14.0672515Q18.35146,14.100796,18.516,14.150709Q18.68054,14.200622,18.83939,14.266422Q18.99825,14.332222,19.14989,14.413276Q19.30153,14.494329,19.444499999999998,14.589856Q19.58746,14.685383,19.72038,14.794463Q19.85329,14.903542999999999,19.97487,15.02513Q20.09646,15.14671,20.20554,15.27962Q20.314619999999998,15.41254,20.41014,15.5555Q20.505670000000002,15.69847,20.58672,15.85011Q20.66778,16.00175,20.73358,16.16061Q20.79938,16.31946,20.84929,16.484Q20.8992,16.64854,20.93275,16.81718Q20.96629,16.98582,20.983150000000002,17.15694Q21,17.32806,21,17.5Z" fill="#FFFFFF" fill-opacity="1"/><path d="M14.318018,14.31802Q13,15.63604,13,17.5Q13,19.36396,14.318018,20.68198Q15.63604,22,17.5,22Q19.36396,22,20.68198,20.68198Q22,19.36396,22,17.5Q22,15.63604,20.68198,14.318021Q19.36396,13,17.5,13Q15.63604,13,14.318018,14.31802ZM15.73223,19.26777Q15,18.53554,15,17.5Q15,16.46447,15.73223,15.73223Q16.46446,15,17.5,15Q18.53553,15,19.26777,15.73223Q20,16.46447,20,17.5Q20,18.53554,19.26777,19.26777Q18.53554,20,17.5,20Q16.46446,20,15.73223,19.26777Z" fill-rule="evenodd" fill="#7BC0FC" fill-opacity="1"/></g><g><path d="M20,3L15,3C14.4477,3,14,3.4477,14,4L14,9C14,9.552299999999999,14.4477,10,15,10L20,10C20.5523,10,21,9.552299999999999,21,9L21,4C21,3.4477,20.5523,3,20,3Z" fill="#165DFF" fill-opacity="1"/><path d="M22,9L22,4Q22,3.171561,21.41422,2.58578Q20.82844,2,20,2L15,2Q14.171561,2,13.585781,2.585781Q13,3.171561,13,4L13,9Q13,9.82844,13.585781,10.41422Q14.171562,11,15,11L20,11Q20.82844,11,21.41422,10.41422Q22,9.82844,22,9ZM15,4L20,4L20,9L15,9L15,4Z" fill-rule="evenodd" fill="#165DFF" fill-opacity="1"/></g></g></svg>