<svg xmlns="http://www.w3.org/2000/svg" xmlns:xlink="http://www.w3.org/1999/xlink" fill="none" version="1.1" width="24" height="24" viewBox="0 0 24 24"><defs><clipPath id="master_svg0_644_42239"><rect x="0" y="0" width="24" height="24" rx="0"/></clipPath></defs><g clip-path="url(#master_svg0_644_42239)"><g><path d="M3.5,5.080078125L3.5,20.999978125C3.5,22.104578125,4.395431,22.999978125,5.5,22.999978125L18.5,22.999978125C19.6046,22.999978125,20.5,22.104578125,20.5,20.999978125L20.5,5.080078125C20.5,3.975509125,19.6046,3.080078125,18.5,3.080078125L17.5,3.080078125L17.5,5.499998124999999C17.5,6.328428125,16.828400000000002,6.999998124999999,16,6.999998124999999L8,6.999998124999999C7.17157,6.999998124999999,6.5,6.328428125,6.5,5.499998124999999L6.5,3.080078125L5.5,3.080078125C4.395431,3.080078125,3.5,3.975509125,3.5,5.080078125Z" fill="#FF7D00" fill-opacity="1"/></g><g><path d="M8.333333,6L15.66667,6C16.1269,6,16.5,5.6269,16.5,5.16667L16.5,3.91662C16.5,3.45637,16.1226,3.08327,15.66235,3.08328Q15.23012,3.0833,14.91375,3.08331C14.453520000000001,3.08333,14.09583,2.6800100000000002,13.9132,2.25756C13.59339,1.517792,12.857050000000001,1,11.99999,1C11.14293,1,10.40659,1.517792,10.086780000000001,2.25756C9.904160000000001,2.6800100000000002,9.56107,3.08333,9.10083,3.08332Q8.75319,3.08331,8.311497,3.08329C7.851244,3.08327,7.5,3.45637,7.5,3.91662L7.5,5.16667C7.5,5.6269,7.873096,6,8.333333,6M11.99999,3.91667C11.53958,3.91667,11.16666,3.54375,11.16666,3.08333C11.16666,2.6229199999999997,11.53958,2.25,11.99999,2.25C12.46041,2.25,12.83333,2.6229199999999997,12.83333,3.08333C12.83333,3.54375,12.46041,3.91667,11.99999,3.91667Z" fill="#F9CC45" fill-opacity="1"/></g><g><path d="M9.009425458984374,9.850398359375Q9.114915458984374,9.744909359375,9.172005458984374,9.607081359375Q9.229095458984375,9.469252359375,9.229095458984375,9.320068359375Q9.229095458984375,9.246199859375,9.214685458984375,9.173750359375Q9.200275458984375,9.101301359375,9.172005458984374,9.033055359375Q9.143735458984375,8.964810359375,9.102695458984375,8.903390359375Q9.061655458984376,8.841971359375,9.009425458984374,8.789738359375Q8.957195458984375,8.737505359375,8.895775458984374,8.696466359375Q8.834355458984374,8.655427359375,8.766105458984375,8.627158359375Q8.697865458984374,8.598890359375,8.625415458984374,8.584479359374999Q8.552965458984374,8.570068359375,8.479095458984375,8.570068359375Q8.329915458984376,8.570068359375,8.192085458984375,8.627158359375Q8.054255458984375,8.684249359375,7.948765458984375,8.789738359375L6.854095458984375,9.884408359375L6.571925458984375,9.602238359375Q6.466436458984375,9.496749359375,6.328608458984375,9.439658359375Q6.190779458984375,9.382568359375,6.041595458984375,9.382568359375Q5.967726958984375,9.382568359375,5.895277458984375,9.396979359375Q5.822828458984375,9.411390459375,5.754582458984375,9.439658359375Q5.686337458984375,9.467927359375,5.624917458984375,9.508966359375Q5.563498458984375,9.550005359375,5.511265458984375,9.602238359375Q5.459032458984375,9.654471359375,5.417993458984375,9.715890359375Q5.376954458984375,9.777310359375,5.348685458984375,9.845555359375Q5.320417458984375,9.913801359375,5.306006458984375,9.986250359375Q5.291595458984375,10.058699359375,5.291595458984375,10.132568359375Q5.291595458984375,10.281752359375,5.348685458984375,10.419578359375Q5.405776458984375,10.557408359375,5.511265458984375,10.662898359375L6.323765458984375,11.475398359375Q6.429254458984375,11.580888359374999,6.567082458984375,11.637978359375Q6.704911458984375,11.695068359375,6.854095458984375,11.695068359375Q7.003279458984375,11.695068359375,7.141105458984375,11.637978359375Q7.278935458984375,11.580888359374999,7.384425458984375,11.475398359375L9.009185458984375,9.850633359375L9.009425458984374,9.850398359375L9.009425458984374,9.850398359375Z" fill-rule="evenodd" fill="#FFFFFF" fill-opacity="1"/></g><g><path d="M12.00006103515625,9.381591796875L17.95839103515625,9.381591796875Q18.03226103515625,9.381591796875,18.10471103515625,9.396002796874999Q18.17716103515625,9.410413796875,18.245411035156252,9.438681796875Q18.313651035156248,9.466950796875,18.37507103515625,9.507989796875Q18.43649103515625,9.549028796875,18.48872103515625,9.601261796875Q18.54096103515625,9.653494796875,18.58200103515625,9.714913796875Q18.62303103515625,9.776333796875,18.65130103515625,9.844578796875Q18.67957103515625,9.912824796875,18.69398103515625,9.985273796875Q18.70839103515625,10.057723296875,18.70839103515625,10.131591796875Q18.70839103515625,10.205460296875,18.69398103515625,10.277909796875Q18.67957103515625,10.350358796875,18.65130103515625,10.418604796875Q18.62303103515625,10.486849796875,18.58199103515625,10.548269796875Q18.54096103515625,10.609688796875,18.48872103515625,10.661921796875Q18.43649103515625,10.714154796875,18.37507103515625,10.755193796875Q18.313651035156248,10.796232796875,18.245411035156252,10.824501796875Q18.17716103515625,10.852769796875,18.10471103515625,10.867180796875001Q18.03226103515625,10.881591796875,17.95839103515625,10.881591796875L12.00006103515625,10.881591796875Q11.92619253515625,10.881591796875,11.85374303515625,10.867180796875001Q11.78129403515625,10.852769796875,11.71304803515625,10.824501796875Q11.64480303515625,10.796232796875,11.58338303515625,10.755193796875Q11.52196403515625,10.714154796875,11.46973103515625,10.661921796875Q11.41749803515625,10.609688796875,11.37645903515625,10.548269796875Q11.33542003515625,10.486849796875,11.30715103515625,10.418604796875Q11.27888303515625,10.350358796875,11.264472035156249,10.277909796875Q11.25006103515625,10.205460296875,11.25006103515625,10.131591796875Q11.25006103515625,10.057723296875,11.264472035156249,9.985273796875Q11.27888303515625,9.912824796875,11.30715103515625,9.844578796875Q11.33542003515625,9.776333796875,11.37645903515625,9.714913796875Q11.41749803515625,9.653494796875,11.46973103515625,9.601261796875Q11.52196403515625,9.549028796875,11.58338303515625,9.507989796875Q11.64480303515625,9.466950796875,11.71304803515625,9.438681796875Q11.78129403515625,9.410413796875,11.85374303515625,9.396002796874999Q11.92619253515625,9.381591796875,12.00006103515625,9.381591796875Z" fill-rule="evenodd" fill="#FFFFFF" fill-opacity="1"/></g><g><path d="M9.009425458984374,14.475398359375Q9.114915458984374,14.369909359375,9.172005458984374,14.232081359375Q9.229095458984375,14.094252359375,9.229095458984375,13.945068359375Q9.229095458984375,13.871199859375,9.214685458984375,13.798750359375Q9.200275458984375,13.726301359375,9.172005458984374,13.658055359375Q9.143735458984375,13.589810359375,9.102695458984375,13.528390359375Q9.061655458984376,13.466971359375,9.009425458984374,13.414738359375Q8.957195458984375,13.362505359375,8.895775458984374,13.321466359375Q8.834355458984374,13.280427359375,8.766105458984375,13.252158359375Q8.697865458984374,13.223890359375,8.625415458984374,13.209479359374999Q8.552965458984374,13.195068359375,8.479095458984375,13.195068359375Q8.329915458984376,13.195068359375,8.192085458984375,13.252158359375Q8.054255458984375,13.309249359375,7.948765458984375,13.414738359375L6.854095458984375,14.509408359375L6.571925458984375,14.227238359375Q6.466436458984375,14.121749359375,6.328608458984375,14.064658359375Q6.190779458984375,14.007568359375,6.041595458984375,14.007568359375Q5.967726958984375,14.007568359375,5.895277458984375,14.021979359375Q5.822828458984375,14.036390459375,5.754582458984375,14.064658359375Q5.686337458984375,14.092927359375,5.624917458984375,14.133966359375Q5.563498458984375,14.175005359375,5.511265458984375,14.227238359375Q5.459032458984375,14.279471359375,5.417993458984375,14.340890359375Q5.376954458984375,14.402310359375,5.348685458984375,14.470555359375Q5.320417458984375,14.538801359375,5.306006458984375,14.611250359375Q5.291595458984375,14.683699359375,5.291595458984375,14.757568359375Q5.291595458984375,14.906752359375,5.348685458984375,15.044578359375Q5.405776458984375,15.182408359375,5.511265458984375,15.287898359375L6.323765458984375,16.100398359375Q6.429254458984375,16.205888359375,6.567082458984375,16.262978359375Q6.704911458984375,16.320068359375,6.854095458984375,16.320068359375Q7.003279458984375,16.320068359375,7.141105458984375,16.262978359375Q7.278935458984375,16.205888359375,7.384425458984375,16.100398359375L9.009185458984375,14.475633359375L9.009425458984374,14.475398359375L9.009425458984374,14.475398359375Z" fill-rule="evenodd" fill="#FFFFFF" fill-opacity="1"/></g><g><path d="M12.00006103515625,14.006591796875L17.95839103515625,14.006591796875Q18.03226103515625,14.006591796875,18.10471103515625,14.021002796874999Q18.17716103515625,14.035413796875,18.245411035156252,14.063681796875Q18.313651035156248,14.091950796875,18.37507103515625,14.132989796875Q18.43649103515625,14.174028796875,18.48872103515625,14.226261796875Q18.54096103515625,14.278494796875,18.58200103515625,14.339913796875Q18.62303103515625,14.401333796875,18.65130103515625,14.469578796875Q18.67957103515625,14.537824796875,18.69398103515625,14.610273796875Q18.70839103515625,14.682723296875,18.70839103515625,14.756591796875Q18.70839103515625,14.830460296875,18.69398103515625,14.902909796875Q18.67957103515625,14.975358796875,18.65130103515625,15.043604796875Q18.62303103515625,15.111849796875,18.58199103515625,15.173269796875Q18.54096103515625,15.234688796875,18.48872103515625,15.286921796875Q18.43649103515625,15.339154796875,18.37507103515625,15.380193796875Q18.313651035156248,15.421232796875,18.245411035156252,15.449501796875Q18.17716103515625,15.477769796875,18.10471103515625,15.492180796875001Q18.03226103515625,15.506591796875,17.95839103515625,15.506591796875L12.00006103515625,15.506591796875Q11.92619253515625,15.506591796875,11.85374303515625,15.492180796875001Q11.78129403515625,15.477769796875,11.71304803515625,15.449501796875Q11.64480303515625,15.421232796875,11.58338303515625,15.380193796875Q11.52196403515625,15.339154796875,11.46973103515625,15.286921796875Q11.41749803515625,15.234688796875,11.37645903515625,15.173269796875Q11.33542003515625,15.111849796875,11.30715103515625,15.043604796875Q11.27888303515625,14.975358796875,11.264472035156249,14.902909796875Q11.25006103515625,14.830460296875,11.25006103515625,14.756591796875Q11.25006103515625,14.682723296875,11.264472035156249,14.610273796875Q11.27888303515625,14.537824796875,11.30715103515625,14.469578796875Q11.33542003515625,14.401333796875,11.37645903515625,14.339913796875Q11.41749803515625,14.278494796875,11.46973103515625,14.226261796875Q11.52196403515625,14.174028796875,11.58338303515625,14.132989796875Q11.64480303515625,14.091950796875,11.71304803515625,14.063681796875Q11.78129403515625,14.035413796875,11.85374303515625,14.021002796874999Q11.92619253515625,14.006591796875,12.00006103515625,14.006591796875Z" fill-rule="evenodd" fill="#FFFFFF" fill-opacity="1"/></g><g><path d="M9.009425458984374,19.100398359375Q9.114915458984374,18.994909359375,9.172005458984374,18.857081359375Q9.229095458984375,18.719252359375,9.229095458984375,18.570068359375Q9.229095458984375,18.496199859375,9.214685458984375,18.423750359375Q9.200275458984375,18.351301359375,9.172005458984374,18.283055359375Q9.143735458984375,18.214810359375,9.102695458984375,18.153390359375Q9.061655458984376,18.091971359375002,9.009425458984374,18.039738359375Q8.957195458984375,17.987505359375,8.895775458984374,17.946466359375002Q8.834355458984374,17.905427359375,8.766105458984375,17.877158359375Q8.697865458984374,17.848890359375,8.625415458984374,17.834479359375Q8.552965458984374,17.820068359375,8.479095458984375,17.820068359375Q8.329915458984376,17.820068359375,8.192085458984375,17.877158359375Q8.054255458984375,17.934249359375,7.948765458984375,18.039738359375L6.854095458984375,19.134408359375L6.571925458984375,18.852238359375Q6.466436458984375,18.746749359375,6.328608458984375,18.689658359375Q6.190779458984375,18.632568359375,6.041595458984375,18.632568359375Q5.967726958984375,18.632568359375,5.895277458984375,18.646979359375Q5.822828458984375,18.661390459375,5.754582458984375,18.689658359375Q5.686337458984375,18.717927359375,5.624917458984375,18.758966359375002Q5.563498458984375,18.800005359375,5.511265458984375,18.852238359375Q5.459032458984375,18.904471359375002,5.417993458984375,18.965890359375Q5.376954458984375,19.027310359375,5.348685458984375,19.095555359375Q5.320417458984375,19.163801359375,5.306006458984375,19.236250359375Q5.291595458984375,19.308699359375,5.291595458984375,19.382568359375Q5.291595458984375,19.531752359374998,5.348685458984375,19.669578359375Q5.405776458984375,19.807408359375,5.511265458984375,19.912898359375L6.323765458984375,20.725398359375Q6.429254458984375,20.830888359375,6.567082458984375,20.887978359375Q6.704911458984375,20.945068359375,6.854095458984375,20.945068359375Q7.003279458984375,20.945068359375,7.141105458984375,20.887978359375Q7.278935458984375,20.830888359375,7.384425458984375,20.725398359375L9.009185458984375,19.100633359375L9.009425458984374,19.100398359375L9.009425458984374,19.100398359375Z" fill-rule="evenodd" fill="#FFFFFF" fill-opacity="1"/></g><g><path d="M12.00006103515625,18.631591796875L17.95839103515625,18.631591796875Q18.03226103515625,18.631591796875,18.10471103515625,18.646002796875Q18.17716103515625,18.660413796875,18.245411035156252,18.688681796875Q18.313651035156248,18.716950796875,18.37507103515625,18.757989796875002Q18.43649103515625,18.799028796875,18.48872103515625,18.851261796875Q18.54096103515625,18.903494796875002,18.58200103515625,18.964913796875Q18.62303103515625,19.026333796875,18.65130103515625,19.094578796875Q18.67957103515625,19.162824796875,18.69398103515625,19.235273796875Q18.70839103515625,19.307723296875,18.70839103515625,19.381591796875Q18.70839103515625,19.455460296875,18.69398103515625,19.527909796875Q18.67957103515625,19.600358796875,18.65130103515625,19.668604796875Q18.62303103515625,19.736849796875,18.58199103515625,19.798269796875Q18.54096103515625,19.859688796874998,18.48872103515625,19.911921796875Q18.43649103515625,19.964154796875,18.37507103515625,20.005193796874998Q18.313651035156248,20.046232796875,18.245411035156252,20.074501796875Q18.17716103515625,20.102769796875,18.10471103515625,20.117180796875Q18.03226103515625,20.131591796875,17.95839103515625,20.131591796875L12.00006103515625,20.131591796875Q11.92619253515625,20.131591796875,11.85374303515625,20.117180796875Q11.78129403515625,20.102769796875,11.71304803515625,20.074501796875Q11.64480303515625,20.046232796875,11.58338303515625,20.005193796874998Q11.52196403515625,19.964154796875,11.46973103515625,19.911921796875Q11.41749803515625,19.859688796874998,11.37645903515625,19.798269796875Q11.33542003515625,19.736849796875,11.30715103515625,19.668604796875Q11.27888303515625,19.600358796875,11.264472035156249,19.527909796875Q11.25006103515625,19.455460296875,11.25006103515625,19.381591796875Q11.25006103515625,19.307723296875,11.264472035156249,19.235273796875Q11.27888303515625,19.162824796875,11.30715103515625,19.094578796875Q11.33542003515625,19.026333796875,11.37645903515625,18.964913796875Q11.41749803515625,18.903494796875002,11.46973103515625,18.851261796875Q11.52196403515625,18.799028796875,11.58338303515625,18.757989796875002Q11.64480303515625,18.716950796875,11.71304803515625,18.688681796875Q11.78129403515625,18.660413796875,11.85374303515625,18.646002796875Q11.92619253515625,18.631591796875,12.00006103515625,18.631591796875Z" fill-rule="evenodd" fill="#FFFFFF" fill-opacity="1"/></g><g><path d="M13.38602,23.62342Q12.844073999999999,23.08147,13.0629839,22.34711L13.367753,21.32423Q13.584705,20.59615,14.12186,20.059260000000002L18.44753,15.7336L19.45755,14.723575L19.59545,14.585669Q20.18122,14,21.00955,14Q21.83788,14,22.423650000000002,14.585669Q23.0094,15.17155,23.0094,15.999880000000001Q23.0094,16.82821,22.42371,17.41404L22.28586,17.55189L21.275840000000002,18.56191L16.95035,22.8874Q16.41329,23.42473,15.685179999999999,23.64169L14.66244,23.94642Q13.927962,24.165399999999998,13.38602,23.62342Z" fill-rule="evenodd" fill="#FFFFFF" fill-opacity="1"/></g><g><path d="M21.707169999999998,15.292835C21.31665,14.9023884,20.68358,14.9023884,20.29307,15.292835L19.85231,15.733597L21.2664,17.1477L21.707169999999998,16.70693C22.09761,16.31642,22.09761,15.683346,21.707169999999998,15.292835ZM20.86221,17.55189L19.44811,16.13779L14.819534,20.766370000000002C14.58443,21.00136,14.411601,21.29123,14.316676,21.6098L14.0119138,22.63266C13.9819379,22.73322,14.00949407,22.842109999999998,14.083691,22.91631C14.157888,22.99051,14.266785,23.01806,14.367343,22.98809L15.3902,22.683320000000002C15.70876,22.5884,15.99865,22.41557,16.233629999999998,22.18047L20.86221,17.55189L20.86221,17.55189Z" fill="#D25F00" fill-opacity="1"/></g></g></svg>