<svg xmlns="http://www.w3.org/2000/svg" xmlns:xlink="http://www.w3.org/1999/xlink" fill="none" version="1.1" width="24" height="24" viewBox="0 0 24 24"><defs><clipPath id="master_svg0_644_38783"><rect x="0" y="0" width="24" height="24" rx="0"/></clipPath></defs><g clip-path="url(#master_svg0_644_38783)"><g><path d="M6.000000953674316,22C4.895431953674317,22,4.000000953674316,21.1046,4.000000953674316,20L4.000009429454316,4C4.000009949574316,2.89543,4.895439953674316,2,6.000010953674316,2L18.000000953674316,2C19.104600953674314,2,20.000000953674316,2.895431,20.000000953674316,4L20.000000953674316,11.23372Q19.305100953674316,10.87219,18.544200953674316,10.68609Q17.783300953674317,10.5,17.000000953674316,10.5Q16.84040095367432,10.5,16.681100953674317,10.50783Q16.521700953674316,10.51566,16.362900953674316,10.5313Q16.204100953674317,10.54694,16.04630095367432,10.57035Q15.888400953674317,10.59377,15.731900953674316,10.62489Q15.575400953674317,10.65602,15.420600953674317,10.6948Q15.265800953674317,10.73357,15.113100953674316,10.77989Q14.960500953674316,10.82621,14.810200953674316,10.87996Q14.660000953674317,10.93372,14.512600953674317,10.99478Q14.365100953674316,11.05585,14.220900953674317,11.12407Q14.076600953674316,11.19229,13.935920953674316,11.26751Q13.795190953674316,11.34273,13.658330953674316,11.42476Q13.521470953674317,11.5068,13.388790953674317,11.59545Q13.256120953674316,11.6841,13.127950953674317,11.77915Q12.999790953674317,11.8742,12.876440953674317,11.97543Q12.753100953674316,12.0767,12.634870953674316,12.1838Q12.516630953674316,12.291,12.403800953674317,12.4038Q12.290980953674316,12.5166,12.183820953674317,12.6349Q12.076660953674317,12.7531,11.975430953674316,12.8764Q11.874200953674316,12.9998,11.779150953674316,13.128Q11.684100953674317,13.2561,11.595450953674316,13.3888Q11.506800953674317,13.5215,11.424760953674316,13.6583Q11.342730953674316,13.7952,11.267510953674316,13.9359Q11.192290953674316,14.0766,11.124070953674316,14.2209Q11.055840953674316,14.3651,10.994780953674317,14.5126Q10.933720953674317,14.66,10.879960953674317,14.8102Q10.826210953674316,14.9605,10.779890953674316,15.1131Q10.733570953674317,15.2658,10.694800953674317,15.4206Q10.656020953674316,15.5754,10.624900953674317,15.7319Q10.593770953674316,15.8884,10.570350953674318,16.046300000000002Q10.546940953674316,16.2041,10.531300953674316,16.3629Q10.515660953674317,16.5217,10.507830953674317,16.6811Q10.500000953674316,16.840400000000002,10.500000953674316,17Q10.500000953674316,17.3569,10.539070953674315,17.7117Q10.578150953674317,18.0664,10.655830953674316,18.4147Q10.733510953674315,18.7631,10.848860953674317,19.1008Q10.964210953674316,19.4386,11.115850953674316,19.7617Q11.267480953674315,20.0847,11.453580953674315,20.3893Q11.639670953674315,20.6938,11.857990953674317,20.9762Q12.076310953674316,21.2585,12.324230953674316,21.5152Q12.572150953674317,21.772,12.846690953674317,22L6.000000953674316,22Z" fill-rule="evenodd" fill="#00B42A" fill-opacity="1"/></g><g><path d="M8,6.25L14.5,6.25Q14.57387,6.25,14.64632,6.264411Q14.71877,6.278822,14.78701,6.30709Q14.855260000000001,6.335359,14.91668,6.376398Q14.978100000000001,6.417437,15.03033,6.46967Q15.08256,6.521903,15.1236,6.583322Q15.16464,6.644742,15.192910000000001,6.712987Q15.22118,6.781233,15.23559,6.853682Q15.25,6.9261315,15.25,7Q15.25,7.0738685,15.23559,7.146318Q15.22118,7.218767,15.192910000000001,7.287013Q15.16464,7.355258,15.1236,7.416678Q15.08256,7.478097,15.03033,7.53033Q14.978100000000001,7.582563,14.91668,7.623602Q14.855260000000001,7.664641,14.78701,7.69291Q14.71877,7.721178,14.64632,7.735589Q14.57387,7.75,14.5,7.75L8,7.75Q7.9261315,7.75,7.853682,7.735589Q7.781233,7.721178,7.712987,7.69291Q7.644742,7.664641,7.583322,7.623602Q7.521903,7.582563,7.46967,7.53033Q7.417437,7.478097,7.376398,7.416678Q7.335359,7.355258,7.30709,7.287013Q7.278822,7.218767,7.264411,7.146318Q7.25,7.0738685,7.25,7Q7.25,6.9261315,7.264411,6.853682Q7.278822,6.781233,7.30709,6.712987Q7.335359,6.644742,7.376398,6.583322Q7.417437,6.521903,7.46967,6.46967Q7.521903,6.417437,7.583322,6.376398Q7.644742,6.335359,7.712987,6.30709Q7.781233,6.278822,7.853682,6.264411Q7.9261315,6.25,8,6.25Z" fill-rule="evenodd" fill="#FFFFFF" fill-opacity="1"/></g><g><path d="M8,9.75L10.5,9.75Q10.57387,9.75,10.64632,9.764410999999999Q10.71877,9.778822,10.78701,9.80709Q10.85526,9.835359,10.91668,9.876398Q10.9781,9.917437,11.03033,9.96967Q11.08256,10.021903,11.1236,10.083322Q11.16464,10.144742,11.19291,10.212987Q11.22118,10.281233,11.23559,10.353682Q11.25,10.4261315,11.25,10.5Q11.25,10.5738685,11.23559,10.646318Q11.22118,10.718767,11.19291,10.787013Q11.16464,10.855258,11.1236,10.916678Q11.08256,10.978097,11.03033,11.03033Q10.9781,11.082563,10.91668,11.123602Q10.85526,11.164641,10.78701,11.19291Q10.71877,11.221178,10.64632,11.235589000000001Q10.57387,11.25,10.5,11.25L8,11.25Q7.9261315,11.25,7.853682,11.235589000000001Q7.781233,11.221178,7.712987,11.19291Q7.644742,11.164641,7.583322,11.123602Q7.521903,11.082563,7.46967,11.03033Q7.417437,10.978097,7.376398,10.916678Q7.335359,10.855258,7.30709,10.787013Q7.278822,10.718767,7.264411,10.646318Q7.25,10.5738685,7.25,10.5Q7.25,10.4261315,7.264411,10.353682Q7.278822,10.281233,7.30709,10.212987Q7.335359,10.144742,7.376398,10.083322Q7.417437,10.021903,7.46967,9.96967Q7.521903,9.917437,7.583322,9.876398Q7.644742,9.835359,7.712987,9.80709Q7.781233,9.778822,7.853682,9.764410999999999Q7.9261315,9.75,8,9.75Z" fill-rule="evenodd" fill="#FFFFFF" fill-opacity="1"/></g><g transform="matrix(0,1,-1,0,34,-10)"><ellipse cx="27" cy="17" rx="5" ry="5" fill="#00B42A" fill-opacity="1"/></g><g><path d="M16.25,17.5Q16.25,17.4261315,16.264411,17.353682Q16.278822,17.281233,16.30709,17.212987Q16.335359,17.144742,16.376398000000002,17.083322Q16.417437,17.021903000000002,16.46967,16.96967Q16.521903000000002,16.917437,16.583322,16.876398000000002Q16.644742,16.835359,16.712987,16.80709Q16.781233,16.778822,16.853682,16.764411Q16.9261315,16.75,17,16.75Q17.0738685,16.75,17.146318,16.764411Q17.218767,16.778822,17.287013,16.80709Q17.355258,16.835359,17.416678,16.876398000000002Q17.478096999999998,16.917437,17.53033,16.96967Q17.582563,17.021903000000002,17.623601999999998,17.083322Q17.664641,17.144742,17.69291,17.212987Q17.721178,17.281233,17.735589,17.353682Q17.75,17.4261315,17.75,17.5L17.75,19.5Q17.75,19.57387,17.735589,19.64632Q17.721178,19.71877,17.69291,19.78701Q17.664641,19.85526,17.623601999999998,19.91668Q17.582563,19.9781,17.53033,20.03033Q17.478096999999998,20.08256,17.416678,20.1236Q17.355258,20.16464,17.287013,20.19291Q17.218767,20.22118,17.146318,20.235590000000002Q17.0738685,20.25,17,20.25Q16.9261315,20.25,16.853682,20.235590000000002Q16.781233,20.22118,16.712987,20.19291Q16.644742,20.16464,16.583322,20.1236Q16.521903000000002,20.08256,16.46967,20.03033Q16.417437,19.9781,16.376398000000002,19.91668Q16.335359,19.85526,16.30709,19.78701Q16.278822,19.71877,16.264411,19.64632Q16.25,19.57387,16.25,19.5L16.25,17.5Z" fill-rule="evenodd" fill="#FFFFFF" fill-opacity="1"/></g><g><ellipse cx="17" cy="15" rx="0.75" ry="0.75" fill="#FFFFFF" fill-opacity="1"/></g></g></svg>