<svg id="图层_1" data-name="图层 1" xmlns="http://www.w3.org/2000/svg" viewBox="0 0 18 18">
  <defs>
    <style>
      .nbcjidkb771 {
        fill: #f0953a;
      }

      .nbcjidkb772 {
        fill: #fff;
      }
    </style>
  </defs>
  <g id="IconAomMenuMJRWColor">
    <rect class="nbcjidkb771" width="18" height="18" rx="4" />
  </g>
  <path class="nbcjidkb772"
    d="M14,9.86l-.06,0-.06,0a.47.47,0,0,0-.17,0H10.56a.41.41,0,0,0-.16,0,.52.52,0,0,0-.36.49.52.52,0,0,0,.52.52h3.12a.46.46,0,0,0,.21-.05h0A.51.51,0,0,0,14,9.86Z" />
  <path class="nbcjidkb772"
    d="M13.68,13.16H10.56a.51.51,0,0,0-.46.29h0a.54.54,0,0,0-.05.22.78.78,0,0,0,0,.21h0a.36.36,0,0,0,.11.16h0a.53.53,0,0,0,.36.15h3.12a.52.52,0,0,0,0-1Z" />
  <path class="nbcjidkb772"
    d="M9.41,12.68a.37.37,0,0,1-.12.25.39.39,0,0,1-.29.13A4.06,4.06,0,0,1,4.94,9a.42.42,0,0,1,.84,0A3.21,3.21,0,0,0,9,12.22a.4.4,0,0,1,.26.1,1.27,1.27,0,0,1,0-.34,1.34,1.34,0,0,1,.31-.85,1.42,1.42,0,0,1-.29-.59l-.23,0a1.56,1.56,0,1,1,1.55-1.63h1.67A3.22,3.22,0,0,0,9,5.78a.42.42,0,0,1,0-.84,4.06,4.06,0,0,1,4.05,4h.63a1.3,1.3,0,0,1,.52.1V9A5.2,5.2,0,1,0,9,14.2h.31a1.25,1.25,0,0,1-.1-.51,1.37,1.37,0,0,1,.31-.86A1.34,1.34,0,0,1,9.41,12.68Z" />
  <path class="nbcjidkb772"
    d="M13.68,11.46H10.56a.53.53,0,0,0-.33.12h0a.55.55,0,0,0-.13.17h0A.54.54,0,0,0,10,12a.52.52,0,0,0,.52.52h3.12a.52.52,0,0,0,0-1Z" />
</svg>