<svg id="图层_1" data-name="图层 1" xmlns="http://www.w3.org/2000/svg" viewBox="0 0 18 18">
  <defs>
    <style>
      .vhdiuqa57-1 {
        fill: #f0953a;
      }

      .vhdiuqa57-2 {
        fill: #fff;
      }
    </style>
  </defs>
  <g id="IconAomMenuGJKColor">
    <rect class="vhdiuqa57-1" width="18" height="18" rx="4" />
  </g>
  <path class="vhdiuqa57-2"
    d="M9.55,13l-.17-.31a1.36,1.36,0,0,1,0-1.31,1.38,1.38,0,0,1,0-1.32l.17-.31a1.46,1.46,0,0,1,.16-.21H5a1.09,1.09,0,0,0-1,1.16v1.68a1.09,1.09,0,0,0,1,1.16h5.13A1.32,1.32,0,0,1,9.55,13ZM6.34,12a.4.4,0,1,1-.8,0v-.9a.4.4,0,1,1,.8,0Zm2,0a.4.4,0,1,1-.8,0v-.9a.4.4,0,1,1,.8,0Z" />
  <path class="vhdiuqa57-2"
    d="M13.92,11.7l-.09-.15,0-.08h0v0a.22.22,0,0,1,0-.08.5.5,0,0,1,0-.12.41.41,0,0,1,0-.08l.09-.16a.58.58,0,0,0,0-.57l-.18-.3a.58.58,0,0,0-.5-.3h-.17l-.11,0-.07,0-.1-.08a.43.43,0,0,1,0-.07l-.09-.15a.58.58,0,0,0-.5-.3h-.34a.58.58,0,0,0-.5.3l-.08.15-.05.07-.09.08-.11,0h-.25a.58.58,0,0,0-.5.3l-.18.3a.58.58,0,0,0,0,.57l.09.16,0,.07v0h0a.28.28,0,0,1,0,.09,1,1,0,0,1,0,.12l0,.08-.09.15a.58.58,0,0,0,0,.57l.18.31a.57.57,0,0,0,.5.29H11a.56.56,0,0,1,.17.09l0,0a.15.15,0,0,1,0,.06l.09.15a.56.56,0,0,0,.5.3h.34a.56.56,0,0,0,.5-.3l.09-.15.06-.09a.18.18,0,0,1,.07-.05l.1,0h.26a.57.57,0,0,0,.5-.29l.18-.31A.58.58,0,0,0,13.92,11.7ZM12,12.2a.86.86,0,1,1,.86-.85A.86.86,0,0,1,12,12.2Z" />
  <path class="vhdiuqa57-2"
    d="M13,4.49H5A1.09,1.09,0,0,0,4,5.65V7.33A1.09,1.09,0,0,0,5,8.49h8a1.09,1.09,0,0,0,1-1.16V5.65A1.09,1.09,0,0,0,13,4.49ZM6.34,6.94a.4.4,0,1,1-.8,0V6a.4.4,0,1,1,.8,0Zm2,0a.4.4,0,1,1-.8,0V6a.4.4,0,1,1,.8,0Zm2,0a.4.4,0,1,1-.8,0V6a.4.4,0,1,1,.8,0Zm2,0a.4.4,0,0,1-.8,0V6a.4.4,0,0,1,.8,0Z" />
</svg>