<svg id="图层_1" data-name="图层 1" xmlns="http://www.w3.org/2000/svg" viewBox="0 0 18 18">
  <defs>
    <style>
      .cmgiqwihu-1 {
        fill: #fff;
      }

      .cmgiqwihu-2 {
        fill: #3b82f6;
      }
    </style>
  </defs>
  <polygon class="cmgiqwihu-1" points="9 14.43 9 14.43 9 14.43 9 14.43" />
  <polygon class="cmgiqwihu-1" points="4.26 6.22 4.26 6.22 4.26 6.22 4.26 6.22" />
  <g id="IconAomMenuGJKColor">
    <rect class="cmgiqwihu-2" width="18" height="18" rx="4" />
  </g>
  <path class="cmgiqwihu-1"
    d="M13.86,7.91l-.55-.08a.66.66,0,0,1-.51-.4h0a.64.64,0,0,1,.07-.64l.34-.44a.62.62,0,0,0-.05-.82l-.68-.68a.62.62,0,0,0-.82,0l-.44.34a.64.64,0,0,1-.64.07h0a.66.66,0,0,1-.4-.51l-.08-.55a.62.62,0,0,0-.61-.54h-1a.62.62,0,0,0-.61.54l-.08.55a.66.66,0,0,1-.4.51h0a.64.64,0,0,1-.64-.07l-.44-.34a.62.62,0,0,0-.82,0l-.68.68a.62.62,0,0,0,0,.82l.34.44a.64.64,0,0,1,.07.64h0a.66.66,0,0,1-.51.4l-.55.08a.62.62,0,0,0-.54.61v1a.62.62,0,0,0,.54.61l.55.08a.66.66,0,0,1,.51.4h0a.64.64,0,0,1-.07.64l-.34.44a.62.62,0,0,0,0,.82l.68.68a.62.62,0,0,0,.82.05l.44-.34a.64.64,0,0,1,.64-.07h0a.66.66,0,0,1,.4.51l.08.55a.62.62,0,0,0,.61.54h1a.62.62,0,0,0,.61-.54l.08-.55a.66.66,0,0,1,.4-.51h0a.64.64,0,0,1,.64.07l.44.34a.62.62,0,0,0,.82-.05l.68-.68a.62.62,0,0,0,.05-.82l-.34-.44a.64.64,0,0,1-.07-.64h0a.66.66,0,0,1,.51-.4l.55-.08a.62.62,0,0,0,.54-.61v-1A.62.62,0,0,0,13.86,7.91ZM9,10.62A1.62,1.62,0,1,1,10.62,9,1.63,1.63,0,0,1,9,10.62Z" />
</svg>