<svg xmlns="http://www.w3.org/2000/svg" xmlns:xlink="http://www.w3.org/1999/xlink" fill="none" version="1.1" width="24" height="24" viewBox="0 0 24 24"><defs><clipPath id="master_svg0_732_40873"><rect x="0" y="0" width="24" height="24" rx="0"/></clipPath></defs><g clip-path="url(#master_svg0_732_40873)"><g><path d="M5.507000085830688,4.048C6.076990085830689,3.382835,6.909140085830689,3,7.7850000858306885,3L16.215000085830688,3C17.09090008583069,3.000026226,17.92310008583069,3.382862,18.493000085830687,4.048L20.215000085830688,6.056C19.97850008583069,6.01848,19.739400085830688,5.999750000000001,19.50000008583069,6L4.500000085830688,6C4.257000085830688,6,4.018000085830688,6.02,3.7850000858306885,6.056L5.507000085830688,4.048Z" fill="#7BC0FC" fill-opacity="1"/></g><g><path d="M1.5,10.5C1.5,8.84315,2.84315,7.5,4.5,7.5L19.5,7.5C21.1569,7.5,22.5,8.84315,22.5,10.5C22.5,12.15685,21.1569,13.5,19.5,13.5L4.5,13.5C2.84315,13.5,1.5,12.15685,1.5,10.5ZM6.5,10.5C6.5,10.91421,6.16421,11.25,5.75,11.25C5.335789999999999,11.25,5,10.91421,5,10.5C5,10.08579,5.335789999999999,9.75,5.75,9.75C6.16421,9.75,6.5,10.08579,6.5,10.5ZM8.75,11.25C9.16421,11.25,9.5,10.91421,9.5,10.5C9.5,10.08579,9.16421,9.75,8.75,9.75C8.33579,9.75,8,10.08579,8,10.5C8,10.91421,8.33579,11.25,8.75,11.25ZM4.5,15C2.84315,15,1.5,16.34315,1.5,18C1.5,19.6569,2.84315,21,4.5,21L19.5,21C21.1569,21,22.5,19.6569,22.5,18C22.5,16.34315,21.1569,15,19.5,15L4.5,15ZM5.75,18.75C6.16421,18.75,6.5,18.4142,6.5,18C6.5,17.5858,6.16421,17.25,5.75,17.25C5.335789999999999,17.25,5,17.5858,5,18C5,18.4142,5.335789999999999,18.75,5.75,18.75ZM9.5,18C9.5,18.4142,9.16421,18.75,8.75,18.75C8.33579,18.75,8,18.4142,8,18C8,17.5858,8.33579,17.25,8.75,17.25C9.16421,17.25,9.5,17.5858,9.5,18Z" fill-rule="evenodd" fill="#165DFF" fill-opacity="1"/></g><g transform="matrix(-1,0,0,1,42.96009826660156,0)"><path d="M24.22246913330078,18.23517578125L24.22246913330078,17.65585578125L23.46680913330078,17.24367578125L22.98004913330078,17.568175781249998L22.98004913330078,18.29596578125L23.33815913330078,18.53469578125Q23.52970913330078,18.39116578125,23.75641913330078,18.31438578125Q23.983129133300782,18.23759578125,24.22246913330078,18.23517578125ZM24.26806913330078,21.58697578125Q24.17566913330078,21.65379578125,24.07421913330078,21.70588578125Q23.97276913330078,21.75796578125,23.86460913330078,21.79411578125Q23.75644913330078,21.83025578125,23.64407913330078,21.84964578125Q23.53169913330078,21.869025781250002,23.41767913330078,21.87119578125Q23.30365913330078,21.87336578125,23.19062913330078,21.85826578125Q23.07759913330078,21.84317578125,22.96813913330078,21.81117578125Q22.858689133300782,21.77916578125,22.75532913330078,21.73097578125Q22.65197913330078,21.68279578125,22.55708913330078,21.61953578125L20.647999133300782,20.34681578125Q20.49389813330078,20.24407578125,20.36940913330078,20.10694578125Q20.244929133300783,19.96981578125,20.15753913330078,19.806525781250002Q20.07014913330078,19.64323578125,20.02509913330078,19.46358578125Q19.98004913330078,19.28394578125,19.98004913330078,19.09873578125L19.98004913330078,16.76540578125Q19.98004913330078,16.58019578125,20.02509913330078,16.40055178125Q20.07014913330078,16.22090778125,20.15753913330078,16.05761578125Q20.244929133300783,15.89432378125,20.36940913330078,15.75719278125Q20.49389813330078,15.62006178125,20.647999133300782,15.517327581250001L22.55708913330078,14.24459578125Q22.64203913330078,14.18796578125,22.733879133300782,14.14336578125Q22.82571913330078,14.09876578125,22.92274913330078,14.067025781249999Q23.019789133300783,14.03527578125,23.120229133300782,14.01697578125Q23.22066913330078,13.99867578125,23.32266913330078,13.99414578125Q23.42466913330078,13.98962578125,23.52632913330078,13.99896578125Q23.627999133300783,14.00830578125,23.72746913330078,14.03132578125Q23.82692913330078,14.054355781249999,23.92235913330078,14.09064578125Q24.01778913330078,14.12694578125,24.10741913330078,14.17583578125L26.44074913330078,15.44855958125Q26.59812913330078,15.53440348125,26.73084913330078,15.654917781249999Q26.863569133300782,15.77543278125,26.96414913330078,15.92382978125Q27.06472913330078,16.07222578125,27.12749913330078,16.24014578125Q27.19027913330078,16.40806578125,27.21170913330078,16.58604578125Q27.303769133300783,16.52338578125,27.40406913330078,16.47499578125Q27.50436913330078,16.42660978125,27.610719133300783,16.39356578125Q27.71705913330078,16.36052178125,27.827119133300783,16.34354378125Q27.93717913330078,16.32656578125,28.04854913330078,16.32602678125Q28.15990913330078,16.32548778125,28.27012913330078,16.34139878125Q28.38033913330078,16.35730978125,28.48700913330078,16.38932278125Q28.593669133300782,16.42133578125,28.69442913330078,16.46874878125Q28.79519913330078,16.51616578125,28.88785913330078,16.577935781249998L30.79694913330078,17.85066578125Q30.95104913330078,17.95339578125,31.07553913330078,18.09052578125Q31.20001913330078,18.22765578125,31.28740913330078,18.39094578125Q31.374799133300783,18.55424578125,31.41984913330078,18.73388578125Q31.464899133300783,18.91352578125,31.464899133300783,19.09873578125L31.464899133300783,21.21994578125Q31.464899133300783,21.41421578125,31.41540913330078,21.60207578125Q31.365909133300782,21.78994578125,31.270199133300782,21.95899578125Q31.174479133300782,22.128055781249998,31.03884913330078,22.26714578125Q30.903229133300783,22.40623578125,30.73663913330078,22.50618578125L28.61542913330078,23.77891578125Q28.52840913330078,23.83112578125,28.435149133300783,23.87114578125Q28.341889133300782,23.911155781250002,28.244089133300783,23.93824578125Q28.146289133300783,23.965335781249998,28.04572913330078,23.979005781250002Q27.94516913330078,23.99267578125,27.84368913330078,23.99267578125Q27.74219913330078,23.99267578125,27.64164913330078,23.979005781250002Q27.54108913330078,23.965335781249998,27.44328913330078,23.93824578125Q27.34548913330078,23.911155781250002,27.25221913330078,23.87114578125Q27.158959133300783,23.83112578125,27.07193913330078,23.77891578125L24.950729133300783,22.50618578125Q24.824409133300783,22.43039578125,24.71523913330078,22.33147578125Q24.60607913330078,22.23254578125,24.51824913330078,22.11428578125Q24.43040913330078,21.99601578125,24.36726913330078,21.86291578125Q24.30411913330078,21.72981578125,24.26806913330078,21.58697578125ZM27.22246913330078,19.96229578125L27.22246913330078,20.37066578125L27.84368913330078,20.743385781249998L28.464899133300783,20.37066578125L28.464899133300783,19.901515781249998L28.10678913330078,19.662775781249998Q27.91523913330078,19.80630578125,27.688529133300783,19.88309578125Q27.461819133300782,19.95987578125,27.22246913330078,19.96229578125Z" fill-rule="evenodd" fill="#FFFFFF" fill-opacity="1"/></g><g transform="matrix(-1,0,0,1,42.96009826660156,0)"><path d="M23.68913913330078,20.77146578125L24.537629133300783,20.13509578125Q24.632049133300782,20.06427578125,24.68483913330078,19.95870578125Q24.737629133300782,19.85313578125,24.737629133300782,19.73509578125Q24.737629133300782,19.685855781249998,24.72801913330078,19.63755578125Q24.71840913330078,19.58925578125,24.69956913330078,19.54375578125Q24.68071913330078,19.498265781249998,24.653359133300782,19.45731578125Q24.62599913330078,19.41636578125,24.59117913330078,19.38154578125Q24.55635913330078,19.34672578125,24.515409133300782,19.31936578125Q24.47445913330078,19.29200578125,24.428969133300782,19.27315578125Q24.383469133300782,19.25431578125,24.33516913330078,19.24470578125Q24.286869133300783,19.23509578125,24.237629133300782,19.23509578125Q24.070959133300782,19.23509578125,23.93762913330078,19.33509578125L23.937319133300782,19.33532578125L23.37214913330078,19.75920578125L21.98004913330078,18.83114578125L21.98004913330078,17.03299578125L23.41502913330078,16.07634078125L25.22246913330078,17.06221578125L25.22246913330078,21.21994578125Q25.22246913330078,21.28470578125,25.23896913330078,21.34732578125Q25.25546913330078,21.409945781250002,25.287369133300782,21.46629578125Q25.319279133300782,21.52264578125,25.364489133300783,21.569015781250002Q25.40969913330078,21.615375781250002,25.46522913330078,21.648695781249998L27.586439133300782,22.92142578125Q27.644719133300782,22.95638578125,27.710219133300782,22.97453578125Q27.775719133300782,22.99267578125,27.84368913330078,22.99267578125Q27.91164913330078,22.99267578125,27.97714913330078,22.97453578125Q28.04264913330078,22.95638578125,28.10092913330078,22.92142578125L30.222149133300782,21.648695781249998Q30.277669133300783,21.615375781250002,30.32287913330078,21.569015781250002Q30.36808913330078,21.52264578125,30.39999913330078,21.46629578125Q30.43189913330078,21.409945781250002,30.448399133300782,21.34732578125Q30.464899133300783,21.28470578125,30.464899133300783,21.21994578125L30.464899133300783,19.09873578125Q30.464899133300783,19.03700578125,30.449879133300783,18.97711578125Q30.43486913330078,18.91723578125,30.40573913330078,18.86280578125Q30.376609133300782,18.80837578125,30.335109133300783,18.76266578125Q30.29361913330078,18.71695578125,30.24224913330078,18.68271578125L28.333159133300782,17.40998578125Q28.268599133300782,17.36694578125,28.19404913330078,17.34549578125Q28.11948913330078,17.32404578125,28.04193913330078,17.32620578125Q27.96437913330078,17.32835578125,27.89112913330078,17.35390578125Q27.817869133300782,17.37945578125,27.75580913330078,17.42600578125L26.90731913330078,18.06237578125Q26.812899133300782,18.13319578125,26.76010913330078,18.23876578125Q26.707319133300782,18.34433578125,26.707319133300782,18.46237578125Q26.707319133300782,18.51161578125,26.71692913330078,18.559915781249998Q26.726539133300783,18.60821578125,26.74537913330078,18.65371578125Q26.76422913330078,18.69921578125,26.791589133300782,18.74015578125Q26.81894913330078,18.781105781249998,26.85376913330078,18.81592578125Q26.888589133300783,18.85074578125,26.929539133300782,18.87810578125Q26.97047913330078,18.90546578125,27.01597913330078,18.92431578125Q27.061479133300782,18.94315578125,27.109779133300783,18.95276578125Q27.15807913330078,18.96237578125,27.207319133300782,18.96237578125Q27.373989133300782,18.96237578125,27.507319133300783,18.86237578125L27.50756913330078,18.86218578125L28.07279913330078,18.43826578125L29.464899133300783,19.36632578125L29.464899133300783,20.93685578125L27.84368913330078,21.90957578125L26.22246913330078,20.93685578125L26.22246913330078,16.76540578125Q26.22246913330078,16.69803578125,26.20463913330078,16.63306578125Q26.18680913330078,16.56810578125,26.152419133300782,16.51017578125Q26.11802913330078,16.45224078125,26.06953913330078,16.40547778125Q26.021039133300782,16.35871478125,25.961899133300783,16.32645478125L23.628569133300783,15.05372778125Q23.56853913330078,15.020983781249999,23.50191913330078,15.00555978125Q23.43529913330078,14.99013678125,23.36697913330078,14.99316678125Q23.29866913330078,14.99619678125,23.233679133300782,15.01745878125Q23.16868913330078,15.03871978125,23.111789133300782,15.07665078125L21.202699133300783,16.34937778125Q21.15133213330078,16.38362278125,21.109837133300783,16.42933278125Q21.06834213330078,16.47504378125,21.039212133300783,16.52947578125Q21.01008113330078,16.58390578125,20.99506513330078,16.64378578125Q20.98004913330078,16.70366578125,20.98004913330078,16.76540578125L20.98004913330078,19.09873578125Q20.98004913330078,19.16047578125,20.99506513330078,19.22035578125Q21.01008113330078,19.28023578125,21.039212133300783,19.33466578125Q21.06834213330078,19.38909578125,21.109837133300783,19.43480578125Q21.15133213330078,19.48051578125,21.202699133300783,19.51476578125L23.111789133300782,20.78748578125Q23.176339133300782,20.83052578125,23.25089913330078,20.85197578125Q23.325459133300782,20.87342578125,23.40300913330078,20.87126578125Q23.480569133300783,20.86911578125,23.55381913330078,20.84356578125Q23.627069133300783,20.81801578125,23.68913913330078,20.77146578125Z" fill-rule="evenodd" fill="#7BC0FC" fill-opacity="1"/></g></g></svg>