<svg xmlns="http://www.w3.org/2000/svg" xmlns:xlink="http://www.w3.org/1999/xlink" fill="none" version="1.1" width="24" height="24" viewBox="0 0 24 24"><defs><clipPath id="master_svg0_732_37662"><rect x="0" y="0" width="24" height="24" rx="0"/></clipPath></defs><g clip-path="url(#master_svg0_732_37662)"><g><path d="M15.749999927520753,6.000000476837158C15.749999927520753,8.071070476837157,14.071069927520751,9.750000476837158,11.99999992752075,9.750000476837158C9.928929927520752,9.750000476837158,8.249999927520753,8.071070476837157,8.249999927520753,6.000000476837158C8.249999927520753,3.9289304768371585,9.928929927520752,2.250000476837158,11.99999992752075,2.250000476837158C14.071069927520751,2.250000476837158,15.749999927520753,3.9289304768371585,15.749999927520753,6.000000476837158ZM4.635627927520752,18.814300476837158C5.302763927520752,15.348800476837159,8.350869927520751,12.740500476837159,11.99999992752075,12.740500476837159C15.649099927520751,12.740500476837159,18.69719992752075,15.348800476837159,19.36439992752075,18.814300476837158C19.514399927520753,19.593700476837157,19.03499992752075,20.342000476837157,18.291299927520754,20.619300476837157C16.282499927520753,21.36860047683716,14.152109927520751,21.75280047683716,12.001079927520752,21.750000476837158C12.00018992752075,21.750000476837158,11.999799927520751,21.750000476837158,11.998909927520753,21.750000476837158C9.784919927520752,21.74990047683716,7.664029927520752,21.35000047683716,5.704769927520752,20.61830047683716C4.961486927520752,20.340700476837156,4.485641827520752,19.593400476837157,4.635627927520752,18.814300476837158" fill="#165DFF" fill-opacity="1"/><path d="M15.181999927520751,2.8180194768371583Q13.863959927520751,1.5000004768371582,11.99999992752075,1.5000004768371582Q10.136039927520752,1.5000004768371582,8.818019927520751,2.8180194768371583Q7.4999999275207525,4.136040476837158,7.4999999275207525,6.000000476837158Q7.4999999275207525,7.863960476837158,8.818019927520751,9.181980476837158Q10.136039927520752,10.500000476837158,11.99999992752075,10.500000476837158Q13.863959927520751,10.500000476837158,15.181999927520751,9.181980476837158Q16.499999927520754,7.863960476837158,16.499999927520754,6.000000476837158Q16.499999927520754,4.136040476837158,15.181999927520751,2.8180194768371583ZM8.99999992752075,6.000000476837158Q8.99999992752075,3.0000014768371583,11.99999992752075,3.000000476837158Q14.999999927520753,3.000000476837158,14.999999927520753,6.000000476837158Q14.999999927520753,9.000000476837158,11.99999992752075,9.000000476837158Q8.99999992752075,9.000000476837158,8.99999992752075,6.000000476837158ZM5.442386927520752,21.32090047683716Q8.599169927520752,22.49980047683716,11.99886992752075,22.500000476837158L11.998909927520753,22.500000476837158L12.000109927520752,22.500000476837158Q15.383399927520752,22.50440047683716,18.55339992752075,21.322100476837157Q20.47309992752075,20.60600047683716,20.10089992752075,18.672500476837158Q19.54609992752075,15.790700476837157,17.28069992752075,13.901800476837158Q14.988499927520753,11.990460476837159,11.99999992752075,11.990460476837159Q9.011509927520752,11.990460476837159,6.719259927520752,13.901800476837158Q4.453925827520752,15.790700476837157,3.899149927520752,18.672500476837158Q3.527019927520752,20.605600476837157,5.442386927520752,21.32090047683716ZM11.998959927520751,21.000000476837158L11.998909927520753,21.000000476837158Q8.870139927520752,20.99980047683716,5.967159927520752,19.91570047683716Q5.239673927520752,19.644000476837157,5.372104927520752,18.956100476837157Q6.424269927520752,13.490500476837159,11.99999992752075,13.490500476837159Q17.575699927520752,13.490500476837159,18.62789992752075,18.956100476837157Q18.76029992752075,19.643900476837157,18.02919992752075,19.916600476837157Q15.113699927520752,21.00400047683716,12.002049927520751,21.000000476837158L11.998959927520751,21.000000476837158Z" fill-rule="evenodd" fill="#165DFF" fill-opacity="1"/></g><g transform="matrix(0,1,-1,0,37.00091552734375,-9.00091552734375)"><ellipse cx="28.00091552734375" cy="19" rx="5" ry="5" fill="#FFFFFF" fill-opacity="1"/></g><g transform="matrix(0,1,-1,0,37.00091552734375,-7.00091552734375)"><ellipse cx="26.00091552734375" cy="19" rx="4" ry="4" fill="#165DFF" fill-opacity="1"/></g><g><path d="M17.50091552734375,17Q17.50091552734375,16.9507543,17.51052252734375,16.9024549Q17.52013052734375,16.854155,17.53897552734375,16.808658Q17.55782152734375,16.763161,17.58518052734375,16.722215Q17.61254052734375,16.681269,17.64736252734375,16.646447Q17.68218452734375,16.611625,17.72313052734375,16.584265Q17.76407652734375,16.556906,17.80957352734375,16.53806Q17.85507052734375,16.519215,17.90337042734375,16.509607Q17.95166982734375,16.5,18.00091552734375,16.5Q18.05016122734375,16.5,18.09846062734375,16.509607Q18.14676052734375,16.519215,18.19225752734375,16.53806Q18.23775452734375,16.556906,18.27870052734375,16.584265Q18.31964652734375,16.611625,18.35446852734375,16.646447Q18.38929052734375,16.681269,18.41665052734375,16.722215Q18.44400952734375,16.763161,18.46285552734375,16.808658Q18.48170052734375,16.854155,18.49130852734375,16.9024549Q18.50091552734375,16.9507543,18.50091552734375,17L18.50091552734375,18.5L19.60091552734375,18.5Q19.65016552734375,18.5,19.69845552734375,18.50961Q19.74675552734375,18.51921,19.792255527343748,18.53806Q19.83775552734375,18.55691,19.87869552734375,18.58426Q19.91964552734375,18.61162,19.95446552734375,18.64645Q19.98929552734375,18.68127,20.01664552734375,18.72221Q20.04400552734375,18.76316,20.06285552734375,18.80866Q20.08170552734375,18.85416,20.09130552734375,18.90245Q20.10091552734375,18.95075,20.10091552734375,19Q20.10091552734375,19.04925,20.09130552734375,19.09754Q20.08170552734375,19.14584,20.06285552734375,19.19134Q20.04400552734375,19.23684,20.01664552734375,19.27778Q19.98929552734375,19.31873,19.95446552734375,19.35355Q19.91964552734375,19.38838,19.87869552734375,19.41573Q19.83775552734375,19.44309,19.792255527343748,19.46194Q19.74675552734375,19.48078,19.69845552734375,19.49039Q19.65016552734375,19.5,19.60091552734375,19.5L18.00091552734375,19.5Q17.95166982734375,19.5,17.90337042734375,19.49039Q17.85507052734375,19.48078,17.80957352734375,19.46194Q17.76407652734375,19.44309,17.72313052734375,19.41573Q17.68218452734375,19.38838,17.64736252734375,19.35355Q17.61254052734375,19.31873,17.58518052734375,19.27779Q17.55782152734375,19.23684,17.53897552734375,19.19134Q17.52013052734375,19.14584,17.51052252734375,19.09754Q17.50091552734375,19.04925,17.50091552734375,19L17.50091552734375,17Z" fill-rule="evenodd" fill="#FFFFFF" fill-opacity="1"/></g></g></svg>