<svg xmlns="http://www.w3.org/2000/svg" viewBox="0 0 18 18">
  <g id="图层_2" data-name="图层 2">
    <g id="图层_1-2" data-name="图层 1">
      <g id="IconAomMenuCMDBPZColor">
        <rect fill="#30b0f0" width="18" height="18" rx="4" />
        <path fill="#fff"
          d="M14,6.87a1,1,0,0,0-.56-.75l-3.84-2a1.25,1.25,0,0,0-1.16,0l-3.84,2A1,1,0,0,0,4,6.87L9,9.44Z" />
        <path fill="#fff" d="M14,9.27V7.81L9.23,10.27a.47.47,0,0,1-.46,0L4,7.81V9.27l5,2.58Z" />
        <path fill="#fff"
          d="M9.23,12.69a.55.55,0,0,1-.46,0L4,10.23V11a1,1,0,0,0,.58.9l3.84,2a1.25,1.25,0,0,0,1.16,0l3.84-2A1,1,0,0,0,14,11v-.75Z" />
      </g>
    </g>
  </g>
</svg>