<svg id="图层_1" data-name="图层 1" xmlns="http://www.w3.org/2000/svg" viewBox="0 0 18 18">
  <defs>
    <style>
      .j6bhgc71 {
        fill: #854bfa;
      }

      .j6bhgc72 {
        fill: #fff;
      }
    </style>
  </defs>
  <g id="IconAomMenuGJKGLColor">
    <rect class="j6bhgc71" width="18" height="18" rx="4" />
  </g>
  <path class="j6bhgc72"
    d="M8.73,11.3a3.19,3.19,0,0,1,3.18-3.18,2.93,2.93,0,0,1,.67.08A3.78,3.78,0,0,0,9.53,4.81V4.72a.84.84,0,0,0-1.68,0v.09A3.77,3.77,0,0,0,4.78,8.44v2.43a1.22,1.22,0,0,1-.47,1l-.13.1a.53.53,0,0,0-.23.44.56.56,0,0,0,.56.55H7.3A1.38,1.38,0,0,0,8.69,14.3a1.4,1.4,0,0,0,1.15-.6A3.18,3.18,0,0,1,8.73,11.3Z" />
  <path class="j6bhgc72"
    d="M11.91,9a2.34,2.34,0,1,0,2.34,2.34A2.33,2.33,0,0,0,11.91,9ZM13,11.88a.42.42,0,0,1-.37.22.49.49,0,0,1-.2,0l-.71-.39a.4.4,0,0,1-.22-.36v-1a.41.41,0,0,1,.42-.41.41.41,0,0,1,.41.41v.75l.5.27A.41.41,0,0,1,13,11.88Z" />
</svg>