<svg xmlns="http://www.w3.org/2000/svg" xmlns:xlink="http://www.w3.org/1999/xlink" fill="none" version="1.1" width="24" height="24" viewBox="0 0 24 24"><defs><clipPath id="master_svg0_732_59993"><rect x="0" y="0" width="24" height="24" rx="0"/></clipPath></defs><g clip-path="url(#master_svg0_732_59993)"><g><path d="M6,22C4.895431,22,4,21.1046,4,20L4.00000847578,4C4.0000089959,2.89543,4.895439,2,6.00001,2L18,2C19.104599999999998,2,20,2.895431,20,4L20,13.4004Q19.082900000000002,13,18,13Q16.555300000000003,13,15.4715,13.6269C15.2732,13.5308,15.0512,13.4773,14.8182,13.4773C13.98978,13.4773,13.31821,14.1489,13.31821,14.9773L13.31821,16.25C13.31821,16.4865,13.37293,16.7102,13.47041,16.909100000000002C13.1717,17.191000000000003,13,17.5851,13,18Q13,20.0711,14.4645,21.5355Q14.7188,21.7898,14.9914,22L6,22Z" fill-rule="evenodd" fill="#FF7D00" fill-opacity="1"/></g><g><path d="M9.763026533203124,6.7227128125Q9.868516533203124,6.6172238125,9.925606533203124,6.4793958125Q9.982696533203125,6.3415668125,9.982696533203125,6.1923828125Q9.982696533203125,6.1185143125,9.968286533203125,6.0460648125Q9.953876533203125,5.9736158125,9.925606533203124,5.9053698125Q9.897336533203125,5.8371248125,9.856296533203125,5.7757048125Q9.815256533203126,5.7142858125,9.763026533203124,5.6620528125Q9.710796533203125,5.6098198125,9.649376533203124,5.5687808125Q9.587956533203124,5.5277418125,9.519706533203125,5.4994728125Q9.451466533203124,5.4712048125,9.379016533203124,5.4567938125Q9.306566533203124,5.4423828125,9.232696533203125,5.4423828125Q9.083516533203126,5.4423828125,8.945686533203125,5.4994728125Q8.807856533203125,5.5565638125,8.702366533203126,5.6620528125L7.607696533203125,6.7567228125L7.325526533203125,6.4745528125Q7.220037533203125,6.3690638125,7.082209533203125,6.3119728125Q6.944380533203125,6.2548828125,6.795196533203125,6.2548828125Q6.721328033203125,6.2548828125,6.648878533203125,6.2692938125Q6.576429533203125,6.2837049125,6.508183533203125,6.3119728125Q6.439938533203125,6.3402418125,6.378518533203125,6.3812808125Q6.317099533203125,6.4223198125,6.264866533203125,6.4745528125Q6.212633533203125,6.5267858125,6.171594533203125,6.5882048125Q6.130555533203125,6.6496248125,6.102286533203125,6.7178698125Q6.074018533203125,6.7861158125,6.059607533203125,6.8585648125Q6.045196533203125,6.9310138125,6.045196533203125,7.0048828125Q6.045196533203125,7.1540668125,6.102286533203125,7.2918928125Q6.159377533203125,7.4297228125,6.264866533203125,7.5352128125L7.077366533203125,8.3477128125Q7.182855533203125,8.453202812499999,7.320683533203125,8.5102928125Q7.458512533203125,8.5673828125,7.607696533203125,8.5673828125Q7.756880533203125,8.5673828125,7.894706533203125,8.5102928125Q8.032536533203125,8.453202812499999,8.138026533203124,8.3477128125L9.762786533203125,6.7229478125L9.763026533203124,6.7227128125L9.763026533203124,6.7227128125Z" fill-rule="evenodd" fill="#FFFFFF" fill-opacity="1"/></g><g><path d="M12.00006103515625,6.25390625L17.00006103515625,6.25390625Q17.07393103515625,6.25390625,17.14638103515625,6.26831725Q17.21883103515625,6.28272825,17.287071035156252,6.31099625Q17.35532103515625,6.33926525,17.41674103515625,6.38030425Q17.47816103515625,6.42134325,17.53039103515625,6.47357625Q17.58262103515625,6.52580925,17.62366103515625,6.58722825Q17.66470103515625,6.64864825,17.69297103515625,6.71689325Q17.72124103515625,6.78513925,17.735651035156252,6.85758825Q17.75006103515625,6.93003775,17.75006103515625,7.00390625Q17.75006103515625,7.07777475,17.735651035156252,7.15022425Q17.72124103515625,7.22267325,17.69297103515625,7.29091925Q17.66470103515625,7.35916425,17.62366103515625,7.42058425Q17.58262103515625,7.48200325,17.53039103515625,7.53423625Q17.47816103515625,7.58646925,17.41674103515625,7.62750825Q17.35532103515625,7.66854725,17.287071035156252,7.69681625Q17.21883103515625,7.72508425,17.14638103515625,7.73949525Q17.07393103515625,7.75390625,17.00006103515625,7.75390625L12.00006103515625,7.75390625Q11.92619253515625,7.75390625,11.85374303515625,7.73949525Q11.78129403515625,7.72508425,11.71304803515625,7.69681625Q11.64480303515625,7.66854725,11.58338303515625,7.62750825Q11.52196403515625,7.58646925,11.46973103515625,7.53423625Q11.41749803515625,7.48200325,11.37645903515625,7.42058425Q11.33542003515625,7.35916425,11.30715103515625,7.29091925Q11.27888303515625,7.22267325,11.264472035156249,7.15022425Q11.25006103515625,7.07777475,11.25006103515625,7.00390625Q11.25006103515625,6.93003775,11.264472035156249,6.85758825Q11.27888303515625,6.78513925,11.30715103515625,6.71689325Q11.33542003515625,6.64864825,11.37645903515625,6.58722825Q11.41749803515625,6.52580925,11.46973103515625,6.47357625Q11.52196403515625,6.42134325,11.58338303515625,6.38030425Q11.64480303515625,6.33926525,11.71304803515625,6.31099625Q11.78129403515625,6.28272825,11.85374303515625,6.26831725Q11.92619253515625,6.25390625,12.00006103515625,6.25390625Z" fill-rule="evenodd" fill="#FFFFFF" fill-opacity="1"/></g><g><path d="M9.763026533203124,11.3477128125Q9.868516533203124,11.2422238125,9.925606533203124,11.1043958125Q9.982696533203125,10.9665668125,9.982696533203125,10.8173828125Q9.982696533203125,10.7435143125,9.968286533203125,10.6710648125Q9.953876533203125,10.5986158125,9.925606533203124,10.5303698125Q9.897336533203125,10.4621248125,9.856296533203125,10.4007048125Q9.815256533203126,10.3392858125,9.763026533203124,10.2870528125Q9.710796533203125,10.2348198125,9.649376533203124,10.1937808125Q9.587956533203124,10.1527418125,9.519706533203125,10.1244728125Q9.451466533203124,10.0962048125,9.379016533203124,10.081793812499999Q9.306566533203124,10.0673828125,9.232696533203125,10.0673828125Q9.083516533203126,10.0673828125,8.945686533203125,10.1244728125Q8.807856533203125,10.1815638125,8.702366533203126,10.2870528125L7.607696533203125,11.3817228125L7.325526533203125,11.0995528125Q7.220037533203125,10.9940638125,7.082209533203125,10.9369728125Q6.944380533203125,10.8798828125,6.795196533203125,10.8798828125Q6.721328033203125,10.8798828125,6.648878533203125,10.8942938125Q6.576429533203125,10.9087049125,6.508183533203125,10.9369728125Q6.439938533203125,10.9652418125,6.378518533203125,11.0062808125Q6.317099533203125,11.0473198125,6.264866533203125,11.0995528125Q6.212633533203125,11.1517858125,6.171594533203125,11.2132048125Q6.130555533203125,11.2746248125,6.102286533203125,11.3428698125Q6.074018533203125,11.4111158125,6.059607533203125,11.4835648125Q6.045196533203125,11.5560138125,6.045196533203125,11.6298828125Q6.045196533203125,11.7790668125,6.102286533203125,11.9168928125Q6.159377533203125,12.0547228125,6.264866533203125,12.1602128125L7.077366533203125,12.9727128125Q7.182855533203125,13.078202812499999,7.320683533203125,13.1352928125Q7.458512533203125,13.1923828125,7.607696533203125,13.1923828125Q7.756880533203125,13.1923828125,7.894706533203125,13.1352928125Q8.032536533203125,13.078202812499999,8.138026533203124,12.9727128125L9.762786533203125,11.3479478125L9.763026533203124,11.3477128125L9.763026533203124,11.3477128125Z" fill-rule="evenodd" fill="#FFFFFF" fill-opacity="1"/></g><g><path d="M12.00006103515625,10.87890625L17.00006103515625,10.87890625Q17.07393103515625,10.87890625,17.14638103515625,10.893317249999999Q17.21883103515625,10.90772825,17.287071035156252,10.93599625Q17.35532103515625,10.96426525,17.41674103515625,11.00530425Q17.47816103515625,11.04634325,17.53039103515625,11.09857625Q17.58262103515625,11.15080925,17.62366103515625,11.21222825Q17.66470103515625,11.27364825,17.69297103515625,11.34189325Q17.72124103515625,11.41013925,17.735651035156252,11.48258825Q17.75006103515625,11.55503775,17.75006103515625,11.62890625Q17.75006103515625,11.70277475,17.735651035156252,11.77522425Q17.72124103515625,11.84767325,17.69297103515625,11.91591925Q17.66470103515625,11.98416425,17.62366103515625,12.04558425Q17.58262103515625,12.10700325,17.53039103515625,12.15923625Q17.47816103515625,12.21146925,17.41674103515625,12.25250825Q17.35532103515625,12.29354725,17.287071035156252,12.32181625Q17.21883103515625,12.35008425,17.14638103515625,12.364495250000001Q17.07393103515625,12.37890625,17.00006103515625,12.37890625L12.00006103515625,12.37890625Q11.92619253515625,12.37890625,11.85374303515625,12.364495250000001Q11.78129403515625,12.35008425,11.71304803515625,12.32181625Q11.64480303515625,12.29354725,11.58338303515625,12.25250825Q11.52196403515625,12.21146925,11.46973103515625,12.15923625Q11.41749803515625,12.10700325,11.37645903515625,12.04558425Q11.33542003515625,11.98416425,11.30715103515625,11.91591925Q11.27888303515625,11.84767325,11.264472035156249,11.77522425Q11.25006103515625,11.70277475,11.25006103515625,11.62890625Q11.25006103515625,11.55503775,11.264472035156249,11.48258825Q11.27888303515625,11.41013925,11.30715103515625,11.34189325Q11.33542003515625,11.27364825,11.37645903515625,11.21222825Q11.41749803515625,11.15080925,11.46973103515625,11.09857625Q11.52196403515625,11.04634325,11.58338303515625,11.00530425Q11.64480303515625,10.96426525,11.71304803515625,10.93599625Q11.78129403515625,10.90772825,11.85374303515625,10.893317249999999Q11.92619253515625,10.87890625,12.00006103515625,10.87890625Z" fill-rule="evenodd" fill="#FFFFFF" fill-opacity="1"/></g><g><path d="M9.763026533203124,15.9727128125Q9.868516533203124,15.8672238125,9.925606533203124,15.7293958125Q9.982696533203125,15.5915668125,9.982696533203125,15.4423828125Q9.982696533203125,15.3685143125,9.968286533203125,15.2960648125Q9.953876533203125,15.2236158125,9.925606533203124,15.1553698125Q9.897336533203125,15.0871248125,9.856296533203125,15.0257048125Q9.815256533203126,14.9642858125,9.763026533203124,14.9120528125Q9.710796533203125,14.8598198125,9.649376533203124,14.8187808125Q9.587956533203124,14.7777418125,9.519706533203125,14.7494728125Q9.451466533203124,14.7212048125,9.379016533203124,14.706793812499999Q9.306566533203124,14.6923828125,9.232696533203125,14.6923828125Q9.083516533203126,14.6923828125,8.945686533203125,14.7494728125Q8.807856533203125,14.8065638125,8.702366533203126,14.9120528125L7.607696533203125,16.0067228125L7.325526533203125,15.7245528125Q7.220037533203125,15.6190638125,7.082209533203125,15.5619728125Q6.944380533203125,15.5048828125,6.795196533203125,15.5048828125Q6.721328033203125,15.5048828125,6.648878533203125,15.5192938125Q6.576429533203125,15.5337049125,6.508183533203125,15.5619728125Q6.439938533203125,15.5902418125,6.378518533203125,15.6312808125Q6.317099533203125,15.6723198125,6.264866533203125,15.7245528125Q6.212633533203125,15.7767858125,6.171594533203125,15.8382048125Q6.130555533203125,15.8996248125,6.102286533203125,15.9678698125Q6.074018533203125,16.0361158125,6.059607533203125,16.1085648125Q6.045196533203125,16.1810138125,6.045196533203125,16.2548828125Q6.045196533203125,16.404066812499998,6.102286533203125,16.5418928125Q6.159377533203125,16.6797228125,6.264866533203125,16.7852128125L7.077366533203125,17.5977128125Q7.182855533203125,17.7032028125,7.320683533203125,17.7602928125Q7.458512533203125,17.8173828125,7.607696533203125,17.8173828125Q7.756880533203125,17.8173828125,7.894706533203125,17.7602928125Q8.032536533203125,17.7032028125,8.138026533203124,17.5977128125L9.762786533203125,15.9729478125L9.763026533203124,15.9727128125L9.763026533203124,15.9727128125Z" fill-rule="evenodd" fill="#FFFFFF" fill-opacity="1"/></g><g><g><path d="M15.255712985992432,15.02407138671875Q15.258212985992431,15.00071938671875,15.258212985992431,14.97723388671875Q15.258212985992431,14.93389768671875,15.249758985992433,14.89139418671875Q15.241303985992431,14.84889088671875,15.224719985992431,14.80885288671875Q15.208135985992431,14.76881588671875,15.184059985992432,14.73278288671875Q15.159982985992432,14.69674988671875,15.129339985992432,14.66610688671875Q15.098696985992431,14.63546388671875,15.062663985992431,14.61138688671875Q15.026630985992432,14.58731088671875,14.986593985992432,14.57072688671875Q14.94655598599243,14.55414288671875,14.904052685992431,14.54568788671875Q14.861549185992432,14.53723388671875,14.818212985992432,14.53723388671875Q14.774876785992431,14.53723388671875,14.732373285992432,14.54568788671875Q14.689869985992432,14.55414288671875,14.649831985992432,14.57072688671875Q14.609794985992432,14.58731088671875,14.573761985992432,14.61138688671875Q14.537728985992432,14.63546388671875,14.50708598599243,14.66610688671875Q14.476442985992431,14.69674988671875,14.452365985992431,14.73278288671875Q14.428289985992432,14.76881588671875,14.411705985992432,14.80885288671875Q14.395121985992432,14.84889088671875,14.38666698599243,14.89139418671875Q14.378212985992432,14.93389768671875,14.378212985992432,14.97723388671875Q14.378212985992432,15.00071938671875,14.380712985992432,15.02407138671875L14.380712985992432,16.24995388671875Q14.380712985992432,16.29304388671875,14.389119985992432,16.33531388671875Q14.397525985992432,16.37757388671875,14.414015985992432,16.41738388671875Q14.430505985992431,16.45719388671875,14.454444985992431,16.49302388671875Q14.478384985992431,16.52884388671875,14.508853985992431,16.55931388671875Q14.539322985992431,16.58978388671875,14.575150985992432,16.61372388671875Q14.610978985992432,16.63766388671875,14.650788985992431,16.65415388671875Q14.690598985992432,16.67064388671875,14.732860985992431,16.67905388671875Q14.775122985992432,16.68745388671875,14.818212985992432,16.68745388671875L16.04410298599243,16.68745388671875Q16.067452985992432,16.68995388671875,16.09094298599243,16.68995388671875Q16.13428298599243,16.68995388671875,16.176782985992432,16.68150388671875Q16.219282985992432,16.67304388671875,16.25932298599243,16.65646388671875Q16.29936298599243,16.63988388671875,16.33539298599243,16.61580388671875Q16.37142298599243,16.59172388671875,16.402072985992433,16.561083886718748Q16.43271298599243,16.53044388671875,16.456792985992433,16.49440388671875Q16.48086298599243,16.45837388671875,16.49745298599243,16.41833388671875Q16.514032985992433,16.37830388671875,16.522482985992433,16.33579388671875Q16.530942985992432,16.29329388671875,16.530942985992432,16.24995388671875Q16.530942985992432,16.20662388671875,16.522482985992433,16.16411388671875Q16.514032985992433,16.121613886718748,16.49745298599243,16.08157388671875Q16.48086298599243,16.04154388671875,16.456792985992433,16.00550388671875Q16.43271298599243,15.96947388671875,16.402072985992433,15.93883088671875Q16.37142298599243,15.90818788671875,16.33539298599243,15.88411188671875Q16.29936298599243,15.86003488671875,16.25932298599243,15.84345088671875Q16.219282985992432,15.82686688671875,16.176782985992432,15.81841288671875Q16.13428298599243,15.80995788671875,16.09094298599243,15.80995788671875Q16.067452985992432,15.80995788671875,16.04410298599243,15.81245788671875L15.255712985992432,15.81245788671875L15.255712985992432,15.02407138671875Z" fill-rule="evenodd" fill="#FF7D00" fill-opacity="1"/></g><g><path d="M15.369614,16.43037Q15.343513,16.48832,15.302081,16.53651Q15.26065,16.5847,15.207274,16.6192Q15.153899,16.6537,15.092944,16.67168Q15.031988,16.68967,14.968435,16.68967Q14.925099,16.68967,14.882595,16.68121Q14.840091,16.67276,14.800054,16.65617Q14.760017,16.63959,14.723984,16.61551Q14.687951,16.59144,14.657308,16.56079Q14.626664,16.53015,14.602588,16.49412Q14.5785119,16.45809,14.5619278,16.41805Q14.5453438,16.37801,14.5368893,16.33551Q14.5284348,16.293,14.5284348,16.249670000000002Q14.5284348,16.10484,14.614456,15.98833Q15.75299,14.0625,18,14.0625Q19.630969999999998,14.0625,20.78423,15.215767Q21.9375,16.36903,21.9375,18Q21.9375,19.630969999999998,20.78423,20.78423Q19.630969999999998,21.9375,18,21.9375Q16.36903,21.9375,15.215767,20.78423Q14.079947,19.64841,14.062764,18.04924Q14.06,18.0247,14.06,18Q14.06,17.95666,14.068454,17.91416Q14.076909,17.87166,14.093493,17.83162Q14.110077,17.79158,14.134153,17.75555Q14.15823,17.71952,14.188873,17.68887Q14.219516,17.65823,14.255549,17.634149999999998Q14.291582,17.61008,14.331619,17.59349Q14.371657,17.576909999999998,14.4141603,17.56845Q14.4566638,17.56,14.5,17.56Q14.5433362,17.56,14.5858397,17.56845Q14.628343,17.576909999999998,14.668381,17.59349Q14.708418,17.61008,14.744451,17.634149999999998Q14.780484,17.65823,14.811127,17.68887Q14.84177,17.71952,14.865847,17.75555Q14.889923,17.79158,14.906507,17.83162Q14.923091,17.87166,14.931546,17.91416Q14.94,17.95666,14.94,18Q14.94,18.02216,14.937774,18.04421Q14.953169,19.2842,15.83449,20.16552Q16.73147,21.0625,18,21.0625Q19.26853,21.0625,20.16552,20.16551Q21.0625,19.26853,21.0625,18Q21.0625,16.73147,20.16551,15.83449Q19.26853,14.9375,18,14.9375Q16.25542,14.9375,15.369614,16.43037Z" fill-rule="evenodd" fill="#FF7D00" fill-opacity="1"/></g><g><path d="M18.438370187835694,15.946881176158142Q18.440875187835694,15.923507476158141,18.440875187835694,15.899999976158142Q18.440875187835694,15.856663776158141,18.432420187835692,15.814160276158143Q18.423966187835692,15.771656976158143,18.407382187835694,15.731618976158142Q18.390798187835692,15.691581976158142,18.366722187835695,15.655548976158142Q18.342645187835693,15.619515976158143,18.312002187835695,15.588872976158141Q18.281359187835694,15.558229976158142,18.245326187835694,15.534152976158142Q18.209293187835694,15.510076976158143,18.169256187835693,15.493492976158143Q18.129218187835693,15.476908976158143,18.086714887835694,15.468453976158141Q18.044211387835695,15.459999976158143,18.000875144835693,15.459999976158143Q17.957538887835693,15.459999976158143,17.915035387835694,15.468453976158141Q17.872532187835695,15.476908976158143,17.832494187835692,15.493492976158143Q17.792457187835694,15.510076976158143,17.756424187835695,15.534152976158142Q17.720391187835695,15.558229976158142,17.689748187835693,15.588872976158141Q17.659105187835692,15.619515976158143,17.635028187835694,15.655548976158142Q17.610952187835693,15.691581976158142,17.594368187835695,15.731618976158142Q17.577784187835693,15.771656976158143,17.56932918783569,15.814160276158143Q17.560875187835695,15.856663776158141,17.560875187835695,15.899999976158142Q17.560875187835695,15.923463476158142,17.563370187835694,15.946793976158142L17.563165187835693,18.001499976158144Q17.563156187835695,18.088529976158142,17.596459187835695,18.168939976158143Q17.629762187835695,18.249359976158143,17.691306187835693,18.31089997615814L19.142085187835693,19.761669976158142Q19.20472518783569,19.839339976158143,19.294755187835694,19.88238997615814Q19.384775187835693,19.92543997615814,19.484565187835692,19.92543997615814Q19.527895187835693,19.92543997615814,19.570395187835693,19.916979976158142Q19.612905187835693,19.908529976158142,19.652945187835694,19.89193997615814Q19.692975187835692,19.87535997615814,19.729015187835692,19.851279976158143Q19.765045187835693,19.82720997615814,19.795685187835694,19.796559976158143Q19.826335187835692,19.76591997615814,19.850405187835694,19.72988997615814Q19.874485187835692,19.69384997615814,19.891065187835693,19.653819976158143Q19.907655187835694,19.613779976158142,19.916105187835694,19.571269976158142Q19.924565187835693,19.52876997615814,19.924565187835693,19.48543997615814Q19.924565187835693,19.385649976158142,19.881515187835692,19.295629976158143Q19.838465187835695,19.20559997615814,19.760795187835694,19.142959976158142L18.438183187835694,17.82033997615814L18.438370187835694,15.946881176158142Z" fill-rule="evenodd" fill="#FF7D00" fill-opacity="1"/></g></g></g></svg>