<svg xmlns="http://www.w3.org/2000/svg" xmlns:xlink="http://www.w3.org/1999/xlink" fill="none" version="1.1" width="24" height="24" viewBox="0 0 24 24"><defs><clipPath id="master_svg0_1372_41232"><rect x="0" y="0" width="24" height="24" rx="0"/></clipPath></defs><g clip-path="url(#master_svg0_1372_41232)"><g><g><path d="M12.000043628845216,13.396603257446289C10.685823628845215,13.396603257446289,9.047283628845214,13.16700325744629,7.130133628845215,12.713827257446288L7.340943628845215,11.821573257446289C9.189253628845215,12.25867125744629,10.756593628845215,12.47949825744629,11.999993628845214,12.47949825744629C13.201783628845215,12.47949825744629,14.709053628845215,12.27273025744629,16.480143628845212,11.863880757446289L16.686223628845212,12.756823257446289C14.848013628845216,13.181113257446288,13.271003628845214,13.396603257446289,12.000043628845216,13.396603257446289Z" fill="#FFB600" fill-opacity="1" style="mix-blend-mode:passthrough"/></g><g><path d="M5.1022193842010495,17.709571474456787L4.28718638420105,17.290571474456787L11.25813638420105,3.731999674456787L11.00235638420105,6.234241474456788L5.1022193842010495,17.709571474456787ZM18.90458638420105,17.733071474456786L11.97079638420105,4.237546474456787L12.71708638420105,3.683671474456787L19.72028638420105,17.31407147445679L18.90458638420105,17.733071474456786Z" fill="#FFB600" fill-opacity="1" style="mix-blend-mode:passthrough"/></g><g><path d="M10.62504768371582,4.083848476409912L13.37503768371582,4.083848476409912L13.37503768371582,19.039648476409912L10.62504768371582,19.039648476409912L10.62504768371582,4.083848476409912Z" fill="#FFC959" fill-opacity="1" style="mix-blend-mode:passthrough"/></g><g><path d="M12.0000262310791,1.0000000418243C10.734436231079101,1.0000000418243,9.708246231079102,2.02584,9.708246231079102,3.29212C9.708246231079102,4.556979999999999,10.734436231079101,5.58286,12.0000262310791,5.58286C13.265616231079102,5.58286,14.292146231079101,4.556979999999999,14.292146231079101,3.29212C14.292146231079101,2.02584,13.265616231079102,0.999999790058,12.0000262310791,1.0000000418243ZM12.0000262310791,3.74999C11.746906231079102,3.74999,11.541816231079101,3.54455,11.541816231079101,3.29212C11.541816231079101,3.03831,11.746946231079102,2.8328800000000003,12.0000262310791,2.8328800000000003C12.253096231079102,2.8328800000000003,12.458226231079102,3.03831,12.458226231079102,3.29212C12.458226231079102,3.54455,12.253136231079102,3.74999,12.0000262310791,3.74999Z" fill="#FFB600" fill-opacity="1" style="mix-blend-mode:passthrough"/></g><g><path d="M21.604841015625,16.321157455444336L21.195341015625,16.466183455444337C18.247941015625,17.508837455444336,15.154241015625,18.036527455444336,11.999741015625,18.036527455444336C8.845561015625,18.036527455444336,5.751831015625,17.508837455444336,2.8047910156249998,16.466183455444337L2.394911015625,16.321157455444336L1.092041015625,19.466577455444337L1.525097015625,19.637747455444337C4.8591810156249995,20.956387455444336,8.383611015625,21.625067455444338,12.000041015625,21.625067455444338C15.616141015625,21.625067455444338,19.140841015625,20.956347455444337,22.474941015625,19.637097455444337L22.907941015625,19.466577455444337L21.604841015625,16.321157455444336Z" fill="#FFC959" fill-opacity="1" style="mix-blend-mode:passthrough"/></g><g><path d="M12.458239479797363,12.916557951477051C12.458239479797363,13.17032095147705,12.253104479797363,13.375110951477051,12.000030479797363,13.375110951477051C11.746955479797363,13.375110951477051,11.541821479797363,13.17032095147705,11.541821479797363,12.916557951477051C11.541821479797363,12.663440951477051,11.746955479797363,12.45800495147705,12.000030479797363,12.45800495147705C12.253104479797363,12.45800495147705,12.458239479797363,12.66348295147705,12.458239479797363,12.916557951477051Z" fill="#644A08" fill-opacity="1" style="mix-blend-mode:passthrough"/></g><g><path d="M12.000031961669922,16.5836124420166C10.481021961669923,16.5836124420166,9.250041961669922,17.8149324420166,9.250041961669922,19.333592442016602L9.250041961669922,23.0000024420166L14.750011961669923,23.0000024420166L14.750011961669923,19.333592442016602C14.750011961669923,17.8148924420166,13.518691961669923,16.5836124420166,12.000031961669922,16.5836124420166Z" fill="#FFB600" fill-opacity="1" style="mix-blend-mode:passthrough"/></g><g><path d="M12.000014906799317,20.25006396057129C11.494466906799316,20.25006396057129,11.083252906799316,19.83851396057129,11.083252906799316,19.33364996057129C11.083252906799316,18.82810196057129,11.494467906799317,18.41654396057129,12.000014906799317,18.41654396057129C12.505222906799316,18.41654396057129,12.916432906799317,18.82810196057129,12.916432906799317,19.33364996057129C12.916432906799317,19.83851396057129,12.505222906799316,20.25006396057129,12.000014906799317,20.25006396057129Z" fill="#644A08" fill-opacity="1" style="mix-blend-mode:passthrough"/></g><g><path d="M12.00001768371582,17.95859146118164C11.24066568371582,17.95859146118164,10.62504768371582,18.57360646118164,10.62504768371582,19.33356146118164C10.62504768371582,20.09287146118164,11.24066568371582,20.70853146118164,12.00001768371582,20.70853146118164C12.75932768371582,20.70853146118164,13.37498768371582,20.09287146118164,13.37498768371582,19.33356146118164C13.37498768371582,18.57360646118164,12.75932768371582,17.95859146118164,12.00001768371582,17.95859146118164ZM12.00001768371582,19.79147146118164C11.74724768371582,19.79147146118164,11.54146568371582,19.58603146118164,11.54146568371582,19.33360146118164C11.54146568371582,19.08049146118164,11.74724768371582,18.87505246118164,12.00001768371582,18.87505246118164C12.252797683715821,18.87505246118164,12.45822768371582,19.08049146118164,12.45822768371582,19.33360146118164C12.45822768371582,19.58603146118164,12.25278768371582,19.79147146118164,12.00001768371582,19.79147146118164Z" fill="#FFC959" fill-opacity="1" style="mix-blend-mode:passthrough"/></g><g><path d="M3.7520980932769774,18.121728137207032C3.7965680932769774,18.13546813720703,3.8428420932769773,18.142468137207032,3.8893840932769774,18.14249813720703C4.084415093276977,18.14249813720703,4.2649980932769775,18.01763813720703,4.326439093276978,17.82157813720703L4.576502093276978,17.02529113720703C4.2821670932769775,16.943217137207032,3.9891820932769777,16.85636813720703,3.6976650932769775,16.76477813720703L3.4519422932769777,17.54692013720703C3.3760971932769777,17.78872813720703,3.5107179932769776,18.04584813720703,3.7520980932769774,18.121728137207032ZM5.933722093276978,18.73334813720703C5.964842093276978,18.739978137207032,5.996572093276978,18.743348137207033,6.0283920932769774,18.74340813720703C6.240582093276977,18.74340813720703,6.431222093276977,18.59502813720703,6.4765420932769775,18.37884813720703L6.657132093276978,17.51948713720703C6.357302093276978,17.460522137207033,6.058502093276978,17.396505137207033,5.760832093276978,17.327466137207033L5.579562093276977,18.19082813720703C5.527582093276978,18.43792813720703,5.685972093276978,18.68097813720703,5.933722093276978,18.73334813720703ZM8.154682093276978,19.139538137207033C8.175142093276978,19.142198137207032,8.195272093276976,19.14357813720703,8.215092093276978,19.14357813720703C8.441682093276977,19.14357813720703,8.638732093276978,18.97575813720703,8.668952093276978,18.745428137207032L8.787112093276978,17.85115813720703C8.483552093276977,17.816178137207032,8.180602093276978,17.776108137207032,7.878392093276978,17.73098413720703L7.7602320932769775,18.62525813720703C7.727002093276978,18.875668137207033,7.903582093276977,19.10663813720703,8.154682093276978,19.139538137207033ZM19.673292093276977,17.82157813720703C19.733292093276976,18.012478137207033,19.910192093276976,18.142388137207032,20.11029209327698,18.14249813720703C20.15599209327698,18.14249813720703,20.202392093276977,18.13578813720703,20.247992093276977,18.121728137207032C20.488992093276977,18.04583813720703,20.62389209327698,17.78872813720703,20.548092093276978,17.54700313720703L20.30239209327698,16.76486043440703C20.01089209327698,16.85647233720703,19.717892093276976,16.943321137207032,19.423492093276977,17.02537313720703L19.673292093276977,17.82157813720703ZM17.523492093276978,18.37884813720703C17.56849209327698,18.594988137207032,17.75919209327698,18.74340813720703,17.97129209327698,18.74340813720703C18.002892093276976,18.74340813720703,18.034492093276977,18.740058137207033,18.066692093276977,18.73334813720703C18.313792093276977,18.68097813720703,18.472192093276977,18.43796813720703,18.420492093276977,18.19086813720703L18.239192093276976,17.32750913720703C17.941592093276977,17.39653513720703,17.642692093276978,17.460550137207033,17.34289209327698,17.51953013720703L17.523492093276978,18.37884813720703ZM15.331492093276978,18.745428137207032C15.360992093276977,18.975718137207032,15.558392093276977,19.14357813720703,15.785292093276977,19.14357813720703C15.804792093276978,19.14357813720703,15.824892093276977,19.14223813720703,15.845692093276977,19.139538137207033C16.096792093276978,19.10663813720703,16.27269209327698,18.875668137207033,16.239792093276975,18.62525813720703L16.121692093276977,17.73098413720703C15.819592093276977,17.776088137207033,15.516692093276978,17.816158137207033,15.213292093276978,17.85115813720703L15.331492093276978,18.745428137207032Z" fill="#644A08" fill-opacity="1" style="mix-blend-mode:passthrough"/></g><g><path d="M15.666422942504884,22.083526611328125L8.333271942504883,22.083526611328125C8.080154942504883,22.083526611328125,7.875062942504883,22.288317611328125,7.875062942504883,22.541390611328126C7.875062942504883,22.794464611328124,8.080197942504883,22.999944611328125,8.333271942504883,22.999944611328125L15.666462942504882,22.999944611328125C15.919582942504883,22.999944611328125,16.125022942504884,22.794508611328126,16.125022942504884,22.541390611328126C16.125022942504884,22.288273611328126,15.919542942504883,22.083526611328125,15.666422942504884,22.083526611328125Z" fill="#644A08" fill-opacity="1" style="mix-blend-mode:passthrough"/></g></g><g><g><path d="M13.41289863515625,18.26539C14.04417103515625,16.36861,15.83320103515625,15,17.94296103515625,15C20.05144103515625,15,21.839631035156252,16.36733,22.471751035156252,18.26242C22.52266103515625,18.416,22.52266103515625,18.58145,22.471751035156252,18.73461C21.84090103515625,20.63139,20.05144103515625,22,17.942111035156252,22C15.83363103515625,22,14.04502003515625,20.63267,13.41332303515625,18.73758C13.36230703515625,18.584319999999998,13.36230703515625,18.41865,13.41332303515625,18.26539L13.41289863515625,18.26539ZM20.16981103515625,18.5C20.16981103515625,19.73009,19.17262103515625,20.72727,17.94253103515625,20.72727C16.71245103515625,20.72727,15.71526103515625,19.73009,15.71526103515625,18.5C15.71526103515625,17.26991,16.71245103515625,16.27273,17.94253103515625,16.27273C19.17262103515625,16.27273,20.16981103515625,17.26991,20.16981103515625,18.5Z" fill-rule="evenodd" fill="#FFA100" fill-opacity="1"/><path d="M12.46406703515625,17.94961Q13.04434803515625,16.20604,14.532131035156251,15.114996Q16.05258103515625,14,17.94296103515625,14Q19.83218103515625,14,21.35213103515625,15.113984Q22.839281035156247,16.20393,23.420361035156247,17.94601Q23.60376103515625,18.49928,23.42066103515625,19.05004Q22.84074103515625,20.79379,21.35272103515625,21.884999999999998Q19.83227103515625,23,17.942111035156252,23Q16.05283103515625,23,14.53281103515625,21.886029999999998Q13.13673103515625,20.86291,12.53941203515625,19.26539Q12.50031403515625,19.16083,12.46463903515625,19.0538Q12.29228103515625,18.536,12.44297903515625,18.01855Q12.44731603515625,18.00366,12.45192103515625,17.98877Q12.45759203515625,17.96907,12.46406703515625,17.94961ZM17.942111035156252,22C15.83363103515625,22,14.04502003515625,20.63267,13.41332303515625,18.73758C13.36232113515625,18.58436,13.36230703515625,18.41875,13.41328073515625,18.26552L13.41332303515625,18.26539L13.41289863515625,18.26539L13.41294103515625,18.26527C13.51938203515625,17.94547,13.65873203515625,17.6407,13.82697903515625,17.35496C13.84468403515625,17.32489,13.86270903515625,17.29504,13.88104903515625,17.26539C14.72213103515625,15.906024,16.22638103515625,15,17.94296103515625,15C20.05144103515625,15,21.839631035156252,16.36733,22.471751035156252,18.26242C22.52266103515625,18.416,22.52266103515625,18.58145,22.471751035156252,18.73461C21.84090103515625,20.63139,20.05144103515625,22,17.942111035156252,22ZM17.94253103515625,20.72727C19.17262103515625,20.72727,20.16981103515625,19.73009,20.16981103515625,18.5C20.16981103515625,17.26991,19.17262103515625,16.27273,17.94253103515625,16.27273C16.71245103515625,16.27273,15.71526103515625,17.26991,15.71526103515625,18.5C15.71526103515625,19.73009,16.71245103515625,20.72727,17.94253103515625,20.72727ZM18.810351035156252,17.63219Q19.16981103515625,17.99165,19.16981103515625,18.5Q19.16981103515625,19.00835,18.810351035156252,19.36781Q18.45089103515625,19.72727,17.94253103515625,19.72727Q17.43418103515625,19.72727,17.07472103515625,19.36781Q16.71526103515625,19.00835,16.71526103515625,18.5Q16.71526103515625,17.99165,17.07472103515625,17.63219Q17.43418103515625,17.27273,17.94253103515625,17.27273Q18.45089103515625,17.27273,18.810351035156252,17.63219Z" fill-rule="evenodd" fill="#FFFFFF" fill-opacity="1"/></g><g><path d="M19.21531083984375,18.5002690625Q19.21531083984375,18.5627890625,19.20919083984375,18.6250190625Q19.20306083984375,18.6872390625,19.19086083984375,18.7485590625Q19.17866083984375,18.809889062499998,19.16051083984375,18.8697190625Q19.14236083984375,18.9295490625,19.11843083984375,18.9873190625Q19.09451083984375,19.0450790625,19.06503083984375,19.1002290625Q19.03556083984375,19.1553690625,19.00082083984375,19.2073590625Q18.966080839843748,19.2593390625,18.92642083984375,19.3076790625Q18.88675083984375,19.3560090625,18.84254083984375,19.4002190625Q18.79833083984375,19.4444290625,18.75000083984375,19.4840990625Q18.70166083984375,19.523759062499998,18.64968083984375,19.5584990625Q18.59769083984375,19.5932390625,18.54255083984375,19.6227090625Q18.48740083984375,19.6521890625,18.42964083984375,19.6761090625Q18.37187083984375,19.7000390625,18.31204083984375,19.7181890625Q18.252210839843748,19.7363390625,18.19088083984375,19.7485390625Q18.12956083984375,19.7607390625,18.06734083984375,19.7668690625Q18.00511083984375,19.7729890625,17.94259083984375,19.7729890625Q17.88006083984375,19.7729890625,17.81784083984375,19.7668690625Q17.75561083984375,19.7607390625,17.69429083984375,19.7485390625Q17.63296783984375,19.7363390625,17.57313483984375,19.7181890625Q17.51330183984375,19.7000390625,17.45553683984375,19.6761090625Q17.39777083984375,19.6521890625,17.34262883984375,19.6227090625Q17.28748683984375,19.5932390625,17.23549883984375,19.5584990625Q17.18351083984375,19.523759062499998,17.13517883984375,19.4840990625Q17.08684583984375,19.4444290625,17.04263383984375,19.4002190625Q16.99842183984375,19.3560090625,16.95875683984375,19.3076790625Q16.91909083984375,19.2593390625,16.88435383984375,19.2073590625Q16.84961683984375,19.1553690625,16.82014283984375,19.1002290625Q16.79066883984375,19.0450790625,16.76674143984375,18.9873190625Q16.74281413984375,18.9295490625,16.72466403984375,18.8697190625Q16.70651393984375,18.809889062499998,16.69431593984375,18.7485590625Q16.68211793984375,18.6872390625,16.67598936984375,18.6250190625Q16.66986083984375,18.5627890625,16.66986083984375,18.5002690625Q16.66986083984375,18.4377390625,16.67598936984375,18.3755190625Q16.68211793984375,18.3132890625,16.69431593984375,18.2519690625Q16.70651393984375,18.1906460625,16.72466403984375,18.1308130625Q16.74281413984375,18.0709800625,16.76674143984375,18.0132150625Q16.79066883984375,17.9554490625,16.82014283984375,17.9003070625Q16.84961683984375,17.8451650625,16.88435383984375,17.7931770625Q16.91909083984375,17.7411890625,16.95875683984375,17.6928570625Q16.99842183984375,17.6445240625,17.04263383984375,17.6003120625Q17.08684583984375,17.5561000625,17.13517883984375,17.5164350625Q17.18351083984375,17.4767690625,17.23549883984375,17.4420320625Q17.28748683984375,17.4072950625,17.34262883984375,17.3778210625Q17.39777083984375,17.3483470625,17.45553683984375,17.3244196625Q17.51330183984375,17.3004923625,17.57313483984375,17.2823422625Q17.63296783984375,17.2641921625,17.69429083984375,17.2519941625Q17.75561083984375,17.2397961625,17.81784083984375,17.2336675925Q17.88006083984375,17.2275390625,17.94259083984375,17.2275390625Q18.00511083984375,17.2275390625,18.06734083984375,17.2336675925Q18.12956083984375,17.2397961625,18.19088083984375,17.2519941625Q18.252210839843748,17.2641921625,18.31204083984375,17.2823422625Q18.37187083984375,17.3004923625,18.42964083984375,17.3244196625Q18.48740083984375,17.3483470625,18.54255083984375,17.3778210625Q18.59769083984375,17.4072950625,18.64968083984375,17.4420320625Q18.70166083984375,17.4767690625,18.75000083984375,17.5164350625Q18.79833083984375,17.5561000625,18.84254083984375,17.6003120625Q18.88675083984375,17.6445240625,18.92642083984375,17.6928570625Q18.966080839843748,17.7411890625,19.00082083984375,17.7931770625Q19.03556083984375,17.8451650625,19.06503083984375,17.9003070625Q19.09451083984375,17.9554490625,19.11843083984375,18.0132150625Q19.14236083984375,18.0709800625,19.16051083984375,18.1308130625Q19.17866083984375,18.1906460625,19.19086083984375,18.2519690625Q19.20306083984375,18.3132890625,19.20919083984375,18.3755190625Q19.21531083984375,18.4377390625,19.21531083984375,18.5002690625Z" fill="#E89300" fill-opacity="1"/></g></g></g></svg>