<svg xmlns="http://www.w3.org/2000/svg" xmlns:xlink="http://www.w3.org/1999/xlink" fill="none" version="1.1" width="24" height="24" viewBox="0 0 24 24"><defs><clipPath id="master_svg0_630_28799"><rect x="0" y="0" width="24" height="24" rx="0"/></clipPath></defs><g clip-path="url(#master_svg0_630_28799)"><g><path d="M8.17157,2L3,2C1.8954309999999999,2,1,2.895431,1,4L1,19C1,20.1046,1.8954309999999999,21,3,21L21,21C22.1046,21,23,20.1046,23,19L23,7C23,5.89543,22.1046,5,21,5L12.8284,5C12.298,5,11.7893,4.789289999999999,11.4142,4.414210000000001L9.58579,2.585786C9.21071,2.210714,8.70201,2,8.17157,2" fill="#165DFF" fill-opacity="1"/></g><g><path d="M8.539629999999999,10.520866999999999Q8.64084,10.416007,8.69542,10.280873Q8.75,10.14574,8.75,10Q8.75,9.9261315,8.73559,9.853682Q8.72118,9.781233,8.69291,9.712987Q8.66464,9.644742,8.6236,9.583322Q8.58256,9.521903,8.53033,9.46967Q8.4781,9.417437,8.41668,9.376398Q8.35526,9.335359,8.28701,9.30709Q8.21877,9.278822,8.14632,9.264410999999999Q8.07387,9.25,8,9.25Q7.84736,9.25,7.70687,9.309656Q7.5663800000000005,9.369311,7.46037,9.479133000000001L7.46031,9.4792L4.460373,12.58718L4.4600349999999995,12.587530000000001Q4.408769,12.64071,4.368863,12.70288Q4.328957,12.765039999999999,4.301944,12.83379Q4.274932,12.90254,4.261852,12.97524Q4.248772,13.04795,4.250126,13.1218Q4.251481,13.19566,4.267218,13.26783Q4.282955,13.34,4.312469,13.40772Q4.341984,13.47543,4.384143,13.53609Q4.4263010000000005,13.59675,4.479483,13.648019999999999L7.479480000000001,16.53997Q7.58432,16.64102,7.71935,16.69551Q7.85439,16.75,8,16.75Q8.07387,16.75,8.14632,16.735590000000002Q8.21877,16.72118,8.28701,16.69291Q8.35526,16.66464,8.41668,16.6236Q8.4781,16.58256,8.53033,16.53033Q8.58256,16.4781,8.6236,16.41668Q8.66464,16.35526,8.69291,16.287010000000002Q8.72118,16.21877,8.73559,16.14632Q8.75,16.07387,8.75,16Q8.75,15.84724,8.690249999999999,15.70665Q8.6305,15.56606,8.52052,15.46004L8.5201,15.45964L6.06083,13.088940000000001L8.53956,10.520935L8.539629999999999,10.520866999999999Z" fill-rule="evenodd" fill="#FFFFFF" fill-opacity="1"/></g><g><path d="M16.33969505175781,9.4792L19.33963305175781,12.58718L19.339963051757813,12.587530000000001Q19.443503051757812,12.694939999999999,19.49806305175781,12.83379Q19.552613051757813,12.97264,19.549873051757814,13.1218Q19.547143051757814,13.27096,19.48753305175781,13.40772Q19.427923051757812,13.54448,19.320523051757814,13.648019999999999L16.320520051757814,16.53997Q16.215685051757813,16.64102,16.080651051757812,16.69551Q15.945616051757813,16.75,15.800003051757812,16.75Q15.726134551757813,16.75,15.653685051757812,16.735590000000002Q15.581236051757813,16.72118,15.512990051757813,16.69291Q15.444745051757813,16.66464,15.383325051757813,16.6236Q15.321906051757813,16.58256,15.269673051757813,16.53033Q15.217440051757812,16.4781,15.176401051757813,16.41668Q15.135362051757813,16.35526,15.107093051757813,16.287010000000002Q15.078825051757812,16.21877,15.064414051757812,16.14632Q15.050003051757812,16.07387,15.050003051757812,16Q15.050003051757812,15.84724,15.109754051757813,15.70665Q15.169505051757813,15.56606,15.279486051757813,15.46004L15.279760051757812,15.459769999999999L17.739173051757813,13.088940000000001L15.260441051757812,10.520935L15.260376051757813,10.520866999999999Q15.159161051757813,10.416007,15.104582051757813,10.280873Q15.050003051757812,10.14574,15.050003051757812,10Q15.050003051757812,9.9261315,15.064414051757812,9.853682Q15.078825051757812,9.781233,15.107093051757813,9.712987Q15.135362051757813,9.644742,15.176401051757813,9.583322Q15.217440051757812,9.521903,15.269673051757813,9.46967Q15.321906051757813,9.417437,15.383325051757813,9.376398Q15.444745051757813,9.335359,15.512990051757813,9.30709Q15.581236051757813,9.278822,15.653685051757812,9.264410999999999Q15.726134551757813,9.25,15.800003051757812,9.25Q15.952638051757813,9.25,16.093132051757813,9.309656Q16.233627051757814,9.369311,16.339630051757812,9.479133000000001L16.33969505175781,9.4792Z" fill-rule="evenodd" fill="#FFFFFF" fill-opacity="1"/></g><g><path d="M13.226266948242188,9.629285Q13.237496948242187,9.5651301,13.237496948242187,9.5Q13.237496948242187,9.4261315,13.223086948242187,9.353682Q13.208676948242188,9.281233,13.180406948242187,9.212987Q13.152136948242187,9.144742,13.111096948242187,9.083322Q13.070056948242188,9.021903,13.017826948242188,8.96967Q12.965596948242187,8.917437,12.904176948242188,8.876398Q12.842756948242187,8.835359,12.774506948242188,8.80709Q12.706266948242188,8.778822,12.633816948242188,8.764410999999999Q12.561366948242188,8.75,12.487496948242187,8.75Q12.421816948242187,8.75,12.357146948242187,8.761415Q12.292466948242188,8.77283,12.230754948242188,8.795313Q12.169045948242188,8.817796,12.112183948242187,8.850662Q12.055320948242187,8.883528,12.005036948242187,8.925777Q11.954751948242187,8.968026,11.912575948242187,9.018372Q11.870399948242188,9.068717,11.837615948242188,9.125627Q11.804832948242188,9.182537,11.782438948242188,9.244279Q11.760045948242187,9.306021,11.748723948242187,9.370715L10.523723948242187,16.37071Q10.512496948242188,16.43487,10.512496948242188,16.5Q10.512496948242188,16.57387,10.526907948242187,16.64632Q10.541318948242187,16.71877,10.569586948242188,16.787010000000002Q10.597855948242188,16.85526,10.638894948242188,16.91668Q10.679933948242187,16.9781,10.732166948242188,17.03033Q10.784399948242188,17.08256,10.845818948242188,17.1236Q10.907238948242188,17.16464,10.975483948242188,17.19291Q11.043729948242188,17.22118,11.116178948242187,17.235590000000002Q11.188628448242188,17.25,11.262496948242188,17.25Q11.328174248242188,17.25,11.392851948242187,17.238590000000002Q11.457529948242188,17.22717,11.519238948242187,17.20469Q11.580947948242187,17.1822,11.637810948242187,17.14934Q11.694672948242188,17.11647,11.744957948242188,17.07422Q11.795241948242188,17.03197,11.837417948242187,16.98163Q11.879593948242187,16.93128,11.912377948242188,16.87437Q11.945161948242188,16.81746,11.967554948242187,16.75572Q11.989948948242187,16.69398,12.001269948242188,16.62928L13.226266948242188,9.629285Z" fill-rule="evenodd" fill="#FFFFFF" fill-opacity="1"/></g></g></svg>