<svg id="图层_1" data-name="图层 1" xmlns="http://www.w3.org/2000/svg" viewBox="0 0 18 18">
  <defs>
    <style>
      .kjjck09s1 {
        fill: #30b0f0;
      }

      .kjjck09s2 {
        fill: #fff;
      }
    </style>
  </defs>
  <g id="IconAomMenuGJKGLColor">
    <rect class="kjjck09s1" width="18" height="18" rx="4" />
  </g>
  <path class="kjjck09s2"
    d="M9,14.2a5.18,5.18,0,0,0,2.05-.42A6.1,6.1,0,0,1,8.68,12.7a1,1,0,0,1-.41.09,1.06,1.06,0,0,1-.85-.44,5.69,5.69,0,0,1-.83.06,6.11,6.11,0,0,1-1.72-.25A5.2,5.2,0,0,0,9,14.2Z" />
  <path class="kjjck09s2"
    d="M3.93,7.82a5.85,5.85,0,0,1,1.82-1,1,1,0,0,1,.84-.91A6.19,6.19,0,0,1,7.73,4,5.2,5.2,0,0,0,3.93,7.82Z" />
  <path class="kjjck09s2"
    d="M7.41,6.12a1,1,0,0,1,.31.38,6,6,0,0,1,3.46,1.13,1,1,0,0,1,.51-.19,5.29,5.29,0,0,0,.1-1.06,5.14,5.14,0,0,0-.4-2A5.16,5.16,0,0,0,9.08,3.8,5.2,5.2,0,0,0,7.41,6.12Z" />
  <path class="kjjck09s2"
    d="M7.25,11.54a1,1,0,0,1,.08-.24A6,6,0,0,1,6.26,7.88v0A1.13,1.13,0,0,1,6,7.62,5.21,5.21,0,0,0,3.8,9.09,5.24,5.24,0,0,0,4.19,11a5.1,5.1,0,0,0,2.4.59C6.81,11.58,7,11.56,7.25,11.54Z" />
  <path class="kjjck09s2"
    d="M12.49,5.15a5.59,5.59,0,0,1,.14,1.23,6.26,6.26,0,0,1-.15,1.31,1.06,1.06,0,0,1,.35.78,1.12,1.12,0,0,1-.2.62,6.24,6.24,0,0,1,1,2.32A5.27,5.27,0,0,0,14.2,9,5.19,5.19,0,0,0,12.49,5.15Z" />
  <path class="kjjck09s2"
    d="M11,9.13a1,1,0,0,1-.25-.66s0-.08,0-.12a5.19,5.19,0,0,0-3-1,1.07,1.07,0,0,1-.64.59A5.13,5.13,0,0,0,8,10.76a1.06,1.06,0,0,1,.31,0A1,1,0,0,1,9,11,5.19,5.19,0,0,0,11,9.13Z" />
  <path class="kjjck09s2"
    d="M11.79,9.51h0a6,6,0,0,1-2.43,2.26,1.75,1.75,0,0,1-.06.33,5.16,5.16,0,0,0,3,1,4.92,4.92,0,0,0,.66-.63,5.19,5.19,0,0,0-1-2.95Z" />
</svg>