<svg id="图层_1" data-name="图层 1" xmlns="http://www.w3.org/2000/svg" viewBox="0 0 18 18">
  <defs>
    <style>
      .ttyufvchyas45-1 {
        fill: #3b82f6;
      }

      .ttyufvchyas45-2 {
        fill: #fff;
      }
    </style>
  </defs>
  <g id="IconAomMenuMJRWColor">
    <rect class="ttyufvchyas45-1" width="18" height="18" rx="4" />
  </g>
  <path class="ttyufvchyas45-2" d="M13,4H5A1,1,0,0,0,4,5V6.44a1,1,0,0,0,1,1h8a1,1,0,0,0,1-1V5A1,1,0,0,0,13,4Z" />
  <rect class="ttyufvchyas45-2" x="4" y="8.24" width="3.77" height="5.76" rx="1" />
  <path class="ttyufvchyas45-2"
    d="M13.56,8.24H9a.44.44,0,0,0-.44.44A.43.43,0,0,0,9,9.12h4.55A.44.44,0,0,0,14,8.68.44.44,0,0,0,13.56,8.24Z" />
  <path class="ttyufvchyas45-2" d="M13.56,9.86H9a.45.45,0,0,0,0,.89h4.55a.45.45,0,0,0,0-.89Z" />
  <path class="ttyufvchyas45-2"
    d="M13.56,11.49H9a.44.44,0,0,0-.44.44.43.43,0,0,0,.44.44h4.55a.44.44,0,0,0,.44-.44A.44.44,0,0,0,13.56,11.49Z" />
  <path class="ttyufvchyas45-2"
    d="M13.56,13.12H9a.43.43,0,0,0-.44.44A.44.44,0,0,0,9,14h4.55a.44.44,0,0,0,.44-.44A.44.44,0,0,0,13.56,13.12Z" />
</svg>