<svg id="图层_1" data-name="图层 1" xmlns="http://www.w3.org/2000/svg" viewBox="0 0 18 18">
  <defs>
    <style>
      .dsvhcasv56-1 {
        fill: #34c765;
      }

      .dsvhcasv56-2 {
        fill: #fff;
      }
    </style>
  </defs>
  <g id="IconAomMenuGJKGLColor">
    <rect class="dsvhcasv56-1" width="18" height="18" rx="4" />
  </g>
  <path class="dsvhcasv56-2"
    d="M13.19,7.81a1.27,1.27,0,0,1,.13.19,2.25,2.25,0,0,1,.3,1.34,2.23,2.23,0,0,1-.23.81v0a1,1,0,0,0,.82-1v-.3A1,1,0,0,0,13.19,7.81Z" />
  <path class="dsvhcasv56-2" d="M13.15,4.24H9.08a1.88,1.88,0,0,1,.32,1V6.63h3.75a1,1,0,0,0,1-1v-.3A1,1,0,0,0,13.15,4.24Z" />
  <path class="dsvhcasv56-2"
    d="M9.13,8.6a.53.53,0,0,0-.53-.53h0V5.28A1,1,0,0,0,8.51,5a.43.43,0,0,1,0-.05,1.3,1.3,0,0,0-.14-.26h0a1,1,0,0,0-.84-.42H5.41a1,1,0,0,0-1,1V8.07h0a.52.52,0,0,0-.52.53.52.52,0,0,0,.52.52h0v3.6a1,1,0,0,0,1,1h2.1a1.18,1.18,0,0,0,.27,0,1.12,1.12,0,0,1,0-.31v-.28a1.78,1.78,0,0,1,.1-.56V12.5L8,12.28l0-.08L8.12,12a.39.39,0,0,1,.08-.1l.13-.14.12-.09.11-.08V9.12h0A.52.52,0,0,0,9.13,8.6ZM7.51,8.07H5.41V5.28h2.1Z" />
  <path class="dsvhcasv56-2"
    d="M13.22,12.16h-.5a.41.41,0,0,1-.38-.26l-.41-1.05a.41.41,0,0,1,.17-.5,1.29,1.29,0,0,0,.39-.34h0a1.64,1.64,0,0,0,.14-.22h0a1.52,1.52,0,0,0,.15-.5h0a1.47,1.47,0,0,0-.19-.84,1.39,1.39,0,0,0-1.21-.69h0a1.4,1.4,0,0,0-1.3.87h0a1,1,0,0,0-.08.25,1.33,1.33,0,0,0,0,.28,1.54,1.54,0,0,0,0,.3,1.38,1.38,0,0,0,.65.91.41.41,0,0,1,.17.5l-.41,1.05a.42.42,0,0,1-.09.14.36.36,0,0,1-.12.08h0a.58.58,0,0,1-.14,0h-.5a.58.58,0,0,0-.19,0H9.31l-.12,0-.07,0L9,12.31l-.08,0-.06.05-.07.08-.05,0-.06.09,0,0a.61.61,0,0,0,0,.12,0,0,0,0,0,0,0,.81.81,0,0,0-.06.31v.28a.35.35,0,0,0,.35.34h4.93a.35.35,0,0,0,.35-.34v-.28A1,1,0,0,0,13.22,12.16Z" />
</svg>