<svg id="图层_1" data-name="图层 1" xmlns="http://www.w3.org/2000/svg" viewBox="0 0 18 18">
  <defs>
    <style>
      .jhcuioa221 {
        fill: #30b0f0;
      }

      .jhcuioa222 {
        fill: #fff;
      }
    </style>
  </defs>
  <g id="IconAomMenuGJKGLColor">
    <rect class="jhcuioa221" width="18" height="18" rx="4" />
  </g>
  <path class="jhcuioa222"
    d="M13.5,6.24l-4-2.3a1,1,0,0,0-1,0l-4,2.3a1,1,0,0,0-.52.9v6a1,1,0,0,0,1,1h8a1,1,0,0,0,1-1v-6A1,1,0,0,0,13.5,6.24ZM7.22,12.33h.11a.12.12,0,0,1,.12.12.12.12,0,0,1-.12.13H7.19v.33a.25.25,0,0,1-.25.25H6.61v.14a.12.12,0,0,1-.12.13.13.13,0,0,1-.13-.13v-.1s0,0,0,0H6s0,0,0,0v.1a.13.13,0,0,1-.13.13.12.12,0,0,1-.12-.13v-.14H5.45a.25.25,0,0,1-.25-.25v-.33H5.06a.12.12,0,0,1-.12-.13.12.12,0,0,1,.12-.12H5.2V12H5.06a.12.12,0,0,1-.12-.12.12.12,0,0,1,.12-.13H5.2v-.33a.25.25,0,0,1,.25-.25h.33V11a.12.12,0,0,1,.12-.13A.13.13,0,0,1,6,11v.14h.35V11a.13.13,0,0,1,.13-.13.12.12,0,0,1,.12.13v.14h.33a.25.25,0,0,1,.25.25v.33h.14a.12.12,0,0,1,.12.13.12.12,0,0,1-.12.12H7.19v.34Zm0-3.12h.11a.13.13,0,0,1,0,.26H7.19v.33a.25.25,0,0,1-.25.25H6.61v.14a.12.12,0,0,1-.12.13.13.13,0,0,1-.13-.13v-.11s0,0,0,0H6s0,0,0,0v.11a.13.13,0,0,1-.13.13.12.12,0,0,1-.12-.13V10H5.45a.25.25,0,0,1-.25-.25V9.46H5.06a.13.13,0,0,1,0-.26H5.2V8.87H5.06a.12.12,0,0,1-.12-.13.12.12,0,0,1,.12-.12H5.2V8.31a.26.26,0,0,1,.25-.26h.33V7.91a.12.12,0,0,1,.12-.12A.12.12,0,0,1,6,7.91V8s0,0,0,0h.35s0,0,0,0V7.91a.12.12,0,0,1,.13-.12.12.12,0,0,1,.12.12v.14h.33a.26.26,0,0,1,.25.26v.32h.14a.12.12,0,0,1,.12.12.12.12,0,0,1-.12.13H7.19v.35Zm3.13,3.12h.1a.12.12,0,0,1,.13.12.13.13,0,0,1-.13.13h-.14v.33a.25.25,0,0,1-.25.25H9.73s0,0,0,0v.1a.13.13,0,0,1-.13.13.12.12,0,0,1-.12-.13v-.14H9.15v.14a.12.12,0,0,1-.12.13.13.13,0,0,1-.13-.13v-.1s0,0,0,0H8.58a.25.25,0,0,1-.25-.25v-.33H8.19a.13.13,0,0,1-.13-.13.12.12,0,0,1,.13-.12h.14V12H8.19a.12.12,0,0,1-.13-.12.13.13,0,0,1,.13-.13h.14v-.33a.25.25,0,0,1,.25-.25h.33a.06.06,0,0,1,0,0V11A.13.13,0,0,1,9,10.9a.12.12,0,0,1,.12.13v.14h.34V11a.12.12,0,0,1,.12-.13.13.13,0,0,1,.13.13v.14h.33a.25.25,0,0,1,.25.25v.33h.14a.13.13,0,0,1,.13.13.12.12,0,0,1-.13.12h-.14v.34Z" />
</svg>