<svg xmlns="http://www.w3.org/2000/svg" viewBox="0 0 18 18">
  <g id="图层_2" data-name="图层 2">
    <g id="图层_1-2" data-name="图层 1">
      <g id="IconAomMenuTPGLColor">
        <rect fill="#854bfa" width="18" height="18" rx="4" />
        <path fill="#fff"
          d="M13.08,11.17v-.76a1.54,1.54,0,0,0-1.53-1.53h-2V8H11a1,1,0,0,0,1-1V5.11a1,1,0,0,0-1-1H7a1,1,0,0,0-1,1V7A1,1,0,0,0,7,8H8.49v.91H6.4a1.53,1.53,0,0,0-1.53,1.53v.76a1,1,0,0,0-.87,1v.71a1,1,0,0,0,1,1h.71a1,1,0,0,0,1-1v-.71a1,1,0,0,0-.87-1v-.76A.51.51,0,0,1,6.4,9.9H8.49v1.27a1,1,0,0,0-.87,1v.71a1,1,0,0,0,1,1h.72a1,1,0,0,0,1-1v-.71a1,1,0,0,0-.87-1V9.9h2a.51.51,0,0,1,.51.51v.77a1,1,0,0,0-.82,1v.71a1,1,0,0,0,1,1H13a1,1,0,0,0,1-1v-.71A1,1,0,0,0,13.08,11.17ZM8.15,6.44H7.34A.41.41,0,0,1,6.93,6a.41.41,0,0,1,.41-.41h.81A.41.41,0,0,1,8.56,6,.41.41,0,0,1,8.15,6.44Z" />
      </g>
    </g>
  </g>
</svg>