<svg id="图层_1" data-name="图层 1" xmlns="http://www.w3.org/2000/svg" viewBox="0 0 18 18">
  <defs>
    <style>
      .hhca9kb5i-1 {
        fill: #fff;
      }

      .hhca9kb5i-2 {
        fill: #3b82f6;
      }
    </style>
  </defs>
  <polygon class="hhca9kb5i-1" points="9 14.43 9 14.43 9 14.43 9 14.43" />
  <polygon class="hhca9kb5i-1" points="17.5 1.33 17.5 1.33 17.5 1.33 17.5 1.33" />
  <g id="IconAomMenuGJKColor">
    <rect class="hhca9kb5i-2" width="18" height="18" rx="4" />
  </g>
  <path class="hhca9kb5i-1"
    d="M13.5,10H10.44a1.49,1.49,0,0,1-2.88,0H4.5a.5.5,0,0,0-.5.5V13a1,1,0,0,0,1,1h8a1,1,0,0,0,1-1V10.5A.5.5,0,0,0,13.5,10Z" />
  <path class="hhca9kb5i-1"
    d="M8.33,9.79a.69.69,0,0,0,1.34,0,.79.79,0,0,1,.77-.59H13V5a1,1,0,0,0-1-1H6A1,1,0,0,0,5,5V9.2H7.56A.79.79,0,0,1,8.33,9.79ZM7.05,5.32H11a.51.51,0,0,1,.5.5.5.5,0,0,1-.5.5H7.05a.5.5,0,0,1-.5-.5A.51.51,0,0,1,7.05,5.32Zm-.5,2.25a.5.5,0,0,1,.5-.5H9.17a.5.5,0,1,1,0,1H7.05A.5.5,0,0,1,6.55,7.57Z" />
</svg>