<svg id="图层_1" data-name="图层 1" xmlns="http://www.w3.org/2000/svg" viewBox="0 0 18 18">
  <defs>
    <style>
      .xdfgfht61-1 {
        fill: #30b0f0;
      }

      .xdfgfht61-2 {
        fill: #fff;
      }
    </style>
  </defs>
  <g id="IconAomMenuGJKColor">
    <rect class="xdfgfht61-1" width="18" height="18" rx="4" />
  </g>
  <path class="xdfgfht61-2"
    d="M4,5.23H14a.54.54,0,0,0,.51-.54A.55.55,0,0,0,14,4.14H4.05a.55.55,0,0,0-.55.55A.54.54,0,0,0,4,5.23Z" />
  <path class="xdfgfht61-2"
    d="M4.26,6.11v5a1.1,1.1,0,0,0,1.1,1.1h1.4L6,12.92a.55.55,0,0,0,.78.78l1.51-1.51H9.68l1.51,1.51a.56.56,0,0,0,.78,0,.56.56,0,0,0,0-.78l-.73-.73h1.4a1.1,1.1,0,0,0,1.1-1.1v-5Zm7.43,2L10,9.83a.44.44,0,0,1-.31.13.46.46,0,0,1-.31-.13L8.3,8.77,6.93,10.14a.4.4,0,0,1-.31.13.43.43,0,0,1-.31-.13.44.44,0,0,1,0-.62L8,7.84a.42.42,0,0,1,.31-.13.4.4,0,0,1,.31.13L9.67,8.89l1.4-1.39a.44.44,0,0,1,.62.62Z" />
</svg>