<svg id="图层_1" data-name="图层 1" xmlns="http://www.w3.org/2000/svg" viewBox="0 0 18 18">
  <defs>
    <style>
      .bhjfbj88incj1 {
        fill: #3b82f6;
      }

      .bhjfbj88incj2 {
        fill: #fff;
      }
    </style>
  </defs>
  <g id="IconAomMenuMJRWColor">
    <rect class="bhjfbj88incj1" width="18" height="18" rx="4" />
  </g>
  <path class="bhjfbj88incj2" d="M4,5v.9H5.9V4H5A1,1,0,0,0,4,5Z" />
  <rect class="bhjfbj88incj2" x="6.7" y="4" width="1.9" height="1.9" />
  <rect class="bhjfbj88incj2" x="9.4" y="4" width="1.9" height="1.9" />
  <rect class="bhjfbj88incj2" x="4" y="9.4" width="1.9" height="1.9" />
  <rect class="bhjfbj88incj2" x="4" y="6.7" width="1.9" height="1.9" />
  <path class="bhjfbj88incj2" d="M14,5a1,1,0,0,0-1-1h-.9V5.9H14Z" />
  <path class="bhjfbj88incj2" d="M4,13a1,1,0,0,0,1,1h.9V12.1H4Z" />
  <path class="bhjfbj88incj2"
    d="M13.87,11.83A4.42,4.42,0,0,0,11,10.32a4.42,4.42,0,0,0-2.9,1.51.48.48,0,0,0,0,.65A4.39,4.39,0,0,0,11,14a4.39,4.39,0,0,0,2.89-1.52A.48.48,0,0,0,13.87,11.83ZM11,13.16a1,1,0,1,1,.38-1.93.53.53,0,0,0-.28.46.55.55,0,0,0,.54.55A.53.53,0,0,0,12,12.1s0,0,0,.06A1,1,0,0,1,11,13.16Z" />
  <path class="bhjfbj88incj2"
    d="M7.5,13a1.28,1.28,0,0,1,0-1.75A5.13,5.13,0,0,1,11,9.51a4.74,4.74,0,0,1,3,1.34V6.7H6.7V14H8.64A7,7,0,0,1,7.5,13Z" />
</svg>