<svg xmlns="http://www.w3.org/2000/svg" xmlns:xlink="http://www.w3.org/1999/xlink" fill="none" version="1.1" width="24" height="24" viewBox="0 0 24 24"><defs><clipPath id="master_svg0_1343_38015"><rect x="0" y="0" width="24" height="24" rx="0"/></clipPath></defs><g clip-path="url(#master_svg0_1343_38015)"><g><rect x="1.5" y="12.5" width="21" height="7" rx="1.5" fill="#DDBEF6" fill-opacity="1"/></g><g><path d="M12.000004523925782,9C11.840004523925781,9,11.68950452392578,8.9235,11.595504523925781,8.794L7.595500423925781,3.294C7.433000523925781,3.0705,7.482500523925781,2.758,7.706000523925781,2.5955C7.791500523925781,2.5335,7.894500523925782,2.5,8.000000523925781,2.5L16.00000452392578,2.5C16.27599452392578,2.5,16.50000452392578,2.724,16.50000452392578,3C16.50000452392578,3.1055,16.466494523925782,3.2085,16.40449452392578,3.294L12.40450452392578,8.794C12.31050452392578,8.9235,12.160004523925782,9,12.000004523925782,9Z" fill="#8D4EDA" fill-opacity="1" style="mix-blend-mode:passthrough"/></g><g><path d="M12.002449035644531,13.5L3.5024490356445312,13.5C2.9501640356445313,13.5,2.5024490356445312,13.947715,2.5024490356445312,14.5L2.5024490356445312,17.5C2.5024490356445312,18.05228,2.9501640356445313,18.5,3.5024490356445312,18.5L12.002449035644531,18.5L12.002449035644531,13.5Z" fill="#8D4EDA" fill-opacity="1" style="mix-blend-mode:passthrough"/></g><g><path d="M11.247550964355469,12Q11.247550964355469,11.9261315,11.261961964355468,11.853682Q11.276372964355469,11.781233,11.30464096435547,11.712987Q11.33290996435547,11.644742,11.373948964355469,11.583322Q11.414987964355468,11.521903,11.46722096435547,11.46967Q11.519453964355469,11.417437,11.58087296435547,11.376398Q11.64229296435547,11.335359,11.710537964355469,11.30709Q11.778783964355469,11.278822,11.851232964355468,11.264410999999999Q11.923682464355469,11.25,11.997550964355469,11.25Q12.071419464355468,11.25,12.14386896435547,11.264410999999999Q12.216317964355468,11.278822,12.284563964355469,11.30709Q12.352808964355468,11.335359,12.414228964355468,11.376398Q12.475647964355469,11.417437,12.527880964355468,11.46967Q12.58011396435547,11.521903,12.621152964355469,11.583322Q12.662191964355468,11.644742,12.690460964355468,11.712987Q12.718728964355469,11.781233,12.73313996435547,11.853682Q12.747550964355469,11.9261315,12.747550964355469,12L12.747550964355469,20Q12.747550964355469,20.07387,12.73313996435547,20.14632Q12.718728964355469,20.21877,12.690460964355468,20.287010000000002Q12.662191964355468,20.35526,12.621152964355469,20.41668Q12.58011396435547,20.478099999999998,12.527880964355468,20.53033Q12.475647964355469,20.58256,12.414228964355468,20.6236Q12.352808964355468,20.66464,12.284563964355469,20.692909999999998Q12.216317964355468,20.72118,12.14386896435547,20.735590000000002Q12.071419464355468,20.75,11.997550964355469,20.75Q11.923682464355469,20.75,11.851232964355468,20.735590000000002Q11.778783964355469,20.72118,11.710537964355469,20.692909999999998Q11.64229296435547,20.66464,11.58087296435547,20.6236Q11.519453964355469,20.58256,11.46722096435547,20.53033Q11.414987964355468,20.478099999999998,11.373948964355469,20.41668Q11.33290996435547,20.35526,11.30464096435547,20.287010000000002Q11.276372964355469,20.21877,11.261961964355468,20.14632Q11.247550964355469,20.07387,11.247550964355469,20L11.247550964355469,12Z" fill-rule="evenodd" fill="#8D4EDA" fill-opacity="1" style="mix-blend-mode:passthrough"/></g><g><path d="M21.259276313476562,14.7259744375Q19.92294631347656,13.3896484375,18.033096313476562,13.3896484375Q16.143246313476563,13.3896484375,14.806922313476562,14.7259734375Q13.470596313476562,16.0622984375,13.470596313476562,17.9521484375Q13.470596313476562,19.8419984375,14.806922313476562,21.1783184375Q16.143246313476563,22.5146484375,18.033096313476562,22.5146484375Q19.12340631347656,22.5146484375,20.02948631347656,22.0698584375L20.90915631347656,22.9495384375L20.909936313476564,22.9503084375Q21.014406313476563,23.0547684375,21.137236313476564,23.1368484375Q21.260076313476564,23.2189284375,21.396566313476562,23.275468437500002Q21.533066313476564,23.3320084375,21.677956313476564,23.3608284375Q21.822856313476564,23.3896484375,21.970596313476562,23.3896484375Q22.04428631347656,23.3896484375,22.117626313476563,23.3824284375Q22.190956313476562,23.3751984375,22.26322631347656,23.3608284375Q22.335506313476564,23.3464484375,22.406026313476563,23.325058437499997Q22.47653631347656,23.3036684375,22.544616313476563,23.275468437500002Q22.61270631347656,23.2472684375,22.677686313476563,23.212528437499998Q22.74267631347656,23.1777884375,22.803946313476562,23.1368484375Q22.865226313476562,23.0959084375,22.922186313476562,23.0491684375Q22.979146313476562,23.002418437499998,23.03125631347656,22.9503084375Q23.08336631347656,22.8981984375,23.130116313476563,22.8412384375Q23.176856313476563,22.7842784375,23.217796313476562,22.7229984375Q23.25873631347656,22.6617284375,23.29347631347656,22.5967384375Q23.328216313476563,22.5317584375,23.356416313476565,22.4636684375Q23.384616313476563,22.3955884375,23.40600631347656,22.3250784375Q23.427396313476564,22.254558437500002,23.441776313476563,22.1822784375Q23.456146313476562,22.1100084375,23.463376313476562,22.0366784375Q23.470596313476562,21.9633384375,23.470596313476562,21.8896484375Q23.470596313476562,21.7419084375,23.441776313476563,21.5970084375Q23.412956313476563,21.4521184375,23.356416313476565,21.3156184375Q23.299876313476563,21.1791284375,23.217796313476562,21.0562884375Q23.135716313476564,20.9334484375,23.03125631347656,20.8289884375L23.030486313476562,20.8282084375L22.15080631347656,19.948538437499998Q22.595596313476562,19.0424584375,22.595596313476562,17.9521484375Q22.595596313476562,16.0622984375,21.259276313476562,14.7259744375ZM19.15240631347656,19.0423784375Q19.595596313476562,18.5890484375,19.595596313476562,17.9521484375Q19.595596313476562,17.3049384375,19.13794631347656,16.8472984375Q18.680306313476564,16.3896484375,18.033096313476562,16.3896484375Q17.38588631347656,16.3896484375,16.928246313476564,16.8472984375Q16.470596313476562,17.3049384375,16.470596313476562,17.9521484375Q16.470596313476562,18.5993584375,16.928246313476564,19.0569984375Q17.38588631347656,19.5146484375,18.033096313476562,19.5146484375Q18.669996313476563,19.5146484375,19.12332631347656,19.0714584375Q19.13766631347656,19.0567184375,19.15240631347656,19.0423784375Z" fill-rule="evenodd" fill="#FFFFFF" fill-opacity="1"/></g><g><path d="M20.55216631347656,15.4330804375Q19.50873631347656,14.3896484375,18.033096313476562,14.3896484375Q16.557456313476564,14.3896484375,15.514029313476563,15.4330804375Q14.470597313476562,16.4765084375,14.470596313476562,17.9521484375Q14.470597313476562,19.4277884375,15.514029313476563,20.4712184375Q16.557466313476564,21.5146484375,18.033096313476562,21.5146484375Q19.252206313476563,21.5146484375,20.176316313476562,20.8024684375L21.617046313476564,22.2431984375Q21.687366313476563,22.3135284375,21.779256313476562,22.3515884375Q21.871136313476562,22.3896484375,21.970596313476562,22.3896484375Q22.019846313476563,22.3896484375,22.068136313476565,22.380038437499998Q22.116436313476562,22.3704284375,22.161936313476563,22.3515884375Q22.207436313476563,22.332738437499998,22.248376313476562,22.3053784375Q22.289326313476565,22.278018437500002,22.32414631347656,22.2431984375Q22.358966313476564,22.208378437500002,22.386326313476562,22.1674284375Q22.41368631347656,22.1264884375,22.43253631347656,22.0809884375Q22.451376313476562,22.0354884375,22.46098631347656,21.987188437500002Q22.470596313476562,21.9388984375,22.470596313476562,21.8896484375Q22.470596313476562,21.7901884375,22.43253631347656,21.6983084375Q22.394476313476563,21.6064184375,22.32414631347656,21.5360984375L20.883416313476562,20.0953684375Q21.595596313476562,19.1712484375,21.595596313476562,17.9521484375Q21.595596313476562,16.4765184375,20.55216631347656,15.4330804375ZM19.855526313476563,19.7535884375Q20.595596313476562,19.0061384375,20.595596313476562,17.9521484375Q20.595596313476562,16.8907284375,19.84505631347656,16.1401884375Q19.09451631347656,15.3896484375,18.033096313476562,15.3896484375Q16.971676313476564,15.3896484375,16.221136313476563,16.1401884375Q15.470596313476562,16.8907284375,15.470596313476562,17.9521484375Q15.470597313476562,19.0135684375,16.221136313476563,19.7641084375Q16.971676313476564,20.5146484375,18.033096313476562,20.5146484375Q19.087096313476565,20.5146484375,19.834536313476562,19.7745784375Q19.84471631347656,19.763768437499998,19.855526313476563,19.7535884375Z" fill-rule="evenodd" fill="#8D4EDA" fill-opacity="1"/></g></g></svg>