<svg id="图层_1" data-name="图层 1" xmlns="http://www.w3.org/2000/svg" viewBox="0 0 18 18">
  <defs>
    <style>
      .fartfcsfdc21 {
        fill: #34c765;
      }

      .fartfcsfdc22 {
        fill: #fff;
      }
    </style>
  </defs>
  <g id="IconAomMenuMJRWColor">
    <rect class="fartfcsfdc21" width="18" height="18" rx="4" />
  </g>
  <path class="fartfcsfdc22"
    d="M11.35,12.9a24.6,24.6,0,0,0-4.7,0,.52.52,0,1,0,.09,1,24.37,24.37,0,0,1,4.52,0h0a.52.52,0,0,0,0-1Z" />
  <path class="fartfcsfdc22"
    d="M9,6.82a3,3,0,0,0-2,1,.33.33,0,0,0,0,.45,3,3,0,0,0,2,1,3,3,0,0,0,2-1,.33.33,0,0,0,0-.45A3,3,0,0,0,9,6.82Zm0,2A.7.7,0,0,1,9,7.39a.58.58,0,0,1,.26.06.37.37,0,0,0-.19.32.38.38,0,0,0,.38.37A.37.37,0,0,0,9.69,8v0A.69.69,0,0,1,9,8.78Z" />
  <path class="fartfcsfdc22"
    d="M14.2,5a.89.89,0,0,0-1-.89,27.63,27.63,0,0,1-8.32,0A.89.89,0,0,0,3.8,5V11.2a.89.89,0,0,0,1,.9,27.63,27.63,0,0,1,8.32,0,.89.89,0,0,0,1-.9ZM11.6,8.88A3.83,3.83,0,0,1,9,10.18a3.83,3.83,0,0,1-2.6-1.3,1.16,1.16,0,0,1,0-1.59A3.83,3.83,0,0,1,9,6a3.83,3.83,0,0,1,2.6,1.3A1.16,1.16,0,0,1,11.6,8.88Z" />
</svg>