<svg id="_1" data-name="1" xmlns="http://www.w3.org/2000/svg" viewBox="0 0 24 24">
  <path
    d="M5.63,18.19a1,1,0,0,0,1-1V6.94a1,1,0,0,0-2.06,0V17.17A1,1,0,0,0,5.63,18.19Zm4.84,0a1,1,0,0,0,1-1V2.73a1,1,0,0,0-2.06,0V17.17A1,1,0,0,0,10.47,18.19Zm4.84,0a1,1,0,0,0,1-1V12.06a1,1,0,0,0-2.05,0v5.11A1,1,0,0,0,15.31,18.19Zm4.85,0a1,1,0,0,0,1-1V5.43a1,1,0,0,0-2.05,0V17.17A1,1,0,0,0,20.16,18.19ZM23,20.25H3.22a1.16,1.16,0,0,1-1.16-1.16V2.73A1,1,0,0,0,0,2.73V19.09a3.21,3.21,0,0,0,3.22,3.2H23a1,1,0,1,0,0-2Z" />
</svg>