<svg xmlns="http://www.w3.org/2000/svg" xmlns:xlink="http://www.w3.org/1999/xlink" fill="none" version="1.1" width="24" height="24" viewBox="0 0 24 24"><defs><clipPath id="master_svg0_644_31739"><rect x="0" y="0" width="24" height="24" rx="0"/></clipPath></defs><g clip-path="url(#master_svg0_644_31739)"><g><path d="M9.815000000000001,7.084C12.695,3.383,17.195,1,22.25,1C22.6642,1,23,1.335786,23,1.75C23,6.806,20.617,11.305,16.916,14.186C17.5708,18.2864,14.4027,22,10.25,22C9.83579,22,9.5,21.6642,9.5,21.25L9.5,17.119C8.52793,16.351399999999998,7.64925,15.4724,6.882,14.5L2.75,14.5C2.335786,14.5,2,14.1642,2,13.75C1.999664307,9.59701,5.71403,6.42875,9.815000000000001,7.084ZM15.5,6.25C14.2574,6.25,13.25,7.25736,13.25,8.5C13.25,9.74264,14.2574,10.75,15.5,10.75C16.7426,10.75,17.75,9.74264,17.75,8.5C17.75,7.25736,16.7426,6.25,15.5,6.25Z" fill-rule="evenodd" fill="#3491FA" fill-opacity="1"/></g><g><path d="M5.7600149902343745,16.742012578125C6.092494990234375,16.494402578125,6.161174990234375,16.024078578125,5.913364990234375,15.691739578125C5.665564990234375,15.359400778125,5.195204990234375,15.291006078125,4.863014990234375,15.539009578125C3.299546990234375,16.702002578125,2.510028990234375,18.636122578125,2.813010190234375,20.561012578125002C2.862617990234375,20.883792578125,3.115387990234375,21.137372578125,3.438009990234375,21.188012578125C5.363084990234375,21.490762578125,7.297254990234375,20.700852578125,8.460004990234374,19.137012578125C8.715974990234375,18.805332578125,8.650584990234375,18.328282578125,8.314814990234375,18.077712578125C7.979054990234375,17.827152578125002,7.503114990234375,17.900232578125,7.258004990234375,18.240012578125C6.550844990234375,19.191052578125,5.435154990234375,19.751132578125,4.250004990234375,19.750012578125002C4.250004990234375,18.520012578124998,4.842004990234376,17.427012578125,5.7600149902343745,16.742012578125Z" fill="#9FD4FD" fill-opacity="1"/></g></g></svg>