<svg id="图层_1" data-name="图层 1" xmlns="http://www.w3.org/2000/svg" viewBox="0 0 18 18">
  <defs>
    <style>
      .u97bc8oi-1 {
        fill: #854bfa;
      }

      .u97bc8oi-2 {
        fill: #fff;
      }
    </style>
  </defs>
  <g id="IconAomMenuGJKColor">
    <rect class="u97bc8oi-1" width="18" height="18" rx="4" />
  </g>
  <path class="u97bc8oi-2"
    d="M13.68,13.16h-.52V4.84a1,1,0,0,0-1-1H5.88a1,1,0,0,0-1,1v8.32H4.32a.52.52,0,0,0,0,1h9.36a.52.52,0,0,0,0-1ZM7.1,11.51a.41.41,0,0,1,.41.41.42.42,0,1,1-.83,0A.41.41,0,0,1,7.1,11.51Zm-.42-1.13a.42.42,0,0,1,.83,0,.42.42,0,1,1-.83,0Zm2,1.13H10.9a.41.41,0,0,1,.42.41.42.42,0,0,1-.42.42H8.64a.42.42,0,0,1-.42-.42A.41.41,0,0,1,8.64,11.51Zm-.42-1.13A.41.41,0,0,1,8.64,10H10.9a.41.41,0,0,1,.42.41.42.42,0,0,1-.42.42H8.64A.42.42,0,0,1,8.22,10.38ZM6.4,5.87a.52.52,0,0,1,.52-.52h4.16a.52.52,0,0,1,.52.52V8a.52.52,0,0,1-.52.52H6.92A.52.52,0,0,1,6.4,8Z" />
</svg>