<svg xmlns="http://www.w3.org/2000/svg" viewBox="0 0 18 18">
  <g id="图层_2" data-name="图层 2">
    <g id="图层_1-2" data-name="图层 1">
      <g id="IconAomMenuCSGLColor">
        <rect fill="#30b0f0" width="18" height="18" rx="4" />
        <path fill="#fff"
          d="M12.84,4H5.16a1,1,0,0,0-1,1v8a1,1,0,0,0,1,1h7.68a1,1,0,0,0,1-1V5A1,1,0,0,0,12.84,4Zm-1,7.74h-.89v.1a.4.4,0,1,1-.79,0v-.1h-4a.4.4,0,1,1,0-.8h4v-.1a.4.4,0,1,1,.79,0v.1h.89a.4.4,0,1,1,0,.8Zm0-2.34H9.4v.1a.4.4,0,0,1-.8,0V9.4H6.17a.4.4,0,1,1,0-.8H8.6V8.5a.4.4,0,0,1,.8,0v.1h2.43a.4.4,0,1,1,0,.8Zm0-2.34h-4v.1a.4.4,0,0,1-.4.4.39.39,0,0,1-.4-.4v-.1H6.17a.4.4,0,0,1,0-.8h.89v-.1a.39.39,0,0,1,.4-.4.4.4,0,0,1,.4.4v.1h4a.4.4,0,1,1,0,.8Z" />
      </g>
    </g>
  </g>
</svg>