<svg id="图层_1" data-name="图层 1" xmlns="http://www.w3.org/2000/svg" viewBox="0 0 18 18">
  <defs>
    <style>
      .vh908cdaagc1 {
        fill: #34c765;
      }

      .vh908cdaagc2 {
        fill: #fff;
      }
    </style>
  </defs>
  <g id="IconAomMenuMJRWColor">
    <rect class="vh908cdaagc1" width="18" height="18" rx="4" />
  </g>
  <path class="vh908cdaagc2"
    d="M7.67,7.48h0a.47.47,0,0,0-.51.41v.86a.47.47,0,0,0,.51.4.47.47,0,0,0,.51-.4V7.89A.47.47,0,0,0,7.67,7.48Z" />
  <path class="vh908cdaagc2" d="M10.33,7.48a.47.47,0,0,0-.51.41v.86a.53.53,0,0,0,1,0V7.89a.47.47,0,0,0-.51-.41Z" />
  <path class="vh908cdaagc2"
    d="M13.27,10.31h0a1.92,1.92,0,0,0-.41-.19l-.17-.06-.15,0a2,2,0,0,0-.36,0,2.14,2.14,0,0,0-.45.05h0a2.09,2.09,0,0,0-1.18.73h0a2.83,2.83,0,0,0-.2.28l0,0a2.39,2.39,0,0,0-.13.28.65.65,0,0,1,0,.13,1.8,1.8,0,0,0-.06.22,1.75,1.75,0,0,0,0,.4,2.33,2.33,0,0,0,0,.38.52.52,0,0,1,0,.11,2,2,0,0,0,.09.26.36.36,0,0,0,0,.11,1.64,1.64,0,0,0,.16.29.08.08,0,0,0,0,0,1.86,1.86,0,0,0,.22.27l.09.09.19.15.11.08.26.14.07,0h0a2,2,0,0,0,.81.17,2.11,2.11,0,0,0,1.09-3.93ZM12.6,13a.42.42,0,0,1-.24.38.41.41,0,0,1-.18,0,.42.42,0,0,1-.42-.43v-.67a.42.42,0,1,1,.84,0Zm-.42-1.38a.47.47,0,0,1-.17,0h0l-.11-.08,0,0a.22.22,0,0,1,0-.08l0,0a.4.4,0,0,1,0-.15.42.42,0,0,1,.42-.42.37.37,0,0,1,.15,0,.26.26,0,0,1,.09,0l0,0a.38.38,0,0,1,.13.25s0,0,0,.06A.42.42,0,0,1,12.18,11.64Z" />
  <path class="vh908cdaagc2"
    d="M9.48,10.89H8.09a2.55,2.55,0,0,1,.06-5.1h.14l.41.32a.44.44,0,0,0,.6,0l.41-.32h.2A2.56,2.56,0,0,1,12.4,8.34a2.38,2.38,0,0,1-.15.81A3,3,0,0,1,14,9.8a3.12,3.12,0,0,0,.28-1.4c0-1-.3-1.72-.66-1.72a.27.27,0,0,0-.17.06,3.84,3.84,0,0,0-2.55-2.13s0-.08,0-.12a.73.73,0,0,0-.73-.73H7.68a.73.73,0,0,0-.6.83A3.89,3.89,0,0,0,4.53,6.73a.34.34,0,0,0-.17-.05c-.36,0-.66.77-.66,1.72s.3,1.72.66,1.72A.29.29,0,0,0,4.57,10a3.84,3.84,0,0,0,3.27,2.15c-1.3.21-2.24.77-2.24,1.43,0,.51,2.51.71,4.48.6a2.94,2.94,0,0,1-.6-3.32Z" />
</svg>