<svg id="图层_1" data-name="图层 1" xmlns="http://www.w3.org/2000/svg" viewBox="0 0 18 18">
  <defs>
    <style>
      .ncdwui86-1 {
        fill: #30b0f0;
      }

      .ncdwui86-2 {
        fill: #fff;
      }
    </style>
  </defs>
  <g id="IconAomMenuGJKGLColor">
    <rect class="ncdwui86-1" width="18" height="18" rx="4" />
  </g>
  <path class="ncdwui86-2"
    d="M13,8.49a1.09,1.09,0,0,0,1-1.16V5.65a1.09,1.09,0,0,0-1-1.16H5A1.09,1.09,0,0,0,4,5.65V7.33A1.09,1.09,0,0,0,5,8.49H6.5v1H5a1.09,1.09,0,0,0-1,1.16v1.68a1.09,1.09,0,0,0,1,1.16h8a1.09,1.09,0,0,0,1-1.16V10.67a1.09,1.09,0,0,0-1-1.16H11.5v-1ZM11.66,6a.4.4,0,0,1,.8,0v.9a.4.4,0,0,1-.8,0Zm-2,0a.4.4,0,1,1,.8,0v.9a.4.4,0,1,1-.8,0Zm-2,0a.4.4,0,1,1,.8,0v.9a.4.4,0,1,1-.8,0Zm-1.24.9a.4.4,0,1,1-.8,0V6a.4.4,0,1,1,.8,0Zm1,2.57v-1h3.4v1H7.3Zm4.76,1.25a.75.75,0,0,1,0,1.5.75.75,0,0,1,0-1.5Z" />
</svg>