<svg id="图层_1" data-name="图层 1" xmlns="http://www.w3.org/2000/svg" viewBox="0 0 18 18">
  <defs>
    <style>
      .bucekoij46-1 {
        fill: #f0953a;
      }

      .bucekoij46-2 {
        fill: #fff;
      }
    </style>
  </defs>
  <g id="IconAomMenuCSGLColor">
    <rect class="bucekoij46-1" width="18" height="18" rx="4" />
  </g>
  <path class="bucekoij46-2"
    d="M7.67,7.48h0a.47.47,0,0,0-.51.41v.86a.47.47,0,0,0,.51.4.47.47,0,0,0,.51-.4V7.89A.47.47,0,0,0,7.67,7.48Z" />
  <path class="bucekoij46-2" d="M10.84,7.89a.47.47,0,0,0-.51-.41h0a.47.47,0,0,0-.51.41v.86a.53.53,0,0,0,1,0Z" />
  <path class="bucekoij46-2"
    d="M13.29,12l.6-.6a.45.45,0,0,0-.32-.77H11.16a.46.46,0,0,0-.44.45v1h0v.19h0v1.2a.45.45,0,0,0,.45.46.41.41,0,0,0,.31-.14l.61-.6.88.88a.45.45,0,0,0,.32.14.43.43,0,0,0,.31-.14l.59-.58a.47.47,0,0,0,0-.64Z" />
  <path class="bucekoij46-2"
    d="M9.87,11.09a1.49,1.49,0,0,1,0-.21H8.09a2.55,2.55,0,0,1,.06-5.1h.14l.41.32a.44.44,0,0,0,.6,0l.41-.32h.2a2.54,2.54,0,0,1,2,4l1.63,0h0a1.2,1.2,0,0,1,.42.08A3.08,3.08,0,0,0,14.3,8.4c0-1-.3-1.72-.66-1.72a.27.27,0,0,0-.17.06,3.84,3.84,0,0,0-2.55-2.13s0-.08,0-.12a.73.73,0,0,0-.73-.73H7.68a.73.73,0,0,0-.6.83A3.89,3.89,0,0,0,4.53,6.73a.34.34,0,0,0-.17-.05c-.36,0-.66.77-.66,1.72s.3,1.72.66,1.72A.29.29,0,0,0,4.57,10a3.84,3.84,0,0,0,3.27,2.15c-1.3.21-2.24.77-2.24,1.43,0,.51,2.49.71,4.45.6a1.37,1.37,0,0,1-.2-.72Z" />
</svg>