<svg id="图层_1" data-name="图层 1" xmlns="http://www.w3.org/2000/svg" viewBox="0 0 18 18">
  <defs>
    <style>
      .chiuahfio672bk-1 {
        fill: #854bfa;
      }

      .chiuahfio672bk-2 {
        fill: #fff;
      }
    </style>
  </defs>
  <g id="IconAomMenuCSGLColor">
    <rect class="chiuahfio672bk-1" width="18" height="18" rx="4" />
  </g>
  <path class="chiuahfio672bk-2"
    d="M5,6.92h8a1,1,0,0,0,1-1v-.5a1,1,0,0,0-1-1H5a1,1,0,0,0-1,1v.5A1,1,0,0,0,5,6.92ZM7.65,5.27h.1a.4.4,0,0,1,0,.8h-.1a.4.4,0,0,1,0-.8Zm-2.22,0h.8a.4.4,0,0,1,0,.8h-.8a.4.4,0,0,1,0-.8Z" />
  <polygon class="chiuahfio672bk-2" points="10.28 10.56 10.28 10.56 10.28 10.56 10.28 10.56" />
  <path class="chiuahfio672bk-2"
    d="M12,12.74a1.27,1.27,0,0,1-.39-.06,1.17,1.17,0,0,1-.71-1.5l-.11-.1h0l-.51-.52a1.58,1.58,0,0,0-.21.52h0a2,2,0,0,0,0,.24,2.11,2.11,0,0,0,0,.26,2,2,0,0,0,2,2h0a2,2,0,0,0,1-.28l-.63-.62A1.32,1.32,0,0,1,12,12.74Z" />
  <path class="chiuahfio672bk-2"
    d="M9.25,11.08H5a1,1,0,0,0-1,1v.5a1,1,0,0,0,1,1h5a2.79,2.79,0,0,1-.84-2A2.73,2.73,0,0,1,9.25,11.08Zm-3,1.65h-.8a.4.4,0,0,1,0-.8h.8a.4.4,0,1,1,0,.8Zm1.52,0h-.1a.4.4,0,0,1,0-.8h.1a.4.4,0,0,1,0,.8Z" />
  <path class="chiuahfio672bk-2"
    d="M13.89,12.21a1.9,1.9,0,0,0,.11-.63,2,2,0,0,0-1.22-1.85h0a2,2,0,0,0-.35-.1,1.75,1.75,0,0,0-.4,0h0a2,2,0,0,0-1,.27l.4.4h0l.23.23a1.12,1.12,0,0,1,.78,0,1.17,1.17,0,0,1,.67.6h0a1.3,1.3,0,0,1,.11.43v0a1.34,1.34,0,0,1,0,.2,2,2,0,0,1-.06.23l.62.62a1.77,1.77,0,0,0,.15-.31A.19.19,0,0,0,13.89,12.21Z" />
  <path class="chiuahfio672bk-2"
    d="M12,11.94a.25.25,0,0,0,.12,0,1.25,1.25,0,0,1,.19,0,.43.43,0,0,1,0-.19.38.38,0,0,0-.23-.47l-.12,0-.12,0a.63.63,0,0,1-.19,0,.41.41,0,0,1,0,.19.38.38,0,0,0,.23.47A.25.25,0,0,0,12,11.94Z" />
  <path class="chiuahfio672bk-2"
    d="M5,10.25H9.54a.2.2,0,0,1,0-.08.8.8,0,0,1,.61-.4v0a.8.8,0,0,1,.39-.59A2.82,2.82,0,0,1,12,8.78h0a2.75,2.75,0,0,1,1.94.79A.87.87,0,0,0,14,9.25v-.5a1,1,0,0,0-1-1H5a1,1,0,0,0-1,1v.5A1,1,0,0,0,5,10.25ZM7.65,8.6h.1a.4.4,0,0,1,0,.8h-.1a.4.4,0,1,1,0-.8Zm-2.22,0h.8a.4.4,0,0,1,0,.8h-.8a.4.4,0,0,1,0-.8Z" />
</svg>