<svg xmlns="http://www.w3.org/2000/svg" xmlns:xlink="http://www.w3.org/1999/xlink" fill="none" version="1.1" width="24" height="24" viewBox="0 0 24 24"><defs><clipPath id="master_svg0_732_53863"><rect x="0" y="0" width="24" height="24" rx="0"/></clipPath></defs><g clip-path="url(#master_svg0_732_53863)"><g><path d="M11.000038447265625,6.999755859375Q11.000038447265625,6.901264459375,11.019248447265625,6.804665859375Q11.038468447265625,6.708066859375,11.076158447265625,6.617072859375Q11.113848447265624,6.526077859375,11.168568447265624,6.444185859375Q11.223288447265624,6.362292859375,11.292928447265625,6.292648859375Q11.362568447265625,6.223004859375,11.444468447265624,6.168285859375Q11.526358447265626,6.113567859375,11.617348447265625,6.075876859375Q11.708348447265625,6.038185859375,11.804948447265625,6.018970859375Q11.901538447265626,5.999755859375,12.000038447265625,5.999755859375Q12.098528447265625,5.999755859375,12.195128447265624,6.018970859375Q12.291728447265626,6.038185859375,12.382718447265624,6.075876859375Q12.473708447265626,6.113567859375,12.555608447265625,6.168285859375Q12.637498447265624,6.223004859375,12.707138447265624,6.292648859375Q12.776788447265625,6.362292859375,12.831508447265625,6.444185859375Q12.886218447265625,6.526077859375,12.923918447265624,6.617072859375Q12.961608447265625,6.708066859375,12.980818447265625,6.804665859375Q13.000038447265625,6.901264459375,13.000038447265625,6.999755859375L13.000038447265625,10.999805859375L15.333408447265626,10.999805859375Q16.437978447265625,10.999805859375,17.219008447265622,11.780855859375Q18.000108447265625,12.561915859375,18.000108447265625,13.666485859375001L18.000108447265625,16.999855859375Q18.000108447265625,17.098355859374998,17.980908447265627,17.194955859375Q17.961608447265625,17.291555859375002,17.924008447265624,17.382555859375Q17.886308447265627,17.473555859375,17.831508447265627,17.555455859375Q17.776808447265623,17.637355859375,17.707208447265625,17.706955859375Q17.637508447265624,17.776555859375,17.555608447265627,17.831355859375Q17.473808447265625,17.886055859375,17.382808447265624,17.923755859375Q17.291808447265623,17.961455859375,17.195208447265625,17.980655859375Q17.098608447265626,17.999855859375,17.000108447265625,17.999855859375Q16.901588447265624,17.999855859375,16.804998447265625,17.980655859375Q16.708398447265623,17.961455859375,16.617398447265625,17.923755859375Q16.526408447265624,17.886055859375,16.444508447265626,17.831355859375Q16.362618447265625,17.776555859375,16.292978447265625,17.706955859375Q16.223328447265626,17.637355859375,16.168608447265626,17.555455859375Q16.113898447265626,17.473555859375,16.076208447265625,17.382555859375Q16.038508447265627,17.291555859375002,16.019298447265626,17.194955859375Q16.000088447265625,17.098355859374998,16.000088447265625,16.999855859375L16.000088447265625,13.666485859375001Q16.000088447265625,13.390335859375,15.804818447265625,13.195075859374999Q15.609548447265626,12.999805859375,15.333408447265626,12.999805859375L8.666588447265624,12.999805859375Q7.999908447265625,12.999805859375,7.999908447265625,13.666485859375001L7.999908447265625,13.999755859375Q7.999908447265625,14.098245859375,7.980693447265625,14.194845859375Q7.961478447265625,14.291445859375,7.923787447265625,14.382435859375Q7.886096447265625,14.473435859375,7.831378447265625,14.555325859375Q7.776659447265625,14.637215859375,7.707015447265625,14.706865859375Q7.637371447265625,14.776505859375,7.555478447265625,14.831225859375Q7.473586447265625,14.885945859375,7.382591447265625,14.923635859375Q7.291597447265625,14.961325859375,7.194998447265625,14.980535859375Q7.098399847265625,14.999755859375,6.999908447265625,14.999755859375Q6.901417047265625,14.999755859375,6.804818447265625,14.980535859375Q6.708219447265625,14.961325859375,6.617225447265625,14.923635859375Q6.526230447265625,14.885945859375,6.444338447265625,14.831225859375Q6.362445447265625,14.776505859375,6.292801447265625,14.706865859375Q6.223157447265625,14.637215859375,6.168438447265625,14.555325859375Q6.113720447265625,14.473435859375,6.076029447265625,14.382435859375Q6.038338447265625,14.291445859375,6.019123447265625,14.194845859375Q5.999908447265625,14.098245859375,5.999908447265625,13.999755859375L5.999908447265625,13.666485859375001Q5.999908447265625,12.561915859375,6.780962447265625,11.780855859375Q7.562015447265625,10.999805859375,8.666588447265624,10.999805859375L11.000038447265625,10.999805859375L11.000038447265625,6.999755859375Z" fill-rule="evenodd" fill="#F9CC45" fill-opacity="1"/></g><g><rect x="8.66668701171875" y="2" width="6.6667327880859375" height="6.6667327880859375" rx="1.6666831970214844" fill="#FF7D00" fill-opacity="1"/></g><g><g><path d="M8.412558173828124,20.05410407585144L4.912628173828125,20.05410407585144Q4.814136773828125,20.05410407585144,4.717538173828125,20.073314075851442Q4.620939173828125,20.09252407585144,4.529945173828125,20.13022407585144Q4.438950173828125,20.167914075851442,4.357058173828125,20.222634075851442Q4.275165173828125,20.277344075851442,4.205521173828125,20.34699407585144Q4.135877173828125,20.41663407585144,4.081158173828125,20.498524075851442Q4.026440173828125,20.58042407585144,3.988749173828125,20.67141407585144Q3.951058173828125,20.76241407585144,3.931843173828125,20.85900407585144Q3.912628173828125,20.95560407585144,3.912628173828125,21.05410407585144Q3.912628173828125,21.15259407585144,3.931843173828125,21.24919407585144Q3.951058173828125,21.34578407585144,3.988749173828125,21.436784075851442Q4.026440173828125,21.52777407585144,4.081158173828125,21.60966407585144Q4.135877173828125,21.69156407585144,4.205521173828125,21.761204075851442Q4.275165173828125,21.83085407585144,4.357058173828125,21.88556407585144Q4.438950173828125,21.94028407585144,4.529945173828125,21.977974075851442Q4.620939173828125,22.01567407585144,4.717538173828125,22.03488407585144Q4.814136773828125,22.05410407585144,4.912628173828125,22.05410407585144L8.412558173828124,22.05410407585144Q8.877808173828125,22.05410407585144,10.044488173828125,22.44741407585144Q11.992388173828125,23.10407407585144,13.312458173828125,23.10407407585144Q14.966128173828125,23.10407407585144,16.999228173828126,21.81026407585144Q18.294928173828126,20.98572407585144,19.269428173828125,20.01124407585144Q20.087328173828126,19.19336407585144,20.087328173828126,18.341655075851442Q20.087328173828126,17.685547075851442,19.614628173828123,17.27189807585144Q19.194328173828126,16.90416407585144,18.562328173828124,16.90416407585144Q17.783028173828125,16.90416407585144,12.676948173828125,17.92154107585144L10.828738173828125,17.30547407585144Q10.674788173828125,17.25415707585144,10.512518173828125,17.25415707585144Q10.414018173828126,17.25415707585144,10.317418173828125,17.27337207585144Q10.220828173828124,17.29258607585144,10.129828173828125,17.33027707585144Q10.038838173828125,17.36796807585144,9.956938173828124,17.42268707585144Q9.875048173828125,17.47740607585144,9.805408173828125,17.54705007585144Q9.735758173828124,17.61669407585144,9.681048173828124,17.69858707585144Q9.626328173828124,17.780479075851442,9.588638173828125,17.87147347585144Q9.550938173828126,17.96246767585144,9.531728173828125,18.05906707585144Q9.512508173828124,18.15566507585144,9.512518173828125,18.25415707585144Q9.512518173828125,18.33238107585144,9.524678173828125,18.409654075851442Q9.536838173828125,18.48692707585144,9.560868173828126,18.56136807585144Q9.584908173828126,18.635810075851442,9.620218173828125,18.70560907585144Q9.655528173828124,18.77540807585144,9.701268173828126,18.83886707585144Q9.747008173828124,18.90232607585144,9.802058173828126,18.95790407585144Q9.857108173828125,19.01347407585144,9.920128173828125,19.059814075851442Q9.983158173828125,19.10615407585144,10.052618173828126,19.14212407585144Q10.122078173828125,19.17810407585144,10.196288173828126,19.20284407585144L12.296238173828126,19.90282407585144Q12.548178173828125,19.986804075851442,12.808588173828124,19.93472407585144Q15.893728173828125,19.31770407585144,17.347128173828125,19.07010407585144Q16.708728173828124,19.62452407585144,15.925528173828125,20.12294407585144Q14.383728173828125,21.10407407585144,13.312458173828125,21.10407407585144Q12.320428173828125,21.10407407585144,10.683398173828124,20.552204075851442Q9.205848173828125,20.05410407585144,8.412558173828124,20.05410407585144Z" fill-rule="evenodd" fill="#FF7D00" fill-opacity="1"/></g><g><path d="M12.058578173828124,18.12133390625L12.057768173828125,18.12187390625Q11.955038173828125,18.19036390625,11.872048173828125,18.28178390625Q11.789058173828124,18.37320390625,11.730798173828125,18.48206390625Q11.672538173828125,18.59092390625,11.642498173828125,18.71069390625Q11.612468173828125,18.83045390625,11.612468173828125,18.95392390625Q11.612468173828125,19.05241390625,11.631688173828124,19.14901390625Q11.650898173828125,19.24561390625,11.688588173828126,19.336603906249998Q11.726278173828124,19.42760390625,11.780998173828124,19.50949390625Q11.835718173828125,19.59138390625,11.905358173828125,19.66103390625Q11.975008173828126,19.73067390625,12.056898173828124,19.78539390625Q12.138788173828125,19.84011390625,12.229788173828126,19.87780390625Q12.320778173828124,19.91549390625,12.417378173828125,19.93471390625Q12.513978173828125,19.95392390625,12.612468173828125,19.95392390625Q12.915248173828125,19.95392390625,13.167168173828125,19.78597390625L13.167198173828124,19.78595390625L13.167698173828125,19.78562390625Q14.141858173828124,19.13608390625,14.519938173828125,18.50594390625Q15.128428173828125,17.49187390625,14.462448173828125,16.60396390625Q13.891148173828125,15.84222290625,11.743518173828125,14.96563990625Q9.632508173828125,14.10400390625,8.412558173828124,14.10400390625Q6.248378173828125,14.10400390625,4.205521173828125,16.14686390625Q4.064869173828125,16.28751390625,3.988748173828125,16.47128390625Q3.912628173828125,16.65505390625,3.912628173828125,16.85396390625Q3.912628173828125,16.95246390625,3.931843173828125,17.04905390625Q3.951058173828125,17.14565390625,3.988749173828125,17.236653906249998Q4.026440173828125,17.32764390625,4.081158173828125,17.40953390625Q4.135877173828125,17.491433906250002,4.205521173828125,17.56107390625Q4.275165173828125,17.63072390625,4.357058173828125,17.68543390625Q4.438950173828125,17.74015390625,4.529945173828125,17.77784390625Q4.620939173828125,17.81553390625,4.717538173828125,17.83475390625Q4.814136773828125,17.85396390625,4.912628173828125,17.85396390625Q5.111540173828125,17.85396390625,5.295311173828125,17.77784390625Q5.479082173828125,17.70172390625,5.619735173828125,17.56107390625L5.620262173828125,17.56054390625Q7.077048173828125,16.10400390625,8.412558173828124,16.10400390625Q9.240058173828125,16.10400390625,10.987718173828124,16.81733390625Q12.244038173828125,17.33011390625,12.676488173828126,17.63730390625Q12.478688173828125,17.84119390625,12.058578173828124,18.12133390625Z" fill-rule="evenodd" fill="#FF7D00" fill-opacity="1"/></g></g></g></svg>