<svg id="图层_1" data-name="图层 1" xmlns="http://www.w3.org/2000/svg" viewBox="0 0 18 18">
  <defs>
    <style>
      .bhj667cahciu-1 {
        fill: #f0953a;
      }

      .bhj667cahciu-2 {
        fill: #fff;
      }
    </style>
  </defs>
  <g id="IconAomMenuCSGLColor">
    <rect class="bhj667cahciu-1" width="18" height="18" rx="4" />
  </g>
  <path class="bhj667cahciu-2"
    d="M13.77,13.24H12.71V9.39A3.71,3.71,0,0,0,9,5.69H9a3.71,3.71,0,0,0-3.71,3.7v3.85H4.23a.53.53,0,1,0,0,1.06h9.54a.53.53,0,0,0,0-1.06ZM7.46,10.12,8.92,8.27a.24.24,0,0,1,.43.15v1.2h1a.24.24,0,0,1,.19.39L9.08,11.86a.24.24,0,0,1-.43-.15v-1.2h-1A.24.24,0,0,1,7.46,10.12Z" />
  <path class="bhj667cahciu-2" d="M9,5.08a.53.53,0,0,0,.53-.53V4.23a.53.53,0,1,0-1.06,0v.32A.53.53,0,0,0,9,5.08Z" />
  <path class="bhj667cahciu-2"
    d="M13.45,7.35l.27-.16a.53.53,0,0,0,.2-.72.54.54,0,0,0-.73-.2l-.27.16a.55.55,0,0,0-.2.73A.54.54,0,0,0,13.45,7.35Z" />
  <path class="bhj667cahciu-2"
    d="M4.28,7.19l.27.16a.54.54,0,0,0,.73-.19.55.55,0,0,0-.2-.73l-.27-.16a.54.54,0,0,0-.73.2A.53.53,0,0,0,4.28,7.19Z" />
  <path class="bhj667cahciu-2"
    d="M11.31,5.75a.54.54,0,0,0,.73-.2l.16-.27a.53.53,0,0,0-.92-.53L11.12,5A.54.54,0,0,0,11.31,5.75Z" />
  <path class="bhj667cahciu-2" d="M6,5.55A.53.53,0,1,0,6.88,5l-.16-.27a.53.53,0,0,0-.92.53Z" />
</svg>