<svg xmlns="http://www.w3.org/2000/svg" xmlns:xlink="http://www.w3.org/1999/xlink" fill="none" version="1.1" width="24" height="24" viewBox="0 0 24 24"><defs><clipPath id="master_svg0_1372_34639"><rect x="0" y="0" width="24" height="24" rx="0"/></clipPath></defs><g clip-path="url(#master_svg0_1372_34639)"><g><g><path d="M12.000043628845216,13.396603257446289C10.685823628845215,13.396603257446289,9.047283628845214,13.16700325744629,7.130133628845215,12.713827257446288L7.340943628845215,11.821573257446289C9.189253628845215,12.25867125744629,10.756593628845215,12.47949825744629,11.999993628845214,12.47949825744629C13.201783628845215,12.47949825744629,14.709053628845215,12.27273025744629,16.480143628845212,11.863880757446289L16.686223628845212,12.756823257446289C14.848013628845216,13.181113257446288,13.271003628845214,13.396603257446289,12.000043628845216,13.396603257446289Z" fill="#FFB600" fill-opacity="1" style="mix-blend-mode:passthrough"/></g><g><path d="M5.1022193842010495,17.709571474456787L4.28718638420105,17.290571474456787L11.25813638420105,3.731999674456787L11.00235638420105,6.234241474456788L5.1022193842010495,17.709571474456787ZM18.90458638420105,17.733071474456786L11.97079638420105,4.237546474456787L12.71708638420105,3.683671474456787L19.72028638420105,17.31407147445679L18.90458638420105,17.733071474456786Z" fill="#FFB600" fill-opacity="1" style="mix-blend-mode:passthrough"/></g><g><path d="M10.62504768371582,4.083848476409912L13.37503768371582,4.083848476409912L13.37503768371582,19.039648476409912L10.62504768371582,19.039648476409912L10.62504768371582,4.083848476409912Z" fill="#FFC959" fill-opacity="1" style="mix-blend-mode:passthrough"/></g><g><path d="M12.0000262310791,1.0000000418243C10.734436231079101,1.0000000418243,9.708246231079102,2.02584,9.708246231079102,3.29212C9.708246231079102,4.556979999999999,10.734436231079101,5.58286,12.0000262310791,5.58286C13.265616231079102,5.58286,14.292146231079101,4.556979999999999,14.292146231079101,3.29212C14.292146231079101,2.02584,13.265616231079102,0.999999790058,12.0000262310791,1.0000000418243ZM12.0000262310791,3.74999C11.746906231079102,3.74999,11.541816231079101,3.54455,11.541816231079101,3.29212C11.541816231079101,3.03831,11.746946231079102,2.8328800000000003,12.0000262310791,2.8328800000000003C12.253096231079102,2.8328800000000003,12.458226231079102,3.03831,12.458226231079102,3.29212C12.458226231079102,3.54455,12.253136231079102,3.74999,12.0000262310791,3.74999Z" fill="#FFB600" fill-opacity="1" style="mix-blend-mode:passthrough"/></g><g><path d="M21.604841015625,16.321157455444336L21.195341015625,16.466183455444337C18.247941015625,17.508837455444336,15.154241015625,18.036527455444336,11.999741015625,18.036527455444336C8.845561015625,18.036527455444336,5.751831015625,17.508837455444336,2.8047910156249998,16.466183455444337L2.394911015625,16.321157455444336L1.092041015625,19.466577455444337L1.525097015625,19.637747455444337C4.8591810156249995,20.956387455444336,8.383611015625,21.625067455444338,12.000041015625,21.625067455444338C15.616141015625,21.625067455444338,19.140841015625,20.956347455444337,22.474941015625,19.637097455444337L22.907941015625,19.466577455444337L21.604841015625,16.321157455444336Z" fill="#FFC959" fill-opacity="1" style="mix-blend-mode:passthrough"/></g><g><path d="M12.458239479797363,12.916557951477051C12.458239479797363,13.17032095147705,12.253104479797363,13.375110951477051,12.000030479797363,13.375110951477051C11.746955479797363,13.375110951477051,11.541821479797363,13.17032095147705,11.541821479797363,12.916557951477051C11.541821479797363,12.663440951477051,11.746955479797363,12.45800495147705,12.000030479797363,12.45800495147705C12.253104479797363,12.45800495147705,12.458239479797363,12.66348295147705,12.458239479797363,12.916557951477051Z" fill="#644A08" fill-opacity="1" style="mix-blend-mode:passthrough"/></g><g><path d="M12.000031961669922,16.5836124420166C10.481021961669923,16.5836124420166,9.250041961669922,17.8149324420166,9.250041961669922,19.333592442016602L9.250041961669922,23.0000024420166L14.750011961669923,23.0000024420166L14.750011961669923,19.333592442016602C14.750011961669923,17.8148924420166,13.518691961669923,16.5836124420166,12.000031961669922,16.5836124420166Z" fill="#FFB600" fill-opacity="1" style="mix-blend-mode:passthrough"/></g><g><path d="M12.000014906799317,20.25006396057129C11.494466906799316,20.25006396057129,11.083252906799316,19.83851396057129,11.083252906799316,19.33364996057129C11.083252906799316,18.82810196057129,11.494467906799317,18.41654396057129,12.000014906799317,18.41654396057129C12.505222906799316,18.41654396057129,12.916432906799317,18.82810196057129,12.916432906799317,19.33364996057129C12.916432906799317,19.83851396057129,12.505222906799316,20.25006396057129,12.000014906799317,20.25006396057129Z" fill="#644A08" fill-opacity="1" style="mix-blend-mode:passthrough"/></g><g><path d="M12.00001768371582,17.95859146118164C11.24066568371582,17.95859146118164,10.62504768371582,18.57360646118164,10.62504768371582,19.33356146118164C10.62504768371582,20.09287146118164,11.24066568371582,20.70853146118164,12.00001768371582,20.70853146118164C12.75932768371582,20.70853146118164,13.37498768371582,20.09287146118164,13.37498768371582,19.33356146118164C13.37498768371582,18.57360646118164,12.75932768371582,17.95859146118164,12.00001768371582,17.95859146118164ZM12.00001768371582,19.79147146118164C11.74724768371582,19.79147146118164,11.54146568371582,19.58603146118164,11.54146568371582,19.33360146118164C11.54146568371582,19.08049146118164,11.74724768371582,18.87505246118164,12.00001768371582,18.87505246118164C12.252797683715821,18.87505246118164,12.45822768371582,19.08049146118164,12.45822768371582,19.33360146118164C12.45822768371582,19.58603146118164,12.25278768371582,19.79147146118164,12.00001768371582,19.79147146118164Z" fill="#FFC959" fill-opacity="1" style="mix-blend-mode:passthrough"/></g><g><path d="M3.7520980932769774,18.121728137207032C3.7965680932769774,18.13546813720703,3.8428420932769773,18.142468137207032,3.8893840932769774,18.14249813720703C4.084415093276977,18.14249813720703,4.2649980932769775,18.01763813720703,4.326439093276978,17.82157813720703L4.576502093276978,17.02529113720703C4.2821670932769775,16.943217137207032,3.9891820932769777,16.85636813720703,3.6976650932769775,16.76477813720703L3.4519422932769777,17.54692013720703C3.3760971932769777,17.78872813720703,3.5107179932769776,18.04584813720703,3.7520980932769774,18.121728137207032ZM5.933722093276978,18.73334813720703C5.964842093276978,18.739978137207032,5.996572093276978,18.743348137207033,6.0283920932769774,18.74340813720703C6.240582093276977,18.74340813720703,6.431222093276977,18.59502813720703,6.4765420932769775,18.37884813720703L6.657132093276978,17.51948713720703C6.357302093276978,17.460522137207033,6.058502093276978,17.396505137207033,5.760832093276978,17.327466137207033L5.579562093276977,18.19082813720703C5.527582093276978,18.43792813720703,5.685972093276978,18.68097813720703,5.933722093276978,18.73334813720703ZM8.154682093276978,19.139538137207033C8.175142093276978,19.142198137207032,8.195272093276976,19.14357813720703,8.215092093276978,19.14357813720703C8.441682093276977,19.14357813720703,8.638732093276978,18.97575813720703,8.668952093276978,18.745428137207032L8.787112093276978,17.85115813720703C8.483552093276977,17.816178137207032,8.180602093276978,17.776108137207032,7.878392093276978,17.73098413720703L7.7602320932769775,18.62525813720703C7.727002093276978,18.875668137207033,7.903582093276977,19.10663813720703,8.154682093276978,19.139538137207033ZM19.673292093276977,17.82157813720703C19.733292093276976,18.012478137207033,19.910192093276976,18.142388137207032,20.11029209327698,18.14249813720703C20.15599209327698,18.14249813720703,20.202392093276977,18.13578813720703,20.247992093276977,18.121728137207032C20.488992093276977,18.04583813720703,20.62389209327698,17.78872813720703,20.548092093276978,17.54700313720703L20.30239209327698,16.76486043440703C20.01089209327698,16.85647233720703,19.717892093276976,16.943321137207032,19.423492093276977,17.02537313720703L19.673292093276977,17.82157813720703ZM17.523492093276978,18.37884813720703C17.56849209327698,18.594988137207032,17.75919209327698,18.74340813720703,17.97129209327698,18.74340813720703C18.002892093276976,18.74340813720703,18.034492093276977,18.740058137207033,18.066692093276977,18.73334813720703C18.313792093276977,18.68097813720703,18.472192093276977,18.43796813720703,18.420492093276977,18.19086813720703L18.239192093276976,17.32750913720703C17.941592093276977,17.39653513720703,17.642692093276978,17.460550137207033,17.34289209327698,17.51953013720703L17.523492093276978,18.37884813720703ZM15.331492093276978,18.745428137207032C15.360992093276977,18.975718137207032,15.558392093276977,19.14357813720703,15.785292093276977,19.14357813720703C15.804792093276978,19.14357813720703,15.824892093276977,19.14223813720703,15.845692093276977,19.139538137207033C16.096792093276978,19.10663813720703,16.27269209327698,18.875668137207033,16.239792093276975,18.62525813720703L16.121692093276977,17.73098413720703C15.819592093276977,17.776088137207033,15.516692093276978,17.816158137207033,15.213292093276978,17.85115813720703L15.331492093276978,18.745428137207032Z" fill="#644A08" fill-opacity="1" style="mix-blend-mode:passthrough"/></g><g><path d="M15.666422942504884,22.083526611328125L8.333271942504883,22.083526611328125C8.080154942504883,22.083526611328125,7.875062942504883,22.288317611328125,7.875062942504883,22.541390611328126C7.875062942504883,22.794464611328124,8.080197942504883,22.999944611328125,8.333271942504883,22.999944611328125L15.666462942504882,22.999944611328125C15.919582942504883,22.999944611328125,16.125022942504884,22.794508611328126,16.125022942504884,22.541390611328126C16.125022942504884,22.288273611328126,15.919542942504883,22.083526611328125,15.666422942504884,22.083526611328125Z" fill="#644A08" fill-opacity="1" style="mix-blend-mode:passthrough"/></g></g><g><g><path d="M17.2725930078125,14.917778C17.3125930078125,14.676889,17.5214830078125,14.5,17.7659330078125,14.5L18.918373007812498,14.5C19.1628130078125,14.5,19.3717030078125,14.676889,19.4117030078125,14.917778L19.5063730078125,15.487111C19.5343730078125,15.65333,19.6454830078125,15.792,19.7930430078125,15.87378C19.825933007812502,15.89156,19.8583730078125,15.91067,19.8908130078125,15.93022C20.0352630078125,16.01733,20.2108130078125,16.04444,20.3685930078125,15.98533L20.9094830078125,15.78267C21.1383930078125,15.69658,21.3959830078125,15.78871,21.5183730078125,16.00044L22.0943730078125,16.99911C22.2164930078125,17.21086,22.1676230078125,17.47986,21.978813007812498,17.63511L21.533043007812502,18.002670000000002C21.4028130078125,18.10978,21.3383730078125,18.27511,21.3419330078125,18.44356C21.342553007812498,18.48133,21.342553007812498,18.51911,21.3419330078125,18.55689C21.3383730078125,18.724890000000002,21.4028130078125,18.89022,21.533043007812502,18.997329999999998L21.9792630078125,19.36489C22.1677030078125,19.52044,22.2165930078125,19.78933,22.0948130078125,20.00044L21.517933007812502,20.99911C21.3957130078125,21.21079,21.1383730078125,21.30309,20.9094830078125,21.21733L20.3685930078125,21.01467C20.2108130078125,20.95556,20.0352630078125,20.98267,19.8903730078125,21.06978C19.8581530078125,21.08938,19.825553007812502,21.10835,19.7925930078125,21.12667C19.6454830078125,21.208,19.5343730078125,21.34667,19.5063730078125,21.51289L19.4117030078125,22.08222C19.3717030078125,22.32355,19.1628130078125,22.5,18.918373007812498,22.5L17.7654830078125,22.5C17.5210430078125,22.5,17.3125930078125,22.32311,17.2721530078125,22.08222L17.1774830078125,21.51289C17.1499330078125,21.34667,17.0388130078125,21.208,16.8912630078125,21.12622C16.8583030078125,21.10804,16.8257030078125,21.08922,16.7934830078125,21.06978C16.6490430078125,20.98267,16.4734830078125,20.95555,16.3152630078125,21.01467L15.7743730078125,21.21733C15.5455930078125,21.30317,15.2882810078125,21.21107,15.1659280078125,20.99955L14.5894840078125,20.00089C14.4673618078125,19.78914,14.5162369378125,19.520139999999998,14.7050400078125,19.36489L15.1512620078125,18.997329999999998C15.2810390078125,18.89067,15.3454840078125,18.724890000000002,15.3423730078125,18.55689C15.3416780078125,18.51911,15.3416780078125,18.48133,15.3423730078125,18.443550000000002C15.3454840078125,18.27467,15.2810390078125,18.10978,15.1512620078125,18.002670000000002L14.7050400078125,17.63511C14.5164738778125,17.47991,14.4676171078125,17.211199999999998,14.5894840078125,16.99955L15.1659280078125,16.00089C15.288176007812499,15.78899,15.5458030078125,15.69666,15.7748130078125,15.78267L16.3152630078125,15.98533C16.4734830078125,16.04444,16.6490430078125,16.01733,16.7934830078125,15.93022C16.8254830078125,15.91067,16.8583730078125,15.892,16.8912630078125,15.87333C17.0388130078125,15.792,17.1499330078125,15.65333,17.1774830078125,15.48711L17.2725930078125,14.917778L17.2725930078125,14.917778Z" fill="#FFA100" fill-opacity="1"/><path d="M16.2862630078125,14.753005L16.2861030078125,14.753969L16.2621430078125,14.897411L16.1264030078125,14.84651Q15.6111130078125,14.652986,15.0929530078125,14.838691Q14.5747936078125,15.024397,14.2998520078125,15.50098L13.7228830078125,16.50055Q13.4486830078125,16.97675,13.5469800078125,17.51738Q13.6452770078125,18.05802,14.0692510078125,18.40697L14.1821870078125,18.5L14.0698970078125,18.592489999999998Q13.6450910078125,18.94181,13.5467730078125,19.48294Q13.4484530078125,20.02406,13.7234080078125,20.500799999999998L14.3003170078125,21.50027Q14.5756100078125,21.97618,15.0932490078125,22.161459999999998Q15.6108930078125,22.34673,16.1252430078125,22.15376L16.2618130078125,22.10259L16.285953007812502,22.247799999999998Q16.3768830078125,22.789360000000002,16.7958330078125,23.144370000000002Q17.2155130078125,23.5,17.7654830078125,23.5L18.918373007812498,23.5Q19.4681230078125,23.5,19.887673007812502,23.14498Q20.3081830078125,22.78914,20.3981630078125,22.24625L20.4220530078125,22.10259L20.5586330078125,22.15376Q21.0736330078125,22.34672,21.591313007812502,22.16105Q22.1089830078125,21.97539,22.3838330078125,21.49931L22.9610330078125,20.50011Q23.235633007812503,20.024079999999998,23.1372430078125,19.48295Q23.0390830078125,18.94305,22.6150530078125,18.59302L22.5019430078125,18.499859999999998L22.6139630078125,18.4075Q23.0387630078125,18.05818,23.1370830078125,17.51706Q23.2354030078125,16.975929999999998,22.960613007812498,16.49949L22.3841430078125,15.5Q22.1087630078125,15.023599,21.5906430078125,14.838286Q21.0725230078125,14.652972,20.5586130078125,14.846243L20.4220530078125,14.897412L20.398203007812498,14.75397Q20.3080730078125,14.211198,19.8879530078125,13.855426Q19.4682430078125,13.5,18.918373007812498,13.5L17.7659330078125,13.5Q17.2160630078125,13.5,16.7963530078125,13.855426Q16.3766030078125,14.210881,16.2862630078125,14.753005ZM17.7659330078125,14.5C17.5214830078125,14.5,17.3125930078125,14.676889,17.2725930078125,14.917778L17.1774830078125,15.48711C17.1499330078125,15.65333,17.0388130078125,15.792,16.8912630078125,15.87333C16.8583730078125,15.892,16.8254830078125,15.91067,16.7934830078125,15.93022C16.6490430078125,16.01733,16.4734830078125,16.04444,16.3152630078125,15.98533L15.7748130078125,15.78267C15.5458030078125,15.69666,15.288176007812499,15.78899,15.1659280078125,16.00089L14.5894840078125,16.99955C14.4676171078125,17.211199999999998,14.5164738778125,17.47991,14.7050400078125,17.63511L15.1512620078125,18.002670000000002C15.2810390078125,18.10978,15.3454840078125,18.27467,15.3423730078125,18.443550000000002C15.3416780078125,18.48133,15.3416780078125,18.51911,15.3423730078125,18.55689C15.3454840078125,18.724890000000002,15.2810390078125,18.89067,15.1512620078125,18.997329999999998L14.7050400078125,19.36489C14.5162369378125,19.520139999999998,14.4673618078125,19.78914,14.5894840078125,20.00089L15.1659280078125,20.99955C15.2882810078125,21.21107,15.5455930078125,21.30317,15.7743730078125,21.21733L16.3152630078125,21.01467C16.4734830078125,20.95555,16.6490430078125,20.98267,16.7934830078125,21.06978C16.8257030078125,21.08922,16.8583030078125,21.10804,16.8912630078125,21.12622C17.0388130078125,21.208,17.1499330078125,21.34667,17.1774830078125,21.51289L17.2721530078125,22.08222C17.3125930078125,22.32311,17.5210430078125,22.5,17.7654830078125,22.5L18.918373007812498,22.5C19.1628130078125,22.5,19.3717030078125,22.32355,19.4117030078125,22.08222L19.5063730078125,21.51289C19.5343730078125,21.34667,19.6454830078125,21.208,19.7925930078125,21.12667C19.825553007812502,21.10835,19.8581530078125,21.08938,19.8903730078125,21.06978C20.0352630078125,20.98267,20.2108130078125,20.95556,20.3685930078125,21.01467L20.9094830078125,21.21733C21.1383730078125,21.30309,21.3957130078125,21.21079,21.517933007812502,20.99911L22.0948130078125,20.00044C22.2165930078125,19.78933,22.1677030078125,19.52044,21.9792630078125,19.36489L21.533043007812502,18.997329999999998C21.4028130078125,18.89022,21.3383730078125,18.724890000000002,21.3419330078125,18.55689C21.342553007812498,18.51911,21.342553007812498,18.48133,21.3419330078125,18.44356C21.3383730078125,18.27511,21.4028130078125,18.10978,21.533043007812502,18.002670000000002L21.978813007812498,17.63511C22.1676230078125,17.47986,22.2164930078125,17.21086,22.0943730078125,16.99911L21.5183730078125,16.00044C21.3959830078125,15.78871,21.1383930078125,15.69658,20.9094830078125,15.78267L20.3685930078125,15.98533C20.2108130078125,16.04444,20.0352630078125,16.01733,19.8908130078125,15.93022C19.8583730078125,15.91067,19.825933007812502,15.89156,19.7930430078125,15.87378C19.6454830078125,15.792,19.5343730078125,15.65333,19.5063730078125,15.487111L19.4117030078125,14.917778C19.3717030078125,14.676889,19.1628130078125,14.5,18.918373007812498,14.5L17.7659330078125,14.5Z" fill-rule="evenodd" fill="#FFFFFF" fill-opacity="1"/></g><g><path d="M19.675258552474975,18.500182712631226Q19.675258552474975,18.565692712631225,19.668838552474977,18.630872712631227Q19.662418552474975,18.696062712631225,19.649638552474975,18.760302712631226Q19.636858552474976,18.824552712631224,19.617838552474975,18.887232712631224Q19.598828552474977,18.949912712631225,19.573758552474978,19.010432712631225Q19.548698552474974,19.070942712631226,19.517818552474974,19.128712712631227Q19.486938552474975,19.186482712631225,19.450548552474977,19.240942712631224Q19.414158552474976,19.295412712631226,19.372598552474976,19.346042712631224Q19.331048552474975,19.396682712631225,19.284728552474974,19.442992712631224Q19.238418552474975,19.489312712631225,19.187778552474974,19.530862712631226Q19.137148552474976,19.572422712631226,19.082678552474974,19.608812712631227Q19.028218552474975,19.645202712631225,18.970448552474977,19.676082712631224Q18.912678552474976,19.706962712631224,18.852168552474975,19.732022712631228Q18.791648552474975,19.757092712631227,18.728968552474974,19.776102712631225Q18.666288552474974,19.795122712631226,18.602038552474976,19.807902712631225Q18.537798552474975,19.820682712631225,18.472608552474977,19.827102712631227Q18.407428552474975,19.833522712631225,18.341918552474976,19.833522712631225Q18.276418552474976,19.833522712631225,18.211228552474974,19.827102712631227Q18.146048552474976,19.820682712631225,18.081798552474975,19.807902712631225Q18.017558552474977,19.795122712631226,17.954875552474977,19.776102712631225Q17.892193552474975,19.757092712631227,17.831677552474975,19.732022712631228Q17.771160552474974,19.706962712631224,17.713392552474975,19.676082712631224Q17.655624552474976,19.645202712631225,17.601161552474977,19.608812712631227Q17.546698552474975,19.572422712631226,17.496064552474976,19.530862712631226Q17.445430552474974,19.489312712631225,17.399112552474975,19.442992712631224Q17.352795552474976,19.396682712631225,17.311241552474975,19.346042712631224Q17.269686552474976,19.295412712631226,17.233295552474974,19.240942712631224Q17.196904552474976,19.186482712631225,17.166026552474975,19.128712712631227Q17.135149552474974,19.070942712631226,17.110082552474974,19.010432712631225Q17.085015752474977,18.949912712631225,17.066001452474975,18.887232712631224Q17.046987052474975,18.824552712631224,17.034208152474974,18.760302712631226Q17.021429252474977,18.696062712631225,17.015008912474975,18.630872712631227Q17.008588552474976,18.565692712631225,17.008588552474976,18.500182712631226Q17.008588552474976,18.434682712631226,17.015008912474975,18.369492712631224Q17.021429252474977,18.304312712631226,17.034208152474974,18.240062712631225Q17.046987052474975,18.175822712631227,17.066001452474975,18.113139712631227Q17.085015752474977,18.050457712631225,17.110082552474974,17.989941712631225Q17.135149552474974,17.929424712631224,17.166026552474975,17.871656712631225Q17.196904552474976,17.813888712631226,17.233295552474974,17.759425712631227Q17.269686552474976,17.704962712631225,17.311241552474975,17.654328712631226Q17.352795552474976,17.603694712631224,17.399112552474975,17.557376712631225Q17.445430552474974,17.511059712631226,17.496064552474976,17.469505712631225Q17.546698552474975,17.427950712631226,17.601161552474977,17.391559712631224Q17.655624552474976,17.355168712631226,17.713392552474975,17.324290712631225Q17.771160552474974,17.293413712631224,17.831677552474975,17.268346712631224Q17.892193552474975,17.243279912631227,17.954875552474977,17.224265612631225Q18.017558552474977,17.205251212631225,18.081798552474975,17.192472312631224Q18.146048552474976,17.179693412631227,18.211228552474974,17.173273072631225Q18.276418552474976,17.166852712631226,18.341918552474976,17.166852712631226Q18.407428552474975,17.166852712631226,18.472608552474977,17.173273072631225Q18.537798552474975,17.179693412631227,18.602038552474976,17.192472312631224Q18.666288552474974,17.205251212631225,18.728968552474974,17.224265612631225Q18.791648552474975,17.243279912631227,18.852168552474975,17.268346712631224Q18.912678552474976,17.293413712631224,18.970448552474977,17.324290712631225Q19.028218552474975,17.355168712631226,19.082678552474974,17.391559712631224Q19.137148552474976,17.427950712631226,19.187778552474974,17.469505712631225Q19.238418552474975,17.511059712631226,19.284728552474974,17.557376712631225Q19.331048552474975,17.603694712631224,19.372598552474976,17.654328712631226Q19.414158552474976,17.704962712631225,19.450548552474977,17.759425712631227Q19.486938552474975,17.813888712631226,19.517818552474974,17.871656712631225Q19.548698552474974,17.929424712631224,19.573758552474978,17.989941712631225Q19.598828552474977,18.050457712631225,19.617838552474975,18.113139712631227Q19.636858552474976,18.175822712631227,19.649638552474975,18.240062712631225Q19.662418552474975,18.304312712631226,19.668838552474977,18.369492712631224Q19.675258552474975,18.434682712631226,19.675258552474975,18.500182712631226Z" fill="#FFFFFF" fill-opacity="1"/></g></g></g></svg>