<?xml version="1.0" encoding="UTF-8"?>
<svg id="_图层_1" data-name="图层 1" xmlns="http://www.w3.org/2000/svg" viewBox="0 0 18 18">
  <defs>
    <style>
      .aom-menu-xjbjjl1 {
        fill: #fff;
      }

      .aom-menu-xjbjjl2 {
        fill: #854bfa;
      }
    </style>
  </defs>
  <rect class="aom-menu-xjbjjl2" width="18" height="18" rx="4" ry="4"/>
  <g>
    <path class="aom-menu-xjbjjl1" d="M13.2,13.88H4.8c-.52,0-.95-.42-.95-.95v-4.12c0-.25,.26-.41,.48-.3l4.39,2.04c.18,.08,.39,.08,.57,0l4.39-2.04c.22-.1,.48,.06,.48,.3v4.12c0,.52-.42,.95-.95,.95Z"/>
    <path class="aom-menu-xjbjjl1" d="M12.23,4.12H5.77c-.42,0-.76,.34-.76,.76v3.09l3.71,1.72c.18,.08,.39,.08,.57,0l3.71-1.72v-3.09c0-.42-.34-.76-.76-.76Zm-1.8,3.63h-2.87c-.21,0-.38-.17-.38-.38s.17-.38,.38-.38h2.87c.21,0,.38,.17,.38,.38s-.17,.38-.38,.38Zm0-1.53h-2.88c-.21,0-.38-.17-.38-.38s.17-.38,.38-.38h2.88c.21,0,.38,.17,.38,.38s-.17,.38-.38,.38Z"/>
  </g>
</svg>