<svg id="图层_1" data-name="图层 1" xmlns="http://www.w3.org/2000/svg" viewBox="0 0 18 18">
  <defs>
    <style>
      .nhcikasllo991 {
        fill: #fff;
      }

      .nhcikasllo992 {
        fill: #f0953a;
      }
    </style>
  </defs>
  <polygon class="nhcikasllo991" points="9 14.43 9 14.43 9 14.43 9 14.43" />
  <polygon class="nhcikasllo991" points="4.26 6.22 4.26 6.22 4.26 6.22 4.26 6.22" />
  <g id="IconAomMenuGJKColor">
    <rect class="nhcikasllo992" width="18" height="18" rx="4" />
  </g>
  <path class="nhcikasllo991" d="M4,5v.9H5.9V4H5A1,1,0,0,0,4,5Z" />
  <rect class="nhcikasllo991" x="6.7" y="4" width="1.9" height="1.9" />
  <rect class="nhcikasllo991" x="9.4" y="4" width="1.9" height="1.9" />
  <rect class="nhcikasllo991" x="4" y="9.4" width="1.9" height="1.9" />
  <rect class="nhcikasllo991" x="4" y="6.7" width="1.9" height="1.9" />
  <path class="nhcikasllo991" d="M13,4h-.9V5.9H14V5A1,1,0,0,0,13,4Z" />
  <path class="nhcikasllo991" d="M4,13a1,1,0,0,0,1,1h.9V12.1H4Z" />
  <path class="nhcikasllo991"
    d="M11,12.09h0a1.08,1.08,0,0,1-.32-.39,2.21,2.21,0,0,0-.39,0,1.18,1.18,0,0,0-.31.08.87.87,0,0,0-.27.14,1.15,1.15,0,0,0-.21.23,2.21,2.21,0,0,0-.18.34.15.15,0,0,1-.15.11h0A.24.24,0,0,1,9,12.58a.78.78,0,0,1-.18-.11l-.19-.13-.13-.09a2.44,2.44,0,0,0,.09.66,1.68,1.68,0,0,0,.26.56,1.19,1.19,0,0,0,.47.39A1.52,1.52,0,0,0,10,14H10a1.46,1.46,0,0,0,1-.41,1.37,1.37,0,0,0,.39-1.05v-.22A1.11,1.11,0,0,1,11,12.09Z" />
  <path class="nhcikasllo991"
    d="M12.42,11.8a11.07,11.07,0,0,0,1.44-2.33A1.07,1.07,0,0,0,14,9a.48.48,0,0,0-.16-.36.57.57,0,0,0-.37-.14h0a.54.54,0,0,0-.4.17l-2,1.79a.84.84,0,0,0-.29.65,1,1,0,0,0,.28.68.88.88,0,0,0,.66.29h0A.93.93,0,0,0,12.42,11.8Z" />
  <path class="nhcikasllo991"
    d="M13,12.37a1.7,1.7,0,0,1-.74.44,2.25,2.25,0,0,1-.5,1.19H13a1,1,0,0,0,1-1V10.89A6.3,6.3,0,0,1,13,12.37Z" />
  <path class="nhcikasllo991"
    d="M6.7,14H8.26l-.06-.07a2.56,2.56,0,0,1-.38-.8,3.35,3.35,0,0,1-.12-.89.8.8,0,0,1,.44-.71.76.76,0,0,1,.36-.08.8.8,0,0,1,.44.13,1.28,1.28,0,0,1,.26-.26,1.69,1.69,0,0,1,.49-.27L10,11a1.59,1.59,0,0,1,.54-1.09l2-1.79a1.37,1.37,0,0,1,.94-.38h0a1.4,1.4,0,0,1,.53.11V6.7H6.7Z" />
</svg>