<svg id="图层_1" data-name="图层 1" xmlns="http://www.w3.org/2000/svg" viewBox="0 0 18 18">
  <defs>
    <style>
      .nbiucsbcsis1 {
        fill: #30b0f0;
      }

      .nbiucsbcsis2 {
        fill: #fff;
      }
    </style>
  </defs>
  <g id="IconAomMenuCSGLColor">
    <rect class="nbiucsbcsis1" width="18" height="18" rx="4" />
  </g>
  <path class="nbiucsbcsis2" d="M4,5v.9H5.9V4H5A1,1,0,0,0,4,5Z" />
  <rect class="nbiucsbcsis2" x="6.7" y="4" width="1.9" height="1.9" />
  <rect class="nbiucsbcsis2" x="9.4" y="4" width="1.9" height="1.9" />
  <rect class="nbiucsbcsis2" x="4" y="9.4" width="1.9" height="1.9" />
  <rect class="nbiucsbcsis2" x="4" y="6.7" width="1.9" height="1.9" />
  <path class="nbiucsbcsis2" d="M13,4h-.9V5.9H14V5A1,1,0,0,0,13,4Z" />
  <path class="nbiucsbcsis2" d="M4,13a1,1,0,0,0,1,1h.9V12.1H4Z" />
  <path class="nbiucsbcsis2"
    d="M13.41,12.56a2.1,2.1,0,0,0-1.84-3.1,2.11,2.11,0,0,0-1.49,3.59,2.07,2.07,0,0,0,1.47.61,2.1,2.1,0,0,0,1-.25l.41.41a.66.66,0,0,0,.17.12.62.62,0,0,0,.26.06.58.58,0,0,0,.42-.18.59.59,0,0,0,0-.85Z" />
  <path class="nbiucsbcsis2" d="M6.7,14H10a3.48,3.48,0,0,1-.48-.38,2.91,2.91,0,0,1,2.06-5A2.85,2.85,0,0,1,14,10V6.7H6.7Z" />
</svg>