<?xml version="1.0" encoding="UTF-8"?>
<svg id="_图层_1" data-name="图层 1" xmlns="http://www.w3.org/2000/svg" viewBox="0 0 18 18">
  <defs>
    <style>
      .aom-menu-xjrw1 {
        fill: #fff;
      }

      .aom-menu-xjrw2 {
        fill: #3b82f6;
      }
    </style>
  </defs>
  <rect class="aom-menu-xjrw2" width="18" height="18" rx="4" ry="4"/>
  <path class="aom-menu-xjrw1" d="M13,4H5c-.55,0-1,.45-1,1V13c0,.55,.45,1,1,1H13c.55,0,1-.45,1-1V5c0-.55-.45-1-1-1Zm-6,7.59c0,.28-.22,.5-.5,.5s-.5-.22-.5-.5v-2.27c0-.28,.22-.5,.5-.5s.5,.22,.5,.5v2.27Zm2.5,0c0,.28-.22,.5-.5,.5s-.5-.22-.5-.5V6.59c0-.28,.22-.5,.5-.5s.5,.22,.5,.5v5Zm2.5,0c0,.28-.22,.5-.5,.5s-.5-.22-.5-.5v-2.73c0-.28,.22-.5,.5-.5s.5,.22,.5,.5v2.73Z"/>
</svg>