<svg id="图层_1" data-name="图层 1" xmlns="http://www.w3.org/2000/svg" viewBox="0 0 18 18">
  <defs>
    <style>
      .wwwangfj34-1 {
        fill: #3b82f6;
      }

      .wwwangfj34-2 {
        fill: #fff;
      }
    </style>
  </defs>
  <g id="IconAomMenuGJKGLColor">
    <rect class="wwwangfj34-1" width="18" height="18" rx="4" />
  </g>
  <path class="wwwangfj34-2"
    d="M4,10.38v2.5a1,1,0,0,0,1,1h8a1,1,0,0,0,1-1v-2.5a1,1,0,0,0-1-1H5A1,1,0,0,0,4,10.38ZM5.14,13v-.53a.4.4,0,0,1,.8,0V13a.4.4,0,0,1-.8,0Zm1.73,0v-.53a.4.4,0,0,1,.8,0V13a.4.4,0,1,1-.8,0Zm6-.53V13a.4.4,0,0,1-.4.4.39.39,0,0,1-.4-.4v-.53a.39.39,0,0,1,.4-.4A.4.4,0,0,1,12.86,12.45Zm-1.73,0V13a.4.4,0,0,1-.8,0v-.53a.4.4,0,0,1,.8,0ZM9.4,11.91V13a.4.4,0,0,1-.8,0V11.91a.4.4,0,0,1,.8,0Z" />
  <path class="wwwangfj34-2"
    d="M13,4.12H5a1,1,0,0,0-1,1v2.5a1,1,0,0,0,1,1h8a1,1,0,0,0,1-1V5.12A1,1,0,0,0,13,4.12Zm-.6,2.75H10.54a.39.39,0,0,1-.27-.11L9.49,6,8.12,7.55a.39.39,0,0,1-.28.13h0a.43.43,0,0,1-.27-.1l-.78-.71H5.6a.4.4,0,0,1,0-.8H6.93a.38.38,0,0,1,.27.1l.59.54L9.17,5.19a.37.37,0,0,1,.28-.13.4.4,0,0,1,.29.1l1,.91h1.7a.4.4,0,0,1,0,.8Z" />
</svg>