<svg id="图层_1" data-name="图层 1" xmlns="http://www.w3.org/2000/svg" viewBox="0 0 18 18">
  <defs>
    <style>
      .aobjdaacj121 {
        fill: #30b0f0;
      }

      .aobjdaacj122 {
        fill: #fff;
      }
    </style>
  </defs>
  <g id="IconAomMenuGJKGLColor">
    <rect class="aobjdaacj121" width="18" height="18" rx="4" />
  </g>
  <path class="aobjdaacj122"
    d="M7.67,7.48h0a.47.47,0,0,0-.51.41v.86a.47.47,0,0,0,.51.4.47.47,0,0,0,.51-.4V7.89A.47.47,0,0,0,7.67,7.48Z" />
  <path class="aobjdaacj122" d="M10.33,7.48a.47.47,0,0,0-.51.41v.86a.53.53,0,0,0,1,0V7.89a.47.47,0,0,0-.51-.41Z" />
  <path class="aobjdaacj122"
    d="M14.12,12.16a.32.32,0,0,1,0-.09h0v0a.28.28,0,0,1,0-.09.53.53,0,0,1,0-.12.63.63,0,0,1,0-.09l.1-.17a.57.57,0,0,0,0-.59L14,10.64a.61.61,0,0,0-.53-.31h-.3l-.08,0L13,10.2l0-.07L12.89,10a.6.6,0,0,0-.53-.31H12a.61.61,0,0,0-.53.31l-.09.17-.05.07-.1.08-.11,0h-.27a.61.61,0,0,0-.53.31l-.12.21-.06.11a.59.59,0,0,0,0,.6l.1.17,0,.08v0h0a.28.28,0,0,1,0,.09.42.42,0,0,1,0,.14l0,.08h0l-.09.15a.59.59,0,0,0,0,.6l.18.33a.61.61,0,0,0,.53.31h.27a.4.4,0,0,1,.18.1l0,0s0,0,.05.07l.09.16a.5.5,0,0,0,.08.12.65.65,0,0,0,.45.2h.36a.59.59,0,0,0,.53-.32l.09-.16a.46.46,0,0,1,.07-.1l.08-.05.1,0h.28a.61.61,0,0,0,.53-.31l.18-.33a.59.59,0,0,0,0-.6Zm-1.94.69a.88.88,0,0,1-.33-.06,1.28,1.28,0,0,1-.25-.15A.91.91,0,0,1,12.18,11a.71.71,0,0,1,.21,0h0l.19.07a.9.9,0,0,1,.49.8A.91.91,0,0,1,12.18,12.85Z" />
  <path class="aobjdaacj122"
    d="M9.58,13.66l-.18-.32a1.48,1.48,0,0,1,0-1.4,1.47,1.47,0,0,1-.12-1H8.09a2.55,2.55,0,0,1,.06-5.1h.14l.41.32a.44.44,0,0,0,.6,0l.41-.32h.2A2.56,2.56,0,0,1,12.4,8.34a2.31,2.31,0,0,1-.05.46h0a1.45,1.45,0,0,1,1.23.68,1.49,1.49,0,0,1,.51.14,3.27,3.27,0,0,0,.2-1.22c0-1-.3-1.72-.66-1.72a.27.27,0,0,0-.17.06,3.84,3.84,0,0,0-2.55-2.13s0-.08,0-.12a.73.73,0,0,0-.73-.73H7.68a.73.73,0,0,0-.6.83A3.89,3.89,0,0,0,4.53,6.73a.34.34,0,0,0-.17-.05c-.36,0-.66.77-.66,1.72s.3,1.72.66,1.72A.29.29,0,0,0,4.57,10a3.84,3.84,0,0,0,3.27,2.15c-1.3.21-2.24.77-2.24,1.43,0,.51,2.55.71,4.53.59A1.36,1.36,0,0,1,9.58,13.66Z" />
</svg>