<?xml version="1.0" encoding="UTF-8"?>
<svg id="_图层_1" data-name="图层 1" xmlns="http://www.w3.org/2000/svg" viewBox="0 0 24 24">
  <defs>
    <style>
      .aom-menu-ZJBJ-1 {
        fill: #ddbef6;
      }

      .aom-menu-ZJBJ-2 {
        fill: #8d4eda;
      }
    </style>
  </defs>
  <path class="aom-menu-ZJBJ-2" d="M20.5,2.5H3.5c-1.1,0-2,.9-2,2v4H22.5v-4c0-1.1-.9-2-2-2ZM5.41,6.29c-.43,0-.79-.35-.79-.79s.35-.79,.79-.79,.79,.35,.79,.79-.35,.79-.79,.79Zm3.15,0c-.43,0-.79-.35-.79-.79s.35-.79,.79-.79,.79,.35,.79,.79-.35,.79-.79,.79Z"/>
  <g>
    <path class="aom-menu-ZJBJ-2" d="M14.58,20.91l.3-1.02c.14-.49,.4-.91,.75-1.27l4.33-4.33,1.01-1.01,.14-.14c.39-.39,.85-.58,1.39-.58v-2.6H1.5v9.53c0,1.1,.9,2,2,2H14.54c-.03-.19-.02-.38,.04-.59Z"/>
    <path class="aom-menu-ZJBJ-2" d="M18.46,21.45s-.04,.03-.06,.05h2.1c1.1,0,2-.9,2-2v-2.09l-4.04,4.04Z"/>
  </g>
  <path class="aom-menu-ZJBJ-1" d="M23.23,13.86c-.39-.39-1.02-.39-1.41,0l-.44,.44,1.41,1.41,.44-.44c.39-.39,.39-1.02,0-1.41m-.84,2.26l-1.41-1.41-4.63,4.63c-.24,.24-.41,.53-.5,.84l-.31,1.02c-.04,.15,.04,.31,.19,.35,.05,.02,.11,.02,.16,0l1.02-.31c.32-.09,.61-.27,.84-.5l4.63-4.63Z"/>
</svg>