<svg id="图层_1" data-name="图层 1" xmlns="http://www.w3.org/2000/svg" viewBox="0 0 18 18">
  <defs>
    <style>
      .ssnkuc63c-1 {
        fill: #30b0f0;
      }

      .ssnkuc63c-2 {
        fill: #fff;
      }
    </style>
  </defs>
  <g id="IconAomMenuMJRWColor">
    <rect class="ssnkuc63c-1" width="18" height="18" rx="4" />
  </g>
  <path class="ssnkuc63c-2"
    d="M13,5.12H11.51V4.61a.5.5,0,0,0-.5-.5.5.5,0,0,0-.5.5v.51h-3V4.61a.5.5,0,0,0-.5-.5.5.5,0,0,0-.5.5v.51H5a1,1,0,0,0-1,1v.57H14V6.12A1,1,0,0,0,13,5.12Z" />
  <path class="ssnkuc63c-2"
    d="M8.7,11.64A3,3,0,0,1,14,9.59V7.48H4v5.41a1,1,0,0,0,1,1H9.7A3.05,3.05,0,0,1,8.7,11.64ZM6.55,9.75H5.72a.39.39,0,0,1-.4-.4.4.4,0,0,1,.4-.4h.83a.4.4,0,0,1,.4.4A.39.39,0,0,1,6.55,9.75Z" />
  <path class="ssnkuc63c-2"
    d="M11.75,9.39A2.25,2.25,0,1,0,14,11.64,2.25,2.25,0,0,0,11.75,9.39Zm1.36,2.82a.39.39,0,0,1-.37.25l-.15,0-1-.42a.41.41,0,0,1-.24-.37v-1a.4.4,0,0,1,.8,0v.69l.75.32A.39.39,0,0,1,13.11,12.21Z" />
</svg>