<svg id="图层_1" data-name="图层 1" xmlns="http://www.w3.org/2000/svg" viewBox="0 0 18 18">
  <defs>
    <style>
      .hbcuywhg542-1 {
        fill: #fff;
      }

      .hbcuywhg542-2 {
        fill: #3b82f6;
      }
    </style>
  </defs>
  <polygon class="hbcuywhg542-1" points="9 14.43 9 14.43 9 14.43 9 14.43" />
  <polygon class="hbcuywhg542-1" points="9 9 9 9 9 9 9 9" />
  <g id="IconAomMenuGJKColor">
    <rect class="hbcuywhg542-2" width="18" height="18" rx="4" />
  </g>
  <path class="hbcuywhg542-1"
    d="M4.75,6.26h.84a1.49,1.49,0,0,0,2.59,0h0A1.39,1.39,0,0,0,8.3,6s0-.07,0-.11a.43.43,0,0,1,0-.11,2,2,0,0,0,0-.25,2,2,0,0,0,0-.25.43.43,0,0,1,0-.11s0-.07,0-.11a1.39,1.39,0,0,0-.12-.28h0a1.49,1.49,0,0,0-2.59,0H4.75a.75.75,0,0,0,0,1.5Z" />
  <path class="hbcuywhg542-1" d="M13.25,6.26a.75.75,0,0,0,0-1.5H9.05a2.23,2.23,0,0,1,0,1.5Z" />
  <path class="hbcuywhg542-1"
    d="M13.25,8.25h-.84a1.49,1.49,0,0,0-2.59,0h0a1.39,1.39,0,0,0-.12.28s0,.07,0,.11a.43.43,0,0,1,0,.11,1.57,1.57,0,0,0,0,.5.43.43,0,0,1,0,.11s0,.07,0,.11a1.39,1.39,0,0,0,.12.28h0a1.49,1.49,0,0,0,2.59,0h.84a.75.75,0,0,0,0-1.5Z" />
  <path class="hbcuywhg542-1" d="M4.75,8.25a.75.75,0,0,0,0,1.5H9a2.23,2.23,0,0,1,0-1.5Z" />
  <path class="hbcuywhg542-1"
    d="M8.34,12.13s0-.07,0-.11a1.39,1.39,0,0,0-.12-.28h0a1.49,1.49,0,0,0-2.59,0H4.75a.75.75,0,0,0,0,1.5h.84a1.49,1.49,0,0,0,2.59,0h0A1.39,1.39,0,0,0,8.3,13s0-.07,0-.11a.43.43,0,0,1,0-.11,1.57,1.57,0,0,0,0-.5A.43.43,0,0,1,8.34,12.13Z" />
  <path class="hbcuywhg542-1" d="M13.25,11.74H9.05a2.23,2.23,0,0,1,0,1.5h4.2a.75.75,0,0,0,0-1.5Z" />
</svg>