<svg id="图层_1" data-name="图层 1" xmlns="http://www.w3.org/2000/svg" viewBox="0 0 18 18">
  <defs>
    <style>
      .nvcjdca33-1 {
        fill: #34c765;
      }

      .nvcjdca33-2 {
        fill: #fff;
      }
    </style>
  </defs>
  <g id="IconAomMenuGJKGLColor">
    <rect class="nvcjdca33-1" width="18" height="18" rx="4" />
  </g>
  <path class="nvcjdca33-2"
    d="M14,6.69V6.12a1,1,0,0,0-1-1H11.51V4.61a.5.5,0,0,0-.5-.5.5.5,0,0,0-.5.5v.51h-3V4.61a.5.5,0,0,0-.5-.5.5.5,0,0,0-.5.5v.51H5a1,1,0,0,0-1,1v.57Z" />
  <path class="nvcjdca33-2"
    d="M4,7.48v5.41a1,1,0,0,0,1,1h8a1,1,0,0,0,1-1V7.48Zm2.23,4.91a.4.4,0,0,1-.4.4h-.2a.4.4,0,0,1-.4-.4v-.2a.4.4,0,0,1,.4-.4h.2a.4.4,0,0,1,.4.4Zm0-1.57a.4.4,0,0,1-.4.4h-.2a.4.4,0,0,1-.4-.4v-.2a.4.4,0,0,1,.4-.4h.2a.4.4,0,0,1,.4.4Zm1.63,1.57a.39.39,0,0,1-.4.4h-.2a.4.4,0,0,1-.4-.4v-.2a.4.4,0,0,1,.4-.4h.2a.39.39,0,0,1,.4.4Zm0-1.57a.39.39,0,0,1-.4.4h-.2a.4.4,0,0,1-.4-.4v-.2a.4.4,0,0,1,.4-.4h.2a.39.39,0,0,1,.4.4Zm0-1.57a.39.39,0,0,1-.4.4h-.2a.4.4,0,0,1-.4-.4v-.2a.4.4,0,0,1,.4-.4h.2a.39.39,0,0,1,.4.4ZM9.5,12.39a.4.4,0,0,1-.4.4H8.9a.4.4,0,0,1-.4-.4v-.2a.4.4,0,0,1,.4-.4h.2a.4.4,0,0,1,.4.4Zm0-1.57a.4.4,0,0,1-.4.4H8.9a.4.4,0,0,1-.4-.4v-.2a.4.4,0,0,1,.4-.4h.2a.4.4,0,0,1,.4.4Zm0-1.57a.4.4,0,0,1-.4.4H8.9a.4.4,0,0,1-.4-.4v-.2a.4.4,0,0,1,.4-.4h.2a.4.4,0,0,1,.4.4Zm1.64,1.57a.4.4,0,0,1-.4.4h-.2a.39.39,0,0,1-.4-.4v-.2a.39.39,0,0,1,.4-.4h.2a.4.4,0,0,1,.4.4Zm0-1.57a.4.4,0,0,1-.4.4h-.2a.39.39,0,0,1-.4-.4v-.2a.39.39,0,0,1,.4-.4h.2a.4.4,0,0,1,.4.4Zm1.63,1.57a.4.4,0,0,1-.4.4h-.2a.4.4,0,0,1-.4-.4v-.2a.4.4,0,0,1,.4-.4h.2a.4.4,0,0,1,.4.4Zm0-1.57a.4.4,0,0,1-.4.4h-.2a.4.4,0,0,1-.4-.4v-.2a.4.4,0,0,1,.4-.4h.2a.4.4,0,0,1,.4.4Z" />
</svg>