<svg id="图层_1" data-name="图层 1" xmlns="http://www.w3.org/2000/svg" viewBox="0 0 18 18">
  <defs>
    <style>
      .ch5huif9-1 {
        fill: #3b82f6;
      }

      .ch5huif9-2 {
        fill: #fff;
      }
    </style>
  </defs>
  <g id="IconAomMenuGJKColor">
    <rect class="ch5huif9-1" width="18" height="18" rx="4" />
  </g>
  <path class="ch5huif9-2" d="M10.73,7.07h2.12L10.18,4.4V6.52A.55.55,0,0,0,10.73,7.07Z" />
  <path class="ch5huif9-2"
    d="M10.73,7.87A1.36,1.36,0,0,1,9.38,6.52V4H5.75a1,1,0,0,0-1,1v8a1,1,0,0,0,1,1h6.5a1,1,0,0,0,1-1V7.87ZM8.05,12.51H6.32a.4.4,0,1,1,0-.8H8.05a.4.4,0,0,1,0,.8Zm0-1.53H6.32a.4.4,0,0,1,0-.8H8.05a.4.4,0,0,1,0,.8Zm0-1.53H6.32a.4.4,0,1,1,0-.8H8.05a.4.4,0,0,1,0,.8Z" />
</svg>