<svg xmlns="http://www.w3.org/2000/svg" viewBox="0 0 18 18">
  <g id="图层_2" data-name="图层 2">
    <g id="图层_1-2" data-name="图层 1">
      <g id="IconAomMenuJDGLColor">
        <rect fill="#3b82f6" width="18" height="18" rx="4" />
        <path fill="#fff"
          d="M5.71,12.58a1.49,1.49,0,0,0,1.51-1.47,1.06,1.06,0,0,0,0-.31l.93-.52a1.76,1.76,0,0,0,1.24.54,1.58,1.58,0,0,0,.38,0l.43.86a1.39,1.39,0,1,0,1-.44l-.19,0-.44-.86a1.77,1.77,0,0,0,.6-1.29,2.12,2.12,0,0,0-.09-.57L12,7.94a1.2,1.2,0,0,0,.62.2A1.17,1.17,0,1,0,11.43,7a.71.71,0,0,0,0,.21l-.87.56a1.82,1.82,0,0,0-1.15-.46,2,2,0,0,0-.49.07L8.6,6.74A1.63,1.63,0,0,0,7.43,4a1.63,1.63,0,0,0,0,3.26,1.77,1.77,0,0,0,.41,0l.34.59A1.81,1.81,0,0,0,7.62,9a1.76,1.76,0,0,0,.06.46L6.74,10a1.49,1.49,0,1,0-1,2.59Z" />
      </g>
    </g>
  </g>
</svg>