<svg xmlns="http://www.w3.org/2000/svg" xmlns:xlink="http://www.w3.org/1999/xlink" fill="none" version="1.1" width="24" height="24" viewBox="0 0 24 24"><defs><clipPath id="master_svg0_644_65952"><rect x="0" y="0" width="24" height="24" rx="0"/></clipPath></defs><g clip-path="url(#master_svg0_644_65952)"><g><path d="M14.355804443359375,13.919189453125Q14.355804443359375,14.078759453125,14.348004443359375,14.238129453125Q14.340104443359374,14.397499453125,14.324504443359375,14.556299453125Q14.308904443359374,14.715099453125,14.285404443359376,14.872939453125Q14.262004443359375,15.030779453125,14.230904443359375,15.187279453125Q14.199804443359374,15.343779453125,14.161004443359374,15.498559453125Q14.122204443359376,15.653339453125,14.075904443359375,15.806039453125Q14.029604443359375,15.958729453125,13.975804443359374,16.108969453125Q13.922104443359375,16.259209453125003,13.861004443359375,16.406629453125Q13.800004443359375,16.554049453125,13.731704443359375,16.698299453125Q13.663504443359376,16.842539453125,13.588304443359375,16.983269453125Q13.513104443359374,17.123989453125,13.431004443359376,17.260859453125Q13.349004443359375,17.397719453125,13.260404443359375,17.530389453125Q13.171704443359374,17.663089453125,13.076604443359376,17.791189453125Q12.981604443359375,17.919389453125,12.880404443359375,18.042789453125Q12.779104443359374,18.166089453125,12.672004443359375,18.284289453124998Q12.564804443359375,18.402589453125,12.452004443359375,18.515389453125Q12.339204443359375,18.628189453125,12.220904443359375,18.735389453125002Q12.102704443359375,18.842489453124998,11.979404443359375,18.943789453125Q11.856004443359375,19.044989453124998,11.727804443359375,19.139989453125Q11.599704443359375,19.235089453125,11.467004443359375,19.323789453125002Q11.334334443359374,19.412389453125,11.197474443359376,19.494389453125002Q11.060604443359376,19.576489453125,10.919884443359376,19.651689453125Q10.779154443359374,19.726889453125,10.634914443359374,19.795089453125Q10.490664443359375,19.863389453125002,10.343244443359374,19.924389453125002Q10.195824443359376,19.985489453125,10.045584443359376,20.039189453124997Q9.895344443359376,20.092989453125,9.742654443359376,20.139289453125002Q9.589954443359375,20.185589453125,9.435174443359376,20.224389453125Q9.280394443359375,20.263189453125,9.123894443359376,20.294289453125Q8.967394443359375,20.325389453125,8.809554443359374,20.348789453125Q8.651714443359374,20.372289453125,8.492914443359375,20.387889453125Q8.334114443359375,20.403489453124998,8.174744443359375,20.411389453125Q8.015374443359375,20.419189453125,7.855804443359375,20.419189453125Q7.696234443359375,20.419189453125,7.536864443359375,20.411389453125Q7.377494443359375,20.403489453124998,7.218694443359375,20.387889453125Q7.059894443359375,20.372289453125,6.902054443359375,20.348789453125Q6.744214443359375,20.325389453125,6.587714443359375,20.294289453125Q6.431214443359375,20.263189453125,6.276434443359375,20.224389453125Q6.121644443359375,20.185589453125,5.968954443359375,20.139289453125002Q5.816254443359375,20.092989453125,5.666024443359375,20.039189453124997Q5.515784443359375,19.985489453125,5.368364443359375,19.924389453125002Q5.220944443359375,19.863389453125002,5.076694443359375,19.795089453125Q4.932454443359375,19.726889453125,4.791724443359374,19.651689453125Q4.6510044433593745,19.576489453125,4.514134443359374,19.494389453125002Q4.377274443359375,19.412389453125,4.244594443359375,19.323689453125Q4.111924443359375,19.235089453125,3.983754443359375,19.139989453125Q3.855594443359375,19.044989453124998,3.732244443359375,18.943789453125Q3.608904443359375,18.842489453124998,3.490674443359375,18.735389453125002Q3.372444443359375,18.628189453125,3.259614443359375,18.515389453125Q3.1467844433593752,18.402589453125,3.039624443359375,18.284289453124998Q2.932464443359375,18.166089453125,2.8312344433593752,18.042789453125Q2.730004443359375,17.919389453125,2.634954443359375,17.791189453125Q2.539904443359375,17.663089453125,2.451254443359375,17.530389453125Q2.362604443359375,17.397719453125,2.280568443359375,17.260859453125Q2.198535443359375,17.123989453125,2.123316443359375,16.983269453125Q2.0480974433593753,16.842539453125,1.9798744433593751,16.698299453125Q1.9116504433593748,16.554049453125,1.850587443359375,16.406629453125Q1.789524443359375,16.259209453125003,1.735768443359375,16.108969453125Q1.6820114433593751,15.958729453125,1.6356924433593751,15.806039453125Q1.589372443359375,15.653339453125,1.5506014433593749,15.498559453125Q1.511829443359375,15.343779453125,1.480700443359375,15.187279453125Q1.449570343359375,15.030779453125,1.426157143359375,14.872939453125Q1.402743943359375,14.715099453125,1.387103743359375,14.556299453125Q1.371463543359375,14.397499453125,1.363633973359375,14.238129453125Q1.355804443359375,14.078759453125,1.355804443359375,13.919189453125Q1.355804443359375,13.759619453125,1.363633973359375,13.600249453125Q1.371463543359375,13.440879453125,1.387103743359375,13.282079453125Q1.402743943359375,13.123279453125,1.426157143359375,12.965439453125Q1.449570343359375,12.807599453125,1.480700443359375,12.651099453125Q1.511829443359375,12.494599453125,1.5506014433593749,12.339819453125Q1.589372443359375,12.185029453125,1.6356924433593751,12.032339453125001Q1.6820114433593751,11.879639453125,1.735768443359375,11.729399453125Q1.789524443359375,11.579169453125001,1.850587443359375,11.431749453125Q1.9116504433593748,11.284329453125,1.9798744433593751,11.140079453125Q2.0480974433593753,10.995839453125,2.123316443359375,10.855109453125Q2.198535443359375,10.714389453125,2.280568443359375,10.577519453125Q2.362604443359375,10.440659453125,2.451254443359375,10.307979453125Q2.539904443359375,10.175309453125,2.634954443359375,10.047139453125Q2.730004443359375,9.918979453125,2.8312344433593752,9.795629453125Q2.932464443359375,9.672289453125,3.039624443359375,9.554059453125Q3.1467844433593752,9.435829453125,3.259614443359375,9.322999453125Q3.372444443359375,9.210169453125,3.490674443359375,9.103009453125Q3.608904443359375,8.995849453125,3.732244443359375,8.894619453125Q3.855594443359375,8.793389453125,3.983754443359375,8.698339453125Q4.111924443359375,8.603289453125,4.244594443359375,8.514639453125Q4.377274443359375,8.425989453125,4.514134443359374,8.343953453125Q4.6510044433593745,8.261920453125,4.791724443359374,8.186701453125Q4.932454443359375,8.111482453125,5.076694443359375,8.043259453125Q5.220944443359375,7.975035453125,5.368364443359375,7.913972453125Q5.515784443359375,7.852909453125,5.666024443359375,7.799153453125Q5.816254443359375,7.745396453125,5.968954443359375,7.699077453125Q6.121644443359375,7.652757453125,6.276434443359375,7.613986453125Q6.431214443359375,7.575214453125,6.587714443359375,7.544085453125Q6.744214443359375,7.512955353125,6.902054443359375,7.489542153125Q7.059894443359375,7.466128953125,7.218694443359375,7.450488753125Q7.377494443359375,7.434848553125,7.536864443359375,7.427018983125Q7.696234443359375,7.419189453125,7.855804443359375,7.419189453125Q8.015374443359375,7.419189453125,8.174744443359375,7.427018983125Q8.334114443359375,7.434848553125,8.492914443359375,7.450488753125Q8.651714443359374,7.466128953125,8.809554443359374,7.489542153125Q8.967394443359375,7.512955353125,9.123894443359376,7.544085453125Q9.280394443359375,7.575214453125,9.435174443359376,7.613986453125Q9.589954443359375,7.652757453125,9.742654443359376,7.699077453125Q9.895344443359376,7.745396453125,10.045584443359376,7.799153453125Q10.195824443359376,7.852909453125,10.343244443359374,7.913972453125Q10.490664443359375,7.975035453125,10.634914443359374,8.043259453125Q10.779154443359374,8.111482453125,10.919884443359376,8.186701453125Q11.060604443359376,8.261920453125,11.197474443359376,8.343953453125Q11.334334443359374,8.425989453125,11.467004443359375,8.514639453125Q11.599704443359375,8.603289453125,11.727804443359375,8.698339453125Q11.856004443359375,8.793389453125,11.979404443359375,8.894619453125Q12.102704443359375,8.995849453125,12.220904443359375,9.103009453125Q12.339204443359375,9.210169453125,12.452004443359375,9.322999453125Q12.564804443359375,9.435829453125,12.672004443359375,9.554059453125Q12.779104443359374,9.672289453125,12.880404443359375,9.795629453125Q12.981604443359375,9.918979453125,13.076604443359376,10.047139453125Q13.171704443359374,10.175309453125,13.260404443359375,10.307979453125Q13.349004443359375,10.440659453125,13.431004443359376,10.577519453125Q13.513104443359374,10.714389453125,13.588304443359375,10.855109453125Q13.663504443359376,10.995839453125,13.731704443359375,11.140079453125Q13.800004443359375,11.284329453125,13.861004443359375,11.431749453125Q13.922104443359375,11.579169453125001,13.975804443359374,11.729409453125001Q14.029604443359375,11.879639453125,14.075904443359375,12.032339453125001Q14.122204443359376,12.185029453125,14.161004443359374,12.339819453125Q14.199804443359374,12.494599453125,14.230904443359375,12.651099453125Q14.262004443359375,12.807599453125,14.285404443359376,12.965439453125Q14.308904443359374,13.123279453125,14.324504443359375,13.282079453125Q14.340104443359374,13.440879453125,14.348004443359375,13.600249453125Q14.355804443359375,13.759619453125,14.355804443359375,13.919189453125Z" fill="#3491FA" fill-opacity="1"/></g><g><path d="M11.005799501953124,3.26915171875C11.289099501953125,2.19962171875,12.386939501953126,1.56332371875,13.455789501953124,1.84915201875L21.155839501953125,3.91915171875C22.225339501953123,4.20245171875,22.861639501953125,5.30029171875,22.575839501953126,6.36915171875L20.505839501953126,14.06916171875C20.218039501953125,15.13466171875,19.121639501953126,15.76566171875,18.055789501953125,15.47916171875L10.355799501953125,13.41916171875C9.290312501953125,13.13136171875,8.659302501953125,12.03496171875,8.945795101953125,10.96915171875L11.005799501953124,3.26915171875Z" fill="#FADC19" fill-opacity="1"/><path d="M7.9800745019531245,10.70957171875Q7.202229501953125,13.60336171875,10.097349501953126,14.38516171875L17.796209501953125,16.444861718749998Q20.689939501953127,17.22276171875,21.471539501953124,14.32876171875L23.541839501953127,6.62749171875Q23.863439501953124,5.42502171875,23.239239501953126,4.348111718749999Q22.615039501953127,3.27120171875,21.415439501953124,2.9534417187499997L13.714129501953124,0.88309771875Q12.511669501953126,0.56154171875,11.434759501953124,1.18570771875Q10.358919501953125,1.80925621875,10.039769501953124,3.01071171875L10.039509501953125,3.0116817187500002L10.039129501953125,3.01309171875L7.9800745019531245,10.70957171875ZM13.455789501953124,1.84915201875C12.386939501953126,1.56332371875,11.289099501953125,2.19962171875,11.005799501953124,3.26915171875L8.945795101953125,10.96915171875C8.659302501953125,12.03496171875,9.290312501953125,13.13136171875,10.355799501953125,13.41916171875L18.055789501953125,15.47916171875C19.121639501953126,15.76566171875,20.218039501953125,15.13466171875,20.505839501953126,14.06916171875L22.575839501953126,6.36915171875C22.861639501953125,5.30029171875,22.225339501953123,4.20245171875,21.155839501953125,3.91915171875L13.455789501953124,1.84915201875Z" fill-rule="evenodd" fill="#FFFFFF" fill-opacity="1"/></g><g><path d="M14.245817158203124,10.719176265625C14.631167158203125,10.054871265625,15.590467158203126,10.054871265625,15.975817158203125,10.719176265625L21.745837158203123,20.719147265625C21.924837158203125,21.029147265625,21.924437158203126,21.411247265625,21.744837158203126,21.720947265625C21.565237158203125,22.030547265625,21.233837158203123,22.220647265625,20.875837158203126,22.219147265625L9.355817158203125,22.219147265625C8.997841158203125,22.220647265625,8.666410158203124,22.030547265625,8.486806158203125,21.720947265625C8.307201858203126,21.411247265625,8.306824158203124,21.029147265625,8.485816158203125,20.719147265625L14.255817158203126,10.719175265625L14.245817158203124,10.719176265625Z" fill="#F53F3F" fill-opacity="1"/><path d="M13.380817158203126,10.217408755625Q13.347147158203125,10.275455165625,13.321527158203125,10.337480265625L12.524197158203126,11.719337265625L7.619795158203125,20.219167265625Q7.0411071582031255,21.221447265625002,7.621775158203125,22.222647265625Q8.202446158203125,23.223747265625,9.355817158203125,23.219147265625L20.871837158203125,23.219147265625Q22.029237158203124,23.223747265625,22.609837158203124,22.222647265625Q23.190537158203124,21.221447265625002,22.611937158203126,20.219407265625L16.840817158203123,10.217405135625Q16.262787158203125,9.220948265625,15.110817158203126,9.220947265625Q13.958847158203124,9.220948265625,13.380817158203126,10.217405135625L13.380817158203126,10.217408755625ZM13.753567158203126,11.589627265625L14.253307158203125,10.723522265625L14.255817158203126,10.719175265625L14.245817158203124,10.719176265625C14.246657158203124,10.717734265625,14.247497158203124,10.716294265625,14.248337158203125,10.714858265625C14.443737158203124,10.381621265625,14.784187158203125,10.217008045625,15.122907158203125,10.221019307925C15.295087158203124,10.223058445625,15.466817158203124,10.268673765625,15.618817158203125,10.357865265625C15.759997158203124,10.440708265625,15.884147158203124,10.561145265625001,15.975817158203125,10.719176265625L21.745837158203123,20.719147265625C21.924837158203125,21.029147265625,21.924437158203126,21.411247265625,21.744837158203126,21.720947265625C21.565237158203125,22.030547265625,21.233837158203123,22.220647265625,20.875837158203126,22.219147265625L9.355817158203125,22.219147265625C8.997841158203125,22.220647265625,8.666410158203124,22.030547265625,8.486806158203125,21.720947265625C8.307201858203126,21.411247265625,8.306824158203124,21.029147265625,8.485816158203125,20.719147265625L13.678787158203125,11.719227265625L13.753567158203126,11.589627265625Z" fill-rule="evenodd" fill="#FFFFFF" fill-opacity="1"/></g><g><path d="M17.75001,15.07256315625C17.79001,14.83167415625,17.9989,14.65478515625,18.24335,14.65478515625L19.395789999999998,14.65478515625C19.64023,14.65478515625,19.84912,14.83167415625,19.88912,15.07256315625L19.98379,15.64189615625C20.01179,15.80811515625,20.1229,15.94678515625,20.27046,16.02856515625C20.303350000000002,16.04634515625,20.33579,16.06545515625,20.36823,16.08500515625C20.51268,16.17211515625,20.68823,16.19922515625,20.84601,16.14011515625L21.3869,15.93745515625C21.61581,15.85136515625,21.8734,15.94349515625,21.99579,16.15522515625L22.57179,17.15389515625C22.69391,17.36564515625,22.64504,17.63464515625,22.456229999999998,17.78989515625L22.010460000000002,18.157455156250002C21.88023,18.26456515625,21.81579,18.42989515625,21.81935,18.59834515625C21.819969999999998,18.63611515625,21.819969999999998,18.67389515625,21.81935,18.71167515625C21.81579,18.879675156250002,21.88023,19.04500515625,22.010460000000002,19.152115156249998L22.45668,19.51967515625C22.64512,19.67522515625,22.69401,19.94411515625,22.57223,20.15522515625L21.995350000000002,21.15389515625C21.87313,21.36557515625,21.61579,21.45787515625,21.3869,21.37211515625L20.84601,21.16945515625C20.68823,21.11034515625,20.51268,21.13745515625,20.36779,21.22456515625C20.33557,21.24416515625,20.302970000000002,21.26313515625,20.27001,21.28145515625C20.1229,21.36278515625,20.01179,21.50145515625,19.98379,21.66767515625L19.88912,22.23700515625C19.84912,22.47833515625,19.64023,22.65478515625,19.395789999999998,22.65478515625L18.2429,22.65478515625C17.99846,22.65478515625,17.79001,22.47789515625,17.74957,22.23700515625L17.6549,21.66767515625C17.62735,21.50145515625,17.51623,21.36278515625,17.36868,21.28100515625C17.33572,21.26282515625,17.30312,21.24400515625,17.2709,21.22456515625C17.12646,21.13745515625,16.9509,21.11033515625,16.79268,21.16945515625L16.25179,21.37211515625C16.02301,21.45795515625,15.765698,21.36585515625,15.643345,21.15433515625L15.066901,20.15567515625C14.9447788,19.94392515625,14.99365393,19.674925156249998,15.182457,19.51967515625L15.628679,19.152115156249998C15.758456,19.04545515625,15.822901,18.879675156250002,15.81979,18.71167515625C15.819095,18.67389515625,15.819095,18.63611515625,15.81979,18.598335156250002C15.822901,18.42945515625,15.758456,18.26456515625,15.628679,18.157455156250002L15.182457,17.78989515625C14.99389087,17.63469515625,14.9450341,17.365985156249998,15.066901,17.15433515625L15.643345,16.15567515625C15.765592999999999,15.94377515625,16.02322,15.85144515625,16.25223,15.93745515625L16.79268,16.14011515625C16.9509,16.19922515625,17.12646,16.17211515625,17.2709,16.08500515625C17.3029,16.06545515625,17.33579,16.04678515625,17.36868,16.02811515625C17.51623,15.94678515625,17.62735,15.80811515625,17.6549,15.64189515625L17.75001,15.07256315625L17.75001,15.07256315625Z" fill="#D25F00" fill-opacity="1"/><path d="M16.76368,14.90779015625L16.76352,14.90875415625L16.73956,15.05219615625L16.60382,15.00129515625Q15.412870999999999,14.55401915625,14.777269,15.65576515625L14.2003,16.65533515625Q13.5669,17.75535515625,14.546668,18.56175515625L14.659604,18.65478515625L14.547314,18.747275156249998Q13.627089999999999,19.50398515625,14.127755,20.51908515625Q14.161133,20.58676515625,14.200825,20.655585156249998L14.777734,21.65505515625Q15.41377,22.754595156249998,16.60266,22.30854515625L16.73923,22.25737515625L16.763370000000002,22.402585156249998Q16.97361,23.65478515625,18.2429,23.65478515625L19.395789999999998,23.65478515625Q20.66777,23.65478515625,20.87558,22.40103515625L20.89947,22.25737515625L21.03605,22.30854515625Q22.22602,22.75439515625,22.86125,21.65409515625L23.43845,20.65489515625Q23.99288,19.69375515625,23.31216,18.95449515625Q23.21492,18.84888515625,23.09247,18.74781515625L22.97936,18.654645156249998L23.09138,18.56228515625Q24.07295,17.75514515625,23.438029999999998,16.65427515625L22.86156,15.65478515625Q22.22516,14.55382115625,21.03603,15.00102815625L20.89947,15.05219715625L20.875619999999998,14.90875615625Q20.66739,13.65478515625,19.395789999999998,13.65478515625L18.24335,13.65478515625Q16.97223,13.65478515625,16.76368,14.90779015625ZM18.24335,14.65478515625C17.9989,14.65478515625,17.79001,14.83167415625,17.75001,15.07256315625L17.6549,15.64189515625C17.62735,15.80811515625,17.51623,15.94678515625,17.36868,16.02811515625C17.33579,16.04678515625,17.3029,16.06545515625,17.2709,16.08500515625C17.12646,16.17211515625,16.9509,16.19922515625,16.79268,16.14011515625L16.25223,15.93745515625C16.02322,15.85144515625,15.765592999999999,15.94377515625,15.643345,16.15567515625L15.066901,17.15433515625C14.9450341,17.365985156249998,14.99389087,17.63469515625,15.182457,17.78989515625L15.628679,18.157455156250002C15.758456,18.26456515625,15.822901,18.42945515625,15.81979,18.598335156250002C15.819095,18.63611515625,15.819095,18.67389515625,15.81979,18.71167515625C15.822901,18.879675156250002,15.758456,19.04545515625,15.628679,19.152115156249998L15.182457,19.51967515625C14.99365393,19.674925156249998,14.9447788,19.94392515625,15.066901,20.15567515625L15.643345,21.15433515625C15.765698,21.36585515625,16.02301,21.45795515625,16.25179,21.37211515625L16.79268,21.16945515625C16.9509,21.11033515625,17.12646,21.13745515625,17.2709,21.22456515625C17.30312,21.24400515625,17.33572,21.26282515625,17.36868,21.28100515625C17.51623,21.36278515625,17.62735,21.50145515625,17.6549,21.66767515625L17.74957,22.23700515625C17.79001,22.47789515625,17.99846,22.65478515625,18.2429,22.65478515625L19.395789999999998,22.65478515625C19.64023,22.65478515625,19.84912,22.47833515625,19.88912,22.23700515625L19.98379,21.66767515625C20.01179,21.50145515625,20.1229,21.36278515625,20.27001,21.28145515625C20.302970000000002,21.26313515625,20.33557,21.24416515625,20.36779,21.22456515625C20.51268,21.13745515625,20.68823,21.11034515625,20.84601,21.16945515625L21.3869,21.37211515625C21.61579,21.45787515625,21.87313,21.36557515625,21.995350000000002,21.15389515625L22.57223,20.15522515625C22.69401,19.94411515625,22.64512,19.67522515625,22.45668,19.51967515625L22.010460000000002,19.152115156249998C21.88023,19.04500515625,21.81579,18.879675156250002,21.81935,18.71167515625C21.819969999999998,18.67389515625,21.819969999999998,18.63611515625,21.81935,18.59834515625C21.81579,18.42989515625,21.88023,18.26456515625,22.010460000000002,18.157455156250002L22.456229999999998,17.78989515625C22.64504,17.63464515625,22.69391,17.36564515625,22.57179,17.15389515625L21.99579,16.15522515625C21.8734,15.94349515625,21.61581,15.85136515625,21.3869,15.93745515625L20.84601,16.14011515625C20.68823,16.19922515625,20.51268,16.17211515625,20.36823,16.08500515625C20.33579,16.06545515625,20.303350000000002,16.04634515625,20.27046,16.02856515625C20.1229,15.94678515625,20.01179,15.80811515625,19.98379,15.64189615625L19.88912,15.07256315625C19.84912,14.83167415625,19.64023,14.65478515625,19.395789999999998,14.65478515625L18.24335,14.65478515625Z" fill-rule="evenodd" fill="#FFFFFF" fill-opacity="1"/></g><g><path d="M20.15269294921875,18.654863203125Q20.15269294921875,18.720373203125,20.14627294921875,18.785553203125Q20.13985294921875,18.850743203125,20.12707294921875,18.914983203125Q20.11429294921875,18.979233203125,20.09527294921875,19.041913203125Q20.07626294921875,19.104593203125,20.051192949218752,19.165113203125Q20.02613294921875,19.225623203125,19.99525294921875,19.283393203125Q19.96437294921875,19.341163203125,19.92798294921875,19.395623203124998Q19.89159294921875,19.450093203125,19.85003294921875,19.500723203125Q19.80848294921875,19.551363203125,19.762162949218748,19.597673203124998Q19.71585294921875,19.643993203125,19.66521294921875,19.685543203125Q19.61458294921875,19.727103203125,19.560112949218748,19.763493203125Q19.50565294921875,19.799883203125,19.44788294921875,19.830763203125Q19.39011294921875,19.861643203125,19.32960294921875,19.886703203125002Q19.26908294921875,19.911773203125,19.20640294921875,19.930783203125Q19.14372294921875,19.949803203125,19.07947294921875,19.962583203125Q19.01523294921875,19.975363203125,18.95004294921875,19.981783203125Q18.88486294921875,19.988203203125,18.81935294921875,19.988203203125Q18.75385294921875,19.988203203125,18.68866294921875,19.981783203125Q18.62348294921875,19.975363203125,18.55923294921875,19.962583203125Q18.49499294921875,19.949803203125,18.43230994921875,19.930783203125Q18.36962794921875,19.911773203125,18.30911194921875,19.886703203125002Q18.24859494921875,19.861643203125,18.19082694921875,19.830763203125Q18.13305894921875,19.799883203125,18.07859594921875,19.763493203125Q18.02413294921875,19.727103203125,17.97349894921875,19.685543203125Q17.92286494921875,19.643993203125,17.87654694921875,19.597673203124998Q17.83022994921875,19.551363203125,17.78867594921875,19.500723203125Q17.74712094921875,19.450093203125,17.71072994921875,19.395623203124998Q17.67433894921875,19.341163203125,17.64346094921875,19.283393203125Q17.61258394921875,19.225623203125,17.58751694921875,19.165113203125Q17.56245014921875,19.104593203125,17.54343584921875,19.041913203125Q17.52442144921875,18.979233203125,17.51164254921875,18.914983203125Q17.49886364921875,18.850743203125,17.49244330921875,18.785553203125Q17.48602294921875,18.720373203125,17.48602294921875,18.654863203125Q17.48602294921875,18.589363203125,17.49244330921875,18.524173203125Q17.49886364921875,18.458993203125,17.51164254921875,18.394743203125Q17.52442144921875,18.330503203125,17.54343584921875,18.267820203125Q17.56245014921875,18.205138203125,17.58751694921875,18.144622203125Q17.61258394921875,18.084105203125,17.64346094921875,18.026337203125Q17.67433894921875,17.968569203125,17.71072994921875,17.914106203125Q17.74712094921875,17.859643203125,17.78867594921875,17.809009203125Q17.83022994921875,17.758375203125,17.87654694921875,17.712057203125Q17.92286494921875,17.665740203125,17.97349894921875,17.624186203125Q18.02413294921875,17.582631203125,18.07859594921875,17.546240203125Q18.13305894921875,17.509849203125,18.19082694921875,17.478971203125Q18.24859494921875,17.448094203125,18.30911194921875,17.423027203125Q18.36962794921875,17.397960403125,18.43230994921875,17.378946103125Q18.49499294921875,17.359931703125,18.55923294921875,17.347152803125Q18.62348294921875,17.334373903125,18.68866294921875,17.327953563125Q18.75385294921875,17.321533203125,18.81935294921875,17.321533203125Q18.88486294921875,17.321533203125,18.95004294921875,17.327953563125Q19.01523294921875,17.334373903125,19.07947294921875,17.347152803125Q19.14372294921875,17.359931703125,19.20640294921875,17.378946103125Q19.26908294921875,17.397960403125,19.32960294921875,17.423027203125Q19.39011294921875,17.448094203125,19.44788294921875,17.478971203125Q19.50565294921875,17.509849203125,19.560112949218748,17.546240203125Q19.61458294921875,17.582631203125,19.66521294921875,17.624186203125Q19.71585294921875,17.665740203125,19.762162949218748,17.712057203125Q19.80848294921875,17.758375203125,19.85003294921875,17.809009203125Q19.89159294921875,17.859643203125,19.92798294921875,17.914106203125Q19.96437294921875,17.968569203125,19.99525294921875,18.026337203125Q20.02613294921875,18.084105203125,20.051192949218752,18.144622203125Q20.07626294921875,18.205138203125,20.09527294921875,18.267820203125Q20.11429294921875,18.330503203125,20.12707294921875,18.394743203125Q20.13985294921875,18.458993203125,20.14627294921875,18.524173203125Q20.15269294921875,18.589363203125,20.15269294921875,18.654863203125Z" fill="#FFFFFF" fill-opacity="1"/></g></g></svg>