<svg id="图层_1" data-name="图层 1" xmlns="http://www.w3.org/2000/svg" viewBox="0 0 18 18">
  <defs>
    <style>
      .zhujjiqowh56-1 {
        fill: #854bfa;
      }

      .zhujjiqowh56-2 {
        fill: #fff;
      }
    </style>
  </defs>
  <g id="IconAomMenuGJKGLColor">
    <rect class="zhujjiqowh56-1" width="18" height="18" rx="4" />
  </g>
  <path class="zhujjiqowh56-2" d="M11.28,4H5A1,1,0,0,0,4,5V6.44a1,1,0,0,0,1,1h8a1,1,0,0,0,1-1V5a1,1,0,0,0-1-1Z" />
  <rect class="zhujjiqowh56-2" x="4" y="8.24" width="3.77" height="5.76" rx="1" />
  <path class="zhujjiqowh56-2"
    d="M12.67,13.7l.09-.15.06-.09a.18.18,0,0,1,.07-.05l.1,0h.26a.57.57,0,0,0,.5-.29l.18-.31a.58.58,0,0,0,0-.57L13.83,12l0-.09h0v0a.22.22,0,0,1,0-.08.5.5,0,0,1,0-.12.41.41,0,0,1,0-.08l.09-.16a.58.58,0,0,0,0-.57l-.18-.3a.58.58,0,0,0-.5-.3h-.17l-.11,0-.07,0-.1-.08a.43.43,0,0,1,0-.07L12.67,10a.58.58,0,0,0-.5-.3h-.34a.58.58,0,0,0-.5.3l-.08.15-.05.07-.09.08-.11,0h-.25a.59.59,0,0,0-.5.29l-.18.31a.58.58,0,0,0,0,.57l.09.15,0,.08v0h0a.28.28,0,0,1,0,.09,1,1,0,0,1,0,.12l0,.08-.09.15a.58.58,0,0,0,0,.57l.18.31a.57.57,0,0,0,.5.29H11a.56.56,0,0,1,.17.09l0,0a.43.43,0,0,1,0,.07l.09.15a.56.56,0,0,0,.5.3h.34A.56.56,0,0,0,12.67,13.7Zm-1.53-1.86a.86.86,0,1,1,.86.85A.86.86,0,0,1,11.14,11.84Z" />
  <path class="zhujjiqowh56-2"
    d="M9.55,13.46l-.17-.31a1.36,1.36,0,0,1,0-1.31,1.38,1.38,0,0,1,0-1.32l.17-.31a1.39,1.39,0,0,1,1.12-.69,1.38,1.38,0,0,1,1.16-.65h.34a1.38,1.38,0,0,1,1.16.65,1.33,1.33,0,0,1,.67.22v-.5a1,1,0,0,0-1-1H9.57a1,1,0,0,0-1,1V13a1,1,0,0,0,1,1h.56A1.32,1.32,0,0,1,9.55,13.46Z" />
  <path class="zhujjiqowh56-2"
    d="M13.25,13.36a.57.57,0,0,0,.5-.29l.18-.31a.58.58,0,0,0,0-.57L13.83,12l0-.09h0v0a.22.22,0,0,1,0-.08.5.5,0,0,1,0-.12.41.41,0,0,1,0-.08l.09-.16a.58.58,0,0,0,0-.57l-.18-.3a.58.58,0,0,0-.5-.3h-.17l-.11,0-.07,0-.1-.08a.43.43,0,0,1,0-.07L12.67,10a.58.58,0,0,0-.5-.3h-.34a.58.58,0,0,0-.5.3l-.08.15-.05.07-.09.08-.11,0h-.25a.59.59,0,0,0-.5.29l-.18.31a.58.58,0,0,0,0,.57l.09.15,0,.08v0h0a.28.28,0,0,1,0,.09,1,1,0,0,1,0,.12l0,.08-.09.15a.58.58,0,0,0,0,.57l.18.31a.57.57,0,0,0,.5.29H11a.56.56,0,0,1,.17.09l0,0a.43.43,0,0,1,0,.07l.09.15a.56.56,0,0,0,.5.3h.34a.56.56,0,0,0,.5-.3l.09-.15.06-.09a.18.18,0,0,1,.07-.05l.1,0h.26ZM12,12.69a.86.86,0,1,1,.86-.85A.86.86,0,0,1,12,12.69Z" />
</svg>