<svg xmlns="http://www.w3.org/2000/svg" xmlns:xlink="http://www.w3.org/1999/xlink" fill="none" version="1.1" width="24" height="24" viewBox="0 0 24 24"><defs><clipPath id="master_svg0_700_32332"><rect x="0" y="0" width="24" height="24" rx="0"/></clipPath></defs><g clip-path="url(#master_svg0_700_32332)"><g><path d="M7.499999764556884,6.000000238418579C7.499999764556884,3.514720238418579,9.514719764556885,1.500000238418579,11.999999764556884,1.500000238418579C14.485279764556886,1.500000238418579,16.499979764556883,3.514720238418579,16.499979764556883,6.000000238418579C16.499979764556883,8.485280238418579,14.485279764556886,10.500000238418579,11.999999764556884,10.500000238418579C9.514719764556885,10.500000238418579,7.499999764556884,8.485280238418579,7.499999764556884,6.000000238418579ZM3.750999927556885,20.10500023841858C3.821160764556885,15.599300238418579,7.493739764556885,11.983400238418579,11.999999764556884,11.983400238418579C16.506279764556886,11.983400238418579,20.178879764556886,15.599300238418579,20.248979764556886,20.10500023841858C20.254279764556884,20.402900238418578,20.082779764556886,20.675700238418578,19.811979764556884,20.80000023841858C17.361179764556887,21.92370023841858,14.696179764556884,22.503700238418578,11.999999764556884,22.50000023841858C9.213999764556885,22.50000023841858,6.5669997645568845,21.89200023841858,4.187999764556885,20.80000023841858C3.917214764556885,20.675700238418578,3.745685104556885,20.402900238418578,3.750999927556885,20.10500023841858Z" fill-rule="evenodd" fill="#FF7D00" fill-opacity="1"/></g><g><path d="M15.417362556640626,21.04317L15.228029556640625,20.963169999999998Q14.948094556640624,20.84489,14.644195556640625,20.84489Q14.570505256640624,20.84489,14.497169556640625,20.85211Q14.423834556640625,20.85933,14.351560556640624,20.87371Q14.279285556640625,20.88809,14.208768556640624,20.909480000000002Q14.138251556640625,20.93087,14.070170556640624,20.95907Q14.002089556640625,20.98727,13.937100556640624,21.02201Q13.872111556640625,21.056739999999998,13.810840556640626,21.09768Q13.749568556640625,21.13862,13.692605556640626,21.18537Q13.635645556640625,21.232120000000002,13.583535556640625,21.28423Q13.531425556640626,21.33634,13.484675556640624,21.3933Q13.437935556640625,21.45026,13.396995556640626,21.51153Q13.356055556640625,21.5728,13.321315556640625,21.63779Q13.286575556640624,21.70278,13.258375556640624,21.77086Q13.230175556640624,21.83894,13.208785556640624,21.90946Q13.187395556640626,21.97998,13.173015556640625,22.05225Q13.158645556640625,22.12453,13.151415556640625,22.19786Q13.144195556640625,22.2712,13.144195556640625,22.34489Q13.144195556640625,22.45487,13.160235556640625,22.563670000000002Q13.176275556640626,22.67247,13.208015556640625,22.77777Q13.239755556640626,22.88307,13.286515556640625,22.98261Q13.333265556640626,23.082160000000002,13.394045556640625,23.17382Q13.454825556640625,23.26548,13.528315556640624,23.34729Q13.601815556640625,23.42911,13.686454556640625,23.49933Q13.771097556640624,23.56955,13.865076556640625,23.62667Q13.959055556640624,23.683799999999998,14.060361556640625,23.726599999999998L14.061760556640625,23.72719L14.249694556640625,23.8066Q16.535485556640626,24.775840000000002,17.914275556640625,22.70882L18.191115556640625,22.2935L18.289245556640626,22.58788Q18.621095556640626,23.57987,19.604275556640623,23.93698Q20.587445556640624,24.29409,21.479085556640626,23.74602L22.763525556640623,22.9558Q22.927185556640623,22.85511,23.060185556640626,22.71642Q23.193175556640625,22.57773,23.286915556640626,22.41Q23.380655556640626,22.24227,23.429095556640625,22.05632Q23.477525556640625,21.87037,23.477525556640625,21.67822Q23.477525556640625,21.60453,23.470305556640625,21.5312Q23.463085556640625,21.45786,23.448705556640626,21.38559Q23.434335556640626,21.31331,23.412935556640626,21.24279Q23.391545556640626,21.17228,23.363345556640624,21.1042Q23.335145556640626,21.03611,23.300415556640623,20.97113Q23.265675556640623,20.90614,23.224735556640624,20.84487Q23.183795556640625,20.78359,23.137045556640626,20.72663Q23.090295556640626,20.66967,23.038185556640627,20.61756Q22.986085556640624,20.56545,22.929115556640625,20.51871Q22.872155556640624,20.47196,22.810885556640624,20.43102Q22.749615556640627,20.39008,22.684625556640626,20.355339999999998Q22.619635556640624,20.3206,22.551555556640626,20.2924Q22.483475556640624,20.2642,22.412955556640625,20.24281Q22.342435556640623,20.221420000000002,22.270165556640624,20.20704Q22.197895556640624,20.19267,22.124555556640626,20.18545Q22.051215556640624,20.17822,21.977525556640625,20.17822Q21.769385556640625,20.17822,21.569095556640626,20.2349Q21.368815556640627,20.29157,21.191535556640623,20.40064L21.190925556640625,20.40101L20.802265556640627,20.64013L20.299195556640626,19.13091L21.870105556640624,16.77419L21.870435556640626,16.77435L22.060365556640626,16.85461Q22.340295556640626,16.97289,22.644195556640625,16.97289Q22.717885556640624,16.97289,22.791225556640626,16.96567Q22.864555556640624,16.95844,22.936825556640628,16.94407Q23.009105556640627,16.92969,23.079625556640625,16.9083Q23.150135556640627,16.88691,23.218215556640626,16.85871Q23.286305556640627,16.83051,23.351285556640626,16.79577Q23.416275556640628,16.76103,23.477545556640624,16.72009Q23.538825556640624,16.67915,23.595785556640624,16.6324Q23.652745556640625,16.58566,23.704855556640624,16.533549999999998Q23.756965556640623,16.48144,23.803715556640626,16.42448Q23.850455556640625,16.36751,23.891395556640624,16.30624Q23.932335556640624,16.244972,23.967075556640623,16.179983Q24.001815556640626,16.114994,24.030015556640627,16.046913Q24.058215556640626,15.978832,24.079605556640622,15.908315Q24.100995556640626,15.837798,24.115375556640625,15.765524Q24.129745556640625,15.693249,24.136975556640625,15.619914Q24.144195556640625,15.546578,24.144195556640625,15.472888Q24.144195556640625,15.362909,24.128155556640625,15.25410642Q24.112115556640624,15.145304,24.080375556640625,15.040004Q24.048635556640626,14.934704,24.001875556640627,14.83516Q23.955125556640624,14.735616,23.894345556640623,14.643956Q23.833565556640625,14.552296,23.760075556640626,14.470481Q23.686575556640626,14.388665,23.601935556640626,14.318445Q23.517285556640623,14.24822,23.423305556640624,14.1911Q23.329325556640626,14.13398,23.228025556640624,14.09117L23.226685556640625,14.0906L23.039295556640624,14.01143Q20.752055556640624,13.043800000000001,19.373845556640624,15.110258L19.097275556640625,15.525164L18.999665556640625,15.2323238Q18.669475556640627,14.23911,17.684755556640624,13.88087Q16.700045556640625,13.52263,15.807825556640624,14.07212L14.524180556640625,14.863286L14.523828556640625,14.863503Q14.360382556640625,14.964241,14.227579556640626,15.1029Q14.094775556640625,15.24155763,14.001177556640625,15.409195Q13.907578556640624,15.576832,13.859220556640626,15.762639Q13.810862556640625,15.948446,13.810862556640625,16.140443Q13.810862556640625,16.214134,13.818085556640625,16.28747Q13.825308556640625,16.3608,13.839684556640625,16.43308Q13.854060556640626,16.50535,13.875451556640625,16.575870000000002Q13.896842556640625,16.64639,13.925043556640626,16.71447Q13.953243556640626,16.78255,13.987980556640625,16.84754Q14.022717556640625,16.91253,14.063657556640624,16.9738Q14.104597556640625,17.03507,14.151346556640625,17.09203Q14.198095556640626,17.149,14.250202556640625,17.2011Q14.302308556640625,17.25321,14.359272556640626,17.29996Q14.416235556640626,17.34671,14.477506556640625,17.38765Q14.538778556640626,17.42859,14.603767256640625,17.46333Q14.668756256640625,17.49806,14.736837156640625,17.52626Q14.804918556640626,17.55446,14.875435556640625,17.57585Q14.945952556640625,17.59724,15.018226556640625,17.61162Q15.090501556640625,17.626,15.163836556640625,17.63322Q15.237172556640624,17.640439999999998,15.310862556640625,17.640439999999998Q15.519320556640626,17.640439999999998,15.719875556640625,17.5836Q15.920435556640625,17.52676,16.097895556640626,17.41738L16.486005556640624,17.17818L16.989195556640624,18.68776L15.418557556640625,21.044069999999998L15.418580556640626,21.04401L15.417362556640626,21.04317Z" fill-rule="evenodd" fill="#FFFFFF" fill-opacity="1"/></g><g><path d="M14.839118556640624,21.88445L14.838806556640625,21.88432Q14.745495556640625,21.84489,14.644195556640625,21.84489Q14.594949856640625,21.84489,14.546650456640625,21.8545Q14.498350556640625,21.8641,14.452853556640624,21.88295Q14.407356556640625,21.90179,14.366410556640625,21.92915Q14.325464556640625,21.95651,14.290642556640625,21.991329999999998Q14.255820556640625,22.02616,14.228460556640625,22.0671Q14.201101556640625,22.10805,14.182255556640625,22.15355Q14.163410556640624,22.19904,14.153802556640626,22.24734Q14.144195556640625,22.29564,14.144195556640625,22.34489Q14.144195556640625,22.418599999999998,14.165468556640626,22.48918Q14.186742556640626,22.55976,14.227478556640625,22.6212Q14.268215556640625,22.68263,14.324948556640624,22.7297Q14.381681556640626,22.77677,14.449584556640625,22.80546L14.449895556640625,22.80559L14.638917526640626,22.885460000000002Q16.163245556640625,23.53182,17.082375556640624,22.1539L18.493165556640626,20.037390000000002L19.237585556640624,22.27063Q19.416275556640624,22.80477,19.945675556640623,22.99707Q20.475075556640626,23.18936,20.955085556640626,22.8943L22.239165556640625,22.104300000000002L22.239525556640626,22.10408Q22.294085556640624,22.070520000000002,22.338415556640626,22.02429Q22.382745556640625,21.97806,22.413995556640625,21.922150000000002Q22.445235556640625,21.86624,22.461385556640625,21.80426Q22.477525556640625,21.74227,22.477525556640625,21.67822Q22.477525556640625,21.62898,22.467925556640626,21.58068Q22.458315556640624,21.53238,22.439465556640627,21.48688Q22.420625556640626,21.44138,22.393265556640625,21.40044Q22.365905556640627,21.35949,22.331085556640623,21.32467Q22.296255556640624,21.28985,22.255315556640625,21.26249Q22.214365556640626,21.235129999999998,22.168865556640625,21.21628Q22.123375556640624,21.19744,22.075075556640627,21.187829999999998Q22.026775556640626,21.17822,21.977525556640625,21.17822Q21.836035556640624,21.17822,21.715525556640625,21.25236L20.431085556640625,22.04259Q20.362705556640627,22.08462,20.287075556640623,22.05715Q20.211445556640626,22.02968,20.185925556640626,21.95337L19.195865556640626,18.98319L21.038015556640623,16.219543Q21.497415556640625,15.53074,22.260055556640623,15.853376L22.449585556640624,15.933461Q22.542895556640623,15.972888,22.644195556640625,15.972888Q22.693435556640623,15.972888,22.741735556640627,15.963281Q22.790035556640625,15.953673,22.835535556640625,15.934828Q22.881035556640626,15.915982,22.921975556640625,15.888623Q22.962925556640627,15.861263,22.997745556640623,15.826440999999999Q23.032565556640627,15.791619,23.059925556640625,15.750673Q23.087285556640623,15.709727,23.106135556640623,15.66423Q23.124975556640624,15.618733,23.134585556640623,15.570433Q23.144195556640625,15.522134,23.144195556640625,15.472888Q23.144195556640625,15.399173,23.122925556640624,15.3285933Q23.101645556640626,15.25801406,23.060915556640623,15.1965771Q23.020175556640623,15.13514,22.963445556640625,15.088073Q22.906705556640624,15.041007,22.838805556640626,15.012315L22.838175556640625,15.012052L22.649675556640624,14.9324Q21.124735556640626,14.287271,20.205925556640626,15.6649L18.795225556640624,17.78128L18.050985556640626,15.548552Q17.873105556640624,15.013512,17.342875556640625,14.820613Q16.812645556640625,14.627715,16.332215556640627,14.923595L15.048671556640626,15.714702L15.048517556640626,15.714796Q14.994035556640625,15.748376,14.949767556640625,15.794595Q14.905500556640625,15.840815,14.874300556640625,15.896694Q14.843101556640624,15.952573,14.826981556640625,16.014509Q14.810862556640625,16.076444,14.810862556640625,16.140443Q14.810862556640625,16.189689,14.820469556640624,16.237988Q14.830077556640624,16.28629,14.848922556640625,16.33178Q14.867768556640625,16.37728,14.895127556640626,16.41823Q14.922486556640624,16.45917,14.957308556640625,16.494Q14.992130556640625,16.52882,15.033077556640626,16.55618Q15.074023556640626,16.58354,15.119520556640625,16.60238Q15.165017556640626,16.62123,15.213317556640625,16.63084Q15.261616556640625,16.640439999999998,15.310862556640625,16.640439999999998Q15.452571556640624,16.640439999999998,15.573206556640624,16.56609L16.856615556640627,15.775069Q16.925245556640625,15.7328,17.000995556640625,15.760356999999999Q17.076745556640624,15.787914,17.102295556640627,15.864779L18.092525556640624,18.83547L16.250465556640624,21.59899Q15.791005556640625,22.28779,15.028139556640625,21.96432L14.839118556640624,21.88445Z" fill-rule="evenodd" fill="#D25F00" fill-opacity="1"/></g></g></svg>