<?xml version="1.0" encoding="utf-8"?>
<!-- Generator: Adobe Illustrator 24.2.0, SVG Export Plug-In . SVG Version: 6.00 Build 0)  -->
<svg version="1.1" id="_1" xmlns="http://www.w3.org/2000/svg" xmlns:xlink="http://www.w3.org/1999/xlink" x="0px" y="0px"
	 viewBox="0 0 24 24" style="enable-background:new 0 0 24 24;" xml:space="preserve">
<path d="M12,0C5.4,0,0,5.4,0,12s5.4,12,12,12c6.6,0,12-5.4,12-12S18.6,0,12,0z M10.8,8l1.6-1.6C13,5.8,14,5.4,14.9,5.4c0,0,0,0,0,0
	c1,0,1.9,0.4,2.6,1.1c0.7,0.7,1.1,1.6,1.1,2.6s-0.4,1.9-1.1,2.6L16,13.2c-0.2,0.2-0.5,0.4-0.8,0.4s-0.6-0.1-0.8-0.4
	c-0.5-0.5-0.5-1.2,0-1.7l1.6-1.6c0.2-0.2,0.4-0.5,0.4-0.9S16,8.4,15.8,8.2c-0.2-0.2-0.5-0.4-0.9-0.4S14.3,8,14.1,8.2l-1.6,1.6
	c-0.5,0.5-1.2,0.5-1.7,0C10.3,9.3,10.3,8.5,10.8,8z M7.9,5.6c0-0.7,0.5-1.2,1.2-1.2s1.2,0.5,1.2,1.2v1.1c0,0.7-0.5,1.2-1.2,1.2
	S7.9,7.4,7.9,6.7V5.6z M4.4,9.1c0-0.7,0.5-1.2,1.2-1.2h1.1c0.7,0,1.2,0.5,1.2,1.2s-0.5,1.2-1.2,1.2H5.6C4.9,10.3,4.4,9.8,4.4,9.1z
	 M13.2,16l-1.6,1.6c-0.7,0.7-1.6,1.1-2.6,1.1s-1.9-0.4-2.6-1.1c-1.4-1.4-1.4-3.7,0-5.2L8,10.8c0.5-0.5,1.2-0.5,1.7,0
	c0.5,0.5,0.5,1.2,0,1.7l-1.6,1.6c-0.5,0.5-0.5,1.3,0,1.8c0.5,0.5,1.3,0.5,1.8,0l1.6-1.6c0.5-0.5,1.2-0.5,1.7,0
	C13.7,14.7,13.7,15.5,13.2,16z M16.1,18.4c0,0.7-0.5,1.2-1.2,1.2s-1.2-0.5-1.2-1.2v-1.1c0-0.7,0.5-1.2,1.2-1.2s1.2,0.5,1.2,1.2V18.4
	z M18.4,16.1h-1.1c-0.7,0-1.2-0.5-1.2-1.2s0.5-1.2,1.2-1.2h1.1c0.7,0,1.2,0.5,1.2,1.2S19.1,16.1,18.4,16.1z"/>
</svg>
