<?xml version="1.0" encoding="UTF-8"?>
<svg id="_图层_1" data-name="图层 1" xmlns="http://www.w3.org/2000/svg" viewBox="0 0 18 18">
  <defs>
    <style>
      .aom-menu-xjxgl1 {
        fill: #fff;
      }

      .aom-menu-xjxgl2 {
        fill: #f0953a;
      }
    </style>
  </defs>
  <rect class="aom-menu-xjxgl2" width="18" height="18" rx="4" ry="4"/>
  <path class="aom-menu-xjxgl1" d="M7.77,4.11h-2.85c-.45,0-.81,.37-.81,.81v2.85c0,.45,.37,.81,.81,.81h2.85c.45,0,.81-.37,.81-.81v-2.85c0-.45-.37-.81-.81-.81Zm0,3.87v0Zm0,1.43h-2.85c-.45,0-.81,.37-.81,.81v2.85c0,.45,.37,.81,.81,.81h2.85c.45,0,.81-.37,.81-.81v-2.85c0-.45-.37-.81-.81-.81Zm0,3.95v0Zm5.3-3.95h-2.85c-.45,0-.81,.37-.81,.81v2.85c0,.45,.37,.81,.81,.81h2.85c.45,0,.81-.37,.81-.81v-2.85c0-.45-.37-.81-.81-.81h0Zm.26-3.85h-.29s-.04-.06-.04-.08l.16-.29c.14-.26,.06-.61-.2-.77l-.37-.22c-.12-.08-.26-.1-.41-.06s-.26,.14-.35,.26l-.14,.26h-.08l-.14-.26c-.08-.14-.2-.22-.35-.26-.14-.04-.29-.02-.41,.06l-.37,.22c-.24,.16-.35,.51-.2,.77l.16,.29s-.04,.06-.04,.08h-.29c-.31,0-.55,.26-.55,.57v.45c0,.31,.24,.57,.55,.57h.29s.04,.06,.04,.08l-.16,.29c-.14,.26-.06,.61,.2,.77l.37,.22c.08,.06,.18,.08,.29,.08,.04,0,.1,0,.14-.02,.14-.04,.26-.14,.35-.26l.14-.26h.08l.14,.26c.08,.14,.2,.22,.35,.26s.29,.02,.41-.06l.37-.22c.24-.16,.35-.51,.2-.77l-.16-.29s.04-.06,.04-.08h.29c.31,0,.55-.26,.55-.57v-.45c-.02-.31-.26-.57-.57-.57h0Zm-1.69,1.61c-.45,0-.81-.37-.81-.81s.37-.81,.81-.81,.81,.37,.81,.81-.37,.81-.81,.81Z"/>
</svg>