<svg id="图层_1" data-name="图层 1" xmlns="http://www.w3.org/2000/svg" viewBox="0 0 18 18">
  <defs>
    <style>
      .zxlxqzf666-1 {
        fill: #fff;
      }

      .zxlxqzf666-2 {
        fill: #3b82f6;
      }
    </style>
  </defs>
  <polygon class="zxlxqzf666-1" points="9 14.43 9 14.43 9 14.43 9 14.43" />
  <polygon class="zxlxqzf666-1" points="4.26 6.22 4.26 6.22 4.26 6.22 4.26 6.22" />
  <g id="IconAomMenuGJKColor">
    <rect class="zxlxqzf666-2" width="18" height="18" rx="4" />
  </g>
  <circle class="zxlxqzf666-1" cx="9" cy="6.48" r="2.98" />
  <path class="zxlxqzf666-1"
    d="M11,10.29H7.05A3.12,3.12,0,0,0,3.93,13.4,1.1,1.1,0,0,0,5,14.5H13a1.1,1.1,0,0,0,1.1-1.1A3.12,3.12,0,0,0,11,10.29Zm.35,2.12h-.91A.44.44,0,0,1,10,12a.44.44,0,0,1,.44-.44h.91a.43.43,0,0,1,.44.44A.44.44,0,0,1,11.3,12.41Z" />
</svg>