<svg xmlns="http://www.w3.org/2000/svg" xmlns:xlink="http://www.w3.org/1999/xlink" fill="none" version="1.1" width="24" height="24" viewBox="0 0 24 24"><defs><clipPath id="master_svg0_644_66041"><rect x="0" y="0" width="24" height="24" rx="0"/></clipPath></defs><g clip-path="url(#master_svg0_644_66041)"><g><path d="M14.355804443359375,13.919189453125Q14.355804443359375,14.078759453125,14.348004443359375,14.238129453125Q14.340104443359374,14.397499453125,14.324504443359375,14.556299453125Q14.308904443359374,14.715099453125,14.285404443359376,14.872939453125Q14.262004443359375,15.030779453125,14.230904443359375,15.187279453125Q14.199804443359374,15.343779453125,14.161004443359374,15.498559453125Q14.122204443359376,15.653339453125,14.075904443359375,15.806039453125Q14.029604443359375,15.958729453125,13.975804443359374,16.108969453125Q13.922104443359375,16.259209453125003,13.861004443359375,16.406629453125Q13.800004443359375,16.554049453125,13.731704443359375,16.698299453125Q13.663504443359376,16.842539453125,13.588304443359375,16.983269453125Q13.513104443359374,17.123989453125,13.431004443359376,17.260859453125Q13.349004443359375,17.397719453125,13.260404443359375,17.530389453125Q13.171704443359374,17.663089453125,13.076604443359376,17.791189453125Q12.981604443359375,17.919389453125,12.880404443359375,18.042789453125Q12.779104443359374,18.166089453125,12.672004443359375,18.284289453124998Q12.564804443359375,18.402589453125,12.452004443359375,18.515389453125Q12.339204443359375,18.628189453125,12.220904443359375,18.735389453125002Q12.102704443359375,18.842489453124998,11.979404443359375,18.943789453125Q11.856004443359375,19.044989453124998,11.727804443359375,19.139989453125Q11.599704443359375,19.235089453125,11.467004443359375,19.323789453125002Q11.334334443359374,19.412389453125,11.197474443359376,19.494389453125002Q11.060604443359376,19.576489453125,10.919884443359376,19.651689453125Q10.779154443359374,19.726889453125,10.634914443359374,19.795089453125Q10.490664443359375,19.863389453125002,10.343244443359374,19.924389453125002Q10.195824443359376,19.985489453125,10.045584443359376,20.039189453124997Q9.895344443359376,20.092989453125,9.742654443359376,20.139289453125002Q9.589954443359375,20.185589453125,9.435174443359376,20.224389453125Q9.280394443359375,20.263189453125,9.123894443359376,20.294289453125Q8.967394443359375,20.325389453125,8.809554443359374,20.348789453125Q8.651714443359374,20.372289453125,8.492914443359375,20.387889453125Q8.334114443359375,20.403489453124998,8.174744443359375,20.411389453125Q8.015374443359375,20.419189453125,7.855804443359375,20.419189453125Q7.696234443359375,20.419189453125,7.536864443359375,20.411389453125Q7.377494443359375,20.403489453124998,7.218694443359375,20.387889453125Q7.059894443359375,20.372289453125,6.902054443359375,20.348789453125Q6.744214443359375,20.325389453125,6.587714443359375,20.294289453125Q6.431214443359375,20.263189453125,6.276434443359375,20.224389453125Q6.121644443359375,20.185589453125,5.968954443359375,20.139289453125002Q5.816254443359375,20.092989453125,5.666024443359375,20.039189453124997Q5.515784443359375,19.985489453125,5.368364443359375,19.924389453125002Q5.220944443359375,19.863389453125002,5.076694443359375,19.795089453125Q4.932454443359375,19.726889453125,4.791724443359374,19.651689453125Q4.6510044433593745,19.576489453125,4.514134443359374,19.494389453125002Q4.377274443359375,19.412389453125,4.244594443359375,19.323689453125Q4.111924443359375,19.235089453125,3.983754443359375,19.139989453125Q3.855594443359375,19.044989453124998,3.732244443359375,18.943789453125Q3.608904443359375,18.842489453124998,3.490674443359375,18.735389453125002Q3.372444443359375,18.628189453125,3.259614443359375,18.515389453125Q3.1467844433593752,18.402589453125,3.039624443359375,18.284289453124998Q2.932464443359375,18.166089453125,2.8312344433593752,18.042789453125Q2.730004443359375,17.919389453125,2.634954443359375,17.791189453125Q2.539904443359375,17.663089453125,2.451254443359375,17.530389453125Q2.362604443359375,17.397719453125,2.280568443359375,17.260859453125Q2.198535443359375,17.123989453125,2.123316443359375,16.983269453125Q2.0480974433593753,16.842539453125,1.9798744433593751,16.698299453125Q1.9116504433593748,16.554049453125,1.850587443359375,16.406629453125Q1.789524443359375,16.259209453125003,1.735768443359375,16.108969453125Q1.6820114433593751,15.958729453125,1.6356924433593751,15.806039453125Q1.589372443359375,15.653339453125,1.5506014433593749,15.498559453125Q1.511829443359375,15.343779453125,1.480700443359375,15.187279453125Q1.449570343359375,15.030779453125,1.426157143359375,14.872939453125Q1.402743943359375,14.715099453125,1.387103743359375,14.556299453125Q1.371463543359375,14.397499453125,1.363633973359375,14.238129453125Q1.355804443359375,14.078759453125,1.355804443359375,13.919189453125Q1.355804443359375,13.759619453125,1.363633973359375,13.600249453125Q1.371463543359375,13.440879453125,1.387103743359375,13.282079453125Q1.402743943359375,13.123279453125,1.426157143359375,12.965439453125Q1.449570343359375,12.807599453125,1.480700443359375,12.651099453125Q1.511829443359375,12.494599453125,1.5506014433593749,12.339819453125Q1.589372443359375,12.185029453125,1.6356924433593751,12.032339453125001Q1.6820114433593751,11.879639453125,1.735768443359375,11.729399453125Q1.789524443359375,11.579169453125001,1.850587443359375,11.431749453125Q1.9116504433593748,11.284329453125,1.9798744433593751,11.140079453125Q2.0480974433593753,10.995839453125,2.123316443359375,10.855109453125Q2.198535443359375,10.714389453125,2.280568443359375,10.577519453125Q2.362604443359375,10.440659453125,2.451254443359375,10.307979453125Q2.539904443359375,10.175309453125,2.634954443359375,10.047139453125Q2.730004443359375,9.918979453125,2.8312344433593752,9.795629453125Q2.932464443359375,9.672289453125,3.039624443359375,9.554059453125Q3.1467844433593752,9.435829453125,3.259614443359375,9.322999453125Q3.372444443359375,9.210169453125,3.490674443359375,9.103009453125Q3.608904443359375,8.995849453125,3.732244443359375,8.894619453125Q3.855594443359375,8.793389453125,3.983754443359375,8.698339453125Q4.111924443359375,8.603289453125,4.244594443359375,8.514639453125Q4.377274443359375,8.425989453125,4.514134443359374,8.343953453125Q4.6510044433593745,8.261920453125,4.791724443359374,8.186701453125Q4.932454443359375,8.111482453125,5.076694443359375,8.043259453125Q5.220944443359375,7.975035453125,5.368364443359375,7.913972453125Q5.515784443359375,7.852909453125,5.666024443359375,7.799153453125Q5.816254443359375,7.745396453125,5.968954443359375,7.699077453125Q6.121644443359375,7.652757453125,6.276434443359375,7.613986453125Q6.431214443359375,7.575214453125,6.587714443359375,7.544085453125Q6.744214443359375,7.512955353125,6.902054443359375,7.489542153125Q7.059894443359375,7.466128953125,7.218694443359375,7.450488753125Q7.377494443359375,7.434848553125,7.536864443359375,7.427018983125Q7.696234443359375,7.419189453125,7.855804443359375,7.419189453125Q8.015374443359375,7.419189453125,8.174744443359375,7.427018983125Q8.334114443359375,7.434848553125,8.492914443359375,7.450488753125Q8.651714443359374,7.466128953125,8.809554443359374,7.489542153125Q8.967394443359375,7.512955353125,9.123894443359376,7.544085453125Q9.280394443359375,7.575214453125,9.435174443359376,7.613986453125Q9.589954443359375,7.652757453125,9.742654443359376,7.699077453125Q9.895344443359376,7.745396453125,10.045584443359376,7.799153453125Q10.195824443359376,7.852909453125,10.343244443359374,7.913972453125Q10.490664443359375,7.975035453125,10.634914443359374,8.043259453125Q10.779154443359374,8.111482453125,10.919884443359376,8.186701453125Q11.060604443359376,8.261920453125,11.197474443359376,8.343953453125Q11.334334443359374,8.425989453125,11.467004443359375,8.514639453125Q11.599704443359375,8.603289453125,11.727804443359375,8.698339453125Q11.856004443359375,8.793389453125,11.979404443359375,8.894619453125Q12.102704443359375,8.995849453125,12.220904443359375,9.103009453125Q12.339204443359375,9.210169453125,12.452004443359375,9.322999453125Q12.564804443359375,9.435829453125,12.672004443359375,9.554059453125Q12.779104443359374,9.672289453125,12.880404443359375,9.795629453125Q12.981604443359375,9.918979453125,13.076604443359376,10.047139453125Q13.171704443359374,10.175309453125,13.260404443359375,10.307979453125Q13.349004443359375,10.440659453125,13.431004443359376,10.577519453125Q13.513104443359374,10.714389453125,13.588304443359375,10.855109453125Q13.663504443359376,10.995839453125,13.731704443359375,11.140079453125Q13.800004443359375,11.284329453125,13.861004443359375,11.431749453125Q13.922104443359375,11.579169453125001,13.975804443359374,11.729409453125001Q14.029604443359375,11.879639453125,14.075904443359375,12.032339453125001Q14.122204443359376,12.185029453125,14.161004443359374,12.339819453125Q14.199804443359374,12.494599453125,14.230904443359375,12.651099453125Q14.262004443359375,12.807599453125,14.285404443359376,12.965439453125Q14.308904443359374,13.123279453125,14.324504443359375,13.282079453125Q14.340104443359374,13.440879453125,14.348004443359375,13.600249453125Q14.355804443359375,13.759619453125,14.355804443359375,13.919189453125Z" fill="#3491FA" fill-opacity="1"/></g><g><path d="M11.005799501953124,3.26915171875C11.289099501953125,2.19962171875,12.386939501953126,1.56332371875,13.455789501953124,1.84915201875L21.155839501953125,3.91915171875C22.225339501953123,4.20245171875,22.861639501953125,5.30029171875,22.575839501953126,6.36915171875L20.505839501953126,14.06916171875C20.218039501953125,15.13466171875,19.121639501953126,15.76566171875,18.055789501953125,15.47916171875L10.355799501953125,13.41916171875C9.290312501953125,13.13136171875,8.659302501953125,12.03496171875,8.945795101953125,10.96915171875L11.005799501953124,3.26915171875Z" fill="#FADC19" fill-opacity="1"/><path d="M7.9800745019531245,10.70957171875Q7.202229501953125,13.60336171875,10.097349501953126,14.38516171875L17.796209501953125,16.444861718749998Q20.689939501953127,17.22276171875,21.471539501953124,14.32876171875L23.541839501953127,6.62749171875Q23.863439501953124,5.42502171875,23.239239501953126,4.348111718749999Q22.615039501953127,3.27120171875,21.415439501953124,2.9534417187499997L13.714129501953124,0.88309771875Q12.511669501953126,0.56154171875,11.434759501953124,1.18570771875Q10.358919501953125,1.80925621875,10.039769501953124,3.01071171875L10.039509501953125,3.0116817187500002L10.039129501953125,3.01309171875L7.9800745019531245,10.70957171875ZM13.455789501953124,1.84915201875C12.386939501953126,1.56332371875,11.289099501953125,2.19962171875,11.005799501953124,3.26915171875L8.945795101953125,10.96915171875C8.659302501953125,12.03496171875,9.290312501953125,13.13136171875,10.355799501953125,13.41916171875L18.055789501953125,15.47916171875C19.121639501953126,15.76566171875,20.218039501953125,15.13466171875,20.505839501953126,14.06916171875L22.575839501953126,6.36915171875C22.861639501953125,5.30029171875,22.225339501953123,4.20245171875,21.155839501953125,3.91915171875L13.455789501953124,1.84915201875Z" fill-rule="evenodd" fill="#FFFFFF" fill-opacity="1"/></g><g><path d="M14.245817158203124,10.719176265625C14.631167158203125,10.054871265625,15.590467158203126,10.054871265625,15.975817158203125,10.719176265625L21.745837158203123,20.719147265625C21.924837158203125,21.029147265625,21.924437158203126,21.411247265625,21.744837158203126,21.720947265625C21.565237158203125,22.030547265625,21.233837158203123,22.220647265625,20.875837158203126,22.219147265625L9.355817158203125,22.219147265625C8.997841158203125,22.220647265625,8.666410158203124,22.030547265625,8.486806158203125,21.720947265625C8.307201858203126,21.411247265625,8.306824158203124,21.029147265625,8.485816158203125,20.719147265625L14.255817158203126,10.719175265625L14.245817158203124,10.719176265625Z" fill="#F53F3F" fill-opacity="1"/><path d="M13.380817158203126,10.217408755625Q13.347147158203125,10.275455165625,13.321527158203125,10.337480265625L12.524197158203126,11.719337265625L7.619795158203125,20.219167265625Q7.0411071582031255,21.221447265625002,7.621775158203125,22.222647265625Q8.202446158203125,23.223747265625,9.355817158203125,23.219147265625L20.871837158203125,23.219147265625Q22.029237158203124,23.223747265625,22.609837158203124,22.222647265625Q23.190537158203124,21.221447265625002,22.611937158203126,20.219407265625L16.840817158203123,10.217405135625Q16.262787158203125,9.220948265625,15.110817158203126,9.220947265625Q13.958847158203124,9.220948265625,13.380817158203126,10.217405135625L13.380817158203126,10.217408755625ZM13.753567158203126,11.589627265625L14.253307158203125,10.723522265625L14.255817158203126,10.719175265625L14.245817158203124,10.719176265625C14.246657158203124,10.717734265625,14.247497158203124,10.716294265625,14.248337158203125,10.714858265625C14.443737158203124,10.381621265625,14.784187158203125,10.217008045625,15.122907158203125,10.221019307925C15.295087158203124,10.223058445625,15.466817158203124,10.268673765625,15.618817158203125,10.357865265625C15.759997158203124,10.440708265625,15.884147158203124,10.561145265625001,15.975817158203125,10.719176265625L21.745837158203123,20.719147265625C21.924837158203125,21.029147265625,21.924437158203126,21.411247265625,21.744837158203126,21.720947265625C21.565237158203125,22.030547265625,21.233837158203123,22.220647265625,20.875837158203126,22.219147265625L9.355817158203125,22.219147265625C8.997841158203125,22.220647265625,8.666410158203124,22.030547265625,8.486806158203125,21.720947265625C8.307201858203126,21.411247265625,8.306824158203124,21.029147265625,8.485816158203125,20.719147265625L13.678787158203125,11.719227265625L13.753567158203126,11.589627265625Z" fill-rule="evenodd" fill="#FFFFFF" fill-opacity="1"/></g><g><path d="M15.417362556640626,20.98018171875L15.228029556640625,20.900181718749998Q14.948094556640624,20.78190171875,14.644195556640625,20.78190171875Q14.570505256640624,20.78190171875,14.497169556640625,20.78912171875Q14.423834556640625,20.79634171875,14.351560556640624,20.81072171875Q14.279285556640625,20.82510171875,14.208768556640624,20.846491718750002Q14.138251556640625,20.86788171875,14.070170556640624,20.89608171875Q14.002089556640625,20.92428171875,13.937100556640624,20.95902171875Q13.872111556640625,20.993751718749998,13.810840556640626,21.03469171875Q13.749568556640625,21.07563171875,13.692605556640626,21.12238171875Q13.635645556640625,21.169131718750002,13.583535556640625,21.22124171875Q13.531425556640626,21.27335171875,13.484675556640624,21.33031171875Q13.437935556640625,21.38727171875,13.396995556640626,21.44854171875Q13.356055556640625,21.50981171875,13.321315556640625,21.57480171875Q13.286575556640624,21.63979171875,13.258375556640624,21.70787171875Q13.230175556640624,21.77595171875,13.208785556640624,21.84647171875Q13.187395556640626,21.91699171875,13.173015556640625,21.98926171875Q13.158645556640625,22.06154171875,13.151415556640625,22.13487171875Q13.144195556640625,22.20821171875,13.144195556640625,22.28190171875Q13.144195556640625,22.39188171875,13.160235556640625,22.500681718750002Q13.176275556640626,22.60948171875,13.208015556640625,22.71478171875Q13.239755556640626,22.82008171875,13.286515556640625,22.91962171875Q13.333265556640626,23.019171718750002,13.394045556640625,23.11083171875Q13.454825556640625,23.20249171875,13.528315556640624,23.28430171875Q13.601815556640625,23.36612171875,13.686454556640625,23.43634171875Q13.771097556640624,23.50656171875,13.865076556640625,23.56368171875Q13.959055556640624,23.620811718749998,14.060361556640625,23.663611718749998L14.061760556640625,23.66420171875L14.249694556640625,23.74361171875Q16.535485556640626,24.712851718750002,17.914275556640625,22.64583171875L18.191115556640625,22.23051171875L18.289245556640626,22.52489171875Q18.621095556640626,23.51688171875,19.604275556640623,23.87399171875Q20.587445556640624,24.23110171875,21.479085556640626,23.68303171875L22.763525556640623,22.89281171875Q22.927185556640623,22.79212171875,23.060185556640626,22.65343171875Q23.193175556640625,22.51474171875,23.286915556640626,22.34701171875Q23.380655556640626,22.17928171875,23.429095556640625,21.99333171875Q23.477525556640625,21.80738171875,23.477525556640625,21.61523171875Q23.477525556640625,21.54154171875,23.470305556640625,21.46821171875Q23.463085556640625,21.39487171875,23.448705556640626,21.32260171875Q23.434335556640626,21.25032171875,23.412935556640626,21.17980171875Q23.391545556640626,21.10929171875,23.363345556640624,21.04121171875Q23.335145556640626,20.97312171875,23.300415556640623,20.90814171875Q23.265675556640623,20.84315171875,23.224735556640624,20.78188171875Q23.183795556640625,20.72060171875,23.137045556640626,20.66364171875Q23.090295556640626,20.60668171875,23.038185556640627,20.55457171875Q22.986085556640624,20.50246171875,22.929115556640625,20.45572171875Q22.872155556640624,20.40897171875,22.810885556640624,20.36803171875Q22.749615556640627,20.32709171875,22.684625556640626,20.292351718749998Q22.619635556640624,20.25761171875,22.551555556640626,20.22941171875Q22.483475556640624,20.20121171875,22.412955556640625,20.17982171875Q22.342435556640623,20.158431718750002,22.270165556640624,20.14405171875Q22.197895556640624,20.12968171875,22.124555556640626,20.12246171875Q22.051215556640624,20.11523171875,21.977525556640625,20.11523171875Q21.769385556640625,20.11523171875,21.569095556640626,20.17191171875Q21.368815556640627,20.22858171875,21.191535556640623,20.33765171875L21.190925556640625,20.33802171875L20.802265556640627,20.57714171875L20.299195556640626,19.06792171875L21.870105556640624,16.71120171875L21.870435556640626,16.71136171875L22.060365556640626,16.79162171875Q22.340295556640626,16.90990171875,22.644195556640625,16.90990171875Q22.717885556640624,16.90990171875,22.791225556640626,16.90268171875Q22.864555556640624,16.89545171875,22.936825556640628,16.88108171875Q23.009105556640627,16.86670171875,23.079625556640625,16.84531171875Q23.150135556640627,16.82392171875,23.218215556640626,16.79572171875Q23.286305556640627,16.76752171875,23.351285556640626,16.73278171875Q23.416275556640628,16.69804171875,23.477545556640624,16.65710171875Q23.538825556640624,16.61616171875,23.595785556640624,16.56941171875Q23.652745556640625,16.52267171875,23.704855556640624,16.470561718749998Q23.756965556640623,16.41845171875,23.803715556640626,16.36149171875Q23.850455556640625,16.30452171875,23.891395556640624,16.24325171875Q23.932335556640624,16.18198371875,23.967075556640623,16.11699471875Q24.001815556640626,16.05200571875,24.030015556640627,15.98392471875Q24.058215556640626,15.91584371875,24.079605556640622,15.84532671875Q24.100995556640626,15.77480971875,24.115375556640625,15.70253571875Q24.129745556640625,15.63026071875,24.136975556640625,15.55692571875Q24.144195556640625,15.48358971875,24.144195556640625,15.40989971875Q24.144195556640625,15.29992071875,24.128155556640625,15.19111813875Q24.112115556640624,15.08231571875,24.080375556640625,14.97701571875Q24.048635556640626,14.87171571875,24.001875556640627,14.77217171875Q23.955125556640624,14.67262771875,23.894345556640623,14.58096771875Q23.833565556640625,14.48930771875,23.760075556640626,14.40749271875Q23.686575556640626,14.32567671875,23.601935556640626,14.25545671875Q23.517285556640623,14.18523171875,23.423305556640624,14.12811171875Q23.329325556640626,14.07099171875,23.228025556640624,14.02818171875L23.226685556640625,14.02761171875L23.039295556640624,13.94844171875Q20.752055556640624,12.980811718750001,19.373845556640624,15.04726971875L19.097275556640625,15.46217571875L18.999665556640625,15.16933551875Q18.669475556640627,14.17612171875,17.684755556640624,13.81788171875Q16.700045556640625,13.45964171875,15.807825556640624,14.00913171875L14.524180556640625,14.80029771875L14.523828556640625,14.80051471875Q14.360382556640625,14.90125271875,14.227579556640626,15.03991171875Q14.094775556640625,15.17856934875,14.001177556640625,15.34620671875Q13.907578556640624,15.51384371875,13.859220556640626,15.69965071875Q13.810862556640625,15.88545771875,13.810862556640625,16.07745471875Q13.810862556640625,16.15114571875,13.818085556640625,16.22448171875Q13.825308556640625,16.29781171875,13.839684556640625,16.37009171875Q13.854060556640626,16.44236171875,13.875451556640625,16.512881718750002Q13.896842556640625,16.58340171875,13.925043556640626,16.65148171875Q13.953243556640626,16.71956171875,13.987980556640625,16.78455171875Q14.022717556640625,16.84954171875,14.063657556640624,16.91081171875Q14.104597556640625,16.97208171875,14.151346556640625,17.02904171875Q14.198095556640626,17.08601171875,14.250202556640625,17.13811171875Q14.302308556640625,17.19022171875,14.359272556640626,17.23697171875Q14.416235556640626,17.28372171875,14.477506556640625,17.32466171875Q14.538778556640626,17.36560171875,14.603767256640625,17.40034171875Q14.668756256640625,17.43507171875,14.736837156640625,17.46327171875Q14.804918556640626,17.49147171875,14.875435556640625,17.51286171875Q14.945952556640625,17.53425171875,15.018226556640625,17.54863171875Q15.090501556640625,17.56301171875,15.163836556640625,17.57023171875Q15.237172556640624,17.577451718749998,15.310862556640625,17.577451718749998Q15.519320556640626,17.577451718749998,15.719875556640625,17.52061171875Q15.920435556640625,17.46377171875,16.097895556640626,17.35439171875L16.486005556640624,17.11519171875L16.989195556640624,18.62477171875L15.418557556640625,20.981081718749998L15.418580556640626,20.98102171875L15.417362556640626,20.98018171875Z" fill-rule="evenodd" fill="#FFFFFF" fill-opacity="1"/></g><g><path d="M14.839118556640624,21.82146171875L14.838806556640625,21.82133171875Q14.745495556640625,21.78190171875,14.644195556640625,21.78190171875Q14.594949856640625,21.78190171875,14.546650456640625,21.79151171875Q14.498350556640625,21.80111171875,14.452853556640624,21.81996171875Q14.407356556640625,21.83880171875,14.366410556640625,21.86616171875Q14.325464556640625,21.89352171875,14.290642556640625,21.928341718749998Q14.255820556640625,21.96317171875,14.228460556640625,22.00411171875Q14.201101556640625,22.04506171875,14.182255556640625,22.09056171875Q14.163410556640624,22.13605171875,14.153802556640626,22.18435171875Q14.144195556640625,22.23265171875,14.144195556640625,22.28190171875Q14.144195556640625,22.355611718749998,14.165468556640626,22.42619171875Q14.186742556640626,22.49677171875,14.227478556640625,22.55821171875Q14.268215556640625,22.61964171875,14.324948556640624,22.66671171875Q14.381681556640626,22.71378171875,14.449584556640625,22.74247171875L14.449895556640625,22.74260171875L14.638917526640626,22.822471718750002Q16.163245556640625,23.46883171875,17.082375556640624,22.09091171875L18.493165556640626,19.974401718750002L19.237585556640624,22.20764171875Q19.416275556640624,22.74178171875,19.945675556640623,22.93408171875Q20.475075556640626,23.12637171875,20.955085556640626,22.83131171875L22.239165556640625,22.041311718750002L22.239525556640626,22.04109171875Q22.294085556640624,22.007531718750002,22.338415556640626,21.96130171875Q22.382745556640625,21.91507171875,22.413995556640625,21.859161718750002Q22.445235556640625,21.80325171875,22.461385556640625,21.74127171875Q22.477525556640625,21.67928171875,22.477525556640625,21.61523171875Q22.477525556640625,21.56599171875,22.467925556640626,21.51769171875Q22.458315556640624,21.46939171875,22.439465556640627,21.42389171875Q22.420625556640626,21.37839171875,22.393265556640625,21.33745171875Q22.365905556640627,21.29650171875,22.331085556640623,21.26168171875Q22.296255556640624,21.22686171875,22.255315556640625,21.19950171875Q22.214365556640626,21.172141718749998,22.168865556640625,21.15329171875Q22.123375556640624,21.13445171875,22.075075556640627,21.124841718749998Q22.026775556640626,21.11523171875,21.977525556640625,21.11523171875Q21.836035556640624,21.11523171875,21.715525556640625,21.18937171875L20.431085556640625,21.97960171875Q20.362705556640627,22.02163171875,20.287075556640623,21.99416171875Q20.211445556640626,21.96669171875,20.185925556640626,21.89038171875L19.195865556640626,18.92020171875L21.038015556640623,16.15655471875Q21.497415556640625,15.46775171875,22.260055556640623,15.79038771875L22.449585556640624,15.87047271875Q22.542895556640623,15.90989971875,22.644195556640625,15.90989971875Q22.693435556640623,15.90989971875,22.741735556640627,15.90029271875Q22.790035556640625,15.89068471875,22.835535556640625,15.87183971875Q22.881035556640626,15.85299371875,22.921975556640625,15.82563471875Q22.962925556640627,15.79827471875,22.997745556640623,15.763452718749999Q23.032565556640627,15.72863071875,23.059925556640625,15.68768471875Q23.087285556640623,15.64673871875,23.106135556640623,15.60124171875Q23.124975556640624,15.55574471875,23.134585556640623,15.50744471875Q23.144195556640625,15.45914571875,23.144195556640625,15.40989971875Q23.144195556640625,15.33618471875,23.122925556640624,15.26560501875Q23.101645556640626,15.19502577875,23.060915556640623,15.13358881875Q23.020175556640623,15.07215171875,22.963445556640625,15.02508471875Q22.906705556640624,14.97801871875,22.838805556640626,14.94932671875L22.838175556640625,14.94906371875L22.649675556640624,14.86941171875Q21.124735556640626,14.22428271875,20.205925556640626,15.60191171875L18.795225556640624,17.71829171875L18.050985556640626,15.48556371875Q17.873105556640624,14.95052371875,17.342875556640625,14.75762471875Q16.812645556640625,14.56472671875,16.332215556640627,14.86060671875L15.048671556640626,15.65171371875L15.048517556640626,15.65180771875Q14.994035556640625,15.68538771875,14.949767556640625,15.73160671875Q14.905500556640625,15.77782671875,14.874300556640625,15.83370571875Q14.843101556640624,15.88958471875,14.826981556640625,15.95152071875Q14.810862556640625,16.01345571875,14.810862556640625,16.07745471875Q14.810862556640625,16.12670071875,14.820469556640624,16.17499971875Q14.830077556640624,16.22330171875,14.848922556640625,16.26879171875Q14.867768556640625,16.31429171875,14.895127556640626,16.35524171875Q14.922486556640624,16.39618171875,14.957308556640625,16.43101171875Q14.992130556640625,16.46583171875,15.033077556640626,16.49319171875Q15.074023556640626,16.52055171875,15.119520556640625,16.53939171875Q15.165017556640626,16.55824171875,15.213317556640625,16.56785171875Q15.261616556640625,16.577451718749998,15.310862556640625,16.577451718749998Q15.452571556640624,16.577451718749998,15.573206556640624,16.50310171875L16.856615556640627,15.71208071875Q16.925245556640625,15.66981171875,17.000995556640625,15.697368718749999Q17.076745556640624,15.72492571875,17.102295556640627,15.80179071875L18.092525556640624,18.77248171875L16.250465556640624,21.53600171875Q15.791005556640625,22.22480171875,15.028139556640625,21.90133171875L14.839118556640624,21.82146171875Z" fill-rule="evenodd" fill="#D25F00" fill-opacity="1"/></g></g></svg>