<svg id="_1" data-name="1" xmlns="http://www.w3.org/2000/svg" viewBox="0 0 24 24">
  <path
    d="M7.53,0A.84.84,0,0,0,6.7.84V6.7H.84a.84.84,0,1,0,0,1.67H6.9A1.47,1.47,0,0,0,8.37,6.9V.84A.84.84,0,0,0,7.53,0ZM17.1,8.37h6.06a.84.84,0,1,0,0-1.67H17.3V.84a.84.84,0,1,0-1.67,0V6.9A1.47,1.47,0,0,0,17.1,8.37Zm6.06,7.26H17.1a1.47,1.47,0,0,0-1.47,1.47v6.06a.84.84,0,1,0,1.67,0V17.3h5.86a.84.84,0,1,0,0-1.67Zm-16.26,0H.84a.84.84,0,1,0,0,1.67H6.7v5.86a.84.84,0,1,0,1.67,0V17.1A1.47,1.47,0,0,0,6.9,15.63Z" />
</svg>