<svg id="图层_1" data-name="图层 1" xmlns="http://www.w3.org/2000/svg" viewBox="0 0 18 18">
  <defs>
    <style>
      .zyyuhbiuqw7-1 {
        fill: #3b82f6;
      }

      .zyyuhbiuqw7-2 {
        fill: #fff;
      }
    </style>
  </defs>
  <g id="IconAomMenuCSGLColor">
    <rect class="zyyuhbiuqw7-1" width="18" height="18" rx="4" />
  </g>
  <path class="zyyuhbiuqw7-2"
    d="M11.28,8.81a2.6,2.6,0,1,0,2.6,2.59A2.59,2.59,0,0,0,11.28,8.81ZM12.6,12H11.28a.4.4,0,0,1-.4-.4V10.34a.4.4,0,0,1,.8,0v.89h.92a.4.4,0,1,1,0,.8Z" />
  <path class="zyyuhbiuqw7-2"
    d="M12.11,4h-7a1,1,0,0,0-1,1v8a1,1,0,0,0,1,1h4a3.39,3.39,0,0,1,2.19-6,3.44,3.44,0,0,1,1.83.53V5A1,1,0,0,0,12.11,4ZM7.26,8.81H5.91a.4.4,0,0,1,0-.8H7.26a.4.4,0,1,1,0,.8ZM9.5,6.87H5.91a.4.4,0,1,1,0-.8H9.5a.4.4,0,1,1,0,.8Z" />
</svg>