<svg xmlns="http://www.w3.org/2000/svg" xmlns:xlink="http://www.w3.org/1999/xlink" fill="none" version="1.1" width="24" height="24" viewBox="0 0 24 24"><defs><clipPath id="master_svg0_732_53136"><rect x="0" y="0" width="24" height="24" rx="0"/></clipPath></defs><g clip-path="url(#master_svg0_732_53136)"><g><path d="M11.000038447265625,6.999755859375Q11.000038447265625,6.901264459375,11.019248447265625,6.804665859375Q11.038468447265625,6.708066859375,11.076158447265625,6.617072859375Q11.113848447265624,6.526077859375,11.168568447265624,6.444185859375Q11.223288447265624,6.362292859375,11.292928447265625,6.292648859375Q11.362568447265625,6.223004859375,11.444468447265624,6.168285859375Q11.526358447265626,6.113567859375,11.617348447265625,6.075876859375Q11.708348447265625,6.038185859375,11.804948447265625,6.018970859375Q11.901538447265626,5.999755859375,12.000038447265625,5.999755859375Q12.098528447265625,5.999755859375,12.195128447265624,6.018970859375Q12.291728447265626,6.038185859375,12.382718447265624,6.075876859375Q12.473708447265626,6.113567859375,12.555608447265625,6.168285859375Q12.637498447265624,6.223004859375,12.707138447265624,6.292648859375Q12.776788447265625,6.362292859375,12.831508447265625,6.444185859375Q12.886218447265625,6.526077859375,12.923918447265624,6.617072859375Q12.961608447265625,6.708066859375,12.980818447265625,6.804665859375Q13.000038447265625,6.901264459375,13.000038447265625,6.999755859375L13.000038447265625,10.999805859375L15.333408447265626,10.999805859375Q16.437978447265625,10.999805859375,17.219008447265622,11.780855859375Q18.000108447265625,12.561915859375,18.000108447265625,13.666485859375001L18.000108447265625,16.999855859375Q18.000108447265625,17.098355859374998,17.980908447265627,17.194955859375Q17.961608447265625,17.291555859375002,17.924008447265624,17.382555859375Q17.886308447265627,17.473555859375,17.831508447265627,17.555455859375Q17.776808447265623,17.637355859375,17.707208447265625,17.706955859375Q17.637508447265624,17.776555859375,17.555608447265627,17.831355859375Q17.473808447265625,17.886055859375,17.382808447265624,17.923755859375Q17.291808447265623,17.961455859375,17.195208447265625,17.980655859375Q17.098608447265626,17.999855859375,17.000108447265625,17.999855859375Q16.901588447265624,17.999855859375,16.804998447265625,17.980655859375Q16.708398447265623,17.961455859375,16.617398447265625,17.923755859375Q16.526408447265624,17.886055859375,16.444508447265626,17.831355859375Q16.362618447265625,17.776555859375,16.292978447265625,17.706955859375Q16.223328447265626,17.637355859375,16.168608447265626,17.555455859375Q16.113898447265626,17.473555859375,16.076208447265625,17.382555859375Q16.038508447265627,17.291555859375002,16.019298447265626,17.194955859375Q16.000088447265625,17.098355859374998,16.000088447265625,16.999855859375L16.000088447265625,13.666485859375001Q16.000088447265625,13.390335859375,15.804818447265625,13.195075859374999Q15.609548447265626,12.999805859375,15.333408447265626,12.999805859375L8.666588447265624,12.999805859375Q7.999908447265625,12.999805859375,7.999908447265625,13.666485859375001L7.999908447265625,16.999855859375Q7.999908447265625,17.098355859374998,7.980693447265625,17.194955859375Q7.961478447265625,17.291555859375002,7.923787447265625,17.382555859375Q7.886096447265625,17.473555859375,7.831378447265625,17.555455859375Q7.776659447265625,17.637355859375,7.707015447265625,17.706955859375Q7.637371447265625,17.776555859375,7.555478447265625,17.831355859375Q7.473586447265625,17.886055859375,7.382591447265625,17.923755859375Q7.291597447265625,17.961455859375,7.194998447265625,17.980655859375Q7.098399847265625,17.999855859375,6.999908447265625,17.999855859375Q6.901417047265625,17.999855859375,6.804818447265625,17.980655859375Q6.708219447265625,17.961455859375,6.617225447265625,17.923755859375Q6.526230447265625,17.886055859375,6.444338447265625,17.831355859375Q6.362445447265625,17.776555859375,6.292801447265625,17.706955859375Q6.223157447265625,17.637355859375,6.168438447265625,17.555455859375Q6.113720447265625,17.473555859375,6.076029447265625,17.382555859375Q6.038338447265625,17.291555859375002,6.019123447265625,17.194955859375Q5.999908447265625,17.098355859374998,5.999908447265625,16.999855859375L5.999908447265625,13.666485859375001Q5.999908447265625,12.561915859375,6.780962447265625,11.780855859375Q7.562015447265625,10.999805859375,8.666588447265624,10.999805859375L11.000038447265625,10.999805859375L11.000038447265625,6.999755859375Z" fill-rule="evenodd" fill="#7BC0FC" fill-opacity="1"/></g><g><rect x="13.666717529296875" y="15.333251953125" width="6.6667327880859375" height="6.6667327880859375" rx="1.6666831970214844" fill="#165DFF" fill-opacity="1"/></g><g><rect x="3.66656494140625" y="15.333251953125" width="6.6667327880859375" height="6.6667327880859375" rx="1.6666831970214844" fill="#165DFF" fill-opacity="1"/></g><g><rect x="8.66668701171875" y="2" width="6.6667327880859375" height="6.6667327880859375" rx="1.6666831970214844" fill="#165DFF" fill-opacity="1"/></g><g><g><path d="M17.922210751953124,18.75125125Q17.922210751953124,18.87624125,17.909960751953125,19.00063125Q17.897710751953124,19.12502125,17.873330751953127,19.24760125Q17.848940751953126,19.37019125,17.812660751953125,19.48980125Q17.776380751953127,19.60941125,17.728540751953126,19.72488125Q17.680710751953125,19.84036125,17.621790751953124,19.95059125Q17.562870751953124,20.06082125,17.493430751953124,20.16474125Q17.423990751953127,20.26867125,17.344700751953127,20.36529125Q17.265410751953127,20.46191125,17.177030751953126,20.55029125Q17.088650751953125,20.63867125,16.992030751953124,20.717961250000002Q16.895410751953126,20.797251250000002,16.791480751953124,20.86669125Q16.687560751953125,20.93613125,16.577330751953124,20.99505125Q16.467100751953126,21.05397125,16.351620751953124,21.10180125Q16.236150751953126,21.149641250000002,16.116540751953124,21.18592125Q15.996930751953125,21.22220125,15.874340751953126,21.24659125Q15.751760751953125,21.27097125,15.627370751953125,21.28322125Q15.502980751953125,21.29547125,15.377990751953124,21.29547125Q15.253000751953126,21.29547125,15.128610751953126,21.28322125Q15.004230751953125,21.27097125,14.881640751953125,21.24659125Q14.759050751953126,21.22220125,14.639440751953124,21.18592125Q14.519840751953126,21.149641250000002,14.404360751953124,21.10180125Q14.288880751953124,21.05397125,14.178650751953125,20.99505125Q14.068420751953125,20.93613125,13.964500751953125,20.86669125Q13.860570751953125,20.797251250000002,13.763954751953126,20.717961250000002Q13.667336751953124,20.63867125,13.578955751953124,20.55029125Q13.490574751953124,20.46191125,13.411282751953125,20.36529125Q13.331989751953126,20.26867125,13.262549751953125,20.16474125Q13.193108751953124,20.06082125,13.134188751953126,19.95059125Q13.075269751953124,19.84036125,13.027437751953125,19.72488125Q12.979606751953124,19.60941125,12.943323751953125,19.48980125Q12.907041451953125,19.37019125,12.882657251953125,19.24760125Q12.858272951953126,19.12502125,12.846021851953125,19.00063125Q12.833770751953125,18.87624125,12.833770751953125,18.75125125Q12.833770751953125,18.62626125,12.846021851953125,18.50187125Q12.858272951953126,18.37749125,12.882657251953125,18.25490125Q12.907041451953125,18.13231125,12.943323751953125,18.01270125Q12.979606751953124,17.89309125,13.027437751953125,17.77762125Q13.075269751953124,17.66214125,13.134188751953126,17.55191125Q13.193108751953124,17.44168125,13.262549751953125,17.33776125Q13.331989751953126,17.23383125,13.411282751953125,17.13721525Q13.490574751953124,17.04059725,13.578955751953124,16.95221625Q13.667336751953124,16.86383525,13.763954751953126,16.78454325Q13.860570751953125,16.70525025,13.964500751953125,16.63581025Q14.068420751953125,16.56636925,14.178650751953125,16.50744925Q14.288880751953124,16.44853025,14.404360751953124,16.40069825Q14.519840751953126,16.35286725,14.639440751953124,16.31658425Q14.759050751953126,16.28030195,14.881640751953125,16.25591775Q15.004230751953125,16.23153345,15.128610751953126,16.21928235Q15.253000751953126,16.20703125,15.377990751953124,16.20703125Q15.502980751953125,16.20703125,15.627370751953125,16.21928235Q15.751760751953125,16.23153345,15.874340751953126,16.25591775Q15.996930751953125,16.28030195,16.116540751953124,16.31658425Q16.236150751953126,16.35286725,16.351620751953124,16.40069825Q16.467100751953126,16.44853025,16.577330751953124,16.50744925Q16.687560751953125,16.56636925,16.791480751953124,16.63580925Q16.895410751953126,16.70525025,16.992030751953124,16.78454325Q17.088650751953125,16.86383525,17.177030751953126,16.95221625Q17.265410751953127,17.04059725,17.344700751953127,17.13721525Q17.423990751953127,17.23383125,17.493430751953124,17.33776125Q17.562870751953124,17.44168125,17.621790751953124,17.55191125Q17.680710751953125,17.66214125,17.728540751953126,17.77762125Q17.776380751953127,17.89309125,17.812660751953125,18.01270125Q17.848940751953126,18.13231125,17.873330751953127,18.25490125Q17.897710751953124,18.37749125,17.909960751953125,18.50187125Q17.922210751953124,18.62626125,17.922210751953124,18.75125125Z" fill="#3491FA" fill-opacity="1"/><path d="M15.377990751953124,22.29547125Q15.727070751953125,22.29547125,16.069430751953124,22.22737125Q16.411800751953123,22.15927125,16.734310751953124,22.025681249999998Q17.056810751953126,21.89210125,17.347050751953127,21.69816125Q17.637300751953127,21.50423125,17.884130751953126,21.25739125Q18.130530751953124,21.01100125,18.324220751953124,20.72133125Q18.517920751953124,20.43167125,18.651490751953126,20.10983125Q18.785060751953125,19.78799125,18.853390751953125,19.44630125Q18.921730751953124,19.10460125,18.922210751953124,18.75615125L18.922210751953124,18.75125125L18.922210751953124,18.74635125Q18.921730751953124,18.39790125,18.853390751953125,18.05621125Q18.785060751953125,17.71452125,18.651490751953126,17.39267125Q18.517920751953124,17.070835250000002,18.324220751953124,16.78117125Q18.130530751953124,16.49150625,17.884130751953126,16.24510945Q17.637300751953127,15.99827625,17.347050751953127,15.80434025Q17.056810751953126,15.61040425,16.734310751953124,15.47681925Q16.411800751953123,15.34323325,16.069430751953124,15.27513225Q15.727070751953125,15.20703125,15.377990751953124,15.20703125L15.373090751953125,15.20703425Q15.199190751953125,15.20727525,15.026140751953125,15.22453925Q14.853100751953125,15.24180325,14.682570751953126,15.27592625Q14.512050751953126,15.31004825,14.345680751953125,15.36070025Q14.179320751953124,15.41135325,14.018710751953126,15.47804925Q13.858100751953124,15.54474625,13.704796751953126,15.62684525Q13.551489751953126,15.70894425,13.406957751953126,15.80565825Q13.262424751953125,15.90237125,13.128054751953124,16.01276925Q12.993684751953126,16.12316805,12.870768351953124,16.24619075Q12.747851651953125,16.36921325,12.637569751953125,16.50367825Q12.527286751953126,16.63814425,12.430697751953126,16.78275925Q12.334109751953125,16.92737525,12.252142751953125,17.08075225Q12.170175751953124,17.23413125,12.103617751953125,17.39479125Q12.037059751953125,17.55546125,11.986550751953125,17.72187125Q11.936041751953125,17.88828125,11.902066751953125,18.05883125Q11.868091751953125,18.22938125,11.850976751953125,18.40245125Q11.833861751953124,18.575511249999998,11.833770751953125,18.74941125L11.833770751953125,18.75125125L11.833773751953125,18.75615125Q11.834254751953125,19.10388125,11.902309751953124,19.44489125Q11.970363751953125,19.785901250000002,12.103397751953125,20.10718125Q12.236431751953125,20.428461249999998,12.429370751953124,20.71776125Q12.622310751953124,21.00705125,12.867797051953126,21.25334125Q12.869821251953125,21.25537125,12.871849351953125,21.25739125Q12.873877451953126,21.25942125,12.875907451953125,21.26145125Q13.122627751953125,21.50737125,13.412505751953125,21.70055125Q13.702383751953125,21.893731250000002,14.024330751953125,22.02678125Q14.346270751953124,22.15983125,14.687950751953124,22.22765125Q15.029640751953124,22.29547125,15.377990751953124,22.29547125ZM15.377990751953124,21.29547125Q15.253000751953126,21.29547125,15.128610751953126,21.28322125Q15.004230751953125,21.27097125,14.881640751953125,21.24659125Q14.759050751953126,21.22220125,14.639440751953124,21.18592125Q14.519840751953126,21.149641250000002,14.404360751953124,21.10180125Q14.288880751953124,21.05397125,14.178650751953125,20.99505125Q14.068420751953125,20.93613125,13.964500751953125,20.86669125Q13.860570751953125,20.797251250000002,13.763954751953126,20.717961250000002Q13.667336751953124,20.63867125,13.578955751953124,20.55029125Q13.490574751953124,20.46191125,13.411282751953125,20.36529125Q13.331989751953126,20.26867125,13.262549751953125,20.16474125Q13.193108751953124,20.06082125,13.134188751953126,19.95059125Q13.075269751953124,19.84036125,13.027437751953125,19.72488125Q12.979606751953124,19.60941125,12.943323751953125,19.48980125Q12.907041451953125,19.37019125,12.882657251953125,19.24760125Q12.858272951953126,19.12502125,12.846021851953125,19.00063125Q12.833770751953125,18.87624125,12.833770751953125,18.75125125Q12.833770751953125,18.62626125,12.846021851953125,18.50187125Q12.858272951953126,18.37749125,12.882657251953125,18.25490125Q12.907041451953125,18.13231125,12.943323751953125,18.01270125Q12.979606751953124,17.89309125,13.027437751953125,17.77762125Q13.075269751953124,17.66214125,13.134188751953126,17.55191125Q13.193108751953124,17.44168125,13.262549751953125,17.33776125Q13.331989751953126,17.23383125,13.411282751953125,17.13721525Q13.490574751953124,17.04059725,13.578955751953124,16.95221625Q13.667336751953124,16.86383525,13.763954751953126,16.78454325Q13.860570751953125,16.70525025,13.964500751953125,16.63581025Q14.068420751953125,16.56636925,14.178650751953125,16.50744925Q14.288880751953124,16.44853025,14.404360751953124,16.40069825Q14.519840751953126,16.35286725,14.639440751953124,16.31658425Q14.759050751953126,16.28030195,14.881640751953125,16.25591775Q15.004230751953125,16.23153345,15.128610751953126,16.21928235Q15.253000751953126,16.20703125,15.377990751953124,16.20703125Q15.502980751953125,16.20703125,15.627370751953125,16.21928235Q15.751760751953125,16.23153345,15.874340751953126,16.25591775Q15.996930751953125,16.28030195,16.116540751953124,16.31658425Q16.236150751953126,16.35286725,16.351620751953124,16.40069825Q16.467100751953126,16.44853025,16.577330751953124,16.50744925Q16.687560751953125,16.56636925,16.791480751953124,16.63580925Q16.895410751953126,16.70525025,16.992030751953124,16.78454325Q17.088650751953125,16.86383525,17.177030751953126,16.95221625Q17.265410751953127,17.04059725,17.344700751953127,17.13721525Q17.423990751953127,17.23383125,17.493430751953124,17.33776125Q17.562870751953124,17.44168125,17.621790751953124,17.55191125Q17.680710751953125,17.66214125,17.728540751953126,17.77762125Q17.776380751953127,17.89309125,17.812660751953125,18.01270125Q17.848940751953126,18.13231125,17.873330751953127,18.25490125Q17.897710751953124,18.37749125,17.909960751953125,18.50187125Q17.922210751953124,18.62626125,17.922210751953124,18.75125125Q17.922210751953124,18.87624125,17.909960751953125,19.00063125Q17.897710751953124,19.12502125,17.873330751953127,19.24760125Q17.848940751953126,19.37019125,17.812660751953125,19.48980125Q17.776380751953127,19.60941125,17.728540751953126,19.72488125Q17.680710751953125,19.84036125,17.621790751953124,19.95059125Q17.562870751953124,20.06082125,17.493430751953124,20.16474125Q17.423990751953127,20.26867125,17.344700751953127,20.36529125Q17.265410751953127,20.46191125,17.177030751953126,20.55029125Q17.088650751953125,20.63867125,16.992030751953124,20.717961250000002Q16.895410751953126,20.797251250000002,16.791480751953124,20.86669125Q16.687560751953125,20.93613125,16.577330751953124,20.99505125Q16.467100751953126,21.05397125,16.351620751953124,21.10180125Q16.236150751953126,21.149641250000002,16.116540751953124,21.18592125Q15.996930751953125,21.22220125,15.874340751953126,21.24659125Q15.751760751953125,21.27097125,15.627370751953125,21.28322125Q15.502980751953125,21.29547125,15.377990751953124,21.29547125Z" fill-rule="evenodd" fill="#FFFFFF" fill-opacity="1"/></g><g><path d="M16.610939890625,14.582584C16.721829890625,14.16395,17.151547890625,13.9148905,17.569917890625,14.0267692L20.583837890625,14.837006C21.002467890625,14.947896,21.251527890625,15.37761,21.139647890625,15.79598L20.329417890625,18.8099C20.216787890625,19.226950000000002,19.787617890625,19.47394,19.370437890625,19.3618L16.356517890625,18.55548C15.939467890625,18.44285,15.692479090625,18.01369,15.804617490625,17.59651L16.610939890625,14.582584Z" fill="#FADC19" fill-opacity="1"/><path d="M15.644645890625,14.32514Q15.834305390625,13.611119,16.473668890625,13.24055Q17.113657890625,12.86962,17.828257890625,13.060715L20.843447890625,13.871293Q21.010207890625,13.9154625,21.158257890625002,13.9844353Q21.182627890625,13.99579021,21.206487890625,14.00781277Q21.656187890625,14.234435,21.925867890625,14.699735Q22.296797890625,15.33972,22.105707890625,16.05432L21.295127890625,19.06952L21.294567890625,19.0716Q21.101517890625,19.78351,20.462937890625,20.15102Q19.823417890625,20.51906,19.110857890625,20.32752L16.098073890625,19.52151Q15.383454890625,19.32852,15.015406890625,18.68901Q14.648077890625,18.05074,14.838151890625,17.3397Q14.838522890625,17.33831,14.838897890625,17.33692L15.644274890625,14.326528L15.644645890625,14.32514ZM17.569917890625,14.0267692C17.151547890625,13.9148905,16.721829890625,14.16395,16.610939890625,14.582584L15.804617490625,17.59651C15.692479090625,18.01369,15.939467890625,18.44285,16.356517890625,18.55548L19.370437890625,19.3618C19.787617890625,19.47394,20.216787890625,19.226950000000002,20.329417890625,18.8099L21.139647890625,15.79598C21.251527890625,15.37761,21.002467890625,14.947896,20.583837890625,14.837006L17.569917890625,14.0267692Z" fill-rule="evenodd" fill="#FFFFFF" fill-opacity="1"/></g><g><path d="M17.8791535546875,17.4987269375C18.0299935546875,17.2387058375,18.4054735546875,17.2387058375,18.5563135546875,17.4987269375L20.8147935546875,21.4129109375C20.8848535546875,21.5342609375,20.8847135546875,21.6838009375,20.8144135546875,21.8050109375C20.7441135546875,21.9262109375,20.6143835546875,22.0006009375,20.4742635546875,22.0000409375L15.9651195546875,22.0000409375C15.8250015546875,22.0006009375,15.6952735546875,21.9262109375,15.6249728546875,21.8050109375C15.5546724546875,21.6838009375,15.5545246546875,21.5342609375,15.6245853546875,21.4129109375L17.8830735546875,17.4987269375L17.8791535546875,17.4987269375Z" fill="#F53F3F" fill-opacity="1"/><path d="M17.0141535546875,16.9969559375Q17.391163554687502,16.3470389375,18.1191135546875,16.3064189375Q18.1676435546875,16.3037109375,18.2177335546875,16.3037109375Q18.6426935546875,16.3037109375,18.9553835546875,16.4986249375Q19.1977835546875,16.6497189375,19.3727135546875,16.9179379375Q19.3977035546875,16.9562519375,19.4213135546875,16.9969559375L21.6809535546875,20.9131409375Q22.0331035546875,21.523080937499998,21.7678335546875,22.132590937499998Q21.7299435546875,22.2196609375,21.679443554687502,22.3067209375Q21.3007135546875,22.9597109375,20.5693635546875,22.9977009375Q20.5206035546875,23.0002309375,20.470283554687498,23.0000309375L15.9651195546875,23.0000409375Q15.1639195546875,23.0032409375,14.7599415546875,22.3067209375Q14.3812135546875,21.6537409375,14.7113895546875,21.0000709375Q14.7334015546875,20.9564909375,14.7585645546875,20.912900937499998L16.1514495546875,18.4988909375L16.9748235546875,17.0719069375Q16.9928135546875,17.0337919375,17.0139435546875,16.9973249375L17.0141535546875,16.9969559375ZM17.3823235546875,18.3665709375L17.8820935546875,17.5004279375L17.8830735546875,17.4987269375L17.8791535546875,17.4987269375L17.8801435546875,17.4970369375C18.0316235546875,17.2387070375,18.405803554687502,17.2392703375,18.5563135546875,17.4987269375L18.7941535546875,17.9109399375L18.7969535546875,17.9157849375L20.8147935546875,21.4129109375C20.8848535546875,21.5342609375,20.8847135546875,21.6838009375,20.8144135546875,21.8050109375C20.7441135546875,21.9262109375,20.6143835546875,22.0006009375,20.4742635546875,22.0000409375L15.9651195546875,22.0000409375C15.8250015546875,22.0006009375,15.6952735546875,21.9262109375,15.6249728546875,21.8050109375C15.5546724546875,21.6838009375,15.5545246546875,21.5342609375,15.6245853546875,21.4129109375L17.3823235546875,18.3665709375Z" fill-rule="evenodd" fill="#FFFFFF" fill-opacity="1"/></g></g></g></svg>