<svg xmlns="http://www.w3.org/2000/svg" xmlns:xlink="http://www.w3.org/1999/xlink" fill="none" version="1.1" width="24" height="24" viewBox="0 0 24 24"><defs><clipPath id="master_svg0_644_63693"><rect x="0" y="0" width="24" height="24" rx="0"/></clipPath><filter id="master_svg1_644_63703" filterUnits="objectBoundingBox" color-interpolation-filters="sRGB" x="-3" y="-4" width="18" height="18"><feFlood flood-opacity="0" result="BackgroundImageFix"/><feColorMatrix in="SourceAlpha" type="matrix" values="0 0 0 0 0 0 0 0 0 0 0 0 0 0 0 0 0 0 127 0"/><feOffset dy="0" dx="1"/><feGaussianBlur stdDeviation="1"/><feColorMatrix type="matrix" values="0 0 0 0 0 0 0 0 0 0.1726190447807312 0 0 0 0 0.06277056038379669 0 0 0 0.33000001311302185 0"/><feBlend mode="normal" in2="BackgroundImageFix" result="effect1_dropShadow"/><feBlend mode="normal" in="SourceGraphic" in2="effect1_dropShadow" result="shape"/></filter></defs><g clip-path="url(#master_svg0_644_63693)"><g><path d="M4.000006675720215,4L4.000017994620215,20C4.000018689220215,21.1046,4.895448675720215,22,6.0000166757202145,22L18.000006675720215,22C19.104606675720213,22,20.000006675720215,21.1046,20.000006675720215,20L20.000006675720215,4C20.000006675720215,2.895431,19.104606675720213,2,18.000006675720215,2L6.000006675720215,2C4.895437675720215,2,4.000006675720215,2.895431,4.000006675720215,4Z" fill="#009A29" fill-opacity="1"/></g><g style="opacity:0.5;"><path d="M13,7L13.00000550225,12L20,12L20,7L13,7Z" fill="#FFFCE8" fill-opacity="1"/></g><g style="opacity:0.30000001192092896;"><path d="M4,7L4.00000707433,12L13,12L13,7L4,7Z" fill="#FFFCE8" fill-opacity="1"/></g><g style="opacity:0.6000000238418579;"><path d="M13,2L13.00000550225,7L20,7L20,4C20,2.895431,19.10457,2,18,2L13,2Z" fill="#FFFCE8" fill-opacity="1"/></g><g style="opacity:0.4000000059604645;"><path d="M4.00000282973,4L4.00000707433,7L13,7L13,2L6,2C4.895432,2,4,2.895432,4.00000282973,4Z" fill="#FFFCE8" fill-opacity="1"/></g><g style="opacity:0.30000001192092896;"><path d="M13,17L13.00000550225,22L18,22C19.10457,22,20,21.10457,20,20L20,17L13,17Z" fill="#FFFCE8" fill-opacity="1"/></g><g style="opacity:0.10000000149011612;"><path d="M4,17L4.0000042446,20C4.00000580742,21.10457,4.895436,22,6,22L13,22L13,17L4,17Z" fill="#FFFCE8" fill-opacity="1"/></g><g style="opacity:0.4000000059604645;"><path d="M13,12L13.00000550225,17L20,17L20,12L13,12Z" fill="#FFFCE8" fill-opacity="1"/></g><g style="opacity:0.20000000298023224;"><path d="M4,12L4.00000707433,17L13,17L13,12L4,12Z" fill="#FFFCE8" fill-opacity="1"/></g><g filter="url(#master_svg1_644_63703)"><rect x="1.5" y="7" width="10" height="10" rx="2" fill="#008026" fill-opacity="1"/></g><g><path d="M5.0304839999999995,9.469824L9.03033,13.46967Q9.135819999999999,13.57516,9.192910000000001,13.71299Q9.25,13.85082,9.25,14Q9.25,14.07387,9.23559,14.14632Q9.22118,14.21877,9.192910000000001,14.28701Q9.16464,14.355260000000001,9.1236,14.41668Q9.08256,14.478100000000001,9.03033,14.53033Q8.978100000000001,14.58256,8.91668,14.6236Q8.855260000000001,14.66464,8.78701,14.692910000000001Q8.71877,14.72118,8.64632,14.73559Q8.57387,14.75,8.5,14.75Q8.35082,14.75,8.21299,14.692910000000001Q8.07516,14.635819999999999,7.96967,14.53033L3.969824,10.530484L3.96967,10.53033Q3.864181,10.424841,3.80709,10.287013Q3.75,10.149184,3.75,10Q3.75,9.9261315,3.764411,9.853682Q3.778822,9.781233,3.80709,9.712987Q3.835359,9.644742,3.876398,9.583322Q3.917437,9.521903,3.96967,9.46967Q4.021903,9.417437,4.083322,9.376398Q4.144742,9.335359,4.212987,9.30709Q4.281233,9.278822,4.353682,9.264410999999999Q4.4261315,9.25,4.5,9.25Q4.649184,9.25,4.787013,9.30709Q4.924841,9.364181,5.03033,9.46967L5.0304839999999995,9.469824Z" fill-rule="evenodd" fill="#FFFFFF" fill-opacity="1"/></g><g><path d="M9.03033,10.53033Q9.135819999999999,10.424841,9.192910000000001,10.287013Q9.25,10.149184,9.25,10Q9.25,9.9261315,9.23559,9.853682Q9.22118,9.781233,9.192910000000001,9.712987Q9.16464,9.644742,9.1236,9.583322Q9.08256,9.521903,9.03033,9.46967Q8.978100000000001,9.417437,8.91668,9.376398Q8.855260000000001,9.335359,8.78701,9.30709Q8.71877,9.278822,8.64632,9.264410999999999Q8.57387,9.25,8.5,9.25Q8.35082,9.25,8.21299,9.30709Q8.07516,9.364181,7.96967,9.46967L3.96967,13.46967Q3.864181,13.57516,3.80709,13.71299Q3.75,13.85082,3.75,14Q3.75,14.07387,3.764411,14.14632Q3.778822,14.21877,3.80709,14.28701Q3.835359,14.355260000000001,3.876398,14.41668Q3.917437,14.478100000000001,3.96967,14.53033Q4.021903,14.58256,4.083322,14.6236Q4.144742,14.66464,4.212987,14.692910000000001Q4.281233,14.72118,4.353682,14.73559Q4.4261315,14.75,4.5,14.75Q4.649184,14.75,4.787013,14.692910000000001Q4.924841,14.635819999999999,5.03033,14.53033L9.03033,10.53033L9.03033,10.53033Z" fill-rule="evenodd" fill="#FFFFFF" fill-opacity="1"/></g><g><path d="M12.470424269921875,18.26539C13.101696669921875,16.36861,14.890726669921875,15,17.000486669921877,15C19.108966669921877,15,20.897156669921877,16.36733,21.529276669921877,18.26242C21.580186669921876,18.416,21.580186669921876,18.58145,21.529276669921877,18.73461C20.898426669921875,20.63139,19.108966669921877,22,16.999636669921877,22C14.891156669921875,22,13.102545669921875,20.63267,12.470848669921875,18.73758C12.419832669921876,18.584319999999998,12.419832669921876,18.41865,12.470848669921875,18.26539L12.470424269921875,18.26539ZM19.227336669921876,18.5C19.227336669921876,19.73009,18.230146669921876,20.72727,17.000056669921875,20.72727C15.769976669921874,20.72727,14.772786669921874,19.73009,14.772786669921874,18.5C14.772786669921874,17.26991,15.769976669921874,16.27273,17.000056669921875,16.27273C18.230146669921876,16.27273,19.227336669921876,17.26991,19.227336669921876,18.5Z" fill-rule="evenodd" fill="#00B42A" fill-opacity="1"/><path d="M13.589656669921876,15.114996Q12.101873669921876,16.20604,11.521592669921874,17.94961Q11.515117669921874,17.96907,11.509446669921875,17.98877Q11.344846669921875,18.5211,11.522164669921874,19.0538Q11.557839669921876,19.16083,11.596937669921875,19.26539Q12.194256669921876,20.86291,13.590336669921875,21.886029999999998Q15.110356669921876,23,16.999636669921877,23Q18.889796669921875,23,20.410246669921875,21.884999999999998Q21.898266669921874,20.79379,22.478186669921875,19.05004Q22.661286669921875,18.49928,22.477886669921872,17.94601Q21.896806669921872,16.20393,20.409656669921876,15.113984Q18.891366669921876,14.001214000000001,17.004606669921877,14.000001L17.000486669921877,14L16.996796669921874,14.000001Q15.108626669921875,14.001089,13.589656669921876,15.114996ZM12.470848669921875,18.73758C12.419846769921875,18.58436,12.419832669921876,18.41875,12.470806369921876,18.26552L12.470848669921875,18.26539L12.470424269921875,18.26539L12.470466669921874,18.26527C12.576907669921875,17.94547,12.716257669921875,17.6407,12.884504669921874,17.35496C12.902209669921875,17.32489,12.920234669921875,17.29504,12.938574669921875,17.26539C13.779656669921875,15.906024,15.283906669921874,15,17.000486669921877,15C19.108966669921877,15,20.897156669921877,16.36733,21.529276669921877,18.26242C21.580186669921876,18.416,21.580186669921876,18.58145,21.529276669921877,18.73461C20.898426669921875,20.63139,19.108966669921877,22,16.999636669921877,22C14.891156669921875,22,13.102545669921875,20.63267,12.470848669921875,18.73758ZM17.000056669921875,20.72727C18.230146669921876,20.72727,19.227336669921876,19.73009,19.227336669921876,18.5C19.227336669921876,17.26991,18.230146669921876,16.27273,17.000056669921875,16.27273C15.769976669921874,16.27273,14.772786669921874,17.26991,14.772786669921874,18.5C14.772786669921874,19.73009,15.769976669921874,20.72727,17.000056669921875,20.72727ZM17.000056669921875,17.27273L17.004026669921874,17.27273Q17.614686669921873,17.27372,17.920516669921874,17.57955Q18.227336669921876,17.88636,18.227336669921876,18.5Q18.227336669921876,19.72727,17.000056669921875,19.72727L16.999906669921874,19.72727Q15.773776669921876,19.7272,15.772786669921874,18.50198L15.772786669921874,18.5Q15.772786669921874,17.27273,17.000056669921875,17.27273Z" fill-rule="evenodd" fill="#FFFFFF" fill-opacity="1"/></g><g><path d="M18.272775439453124,18.500024921875Q18.272775439453124,18.562544921875,18.266655439453125,18.624774921875Q18.260525439453126,18.686994921875,18.248325439453126,18.748314921875Q18.236125439453126,18.809644921874998,18.217975439453124,18.869474921875Q18.199825439453125,18.929304921875,18.175895439453125,18.987074921875Q18.151975439453125,19.044834921875,18.122495439453125,19.099984921875Q18.093025439453125,19.155124921875,18.058285439453126,19.207114921875Q18.023545439453123,19.259094921875,17.983885439453125,19.307434921875Q17.944215439453124,19.355764921875,17.900005439453125,19.399974921875Q17.855795439453125,19.444184921875,17.807465439453125,19.483854921875Q17.759125439453125,19.523514921874998,17.707145439453125,19.558254921875Q17.655155439453125,19.592994921875,17.600015439453124,19.622464921875Q17.544865439453126,19.651944921875,17.487105439453124,19.675864921875Q17.429335439453126,19.699794921875,17.369505439453125,19.717944921875Q17.309675439453123,19.736094921875,17.248345439453125,19.748294921875Q17.187025439453127,19.760494921875,17.124805439453127,19.766624921875Q17.062575439453123,19.772744921875,17.000055439453124,19.772744921875Q16.937525439453125,19.772744921875,16.875305439453125,19.766624921875Q16.813075439453126,19.760494921875,16.751755439453124,19.748294921875Q16.690432439453126,19.736094921875,16.630599439453125,19.717944921875Q16.570766439453124,19.699794921875,16.513001439453124,19.675864921875Q16.455235439453126,19.651944921875,16.400093439453126,19.622464921875Q16.344951439453126,19.592994921875,16.292963439453125,19.558254921875Q16.240975439453123,19.523514921874998,16.192643439453125,19.483854921875Q16.144310439453125,19.444184921875,16.100098439453124,19.399974921875Q16.055886439453126,19.355764921875,16.016221439453126,19.307434921875Q15.976555439453126,19.259094921875,15.941818439453124,19.207114921875Q15.907081439453124,19.155124921875,15.877607439453126,19.099984921875Q15.848133439453125,19.044834921875,15.824206039453125,18.987074921875Q15.800278739453125,18.929304921875,15.782128639453125,18.869474921875Q15.763978539453126,18.809644921874998,15.751780539453126,18.748314921875Q15.739582539453124,18.686994921875,15.733453969453125,18.624774921875Q15.727325439453125,18.562544921875,15.727325439453125,18.500024921875Q15.727325439453125,18.437494921875,15.733453969453125,18.375274921875Q15.739582539453124,18.313044921875,15.751780539453126,18.251724921875Q15.763978539453126,18.190401921875,15.782128639453125,18.130568921875Q15.800278739453125,18.070735921875,15.824206039453125,18.012970921875Q15.848133439453125,17.955204921875,15.877607439453126,17.900062921875Q15.907081439453124,17.844920921875,15.941818439453124,17.792932921875Q15.976555439453126,17.740944921875,16.016221439453126,17.692612921875Q16.055886439453126,17.644279921875,16.100098439453124,17.600067921875Q16.144310439453125,17.555855921875,16.192643439453125,17.516190921875Q16.240975439453123,17.476524921875,16.292963439453125,17.441787921875Q16.344951439453126,17.407050921875,16.400093439453126,17.377576921875Q16.455235439453126,17.348102921875,16.513001439453124,17.324175521875Q16.570766439453124,17.300248221875,16.630599439453125,17.282098121875Q16.690432439453126,17.263948021875,16.751755439453124,17.251750021875Q16.813075439453126,17.239552021875,16.875305439453125,17.233423451875Q16.937525439453125,17.227294921875,17.000055439453124,17.227294921875Q17.062575439453123,17.227294921875,17.124805439453127,17.233423451875Q17.187025439453127,17.239552021875,17.248345439453125,17.251750021875Q17.309675439453123,17.263948021875,17.369505439453125,17.282098121875Q17.429335439453126,17.300248221875,17.487105439453124,17.324175521875Q17.544865439453126,17.348102921875,17.600015439453124,17.377576921875Q17.655155439453125,17.407050921875,17.707145439453125,17.441787921875Q17.759125439453125,17.476524921875,17.807465439453125,17.516190921875Q17.855795439453125,17.555855921875,17.900005439453125,17.600067921875Q17.944215439453124,17.644279921875,17.983885439453125,17.692612921875Q18.023545439453123,17.740944921875,18.058285439453126,17.792932921875Q18.093025439453125,17.844920921875,18.122495439453125,17.900062921875Q18.151975439453125,17.955204921875,18.175895439453125,18.012970921875Q18.199825439453125,18.070735921875,18.217975439453124,18.130568921875Q18.236125439453126,18.190401921875,18.248325439453126,18.251724921875Q18.260525439453126,18.313044921875,18.266655439453125,18.375274921875Q18.272775439453124,18.437494921875,18.272775439453124,18.500024921875Z" fill="#008026" fill-opacity="1"/></g></g></svg>