<svg id="图层_1" data-name="图层 1" xmlns="http://www.w3.org/2000/svg" viewBox="0 0 18 18">
  <defs>
    <style>
      .bvjhftyw57-1 {
        fill: #854bfa;
      }

      .bvjhftyw57-2 {
        fill: #fff;
      }
    </style>
  </defs>
  <g id="IconAomMenuGJKGLColor">
    <rect class="bvjhftyw57-1" width="18" height="18" rx="4" />
  </g>
  <rect class="bvjhftyw57-2" x="6.33" y="4.27" width="5.33" height="2.57" rx="1.07" />
  <rect class="bvjhftyw57-2" x="6.33" y="7.72" width="5.33" height="2.57" rx="1.07" />
  <rect class="bvjhftyw57-2" x="6.33" y="11.16" width="5.33" height="2.57" rx="1.07" />
  <path class="bvjhftyw57-2"
    d="M12.7,9.55a.55.55,0,0,1,0-1.1A1.21,1.21,0,1,0,12.7,6a.55.55,0,0,1-.55-.55.54.54,0,0,1,.55-.54,2.31,2.31,0,0,1,0,4.61Z" />
  <path class="bvjhftyw57-2"
    d="M5.3,13.06a2.31,2.31,0,0,1,0-4.61.55.55,0,0,1,0,1.1A1.21,1.21,0,1,0,5.3,12a.55.55,0,0,1,.55.55A.54.54,0,0,1,5.3,13.06Z" />
</svg>