<svg id="图层_1" data-name="图层 1" xmlns="http://www.w3.org/2000/svg" viewBox="0 0 18 18">
  <defs>
    <style>
      .pibvcjas26-1 {
        fill: #34c765;
      }

      .pibvcjas26-2 {
        fill: #fff;
      }
    </style>
  </defs>
  <g id="IconAomMenuGJKGLColor">
    <rect class="pibvcjas26-1" width="18" height="18" rx="4" />
  </g>
  <path class="pibvcjas26-2"
    d="M12.85,7.35H12V6.52a3,3,0,0,0-6,0v.83H5.15a1.1,1.1,0,0,0-1.1,1.1v5a1.1,1.1,0,0,0,1.1,1.1h7.7A1.1,1.1,0,0,0,14,13.4v-5A1.1,1.1,0,0,0,12.85,7.35ZM9.44,11v1a.44.44,0,1,1-.88,0V11a.82.82,0,0,1-.39-.69.83.83,0,0,1,1.66,0A.82.82,0,0,1,9.44,11ZM10.6,7.35H7.4V6.52a1.6,1.6,0,0,1,3.2,0Z" />
</svg>