<svg id="图层_1" data-name="图层 1" xmlns="http://www.w3.org/2000/svg" viewBox="0 0 18 18">
  <defs>
    <style>
      .djpf65wq-1 {
        fill: #854bfa;
      }

      .djpf65wq-2 {
        fill: #fff;
      }
    </style>
  </defs>
  <g id="IconAomMenuCSGLColor">
    <rect class="djpf65wq-1" width="18" height="18" rx="4" />
  </g>
  <path class="djpf65wq-2"
    d="M13,14a.5.5,0,0,0,.5-.5h0a1.41,1.41,0,0,0-1.41-1.41H10.31A1.42,1.42,0,0,0,8.89,13.5h0a.5.5,0,0,0,.5.5Z" />
  <path class="djpf65wq-2" d="M11.2,9a1.36,1.36,0,1,0,1.35,1.35A1.36,1.36,0,0,0,11.2,9Z" />
  <path class="djpf65wq-2"
    d="M12.5,4h-7a1,1,0,0,0-1,1v8a1,1,0,0,0,1,1H8.2a1.18,1.18,0,0,1-.11-.5,2.2,2.2,0,0,1,1.29-2,2.16,2.16,0,1,1,3.63,0,1.93,1.93,0,0,1,.49.31V5A1,1,0,0,0,12.5,4ZM7.61,9.18H6.26a.4.4,0,0,1,0-.8H7.61a.4.4,0,1,1,0,.8ZM8.67,6.83H6.26a.4.4,0,1,1,0-.8H8.67a.4.4,0,1,1,0,.8Z" />
</svg>