<svg id="图层_1" data-name="图层 1" xmlns="http://www.w3.org/2000/svg" viewBox="0 0 18 18">
  <defs>
    <style>
      .bnc7r98hjcdk1 {
        fill: #34c765;
      }

      .bnc7r98hjcdk2 {
        fill: #fff;
      }
    </style>
  </defs>
  <g id="IconAomMenuGJKGLColor">
    <rect class="bnc7r98hjcdk1" width="18" height="18" rx="4" />
  </g>
  <path class="bnc7r98hjcdk2" d="M11.27,13H6.73a.51.51,0,0,0,0,1h4.54a.51.51,0,0,0,0-1Z" />
  <path class="bnc7r98hjcdk2"
    d="M11.35,7.32,9,9.68a.41.41,0,0,0,.05.58H9a.43.43,0,0,0,.26.09.41.41,0,0,0,.31-.14l2.37-3.44.07-.1-.08.08Z" />
  <path class="bnc7r98hjcdk2"
    d="M13.08,4H4.92a1,1,0,0,0-1,1v6.31a1,1,0,0,0,1,1h8.16a1,1,0,0,0,1-1V5A1,1,0,0,0,13.08,4Zm-.62,6.42a.4.4,0,0,1-.38.26l-.15,0a.41.41,0,0,1-.23-.53,2.86,2.86,0,0,0,.13-1.73l-1.58,2.29-.05.06a1.22,1.22,0,0,1-.94.44,1.18,1.18,0,0,1-.78-.29,1.22,1.22,0,0,1-.16-1.72l.06-.06,2.39-2.35A2.89,2.89,0,0,0,6.3,10.11a.41.41,0,1,1-.76.3,3.71,3.71,0,0,1,.83-4,3.73,3.73,0,0,1,5-.25l.08-.07A.8.8,0,0,1,12,5.85a.88.88,0,0,1,.53.19.82.82,0,0,1,.14,1.09l-.28.41A3.75,3.75,0,0,1,12.46,10.41Z" />
</svg>