<svg xmlns="http://www.w3.org/2000/svg" xmlns:xlink="http://www.w3.org/1999/xlink" fill="none" version="1.1" width="24" height="24" viewBox="0 0 24 24"><defs><clipPath id="master_svg0_644_63801"><rect x="0" y="0" width="24" height="24" rx="0"/></clipPath><filter id="master_svg1_644_63811" filterUnits="objectBoundingBox" color-interpolation-filters="sRGB" x="-3" y="-4" width="18" height="18"><feFlood flood-opacity="0" result="BackgroundImageFix"/><feColorMatrix in="SourceAlpha" type="matrix" values="0 0 0 0 0 0 0 0 0 0 0 0 0 0 0 0 0 0 127 0"/><feOffset dy="0" dx="1"/><feGaussianBlur stdDeviation="1"/><feColorMatrix type="matrix" values="0 0 0 0 0 0 0 0 0 0.1726190447807312 0 0 0 0 0.06277056038379669 0 0 0 0.33000001311302185 0"/><feBlend mode="normal" in2="BackgroundImageFix" result="effect1_dropShadow"/><feBlend mode="normal" in="SourceGraphic" in2="effect1_dropShadow" result="shape"/></filter></defs><g clip-path="url(#master_svg0_644_63801)"><g><path d="M4.000006675720215,4L4.000017994620215,20C4.000018689220215,21.1046,4.895448675720215,22,6.0000166757202145,22L18.000006675720215,22C19.104606675720213,22,20.000006675720215,21.1046,20.000006675720215,20L20.000006675720215,4C20.000006675720215,2.895431,19.104606675720213,2,18.000006675720215,2L6.000006675720215,2C4.895437675720215,2,4.000006675720215,2.895431,4.000006675720215,4Z" fill="#009A29" fill-opacity="1"/></g><g style="opacity:0.5;"><path d="M13,7L13.00000550225,12L20,12L20,7L13,7Z" fill="#FFFCE8" fill-opacity="1"/></g><g style="opacity:0.30000001192092896;"><path d="M4,7L4.00000707433,12L13,12L13,7L4,7Z" fill="#FFFCE8" fill-opacity="1"/></g><g style="opacity:0.6000000238418579;"><path d="M13,2L13.00000550225,7L20,7L20,4C20,2.895431,19.10457,2,18,2L13,2Z" fill="#FFFCE8" fill-opacity="1"/></g><g style="opacity:0.4000000059604645;"><path d="M4.00000282973,4L4.00000707433,7L13,7L13,2L6,2C4.895432,2,4,2.895432,4.00000282973,4Z" fill="#FFFCE8" fill-opacity="1"/></g><g style="opacity:0.30000001192092896;"><path d="M13,17L13.00000550225,22L18,22C19.10457,22,20,21.10457,20,20L20,17L13,17Z" fill="#FFFCE8" fill-opacity="1"/></g><g style="opacity:0.10000000149011612;"><path d="M4,17L4.0000042446,20C4.00000580742,21.10457,4.895436,22,6,22L13,22L13,17L4,17Z" fill="#FFFCE8" fill-opacity="1"/></g><g style="opacity:0.4000000059604645;"><path d="M13,12L13.00000550225,17L20,17L20,12L13,12Z" fill="#FFFCE8" fill-opacity="1"/></g><g style="opacity:0.20000000298023224;"><path d="M4,12L4.00000707433,17L13,17L13,12L4,12Z" fill="#FFFCE8" fill-opacity="1"/></g><g filter="url(#master_svg1_644_63811)"><rect x="1.5" y="7" width="10" height="10" rx="2" fill="#008026" fill-opacity="1"/></g><g><path d="M5.0304839999999995,9.469824L9.03033,13.46967Q9.135819999999999,13.57516,9.192910000000001,13.71299Q9.25,13.85082,9.25,14Q9.25,14.07387,9.23559,14.14632Q9.22118,14.21877,9.192910000000001,14.28701Q9.16464,14.355260000000001,9.1236,14.41668Q9.08256,14.478100000000001,9.03033,14.53033Q8.978100000000001,14.58256,8.91668,14.6236Q8.855260000000001,14.66464,8.78701,14.692910000000001Q8.71877,14.72118,8.64632,14.73559Q8.57387,14.75,8.5,14.75Q8.35082,14.75,8.21299,14.692910000000001Q8.07516,14.635819999999999,7.96967,14.53033L3.969824,10.530484L3.96967,10.53033Q3.864181,10.424841,3.80709,10.287013Q3.75,10.149184,3.75,10Q3.75,9.9261315,3.764411,9.853682Q3.778822,9.781233,3.80709,9.712987Q3.835359,9.644742,3.876398,9.583322Q3.917437,9.521903,3.96967,9.46967Q4.021903,9.417437,4.083322,9.376398Q4.144742,9.335359,4.212987,9.30709Q4.281233,9.278822,4.353682,9.264410999999999Q4.4261315,9.25,4.5,9.25Q4.649184,9.25,4.787013,9.30709Q4.924841,9.364181,5.03033,9.46967L5.0304839999999995,9.469824Z" fill-rule="evenodd" fill="#FFFFFF" fill-opacity="1"/></g><g><path d="M9.03033,10.53033Q9.135819999999999,10.424841,9.192910000000001,10.287013Q9.25,10.149184,9.25,10Q9.25,9.9261315,9.23559,9.853682Q9.22118,9.781233,9.192910000000001,9.712987Q9.16464,9.644742,9.1236,9.583322Q9.08256,9.521903,9.03033,9.46967Q8.978100000000001,9.417437,8.91668,9.376398Q8.855260000000001,9.335359,8.78701,9.30709Q8.71877,9.278822,8.64632,9.264410999999999Q8.57387,9.25,8.5,9.25Q8.35082,9.25,8.21299,9.30709Q8.07516,9.364181,7.96967,9.46967L3.96967,13.46967Q3.864181,13.57516,3.80709,13.71299Q3.75,13.85082,3.75,14Q3.75,14.07387,3.764411,14.14632Q3.778822,14.21877,3.80709,14.28701Q3.835359,14.355260000000001,3.876398,14.41668Q3.917437,14.478100000000001,3.96967,14.53033Q4.021903,14.58256,4.083322,14.6236Q4.144742,14.66464,4.212987,14.692910000000001Q4.281233,14.72118,4.353682,14.73559Q4.4261315,14.75,4.5,14.75Q4.649184,14.75,4.787013,14.692910000000001Q4.924841,14.635819999999999,5.03033,14.53033L9.03033,10.53033L9.03033,10.53033Z" fill-rule="evenodd" fill="#FFFFFF" fill-opacity="1"/></g><g><path d="M19.664122504882812,14.725730296875Q18.32779250488281,13.389404296875,16.437942504882812,13.389404296875Q14.548092504882813,13.389404296875,13.211768504882812,14.725729296875Q11.875442504882812,16.062054296875,11.875442504882812,17.951904296875Q11.875442504882812,19.841754296875,13.211768504882812,21.178074296875Q14.548092504882813,22.514404296875,16.437942504882812,22.514404296875Q17.52825250488281,22.514404296875,18.43433250488281,22.069614296875L19.31400250488281,22.949294296875L19.314782504882814,22.950064296875Q19.419252504882813,23.054524296875,19.542082504882814,23.136604296875Q19.664922504882814,23.218684296875,19.801412504882812,23.275224296875002Q19.937912504882814,23.331764296875,20.082802504882814,23.360584296875Q20.227702504882814,23.389404296875,20.375442504882812,23.389404296875Q20.44913250488281,23.389404296875,20.522472504882813,23.382184296875Q20.595802504882812,23.374954296875,20.66807250488281,23.360584296875Q20.740352504882814,23.346204296875,20.810872504882813,23.324814296874997Q20.88138250488281,23.303424296875,20.949462504882813,23.275224296875002Q21.01755250488281,23.247024296875,21.082532504882813,23.212284296874998Q21.14752250488281,23.177544296875,21.208792504882812,23.136604296875Q21.270072504882812,23.095664296875,21.327032504882812,23.048924296875Q21.383992504882812,23.002174296874998,21.43610250488281,22.950064296875Q21.48821250488281,22.897954296875,21.534962504882813,22.840994296875Q21.581702504882813,22.784034296875,21.622642504882812,22.722754296875Q21.66358250488281,22.661484296875,21.69832250488281,22.596494296875Q21.733062504882813,22.531514296875,21.761262504882815,22.463424296875Q21.789462504882813,22.395344296875,21.81085250488281,22.324834296875Q21.832242504882814,22.254314296875002,21.846622504882813,22.182034296875Q21.860992504882812,22.109764296875,21.868222504882812,22.036434296875Q21.875442504882812,21.963094296875,21.875442504882812,21.889404296875Q21.875442504882812,21.741664296875,21.846622504882813,21.596764296875Q21.817802504882813,21.451874296875,21.761262504882815,21.315374296875Q21.704722504882813,21.178884296875,21.622642504882812,21.056044296875Q21.540562504882814,20.933204296875,21.43610250488281,20.828744296875L21.435332504882812,20.827964296875L20.55565250488281,19.948294296874998Q21.000442504882812,19.042214296875,21.000442504882812,17.951904296875Q21.000442504882812,16.062054296875,19.664122504882812,14.725730296875ZM17.55725250488281,19.042134296875Q18.000442504882812,18.588804296875,18.000442504882812,17.951904296875Q18.000442504882812,17.304694296875,17.54279250488281,16.847054296875Q17.085152504882814,16.389404296875,16.437942504882812,16.389404296875Q14.875442504882812,16.389404296875,14.875442504882812,17.951904296875Q14.875442504882812,19.514404296875,16.437942504882812,19.514404296875Q17.074842504882813,19.514404296875,17.52817250488281,19.071214296875Q17.54251250488281,19.056474296875,17.55725250488281,19.042134296875Z" fill-rule="evenodd" fill="#FFFFFF" fill-opacity="1"/></g><g><path d="M18.95701250488281,15.432836296875Q17.91358250488281,14.389404296875,16.437942504882812,14.389404296875Q14.962302504882812,14.389404296875,13.918875504882813,15.432836296875Q12.875443504882812,16.476264296875,12.875442504882812,17.951904296875Q12.875443504882812,19.427544296875,13.918875504882813,20.470974296875Q14.962312504882812,21.514404296875,16.437942504882812,21.514404296875Q17.657052504882813,21.514404296875,18.581162504882812,20.802224296875L20.021892504882814,22.242954296875Q20.092212504882813,22.313284296875,20.184102504882812,22.351344296875Q20.275982504882812,22.389404296875,20.375442504882812,22.389404296875Q20.424692504882813,22.389404296875,20.472982504882815,22.379794296874998Q20.521282504882812,22.370184296875,20.566782504882813,22.351344296875Q20.612282504882813,22.332494296874998,20.653222504882812,22.305134296875Q20.694172504882815,22.277774296875002,20.72899250488281,22.242954296875Q20.763812504882814,22.208134296875002,20.791172504882812,22.167184296875Q20.81853250488281,22.126244296875,20.83738250488281,22.080744296875Q20.856222504882812,22.035244296875,20.86583250488281,21.986944296875002Q20.875442504882812,21.938654296875,20.875442504882812,21.889404296875Q20.875442504882812,21.789944296875,20.83738250488281,21.698064296875Q20.799322504882813,21.606174296875,20.72899250488281,21.535854296875L19.288262504882812,20.095124296875Q20.000442504882812,19.171004296875,20.000442504882812,17.951904296875Q20.000442504882812,16.476274296875,18.95701250488281,15.432836296875ZM18.260372504882813,19.753344296875Q19.000442504882812,19.005894296875,19.000442504882812,17.951904296875Q19.000442504882812,16.890484296875,18.24990250488281,16.139944296875Q17.49936250488281,15.389404296875,16.437942504882812,15.389404296875Q15.376522504882812,15.389404296875,14.625982504882813,16.139944296875Q13.875442504882812,16.890484296875,13.875442504882812,17.951904296875Q13.875443504882812,19.013324296875,14.625982504882813,19.763864296875Q15.376522504882812,20.514404296875,16.437942504882812,20.514404296875Q17.491942504882815,20.514404296875,18.239382504882812,19.774334296875Q18.24956250488281,19.763524296874998,18.260372504882813,19.753344296875Z" fill-rule="evenodd" fill="#008026" fill-opacity="1"/></g></g></svg>