<svg xmlns="http://www.w3.org/2000/svg" viewBox="0 0 18 18">
  <g id="图层_2" data-name="图层 2">
    <g id="图层_1-2" data-name="图层 1">
      <g id="IconAomMenuGJKGLColor">
        <rect fill="#34c765" width="18" height="18" rx="4" />
        <path fill="#fff"
          d="M13,6H11.51V5.75A1.75,1.75,0,0,0,9.76,4H8.24A1.75,1.75,0,0,0,6.49,5.75V6H5A1,1,0,0,0,4,7v6a1,1,0,0,0,1,1h8a1,1,0,0,0,1-1V7A1,1,0,0,0,13,6ZM7.49,5.75A.76.76,0,0,1,8.24,5H9.76a.76.76,0,0,1,.75.75V6h-3Zm4.21,5.7-.25.44a.78.78,0,0,1-.69.4H10.5l-.11,0a.38.38,0,0,0-.14,0l-.1.07a.61.61,0,0,0-.09.13l-.12.22a.81.81,0,0,1-.7.41H8.76a.81.81,0,0,1-.7-.41l-.12-.22a.35.35,0,0,0-.06-.09l0,0a.47.47,0,0,0-.24-.13H7.24a.78.78,0,0,1-.69-.4l-.25-.44a.8.8,0,0,1,0-.79l.12-.21a.54.54,0,0,0,.05-.11.82.82,0,0,0,0-.18s0-.08,0-.12h0v0a.54.54,0,0,0-.05-.11l-.12-.22a.8.8,0,0,1,0-.79l.25-.43A.79.79,0,0,1,7.24,8H7.5l.1,0a.64.64,0,0,0,.15,0l.13-.11.06-.1.12-.21a.8.8,0,0,1,.7-.42h.48a.8.8,0,0,1,.7.42l.12.21a.36.36,0,0,0,.07.1.91.91,0,0,0,.12.11l.11,0a.37.37,0,0,0,.15,0h.25a.79.79,0,0,1,.69.41l.25.43a.8.8,0,0,1,0,.79l-.12.22a.24.24,0,0,0-.05.12.55.55,0,0,0,0,.16s0,.08,0,.12v0h0a.37.37,0,0,0,.05.11l.12.22A.8.8,0,0,1,11.7,11.45Z" />
        <path fill="#fff" d="M9,9.76a.4.4,0,1,0,.4.4A.4.4,0,0,0,9,9.76Z" />
        <path fill="#fff"
          d="M10.75,10.56s0-.07,0-.08a1.17,1.17,0,0,1,0-.32,1.41,1.41,0,0,1,.05-.35,1.2,1.2,0,0,1,.13-.33L11,9.26l-.24-.43H10.5a1.19,1.19,0,0,1-.37-.06,1.08,1.08,0,0,1-.29-.13,1.46,1.46,0,0,1-.29-.23,1,1,0,0,1-.19-.27l-.12-.22H8.76l-.12.22a1.51,1.51,0,0,1-.18.26h0a1.66,1.66,0,0,1-.3.24,1.56,1.56,0,0,1-.33.14,1.26,1.26,0,0,1-.33.05H7.24L7,9.26l.13.22a2,2,0,0,1,.11.26s0,.08,0,.11a1.1,1.1,0,0,1,0,.31,1.84,1.84,0,0,1-.06.4,1.78,1.78,0,0,1-.12.29L7,11.06l.24.43H7.5l.27,0a1.29,1.29,0,0,1,.61.32l.08.08a1.51,1.51,0,0,1,.18.26l.12.21h.48l.12-.21a1.19,1.19,0,0,1,.21-.29,1.44,1.44,0,0,1,.27-.22,2.26,2.26,0,0,1,.33-.13,1.26,1.26,0,0,1,.33,0h.26l.24-.43-.13-.21A1.78,1.78,0,0,1,10.75,10.56ZM9,11.36a1.2,1.2,0,1,1,1.2-1.2A1.2,1.2,0,0,1,9,11.36Z" />
      </g>
    </g>
  </g>
</svg>