<svg id="图层_1" data-name="图层 1" xmlns="http://www.w3.org/2000/svg" viewBox="0 0 18 18">
  <defs>
    <style>
      .kkdhiubiu781 {
        fill: #34c765;
      }

      .kkdhiubiu782 {
        fill: #fff;
      }
    </style>
  </defs>
  <g id="IconAomMenuCSGLColor">
    <rect class="kkdhiubiu781" width="18" height="18" rx="4" />
  </g>
  <path class="kkdhiubiu782"
    d="M14,14H4a.31.31,0,0,1-.25-.51l.82-1a.3.3,0,0,1,.25-.12h8.32a.3.3,0,0,1,.25.12l.82,1A.31.31,0,0,1,14,14Z" />
  <path class="kkdhiubiu782" d="M9.08,10.12a.21.21,0,0,0,.15-.07l.11-.1H8.81l.12.1A.18.18,0,0,0,9.08,10.12Z" />
  <path class="kkdhiubiu782"
    d="M14.23,11.1l-.82-1a.3.3,0,0,0-.25-.12H10.59l-.79.72a1,1,0,0,1-.72.29,1,1,0,0,1-.73-.29L7.56,10H4.84a.3.3,0,0,0-.25.12l-.82,1a.31.31,0,0,0,.25.51H14A.31.31,0,0,0,14.23,11.1Z" />
  <path class="kkdhiubiu782"
    d="M8,4a.32.32,0,0,0-.32.32V6.89H6.26a.32.32,0,0,0-.21.55l2.88,2.61a.18.18,0,0,0,.15.07.21.21,0,0,0,.15-.07L12.1,7.44a.31.31,0,0,0-.21-.55H10.44V4.31A.32.32,0,0,0,10.12,4Z" />
</svg>