<svg id="图层_1" data-name="图层 1" xmlns="http://www.w3.org/2000/svg" viewBox="0 0 18 18">
  <defs>
    <style>
      .mfgx54h-1 {
        fill: #f0953a;
      }

      .mfgx54h-2 {
        fill: #fff;
      }
    </style>
  </defs>
  <g id="IconAomMenuGJKGLColor">
    <rect class="mfgx54h-1" width="18" height="18" rx="4" />
  </g>
  <path class="mfgx54h-2" d="M10.73,7.07h2.12L10.18,4.4V6.52A.55.55,0,0,0,10.73,7.07Z" />
  <path class="mfgx54h-2"
    d="M10.73,7.87A1.36,1.36,0,0,1,9.38,6.52V4H5.75a1,1,0,0,0-1,1v8a1,1,0,0,0,1,1H9.86c-.07-.06-.15-.11-.22-.18a2.43,2.43,0,0,1,3.43-3.43l.18.2V7.87ZM8.05,12.51H6.32a.4.4,0,1,1,0-.8H8.05a.4.4,0,0,1,0,.8Zm0-1.53H6.32a.4.4,0,0,1,0-.8H8.05a.4.4,0,0,1,0,.8Zm0-1.53H6.32a.4.4,0,1,1,0-.8H8.05a.4.4,0,0,1,0,.8Z" />
  <path class="mfgx54h-2"
    d="M12.78,12.88a1.62,1.62,0,1,0-1.43.85,1.68,1.68,0,0,0,.78-.2l.32.32a.38.38,0,0,0,.13.09h0a.46.46,0,0,0,.2.05.47.47,0,0,0,.32-.14.46.46,0,0,0,0-.65Z" />
</svg>