<svg id="图层_1" data-name="图层 1" xmlns="http://www.w3.org/2000/svg" viewBox="0 0 18 18">
  <defs>
    <style>
      .vbucsi931 {
        fill: #854bfa;
      }

      .vbucsi932 {
        fill: #fff;
      }
    </style>
  </defs>
  <g id="IconAomMenuGJKGLColor">
    <rect class="vbucsi931" width="18" height="18" rx="4" />
  </g>
  <path class="vbucsi932" d="M4,5v.9H5.9V4H5A1,1,0,0,0,4,5Z" />
  <rect class="vbucsi932" x="6.7" y="4" width="1.9" height="1.9" />
  <rect class="vbucsi932" x="9.4" y="4" width="1.9" height="1.9" />
  <rect class="vbucsi932" x="4" y="9.4" width="1.9" height="1.9" />
  <rect class="vbucsi932" x="4" y="6.7" width="1.9" height="1.9" />
  <path class="vbucsi932" d="M13,4h-.9V5.9H14V5A1,1,0,0,0,13,4Z" />
  <path class="vbucsi932" d="M4,13a1,1,0,0,0,1,1h.9V12.1H4Z" />
  <path class="vbucsi932"
    d="M13.05,12.45h-.48a.38.38,0,0,1-.36-.24l-.39-1a.39.39,0,0,1,.16-.47,1.35,1.35,0,0,0,.38-.33h0a2.39,2.39,0,0,0,.13-.21h0a1.39,1.39,0,0,0,.14-.48h0A1.35,1.35,0,0,0,11.3,8.2h0A1.37,1.37,0,0,0,10,9h0a1.82,1.82,0,0,0-.07.25,1.12,1.12,0,0,0,0,.27,1.35,1.35,0,0,0,0,.28,1.33,1.33,0,0,0,.63.88.39.39,0,0,1,.16.47l-.39,1a.38.38,0,0,1-.09.13.36.36,0,0,1-.12.08h0a.35.35,0,0,1-.14,0H9.54l-.19,0-.06,0-.1,0-.07,0L9,12.6,9,12.65l-.06,0-.07.07,0,.05-.06.09,0,.05a1.17,1.17,0,0,0,0,.11,0,0,0,0,1,0,0,1,1,0,0,0-.05.3v.27a.33.33,0,0,0,.33.33h4.75a.33.33,0,0,0,.33-.33V13.4A1,1,0,0,0,13.05,12.45Z" />
  <path class="vbucsi932"
    d="M6.7,14H7.85a1,1,0,0,1-.06-.33V13.4a1.6,1.6,0,0,1,.09-.53s0-.06,0-.08a2,2,0,0,1,.1-.21l0-.08.12-.17.07-.09.13-.13L8.47,12l.14-.1.16-.08.12-.06a.7.7,0,0,1,.19-.06l.12,0a2,2,0,0,1,.34,0h.19l.18-.45A2.13,2.13,0,0,1,9.2,10a2,2,0,0,1-.06-.47,3,3,0,0,1,0-.42,2.92,2.92,0,0,1,.11-.36v0a2.17,2.17,0,0,1,2-1.33h0a2.18,2.18,0,0,1,1.85,1.06,2.14,2.14,0,0,1,.29,1.29,2.27,2.27,0,0,1-.22.77l0,0a3.45,3.45,0,0,1-.2.32l0,0a2.76,2.76,0,0,1-.29.3l.18.45h.19a1.72,1.72,0,0,1,.95.29V6.7H6.7Z" />
</svg>