<svg id="图层_1" data-name="图层 1" xmlns="http://www.w3.org/2000/svg" viewBox="0 0 18 18">
  <defs>
    <style>
      .bvnasna9081 {
        fill: #30b0f0;
      }

      .bvnasna9082 {
        fill: #fff;
      }
    </style>
  </defs>
  <g id="IconAomMenuMJRWColor">
    <rect class="bvnasna9081" width="18" height="18" rx="4" />
  </g>
  <path class="bvnasna9082" d="M10.73,7.07h2.12L10.18,4.4V6.52A.55.55,0,0,0,10.73,7.07Z" />
  <path class="bvnasna9082" d="M9.17,9.08A.3.3,0,0,0,9,9a.31.31,0,0,0-.22.09L6.82,11v.77H7.6L9.52,9.85a.29.29,0,0,0,0-.42Z" />
  <path class="bvnasna9082"
    d="M10.73,7.87A1.36,1.36,0,0,1,9.38,6.52V4H5.75a1,1,0,0,0-1,1v8a1,1,0,0,0,1,1h6.5a1,1,0,0,0,1-1V7.87ZM7.92,12.58H6V10.67l.24-.24L8.18,8.51A1.08,1.08,0,0,1,9,8.19a1.1,1.1,0,0,1,.78.32l.35.35a1.11,1.11,0,0,1,0,1.56L8.16,12.34Zm2.85,0H9.47a.4.4,0,1,1,0-.8h1.3a.4.4,0,0,1,0,.8Z" />
</svg>