<svg xmlns="http://www.w3.org/2000/svg" viewBox="0 0 18 18">
  <g id="图层_2" data-name="图层 2">
    <g id="图层_1-2" data-name="图层 1">
      <g id="IconAomMenuGJKColor">
        <rect fill="#3b82f6" width="18" height="18" rx="4" />
        <path fill="#fff"
          d="M13,6H11.51V5.75A1.75,1.75,0,0,0,9.76,4H8.24A1.75,1.75,0,0,0,6.49,5.75V6H5A1,1,0,0,0,4,7V8.36H14V7A1,1,0,0,0,13,6ZM7.49,5.75A.76.76,0,0,1,8.24,5H9.76a.76.76,0,0,1,.75.75V6h-3Z" />
        <path fill="#fff" d="M10.06,9.38V9.16H7.94v.22a1.06,1.06,0,1,0,2.12,0Z" />
        <path fill="#fff"
          d="M10.86,9.38a1.86,1.86,0,1,1-3.72,0V9.16H4V13a1,1,0,0,0,1,1h8a1,1,0,0,0,1-1V9.16H10.86Z" />
      </g>
    </g>
  </g>
</svg>