<svg xmlns="http://www.w3.org/2000/svg" xmlns:xlink="http://www.w3.org/1999/xlink" fill="none" version="1.1" width="24" height="24" viewBox="0 0 24 24"><defs><clipPath id="master_svg0_732_33255"><rect x="0" y="0" width="24" height="24" rx="0"/></clipPath></defs><g clip-path="url(#master_svg0_732_33255)"><g><path d="M6.0304839999999995,4.969824L8.03033,6.96967Q8.135819999999999,7.07516,8.19291,7.21299Q8.25,7.35082,8.25,7.5Q8.25,7.573869999999999,8.23559,7.646319999999999Q8.22118,7.71877,8.19291,7.78701Q8.16464,7.8552599999999995,8.1236,7.9166799999999995Q8.08256,7.9780999999999995,8.03033,8.03033Q7.9780999999999995,8.08256,7.9166799999999995,8.1236Q7.8552599999999995,8.16464,7.78701,8.19291Q7.71877,8.22118,7.646319999999999,8.23559Q7.573869999999999,8.25,7.5,8.25Q7.35082,8.25,7.21299,8.19291Q7.07516,8.135819999999999,6.96967,8.03033L4.969824,6.0304839999999995L4.96967,6.03033Q4.864181,5.924841,4.80709,5.787013Q4.75,5.649184,4.75,5.5Q4.75,5.4261315,4.764411,5.353682Q4.778822,5.281233,4.80709,5.212987Q4.835359,5.144742,4.876398,5.083322Q4.917437,5.021903,4.96967,4.96967Q5.021903,4.917437,5.083322,4.876398Q5.144742,4.835359,5.212987,4.80709Q5.281233,4.778822,5.353682,4.764411Q5.4261315,4.75,5.5,4.75Q5.649184,4.75,5.787013,4.80709Q5.924841,4.864181,6.03033,4.96967L6.0304839999999995,4.969824Z" fill-rule="evenodd" fill="#DDBEF6" fill-opacity="1"/></g><g><path d="M15.53033,6.53033Q15.63582,6.424841,15.69291,6.287013Q15.75,6.149184,15.75,6Q15.75,5.9261315,15.73559,5.853682Q15.72118,5.781233,15.69291,5.712987Q15.66464,5.644742,15.6236,5.583322Q15.58256,5.521903,15.53033,5.46967Q15.4781,5.417437,15.41668,5.376398Q15.35526,5.335359,15.28701,5.30709Q15.21877,5.278822,15.14632,5.264411Q15.07387,5.25,15,5.25Q14.850816,5.25,14.712987,5.30709Q14.575159,5.364181,14.46967,5.46967L14.469516,5.469824L13.46967,6.46967Q13.364181,6.575159,13.30709,6.712987Q13.25,6.850816,13.25,7Q13.25,7.07387,13.264410999999999,7.14632Q13.278822,7.21877,13.30709,7.28701Q13.335359,7.3552599999999995,13.376398,7.4166799999999995Q13.417437,7.4780999999999995,13.46967,7.53033Q13.521903,7.58256,13.583322,7.6236Q13.644742,7.66464,13.712987,7.6929099999999995Q13.781233,7.72118,13.853682,7.73559Q13.9261315,7.75,14,7.75Q14.149184,7.75,14.287013,7.6929099999999995Q14.424841,7.63582,14.53033,7.53033L14.530484,7.53018L15.53018,6.5304839999999995L15.53033,6.53033Z" fill-rule="evenodd" fill="#DDBEF6" fill-opacity="1"/></g><g><path d="M13.414348,13.468521Q13.334557,13.368783,13.292279,13.248255Q13.25,13.127728,13.25,13Q13.25,12.9261315,13.264410999999999,12.853682Q13.278822,12.781233,13.30709,12.712987Q13.335359,12.644742,13.376398,12.583322Q13.417437,12.521903,13.46967,12.46967Q13.521903,12.417437,13.583322,12.376398Q13.644742,12.335359,13.712987,12.30709Q13.781233,12.278822,13.853682,12.264410999999999Q13.9261315,12.25,14,12.25Q14.0843583,12.25,14.166609,12.26874Q14.248859,12.287479,14.324892,12.324023Q14.400924,12.360566,14.466939,12.413086Q14.532953,12.465606,14.585652,12.531479L17.58565,16.281480000000002Q17.66544,16.38122,17.707720000000002,16.50175Q17.75,16.62227,17.75,16.75Q17.75,16.82387,17.735590000000002,16.89632Q17.72118,16.96877,17.69291,17.037010000000002Q17.66464,17.10526,17.6236,17.16668Q17.58256,17.2281,17.53033,17.28033Q17.4781,17.33256,17.41668,17.3736Q17.35526,17.41464,17.28701,17.44291Q17.21877,17.47118,17.14632,17.485590000000002Q17.07387,17.5,17,17.5Q16.91564,17.5,16.83339,17.48126Q16.75114,17.462519999999998,16.67511,17.42598Q16.59908,17.38943,16.53306,17.33691Q16.46705,17.284390000000002,16.41435,17.218519999999998L16.41413,17.21825L13.414348,13.468521L13.414348,13.468521Z" fill-rule="evenodd" fill="#DDBEF6" fill-opacity="1"/></g><g><path d="M9.53033,14.03033Q9.635819999999999,13.924841,9.69291,13.787013Q9.75,13.649184,9.75,13.5Q9.75,13.4261315,9.73559,13.353682Q9.72118,13.281233,9.69291,13.212987Q9.66464,13.144742,9.6236,13.083322Q9.58256,13.021903,9.53033,12.96967Q9.4781,12.917437,9.41668,12.876398Q9.35526,12.835359,9.28701,12.80709Q9.21877,12.778822,9.14632,12.764410999999999Q9.07387,12.75,9,12.75Q8.85082,12.75,8.71299,12.80709Q8.57516,12.864181,8.46967,12.96967L8.46952,12.969824L6.469824,14.96952L6.46967,14.96967Q6.364181,15.07516,6.30709,15.21299Q6.25,15.35082,6.25,15.5Q6.25,15.57387,6.264411,15.64632Q6.278822,15.71877,6.30709,15.78701Q6.335359,15.85526,6.376398,15.91668Q6.417437,15.9781,6.46967,16.03033Q6.521903,16.08256,6.583322,16.1236Q6.644742,16.16464,6.712987,16.19291Q6.781233,16.22118,6.853682,16.235590000000002Q6.9261315,16.25,7,16.25Q7.149184,16.25,7.287013,16.19291Q7.424841,16.13582,7.53033,16.03033L9.53033,14.03033L9.53033,14.03033Z" fill-rule="evenodd" fill="#DDBEF6" fill-opacity="1"/></g><g><path d="M6,4Q6,4.09825,5.99037,4.19603Q5.98074,4.293810000000001,5.96157,4.39018Q5.9424,4.486549999999999,5.91388,4.58057Q5.88536,4.67459,5.84776,4.76537Q5.81016,4.85614,5.76384,4.9427900000000005Q5.71753,5.029450000000001,5.66294,5.11114Q5.60835,5.19284,5.54602,5.26879Q5.48369,5.34474,5.414210000000001,5.414210000000001Q5.34474,5.48369,5.26879,5.54602Q5.19284,5.60835,5.11114,5.66294Q5.029450000000001,5.71753,4.9427900000000005,5.76384Q4.85614,5.81016,4.76537,5.84776Q4.67459,5.88536,4.58057,5.91388Q4.486549999999999,5.9424,4.39018,5.96157Q4.293810000000001,5.98074,4.19603,5.99037Q4.09825,6,4,6Q3.90175,6,3.80397,5.99037Q3.7061900000000003,5.98074,3.60982,5.96157Q3.5134499999999997,5.9424,3.41943,5.91388Q3.3254099999999998,5.88536,3.23463,5.84776Q3.14386,5.81016,3.05721,5.76384Q2.970554,5.71753,2.888859,5.66294Q2.807164,5.60835,2.731213,5.54602Q2.655262,5.48369,2.585786,5.414210000000001Q2.516311,5.34474,2.453979,5.26879Q2.391648,5.19284,2.337061,5.11114Q2.282474,5.029450000000001,2.236157,4.9427900000000005Q2.189841,4.85614,2.152241,4.76537Q2.114641,4.67459,2.0861193,4.58057Q2.0575978,4.486549999999999,2.0384294,4.39018Q2.0192611,4.293810000000001,2.00963055,4.19603Q2,4.09825,2,4Q2,3.90175,2.00963055,3.80397Q2.0192611,3.7061900000000003,2.0384294,3.60982Q2.0575978,3.5134499999999997,2.0861193,3.41943Q2.114641,3.3254099999999998,2.152241,3.23463Q2.189841,3.14386,2.236157,3.05721Q2.282474,2.970554,2.337061,2.888859Q2.391648,2.807164,2.453979,2.731213Q2.516311,2.655262,2.585786,2.585786Q2.655262,2.516311,2.731213,2.453979Q2.807164,2.391648,2.888859,2.337061Q2.970554,2.282474,3.05721,2.236157Q3.14386,2.189841,3.23463,2.152241Q3.3254099999999998,2.114641,3.41943,2.0861193Q3.5134499999999997,2.0575978,3.60982,2.0384294Q3.7061900000000003,2.0192611,3.80397,2.00963055Q3.90175,2,4,2Q4.09825,2,4.19603,2.00963055Q4.293810000000001,2.0192611,4.39018,2.0384294Q4.486549999999999,2.0575978,4.58057,2.0861193Q4.67459,2.114641,4.76537,2.152241Q4.85614,2.189841,4.9427900000000005,2.236157Q5.029450000000001,2.282474,5.11114,2.337061Q5.19284,2.391648,5.26879,2.453979Q5.34474,2.516311,5.414210000000001,2.585786Q5.48369,2.655262,5.54602,2.731213Q5.60835,2.807164,5.66294,2.888859Q5.71753,2.970554,5.76384,3.05721Q5.81016,3.14386,5.84776,3.23463Q5.88536,3.3254099999999998,5.91388,3.41943Q5.9424,3.5134499999999997,5.96157,3.60982Q5.98074,3.7061900000000003,5.99037,3.80397Q6,3.90175,6,4Z" fill="#8D4EDA" fill-opacity="1"/><path d="M2.0554563,2.0554562Q1.25,2.860913,1.25,4Q1.25,5.13907,2.0554544,5.94453Q2.860914,6.75,4,6.75Q5.13907,6.75,5.94454,5.94454Q6.75,5.13907,6.75,4Q6.75,2.860915,5.94453,2.0554544Q5.13907,1.25,4,1.25Q2.860913,1.25,2.0554563,2.0554562ZM3.11612,4.8838799999999996Q2.75,4.51776,2.75,4Q2.75,3.48223,3.11612,3.11612Q3.48223,2.75,4,2.75Q4.51776,2.75,4.8838799999999996,3.11612Q5.25,3.48224,5.25,4Q5.25,4.5177499999999995,4.8838799999999996,4.8838799999999996Q4.5177499999999995,5.25,4,5.25Q3.48224,5.25,3.11612,4.8838799999999996Z" fill-rule="evenodd" fill="#8D4EDA" fill-opacity="1"/></g><g><path d="M8,18Q8,18.14738,7.98555,18.29405Q7.97111,18.44072,7.94235,18.58527Q7.9136,18.72982,7.87082,18.87085Q7.82804,19.01189,7.77164,19.148049999999998Q7.71524,19.28421,7.64576,19.414189999999998Q7.57629,19.54417,7.49441,19.666710000000002Q7.41253,19.78925,7.31903,19.90318Q7.22553,20.01711,7.12132,20.12132Q7.01711,20.22553,6.90318,20.319029999999998Q6.78925,20.41253,6.66671,20.494410000000002Q6.54417,20.57629,6.41419,20.64576Q6.28421,20.71524,6.14805,20.771639999999998Q6.01189,20.82804,5.87085,20.870820000000002Q5.72982,20.9136,5.5852699999999995,20.94236Q5.44072,20.97111,5.29405,20.98555Q5.14738,21,5,21Q4.85262,21,4.70595,20.98555Q4.55928,20.97111,4.4147300000000005,20.94235Q4.27018,20.9136,4.12915,20.870820000000002Q3.98811,20.82804,3.85195,20.771639999999998Q3.71579,20.71524,3.58581,20.64576Q3.4558299999999997,20.57629,3.33329,20.494410000000002Q3.21075,20.41253,3.09682,20.319029999999998Q2.982893,20.22553,2.87868,20.12132Q2.774466,20.01711,2.680969,19.90318Q2.587471,19.78925,2.505591,19.666710000000002Q2.423711,19.54417,2.354236,19.414189999999998Q2.284761,19.28421,2.228361,19.148049999999998Q2.171961,19.01189,2.129179,18.87085Q2.0863967,18.72982,2.0576442,18.58527Q2.0288916,18.44072,2.0144458,18.29405Q2,18.14738,2,18Q2,17.85262,2.0144458,17.70595Q2.0288916,17.55928,2.0576442,17.41473Q2.0863967,17.27018,2.129179,17.12915Q2.171961,16.98811,2.228361,16.85195Q2.284761,16.71579,2.354236,16.58581Q2.423711,16.45583,2.505591,16.33329Q2.587471,16.21075,2.680969,16.09682Q2.774466,15.982893,2.87868,15.87868Q2.982893,15.774466,3.09682,15.680969Q3.21075,15.587471,3.33329,15.505591Q3.4558299999999997,15.423711,3.58581,15.354236Q3.71579,15.284761,3.85195,15.228361Q3.98811,15.171961,4.12915,15.129179Q4.27018,15.0863967,4.4147300000000005,15.0576442Q4.55928,15.0288916,4.70595,15.0144458Q4.85262,15,5,15Q5.14738,15,5.29405,15.0144458Q5.44072,15.0288916,5.5852699999999995,15.0576442Q5.72982,15.0863967,5.87085,15.129179Q6.01189,15.171961,6.14805,15.228361Q6.28421,15.284761,6.41419,15.354236Q6.54417,15.423711,6.66671,15.505591Q6.78925,15.587471,6.90318,15.680969Q7.01711,15.774466,7.12132,15.87868Q7.22553,15.982893,7.31903,16.09682Q7.41253,16.21075,7.49441,16.33329Q7.57629,16.45583,7.64576,16.58581Q7.71524,16.71579,7.77164,16.85195Q7.82804,16.98811,7.87082,17.12915Q7.9136,17.27018,7.94236,17.41473Q7.97111,17.55928,7.98555,17.70595Q8,17.85262,8,18Z" fill="#8D4EDA" fill-opacity="1"/><path d="M2.348349,15.348351Q1.25,16.4467,1.25,18Q1.25,19.5533,2.348349,20.65165Q3.4467,21.75,5,21.75Q6.5533,21.75,7.65165,20.65165Q8.75,19.5533,8.75,18Q8.75,16.4467,7.65165,15.348351Q6.5533,14.25,5,14.25Q3.4467,14.25,2.348349,15.348351ZM3.4090100000000003,19.590989999999998Q2.75,18.93198,2.75,18Q2.75,17.06802,3.4090100000000003,16.40901Q4.068020000000001,15.75,5,15.75Q5.931979999999999,15.75,6.59099,16.40901Q7.25,17.06802,7.25,18Q7.25,18.93198,6.59099,19.590989999999998Q5.931979999999999,20.25,5,20.25Q4.068020000000001,20.25,3.4090100000000003,19.590989999999998Z" fill-rule="evenodd" fill="#8D4EDA" fill-opacity="1"/></g><g><path d="M22,19Q22,19.14738,21.98555,19.29405Q21.97111,19.44072,21.94235,19.58527Q21.9136,19.72982,21.870820000000002,19.87085Q21.82804,20.01189,21.771639999999998,20.148049999999998Q21.71524,20.28421,21.64576,20.414189999999998Q21.57629,20.54417,21.494410000000002,20.666710000000002Q21.41253,20.78925,21.319029999999998,20.90318Q21.22553,21.01711,21.12132,21.12132Q21.01711,21.22553,20.90318,21.319029999999998Q20.78925,21.41253,20.666710000000002,21.494410000000002Q20.54417,21.57629,20.414189999999998,21.64576Q20.28421,21.71524,20.148049999999998,21.771639999999998Q20.01189,21.82804,19.87085,21.870820000000002Q19.72982,21.9136,19.58527,21.94236Q19.44072,21.97111,19.29405,21.98555Q19.14738,22,19,22Q18.85262,22,18.70595,21.98555Q18.55928,21.97111,18.41473,21.94235Q18.27018,21.9136,18.12915,21.870820000000002Q17.98811,21.82804,17.85195,21.771639999999998Q17.71579,21.71524,17.58581,21.64576Q17.45583,21.57629,17.33329,21.494410000000002Q17.21075,21.41253,17.09682,21.319029999999998Q16.982893,21.22553,16.87868,21.12132Q16.774466,21.01711,16.680969,20.90318Q16.587471,20.78925,16.505591,20.666710000000002Q16.423711,20.54417,16.354236,20.414189999999998Q16.284761,20.28421,16.228361,20.148049999999998Q16.171961,20.01189,16.129179,19.87085Q16.0863967,19.72982,16.0576442,19.58527Q16.0288916,19.44072,16.0144458,19.29405Q16,19.14738,16,19Q16,18.85262,16.0144458,18.70595Q16.0288916,18.55928,16.0576442,18.41473Q16.0863967,18.27018,16.129179,18.12915Q16.171961,17.98811,16.228361,17.85195Q16.284761,17.71579,16.354236,17.58581Q16.423711,17.45583,16.505591,17.33329Q16.587471,17.21075,16.680969,17.09682Q16.774466,16.982893,16.87868,16.87868Q16.982893,16.774466,17.09682,16.680969Q17.21075,16.587471,17.33329,16.505591Q17.45583,16.423711,17.58581,16.354236Q17.71579,16.284761,17.85195,16.228361Q17.98811,16.171961,18.12915,16.129179Q18.27018,16.0863967,18.41473,16.0576442Q18.55928,16.0288916,18.70595,16.0144458Q18.85262,16,19,16Q19.14738,16,19.29405,16.0144458Q19.44072,16.0288916,19.58527,16.0576442Q19.72982,16.0863967,19.87085,16.129179Q20.01189,16.171961,20.148049999999998,16.228361Q20.28421,16.284761,20.414189999999998,16.354236Q20.54417,16.423711,20.666710000000002,16.505591Q20.78925,16.587471,20.90318,16.680969Q21.01711,16.774466,21.12132,16.87868Q21.22553,16.982893,21.319029999999998,17.09682Q21.41253,17.21075,21.494410000000002,17.33329Q21.57629,17.45583,21.64576,17.58581Q21.71524,17.71579,21.771639999999998,17.85195Q21.82804,17.98811,21.870820000000002,18.12915Q21.9136,18.27018,21.94236,18.41473Q21.97111,18.55928,21.98555,18.70595Q22,18.85262,22,19Z" fill="#8D4EDA" fill-opacity="1"/><path d="M16.348349,16.348351Q15.25,17.4467,15.25,19Q15.25,20.5533,16.348349,21.65165Q17.4467,22.75,19,22.75Q20.5533,22.75,21.65165,21.65165Q22.75,20.5533,22.75,19Q22.75,17.4467,21.65165,16.348351Q20.5533,15.25,19,15.25Q17.4467,15.25,16.348349,16.348351ZM17.40901,20.590989999999998Q16.75,19.93198,16.75,19Q16.75,18.06802,17.40901,17.40901Q18.06802,16.75,19,16.75Q19.93198,16.75,20.590989999999998,17.40901Q21.25,18.06802,21.25,19Q21.25,19.93198,20.590989999999998,20.590989999999998Q19.93198,21.25,19,21.25Q18.06802,21.25,17.40901,20.590989999999998Z" fill-rule="evenodd" fill="#8D4EDA" fill-opacity="1"/></g><g><path d="M15,10Q15,10.19651,14.98074,10.39207Q14.96148,10.58763,14.92314,10.78036Q14.8848,10.97309,14.82776,11.16114Q14.77072,11.34918,14.69552,11.53073Q14.62032,11.71228,14.52768,11.88559Q14.43505,12.05889,14.32588,12.22228Q14.2167,12.385670000000001,14.09204,12.537569999999999Q13.96738,12.68948,13.82843,12.82843Q13.68948,12.96738,13.537569999999999,13.09204Q13.385670000000001,13.2167,13.22228,13.32588Q13.05889,13.43505,12.88559,13.52768Q12.71228,13.62032,12.53073,13.69552Q12.34918,13.77072,12.16114,13.82776Q11.97309,13.8848,11.78036,13.92314Q11.58763,13.96148,11.39207,13.98074Q11.19651,14,11,14Q10.80349,14,10.60793,13.98074Q10.41237,13.96148,10.21964,13.92314Q10.02691,13.8848,9.83886,13.82776Q9.65082,13.77072,9.46927,13.69552Q9.28772,13.62032,9.11441,13.52768Q8.94111,13.43505,8.77772,13.32588Q8.61433,13.2167,8.46243,13.09204Q8.31052,12.96738,8.17157,12.82843Q8.03262,12.68948,7.907958,12.537569999999999Q7.783295,12.385670000000001,7.6741209999999995,12.22228Q7.564948,12.05889,7.472315,11.88559Q7.379682,11.71228,7.304482,11.53073Q7.229282,11.34918,7.172239,11.16114Q7.115196,10.97309,7.0768589,10.78036Q7.0385222,10.58763,7.0192611,10.39207Q7,10.19651,7,10Q7,9.80349,7.0192611,9.60793Q7.0385222,9.41237,7.0768589,9.21964Q7.115196,9.02691,7.172239,8.83886Q7.229282,8.65082,7.304482,8.46927Q7.379682,8.28772,7.472315,8.11441Q7.564948,7.94111,7.6741209999999995,7.77772Q7.783295,7.61433,7.907958,7.4624299999999995Q8.03262,7.31052,8.17157,7.17157Q8.31052,7.03262,8.46243,6.907958Q8.61433,6.783295,8.77772,6.6741209999999995Q8.94111,6.564948,9.11441,6.472315Q9.28772,6.379682,9.46927,6.304482Q9.65082,6.229282,9.83886,6.172239Q10.02691,6.115196,10.21964,6.0768589Q10.41237,6.0385222,10.60793,6.0192611Q10.80349,6,11,6Q11.19651,6,11.39207,6.0192611Q11.58763,6.0385222,11.78036,6.0768589Q11.97309,6.115196,12.16114,6.172239Q12.34918,6.229282,12.53073,6.304482Q12.71228,6.379682,12.88559,6.472315Q13.05889,6.564948,13.22228,6.6741209999999995Q13.385670000000001,6.783295,13.537569999999999,6.907958Q13.68948,7.03262,13.82843,7.17157Q13.96738,7.31052,14.09204,7.4624299999999995Q14.2167,7.61433,14.32588,7.77772Q14.43505,7.94111,14.52768,8.11441Q14.62032,8.28772,14.69552,8.46927Q14.77072,8.65082,14.82776,8.83886Q14.8848,9.02691,14.92314,9.21964Q14.96148,9.41237,14.98074,9.60793Q15,9.80349,15,10Z" fill="#8D4EDA" fill-opacity="1"/><path d="M7.641239,6.641239Q6.25,8.03248,6.25,10Q6.25,11.96752,7.641239,13.35876Q9.03248,14.75,11,14.75Q12.96752,14.75,14.35876,13.35876Q15.75,11.96752,15.75,10Q15.75,8.03248,14.35876,6.641239Q12.96752,5.25,11,5.25Q9.03248,5.25,7.641239,6.641239ZM8.7019,12.2981Q7.75,11.3462,7.75,10Q7.75,8.6538,8.7019,7.7019Q9.6538,6.75,11,6.75Q12.3462,6.75,13.2981,7.7019Q14.25,8.6538,14.25,10Q14.25,11.3462,13.2981,12.2981Q12.3462,13.25,11,13.25Q9.6538,13.25,8.7019,12.2981Z" fill-rule="evenodd" fill="#8D4EDA" fill-opacity="1"/></g><g><path d="M19,4Q19,4.09825,18.99037,4.19603Q18.98074,4.293810000000001,18.961570000000002,4.39018Q18.9424,4.486549999999999,18.91388,4.58057Q18.88536,4.67459,18.84776,4.76537Q18.81016,4.85614,18.763840000000002,4.9427900000000005Q18.71753,5.029450000000001,18.66294,5.11114Q18.60835,5.19284,18.54602,5.26879Q18.48369,5.34474,18.41421,5.414210000000001Q18.34474,5.48369,18.26879,5.54602Q18.19284,5.60835,18.11114,5.66294Q18.02945,5.71753,17.94279,5.76384Q17.85614,5.81016,17.76537,5.84776Q17.67459,5.88536,17.58057,5.91388Q17.48655,5.9424,17.39018,5.96157Q17.29381,5.98074,17.19603,5.99037Q17.09825,6,17,6Q16.90175,6,16.80397,5.99037Q16.70619,5.98074,16.60982,5.96157Q16.51345,5.9424,16.41943,5.91388Q16.32541,5.88536,16.23463,5.84776Q16.14386,5.81016,16.05721,5.76384Q15.970554,5.71753,15.888859,5.66294Q15.807164,5.60835,15.731213,5.54602Q15.655262,5.48369,15.585786,5.414210000000001Q15.516311,5.34474,15.453979,5.26879Q15.391648,5.19284,15.337061,5.11114Q15.282474,5.029450000000001,15.236157,4.9427900000000005Q15.189841,4.85614,15.152241,4.76537Q15.114641,4.67459,15.0861193,4.58057Q15.0575978,4.486549999999999,15.0384294,4.39018Q15.0192611,4.293810000000001,15.00963055,4.19603Q15,4.09825,15,4Q15,3.90175,15.00963055,3.80397Q15.0192611,3.7061900000000003,15.0384294,3.60982Q15.0575978,3.5134499999999997,15.0861193,3.41943Q15.114641,3.3254099999999998,15.152241,3.23463Q15.189841,3.14386,15.236157,3.05721Q15.282474,2.970554,15.337061,2.888859Q15.391648,2.807164,15.453979,2.731213Q15.516311,2.655262,15.585786,2.585786Q15.655262,2.516311,15.731213,2.453979Q15.807164,2.391648,15.888859,2.337061Q15.970554,2.282474,16.05721,2.236157Q16.14386,2.189841,16.23463,2.152241Q16.32541,2.114641,16.41943,2.0861193Q16.51345,2.0575978,16.60982,2.0384294Q16.70619,2.0192611,16.80397,2.00963055Q16.90175,2,17,2Q17.09825,2,17.19603,2.00963055Q17.29381,2.0192611,17.39018,2.0384294Q17.48655,2.0575978,17.58057,2.0861193Q17.67459,2.114641,17.76537,2.152241Q17.85614,2.189841,17.94279,2.236157Q18.02945,2.282474,18.11114,2.337061Q18.19284,2.391648,18.26879,2.453979Q18.34474,2.516311,18.41421,2.585786Q18.48369,2.655262,18.54602,2.731213Q18.60835,2.807164,18.66294,2.888859Q18.71753,2.970554,18.763840000000002,3.05721Q18.81016,3.14386,18.84776,3.23463Q18.88536,3.3254099999999998,18.91388,3.41943Q18.9424,3.5134499999999997,18.961570000000002,3.60982Q18.98074,3.7061900000000003,18.99037,3.80397Q19,3.90175,19,4Z" fill="#8D4EDA" fill-opacity="1"/><path d="M15.0554653,2.0554544Q14.25,2.860914,14.25,4Q14.25,5.13907,15.0554635,5.94454Q15.860927,6.75,17,6.75Q18.13907,6.75,18.94454,5.94454Q19.75,5.13907,19.75,4Q19.75,2.860914,18.94453,2.0554544Q18.13907,1.25,17,1.25Q15.860925,1.25,15.0554653,2.0554544ZM16.11612,4.8838799999999996Q15.75,4.5177499999999995,15.75,4Q15.75,3.48224,16.11612,3.11612Q16.48224,2.75,17,2.75Q17.51776,2.75,17.88388,3.11612Q18.25,3.48224,18.25,4Q18.25,4.5177499999999995,17.88388,4.8838799999999996Q17.51775,5.25,17,5.25Q16.48225,5.25,16.11612,4.8838799999999996Z" fill-rule="evenodd" fill="#8D4EDA" fill-opacity="1"/></g></g></svg>