<svg id="图层_1" data-name="图层 1" xmlns="http://www.w3.org/2000/svg" viewBox="0 0 18 18">
  <defs>
    <style>
      .zkhdfk991 {
        fill: #f0953a;
      }

      .zkhdfk992 {
        fill: #fff;
      }
    </style>
  </defs>
  <g id="IconAomMenuCSGLColor">
    <rect class="zkhdfk991" width="18" height="18" rx="4" />
  </g>
  <path class="zkhdfk992" d="M7.18,4.64h3.64a.52.52,0,0,0,0-1H7.18a.52.52,0,0,0,0,1Z" />
  <path class="zkhdfk992"
    d="M12.48,6.76l.58-.58a.52.52,0,1,0-.74-.74l-.61.62a4.57,4.57,0,0,0-5.42,0l-.61-.62a.52.52,0,0,0-.74.74l.58.58a4.61,4.61,0,1,0,7,0ZM11.15,11.1a.44.44,0,0,1-.37.2.46.46,0,0,1-.23-.06L8.78,10.15a.41.41,0,0,1-.21-.36V7.28a.43.43,0,1,1,.86,0V9.54l1.57,1A.44.44,0,0,1,11.15,11.1Z" />
</svg>