<svg xmlns="http://www.w3.org/2000/svg" xmlns:xlink="http://www.w3.org/1999/xlink" fill="none" version="1.1" width="24" height="24" viewBox="0 0 24 24"><defs><clipPath id="master_svg0_732_36714"><rect x="0" y="0" width="24" height="24" rx="0"/></clipPath></defs><g clip-path="url(#master_svg0_732_36714)"><g><path d="M5.507000085830688,4.048C6.076990085830689,3.382835,6.909140085830689,3,7.7850000858306885,3L16.215000085830688,3C17.09090008583069,3.000026226,17.92310008583069,3.382862,18.493000085830687,4.048L20.215000085830688,6.056C19.97850008583069,6.01848,19.739400085830688,5.999750000000001,19.50000008583069,6L4.500000085830688,6C4.257000085830688,6,4.018000085830688,6.02,3.7850000858306885,6.056L5.507000085830688,4.048Z" fill="#DDBEF6" fill-opacity="1"/></g><g><path d="M1.5,10.5C1.5,8.84315,2.84315,7.5,4.5,7.5L19.5,7.5C21.1569,7.5,22.5,8.84315,22.5,10.5C22.5,12.15685,21.1569,13.5,19.5,13.5L4.5,13.5C2.84315,13.5,1.5,12.15685,1.5,10.5ZM6.5,10.5C6.5,10.91421,6.16421,11.25,5.75,11.25C5.335789999999999,11.25,5,10.91421,5,10.5C5,10.08579,5.335789999999999,9.75,5.75,9.75C6.16421,9.75,6.5,10.08579,6.5,10.5ZM8.75,11.25C9.16421,11.25,9.5,10.91421,9.5,10.5C9.5,10.08579,9.16421,9.75,8.75,9.75C8.33579,9.75,8,10.08579,8,10.5C8,10.91421,8.33579,11.25,8.75,11.25ZM4.5,15C2.84315,15,1.5,16.34315,1.5,18C1.5,19.6569,2.84315,21,4.5,21L19.5,21C21.1569,21,22.5,19.6569,22.5,18C22.5,16.34315,21.1569,15,19.5,15L4.5,15ZM5.75,18.75C6.16421,18.75,6.5,18.4142,6.5,18C6.5,17.5858,6.16421,17.25,5.75,17.25C5.335789999999999,17.25,5,17.5858,5,18C5,18.4142,5.335789999999999,18.75,5.75,18.75ZM9.5,18C9.5,18.4142,9.16421,18.75,8.75,18.75C8.33579,18.75,8,18.4142,8,18C8,17.5858,8.33579,17.25,8.75,17.25C9.16421,17.25,9.5,17.5858,9.5,18Z" fill-rule="evenodd" fill="#8D4EDA" fill-opacity="1"/></g><g><g><path d="M18.499998344726563,15.380126953125C17.650508344726564,16.186839953125,16.519178344726562,16.629296953125,15.347784344726563,16.612946953125C15.198777644726562,17.066906953125,15.123043805726562,17.541696953125,15.123429775906562,18.019476953125C15.123429775906562,20.117446953125,16.558098344726563,21.880016953125,18.499998344726563,22.380126953125C20.44189834472656,21.880396953125,21.876568344726564,20.117826953125,21.876568344726564,18.019856953125C21.876568344726564,17.528376953125,21.797778344726563,17.055276953125,21.652208344726564,16.612576953125L21.595188344726562,16.612576953125C20.396128344726563,16.612576953125,19.306618344726562,16.144356953125,18.499998344726563,15.380126953125Z" fill="#FFFFFF" fill-opacity="1"/><path d="M18.12589834472656,23.832726953125Q18.49985834472656,23.929036953125,18.87382834472656,23.832796953124998Q20.837648344726563,23.327426953125,22.095928344726563,21.726116953125Q23.376568344726564,20.096366953125,23.376568344726564,18.019856953125Q23.376568344726564,17.054606953125,23.077158344726563,16.144033953125Q23.040388344726562,16.032202953125,22.986618344726562,15.927477953125Q22.932848344726562,15.822752953125,22.86340834472656,15.727697953125Q22.793958344726562,15.632642953125,22.71053834472656,15.549584953125Q22.62710834472656,15.466526753125,22.531758344726562,15.397499853125Q22.436398344726562,15.328472953125,22.331438344726564,15.275166953125Q22.226478344726562,15.221861953125,22.114478344726564,15.185581953125Q22.00248834472656,15.149302953125,21.886208344726562,15.130938953125Q21.769928344726562,15.112573953125,21.652208344726564,15.112573953125L21.595188344726562,15.112573953125Q20.398558344726563,15.112573953125,19.531658344726562,14.291236953125Q19.47996834472656,14.242256953125,19.423868344726564,14.198406953125Q19.367768344726564,14.154546953125,19.30775834472656,14.116196953125Q19.247758344726563,14.077846953125,19.184398344726564,14.045356953125Q19.12102834472656,14.012866953125,19.05486834472656,13.986526953125Q18.988718344726564,13.960186953125,18.920358344726562,13.940236953125Q18.852008344726563,13.920276953125,18.78206834472656,13.906886953125Q18.712128344726562,13.893496953125,18.641228344726564,13.886786953125Q18.57033834472656,13.880086953125,18.499128344726564,13.880126953125Q18.427918344726564,13.880166953125,18.35703834472656,13.886956953125Q18.286148344726563,13.893736953125,18.216228344726563,13.907216953125Q18.146308344726563,13.920686953125,18.077968344726564,13.940716953125Q18.00963834472656,13.960756953125,17.943508344726563,13.987166953125Q17.877388344726562,14.013586953125,17.81405834472656,14.046156953125Q17.75072834472656,14.078716953125,17.690768344726564,14.117136953125Q17.630818344726563,14.155546953125,17.574768344726564,14.199476953125Q17.51871834472656,14.243396953125,17.467078344726563,14.292426953125Q16.585018344726564,15.130071953125,15.368717344726562,15.113095953125Q15.249643344726563,15.111433953125,15.131798194726562,15.128580953125Q15.013953344726563,15.145727953125,14.900290344726562,15.181254953125Q14.786627344726563,15.216781953125,14.679993344726562,15.269797953125Q14.573360344726563,15.322814253125,14.476427344726563,15.391991853125Q14.379494344726563,15.461169353125,14.294691344726562,15.544774953125Q14.209888344726563,15.628380953125,14.139339344726562,15.724319953125Q14.068788344726563,15.820258953125,14.014268344726563,15.926127953125Q13.959738344726563,16.031996953125,13.922598344726563,16.145142953125Q13.622658344726563,17.058936953125,13.623428344726562,18.020686953125Q13.623428344726562,20.095936953125,14.904035344726562,21.725746953125Q16.162198344726562,23.327006953125,18.12589834472656,23.832726953125ZM18.50013834472656,20.813646953125Q16.623428344726562,20.145576953125,16.623428344726562,18.018266953125L16.62346834472656,18.000726953125Q17.62927834472656,17.804516953125,18.50154834472656,17.266836953125Q19.371568344726562,17.800926953125,20.37648834472656,17.997736953125Q20.376568344726564,18.008766953125,20.376568344726564,18.019856953125Q20.376568344726564,20.146076953125,18.50013834472656,20.813646953125Z" fill-rule="evenodd" fill="#FFFFFF" fill-opacity="1"/></g><g><path d="M18.499998344726563,15.380126953125C17.650508344726564,16.186839953125,16.519178344726562,16.629296953125,15.347784344726563,16.612946953125C15.198777644726562,17.066906953125,15.123043805726562,17.541696953125,15.123429775906562,18.019476953125C15.123429775906562,20.117446953125,16.558098344726563,21.880016953125,18.499998344726563,22.380126953125C20.44189834472656,21.880396953125,21.876568344726564,20.117826953125,21.876568344726564,18.019856953125C21.876568344726564,17.528376953125,21.797778344726563,17.055276953125,21.652208344726564,16.612576953125L21.595188344726562,16.612576953125C20.396128344726563,16.612576953125,19.306618344726562,16.144356953125,18.499998344726563,15.380126953125Z" fill="#8D4EDA" fill-opacity="1"/><path d="M18.375298344726563,22.864326953125Q18.499948344726562,22.896426953125,18.624608344726564,22.864346953125Q20.260538344726562,22.443356953125,21.30963834472656,21.108256953125Q22.376568344726564,19.750476953125002,22.376568344726564,18.019856953125Q22.376568344726564,17.214786953125,22.127198344726562,16.456396953125Q22.10252834472656,16.381376953125,22.055948344726563,16.317615953125Q22.009358344726564,16.253852953125,21.945388344726563,16.207549953125Q21.88142834472656,16.161245953125,21.806298344726564,16.136909953125Q21.731178344726562,16.112573953125,21.652208344726564,16.112573953125L21.595188344726562,16.112573953125Q20.00005834472656,16.112573953125,18.84388834472656,15.017163953125Q18.809348344726562,14.984439953125,18.769248344726563,14.958816953125Q18.729158344726564,14.933194953125,18.684958344726564,14.915593953125Q18.64074834472656,14.897993953125,18.594018344726564,14.889046953125Q18.547288344726564,14.880099953125,18.499708344726564,14.880126953125Q18.452128344726564,14.880154953125,18.405408344726563,14.889155953125Q18.358688344726563,14.898156953125,18.314498344726562,14.915808953125Q18.27031834472656,14.933459953125,18.23025834472656,14.959128953125Q18.19019834472656,14.984797953125,18.155688344726563,15.017561953125Q16.97829834472656,16.135657953125,15.354761344726562,16.112997953125Q15.274875344726562,16.111882953125,15.198619244726563,16.135717953125Q15.122363254726562,16.159552953125,15.057331644726563,16.205963953125Q14.992300344726562,16.252374953125,14.944969344726562,16.316739953125Q14.897638344726563,16.381106953125,14.872721344726562,16.457016953125Q14.622782344726563,17.218466953125,14.623430344726563,18.019876953125Q14.623429344726562,19.750066953125,15.690345344726563,21.107916953125Q16.739388344726564,22.443026953125,18.375298344726563,22.864326953125ZM18.50004834472656,21.861856953125Q17.276208344726562,21.507666953125,16.476658344726562,20.490086953125Q15.623429344726562,19.404196953125002,15.623429344726562,18.019076953125Q15.623053344726562,17.553626953125,15.728340344726563,17.105036953125Q17.288108344726563,17.018536953125,18.500448344726564,16.043678953125Q19.709918344726564,17.013196953125,21.271378344726564,17.103336953125Q21.376568344726564,17.551396953125,21.376568344726564,18.019856953125Q21.376568344726564,19.404586953125,20.523348344726564,20.490406953125Q19.723808344726564,21.507916953125,18.50004834472656,21.861856953125Z" fill-rule="evenodd" fill="#8D4EDA" fill-opacity="1"/></g><g><path d="M17.374473571777344,19.145331153411867L18.218615571777345,19.989471153411866L19.625523571777343,18.019811153411865" fill="#8D4EDA" fill-opacity="1"/><path d="M20.040003571777344,18.365932153411865Q20.100823571777344,18.293101153411865,20.133173571777345,18.203899153411864Q20.165513571777343,18.114696953411865,20.165523571777342,18.019811153411865Q20.165513571777343,17.966625753411865,20.155143571777344,17.914462153411865Q20.144763571777343,17.862299153411865,20.124413571777342,17.813162153411866Q20.104063571777345,17.764025153411865,20.074513571777345,17.719803153411867Q20.044963571777345,17.675581153411866,20.007353571777344,17.637973153411867Q19.969743571777343,17.600366153411866,19.925523571777344,17.570817153411866Q19.881303571777345,17.541269153411864,19.832163571777343,17.520916153411864Q19.783033571777345,17.500563153411864,19.730863571777345,17.490187153411867Q19.678703571777344,17.479811153411866,19.625523571777343,17.479811153411866Q19.555873571777344,17.479811153411866,19.488513571777343,17.497479153411867Q19.421153571777342,17.515148153411864,19.360483571777344,17.549328153411864Q19.299803571777343,17.583509153411864,19.249783571777343,17.631965153411866Q19.199763571777343,17.680421153411864,19.163683571777344,17.739981153411865L18.149905571777342,19.159261153411865L17.784025571777345,18.793386153411866Q17.707086571777342,18.703854153411864,17.599804571777344,18.654593153411867Q17.492523571777344,18.605333153411866,17.374473571777344,18.605333153411866Q17.321288171777343,18.605333153411866,17.269124571777343,18.615709153411863Q17.216961571777343,18.626085153411864,17.167824571777345,18.646439153411865Q17.118687571777343,18.666792153411865,17.074465571777345,18.696340153411864Q17.030243571777344,18.725888153411866,16.992635571777345,18.763496153411864Q16.955028571777344,18.801103153411866,16.925479571777345,18.845325153411864Q16.895931571777343,18.889547153411865,16.875578571777343,18.938684153411867Q16.855225571777343,18.987821153411865,16.844849571777345,19.039981153411865Q16.834473571777345,19.092151153411866,16.834473571777345,19.145331153411867Q16.834473571777345,19.263381153411864,16.883733571777345,19.370661153411866Q16.932994571777343,19.477951153411865,17.022527571777342,19.554891153411866L17.837865571777343,20.370221153411865Q17.869377571777342,20.401741153411866,17.905641571777345,20.427641153411866Q17.992797571777345,20.489891153411865,18.097143571777345,20.514061153411866Q18.201488571777343,20.538221153411865,18.307138571777344,20.520611153411863Q18.412783571777343,20.503001153411866,18.503653571777345,20.446301153411866Q18.594523571777344,20.389611153411867,18.656783571777343,20.302451153411866L20.040003571777344,18.365932153411865Z" fill-rule="evenodd" fill="#FFFFFF" fill-opacity="1"/></g></g></g></svg>