<svg id="图层_1" data-name="图层 1" xmlns="http://www.w3.org/2000/svg" viewBox="0 0 18 18">
  <defs>
    <style>
      .jchis968471 {
        fill: #34c765;
      }

      .jchis968472 {
        fill: #fff;
      }
    </style>
  </defs>
  <g id="IconAomMenuMJRWColor">
    <rect class="jchis968471" width="18" height="18" rx="4" />
  </g>
  <path class="jchis968472"
    d="M13,4.42H5a1,1,0,0,0-1,1v.5a1,1,0,0,0,1,1h8a1,1,0,0,0,1-1v-.5A1,1,0,0,0,13,4.42ZM6.23,6.07h-.8a.4.4,0,0,1,0-.8h.8a.4.4,0,0,1,0,.8Zm1.52,0h-.1a.4.4,0,0,1,0-.8h.1a.4.4,0,0,1,0,.8Z" />
  <path class="jchis968472"
    d="M9.71,11.78a1.24,1.24,0,0,1-.72-.7H5a1,1,0,0,0-1,1v.5a1,1,0,0,0,1,1H9.09a1.21,1.21,0,0,1-.19-.65A1.23,1.23,0,0,1,9.71,11.78Zm-3.48,1h-.8a.4.4,0,0,1,0-.8h.8a.4.4,0,1,1,0,.8Zm1.52,0h-.1a.4.4,0,0,1,0-.8h.1a.4.4,0,0,1,0,.8Z" />
  <path class="jchis968472"
    d="M13,7.75H5a1,1,0,0,0-1,1v.5a1,1,0,0,0,1,1H9a1.22,1.22,0,0,1,1.16-.85h0a1.17,1.17,0,0,1,1.38,0h2.05a1.29,1.29,0,0,1,.4.07.78.78,0,0,0,0-.22v-.5A1,1,0,0,0,13,7.75ZM6.23,9.4h-.8a.4.4,0,0,1,0-.8h.8a.4.4,0,0,1,0,.8Zm1.52,0h-.1a.4.4,0,1,1,0-.8h.1a.4.4,0,0,1,0,.8Z" />
  <path class="jchis968472"
    d="M11.2,11.06a.36.36,0,0,0,0-.09v0a.37.37,0,0,0,0-.11v-.43a.34.34,0,0,0,0-.1v0a.36.36,0,0,0,0-.09h0a.42.42,0,0,0-.37-.22.41.41,0,0,0-.22.07h0a.67.67,0,0,0-.14.15h-.33a.43.43,0,0,0,0,.86h.33a.67.67,0,0,0,.14.15h0a.39.39,0,0,0,.2.06h0A.41.41,0,0,0,11.2,11.06Z" />
  <path class="jchis968472" d="M13.57,10.2H11.65a.78.78,0,0,1,0,.21v.43a.78.78,0,0,1,0,.22h1.92a.43.43,0,0,0,0-.86Z" />
  <path class="jchis968472"
    d="M12.5,12.5a.36.36,0,0,0,0,.09v0a.37.37,0,0,0,0,.11v.43a.34.34,0,0,0,0,.1v0a.36.36,0,0,0,0,.09h0a.42.42,0,0,0,.37.22.41.41,0,0,0,.22-.07h0a.67.67,0,0,0,.14-.15h.33a.43.43,0,0,0,0-.86h-.33a.67.67,0,0,0-.14-.15h0a.39.39,0,0,0-.2-.06h0A.41.41,0,0,0,12.5,12.5Z" />
  <path class="jchis968472" d="M10.13,13.36h1.92a.78.78,0,0,1,0-.21v-.43a.78.78,0,0,1,0-.22H10.13a.43.43,0,0,0,0,.86Z" />
</svg>