<svg xmlns="http://www.w3.org/2000/svg" xmlns:xlink="http://www.w3.org/1999/xlink" fill="none" version="1.1" width="24" height="24" viewBox="0 0 24 24"><defs><clipPath id="master_svg0_1343_38035"><rect x="0" y="0" width="24" height="24" rx="0"/></clipPath></defs><g clip-path="url(#master_svg0_1343_38035)"><g><rect x="1.5" y="12.5" width="21" height="7" rx="1.5" fill="#DDBEF6" fill-opacity="1"/></g><g><path d="M12.000004523925782,9C11.840004523925781,9,11.68950452392578,8.9235,11.595504523925781,8.794L7.595500423925781,3.294C7.433000523925781,3.0705,7.482500523925781,2.758,7.706000523925781,2.5955C7.791500523925781,2.5335,7.894500523925782,2.5,8.000000523925781,2.5L16.00000452392578,2.5C16.27599452392578,2.5,16.50000452392578,2.724,16.50000452392578,3C16.50000452392578,3.1055,16.466494523925782,3.2085,16.40449452392578,3.294L12.40450452392578,8.794C12.31050452392578,8.9235,12.160004523925782,9,12.000004523925782,9Z" fill="#8D4EDA" fill-opacity="1" style="mix-blend-mode:passthrough"/></g><g><path d="M12.002449035644531,13.5L3.5024490356445312,13.5C2.9501640356445313,13.5,2.5024490356445312,13.947715,2.5024490356445312,14.5L2.5024490356445312,17.5C2.5024490356445312,18.05228,2.9501640356445313,18.5,3.5024490356445312,18.5L12.002449035644531,18.5L12.002449035644531,13.5Z" fill="#8D4EDA" fill-opacity="1" style="mix-blend-mode:passthrough"/></g><g><path d="M11.247550964355469,12Q11.247550964355469,11.9261315,11.261961964355468,11.853682Q11.276372964355469,11.781233,11.30464096435547,11.712987Q11.33290996435547,11.644742,11.373948964355469,11.583322Q11.414987964355468,11.521903,11.46722096435547,11.46967Q11.519453964355469,11.417437,11.58087296435547,11.376398Q11.64229296435547,11.335359,11.710537964355469,11.30709Q11.778783964355469,11.278822,11.851232964355468,11.264410999999999Q11.923682464355469,11.25,11.997550964355469,11.25Q12.071419464355468,11.25,12.14386896435547,11.264410999999999Q12.216317964355468,11.278822,12.284563964355469,11.30709Q12.352808964355468,11.335359,12.414228964355468,11.376398Q12.475647964355469,11.417437,12.527880964355468,11.46967Q12.58011396435547,11.521903,12.621152964355469,11.583322Q12.662191964355468,11.644742,12.690460964355468,11.712987Q12.718728964355469,11.781233,12.73313996435547,11.853682Q12.747550964355469,11.9261315,12.747550964355469,12L12.747550964355469,20Q12.747550964355469,20.07387,12.73313996435547,20.14632Q12.718728964355469,20.21877,12.690460964355468,20.287010000000002Q12.662191964355468,20.35526,12.621152964355469,20.41668Q12.58011396435547,20.478099999999998,12.527880964355468,20.53033Q12.475647964355469,20.58256,12.414228964355468,20.6236Q12.352808964355468,20.66464,12.284563964355469,20.692909999999998Q12.216317964355468,20.72118,12.14386896435547,20.735590000000002Q12.071419464355468,20.75,11.997550964355469,20.75Q11.923682464355469,20.75,11.851232964355468,20.735590000000002Q11.778783964355469,20.72118,11.710537964355469,20.692909999999998Q11.64229296435547,20.66464,11.58087296435547,20.6236Q11.519453964355469,20.58256,11.46722096435547,20.53033Q11.414987964355468,20.478099999999998,11.373948964355469,20.41668Q11.33290996435547,20.35526,11.30464096435547,20.287010000000002Q11.276372964355469,20.21877,11.261961964355468,20.14632Q11.247550964355469,20.07387,11.247550964355469,20L11.247550964355469,12Z" fill-rule="evenodd" fill="#8D4EDA" fill-opacity="1" style="mix-blend-mode:passthrough"/></g><g><path d="M12.4704547875,18.26539C13.1017271875,16.36861,14.8907571875,15,17.0005171875,15C19.1089971875,15,20.897187187500002,16.36733,21.529307187500002,18.26242C21.5802171875,18.416,21.5802171875,18.58145,21.529307187500002,18.73461C20.8984571875,20.63139,19.1089971875,22,16.999667187500002,22C14.8911871875,22,13.1025761875,20.63267,12.4708791875,18.73758C12.4198631875,18.584319999999998,12.4198631875,18.41865,12.4708791875,18.26539L12.4704547875,18.26539ZM19.2273671875,18.5C19.2273671875,19.73009,18.2301771875,20.72727,17.0000871875,20.72727C15.7700071875,20.72727,14.7728171875,19.73009,14.7728171875,18.5C14.7728171875,17.26991,15.7700071875,16.27273,17.0000871875,16.27273C18.2301771875,16.27273,19.2273671875,17.26991,19.2273671875,18.5Z" fill-rule="evenodd" fill="#8D4EDA" fill-opacity="1"/><path d="M11.5216231875,17.94961Q12.1019041875,16.20604,13.589687187500001,15.114996Q15.1101371875,14,17.0005171875,14Q18.8897371875,14,20.4096871875,15.113984Q21.896837187499997,16.20393,22.477917187499997,17.94601Q22.6613171875,18.49928,22.4782171875,19.05004Q21.8982971875,20.79379,20.4102771875,21.884999999999998Q18.8898271875,23,16.999667187500002,23Q15.1103871875,23,13.5903671875,21.886029999999998Q12.1942871875,20.86291,11.5969681875,19.26539Q11.5578701875,19.16083,11.5221951875,19.0538Q11.3498371875,18.536,11.5005351875,18.01855Q11.5048721875,18.00366,11.5094771875,17.98877Q11.5151481875,17.96907,11.5216231875,17.94961ZM16.999667187500002,22C14.8911871875,22,13.1025761875,20.63267,12.4708791875,18.73758C12.4198772875,18.58436,12.4198631875,18.41875,12.4708368875,18.26552L12.4708791875,18.26539L12.4704547875,18.26539L12.4704971875,18.26527C12.5769381875,17.94547,12.7162881875,17.6407,12.8845351875,17.35496C12.9022401875,17.32489,12.9202651875,17.29504,12.9386051875,17.26539C13.7796871875,15.906024,15.2839371875,15,17.0005171875,15C19.1089971875,15,20.897187187500002,16.36733,21.529307187500002,18.26242C21.5802171875,18.416,21.5802171875,18.58145,21.529307187500002,18.73461C20.8984571875,20.63139,19.1089971875,22,16.999667187500002,22ZM17.0000871875,20.72727C18.2301771875,20.72727,19.2273671875,19.73009,19.2273671875,18.5C19.2273671875,17.26991,18.2301771875,16.27273,17.0000871875,16.27273C15.7700071875,16.27273,14.7728171875,17.26991,14.7728171875,18.5C14.7728171875,19.73009,15.7700071875,20.72727,17.0000871875,20.72727ZM17.867907187500002,17.63219Q18.2273671875,17.99165,18.2273671875,18.5Q18.2273671875,19.00835,17.867907187500002,19.36781Q17.5084471875,19.72727,17.0000871875,19.72727Q16.4917371875,19.72727,16.1322771875,19.36781Q15.7728171875,19.00835,15.7728171875,18.5Q15.7728171875,17.99165,16.1322771875,17.63219Q16.4917371875,17.27273,17.0000871875,17.27273Q17.5084471875,17.27273,17.867907187500002,17.63219Z" fill-rule="evenodd" fill="#FFFFFF" fill-opacity="1"/></g><g><path d="M18.2728669921875,18.5002690625Q18.2728669921875,18.5627890625,18.2667469921875,18.6250190625Q18.2606169921875,18.6872390625,18.2484169921875,18.7485590625Q18.2362169921875,18.809889062499998,18.2180669921875,18.8697190625Q18.1999169921875,18.9295490625,18.1759869921875,18.9873190625Q18.1520669921875,19.0450790625,18.1225869921875,19.1002290625Q18.0931169921875,19.1553690625,18.0583769921875,19.2073590625Q18.023636992187498,19.2593390625,17.9839769921875,19.3076790625Q17.9443069921875,19.3560090625,17.9000969921875,19.4002190625Q17.8558869921875,19.4444290625,17.8075569921875,19.4840990625Q17.7592169921875,19.523759062499998,17.7072369921875,19.5584990625Q17.6552469921875,19.5932390625,17.6001069921875,19.6227090625Q17.5449569921875,19.6521890625,17.4871969921875,19.6761090625Q17.4294269921875,19.7000390625,17.3695969921875,19.7181890625Q17.309766992187498,19.7363390625,17.2484369921875,19.7485390625Q17.1871169921875,19.7607390625,17.1248969921875,19.7668690625Q17.0626669921875,19.7729890625,17.0001469921875,19.7729890625Q16.9376169921875,19.7729890625,16.8753969921875,19.7668690625Q16.8131669921875,19.7607390625,16.7518469921875,19.7485390625Q16.6905239921875,19.7363390625,16.6306909921875,19.7181890625Q16.5708579921875,19.7000390625,16.5130929921875,19.6761090625Q16.4553269921875,19.6521890625,16.4001849921875,19.6227090625Q16.3450429921875,19.5932390625,16.2930549921875,19.5584990625Q16.2410669921875,19.523759062499998,16.1927349921875,19.4840990625Q16.1444019921875,19.4444290625,16.1001899921875,19.4002190625Q16.0559779921875,19.3560090625,16.0163129921875,19.3076790625Q15.9766469921875,19.2593390625,15.9419099921875,19.2073590625Q15.9071729921875,19.1553690625,15.8776989921875,19.1002290625Q15.8482249921875,19.0450790625,15.8242975921875,18.9873190625Q15.8003702921875,18.9295490625,15.7822201921875,18.8697190625Q15.7640700921875,18.809889062499998,15.7518720921875,18.7485590625Q15.7396740921875,18.6872390625,15.7335455221875,18.6250190625Q15.7274169921875,18.5627890625,15.7274169921875,18.5002690625Q15.7274169921875,18.4377390625,15.7335455221875,18.3755190625Q15.7396740921875,18.3132890625,15.7518720921875,18.2519690625Q15.7640700921875,18.1906460625,15.7822201921875,18.1308130625Q15.8003702921875,18.0709800625,15.8242975921875,18.0132150625Q15.8482249921875,17.9554490625,15.8776989921875,17.9003070625Q15.9071729921875,17.8451650625,15.9419099921875,17.7931770625Q15.9766469921875,17.7411890625,16.0163129921875,17.6928570625Q16.0559779921875,17.6445240625,16.1001899921875,17.6003120625Q16.1444019921875,17.5561000625,16.1927349921875,17.5164350625Q16.2410669921875,17.4767690625,16.2930549921875,17.4420320625Q16.3450429921875,17.4072950625,16.4001849921875,17.3778210625Q16.4553269921875,17.3483470625,16.5130929921875,17.3244196625Q16.5708579921875,17.3004923625,16.6306909921875,17.2823422625Q16.6905239921875,17.2641921625,16.7518469921875,17.2519941625Q16.8131669921875,17.2397961625,16.8753969921875,17.2336675925Q16.9376169921875,17.2275390625,17.0001469921875,17.2275390625Q17.0626669921875,17.2275390625,17.1248969921875,17.2336675925Q17.1871169921875,17.2397961625,17.2484369921875,17.2519941625Q17.309766992187498,17.2641921625,17.3695969921875,17.2823422625Q17.4294269921875,17.3004923625,17.4871969921875,17.3244196625Q17.5449569921875,17.3483470625,17.6001069921875,17.3778210625Q17.6552469921875,17.4072950625,17.7072369921875,17.4420320625Q17.7592169921875,17.4767690625,17.8075569921875,17.5164350625Q17.8558869921875,17.5561000625,17.9000969921875,17.6003120625Q17.9443069921875,17.6445240625,17.9839769921875,17.6928570625Q18.023636992187498,17.7411890625,18.0583769921875,17.7931770625Q18.0931169921875,17.8451650625,18.1225869921875,17.9003070625Q18.1520669921875,17.9554490625,18.1759869921875,18.0132150625Q18.1999169921875,18.0709800625,18.2180669921875,18.1308130625Q18.2362169921875,18.1906460625,18.2484169921875,18.2519690625Q18.2606169921875,18.3132890625,18.2667469921875,18.3755190625Q18.2728669921875,18.4377390625,18.2728669921875,18.5002690625Z" fill="#702EC2" fill-opacity="1"/></g></g></svg>