<svg xmlns="http://www.w3.org/2000/svg" xmlns:xlink="http://www.w3.org/1999/xlink" fill="none" version="1.1" width="24" height="24" viewBox="0 0 24 24"><defs><clipPath id="master_svg0_732_64967"><rect x="0" y="0" width="24" height="24" rx="0"/></clipPath></defs><g clip-path="url(#master_svg0_732_64967)"><g><path d="M5.507000085830688,4.048C6.076990085830689,3.382835,6.909140085830689,3,7.7850000858306885,3L16.215000085830688,3C17.09090008583069,3.000026226,17.92310008583069,3.382862,18.493000085830687,4.048L20.215000085830688,6.056C19.97850008583069,6.01848,19.739400085830688,5.999750000000001,19.50000008583069,6L4.500000085830688,6C4.257000085830688,6,4.018000085830688,6.02,3.7850000858306885,6.056L5.507000085830688,4.048Z" fill="#7BC0FC" fill-opacity="1"/></g><g><path d="M4.5,7.5C2.84315,7.5,1.5,8.84315,1.5,10.5C1.5,12.15685,2.84315,13.5,4.5,13.5L19.5,13.5C21.1569,13.5,22.5,12.15685,22.5,10.5C22.5,8.84315,21.1569,7.5,19.5,7.5L4.5,7.5ZM5.75,11.25C6.16421,11.25,6.5,10.91421,6.5,10.5C6.5,10.08579,6.16421,9.75,5.75,9.75C5.335789999999999,9.75,5,10.08579,5,10.5C5,10.91421,5.335789999999999,11.25,5.75,11.25ZM9.5,10.5C9.5,10.91421,9.16421,11.25,8.75,11.25C8.33579,11.25,8,10.91421,8,10.5C8,10.08579,8.33579,9.75,8.75,9.75C9.16421,9.75,9.5,10.08579,9.5,10.5ZM14.2299,21Q14.0157,20.5195,13.9063,20.005000000000003Q13.7968,19.4904,13.7968,18.964399999999998Q13.7968,18.6779,13.8295,18.3934Q13.8622,18.1089,13.9272,17.829900000000002Q13.9921,17.551000000000002,14.0885,17.281309999999998Q14.185,17.011609999999997,14.3115,16.75469Q14.4381,16.49777,14.5932,16.25698Q14.7483,16.01619,14.9298,15.79468Q15.1114,15.57318,15.3171,15.37386Q15.5227,15.17453,15.7498,15L4.5,15C2.84315,15,1.5,16.34315,1.5,18C1.5,19.6569,2.84315,21,4.5,21L14.2299,21ZM6.5,18C6.5,18.4142,6.16421,18.75,5.75,18.75C5.335789999999999,18.75,5,18.4142,5,18C5,17.5858,5.335789999999999,17.25,5.75,17.25C6.16421,17.25,6.5,17.5858,6.5,18ZM8.75,18.75C9.16421,18.75,9.5,18.4142,9.5,18C9.5,17.5858,9.16421,17.25,8.75,17.25C8.33579,17.25,8,17.5858,8,18C8,18.4142,8.33579,18.75,8.75,18.75Z" fill-rule="evenodd" fill="#165DFF" fill-opacity="1"/></g><g><g transform="matrix(0,1,-1,0,37.7562255859375,-7.8275146484375)"><ellipse cx="26.7918701171875" cy="18.96435546875" rx="4" ry="4" fill="#7BC0FC" fill-opacity="1"/></g><g><path d="M18.0418701171875,19.34521484375Q18.0418701171875,19.27134634375,18.0562811171875,19.19889684375Q18.0706921171875,19.12644784375,18.0989601171875,19.05820184375Q18.1272291171875,18.98995684375,18.168268117187502,18.92853684375Q18.2093071171875,18.867117843750002,18.2615401171875,18.81488484375Q18.313773117187502,18.76265184375,18.3751921171875,18.721612843750002Q18.4366121171875,18.68057384375,18.5048571171875,18.65230484375Q18.5731031171875,18.62403684375,18.6455521171875,18.60962584375Q18.7180016171875,18.59521484375,18.7918701171875,18.59521484375Q18.8657386171875,18.59521484375,18.9381881171875,18.60962584375Q19.0106371171875,18.62403684375,19.0788831171875,18.65230484375Q19.1471281171875,18.68057384375,19.2085481171875,18.721612843750002Q19.269967117187498,18.76265184375,19.3222001171875,18.81488484375Q19.3744331171875,18.867117843750002,19.415472117187498,18.92853684375Q19.4565111171875,18.98995684375,19.4847801171875,19.05820184375Q19.5130481171875,19.12644784375,19.5274591171875,19.19889684375Q19.5418701171875,19.27134634375,19.5418701171875,19.34521484375L19.5418701171875,20.96426484375Q19.5418701171875,21.03813484375,19.5274591171875,21.11058484375Q19.5130481171875,21.18302484375,19.4847801171875,21.25127484375Q19.4565111171875,21.31952484375,19.415472117187498,21.38094484375Q19.3744331171875,21.44235484375,19.3222001171875,21.49459484375Q19.269967117187498,21.54682484375,19.2085481171875,21.58786484375Q19.1471281171875,21.62890484375,19.0788831171875,21.65717484375Q19.0106371171875,21.68544484375,18.9381881171875,21.69985484375Q18.8657386171875,21.71426484375,18.7918701171875,21.71426484375Q18.7180016171875,21.71426484375,18.6455521171875,21.69985484375Q18.5731031171875,21.68544484375,18.5048571171875,21.65717484375Q18.4366121171875,21.62890484375,18.3751921171875,21.58786484375Q18.313773117187502,21.54682484375,18.2615401171875,21.49459484375Q18.2093071171875,21.44235484375,18.168268117187502,21.38094484375Q18.1272291171875,21.31952484375,18.0989601171875,21.25127484375Q18.0706921171875,21.18302484375,18.0562811171875,21.11058484375Q18.0418701171875,21.03813484375,18.0418701171875,20.96426484375L18.0418701171875,19.34521484375Z" fill-rule="evenodd" fill="#FFFFFF" fill-opacity="1"/></g><g><ellipse cx="18.7918701171875" cy="17.201171875" rx="0.75" ry="0.75" fill="#FFFFFF" fill-opacity="1"/></g></g></g></svg>