<svg id="图层_1" data-name="图层 1" xmlns="http://www.w3.org/2000/svg" viewBox="0 0 18 18">
  <defs>
    <style>
      .lllof7gvbhda61 {
        fill: #30b0f0;
      }

      .lllof7gvbhda62 {
        fill: #fff;
      }
    </style>
  </defs>
  <g id="IconAomMenuGJKGLColor">
    <rect class="lllof7gvbhda61" width="18" height="18" rx="4" />
  </g>
  <path class="lllof7gvbhda62"
    d="M13,4.42H5a1,1,0,0,0-1,1v.5a1,1,0,0,0,1,1h8a1,1,0,0,0,1-1v-.5A1,1,0,0,0,13,4.42ZM6.23,6.07h-.8a.4.4,0,0,1,0-.8h.8a.4.4,0,0,1,0,.8Zm1.52,0h-.1a.4.4,0,0,1,0-.8h.1a.4.4,0,0,1,0,.8Z" />
  <path class="lllof7gvbhda62"
    d="M12.78,9.73h0a1.8,1.8,0,0,0-.33-.1,1.75,1.75,0,0,0-.4,0,1.87,1.87,0,0,0-.42,0l-.07,0a1.85,1.85,0,0,0-.33.12h0a2.63,2.63,0,0,0-.33.2h0a2.06,2.06,0,0,0-.31.28,1.9,1.9,0,0,0-.44.83,1.06,1.06,0,0,0,0,.19,1.55,1.55,0,0,0,0,.31,2,2,0,0,0,2,2,2.58,2.58,0,0,0,.39,0l.14,0,.21-.07.17-.08.15-.08.19-.14.09-.08a1.07,1.07,0,0,0,.18-.19l.05-.06a2.2,2.2,0,0,0,.17-.25l0,0a2.08,2.08,0,0,0,.13-.3v0a1.3,1.3,0,0,0,.08-.34h0a2.48,2.48,0,0,0,0-.27A2,2,0,0,0,12.78,9.73Zm-.38,2.7a.4.4,0,0,1-.8,0v-.64a.4.4,0,0,1,.8,0Zm-.22-1.35a.43.43,0,0,1-.36,0,.41.41,0,0,1-.22-.36.4.4,0,1,1,.8,0A.41.41,0,0,1,12.18,11.08Z" />
  <path class="lllof7gvbhda62"
    d="M9.25,11.08H5a1,1,0,0,0-1,1v.5a1,1,0,0,0,1,1h5a2.79,2.79,0,0,1-.84-2A2.73,2.73,0,0,1,9.25,11.08Zm-3,1.65h-.8a.4.4,0,0,1,0-.8h.8a.4.4,0,1,1,0,.8Zm1.52,0h-.1a.4.4,0,0,1,0-.8h.1a.4.4,0,0,1,0,.8Z" />
  <path class="lllof7gvbhda62"
    d="M13,7.75H5a1,1,0,0,0-1,1v.5a1,1,0,0,0,1,1H9.53A2.81,2.81,0,0,1,12,8.78a2.75,2.75,0,0,1,1.94.79A.87.87,0,0,0,14,9.25v-.5A1,1,0,0,0,13,7.75ZM6.23,9.4h-.8a.4.4,0,0,1,0-.8h.8a.4.4,0,0,1,0,.8Zm1.52,0h-.1a.4.4,0,1,1,0-.8h.1a.4.4,0,0,1,0,.8Z" />
</svg>