<svg xmlns="http://www.w3.org/2000/svg" xmlns:xlink="http://www.w3.org/1999/xlink" fill="none" version="1.1" width="24" height="24" viewBox="0 0 24 24"><defs><clipPath id="master_svg0_630_30202"><rect x="0" y="0" width="24" height="24" rx="0"/></clipPath></defs><g clip-path="url(#master_svg0_630_30202)"><g><path d="M5.782674789428711,12.499987602233887L5.782674789428711,20.608677602233886C5.782674789428711,21.929147602233886,6.853504789428711,22.999987602233887,8.173974789428712,22.999987602233887L20.13047478942871,22.999987602233887L20.13047478942871,12.499987602233887L5.782674789428711,12.499987602233887Z" fill="#165DFF" fill-opacity="1"/></g><g><path d="M3.3913726806640625,1C4.711852680664062,1,5.782672680664063,2.0708200000000003,5.782672680664063,3.3913L5.782672680664063,11L20.130472680664063,11L20.130472680664063,3.3913C20.130472680664063,2.0708200000000003,19.059672680664065,1,17.739172680664062,1L3.3913726806640625,1Z" fill="#165DFF" fill-opacity="1"/></g><g><path d="M3.391330517578125,1C2.0708505175781253,1,1.000030517578125,2.0708200000000003,1.000030517578125,3.3913L5.782630517578125,3.3913C5.782630517578125,2.0708200000000003,4.711810517578125,1,3.391330517578125,1Z" fill="#7BC0FC" fill-opacity="1"/></g><g><path d="M10.565265454101564,20.6083984375C10.565265454101564,21.9288784375,9.494445454101562,22.9996984375,8.173965454101562,22.9996984375L20.60876545410156,22.9996984375C21.92926545410156,22.9996984375,23.000065454101563,21.9288784375,23.000065454101563,20.6083984375L10.565265454101564,20.6083984375Z" fill="#7BC0FC" fill-opacity="1"/></g><g><path d="M3.1431121826171875,9L22.96421218261719,9Q23.062712182617187,9,23.15931218261719,9.019214999999999Q23.255912182617188,9.03843,23.34691218261719,9.076121Q23.437912182617186,9.113812,23.519812182617187,9.16853Q23.601712182617188,9.223249,23.671312182617186,9.292893Q23.741012182617187,9.362537,23.795712182617187,9.44443Q23.850412182617188,9.526322,23.88811218261719,9.617317Q23.925812182617186,9.708311,23.945012182617187,9.80491Q23.96421218261719,9.9015086,23.96421218261719,10Q23.96421218261719,10.0984914,23.945012182617187,10.19509Q23.925812182617186,10.291689,23.88811218261719,10.382683Q23.850412182617188,10.473678,23.795712182617187,10.55557Q23.741012182617187,10.637463,23.671312182617186,10.707107Q23.601712182617188,10.776751,23.519812182617187,10.83147Q23.437912182617186,10.886188,23.34691218261719,10.923879Q23.255912182617188,10.96157,23.15931218261719,10.980785000000001Q23.062712182617187,11,22.96421218261719,11L3.1431121826171875,11Q3.0446207826171876,11,2.9480221826171875,10.980785000000001Q2.8514231826171876,10.96157,2.7604291826171874,10.923879Q2.6694341826171875,10.886188,2.5875421826171876,10.83147Q2.5056491826171876,10.776751,2.4360051826171873,10.707107Q2.3663611826171875,10.637463,2.3116421826171876,10.55557Q2.2569241826171877,10.473678,2.2192331826171876,10.382683Q2.1815421826171875,10.291689,2.1623271826171875,10.19509Q2.1431121826171875,10.0984914,2.1431121826171875,10Q2.1431121826171875,9.9015086,2.1623271826171875,9.80491Q2.1815421826171875,9.708311,2.2192331826171876,9.617317Q2.2569241826171877,9.526322,2.3116421826171876,9.44443Q2.3663611826171875,9.362537,2.4360051826171873,9.292893Q2.5056491826171876,9.223249,2.5875421826171876,9.16853Q2.6694341826171875,9.113812,2.7604291826171874,9.076121Q2.8514231826171876,9.03843,2.9480221826171875,9.019214999999999Q3.0446207826171876,9,3.1431121826171875,9Z" fill-rule="evenodd" fill="#7BC0FC" fill-opacity="1"/></g></g></svg>