<?xml version="1.0" encoding="UTF-8"?>
<svg id="_图层_1" data-name="图层 1" xmlns="http://www.w3.org/2000/svg" viewBox="0 0 24 24">
  <path d="M2.17,11.1c-.11,.11-.23,.28-.23,.51,0,.17,.06,.34,.23,.51l3.5,3.62c.11,.06,.28,.17,.51,.17,.17,0,.4-.06,.51-.23l3.67-3.62c.11-.11,.23-.28,.23-.51s-.06-.4-.23-.51l-3.67-3.56c-.11-.11-.28-.23-.51-.23-.17,0-.34,.06-.51,.23,0,0-3.5,3.62-3.5,3.62ZM22.06,2.45c0-.17-.06-.34-.23-.51-.11-.11-.34-.23-.51-.23h-5.59c-.17,0-.34,.06-.51,.23-.11,.11-.23,.34-.23,.51v1.41h-3.16c-.17,0-.34,.06-.51,.23-.11,.11-.23,.34-.23,.51v14.13c0,.17,.06,.34,.23,.51,.11,.11,.34,.23,.51,.23h3.16v2.09c0,.17,.06,.34,.23,.51,.11,.11,.34,.23,.51,.23h5.59c.17,0,.34-.06,.51-.23,.11-.11,.23-.34,.23-.51v-4.58c0-.17-.06-.34-.23-.51-.11-.11-.34-.23-.51-.23h-5.59c-.17,0-.34,.06-.51,.23-.11,.11-.23,.34-.23,.51v.34h-1.41c-.17,0-.34-.06-.51-.23-.11-.11-.23-.34-.23-.51V6.29c0-.17,.06-.34,.23-.51,.11-.11,.34-.23,.51-.23h1.41v1.41c0,.17,.06,.34,.23,.51,.11,.11,.34,.23,.51,.23h5.59c.17,0,.34-.06,.51-.23,.11-.11,.23-.34,.23-.51,0,0,0-4.52,0-4.52Z"/>
</svg>