<svg xmlns="http://www.w3.org/2000/svg" xmlns:xlink="http://www.w3.org/1999/xlink" fill="none" version="1.1" width="32" height="32" viewBox="0 0 32 32"><defs><clipPath id="master_svg0_5881_02713"><rect x="0" y="0" width="32" height="32" rx="0"/></clipPath><filter id="master_svg1_5881_02719" filterUnits="objectBoundingBox" color-interpolation-filters="sRGB" x="0" y="0" width="1" height="1"><feFlood flood-opacity="0" result="BackgroundImageFix"/><feBlend mode="normal" in="SourceGraphic" in2="BackgroundImageFix" result="shape"/><feColorMatrix in="SourceAlpha" type="matrix" result="hardAlpha" values="0 0 0 0 0 0 0 0 0 0 0 0 0 0 0 0 0 0 127 0"/><feOffset dy="-2" dx="0"/><feGaussianBlur stdDeviation="2"/><feComposite in2="hardAlpha" operator="arithmetic" k2="-1" k3="1"/><feColorMatrix type="matrix" values="0 0 0 0 1 0 0 0 0 1 0 0 0 0 1 0 0 0 0.20000000298023224 0"/><feBlend mode="normal" in2="shape" result="effect1_innerShadow"/></filter><linearGradient x1="0.6818181872367859" y1="0.2330903559923172" x2="0.6818181872367859" y2="1.149703860282898" id="master_svg2_5881_02804"><stop offset="0%" stop-color="#FFFFFF" stop-opacity="1"/><stop offset="40.104201436042786%" stop-color="#FFFFFF" stop-opacity="0.8500000238418579"/><stop offset="100%" stop-color="#FFFFFF" stop-opacity="0.5"/></linearGradient></defs><g clip-path="url(#master_svg0_5881_02713)"><g></g><g filter="url(#master_svg1_5881_02719)"><g transform="matrix(0.916670024394989,0,0,0.916670024394989,0.49650953289059885,0.5728048941466568)"><path d="M5.958355247974014,13.450125699462891C5.958071291114013,13.161645699462891,6.253962473114013,12.96773569946289,6.518355473114013,13.08312569946289L15.607354473114013,17.04113569946289C15.752924473114014,17.10463569946289,15.847114473114013,17.248335699462892,15.847354473114013,17.40713569946289L15.847354473114013,27.213135699462892C15.847264473114013,27.51393569946289,15.527654473114014,27.707035699462892,15.261354473114014,27.56713569946289L6.331354473114014,22.873135699462892C6.220562473114014,22.81283569946289,6.127480473114014,22.72453569946289,6.061354473114013,22.617135699462892C5.9960863731140135,22.51073569946289,5.960518773114013,22.38883569946289,5.958354473114014,22.26413569946289L5.958355247974014,13.450125699462891ZM27.396354473114013,13.07012569946289C27.660554473114015,12.953105699462892,27.957854473114015,13.14618569946289,27.958354473114014,13.43512569946289L27.958354473114014,22.25313569946289C27.958354473114014,22.379135699462893,27.923354473114014,22.50313569946289,27.858354473114012,22.61213569946289C27.792254473114014,22.72123569946289,27.698354473114012,22.81093569946289,27.586354473114014,22.87213569946289L18.656354473114014,27.56713569946289C18.389754473114014,27.70813569946289,18.069054473114015,27.51463569946289,18.069354473114014,27.213135699462892L18.069354473114014,17.45413569946289C18.069254473114015,17.295735699462888,18.162554473114014,17.152235699462892,18.307354473114014,17.08813569946289L27.397354473114014,13.06912569946289L27.396354473114013,13.07012569946289ZM16.598354473114014,6.96612449946289C16.822654473114014,6.84320599946289,17.094054473114014,6.84320599946289,17.318354473114013,6.96612449946289L26.013354473114013,10.828125699462891C26.158654473114012,10.892595699462891,26.251954473114015,11.03697569946289,26.251154473114013,11.19593569946289C26.250254473114012,11.35488569946289,26.155354473114013,11.498245699462892,26.009354473114012,11.561125699462892L17.118354473114014,15.405125699462891C17.016954473114012,15.44906569946289,16.901754473114014,15.44906569946289,16.800354473114012,15.405125699462891L7.908354473114014,11.56212569946289C7.762364473114014,11.49924569946289,7.667454473114014,11.355885699462892,7.666594473114014,11.196935699462891C7.665724473114014,11.03797569946289,7.759054473114014,10.89359569946289,7.904354473114013,10.82912569946289L16.598354473114014,6.96612449946289L16.598354473114014,6.96612449946289Z" fill="url(#master_svg2_5881_02804)" fill-opacity="1" style="mix-blend-mode:passthrough"/></g></g></g></svg>