<svg xmlns="http://www.w3.org/2000/svg" xmlns:xlink="http://www.w3.org/1999/xlink" fill="none" version="1.1" width="24" height="24" viewBox="0 0 24 24"><defs><clipPath id="master_svg0_5519_08037"><rect x="0" y="0" width="24" height="24" rx="0"/></clipPath></defs><g clip-path="url(#master_svg0_5519_08037)"><g><path d="M20.5,6.99985L12,2L3.5,6.99985L3.5,16.9999L12,22L20.5,16.9999L20.5,6.99985Z" fill="#A52FFF" fill-opacity="1"/><path d="M21.007,17.861800000000002Q21.1196,17.7956,21.2114,17.7027Q21.3032,17.6098,21.3681,17.4964Q21.4329,17.383,21.4664,17.2568Q21.5,17.130499999999998,21.5,16.9999L21.5,6.99985Q21.5,6.86923,21.4664,6.74299Q21.4329,6.61675,21.368,6.50337Q21.3032,6.38998,21.2114,6.29706Q21.1196,6.20413,21.007,6.13791L12.50701,1.1380590000000002Q12.39175,1.0702639999999999,12.26273,1.035132Q12.13372,1,12,1Q11.86628,1,11.73727,1.035132Q11.60825,1.0702639999999999,11.492989999999999,1.1380590000000002L2.992991,6.13791Q2.880404,6.20413,2.788604,6.29706Q2.696805,6.38998,2.631954,6.50337Q2.567103,6.61675,2.533551,6.74299Q2.5,6.86923,2.5,6.99985L2.5,16.9999Q2.5,17.130499999999998,2.53355,17.2568Q2.5671,17.383,2.631948,17.4964Q2.696797,17.6098,2.788593,17.7027Q2.880389,17.7956,2.992972,17.861800000000002L11.49297,22.8619Q11.60823,22.9297,11.73725,22.9649Q11.86628,23,12,23Q12.13372,23,12.26274,22.9649Q12.39177,22.9297,12.50703,22.8619L21.007,17.861800000000002ZM19.5,16.428L12,20.8398L4.5,16.428L4.5,7.5718L12,3.16017L19.5,7.57181L19.5,16.428Z" fill-rule="evenodd" fill="#A52FFF" fill-opacity="1"/></g><g><path d="M8.530605,8.651181277709961L11.99689,10.820580277709961L15.46683,8.65125327770996L15.46744,8.650869277709962Q15.71069,8.498800277709961,15.99755,8.498800277709961Q16.096040000000002,8.498800277709961,16.19264,8.51801527770996Q16.28924,8.537230277709961,16.380229999999997,8.574921277709961Q16.47123,8.61261227770996,16.55312,8.667330277709961Q16.63501,8.72204927770996,16.70466,8.79169327770996Q16.7743,8.86133727770996,16.82902,8.943230277709961Q16.88374,9.025122277709961,16.92143,9.11611727770996Q16.95912,9.207111277709961,16.97833,9.30371027770996Q16.99755,9.40030887770996,16.99755,9.498800277709961Q16.99755,9.625988277709961,16.96571,9.749127277709961Q16.93387,9.87226527770996,16.87222,9.98351327770996Q16.81057,10.09476127770996,16.723039999999997,10.187035277709962Q16.6355,10.27930827770996,16.527659999999997,10.34673127770996L16.527540000000002,10.346805277709962L12.52671,12.848030277709961Q12.407440000000001,12.922600277709961,12.27223,12.96136027770996Q12.13702,13.00013027770996,11.99636,13.000100277709961Q11.8557,13.00007027770996,11.7205,12.96123027770996Q11.58531,12.922390277709962,11.46608,12.84777027770996L7.469563,10.34652427770996L7.469479,10.34647227770996Q7.361718,10.279029277709961,7.274259,10.18676827770996Q7.186801,10.094508277709961,7.125208,9.98329927770996Q7.063616,9.872090277709962,7.031808,9.749008277709962Q7,9.625926277709961,7,9.498800277709961Q7,9.40030887770996,7.019215,9.30371027770996Q7.03843,9.207111277709961,7.076121,9.11611727770996Q7.113812,9.025122277709961,7.16853,8.943230277709961Q7.223249,8.86133727770996,7.292893,8.79169327770996Q7.362537,8.72204927770996,7.44443,8.667330277709961Q7.526322,8.61261227770996,7.617317,8.574921277709961Q7.708311,8.537230277709961,7.80491,8.51801527770996Q7.9015086,8.498800277709961,8,8.498800277709961Q8.28713,8.498800277709961,8.530521,8.651128277709962L8.530605,8.651181277709961Z" fill-rule="evenodd" fill="#FFFFFF" fill-opacity="1"/></g><g><path d="M11,12Q11,11.9015086,11.019214999999999,11.80491Q11.03843,11.708311,11.076121,11.617317Q11.113812,11.526322,11.16853,11.44443Q11.223249,11.362537,11.292893,11.292893Q11.362537,11.223249,11.44443,11.16853Q11.526322,11.113812,11.617317,11.076121Q11.708311,11.03843,11.80491,11.019214999999999Q11.9015086,11,12,11Q12.0984914,11,12.19509,11.019214999999999Q12.291689,11.03843,12.382683,11.076121Q12.473678,11.113812,12.55557,11.16853Q12.637463,11.223249,12.707107,11.292893Q12.776751,11.362537,12.83147,11.44443Q12.886188,11.526322,12.923879,11.617317Q12.96157,11.708311,12.980785000000001,11.80491Q13,11.9015086,13,12L13,16.5Q13,16.598489999999998,12.980785000000001,16.69509Q12.96157,16.79169,12.923879,16.88268Q12.886188,16.97368,12.83147,17.05557Q12.776751,17.13746,12.707107,17.20711Q12.637463,17.27675,12.55557,17.33147Q12.473678,17.38619,12.382683,17.42388Q12.291689,17.461570000000002,12.19509,17.48078Q12.0984914,17.5,12,17.5Q11.9015086,17.5,11.80491,17.48078Q11.708311,17.461570000000002,11.617317,17.42388Q11.526322,17.38619,11.44443,17.33147Q11.362537,17.27675,11.292893,17.20711Q11.223249,17.13746,11.16853,17.05557Q11.113812,16.97368,11.076121,16.88268Q11.03843,16.79169,11.019214999999999,16.69509Q11,16.598489999999998,11,16.5L11,12Z" fill-rule="evenodd" fill="#FFFFFF" fill-opacity="1"/></g></g></svg>