<svg xmlns="http://www.w3.org/2000/svg" xmlns:xlink="http://www.w3.org/1999/xlink" fill="none" version="1.1" width="24" height="24" viewBox="0 0 24 24"><defs><clipPath id="master_svg0_5405_05854"><rect x="0" y="0" width="24" height="24" rx="0"/></clipPath><clipPath id="master_svg1_5405_05855"><rect x="0" y="0" width="24" height="24" rx="0"/></clipPath></defs><g clip-path="url(#master_svg0_5405_05854)"><g clip-path="url(#master_svg1_5405_05855)"></g><g><g><path d="M3,18L3,6C3,4.34315,4.34315,3,6,3L18,3C19.6569,3,21,4.34315,21,6L21,18C21,19.6569,19.6569,21,18,21L6,21C4.34315,21,3,19.6569,3,18ZM4.5,18Q4.5,19.5,6,19.5L18,19.5Q19.5,19.5,19.5,18L19.5,6Q19.5,4.5,18,4.5L6,4.5Q4.5,4.5,4.5,6L4.5,18Z" fill-rule="evenodd" fill="#38363C" fill-opacity="1"/></g><g><g><path d="M7,8.880000114440918L7,8.963330114440918C7,9.331520114440918,7.29848,9.630000114440918,7.66667,9.630000114440918L9.33333,9.630000114440918C9.70152,9.630000114440918,10,9.331520114440918,10,8.963330114440918L10,8.880000114440918L17.75,8.880000114440918C18.1642,8.880000114440918,18.5,8.544210114440919,18.5,8.130000114440918C18.5,7.715790114440918,18.1642,7.380000114440918,17.75,7.380000114440918L10,7.380000114440918L10,7.296667114440918C10,6.928477114440918,9.70152,6.630000114440918,9.33333,6.630000114440918L7.66667,6.630000114440918C7.29848,6.630000114440918,7,6.928477114440918,7,7.296667114440918L7,7.380000114440918L6.25,7.380000114440918C5.835786,7.380000114440918,5.5,7.715790114440918,5.5,8.130000114440918C5.5,8.544210114440919,5.835786,8.880000114440918,6.25,8.880000114440918L7,8.880000114440918Z" fill-rule="evenodd" fill="#38363C" fill-opacity="1"/></g><g><path d="M10.5,12.630000114440918L10.5,12.713330114440918C10.5,13.081520114440918,10.79848,13.380000114440918,11.16667,13.380000114440918L12.83333,13.380000114440918C13.20152,13.380000114440918,13.5,13.081520114440918,13.5,12.713330114440918L13.5,12.630000114440918L17.75,12.630000114440918C18.1642,12.630000114440918,18.5,12.294210114440919,18.5,11.880000114440918C18.5,11.465790114440917,18.1642,11.130000114440918,17.75,11.130000114440918L13.5,11.130000114440918L13.5,11.046667114440918C13.5,10.678477114440918,13.20152,10.380000114440918,12.83333,10.380000114440918L11.16667,10.380000114440918C10.79848,10.380000114440918,10.5,10.678477114440918,10.5,11.046667114440918L10.5,11.130000114440918L6.25,11.130000114440918C5.835786,11.130000114440918,5.5,11.465790114440917,5.5,11.880000114440918C5.5,12.294210114440919,5.835786,12.630000114440918,6.25,12.630000114440918L10.5,12.630000114440918Z" fill-rule="evenodd" fill="#38363C" fill-opacity="1"/></g><g><path d="M14,16.630000114440918L14,16.713330114440918C14,17.081520114440917,14.29848,17.380000114440918,14.66667,17.380000114440918L16.3333,17.380000114440918C16.7015,17.380000114440918,17,17.081520114440917,17,16.713330114440918L17,16.630000114440918L17.75,16.630000114440918C18.1642,16.630000114440918,18.5,16.29421011444092,18.5,15.880000114440918C18.5,15.465790114440917,18.1642,15.130000114440918,17.75,15.130000114440918L17,15.130000114440918L17,15.046667114440918C17,14.678477114440918,16.7015,14.380000114440918,16.3333,14.380000114440918L14.66667,14.380000114440918C14.29848,14.380000114440918,14,14.678477114440918,14,15.046667114440918L14,15.130000114440918L6.25,15.130000114440918C5.835786,15.130000114440918,5.5,15.465790114440917,5.5,15.880000114440918C5.5,16.29421011444092,5.835786,16.630000114440918,6.25,16.630000114440918L14,16.630000114440918Z" fill-rule="evenodd" fill="#38363C" fill-opacity="1"/></g></g></g></g></svg>