<svg xmlns="http://www.w3.org/2000/svg" xmlns:xlink="http://www.w3.org/1999/xlink" fill="none" version="1.1" width="24" height="24" viewBox="0 0 24 24"><defs><clipPath id="master_svg0_5732_08090"><rect x="0" y="0" width="24" height="24" rx="0"/></clipPath></defs><g clip-path="url(#master_svg0_5732_08090)"><g><path d="M5,11.25L19,11.25Q19.073900000000002,11.25,19.1463,11.264410999999999Q19.2188,11.278822,19.287,11.30709Q19.3553,11.335359,19.4167,11.376398Q19.478099999999998,11.417437,19.5303,11.46967Q19.5826,11.521903,19.6236,11.583322Q19.6646,11.644742,19.6929,11.712987Q19.7212,11.781233,19.735599999999998,11.853682Q19.75,11.9261315,19.75,12Q19.75,12.0738685,19.735599999999998,12.146318Q19.7212,12.218767,19.6929,12.287013Q19.6646,12.355258,19.6236,12.416678Q19.5826,12.478097,19.5303,12.53033Q19.478099999999998,12.582563,19.4167,12.623602Q19.3553,12.664641,19.287,12.69291Q19.2188,12.721178,19.1463,12.735589000000001Q19.073900000000002,12.75,19,12.75L5,12.75Q4.9261315,12.75,4.853682,12.735589000000001Q4.781233,12.721178,4.712987,12.69291Q4.644742,12.664641,4.583322,12.623602Q4.521903,12.582563,4.46967,12.53033Q4.417437,12.478097,4.376398,12.416678Q4.335359,12.355258,4.30709,12.287013Q4.278822,12.218767,4.264411,12.146318Q4.25,12.0738685,4.25,12Q4.25,11.9261315,4.264411,11.853682Q4.278822,11.781233,4.30709,11.712987Q4.335359,11.644742,4.376398,11.583322Q4.417437,11.521903,4.46967,11.46967Q4.521903,11.417437,4.583322,11.376398Q4.644742,11.335359,4.712987,11.30709Q4.781233,11.278822,4.853682,11.264410999999999Q4.9261315,11.25,5,11.25Z" fill-rule="evenodd" fill="#000000" fill-opacity="1" style="mix-blend-mode:passthrough"/></g><g><path d="M5.5304839999999995,11.469824L11.5297,17.46904L11.53033,17.46967Q11.635819999999999,17.57516,11.692910000000001,17.712989999999998Q11.75,17.85082,11.75,18Q11.75,18.07387,11.73559,18.14632Q11.72118,18.21877,11.692910000000001,18.287010000000002Q11.66464,18.35526,11.6236,18.41668Q11.58256,18.4781,11.53033,18.53033Q11.478100000000001,18.58256,11.41668,18.6236Q11.355260000000001,18.66464,11.28701,18.69291Q11.21877,18.72118,11.14632,18.735590000000002Q11.07387,18.75,11,18.75Q10.850819999999999,18.75,10.71299,18.69291Q10.57516,18.63582,10.46967,18.53033L10.46904,18.5297L4.469824,12.530484L4.46967,12.53033Q4.364181,12.424841,4.30709,12.287013Q4.25,12.149184,4.25,12Q4.25,11.9261315,4.264411,11.853682Q4.278822,11.781233,4.30709,11.712987Q4.335359,11.644742,4.376398,11.583322Q4.417437,11.521903,4.46967,11.46967Q4.521903,11.417437,4.583322,11.376398Q4.644742,11.335359,4.712987,11.30709Q4.781233,11.278822,4.853682,11.264410999999999Q4.9261315,11.25,5,11.25Q5.149184,11.25,5.287013,11.30709Q5.424841,11.364181,5.53033,11.46967L5.5304839999999995,11.469824Z" fill-rule="evenodd" fill="#000000" fill-opacity="1" style="mix-blend-mode:passthrough"/></g><g><path d="M11.53033,6.53033Q11.635819999999999,6.424841,11.692910000000001,6.287013Q11.75,6.149184,11.75,6Q11.75,5.9261315,11.73559,5.853682Q11.72118,5.781233,11.692910000000001,5.712987Q11.66464,5.644742,11.6236,5.583322Q11.58256,5.521903,11.53033,5.46967Q11.478100000000001,5.417437,11.41668,5.376398Q11.355260000000001,5.335359,11.28701,5.30709Q11.21877,5.278822,11.14632,5.264411Q11.07387,5.25,11,5.25Q10.850819999999999,5.25,10.71299,5.30709Q10.57516,5.364181,10.46967,5.46967L10.46921,5.4701319999999996L4.4701319999999996,11.46921L4.46967,11.46967Q4.364181,11.57516,4.30709,11.71299Q4.25,11.850819999999999,4.25,12Q4.25,12.07387,4.264411,12.14632Q4.278822,12.21877,4.30709,12.28701Q4.335359,12.355260000000001,4.376398,12.41668Q4.417437,12.478100000000001,4.46967,12.53033Q4.521903,12.58256,4.583322,12.6236Q4.644742,12.66464,4.712987,12.692910000000001Q4.781233,12.72118,4.853682,12.73559Q4.9261315,12.75,5,12.75Q5.149184,12.75,5.287013,12.692910000000001Q5.424841,12.635819999999999,5.53033,12.53033L5.530792,12.529869999999999L11.529869999999999,6.530792L11.53033,6.53033L11.53033,6.53033Z" fill-rule="evenodd" fill="#000000" fill-opacity="1" style="mix-blend-mode:passthrough"/></g></g></svg>