<svg xmlns="http://www.w3.org/2000/svg" xmlns:xlink="http://www.w3.org/1999/xlink" fill="none" version="1.1" width="24" height="24" viewBox="0 0 24 24"><defs><clipPath id="master_svg0_6132_04103"><rect x="-0.75" y="-0.75" width="25.5" height="25.5" rx="0"/></clipPath></defs><g clip-path="url(#master_svg0_6132_04103)"><path d="M4,12.75L14,12.75L14,12.74985003Q14.073853,12.74985003,14.146288,12.7354418Q14.218722,12.72103369,14.286955,12.69277108Q14.355186,12.66450846,14.416594,12.62347746Q14.478001,12.58244652,14.530224,12.53022403Q14.582445,12.47800151,14.623476,12.41659433Q14.664507,12.35518718,14.69277,12.28695518Q14.721033,12.21872318,14.735441,12.14628848Q14.749849,12.073853783,14.74985,12Q14.749849,11.926146217,14.735441,11.85371152Q14.721033,11.78127682,14.69277,11.71304482Q14.664507,11.64481282,14.623476,11.58340567Q14.582445,11.52199849,14.530224,11.46977597Q14.478001,11.41755348,14.416594,11.37652254Q14.355186,11.33549154,14.286955,11.30722892Q14.218722,11.27896631,14.146288,11.2645582Q14.073853,11.25014997,14,11.25014997L14,11.25L4,11.25L4,11.25014997Q3.926146217,11.25014997,3.85371152,11.2645582Q3.78127682,11.27896631,3.71304482,11.30722892Q3.64481282,11.33549154,3.58340567,11.37652254Q3.52199849,11.41755348,3.46977597,11.46977597Q3.41755348,11.52199849,3.37652254,11.58340567Q3.33549154,11.64481282,3.30722892,11.71304482Q3.27896631,11.78127682,3.2645581999999997,11.85371152Q3.25014997,11.926146217,3.25014997,12Q3.25014997,12.073853783,3.2645581999999997,12.14628848Q3.27896631,12.21872318,3.30722892,12.28695518Q3.33549154,12.35518718,3.37652254,12.41659433Q3.41755348,12.47800151,3.46977597,12.53022403Q3.52199849,12.58244652,3.58340567,12.62347746Q3.64481282,12.66450846,3.71304482,12.69277108Q3.78127682,12.72103369,3.85371152,12.7354418Q3.926146217,12.74985003,4,12.74985003L4,12.75Z" fill-rule="evenodd" fill="#000000" fill-opacity="1" style="mix-blend-mode:passthrough"/><path d="M8.5302243,8.53022408Q8.635692599999999,8.42475596,8.6927714,8.28695521Q8.7498503,8.14915445,8.7498503,8Q8.7498503,7.926146217,8.735441699999999,7.85371152Q8.7210336,7.78127682,8.692771,7.71304482Q8.6645079,7.64481282,8.623477000000001,7.58340567Q8.5824461,7.52199849,8.5302238,7.46977597Q8.478001599999999,7.4175534800000005,8.416594,7.37652254Q8.3551869,7.33549154,8.2869549,7.30722892Q8.2187233,7.27896631,8.1462884,7.2645582Q8.0738535,7.25014997,8,7.25014997Q7.8508455999999995,7.25014997,7.7130446,7.30722892Q7.5752439,7.36430788,7.4697759,7.46977603L7.4696698,7.46966994L3.46966994,11.4696698L3.4697760300000002,11.4697759Q3.36430788,11.5752439,3.30722892,11.7130446Q3.25014997,11.8508456,3.25014997,12Q3.25014997,12.0738535,3.2645581999999997,12.1462884Q3.27896631,12.2187233,3.30722892,12.2869549Q3.33549154,12.3551869,3.37652254,12.416594Q3.41755348,12.478001599999999,3.46977597,12.5302238Q3.52199849,12.5824461,3.58340567,12.623477000000001Q3.64481282,12.6645079,3.71304482,12.692771Q3.78127682,12.7210336,3.85371152,12.7354422Q3.926146217,12.7498503,4,12.7498503Q4.14915445,12.7498503,4.28695521,12.692771Q4.42475596,12.635692599999999,4.53022408,12.5302243L4.53033006,12.5303302L8.5303302,8.53033006L8.5302243,8.53022408Z" fill-rule="evenodd" fill="#000000" fill-opacity="1" style="mix-blend-mode:passthrough"/><path d="M3.46977597,12.53022403Q3.36430788,12.42475593,3.30722892,12.28695518Q3.25014997,12.14915444,3.25014997,12Q3.25014997,11.926146217,3.2645581999999997,11.85371152Q3.27896631,11.78127682,3.30722892,11.71304482Q3.33549154,11.64481282,3.37652254,11.58340567Q3.41755348,11.52199849,3.46977597,11.46977597Q3.52199849,11.41755348,3.58340567,11.37652254Q3.64481282,11.33549154,3.71304482,11.30722892Q3.78127682,11.27896631,3.85371152,11.2645582Q3.926146217,11.25014997,4,11.25014997Q4.14915444,11.25014997,4.28695518,11.30722886Q4.42475593,11.36430788,4.53022403,11.46977597L4.53033006,11.46966994L8.5303302,15.4696698L8.5302243,15.4697759Q8.635692599999999,15.5752439,8.6927714,15.7130446Q8.7498503,15.8508456,8.7498503,16Q8.7498503,16.0738535,8.735441699999999,16.1462884Q8.7210336,16.2187233,8.692771,16.286954899999998Q8.6645079,16.3551869,8.623477000000001,16.416594Q8.5824461,16.4780016,8.5302238,16.5302238Q8.478001599999999,16.5824461,8.416594,16.623477Q8.3551869,16.6645079,8.2869549,16.692771Q8.2187233,16.7210336,8.1462884,16.7354422Q8.0738535,16.7498503,8,16.7498503Q7.8508455999999995,16.7498503,7.7130446,16.692771Q7.5752439,16.6356926,7.4697759,16.5302243L7.4696698,16.5303302L3.46966994,12.53033006L3.46977597,12.53022403Z" fill-rule="evenodd" fill="#000000" fill-opacity="1" style="mix-blend-mode:passthrough"/><path d="M19.25014997,4Q19.25014997,3.926146217,19.2645582,3.85371152Q19.27896631,3.78127682,19.30722892,3.71304482Q19.33549154,3.64481282,19.37652254,3.58340567Q19.41755348,3.52199849,19.46977597,3.46977597Q19.52199849,3.41755348,19.58340567,3.37652254Q19.64481282,3.33549154,19.71304482,3.30722892Q19.78127682,3.27896631,19.85371152,3.2645581999999997Q19.926146217,3.25014997,20,3.25014997Q20.073853783,3.25014997,20.14628848,3.2645581999999997Q20.21872318,3.27896631,20.28695518,3.30722892Q20.35518718,3.33549154,20.41659433,3.37652254Q20.47800151,3.41755348,20.53022403,3.46977597Q20.58244652,3.52199849,20.62347746,3.58340567Q20.66450846,3.64481282,20.69277108,3.71304482Q20.72103369,3.78127682,20.7354418,3.85371152Q20.74985003,3.926146217,20.74985003,4L20.75,4L20.75,7L20.74985003,7Q20.74985003,7.0738535,20.7354418,7.1462882Q20.72103369,7.2187228,20.69277108,7.2869549Q20.66450846,7.3551869,20.62347746,7.416594Q20.58244652,7.4780011,20.53022403,7.5302238Q20.47800151,7.5824461,20.41659433,7.623476999999999Q20.35518718,7.6645079,20.28695518,7.6927705Q20.21872318,7.7210333,20.14628848,7.7354414Q20.073853783,7.7498498,20,7.74985Q19.926146217,7.7498498,19.85371152,7.7354417Q19.78127682,7.7210336,19.71304482,7.6927707000000005Q19.64481282,7.6645081,19.58340567,7.623476999999999Q19.52199849,7.5824461,19.46977597,7.5302238Q19.41755348,7.4780011,19.37652254,7.416594Q19.33549154,7.3551869,19.30722892,7.2869549Q19.27896631,7.2187228,19.2645582,7.1462882Q19.25014997,7.0738535,19.25014997,7L19.25,7L19.25,4L19.25014997,4ZM20.74985003,10.5L20.75,10.5L20.75,13.5L20.74985003,13.5Q20.74985003,13.5738544,20.7354418,13.6462879Q20.72103369,13.7187233,20.69277108,13.7869549Q20.66450846,13.8551865,20.62347746,13.9165936Q20.58244652,13.9780006,20.53022403,14.030224Q20.47800151,14.082445,20.41659433,14.123476Q20.35518718,14.164507,20.28695518,14.19277Q20.21872318,14.221033,20.14628848,14.235441Q20.073853783,14.249849,20,14.24985Q19.926146217,14.249849,19.85371152,14.235441Q19.78127682,14.221033,19.71304482,14.19277Q19.64481282,14.164507,19.58340567,14.123476Q19.52199849,14.082445,19.46977597,14.030224Q19.41755348,13.9780006,19.37652254,13.9165936Q19.33549154,13.8551865,19.30722892,13.7869549Q19.27896631,13.7187233,19.2645582,13.6462879Q19.25014997,13.5738544,19.25014997,13.5L19.25,13.5L19.25,10.5L19.25014997,10.5Q19.25014997,10.4261465,19.2645582,10.3537111Q19.27896631,10.2812767,19.30722892,10.2130446Q19.33549154,10.1448126,19.37652254,10.083404999999999Q19.41755348,10.021997899999999,19.46977597,9.9697757Q19.52199849,9.9175529,19.58340567,9.876522099999999Q19.64481282,9.835490700000001,19.71304482,9.8072281Q19.78127682,9.778966,19.85371152,9.7645578Q19.926146217,9.7501497,20,9.7501497Q20.073853783,9.7501497,20.14628848,9.7645578Q20.21872318,9.778966,20.28695518,9.8072281Q20.35518718,9.835490199999999,20.41659433,9.8765216Q20.47800151,9.9175525,20.53022403,9.9697752Q20.58244652,10.021997500000001,20.62347746,10.0834045Q20.66450846,10.1448116,20.69277108,10.213044199999999Q20.72103369,10.2812767,20.7354418,10.3537111Q20.74985003,10.4261465,20.74985003,10.5ZM20.74985003,17L20.75,17L20.75,20L20.74985003,20Q20.74985003,20.073853,20.7354418,20.146288Q20.72103369,20.218721,20.69277108,20.286953Q20.66450846,20.355186,20.62347746,20.416594Q20.58244652,20.478001,20.53022403,20.530224Q20.47800151,20.582447,20.41659433,20.623476Q20.35518718,20.664507,20.28695518,20.69277Q20.21872318,20.721031,20.14628848,20.735439Q20.073853783,20.749847,20,20.749849Q19.926146217,20.749847,19.85371152,20.735439Q19.78127682,20.721031,19.71304482,20.692768Q19.64481282,20.664505,19.58340567,20.623474Q19.52199849,20.582443,19.46977597,20.530222Q19.41755348,20.478001,19.37652254,20.416592Q19.33549154,20.355185,19.30722892,20.286953Q19.27896631,20.218721,19.2645582,20.146286Q19.25014997,20.073853,19.25014997,20L19.25,20L19.25,17L19.25014997,17Q19.25014997,16.926146,19.2645582,16.853711Q19.27896631,16.781277,19.30722892,16.713044Q19.33549154,16.644812,19.37652254,16.583405Q19.41755348,16.521997,19.46977597,16.469774Q19.52199849,16.417551,19.58340567,16.37652Q19.64481282,16.335489000000003,19.71304482,16.307228000000002Q19.78127682,16.278966,19.85371152,16.264557Q19.926146217,16.250149999999998,20,16.250149999999998Q20.073853783,16.250149999999998,20.14628848,16.264557Q20.21872318,16.278965,20.28695518,16.307226999999997Q20.35518718,16.335489000000003,20.41659433,16.37652Q20.47800151,16.417551,20.53022403,16.469774Q20.58244652,16.521997,20.62347746,16.583405Q20.66450846,16.644812,20.69277108,16.713043Q20.72103369,16.781276,20.7354418,16.85371Q20.74985003,16.926146,20.74985003,17Z" fill-rule="evenodd" fill="#000000" fill-opacity="1" style="mix-blend-mode:passthrough"/></g></svg>