<svg xmlns="http://www.w3.org/2000/svg" xmlns:xlink="http://www.w3.org/1999/xlink" fill="none" version="1.1" width="24" height="24" viewBox="0 0 24 24"><defs><clipPath id="master_svg0_6029_02688"><rect x="0" y="0" width="24" height="24" rx="0"/></clipPath></defs><g clip-path="url(#master_svg0_6029_02688)"><g></g><g><path d="M10.586000832595825,2.9999997572631836L4.000000832595825,9.585997757263183C3.427669532595825,10.157967757263183,3.256363832595825,11.018447757263184,3.566000832595825,11.765997757263184L3.634000832595825,11.910997757263184C3.9762278325958254,12.579427757263183,4.663600832595825,13.000027757263183,5.414000832595825,13.000027757263183L8.000000832595825,13.000027757263183L8.000000832595825,15.000027757263183C8.000000832595825,15.552327757263184,8.447710832595824,16.000027757263183,9.000000832595825,16.000027757263183L15.000010832595825,16.000027757263183L15.117010832595826,15.993027757263183C15.620510832595825,15.933627757263183,16.000010832595827,15.506927757263183,16.000010832595827,15.000027757263183L15.999010832595825,13.000027757263183L18.586010832595825,13.000027757263183C19.394810832595823,12.999827757263184,20.123910832595826,12.512527757263184,20.433310832595826,11.765307757263184C20.742810832595826,11.018077757263184,20.571810832595826,10.157987757263184,20.000010832595827,9.585997757263183L13.414010832595824,3.0000007572631837C12.633000832595826,2.2192367572631837,11.367000832595824,2.2192367572631837,10.586000832595825,2.9999997572631836Z" fill="#000000" fill-opacity="1" style="mix-blend-mode:passthrough"/></g><g><path d="M15.000003374023438,20C15.529093374023438,20.000587463,15.966163374023438,20.41321,15.997173374023436,20.941395C16.02818337402344,21.46958,15.642393374023438,21.930509999999998,15.117003374023437,21.993L15.000003374023438,22L9.000000374023438,22C8.470906374023437,21.99941,8.033834474023438,21.58679,8.002827644023437,21.05861C7.971820374023437,20.53042,8.357609374023438,20.0694904,8.883000374023437,20.00699997L9.000000374023438,20L15.000003374023438,20Z" fill="#000000" fill-opacity="1" style="mix-blend-mode:passthrough"/></g><g><path d="M15.000003374023438,17C15.529093374023438,17.000587463,15.966163374023438,17.41321,15.997173374023436,17.941395C16.02818337402344,18.46958,15.642393374023438,18.930509999999998,15.117003374023437,18.993L15.000003374023438,19L9.000000374023438,19C8.470906374023437,18.99941,8.033834474023438,18.58679,8.002827644023437,18.05861C7.971820374023437,17.53042,8.357609374023438,17.0694904,8.883000374023437,17.00699997L9.000000374023438,17L15.000003374023438,17Z" fill="#000000" fill-opacity="1" style="mix-blend-mode:passthrough"/></g></g></svg>