<svg xmlns="http://www.w3.org/2000/svg" xmlns:xlink="http://www.w3.org/1999/xlink" fill="none" version="1.1" width="24" height="24" viewBox="0 0 24 24"><defs><clipPath id="master_svg0_5732_08063"><rect x="0" y="0" width="24" height="24" rx="0"/></clipPath></defs><g clip-path="url(#master_svg0_5732_08063)"><g><path d="M5,11.25L19,11.25Q19.073900000000002,11.25,19.1463,11.264410999999999Q19.2188,11.278822,19.287,11.30709Q19.3553,11.335359,19.4167,11.376398Q19.478099999999998,11.417437,19.5303,11.46967Q19.5826,11.521903,19.6236,11.583322Q19.6646,11.644742,19.6929,11.712987Q19.7212,11.781233,19.735599999999998,11.853682Q19.75,11.9261315,19.75,12Q19.75,12.0738685,19.735599999999998,12.146318Q19.7212,12.218767,19.6929,12.287013Q19.6646,12.355258,19.6236,12.416678Q19.5826,12.478097,19.5303,12.53033Q19.478099999999998,12.582563,19.4167,12.623602Q19.3553,12.664641,19.287,12.69291Q19.2188,12.721178,19.1463,12.735589000000001Q19.073900000000002,12.75,19,12.75L5,12.75Q4.9261315,12.75,4.853682,12.735589000000001Q4.781233,12.721178,4.712987,12.69291Q4.644742,12.664641,4.583322,12.623602Q4.521903,12.582563,4.46967,12.53033Q4.417437,12.478097,4.376398,12.416678Q4.335359,12.355258,4.30709,12.287013Q4.278822,12.218767,4.264411,12.146318Q4.25,12.0738685,4.25,12Q4.25,11.9261315,4.264411,11.853682Q4.278822,11.781233,4.30709,11.712987Q4.335359,11.644742,4.376398,11.583322Q4.417437,11.521903,4.46967,11.46967Q4.521903,11.417437,4.583322,11.376398Q4.644742,11.335359,4.712987,11.30709Q4.781233,11.278822,4.853682,11.264410999999999Q4.9261315,11.25,5,11.25Z" fill-rule="evenodd" fill="#000000" fill-opacity="1" style="mix-blend-mode:passthrough"/></g><g><path d="M19.53033,12.53033Q19.63582,12.424841,19.69291,12.287013Q19.75,12.149184,19.75,12Q19.75,11.9261315,19.735590000000002,11.853682Q19.72118,11.781233,19.69291,11.712987Q19.66464,11.644742,19.6236,11.583322Q19.58256,11.521903,19.53033,11.46967Q19.4781,11.417437,19.41668,11.376398Q19.35526,11.335359,19.287010000000002,11.30709Q19.21877,11.278822,19.14632,11.264410999999999Q19.07387,11.25,19,11.25Q18.85082,11.25,18.712989999999998,11.30709Q18.57516,11.364181,18.46967,11.46967L18.46921,11.470132L12.470132,17.46921L12.46967,17.46967Q12.364181,17.57516,12.30709,17.712989999999998Q12.25,17.85082,12.25,18Q12.25,18.07387,12.264410999999999,18.14632Q12.278822,18.21877,12.30709,18.287010000000002Q12.335359,18.35526,12.376398,18.41668Q12.417437,18.4781,12.46967,18.53033Q12.521903,18.58256,12.583322,18.6236Q12.644742,18.66464,12.712987,18.69291Q12.781233,18.72118,12.853682,18.735590000000002Q12.9261315,18.75,13,18.75Q13.149184,18.75,13.287013,18.69291Q13.424841,18.63582,13.53033,18.53033L13.530792,18.52987L19.52987,12.530792L19.53033,12.53033L19.53033,12.53033Z" fill-rule="evenodd" fill="#000000" fill-opacity="1" style="mix-blend-mode:passthrough"/></g><g><path d="M13.530484,5.469824L19.5297,11.46904L19.53033,11.46967Q19.63582,11.57516,19.69291,11.71299Q19.75,11.850819999999999,19.75,12Q19.75,12.07387,19.735590000000002,12.14632Q19.72118,12.21877,19.69291,12.28701Q19.66464,12.355260000000001,19.6236,12.41668Q19.58256,12.478100000000001,19.53033,12.53033Q19.4781,12.58256,19.41668,12.6236Q19.35526,12.66464,19.287010000000002,12.692910000000001Q19.21877,12.72118,19.14632,12.73559Q19.07387,12.75,19,12.75Q18.85082,12.75,18.712989999999998,12.692910000000001Q18.57516,12.635819999999999,18.46967,12.53033L18.46904,12.5297L12.469824,6.5304839999999995L12.46967,6.53033Q12.364181,6.424841,12.30709,6.287013Q12.25,6.149184,12.25,6Q12.25,5.9261315,12.264410999999999,5.853682Q12.278822,5.781233,12.30709,5.712987Q12.335359,5.644742,12.376398,5.583322Q12.417437,5.521903,12.46967,5.46967Q12.521903,5.417437,12.583322,5.376398Q12.644742,5.335359,12.712987,5.30709Q12.781233,5.278822,12.853682,5.264411Q12.9261315,5.25,13,5.25Q13.149184,5.25,13.287013,5.30709Q13.424841,5.364181,13.53033,5.46967L13.530484,5.469824Z" fill-rule="evenodd" fill="#000000" fill-opacity="1" style="mix-blend-mode:passthrough"/></g></g></svg>