<svg xmlns="http://www.w3.org/2000/svg" xmlns:xlink="http://www.w3.org/1999/xlink" fill="none" version="1.1" width="24" height="24" viewBox="0 0 24 24"><defs><clipPath id="master_svg0_5732_08097"><rect x="0" y="0" width="24" height="24" rx="0"/></clipPath></defs><g clip-path="url(#master_svg0_5732_08097)"><g><path d="M11.25,5Q11.25,4.9261315,11.264410999999999,4.853682Q11.278822,4.781233,11.30709,4.712987Q11.335359,4.644742,11.376398,4.583322Q11.417437,4.521903,11.46967,4.46967Q11.521903,4.417437,11.583322,4.376398Q11.644742,4.335359,11.712987,4.30709Q11.781233,4.278822,11.853682,4.264411Q11.9261315,4.25,12,4.25Q12.0738685,4.25,12.146318,4.264411Q12.218767,4.278822,12.287013,4.30709Q12.355258,4.335359,12.416678,4.376398Q12.478097,4.417437,12.53033,4.46967Q12.582563,4.521903,12.623602,4.583322Q12.664641,4.644742,12.69291,4.712987Q12.721178,4.781233,12.735589000000001,4.853682Q12.75,4.9261315,12.75,5L12.75,19Q12.75,19.073900000000002,12.735589000000001,19.1463Q12.721178,19.2188,12.69291,19.287Q12.664641,19.3553,12.623602,19.4167Q12.582563,19.478099999999998,12.53033,19.5303Q12.478097,19.5826,12.416678,19.6236Q12.355258,19.6646,12.287013,19.6929Q12.218767,19.7212,12.146318,19.735599999999998Q12.0738685,19.75,12,19.75Q11.9261315,19.75,11.853682,19.735599999999998Q11.781233,19.7212,11.712987,19.6929Q11.644742,19.6646,11.583322,19.6236Q11.521903,19.5826,11.46967,19.5303Q11.417437,19.478099999999998,11.376398,19.4167Q11.335359,19.3553,11.30709,19.287Q11.278822,19.2188,11.264410999999999,19.1463Q11.25,19.073900000000002,11.25,19L11.25,5Z" fill-rule="evenodd" fill="#000000" fill-opacity="1" style="mix-blend-mode:passthrough"/></g><g><path d="M12.530484,4.469824L18.5297,10.46904L18.53033,10.46967Q18.63582,10.57516,18.69291,10.71299Q18.75,10.850819999999999,18.75,11Q18.75,11.07387,18.735590000000002,11.14632Q18.72118,11.21877,18.69291,11.28701Q18.66464,11.355260000000001,18.6236,11.41668Q18.58256,11.478100000000001,18.53033,11.53033Q18.4781,11.58256,18.41668,11.6236Q18.35526,11.66464,18.287010000000002,11.692910000000001Q18.21877,11.72118,18.14632,11.73559Q18.07387,11.75,18,11.75Q17.85082,11.75,17.712989999999998,11.692910000000001Q17.57516,11.635819999999999,17.46967,11.53033L17.46904,11.5297L11.469824,5.5304839999999995L11.46967,5.53033Q11.364181,5.424841,11.30709,5.287013Q11.25,5.149184,11.25,5Q11.25,4.9261315,11.264410999999999,4.853682Q11.278822,4.781233,11.30709,4.712987Q11.335359,4.644742,11.376398,4.583322Q11.417437,4.521903,11.46967,4.46967Q11.521903,4.417437,11.583322,4.376398Q11.644742,4.335359,11.712987,4.30709Q11.781233,4.278822,11.853682,4.264411Q11.9261315,4.25,12,4.25Q12.149184,4.25,12.287013,4.30709Q12.424841,4.364181,12.53033,4.46967L12.530484,4.469824Z" fill-rule="evenodd" fill="#000000" fill-opacity="1" style="mix-blend-mode:passthrough"/></g><g><path d="M12.53033,5.53033Q12.635819999999999,5.424841,12.692910000000001,5.287013Q12.75,5.149184,12.75,5Q12.75,4.9261315,12.73559,4.853682Q12.72118,4.781233,12.692910000000001,4.712987Q12.66464,4.644742,12.6236,4.583322Q12.58256,4.521903,12.53033,4.46967Q12.478100000000001,4.417437,12.41668,4.376398Q12.355260000000001,4.335359,12.28701,4.30709Q12.21877,4.278822,12.14632,4.264411Q12.07387,4.25,12,4.25Q11.850819999999999,4.25,11.71299,4.30709Q11.57516,4.364181,11.46967,4.46967L11.46921,4.4701319999999996L5.4701319999999996,10.46921L5.46967,10.46967Q5.364181,10.57516,5.30709,10.71299Q5.25,10.850819999999999,5.25,11Q5.25,11.07387,5.264411,11.14632Q5.278822,11.21877,5.30709,11.28701Q5.335359,11.355260000000001,5.376398,11.41668Q5.417437,11.478100000000001,5.46967,11.53033Q5.521903,11.58256,5.583322,11.6236Q5.644742,11.66464,5.712987,11.692910000000001Q5.781233,11.72118,5.853682,11.73559Q5.9261315,11.75,6,11.75Q6.149184,11.75,6.287013,11.692910000000001Q6.424841,11.635819999999999,6.53033,11.53033L6.530792,11.529869999999999L12.529869999999999,5.530792L12.53033,5.53033L12.53033,5.53033Z" fill-rule="evenodd" fill="#000000" fill-opacity="1" style="mix-blend-mode:passthrough"/></g></g></svg>