<svg xmlns="http://www.w3.org/2000/svg" xmlns:xlink="http://www.w3.org/1999/xlink" fill="none" version="1.1" width="24" height="24" viewBox="0 0 24 24"><defs><clipPath id="master_svg0_5695_08058"><rect x="0" y="0" width="24" height="24" rx="0"/></clipPath></defs><g clip-path="url(#master_svg0_5695_08058)"><g><path d="M7.53033,6.53039103515625Q7.63582,6.42490203515625,7.69291,6.28707403515625Q7.75,6.14924503515625,7.75,6.00006103515625Q7.75,5.92619253515625,7.73559,5.85374303515625Q7.72118,5.78129403515625,7.69291,5.71304803515625Q7.66464,5.64480303515625,7.6236,5.58338303515625Q7.58256,5.52196403515625,7.53033,5.46973103515625Q7.4781,5.41749803515625,7.41668,5.37645903515625Q7.35526,5.33542003515625,7.28701,5.30715103515625Q7.21877,5.27888303515625,7.14632,5.26447203515625Q7.07387,5.25006103515625,7,5.25006103515625Q6.850820000000001,5.25006103515625,6.71299,5.30715103515625Q6.57516,5.36424203515625,6.46967,5.46973103515625L2.46967,9.46973103515625Q2.417437,9.52196103515625,2.376398,9.58338103515625Q2.335359,9.64480103515625,2.30709,9.71305103515625Q2.278822,9.78129103515625,2.264411,9.85374103515625Q2.25,9.92619103515625,2.25,10.00006103515625Q2.25,10.07393103515625,2.264411,10.14638103515625Q2.278822,10.21883103515625,2.30709,10.28707103515625Q2.335359,10.355321035156251,2.376398,10.41674103515625Q2.417437,10.478161035156251,2.46967,10.53039103515625Q2.575159,10.635881035156249,2.712987,10.692971035156251Q2.850816,10.75006103515625,3,10.75006103515625L17,10.75006103515625Q17.073900000000002,10.75006103515625,17.1463,10.73565103515625Q17.2188,10.72124103515625,17.287,10.692971035156251Q17.3553,10.66470103515625,17.4167,10.62366103515625Q17.478099999999998,10.58262103515625,17.5303,10.53039103515625Q17.5826,10.478161035156251,17.6236,10.41674103515625Q17.6646,10.355321035156251,17.6929,10.28707103515625Q17.7212,10.21883103515625,17.735599999999998,10.14638103515625Q17.75,10.07393103515625,17.75,10.00006103515625Q17.75,9.92619103515625,17.735599999999998,9.85374103515625Q17.7212,9.78129103515625,17.6929,9.71305103515625Q17.6646,9.64480103515625,17.6236,9.58338103515625Q17.5826,9.52196103515625,17.5303,9.46973103515625Q17.478099999999998,9.41750103515625,17.4167,9.37646103515625Q17.3553,9.33542103515625,17.287,9.30715103515625Q17.2188,9.27888103515625,17.1463,9.26447103515625Q17.073900000000002,9.25006103515625,17,9.25006103515625L4.81066,9.25006103515625L7.53033,6.53039103515625L7.53033,6.53039103515625Z" fill-rule="evenodd" fill="#000000" fill-opacity="1" style="mix-blend-mode:passthrough"/></g><g><path d="M16.470056185302735,17.46928L16.469666185302735,17.46967Q16.364176185302732,17.57516,16.307086185302737,17.71299Q16.249996185302734,17.85082,16.249996185302734,18Q16.249996185302734,18.07387,16.264406185302732,18.14632Q16.278816185302734,18.21877,16.307086185302737,18.287010000000002Q16.335356185302736,18.35526,16.376396185302735,18.41668Q16.417436185302734,18.4781,16.469666185302735,18.53033Q16.521896185302737,18.58256,16.583316185302735,18.6236Q16.644736185302733,18.66464,16.712986185302732,18.69291Q16.781226185302735,18.72118,16.853676185302735,18.735590000000002Q16.926126185302735,18.75,16.999996185302734,18.75Q17.149196185302735,18.75,17.286996185302733,18.69291Q17.424796185302732,18.63582,17.530296185302735,18.53033L17.530696185302734,18.52994L21.530296185302735,14.53033Q21.635796185302734,14.424841,21.692896185302736,14.287012Q21.749996185302734,14.149184,21.749996185302734,14Q21.749996185302734,13.850816,21.692896185302736,13.712987Q21.635796185302734,13.575159,21.530296185302735,13.46967Q21.424796185302732,13.364181,21.286996185302733,13.30709Q21.149196185302735,13.25,20.999996185302734,13.25L6.999996185302734,13.25Q6.926127685302735,13.25,6.853678185302734,13.264410999999999Q6.781229185302735,13.278822,6.712983185302734,13.30709Q6.644738185302734,13.335359,6.583318185302734,13.376398Q6.521899185302734,13.417437,6.469666185302734,13.46967Q6.417433185302734,13.521903,6.376394185302734,13.583322Q6.335355185302735,13.644742,6.307086185302734,13.712987Q6.278818185302734,13.781233,6.264407185302734,13.853682Q6.249996185302734,13.9261315,6.249996185302734,14Q6.249996185302734,14.0738685,6.264407185302734,14.146318Q6.278818185302734,14.218767,6.307086185302734,14.287013Q6.335355185302735,14.355258,6.376394185302734,14.416678Q6.417433185302734,14.478097,6.469666185302734,14.53033Q6.521899185302734,14.582563,6.583318185302734,14.623602Q6.644738185302734,14.664641,6.712983185302734,14.69291Q6.781229185302735,14.721178,6.853678185302734,14.735589000000001Q6.926127685302735,14.75,6.999996185302734,14.75L19.189296185302734,14.75L16.470056185302735,17.46928Z" fill-rule="evenodd" fill="#000000" fill-opacity="1" style="mix-blend-mode:passthrough"/></g></g></svg>