<svg xmlns="http://www.w3.org/2000/svg" xmlns:xlink="http://www.w3.org/1999/xlink" fill="none" version="1.1" width="24" height="24" viewBox="0 0 24 24"><defs><clipPath id="master_svg0_5566_09246"><rect x="0" y="0" width="24" height="24" rx="0"/></clipPath></defs><g clip-path="url(#master_svg0_5566_09246)"><g><path d="M15.530484,5.469824L19.53033,9.46967Q19.58256,9.5219,19.6236,9.58332Q19.66464,9.64474,19.69291,9.71299Q19.72118,9.78123,19.735590000000002,9.85368Q19.75,9.92613,19.75,10Q19.75,10.07387,19.735590000000002,10.14632Q19.72118,10.21877,19.69291,10.28701Q19.66464,10.355260000000001,19.6236,10.41668Q19.58256,10.478100000000001,19.53033,10.53033L15.530792,14.52987L15.53033,14.53033Q15.424841,14.63582,15.287013,14.69291Q15.149184,14.75,15,14.75Q14.9261315,14.75,14.853682,14.73559Q14.781233,14.72118,14.712987,14.69291Q14.644742,14.66464,14.583322,14.6236Q14.521903,14.58256,14.46967,14.53033Q14.417437,14.4781,14.376398,14.41668Q14.335359,14.35526,14.30709,14.28701Q14.278822,14.21877,14.264410999999999,14.14632Q14.25,14.07387,14.25,14Q14.25,13.850819999999999,14.30709,13.71299Q14.364181,13.57516,14.46967,13.46967L17.93934,10L14.469824,6.5304839999999995L14.46967,6.53033Q14.364181,6.424841,14.30709,6.287013Q14.25,6.149184,14.25,6Q14.25,5.9261315,14.264410999999999,5.853682Q14.278822,5.781233,14.30709,5.712987Q14.335359,5.644742,14.376398,5.583322Q14.417437,5.521903,14.46967,5.46967Q14.521903,5.417437,14.583322,5.376398Q14.644742,5.335359,14.712987,5.30709Q14.781233,5.278822,14.853682,5.264411Q14.9261315,5.25,15,5.25Q15.149184,5.25,15.287013,5.30709Q15.424841,5.364181,15.53033,5.46967L15.530484,5.469824Z" fill-rule="evenodd" fill="#000000" fill-opacity="1" style="mix-blend-mode:passthrough"/></g><g><path d="M8,18.75L9,18.75Q9.07387,18.75,9.14632,18.735590000000002Q9.21877,18.72118,9.28701,18.692909999999998Q9.355260000000001,18.66464,9.41668,18.6236Q9.478100000000001,18.58256,9.53033,18.53033Q9.58256,18.478099999999998,9.6236,18.41668Q9.66464,18.35526,9.692910000000001,18.287010000000002Q9.72118,18.21877,9.73559,18.14632Q9.75,18.07387,9.75,18Q9.75,17.92613,9.73559,17.85368Q9.72118,17.78123,9.692910000000001,17.712989999999998Q9.66464,17.64474,9.6236,17.58332Q9.58256,17.5219,9.53033,17.46967Q9.478100000000001,17.41744,9.41668,17.3764Q9.355260000000001,17.33536,9.28701,17.30709Q9.21877,17.27882,9.14632,17.264409999999998Q9.07387,17.25,9,17.25L8,17.25Q6.65381,17.25,5.7019,16.298099999999998Q4.75,15.34619,4.75,14Q4.75,12.65381,5.7019,11.7019Q6.65381,10.75,8,10.75L19,10.75Q19.073900000000002,10.75,19.1463,10.735589000000001Q19.2188,10.721178,19.287,10.69291Q19.3553,10.664641,19.4167,10.623602Q19.478099999999998,10.582563,19.5303,10.53033Q19.5826,10.478097,19.6236,10.416678Q19.6646,10.355258,19.6929,10.287013Q19.7212,10.218767,19.735599999999998,10.146318Q19.75,10.0738685,19.75,10Q19.75,9.9261315,19.735599999999998,9.853682Q19.7212,9.781233,19.6929,9.712987Q19.6646,9.644742,19.6236,9.583322Q19.5826,9.521903,19.5303,9.46967Q19.478099999999998,9.417437,19.4167,9.376398Q19.3553,9.335359,19.287,9.30709Q19.2188,9.278822,19.1463,9.264410999999999Q19.073900000000002,9.25,19,9.25L8,9.25Q6.03249,9.25,4.641243,10.641243Q3.25,12.03249,3.25,14Q3.25,15.96751,4.641243,17.35876Q6.03249,18.75,8,18.75Z" fill-rule="evenodd" fill="#000000" fill-opacity="1" style="mix-blend-mode:passthrough"/></g></g></svg>