<svg xmlns="http://www.w3.org/2000/svg" xmlns:xlink="http://www.w3.org/1999/xlink" fill="none" version="1.1" width="24" height="24" viewBox="0 0 24 24"><defs><clipPath id="master_svg0_6090_02720"><rect x="0" y="0" width="24" height="24" rx="0"/></clipPath></defs><g clip-path="url(#master_svg0_6090_02720)"><g><path d="M8.25,5Q8.25,4.926131457,8.264410699999999,4.85368228Q8.2788219,4.78123312,8.30709,4.71298748Q8.3353586,4.64474183,8.3763976,4.58332238Q8.4174368,4.52190292,8.4696698,4.46966994Q8.5219026,4.41743702,8.583322299999999,4.37639785Q8.6447415,4.33535868,8.7129872,4.3070904Q8.7812328,4.27882212,8.853682,4.26441109Q8.9261312,4.25,9,4.25Q9.0738688,4.25,9.1463175,4.26441109Q9.2187667,4.27882212,9.2870121,4.3070904Q9.355258,4.33535868,9.416677,4.37639785Q9.478097,4.41743702,9.5303297,4.46966994Q9.5825624,4.52190292,9.6236019,4.58332238Q9.6646409,4.64474183,9.692909199999999,4.71298748Q9.7211776,4.78123312,9.735589000000001,4.85368228Q9.75,4.926131457,9.75,5L9.75,9Q9.75,9.0738688,9.735589000000001,9.1463175Q9.7211776,9.2187667,9.692909199999999,9.2870121Q9.6646409,9.355258,9.6236019,9.416677Q9.5825624,9.478097,9.5303297,9.5303297Q9.478097,9.5825624,9.416677,9.6236019Q9.355258,9.6646409,9.2870121,9.692909199999999Q9.2187667,9.7211776,9.1463175,9.735589000000001Q9.0738688,9.75,9,9.75L5,9.75Q4.926131457,9.75,4.85368228,9.735589000000001Q4.78123312,9.7211776,4.71298748,9.692909199999999Q4.64474183,9.6646409,4.58332238,9.6236019Q4.52190292,9.5825624,4.46966994,9.5303297Q4.41743702,9.478097,4.37639785,9.416677Q4.33535868,9.355258,4.3070904,9.2870121Q4.27882212,9.2187667,4.26441109,9.1463175Q4.25,9.0738688,4.25,9Q4.25,8.9261312,4.26441109,8.853682Q4.27882212,8.7812326,4.3070904,8.7129869Q4.33535868,8.6447415,4.37639785,8.583321999999999Q4.41743702,8.5219026,4.46966994,8.4696698Q4.52190292,8.4174368,4.58332238,8.3763976Q4.64474183,8.3353586,4.71298748,8.30709Q4.78123312,8.2788219,4.85368228,8.264410999999999Q4.926131457,8.25,5,8.25L8.25,8.25L8.25,5Z" fill-rule="evenodd" fill="#000000" fill-opacity="1" style="mix-blend-mode:passthrough"/></g><g><path d="M3.5304843200000002,2.4698241899999998L9.529695,8.4690356L9.5303297,8.4696703Q9.635819,8.5751591,9.692909199999999,8.7129879Q9.75,8.8508158,9.75,9Q9.749999500000001,9.0738683,9.735588100000001,9.1463175Q9.7211771,9.218766200000001,9.6929088,9.2870121Q9.6646404,9.3552575,9.6236014,9.416677Q9.5825624,9.4780965,9.5303297,9.5303297Q9.4780965,9.5825624,9.416677,9.6236014Q9.3552575,9.6646404,9.2870121,9.6929088Q9.218766200000001,9.7211771,9.146317,9.735588100000001Q9.0738683,9.749999500000001,9,9.75Q8.8508158,9.75,8.7129879,9.692909700000001Q8.5751591,9.635819399999999,8.4696698,9.5303302L8.4690356,9.529695L2.4698241899999998,3.5304843200000002L2.46966994,3.53033006Q2.36418074,3.42484087,2.3070904,3.28701258Q2.25,3.14918427,2.25,3Q2.25,2.926131457,2.26441109,2.85368228Q2.27882212,2.78123312,2.3070904,2.71298748Q2.33535868,2.64474183,2.37639785,2.58332238Q2.41743702,2.52190292,2.46966994,2.46966994Q2.52190292,2.41743702,2.58332238,2.37639785Q2.64474183,2.33535868,2.71298748,2.3070904Q2.78123312,2.27882212,2.85368228,2.26441109Q2.926131457,2.25,3,2.25Q3.14918427,2.25,3.28701258,2.3070903400000002Q3.42484087,2.36418074,3.53033006,2.46966994L3.5304843200000002,2.4698241899999998Z" fill-rule="evenodd" fill="#000000" fill-opacity="1" style="mix-blend-mode:passthrough"/></g><g><path d="M5,14.25L9,14.25Q9.0738688,14.25,9.1463175,14.26441109Q9.2187667,14.27882212,9.2870121,14.3070904Q9.355258,14.33535868,9.416677,14.37639785Q9.478097,14.41743702,9.5303297,14.46966994Q9.5825624,14.52190292,9.6236019,14.58332238Q9.6646409,14.64474183,9.692909199999999,14.71298748Q9.7211776,14.78123312,9.735589000000001,14.85368228Q9.75,14.926131457,9.75,15L9.75,19Q9.75,19.0738688,9.735589000000001,19.146317500000002Q9.7211776,19.2187667,9.692909199999999,19.2870121Q9.6646409,19.355258,9.6236019,19.416677Q9.5825624,19.478096999999998,9.5303297,19.5303297Q9.478097,19.5825624,9.416677,19.6236019Q9.355258,19.664640900000002,9.2870121,19.6929092Q9.2187667,19.7211776,9.1463175,19.735589Q9.0738688,19.75,9,19.75Q8.9261312,19.75,8.853682,19.735589Q8.7812326,19.7211776,8.7129869,19.6929092Q8.6447415,19.664640900000002,8.583321999999999,19.6236019Q8.5219026,19.5825624,8.4696698,19.5303297Q8.4174368,19.478096999999998,8.3763976,19.416677Q8.3353586,19.355258,8.30709,19.2870121Q8.2788219,19.2187667,8.264410699999999,19.146317500000002Q8.25,19.0738688,8.25,19L8.25,15.75L5,15.75Q4.926131457,15.75,4.85368228,15.73558891Q4.78123312,15.72117788,4.71298748,15.6929096Q4.64474183,15.66464132,4.58332238,15.62360215Q4.52190292,15.58256298,4.46966994,15.53033006Q4.41743702,15.47809708,4.37639785,15.41667762Q4.33535868,15.35525817,4.3070904,15.28701252Q4.27882212,15.21876688,4.26441109,15.14631772Q4.25,15.073868543,4.25,15Q4.25,14.926131457,4.26441109,14.85368228Q4.27882212,14.78123312,4.3070904,14.71298748Q4.33535868,14.64474183,4.37639785,14.58332238Q4.41743702,14.52190292,4.46966994,14.46966994Q4.52190292,14.41743702,4.58332238,14.37639785Q4.64474183,14.33535868,4.71298748,14.3070904Q4.78123312,14.27882212,4.85368228,14.26441109Q4.926131457,14.25,5,14.25Z" fill-rule="evenodd" fill="#000000" fill-opacity="1" style="mix-blend-mode:passthrough"/></g><g><path d="M9.5303297,15.53033024Q9.6358185,15.42484105,9.692909199999999,15.2870127Q9.75,15.14918433,9.75,15Q9.749999500000001,14.926131457,9.735588100000001,14.85368228Q9.7211771,14.78123312,9.6929088,14.71298748Q9.6646404,14.64474183,9.6236014,14.58332238Q9.5825624,14.52190292,9.5303297,14.46966994Q9.4780965,14.41743702,9.416677,14.37639785Q9.3552575,14.33535868,9.2870121,14.3070904Q9.218766200000001,14.27882212,9.146317,14.26441109Q9.0738683,14.25,9,14.25Q8.8508158,14.25,8.7129874,14.30709028Q8.5751591,14.36418068,8.4696703,14.46966976L8.4692082,14.47013211L2.4701321099999998,20.4692082L2.46966994,20.4696703Q2.36418074,20.5751591,2.3070904,20.7129874Q2.25,20.8508158,2.25,21Q2.25,21.0738683,2.26441109,21.146317500000002Q2.27882212,21.2187662,2.3070904,21.2870121Q2.33535868,21.3552575,2.37639785,21.416677Q2.41743702,21.4780965,2.46966994,21.5303297Q2.52190292,21.5825624,2.58332238,21.6236014Q2.64474183,21.6646404,2.71298748,21.692908799999998Q2.78123312,21.7211771,2.85368228,21.7355881Q2.926131457,21.7499995,3,21.75Q3.14918433,21.75,3.2870127,21.6929092Q3.42484105,21.6358185,3.53033024,21.5303297L3.5307918799999998,21.5298676L9.5298676,15.53079188L9.5303297,15.53033006L9.5303297,15.53033024Z" fill-rule="evenodd" fill="#000000" fill-opacity="1" style="mix-blend-mode:passthrough"/></g><g><path d="M14.25,5Q14.25,4.926131457,14.26441109,4.85368228Q14.27882212,4.78123312,14.3070904,4.71298748Q14.33535868,4.64474183,14.37639785,4.58332238Q14.41743702,4.52190292,14.46966994,4.46966994Q14.52190292,4.41743702,14.58332238,4.37639785Q14.64474183,4.33535868,14.71298748,4.3070904Q14.78123312,4.27882212,14.85368228,4.26441109Q14.926131457,4.25,15,4.25Q15.073868543,4.25,15.14631772,4.26441109Q15.21876688,4.27882212,15.28701252,4.3070904Q15.35525817,4.33535868,15.41667762,4.37639785Q15.47809708,4.41743702,15.53033006,4.46966994Q15.58256298,4.52190292,15.62360215,4.58332238Q15.66464132,4.64474183,15.6929096,4.71298748Q15.72117788,4.78123312,15.73558891,4.85368228Q15.75,4.926131457,15.75,5L15.75,8.25L19,8.25Q19.0738688,8.25,19.146317500000002,8.264410999999999Q19.2187667,8.2788219,19.2870121,8.30709Q19.355258,8.3353586,19.416677,8.3763976Q19.478096999999998,8.4174368,19.5303297,8.4696698Q19.5825624,8.5219026,19.6236019,8.583322299999999Q19.664640900000002,8.6447415,19.6929092,8.7129872Q19.7211776,8.7812328,19.735589,8.853682Q19.75,8.9261312,19.75,9Q19.75,9.0738688,19.735589,9.1463175Q19.7211776,9.2187667,19.6929092,9.2870121Q19.664640900000002,9.355258,19.6236019,9.416677Q19.5825624,9.478097,19.5303297,9.5303297Q19.478096999999998,9.5825624,19.416677,9.6236019Q19.355258,9.6646409,19.2870121,9.692909199999999Q19.2187667,9.7211776,19.146317500000002,9.735589000000001Q19.0738688,9.75,19,9.75L15,9.75Q14.926131457,9.75,14.85368228,9.735589000000001Q14.78123312,9.7211776,14.71298748,9.692909199999999Q14.64474183,9.6646409,14.58332238,9.6236019Q14.52190292,9.5825624,14.46966994,9.5303297Q14.41743702,9.478097,14.37639785,9.416677Q14.33535868,9.355258,14.3070904,9.2870121Q14.27882212,9.2187667,14.26441109,9.1463175Q14.25,9.0738688,14.25,9L14.25,5Z" fill-rule="evenodd" fill="#000000" fill-opacity="1" style="mix-blend-mode:passthrough"/></g><g><path d="M21.5303297,3.53033024Q21.6358185,3.42484105,21.6929092,3.2870127Q21.75,3.14918433,21.75,3Q21.7499995,2.926131457,21.7355881,2.85368228Q21.7211771,2.78123312,21.692908799999998,2.71298748Q21.6646404,2.64474183,21.6236014,2.58332238Q21.5825624,2.52190292,21.5303297,2.46966994Q21.4780965,2.41743702,21.416677,2.37639785Q21.3552575,2.33535868,21.2870121,2.3070904Q21.2187662,2.27882212,21.146317,2.26441109Q21.0738683,2.25,21,2.25Q20.8508158,2.25,20.7129874,2.30709028Q20.5751591,2.36418068,20.4696703,2.46966976L20.4692082,2.4701321099999998L14.47013211,8.4692082L14.46966994,8.4696703Q14.36418074,8.5751591,14.3070904,8.7129874Q14.25,8.8508158,14.25,9Q14.25,9.0738683,14.26441109,9.1463175Q14.27882212,9.218766200000001,14.3070904,9.2870121Q14.33535868,9.3552575,14.37639785,9.416677Q14.41743702,9.4780965,14.46966994,9.5303297Q14.52190292,9.5825624,14.58332238,9.6236014Q14.64474183,9.6646404,14.71298748,9.6929088Q14.78123312,9.7211771,14.85368228,9.735588100000001Q14.926131457,9.749999500000001,15,9.75Q15.14918433,9.75,15.2870127,9.692909199999999Q15.42484105,9.6358185,15.53033024,9.5303297L15.53079188,9.5298676L21.5298676,3.5307918799999998L21.5303297,3.53033006L21.5303297,3.53033024Z" fill-rule="evenodd" fill="#000000" fill-opacity="1" style="mix-blend-mode:passthrough"/></g><g><path d="M14.25,15L14.25,19Q14.25,19.0738688,14.26441109,19.146317500000002Q14.27882212,19.2187667,14.3070904,19.2870121Q14.33535868,19.355258,14.37639785,19.416677Q14.41743702,19.478096999999998,14.46966994,19.5303297Q14.52190292,19.5825624,14.58332238,19.6236019Q14.64474183,19.664640900000002,14.71298748,19.6929092Q14.78123312,19.7211776,14.85368228,19.735589Q14.926131457,19.75,15,19.75Q15.073868543,19.75,15.14631772,19.735589Q15.21876688,19.7211776,15.28701252,19.6929092Q15.35525817,19.664640900000002,15.41667762,19.6236019Q15.47809708,19.5825624,15.53033006,19.5303297Q15.58256298,19.478096999999998,15.62360215,19.416677Q15.66464132,19.355258,15.6929096,19.2870121Q15.72117788,19.2187667,15.73558891,19.146317500000002Q15.75,19.0738688,15.75,19L15.75,15.75L19,15.75Q19.0738688,15.75,19.146317500000002,15.73558891Q19.2187667,15.72117788,19.2870121,15.6929096Q19.355258,15.66464132,19.416677,15.62360215Q19.478096999999998,15.58256298,19.5303297,15.53033006Q19.5825624,15.47809708,19.6236019,15.41667762Q19.664640900000002,15.35525817,19.6929092,15.28701252Q19.7211776,15.21876688,19.735589,15.14631772Q19.75,15.073868543,19.75,15Q19.75,14.926131457,19.735589,14.85368228Q19.7211776,14.78123312,19.6929092,14.71298748Q19.664640900000002,14.64474183,19.6236019,14.58332238Q19.5825624,14.52190292,19.5303297,14.46966994Q19.478096999999998,14.41743702,19.416677,14.37639785Q19.355258,14.33535868,19.2870121,14.3070904Q19.2187667,14.27882212,19.146317500000002,14.26441109Q19.0738688,14.25,19,14.25L15,14.25Q14.926131457,14.25,14.85368228,14.26441109Q14.78123312,14.27882212,14.71298748,14.3070904Q14.64474183,14.33535868,14.58332238,14.37639785Q14.52190292,14.41743702,14.46966994,14.46966994Q14.41743702,14.52190292,14.37639785,14.58332238Q14.33535868,14.64474183,14.3070904,14.71298748Q14.27882212,14.78123312,14.26441109,14.85368228Q14.25,14.926131457,14.25,15Z" fill-rule="evenodd" fill="#000000" fill-opacity="1" style="mix-blend-mode:passthrough"/></g><g><path d="M15.53048432,14.46982419L21.529695,20.469035599999998L21.5303297,20.4696703Q21.635818999999998,20.5751591,21.6929092,20.7129879Q21.75,20.8508158,21.75,21Q21.7499995,21.0738683,21.7355881,21.146317500000002Q21.7211771,21.2187662,21.692908799999998,21.2870121Q21.6646404,21.3552575,21.6236014,21.416677Q21.5825624,21.4780965,21.5303297,21.5303297Q21.4780965,21.5825624,21.416677,21.6236014Q21.3552575,21.6646404,21.2870121,21.692908799999998Q21.2187662,21.7211771,21.146317,21.7355881Q21.0738683,21.7499995,21,21.75Q20.8508158,21.75,20.7129879,21.6929097Q20.5751591,21.6358194,20.4696698,21.5303302L20.469035599999998,21.529695L14.46982419,15.53048432L14.46966994,15.53033006Q14.36418074,15.42484087,14.3070904,15.28701258Q14.25,15.14918427,14.25,15Q14.25,14.926131457,14.26441109,14.85368228Q14.27882212,14.78123312,14.3070904,14.71298748Q14.33535868,14.64474183,14.37639785,14.58332238Q14.41743702,14.52190292,14.46966994,14.46966994Q14.52190292,14.41743702,14.58332238,14.37639785Q14.64474183,14.33535868,14.71298748,14.3070904Q14.78123312,14.27882212,14.85368228,14.26441109Q14.926131457,14.25,15,14.25Q15.14918427,14.25,15.28701258,14.30709034Q15.42484087,14.36418074,15.53033006,14.46966994L15.53048432,14.46982419Z" fill-rule="evenodd" fill="#000000" fill-opacity="1" style="mix-blend-mode:passthrough"/></g></g></svg>