<svg xmlns="http://www.w3.org/2000/svg" xmlns:xlink="http://www.w3.org/1999/xlink" fill="none" version="1.1" width="24" height="24" viewBox="0 0 24 24"><defs><clipPath id="master_svg0_5566_09252"><rect x="0" y="0" width="24" height="24" rx="0"/></clipPath></defs><g clip-path="url(#master_svg0_5566_09252)"><g><path d="M9.53033,6.53033Q9.635819999999999,6.424841,9.692910000000001,6.287013Q9.75,6.149184,9.75,6Q9.75,5.9261315,9.73559,5.853682Q9.72118,5.781233,9.692910000000001,5.712987Q9.66464,5.644742,9.6236,5.583322Q9.58256,5.521903,9.53033,5.46967Q9.478100000000001,5.417437,9.41668,5.376398Q9.355260000000001,5.335359,9.28701,5.30709Q9.21877,5.278822,9.14632,5.264411Q9.07387,5.25,9,5.25Q8.85082,5.25,8.71299,5.30709Q8.57516,5.364181,8.46967,5.46967L4.46967,9.46967Q4.417437,9.5219,4.376398,9.58332Q4.335359,9.64474,4.30709,9.71299Q4.278822,9.78123,4.264411,9.85368Q4.25,9.92613,4.25,10Q4.25,10.07387,4.264411,10.14632Q4.278822,10.21877,4.30709,10.28701Q4.335359,10.355260000000001,4.376398,10.41668Q4.417437,10.478100000000001,4.46967,10.53033L8.46928,14.52994L8.46967,14.53033Q8.57516,14.63582,8.71299,14.69291Q8.85082,14.75,9,14.75Q9.07387,14.75,9.14632,14.73559Q9.21877,14.72118,9.28701,14.69291Q9.355260000000001,14.66464,9.41668,14.6236Q9.478100000000001,14.58256,9.53033,14.53033Q9.58256,14.4781,9.6236,14.41668Q9.66464,14.35526,9.692910000000001,14.28701Q9.72118,14.21877,9.73559,14.14632Q9.75,14.07387,9.75,14Q9.75,13.850819999999999,9.692910000000001,13.71299Q9.635819999999999,13.57516,9.53033,13.46967L6.06066,10L9.53033,6.53033L9.53033,6.53033Z" fill-rule="evenodd" fill="#000000" fill-opacity="1" style="mix-blend-mode:passthrough"/></g><g><path d="M5,9.25L16,9.25Q17.9675,9.25,19.358800000000002,10.641243Q20.75,12.03249,20.75,14Q20.75,15.96751,19.358800000000002,17.35876Q17.9675,18.75,16,18.75L15,18.75Q14.92613,18.75,14.85368,18.735590000000002Q14.78123,18.72118,14.71299,18.692909999999998Q14.64474,18.66464,14.58332,18.6236Q14.5219,18.58256,14.46967,18.53033Q14.41744,18.478099999999998,14.3764,18.41668Q14.33536,18.35526,14.30709,18.287010000000002Q14.27882,18.21877,14.26441,18.14632Q14.25,18.07387,14.25,18Q14.25,17.92613,14.26441,17.85368Q14.27882,17.78123,14.30709,17.712989999999998Q14.33536,17.64474,14.3764,17.58332Q14.41744,17.5219,14.46967,17.46967Q14.5219,17.41744,14.58332,17.3764Q14.64474,17.33536,14.71299,17.30709Q14.78123,17.27882,14.85368,17.264409999999998Q14.92613,17.25,15,17.25L16,17.25Q17.3462,17.25,18.298099999999998,16.298099999999998Q19.25,15.34619,19.25,14Q19.25,12.65381,18.298099999999998,11.7019Q17.3462,10.75,16,10.75L5,10.75Q4.9261315,10.75,4.853682,10.735589000000001Q4.781233,10.721178,4.712987,10.69291Q4.644742,10.664641,4.583322,10.623602Q4.521903,10.582563,4.46967,10.53033Q4.417437,10.478097,4.376398,10.416678Q4.335359,10.355258,4.30709,10.287013Q4.278822,10.218767,4.264411,10.146318Q4.25,10.0738685,4.25,10Q4.25,9.9261315,4.264411,9.853682Q4.278822,9.781233,4.30709,9.712987Q4.335359,9.644742,4.376398,9.583322Q4.417437,9.521903,4.46967,9.46967Q4.521903,9.417437,4.583322,9.376398Q4.644742,9.335359,4.712987,9.30709Q4.781233,9.278822,4.853682,9.264410999999999Q4.9261315,9.25,5,9.25Z" fill-rule="evenodd" fill="#000000" fill-opacity="1" style="mix-blend-mode:passthrough"/></g></g></svg>