<svg xmlns="http://www.w3.org/2000/svg" xmlns:xlink="http://www.w3.org/1999/xlink" fill="none" version="1.1" width="24" height="24" viewBox="0 0 24 24"><defs><clipPath id="master_svg0_6090_02729"><rect x="0" y="0" width="24" height="24" rx="0"/></clipPath></defs><g clip-path="url(#master_svg0_6090_02729)"><g><path d="M16,3.25L20,3.25Q20.0738688,3.25,20.146317500000002,3.26441109Q20.2187667,3.27882212,20.2870121,3.3070904Q20.355258,3.33535868,20.416677,3.37639785Q20.478096999999998,3.41743702,20.5303297,3.46966994Q20.5825624,3.52190292,20.6236019,3.58332238Q20.664640900000002,3.64474183,20.6929092,3.71298748Q20.7211776,3.78123312,20.735589,3.85368228Q20.75,3.926131457,20.75,4L20.75,8Q20.75,8.0738688,20.735589,8.1463175Q20.7211776,8.2187667,20.6929092,8.2870121Q20.664640900000002,8.355258,20.6236019,8.416677Q20.5825624,8.478097,20.5303297,8.5303297Q20.478096999999998,8.5825624,20.416677,8.6236019Q20.355258,8.6646409,20.2870121,8.692909199999999Q20.2187667,8.7211776,20.146317500000002,8.735589000000001Q20.0738688,8.75,20,8.75Q19.9261312,8.75,19.853682,8.735589000000001Q19.7812326,8.7211776,19.7129869,8.692909199999999Q19.6447415,8.6646409,19.583322,8.6236019Q19.5219026,8.5825624,19.4696698,8.5303297Q19.4174368,8.478097,19.3763976,8.416677Q19.3353586,8.355258,19.30709,8.2870121Q19.2788219,8.2187667,19.2644107,8.1463175Q19.25,8.0738688,19.25,8L19.25,4.75L16,4.75Q15.926131457,4.75,15.85368228,4.73558891Q15.78123312,4.72117788,15.71298748,4.6929096Q15.64474183,4.66464132,15.58332238,4.62360215Q15.52190292,4.58256298,15.46966994,4.53033006Q15.41743702,4.47809708,15.37639785,4.41667762Q15.33535868,4.35525817,15.3070904,4.28701252Q15.27882212,4.21876688,15.26441109,4.14631772Q15.25,4.073868543,15.25,4Q15.25,3.926131457,15.26441109,3.85368228Q15.27882212,3.78123312,15.3070904,3.71298748Q15.33535868,3.64474183,15.37639785,3.58332238Q15.41743702,3.52190292,15.46966994,3.46966994Q15.52190292,3.41743702,15.58332238,3.37639785Q15.64474183,3.33535868,15.71298748,3.3070904Q15.78123312,3.27882212,15.85368228,3.26441109Q15.926131457,3.25,16,3.25Z" fill-rule="evenodd" fill="#000000" fill-opacity="1" style="mix-blend-mode:passthrough"/></g><g><path d="M20.5303297,4.53033024Q20.6358185,4.42484105,20.6929092,4.2870127Q20.75,4.14918433,20.75,4Q20.7499995,3.926131457,20.7355881,3.85368228Q20.7211771,3.78123312,20.692908799999998,3.71298748Q20.6646404,3.64474183,20.6236014,3.58332238Q20.5825624,3.52190292,20.5303297,3.46966994Q20.4780965,3.41743702,20.416677,3.37639785Q20.3552575,3.33535868,20.2870121,3.3070904Q20.2187662,3.27882212,20.146317,3.26441109Q20.0738683,3.25,20,3.25Q19.8508158,3.25,19.7129874,3.30709028Q19.5751591,3.36418068,19.4696703,3.46966976L19.4692082,3.4701321099999998L13.47013211,9.4692082L13.46966994,9.4696703Q13.36418074,9.5751591,13.3070904,9.7129874Q13.25,9.8508158,13.25,10Q13.25,10.0738683,13.26441109,10.1463175Q13.27882212,10.218766200000001,13.3070904,10.2870121Q13.33535868,10.3552575,13.37639785,10.416677Q13.41743702,10.4780965,13.46966994,10.5303297Q13.52190292,10.5825624,13.58332238,10.6236014Q13.64474183,10.6646404,13.71298748,10.6929088Q13.78123312,10.7211771,13.85368228,10.735588100000001Q13.926131457,10.749999500000001,14,10.75Q14.14918433,10.75,14.2870127,10.692909199999999Q14.42484105,10.6358185,14.53033024,10.5303297L14.53079188,10.5298676L20.5298676,4.53079188L20.5303297,4.53033006L20.5303297,4.53033024Z" fill-rule="evenodd" fill="#000000" fill-opacity="1" style="mix-blend-mode:passthrough"/></g><g><path d="M3.25,16Q3.25,15.926131457,3.26441109,15.85368228Q3.27882212,15.78123312,3.3070904,15.71298748Q3.33535868,15.64474183,3.37639785,15.58332238Q3.41743702,15.52190292,3.46966994,15.46966994Q3.52190292,15.41743702,3.58332238,15.37639785Q3.64474183,15.33535868,3.71298748,15.3070904Q3.78123312,15.27882212,3.85368228,15.26441109Q3.926131457,15.25,4,15.25Q4.073868543,15.25,4.14631772,15.26441109Q4.21876688,15.27882212,4.28701252,15.3070904Q4.35525817,15.33535868,4.41667762,15.37639785Q4.47809708,15.41743702,4.53033006,15.46966994Q4.58256298,15.52190292,4.62360215,15.58332238Q4.66464132,15.64474183,4.6929096,15.71298748Q4.72117788,15.78123312,4.73558891,15.85368228Q4.75,15.926131457,4.75,16L4.75,19.25L8,19.25Q8.0738688,19.25,8.1463175,19.264411Q8.2187667,19.2788219,8.2870121,19.30709Q8.355258,19.3353586,8.416677,19.3763976Q8.478097,19.4174368,8.5303297,19.4696698Q8.5825624,19.5219026,8.6236019,19.5833223Q8.6646409,19.6447415,8.692909199999999,19.7129872Q8.7211776,19.7812328,8.735589000000001,19.853682Q8.75,19.9261312,8.75,20Q8.75,20.0738688,8.735589000000001,20.146317500000002Q8.7211776,20.2187667,8.692909199999999,20.2870121Q8.6646409,20.355258,8.6236019,20.416677Q8.5825624,20.478096999999998,8.5303297,20.5303297Q8.478097,20.5825624,8.416677,20.6236019Q8.355258,20.664640900000002,8.2870121,20.6929092Q8.2187667,20.7211776,8.1463175,20.735589Q8.0738688,20.75,8,20.75L4,20.75Q3.926131457,20.75,3.85368228,20.735589Q3.78123312,20.7211776,3.71298748,20.6929092Q3.64474183,20.664640900000002,3.58332238,20.6236019Q3.52190292,20.5825624,3.46966994,20.5303297Q3.41743702,20.478096999999998,3.37639785,20.416677Q3.33535868,20.355258,3.3070904,20.2870121Q3.27882212,20.2187667,3.26441109,20.146317500000002Q3.25,20.0738688,3.25,20L3.25,16Z" fill-rule="evenodd" fill="#000000" fill-opacity="1" style="mix-blend-mode:passthrough"/></g><g><path d="M10.5303297,14.53033024Q10.6358185,14.42484105,10.692909199999999,14.2870127Q10.75,14.14918433,10.75,14Q10.749999500000001,13.926131457,10.735588100000001,13.85368228Q10.7211771,13.78123312,10.6929088,13.71298748Q10.6646404,13.64474183,10.6236014,13.58332238Q10.5825624,13.52190292,10.5303297,13.46966994Q10.4780965,13.41743702,10.416677,13.37639785Q10.3552575,13.33535868,10.2870121,13.3070904Q10.218766200000001,13.27882212,10.146317,13.26441109Q10.0738683,13.25,10,13.25Q9.8508158,13.25,9.7129874,13.30709028Q9.5751591,13.36418068,9.4696703,13.46966976L9.4692082,13.47013211L3.4701321099999998,19.4692082L3.46966994,19.4696703Q3.36418074,19.5751591,3.3070904,19.7129874Q3.25,19.8508158,3.25,20Q3.25,20.0738683,3.26441109,20.146317500000002Q3.27882212,20.2187662,3.3070904,20.2870121Q3.33535868,20.3552575,3.37639785,20.416677Q3.41743702,20.4780965,3.46966994,20.5303297Q3.52190292,20.5825624,3.58332238,20.6236014Q3.64474183,20.6646404,3.71298748,20.692908799999998Q3.78123312,20.7211771,3.85368228,20.7355881Q3.926131457,20.7499995,4,20.75Q4.14918433,20.75,4.2870127,20.6929092Q4.42484105,20.6358185,4.53033024,20.5303297L4.53079188,20.5298676L10.5298676,14.53079188L10.5303297,14.53033006L10.5303297,14.53033024Z" fill-rule="evenodd" fill="#000000" fill-opacity="1" style="mix-blend-mode:passthrough"/></g><g><path d="M19.25,16Q19.25,15.926131457,19.2644107,15.85368228Q19.2788219,15.78123312,19.30709,15.71298748Q19.3353586,15.64474183,19.3763976,15.58332238Q19.4174368,15.52190292,19.4696698,15.46966994Q19.5219026,15.41743702,19.5833223,15.37639785Q19.6447415,15.33535868,19.7129872,15.3070904Q19.7812328,15.27882212,19.853682,15.26441109Q19.9261312,15.25,20,15.25Q20.0738688,15.25,20.146317500000002,15.26441109Q20.2187667,15.27882212,20.2870121,15.3070904Q20.355258,15.33535868,20.416677,15.37639785Q20.478096999999998,15.41743702,20.5303297,15.46966994Q20.5825624,15.52190292,20.6236019,15.58332238Q20.664640900000002,15.64474183,20.6929092,15.71298748Q20.7211776,15.78123312,20.735589,15.85368228Q20.75,15.926131457,20.75,16L20.75,20Q20.75,20.0738688,20.735589,20.146317500000002Q20.7211776,20.2187667,20.6929092,20.2870121Q20.664640900000002,20.355258,20.6236019,20.416677Q20.5825624,20.478096999999998,20.5303297,20.5303297Q20.478096999999998,20.5825624,20.416677,20.6236019Q20.355258,20.664640900000002,20.2870121,20.6929092Q20.2187667,20.7211776,20.146317500000002,20.735589Q20.0738688,20.75,20,20.75L16,20.75Q15.926131457,20.75,15.85368228,20.735589Q15.78123312,20.7211776,15.71298748,20.6929092Q15.64474183,20.664640900000002,15.58332238,20.6236019Q15.52190292,20.5825624,15.46966994,20.5303297Q15.41743702,20.478096999999998,15.37639785,20.416677Q15.33535868,20.355258,15.3070904,20.2870121Q15.27882212,20.2187667,15.26441109,20.146317500000002Q15.25,20.0738688,15.25,20Q15.25,19.9261312,15.26441109,19.853682Q15.27882212,19.7812326,15.3070904,19.7129869Q15.33535868,19.6447415,15.37639785,19.583322Q15.41743702,19.5219026,15.46966994,19.4696698Q15.52190292,19.4174368,15.58332238,19.3763976Q15.64474183,19.3353586,15.71298748,19.30709Q15.78123312,19.2788219,15.85368228,19.264411Q15.926131457,19.25,16,19.25L19.25,19.25L19.25,16Z" fill-rule="evenodd" fill="#000000" fill-opacity="1" style="mix-blend-mode:passthrough"/></g><g><path d="M14.53048432,13.46982419L20.529695,19.469035599999998L20.5303297,19.4696703Q20.635818999999998,19.5751591,20.6929092,19.7129879Q20.75,19.8508158,20.75,20Q20.7499995,20.0738683,20.7355881,20.146317500000002Q20.7211771,20.2187662,20.692908799999998,20.2870121Q20.6646404,20.3552575,20.6236014,20.416677Q20.5825624,20.4780965,20.5303297,20.5303297Q20.4780965,20.5825624,20.416677,20.6236014Q20.3552575,20.6646404,20.2870121,20.692908799999998Q20.2187662,20.7211771,20.146317,20.7355881Q20.0738683,20.7499995,20,20.75Q19.8508158,20.75,19.7129879,20.6929097Q19.5751591,20.6358194,19.4696698,20.5303302L19.469035599999998,20.529695L13.46982419,14.53048432L13.46966994,14.53033006Q13.36418074,14.42484087,13.3070904,14.28701258Q13.25,14.14918427,13.25,14Q13.25,13.926131457,13.26441109,13.85368228Q13.27882212,13.78123312,13.3070904,13.71298748Q13.33535868,13.64474183,13.37639785,13.58332238Q13.41743702,13.52190292,13.46966994,13.46966994Q13.52190292,13.41743702,13.58332238,13.37639785Q13.64474183,13.33535868,13.71298748,13.3070904Q13.78123312,13.27882212,13.85368228,13.26441109Q13.926131457,13.25,14,13.25Q14.14918427,13.25,14.28701258,13.30709034Q14.42484087,13.36418074,14.53033006,13.46966994L14.53048432,13.46982419Z" fill-rule="evenodd" fill="#000000" fill-opacity="1" style="mix-blend-mode:passthrough"/></g><g><path d="M3.25,4L3.25,8Q3.25,8.0738688,3.26441109,8.1463175Q3.27882212,8.2187667,3.3070904,8.2870121Q3.33535868,8.355258,3.37639785,8.416677Q3.41743702,8.478097,3.46966994,8.5303297Q3.52190292,8.5825624,3.58332238,8.6236019Q3.64474183,8.6646409,3.71298748,8.692909199999999Q3.78123312,8.7211776,3.85368228,8.735589000000001Q3.926131457,8.75,4,8.75Q4.073868543,8.75,4.14631772,8.735589000000001Q4.21876688,8.7211776,4.28701252,8.692909199999999Q4.35525817,8.6646409,4.41667762,8.6236019Q4.47809708,8.5825624,4.53033006,8.5303297Q4.58256298,8.478097,4.62360215,8.416677Q4.66464132,8.355258,4.6929096,8.2870121Q4.72117788,8.2187667,4.73558891,8.1463175Q4.75,8.0738688,4.75,8L4.75,4.75L8,4.75Q8.0738688,4.75,8.1463175,4.73558891Q8.2187667,4.72117788,8.2870121,4.6929096Q8.355258,4.66464132,8.416677,4.62360215Q8.478097,4.58256298,8.5303297,4.53033006Q8.5825624,4.47809708,8.6236019,4.41667762Q8.6646409,4.35525817,8.692909199999999,4.28701252Q8.7211776,4.21876688,8.735589000000001,4.14631772Q8.75,4.073868543,8.75,4Q8.75,3.926131457,8.735589000000001,3.85368228Q8.7211776,3.78123312,8.692909199999999,3.71298748Q8.6646409,3.64474183,8.6236019,3.58332238Q8.5825624,3.52190292,8.5303297,3.46966994Q8.478097,3.41743702,8.416677,3.37639785Q8.355258,3.33535868,8.2870121,3.3070904Q8.2187667,3.27882212,8.1463175,3.26441109Q8.0738688,3.25,8,3.25L4,3.25Q3.926131457,3.25,3.85368228,3.26441109Q3.78123312,3.27882212,3.71298748,3.3070904Q3.64474183,3.33535868,3.58332238,3.37639785Q3.52190292,3.41743702,3.46966994,3.46966994Q3.41743702,3.52190292,3.37639785,3.58332238Q3.33535868,3.64474183,3.3070904,3.71298748Q3.27882212,3.78123312,3.26441109,3.85368228Q3.25,3.926131457,3.25,4Z" fill-rule="evenodd" fill="#000000" fill-opacity="1" style="mix-blend-mode:passthrough"/></g><g><path d="M4.53048432,3.4698241899999998L10.529695,9.4690356L10.5303297,9.4696703Q10.635819,9.5751591,10.692909199999999,9.7129879Q10.75,9.8508158,10.75,10Q10.749999500000001,10.0738683,10.735588100000001,10.1463175Q10.7211771,10.218766200000001,10.6929088,10.2870121Q10.6646404,10.3552575,10.6236014,10.416677Q10.5825624,10.4780965,10.5303297,10.5303297Q10.4780965,10.5825624,10.416677,10.6236014Q10.3552575,10.6646404,10.2870121,10.6929088Q10.218766200000001,10.7211771,10.146317,10.735588100000001Q10.0738683,10.749999500000001,10,10.75Q9.8508158,10.75,9.7129879,10.692909700000001Q9.5751591,10.635819399999999,9.4696698,10.5303302L9.4690356,10.529695L3.4698241899999998,4.53048432L3.46966994,4.53033006Q3.36418074,4.42484087,3.3070904,4.28701258Q3.25,4.14918427,3.25,4Q3.25,3.926131457,3.26441109,3.85368228Q3.27882212,3.78123312,3.3070904,3.71298748Q3.33535868,3.64474183,3.37639785,3.58332238Q3.41743702,3.52190292,3.46966994,3.46966994Q3.52190292,3.41743702,3.58332238,3.37639785Q3.64474183,3.33535868,3.71298748,3.3070904Q3.78123312,3.27882212,3.85368228,3.26441109Q3.926131457,3.25,4,3.25Q4.14918427,3.25,4.28701258,3.3070903400000002Q4.42484087,3.36418074,4.53033006,3.46966994L4.53048432,3.4698241899999998Z" fill-rule="evenodd" fill="#000000" fill-opacity="1" style="mix-blend-mode:passthrough"/></g></g></svg>