<svg xmlns="http://www.w3.org/2000/svg" xmlns:xlink="http://www.w3.org/1999/xlink" fill="none" version="1.1" width="24" height="24" viewBox="0 0 24 24"><defs><clipPath id="master_svg0_5732_08109"><rect x="0" y="0" width="24" height="24" rx="0"/></clipPath></defs><g clip-path="url(#master_svg0_5732_08109)"><g><path d="M11.25,5Q11.25,4.9261315,11.264410999999999,4.853682Q11.278822,4.781233,11.30709,4.712987Q11.335359,4.644742,11.376398,4.583322Q11.417437,4.521903,11.46967,4.46967Q11.521903,4.417437,11.583322,4.376398Q11.644742,4.335359,11.712987,4.30709Q11.781233,4.278822,11.853682,4.264411Q11.9261315,4.25,12,4.25Q12.0738685,4.25,12.146318,4.264411Q12.218767,4.278822,12.287013,4.30709Q12.355258,4.335359,12.416678,4.376398Q12.478097,4.417437,12.53033,4.46967Q12.582563,4.521903,12.623602,4.583322Q12.664641,4.644742,12.69291,4.712987Q12.721178,4.781233,12.735589000000001,4.853682Q12.75,4.9261315,12.75,5L12.75,19Q12.75,19.073900000000002,12.735589000000001,19.1463Q12.721178,19.2188,12.69291,19.287Q12.664641,19.3553,12.623602,19.4167Q12.582563,19.478099999999998,12.53033,19.5303Q12.478097,19.5826,12.416678,19.6236Q12.355258,19.6646,12.287013,19.6929Q12.218767,19.7212,12.146318,19.735599999999998Q12.0738685,19.75,12,19.75Q11.9261315,19.75,11.853682,19.735599999999998Q11.781233,19.7212,11.712987,19.6929Q11.644742,19.6646,11.583322,19.6236Q11.521903,19.5826,11.46967,19.5303Q11.417437,19.478099999999998,11.376398,19.4167Q11.335359,19.3553,11.30709,19.287Q11.278822,19.2188,11.264410999999999,19.1463Q11.25,19.073900000000002,11.25,19L11.25,5Z" fill-rule="evenodd" fill="#000000" fill-opacity="1" style="mix-blend-mode:passthrough"/></g><g><path d="M18.53033,13.53033Q18.63582,13.424841,18.69291,13.287013Q18.75,13.149184,18.75,13Q18.75,12.9261315,18.735590000000002,12.853682Q18.72118,12.781233,18.69291,12.712987Q18.66464,12.644742,18.6236,12.583322Q18.58256,12.521903,18.53033,12.46967Q18.4781,12.417437,18.41668,12.376398Q18.35526,12.335359,18.287010000000002,12.30709Q18.21877,12.278822,18.14632,12.264410999999999Q18.07387,12.25,18,12.25Q17.85082,12.25,17.712989999999998,12.30709Q17.57516,12.364181,17.46967,12.46967L17.46921,12.470132L11.470132,18.46921L11.46967,18.46967Q11.364181,18.57516,11.30709,18.712989999999998Q11.25,18.85082,11.25,19Q11.25,19.07387,11.264410999999999,19.14632Q11.278822,19.21877,11.30709,19.287010000000002Q11.335359,19.35526,11.376398,19.41668Q11.417437,19.4781,11.46967,19.53033Q11.521903,19.58256,11.583322,19.6236Q11.644742,19.66464,11.712987,19.69291Q11.781233,19.72118,11.853682,19.735590000000002Q11.9261315,19.75,12,19.75Q12.149184,19.75,12.287013,19.69291Q12.424841,19.63582,12.53033,19.53033L12.530792,19.52987L18.52987,13.530792L18.53033,13.53033L18.53033,13.53033Z" fill-rule="evenodd" fill="#000000" fill-opacity="1" style="mix-blend-mode:passthrough"/></g><g><path d="M6.5304839999999995,12.469824L12.5297,18.46904L12.53033,18.46967Q12.635819999999999,18.57516,12.692910000000001,18.712989999999998Q12.75,18.85082,12.75,19Q12.75,19.07387,12.73559,19.14632Q12.72118,19.21877,12.692910000000001,19.287010000000002Q12.66464,19.35526,12.6236,19.41668Q12.58256,19.4781,12.53033,19.53033Q12.478100000000001,19.58256,12.41668,19.6236Q12.355260000000001,19.66464,12.28701,19.69291Q12.21877,19.72118,12.14632,19.735590000000002Q12.07387,19.75,12,19.75Q11.850819999999999,19.75,11.71299,19.69291Q11.57516,19.63582,11.46967,19.53033L11.46904,19.5297L5.469824,13.530484L5.46967,13.53033Q5.364181,13.424841,5.30709,13.287013Q5.25,13.149184,5.25,13Q5.25,12.9261315,5.264411,12.853682Q5.278822,12.781233,5.30709,12.712987Q5.335359,12.644742,5.376398,12.583322Q5.417437,12.521903,5.46967,12.46967Q5.521903,12.417437,5.583322,12.376398Q5.644742,12.335359,5.712987,12.30709Q5.781233,12.278822,5.853682,12.264410999999999Q5.9261315,12.25,6,12.25Q6.149184,12.25,6.287013,12.30709Q6.424841,12.364181,6.53033,12.46967L6.5304839999999995,12.469824Z" fill-rule="evenodd" fill="#000000" fill-opacity="1" style="mix-blend-mode:passthrough"/></g></g></svg>