<?xml version="1.0" encoding="UTF-8"?>
<svg id="_图层_1" data-name="图层 1" xmlns="http://www.w3.org/2000/svg" viewBox="0 0 24 24">
  <defs>
    <style>
      .cls-1 {
        fill: #231f20;
      }
    </style>
  </defs>
  <path class="cls-1" d="M13.05,1.34C7.17,.77,1.95,5.08,1.38,10.95c-.44,4.58,2.11,8.94,6.32,10.8,1.35,.61,2.8,.94,4.28,.96,2.35,0,4.63-.77,6.5-2.2,.47-.36,.56-1.03,.2-1.5-.36-.47-1.03-.57-1.5-.21,0,0,0,0-.01,0-3.77,2.85-9.13,2.1-11.98-1.67-2.85-3.77-2.1-9.13,1.67-11.98,1.7-1.28,3.82-1.89,5.94-1.69,4.45,.51,7.79,4.31,7.73,8.79v.73c0,1.01-.83,1.82-1.84,1.82-.02,0-.04,0-.07,0-1.02-.11-1.77-.99-1.73-2.01v-4.62c0-.59-.48-1.07-1.07-1.07h0c-.54,0-1,.39-1.07,.93-.99-.94-2.31-1.46-3.68-1.45-3,.02-5.42,2.48-5.4,5.48,.02,3,2.48,5.42,5.48,5.4,1.72-.01,3.34-.84,4.35-2.23,1.15,1.78,3.54,2.3,5.32,1.14,.22-.14,.43-.31,.61-.49,.79-.75,1.23-1.8,1.22-2.9v-.73c.05-5.56-4.1-10.27-9.62-10.93Zm-1.95,13.99c-1.82,0-3.3-1.48-3.3-3.3s1.48-3.3,3.3-3.3,3.3,1.48,3.3,3.3h0c0,1.82-1.48,3.3-3.3,3.3Z"/>
</svg>