<?xml version="1.0" encoding="utf-8"?>
<!-- Generator: Adobe Illustrator 27.0.0, SVG Export Plug-In . SVG Version: 6.00 Build 0)  -->
<svg version="1.1" id="图层_1" xmlns="http://www.w3.org/2000/svg" xmlns:xlink="http://www.w3.org/1999/xlink" x="0px" y="0px"
	 viewBox="0 0 24 24" style="enable-background:new 0 0 24 24;" xml:space="preserve">
<path d="M12,1C5.9,1,1,5.9,1,12s4.9,11,11,11s11-4.9,11-11S18.1,1,12,1z M12,21.4c-5.2,0-9.4-4.2-9.4-9.4S6.8,2.6,12,2.6
	s9.4,4.2,9.4,9.4S17.2,21.4,12,21.4z"/>
<path d="M12,13.9L12,13.9c-0.6,0-1.1-0.5-1.1-1.1l-0.3-5c-0.1-0.8,0.5-1.5,1.3-1.6c0,0,0.1,0,0.1,0l0,0c0.8,0,1.4,0.6,1.4,1.4
	c0,0,0,0.1,0,0.1l-0.3,5C13.1,13.4,12.6,13.9,12,13.9C12,13.9,12,13.9,12,13.9z"/>
<circle cx="12" cy="16.3" r="1.4"/>
</svg>
