<svg xmlns="http://www.w3.org/2000/svg" xmlns:xlink="http://www.w3.org/1999/xlink" fill="none" version="1.1" width="24" height="24" viewBox="0 0 24 24"><defs><clipPath id="master_svg0_36_02683"><rect x="0" y="0" width="24" height="24" rx="0"/></clipPath><filter id="master_svg1_36_02693" filterUnits="objectBoundingBox" color-interpolation-filters="sRGB" x="-0.3" y="-0.4" width="1.8" height="1.8"><feFlood flood-opacity="0" result="BackgroundImageFix"/><feColorMatrix in="SourceAlpha" type="matrix" values="0 0 0 0 0 0 0 0 0 0 0 0 0 0 0 0 0 0 127 0"/><feOffset dy="0" dx="1"/><feGaussianBlur stdDeviation="1"/><feColorMatrix type="matrix" values="0 0 0 0 0 0 0 0 0 0.1726190447807312 0 0 0 0 0.06277056038379669 0 0 0 0.33000001311302185 0"/><feBlend mode="normal" in2="BackgroundImageFix" result="effect1_dropShadow"/><feBlend mode="normal" in="SourceGraphic" in2="effect1_dropShadow" result="shape"/></filter></defs><g clip-path="url(#master_svg0_36_02683)"><g><path d="M4,7L4.0000125766,12L20,12L20,7L4,7Z" fill="#437ACD" fill-opacity="1"/></g><g><path d="M4.00000503065,4.00001L4.0000125766,7L20,7L20,4C20,2.895431,19.104599999999998,2,18,2L6.00001,2C4.895433,2,4.0000022523,2.895433,4.00000503065,4.00001Z" fill="#5DA3E8" fill-opacity="1"/></g><g><path d="M4,17L4.00000754596,20.00001C4.0000103243,21.10457,4.89544,22,6.00001,22L18,22C19.104599999999998,22,20,21.10457,20,20L20,17L4,17Z" fill="#1E3E8C" fill-opacity="1"/></g><g><path d="M4,12L4.0000125766,17L20,17L20,12L4,12Z" fill="#2C59B7" fill-opacity="1"/></g><g filter="url(#master_svg1_36_02693)"><rect x="1.5" y="7" width="10" height="10" rx="2" fill="#214AAF" fill-opacity="1"/></g><g><path d="M3.2724006293945314,10.181902000000001Q3.2500076293945312,10.0923292,3.2500076293945312,10Q3.2500076293945312,9.9261315,3.264418629394531,9.853682Q3.278829629394531,9.781233,3.3070976293945313,9.712987Q3.335366629394531,9.644742,3.3764056293945313,9.583322Q3.4174446293945313,9.521903,3.469677629394531,9.46967Q3.5219106293945313,9.417437,3.583329629394531,9.376398Q3.644749629394531,9.335359,3.7129946293945313,9.30709Q3.781240629394531,9.278822,3.8536896293945313,9.264410999999999Q3.926139129394531,9.25,4.000007629394531,9.25Q4.062298029394531,9.25,4.123734629394531,9.260276Q4.185171629394532,9.270552,4.244071629394531,9.290822Q4.3029716293945315,9.311093,4.357720629394532,9.340802Q4.412469629394531,9.370512,4.4615666293945315,9.408846Q4.510664629394531,9.44718,4.552765629394531,9.493089Q4.594866629394531,9.538997,4.628816629394532,9.591222Q4.662767629394532,9.643447,4.6876366293945315,9.700558000000001Q4.7125066293945315,9.757668,4.727614629394531,9.818097999999999L5.211237629394532,11.7526L5.819037629394531,10.435706Q5.875097629394531,10.314255,5.969677629394531,10.21967Q6.064257629394531,10.125085,6.1857176293945315,10.0690305Q6.321167629394531,10.00651358,6.470237629394531,10.000591225Q6.619297629394531,9.99466887,6.759287629394532,10.0462427Q6.899277629394531,10.0978165,7.008867629394532,10.199035Q7.118457629394531,10.300253,7.1809776293945315,10.435706L7.788777629394531,11.7526L8.272307629394533,9.818468L8.272397629394531,9.818097999999999Q8.287507629394531,9.757668,8.31237762939453,9.700558000000001Q8.337247629394533,9.643447,8.371197629394532,9.591222Q8.40514762939453,9.538997,8.447247629394532,9.493089Q8.489347629394532,9.44718,8.53844762939453,9.408846Q8.587547629394532,9.370512,8.64229762939453,9.340802Q8.697047629394532,9.311093,8.75594762939453,9.290822Q8.814847629394531,9.270552,8.876277629394531,9.260276Q8.93771762939453,9.25,9.000007629394531,9.25Q9.07387762939453,9.25,9.14632762939453,9.264410999999999Q9.21877762939453,9.278822,9.287017629394532,9.30709Q9.355267629394532,9.335359,9.41668762939453,9.376398Q9.478107629394533,9.417437,9.53033762939453,9.46967Q9.582567629394532,9.521903,9.623607629394531,9.583322Q9.664647629394532,9.644742,9.692917629394532,9.712987Q9.721187629394532,9.781233,9.735597629394531,9.853682Q9.750007629394531,9.9261315,9.750007629394531,10Q9.750007629394531,10.0923292,9.727617629394532,10.181902000000001L9.72751762939453,10.182272L8.727617629394532,14.181899999999999Q8.691427629394532,14.32663,8.602617629394532,14.4465Q8.513807629394531,14.56637,8.385877629394532,14.64312Q8.257957629394532,14.71987,8.11039762939453,14.74183Q7.9628376293945315,14.76379,7.818107629394531,14.72761Q7.736507629394531,14.70721,7.661457629394532,14.66924Q7.586407629394531,14.63128,7.521627629394532,14.57763Q7.4568576293945315,14.52398,7.405567629394531,14.45732Q7.354287629394531,14.39066,7.319037629394531,14.31429L6.500007629394531,12.53973L5.6809776293945315,14.31429Q5.650017629394531,14.38136,5.606577629394531,14.44111Q5.563127629394531,14.50085,5.508867629394532,14.55096Q5.454597629394531,14.60108,5.391597629394531,14.63965Q5.328597629394531,14.67822,5.259287629394532,14.703759999999999Q5.189967629394531,14.729289999999999,5.117007629394531,14.74082Q5.044047629394531,14.75234,4.9702336293945315,14.749410000000001Q4.896423629394532,14.74648,4.824603629394531,14.729199999999999Q4.752783629394531,14.71192,4.685713629394531,14.68097Q4.609348629394531,14.64572,4.542686629394531,14.594439999999999Q4.476024629394531,14.54315,4.422377629394531,14.47838Q4.3687316293945315,14.413599999999999,4.330765629394532,14.33855Q4.292799629394532,14.2635,4.272400629394531,14.181899999999999L3.2724006293945314,10.181902000000001Z" fill-rule="evenodd" fill="#FFFFFF" fill-opacity="1" style="mix-blend-mode:passthrough"/></g></g></svg>