<svg xmlns="http://www.w3.org/2000/svg" xmlns:xlink="http://www.w3.org/1999/xlink" fill="none" version="1.1" width="24" height="24" viewBox="0 0 24 24"><defs><clipPath id="master_svg0_30_00623"><rect x="0" y="0" width="24" height="24" rx="0"/></clipPath></defs><g clip-path="url(#master_svg0_30_00623)"><g><path d="M0.9934577941894531,5.1659285546875005C0.9934577941894531,4.0872265546875,1.867915794189453,3.2127685546875,2.946607794189453,3.2127685546875L20.524957794189454,3.2127685546875C21.603657794189452,3.2127685546875,22.478057794189453,4.0872265546875,22.478057794189453,5.1659285546875005L22.478057794189453,18.8379685546875C22.478057794189453,19.9166685546875,21.603657794189452,20.7911685546875,20.524957794189454,20.7911685546875L2.946607794189453,20.7911685546875C1.867915794189453,20.7911685546875,0.9934577941894531,19.9166685546875,0.9934577941894531,18.8379685546875L0.9934577941894531,5.1659285546875005Z" fill="#FFDE7B" fill-opacity="1" style="mix-blend-mode:passthrough"/></g><g><path d="M2.946607794189453,3.2127685546875C1.867915794189453,3.2127685546875,0.9934577941894531,4.0872265546875,0.9934577941894531,5.1659285546875005L0.9934577941894531,18.8379685546875C0.9934577941894531,19.9166685546875,1.867915794189453,20.7911685546875,2.946607794189453,20.7911685546875L20.524957794189454,20.7911685546875C21.603657794189452,20.7911685546875,22.478057794189453,19.9166685546875,22.478057794189453,18.8379685546875L22.478057794189453,5.1659285546875005C22.478057794189453,5.0102085546875,22.459957794189453,4.8587585546875,22.42545779418945,4.7135685546875L12.936157794189453,11.1835785546875C12.212057794189453,11.6772585546875,11.259557794189453,11.6772585546875,10.535457794189453,11.1835785546875L1.0472717941894532,4.7143685546875C1.2510497941894532,3.8533825546875002,2.024697794189453,3.2127685546875,2.947967794189453,3.2127685546875L2.946607794189453,3.2127685546875Z" fill="#FFBC00" fill-opacity="1" style="mix-blend-mode:passthrough"/></g></g></svg>