<svg xmlns="http://www.w3.org/2000/svg" xmlns:xlink="http://www.w3.org/1999/xlink" fill="none" version="1.1" width="24" height="24" viewBox="0 0 24 24"><defs><clipPath id="master_svg0_5566_09267"><rect x="0" y="0" width="24" height="24" rx="0"/></clipPath></defs><g clip-path="url(#master_svg0_5566_09267)"><g><path d="M20.000033885955812,5.25L9.00000388595581,5.25Q8.85081388595581,5.25,8.712983885955811,5.30709Q8.57515388595581,5.364181,8.46967388595581,5.46967L3.4696698859558106,10.46967Q3.4549038859558108,10.48444,3.4409828859558105,10.5Q2.8680338859558105,11.14058,2.8680338859558105,12Q2.8680338859558105,12.85942,3.4409828859558105,13.5Q3.4549038859558108,13.51556,3.4696698859558106,13.53033L8.46967388595581,18.5303Q8.57515388595581,18.6358,8.712983885955811,18.6929Q8.85081388595581,18.75,9.00000388595581,18.75L20.000033885955812,18.75Q20.72483388595581,18.75,21.23743388595581,18.2374Q21.750033885955812,17.724899999999998,21.750033885955812,17L21.750033885955812,7Q21.750033885955812,6.275125,21.23743388595581,5.762563Q20.72483388595581,5.25,20.000033885955812,5.25ZM9.310663885955812,6.75L4.546739885955811,11.513919999999999Q4.1240828859558105,12,4.546735885955811,12.486080000000001L9.310663885955812,17.25L20.000033885955812,17.25Q20.250033885955812,17.25,20.250033885955812,17L20.250033885955812,7Q20.250033885955812,6.75,20.000033885955812,6.75L9.310663885955812,6.75Z" fill-rule="evenodd" fill="#000000" fill-opacity="1" style="mix-blend-mode:passthrough"/></g><g><path d="M12.530484,9.469824L14,10.93934L15.46967,9.46967Q15.57516,9.364181,15.71299,9.30709Q15.85082,9.25,16,9.25Q16.07387,9.25,16.14632,9.264410999999999Q16.21877,9.278822,16.287010000000002,9.30709Q16.35526,9.335359,16.41668,9.376398Q16.4781,9.417437,16.53033,9.46967Q16.58256,9.521903,16.6236,9.583322Q16.66464,9.644742,16.69291,9.712987Q16.72118,9.781233,16.735590000000002,9.853682Q16.75,9.9261315,16.75,10Q16.75,10.149184,16.69291,10.287013Q16.63582,10.424841,16.53033,10.53033L15.06066,12L16.53033,13.46967Q16.63582,13.57516,16.69291,13.71299Q16.75,13.85082,16.75,14Q16.75,14.07387,16.735590000000002,14.14632Q16.72118,14.21877,16.69291,14.28701Q16.66464,14.355260000000001,16.6236,14.41668Q16.58256,14.478100000000001,16.53033,14.53033Q16.4781,14.58256,16.41668,14.6236Q16.35526,14.66464,16.287010000000002,14.692910000000001Q16.21877,14.72118,16.14632,14.73559Q16.07387,14.75,16,14.75Q15.85082,14.75,15.71299,14.692910000000001Q15.57516,14.635819999999999,15.46967,14.53033L14,13.06066L12.53033,14.53033Q12.424841,14.635819999999999,12.287013,14.692910000000001Q12.149184,14.75,12,14.75Q11.9261315,14.75,11.853682,14.73559Q11.781233,14.72118,11.712987,14.692910000000001Q11.644742,14.66464,11.583322,14.6236Q11.521903,14.58256,11.46967,14.53033Q11.417437,14.478100000000001,11.376398,14.41668Q11.335359,14.355260000000001,11.30709,14.28701Q11.278822,14.21877,11.264410999999999,14.14632Q11.25,14.07387,11.25,14Q11.25,13.85082,11.30709,13.71299Q11.364181,13.57516,11.46967,13.46967L12.93934,12L11.469824,10.530484L11.46967,10.53033Q11.364181,10.424841,11.30709,10.287013Q11.25,10.149184,11.25,10Q11.25,9.9261315,11.264410999999999,9.853682Q11.278822,9.781233,11.30709,9.712987Q11.335359,9.644742,11.376398,9.583322Q11.417437,9.521903,11.46967,9.46967Q11.521903,9.417437,11.583322,9.376398Q11.644742,9.335359,11.712987,9.30709Q11.781233,9.278822,11.853682,9.264410999999999Q11.9261315,9.25,12,9.25Q12.149184,9.25,12.287013,9.30709Q12.424841,9.364181,12.53033,9.46967L12.530484,9.469824Z" fill-rule="evenodd" fill="#000000" fill-opacity="1" style="mix-blend-mode:passthrough"/></g></g></svg>