<svg xmlns="http://www.w3.org/2000/svg" xmlns:xlink="http://www.w3.org/1999/xlink" fill="none" version="1.1" width="24" height="24" viewBox="0 0 24 24"><defs><clipPath id="master_svg0_5851_02622"><rect x="0" y="0" width="24" height="24" rx="0"/></clipPath></defs><g clip-path="url(#master_svg0_5851_02622)"><g></g><g><path d="M6.54391,7.02927Q5.3515999999999995,8.81774,5.25082,10.964839999999999Q5.25,10.98241,5.25,11L5.25,13.9528Q5.03936,15.5495,3.630436,16.3474Q3.543823,16.3964,3.473001,16.4664Q3.402179,16.5363,3.352052,16.6223Q3.3019249999999998,16.7083,3.275962,16.8044Q3.25,16.9005,3.25,17Q3.25,17.073900000000002,3.264411,17.1463Q3.278822,17.2188,3.30709,17.287Q3.335359,17.3553,3.376398,17.4167Q3.417437,17.478099999999998,3.46967,17.5303Q3.521903,17.5826,3.583322,17.6236Q3.644742,17.6646,3.712987,17.6929Q3.781233,17.7212,3.853682,17.735599999999998Q3.9261315,17.75,4,17.75L20,17.75Q20.0995,17.75,20.1956,17.724Q20.2917,17.6981,20.3777,17.6479Q20.4637,17.5978,20.5336,17.527Q20.6036,17.456200000000003,20.6526,17.3696Q20.689,17.305300000000003,20.7122,17.2351Q20.7353,17.165,20.7444,17.0917Q20.7534,17.0184,20.748,16.944699999999997Q20.7425,16.871000000000002,20.7228,16.799799999999998Q20.7031,16.7287,20.6699,16.6627Q20.6366,16.5967,20.5912,16.5385Q20.5457,16.4802,20.4898,16.432000000000002Q20.4338,16.3838,20.3696,16.3474Q18.9606,15.5495,18.75,13.9528L18.75,11Q18.75,10.98241,18.749200000000002,10.964839999999999Q18.648400000000002,8.81774,17.4561,7.02927Q16.386200000000002,5.4245,14.7118,4.51989Q14.5747,3.685579,13.94454,3.0554565Q13.13909,2.25,12,2.25Q10.86091,2.25,10.05546,3.0554565Q9.425329999999999,3.685579,9.288170000000001,4.51989Q7.61376,5.4245,6.54391,7.02927ZM6.75,11.01806L6.75,14Q6.75,14.0452,6.7445699999999995,14.0901Q6.59405,15.3336,5.95286,16.25L18.0471,16.25Q17.406,15.3336,17.2554,14.0901Q17.25,14.0452,17.25,14L17.25,11.01805Q17.1648,9.2965,16.208,7.86132Q15.2465,6.41902,13.6794,5.67802Q13.58306,5.63247,13.50323,5.56189Q13.42339,5.4913,13.36638,5.40128Q13.30936,5.311249999999999,13.27968,5.2089099999999995Q13.25,5.10656,13.25,5Q13.25,4.4822299999999995,12.88388,4.1161200000000004Q12.51777,3.75,12,3.75Q11.482230000000001,3.75,11.116119999999999,4.1161200000000004Q10.75,4.4822299999999995,10.75,5Q10.75,5.10656,10.720320000000001,5.2089099999999995Q10.69064,5.311249999999999,10.63362,5.40128Q10.576609999999999,5.4913,10.49677,5.56189Q10.41694,5.63247,10.320599999999999,5.67802Q8.75353,6.41902,7.79199,7.86133Q6.8352,9.2965,6.75,11.01806Z" fill-rule="evenodd" fill="#000000" fill-opacity="1" style="mix-blend-mode:passthrough"/></g><g><path d="M8.25,17Q8.25,16.9261315,8.264410999999999,16.853682Q8.278822,16.781233,8.30709,16.712987Q8.335359,16.644742,8.376398,16.583322Q8.417437,16.521903000000002,8.46967,16.46967Q8.521903,16.417437,8.583322,16.376398000000002Q8.644742,16.335359,8.712987,16.30709Q8.781233,16.278822,8.853682,16.264411Q8.9261315,16.25,9,16.25Q9.0738685,16.25,9.146318,16.264411Q9.218767,16.278822,9.287013,16.30709Q9.355258,16.335359,9.416678,16.376398000000002Q9.478097,16.417437,9.53033,16.46967Q9.582563,16.521903000000002,9.623602,16.583322Q9.664641,16.644742,9.69291,16.712987Q9.721178,16.781233,9.735589000000001,16.853682Q9.75,16.9261315,9.75,17L9.75,18Q9.75,18.93198,10.40901,19.59099Q11.06802,20.25,12,20.25Q12.93198,20.25,13.59099,19.59099Q14.25,18.93198,14.25,18L14.25,17Q14.25,16.9261315,14.26441,16.853682Q14.27882,16.781233,14.307089999999999,16.712987Q14.33536,16.644742,14.3764,16.583322Q14.41744,16.521903000000002,14.46967,16.46967Q14.521899999999999,16.417437,14.58332,16.376398000000002Q14.644739999999999,16.335359,14.71299,16.30709Q14.78123,16.278822,14.85368,16.264411Q14.92613,16.25,15,16.25Q15.07387,16.25,15.14632,16.264411Q15.21877,16.278822,15.28701,16.30709Q15.355260000000001,16.335359,15.41668,16.376398000000002Q15.478100000000001,16.417437,15.53033,16.46967Q15.58256,16.521903000000002,15.6236,16.583322Q15.66464,16.644742,15.692910000000001,16.712987Q15.72118,16.781233,15.73559,16.853682Q15.75,16.9261315,15.75,17L15.75,18Q15.75,19.5533,14.65165,20.65165Q13.5533,21.75,12,21.75Q10.4467,21.75,9.348349,20.65165Q8.25,19.5533,8.25,18L8.25,17Z" fill-rule="evenodd" fill="#000000" fill-opacity="1" style="mix-blend-mode:passthrough"/></g></g></svg>