<svg xmlns="http://www.w3.org/2000/svg" xmlns:xlink="http://www.w3.org/1999/xlink" fill="none" version="1.1" width="32" height="32" viewBox="0 0 32 32"><defs><clipPath id="master_svg0_5881_02753"><rect x="0" y="0" width="32" height="32" rx="0"/></clipPath><filter id="master_svg1_5881_02759" filterUnits="objectBoundingBox" color-interpolation-filters="sRGB" x="0" y="0" width="1" height="1"><feFlood flood-opacity="0" result="BackgroundImageFix"/><feBlend mode="normal" in="SourceGraphic" in2="BackgroundImageFix" result="shape"/><feColorMatrix in="SourceAlpha" type="matrix" result="hardAlpha" values="0 0 0 0 0 0 0 0 0 0 0 0 0 0 0 0 0 0 127 0"/><feOffset dy="-2" dx="0"/><feGaussianBlur stdDeviation="2"/><feComposite in2="hardAlpha" operator="arithmetic" k2="-1" k3="1"/><feColorMatrix type="matrix" values="0 0 0 0 1 0 0 0 0 1 0 0 0 0 1 0 0 0 0.20000000298023224 0"/><feBlend mode="normal" in2="shape" result="effect1_innerShadow"/></filter><linearGradient x1="0.699999988079071" y1="0.23279093205928802" x2="0.699999988079071" y2="1.1328094005584717" id="master_svg2_5881_02823"><stop offset="0%" stop-color="#FFFFFF" stop-opacity="1"/><stop offset="40.104201436042786%" stop-color="#FFFFFF" stop-opacity="0.8500000238418579"/><stop offset="100%" stop-color="#FFFFFF" stop-opacity="0.5"/></linearGradient></defs><g clip-path="url(#master_svg0_5881_02753)"><g></g><g filter="url(#master_svg1_5881_02759)"><g transform="matrix(0.916670024394989,0,0,0.916670024394989,0.5728956882303748,0.5664792683472797)"><path d="M14.875025272369385,8.058025131225586L14.875025272369385,7.798025131225586C14.875025272369385,7.248025131225586,15.325025272369384,6.798025131225586,15.875025272369385,6.798025131225586L17.875025272369385,6.798025131225586C18.425025272369385,6.798025131225586,18.875025272369385,7.248025131225586,18.875025272369385,7.798025131225586L18.875025272369385,8.058025131225586C22.325025272369384,8.975025131225586,24.875025272369385,12.208025131225586,24.875025272369385,16.056025131225585L24.875025272369385,22.420025131225586L25.875025272369385,22.420025131225586C26.427325272369384,22.420025131225586,26.875025272369385,22.867725131225587,26.875025272369385,23.420025131225586C26.875025272369385,23.972325131225585,26.427325272369384,24.420025131225586,25.875025272369385,24.420025131225586L7.875025272369385,24.420025131225586C7.322740272369384,24.420025131225586,6.875025272369385,23.972325131225585,6.875025272369385,23.420025131225586C6.875025272369385,22.867725131225587,7.322740272369384,22.420025131225586,7.875025272369385,22.420025131225586L8.875025272369385,22.420025131225586L8.875025272369385,16.056025131225585C8.875025272369385,12.208025131225586,11.425025272369385,8.975025131225586,14.875025272369385,8.058025131225586ZM13.625025272369385,26.920025131225586C13.625025272369385,26.367725131225587,14.072735272369385,25.920025131225586,14.625025272369385,25.920025131225586L19.125025272369385,25.920025131225586C19.677325272369387,25.920025131225586,20.125025272369385,26.367725131225587,20.125025272369385,26.920025131225586C20.125025272369385,27.472325131225585,19.677325272369387,27.920025131225586,19.125025272369385,27.920025131225586L14.625025272369385,27.920025131225586C14.072735272369385,27.920025131225586,13.625025272369385,27.472325131225585,13.625025272369385,26.920025131225586Z" fill="url(#master_svg2_5881_02823)" fill-opacity="1" style="mix-blend-mode:passthrough"/></g></g></g></svg>