<svg xmlns="http://www.w3.org/2000/svg" xmlns:xlink="http://www.w3.org/1999/xlink" fill="none" version="1.1" width="24" height="24" viewBox="0 0 24 24"><defs><clipPath id="master_svg0_6057_03241"><rect x="0" y="0" width="24" height="24" rx="0"/></clipPath></defs><g clip-path="url(#master_svg0_6057_03241)"><g></g><g><path d="M19.75,17.5L19.75,15.6999998Q19.7499995,15.6261311,19.7355886,15.5536819Q19.7211771,15.4812326,19.692908799999998,15.412987000000001Q19.6646404,15.344741299999999,19.6236019,15.2833219Q19.5825624,15.2219024,19.5303297,15.1696696Q19.4780965,15.1174366,19.416677,15.0763974Q19.3552575,15.0353584,19.2870121,15.0070901Q19.2187667,14.9788218,19.146317500000002,14.9644108Q19.0738688,14.9499998,19.0000005,14.9499998Q18.9261317,14.9499998,18.853682499999998,14.9644108Q18.781232799999998,14.9788218,18.7129869,15.0070901Q18.6447411,15.0353584,18.583321599999998,15.0763974Q18.5219026,15.1174366,18.4696698,15.1696696Q18.417436600000002,15.2219024,18.3763971,15.2833219Q18.3353577,15.344741299999999,18.3070898,15.4129868Q18.2788219,15.4812324,18.264411,15.5536819Q18.25,15.6261311,18.2500005,15.6999998L18.2500005,17.5Q18.2500005,18.6390877,17.4445443,19.444543799999998Q16.6390877,20.2500005,15.5000012,20.2500005Q14.360914000000001,20.2500005,13.5554571,19.444543799999998Q12.75000024,18.6390872,12.75,17.4999995L12.75,16.5000002Q12.7500006,15.3609128,13.5554569,14.5554563Q14.360661499999999,13.75025153,15.4992876,13.74999964L15.5000002,13.74999958Q15.5738688,13.74999964,15.6463177,13.73558861Q15.7187667,13.721177579999999,15.7870123,13.6929093Q15.855258,13.66464114,15.9166775,13.62360203Q15.978097,13.58256286,16.0303302,13.53032994Q16.082563399999998,13.47809699,16.1236019,13.41667756Q16.1646414,13.35525811,16.1929092,13.28701252Q16.2211776,13.21876688,16.235589,13.14631772Q16.25,13.073868543,16.25,13Q16.25,12.926131457,16.235589,12.85368228Q16.2211776,12.78123312,16.1929092,12.71298748Q16.164640900000002,12.64474183,16.1236019,12.58332238Q16.0825624,12.52190292,16.0303297,12.46966994Q15.9780967,12.41743702,15.916677,12.37639785Q15.8552577,12.33535868,15.7870121,12.3070904Q15.718766500000001,12.27882212,15.6463172,12.26441109Q15.5738683,12.25,15.5,12.25Q13.7395927,12.24999964,12.49479654,13.49479613Q11.25000089,14.7395922,11.25,16.5000002L11.25,17.5000005Q11.25000036,19.2604079,12.49479696,20.5052042Q13.739593,21.75,15.5000012,21.75Q17.2604089,21.75,18.5052042,20.5052042Q19.75,19.2604084,19.75,17.5Z" fill-rule="evenodd" fill="#000000" fill-opacity="1"/></g><g><path d="M8.4998774296875,12.25000006Q10.2602858296875,12.25000006,11.5050821296875,13.4947961Q12.749878429687499,14.7395923,12.7498779296875,16.5L12.7498779296875,17.499999Q12.749878429687499,19.2604079,11.5050826296875,20.5052037Q10.2602868296875,21.749999000000003,8.499878929687501,21.749999000000003Q6.7394714296875,21.749999000000003,5.4946748596875,20.5052037Q4.2498784096875,19.2604079,4.2498779896875,17.4999995L4.2498779896875,15.6999998Q4.2498780496875,15.6261311,4.2642890196875,15.5536819Q4.2787001096875,15.4812326,4.3069683896874995,15.412987000000001Q4.3352366696875,15.344741299999999,4.3762757796875,15.2833219Q4.4173149496875,15.2219024,4.4695478696875,15.1696696Q4.5217808496875,15.1174366,4.5832003096875,15.0763974Q4.6446197596875,15.0353584,4.7128654096875,15.0070901Q4.7811110496875,14.9788218,4.8535602096875,14.9644108Q4.9260093866875,14.9499998,4.9998779296875,14.9499998Q5.0737464726875,14.9499998,5.1461956496875,14.9644108Q5.2186448096875,14.9788218,5.2868904496875,15.0070901Q5.3551360996875,15.0353584,5.4165555496875,15.0763974Q5.4779750096875,15.1174366,5.5302079896875,15.1696696Q5.5824409096875,15.2219024,5.6234800796875,15.2833219Q5.6645192496875,15.344741299999999,5.6927875296875,15.4129868Q5.7210558096875,15.4812324,5.7354668396875,15.5536819Q5.7498779296875,15.6261311,5.7498779296875,15.6999998L5.7498778696875,15.7002988L5.7498778696875,17.4999995Q5.7498781696875,18.6390872,6.5553347296875,19.4445434Q7.3607917296875005,20.25,8.499878929687501,20.25Q9.6389661296875,20.25,10.4444227296875,19.4445434Q11.249878929687501,18.6390872,11.249878429687499,17.4999995L11.249878429687499,16.5Q11.249878929687501,15.3609133,10.4444217296875,14.5554564Q9.638965129687499,13.75,8.4998774296875,13.74999994Q8.4260087296875,13.74999988,8.3535597296875,13.73558891Q8.2811105296875,13.72117782,8.2128648296875,13.69290954Q8.1446194296875,13.66464126,8.083199929687499,13.62360215Q8.0217805296875,13.58256298,7.9695477296875,13.53033006Q7.9173147296875,13.47809708,7.876275529687501,13.41667762Q7.8352365296875,13.35525817,7.8069682296875005,13.28701252Q7.7786998296875005,13.21876688,7.7642889296875,13.14631772Q7.7498779296875,13.073868543,7.749878129687501,13Q7.7498779296875,12.926131457,7.7642889296875,12.85368228Q7.7786998296875005,12.78123312,7.8069682296875005,12.71298748Q7.8352365296875,12.64474183,7.876275529687501,12.58332238Q7.9173147296875,12.52190292,7.9695477296875,12.46966994Q8.0217805296875,12.41743702,8.083199929687499,12.37639785Q8.1446194296875,12.33535874,8.2128648296875,12.30709046Q8.2811105296875,12.27882218,8.3535595296875,12.26441115Q8.4260087296875,12.25000012,8.4998774296875,12.25000006Z" fill-rule="evenodd" fill="#000000" fill-opacity="1"/></g><g><path d="M16.9998779296875,8.25L17.4998779296875,8.25Q19.2602861296875,8.25000089,20.5050819296875,9.49479699Q21.7498779296875,10.7395931,21.7498779296875,12.500001000000001Q21.7498779296875,14.2604079,20.5050816296875,15.5052042Q19.2602853296875,16.7500005,17.4998779296875,16.7500005Q17.4260093596875,16.75,17.3535601496875,16.735589Q17.2811109696875,16.7211781,17.2128653196875,16.6929097Q17.1446196896875,16.6646414,17.0832002386875,16.6236019Q17.0217807966875,16.5825629,16.9695478456875,16.5303302Q16.9173148946875,16.478096999999998,16.8762757296875,16.4166775Q16.8352365596875,16.355258,16.8069682996875,16.2870121Q16.7787000196875,16.2187667,16.7642889896875,16.146317500000002Q16.7498779396875,16.0738688,16.7498779296875,16.0000005Q16.7498779396875,15.9261317,16.7642889896875,15.8536825Q16.7787000196875,15.7812328,16.8069682996875,15.7129869Q16.8352365596875,15.644741100000001,16.8762757296875,15.5833216Q16.9173148946875,15.5219026,16.9695478526875,15.4696698Q17.0217807996875,15.4174366,17.0832002456875,15.3763971Q17.1446196996875,15.3353581,17.2128653396875,15.3070898Q17.2811109696875,15.2788219,17.3535601496875,15.2644114Q17.4260093596875,15.250000499999999,17.4998779296875,15.250000499999999Q18.6389651296875,15.250000499999999,19.444421729687498,14.4445438Q20.2498779296875,13.639087700000001,20.2498779296875,12.500001000000001Q20.2498779296875,11.3609135,19.4444215296875,10.5554571Q18.6389651296875,9.75000054,17.4998779296875,9.75L16.9998779296875,9.75Q16.9260093866875,9.75,16.8535602096875,9.73558891Q16.7811110496875,9.72117788,16.7128654096875,9.6929096Q16.6446197596875,9.66464132,16.5832003096875,9.62360215Q16.5217808496875,9.58256298,16.4695478696875,9.53033006Q16.4173149496875,9.47809708,16.3762757796875,9.41667762Q16.3352366096875,9.35525817,16.3069683296875,9.28701252Q16.2787000496875,9.21876688,16.2642890196875,9.14631772Q16.2498779296875,9.073868543,16.2498779296875,9Q16.2498779296875,8.926131457,16.2642890196875,8.85368228Q16.2787000496875,8.78123312,16.3069683296875,8.71298748Q16.3352366096875,8.64474183,16.3762757796875,8.58332238Q16.4173149496875,8.52190292,16.4695478696875,8.46966994Q16.5217808496875,8.41743702,16.5832003096875,8.37639785Q16.6446197596875,8.33535868,16.7128654096875,8.3070904Q16.7811110496875,8.27882212,16.8535602096875,8.26441109Q16.9260093866875,8.25,16.9998779296875,8.25Z" fill-rule="evenodd" fill="#000000" fill-opacity="1"/></g><g><path d="M12.49479696,3.49479589Q11.25000089,4.7395916,11.25,6.4999994999999995Q11.25,6.573868,11.26441109,6.646317Q11.27882212,6.7187665,11.3070904,6.7870121Q11.33535868,6.8552577,11.37639785,6.916677Q11.41743702,6.9780967,11.46966994,7.0303297Q11.52190292,7.0825624,11.58332238,7.1236019Q11.64474183,7.1646409,11.71298748,7.1929092Q11.78123312,7.2211776,11.85368228,7.235589Q11.926131457,7.25,12,7.25Q12.073868543,7.25,12.14631772,7.235589Q12.21876688,7.2211776,12.28701252,7.1929092Q12.35525817,7.1646409,12.41667762,7.1236019Q12.47809708,7.0825624,12.53033006,7.0303297Q12.58256298,6.9780967,12.62360215,6.916677Q12.66464132,6.8552577,12.6929096,6.7870121Q12.72117788,6.7187665,12.73558891,6.6463172Q12.75,6.5738683,12.75,6.5Q12.75000054,5.3609123,13.555457,4.5554562Q14.360914000000001,3.74999958,15.500001000000001,3.74999958Q16.6390882,3.75,17.4445443,4.5554562Q18.2500005,5.3609121,18.2500005,6.5L18.2500005,9.3000002Q18.25,9.3738685,18.264411,9.4463177Q18.2788219,9.5187664,18.3070898,9.587011799999999Q18.3353577,9.655257200000001,18.3763971,9.7166767Q18.417436600000002,9.778096699999999,18.4696698,9.830329899999999Q18.5219026,9.8825626,18.583322,9.9236016Q18.6447411,9.9646406,18.7129869,9.992909000000001Q18.781232799999998,10.0211773,18.853682499999998,10.0355883Q18.9261317,10.0499997,19.0000005,10.0500002Q19.0738688,10.0499997,19.146318,10.0355883Q19.2187667,10.0211773,19.2870121,9.992909000000001Q19.3552575,9.9646406,19.416677,9.9236016Q19.4780965,9.8825626,19.5303297,9.830329899999999Q19.5825624,9.778096699999999,19.6236014,9.7166772Q19.664640900000002,9.6552577,19.6929092,9.5870123Q19.7211781,9.5187664,19.735589,9.4463177Q19.75,9.3738685,19.7500005,9.3000002L19.7500005,6.5Q19.7500005,4.7395926,18.5052042,3.49479595Q17.2604074,2.25,15.500001000000001,2.24999964Q13.7395935,2.24999964,12.49479696,3.49479589Z" fill-rule="evenodd" fill="#000000" fill-opacity="1"/></g><g><path d="M6.5,9.75L6.9999994999999995,9.75Q7.0738678,9.75,7.146317,9.73558891Q7.2187662,9.72117788,7.2870121,9.6929096Q7.3552575,9.66464132,7.416677,9.62360215Q7.4780965,9.58256298,7.5303297,9.53033006Q7.5825624,9.47809708,7.6236019,9.41667762Q7.6646409,9.35525817,7.6929092,9.28701252Q7.7211776,9.21876688,7.735589,9.14631772Q7.75,9.073868543,7.75,9Q7.75,8.926131457,7.735589,8.85368228Q7.7211776,8.78123312,7.6929092,8.71298748Q7.6646409,8.64474183,7.6236019,8.58332238Q7.5825624,8.52190292,7.5303297,8.46966994Q7.478097,8.41743702,7.416677,8.37639785Q7.355258,8.33535868,7.2870121,8.3070904Q7.2187667,8.27882212,7.1463175,8.26441109Q7.0738688,8.25,7,8.25L6.5,8.25Q4.7395917,8.25000083,3.49479592,9.49479699Q2.25000006,10.739593,2.25,12.500001000000001Q2.25,14.2604079,3.49479598,15.5052042Q4.739592,16.7500005,6.5,16.7500005Q6.5738683,16.75,6.6463175,16.735589Q6.7187665,16.7211781,6.7870121,16.6929097Q6.8552577,16.6646414,6.9166772000000005,16.6236019Q6.978097,16.5825629,7.0303302,16.5303302Q7.0825634,16.478096999999998,7.1236019,16.4166775Q7.1646414,16.355258,7.1929092,16.2870121Q7.2211776,16.2187667,7.235589,16.146317500000002Q7.25,16.0738688,7.25,16.0000005Q7.25,15.9261317,7.235589,15.8536825Q7.2211776,15.7812328,7.1929092,15.7129869Q7.1646409,15.644741100000001,7.1236019,15.5833216Q7.0825624,15.5219026,7.0303297,15.4696698Q6.9780967,15.4174366,6.916677,15.3763971Q6.8552577,15.3353581,6.7870121,15.3070898Q6.7187665,15.2788219,6.6463172,15.2644114Q6.5738683,15.250000499999999,6.5,15.250000499999999Q5.3609127999999995,15.250000499999999,4.5554562,14.4445443Q3.75,13.639087700000001,3.75,12.500001000000001Q3.75000006,11.3609135,4.5554562,10.5554571Q5.3609126,9.75000054,6.5,9.75Z" fill-rule="evenodd" fill="#000000" fill-opacity="1"/></g><g><path d="M11.249878429687499,6.499999799999999L11.249878429687499,16.5Q11.2498779296875,16.573867999999997,11.264288929687499,16.646317Q11.2786998296875,16.718764999999998,11.3069677296875,16.787011Q11.3352356296875,16.855257,11.3762750296875,16.916677Q11.4173145296875,16.978096,11.4695477296875,17.03033Q11.5217805296875,17.082561,11.583199929687499,17.123601999999998Q11.644619029687501,17.16464,11.7128648296875,17.192908Q11.7811107296875,17.221176,11.8535604296875,17.235588Q11.9260096296875,17.249999000000003,11.999878429687499,17.25Q12.0737467296875,17.249999000000003,12.1461959296875,17.235588Q12.2186446296875,17.221176,12.2868900296875,17.192908Q12.3551354296875,17.164639,12.4165549296875,17.123601Q12.4779744296875,17.082561,12.5302076296875,17.030329000000002Q12.5824403296875,16.978096,12.6234793296875,16.916677Q12.6645188296875,16.855257,12.692787129687499,16.787011Q12.7210560296875,16.718764999999998,12.735466929687501,16.646317Q12.7498779296875,16.573867999999997,12.749878429687499,16.5L12.7498779296875,16.499154L12.7498779296875,6.499999799999999Q12.749878429687499,4.739592,11.5050821296875,3.4947961Q10.2602863296875,2.25000036,8.4998774296875,2.2500004799999997Q6.7394710296875004,2.25000006,5.4946746496875,3.49479595Q4.2498782896875,4.7395917,4.2498775696875,6.4999994999999995L4.2498779896875,9.299701200000001L4.2498779896875,9.2999997Q4.2498780496875,9.373868,4.2642890196875,9.4463172Q4.2787001096875,9.5187659,4.3069683896874995,9.5870113Q4.3352366696875,9.655257200000001,4.3762757796875,9.7166767Q4.4173149496875,9.778096699999999,4.4695478696875,9.830329899999999Q4.5217808496875,9.8825626,4.5832003096875,9.9236016Q4.6446197596875,9.9646406,4.7128654096875,9.992909000000001Q4.7811110496875,10.0211773,4.8535602096875,10.0355883Q4.9260093866875,10.0499997,4.9998779296875,10.0500002Q5.0737464726875,10.0499997,5.1461956496875,10.0355883Q5.2186448096875,10.0211773,5.2868904496875,9.992909000000001Q5.3551360996875,9.9646406,5.4165555496875,9.9236016Q5.4779750096875,9.8825626,5.5302079896875,9.830329899999999Q5.5824409096875,9.778096699999999,5.6234800796875,9.7166772Q5.6645192496875,9.6552577,5.6927875296875,9.5870123Q5.7210558096875,9.5187664,5.7354668396875,9.4463177Q5.7498779296875,9.3738685,5.7498779296875,9.3000002L5.7498778696875,9.299701200000001L5.7498774496875,6.500000200000001Q5.7498779296875,5.3609126,6.5553345296875,4.5554564Q7.3607914296875006,3.74999994,8.4998774296875,3.75000036Q9.6389661296875,3.7500003,10.4444222296875,4.5554564Q11.249878929687501,5.3609126,11.249878429687499,6.499999799999999Z" fill-rule="evenodd" fill="#000000" fill-opacity="1"/></g></g></svg>