<svg xmlns="http://www.w3.org/2000/svg" xmlns:xlink="http://www.w3.org/1999/xlink" fill="none" version="1.1" width="24" height="24" viewBox="0 0 24 24"><defs><clipPath id="master_svg0_6048_02697"><rect x="0" y="0" width="24" height="24" rx="0"/></clipPath></defs><g clip-path="url(#master_svg0_6048_02697)"><g><path d="M8.2372930703125,16.71151L14.237292070312499,14.71151Q14.3201320703125,14.683900000000001,14.394422070312501,14.63799Q14.4687020703125,14.59208,14.5304520703125,14.53033Q14.5922020703125,14.46858,14.6381120703125,14.394300000000001Q14.684022070312501,14.32001,14.7116320703125,14.237169999999999L16.7116320703125,8.237171Q16.7501220703125,8.121708,16.7501220703125,8.0000000114702Q16.7501220703125,7.878292,16.7116320703125,7.762829Q16.6882720703125,7.692751,16.6516920703125,7.628577Q16.6151120703125,7.564403,16.566712070312498,7.508599Q16.5183120703125,7.452794,16.4599620703125,7.4075050000000005Q16.4016020703125,7.362215,16.3355320703125,7.32918Q16.2694620703125,7.296145,16.1982120703125,7.276634Q16.126972070312497,7.257123,16.0532920703125,7.251887Q15.979602070312499,7.24665,15.906312070312499,7.255889Q15.8330320703125,7.265128,15.762952070312501,7.288487L9.7629520703125,9.28849Q9.6801120703125,9.3161,9.6058220703125,9.36201Q9.5315420703125,9.40792,9.4697920703125,9.46967Q9.4080420703125,9.53142,9.3621320703125,9.6057Q9.3162220703125,9.67999,9.2886120703125,9.76283L7.2886090703125,15.762830000000001Q7.2501220703125,15.87829,7.2501220703125,16Q7.2501220703125,16.12171,7.2886090703125,16.23717Q7.3357860703124995,16.378700000000002,7.4335310703125,16.4914Q7.5312770703125,16.604100000000003,7.6647120703125005,16.67082Q7.7981460703125,16.73754,7.9469552703125,16.74811Q8.0957642703125,16.75869,8.2372930703125,16.71151ZM13.407192070312501,13.407070000000001L9.1859720703125,14.81415L10.593052070312499,10.592929999999999L14.8142720703125,9.18585L13.407192070312501,13.407070000000001Z" fill-rule="evenodd" fill="#000000" fill-opacity="1"/></g><g><path d="M18.8955,5.1037261718749996Q16.0396,2.246827171875,12,2.246826171875Q7.96043,2.246826171875,5.10452,5.1037261718749996Q2.248606,7.960626171875,2.250001,12.000196171875Q2.248606,16.039226171875,5.10452,18.896126171875Q7.96043,21.753026171875,12,21.753026171875Q16.0396,21.753026171875,18.8955,18.896126171875Q21.7514,16.039226171875,21.75,11.999676171875Q21.7514,7.960636171875,18.8955,5.1037261718749996ZM6.16536,6.164206171875Q8.58191,3.746826171875,12,3.746826171875Q15.4181,3.746826171875,17.834600000000002,6.164206171875Q20.2512,8.581576171875,20.25,12.000196171875Q20.2512,15.418326171875,17.834600000000002,17.835626171875Q15.4181,20.253026171875,12,20.253026171875Q8.58191,20.253026171875,6.16536,17.835626171875Q3.7488200000000003,15.418326171875,3.750001,11.999676171875Q3.7488200000000003,8.581576171875,6.16536,6.164206171875Z" fill-rule="evenodd" fill="#000000" fill-opacity="1"/></g></g></svg>