<svg xmlns="http://www.w3.org/2000/svg" xmlns:xlink="http://www.w3.org/1999/xlink" fill="none" version="1.1" width="24" height="24" viewBox="0 0 24 24"><defs><clipPath id="master_svg0_5379_05950"><rect x="0" y="0" width="24" height="24" rx="0"/></clipPath><clipPath id="master_svg1_5379_05951"><rect x="3.5" y="2" width="16.458009719848633" height="20" rx="0"/></clipPath></defs><g><g clip-path="url(#master_svg0_5379_05950)"></g><g clip-path="url(#master_svg1_5379_05951)"><g><path d="M7.241363979492188,2.00054931640625L15.024453979492188,2.00054931640625L19.95805397949219,7.33802931640625L19.95805397949219,19.75204931640625C19.95805397949219,20.98504931640625,18.943153979492187,22.00004931640625,17.710053979492187,22.00004931640625L7.241363979492188,22.00004931640625C6.007983979492187,22.00004931640625,4.9934539794921875,20.98854931640625,4.9934539794921875,19.75204931640625L4.9934539794921875,4.24841931640625C4.993453830365188,3.0119593164062497,6.004893979492188,2.00054931640625,7.241363979492188,2.00054931640625Z" fill-rule="evenodd" fill="#E44B4D" fill-opacity="1"/></g><g><path d="M16.83169112297656,7.21527099609375L16.830947875976562,7.21527099609375L19.958007875976563,9.37956099609375L19.958007875976563,7.34415899609375L17.83304787597656,7.34415899609375C17.463310875976564,7.33829499609375,17.12945987597656,7.29435469609375,16.83169112297656,7.21527099609375Z" fill-rule="evenodd" fill="#CD4445" fill-opacity="1"/></g><g><path d="M15.024520874023438,2L19.958010874023437,7.33744L19.958010874023437,7.34416L17.83305087402344,7.34416C16.07123087402344,7.31609,15.122760774023437,6.42951,15.024520874023438,4.9445L15.024520874023438,2Z" fill-rule="evenodd" fill="#FBCFD0" fill-opacity="1"/></g><g><path d="M3.5,18.884178710937498L3.5,11.9062587109375L3.50109459,11.8569687109375C3.5272085,11.2140467109375,4.06141,10.6956787109375,4.71047,10.6956787109375L4.99342,10.6956787109375L4.99342,12.6733387109375L18.844099999999997,12.6733387109375C19.346899999999998,12.6733387109375,19.7578,13.0841987109375,19.7578,13.5869687109375L19.7578,18.884178710937498C19.7578,19.385738710937503,19.3457,19.797898710937503,18.844099999999997,19.797898710937503L4.4137129999999996,19.797898710937503C3.912076,19.797898710937503,3.5,19.3864887109375,3.5,18.884178710937498Z" fill="#CD4445" fill-opacity="1"/></g><g><path d="M9.107770506835937,11.3964732421875C8.924345506835937,11.3964932421875,8.775639191535937,11.247773242187499,8.775639191535937,11.0643032421875C8.775618313825937,10.8808532421875,8.924324506835937,10.7321332421875,9.107770506835937,10.7321332421875L15.486749506835938,10.7321332421875C15.670179506835938,10.7321132421875,15.818889506835937,10.8808332421875,15.818889506835937,11.0643032421875C15.818909506835936,11.2477432421875,15.670199506835939,11.3964732421875,15.486749506835938,11.3964732421875L9.107770506835937,11.3964732421875ZM9.107770506835937,9.0831242421875C8.924328506835938,9.0831242421875,8.775619506835938,8.934416242187499,8.775619506835938,8.7509742421875C8.775619506835938,8.5675322421875,8.924328506835938,8.4188232421875,9.107770506835937,8.4188232421875L15.843589506835936,8.4188232421875C16.027029506835937,8.4188232421875,16.17573950683594,8.5675322421875,16.17573950683594,8.7509742421875C16.17573950683594,8.934416242187499,16.027029506835937,9.0831242421875,15.843589506835936,9.0831242421875L9.107770506835937,9.0831242421875Z" fill="#963232" fill-opacity="1"/></g><g><path d="M3.9428863525390625,12.7962646484375L3.9428863525390625,18.8449946484375C3.9428863525390625,19.1496446484375,4.192297352539063,19.3992446484375,4.497181352539062,19.3992446484375L18.80498635253906,19.3992446484375C19.10978635253906,19.3992446484375,19.359186352539062,19.1498746484375,19.359186352539062,18.8449946484375L19.359186352539062,13.6263586484375C19.359186352539062,13.3215136484375,19.109286352539062,13.0721026484375,18.80498635253906,13.0721026484375L4.981306352539063,13.0721026484375C4.4880333525390625,13.0683496484375,4.215635352539063,13.0080686484375,3.9428863525390625,12.7962646484375Z" fill="#FFFFFF" fill-opacity="1"/></g><g><path d="M6.7132567578125,14.4970703125L6.9949667578125005,15.6240303125L7.0307667578125,15.6240303125L7.3176767578124995,14.4970703125L8.449636757812499,14.4970703125L7.5276367578125,16.8277703125L7.5276367578125,17.6985203125L6.5031767578125,17.6985203125L6.5031767578125,16.8277703125L5.5811767578125,14.4970703125L6.7132567578125,14.4970703125ZM9.1616767578125,17.6985203125L8.0809167578125,17.6985203125L8.9106967578125,14.49707150551L10.4934767578125,14.49707150551L11.323266757812501,17.6985203125L10.242426757812499,17.6985203125L10.124686757812501,17.1914503125L9.279496757812499,17.1914503125L9.1616767578125,17.6985203125ZM9.6739467578125,15.4806033125L9.4638567578125,16.3770003125L9.9351167578125,16.3770003125L9.7302367578125,15.4806033125L9.6739467578125,15.4806033125ZM12.4603867578125,17.6985203125L11.389796757812501,17.6985203125L11.5844767578125,14.49707150551L12.9214067578125,14.49707150551L13.3209367578125,16.1260203125L13.3567467578125,16.1260203125L13.7563167578125,14.49707150551L15.0932467578125,14.49707150551L15.2878867578125,17.6985203125L14.2173367578125,17.6985203125L14.1558367578125,16.1465103125L14.1200267578125,16.1465103125L13.7307067578125,17.6985203125L12.9470167578125,17.6985203125L12.5525767578125,16.1465103125L12.5218867578125,16.1465103125L12.4603867578125,17.6985203125ZM17.7209767578125,17.6985203125L15.6719767578125,17.6985203125L15.6719767578125,14.49707150551L16.696476757812498,14.49707150551L16.696476757812498,16.8789903125L17.7209767578125,16.8789903125L17.7209767578125,17.6985203125Z" fill="#1A1A1A" fill-opacity="1"/></g></g></g></svg>