<svg xmlns="http://www.w3.org/2000/svg" xmlns:xlink="http://www.w3.org/1999/xlink" fill="none" version="1.1" width="24" height="24" viewBox="0 0 24 24"><defs><clipPath id="master_svg0_3105_4216"><rect x="0" y="0" width="24" height="24" rx="0"/></clipPath><clipPath id="master_svg1_5379_07014"><rect x="3.5" y="2" width="16.4580078125" height="20" rx="0"/></clipPath></defs><g><g clip-path="url(#master_svg0_3105_4216)"></g><g clip-path="url(#master_svg1_5379_07014)"><g><path d="M7.241363979492188,2.00054931640625L15.024453979492188,2.00054931640625L19.95805397949219,7.33802931640625L19.95805397949219,19.75204931640625C19.95805397949219,20.98504931640625,18.943153979492187,22.00004931640625,17.710053979492187,22.00004931640625L7.241363979492188,22.00004931640625C6.007983979492187,22.00004931640625,4.9934539794921875,20.98854931640625,4.9934539794921875,19.75204931640625L4.9934539794921875,4.24841931640625C4.993453830365188,3.0119593164062497,6.004893979492188,2.00054931640625,7.241363979492188,2.00054931640625Z" fill-rule="evenodd" fill="#69B4FF" fill-opacity="1"/></g><g><path d="M16.83169112297656,7.21527099609375L16.830947875976562,7.21527099609375L19.958007875976563,9.37956099609375L19.958007875976563,7.34415899609375L17.83304787597656,7.34415899609375C17.463310875976564,7.33829499609375,17.12945987597656,7.29435469609375,16.83169112297656,7.21527099609375Z" fill-rule="evenodd" fill="#2882FF" fill-opacity="1"/></g><g><path d="M15.024520874023438,2L19.958010874023437,7.33744L19.958010874023437,7.34416L17.83305087402344,7.34416C16.07123087402344,7.31609,15.122760774023437,6.42951,15.024520874023438,4.9445L15.024520874023438,2Z" fill-rule="evenodd" fill="#F0FBFF" fill-opacity="1"/></g><g><path d="M3.5,18.884158193359376L3.5,11.906228193359375L3.50109459,11.856938193359374C3.5272085,11.214016193359376,4.06141,10.695648193359375,4.71047,10.695648193359375L4.99342,10.695648193359375L4.99342,12.673308193359375L18.4012,12.673308193359375C18.904,12.673308193359375,19.3149,13.084168193359375,19.3149,13.586938193359375L19.3149,18.884158193359376C19.3149,19.385708193359378,18.9028,19.797868193359378,18.4012,19.797868193359378L4.4137129999999996,19.797868193359378C3.912076,19.797868193359378,3.5,19.386458193359374,3.5,18.884158193359376Z" fill="#2882FF" fill-opacity="1"/></g><g><path d="M9.107755248046875,11.3964732421875C8.924330248046875,11.3964932421875,8.775623932746875,11.247773242187499,8.775623932746875,11.0643032421875C8.775603055036875,10.8808532421875,8.924309248046875,10.7321332421875,9.107755248046875,10.7321332421875L15.486734248046876,10.7321332421875C15.670164248046875,10.7321132421875,15.818874248046875,10.8808332421875,15.818874248046875,11.0643032421875C15.818894248046874,11.2477432421875,15.670184248046876,11.3964732421875,15.486734248046876,11.3964732421875L9.107755248046875,11.3964732421875ZM9.107755248046875,9.0831242421875C8.924313248046875,9.0831242421875,8.775604248046875,8.934416242187499,8.775604248046875,8.7509742421875C8.775604248046875,8.5675322421875,8.924313248046875,8.4188232421875,9.107755248046875,8.4188232421875L15.843574248046874,8.4188232421875C16.027014248046875,8.4188232421875,16.175724248046876,8.5675322421875,16.175724248046876,8.7509742421875C16.175724248046876,8.934416242187499,16.027014248046875,9.0831242421875,15.843574248046874,9.0831242421875L9.107755248046875,9.0831242421875Z" fill="#2882FF" fill-opacity="1"/></g><g><path d="M3.9428863525390625,12.7962646484375L3.9428863525390625,18.8449946484375C3.9428863525390625,19.1496446484375,4.192297352539063,19.3992446484375,4.497181352539062,19.3992446484375L18.362086352539063,19.3992446484375C18.666986352539062,19.3992446484375,18.91628635253906,19.1498746484375,18.91628635253906,18.8449946484375L18.91628635253906,13.6263586484375C18.91628635253906,13.3215136484375,18.666586352539063,13.0721026484375,18.362086352539063,13.0721026484375L4.981306352539063,13.0721026484375C4.4880333525390625,13.0683496484375,4.215635352539063,13.0080686484375,3.9428863525390625,12.7962646484375Z" fill="#FFFFFF" fill-opacity="1"/></g><g><path d="M9.558899904632568,17.7035L10.483399904632568,17.7035L11.442299904632568,14.5L10.659699904632568,14.5L10.298499904632568,15.962C10.208199904632568,16.306,10.143699904632568,16.6328,10.049099904632568,16.9854L10.027599904632568,16.9854C9.937299904632567,16.6328,9.872799904632569,16.306,9.778199904632569,15.962L9.412699904632568,14.5L8.599999904632568,14.5L9.558899904632568,17.7035ZM11.77339990463257,17.7035L12.981699904632569,17.7035C13.678299904632567,17.7035,14.232999904632567,17.4111,14.232999904632567,16.7575C14.232999904632567,16.3318,13.987899904632568,16.091,13.665399904632569,16.005L13.665399904632569,15.9878C13.923399904632568,15.8889,14.082499904632568,15.5793,14.082499904632568,15.2955C14.082499904632568,14.6806,13.553599904632568,14.5,12.891399904632568,14.5L11.77339990463257,14.5L11.77339990463257,17.7035ZM12.543099904632568,15.7728L12.543099904632568,15.0891L12.861299904632569,15.0891C13.183799904632568,15.0891,13.33429990463257,15.1837,13.33429990463257,15.4116C13.33429990463257,15.6309,13.188099904632569,15.7728,12.861299904632569,15.7728L12.543099904632568,15.7728ZM12.543099904632568,17.1144L12.543099904632568,16.336100000000002L12.92579990463257,16.336100000000002C13.299899904632568,16.336100000000002,13.484799904632569,16.4436,13.484799904632569,16.7059C13.484799904632569,16.9811,13.295599904632567,17.1144,12.92579990463257,17.1144L12.543099904632568,17.1144Z" fill="#1A1A1A" fill-opacity="1"/></g></g></g></svg>