<svg xmlns="http://www.w3.org/2000/svg" xmlns:xlink="http://www.w3.org/1999/xlink" fill="none" version="1.1" width="24" height="24" viewBox="0 0 24 24"><defs><clipPath id="master_svg0_5401_06035"><rect x="0" y="0" width="24" height="24" rx="0"/></clipPath><clipPath id="master_svg1_5401_06036"><rect x="0" y="0" width="24" height="24" rx="0"/></clipPath><clipPath id="master_svg2_5401_06054"><rect x="2" y="2" width="20" height="20" rx="3"/></clipPath></defs><g clip-path="url(#master_svg0_5401_06035)"><g clip-path="url(#master_svg1_5401_06036)"></g><g clip-path="url(#master_svg2_5401_06054)"><g><path d="M2,2L22,2L22,22L2,22L2,2Z" fill="#F0DB4F" fill-opacity="1"/></g><g><path d="M20.36315330886841,17.23002701171875C20.21675330886841,16.31747701171875,19.62165330886841,15.55131701171875,17.859353308868407,14.83649701171875C17.24714330886841,14.55512701171875,16.56463330886841,14.35361701171875,16.361213308868408,13.889727011718751C16.288973308868407,13.61976701171875,16.279463308868408,13.46767701171875,16.32509330886841,13.30417701171875C16.456273308868408,12.77375701171875,17.08935330886841,12.60835701171875,17.59125330886841,12.76044701171875C17.91445330886841,12.86881701171875,18.22055330886841,13.11787701171875,18.404953308868407,13.515197011718751C19.26805330886841,12.95628701171875,19.266153308868407,12.960067011718749,19.86885330886841,12.57605701171875C19.64825330886841,12.23384701171875,19.53045330886841,12.07603701171875,19.38595330886841,11.92966801171875C18.86695330886841,11.34982001171875,18.159653308868407,11.05134031171875,17.02851330886841,11.07415381171875C16.83270330886841,11.09886861171875,16.635003308868406,11.12546531171875,16.43916330886841,11.15019971171875C15.874543308868407,11.29278601171875,15.336503308868409,11.58936301171875,15.020913308868408,11.98670201171875C14.074143308868408,13.06084701171875,14.344103308868409,14.94105701171875,15.496193308868408,15.71483701171875C16.63118330886841,16.56654701171875,18.29845330886841,16.76046701171875,18.511453308868408,17.55704701171875C18.718653308868408,18.53232701171875,17.79465330886841,18.84789701171875,16.87642330886841,18.73574701171875C16.19962330886841,18.59506701171875,15.823213308868409,18.25095701171875,15.416353308868409,17.62548701171875C14.667323308868408,18.05894701171875,14.667323308868408,18.05894701171875,13.897363308868409,18.50190701171875C14.079863308868408,18.90114701171875,14.271863308868408,19.08175701171875,14.577963308868409,19.42776701171875C16.02663330886841,20.89734701171875,19.65205330886841,20.82510701171875,20.30225330886841,18.60076701171875C20.32885330886841,18.52470701171875,20.503853308868408,18.01519701171875,20.36315330886841,17.23002701171875ZM12.872623308868409,11.19200601171875L11.001903308868409,11.19200601171875C11.001903308868409,12.80797701171875,10.994313308868408,14.41253701171875,10.994313308868408,16.02850701171875C10.994313308868408,17.057027011718752,11.04754330886841,17.99998701171875,10.880243308868408,18.28896701171875C10.606483308868409,18.85738701171875,9.897353308868407,18.78706701171875,9.574163308868409,18.676777011718748C9.245263308868408,18.515177011718748,9.077963308868409,18.28514701171875,8.884053308868408,17.96006701171875C8.830813308868407,17.86690701171875,8.790893308868409,17.79466701171875,8.777563308868409,17.78896701171875C8.269983308868408,18.09884701171875,7.764258308868408,18.41061701171875,7.256653308868408,18.72052701171875C7.509524308868408,19.239537011718753,7.882128308868408,19.69010701171875,8.359313308868408,19.98286701171875C9.072243308868408,20.41061701171875,10.030413308868408,20.54179701171875,11.032333308868408,20.31175701171875C11.684423308868407,20.12164701171875,12.24714330886841,19.728127011718747,12.541823308868409,19.129267011718753C12.96768330886841,18.344097011718752,12.876423308868407,17.39352701171875,12.872623308868409,16.34219701171875C12.882133308868408,14.62736701171875,12.872623308868409,12.91253701171875,12.872623308868409,11.19200601171875Z" fill="#323330" fill-opacity="1"/></g></g></g></svg>