<svg xmlns="http://www.w3.org/2000/svg" xmlns:xlink="http://www.w3.org/1999/xlink" fill="none" version="1.1" width="24" height="24" viewBox="0 0 24 24"><defs><clipPath id="master_svg0_3105_4207"><rect x="0" y="0" width="24" height="24" rx="0"/></clipPath><clipPath id="master_svg1_5379_06014"><rect x="3.5" y="2" width="16.4580078125" height="20" rx="0"/></clipPath></defs><g><g clip-path="url(#master_svg0_3105_4207)"></g><g clip-path="url(#master_svg1_5379_06014)"><g><path d="M7.241363979492188,2.00054931640625L15.024453979492188,2.00054931640625L19.95805397949219,7.33802931640625L19.95805397949219,19.75204931640625C19.95805397949219,20.98504931640625,18.943153979492187,22.00004931640625,17.710053979492187,22.00004931640625L7.241363979492188,22.00004931640625C6.007983979492187,22.00004931640625,4.9934539794921875,20.98854931640625,4.9934539794921875,19.75204931640625L4.9934539794921875,4.24841931640625C4.993453830365188,3.0119593164062497,6.004893979492188,2.00054931640625,7.241363979492188,2.00054931640625Z" fill-rule="evenodd" fill="#6DBF39" fill-opacity="1"/></g><g><path d="M16.83169112297656,7.21527099609375L16.830947875976562,7.21527099609375L19.958007875976563,9.37956099609375L19.958007875976563,7.34415899609375L17.83304787597656,7.34415899609375C17.463310875976564,7.33829499609375,17.12945987597656,7.29435469609375,16.83169112297656,7.21527099609375Z" fill-rule="evenodd" fill="#589B2E" fill-opacity="1"/></g><g><path d="M15.024520874023438,2L19.958010874023437,7.33744L19.958010874023437,7.34416L17.83305087402344,7.34416C16.07123087402344,7.31609,15.122760774023437,6.42951,15.024520874023438,4.9445L15.024520874023438,2Z" fill-rule="evenodd" fill="#DFFACD" fill-opacity="1"/></g><g><path d="M3.5,18.884158193359376L3.5,11.906228193359375L3.50109459,11.856938193359374C3.5272085,11.214016193359376,4.06141,10.695648193359375,4.71047,10.695648193359375L4.99342,10.695648193359375L4.99342,12.673308193359375L18.4012,12.673308193359375C18.904,12.673308193359375,19.3149,13.084168193359375,19.3149,13.586938193359375L19.3149,18.884158193359376C19.3149,19.385708193359378,18.9028,19.797868193359378,18.4012,19.797868193359378L4.4137129999999996,19.797868193359378C3.912076,19.797868193359378,3.5,19.386458193359374,3.5,18.884158193359376Z" fill="#4F8C29" fill-opacity="1"/></g><g><path d="M9.107755248046875,11.3964732421875C8.924330248046875,11.3964932421875,8.775623932746875,11.247773242187499,8.775623932746875,11.0643032421875C8.775603055036875,10.8808532421875,8.924309248046875,10.7321332421875,9.107755248046875,10.7321332421875L15.486734248046876,10.7321332421875C15.670164248046875,10.7321132421875,15.818874248046875,10.8808332421875,15.818874248046875,11.0643032421875C15.818894248046874,11.2477432421875,15.670184248046876,11.3964732421875,15.486734248046876,11.3964732421875L9.107755248046875,11.3964732421875ZM9.107755248046875,9.0831242421875C8.924313248046875,9.0831242421875,8.775604248046875,8.934416242187499,8.775604248046875,8.7509742421875C8.775604248046875,8.5675322421875,8.924313248046875,8.4188232421875,9.107755248046875,8.4188232421875L15.843574248046874,8.4188232421875C16.027014248046875,8.4188232421875,16.175724248046876,8.5675322421875,16.175724248046876,8.7509742421875C16.175724248046876,8.934416242187499,16.027014248046875,9.0831242421875,15.843574248046874,9.0831242421875L9.107755248046875,9.0831242421875Z" fill="#4F8C29" fill-opacity="1"/></g><g><path d="M3.9428863525390625,12.7962646484375L3.9428863525390625,18.8449946484375C3.9428863525390625,19.1496446484375,4.192297352539063,19.3992446484375,4.497181352539062,19.3992446484375L18.362086352539063,19.3992446484375C18.666986352539062,19.3992446484375,18.91628635253906,19.1498746484375,18.91628635253906,18.8449946484375L18.91628635253906,13.6263586484375C18.91628635253906,13.3215136484375,18.666586352539063,13.0721026484375,18.362086352539063,13.0721026484375L4.981306352539063,13.0721026484375C4.4880333525390625,13.0683496484375,4.215635352539063,13.0080686484375,3.9428863525390625,12.7962646484375Z" fill="#FFFFFF" fill-opacity="1"/></g><g><path d="M7.14996337890625,17.698499794921876L7.14996337890625,14.497040987931875L8.80960337890625,14.497040987931875C9.11691337890625,14.497040987931875,9.33633337890625,14.556813294921875,9.46780337890625,14.676319794921875C9.59927337890625,14.795903794921875,9.664953378906251,14.970062794921875,9.664953378906251,15.198792794921875C9.664953378906251,15.427601794921875,9.62320337890625,15.604339794921875,9.53950337890625,15.728969794921875C9.45584337890625,15.853669794921874,9.344003378906251,15.934749794921874,9.20401337890625,15.972319794921875L9.20401337890625,16.003049794921875C9.617183378906251,16.074779794921874,9.82382337890625,16.356479794921874,9.82382337890625,16.848229794921874C9.82382337890625,17.104329794921874,9.75552337890625,17.310109794921875,9.61894337890625,17.465429794921874C9.48227337890625,17.620859794921873,9.27230337890625,17.698499794921876,8.98884337890625,17.698499794921876L7.14996337890625,17.698499794921876ZM8.57399337890625,16.423099794921875L8.17438337890625,16.423099794921875L8.17438337890625,16.945569794921873L8.56883337890625,16.945569794921873C8.71226337890625,16.945569794921873,8.78395337890625,16.858429794921875,8.78395337890625,16.684279794921874C8.78395337890625,16.510119794921874,8.71402337890625,16.423099794921875,8.57399337890625,16.423099794921875ZM8.49709337890625,15.198793794921874L8.17438337890625,15.198793794921874L8.17438337890625,15.675259794921875L8.49197337890625,15.675259794921875C8.62180337890625,15.675259794921875,8.68665337890625,15.595819794921875,8.68665337890625,15.437063794921874C8.68665337890625,15.278191794921876,8.62344337890625,15.198793794921874,8.49709337890625,15.198793794921874ZM11.09922337890625,17.698499794921876L10.018463378906251,17.698499794921876L10.84824337890625,14.497040987931875L12.43106337890625,14.497040987931875L13.260853378906251,17.698489794921876L12.18001337890625,17.698489794921876L12.06226337890625,17.191419794921874L11.21708337890625,17.191419794921874L11.09922337890625,17.698499794921876ZM11.61149337890625,15.480572794921875L11.40144337890625,16.376969794921877L11.87270337890625,16.376969794921877L11.667823378906249,15.480572794921875L11.61149337890625,15.480572794921875ZM15.70926337890625,15.316618794921874L14.96654337890625,15.316618794921874L14.96654337890625,17.698489794921876L13.942073378906251,17.698489794921876L13.942073378906251,15.316616794921876L13.199353378906249,15.316616794921876L13.199353378906249,14.497039794921875L15.70926337890625,14.497039794921875L15.70926337890625,15.316618794921874Z" fill="#1A1A1A" fill-opacity="1"/></g></g></g></svg>