<svg xmlns="http://www.w3.org/2000/svg" xmlns:xlink="http://www.w3.org/1999/xlink" fill="none" version="1.1" width="24" height="24" viewBox="0 0 24 24"><defs><clipPath id="master_svg0_sa5787_08681"><rect x="0" y="0" width="24" height="24" rx="0"/></clipPath></defs><g clip-path="url(#master_svg0_sa5787_08681)"><g></g><g><path d="M18.00000033187866,9C18.852000331878664,9,19.297000331878664,9.986,18.78300033187866,10.623L18.70700033187866,10.707L12.707000331878662,16.707C12.350730331878662,17.06324,11.785090331878662,17.0988,11.387000331878662,16.79L11.293000331878662,16.707L5.293001331878662,10.707L5.210001331878662,10.613L5.156001331878662,10.536L5.102001331878662,10.44L5.0850010318786625,10.404L5.058001031878662,10.337L5.026000931878662,10.229L5.016000731878662,10.176L5.006000521878662,10.116L5.002000331878662,10.059L5.002000331878662,9.941L5.007000441878662,9.883L5.016000231878662,9.823L5.026000531878662,9.771L5.058000531878662,9.663L5.085000531878662,9.596L5.155000331878662,9.464L5.220000331878662,9.374L5.2930003318786625,9.292999L5.387000331878662,9.209999L5.464000331878662,9.155999L5.560001331878662,9.101999L5.596000331878662,9.0849991L5.663000331878662,9.0579987L5.771000331878662,9.0259991L5.824000331878662,9.0159988L5.884000331878662,9.00599861L5.941000331878662,9.0019989L18.00000033187866,9Z" fill="#000000" fill-opacity="1" style="mix-blend-mode:passthrough"/></g></g></svg>