<svg xmlns="http://www.w3.org/2000/svg" xmlns:xlink="http://www.w3.org/1999/xlink" fill="none" version="1.1" width="24" height="24" viewBox="0 0 24 24"><defs><clipPath id="master_svg0_6057_03441"><rect x="0" y="0" width="24" height="24" rx="0"/></clipPath></defs><g clip-path="url(#master_svg0_6057_03441)"><g></g><g><path d="M17.6516504,12.34834963Q16.5533009,11.25000024,15,11.25000018Q13.4466988,11.25,12.34834957,12.34834945Q11.25000018,13.4466989,11.25000018,15Q11.25,16.5533013,12.34834945,17.6516504Q13.4466991,18.75,15,18.75Q16.5533009,18.75,17.6516504,17.6516504Q18.75,16.5533009,18.75,15Q18.75,13.4466991,17.6516504,12.34834963ZM13.4090098,13.4090097Q14.0680194,12.75,15,12.75Q15.9319811,12.75000018,16.5909905,13.4090098Q17.25,14.0680194,17.25,15Q17.25,15.9319811,16.5909905,16.5909905Q15.9319811,17.25,15,17.25Q14.0680192,17.25,13.4090097,16.5909905Q12.75,15.9319811,12.75000018,15Q12.75000018,14.0680194,13.4090098,13.4090097Z" fill-rule="evenodd" fill="#000000" fill-opacity="1"/></g><g><path d="M12.2501220703125,17.4998779296875Q12.2501220703125,17.4260093866875,12.2645331603125,17.3535602096875Q12.2789441903125,17.2811110496875,12.3072124703125,17.2128654096875Q12.3354807503125,17.1446197596875,12.3765199203125,17.0832003096875Q12.4175590903125,17.0217808496875,12.4697920103125,16.9695478696875Q12.5220249903125,16.9173149496875,12.5834444503125,16.8762757796875Q12.6448639003125,16.8352366096875,12.7131095503125,16.8069683296875Q12.7813551903125,16.7787000496875,12.8538043503125,16.7642890196875Q12.9262535273125,16.7498779296875,13.0001220703125,16.7498779296875Q13.0739906133125,16.7498779296875,13.1464397903125,16.7642890196875Q13.2188889503125,16.7787000496875,13.2871345903125,16.8069683296875Q13.3553802403125,16.8352366096875,13.4167996903125,16.8762757796875Q13.4782191503125,16.9173149496875,13.5304521303125,16.9695478696875Q13.5826850503125,17.0217808496875,13.6237242203125,17.0832003096875Q13.6647633903125,17.1446197596875,13.6930316703125,17.2128654096875Q13.7212999503125,17.2811110496875,13.7357109803125,17.3535602096875Q13.7501220703125,17.4260093866875,13.7501220703125,17.4998779296875L13.7501220703125,20.4998779296875L14.5501220703125,19.8998778296875Q14.5984889703125,19.8636026296875,14.6520418703125,19.8355431296875Q14.7055949703125,19.8074841296875,14.7629512703125,19.7883653296875Q14.8203073703125,19.7692465296875,14.8799853703125,19.7595625296875Q14.9396633703125,19.7498779296875,15.0001220703125,19.7498781296875Q15.0605807703125,19.7498781296875,15.1202587703125,19.7595625296875Q15.179936870312499,19.7692470296875,15.2372929703125,19.7883656296875Q15.2946491703125,19.8074844296875,15.3482019703125,19.8355436296875Q15.4017550703125,19.8636028296875,15.4501220703125,19.8998780296875L16.2501220703125,20.4998781296875L16.2501220703125,17.4998779296875Q16.2501220703125,17.4260093866875,16.2645327703125,17.3535602096875Q16.2789439703125,17.2811110496875,16.3072120703125,17.2128654096875Q16.3354806703125,17.1446197596875,16.3765196703125,17.0832003096875Q16.4175588703125,17.0217808496875,16.4697918703125,16.9695478696875Q16.5220246703125,16.9173149496875,16.5834443703125,16.8762757796875Q16.6448635703125,16.8352366096875,16.7131092703125,16.8069683296875Q16.7813548703125,16.7787000496875,16.8538040703125,16.7642890196875Q16.9262532703125,16.7498779296875,17.0001220703125,16.7498779296875Q17.0739908703125,16.7498779296875,17.146439570312502,16.7642890196875Q17.2188887703125,16.7787000496875,17.2871341703125,16.8069683296875Q17.3553800703125,16.8352366096875,17.4167990703125,16.8762757796875Q17.478219070312498,16.9173149496875,17.5304517703125,16.9695478696875Q17.5826844703125,17.0217808496875,17.6237239703125,17.0832003096875Q17.664762970312502,17.1446197596875,17.6930312703125,17.2128654096875Q17.7212996703125,17.2811110496875,17.7357110703125,17.3535602096875Q17.7501220703125,17.4260093866875,17.7501220703125,17.4998779296875L17.7501220703125,21.9998779296875Q17.7501220703125,22.0737462296875,17.7357110703125,22.146195429687502Q17.7212996703125,22.2186441296875,17.6930312703125,22.2868900296875Q17.664762970312502,22.3551359296875,17.6237239703125,22.4165549296875Q17.5826844703125,22.477974929687498,17.5304517703125,22.5302076296875Q17.478219070312498,22.5824403296875,17.4167990703125,22.6234798296875Q17.3553800703125,22.664518829687502,17.2871341703125,22.6927871296875Q17.2188887703125,22.7210560296875,17.146439570312502,22.7354669296875Q17.0739908703125,22.7498779296875,17.0001220703125,22.7498779296875Q16.8784136703125,22.7498779296875,16.7629513703125,22.7113905296875Q16.6474885703125,22.6729030296875,16.5501220703125,22.5998778296875L15.0001220703125,21.4373779296875L13.4501220903125,22.5998778296875Q13.3307746903125,22.689388229687502,13.1862578803125,22.726413229687502Q13.0417410693125,22.7634382296875,12.8940562203125,22.7423401296875Q12.7463713003125,22.7212419296875,12.6180020003125,22.6452331296875Q12.4896326703125,22.5692248296875,12.4001220503125,22.4498777296875Q12.3270970603125,22.3525114296875,12.2886095003125,22.2370486296875Q12.2501220103125,22.1215858296875,12.2501220703125,21.9998779296875L12.2501220703125,17.4998779296875Z" fill-rule="evenodd" fill="#000000" fill-opacity="1"/></g><g><path d="M19.626308,18.0798470703125L19.625,18.0806040703125Q19.53949,18.129972070312498,19.469669,18.199792070312498Q19.399851,18.269610070312503,19.350481,18.3551220703125Q19.301111,18.4406320703125,19.275555,18.5360070703125Q19.25,18.631382070312497,19.25,18.7301220703125Q19.25,18.8039890703125,19.26441,18.8764390703125Q19.27882,18.9488880703125,19.307089,19.0171340703125Q19.335358,19.0853800703125,19.376396,19.1467990703125Q19.417435,19.208219070312502,19.469669,19.2604510703125Q19.521902,19.3126840703125,19.583321,19.353723070312498Q19.644741,19.394762070312503,19.712986,19.4230310703125Q19.781231,19.4513000703125,19.853682,19.4657110703125Q19.926132,19.4801220703125,20,19.4801220703125Q20.200962,19.4801220703125,20.375,19.379641070312502L20.37524,19.379503070312502L20.375692,19.3792420703125Q21.748375,18.586323070312503,21.749998,17.0008900703125L21.75,7.0001220703125Q21.75,5.8610344503125,20.944546,5.0555788463125Q20.13909,4.2501219503125,19,4.2501218303125L5,4.2501220703125Q3.86433977,4.2501220703125,3.057169829,5.0572920033125Q2.24999994,5.8644619003125005,2.24999976,7.0001220703125L2.25,17.0001220703125Q2.25,18.1392110703125,3.055456307,18.944667070312498Q3.86091274,19.750124070312502,5,19.750124070312502L10.000000499999999,19.750124070312502Q10.0738688,19.750123070312497,10.146318,19.735711070312497Q10.2187667,19.721300070312502,10.2870121,19.6930300703125Q10.3552575,19.6647620703125,10.416677,19.623724070312498Q10.4780965,19.5826840703125,10.5303297,19.5304520703125Q10.5825624,19.4782180703125,10.6236014,19.4167990703125Q10.6646409,19.3553790703125,10.692909199999999,19.2871330703125Q10.7211781,19.218887070312498,10.735589000000001,19.1464390703125Q10.75,19.073991070312502,10.750000499999999,19.000123070312497Q10.75,18.926254070312503,10.735589000000001,18.8538040703125Q10.7211781,18.7813550703125,10.692909700000001,18.7131090703125Q10.6646414,18.6448630703125,10.6236019,18.5834450703125Q10.5825629,18.522025070312502,10.5303302,18.4697920703125Q10.478097,18.4175590703125,10.416677499999999,18.376520070312502Q10.355258,18.3354800703125,10.2870121,18.307212070312502Q10.2187667,18.278944070312498,10.1463175,18.264533070312503Q10.0738688,18.250123070312497,10.000000499999999,18.250123070312497L5,18.250123070312497Q4.482233,18.250123070312497,4.1161166,17.884006070312502Q3.75,17.5178900703125,3.75,17.0001220703125L3.74999982,7.0001220703125Q3.74999988,6.4857822703125,4.11783,6.1179522703125Q4.4856602,5.7501220703125,5,5.7501220703125L19,5.7501218903125Q19.517769,5.7501218903125,19.883884,6.1162379703125005Q20.249998,6.4823535703125,20.249998,7.0001220703125L20.25,16.9993540703125Q20.249262,17.7194280703125,19.626308,18.0798470703125Z" fill-rule="evenodd" fill="#000000" fill-opacity="1"/></g><g><path d="M6,8.25L18,8.25Q18.073867999999997,8.25,18.146317,8.26441109Q18.218764999999998,8.27882212,18.287011,8.3070904Q18.355257,8.33535868,18.416676000000002,8.37639785Q18.478096,8.41743702,18.53033,8.46966994Q18.582562,8.52190292,18.623601,8.58332238Q18.66464,8.64474183,18.692908,8.71298748Q18.721176,8.78123312,18.735588,8.85368228Q18.75,8.926131457,18.75,9Q18.75,9.073868543,18.735588,9.14631772Q18.721177,9.21876688,18.692909,9.28701252Q18.66464,9.35525817,18.623601999999998,9.41667762Q18.582563,9.47809708,18.530331,9.53033006Q18.478096999999998,9.58256298,18.416677,9.62360215Q18.355257,9.66464132,18.287012,9.6929096Q18.218766000000002,9.72117788,18.146317,9.73558891Q18.073867999999997,9.75,18,9.75L6,9.75Q5.926131457,9.75,5.85368228,9.73558891Q5.78123312,9.72117788,5.71298748,9.6929096Q5.64474183,9.66464132,5.58332238,9.62360215Q5.52190292,9.58256298,5.46966994,9.53033006Q5.41743702,9.47809708,5.37639785,9.41667762Q5.33535868,9.35525817,5.3070904,9.28701252Q5.27882212,9.21876688,5.26441109,9.14631772Q5.25,9.073868543,5.25,9Q5.25,8.926131457,5.26441109,8.85368228Q5.27882212,8.78123312,5.3070904,8.71298748Q5.33535868,8.64474183,5.37639785,8.58332238Q5.41743702,8.52190292,5.46966994,8.46966994Q5.52190292,8.41743702,5.58332238,8.37639785Q5.64474183,8.33535868,5.71298748,8.3070904Q5.78123312,8.27882212,5.85368228,8.26441109Q5.926131457,8.25,6,8.25Z" fill-rule="evenodd" fill="#000000" fill-opacity="1"/></g><g><path d="M6,11.25L9,11.25Q9.0738683,11.25,9.1463175,11.26441109Q9.2187667,11.27882212,9.2870121,11.3070904Q9.355258,11.33535868,9.4166775,11.37639785Q9.478097,11.41743702,9.5303297,11.46966994Q9.5825624,11.52190292,9.6236014,11.58332238Q9.6646404,11.64474183,9.692909,11.71298748Q9.7211773,11.78123312,9.7355886,11.85368228Q9.7499998,11.926131457,9.75,12Q9.7499998,12.073868543,9.7355886,12.14631772Q9.7211773,12.21876688,9.692909,12.28701252Q9.6646404,12.35525817,9.6236017,12.41667762Q9.5825624,12.47809708,9.5303297,12.53033006Q9.478097,12.58256298,9.4166775,12.62360215Q9.355258,12.66464132,9.2870121,12.6929096Q9.2187667,12.72117788,9.1463175,12.73558891Q9.0738683,12.75,9,12.75L6,12.75Q5.926131457,12.75,5.85368228,12.73558891Q5.78123312,12.72117788,5.71298748,12.6929096Q5.64474183,12.66464132,5.58332238,12.62360215Q5.52190292,12.58256298,5.46966994,12.53033006Q5.41743702,12.47809708,5.37639785,12.41667762Q5.33535868,12.35525817,5.3070904,12.28701252Q5.27882212,12.21876688,5.26441109,12.14631772Q5.25,12.073868543,5.25,12Q5.25,11.926131457,5.26441109,11.85368228Q5.27882212,11.78123312,5.3070904,11.71298748Q5.33535868,11.64474183,5.37639785,11.58332238Q5.41743702,11.52190292,5.46966994,11.46966994Q5.52190292,11.41743702,5.58332238,11.37639785Q5.64474183,11.33535868,5.71298748,11.3070904Q5.78123312,11.27882212,5.85368228,11.26441109Q5.926131457,11.25,6,11.25Z" fill-rule="evenodd" fill="#000000" fill-opacity="1"/></g><g><path d="M6,14.25L8,14.25Q8.0738683,14.25,8.1463175,14.26441109Q8.2187667,14.27882212,8.2870121,14.3070904Q8.355258,14.33535868,8.4166775,14.37639785Q8.478097,14.41743702,8.5303297,14.46966994Q8.5825627,14.52190292,8.6236019,14.58332238Q8.6646409,14.64474183,8.692909199999999,14.71298748Q8.7211776,14.78123312,8.7355886,14.85368228Q8.75,14.926131457,8.75,15Q8.75,15.073868543,8.7355886,15.14631772Q8.7211776,15.21876688,8.692909199999999,15.28701252Q8.6646409,15.35525817,8.6236019,15.41667762Q8.5825629,15.47809708,8.5303299,15.53033006Q8.478097,15.58256298,8.4166775,15.62360215Q8.355258,15.66464132,8.2870121,15.6929096Q8.2187667,15.72117788,8.1463175,15.73558891Q8.0738683,15.75,8,15.75L6,15.75Q5.926131457,15.75,5.85368228,15.73558891Q5.78123312,15.72117788,5.71298748,15.6929096Q5.64474183,15.66464132,5.58332238,15.62360215Q5.52190292,15.58256298,5.46966994,15.53033006Q5.41743702,15.47809708,5.37639785,15.41667762Q5.33535868,15.35525817,5.3070904,15.28701252Q5.27882212,15.21876688,5.26441109,15.14631772Q5.25,15.073868543,5.25,15Q5.25,14.926131457,5.26441109,14.85368228Q5.27882212,14.78123312,5.3070904,14.71298748Q5.33535868,14.64474183,5.37639785,14.58332238Q5.41743702,14.52190292,5.46966994,14.46966994Q5.52190292,14.41743702,5.58332238,14.37639785Q5.64474183,14.33535868,5.71298748,14.3070904Q5.78123312,14.27882212,5.85368228,14.26441109Q5.926131457,14.25,6,14.25Z" fill-rule="evenodd" fill="#000000" fill-opacity="1"/></g></g></svg>