<svg xmlns="http://www.w3.org/2000/svg" xmlns:xlink="http://www.w3.org/1999/xlink" fill="none" version="1.1" width="24" height="24" viewBox="0 0 24 24"><defs><clipPath id="master_svg0_5773_08489"><rect x="0" y="0" width="24" height="24" rx="0"/></clipPath></defs><g clip-path="url(#master_svg0_5773_08489)"><g></g><g><path d="M7.5304839999999995,6.469824L12,10.93934L16.46921,6.4701319999999996L16.46967,6.46967Q16.57516,6.364181,16.712989999999998,6.30709Q16.85081,6.25,17,6.25Q17.073900000000002,6.25,17.1463,6.264411Q17.2188,6.278822,17.287,6.30709Q17.3553,6.335359,17.4167,6.376398Q17.478099999999998,6.417437,17.5303,6.46967Q17.5826,6.521903,17.6236,6.583322Q17.6646,6.644742,17.6929,6.712987Q17.7212,6.781233,17.735599999999998,6.853682Q17.75,6.9261315,17.75,7Q17.75,7.149184,17.6929,7.287013Q17.6358,7.424841,17.5303,7.53033L17.529899999999998,7.530792L12.53033,12.53033Q12.42484,12.635819999999999,12.28701,12.692910000000001Q12.149180000000001,12.75,12,12.75Q11.850819999999999,12.75,11.71299,12.692910000000001Q11.57516,12.635819999999999,11.46967,12.53033L6.469824,7.5304839999999995L6.46967,7.53033Q6.364181,7.424841,6.30709,7.287013Q6.25,7.149184,6.25,7Q6.25,6.9261315,6.264411,6.853682Q6.278822,6.781233,6.30709,6.712987Q6.335359,6.644742,6.376398,6.583322Q6.417437,6.521903,6.46967,6.46967Q6.521903,6.417437,6.583322,6.376398Q6.644742,6.335359,6.712987,6.30709Q6.781233,6.278822,6.853682,6.264411Q6.9261315,6.25,7,6.25Q7.149184,6.25,7.287013,6.30709Q7.424841,6.364181,7.53033,6.46967L7.5304839999999995,6.469824Z" fill-rule="evenodd" fill="#000000" fill-opacity="1" style="mix-blend-mode:passthrough"/></g><g><path d="M7.5304839999999995,12.469824L12,16.93934L16.46921,12.470132L16.46967,12.46967Q16.57516,12.364181,16.712989999999998,12.30709Q16.85081,12.25,17,12.25Q17.073900000000002,12.25,17.1463,12.264410999999999Q17.2188,12.278822,17.287,12.30709Q17.3553,12.335359,17.4167,12.376398Q17.478099999999998,12.417437,17.5303,12.46967Q17.5826,12.521903,17.6236,12.583322Q17.6646,12.644742,17.6929,12.712987Q17.7212,12.781233,17.735599999999998,12.853682Q17.75,12.9261315,17.75,13Q17.75,13.149184,17.6929,13.287013Q17.6358,13.424841,17.5303,13.53033L17.529899999999998,13.530792L12.53033,18.53033Q12.42484,18.63582,12.28701,18.69291Q12.149180000000001,18.75,12,18.75Q11.850819999999999,18.75,11.71299,18.69291Q11.57516,18.63582,11.46967,18.53033L6.469824,13.530484L6.46967,13.53033Q6.364181,13.424841,6.30709,13.287013Q6.25,13.149184,6.25,13Q6.25,12.9261315,6.264411,12.853682Q6.278822,12.781233,6.30709,12.712987Q6.335359,12.644742,6.376398,12.583322Q6.417437,12.521903,6.46967,12.46967Q6.521903,12.417437,6.583322,12.376398Q6.644742,12.335359,6.712987,12.30709Q6.781233,12.278822,6.853682,12.264410999999999Q6.9261315,12.25,7,12.25Q7.149184,12.25,7.287013,12.30709Q7.424841,12.364181,7.53033,12.46967L7.5304839999999995,12.469824Z" fill-rule="evenodd" fill="#000000" fill-opacity="1" style="mix-blend-mode:passthrough"/></g></g></svg>