<svg xmlns="http://www.w3.org/2000/svg" xmlns:xlink="http://www.w3.org/1999/xlink" fill="none" version="1.1" width="24" height="24" viewBox="0 0 24 24"><defs><clipPath id="master_svg0_5851_02568"><rect x="0" y="0" width="24" height="24" rx="0"/></clipPath></defs><g clip-path="url(#master_svg0_5851_02568)"><g></g><g><path d="M11.999999165534973,2C17.522999165534973,2,21.999999165534973,6.477,21.999999165534973,12C22.004399165534974,17.4628,17.62409916553497,21.9182,12.161999165534974,22.0067C6.699959165534973,22.0952,2.177634165534973,17.784100000000002,2.004999165534973,12.324L1.9999991655349731,12L2.003999235534973,11.72C2.1519991655349733,6.327,6.569999165534973,2,11.999999165534973,2ZM11.999999165534973,15C11.493029165534972,15.0001,11.066319165534972,15.3795,11.006999165534973,15.883L10.999999165534973,16L11.006999165534973,16.127000000000002C11.066839165534972,16.6301,11.493399165534973,17.0089,11.999999165534973,17.0089C12.506599165534974,17.0089,12.933199165534973,16.6301,12.992999165534973,16.127000000000002L12.999999165534973,16.009999999999998L12.992999165534973,15.883C12.933599165534973,15.3794,12.506899165534973,15,11.999999165534973,15ZM13.367999165534973,8.327C12.135499165534974,7.69689,10.631349165534973,7.99847,9.736999165534973,9.055C9.393179165534974,9.45775,9.422939165534974,10.0587,9.804859165534973,10.42551C10.186789165534973,10.79232,10.788459165534974,10.7978,11.176999165534973,10.438L11.347999165534974,10.258C11.650159165534973,9.98065,12.093099165534973,9.9208,12.457999165534973,10.108C12.852499165534972,10.30763,13.068999165534974,10.74258,12.990599165534974,11.17766C12.912099165534974,11.61274,12.557299165534973,11.94468,12.117999165534973,11.994L11.885999165534972,12.006C11.357859165534974,12.0641,10.967379165534973,12.5251,10.996909165534973,13.0556C11.026439165534972,13.5861,11.465679165534974,14.0009,11.996999165534973,14C13.385799165534973,14.0042,14.595799165534974,13.0546,14.922099165534974,11.70474C15.248299165534974,10.35484,14.605399165534973,8.95749,13.367999165534973,8.327Z" fill="#000000" fill-opacity="1" style="mix-blend-mode:passthrough"/></g></g></svg>