<svg xmlns="http://www.w3.org/2000/svg" xmlns:xlink="http://www.w3.org/1999/xlink" fill="none" version="1.1" width="24" height="24" viewBox="0 0 24 24"><defs><clipPath id="master_svg0_6029_02702"><rect x="0" y="0" width="24" height="24" rx="0"/></clipPath></defs><g clip-path="url(#master_svg0_6029_02702)"><g><path d="M17,3.3399952352905276C23.6043,7.153245235290528,23.6811,16.658855235290527,17.139200000000002,20.578355235290527C10.5974,24.497755235290526,2.252002,19.946155235290526,2.00500011,12.323955235290528L2,11.999955235290527L2.00500011,11.675995235290527C2.249856,4.125245235290528,10.45753,-0.43755476470947263,17,3.3399952352905276ZM12.02,6.999995235290528L11.857,7.0099952352905275L11.771,7.0259952352905275L11.629,7.070995235290527L11.516,7.124995235290528L11.446,7.167995235290527L11.351,7.239005235290527L11.293,7.292995235290527L7.293,11.292995235290528L7.21,11.386995235290527C6.88747,11.804125235290527,6.94423,12.400055235290527,7.33972,12.748755235290528C7.73521,13.097455235290527,8.33352,13.079255235290526,8.707,12.706955235290527L11,10.413995235290527L11,15.999955235290527L11.007,16.116955235290526C11.06949,16.642355235290527,11.53042,17.028155235290527,12.0586,16.997155235290528C12.5868,16.96615523529053,12.9994,16.529055235290528,13,15.999955235290527L13,10.414995235290528L15.293,12.706955235290527L15.387,12.789955235290527C15.8041,13.112555235290527,16.4,13.055755235290528,16.7488,12.660255235290528C17.0975,12.264755235290528,17.0792,11.666475235290527,16.707,11.292995235290528L12.707,7.292995235290527L12.625,7.220005235290527L12.536,7.155995235290527L12.423,7.094005235290528L12.342,7.060005235290527L12.229,7.026005235290527L12.117,7.0060052352905275L12.02,6.999995235290528L12.02,6.999995235290528Z" fill="#000000" fill-opacity="1" style="mix-blend-mode:passthrough"/></g></g></svg>