<svg xmlns="http://www.w3.org/2000/svg" xmlns:xlink="http://www.w3.org/1999/xlink" fill="none" version="1.1" width="24" height="24" viewBox="0 0 24 24"><defs><clipPath id="master_svg0_5851_02573"><rect x="0" y="0" width="24" height="24" rx="0"/></clipPath></defs><g clip-path="url(#master_svg0_5851_02573)"><g></g><g><path d="M11.999999165534973,2C17.522999165534973,2,21.999999165534973,6.477,21.999999165534973,12C22.004399165534974,17.4628,17.62409916553497,21.9182,12.161999165534974,22.0067C6.699959165534973,22.0952,2.177634165534973,17.784100000000002,2.004999165534973,12.324L1.9999991655349731,12L2.003999235534973,11.72C2.1519991655349733,6.327,6.569999165534973,2,11.999999165534973,2ZM11.999999165534973,11L10.999999165534973,11L10.882999165534972,11.007C10.379949165534972,11.06684,10.001119165534973,11.4934,10.001119165534973,12C10.001119165534973,12.5066,10.379949165534972,12.9332,10.882999165534972,12.993L10.999999165534973,13L10.999999165534973,16L11.006999165534973,16.117C11.061189165534973,16.5765,11.423509165534973,16.9388,11.882999165534972,16.993000000000002L11.999999165534973,17L12.999999165534973,17L13.116999165534974,16.993000000000002C13.576499165534972,16.9388,13.938799165534974,16.5765,13.992999165534973,16.117L13.999999165534973,16L13.992999165534973,15.883C13.943999165534974,15.465,13.638599165534973,15.1225,13.228999165534972,15.026L13.116999165534974,15.006L12.999999165534973,15L12.999999165534973,12L12.992999165534973,11.883C12.938799165534974,11.42351,12.576499165534972,11.06119,12.116999165534974,11.007L11.999999165534973,11ZM12.009999165534973,8L11.882999165534972,8.007C11.379949165534972,8.06684,11.001119165534973,8.493400000000001,11.001119165534973,9C11.001119165534973,9.506599999999999,11.379949165534972,9.93316,11.882999165534972,9.993L11.999999165534973,10L12.126999165534974,9.993C12.630099165534974,9.93316,13.008899165534974,9.506599999999999,13.008899165534974,9C13.008899165534974,8.493400000000001,12.630099165534974,8.06684,12.126999165534974,8.007L12.009999165534973,8Z" fill="#000000" fill-opacity="1" style="mix-blend-mode:passthrough"/></g></g></svg>