<svg xmlns="http://www.w3.org/2000/svg" xmlns:xlink="http://www.w3.org/1999/xlink" fill="none" version="1.1" width="24" height="24" viewBox="0 0 24 24"><defs><clipPath id="master_svg0_5851_02556"><rect x="0" y="0" width="24" height="24" rx="0"/></clipPath></defs><g clip-path="url(#master_svg0_5851_02556)"><g></g><g><path d="M12.073000953674317,1.8680000305712892C17.567000953674317,1.9080000355712892,21.999000953674315,6.372995835571289,21.999000953674315,11.868015835571288C21.999000953674315,17.36201583557129,17.567000953674317,21.827015835571288,12.073000953674317,21.86801583557129C6.579000953674316,21.908015835571288,2.0810012536743163,17.50801583557129,2.0000009536743164,12.015015835571289L2.0000009536743164,11.71999583557129C2.081001053674316,6.226995835571289,6.579000953674316,1.8270006355712891,12.073000953674317,1.8680000305712892ZM9.707000953674317,8.29299583557129C9.316500953674316,7.902615835571289,8.683500953674317,7.902615835571289,8.293000953674316,8.29299583557129L8.210000953674317,8.38699583557129C7.901200953674317,8.785085835571289,7.9367709536743165,9.350735835571289,8.293000953674316,9.706995835571288L10.585000953674317,12.00001583557129L8.293000953674316,14.293015835571289C7.914030953674317,14.68541583557129,7.919450953674317,15.309115835571289,8.305180953674316,15.694815835571289C8.690920953674317,16.08051583557129,9.314620953674316,16.08601583557129,9.707000953674317,15.707015835571289L12.707000953674317,12.707015835571289C13.097400953674317,12.31651583557129,13.097400953674317,11.683505835571289,12.707000953674317,11.29300583557129L9.707000953674317,8.29299583557129ZM13.707000953674317,8.29299583557129C13.316500953674316,7.902615835571289,12.683500953674317,7.902615835571289,12.293000953674316,8.29299583557129L12.210000953674317,8.38699583557129C11.901200953674316,8.785085835571289,11.936770953674316,9.350735835571289,12.293000953674316,9.706995835571288L14.585000953674317,12.00001583557129L12.293000953674316,14.293015835571289C11.914030953674317,14.68541583557129,11.919450953674316,15.309115835571289,12.305200953674316,15.694815835571289C12.690900953674316,16.08051583557129,13.314600953674317,16.08601583557129,13.707000953674317,15.707015835571289L16.707000953674317,12.707015835571289C17.097400953674317,12.31651583557129,17.097400953674317,11.683505835571289,16.707000953674317,11.29300583557129L13.707000953674317,8.29299583557129Z" fill="#000000" fill-opacity="1" style="mix-blend-mode:passthrough"/></g></g></svg>