<svg xmlns="http://www.w3.org/2000/svg" xmlns:xlink="http://www.w3.org/1999/xlink" fill="none" version="1.1" width="24" height="24" viewBox="0 0 24 24"><defs><clipPath id="master_svg0_6129_04101"><rect x="-0.75" y="-0.75" width="25.5" height="25.5" rx="0"/></clipPath></defs><g clip-path="url(#master_svg0_6129_04101)"><path d="M18.893099523162842,5.10762594776001Q16.037595523162842,2.2531077877600096,11.999999523162842,2.2531084977600098Q7.962402823162842,2.25310790776001,5.1068983231628415,5.10762694776001Q2.251394273162842,7.96214534776001,2.250001493162842,11.99974204776001Q2.248605133162842,16.039308547760008,5.104518423162842,18.89620954776001Q7.960432023162841,21.75310954776001,12.000001423162843,21.75310954776001Q16.039568523162842,21.75310754776001,18.895480523162842,18.89620954776001Q21.751393523162843,16.03930954776001,21.749999523162842,11.99974104776001Q21.74860552316284,7.96214534776001,18.893099523162842,5.10762594776001ZM6.167375523162842,6.168469947760009Q8.583570923162842,3.75310790776001,11.999999523162842,3.7531075477600098Q15.416427523162842,3.7531080277600095,17.83262252316284,6.16846944776001Q20.248818523162843,8.583831347760011,20.249999523162842,12.00025984776001Q20.25118052316284,15.418356547760009,17.83463852316284,17.83573254776001Q15.418096523162841,20.25310754776001,12.000001423162843,20.25310954776001Q8.581903923162841,20.25310954776001,6.165361923162841,17.83573254776001Q3.7488195931628416,15.418356547760009,3.7500013731628417,12.00025894776001Q3.7511799331628417,8.583831347760011,6.167375523162842,6.168469947760009Z" fill-rule="evenodd" fill="#000000" fill-opacity="1" style="mix-blend-mode:passthrough"/><path d="M12.5302243,8.53022408Q12.635692599999999,8.42475596,12.6927714,8.28695521Q12.7498503,8.14915445,12.7498503,8Q12.7498503,7.926146217,12.735441699999999,7.85371152Q12.7210336,7.78127682,12.692771,7.71304482Q12.6645079,7.64481282,12.623477000000001,7.58340567Q12.5824461,7.52199849,12.5302238,7.46977597Q12.478001599999999,7.4175534800000005,12.416594,7.37652254Q12.3551869,7.33549154,12.2869549,7.30722892Q12.2187233,7.27896631,12.1462884,7.2645582Q12.0738535,7.25014997,12,7.25014997Q11.8508456,7.25014997,11.7130446,7.30722892Q11.5752439,7.36430788,11.4697759,7.46977603L11.4696698,7.46966994L7.46966994,11.4696698L7.46977603,11.4697759Q7.36430788,11.5752439,7.30722892,11.7130446Q7.25014997,11.8508456,7.25014997,12Q7.25014997,12.0738535,7.2645582,12.1462884Q7.27896631,12.2187233,7.30722892,12.2869549Q7.33549154,12.3551869,7.37652254,12.416594Q7.4175534800000005,12.478001599999999,7.46977597,12.5302238Q7.52199849,12.5824461,7.58340567,12.623477000000001Q7.64481282,12.6645079,7.71304482,12.692771Q7.78127682,12.7210336,7.85371152,12.7354422Q7.926146217,12.7498503,8,12.7498503Q8.14915445,12.7498503,8.28695521,12.692771Q8.42475596,12.635692599999999,8.53022408,12.5302243L8.53033006,12.5303302L12.5303302,8.53033006L12.5302243,8.53022408Z" fill-rule="evenodd" fill="#000000" fill-opacity="1" style="mix-blend-mode:passthrough"/><path d="M11.25014997,8Q11.25014997,7.926146217,11.2645582,7.85371152Q11.27896631,7.78127682,11.30722892,7.71304482Q11.33549154,7.64481282,11.37652254,7.58340567Q11.41755348,7.52199849,11.46977597,7.46977597Q11.52199849,7.4175534800000005,11.58340567,7.37652254Q11.64481282,7.33549154,11.71304482,7.30722892Q11.78127682,7.27896631,11.85371152,7.2645582Q11.926146217,7.25014997,12,7.25014997Q12.073853783,7.25014997,12.14628848,7.2645582Q12.21872318,7.27896631,12.28695518,7.30722892Q12.35518718,7.33549154,12.41659433,7.37652254Q12.47800151,7.4175534800000005,12.53022403,7.46977597Q12.58244652,7.52199849,12.62347746,7.58340567Q12.66450846,7.64481282,12.69277108,7.71304482Q12.72103369,7.78127682,12.7354418,7.85371152Q12.74985003,7.926146217,12.74985003,8L12.75,8L12.75,16L12.74985003,16Q12.74985003,16.0738535,12.7354418,16.1462879Q12.72103369,16.2187233,12.69277108,16.286954899999998Q12.66450846,16.355186500000002,12.62347746,16.4165936Q12.58244652,16.4780006,12.53022403,16.5302238Q12.47800151,16.5824451,12.41659433,16.623477Q12.35518718,16.6645069,12.28695518,16.69277Q12.21872318,16.7210331,12.14628848,16.7354412Q12.073853783,16.7498493,12,16.7498503Q11.926146217,16.7498493,11.85371152,16.7354412Q11.78127682,16.7210331,11.71304482,16.69277Q11.64481282,16.6645069,11.58340567,16.623477Q11.52199849,16.5824451,11.46977597,16.5302238Q11.41755348,16.4780006,11.37652254,16.4165936Q11.33549154,16.355186500000002,11.30722892,16.286954899999998Q11.27896631,16.2187233,11.2645582,16.1462879Q11.25014997,16.0738535,11.25014997,16L11.25,16L11.25,8L11.25014997,8Z" fill-rule="evenodd" fill="#000000" fill-opacity="1" style="mix-blend-mode:passthrough"/><path d="M11.46977597,8.53022403Q11.36430788,8.42475593,11.30722892,8.28695518Q11.25014997,8.14915444,11.25014997,8Q11.25014997,7.926146217,11.2645582,7.85371152Q11.27896631,7.78127682,11.30722892,7.71304482Q11.33549154,7.64481282,11.37652254,7.58340567Q11.41755348,7.52199849,11.46977597,7.46977597Q11.52199849,7.4175534800000005,11.58340567,7.37652254Q11.64481282,7.33549154,11.71304482,7.30722892Q11.78127682,7.27896631,11.85371152,7.2645582Q11.926146217,7.25014997,12,7.25014997Q12.14915444,7.25014997,12.28695518,7.30722886Q12.42475593,7.36430788,12.53022403,7.46977597L12.53033006,7.46966994L16.5303302,11.4696698L16.5302243,11.4697759Q16.6356926,11.5752439,16.692771399999998,11.7130446Q16.7498503,11.8508456,16.7498503,12Q16.7498503,12.0738535,16.7354417,12.1462884Q16.7210336,12.2187233,16.692771,12.2869549Q16.6645079,12.3551869,16.623477,12.416594Q16.5824461,12.478001599999999,16.5302238,12.5302238Q16.4780016,12.5824461,16.416594,12.623477000000001Q16.3551869,12.6645079,16.286954899999998,12.692771Q16.2187233,12.7210336,16.1462884,12.7354422Q16.0738535,12.7498503,16,12.7498503Q15.8508456,12.7498503,15.7130446,12.692771Q15.5752439,12.635692599999999,15.4697759,12.5302243L15.4696698,12.5303302L11.46966994,8.53033006L11.46977597,8.53022403Z" fill-rule="evenodd" fill="#000000" fill-opacity="1" style="mix-blend-mode:passthrough"/></g></svg>