<svg xmlns="http://www.w3.org/2000/svg" xmlns:xlink="http://www.w3.org/1999/xlink" fill="none" version="1.1" width="24" height="24" viewBox="0 0 24 24"><defs><clipPath id="master_svg0_6057_03599"><rect x="0" y="0" width="24" height="24" rx="0"/></clipPath></defs><g clip-path="url(#master_svg0_6057_03599)"><g></g><g><path d="M18.8931,5.107692228125Q16.037596,2.253174068125,12,2.253174778125Q7.9624033,2.253174188125,5.1068988,5.107693228125Q2.2513947500000002,7.962211628125,2.25000197,11.999808328125Q2.2486056100000003,16.039374828125,5.1045189,18.896275828125Q7.9604325,21.753175828125,12.0000019,21.753175828125Q16.039569,21.753173828125,18.895481,18.896275828125Q21.751394,16.039375828125,21.75,11.999807328125Q21.748606,7.962211628125,18.8931,5.107692228125ZM6.167376,6.168536228124999Q8.5835714,3.753174188125,12,3.753173828125Q15.416428,3.7531743081249997,17.832622999999998,6.168535728125001Q20.248819,8.583897628125001,20.25,12.000326128125Q20.251181,15.418422828125,17.834639,17.835798828125Q15.418097,20.253173828125,12.0000019,20.253175828125Q8.581904399999999,20.253175828125,6.165362399999999,17.835798828125Q3.74882007,15.418422828125,3.75000185,12.000325228125Q3.75118041,8.583897628125001,6.167376,6.168536228124999Z" fill-rule="evenodd" fill="#000000" fill-opacity="1"/></g><g><path d="M10.9998779296875,11.25Q10.9260093866875,11.25,10.8535602096875,11.26441109Q10.7811110496875,11.27882212,10.7128654096875,11.3070904Q10.6446197596875,11.33535868,10.5832003096875,11.37639785Q10.5217808496875,11.41743702,10.4695478696875,11.46966994Q10.4173149496875,11.52190292,10.3762757796875,11.58332238Q10.3352366096875,11.64474183,10.3069683296875,11.71298748Q10.2787000496875,11.78123312,10.2642890196875,11.85368228Q10.2498779296875,11.926131457,10.2498779296875,12Q10.2498779296875,12.073868543,10.2642890196875,12.14631772Q10.2787000496875,12.21876688,10.3069683296875,12.28701252Q10.3352366096875,12.35525817,10.3762757796875,12.41667762Q10.4173149496875,12.47809708,10.4695478696875,12.53033006Q10.5217808496875,12.58256298,10.5832003096875,12.62360215Q10.6446197596875,12.66464132,10.7128654096875,12.6929096Q10.7811110496875,12.72117788,10.8535602096875,12.73558891Q10.9260093866875,12.75,10.9998779296875,12.75L11.2498779296875,12.75L11.2498779296875,16Q11.2498779196875,16.0738688,11.2642889596875,16.146317500000002Q11.2786999896875,16.2187667,11.3069682396875,16.2870121Q11.3352365196875,16.355258,11.3762757196875,16.416677Q11.4173148596875,16.478096999999998,11.4695478096875,16.5303297Q11.5217807296875,16.5825624,11.5832001596875,16.6236019Q11.6446195796875,16.664640900000002,11.7128652296875,16.6929092Q11.7811108796875,16.7211776,11.8535600896875,16.735589Q11.9260092996875,16.75,11.9998779296875,16.75L12.9998779296875,16.75Q13.0737462296875,16.75,13.1461954296875,16.735589Q13.2186446296875,16.7211776,13.2868900296875,16.6929092Q13.3551359296875,16.664640900000002,13.4165554296875,16.6236019Q13.4779749296875,16.5825624,13.5302076296875,16.5303297Q13.5824406296875,16.478096999999998,13.6234798296875,16.416677Q13.6645188296875,16.355258,13.692787129687499,16.2870121Q13.7210555296875,16.2187667,13.7354665296875,16.146317500000002Q13.7498779296875,16.0738688,13.7498779296875,16Q13.7498779296875,15.9261312,13.7354665296875,15.853682Q13.7210555296875,15.7812326,13.692787129687499,15.7129869Q13.6645188296875,15.6447415,13.6234798296875,15.583321999999999Q13.5824408296875,15.5219026,13.5302078296875,15.4696698Q13.4779749296875,15.4174368,13.4165554296875,15.3763976Q13.3551359296875,15.3353586,13.2868900296875,15.30709Q13.2186446296875,15.2788219,13.1461954296875,15.264410999999999Q13.0737462296875,15.25,12.9998779296875,15.25L12.7498779296875,15.25L12.7498779296875,12Q12.7498778296875,11.926131457,12.7354667296875,11.85368228Q12.7210556296875,11.78123312,12.6927873296875,11.71298748Q12.6645190296875,11.64474183,12.6234799296875,11.58332238Q12.5824408296875,11.52190292,12.5302078296875,11.46966994Q12.4779749296875,11.41743702,12.4165554296875,11.37639785Q12.3551359296875,11.33535868,12.2868904296875,11.3070904Q12.218644729687501,11.27882212,12.1461956296875,11.26441109Q12.0737464296875,11.25,11.9998779296875,11.25L10.9998779296875,11.25Z" fill-rule="evenodd" fill="#000000" fill-opacity="1"/></g><g><ellipse cx="11.9998779296875" cy="9" rx="1" ry="1" fill="#000000" fill-opacity="1"/></g></g></svg>