<svg xmlns="http://www.w3.org/2000/svg" xmlns:xlink="http://www.w3.org/1999/xlink" fill="none" version="1.1" width="24" height="24" viewBox="0 0 24 24"><defs><clipPath id="master_svg0_5851_02551"><rect x="0" y="0" width="24" height="24" rx="0"/></clipPath></defs><g clip-path="url(#master_svg0_5851_02551)"><g></g><g><path d="M17,3.3399952352905276C23.6043,7.153245235290528,23.6811,16.658855235290527,17.139200000000002,20.578355235290527C10.5974,24.497755235290526,2.252002,19.946155235290526,2.00500011,12.323955235290528L2,11.999955235290527L2.00500011,11.675995235290527C2.249856,4.125245235290528,10.45753,-0.43755476470947263,17,3.3399952352905276ZM15.707,9.292995235290526C15.3507,8.936765235290526,14.7851,8.901195235290526,14.387,9.209995235290528L14.293,9.292995235290526L11,12.584955235290527L9.707,11.292995235290528L9.613,11.209995235290528C9.2149,10.901425235290528,8.649429999999999,10.937095235290528,8.29326,11.293265235290527C7.9371,11.649425235290527,7.90142,12.214855235290527,8.21,12.612955235290528L8.293,12.706955235290527L10.293,14.706955235290527L10.387,14.789955235290527C10.74774,15.069855235290527,11.25226,15.069855235290527,11.613,14.789955235290527L11.707,14.706955235290527L15.707,10.706995235290528L15.79,10.612995235290528C16.0988,10.214915235290528,16.063200000000002,9.649265235290528,15.707,9.292995235290526Z" fill="#000000" fill-opacity="1" style="mix-blend-mode:passthrough"/></g></g></svg>