<svg xmlns="http://www.w3.org/2000/svg" xmlns:xlink="http://www.w3.org/1999/xlink" fill="none" version="1.1" width="24" height="24" viewBox="0 0 24 24"><defs><clipPath id="master_svg0_6029_02702"><rect x="0" y="0" width="24" height="24" rx="0"/></clipPath></defs><g clip-path="url(#master_svg0_6029_02702)"><path d="M17,3.3399999352905274C23.604305,7.153247835290528,23.681087,16.65888423529053,17.139242,20.578318235290528C10.5973969,24.497756235290527,2.25200176,19.94612023529053,2.0050001144,12.324000235290526L2,12.000000235290527L2.0050001144,11.675999635290527C2.24985552,4.125240835290527,10.4575253,-0.43755576470947277,17,3.3399999352905274ZM12.02,7.000000035290527L11.8570004,7.010000235290527L11.7709999,7.026000035290528L11.6289997,7.071000135290527L11.5159998,7.125000035290527L11.4460001,7.168000235290528L11.3509998,7.239000335290528L11.2930002,7.293000235290528L7.2930002,11.293000235290528L7.21,11.387000035290527C6.8874674,11.804129635290527,6.9442334,12.400020235290528,7.3397236,12.748749235290527C7.7352138,13.097477235290528,8.3335238,13.079208235290528,8.7069998,12.707000235290527L11,10.413999535290527L11,16.00000023529053L11.007,16.117000235290526C11.0694914,16.642391235290525,11.5304213,17.028181235290525,12.058606,16.997173235290525C12.58679,16.966165235290525,12.999413,16.52909423529053,13,16.00000023529053L13,10.414999935290528L15.293,12.707000235290527L15.387,12.790000235290528C15.804129,13.112536235290527,16.400022999999997,13.055772235290528,16.748753,12.660280235290527C17.097483,12.264788235290528,17.079212,11.666476235290528,16.707000999999998,11.293000235290528L12.707001,7.293000235290528L12.625001,7.220000235290527L12.536001,7.156000135290527L12.423001,7.094000335290527L12.342001,7.060000435290528L12.229001,7.026000535290527L12.117001,7.006000535290528L12.02,7.000000035290527L12.02,7.000000035290527Z" fill="#000000" fill-opacity="1" style="mix-blend-mode:passthrough"/></g></svg>