<svg xmlns="http://www.w3.org/2000/svg" xmlns:xlink="http://www.w3.org/1999/xlink" fill="none" version="1.1" width="24" height="24" viewBox="0 0 24 24"><g><g><path d="M9.75,4.5L9.75,9Q9.75,9.07387,9.764410999999999,9.14632Q9.778822,9.21877,9.80709,9.28701Q9.835359,9.355260000000001,9.876398,9.41668Q9.917437,9.478100000000001,9.96967,9.53033Q10.021903,9.58256,10.083322,9.6236Q10.144742,9.66464,10.212987,9.692910000000001Q10.281233,9.72118,10.353682,9.73559Q10.4261315,9.75,10.5,9.75Q10.5738685,9.75,10.646318,9.73559Q10.718767,9.72118,10.787013,9.692910000000001Q10.855258,9.66464,10.916678,9.6236Q10.978097,9.58256,11.03033,9.53033Q11.082563,9.478100000000001,11.123602,9.41668Q11.164641,9.355260000000001,11.19291,9.28701Q11.221178,9.21877,11.235589000000001,9.14632Q11.25,9.07387,11.25,9L11.25,4.5Q11.25,4.18934,11.46967,3.96967Q11.68934,3.75,12,3.75Q12.31066,3.75,12.53033,3.96967Q12.75,4.18934,12.75,4.5L12.75,9Q12.75,9.07387,12.76441,9.14632Q12.77882,9.21877,12.80709,9.28701Q12.83536,9.355260000000001,12.8764,9.41668Q12.91744,9.478100000000001,12.96967,9.53033Q13.0219,9.58256,13.08332,9.6236Q13.14474,9.66464,13.21299,9.692910000000001Q13.28123,9.72118,13.35368,9.73559Q13.42613,9.75,13.5,9.75Q13.57387,9.75,13.64632,9.73559Q13.71877,9.72118,13.78701,9.692910000000001Q13.85526,9.66464,13.91668,9.6236Q13.9781,9.58256,14.03033,9.53033Q14.08256,9.478100000000001,14.1236,9.41668Q14.16464,9.355260000000001,14.19291,9.28701Q14.22118,9.21877,14.23559,9.14632Q14.25,9.07387,14.25,9L14.25,4.5Q14.25,3.5680199999999997,13.59099,2.9090098Q12.93198,2.25,12,2.25Q11.068019,2.25,10.4090097,2.9090097Q9.75,3.568019,9.75,4.5Z" fill-rule="evenodd" fill="#000000" fill-opacity="1" style="mix-blend-mode:passthrough"/></g><g><path d="M21.0303,19.9697Q19.25,18.18934,19.25,15L19.25,11.5Q19.25,10.360912,18.444499999999998,9.5554563Q17.6391,8.75,16.5,8.75L7.32643,8.75Q6.2597000000000005,8.75,5.471999,9.4693381Q4.6843,10.188676,4.587723,11.25103L3.951359,18.25103Q3.841685,19.45745,4.643716,20.35Q5.452491,21.25,6.66677,21.25L20.5,21.25Q20.6492,21.25,20.787,21.1929Q20.9248,21.1358,21.0303,21.0303Q21.1358,20.924799999999998,21.1929,20.787Q21.25,20.6492,21.25,20.5Q21.25,20.3508,21.1929,20.213Q21.1358,20.075200000000002,21.0303,19.9697ZM17.75,11.5L17.75,15Q17.75,17.80648,18.954,19.75L6.66677,19.75Q6.12123,19.75,5.75943,19.34738Q5.394768,18.941580000000002,5.445199,18.38683L6.08156,11.38683Q6.12546,10.90394,6.48351,10.57697Q6.84155,10.25,7.32643,10.25L16.5,10.25Q17.0178,10.25,17.3839,10.61612Q17.75,10.98223,17.75,11.5Z" fill-rule="evenodd" fill="#000000" fill-opacity="1" style="mix-blend-mode:passthrough"/></g><g><path d="M13.25,14.5Q13.25,14.4261315,13.264410999999999,14.353682Q13.278822,14.281233,13.30709,14.212987Q13.335359,14.144742,13.376398,14.083322Q13.417437,14.021903,13.46967,13.96967Q13.521903,13.917437,13.583322,13.876398Q13.644742,13.835359,13.712987,13.80709Q13.781233,13.778822,13.853682,13.764410999999999Q13.9261315,13.75,14,13.75Q14.0738685,13.75,14.146318,13.764410999999999Q14.218767,13.778822,14.287013,13.80709Q14.355258,13.835359,14.416678,13.876398Q14.478097,13.917437,14.53033,13.96967Q14.582563,14.021903,14.623602,14.083322Q14.664641,14.144742,14.69291,14.212987Q14.721178,14.281233,14.735589000000001,14.353682Q14.75,14.4261315,14.75,14.5Q14.75,17.68934,16.53033,19.46967Q16.63582,19.57516,16.69291,19.712989999999998Q16.75,19.85082,16.75,20Q16.75,20.07387,16.735590000000002,20.14632Q16.72118,20.21877,16.69291,20.287010000000002Q16.66464,20.35526,16.6236,20.41668Q16.58256,20.4781,16.53033,20.53033Q16.4781,20.58256,16.41668,20.6236Q16.35526,20.66464,16.28701,20.69291Q16.21877,20.72118,16.14632,20.735590000000002Q16.07387,20.75,16,20.75Q15.85082,20.75,15.71299,20.69291Q15.57516,20.63582,15.46967,20.53033Q13.25,18.31066,13.25,14.5Z" fill-rule="evenodd" fill="#000000" fill-opacity="1" style="mix-blend-mode:passthrough"/></g><g><path d="M8.75,14.5Q8.75,14.4261315,8.764410999999999,14.353682Q8.778822,14.281233,8.80709,14.212987Q8.835359,14.144742,8.876398,14.083322Q8.917437,14.021903,8.96967,13.96967Q9.021903,13.917437,9.083322,13.876398Q9.144742,13.835359,9.212987,13.80709Q9.281233,13.778822,9.353682,13.764410999999999Q9.4261315,13.75,9.5,13.75Q9.5738685,13.75,9.646318,13.764410999999999Q9.718767,13.778822,9.787013,13.80709Q9.855258,13.835359,9.916678,13.876398Q9.978097,13.917437,10.03033,13.96967Q10.082563,14.021903,10.123602,14.083322Q10.164641,14.144742,10.19291,14.212987Q10.221178,14.281233,10.235589000000001,14.353682Q10.25,14.4261315,10.25,14.5Q10.25,17.68934,12.03033,19.46967Q12.135819999999999,19.57516,12.19291,19.712989999999998Q12.25,19.85082,12.25,20Q12.25,20.07387,12.23559,20.14632Q12.22118,20.21877,12.19291,20.287010000000002Q12.16464,20.35526,12.1236,20.41668Q12.08256,20.4781,12.03033,20.53033Q11.9781,20.58256,11.91668,20.6236Q11.85526,20.66464,11.78701,20.69291Q11.71877,20.72118,11.64632,20.735590000000002Q11.57387,20.75,11.5,20.75Q11.35082,20.75,11.21299,20.69291Q11.07516,20.63582,10.96967,20.53033Q8.75,18.31066,8.75,14.5Z" fill-rule="evenodd" fill="#000000" fill-opacity="1" style="mix-blend-mode:passthrough"/></g></g></svg>