<svg xmlns="http://www.w3.org/2000/svg" xmlns:xlink="http://www.w3.org/1999/xlink" fill="none" version="1.1" width="24" height="24" viewBox="0 0 24 24"><defs><clipPath id="master_svg0_6090_02697"><rect x="0" y="0" width="24" height="24" rx="0"/></clipPath></defs><g clip-path="url(#master_svg0_6090_02697)"><g></g><g><path d="M3,11.25L6,11.25Q6.0738683,11.25,6.1463175,11.26441109Q6.2187667,11.27882212,6.2870121,11.3070904Q6.355258,11.33535868,6.4166775000000005,11.37639785Q6.478097,11.41743702,6.530329699999999,11.46966994Q6.5825624000000005,11.52190292,6.6236014,11.58332238Q6.6646404,11.64474183,6.692909,11.71298748Q6.7211773,11.78123312,6.7355886,11.85368228Q6.749999799999999,11.926131457,6.75,12Q6.749999799999999,12.073868543,6.7355886,12.14631772Q6.7211773,12.21876688,6.692909,12.28701252Q6.6646404,12.35525817,6.6236017,12.41667762Q6.5825624000000005,12.47809708,6.530329699999999,12.53033006Q6.478097,12.58256298,6.4166775000000005,12.62360215Q6.355258,12.66464132,6.2870121,12.6929096Q6.2187667,12.72117788,6.1463175,12.73558891Q6.0738683,12.75,6,12.75L3,12.75Q2.926131457,12.75,2.85368228,12.73558891Q2.78123312,12.72117788,2.71298748,12.6929096Q2.64474183,12.66464132,2.58332238,12.62360215Q2.52190292,12.58256298,2.46966994,12.53033006Q2.41743702,12.47809708,2.37639785,12.41667762Q2.33535868,12.35525817,2.3070904,12.28701252Q2.27882212,12.21876688,2.26441109,12.14631772Q2.25,12.073868543,2.25,12Q2.25,11.926131457,2.26441109,11.85368228Q2.27882212,11.78123312,2.3070904,11.71298748Q2.33535868,11.64474183,2.37639785,11.58332238Q2.41743702,11.52190292,2.46966994,11.46966994Q2.52190292,11.41743702,2.58332238,11.37639785Q2.64474183,11.33535868,2.71298748,11.3070904Q2.78123312,11.27882212,2.85368228,11.26441109Q2.926131457,11.25,3,11.25Z" fill-rule="evenodd" fill="#2882FF" fill-opacity="1"/></g><g><path d="M11.25,3Q11.25,2.926131457,11.26441109,2.85368228Q11.27882212,2.78123312,11.3070904,2.71298748Q11.33535868,2.64474183,11.37639785,2.58332238Q11.41743702,2.52190292,11.46966994,2.46966994Q11.52190292,2.41743702,11.58332238,2.37639785Q11.64474183,2.33535868,11.71298748,2.3070904Q11.78123312,2.27882212,11.85368228,2.26441109Q11.926131457,2.25,12,2.25Q12.073868543,2.25,12.14631772,2.26441109Q12.21876688,2.27882212,12.28701252,2.3070904Q12.35525817,2.33535868,12.41667762,2.37639785Q12.47809708,2.41743702,12.53033006,2.46966994Q12.58256298,2.52190292,12.62360215,2.58332238Q12.66464132,2.64474183,12.6929096,2.71298748Q12.72117788,2.78123312,12.73558891,2.85368228Q12.75,2.926131457,12.75,3L12.75,6Q12.75,6.0738683,12.73558891,6.1463175Q12.72117788,6.2187667,12.6929096,6.2870121Q12.66464132,6.355258,12.62360215,6.4166775000000005Q12.58256298,6.478097,12.53033006,6.530329699999999Q12.47809708,6.5825624000000005,12.41667762,6.6236014Q12.35525817,6.6646404,12.28701252,6.692909Q12.21876688,6.7211773,12.14631772,6.7355886Q12.073868543,6.749999799999999,12,6.75Q11.926131457,6.749999799999999,11.85368228,6.7355886Q11.78123312,6.7211773,11.71298748,6.692909Q11.64474183,6.6646404,11.58332238,6.6236017Q11.52190292,6.5825624000000005,11.46966994,6.530329699999999Q11.41743702,6.478097,11.37639785,6.4166775000000005Q11.33535868,6.355258,11.3070904,6.2870121Q11.27882212,6.2187667,11.26441109,6.1463175Q11.25,6.0738683,11.25,6L11.25,3Z" fill-rule="evenodd" fill="#2882FF" fill-opacity="1"/></g><g><path d="M5.069523455625,6.130214093203125Q4.964034255625,6.024724873203125,4.906943915625,5.886896583203125Q4.849853515625,5.749068293203125,4.849853515625,5.599884033203125Q4.849853515625,5.526015490203125,4.864264605625,5.453566313203125Q4.878675635625,5.381117153203125,4.906943915625,5.312871513203125Q4.935212195625,5.244625863203125,4.976251365625,5.183206413203125Q5.017290535625,5.121786953203125,5.069523455625,5.069553973203125Q5.121756435625,5.017321053203125,5.183175895625,4.976281883203125Q5.244595345625,4.935242713203125,5.312840995625,4.906974433203125Q5.381086635625,4.878706153203125,5.453535795625,4.864295123203125Q5.525984972625,4.849884033203125,5.599853515625,4.849884033203125Q5.749037775625,4.849884033203125,5.886866065625,4.906974373203125Q6.024694355625,4.964064773203125,6.130183575625,5.069553973203125L8.330183515625,7.269553633203125Q8.435672715625,7.375042933203125,8.492763015625,7.512871233203125Q8.549853315625,7.650699633203125,8.549853315625,7.7998838332031255Q8.549853315625,7.873752333203125,8.535442115624999,7.946201333203125Q8.521030915625,8.018650533203125,8.492762515625,8.086896133203124Q8.464494215624999,8.155141833203125,8.423455215625001,8.216561333203124Q8.382416215625,8.277980833203125,8.330183315625,8.330213833203125Q8.277950315625,8.382446733203125,8.216530815625,8.423485733203126Q8.155111315625,8.464524733203124,8.086865915625,8.492793033203125Q8.018620215624999,8.521061433203124,7.946171015625,8.535472633203124Q7.873721815625,8.549883833203126,7.7998533156250005,8.549883833203126Q7.650669115625,8.549883833203126,7.512840715625,8.492793533203125Q7.375012515625,8.435703233203125,7.269523215625,8.330214033203125L5.069523395625,6.130214153203125L5.069523455625,6.130214093203125Z" fill-rule="evenodd" fill="#2882FF" fill-opacity="1"/></g><g><path d="M18.930281871875,6.130214273203125Q19.035771171875,6.024725083203125,19.092861671875,5.886896733203125Q19.149951971875,5.749068363203125,19.149951971875,5.599884033203125Q19.149951971875,5.526015490203125,19.135540771875,5.453566313203125Q19.121129771875,5.381117153203125,19.092861371875,5.312871513203125Q19.064593071875,5.244625863203125,19.023553871875,5.183206413203125Q18.982514871875,5.121786953203125,18.930281871875,5.069553973203125Q18.878048871875,5.017321053203125,18.816629371875,4.976281883203125Q18.755209971875,4.935242713203125,18.686964271875,4.906974433203125Q18.618718671875,4.878706153203125,18.546269671875,4.864295123203125Q18.473820471875,4.849884033203125,18.399951971875,4.849884033203125Q18.250767671875,4.849884033203125,18.112939371875,4.906974313203125Q17.975111271875,4.964064653203125,17.869622071875,5.069553733203125L17.869386671875,5.069789233203125L15.669775421875,7.269399433203125L15.669621231875,7.269553633203125Q15.564131971875,7.375042933203125,15.507041571875,7.512871233203125Q15.449951171875,7.650699633203125,15.449951171875,7.7998838332031255Q15.449951171875,7.873752333203125,15.464362261875,7.946201333203125Q15.478773291875,8.018650533203125,15.507041571875,8.086896133203124Q15.535309851875,8.155141833203125,15.576349021875,8.216561333203124Q15.617388191875,8.277980833203125,15.669621111875,8.330213833203125Q15.721854091875,8.382446733203125,15.783273551875,8.423485733203126Q15.844693001875,8.464524733203124,15.912938651875,8.492793033203125Q15.981184291875,8.521061433203124,16.053633451875,8.535472633203124Q16.126082628875,8.549883833203126,16.199951171875,8.549883833203126Q16.349135381875,8.549883633203125,16.486963631875,8.492793033203125Q16.624791861875,8.435703033203126,16.730281111875,8.330214033203125L16.730435311875,8.330059733203125L18.930281871875,6.130214273203125Z" fill-rule="evenodd" fill="#2882FF" fill-opacity="1"/></g><g><path d="M8.330183515625,16.730250714296876Q8.435672715625,16.624761524296876,8.492763015625,16.486933234296874Q8.549853315625,16.349104924296874,8.549853315625,16.199920654296875Q8.549853315625,16.126052111296875,8.535442115624999,16.053602934296876Q8.521030915625,15.981153774296875,8.492762515625,15.912908134296876Q8.464494215624999,15.844662484296874,8.423455215625001,15.783243034296875Q8.382416215625,15.721823574296875,8.330183315625,15.669590594296874Q8.277950315625,15.617357674296874,8.216530815625,15.576318504296875Q8.155111315625,15.535279334296876,8.086865915625,15.507011054296875Q8.018620215624999,15.478742774296874,7.946171015625,15.464331744296874Q7.873721815625,15.449920654296875,7.7998533156250005,15.449920654296875Q7.650668815625,15.449920654296875,7.512840515625,15.507011054296875Q7.375012115625,15.564101454296875,7.2695230156249995,15.669590774296875L5.069758715625,17.869356154296874L5.069523275625,17.869591554296875Q4.9640341956250005,17.975080754296876,4.906943855625,18.112908854296876Q4.849853515625,18.250737154296875,4.849853515625,18.399921454296877Q4.849853515625,18.473789954296876,4.864264605625,18.546238854296874Q4.878675635625,18.618688154296876,4.906943915625,18.686933754296874Q4.935212195625,18.755179454296876,4.976251365625,18.816598854296874Q5.017290535625,18.878018354296874,5.069523455625,18.930251354296875Q5.121756435625,18.982484354296876,5.183175895625,19.023523354296874Q5.244595345625,19.064562554296874,5.312840995625,19.092830854296874Q5.381086635625,19.121099254296876,5.453535795625,19.135510454296874Q5.525984972625,19.149921454296877,5.599853515625,19.149921454296877Q5.749037845625,19.149921454296877,5.886866215625,19.092831154296874Q6.024694565625,19.035740654296873,6.130183755625,18.930251354296875L8.329795815625,16.730638024296876L8.330183315625,16.730250594296876L8.330183515625,16.730250714296876Z" fill-rule="evenodd" fill="#2882FF" fill-opacity="1"/></g><g><path d="M10.7142333984375,10.71429443359375L20.9999473984375,14.14286633359375L16.4285192984375,16.42858033359375L14.1428052984375,21.00000843359375L10.7142333984375,10.71429443359375Z" fill="#231F2E" fill-opacity="1"/><path d="M10.0027208884375,10.95146531359375L13.431292998437499,21.237179433593752Q13.4784688984375,21.37870743359375,13.5762147984375,21.491409433593752Q13.6739606984375,21.60411143359375,13.8073954984375,21.670829433593752Q13.9408297984375,21.73754643359375,14.0896386984375,21.748121433593752Q14.2384473984375,21.758697433593753,14.3799759984375,21.711521433593752Q14.5215043984375,21.664344433593747,14.6342062984375,21.56659843359375Q14.746908198437499,21.46885343359375,14.8136257984375,21.335418433593752L16.9875363984375,16.98759743359375L21.335357398437502,14.81368683359375Q21.4687913984375,14.746969233593749,21.5665373984375,14.63426753359375Q21.664281398437502,14.52156593359375,21.711459398437498,14.38003733359375Q21.758636398437503,14.23850823359375,21.748060398437502,14.08969903359375Q21.737484398437502,13.94088983359375,21.6707663984375,13.80745553359375Q21.6040503984375,13.67402123359375,21.491348398437502,13.57627583359375Q21.3786463984375,13.47853013359375,21.237118398437502,13.431354033593749L10.9514042584375,10.00278192359375Q10.8359416684375,9.96429431359375,10.71423339471221,9.96429431359375Q10.5925251284375,9.96429431359375,10.4770625184375,10.00278192359375Q10.4069846884375,10.02614128359375,10.3428105084375,10.06272322359375Q10.2786363684375,10.09930521359375,10.2228320884375,10.14770400359375Q10.1670278284375,10.19610285359375,10.1217379584375,10.25445854359375Q10.0764480184375,10.31281423359375,10.0434129784375,10.37888428359375Q10.0103779984375,10.44495433359375,9.9908673784375,10.51619967359375Q9.9713567484375,10.58744502359375,9.9661202384375,10.66112772359375Q9.9608837384375,10.73481043459375,9.9701226984375,10.80809893459375Q9.9793616484375,10.88138744359375,10.0027208884375,10.95146531359375ZM14.2817370984375,19.045094533593748L15.757698998437501,16.093170133593752Q15.812128498437499,15.98431113359375,15.8981890984375,15.89825013359375Q15.9842500984375,15.812189533593749,16.093109098437502,15.757760033593751L19.045033498437498,14.28179813359375L11.9000877984375,11.90014883359375L14.2817370984375,19.045094533593748Z" fill-rule="evenodd" fill="#231F2E" fill-opacity="1"/></g></g></svg>