<svg xmlns="http://www.w3.org/2000/svg" xmlns:xlink="http://www.w3.org/1999/xlink" fill="none" version="1.1" width="24" height="24" viewBox="0 0 24 24"><defs><clipPath id="master_svg0_5566_09306"><rect x="0" y="0" width="24" height="24" rx="0"/></clipPath></defs><g clip-path="url(#master_svg0_5566_09306)"><g><path d="M14.9443,4.0920000000000005L14.9441,4.09136Q14.6352,2.99958,13.5,3L10.5,3Q9.3631,3,9.05653,4.08912Q9,4.29221,9,4.5L15,4.5Q15,4.28855,14.9444,4.09257L14.9443,4.0920000000000005L14.9443,4.0920000000000005ZM16.0607,5.56066Q16.4237,5.19758,16.486800000000002,4.71023Q17.0015,4.758509999999999,17.5063,4.8169699999999995Q18.0377,4.87881,18.392,5.28798Q18.75,5.7013300000000005,18.75,6.257L18.75,13.1019Q18.75,13.1758,18.764400000000002,13.2482Q18.7788,13.3207,18.8071,13.3889Q18.8354,13.4572,18.8764,13.5186Q18.9174,13.58,18.9697,13.6323Q19.021900000000002,13.6845,19.0833,13.7255Q19.1447,13.7666,19.213,13.7948Q19.2812,13.8231,19.3537,13.8375Q19.426099999999998,13.8519,19.5,13.8519Q19.573900000000002,13.8519,19.6463,13.8375Q19.7188,13.8231,19.787,13.7948Q19.8553,13.7666,19.9167,13.7255Q19.978099999999998,13.6845,20.0303,13.6323Q20.0826,13.58,20.1236,13.5186Q20.1646,13.4572,20.1929,13.3889Q20.2212,13.3207,20.235599999999998,13.2482Q20.25,13.1758,20.25,13.1019L20.25,13.1002L20.25,6.257Q20.25,5.142110000000001,19.526,4.30602Q18.79,3.4562299999999997,17.6797,3.3270299999999997Q16.9478,3.2422750000000002,16.197,3.178327Q15.8929,2.547675,15.3104,2.107177Q14.507,1.499627,13.5,1.5L10.5,1.5Q9.48094,1.5,8.67376,2.119742Q8.10289,2.558043,7.80323,3.178146Q7.06083,3.241285,6.32039,3.32702Q5.209343,3.4561900000000003,4.4735777,4.30613Q3.75,5.14199,3.75,6.257L3.75,18Q3.75,19.2426,4.62868,20.1213Q5.50736,21,6.75,21L11.61991,21Q11.69378,21,11.76623,20.9856Q11.83868,20.9712,11.90692,20.9429Q11.97517,20.9146,12.03659,20.8736Q12.09801,20.8326,12.15024,20.7803Q12.20247,20.7281,12.24351,20.6667Q12.28455,20.6053,12.31282,20.537Q12.341090000000001,20.4688,12.3555,20.3963Q12.36991,20.3239,12.36991,20.25Q12.36991,20.1761,12.3555,20.1037Q12.341090000000001,20.0312,12.31282,19.963Q12.28455,19.8947,12.24351,19.8333Q12.20247,19.7719,12.15024,19.7197Q12.09801,19.6674,12.03659,19.6264Q11.97517,19.5854,11.90692,19.5571Q11.83868,19.5288,11.76623,19.5144Q11.69378,19.5,11.61991,19.5L6.75,19.5Q6.12868,19.5,5.68934,19.0607Q5.25,18.6213,5.25,18L5.25,6.257Q5.25,5.70105,5.60767,5.28787Q5.96178,4.87881,6.49361,4.81698Q7.00284,4.75802,7.5132200000000005,4.71008Q7.57621,5.19753,7.93934,5.56066Q8.37868,6,9,6L15,6Q15.6213,6,16.0607,5.56066Z" fill-rule="evenodd" fill="#000000" fill-opacity="1" style="mix-blend-mode:passthrough"/></g><g><path d="M20.25,18.09375L20.25,20.90625Q20.25,21,20.15625,21L12.84375,21Q12.75,21,12.75,20.90625L12.75,11.90625Q12.75,11.8125,12.84375,11.8125L13.125,11.8125L13.97076,11.8125Q14.70728,11.813209,15.22828,12.33422Q15.75,12.85593,15.75,13.59375L15.75,14.71875Q15.75,15.3789,16.2168,15.8457Q16.6836,16.3125,17.34375,16.3125L18.46875,16.3125Q19.20657,16.3125,19.728279999999998,16.834220000000002Q20.25,17.35593,20.25,18.09375ZM21.75,18.09375L21.75,20.90625Q21.75,21.566200000000002,21.28311,22.033099999999997Q20.81622,22.5,20.15625,22.5L12.84375,22.5Q12.183778,22.5,11.716888,22.033099999999997Q11.25,21.566200000000002,11.25,20.90625L11.25,11.90625Q11.25,11.246277,11.716889,10.779389Q12.183777,10.3125,12.84375,10.3125L13.124600000000001,10.3125L13.125,10.3125L13.96875,10.312499L13.97147,10.3125L14.25,10.312501Q17.3566,10.3125,19.5533,12.5092Q21.75,14.7059,21.75,17.8125L21.75,18.09375ZM17.07251,12.49911Q17.83374,12.91096,18.49264,13.56986Q19.15154,14.22876,19.56339,14.98999Q19.05283,14.8125,18.46875,14.8125L17.34375,14.8125Q17.25,14.8125,17.25,14.71875L17.25,13.59375Q17.25,13.00967,17.07251,12.49911Z" fill-rule="evenodd" fill="#000000" fill-opacity="1" style="mix-blend-mode:passthrough"/></g></g></svg>