<svg xmlns="http://www.w3.org/2000/svg" xmlns:xlink="http://www.w3.org/1999/xlink" fill="none" version="1.1" width="24" height="24" viewBox="0 0 24 24"><defs><clipPath id="master_svg0_234_14784"><rect x="0" y="0" width="24" height="24" rx="0"/></clipPath></defs><g clip-path="url(#master_svg0_234_14784)"><g><path d="M19.5303,5.53033Q19.6358,5.424841,19.6929,5.287013Q19.75,5.149184,19.75,5Q19.75,4.9261315,19.735599999999998,4.853682Q19.7212,4.781233,19.6929,4.712987Q19.6646,4.644742,19.6236,4.583322Q19.5826,4.521903,19.5303,4.46967Q19.478099999999998,4.417437,19.4167,4.376398Q19.3553,4.335359,19.287,4.30709Q19.2188,4.278822,19.1463,4.264411Q19.073900000000002,4.25,19,4.25Q18.8508,4.25,18.713,4.30709Q18.575200000000002,4.364181,18.4697,4.46967L18.4692,4.470097L4.470097,18.4692L4.46967,18.4697Q4.364181,18.575200000000002,4.30709,18.713Q4.25,18.8508,4.25,19Q4.25,19.073900000000002,4.264411,19.1463Q4.278822,19.2188,4.30709,19.287Q4.335359,19.3553,4.376398,19.4167Q4.417437,19.478099999999998,4.46967,19.5303Q4.521903,19.5826,4.583322,19.6236Q4.644742,19.6646,4.712987,19.6929Q4.781233,19.7212,4.853682,19.735599999999998Q4.9261315,19.75,5,19.75Q5.149184,19.75,5.287013,19.6929Q5.424841,19.6358,5.53033,19.5303L5.530756,19.529899999999998L19.529899999999998,5.530756L19.5303,5.53033L19.5303,5.53033Z" fill-rule="evenodd" fill="#000000" fill-opacity="1" style="mix-blend-mode:passthrough"/></g><g><path d="M4.46967,5.53033Q4.364181,5.424841,4.30709,5.287013Q4.25,5.149184,4.25,5Q4.25,4.9261315,4.264411,4.853682Q4.278822,4.781233,4.30709,4.712987Q4.335359,4.644742,4.376398,4.583322Q4.417437,4.521903,4.46967,4.46967Q4.521903,4.417437,4.583322,4.376398Q4.644742,4.335359,4.712987,4.30709Q4.781233,4.278822,4.853682,4.264411Q4.9261315,4.25,5,4.25Q5.149184,4.25,5.287013,4.30709Q5.424841,4.364181,5.53033,4.46967L19.5303,18.4697Q19.6358,18.575200000000002,19.6929,18.713Q19.75,18.8508,19.75,19Q19.75,19.073900000000002,19.735599999999998,19.1463Q19.7212,19.2188,19.6929,19.287Q19.6646,19.3553,19.6236,19.4167Q19.5826,19.478099999999998,19.5303,19.5303Q19.478099999999998,19.5826,19.4167,19.6236Q19.3553,19.6646,19.287,19.6929Q19.2188,19.7212,19.1463,19.735599999999998Q19.073900000000002,19.75,19,19.75Q18.8508,19.75,18.713,19.6929Q18.575200000000002,19.6358,18.4697,19.5303L4.46967,5.53033L4.46967,5.53033Z" fill-rule="evenodd" fill="#000000" fill-opacity="1" style="mix-blend-mode:passthrough"/></g></g></svg>