<svg xmlns="http://www.w3.org/2000/svg" xmlns:xlink="http://www.w3.org/1999/xlink" fill="none" version="1.1" width="24" height="24" viewBox="0 0 24 24"><defs><clipPath id="master_svg0_5798_08805"><rect x="0" y="0" width="24" height="24" rx="0"/></clipPath></defs><g clip-path="url(#master_svg0_5798_08805)"><g><path d="M6.65675,18.750015871429444L18.5347,18.754015871429445L18.535,18.754015871429445Q20.2827,18.754015871429445,21.5172,17.51181587142944Q22.75,16.271415871429443,22.75,14.516995871429444Q22.75,12.763335871429444,21.5173,11.523055871429444Q20.2829,10.280995871429443,18.536,10.280995871429443L18.4027,10.280995871429443Q18.4558,9.213035871429444,18.0691,8.171065871429443Q17.5227,6.698555871429443,16.2451,5.676847871429444Q14.9821,4.664241871429443,13.3363,4.362425871429443Q11.6989,4.062167871429443,10.11345,4.544549871429443Q8.518329999999999,5.030462471429443,7.39926,6.179295871429443Q6.47843,7.124615871429443,6.08066,8.311395871429443Q4.21748,8.485475871429443,2.843906,9.807505871429443Q1.25,11.341595871429444,1.25,13.516995871429444Q1.25,15.693015871429443,2.843864,17.227315871429443Q4.425660000000001,18.750015871429444,6.65675,18.750015871429444ZM18.5353,17.254015871429445L18.535,17.254015871429445L6.65725,17.250015871429444Q5.03031,17.250015871429444,3.88414,16.146715871429443Q2.75,15.054915871429444,2.75,13.516995871429444Q2.75,11.979785871429442,3.88409,10.888245871429444Q5.03036,9.784995871429444,6.657,9.784995871429444Q6.7205,9.784995871429444,6.78309,9.774325871429443Q6.84568,9.763655871429442,6.90558,9.742605871429443Q6.96549,9.721555871429445,7.02101,9.690745871429442Q7.07652,9.659925871429444,7.12607,9.620215871429444Q7.17561,9.580505871429445,7.21778,9.533025871429444Q7.25994,9.485555871429444,7.29352,9.431665871429443Q7.3271,9.377775871429442,7.35115,9.319005871429443Q7.37519,9.260245871429444,7.38901,9.198265871429443Q7.92881,6.778095871429443,10.55055,5.979449871429443Q13.2139,5.169117871429443,15.3069,6.847155871429443Q17.3457,8.477685871429443,16.8139,10.868125871429443Q16.7979,10.940235871429444,16.7962,11.014085871429444Q16.7945,11.087935871429444,16.807299999999998,11.160685871429443Q16.8201,11.233445871429442,16.8468,11.302305871429443Q16.8735,11.371175871429443,16.9132,11.433505871429443Q16.9528,11.495835871429444,17.0038,11.549235871429444Q17.0549,11.602625871429442,17.1154,11.645045871429442Q17.175800000000002,11.687455871429442,17.2434,11.717255871429444Q17.311,11.747055871429444,17.3831,11.763105871429444Q17.4636,11.780995871429443,17.546,11.780995871429443L18.536,11.780995871429443Q19.6589,11.780995871429443,20.4534,12.580445871429443Q21.25,13.381955871429444,21.25,14.516995871429444Q21.25,15.652815871429443,20.4533,16.454415871429443Q19.6587,17.25391587142944,18.5353,17.254015871429445Z" fill-rule="evenodd" fill="#000000" fill-opacity="1" style="mix-blend-mode:passthrough"/></g></g></svg>