<svg xmlns="http://www.w3.org/2000/svg" xmlns:xlink="http://www.w3.org/1999/xlink" fill="none" version="1.1" width="24" height="24" viewBox="0 0 24 24"><defs><clipPath id="master_svg0_5768_08409"><rect x="0" y="0" width="24" height="24" rx="0"/></clipPath></defs><g clip-path="url(#master_svg0_5768_08409)"><g><path d="M18.536,11.780995871429443Q20.2468,11.780995871429443,20.9865,13.338735871429444Q21.0322,13.434845871429443,21.1027,13.514475871429443Q21.1733,13.594105871429443,21.2633,13.650955871429444Q21.3532,13.707805871429443,21.4554,13.737405871429443Q21.5576,13.766995871429444,21.664,13.766995871429444Q21.7379,13.766995871429444,21.8103,13.752585871429444Q21.8828,13.738175871429444,21.951,13.709905871429443Q22.0193,13.681635871429444,22.0807,13.640595871429444Q22.1421,13.599565871429443,22.1943,13.547325871429443Q22.2466,13.495095871429443,22.2876,13.433675871429443Q22.3286,13.372255871429443,22.3569,13.304005871429444Q22.3852,13.235765871429443,22.3996,13.163315871429443Q22.414,13.090865871429443,22.414,13.016995871429444Q22.414,12.847665871429443,22.3412,12.694755871429443L22.3407,12.693695871429444Q21.8241,11.606915871429443,20.816,10.953895871429443Q19.7772,10.280995871429443,18.536,10.280995871429443L18.4027,10.280995871429443Q18.4558,9.213035871429444,18.0691,8.171065871429443Q17.5227,6.698555871429443,16.2444,5.676272871429443Q14.9821,4.664240871429444,13.3363,4.362425871429443Q11.6989,4.062167871429443,10.11369,4.5444758714294435Q8.518329999999999,5.030462171429443,7.39926,6.179295871429443Q6.47843,7.124615871429443,6.08066,8.311395871429443Q4.21748,8.485475871429443,2.843906,9.807505871429443Q1.25,11.341595871429444,1.25,13.516995871429444Q1.25,15.692615871429444,2.843698,17.227715871429446Q4.42471,18.750515871429442,6.65583,18.754015871429445L12,18.754015871429445Q12.0739,18.754015871429445,12.1463,18.739615871429443Q12.2188,18.72521587142944,12.287,18.696915871429443Q12.3553,18.668615871429445,12.4167,18.62761587142944Q12.4781,18.58651587142944,12.5303,18.534315871429442Q12.5826,18.482115871429443,12.6236,18.420715871429444Q12.6646,18.35921587142944,12.6929,18.291015871429444Q12.7212,18.222715871429443,12.7356,18.15031587142944Q12.75,18.077915871429443,12.75,18.004015871429445Q12.75,17.930115871429443,12.7356,17.85771587142944Q12.7212,17.785215871429443,12.6929,17.717015871429446Q12.6646,17.648715871429445,12.6236,17.587315871429443Q12.5826,17.525915871429444,12.5303,17.47371587142944Q12.4781,17.421415871429446,12.4167,17.38041587142944Q12.3553,17.33931587142944,12.287,17.311115871429443Q12.2188,17.28281587142944,12.1463,17.268415871429443Q12.0739,17.254015871429445,12,17.254015871429445L6.65817,17.254015871429445Q5.030609999999999,17.251515871429444,3.8843,16.14731587142944Q2.75,15.054715871429444,2.75,13.516995871429444Q2.75,11.979785871429442,3.88409,10.888245871429444Q5.03036,9.784995871429444,6.657,9.784995871429444Q6.7205,9.784995871429444,6.78309,9.774325871429443Q6.84568,9.763645871429443,6.90558,9.742605871429443Q6.96549,9.721555871429445,7.02101,9.690745871429442Q7.07652,9.659925871429444,7.12607,9.620215871429444Q7.17561,9.580505871429445,7.21778,9.533025871429444Q7.25994,9.485555871429444,7.29352,9.431665871429443Q7.3271,9.377775871429442,7.35115,9.319005871429443Q7.37519,9.260245871429444,7.38901,9.198265871429443Q7.92881,6.778095871429443,10.55031,5.979523871429444Q13.2139,5.169117871429443,15.3076,6.847725871429443Q17.3457,8.477685871429443,16.8139,10.868125871429443Q16.796,10.948575871429444,16.796,11.030995871429443Q16.796,11.104865871429443,16.8104,11.177315871429442Q16.8248,11.249765871429442,16.853099999999998,11.318015871429443Q16.8814,11.386255871429444,16.9224,11.447675871429443Q16.9634,11.509095871429444,17.015700000000002,11.561325871429442Q17.0679,11.613565871429444,17.1293,11.654605871429442Q17.1907,11.695635871429443,17.259,11.723905871429444Q17.327199999999998,11.752175871429444,17.3997,11.766585871429443Q17.472099999999998,11.780995871429443,17.546,11.780995871429443L18.536,11.780995871429443Z" fill-rule="evenodd" fill="#000000" fill-opacity="1" style="mix-blend-mode:passthrough"/></g><g><path d="M18.25,16Q18.25,15.9261315,18.264411,15.853682Q18.278822,15.781233,18.30709,15.712987Q18.335359,15.644742,18.376398000000002,15.583322Q18.417437,15.521903,18.46967,15.46967Q18.521903000000002,15.417437,18.583322,15.376398Q18.644742,15.335359,18.712987,15.30709Q18.781233,15.278822,18.853682,15.264410999999999Q18.9261315,15.25,19,15.25Q19.0738685,15.25,19.146318,15.264410999999999Q19.218767,15.278822,19.287013,15.30709Q19.355258,15.335359,19.416678,15.376398Q19.478096999999998,15.417437,19.53033,15.46967Q19.582563,15.521903,19.623601999999998,15.583322Q19.664641,15.644742,19.69291,15.712987Q19.721178,15.781233,19.735589,15.853682Q19.75,15.9261315,19.75,16L19.75,22Q19.75,22.07387,19.735589,22.14632Q19.721178,22.21877,19.69291,22.287010000000002Q19.664641,22.35526,19.623601999999998,22.41668Q19.582563,22.4781,19.53033,22.53033Q19.478096999999998,22.58256,19.416678,22.6236Q19.355258,22.66464,19.287013,22.69291Q19.218767,22.72118,19.146318,22.735590000000002Q19.0738685,22.75,19,22.75Q18.9261315,22.75,18.853682,22.735590000000002Q18.781233,22.72118,18.712987,22.69291Q18.644742,22.66464,18.583322,22.6236Q18.521903000000002,22.58256,18.46967,22.53033Q18.417437,22.4781,18.376398000000002,22.41668Q18.335359,22.35526,18.30709,22.287010000000002Q18.278822,22.21877,18.264411,22.14632Q18.25,22.07387,18.25,22L18.25,16Z" fill-rule="evenodd" fill="#000000" fill-opacity="1" style="mix-blend-mode:passthrough"/></g><g><path d="M18.46967,15.46967L15.46967,18.46967Q15.364181,18.57516,15.30709,18.71299Q15.25,18.85082,15.25,19Q15.25,19.07387,15.264410999999999,19.14632Q15.278822,19.21877,15.30709,19.28701Q15.335359,19.35526,15.376398,19.41668Q15.417437,19.4781,15.46967,19.53033Q15.521903,19.58256,15.583322,19.6236Q15.644742,19.66464,15.712987,19.69291Q15.781233,19.72118,15.853682,19.735590000000002Q15.9261315,19.75,16,19.75Q16.149184,19.75,16.287013,19.69291Q16.424841,19.63582,16.53033,19.53033L16.530625,19.53004L19,17.06066L21.46914,19.5298L21.46967,19.53033Q21.57516,19.63582,21.712989999999998,19.69291Q21.85082,19.75,22,19.75Q22.07387,19.75,22.14632,19.735590000000002Q22.21877,19.72118,22.287010000000002,19.69291Q22.35526,19.66464,22.41668,19.6236Q22.4781,19.58256,22.53033,19.53033Q22.58256,19.4781,22.6236,19.41668Q22.66464,19.35526,22.69291,19.28701Q22.72118,19.21877,22.735590000000002,19.14632Q22.75,19.07387,22.75,19Q22.75,18.85082,22.69291,18.71299Q22.63582,18.57516,22.53033,18.46967L19.53033,15.46967Q19.4781,15.417437,19.41668,15.376398Q19.35526,15.335359,19.28701,15.30709Q19.21877,15.278822,19.14632,15.264410999999999Q19.07387,15.25,19,15.25Q18.92613,15.25,18.85368,15.264410999999999Q18.78123,15.278822,18.71299,15.30709Q18.64474,15.335359,18.58332,15.376398Q18.5219,15.417437,18.46967,15.46967Z" fill-rule="evenodd" fill="#000000" fill-opacity="1" style="mix-blend-mode:passthrough"/></g></g></svg>