<svg xmlns="http://www.w3.org/2000/svg" xmlns:xlink="http://www.w3.org/1999/xlink" fill="none" version="1.1" width="24" height="24" viewBox="0 0 24 24"><defs><clipPath id="master_svg0_5891_02680"><rect x="0" y="0" width="24" height="24" rx="0"/></clipPath></defs><g clip-path="url(#master_svg0_5891_02680)"><g><path d="M19.8107,4.18934Q20.25,4.62868,20.25,5.25L20.25,12Q20.25,13.5,18.75,13.5L5.25,13.5Q4.62868,13.5,4.18934,13.0607Q3.75,12.62132,3.75,12L3.75,5.25Q3.75,4.62868,4.18934,4.18934Q4.62868,3.75,5.25,3.75L18.75,3.75Q19.3713,3.75,19.8107,4.18934ZM2.25,5.25Q2.25,4.00736,3.12868,3.12868Q4.00736,2.25,5.25,2.25L18.75,2.25Q19.9926,2.25,20.8713,3.12868Q21.75,4.00736,21.75,5.25L21.75,15Q21.75,16.2426,20.8713,17.121299999999998Q19.9926,18,18.75,18L15.75,18L15.75,18.256999999999998Q15.75,19.1897,16.4092,19.8485L17.0303,20.4697Q17.0826,20.5219,17.1236,20.5833Q17.1646,20.6447,17.1929,20.713Q17.2212,20.7812,17.235599999999998,20.8537Q17.25,20.9261,17.25,21Q17.25,21.0739,17.235599999999998,21.1463Q17.2212,21.2188,17.1929,21.287Q17.1646,21.3553,17.1236,21.4167Q17.0826,21.4781,17.0303,21.5303Q16.924799999999998,21.6358,16.787,21.6929Q16.6492,21.75,16.5,21.75L7.5,21.75Q7.42613,21.75,7.35368,21.7356Q7.28123,21.7212,7.21299,21.6929Q7.14474,21.6646,7.08332,21.6236Q7.0219,21.5826,6.96967,21.5303Q6.91744,21.4781,6.8764,21.4167Q6.83536,21.3553,6.8070900000000005,21.287Q6.77882,21.2188,6.76441,21.1463Q6.75,21.0739,6.75,21Q6.75,20.8508,6.8070900000000005,20.713Q6.86418,20.5752,6.96967,20.4697L7.59067,19.8487Q8.25011,19.1894,8.25,18.2571L8.25,18L5.25,18Q4.00736,18,3.12868,17.121299999999998Q2.25,16.2426,2.25,15L2.25,5.25L2.25,5.25ZM3.75,14.6066L3.75,15Q3.75,15.6213,4.18934,16.0607Q4.62868,16.5,5.25,16.5L18.75,16.5Q20.25,16.5,20.25,15L20.25,14.6066Q19.5815,15,18.75,15L5.25,15Q4.41852,15,3.75,14.6066ZM14.25,18L9.75,18L9.75,18.2569Q9.75013,19.3704,9.185970000000001,20.25L14.814,20.25Q14.25,19.3705,14.25,18.256999999999998L14.25,18Z" fill-rule="evenodd" fill="#000000" fill-opacity="1" style="mix-blend-mode:passthrough"/></g></g></svg>