<svg xmlns="http://www.w3.org/2000/svg" xmlns:xlink="http://www.w3.org/1999/xlink" fill="none" version="1.1" width="24" height="24" viewBox="0 0 24 24"><defs><clipPath id="master_svg0_4849_03689"><rect x="0" y="0" width="24" height="24" rx="0"/></clipPath></defs><g clip-path="url(#master_svg0_4849_03689)"><g><path d="M2.25,5.25C2.249999761581,3.59315,3.59315,2.25,5.25,2.25L18.75,2.25C20.4069,2.25,21.75,3.59315,21.75,5.25L21.75,15C21.75,16.6569,20.4069,18,18.75,18L15.75,18L15.75,18.257C15.75,18.854,15.987,19.427,16.409,19.848L17.03,20.47C17.2442,20.6845,17.3083,21.0068,17.1923,21.2869C17.0763,21.567,16.8031,21.7497,16.5,21.75L7.5,21.75C7.19686,21.7497,6.92368,21.567,6.80771,21.2869C6.69174,21.0068,6.75578,20.6845,6.97,20.47L7.591,19.848C8.01271,19.4263,8.24974,18.8544,8.25,18.258L8.25,18L5.25,18C3.59315,18,2.25,16.6569,2.25,15L2.25,5.25ZM3.75,5.25L3.75,12.75C3.75,13.5784,4.42157,14.25,5.25,14.25L18.75,14.25C19.5784,14.25,20.25,13.5784,20.25,12.75L20.25,5.25C20.25,4.42157,19.5784,3.75,18.75,3.75L5.25,3.75C4.42157,3.75,3.75,4.42157,3.75,5.25Z" fill-rule="evenodd" fill="#000000" fill-opacity="1"/></g></g></svg>