<svg xmlns="http://www.w3.org/2000/svg" xmlns:xlink="http://www.w3.org/1999/xlink" fill="none" version="1.1" width="24" height="24" viewBox="0 0 24 24"><defs><clipPath id="master_svg0_5566_09189"><rect x="0" y="0" width="24" height="24" rx="0"/></clipPath></defs><g clip-path="url(#master_svg0_5566_09189)"><g transform="matrix(-1,0,0,1,34,0)"><path d="M16.25,9.667L16.25,18.333Q16.25,19.7484,17.250816,20.749200000000002Q18.25163,21.75,19.667,21.75L28.333,21.75Q29.7484,21.75,30.749200000000002,20.749200000000002Q31.75,19.7484,31.75,18.333L31.75,9.667Q31.75,8.25163,30.749200000000002,7.250816Q29.7484,6.250001,28.333,6.25L19.667,6.25Q18.25163,6.25,17.250816,7.250816Q16.250001,8.25163,16.25,9.667ZM18.31148,19.688499999999998Q17.75,19.127000000000002,17.75,18.333L17.75,9.667Q17.75,8.87295,18.31148,8.31148Q18.87295,7.75,19.667,7.75L28.333,7.75Q29.127000000000002,7.75,29.688499999999998,8.31148Q30.25,8.87295,30.25,9.667L30.25,18.333Q30.25,19.127000000000002,29.688499999999998,19.688499999999998Q29.127000000000002,20.25,28.333,20.25L19.667,20.25Q18.87295,20.25,18.31148,19.688499999999998Z" fill-rule="evenodd" fill="#000000" fill-opacity="1" style="mix-blend-mode:passthrough"/></g><g transform="matrix(-1,0,0,1,42,0)"><path d="M33.8439,4.36332L33.8445,4.3645Q33.893299999999996,4.45214,33.963300000000004,4.52389Q34.0334,4.59565,34.1198,4.64648Q34.2062,4.6973199999999995,34.303,4.72366Q34.399699999999996,4.75,34.5,4.75Q34.5739,4.75,34.6463,4.73559Q34.7188,4.72118,34.787,4.6929099999999995Q34.8553,4.66464,34.9167,4.6236Q34.9781,4.58256,35.0303,4.53033Q35.0826,4.4780999999999995,35.123599999999996,4.4166799999999995Q35.1646,4.3552599999999995,35.1929,4.28701Q35.221199999999996,4.21877,35.2356,4.14632Q35.25,4.07387,35.25,4Q35.25,3.80549,35.1555,3.635497L35.1554,3.635384L35.155,3.634604Q34.3846,2.25,33,2.25L23,2.25Q21.86434,2.25,21.0571699,3.0571699Q20.25,3.86434,20.25,5L20.25,15Q20.253849,16.5972,21.639085,17.387700000000002L21.64025,17.3884L21.640556,17.3886Q21.813234,17.487000000000002,22.012,17.487000000000002Q22.08587,17.487000000000002,22.15832,17.4726Q22.23077,17.458199999999998,22.29901,17.4299Q22.36726,17.401600000000002,22.42868,17.360599999999998Q22.490099999999998,17.3196,22.54233,17.2673Q22.59456,17.2151,22.6356,17.1537Q22.67664,17.0923,22.704909999999998,17.024Q22.73318,16.9558,22.74759,16.8833Q22.762,16.8109,22.762,16.737000000000002Q22.762,16.637700000000002,22.73618,16.5419Q22.71036,16.4461,22.66049,16.3602Q22.61063,16.2744,22.54015,16.2045Q22.46968,16.1346,22.38344,16.0854Q21.751751,15.7253,21.75,15L21.75,5Q21.75,4.48566,22.11783,4.11783Q22.48566,3.75,23,3.75L33,3.75Q33.5018,3.75,33.843199999999996,4.36215L33.8439,4.36332Z" fill-rule="evenodd" fill="#000000" fill-opacity="1" style="mix-blend-mode:passthrough"/></g></g></svg>