<svg xmlns="http://www.w3.org/2000/svg" xmlns:xlink="http://www.w3.org/1999/xlink" fill="none" version="1.1" width="24" height="24" viewBox="0 0 24 24"><defs><clipPath id="master_svg0_5566_09203"><rect x="0" y="0" width="24" height="24" rx="0"/></clipPath></defs><g clip-path="url(#master_svg0_5566_09203)"><g><path d="M3.201903,16.201909Q2.25,17.15381,2.25,18.5Q2.25,19.84619,3.201903,20.798090000000002Q4.15381,21.75,5.5,21.75Q6.84619,21.75,7.79809,20.798090000000002Q8.75,19.84618,8.75,18.5Q8.75,17.15382,7.79809,16.201908Q6.84618,15.25,5.5,15.25Q4.15381,15.25,3.201903,16.201909ZM4.26256,19.73743Q3.75,19.22487,3.75,18.5Q3.75,17.77513,4.26256,17.26257Q4.77513,16.75,5.5,16.75Q6.22486,16.75,6.73743,17.26257Q7.25,17.77514,7.25,18.5Q7.25,19.22486,6.73743,19.73743Q6.22486,20.25,5.5,20.25Q4.77513,20.25,4.26256,19.73743Z" fill-rule="evenodd" fill="#000000" fill-opacity="1" style="mix-blend-mode:passthrough"/></g><g><path d="M16.201908,16.201908Q15.25,17.15382,15.25,18.5Q15.25,19.84618,16.201908,20.798090000000002Q17.15382,21.75,18.5,21.75Q19.84618,21.75,20.798090000000002,20.798090000000002Q21.75,19.84618,21.75,18.5Q21.75,17.15382,20.798090000000002,16.201908Q19.84618,15.25,18.5,15.25Q17.15382,15.25,16.201908,16.201908ZM17.26257,19.73743Q16.75,19.22486,16.75,18.5Q16.75,17.77514,17.26257,17.26257Q17.77514,16.75,18.5,16.75Q19.22486,16.75,19.73743,17.26257Q20.25,17.77514,20.25,18.5Q20.25,19.22486,19.73743,19.73743Q19.22486,20.25,18.5,20.25Q17.77514,20.25,17.26257,19.73743Z" fill-rule="evenodd" fill="#000000" fill-opacity="1" style="mix-blend-mode:passthrough"/></g><g><path d="M17.899500199127196,3.560690926147461Q18.000000199127197,3.386651926147461,18.000000199127197,3.185689926147461Q18.000000199127197,3.111821426147461,17.985600199127198,3.039371926147461Q17.971200199127196,2.966922926147461,17.942900199127198,2.898676926147461Q17.914600199127197,2.830431926147461,17.873600199127196,2.769011926147461Q17.8326001991272,2.707592926147461,17.780300199127197,2.6553599261474607Q17.728100199127198,2.603126926147461,17.6666801991272,2.562087926147461Q17.605260199127198,2.521048926147461,17.537010199127195,2.492779926147461Q17.4687701991272,2.464511926147461,17.396320199127196,2.450100926147461Q17.3238701991272,2.435689926147461,17.250000199127197,2.435689926147461Q17.151260199127197,2.435689926147461,17.055890199127198,2.461245926147461Q16.9605101991272,2.486800926147461,16.875000199127197,2.536170926147461Q16.789490199127197,2.5855399261474608,16.719670199127197,2.6553599261474607Q16.649850199127197,2.725178926147461,16.600480199127198,2.810689926147461L8.100481199127197,17.53308992614746L7.042975199127198,19.32508992614746L7.042782199127197,19.325389926147462Q6.938700199127197,19.50178992614746,6.938700199127197,19.706589926147462Q6.938700199127197,19.78038992614746,6.953111199127197,19.852889926147462Q6.967522199127197,19.92528992614746,6.995790199127197,19.99358992614746Q7.024059199127198,20.061789926147462,7.065098199127197,20.12318992614746Q7.106137199127197,20.18468992614746,7.158370199127197,20.236889926147462Q7.210603199127197,20.28908992614746,7.272022199127197,20.33018992614746Q7.333442199127197,20.371189926147462,7.401687199127197,20.39948992614746Q7.4699331991271976,20.427689926147462,7.542382199127197,20.44208992614746Q7.614831699127198,20.456589926147462,7.688700199127197,20.456589926147462Q7.786531399127197,20.456589926147462,7.881089199127198,20.43148992614746Q7.975647199127197,20.40638992614746,8.060603199127197,20.35788992614746Q8.145559199127197,20.30928992614746,8.215229199127197,20.24068992614746Q8.284898199127197,20.17198992614746,8.334618199127197,20.087689926147462L8.334811199127197,20.087389926147463L9.399520199127197,18.28308992614746L17.899000199127197,3.561551926147461L17.899500199127196,3.560689926147461L17.899500199127196,3.560690926147461Z" fill-rule="evenodd" fill="#000000" fill-opacity="1" style="mix-blend-mode:passthrough"/></g><g><path d="M6.098330941253662,3.462589979171753Q5.997849941253662,3.288551979171753,5.997849941253662,3.087589979171753Q5.997849941253662,3.013721479171753,6.012260941253662,2.941271979171753Q6.026671941253662,2.8688229791717528,6.054939941253662,2.800576979171753Q6.0832089412536625,2.732331979171753,6.124247941253662,2.670911979171753Q6.165286941253662,2.609492979171753,6.217519941253662,2.5572599791717527Q6.269752941253662,2.505026979171753,6.331171941253662,2.463987979171753Q6.392591941253662,2.422948979171753,6.460836941253662,2.394679979171753Q6.529082941253662,2.366411979171753,6.601531941253662,2.352000979171753Q6.673981441253662,2.337589979171753,6.747849941253662,2.337589979171753Q6.846589241253662,2.337589979171753,6.941963941253662,2.363145979171753Q7.037338941253662,2.388700979171753,7.122849941253662,2.438070979171753Q7.2083609412536624,2.4874399791717527,7.278179941253662,2.5572599791717527Q7.347998941253662,2.627078979171753,7.397368941253662,2.712589979171753L15.901739941253663,17.442689979171753L16.967149941253663,19.339189979171753Q17.063249941253662,19.510289979171752,17.063249941253662,19.706589979171753Q17.063249941253662,19.78038997917175,17.048849941253664,19.852889979171753Q17.034449941253662,19.925289979171755,17.00614994125366,19.99358997917175Q16.977849941253663,20.061789979171753,16.936849941253662,20.12318997917175Q16.895849941253662,20.184689979171754,16.843549941253663,20.236889979171753Q16.791349941253664,20.289089979171752,16.729929941253662,20.330189979171752Q16.66850994125366,20.371189979171753,16.60025994125366,20.399489979171754Q16.532009941253662,20.427689979171753,16.459569941253662,20.442089979171755Q16.387119941253662,20.456589979171753,16.313249941253662,20.456589979171753Q16.213389941253663,20.456589979171753,16.11699994125366,20.430389979171753Q16.020619941253663,20.404289979171754,15.934429941253661,20.353889979171754Q15.848239941253663,20.303389979171754,15.778259941253662,20.232189979171753Q15.708269941253661,20.160989979171752,15.659359941253662,20.073889979171753L14.593959941253662,18.177289979171753L6.098330941253662,3.462589979171753L6.098330941253662,3.462589979171753Z" fill-rule="evenodd" fill="#000000" fill-opacity="1" style="mix-blend-mode:passthrough"/></g></g></svg>