<svg xmlns="http://www.w3.org/2000/svg" xmlns:xlink="http://www.w3.org/1999/xlink" fill="none" version="1.1" width="24" height="24" viewBox="0 0 24 24"><defs><clipPath id="master_svg0_5851_02628"><rect x="0" y="0" width="24" height="24" rx="0"/></clipPath></defs><g clip-path="url(#master_svg0_5851_02628)"><g></g><g><path d="M17.9202,3.176433Q15.4497,2.25,12,2.25Q8.55029,2.25,6.0798000000000005,3.176433Q3.249999,4.23761,3.249999,6Q3.25,7.76239,6.0798000000000005,8.82357Q8.55029,9.75,12,9.75Q15.4497,9.75,17.9202,8.82357Q20.75,7.76239,20.75,6Q20.75,4.23761,17.9202,3.176433ZM6.60649,4.58093Q8.822289999999999,3.75,12,3.75Q15.1777,3.75,17.3935,4.58093Q18.3706,4.9473199999999995,18.8738,5.39346Q19.25,5.72703,19.25,6Q19.25,6.27297,18.8738,6.60654Q18.3706,7.05268,17.3935,7.41907Q15.1777,8.25,12,8.25Q8.822289999999999,8.25,6.60649,7.41907Q5.62943,7.05268,5.12623,6.60654Q4.75,6.27297,4.749999,6Q4.749999,5.72703,5.12623,5.39346Q5.62943,4.9473199999999995,6.60649,4.58093Z" fill-rule="evenodd" fill="#000000" fill-opacity="1" style="mix-blend-mode:passthrough"/></g><g><path d="M3.25,6Q3.25,5.9261315,3.264411,5.853682Q3.278822,5.781233,3.30709,5.712987Q3.335359,5.644742,3.376398,5.583322Q3.417437,5.521903,3.46967,5.46967Q3.521903,5.417437,3.583322,5.376398Q3.644742,5.335359,3.712987,5.30709Q3.781233,5.278822,3.853682,5.264411Q3.9261315,5.25,4,5.25Q4.0738685,5.25,4.146318,5.264411Q4.218767,5.278822,4.287013,5.30709Q4.355258,5.335359,4.416678,5.376398Q4.478097,5.417437,4.53033,5.46967Q4.582563,5.521903,4.623602,5.583322Q4.664641,5.644742,4.69291,5.712987Q4.721178,5.781233,4.735589,5.853682Q4.75,5.9261315,4.75,6L4.75,12Q4.75,12.72289,6.60649,13.41907Q8.822289999999999,14.25,12,14.25Q15.1777,14.25,17.3935,13.41907Q19.25,12.72289,19.25,12L19.25,6Q19.25,5.9261315,19.264400000000002,5.853682Q19.2788,5.781233,19.3071,5.712987Q19.3354,5.644742,19.3764,5.583322Q19.4174,5.521903,19.4697,5.46967Q19.521900000000002,5.417437,19.5833,5.376398Q19.6447,5.335359,19.713,5.30709Q19.7812,5.278822,19.8537,5.264411Q19.926099999999998,5.25,20,5.25Q20.0739,5.25,20.1463,5.264411Q20.2188,5.278822,20.287,5.30709Q20.3553,5.335359,20.4167,5.376398Q20.4781,5.417437,20.5303,5.46967Q20.5826,5.521903,20.6236,5.583322Q20.6646,5.644742,20.6929,5.712987Q20.7212,5.781233,20.7356,5.853682Q20.75,5.9261315,20.75,6L20.75,12Q20.75,13.76239,17.9202,14.82357Q15.4497,15.75,12,15.75Q8.55029,15.75,6.0798000000000005,14.82357Q3.25,13.76239,3.25,12L3.25,6Z" fill-rule="evenodd" fill="#000000" fill-opacity="1" style="mix-blend-mode:passthrough"/></g><g><path d="M3.25,12Q3.25,11.9261315,3.264411,11.853682Q3.278822,11.781233,3.30709,11.712987Q3.335359,11.644742,3.376398,11.583322Q3.417437,11.521903,3.46967,11.46967Q3.521903,11.417437,3.583322,11.376398Q3.644742,11.335359,3.712987,11.30709Q3.781233,11.278822,3.853682,11.264410999999999Q3.9261315,11.25,4,11.25Q4.0738685,11.25,4.146318,11.264410999999999Q4.218767,11.278822,4.287013,11.30709Q4.355258,11.335359,4.416678,11.376398Q4.478097,11.417437,4.53033,11.46967Q4.582563,11.521903,4.623602,11.583322Q4.664641,11.644742,4.69291,11.712987Q4.721178,11.781233,4.735589,11.853682Q4.75,11.9261315,4.75,12L4.75,18Q4.75,18.72289,6.60649,19.419069999999998Q8.822289999999999,20.25,12,20.25Q15.1777,20.25,17.3935,19.419069999999998Q19.25,18.72289,19.25,18L19.25,12Q19.25,11.9261315,19.264400000000002,11.853682Q19.2788,11.781233,19.3071,11.712987Q19.3354,11.644742,19.3764,11.583322Q19.4174,11.521903,19.4697,11.46967Q19.521900000000002,11.417437,19.5833,11.376398Q19.6447,11.335359,19.713,11.30709Q19.7812,11.278822,19.8537,11.264410999999999Q19.926099999999998,11.25,20,11.25Q20.0739,11.25,20.1463,11.264410999999999Q20.2188,11.278822,20.287,11.30709Q20.3553,11.335359,20.4167,11.376398Q20.4781,11.417437,20.5303,11.46967Q20.5826,11.521903,20.6236,11.583322Q20.6646,11.644742,20.6929,11.712987Q20.7212,11.781233,20.7356,11.853682Q20.75,11.9261315,20.75,12L20.75,18Q20.75,19.76239,17.9202,20.82357Q15.4497,21.75,12,21.75Q8.55029,21.75,6.0798000000000005,20.82357Q3.25,19.76239,3.25,18L3.25,12Z" fill-rule="evenodd" fill="#000000" fill-opacity="1" style="mix-blend-mode:passthrough"/></g></g></svg>