<svg xmlns="http://www.w3.org/2000/svg" xmlns:xlink="http://www.w3.org/1999/xlink" fill="none" version="1.1" width="24" height="24" viewBox="0 0 24 24"><defs><clipPath id="master_svg0_799_33805"><rect x="-0.75" y="-0.75" width="25.5" height="25.5" rx="0"/></clipPath></defs><g clip-path="url(#master_svg0_799_33805)"><path d="M2.25,7L2.25,19Q2.25,20.151713,3.105277,20.959474999999998Q3.94230437,21.75,5.1176472,21.75L18.882355,21.75Q20.057699,21.75,20.894726,20.959474Q21.75,20.151714,21.75,19L21.75,7Q21.75,5.84828657,20.894726,5.040526807Q20.057697,4.25,18.882354,4.25L5.1176472,4.25Q3.94230515,4.24999994,3.10527688,5.040526569Q2.25,5.84828818,2.25,7ZM5.1176472,20.25Q3.75,20.25,3.75,19L3.75,7Q3.75,5.75,5.1176472,5.75L18.882354,5.75Q20.25,5.75,20.25,7L20.25,19Q20.25,20.25,18.882355,20.25L5.1176472,20.25Z" fill-rule="evenodd" fill="#000000" fill-opacity="1" style="mix-blend-mode:passthrough"/><path d="M15.25014997,3Q15.25014997,2.926146217,15.2645582,2.85371152Q15.27896631,2.78127682,15.30722892,2.71304482Q15.33549154,2.64481282,15.37652254,2.58340567Q15.41755348,2.52199849,15.46977597,2.46977597Q15.52199849,2.41755348,15.58340567,2.37652254Q15.64481282,2.33549154,15.71304482,2.30722892Q15.78127682,2.27896631,15.85371152,2.2645581999999997Q15.926146217,2.25014997,16,2.25014997Q16.073853783,2.25014997,16.14628848,2.2645581999999997Q16.21872318,2.27896631,16.28695518,2.30722892Q16.35518718,2.33549154,16.41659433,2.37652254Q16.47800151,2.41755348,16.53022403,2.46977597Q16.58244652,2.52199849,16.62347746,2.58340567Q16.66450846,2.64481282,16.69277108,2.71304482Q16.72103369,2.78127682,16.7354418,2.85371152Q16.74985003,2.926146217,16.74985003,3L16.75,3L16.75,7L16.74985003,7Q16.74985003,7.0738535,16.7354418,7.1462884Q16.72103369,7.2187233,16.69277108,7.2869549Q16.66450846,7.3551869,16.62347746,7.416594Q16.58244652,7.4780016,16.53022403,7.5302238Q16.47800151,7.5824461,16.41659433,7.623477Q16.35518718,7.6645079,16.28695518,7.692771Q16.21872318,7.7210336,16.14628848,7.7354422Q16.073853783,7.7498503,16,7.7498503Q15.926146217,7.7498503,15.85371152,7.7354417Q15.78127682,7.7210336,15.71304482,7.692771Q15.64481282,7.6645079,15.58340567,7.623477Q15.52199849,7.5824461,15.46977597,7.5302238Q15.41755348,7.4780016,15.37652254,7.416594Q15.33549154,7.3551869,15.30722892,7.2869549Q15.27896631,7.2187233,15.2645582,7.1462884Q15.25014997,7.0738535,15.25014997,7L15.25,7L15.25,3L15.25014997,3Z" fill-rule="evenodd" fill="#000000" fill-opacity="1" style="mix-blend-mode:passthrough"/><path d="M7.25014997,3Q7.25014997,2.926146217,7.2645582,2.85371152Q7.27896631,2.78127682,7.30722892,2.71304482Q7.33549154,2.64481282,7.37652254,2.58340567Q7.4175534800000005,2.52199849,7.46977597,2.46977597Q7.52199849,2.41755348,7.58340567,2.37652254Q7.64481282,2.33549154,7.71304482,2.30722892Q7.78127682,2.27896631,7.85371152,2.2645581999999997Q7.926146217,2.25014997,8,2.25014997Q8.073853783,2.25014997,8.14628848,2.2645581999999997Q8.21872318,2.27896631,8.28695518,2.30722892Q8.35518718,2.33549154,8.41659433,2.37652254Q8.47800151,2.41755348,8.53022403,2.46977597Q8.58244652,2.52199849,8.62347746,2.58340567Q8.66450846,2.64481282,8.69277108,2.71304482Q8.72103369,2.78127682,8.7354418,2.85371152Q8.74985003,2.926146217,8.74985003,3L8.75,3L8.75,7L8.74985003,7Q8.74985003,7.0738535,8.7354418,7.1462884Q8.72103369,7.2187233,8.69277108,7.2869549Q8.66450846,7.3551869,8.62347746,7.416594Q8.58244652,7.4780016,8.53022403,7.5302238Q8.47800151,7.5824461,8.41659433,7.623477Q8.35518718,7.6645079,8.28695518,7.692771Q8.21872318,7.7210336,8.14628848,7.7354422Q8.073853783,7.7498503,8,7.7498503Q7.926146217,7.7498503,7.85371152,7.7354417Q7.78127682,7.7210336,7.71304482,7.692771Q7.64481282,7.6645079,7.58340567,7.623477Q7.52199849,7.5824461,7.46977597,7.5302238Q7.4175534800000005,7.4780016,7.37652254,7.416594Q7.33549154,7.3551869,7.30722892,7.2869549Q7.27896631,7.2187233,7.2645582,7.1462884Q7.25014997,7.0738535,7.25014997,7L7.25,7L7.25,3L7.25014997,3Z" fill-rule="evenodd" fill="#000000" fill-opacity="1" style="mix-blend-mode:passthrough"/><path d="M3,11.75L21,11.75L21,11.74985003Q21.073853,11.74985003,21.146288,11.7354418Q21.218721,11.72103369,21.286953,11.69277108Q21.355185,11.66450846,21.416592,11.62347746Q21.477999,11.58244652,21.530222,11.53022403Q21.582443,11.47800151,21.623474,11.41659433Q21.664505,11.35518718,21.692768,11.28695518Q21.721031,11.21872318,21.735439,11.14628848Q21.749847,11.073853783,21.749849,11Q21.749847,10.926146217,21.735439,10.85371152Q21.721031,10.78127682,21.692768,10.71304482Q21.664505,10.64481282,21.623474,10.58340567Q21.582443,10.52199849,21.530222,10.46977597Q21.477999,10.41755348,21.416592,10.37652254Q21.355185,10.33549154,21.286953,10.30722892Q21.218721,10.27896631,21.146286,10.2645582Q21.073853,10.25014997,21,10.25014997L21,10.25L3,10.25L3,10.25014997Q2.926146217,10.25014997,2.85371152,10.2645582Q2.78127682,10.27896631,2.71304482,10.30722892Q2.64481282,10.33549154,2.58340567,10.37652254Q2.52199849,10.41755348,2.46977597,10.46977597Q2.41755348,10.52199849,2.37652254,10.58340567Q2.33549154,10.64481282,2.30722892,10.71304482Q2.27896631,10.78127682,2.2645581999999997,10.85371152Q2.25014997,10.926146217,2.25014997,11Q2.25014997,11.073853783,2.2645581999999997,11.14628848Q2.27896631,11.21872318,2.30722892,11.28695518Q2.33549154,11.35518718,2.37652254,11.41659433Q2.41755348,11.47800151,2.46977597,11.53022403Q2.52199849,11.58244652,2.58340567,11.62347746Q2.64481282,11.66450846,2.71304482,11.69277108Q2.78127682,11.72103369,2.85371152,11.7354418Q2.926146217,11.74985003,3,11.74985003L3,11.75Z" fill-rule="evenodd" fill="#000000" fill-opacity="1" style="mix-blend-mode:passthrough"/><ellipse cx="16.02001953125" cy="14.0048828125" rx="0.875" ry="0.875" fill="#000000" fill-opacity="1"/><ellipse cx="13.010009765625" cy="14.0048828125" rx="0.875" ry="0.875" fill="#000000" fill-opacity="1"/><ellipse cx="13.010009765625" cy="17" rx="0.875" ry="0.875" fill="#000000" fill-opacity="1"/><ellipse cx="10.0179443359375" cy="14.0048828125" rx="0.875" ry="0.875" fill="#000000" fill-opacity="1"/><ellipse cx="10.0179443359375" cy="17" rx="0.875" ry="0.875" fill="#000000" fill-opacity="1"/><ellipse cx="7" cy="14.0048828125" rx="0.875" ry="0.875" fill="#000000" fill-opacity="1"/><ellipse cx="7" cy="17" rx="0.875" ry="0.875" fill="#000000" fill-opacity="1"/></g></svg>