<svg xmlns="http://www.w3.org/2000/svg" xmlns:xlink="http://www.w3.org/1999/xlink" fill="none" version="1.1" width="24" height="24" viewBox="0 0 24 24"><defs><clipPath id="master_svg0_5518_08963"><rect x="0" y="0" width="24" height="24" rx="0"/></clipPath><clipPath id="master_svg1_5518_08965"><rect x="3" y="3" width="18" height="18" rx="0"/></clipPath></defs><g clip-path="url(#master_svg0_5518_08963)"><g clip-path="url(#master_svg1_5518_08965)"><g><g><g><path d="M21,13.500057437705994L21,12.000007437705994L18.6765,12.000007437705994C18.5138,10.689007437705992,18.069000000000003,9.458257437705994,17.4,8.412007437705993L19.0605,6.749257437705994L17.999200000000002,5.689507437705993L16.4587,7.232257437705994C16.1887,6.953257437705993,15.9,6.699007437705994,15.5902,6.471757437705993C15.4837,6.101257437705994,15.3195,5.760757437705994,15.1132,5.448007437705994L16.281,4.280257437705994L15.2205,3.2197574377059937L14.0572,4.383007437705993C13.461,3.9877574377059934,12.756,3.7500074377059938,12,3.7500074377059938C11.244,3.7500074377059938,10.539,3.9877574377059934,9.9435,4.383007437705993L8.780249999999999,3.2197577282789935L7.71975,4.280257437705994L8.8875,5.448007437705994C8.68125,5.760007437705994,8.517,6.100507437705994,8.410499999999999,6.470257437705994C8.10075,6.697507437705994,7.812,6.953257437705993,7.54125,7.232257437705994L6.00075,5.689507437705993L4.9395,6.749257437705994L6.6,8.411257437705993C5.931,9.457507437705994,5.48625,10.689007437705992,5.3235,12.000007437705994L3,12.000007437705994L3,13.500057437705994L5.266500000000001,13.500057437705994C5.3325,15.122957437705994,5.8185,16.615557437705995,6.6045,17.836457437705995L4.9395,19.499257437705992L5.99925,20.560557437705995L7.5405,19.021557437705994C8.5545,20.066257437705993,9.83625,20.761557437705992,11.25,20.946057437705992L11.25,9.750007437705992L12.75,9.750007437705992L12.75,20.946057437705992C14.1637,20.760757437705994,15.4455,20.066257437705993,16.4595,19.021557437705994L18.000700000000002,20.560557437705995L19.0605,19.499257437705992L17.3955,17.83655743770599C18.1815,16.614757437705993,18.6675,15.122257437705994,18.7335,13.500057437705994L21,13.500057437705994Z" fill="#7B61FF" fill-opacity="1"/></g></g></g></g></g></svg>