<svg xmlns="http://www.w3.org/2000/svg" xmlns:xlink="http://www.w3.org/1999/xlink" fill="none" version="1.1" width="24" height="24" viewBox="0 0 24 24"><defs><clipPath id="master_svg0_5799_08823"><rect x="0" y="0" width="24" height="24" rx="0"/></clipPath></defs><g clip-path="url(#master_svg0_5799_08823)"><g></g><g><path d="M11.999999523162842,3.5C14.131399523162841,3.499999284744,15.888399523162843,5.17126,15.994999523162841,7.3L15.999999523162842,7.5C16.14799952316284,7.49993,16.294199523162842,7.53272,16.427999523162843,7.596L19.46099952316284,5.6579999999999995C19.926599523162842,5.3448,20.558799523162843,5.4759899999999995,20.86129952316284,5.94862C21.163899523162844,6.421250000000001,21.01839952316284,7.05026,20.538999523162843,7.3420000000000005L17.523999523162843,9.273C17.800299523162842,9.98523,17.96099952316284,10.73705,17.999999523162842,11.5L20.999999523162842,11.5C21.55229952316284,11.5,21.999999523162842,11.94771,21.999999523162842,12.5C21.999999523162842,13.05229,21.55229952316284,13.5,20.999999523162842,13.5L17.999999523162842,13.5L17.999999523162842,14.5C18.00059952316284,15.0146,17.934999523162844,15.5271,17.80499952316284,16.025L20.512999523162843,17.641C20.98799952316284,17.9241,21.143299523162842,18.5387,20.85979952316284,19.0135C20.57629952316284,19.4882,19.961499523162843,19.6429,19.48699952316284,19.359L16.97299952316284,17.858C16.054499523162843,19.2188,14.618699523162842,20.144,12.999999523162842,20.418L12.999999523162842,14.5C12.999999523162842,13.9477,12.552299523162842,13.5,11.999999523162842,13.5C11.447719523162842,13.5,10.999999523162842,13.9477,10.999999523162842,14.5L10.999999523162842,20.417C9.381279523162842,20.143,7.945469523162842,19.2178,7.026999523162842,17.857L4.512999523162842,19.36C4.038589523162842,19.6433,3.4243195231628416,19.4884,3.140999523162842,19.014C2.8576775231628417,18.5396,3.012589523162842,17.9253,3.486999523162842,17.642L6.194999523162842,16.026C6.0648995231628415,15.5278,5.999359523162841,15.0149,5.999999523162842,14.5L5.999999523162842,13.5L2.999999523162842,13.5C2.447714523162842,13.5,1.9999995231628418,13.05229,1.9999995231628418,12.5C1.9999995231628418,11.94772,2.447714523162842,11.5,2.999999523162842,11.5L6.000999523162842,11.5L6.000999523162842,11.445C6.042179523162842,10.700040000000001,6.202199523162842,9.96644,6.474999523162841,9.272L3.460999523162842,7.3420000000000005C2.981629523162842,7.05026,2.8361225231628415,6.421250000000001,3.138669523162842,5.94863C3.4412195231628417,5.476,4.073359523162842,5.34481,4.5389995231628415,5.6579999999999995L7.5709995231628415,7.597L7.5949995231628415,7.585L7.662999523162842,7.558L7.681999523162842,7.553L7.697999523162842,7.547L7.729999523162842,7.539L7.769999523162841,7.526L7.803999523162842,7.519L7.837999523162842,7.515L7.882999523162842,7.507L7.8979995231628415,7.506L7.912999523162842,7.504L7.999999523162842,7.5C7.999999523162842,5.29086,9.790859523162842,3.499999523163,11.999999523162842,3.5ZM11.999999523162842,5.5C10.895429523162841,5.5,9.999999523162842,6.39543,9.999999523162842,7.5L13.999999523162842,7.5C13.999999523162842,6.39543,13.104599523162841,5.5,11.999999523162842,5.5Z" fill="#000000" fill-opacity="1" style="mix-blend-mode:passthrough"/></g></g></svg>