<svg xmlns="http://www.w3.org/2000/svg" xmlns:xlink="http://www.w3.org/1999/xlink" fill="none" version="1.1" width="24" height="24" viewBox="0 0 24 24"><defs><clipPath id="master_svg0_5799_08810"><rect x="0" y="0" width="24" height="24" rx="0"/></clipPath></defs><g clip-path="url(#master_svg0_5799_08810)"><g><g><path d="M14.25,7.5L14.25,8.5Q14.25,8.57387,14.26441,8.64632Q14.27882,8.71877,14.307089999999999,8.78701Q14.33536,8.855260000000001,14.3764,8.91668Q14.41744,8.978100000000001,14.46967,9.03033Q14.521899999999999,9.08256,14.58332,9.1236Q14.644739999999999,9.16464,14.71299,9.192910000000001Q14.78123,9.22118,14.85368,9.23559Q14.92613,9.25,15,9.25Q15.07387,9.25,15.14632,9.23559Q15.21877,9.22118,15.28701,9.192910000000001Q15.355260000000001,9.16464,15.41668,9.1236Q15.478100000000001,9.08256,15.53033,9.03033Q15.58256,8.978100000000001,15.6236,8.91668Q15.66464,8.855260000000001,15.692910000000001,8.78701Q15.72118,8.71877,15.73559,8.64632Q15.75,8.57387,15.75,8.5L15.75,7.5Q15.75,5.9467,14.65165,4.848349Q13.5533,3.75,12,3.75Q10.4467,3.75,9.348349,4.848349Q8.25,5.9467,8.25,7.5L8.25,8.5Q8.25,8.57387,8.264410999999999,8.64632Q8.278822,8.71877,8.30709,8.78701Q8.335359,8.855260000000001,8.376398,8.91668Q8.417437,8.978100000000001,8.46967,9.03033Q8.521903,9.08256,8.583322,9.1236Q8.644742,9.16464,8.712987,9.192910000000001Q8.781233,9.22118,8.853682,9.23559Q8.9261315,9.25,9,9.25Q9.0738685,9.25,9.146318,9.23559Q9.218767,9.22118,9.287013,9.192910000000001Q9.355258,9.16464,9.416678,9.1236Q9.478097,9.08256,9.53033,9.03033Q9.582563,8.978100000000001,9.623602,8.91668Q9.664641,8.855260000000001,9.69291,8.78701Q9.721178,8.71877,9.735589000000001,8.64632Q9.75,8.57387,9.75,8.5L9.75,7.5Q9.75,6.568020000000001,10.40901,5.90901Q11.06802,5.25,12,5.25Q12.93198,5.25,13.59099,5.90901Q14.25,6.568020000000001,14.25,7.5Z" fill-rule="evenodd" fill="#000000" fill-opacity="1" style="mix-blend-mode:passthrough"/></g><g><path d="M7.376138,8.083712Q6.352647,9.61755,6.251137,11.45871Q6.25,11.47934,6.25,11.5L6.25,14.5Q6.25,16.881729999999997,7.934136,18.5659Q9.618269999999999,20.25,12,20.25Q14.381730000000001,20.25,16.06586,18.5659Q17.75,16.881729999999997,17.75,14.5L17.75,11.5Q17.75,11.47934,17.7489,11.45871Q17.647399999999998,9.61755,16.62386,8.083712Q16.57248,8.006716,16.50393,7.944523Q16.43537,7.882329,16.353749999999998,7.838669Q16.27213,7.7950099999999996,16.18235,7.772505Q16.09256,7.75,16,7.75L8,7.75Q7.907437,7.75,7.817651,7.772505Q7.7278649999999995,7.7950099999999996,7.646246,7.8386700000000005Q7.564626,7.882329,7.49607,7.944523Q7.427515,8.006717,7.376138,8.083712ZM7.75,11.5213L7.75,14.5Q7.75,16.26041,8.9948,17.505200000000002Q10.23959,18.75,12,18.75Q13.76041,18.75,15.0052,17.505200000000002Q16.25,16.26041,16.25,14.5L16.25,11.5213Q16.17821,10.29827,15.58213,9.25L8.41787,9.25Q7.821789,10.29827,7.75,11.5213Z" fill-rule="evenodd" fill="#000000" fill-opacity="1" style="mix-blend-mode:passthrough"/></g><g><path d="M3,11.75L7,11.75Q7.07387,11.75,7.14632,11.764410999999999Q7.21877,11.778822,7.28701,11.80709Q7.35526,11.835359,7.41668,11.876398Q7.4781,11.917437,7.53033,11.96967Q7.58256,12.021903,7.6236,12.083322Q7.66464,12.144742,7.69291,12.212987Q7.72118,12.281233,7.73559,12.353682Q7.75,12.4261315,7.75,12.5Q7.75,12.5738685,7.73559,12.646318Q7.72118,12.718767,7.69291,12.787013Q7.66464,12.855258,7.6236,12.916678Q7.58256,12.978097,7.53033,13.03033Q7.4781,13.082563,7.41668,13.123602Q7.35526,13.164641,7.28701,13.19291Q7.21877,13.221178,7.14632,13.235589000000001Q7.07387,13.25,7,13.25L3,13.25Q2.9261315,13.25,2.853682,13.235589000000001Q2.781233,13.221178,2.712987,13.19291Q2.644742,13.164641,2.583322,13.123602Q2.521903,13.082563,2.46967,13.03033Q2.417437,12.978097,2.376398,12.916678Q2.335359,12.855258,2.30709,12.787013Q2.278822,12.718767,2.264411,12.646318Q2.25,12.5738685,2.25,12.5Q2.25,12.4261315,2.264411,12.353682Q2.278822,12.281233,2.30709,12.212987Q2.335359,12.144742,2.376398,12.083322Q2.417437,12.021903,2.46967,11.96967Q2.521903,11.917437,2.583322,11.876398Q2.644742,11.835359,2.712987,11.80709Q2.781233,11.778822,2.853682,11.764410999999999Q2.9261315,11.75,3,11.75Z" fill-rule="evenodd" fill="#000000" fill-opacity="1" style="mix-blend-mode:passthrough"/></g><g><path d="M17,11.75L21,11.75Q21.07387,11.75,21.14632,11.764410999999999Q21.21877,11.778822,21.287010000000002,11.80709Q21.35526,11.835359,21.41668,11.876398Q21.4781,11.917437,21.53033,11.96967Q21.58256,12.021903,21.6236,12.083322Q21.66464,12.144742,21.69291,12.212987Q21.72118,12.281233,21.735590000000002,12.353682Q21.75,12.4261315,21.75,12.5Q21.75,12.5738685,21.735590000000002,12.646318Q21.72118,12.718767,21.69291,12.787013Q21.66464,12.855258,21.6236,12.916678Q21.58256,12.978097,21.53033,13.03033Q21.4781,13.082563,21.41668,13.123602Q21.35526,13.164641,21.287010000000002,13.19291Q21.21877,13.221178,21.14632,13.235589000000001Q21.07387,13.25,21,13.25L17,13.25Q16.9261315,13.25,16.853682,13.235589000000001Q16.781233,13.221178,16.712987,13.19291Q16.644742,13.164641,16.583322,13.123602Q16.521903000000002,13.082563,16.46967,13.03033Q16.417437,12.978097,16.376398000000002,12.916678Q16.335359,12.855258,16.30709,12.787013Q16.278822,12.718767,16.264411,12.646318Q16.25,12.5738685,16.25,12.5Q16.25,12.4261315,16.264411,12.353682Q16.278822,12.281233,16.30709,12.212987Q16.335359,12.144742,16.376398000000002,12.083322Q16.417437,12.021903,16.46967,11.96967Q16.521903000000002,11.917437,16.583322,11.876398Q16.644742,11.835359,16.712987,11.80709Q16.781233,11.778822,16.853682,11.764410999999999Q16.9261315,11.75,17,11.75Z" fill-rule="evenodd" fill="#000000" fill-opacity="1" style="mix-blend-mode:passthrough"/></g><g><path d="M11.25,13.5Q11.25,13.4261315,11.264410999999999,13.353682Q11.278822,13.281233,11.30709,13.212987Q11.335359,13.144742,11.376398,13.083322Q11.417437,13.021903,11.46967,12.96967Q11.521903,12.917437,11.583322,12.876398Q11.644742,12.835359,11.712987,12.80709Q11.781233,12.778822,11.853682,12.764410999999999Q11.9261315,12.75,12,12.75Q12.0738685,12.75,12.146318,12.764410999999999Q12.218767,12.778822,12.287013,12.80709Q12.355258,12.835359,12.416678,12.876398Q12.478097,12.917437,12.53033,12.96967Q12.582563,13.021903,12.623602,13.083322Q12.664641,13.144742,12.69291,13.212987Q12.721178,13.281233,12.735589000000001,13.353682Q12.75,13.4261315,12.75,13.5L12.75,19.5Q12.75,19.57387,12.735589000000001,19.64632Q12.721178,19.71877,12.69291,19.787010000000002Q12.664641,19.85526,12.623602,19.91668Q12.582563,19.9781,12.53033,20.03033Q12.478097,20.08256,12.416678,20.1236Q12.355258,20.16464,12.287013,20.19291Q12.218767,20.22118,12.146318,20.235590000000002Q12.0738685,20.25,12,20.25Q11.9261315,20.25,11.853682,20.235590000000002Q11.781233,20.22118,11.712987,20.19291Q11.644742,20.16464,11.583322,20.1236Q11.521903,20.08256,11.46967,20.03033Q11.417437,19.9781,11.376398,19.91668Q11.335359,19.85526,11.30709,19.787010000000002Q11.278822,19.71877,11.264410999999999,19.64632Q11.25,19.57387,11.25,19.5L11.25,13.5Z" fill-rule="evenodd" fill="#000000" fill-opacity="1" style="mix-blend-mode:passthrough"/></g><g><path d="M7.73446,17.143966Q7.81804,17.094066,7.88611,17.024482Q7.9541900000000005,16.954898,8.00224,16.870241Q8.0503,16.785584,8.07515,16.691465Q8.1,16.5973451,8.1,16.5Q8.1,16.4261315,8.08559,16.353682Q8.07118,16.281233,8.04291,16.212987Q8.01464,16.144742,7.973599999999999,16.083322Q7.9325600000000005,16.021903000000002,7.88033,15.96967Q7.8281,15.917437,7.76668,15.876398Q7.70526,15.835359,7.63701,15.80709Q7.568770000000001,15.778822,7.49632,15.764410999999999Q7.42387,15.75,7.35,15.75Q7.14315,15.75,6.96554,15.856034L6.9653,15.856178L3.6157,17.85594L3.615543,17.85603Q3.5319599999999998,17.90593,3.463886,17.97552Q3.395811,18.0451,3.347757,18.12976Q3.299702,18.21442,3.274851,18.30854Q3.25,18.40265,3.25,18.5Q3.25,18.57387,3.264411,18.64632Q3.278822,18.71877,3.30709,18.78701Q3.335359,18.85526,3.376398,18.91668Q3.417437,18.9781,3.46967,19.03033Q3.521903,19.08256,3.583322,19.1236Q3.644742,19.16464,3.712987,19.19291Q3.781233,19.22118,3.853682,19.235590000000002Q3.9261315,19.25,4,19.25Q4.206851,19.25,4.384457,19.14397L4.384615,19.14387L7.7342200000000005,17.144111L7.73446,17.143966L7.73446,17.143966Z" fill-rule="evenodd" fill="#000000" fill-opacity="1" style="mix-blend-mode:passthrough"/></g><g><path d="M17.034456618530275,15.856034L20.384219618530274,17.85589L20.384459618530272,17.85603Q20.468039618530273,17.90593,20.536109618530272,17.97552Q20.604189618530274,18.0451,20.652239618530274,18.12976Q20.700299618530273,18.21442,20.725149618530274,18.30854Q20.749999618530275,18.40265,20.749999618530275,18.5Q20.749999618530275,18.57387,20.735589618530273,18.64632Q20.72117961853027,18.71877,20.692909618530273,18.78701Q20.664639618530273,18.85526,20.623599618530275,18.91668Q20.582559618530272,18.9781,20.530329618530274,19.03033Q20.478099618530273,19.08256,20.416679618530274,19.1236Q20.355259618530273,19.16464,20.287009618530274,19.19291Q20.218769618530274,19.22118,20.146319618530274,19.235590000000002Q20.073869618530274,19.25,19.999999618530275,19.25Q19.793149618530272,19.25,19.615539618530274,19.14397L19.615299618530273,19.143819999999998L16.265542618530272,17.143966Q16.181959618530275,17.094066,16.113885618530272,17.024482Q16.045810618530272,16.954898,15.997756618530273,16.870241Q15.949701618530273,16.785584,15.924850618530273,16.691465Q15.899999618530273,16.597345,15.899999618530273,16.5Q15.899999618530273,16.4261315,15.914410618530273,16.353682Q15.928821618530273,16.281233,15.957089618530274,16.212987Q15.985358618530274,16.144742,16.026397618530275,16.083322Q16.067436618530273,16.021903000000002,16.119669618530274,15.96967Q16.171902618530275,15.917437,16.233321618530272,15.876398Q16.294741618530274,15.835359,16.36298661853027,15.80709Q16.431232618530274,15.778822,16.503681618530273,15.764410999999999Q16.576131118530274,15.75,16.649999618530273,15.75Q16.856850618530274,15.75,17.034456618530275,15.856034Z" fill-rule="evenodd" fill="#000000" fill-opacity="1" style="mix-blend-mode:passthrough"/></g><g><path d="M4.40429,5.868296L8.15429,8.2683Q8.233789999999999,8.31917,8.2982,8.38816Q8.36261,8.45715,8.40792,8.53994Q8.45323,8.62274,8.47661,8.714179999999999Q8.5,8.80562,8.5,8.9Q8.5,8.97387,8.48559,9.04632Q8.47118,9.11877,8.442910000000001,9.18701Q8.41464,9.25526,8.3736,9.31668Q8.33256,9.3781,8.28033,9.43033Q8.228100000000001,9.48256,8.16668,9.5236Q8.105260000000001,9.56464,8.03701,9.59291Q7.96877,9.621179999999999,7.896319999999999,9.63559Q7.823869999999999,9.65,7.75,9.65Q7.53055,9.65,7.34571,9.5317L7.34527,9.53142L3.59571,7.131704Q3.516214,7.080826,3.451802,7.011839Q3.387391,6.942852,3.34208,6.860057Q3.296769,6.777262,3.273385,6.685822Q3.25,6.5943826,3.25,6.5Q3.25,6.4261315,3.264411,6.353682Q3.278822,6.281233,3.30709,6.212987Q3.335359,6.144742,3.376398,6.083322Q3.417437,6.021903,3.46967,5.96967Q3.521903,5.917437,3.583322,5.876398Q3.644742,5.835359,3.712987,5.80709Q3.781233,5.778822,3.853682,5.764411Q3.9261315,5.75,4,5.75Q4.219452,5.75,4.40429,5.868296Z" fill-rule="evenodd" fill="#000000" fill-opacity="1" style="mix-blend-mode:passthrough"/></g><g><path d="M20.40429,7.131704Q20.48379,7.080826,20.5482,7.011839Q20.61261,6.942852,20.65792,6.860057Q20.703229999999998,6.777262,20.72661,6.685822Q20.75,6.5943826,20.75,6.5Q20.75,6.4261315,20.735590000000002,6.353682Q20.72118,6.281233,20.69291,6.212987Q20.66464,6.144742,20.6236,6.083322Q20.58256,6.021903,20.53033,5.96967Q20.4781,5.917437,20.41668,5.876398Q20.35526,5.835359,20.287010000000002,5.80709Q20.21877,5.778822,20.14632,5.764411Q20.07387,5.75,20,5.75Q19.780549999999998,5.75,19.59571,5.868296L15.84571,8.2683Q15.766214,8.31917,15.701802,8.38816Q15.637391000000001,8.45715,15.59208,8.53994Q15.546769,8.62274,15.523385,8.714179999999999Q15.5,8.80562,15.5,8.9Q15.5,8.97387,15.514410999999999,9.04632Q15.528822,9.11877,15.55709,9.18701Q15.585359,9.25526,15.626398,9.31668Q15.667437,9.3781,15.71967,9.43033Q15.771903,9.48256,15.833322,9.5236Q15.894742,9.56464,15.962987,9.59291Q16.031233,9.621179999999999,16.103682,9.63559Q16.1761315,9.65,16.25,9.65Q16.469452,9.65,16.65429,9.5317L16.654713,9.53143L20.40429,7.131704Z" fill-rule="evenodd" fill="#000000" fill-opacity="1" style="mix-blend-mode:passthrough"/></g></g></g></svg>