<svg xmlns="http://www.w3.org/2000/svg" xmlns:xlink="http://www.w3.org/1999/xlink" fill="none" version="1.1" width="24" height="24" viewBox="0 0 24 24"><defs><clipPath id="master_svg0_5478_07933"><rect x="0" y="0" width="24" height="24" rx="0"/></clipPath></defs><g clip-path="url(#master_svg0_5478_07933)"><g transform="matrix(-0.038400229066610336,0.9992624521255493,-0.9992624521255493,-0.038400229066610336,24.142680132720006,-3.3095325897731627)"><line x1="13.663737297058105" y1="9.211599349975586" x2="20.668903827667236" y2="9.211599349975586" fill-opacity="0" stroke-opacity="1" stroke="#000000" fill="none" stroke-width="1.5" stroke-linecap="ROUND" stroke-linejoin="round"/></g><g transform="matrix(-0.038400229066610336,-0.9992624521255493,0.9992624521255493,-0.038400229066610336,-5.93658208292473,28.21036951769444)"><line x1="10.605262756347656" y1="16.211599349975586" x2="17.610429286956787" y2="16.211599349975586" fill-opacity="0" stroke-opacity="1" stroke="#000000" fill="none" stroke-width="1.5" stroke-linecap="ROUND" stroke-linejoin="round"/></g><g><path d="M5.5198068359680175,5.732693161853027L6.587789835968017,19.615499961853025Q6.632779835968018,20.201299961853028,7.064179835968018,20.600599961853028Q7.495759835968018,20.999999961853028,8.083999835968017,20.999999961853028L15.915999835968018,20.999999961853028Q16.504199835968016,20.999999961853028,16.93579983596802,20.600599961853028Q17.367199835968016,20.201299961853028,17.412199835968018,19.61559996185303L18.480199835968016,5.733469261853028Q18.485599835968017,5.663439961853028,18.503899835968017,5.595628961853027Q18.522199835968017,5.527817961853027,18.552799835968017,5.464581961853027Q18.583299835968017,5.401346961853028,18.625099835968015,5.344886961853027Q18.666899835968017,5.288426961853027,18.718399835968018,5.2407049618530275Q18.769999835968015,5.192983961853027,18.82939983596802,5.155659961853027Q18.88889983596802,5.118336961853028,18.954299835968015,5.0927089618530275Q19.01969983596802,5.067080961853027,19.088799835968018,5.054039961853027Q19.157799835968017,5.040999961853028,19.227999835968017,5.040999961853028Q19.301899835968015,5.040999961853028,19.374299835968017,5.055410961853028Q19.446799835968015,5.069821961853028,19.51499983596802,5.098089961853027Q19.583299835968017,5.126358961853027,19.64469983596802,5.167397961853028Q19.70609983596802,5.208436961853027,19.758299835968018,5.2606699618530275Q19.81059983596802,5.312902961853028,19.851599835968017,5.374321961853028Q19.892599835968017,5.435741961853028,19.920899835968015,5.503986961853028Q19.949199835968017,5.572232961853027,19.96359983596802,5.644681961853028Q19.977999835968017,5.717131361853028,19.977999835968017,5.790999889853027Q19.977999835968017,5.8198076618530274,19.97579983596802,5.848530561853027L18.907799835968017,19.730399961853028Q18.817799835968017,20.902599961853028,17.954699835968018,21.701399961853028Q17.09179983596802,22.499999961853028,15.915999835968018,22.499999961853028L8.083999835968017,22.499999961853028Q6.908149835968018,22.499999961853028,6.045319835968018,21.701399961853028Q5.182216835968018,20.902599961853028,5.092208835968018,19.730499961853027L4.024225835968018,5.847746161853028L4.024208835968017,5.847526461853027Q4.021999835968018,5.818805661853028,4.021999835968018,5.789999961853027Q4.021999835968018,5.716131461853028,4.0364108359680175,5.643681961853027Q4.0508218359680175,5.571232961853028,4.079089835968017,5.502986961853027Q4.107358835968018,5.434741961853027,4.148397835968018,5.373321961853027Q4.189436835968017,5.311902961853027,4.241669835968017,5.259669961853027Q4.293902835968018,5.207436961853027,4.3553218359680175,5.166397961853027Q4.4167418359680175,5.125358961853028,4.484986835968018,5.097089961853027Q4.553232835968018,5.068821961853027,4.625681835968018,5.054410961853027Q4.698131335968018,5.039999961853027,4.771999835968018,5.039999961853027Q4.842236235968017,5.039999961853027,4.9112518359680175,5.053040961853028Q4.980266835968018,5.066080961853027,5.045660835968017,5.091708961853027Q5.1110538359680175,5.117336961853027,5.170552835968017,5.154660961853027Q5.230051835968018,5.191984961853027,5.281585835968017,5.239706961853027Q5.333119835968017,5.287428961853028,5.374897835968017,5.343888961853027Q5.416674835968018,5.400349961853028,5.447242835968018,5.463584961853027Q5.4778118359680175,5.526820961853027,5.496106835968018,5.594631961853027Q5.514402835968018,5.662443961853027,5.519790835968018,5.7324734618530275L5.5198068359680175,5.732693161853027Z" fill-rule="evenodd" fill="#000000" fill-opacity="1"/></g><g><path d="M7.5,4.477000137329101L7.5,5.393000137329102Q7.5,5.466870137329101,7.514411,5.539320137329101Q7.528822,5.611770137329101,7.55709,5.680010137329102Q7.585359,5.748260137329101,7.626398,5.809680137329101Q7.667437,5.871100137329101,7.71967,5.923330137329101Q7.771903,5.975560137329102,7.833322,6.016600137329101Q7.894742,6.057640137329102,7.962987,6.085910137329101Q8.031233,6.114180137329102,8.103682,6.128590137329102Q8.1761315,6.143000137329102,8.25,6.143000137329102Q8.3238685,6.143000137329102,8.396318,6.128590137329102Q8.468767,6.114180137329102,8.537013,6.085910137329101Q8.605258,6.057640137329102,8.666678,6.016600137329101Q8.728097,5.975560137329102,8.78033,5.923330137329101Q8.832563,5.871100137329101,8.873602,5.809680137329101Q8.914641,5.748260137329101,8.94291,5.680010137329102Q8.971178,5.611770137329101,8.985589000000001,5.539320137329101Q9,5.466870137329101,9,5.393000137329102L9,4.477000137329101Q9,3.8856401373291014,9.398530000000001,3.4624001373291016Q9.79296,3.0435211373291016,10.36351,3.0256321373291017Q12,2.9738441373291016,13.63628,3.0256251373291017Q14.20728,3.0435291373291014,14.60155,3.462110137329102Q15,3.8851301373291016,15,4.477000137329101L15,5.393000137329102Q15,5.466870137329101,15.01441,5.539320137329101Q15.02882,5.611770137329101,15.057089999999999,5.680010137329102Q15.08536,5.748260137329101,15.1264,5.809680137329101Q15.16744,5.871100137329101,15.21967,5.923330137329101Q15.271899999999999,5.975560137329102,15.33332,6.016600137329101Q15.394739999999999,6.057640137329102,15.46299,6.085910137329101Q15.53123,6.114180137329102,15.60368,6.128590137329102Q15.67613,6.143000137329102,15.75,6.143000137329102Q15.82387,6.143000137329102,15.89632,6.128590137329102Q15.96877,6.114180137329102,16.037010000000002,6.085910137329101Q16.10526,6.057640137329102,16.16668,6.016600137329101Q16.2281,5.975560137329102,16.28033,5.923330137329101Q16.33256,5.871100137329101,16.3736,5.809680137329101Q16.41464,5.748260137329101,16.442909999999998,5.680010137329102Q16.47118,5.611770137329101,16.485590000000002,5.539320137329101Q16.5,5.466870137329101,16.5,5.393000137329102L16.5,4.477000137329101Q16.5,3.289930137329102,15.69345,2.4336381373291016Q14.87404,1.5636991373291016,13.683720000000001,1.5263751373291017Q12,1.4730931373291014,10.31649,1.5263681373291016Q9.126059,1.5636951373291015,8.3064707,2.4340981373291015Q7.5,3.2905701373291016,7.5,4.477000137329101Z" fill-rule="evenodd" fill="#000000" fill-opacity="1"/></g><g><path d="M12.00004,5.997874736785889Q16.1034,5.997688736785888,20.1218,6.694954736785888Q20.1854,6.706004736785888,20.25,6.706004736785888Q20.3239,6.706004736785888,20.3963,6.691584736785889Q20.4688,6.677174736785888,20.537,6.648904736785889Q20.6053,6.620644736785889,20.6667,6.579604736785889Q20.7281,6.538564736785888,20.7803,6.486334736785889Q20.8326,6.434094736785889,20.8736,6.372674736785889Q20.9146,6.311254736785889,20.9429,6.2430127367858885Q20.9712,6.174766736785889,20.9856,6.1023177367858885Q21,6.029868736785889,21,5.955999736785889Q21,5.890254736785889,20.9886,5.825512736785889Q20.9771,5.760769736785889,20.9546,5.699005736785889Q20.9321,5.6372407367858886,20.8991,5.580336736785888Q20.8662,5.523433736785889,20.8239,5.473127736785889Q20.7816,5.422821736785889,20.7311,5.380647736785889Q20.6807,5.338472936785888,20.6237,5.305716636785888Q20.5667,5.272960436785889,20.5048,5.250621476785889Q20.443,5.228282536785889,20.3782,5.217042336785888Q16.232599999999998,4.4976827367858885,11.99997,4.497874736785889Q7.77297,4.498066736785889,3.622842,5.215857936785889L3.622172,5.215973936785889Q3.557364,5.227183636785889,3.495496,5.2495020667858885Q3.433628,5.271820536785889,3.376589,5.304566436785889Q3.31955,5.3373122367858885,3.269081,5.379485736785889Q3.2186120000000003,5.421659736785888,3.176253,5.4719737367858885Q3.133895,5.522287736785889,3.10094,5.579206736785888Q3.067985,5.636124736785889,3.04544,5.6979107367858886Q3.022895,5.759696736785889,3.011447,5.824462736785889Q3,5.889229736785889,3,5.954999736785888Q3,6.028868736785888,3.014411,6.101317736785889Q3.028822,6.173766736785889,3.05709,6.242012736785888Q3.085359,6.310254736785889,3.126398,6.371674736785889Q3.167437,6.433094736785889,3.21967,6.485334736785889Q3.271903,6.537564736785889,3.333322,6.578604736785889Q3.394742,6.619644736785888,3.462987,6.647904736785889Q3.531233,6.676174736785889,3.603682,6.690584736785889Q3.6761315,6.705004736785889,3.75,6.705004736785889Q3.814387,6.705004736785889,3.877832,6.694024736785889Q7.90143,5.998060736785889,12.00004,5.997874736785889Z" fill-rule="evenodd" fill="#000000" fill-opacity="1"/></g></g></svg>