<svg xmlns="http://www.w3.org/2000/svg" xmlns:xlink="http://www.w3.org/1999/xlink" fill="none" version="1.1" width="24" height="24" viewBox="0 0 24 24"><defs><clipPath id="master_svg0_5851_03332"><rect x="0" y="0" width="24" height="24" rx="0"/></clipPath></defs><g clip-path="url(#master_svg0_5851_03332)"><g></g><g><path d="M20.25,5L20.25,13Q20.25,13.07387,20.2644,13.14632Q20.2788,13.21877,20.3071,13.28701Q20.3354,13.35526,20.3764,13.41668Q20.4174,13.4781,20.4697,13.53033Q20.5219,13.58256,20.5833,13.6236Q20.6447,13.66464,20.713,13.69291Q20.7812,13.72118,20.8537,13.73559Q20.9261,13.75,21,13.75Q21.0739,13.75,21.1463,13.73559Q21.2188,13.72118,21.287,13.69291Q21.3553,13.66464,21.4167,13.6236Q21.4781,13.58256,21.5303,13.53033Q21.5826,13.4781,21.6236,13.41668Q21.6646,13.35526,21.6929,13.28701Q21.7212,13.21877,21.7356,13.14632Q21.75,13.07387,21.75,13L21.75,5Q21.75,4.275125,21.2374,3.762563Q20.7249,3.25,20,3.25L4,3.25Q3.275126,3.25,2.762563,3.762563Q2.25,4.275126,2.25,5L2.25,15Q2.25,15.7249,2.762563,16.2374Q3.275127,16.75,4,16.75L12.5,16.75Q12.57387,16.75,12.64632,16.735599999999998Q12.71877,16.7212,12.78701,16.6929Q12.85526,16.6646,12.91668,16.6236Q12.9781,16.5826,13.0303,16.5303Q13.0826,16.478099999999998,13.1236,16.4167Q13.1646,16.3553,13.1929,16.287Q13.2212,16.2188,13.2356,16.1463Q13.25,16.073900000000002,13.25,16Q13.25,15.9261,13.2356,15.8537Q13.2212,15.7812,13.1929,15.713Q13.1646,15.6447,13.1236,15.5833Q13.0826,15.5219,13.0303,15.4697Q12.9781,15.4174,12.91668,15.3764Q12.85526,15.3354,12.78701,15.3071Q12.71877,15.2788,12.64632,15.2644Q12.57387,15.25,12.5,15.25L4,15.25Q3.75,15.25,3.75,15L3.75,5Q3.75,4.75,4,4.75L20,4.75Q20.25,4.75,20.25,5Z" fill-rule="evenodd" fill="#000000" fill-opacity="1"/></g><g><path d="M7,19.25L11,19.25Q11.07387,19.25,11.14632,19.264411Q11.21877,19.278822,11.28701,19.30709Q11.355260000000001,19.335359,11.41668,19.376398000000002Q11.478100000000001,19.417437,11.53033,19.46967Q11.58256,19.521903000000002,11.6236,19.583322Q11.66464,19.644742,11.692910000000001,19.712987Q11.72118,19.781233,11.73559,19.853682Q11.75,19.9261315,11.75,20Q11.75,20.0738685,11.73559,20.146318Q11.72118,20.218767,11.692910000000001,20.287013Q11.66464,20.355258,11.6236,20.416678Q11.58256,20.478096999999998,11.53033,20.53033Q11.478100000000001,20.582563,11.41668,20.623601999999998Q11.355260000000001,20.664641,11.28701,20.69291Q11.21877,20.721178,11.14632,20.735589Q11.07387,20.75,11,20.75L7,20.75Q6.9261315,20.75,6.853682,20.735589Q6.781233,20.721178,6.712987,20.69291Q6.644742,20.664641,6.583322,20.623601999999998Q6.521903,20.582563,6.46967,20.53033Q6.417437,20.478096999999998,6.376398,20.416678Q6.335359,20.355258,6.30709,20.287013Q6.278822,20.218767,6.264411,20.146318Q6.25,20.0738685,6.25,20Q6.25,19.9261315,6.264411,19.853682Q6.278822,19.781233,6.30709,19.712987Q6.335359,19.644742,6.376398,19.583322Q6.417437,19.521903000000002,6.46967,19.46967Q6.521903,19.417437,6.583322,19.376398000000002Q6.644742,19.335359,6.712987,19.30709Q6.781233,19.278822,6.853682,19.264411Q6.9261315,19.25,7,19.25Z" fill-rule="evenodd" fill="#000000" fill-opacity="1"/></g><g><path d="M8.25,16Q8.25,15.9261315,8.264410999999999,15.853682Q8.278822,15.781233,8.30709,15.712987Q8.335359,15.644742,8.376398,15.583322Q8.417437,15.521903,8.46967,15.46967Q8.521903,15.417437,8.583322,15.376398Q8.644742,15.335359,8.712987,15.30709Q8.781233,15.278822,8.853682,15.264410999999999Q8.9261315,15.25,9,15.25Q9.0738685,15.25,9.146318,15.264410999999999Q9.218767,15.278822,9.287013,15.30709Q9.355258,15.335359,9.416678,15.376398Q9.478097,15.417437,9.53033,15.46967Q9.582563,15.521903,9.623602,15.583322Q9.664641,15.644742,9.69291,15.712987Q9.721178,15.781233,9.735589000000001,15.853682Q9.75,15.9261315,9.75,16L9.75,20Q9.75,20.07387,9.735589000000001,20.14632Q9.721178,20.21877,9.69291,20.287010000000002Q9.664641,20.35526,9.623602,20.41668Q9.582563,20.4781,9.53033,20.53033Q9.478097,20.58256,9.416678,20.6236Q9.355258,20.66464,9.287013,20.69291Q9.218767,20.72118,9.146318,20.735590000000002Q9.0738685,20.75,9,20.75Q8.9261315,20.75,8.853682,20.735590000000002Q8.781233,20.72118,8.712987,20.69291Q8.644742,20.66464,8.583322,20.6236Q8.521903,20.58256,8.46967,20.53033Q8.417437,20.4781,8.376398,20.41668Q8.335359,20.35526,8.30709,20.287010000000002Q8.278822,20.21877,8.264410999999999,20.14632Q8.25,20.07387,8.25,20L8.25,16Z" fill-rule="evenodd" fill="#000000" fill-opacity="1"/></g><g transform="matrix(-1,0,0,1,44,0)"><path d="M22.530484,16.469824L24.53033,18.46967Q24.58256,18.5219,24.6236,18.58332Q24.66464,18.64474,24.69291,18.71299Q24.72118,18.78123,24.735590000000002,18.85368Q24.75,18.92613,24.75,19Q24.75,19.07387,24.735590000000002,19.14632Q24.72118,19.21877,24.69291,19.28701Q24.66464,19.35526,24.6236,19.41668Q24.58256,19.4781,24.53033,19.53033L22.53033,21.53033Q22.424841,21.63582,22.287013,21.69291Q22.149184,21.75,22,21.75Q21.9261315,21.75,21.853682,21.735590000000002Q21.781233,21.72118,21.712987,21.69291Q21.644742,21.66464,21.583322,21.6236Q21.521903000000002,21.58256,21.46967,21.53033Q21.417437,21.4781,21.376398000000002,21.41668Q21.335359,21.35526,21.30709,21.287010000000002Q21.278822,21.21877,21.264411,21.14632Q21.25,21.07387,21.25,21Q21.25,20.85082,21.30709,20.71299Q21.364181,20.57516,21.46967,20.46967L22.93934,19L21.469824,17.530484L21.46967,17.53033Q21.364181,17.424841,21.30709,17.287013Q21.25,17.149184,21.25,17Q21.25,16.9261315,21.264411,16.853682Q21.278822,16.781233,21.30709,16.712987Q21.335359,16.644742,21.376398000000002,16.583322Q21.417437,16.521903000000002,21.46967,16.46967Q21.521903000000002,16.417437,21.583322,16.376398000000002Q21.644742,16.335359,21.712987,16.30709Q21.781233,16.278822,21.853682,16.264411Q21.9261315,16.25,22,16.25Q22.149184,16.25,22.287013,16.30709Q22.424841,16.364181,22.53033,16.46967L22.530484,16.469824Z" fill-rule="evenodd" fill="#000000" fill-opacity="1"/></g><g transform="matrix(-1,0,0,1,34,0)"><path d="M19.53033,17.53033Q19.63582,17.424841,19.69291,17.287013Q19.75,17.149184,19.75,17Q19.75,16.9261315,19.735590000000002,16.853682Q19.72118,16.781233,19.69291,16.712987Q19.66464,16.644742,19.6236,16.583322Q19.58256,16.521903000000002,19.53033,16.46967Q19.4781,16.417437,19.41668,16.376398000000002Q19.35526,16.335359,19.28701,16.30709Q19.21877,16.278822,19.14632,16.264411Q19.07387,16.25,19,16.25Q18.85082,16.25,18.71299,16.30709Q18.57516,16.364181,18.46967,16.46967L18.46952,16.469824L16.46967,18.46967Q16.417437,18.5219,16.376398000000002,18.58332Q16.335359,18.64474,16.30709,18.71299Q16.278822,18.78123,16.264411,18.85368Q16.25,18.92613,16.25,19Q16.25,19.07387,16.264411,19.14632Q16.278822,19.21877,16.30709,19.28701Q16.335359,19.35526,16.376398000000002,19.41668Q16.417437,19.4781,16.46967,19.53033L18.46967,21.53033Q18.57516,21.63582,18.71299,21.69291Q18.85082,21.75,19,21.75Q19.07387,21.75,19.14632,21.735590000000002Q19.21877,21.72118,19.28701,21.69291Q19.35526,21.66464,19.41668,21.6236Q19.4781,21.58256,19.53033,21.53033Q19.58256,21.4781,19.6236,21.41668Q19.66464,21.35526,19.69291,21.287010000000002Q19.72118,21.21877,19.735590000000002,21.14632Q19.75,21.07387,19.75,21Q19.75,20.85082,19.69291,20.71299Q19.63582,20.57516,19.53033,20.46967L18.06066,19L19.53033,17.53033Z" fill-rule="evenodd" fill="#000000" fill-opacity="1"/></g></g></svg>