<svg xmlns="http://www.w3.org/2000/svg" xmlns:xlink="http://www.w3.org/1999/xlink" fill="none" version="1.1" width="24" height="24" viewBox="0 0 24 24"><defs><clipPath id="master_svg0_5798_08798"><rect x="0" y="0" width="24" height="24" rx="0"/></clipPath></defs><g clip-path="url(#master_svg0_5798_08798)"><g><path d="M5.25,5L5.25,19Q5.25,20.1391,6.0554566,20.9445Q6.860913,21.75,8,21.75L16,21.75Q17.1391,21.75,17.944499999999998,20.9445Q18.75,20.1391,18.75,19L18.75,5Q18.75,3.860913,17.944499999999998,3.0554565Q17.1391,2.25,16,2.25L8,2.25Q6.860913,2.25,6.0554564,3.0554564Q5.25,3.860913,5.25,5ZM7.1161200000000004,19.8839Q6.75,19.5178,6.75,19L6.75,5Q6.75,4.4822299999999995,7.1161200000000004,4.1161200000000004Q7.4822299999999995,3.75,8,3.75L16,3.75Q16.5178,3.75,16.8839,4.1161200000000004Q17.25,4.4822299999999995,17.25,5L17.25,19Q17.25,19.5178,16.8839,19.8839Q16.5178,20.25,16,20.25L8,20.25Q7.4822299999999995,20.25,7.1161200000000004,19.8839Z" fill-rule="evenodd" fill="#000000" fill-opacity="1" style="mix-blend-mode:passthrough"/></g><g><path d="M11,3L13,3Q13.07387,3,13.14632,3.014411Q13.21877,3.028822,13.28701,3.05709Q13.35526,3.085359,13.41668,3.126398Q13.4781,3.167437,13.53033,3.21967Q13.58256,3.271903,13.6236,3.333322Q13.66464,3.394742,13.69291,3.462987Q13.72118,3.531233,13.73559,3.603682Q13.75,3.6761315,13.75,3.75Q13.75,3.8238685,13.73559,3.896318Q13.72118,3.968767,13.69291,4.037013Q13.66464,4.105258,13.6236,4.166678Q13.58256,4.228097,13.53033,4.28033Q13.4781,4.332563,13.41668,4.373602Q13.35526,4.414641,13.28701,4.44291Q13.21877,4.471178,13.14632,4.485589Q13.07387,4.5,13,4.5L11,4.5Q10.9261315,4.5,10.853682,4.485589Q10.781233,4.471178,10.712987,4.44291Q10.644742,4.414641,10.583322,4.373602Q10.521903,4.332563,10.46967,4.28033Q10.417437,4.228097,10.376398,4.166678Q10.335359,4.105258,10.30709,4.037013Q10.278822,3.968767,10.264410999999999,3.896318Q10.25,3.8238685,10.25,3.75Q10.25,3.6761315,10.264410999999999,3.603682Q10.278822,3.531233,10.30709,3.462987Q10.335359,3.394742,10.376398,3.333322Q10.417437,3.271903,10.46967,3.21967Q10.521903,3.167437,10.583322,3.126398Q10.644742,3.085359,10.712987,3.05709Q10.781233,3.028822,10.853682,3.014411Q10.9261315,3,11,3Z" fill-rule="evenodd" fill="#000000" fill-opacity="1" style="mix-blend-mode:passthrough"/></g><g><path d="M12.75,17L12.75,17.0100002L12.749933,17.0100002Q12.748957,17.0832312,12.733832,17.15489Q12.718707,17.226549,12.690005,17.293928Q12.661303,17.361307,12.620108,17.42186Q12.578913,17.482414,12.526783,17.533854Q12.474652,17.585294,12.413554,17.625678Q12.352457,17.666061,12.284701,17.693862Q12.216945,17.721664,12.145091,17.735832Q12.0732375,17.75,12,17.75Q11.9267625,17.75,11.854909,17.735832Q11.783055,17.721664,11.715299,17.693862Q11.647543,17.666061,11.586446,17.625678Q11.525348,17.585294,11.473217,17.533854Q11.421087,17.482414,11.379892,17.42186Q11.338697,17.361307,11.309995,17.293928Q11.281293,17.226549,11.266168,17.15489Q11.251043,17.0832312,11.250067,17.0100002L11.25,17.0100002L11.250017,17.00500011L11.25,17Q11.25,16.9261315,11.264410999999999,16.853682Q11.278822,16.781233,11.30709,16.712987Q11.335359,16.644742,11.376398,16.583322Q11.417437,16.521903000000002,11.46967,16.46967Q11.521903,16.417437,11.583322,16.376398000000002Q11.644742,16.335359,11.712987,16.30709Q11.781233,16.278822,11.853682,16.264411Q11.9261315,16.25,12,16.25Q12.0738685,16.25,12.146318,16.264411Q12.218767,16.278822,12.287013,16.30709Q12.355258,16.335359,12.416678,16.376398000000002Q12.478097,16.417437,12.53033,16.46967Q12.582563,16.521903000000002,12.623602,16.583322Q12.664641,16.644742,12.69291,16.712987Q12.721178,16.781233,12.735589000000001,16.853682Q12.75,16.9261315,12.75,17ZM11.25,17.0100002L11.25,17L12.749983,17.00500011L12.75,17.0100002Q12.75,17.0838688,12.735589000000001,17.156318Q12.721178,17.228767,12.69291,17.297013Q12.664641,17.365258,12.623602,17.426678Q12.582563,17.488097,12.53033,17.54033Q12.478097,17.592563,12.416678,17.633602Q12.355258,17.674641,12.287013,17.70291Q12.218767,17.731178,12.146318,17.745589Q12.0738685,17.76,12,17.76Q11.9261315,17.76,11.853682,17.745589Q11.781233,17.731178,11.712987,17.70291Q11.644742,17.674642,11.583322,17.633602Q11.521903,17.592563,11.46967,17.54033Q11.417437,17.488097,11.376398,17.426678Q11.335359,17.365258,11.30709,17.297013Q11.278822,17.228767,11.264410999999999,17.156318Q11.25,17.0838688,11.25,17.0100002Z" fill-rule="evenodd" fill="#000000" fill-opacity="1" style="mix-blend-mode:passthrough"/></g></g></svg>