<svg xmlns="http://www.w3.org/2000/svg" xmlns:xlink="http://www.w3.org/1999/xlink" fill="none" version="1.1" width="24" height="24" viewBox="0 0 24 24"><defs><clipPath id="master_svg0_5824_08936"><rect x="0" y="0" width="24" height="24" rx="0"/></clipPath></defs><g clip-path="url(#master_svg0_5824_08936)"><g><g><path d="M4.999935984611511,1.999966025352478C3.3430759846115112,1.999966025352478,1.9999359846115112,3.343116025352478,1.9999359846115112,4.999966025352478L1.9999359846115112,18.999966025352478C1.9999359846115112,20.65676602535248,3.3430759846115112,21.999966025352478,4.999935984611511,21.999966025352478L18.99983598461151,21.999966025352478C20.65673598461151,21.999966025352478,21.99983598461151,20.65676602535248,21.99983598461151,18.999966025352478L21.99983598461151,4.999966025352478C21.99983598461151,3.343116025352478,20.65673598461151,1.999966025352478,18.99983598461151,1.999966025352478L4.999935984611511,1.999966025352478ZM6.999945984611511,6.882876025352478C6.447655984611512,6.882876025352478,5.999935984611511,7.330596025352478,5.999935984611511,7.882876025352478C5.999935984611511,8.435156025352478,6.447655984611512,8.882866025352477,6.999945984611511,8.882866025352477L16.99993598461151,8.882866025352477C17.552235984611514,8.882866025352477,17.99993598461151,8.435156025352478,17.99993598461151,7.882876025352478C17.99993598461151,7.330596025352478,17.552235984611514,6.882876025352478,16.99993598461151,6.882876025352478L6.999945984611511,6.882876025352478ZM6.999945984611511,11.499976025352478C6.447655984611512,11.499976025352478,5.999935984611511,11.947686025352478,5.999935984611511,12.499966025352478C5.999935984611511,13.052266025352479,6.447655984611512,13.499966025352478,6.999945984611511,13.499966025352478L12.999935984611511,13.499966025352478C13.552235984611512,13.499966025352478,13.999935984611511,13.052266025352479,13.999935984611511,12.499966025352478C13.999935984611511,11.947686025352478,13.552235984611512,11.499976025352478,12.999935984611511,11.499976025352478L6.999945984611511,11.499976025352478Z" fill-rule="evenodd" fill="#000000" fill-opacity="1"/></g></g></g></svg>