<svg xmlns="http://www.w3.org/2000/svg" xmlns:xlink="http://www.w3.org/1999/xlink" fill="none" version="1.1" width="24" height="24" viewBox="0 0 24 24"><defs><clipPath id="master_svg0_5732_08116"><rect x="0" y="0" width="24" height="24" rx="0"/></clipPath></defs><g clip-path="url(#master_svg0_5732_08116)"><g><path d="M6.5304839999999995,8.469824L12,13.93934L17.4692,8.470132L17.4697,8.46967Q17.575200000000002,8.364181,17.713,8.30709Q17.8508,8.25,18,8.25Q18.073900000000002,8.25,18.1463,8.264410999999999Q18.2188,8.278822,18.287,8.30709Q18.3553,8.335359,18.4167,8.376398Q18.478099999999998,8.417437,18.5303,8.46967Q18.5826,8.521903,18.6236,8.583322Q18.6646,8.644742,18.6929,8.712987Q18.7212,8.781233,18.735599999999998,8.853682Q18.75,8.9261315,18.75,9Q18.75,9.149184,18.6929,9.287012Q18.6358,9.424841,18.5303,9.53033L12.53033,15.53033Q12.42484,15.635819999999999,12.28701,15.692910000000001Q12.149180000000001,15.75,12,15.75Q11.850819999999999,15.75,11.71299,15.692910000000001Q11.57516,15.635819999999999,11.46967,15.53033L5.469824,9.530484L5.46967,9.53033Q5.364181,9.424841,5.30709,9.287013Q5.25,9.149184,5.25,9Q5.25,8.9261315,5.264411,8.853682Q5.278822,8.781233,5.30709,8.712987Q5.335359,8.644742,5.376398,8.583322Q5.417437,8.521903,5.46967,8.46967Q5.521903,8.417437,5.583322,8.376398Q5.644742,8.335359,5.712987,8.30709Q5.781233,8.278822,5.853682,8.264410999999999Q5.9261315,8.25,6,8.25Q6.149184,8.25,6.287013,8.30709Q6.424841,8.364181,6.53033,8.46967L6.5304839999999995,8.469824Z" fill-rule="evenodd" fill="#000000" fill-opacity="1" style="mix-blend-mode:passthrough"/></g></g></svg>