<svg xmlns="http://www.w3.org/2000/svg" xmlns:xlink="http://www.w3.org/1999/xlink" fill="none" version="1.1" width="32" height="32" viewBox="0 0 32 32"><defs><clipPath id="master_svg0_5881_02723"><rect x="0" y="0" width="32" height="32" rx="0"/></clipPath><filter id="master_svg1_5881_02729" filterUnits="objectBoundingBox" color-interpolation-filters="sRGB" x="0" y="0" width="1" height="1"><feFlood flood-opacity="0" result="BackgroundImageFix"/><feBlend mode="normal" in="SourceGraphic" in2="BackgroundImageFix" result="shape"/><feColorMatrix in="SourceAlpha" type="matrix" result="hardAlpha" values="0 0 0 0 0 0 0 0 0 0 0 0 0 0 0 0 0 0 127 0"/><feOffset dy="-2" dx="0"/><feGaussianBlur stdDeviation="2"/><feComposite in2="hardAlpha" operator="arithmetic" k2="-1" k3="1"/><feColorMatrix type="matrix" values="0 0 0 0 1 0 0 0 0 1 0 0 0 0 1 0 0 0 0.20000000298023224 0"/><feBlend mode="normal" in2="shape" result="effect1_innerShadow"/></filter><linearGradient x1="0.7222222089767456" y1="0.2592448890209198" x2="0.7222222089767456" y2="1.104142189025879" id="master_svg2_5881_02809"><stop offset="0%" stop-color="#FFFFFF" stop-opacity="1"/><stop offset="40.104201436042786%" stop-color="#FFFFFF" stop-opacity="0.8500000238418579"/><stop offset="100%" stop-color="#FFFFFF" stop-opacity="0.5"/></linearGradient></defs><g clip-path="url(#master_svg0_5881_02723)"><g></g><g filter="url(#master_svg1_5881_02729)"><g transform="matrix(0.916670024394989,0,0,0.916670024394989,0.6492817641004933,0.4967469484924436)"><path d="M12.71169511795044,22.431103575134276C10.03022511795044,21.537503575134277,8.13938311795044,19.131803575134278,7.90469511795044,16.315103575134277L7.7916951179504395,14.958093575134278C7.7934105379504395,9.988743575134277,11.822345117950439,5.961203575134277,16.79169511795044,5.961203575134277C21.76099511795044,5.961203575134277,25.78999511795044,9.988743575134277,25.79169511795044,14.958093575134278L25.67869511795044,16.315103575134277C25.44399511795044,19.131803575134278,23.553195117950438,21.537503575134277,20.871695117950438,22.431103575134276C20.821195117950438,22.448003575134276,20.781595117950438,22.487603575134276,20.76469511795044,22.538103575134276L20.21069511795044,24.201103575134276C19.96069511795044,24.951703575134278,19.25819511795044,25.458103575134277,18.46669511795044,25.458103575134277L15.116695117950439,25.458103575134277C14.32538511795044,25.458203575134277,13.62282511795044,24.951803575134278,13.372695117950439,24.201103575134276L12.81869511795044,22.538103575134276C12.80174511795044,22.487603575134276,12.762145117950439,22.448003575134276,12.71169511795044,22.431103575134276ZM16.804695117950438,11.156093575134278L12.959695117950439,15.369093575134277C12.59569511795044,15.731093575134278,12.859695117950439,16.30610357513428,13.40669511795044,16.342103575134278L15.61869511795044,16.48910357513428L15.61869511795044,19.371103575134278C15.61869511795044,19.91010357513428,16.37369511795044,20.16310357513428,16.77869511795044,19.760103575134277L20.62369511795044,15.547093575134276C20.987695117950437,15.185093575134278,20.72369511795044,14.610093575134277,20.176695117950437,14.574093575134278L17.96469511795044,14.427093575134277L17.96469511795044,11.545093575134278C17.96469511795044,11.006093575134276,17.20969511795044,10.753093575134278,16.804695117950438,11.156093575134278ZM13.79169511795044,27.458103575134277C13.79169511795044,26.90580357513428,14.23940511795044,26.458103575134277,14.79169511795044,26.458103575134277L18.79169511795044,26.458103575134277C19.343995117950442,26.458103575134277,19.79169511795044,26.90580357513428,19.79169511795044,27.458103575134277C19.79169511795044,28.010403575134276,19.343995117950442,28.458103575134277,18.79169511795044,28.458103575134277L14.79169511795044,28.458103575134277C14.23940511795044,28.458103575134277,13.79169511795044,28.010403575134276,13.79169511795044,27.458103575134277Z" fill="url(#master_svg2_5881_02809)" fill-opacity="1" style="mix-blend-mode:passthrough"/></g></g></g></svg>