<svg xmlns="http://www.w3.org/2000/svg" xmlns:xlink="http://www.w3.org/1999/xlink" fill="none" version="1.1" width="24" height="24" viewBox="0 0 24 24"><defs><clipPath id="master_svg0_6030_02688"><rect x="0" y="0" width="24" height="24" rx="0"/></clipPath></defs><g clip-path="url(#master_svg0_6030_02688)"><g><path d="M4.1017727734375,11.456153603515626C4.3103567734375,13.959543603515625,5.9908727734375,16.097643603515625,8.3740727734375,16.891843603515625C8.418912773437501,16.906943603515625,8.4541027734375,16.942143603515625,8.4691727734375,16.986943603515627L8.9615427734375,18.464943603515625C9.1843227734375,19.131843603515627,9.8084427734375,19.581643603515626,10.5115527734375,19.582143603515625L13.4889227734375,19.582143603515625C14.1919427734375,19.582143603515625,14.8167427734375,19.132443603515625,15.0389427734375,18.464943603515625L15.5313427734375,16.986943603515627C15.5463427734375,16.942143603515625,15.5815427734375,16.906943603515625,15.6264427734375,16.891843603515625C18.0096427734375,16.097643603515625,19.6901427734375,13.959543603515625,19.898742773437498,11.456153603515626L19.999142773437498,10.250103603515624C20.000642773437498,5.831353603515625,16.4189427734375,2.248443603515625,12.0002327734375,2.248443603515625C7.5814927734375,2.248444133261625,3.9998166834375,5.831353603515625,4.0013427734375,10.250103603515624L4.1017727734375,11.456153603515626ZM13.8453127734375,16.424343603515624L13.3849327734375,17.804643603515625L10.6146527734375,17.804643603515625L10.1551627734375,16.425243603515625C9.963172773437499,15.849543603515626,9.511442773437501,15.397843603515625,8.935772773437499,15.205843603515625C7.227192773437499,14.636343603515625,6.022472773437499,13.103343603515626,5.8730827734375,11.308623603515626L5.7788727734375005,10.179883603515625C5.7788727734375005,6.743923603515625,8.5642727734375,3.958523603515625,12.000242773437499,3.958523603515625C15.4362427734375,3.958523603515625,18.2216427734375,6.743923603515625,18.2216427734375,10.179883603515625L18.127342773437498,11.308623603515626C17.9780427734375,13.103343603515626,16.773242773437502,14.636443603515625,15.0647427734375,15.205843603515625C14.4890427734375,15.397843603515625,14.0373427734375,15.849543603515626,13.8453127734375,16.424343603515624L13.8453127734375,16.424343603515624ZM10.2227027734375,20.470943603515625C9.731852773437499,20.470943603515625,9.3339427734375,20.868843603515625,9.3339427734375,21.359643603515625C9.3339427734375,21.850543603515625,9.731852773437499,22.248443603515625,10.2227027734375,22.248443603515625L13.7777727734375,22.248443603515625C14.2686427734375,22.248443603515625,14.6665427734375,21.850543603515625,14.6665427734375,21.359643603515625C14.6665427734375,20.868843603515625,14.2686427734375,20.470943603515625,13.7777727734375,20.470943603515625L10.2227027734375,20.470943603515625Z" fill="#000000" fill-opacity="1"/></g></g></svg>