<svg xmlns="http://www.w3.org/2000/svg" xmlns:xlink="http://www.w3.org/1999/xlink" fill="none" version="1.1" width="24" height="24" viewBox="0 0 24 24"><defs><clipPath id="master_svg0_5726_08069"><rect x="0" y="0" width="24" height="24" rx="0"/></clipPath></defs><g clip-path="url(#master_svg0_5726_08069)"><g><path d="M13.06066,7.06066Q13.5,6.62132,13.5,6Q13.5,5.37868,13.06066,4.93934Q12.62132,4.5,12,4.5Q11.37868,4.5,10.93934,4.93934Q10.5,5.37868,10.5,6Q10.5,6.62132,10.93934,7.06066Q11.37868,7.5,12,7.5Q12.62132,7.5,13.06066,7.06066ZM13.06066,13.06066Q13.5,12.62132,13.5,12Q13.5,11.37868,13.06066,10.93934Q12.62132,10.5,12,10.5Q11.37868,10.5,10.93934,10.93934Q10.5,11.37868,10.5,12Q10.5,12.62132,10.93934,13.06066Q11.37868,13.5,12,13.5Q12.62132,13.5,13.06066,13.06066ZM13.06066,19.0607Q13.5,18.621299999999998,13.5,18Q13.5,17.378700000000002,13.06066,16.9393Q12.62132,16.5,12,16.5Q11.378679,16.5,10.93934,16.9393Q10.5,17.378700000000002,10.5,18Q10.5,18.621299999999998,10.93934,19.0607Q11.378678,19.5,12,19.5Q12.62132,19.5,13.06066,19.0607Z" fill-rule="evenodd" fill="#000000" fill-opacity="1" style="mix-blend-mode:passthrough"/></g></g></svg>