<svg xmlns="http://www.w3.org/2000/svg" xmlns:xlink="http://www.w3.org/1999/xlink" fill="none" version="1.1" width="24" height="24" viewBox="0 0 24 24"><defs><clipPath id="master_svg0_91_01649"><rect x="0" y="0" width="24" height="24" rx="0"/></clipPath></defs><g clip-path="url(#master_svg0_91_01649)"><g><path d="M3.0554565,20.9445Q3.860912,21.75,5,21.75L19,21.75Q20.1391,21.75,20.9445,20.9445Q21.75,20.1391,21.75,19L21.75,5Q21.75,3.860912,20.9445,3.0554565Q20.1391,2.25,19,2.25L14,2.25Q12.86091,2.25,12.05546,3.0554564Q11.25,3.860914,11.25,5L11.25,8.2Q11.25,9.45,10,9.45L5,9.45Q3.860913,9.45,3.0554565,10.25546Q2.25,11.06091,2.25,12.2L2.25,19Q2.25,20.1391,3.0554565,20.9445ZM19,20.25L5,20.25Q3.75,20.25,3.75,19L3.75,12.2Q3.75,11.68223,4.1161200000000004,11.31612Q4.4822299999999995,10.95,5,10.95L10,10.95Q11.13909,10.95,11.94454,10.14454Q12.75,9.339089999999999,12.75,8.2L12.75,5Q12.75,4.4822299999999995,13.1161,4.1161200000000004Q13.4822,3.75,14,3.75L19,3.75Q20.25,3.75,20.25,5L20.25,19Q20.25,20.25,19,20.25Z" fill-rule="evenodd" fill="#000000" fill-opacity="1" style="mix-blend-mode:passthrough"/></g><g><path d="M11.18036662109375,14.329890546875Q11.28585662109375,14.224401546875,11.34294662109375,14.086573546875Q11.40003662109375,13.948744546875,11.40003662109375,13.799560546875Q11.40003662109375,13.725692046875,11.38562662109375,13.653242546875Q11.371216621093751,13.580793546875,11.34294662109375,13.512547546875Q11.31467662109375,13.444302546875,11.27363662109375,13.382882546875Q11.23259662109375,13.321463546875,11.18036662109375,13.269230546875Q11.12813662109375,13.216997546875,11.06671662109375,13.175958546875Q11.00529662109375,13.134919546875,10.93704662109375,13.106650546875Q10.86880662109375,13.078382546875,10.79635662109375,13.063971546874999Q10.72390662109375,13.049560546875,10.65003662109375,13.049560546875Q10.50085662109375,13.049560546875,10.36302662109375,13.106650546875Q10.22519662109375,13.163741546875,10.11970662109375,13.269230546875L8.31970662109375,15.069230546875Q8.26747362109375,15.121460546875,8.22643462109375,15.182880546875Q8.18539562109375,15.244300546875,8.15712662109375,15.312550546875Q8.12885862109375,15.380790546875,8.114447621093749,15.453240546875Q8.10003662109375,15.525690546875,8.10003662109375,15.599560546875Q8.10003662109375,15.673430546875,8.114447621093749,15.745880546875Q8.12885862109375,15.818330546875,8.15712662109375,15.886570546875Q8.18539562109375,15.954820546875,8.22643462109375,16.016240546875Q8.26747362109375,16.077660546875,8.31970662109375,16.129890546875L10.11931662109375,17.929500546875L10.11970662109375,17.929890546875Q10.22519662109375,18.035380546875,10.36302662109375,18.092470546875Q10.50085662109375,18.149560546875,10.65003662109375,18.149560546875Q10.72390662109375,18.149560546875,10.79635662109375,18.135150546875Q10.86880662109375,18.120740546875,10.93704662109375,18.092470546875Q11.00529662109375,18.064200546875,11.06671662109375,18.023160546875Q11.12813662109375,17.982120546875,11.18036662109375,17.929890546875Q11.23259662109375,17.877660546875,11.27363662109375,17.816240546875Q11.31467662109375,17.754820546875,11.34294662109375,17.686570546875Q11.371216621093751,17.618330546875,11.38562662109375,17.545880546875Q11.40003662109375,17.473430546875,11.40003662109375,17.399560546875Q11.40003662109375,17.250380546875,11.34294662109375,17.112550546875Q11.28585662109375,16.974720546874998,11.18036662109375,16.869230546875L11.18021662109375,16.869080546875L9.91069662109375,15.599560546875L11.18036662109375,14.329890546875L11.18036662109375,14.329890546875Z" fill-rule="evenodd" fill="#000000" fill-opacity="1" style="mix-blend-mode:passthrough"/></g><g><path d="M15.75003662109375,11.549560546875Q15.75003662109375,11.475692046875,15.76444662109375,11.403242546875Q15.77885662109375,11.330793546875,15.80712662109375,11.262547546875Q15.83539662109375,11.194302546875,15.876436621093749,11.132882546875Q15.917476621093751,11.071463546875,15.96970662109375,11.019230546875Q16.02193662109375,10.966997546875,16.08335662109375,10.925958546875Q16.14477662109375,10.884919546875,16.21302662109375,10.856650546875Q16.28126662109375,10.828382546875,16.35371662109375,10.813971546874999Q16.42616662109375,10.799560546875,16.50003662109375,10.799560546875Q16.573906621093748,10.799560546875,16.64635662109375,10.813971546874999Q16.718806621093748,10.828382546875,16.78704662109375,10.856650546875Q16.85529662109375,10.884919546875,16.916716621093748,10.925958546875Q16.97813662109375,10.966997546875,17.030366621093748,11.019230546875Q17.08259662109375,11.071463546875,17.123636621093752,11.132882546875Q17.16467662109375,11.194302546875,17.19294662109375,11.262547546875Q17.221216621093753,11.330793546875,17.23562662109375,11.403242546875Q17.25003662109375,11.475692046875,17.25003662109375,11.549560546875L17.25003662109375,13.599560546875Q17.25003662109375,14.738650546875,16.444576621093752,15.544100546875Q15.63912662109375,16.349560546875,14.50003662109375,16.349560546875L8.85003662109375,16.349560546875Q8.77616812109375,16.349560546875,8.70371862109375,16.335150546875Q8.63126962109375,16.320740546875,8.56302362109375,16.292470546875002Q8.49477862109375,16.264200546875,8.43335862109375,16.223160546875Q8.37193962109375,16.182120546874998,8.31970662109375,16.129890546875Q8.26747362109375,16.077660546875002,8.22643462109375,16.016240546875Q8.18539562109375,15.954820546875,8.15712662109375,15.886570546875Q8.12885862109375,15.818330546875,8.114447621093749,15.745880546875Q8.10003662109375,15.673430546875,8.10003662109375,15.599560546875Q8.10003662109375,15.525690546875,8.114447621093749,15.453240546875Q8.12885862109375,15.380790546875,8.15712662109375,15.312550546875Q8.18539562109375,15.244300546875,8.22643462109375,15.182880546875Q8.26747362109375,15.121460546875,8.31970662109375,15.069230546875Q8.37193962109375,15.017000546875,8.43335862109375,14.975960546875001Q8.49477862109375,14.934920546875,8.56302362109375,14.906650546875Q8.63126962109375,14.878380546875,8.70371862109375,14.863970546875Q8.77616812109375,14.849560546875,8.85003662109375,14.849560546875L14.50003662109375,14.849560546875Q15.01780662109375,14.849560546875,15.38391662109375,14.483440546875Q15.75003662109375,14.117330546875,15.75003662109375,13.599560546875L15.75003662109375,11.549560546875Z" fill-rule="evenodd" fill="#000000" fill-opacity="1" style="mix-blend-mode:passthrough"/></g></g></svg>