<svg xmlns="http://www.w3.org/2000/svg" xmlns:xlink="http://www.w3.org/1999/xlink" fill="none" version="1.1" width="24" height="24" viewBox="0 0 24 24"><defs><clipPath id="master_svg0_5807_08817"><rect x="0" y="0" width="24" height="24" rx="0"/></clipPath></defs><g clip-path="url(#master_svg0_5807_08817)"><g><path d="M5,9.25L19,9.25Q19.073900000000002,9.25,19.1463,9.264410999999999Q19.2188,9.278822,19.287,9.30709Q19.3553,9.335359,19.4167,9.376398Q19.478099999999998,9.417437,19.5303,9.46967Q19.5826,9.521903,19.6236,9.583322Q19.6646,9.644742,19.6929,9.712987Q19.7212,9.781233,19.735599999999998,9.853682Q19.75,9.9261315,19.75,10Q19.75,10.0738685,19.735599999999998,10.146318Q19.7212,10.218767,19.6929,10.287013Q19.6646,10.355258,19.6236,10.416678Q19.5826,10.478097,19.5303,10.53033Q19.478099999999998,10.582563,19.4167,10.623602Q19.3553,10.664641,19.287,10.69291Q19.2188,10.721178,19.1463,10.735589000000001Q19.073900000000002,10.75,19,10.75L5,10.75Q4.9261315,10.75,4.853682,10.735589000000001Q4.781233,10.721178,4.712987,10.69291Q4.644742,10.664641,4.583322,10.623602Q4.521903,10.582563,4.46967,10.53033Q4.417437,10.478097,4.376398,10.416678Q4.335359,10.355258,4.30709,10.287013Q4.278822,10.218767,4.264411,10.146318Q4.25,10.0738685,4.25,10Q4.25,9.9261315,4.264411,9.853682Q4.278822,9.781233,4.30709,9.712987Q4.335359,9.644742,4.376398,9.583322Q4.417437,9.521903,4.46967,9.46967Q4.521903,9.417437,4.583322,9.376398Q4.644742,9.335359,4.712987,9.30709Q4.781233,9.278822,4.853682,9.264410999999999Q4.9261315,9.25,5,9.25Z" fill-rule="evenodd" fill="#000000" fill-opacity="1" style="mix-blend-mode:passthrough"/></g><g><path d="M5,13.25L19,13.25Q19.073900000000002,13.25,19.1463,13.264410999999999Q19.2188,13.278822,19.287,13.30709Q19.3553,13.335359,19.4167,13.376398Q19.478099999999998,13.417437,19.5303,13.46967Q19.5826,13.521903,19.6236,13.583322Q19.6646,13.644742,19.6929,13.712987Q19.7212,13.781233,19.735599999999998,13.853682Q19.75,13.9261315,19.75,14Q19.75,14.0738685,19.735599999999998,14.146318Q19.7212,14.218767,19.6929,14.287013Q19.6646,14.355258,19.6236,14.416678Q19.5826,14.478097,19.5303,14.53033Q19.478099999999998,14.582563,19.4167,14.623602Q19.3553,14.664641,19.287,14.69291Q19.2188,14.721178,19.1463,14.735589000000001Q19.073900000000002,14.75,19,14.75L5,14.75Q4.9261315,14.75,4.853682,14.735589000000001Q4.781233,14.721178,4.712987,14.69291Q4.644742,14.664641,4.583322,14.623602Q4.521903,14.582563,4.46967,14.53033Q4.417437,14.478097,4.376398,14.416678Q4.335359,14.355258,4.30709,14.287013Q4.278822,14.218767,4.264411,14.146318Q4.25,14.0738685,4.25,14Q4.25,13.9261315,4.264411,13.853682Q4.278822,13.781233,4.30709,13.712987Q4.335359,13.644742,4.376398,13.583322Q4.417437,13.521903,4.46967,13.46967Q4.521903,13.417437,4.583322,13.376398Q4.644742,13.335359,4.712987,13.30709Q4.781233,13.278822,4.853682,13.264410999999999Q4.9261315,13.25,5,13.25Z" fill-rule="evenodd" fill="#000000" fill-opacity="1" style="mix-blend-mode:passthrough"/></g></g></svg>