<?xml version="1.0" encoding="UTF-8"?>
<svg id="_图层_1" data-name="图层 1" xmlns="http://www.w3.org/2000/svg" viewBox="0 0 24 24">
  <defs>
    <style>
      .error-color-1 {
        fill: #f44343;
      }
    </style>
  </defs>
  <path class="error-color-1" d="M12,1.5C6.2,1.5,1.5,6.2,1.5,12s4.7,10.5,10.5,10.5,10.5-4.7,10.5-10.5S17.79,1.5,12,1.5Zm0,4.2c.91,0,1.63,.72,1.57,1.57l-.39,5.78c-.04,.59-.56,1.05-1.19,1.05s-1.15-.46-1.19-1.05l-.38-5.78c-.06-.85,.66-1.57,1.57-1.57Zm0,12.6c-.87,0-1.57-.71-1.57-1.58s.71-1.57,1.57-1.57,1.57,.71,1.57,1.57-.71,1.58-1.57,1.58Z"/>
</svg>