<svg xmlns="http://www.w3.org/2000/svg" xmlns:xlink="http://www.w3.org/1999/xlink" fill="none" version="1.1" width="24" height="24" viewBox="0 0 24 24"><defs><clipPath id="master_svg0_5794_08711"><rect x="0" y="0" width="24" height="24" rx="0"/></clipPath></defs><g clip-path="url(#master_svg0_5794_08711)"><g><path d="M3.530484,2.469824L6.337,5.276339999999999Q8.9391,3.7453469999999998,12,3.75Q15.7788,3.75,18.7842,6.02501Q21.7329,8.25722,22.7838,11.78383Q22.8477,11.99831,22.7836,12.21274Q21.7418,15.6989,18.9286,17.868000000000002L21.5303,20.4697Q21.6358,20.5752,21.6929,20.713Q21.75,20.8508,21.75,21Q21.75,21.0739,21.7356,21.1463Q21.7212,21.2188,21.6929,21.287Q21.6646,21.3553,21.6236,21.4167Q21.5826,21.4781,21.5303,21.5303Q21.4781,21.5826,21.4167,21.6236Q21.3553,21.6646,21.287,21.6929Q21.2188,21.7212,21.1463,21.7356Q21.0739,21.75,21,21.75Q20.8508,21.75,20.713,21.6929Q20.5752,21.6358,20.4697,21.5303L17.2423,18.303L13.59,14.6507L9.34967,10.41033L9.348700000000001,10.40936L9.34767,10.40833L5.6976700000000005,6.75833L2.46967,3.53033Q2.364181,3.424841,2.30709,3.287013Q2.25,3.149184,2.25,3Q2.25,2.9261315,2.264411,2.853682Q2.278822,2.781233,2.30709,2.712987Q2.335359,2.644742,2.376398,2.583322Q2.417437,2.521903,2.46967,2.46967Q2.521903,2.417437,2.583322,2.376398Q2.644742,2.335359,2.712987,2.30709Q2.781233,2.278822,2.853682,2.264411Q2.9261315,2.25,3,2.25Q3.149184,2.25,3.287013,2.30709Q3.424841,2.364181,3.53033,2.46967L3.530484,2.469824ZM7.43852,6.37786L9.92712,8.86646Q10.83628,8.249929999999999,12.0005,8.250119999999999Q13.554,8.25037,14.6523,9.34867Q15.7508,10.44709,15.7508,12.0005Q15.7508,13.1646,15.1339,14.0732L17.8577,16.797Q20.3275,14.9616,21.2799,11.99781Q20.3455,9.08822,17.8788,7.22099Q15.2751,5.25,12,5.25Q9.548919999999999,5.2462800000000005,7.43852,6.37786ZM14.0361,12.97544Q14.2508,12.53243,14.2508,12.0005Q14.2508,11.06841,13.5917,10.40933Q12.93261,9.75027,12.00025,9.750119999999999Q11.46832,9.750029999999999,11.02507,9.96441L14.0361,12.97544Z" fill-rule="evenodd" fill="#000000" fill-opacity="1" style="mix-blend-mode:passthrough"/></g><g><path d="M4.552220015258789,8.707831572753907Q4.638310015258789,8.606227572753907,4.684150015258789,8.481198572753906Q4.730000015258788,8.356169572753906,4.730000015258788,8.222999572753906Q4.730000015258788,8.149131072753907,4.715590015258789,8.076681572753905Q4.701180015258789,8.004232572753907,4.67291001525879,7.935986572753906Q4.644640015258789,7.867741572753906,4.603600015258789,7.806321572753906Q4.562560015258789,7.744902572753906,4.5103300152587895,7.692669572753906Q4.458100015258789,7.640436572753906,4.39668001525879,7.599397572753906Q4.33526001525879,7.558358572753907,4.267010015258789,7.530089572753906Q4.1987700152587895,7.501821572753906,4.1263200152587896,7.487410572753906Q4.05387001525879,7.472999572753906,3.980000015258789,7.472999572753906Q3.8146700152587893,7.472999572753906,3.6646600152587894,7.542513572753906Q3.5146500152587894,7.612026572753907,3.407780015258789,7.7381685727539065L3.407240015258789,7.738806572753906Q1.8875693152587891,9.532659572753907,1.2153140152587891,11.785549572753906Q1.151382015258789,11.999799572753906,1.215204015258789,12.214079572753906Q2.265919015258789,15.741939572753907,5.215310015258789,17.97472957275391Q8.220840015258789,20.249999572753907,12.00000001525879,20.249999572753907Q13.196400015258789,20.249999572753907,15.066800015258789,19.721699572753906Q15.125400015258789,19.705199572753905,15.180500015258788,19.67939957275391Q15.23570001525879,19.653699572753908,15.28590001525879,19.619299572753906Q15.33620001525879,19.584999572753908,15.38030001525879,19.542999572753907Q15.424300015258789,19.50109957275391,15.46110001525879,19.452499572753908Q15.49780001525879,19.403999572753904,15.52620001525879,19.35019957275391Q15.554600015258789,19.296399572753906,15.57400001525879,19.23869957275391Q15.593400015258789,19.180999572753905,15.603200015258789,19.120899572753906Q15.61300001525879,19.060799572753908,15.61300001525879,18.999999572753907Q15.61300001525879,18.926099572753905,15.59860001525879,18.853699572753904Q15.584200015258789,18.781199572753906,15.55590001525879,18.71299957275391Q15.52760001525879,18.644699572753908,15.486600015258789,18.58329957275391Q15.445600015258789,18.521899572753906,15.39330001525879,18.469599572753907Q15.341100015258789,18.417399572753908,15.27970001525879,18.376399572753904Q15.218300015258789,18.335299572753904,15.150000015258788,18.307099572753906Q15.08180001525879,18.278799572753904,15.00930001525879,18.264399572753906Q14.93690001525879,18.249999572753907,14.86300001525879,18.249999572753907Q14.75910001525879,18.249999572753907,14.659200015258788,18.278199572753905Q12.98860001525879,18.749999572753907,12.00000001525879,18.749999572753907Q8.72458001525879,18.749999572753907,6.120690015258789,16.77876957275391Q3.653520015258789,14.911049572753907,2.719150015258789,12.000409572753906Q3.307830015258789,10.176519572753906,4.552220015258789,8.707831572753907Z" fill-rule="evenodd" fill="#000000" fill-opacity="1" style="mix-blend-mode:passthrough"/></g></g></svg>