<svg xmlns="http://www.w3.org/2000/svg" xmlns:xlink="http://www.w3.org/1999/xlink" fill="none" version="1.1" width="24" height="24" viewBox="0 0 24 24"><defs><clipPath id="master_svg0_5794_08715"><rect x="0" y="0" width="24" height="24" rx="0"/></clipPath></defs><g clip-path="url(#master_svg0_5794_08715)"><g><path d="M5.357071485595704,18.0801Q8.318251485595702,20.25,12.000041485595704,20.25Q15.683641485595704,20.25,18.645241485595704,18.078200000000002Q21.546341485595704,15.9508,22.673841485595702,12.55622Q22.862341485595703,11.99615,22.674541485595704,11.44088Q21.542941485595705,8.04522,18.642841485595703,5.91993Q15.681841485595703,3.75,12.000041485595704,3.75Q8.316491485595703,3.75,5.354631485595704,5.9218Q2.453477485595703,8.04909,1.324359485595703,11.44622Q1.139266485595703,12.002500000000001,1.3245204855957031,12.55927Q2.4569454855957034,15.9549,5.357071485595704,18.0801ZM17.758241485595704,16.8686Q15.192541485595703,18.75,12.000041485595704,18.75Q8.809011485595704,18.75,6.243681485595703,16.8702Q3.728801485595703,15.0273,2.747477485595703,12.08473Q2.720119485595703,12.002500000000001,2.7476404855957033,11.919789999999999Q3.726091485595703,8.97598,6.2416214855957035,7.13145Q8.807501485595704,5.25,12.000041485595704,5.25Q15.191041485595703,5.25,17.756141485595705,7.1298200000000005Q20.270941485595703,8.97271,21.251441485595702,11.91512Q21.279241485595705,11.997309999999999,21.252141485595704,12.07778Q20.273641485595704,15.024,17.758241485595704,16.8686Z" fill-rule="evenodd" fill="#000000" fill-opacity="1" style="mix-blend-mode:passthrough"/></g><g><path d="M14.65165,9.348349Q13.5533,8.25,12,8.25Q10.4467,8.25,9.348349,9.34835Q8.25,10.4467,8.25,12Q8.25,13.5533,9.34835,14.65165Q10.4467,15.75,12,15.75Q13.5533,15.75,14.65165,14.65165Q15.75,13.5533,15.75,12Q15.75,10.4467,14.65165,9.348349ZM10.40901,10.40901Q11.06802,9.75,12,9.75Q12.93198,9.75,13.59099,10.40901Q14.25,11.06802,14.25,12Q14.25,12.93198,13.59099,13.59099Q12.93198,14.25,12,14.25Q11.06802,14.25,10.40901,13.59099Q9.75,12.93198,9.75,12Q9.75,11.06802,10.40901,10.40901Z" fill-rule="evenodd" fill="#000000" fill-opacity="1" style="mix-blend-mode:passthrough"/></g></g></svg>