<svg xmlns="http://www.w3.org/2000/svg" xmlns:xlink="http://www.w3.org/1999/xlink" fill="none" version="1.1" width="24" height="24" viewBox="0 0 24 24"><defs><clipPath id="master_svg0_5917_02687"><rect x="0" y="0" width="24" height="24" rx="0"/></clipPath></defs><g clip-path="url(#master_svg0_5917_02687)"><g></g><g><path d="M13.25,3Q13.25,2.9261315,13.264410999999999,2.853682Q13.278822,2.781233,13.30709,2.712987Q13.335359,2.644742,13.376398,2.583322Q13.417437,2.521903,13.46967,2.46967Q13.521903,2.417437,13.583322,2.376398Q13.644742,2.335359,13.712987,2.30709Q13.781233,2.278822,13.853682,2.264411Q13.9261315,2.25,14,2.25Q14.0738685,2.25,14.146318,2.264411Q14.218767,2.278822,14.287013,2.30709Q14.355258,2.335359,14.416678,2.376398Q14.478097,2.417437,14.53033,2.46967Q14.582563,2.521903,14.623602,2.583322Q14.664641,2.644742,14.69291,2.712987Q14.721178,2.781233,14.735589000000001,2.853682Q14.75,2.9261315,14.75,3L14.75,7Q14.75,7.10355,14.823223,7.17678Q14.896447,7.25,15,7.25L19,7.25Q19.07387,7.25,19.14632,7.26441Q19.21877,7.27882,19.287010000000002,7.30709Q19.35526,7.33536,19.41668,7.3764Q19.4781,7.41744,19.53033,7.46967Q19.58256,7.5219,19.6236,7.58332Q19.66464,7.64474,19.69291,7.71299Q19.72118,7.78123,19.735590000000002,7.85368Q19.75,7.92613,19.75,8Q19.75,8.07387,19.735590000000002,8.14632Q19.72118,8.21877,19.69291,8.28701Q19.66464,8.355260000000001,19.6236,8.41668Q19.58256,8.478100000000001,19.53033,8.53033Q19.4781,8.58256,19.41668,8.6236Q19.35526,8.66464,19.287010000000002,8.692910000000001Q19.21877,8.72118,19.14632,8.73559Q19.07387,8.75,19,8.75L15,8.75Q14.275126,8.75,13.762563,8.23744Q13.25,7.72487,13.25,7L13.25,3Z" fill-rule="evenodd" fill="#000000" fill-opacity="1" style="mix-blend-mode:passthrough"/></g><g><path d="M18.944499999999998,20.9445Q19.75,20.1391,19.75,19L19.75,8Q19.75,7.85082,19.6929,7.71299Q19.6358,7.57516,19.5303,7.46967L14.53033,2.46967Q14.42484,2.364181,14.28701,2.30709Q14.14918,2.25,14,2.25L7,2.25Q5.860913,2.25,5.0554564,3.0554563Q4.25,3.860913,4.25,5L4.25,19Q4.25,20.1391,5.0554568,20.9445Q5.860913,21.75,7,21.75L17,21.75Q18.1391,21.75,18.944499999999998,20.9445ZM18.25,8.31066L18.25,19Q18.25,19.5178,17.8839,19.8839Q17.5178,20.25,17,20.25L7,20.25Q6.4822299999999995,20.25,6.1161200000000004,19.8839Q5.75,19.5178,5.75,19L5.75,5Q5.75,4.4822299999999995,6.1161200000000004,4.1161200000000004Q6.4822299999999995,3.75,7,3.75L13.68934,3.75L18.25,8.31066Z" fill-rule="evenodd" fill="#000000" fill-opacity="1" style="mix-blend-mode:passthrough"/></g></g></svg>