<svg xmlns="http://www.w3.org/2000/svg" xmlns:xlink="http://www.w3.org/1999/xlink" fill="none" version="1.1" width="24" height="24" viewBox="0 0 24 24"><defs><clipPath id="master_svg0_5810_08794"><rect x="0" y="0" width="24" height="24" rx="0"/></clipPath></defs><g clip-path="url(#master_svg0_5810_08794)"><g></g><g><path d="M13.250244140625,3Q13.250244140625,2.9261315,13.264655140624999,2.853682Q13.279066140625,2.781233,13.307334140625,2.712987Q13.335603140625,2.644742,13.376642140625,2.583322Q13.417681140625,2.521903,13.469914140625,2.46967Q13.522147140625,2.417437,13.583566140625,2.376398Q13.644986140625,2.335359,13.713231140625,2.30709Q13.781477140625,2.278822,13.853926140625,2.264411Q13.926375640625,2.25,14.000244140625,2.25Q14.074112640625,2.25,14.146562140625,2.264411Q14.219011140625,2.278822,14.287257140625,2.30709Q14.355502140625,2.335359,14.416922140625,2.376398Q14.478341140625,2.417437,14.530574140625,2.46967Q14.582807140625,2.521903,14.623846140625,2.583322Q14.664885140625,2.644742,14.693154140625,2.712987Q14.721422140625,2.781233,14.735833140625001,2.853682Q14.750244140625,2.9261315,14.750244140625,3L14.750244140625,7Q14.750244140625,7.25,15.000244140625,7.25L19.000244140625,7.25Q19.074114140625,7.25,19.146564140625,7.26441Q19.219014140625,7.27882,19.287254140625002,7.30709Q19.355504140625,7.33536,19.416924140625,7.3764Q19.478344140625,7.41744,19.530574140625,7.46967Q19.582804140625,7.5219,19.623844140625,7.58332Q19.664884140625,7.64474,19.693154140625,7.71299Q19.721424140625,7.78123,19.735834140625002,7.85368Q19.750244140625,7.92613,19.750244140625,8Q19.750244140625,8.07387,19.735834140625002,8.14632Q19.721424140625,8.21877,19.693154140625,8.28701Q19.664884140625,8.355260000000001,19.623844140625,8.41668Q19.582804140625,8.478100000000001,19.530574140625,8.53033Q19.478344140625,8.58256,19.416924140625,8.6236Q19.355504140625,8.66464,19.287254140625002,8.692910000000001Q19.219014140625,8.72118,19.146564140625,8.73559Q19.074114140625,8.75,19.000244140625,8.75L15.000244140625,8.75Q14.275370140625,8.75,13.762807140625,8.23744Q13.250244140625,7.72487,13.250244140625,7L13.250244140625,3Z" fill-rule="evenodd" fill="#000000" fill-opacity="1"/></g><g><path d="M18.944744140624998,20.9445Q19.750244140625,20.1391,19.750244140625,19L19.750244140625,8Q19.750244140625,7.85082,19.693144140625,7.71299Q19.636044140625,7.57516,19.530544140625,7.46967L14.530574140625,2.46967Q14.425084140625,2.364181,14.287254140625,2.30709Q14.149424140625,2.25,14.000244140625,2.25L7.000244140625,2.25Q5.861157140625,2.25,5.055700540625,3.0554563Q4.250244140625,3.860913,4.250244140625,5L4.250244140625,19Q4.250244140625,20.1391,5.055700940625,20.9445Q5.861157140625,21.75,7.000244140625,21.75L17.000244140625,21.75Q18.139344140625,21.75,18.944744140624998,20.9445ZM18.250244140625,8.31066L18.250244140625,19Q18.250244140625,19.5178,17.884144140625,19.8839Q17.518044140625,20.25,17.000244140625,20.25L7.000244140625,20.25Q6.4824741406249995,20.25,6.1163641406250004,19.8839Q5.750244140625,19.5178,5.750244140625,19L5.750244140625,5Q5.750244140625,4.4822299999999995,6.1163641406250004,4.1161200000000004Q6.4824741406249995,3.75,7.000244140625,3.75L13.689584140625,3.75L18.250244140625,8.31066Z" fill-rule="evenodd" fill="#000000" fill-opacity="1"/></g><g><path d="M11.25,10.9998779296875Q11.25,10.9260094296875,11.264410999999999,10.8535599296875Q11.278822,10.7811109296875,11.30709,10.7128649296875Q11.335359,10.6446199296875,11.376398,10.5831999296875Q11.417437,10.5217809296875,11.46967,10.4695479296875Q11.521903,10.4173149296875,11.583322,10.3762759296875Q11.644742,10.3352369296875,11.712987,10.3069679296875Q11.781233,10.2786999296875,11.853682,10.264288929687499Q11.9261315,10.2498779296875,12,10.2498779296875Q12.0738685,10.2498779296875,12.146318,10.264288929687499Q12.218767,10.2786999296875,12.287013,10.3069679296875Q12.355258,10.3352369296875,12.416678,10.3762759296875Q12.478097,10.4173149296875,12.53033,10.4695479296875Q12.582563,10.5217809296875,12.623602,10.5831999296875Q12.664641,10.6446199296875,12.69291,10.7128649296875Q12.721178,10.7811109296875,12.735589000000001,10.8535599296875Q12.75,10.9260094296875,12.75,10.9998779296875L12.75,16.9998779296875Q12.75,17.0737479296875,12.735589000000001,17.1461979296875Q12.721178,17.2186479296875,12.69291,17.286887929687502Q12.664641,17.3551379296875,12.623602,17.4165579296875Q12.582563,17.4779779296875,12.53033,17.5302079296875Q12.478097,17.5824379296875,12.416678,17.6234779296875Q12.355258,17.6645179296875,12.287013,17.6927879296875Q12.218767,17.7210579296875,12.146318,17.735467929687502Q12.0738685,17.7498779296875,12,17.7498779296875Q11.9261315,17.7498779296875,11.853682,17.735467929687502Q11.781233,17.7210579296875,11.712987,17.6927879296875Q11.644742,17.6645179296875,11.583322,17.6234779296875Q11.521903,17.5824379296875,11.46967,17.5302079296875Q11.417437,17.4779779296875,11.376398,17.4165579296875Q11.335359,17.3551379296875,11.30709,17.286887929687502Q11.278822,17.2186479296875,11.264410999999999,17.1461979296875Q11.25,17.0737479296875,11.25,16.9998779296875L11.25,10.9998779296875Z" fill-rule="evenodd" fill="#000000" fill-opacity="1"/></g><g><path d="M10.030728140625,13.9699460703125L12.000244140625,15.9394620703125L13.969454140625,13.9702540703125L13.969914140625,13.9697920703125Q14.075404140625,13.8643030703125,14.213234140625,13.8072120703125Q14.351064140624999,13.7501220703125,14.500244140625,13.7501220703125Q14.574114140625,13.7501220703125,14.646564140625,13.764533070312499Q14.719014140625,13.7789440703125,14.787254140625,13.8072120703125Q14.855504140625001,13.8354810703125,14.916924140625,13.8765200703125Q14.978344140625001,13.9175590703125,15.030574140625,13.9697920703125Q15.082804140625,14.0220250703125,15.123844140625,14.0834440703125Q15.164884140625,14.1448640703125,15.193154140625001,14.2131090703125Q15.221424140625,14.2813550703125,15.235834140625,14.3538040703125Q15.250244140625,14.4262535703125,15.250244140625,14.5001220703125Q15.250244140625,14.6493060703125,15.193154140625001,14.7871350703125Q15.136064140624999,14.9249630703125,15.030574140625,15.0304520703125L15.030114140624999,15.0309140703125L12.530574140625,17.5304520703125Q12.425084140625,17.6359420703125,12.287254140625,17.6930320703125Q12.149424140625,17.7501220703125,12.000244140625,17.7501220703125Q11.851064140625,17.7501220703125,11.713234140625,17.6930320703125Q11.575404140625,17.6359420703125,11.469914140625,17.5304520703125L8.969914140625,15.0304520703125Q8.864425140625,14.9249630703125,8.807334140625,14.7871350703125Q8.750244140625,14.6493060703125,8.750244140625,14.5001220703125Q8.750244140625,14.4262535703125,8.764655140624999,14.3538040703125Q8.779066140625,14.2813550703125,8.807334140625,14.2131090703125Q8.835603140625,14.1448640703125,8.876642140625,14.0834440703125Q8.917681140625,14.0220250703125,8.969914140625,13.9697920703125Q9.022147140625,13.9175590703125,9.083566140625,13.8765200703125Q9.144986140625,13.8354810703125,9.213231140625,13.8072120703125Q9.281477140625,13.7789440703125,9.353926140625,13.764533070312499Q9.426375640625,13.7501220703125,9.500244140625,13.7501220703125Q9.649428140625,13.7501220703125,9.787257140625,13.8072120703125Q9.925085140625,13.8643030703125,10.030574140625,13.9697920703125L10.030728140625,13.9699460703125Z" fill-rule="evenodd" fill="#000000" fill-opacity="1"/></g></g></svg>