<svg xmlns="http://www.w3.org/2000/svg" xmlns:xlink="http://www.w3.org/1999/xlink" fill="none" version="1.1" width="24" height="24" viewBox="0 0 24 24"><defs><clipPath id="master_svg0_5810_08964"><rect x="0" y="0" width="24" height="24" rx="0"/></clipPath></defs><g clip-path="url(#master_svg0_5810_08964)"><g></g><g><path d="M13.25,3Q13.25,2.9261315,13.264410999999999,2.853682Q13.278822,2.781233,13.30709,2.712987Q13.335359,2.644742,13.376398,2.583322Q13.417437,2.521903,13.46967,2.46967Q13.521903,2.417437,13.583322,2.376398Q13.644742,2.335359,13.712987,2.30709Q13.781233,2.278822,13.853682,2.264411Q13.9261315,2.25,14,2.25Q14.0738685,2.25,14.146318,2.264411Q14.218767,2.278822,14.287013,2.30709Q14.355258,2.335359,14.416678,2.376398Q14.478097,2.417437,14.53033,2.46967Q14.582563,2.521903,14.623602,2.583322Q14.664641,2.644742,14.69291,2.712987Q14.721178,2.781233,14.735589000000001,2.853682Q14.75,2.9261315,14.75,3L14.75,7Q14.75,7.10355,14.823223,7.17678Q14.896447,7.25,15,7.25L19,7.25Q19.07387,7.25,19.14632,7.26441Q19.21877,7.27882,19.287010000000002,7.30709Q19.35526,7.33536,19.41668,7.3764Q19.4781,7.41744,19.53033,7.46967Q19.58256,7.5219,19.6236,7.58332Q19.66464,7.64474,19.69291,7.71299Q19.72118,7.78123,19.735590000000002,7.85368Q19.75,7.92613,19.75,8Q19.75,8.07387,19.735590000000002,8.14632Q19.72118,8.21877,19.69291,8.28701Q19.66464,8.355260000000001,19.6236,8.41668Q19.58256,8.478100000000001,19.53033,8.53033Q19.4781,8.58256,19.41668,8.6236Q19.35526,8.66464,19.287010000000002,8.692910000000001Q19.21877,8.72118,19.14632,8.73559Q19.07387,8.75,19,8.75L15,8.75Q14.275126,8.75,13.762563,8.23744Q13.25,7.72487,13.25,7L13.25,3Z" fill-rule="evenodd" fill="#000000" fill-opacity="1" style="mix-blend-mode:passthrough"/></g><g><path d="M18.25,8.31066L18.25,13Q18.25,13.0739,18.264400000000002,13.1463Q18.2788,13.2188,18.3071,13.287Q18.3354,13.3553,18.3764,13.4167Q18.4174,13.4781,18.4697,13.5303Q18.521900000000002,13.5826,18.5833,13.6236Q18.6447,13.6646,18.713,13.6929Q18.7812,13.7212,18.8537,13.7356Q18.926099999999998,13.75,19,13.75Q19.073900000000002,13.75,19.1463,13.7356Q19.2188,13.7212,19.287,13.6929Q19.3553,13.6646,19.4167,13.6236Q19.478099999999998,13.5826,19.5303,13.5303Q19.5826,13.4781,19.6236,13.4167Q19.6646,13.3553,19.6929,13.287Q19.7212,13.2188,19.735599999999998,13.1463Q19.75,13.0739,19.75,13L19.75,8Q19.75,7.85082,19.6929,7.71299Q19.6358,7.57516,19.5303,7.46967L14.53033,2.46967Q14.42484,2.364181,14.28701,2.30709Q14.14918,2.25,14,2.25L7,2.25Q5.860913,2.25,5.0554564,3.0554564Q4.25,3.860913,4.25,5L4.25,19Q4.25,20.1391,5.0554565,20.9445Q5.860912,21.75,7,21.75L11.5,21.75Q11.57387,21.75,11.64632,21.7356Q11.71877,21.7212,11.78701,21.6929Q11.855260000000001,21.6646,11.91668,21.6236Q11.978100000000001,21.5826,12.03033,21.5303Q12.08256,21.4781,12.1236,21.4167Q12.16464,21.3553,12.192910000000001,21.287Q12.22118,21.2188,12.23559,21.1463Q12.25,21.0739,12.25,21Q12.25,20.9261,12.23559,20.8537Q12.22118,20.7812,12.192910000000001,20.713Q12.16464,20.6447,12.1236,20.5833Q12.08256,20.5219,12.03033,20.4697Q11.978100000000001,20.4174,11.91668,20.3764Q11.855260000000001,20.3354,11.78701,20.3071Q11.71877,20.2788,11.64632,20.2644Q11.57387,20.25,11.5,20.25L7,20.25Q5.75,20.25,5.75,19L5.75,5Q5.75,3.75,7,3.75L13.68934,3.75L18.25,8.31066ZM18.531,15.4703L21.5303,18.4697Q21.5826,18.521900000000002,21.6236,18.5833Q21.6646,18.6447,21.6929,18.713Q21.7212,18.7812,21.7356,18.8537Q21.75,18.926099999999998,21.75,19Q21.75,19.0739,21.7356,19.1463Q21.7212,19.2188,21.6929,19.287Q21.6646,19.3553,21.6236,19.4167Q21.5826,19.4781,21.5303,19.5303L18.5303,22.5303Q18.424799999999998,22.6358,18.287,22.6929Q18.1492,22.75,18,22.75Q17.926099999999998,22.75,17.8537,22.7356Q17.7812,22.7212,17.713,22.6929Q17.6447,22.6646,17.5833,22.6236Q17.521900000000002,22.5826,17.4697,22.5303Q17.4174,22.4781,17.3764,22.4167Q17.3354,22.3553,17.3071,22.287Q17.2788,22.2188,17.264400000000002,22.1463Q17.25,22.0739,17.25,22Q17.25,21.8508,17.3071,21.713Q17.3642,21.5752,17.4697,21.4697L19.1893,19.75L14,19.75Q13.92613,19.75,13.85368,19.7356Q13.78123,19.7212,13.71299,19.6929Q13.64474,19.6646,13.58332,19.6236Q13.5219,19.5826,13.46967,19.5303Q13.41744,19.4781,13.3764,19.4167Q13.33536,19.3553,13.30709,19.287Q13.27882,19.2188,13.26441,19.1463Q13.25,19.0739,13.25,19Q13.25,18.926099999999998,13.26441,18.8537Q13.27882,18.7812,13.30709,18.713Q13.33536,18.6447,13.3764,18.5833Q13.41744,18.521900000000002,13.46967,18.4697Q13.5219,18.4174,13.58332,18.3764Q13.64474,18.3354,13.71299,18.3071Q13.78123,18.2788,13.85368,18.264400000000002Q13.92613,18.25,14,18.25L19.1893,18.25L17.4703,16.531L17.4697,16.5303Q17.3642,16.424799999999998,17.3071,16.287Q17.25,16.1492,17.25,16Q17.25,15.9261,17.264400000000002,15.8537Q17.2788,15.7812,17.3071,15.713Q17.3354,15.6447,17.3764,15.5833Q17.4174,15.5219,17.4697,15.4697Q17.521900000000002,15.4174,17.5833,15.3764Q17.6447,15.3354,17.713,15.3071Q17.7812,15.2788,17.8537,15.2644Q17.926099999999998,15.25,18,15.25Q18.1492,15.25,18.287,15.3071Q18.424799999999998,15.3642,18.5303,15.4697L18.531,15.4703Z" fill-rule="evenodd" fill="#000000" fill-opacity="1" style="mix-blend-mode:passthrough"/></g></g></svg>