<svg xmlns="http://www.w3.org/2000/svg" xmlns:xlink="http://www.w3.org/1999/xlink" fill="none" version="1.1" width="24" height="24" viewBox="0 0 24 24"><defs><clipPath id="master_svg0_91_08990"><rect x="0" y="0" width="24" height="24" rx="0"/></clipPath></defs><g clip-path="url(#master_svg0_91_08990)"><g><path d="M15,3L7,3C5.895431,3,5,3.895431,5,5L5,19C5,20.1046,5.895431,21,7,21L17,21C18.104599999999998,21,19,20.1046,19,19L19,7L15,3Z" fill="#00BFFF" fill-opacity="1"/><path d="M18.944499999999998,20.9445Q19.75,20.1391,19.75,19L19.75,7Q19.75,6.850820000000001,19.6929,6.71299Q19.6358,6.57516,19.5303,6.46967L15.5303,2.46967Q15.4248,2.364181,15.287,2.30709Q15.1492,2.25,15,2.25L7,2.25Q5.860913,2.25,5.0554564,3.0554564Q4.25,3.860913,4.25,5L4.25,19Q4.25,20.1391,5.0554563,20.9445Q5.860912,21.75,7,21.75L17,21.75Q18.1391,21.75,18.944499999999998,20.9445ZM18.25,7.31066L18.25,19Q18.25,19.5178,17.8839,19.8839Q17.5178,20.25,17,20.25L7,20.25Q6.4822299999999995,20.25,6.1161200000000004,19.8839Q5.75,19.5178,5.75,19L5.75,5Q5.75,4.4822299999999995,6.1161200000000004,4.1161200000000004Q6.4822299999999995,3.75,7,3.75L14.68934,3.75L18.25,7.31066Z" fill-rule="evenodd" fill="#00BFFF" fill-opacity="1"/></g><g><path d="M15,3L15,6C15,6.55228,15.447715,7,16,7L19,7" fill="#C3F0FF" fill-opacity="1"/><path d="M19.75,7Q19.75,6.850820000000001,19.69291,6.71299Q19.63582,6.57516,19.53033,6.46967L15.53033,2.46967Q15.478097,2.417437,15.416678,2.376398Q15.355258,2.335359,15.287013,2.30709Q15.218767,2.278822,15.146318,2.264411Q15.0738685,2.25,15,2.25Q14.9261315,2.25,14.853682,2.264411Q14.781233,2.278822,14.712987,2.30709Q14.644742,2.335359,14.583322,2.376398Q14.521903,2.417437,14.46967,2.46967Q14.364181,2.575159,14.30709,2.712987Q14.25,2.850816,14.25,3L14.25,6Q14.25,6.72487,14.762563,7.23744Q15.275126,7.75,16,7.75L19,7.75Q19.07387,7.75,19.14632,7.73559Q19.21877,7.72118,19.287010000000002,7.69291Q19.35526,7.66464,19.41668,7.6236Q19.4781,7.58256,19.53033,7.53033Q19.58256,7.4781,19.6236,7.41668Q19.66464,7.35526,19.69291,7.28701Q19.72118,7.21877,19.735590000000002,7.14632Q19.75,7.07387,19.75,7ZM17.18934,6.25L15.75,4.81066L15.75,6Q15.75,6.25,16,6.25L17.18934,6.25Z" fill-rule="evenodd" fill="#C3F0FF" fill-opacity="1"/></g><g><path d="M13.7,11L10.7,11L9.5,15.6L11.1,15.6L10.3,19L15.5,13.4L13.1,13.4L13.7,11Z" fill="#FFFFFF" fill-opacity="1"/></g></g></svg>