<svg xmlns="http://www.w3.org/2000/svg" xmlns:xlink="http://www.w3.org/1999/xlink" fill="none" version="1.1" width="24" height="24" viewBox="0 0 24 24"><defs><clipPath id="master_svg0_5898_02679"><rect x="0" y="0" width="24" height="24" rx="0"/></clipPath></defs><g clip-path="url(#master_svg0_5898_02679)"><g></g><g transform="matrix(1,0,0,-1,0,36)"><path d="M9,17.25L15,17.25Q15.07387,17.25,15.14632,17.264411Q15.21877,17.278822,15.28701,17.30709Q15.355260000000001,17.335359,15.41668,17.376398000000002Q15.478100000000001,17.417437,15.53033,17.46967Q15.58256,17.521903000000002,15.6236,17.583322Q15.66464,17.644742,15.692910000000001,17.712987Q15.72118,17.781233,15.73559,17.853682Q15.75,17.9261315,15.75,18Q15.75,18.0738685,15.73559,18.146318Q15.72118,18.218767,15.692910000000001,18.287013Q15.66464,18.355258,15.6236,18.416678Q15.58256,18.478096999999998,15.53033,18.53033Q15.478100000000001,18.582563,15.41668,18.623601999999998Q15.355260000000001,18.664641,15.28701,18.69291Q15.21877,18.721178,15.14632,18.735589Q15.07387,18.75,15,18.75L9,18.75Q8.9261315,18.75,8.853682,18.735589Q8.781233,18.721178,8.712987,18.69291Q8.644742,18.664641,8.583322,18.623601999999998Q8.521903,18.582563,8.46967,18.53033Q8.417437,18.478096999999998,8.376398,18.416678Q8.335359,18.355258,8.30709,18.287013Q8.278822,18.218767,8.264410999999999,18.146318Q8.25,18.0738685,8.25,18Q8.25,17.9261315,8.264410999999999,17.853682Q8.278822,17.781233,8.30709,17.712987Q8.335359,17.644742,8.376398,17.583322Q8.417437,17.521903000000002,8.46967,17.46967Q8.521903,17.417437,8.583322,17.376398000000002Q8.644742,17.335359,8.712987,17.30709Q8.781233,17.278822,8.853682,17.264411Q8.9261315,17.25,9,17.25Z" fill-rule="evenodd" fill="#000000" fill-opacity="1" style="mix-blend-mode:passthrough"/></g><g transform="matrix(1,0,0,-1,0,24)"><path d="M6,11.25L18,11.25Q18.073900000000002,11.25,18.1463,11.264410999999999Q18.2188,11.278822,18.287,11.30709Q18.3553,11.335359,18.4167,11.376398Q18.478099999999998,11.417437,18.5303,11.46967Q18.5826,11.521903,18.6236,11.583322Q18.6646,11.644742,18.6929,11.712987Q18.7212,11.781233,18.735599999999998,11.853682Q18.75,11.9261315,18.75,12Q18.75,12.0738685,18.735599999999998,12.146318Q18.7212,12.218767,18.6929,12.287013Q18.6646,12.355258,18.6236,12.416678Q18.5826,12.478097,18.5303,12.53033Q18.478099999999998,12.582563,18.4167,12.623602Q18.3553,12.664641,18.287,12.69291Q18.2188,12.721178,18.1463,12.735589000000001Q18.073900000000002,12.75,18,12.75L6,12.75Q5.9261315,12.75,5.853682,12.735589000000001Q5.781233,12.721178,5.712987,12.69291Q5.644742,12.664641,5.583322,12.623602Q5.521903,12.582563,5.46967,12.53033Q5.417437,12.478097,5.376398,12.416678Q5.335359,12.355258,5.30709,12.287013Q5.278822,12.218767,5.264411,12.146318Q5.25,12.0738685,5.25,12Q5.25,11.9261315,5.264411,11.853682Q5.278822,11.781233,5.30709,11.712987Q5.335359,11.644742,5.376398,11.583322Q5.417437,11.521903,5.46967,11.46967Q5.521903,11.417437,5.583322,11.376398Q5.644742,11.335359,5.712987,11.30709Q5.781233,11.278822,5.853682,11.264410999999999Q5.9261315,11.25,6,11.25Z" fill-rule="evenodd" fill="#000000" fill-opacity="1" style="mix-blend-mode:passthrough"/></g><g transform="matrix(1,0,0,-1,0,12)"><path d="M3,5.25L21,5.25Q21.0739,5.25,21.1463,5.264411Q21.2188,5.278822,21.287,5.30709Q21.3553,5.335359,21.4167,5.376398Q21.4781,5.417437,21.5303,5.46967Q21.5826,5.521903,21.6236,5.583322Q21.6646,5.644742,21.6929,5.712987Q21.7212,5.781233,21.7356,5.853682Q21.75,5.9261315,21.75,6Q21.75,6.0738685,21.7356,6.146318Q21.7212,6.218767,21.6929,6.287013Q21.6646,6.355258,21.6236,6.416678Q21.5826,6.478097,21.5303,6.53033Q21.4781,6.582563,21.4167,6.623602Q21.3553,6.664641,21.287,6.69291Q21.2188,6.721178,21.1463,6.735589Q21.0739,6.75,21,6.75L3,6.75Q2.9261315,6.75,2.853682,6.735589Q2.781233,6.721178,2.712987,6.69291Q2.644742,6.664641,2.583322,6.623602Q2.521903,6.582563,2.46967,6.53033Q2.417437,6.478097,2.376398,6.416678Q2.335359,6.355258,2.30709,6.287013Q2.278822,6.218767,2.264411,6.146318Q2.25,6.0738685,2.25,6Q2.25,5.9261315,2.264411,5.853682Q2.278822,5.781233,2.30709,5.712987Q2.335359,5.644742,2.376398,5.583322Q2.417437,5.521903,2.46967,5.46967Q2.521903,5.417437,2.583322,5.376398Q2.644742,5.335359,2.712987,5.30709Q2.781233,5.278822,2.853682,5.264411Q2.9261315,5.25,3,5.25Z" fill-rule="evenodd" fill="#000000" fill-opacity="1" style="mix-blend-mode:passthrough"/></g></g></svg>