<svg id="图层_1" data-name="图层 1" xmlns="http://www.w3.org/2000/svg" viewBox="0 0 24 24"><path d="M22.66,2.21A3.06,3.06,0,0,0,19.79.37H4.21A3.08,3.08,0,0,0,1.34,2.2a2.76,2.76,0,0,0,.61,3L7.23,10.6h0l1.1,1.11c.32.33,0,.86,0,1.34v5.29a1.06,1.06,0,0,0,2.11,0V13.06a3.74,3.74,0,0,0-.7-2.75L5.1,5.58h0L3.38,3.82A.72.72,0,0,1,3.19,3c.12-.3.36-.49.92-.49H20c.57,0,.72.19.84.49a.74.74,0,0,1-.21.85L15.65,9a1,1,0,0,0-.12.17l-1.1,1.14a3.81,3.81,0,0,0-.81,2.74v9.52a1.06,1.06,0,0,0,2.12,0V13.06c0-.48-.21-1,.13-1.34L20.5,6.83,22,5.24a2.72,2.72,0,0,0,.63-3Z"/></svg>