<svg xmlns="http://www.w3.org/2000/svg" xmlns:xlink="http://www.w3.org/1999/xlink" fill="none" version="1.1" width="24" height="24" viewBox="0 0 24 24"><defs><clipPath id="master_svg0_5824_08814"><rect x="0" y="0" width="24" height="24" rx="0"/></clipPath></defs><g clip-path="url(#master_svg0_5824_08814)"><g><path d="M4.624863,10.83969103515625Q3.75,12.26226103515625,3.75,14.70916103515625Q3.75,18.13896103515625,6.18798,20.46746103515625Q8.57791,22.75006103515625,12,22.75006103515625Q15.4123,22.75006103515625,17.8201,20.37956103515625Q20.2499,17.98746103515625,20.2499,14.54916103515625Q20.2499,12.45436103515625,19.589399999999998,10.46909103515625Q18.9805,8.63896103515625,18.2421,7.34278103515625Q18.168300000000002,7.21315103515625,18.0505,7.12165103515625Q17.9326,7.03015103515625,17.788800000000002,6.99070103515625Q17.6449,6.95126103515625,17.4969,6.96987103515625Q17.3488,6.98849103515625,17.2192,7.06233103515625Q17.1428,7.10588103515625,17.0785,7.16595103515625Q17.014200000000002,7.22601103515625,16.9655,7.29933103515625Q16.9169,7.37265103515625,16.886499999999998,7.45524103515625Q16.856099999999998,7.53782103515625,16.8457,7.62520103515625Q16.7088,8.773591035156251,16.026400000000002,9.62486103515625Q15.9049,9.24188103515625,15.7384,8.76922103515625Q14.9987,6.66942103515625,14.12825,5.3941910351562505Q13.00576,3.7498110351562497,10.53559,1.79372203515625Q10.20798,1.5342870351562499,10.067129999999999,1.4192300351562501Q9.9516,1.3248490351562499,9.80874,1.2818660351562499Q9.66588,1.23888203515625,9.51745,1.25384003515625Q9.369019999999999,1.26879803515625,9.23761,1.33942003515625Q9.106200000000001,1.4100420351562502,9.01182,1.52557703515625Q8.92976,1.62602303515625,8.88621,1.74819103515625Q8.842649999999999,1.87036003515625,8.842649999999999,2.00006103515625Q8.842649999999999,4.8181110351562495,7.88049,6.62765103515625Q7.3993400000000005,7.53255103515625,6.7890999999999995,8.20436103515625Q6.59499,8.41804103515625,6.47654,8.550771035156249Q6.29547,8.753661035156249,5.99121,9.08040103515625Q5.153883,9.97958103515625,4.624863,10.83969103515625ZM7.224,19.38276103515625Q5.25,17.49736103515625,5.25,14.70916103515625Q5.25,12.68656103515625,5.90254,11.62553103515625Q6.35335,10.89257103515625,7.0889500000000005,10.10264103515625Q7.4040300000000006,9.76428103515625,7.5956600000000005,9.549551035156249Q7.70975,9.42171103515625,7.89941,9.212931035156249Q8.635729999999999,8.40233103515625,9.20491,7.33187103515625Q10.06124,5.72135103515625,10.27305,3.5147310351562497Q12.047139999999999,5.00606103515625,12.88935,6.23983103515625Q13.64912,7.35294103515625,14.32357,9.26759103515625Q14.8555,10.77779103515625,14.8555,11.04136103515625Q14.8555,11.16531103515625,14.8954,11.28268103515625Q14.9353,11.40004103515625,15.0108,11.49833103515625Q15.1017,11.61662103515625,15.231,11.69113103515625Q15.3602,11.76564103515625,15.5082,11.78501103515625Q15.6561,11.80438103515625,15.8001,11.76567103515625Q15.9442,11.72696103515625,16.0625,11.63607103515625Q16.0792,11.62323103515625,16.128,11.58691103515625Q17.1737,10.80773103515625,17.7345,9.75992103515625Q17.9574,10.31529103515625,18.1661,10.94262103515625Q18.7499,12.69736103515625,18.7499,14.54916103515625Q18.7499,17.35926103515625,16.7678,19.31066103515625Q14.7979,21.25006103515625,12,21.25006103515625Q9.17915,21.25006103515625,7.224,19.38276103515625Z" fill-rule="evenodd" fill="#000000" fill-opacity="1"/></g></g></svg>