<svg xmlns="http://www.w3.org/2000/svg" xmlns:xlink="http://www.w3.org/1999/xlink" fill="none" version="1.1" width="24" height="24" viewBox="0 0 24 24"><defs><clipPath id="master_svg0_5445_06502"><rect x="0" y="0" width="24" height="24" rx="0"/></clipPath><clipPath id="master_svg1_5445_06503"><rect x="0" y="0" width="24" height="24" rx="0"/></clipPath></defs><g clip-path="url(#master_svg0_5445_06502)"><g clip-path="url(#master_svg1_5445_06503)"></g><g><g><g><path d="M17.437498211860657,14.437512338161469C17.437498211860657,14.636424338161468,17.516518211860657,14.827192338161469,17.657168211860657,14.967842338161468L17.657168211860657,14.967842338161468L19.118918211860656,16.42959233816147L19.157168211860657,16.467842338161468Q19.695468211860657,17.01707233816147,19.687778211860657,17.793572338161468Q19.680088211860657,18.570072338161467,19.125638211860657,19.113762338161468L19.082168211860655,19.15718233816147Q18.532778211860656,19.69564233816147,17.756058211860655,19.68779233816147Q16.979328211860658,19.67995233816147,16.435708211860657,19.125122338161468L14.218068211860658,16.907422338161467C14.077178211860657,16.76653233816147,13.886410211860657,16.68751233816147,13.687498211860657,16.68751233816147C13.273284211860657,16.68751233816147,12.937498211860657,17.023302338161468,12.937498211860657,17.43751233816147C12.937498211860657,17.63642233816147,13.016515811860657,17.827192338161467,13.157168211860657,17.967842338161468L15.364288211860657,20.17490233816147Q16.342808211860657,21.17360233816147,17.740908211860656,21.187722338161468Q19.139008211860656,21.20184233816147,20.142828211860657,20.217842338161468L20.175858211860657,20.18476233816147Q21.173868211860658,19.206122338161467,21.187708211860656,17.80842233816147Q21.201538211860658,16.41072233816147,20.217828211860656,15.40718233816147L20.179578211860658,15.368932338161468L18.717828211860656,13.90718233816147C18.577178211860655,13.766529938161469,18.386408211860655,13.687512338161469,18.187498211860657,13.687512338161469C17.773288211860656,13.687512338161469,17.437498211860657,14.023298338161469,17.437498211860657,14.437512338161469Z" fill-rule="evenodd" fill="#38363C" fill-opacity="1" style="mix-blend-mode:passthrough"/></g><g><path d="M9.24141911594391,12.146314196662903L9.24141911594391,12.146314196662903L3.9029191159439085,6.807814196662903C3.610025715943909,6.5149241966629035,3.610025715943909,6.040044196662903,3.9029191159439085,5.747154196662903L5.809419115943909,3.8406541966629026C6.102309115943909,3.547760896662903,6.577189115943909,3.5477609966629027,6.870079115943909,3.8406541966629026L12.336079115943908,9.306654196662903C12.47672911594391,9.447304196662902,12.55574911594391,9.638074196662902,12.55574911594391,9.836984196662904C12.55574911594391,10.251194196662903,12.219959115943908,10.586984196662904,11.80574911594391,10.586984196662904C11.60683911594391,10.586984196662904,11.416069115943909,10.507964196662904,11.275419115943908,10.367314196662903L6.339749115943908,5.431644196662903L5.493909115943909,6.277484196662902L10.302079115943908,11.085654196662903C10.442729115943909,11.226304196662902,10.521749115943908,11.417074196662902,10.521749115943908,11.615984196662904C10.521749115943908,12.030194196662903,10.18595911594391,12.365984196662902,9.771749115943908,12.365984196662902C9.572839115943909,12.365984196662902,9.38206911594391,12.286964196662902,9.24141911594391,12.146314196662903Z" fill-rule="evenodd" fill="#38363C" fill-opacity="1" style="mix-blend-mode:passthrough"/></g><g><path d="M20.991374231147766,9.545315187282561Q20.148774231147765,12.444155187282563,17.191074231147766,13.055505187282563C17.177074231147767,13.058395187282562,17.163074231147768,13.060885187282562,17.148874231147765,13.062975187282563Q16.133174231147766,13.213095187282562,15.142074231147767,13.008265187282563L8.907724231147766,20.017095187282564Q8.783454231147765,20.166495187282564,8.646664231147767,20.294995187282563Q7.685024231147766,21.21649518728256,6.353454231147766,21.187895187282564Q5.021874231147766,21.159195187282563,4.091388231147766,20.187195187282562Q4.088097231147766,20.183695187282563,4.080546231147766,20.17559518728256Q4.0473182311477665,20.139895187282562,4.024963231147766,20.11409518728256Q3.116098631147766,19.09129518728256,3.194264351147766,17.72419518728256Q3.272624031147766,16.353795187282564,4.300444231147766,15.437095187282562L11.321724231147765,9.250765187282562Q11.199584231147766,8.768875187282562,11.203424231147766,8.263005187282563Q11.162864231147765,6.306965187282563,12.470304231147766,4.849245187282563Q13.775374231147767,3.3942181872825623,15.719474231147766,3.220501387282562Q16.79687423114777,3.0752141872825622,17.795774231147767,3.5081401872825624C17.882874231147767,3.5459021872825622,17.962074231147767,3.5998661872825624,18.029074231147767,3.6671631872825623C18.169374231147764,3.8081351872825624,18.247974231147765,3.999080187282562,18.247474231147766,4.1979951872825625C18.247074231147764,4.396905187282562,18.167574231147768,4.587485187282562,18.026574231147766,4.727825187282562L16.251174231147765,6.495215187282563L17.886874231147765,8.120005187282562L19.666774231147766,6.347585187282562C19.742374231147767,6.272365187282562,19.833074231147766,6.214115187282562,19.932874231147768,6.1767151872825625C20.320774231147766,6.031385187282562,20.752974231147768,6.228005187282562,20.898274231147766,6.615885187282562Q21.441374231147766,8.065115187282561,20.991374231147766,9.545315187282561ZM19.555174231147767,9.112665187282563Q19.656974231147768,8.778995187282561,19.683574231147766,8.447675187282563L18.416674231147766,9.709235187282562C18.124374231147765,10.000375187282561,17.651674231147766,10.000665187282562,17.358974231147766,9.709885187282563L14.658974231147766,7.027885187282562C14.517874231147767,6.887705187282562,14.438174231147766,6.697205187282562,14.437474231147766,6.498295187282562C14.436874231147765,6.299385187282562,14.515174231147766,6.108355187282562,14.655374231147766,5.967225187282562C14.655374231147766,5.967225187282562,14.658374231147766,5.964245187282563,14.658374231147766,5.964245187282563L15.921574231147765,4.706835187282563Q15.914274231147767,4.707805187282562,15.907074231147766,4.708815187282562C15.893874231147766,4.710655187282562,15.880674231147767,4.712145187282562,15.867474231147765,4.713285187282562Q14.501974231147766,4.830565187282563,13.586974231147765,5.850785187282563Q12.671914231147767,6.871005187282562,12.703304231147767,8.241105187282562C12.703304231147767,8.241105187282562,12.703454231147767,8.266335187282563,12.703454231147767,8.266335187282563Q12.698224231147766,8.753415187282563,12.882044231147766,9.204505187282562C13.002464231147766,9.499995187282561,12.922724231147766,9.839325187282562,12.683314231147767,10.050265187282562L5.292064231147766,16.562495187282565Q3.941721231147766,17.76699518728256,5.1490242311477665,19.120895187282564C5.1490242311477665,19.120895187282564,5.160194231147766,19.133695187282562,5.160194231147766,19.133695187282562Q5.162354231147766,19.13619518728256,5.177924231147766,19.15289518728256Q5.1880642311477665,19.16379518728256,5.193614231147766,19.16979518728256Q5.6755142311477655,19.672995187282563,6.3857242311477656,19.688195187282563Q7.095944231147766,19.703495187282563,7.608844231147766,19.21199518728256Q7.6917942311477665,19.13399518728256,7.759624231147766,19.05169518728256C7.759624231147766,19.05169518728256,7.778114231147766,19.030095187282562,7.778114231147766,19.030095187282562L14.322574231147765,11.672565187282562C14.515474231147767,11.455795187282563,14.815974231147766,11.369675187282562,15.094374231147766,11.451425187282561Q15.987674231147766,11.713795187282562,16.908474231147764,11.582165187282563Q18.965274231147767,11.147365187282563,19.552174231147767,9.122735187282561L19.555174231147767,9.112665187282563Z" fill-rule="evenodd" fill="#38363C" fill-opacity="1" style="mix-blend-mode:passthrough"/></g></g></g></g></svg>