<svg xmlns="http://www.w3.org/2000/svg" xmlns:xlink="http://www.w3.org/1999/xlink" fill="none" version="1.1" width="24" height="24" viewBox="0 0 24 24"><defs><clipPath id="master_svg0_5445_06500"><rect x="0" y="0" width="24" height="24" rx="0"/></clipPath></defs><g><g clip-path="url(#master_svg0_5445_06500)"></g><g><g><path d="M2.25,5L2.25,19Q2.25,20.1391,3.055456,20.9445Q3.86091,21.75,5,21.75L19,21.75Q20.1391,21.75,20.9445,20.9445Q21.75,20.1391,21.75,19L21.75,5Q21.75,3.86091,20.9445,3.055456Q20.1391,2.25,19,2.25L5,2.25Q3.86091,2.25,3.055456,3.055456Q2.25,3.86091,2.25,5ZM5,20.25Q3.75,20.25,3.75,19L3.75,5Q3.75,3.75,5,3.75L19,3.75Q20.25,3.75,20.25,5L20.25,19Q20.25,20.25,19,20.25L5,20.25Z" fill-rule="evenodd" fill="#38363C" fill-opacity="1" style="mix-blend-mode:passthrough"/></g><g transform="matrix(0.7071067690849304,0.7071067690849304,-0.7071067690849304,0.7071067690849304,5.250000215332221,-2.7959413297578806)"><path d="M16.0637,4.939340114593506L6.75,4.939340114593506C6.335786,4.939340114593506,6,5.2751261145935056,6,5.689340114593506C6,6.103550114593506,6.335786,6.439340114593506,6.75,6.439340114593506L16.0637,6.439340114593506C16.477899999999998,6.439340114593506,16.8137,6.103550114593506,16.8137,5.689340114593506C16.8137,5.2751261145935056,16.477899999999998,4.939340114593506,16.0637,4.939340114593506Z" fill-rule="evenodd" fill="#38363C" fill-opacity="1" style="mix-blend-mode:passthrough"/></g><g><path d="M12,6.75L6.75,6.75L6.75,12C6.75,12.41421,6.41421,12.75,6,12.75C5.585786,12.75,5.25,12.41421,5.25,12L5.25,6C5.25,5.585786,5.585786,5.25,6,5.25L12,5.25C12.41421,5.25,12.75,5.585786,12.75,6C12.75,6.41421,12.41421,6.75,12,6.75Z" fill-rule="evenodd" fill="#38363C" fill-opacity="1" style="mix-blend-mode:passthrough"/></g></g></g></svg>