<svg xmlns="http://www.w3.org/2000/svg" xmlns:xlink="http://www.w3.org/1999/xlink" fill="none" version="1.1" width="24" height="24" viewBox="0 0 24 24"><defs><clipPath id="master_svg0_209_13966"><rect x="0" y="0" width="24" height="24" rx="0"/></clipPath></defs><g clip-path="url(#master_svg0_209_13966)"><g></g><g><path d="M20.6708,7.6645900000000005Q20.6164,7.5557300000000005,20.5303,7.46967Q20.4443,7.38361,20.3354,7.32918L12.33541,3.32918Q12.2573,3.290127,12.17231,3.270063Q12.08733,3.25,12,3.25Q11.91267,3.25,11.82769,3.270063Q11.7427,3.290127,11.66459,3.32918L3.66459,7.32918Q3.531155,7.3959,3.43341,7.5085999999999995Q3.335664,7.6213,3.288488,7.76283Q3.241311,7.9043600000000005,3.251887,8.05317Q3.262462,8.201979999999999,3.32918,8.33541Q3.383609,8.44427,3.46967,8.53033Q3.5557309999999998,8.616389999999999,3.66459,8.670819999999999L11.66459,12.67082Q11.7427,12.70987,11.82769,12.72994Q11.91267,12.75,12,12.75Q12.08733,12.75,12.17231,12.72994Q12.2573,12.70987,12.33541,12.67082L20.3354,8.670819999999999Q20.4688,8.604099999999999,20.5666,8.491399999999999Q20.6643,8.3787,20.7115,8.237169999999999Q20.7587,8.09564,20.7481,7.94683Q20.7375,7.79802,20.6708,7.6645900000000005ZM18.3229,8L12,4.838525L5.6770499999999995,8L12,11.16147L18.3229,8Z" fill-rule="evenodd" fill="#231F2E" fill-opacity="1"/></g><g><path d="M4.335631,15.32929L12,19.16147L12.66413,18.82941L12.66459,18.82918Q12.82295,18.75,13,18.75Q13.07387,18.75,13.14632,18.764409999999998Q13.21877,18.77882,13.28701,18.80709Q13.35526,18.83536,13.41668,18.8764Q13.4781,18.91744,13.53033,18.96967Q13.58256,19.0219,13.6236,19.08332Q13.66464,19.14474,13.69291,19.21299Q13.72118,19.28123,13.73559,19.35368Q13.75,19.42613,13.75,19.5Q13.75,19.60446,13.72145,19.70495Q13.69291,19.80544,13.63799,19.8943Q13.58307,19.983159999999998,13.50596,20.05363Q13.42885,20.1241,13.33541,20.17082L12.33541,20.67082Q12.2573,20.70987,12.17231,20.72994Q12.08733,20.75,12,20.75Q11.91267,20.75,11.82769,20.72994Q11.7427,20.70987,11.66459,20.67082L3.664811,16.670931L3.66459,16.67082Q3.571155,16.624103,3.494043,16.553631Q3.416931,16.48316,3.362012,16.394298Q3.307093,16.305437,3.278546,16.20495Q3.25,16.104463,3.25,16Q3.25,15.9261315,3.264411,15.853682Q3.278822,15.781233,3.30709,15.712987Q3.335359,15.644742,3.376398,15.583322Q3.417437,15.521903,3.46967,15.46967Q3.521903,15.417437,3.583322,15.376398Q3.644742,15.335359,3.712987,15.30709Q3.781233,15.278822,3.853682,15.264410999999999Q3.9261315,15.25,4,15.25Q4.177051,15.25,4.3354099999999995,15.329180000000001L4.335631,15.32929Z" fill-rule="evenodd" fill="#231F2E" fill-opacity="1"/></g><g><path d="M4.335631,11.32929L12,15.16147L19.6643,11.329322L19.6646,11.329180000000001Q19.8229,11.25,20,11.25Q20.0739,11.25,20.1463,11.264410999999999Q20.2188,11.278822,20.287,11.30709Q20.3553,11.335359,20.4167,11.376398Q20.4781,11.417437,20.5303,11.46967Q20.5826,11.521903,20.6236,11.583322Q20.6646,11.644742,20.6929,11.712987Q20.7212,11.781233,20.7356,11.853682Q20.75,11.9261315,20.75,12Q20.75,12.104463,20.7215,12.20495Q20.6929,12.305437,20.638,12.394298Q20.5831,12.48316,20.506,12.553631Q20.4288,12.624103,20.3354,12.670819999999999L12.33541,16.67082Q12.2573,16.70987,12.17231,16.72994Q12.08733,16.75,12,16.75Q11.91267,16.75,11.82769,16.72994Q11.7427,16.70987,11.66459,16.67082L3.664811,12.670931L3.66459,12.670819999999999Q3.571155,12.624103,3.494043,12.553631Q3.416931,12.48316,3.362012,12.394298Q3.307093,12.305437,3.278546,12.20495Q3.25,12.104463,3.25,12Q3.25,11.9261315,3.264411,11.853682Q3.278822,11.781233,3.30709,11.712987Q3.335359,11.644742,3.376398,11.583322Q3.417437,11.521903,3.46967,11.46967Q3.521903,11.417437,3.583322,11.376398Q3.644742,11.335359,3.712987,11.30709Q3.781233,11.278822,3.853682,11.264410999999999Q3.9261315,11.25,4,11.25Q4.177051,11.25,4.3354099999999995,11.329180000000001L4.335631,11.32929Z" fill-rule="evenodd" fill="#231F2E" fill-opacity="1"/></g><g><path d="M16,18.25L22,18.25Q22.07387,18.25,22.14632,18.264411Q22.21877,18.278822,22.287010000000002,18.30709Q22.35526,18.335359,22.41668,18.376398000000002Q22.4781,18.417437,22.53033,18.46967Q22.58256,18.521903000000002,22.6236,18.583322Q22.66464,18.644742,22.69291,18.712987Q22.72118,18.781233,22.735590000000002,18.853682Q22.75,18.9261315,22.75,19Q22.75,19.0738685,22.735590000000002,19.146318Q22.72118,19.218767,22.69291,19.287013Q22.66464,19.355258,22.6236,19.416678Q22.58256,19.478096999999998,22.53033,19.53033Q22.4781,19.582563,22.41668,19.623601999999998Q22.35526,19.664641,22.287010000000002,19.69291Q22.21877,19.721178,22.14632,19.735589Q22.07387,19.75,22,19.75L16,19.75Q15.9261315,19.75,15.853682,19.735589Q15.781233,19.721178,15.712987,19.69291Q15.644742,19.664641,15.583322,19.623601999999998Q15.521903,19.582563,15.46967,19.53033Q15.417437,19.478096999999998,15.376398,19.416678Q15.335359,19.355258,15.30709,19.287013Q15.278822,19.218767,15.264410999999999,19.146318Q15.25,19.0738685,15.25,19Q15.25,18.9261315,15.264410999999999,18.853682Q15.278822,18.781233,15.30709,18.712987Q15.335359,18.644742,15.376398,18.583322Q15.417437,18.521903000000002,15.46967,18.46967Q15.521903,18.417437,15.583322,18.376398000000002Q15.644742,18.335359,15.712987,18.30709Q15.781233,18.278822,15.853682,18.264411Q15.9261315,18.25,16,18.25Z" fill-rule="evenodd" fill="#2882FF" fill-opacity="1" style="mix-blend-mode:passthrough"/></g><g><path d="M18.25,16Q18.25,15.9261315,18.264411,15.853682Q18.278822,15.781233,18.30709,15.712987Q18.335359,15.644742,18.376398000000002,15.583322Q18.417437,15.521903,18.46967,15.46967Q18.521903000000002,15.417437,18.583322,15.376398Q18.644742,15.335359,18.712987,15.30709Q18.781233,15.278822,18.853682,15.264410999999999Q18.9261315,15.25,19,15.25Q19.0738685,15.25,19.146318,15.264410999999999Q19.218767,15.278822,19.287013,15.30709Q19.355258,15.335359,19.416678,15.376398Q19.478096999999998,15.417437,19.53033,15.46967Q19.582563,15.521903,19.623601999999998,15.583322Q19.664641,15.644742,19.69291,15.712987Q19.721178,15.781233,19.735589,15.853682Q19.75,15.9261315,19.75,16L19.75,22Q19.75,22.07387,19.735589,22.14632Q19.721178,22.21877,19.69291,22.287010000000002Q19.664641,22.35526,19.623601999999998,22.41668Q19.582563,22.4781,19.53033,22.53033Q19.478096999999998,22.58256,19.416678,22.6236Q19.355258,22.66464,19.287013,22.69291Q19.218767,22.72118,19.146318,22.735590000000002Q19.0738685,22.75,19,22.75Q18.9261315,22.75,18.853682,22.735590000000002Q18.781233,22.72118,18.712987,22.69291Q18.644742,22.66464,18.583322,22.6236Q18.521903000000002,22.58256,18.46967,22.53033Q18.417437,22.4781,18.376398000000002,22.41668Q18.335359,22.35526,18.30709,22.287010000000002Q18.278822,22.21877,18.264411,22.14632Q18.25,22.07387,18.25,22L18.25,16Z" fill-rule="evenodd" fill="#2882FF" fill-opacity="1" style="mix-blend-mode:passthrough"/></g></g></svg>