<svg xmlns="http://www.w3.org/2000/svg" xmlns:xlink="http://www.w3.org/1999/xlink" fill="none" version="1.1" width="24" height="24" viewBox="0 0 24 24"><defs><clipPath id="master_svg0_6073_02823"><rect x="0" y="0" width="24" height="24" rx="0"/></clipPath></defs><g clip-path="url(#master_svg0_6073_02823)"><g></g><g><path d="M20.67082,7.6645899Q20.61639,7.5557308,20.530331,7.4696698Q20.444271,7.3836093,20.335411,7.3291798L12.3354101,3.32917964Q12.2573032,3.29012656,12.1723137,3.27006328Q12.0873241,3.25000012,11.999999500000001,3.25000012Q11.912673999999999,3.25000012,11.827684900000001,3.27006334Q11.7426958,3.29012656,11.6645899,3.32917964L3.6645898199999998,7.3291798Q3.53115535,7.3958969,3.43340951,7.5085986Q3.33566374,7.6213007,3.28848755,7.7628293Q3.24131131,7.9043579,3.25188684,8.0531664Q3.26246238,8.2019758,3.32917964,8.3354101Q3.38360918,8.4442692,3.46966994,8.5303302Q3.55573064,8.6163907,3.6645898199999998,8.6708202L11.6645899,12.6708202Q11.7426958,12.7098732,11.8276854,12.7299366Q11.9126744,12.75,12,12.75Q12.0873251,12.75,12.1723137,12.7299366Q12.2573032,12.7098732,12.3354101,12.6708202L20.335411,8.6708202Q20.468845,8.604102600000001,20.566589,8.4914007Q20.664335,8.378698799999999,20.711512,8.2371707Q20.758686,8.0956421,20.748112,7.9468331Q20.737537,7.7980242,20.67082,7.6645899ZM18.322949,8L12,4.83852541L5.6770507,8L12,11.1614747L18.322949,8Z" fill-rule="evenodd" fill="#2882FF" fill-opacity="1"/></g><g><path d="M4.33563146,15.32929027L12,19.1614747L19.664306,15.32932192L19.66459,15.32917964Q19.822949,15.25,20,15.25Q20.073868,15.25,20.146318,15.26441109Q20.218767,15.27882212,20.287012,15.3070904Q20.355257,15.33535868,20.416676,15.37639785Q20.478096,15.41743702,20.530331,15.46966994Q20.582561,15.52190292,20.6236,15.58332238Q20.66464,15.64474183,20.692909,15.71298748Q20.721178,15.78123312,20.735588,15.85368228Q20.75,15.926131457,20.75,16Q20.75,16.10446291,20.721453,16.2049498Q20.692907,16.30543667,20.637987,16.39429814Q20.583069,16.4831596,20.505957,16.55363125Q20.428844,16.62410289,20.335411,16.67082018L12.3354101,20.6708202Q12.2573032,20.7098732,12.1723137,20.729936600000002Q12.0873241,20.75,11.999999500000001,20.75Q11.912673999999999,20.75,11.827684900000001,20.729936600000002Q11.7426958,20.7098732,11.6645899,20.6708202L3.6648111,16.67093098L3.6645898199999998,16.67082036Q3.57115531,16.62410307,3.49404335,16.55363142Q3.4169313900000002,16.48315978,3.36201191,16.39429832Q3.30709243,16.30543682,3.27854621,16.20494989Q3.25,16.10446296,3.25,16Q3.25,15.926131457,3.26441109,15.85368228Q3.27882212,15.78123312,3.3070904,15.71298748Q3.33535868,15.64474183,3.37639785,15.58332238Q3.41743702,15.52190292,3.46966994,15.46966994Q3.52190292,15.41743702,3.58332238,15.37639785Q3.64474183,15.33535868,3.71298748,15.3070904Q3.78123312,15.27882212,3.85368228,15.26441109Q3.926131457,15.25,4,15.25Q4.17705098,15.25,4.33541021,15.32917958L4.33563146,15.32929027Z" fill-rule="evenodd" fill="#231F2E" fill-opacity="1"/></g><g><path d="M4.33563146,11.32929027L12,15.1614747L15.664306,13.329322L15.66459,13.3291796Q15.822949,13.25,16,13.25Q16.073867999999997,13.25,16.146317,13.264410999999999Q16.218764999999998,13.2788219,16.287011,13.3070903Q16.355257,13.3353585,16.416676000000002,13.3763976Q16.478096,13.4174368,16.53033,13.4696698Q16.582562,13.5219028,16.623601,13.5833222Q16.66464,13.6447417,16.692908,13.7129873Q16.721176,13.781233,16.735588,13.8536822Q16.75,13.9261314,16.75,14Q16.75,14.1044629,16.721454,14.204949899999999Q16.692906999999998,14.3054366,16.637987000000003,14.394298299999999Q16.583069000000002,14.4831598,16.505957000000002,14.5536313Q16.428843999999998,14.6241031,16.33541,14.6708205L16.334953,14.6710489L12.3354101,16.6708202Q12.2573032,16.7098732,12.1723137,16.729936600000002Q12.0873241,16.75,11.999999500000001,16.75Q11.912673999999999,16.75,11.827684900000001,16.729936600000002Q11.7426958,16.7098732,11.6645899,16.6708202L3.6648111,12.67093098L3.6645898199999998,12.67082036Q3.57115531,12.62410307,3.49404335,12.55363142Q3.4169313900000002,12.48315978,3.36201191,12.39429832Q3.30709243,12.30543682,3.27854621,12.20494989Q3.25,12.10446296,3.25,12Q3.25,11.926131457,3.26441109,11.85368228Q3.27882212,11.78123312,3.3070904,11.71298748Q3.33535868,11.64474183,3.37639785,11.58332238Q3.41743702,11.52190292,3.46966994,11.46966994Q3.52190292,11.41743702,3.58332238,11.37639785Q3.64474183,11.33535868,3.71298748,11.3070904Q3.78123312,11.27882212,3.85368228,11.26441109Q3.926131457,11.25,4,11.25Q4.17705098,11.25,4.33541021,11.32917958L4.33563146,11.32929027Z" fill-rule="evenodd" fill="#231F2E" fill-opacity="1"/></g><g><g><ellipse cx="18" cy="18" rx="4" ry="4" fill="#000000" fill-opacity="1"/><ellipse cx="18" cy="18" rx="4" ry="4" fill-opacity="0" stroke-opacity="1" stroke="#FFFFFF" fill="none" stroke-width="4"/></g><g><ellipse cx="18" cy="18" rx="4" ry="4" fill="#000000" fill-opacity="1"/><ellipse cx="18" cy="18" rx="4" ry="4" fill-opacity="0" stroke-opacity="1" stroke="#000000" fill="none" stroke-width="1.5"/></g><g><path d="M15.5,17.25L20.5,17.25Q20.5738688,17.25,20.646317500000002,17.26441109Q20.7187662,17.27882212,20.7870121,17.3070904Q20.8552575,17.33535868,20.916677,17.37639785Q20.9780965,17.41743702,21.0303297,17.46966994Q21.0825624,17.52190292,21.1236019,17.58332238Q21.1646414,17.64474183,21.1929092,17.71298748Q21.2211781,17.78123312,21.235589,17.85368228Q21.25,17.926131457,21.25,18Q21.25,18.073868543,21.235589,18.14631772Q21.2211781,18.21876688,21.1929097,18.28701252Q21.1646414,18.35525817,21.1236019,18.41667762Q21.0825624,18.47809708,21.0303297,18.53033006Q20.9780965,18.58256298,20.916677,18.62360215Q20.8552575,18.66464132,20.7870121,18.6929096Q20.7187662,18.72117788,20.646317500000002,18.73558891Q20.5738688,18.75,20.5,18.75L15.5,18.75Q15.426131457,18.75,15.35368228,18.73558891Q15.28123312,18.72117788,15.21298748,18.6929096Q15.14474183,18.66464132,15.08332238,18.62360215Q15.02190292,18.58256298,14.96966994,18.53033006Q14.91743702,18.47809708,14.87639785,18.41667762Q14.83535868,18.35525817,14.8070904,18.28701252Q14.77882212,18.21876688,14.76441109,18.14631772Q14.75,18.073868543,14.75,18Q14.75,17.926131457,14.76441109,17.85368228Q14.77882212,17.78123312,14.8070904,17.71298748Q14.83535868,17.64474183,14.87639785,17.58332238Q14.91743702,17.52190292,14.96966994,17.46966994Q15.02190292,17.41743702,15.08332238,17.37639785Q15.14474183,17.33535868,15.21298748,17.3070904Q15.28123312,17.27882212,15.35368228,17.26441109Q15.426131457,17.25,15.5,17.25Z" fill-rule="evenodd" fill="#FFFFFF" fill-opacity="1" style="mix-blend-mode:passthrough"/></g><g><path d="M17.25,15.5Q17.25,15.426131457,17.26441109,15.35368228Q17.27882212,15.28123312,17.3070904,15.21298748Q17.33535868,15.14474183,17.37639785,15.08332238Q17.41743702,15.02190292,17.46966994,14.96966994Q17.52190292,14.91743702,17.58332238,14.87639785Q17.64474183,14.83535868,17.71298748,14.8070904Q17.78123312,14.77882212,17.85368228,14.76441109Q17.926131457,14.75,18,14.75Q18.073868543,14.75,18.14631772,14.76441109Q18.21876688,14.77882212,18.28701252,14.8070904Q18.35525817,14.83535868,18.41667762,14.87639785Q18.47809708,14.91743702,18.53033006,14.96966994Q18.58256298,15.02190292,18.62360215,15.08332238Q18.66464132,15.14474183,18.6929096,15.21298748Q18.72117788,15.28123312,18.73558891,15.35368228Q18.75,15.426131457,18.75,15.5L18.75,20.5Q18.75,20.5738688,18.73558891,20.646317500000002Q18.72117788,20.7187662,18.6929096,20.7870121Q18.66464132,20.8552575,18.62360215,20.916677Q18.58256298,20.9780965,18.53033006,21.0303297Q18.47809708,21.0825624,18.41667762,21.1236019Q18.35525817,21.1646414,18.28701252,21.1929092Q18.21876688,21.2211781,18.14631772,21.235589Q18.073868543,21.25,18,21.25Q17.926131457,21.25,17.85368228,21.235589Q17.78123312,21.2211781,17.71298748,21.1929097Q17.64474183,21.1646414,17.58332238,21.1236019Q17.52190292,21.0825624,17.46966994,21.0303297Q17.41743702,20.9780965,17.37639785,20.916677Q17.33535868,20.8552575,17.3070904,20.7870121Q17.27882212,20.7187662,17.26441109,20.646317500000002Q17.25,20.5738688,17.25,20.5L17.25,15.5Z" fill-rule="evenodd" fill="#FFFFFF" fill-opacity="1" style="mix-blend-mode:passthrough"/></g></g></g></svg>