<svg xmlns="http://www.w3.org/2000/svg" xmlns:xlink="http://www.w3.org/1999/xlink" fill="none" version="1.1" width="24" height="24" viewBox="0 0 24 24"><defs><clipPath id="master_svg0_5445_06457"><rect x="0" y="0" width="24" height="24" rx="0"/></clipPath><clipPath id="master_svg1_5445_06468"><rect x="4" y="4" width="16" height="16" rx="0"/></clipPath></defs><g><g clip-path="url(#master_svg0_5445_06457)"></g><g clip-path="url(#master_svg1_5445_06468)"><g><g><g><path d="M14.742016980552673,9.25797857284546C14.492916980552673,9.01318357284546,14.216016980552673,8.79838857284546,13.916996980552673,8.617978572845459L12.434996980552674,10.099978572845458C14.154316980552673,10.750448572845459,14.628616980552673,12.958938572845458,13.327996980552673,14.25797857284546L10.327996980552673,17.25797857284546C9.333326980552673,18.22174857284546,7.749406980552673,18.20924857284546,6.770066980552674,17.22990857284546C5.790726980552673,16.25056857284546,5.778226980552674,14.66664857284546,6.741996980552673,13.67197857284546L6.799996980552674,13.60997857284546C6.555266980552673,12.945968572845459,6.429996980552673,12.243458572845459,6.429996980552673,11.534978572845459C6.429996980552673,11.400978572845458,6.4399969805526736,11.268978572845459,6.448996980552673,11.134978572845458L5.3279969805526735,12.25797857284546C3.556822980552673,14.029158572845459,3.556822980552673,16.90079857284546,5.3279969805526735,18.67197857284546C7.099176980552674,20.44317857284546,9.970826980552673,20.44317857284546,11.741996980552674,18.67197857284546L14.742016980552673,15.67197857284546C16.51281698055267,13.900658572845458,16.51281698055267,11.029298572845459,14.742016980552673,9.25797857284546Z" fill="#FAC814" fill-opacity="1"/></g><g><path d="M9.260181062583923,14.740078279876709C9.509461062583924,14.984678279876709,9.786321062583923,15.19937827987671,10.085181062583924,15.38007827987671L11.567181062583924,13.90005827987671C9.846031062583924,13.25009827987671,9.371421062583924,11.03914827987671,10.674181062583923,9.74005827987671L13.674181062583923,6.740058279876709C14.668841062583923,5.776258279876709,16.252801062583924,5.788728279876709,17.232151062583924,6.768088279876709C18.211551062583922,7.747438279876709,18.22395106258392,9.331398279876709,17.260181062583925,10.326058279876708L17.198181062583924,10.38805827987671C17.445061062583925,11.052068279876709,17.572031062583925,11.754648279876708,17.573181062583924,12.463058279876709C17.573181062583924,12.597058279876709,17.562181062583925,12.729058279876709,17.553181062583924,12.863058279876709L18.674151062583924,11.74005827987671C20.445351062583924,9.968878279876709,20.445351062583924,7.097238279876709,18.674151062583924,5.326058279876709C16.903001062583925,3.554884279876709,14.031361062583922,3.554884279876709,12.260181062583923,5.326058279876709L9.260181062583923,8.326058279876708C7.4893420625839235,10.09737827987671,7.4893420625839235,12.968738279876709,9.260181062583923,14.740078279876709Z" fill="#FAC814" fill-opacity="1"/></g></g></g></g></g></svg>