<svg xmlns="http://www.w3.org/2000/svg" xmlns:xlink="http://www.w3.org/1999/xlink" fill="none" version="1.1" width="24" height="24" viewBox="0 0 24 24"><defs><clipPath id="master_svg0_5996_02689"><rect x="0" y="0" width="24" height="24" rx="0"/></clipPath></defs><g clip-path="url(#master_svg0_5996_02689)"><g><path d="M2.25,6L2.25,18C2.25,19.2426,3.2573600000000003,20.25,4.5,20.25L19.75,20.25C20.8546,20.25,21.75,19.354599999999998,21.75,18.25L21.75,10C21.75,8.75736,20.7426,7.75,19.5,7.75L14.121,7.75C13.7233,7.74965,13.342,7.59138,13.06,7.3100000000000005L9.940000000000001,4.190002C9.65852,3.908288,9.27686,3.75,8.87903,3.75L4.5,3.75C3.2573600000000003,3.75,2.25,4.75736,2.25,6Z" fill="#FFBC00" fill-opacity="1"/><path d="M1.5,6L1.5,18Q1.5,19.2426,2.37868,20.1213Q3.2573600000000003,21,4.5,21L19.75,21Q20.8891,21,21.6945,20.1945Q22.5,19.3891,22.5,18.25L22.5,10Q22.5,8.75736,21.6213,7.87868Q20.7426,7,19.5,7L14.121,7Q13.8111,6.99973,13.5916,6.779999999999999Q13.5801,6.76844,13.5681,6.7574000000000005L10.47033,3.6596724Q9.8112,3,8.87903,3L4.5,3Q3.2573600000000003,3,2.37868,3.87868Q1.5,4.75736,1.5,6ZM4.5,19.5Q3,19.5,3,18L3,6Q3,4.5,4.5,4.5L8.87903,4.5Q9.18952,4.5,9.40967,4.720333L12.5297,7.84033Q12.5429,7.85355,12.5567,7.86609Q13.2073,8.4992,14.121,8.5L19.5,8.5Q21,8.5,21,10L21,18.25Q21,18.7678,20.6339,19.1339Q20.2678,19.5,19.75,19.5L4.5,19.5Z" fill-rule="evenodd" fill="#FFBC00" fill-opacity="1"/></g><g style="opacity:0.5;"><path d="M11,5.25L11,9.75L20.5,9.75L20.5,7.25C20.5,6.145431,19.604570000000002,5.25,18.5,5.25L11,5.25Z" fill="#FFBC00" fill-opacity="1"/><path d="M10.25,4.5L10.25,10.5L21.25,10.5L21.25,7.25Q21.25,6.110914,20.44454,5.3054564Q19.63909,4.5,18.5,4.5L10.25,4.5ZM11.75,9L19.75,9L19.75,7.25Q19.75,6.7322299999999995,19.383879999999998,6.3661200000000004Q19.01777,6,18.5,6L11.75,6L11.75,9Z" fill-rule="evenodd" fill="#FFBC00" fill-opacity="1"/></g></g></svg>