<svg xmlns="http://www.w3.org/2000/svg" xmlns:xlink="http://www.w3.org/1999/xlink" fill="none" version="1.1" width="24" height="24" viewBox="0 0 24 24"><defs><clipPath id="master_svg0_5996_02800"><rect x="0" y="0" width="24" height="24" rx="0"/></clipPath></defs><g clip-path="url(#master_svg0_5996_02800)"><g><path d="M2.25,6L2.25,18C2.25,19.2426,3.2573600000000003,20.25,4.5,20.25L19.75,20.25C20.8546,20.25,21.75,19.354599999999998,21.75,18.25L21.75,10C21.75,8.75736,20.7426,7.75,19.5,7.75L14.121,7.75C13.7233,7.74965,13.342,7.59138,13.06,7.3100000000000005L9.940000000000001,4.190002C9.65852,3.908288,9.27686,3.75,8.87903,3.75L4.5,3.75C3.2573600000000003,3.75,2.25,4.75736,2.25,6Z" fill="#FFBC00" fill-opacity="1"/><path d="M1.5,6L1.5,18Q1.5,19.2426,2.37868,20.1213Q3.2573600000000003,21,4.5,21L19.75,21Q20.8891,21,21.6945,20.1945Q22.5,19.3891,22.5,18.25L22.5,10Q22.5,8.75736,21.6213,7.87868Q20.7426,7,19.5,7L14.121,7Q13.8111,6.99973,13.5916,6.779999999999999Q13.5801,6.76844,13.5681,6.7574000000000005L10.47033,3.6596724Q9.8112,3,8.87903,3L4.5,3Q3.2573600000000003,3,2.37868,3.87868Q1.5,4.75736,1.5,6ZM4.5,19.5Q3,19.5,3,18L3,6Q3,4.5,4.5,4.5L8.87903,4.5Q9.18952,4.5,9.40967,4.720333L12.5297,7.84033Q12.5429,7.85355,12.5567,7.86609Q13.2073,8.4992,14.121,8.5L19.5,8.5Q21,8.5,21,10L21,18.25Q21,18.7678,20.6339,19.1339Q20.2678,19.5,19.75,19.5L4.5,19.5Z" fill-rule="evenodd" fill="#FFBC00" fill-opacity="1"/></g><g style="opacity:0.5;"><path d="M11,5.25L11,9.75L20.5,9.75L20.5,7.25C20.5,6.145431,19.604570000000002,5.25,18.5,5.25L11,5.25Z" fill="#FFBC00" fill-opacity="1"/><path d="M10.25,4.5L10.25,10.5L21.25,10.5L21.25,7.25Q21.25,6.110914,20.44454,5.3054564Q19.63909,4.5,18.5,4.5L10.25,4.5ZM11.75,9L19.75,9L19.75,7.25Q19.75,6.7322299999999995,19.383879999999998,6.3661200000000004Q19.01777,6,18.5,6L11.75,6L11.75,9Z" fill-rule="evenodd" fill="#FFBC00" fill-opacity="1"/></g><g transform="matrix(-1,0,0,1,39.5,0)"><g><path d="M19.75,14.5Q21.3033,14.5,22.40165,15.598349Q23.499670000000002,16.69637,23.5,18.24907L23.5,18.25Q23.5,18.32387,23.485590000000002,18.39632Q23.47118,18.46877,23.44291,18.53701Q23.41464,18.60526,23.3736,18.66668Q23.33256,18.7281,23.28033,18.78033Q23.2281,18.83256,23.16668,18.8736Q23.10526,18.91464,23.03701,18.94291Q22.96877,18.97118,22.89632,18.985590000000002Q22.82387,19,22.75,19Q22.67613,19,22.60368,18.985590000000002Q22.53123,18.97118,22.46299,18.94291Q22.39474,18.91464,22.33332,18.8736Q22.2719,18.83256,22.21967,18.78033Q22.16744,18.7281,22.1264,18.66668Q22.08536,18.60526,22.05709,18.53701Q22.02882,18.46877,22.014409999999998,18.39632Q22,18.32387,22,18.25Q22,17.31802,21.34099,16.65901Q20.681981,16,19.75,16Q19.6761315,16,19.603682,15.985589000000001Q19.531233,15.971178,19.462987,15.94291Q19.394742,15.914641,19.333322,15.873602Q19.271903000000002,15.832563,19.21967,15.78033Q19.167437,15.728097,19.126398000000002,15.666678Q19.085359,15.605258,19.05709,15.537013Q19.028822,15.468767,19.014411,15.396318Q19,15.3238685,19,15.25Q19,15.1761315,19.014411,15.103682Q19.028822,15.031233,19.05709,14.962987Q19.085359,14.894742,19.126398000000002,14.833322Q19.167437,14.771903,19.21967,14.71967Q19.271903000000002,14.667437,19.333322,14.626398Q19.394742,14.585359,19.462987,14.55709Q19.531233,14.528822,19.603682,14.514410999999999Q19.6761315,14.5,19.75,14.5Z" fill-rule="evenodd" fill="#9333EA" fill-opacity="1"/></g><g><path d="M19.75,11.5Q22.54594,11.5,24.52297,13.47703Q26.49956,15.45361,26.5,18.248739999999998L26.5,18.25Q26.5,18.32387,26.485590000000002,18.39632Q26.47118,18.46877,26.44291,18.537010000000002Q26.41464,18.60526,26.3736,18.66668Q26.33256,18.7281,26.28033,18.78033Q26.2281,18.83256,26.16668,18.8736Q26.10526,18.91464,26.037010000000002,18.94291Q25.96877,18.97118,25.89632,18.985590000000002Q25.82387,19,25.75,19Q25.67613,19,25.60368,18.985590000000002Q25.53123,18.97118,25.462989999999998,18.94291Q25.39474,18.91464,25.33332,18.8736Q25.2719,18.83256,25.21967,18.78033Q25.16744,18.7281,25.1264,18.66668Q25.08536,18.60526,25.05709,18.537010000000002Q25.02882,18.46877,25.014409999999998,18.39632Q25,18.32387,25,18.25Q25,16.07538,23.46231,14.53769Q21.92462,13,19.75,13Q19.6761315,13,19.603682,12.985589000000001Q19.531233,12.971178,19.462987,12.94291Q19.394742,12.914641,19.333322,12.873602Q19.271903000000002,12.832563,19.21967,12.78033Q19.167437,12.728097,19.126398000000002,12.666678Q19.085359,12.605258,19.05709,12.537013Q19.028822,12.468767,19.014411,12.396318Q19,12.3238685,19,12.25Q19,12.1761315,19.014411,12.103682Q19.028822,12.031233,19.05709,11.962987Q19.085359,11.894742,19.126398000000002,11.833322Q19.167437,11.771903,19.21967,11.71967Q19.271903000000002,11.667437,19.333322,11.626398Q19.394742,11.585359,19.462987,11.55709Q19.531233,11.528822,19.603682,11.514410999999999Q19.6761315,11.5,19.75,11.5Z" fill-rule="evenodd" fill="#9333EA" fill-opacity="1"/></g><g><path d="M19.75,17.5Q19.6761315,17.5,19.603682,17.514411Q19.531233,17.528822,19.462987,17.55709Q19.394742,17.585359,19.333322,17.626398000000002Q19.271903000000002,17.667437,19.21967,17.71967Q19.167437,17.771903000000002,19.126398000000002,17.833322Q19.085359,17.894742,19.05709,17.962987Q19.028822,18.031233,19.014411,18.103682Q19,18.1761315,19,18.25Q19,18.3238685,19.014411,18.396318Q19.028822,18.468767,19.05709,18.537013Q19.085359,18.605258,19.126398000000002,18.666678Q19.167437,18.728096999999998,19.21967,18.78033Q19.271903000000002,18.832563,19.333322,18.873601999999998Q19.394742,18.914641,19.462987,18.94291Q19.531233,18.971178,19.603682,18.985589Q19.6761315,19,19.75,19L19.7600002,19Q19.8338688,19,19.906318,18.985589Q19.978767,18.971178,20.047013,18.94291Q20.115258,18.914641,20.176678,18.873601999999998Q20.238097,18.832563,20.29033,18.78033Q20.342563,18.728096999999998,20.383602,18.666678Q20.424641,18.605258,20.45291,18.537013Q20.481178,18.468767,20.495589,18.396318Q20.51,18.3238685,20.51,18.25Q20.51,18.1761315,20.495589,18.103682Q20.481178,18.031233,20.45291,17.962987Q20.424642,17.894742,20.383602,17.833322Q20.342563,17.771903000000002,20.29033,17.71967Q20.238097,17.667437,20.176678,17.626398000000002Q20.115258,17.585359,20.047013,17.55709Q19.978767,17.528822,19.906318,17.514411Q19.8338688,17.5,19.7600002,17.5L19.75,17.5Z" fill-rule="evenodd" fill="#9333EA" fill-opacity="1"/></g></g></g></svg>