<?xml version="1.0" encoding="utf-8"?>
<!-- Generator: Adobe Illustrator 24.2.0, SVG Export Plug-In . SVG Version: 6.00 Build 0)  -->
<svg version="1.1" id="图层_1" xmlns="http://www.w3.org/2000/svg" xmlns:xlink="http://www.w3.org/1999/xlink" x="0px" y="0px"
	 viewBox="0 0 24 24" style="enable-background:new 0 0 24 24;" xml:space="preserve">
<path d="M22.1,1H1.9C1.4,1,1,1.4,1,1.9v3.6C1,6,1.4,6.4,1.9,6.4c0.5,0,0.9-0.4,0.9-0.9V2.8h8.3v18.4H9c-0.5,0-0.9,0.4-0.9,0.9
	C8.1,22.6,8.5,23,9,23H15c0.5,0,0.9-0.4,0.9-0.9c0-0.5-0.4-0.9-0.9-0.9h-2.1V2.8h8.3v2.7c0,0.5,0.4,0.9,0.9,0.9
	C22.6,6.4,23,6,23,5.5V1.9C23,1.4,22.6,1,22.1,1z"/>
</svg>
