<svg xmlns="http://www.w3.org/2000/svg" xmlns:xlink="http://www.w3.org/1999/xlink" fill="none" version="1.1" width="24" height="24" viewBox="0 0 24 24"><defs><clipPath id="master_svg0_5566_09231"><rect x="0" y="0" width="24" height="24" rx="0"/></clipPath></defs><g clip-path="url(#master_svg0_5566_09231)"><g><path d="M18.89549952316284,5.103793405914306Q16.039599523162842,2.246894405914307,11.999999523162842,2.2468934059143066Q7.9604295231628415,2.2468934059143066,5.104519523162842,5.103793405914306Q2.248605523162842,7.960693405914307,2.250000523162842,12.000263405914307Q2.248605523162842,16.039293405914307,5.104519523162842,18.896193405914307Q7.9604295231628415,21.753093405914306,11.999999523162842,21.753093405914306Q16.039599523162842,21.753093405914306,18.89549952316284,18.896193405914307Q21.751399523162842,16.039293405914307,21.749999523162842,11.999743405914307Q21.751399523162842,7.960703405914306,18.89549952316284,5.103793405914306ZM6.1653595231628415,6.164273405914306Q8.581909523162842,3.7468934059143066,11.999999523162842,3.7468934059143066Q15.418099523162843,3.7468934059143066,17.834599523162844,6.164273405914306Q20.251199523162843,8.581643405914306,20.249999523162842,12.000263405914307Q20.251199523162843,15.418393405914307,17.834599523162844,17.835693405914306Q15.418099523162843,20.253093405914306,11.999999523162842,20.253093405914306Q8.581909523162842,20.253093405914306,6.1653595231628415,17.835693405914306Q3.748819523162842,15.418393405914307,3.750000523162842,11.999743405914307Q3.748819523162842,8.581643405914306,6.1653595231628415,6.164273405914306Z" fill-rule="evenodd" fill="#000000" fill-opacity="1" style="mix-blend-mode:passthrough"/></g><g><path d="M5.1696698092651365,6.230329809265137Q5.064180809265137,6.1248408092651365,5.007089809265136,5.987012809265137Q4.949999809265137,5.849183809265137,4.949999809265137,5.699999809265137Q4.949999809265137,5.626131309265137,4.964410809265137,5.553681809265137Q4.978821809265137,5.481232809265137,5.007089809265136,5.412986809265137Q5.035358809265137,5.344741809265137,5.076397809265137,5.283321809265137Q5.117436809265136,5.221902809265137,5.1696698092651365,5.1696698092651365Q5.221902809265137,5.117436809265136,5.283321809265137,5.076397809265137Q5.344741809265137,5.035358809265137,5.412986809265137,5.007089809265136Q5.481232809265137,4.978821809265137,5.553681809265137,4.964410809265137Q5.626131309265137,4.949999809265137,5.699999809265137,4.949999809265137Q5.849183809265137,4.949999809265137,5.987012809265137,5.007089809265136Q6.1248408092651365,5.064180809265137,6.230329809265137,5.1696698092651365L18.830299809265135,17.769699809265134Q18.935799809265134,17.875199809265137,18.992899809265136,18.01299980926514Q19.049999809265138,18.150799809265138,19.049999809265138,18.299999809265138Q19.049999809265138,18.373899809265136,19.035599809265136,18.446299809265135Q19.021199809265134,18.518799809265136,18.992899809265136,18.586999809265137Q18.964599809265138,18.655299809265138,18.923599809265134,18.716699809265137Q18.882599809265137,18.778099809265136,18.830299809265135,18.830299809265135Q18.778099809265136,18.882599809265137,18.716699809265137,18.923599809265134Q18.655299809265138,18.964599809265138,18.586999809265137,18.992899809265136Q18.518799809265136,19.021199809265134,18.446299809265135,19.035599809265136Q18.373899809265136,19.049999809265138,18.299999809265138,19.049999809265138Q18.150799809265138,19.049999809265138,18.01299980926514,18.992899809265136Q17.875199809265137,18.935799809265134,17.769699809265134,18.830299809265135L5.1696698092651365,6.230329809265137L5.1696698092651365,6.230329809265137Z" fill-rule="evenodd" fill="#000000" fill-opacity="1" style="mix-blend-mode:passthrough"/></g></g></svg>