<svg xmlns="http://www.w3.org/2000/svg" xmlns:xlink="http://www.w3.org/1999/xlink" fill="none" version="1.1" width="40" height="40" viewBox="0 0 40 40"><defs><clipPath id="master_svg0_14_0981"><rect x="0" y="0" width="40" height="40" rx="0"/></clipPath><linearGradient x1="0.5" y1="0.04099644720554352" x2="0.5" y2="1" id="master_svg1_1_1409"><stop offset="0%" stop-color="#4A73FF" stop-opacity="1"/><stop offset="100%" stop-color="#1C5CFB" stop-opacity="1"/></linearGradient><linearGradient x1="0.5" y1="0" x2="0.5" y2="1" id="master_svg2_14_1652"><stop offset="0%" stop-color="#FFFFFF" stop-opacity="1"/><stop offset="100%" stop-color="#D6FBFF" stop-opacity="1"/></linearGradient><linearGradient x1="0.5" y1="0" x2="0.5" y2="1" id="master_svg3_14_1652"><stop offset="0%" stop-color="#FFFFFF" stop-opacity="1"/><stop offset="100%" stop-color="#D6FBFF" stop-opacity="1"/></linearGradient></defs><g clip-path="url(#master_svg0_14_0981)"><g><g><g><path d="M4.478449788311767,10.947900247802735C4.230929988311767,9.710310247802735,5.177519988311768,8.555660247802734,6.439610988311768,8.555660247802734L26.36043098831177,8.555660247802734C27.313830988311768,8.555660247802734,28.134630988311766,9.228580247802734,28.321630988311767,10.163400247802734L32.854930988311764,32.830060247802734C33.10243098831177,34.067660247802735,32.15583098831176,35.22226024780274,30.893730988311766,35.22226024780274L10.972900988311768,35.22226024780274C10.019600988311767,35.22226024780274,9.198750988311769,34.54936024780274,9.011780988311767,33.614560247802736L4.478449788311767,10.947900247802735Z" fill="#6CFAFF" fill-opacity="1"/></g><g><path d="M12,7C12,5.89543,12.8954,5,14,5L34,5C35.104600000000005,5,36,5.89543,36,7L36,29.6667C36,30.7712,35.104600000000005,31.6667,34,31.6667L14,31.6667C12.8954,31.6667,12,30.7712,12,29.6667L12,7Z" fill="url(#master_svg1_1_1409)" fill-opacity="1" style="mix-blend-mode:passthrough"/></g><g><rect x="17.332001209259033" y="13" width="12.4443998336792" height="2.666670083999634" rx="1.3333300352096558" fill="url(#master_svg2_14_1652)" fill-opacity="1" style="mix-blend-mode:passthrough"/></g><g><rect x="17.332001209259033" y="20.111299514770508" width="8.888890266418457" height="2.666670083999634" rx="1.3333300352096558" fill="url(#master_svg3_14_1652)" fill-opacity="1" style="mix-blend-mode:passthrough"/></g></g></g></g></svg>