<svg xmlns="http://www.w3.org/2000/svg" xmlns:xlink="http://www.w3.org/1999/xlink" fill="none" version="1.1" width="40" height="40" viewBox="0 0 40 40"><defs><clipPath id="master_svg0_14_1858"><rect x="0" y="0" width="40" height="40" rx="0"/></clipPath><linearGradient x1="0.5" y1="0" x2="0.5" y2="1" id="master_svg1_14_2389"><stop offset="0%" stop-color="#FFFFFF" stop-opacity="1"/><stop offset="100%" stop-color="#D6FBFF" stop-opacity="1"/></linearGradient></defs><g clip-path="url(#master_svg0_14_1858)"><g><path d="M6.1666259765625,6.4166259765625L13.3332959765625,6.4166259765625C17.015225976562498,6.4166259765625,19.9999259765625,8.4013659765625,19.9999259765625,10.0833159765625L19.9999259765625,33.5833259765625C19.9999259765625,31.8219259765625,17.7614259765625,30.5833259765625,14.9999259765625,30.5833259765625L6.1666259765625,30.5833259765625C5.0620569765625,30.5833259765625,4.1666259765625,29.6878259765625,4.1666259765625,28.5833259765625L4.1666259765625,8.4166259765625C4.1666259765625,7.3120569765625,5.0620569765625,6.4166259765625,6.1666259765625,6.4166259765625" fill="#0061FF" fill-opacity="1" style="mix-blend-mode:passthrough"/><path d="M2.4999559765625,8.4166259765625L2.4999559765625,28.5833259765625Q2.4999559765625,30.1021259765625,3.5739009765625003,31.1760259765625Q4.6478449765625,32.2499259765625,6.1666259765625,32.2499259765625L14.9999259765625,32.2499259765625Q16.6498259765625,32.2499259765625,17.693325976562498,32.8610259765625Q18.333225976562503,33.2357259765625,18.333225976562503,33.5833259765625Q18.333225976562503,33.665225976562496,18.3413259765625,33.7466259765625Q18.3493259765625,33.828125976562504,18.365325976562502,33.9084259765625Q18.3812259765625,33.9887259765625,18.4050259765625,34.0671259765625Q18.4288259765625,34.1454259765625,18.4601259765625,34.221125976562504Q18.4914259765625,34.2967259765625,18.5300259765625,34.3689259765625Q18.5686259765625,34.4412259765625,18.614125976562498,34.509225976562504Q18.659625976562502,34.5773259765625,18.7116259765625,34.640625976562504Q18.763525976562498,34.7039259765625,18.8214259765625,34.7618259765625Q18.879325976562498,34.819725976562495,18.9426259765625,34.8716259765625Q19.0059259765625,34.923625976562505,19.074025976562503,34.969125976562495Q19.1420259765625,35.0146259765625,19.2142259765625,35.0532259765625Q19.2865259765625,35.0917259765625,19.3621259765625,35.1231259765625Q19.4378259765625,35.1544259765625,19.5161259765625,35.1782259765625Q19.5945259765625,35.202025976562496,19.674825976562502,35.2179259765625Q19.7551259765625,35.2339259765625,19.8366259765625,35.2419259765625Q19.9180259765625,35.2500259765625,19.9999259765625,35.2500259765625Q20.0818259765625,35.2500259765625,20.1633259765625,35.2419259765625Q20.2448259765625,35.2339259765625,20.3251259765625,35.2179259765625Q20.4054259765625,35.202025976562496,20.4837259765625,35.1782259765625Q20.5621259765625,35.1544259765625,20.6377259765625,35.1231259765625Q20.7134259765625,35.0917259765625,20.7856259765625,35.0532259765625Q20.8578259765625,35.0146259765625,20.9259259765625,34.969125976562495Q20.9939259765625,34.923625976562505,21.0572259765625,34.8716259765625Q21.1205259765625,34.819725976562495,21.1784259765625,34.7618259765625Q21.2363259765625,34.7039259765625,21.2883259765625,34.640625976562504Q21.3402259765625,34.5773259765625,21.3857259765625,34.509225976562504Q21.4312259765625,34.4412259765625,21.4698259765625,34.3689259765625Q21.5084259765625,34.2967259765625,21.5397259765625,34.221125976562504Q21.5710259765625,34.1454259765625,21.5948259765625,34.0671259765625Q21.6186259765625,33.9887259765625,21.6346259765625,33.9084259765625Q21.6505259765625,33.828125976562504,21.6586259765625,33.7466259765625Q21.6666259765625,33.665225976562496,21.6666259765625,33.5833259765625L21.6666259765625,10.0833159765625Q21.6666259765625,7.8071559765625,18.8895259765625,6.1810019765625Q16.4456259765625,4.7499559765625,13.3332959765625,4.7499559765625L6.1666259765625,4.7499559765625Q4.6478429765625,4.7499559765625,3.5739009765625003,5.8239009765625Q2.4999559765625,6.8978429765625,2.4999559765625,8.4166259765625ZM18.333225976562503,29.4833259765625L18.333225976562503,10.0833159765625Q18.333225976562503,10.040755976562501,18.1735259765625,9.8406159765625Q17.8495259765625,9.434805976562501,17.2051259765625,9.0574759765625Q15.5415259765625,8.0832959765625,13.3332959765625,8.0832959765625L6.1666259765625,8.0832959765625Q5.8332959765625,8.0832959765625,5.8332959765625,8.4166259765625L5.8332959765625,28.5833259765625Q5.8332959765625,28.9166259765625,6.1666259765625,28.9166259765625L14.9999259765625,28.9166259765625Q16.8603259765625,28.9166259765625,18.333225976562503,29.4833259765625Z" fill-rule="evenodd" fill="#0061FF" fill-opacity="1" style="mix-blend-mode:passthrough"/></g><g><path d="M33.8333,6.4166259765625L26.66667,6.4166259765625C22.98475,6.4166259765625,20,8.4013659765625,20,10.0833159765625L20,33.5833259765625C20,31.8219259765625,22.23858,30.5833259765625,25,30.5833259765625L33.8333,30.5833259765625C34.9379,30.5833259765625,35.8333,29.6878259765625,35.8333,28.5833259765625L35.8333,8.4166259765625C35.8333,7.3120569765625,34.9379,6.4166259765625,33.8333,6.4166259765625" fill="#0061FF" fill-opacity="1" style="mix-blend-mode:passthrough"/><path d="M36.426100000000005,31.1760259765625Q37.5,30.1021259765625,37.5,28.5833259765625L37.5,8.4166259765625Q37.5,6.8978429765625,36.426100000000005,5.8239009765625Q35.3521,4.7499559765625,33.8333,4.7499559765625L26.66667,4.7499559765625Q23.55436,4.7499559765625,21.11045,6.1809999765625Q18.33333,7.8071559765625,18.33333,10.0833159765625L18.33333,33.5833259765625Q18.33333,33.665225976562496,18.34136,33.7466259765625Q18.34938,33.828125976562504,18.36536,33.9084259765625Q18.38133,33.9887259765625,18.4051,34.0671259765625Q18.42887,34.1454259765625,18.4602,34.221125976562504Q18.49153,34.2967259765625,18.53013,34.3689259765625Q18.56873,34.4412259765625,18.61422,34.509225976562504Q18.65971,34.5773259765625,18.71165,34.640625976562504Q18.76359,34.7039259765625,18.82149,34.7618259765625Q18.87939,34.819725976562495,18.94268,34.8716259765625Q19.005971,34.923625976562505,19.07405,34.969125976562495Q19.142129,35.0146259765625,19.214339,35.0532259765625Q19.286549,35.0917259765625,19.362194,35.1231259765625Q19.43784,35.1544259765625,19.516192,35.1782259765625Q19.594545,35.202025976562496,19.674849,35.2179259765625Q19.755154,35.2339259765625,19.836638,35.2419259765625Q19.9181219,35.2500259765625,20,35.2500259765625Q20.0818781,35.2500259765625,20.163362,35.2419259765625Q20.244846,35.2339259765625,20.325151,35.2179259765625Q20.405455,35.202025976562496,20.483808,35.1782259765625Q20.56216,35.1544259765625,20.637806,35.1231259765625Q20.713451,35.0917259765625,20.785661,35.0532259765625Q20.857871,35.0146259765625,20.92595,34.969125976562495Q20.994029,34.923625976562505,21.05732,34.8716259765625Q21.12061,34.819725976562495,21.17851,34.7618259765625Q21.23641,34.7039259765625,21.28835,34.640625976562504Q21.34029,34.5773259765625,21.38578,34.509225976562504Q21.43127,34.4412259765625,21.46987,34.3689259765625Q21.50847,34.2967259765625,21.5398,34.221125976562504Q21.57113,34.1454259765625,21.5949,34.0671259765625Q21.61867,33.9887259765625,21.63464,33.9084259765625Q21.65062,33.828125976562504,21.65864,33.7466259765625Q21.66667,33.665225976562496,21.66667,33.5833259765625Q21.66667,33.2357259765625,22.30664,32.8610259765625Q23.35017,32.2499259765625,25,32.2499259765625L33.8333,32.2499259765625Q35.3521,32.2499259765625,36.426100000000005,31.1760259765625ZM34.1667,8.4166259765625L34.1667,28.5833259765625Q34.1667,28.9166259765625,33.8333,28.9166259765625L25,28.9166259765625Q23.1396,28.9166259765625,21.66667,29.4833259765625L21.66667,10.0833159765625Q21.66667,10.040755976562501,21.82643,9.8406159765625Q22.15039,9.434805976562501,22.79478,9.0574759765625Q24.45848,8.0832959765625,26.66667,8.0832959765625L33.8333,8.0832959765625Q34.1667,8.0832959765625,34.1667,8.4166259765625Z" fill-rule="evenodd" fill="#0061FF" fill-opacity="1" style="mix-blend-mode:passthrough"/></g><g><path d="M7,6.4166259765625L13.33331,6.4166259765625C17.0152,6.4166259765625,19.9999,8.4013659765625,19.9999,10.0833159765625L19.9999,33.5833259765625C19.9999,31.8219259765625,17.761400000000002,30.5833259765625,14.9999,30.5833259765625L7,30.5833259765625C5.34315,30.5833259765625,4,29.2401259765625,4,27.5833259765625L4,9.4166259765625C4,7.7597759765625,5.34315,6.4166259765625,7,6.4166259765625" fill="#0049BF" fill-opacity="1" style="mix-blend-mode:passthrough"/></g><g><path d="M33,6.4166259765625L26.66669,6.4166259765625C22.98477,6.4166259765625,20,8.4013659765625,20,10.0833159765625L20,33.5833259765625C20,31.8219259765625,22.23858,30.5833259765625,25,30.5833259765625L33,30.5833259765625C34.6569,30.5833259765625,36,29.2401259765625,36,27.5833259765625L36,9.4166259765625C36,7.7597759765625,34.6569,6.4166259765625,33,6.4166259765625" fill="#0049BF" fill-opacity="1" style="mix-blend-mode:passthrough"/></g><g><path d="M8.1666259765625,6L13.3333159765625,6C17.015225976562498,6,19.9999259765625,7.98474,19.9999259765625,9.66669L19.9999259765625,31.1667C19.9999259765625,29.4053,17.7613259765625,29.1667,14.9999359765625,29.1667L8.1666259765625,29.1667C6.5097759765625,29.1667,5.1666259765625,27.8235,5.1666259765625,26.1667L5.1666259765625,9C5.1666259765625,7.34315,6.5097759765625,6,8.1666259765625,6" fill="#FFFFFF" fill-opacity="1" style="mix-blend-mode:passthrough"/><path d="M8.1666259765625,6L13.3333159765625,6C17.015225976562498,6,19.9999259765625,7.98474,19.9999259765625,9.66669L19.9999259765625,31.1667C19.9999259765625,29.4053,17.7613259765625,29.1667,14.9999359765625,29.1667L8.1666259765625,29.1667C6.5097759765625,29.1667,5.1666259765625,27.8235,5.1666259765625,26.1667L5.1666259765625,9C5.1666259765625,7.34315,6.5097759765625,6,8.1666259765625,6" fill="url(#master_svg1_14_2389)" fill-opacity="1" style="mix-blend-mode:passthrough"/></g><g><path d="M31.8333,6L26.66669,6C22.98477,6,20,7.98474,20,9.66669L20,31.1667C20,29.4053,22.23858,29.1667,25,29.1667L31.8333,29.1667C33.4902,29.1667,34.8333,27.8235,34.8333,26.1667L34.8333,9C34.8333,7.34315,33.4902,6,31.8333,6" fill="#6CFAFF" fill-opacity="1" style="mix-blend-mode:passthrough"/></g></g></svg>