<svg xmlns="http://www.w3.org/2000/svg" xmlns:xlink="http://www.w3.org/1999/xlink" fill="none" version="1.1" width="40" height="40" viewBox="0 0 40 40"><defs><clipPath id="master_svg0_14_1839"><rect x="0" y="0" width="40" height="40" rx="0"/></clipPath><linearGradient x1="0.5" y1="0" x2="0.5" y2="1" id="master_svg1_14_1652"><stop offset="0%" stop-color="#FFFFFF" stop-opacity="1"/><stop offset="100%" stop-color="#D6FBFF" stop-opacity="1"/></linearGradient></defs><g clip-path="url(#master_svg0_14_1839)"><g><path d="M37.16797109375,34.6373548828125C36.42597109375,33.7893548828125,36.41837109375,32.5507548828125,36.804471093749996,31.4922448828125C37.07187109375,30.7592848828125,37.21767109375,29.9679348828125,37.21767109375,29.1424848828125C37.21767109375,25.3558548828125,34.14807109375,22.2862548828125,30.36160109375,22.2862548828125C26.57497109375,22.2862548828125,23.50537109375,25.3558548828125,23.50537109375,29.1424848828125C23.50537109375,32.9289548828125,26.57497109375,35.9985548828125,30.36160109375,35.9985548828125C30.38727109375,35.9985548828125,30.41306109375,35.998454882812496,30.43873109375,35.9982548828125L36.55047109375,35.9982548828125C37.25547109375,35.9982548828125,37.63217109375,35.1678548828125,37.16797109375,34.6373548828125Z" fill-rule="evenodd" fill="#6CFAFF" fill-opacity="1" style="mix-blend-mode:passthrough"/></g><g><path d="M18.7570462890625,35.99779619140625C27.5933462890625,35.99779619140625,34.7565462890625,28.83449619140625,34.7565462890625,19.998096191406248C34.7565462890625,11.16184619140625,27.5933462890625,3.99859619140625,18.7570462890625,3.99859619140625C9.920666289062499,3.99859619140625,2.7574462890625,11.16184619140625,2.7574462890625,19.998096191406248C2.7574462890625,24.10299619140625,4.3032762890625005,27.84679619140625,6.8445562890625,30.67919619140625L4.6783862890625,32.84539619140625C3.5154402890625,34.008296191406245,4.3390862890625,35.99679619140625,5.9837562890625,35.99679619140625L17.5273462890625,35.99679619140625L17.5132462890625,35.95019619140625C17.9237462890625,35.98169619140625,18.3384462890625,35.99779619140625,18.7570462890625,35.99779619140625Z" fill-rule="evenodd" fill="#0061FF" fill-opacity="1" style="mix-blend-mode:passthrough"/></g><g><path d="M18.13041181640625,28.686701953125C17.313871816406248,28.686701953125,16.642791816406252,28.040501953125,16.642791816406252,27.247501953125C16.642791816406252,26.457701953125,17.31082181640625,25.808401953125,18.13041181640625,25.808401953125C18.95000181640625,25.808401953125,19.61803181640625,26.454601953125,19.61803181640625,27.247501953125C19.61498181640625,28.037401953125,18.94696181640625,28.686701953125,18.13041181640625,28.686701953125ZM19.61498181640625,21.311311953125L19.61498181640625,22.723601953124998C19.61498181640625,23.513501953125,18.94696181640625,24.162801953124998,18.12736181640625,24.162801953124998C17.30777181640625,24.162801953124998,16.63962181640625,23.516401953124998,16.63962181640625,22.723601953124998L16.63962181640625,20.090591953125C16.63962181640625,19.306641953125002,17.29535181640625,18.669441953125002,18.09947181640625,18.654431953125L18.09947181640625,18.651381953125C18.108721816406252,18.651381953125,18.118101816406252,18.654431953125,18.12736181640625,18.654431953125C19.29955181640625,18.654431953125,20.24902181640625,17.735911953125,20.24902181640625,16.601941953125C20.24902181640625,15.467961953125,19.29955181640625,14.549321953125,18.12736181640625,14.549321953125C16.96127181640625,14.549321953125,16.01497181640625,15.461871953125,16.00876181640625,16.589861953125002L16.00876181640625,16.616821953125C15.99950181640625,17.400781953124998,15.33451181640625,18.041031953125,14.52418181640625,18.041031953125C13.71080481640625,18.041031953125,13.04582500640625,17.400781953124998,13.03961181640625,16.616821953125L13.03961181640625,16.601941953125C13.03961181640625,13.885161953125,15.32525181640625,11.677001953125,18.13041181640625,11.677001953125C20.93873181640625,11.677001953125,23.22441181640625,13.888091953125,23.22441181640625,16.604871953125C23.22121181640625,18.815961953125,21.69960181640625,20.694971953125,19.61498181640625,21.311311953125Z" fill="url(#master_svg1_14_1652)" fill-opacity="1" style="mix-blend-mode:passthrough"/></g></g></svg>