<svg xmlns="http://www.w3.org/2000/svg" xmlns:xlink="http://www.w3.org/1999/xlink" fill="none" version="1.1" width="40" height="40" viewBox="0 0 40 40"><defs><clipPath id="master_svg0_14_0968"><rect x="0" y="0" width="40" height="40" rx="0"/></clipPath><linearGradient x1="0.5" y1="0" x2="0.5" y2="1" id="master_svg1_14_4587"><stop offset="0%" stop-color="#FFFFFF" stop-opacity="1"/><stop offset="100%" stop-color="#D6FBFF" stop-opacity="1"/></linearGradient><linearGradient x1="0.5" y1="0" x2="0.5" y2="1" id="master_svg2_14_4588"><stop offset="0%" stop-color="#D6FBFF" stop-opacity="1"/><stop offset="100%" stop-color="#D6EAFF" stop-opacity="1"/></linearGradient></defs><g clip-path="url(#master_svg0_14_0968)"><g><path d="M38.6546025390625,13.0424C38.6521025390625,13.6909,38.1273025390625,14.2221,37.4671025390625,14.2195C36.8145025390625,14.2168,36.2875025390625,13.6855,36.2900025390625,13.032C36.3023025390625,10.1951,35.2102025390625,7.52384,33.2141025390625,5.50939C33.2062125390625,5.50212,33.1989425390625,5.494,33.1910525390625,5.48673C31.1977725390625,3.48619,28.545662539062498,2.37759,25.7191025390625,2.36486C25.0662905390625,2.3615,24.5391815190625,1.82931,24.5426177978625,1.1765C24.5458984390625,0.523764,25.0773055390625,-0.00318861,25.730902539062498,0.0000144958C29.1837125390625,0.0158739,32.4240225390625,1.37001,34.8610025390625,3.81181C34.8720025390625,3.82244,34.8831025390625,3.83392,34.8941025390625,3.84454C37.3344025390625,6.30728,38.6698025390625,9.57439,38.6546025390625,13.0424Z" fill="#2882FF" fill-opacity="1" style="mix-blend-mode:passthrough"/></g><g><path d="M33.9255078125,13.02181908203125C33.9219978125,13.67782908203125,33.3873078125,14.20087908203125,32.7371578125,14.19829908203125C32.0843378125,14.19493908203125,31.5572278125,13.66274908203125,31.5605878125,13.00993908203125C31.5681678125,11.43720908203125,30.9622378125,9.95603908203125,29.8545778125,8.83821908203125C29.8536378125,8.83759908203125,29.8525478125,8.83618908203125,29.8516078125,8.835569082031249C28.7443378125,7.71931908203125,27.2694978125,7.10095908203125,25.6984078125,7.09384908203125C25.0449678125,7.09134908203125,24.5180160525,6.56001908203125,24.52051544189,5.90657908203125C24.5238754225,5.25377108203125,25.0552808125,4.72681770203125,25.7087178125,4.72931785583125C27.9073878125,4.73845863203125,29.970357812499998,5.60166108203125,31.5216078125,7.1606490820312505C31.5263678125,7.16446908203125,31.530587812500002,7.16931908203125,31.5346478125,7.173299082031249C33.0866778125,8.74032908203125,33.9358978125,10.81728908203125,33.9255078125,13.02181908203125Z" fill="#2882FF" fill-opacity="1" style="mix-blend-mode:passthrough"/></g><g><path d="M11.5564369140625,34.29608654296875C11.5250369140625,34.32865654296875,8.6616269140625,37.19670654296875,8.6392769140625,37.21870654296875C8.315056914062499,37.54220654296875,7.7939669140625,37.53670654296875,7.4759969140625,37.21800654296875L4.5345969140625,34.27108654296875L4.5049069140625,34.24139654296875L1.5853759140625,31.31639654296875C1.2658451140625,30.99686654296875,1.2650638140625,30.47811654296875,1.5845949140625,30.15701654296875L3.9986569140625,27.73201954296875L4.4877169140625,27.24139454296875C4.8080269140625,26.91951904296875,5.3291269140625,26.91795654296875,5.6509969140625,27.23983154296875L8.5752169140625,30.15858654296875L8.5759969140625,30.15936654296875L8.6049069140625,30.18826654296875L11.5556369140625,33.13514654296875C11.8760369140625,33.45545654296875,11.8767369140625,33.97576654296875,11.5564369140625,34.29608654296875Z" fill="#6CFAFF" fill-opacity="1"/></g><g><path d="M25.031472813415526,37.59225779296875L22.882332813415527,39.74467779296875C22.512022813415527,40.11558779296875,21.911162813415526,40.11598779296875,21.54023281341553,39.74569779296875L15.358120813415526,33.57296779296875C14.987261813415527,33.20264779296875,14.986792613415528,32.60179779296875,15.357103813415527,32.23085779296875L17.506242813415525,30.07843579296875C17.87655281341553,29.70757669296875,18.477412813415526,29.70710669296875,18.848352813415527,30.07741879296875L25.030462813415525,36.25014779296875C25.401372813415527,36.62054779296875,25.40187281341553,37.22139779296875,25.031472813415526,37.59225779296875Z" fill="#273757" fill-opacity="1" style="mix-blend-mode:passthrough"/></g><g><path d="M20.4142685546875,28.25078L18.7228685546875,29.9453L15.2540685546875,33.4195L13.4376685546875,35.2391C12.9079785546875,35.768699999999995,12.0486085546875,35.7695,11.5181385546875,35.2398L7.5048585546875,31.232799999999997L3.9986085546875,27.73203L3.4861085546875,27.220309999999998C2.9556405546875,26.69062,2.9548585546875,25.83047,3.4845465546875,25.30078L10.4618885546875,18.3125L15.4353685546875,23.279690000000002L20.4142685546875,28.25078Z" fill="#0061FF" fill-opacity="1"/></g><g><path d="M33.5883478515625,24.92429228515625L20.4141978515625,28.25079228515625L15.4353778515625,23.27949228515625L10.4615478515625,18.31279228515625L13.7680278515625,5.13408228515625C13.9996678515625,4.04377138515625,15.3481078515625,3.64431828515625,16.1373278515625,4.43158428515625L25.2025478515625,13.48377228515625L25.2118478515625,13.49330228515625L34.2869478515625,22.55409228515625C35.0762478515625,23.34209228515625,34.6786478515625,24.69049228515625,33.5883478515625,24.92429228515625Z" fill="url(#master_svg1_14_4587)" fill-opacity="1" style="mix-blend-mode:passthrough"/><path d="M33.5883478515625,24.92429228515625L20.4141978515625,28.25079228515625L15.4353778515625,23.27949228515625L10.4615478515625,18.31279228515625L13.7680278515625,5.13408228515625C13.9996678515625,4.04377138515625,15.3481078515625,3.64431828515625,16.1373278515625,4.43158428515625L25.2025478515625,13.48377228515625L25.2118478515625,13.49330228515625L34.2869478515625,22.55409228515625C35.0762478515625,23.34209228515625,34.6786478515625,24.69049228515625,33.5883478515625,24.92429228515625Z" fill="url(#master_svg2_14_4588)" fill-opacity="1" style="mix-blend-mode:passthrough"/></g></g></svg>