<svg xmlns="http://www.w3.org/2000/svg" xmlns:xlink="http://www.w3.org/1999/xlink" fill="none" version="1.1" width="18" height="18" viewBox="0 0 18 18"><defs><clipPath id="master_svg0_5564_08065"><rect x="0" y="0" width="18" height="18" rx="0"/></clipPath></defs><g clip-path="url(#master_svg0_5564_08065)"><g><g><g><path d="M13.52608,11.75399Q12.63819,10.500491261,11.251087,10.50000077486L11.25,10.5C10.835786,10.5,10.5,10.835786,10.5,11.25C10.5,11.66421,10.835786,12,11.25,12Q11.86216,12,12.30204,12.62101Q12.64435,13.10427,13.17275,14.51334Q13.76935,16.10427,14.22392,16.74601Q15.11216,18,16.5,18C16.91421,18,17.25,17.66421,17.25,17.25C17.25,16.83579,16.91421,16.5,16.5,16.5Q15.88784,16.5,15.44796,15.87899Q15.10565,15.39573,14.57725,13.98666Q13.98065,12.39573,13.52608,11.75399Z" fill-rule="evenodd" fill="#000000" fill-opacity="1" style="mix-blend-mode:passthrough"/></g><g><path d="M10.499996185302734,16.5Q10.939336185302734,16.5,11.657166185302735,15.78217Q12.181976185302734,15.25736,13.274996185302735,13.8Q14.431976185302734,12.25736,15.032166185302735,11.65717Q16.189336185302736,10.5,17.249996185302734,10.5C17.664206185302735,10.5,17.999996185302734,10.835786,17.999996185302734,11.25C17.999996185302734,11.66421,17.664206185302735,12,17.249996185302734,12Q16.810656185302733,12,16.092826185302734,12.71783Q15.568016185302735,13.24264,14.474996185302734,14.7Q13.318016185302735,16.24264,12.717826185302734,16.84283Q11.560656185302735,18,10.499996185302734,18C10.085782185302735,18,9.749996185302734,17.66421,9.749996185302734,17.25C9.749996185302734,16.83579,10.085782185302735,16.5,10.499996185302734,16.5Z" fill-rule="evenodd" fill="#000000" fill-opacity="1" style="mix-blend-mode:passthrough"/></g><g><path d="M3.749998092651367,5.925048828125L9.749998092651367,5.925048828125C10.164208092651368,5.925048828125,10.499998092651367,6.260834828125,10.499998092651367,6.675048828125C10.499998092651367,7.089258828125,10.164208092651368,7.425048828125,9.749998092651367,7.425048828125L3.749998092651367,7.425048828125C3.3357840926513673,7.425048828125,2.999998092651367,7.089258828125,2.999998092651367,6.675048828125C2.999998092651367,6.260834828125,3.3357840926513673,5.925048828125,3.749998092651367,5.925048828125Z" fill-rule="evenodd" fill="#000000" fill-opacity="1"/></g><g><path d="M12,3Q12,2.37868,11.5607,1.93934Q11.1213,1.5,10.5,1.5Q9.40408,1.5,8.66358,3.5797Q8.13605,5.06128,7.49069,9.11784Q6.82355,13.3113,6.24952,14.9234Q5.15408,18,3,18Q1.75736,18,0.87868,17.1213Q-1.19209e-7,16.2426,0,15C0,14.5858,0.335786,14.25,0.75,14.25C0.948912,14.25,1.13968,14.329,1.28033,14.4697C1.42098,14.6103,1.5,14.8011,1.5,15Q1.5,15.6213,1.93934,16.0607Q2.37868,16.5,3,16.5Q4.09592,16.5,4.83642,14.4203Q5.36395,12.9387,6.00932,8.88216Q6.67645,4.68871,7.25048,3.07655Q8.34592,5.96046e-8,10.5,1.19209e-7Q11.7426,1.78814e-7,12.6213,0.87868Q13.5,1.75736,13.5,3C13.5,3.41421,13.1642,3.75,12.75,3.75C12.3358,3.75,12,3.41421,12,3Z" fill-rule="evenodd" fill="#000000" fill-opacity="1"/></g></g></g></g></svg>