<svg xmlns="http://www.w3.org/2000/svg" xmlns:xlink="http://www.w3.org/1999/xlink" fill="none" version="1.1" width="24" height="24" viewBox="0 0 24 24"><defs><clipPath id="master_svg0_50_4747"><rect x="0" y="0" width="24" height="24" rx="0"/></clipPath></defs><g clip-path="url(#master_svg0_50_4747)"><g><path d="M7.53033,4.03033Q7.63582,3.924841,7.69291,3.787013Q7.75,3.649184,7.75,3.5Q7.75,3.4261315,7.73559,3.353682Q7.72118,3.281233,7.69291,3.212987Q7.66464,3.144742,7.6236,3.083322Q7.58256,3.021903,7.53033,2.96967Q7.4781,2.917437,7.41668,2.876398Q7.35526,2.835359,7.28701,2.80709Q7.21877,2.778822,7.14632,2.764411Q7.07387,2.75,7,2.75Q6.85082,2.75,6.71299,2.80709Q6.57516,2.864181,6.46967,2.96967L6.46938,2.969965L4,5.43934L3.03033,4.46967Q2.924841,4.364181,2.787013,4.30709Q2.649184,4.25,2.5,4.25Q2.4261315,4.25,2.353682,4.264411Q2.281233,4.278822,2.212987,4.30709Q2.144742,4.335359,2.083322,4.376398Q2.021903,4.417437,1.96967,4.46967Q1.917437,4.5219000000000005,1.876398,4.5833200000000005Q1.835359,4.6447400000000005,1.80709,4.71299Q1.778822,4.78123,1.764411,4.85368Q1.75,4.92613,1.75,5Q1.75,5.14918,1.80709,5.28701Q1.8641809999999999,5.42484,1.96967,5.53033L3.46967,7.03033Q3.57516,7.13582,3.71299,7.1929099999999995Q3.8508199999999997,7.25,4,7.25Q4.14918,7.25,4.28701,7.1929099999999995Q4.42484,7.13582,4.53033,7.03033L7.52987,4.030792L7.53033,4.03033L7.53033,4.03033Z" fill-rule="evenodd" fill="#000000" fill-opacity="1" style="mix-blend-mode:passthrough"/></g><g><path d="M7.53033,11.03033Q7.63582,10.924841,7.69291,10.787013Q7.75,10.649184,7.75,10.5Q7.75,10.4261315,7.73559,10.353682Q7.72118,10.281233,7.69291,10.212987Q7.66464,10.144742,7.6236,10.083322Q7.58256,10.021903,7.53033,9.96967Q7.4781,9.917437,7.41668,9.876398Q7.35526,9.835359,7.28701,9.80709Q7.21877,9.778822,7.14632,9.764410999999999Q7.07387,9.75,7,9.75Q6.85082,9.75,6.71299,9.80709Q6.57516,9.864181,6.46967,9.96967L6.46938,9.969965L4,12.43934L3.03033,11.46967Q2.924841,11.364181,2.787013,11.30709Q2.649184,11.25,2.5,11.25Q2.4261315,11.25,2.353682,11.264410999999999Q2.281233,11.278822,2.212987,11.30709Q2.144742,11.335359,2.083322,11.376398Q2.021903,11.417437,1.96967,11.46967Q1.917437,11.5219,1.876398,11.58332Q1.835359,11.64474,1.80709,11.71299Q1.778822,11.78123,1.764411,11.85368Q1.75,11.92613,1.75,12Q1.75,12.14918,1.80709,12.28701Q1.8641809999999999,12.42484,1.96967,12.53033L3.46967,14.03033Q3.57516,14.135819999999999,3.71299,14.19291Q3.8508199999999997,14.25,4,14.25Q4.14918,14.25,4.28701,14.19291Q4.42484,14.135819999999999,4.53033,14.03033L7.52987,11.030792L7.53033,11.03033L7.53033,11.03033Z" fill-rule="evenodd" fill="#000000" fill-opacity="1" style="mix-blend-mode:passthrough"/></g><g><path d="M7.53033,18.03033Q7.63582,17.924841,7.69291,17.787013Q7.75,17.649184,7.75,17.5Q7.75,17.4261315,7.73559,17.353682Q7.72118,17.281233,7.69291,17.212987Q7.66464,17.144742,7.6236,17.083322Q7.58256,17.021903000000002,7.53033,16.96967Q7.4781,16.917437,7.41668,16.876398000000002Q7.35526,16.835359,7.28701,16.80709Q7.21877,16.778822,7.14632,16.764411Q7.07387,16.75,7,16.75Q6.85082,16.75,6.71299,16.80709Q6.57516,16.864181,6.46967,16.96967L6.46938,16.969965L4,19.43934L3.03033,18.46967Q2.924841,18.364181,2.787013,18.30709Q2.649184,18.25,2.5,18.25Q2.4261315,18.25,2.353682,18.264411Q2.281233,18.278822,2.212987,18.30709Q2.144742,18.335359,2.083322,18.376398000000002Q2.021903,18.417437,1.96967,18.46967Q1.917437,18.5219,1.876398,18.58332Q1.835359,18.64474,1.80709,18.71299Q1.778822,18.78123,1.764411,18.85368Q1.75,18.92613,1.75,19Q1.75,19.14918,1.80709,19.28701Q1.8641809999999999,19.42484,1.96967,19.53033L3.46967,21.03033Q3.57516,21.13582,3.71299,21.19291Q3.8508199999999997,21.25,4,21.25Q4.14918,21.25,4.28701,21.19291Q4.42484,21.13582,4.53033,21.03033L7.52987,18.030792L7.53033,18.03033L7.53033,18.03033Z" fill-rule="evenodd" fill="#000000" fill-opacity="1" style="mix-blend-mode:passthrough"/></g><g><path d="M10.5,11.25L21.5,11.25Q21.573900000000002,11.25,21.6463,11.264410999999999Q21.7188,11.278822,21.787,11.30709Q21.8553,11.335359,21.9167,11.376398Q21.978099999999998,11.417437,22.0303,11.46967Q22.0826,11.521903,22.1236,11.583322Q22.1646,11.644742,22.1929,11.712987Q22.2212,11.781233,22.235599999999998,11.853682Q22.25,11.9261315,22.25,12Q22.25,12.0738685,22.235599999999998,12.146318Q22.2212,12.218767,22.1929,12.287013Q22.1646,12.355258,22.1236,12.416678Q22.0826,12.478097,22.0303,12.53033Q21.978099999999998,12.582563,21.9167,12.623602Q21.8553,12.664641,21.787,12.69291Q21.7188,12.721178,21.6463,12.735589000000001Q21.573900000000002,12.75,21.5,12.75L10.5,12.75Q10.4261315,12.75,10.353682,12.735589000000001Q10.281233,12.721178,10.212987,12.69291Q10.144742,12.664641,10.083322,12.623602Q10.021903,12.582563,9.96967,12.53033Q9.917437,12.478097,9.876398,12.416678Q9.835359,12.355258,9.80709,12.287013Q9.778822,12.218767,9.764410999999999,12.146318Q9.75,12.0738685,9.75,12Q9.75,11.9261315,9.764410999999999,11.853682Q9.778822,11.781233,9.80709,11.712987Q9.835359,11.644742,9.876398,11.583322Q9.917437,11.521903,9.96967,11.46967Q10.021903,11.417437,10.083322,11.376398Q10.144742,11.335359,10.212987,11.30709Q10.281233,11.278822,10.353682,11.264410999999999Q10.4261315,11.25,10.5,11.25Z" fill-rule="evenodd" fill="#000000" fill-opacity="1" style="mix-blend-mode:passthrough"/></g><g><path d="M10.5,18.25L21.5,18.25Q21.573900000000002,18.25,21.6463,18.264411Q21.7188,18.278822,21.787,18.30709Q21.8553,18.335359,21.9167,18.376398000000002Q21.978099999999998,18.417437,22.0303,18.46967Q22.0826,18.521903000000002,22.1236,18.583322Q22.1646,18.644742,22.1929,18.712987Q22.2212,18.781233,22.235599999999998,18.853682Q22.25,18.9261315,22.25,19Q22.25,19.0738685,22.235599999999998,19.146318Q22.2212,19.218767,22.1929,19.287013Q22.1646,19.355258,22.1236,19.416678Q22.0826,19.478096999999998,22.0303,19.53033Q21.978099999999998,19.582563,21.9167,19.623601999999998Q21.8553,19.664641,21.787,19.69291Q21.7188,19.721178,21.6463,19.735589Q21.573900000000002,19.75,21.5,19.75L10.5,19.75Q10.4261315,19.75,10.353682,19.735589Q10.281233,19.721178,10.212987,19.69291Q10.144742,19.664641,10.083322,19.623601999999998Q10.021903,19.582563,9.96967,19.53033Q9.917437,19.478096999999998,9.876398,19.416678Q9.835359,19.355258,9.80709,19.287013Q9.778822,19.218767,9.764410999999999,19.146318Q9.75,19.0738685,9.75,19Q9.75,18.9261315,9.764410999999999,18.853682Q9.778822,18.781233,9.80709,18.712987Q9.835359,18.644742,9.876398,18.583322Q9.917437,18.521903000000002,9.96967,18.46967Q10.021903,18.417437,10.083322,18.376398000000002Q10.144742,18.335359,10.212987,18.30709Q10.281233,18.278822,10.353682,18.264411Q10.4261315,18.25,10.5,18.25Z" fill-rule="evenodd" fill="#000000" fill-opacity="1" style="mix-blend-mode:passthrough"/></g><g><path d="M10.5,4.25L21.5,4.25Q21.573900000000002,4.25,21.6463,4.264411Q21.7188,4.278822,21.787,4.30709Q21.8553,4.335359,21.9167,4.376398Q21.978099999999998,4.417437,22.0303,4.46967Q22.0826,4.521903,22.1236,4.583322Q22.1646,4.644742,22.1929,4.712987Q22.2212,4.781233,22.235599999999998,4.853682Q22.25,4.9261315,22.25,5Q22.25,5.0738685,22.235599999999998,5.146318Q22.2212,5.218767,22.1929,5.287013Q22.1646,5.355258,22.1236,5.416678Q22.0826,5.478097,22.0303,5.53033Q21.978099999999998,5.582563,21.9167,5.623602Q21.8553,5.664641,21.787,5.69291Q21.7188,5.721178,21.6463,5.735589Q21.573900000000002,5.75,21.5,5.75L10.5,5.75Q10.4261315,5.75,10.353682,5.735589Q10.281233,5.721178,10.212987,5.69291Q10.144742,5.664641,10.083322,5.623602Q10.021903,5.582563,9.96967,5.53033Q9.917437,5.478097,9.876398,5.416678Q9.835359,5.355258,9.80709,5.287013Q9.778822,5.218767,9.764410999999999,5.146318Q9.75,5.0738685,9.75,5Q9.75,4.9261315,9.764410999999999,4.853682Q9.778822,4.781233,9.80709,4.712987Q9.835359,4.644742,9.876398,4.583322Q9.917437,4.521903,9.96967,4.46967Q10.021903,4.417437,10.083322,4.376398Q10.144742,4.335359,10.212987,4.30709Q10.281233,4.278822,10.353682,4.264411Q10.4261315,4.25,10.5,4.25Z" fill-rule="evenodd" fill="#000000" fill-opacity="1" style="mix-blend-mode:passthrough"/></g></g></svg>