<svg xmlns="http://www.w3.org/2000/svg" xmlns:xlink="http://www.w3.org/1999/xlink" fill="none" version="1.1" width="24" height="24" viewBox="0 0 24 24"><defs><clipPath id="master_svg0_29_5481"><rect x="0" y="0" width="24" height="24" rx="0"/></clipPath></defs><g clip-path="url(#master_svg0_29_5481)"><g><path d="M15.181999927520751,2.8180194768371583Q13.863959927520751,1.5000004768371582,11.99999992752075,1.5000004768371582Q10.136039927520752,1.5000004768371582,8.818019927520751,2.8180194768371583Q7.4999999275207525,4.136040476837158,7.4999999275207525,6.000000476837158Q7.4999999275207525,7.863960476837158,8.818019927520751,9.181980476837158Q10.136039927520752,10.500000476837158,11.99999992752075,10.500000476837158Q13.863959927520751,10.500000476837158,15.181999927520751,9.181980476837158Q16.499999927520754,7.863960476837158,16.499999927520754,6.000000476837158Q16.499999927520754,4.136040476837158,15.181999927520751,2.8180194768371583ZM9.878679927520752,3.8786804768371583Q10.757359927520753,3.000000476837158,11.99999992752075,3.000000476837158Q13.242639927520752,3.000000476837158,14.121319927520751,3.8786804768371583Q14.999999927520753,4.7573604768371585,14.999999927520753,6.000000476837158Q14.999999927520753,7.242640476837158,14.121319927520751,8.121320476837159Q13.242639927520752,9.000000476837158,11.99999992752075,9.000000476837158Q10.757359927520753,9.000000476837158,9.878679927520752,8.121320476837159Q8.99999992752075,7.242640476837158,8.99999992752075,6.000000476837158Q8.99999992752075,4.7573604768371585,9.878679927520752,3.8786804768371583ZM5.442385927520752,21.32090047683716Q8.599689927520753,22.500000476837158,11.99999992752075,22.500000476837158Q12.073869927520752,22.500000476837158,12.146319927520752,22.48560047683716Q12.218769927520752,22.471200476837158,12.287009927520753,22.44290047683716Q12.355259927520752,22.41460047683716,12.416679927520752,22.373600476837158Q12.478099927520752,22.332600476837158,12.530329927520752,22.28030047683716Q12.582559927520752,22.22810047683716,12.623599927520752,22.166700476837157Q12.664639927520751,22.105300476837158,12.692909927520752,22.037000476837157Q12.721179927520751,21.96880047683716,12.735589927520753,21.89630047683716Q12.749999927520753,21.823900476837157,12.749999927520753,21.750000476837158Q12.749999927520753,21.67610047683716,12.735589927520753,21.603700476837158Q12.721179927520751,21.531200476837157,12.692909927520752,21.46300047683716Q12.664639927520751,21.39470047683716,12.623599927520752,21.33330047683716Q12.582559927520752,21.271900476837157,12.530329927520752,21.219700476837158Q12.478099927520752,21.16740047683716,12.416679927520752,21.12640047683716Q12.355259927520752,21.085400476837158,12.287009927520753,21.057100476837157Q12.218769927520752,21.02880047683716,12.146319927520752,21.014400476837157Q12.073869927520752,21.000000476837158,11.99999992752075,21.000000476837158Q8.870639927520752,21.000000476837158,5.967159927520752,19.91570047683716Q5.239673927520752,19.644000476837157,5.372104927520752,18.956100476837157Q5.825689927520752,16.599900476837156,7.679869927520752,15.053800476837159Q9.554829927520752,13.490500476837159,11.99999992752075,13.490500476837159Q14.280229927520752,13.490500476837159,16.08869992752075,14.869300476837159Q16.186699927520753,14.944000476837159,16.303499927520754,14.983400476837158Q16.420199927520752,15.022900476837158,16.543499927520752,15.022900476837158Q16.617299927520754,15.022900476837158,16.689799927520752,15.008500476837158Q16.762199927520754,14.994100476837158,16.83049992752075,14.965800476837158Q16.898699927520752,14.937500476837158,16.96009992752075,14.896500476837158Q17.021599927520754,14.855400476837158,17.073799927520753,14.803200476837159Q17.125999927520752,14.751000476837158,17.167099927520752,14.689600476837159Q17.208099927520752,14.628100476837158,17.23639992752075,14.559900476837159Q17.264599927520752,14.491600476837158,17.279099927520754,14.419200476837158Q17.293499927520752,14.346700476837158,17.293499927520752,14.272900476837158Q17.293499927520752,14.186300476837157,17.273699927520752,14.102000476837159Q17.253999927520752,14.017700476837158,17.215599927520753,13.940100476837157Q17.177199927520753,13.862500476837159,17.12209992752075,13.795700476837158Q17.066999927520754,13.728900476837158,16.99819992752075,13.676500476837159Q14.786799927520752,11.990460476837159,11.99999992752075,11.990460476837159Q9.011499927520752,11.990460476837159,6.719259927520752,13.901800476837158Q4.453926027520752,15.790700476837157,3.899149927520752,18.672500476837158Q3.733508927520752,19.53300047683716,4.193686927520752,20.292900476837158Q4.633243927520752,21.018700476837157,5.442385927520752,21.32090047683716Z" fill-rule="evenodd" fill="#000000" fill-opacity="1"/></g><g><path d="M19.943004814453126,15.067138671875C18.346654814453125,15.066967691875,17.135904814453124,16.506178671875,17.409294814453126,18.078948671875C17.434814814453127,18.227518671875,17.397104814453126,18.352088671875,17.325104814453127,18.424088671875L14.848910814453125,20.899898671875C14.634744814453125,21.114148671875,14.514434859866226,21.404788671875,14.514434814453125,21.707898671875L14.514434814453125,22.781428671875C14.514434814453125,22.939138671875,14.642434814453125,23.067138671875,14.800148814453125,23.067138671875L16.228724814453123,23.067138671875C16.386514814453125,23.067138671875,16.514434814453125,22.939218671875,16.514434814453125,22.781428671875L16.514434814453125,22.209998671875L17.085864814453124,22.209998671875C17.243654814453127,22.209998671875,17.371574814453126,22.082078671875,17.371574814453126,21.924278671875L17.371574814453126,21.352848671875L17.943004814453126,21.352848671875C18.018754814453125,21.352788671875,18.091384814453125,21.322638671874998,18.144914814453124,21.269048671874998L19.157484814453124,20.256468671874998C19.229864814453123,20.184468671875,19.354434814453125,20.146758671875,19.502624814453124,20.172658671875C20.986604814453123,20.428318671875,22.371704814453125,19.359808671875,22.501104814453125,17.859548671875C22.630514814453125,16.359278671875,21.448844814453125,15.069372401875,19.943004814453126,15.067138671875ZM19.943004814453126,16.209998671875C19.785214814453127,16.209998671875,19.657294814453124,16.337918671875,19.657294814453124,16.495708671875C19.657294814453124,16.653508671875,19.785214814453127,16.781428671875,19.943004814453126,16.781428671875C20.416394814453124,16.781428671875,20.800144814453127,17.165178671875,20.800144814453127,17.638568671875C20.800144814453127,17.796358671875,20.928064814453126,17.924278671875,21.085864814453124,17.924278671875C21.243654814453123,17.924278671875,21.371574814453126,17.796358671875,21.371574814453126,17.638568671875C21.371574814453126,16.849588671875,20.731984814453124,16.209998671875,19.943004814453126,16.209998671875Z" fill-rule="evenodd" fill="#000000" fill-opacity="1"/></g></g></svg>