<svg xmlns="http://www.w3.org/2000/svg" xmlns:xlink="http://www.w3.org/1999/xlink" fill="none" version="1.1" width="24" height="24" viewBox="0 0 24 24"><defs><clipPath id="master_svg0_39_5039"><rect x="0" y="0" width="24" height="24" rx="0"/></clipPath></defs><g clip-path="url(#master_svg0_39_5039)"><g><path d="M3.25,21Q3.25,22.75,5,22.75L12,22.75Q12.07387,22.75,12.14632,22.7356Q12.21877,22.7212,12.28701,22.6929Q12.35526,22.6646,12.41668,22.6236Q12.4781,22.5826,12.53033,22.5303Q12.58256,22.4781,12.6236,22.4167Q12.66464,22.3553,12.69291,22.287Q12.72118,22.2188,12.73559,22.1463Q12.75,22.0739,12.75,22Q12.75,21.9261,12.73559,21.8537Q12.72118,21.7812,12.69291,21.713Q12.66464,21.6447,12.6236,21.5833Q12.58256,21.5219,12.53033,21.4697Q12.4781,21.4174,12.41668,21.3764Q12.35526,21.3354,12.28701,21.3071Q12.21877,21.2788,12.14632,21.2644Q12.07387,21.25,12,21.25L5,21.25Q4.896442,21.25,4.82322,21.1768Q4.75,21.1036,4.75,21L4.75,4.5Q4.75,4.396446,4.8232230000000005,4.3232230000000005Q4.896446,4.25,5,4.25L8.5,4.25Q8.57387,4.25,8.64632,4.235589Q8.71877,4.221178,8.78701,4.19291Q8.855260000000001,4.164641,8.91668,4.123602Q8.978100000000001,4.082563,9.03033,4.03033Q9.08256,3.978097,9.1236,3.916678Q9.16464,3.855258,9.192910000000001,3.787013Q9.22118,3.718767,9.23559,3.646318Q9.25,3.5738685,9.25,3.5Q9.25,3.4261315,9.23559,3.353682Q9.22118,3.281233,9.192910000000001,3.212987Q9.16464,3.144742,9.1236,3.083322Q9.08256,3.021903,9.03033,2.96967Q8.978100000000001,2.917437,8.91668,2.876398Q8.855260000000001,2.835359,8.78701,2.80709Q8.71877,2.778822,8.64632,2.764411Q8.57387,2.75,8.5,2.75L5,2.75Q3.25,2.75,3.25,4.5L3.25,21ZM15.5,2.75L19,2.75Q19.724899999999998,2.75,20.2374,3.262566Q20.75,3.775126,20.75,4.5L20.75,10.75Q20.75,10.82387,20.7356,10.89632Q20.7212,10.96877,20.6929,11.03701Q20.6646,11.105260000000001,20.6236,11.16668Q20.5826,11.228100000000001,20.5303,11.28033Q20.4781,11.33256,20.4167,11.3736Q20.3553,11.41464,20.287,11.442910000000001Q20.2188,11.47118,20.1463,11.48559Q20.0739,11.5,20,11.5Q19.926099999999998,11.5,19.8537,11.48559Q19.7812,11.47118,19.713,11.442910000000001Q19.6447,11.41464,19.5833,11.3736Q19.521900000000002,11.33256,19.4697,11.28033Q19.4174,11.228100000000001,19.3764,11.16668Q19.3354,11.105260000000001,19.3071,11.03701Q19.2788,10.96877,19.264400000000002,10.89632Q19.25,10.82387,19.25,10.75L19.25,4.5Q19.25,4.25,19,4.25L15.5,4.25Q15.4261,4.25,15.3537,4.235589Q15.2812,4.221178,15.213,4.19291Q15.1447,4.164641,15.0833,4.123602Q15.0219,4.082563,14.9697,4.03033Q14.9174,3.978097,14.8764,3.916678Q14.8354,3.855258,14.8071,3.787013Q14.7788,3.718767,14.7644,3.646318Q14.75,3.5738685,14.75,3.5Q14.75,3.4261315,14.7644,3.353682Q14.7788,3.281233,14.8071,3.212987Q14.8354,3.144742,14.8764,3.083322Q14.9174,3.021903,14.9697,2.96967Q15.0219,2.917437,15.0833,2.876398Q15.1447,2.835359,15.213,2.80709Q15.2812,2.778822,15.3537,2.764411Q15.4261,2.75,15.5,2.75Z" fill-rule="evenodd" fill="#000000" fill-opacity="1" style="mix-blend-mode:passthrough"/></g><g><path d="M7.75,3.5Q7.75,2.5680199999999997,8.4090097,1.9090097Q9.068019,1.25,10,1.25L14,1.25Q14.93198,1.25,15.59099,1.9090097Q16.25,2.5680199999999997,16.25,3.5Q16.25,4.431979999999999,15.59099,5.09099Q14.93198,5.75,14,5.75L10,5.75Q9.06802,5.75,8.4090097,5.09099Q7.75,4.431979999999999,7.75,3.5ZM9.25,3.5Q9.25,3.81066,9.46967,4.03033Q9.68934,4.25,10,4.25L14,4.25Q14.31066,4.25,14.53033,4.03033Q14.75,3.81066,14.75,3.5Q14.75,3.18934,14.53033,2.96967Q14.31066,2.75,14,2.75L10,2.75Q9.68934,2.75,9.46967,2.96967Q9.25,3.18934,9.25,3.5Z" fill="#000000" fill-opacity="1" style="mix-blend-mode:passthrough"/></g><g><path d="M10.324484726562499,8.28033Q10.4299747265625,8.174841,10.487064726562501,8.037013Q10.5441547265625,7.899184,10.5441547265625,7.75Q10.5441547265625,7.6761315,10.5297447265625,7.603682Q10.5153347265625,7.531233,10.487064726562501,7.462987Q10.4587947265625,7.394742,10.4177547265625,7.333322Q10.3767147265625,7.271903,10.324484726562499,7.21967Q10.272254726562501,7.167437,10.2108347265625,7.126398Q10.149414726562501,7.085359,10.0811647265625,7.05709Q10.012924726562499,7.028822,9.940474726562499,7.014411Q9.8680247265625,7,9.7941547265625,7Q9.644964726562499,7,9.507144726562501,7.05709Q9.3693147265625,7.114181,9.2638247265625,7.21967L8.0294477265625,8.454045L7.6774247265625,8.102022999999999Q7.5719357265625,7.996533,7.4341077265625,7.939443Q7.2962787265625,7.882353,7.1470947265625,7.882353Q7.0732262265625,7.882353,7.0007767265625,7.896764Q6.9283277265625,7.911175,6.8600817265625,7.939443Q6.7918367265625,7.9677109999999995,6.7304167265625,8.008751Q6.6689977265625,8.04979,6.6167647265625,8.102022999999999Q6.5645317265625,8.154256,6.5234927265625,8.215675Q6.4824537265625,8.277095,6.4541847265625,8.34534Q6.4259167265625,8.413586,6.4115057265625,8.486035Q6.3970947265625,8.558484,6.3970947265625,8.632353Q6.3970947265625,8.78154,6.4541847265625,8.91937Q6.5112757265625,9.05719,6.6167647265625,9.16268L6.6169187265625,9.16284L7.4991177265625,10.04504Q7.5513507265625,10.09727,7.6127697265625,10.13831Q7.6741897265625,10.17935,7.7424347265625,10.207609999999999Q7.8106807265625005,10.23588,7.8831297265625,10.25029Q7.9555787265625,10.264710000000001,8.0294477265625,10.264710000000001Q8.1033167265625,10.264710000000001,8.1757647265625,10.25029Q8.2482147265625,10.23588,8.3164647265625,10.207609999999999Q8.3847047265625,10.17935,8.4461247265625,10.13831Q8.5075447265625,10.09727,8.5597747265625,10.04504L10.324484726562499,8.28033L10.324484726562499,8.28033Z" fill-rule="evenodd" fill="#000000" fill-opacity="1" style="mix-blend-mode:passthrough"/></g><g><path d="M10.324484726562499,12.39797907836914Q10.4299747265625,12.292490078369141,10.487064726562501,12.15466207836914Q10.5441547265625,12.01683307836914,10.5441547265625,11.86764907836914Q10.5441547265625,11.793780578369141,10.5297447265625,11.72133107836914Q10.5153347265625,11.648882078369141,10.487064726562501,11.58063607836914Q10.4587947265625,11.512391078369141,10.4177547265625,11.450971078369141Q10.3767147265625,11.38955207836914,10.324484726562499,11.337319078369141Q10.272254726562501,11.28508607836914,10.2108347265625,11.24404707836914Q10.149414726562501,11.203008078369141,10.0811647265625,11.174739078369141Q10.012924726562499,11.14647107836914,9.940474726562499,11.13206007836914Q9.8680247265625,11.11764907836914,9.7941547265625,11.11764907836914Q9.644964726562499,11.11764907836914,9.507144726562501,11.174739078369141Q9.3693147265625,11.231830078369141,9.2638247265625,11.337319078369141L8.0294477265625,12.571694078369141L7.6774247265625,12.21967207836914Q7.5719357265625,12.11418207836914,7.4341077265625,12.057092078369141Q7.2962787265625,12.00000207836914,7.1470947265625,12.00000207836914Q7.0732262265625,12.00000207836914,7.0007767265625,12.01441307836914Q6.9283277265625,12.02882407836914,6.8600817265625,12.057092078369141Q6.7918367265625,12.08536007836914,6.7304167265625,12.12640007836914Q6.6689977265625,12.16743907836914,6.6167647265625,12.21967207836914Q6.5645317265625,12.27190507836914,6.5234927265625,12.33332407836914Q6.4824537265625,12.39474407836914,6.4541847265625,12.46298907836914Q6.4259167265625,12.531235078369141,6.4115057265625,12.60368407836914Q6.3970947265625,12.67613307836914,6.3970947265625,12.75000207836914Q6.3970947265625,12.89918907836914,6.4541847265625,13.037019078369141Q6.5112757265625,13.174839078369141,6.6167647265625,13.28032907836914L6.6169187265625,13.28048907836914L7.4991177265625,14.16268907836914Q7.5513507265625,14.21491907836914,7.6127697265625,14.255959078369141Q7.6741897265625,14.29699907836914,7.7424347265625,14.32525907836914Q7.8106807265625005,14.35352907836914,7.8831297265625,14.36793907836914Q7.9555787265625,14.382359078369142,8.0294477265625,14.382359078369142Q8.1033167265625,14.382359078369142,8.1757647265625,14.36793907836914Q8.2482147265625,14.35352907836914,8.3164647265625,14.32525907836914Q8.3847047265625,14.29699907836914,8.4461247265625,14.255959078369141Q8.5075447265625,14.21491907836914,8.5597747265625,14.16268907836914L10.324484726562499,12.39797907836914L10.324484726562499,12.39797907836914Z" fill-rule="evenodd" fill="#000000" fill-opacity="1" style="mix-blend-mode:passthrough"/></g><g><path d="M10.324484726562499,16.515624342041015Q10.4299747265625,16.410135342041016,10.487064726562501,16.272307342041017Q10.5441547265625,16.134478342041017,10.5441547265625,15.985294342041016Q10.5441547265625,15.911425842041016,10.5297447265625,15.838976342041015Q10.5153347265625,15.766527342041016,10.487064726562501,15.698281342041016Q10.4587947265625,15.630036342041016,10.4177547265625,15.568616342041016Q10.3767147265625,15.507197342041016,10.324484726562499,15.454964342041016Q10.272254726562501,15.402731342041015,10.2108347265625,15.361692342041016Q10.149414726562501,15.320653342041016,10.0811647265625,15.292384342041016Q10.012924726562499,15.264116342041016,9.940474726562499,15.249705342041015Q9.8680247265625,15.235294342041016,9.7941547265625,15.235294342041016Q9.644964726562499,15.235294342041016,9.507144726562501,15.292384342041016Q9.3693147265625,15.349475342041016,9.2638247265625,15.454964342041016L8.0294477265625,16.689339342041016L7.6774247265625,16.337317342041015Q7.5719357265625,16.231827342041015,7.4341077265625,16.174737342041016Q7.2962787265625,16.117647342041014,7.1470947265625,16.117647342041014Q7.0732262265625,16.117647342041014,7.0007767265625,16.132058342041017Q6.9283277265625,16.146469342041016,6.8600817265625,16.174737342041016Q6.7918367265625,16.203005342041017,6.7304167265625,16.244045342041016Q6.6689977265625,16.285084342041017,6.6167647265625,16.337317342041015Q6.5645317265625,16.389550342041016,6.5234927265625,16.450969342041017Q6.4824537265625,16.512389342041015,6.4541847265625,16.580634342041016Q6.4259167265625,16.648880342041014,6.4115057265625,16.721329342041017Q6.3970947265625,16.793778342041016,6.3970947265625,16.867647342041014Q6.3970947265625,17.016834342041015,6.4541847265625,17.154664342041016Q6.5112757265625,17.292484342041014,6.6167647265625,17.397974342041017L6.6169187265625,17.398134342041015L7.4991177265625,18.280334342041016Q7.5513507265625,18.332564342041017,7.6127697265625,18.373604342041016Q7.6741897265625,18.414644342041015,7.7424347265625,18.442904342041015Q7.8106807265625005,18.471174342041017,7.8831297265625,18.485584342041015Q7.9555787265625,18.500004342041017,8.0294477265625,18.500004342041017Q8.1033167265625,18.500004342041017,8.1757647265625,18.485584342041015Q8.2482147265625,18.471174342041017,8.3164647265625,18.442904342041015Q8.3847047265625,18.414644342041015,8.4461247265625,18.373604342041016Q8.5075447265625,18.332564342041017,8.5597747265625,18.280334342041016L10.324484726562499,16.515624342041015L10.324484726562499,16.515624342041015Z" fill-rule="evenodd" fill="#000000" fill-opacity="1" style="mix-blend-mode:passthrough"/></g><g><path d="M11.85302734375,12L13.85302734375,12Q13.92689734375,12,13.99934734375,12.014410999999999Q14.07179734375,12.028822,14.14003734375,12.05709Q14.20828734375,12.085359,14.26970734375,12.126398Q14.33112734375,12.167437,14.38335734375,12.21967Q14.43558734375,12.271903,14.47662734375,12.333322Q14.51766734375,12.394742,14.54593734375,12.462987Q14.57420734375,12.531233,14.58861734375,12.603682Q14.60302734375,12.6761315,14.60302734375,12.75Q14.60302734375,12.8238685,14.58861734375,12.896318Q14.57420734375,12.968767,14.54593734375,13.037013Q14.51766734375,13.105258,14.47662734375,13.166678Q14.43558734375,13.228097,14.38335734375,13.28033Q14.33112734375,13.332563,14.26970734375,13.373602Q14.20828734375,13.414641,14.14003734375,13.44291Q14.07179734375,13.471178,13.99934734375,13.485589000000001Q13.92689734375,13.5,13.85302734375,13.5L11.85302734375,13.5Q11.77915884375,13.5,11.70670934375,13.485589000000001Q11.63426034375,13.471178,11.56601434375,13.44291Q11.49776934375,13.414641,11.43634934375,13.373602Q11.37493034375,13.332563,11.32269734375,13.28033Q11.27046434375,13.228097,11.22942534375,13.166678Q11.18838634375,13.105258,11.16011734375,13.037013Q11.13184934375,12.968767,11.117438343749999,12.896318Q11.10302734375,12.8238685,11.10302734375,12.75Q11.10302734375,12.6761315,11.117438343749999,12.603682Q11.13184934375,12.531233,11.16011734375,12.462987Q11.18838634375,12.394742,11.22942534375,12.333322Q11.27046434375,12.271903,11.32269734375,12.21967Q11.37493034375,12.167437,11.43634934375,12.126398Q11.49776934375,12.085359,11.56601434375,12.05709Q11.63426034375,12.028822,11.70670934375,12.014410999999999Q11.77915884375,12,11.85302734375,12Z" fill-rule="evenodd" fill="#000000" fill-opacity="1" style="mix-blend-mode:passthrough"/></g><g><path d="M11.85302734375,7.882362365722656L16.85302734375,7.882362365722656Q16.92689734375,7.882362365722656,16.99934734375,7.896773365722656Q17.07179734375,7.911184365722656,17.140037343750002,7.939452365722656Q17.20828734375,7.967721365722657,17.26970734375,8.008760365722656Q17.33112734375,8.049799365722656,17.38335734375,8.102032365722657Q17.43558734375,8.154265365722656,17.47662734375,8.215684365722657Q17.51766734375,8.277104365722657,17.54593734375,8.345349365722656Q17.57420734375,8.413595365722657,17.588617343750002,8.486044365722655Q17.60302734375,8.558493865722657,17.60302734375,8.632362365722656Q17.60302734375,8.706230865722656,17.588617343750002,8.778680365722657Q17.57420734375,8.851129365722656,17.54593734375,8.919375365722656Q17.51766734375,8.987620365722655,17.47662734375,9.049040365722655Q17.43558734375,9.110459365722656,17.38335734375,9.162692365722656Q17.33112734375,9.214925365722657,17.26970734375,9.255964365722656Q17.20828734375,9.297003365722656,17.140037343750002,9.325272365722656Q17.07179734375,9.353540365722656,16.99934734375,9.367951365722657Q16.92689734375,9.382362365722656,16.85302734375,9.382362365722656L11.85302734375,9.382362365722656Q11.77915884375,9.382362365722656,11.70670934375,9.367951365722657Q11.63426034375,9.353540365722656,11.56601434375,9.325272365722656Q11.49776934375,9.297003365722656,11.43634934375,9.255964365722656Q11.37493034375,9.214925365722657,11.32269734375,9.162692365722656Q11.27046434375,9.110459365722656,11.22942534375,9.049040365722655Q11.18838634375,8.987620365722655,11.16011734375,8.919375365722656Q11.13184934375,8.851129365722656,11.117438343749999,8.778680365722657Q11.10302734375,8.706230865722656,11.10302734375,8.632362365722656Q11.10302734375,8.558493865722657,11.117438343749999,8.486044365722655Q11.13184934375,8.413595365722657,11.16011734375,8.345349365722656Q11.18838634375,8.277104365722657,11.22942534375,8.215684365722657Q11.27046434375,8.154265365722656,11.32269734375,8.102032365722657Q11.37493034375,8.049799365722656,11.43634934375,8.008760365722656Q11.49776934375,7.967721365722657,11.56601434375,7.939452365722656Q11.63426034375,7.911184365722656,11.70670934375,7.896773365722656Q11.77915884375,7.882362365722656,11.85302734375,7.882362365722656Z" fill-rule="evenodd" fill="#000000" fill-opacity="1" style="mix-blend-mode:passthrough"/></g><g><path d="M18.0009486328125,22.53042L18.0011386328125,22.53024L20.3436886328125,20.18686Q21.533908632812498,18.997,21.534078632812502,17.313769999999998Q21.5342486328125,15.63055,20.3440886328125,14.440277Q19.1539386328125,13.249999,17.4707086328125,13.25Q15.7874886328125,13.25,14.5973346328125,14.440277Q13.4071786328125,15.63055,13.4073486328125,17.31378Q13.4075186328125,18.997,14.5979156328125,20.18703L16.9402886328125,22.53024Q16.9925186328125,22.58248,17.0539286328125,22.623530000000002Q17.1153386328125,22.66458,17.183578632812498,22.69286Q17.2518186328125,22.72114,17.3242686328125,22.73556Q17.3967086328125,22.74999,17.4705786328125,22.75Q17.5444486328125,22.75001,17.6168986328125,22.73561Q17.6893486328125,22.721220000000002,17.7576086328125,22.69296Q17.8258586328125,22.6647,17.8872786328125,22.62367Q17.9487086328125,22.58265,18.0009486328125,22.53042ZM17.4707186328125,20.939149999999998L19.2828386328125,19.12639Q20.0339686328125,18.37548,20.034078632812502,17.31362Q20.0341886328125,16.25177,19.2833786328125,15.50088Q18.5325686328125,14.75,17.4707186328125,14.75Q16.4088586328125,14.75,15.6580486328125,15.50088Q14.9072416328125,16.25177,14.9073486328125,17.31362Q14.9074556328125,18.37548,15.6584186328125,19.12621L17.4707186328125,20.939149999999998Z" fill-rule="evenodd" fill="#000000" fill-opacity="1" style="mix-blend-mode:passthrough"/></g><g><ellipse cx="17.470703125" cy="17.322357177734375" rx="0.75" ry="0.75" fill="#000000" fill-opacity="1"/></g></g></svg>