<svg xmlns="http://www.w3.org/2000/svg" xmlns:xlink="http://www.w3.org/1999/xlink" fill="none" version="1.1" width="24" height="24" viewBox="0 0 24 24"><defs><clipPath id="master_svg0_20_5784"><rect x="0" y="0" width="24" height="24" rx="0"/></clipPath></defs><g clip-path="url(#master_svg0_20_5784)"><g style="opacity:0.4000000059604645;"><path d="M21.82056403198242,11.2868573649292Q18.543864031982423,10.221389364929198,15.199874031982421,10.9278943649292Q15.137234031982421,10.9411293649292,15.077744031982421,10.9647913649292Q15.018244031982421,10.988452364929199,14.963624031982421,11.021855364929198Q14.909004031982422,11.0552593649292,14.860834031982423,11.097437364929199Q14.812664031982422,11.139615364929199,14.772344031982422,11.189348364929199Q14.732014031982422,11.239081364929199,14.700704031982422,11.2949293649292Q14.669394031982423,11.3507772649292,14.648004031982422,11.411124194929199Q14.626614031982422,11.471471164929198,14.615764031982422,11.534570364929198Q14.604914031982421,11.597670364929199,14.604914031982421,11.661696364929199Q14.604904031982421,11.7355643649292,14.619324031982423,11.808013364929199Q14.633734031982423,11.880463364929199,14.662004031982422,11.9487083649292Q14.690264031982421,12.0169543649292,14.731304031982422,12.078373364929199Q14.772344031982422,12.139793364929199,14.824584031982422,12.1920263649292Q14.876814031982422,12.2442593649292,14.938234031982422,12.285298364929199Q14.999654031982422,12.326337364929199,15.067894031982421,12.3546053649292Q15.136144031982422,12.3828733649292,15.208594031982422,12.3972853649292Q15.281044031982422,12.411699364929198,15.354914031982421,12.411699364929198Q15.433274031982421,12.411699364929198,15.509944031982421,12.395497364929199Q18.12376403198242,11.8432633649292,20.69336403198242,12.518389364929199Q19.500864031982424,16.9678093649292,15.423524031982422,19.3218393649292Q11.042694031982421,21.851119364929197,6.232086031982422,20.2868593649292L5.768242031982422,21.7133193649292Q8.436444031982422,22.5809193649292,11.195554031982422,22.2660193649292Q13.848374031982422,21.9633193649292,16.173564031982423,20.6208793649292Q18.498664031982422,19.278449364929198,20.08726403198242,17.1324193649292Q21.73956403198242,14.9004093649292,22.32226403198242,12.1558683649292Q22.336564031982423,12.0884763649292,22.338364031982422,12.019605364929198Q22.34016403198242,11.950734364929199,22.329364031982422,11.8826903649292Q22.318564031982422,11.814645364929198,22.295564031982423,11.7497033649292Q22.272564031982423,11.684762364929199,22.23816403198242,11.6250983649292Q22.20366403198242,11.5654343649292,22.15896403198242,11.513044364929199Q22.114164031982423,11.4606540649292,22.060664031982423,11.417291564929199Q22.007164031982423,11.373929064929198,21.946564031982422,11.341045464929199Q21.88606403198242,11.3081617649292,21.82056403198242,11.2868573649292Z" fill-rule="evenodd" fill="#000000" fill-opacity="1"/></g><g style="opacity:0.699999988079071;"><path d="M8.961155204467774,7.650246953125L8.960995204467773,7.650396953125Q8.841415204467774,7.757116953125,8.775915204467774,7.9033869531250005Q8.710405204467774,8.049666953125,8.710405204467774,8.209936953125Q8.710405204467774,8.283806953125,8.724815204467774,8.356256953125Q8.739225204467774,8.428696953125,8.767495204467775,8.496946953125Q8.795765204467774,8.565196953125,8.836805204467773,8.626616953125Q8.877835204467774,8.688026953125,8.930075204467773,8.740266953125Q8.982305204467774,8.792496953125,9.043725204467773,8.833536953125Q9.105145204467775,8.874576953125,9.173385204467774,8.902846953125Q9.241635204467773,8.931116953125,9.314085204467773,8.945526953125Q9.386535204467773,8.959936953125,9.460405204467774,8.959936953125Q9.598565204467773,8.959936953125,9.727655204467773,8.910706953125Q9.856745204467774,8.861476953124999,9.959815204467773,8.769476953125Q11.938735204467774,7.0032169531249995,14.483845204467773,6.307848953125Q15.675735204467774,10.757446953125001,13.321715204467774,14.834736953125Q10.792445204467773,19.215576953125,5.844204204467774,20.266176953124997L6.155744204467774,21.733476953125Q8.900275204467773,21.150776953125,11.132295204467773,19.498476953125Q13.278325204467773,17.909876953125,14.620755204467773,15.584776953125Q15.963175204467774,13.259586953125,16.26597520446777,10.606766953125Q16.580875204467773,7.847656953125,15.713215204467774,5.179454953125Q15.691915204467774,5.113936953125,15.659025204467774,5.053396953125Q15.626145204467774,4.992857953125,15.582785204467774,4.939321953125Q15.539415204467774,4.885785953125,15.487025204467773,4.841044953125Q15.434635204467773,4.796304953125,15.374975204467773,4.761857953125Q15.315315204467774,4.727410953125,15.250365204467773,4.704409953125Q15.185425204467773,4.6814089531250005,15.117385204467773,4.670623953125Q15.049335204467774,4.659838953125,14.980465204467773,4.661630953125Q14.911595204467773,4.663422953125,14.844205204467773,4.677730953125Q11.495335204467773,5.388773753125,8.961835204467773,7.649636953125L8.961155204467774,7.650246953125Z" fill-rule="evenodd" fill="#000000" fill-opacity="1"/></g><g><path d="M2.3059523193969724,17.1336Q3.4127983193969724,19.6805,5.498278319396973,21.5575Q5.549488319396973,21.6036,5.608228319396973,21.6395Q5.666978319396973,21.6755,5.731298319396973,21.7002Q5.795618319396972,21.7249,5.863368319396972,21.7374Q5.931108319396973,21.75,5.999998319396973,21.75Q6.068898319396973,21.75,6.1366383193969725,21.7374Q6.204378319396973,21.7249,6.2686983193969725,21.7002Q6.333018319396973,21.6755,6.391768319396973,21.6395Q6.450518319396973,21.6036,6.501718319396972,21.5575Q8.587198319396972,19.6805,9.694048319396973,17.1336Q10.758258319396973,14.6849,10.758258319396973,12Q10.758258319396973,9.31515,9.694048319396973,6.86636Q8.587198319396972,4.31945,6.501728319396973,2.442529Q6.450518319396973,2.396442,6.391768319396973,2.360454Q6.333018319396973,2.324467,6.2686983193969725,2.299785Q6.204378319396973,2.275102,6.1366383193969725,2.262551Q6.068898319396973,2.25,5.999998319396973,2.25Q5.931108319396973,2.25,5.863368319396972,2.262551Q5.795618319396972,2.275102,5.731298319396973,2.299785Q5.666978319396973,2.324467,5.608228319396973,2.360454Q5.549488319396973,2.396442,5.498278319396973,2.442529Q3.4127983193969724,4.31946,2.3059523193969724,6.86636Q1.2417383193969727,9.31515,1.2417383193969727,12Q1.2417383193969727,14.6849,2.3059523193969724,17.1336ZM5.999998319396973,19.9639Q4.521058319396973,18.4673,3.6816583193969725,16.535800000000002Q2.7417383193969727,14.373,2.7417383193969727,12Q2.7417383193969727,9.626999999999999,3.6816583193969725,7.46422Q4.521058319396973,5.53273,5.999998319396973,4.03614Q7.478938319396972,5.53273,8.318348319396971,7.46422Q9.258258319396973,9.626999999999999,9.258258319396973,12Q9.258258319396973,14.373,8.318348319396971,16.535800000000002Q7.478938319396972,18.4673,5.999998319396973,19.9639Z" fill-rule="evenodd" fill="#000000" fill-opacity="1"/></g><g><g><path d="M20.7499559765625,20.166748046875Q20.7499559765625,20.092879546875,20.7643659765625,20.020430046875Q20.7787859765625,19.947981046875,20.8070459765625,19.879735046875Q20.8353159765625,19.811490046875,20.8763559765625,19.750070046875Q20.9173959765625,19.688651046875002,20.9696259765625,19.636418046875Q21.0218659765625,19.584185046875,21.0832859765625,19.543146046875002Q21.1446959765625,19.502107046875,21.2129459765625,19.473838046875Q21.2811959765625,19.445570046875,21.3536459765625,19.431159046875Q21.4260859765625,19.416748046875,21.4999559765625,19.416748046875Q21.5738259765625,19.416748046875,21.6462759765625,19.431159046875Q21.7187259765625,19.445570046875,21.786975976562502,19.473838046875Q21.8552159765625,19.502107046875,21.9166359765625,19.543146046875002Q21.9780559765625,19.584185046875,22.0302859765625,19.636418046875Q22.0825259765625,19.688651046875002,22.1235559765625,19.750070046875Q22.1645959765625,19.811490046875,22.1928659765625,19.879735046875Q22.2211359765625,19.947981046875,22.2355459765625,20.020430046875Q22.2499559765625,20.092879546875,22.2499559765625,20.166748046875L22.2499559765625,22.500078046875Q22.2499559765625,22.573948046875,22.2355459765625,22.646398046875Q22.2211359765625,22.718848046875,22.1928659765625,22.787098046875002Q22.1645959765625,22.855338046875,22.1235559765625,22.916758046875Q22.0825259765625,22.978178046875,22.0302859765625,23.030408046875Q21.9780559765625,23.082648046875,21.9166359765625,23.123678046875Q21.8552159765625,23.164718046875,21.786975976562502,23.192988046875Q21.7187259765625,23.221258046875,21.6462759765625,23.235668046875Q21.5738259765625,23.250078046875,21.4999559765625,23.250078046875L19.1666259765625,23.250078046875Q19.0927574765625,23.250078046875,19.0203079765625,23.235668046875Q18.9478589765625,23.221258046875,18.8796129765625,23.192988046875Q18.8113679765625,23.164718046875,18.7499479765625,23.123678046875Q18.688528976562502,23.082648046875,18.6362959765625,23.030408046875Q18.5840629765625,22.978178046875,18.543023976562502,22.916758046875Q18.5019849765625,22.855338046875,18.4737159765625,22.787098046875002Q18.4454479765625,22.718848046875,18.4310369765625,22.646398046875Q18.4166259765625,22.573948046875,18.4166259765625,22.500078046875Q18.4166259765625,22.426208046875,18.4310369765625,22.353768046875Q18.4454479765625,22.281318046875,18.4737159765625,22.213068046875Q18.5019849765625,22.144818046875,18.543023976562502,22.083408046875Q18.5840629765625,22.021988046875,18.6362959765625,21.969748046875Q18.688528976562502,21.917518046875,18.7499479765625,21.876478046875Q18.8113679765625,21.835438046875,18.8796129765625,21.807168046875Q18.9478589765625,21.778908046875,19.0203079765625,21.764488046875Q19.0927574765625,21.750078046875,19.1666259765625,21.750078046875L19.1670488405625,21.750078046875L20.7499559765625,21.750078046875L20.7499559765625,20.166748046875L20.7499559765625,20.166748046875Z" fill-rule="evenodd" fill="#000000" fill-opacity="1"/></g><g><path d="M19.1669249865625,14.75L21.4999559765625,14.75Q21.5738259765625,14.75,21.6462759765625,14.764410999999999Q21.7187259765625,14.778822,21.786975976562502,14.80709Q21.8552159765625,14.835359,21.9166359765625,14.876398Q21.9780559765625,14.917437,22.0302859765625,14.96967Q22.0825259765625,15.021903,22.1235559765625,15.083322Q22.1645959765625,15.144742,22.1928659765625,15.212987Q22.2211359765625,15.281233,22.2355459765625,15.353682Q22.2499559765625,15.4261315,22.2499559765625,15.5L22.2499559765625,17.83333Q22.2499559765625,17.9072,22.2355459765625,17.97965Q22.2211359765625,18.0521,22.1928659765625,18.120350000000002Q22.1645959765625,18.18859,22.1235559765625,18.25001Q22.0825259765625,18.31143,22.0302859765625,18.36366Q21.9780559765625,18.4159,21.9166359765625,18.45693Q21.8552159765625,18.49797,21.786975976562502,18.52624Q21.7187259765625,18.55451,21.6462759765625,18.56892Q21.5738259765625,18.58333,21.4999559765625,18.58333Q21.4260859765625,18.58333,21.3536459765625,18.56892Q21.2811959765625,18.55451,21.2129459765625,18.52624Q21.1446959765625,18.49797,21.0832859765625,18.45693Q21.0218659765625,18.4159,20.9696259765625,18.36366Q20.9173959765625,18.31143,20.8763559765625,18.25001Q20.8353159765625,18.18859,20.8070459765625,18.120350000000002Q20.7787859765625,18.0521,20.7643659765625,17.97965Q20.7499559765625,17.9072,20.7499559765625,17.83333L20.7499559765625,17.83291L20.7499559765625,16.25L19.1666259765625,16.25Q19.0927574765625,16.25,19.0203079765625,16.235589Q18.9478589765625,16.221178,18.8796129765625,16.19291Q18.8113679765625,16.164641,18.7499479765625,16.123601999999998Q18.688528976562502,16.082563,18.6362959765625,16.03033Q18.5840629765625,15.978097,18.543023976562502,15.916678Q18.5019849765625,15.855258,18.4737159765625,15.787013Q18.4454479765625,15.718767,18.4310369765625,15.646318Q18.4166259765625,15.5738685,18.4166259765625,15.5Q18.4166259765625,15.4261315,18.4310369765625,15.353682Q18.4454479765625,15.281233,18.4737159765625,15.212987Q18.5019849765625,15.144742,18.543023976562502,15.083322Q18.5840629765625,15.021903,18.6362959765625,14.96967Q18.688528976562502,14.917437,18.7499479765625,14.876398Q18.8113679765625,14.835359,18.8796129765625,14.80709Q18.9478589765625,14.778822,19.0203079765625,14.764410999999999Q19.0927574765625,14.75,19.1666259765625,14.75L19.1669249865625,14.75Z" fill-rule="evenodd" fill="#000000" fill-opacity="1"/></g><g><path d="M22.03033,16.03033Q22.13582,15.924841,22.19291,15.787013Q22.25,15.649184,22.25,15.5Q22.25,15.4261315,22.235590000000002,15.353682Q22.22118,15.281233,22.19291,15.212987Q22.16464,15.144742,22.1236,15.083322Q22.08256,15.021903,22.03033,14.96967Q21.9781,14.917437,21.91668,14.876398Q21.85526,14.835359,21.787010000000002,14.80709Q21.71877,14.778822,21.64632,14.764410999999999Q21.57387,14.75,21.5,14.75Q21.35082,14.75,21.212989999999998,14.80709Q21.07516,14.864181,20.96967,14.96967L13.96967,21.96967Q13.864181,22.07516,13.80709,22.212989999999998Q13.75,22.35082,13.75,22.5Q13.75,22.57387,13.764410999999999,22.64632Q13.778822,22.71877,13.80709,22.787010000000002Q13.835359,22.85526,13.876398,22.91668Q13.917437,22.9781,13.96967,23.03033Q14.021903,23.08256,14.083322,23.1236Q14.144742,23.16464,14.212987,23.19291Q14.281233,23.22118,14.353682,23.235590000000002Q14.4261315,23.25,14.5,23.25Q14.649184,23.25,14.787013,23.19291Q14.924841,23.13582,15.03033,23.03033L15.030792,23.02987L22.02987,16.030792L22.03033,16.03033L22.03033,16.03033Z" fill-rule="evenodd" fill="#000000" fill-opacity="1"/></g><g><path d="M13.96967,14.96967Q13.917437,15.021903,13.876398,15.083322Q13.835359,15.144742,13.80709,15.212987Q13.778822,15.281233,13.764410999999999,15.353682Q13.75,15.4261315,13.75,15.5Q13.75,15.5738685,13.764410999999999,15.646318Q13.778822,15.718767,13.80709,15.787013Q13.835359,15.855258,13.876398,15.916678Q13.917437,15.978097,13.96967,16.03033L17.46967,19.53033Q17.57516,19.63582,17.71299,19.69291Q17.85082,19.75,18,19.75Q18.14918,19.75,18.28701,19.69291Q18.42484,19.63582,18.53033,19.53033Q18.63582,19.42484,18.69291,19.28701Q18.75,19.14918,18.75,19Q18.75,18.85082,18.69291,18.71299Q18.63582,18.57516,18.53033,18.46967L15.03033,14.96967Q14.978097,14.917437,14.916678,14.876398Q14.855258,14.835359,14.787013,14.80709Q14.718767,14.778822,14.646318,14.764410999999999Q14.5738685,14.75,14.5,14.75Q14.4261315,14.75,14.353682,14.764410999999999Q14.281233,14.778822,14.212987,14.80709Q14.144742,14.835359,14.083322,14.876398Q14.021903,14.917437,13.96967,14.96967ZM19.98905,19.92839L19.98866,19.928Q19.88317,19.82251,19.745350000000002,19.76542Q19.60752,19.70833,19.45833,19.70833Q19.38446,19.70833,19.31202,19.72274Q19.23957,19.73715,19.17132,19.76542Q19.10307,19.793689999999998,19.04166,19.83473Q18.980240000000002,19.87577,18.928,19.928Q18.87577,19.980240000000002,18.83473,20.04166Q18.793689999999998,20.10307,18.76542,20.17132Q18.73715,20.23957,18.72274,20.31202Q18.70833,20.38446,18.70833,20.45833Q18.70833,20.60752,18.76542,20.745350000000002Q18.82251,20.88317,18.928,20.98866L18.92839,20.98905L19.41411,21.47477L20.38634,22.447L20.87245,22.93311L20.96967,23.03033Q21.07516,23.13582,21.212989999999998,23.19291Q21.35082,23.25,21.5,23.25Q21.57387,23.25,21.64632,23.235590000000002Q21.71877,23.22118,21.787010000000002,23.19291Q21.85526,23.16464,21.91668,23.1236Q21.9781,23.08256,22.03033,23.03033Q22.08256,22.9781,22.1236,22.91668Q22.16464,22.85526,22.19291,22.787010000000002Q22.22118,22.71877,22.235590000000002,22.64632Q22.25,22.57387,22.25,22.5Q22.25,22.35082,22.19291,22.212989999999998Q22.13582,22.07516,22.03033,21.96967L21.93311,21.87245L21.447,21.38634L20.47477,20.41411L19.98905,19.92839Z" fill-rule="evenodd" fill="#000000" fill-opacity="1"/></g></g></g></svg>