<svg xmlns="http://www.w3.org/2000/svg" xmlns:xlink="http://www.w3.org/1999/xlink" fill="none" version="1.1" width="24" height="24" viewBox="0 0 24 24"><defs><clipPath id="master_svg0_39_4787"><rect x="0" y="0" width="24" height="24" rx="0"/></clipPath></defs><g clip-path="url(#master_svg0_39_4787)"><g><path d="M16.3667,19.4042L16.3677,19.4037Q16.454700000000003,19.3547,16.5259,19.2848Q16.597,19.2148,16.647399999999998,19.1286Q16.6978,19.0425,16.7239,18.9461Q16.75,18.849800000000002,16.75,18.75Q16.75,18.676099999999998,16.735599999999998,18.6037Q16.7212,18.5312,16.6929,18.463Q16.6646,18.3947,16.6236,18.3333Q16.5826,18.271900000000002,16.5303,18.2197Q16.478099999999998,18.1674,16.4167,18.1264Q16.3553,18.0854,16.287,18.0571Q16.2188,18.0288,16.1463,18.014400000000002Q16.073900000000002,18,16,18Q15.8035,18,15.6323,18.0963L12,20.1395L4.75,16.0614L4.75,7.93864L12,3.860511L19.25,7.93864L19.25,12Q19.25,12.07387,19.264400000000002,12.14632Q19.2788,12.21877,19.3071,12.28701Q19.3354,12.35526,19.3764,12.41668Q19.4174,12.4781,19.4697,12.53033Q19.521900000000002,12.58256,19.5833,12.6236Q19.6447,12.66464,19.713,12.69291Q19.7812,12.72118,19.8537,12.73559Q19.926099999999998,12.75,20,12.75Q20.0739,12.75,20.1463,12.73559Q20.2188,12.72118,20.287,12.69291Q20.3553,12.66464,20.4167,12.6236Q20.4781,12.58256,20.5303,12.53033Q20.5826,12.4781,20.6236,12.41668Q20.6646,12.35526,20.6929,12.28701Q20.7212,12.21877,20.7356,12.14632Q20.75,12.07387,20.75,12L20.75,7.5Q20.75,7.40019,20.7239,7.30386Q20.6978,7.20752,20.6474,7.12137Q20.597,7.03521,20.5259,6.96523Q20.4547,6.89525,20.3677,6.84632L12.3677,2.346318Q12.2835,2.298958,12.19005,2.274479Q12.0966,2.25,12,2.25Q11.903400000000001,2.25,11.80995,2.274479Q11.7165,2.298958,11.6323,2.346318L3.632304,6.84632Q3.545313,6.89525,3.474147,6.96523Q3.402981,7.03521,3.352593,7.12137Q3.302205,7.20752,3.276102,7.30386Q3.25,7.40019,3.25,7.5L3.25,16.5Q3.25,16.599800000000002,3.276102,16.6961Q3.302205,16.7925,3.352593,16.8786Q3.402981,16.9648,3.474147,17.0348Q3.545313,17.1047,3.632304,17.1537L11.6323,21.6537Q11.7165,21.701,11.80995,21.7255Q11.903400000000001,21.75,12,21.75Q12.0966,21.75,12.19005,21.7255Q12.2835,21.701,12.3677,21.6537L16.3667,19.4042Z" fill-rule="evenodd" fill="#000000" fill-opacity="1" style="mix-blend-mode:passthrough"/></g><g><path d="M20.3677,8.153682Q20.45469,8.104749,20.52585,8.03477Q20.59702,7.96479,20.64741,7.878634Q20.697789999999998,7.792479,20.7239,7.696144Q20.75,7.5998087,20.75,7.5Q20.75,7.4261315,20.735590000000002,7.353682Q20.72118,7.281233,20.692909999999998,7.212987Q20.66464,7.144742,20.6236,7.083322Q20.58256,7.021903,20.53033,6.96967Q20.478099999999998,6.917437,20.41668,6.876398Q20.35526,6.835359,20.287010000000002,6.80709Q20.21877,6.778822,20.14632,6.764411Q20.07387,6.75,20,6.75Q19.803539999999998,6.75,19.6323,6.846318L11.632304,11.34632Q11.545313,11.39525,11.474147,11.46523Q11.402981,11.53521,11.352593,11.621369999999999Q11.302205,11.707519999999999,11.276102,11.80386Q11.25,11.90019,11.25,12Q11.25,12.07387,11.264410999999999,12.14632Q11.278822,12.21877,11.30709,12.28701Q11.335359,12.355260000000001,11.376398,12.41668Q11.417437,12.478100000000001,11.46967,12.53033Q11.521903,12.58256,11.583322,12.6236Q11.644742,12.66464,11.712987,12.692910000000001Q11.781233,12.72118,11.853682,12.73559Q11.9261315,12.75,12,12.75Q12.196463,12.75,12.367696,12.65368L20.367539999999998,8.153768L20.3677,8.153682Z" fill-rule="evenodd" fill="#000000" fill-opacity="1" style="mix-blend-mode:passthrough"/></g><g><path d="M11.25,12Q11.25,11.9261315,11.264410999999999,11.853682Q11.278822,11.781233,11.30709,11.712987Q11.335359,11.644742,11.376398,11.583322Q11.417437,11.521903,11.46967,11.46967Q11.521903,11.417437,11.583322,11.376398Q11.644742,11.335359,11.712987,11.30709Q11.781233,11.278822,11.853682,11.264410999999999Q11.9261315,11.25,12,11.25Q12.0738685,11.25,12.146318,11.264410999999999Q12.218767,11.278822,12.287013,11.30709Q12.355258,11.335359,12.416678,11.376398Q12.478097,11.417437,12.53033,11.46967Q12.582563,11.521903,12.623602,11.583322Q12.664641,11.644742,12.69291,11.712987Q12.721178,11.781233,12.735589000000001,11.853682Q12.75,11.9261315,12.75,12L12.75,21Q12.75,21.07387,12.735589000000001,21.14632Q12.721178,21.21877,12.69291,21.287010000000002Q12.664641,21.35526,12.623602,21.41668Q12.582563,21.478099999999998,12.53033,21.53033Q12.478097,21.58256,12.416678,21.6236Q12.355258,21.66464,12.287013,21.692909999999998Q12.218767,21.72118,12.146318,21.735590000000002Q12.0738685,21.75,12,21.75Q11.9261315,21.75,11.853682,21.735590000000002Q11.781233,21.72118,11.712987,21.692909999999998Q11.644742,21.66464,11.583322,21.6236Q11.521903,21.58256,11.46967,21.53033Q11.417437,21.478099999999998,11.376398,21.41668Q11.335359,21.35526,11.30709,21.287010000000002Q11.278822,21.21877,11.264410999999999,21.14632Q11.25,21.07387,11.25,21L11.25,12Z" fill-rule="evenodd" fill="#000000" fill-opacity="1" style="mix-blend-mode:passthrough"/></g><g><path d="M4.3676960000000005,6.846318L12.3677,11.34632Q12.45469,11.39525,12.52585,11.46523Q12.59702,11.53521,12.64741,11.621369999999999Q12.69779,11.707519999999999,12.7239,11.80386Q12.75,11.90019,12.75,12Q12.75,12.07387,12.73559,12.14632Q12.72118,12.21877,12.69291,12.28701Q12.66464,12.355260000000001,12.6236,12.41668Q12.58256,12.478100000000001,12.53033,12.53033Q12.4781,12.58256,12.41668,12.6236Q12.35526,12.66464,12.28701,12.692910000000001Q12.21877,12.72118,12.14632,12.73559Q12.07387,12.75,12,12.75Q11.80354,12.75,11.6323,12.65368L3.632304,8.153682Q3.545313,8.104749,3.474147,8.03477Q3.402981,7.96479,3.352593,7.878634Q3.302205,7.792479,3.276102,7.696144Q3.25,7.5998087,3.25,7.5Q3.25,7.4261315,3.264411,7.353682Q3.278822,7.281233,3.30709,7.212987Q3.335359,7.144742,3.376398,7.083322Q3.417437,7.021903,3.46967,6.96967Q3.521903,6.917437,3.583322,6.876398Q3.644742,6.835359,3.712987,6.80709Q3.781233,6.778822,3.853682,6.764411Q3.9261315,6.75,4,6.75Q4.196463,6.75,4.3676960000000005,6.846318Z" fill-rule="evenodd" fill="#000000" fill-opacity="1" style="mix-blend-mode:passthrough"/></g><g><path d="M16.3677,5.903682Q16.45469,5.854749,16.52585,5.78477Q16.59702,5.71479,16.64741,5.628634Q16.697789999999998,5.542479,16.7239,5.446144Q16.75,5.3498087,16.75,5.25Q16.75,5.1761315,16.735590000000002,5.103682Q16.72118,5.031233,16.692909999999998,4.962987Q16.66464,4.894742,16.6236,4.833322Q16.58256,4.771903,16.53033,4.71967Q16.478099999999998,4.667437,16.41668,4.626398Q16.35526,4.585359,16.287010000000002,4.55709Q16.21877,4.528822,16.14632,4.514411Q16.07387,4.5,16,4.5Q15.80354,4.5,15.6323,4.596318L7.6323039999999995,9.09632Q7.545313,9.14525,7.474147,9.21523Q7.4029810000000005,9.28521,7.352593,9.371369999999999Q7.302205,9.457519999999999,7.276102,9.55386Q7.25,9.65019,7.25,9.75Q7.25,9.82387,7.264411,9.89632Q7.278822,9.96877,7.30709,10.03701Q7.335359,10.105260000000001,7.376398,10.16668Q7.417437,10.228100000000001,7.46967,10.28033Q7.521903,10.33256,7.583322,10.3736Q7.644742,10.41464,7.712987,10.442910000000001Q7.781233,10.47118,7.853682,10.48559Q7.9261315,10.5,8,10.5Q8.196463,10.5,8.367696,10.40368L16.367539999999998,5.903768L16.3677,5.903682Z" fill-rule="evenodd" fill="#000000" fill-opacity="1" style="mix-blend-mode:passthrough"/></g><g><path d="M20.2,16.83873062133789L22,16.83873062133789Q22.07387,16.83873062133789,22.14632,16.82432062133789Q22.21877,16.80991062133789,22.287010000000002,16.781640621337893Q22.35526,16.75337062133789,22.41668,16.71233062133789Q22.4781,16.67129062133789,22.53033,16.61906062133789Q22.58256,16.56683062133789,22.6236,16.50541062133789Q22.66464,16.44399062133789,22.69291,16.37574062133789Q22.72118,16.30750062133789,22.735590000000002,16.23505062133789Q22.75,16.16260062133789,22.75,16.08873062133789Q22.75,16.014860621337892,22.735590000000002,15.94241062133789Q22.72118,15.86996062133789,22.69291,15.801720621337891Q22.66464,15.73347062133789,22.6236,15.67205062133789Q22.58256,15.61063062133789,22.53033,15.55840062133789Q22.4781,15.50617062133789,22.41668,15.46513062133789Q22.35526,15.424090621337891,22.287010000000002,15.39582062133789Q22.21877,15.367550621337891,22.14632,15.353140621337891Q22.07387,15.338730621337891,22,15.338730621337891L20.740569999999998,15.338730621337891L20.31151,14.05155962133789Q20.28815,13.98148162133789,20.25157,13.91730762133789Q20.21499,13.853133621337891,20.16659,13.79732962133789Q20.11819,13.741524621337891,20.05984,13.69623462133789Q20.00148,13.65094562133789,19.93541,13.617910621337892Q19.86934,13.58487562133789,19.798090000000002,13.56536462133789Q19.72685,13.54585362133789,19.65317,13.54061762133789Q19.57948,13.535380621337891,19.5062,13.54461962133789Q19.43291,13.553858621337891,19.36283,13.57721862133789Q19.279980000000002,13.604832621337891,19.2057,13.65074262133789Q19.13142,13.69665262133789,19.06967,13.758400621337891Q19.00792,13.820148621337891,18.96201,13.894432621337891Q18.9161,13.968715621337891,18.88849,14.05155962133789L18.17342,16.19677062133789L17.82404,15.67270062133789Q17.77267,15.59565062133789,17.70411,15.533410621337891Q17.63554,15.47117062133789,17.55389,15.427470621337891Q17.47225,15.383780621337891,17.38243,15.361250621337891Q17.2926,15.338730621337891,17.2,15.338730621337891L16,15.338730621337891Q15.9261315,15.338730621337891,15.853682,15.353140621337891Q15.781233,15.367550621337891,15.712987,15.39582062133789Q15.644742,15.424090621337891,15.583322,15.46513062133789Q15.521903,15.50617062133789,15.46967,15.55840062133789Q15.417437,15.61063062133789,15.376398,15.67205062133789Q15.335359,15.73347062133789,15.30709,15.801720621337891Q15.278822,15.86996062133789,15.264410999999999,15.94241062133789Q15.25,16.014860621337892,15.25,16.08873062133789Q15.25,16.16260062133789,15.264410999999999,16.23505062133789Q15.278822,16.30750062133789,15.30709,16.37574062133789Q15.335359,16.44399062133789,15.376398,16.50541062133789Q15.417437,16.56683062133789,15.46967,16.61906062133789Q15.521903,16.67129062133789,15.583322,16.71233062133789Q15.644742,16.75337062133789,15.712987,16.781640621337893Q15.781233,16.80991062133789,15.853682,16.82432062133789Q15.9261315,16.83873062133789,16,16.83873062133789L16.798613,16.83873062133789L17.77596,18.30476062133789Q17.84535,18.40883062133789,17.94475,18.48476062133789Q18.04416,18.56069062133789,18.16283,18.60024062133789Q18.23291,18.62360062133789,18.3062,18.63284062133789Q18.37948,18.64208062133789,18.45317,18.63684062133789Q18.52685,18.63161062133789,18.59809,18.61210062133789Q18.66934,18.59258062133789,18.73541,18.55955062133789Q18.80148,18.52651062133789,18.85984,18.48122062133789Q18.91819,18.43593062133789,18.96659,18.38013062133789Q19.01499,18.32433062133789,19.051569999999998,18.260150621337893Q19.08815,18.195980621337892,19.11151,18.12590062133789L19.62863,16.57456062133789Q19.735500000000002,16.70025062133789,19.88526,16.76949062133789Q20.03501,16.83873062133789,20.2,16.83873062133789Z" fill-rule="evenodd" fill="#000000" fill-opacity="1" style="mix-blend-mode:passthrough"/></g></g></svg>