<svg xmlns="http://www.w3.org/2000/svg" xmlns:xlink="http://www.w3.org/1999/xlink" fill="none" version="1.1" width="24" height="24" viewBox="0 0 24 24"><defs><clipPath id="master_svg0_50_4775"><rect x="0" y="0" width="24" height="24" rx="0"/></clipPath></defs><g clip-path="url(#master_svg0_50_4775)"><g><g><path d="M6.28571,21.7499333984375L13.14286,21.7499333984375Q13.21673,21.7499333984375,13.28917,21.7355333984375Q13.36162,21.7211333984375,13.42987,21.6928333984375Q13.49811,21.6646333984375,13.55953,21.6235333984375Q13.62095,21.5825333984375,13.67319,21.5302333984375Q13.72542,21.4780333984375,13.76646,21.4166333984375Q13.8075,21.3552333984375,13.83577,21.2869333984375Q13.86403,21.2187333984375,13.87845,21.1462333984375Q13.89286,21.0738333984375,13.89286,20.9999333984375Q13.89286,20.9260333984375,13.87845,20.8536333984375Q13.86403,20.7811333984375,13.83577,20.7129333984375Q13.8075,20.6447333984375,13.76646,20.5832333984375Q13.72542,20.5218333984375,13.67319,20.4696333984375Q13.62095,20.4173333984375,13.55953,20.3763333984375Q13.49811,20.3353333984375,13.42987,20.3070333984375Q13.36162,20.2787333984375,13.28917,20.2643333984375Q13.21673,20.2499333984375,13.14286,20.2499333984375L6.28571,20.2499333984375Q5.6495999999999995,20.2499333984375,5.1998,19.8001333984375Q4.75,19.3503333984375,4.75,18.7142333984375L4.75,4.9999433984375Q4.75,4.3638333984374995,5.1998,3.9140333984374998Q5.6495999999999995,3.4642333984375,6.28571,3.4642333984375L18.857100000000003,3.4642333984375Q19.25,3.4642333984375,19.25,3.8570933984374998L19.25,11.8570933984375Q19.25,11.9309633984375,19.264400000000002,12.0034033984375Q19.2788,12.0758533984375,19.3071,12.1441033984375Q19.3354,12.2123433984375,19.3764,12.2737633984375Q19.4174,12.3351833984375,19.4697,12.3874233984375Q19.521900000000002,12.4396533984375,19.5833,12.4806933984375Q19.6447,12.5217333984375,19.713,12.5500033984375Q19.7812,12.5782633984375,19.8537,12.5926833984375Q19.926099999999998,12.6070933984375,20,12.6070933984375Q20.0739,12.6070933984375,20.1463,12.5926833984375Q20.2188,12.5782633984375,20.287,12.5500033984375Q20.3553,12.5217333984375,20.4167,12.4806933984375Q20.4781,12.4396533984375,20.5303,12.3874233984375Q20.5826,12.3351833984375,20.6236,12.2737633984375Q20.6646,12.2123433984375,20.6929,12.1441033984375Q20.7212,12.0758533984375,20.7356,12.0034033984375Q20.75,11.9309633984375,20.75,11.8570933984375L20.75,3.8570933984374998Q20.75,1.9642333984375,18.857100000000003,1.9642333984375L6.28571,1.9642333984375Q5.0282800000000005,1.9642333984375,4.13914,2.8533733984375Q3.25,3.7425133984375,3.25,4.9999433984375L3.25,18.7142333984375Q3.25,19.9716333984375,4.13914,20.8608333984375Q5.0282800000000005,21.7499333984375,6.28571,21.7499333984375Z" fill-rule="evenodd" fill="#000000" fill-opacity="1"/></g><g><path d="M13.14286,17.178519248962402Q13.21673,17.178519248962402,13.28917,17.164108248962403Q13.36162,17.1496972489624,13.42987,17.121429248962404Q13.49811,17.093160248962402,13.55953,17.0521212489624Q13.62095,17.011082248962403,13.67319,16.9588492489624Q13.72542,16.9066162489624,13.76646,16.845197248962403Q13.8075,16.7837772489624,13.83577,16.715532248962404Q13.86403,16.647286248962402,13.87845,16.574837248962403Q13.89286,16.502387748962402,13.89286,16.428519248962402Q13.89286,16.354650748962403,13.87845,16.2822012489624Q13.86403,16.209752248962403,13.83577,16.1415062489624Q13.8075,16.073261248962403,13.76646,16.0118412489624Q13.72542,15.950422248962402,13.67319,15.898189248962403Q13.62095,15.845956248962402,13.55953,15.804917248962402Q13.49811,15.763878248962403,13.42987,15.735609248962403Q13.36162,15.707341248962402,13.28917,15.692930248962401Q13.21673,15.678519248962402,13.14286,15.678519248962402L13.14256,15.678519248962402L6.28571,15.678519248962402Q5.6686,15.678519248962402,5.1038499999999996,15.917388248962402Q4.558931,16.147868248962403,4.13914,16.567659248962403Q3.71935,16.987449248962402,3.488869,17.532369248962404Q3.250201,18.096639248962404,3.25,18.713199248962404L3.25,18.714229248962404Q3.25,18.788099248962403,3.264411,18.860549248962403Q3.278822,18.932999248962403,3.30709,19.001249248962402Q3.335359,19.0694892489624,3.376398,19.130909248962404Q3.417437,19.192329248962402,3.46967,19.244559248962403Q3.521903,19.2967992489624,3.583322,19.337839248962403Q3.644742,19.378879248962402,3.712987,19.4071392489624Q3.781233,19.4354092489624,3.853682,19.449819248962402Q3.9261315,19.464229248962404,4,19.464229248962404Q4.0738685,19.464229248962404,4.146318,19.449819248962402Q4.218767,19.4354092489624,4.287013,19.4071392489624Q4.355258,19.378879248962402,4.416678,19.337839248962403Q4.478097,19.2967992489624,4.53033,19.244559248962403Q4.582563,19.192329248962402,4.623602,19.130909248962404Q4.664641,19.0694892489624,4.69291,19.001249248962402Q4.721178,18.932999248962403,4.735589,18.860549248962403Q4.75,18.788099248962403,4.75,18.714229248962404Q4.75,18.078119248962402,5.1998,17.628319248962402Q5.6495999999999995,17.178519248962402,6.28571,17.178519248962402L13.14286,17.178519248962402L13.14286,17.178519248962402Z" fill-rule="evenodd" fill="#000000" fill-opacity="1"/></g><g><path d="M13.142858775787353,1.9642333984375L8.571428775787354,1.9642333984375Q8.497560275787354,1.9642333984375,8.425110775787353,1.9786443984375Q8.352661775787354,1.9930553984375,8.284415775787354,2.0213233984375Q8.216170775787354,2.0495923984375,8.154750775787354,2.0906313984375Q8.093331775787354,2.1316703984375,8.041098775787354,2.1839033984375Q7.988865775787353,2.2361363984375,7.9478267757873535,2.2975553984375Q7.906787775787354,2.3589753984375,7.878518775787353,2.4272203984375Q7.850250775787353,2.4954663984375,7.8358397757873535,2.5679153984375Q7.8214287757873535,2.6403648984375,7.8214287757873535,2.7142333984375L7.8214287757873535,9.190373398437501Q7.8214287757873535,9.4174433984375,7.947379775787353,9.6063833984375Q8.030128775787354,9.7305133984375,8.154081775787354,9.8135333984375Q8.278034775787354,9.896543398437501,8.424321775787353,9.9258133984375Q8.570607673787354,9.9550733984375,8.716956775787354,9.9261233984375Q8.863305775787353,9.8971733984375,8.987436775787353,9.8144233984375L10.857138775787353,8.5680333984375L12.726848775787353,9.8144233984375Q12.915788775787354,9.940373398437501,13.142858775787353,9.940373398437501Q13.216728775787352,9.940373398437501,13.289178775787352,9.9259633984375Q13.361628775787352,9.911553398437501,13.429868775787353,9.8832833984375Q13.498118775787354,9.8550133984375,13.559538775787352,9.8139833984375Q13.620958775787354,9.7729433984375,13.673188775787352,9.7207033984375Q13.725418775787354,9.6684733984375,13.766458775787353,9.6070533984375Q13.807498775787353,9.5456333984375,13.835768775787354,9.4773933984375Q13.864038775787353,9.4091433984375,13.878448775787353,9.3366933984375Q13.892858775787353,9.2642433984375,13.892858775787353,9.190373398437501L13.892858775787353,2.7142333984375Q13.892858775787353,2.6403648984375,13.878448775787353,2.5679153984375Q13.864038775787353,2.4954663984375,13.835768775787354,2.4272203984375Q13.807498775787353,2.3589753984375,13.766458775787353,2.2975553984375Q13.725418775787354,2.2361363984375,13.673188775787352,2.1839033984375Q13.620958775787354,2.1316703984375,13.559538775787352,2.0906313984375Q13.498118775787354,2.0495923984375,13.429868775787353,2.0213233984375Q13.361618775787353,1.9930553984375,13.289178775787352,1.9786443984375Q13.216728775787352,1.9642333984375,13.142858775787353,1.9642333984375ZM9.321428775787354,3.4642333984375L9.321428775787354,7.7890333984375L10.441138775787353,7.0426133984375Q10.533528775787353,6.9810133984375,10.639818775787354,6.9488333984375Q10.746098775787353,6.9166633984375,10.857138775787353,6.9166633984375Q10.968188775787354,6.9166633984375,11.074468775787354,6.9488333984375Q11.180748775787354,6.9810133984375,11.273148775787353,7.0426133984375L12.392858775787353,7.7890333984375L12.392858775787353,3.4642333984375L9.321428775787354,3.4642333984375Z" fill-rule="evenodd" fill="#000000" fill-opacity="1"/></g></g><g><path d="M20.945547080078125,17.055456Q20.140097080078124,16.25,19.001007080078125,16.25Q17.861919080078124,16.25,17.056463080078125,17.055456Q16.251007080078125,17.860912,16.251007080078125,19Q16.251007080078125,20.13909,17.056463080078125,20.94454Q17.861919080078124,21.75,19.001007080078125,21.75Q20.140097080078124,21.75,20.945547080078125,20.94454Q21.751007080078125,20.13909,21.751007080078125,19Q21.751007080078125,17.860912,20.945547080078125,17.055456ZM18.117127080078124,18.11612Q18.483237080078126,17.75,19.001007080078125,17.75Q19.518777080078124,17.75,19.884887080078126,18.11612Q20.251007080078125,18.48223,20.251007080078125,19Q20.251007080078125,19.51777,19.884887080078126,19.88388Q19.518777080078124,20.25,19.001007080078125,20.25Q18.483237080078126,20.25,18.117127080078124,19.88388Q17.751007080078125,19.51777,17.751007080078125,19Q17.751007080078125,18.48223,18.117127080078124,18.11612Z" fill-rule="evenodd" fill="#000000" fill-opacity="1" style="mix-blend-mode:passthrough"/></g><g><path d="M18.251007080078125,15.5Q18.251007080078125,15.4261315,18.265418080078124,15.353682Q18.279829080078127,15.281233,18.308097080078124,15.212987Q18.336366080078125,15.144742,18.377405080078127,15.083322Q18.418444080078125,15.021903,18.470677080078126,14.96967Q18.522910080078127,14.917437,18.584329080078124,14.876398Q18.645749080078126,14.835359,18.713994080078123,14.80709Q18.782240080078125,14.778822,18.854689080078124,14.764410999999999Q18.927138580078125,14.75,19.001007080078125,14.75Q19.074875580078125,14.75,19.147325080078126,14.764410999999999Q19.219774080078125,14.778822,19.288020080078127,14.80709Q19.356265080078124,14.835359,19.417685080078126,14.876398Q19.479104080078123,14.917437,19.531337080078124,14.96967Q19.583570080078125,15.021903,19.624609080078123,15.083322Q19.665648080078125,15.144742,19.693917080078126,15.212987Q19.722185080078123,15.281233,19.736596080078126,15.353682Q19.751007080078125,15.4261315,19.751007080078125,15.5L19.751007080078125,17Q19.751007080078125,17.07387,19.736596080078126,17.14632Q19.722185080078123,17.21877,19.693917080078126,17.28701Q19.665648080078125,17.35526,19.624609080078123,17.41668Q19.583570080078125,17.4781,19.531337080078124,17.53033Q19.479104080078123,17.58256,19.417685080078126,17.6236Q19.356265080078124,17.66464,19.288020080078127,17.69291Q19.219774080078125,17.72118,19.147325080078126,17.735590000000002Q19.074875580078125,17.75,19.001007080078125,17.75Q18.927138580078125,17.75,18.854689080078124,17.735590000000002Q18.782240080078125,17.72118,18.713994080078123,17.69291Q18.645749080078126,17.66464,18.584329080078124,17.6236Q18.522910080078127,17.58256,18.470677080078126,17.53033Q18.418444080078125,17.4781,18.377405080078127,17.41668Q18.336366080078125,17.35526,18.308097080078124,17.28701Q18.279829080078127,17.21877,18.265418080078124,17.14632Q18.251007080078125,17.07387,18.251007080078125,17L18.251007080078125,15.5Z" fill-rule="evenodd" fill="#000000" fill-opacity="1" style="mix-blend-mode:passthrough"/></g><g><path d="M18.251007080078125,21Q18.251007080078125,20.9261315,18.265418080078124,20.853682Q18.279829080078127,20.781233,18.308097080078124,20.712987Q18.336366080078125,20.644742,18.377405080078127,20.583322Q18.418444080078125,20.521903000000002,18.470677080078126,20.46967Q18.522910080078127,20.417437,18.584329080078124,20.376398000000002Q18.645749080078126,20.335359,18.713994080078123,20.30709Q18.782240080078125,20.278822,18.854689080078124,20.264411Q18.927138580078125,20.25,19.001007080078125,20.25Q19.074875580078125,20.25,19.147325080078126,20.264411Q19.219774080078125,20.278822,19.288020080078127,20.30709Q19.356265080078124,20.335359,19.417685080078126,20.376398000000002Q19.479104080078123,20.417437,19.531337080078124,20.46967Q19.583570080078125,20.521903000000002,19.624609080078123,20.583322Q19.665648080078125,20.644742,19.693917080078126,20.712987Q19.722185080078123,20.781233,19.736596080078126,20.853682Q19.751007080078125,20.9261315,19.751007080078125,21L19.751007080078125,22.5Q19.751007080078125,22.57387,19.736596080078126,22.64632Q19.722185080078123,22.71877,19.693917080078126,22.78701Q19.665648080078125,22.85526,19.624609080078123,22.91668Q19.583570080078125,22.9781,19.531337080078124,23.03033Q19.479104080078123,23.08256,19.417685080078126,23.1236Q19.356265080078124,23.16464,19.288020080078127,23.19291Q19.219774080078125,23.22118,19.147325080078126,23.235590000000002Q19.074875580078125,23.25,19.001007080078125,23.25Q18.927138580078125,23.25,18.854689080078124,23.235590000000002Q18.782240080078125,23.22118,18.713994080078123,23.19291Q18.645749080078126,23.16464,18.584329080078124,23.1236Q18.522910080078127,23.08256,18.470677080078126,23.03033Q18.418444080078125,22.9781,18.377405080078127,22.91668Q18.336366080078125,22.85526,18.308097080078124,22.78701Q18.279829080078127,22.71877,18.265418080078124,22.64632Q18.251007080078125,22.57387,18.251007080078125,22.5L18.251007080078125,21Z" fill-rule="evenodd" fill="#000000" fill-opacity="1" style="mix-blend-mode:passthrough"/></g><g><path d="M22.407011708984374,17.899514Q22.492521708984373,17.850144,22.562341708984373,17.780325Q22.632151708984374,17.710506,22.681521708984373,17.624996Q22.730891708984373,17.539486,22.756441708984376,17.444112Q22.782001708984374,17.3487382,22.782001708984374,17.25Q22.782001708984374,17.1761315,22.767591708984376,17.103682Q22.753181708984375,17.031233,22.724911708984376,16.962987Q22.696641708984377,16.894742,22.655601708984374,16.833322Q22.614561708984375,16.771903000000002,22.562331708984374,16.71967Q22.510101708984376,16.667437,22.448681708984374,16.626398000000002Q22.387261708984376,16.585359,22.319011708984377,16.55709Q22.250771708984374,16.528822,22.178321708984374,16.514411Q22.105871708984374,16.5,22.032001708984374,16.5Q21.831031708984376,16.5,21.656993708984373,16.600486L21.656896708984377,16.600541L20.358089708984377,17.35043L20.357993708984374,17.350486Q20.272484708984376,17.399856,20.202666708984374,17.469675Q20.132848708984376,17.539494,20.083479708984374,17.625004Q20.034111708984376,17.710514,20.008556708984376,17.805888Q19.983001708984375,17.901262,19.983001708984375,18Q19.983001708984375,18.073869,19.997412708984374,18.146318Q20.011823708984377,18.218767,20.040091708984374,18.28701Q20.068360708984375,18.35526,20.109399708984377,18.41668Q20.150438708984375,18.4781,20.202671708984376,18.53033Q20.254904708984377,18.58256,20.316323708984374,18.6236Q20.377743708984376,18.66464,20.445988708984373,18.69291Q20.514234708984375,18.72118,20.586683708984374,18.73559Q20.659133208984375,18.75,20.733001708984375,18.75Q20.933968708984374,18.75,21.108009708984376,18.64951L21.108269708984373,18.64936L22.407011708984374,17.899514Z" fill-rule="evenodd" fill="#000000" fill-opacity="1" style="mix-blend-mode:passthrough"/></g><g><path d="M17.644791220703127,20.649639Q17.730341220703124,20.600282,17.800201220703126,20.530458Q17.870061220703125,20.460633,17.919461220703123,20.375104Q17.968861220703126,20.289575,17.994431220703124,20.194172000000002Q18.020001220703126,20.0987699,18.020001220703126,20Q18.020001220703126,19.9261315,18.005591220703124,19.853682Q17.991181220703126,19.781233,17.962911220703123,19.712987Q17.934641220703124,19.644742,17.893601220703125,19.583322Q17.852561220703127,19.521903000000002,17.800331220703125,19.46967Q17.748101220703123,19.417437,17.686681220703125,19.376398000000002Q17.625261220703123,19.335359,17.557011220703124,19.30709Q17.488771220703125,19.278822,17.416321220703125,19.264411Q17.343871220703125,19.25,17.270001220703126,19.25Q17.069171220703126,19.25,16.895209220703126,19.350361L16.894977220703126,19.350495L15.595286220703125,20.100317L15.595209220703126,20.100361Q15.509656220703125,20.149718,15.439798220703125,20.219542Q15.369941220703126,20.289367,15.320542220703125,20.374896Q15.271143220703125,20.460425,15.245572220703124,20.555827999999998Q15.220001220703125,20.651229999999998,15.220001220703125,20.75Q15.220001220703125,20.823869,15.234412220703124,20.896318Q15.248823220703125,20.968767,15.277091220703126,21.03701Q15.305360220703125,21.10526,15.346399220703125,21.16668Q15.387438220703125,21.2281,15.439671220703126,21.28033Q15.491904220703125,21.33256,15.553323220703126,21.3736Q15.614743220703126,21.41464,15.682988220703125,21.44291Q15.751234220703125,21.47118,15.823683220703124,21.48559Q15.896132720703125,21.5,15.970001220703125,21.5Q16.170834220703124,21.5,16.344793220703124,21.39964L17.644791220703127,20.649639Z" fill-rule="evenodd" fill="#000000" fill-opacity="1" style="mix-blend-mode:passthrough"/></g><g><path d="M16.344935220703125,16.600443L17.644791220703127,17.350361Q17.730341220703124,17.399718,17.800201220703126,17.469542Q17.870061220703125,17.539367,17.919461220703123,17.624896Q17.968861220703126,17.710425,17.994431220703124,17.805827999999998Q18.020001220703126,17.901229999999998,18.020001220703126,18Q18.020001220703126,18.073869,18.005591220703124,18.146318Q17.991181220703126,18.218767,17.962911220703123,18.28701Q17.934641220703124,18.35526,17.893601220703125,18.41668Q17.852561220703127,18.4781,17.800331220703125,18.53033Q17.748101220703123,18.58256,17.686681220703125,18.6236Q17.625261220703123,18.66464,17.557011220703124,18.69291Q17.488771220703125,18.72118,17.416321220703125,18.73559Q17.343871220703125,18.75,17.270001220703126,18.75Q17.069171220703126,18.75,16.895209220703126,18.64964L15.595352220703125,17.899722L15.595209220703126,17.899639Q15.509656220703125,17.850282,15.439798220703125,17.780458Q15.369941220703126,17.710633,15.320542220703125,17.625104Q15.271143220703125,17.539575,15.245572220703124,17.444172000000002Q15.220001220703125,17.3487699,15.220001220703125,17.25Q15.220001220703125,17.1761315,15.234412220703124,17.103682Q15.248823220703125,17.031233,15.277091220703126,16.962987Q15.305360220703125,16.894742,15.346399220703125,16.833322Q15.387438220703125,16.771903000000002,15.439671220703126,16.71967Q15.491904220703125,16.667437,15.553323220703126,16.626398000000002Q15.614743220703126,16.585359,15.682988220703125,16.55709Q15.751234220703125,16.528822,15.823683220703124,16.514411Q15.896132720703125,16.5,15.970001220703125,16.5Q16.170834220703124,16.5,16.344793220703124,16.600361L16.344935220703125,16.600443Z" fill-rule="evenodd" fill="#000000" fill-opacity="1" style="mix-blend-mode:passthrough"/></g><g><path d="M21.107935708984375,19.350443L22.407791708984377,20.100361Q22.493341708984374,20.149718,22.563201708984376,20.219542Q22.633061708984375,20.289367,22.682461708984373,20.374896Q22.731861708984376,20.460425,22.757431708984374,20.555827999999998Q22.783001708984376,20.651229999999998,22.783001708984376,20.75Q22.783001708984376,20.823869,22.768591708984374,20.896318Q22.754181708984376,20.968767,22.725911708984373,21.03701Q22.697641708984374,21.10526,22.656601708984375,21.16668Q22.615561708984377,21.2281,22.563331708984375,21.28033Q22.511101708984373,21.33256,22.449681708984375,21.3736Q22.388261708984373,21.41464,22.320011708984374,21.44291Q22.251771708984375,21.47118,22.179321708984375,21.48559Q22.106871708984375,21.5,22.033001708984376,21.5Q21.832171708984376,21.5,21.658209708984376,21.39964L20.358352708984373,20.649722L20.358209708984376,20.649639Q20.272656708984375,20.600282,20.202798708984375,20.530458Q20.132941708984376,20.460633,20.083542708984375,20.375104Q20.034143708984374,20.289575,20.008572708984374,20.194172000000002Q19.983001708984375,20.0987699,19.983001708984375,20Q19.983001708984375,19.9261315,19.997412708984374,19.853682Q20.011823708984377,19.781233,20.040091708984374,19.712987Q20.068360708984375,19.644742,20.109399708984377,19.583322Q20.150438708984375,19.521903000000002,20.202671708984376,19.46967Q20.254904708984377,19.417437,20.316323708984374,19.376398000000002Q20.377743708984376,19.335359,20.445988708984373,19.30709Q20.514234708984375,19.278822,20.586683708984374,19.264411Q20.659133208984375,19.25,20.733001708984375,19.25Q20.933834708984374,19.25,21.107793708984374,19.350361L21.107935708984375,19.350443Z" fill-rule="evenodd" fill="#000000" fill-opacity="1" style="mix-blend-mode:passthrough"/></g></g></svg>