<svg xmlns="http://www.w3.org/2000/svg" xmlns:xlink="http://www.w3.org/1999/xlink" fill="none" version="1.1" width="24" height="24" viewBox="0 0 24 24"><defs><clipPath id="master_svg0_50_4764"><rect x="0" y="0" width="24" height="24" rx="0"/></clipPath></defs><g clip-path="url(#master_svg0_50_4764)"><g><path d="M17.75,4.25L20.75,4.25Q20.82387,4.25,20.89632,4.264411Q20.96877,4.278822,21.03701,4.30709Q21.10526,4.335359,21.16668,4.376398Q21.2281,4.417437,21.28033,4.46967Q21.33256,4.521903,21.3736,4.583322Q21.41464,4.644742,21.44291,4.712987Q21.47118,4.781233,21.485590000000002,4.853682Q21.5,4.9261315,21.5,5Q21.5,5.0738685,21.485590000000002,5.146318Q21.47118,5.218767,21.44291,5.287013Q21.41464,5.355258,21.3736,5.416678Q21.33256,5.478097,21.28033,5.53033Q21.2281,5.582563,21.16668,5.623602Q21.10526,5.664641,21.03701,5.69291Q20.96877,5.721178,20.89632,5.735589Q20.82387,5.75,20.75,5.75L17.75,5.75Q17.6761315,5.75,17.603682,5.735589Q17.531233,5.721178,17.462987,5.69291Q17.394742,5.664641,17.333322,5.623602Q17.271903000000002,5.582563,17.21967,5.53033Q17.167437,5.478097,17.126398000000002,5.416678Q17.085359,5.355258,17.05709,5.287013Q17.028822,5.218767,17.014411,5.146318Q17,5.0738685,17,5Q17,4.9261315,17.014411,4.853682Q17.028822,4.781233,17.05709,4.712987Q17.085359,4.644742,17.126398000000002,4.583322Q17.167437,4.521903,17.21967,4.46967Q17.271903000000002,4.417437,17.333322,4.376398Q17.394742,4.335359,17.462987,4.30709Q17.531233,4.278822,17.603682,4.264411Q17.6761315,4.25,17.75,4.25Z" fill-rule="evenodd" fill="#000000" fill-opacity="1" style="mix-blend-mode:passthrough"/></g><g><path d="M13,3Q13,2.9261315,13.014410999999999,2.853682Q13.028822,2.781233,13.05709,2.712987Q13.085359,2.644742,13.126398,2.583322Q13.167437,2.521903,13.21967,2.46967Q13.271903,2.417437,13.333322,2.376398Q13.394742,2.335359,13.462987,2.30709Q13.531233,2.278822,13.603682,2.264411Q13.6761315,2.25,13.75,2.25Q13.8238685,2.25,13.896318,2.264411Q13.968767,2.278822,14.037013,2.30709Q14.105258,2.335359,14.166678,2.376398Q14.228097,2.417437,14.28033,2.46967Q14.332563,2.521903,14.373602,2.583322Q14.414641,2.644742,14.44291,2.712987Q14.471178,2.781233,14.485589000000001,2.853682Q14.5,2.9261315,14.5,3L14.5,7Q14.5,7.07387,14.485589000000001,7.14632Q14.471178,7.21877,14.44291,7.28701Q14.414641,7.35526,14.373602,7.41668Q14.332563,7.4781,14.28033,7.53033Q14.228097,7.58256,14.166678,7.6236Q14.105258,7.66464,14.037013,7.69291Q13.968767,7.72118,13.896318,7.73559Q13.8238685,7.75,13.75,7.75Q13.6761315,7.75,13.603682,7.73559Q13.531233,7.72118,13.462987,7.69291Q13.394742,7.66464,13.333322,7.6236Q13.271903,7.58256,13.21967,7.53033Q13.167437,7.4781,13.126398,7.41668Q13.085359,7.35526,13.05709,7.28701Q13.028822,7.21877,13.014410999999999,7.14632Q13,7.07387,13,7L13,3Z" fill-rule="evenodd" fill="#000000" fill-opacity="1" style="mix-blend-mode:passthrough"/></g><g><path d="M2.75,4.25L13.75,4.25Q13.8239,4.25,13.8963,4.264411Q13.9688,4.278822,14.037,4.30709Q14.1053,4.335359,14.1667,4.376398Q14.2281,4.417437,14.2803,4.46967Q14.3326,4.521903,14.3736,4.583322Q14.4146,4.644742,14.4429,4.712987Q14.4712,4.781233,14.4856,4.853682Q14.5,4.9261315,14.5,5Q14.5,5.0738685,14.4856,5.146318Q14.4712,5.218767,14.4429,5.287013Q14.4146,5.355258,14.3736,5.416678Q14.3326,5.478097,14.2803,5.53033Q14.2281,5.582563,14.1667,5.623602Q14.1053,5.664641,14.037,5.69291Q13.9688,5.721178,13.8963,5.735589Q13.8239,5.75,13.75,5.75L2.75,5.75Q2.6761315,5.75,2.603682,5.735589Q2.531233,5.721178,2.462987,5.69291Q2.394742,5.664641,2.333322,5.623602Q2.271903,5.582563,2.21967,5.53033Q2.167437,5.478097,2.126398,5.416678Q2.085359,5.355258,2.05709,5.287013Q2.028822,5.218767,2.014411,5.146318Q2,5.0738685,2,5Q2,4.9261315,2.014411,4.853682Q2.028822,4.781233,2.05709,4.712987Q2.085359,4.644742,2.126398,4.583322Q2.167437,4.521903,2.21967,4.46967Q2.271903,4.417437,2.333322,4.376398Q2.394742,4.335359,2.462987,4.30709Q2.531233,4.278822,2.603682,4.264411Q2.6761315,4.25,2.75,4.25Z" fill-rule="evenodd" fill="#000000" fill-opacity="1" style="mix-blend-mode:passthrough"/></g><g><path d="M2.75,11.25L6.75,11.25Q6.82387,11.25,6.89632,11.264410999999999Q6.96877,11.278822,7.03701,11.30709Q7.10526,11.335359,7.16668,11.376398Q7.2281,11.417437,7.28033,11.46967Q7.33256,11.521903,7.3736,11.583322Q7.41464,11.644742,7.44291,11.712987Q7.47118,11.781233,7.48559,11.853682Q7.5,11.9261315,7.5,12Q7.5,12.0738685,7.48559,12.146318Q7.47118,12.218767,7.44291,12.287013Q7.41464,12.355258,7.3736,12.416678Q7.33256,12.478097,7.28033,12.53033Q7.2281,12.582563,7.16668,12.623602Q7.10526,12.664641,7.03701,12.69291Q6.96877,12.721178,6.89632,12.735589000000001Q6.82387,12.75,6.75,12.75L2.75,12.75Q2.6761315,12.75,2.603682,12.735589000000001Q2.531233,12.721178,2.462987,12.69291Q2.394742,12.664641,2.333322,12.623602Q2.271903,12.582563,2.21967,12.53033Q2.167437,12.478097,2.126398,12.416678Q2.085359,12.355258,2.05709,12.287013Q2.028822,12.218767,2.014411,12.146318Q2,12.0738685,2,12Q2,11.9261315,2.014411,11.853682Q2.028822,11.781233,2.05709,11.712987Q2.085359,11.644742,2.126398,11.583322Q2.167437,11.521903,2.21967,11.46967Q2.271903,11.417437,2.333322,11.376398Q2.394742,11.335359,2.462987,11.30709Q2.531233,11.278822,2.603682,11.264410999999999Q2.6761315,11.25,2.75,11.25Z" fill-rule="evenodd" fill="#000000" fill-opacity="1" style="mix-blend-mode:passthrough"/></g><g><path d="M10,10Q10,9.9261315,10.014410999999999,9.853682Q10.028822,9.781233,10.05709,9.712987Q10.085359,9.644742,10.126398,9.583322Q10.167437,9.521903,10.21967,9.46967Q10.271903,9.417437,10.333322,9.376398Q10.394742,9.335359,10.462987,9.30709Q10.531233,9.278822,10.603682,9.264410999999999Q10.6761315,9.25,10.75,9.25Q10.8238685,9.25,10.896318,9.264410999999999Q10.968767,9.278822,11.037013,9.30709Q11.105258,9.335359,11.166678,9.376398Q11.228097,9.417437,11.28033,9.46967Q11.332563,9.521903,11.373602,9.583322Q11.414641,9.644742,11.44291,9.712987Q11.471178,9.781233,11.485589000000001,9.853682Q11.5,9.9261315,11.5,10L11.5,14Q11.5,14.07387,11.485589000000001,14.14632Q11.471178,14.21877,11.44291,14.28701Q11.414641,14.355260000000001,11.373602,14.41668Q11.332563,14.478100000000001,11.28033,14.53033Q11.228097,14.58256,11.166678,14.6236Q11.105258,14.66464,11.037013,14.692910000000001Q10.968767,14.72118,10.896318,14.73559Q10.8238685,14.75,10.75,14.75Q10.6761315,14.75,10.603682,14.73559Q10.531233,14.72118,10.462987,14.692910000000001Q10.394742,14.66464,10.333322,14.6236Q10.271903,14.58256,10.21967,14.53033Q10.167437,14.478100000000001,10.126398,14.41668Q10.085359,14.355260000000001,10.05709,14.28701Q10.028822,14.21877,10.014410999999999,14.14632Q10,14.07387,10,14L10,10Z" fill-rule="evenodd" fill="#000000" fill-opacity="1" style="mix-blend-mode:passthrough"/></g><g><path d="M10.75,11.25L21.75,11.25Q21.823900000000002,11.25,21.8963,11.264410999999999Q21.9688,11.278822,22.037,11.30709Q22.1053,11.335359,22.1667,11.376398Q22.228099999999998,11.417437,22.2803,11.46967Q22.3326,11.521903,22.3736,11.583322Q22.4146,11.644742,22.4429,11.712987Q22.4712,11.781233,22.485599999999998,11.853682Q22.5,11.9261315,22.5,12Q22.5,12.0738685,22.485599999999998,12.146318Q22.4712,12.218767,22.4429,12.287013Q22.4146,12.355258,22.3736,12.416678Q22.3326,12.478097,22.2803,12.53033Q22.228099999999998,12.582563,22.1667,12.623602Q22.1053,12.664641,22.037,12.69291Q21.9688,12.721178,21.8963,12.735589000000001Q21.823900000000002,12.75,21.75,12.75L10.75,12.75Q10.6761315,12.75,10.603682,12.735589000000001Q10.531233,12.721178,10.462987,12.69291Q10.394742,12.664641,10.333322,12.623602Q10.271903,12.582563,10.21967,12.53033Q10.167437,12.478097,10.126398,12.416678Q10.085359,12.355258,10.05709,12.287013Q10.028822,12.218767,10.014410999999999,12.146318Q10,12.0738685,10,12Q10,11.9261315,10.014410999999999,11.853682Q10.028822,11.781233,10.05709,11.712987Q10.085359,11.644742,10.126398,11.583322Q10.167437,11.521903,10.21967,11.46967Q10.271903,11.417437,10.333322,11.376398Q10.394742,11.335359,10.462987,11.30709Q10.531233,11.278822,10.603682,11.264410999999999Q10.6761315,11.25,10.75,11.25Z" fill-rule="evenodd" fill="#000000" fill-opacity="1" style="mix-blend-mode:passthrough"/></g><g><path d="M17.75,18.25L20.75,18.25Q20.82387,18.25,20.89632,18.264411Q20.96877,18.278822,21.03701,18.30709Q21.10526,18.335359,21.16668,18.376398000000002Q21.2281,18.417437,21.28033,18.46967Q21.33256,18.521903000000002,21.3736,18.583322Q21.41464,18.644742,21.44291,18.712987Q21.47118,18.781233,21.485590000000002,18.853682Q21.5,18.9261315,21.5,19Q21.5,19.0738685,21.485590000000002,19.146318Q21.47118,19.218767,21.44291,19.287013Q21.41464,19.355258,21.3736,19.416678Q21.33256,19.478096999999998,21.28033,19.53033Q21.2281,19.582563,21.16668,19.623601999999998Q21.10526,19.664641,21.03701,19.69291Q20.96877,19.721178,20.89632,19.735589Q20.82387,19.75,20.75,19.75L17.75,19.75Q17.6761315,19.75,17.603682,19.735589Q17.531233,19.721178,17.462987,19.69291Q17.394742,19.664641,17.333322,19.623601999999998Q17.271903000000002,19.582563,17.21967,19.53033Q17.167437,19.478096999999998,17.126398000000002,19.416678Q17.085359,19.355258,17.05709,19.287013Q17.028822,19.218767,17.014411,19.146318Q17,19.0738685,17,19Q17,18.9261315,17.014411,18.853682Q17.028822,18.781233,17.05709,18.712987Q17.085359,18.644742,17.126398000000002,18.583322Q17.167437,18.521903000000002,17.21967,18.46967Q17.271903000000002,18.417437,17.333322,18.376398000000002Q17.394742,18.335359,17.462987,18.30709Q17.531233,18.278822,17.603682,18.264411Q17.6761315,18.25,17.75,18.25Z" fill-rule="evenodd" fill="#000000" fill-opacity="1" style="mix-blend-mode:passthrough"/></g><g><path d="M13,17Q13,16.9261315,13.014410999999999,16.853682Q13.028822,16.781233,13.05709,16.712987Q13.085359,16.644742,13.126398,16.583322Q13.167437,16.521903000000002,13.21967,16.46967Q13.271903,16.417437,13.333322,16.376398000000002Q13.394742,16.335359,13.462987,16.30709Q13.531233,16.278822,13.603682,16.264411Q13.6761315,16.25,13.75,16.25Q13.8238685,16.25,13.896318,16.264411Q13.968767,16.278822,14.037013,16.30709Q14.105258,16.335359,14.166678,16.376398000000002Q14.228097,16.417437,14.28033,16.46967Q14.332563,16.521903000000002,14.373602,16.583322Q14.414641,16.644742,14.44291,16.712987Q14.471178,16.781233,14.485589000000001,16.853682Q14.5,16.9261315,14.5,17L14.5,21Q14.5,21.07387,14.485589000000001,21.14632Q14.471178,21.21877,14.44291,21.287010000000002Q14.414641,21.35526,14.373602,21.41668Q14.332563,21.4781,14.28033,21.53033Q14.228097,21.58256,14.166678,21.6236Q14.105258,21.66464,14.037013,21.69291Q13.968767,21.72118,13.896318,21.735590000000002Q13.8238685,21.75,13.75,21.75Q13.6761315,21.75,13.603682,21.735590000000002Q13.531233,21.72118,13.462987,21.69291Q13.394742,21.66464,13.333322,21.6236Q13.271903,21.58256,13.21967,21.53033Q13.167437,21.4781,13.126398,21.41668Q13.085359,21.35526,13.05709,21.287010000000002Q13.028822,21.21877,13.014410999999999,21.14632Q13,21.07387,13,21L13,17Z" fill-rule="evenodd" fill="#000000" fill-opacity="1" style="mix-blend-mode:passthrough"/></g><g><path d="M2.75,18.25L13.75,18.25Q13.8239,18.25,13.8963,18.264411Q13.9688,18.278822,14.037,18.30709Q14.1053,18.335359,14.1667,18.376398000000002Q14.2281,18.417437,14.2803,18.46967Q14.3326,18.521903000000002,14.3736,18.583322Q14.4146,18.644742,14.4429,18.712987Q14.4712,18.781233,14.4856,18.853682Q14.5,18.9261315,14.5,19Q14.5,19.0738685,14.4856,19.146318Q14.4712,19.218767,14.4429,19.287013Q14.4146,19.355258,14.3736,19.416678Q14.3326,19.478096999999998,14.2803,19.53033Q14.2281,19.582563,14.1667,19.623601999999998Q14.1053,19.664641,14.037,19.69291Q13.9688,19.721178,13.8963,19.735589Q13.8239,19.75,13.75,19.75L2.75,19.75Q2.6761315,19.75,2.603682,19.735589Q2.531233,19.721178,2.462987,19.69291Q2.394742,19.664641,2.333322,19.623601999999998Q2.271903,19.582563,2.21967,19.53033Q2.167437,19.478096999999998,2.126398,19.416678Q2.085359,19.355258,2.05709,19.287013Q2.028822,19.218767,2.014411,19.146318Q2,19.0738685,2,19Q2,18.9261315,2.014411,18.853682Q2.028822,18.781233,2.05709,18.712987Q2.085359,18.644742,2.126398,18.583322Q2.167437,18.521903000000002,2.21967,18.46967Q2.271903,18.417437,2.333322,18.376398000000002Q2.394742,18.335359,2.462987,18.30709Q2.531233,18.278822,2.603682,18.264411Q2.6761315,18.25,2.75,18.25Z" fill-rule="evenodd" fill="#000000" fill-opacity="1" style="mix-blend-mode:passthrough"/></g></g></svg>