<svg xmlns="http://www.w3.org/2000/svg" xmlns:xlink="http://www.w3.org/1999/xlink" fill="none" version="1.1" width="24" height="24" viewBox="0 0 24 24"><defs><clipPath id="master_svg0_5726_08073"><rect x="0" y="0" width="24" height="24" rx="0"/></clipPath></defs><g clip-path="url(#master_svg0_5726_08073)"><g><path d="M7.06066,7.93934Q6.62132,7.5,6,7.5Q5.37868,7.5,4.93934,7.93934Q4.5,8.37868,4.5,9Q4.5,9.62132,4.93934,10.06066Q5.37868,10.5,6,10.5Q6.62132,10.5,7.06066,10.06066Q7.5,9.62132,7.5,9Q7.5,8.37868,7.06066,7.93934ZM13.06066,7.93934Q12.62132,7.5,12,7.5Q11.37868,7.5,10.93934,7.93934Q10.5,8.37868,10.5,9Q10.5,9.62132,10.93934,10.06066Q11.37868,10.5,12,10.5Q12.62132,10.5,13.06066,10.06066Q13.5,9.62132,13.5,9Q13.5,8.37868,13.06066,7.93934ZM19.0607,7.93934Q18.621299999999998,7.5,18,7.5Q17.378700000000002,7.5,16.9393,7.93934Q16.5,8.378679,16.5,9Q16.5,9.62132,16.9393,10.06066Q17.378700000000002,10.5,18,10.5Q18.621299999999998,10.5,19.0607,10.06066Q19.5,9.62132,19.5,9Q19.5,8.378678,19.0607,7.93934Z" fill-rule="evenodd" fill="#000000" fill-opacity="1" style="mix-blend-mode:passthrough"/></g><g><path d="M7.06066,13.93934Q6.62132,13.5,6,13.5Q5.37868,13.5,4.93934,13.93934Q4.5,14.37868,4.5,15Q4.5,15.62132,4.93934,16.06066Q5.37868,16.5,6,16.5Q6.62132,16.5,7.06066,16.06066Q7.5,15.62132,7.5,15Q7.5,14.37868,7.06066,13.93934ZM13.06066,13.93934Q12.62132,13.5,12,13.5Q11.37868,13.5,10.93934,13.93934Q10.5,14.37868,10.5,15Q10.5,15.62132,10.93934,16.06066Q11.37868,16.5,12,16.5Q12.62132,16.5,13.06066,16.06066Q13.5,15.62132,13.5,15Q13.5,14.37868,13.06066,13.93934ZM19.0607,13.93934Q18.621299999999998,13.5,18,13.5Q17.378700000000002,13.5,16.9393,13.93934Q16.5,14.378679,16.5,15Q16.5,15.62132,16.9393,16.06066Q17.378700000000002,16.5,18,16.5Q18.621299999999998,16.5,19.0607,16.06066Q19.5,15.62132,19.5,15Q19.5,14.378678,19.0607,13.93934Z" fill-rule="evenodd" fill="#000000" fill-opacity="1" style="mix-blend-mode:passthrough"/></g></g></svg>