<svg xmlns="http://www.w3.org/2000/svg" xmlns:xlink="http://www.w3.org/1999/xlink" fill="none" version="1.1" width="24" height="24" viewBox="0 0 24 24"><defs><clipPath id="master_svg0_5726_08083"><rect x="0" y="0" width="24" height="24" rx="0"/></clipPath></defs><g clip-path="url(#master_svg0_5726_08083)"><g><path d="M10.06066,7.06066Q10.5,6.62132,10.5,6Q10.5,5.37868,10.06066,4.93934Q9.62132,4.5,9,4.5Q8.37868,4.5,7.93934,4.93934Q7.5,5.37868,7.5,6Q7.5,6.62132,7.93934,7.06066Q8.37868,7.5,9,7.5Q9.62132,7.5,10.06066,7.06066ZM10.06066,13.06066Q10.5,12.62132,10.5,12Q10.5,11.37868,10.06066,10.93934Q9.62132,10.5,9,10.5Q8.37868,10.5,7.93934,10.93934Q7.5,11.37868,7.5,12Q7.5,12.62132,7.93934,13.06066Q8.37868,13.5,9,13.5Q9.62132,13.5,10.06066,13.06066ZM10.06066,19.0607Q10.5,18.621299999999998,10.5,18Q10.5,17.378700000000002,10.06066,16.9393Q9.62132,16.5,9,16.5Q8.378679,16.5,7.93934,16.9393Q7.5,17.378700000000002,7.5,18Q7.5,18.621299999999998,7.93934,19.0607Q8.378678,19.5,9,19.5Q9.62132,19.5,10.06066,19.0607Z" fill-rule="evenodd" fill="#000000" fill-opacity="1" style="mix-blend-mode:passthrough"/></g><g><path d="M16.06066,7.06066Q16.5,6.62132,16.5,6Q16.5,5.37868,16.06066,4.93934Q15.62132,4.5,15,4.5Q14.37868,4.5,13.93934,4.93934Q13.5,5.37868,13.5,6Q13.5,6.62132,13.93934,7.06066Q14.37868,7.5,15,7.5Q15.62132,7.5,16.06066,7.06066ZM16.06066,13.06066Q16.5,12.62132,16.5,12Q16.5,11.37868,16.06066,10.93934Q15.62132,10.5,15,10.5Q14.37868,10.5,13.93934,10.93934Q13.5,11.37868,13.5,12Q13.5,12.62132,13.93934,13.06066Q14.37868,13.5,15,13.5Q15.62132,13.5,16.06066,13.06066ZM16.06066,19.0607Q16.5,18.621299999999998,16.5,18Q16.5,17.378700000000002,16.06066,16.9393Q15.62132,16.5,15,16.5Q14.378679,16.5,13.93934,16.9393Q13.5,17.378700000000002,13.5,18Q13.5,18.621299999999998,13.93934,19.0607Q14.378678,19.5,15,19.5Q15.62132,19.5,16.06066,19.0607Z" fill-rule="evenodd" fill="#000000" fill-opacity="1" style="mix-blend-mode:passthrough"/></g></g></svg>