<svg xmlns="http://www.w3.org/2000/svg" xmlns:xlink="http://www.w3.org/1999/xlink" fill="none" version="1.1" width="32" height="32" viewBox="0 0 32 32"><defs><clipPath id="master_svg0_5881_02892"><rect x="0" y="0" width="32" height="32" rx="0"/></clipPath><filter id="master_svg1_5881_02898" filterUnits="objectBoundingBox" color-interpolation-filters="sRGB" x="0" y="0" width="1" height="1"><feFlood flood-opacity="0" result="BackgroundImageFix"/><feBlend mode="normal" in="SourceGraphic" in2="BackgroundImageFix" result="shape"/><feColorMatrix in="SourceAlpha" type="matrix" result="hardAlpha" values="0 0 0 0 0 0 0 0 0 0 0 0 0 0 0 0 0 0 127 0"/><feOffset dy="-2" dx="0"/><feGaussianBlur stdDeviation="2"/><feComposite in2="hardAlpha" operator="arithmetic" k2="-1" k3="1"/><feColorMatrix type="matrix" values="0 0 0 0 1 0 0 0 0 1 0 0 0 0 1 0 0 0 0.20000000298023224 0"/><feBlend mode="normal" in2="shape" result="effect1_innerShadow"/></filter><linearGradient x1="0.6739130616188049" y1="0.22805315256118774" x2="0.6739130616188049" y2="1.228589415550232" id="master_svg2_5881_02962"><stop offset="0%" stop-color="#FFFFFF" stop-opacity="1"/><stop offset="40.104201436042786%" stop-color="#FFFFFF" stop-opacity="0.8500000238418579"/><stop offset="100%" stop-color="#FFFFFF" stop-opacity="0.5"/></linearGradient></defs><g clip-path="url(#master_svg0_5881_02892)"><g></g><g filter="url(#master_svg1_5881_02898)"><g transform="matrix(0.916670024394989,0,0,0.916670024394989,0.45831653469036837,0.6110887261654341)"><path d="M13.500020027160645,16.333360195159912C15.985320027160645,16.333360195159912,18.000020027160645,14.318640195159912,18.000020027160645,11.833360195159912C18.000020027160645,9.348080195159913,15.985320027160645,7.333360195159912,13.500020027160645,7.333360195159912C11.014740027160645,7.333360195159912,9.000020027160645,9.348080195159913,9.000020027160645,11.833360195159912C9.000020027160645,14.318640195159912,11.014740027160645,16.333360195159912,13.500020027160645,16.333360195159912ZM7.5000200271606445,26.333360195159912C6.400020027160645,26.333360195159912,5.5000200271606445,25.433360195159914,5.5000200271606445,24.333360195159912L5.5000200271606445,23.400360195159912C5.5000200271606445,20.05036019515991,8.313020027160645,17.333360195159912,11.568020027160644,17.333360195159912L15.441020027160645,17.333360195159912C18.696020027160642,17.333360195159912,21.500020027160645,20.049360195159913,21.500020027160645,23.400360195159912L21.500020027160645,24.333360195159912C21.500020027160645,25.433360195159914,20.600020027160646,26.333360195159912,19.500020027160645,26.333360195159912L7.5000200271606445,26.333360195159912ZM23.500020027160645,25.333360195159912L23.500020027160645,25.037360195159913C23.500020027160645,22.72536019515991,23.500020027160645,20.333360195159912,21.500020027160645,18.833360195159912C21.584020027160644,18.826360195159914,21.724020027160645,18.82836019515991,21.860020027160644,18.83136019515991L22.044020027160645,18.833360195159912L24.000020027160645,18.833360195159912C26.442020027160645,18.833360195159912,28.500020027160645,20.37036019515991,28.500020027160645,22.883360195159913L28.500020027160645,24.333360195159912C28.500020027160645,24.883360195159913,28.050020027160645,25.333360195159912,27.500020027160645,25.333360195159912L23.500020027160645,25.333360195159912ZM22.500020027160645,17.333360195159912C24.156920027160645,17.333360195159912,25.500020027160645,15.990220195159912,25.500020027160645,14.333360195159912C25.500020027160645,12.676510195159912,24.156920027160645,11.333360195159912,22.500020027160645,11.333360195159912C20.843120027160644,11.333360195159912,19.500020027160645,12.676510195159912,19.500020027160645,14.333360195159912C19.500020027160645,15.990220195159912,20.843120027160644,17.333360195159912,22.500020027160645,17.333360195159912Z" fill="url(#master_svg2_5881_02962)" fill-opacity="1" style="mix-blend-mode:passthrough"/></g></g></g></svg>