<svg xmlns="http://www.w3.org/2000/svg" xmlns:xlink="http://www.w3.org/1999/xlink" fill="none" version="1.1" width="24" height="24" viewBox="0 0 24 24"><defs><clipPath id="master_svg0_6090_02709"><rect x="0" y="0" width="24" height="24" rx="0"/></clipPath></defs><g clip-path="url(#master_svg0_6090_02709)"><g><path d="M10.25,4.5L10.25,12Q10.25,12.0738678,10.264410999999999,12.1463165Q10.2788219,12.2187653,10.3070903,12.2870111Q10.3353586,12.355257,10.3763976,12.4166756Q10.4174368,12.478096,10.4696698,12.5303288Q10.5219026,12.5825615,10.583321999999999,12.623601Q10.6447415,12.6646404,10.7129872,12.6929083Q10.7812328,12.7211761,10.8536818,12.7355881Q10.9261312,12.75,11,12.75Q11.0738683,12.75,11.1463175,12.7355881Q11.2187667,12.7211761,11.2870121,12.6929083Q11.355258,12.6646404,11.4166775,12.6236Q11.478097,12.5825615,11.5303297,12.5303288Q11.5825624,12.478096,11.6236014,12.4166756Q11.6646404,12.355257,11.692909,12.2870111Q11.7211773,12.2187653,11.7355886,12.1463165Q11.7499998,12.0738678,11.75,12L11.75,4.5Q11.75,3.56801975,11.090990099999999,2.90900977Q10.4319806,2.25000012,9.5,2.25000012Q8.56801945,2.25,7.909009725,2.90900968Q7.25000012,3.56801939,7.25000012,4.5L7.25,13Q7.25,13.073868,7.26441109,13.146317Q7.27882212,13.218765,7.3070904,13.287011Q7.33535868,13.355257,7.37639785,13.416676Q7.41743702,13.478096,7.46966994,13.530329Q7.52190292,13.582561,7.58332238,13.623602Q7.64474183,13.66464,7.71298748,13.692909Q7.78123312,13.721178,7.85368228,13.735588Q7.926131457,13.75,8,13.75Q8.073868543,13.75,8.14631772,13.73559Q8.21876688,13.721178,8.28701252,13.692909Q8.35525817,13.66464,8.41667762,13.623602Q8.47809708,13.582562,8.53033006,13.53033Q8.58256298,13.478096,8.62360215,13.416676Q8.66464132,13.355257,8.6929096,13.287011Q8.72117788,13.218765,8.73558891,13.146317Q8.75,13.073868,8.75,13L8.75000012,4.5Q8.75000012,4.1893398,8.96966994,3.96966988Q9.1893399,3.75,9.5,3.75000012Q9.810660200000001,3.75000012,10.0303302,3.96966988Q10.25,4.1893398,10.25,4.5Z" fill-rule="evenodd" fill="#231F2E" fill-opacity="1" style="mix-blend-mode:passthrough"/></g><g><path d="M13.0303309,8.96966982Q13.2500002,9.1893393,13.25,9.4999999L13.25,12Q13.25,12.0738688,13.264410999999999,12.1463175Q13.2788219,12.2187667,13.3070903,12.2870121Q13.3353586,12.355258,13.3763976,12.416677Q13.4174368,12.478097,13.4696698,12.5303297Q13.5219026,12.5825624,13.583321999999999,12.6236019Q13.6447415,12.6646409,13.7129872,12.692909199999999Q13.7812328,12.7211776,13.8536818,12.735589000000001Q13.9261312,12.75,14,12.75Q14.0738683,12.75,14.1463175,12.735589000000001Q14.2187667,12.7211776,14.2870121,12.692909199999999Q14.355258,12.6646409,14.4166775,12.6236019Q14.478097,12.5825624,14.5303297,12.5303297Q14.5825624,12.478097,14.6236014,12.416677Q14.6646404,12.355258,14.692909,12.2870121Q14.7211773,12.2187667,14.7355886,12.1463175Q14.7499998,12.0738688,14.75,12L14.7499998,11.999402L14.7499998,9.4999999Q14.750000700000001,8.56801981,14.0909913,7.909009829Q13.4319816,7.25000018,12.5000008,7.25000006Q11.56802046,7.25000006,10.909010723,7.909009561Q10.25000119,8.56801885,10.25000024,9.4999992L10.25000006,11.499701L10.25000006,11.5Q10.25000012,11.5738683,10.26441109,11.6463175Q10.27882218,11.718766500000001,10.30709046,11.7870121Q10.33535874,11.8552577,10.37639785,11.9166772Q10.41743702,11.978097,10.46966994,12.0303302Q10.52190292,12.0825634,10.58332238,12.1236019Q10.64474183,12.1646414,10.71298748,12.192909199999999Q10.78123312,12.2211776,10.85368228,12.235589000000001Q10.926131457,12.25,11,12.25Q11.073868543,12.25,11.14631772,12.235589000000001Q11.21876688,12.2211776,11.28701252,12.192909199999999Q11.35525817,12.1646409,11.41667762,12.1236019Q11.47809708,12.0825624,11.53033006,12.0303297Q11.58256298,11.9780967,11.62360215,11.916677Q11.66464132,11.8552577,11.6929096,11.7870121Q11.72117788,11.718766500000001,11.73558891,11.6463172Q11.75,11.5738683,11.75,11.5L11.74999994,11.499701L11.75000012,9.5000008Q11.75000054,9.18934,11.96967071,8.96966982Q12.1893407,8.74999994,12.5000008,8.74999994Q12.8106612,8.75000006,13.0303309,8.96966982Z" fill-rule="evenodd" fill="#231F2E" fill-opacity="1" style="mix-blend-mode:passthrough"/></g><g><path d="M16.0303307,9.96966958Q16.25,10.1893392,16.25,10.5L16.25,12Q16.25,12.0738683,16.264411,12.1463175Q16.2788219,12.2187667,16.3070903,12.2870121Q16.3353586,12.355258,16.3763976,12.4166775Q16.4174368,12.478097,16.4696698,12.5303297Q16.5219026,12.5825624,16.583322,12.6236014Q16.6447415,12.6646404,16.7129872,12.692909Q16.7812328,12.7211773,16.8536818,12.7355886Q16.9261312,12.7499998,17,12.75Q17.0738683,12.7499998,17.1463175,12.7355886Q17.2187667,12.7211773,17.2870121,12.692909Q17.355258,12.6646404,17.4166775,12.6236017Q17.478096999999998,12.5825624,17.5303297,12.5303297Q17.5825624,12.478097,17.6236014,12.4166775Q17.6646404,12.355258,17.692909,12.2870121Q17.7211773,12.2187667,17.7355886,12.1463175Q17.7499998,12.0738683,17.75,12L17.75,10.5Q17.75,9.56801975,17.0909913,8.909010082Q16.431982,8.25000006,15.5000014,8.25000012Q14.56802046,8.25,13.909010664,8.909009546Q13.25000095,9.56801897,13.25,10.4999992Q13.25,10.5738678,13.26441109,10.646317Q13.27882212,10.7187662,13.3070904,10.7870119Q13.33535868,10.8552575,13.37639785,10.916677Q13.41743702,10.9780966,13.46966994,11.0303297Q13.52190292,11.0825627,13.58332238,11.1236019Q13.64474183,11.1646411,13.71298748,11.192909499999999Q13.78123312,11.2211778,13.85368228,11.235589000000001Q13.926131457,11.25,14,11.25Q14.073868543,11.25,14.14631772,11.235589000000001Q14.21876688,11.2211778,14.28701252,11.192909499999999Q14.35525817,11.1646411,14.41667762,11.1236019Q14.47809708,11.0825629,14.53033006,11.0303299Q14.58256298,10.978097,14.62360215,10.9166775Q14.66464132,10.855258,14.6929096,10.7870123Q14.72117788,10.7187667,14.73558891,10.6463176Q14.75,10.5738685,14.75,10.5Q14.75000036,10.189340099999999,14.96967059,9.96966994Q15.1893406,9.75,15.5000014,9.75000012Q15.8106613,9.75000012,16.0303307,9.96966958Z" fill-rule="evenodd" fill="#231F2E" fill-opacity="1" style="mix-blend-mode:passthrough"/></g><g><path d="M5.999669517648315,12.0603287L7.469669317648315,13.530329Q7.575158817648315,13.635818,7.712986717648316,13.6929088Q7.850815517648315,13.749998999999999,7.999999717648316,13.749998999999999Q8.073868017648316,13.7499988,8.146317217648315,13.7355876Q8.218766017648315,13.7211766,8.287011817648317,13.6929083Q8.355257317648316,13.664639900000001,8.416676717648315,13.6236005Q8.478096217648314,13.5825615,8.530329417648314,13.5303288Q8.582562217648317,13.4780958,8.623601717648317,13.4166765Q8.664640617648315,13.355257,8.692909017648315,13.2870111Q8.721177317648316,13.2187657,8.735588317648315,13.146316500000001Q8.749999717648315,13.0738673,8.749999717648315,12.999998999999999Q8.749999717648315,12.8508146,8.692909017648315,12.7129865Q8.635819217648315,12.5751581,8.530329917648316,12.4696691L8.530175417648316,12.469514799999999L7.060329917648316,10.99966878Q6.4230997176483156,10.36316806,5.529578017648316,10.25343734Q4.636055717648316,10.14370658,3.864118457648315,10.60688549Q3.0805776976483155,11.076646,2.8464211776483155,11.9599752Q2.6122646976483157,12.8433042,3.0603476776483154,13.639747100000001Q5.891874517648315,18.672904000000003,6.3715572176483155,19.4093399L6.568126217648315,19.7102108Q7.506321717648316,21.134852000000002,9.005682717648316,21.94257Q10.368982517648316,22.676989,11.900706017648316,22.743398Q11.950133117648315,22.75,11.999999717648315,22.75L13.999999917648315,22.75Q16.795940917648316,22.75,18.772970917648315,20.772972Q20.750000917648315,18.795943299999998,20.750000917648315,16.000001400000002L20.750000917648315,11.5Q20.750000917648315,10.56801909,20.090990917648316,9.909009293Q19.431978917648316,9.25000006,18.499999917648317,9.25000018Q17.568021917648316,9.25,16.909010917648317,9.909009382Q16.249999917648317,10.56801957,16.249999917648317,11.5Q16.249998917648316,11.5738685,16.264409917648315,11.6463177Q16.278820917648318,11.718766800000001,16.307088917648315,11.7870125Q16.335356917648316,11.855258,16.376395917648317,11.9166775Q16.417434917648315,11.978097,16.469667917648316,12.0303299Q16.521900917648317,12.0825629,16.583319917648318,12.1236019Q16.644739917648316,12.1646411,16.712985917648318,12.192909499999999Q16.781231917648313,12.2211778,16.853680917648315,12.235589000000001Q16.926130917648315,12.25,16.999999917648317,12.25Q17.073867917648315,12.25,17.146315917648316,12.235589000000001Q17.218765917648316,12.2211778,17.287010917648317,12.192909499999999Q17.355256917648315,12.1646411,17.416675917648316,12.1236019Q17.478096917648315,12.0825629,17.530329917648316,12.0303299Q17.582561917648313,11.978097,17.623600917648318,11.9166775Q17.664638917648315,11.855258,17.692907917648313,11.7870123Q17.721176917648314,11.7187667,17.735587917648317,11.6463176Q17.749998917648316,11.5738685,17.749999917648317,11.5Q17.749998917648316,11.1250005,17.937498917648316,10.93750054Q18.124998917648316,10.75000006,18.499999917648317,10.75000018Q18.810658917648315,10.75000012,19.030330917648314,10.969670409999999Q19.250001917648316,11.1893412,19.250001917648316,11.5L19.250001917648316,16.000001400000002Q19.250001917648316,18.1746235,17.712310917648317,19.7123117Q16.174621917648317,21.25,13.999999917648315,21.25L12.205589017648315,21.25Q9.377891317648317,21.249523,7.823873717648316,18.889786700000002L7.628443017648316,18.5906601Q7.175329017648315,17.8950129,4.367652177648315,12.904250900000001Q4.0099190476483155,12.2684,4.635882217648316,11.8931127Q5.383288217648316,11.4446533,5.999669517648315,12.0603287Z" fill-rule="evenodd" fill="#231F2E" fill-opacity="1" style="mix-blend-mode:passthrough"/></g><g><path d="M4.53048426,1.46982414L5.5301758,2.46951574L5.5303301000000005,2.46966994Q5.6358192,2.57515913,5.6929096999999995,2.71298742Q5.75,2.85081571,5.75,3Q5.7499999,3.0738684999999997,5.7355888,3.1463177Q5.7211777,3.2187668,5.6929094,3.2870125Q5.6646411,3.355258,5.623602,3.4166776Q5.5825629,3.478097,5.5303299,3.5303299Q5.478097,3.5825629,5.4166775000000005,3.623602Q5.355258,3.6646411,5.2870124999999994,3.6929095Q5.2187668,3.7211778,5.1463177,3.7355888Q5.0738685,3.7499998999999997,5,3.75Q4.85081571,3.75,4.71298736,3.6929097Q4.57515907,3.6358192000000003,4.46966991,3.5303301L4.46951574,3.5301758000000003L3.46966994,2.53033006Q3.36418074,2.42484087,3.3070904,2.28701258Q3.25,2.14918427,3.25,2Q3.25,1.926131457,3.26441109,1.85368228Q3.27882212,1.78123312,3.3070904,1.71298748Q3.33535868,1.64474183,3.37639785,1.58332238Q3.41743702,1.52190292,3.46966994,1.46966994Q3.52190292,1.41743702,3.58332238,1.37639785Q3.64474183,1.3353586800000001,3.71298748,1.3070903999999999Q3.78123312,1.27882212,3.85368228,1.2644110899999998Q3.926131457,1.25,4,1.25Q4.14918427,1.25,4.28701258,1.30709034Q4.42484087,1.3641807400000001,4.53033006,1.46966994L4.53048426,1.46982414Z" fill-rule="evenodd" fill="#3B82F6" fill-opacity="1"/></g><g><path d="M3,6.25L4,6.25Q4.0738685,6.25,4.1463177,6.26441109Q4.2187668,6.27882212,4.2870124999999994,6.3070904Q4.355258,6.33535868,4.4166776,6.37639785Q4.478097,6.41743702,4.5303299,6.46966994Q4.5825629,6.52190292,4.623602,6.58332238Q4.6646411,6.64474183,4.6929095,6.71298748Q4.7211777999999995,6.78123312,4.7355888,6.85368228Q4.7499999,6.926131457,4.75,7Q4.7499999,7.073868543,4.7355888,7.14631772Q4.7211777,7.21876688,4.6929094,7.28701252Q4.6646411,7.35525817,4.623602,7.41667762Q4.5825629,7.47809708,4.5303299,7.53033006Q4.478097,7.58256298,4.4166775000000005,7.62360215Q4.355258,7.66464132,4.2870124999999994,7.6929096Q4.2187668,7.72117788,4.1463177,7.73558891Q4.0738685,7.75,4,7.75L3,7.75Q2.926131457,7.75,2.85368228,7.73558891Q2.78123312,7.72117788,2.71298748,7.6929096Q2.64474183,7.66464132,2.58332238,7.62360215Q2.52190292,7.58256298,2.46966994,7.53033006Q2.41743702,7.47809708,2.37639785,7.41667762Q2.33535868,7.35525817,2.3070904,7.28701252Q2.27882212,7.21876688,2.26441109,7.14631772Q2.25,7.073868543,2.25,7Q2.25,6.926131457,2.26441109,6.85368228Q2.27882212,6.78123312,2.3070904,6.71298748Q2.33535868,6.64474183,2.37639785,6.58332238Q2.41743702,6.52190292,2.46966994,6.46966994Q2.52190292,6.41743702,2.58332238,6.37639785Q2.64474183,6.33535868,2.71298748,6.3070904Q2.78123312,6.27882212,2.85368228,6.26441109Q2.926131457,6.25,3,6.25Z" fill-rule="evenodd" fill="#3B82F6" fill-opacity="1"/></g><g><path d="M15.5303301,2.53033006Q15.6358192,2.42484087,15.6929097,2.28701258Q15.75,2.14918427,15.75,2Q15.7499999,1.926131457,15.7355888,1.85368228Q15.7211777,1.78123312,15.6929094,1.71298748Q15.6646411,1.64474183,15.623602,1.58332238Q15.5825629,1.52190292,15.5303299,1.46966994Q15.478097,1.41743702,15.4166775,1.37639785Q15.355258,1.3353586800000001,15.2870125,1.3070903999999999Q15.218766800000001,1.27882212,15.1463177,1.2644110899999998Q15.0738685,1.25,15,1.25Q14.85081571,1.25,14.71298736,1.30709034Q14.57515907,1.3641807400000001,14.46966991,1.46966994L14.46951574,1.46982414L13.46966994,2.46966994Q13.36418074,2.57515913,13.3070904,2.71298742Q13.25,2.85081571,13.25,3Q13.25,3.0738684999999997,13.26441109,3.1463177Q13.27882212,3.2187668,13.3070904,3.2870125Q13.33535868,3.355258,13.37639785,3.4166776Q13.41743702,3.478097,13.46966994,3.5303299Q13.52190292,3.5825629,13.58332238,3.623602Q13.64474183,3.6646411,13.71298748,3.6929095Q13.78123312,3.7211778,13.85368228,3.7355888Q13.926131457,3.7499998999999997,14,3.75Q14.14918427,3.75,14.28701258,3.6929097Q14.42484087,3.6358192000000003,14.53033006,3.5303301L14.53048426,3.5301758000000003L15.5301758,2.53048426L15.5303301,2.53033006Z" fill-rule="evenodd" fill="#3B82F6" fill-opacity="1"/></g><g><path d="M15,5.25Q14.926131457,5.25,14.85368228,5.26441109Q14.78123312,5.27882212,14.71298748,5.3070904Q14.64474183,5.33535868,14.58332238,5.37639785Q14.52190292,5.41743702,14.46966994,5.46966994Q14.41743702,5.52190292,14.37639785,5.58332238Q14.33535868,5.64474183,14.3070904,5.71298748Q14.27882212,5.78123312,14.26441109,5.85368228Q14.25,5.926131457,14.25,6Q14.25,6.073868543,14.26441109,6.14631772Q14.27882212,6.21876688,14.3070904,6.28701252Q14.33535868,6.35525817,14.37639785,6.41667762Q14.41743702,6.47809708,14.46966994,6.53033006Q14.52190292,6.58256298,14.58332238,6.62360215Q14.64474183,6.66464132,14.71298748,6.6929096Q14.78123312,6.72117788,14.85368228,6.73558891Q14.926131457,6.75,15,6.75L16,6.75Q16.0738685,6.75,16.1463177,6.73558891Q16.2187668,6.72117788,16.2870125,6.6929096Q16.355258,6.66464132,16.4166776,6.62360215Q16.478096999999998,6.58256298,16.530329899999998,6.53033006Q16.5825629,6.47809708,16.623601999999998,6.41667762Q16.6646411,6.35525817,16.6929095,6.28701252Q16.7211778,6.21876688,16.7355888,6.14631772Q16.7499999,6.073868543,16.75,6Q16.7499999,5.926131457,16.7355888,5.85368228Q16.7211777,5.78123312,16.6929094,5.71298748Q16.6646411,5.64474183,16.623601999999998,5.58332238Q16.5825629,5.52190292,16.530329899999998,5.46966994Q16.478096999999998,5.41743702,16.4166775,5.37639785Q16.355258,5.33535868,16.2870125,5.3070904Q16.2187668,5.27882212,16.1463177,5.26441109Q16.0738685,5.25,16,5.25L15,5.25Z" fill-rule="evenodd" fill="#3B82F6" fill-opacity="1"/></g></g></svg>