<svg xmlns="http://www.w3.org/2000/svg" xmlns:xlink="http://www.w3.org/1999/xlink" fill="none" version="1.1" width="24" height="24" viewBox="0 0 24 24"><defs><clipPath id="master_svg0_5772_08561"><rect x="0" y="0" width="24" height="24" rx="0"/></clipPath></defs><g clip-path="url(#master_svg0_5772_08561)"><g></g><g><path d="M10.25,5.5L10.25,12Q10.25,12.07387,10.26441,12.14632Q10.27882,12.21877,10.30709,12.28701Q10.33536,12.35526,10.3764,12.41668Q10.41744,12.4781,10.46967,12.53033Q10.5219,12.58256,10.58332,12.6236Q10.64474,12.66464,10.71299,12.69291Q10.78123,12.72118,10.85368,12.73559Q10.92613,12.75,11,12.75Q11.07387,12.75,11.14632,12.73559Q11.21877,12.72118,11.28701,12.69291Q11.35526,12.66464,11.41668,12.6236Q11.4781,12.58256,11.53033,12.53033Q11.58256,12.4781,11.6236,12.41668Q11.66464,12.35526,11.69291,12.28701Q11.72118,12.21877,11.73559,12.14632Q11.75,12.07387,11.75,12L11.75,5.5Q11.75,4.56802,11.09099,3.9090098Q10.43198,3.25,9.5,3.25Q8.568019,3.25,7.9090097,3.9090097Q7.25,4.568019,7.25,5.5L7.25,13Q7.25,13.07387,7.264411,13.14632Q7.278822,13.21877,7.30709,13.28701Q7.335359,13.35526,7.376398,13.41668Q7.417437,13.4781,7.46967,13.53033Q7.521903,13.58256,7.583322,13.6236Q7.644742,13.66464,7.712987,13.69291Q7.781233,13.72118,7.853682,13.73559Q7.9261315,13.75,8,13.75Q8.0738685,13.75,8.146318,13.73559Q8.218767,13.72118,8.287013,13.69291Q8.355258,13.66464,8.416678,13.6236Q8.478097,13.58256,8.53033,13.53033Q8.582563,13.4781,8.623602,13.41668Q8.664641,13.35526,8.69291,13.28701Q8.721178,13.21877,8.735589000000001,13.14632Q8.75,13.07387,8.75,13L8.75,5.5Q8.75,5.18934,8.96967,4.96967Q9.18934,4.75,9.5,4.75Q9.81066,4.75,10.03033,4.96967Q10.25,5.18934,10.25,5.5Z" fill-rule="evenodd" fill="#000000" fill-opacity="1" style="mix-blend-mode:passthrough"/></g><g><path d="M13.25,3.500000238418579L13.25,12.000000238418579Q13.25,12.07390023841858,13.26441,12.14630023841858Q13.27882,12.218800238418579,13.30709,12.28700023841858Q13.33536,12.355300238418579,13.3764,12.41670023841858Q13.41744,12.478100238418579,13.46967,12.53030023841858Q13.5219,12.582600238418578,13.58332,12.623600238418579Q13.64474,12.66460023841858,13.71299,12.692900238418579Q13.78123,12.721200238418579,13.85368,12.735600238418579Q13.92613,12.750000238418579,14,12.750000238418579Q14.07387,12.750000238418579,14.14632,12.735600238418579Q14.21877,12.721200238418579,14.28701,12.692900238418579Q14.35526,12.66460023841858,14.41668,12.623600238418579Q14.4781,12.582600238418578,14.53033,12.53030023841858Q14.58256,12.478100238418579,14.6236,12.41670023841858Q14.66464,12.355300238418579,14.69291,12.28700023841858Q14.72118,12.218800238418579,14.73559,12.14630023841858Q14.75,12.07390023841858,14.75,12.000000238418579L14.75,11.999400238418579L14.75,3.500000238418579Q14.75,2.568020238418579,14.09099,1.9090101384185791Q13.43198,1.250000238418579,12.5,1.250000238418579Q11.56802,1.250000238418579,10.9090108,1.909009638418579Q10.250001,2.568019238418579,10.25,3.500000238418579L10.25,5.499700238418579L10.25,5.500000238418579Q10.25,5.5738702384185785,10.264410999999999,5.646320238418578Q10.278822,5.718770238418579,10.30709,5.7870102384185795Q10.335359,5.855260238418579,10.376398,5.916680238418579Q10.417437,5.978100238418579,10.46967,6.030330238418579Q10.521903,6.082560238418579,10.583322,6.123600238418579Q10.644742,6.164640238418579,10.712987,6.1929102384185795Q10.781233,6.2211802384185795,10.853682,6.235590238418579Q10.9261315,6.250000238418579,11,6.250000238418579Q11.0738685,6.250000238418579,11.146318,6.235590238418579Q11.218767,6.2211802384185795,11.287013,6.1929102384185795Q11.355258,6.164640238418579,11.416678,6.123600238418579Q11.478097,6.082560238418579,11.53033,6.030330238418579Q11.582563,5.978100238418579,11.623602,5.916680238418579Q11.664641,5.855260238418579,11.69291,5.7870102384185795Q11.721178,5.718770238418579,11.735589000000001,5.646320238418578Q11.75,5.5738702384185785,11.75,5.500000238418579L11.75,5.499700238418579L11.75,3.500000238418579Q11.750001,3.189340238418579,11.969671,2.969670238418579Q12.18934,2.750000238418579,12.5,2.750000238418579Q12.81066,2.750000238418579,13.03033,2.969670238418579Q13.25,3.189340238418579,13.25,3.500000238418579Z" fill-rule="evenodd" fill="#000000" fill-opacity="1" style="mix-blend-mode:passthrough"/></g><g><path d="M16.25,5.5L16.25,12Q16.25,12.07387,16.264409999999998,12.14632Q16.27882,12.21877,16.30709,12.28701Q16.33536,12.35526,16.3764,12.41668Q16.41744,12.4781,16.46967,12.53033Q16.5219,12.58256,16.58332,12.6236Q16.64474,12.66464,16.71299,12.69291Q16.78123,12.72118,16.85368,12.73559Q16.92613,12.75,17,12.75Q17.07387,12.75,17.14632,12.73559Q17.21877,12.72118,17.28701,12.69291Q17.35526,12.66464,17.41668,12.6236Q17.4781,12.58256,17.53033,12.53033Q17.58256,12.4781,17.6236,12.41668Q17.66464,12.35526,17.69291,12.28701Q17.72118,12.21877,17.735590000000002,12.14632Q17.75,12.07387,17.75,12L17.75,5.5Q17.75,4.56802,17.09099,3.9090101Q16.43198,3.25,15.5,3.25Q14.56802,3.25,13.9090107,3.9090095Q13.250001,4.568019,13.25,5.5Q13.25,5.57387,13.264410999999999,5.64632Q13.278822,5.71877,13.30709,5.78701Q13.335359,5.8552599999999995,13.376398,5.9166799999999995Q13.417437,5.9780999999999995,13.46967,6.03033Q13.521903,6.08256,13.583322,6.1236Q13.644742,6.16464,13.712987,6.1929099999999995Q13.781233,6.22118,13.853682,6.23559Q13.9261315,6.25,14,6.25Q14.0738685,6.25,14.146318,6.23559Q14.218767,6.22118,14.287013,6.1929099999999995Q14.355258,6.16464,14.416678,6.1236Q14.478097,6.08256,14.53033,6.03033Q14.582563,5.9780999999999995,14.623602,5.9166799999999995Q14.664641,5.8552599999999995,14.69291,5.78701Q14.721178,5.71877,14.735589000000001,5.64632Q14.75,5.57387,14.75,5.5Q14.75,5.18934,14.969671,4.96967Q15.18934,4.75,15.5,4.75Q15.81066,4.75,16.03033,4.96967Q16.25,5.18934,16.25,5.5Z" fill-rule="evenodd" fill="#000000" fill-opacity="1" style="mix-blend-mode:passthrough"/></g><g><path d="M5.999666917648316,12.06033L7.469666917648315,13.53033Q7.575156917648315,13.635819999999999,7.7129869176483155,13.692910000000001Q7.850816917648316,13.75,7.999996917648315,13.75Q8.073866917648315,13.75,8.146316917648315,13.73559Q8.218766917648315,13.72118,8.287006917648316,13.692910000000001Q8.355256917648315,13.66464,8.416676917648315,13.6236Q8.478096917648315,13.58256,8.530326917648315,13.53033Q8.582566917648315,13.478100000000001,8.623596917648316,13.41668Q8.664636917648316,13.355260000000001,8.692906917648315,13.28701Q8.721176917648314,13.21877,8.735586917648316,13.14632Q8.749996917648314,13.07387,8.749996917648314,13Q8.749996917648314,12.85081,8.692906917648315,12.71299Q8.635816917648317,12.57516,8.530326917648315,12.46967L7.060326917648315,10.99967Q5.615206917648315,9.5562,3.8641179176483154,10.60689Q3.0805779176483155,11.07665,2.8464209176483153,11.95998Q2.6122649176483153,12.8433,3.0603479176483153,13.63975Q5.8918769176483154,18.6729,6.3715569176483156,19.4093L6.499376917648315,19.6054L6.568806917648315,19.7113Q8.488496917648316,22.6263,11.913216917648315,22.745Q11.956456917648316,22.75,11.999996917648316,22.75L13.999976917648315,22.75Q16.795976917648318,22.75,18.772976917648315,20.773Q20.749976917648315,18.7959,20.749976917648315,16L20.749976917648315,7.5Q20.749976917648315,6.568019,20.090976917648316,5.9090098Q19.431976917648313,5.25,18.499976917648315,5.25Q17.567976917648316,5.25,16.908976917648317,5.9090096Q16.249976917648315,6.56802,16.249976917648315,7.5Q16.249976917648315,7.57387,16.264376917648313,7.64632Q16.278776917648315,7.71877,16.307076917648317,7.78701Q16.335376917648315,7.8552599999999995,16.376376917648315,7.9166799999999995Q16.417476917648315,7.9780999999999995,16.469676917648314,8.03033Q16.521876917648314,8.08256,16.583276917648316,8.1236Q16.644776917648315,8.16464,16.712976917648316,8.19291Q16.781276917648313,8.22118,16.853676917648315,8.23559Q16.926176917648313,8.25,16.999976917648315,8.25Q17.073876917648313,8.25,17.146276917648315,8.23559Q17.218776917648313,8.22118,17.286976917648317,8.19291Q17.355276917648315,8.16464,17.416676917648317,8.1236Q17.478076917648316,8.08256,17.530376917648315,8.03033Q17.582576917648318,7.9780999999999995,17.623576917648315,7.9166799999999995Q17.664676917648315,7.8552599999999995,17.692876917648313,7.78701Q17.721176917648314,7.71877,17.735576917648316,7.64632Q17.749976917648315,7.57387,17.749976917648315,7.5Q17.749976917648315,6.75,18.499976917648315,6.75Q19.249976917648315,6.75,19.249976917648315,7.5L19.249976917648315,16Q19.249976917648315,18.174599999999998,17.712276917648317,19.7123Q16.174576917648317,21.25,13.999976917648315,21.25L12.205586917648315,21.25Q9.377886917648315,21.249499999999998,7.823186917648315,18.8887L7.755856917648315,18.786099999999998L7.628446917648316,18.5907Q7.175326917648316,17.895,4.367651917648315,12.904250000000001Q4.009918917648315,12.2684,4.635876917648315,11.89311Q5.383286917648316,11.44465,5.999666917648316,12.06033Z" fill-rule="evenodd" fill="#000000" fill-opacity="1" style="mix-blend-mode:passthrough"/></g></g></svg>