<svg xmlns="http://www.w3.org/2000/svg" xmlns:xlink="http://www.w3.org/1999/xlink" fill="none" version="1.1" width="24" height="24" viewBox="0 0 24 24"><defs><clipPath id="master_svg0_5887_02693"><rect x="0" y="0" width="24" height="24" rx="0"/></clipPath></defs><g clip-path="url(#master_svg0_5887_02693)"><g></g><g><path d="M5,8.25L19,8.25Q19.073900000000002,8.25,19.1463,8.264410999999999Q19.2188,8.278822,19.287,8.30709Q19.3553,8.335359,19.4167,8.376398Q19.478099999999998,8.417437,19.5303,8.46967Q19.5826,8.521903,19.6236,8.583322Q19.6646,8.644742,19.6929,8.712987Q19.7212,8.781233,19.735599999999998,8.853682Q19.75,8.9261315,19.75,9Q19.75,9.0738685,19.735599999999998,9.146318Q19.7212,9.218767,19.6929,9.287013Q19.6646,9.355258,19.6236,9.416678Q19.5826,9.478097,19.5303,9.53033Q19.478099999999998,9.582563,19.4167,9.623602Q19.3553,9.664641,19.287,9.69291Q19.2188,9.721178,19.1463,9.735589000000001Q19.073900000000002,9.75,19,9.75L5,9.75Q4.9261315,9.75,4.853682,9.735589000000001Q4.781233,9.721178,4.712987,9.69291Q4.644742,9.664641,4.583322,9.623602Q4.521903,9.582563,4.46967,9.53033Q4.417437,9.478097,4.376398,9.416678Q4.335359,9.355258,4.30709,9.287013Q4.278822,9.218767,4.264411,9.146318Q4.25,9.0738685,4.25,9Q4.25,8.9261315,4.264411,8.853682Q4.278822,8.781233,4.30709,8.712987Q4.335359,8.644742,4.376398,8.583322Q4.417437,8.521903,4.46967,8.46967Q4.521903,8.417437,4.583322,8.376398Q4.644742,8.335359,4.712987,8.30709Q4.781233,8.278822,4.853682,8.264410999999999Q4.9261315,8.25,5,8.25Z" fill-rule="evenodd" fill="#000000" fill-opacity="1" style="mix-blend-mode:passthrough"/></g><g><path d="M5,14.25L19,14.25Q19.073900000000002,14.25,19.1463,14.264410999999999Q19.2188,14.278822,19.287,14.30709Q19.3553,14.335359,19.4167,14.376398Q19.478099999999998,14.417437,19.5303,14.46967Q19.5826,14.521903,19.6236,14.583322Q19.6646,14.644742,19.6929,14.712987Q19.7212,14.781233,19.735599999999998,14.853682Q19.75,14.9261315,19.75,15Q19.75,15.0738685,19.735599999999998,15.146318Q19.7212,15.218767,19.6929,15.287013Q19.6646,15.355258,19.6236,15.416678Q19.5826,15.478097,19.5303,15.53033Q19.478099999999998,15.582563,19.4167,15.623602Q19.3553,15.664641,19.287,15.69291Q19.2188,15.721178,19.1463,15.735589000000001Q19.073900000000002,15.75,19,15.75L5,15.75Q4.9261315,15.75,4.853682,15.735589000000001Q4.781233,15.721178,4.712987,15.69291Q4.644742,15.664641,4.583322,15.623602Q4.521903,15.582563,4.46967,15.53033Q4.417437,15.478097,4.376398,15.416678Q4.335359,15.355258,4.30709,15.287013Q4.278822,15.218767,4.264411,15.146318Q4.25,15.0738685,4.25,15Q4.25,14.9261315,4.264411,14.853682Q4.278822,14.781233,4.30709,14.712987Q4.335359,14.644742,4.376398,14.583322Q4.417437,14.521903,4.46967,14.46967Q4.521903,14.417437,4.583322,14.376398Q4.644742,14.335359,4.712987,14.30709Q4.781233,14.278822,4.853682,14.264410999999999Q4.9261315,14.25,5,14.25Z" fill-rule="evenodd" fill="#000000" fill-opacity="1" style="mix-blend-mode:passthrough"/></g><g><path d="M11.72761,4.181902Q11.75,4.0923292,11.75,4Q11.75,3.9261315,11.73559,3.853682Q11.72118,3.781233,11.692910000000001,3.712987Q11.66464,3.644742,11.6236,3.583322Q11.58256,3.521903,11.53033,3.46967Q11.478100000000001,3.417437,11.41668,3.376398Q11.355260000000001,3.335359,11.28701,3.30709Q11.21877,3.278822,11.14632,3.264411Q11.07387,3.25,11,3.25Q10.93771,3.25,10.87627,3.260276Q10.81484,3.270552,10.755939999999999,3.290822Q10.69704,3.311093,10.64229,3.340802Q10.58754,3.3705119999999997,10.53844,3.408846Q10.48934,3.44718,10.44724,3.493089Q10.40514,3.538997,10.37119,3.591222Q10.33724,3.643447,10.31237,3.700558Q10.2875,3.757668,10.27239,3.818098L10.2723,3.818468L6.272393,19.8181Q6.25,19.9077,6.25,20Q6.25,20.0739,6.264411,20.1463Q6.278822,20.2188,6.30709,20.287Q6.335359,20.3553,6.376398,20.4167Q6.417437,20.4781,6.46967,20.5303Q6.521903,20.5826,6.583322,20.6236Q6.644742,20.6646,6.712987,20.6929Q6.781233,20.7212,6.853682,20.7356Q6.9261315,20.75,7,20.75Q7.0622903,20.75,7.123727,20.7397Q7.185164,20.7295,7.244064,20.7092Q7.302964,20.6889,7.357713,20.6592Q7.412461,20.6295,7.461559,20.5912Q7.510657,20.5528,7.552758,20.5069Q7.594858,20.461,7.628809,20.4088Q7.662759,20.3566,7.687629,20.2994Q7.712499,20.2423,7.727607,20.1819L11.727509999999999,4.182272L11.72761,4.181902L11.72761,4.181902Z" fill-rule="evenodd" fill="#000000" fill-opacity="1" style="mix-blend-mode:passthrough"/></g><g><path d="M17.72761,4.181902Q17.75,4.0923292,17.75,4Q17.75,3.9261315,17.735590000000002,3.853682Q17.72118,3.781233,17.69291,3.712987Q17.66464,3.644742,17.6236,3.583322Q17.58256,3.521903,17.53033,3.46967Q17.4781,3.417437,17.41668,3.376398Q17.35526,3.335359,17.287010000000002,3.30709Q17.21877,3.278822,17.14632,3.264411Q17.07387,3.25,17,3.25Q16.93771,3.25,16.876269999999998,3.260276Q16.81484,3.270552,16.75594,3.290822Q16.69704,3.311093,16.64229,3.340802Q16.58754,3.3705119999999997,16.53844,3.408846Q16.48934,3.44718,16.44724,3.493089Q16.40514,3.538997,16.37119,3.591222Q16.33724,3.643447,16.31237,3.700558Q16.2875,3.757668,16.27239,3.818098L16.2723,3.818468L12.272393,19.8181Q12.25,19.9077,12.25,20Q12.25,20.0739,12.264410999999999,20.1463Q12.278822,20.2188,12.30709,20.287Q12.335359,20.3553,12.376398,20.4167Q12.417437,20.4781,12.46967,20.5303Q12.521903,20.5826,12.583322,20.6236Q12.644742,20.6646,12.712987,20.6929Q12.781233,20.7212,12.853682,20.7356Q12.9261315,20.75,13,20.75Q13.0622903,20.75,13.123727,20.7397Q13.185164,20.7295,13.244064,20.7092Q13.302964,20.6889,13.357713,20.6592Q13.412461,20.6295,13.461559,20.5912Q13.510657,20.5528,13.552758,20.5069Q13.594858,20.461,13.628809,20.4088Q13.662759,20.3566,13.687629,20.2994Q13.712499,20.2423,13.727607,20.1819L17.72751,4.182272L17.72761,4.181902L17.72761,4.181902Z" fill-rule="evenodd" fill="#000000" fill-opacity="1" style="mix-blend-mode:passthrough"/></g></g></svg>