<svg xmlns="http://www.w3.org/2000/svg" xmlns:xlink="http://www.w3.org/1999/xlink" fill="none" version="1.1" width="24" height="24" viewBox="0 0 24 24"><defs><clipPath id="master_svg0_6029_02707"><rect x="0" y="0" width="24" height="24" rx="0"/></clipPath></defs><g clip-path="url(#master_svg0_6029_02707)"><g><path d="M18.89549952316284,5.103793405914306Q16.039599523162842,2.246894405914307,11.999999523162842,2.2468934059143066Q7.9604295231628415,2.2468934059143066,5.104519523162842,5.103793405914306Q2.248605523162842,7.960693405914307,2.250000523162842,12.000263405914307Q2.248605523162842,16.039293405914307,5.104519523162842,18.896193405914307Q7.9604295231628415,21.753093405914306,11.999999523162842,21.753093405914306Q16.039599523162842,21.753093405914306,18.89549952316284,18.896193405914307Q21.751399523162842,16.039293405914307,21.749999523162842,11.999743405914307Q21.751399523162842,7.960703405914306,18.89549952316284,5.103793405914306ZM6.1653595231628415,6.164273405914306Q8.581909523162842,3.7468934059143066,11.999999523162842,3.7468934059143066Q15.418099523162843,3.7468934059143066,17.834599523162844,6.164273405914306Q20.251199523162843,8.581643405914306,20.249999523162842,12.000263405914307Q20.251199523162843,15.418393405914307,17.834599523162844,17.835693405914306Q15.418099523162843,20.253093405914306,11.999999523162842,20.253093405914306Q8.581909523162842,20.253093405914306,6.1653595231628415,17.835693405914306Q3.748819523162842,15.418393405914307,3.750000523162842,11.999743405914307Q3.748819523162842,8.581643405914306,6.1653595231628415,6.164273405914306Z" fill-rule="evenodd" fill="#000000" fill-opacity="1" style="mix-blend-mode:passthrough"/></g><g><path d="M9.402615,7.546534271331787L9.402505,7.546679271331787Q9.328296,7.644489271331787,9.289148,7.760856271331787Q9.25,7.877224271331787,9.25,8.000003271331787Q9.25,8.073873271331788,9.264410999999999,8.146313271331787Q9.278822,8.218763271331786,9.30709,8.287013271331787Q9.335359,8.355253271331787,9.376398,8.416673271331787Q9.417437,8.478093271331787,9.46967,8.530333271331788Q9.521903,8.582563271331788,9.583322,8.623603271331787Q9.644742,8.664643271331787,9.712987,8.692913271331786Q9.781233,8.721173271331788,9.853682,8.735593271331787Q9.9261315,8.750003271331787,10,8.750003271331787Q10.0867983,8.750003271331787,10.171302,8.730173271331786Q10.255806,8.710353271331787,10.333548,8.671743271331787Q10.411291,8.633143271331788,10.478161,8.577803271331787Q10.545031,8.522473271331787,10.597495,8.453323271331787Q11.15465,7.718964271331787,12.07645,7.721520271331787Q12.99824,7.724077271331787,13.55132,8.461513271331787Q14.10439,9.198953271331787,13.848749999999999,10.084583271331788Q13.59429,10.966103271331788,12.74011,11.296393271331787Q12.03904,11.546643271331787,11.62548,12.166983271331787Q11.20882,12.791983271331787,11.25117,13.541883271331788L11.25119,13.542143271331788L11.2512,13.542463271331787Q11.255230000000001,13.613543271331787,11.27257,13.682593271331786Q11.2899,13.751633271331787,11.31991,13.816183271331788Q11.349920000000001,13.880743271331788,11.391539999999999,13.938493271331787Q11.43316,13.996243271331787,11.4849,14.045133271331787Q11.53665,14.094033271331787,11.59666,14.132313271331787Q11.65668,14.170593271331787,11.72283,14.196903271331788Q11.78898,14.223213271331787,11.8589,14.236603271331788Q11.92881,14.250003271331787,12,14.250003271331787Q12.07387,14.250003271331787,12.14632,14.235593271331787Q12.21877,14.221173271331788,12.28701,14.192913271331786Q12.35526,14.164643271331787,12.41668,14.123603271331788Q12.4781,14.082563271331786,12.53033,14.030333271331788Q12.58256,13.978093271331787,12.6236,13.916673271331787Q12.66464,13.855253271331787,12.69291,13.787013271331787Q12.72118,13.718763271331788,12.73559,13.646313271331788Q12.75,13.573873271331788,12.75,13.500003271331787Q12.75,13.478753271331787,12.7488,13.457533271331787Q12.71687,12.894573271331787,13.2488,12.707533271331787Q13.25839,12.704153271331787,13.26789,12.700523271331786Q14.826979999999999,12.104313271331787,15.2899,10.500593271331788Q15.75283,8.896873271331787,14.75132,7.561514271331787Q13.7498,6.226156271331787,12.08061,6.221526271331787Q10.411657,6.216897271331787,9.402798,7.546293271331787L9.402615,7.546534271331787Z" fill-rule="evenodd" fill="#000000" fill-opacity="1" style="mix-blend-mode:passthrough"/></g><g><ellipse cx="12.0048828125" cy="17" rx="0.75" ry="0.75" fill="#000000" fill-opacity="1"/></g></g></svg>