<svg xmlns="http://www.w3.org/2000/svg" xmlns:xlink="http://www.w3.org/1999/xlink" fill="none" version="1.1" width="24" height="24" viewBox="0 0 24 24"><defs><clipPath id="master_svg0_5983_02695"><rect x="0" y="0" width="24" height="24" rx="0"/></clipPath></defs><g clip-path="url(#master_svg0_5983_02695)"><g><path d="M12.706953226280213,2.293000099884033L21.706953226280213,11.293004099884033C22.33695322628021,11.923004099884034,21.890953226280214,13.000014099884034,20.999953226280212,13.000014099884034L19.999953226280212,13.000014099884034L19.999953226280212,19.000014099884034C19.999953226280212,20.656814099884034,18.656853226280212,22.000014099884034,16.999953226280212,22.000014099884034L15.999953226280212,22.000014099884034L15.999953226280212,15.000014099884034C16.00005322628021,13.411414099884032,14.761853226280213,12.098214099884034,13.175953226280212,12.005014099884033L12.999953226280212,12.000004099884034L11.000003226280212,12.000004099884034C9.343143226280212,12.000004099884034,8.000003226280214,13.343114099884033,8.000003226280214,15.000014099884034L8.000003226280214,22.000014099884034L7.000003226280213,22.000014099884034C5.343143226280212,22.000014099884034,4.000003226280212,20.656814099884034,4.000003226280212,19.000014099884034L4.000003226280212,13.000014099884034L3.0000032262802123,13.000014099884034C2.1100012262802124,13.000014099884034,1.6630012262802123,11.923004099884034,2.2930012262802126,11.293004099884033L11.293003226280213,2.293000099884033C11.683503226280212,1.9026185998840333,12.316453226280212,1.9026185998840333,12.706953226280213,2.293000099884033ZM12.999953226280212,14.000014099884034C13.552253226280213,14.000014099884034,13.999953226280212,14.447714099884033,13.999953226280212,15.000014099884034L13.999953226280212,22.000014099884034L10.000003226280212,22.000014099884034L10.000003226280212,15.000014099884034C10.000063226280213,14.493014099884034,10.379513226280212,14.066314099884034,10.883003226280213,14.007014099884033L11.000003226280212,14.000014099884034L12.999953226280212,14.000014099884034Z" fill="#000000" fill-opacity="1" style="mix-blend-mode:passthrough"/></g></g></svg>