<svg xmlns="http://www.w3.org/2000/svg" xmlns:xlink="http://www.w3.org/1999/xlink" fill="none" version="1.1" width="24" height="24" viewBox="0 0 24 24"><defs><clipPath id="master_svg0_5983_02688"><rect x="0" y="0" width="24" height="24" rx="0"/></clipPath></defs><g clip-path="url(#master_svg0_5983_02688)"><g><path d="M19.1893,11.25L19,11.25Q18.926099999999998,11.25,18.8537,11.26441Q18.7812,11.27882,18.713,11.30709Q18.6447,11.33536,18.5833,11.3764Q18.521900000000002,11.41744,18.4697,11.46967Q18.4174,11.5219,18.3764,11.58332Q18.3354,11.64474,18.3071,11.71299Q18.2788,11.78123,18.264400000000002,11.85368Q18.25,11.92613,18.25,12Q18.25,12.07387,18.264400000000002,12.14632Q18.2788,12.21877,18.3071,12.28701Q18.3354,12.35526,18.3764,12.41668Q18.4174,12.4781,18.4697,12.53033Q18.521900000000002,12.58256,18.5833,12.6236Q18.6447,12.66464,18.713,12.69291Q18.7812,12.72118,18.8537,12.73559Q18.926099999999998,12.75,19,12.75L21,12.75Q21.0739,12.75,21.1463,12.73559Q21.2188,12.72118,21.287,12.69291Q21.3553,12.66464,21.4167,12.6236Q21.4781,12.58256,21.5303,12.53033Q21.5826,12.4781,21.6236,12.41668Q21.6646,12.35526,21.6929,12.28701Q21.7212,12.21877,21.7356,12.14632Q21.75,12.07387,21.75,12Q21.75,11.85082,21.6929,11.71299Q21.6358,11.57516,21.5303,11.46967L12.53033,2.46967Q12.42484,2.364181,12.28701,2.30709Q12.14919,2.25,12,2.25Q11.85082,2.25,11.71299,2.30709Q11.57516,2.364181,11.46967,2.46967L2.46967,11.46967Q2.364181,11.57516,2.30709,11.71299Q2.25,11.85082,2.25,12Q2.25,12.14919,2.30709,12.28701Q2.364181,12.42484,2.46967,12.53033Q2.575159,12.63582,2.712987,12.69291Q2.850816,12.75,3,12.75L5,12.75Q5.073869999999999,12.75,5.146319999999999,12.73559Q5.21877,12.72118,5.28701,12.69291Q5.3552599999999995,12.66464,5.4166799999999995,12.6236Q5.4780999999999995,12.58256,5.53033,12.53033Q5.58256,12.4781,5.6236,12.41668Q5.66464,12.35526,5.6929099999999995,12.28701Q5.72118,12.21877,5.73559,12.14632Q5.75,12.07387,5.75,12Q5.75,11.92613,5.73559,11.85368Q5.72118,11.78123,5.6929099999999995,11.71299Q5.66464,11.64474,5.6236,11.58332Q5.58256,11.5219,5.53033,11.46967Q5.4780999999999995,11.41744,5.4166799999999995,11.3764Q5.3552599999999995,11.33536,5.28701,11.30709Q5.21877,11.27882,5.146319999999999,11.26441Q5.073869999999999,11.25,5,11.25L4.81066,11.25L12,4.06066L19.1893,11.25Z" fill-rule="evenodd" fill="#000000" fill-opacity="1" style="mix-blend-mode:passthrough"/></g><g><path d="M4.25,12Q4.25,11.9261315,4.264411,11.853682Q4.278822,11.781233,4.30709,11.712987Q4.335359,11.644742,4.376398,11.583322Q4.417437,11.521903,4.46967,11.46967Q4.521903,11.417437,4.583322,11.376398Q4.644742,11.335359,4.712987,11.30709Q4.781233,11.278822,4.853682,11.264410999999999Q4.9261315,11.25,5,11.25Q5.0738685,11.25,5.146318,11.264410999999999Q5.218767,11.278822,5.287013,11.30709Q5.355258,11.335359,5.416678,11.376398Q5.478097,11.417437,5.53033,11.46967Q5.582563,11.521903,5.623602,11.583322Q5.664641,11.644742,5.69291,11.712987Q5.721178,11.781233,5.735589,11.853682Q5.75,11.9261315,5.75,12L5.75,19Q5.75,19.51777,6.1161200000000004,19.88388Q6.4822299999999995,20.25,7,20.25L17,20.25Q17.5178,20.25,17.8839,19.88388Q18.25,19.51777,18.25,19L18.25,12Q18.25,11.9261315,18.264400000000002,11.853682Q18.2788,11.781233,18.3071,11.712987Q18.3354,11.644742,18.3764,11.583322Q18.4174,11.521903,18.4697,11.46967Q18.521900000000002,11.417437,18.5833,11.376398Q18.6447,11.335359,18.713,11.30709Q18.7812,11.278822,18.8537,11.264410999999999Q18.926099999999998,11.25,19,11.25Q19.073900000000002,11.25,19.1463,11.264410999999999Q19.2188,11.278822,19.287,11.30709Q19.3553,11.335359,19.4167,11.376398Q19.478099999999998,11.417437,19.5303,11.46967Q19.5826,11.521903,19.6236,11.583322Q19.6646,11.644742,19.6929,11.712987Q19.7212,11.781233,19.735599999999998,11.853682Q19.75,11.9261315,19.75,12L19.75,19Q19.75,20.13909,18.944499999999998,20.94454Q18.1391,21.75,17,21.75L7,21.75Q5.860913,21.75,5.0554564,20.94454Q4.25,20.13909,4.25,19L4.25,12Z" fill-rule="evenodd" fill="#000000" fill-opacity="1" style="mix-blend-mode:passthrough"/></g><g><path d="M14.25,15L14.25,21Q14.25,21.07387,14.26441,21.14632Q14.27882,21.21877,14.307089999999999,21.287010000000002Q14.33536,21.35526,14.3764,21.41668Q14.41744,21.478099999999998,14.46967,21.53033Q14.521899999999999,21.58256,14.58332,21.6236Q14.644739999999999,21.66464,14.71299,21.692909999999998Q14.78123,21.72118,14.85368,21.735590000000002Q14.92613,21.75,15,21.75Q15.07387,21.75,15.14632,21.735590000000002Q15.21877,21.72118,15.28701,21.692909999999998Q15.355260000000001,21.66464,15.41668,21.6236Q15.478100000000001,21.58256,15.53033,21.53033Q15.58256,21.478099999999998,15.6236,21.41668Q15.66464,21.35526,15.692910000000001,21.287010000000002Q15.72118,21.21877,15.73559,21.14632Q15.75,21.07387,15.75,21L15.75,15Q15.75,13.860913,14.94454,13.0554565Q14.13909,12.25,13,12.25L11,12.25Q9.860913,12.25,9.0554564,13.0554564Q8.25,13.860913,8.25,15L8.25,21Q8.25,21.07387,8.264410999999999,21.14632Q8.278822,21.21877,8.30709,21.287010000000002Q8.335359,21.35526,8.376398,21.41668Q8.417437,21.478099999999998,8.46967,21.53033Q8.521903,21.58256,8.583322,21.6236Q8.644742,21.66464,8.712987,21.692909999999998Q8.781233,21.72118,8.853682,21.735590000000002Q8.9261315,21.75,9,21.75Q9.0738685,21.75,9.146318,21.735590000000002Q9.218767,21.72118,9.287013,21.692909999999998Q9.355258,21.66464,9.416678,21.6236Q9.478097,21.58256,9.53033,21.53033Q9.582563,21.478099999999998,9.623602,21.41668Q9.664641,21.35526,9.69291,21.287010000000002Q9.721178,21.21877,9.735589000000001,21.14632Q9.75,21.07387,9.75,21L9.75,15Q9.75,14.48223,10.11612,14.11612Q10.48223,13.75,11,13.75L13,13.75Q13.517769999999999,13.75,13.883880000000001,14.11612Q14.25,14.48223,14.25,15Z" fill-rule="evenodd" fill="#000000" fill-opacity="1" style="mix-blend-mode:passthrough"/></g></g></svg>