<svg xmlns="http://www.w3.org/2000/svg" xmlns:xlink="http://www.w3.org/1999/xlink" fill="none" version="1.1" width="32" height="32" viewBox="0 0 32 32"><defs><clipPath id="master_svg0_5881_02882"><rect x="0" y="0" width="32" height="32" rx="0"/></clipPath><filter id="master_svg1_5881_02888" filterUnits="objectBoundingBox" color-interpolation-filters="sRGB" x="0" y="0" width="1" height="1"><feFlood flood-opacity="0" result="BackgroundImageFix"/><feBlend mode="normal" in="SourceGraphic" in2="BackgroundImageFix" result="shape"/><feColorMatrix in="SourceAlpha" type="matrix" result="hardAlpha" values="0 0 0 0 0 0 0 0 0 0 0 0 0 0 0 0 0 0 127 0"/><feOffset dy="-2" dx="0"/><feGaussianBlur stdDeviation="2"/><feComposite in2="hardAlpha" operator="arithmetic" k2="-1" k3="1"/><feColorMatrix type="matrix" values="0 0 0 0 1 0 0 0 0 1 0 0 0 0 1 0 0 0 0.20000000298023224 0"/><feBlend mode="normal" in2="shape" result="effect1_innerShadow"/></filter><linearGradient x1="0.699999988079071" y1="0.2416505068540573" x2="0.699999988079071" y2="1.1921600103378296" id="master_svg2_5881_02955"><stop offset="0%" stop-color="#FFFFFF" stop-opacity="1"/><stop offset="40.104201436042786%" stop-color="#FFFFFF" stop-opacity="0.8500000238418579"/><stop offset="100%" stop-color="#FFFFFF" stop-opacity="0.5"/></linearGradient></defs><g clip-path="url(#master_svg0_5881_02882)"><g></g><g filter="url(#master_svg1_5881_02888)"><g transform="matrix(0.916670024394989,0,0,0.916670024394989,0.5728956882303748,0.5728956882303748)"><path d="M7.875025272369385,6.875025272369385L25.875025272369385,6.875025272369385C26.427325272369384,6.875025272369385,26.875025272369385,7.322740272369384,26.875025272369385,7.875025272369385L26.875025272369385,14.875025272369385C26.875025272369385,15.427315272369384,26.427325272369384,15.875025272369385,25.875025272369385,15.875025272369385L7.875025272369385,15.875025272369385C7.322740272369384,15.875025272369385,6.875025272369385,15.427315272369384,6.875025272369385,14.875025272369385L6.875025272369385,7.875025272369385C6.875025272369385,7.322740272369384,7.322740272369384,6.875025272369385,7.875025272369385,6.875025272369385ZM7.875025272369385,17.875025272369385L17.875025272369385,17.875025272369385C18.427325272369387,17.875025272369385,18.875025272369385,18.322725272369382,18.875025272369385,18.875025272369385L18.875025272369385,25.875025272369385C18.875025272369385,26.427325272369384,18.427325272369387,26.875025272369385,17.875025272369385,26.875025272369385L7.875025272369385,26.875025272369385C7.322740272369384,26.875025272369385,6.875025272369385,26.427325272369384,6.875025272369385,25.875025272369385L6.875025272369385,18.875025272369385C6.875025272369385,18.322725272369382,7.322740272369384,17.875025272369385,7.875025272369385,17.875025272369385ZM21.875025272369385,17.875025272369385L25.875025272369385,17.875025272369385C26.427325272369384,17.875025272369385,26.875025272369385,18.322725272369382,26.875025272369385,18.875025272369385L26.875025272369385,25.875025272369385C26.875025272369385,26.427325272369384,26.427325272369384,26.875025272369385,25.875025272369385,26.875025272369385L21.875025272369385,26.875025272369385C21.322725272369382,26.875025272369385,20.875025272369385,26.427325272369384,20.875025272369385,25.875025272369385L20.875025272369385,18.875025272369385C20.875025272369385,18.322725272369382,21.322725272369382,17.875025272369385,21.875025272369385,17.875025272369385Z" fill="url(#master_svg2_5881_02955)" fill-opacity="1" style="mix-blend-mode:passthrough"/></g></g></g></svg>