<svg xmlns="http://www.w3.org/2000/svg" xmlns:xlink="http://www.w3.org/1999/xlink" fill="none" version="1.1" width="24" height="24" viewBox="0 0 24 24"><defs><clipPath id="master_svg0_5518_09556"><rect x="0" y="0" width="24" height="24" rx="0"/></clipPath><clipPath id="master_svg1_5518_09570"><rect x="2" y="2" width="20" height="20" rx="0"/></clipPath></defs><g clip-path="url(#master_svg0_5518_09556)"><g clip-path="url(#master_svg1_5518_09570)"><g><g><g><path d="M17.858373999595642,9.708251929283142C17.858373999595642,9.376880929283143,18.127002999595643,9.108251929283142,18.458373999595644,9.108251929283142C18.78974499959564,9.108251929283142,19.05837399959564,9.376880929283143,19.05837399959564,9.708251929283142L19.05837399959564,17.208251929283144C19.05837399959564,17.539621929283143,18.78974499959564,17.80825192928314,18.458373999595644,17.80825192928314C18.127002999595643,17.80825192928314,17.858373999595642,17.539621929283143,17.858373999595642,17.208251929283144L17.858373999595642,9.708251929283142Z" fill-rule="evenodd" fill="#38363C" fill-opacity="1" style="mix-blend-mode:passthrough"/></g><g><path d="M5.358373999595642,9.708251929283142C5.358373999595642,9.376880929283143,5.627002999595642,9.108251929283142,5.958373999595642,9.108251929283142C6.2897449995956425,9.108251929283142,6.558373999595642,9.376880929283143,6.558373999595642,9.708251929283142L6.558373999595642,17.208251929283144C6.558373999595642,17.539621929283143,6.2897449995956425,17.80825192928314,5.958373999595642,17.80825192928314C5.627002999595642,17.80825192928314,5.358373999595642,17.539621929283143,5.358373999595642,17.208251929283144L5.358373999595642,9.708251929283142Z" fill-rule="evenodd" fill="#38363C" fill-opacity="1" style="mix-blend-mode:passthrough"/></g><g><path d="M9.524999976158142,9.708251929283142C9.524999976158142,9.376880929283143,9.793628976158143,9.108251929283142,10.124999976158142,9.108251929283142C10.456370976158142,9.108251929283142,10.724999976158141,9.376880929283143,10.724999976158141,9.708251929283142L10.724999976158141,17.208251929283144C10.724999976158141,17.539621929283143,10.456370976158142,17.80825192928314,10.124999976158142,17.80825192928314C9.793628976158143,17.80825192928314,9.524999976158142,17.539621929283143,9.524999976158142,17.208251929283144L9.524999976158142,9.708251929283142Z" fill-rule="evenodd" fill="#38363C" fill-opacity="1" style="mix-blend-mode:passthrough"/></g><g><path d="M13.691625952720642,9.708251929283142C13.691625952720642,9.376880929283143,13.960254952720643,9.108251929283142,14.291625952720642,9.108251929283142C14.622996952720642,9.108251929283142,14.891625952720641,9.376880929283143,14.891625952720641,9.708251929283142L14.891625952720641,17.208251929283144C14.891625952720641,17.539621929283143,14.622996952720642,17.80825192928314,14.291625952720642,17.80825192928314C13.960254952720643,17.80825192928314,13.691625952720642,17.539621929283143,13.691625952720642,17.208251929283144L13.691625952720642,9.708251929283142Z" fill-rule="evenodd" fill="#38363C" fill-opacity="1" style="mix-blend-mode:passthrough"/></g><g><path d="M20.79199997615814,6.7387319292831425C21.005099976158142,6.836551929283142,21.141699976158144,7.0495419292831425,21.141699976158144,7.2840119292831425L21.141699976158144,9.708251929283142C21.141699976158144,10.039621929283143,20.87299997615814,10.308251929283141,20.541699976158142,10.308251929283141L3.874999976158142,10.308251929283141C3.543628976158142,10.308251929283141,3.274999976158142,10.039621929283143,3.274999976158142,9.708251929283142L3.274999976158142,7.2840119292831425C3.274999976158142,7.0495419292831425,3.4115789761581423,6.836551929283142,3.624665976158142,6.7387319292831425L11.957999976158142,2.912969629283142C12.116919976158142,2.840012729283142,12.299749976158141,2.840012729283142,12.458669976158141,2.912969629283142L20.79199997615814,6.7387319292831425ZM12.208329976158142,4.118461929283142L19.94169997615814,7.668761929283142L19.94169997615814,9.108251929283142L4.474999976158142,9.108251929283142L4.474999976158142,7.668761929283142L12.208329976158142,4.118461929283142Z" fill-rule="evenodd" fill="#38363C" fill-opacity="1" style="mix-blend-mode:passthrough"/></g><g><path d="M21.141699976158144,18.874921929283143L21.141699976158144,20.541581929283144C21.141699976158144,20.872951929283143,20.87299997615814,21.14158192928314,20.541699976158142,21.14158192928314L3.874999976158142,21.14158192928314C3.543628976158142,21.14158192928314,3.274999976158142,20.872951929283143,3.274999976158142,20.541581929283144L3.274999976158142,18.874921929283143Q3.274999976158142,17.936021929283143,3.938892976158142,17.272130929283144Q4.602779976158142,16.60825198888774,5.541669976158142,16.608251929283142L18.874999976158144,16.608251929283142Q19.813899976158144,16.608251869678543,20.477799976158142,17.272132929283142Q21.141699976158144,17.936011929283143,21.141699976158144,18.874921929283143ZM19.94169997615814,18.874921929283143Q19.94169997615814,18.43307192928314,19.62929997615814,18.12066192928314Q19.31679997615814,17.80825192928314,18.874999976158144,17.80825192928314L5.541669976158142,17.80825192928314Q5.0998299761581425,17.80825192928314,4.787419976158143,18.12066192928314Q4.474999976158142,18.43308192928314,4.474999976158142,18.874921929283143L4.474999976158142,19.941581929283142L19.94169997615814,19.941581929283142L19.94169997615814,18.874921929283143Z" fill-rule="evenodd" fill="#38363C" fill-opacity="1" style="mix-blend-mode:passthrough"/></g></g></g></g></g></svg>