<svg xmlns="http://www.w3.org/2000/svg" xmlns:xlink="http://www.w3.org/1999/xlink" fill="none" version="1.1" width="24" height="24" viewBox="0 0 24 24"><defs><clipPath id="master_svg0_5445_06705"><rect x="0" y="0" width="24" height="24" rx="0"/></clipPath><clipPath id="master_svg1_5445_06712"><rect x="0" y="0" width="24" height="24" rx="0"/></clipPath></defs><g clip-path="url(#master_svg0_5445_06705)"><g clip-path="url(#master_svg1_5445_06712)"></g><g><g><path d="M12,3Q11.77906,3,11.55839,3.0108409Q11.33772,3.0216818,11.11785,3.0433375Q10.89797,3.0649931,10.67943,3.0974114Q10.46088,3.12983,10.24419,3.172932Q10.02749,3.216035,9.81318,3.269719Q9.59886,3.323402,9.38744,3.387537Q9.17601,3.451672,8.96799,3.526103Q8.75997,3.600535,8.55585,3.685084Q8.35173,3.769633,8.152000000000001,3.864096Q7.95228,3.958559,7.75743,4.06271Q7.56258,4.16686,7.37308,4.2804400000000005Q7.18357,4.39403,6.99987,4.51677Q6.81616,4.63952,6.63871,4.77113Q6.46125,4.90274,6.2904599999999995,5.04291Q6.11967,5.18307,5.955970000000001,5.331440000000001Q5.79227,5.4798100000000005,5.6360399999999995,5.6360399999999995Q5.4798100000000005,5.79227,5.331440000000001,5.955970000000001Q5.18307,6.11967,5.04291,6.2904599999999995Q4.90274,6.46125,4.77113,6.63871Q4.63952,6.81616,4.51677,6.99987Q4.39403,7.18357,4.2804400000000005,7.37308Q4.16686,7.56258,4.06271,7.75743Q3.958559,7.95228,3.864096,8.152000000000001Q3.769633,8.35173,3.685084,8.55585Q3.600535,8.75997,3.526103,8.96799Q3.451672,9.17601,3.387537,9.38744Q3.323402,9.59886,3.269719,9.81318Q3.216035,10.02749,3.172932,10.24419Q3.12983,10.46088,3.0974114,10.67943Q3.0649931,10.89797,3.0433375,11.11785Q3.0216818,11.33772,3.0108409,11.55839Q3,11.77906,3,12Q3,12.22094,3.0108409,12.44161Q3.0216818,12.66228,3.0433375,12.88215Q3.0649931,13.102,3.0974114,13.3206Q3.12983,13.5391,3.172932,13.7558Q3.216035,13.9725,3.269719,14.1868Q3.323402,14.4011,3.387537,14.6126Q3.451672,14.824,3.526103,15.032Q3.600535,15.24,3.685084,15.4441Q3.769633,15.6483,3.864096,15.848Q3.958559,16.0477,4.06271,16.2426Q4.16686,16.4374,4.2804400000000005,16.6269Q4.39403,16.8164,4.51677,17.0001Q4.63952,17.183799999999998,4.77113,17.3613Q4.90274,17.538800000000002,5.04291,17.7095Q5.18307,17.8803,5.331440000000001,18.044Q5.4798100000000005,18.207700000000003,5.6360399999999995,18.364Q5.79227,18.520200000000003,5.955970000000001,18.668599999999998Q6.11967,18.8169,6.2904599999999995,18.9571Q6.46125,19.0973,6.63871,19.2289Q6.81616,19.3605,6.99987,19.4832Q7.18357,19.606,7.37308,19.7196Q7.56258,19.8331,7.75743,19.9373Q7.95228,20.0414,8.152000000000001,20.1359Q8.35173,20.2304,8.55585,20.3149Q8.75997,20.3995,8.96799,20.4739Q9.17601,20.5483,9.38744,20.6125Q9.59886,20.6766,9.81318,20.7303Q10.02749,20.784,10.24419,20.8271Q10.46088,20.8702,10.67943,20.9026Q10.89797,20.935,11.11785,20.9567Q11.33772,20.9783,11.55839,20.9892Q11.77906,21,12,21Q12.22094,21,12.44161,20.9892Q12.66228,20.9783,12.88215,20.9567Q13.102,20.935,13.3206,20.9026Q13.5391,20.8702,13.7558,20.8271Q13.9725,20.784,14.1868,20.7303Q14.4011,20.6766,14.6126,20.6125Q14.824,20.5483,15.032,20.4739Q15.24,20.3995,15.4441,20.3149Q15.6483,20.2304,15.848,20.1359Q16.0477,20.0414,16.2426,19.9373Q16.4374,19.8331,16.6269,19.7196Q16.8164,19.606,17.0001,19.4832Q17.183799999999998,19.3605,17.3613,19.2289Q17.538800000000002,19.0973,17.7095,18.9571Q17.8803,18.8169,18.044,18.668599999999998Q18.207700000000003,18.520200000000003,18.364,18.364Q18.520200000000003,18.207700000000003,18.668599999999998,18.044Q18.8169,17.8803,18.9571,17.7095Q19.0973,17.538800000000002,19.2289,17.3613Q19.3605,17.183799999999998,19.4832,17.0001Q19.606,16.8164,19.7196,16.6269Q19.8331,16.4374,19.9373,16.2426Q20.0414,16.0477,20.1359,15.848Q20.2304,15.6483,20.3149,15.4441Q20.3995,15.24,20.4739,15.032Q20.5483,14.824,20.6125,14.6126Q20.6766,14.4011,20.7303,14.1868Q20.784,13.9725,20.8271,13.7558Q20.8702,13.5391,20.9026,13.3206Q20.935,13.102,20.9567,12.88215Q20.9783,12.66228,20.9892,12.44161Q21,12.22094,21,12Q21,11.77906,20.9892,11.55839Q20.9783,11.33772,20.9567,11.11785Q20.935,10.89797,20.9026,10.67943Q20.8702,10.46088,20.8271,10.24419Q20.784,10.02749,20.7303,9.81318Q20.6766,9.59886,20.6125,9.38744Q20.5483,9.17601,20.4739,8.96799Q20.3995,8.75997,20.3149,8.55585Q20.2304,8.35173,20.1359,8.152000000000001Q20.0414,7.95228,19.9373,7.75743Q19.8331,7.56258,19.7196,7.37308Q19.606,7.18357,19.4832,6.99987Q19.3605,6.81616,19.2289,6.63871Q19.0973,6.46125,18.9571,6.2904599999999995Q18.8169,6.11967,18.668599999999998,5.955970000000001Q18.520200000000003,5.79227,18.364,5.6360399999999995Q18.207700000000003,5.4798100000000005,18.044,5.331440000000001Q17.8803,5.18307,17.7095,5.04291Q17.538800000000002,4.90274,17.3613,4.77113Q17.183799999999998,4.63952,17.0001,4.51677Q16.8164,4.39403,16.6269,4.2804400000000005Q16.4374,4.16686,16.2426,4.06271Q16.0477,3.958559,15.848,3.864096Q15.6483,3.769633,15.4441,3.685084Q15.24,3.600535,15.032,3.526103Q14.824,3.451672,14.6126,3.387537Q14.4011,3.323402,14.1868,3.269719Q13.9725,3.216035,13.7558,3.172932Q13.5391,3.12983,13.3206,3.0974114Q13.102,3.0649931,12.88215,3.0433375Q12.66228,3.0216818,12.44161,3.0108409Q12.22094,3,12,3ZM8.823550000000001,9.88231L8.823550000000001,14.1176Q8.823550000000001,14.1696,8.82865,14.2214Q8.833739999999999,14.2732,8.84389,14.3242Q8.854040000000001,14.3752,8.86914,14.425Q8.88424,14.4747,8.90415,14.5228Q8.924050000000001,14.5709,8.94857,14.6167Q8.97309,14.6626,9.00199,14.7059Q9.03089,14.7491,9.06389,14.7893Q9.09689,14.8295,9.13367,14.8663Q9.170449999999999,14.9031,9.21066,14.9361Q9.250869999999999,14.9691,9.29412,14.998Q9.33737,15.0269,9.38324,15.0514Q9.429120000000001,15.0759,9.47718,15.0958Q9.52523,15.1157,9.575009999999999,15.1308Q9.62479,15.1459,9.675799999999999,15.1561Q9.72682,15.1662,9.778590000000001,15.1713Q9.83035,15.1764,9.88237,15.1764L14.1177,15.1764Q14.1697,15.1764,14.2214,15.1713Q14.2732,15.1662,14.3242,15.1561Q14.3752,15.1459,14.425,15.1308Q14.4748,15.1157,14.5229,15.0958Q14.5709,15.0759,14.6168,15.0514Q14.6627,15.0269,14.7059,14.998Q14.7492,14.9691,14.7894,14.9361Q14.8296,14.9031,14.8664,14.8663Q14.9031,14.8295,14.9361,14.7893Q14.9691,14.7491,14.998,14.7059Q15.0269,14.6626,15.0515,14.6167Q15.076,14.5709,15.0959,14.5228Q15.1158,14.4747,15.1309,14.425Q15.146,14.3752,15.1561,14.3242Q15.1663,14.2732,15.1714,14.2214Q15.1765,14.1696,15.1765,14.1176L15.1765,9.88231Q15.1765,9.83029,15.1714,9.77853Q15.1663,9.726759999999999,15.1561,9.675740000000001Q15.146,9.62473,15.1309,9.574950000000001Q15.1158,9.52517,15.0959,9.47712Q15.076,9.42906,15.0515,9.38318Q15.0269,9.33731,14.998,9.29406Q14.9691,9.250810000000001,14.9361,9.2106Q14.9031,9.170390000000001,14.8664,9.133610000000001Q14.8296,9.09683,14.7894,9.06383Q14.7492,9.03083,14.7059,9.00193Q14.6627,8.97303,14.6168,8.948509999999999Q14.5709,8.92399,14.5229,8.90408Q14.4748,8.88418,14.425,8.86908Q14.3752,8.85398,14.3242,8.84383Q14.2732,8.833680000000001,14.2214,8.828579999999999Q14.1697,8.82349,14.1177,8.82349L9.88237,8.82349Q9.83035,8.82349,9.778590000000001,8.828579999999999Q9.72682,8.833680000000001,9.675799999999999,8.84383Q9.62479,8.85398,9.575009999999999,8.86908Q9.52523,8.88418,9.47718,8.90408Q9.429120000000001,8.92399,9.38324,8.948509999999999Q9.33737,8.97303,9.29412,9.00193Q9.250869999999999,9.03083,9.21066,9.06383Q9.170449999999999,9.09683,9.13367,9.133610000000001Q9.09689,9.170390000000001,9.06389,9.2106Q9.03089,9.250810000000001,9.00199,9.29406Q8.97309,9.33731,8.94857,9.38318Q8.924050000000001,9.42906,8.90415,9.47711Q8.88424,9.52517,8.86914,9.574950000000001Q8.854040000000001,9.62473,8.84389,9.675740000000001Q8.833739999999999,9.726759999999999,8.82865,9.77853Q8.823550000000001,9.83029,8.823550000000001,9.88231Z" fill-rule="evenodd" fill="#EF4444" fill-opacity="1"/></g></g></g></svg>