<svg xmlns="http://www.w3.org/2000/svg" xmlns:xlink="http://www.w3.org/1999/xlink" fill="none" version="1.1" width="24" height="24" viewBox="0 0 24 24"><defs><clipPath id="master_svg0_5518_09527"><rect x="0" y="0" width="24" height="24" rx="0"/></clipPath><clipPath id="master_svg1_5518_09536"><rect x="2" y="2" width="20" height="20" rx="0"/></clipPath></defs><g clip-path="url(#master_svg0_5518_09527)"><g clip-path="url(#master_svg1_5518_09536)"><g><g><path d="M6.399999976158142,6.324989976158142L6.399999976158142,8.249999976158142C6.399999976158142,8.581369976158143,6.668629976158142,8.849999976158141,6.999999976158142,8.849999976158141L10.124999976158142,8.849999976158141C10.456369976158143,8.849999976158141,10.724999976158141,8.581369976158143,10.724999976158141,8.249999976158142L10.724999976158141,3.249999976158142C10.724999976158141,2.918628976158142,10.456369976158143,2.649999976158142,10.124999976158142,2.649999976158142L6.999999976158142,2.649999976158142C6.668629976158142,2.649999976158142,6.399999976158142,2.918628976158142,6.399999976158142,3.249999976158142L6.399999976158142,5.124989976158142L3.8751949761581423,5.124989976158142C3.543824976158142,5.124989976158142,3.275195479158142,5.393619976158142,3.275195479158142,5.724989976158142C3.275195479158142,6.0563599761581415,3.543824976158142,6.324989976158142,3.8751949761581423,6.324989976158142L6.399999976158142,6.324989976158142ZM7.599999976158142,5.740459976158142L7.599999976158142,7.649999976158142L9.524999976158142,7.649999976158142L9.524999976158142,3.8499999761581423L7.599999976158142,3.8499999761581423L7.599999976158142,5.709519976158142C7.600129976158142,5.714659976158142,7.600199976158142,5.719819976158142,7.600199976158142,5.724989976158142C7.600199976158142,5.730159976158141,7.600129976158142,5.7353199761581415,7.599999976158142,5.740459976158142ZM20.125199976158143,6.324989976158142L12.625189976158142,6.324989976158142C12.293819976158142,6.324989976158142,12.025189976158142,6.0563599761581415,12.025189976158142,5.724989976158142C12.025189976158142,5.393619976158142,12.293819976158142,5.124989976158142,12.625189976158142,5.124989976158142L20.125199976158143,5.124989976158142C20.45659997615814,5.124989976158142,20.72519997615814,5.393619976158142,20.72519997615814,5.724989976158142C20.72519997615814,6.0563599761581415,20.45659997615814,6.324989976158142,20.125199976158143,6.324989976158142ZM13.274999976158142,11.424779976158142L13.274999976158142,9.499999976158142C13.274999976158142,9.168629976158142,13.543599976158141,8.899999976158142,13.874999976158142,8.899999976158142L16.999999976158144,8.899999976158142C17.331399976158142,8.899999976158142,17.59999997615814,9.168629976158142,17.59999997615814,9.499999976158142L17.59999997615814,14.499999976158142C17.59999997615814,14.831399976158142,17.331399976158142,15.099999976158141,16.999999976158144,15.099999976158141L13.874999976158142,15.099999976158141C13.543599976158141,15.099999976158141,13.274999976158142,14.831399976158142,13.274999976158142,14.499999976158142L13.274999976158142,12.624779976158143L3.874999976158142,12.624779976158143C3.543628976158142,12.624779976158143,3.274999976158142,12.356149976158141,3.274999976158142,12.024779976158142C3.274999976158142,11.693409976158142,3.543628976158142,11.424779976158142,3.874999976158142,11.424779976158142L13.274999976158142,11.424779976158142ZM14.474999976158141,12.023699976158142L14.474999976158141,13.899999976158142L16.399999976158142,13.899999976158142L16.399999976158142,10.099999976158141L14.474999976158141,10.099999976158141L14.474999976158141,12.023699976158142ZM20.124999976158144,11.424779976158142L19.499999976158144,11.424779976158142C19.16859997615814,11.424779976158142,18.899999976158142,11.693409976158142,18.899999976158142,12.024779976158142C18.899999976158142,12.356149976158141,19.16859997615814,12.624779976158143,19.499999976158144,12.624779976158143L20.124999976158144,12.624779976158143C20.456399976158142,12.624779976158143,20.72499997615814,12.356149976158141,20.72499997615814,12.024779976158142C20.72499997615814,11.693409976158142,20.456399976158142,11.424779976158142,20.124999976158144,11.424779976158142ZM6.399999976158142,15.749999976158142L6.399999976158142,17.624999976158144L3.8751949761581423,17.624999976158144C3.543824976158142,17.624999976158144,3.275195479158142,17.893599976158143,3.275195479158142,18.22499997615814C3.275195479158142,18.55639997615814,3.543824976158142,18.824999976158143,3.8751949761581423,18.824999976158143L6.399999976158142,18.824999976158143L6.399999976158142,20.749999976158144C6.399999976158142,21.081399976158142,6.668629976158142,21.34999997615814,6.999999976158142,21.34999997615814L10.124999976158142,21.34999997615814C10.456369976158143,21.34999997615814,10.724999976158141,21.081399976158142,10.724999976158141,20.749999976158144L10.724999976158141,15.749999976158142C10.724999976158141,15.418599976158141,10.456369976158143,15.149999976158142,10.124999976158142,15.149999976158142L6.999999976158142,15.149999976158142C6.668629976158142,15.149999976158142,6.399999976158142,15.418599976158141,6.399999976158142,15.749999976158142ZM7.600199976158142,18.22499997615814C7.600199976158142,18.23019997615814,7.600129976158142,18.235299976158142,7.599999976158142,18.24049997615814L7.599999976158142,20.149999976158142L9.524999976158142,20.149999976158142L9.524999976158142,16.34999997615814L7.599999976158142,16.34999997615814L7.599999976158142,18.209499976158142C7.600129976158142,18.214699976158144,7.600199976158142,18.219799976158143,7.600199976158142,18.22499997615814ZM12.625189976158142,18.824999976158143L20.125199976158143,18.824999976158143C20.45659997615814,18.824999976158143,20.72519997615814,18.55639997615814,20.72519997615814,18.22499997615814C20.72519997615814,17.893599976158143,20.45659997615814,17.624999976158144,20.125199976158143,17.624999976158144L12.625189976158142,17.624999976158144C12.293819976158142,17.624999976158144,12.025189976158142,17.893599976158143,12.025189976158142,18.22499997615814C12.025189976158142,18.55639997615814,12.293819976158142,18.824999976158143,12.625189976158142,18.824999976158143Z" fill-rule="evenodd" fill="#38363C" fill-opacity="1"/></g></g></g></g></svg>