<svg xmlns="http://www.w3.org/2000/svg" xmlns:xlink="http://www.w3.org/1999/xlink" fill="none" version="1.1" width="24" height="24" viewBox="0 0 24 24"><defs><clipPath id="master_svg0_5445_06676"><rect x="0" y="0" width="24" height="24" rx="0"/></clipPath><clipPath id="master_svg1_5445_06677"><rect x="0" y="0" width="24" height="24" rx="0"/></clipPath></defs><g clip-path="url(#master_svg0_5445_06676)"><g clip-path="url(#master_svg1_5445_06677)"></g><g><g><path d="M4,12.5Q4,12.29134,4.0102386,12.08292Q4.0204772,11.87451,4.0409298,11.66685Q4.0613824,11.4592,4.0919997,11.252790000000001Q4.122617,11.046389999999999,4.163325,10.84173Q4.204033,10.637080000000001,4.254734,10.43467Q4.305435,10.23226,4.366007,10.03258Q4.426579,9.8329,4.496875,9.63644Q4.567172,9.439969999999999,4.647024,9.24719Q4.726876,9.05441,4.816091,8.86578Q4.905306,8.677150000000001,5.00367,8.49313Q5.10203,8.3091,5.20931,8.130130000000001Q5.31658,7.95115,5.43251,7.7776499999999995Q5.54844,7.60416,5.67274,7.43656Q5.79704,7.26896,5.92941,7.10766Q6.06179,6.94636,6.201919999999999,6.79175Q6.34205,6.6371400000000005,6.48959,6.48959Q6.6371400000000005,6.34205,6.79175,6.201919999999999Q6.94636,6.06179,7.10766,5.92941Q7.26896,5.79704,7.43656,5.67274Q7.60416,5.54844,7.7776499999999995,5.43251Q7.95115,5.31658,8.130130000000001,5.20931Q8.3091,5.10203,8.49313,5.00367Q8.677150000000001,4.905306,8.86578,4.816091Q9.05441,4.726876,9.24719,4.647024Q9.439969999999999,4.567172,9.63644,4.496875Q9.8329,4.426579,10.03258,4.366007Q10.23226,4.305435,10.43467,4.254734Q10.637080000000001,4.204033,10.84173,4.163325Q11.046389999999999,4.122617,11.252790000000001,4.0919997Q11.4592,4.0613824,11.66685,4.0409298Q11.87451,4.0204772,12.08292,4.0102386Q12.29134,4,12.5,4Q12.70866,4,12.91708,4.0102386Q13.12549,4.0204772,13.33315,4.0409298Q13.5408,4.0613824,13.74721,4.0919997Q13.95361,4.122617,14.1583,4.163325Q14.3629,4.204033,14.5653,4.254734Q14.7677,4.305435,14.9674,4.366007Q15.1671,4.426579,15.3636,4.496875Q15.56,4.567172,15.7528,4.647024Q15.9456,4.726876,16.1342,4.816091Q16.3228,4.905306,16.5069,5.00367Q16.6909,5.10203,16.8699,5.20931Q17.0488,5.31658,17.2223,5.43251Q17.3958,5.54844,17.5634,5.67274Q17.731,5.79704,17.8923,5.92941Q18.0536,6.06179,18.208199999999998,6.201919999999999Q18.3629,6.34205,18.5104,6.48959Q18.658,6.6371400000000005,18.798099999999998,6.79175Q18.938200000000002,6.94636,19.0706,7.10766Q19.203,7.26896,19.3273,7.43656Q19.4516,7.60416,19.567500000000003,7.7776499999999995Q19.6834,7.95115,19.7907,8.130130000000001Q19.898,8.3091,19.996299999999998,8.49313Q20.0947,8.677150000000001,20.1839,8.86578Q20.2731,9.05441,20.353,9.24719Q20.4328,9.439969999999999,20.5031,9.63644Q20.5734,9.8329,20.634,10.03258Q20.6946,10.23226,20.7453,10.43467Q20.796,10.637080000000001,20.8367,10.84173Q20.8774,11.046389999999999,20.908,11.252790000000001Q20.9386,11.4592,20.9591,11.66685Q20.9795,11.87451,20.9898,12.08292Q21,12.29134,21,12.5Q21,12.70866,20.9898,12.91708Q20.9795,13.12549,20.9591,13.33315Q20.9386,13.5408,20.908,13.74721Q20.8774,13.95361,20.8367,14.1583Q20.796,14.3629,20.7453,14.5653Q20.6946,14.7677,20.634,14.9674Q20.5734,15.1671,20.5031,15.3636Q20.4328,15.56,20.353,15.7528Q20.2731,15.9456,20.1839,16.1342Q20.0947,16.3228,19.996299999999998,16.5069Q19.898,16.6909,19.7907,16.8699Q19.6834,17.0488,19.567500000000003,17.2223Q19.4516,17.3958,19.3273,17.5634Q19.203,17.731,19.0706,17.8923Q18.938200000000002,18.0536,18.798099999999998,18.208199999999998Q18.658,18.3629,18.5104,18.5104Q18.3629,18.658,18.208199999999998,18.798099999999998Q18.0536,18.938200000000002,17.8923,19.0706Q17.731,19.203,17.5634,19.3273Q17.3958,19.4516,17.2223,19.567500000000003Q17.0488,19.6834,16.8699,19.7907Q16.6909,19.898,16.5069,19.996299999999998Q16.3228,20.0947,16.1342,20.1839Q15.9456,20.2731,15.7528,20.353Q15.56,20.4328,15.3636,20.5031Q15.1671,20.5734,14.9674,20.634Q14.7677,20.6946,14.5653,20.7453Q14.3629,20.796,14.1583,20.8367Q13.95361,20.8774,13.74721,20.908Q13.5408,20.9386,13.33315,20.9591Q13.12549,20.9795,12.91708,20.9898Q12.70866,21,12.5,21Q12.29134,21,12.08292,20.9898Q11.87451,20.9795,11.66685,20.9591Q11.4592,20.9386,11.252790000000001,20.908Q11.046389999999999,20.8774,10.84173,20.8367Q10.637080000000001,20.796,10.43467,20.7453Q10.23226,20.6946,10.03258,20.634Q9.8329,20.5734,9.63644,20.5031Q9.439969999999999,20.4328,9.24719,20.353Q9.05441,20.2731,8.86578,20.1839Q8.677150000000001,20.0947,8.49313,19.996299999999998Q8.3091,19.898,8.130130000000001,19.7907Q7.95115,19.6834,7.7776499999999995,19.567500000000003Q7.60416,19.4516,7.43656,19.3273Q7.26896,19.203,7.10766,19.0706Q6.94636,18.938200000000002,6.79175,18.798099999999998Q6.6371400000000005,18.658,6.48959,18.5104Q6.34205,18.3629,6.201919999999999,18.208199999999998Q6.06179,18.0536,5.92941,17.8923Q5.79704,17.731,5.67274,17.5634Q5.54844,17.3958,5.43251,17.2223Q5.31658,17.0488,5.20931,16.8699Q5.10203,16.6909,5.00367,16.5069Q4.905306,16.3228,4.816091,16.1342Q4.726876,15.9456,4.647024,15.7528Q4.567172,15.56,4.496875,15.3636Q4.426579,15.1671,4.366007,14.9674Q4.305435,14.7677,4.254734,14.5653Q4.204033,14.3629,4.163325,14.1583Q4.122617,13.95361,4.0919997,13.74721Q4.0613824,13.5408,4.0409298,13.33315Q4.0204772,13.12549,4.0102386,12.91708Q4,12.70866,4,12.5ZM8.88785,9.84375C8.88785,9.29147,9.335560000000001,8.84375,9.88785,8.84375C10.44013,8.84375,10.88785,9.29147,10.88785,9.84375L10.88785,15.1562C10.88785,15.7085,10.44013,16.1562,9.88785,16.1562C9.335560000000001,16.1562,8.88785,15.7085,8.88785,15.1562L8.88785,9.84375ZM15.1122,8.84375C14.5599,8.84375,14.1122,9.29147,14.1122,9.84375L14.1122,15.1562C14.1122,15.7085,14.5599,16.1562,15.1122,16.1562C15.6644,16.1562,16.1122,15.7085,16.1122,15.1562L16.1122,9.84375C16.1122,9.29147,15.6644,8.84375,15.1122,8.84375Z" fill-rule="evenodd" fill="#F97316" fill-opacity="1"/></g></g></g></svg>