<svg xmlns="http://www.w3.org/2000/svg" xmlns:xlink="http://www.w3.org/1999/xlink" fill="none" version="1.1" width="24" height="24" viewBox="0 0 24 24"><defs><clipPath id="master_svg0_5445_06719"><rect x="0" y="0" width="24" height="24" rx="0"/></clipPath><clipPath id="master_svg1_5445_06720"><rect x="0" y="0" width="24" height="24" rx="0"/></clipPath><clipPath id="master_svg2_5445_06725"><rect x="4" y="4" width="16" height="16" rx="0"/></clipPath></defs><g clip-path="url(#master_svg0_5445_06719)"><g clip-path="url(#master_svg1_5445_06720)"></g><g clip-path="url(#master_svg2_5445_06725)"><g><g><g><path d="M19.094,11.030999992847443L18.555,4.819999992847443L16.625,6.749999992847442C15.353,5.631999992847443,13.71,4.999999992847442,12,4.999999992847442C8.14,4.999999992847442,5,8.139999992847443,5,11.999999992847442C5,15.859999992847442,8.14,18.999999992847442,12,18.999999992847442C14.491,18.999999992847442,16.814,17.65899999284744,18.063000000000002,15.500999992847442L16.332,14.499999992847442C15.439,16.041999992847444,13.779,16.999999992847442,12,16.999999992847442C9.243,16.999999992847442,7,14.756999992847442,7,11.999999992847442C7,9.242999992847443,9.243,6.999999992847442,12,6.999999992847442C13.179,6.999999992847442,14.311,7.422999992847442,15.205,8.169999992847442L12.883,10.491999992847443L19.094,11.030999992847443Z" fill="#2882FF" fill-opacity="1"/></g></g></g></g></g></svg>