<svg xmlns="http://www.w3.org/2000/svg" xmlns:xlink="http://www.w3.org/1999/xlink" fill="none" version="1.1" width="24" height="24" viewBox="0 0 24 24"><defs><clipPath id="master_svg0_5445_06676"><rect x="0" y="0" width="24" height="24" rx="0"/></clipPath><clipPath id="master_svg1_5445_06677"><rect x="0" y="0" width="24" height="24" rx="0"/></clipPath></defs><g clip-path="url(#master_svg0_5445_06676)"><g clip-path="url(#master_svg1_5445_06677)"></g><g><g><path d="M3,12Q3,11.77906,3.0108409,11.55839Q3.0216818,11.33772,3.0433375,11.11785Q3.0649931,10.89797,3.0974114,10.67943Q3.12983,10.46088,3.172932,10.24419Q3.216035,10.02749,3.269719,9.81318Q3.323402,9.59886,3.387537,9.38744Q3.451672,9.17601,3.526103,8.96799Q3.600535,8.75997,3.685084,8.55585Q3.769633,8.35173,3.864096,8.152000000000001Q3.958559,7.95228,4.06271,7.75743Q4.16686,7.56258,4.2804400000000005,7.37308Q4.39403,7.18357,4.51677,6.99987Q4.63952,6.81616,4.77113,6.63871Q4.90274,6.46125,5.04291,6.2904599999999995Q5.18307,6.11967,5.331440000000001,5.955970000000001Q5.4798100000000005,5.79227,5.6360399999999995,5.6360399999999995Q5.79227,5.4798100000000005,5.955970000000001,5.331440000000001Q6.11967,5.18307,6.2904599999999995,5.04291Q6.46125,4.90274,6.63871,4.77113Q6.81616,4.63952,6.99987,4.51677Q7.18357,4.39403,7.37308,4.2804400000000005Q7.56258,4.16686,7.75743,4.06271Q7.95228,3.958559,8.152000000000001,3.864096Q8.35173,3.769633,8.55585,3.685084Q8.75997,3.600535,8.96799,3.526103Q9.17601,3.451672,9.38744,3.387537Q9.59886,3.323402,9.81318,3.269719Q10.02749,3.216035,10.24419,3.172932Q10.46088,3.12983,10.67943,3.0974114Q10.89797,3.0649931,11.11785,3.0433375Q11.33772,3.0216818,11.55839,3.0108409Q11.77906,3,12,3Q12.22094,3,12.44161,3.0108409Q12.66228,3.0216818,12.88215,3.0433375Q13.102,3.0649931,13.3206,3.0974114Q13.5391,3.12983,13.7558,3.172932Q13.9725,3.216035,14.1868,3.269719Q14.4011,3.323402,14.6126,3.387537Q14.824,3.451672,15.032,3.526103Q15.24,3.600535,15.4441,3.685084Q15.6483,3.769633,15.848,3.864096Q16.0477,3.958559,16.2426,4.06271Q16.4374,4.16686,16.6269,4.2804400000000005Q16.8164,4.39403,17.0001,4.51677Q17.183799999999998,4.63952,17.3613,4.77113Q17.538800000000002,4.90274,17.7095,5.04291Q17.8803,5.18307,18.044,5.331440000000001Q18.207700000000003,5.4798100000000005,18.364,5.6360399999999995Q18.520200000000003,5.79227,18.668599999999998,5.955970000000001Q18.8169,6.11967,18.9571,6.2904599999999995Q19.0973,6.46125,19.2289,6.63871Q19.3605,6.81616,19.4832,6.99987Q19.606,7.18357,19.7196,7.37308Q19.8331,7.56258,19.9373,7.75743Q20.0414,7.95228,20.1359,8.152000000000001Q20.2304,8.35173,20.3149,8.55585Q20.3995,8.75997,20.4739,8.96799Q20.5483,9.17601,20.6125,9.38744Q20.6766,9.59886,20.7303,9.81318Q20.784,10.02749,20.8271,10.24419Q20.8702,10.46088,20.9026,10.67943Q20.935,10.89797,20.9567,11.11785Q20.9783,11.33772,20.9892,11.55839Q21,11.77906,21,12Q21,12.22094,20.9892,12.44161Q20.9783,12.66228,20.9567,12.88215Q20.935,13.102,20.9026,13.3206Q20.8702,13.5391,20.8271,13.7558Q20.784,13.9725,20.7303,14.1868Q20.6766,14.4011,20.6125,14.6126Q20.5483,14.824,20.4739,15.032Q20.3995,15.24,20.3149,15.4441Q20.2304,15.6483,20.1359,15.848Q20.0414,16.0477,19.9373,16.2426Q19.8331,16.4374,19.7196,16.6269Q19.606,16.8164,19.4832,17.0001Q19.3605,17.183799999999998,19.2289,17.3613Q19.0973,17.538800000000002,18.9571,17.7095Q18.8169,17.8803,18.668599999999998,18.044Q18.520200000000003,18.207700000000003,18.364,18.364Q18.207700000000003,18.520200000000003,18.044,18.668599999999998Q17.8803,18.8169,17.7095,18.9571Q17.538800000000002,19.0973,17.3613,19.2289Q17.183799999999998,19.3605,17.0001,19.4832Q16.8164,19.606,16.6269,19.7196Q16.4374,19.8331,16.2426,19.9373Q16.0477,20.0414,15.848,20.1359Q15.6483,20.2304,15.4441,20.3149Q15.24,20.3995,15.032,20.4739Q14.824,20.5483,14.6126,20.6125Q14.4011,20.6766,14.1868,20.7303Q13.9725,20.784,13.7558,20.8271Q13.5391,20.8702,13.3206,20.9026Q13.102,20.935,12.88215,20.9567Q12.66228,20.9783,12.44161,20.9892Q12.22094,21,12,21Q11.77906,21,11.55839,20.9892Q11.33772,20.9783,11.11785,20.9567Q10.89797,20.935,10.67943,20.9026Q10.46088,20.8702,10.24419,20.8271Q10.02749,20.784,9.81318,20.7303Q9.59886,20.6766,9.38744,20.6125Q9.17601,20.5483,8.96799,20.4739Q8.75997,20.3995,8.55585,20.3149Q8.35173,20.2304,8.152000000000001,20.1359Q7.95228,20.0414,7.75743,19.9373Q7.56258,19.8331,7.37308,19.7196Q7.18357,19.606,6.99987,19.4832Q6.81616,19.3605,6.63871,19.2289Q6.46125,19.0973,6.2904599999999995,18.9571Q6.11967,18.8169,5.955970000000001,18.668599999999998Q5.79227,18.520200000000003,5.6360399999999995,18.364Q5.4798100000000005,18.207700000000003,5.331440000000001,18.044Q5.18307,17.8803,5.04291,17.7095Q4.90274,17.538800000000002,4.77113,17.3613Q4.63952,17.183799999999998,4.51677,17.0001Q4.39403,16.8164,4.2804400000000005,16.6269Q4.16686,16.4374,4.06271,16.2426Q3.958559,16.0477,3.864096,15.848Q3.769633,15.6483,3.685084,15.4441Q3.600535,15.24,3.526103,15.032Q3.451672,14.824,3.387537,14.6126Q3.323402,14.4011,3.269719,14.1868Q3.216035,13.9725,3.172932,13.7558Q3.12983,13.5391,3.0974114,13.3206Q3.0649931,13.102,3.0433375,12.88215Q3.0216818,12.66228,3.0108409,12.44161Q3,12.22094,3,12ZM8.17535,9.18749C8.17535,8.60271,8.64941,8.12866,9.23418,8.12866C9.818950000000001,8.12866,10.293,8.60271,10.293,9.18749L10.293,14.8125C10.293,15.3973,9.818950000000001,15.8713,9.23418,15.8713C8.64941,15.8713,8.17535,15.3973,8.17535,14.8125L8.17535,9.18749ZM14.7658,8.12866C14.181,8.12866,13.707,8.60271,13.707,9.18749L13.707,14.8125C13.707,15.3973,14.181,15.8713,14.7658,15.8713C15.3506,15.8713,15.8246,15.3973,15.8246,14.8125L15.8246,9.18749C15.8246,8.60271,15.3506,8.12866,14.7658,8.12866Z" fill-rule="evenodd" fill="#F97316" fill-opacity="1"/></g></g></g></svg>