<svg xmlns="http://www.w3.org/2000/svg" xmlns:xlink="http://www.w3.org/1999/xlink" fill="none" version="1.1" width="24" height="24" viewBox="0 0 24 24"><defs><clipPath id="master_svg0_5518_09513"><rect x="0" y="0" width="24" height="24" rx="0"/></clipPath><clipPath id="master_svg1_5518_09514"><rect x="0" y="0" width="24" height="24" rx="0"/></clipPath><clipPath id="master_svg2_5518_09515"><rect x="2" y="2" width="20" height="20" rx="0"/></clipPath></defs><g clip-path="url(#master_svg0_5518_09513)"><g clip-path="url(#master_svg1_5518_09514)"></g><g clip-path="url(#master_svg2_5518_09515)"><g><g><path d="M3.2750000953674316,5.124999976158142L3.2750000953674316,21.374999976158144C3.2750000953674316,21.706399976158142,3.5436290953674314,21.97499997615814,3.8750000953674317,21.97499997615814L17.625000095367433,21.97499997615814C17.95640009536743,21.97499997615814,18.22500009536743,21.706399976158142,18.22500009536743,21.374999976158144L18.22500009536743,5.124999976158142C18.22500009536743,4.793628976158142,17.95640009536743,4.524999976158142,17.625000095367433,4.524999976158142L3.8750000953674317,4.524999976158142C3.5436290953674314,4.524999976158142,3.2750000953674316,4.793628976158142,3.2750000953674316,5.124999976158142ZM4.475000095367432,20.774999976158142L4.475000095367432,5.724999976158142L17.02500009536743,5.724999976158142L17.02500009536743,20.774999976158142L4.475000095367432,20.774999976158142Z" fill-rule="evenodd" fill="#38363C" fill-opacity="1"/></g><g><path d="M14.500000095367431,8.925000071525574L7.000000095367431,8.925000071525574C6.668629095367431,8.925000071525574,6.400000095367432,9.193629071525574,6.400000095367432,9.525000071525573C6.400000095367432,9.856371071525574,6.668629095367431,10.125000071525573,7.000000095367431,10.125000071525573L14.500000095367431,10.125000071525573C14.831370095367431,10.125000071525573,15.100000095367431,9.856371071525574,15.100000095367431,9.525000071525573C15.100000095367431,9.193629071525574,14.831370095367431,8.925000071525574,14.500000095367431,8.925000071525574Z" fill-rule="evenodd" fill="#38363C" fill-opacity="1"/></g><g><path d="M14.500000095367431,12.675000548362732L7.000000095367431,12.675000548362732C6.668629095367431,12.675000548362732,6.400000095367432,12.943629548362733,6.400000095367432,13.275000548362732C6.400000095367432,13.606371548362732,6.668629095367431,13.875000548362731,7.000000095367431,13.875000548362731L14.500000095367431,13.875000548362731C14.831370095367431,13.875000548362731,15.100000095367431,13.606371548362732,15.100000095367431,13.275000548362732C15.100000095367431,12.943629548362733,14.831370095367431,12.675000548362732,14.500000095367431,12.675000548362732Z" fill-rule="evenodd" fill="#38363C" fill-opacity="1"/></g><g><path d="M9.500000095367431,16.425000548362732L7.000000095367431,16.425000548362732C6.668629095367431,16.425000548362732,6.400000095367432,16.693629548362733,6.400000095367432,17.025000548362733C6.400000095367432,17.35637154836273,6.668629095367431,17.62500054836273,7.000000095367431,17.62500054836273L9.500000095367431,17.62500054836273C9.831370095367431,17.62500054836273,10.100000095367431,17.35637154836273,10.100000095367431,17.025000548362733C10.100000095367431,16.693629548362733,9.831370095367431,16.425000548362732,9.500000095367431,16.425000548362732Z" fill-rule="evenodd" fill="#38363C" fill-opacity="1"/></g><g><path d="M20.125000095367433,2.024999976158142L5.750000095367431,2.024999976158142C5.418629095367431,2.024999976158142,5.150000095367432,2.293628976158142,5.150000095367432,2.624999976158142C5.150000095367432,2.956370976158142,5.418629095367431,3.2249999761581423,5.750000095367431,3.2249999761581423L19.52500009536743,3.2249999761581423L19.52500009536743,19.498899976158143L19.52500009536743,19.499999976158144C19.52500009536743,19.831399976158142,19.79360009536743,20.09999997615814,20.125000095367433,20.09999997615814C20.45640009536743,20.09999997615814,20.72500009536743,19.831399976158142,20.72500009536743,19.499999976158144L20.72500009536743,2.624999976158142C20.72500009536743,2.293628976158142,20.45640009536743,2.024999976158142,20.125000095367433,2.024999976158142Z" fill-rule="evenodd" fill="#38363C" fill-opacity="1"/></g></g></g></g></svg>