<svg xmlns="http://www.w3.org/2000/svg" xmlns:xlink="http://www.w3.org/1999/xlink" fill="none" version="1.1" width="24" height="24" viewBox="0 0 24 24"><defs><clipPath id="master_svg0_6102_03511"><rect x="-0.75" y="-0.75" width="25.5" height="25.5" rx="0"/></clipPath></defs><g clip-path="url(#master_svg0_6102_03511)"><path d="M7.999999756867676,19.249999965286257Q8.931979326867676,19.249999965286257,9.590990026867676,18.590989965286255Q10.249999326867677,17.931979965286253,10.249999326867677,16.999999965286257L10.249999726867676,6.999999965286255Q10.249999726867676,6.068019365286255,9.590990326867676,5.409009665286255Q8.931980826867676,4.750000265286255,7.999999756867676,4.750000265286255C7.585869016867676,4.749850065286255,7.250149726867676,4.414130665286255,7.250149726867676,3.999999995286255C7.250149726867676,3.585869255286255,7.585869016867676,3.250149965286255,7.999999756867676,3.250149965286255Q9.553301326867675,3.2500001788162547,10.651650626867676,4.348349665286255Q11.750000026867676,5.446698865286255,11.750000026867676,6.999999965286255L11.749999026867677,16.999999965286257Q11.750000026867676,18.553300965286255,10.651650426867675,19.651650965286255Q9.553300826867677,20.749998965286256,7.999999756867676,20.749998965286256C7.585869016867676,20.749848965286255,7.250149726867676,20.414129965286254,7.250149726867676,19.999998965286256C7.250149726867676,19.585867965286255,7.585869016867676,19.250149965286255,7.999999756867676,19.249999965286257Z" fill-rule="evenodd" fill="#000000" fill-opacity="1" style="mix-blend-mode:passthrough"/><path d="M14,20.75000023841858Q12.446698699999999,20.75000023841858,11.3483496,19.65165123841858Q10.25000023841858,18.553301238418577,10.25000017881393,17.00000023841858L10.25,7.0000000384185785Q10.25,5.446698938418579,11.3483495,4.348349538418579Q12.4466989,3.250000238418579,14,3.250000238418579C14.414130700000001,3.2501500248885793,14.7498503,3.5858693084185793,14.7498503,4.000000058418579C14.7498503,4.414130838418579,14.414130700000001,4.749850038418579,14,4.749850038418579Q13.0680194,4.750000238418579,12.4090097,5.4090099384185795Q11.75,6.068019438418579,11.75,7.0000000384185785L11.7500002,17.00000023841858Q11.7500002,17.93198023841858,12.409009900000001,18.590990238418577Q13.0680208,19.25000023841858,14,19.25000023841858C14.414130700000001,19.25014923841858,14.7498503,19.585869238418578,14.7498503,20.00000023841858C14.7498503,20.41413123841858,14.414130700000001,20.74984923841858,14,20.75000023841858Z" fill-rule="evenodd" fill="#000000" fill-opacity="1" style="mix-blend-mode:passthrough"/><path d="M4.500039595355225,16.749960899353027L6.500062495355225,16.749960899353027L6.500062495355225,16.749811199353026Q6.573915995355224,16.74981019935303,6.646350595355225,16.735402099353028Q6.718785295355225,16.720993999353027,6.787017395355225,16.692730899353027Q6.855249395355225,16.664467799353027,6.916656695355225,16.62343789935303Q6.978064095355224,16.58240599935303,7.030286795355225,16.53018469935303Q7.082508995355225,16.47796149935303,7.123539895355225,16.416554499353026Q7.164570795355225,16.35514739935303,7.192833395355224,16.286915799353025Q7.221096495355225,16.218684199353028,7.235504595355224,16.146248799353028Q7.249912695355224,16.073814399353026,7.249912695355224,15.999960899353027Q7.249912695355224,15.926106499353027,7.235504595355224,15.853671999353027Q7.221096495355225,15.781236599353027,7.192833395355224,15.713005099353026Q7.164570295355225,15.644772499353028,7.1235394953552245,15.583365399353028Q7.0825085953552245,15.521958399353029,7.030286295355225,15.469736099353028Q6.978063595355225,15.417513399353027,6.916656495355225,15.376482499353028Q6.855249395355225,15.335451599353028,6.787017095355225,15.307188999353027Q6.718785295355225,15.278926899353028,6.646350595355225,15.264518699353028Q6.573915995355224,15.250110599353027,6.500062495355225,15.250110599353027L6.500062495355225,15.249960899353027L4.500039595355225,15.249960899353027Q4.189382395355224,15.249960899353027,3.9697132753552244,15.030295399353028Q3.7500442253552246,14.810629799353027,3.7500394553552248,14.499974299353028L3.7499632853552245,9.499972299353027Q3.7499585153552246,9.189308899353028,3.9696291653552245,8.969634949353027Q4.1892997953552245,8.749961019353027,4.499963295355225,8.749961019353027L6.499940395355225,8.749960899353027L6.499940395355225,8.749810929353027Q6.573793895355225,8.749810929353027,6.646228795355224,8.735402699353028Q6.718663195355225,8.720994589353028,6.786895295355224,8.692731979353027Q6.855127295355224,8.664469359353028,6.9165343953552245,8.623438359353027Q6.977941495355225,8.582407419353027,7.0301641953552245,8.530184929353027Q7.082386495355225,8.477962409353028,7.123417395355225,8.416555229353028Q7.164448695355224,8.355148079353027,7.192711395355224,8.286916079353027Q7.220974395355225,8.218684079353027,7.235382595355224,8.146249379353028Q7.249790695355225,8.073814682353028,7.249790695355225,7.999960899353027Q7.249790695355225,7.926107116353028,7.235382595355224,7.853672419353027Q7.220974395355225,7.781237719353028,7.192711395355224,7.713005719353028Q7.164448695355224,7.644773719353028,7.1234178953552245,7.583366569353028Q7.082386495355225,7.521959389353027,7.0301641953552245,7.469736869353027Q6.977941495355225,7.417514379353028,6.9165343953552245,7.376483439353027Q6.855127295355224,7.335452439353027,6.786895295355224,7.307189819353027Q6.718663195355225,7.278927209353028,6.6462285953552245,7.264519099353027Q6.573793895355225,7.250110869353027,6.499940395355225,7.250110869353027L6.499940395355225,7.249960899353027L4.499963295355225,7.2499610193530275Q3.5679727753552246,7.249960959353027,2.908960908355225,7.9089828133530276Q2.2499490353552245,8.568004669353027,2.2499632853552245,9.499995199353027L2.2500394553552248,14.499997099353028Q2.2500537053552248,15.431967299353026,2.9090618493552247,16.090964299353026Q3.5680694553552246,16.749960899353027,4.500039595355225,16.749960899353027ZM19.499963395355223,7.250082969353027L15.499940395355225,7.250082969353027L15.499940395355225,7.250232939353028Q15.426086395355224,7.2502329993530275,15.353651395355225,7.264641169353028Q15.281217395355224,7.279049399353028,15.212984395355225,7.307311949353028Q15.144752395355225,7.335574629353028,15.083345395355225,7.3766055693530275Q15.021937395355225,7.417636509353027,14.969715395355225,7.469858999353027Q14.917492395355225,7.5220814893530275,14.876461395355225,7.583488669353027Q14.835429395355225,7.644895849353027,14.807167395355224,7.713127819353027Q14.778905395355224,7.781359809353027,14.764497395355225,7.853794499353027Q14.750089395355225,7.926229186353027,14.750090395355224,8.000082969663028Q14.750089395355225,8.073936738353026,14.764497395355225,8.146371419353027Q14.778905395355224,8.218806119353028,14.807167395355224,8.287038119353028Q14.835429395355225,8.355270089353027,14.876460395355224,8.416677299353028Q14.917492395355225,8.478084479353027,14.969715395355225,8.530306999353026Q15.021937395355225,8.582529549353028,15.083345395355225,8.623560429353027Q15.144752395355225,8.664591429353028,15.212984395355225,8.692853989353027Q15.281217395355224,8.721116599353028,15.353651395355225,8.735524769353027Q15.426086395355224,8.749932949353028,15.499940395355225,8.749933009353027L15.499940395355225,8.750082969353027L19.499963395355223,8.750082969353027Q19.810618395355224,8.750082969353027,20.030288395355225,8.969748679353028Q20.249957395355224,9.189415599353028,20.249963395355223,9.500072099353027L20.250039395355223,14.499949499353027Q20.250045395355226,14.810613199353028,20.030374395355224,15.030286799353028Q19.810702395355225,15.249960899353027,19.500039395355223,15.249960899353027L15.500062395355224,15.249960899353027L15.500062395355224,15.250110599353027Q15.426208395355225,15.250110599353027,15.353773395355224,15.264518699353028Q15.281338395355224,15.278926899353028,15.213105395355225,15.307188999353027Q15.144874395355224,15.335451599353028,15.083467395355225,15.376482499353028Q15.022060395355224,15.417513399353027,14.969837395355224,15.469736099353028Q14.917614395355224,15.521958399353029,14.876583395355224,15.583365399353028Q14.835551395355225,15.644772499353028,14.807289395355225,15.713005099353026Q14.779027395355225,15.781236599353027,14.764619395355224,15.853671599353028Q14.750211395355224,15.926106499353027,14.750212395355225,15.999960899353027Q14.750211395355224,16.073814399353026,14.764619395355224,16.146248799353028Q14.779026395355224,16.218684199353028,14.807288395355224,16.286915799353025Q14.835551395355225,16.35514739935303,14.876582395355225,16.416554499353026Q14.917614395355224,16.47796149935303,14.969837395355224,16.53018469935303Q15.022060395355224,16.58240599935303,15.083467395355225,16.62343789935303Q15.144874395355224,16.664467799353027,15.213106395355224,16.692730899353027Q15.281339395355225,16.720993999353027,15.353773395355224,16.735402099353028Q15.426208395355225,16.74981019935303,15.500062395355224,16.749811199353026L15.500062395355224,16.749960899353027L19.500039395355223,16.749960899353027Q20.432031395355224,16.749960899353027,21.091043395355225,16.090938599353027Q21.750054395355225,15.431917199353027,21.750039395355223,14.499926599353028L21.749963395355223,9.500047999353027Q21.749948395355226,8.568077559353027,21.090942395355224,7.909080803353027Q20.431933395355223,7.250082969353027,19.499963395355223,7.250082969353027Z" fill-rule="evenodd" fill="#000000" fill-opacity="1" style="mix-blend-mode:passthrough"/></g></svg>