<svg xmlns="http://www.w3.org/2000/svg" xmlns:xlink="http://www.w3.org/1999/xlink" fill="none" version="1.1" width="24" height="24" viewBox="0 0 24 24"><defs><clipPath id="master_svg0_5565_08984"><rect x="0" y="0" width="24" height="24" rx="0"/></clipPath></defs><g clip-path="url(#master_svg0_5565_08984)"><g><path d="M12,21C16.970599999999997,21,21,16.970599999999997,21,12C21,7.02944,16.970599999999997,3,12,3C7.02944,3,3,7.02944,3,12C3,16.970599999999997,7.02944,21,12,21ZM12,4.2C16.3078,4.2,19.8,7.69218,19.8,12C19.8,16.3078,16.3078,19.8,12,19.8C7.69218,19.8,4.2,16.3078,4.2,12C4.2,7.69218,7.69218,4.2,12,4.2Z" fill-rule="evenodd" fill="#000000" fill-opacity="1"/></g><g><rect x="7" y="11.5" width="10" height="1.5" rx="0.75" fill="#000000" fill-opacity="1"/></g></g></svg>