<svg xmlns="http://www.w3.org/2000/svg" xmlns:xlink="http://www.w3.org/1999/xlink" fill="none" version="1.1" width="24" height="24" viewBox="0 0 24 24"><defs><clipPath id="master_svg0_5798_08810"><rect x="0" y="0" width="24" height="24" rx="0"/></clipPath></defs><g clip-path="url(#master_svg0_5798_08810)"><g></g><g><path d="M14.5205,2.2501914501190186Q13.018,2.2501914501190186,11.95567,3.3126684501190184L11.95563,3.3127094501190184L9.31271,5.955631450119018Q8.25019,7.017981450119018,8.25019,8.520501450119019Q8.25019,9.858201450119019,9.09236,10.846971450119018L7.46967,12.46967145011902Q7.36418,12.575161450119019,7.30709,12.712981450119019Q7.25,12.850811450119018,7.25,13.000001450119019L7.25,14.249991450119019L6,14.249991450119019Q5.926130000000001,14.249991450119019,5.853680000000001,14.26439145011902Q5.78123,14.27879145011902,5.71299,14.30709145011902Q5.6447400000000005,14.335391450119019,5.5833200000000005,14.37639145011902Q5.5219000000000005,14.417391450119018,5.46967,14.469691450119019Q5.41744,14.521891450119018,5.3764,14.583291450119019Q5.33536,14.64469145011902,5.3070900000000005,14.712991450119018Q5.27882,14.78119145011902,5.26441,14.853691450119019Q5.25,14.926091450119019,5.25,14.999991450119019L5.25,16.24999145011902L4,16.24999145011902Q3.850816,16.24999145011902,3.712988,16.307091450119017Q3.575159,16.36419145011902,3.46967,16.46969145011902L3.0556701,16.883691450119017Q3.0439625,16.89539145011902,3.0327827,16.90759145011902L2.9137828,17.037591450119017Q2.9026833,17.04969145011902,2.892126,17.06229145011902Q2.250244,17.82839145011902,2.25,18.82799145011902L2.25,19.99999145011902Q2.25,20.02239145011902,2.2513389999999998,20.044791450119018L2.258339,20.16179145011902Q2.259627,20.183291450119018,2.2621510000000002,20.204791450119018Q2.444172,21.74979145011902,4,21.74999145011902L5.172000000000001,21.74999145011902Q5.1891300000000005,21.74999145011902,5.20625,21.749191450119017L5.38125,21.741191450119018Q5.39698,21.74049145011902,5.41267,21.73909145011902Q6.409,21.651591450119017,7.11633,20.944291450119017L13.153,14.90759145011902Q14.1418,15.749791450119018,15.4795,15.749791450119018Q16.982,15.749791450119018,18.0443,14.687291450119018L20.6873,12.04437145011902Q21.7498,10.982011450119018,21.7498,9.479501450119018Q21.7498,7.976981450119019,20.6873,6.914671450119019L17.0854,3.3127104501190185Q16.023,2.2501914501190186,14.5205,2.2501914501190186ZM10.37329,7.016371450119019L13.0163,4.373331450119019L13.0164,4.3732914501190185Q13.6394,3.7501914501190186,14.5205,3.7501914501190186Q15.4016,3.7501914501190186,16.0246,4.3732914501190185L19.6267,7.975331450119018Q20.2498,8.598371450119018,20.2498,9.479501450119018Q20.2498,10.36062145011902,19.6267,10.983631450119018L16.9837,13.626691450119019Q16.360599999999998,14.249791450119018,15.4795,14.249791450119018Q14.5984,14.249791450119018,13.9754,13.626691450119019L13.6743,13.325691450119018Q13.5688,13.22019145011902,13.431,13.163091450119019Q13.2932,13.105991450119019,13.144,13.105991450119019Q12.99482,13.105991450119019,12.85699,13.163091450119019Q12.71916,13.22019145011902,12.61367,13.325691450119018L6.05567,19.88369145011902Q5.7392,20.200091450119018,5.2953600000000005,20.24359145011902L5.15486,20.24999145011902L4,20.24999145011902Q3.786118,20.24999145011902,3.754056,20.04539145011902L3.75,19.977591450119018L3.75,18.82799145011902Q3.750109,18.38129145011902,4.03249,18.036991450119018L4.12804,17.93259145011902L4.31066,17.74999145011902L6,17.74999145011902Q6.073869999999999,17.74999145011902,6.146319999999999,17.735591450119017Q6.21877,17.72119145011902,6.28701,17.69289145011902Q6.3552599999999995,17.66459145011902,6.4166799999999995,17.62359145011902Q6.4780999999999995,17.58259145011902,6.53033,17.530291450119016Q6.58256,17.478091450119017,6.6236,17.416691450119018Q6.66464,17.35529145011902,6.6929099999999995,17.286991450119018Q6.72118,17.21879145011902,6.73559,17.14629145011902Q6.75,17.07389145011902,6.75,16.99999145011902L6.75,15.749991450119019L8,15.749991450119019Q8.07387,15.749991450119019,8.14632,15.735591450119019Q8.21877,15.721191450119019,8.28701,15.692891450119019Q8.355260000000001,15.664591450119019,8.41668,15.623591450119019Q8.478100000000001,15.582591450119018,8.53033,15.530291450119018Q8.58256,15.478091450119019,8.6236,15.416691450119018Q8.66464,15.355291450119019,8.692910000000001,15.286991450119018Q8.72118,15.218791450119019,8.73559,15.14629145011902Q8.75,15.073891450119019,8.75,14.999991450119019L8.75,13.310691450119018L10.674330000000001,11.386331450119018Q10.77982,11.280841450119018,10.83691,11.143011450119019Q10.894,11.005181450119018,10.894,10.856001450119019Q10.894,10.70681145011902,10.83691,10.568981450119018Q10.77982,10.431161450119019,10.674330000000001,10.325671450119017L10.37333,10.024671450119019Q9.75019,9.40162145011902,9.75019,8.520501450119019Q9.75019,7.639371450119018,10.37329,7.016371450119019Z" fill-rule="evenodd" fill="#000000" fill-opacity="1" style="mix-blend-mode:passthrough"/></g><g><path d="M15,8Q14.9015086,8,14.80491,8.019214999999999Q14.708311,8.03843,14.617317,8.076121Q14.526322,8.113812,14.44443,8.16853Q14.362537,8.223249,14.292893,8.292893Q14.223249,8.362537,14.16853,8.44443Q14.113812,8.526322,14.076121,8.617317Q14.03843,8.708311,14.019214999999999,8.80491Q14,8.9015086,14,9Q14,9.0984914,14.019214999999999,9.19509Q14.03843,9.291689,14.076121,9.382683Q14.113812,9.473678,14.16853,9.55557Q14.223249,9.637463,14.292893,9.707107Q14.362537,9.776751,14.44443,9.83147Q14.526322,9.886188,14.617317,9.923879Q14.708311,9.96157,14.80491,9.980785000000001Q14.9015086,10,15,10L15.0100002,10L15,8Z" fill-rule="evenodd" fill="#000000" fill-opacity="1" style="mix-blend-mode:passthrough"/></g></g></svg>