<svg xmlns="http://www.w3.org/2000/svg" xmlns:xlink="http://www.w3.org/1999/xlink" fill="none" version="1.1" width="24" height="24" viewBox="0 0 24 24"><defs><clipPath id="master_svg0_91_01703"><rect x="0" y="0" width="24" height="24" rx="0"/></clipPath></defs><g clip-path="url(#master_svg0_91_01703)"><g><path d="M1.25,19L1.25,11Q1.25,9.860913,2.0554564,9.0554564Q2.860913,8.25,4,8.25L20,8.25Q21.1391,8.25,21.9445,9.0554562Q22.75,9.860913,22.75,11L22.75,19Q22.75,20.1391,21.9445,20.944499999999998Q21.1391,21.75,20,21.75L4,21.75Q2.860913,21.75,2.0554565,20.944499999999998Q1.25,20.1391,1.25,19ZM2.75,19Q2.75,19.5178,3.11612,19.8839Q3.48223,20.25,4,20.25L20,20.25Q20.5178,20.25,20.8839,19.8839Q21.25,19.5178,21.25,19L21.25,11Q21.25,10.48223,20.8839,10.11612Q20.5178,9.75,20,9.75L4,9.75Q3.48223,9.75,3.11612,10.11612Q2.75,10.48223,2.75,11L2.75,19Z" fill="#000000" fill-opacity="1" style="mix-blend-mode:passthrough"/></g><g><ellipse cx="7" cy="12" rx="1" ry="1" fill="#000000" fill-opacity="1" style="mix-blend-mode:passthrough"/></g><g><ellipse cx="8" cy="15" rx="1" ry="1" fill="#000000" fill-opacity="1" style="mix-blend-mode:passthrough"/></g><g><ellipse cx="5" cy="15" rx="1" ry="1" fill="#000000" fill-opacity="1" style="mix-blend-mode:passthrough"/></g><g><ellipse cx="10" cy="12" rx="1" ry="1" fill="#000000" fill-opacity="1" style="mix-blend-mode:passthrough"/></g><g><ellipse cx="11" cy="15" rx="1" ry="1" fill="#000000" fill-opacity="1" style="mix-blend-mode:passthrough"/></g><g><ellipse cx="13" cy="12" rx="1" ry="1" fill="#000000" fill-opacity="1" style="mix-blend-mode:passthrough"/></g><g><ellipse cx="14" cy="15" rx="1" ry="1" fill="#000000" fill-opacity="1" style="mix-blend-mode:passthrough"/></g><g><ellipse cx="16" cy="12" rx="1" ry="1" fill="#000000" fill-opacity="1" style="mix-blend-mode:passthrough"/></g><g><ellipse cx="17" cy="15" rx="1" ry="1" fill="#000000" fill-opacity="1" style="mix-blend-mode:passthrough"/></g><g><ellipse cx="19" cy="12" rx="1" ry="1" fill="#000000" fill-opacity="1" style="mix-blend-mode:passthrough"/></g><g><path d="M8.5,17.25L15.5,17.25Q15.57387,17.25,15.64632,17.264411Q15.71877,17.278822,15.78701,17.30709Q15.855260000000001,17.335359,15.91668,17.376398000000002Q15.978100000000001,17.417437,16.03033,17.46967Q16.08256,17.521903000000002,16.1236,17.583322Q16.16464,17.644742,16.19291,17.712987Q16.22118,17.781233,16.235590000000002,17.853682Q16.25,17.9261315,16.25,18Q16.25,18.0738685,16.235590000000002,18.146318Q16.22118,18.218767,16.19291,18.287013Q16.16464,18.355258,16.1236,18.416678Q16.08256,18.478096999999998,16.03033,18.53033Q15.978100000000001,18.582563,15.91668,18.623601999999998Q15.855260000000001,18.664641,15.78701,18.69291Q15.71877,18.721178,15.64632,18.735589Q15.57387,18.75,15.5,18.75L8.5,18.75Q8.4261315,18.75,8.353682,18.735589Q8.281233,18.721178,8.212987,18.69291Q8.144742,18.664641,8.083322,18.623601999999998Q8.021903,18.582563,7.96967,18.53033Q7.917437,18.478096999999998,7.876398,18.416678Q7.835359,18.355258,7.80709,18.287013Q7.778822,18.218767,7.764411,18.146318Q7.75,18.0738685,7.75,18Q7.75,17.9261315,7.764411,17.853682Q7.778822,17.781233,7.80709,17.712987Q7.835359,17.644742,7.876398,17.583322Q7.917437,17.521903000000002,7.96967,17.46967Q8.021903,17.417437,8.083322,17.376398000000002Q8.144742,17.335359,8.212987,17.30709Q8.281233,17.278822,8.353682,17.264411Q8.4261315,17.25,8.5,17.25Z" fill-rule="evenodd" fill="#000000" fill-opacity="1" style="mix-blend-mode:passthrough"/></g><g><path d="M13.25,3Q13.25,2.9261315,13.26441,2.853682Q13.27882,2.781233,13.30709,2.712987Q13.33536,2.644742,13.3764,2.583322Q13.41744,2.521903,13.46967,2.46967Q13.5219,2.417437,13.58332,2.376398Q13.64474,2.335359,13.71299,2.30709Q13.78123,2.278822,13.85368,2.264411Q13.92613,2.25,14,2.25Q14.07387,2.25,14.14632,2.264411Q14.21877,2.278822,14.28701,2.30709Q14.35526,2.335359,14.41668,2.376398Q14.4781,2.417437,14.53033,2.46967Q14.58256,2.521903,14.6236,2.583322Q14.66464,2.644742,14.69291,2.712987Q14.72118,2.781233,14.73559,2.853682Q14.75,2.9261315,14.75,3L14.75,4.5Q14.75,5.431979999999999,14.09099,6.09099Q13.43198,6.75,12.5,6.75Q12.18934,6.75,11.96967,6.96967Q11.75,7.18934,11.75,7.5L11.75,9Q11.75,9.07387,11.735589000000001,9.14632Q11.721178,9.21877,11.69291,9.28701Q11.664641,9.355260000000001,11.623602,9.41668Q11.582563,9.478100000000001,11.53033,9.53033Q11.478097,9.58256,11.416678,9.6236Q11.355258,9.66464,11.287013,9.692910000000001Q11.218767,9.72118,11.146318,9.73559Q11.0738685,9.75,11,9.75Q10.9261315,9.75,10.853682,9.73559Q10.781233,9.72118,10.712987,9.692910000000001Q10.644742,9.66464,10.583322,9.6236Q10.521903,9.58256,10.46967,9.53033Q10.417437,9.478100000000001,10.376398,9.41668Q10.335359,9.355260000000001,10.30709,9.28701Q10.278822,9.21877,10.264410999999999,9.14632Q10.25,9.07387,10.25,9L10.25,7.5Q10.25,6.568020000000001,10.9090097,5.90901Q11.568019,5.25,12.5,5.25Q12.81066,5.25,13.03033,5.03033Q13.25,4.81066,13.25,4.5L13.25,3Z" fill-rule="evenodd" fill="#000000" fill-opacity="1" style="mix-blend-mode:passthrough"/></g></g></svg>