<?xml version="1.0" encoding="UTF-8"?>
<svg id="_图层_1" data-name="图层 1" xmlns="http://www.w3.org/2000/svg" viewBox="0 0 24 24">
  <path d="M3.2,4.38v15.4H20.8V4.38H3.2Zm-1.1-2.2H21.9c.61,0,1.1,.49,1.1,1.1h0V20.88c0,.61-.49,1.1-1.1,1.1H2.1c-.61,0-1.1-.49-1.1-1.1h0V3.28c0-.61,.49-1.1,1.1-1.1h0ZM6.39,6.58h2.2v2.2h-2.2s0-2.2,0-2.2Zm0,4.4h2.2v2.2h-2.2s0-2.2,0-2.2Zm0,4.4h11.22v2.2H6.39v-2.2Zm4.51-4.4h2.2v2.2h-2.2s0-2.2,0-2.2Zm0-4.4h2.2v2.2h-2.2s0-2.2,0-2.2Zm4.51,0h2.2v2.2h-2.2s0-2.2,0-2.2Zm0,4.4h2.2v2.2h-2.2s0-2.2,0-2.2Z"/>
</svg>