<svg xmlns="http://www.w3.org/2000/svg" xmlns:xlink="http://www.w3.org/1999/xlink" fill="none" version="1.1" width="24" height="24" viewBox="0 0 24 24"><defs><clipPath id="master_svg0_6057_02811"><rect x="0" y="0" width="24" height="24" rx="0"/></clipPath></defs><g clip-path="url(#master_svg0_6057_02811)"><g><path d="M21.651662269958496,17.651651Q22.750012269958496,16.553303,22.750012269958496,15.0000029L22.750012269958496,9Q22.750012269958496,7.4466991,21.651664269958495,6.34834963Q20.553313269958498,5.25000006,19.000012269958496,5.25L4.999968969958497,5.25Q3.4466620699584958,5.25,2.3483114199584962,6.3483561Q1.249960599958496,7.4467123,1.249968289958496,9.0000186L1.2499976799584962,15.0000181Q1.250005299958496,16.553314,2.3483537999584962,17.651657Q3.446702269958496,18.75,4.999998369958496,18.75L19.000012269958496,18.75Q20.553313269958498,18.75,21.651662269958496,17.651651ZM21.250012269958496,9L21.250012269958496,15Q21.250012269958496,15.931982,20.591002269958498,16.590989999999998Q19.931994269958498,17.25,19.000012269958496,17.25L4.999998369958496,17.25Q4.0680203699584965,17.25,3.4090113699584963,16.590994000000002Q2.750002269958496,15.9319878,2.749997739958496,15.0000105L2.7499682899584963,9.0000114Q2.749963639958496,8.0680273,3.408974169958496,7.4090136Q4.0679845699584956,6.75,4.999968969958497,6.75L19.000012269958496,6.75Q19.931992269958496,6.75,20.591002269958498,7.4090098Q21.250012269958496,8.0680208,21.250012269958496,9Z" fill-rule="evenodd" fill="#000000" fill-opacity="1"/></g><g><path d="M10.0025000493,13.0000031L14,13.00999707L14.002500099999999,13.01000333Q14.1008339,13.010249139999999,14.197235599999999,13.02964401Q14.293637799999999,13.04903889,14.3844156,13.0868398Q14.475193,13.1246407,14.556869500000001,13.17939967Q14.638545,13.23415864,14.707990200000001,13.30377793Q14.7774358,13.373397109999999,14.8319902,13.45520973Q14.8865452,13.53702235,14.924119000000001,13.62789431Q14.9616928,13.71876624,14.9808464,13.81521642Q15,13.911666594,15,14.010000229Q15,14.10849162,14.9807854,14.20509052Q14.9615703,14.30168942,14.9238791,14.3926836Q14.8861885,14.48367777,14.8314695,14.56557035Q14.7767506,14.64746296,14.7071066,14.71710694Q14.6374626,14.78675091,14.5555696,14.84146976Q14.4736767,14.89618868,14.382682800000001,14.93387973Q14.2916884,14.97157073,14.1950893,14.99078548Q14.0984907,15.0100002,14,15.0100002L13.997499900000001,15.0099971L10,15L9.9974999507,14.9999969Q9.89916662,14.99975109,9.80276462,14.980356220000001Q9.70636263,14.96096134,9.61558494,14.92316043Q9.52480721,14.88535953,9.44313121,14.83060056Q9.36145526,14.77584159,9.29200989,14.7062223Q9.22256446,14.63660312,9.16800988,14.5547905Q9.1134553,14.47297788,9.07588142,14.38210592Q9.03830755,14.29123399,9.019153769999999,14.19478381Q9,14.098333634,9,14Q9.00000006,13.9015086,9.01921481,13.80490969Q9.03842956,13.70831078,9.07612062,13.6173166Q9.113811609999999,13.52632242,9.16853046,13.44442987Q9.22324938,13.36253726,9.29289329,13.29289329Q9.36253726,13.22324938,9.44442981,13.168530520000001Q9.52632242,13.113811609999999,9.6173166,13.07612056Q9.70831078,13.0384295,9.80490969,13.01921481Q9.9015086,13.00000006,10,13L10.0025000493,13.0000031Z" fill-rule="evenodd" fill="#000000" fill-opacity="1"/></g><g><ellipse cx="6.0048828125" cy="10.010009765625" rx="1" ry="1" fill="#000000" fill-opacity="1"/></g><g><ellipse cx="10" cy="10.010009765625" rx="1" ry="1" fill="#000000" fill-opacity="1"/></g><g><ellipse cx="14.0048828125" cy="10.010009765625" rx="1" ry="1" fill="#000000" fill-opacity="1"/></g><g><ellipse cx="18.0048828125" cy="10.010009765625" rx="1" ry="1" fill="#000000" fill-opacity="1"/></g><g><ellipse cx="18.0048828125" cy="14.010009765625" rx="1" ry="1" fill="#000000" fill-opacity="1"/></g><g><ellipse cx="6" cy="14.010009765625" rx="1" ry="1" fill="#000000" fill-opacity="1"/></g></g></svg>