<svg xmlns="http://www.w3.org/2000/svg" xmlns:xlink="http://www.w3.org/1999/xlink" fill="none" version="1.1" width="24" height="24" viewBox="0 0 24 24"><defs><clipPath id="master_svg0_240_18379"><rect x="0" y="0" width="24" height="24" rx="0"/></clipPath></defs><g clip-path="url(#master_svg0_240_18379)"><g><path d="M4.04998779296875,22.350003051757813L4.04998779296875,1.0500030517578125L15.23788779296875,1.0500030517578125L20.54998779296875,6.3621030517578125L20.54998779296875,22.350003051757813L4.04998779296875,22.350003051757813Z" fill="#FFFFFF" fill-opacity="1" style="mix-blend-mode:passthrough"/></g><g><path d="M15.1758244140625,1.199993896484375L20.4000244140625,6.424193896484375L20.4000244140625,22.199993896484376L4.2000244140625,22.199993896484376L4.2000244140625,1.199993896484375L15.1758244140625,1.199993896484375ZM15.3000244140625,0.899993896484375L3.9000244140625,0.899993896484375L3.9000244140625,22.499993896484376L20.7000244140625,22.499993896484376L20.7000244140625,6.299993896484375L15.3000244140625,0.899993896484375Z" fill="#D1D5DB" fill-opacity="1"/></g><g><path d="M15.1500244140625,6.450003051757813L15.1500244140625,1.0500030517578125L15.2379242140625,1.0500030517578125L20.5500244140625,6.3621030517578125L20.5500244140625,6.450003051757813L15.1500244140625,6.450003051757813Z" fill="#FFFFFF" fill-opacity="1" style="mix-blend-mode:passthrough"/></g><g><path d="M15.3,1.324193896484375L20.2758,6.299993896484375L15.3,6.299993896484375L15.3,1.324193896484375ZM15.3,0.899993896484375L15,0.899993896484375L15,6.599993896484375L20.7,6.599993896484375L20.7,6.299993896484375L15.3,0.899993896484375Z" fill="#D1D5DB" fill-opacity="1"/></g><g transform="matrix(1,0,0,-1,0,32.7552490234375)"><path d="M17.2129244140625,19.38316451171875Q17.077824414062498,19.24004451171875,16.9461244140625,18.83599451171875Q16.3633544140625,16.97514151171875,14.2209244140625,16.50856451171875Q13.8402944140625,16.42768061171875,13.4732744140625,16.40308031171875Q13.0970744140625,16.37786627571875,12.250974414062501,16.37786627571875Q11.0907144140625,16.37331474171875,10.5577844140625,16.45445821171875Q10.0151144140625,16.53708151171875,9.4333344140625,16.81141851171875Q8.8188544140625,17.10425751171875,8.4163444140625,17.57068451171875Q8.0186944140625,18.03149451171875,7.7624364140625,18.73858451171875Q7.6128004140625,19.16748451171875,7.4247584140625005,19.41821451171875Q6.5440854140625,20.58606451171875,7.1414664140625,23.80274451171875Q7.2254934140625,24.26021451171875,7.2721284140625,24.401144511718748Q7.3614094140625,24.67097451171875,7.5752094140625,24.67097451171875Q7.7537414140625,24.67097451171875,7.8571514140625,24.49369451171875Q7.9124344140625,24.39894451171875,7.9745444140625,24.18158451171875Q8.1594544140625,23.50358451171875,8.2216844140625,23.427594511718752Q8.2524744140625,23.44136451171875,8.3026544140625,23.47926451171875Q8.4165244140625,23.56519451171875,8.7095044140625,23.86061451171875Q9.196354414062501,24.35216451171875,9.6412644140625,24.63799451171875Q10.0961744140625,24.93029451171875,10.6760644140625,25.11735451171875Q10.8672144140625,25.181074511718748,11.000594414062501,25.24273451171875Q11.0374944140625,25.25978451171875,11.0612544140625,25.27278451171875Q11.1223944140625,25.38248451171875,11.294324414062501,25.49372451171875Q11.4904444140625,25.62059451171875,11.696034414062499,25.68740451171875Q11.921114414062501,25.75880451171875,12.3132344140625,25.718024511718752Q12.6907344140625,25.67879451171875,12.9543144140625,25.56727451171875L12.958744414062501,25.56540451171875L12.9630844140625,25.56333451171875Q13.2784444140625,25.41196451171875,13.339654414062501,25.24528451171875Q13.381564414062499,25.225104511718747,13.4603544140625,25.20467451171875Q15.1518644140625,24.77218451171875,16.1260944140625,23.39685451171875Q16.1422144140625,23.374394511718748,16.1562244140625,23.35555451171875Q16.1951744140625,23.38247451171875,16.2418044140625,23.40449451171875Q16.2528444140625,23.417364511718752,16.2671844140625,23.43949451171875Q16.3131144140625,23.51028451171875,16.3455244140625,23.60032451171875L16.4410544140625,23.872034511718752L16.537104414062497,24.14511451171875Q16.664424414062502,24.49885451171875,16.8456044140625,24.58845451171875Q17.0648244140625,24.70809451171875,17.2041244140625,24.53126451171875Q17.2628244140625,24.45665451171875,17.3322244140625,24.21103451171875Q17.7000244140625,22.94620451171875,17.7000244140625,21.406764511718748Q17.7000244140625,20.73205451171875,17.678124414062502,20.50351451171875Q17.6534244140625,20.24674451171875,17.554424414062503,19.98935451171875Q17.4108244140625,19.59419451171875,17.2129244140625,19.38316451171875ZM16.2505344140625,23.408554511718748Q16.255364414062498,23.410984511718752,16.2615844140625,23.41346451171875L16.2560544140625,23.41102451171875Q16.2532544140625,23.40977451171875,16.2505344140625,23.408554511718748ZM11.0332244140625,25.20163451171875Q11.027524414062501,25.17685451171875,11.027524414062501,25.152164511718752Q11.027524414062501,25.17852451171875,11.0332244140625,25.20163451171875ZM14.1344944140625,16.90539651171875Q16.0469344140625,17.32188351171875,16.5588744140625,18.95843451171875L16.5596044140625,18.96067451171875Q16.7196544140625,19.45237451171875,16.9166244140625,19.66093451171875Q17.0575244140625,19.81122451171875,17.175424414062498,20.13514451171875Q17.2544244140625,20.34077451171875,17.2738244140625,20.54233451171875Q17.293924414062502,20.75146451171875,17.293924414062502,21.406764511718748Q17.293924414062502,22.87505451171875,16.9477244140625,24.07879451171875Q16.9330244140625,24.045934511718748,16.920224414062503,24.01040451171875L16.8241944140625,23.73731451171875L16.7276544140625,23.46277451171875Q16.6006244140625,23.109924511718752,16.4160744140625,23.03762451171875Q16.3799244140625,23.02065451171875,16.3685944140625,23.00091451171875Q16.3034544140625,22.89231451171875,16.1856744140625,22.87858451171875Q16.0869444140625,22.86705451171875,15.9954444140625,22.93422451171875Q15.9169744140625,22.99189451171875,15.7946444140625,23.16206451171875Q14.9067144140625,24.41567451171875,13.3584544140625,24.811534511718747Q13.0105244140625,24.90174451171875,12.9576844140625,25.09262451171875Q12.9521644140625,25.097254511718752,12.9450144140625,25.10277451171875Q12.8833244140625,25.15066451171875,12.791694414062501,25.19509451171875C12.585014414062499,25.28147451171875,12.6300244140625,25.30117451171875,12.2712344140625,25.31408451171875Q11.9617744140625,25.32522451171875,11.8215644140625,25.30117451171875Q11.6664644140625,25.250774511718753,11.5149744140625,25.152734511718748Q11.452234414062499,25.11215451171875,11.420224414062499,25.08133451171875L11.4131644140625,25.07459451171875Q11.4336744140625,25.105784511718753,11.4336744140625,25.152164511718752Q11.4336744140625,24.94178451171875,10.8007444140625,24.73084451171875Q10.2711944140625,24.560014511718748,9.8607944140625,24.296314511718748Q9.4534644140625,24.03460451171875,8.997874414062501,23.57461451171875Q8.6844144140625,23.25856451171875,8.5473444140625,23.155084511718748Q8.2922744140625,22.96253451171875,8.0899844140625,23.03828451171875Q7.9077544140625005,23.106464511718748,7.7863664140625,23.41119451171875Q7.7181434140625,23.58245451171875,7.5972744140625,24.02164451171875Q7.5723054140625,23.90025451171875,7.5407734140625,23.72858451171875Q6.9760516140625,20.68778451171875,7.7496634140625,19.66189451171875Q7.9755144140625,19.36075451171875,8.1442644140625,18.87696451171875Q8.3750444140625,18.24020451171875,8.7238244140625,17.83602451171875Q9.0705844140625,17.43418451171875,9.6065544140625,17.17875851171875Q10.1347844140625,16.92967551171875,10.6189144140625,16.85596351171875Q11.1206644140625,16.77956851171875,12.250974414062501,16.78399951171875Q13.083464414062501,16.78399951171875,13.4461044140625,16.80830451171875Q13.7842044140625,16.83096651171875,14.1344944140625,16.90539651171875Z" fill-rule="evenodd" fill="#2563EB" fill-opacity="1"/></g><g transform="matrix(1,0,0,-1,0,27.542755126953125)"><path d="M9.43376933984375,17.60248756347656C9.07963333984375,17.506447563476563,8.84554533984375,17.28436756347656,8.65947533984375,16.882207563476562C8.53943013984375,16.606107563476563,8.52142333984375,16.486067563476563,8.52142333984375,15.699767563476563C8.52142333984375,14.847447563476562,8.52742562984375,14.817437563476563,8.70149133984375,14.475303563476562C8.83954333984375,14.205200563476563,8.95358533984375,14.079154563476562,9.16966933984375,13.941102563476562C9.55381333984375,13.707014263476562,9.86593333984375,13.713016463476562,10.66423333984375,13.989120563476563C11.83467333984375,14.391270563476562,12.33886333984375,14.391270563476562,13.50931333984375,13.995123563476563C14.733763339843751,13.574964563476563,15.31599333984375,13.731023263476562,15.70612333984375,14.595348563476563C15.91020333984375,15.045517563476562,15.934213339843751,16.08390756347656,15.76014333984375,16.666137563476564C15.43604333984375,17.71652756347656,14.76377333984375,17.932617563476562,13.50329333984375,17.386407563476563C12.90307333984375,17.12230756347656,12.90307333984375,17.12230756347656,12.18281333984375,17.12830756347656C11.44452333984375,17.12830756347656,11.42052333984375,17.13430756347656,10.62221333984375,17.46443756347656C10.16004333984375,17.656507563476563,9.79390333984375,17.698527563476564,9.43376933984375,17.60248756347656ZM10.76627333984375,16.330007563476563C10.98235333984375,16.05389756347656,10.92833333984375,15.189577563476563,10.68824333984375,15.033517563476563C10.56819333984375,14.949487563476563,10.35211333984375,14.985497563476562,10.23207333984375,15.105537563476563C10.13003333984375,15.207587563476562,10.11202333984375,15.303617563476562,10.11202333984375,15.723777563476563C10.11202333984375,16.143937563476563,10.13003333984375,16.24596756347656,10.23207333984375,16.354017563476564C10.40013333984375,16.53408756347656,10.61621333984375,16.522077563476564,10.76627333984375,16.330007563476563ZM14.09751333984375,16.299997563476563C14.25359333984375,16.179947563476563,14.25960333984375,16.155937563476563,14.24156333984375,15.633737563476563C14.22357333984375,15.129547563476562,14.21155333984375,15.081537563476562,14.06754333984375,14.973487563476562C13.94147333984375,14.877457563476563,13.88746333984375,14.871457563476563,13.76139333984375,14.925477563476562C13.55134333984375,15.021507563476563,13.47328333984375,15.219587563476562,13.47328333984375,15.651747563476562C13.47328333984375,16.305997563476563,13.73739333984375,16.582097563476562,14.09751333984375,16.299997563476563Z" fill="#2563EB" fill-opacity="1"/></g><g><path d="M9.3649355859375,19.677658081054688L9.6241355859375,19.677658081054688L9.6241355859375,19.265818081054686L9.9178955859375,18.923098081054686L10.3758155859375,19.677658081054688L10.6609355859375,19.677658081054688L10.0705355859375,18.74453808105469L10.5918155859375,18.11381808105469L10.298055585937501,18.11381808105469L9.6356555859375,18.937498081054688L9.6241355859375,18.937498081054688L9.6241355859375,17.385178081054686L9.3649355859375,17.385178081054686L9.3649355859375,19.677658081054688ZM10.9546955859375,19.677658081054688L11.219655585937499,19.677658081054688L11.219655585937499,18.672538081054686C11.3233355859375,18.407578081054687,11.4817355859375,18.30965808105469,11.6113355859375,18.30965808105469C11.6775755859375,18.30965808105469,11.7121355859375,18.31829808105469,11.7639755859375,18.33557808105469L11.812935585937499,18.108058081054686C11.7639755859375,18.082138081054687,11.7150155859375,18.073498081054687,11.6458955859375,18.073498081054687C11.4730955859375,18.073498081054687,11.3118155859375,18.200218081054686,11.2023755859375,18.398938081054688L11.1966155859375,18.398938081054688L11.1706955859375,18.11381808105469L10.9546955859375,18.11381808105469L10.9546955859375,19.677658081054688ZM12.0721355859375,20.337178081054688L12.3370955859375,20.337178081054688L12.3370955859375,19.807258081054687L12.3284555859375,19.53365808105469C12.4695755859375,19.651738081054688,12.619335585937499,19.715098081054688,12.7604555859375,19.715098081054688C13.1175755859375,19.715098081054688,13.440135585937501,19.406938081054687,13.440135585937501,18.871258081054687C13.440135585937501,18.387418081054687,13.221255585937499,18.073498081054687,12.8180555859375,18.073498081054687C12.6366155859375,18.073498081054687,12.4609355859375,18.177178081054688,12.3198155859375,18.295258081054687L12.3140555859375,18.295258081054687L12.2881355859375,18.11381808105469L12.0721355859375,18.11381808105469L12.0721355859375,20.337178081054688ZM12.717255585937501,19.493338081054688C12.6135755859375,19.493338081054688,12.4753355859375,19.453018081054687,12.3370955859375,19.332058081054686L12.3370955859375,18.508378081054687C12.4868555859375,18.370138081054687,12.6222155859375,18.295258081054687,12.7518155859375,18.295258081054687C13.051335585937501,18.295258081054687,13.166535585937499,18.525658081054686,13.166535585937499,18.87413808105469C13.166535585937499,19.260058081054687,12.9764555859375,19.493338081054688,12.717255585937501,19.493338081054688ZM14.1716555859375,19.715098081054688C14.3646155859375,19.715098081054688,14.5402955859375,19.614298081054688,14.6900555859375,19.490458081054687L14.6986955859375,19.490458081054687L14.7217355859375,19.677658081054688L14.9377355859375,19.677658081054688L14.9377355859375,18.71573808105469C14.9377355859375,18.32693808105469,14.779335585937499,18.073498081054687,14.3962955859375,18.073498081054687C14.1428555859375,18.073498081054687,13.9239755859375,18.185818081054688,13.7828555859375,18.277978081054687L13.8836555859375,18.459418081054686C14.0074955859375,18.375898081054686,14.1716555859375,18.292378081054686,14.3530955859375,18.292378081054686C14.6094155859375,18.292378081054686,14.6756555859375,18.48533808105469,14.6756555859375,18.686938081054688C14.0103755859375,18.761818081054688,13.7166155859375,18.93173808105469,13.7166155859375,19.271578081054688C13.7166155859375,19.553818081054686,13.9095755859375,19.715098081054688,14.1716555859375,19.715098081054688ZM14.246535585937501,19.501978081054688C14.0910155859375,19.501978081054688,13.9700555859375,19.432858081054686,13.9700555859375,19.25429808105469C13.9700555859375,19.052698081054686,14.148615585937499,18.923098081054686,14.6756555859375,18.862618081054688L14.6756555859375,19.297498081054687C14.5230155859375,19.432858081054686,14.3962955859375,19.501978081054688,14.246535585937501,19.501978081054688Z" fill="#374151" fill-opacity="1"/></g></g></svg>