<svg xmlns="http://www.w3.org/2000/svg" xmlns:xlink="http://www.w3.org/1999/xlink" fill="none" version="1.1" width="24" height="24" viewBox="0 0 24 24"><defs><clipPath id="master_svg0_6090_02706"><rect x="0" y="0" width="24" height="24" rx="0"/></clipPath></defs><g clip-path="url(#master_svg0_6090_02706)"><g><path d="M7.2498779296875,6.0001220703125L7.2498779296875,14.0001220703125Q7.2498779296875,15.1392110703125,8.0553347016875,15.9446670703125Q8.8607910296875,16.7501220703125,9.9998779296875,16.7501220703125L17.999879929687502,16.7501220703125Q19.1389679296875,16.7501220703125,19.944422929687498,15.9446660703125Q20.7498779296875,15.1392100703125,20.7498779296875,14.0001220703125L20.7498779296875,6.0001220703125Q20.7498779296875,4.8610349903125,19.9444219296875,4.0555786193125Q19.1389659296875,3.2501220703125,17.9998779296875,3.2501220703125L9.9998779296875,3.2501220703125Q8.8607908496875,3.2501220703125,8.0553343446875,4.0555784853125Q7.2498779296875,4.8610348703125,7.2498779296875,6.0001220703125ZM9.1159941296875,14.8840050703125Q8.7498779296875,14.5178900703125,8.7498779296875,14.0001240703125L8.7498779296875,6.0001220703125Q8.7498779296875,5.4823550703125,9.1159944296875,5.1162385703125Q9.4821109296875,4.7501220703125,9.9998779296875,4.7501220703125L17.9998779296875,4.7501220703125Q18.5176459296875,4.7501220703125,18.883761929687502,5.1162384703125Q19.2498779296875,5.4823545703125,19.2498779296875,6.0001220703125L19.2498779296875,14.0001220703125Q19.2498779296875,14.5178900703125,18.8837609296875,14.8840060703125Q18.5176459296875,15.2501220703125,17.999879929687502,15.2501220703125L9.9998779296875,15.2501220703125Q9.4821112296875,15.2501220703125,9.1159941296875,14.8840050703125Z" fill-rule="evenodd" fill="#231F2E" fill-opacity="1"/></g><g><path d="M3.2501220703125,9.9998779296875L3.2501220703125,17.9998779296875Q3.2501220703125,19.1389669296875,4.0555788423125,19.944422929687498Q4.8610351703125,20.7498779296875,6.0001220703125,20.7498779296875L14.0001240703125,20.7498779296875Q15.1392120703125,20.7498779296875,15.9446670703125,19.9444219296875Q16.7501220703125,19.1389659296875,16.7501220703125,17.9998779296875L16.7501220703125,9.9998779296875Q16.7501220703125,8.8607908496875,15.9446660703125,8.0553344786875Q15.1392100703125,7.2498779296875,14.0001220703125,7.2498779296875L6.0001220703125,7.2498779296875Q4.8610349903125,7.2498779296875,4.0555784853125,8.0553343446875Q3.2501220703125,8.8607907296875,3.2501220703125,9.9998779296875ZM5.1162382703125004,18.8837609296875Q4.7501220703125,18.5176459296875,4.7501220703125,17.999879929687502L4.7501220703125,9.9998779296875Q4.7501220703125,9.4821109296875,5.1162385703125,9.1159944296875Q5.4823550703125,8.7498779296875,6.0001220703125,8.7498779296875L14.0001220703125,8.7498779296875Q14.5178900703125,8.7498779296875,14.8840060703125,9.1159943296875Q15.2501220703125,9.4821104296875,15.2501220703125,9.9998779296875L15.2501220703125,17.9998779296875Q15.2501220703125,18.5176459296875,14.8840050703125,18.883761929687502Q14.5178900703125,19.2498779296875,14.0001240703125,19.2498779296875L6.0001220703125,19.2498779296875Q5.4823553703125,19.2498779296875,5.1162382703125004,18.8837609296875Z" fill-rule="evenodd" fill="#2882FF" fill-opacity="1"/></g></g></svg>