<svg xmlns="http://www.w3.org/2000/svg" xmlns:xlink="http://www.w3.org/1999/xlink" fill="none" version="1.1" width="24" height="24" viewBox="0 0 24 24"><defs><clipPath id="master_svg0_5732_08121"><rect x="0" y="0" width="24" height="24" rx="0"/></clipPath></defs><g clip-path="url(#master_svg0_5732_08121)"><g><path d="M15.53033,6.53033Q15.635819999999999,6.424841,15.692910000000001,6.287013Q15.75,6.149184,15.75,6Q15.75,5.9261315,15.73559,5.853682Q15.72118,5.781233,15.692910000000001,5.712987Q15.66464,5.644742,15.6236,5.583322Q15.58256,5.521903,15.53033,5.46967Q15.478100000000001,5.417437,15.41668,5.376398Q15.355260000000001,5.335359,15.28701,5.30709Q15.21877,5.278822,15.14632,5.264411Q15.07387,5.25,15,5.25Q14.850819999999999,5.25,14.71299,5.30709Q14.57516,5.364181,14.46967,5.46967L14.46921,5.4701319999999996L8.46967,11.46967Q8.364181,11.57516,8.30709,11.71299Q8.25,11.850819999999999,8.25,12Q8.25,12.149180000000001,8.30709,12.28701Q8.364181,12.42484,8.46967,12.53033L14.46967,18.5303Q14.57516,18.6358,14.71299,18.6929Q14.850819999999999,18.75,15,18.75Q15.07387,18.75,15.14632,18.735599999999998Q15.21877,18.7212,15.28701,18.6929Q15.355260000000001,18.6646,15.41668,18.6236Q15.478100000000001,18.5826,15.53033,18.5303Q15.58256,18.478099999999998,15.6236,18.4167Q15.66464,18.3553,15.692910000000001,18.287Q15.72118,18.2188,15.73559,18.1463Q15.75,18.073900000000002,15.75,18Q15.75,17.8508,15.692910000000001,17.713Q15.635819999999999,17.575200000000002,15.53033,17.4697L10.06066,12L15.529869999999999,6.530792L15.53033,6.53033L15.53033,6.53033Z" fill-rule="evenodd" fill="#000000" fill-opacity="1" style="mix-blend-mode:passthrough"/></g></g></svg>