<svg xmlns="http://www.w3.org/2000/svg" xmlns:xlink="http://www.w3.org/1999/xlink" fill="none" version="1.1" width="24" height="24" viewBox="0 0 24 24"><defs><clipPath id="master_svg0_6057_02697"><rect x="0" y="0" width="24" height="24" rx="0"/></clipPath></defs><g clip-path="url(#master_svg0_6057_02697)"><g><path d="M16.25,7L16.25,5Q16.25,4.3146045,16.541615,3.75L8,3.75Q7.0680189,3.75,6.4090095,4.4090096Q5.75,5.0680189,5.75,6L5.75,16.25L13,16.25Q13.073868,16.25,13.146317,16.264409999999998Q13.218765,16.278821,13.287011,16.307088999999998Q13.355257,16.335358,13.416676,16.376396Q13.478096,16.417437,13.530329,16.469669Q13.582561,16.521902,13.623602,16.583320999999998Q13.66464,16.64474,13.692909,16.712986Q13.721178,16.781232,13.735588,16.853682Q13.75,16.92613,13.75,17L13.75,19Q13.75,20.25,15,20.25Q16.25,20.25,16.25,19L16.25,7ZM12.5416155,20.25Q12.25,19.685396,12.25,19L12.25,17.75L3.75,17.75L3.75,18Q3.75,18.93198,4.4090096,19.59099Q5.0680194,20.25,6,20.25L12.5416155,20.25ZM4.25,16.25L4.25,6Q4.25,4.4466994,5.348349600000001,3.34834945Q6.4466991,2.25,8,2.25L19,2.25Q20.139088,2.25,20.944544,3.05545646Q21.75,3.86091292,21.75,5Q21.75,6.1390872000000005,20.944544,6.944543599999999Q20.139088,7.75,19,7.75L17.75,7.75L17.75,19Q17.75,20.139088,16.944544,20.944544Q16.139088,21.75,15,21.75L6,21.75Q4.4466982,21.75,3.34834945,20.651651Q2.25,19.553303,2.25,18L2.25,17Q2.25,16.92613,2.26441109,16.853682Q2.27882212,16.781232,2.3070904,16.712986Q2.33535868,16.64474,2.37639785,16.583320999999998Q2.41743702,16.521902,2.46966994,16.469669Q2.52190292,16.417437,2.58332238,16.376397Q2.64474183,16.335358,2.71298748,16.307090000000002Q2.78123312,16.278821999999998,2.85368228,16.264411000000003Q2.926131457,16.25,3,16.25L4.25,16.25ZM17.75,6.25L19,6.25Q20.25,6.25,20.25,5Q20.25,3.75,19,3.75Q17.75,3.75,17.75,5L17.75,6.25Z" fill-rule="evenodd" fill="#000000" fill-opacity="1" style="mix-blend-mode:passthrough"/></g><g><path d="M9,6.25L13,6.25Q13.0738688,6.25,13.1463175,6.26441109Q13.2187667,6.27882212,13.2870121,6.3070904Q13.355258,6.33535868,13.416677,6.37639785Q13.478097,6.41743702,13.5303297,6.46966994Q13.5825624,6.52190292,13.6236019,6.58332238Q13.6646409,6.64474183,13.692909199999999,6.71298748Q13.7211776,6.78123312,13.735589000000001,6.85368228Q13.75,6.926131457,13.75,7Q13.75,7.073868543,13.735589000000001,7.14631772Q13.7211776,7.21876688,13.692909199999999,7.28701252Q13.6646409,7.35525817,13.6236019,7.41667762Q13.5825624,7.47809708,13.5303297,7.53033006Q13.478097,7.58256298,13.416677,7.62360215Q13.355258,7.66464132,13.2870121,7.6929096Q13.2187667,7.72117788,13.1463175,7.73558891Q13.0738688,7.75,13,7.75L9,7.75Q8.926131457,7.75,8.85368228,7.73558891Q8.78123312,7.72117788,8.71298748,7.6929096Q8.64474183,7.66464132,8.58332238,7.62360215Q8.52190292,7.58256298,8.46966994,7.53033006Q8.41743702,7.47809708,8.37639785,7.41667762Q8.33535868,7.35525817,8.3070904,7.28701252Q8.27882212,7.21876688,8.26441109,7.14631772Q8.25,7.073868543,8.25,7Q8.25,6.926131457,8.26441109,6.85368228Q8.27882212,6.78123312,8.3070904,6.71298748Q8.33535868,6.64474183,8.37639785,6.58332238Q8.41743702,6.52190292,8.46966994,6.46966994Q8.52190292,6.41743702,8.58332238,6.37639785Q8.64474183,6.33535868,8.71298748,6.3070904Q8.78123312,6.27882212,8.85368228,6.26441109Q8.926131457,6.25,9,6.25Z" fill-rule="evenodd" fill="#000000" fill-opacity="1" style="mix-blend-mode:passthrough"/></g><g><path d="M9,10.25L13,10.25Q13.0738688,10.25,13.1463175,10.26441109Q13.2187667,10.27882212,13.2870121,10.3070904Q13.355258,10.33535868,13.416677,10.37639785Q13.478097,10.41743702,13.5303297,10.46966994Q13.5825624,10.52190292,13.6236019,10.58332238Q13.6646409,10.64474183,13.692909199999999,10.71298748Q13.7211776,10.78123312,13.735589000000001,10.85368228Q13.75,10.926131457,13.75,11Q13.75,11.073868543,13.735589000000001,11.14631772Q13.7211776,11.21876688,13.692909199999999,11.28701252Q13.6646409,11.35525817,13.6236019,11.41667762Q13.5825624,11.47809708,13.5303297,11.53033006Q13.478097,11.58256298,13.416677,11.62360215Q13.355258,11.66464132,13.2870121,11.6929096Q13.2187667,11.72117788,13.1463175,11.73558891Q13.0738688,11.75,13,11.75L9,11.75Q8.926131457,11.75,8.85368228,11.73558891Q8.78123312,11.72117788,8.71298748,11.6929096Q8.64474183,11.66464132,8.58332238,11.62360215Q8.52190292,11.58256298,8.46966994,11.53033006Q8.41743702,11.47809708,8.37639785,11.41667762Q8.33535868,11.35525817,8.3070904,11.28701252Q8.27882212,11.21876688,8.26441109,11.14631772Q8.25,11.073868543,8.25,11Q8.25,10.926131457,8.26441109,10.85368228Q8.27882212,10.78123312,8.3070904,10.71298748Q8.33535868,10.64474183,8.37639785,10.58332238Q8.41743702,10.52190292,8.46966994,10.46966994Q8.52190292,10.41743702,8.58332238,10.37639785Q8.64474183,10.33535868,8.71298748,10.3070904Q8.78123312,10.27882212,8.85368228,10.26441109Q8.926131457,10.25,9,10.25Z" fill-rule="evenodd" fill="#000000" fill-opacity="1" style="mix-blend-mode:passthrough"/></g></g></svg>