<?xml version="1.0" encoding="UTF-8"?>
<svg id="_图层_1" data-name="图层 1" xmlns="http://www.w3.org/2000/svg" viewBox="0 0 24 24">
  <defs>
    <style>
      .cls-1 {
        fill-rule: evenodd;
      }
    </style>
  </defs>
  <path class="cls-1" d="M21.94,10.94H2.06c-.58,0-1.06,.47-1.06,1.06s.47,1.06,1.06,1.06H21.94c.58,0,1.06-.47,1.06-1.06s-.47-1.06-1.06-1.06m0-7.4H2.06c-.58,0-1.06,.47-1.06,1.06s.47,1.06,1.06,1.06H21.94c.58,0,1.06-.47,1.06-1.06s-.47-1.06-1.06-1.06m-9.1,14.81H2.06c-.58,0-1.06,.47-1.06,1.06s.47,1.06,1.06,1.06H12.85c.58,0,1.06-.47,1.06-1.06s-.47-1.06-1.06-1.06"/>
</svg>