<svg xmlns="http://www.w3.org/2000/svg" xmlns:xlink="http://www.w3.org/1999/xlink" fill="none" version="1.1" width="24" height="24" viewBox="0 0 24 24"><defs><clipPath id="master_svg0_5953_03023"><rect x="0" y="0" width="24" height="24" rx="0"/></clipPath></defs><g clip-path="url(#master_svg0_5953_03023)"><g><path d="M3.5215226455688478,2.4598624897155763L3.5213726455688477,2.459714489715576Q3.4158826455688476,2.354205489715576,3.2780426455688474,2.2971024897155763Q3.140200645568848,2.240000009715576,2.9909996455688477,2.240000009715576Q2.9171316455688476,2.240000009715576,2.844682645568848,2.254411089715576Q2.7722326455688475,2.268822089715576,2.703987645568848,2.297090389715576Q2.6357416455688476,2.325358589715576,2.5743226455688477,2.366397489715576Q2.5129026455688477,2.4074364897155762,2.4606696455688475,2.459669489715576Q2.4084366455688477,2.511902489715576,2.3673976455688477,2.573322489715576Q2.326358545568848,2.634741489715576,2.2980902455688477,2.7029874897155763Q2.269822045568848,2.771233489715576,2.2554109455688476,2.843682489715576Q2.2409999355688477,2.916131489715576,2.2409999355688477,2.9900004897155763Q2.2409999355688477,3.139167489715576,2.2980781455688475,3.2769814897155762Q2.3551566455688477,3.4148014897155763,2.460624645568848,3.5202814897155763L2.4607726455688477,3.520431489715576L8.367622645568847,9.428291489715576L8.368622645568848,9.429281489715576L8.369272645568849,9.429931489715576L14.553972645568848,15.615671489715576L14.554672645568848,15.616271489715576L14.554672645568848,15.616371489715576L14.555272645568847,15.616971489715576L20.461672645568846,21.523371489715576Q20.56717264556885,21.628871489715575,20.704972645568848,21.685871489715577Q20.842772645568846,21.742971489715575,20.991972645568847,21.742971489715575Q21.06587264556885,21.742971489715575,21.138272645568847,21.728571489715577Q21.21077264556885,21.714171489715575,21.278972645568846,21.685871489715577Q21.347272645568847,21.657671489715575,21.40867264556885,21.616571489715575Q21.470072645568848,21.575571489715575,21.522372645568847,21.523371489715576Q21.574572645568846,21.471071489715577,21.615572645568847,21.409671489715578Q21.656672645568847,21.348271489715575,21.68487264556885,21.279971489715575Q21.713172645568847,21.211771489715577,21.72757264556885,21.139271489715576Q21.741972645568847,21.066871489715577,21.741972645568847,20.992971489715575Q21.741972645568847,20.843771489715575,21.68487264556885,20.705971489715576Q21.627772645568847,20.568171489715578,21.522372645568847,20.462671489715575L16.009772645568848,14.950071489715576Q16.851372645568848,13.190371489715575,16.273772645568847,11.246301489715576Q15.609272645568847,9.009891489715576,13.504572645568848,8.003381489715576Q13.351072645568848,7.930001489715576,13.180972645568847,7.930001489715576Q13.107172645568848,7.930001489715576,13.034672645568847,7.944411489715576Q12.962272645568847,7.958821489715576,12.893972645568848,7.987091489715576Q12.825772645568847,8.015361489715577,12.764272645568848,8.056401489715576Q12.702872645568847,8.097431489715575,12.650672645568848,8.149671489715576Q12.598472645568847,8.201901489715576,12.557372645568847,8.263321489715576Q12.516372645568847,8.324741489715576,12.488072645568847,8.392991489715577Q12.459772645568847,8.461231489715576,12.445372645568847,8.533681489715576Q12.430972645568847,8.606131489715576,12.430972645568847,8.680001489715576Q12.430972645568847,8.786141489715575,12.460472645568847,8.888121489715576Q12.489872645568848,8.990091489715576,12.546472645568848,9.079891489715576Q12.603072645568847,9.169691489715575,12.682372645568847,9.240251489715575Q12.761672645568847,9.310821489715575,12.857472645568848,9.356611489715576L12.858872645568848,9.357301489715576Q14.361372645568848,10.076471489715576,14.835872645568848,11.673511489715576Q15.163072645568848,12.774671489715576,14.852872645568848,13.793071489715576L9.879572645568848,8.818981489715576Q9.980182645568847,8.700341489715576,10.092372645568847,8.587281489715576L14.590372645568848,4.089331489715576Q15.688772645568848,2.9921704897155763,17.241672645568848,2.992671489715576Q18.79457264556885,2.993172489715576,19.892572645568848,4.091341489715576Q20.990572645568847,5.189511489715576,20.990872645568846,6.742431489715576Q20.99107264556885,8.295351489715575,19.89347264556885,9.393891489715577L18.136672645568847,11.150671489715576Q18.031172645568848,11.256161489715575,17.974072645568846,11.393981489715577Q17.916972645568848,11.531811489715576,17.916972645568848,11.681001489715577Q17.916972645568848,11.754871489715576,17.93137264556885,11.827311489715576Q17.945772645568848,11.899761489715576,17.974072645568846,11.968011489715575Q18.002372645568848,12.036251489715577,18.043372645568848,12.097681489715576Q18.084472645568848,12.159091489715577,18.136672645568847,12.211331489715576Q18.18887264556885,12.263571489715575,18.25027264556885,12.304571489715576Q18.311772645568848,12.345671489715576,18.37997264556885,12.373871489715576Q18.44827264556885,12.402171489715576,18.520672645568848,12.416571489715576Q18.59317264556885,12.430971489715576,18.666972645568848,12.430971489715576Q18.816172645568848,12.430971489715576,18.953972645568847,12.373871489715576Q19.09187264556885,12.316771489715576,19.197372645568848,12.211331489715576L20.95457264556885,10.454111489715576Q22.49117264556885,8.916211489715575,22.490872645568846,6.742181489715576Q22.490472645568847,4.568151489715577,20.95327264556885,3.030763489715576Q19.416172645568846,1.4933734897155762,17.24217264556885,1.4926724897155763Q15.068072645568847,1.4919704897155763,13.529672645568848,3.0286694897155764L9.027622645568847,7.530721489715576Q8.918162645568849,7.641031489715576,8.816392645568847,7.755631489715576L3.5215226455688478,2.4598624897155763ZM5.846482645568848,12.833171489715577Q5.951902645568848,12.727671489715576,6.008952645568847,12.589871489715577Q6.066002645568847,12.452171489715576,6.066002645568847,12.302971489715576Q6.066002645568847,12.229131489715575,6.051592645568848,12.156681489715575Q6.037172645568848,12.084231489715576,6.008912645568848,12.015991489715576Q5.980642645568848,11.947741489715575,5.939602645568847,11.886321489715575Q5.898562645568848,11.824901489715575,5.846332645568848,11.772671489715576Q5.794092645568847,11.720441489715576,5.732672645568847,11.679401489715577Q5.671252645568847,11.638361489715576,5.603012645568848,11.610091489715575Q5.534762645568847,11.581821489715576,5.462312645568847,11.567411489715576Q5.389872645568848,11.553001489715577,5.316002645568847,11.553001489715577Q5.166762645568848,11.553001489715577,5.028892645568847,11.610131489715576Q4.891012645568848,11.667261489715576,4.7855226455688475,11.772821489715577L4.785162645568848,11.773181489715576L3.0294526455688477,13.529871489715577Q1.4928126455688475,15.067771489715577,1.4931726455688477,17.241771489715575Q1.4935326455688478,19.415871489715578,3.030685645568848,20.953271489715576Q4.567832645568847,22.490671489715577,6.7418626455688475,22.491371489715576Q8.915882645568848,22.492071489715578,10.454332645568847,20.955371489715578L13.582672645568847,17.826971489715575L13.583372645568847,17.826371489715577Q13.688772645568848,17.720871489715577,13.745872645568848,17.582971489715575Q13.802972645568847,17.445171489715577,13.802972645568847,17.295971489715576Q13.802972645568847,17.222171489715578,13.788572645568848,17.149671489715576Q13.774172645568848,17.077271489715578,13.745872645568848,17.008971489715577Q13.717672645568848,16.940771489715576,13.676572645568848,16.879271489715578Q13.635572645568848,16.81787148971558,13.583372645568847,16.765671489715576Q13.531072645568848,16.713471489715577,13.469672645568847,16.672371489715577Q13.408272645568848,16.631371489715576,13.339972645568848,16.603071489715575Q13.271772645568849,16.574771489715577,13.199272645568847,16.56037148971558Q13.126872645568847,16.545971489715576,13.052972645568847,16.545971489715576Q12.903772645568848,16.545971489715576,12.765972645568848,16.603071489715575Q12.628172645568847,16.660171489715577,12.522672645568848,16.765671489715576L12.522072645568848,16.766271489715578L9.393672645568849,19.894671489715577Q8.295262645568847,20.991871489715574,6.742342645568848,20.991371489715576Q5.189422645568848,20.990871489715577,4.0914326455688474,19.892671489715575Q2.9934296455688476,18.794471489715576,2.9931726455688477,17.241571489715575Q2.9929156455688477,15.688671489715576,4.090552645568848,14.590071489715577L5.8461226455688475,12.833571489715576L5.846482645568848,12.833171489715577L5.846482645568848,12.833171489715577ZM7.790702645568848,12.990471489715576Q7.748002645568848,12.869371489715576,7.748002645568848,12.740971489715577Q7.748002645568848,12.667171489715576,7.762412645568848,12.594671489715576Q7.776822645568847,12.522271489715576,7.805092645568847,12.453971489715576Q7.833352645568848,12.385771489715577,7.8743926455688475,12.324271489715576Q7.915432645568847,12.262871489715577,7.967672645568848,12.210671489715576Q8.019902645568848,12.158431489715577,8.081322645568846,12.117401489715576Q8.142742645568848,12.076361489715577,8.210982645568848,12.048091489715576Q8.279232645568847,12.019821489715577,8.351682645568847,12.005411489715577Q8.424132645568847,11.991001489715575,8.498002645568848,11.991001489715575Q8.614392645568849,11.991001489715575,8.725312645568849,12.026281489715576Q8.836232645568849,12.061551489715576,8.931242645568847,12.128791489715576Q9.026252645568848,12.196021489715577,9.096412645568847,12.288871489715577Q9.166572645568849,12.381771489715575,9.205292645568846,12.491571489715577Q9.487952645568848,13.292871489715576,10.089622645568848,13.892971489715576Q10.545362645568847,14.349771489715577,11.125712645568848,14.627471489715576Q11.221442645568848,14.673271489715576,11.300712645568847,14.743871489715577Q11.379972645568847,14.814371489715576,11.436542645568847,14.904171489715576Q11.493112645568848,14.993971489715577,11.522552645568847,15.095971489715577Q11.552002645568848,15.197871489715576,11.552002645568848,15.303971489715575Q11.552002645568848,15.377871489715575,11.537582645568847,15.450271489715576Q11.523172645568847,15.522771489715575,11.494912645568848,15.590971489715576Q11.466642645568848,15.659271489715577,11.425602645568848,15.720671489715576Q11.384562645568847,15.782071489715577,11.332332645568847,15.834371489715576Q11.280092645568848,15.886571489715577,11.218672645568848,15.927571489715577Q11.157252645568848,15.968671489715577,11.089012645568848,15.996871489715577Q11.020762645568848,16.025171489715575,10.948312645568848,16.039571489715577Q10.875862645568848,16.053971489715575,10.802002645568848,16.053971489715575Q10.631802645568847,16.053971489715575,10.478282645568848,15.980571489715576Q9.665462645568848,15.591571489715577,9.030382645568848,14.955071489715577Q8.186942645568848,14.113871489715576,7.790702645568848,12.990471489715576Z" fill-rule="evenodd" fill="#000000" fill-opacity="1" style="mix-blend-mode:passthrough"/></g></g></svg>