<svg xmlns="http://www.w3.org/2000/svg" xmlns:xlink="http://www.w3.org/1999/xlink" fill="none" version="1.1" width="24" height="24" viewBox="0 0 24 24"><defs><clipPath id="master_svg0_5715_08170"><rect x="0" y="0" width="24" height="24" rx="0"/></clipPath></defs><g clip-path="url(#master_svg0_5715_08170)"><g><path d="M10.5773379296875,15.7342L10.5780979296875,15.7345Q10.7313879296875,15.8077,10.9012479296875,15.8077Q10.9751079296875,15.8077,11.0475579296875,15.7933Q11.1200079296875,15.7789,11.1882579296875,15.7506Q11.2564979296875,15.7223,11.3179179296875,15.6813Q11.3793379296875,15.6403,11.4315779296875,15.588Q11.4838079296875,15.5358,11.5248479296875,15.4744Q11.5658879296875,15.413,11.5941579296875,15.3447Q11.6224179296875,15.2765,11.6368379296875,15.204Q11.6512479296875,15.1316,11.6512479296875,15.0577Q11.6512479296875,14.9515,11.6217579296875,14.8495Q11.5922679296875,14.7474,11.5356179296875,14.6576Q11.4789579296875,14.5678,11.3995979296875,14.4972Q11.3202279296875,14.4267,11.2243879296875,14.3809Q9.6335979296875,13.6214,9.3356979296875,11.88392Q9.0378079296875,10.146460000000001,10.2847479296875,8.90041L14.4394779296875,4.74573Q15.4364779296875,3.749656,16.8461779296875,3.75Q18.2558779296875,3.7503450000000003,19.2526779296875,4.74716Q20.2495779296875,5.7439800000000005,20.2498779296875,7.15369Q20.2501779296875,8.5634,19.2538779296875,9.56071L17.632077929687497,11.18255Q17.526577929687498,11.28804,17.4694779296875,11.42587Q17.4123779296875,11.56369,17.4123779296875,11.71288Q17.4123779296875,11.78675,17.4267779296875,11.8592Q17.4411779296875,11.93164,17.4694779296875,11.99989Q17.4977779296875,12.06814,17.538777929687498,12.12955Q17.579777929687502,12.19098,17.632077929687497,12.24321Q17.6842779296875,12.29544,17.7456779296875,12.33648Q17.8070779296875,12.37752,17.875377929687502,12.40579Q17.9435779296875,12.43405,18.016077929687498,12.44847Q18.0884779296875,12.46288,18.1623779296875,12.46288Q18.311577929687502,12.46288,18.4493779296875,12.40579Q18.5871779296875,12.3487,18.6926779296875,12.24321L20.3150779296875,10.62085Q21.7503779296875,9.18414,21.7498779296875,7.15333Q21.7493779296875,5.1225000000000005,20.3133779296875,3.686502Q18.877377929687498,2.250496,16.8465779296875,2.25Q14.8157779296875,2.249504,13.3787779296875,3.685067L9.2244579296875,7.83938Q7.4281379296875,9.63443,7.8572779296875,12.1374Q8.2863379296875,14.64,10.5773379296875,15.7342ZM13.4231779296875,8.266210000000001Q15.7134779296875,9.36047,16.1424779296875,11.8626Q16.5715779296875,14.3656,14.7754779296875,16.1604L10.6207279296875,20.3152Q9.1840179296875,21.7505,7.1532079296875,21.75Q5.1223779296875005,21.7495,3.6863799296875,20.3135Q2.2503749296875,18.877499999999998,2.2498779296875,16.8467Q2.2493829296875,14.8159,3.6849459296875002,13.3789L5.3066579296875,11.75718L5.3070479296875,11.75679Q5.4125379296875,11.6513,5.5503679296875,11.59421Q5.6881879296874995,11.53712,5.8373779296875,11.53712Q5.9112479296875,11.53712,5.9836979296875,11.55153Q6.0561379296875,11.56594,6.1243879296875,11.59421Q6.1926379296875,11.62248,6.2540579296875,11.66352Q6.3154679296875,11.70456,6.3677079296875,11.75679Q6.419937929687499,11.80902,6.4609779296875,11.87044Q6.5020179296875,11.93186,6.5302879296875,12.00011Q6.5585579296875,12.06835,6.5729679296875005,12.1408Q6.5873779296875,12.21325,6.5873779296875,12.28712Q6.5873779296875,12.43631,6.5302879296875,12.57413Q6.4731979296875,12.71196,6.3677079296875,12.81745L6.3673179296875,12.81784L4.7456079296875,14.4396Q3.7495339296875,15.4366,3.7498779296875,16.8463Q3.7502229296875003,18.256,4.7470379296875,19.2528Q5.7438579296875005,20.2497,7.1535679296875,20.25Q8.5632779296875,20.2503,9.5605879296875,19.254L13.7147779296875,15.0998Q14.9619779296875,13.8535,14.6640779296875,12.11608Q14.3661779296875,10.378630000000001,12.7753679296875,9.61911Q12.6795279296875,9.57335,12.6001679296875,9.50278Q12.5207979296875,9.432210000000001,12.4641379296875,9.34238Q12.4074879296875,9.25255,12.3779979296875,9.15052Q12.3485079296875,9.0485,12.3485079296875,8.94229Q12.3485079296875,8.86842,12.3629179296875,8.79597Q12.3773279296875,8.72352,12.4055979296875,8.655280000000001Q12.4338679296875,8.58703,12.4749079296875,8.52561Q12.5159479296875,8.46419,12.5681779296875,8.41196Q12.6204179296875,8.359729999999999,12.6818379296875,8.31869Q12.7432479296875,8.277650000000001,12.8114979296875,8.24938Q12.8797479296875,8.22111,12.9521979296875,8.2067Q13.0246779296875,8.19229,13.0984779296875,8.19229Q13.2683779296875,8.19229,13.4216779296875,8.26548L13.4231779296875,8.266210000000001Z" fill-rule="evenodd" fill="#000000" fill-opacity="1"/></g></g></svg>