<svg xmlns="http://www.w3.org/2000/svg" xmlns:xlink="http://www.w3.org/1999/xlink" fill="none" version="1.1" width="24" height="24" viewBox="0 0 24 24"><defs><clipPath id="master_svg0_5511_08041"><rect x="0" y="0" width="24" height="24" rx="0"/></clipPath></defs><g clip-path="url(#master_svg0_5511_08041)"><g></g><g><path d="M20.24998341331482,7L20.24998341331482,9Q20.24998341331482,9.07387,20.26438341331482,9.14632Q20.27878341331482,9.21877,20.30708341331482,9.28701Q20.33538341331482,9.355260000000001,20.37638341331482,9.41668Q20.41748341331482,9.478100000000001,20.46968341331482,9.53033Q20.521883413314818,9.58256,20.58328341331482,9.6236Q20.64478341331482,9.66464,20.71298341331482,9.692910000000001Q20.78128341331482,9.72118,20.85368341331482,9.73559Q20.92618341331482,9.75,20.99998341331482,9.75Q21.07388341331482,9.75,21.14628341331482,9.73559Q21.21878341331482,9.72118,21.286983413314818,9.692910000000001Q21.35528341331482,9.66464,21.416683413314818,9.6236Q21.47808341331482,9.58256,21.53038341331482,9.53033Q21.58258341331482,9.478100000000001,21.62358341331482,9.41668Q21.66468341331482,9.355260000000001,21.69288341331482,9.28701Q21.72118341331482,9.21877,21.73558341331482,9.14632Q21.74998341331482,9.07387,21.74998341331482,9L21.74998341331482,7Q21.74998341331482,5.860911,20.94458341331482,5.0554565Q20.139083413314818,4.25,18.99998341331482,4.25L4.999883413314819,4.25Q3.8607964133148194,4.25,3.0553398133148195,5.0554564Q2.2498834133148193,5.860913,2.2498834133148193,7L2.2498834133148193,17Q2.2498834133148193,18.1391,3.0553398133148195,18.944499999999998Q3.8607964133148194,19.75,4.999883413314819,19.75L8.500003413314818,19.75Q8.57387341331482,19.75,8.64632341331482,19.735599999999998Q8.71877341331482,19.7212,8.78701341331482,19.6929Q8.85526341331482,19.6646,8.91668341331482,19.6236Q8.97810341331482,19.5826,9.03033341331482,19.5303Q9.08256341331482,19.478099999999998,9.123603413314818,19.4167Q9.16464341331482,19.3553,9.19291341331482,19.287Q9.221183413314819,19.2188,9.23559341331482,19.1463Q9.250003413314818,19.073900000000002,9.250003413314818,19Q9.250003413314818,18.926099999999998,9.23559341331482,18.8537Q9.221183413314819,18.7812,9.19291341331482,18.713Q9.16464341331482,18.6447,9.123603413314818,18.5833Q9.08256341331482,18.521900000000002,9.03033341331482,18.4697Q8.97810341331482,18.4174,8.91668341331482,18.3764Q8.85526341331482,18.3354,8.78701341331482,18.3071Q8.71877341331482,18.2788,8.64632341331482,18.264400000000002Q8.57387341331482,18.25,8.500003413314818,18.25L4.999883413314819,18.25Q4.482113413314819,18.25,4.11600341331482,17.8839Q3.7498834133148193,17.5178,3.7498834133148193,17L3.7498834133148193,7Q3.7498834133148193,6.4822299999999995,4.11600341331482,6.1161200000000004Q4.482113413314819,5.75,4.999883413314819,5.75L18.99998341331482,5.75Q19.51778341331482,5.75,19.88388341331482,6.1161200000000004Q20.24998341331482,6.4822299999999995,20.24998341331482,7Z" fill-rule="evenodd" fill="#000000" fill-opacity="1" style="mix-blend-mode:passthrough"/></g><g><path d="M19.35876,12.641243Q17.96751,11.25,16,11.25Q14.03249,11.25,12.641243,12.641243Q11.25,14.03249,11.25,16Q11.25,17.96751,12.641243,19.35876Q14.03249,20.75,16,20.75Q17.96751,20.75,19.35876,19.35876Q20.75,17.96752,20.75,16Q20.75,14.03249,19.35876,12.641243ZM13.7019,13.7019Q14.65381,12.75,16,12.75Q17.34619,12.75,18.298099999999998,13.7019Q19.25,14.65381,19.25,16Q19.25,17.34619,18.298099999999998,18.298099999999998Q17.34619,19.25,16,19.25Q14.65381,19.25,13.7019,18.298099999999998Q12.75,17.34619,12.75,16Q12.75,14.65381,13.7019,13.7019Z" fill-rule="evenodd" fill="#000000" fill-opacity="1" style="mix-blend-mode:passthrough"/></g><g><path d="M20.030484,18.969824L22.53033,21.46967Q22.63582,21.57516,22.69291,21.71299Q22.75,21.85082,22.75,22Q22.75,22.07387,22.735590000000002,22.14632Q22.72118,22.21877,22.69291,22.28701Q22.66464,22.35526,22.6236,22.41668Q22.58256,22.4781,22.53033,22.53033Q22.4781,22.58256,22.41668,22.6236Q22.35526,22.66464,22.28701,22.69291Q22.21877,22.72118,22.14632,22.735590000000002Q22.07387,22.75,22,22.75Q21.85082,22.75,21.71299,22.69291Q21.57516,22.63582,21.46967,22.53033L21.46938,22.53004L18.96967,20.03033Q18.864181,19.924841,18.80709,19.787013Q18.75,19.649184,18.75,19.5Q18.75,19.4261315,18.764411,19.353682Q18.778822,19.281233,18.80709,19.212987Q18.835359,19.144742,18.876398000000002,19.083322Q18.917437,19.021903000000002,18.96967,18.96967Q19.021903000000002,18.917437,19.083322,18.876398000000002Q19.144742,18.835359,19.212987,18.80709Q19.281233,18.778822,19.353682,18.764411Q19.4261315,18.75,19.5,18.75Q19.649184,18.75,19.787013,18.80709Q19.924841,18.864181,20.03033,18.96967L20.030484,18.969824Z" fill-rule="evenodd" fill="#000000" fill-opacity="1" style="mix-blend-mode:passthrough"/></g><g><path d="M7,8.25L17,8.25Q17.073900000000002,8.25,17.1463,8.264410999999999Q17.2188,8.278822,17.287,8.30709Q17.3553,8.335359,17.4167,8.376398Q17.478099999999998,8.417437,17.5303,8.46967Q17.5826,8.521903,17.6236,8.583322Q17.6646,8.644742,17.6929,8.712987Q17.7212,8.781233,17.735599999999998,8.853682Q17.75,8.9261315,17.75,9Q17.75,9.0738685,17.735599999999998,9.146318Q17.7212,9.218767,17.6929,9.287013Q17.6646,9.355258,17.6236,9.416678Q17.5826,9.478097,17.5303,9.53033Q17.478099999999998,9.582563,17.4167,9.623602Q17.3553,9.664641,17.287,9.69291Q17.2188,9.721178,17.1463,9.735589000000001Q17.073900000000002,9.75,17,9.75L7,9.75Q6.9261315,9.75,6.853682,9.735589000000001Q6.781233,9.721178,6.712987,9.69291Q6.644742,9.664641,6.583322,9.623602Q6.521903,9.582563,6.46967,9.53033Q6.417437,9.478097,6.376398,9.416678Q6.335359,9.355258,6.30709,9.287013Q6.278822,9.218767,6.264411,9.146318Q6.25,9.0738685,6.25,9Q6.25,8.9261315,6.264411,8.853682Q6.278822,8.781233,6.30709,8.712987Q6.335359,8.644742,6.376398,8.583322Q6.417437,8.521903,6.46967,8.46967Q6.521903,8.417437,6.583322,8.376398Q6.644742,8.335359,6.712987,8.30709Q6.781233,8.278822,6.853682,8.264410999999999Q6.9261315,8.25,7,8.25Z" fill-rule="evenodd" fill="#000000" fill-opacity="1" style="mix-blend-mode:passthrough"/></g><g><path d="M7,12.25L9,12.25Q9.07387,12.25,9.14632,12.264410999999999Q9.21877,12.278822,9.28701,12.30709Q9.35526,12.335359,9.41668,12.376398Q9.4781,12.417437,9.53033,12.46967Q9.58256,12.521903,9.6236,12.583322Q9.66464,12.644742,9.69291,12.712987Q9.72118,12.781233,9.73559,12.853682Q9.75,12.9261315,9.75,13Q9.75,13.0738685,9.73559,13.146318Q9.72118,13.218767,9.69291,13.287013Q9.66464,13.355258,9.6236,13.416678Q9.58256,13.478097,9.53033,13.53033Q9.4781,13.582563,9.41668,13.623602Q9.35526,13.664641,9.28701,13.69291Q9.21877,13.721178,9.14632,13.735589000000001Q9.07387,13.75,9,13.75L7,13.75Q6.9261315,13.75,6.853682,13.735589000000001Q6.781233,13.721178,6.712987,13.69291Q6.644742,13.664641,6.583322,13.623602Q6.521903,13.582563,6.46967,13.53033Q6.417437,13.478097,6.376398,13.416678Q6.335359,13.355258,6.30709,13.287013Q6.278822,13.218767,6.264411,13.146318Q6.25,13.0738685,6.25,13Q6.25,12.9261315,6.264411,12.853682Q6.278822,12.781233,6.30709,12.712987Q6.335359,12.644742,6.376398,12.583322Q6.417437,12.521903,6.46967,12.46967Q6.521903,12.417437,6.583322,12.376398Q6.644742,12.335359,6.712987,12.30709Q6.781233,12.278822,6.853682,12.264410999999999Q6.9261315,12.25,7,12.25Z" fill-rule="evenodd" fill="#000000" fill-opacity="1" style="mix-blend-mode:passthrough"/></g></g></svg>