<svg xmlns="http://www.w3.org/2000/svg" xmlns:xlink="http://www.w3.org/1999/xlink" fill="none" version="1.1" width="24" height="24" viewBox="0 0 24 24"><defs><clipPath id="master_svg0_6101_03547"><rect x="-0.75" y="-0.75" width="25.5" height="25.5" rx="0"/></clipPath></defs><g clip-path="url(#master_svg0_6101_03547)"><path d="M13,5.75L21,5.75L21,5.74985003Q21.0738535,5.74985003,21.1462879,5.7354418Q21.2187233,5.72103369,21.286954899999998,5.69277108Q21.355186500000002,5.66450846,21.4165936,5.62347746Q21.4780006,5.5824465199999995,21.5302238,5.53022403Q21.5824451,5.47800151,21.623477,5.41659433Q21.6645069,5.35518718,21.69277,5.28695518Q21.7210331,5.21872318,21.7354412,5.14628848Q21.7498493,5.073853783,21.7498503,5Q21.7498493,4.926146217,21.7354412,4.85371152Q21.7210331,4.78127682,21.69277,4.71304482Q21.6645069,4.64481282,21.623477,4.58340567Q21.5824451,4.52199849,21.5302238,4.46977597Q21.4780006,4.4175534800000005,21.4165936,4.37652254Q21.355186500000002,4.33549154,21.286954899999998,4.30722892Q21.2187233,4.27896631,21.1462879,4.2645582Q21.0738535,4.25014997,21,4.25014997L21,4.25L13,4.25L13,4.25014997Q12.926146217,4.25014997,12.85371152,4.2645582Q12.78127682,4.27896631,12.71304482,4.30722892Q12.64481282,4.33549154,12.58340567,4.37652254Q12.52199849,4.4175534800000005,12.46977597,4.46977597Q12.41755348,4.52199849,12.37652254,4.58340567Q12.33549154,4.64481282,12.30722892,4.71304482Q12.27896631,4.78127682,12.2645582,4.85371152Q12.25014997,4.926146217,12.25014997,5Q12.25014997,5.073853783,12.2645582,5.14628848Q12.27896631,5.21872318,12.30722892,5.28695518Q12.33549154,5.35518718,12.37652254,5.41659433Q12.41755348,5.47800151,12.46977597,5.53022403Q12.52199849,5.5824465199999995,12.58340567,5.62347746Q12.64481282,5.66450846,12.71304482,5.69277108Q12.78127682,5.72103369,12.85371152,5.7354418Q12.926146217,5.74985003,13,5.74985003L13,5.75Z" fill-rule="evenodd" fill="#000000" fill-opacity="1" style="mix-blend-mode:passthrough"/><path d="M13,9.75L18,9.75L18,9.74985003Q18.0738535,9.74985003,18.1462879,9.7354418Q18.2187223,9.72103369,18.286954899999998,9.69277108Q18.355186500000002,9.66450846,18.4165936,9.62347746Q18.4780006,9.58244652,18.5302238,9.53022403Q18.5824461,9.47800151,18.623477,9.41659433Q18.6645079,9.35518718,18.692771,9.28695518Q18.7210336,9.21872318,18.7354422,9.14628848Q18.7498503,9.073853783,18.7498503,9Q18.7498503,8.926146217,18.7354417,8.85371152Q18.7210331,8.78127682,18.6927705,8.71304482Q18.6645079,8.64481282,18.623477,8.58340567Q18.5824461,8.52199849,18.5302238,8.46977597Q18.4780006,8.41755348,18.4165936,8.37652254Q18.355186500000002,8.33549154,18.286954899999998,8.30722892Q18.2187223,8.27896631,18.1462879,8.2645582Q18.0738535,8.25014997,18,8.25014997L18,8.25L13,8.25L13,8.25014997Q12.926146217,8.25014997,12.85371152,8.2645582Q12.78127682,8.27896631,12.71304482,8.30722892Q12.64481282,8.33549154,12.58340567,8.37652254Q12.52199849,8.41755348,12.46977597,8.46977597Q12.41755348,8.52199849,12.37652254,8.58340567Q12.33549154,8.64481282,12.30722892,8.71304482Q12.27896631,8.78127682,12.2645582,8.85371152Q12.25014997,8.926146217,12.25014997,9Q12.25014997,9.073853783,12.2645582,9.14628848Q12.27896631,9.21872318,12.30722892,9.28695518Q12.33549154,9.35518718,12.37652254,9.41659433Q12.41755348,9.47800151,12.46977597,9.53022403Q12.52199849,9.58244652,12.58340567,9.62347746Q12.64481282,9.66450846,12.71304482,9.69277108Q12.78127682,9.72103369,12.85371152,9.7354418Q12.926146217,9.74985003,13,9.74985003L13,9.75Z" fill-rule="evenodd" fill="#000000" fill-opacity="1" style="mix-blend-mode:passthrough"/><path d="M13,15.75L21,15.75L21,15.74985003Q21.0738535,15.74985003,21.1462879,15.7354418Q21.2187233,15.72103369,21.286954899999998,15.69277108Q21.355186500000002,15.66450846,21.4165936,15.62347746Q21.4780006,15.58244652,21.5302238,15.53022403Q21.5824451,15.47800151,21.623477,15.41659433Q21.6645069,15.35518718,21.69277,15.28695518Q21.7210331,15.21872318,21.7354412,15.14628848Q21.7498493,15.073853783,21.7498503,15Q21.7498493,14.926146217,21.7354412,14.85371152Q21.7210331,14.78127682,21.69277,14.71304482Q21.6645069,14.64481282,21.623477,14.58340567Q21.5824451,14.52199849,21.5302238,14.46977597Q21.4780006,14.41755348,21.4165936,14.37652254Q21.355186500000002,14.33549154,21.286954899999998,14.30722892Q21.2187233,14.27896631,21.1462879,14.2645582Q21.0738535,14.25014997,21,14.25014997L21,14.25L13,14.25L13,14.25014997Q12.926146217,14.25014997,12.85371152,14.2645582Q12.78127682,14.27896631,12.71304482,14.30722892Q12.64481282,14.33549154,12.58340567,14.37652254Q12.52199849,14.41755348,12.46977597,14.46977597Q12.41755348,14.52199849,12.37652254,14.58340567Q12.33549154,14.64481282,12.30722892,14.71304482Q12.27896631,14.78127682,12.2645582,14.85371152Q12.25014997,14.926146217,12.25014997,15Q12.25014997,15.073853783,12.2645582,15.14628848Q12.27896631,15.21872318,12.30722892,15.28695518Q12.33549154,15.35518718,12.37652254,15.41659433Q12.41755348,15.47800151,12.46977597,15.53022403Q12.52199849,15.58244652,12.58340567,15.62347746Q12.64481282,15.66450846,12.71304482,15.69277108Q12.78127682,15.72103369,12.85371152,15.7354418Q12.926146217,15.74985003,13,15.74985003L13,15.75Z" fill-rule="evenodd" fill="#000000" fill-opacity="1" style="mix-blend-mode:passthrough"/><path d="M13,19.75L18,19.75L18,19.74985003Q18.0738535,19.74985003,18.1462879,19.7354418Q18.2187223,19.72103369,18.286954899999998,19.69277108Q18.355186500000002,19.66450846,18.4165936,19.62347746Q18.4780006,19.58244652,18.5302238,19.53022403Q18.5824461,19.47800151,18.623477,19.41659433Q18.6645079,19.35518718,18.692771,19.28695518Q18.7210336,19.21872318,18.7354422,19.14628848Q18.7498503,19.073853783,18.7498503,19Q18.7498503,18.926146217,18.7354417,18.85371152Q18.7210331,18.78127682,18.6927705,18.71304482Q18.6645079,18.64481282,18.623477,18.58340567Q18.5824461,18.52199849,18.5302238,18.46977597Q18.4780006,18.41755348,18.4165936,18.37652254Q18.355186500000002,18.33549154,18.286954899999998,18.30722892Q18.2187223,18.27896631,18.1462879,18.2645582Q18.0738535,18.25014997,18,18.25014997L18,18.25L13,18.25L13,18.25014997Q12.926146217,18.25014997,12.85371152,18.2645582Q12.78127682,18.27896631,12.71304482,18.30722892Q12.64481282,18.33549154,12.58340567,18.37652254Q12.52199849,18.41755348,12.46977597,18.46977597Q12.41755348,18.52199849,12.37652254,18.58340567Q12.33549154,18.64481282,12.30722892,18.71304482Q12.27896631,18.78127682,12.2645582,18.85371152Q12.25014997,18.926146217,12.25014997,19Q12.25014997,19.073853783,12.2645582,19.14628848Q12.27896631,19.21872318,12.30722892,19.28695518Q12.33549154,19.35518718,12.37652254,19.41659433Q12.41755348,19.47800151,12.46977597,19.53022403Q12.52199849,19.58244652,12.58340567,19.62347746Q12.64481282,19.66450846,12.71304482,19.69277108Q12.78127682,19.72103369,12.85371152,19.7354418Q12.926146217,19.74985003,13,19.74985003L13,19.75Z" fill-rule="evenodd" fill="#000000" fill-opacity="1" style="mix-blend-mode:passthrough"/><path d="M2.25,5L2.25,9Q2.25,9.7248745,2.76256353,10.237437700000001Q3.27512643,10.75,4,10.75L8.000001000000001,10.75Q8.724875,10.75,9.237437700000001,10.237437199999999Q9.75,9.7248745,9.75,9L9.75,5Q9.75,4.27512661,9.237437199999999,3.7625633Q8.724874,3.25,8,3.25L4,3.25Q3.27512634,3.25,2.76256317,3.76256317Q2.25,4.27512634,2.25,5ZM4,9.25Q3.75,9.25,3.75,9.000001000000001L3.75,5Q3.75,4.75,4,4.75L8,4.75Q8.25,4.75,8.25,5L8.25,9Q8.25,9.25,8.000001000000001,9.25L4,9.25Z" fill-rule="evenodd" fill="#000000" fill-opacity="1" style="mix-blend-mode:passthrough"/><path d="M2.25,15L2.25,19Q2.25,19.7248745,2.76256353,20.2374377Q3.27512643,20.75,4,20.75L8.000001000000001,20.75Q8.724875,20.75,9.237437700000001,20.2374372Q9.75,19.7248745,9.75,19L9.75,15Q9.75,14.27512661,9.237437199999999,13.7625633Q8.724874,13.25,8,13.25L4,13.25Q3.27512634,13.25,2.76256317,13.76256317Q2.25,14.27512634,2.25,15ZM4,19.25Q3.75,19.25,3.75,19.000001L3.75,15Q3.75,14.75,4,14.75L8,14.75Q8.25,14.75,8.25,15L8.25,19Q8.25,19.25,8.000001000000001,19.25L4,19.25Z" fill-rule="evenodd" fill="#000000" fill-opacity="1" style="mix-blend-mode:passthrough"/></g></svg>