<svg xmlns="http://www.w3.org/2000/svg" xmlns:xlink="http://www.w3.org/1999/xlink" fill="none" version="1.1" width="24" height="24" viewBox="0 0 24 24"><defs><clipPath id="master_svg0_6101_03537"><rect x="-0.75" y="-0.75" width="25.5" height="25.5" rx="0"/></clipPath></defs><g clip-path="url(#master_svg0_6101_03537)"><path d="M8.0302243,5.03022408Q8.135692599999999,4.92475596,8.1927714,4.78695521Q8.2498503,4.64915445,8.2498503,4.5Q8.2498503,4.426146217,8.235441699999999,4.35371152Q8.2210336,4.28127682,8.192771,4.21304482Q8.1645079,4.14481282,8.123477000000001,4.08340567Q8.0824461,4.02199849,8.0302238,3.96977597Q7.9780016,3.91755348,7.916594,3.87652254Q7.8551869,3.83549154,7.7869549,3.80722892Q7.7187233,3.77896631,7.6462884,3.7645581999999997Q7.5738535,3.75014997,7.5,3.75014997Q7.3508455999999995,3.75014997,7.2130446,3.80722892Q7.0752439,3.86430788,6.9697759,3.9697760300000002L6.9696698,3.96966994L5,5.9393399L4.03033006,4.96966994L4.03022403,4.96977594Q3.92475593,4.86430782,3.78695518,4.80722889Q3.64915444,4.75014997,3.5,4.75014997Q3.426146217,4.75014997,3.35371152,4.76455811Q3.28127682,4.77896625,3.21304482,4.80722886Q3.14481282,4.83549148,3.08340567,4.87652242Q3.02199849,4.9175534,2.96977597,4.96977592Q2.91755348,5.02199841,2.87652254,5.08340555Q2.83549154,5.14481276,2.80722892,5.21304476Q2.77896631,5.28127676,2.7645581999999997,5.35371149Q2.75014997,5.42614615,2.75014997,5.5Q2.75014997,5.6491544000000005,2.80722892,5.7869551999999995Q2.86430788,5.9247561,2.9697760300000002,6.0302241L2.96966994,6.0303302L4.46966994,7.5303299Q4.5751591000000005,7.635819,4.7129873,7.6929092Q4.8508154999999995,7.75,4.9999999,7.750000200000001Q5.1491842000000005,7.750000200000001,5.2870126,7.6929096999999995Q5.4248408999999995,7.6358194,5.5303302,7.5303299L8.0303302,5.03033006L8.0302243,5.03022408Z" fill-rule="evenodd" fill="#000000" fill-opacity="1" style="mix-blend-mode:passthrough"/><path d="M8.0302243,11.03022408Q8.135692599999999,10.92475596,8.1927714,10.78695521Q8.2498503,10.64915445,8.2498503,10.5Q8.2498503,10.426146217,8.235441699999999,10.35371152Q8.2210336,10.28127682,8.192771,10.21304482Q8.1645079,10.14481282,8.123477000000001,10.08340567Q8.0824461,10.02199849,8.0302238,9.96977597Q7.9780016,9.91755348,7.916594,9.87652254Q7.8551869,9.83549154,7.7869549,9.80722892Q7.7187233,9.77896631,7.6462884,9.7645582Q7.5738535,9.75014997,7.5,9.75014997Q7.3508455999999995,9.75014997,7.2130446,9.80722892Q7.0752439,9.86430788,6.9697759,9.96977603L6.9696698,9.96966994L5,11.9393399L4.03033006,10.96966994L4.03022403,10.96977594Q3.92475593,10.86430782,3.78695518,10.80722889Q3.64915444,10.75014997,3.5,10.75014997Q3.426146217,10.75014997,3.35371152,10.76455811Q3.28127682,10.77896625,3.21304482,10.80722886Q3.14481282,10.83549148,3.08340567,10.87652242Q3.02199849,10.9175534,2.96977597,10.96977592Q2.91755348,11.02199841,2.87652254,11.08340555Q2.83549154,11.14481276,2.80722892,11.21304476Q2.77896631,11.28127676,2.7645581999999997,11.35371149Q2.75014997,11.42614615,2.75014997,11.5Q2.75014997,11.6491544,2.80722892,11.7869552Q2.86430788,11.9247561,2.9697760300000002,12.0302241L2.96966994,12.0303302L4.46966994,13.5303299Q4.5751591000000005,13.635819,4.7129873,13.692909199999999Q4.8508154999999995,13.75,4.9999999,13.7500002Q5.1491842000000005,13.7500002,5.2870126,13.6929097Q5.4248408999999995,13.635819399999999,5.5303302,13.5303299L8.0303302,11.03033006L8.0302243,11.03022408Z" fill-rule="evenodd" fill="#000000" fill-opacity="1" style="mix-blend-mode:passthrough"/><path d="M8.0302243,17.03022408Q8.135692599999999,16.92475596,8.1927714,16.78695521Q8.2498503,16.64915445,8.2498503,16.5Q8.2498503,16.426146217,8.235441699999999,16.35371152Q8.2210336,16.28127682,8.192771,16.21304482Q8.1645079,16.14481282,8.123477000000001,16.08340567Q8.0824461,16.02199849,8.0302238,15.96977597Q7.9780016,15.91755348,7.916594,15.87652254Q7.8551869,15.83549154,7.7869549,15.80722892Q7.7187233,15.77896631,7.6462884,15.7645582Q7.5738535,15.75014997,7.5,15.75014997Q7.3508455999999995,15.75014997,7.2130446,15.80722892Q7.0752439,15.86430788,6.9697759,15.96977603L6.9696698,15.96966994L5,17.9393399L4.03033006,16.96966994L4.03022403,16.96977594Q3.92475593,16.86430782,3.78695518,16.80722889Q3.64915444,16.75014997,3.5,16.75014997Q3.426146217,16.75014997,3.35371152,16.76455811Q3.28127682,16.77896625,3.21304482,16.80722886Q3.14481282,16.83549148,3.08340567,16.87652242Q3.02199849,16.9175534,2.96977597,16.96977592Q2.91755348,17.02199841,2.87652254,17.08340555Q2.83549154,17.14481276,2.80722892,17.21304476Q2.77896631,17.28127676,2.7645581999999997,17.35371149Q2.75014997,17.42614615,2.75014997,17.5Q2.75014997,17.6491544,2.80722892,17.7869552Q2.86430788,17.9247561,2.9697760300000002,18.0302241L2.96966994,18.0303302L4.46966994,19.530329899999998Q4.5751591000000005,19.635819,4.7129873,19.6929092Q4.8508154999999995,19.75,4.9999999,19.7500002Q5.1491842000000005,19.7500002,5.2870126,19.6929097Q5.4248408999999995,19.6358194,5.5303302,19.530329899999998L8.0303302,17.03033006L8.0302243,17.03022408Z" fill-rule="evenodd" fill="#000000" fill-opacity="1" style="mix-blend-mode:passthrough"/><path d="M11,6.75L20,6.75L20,6.74985003Q20.0738535,6.74985003,20.1462879,6.7354418Q20.2187233,6.72103369,20.286954899999998,6.69277108Q20.355186500000002,6.66450846,20.416594500000002,6.62347746Q20.4780006,6.5824465199999995,20.5302238,6.53022403Q20.5824451,6.47800151,20.623476,6.41659433Q20.6645069,6.35518718,20.69277,6.28695518Q20.7210331,6.21872318,20.7354412,6.14628848Q20.7498493,6.073853783,20.7498503,6Q20.7498493,5.926146217,20.7354412,5.85371152Q20.7210331,5.78127682,20.69277,5.71304482Q20.6645069,5.64481282,20.623476,5.58340567Q20.5824451,5.52199849,20.5302238,5.46977597Q20.4780006,5.4175534800000005,20.416594500000002,5.37652254Q20.355186500000002,5.33549154,20.286954899999998,5.30722892Q20.2187233,5.27896631,20.1462879,5.2645582Q20.0738535,5.25014997,20,5.25014997L20,5.25L11,5.25L11,5.25014997Q10.926146217,5.25014997,10.85371152,5.2645582Q10.78127682,5.27896631,10.71304482,5.30722892Q10.64481282,5.33549154,10.58340567,5.37652254Q10.52199849,5.4175534800000005,10.46977597,5.46977597Q10.41755348,5.52199849,10.37652254,5.58340567Q10.33549154,5.64481282,10.30722892,5.71304482Q10.27896631,5.78127682,10.2645582,5.85371152Q10.25014997,5.926146217,10.25014997,6Q10.25014997,6.073853783,10.2645582,6.14628848Q10.27896631,6.21872318,10.30722892,6.28695518Q10.33549154,6.35518718,10.37652254,6.41659433Q10.41755348,6.47800151,10.46977597,6.53022403Q10.52199849,6.5824465199999995,10.58340567,6.62347746Q10.64481282,6.66450846,10.71304482,6.69277108Q10.78127682,6.72103369,10.85371152,6.7354418Q10.926146217,6.74985003,11,6.74985003L11,6.75Z" fill-rule="evenodd" fill="#000000" fill-opacity="1" style="mix-blend-mode:passthrough"/><path d="M11,12.75L20,12.75L20,12.74985003Q20.0738535,12.74985003,20.1462879,12.7354418Q20.2187233,12.72103369,20.286954899999998,12.69277108Q20.355186500000002,12.66450846,20.416594500000002,12.62347746Q20.4780006,12.58244652,20.5302238,12.53022403Q20.5824451,12.47800151,20.623476,12.41659433Q20.6645069,12.35518718,20.69277,12.28695518Q20.7210331,12.21872318,20.7354412,12.14628848Q20.7498493,12.073853783,20.7498503,12Q20.7498493,11.926146217,20.7354412,11.85371152Q20.7210331,11.78127682,20.69277,11.71304482Q20.6645069,11.64481282,20.623476,11.58340567Q20.5824451,11.52199849,20.5302238,11.46977597Q20.4780006,11.41755348,20.416594500000002,11.37652254Q20.355186500000002,11.33549154,20.286954899999998,11.30722892Q20.2187233,11.27896631,20.1462879,11.2645582Q20.0738535,11.25014997,20,11.25014997L20,11.25L11,11.25L11,11.25014997Q10.926146217,11.25014997,10.85371152,11.2645582Q10.78127682,11.27896631,10.71304482,11.30722892Q10.64481282,11.33549154,10.58340567,11.37652254Q10.52199849,11.41755348,10.46977597,11.46977597Q10.41755348,11.52199849,10.37652254,11.58340567Q10.33549154,11.64481282,10.30722892,11.71304482Q10.27896631,11.78127682,10.2645582,11.85371152Q10.25014997,11.926146217,10.25014997,12Q10.25014997,12.073853783,10.2645582,12.14628848Q10.27896631,12.21872318,10.30722892,12.28695518Q10.33549154,12.35518718,10.37652254,12.41659433Q10.41755348,12.47800151,10.46977597,12.53022403Q10.52199849,12.58244652,10.58340567,12.62347746Q10.64481282,12.66450846,10.71304482,12.69277108Q10.78127682,12.72103369,10.85371152,12.7354418Q10.926146217,12.74985003,11,12.74985003L11,12.75Z" fill-rule="evenodd" fill="#000000" fill-opacity="1" style="mix-blend-mode:passthrough"/><path d="M11,18.75L20,18.75L20,18.74985003Q20.0738535,18.74985003,20.1462879,18.7354418Q20.2187233,18.72103369,20.286954899999998,18.69277108Q20.355186500000002,18.66450846,20.416594500000002,18.62347746Q20.4780006,18.58244652,20.5302238,18.53022403Q20.5824451,18.47800151,20.623476,18.41659433Q20.6645069,18.35518718,20.69277,18.28695518Q20.7210331,18.21872318,20.7354412,18.14628848Q20.7498493,18.073853783,20.7498503,18Q20.7498493,17.926146217,20.7354412,17.85371152Q20.7210331,17.78127682,20.69277,17.71304482Q20.6645069,17.64481282,20.623476,17.58340567Q20.5824451,17.52199849,20.5302238,17.46977597Q20.4780006,17.41755348,20.416594500000002,17.37652254Q20.355186500000002,17.33549154,20.286954899999998,17.30722892Q20.2187233,17.27896631,20.1462879,17.2645582Q20.0738535,17.25014997,20,17.25014997L20,17.25L11,17.25L11,17.25014997Q10.926146217,17.25014997,10.85371152,17.2645582Q10.78127682,17.27896631,10.71304482,17.30722892Q10.64481282,17.33549154,10.58340567,17.37652254Q10.52199849,17.41755348,10.46977597,17.46977597Q10.41755348,17.52199849,10.37652254,17.58340567Q10.33549154,17.64481282,10.30722892,17.71304482Q10.27896631,17.78127682,10.2645582,17.85371152Q10.25014997,17.926146217,10.25014997,18Q10.25014997,18.073853783,10.2645582,18.14628848Q10.27896631,18.21872318,10.30722892,18.28695518Q10.33549154,18.35518718,10.37652254,18.41659433Q10.41755348,18.47800151,10.46977597,18.53022403Q10.52199849,18.58244652,10.58340567,18.62347746Q10.64481282,18.66450846,10.71304482,18.69277108Q10.78127682,18.72103369,10.85371152,18.7354418Q10.926146217,18.74985003,11,18.74985003L11,18.75Z" fill-rule="evenodd" fill="#000000" fill-opacity="1" style="mix-blend-mode:passthrough"/></g></svg>