<svg xmlns="http://www.w3.org/2000/svg" xmlns:xlink="http://www.w3.org/1999/xlink" fill="none" version="1.1" width="24" height="24" viewBox="0 0 24 24"><defs><clipPath id="master_svg0_6111_03520"><rect x="-0.75" y="-0.75" width="25.5" height="25.5" rx="0"/></clipPath></defs><g clip-path="url(#master_svg0_6111_03520)"><path d="M9,6.75L20,6.75L20,6.74985003Q20.073853,6.74985003,20.146288,6.7354418Q20.218722,6.72103369,20.286954,6.69277108Q20.355186,6.66450846,20.416594,6.62347746Q20.478001,6.5824465199999995,20.530223,6.53022403Q20.582445,6.47800151,20.623476,6.41659433Q20.664507,6.35518718,20.69277,6.28695518Q20.721033,6.21872318,20.735441,6.14628848Q20.749848999999998,6.073853783,20.749850000000002,6Q20.749848999999998,5.926146217,20.735441,5.85371152Q20.721033,5.78127682,20.69277,5.71304482Q20.664507,5.64481282,20.623477,5.58340567Q20.582445999999997,5.52199849,20.530224,5.46977597Q20.478001,5.4175534800000005,20.416594,5.37652254Q20.355186,5.33549154,20.286955,5.30722892Q20.218723,5.27896631,20.146288,5.2645582Q20.073853,5.25014997,20,5.25014997L20,5.25L9,5.25L9,5.25014997Q8.926146217,5.25014997,8.85371152,5.2645582Q8.78127682,5.27896631,8.71304482,5.30722892Q8.64481282,5.33549154,8.58340567,5.37652254Q8.52199849,5.4175534800000005,8.46977597,5.46977597Q8.41755348,5.52199849,8.37652254,5.58340567Q8.33549154,5.64481282,8.30722892,5.71304482Q8.27896631,5.78127682,8.2645582,5.85371152Q8.25014997,5.926146217,8.25014997,6Q8.25014997,6.073853783,8.2645582,6.14628848Q8.27896631,6.21872318,8.30722892,6.28695518Q8.33549154,6.35518718,8.37652254,6.41659433Q8.41755348,6.47800151,8.46977597,6.53022403Q8.52199849,6.5824465199999995,8.58340567,6.62347746Q8.64481282,6.66450846,8.71304482,6.69277108Q8.78127682,6.72103369,8.85371152,6.7354418Q8.926146217,6.74985003,9,6.74985003L9,6.75Z" fill-rule="evenodd" fill="#000000" fill-opacity="1" style="mix-blend-mode:passthrough"/><path d="M9,12.75L20,12.75L20,12.74985003Q20.073853,12.74985003,20.146288,12.7354418Q20.218722,12.72103369,20.286954,12.69277108Q20.355186,12.66450846,20.416594,12.62347746Q20.478001,12.58244652,20.530223,12.53022403Q20.582445,12.47800151,20.623476,12.41659433Q20.664507,12.35518718,20.69277,12.28695518Q20.721033,12.21872318,20.735441,12.14628848Q20.749848999999998,12.073853783,20.749850000000002,12Q20.749848999999998,11.926146217,20.735441,11.85371152Q20.721033,11.78127682,20.69277,11.71304482Q20.664507,11.64481282,20.623477,11.58340567Q20.582445999999997,11.52199849,20.530224,11.46977597Q20.478001,11.41755348,20.416594,11.37652254Q20.355186,11.33549154,20.286955,11.30722892Q20.218723,11.27896631,20.146288,11.2645582Q20.073853,11.25014997,20,11.25014997L20,11.25L9,11.25L9,11.25014997Q8.926146217,11.25014997,8.85371152,11.2645582Q8.78127682,11.27896631,8.71304482,11.30722892Q8.64481282,11.33549154,8.58340567,11.37652254Q8.52199849,11.41755348,8.46977597,11.46977597Q8.41755348,11.52199849,8.37652254,11.58340567Q8.33549154,11.64481282,8.30722892,11.71304482Q8.27896631,11.78127682,8.2645582,11.85371152Q8.25014997,11.926146217,8.25014997,12Q8.25014997,12.073853783,8.2645582,12.14628848Q8.27896631,12.21872318,8.30722892,12.28695518Q8.33549154,12.35518718,8.37652254,12.41659433Q8.41755348,12.47800151,8.46977597,12.53022403Q8.52199849,12.58244652,8.58340567,12.62347746Q8.64481282,12.66450846,8.71304482,12.69277108Q8.78127682,12.72103369,8.85371152,12.7354418Q8.926146217,12.74985003,9,12.74985003L9,12.75Z" fill-rule="evenodd" fill="#000000" fill-opacity="1" style="mix-blend-mode:passthrough"/><path d="M9,18.75L20,18.75L20,18.74985003Q20.073853,18.74985003,20.146288,18.7354418Q20.218722,18.72103369,20.286954,18.69277108Q20.355186,18.66450846,20.416594,18.62347746Q20.478001,18.58244652,20.530223,18.53022403Q20.582445,18.47800151,20.623476,18.41659433Q20.664507,18.35518718,20.69277,18.28695518Q20.721033,18.21872318,20.735441,18.14628848Q20.749848999999998,18.073853783,20.749850000000002,18Q20.749848999999998,17.926146217,20.735441,17.85371152Q20.721033,17.78127682,20.69277,17.71304482Q20.664507,17.64481282,20.623477,17.58340567Q20.582445999999997,17.52199849,20.530224,17.46977597Q20.478001,17.41755348,20.416594,17.37652254Q20.355186,17.33549154,20.286955,17.30722892Q20.218723,17.27896631,20.146288,17.2645582Q20.073853,17.25014997,20,17.25014997L20,17.25L9,17.25L9,17.25014997Q8.926146217,17.25014997,8.85371152,17.2645582Q8.78127682,17.27896631,8.71304482,17.30722892Q8.64481282,17.33549154,8.58340567,17.37652254Q8.52199849,17.41755348,8.46977597,17.46977597Q8.41755348,17.52199849,8.37652254,17.58340567Q8.33549154,17.64481282,8.30722892,17.71304482Q8.27896631,17.78127682,8.2645582,17.85371152Q8.25014997,17.926146217,8.25014997,18Q8.25014997,18.073853783,8.2645582,18.14628848Q8.27896631,18.21872318,8.30722892,18.28695518Q8.33549154,18.35518718,8.37652254,18.41659433Q8.41755348,18.47800151,8.46977597,18.53022403Q8.52199849,18.58244652,8.58340567,18.62347746Q8.64481282,18.66450846,8.71304482,18.69277108Q8.78127682,18.72103369,8.85371152,18.7354418Q8.926146217,18.74985003,9,18.74985003L9,18.75Z" fill-rule="evenodd" fill="#000000" fill-opacity="1" style="mix-blend-mode:passthrough"/><ellipse cx="5" cy="6.010009765625" rx="0.875" ry="0.875" fill="#000000" fill-opacity="1"/><ellipse cx="5" cy="12.010009765625" rx="0.875" ry="0.875" fill="#000000" fill-opacity="1"/><ellipse cx="5" cy="18" rx="0.875" ry="0.875" fill="#000000" fill-opacity="1"/></g></svg>