<svg id="图层_1" data-name="图层 1" xmlns="http://www.w3.org/2000/svg" viewBox="0 0 24 24">
  <defs>
    <style>
      .lock1-1 {
        fill-rule: evenodd;
      }
    </style>
  </defs>
  <path class="lock1-1"
    d="M20.29,10.87a3.17,3.17,0,0,0-2.32-1h-.3V6A5.47,5.47,0,0,0,16,2,5.49,5.49,0,0,0,12,.36,5.49,5.49,0,0,0,8,2,5.47,5.47,0,0,0,6.33,6V9.91H6a3.17,3.17,0,0,0-2.32,1,3.17,3.17,0,0,0-1,2.32v7.16A3.28,3.28,0,0,0,6,23.64H18a3.28,3.28,0,0,0,3.28-3.29V13.19A3.17,3.17,0,0,0,20.29,10.87ZM8.12,6A3.73,3.73,0,0,1,9.26,3.29,3.71,3.71,0,0,1,12,2.15a3.71,3.71,0,0,1,2.74,1.14A3.73,3.73,0,0,1,15.88,6V9.91H8.12ZM19.46,20.35A1.5,1.5,0,0,1,18,21.85H6a1.5,1.5,0,0,1-1.49-1.5V13.19A1.5,1.5,0,0,1,6,11.7H18a1.5,1.5,0,0,1,1.49,1.49Z" />
</svg>