<svg xmlns="http://www.w3.org/2000/svg" xmlns:xlink="http://www.w3.org/1999/xlink" fill="none" version="1.1" width="24" height="24" viewBox="0 0 24 24"><defs><clipPath id="master_svg0_5851_03392"><rect x="0" y="0" width="24" height="24" rx="0"/></clipPath></defs><g clip-path="url(#master_svg0_5851_03392)"><g></g><g><path d="M4.25,13L4.25,19Q4.25,20.13909,5.0554568,20.94454Q5.860913,21.75,7,21.75L17,21.75Q18.1391,21.75,18.944499999999998,20.94454Q19.75,20.13909,19.75,19L19.75,13Q19.75,11.860914,18.944499999999998,11.0554566Q18.1391,10.25,17,10.25L7,10.25Q5.860913,10.25,5.0554564,11.0554565Q4.25,11.860913,4.25,13ZM6.1161200000000004,19.883879999999998Q5.75,19.51777,5.75,19L5.75,13Q5.75,12.48223,6.1161200000000004,12.11612Q6.4822299999999995,11.75,7,11.75L17,11.75Q17.5178,11.75,17.8839,12.11612Q18.25,12.48223,18.25,13L18.25,19Q18.25,19.51777,17.8839,19.883879999999998Q17.5178,20.25,17,20.25L7,20.25Q6.4822299999999995,20.25,6.1161200000000004,19.883879999999998Z" fill-rule="evenodd" fill="#000000" fill-opacity="1" style="mix-blend-mode:passthrough"/></g><g><path d="M15.25,7L15.25,11Q15.25,11.07387,15.26441,11.14632Q15.27882,11.21877,15.307089999999999,11.28701Q15.33536,11.35526,15.3764,11.41668Q15.41744,11.4781,15.46967,11.53033Q15.521899999999999,11.58256,15.58332,11.6236Q15.644739999999999,11.66464,15.71299,11.69291Q15.78123,11.72118,15.85368,11.73559Q15.92613,11.75,16,11.75Q16.07387,11.75,16.14632,11.73559Q16.21877,11.72118,16.287010000000002,11.69291Q16.35526,11.66464,16.41668,11.6236Q16.478099999999998,11.58256,16.53033,11.53033Q16.58256,11.4781,16.6236,11.41668Q16.66464,11.35526,16.692909999999998,11.28701Q16.72118,11.21877,16.735590000000002,11.14632Q16.75,11.07387,16.75,11L16.75,7Q16.75,5.03249,15.35876,3.6412430000000002Q13.96751,2.25,12,2.25Q10.03249,2.25,8.641243,3.6412430000000002Q7.25,5.03249,7.25,7L7.25,11Q7.25,11.07387,7.264411,11.14632Q7.278822,11.21877,7.30709,11.28701Q7.335359,11.35526,7.376398,11.41668Q7.417437,11.4781,7.46967,11.53033Q7.521903,11.58256,7.583322,11.6236Q7.644742,11.66464,7.712987,11.69291Q7.781233,11.72118,7.853682,11.73559Q7.9261315,11.75,8,11.75Q8.0738685,11.75,8.146318,11.73559Q8.218767,11.72118,8.287013,11.69291Q8.355258,11.66464,8.416678,11.6236Q8.478097,11.58256,8.53033,11.53033Q8.582563,11.4781,8.623602,11.41668Q8.664641,11.35526,8.69291,11.28701Q8.721178,11.21877,8.735589000000001,11.14632Q8.75,11.07387,8.75,11L8.75,7Q8.75,5.65381,9.7019,4.7019Q10.65381,3.75,12,3.75Q13.34619,3.75,14.2981,4.7019Q15.25,5.65381,15.25,7Z" fill-rule="evenodd" fill="#000000" fill-opacity="1" style="mix-blend-mode:passthrough"/></g><g><path d="M15,15.25Q14.9261315,15.25,14.853682,15.264410999999999Q14.781233,15.278822,14.712987,15.30709Q14.644742,15.335359,14.583322,15.376398Q14.521903,15.417437,14.46967,15.46967Q14.417437,15.521903,14.376398,15.583322Q14.335359,15.644742,14.30709,15.712987Q14.278822,15.781233,14.264410999999999,15.853682Q14.25,15.9261315,14.25,16Q14.25,16.0738685,14.264410999999999,16.146318Q14.278822,16.218767,14.30709,16.287013Q14.335359,16.355258,14.376398,16.416678Q14.417437,16.478096999999998,14.46967,16.53033Q14.521903,16.582563,14.583322,16.623601999999998Q14.644742,16.664641,14.712987,16.69291Q14.781233,16.721178,14.853682,16.735589Q14.9261315,16.75,15,16.75L15.0100002,16.75Q15.0838688,16.75,15.156318,16.735589Q15.228767,16.721178,15.297013,16.69291Q15.365258,16.664641,15.426678,16.623601999999998Q15.488097,16.582563,15.54033,16.53033Q15.592563,16.478096999999998,15.633602,16.416678Q15.674641,16.355258,15.70291,16.287013Q15.731178,16.218767,15.745589,16.146318Q15.76,16.0738685,15.76,16Q15.76,15.9261315,15.745589,15.853682Q15.731178,15.781233,15.70291,15.712987Q15.674642,15.644742,15.633602,15.583322Q15.592563,15.521903,15.54033,15.46967Q15.488097,15.417437,15.426678,15.376398Q15.365258,15.335359,15.297013,15.30709Q15.228767,15.278822,15.156318,15.264410999999999Q15.0838688,15.25,15.0100002,15.25L15,15.25Z" fill-rule="evenodd" fill="#000000" fill-opacity="1" style="mix-blend-mode:passthrough"/></g><g><path d="M12.010000228881836,15.25Q11.936131728881836,15.25,11.863682228881835,15.264410999999999Q11.791233228881836,15.278822,11.722987228881836,15.30709Q11.654742228881837,15.335359,11.593322228881837,15.376398Q11.531903228881836,15.417437,11.479670228881837,15.46967Q11.427437228881836,15.521903,11.386398228881836,15.583322Q11.345359228881836,15.644742,11.317090228881836,15.712987Q11.288822228881836,15.781233,11.274411228881835,15.853682Q11.260000228881836,15.9261315,11.260000228881836,16Q11.260000228881836,16.0738685,11.274411228881835,16.146318Q11.288822228881836,16.218767,11.317090228881836,16.287013Q11.345359228881836,16.355258,11.386398228881836,16.416678Q11.427437228881836,16.478096999999998,11.479670228881837,16.53033Q11.531903228881836,16.582563,11.593322228881837,16.623601999999998Q11.654742228881837,16.664641,11.722987228881836,16.69291Q11.791233228881836,16.721178,11.863682228881835,16.735589Q11.936131728881836,16.75,12.010000228881836,16.75L12.020000428881836,16.75Q12.093869028881835,16.75,12.166318228881837,16.735589Q12.238767228881835,16.721178,12.307013228881836,16.69291Q12.375258228881837,16.664641,12.436678228881837,16.623601999999998Q12.498097228881836,16.582563,12.550330228881837,16.53033Q12.602563228881836,16.478096999999998,12.643602228881836,16.416678Q12.684641228881835,16.355258,12.712910228881835,16.287013Q12.741178228881836,16.218767,12.755589228881837,16.146318Q12.770000228881836,16.0738685,12.770000228881836,16Q12.770000228881836,15.9261315,12.755589228881837,15.853682Q12.741178228881836,15.781233,12.712910228881835,15.712987Q12.684642228881836,15.644742,12.643602228881836,15.583322Q12.602563228881836,15.521903,12.550330228881837,15.46967Q12.498097228881836,15.417437,12.436678228881837,15.376398Q12.375258228881837,15.335359,12.307013228881836,15.30709Q12.238767228881835,15.278822,12.166318228881837,15.264410999999999Q12.093869028881835,15.25,12.020000428881836,15.25L12.010000228881836,15.25Z" fill-rule="evenodd" fill="#000000" fill-opacity="1" style="mix-blend-mode:passthrough"/></g><g><path d="M9.020000457763672,15.25Q8.946131957763672,15.25,8.873682457763671,15.264410999999999Q8.801233457763672,15.278822,8.732987457763672,15.30709Q8.664742457763673,15.335359,8.603322457763673,15.376398Q8.541903457763672,15.417437,8.489670457763673,15.46967Q8.437437457763671,15.521903,8.396398457763672,15.583322Q8.355359457763672,15.644742,8.327090457763672,15.712987Q8.298822457763672,15.781233,8.284411457763671,15.853682Q8.270000457763672,15.9261315,8.270000457763672,16Q8.270000457763672,16.0738685,8.284411457763671,16.146318Q8.298822457763672,16.218767,8.327090457763672,16.287013Q8.355359457763672,16.355258,8.396398457763672,16.416678Q8.437437457763671,16.478096999999998,8.489670457763673,16.53033Q8.541903457763672,16.582563,8.603322457763673,16.623601999999998Q8.664742457763673,16.664641,8.732987457763672,16.69291Q8.801233457763672,16.721178,8.873682457763671,16.735589Q8.946131957763672,16.75,9.020000457763672,16.75L9.030000657763672,16.75Q9.103869257763671,16.75,9.176318457763672,16.735589Q9.248767457763671,16.721178,9.317013457763672,16.69291Q9.385258457763673,16.664641,9.446678457763673,16.623601999999998Q9.508097457763672,16.582563,9.560330457763673,16.53033Q9.612563457763672,16.478096999999998,9.653602457763672,16.416678Q9.694641457763671,16.355258,9.722910457763671,16.287013Q9.751178457763672,16.218767,9.765589457763673,16.146318Q9.780000457763672,16.0738685,9.780000457763672,16Q9.780000457763672,15.9261315,9.765589457763673,15.853682Q9.751178457763672,15.781233,9.722910457763671,15.712987Q9.694642457763672,15.644742,9.653602457763672,15.583322Q9.612563457763672,15.521903,9.560330457763673,15.46967Q9.508097457763672,15.417437,9.446678457763673,15.376398Q9.385258457763673,15.335359,9.317013457763672,15.30709Q9.248767457763671,15.278822,9.176318457763672,15.264410999999999Q9.103869257763671,15.25,9.030000657763672,15.25L9.020000457763672,15.25Z" fill-rule="evenodd" fill="#000000" fill-opacity="1" style="mix-blend-mode:passthrough"/></g></g></svg>