<svg xmlns="http://www.w3.org/2000/svg" xmlns:xlink="http://www.w3.org/1999/xlink" fill="none" version="1.1" width="24" height="24" viewBox="0 0 24 24"><defs><clipPath id="master_svg0_5794_08691"><rect x="0" y="0" width="24" height="24" rx="0"/></clipPath></defs><g clip-path="url(#master_svg0_5794_08691)"><g><path d="M4.25,13L4.25,19Q4.25,20.13909,5.0554568,20.94454Q5.860913,21.75,7,21.75L17,21.75Q18.1391,21.75,18.944499999999998,20.94454Q19.75,20.13909,19.75,19L19.75,13Q19.75,11.860914,18.944499999999998,11.0554566Q18.1391,10.25,17,10.25L7,10.25Q5.860913,10.25,5.0554564,11.0554565Q4.25,11.860913,4.25,13ZM6.1161200000000004,19.883879999999998Q5.75,19.51777,5.75,19L5.75,13Q5.75,12.48223,6.1161200000000004,12.11612Q6.4822299999999995,11.75,7,11.75L17,11.75Q17.5178,11.75,17.8839,12.11612Q18.25,12.48223,18.25,13L18.25,19Q18.25,19.51777,17.8839,19.883879999999998Q17.5178,20.25,17,20.25L7,20.25Q6.4822299999999995,20.25,6.1161200000000004,19.883879999999998Z" fill-rule="evenodd" fill="#000000" fill-opacity="1" style="mix-blend-mode:passthrough"/></g><g><path d="M14.2981,3.7019Q15.25,4.65381,15.25,6Q15.25,6.07387,15.26441,6.14632Q15.27882,6.21877,15.307089999999999,6.28701Q15.33536,6.35526,15.3764,6.41668Q15.41744,6.4781,15.46967,6.53033Q15.521899999999999,6.58256,15.58332,6.6236Q15.644739999999999,6.66464,15.71299,6.69291Q15.78123,6.72118,15.85368,6.73559Q15.92613,6.75,16,6.75Q16.07387,6.75,16.14632,6.73559Q16.21877,6.72118,16.287010000000002,6.69291Q16.35526,6.66464,16.41668,6.6236Q16.478099999999998,6.58256,16.53033,6.53033Q16.58256,6.4781,16.6236,6.41668Q16.66464,6.35526,16.692909999999998,6.28701Q16.72118,6.21877,16.735590000000002,6.14632Q16.75,6.07387,16.75,6Q16.75,4.03249,15.35876,2.6412430000000002Q13.96751,1.25,12,1.25Q10.03249,1.25,8.641243,2.6412430000000002Q7.25,4.03249,7.25,6L7.25,11Q7.25,11.07387,7.264411,11.14632Q7.278822,11.21877,7.30709,11.28701Q7.335359,11.35526,7.376398,11.41668Q7.417437,11.4781,7.46967,11.53033Q7.521903,11.58256,7.583322,11.6236Q7.644742,11.66464,7.712987,11.69291Q7.781233,11.72118,7.853682,11.73559Q7.9261315,11.75,8,11.75Q8.0738685,11.75,8.146318,11.73559Q8.218767,11.72118,8.287013,11.69291Q8.355258,11.66464,8.416678,11.6236Q8.478097,11.58256,8.53033,11.53033Q8.582563,11.4781,8.623602,11.41668Q8.664641,11.35526,8.69291,11.28701Q8.721178,11.21877,8.735589000000001,11.14632Q8.75,11.07387,8.75,11L8.75,6Q8.75,4.65381,9.7019,3.7019Q10.65381,2.75,12,2.75Q13.34619,2.75,14.2981,3.7019Z" fill-rule="evenodd" fill="#000000" fill-opacity="1" style="mix-blend-mode:passthrough"/></g></g></svg>