<svg xmlns="http://www.w3.org/2000/svg" xmlns:xlink="http://www.w3.org/1999/xlink" fill="none" version="1.1" width="24" height="24" viewBox="0 0 24 24"><defs><clipPath id="master_svg0_5276_06339"><rect x="0" y="0" width="24" height="24" rx="0"/></clipPath><clipPath id="master_svg1_5276_06354"><rect x="2" y="2" width="20" height="20" rx="0"/></clipPath></defs><g><g clip-path="url(#master_svg0_5276_06339)"></g><g clip-path="url(#master_svg1_5276_06354)"><g><g><path d="M19.708335971832277,11.508344054222107L9.708335971832275,11.508344054222107C9.376964971832276,11.508344054222107,9.108335971832275,11.776973054222108,9.108335971832275,12.108344054222107C9.108335971832275,12.439715054222107,9.376964971832276,12.708344054222106,9.708335971832275,12.708344054222106L19.708335971832277,12.708344054222106C20.039735971832275,12.708344054222106,20.308335971832275,12.439715054222107,20.308335971832275,12.108344054222107C20.308335971832275,11.776973054222108,20.039735971832275,11.508344054222107,19.708335971832277,11.508344054222107Z" fill-rule="evenodd" fill="#38363C" fill-opacity="1"/></g><g><path d="M20.13260009536743,11.784069976158142L16.799360095367433,8.450831976158142C16.686742095367432,8.338214076158142,16.53413009536743,8.274999976158142,16.375000095367433,8.274999976158142C16.043629095367432,8.274999976158142,15.775000095367432,8.543628976158143,15.775000095367432,8.874999976158142C15.775000095367432,9.034129976158143,15.838214195367431,9.186741976158142,15.950736095367432,9.299259976158142L18.859810095367433,12.208329976158142L15.950891095367432,15.117249976158142C15.838214195367431,15.229919976158143,15.775000095367432,15.382539976158142,15.775000095367432,15.541669976158143C15.775000095367432,15.873039976158143,16.043629095367432,16.14166997615814,16.375000095367433,16.14166997615814C16.53413009536743,16.14166997615814,16.686742095367432,16.07844997615814,16.79926009536743,15.965929976158142L20.13260009536743,12.632599976158142C20.36691009536743,12.398279976158143,20.36691009536743,12.018379976158142,20.13260009536743,11.784069976158142Z" fill-rule="evenodd" fill="#38363C" fill-opacity="1"/></g><g><path d="M18.641700095367433,18.87497172908783L18.641700095367433,19.70837172908783Q18.641700095367433,20.64717172908783,17.97780009536743,21.31107172908783Q17.31390009536743,21.97497172908783,16.375000095367433,21.97497172908783L8.041670095367431,21.97497172908783Q7.102780095367431,21.97497172908783,6.438891095367431,21.31107172908783Q5.775000154972032,20.64717172908783,5.775000214576432,19.70837172908783L5.775000095367432,4.708341729087829Q5.775000095367432,3.7694517290878293,6.438891095367431,3.1055627290878296Q7.102780095367431,2.4416717290878296,8.041670095367431,2.4416717290878296L16.375000095367433,2.4416717290878296Q17.31390009536743,2.4416717290878296,17.97780009536743,3.1055627290878296Q18.641700095367433,3.7694517290878293,18.641700095367433,4.708341729087829L18.641700095367433,5.541671729087829C18.641700095367433,5.873041729087829,18.37300009536743,6.14167172908783,18.041700095367432,6.14167172908783C17.71030009536743,6.14167172908783,17.44170009536743,5.873041729087829,17.44170009536743,5.541671729087829L17.44170009536743,4.708341729087829Q17.44170009536743,4.26651172908783,17.12920009536743,3.9540917290878297Q16.816800095367434,3.6416717290878298,16.375000095367433,3.6416717290878298L8.041670095367431,3.6416717290878298Q7.599840095367432,3.6416717290878298,7.287420095367432,3.9540917290878297Q6.975000095367432,4.26651172908783,6.975000095367432,4.708341729087829L6.975000095367432,19.70837172908783Q6.975000095367432,20.15017172908783,7.287420095367432,20.46257172908783Q7.599840095367432,20.77497172908783,8.041670095367431,20.77497172908783L16.375000095367433,20.77497172908783Q16.816800095367434,20.77497172908783,17.12920009536743,20.46257172908783Q17.44170009536743,20.15017172908783,17.44170009536743,19.70837172908783L17.44170009536743,18.87497172908783C17.44170009536743,18.54367172908783,17.71030009536743,18.27497172908783,18.041700095367432,18.27497172908783C18.37300009536743,18.27497172908783,18.641700095367433,18.54367172908783,18.641700095367433,18.87497172908783Z" fill-rule="evenodd" fill="#38363C" fill-opacity="1"/></g></g></g></g></svg>