<svg xmlns="http://www.w3.org/2000/svg" xmlns:xlink="http://www.w3.org/1999/xlink" fill="none" version="1.1" width="24" height="24" viewBox="0 0 24 24"><defs><clipPath id="master_svg0_91_01643"><rect x="0" y="0" width="24" height="24" rx="0"/></clipPath></defs><g clip-path="url(#master_svg0_91_01643)"><g><path d="M2.25,7L2.25,17Q2.25,18.1391,3.0554566,18.944499999999998Q3.860914,19.75,5,19.75L19,19.75Q20.1391,19.75,20.9445,18.944499999999998Q21.75,18.1391,21.75,17L21.75,7Q21.75,5.860912,20.9445,5.0554563Q20.1391,4.25,19,4.25L5,4.25Q3.860913,4.25,3.0554564,5.0554564Q2.25,5.860913,2.25,7ZM4.1161200000000004,17.8839Q3.75,17.5178,3.75,17L3.75,7Q3.75,6.4822299999999995,4.1161200000000004,6.1161200000000004Q4.4822299999999995,5.75,5,5.75L19,5.75Q19.5178,5.75,19.8839,6.1161200000000004Q20.25,6.4822299999999995,20.25,7L20.25,17Q20.25,17.5178,19.8839,17.8839Q19.5178,18.25,19,18.25L5,18.25Q4.4822299999999995,18.25,4.1161200000000004,17.8839Z" fill-rule="evenodd" fill="#000000" fill-opacity="1" style="mix-blend-mode:passthrough"/></g><g><path d="M3.416025,6.375962L12,12.09861L20.584,6.375962Q20.7729,6.25,21,6.25Q21.0739,6.25,21.1463,6.264411Q21.2188,6.278822,21.287,6.30709Q21.3553,6.335359,21.4167,6.376398Q21.4781,6.417437,21.5303,6.46967Q21.5826,6.521903,21.6236,6.583322Q21.6646,6.644742,21.6929,6.712987Q21.7212,6.781233,21.7356,6.853682Q21.75,6.9261315,21.75,7Q21.75,7.0926032,21.7275,7.182425Q21.705,7.272247,21.6613,7.353893Q21.6176,7.435539,21.5553,7.504105Q21.4931,7.572671,21.416,7.624038L12.41603,13.62404Q12.32363,13.68564,12.21734,13.71782Q12.11105,13.75,12,13.75Q11.88895,13.75,11.78266,13.71782Q11.67638,13.68564,11.58397,13.62404L2.583975,7.624038Q2.506924,7.572671,2.4446820000000002,7.504105Q2.38244,7.435539,2.338744,7.353893Q2.295048,7.272247,2.2725239999999998,7.182425Q2.25,7.0926032,2.25,7Q2.25,6.9261315,2.264411,6.853682Q2.278822,6.781233,2.30709,6.712987Q2.335359,6.644742,2.376398,6.583322Q2.417437,6.521903,2.46967,6.46967Q2.521903,6.417437,2.583322,6.376398Q2.644742,6.335359,2.712987,6.30709Q2.781233,6.278822,2.853682,6.264411Q2.9261315,6.25,3,6.25Q3.2270820000000002,6.25,3.416025,6.375962Z" fill-rule="evenodd" fill="#000000" fill-opacity="1" style="mix-blend-mode:passthrough"/></g></g></svg>