<svg xmlns="http://www.w3.org/2000/svg" xmlns:xlink="http://www.w3.org/1999/xlink" fill="none" version="1.1" width="24" height="24" viewBox="0 0 24 24"><defs><clipPath id="master_svg0_91_09021"><rect x="0" y="0" width="24" height="24" rx="0"/></clipPath></defs><g clip-path="url(#master_svg0_91_09021)"><g><path d="M2.478912353515625,5.9410709375C2.478912353515625,4.9850069375,3.253958353515625,4.2099609375,4.210022353515625,4.2099609375L19.790012353515625,4.2099609375C20.746112353515624,4.2099609375,21.521112353515626,4.9850069375,21.521112353515626,5.9410709375L21.521112353515626,18.0588609375C21.521112353515626,19.0149609375,20.746112353515624,19.7899609375,19.790012353515625,19.7899609375L4.210022353515625,19.7899609375C3.253958353515625,19.7899609375,2.478912353515625,19.0149609375,2.478912353515625,18.0588609375L2.478912353515625,5.9410709375Z" fill="#FFDE7B" fill-opacity="1" style="mix-blend-mode:passthrough"/></g><g><path d="M4.210022353515625,4.2099609375C3.253958353515625,4.2099609375,2.478912353515625,4.9850069375,2.478912353515625,5.9410709375L2.478912353515625,18.0588609375C2.478912353515625,19.0149609375,3.253958353515625,19.7899609375,4.210022353515625,19.7899609375L19.790012353515625,19.7899609375C20.746112353515624,19.7899609375,21.521112353515626,19.0149609375,21.521112353515626,18.0588609375L21.521112353515626,5.9410709375C21.521112353515626,5.8030609375,21.505012353515625,5.6688209375,21.474512353515625,5.5401509375L13.063912353515626,11.2746209375C12.422122353515626,11.712180937500001,11.577912353515625,11.712180937500001,10.936142353515624,11.2746209375L2.526608553515625,5.5408509375C2.707220353515625,4.7777479375,3.392915353515625,4.2099609375,4.211222353515625,4.2099609375L4.210022353515625,4.2099609375Z" fill="#FFBC00" fill-opacity="1" style="mix-blend-mode:passthrough"/></g></g></svg>