<svg xmlns="http://www.w3.org/2000/svg" xmlns:xlink="http://www.w3.org/1999/xlink" fill="none" version="1.1" width="24" height="24" viewBox="0 0 24 24"><defs><clipPath id="master_svg0_91_02164"><rect x="0" y="0" width="24" height="24" rx="0"/></clipPath></defs><g clip-path="url(#master_svg0_91_02164)"><g><path d="M3,8.80278L3,17C3,18.104599999999998,3.895431,19,5,19L19,19C20.1046,19,21,18.104599999999998,21,17L21,8.80278L12.83205,14.24808Q12.74015,14.30934,12.64027,14.35649Q12.54039,14.40363,12.43468,14.43564Q12.32897,14.46764,12.21971,14.48382Q12.11045,14.5,12,14.5Q11.88955,14.5,11.78029,14.48382Q11.67103,14.46764,11.56532,14.43564Q11.45961,14.40363,11.35973,14.35649Q11.25985,14.30934,11.16795,14.24808L3,8.80278ZM20.4154,5.586963L20.1679,5.751925L12,11.19722L3.8320499999999997,5.751925L3.5846109999999998,5.586963C3.946632,5.224343,4.44712,5,5,5L19,5C19.5529,5,20.0534,5.224343,20.4154,5.586963Z" fill-rule="evenodd" fill="#FF9900" fill-opacity="1"/><path d="M3.75,8.80278L3.75,17Q3.75,17.5178,4.1161200000000004,17.8839Q4.4822299999999995,18.25,5,18.25L19,18.25Q19.5178,18.25,19.8839,17.8839Q20.25,17.5178,20.25,17L20.25,8.80278L21,8.80278L21.416,9.42681L13.2481,14.87211Q12,15.7042,10.75192,14.87211L2.583975,9.42681L3,8.80278L3.75,8.80278ZM2.25,7.40139L11.58397,13.62404Q12,13.90139,12.41603,13.62404L21.75,7.40139L21.75,17Q21.75,18.1391,20.9445,18.944499999999998Q20.1391,19.75,19,19.75L5,19.75Q3.860914,19.75,3.0554566,18.944499999999998Q2.25,18.1391,2.25,17L2.25,8.80278L2.25,7.40139ZM20.8314,6.211L20.584,6.37596L12,12.09861L3.416025,6.37596L2.408026,5.703956L3.0538425,5.0570716000000004Q3.859581,4.25,5,4.25L19,4.25Q20.1404,4.25,20.9462,5.0570729L21.592,5.703958L20.8314,6.211ZM19.9994,4.9629267L20.4154,5.586963L19.8846,6.1168499999999995Q19.5184,5.75,19,5.75L5,5.75Q4.48163,5.75,4.11538,6.1168499999999995L3.5846109999999998,5.586963L4.00064,4.9629273L4.24808,5.127887L12.41603,10.57319L12,11.19722L11.58397,10.57319L19.7519,5.1278880000000004L19.9994,4.9629267Z" fill="#FF9900" fill-opacity="1"/></g></g></svg>