<svg xmlns="http://www.w3.org/2000/svg" xmlns:xlink="http://www.w3.org/1999/xlink" fill="none" version="1.1" width="24" height="24" viewBox="0 0 24 24"><defs><clipPath id="master_svg0_5807_08812"><rect x="0" y="0" width="24" height="24" rx="0"/></clipPath></defs><g clip-path="url(#master_svg0_5807_08812)"><g><path d="M19.2954,6.689358Q19.3966,6.645994,19.481099999999998,6.575382Q19.5655,6.50477,19.6261,6.412868Q19.686700000000002,6.320965,19.718400000000003,6.215525Q19.75,6.110084,19.75,6Q19.75,5.9261315,19.735599999999998,5.853682Q19.7212,5.781233,19.6929,5.712987Q19.6646,5.644742,19.6236,5.583322Q19.5826,5.521903,19.5303,5.46967Q19.478099999999998,5.417437,19.4167,5.376398Q19.3553,5.335359,19.287,5.30709Q19.2188,5.278822,19.1463,5.264411Q19.073900000000002,5.25,19,5.25Q18.8461,5.25,18.7046,5.310641L18.704,5.310896L4.704561,11.31064Q4.636665,11.339739999999999,4.57575,11.38152Q4.514836,11.42331,4.463243,11.47617Q4.411651,11.52904,4.371364,11.590959999999999Q4.331077,11.65287,4.303643,11.72146Q4.276209,11.790040000000001,4.262682,11.86266Q4.249155,11.935279999999999,4.250056,12.00914Q4.250957,12.08301,4.26625,12.15527Q4.281543,12.227540000000001,4.310641,12.29544Q4.367538,12.4282,4.46967,12.53033Q4.571802,12.63246,4.704561,12.68936L18.7046,18.6894Q18.8461,18.75,19,18.75Q19.073900000000002,18.75,19.1463,18.735599999999998Q19.2188,18.7212,19.287,18.6929Q19.3553,18.6646,19.4167,18.6236Q19.478099999999998,18.5826,19.5303,18.5303Q19.5826,18.478099999999998,19.6236,18.4167Q19.6646,18.3553,19.6929,18.287Q19.7212,18.2188,19.735599999999998,18.1463Q19.75,18.073900000000002,19.75,18Q19.75,17.8899,19.718400000000003,17.7845Q19.686700000000002,17.679000000000002,19.6261,17.5871Q19.5655,17.4952,19.481099999999998,17.424599999999998Q19.3966,17.354,19.2954,17.3106L6.90394,12L19.2954,6.689359L19.2954,6.689358Z" fill-rule="evenodd" fill="#000000" fill-opacity="1" style="mix-blend-mode:passthrough"/></g></g></svg>