<svg xmlns="http://www.w3.org/2000/svg" xmlns:xlink="http://www.w3.org/1999/xlink" fill="none" version="1.1" width="24" height="24" viewBox="0 0 24 24"><defs><clipPath id="master_svg0_5807_08807"><rect x="0" y="0" width="24" height="24" rx="0"/></clipPath></defs><g clip-path="url(#master_svg0_5807_08807)"><g><path d="M5.295439,5.310641L19.2954,11.31064Q19.4326,11.36941,19.5368,11.47617Q19.641,11.58294,19.6964,11.72146Q19.7518,11.85997,19.7499,12.00914Q19.7481,12.15832,19.6894,12.29544Q19.6325,12.4282,19.5303,12.53033Q19.4282,12.63246,19.2954,12.68936L5.295439,18.6894Q5.153943,18.75,5,18.75Q4.9261315,18.75,4.853682,18.735599999999998Q4.781233,18.7212,4.712987,18.6929Q4.644742,18.6646,4.583322,18.6236Q4.521903,18.5826,4.46967,18.5303Q4.417437,18.478099999999998,4.376398,18.4167Q4.335359,18.3553,4.30709,18.287Q4.278822,18.2188,4.264411,18.1463Q4.25,18.073900000000002,4.25,18Q4.25,17.8899,4.281634,17.7845Q4.313269,17.679000000000002,4.373869,17.5871Q4.434469,17.4952,4.518923,17.424599999999998Q4.603377,17.354,4.70456,17.3106L4.704817,17.310499999999998L17.0961,12L4.704561,6.689359Q4.603377,6.645994,4.518923,6.575383Q4.434469,6.504771,4.373869,6.412868Q4.313269,6.320966,4.281634,6.215525Q4.25,6.110084,4.25,6Q4.25,5.9261315,4.264411,5.853682Q4.278822,5.781233,4.30709,5.712987Q4.335359,5.644742,4.376398,5.583322Q4.417437,5.521903,4.46967,5.46967Q4.521903,5.417437,4.583322,5.376398Q4.644742,5.335359,4.712987,5.30709Q4.781233,5.278822,4.853682,5.264411Q4.9261315,5.25,5,5.25Q5.153943,5.25,5.295439,5.310641Z" fill-rule="evenodd" fill="#000000" fill-opacity="1" style="mix-blend-mode:passthrough"/></g></g></svg>