<svg xmlns="http://www.w3.org/2000/svg" xmlns:xlink="http://www.w3.org/1999/xlink" fill="none" version="1.1" width="24" height="24" viewBox="0 0 24 24"><defs><clipPath id="master_svg0_5807_08795"><rect x="0" y="0" width="24" height="24" rx="0"/></clipPath></defs><g clip-path="url(#master_svg0_5807_08795)"><g><path d="M5.206192,13.2789L19.2057,17.27876L19.206,17.27886Q19.264400000000002,17.29554,19.3194,17.32139Q19.374299999999998,17.34725,19.4244,17.3816Q19.4744,17.41596,19.5183,17.45792Q19.5622,17.49988,19.5988,17.54835Q19.6353,17.59683,19.663600000000002,17.65055Q19.6919,17.70428,19.711199999999998,17.76185Q19.7305,17.81943,19.7402,17.87936Q19.75,17.93928,19.75,18Q19.75,18.07387,19.735599999999998,18.14632Q19.7212,18.21877,19.6929,18.287010000000002Q19.6646,18.35526,19.6236,18.41668Q19.5826,18.4781,19.5303,18.53033Q19.478099999999998,18.58256,19.4167,18.6236Q19.3553,18.66464,19.287,18.69291Q19.2188,18.72118,19.1463,18.735590000000002Q19.073900000000002,18.75,19,18.75Q18.895,18.75,18.794,18.72114L18.793300000000002,18.720950000000002L4.79411,14.721186L4.793959,14.721143Q4.735577,14.704462,4.680639,14.678608Q4.625701,14.652753,4.575637,14.618398Q4.525573,14.584043,4.481688,14.542082Q4.437803,14.500121,4.401239,14.451647Q4.364675,14.403173,4.336384,14.349448Q4.308094,14.295724,4.288814,14.238148Q4.269534,14.180572,4.259767,14.120645Q4.25,14.0607179,4.25,14Q4.25,13.9261315,4.264411,13.853682Q4.278822,13.781233,4.30709,13.712987Q4.335359,13.644742,4.376398,13.583322Q4.417437,13.521903,4.46967,13.46967Q4.521903,13.417437,4.583322,13.376398Q4.644742,13.335359,4.712987,13.30709Q4.781233,13.278822,4.853682,13.264410999999999Q4.9261315,13.25,5,13.25Q5.105041,13.25,5.206041,13.278857L5.206192,13.2789Z" fill-rule="evenodd" fill="#000000" fill-opacity="1" style="mix-blend-mode:passthrough"/></g><g><path d="M19.206,6.721143Q19.264400000000002,6.704463,19.3194,6.678608Q19.374299999999998,6.652754,19.4244,6.618398Q19.4744,6.584043,19.5183,6.542082Q19.5622,6.500121,19.5988,6.451647Q19.6353,6.403173,19.663600000000002,6.349448Q19.6919,6.295724,19.711199999999998,6.238148Q19.7305,6.180572,19.7402,6.120645Q19.75,6.0607179,19.75,6Q19.75,5.9261315,19.735599999999998,5.853682Q19.7212,5.781233,19.6929,5.712987Q19.6646,5.644742,19.6236,5.583322Q19.5826,5.521903,19.5303,5.46967Q19.478099999999998,5.417437,19.4167,5.376398Q19.3553,5.335359,19.287,5.30709Q19.2188,5.278822,19.1463,5.264411Q19.073900000000002,5.25,19,5.25Q18.895,5.25,18.794,5.278857L18.7935,5.278983L4.793959,9.27886Q4.722933,9.299150000000001,4.65723,9.33291Q4.591528,9.36667,4.5336739999999995,9.4126Q4.47582,9.45853,4.428038,9.51486Q4.380256,9.57119,4.3443819999999995,9.63577Q4.308508,9.70034,4.285922,9.770669999999999Q4.263335,9.841000000000001,4.2549019999999995,9.914390000000001Q4.24647,9.98777,4.252517,10.06139Q4.258564,10.135010000000001,4.278857,10.20604Q4.305119,10.29796,4.353597,10.38035Q4.402075,10.46274,4.46967,10.53033Q4.537265,10.59793,4.619654,10.6464Q4.702044,10.694880000000001,4.793959,10.72114L18.793300000000002,14.72095L18.794,14.72114Q18.895,14.75,19,14.75Q19.073900000000002,14.75,19.1463,14.73559Q19.2188,14.72118,19.287,14.69291Q19.3553,14.66464,19.4167,14.6236Q19.478099999999998,14.58256,19.5303,14.53033Q19.5826,14.4781,19.6236,14.41668Q19.6646,14.35526,19.6929,14.28701Q19.7212,14.21877,19.735599999999998,14.14632Q19.75,14.07387,19.75,14Q19.75,13.93928,19.7402,13.87936Q19.7305,13.81943,19.711199999999998,13.761849999999999Q19.6919,13.70428,19.663600000000002,13.650549999999999Q19.6353,13.59683,19.5988,13.54835Q19.5622,13.499880000000001,19.5183,13.45792Q19.4744,13.41596,19.4244,13.381599999999999Q19.374299999999998,13.347249999999999,19.3194,13.321390000000001Q19.264400000000002,13.295539999999999,19.206,13.27886L19.205399999999997,13.27867L7.73004,10L19.2056,6.721268L19.206,6.721143L19.206,6.721143Z" fill-rule="evenodd" fill="#000000" fill-opacity="1" style="mix-blend-mode:passthrough"/></g></g></svg>