<svg xmlns="http://www.w3.org/2000/svg" xmlns:xlink="http://www.w3.org/1999/xlink" fill="none" version="1.1" width="24" height="24" viewBox="0 0 24 24"><defs><clipPath id="master_svg0_5807_08801"><rect x="0" y="0" width="24" height="24" rx="0"/></clipPath></defs><g clip-path="url(#master_svg0_5807_08801)"><g><path d="M19.206,14.721143Q19.264400000000002,14.704463,19.3194,14.678608Q19.374299999999998,14.652754,19.4244,14.618398Q19.4744,14.584043,19.5183,14.542082Q19.5622,14.500121,19.5988,14.451647Q19.6353,14.403173,19.663600000000002,14.349448Q19.6919,14.295724,19.711199999999998,14.238148Q19.7305,14.180572,19.7402,14.120645Q19.75,14.0607179,19.75,14Q19.75,13.9261315,19.735599999999998,13.853682Q19.7212,13.781233,19.6929,13.712987Q19.6646,13.644742,19.6236,13.583322Q19.5826,13.521903,19.5303,13.46967Q19.478099999999998,13.417437,19.4167,13.376398Q19.3553,13.335359,19.287,13.30709Q19.2188,13.278822,19.1463,13.264410999999999Q19.073900000000002,13.25,19,13.25Q18.895,13.25,18.794,13.278857L18.7935,13.278983L4.793959,17.27886Q4.735577,17.29554,4.680639,17.32139Q4.625701,17.34725,4.575637,17.3816Q4.525573,17.41596,4.481688,17.45792Q4.437803,17.49988,4.401239,17.54835Q4.364675,17.59683,4.336384,17.65055Q4.308094,17.70428,4.288814,17.76185Q4.269534,17.81943,4.259767,17.87935Q4.25,17.93928,4.25,18Q4.25,18.07387,4.264411,18.14632Q4.278822,18.21877,4.30709,18.287010000000002Q4.335359,18.35526,4.376398,18.41668Q4.417437,18.4781,4.46967,18.53033Q4.521903,18.58256,4.583322,18.6236Q4.644742,18.66464,4.712987,18.69291Q4.781233,18.72118,4.853682,18.735590000000002Q4.9261315,18.75,5,18.75Q5.105041,18.75,5.206041,18.72114L5.206552,18.721L19.2056,14.721268L19.206,14.721143L19.206,14.721143Z" fill-rule="evenodd" fill="#000000" fill-opacity="1" style="mix-blend-mode:passthrough"/></g><g><path d="M5.206192,5.2789L19.206,9.27886Q19.3495,9.31984,19.4663,9.4126Q19.583199999999998,9.50536,19.6556,9.63577Q19.728099999999998,9.76618,19.7451,9.914390000000001Q19.7621,10.0626,19.7211,10.20604Q19.6949,10.29796,19.6464,10.38035Q19.5979,10.46274,19.5303,10.53033Q19.462699999999998,10.59793,19.3803,10.6464Q19.298000000000002,10.694880000000001,19.206,10.72114L5.206552,14.721L5.206041,14.72114Q5.105041,14.75,5,14.75Q4.9261315,14.75,4.853682,14.73559Q4.781233,14.72118,4.712987,14.69291Q4.644742,14.66464,4.583322,14.6236Q4.521903,14.58256,4.46967,14.53033Q4.417437,14.4781,4.376398,14.41668Q4.335359,14.35526,4.30709,14.28701Q4.278822,14.21877,4.264411,14.14632Q4.25,14.07387,4.25,14Q4.25,13.93928,4.259767,13.879349999999999Q4.269534,13.81943,4.288814,13.761849999999999Q4.308094,13.70428,4.336384,13.650549999999999Q4.364675,13.59683,4.401239,13.54835Q4.437803,13.499880000000001,4.481688,13.45792Q4.525573,13.41596,4.575637,13.381599999999999Q4.625701,13.347249999999999,4.680639,13.321390000000001Q4.735577,13.295539999999999,4.793959,13.27886L4.7944700000000005,13.27871L16.27,10L4.79411,6.721186L4.793959,6.721143Q4.735577,6.704462,4.680639,6.678608Q4.625701,6.652753,4.575637,6.618398Q4.525573,6.584043,4.481688,6.542082Q4.437803,6.500121,4.401239,6.451647Q4.364675,6.403173,4.336384,6.349448Q4.308094,6.295724,4.288814,6.238148Q4.269534,6.180572,4.259767,6.120645Q4.25,6.0607179,4.25,6Q4.25,5.9261315,4.264411,5.853682Q4.278822,5.781233,4.30709,5.712987Q4.335359,5.644742,4.376398,5.583322Q4.417437,5.521903,4.46967,5.46967Q4.521903,5.417437,4.583322,5.376398Q4.644742,5.335359,4.712987,5.30709Q4.781233,5.278822,4.853682,5.264411Q4.9261315,5.25,5,5.25Q5.105041,5.25,5.206041,5.278857L5.206192,5.2789Z" fill-rule="evenodd" fill="#000000" fill-opacity="1" style="mix-blend-mode:passthrough"/></g></g></svg>