<svg xmlns="http://www.w3.org/2000/svg" xmlns:xlink="http://www.w3.org/1999/xlink" fill="none" version="1.1" width="24" height="24" viewBox="0 0 24 24"><defs><clipPath id="master_svg0_6126_03892"><rect x="-0.75" y="-0.75" width="25.5" height="25.5" rx="0"/></clipPath></defs><g clip-path="url(#master_svg0_6126_03892)"><path d="M4,6.75L20,6.75L20,6.74985003Q20.073853,6.74985003,20.146288,6.7354418Q20.218721,6.72103369,20.286953,6.69277108Q20.355186,6.66450846,20.416594,6.62347746Q20.478001,6.5824465199999995,20.530224,6.53022403Q20.582447,6.47800151,20.623476,6.41659433Q20.664507,6.35518718,20.69277,6.28695518Q20.721031,6.21872318,20.735439,6.14628848Q20.749847,6.073853783,20.749849,6Q20.749847,5.926146217,20.735439,5.85371152Q20.721031,5.78127682,20.692768,5.71304482Q20.664505,5.64481282,20.623474,5.58340567Q20.582443,5.52199849,20.530222,5.46977597Q20.478001,5.4175534800000005,20.416592,5.37652254Q20.355185,5.33549154,20.286953,5.30722892Q20.218721,5.27896631,20.146286,5.2645582Q20.073853,5.25014997,20,5.25014997L20,5.25L4,5.25L4,5.25014997Q3.926146217,5.25014997,3.85371152,5.2645582Q3.78127682,5.27896631,3.71304482,5.30722892Q3.64481282,5.33549154,3.58340567,5.37652254Q3.52199849,5.4175534800000005,3.46977597,5.46977597Q3.41755348,5.52199849,3.37652254,5.58340567Q3.33549154,5.64481282,3.30722892,5.71304482Q3.27896631,5.78127682,3.2645581999999997,5.85371152Q3.25014997,5.926146217,3.25014997,6Q3.25014997,6.073853783,3.2645581999999997,6.14628848Q3.27896631,6.21872318,3.30722892,6.28695518Q3.33549154,6.35518718,3.37652254,6.41659433Q3.41755348,6.47800151,3.46977597,6.53022403Q3.52199849,6.5824465199999995,3.58340567,6.62347746Q3.64481282,6.66450846,3.71304482,6.69277108Q3.78127682,6.72103369,3.85371152,6.7354418Q3.926146217,6.74985003,4,6.74985003L4,6.75Z" fill-rule="evenodd" fill="#000000" fill-opacity="1" style="mix-blend-mode:passthrough"/><path d="M4,12.75L17,12.75L17,12.74985003Q17.073853,12.74985003,17.146287,12.7354418Q17.218721000000002,12.72103369,17.286953,12.69277108Q17.355186,12.66450846,17.416594,12.62347746Q17.478001,12.58244652,17.530224,12.53022403Q17.582445,12.47800151,17.623476,12.41659433Q17.664507,12.35518718,17.69277,12.28695518Q17.721033,12.21872318,17.735441,12.14628848Q17.749848999999998,12.073853783,17.749850000000002,12Q17.749848999999998,11.926146217,17.735441,11.85371152Q17.721033,11.78127682,17.69277,11.71304482Q17.664507,11.64481282,17.623476,11.58340567Q17.582445,11.52199849,17.530224,11.46977597Q17.478001,11.41755348,17.416594,11.37652254Q17.355186,11.33549154,17.286954,11.30722892Q17.218721000000002,11.27896631,17.146287,11.2645582Q17.073853,11.25014997,17,11.25014997L17,11.25L4,11.25L4,11.25014997Q3.926146217,11.25014997,3.85371152,11.2645582Q3.78127682,11.27896631,3.71304482,11.30722892Q3.64481282,11.33549154,3.58340567,11.37652254Q3.52199849,11.41755348,3.46977597,11.46977597Q3.41755348,11.52199849,3.37652254,11.58340567Q3.33549154,11.64481282,3.30722892,11.71304482Q3.27896631,11.78127682,3.2645581999999997,11.85371152Q3.25014997,11.926146217,3.25014997,12Q3.25014997,12.073853783,3.2645581999999997,12.14628848Q3.27896631,12.21872318,3.30722892,12.28695518Q3.33549154,12.35518718,3.37652254,12.41659433Q3.41755348,12.47800151,3.46977597,12.53022403Q3.52199849,12.58244652,3.58340567,12.62347746Q3.64481282,12.66450846,3.71304482,12.69277108Q3.78127682,12.72103369,3.85371152,12.7354418Q3.926146217,12.74985003,4,12.74985003L4,12.75Z" fill-rule="evenodd" fill="#000000" fill-opacity="1" style="mix-blend-mode:passthrough"/><path d="M4,18.75L14,18.75L14,18.74985003Q14.073853,18.74985003,14.146288,18.7354418Q14.218722,18.72103369,14.286955,18.69277108Q14.355186,18.66450846,14.416594,18.62347746Q14.478001,18.58244652,14.530224,18.53022403Q14.582445,18.47800151,14.623476,18.41659433Q14.664507,18.35518718,14.69277,18.28695518Q14.721033,18.21872318,14.735441,18.14628848Q14.749849,18.073853783,14.74985,18Q14.749849,17.926146217,14.735441,17.85371152Q14.721033,17.78127682,14.69277,17.71304482Q14.664507,17.64481282,14.623476,17.58340567Q14.582445,17.52199849,14.530224,17.46977597Q14.478001,17.41755348,14.416594,17.37652254Q14.355186,17.33549154,14.286955,17.30722892Q14.218722,17.27896631,14.146288,17.2645582Q14.073853,17.25014997,14,17.25014997L14,17.25L4,17.25L4,17.25014997Q3.926146217,17.25014997,3.85371152,17.2645582Q3.78127682,17.27896631,3.71304482,17.30722892Q3.64481282,17.33549154,3.58340567,17.37652254Q3.52199849,17.41755348,3.46977597,17.46977597Q3.41755348,17.52199849,3.37652254,17.58340567Q3.33549154,17.64481282,3.30722892,17.71304482Q3.27896631,17.78127682,3.2645581999999997,17.85371152Q3.25014997,17.926146217,3.25014997,18Q3.25014997,18.073853783,3.2645581999999997,18.14628848Q3.27896631,18.21872318,3.30722892,18.28695518Q3.33549154,18.35518718,3.37652254,18.41659433Q3.41755348,18.47800151,3.46977597,18.53022403Q3.52199849,18.58244652,3.58340567,18.62347746Q3.64481282,18.66450846,3.71304482,18.69277108Q3.78127682,18.72103369,3.85371152,18.7354418Q3.926146217,18.74985003,4,18.74985003L4,18.75Z" fill-rule="evenodd" fill="#000000" fill-opacity="1" style="mix-blend-mode:passthrough"/></g></svg>