<svg xmlns="http://www.w3.org/2000/svg" xmlns:xlink="http://www.w3.org/1999/xlink" fill="none" version="1.1" width="24" height="24" viewBox="0 0 24 24"><defs><clipPath id="master_svg0_5824_08792"><rect x="0" y="0" width="24" height="24" rx="0"/></clipPath></defs><g clip-path="url(#master_svg0_5824_08792)"><g><path d="M18,4C19.6569,4,21,5.34315,21,7L21,15C21,16.6569,19.6569,18,18,18L13,18L8,21L8,18L6,18C4.34315,18,3,16.6569,3,15L3,7C3,5.34315,4.34315,4,6,4L18,4ZM10.99998,8.99288L11.00999,10.99211L11.00999,10.99249L11.01001,11Q11.01001,11.07369,11.00279,11.14703Q10.995560000000001,11.22036,10.98119,11.292629999999999Q10.966809999999999,11.36491,10.94542,11.43543Q10.92403,11.505939999999999,10.89583,11.57402Q10.86763,11.642109999999999,10.832889999999999,11.70709Q10.79815,11.772079999999999,10.75721,11.83335Q10.71627,11.89463,10.66953,11.95159Q10.622779999999999,12.00855,10.57067,12.06066Q10.51856,12.11277,10.4616,12.15952Q10.40464,12.20626,10.34336,12.2472Q10.28209,12.28814,10.2171,12.32288Q10.15212,12.35762,10.08403,12.38582Q10.01595,12.41402,9.94544,12.43541Q9.87492,12.4568,9.80264,12.47118Q9.73037,12.48555,9.65704,12.49278Q9.5837,12.5,9.510010000000001,12.5Q9.43655,12.5,9.36345,12.49282Q9.29035,12.48565,9.21829,12.47136Q9.146239999999999,12.45708,9.07593,12.43582Q9.00562,12.41456,8.937719999999999,12.38654Q8.86982,12.35851,8.80498,12.32399Q8.74015,12.28946,8.679,12.24876Q8.617840000000001,12.20807,8.56096,12.1616Q8.50408,12.11512,8.45201,12.06331Q8.39994,12.0115,8.35318,11.95485Q8.30642,11.8982,8.265419999999999,11.837250000000001Q8.22442,11.776299999999999,8.18957,11.71164Q8.154720000000001,11.64698,8.12636,11.57922Q8.09799,11.51146,8.07638,11.44126Q8.054770000000001,11.37105,8.040130000000001,11.29907Q8.02548,11.22709,8.01794,11.154029999999999Q8.0104,11.080960000000001,8.01003,11.00751L8.01003,11.00712L8.00002,9.00789L8.00002,9.00751L8,9Q8,8.92631,8.00722,8.85297Q8.01445,8.77964,8.02882,8.707360000000001Q8.043199999999999,8.63509,8.064589999999999,8.56457Q8.08598,8.494060000000001,8.114180000000001,8.42597Q8.14238,8.357890000000001,8.17712,8.2929Q8.21185,8.227920000000001,8.2528,8.166640000000001Q8.29374,8.10537,8.34048,8.04841Q8.387229999999999,7.99145,8.43934,7.93934Q8.49145,7.887230000000001,8.54841,7.8404799999999994Q8.60537,7.79374,8.666640000000001,7.752800000000001Q8.727920000000001,7.71186,8.7929,7.67712Q8.857890000000001,7.64238,8.92597,7.61418Q8.994060000000001,7.58598,9.06457,7.56459Q9.13509,7.543200000000001,9.207360000000001,7.52882Q9.27964,7.51445,9.35297,7.50722Q9.42631,7.5,9.5,7.5Q9.573450000000001,7.5,9.646560000000001,7.50718Q9.719660000000001,7.51435,9.79171,7.52864Q9.863769999999999,7.5429200000000005,9.93408,7.56418Q10.00439,7.58544,10.072289999999999,7.61346Q10.14019,7.64149,10.205020000000001,7.67601Q10.269860000000001,7.71054,10.33101,7.75123Q10.39216,7.79193,10.44905,7.8384Q10.50593,7.88488,10.558,7.9366900000000005Q10.61007,7.9885,10.65683,8.04515Q10.70359,8.1018,10.744589999999999,8.162749999999999Q10.78559,8.223690000000001,10.82044,8.28836Q10.85529,8.35302,10.88365,8.42078Q10.91202,8.48853,10.93363,8.55874Q10.95524,8.62894,10.96988,8.70092Q10.98453,8.7729,10.99207,8.845970000000001Q10.99961,8.919039999999999,10.99998,8.99249L10.99998,8.99288ZM16.009999999999998,10.99211L16,8.99288L16,8.99249Q15.9996,8.919039999999999,15.9921,8.845970000000001Q15.9845,8.7729,15.9699,8.70092Q15.9552,8.62894,15.9336,8.55874Q15.912,8.48853,15.8837,8.42078Q15.8553,8.35302,15.8204,8.28836Q15.7856,8.223690000000001,15.7446,8.162749999999999Q15.7036,8.1018,15.6568,8.04515Q15.6101,7.9885,15.558,7.9366900000000005Q15.5059,7.88488,15.449,7.8384Q15.3922,7.79193,15.331,7.75123Q15.2699,7.71054,15.205,7.67601Q15.1402,7.64149,15.0723,7.61346Q15.0044,7.58544,14.9341,7.56418Q14.8638,7.5429200000000005,14.7917,7.52864Q14.7197,7.51435,14.6466,7.50718Q14.5735,7.5,14.5,7.5Q14.4263,7.5,14.353,7.50722Q14.2796,7.51445,14.2074,7.52882Q14.1351,7.543200000000001,14.0646,7.56459Q13.9941,7.58598,13.926,7.61418Q13.8579,7.64238,13.7929,7.67712Q13.7279,7.71186,13.6666,7.752800000000001Q13.6054,7.79374,13.5484,7.8404799999999994Q13.4914,7.887230000000001,13.4393,7.93934Q13.3872,7.99145,13.3405,8.04841Q13.2937,8.10537,13.2528,8.166640000000001Q13.2119,8.227920000000001,13.1771,8.2929Q13.1424,8.357890000000001,13.1142,8.42597Q13.086,8.494060000000001,13.0646,8.56457Q13.0432,8.63509,13.0288,8.707360000000001Q13.0144,8.77964,13.0072,8.85297Q13,8.92631,13,9L13,9.00751L13,9.00789L13.01,11.00712L13.01,11.00751Q13.0104,11.080960000000001,13.0179,11.154029999999999Q13.0255,11.22709,13.0401,11.29907Q13.0548,11.37105,13.0764,11.44126Q13.098,11.51146,13.1264,11.57922Q13.1547,11.64698,13.1896,11.71164Q13.2244,11.776299999999999,13.2654,11.837250000000001Q13.3064,11.8982,13.3532,11.95485Q13.3999,12.0115,13.452,12.06331Q13.5041,12.11512,13.561,12.1616Q13.6178,12.20807,13.679,12.24876Q13.7401,12.28946,13.805,12.32399Q13.8698,12.35851,13.9377,12.38654Q14.0056,12.41456,14.0759,12.43582Q14.1462,12.45708,14.2183,12.47136Q14.2903,12.48565,14.3635,12.49282Q14.4366,12.5,14.51,12.5Q14.5837,12.5,14.657,12.49278Q14.7304,12.48555,14.8026,12.47118Q14.8749,12.4568,14.9454,12.43541Q15.016,12.41402,15.084,12.38582Q15.1521,12.35762,15.2171,12.32288Q15.2821,12.28814,15.3434,12.2472Q15.4046,12.20626,15.4616,12.15952Q15.5186,12.11277,15.5707,12.06066Q15.6228,12.00855,15.6695,11.95159Q15.7163,11.89463,15.7572,11.83335Q15.7982,11.772079999999999,15.8329,11.70709Q15.8676,11.642109999999999,15.8958,11.57402Q15.924,11.505939999999999,15.9454,11.43543Q15.9668,11.36491,15.9812,11.292629999999999Q15.9956,11.22036,16.0028,11.14703Q16.009999999999998,11.07369,16.009999999999998,11L16.009999999999998,10.99249L16.009999999999998,10.99211Z" fill-rule="evenodd" fill="#000000" fill-opacity="1"/><path d="M18,3.25Q19.5533,3.25,20.6517,4.348349Q21.75,5.4467,21.75,7L21.75,15Q21.75,16.5533,20.6517,17.651699999999998Q19.5533,18.75,18,18.75L13,18.75L13,18L13.3859,18.6431L8.38587,21.6431Q8.32253,21.6811,8.25299,21.706Q8.18345,21.731,8.110389999999999,21.7418Q8.037320000000001,21.7527,7.96354,21.7491Q7.88976,21.7455,7.8181,21.7276Q7.74643,21.7097,7.67964,21.6781Q7.61285,21.6466,7.5535,21.6026Q7.49415,21.5586,7.44452,21.5039Q7.39489,21.4492,7.35688,21.3859Q7.25,21.2077,7.25,21L7.25,18L8,18L8,18.75L6,18.75Q4.4467,18.75,3.348349,17.651699999999998Q2.25,16.5533,2.25,15L2.25,7Q2.25,5.4467,3.348349,4.348349Q4.4467,3.25,6,3.25L18,3.25ZM18,4.75L6,4.75Q5.068020000000001,4.75,4.40901,5.40901Q3.75,6.068020000000001,3.75,7L3.75,15Q3.75,15.932,4.40901,16.591Q5.068020000000001,17.25,6,17.25L8,17.25Q8.07387,17.25,8.14632,17.264400000000002Q8.21877,17.2788,8.28701,17.3071Q8.355260000000001,17.3354,8.41668,17.3764Q8.478100000000001,17.4174,8.53033,17.4697Q8.58256,17.521900000000002,8.6236,17.5833Q8.66464,17.6447,8.692910000000001,17.713Q8.72118,17.7812,8.73559,17.8537Q8.75,17.926099999999998,8.75,18L8.75,21L8,21L7.61413,20.3569L12.61413,17.3569Q12.79226,17.25,13,17.25L18,17.25Q18.932000000000002,17.25,19.591,16.591Q20.25,15.932,20.25,15L20.25,7Q20.25,6.068020000000001,19.591,5.40901Q18.932000000000002,4.75,18,4.75ZM11.74997,8.98912L11.75998,10.98836L11.75998,10.98876L11.76001,10.998090000000001Q11.76001,11.93198,11.101,12.59099Q10.44199,13.25,9.510010000000001,13.25Q8.581330000000001,13.25,7.92301,12.59497Q7.26469,11.93993,7.26004,11.01126L7.26004,11.01083L7.25003,9.01164L7.25003,9.01125L7.25,9.001909999999999Q7.25,8.06802,7.90901,7.40901Q8.56802,6.75,9.5,6.75Q10.42868,6.75,11.087,7.40503Q11.74532,8.06007,11.74997,8.98874L11.74997,8.98913L11.74997,8.98912ZM10.24999,8.99662L10.24999,8.99625Q10.24626,8.25,9.5,8.25Q8.75,8.25,8.75,8.998090000000001L8.75001,9.00377L8.75001,9.00414L8.76002,11.003409999999999L8.76002,11.00375Q8.76375,11.75,9.510010000000001,11.75Q10.260010000000001,11.75,10.260010000000001,11.001909999999999L10.26,10.99623L10.26,10.99586L10.24999,8.99663L10.24999,8.99662ZM15.26,10.99586L15.25,8.99663L15.25,8.99623Q15.2463,8.25,14.5,8.25Q13.75,8.25,13.75,9L13.75,9.005600000000001L13.75,9.00415L13.76,11.00337L13.76,11.00379Q13.7638,11.75,14.51,11.75Q15.26,11.75,15.26,11L15.26,10.994399999999999L15.26,10.99585L15.26,10.99586ZM16.759999999999998,10.98837L16.759999999999998,10.990590000000001L16.759999999999998,11Q16.759999999999998,11.93198,16.101,12.59099Q15.442,13.25,14.51,13.25Q13.5813,13.25,12.92301,12.59497Q12.26469,11.93993,12.26004,11.01122L12.26004,11.01088L12.25003,9.01163L12.25002,9.009409999999999L12.25,9Q12.25,8.06802,12.90901,7.40901Q13.568,6.75,14.5,6.75Q15.4287,6.75,16.087,7.40503Q16.7453,8.06007,16.75,8.98875L16.75,8.98912L16.759999999999998,10.98836L16.759999999999998,10.98837Z" fill="#000000" fill-opacity="1" style="mix-blend-mode:passthrough"/></g></g></svg>