<svg xmlns="http://www.w3.org/2000/svg" xmlns:xlink="http://www.w3.org/1999/xlink" fill="none" version="1.1" width="24" height="24" viewBox="0 0 24 24"><defs><clipPath id="master_svg0_5824_08819"><rect x="0" y="0" width="24" height="24" rx="0"/></clipPath></defs><g clip-path="url(#master_svg0_5824_08819)"><g><path d="M19.5776,4.9237559765625Q16.4334,2.0416259765625,12,2.0416259765625Q7.56656,2.0416259765625,4.42238,4.9237559765625Q1.25,7.8317259765625,1.25,11.9582859765625Q1.25,15.9118259765625,4.19585,18.7780259765625Q4.56504,19.1373259765625,4.50217,19.4565259765625Q4.28844,20.5316259765625,3.57923,21.3675259765625Q3.4482600000000003,21.5218259765625,3.4127400000000003,21.7211259765625Q3.39978,21.7939259765625,3.4012599999999997,21.8677259765625Q3.40274,21.9416259765625,3.41859,22.0137259765625Q3.43445,22.0858259765625,3.46408,22.1535259765625Q3.4937,22.2212259765625,3.53596,22.2818259765625Q3.57822,22.3424259765625,3.6314900000000003,22.3935259765625Q3.68475,22.4447259765625,3.7469799999999998,22.4845259765625Q3.80921,22.5243259765625,3.8780099999999997,22.5512259765625Q3.9468,22.5781259765625,4.01953,22.5911259765625Q4.311030000000001,22.6430259765625,4.6025,22.6711259765625Q7.16511,22.9297259765625,9.30116,21.5598259765625Q10.62994,21.8766259765625,12,21.8749259765625Q16.4334,21.8749259765625,19.5776,18.9928259765625Q22.75,16.0848259765625,22.75,11.9582959765625Q22.75,7.8317259765625,19.5776,4.9237559765625ZM5.43596,6.0294959765625Q8.150030000000001,3.5416259765625,12,3.5416259765625Q15.85,3.5416259765625,18.564,6.0294959765625Q21.25,8.4915859765625,21.25,11.9582959765625Q21.25,15.4250259765625,18.564,17.8871259765625Q15.85,20.3749259765625,12,20.3749259765625Q10.65457,20.3766259765625,9.35646,20.0264259765625Q9.19521,19.9829259765625,9.03073,20.0119259765625Q8.86626,20.0409259765625,8.72965,20.1370259765625Q7.23603,21.1875259765625,5.47334,21.2109259765625Q5.8189,20.5261259765625,5.973380000000001,19.7489259765625Q6.19389,18.629325976562498,5.24193,17.7030259765625Q2.749999,15.2784259765625,2.75,11.9582859765625Q2.75,8.4915859765625,5.43596,6.0294959765625ZM9,11.9582959765625Q9,10.7916259765625,7.83333,10.7916259765625Q6.66667,10.7916259765625,6.66667,11.9582959765625Q6.66667,12.4415459765625,7.00838,12.7832459765625Q7.35008,13.1249259765625,7.83333,13.1249259765625Q9,13.1249259765625,9,11.9582959765625ZM12.825,11.1333359765625Q12.4832,10.7916259765625,12,10.7916259765625Q10.83333,10.7916259765625,10.83333,11.9582959765625Q10.83333,13.1249259765625,12,13.1249259765625Q13.1667,13.1249259765625,13.1667,11.9582959765625Q13.1667,11.4750459765625,12.825,11.1333359765625ZM17.3333,11.9582959765625Q17.3333,10.7916259765625,16.1667,10.7916259765625Q15,10.7916259765625,15,11.9582959765625Q15,12.4415459765625,15.3417,12.7832459765625Q15.6834,13.1249259765625,16.1667,13.1249259765625Q17.3333,13.1249259765625,17.3333,11.9582959765625Z" fill-rule="evenodd" fill="#000000" fill-opacity="1"/></g></g></svg>