<svg xmlns="http://www.w3.org/2000/svg" xmlns:xlink="http://www.w3.org/1999/xlink" fill="none" version="1.1" width="24" height="24" viewBox="0 0 24 24"><defs><clipPath id="master_svg0_5824_08816"><rect x="0" y="0" width="24" height="24" rx="0"/></clipPath></defs><g clip-path="url(#master_svg0_5824_08816)"><g><path d="M12,2.0416259765625Q16.4334,2.0416259765625,19.5776,4.9237559765625Q22.75,7.8317259765625,22.75,11.9582959765625Q22.75,16.0848259765625,19.5776,18.9928259765625Q16.4334,21.8749259765625,12,21.8749259765625Q10.62994,21.8766259765625,9.30116,21.5598259765625Q7.16511,22.9297259765625,4.6025,22.6711259765625Q4.311030000000001,22.6430259765625,4.01953,22.5911259765625C3.61174,22.5184259765625,3.34007,22.1289259765625,3.41274,21.7211259765625C3.43601,21.5906259765625,3.49345,21.4686259765625,3.57923,21.3675259765625Q4.28844,20.5316259765625,4.50217,19.4565259765625Q4.56504,19.1373259765625,4.19585,18.7780259765625Q1.25,15.9118259765625,1.25,11.9582859765625Q1.25,7.8317259765625,4.42238,4.9237559765625Q7.56656,2.0416259765625,12,2.0416259765625ZM8.28764,10.8836159765625Q8.07015,10.7916259765625,7.83329,10.7916259765625Q7.59643,10.7916259765625,7.37894,10.8836159765625Q7.16944,10.9722259765625,7.00833,11.1333359765625Q6.84723,11.2944459765625,6.75862,11.5039459765625Q6.66663,11.7214359765625,6.66663,11.9582959765625Q6.66663,12.1951259765625,6.75862,12.4126259765625Q6.84723,12.6221259765625,7.00833,12.7832259765625Q7.16944,12.9443259765625,7.37894,13.0329259765625Q7.59643,13.1249259765625,7.83329,13.1249259765625Q8.07015,13.1249259765625,8.28764,13.0329259765625Q8.49714,12.9443259765625,8.658249999999999,12.7832259765625Q8.81936,12.6221259765625,8.907969999999999,12.4126259765625Q8.99996,12.1951259765625,8.99996,11.9582959765625Q8.99996,11.7214359765625,8.907969999999999,11.5039459765625Q8.81936,11.2944459765625,8.658249999999999,11.1333359765625Q8.49714,10.9722259765625,8.28764,10.8836159765625ZM12.4543,10.8836159765625Q12.2368,10.7916259765625,12,10.7916259765625Q11.7631,10.7916259765625,11.5456,10.8836159765625Q11.3361,10.9722259765625,11.175,11.1333359765625Q11.0139,11.2944459765625,10.92528,11.5039459765625Q10.83329,11.7214359765625,10.83329,11.9582959765625Q10.83329,12.1951259765625,10.92528,12.4126259765625Q11.0139,12.6221259765625,11.175,12.7832259765625Q11.3361,12.9443259765625,11.5456,13.0329259765625Q11.7631,13.1249259765625,12,13.1249259765625Q12.2368,13.1249259765625,12.4543,13.0329259765625Q12.6638,12.9443259765625,12.8249,12.7832259765625Q12.986,12.6221259765625,13.0746,12.4126259765625Q13.1662,12.1961259765625,13.1666,11.9603659765625L13.1666,11.9582959765625L13.1666,11.9562159765625Q13.1662,11.7204759765625,13.0746,11.5039459765625Q12.986,11.2944459765625,12.8249,11.1333359765625Q12.6638,10.9722259765625,12.4543,10.8836159765625ZM16.621000000000002,10.8836159765625Q16.4035,10.7916259765625,16.166600000000003,10.7916259765625Q15.9298,10.7916259765625,15.7123,10.8836159765625Q15.5028,10.9722259765625,15.3417,11.1333359765625Q15.1806,11.2944359765625,15.092,11.5039459765625Q15,11.7214359765625,15,11.9582959765625Q15,12.1951259765625,15.092,12.4126259765625Q15.1806,12.6221259765625,15.3417,12.7832259765625Q15.5028,12.9443259765625,15.7123,13.0329259765625Q15.9298,13.1249259765625,16.166600000000003,13.1249259765625Q16.4035,13.1249259765625,16.621000000000002,13.0329259765625Q16.8305,12.9443259765625,16.9916,12.7832259765625Q17.1527,12.6221259765625,17.241300000000003,12.4126259765625Q17.3333,12.1951259765625,17.3333,11.9582959765625Q17.3333,11.7214359765625,17.241300000000003,11.5039459765625Q17.1527,11.2944459765625,16.9916,11.1333359765625Q16.8305,10.9722259765625,16.621000000000002,10.8836159765625Z" fill-rule="evenodd" fill="#000000" fill-opacity="1"/></g></g></svg>