<svg xmlns="http://www.w3.org/2000/svg" xmlns:xlink="http://www.w3.org/1999/xlink" fill="none" version="1.1" width="24" height="24" viewBox="0 0 24 24"><defs><clipPath id="master_svg0_5772_08577"><rect x="0" y="0" width="24" height="24" rx="0"/></clipPath></defs><g clip-path="url(#master_svg0_5772_08577)"><g></g><g><path d="M5,11.25L19,11.25Q19.073900000000002,11.25,19.1463,11.264410999999999Q19.2188,11.278822,19.287,11.30709Q19.3553,11.335359,19.4167,11.376398Q19.478099999999998,11.417437,19.5303,11.46967Q19.5826,11.521903,19.6236,11.583322Q19.6646,11.644742,19.6929,11.712987Q19.7212,11.781233,19.735599999999998,11.853682Q19.75,11.9261315,19.75,12Q19.75,12.0738685,19.735599999999998,12.146318Q19.7212,12.218767,19.6929,12.287013Q19.6646,12.355258,19.6236,12.416678Q19.5826,12.478097,19.5303,12.53033Q19.478099999999998,12.582563,19.4167,12.623602Q19.3553,12.664641,19.287,12.69291Q19.2188,12.721178,19.1463,12.735589000000001Q19.073900000000002,12.75,19,12.75L5,12.75Q4.9261315,12.75,4.853682,12.735589000000001Q4.781233,12.721178,4.712987,12.69291Q4.644742,12.664641,4.583322,12.623602Q4.521903,12.582563,4.46967,12.53033Q4.417437,12.478097,4.376398,12.416678Q4.335359,12.355258,4.30709,12.287013Q4.278822,12.218767,4.264411,12.146318Q4.25,12.0738685,4.25,12Q4.25,11.9261315,4.264411,11.853682Q4.278822,11.781233,4.30709,11.712987Q4.335359,11.644742,4.376398,11.583322Q4.417437,11.521903,4.46967,11.46967Q4.521903,11.417437,4.583322,11.376398Q4.644742,11.335359,4.712987,11.30709Q4.781233,11.278822,4.853682,11.264410999999999Q4.9261315,11.25,5,11.25Z" fill-rule="evenodd" fill="#000000" fill-opacity="1" style="mix-blend-mode:passthrough"/></g></g></svg>