<svg xmlns="http://www.w3.org/2000/svg" xmlns:xlink="http://www.w3.org/1999/xlink" fill="none" version="1.1" width="24" height="24" viewBox="0 0 24 24"><defs><clipPath id="master_svg0_6030_02774"><rect x="0" y="0" width="24" height="24" rx="0"/></clipPath></defs><g clip-path="url(#master_svg0_6030_02774)"><g><path d="M20.53033,13.53033Q20.63582,13.424841,20.69291,13.287013Q20.75,13.149184,20.75,13Q20.75,12.9261315,20.735590000000002,12.853682Q20.72118,12.781233,20.69291,12.712987Q20.66464,12.644742,20.6236,12.583322Q20.58256,12.521903,20.53033,12.46967Q20.4781,12.417437,20.41668,12.376398Q20.35526,12.335359,20.287010000000002,12.30709Q20.21877,12.278822,20.14632,12.264410999999999Q20.07387,12.25,20,12.25Q19.85082,12.25,19.712989999999998,12.30709Q19.57516,12.364181,19.46967,12.46967L12.46967,19.46967Q12.364181,19.57516,12.30709,19.712989999999998Q12.25,19.85082,12.25,20Q12.25,20.07387,12.264410999999999,20.14632Q12.278822,20.21877,12.30709,20.287010000000002Q12.335359,20.35526,12.376398,20.41668Q12.417437,20.4781,12.46967,20.53033Q12.521903,20.58256,12.583322,20.6236Q12.644742,20.66464,12.712987,20.69291Q12.781233,20.72118,12.853682,20.735590000000002Q12.9261315,20.75,13,20.75Q13.149184,20.75,13.287013,20.69291Q13.424841,20.63582,13.53033,20.53033L13.530792,20.52987L20.52987,13.530792L20.53033,13.53033L20.53033,13.53033Z" fill-rule="evenodd" fill="#000000" fill-opacity="1" style="mix-blend-mode:passthrough"/></g><g><path d="M4.0554565,19.944499999999998Q4.860912,20.75,6,20.75L13,20.75Q13.07387,20.75,13.14632,20.7356Q13.21877,20.7212,13.28701,20.6929Q13.35526,20.6646,13.41668,20.6236Q13.4781,20.5826,13.53033,20.5303Q13.58256,20.4781,13.6236,20.4167Q13.66464,20.3553,13.69291,20.287Q13.72118,20.2188,13.73559,20.1463Q13.75,20.0739,13.75,20L13.75,14Q13.75,13.75,14,13.75L20,13.75Q20.0739,13.75,20.1463,13.73559Q20.2188,13.72118,20.287,13.69291Q20.3553,13.66464,20.4167,13.6236Q20.4781,13.58256,20.5303,13.53033Q20.5826,13.4781,20.6236,13.41668Q20.6646,13.35526,20.6929,13.28701Q20.7212,13.21877,20.7356,13.14632Q20.75,13.07387,20.75,13L20.75,6Q20.75,4.860913,19.944499999999998,4.0554565Q19.1391,3.25,18,3.25L6,3.25Q4.860913,3.25,4.0554564,4.0554564Q3.25,4.860913,3.25,6L3.25,18Q3.25,19.1391,4.0554565,19.944499999999998ZM12.25,19.25L6,19.25Q4.75,19.25,4.75,18L4.75,6Q4.75,4.75,6,4.75L18,4.75Q19.25,4.75,19.25,6L19.25,12.25L14,12.25Q12.25,12.25,12.25,14L12.25,19.25Z" fill-rule="evenodd" fill="#000000" fill-opacity="1" style="mix-blend-mode:passthrough"/></g></g></svg>