<svg xmlns="http://www.w3.org/2000/svg" xmlns:xlink="http://www.w3.org/1999/xlink" fill="none" version="1.1" width="32" height="32" viewBox="0 0 32 32"><defs><clipPath id="master_svg0_5881_02862"><rect x="0" y="0" width="32" height="32" rx="0"/></clipPath><filter id="master_svg1_5881_02868" filterUnits="objectBoundingBox" color-interpolation-filters="sRGB" x="0" y="0" width="1" height="1"><feFlood flood-opacity="0" result="BackgroundImageFix"/><feBlend mode="normal" in="SourceGraphic" in2="BackgroundImageFix" result="shape"/><feColorMatrix in="SourceAlpha" type="matrix" result="hardAlpha" values="0 0 0 0 0 0 0 0 0 0 0 0 0 0 0 0 0 0 127 0"/><feOffset dy="-2" dx="0"/><feGaussianBlur stdDeviation="2"/><feComposite in2="hardAlpha" operator="arithmetic" k2="-1" k3="1"/><feColorMatrix type="matrix" values="0 0 0 0 1 0 0 0 0 1 0 0 0 0 1 0 0 0 0.20000000298023224 0"/><feBlend mode="normal" in2="shape" result="effect1_innerShadow"/></filter><linearGradient x1="0.7222222089767456" y1="0.26513671875" x2="0.7222222089767456" y2="1.129235863685608" id="master_svg2_5881_02949"><stop offset="0%" stop-color="#FFFFFF" stop-opacity="1"/><stop offset="40.104201436042786%" stop-color="#FFFFFF" stop-opacity="0.8500000238418579"/><stop offset="100%" stop-color="#FFFFFF" stop-opacity="0.5"/></linearGradient></defs><g clip-path="url(#master_svg0_5881_02862)"><g></g><g filter="url(#master_svg1_5881_02868)"><g transform="matrix(0.916670024394989,0,0,0.916670024394989,0.6492817243656646,0.4965095726254276)"><path d="M9.791694641113281,5.958354949951172C8.68669464111328,5.958354949951172,7.791694879532281,6.846354949951172,7.791694879532281,7.951354949951172L7.791694879532281,25.967354949951172C7.791137218113281,27.069154949951173,8.685915641113281,27.96165494995117,9.787694641113282,27.958354949951172L23.79369464111328,27.958354949951172C24.897694641113283,27.957854949951173,25.79229464111328,27.06235494995117,25.79169464111328,25.958354949951172L25.79169464111328,12.702354949951172C25.79159464111328,12.171964949951171,25.580794641113282,11.66334494995117,25.205694641113283,11.288354949951172L20.46269464111328,6.544354949951172C20.08739464111328,6.169142949951172,19.578794641113284,5.958354949951172,19.04869464111328,5.958354949951172L9.791694641113281,5.958354949951172ZM12.791694641113281,15.958354949951172L20.79169464111328,15.958354949951172C21.343994641113284,15.958354949951172,21.79169464111328,16.40605494995117,21.79169464111328,16.958354949951172C21.79169464111328,17.510654949951174,21.343994641113284,17.958354949951172,20.79169464111328,17.958354949951172L12.791694641113281,17.958354949951172C12.239414641113282,17.958354949951172,11.791694641113281,17.510654949951174,11.791694641113281,16.958354949951172C11.791694641113281,16.40605494995117,12.239414641113282,15.958354949951172,12.791694641113281,15.958354949951172ZM11.791694641113281,21.958354949951172C11.791694641113281,21.40605494995117,12.239414641113282,20.958354949951172,12.791694641113281,20.958354949951172L16.79169464111328,20.958354949951172C17.34398464111328,20.958354949951172,17.79169464111328,21.40605494995117,17.79169464111328,21.958354949951172C17.79169464111328,22.51065494995117,17.34398464111328,22.958354949951172,16.79169464111328,22.958354949951172L12.791694641113281,22.958354949951172C12.239414641113282,22.958354949951172,11.791694641113281,22.51065494995117,11.791694641113281,21.958354949951172Z" fill="url(#master_svg2_5881_02949)" fill-opacity="1" style="mix-blend-mode:passthrough"/></g></g></g></svg>