<svg xmlns="http://www.w3.org/2000/svg" xmlns:xlink="http://www.w3.org/1999/xlink" fill="none" version="1.1" width="24" height="24" viewBox="0 0 24 24"><defs><clipPath id="master_svg0_6115_03511"><rect x="-0.75" y="-0.75" width="25.5" height="25.5" rx="0"/></clipPath></defs><g clip-path="url(#master_svg0_6115_03511)"><path d="M4.25,9.810660200000001L4.25,16L4.25015,16Q4.25015,16.0738535,4.2645581,16.1462879Q4.2789662,16.2187233,4.3072288,16.286954899999998Q4.3354914,16.355186500000002,4.3765224,16.4165936Q4.4175534,16.4780006,4.4697759,16.5302238Q4.5219984,16.5824451,4.5834055,16.623477Q4.6448126,16.6645069,4.7130446,16.69277Q4.7812766,16.7210331,4.8537114,16.7354412Q4.926146,16.7498493,5,16.7498503Q5.0738535,16.7498493,5.1462882,16.7354412Q5.2187228,16.7210331,5.2869549,16.69277Q5.3551869,16.6645069,5.416594,16.623477Q5.4780011,16.5824451,5.5302238,16.5302238Q5.5824463,16.4780006,5.6234772,16.4165936Q5.6645083,16.355186500000002,5.6927710000000005,16.286954899999998Q5.7210336,16.2187233,5.7354417,16.1462879Q5.7498498,16.0738535,5.74985,16L5.75,16L5.75,8Q5.75,7.926131457,5.7355886,7.85368228Q5.7211776,7.78123312,5.6929092,7.71298748Q5.6646409,7.64474183,5.623601900000001,7.58332238Q5.5825629,7.52190292,5.5303299,7.46966994Q5.478097,7.41743702,5.4166775000000005,7.37639785Q5.355258,7.33535868,5.2870121,7.3070904Q5.2187667,7.27882212,5.1463175,7.26441109Q5.0738683,7.25,5,7.25Q4.8508157,7.25000006,4.7129874,7.3070904Q4.5751591000000005,7.3641808,4.4696698999999995,7.46966994L2.46966994,9.4696699L2.46977597,9.4697759Q2.36430788,9.575244099999999,2.30722892,9.7130449Q2.25014997,9.8508456,2.25014997,10Q2.25014997,10.0738535,2.2645581999999997,10.1462882Q2.27896631,10.2187228,2.30722892,10.2869549Q2.33549154,10.3551869,2.37652254,10.416594Q2.41755348,10.4780011,2.46977597,10.5302238Q2.52199849,10.5824463,2.58340567,10.6234772Q2.64481282,10.6645083,2.71304482,10.692771Q2.78127682,10.7210336,2.85371152,10.735441699999999Q2.926146217,10.7498498,3,10.74985Q3.14915442,10.7498498,3.28695512,10.692771Q3.42475584,10.6356921,3.5302239699999998,10.5302241L3.53033006,10.5303302L4.25,9.810660200000001Z" fill-rule="evenodd" fill="#000000" fill-opacity="1" style="mix-blend-mode:passthrough"/><path d="M10,16.75L13,16.75L13,16.7498503Q13.0738535,16.7498493,13.1462884,16.7354412Q13.2187233,16.7210331,13.2869549,16.69277Q13.3551869,16.6645069,13.416594,16.623477Q13.478001599999999,16.5824451,13.5302238,16.5302238Q13.5824461,16.4780006,13.623477000000001,16.4165936Q13.6645079,16.355186500000002,13.692771,16.286954899999998Q13.7210336,16.2187233,13.7354422,16.1462879Q13.7498503,16.0738535,13.7498503,16Q13.7498503,15.9261456,13.735441699999999,15.8537111Q13.7210336,15.7812757,13.692771,15.713044199999999Q13.6645079,15.6448116,13.623477000000001,15.5834045Q13.5824461,15.521997500000001,13.5302238,15.4697752Q13.478001599999999,15.4175525,13.416594,15.3765216Q13.3551869,15.335490700000001,13.2869549,15.3072281Q13.2187233,15.278966,13.1462884,15.2645578Q13.0738535,15.2501497,13,15.2501497L13,15.25L10,15.25Q9.75,15.25,9.75,15L9.75,13Q9.75,12.75,10,12.75L12,12.75Q12.7248745,12.75,13.237437199999999,12.237437199999999Q13.75,11.7248745,13.75,11L13.75,9Q13.75,8.27512568,13.237437199999999,7.76256299Q12.7248743,7.25,12,7.25L9,7.25L9,7.25014997Q8.926146217,7.25014997,8.85371152,7.2645582Q8.78127682,7.27896631,8.71304482,7.30722892Q8.64481282,7.33549154,8.58340567,7.37652254Q8.52199849,7.4175534800000005,8.46977597,7.46977597Q8.41755348,7.52199849,8.37652254,7.58340567Q8.33549154,7.64481282,8.30722892,7.71304482Q8.27896631,7.78127682,8.2645582,7.85371152Q8.25014997,7.926146217,8.25014997,8Q8.25014997,8.073853783,8.2645582,8.14628848Q8.27896631,8.21872318,8.30722892,8.28695518Q8.33549154,8.35518718,8.37652254,8.41659433Q8.41755348,8.47800151,8.46977597,8.53022403Q8.52199849,8.58244652,8.58340567,8.62347746Q8.64481282,8.66450846,8.71304482,8.69277108Q8.78127682,8.72103369,8.85371152,8.7354418Q8.926146217,8.74985003,9,8.74985003L9,8.75L12,8.75Q12.25,8.75,12.25,9L12.25,11Q12.25,11.25,12,11.25L10,11.25Q9.27512574,11.25,8.76256299,11.7625628Q8.25,12.2751255,8.25,13L8.25,15Q8.25,15.7248745,8.76256299,16.237437200000002Q9.27512568,16.75,10,16.75Z" fill-rule="evenodd" fill="#000000" fill-opacity="1" style="mix-blend-mode:passthrough"/><path d="M18,12.75Q17.92613137,12.75,17.85368222,12.735589000000001Q17.78123295,12.7211776,17.71298736,12.692909199999999Q17.64474165,12.6646409,17.58332223,12.6236019Q17.5219028,12.5825624,17.46966988,12.5303297Q17.41743693,12.478097,17.37639779,12.416677Q17.33535859,12.355258,17.30709031,12.2870121Q17.27882206,12.2187667,17.26441103,12.1463175Q17.24999999,12.0738688,17.25,12Q17.24999999,11.9261312,17.26441103,11.853682Q17.27882206,11.7812326,17.30709031,11.7129869Q17.33535859,11.6447415,17.37639779,11.583321999999999Q17.41743693,11.5219026,17.46966988,11.4696698Q17.5219028,11.4174368,17.58332223,11.3763976Q17.64474165,11.3353586,17.7129873,11.30709Q17.78123295,11.2788219,17.853682159999998,11.264410999999999Q17.92613137,11.25,18,11.25L19.5,11.25Q19.8106601,11.25,20.030329899999998,11.0303302Q20.25,10.8106601,20.25,10.5L20.25,9.5Q20.25,9.1893399,20.030329899999998,8.96966994Q19.8106599,8.75,19.5,8.75L17,8.75L17,8.74985003Q16.926146217,8.74985003,16.85371152,8.7354418Q16.78127682,8.72103369,16.71304482,8.69277108Q16.64481282,8.66450846,16.58340567,8.62347746Q16.52199849,8.58244652,16.46977597,8.53022403Q16.41755348,8.47800151,16.37652254,8.41659433Q16.33549154,8.35518718,16.30722892,8.28695518Q16.27896631,8.21872318,16.2645582,8.14628848Q16.25014997,8.073853783,16.25014997,8Q16.25014997,7.926146217,16.2645582,7.85371152Q16.27896631,7.78127682,16.30722892,7.71304482Q16.33549154,7.64481282,16.37652254,7.58340567Q16.41755348,7.52199849,16.46977597,7.46977597Q16.52199849,7.4175534800000005,16.58340567,7.37652254Q16.64481282,7.33549154,16.71304482,7.30722892Q16.78127682,7.27896631,16.85371152,7.2645582Q16.926146217,7.25014997,17,7.25014997L17,7.25L19.5,7.25Q20.4319801,7.25,21.0909901,7.909009576Q21.75,8.56801915,21.75,9.5L21.75,10.5Q21.75,11.3685353,21.177661399999998,12Q21.75,12.6314645,21.75,13.5L21.75,14.5Q21.75,15.4319806,21.0909901,16.0909901Q20.4319799,16.75,19.5,16.75L17,16.75L17,16.7498503Q16.926146217,16.7498493,16.85371152,16.7354412Q16.78127682,16.7210331,16.71304482,16.69277Q16.64481282,16.6645069,16.58340567,16.623477Q16.52199849,16.5824451,16.46977597,16.5302238Q16.41755348,16.4780006,16.37652254,16.4165936Q16.33549154,16.355186500000002,16.30722892,16.286954899999998Q16.27896631,16.2187233,16.2645582,16.1462879Q16.25014997,16.0738535,16.25014997,16Q16.25014997,15.9261456,16.2645582,15.8537111Q16.27896631,15.7812757,16.30722892,15.713044199999999Q16.33549154,15.6448116,16.37652254,15.5834045Q16.41755348,15.521997500000001,16.46977597,15.4697752Q16.52199849,15.4175525,16.58340567,15.3765216Q16.64481282,15.335490700000001,16.71304482,15.3072281Q16.78127682,15.278966,16.85371152,15.2645578Q16.926146217,15.2501497,17,15.2501497L17,15.25L19.5,15.25Q19.8106601,15.25,20.030329899999998,15.0303302Q20.25,14.8106604,20.25,14.5L20.25,13.5Q20.25,13.1893396,20.030329899999998,12.9696698Q19.8106601,12.75,19.5,12.75L18,12.75Z" fill-rule="evenodd" fill="#000000" fill-opacity="1" style="mix-blend-mode:passthrough"/></g></svg>