<svg xmlns="http://www.w3.org/2000/svg" xmlns:xlink="http://www.w3.org/1999/xlink" fill="none" version="1.1" width="24" height="24" viewBox="0 0 24 24"><defs><clipPath id="master_svg0_5851_02614"><rect x="0" y="0" width="24" height="24" rx="0"/></clipPath></defs><g clip-path="url(#master_svg0_5851_02614)"><g></g><g><path d="M11.96743754776001,21.7499Q13.40230754776001,21.8643,13.99170754776001,20.538Q14.58850754776001,19.1953,13.50860754776001,18.1988Q13.44210754776001,18.1374,13.36290754776001,18.0937Q12.50838754776001,17.6212,12.759977547760009,16.6777Q13.01160754776001,15.7342,14.00000754776001,15.75L16.50000754776001,15.75Q18.64820754776001,15.75,20.18020754776001,14.3886Q21.75000754776001,12.99366,21.75000754776001,11Q21.75000754776001,7.34973,18.862007547760008,4.7826900000000006Q16.01270754776001,2.25,11.99973754776001,2.25Q7.96214754776001,2.251393,5.10762754776001,5.1068999999999996Q2.2531065477600096,7.9624,2.25310854776001,12Q2.2531075477600098,16.037599999999998,5.10762754776001,18.8931Q7.95071754776001,21.7372,11.96743754776001,21.7499ZM12.54160754776001,19.352Q12.76615754776001,19.6022,12.62100754776001,19.9288Q12.460897547760009,20.289,12.06830754776001,20.2531Q12.03435754776001,20.25,12.00025754776001,20.25Q8.58382754776001,20.2488,6.1684675477600095,17.8326Q3.7531075477600098,15.4164,3.75310854776001,12Q3.7531075477600098,8.58357,6.1684675477600095,6.16738Q8.58382754776001,3.7511799999999997,12.00025754776001,3.75Q15.44240754776001,3.75,17.86550754776001,5.90381Q20.25000754776001,8.023340000000001,20.25000754776001,11Q20.25000754776001,12.31992,19.18380754776001,13.2674Q18.07800754776001,14.25,16.50000754776001,14.25L14.00000754776001,14.25Q11.864147547760009,14.2155,11.31062754776001,16.2912Q10.77140754776001,18.313200000000002,12.54160754776001,19.352Z" fill-rule="evenodd" fill="#000000" fill-opacity="1" style="mix-blend-mode:passthrough"/></g><g><path d="M9.5,10.5Q9.5,10.59849,9.48079,10.69509Q9.46157,10.79169,9.42388,10.88268Q9.38619,10.97368,9.33147,11.05557Q9.27675,11.13746,9.20711,11.20711Q9.13746,11.27675,9.05557,11.33147Q8.97368,11.38619,8.88268,11.42388Q8.79169,11.46157,8.69509,11.48079Q8.59849,11.5,8.5,11.5Q8.401509,11.5,8.30491,11.48079Q8.208311,11.46157,8.117316,11.42388Q8.026322,11.38619,7.94443,11.33147Q7.862537,11.27675,7.792893,11.20711Q7.723249,11.13746,7.66853,11.05557Q7.613811,10.97368,7.5761205,10.88268Q7.5384294,10.79169,7.5192147,10.69509Q7.5,10.59849,7.5,10.5Q7.5,10.401509,7.5192147,10.30491Q7.5384294,10.208311,7.5761205,10.117316Q7.613811,10.026322,7.66853,9.94443Q7.723249,9.862537,7.792893,9.792893Q7.862537,9.723249,7.94443,9.66853Q8.026322,9.613811,8.117316,9.5761205Q8.208311,9.5384294,8.30491,9.5192147Q8.401509,9.5,8.5,9.5Q8.59849,9.5,8.69509,9.5192147Q8.79169,9.5384294,8.88268,9.5761205Q8.97368,9.613811,9.05557,9.66853Q9.13746,9.723249,9.20711,9.792893Q9.27675,9.862537,9.33147,9.94443Q9.38619,10.026322,9.42388,10.117316Q9.46157,10.208311,9.48079,10.30491Q9.5,10.401509,9.5,10.5Z" fill="#000000" fill-opacity="1"/><path d="M9.73744,9.262563Q9.22487,8.75,8.5,8.75Q7.775126,8.75,7.262563,9.262563Q6.75,9.775126,6.75,10.5Q6.75,11.22487,7.262563,11.73744Q7.775126,12.25,8.5,12.25Q9.22487,12.25,9.73744,11.73744Q10.25,11.22487,10.25,10.5Q10.25,9.775126,9.73744,9.262563ZM8.323223,10.323223Q8.396447,10.25,8.5,10.25Q8.60355,10.25,8.67678,10.323223Q8.75,10.396446,8.75,10.5Q8.75,10.60355,8.67678,10.67678Q8.60355,10.75,8.5,10.75Q8.396446,10.75,8.323223,10.67678Q8.25,10.60355,8.25,10.5Q8.25,10.396447,8.323223,10.323223Z" fill-rule="evenodd" fill="#000000" fill-opacity="1" style="mix-blend-mode:passthrough"/></g><g><path d="M13.5,7.5Q13.5,7.59849,13.48079,7.69509Q13.46157,7.79169,13.42388,7.88268Q13.38619,7.97368,13.33147,8.05557Q13.27675,8.13746,13.20711,8.20711Q13.13746,8.27675,13.05557,8.33147Q12.97368,8.38619,12.88268,8.42388Q12.79169,8.46157,12.69509,8.48079Q12.59849,8.5,12.5,8.5Q12.401509,8.5,12.30491,8.48079Q12.208311,8.46157,12.117316,8.42388Q12.026322,8.38619,11.94443,8.33147Q11.862537,8.27675,11.792893,8.20711Q11.723249,8.13746,11.66853,8.05557Q11.613811,7.97368,11.5761205,7.88268Q11.5384294,7.79169,11.5192147,7.69509Q11.5,7.59849,11.5,7.5Q11.5,7.401509,11.5192147,7.30491Q11.5384294,7.208311,11.5761205,7.117316Q11.613811,7.026322,11.66853,6.94443Q11.723249,6.862537,11.792893,6.792893Q11.862537,6.723249,11.94443,6.66853Q12.026322,6.613811,12.117316,6.5761205Q12.208311,6.5384294,12.30491,6.5192147Q12.401509,6.5,12.5,6.5Q12.59849,6.5,12.69509,6.5192147Q12.79169,6.5384294,12.88268,6.5761205Q12.97368,6.613811,13.05557,6.66853Q13.13746,6.723249,13.20711,6.792893Q13.27675,6.862537,13.33147,6.94443Q13.38619,7.026322,13.42388,7.117316Q13.46157,7.208311,13.48079,7.30491Q13.5,7.401509,13.5,7.5Z" fill="#000000" fill-opacity="1"/><path d="M13.73744,6.262563Q13.22487,5.75,12.5,5.75Q11.775126,5.75,11.262563,6.262563Q10.75,6.775126,10.75,7.5Q10.75,8.22487,11.262563,8.73744Q11.775126,9.25,12.5,9.25Q13.22487,9.25,13.73744,8.73744Q14.25,8.22487,14.25,7.5Q14.25,6.775126,13.73744,6.262563ZM12.323223,7.3232230000000005Q12.396447,7.25,12.5,7.25Q12.60355,7.25,12.67678,7.3232230000000005Q12.75,7.396446,12.75,7.5Q12.75,7.60355,12.67678,7.67678Q12.60355,7.75,12.5,7.75Q12.396446,7.75,12.323223,7.67678Q12.25,7.60355,12.25,7.5Q12.25,7.396447,12.323223,7.3232230000000005Z" fill-rule="evenodd" fill="#000000" fill-opacity="1" style="mix-blend-mode:passthrough"/></g><g><path d="M17.5,10.5Q17.5,10.59849,17.48079,10.69509Q17.461570000000002,10.79169,17.42388,10.88268Q17.38619,10.97368,17.33147,11.05557Q17.27675,11.13746,17.20711,11.20711Q17.13746,11.27675,17.05557,11.33147Q16.97368,11.38619,16.88268,11.42388Q16.79169,11.46157,16.69509,11.48079Q16.598489999999998,11.5,16.5,11.5Q16.401509,11.5,16.30491,11.48079Q16.208311,11.46157,16.117316,11.42388Q16.026322,11.38619,15.94443,11.33147Q15.862537,11.27675,15.792893,11.20711Q15.723249,11.13746,15.66853,11.05557Q15.613811,10.97368,15.5761205,10.88268Q15.5384294,10.79169,15.5192147,10.69509Q15.5,10.59849,15.5,10.5Q15.5,10.401509,15.5192147,10.30491Q15.5384294,10.208311,15.5761205,10.117316Q15.613811,10.026322,15.66853,9.94443Q15.723249,9.862537,15.792893,9.792893Q15.862537,9.723249,15.94443,9.66853Q16.026322,9.613811,16.117316,9.5761205Q16.208311,9.5384294,16.30491,9.5192147Q16.401509,9.5,16.5,9.5Q16.598489999999998,9.5,16.69509,9.5192147Q16.79169,9.5384294,16.88268,9.5761205Q16.97368,9.613811,17.05557,9.66853Q17.13746,9.723249,17.20711,9.792893Q17.27675,9.862537,17.33147,9.94443Q17.38619,10.026322,17.42388,10.117316Q17.461570000000002,10.208311,17.48079,10.30491Q17.5,10.401509,17.5,10.5Z" fill="#000000" fill-opacity="1"/><path d="M17.73744,9.262563Q17.22487,8.75,16.5,8.75Q15.775126,8.75,15.262563,9.262563Q14.75,9.775126,14.75,10.5Q14.75,11.22487,15.262563,11.73744Q15.775126,12.25,16.5,12.25Q17.22487,12.25,17.73744,11.73744Q18.25,11.22487,18.25,10.5Q18.25,9.775126,17.73744,9.262563ZM16.323223,10.323223Q16.396447,10.25,16.5,10.25Q16.60355,10.25,16.67678,10.323223Q16.75,10.396446,16.75,10.5Q16.75,10.60355,16.67678,10.67678Q16.60355,10.75,16.5,10.75Q16.396446,10.75,16.323223,10.67678Q16.25,10.60355,16.25,10.5Q16.25,10.396447,16.323223,10.323223Z" fill-rule="evenodd" fill="#000000" fill-opacity="1" style="mix-blend-mode:passthrough"/></g></g></svg>