<svg xmlns="http://www.w3.org/2000/svg" xmlns:xlink="http://www.w3.org/1999/xlink" fill="none" version="1.1" width="24" height="24" viewBox="0 0 24 24"><defs><clipPath id="master_svg0_5714_08071"><rect x="0" y="0" width="24" height="24" rx="0"/></clipPath></defs><g clip-path="url(#master_svg0_5714_08071)"><g><path d="M12.53096,14.4703L16.5937,18.533L19.9208,5.2244L4.84865,11.085799999999999L7.33541,12.32918Q7.46884,12.3959,7.56659,12.5086Q7.66434,12.6213,7.71151,12.76283L9.25886,17.404899999999998L11.00972,15.0704L10.46967,14.5303Q10.364180000000001,14.4248,10.307089999999999,14.287Q10.25,14.1492,10.25,14Q10.25,13.85082,10.307089999999999,13.71299Q10.364180000000001,13.57516,10.46967,13.46967L14.4693,9.47006L14.4697,9.46967Q14.5752,9.364180000000001,14.713,9.307089999999999Q14.8508,9.25,15,9.25Q15.0739,9.25,15.1463,9.26441Q15.2188,9.27882,15.287,9.307089999999999Q15.3553,9.33536,15.4167,9.3764Q15.4781,9.41744,15.5303,9.46967Q15.5826,9.521899999999999,15.6236,9.58332Q15.6646,9.644739999999999,15.6929,9.71299Q15.7212,9.78123,15.7356,9.85368Q15.75,9.92613,15.75,10Q15.75,10.149180000000001,15.6929,10.28701Q15.6358,10.42484,15.5303,10.53033L15.5299,10.530719999999999L12.06066,14L12.53096,14.4703ZM12.08115,16.1418L9.6,19.45Q9.555679999999999,19.5091,9.50068,19.5584Q9.44568,19.6077,9.38212,19.645400000000002Q9.31856,19.683,9.24887,19.7075Q9.17919,19.732,9.106069999999999,19.7425Q9.03294,19.7529,8.95918,19.7489Q8.88542,19.7449,8.81386,19.7265Q8.74231,19.708199999999998,8.675699999999999,19.676299999999998Q8.60909,19.6443,8.55,19.6Q8.36257,19.459400000000002,8.28849,19.2372L6.38673,13.53189L2.66459,11.670819999999999Q2.531155,11.604099999999999,2.43341,11.491399999999999Q2.335664,11.3787,2.288488,11.237169999999999Q2.241311,11.09564,2.251887,10.94683Q2.262462,10.798020000000001,2.32918,10.66459Q2.391623,10.5397,2.494827,10.44565Q2.5980309999999998,10.351600000000001,2.728165,10.301L20.7282,3.300996Q20.8672,3.246925,21.0164,3.250178Q21.1655,3.253432,21.3021,3.313514Q21.4386,3.373597,21.5418,3.481361Q21.6449,3.589125,21.699,3.728165Q21.7855,3.9504849,21.7276,4.181902L17.727600000000002,20.1819Q17.709699999999998,20.2536,17.6781,20.3204Q17.6466,20.3871,17.602600000000002,20.4465Q17.5586,20.5058,17.5039,20.5555Q17.449199999999998,20.6051,17.3859,20.6431Q17.322499999999998,20.6811,17.253,20.706Q17.1834,20.731,17.1104,20.7418Q17.037300000000002,20.7527,16.9635,20.7491Q16.8898,20.7455,16.8181,20.7276Q16.6166,20.6772,16.4697,20.5303L12.08115,16.1418Z" fill-rule="evenodd" fill="#000000" fill-opacity="1" style="mix-blend-mode:passthrough"/></g></g></svg>