<svg xmlns="http://www.w3.org/2000/svg" xmlns:xlink="http://www.w3.org/1999/xlink" fill="none" version="1.1" width="24" height="24" viewBox="0 0 24 24"><defs><clipPath id="master_svg0_5917_02679"><rect x="0" y="0" width="24" height="24" rx="0"/></clipPath></defs><g clip-path="url(#master_svg0_5917_02679)"><g></g><g><path d="M15.03033925704956,20.030359504699707L21.53033925704956,13.530359504699707Q21.63583925704956,13.424859504699707,21.69293925704956,13.287059504699707Q21.75003925704956,13.149159504699707,21.75003925704956,12.999959504699707Q21.75003925704956,12.926159504699706,21.73553925704956,12.853659504699706Q21.72113925704956,12.781259504699706,21.69293925704956,12.712989504699706Q21.66463925704956,12.644739504699707,21.62363925704956,12.583319504699707Q21.58253925704956,12.521899504699707,21.53033925704956,12.469669504699707Q21.47813925704956,12.417439504699708,21.41663925704956,12.376399504699707Q21.35523925704956,12.335359504699706,21.28703925704956,12.307089504699707Q21.21873925704956,12.278819504699706,21.14633925704956,12.264409504699707Q21.07383925704956,12.249999504699707,21.00003925704956,12.249999504699707Q20.85083925704956,12.249999504699707,20.71293925704956,12.307089504699707Q20.57513925704956,12.364179504699708,20.46963925704956,12.469669504699707L13.969639257049561,18.969659504699706Q12.32537925704956,20.613959504699707,9.99999925704956,20.613959504699707Q7.674629257049561,20.613959504699707,6.03032925704956,18.969659504699706Q4.3860392570495605,17.325359504699705,4.3860392570495605,14.999959504699707Q4.3860392570495605,12.674619504699708,6.03032925704956,11.030329504699708L12.53032925704956,4.530329504699707Q13.553299257049561,3.507359504699707,15.000039257049561,3.507359504699707Q16.44673925704956,3.507359504699707,17.46963925704956,4.530329504699707Q18.49263925704956,5.553299504699707,18.49263925704956,6.999999504699707Q18.49263925704956,8.446699504699707,17.46963925704956,9.469669504699707L10.96966925704956,15.969659504699708Q9.99999925704956,16.93935950469971,9.03032925704956,15.969659504699708Q8.62867925704956,15.568059504699708,8.62867925704956,14.999959504699707Q8.62867925704956,14.431959504699707,9.03032925704956,14.030359504699707L15.529939257049561,7.530719504699707L15.53033925704956,7.530329504699707Q15.635839257049561,7.424839504699707,15.692939257049561,7.287009504699707Q15.750039257049561,7.149179504699707,15.750039257049561,6.999999504699707Q15.750039257049561,6.926129504699707,15.735539257049561,6.853679504699707Q15.721139257049561,6.781229504699707,15.692939257049561,6.712989504699707Q15.664639257049561,6.644739504699707,15.623639257049561,6.583319504699707Q15.58253925704956,6.521899504699707,15.53033925704956,6.4696695046997075Q15.47813925704956,6.417439504699707,15.41663925704956,6.376399504699707Q15.355239257049561,6.335359504699706,15.28703925704956,6.307089504699707Q15.218739257049561,6.278819504699706,15.146339257049561,6.264409504699707Q15.07383925704956,6.249999504699707,15.000039257049561,6.249999504699707Q14.85083925704956,6.249999504699707,14.71293925704956,6.307089504699707Q14.57513925704956,6.364179504699707,14.469639257049561,6.4696695046997075L14.46923925704956,6.470059504699707L7.969669257049561,12.969659504699708Q7.12867925704956,13.810659504699707,7.12867925704956,14.999959504699707Q7.12867925704956,16.18935950469971,7.969669257049561,17.030359504699707Q8.810659257049561,17.871359504699708,9.99999925704956,17.871359504699708Q11.18933925704956,17.871359504699708,12.03032925704956,17.030359504699707L18.53033925704956,10.530329504699708Q19.99263925704956,9.068019504699707,19.99263925704956,6.999999504699707Q19.99263925704956,4.931979504699707,18.53033925704956,3.469670504699707Q17.068039257049563,2.007359504699707,15.000039257049561,2.007359504699707Q12.93197925704956,2.007359504699707,11.46966925704956,3.469669504699707L4.969669257049561,9.969669504699707Q2.8860392570495605,12.053299504699707,2.8860392570495605,14.999959504699707Q2.8860402570495607,17.946659504699706,4.969669257049561,20.030359504699707Q7.053299257049561,22.113959504699707,9.99999925704956,22.113959504699707Q12.946699257049561,22.113959504699707,15.03033925704956,20.030359504699707Z" fill-rule="evenodd" fill="#000000" fill-opacity="1" style="mix-blend-mode:passthrough"/></g></g></svg>