<svg xmlns="http://www.w3.org/2000/svg" xmlns:xlink="http://www.w3.org/1999/xlink" fill="none" version="1.1" width="24" height="24" viewBox="0 0 24 24"><defs><clipPath id="master_svg0_5304_07119"><rect x="0" y="0" width="24" height="24" rx="0"/></clipPath><clipPath id="master_svg1_5304_07129"><rect x="0" y="0" width="24" height="24" rx="0"/></clipPath></defs><g clip-path="url(#master_svg0_5304_07119)"><g clip-path="url(#master_svg1_5304_07129)"></g><g><g><g><path d="M3.3375000953674316,4.100006198883056L3.3375000953674316,17.600006198883058Q3.3375000953674316,18.469806198883056,3.952576095367432,19.084906198883054Q4.567650095367432,19.700006198883056,5.437500095367431,19.700006198883056L9.200000095367432,19.700006198883056L18.937500095367433,19.700006198883056Q19.80730009536743,19.700006198883056,20.422400095367433,19.084906198883054Q21.03750009536743,18.469806198883056,21.03750009536743,17.600006198883058L21.03750009536743,7.100006198883056C21.03750009536743,6.768636198883057,20.76890009536743,6.500006198883057,20.437500095367433,6.500006198883057L12.487500095367432,6.500006198883057L10.417500095367432,3.740006198883057C10.304190095367431,3.5889226988830565,10.126350095367432,3.5000061988830566,9.937500095367431,3.5000061988830566L3.9375000953674317,3.5000061988830566C3.6061290953674314,3.5000061988830566,3.3375000953674316,3.7686351988830564,3.3375000953674316,4.100006198883056Z" fill="#FAEBFF" fill-opacity="1"/></g><g><path d="M18.937500095367433,18.500006198883057Q19.31030009536743,18.500006198883057,19.57390009536743,18.236406198883056Q19.83750009536743,17.972806198883056,19.83750009536743,17.600006198883058L19.83750009536743,7.700006198883057L12.187500095367431,7.700006198883057C11.99865009536743,7.700006198883057,11.820810095367431,7.611086198883057,11.70750009536743,7.460006198883057L9.637500095367432,4.700006198883057L4.537500095367432,4.700006198883057L4.537500095367432,17.600006198883058Q4.537500095367432,17.972806198883056,4.801100095367431,18.236406198883056Q5.064710095367431,18.500006198883057,5.437500095367431,18.500006198883057L9.200000095367432,18.500006198883057C9.531370095367432,18.500006198883057,9.800000095367432,18.768606198883056,9.800000095367432,19.100006198883058C9.800000095367432,19.431406198883057,9.531370095367432,19.700006198883056,9.200000095367432,19.700006198883056L5.437500095367431,19.700006198883056Q4.567650095367432,19.700006198883056,3.952576095367432,19.084906198883054Q3.3375000953674316,18.469806198883056,3.3375000953674316,17.600006198883058L3.3375000953674316,4.100006198883056C3.3375000953674316,3.7686351988830564,3.6061290953674314,3.5000061988830566,3.9375000953674317,3.5000061988830566L9.937500095367431,3.5000061988830566C10.126350095367432,3.5000061988830566,10.304190095367431,3.5889226988830565,10.417500095367432,3.740006198883057L12.487500095367432,6.500006198883057L20.437500095367433,6.500006198883057C20.76890009536743,6.500006198883057,21.03750009536743,6.768636198883057,21.03750009536743,7.100006198883056L21.03750009536743,17.600006198883058Q21.03750009536743,18.469806198883056,20.422400095367433,19.084906198883054Q19.80730009536743,19.700006198883056,18.937500095367433,19.700006198883056C18.60610009536743,19.700006198883056,18.33750009536743,19.431406198883057,18.33750009536743,19.100006198883058C18.33750009536743,18.768606198883056,18.60610009536743,18.500006198883057,18.937500095367433,18.500006198883057Z" fill-rule="evenodd" fill="#A52FFF" fill-opacity="1"/></g><g><path d="M9.000000095367431,6.500006198883057L6.000000095367431,6.500006198883057C5.668629095367431,6.500006198883057,5.400000095367432,6.768635198883056,5.400000095367432,7.100006198883056C5.400000095367432,7.431377198883057,5.668629095367431,7.700006198883057,6.000000095367431,7.700006198883057L9.000000095367431,7.700006198883057C9.331370095367431,7.700006198883057,9.600000095367431,7.431377198883057,9.600000095367431,7.100006198883056C9.600000095367431,6.768635198883056,9.331370095367431,6.500006198883057,9.000000095367431,6.500006198883057Z" fill-rule="evenodd" fill="#A52FFF" fill-opacity="1"/></g></g><g transform="matrix(-1,0,0,1,35.00053024291992,0)"><path d="M26.57350512145996,16.10733C26.57350512145996,16.10733,26.56915512145996,16.1233,26.56915512145996,16.1233Q26.34633512145996,16.89047,25.759675121459964,17.43271Q25.17301512145996,17.97496,24.390715121459962,18.13681C24.390715121459962,18.13681,24.36222512145996,18.141849999999998,24.36222512145996,18.141849999999998Q23.810485121459962,18.22306,23.27145512145996,18.12123L20.832805121459963,20.97842Q20.30160512145996,21.63028,19.46027512145996,21.665219999999998Q18.61551512145996,21.70031,18.02894412145996,21.08773Q17.46807112145996,20.49576,17.50222555145996,19.681Q17.53637992145996,18.86624,18.14483012145996,18.32329C18.14483012145996,18.32329,18.155407121459962,18.31411,18.155407121459962,18.31411L21.01554512145996,15.90227Q20.95966512145996,15.652470000000001,20.961855121459962,15.39172Q20.93897512145996,14.271560000000001,21.68775512145996,13.436551Q22.439425121459962,12.5983236,23.56118512145996,12.50192901C23.57419512145996,12.500810921,23.58724512145996,12.500203013,23.60030512145996,12.500106692Q24.151985121459962,12.49603802,24.68259512145996,12.647125C24.76480512145996,12.670535,24.83964512145996,12.714632,24.89995512145996,12.775204C25.094805121459963,12.970878,25.09414512145996,13.28746,24.89846512145996,13.482309L23.969355121459962,14.4075L24.76062512145996,15.19504L25.69332512145996,14.26657C25.749175121459963,14.21098,25.81737512145996,14.16937,25.89235512145996,14.14514C26.15512512145996,14.06025,26.436965121459963,14.20444,26.52186512145996,14.46721Q26.78440512145996,15.27981,26.57350512145996,16.10733ZM24.20230512145996,17.15457Q25.29184512145996,16.92267,25.60649512145996,15.8524Q25.62071512145996,15.79567,25.631585121459963,15.73905L25.113405121459962,16.25487C24.91834512145996,16.44905,24.60302512145996,16.44906,24.40794512145996,16.2549L22.90794512145996,14.76198C22.712225121459962,14.56718,22.711475121459962,14.2506,22.906275121459963,14.05488C22.906275121459963,14.05488,22.90785512145996,14.05329,22.90785512145996,14.05329L23.43591512145996,13.52746Q22.84713512145996,13.64152,22.43225512145996,14.10417Q21.944955121459962,14.6476,21.96177512145996,15.377320000000001C21.96177512145996,15.377320000000001,21.96187512145996,15.39495,21.96187512145996,15.39495Q21.95877512145996,15.64851,22.05403512145996,15.88351C22.13532512145996,16.08404,22.078405121459962,16.3141,21.91298512145996,16.45358L18.80591512145996,19.07365Q18.51765512145996,19.33391,18.501345121459963,19.72288Q18.48490912145996,20.11503,18.75486512145996,20.39995Q19.02536512145996,20.68243,19.418785121459962,20.66609Q19.81220512145996,20.649749999999997,20.060015121459962,20.34375C20.060015121459962,20.34375,20.068265121459962,20.33382,20.068265121459962,20.33382L22.70951512145996,17.23924C22.837395121459963,17.08943,23.04130512145996,17.02864,23.230335121459962,17.08399Q23.709035121459962,17.22416,24.20230512145996,17.15457Z" fill-rule="evenodd" fill="#A52FFF" fill-opacity="1"/></g></g></g></svg>