<svg xmlns="http://www.w3.org/2000/svg" xmlns:xlink="http://www.w3.org/1999/xlink" fill="none" version="1.1" width="24" height="24" viewBox="0 0 24 24"><defs><clipPath id="master_svg0_5304_06995"><rect x="0" y="0" width="24" height="24" rx="0"/></clipPath><clipPath id="master_svg1_5304_06996"><rect x="0" y="0" width="24" height="24" rx="0"/></clipPath></defs><g clip-path="url(#master_svg0_5304_06995)"><g clip-path="url(#master_svg1_5304_06996)"></g><g><g><g><path d="M4.087499976158142,20.437499976158144C4.087499976158142,20.768899976158142,4.356128976158142,21.03749997615814,4.687499976158142,21.03749997615814L12.187499976158142,21.03749997615814L17.78749997615814,21.03749997615814C18.33979997615814,21.03749997615814,18.78749997615814,20.589799976158144,18.78749997615814,20.03749997615814L18.78749997615814,10.687499976158142L18.78749997615814,8.437499976158142C18.78749997615814,8.278369976158142,18.724299976158143,8.125759976158143,18.611799976158142,8.013239976158143L14.111799976158142,3.513235976158142C13.999239976158142,3.4007140761581423,13.846629976158143,3.337499976158142,13.687499976158142,3.337499976158142L4.687499976158142,3.337499976158142C4.356128976158142,3.337499976158142,4.087499976158142,3.606128976158142,4.087499976158142,3.937499976158142L4.087499976158142,20.437499976158144Z" fill="#EBF9FF" fill-opacity="1"/></g><g><path d="M13.687500357627869,3.9375L13.687500357627869,8.4375L18.18750035762787,8.4375L13.687500357627869,3.9375Z" fill="#2882FF" fill-opacity="1"/></g><g><path d="M10.687499976158142,7.687512278556824L7.687499976158142,7.687512278556824C7.356128976158142,7.687512278556824,7.087499976158142,7.9561412785568235,7.087499976158142,8.287512278556823C7.087499976158142,8.618883278556824,7.356128976158142,8.887512278556823,7.687499976158142,8.887512278556823L10.687499976158142,8.887512278556823C11.018869976158141,8.887512278556823,11.287499976158141,8.618883278556824,11.287499976158141,8.287512278556823C11.287499976158141,7.9561412785568235,11.018869976158141,7.687512278556824,10.687499976158142,7.687512278556824Z" fill-rule="evenodd" fill="#2882FF" fill-opacity="1"/></g><g><path d="M11.437499976158142,11.437512755393982L7.687499976158142,11.437512755393982C7.356128976158142,11.437512755393982,7.087499976158142,11.706141755393983,7.087499976158142,12.037512755393982C7.087499976158142,12.368883755393982,7.356128976158142,12.637512755393981,7.687499976158142,12.637512755393981L11.437499976158142,12.637512755393981C11.768869976158143,12.637512755393981,12.037499976158141,12.368883755393982,12.037499976158141,12.037512755393982C12.037499976158141,11.706141755393983,11.768869976158143,11.437512755393982,11.437499976158142,11.437512755393982Z" fill-rule="evenodd" fill="#2882FF" fill-opacity="1"/></g><g><path d="M10.687499976158142,15.187512755393982L7.687499976158142,15.187512755393982C7.356128976158142,15.187512755393982,7.087499976158142,15.456141755393983,7.087499976158142,15.787512755393982C7.087499976158142,16.11888375539398,7.356128976158142,16.38751275539398,7.687499976158142,16.38751275539398L10.687499976158142,16.38751275539398C11.018869976158141,16.38751275539398,11.287499976158141,16.11888375539398,11.287499976158141,15.787512755393982C11.287499976158141,15.456141755393983,11.018869976158141,15.187512755393982,10.687499976158142,15.187512755393982Z" fill-rule="evenodd" fill="#2882FF" fill-opacity="1"/></g><g><path d="M13.687499976158142,3.337499976158142C13.356128976158143,3.337499976158142,13.087499976158142,3.606128976158142,13.087499976158142,3.937499976158142L13.087499976158142,8.437499976158142C13.087499976158142,8.768869976158143,13.356128976158143,9.037499976158141,13.687499976158142,9.037499976158141L18.187499976158144,9.037499976158141C18.518869976158143,9.037499976158141,18.78749997615814,8.768869976158143,18.78749997615814,8.437499976158142C18.78749997615814,8.106129976158142,18.518869976158143,7.837499976158142,18.187499976158144,7.837499976158142L14.287499976158141,7.837499976158142L14.287499976158141,3.937499976158142C14.287499976158141,3.606128976158142,14.018870976158142,3.337499976158142,13.687499976158142,3.337499976158142Z" fill-rule="evenodd" fill="#2882FF" fill-opacity="1"/></g><g><path d="M12.187499976158142,21.03749997615814L4.687499976158142,21.03749997615814C4.356128976158142,21.03749997615814,4.087499976158142,20.768899976158142,4.087499976158142,20.437499976158144L4.087499976158142,3.937499976158142C4.087499976158142,3.606128976158142,4.356128976158142,3.337499976158142,4.687499976158142,3.337499976158142L13.687499976158142,3.337499976158142C13.846629976158143,3.337499976158142,13.999239976158142,3.4007140761581423,14.111799976158142,3.513235976158142L18.611799976158142,8.013239976158143C18.724299976158143,8.125759976158143,18.78749997615814,8.278369976158142,18.78749997615814,8.437499976158142L18.78749997615814,10.687499976158142C18.78749997615814,11.018869976158143,18.518899976158142,11.287499976158141,18.187499976158144,11.287499976158141C17.85609997615814,11.287499976158141,17.587499976158142,11.018869976158143,17.587499976158142,10.687499976158142L17.587499976158142,8.686029976158142L13.438969976158143,4.537499976158142L5.287499976158142,4.537499976158142L5.287499976158142,19.837499976158142L12.187499976158142,19.837499976158142C12.518869976158141,19.837499976158142,12.787499976158141,20.10609997615814,12.787499976158141,20.437499976158144C12.787499976158141,20.768899976158142,12.518869976158141,21.03749997615814,12.187499976158142,21.03749997615814Z" fill-rule="evenodd" fill="#2882FF" fill-opacity="1"/></g></g><g transform="matrix(-1,0,0,1,43.00053024291992,0)"><path d="M30.57350512145996,16.107328092651368C30.57350512145996,16.107328092651368,30.56915512145996,16.123298092651368,30.56915512145996,16.123298092651368Q30.34633512145996,16.890468092651368,29.759675121459964,17.432708092651367Q29.17301512145996,17.974958092651367,28.390715121459962,18.136808092651368C28.390715121459962,18.136808092651368,28.36222512145996,18.141848092651365,28.36222512145996,18.141848092651365Q27.810485121459962,18.223058092651367,27.27145512145996,18.121228092651368L24.832805121459963,20.978418092651367Q24.30160512145996,21.630278092651366,23.46027512145996,21.665218092651365Q22.61551512145996,21.70030809265137,22.02894412145996,21.087728092651368Q21.46807112145996,20.495758092651368,21.50222555145996,19.680998092651368Q21.53637992145996,18.86623809265137,22.14483012145996,18.323288092651367C22.14483012145996,18.323288092651367,22.155407121459962,18.314108092651367,22.155407121459962,18.314108092651367L25.01554512145996,15.902268092651367Q24.95966512145996,15.652468092651368,24.961855121459962,15.391718092651367Q24.93897512145996,14.271558092651368,25.68775512145996,13.436549092651367Q26.439425121459962,12.598321692651368,27.56118512145996,12.501927102651367C27.57419512145996,12.500809013651367,27.58724512145996,12.500201105651367,27.60030512145996,12.500104784651366Q28.151985121459962,12.496036112651367,28.68259512145996,12.647123092651368C28.76480512145996,12.670533092651366,28.83964512145996,12.714630092651367,28.89995512145996,12.775202092651368C29.094805121459963,12.970876092651368,29.09414512145996,13.287458092651367,28.89846512145996,13.482307092651368L27.969355121459962,14.407498092651368L28.76062512145996,15.195038092651368L29.69332512145996,14.266568092651367C29.749175121459963,14.210978092651366,29.81737512145996,14.169368092651368,29.89235512145996,14.145138092651367C30.15512512145996,14.060248092651367,30.436965121459963,14.204438092651367,30.52186512145996,14.467208092651367Q30.78440512145996,15.279808092651367,30.57350512145996,16.107328092651368ZM28.20230512145996,17.154568092651367Q29.29184512145996,16.922668092651367,29.60649512145996,15.852398092651367Q29.62071512145996,15.795668092651367,29.631585121459963,15.739048092651368L29.113405121459962,16.254868092651368C28.91834512145996,16.449048092651367,28.60302512145996,16.449058092651367,28.40794512145996,16.254898092651366L26.90794512145996,14.761978092651367C26.712225121459962,14.567178092651368,26.711475121459962,14.250598092651368,26.906275121459963,14.054878092651368C26.906275121459963,14.054878092651368,26.90785512145996,14.053288092651368,26.90785512145996,14.053288092651368L27.43591512145996,13.527458092651367Q26.84713512145996,13.641518092651367,26.43225512145996,14.104168092651367Q25.944955121459962,14.647598092651368,25.96177512145996,15.377318092651368C25.96177512145996,15.377318092651368,25.96187512145996,15.394948092651367,25.96187512145996,15.394948092651367Q25.95877512145996,15.648508092651367,26.05403512145996,15.883508092651367C26.13532512145996,16.08403809265137,26.078405121459962,16.314098092651367,25.91298512145996,16.453578092651366L22.80591512145996,19.073648092651368Q22.51765512145996,19.333908092651367,22.501345121459963,19.722878092651367Q22.48490912145996,20.115028092651368,22.75486512145996,20.399948092651368Q23.02536512145996,20.682428092651367,23.418785121459962,20.666088092651368Q23.81220512145996,20.649748092651365,24.060015121459962,20.343748092651367C24.060015121459962,20.343748092651367,24.068265121459962,20.333818092651367,24.068265121459962,20.333818092651367L26.70951512145996,17.239238092651366C26.837395121459963,17.089428092651367,27.04130512145996,17.028638092651367,27.230335121459962,17.083988092651367Q27.709035121459962,17.22415809265137,28.20230512145996,17.154568092651367Z" fill-rule="evenodd" fill="#2882FF" fill-opacity="1"/></g></g></g></svg>