<svg xmlns="http://www.w3.org/2000/svg" xmlns:xlink="http://www.w3.org/1999/xlink" fill="none" version="1.1" width="24" height="24" viewBox="0 0 24 24"><defs><clipPath id="master_svg0_5799_08804"><rect x="0" y="0" width="24" height="24" rx="0"/></clipPath></defs><g clip-path="url(#master_svg0_5799_08804)"><g></g><g><g><path d="M4.5,5.000004360961914L4.5,19.000004360961913C4.499894142,19.358104360961914,4.691326,19.689004360961913,5.001876,19.867404360961913C5.312425,20.045804360961913,5.69467,20.044504360961913,6.004,19.864004360961914L18.003999999999998,12.864004360961914C18.666,12.478214360961914,18.666,11.521784360961913,18.003999999999998,11.136004360961914L6.004,4.136000360961914C5.69467,3.955495860961914,5.312425,3.954198160961914,5.001875,4.1325993609619145C4.691326,4.310999360961914,4.499893665,4.641855360961914,4.5,5.000004360961914Z" fill="#000000" fill-opacity="1" style="mix-blend-mode:passthrough"/></g><g><path d="M18.5,4C19.00698,4.0000667572,19.43368,4.379507,19.493,4.883L19.5,5L19.5,19C19.49941,19.5291,19.08679,19.9662,18.55861,19.9972C18.03042,20.0282,17.5694904,19.642400000000002,17.50699997,19.117L17.5,19L17.5,5C17.5,4.447715,17.947716,4,18.5,4Z" fill="#000000" fill-opacity="1" style="mix-blend-mode:passthrough"/></g></g></g></svg>