<svg xmlns="http://www.w3.org/2000/svg" xmlns:xlink="http://www.w3.org/1999/xlink" fill="none" version="1.1" width="24" height="24" viewBox="0 0 24 24"><defs><clipPath id="master_svg0_5566_09241"><rect x="0" y="0" width="24" height="24" rx="0"/></clipPath></defs><g clip-path="url(#master_svg0_5566_09241)"><g><path d="M20.030207629394532,12Q20.030207629394532,10.63794,18.870207629394532,9.92408L9.152497629394531,3.943972Q7.934467629394531,3.194419,6.685988629394531,3.892064Q5.437507629394531,4.58971,5.437507629394531,6.01989L5.437507629394531,17.9801Q5.437507629394531,19.4103,6.685988629394531,20.1079Q7.934467629394531,20.8056,9.152497629394531,20.056L18.870207629394532,14.0759Q20.030207629394532,13.3621,20.030207629394532,12ZM8.366347629394532,5.22146L18.08400762939453,11.20157Q18.530207629394532,11.47613,18.530207629394532,12Q18.530207629394532,12.52387,18.08400762939453,12.79843L8.366347629394532,18.7785Q7.897877629394531,19.0668,7.417697629394532,18.7985Q6.937507629394531,18.5302,6.937507629394531,17.9801L6.937507629394531,6.01989Q6.937507629394531,5.46982,7.417687629394531,5.201499999999999Q7.897877629394531,4.9331700000000005,8.366347629394532,5.22146Z" fill-rule="evenodd" fill="#000000" fill-opacity="1" style="mix-blend-mode:passthrough"/></g></g></svg>