<svg xmlns="http://www.w3.org/2000/svg" xmlns:xlink="http://www.w3.org/1999/xlink" fill="none" version="1.1" width="24" height="24" viewBox="0 0 24 24"><defs><clipPath id="master_svg0_6033_02690"><rect x="0" y="0" width="24" height="24" rx="0"/></clipPath></defs><g clip-path="url(#master_svg0_6033_02690)"><g><path d="M15,8.75L20,8.75Q20.07387,8.75,20.14632,8.764410999999999Q20.21877,8.778822,20.287010000000002,8.80709Q20.35526,8.835359,20.41668,8.876398Q20.4781,8.917437,20.53033,8.96967Q20.58256,9.021903,20.6236,9.083322Q20.66464,9.144742,20.69291,9.212987Q20.72118,9.281233,20.735590000000002,9.353682Q20.75,9.4261315,20.75,9.5Q20.75,9.5738685,20.735590000000002,9.646318Q20.72118,9.718767,20.69291,9.787013Q20.66464,9.855258,20.6236,9.916678Q20.58256,9.978097,20.53033,10.03033Q20.4781,10.082563,20.41668,10.123602Q20.35526,10.164641,20.287010000000002,10.19291Q20.21877,10.221178,20.14632,10.235589000000001Q20.07387,10.25,20,10.25L15,10.25Q14.9261315,10.25,14.853682,10.235589000000001Q14.781233,10.221178,14.712987,10.19291Q14.644742,10.164641,14.583322,10.123602Q14.521903,10.082563,14.46967,10.03033Q14.417437,9.978097,14.376398,9.916678Q14.335359,9.855258,14.30709,9.787013Q14.278822,9.718767,14.264410999999999,9.646318Q14.25,9.5738685,14.25,9.5Q14.25,9.4261315,14.264410999999999,9.353682Q14.278822,9.281233,14.30709,9.212987Q14.335359,9.144742,14.376398,9.083322Q14.417437,9.021903,14.46967,8.96967Q14.521903,8.917437,14.583322,8.876398Q14.644742,8.835359,14.712987,8.80709Q14.781233,8.778822,14.853682,8.764410999999999Q14.9261315,8.75,15,8.75Z" fill-rule="evenodd" fill="#000000" fill-opacity="1"/></g><g><path d="M10.5,4.25L20,4.25Q20.07387,4.25,20.14632,4.264411Q20.21877,4.278822,20.287010000000002,4.30709Q20.35526,4.335359,20.41668,4.376398Q20.478099999999998,4.417437,20.5303,4.46967Q20.5826,4.521903,20.6236,4.583322Q20.6646,4.644742,20.6929,4.712987Q20.7212,4.781233,20.735599999999998,4.853682Q20.75,4.9261315,20.75,5Q20.75,5.0738685,20.735599999999998,5.146318Q20.7212,5.218767,20.6929,5.287013Q20.6646,5.355258,20.6236,5.416678Q20.5826,5.478097,20.5303,5.53033Q20.478099999999998,5.582563,20.41668,5.623602Q20.35526,5.664641,20.287010000000002,5.69291Q20.21877,5.721178,20.14632,5.735589Q20.07387,5.75,20,5.75L10.5,5.75Q10.4261315,5.75,10.353682,5.735589Q10.281233,5.721178,10.212987,5.69291Q10.144742,5.664641,10.083322,5.623602Q10.021903,5.582563,9.96967,5.53033Q9.917437,5.478097,9.876398,5.416678Q9.835359,5.355258,9.80709,5.287013Q9.778822,5.218767,9.764410999999999,5.146318Q9.75,5.0738685,9.75,5Q9.75,4.9261315,9.764410999999999,4.853682Q9.778822,4.781233,9.80709,4.712987Q9.835359,4.644742,9.876398,4.583322Q9.917437,4.521903,9.96967,4.46967Q10.021903,4.417437,10.083322,4.376398Q10.144742,4.335359,10.212987,4.30709Q10.281233,4.278822,10.353682,4.264411Q10.4261315,4.25,10.5,4.25Z" fill-rule="evenodd" fill="#000000" fill-opacity="1"/></g><g><path d="M4.0001220703125,18.25L20.0001220703125,18.25Q20.0740220703125,18.25,20.1464220703125,18.264411Q20.2189220703125,18.278822,20.2871220703125,18.30709Q20.3554220703125,18.335359,20.4168220703125,18.376398000000002Q20.4782220703125,18.417437,20.5304220703125,18.46967Q20.5827220703125,18.521903000000002,20.6237220703125,18.583322Q20.6647220703125,18.644742,20.6930220703125,18.712987Q20.7213220703125,18.781233,20.7357220703125,18.853682Q20.7501220703125,18.9261315,20.7501220703125,19Q20.7501220703125,19.0738685,20.7357220703125,19.146318Q20.7213220703125,19.218767,20.6930220703125,19.287013Q20.6647220703125,19.355258,20.6237220703125,19.416678Q20.5827220703125,19.478096999999998,20.5304220703125,19.53033Q20.4782220703125,19.582563,20.4168220703125,19.623601999999998Q20.3554220703125,19.664641,20.2871220703125,19.69291Q20.2189220703125,19.721178,20.1464220703125,19.735589Q20.0740220703125,19.75,20.0001220703125,19.75L4.0001220703125,19.75Q3.9262535703125,19.75,3.8538040703125,19.735589Q3.7813550703125,19.721178,3.7131090703125,19.69291Q3.6448640703125,19.664641,3.5834440703125,19.623601999999998Q3.5220250703125,19.582563,3.4697920703125,19.53033Q3.4175590703125,19.478096999999998,3.3765200703125,19.416678Q3.3354810703125,19.355258,3.3072120703125,19.287013Q3.2789440703125,19.218767,3.2645330703125,19.146318Q3.2501220703125,19.0738685,3.2501220703125,19Q3.2501220703125,18.9261315,3.2645330703125,18.853682Q3.2789440703125,18.781233,3.3072120703125,18.712987Q3.3354810703125,18.644742,3.3765200703125,18.583322Q3.4175590703125,18.521903000000002,3.4697920703125,18.46967Q3.5220250703125,18.417437,3.5834440703125,18.376398000000002Q3.6448640703125,18.335359,3.7131090703125,18.30709Q3.7813550703125,18.278822,3.8538040703125,18.264411Q3.9262535703125,18.25,4.0001220703125,18.25Z" fill-rule="evenodd" fill="#000000" fill-opacity="1"/></g><g><path d="M11.5001220703125,13.25L20.0001220703125,13.25Q20.0739920703125,13.25,20.1464420703125,13.264410999999999Q20.2188920703125,13.278822,20.287132070312502,13.30709Q20.3553820703125,13.335359,20.4168020703125,13.376398Q20.478222070312498,13.417437,20.5304520703125,13.46967Q20.5826820703125,13.521903,20.6237220703125,13.583322Q20.6647620703125,13.644742,20.693032070312498,13.712987Q20.7213020703125,13.781233,20.735712070312502,13.853682Q20.7501220703125,13.9261315,20.7501220703125,14Q20.7501220703125,14.0738685,20.735712070312502,14.146318Q20.7213020703125,14.218767,20.693032070312498,14.287013Q20.6647620703125,14.355258,20.6237220703125,14.416678Q20.5826820703125,14.478097,20.5304520703125,14.53033Q20.478222070312498,14.582563,20.4168020703125,14.623602Q20.3553820703125,14.664641,20.287132070312502,14.69291Q20.2188920703125,14.721178,20.1464420703125,14.735589000000001Q20.0739920703125,14.75,20.0001220703125,14.75L11.5001220703125,14.75Q11.4262535703125,14.75,11.3538040703125,14.735589000000001Q11.2813550703125,14.721178,11.2131090703125,14.69291Q11.1448640703125,14.664641,11.0834440703125,14.623602Q11.0220250703125,14.582563,10.9697920703125,14.53033Q10.9175590703125,14.478097,10.8765200703125,14.416678Q10.8354810703125,14.355258,10.8072120703125,14.287013Q10.7789440703125,14.218767,10.764533070312499,14.146318Q10.7501220703125,14.0738685,10.7501220703125,14Q10.7501220703125,13.9261315,10.764533070312499,13.853682Q10.7789440703125,13.781233,10.8072120703125,13.712987Q10.8354810703125,13.644742,10.8765200703125,13.583322Q10.9175590703125,13.521903,10.9697920703125,13.46967Q11.0220250703125,13.417437,11.0834440703125,13.376398Q11.1448640703125,13.335359,11.2131090703125,13.30709Q11.2813550703125,13.278822,11.3538040703125,13.264410999999999Q11.4262535703125,13.25,11.5001220703125,13.25Z" fill-rule="evenodd" fill="#000000" fill-opacity="1"/></g><g><path d="M3.2501220703125,6.35319L3.2501220703125,12.64681Q3.2501220703125,13.53043,4.0229693703125,13.95878Q4.7958170703125,14.38713,5.5451220703125,13.91881L10.5800220703125,10.772Q11.2850220703125,10.33137,11.2850220703125,9.5Q11.2850220703125,8.66863,10.5800220703125,8.228L5.5451220703125,5.0811881Q4.7958170703125,4.6128730000000004,4.0229693703125,5.0412218Q3.2501220703125,5.46957,3.2501220703125,6.35319ZM9.7850220703125,9.5L4.7501220703125,12.64681L4.7501220703125,6.35319L9.7850220703125,9.5Z" fill-rule="evenodd" fill="#000000" fill-opacity="1"/></g></g></svg>