<svg xmlns="http://www.w3.org/2000/svg" xmlns:xlink="http://www.w3.org/1999/xlink" fill="none" version="1.1" width="24" height="24" viewBox="0 0 24 24"><defs><clipPath id="master_svg0_6083_02701"><rect x="0" y="0" width="24" height="24" rx="0"/></clipPath></defs><g clip-path="url(#master_svg0_6083_02701)"><g><path d="M5.1057086,5.1057086Q2.25000024,7.9614172,2.25,12Q2.25,16.038581,5.1057086,18.894289999999998Q7.9614186,21.75,12,21.75Q16.03858,21.75,18.894289999999998,18.894289999999998Q21.75,16.03858,21.75,12Q21.75,7.9614182,18.894289999999998,5.1057086Q16.038581,2.25000024,12,2.25Q7.9614172,2.25,5.1057086,5.1057086ZM6.1663689999999995,17.833631Q3.75,15.417261,3.75,12Q3.75,8.5827379,6.1663689999999995,6.1663689999999995Q8.5827379,3.75,12,3.75Q15.417261,3.75,17.833631,6.1663689999999995Q20.25,8.5827379,20.25,12Q20.25,15.417261,17.833631,17.833631Q15.417261,20.25,12,20.25Q8.5827379,20.25,6.1663689999999995,17.833631Z" fill-rule="evenodd" fill="#000000" fill-opacity="1"/></g><g><path d="M9.2501220703125,9.5Q9.2501220703125,9.426131457,9.2645331603125,9.35368228Q9.2789441903125,9.28123312,9.3072124703125,9.21298748Q9.3354807503125,9.14474183,9.3765199203125,9.08332238Q9.4175590903125,9.02190292,9.4697920103125,8.96966994Q9.5220249903125,8.91743702,9.5834444503125,8.87639785Q9.6448639003125,8.83535868,9.7131095503125,8.8070904Q9.7813551903125,8.77882212,9.8538043503125,8.76441109Q9.9262535273125,8.75,10.0001220703125,8.75Q10.0739906133125,8.75,10.1464397903125,8.76441109Q10.2188889503125,8.77882212,10.2871345903125,8.8070904Q10.3553802403125,8.83535868,10.4167996903125,8.87639785Q10.4782191503125,8.91743702,10.5304521303125,8.96966994Q10.5826850503125,9.02190292,10.6237242203125,9.08332238Q10.6647633903125,9.14474183,10.6930316703125,9.21298748Q10.7212999503125,9.28123312,10.7357109803125,9.35368228Q10.7501220703125,9.426131457,10.7501220703125,9.5L10.7501220703125,14.5Q10.7501220703125,14.5738688,10.7357109803125,14.6463175Q10.7212999503125,14.718766200000001,10.6930316703125,14.7870121Q10.6647633903125,14.8552575,10.6237242203125,14.916677Q10.5826850503125,14.9780965,10.5304521303125,15.0303297Q10.4782191503125,15.0825624,10.4167996903125,15.1236019Q10.3553802403125,15.1646414,10.2871345903125,15.192909199999999Q10.2188889503125,15.2211781,10.1464397903125,15.235589000000001Q10.0739906133125,15.25,10.0001220703125,15.25Q9.9262535273125,15.25,9.8538043503125,15.235589000000001Q9.7813551903125,15.2211781,9.7131095503125,15.192909700000001Q9.6448639003125,15.1646414,9.5834444503125,15.1236019Q9.5220249903125,15.0825624,9.4697920103125,15.0303297Q9.4175590903125,14.9780965,9.3765199203125,14.916677Q9.3354807503125,14.8552575,9.3072124703125,14.7870121Q9.2789441903125,14.718766200000001,9.2645331603125,14.6463175Q9.2501220703125,14.5738688,9.2501220703125,14.5L9.2501220703125,9.5Z" fill-rule="evenodd" fill="#000000" fill-opacity="1" style="mix-blend-mode:passthrough"/></g><g><path d="M13.2501220703125,9.5Q13.2501220703125,9.426131457,13.2645331603125,9.35368228Q13.2789441903125,9.28123312,13.3072124703125,9.21298748Q13.3354807503125,9.14474183,13.3765199203125,9.08332238Q13.4175590903125,9.02190292,13.4697920103125,8.96966994Q13.5220249903125,8.91743702,13.5834444503125,8.87639785Q13.6448639003125,8.83535868,13.7131095503125,8.8070904Q13.7813551903125,8.77882212,13.8538043503125,8.76441109Q13.9262535273125,8.75,14.0001220703125,8.75Q14.0739906133125,8.75,14.1464397903125,8.76441109Q14.2188889503125,8.77882212,14.2871345903125,8.8070904Q14.3553802403125,8.83535868,14.4167996903125,8.87639785Q14.4782191503125,8.91743702,14.5304521303125,8.96966994Q14.5826850503125,9.02190292,14.6237242203125,9.08332238Q14.6647633903125,9.14474183,14.6930316703125,9.21298748Q14.7212999503125,9.28123312,14.7357109803125,9.35368228Q14.7501220703125,9.426131457,14.7501220703125,9.5L14.7501220703125,14.5Q14.7501220703125,14.5738688,14.7357109803125,14.6463175Q14.7212999503125,14.718766200000001,14.6930316703125,14.7870121Q14.6647633903125,14.8552575,14.6237242203125,14.916677Q14.5826850503125,14.9780965,14.5304521303125,15.0303297Q14.4782191503125,15.0825624,14.4167996903125,15.1236019Q14.3553802403125,15.1646414,14.2871345903125,15.192909199999999Q14.2188889503125,15.2211781,14.1464397903125,15.235589000000001Q14.0739906133125,15.25,14.0001220703125,15.25Q13.9262535273125,15.25,13.8538043503125,15.235589000000001Q13.7813551903125,15.2211781,13.7131095503125,15.192909700000001Q13.6448639003125,15.1646414,13.5834444503125,15.1236019Q13.5220249903125,15.0825624,13.4697920103125,15.0303297Q13.4175590903125,14.9780965,13.3765199203125,14.916677Q13.3354807503125,14.8552575,13.3072124703125,14.7870121Q13.2789441903125,14.718766200000001,13.2645331603125,14.6463175Q13.2501220703125,14.5738688,13.2501220703125,14.5L13.2501220703125,9.5Z" fill-rule="evenodd" fill="#000000" fill-opacity="1" style="mix-blend-mode:passthrough"/></g></g></svg>