<svg xmlns="http://www.w3.org/2000/svg" xmlns:xlink="http://www.w3.org/1999/xlink" fill="none" version="1.1" width="24" height="24" viewBox="0 0 24 24"><defs><clipPath id="master_svg0_6057_03729"><rect x="0" y="0" width="24" height="24" rx="0"/></clipPath></defs><g clip-path="url(#master_svg0_6057_03729)"><g></g><g><path d="M5.1057086,5.1057086Q2.25000024,7.9614172,2.25,12Q2.25,16.038581,5.1057086,18.894289999999998Q7.9614186,21.75,12,21.75Q16.03858,21.75,18.894289999999998,18.894289999999998Q21.75,16.03858,21.75,12Q21.75,7.9614182,18.894289999999998,5.1057086Q16.038581,2.25000024,12,2.25Q7.9614172,2.25,5.1057086,5.1057086ZM6.1663689999999995,17.833631Q3.75,15.417261,3.75,12Q3.75,8.5827379,6.1663689999999995,6.1663689999999995Q8.5827379,3.75,12,3.75Q15.417261,3.75,17.833631,6.1663689999999995Q20.25,8.5827379,20.25,12Q20.25,15.417261,17.833631,17.833631Q15.417261,20.25,12,20.25Q8.5827379,20.25,6.1663689999999995,17.833631Z" fill-rule="evenodd" fill="#000000" fill-opacity="1"/></g><g><path d="M8.25,9.75L8.25,14.250001000000001Q8.25000006,14.8713217,8.68934029,15.3106613Q9.12867987,15.75,9.75,15.75L14.2500014,15.75Q14.8713212,15.75,15.3106604,15.3106604Q15.75,14.8713212,15.75,14.250001000000001L15.75,9.75Q15.75,9.12867963,15.3106613,8.68934017Q14.8713217,8.25,14.250001000000001,8.25L9.75,8.25000006Q9.12867945,8.25000006,8.68933973,8.6893397Q8.25,9.12867947,8.25,9.75ZM14.2500014,14.25L9.75,14.2500014L9.75,9.75L14.25,9.75L14.2500014,14.25Z" fill-rule="evenodd" fill="#000000" fill-opacity="1"/></g></g></svg>