<svg xmlns="http://www.w3.org/2000/svg" xmlns:xlink="http://www.w3.org/1999/xlink" fill="none" version="1.1" width="24" height="24" viewBox="0 0 24 24"><defs><clipPath id="master_svg0_6083_02697"><rect x="0" y="0" width="24" height="24" rx="0"/></clipPath></defs><g clip-path="url(#master_svg0_6083_02697)"><g><path d="M5.25,6L5.25,18Q5.25,18.724873000000002,5.76256305,19.237436000000002Q6.27512652,19.75,7,19.75L9,19.75Q9.724874,19.75,10.237437199999999,19.237436000000002Q10.75,18.724874,10.75,18L10.75,6Q10.75,5.27512616,10.237437199999999,4.76256323Q9.724874,4.25,9,4.25L7,4.25Q6.27512634,4.25,5.76256317,4.76256317Q5.25,5.2751263999999995,5.25,6ZM7,18.25Q6.75,18.25,6.75,18L6.75,6Q6.75,5.75,7,5.75L9,5.75Q9.25,5.75,9.25,6L9.25,18Q9.25,18.25,9,18.25L7,18.25Z" fill-rule="evenodd" fill="#000000" fill-opacity="1" style="mix-blend-mode:passthrough"/></g><g><path d="M13.25,6L13.25,18Q13.25,18.724873000000002,13.76256305,19.237436000000002Q14.27512652,19.75,15,19.75L17,19.75Q17.724874,19.75,18.2374372,19.237436000000002Q18.75,18.724874,18.75,18L18.75,6Q18.75,5.27512616,18.2374372,4.76256323Q17.724874,4.25,17,4.25L15,4.25Q14.27512634,4.25,13.76256317,4.76256317Q13.25,5.2751263999999995,13.25,6ZM15,18.25Q14.75,18.25,14.75,18L14.75,6Q14.75,5.75,15,5.75L17,5.75Q17.25,5.75,17.25,6L17.25,18Q17.25,18.25,17,18.25L15,18.25Z" fill-rule="evenodd" fill="#000000" fill-opacity="1" style="mix-blend-mode:passthrough"/></g></g></svg>