<svg xmlns="http://www.w3.org/2000/svg" xmlns:xlink="http://www.w3.org/1999/xlink" fill="none" version="1.1" width="24" height="24" viewBox="0 0 24 24"><defs><clipPath id="master_svg0_6083_02849"><rect x="0" y="0" width="24" height="24" rx="0"/></clipPath></defs><g clip-path="url(#master_svg0_6083_02849)"><g><path d="M5.1057086,5.1057086Q2.25000024,7.9614172,2.25,12Q2.25,16.038581,5.1057086,18.894289999999998Q7.9614186,21.75,12,21.75Q16.03858,21.75,18.894289999999998,18.894289999999998Q21.75,16.03858,21.75,12Q21.75,7.9614182,18.894289999999998,5.1057086Q16.038581,2.25000024,12,2.25Q7.9614172,2.25,5.1057086,5.1057086ZM6.1663689999999995,17.833631Q3.75,15.417261,3.75,12Q3.75,8.5827379,6.1663689999999995,6.1663689999999995Q8.5827379,3.75,12,3.75Q15.417261,3.75,17.833631,6.1663689999999995Q20.25,8.5827379,20.25,12Q20.25,15.417261,17.833631,17.833631Q15.417261,20.25,12,20.25Q8.5827379,20.25,6.1663689999999995,17.833631Z" fill-rule="evenodd" fill="#000000" fill-opacity="1"/></g><g><path d="M9.3570023203125,8.61412814Q9.2501221303125,8.79226203,9.2501219503125,9L9.2501220703125,15Q9.2501220703125,15.0738683,9.2645331603125,15.1463175Q9.2789441903125,15.218766200000001,9.3072124703125,15.2870121Q9.3354807503125,15.3552575,9.3765199203125,15.416677Q9.4175590903125,15.4780965,9.4697920103125,15.5303297Q9.5220249903125,15.5825624,9.5834444503125,15.6236014Q9.6448639003125,15.6646404,9.7131095503125,15.6929088Q9.7813551903125,15.7211771,9.8538043503125,15.735588100000001Q9.9262535273125,15.749999500000001,10.0001220703125,15.75Q10.2078600503125,15.75,10.3859939303125,15.643119800000001L15.3859939703125,12.643119800000001Q15.5139179703125,12.5663652,15.6027321703125,12.4464984Q15.691546470312499,12.3266318,15.7277288703125,12.181901700000001Q15.7639112703125,12.0371718,15.7419538703125,11.8896122Q15.7199964703125,11.742052600000001,15.643241870312501,11.6141284Q15.5467738703125,11.4533484,15.3859939703125,11.356880199999999L10.3859939303125,8.35688025Q10.2580694903125,8.28012562,10.1105099503125,8.25816804Q9.9629504193125,8.23621053,9.8182204203125,8.27239299Q9.6734904003125,8.30857551,9.5536237403125,8.39738959Q9.4337570703125,8.48620367,9.3570023203125,8.61412814ZM10.7501220703125,10.3246429L10.7501220703125,13.6753569L13.5423838703125,12L10.7501220703125,10.3246429Z" fill-rule="evenodd" fill="#000000" fill-opacity="1" style="mix-blend-mode:passthrough"/></g></g></svg>