<svg xmlns="http://www.w3.org/2000/svg" xmlns:xlink="http://www.w3.org/1999/xlink" fill="none" version="1.1" width="24" height="24" viewBox="0 0 24 24"><defs><clipPath id="master_svg0_5834_08794"><rect x="0" y="0" width="24" height="24" rx="0"/></clipPath></defs><g clip-path="url(#master_svg0_5834_08794)"><g><g><path d="M22.27144651603699,5.641501473693848Q24.39944651603699,0.11950447369384765,20.265946516036987,0.5060043736938477Q17.613946516036986,0.5060043736938477,14.298946516036988,2.9210014736938477Q10.344966516036987,1.8555014736938475,6.390466516036987,4.247001473693848Q2.0809695160369874,6.993501473693848,2.2229665160369874,11.871521473693848Q5.727466516036987,6.8515014736938475,10.604966516036987,4.815501473693848L10.604966516036987,5.147001473693848C3.4069665160369875,10.069001473693847,1.7024695160369872,17.27002147369385,1.2759695160369873,18.73802147369385C0.8499695160369873,20.20602147369385,1.1339698160369873,23.50002147369385,4.164966516036987,23.50002147369385Q7.195966516036988,23.50002147369385,10.273966516036987,21.058521473693848Q10.936966516036987,21.200521473693847,12.736446516036988,21.200521473693847Q20.313446516036986,21.200521473693847,22.11294651603699,14.500021473693847L15.388446516036987,14.500021473693847Q14.914946516036988,16.702021473693847,12.499946516036987,16.702021473693847Q9.184966516036987,16.702021473693847,9.374466516036987,13.245021473693848L22.207946516036987,13.245021473693848Q22.823446516036988,4.3420014736938475,15.056946516036987,3.0630014736938476Q17.801446516036986,1.1215044736938475,20.171446516036987,1.1215044736938475Q23.927446516036987,1.1215044736938475,22.151446516036987,5.5215014736938475L22.27144651603699,5.641501473693848ZM9.897966516036988,20.960021473693846Q5.272966516036988,23.76702147369385,3.1964665160369874,21.822021473693848Q2.083969516036987,19.877021473693848,3.8914665160369872,17.122521473693848Q5.420966516036987,19.95902147369385,9.897966516036988,20.960021473693846ZM15.461446516036988,10.215001473693848L9.357966516036987,10.215001473693848Q9.280466516036988,7.240501473693848,12.486946516036987,7.240501473693848Q15.583446516036988,7.240501473693848,15.461446516036988,10.215001473693848Z" fill="#43A6DD" fill-opacity="1" style="mix-blend-mode:passthrough"/></g></g></g></svg>