<svg xmlns="http://www.w3.org/2000/svg" xmlns:xlink="http://www.w3.org/1999/xlink" fill="none" version="1.1" width="24" height="24" viewBox="0 0 24 24"><defs><clipPath id="master_svg0_5834_08896"><rect x="0" y="0" width="24" height="24" rx="0"/></clipPath><linearGradient x1="0.001773056574165821" y1="0.5018091797828674" x2="0.9999733567237854" y2="0.5018091797828674" id="master_svg1_4953_03705"><stop offset="0%" stop-color="#81171C" stop-opacity="1"/><stop offset="19.07999962568283%" stop-color="#95131A" stop-opacity="1"/><stop offset="72.18999862670898%" stop-color="#CA0917" stop-opacity="1"/><stop offset="98.18000197410583%" stop-color="#DE0515" stop-opacity="1"/></linearGradient></defs><g clip-path="url(#master_svg0_5834_08896)"><g><path d="M6.769449890625,11.57647109375Q6.834619890625,11.51130109375,6.964957890625,11.31579109375L14.850447890625,3.29996809375Q15.111117890625,2.97412109375,15.697647890625,2.97412109375Q16.218997890624998,2.97412109375,23.843837890625,2.97412109375Q23.974137890625,2.97412109375,24.039337890625,3.10446009375C24.104437890625,3.23479809375,23.974137890625,3.29996809375,23.908937890625,3.43030609375Q23.778637890625,3.49547609375,15.827987890625,11.44613109375Q14.720107890625,10.14274109375,14.329087890625,7.86182109375C14.003247890625001,5.90674109375,14.980787890625,3.43030609375,15.111127890625,3.16962909375Q14.003247890625001,4.92920109375,13.807737890624999,6.42809109375C13.612227890625,7.99216109375,14.003247890625001,10.72927109375,15.567307890625,12.42367109375Q17.131337890624998,14.11812109375,23.778637890625,20.70022109375Q23.908937890625,20.76532109375,23.843837890625,20.96082109375C23.843837890625,21.02602109375,23.713437890625,21.09122109375,23.583137890625,21.09122109375L15.632477890625,21.09122109375Q15.111127890625,21.09122109375,14.720107890625,20.70022109375L6.834619890625,12.61918109375Q6.443603890625,12.16299109375,6.769449890625,11.57647109375Z" fill="#DE0515" fill-opacity="1"/></g><g><path d="M15.828149375,11.446115546875Q14.459590375,9.751715546875001,14.264083105,7.144945546875C14.198913575,6.297735546875,14.524760375,4.342655546875,15.111283375,3.039274546875Q15.306789375,2.974104846875,15.567469375,2.908935546875L16.675349375,2.908935546875L23.843969375,2.908935546875Q24.039479375,2.974104846875,24.039479375,3.169612546875Q24.039479375,3.234782546875,23.909139375000002,3.365120546875Q23.909139375000002,3.430290546875,15.828149375,11.446115546875Z" fill="url(#master_svg1_4953_03705)" fill-opacity="1"/></g><g><path d="M0.70882190625,4.472995546875Q2.27288890625,4.538165546875,3.38076890625,4.277495546875C3.70660890625,4.147155546875,4.87965890625,3.886475546875,5.79202890625,3.039274546875Q5.92236890625,2.908935546875,6.05270890625,2.908935546875L8.33362890625,2.908935546875Q8.46396890625,2.908935546875,8.52913890625,2.974104846875Q8.65947890625,3.104443546875,8.65947890625,3.169612546875Q8.65947890625,3.299951546875,8.65947890625,8.513495546875L5.85719890625,11.315775546875Q5.59651890625,11.641625546875,5.59651890625,11.967465546875C5.59651890625,12.358485546875,5.66168890625,12.488825546875,5.92236890625,12.749505546875Q6.18304890625,13.010135546875,8.59430890625,15.486635546875L8.59430890625,18.093435546875Q8.59430890625,19.070935546875,9.18082890625,19.527135546875C9.24599890625,19.592235546875,9.76735890625,20.048435546875,11.13592890625,20.048435546875L11.85272890625,20.048435546875Q12.04832890625,19.983335546875,12.04832890625,20.243935546875Q12.04832890625,20.439435546875,12.04832890625,21.091135546875L0.05712890625,21.091135546875L0.05712890625,20.048435546875Q1.29534890625,20.113635546875,1.75152890625,20.048435546875Q2.14254890625,20.048435546875,2.53355890625,19.918135546875C2.92457890625,19.787835546875,3.18525890625,19.592235546875,3.38076890625,19.136135546875C3.44592890625,18.940635546875,3.57626890625,18.549535546875,3.57626890625,17.832735546875Q3.57626890625,17.115835546874997,3.57626890625,13.010135546875L3.57626890625,7.014605546875Q3.57626890625,6.297735546875,3.18525890625,6.0370655468750005C2.79423890625,5.6460455468749995,2.33805890625,5.515705546875,1.0346689062499999,5.580875546875L0.64365290625,5.580875546875L0.64365290625,4.472995546875L0.70882190625,4.472995546875Z" fill="#DE0515" fill-opacity="1"/></g></g></svg>