<svg xmlns="http://www.w3.org/2000/svg" xmlns:xlink="http://www.w3.org/1999/xlink" fill="none" version="1.1" width="24" height="24" viewBox="0 0 24 24"><defs><clipPath id="master_svg0_5851_03425"><rect x="0" y="0" width="24" height="24" rx="0"/></clipPath></defs><g clip-path="url(#master_svg0_5851_03425)"><g></g><g><path d="M4.973819322998047,12.96552L6.469672322998047,11.46967Q6.521902322998047,11.417437,6.583322322998047,11.376398Q6.644742322998047,11.335359,6.712982322998046,11.30709Q6.781232322998047,11.278822,6.853682322998047,11.264410999999999Q6.926132322998047,11.25,7.000002322998046,11.25Q7.073872322998047,11.25,7.146312322998047,11.264410999999999Q7.218762322998047,11.278822,7.287012322998047,11.30709Q7.355262322998047,11.335359,7.416682322998047,11.376398Q7.478092322998046,11.417437,7.5303323229980474,11.46967L12.530332322998047,16.46967Q12.582562322998047,16.5219,12.623602322998046,16.58332Q12.664642322998047,16.64474,12.692912322998048,16.712989999999998Q12.721172322998047,16.78123,12.735592322998047,16.85368Q12.750002322998046,16.92613,12.750002322998046,17Q12.750002322998046,17.07387,12.735592322998047,17.14632Q12.721172322998047,17.21877,12.692912322998048,17.287010000000002Q12.664642322998047,17.35526,12.623602322998046,17.41668Q12.582562322998047,17.4781,12.530332322998047,17.53033L11.030332322998046,19.03033Q9.789872322998047,20.31187,7.9942023229980474,20.32645Q6.198532322998047,20.34103,4.928754322998047,19.07125Q3.658978322998047,17.801470000000002,3.6735543229980467,16.0058Q3.688104322998047,14.213280000000001,4.973819322998047,12.96552ZM5.173504322998047,16.01798Q5.1829793229980465,14.85075,6.021652322998047,14.03887L6.030332322998047,14.03033L7.000002322998046,13.06066L10.939342322998048,17L9.969672322998047,17.96967Q9.149252322998047,18.81702,7.982022322998047,18.8265Q6.814792322998047,18.83597,5.989412322998047,18.01059Q5.164030322998046,17.185200000000002,5.173504322998047,16.01798Z" fill-rule="evenodd" fill="#000000" fill-opacity="1" style="mix-blend-mode:passthrough"/></g><g><path d="M19.026229999999998,11.034432322998047L17.53033,12.530332322998047Q17.42484,12.635822322998047,17.287010000000002,12.692912322998048Q17.14918,12.750002322998046,17,12.750002322998046Q16.85081,12.750002322998046,16.712989999999998,12.692912322998048Q16.57516,12.635822322998047,16.46967,12.530332322998047L11.46967,7.5303323229980474Q11.417437,7.478092322998046,11.376398,7.416672322998046Q11.335359,7.355262322998047,11.30709,7.287012322998047Q11.278822,7.218762322998047,11.264410999999999,7.1463223229980475Q11.25,7.073872322998047,11.25,7.000002322998046Q11.25,6.926132322998047,11.264410999999999,6.853682322998047Q11.278822,6.781232322998047,11.30709,6.712982322998046Q11.335359,6.644742322998047,11.376398,6.583322322998047Q11.417437,6.521902322998047,11.46967,6.469672322998047L12.96967,4.969670322998047Q14.21013,3.688129322998047,16.0058,3.6735543229980467Q17.801470000000002,3.658978322998047,19.07125,4.9287533229980465Q20.34102,6.198532322998047,20.32645,7.9942023229980474Q20.31189,9.786682322998047,19.026229999999998,11.034432322998047ZM18.8265,7.982022322998047Q18.81702,9.149252322998047,17.97835,9.961132322998047L17.96967,9.969672322998047L17,10.939342322998048L13.06066,7.000002322998046L14.03033,6.030332322998047Q14.85075,5.1829793229980465,16.01798,5.173504322998047Q17.185200000000002,5.164030322998046,18.01059,5.989412322998047Q18.83597,6.814792322998047,18.8265,7.982022322998047Z" fill-rule="evenodd" fill="#000000" fill-opacity="1" style="mix-blend-mode:passthrough"/></g><g><path d="M6.03033,19.03033Q6.13582,18.924841,6.1929099999999995,18.787013Q6.25,18.649184,6.25,18.5Q6.25,18.4261315,6.23559,18.353682Q6.22118,18.281233,6.1929099999999995,18.212987Q6.16464,18.144742,6.1236,18.083322Q6.08256,18.021903000000002,6.03033,17.96967Q5.9780999999999995,17.917437,5.9166799999999995,17.876398000000002Q5.8552599999999995,17.835359,5.78701,17.80709Q5.71877,17.778822,5.646319999999999,17.764411Q5.573869999999999,17.75,5.5,17.75Q5.350820000000001,17.75,5.21299,17.80709Q5.07516,17.864181,4.96967,17.96967L4.96952,17.969824L2.469824,20.46952L2.46967,20.46967Q2.364181,20.57516,2.30709,20.71299Q2.25,20.85082,2.25,21Q2.25,21.07387,2.264411,21.14632Q2.278822,21.21877,2.30709,21.28701Q2.335359,21.35526,2.376398,21.41668Q2.417437,21.4781,2.46967,21.53033Q2.521903,21.58256,2.583322,21.6236Q2.644742,21.66464,2.712987,21.69291Q2.781233,21.72118,2.853682,21.735590000000002Q2.9261315,21.75,3,21.75Q3.149184,21.75,3.287013,21.69291Q3.424841,21.63582,3.53033,21.53033L3.530625,21.53004L6.03033,19.03033L6.03033,19.03033Z" fill-rule="evenodd" fill="#000000" fill-opacity="1" style="mix-blend-mode:passthrough"/></g><g><path d="M21.53033,3.53033Q21.63582,3.424841,21.69291,3.287013Q21.75,3.149184,21.75,3Q21.75,2.9261315,21.735590000000002,2.853682Q21.72118,2.781233,21.69291,2.712987Q21.66464,2.644742,21.6236,2.583322Q21.58256,2.521903,21.53033,2.46967Q21.4781,2.417437,21.41668,2.376398Q21.35526,2.335359,21.28701,2.30709Q21.21877,2.278822,21.14632,2.264411Q21.07387,2.25,21,2.25Q20.85082,2.25,20.71299,2.30709Q20.57516,2.364181,20.46967,2.46967L20.46952,2.469824L17.969824,4.96952L17.96967,4.96967Q17.864181,5.07516,17.80709,5.21299Q17.75,5.350820000000001,17.75,5.5Q17.75,5.573869999999999,17.764411,5.646319999999999Q17.778822,5.71877,17.80709,5.78701Q17.835359,5.8552599999999995,17.876398000000002,5.9166799999999995Q17.917437,5.9780999999999995,17.96967,6.03033Q18.021903000000002,6.08256,18.083322,6.1236Q18.144742,6.16464,18.212987,6.1929099999999995Q18.281233,6.22118,18.353682,6.23559Q18.4261315,6.25,18.5,6.25Q18.649184,6.25,18.787013,6.1929099999999995Q18.924841,6.13582,19.03033,6.03033L19.030625,6.03004L21.53033,3.53033L21.53033,3.53033Z" fill-rule="evenodd" fill="#000000" fill-opacity="1" style="mix-blend-mode:passthrough"/></g><g><path d="M10.53033,11.53033Q10.635819999999999,11.424841,10.69291,11.287013Q10.75,11.149184,10.75,11Q10.75,10.9261315,10.73559,10.853682Q10.72118,10.781233,10.69291,10.712987Q10.66464,10.644742,10.6236,10.583322Q10.58256,10.521903,10.53033,10.46967Q10.4781,10.417437,10.41668,10.376398Q10.35526,10.335359,10.28701,10.30709Q10.21877,10.278822,10.14632,10.264410999999999Q10.07387,10.25,10,10.25Q9.85082,10.25,9.71299,10.30709Q9.57516,10.364181,9.46967,10.46967L9.46952,10.469824L7.469824,12.46952L7.46967,12.46967Q7.364181,12.57516,7.30709,12.71299Q7.25,12.85082,7.25,13Q7.25,13.07387,7.264411,13.14632Q7.278822,13.21877,7.30709,13.28701Q7.335359,13.35526,7.376398,13.41668Q7.417437,13.4781,7.46967,13.53033Q7.521903,13.58256,7.583322,13.6236Q7.644742,13.66464,7.712987,13.69291Q7.781233,13.72118,7.853682,13.73559Q7.9261315,13.75,8,13.75Q8.149184,13.75,8.287013,13.69291Q8.424841,13.635819999999999,8.53033,13.53033L10.53033,11.53033Z" fill-rule="evenodd" fill="#000000" fill-opacity="1" style="mix-blend-mode:passthrough"/></g><g><path d="M13.53033,14.53033Q13.635819999999999,14.424841,13.69291,14.287013Q13.75,14.149184,13.75,14Q13.75,13.9261315,13.73559,13.853682Q13.72118,13.781233,13.69291,13.712987Q13.66464,13.644742,13.6236,13.583322Q13.58256,13.521903,13.53033,13.46967Q13.4781,13.417437,13.41668,13.376398Q13.35526,13.335359,13.28701,13.30709Q13.21877,13.278822,13.14632,13.264410999999999Q13.07387,13.25,13,13.25Q12.85082,13.25,12.71299,13.30709Q12.57516,13.364181,12.46967,13.46967L12.46952,13.469824L10.469824,15.46952L10.46967,15.46967Q10.364181,15.57516,10.30709,15.71299Q10.25,15.85082,10.25,16Q10.25,16.07387,10.264410999999999,16.14632Q10.278822,16.21877,10.30709,16.28701Q10.335359,16.35526,10.376398,16.41668Q10.417437,16.4781,10.46967,16.53033Q10.521903,16.58256,10.583322,16.6236Q10.644742,16.66464,10.712987,16.69291Q10.781233,16.72118,10.853682,16.735590000000002Q10.9261315,16.75,11,16.75Q11.149184,16.75,11.287013,16.69291Q11.424841,16.63582,11.53033,16.53033L13.53033,14.53033Z" fill-rule="evenodd" fill="#000000" fill-opacity="1" style="mix-blend-mode:passthrough"/></g></g></svg>