<svg xmlns="http://www.w3.org/2000/svg" xmlns:xlink="http://www.w3.org/1999/xlink" fill="none" version="1.1" width="24.000001907348633" height="24.000001907348633" viewBox="0 0 24.000001907348633 24.000001907348633"><defs><clipPath id="master_svg0_6124_03892"><rect x="0" y="0" width="24.000001907348633" height="24.000001907348633" rx="0"/></clipPath></defs><g clip-path="url(#master_svg0_6124_03892)"><ellipse cx="12" cy="12" rx="10.25" ry="10.25" fill="#669DF6" fill-opacity="1" style="mix-blend-mode:passthrough"/><path d="M20.999998,13.5L20.999998,16.3649998C19.379997,19.700001,15.96,21.999999000000003,11.999999,21.999999000000003C6.4749994,21.999999000000003,2,17.5250006,2,12.0000002C2,10.9549997,2.1600000599999998,9.94999969,2.46000007,9L16.5,9C18.984999,9,20.999998,11.0149999,20.999998,13.5Z" fill="#317BE4" fill-opacity="1" style="mix-blend-mode:passthrough"/><path d="M9.973499799999999,14.1084998C9.7444998,14.4305,9.5560001,14.591000099999999,9.1519998,14.591000099999999C8.78000003,14.591000099999999,8.49549988,14.4675,8.30000001,14.2195003C8.10450012,13.9720004,8.0039999392,13.6099997,8,13.132L8,10.5L9.0000004,10.5L8.995000600000001,13.0985003C8.995000600000001,13.5170004,9.0920007,13.7264998,9.4215008,13.7264998C9.736001,13.7264998,9.882501,13.5999994,10.0005004,13.347499599999999L9.9999996,10.5L11.0000002,10.5L11.0000002,14.5169997L9.999,14.5169997L9.973499799999999,14.1084998Z" fill="#FFFFFF" fill-opacity="1" style="mix-blend-mode:passthrough"/><path d="M13.9889997,11.5595005C13.8764997,11.5405005,13.6524994,11.5305002,13.5669992,11.5305002C13.2539996,11.5305002,13.0489993,11.665000299999999,12.95149934,11.9345005L13.0000004,14.500000499999999L12,14.500000499999999L12,10.5L12.90549958,10.5L12.92849946,11.04300016C13.0945001,10.68099977,13.3244998,10.5,13.617999600000001,10.5C13.7094991,10.5,13.9200001,10.515999757,13.9999996,10.547500305L13.9889997,11.5595005Z" fill="#FFFFFF" fill-opacity="1" style="mix-blend-mode:passthrough"/><path d="M16.0000004,14.501999900000001L15,14.501999900000001L15,9L16.0000004,9L16.0000004,14.501999900000001Z" fill="#FFFFFF" fill-opacity="1" style="mix-blend-mode:passthrough"/><path d="M4.6930002,14.500001000000001L4,13.7490001L5.6140001,12.0000005L4,10.2510007L4.6930002,9.5L7.000000200000001,12.0000005L4.6930002,14.500001000000001Z" fill="#FFFFFF" fill-opacity="1" style="mix-blend-mode:passthrough"/><path d="M19.306999,14.500001000000001L17,12.0000005L19.306999,9.5L20.0000002,10.2510007L18.3859985,12.0000005L20.0000002,13.7490001L19.306999,14.500001000000001Z" fill="#FFFFFF" fill-opacity="1" style="mix-blend-mode:passthrough"/></g></svg>