<svg xmlns="http://www.w3.org/2000/svg" xmlns:xlink="http://www.w3.org/1999/xlink" fill="none" version="1.1" width="24" height="24" viewBox="0 0 24 24"><defs><clipPath id="master_svg0_5732_08075"><rect x="0" y="0" width="24" height="24" rx="0"/></clipPath></defs><g clip-path="url(#master_svg0_5732_08075)"><g></g><g><path d="M3.2791888610229494,3.792808331069946Q3.2195928610229494,4.000143334069946,3.2792658610229495,4.207456331069946L7.177382861022949,17.749998331069946Q7.4785528610229495,19.050098331069947,8.808302861022948,19.233898331069945Q10.13013286102295,19.41659833106995,10.77294286102295,18.261998331069947L12.33446286102295,15.951098331069947L16.59870286102295,20.215298331069945Q17.13080286102295,20.747498331069945,17.883502861022947,20.747498331069945Q18.636102861022948,20.747498331069945,19.16830286102295,20.215298331069945L20.21530286102295,19.16829833106995Q20.747502861022948,18.63619833106995,20.747502861022948,17.883498331069944Q20.747502861022948,17.130798331069947,20.21530286102295,16.598698331069947L15.953102861022948,12.336428331069946L18.28110286102295,10.773468331069946Q19.43690286102295,10.130258331069946,19.25350286102295,8.807608331069947Q19.069102861022948,7.477758331069946,17.768702861022952,7.177298331069946L4.207192861022949,3.2791843310699464Q4.136198861022949,3.258778331069946,4.0625881610229495,3.252614331069946Q3.9889772610229492,3.2464503310699464,3.915578161022949,3.2547653310699465Q3.842178861022949,3.263080331069946,3.771812861022949,3.285555331069946Q3.701445861022949,3.3080293310699465,3.6368158610229493,3.3438003310699465Q3.5721868610229492,3.3795713310699464,3.515776861022949,3.4272633310699465Q3.4593678610229492,3.474955331069946,3.4133458610229495,3.5327363310699464Q3.3673248610229494,3.5905173310699463,3.3334608610229495,3.6561653310699462Q3.299595861022949,3.7218143310699463,3.2791888610229494,3.792808331069946ZM5.095732861022949,5.095318331069946L8.624732861022949,17.355498331069946Q8.63109286102295,17.377598331069947,8.636082861022949,17.399998331069945Q8.70401286102295,17.705198331069944,9.013712861022949,17.747998331069944Q9.323402861022949,17.790798331069947,9.471582861022949,17.515498331069946Q9.489452861022949,17.48229833106995,9.51057286102295,17.451098331069947L11.60057286102295,14.358098331069947Q11.68409286102295,14.234498331069947,11.80856286102295,14.152198331069947Q11.93304286102295,14.069998331069947,12.079502861022949,14.041698331069947Q12.22597286102295,14.013298331069945,12.37213286102295,14.043198331069947Q12.51830286102295,14.072998331069947,12.641912861022949,14.156598331069945Q12.70148286102295,14.196798331069946,12.75233286102295,14.247698331069946L17.65930286102295,19.154698331069945Q17.75220286102295,19.24749833106995,17.883502861022947,19.24749833106995Q18.01480286102295,19.24749833106995,18.10770286102295,19.154698331069945L19.154702861022948,18.107698331069948Q19.24750286102295,18.014798331069947,19.24750286102295,17.883498331069944Q19.24750286102295,17.75219833106995,19.154702861022948,17.659298331069948L14.24770286102295,12.752328331069947Q14.14220286102295,12.646838331069945,14.08510286102295,12.509008331069946Q14.02800286102295,12.371178331069947,14.02800286102295,12.221998331069946Q14.02800286102295,12.072818331069946,14.08510286102295,11.934988331069945Q14.14220286102295,11.797158331069946,14.24770286102295,11.691668331069947Q14.29930286102295,11.640028331069946,14.359902861022949,11.599318331069945L17.47290286102295,9.509318331069945Q17.50320286102295,9.488978331069946,17.53540286102295,9.471678331069946Q17.81070286102295,9.323398331069946,17.767702861022947,9.013668331069947Q17.72480286102295,8.703938331069946,17.41950286102295,8.636178331069946Q17.397002861022948,8.631178331069947,17.37480286102295,8.624808331069946L5.095732861022949,5.095318331069946Z" fill-rule="evenodd" fill="#000000" fill-opacity="1" style="mix-blend-mode:passthrough"/></g></g></svg>