<svg id="图层_1" data-name="图层 1" xmlns="http://www.w3.org/2000/svg" viewBox="0 0 24 24"><path d="M22.07,15h-2V13.26a1.73,1.73,0,0,0-1.74-1.73H12.89V8.74h2a1.58,1.58,0,0,0,1.58-1.58V2.39A1.58,1.58,0,0,0,14.86.81H9.14A1.58,1.58,0,0,0,7.56,2.39V7.16A1.58,1.58,0,0,0,9.14,8.74h2v2.78H5.64a1.74,1.74,0,0,0-1.73,1.74v2h-2A1.58,1.58,0,0,0,.35,16.84v4.77a1.58,1.58,0,0,0,1.58,1.58H7.65a1.58,1.58,0,0,0,1.58-1.58V16.84a1.58,1.58,0,0,0-1.58-1.58h-2v-2H18.31V15h-2a1.58,1.58,0,0,0-1.58,1.58v4.77A1.58,1.58,0,0,0,16.34,23h5.73a1.58,1.58,0,0,0,1.58-1.58V16.62A1.58,1.58,0,0,0,22.07,15ZM14.66,2.59V7H9.34V2.59Zm7.2,14.23v4.37H16.55V16.82ZM2.14,21.41V17H7.45v4.37Z"/></svg>