<svg xmlns="http://www.w3.org/2000/svg" xmlns:xlink="http://www.w3.org/1999/xlink" fill="none" version="1.1" width="24" height="24" viewBox="0 0 24 24"><defs><clipPath id="master_svg0_5732_08080"><rect x="0" y="0" width="24" height="24" rx="0"/></clipPath></defs><g clip-path="url(#master_svg0_5732_08080)"><g><path d="M10.165909980926514,20.045580564575197Q8.963079980926514,19.772748564575195,7.893909980926514,19.157852864575194C7.780149980926514,19.092430964575197,7.6512259809265135,19.058000564575195,7.519999980926514,19.058000564575195C7.105785980926513,19.058000564575195,6.769999980926514,19.393786564575194,6.769999980926514,19.808000564575195C6.769999980926514,20.076400564575195,6.9134259809265135,20.324340564575195,7.146090980926513,20.458150564575195Q8.411029980926514,21.185630564575195,9.834099980926513,21.508420564575196C9.888529980926513,21.520770564575194,9.944179980926513,21.527000564575197,9.999999980926514,21.527000564575197C10.414209980926515,21.527000564575197,10.749999980926514,21.191210564575194,10.749999980926514,20.777000564575197C10.749999980926514,20.426710564575195,10.507519980926514,20.123070564575194,10.165909980926514,20.045580564575197Z" fill-rule="evenodd" fill="#000000" fill-opacity="1" style="mix-blend-mode:passthrough"/></g><g><path d="M19.62106,5.919630049591064Q17.49368,3.2516040495910645,14.16699,2.4918262495910644C14.112208,2.4793150995910644,14.056193,2.4730000495910645,14,2.4730000495910645C13.585786,2.4730000495910645,13.25,2.8087860495910646,13.25,3.2230000495910645C13.25,3.572880049591064,13.491914,3.8762700495910645,13.833007,3.9541700495910646L13.833007,3.9541700495910646Q16.64829,4.5973900495910645,18.44824,6.8547800495910645Q20.24843,9.112470049591064,20.248440000000002,12.000000049591064Q20.248440000000002,14.887500049591065,18.44824,17.145200049591065Q16.64827,19.402600049591065,13.83368,20.045700049591066L13.83368,20.045700049591066C13.491915,20.123700049591065,13.25,20.427100049591065,13.25,20.777000049591063C13.25,21.191200049591064,13.585786,21.527000049591063,14,21.527000049591063C14.056193,21.527000049591063,14.112209,21.520700049591063,14.166992,21.508200049591064L14.166992,21.508200049591064Q17.4939,20.748100049591063,19.62106,18.080400049591063Q21.748440000000002,15.412300049591064,21.748440000000002,12.000000049591064Q21.74843,8.587650049591065,19.62106,5.919630049591064Z" fill-rule="evenodd" fill="#000000" fill-opacity="1" style="mix-blend-mode:passthrough"/></g><g><path d="M2.6315060980926512,14.70929940435791L2.6315060980926512,14.70929940435791Q3.068762998092651,16.22165040435791,3.9611999980926513,17.51823040435791C4.101139998092651,17.72155040435791,4.332169998092652,17.84300040435791,4.578999998092652,17.84300040435791C4.993209998092651,17.84300040435791,5.328999998092652,17.50721040435791,5.328999998092652,17.09300040435791C5.328999998092652,16.94114040435791,5.282899998092651,16.79286040435791,5.196799998092652,16.66777040435791Q4.442149998092651,15.571360404357911,4.072499998092651,14.29270840435791C3.9797399980926516,13.97185540435791,3.6859899980926514,13.75100040435791,3.3519999980926514,13.75100040435791C2.9377859980926515,13.75100040435791,2.6019999980926514,14.08678640435791,2.6019999980926514,14.50100040435791C2.6019999980926514,14.57147240435791,2.6119323380926516,14.64159240435791,2.6315060980926512,14.70929940435791Z" fill-rule="evenodd" fill="#000000" fill-opacity="1" style="mix-blend-mode:passthrough"/></g><g><path d="M4.943000072479248,7.519999980926514C4.943000072479248,7.647174980926514,4.9106600724792475,7.772259980926513,4.849020072479249,7.883499980926514L4.684410072479248,8.180589980926513Q4.080730072479248,9.336339980926514,3.863770072479248,10.623429980926513L3.863590072479248,10.624509980926513C3.802770072479248,10.985619980926515,3.4901500724792482,11.249999980926514,3.124000072479248,11.249999980926514C2.709786072479248,11.249999980926514,2.374000072479248,10.914209980926515,2.374000072479248,10.499999980926514C2.374000072479248,10.458259980926513,2.377484142479248,10.416599980926513,2.384415972479248,10.375439980926513Q2.641646072479248,8.848139980926513,3.359579072479248,7.477084980926514C3.359579072479248,7.477084980926514,3.367977072479248,7.461497980926514,3.367977072479248,7.461497980926514L3.536980072479248,7.156497980926513C3.669130072479248,6.917989980926514,3.9203300724792483,6.769999980926514,4.193000072479248,6.769999980926514C4.607210072479248,6.769999980926514,4.943000072479248,7.105785980926513,4.943000072479248,7.519999980926514Z" fill-rule="evenodd" fill="#000000" fill-opacity="1" style="mix-blend-mode:passthrough"/></g><g><path d="M10.750000064849853,3.2230000495910645C10.750000064849853,3.5731800495910644,10.507670064849854,3.8767500495910645,10.166200064849853,3.9543500495910644Q8.629940064849853,4.303460049591065,7.332270064849854,5.1967700495910645C7.207170064849853,5.282890049591065,7.058876064849853,5.329000049591064,6.9070000648498535,5.329000049591064C6.492786064849853,5.329000049591064,6.1570000648498535,4.993210049591065,6.1570000648498535,4.579000049591064C6.1570000648498535,4.332190049591064,6.278430064849854,4.101180049591065,6.481729064849853,3.961230049591064L6.481729064849853,3.961230049591064Q8.016610064849854,2.9047560495910645,9.832990064849854,2.4918305495910644L9.832990064849854,2.4918305495910644C9.888330064849853,2.4792549595910645,9.944080064849853,2.4730000495910645,10.000000064849853,2.4730000495910645C10.414210064849854,2.4730000495910645,10.750000064849853,2.8087860495910646,10.750000064849853,3.2230000495910645Z" fill-rule="evenodd" fill="#000000" fill-opacity="1" style="mix-blend-mode:passthrough"/></g><g><path d="M12.75,9C12.75,9.148069,12.70617,9.29282,12.62404,9.41603L11.40139,11.25L14,11.25C14.14807,11.25,14.292819999999999,11.29383,14.41603,11.37596C14.760670000000001,11.60573,14.8538,12.07138,14.62404,12.41603L12.62404,15.41603C12.48494,15.62467,12.25076,15.75,12,15.75C11.58579,15.75,11.25,15.41421,11.25,15C11.25,14.85193,11.29383,14.707180000000001,11.37596,14.58397L12.59861,12.75L10,12.75C9.585786,12.75,9.25,12.41421,9.25,12C9.25,11.85193,9.2938285,11.707180000000001,9.375962,11.58397L11.37596,8.583975C11.51506,8.375326,11.74924,8.25,12,8.25C12.41421,8.25,12.75,8.585786,12.75,9Z" fill-rule="evenodd" fill="#000000" fill-opacity="1" style="mix-blend-mode:passthrough"/></g></g></svg>