<svg xmlns="http://www.w3.org/2000/svg" xmlns:xlink="http://www.w3.org/1999/xlink" fill="none" version="1.1" width="24" height="24" viewBox="0 0 24 24"><defs><clipPath id="master_svg0_209_13567"><rect x="0" y="0" width="24" height="24" rx="0"/></clipPath></defs><g clip-path="url(#master_svg0_209_13567)"><g><path d="M5,17.75L8,17.75Q8.07387,17.75,8.14632,17.735590000000002Q8.21877,17.72118,8.28701,17.692909999999998Q8.355260000000001,17.66464,8.41668,17.6236Q8.478100000000001,17.58256,8.53033,17.53033Q8.58256,17.478099999999998,8.6236,17.41668Q8.66464,17.35526,8.692910000000001,17.287010000000002Q8.72118,17.21877,8.73559,17.14632Q8.75,17.07387,8.75,17Q8.75,16.92613,8.73559,16.85368Q8.72118,16.78123,8.692910000000001,16.712989999999998Q8.66464,16.64474,8.6236,16.58332Q8.58256,16.5219,8.53033,16.46967Q8.478100000000001,16.41744,8.41668,16.3764Q8.355260000000001,16.33536,8.28701,16.30709Q8.21877,16.27882,8.14632,16.264409999999998Q8.07387,16.25,8,16.25L5,16.25Q4.4822299999999995,16.25,4.1161200000000004,15.883880000000001Q3.75,15.517769999999999,3.75,15L3.75,11Q3.75,10.48223,4.1161200000000004,10.11612Q4.4822299999999995,9.75,5,9.75L12,9.75Q12.07387,9.75,12.14632,9.735589000000001Q12.21877,9.721178,12.28701,9.69291Q12.35526,9.664641,12.41668,9.623602Q12.4781,9.582563,12.53033,9.53033Q12.58256,9.478097,12.6236,9.416678Q12.66464,9.355258,12.69291,9.287013Q12.72118,9.218767,12.73559,9.146318Q12.75,9.0738685,12.75,9Q12.75,8.9261315,12.73559,8.853682Q12.72118,8.781233,12.69291,8.712987Q12.66464,8.644742,12.6236,8.583322Q12.58256,8.521903,12.53033,8.46967Q12.4781,8.417437,12.41668,8.376398Q12.35526,8.335359,12.28701,8.30709Q12.21877,8.278822,12.14632,8.264410999999999Q12.07387,8.25,12,8.25L5,8.25Q3.860913,8.25,3.0554564,9.0554564Q2.25,9.860913,2.25,11L2.25,15Q2.25,16.13909,3.0554565,16.94454Q3.860912,17.75,5,17.75Z" fill-rule="evenodd" fill="#231F2E" fill-opacity="1"/></g><g><path d="M19,6.25L16,6.25Q15.92613,6.25,15.85368,6.264411Q15.78123,6.278822,15.71299,6.30709Q15.64474,6.335359,15.58332,6.376398Q15.5219,6.417437,15.46967,6.46967Q15.41744,6.521903,15.3764,6.583322Q15.33536,6.644742,15.30709,6.712987Q15.27882,6.781233,15.26441,6.853682Q15.25,6.9261315,15.25,7Q15.25,7.0738685,15.26441,7.146318Q15.27882,7.218767,15.30709,7.287013Q15.33536,7.355258,15.3764,7.416678Q15.41744,7.478097,15.46967,7.53033Q15.5219,7.582563,15.58332,7.623602Q15.64474,7.664641,15.71299,7.69291Q15.78123,7.721178,15.85368,7.735589Q15.92613,7.75,16,7.75L19,7.75Q19.51777,7.75,19.88388,8.11612Q20.25,8.48223,20.25,9L20.25,13Q20.25,13.517769999999999,19.88388,13.883880000000001Q19.51777,14.25,19,14.25L12,14.25Q11.9261315,14.25,11.853682,14.26441Q11.781233,14.27882,11.712987,14.307089999999999Q11.644742,14.33536,11.583322,14.3764Q11.521903,14.41744,11.46967,14.46967Q11.417437,14.521899999999999,11.376398,14.58332Q11.335359,14.644739999999999,11.30709,14.71299Q11.278822,14.78123,11.264410999999999,14.85368Q11.25,14.92613,11.25,15Q11.25,15.07387,11.264410999999999,15.14632Q11.278822,15.21877,11.30709,15.28701Q11.335359,15.35526,11.376398,15.41668Q11.417437,15.4781,11.46967,15.53033Q11.521903,15.58256,11.583322,15.6236Q11.644742,15.66464,11.712987,15.69291Q11.781233,15.72118,11.853682,15.73559Q11.9261315,15.75,12,15.75L19,15.75Q20.13909,15.75,20.94454,14.94454Q21.75,14.13909,21.75,13L21.75,9Q21.75,7.860913,20.94454,7.0554565Q20.13909,6.25,19,6.25Z" fill-rule="evenodd" fill="#231F2E" fill-opacity="1"/></g><g><path d="M16.75,19L16.75,15Q16.75,14.9261,16.735590000000002,14.8537Q16.72118,14.7812,16.692909999999998,14.713Q16.66464,14.6447,16.6236,14.5833Q16.58256,14.5219,16.53033,14.4697Q16.478099999999998,14.4174,16.41668,14.3764Q16.35526,14.3354,16.287010000000002,14.3071Q16.21877,14.2788,16.14632,14.2644Q16.07387,14.25,16,14.25Q15.92613,14.25,15.85368,14.2644Q15.78123,14.2788,15.71299,14.3071Q15.644739999999999,14.3354,15.58332,14.3764Q15.521899999999999,14.4174,15.46967,14.4697Q15.41744,14.5219,15.3764,14.5833Q15.33536,14.6447,15.307089999999999,14.713Q15.27882,14.7812,15.26441,14.8537Q15.25,14.9261,15.25,15L15.25,19Q15.25,19.5178,14.883880000000001,19.8839Q14.517769999999999,20.25,14,20.25L10,20.25Q9.48223,20.25,9.11612,19.8839Q8.75,19.5178,8.75,19L8.75,14Q8.75,13.4822,9.11612,13.1161Q9.48223,12.75,10,12.75L14,12.75Q15.13909,12.75,15.94454,11.94454Q16.75,11.13909,16.75,10L16.75,5Q16.75,3.860913,15.94454,3.0554564Q15.13909,2.25,14,2.25L10,2.25Q8.860913,2.25,8.0554564,3.0554564Q7.25,3.860913,7.25,5L7.25,9Q7.25,9.07387,7.264411,9.14632Q7.278822,9.21877,7.30709,9.28701Q7.335359,9.355260000000001,7.376398,9.41668Q7.417437,9.478100000000001,7.46967,9.53033Q7.521903,9.58256,7.583322,9.6236Q7.644742,9.66464,7.712987,9.692910000000001Q7.781233,9.72118,7.853682,9.73559Q7.9261315,9.75,8,9.75Q8.0738685,9.75,8.146318,9.73559Q8.218767,9.72118,8.287013,9.692910000000001Q8.355258,9.66464,8.416678,9.6236Q8.478097,9.58256,8.53033,9.53033Q8.582563,9.478100000000001,8.623602,9.41668Q8.664641,9.355260000000001,8.69291,9.28701Q8.721178,9.21877,8.735589000000001,9.14632Q8.75,9.07387,8.75,9L8.75,5Q8.75,4.4822299999999995,9.11612,4.1161200000000004Q9.48223,3.75,10,3.75L14,3.75Q14.517769999999999,3.75,14.883880000000001,4.1161200000000004Q15.25,4.4822299999999995,15.25,5L15.25,10Q15.25,10.517769999999999,14.883880000000001,10.883880000000001Q14.517769999999999,11.25,14,11.25L10,11.25Q8.860914,11.25,8.0554564,12.05546Q7.25,12.86091,7.25,14L7.25,19Q7.25,20.1391,8.0554565,20.9445Q8.860912,21.75,10,21.75L14,21.75Q15.13909,21.75,15.94454,20.9445Q16.75,20.1391,16.75,19Z" fill-rule="evenodd" fill="#231F2E" fill-opacity="1"/></g><g><path d="M11.75,6L11.75,6.0100002L11.749933,6.0100002Q11.748957,6.0832312,11.733832,6.15489Q11.718707,6.226549,11.690005,6.293928Q11.661303,6.361307,11.620108,6.42186Q11.578913,6.482414,11.526783,6.533854Q11.474652,6.585294,11.413554,6.625678Q11.352457,6.666061,11.284701,6.693862Q11.216945,6.721664,11.145091,6.735832Q11.0732375,6.75,11,6.75Q10.9267625,6.75,10.854909,6.735832Q10.783055,6.721664,10.715299,6.693862Q10.647543,6.666061,10.586446,6.625678Q10.525348,6.585294,10.473217,6.533854Q10.421087,6.482414,10.379892,6.42186Q10.338697,6.361307,10.309995,6.293928Q10.281293,6.226549,10.266168,6.15489Q10.251043,6.0832312,10.250067,6.0100002L10.25,6.0100002L10.250017,6.00500011L10.25,6Q10.25,5.9261315,10.264410999999999,5.853682Q10.278822,5.781233,10.30709,5.712987Q10.335359,5.644742,10.376398,5.583322Q10.417437,5.521903,10.46967,5.46967Q10.521903,5.417437,10.583322,5.376398Q10.644742,5.335359,10.712987,5.30709Q10.781233,5.278822,10.853682,5.264411Q10.9261315,5.25,11,5.25Q11.0738685,5.25,11.146318,5.264411Q11.218767,5.278822,11.287013,5.30709Q11.355258,5.335359,11.416678,5.376398Q11.478097,5.417437,11.53033,5.46967Q11.582563,5.521903,11.623602,5.583322Q11.664641,5.644742,11.69291,5.712987Q11.721178,5.781233,11.735589000000001,5.853682Q11.75,5.9261315,11.75,6ZM10.25,6.0100002L10.25,6L11.749983,6.00500011L11.75,6.0100002Q11.75,6.0838688,11.735589000000001,6.156318Q11.721178,6.228767,11.69291,6.297013Q11.664641,6.365258,11.623602,6.426678Q11.582563,6.488097,11.53033,6.54033Q11.478097,6.592563,11.416678,6.633602Q11.355258,6.674641,11.287013,6.70291Q11.218767,6.731178,11.146318,6.745589Q11.0738685,6.76,11,6.76Q10.9261315,6.76,10.853682,6.745589Q10.781233,6.731178,10.712987,6.70291Q10.644742,6.674642,10.583322,6.633602Q10.521903,6.592563,10.46967,6.54033Q10.417437,6.488097,10.376398,6.426678Q10.335359,6.365258,10.30709,6.297013Q10.278822,6.228767,10.264410999999999,6.156318Q10.25,6.0838688,10.25,6.0100002Z" fill-rule="evenodd" fill="#231F2E" fill-opacity="1"/></g><g><path d="M13.75,18L13.75,18.0100002L13.749933,18.0100002Q13.748957,18.0832312,13.733832,18.15489Q13.718707,18.226549,13.690005,18.293928Q13.661303,18.361307,13.620108,18.42186Q13.578913,18.482414,13.526783,18.533854Q13.474652,18.585294,13.413554,18.625678Q13.352457,18.666061,13.284701,18.693862Q13.216945,18.721664,13.145091,18.735832Q13.0732375,18.75,13,18.75Q12.9267625,18.75,12.854909,18.735832Q12.783055,18.721664,12.715299,18.693862Q12.647543,18.666061,12.586446,18.625678Q12.525348,18.585294,12.473217,18.533854Q12.421087,18.482414,12.379892,18.42186Q12.338697,18.361307,12.309995,18.293928Q12.281293,18.226549,12.266168,18.15489Q12.251043,18.0832312,12.250067,18.0100002L12.25,18.0100002L12.250017,18.00500011L12.25,18Q12.25,17.9261315,12.264410999999999,17.853682Q12.278822,17.781233,12.30709,17.712987Q12.335359,17.644742,12.376398,17.583322Q12.417437,17.521903000000002,12.46967,17.46967Q12.521903,17.417437,12.583322,17.376398000000002Q12.644742,17.335359,12.712987,17.30709Q12.781233,17.278822,12.853682,17.264411Q12.9261315,17.25,13,17.25Q13.0738685,17.25,13.146318,17.264411Q13.218767,17.278822,13.287013,17.30709Q13.355258,17.335359,13.416678,17.376398000000002Q13.478097,17.417437,13.53033,17.46967Q13.582563,17.521903000000002,13.623602,17.583322Q13.664641,17.644742,13.69291,17.712987Q13.721178,17.781233,13.735589000000001,17.853682Q13.75,17.9261315,13.75,18ZM12.25,18.0100002L12.25,18L13.749983,18.00500011L13.75,18.0100002Q13.75,18.0838688,13.735589000000001,18.156318Q13.721178,18.228767,13.69291,18.297013Q13.664641,18.365258,13.623602,18.426678Q13.582563,18.488097,13.53033,18.54033Q13.478097,18.592563,13.416678,18.633602Q13.355258,18.674641,13.287013,18.70291Q13.218767,18.731178,13.146318,18.745589Q13.0738685,18.76,13,18.76Q12.9261315,18.76,12.853682,18.745589Q12.781233,18.731178,12.712987,18.70291Q12.644742,18.674642,12.583322,18.633602Q12.521903,18.592563,12.46967,18.54033Q12.417437,18.488097,12.376398,18.426678Q12.335359,18.365258,12.30709,18.297013Q12.278822,18.228767,12.264410999999999,18.156318Q12.25,18.0838688,12.25,18.0100002Z" fill-rule="evenodd" fill="#231F2E" fill-opacity="1"/></g><g><path d="M16,17.5L22,17.5Q22.07369,17.5,22.14703,17.50722Q22.22036,17.51445,22.29263,17.52882Q22.364910000000002,17.5432,22.43543,17.56459Q22.50594,17.58598,22.57402,17.61418Q22.64211,17.64238,22.70709,17.67712Q22.77208,17.71186,22.83335,17.7528Q22.89463,17.79374,22.95159,17.84048Q23.00855,17.88723,23.06066,17.93934Q23.11277,17.99145,23.15952,18.04841Q23.20626,18.105373,23.2472,18.166645Q23.28814,18.227916,23.322879999999998,18.292905Q23.35762,18.357894,23.38582,18.425975Q23.41402,18.494056,23.43541,18.564573Q23.4568,18.63509,23.47118,18.707365Q23.48555,18.779639,23.49278,18.852974Q23.5,18.9263097,23.5,19Q23.5,19.0736903,23.49278,19.147026Q23.48555,19.220361,23.47118,19.292635Q23.4568,19.36491,23.43541,19.435427Q23.41402,19.505944,23.38582,19.574025Q23.35762,19.642106,23.322879999999998,19.707095Q23.28814,19.772084,23.2472,19.833355Q23.20626,19.894627,23.15952,19.95159Q23.11277,20.00855,23.06066,20.06066Q23.00855,20.11277,22.95159,20.15952Q22.89463,20.20626,22.83335,20.2472Q22.77208,20.28814,22.70709,20.32288Q22.64211,20.35762,22.57402,20.38582Q22.50594,20.41402,22.43543,20.43541Q22.364910000000002,20.4568,22.29263,20.47118Q22.22036,20.48555,22.14703,20.49278Q22.07369,20.5,22,20.5L16,20.5Q15.9263097,20.5,15.852974,20.49278Q15.779639,20.48555,15.707365,20.47118Q15.63509,20.4568,15.564573,20.43541Q15.494056,20.41402,15.425975,20.38582Q15.357894,20.35762,15.292905,20.32288Q15.227916,20.28814,15.166645,20.2472Q15.105373,20.20626,15.04841,20.15952Q14.99145,20.11277,14.93934,20.06066Q14.88723,20.00855,14.84048,19.95159Q14.79374,19.894627,14.7528,19.833355Q14.71186,19.772084,14.67712,19.707095Q14.64238,19.642106,14.61418,19.574025Q14.58598,19.505944,14.564589999999999,19.435427Q14.5432,19.36491,14.52882,19.292635Q14.51445,19.220361,14.50722,19.147026Q14.5,19.0736903,14.5,19Q14.5,18.9263097,14.50722,18.852974Q14.51445,18.779639,14.52882,18.707365Q14.5432,18.63509,14.564589999999999,18.564573Q14.58598,18.494056,14.61418,18.425975Q14.64238,18.357894,14.67712,18.292905Q14.71186,18.227916,14.7528,18.166645Q14.79374,18.105373,14.84048,18.04841Q14.88723,17.99145,14.93934,17.93934Q14.99145,17.88723,15.04841,17.84048Q15.105373,17.79374,15.166645,17.7528Q15.227916,17.71186,15.292905,17.67712Q15.357894,17.64238,15.425975,17.61418Q15.494056,17.58598,15.564573,17.56459Q15.63509,17.5432,15.707365,17.52882Q15.779639,17.51445,15.852974,17.50722Q15.9263097,17.5,16,17.5Z" fill-rule="evenodd" fill="#FFFFFF" fill-opacity="1" style="mix-blend-mode:passthrough"/></g><g><path d="M17.5,16Q17.5,15.9263097,17.50722,15.852974Q17.51445,15.779639,17.52882,15.707365Q17.5432,15.63509,17.56459,15.564573Q17.58598,15.494056,17.61418,15.425975Q17.64238,15.357894,17.67712,15.292905Q17.71186,15.227916,17.7528,15.166645Q17.79374,15.105373,17.84048,15.04841Q17.88723,14.99145,17.93934,14.93934Q17.99145,14.88723,18.04841,14.84048Q18.105373,14.79374,18.166645,14.7528Q18.227916,14.71186,18.292905,14.67712Q18.357894,14.64238,18.425975,14.61418Q18.494056,14.58598,18.564573,14.564589999999999Q18.63509,14.5432,18.707365,14.52882Q18.779639,14.51445,18.852974,14.50722Q18.9263097,14.5,19,14.5Q19.0736903,14.5,19.147026,14.50722Q19.220361,14.51445,19.292635,14.52882Q19.36491,14.5432,19.435427,14.564589999999999Q19.505944,14.58598,19.574025,14.61418Q19.642106,14.64238,19.707095,14.67712Q19.772084,14.71186,19.833355,14.7528Q19.894627,14.79374,19.95159,14.84048Q20.00855,14.88723,20.06066,14.93934Q20.11277,14.99145,20.15952,15.04841Q20.20626,15.105373,20.2472,15.166645Q20.28814,15.227916,20.32288,15.292905Q20.35762,15.357894,20.38582,15.425975Q20.41402,15.494056,20.43541,15.564573Q20.4568,15.63509,20.47118,15.707365Q20.48555,15.779639,20.49278,15.852974Q20.5,15.9263097,20.5,16L20.5,22Q20.5,22.07369,20.49278,22.14703Q20.48555,22.22036,20.47118,22.29263Q20.4568,22.364910000000002,20.43541,22.43543Q20.41402,22.50594,20.38582,22.57402Q20.35762,22.64211,20.32288,22.70709Q20.28814,22.77208,20.2472,22.83335Q20.20626,22.89463,20.15952,22.95159Q20.11277,23.00855,20.06066,23.06066Q20.00855,23.11277,19.95159,23.15952Q19.894627,23.20626,19.833355,23.2472Q19.772084,23.28814,19.707095,23.322879999999998Q19.642106,23.35762,19.574025,23.38582Q19.505944,23.41402,19.435427,23.43541Q19.36491,23.4568,19.292635,23.47118Q19.220361,23.48555,19.147026,23.49278Q19.0736903,23.5,19,23.5Q18.9263097,23.5,18.852974,23.49278Q18.779639,23.48555,18.707365,23.47118Q18.63509,23.4568,18.564573,23.43541Q18.494056,23.41402,18.425975,23.38582Q18.357894,23.35762,18.292905,23.322879999999998Q18.227916,23.28814,18.166645,23.2472Q18.105373,23.20626,18.04841,23.15952Q17.99145,23.11277,17.93934,23.06066Q17.88723,23.00855,17.84048,22.95159Q17.79374,22.89463,17.7528,22.83335Q17.71186,22.77208,17.67712,22.70709Q17.64238,22.64211,17.61418,22.57402Q17.58598,22.50594,17.56459,22.43543Q17.5432,22.364910000000002,17.52882,22.29263Q17.51445,22.22036,17.50722,22.14703Q17.5,22.07369,17.5,22L17.5,16Z" fill-rule="evenodd" fill="#FFFFFF" fill-opacity="1" style="mix-blend-mode:passthrough"/></g><g><path d="M16,18.25L22,18.25Q22.07387,18.25,22.14632,18.264411Q22.21877,18.278822,22.287010000000002,18.30709Q22.35526,18.335359,22.41668,18.376398000000002Q22.4781,18.417437,22.53033,18.46967Q22.58256,18.521903000000002,22.6236,18.583322Q22.66464,18.644742,22.69291,18.712987Q22.72118,18.781233,22.735590000000002,18.853682Q22.75,18.9261315,22.75,19Q22.75,19.0738685,22.735590000000002,19.146318Q22.72118,19.218767,22.69291,19.287013Q22.66464,19.355258,22.6236,19.416678Q22.58256,19.478096999999998,22.53033,19.53033Q22.4781,19.582563,22.41668,19.623601999999998Q22.35526,19.664641,22.287010000000002,19.69291Q22.21877,19.721178,22.14632,19.735589Q22.07387,19.75,22,19.75L16,19.75Q15.9261315,19.75,15.853682,19.735589Q15.781233,19.721178,15.712987,19.69291Q15.644742,19.664641,15.583322,19.623601999999998Q15.521903,19.582563,15.46967,19.53033Q15.417437,19.478096999999998,15.376398,19.416678Q15.335359,19.355258,15.30709,19.287013Q15.278822,19.218767,15.264410999999999,19.146318Q15.25,19.0738685,15.25,19Q15.25,18.9261315,15.264410999999999,18.853682Q15.278822,18.781233,15.30709,18.712987Q15.335359,18.644742,15.376398,18.583322Q15.417437,18.521903000000002,15.46967,18.46967Q15.521903,18.417437,15.583322,18.376398000000002Q15.644742,18.335359,15.712987,18.30709Q15.781233,18.278822,15.853682,18.264411Q15.9261315,18.25,16,18.25Z" fill-rule="evenodd" fill="#2882FF" fill-opacity="1" style="mix-blend-mode:passthrough"/></g><g><path d="M18.25,16Q18.25,15.9261315,18.264411,15.853682Q18.278822,15.781233,18.30709,15.712987Q18.335359,15.644742,18.376398000000002,15.583322Q18.417437,15.521903,18.46967,15.46967Q18.521903000000002,15.417437,18.583322,15.376398Q18.644742,15.335359,18.712987,15.30709Q18.781233,15.278822,18.853682,15.264410999999999Q18.9261315,15.25,19,15.25Q19.0738685,15.25,19.146318,15.264410999999999Q19.218767,15.278822,19.287013,15.30709Q19.355258,15.335359,19.416678,15.376398Q19.478096999999998,15.417437,19.53033,15.46967Q19.582563,15.521903,19.623601999999998,15.583322Q19.664641,15.644742,19.69291,15.712987Q19.721178,15.781233,19.735589,15.853682Q19.75,15.9261315,19.75,16L19.75,22Q19.75,22.07387,19.735589,22.14632Q19.721178,22.21877,19.69291,22.287010000000002Q19.664641,22.35526,19.623601999999998,22.41668Q19.582563,22.4781,19.53033,22.53033Q19.478096999999998,22.58256,19.416678,22.6236Q19.355258,22.66464,19.287013,22.69291Q19.218767,22.72118,19.146318,22.735590000000002Q19.0738685,22.75,19,22.75Q18.9261315,22.75,18.853682,22.735590000000002Q18.781233,22.72118,18.712987,22.69291Q18.644742,22.66464,18.583322,22.6236Q18.521903000000002,22.58256,18.46967,22.53033Q18.417437,22.4781,18.376398000000002,22.41668Q18.335359,22.35526,18.30709,22.287010000000002Q18.278822,22.21877,18.264411,22.14632Q18.25,22.07387,18.25,22L18.25,16Z" fill-rule="evenodd" fill="#2882FF" fill-opacity="1" style="mix-blend-mode:passthrough"/></g></g></svg>