<svg xmlns="http://www.w3.org/2000/svg" xmlns:xlink="http://www.w3.org/1999/xlink" fill="none" version="1.1" width="24" height="24" viewBox="0 0 24 24"><defs><clipPath id="master_svg0_6073_02846"><rect x="0" y="0" width="24" height="24" rx="0"/></clipPath></defs><g clip-path="url(#master_svg0_6073_02846)"><g><path d="M5,17.75L8,17.75Q8.0738688,17.75,8.1463175,17.7355881Q8.218766200000001,17.7211761,8.2870121,17.6929083Q8.3552575,17.6646404,8.416677,17.6236019Q8.4780965,17.5825624,8.5303297,17.5303297Q8.5825624,17.478096,8.6236019,17.4166775Q8.6646414,17.355257,8.692909199999999,17.2870121Q8.7211781,17.218766199999997,8.735589000000001,17.146316499999998Q8.75,17.073867800000002,8.75,17Q8.75,16.9261312,8.735589000000001,16.8536816Q8.7211781,16.7812319,8.692909700000001,16.7129865Q8.6646414,16.6447411,8.6236019,16.583321599999998Q8.5825624,16.5219021,8.5303297,16.4696693Q8.4780965,16.4174361,8.416677,16.3763971Q8.3552575,16.3353577,8.2870121,16.3070898Q8.218766200000001,16.2788219,8.1463175,16.264411Q8.0738688,16.25,8,16.25L5,16.25Q4.4822326,16.25,4.1161165,15.883884Q3.75,15.5177674,3.75,15L3.75,11Q3.75,10.482233,4.1161165,10.1161165Q4.482233,9.75,5,9.75L12,9.75Q12.0738678,9.75,12.1463165,9.73558891Q12.2187653,9.72117788,12.2870111,9.6929096Q12.355257,9.66464132,12.4166756,9.62360215Q12.478096,9.58256298,12.5303288,9.53033006Q12.5825615,9.47809708,12.623601,9.41667762Q12.6646404,9.35525817,12.6929083,9.28701252Q12.7211761,9.21876688,12.7355881,9.14631772Q12.75,9.073868543,12.75,9Q12.75,8.926131457,12.7355881,8.85368228Q12.7211761,8.78123312,12.6929083,8.71298748Q12.6646404,8.64474183,12.6236,8.58332238Q12.5825615,8.52190292,12.5303288,8.46966994Q12.478096,8.41743702,12.4166756,8.37639785Q12.355257,8.33535868,12.2870111,8.3070904Q12.2187653,8.27882212,12.1463165,8.26441109Q12.0738678,8.25,12,8.25L5,8.25Q3.8609128,8.25,3.0554564,9.0554564Q2.25,9.86091292,2.25,11L2.25,15Q2.25,16.1390882,3.05545646,16.9445443Q3.86091256,17.75,5,17.75Z" fill-rule="evenodd" fill="#231F2E" fill-opacity="1"/></g><g><path d="M19,6.25L16,6.25Q15.9261312,6.25,15.853682,6.26441109Q15.7812326,6.27882212,15.7129869,6.3070904Q15.6447415,6.33535868,15.583321999999999,6.37639785Q15.5219026,6.41743702,15.4696698,6.46966994Q15.4174368,6.52190292,15.3763976,6.58332238Q15.3353586,6.64474183,15.30709,6.71298748Q15.2788219,6.78123312,15.264410699999999,6.85368228Q15.25,6.926131457,15.25,7Q15.25,7.073868543,15.264410699999999,7.14631772Q15.2788219,7.21876688,15.30709,7.28701252Q15.3353586,7.35525817,15.3763976,7.41667762Q15.4174368,7.47809708,15.4696698,7.53033006Q15.5219026,7.58256298,15.583322299999999,7.62360215Q15.6447415,7.66464132,15.7129872,7.6929096Q15.7812328,7.72117788,15.853682,7.73558891Q15.9261312,7.75,16,7.75L19,7.75Q19.5177674,7.75,19.883884000000002,8.1161165Q20.25,8.4822327,20.25,9L20.25,13Q20.25,13.5177674,19.883884000000002,13.8838835Q19.5177674,14.25,19,14.25L12,14.25Q11.926131457,14.25,11.85368228,14.264410999999999Q11.78123312,14.2788219,11.71298748,14.3070898Q11.64474183,14.3353577,11.58332238,14.3763971Q11.52190292,14.4174361,11.46966994,14.4696693Q11.41743702,14.5219021,11.37639785,14.5833216Q11.33535868,14.644741100000001,11.3070904,14.7129865Q11.27882212,14.7812319,11.26441109,14.8536816Q11.25,14.9261312,11.25,15Q11.25,15.0738678,11.26441109,15.1463165Q11.27882212,15.2187653,11.3070904,15.2870111Q11.33535868,15.355257,11.37639785,15.4166765Q11.41743702,15.478096,11.46966994,15.5303297Q11.52190292,15.5825624,11.58332238,15.623601Q11.64474183,15.6646404,11.71298748,15.6929083Q11.78123312,15.7211761,11.85368228,15.7355881Q11.926131457,15.75,12,15.75L19,15.75Q20.139087699999997,15.75,20.944543799999998,14.9445438Q21.75,14.139087199999999,21.75,13L21.75,9Q21.75,7.86091286,20.944543799999998,7.05545646Q20.139087699999997,6.25,19,6.25Z" fill-rule="evenodd" fill="#231F2E" fill-opacity="1"/></g><g><path d="M16.75,19L16.75,15Q16.75,14.92613,16.7355881,14.853682Q16.7211761,14.781232,16.6929083,14.712986Q16.6646404,14.64474,16.6236019,14.583321Q16.5825624,14.521902,16.5303297,14.469669Q16.478096,14.417437,16.4166775,14.376397Q16.355257,14.335358,16.2870121,14.30709Q16.218766199999997,14.278822,16.146316499999998,14.264411Q16.073867800000002,14.25,16,14.25Q15.9261312,14.25,15.8536816,14.264411Q15.7812319,14.278822,15.7129865,14.307089Q15.644741100000001,14.335358,15.5833216,14.376397Q15.5219021,14.417437,15.4696693,14.469669Q15.4174361,14.521902,15.3763971,14.583321Q15.3353577,14.64474,15.3070898,14.712986Q15.2788219,14.781232,15.264410999999999,14.853681Q15.25,14.92613,15.25,15L15.25,19Q15.25,19.517767,14.8838835,19.883883Q14.517766,20.25,14,20.25L10,20.25Q9.4822341,20.25,9.1161165,19.883883Q8.75,19.517767,8.75,19L8.75,14Q8.75,13.482233,9.1161165,13.116117Q9.482233,12.75,10,12.75L14,12.75Q15.1390867,12.75,15.9445438,11.9445429Q16.75,11.1390867,16.75,10L16.75,5Q16.75,3.86091268,15.9445438,3.0554564Q15.139087700000001,2.25,14,2.25L10,2.25Q8.86091292,2.25,8.0554564,3.0554564Q7.25,3.8609128,7.25,5L7.25,9Q7.25,9.0738683,7.26441109,9.1463175Q7.27882212,9.218766200000001,7.3070904,9.2870121Q7.33535868,9.3552575,7.37639785,9.416677Q7.41743702,9.4780965,7.46966994,9.5303297Q7.52190292,9.5825624,7.58332238,9.6236014Q7.64474183,9.6646404,7.71298748,9.6929088Q7.78123312,9.7211771,7.85368228,9.735588100000001Q7.926131457,9.749999500000001,8,9.75Q8.073868543,9.749999500000001,8.14631772,9.735588100000001Q8.21876688,9.7211771,8.28701252,9.6929088Q8.35525817,9.6646404,8.41667762,9.6236014Q8.47809708,9.5825624,8.53033006,9.5303297Q8.58256298,9.4780965,8.62360215,9.416677Q8.66464132,9.3552575,8.6929096,9.2870121Q8.72117788,9.218766200000001,8.73558891,9.146317Q8.75,9.0738683,8.75,9L8.75,5Q8.75,4.482233,9.1161165,4.1161165Q9.482233,3.75,10,3.75L14,3.75Q14.517767,3.75,14.8838835,4.1161165Q15.25,4.482233,15.25,5L15.25,10Q15.25,10.5177665,14.8838835,10.883883Q14.5177665,11.25,14,11.25L10,11.25Q8.86091352,11.25,8.0554564,12.0554571Q7.25,12.8609133,7.25,14L7.25,19Q7.25,20.139088,8.05545646,20.944544Q8.86091292,21.75,10,21.75L14,21.75Q15.139087700000001,21.75,15.9445438,20.944544Q16.75,20.139088,16.75,19Z" fill-rule="evenodd" fill="#231F2E" fill-opacity="1"/></g><g><ellipse cx="11" cy="6.010009765625" rx="0.75" ry="0.75" fill="#231F2E" fill-opacity="1"/></g><g><ellipse cx="13.0048828125" cy="18.010009765625" rx="0.75" ry="0.75" fill="#231F2E" fill-opacity="1"/></g></g></svg>