<svg xmlns="http://www.w3.org/2000/svg" xmlns:xlink="http://www.w3.org/1999/xlink" fill="none" version="1.1" width="24" height="24" viewBox="0 0 24 24"><defs><clipPath id="master_svg0_6073_02835"><rect x="0" y="0" width="24" height="24" rx="0"/></clipPath></defs><g clip-path="url(#master_svg0_6073_02835)"><g><path d="M5,17.75L8,17.75Q8.0738688,17.75,8.1463175,17.7355881Q8.218766200000001,17.7211761,8.2870121,17.6929083Q8.3552575,17.6646404,8.416677,17.6236019Q8.4780965,17.5825624,8.5303297,17.5303297Q8.5825624,17.478096,8.6236019,17.4166775Q8.6646414,17.355257,8.692909199999999,17.2870121Q8.7211781,17.218766199999997,8.735589000000001,17.146316499999998Q8.75,17.073867800000002,8.75,17Q8.75,16.9261312,8.735589000000001,16.8536816Q8.7211781,16.7812319,8.692909700000001,16.7129865Q8.6646414,16.6447411,8.6236019,16.583321599999998Q8.5825624,16.5219021,8.5303297,16.4696693Q8.4780965,16.4174361,8.416677,16.3763971Q8.3552575,16.3353577,8.2870121,16.3070898Q8.218766200000001,16.2788219,8.1463175,16.264411Q8.0738688,16.25,8,16.25L5,16.25Q4.4822326,16.25,4.1161165,15.883884Q3.75,15.5177674,3.75,15L3.75,11Q3.75,10.482233,4.1161165,10.1161165Q4.482233,9.75,5,9.75L12,9.75Q12.0738678,9.75,12.1463165,9.73558891Q12.2187653,9.72117788,12.2870111,9.6929096Q12.355257,9.66464132,12.4166756,9.62360215Q12.478096,9.58256298,12.5303288,9.53033006Q12.5825615,9.47809708,12.623601,9.41667762Q12.6646404,9.35525817,12.6929083,9.28701252Q12.7211761,9.21876688,12.7355881,9.14631772Q12.75,9.073868543,12.75,9Q12.75,8.926131457,12.7355881,8.85368228Q12.7211761,8.78123312,12.6929083,8.71298748Q12.6646404,8.64474183,12.6236,8.58332238Q12.5825615,8.52190292,12.5303288,8.46966994Q12.478096,8.41743702,12.4166756,8.37639785Q12.355257,8.33535868,12.2870111,8.3070904Q12.2187653,8.27882212,12.1463165,8.26441109Q12.0738678,8.25,12,8.25L5,8.25Q3.8609128,8.25,3.0554564,9.0554564Q2.25,9.86091292,2.25,11L2.25,15Q2.25,16.1390882,3.05545646,16.9445443Q3.86091256,17.75,5,17.75Z" fill-rule="evenodd" fill="#3B82F6" fill-opacity="1"/></g><g><path d="M16,6.25L18.9999995,6.25000012Q20.1390872,6.25,20.944543799999998,7.05545646Q21.75,7.8609124999999995,21.75,9L21.75,13Q21.75,13.0738683,21.735589,13.1463175Q21.7211781,13.218766200000001,21.6929097,13.2870121Q21.6646414,13.3552575,21.6236019,13.416677Q21.5825624,13.4780965,21.5303297,13.5303297Q21.4780965,13.5825624,21.416677,13.6236014Q21.3552575,13.6646404,21.2870121,13.6929088Q21.2187662,13.7211771,21.146317500000002,13.735588100000001Q21.0738688,13.749999500000001,21,13.75Q20.9261312,13.749999500000001,20.853682,13.735588100000001Q20.781232799999998,13.7211771,20.7129869,13.6929088Q20.6447411,13.6646404,20.583321599999998,13.6236014Q20.5219026,13.5825624,20.4696698,13.5303297Q20.417436600000002,13.4780965,20.3763976,13.416677Q20.3353581,13.3552575,20.3070898,13.2870121Q20.2788219,13.218766200000001,20.264411,13.146317Q20.25,13.0738683,20.25,13L20.25,9Q20.25,8.4822328,19.883884000000002,8.1161166Q19.5177674,7.75000012,18.9999995,7.75000018L16,7.75Q15.926131457,7.75,15.85368228,7.73558891Q15.78123312,7.72117788,15.71298748,7.6929096Q15.64474183,7.66464132,15.58332238,7.62360215Q15.52190292,7.58256298,15.46966994,7.53033006Q15.41743702,7.47809708,15.37639785,7.41667762Q15.33535868,7.35525817,15.3070904,7.28701252Q15.27882212,7.21876688,15.26441109,7.14631772Q15.25,7.073868543,15.25,7Q15.25,6.926131457,15.26441109,6.85368228Q15.27882212,6.78123312,15.3070904,6.71298748Q15.33535868,6.64474183,15.37639785,6.58332238Q15.41743702,6.52190292,15.46966994,6.46966994Q15.52190292,6.41743702,15.58332238,6.37639785Q15.64474183,6.33535868,15.71298748,6.3070904Q15.78123312,6.27882212,15.85368228,6.26441109Q15.926131457,6.25,16,6.25Z" fill-rule="evenodd" fill="#3B82F6" fill-opacity="1"/></g><g><path d="M10,21.75L14,21.75Q14.0738683,21.75,14.1463175,21.735588Q14.218766200000001,21.721176,14.2870121,21.692907Q14.3552575,21.664639,14.416677,21.6236Q14.4780965,21.582561,14.5303297,21.530329Q14.5825624,21.478096,14.6236014,21.416676Q14.6646404,21.355255,14.6929088,21.28701Q14.7211771,21.218765,14.735588100000001,21.146317Q14.749999500000001,21.073868,14.75,21Q14.749999500000001,20.926132,14.735588100000001,20.853682Q14.7211771,20.781231,14.6929088,20.712986Q14.6646404,20.644741,14.6236014,20.583321Q14.5825624,20.521902,14.5303297,20.469669Q14.4780965,20.417437,14.416677,20.376396Q14.3552575,20.335358,14.2870121,20.307091Q14.218766200000001,20.278824,14.146317,20.264412Q14.0738683,20.25,14,20.25L10,20.25Q9.4822341,20.25,9.1161165,19.883883Q8.75,19.517767,8.75,19L8.75,14Q8.75,13.482233,9.1161165,13.116117Q9.482233,12.75,10,12.75L14,12.75Q15.1390867,12.75,15.9445438,11.9445429Q16.75,11.1390867,16.75,10L16.75,5Q16.75,3.86091268,15.9445438,3.0554564Q15.139087700000001,2.25,14,2.25L10,2.25Q8.86091292,2.25,8.0554564,3.0554564Q7.25,3.8609128,7.25,5L7.25,9Q7.25,9.0738683,7.26441109,9.1463175Q7.27882212,9.218766200000001,7.3070904,9.2870121Q7.33535868,9.3552575,7.37639785,9.416677Q7.41743702,9.4780965,7.46966994,9.5303297Q7.52190292,9.5825624,7.58332238,9.6236014Q7.64474183,9.6646404,7.71298748,9.6929088Q7.78123312,9.7211771,7.85368228,9.735588100000001Q7.926131457,9.749999500000001,8,9.75Q8.073868543,9.749999500000001,8.14631772,9.735588100000001Q8.21876688,9.7211771,8.28701252,9.6929088Q8.35525817,9.6646404,8.41667762,9.6236014Q8.47809708,9.5825624,8.53033006,9.5303297Q8.58256298,9.4780965,8.62360215,9.416677Q8.66464132,9.3552575,8.6929096,9.2870121Q8.72117788,9.218766200000001,8.73558891,9.146317Q8.75,9.0738683,8.75,9L8.75,5Q8.75,4.482233,9.1161165,4.1161165Q9.482233,3.75,10,3.75L14,3.75Q14.517767,3.75,14.8838835,4.1161165Q15.25,4.482233,15.25,5L15.25,10Q15.25,10.5177665,14.8838835,10.883883Q14.5177665,11.25,14,11.25L10,11.25Q8.86091352,11.25,8.0554564,12.0554571Q7.25,12.8609133,7.25,14L7.25,19Q7.25,20.139088,8.05545646,20.944544Q8.86091292,21.75,10,21.75Z" fill-rule="evenodd" fill="#000000" fill-opacity="1" style="mix-blend-mode:passthrough"/></g><g><path d="M5,8.25L12,8.25Q12.0738683,8.25,12.1463175,8.26441109Q12.218766200000001,8.27882212,12.2870121,8.3070904Q12.3552575,8.33535868,12.416677,8.37639785Q12.4780965,8.41743702,12.5303297,8.46966994Q12.5825624,8.52190292,12.6236014,8.58332238Q12.6646404,8.64474183,12.6929088,8.71298748Q12.7211771,8.78123312,12.735588100000001,8.85368228Q12.749999500000001,8.926131457,12.75,9Q12.749999500000001,9.073868543,12.7355886,9.14631772Q12.7211771,9.21876688,12.6929088,9.28701252Q12.6646404,9.35525817,12.6236019,9.41667762Q12.5825624,9.47809708,12.5303297,9.53033006Q12.4780965,9.58256298,12.416677,9.62360215Q12.3552575,9.66464132,12.2870121,9.6929096Q12.218766200000001,9.72117788,12.1463175,9.73558891Q12.0738683,9.75,12,9.75L5,9.75Q4.926131457,9.75,4.85368228,9.73558891Q4.78123312,9.72117788,4.71298748,9.6929096Q4.64474183,9.66464132,4.58332238,9.62360215Q4.52190292,9.58256298,4.46966994,9.53033006Q4.41743702,9.47809708,4.37639785,9.41667762Q4.33535868,9.35525817,4.3070904,9.28701252Q4.27882212,9.21876688,4.26441109,9.14631772Q4.25,9.073868543,4.25,9Q4.25,8.926131457,4.26441109,8.85368228Q4.27882212,8.78123312,4.3070904,8.71298748Q4.33535868,8.64474183,4.37639785,8.58332238Q4.41743702,8.52190292,4.46966994,8.46966994Q4.52190292,8.41743702,4.58332238,8.37639785Q4.64474183,8.33535868,4.71298748,8.3070904Q4.78123312,8.27882212,4.85368228,8.26441109Q4.926131457,8.25,5,8.25Z" fill-rule="evenodd" fill="#3B82F6" fill-opacity="1"/></g><g><path d="M13.75,18L13.75,18.010000229L13.7499333,18.010000229Q13.7489568,18.083231218,13.73383176,18.15488991Q13.71870673,18.22654858,13.69000471,18.29392755Q13.66130269,18.36130655,13.62010807,18.4218601Q13.57891345,18.48241365,13.52678263,18.53385395Q13.47465178,18.58529431,13.41355431,18.62567794Q13.35245687,18.66606152,13.28470117,18.69386256Q13.21694548,18.72166365,13.1450915,18.73583186Q13.073237509,18.75,13,18.75Q12.926762491,18.75,12.8549085,18.73583186Q12.78305452,18.72166365,12.71529883,18.69386256Q12.64754313,18.66606152,12.58644569,18.62567794Q12.52534822,18.58529437,12.47321737,18.53385401Q12.42108655,18.48241368,12.37989193,18.4218601Q12.33869731,18.36130655,12.30999529,18.29392755Q12.28129327,18.22654858,12.26616824,18.15488991Q12.2510432,18.083231218,12.2500667,18.010000229L12.25,18.010000229L12.25001669,18.0050001144L12.25,18Q12.25,17.926131457,12.26441109,17.85368228Q12.27882212,17.78123312,12.3070904,17.71298748Q12.33535868,17.64474183,12.37639785,17.58332238Q12.41743702,17.52190292,12.46966994,17.46966994Q12.52190292,17.41743702,12.58332238,17.37639785Q12.64474183,17.33535868,12.71298748,17.3070904Q12.78123312,17.27882212,12.85368228,17.26441109Q12.926131457,17.25,13,17.25Q13.073868543,17.25,13.14631772,17.26441109Q13.21876688,17.27882212,13.28701252,17.3070904Q13.35525817,17.33535868,13.41667762,17.37639785Q13.47809708,17.41743702,13.53033006,17.46966994Q13.58256298,17.52190292,13.62360215,17.58332238Q13.66464132,17.64474183,13.6929096,17.71298748Q13.72117788,17.78123312,13.73558891,17.85368228Q13.75,17.926131457,13.75,18ZM12.25,18.010000229L12.25,18L13.74998331,18.0050001144L13.75,18.010000229Q13.75,18.083868772,13.73558891,18.15631795Q13.72117788,18.22876713,13.6929096,18.29701278Q13.66464132,18.3652584,13.62360215,18.42667788Q13.58256298,18.48809734,13.53033006,18.54033029Q13.47809708,18.59256321,13.41667762,18.63360238Q13.35525817,18.67464149,13.28701252,18.70290983Q13.21876688,18.73117805,13.14631772,18.74558914Q13.073868543,18.76000023,13,18.76000023Q12.926131457,18.76000023,12.85368228,18.74558914Q12.78123312,18.73117805,12.71298748,18.70290977Q12.64474183,18.67464149,12.58332238,18.63360232Q12.52190292,18.59256315,12.46966994,18.54033023Q12.41743702,18.48809731,12.37639785,18.42667785Q12.33535868,18.3652584,12.3070904,18.29701278Q12.27882212,18.22876713,12.26441109,18.15631795Q12.25,18.083868772,12.25,18.010000229Z" fill-rule="evenodd" fill="#000000" fill-opacity="1" style="mix-blend-mode:passthrough"/></g><g><g><ellipse cx="18" cy="18" rx="4" ry="4" fill="#000000" fill-opacity="1"/><ellipse cx="18" cy="18" rx="4" ry="4" fill-opacity="0" stroke-opacity="1" stroke="#FFFFFF" fill="none" stroke-width="4"/></g><g><ellipse cx="18" cy="18" rx="4" ry="4" fill="#000000" fill-opacity="1"/><ellipse cx="18" cy="18" rx="4" ry="4" fill-opacity="0" stroke-opacity="1" stroke="#000000" fill="none" stroke-width="1.5"/></g><g><path d="M15.5,17.25L20.5,17.25Q20.5738688,17.25,20.646317500000002,17.26441109Q20.7187662,17.27882212,20.7870121,17.3070904Q20.8552575,17.33535868,20.916677,17.37639785Q20.9780965,17.41743702,21.0303297,17.46966994Q21.0825624,17.52190292,21.1236019,17.58332238Q21.1646414,17.64474183,21.1929092,17.71298748Q21.2211781,17.78123312,21.235589,17.85368228Q21.25,17.926131457,21.25,18Q21.25,18.073868543,21.235589,18.14631772Q21.2211781,18.21876688,21.1929097,18.28701252Q21.1646414,18.35525817,21.1236019,18.41667762Q21.0825624,18.47809708,21.0303297,18.53033006Q20.9780965,18.58256298,20.916677,18.62360215Q20.8552575,18.66464132,20.7870121,18.6929096Q20.7187662,18.72117788,20.646317500000002,18.73558891Q20.5738688,18.75,20.5,18.75L15.5,18.75Q15.426131457,18.75,15.35368228,18.73558891Q15.28123312,18.72117788,15.21298748,18.6929096Q15.14474183,18.66464132,15.08332238,18.62360215Q15.02190292,18.58256298,14.96966994,18.53033006Q14.91743702,18.47809708,14.87639785,18.41667762Q14.83535868,18.35525817,14.8070904,18.28701252Q14.77882212,18.21876688,14.76441109,18.14631772Q14.75,18.073868543,14.75,18Q14.75,17.926131457,14.76441109,17.85368228Q14.77882212,17.78123312,14.8070904,17.71298748Q14.83535868,17.64474183,14.87639785,17.58332238Q14.91743702,17.52190292,14.96966994,17.46966994Q15.02190292,17.41743702,15.08332238,17.37639785Q15.14474183,17.33535868,15.21298748,17.3070904Q15.28123312,17.27882212,15.35368228,17.26441109Q15.426131457,17.25,15.5,17.25Z" fill-rule="evenodd" fill="#FFFFFF" fill-opacity="1" style="mix-blend-mode:passthrough"/></g><g><path d="M17.25,15.5Q17.25,15.426131457,17.26441109,15.35368228Q17.27882212,15.28123312,17.3070904,15.21298748Q17.33535868,15.14474183,17.37639785,15.08332238Q17.41743702,15.02190292,17.46966994,14.96966994Q17.52190292,14.91743702,17.58332238,14.87639785Q17.64474183,14.83535868,17.71298748,14.8070904Q17.78123312,14.77882212,17.85368228,14.76441109Q17.926131457,14.75,18,14.75Q18.073868543,14.75,18.14631772,14.76441109Q18.21876688,14.77882212,18.28701252,14.8070904Q18.35525817,14.83535868,18.41667762,14.87639785Q18.47809708,14.91743702,18.53033006,14.96966994Q18.58256298,15.02190292,18.62360215,15.08332238Q18.66464132,15.14474183,18.6929096,15.21298748Q18.72117788,15.28123312,18.73558891,15.35368228Q18.75,15.426131457,18.75,15.5L18.75,20.5Q18.75,20.5738688,18.73558891,20.646317500000002Q18.72117788,20.7187662,18.6929096,20.7870121Q18.66464132,20.8552575,18.62360215,20.916677Q18.58256298,20.9780965,18.53033006,21.0303297Q18.47809708,21.0825624,18.41667762,21.1236019Q18.35525817,21.1646414,18.28701252,21.1929092Q18.21876688,21.2211781,18.14631772,21.235589Q18.073868543,21.25,18,21.25Q17.926131457,21.25,17.85368228,21.235589Q17.78123312,21.2211781,17.71298748,21.1929097Q17.64474183,21.1646414,17.58332238,21.1236019Q17.52190292,21.0825624,17.46966994,21.0303297Q17.41743702,20.9780965,17.37639785,20.916677Q17.33535868,20.8552575,17.3070904,20.7870121Q17.27882212,20.7187662,17.26441109,20.646317500000002Q17.25,20.5738688,17.25,20.5L17.25,15.5Z" fill-rule="evenodd" fill="#FFFFFF" fill-opacity="1" style="mix-blend-mode:passthrough"/></g></g><g><ellipse cx="11" cy="6" rx="0.75" ry="0.75" fill="#000000" fill-opacity="1"/></g></g></svg>