<svg xmlns="http://www.w3.org/2000/svg" xmlns:xlink="http://www.w3.org/1999/xlink" fill="none" version="1.1" width="24" height="24" viewBox="0 0 24 24"><defs><clipPath id="master_svg0_799_37556"><rect x="0" y="0" width="24" height="24" rx="0"/></clipPath></defs><g clip-path="url(#master_svg0_799_37556)"><g><path d="M2.0950969,16.1846Q2.9111219999999998,18.1139,4.3986,19.6014Q5.8861,21.0889,7.8154,21.9049Q9.81344,22.75,12,22.75Q14.1866,22.75,16.1846,21.9049Q18.1139,21.0889,19.6014,19.6014Q21.0889,18.1139,21.9049,16.1846Q22.75,14.1866,22.75,12Q22.75,9.81344,21.9049,7.8154Q21.0889,5.8861,19.6014,4.3986Q18.1139,2.911121,16.1846,2.0950969Q14.1866,1.25,12,1.25Q9.81343,1.25,7.8154,2.0950966Q5.8861,2.91112,4.3986,4.3986Q2.91112,5.8861,2.0950966,7.8154Q1.25,9.81343,1.25,12Q1.25,14.1866,2.0950969,16.1846ZM8.39973,20.5234Q6.73988,19.8213,5.4592600000000004,18.5407Q4.17866,17.2601,3.4766,15.6003Q2.75,13.8824,2.75,12Q2.75,10.11761,3.4766,8.39973Q4.17866,6.73988,5.4592600000000004,5.4592600000000004Q6.73988,4.17866,8.39973,3.4766Q10.11761,2.75,12,2.75Q13.8824,2.75,15.6003,3.4766Q17.2601,4.17866,18.5407,5.4592600000000004Q19.8213,6.73989,20.5234,8.39973Q21.25,10.11761,21.25,12Q21.25,13.8824,20.5234,15.6003Q19.8213,17.2601,18.5407,18.5407Q17.2601,19.8213,15.6003,20.5234Q13.8824,21.25,12,21.25Q10.11761,21.25,8.39973,20.5234Z" fill-rule="evenodd" fill="#000000" fill-opacity="1"/></g><g><path d="M9.348351,6.660751817871094Q8.25,7.759100817871094,8.25,9.312400817871094Q8.25,9.386270817871093,8.264410999999999,9.458720817871093Q8.278822,9.531170817871093,8.30709,9.599410817871094Q8.335359,9.667660817871093,8.376398,9.729080817871093Q8.417437,9.790500817871093,8.46967,9.842730817871093Q8.521903,9.894960817871095,8.583322,9.936000817871093Q8.644742,9.977040817871094,8.712987,10.005310817871093Q8.781233,10.033580817871094,8.853682,10.047990817871094Q8.9261315,10.062400817871094,9,10.062400817871094Q9.0738685,10.062400817871094,9.146318,10.047990817871094Q9.218767,10.033580817871094,9.287013,10.005310817871093Q9.355258,9.977040817871094,9.416678,9.936000817871093Q9.478097,9.894960817871095,9.53033,9.842730817871093Q9.582563,9.790500817871093,9.623602,9.729080817871093Q9.664641,9.667660817871093,9.69291,9.599410817871094Q9.721178,9.531170817871093,9.735589000000001,9.458720817871093Q9.75,9.386270817871093,9.75,9.312400817871094Q9.75,8.380420817871094,10.40901,7.721410817871094Q11.06802,7.062400817871094,12,7.062400817871094Q12.93198,7.062400817871094,13.59099,7.721410817871094Q14.25,8.380420817871094,14.25,9.312400817871094Q14.25,10.394050817871094,13.40401,11.070740817871094Q12.47488,11.813920817871093,12.03268,12.353560817871093Q11.25,13.308670817871093,11.25,14.312400817871094Q11.25,14.386270817871093,11.26441,14.458720817871093Q11.27882,14.531170817871093,11.30709,14.599410817871094Q11.33536,14.667660817871093,11.3764,14.729080817871093Q11.41744,14.790500817871093,11.46967,14.842730817871093Q11.5219,14.894960817871095,11.58332,14.936000817871093Q11.64474,14.977040817871094,11.71299,15.005310817871093Q11.78123,15.033580817871094,11.85368,15.047990817871094Q11.92613,15.062400817871094,12,15.062400817871094Q12.07387,15.062400817871094,12.14632,15.047990817871094Q12.21877,15.033580817871094,12.28701,15.005310817871093Q12.35526,14.977040817871094,12.41668,14.936000817871093Q12.4781,14.894960817871095,12.53033,14.842730817871093Q12.58256,14.790500817871093,12.6236,14.729080817871093Q12.66464,14.667660817871093,12.69291,14.599410817871094Q12.72118,14.531170817871093,12.73559,14.458720817871093Q12.75,14.386270817871093,12.75,14.312400817871094Q12.75,13.514690817871093,14.34097,12.242110817871094Q15.75,11.115050817871094,15.75,9.312400817871094Q15.75,7.759100817871094,14.65165,6.660751817871094Q13.5533,5.562400817871094,12,5.562400817871094Q10.4467,5.562400817871094,9.348351,6.660751817871094Z" fill-rule="evenodd" fill="#000000" fill-opacity="1"/></g><g><path d="M13.25,17.562400817871094Q13.25,17.623810817871092,13.24398,17.684920817871095Q13.237960000000001,17.746030817871095,13.22598,17.806260817871095Q13.214,17.866490817871092,13.19618,17.925260817871095Q13.17835,17.984020817871095,13.15485,18.040750817871093Q13.13135,18.097490817871094,13.1024,18.151650817871094Q13.07345,18.205800817871093,13.03934,18.256860817871093Q13.00522,18.307920817871093,12.96626,18.355390817871093Q12.92731,18.402860817871094,12.88388,18.446280817871095Q12.84046,18.489710817871092,12.79299,18.528660817871092Q12.745519999999999,18.567620817871095,12.69446,18.601740817871093Q12.6434,18.635850817871095,12.58925,18.664800817871093Q12.53509,18.693750817871095,12.47835,18.717250817871093Q12.42162,18.740750817871096,12.36286,18.758580817871092Q12.30409,18.776400817871092,12.24386,18.788380817871094Q12.18363,18.800360817871095,12.12252,18.806380817871094Q12.06141,18.812400817871094,12,18.812400817871094Q11.93859,18.812400817871094,11.87748,18.806380817871094Q11.81637,18.800360817871095,11.75614,18.788380817871094Q11.695908,18.776400817871092,11.637144,18.758580817871092Q11.57838,18.740750817871096,11.521646,18.717250817871093Q11.464912,18.693750817871095,11.410754,18.664800817871093Q11.356597,18.635850817871095,11.305537,18.601740817871093Q11.254478,18.567620817871095,11.207008,18.528660817871092Q11.159539,18.489710817871092,11.116116,18.446280817871095Q11.072694,18.402860817871094,11.033737,18.355390817871093Q10.99478,18.307920817871093,10.960663,18.256860817871093Q10.926546,18.205800817871093,10.897598,18.151650817871094Q10.868651,18.097490817871094,10.8451506,18.040750817871093Q10.8216505,17.984020817871095,10.8038246,17.925260817871095Q10.7859986,17.866490817871092,10.7740184,17.806260817871095Q10.7620382,17.746030817871095,10.75601909,17.684920817871095Q10.75,17.623810817871092,10.75,17.562400817871094Q10.75,17.500990817871095,10.75601909,17.439880817871092Q10.7620382,17.378770817871093,10.7740184,17.318540817871092Q10.7859986,17.258308817871093,10.8038246,17.199544817871093Q10.8216505,17.140780817871093,10.8451506,17.084046817871094Q10.868651,17.027312817871092,10.897598,16.973154817871094Q10.926546,16.918997817871094,10.960663,16.867937817871095Q10.99478,16.816878817871093,11.033737,16.769408817871092Q11.072694,16.721939817871093,11.116116,16.678516817871095Q11.159539,16.635094817871092,11.207008,16.596137817871092Q11.254478,16.557180817871092,11.305537,16.523063817871094Q11.356597,16.488946817871092,11.410754,16.459998817871092Q11.464912,16.431051817871094,11.521646,16.407551417871094Q11.57838,16.384051317871094,11.637144,16.366225417871092Q11.695908,16.348399417871093,11.75614,16.336419217871093Q11.81637,16.324439017871093,11.87748,16.318419907871093Q11.93859,16.312400817871094,12,16.312400817871094Q12.06141,16.312400817871094,12.12252,16.318419907871093Q12.18363,16.324439017871093,12.24386,16.336419217871093Q12.30409,16.348399417871093,12.36286,16.366225417871092Q12.42162,16.384051317871094,12.47835,16.407551417871094Q12.53509,16.431051817871094,12.58925,16.459998817871092Q12.6434,16.488946817871092,12.69446,16.523063817871094Q12.745519999999999,16.557180817871092,12.79299,16.596137817871092Q12.84046,16.635094817871092,12.88388,16.678516817871095Q12.92731,16.721939817871093,12.96626,16.769408817871092Q13.00522,16.816878817871093,13.03934,16.867937817871095Q13.07345,16.918997817871094,13.1024,16.973154817871094Q13.13135,17.027312817871092,13.15485,17.084046817871094Q13.17835,17.140780817871093,13.19618,17.199544817871093Q13.214,17.258308817871093,13.22598,17.318540817871092Q13.237960000000001,17.378770817871093,13.24398,17.439880817871092Q13.25,17.500990817871095,13.25,17.562400817871094Z" fill="#000000" fill-opacity="1"/></g></g></svg>