<svg xmlns="http://www.w3.org/2000/svg" xmlns:xlink="http://www.w3.org/1999/xlink" fill="none" version="1.1" width="24" height="24" viewBox="0 0 24 24"><defs><clipPath id="master_svg0_5908_02684"><rect x="0" y="0" width="24" height="24" rx="0"/></clipPath></defs><g clip-path="url(#master_svg0_5908_02684)"><g></g><g><path d="M4.5,9.749999759368897L4,9.749999759368897Q3.9261315,9.749999759368897,3.853682,9.735589759368896Q3.781233,9.721179759368898,3.712987,9.692909759368897Q3.644742,9.664639759368896,3.583322,9.623599759368897Q3.521903,9.582559759368896,3.46967,9.530329759368897Q3.417437,9.478099759368897,3.376398,9.416679759368897Q3.335359,9.355259759368897,3.30709,9.287009759368896Q3.278822,9.218769759368897,3.264411,9.146319759368897Q3.25,9.073869759368897,3.25,8.999999759368897L3.25,4.9999997593688965Q3.25,4.9261317593688965,3.264411,4.853682759368897Q3.278822,4.781232759368897,3.30709,4.712987759368897Q3.335359,4.644741759368896,3.376398,4.5833227593688965Q3.417437,4.5219027593688965,3.46967,4.469669759368896Q3.521903,4.417436759368896,3.583322,4.3763977593688965Q3.644742,4.335358759368896,3.712987,4.307090759368896Q3.781233,4.278821759368896,3.853682,4.2644107593688965Q3.9261315,4.2499997593688965,4,4.2499997593688965Q4.0738685,4.2499997593688965,4.146318,4.2644107593688965Q4.218767,4.278821759368896,4.287013,4.307090759368896Q4.355258,4.335358759368896,4.416678,4.3763977593688965Q4.478097,4.417436759368896,4.53033,4.469669759368896Q4.582563,4.5219027593688965,4.623602,4.5833227593688965Q4.664641,4.644741759368896,4.69291,4.712987759368897Q4.721178,4.781232759368897,4.735589,4.853681759368897Q4.75,4.9261317593688965,4.75,4.9999997593688965L4.75,6.988989759368897Q5.83429,5.443029759368897,7.55003,4.4518287593688965Q10.14146,2.9547297593688966,13.10965,3.3377197593688965Q16.0778,3.7207117593688963,18.2044,5.826579759368896Q20.3304,7.931969759368897,20.7427,10.895389759368896L20.7428,10.896609759368896L20.7429,10.896759759368896Q20.75,10.948139759368896,20.75,10.999999759368897Q20.75,11.073869759368897,20.7356,11.146319759368897Q20.7212,11.218769759368897,20.6929,11.287009759368896Q20.6646,11.355259759368897,20.6236,11.416679759368897Q20.5826,11.478099759368897,20.5303,11.530329759368897Q20.4781,11.582559759368896,20.4167,11.623599759368897Q20.3553,11.664639759368896,20.287,11.692909759368897Q20.2188,11.721179759368898,20.1463,11.735589759368896Q20.0739,11.749999759368897,20,11.749999759368897Q19.9327,11.749999759368897,19.8664,11.738009759368897Q19.8001,11.726009759368896,19.737099999999998,11.702399759368896Q19.674,11.678799759368896,19.6162,11.644329759368897Q19.5583,11.609869759368896,19.5075,11.565649759368895Q19.456699999999998,11.521439759368896,19.4146,11.468879759368896Q19.372500000000002,11.416319759368896,19.3405,11.357109759368896Q19.3084,11.297889759368896,19.287399999999998,11.233909759368895Q19.2664,11.169929759368896,19.2571,11.103239759368897L19.256999999999998,11.101909759368898Q18.9145,8.640879759368897,17.148899999999998,6.892409759368896Q15.3828,5.143459759368897,12.91769,4.825386759368897Q10.45259,4.507307759368897,8.30038,5.750659759368896Q6.663460000000001,6.696329759368897,5.71861,8.249999759368897L8,8.249999759368897Q8.07387,8.249999759368897,8.14632,8.264409759368895Q8.21877,8.278819759368897,8.28701,8.307089759368896Q8.355260000000001,8.335359759368895,8.41668,8.376399759368898Q8.478100000000001,8.417439759368897,8.53033,8.469669759368896Q8.58256,8.521899759368896,8.6236,8.583319759368896Q8.66464,8.644739759368896,8.692910000000001,8.712989759368895Q8.72118,8.781229759368896,8.73559,8.853679759368896Q8.75,8.926129759368896,8.75,8.999999759368897Q8.75,9.073869759368897,8.73559,9.146319759368897Q8.72118,9.218769759368897,8.692910000000001,9.287009759368896Q8.66464,9.355259759368897,8.6236,9.416679759368897Q8.58256,9.478099759368897,8.53033,9.530329759368897Q8.478100000000001,9.582559759368896,8.41668,9.623599759368897Q8.355260000000001,9.664639759368896,8.28701,9.692909759368897Q8.21877,9.721179759368898,8.14632,9.735589759368896Q8.07387,9.749999759368897,8,9.749999759368897L4.5,9.749999759368897Z" fill-rule="evenodd" fill="#000000" fill-opacity="1" style="mix-blend-mode:passthrough"/></g><g><path d="M4.742888,12.896956Q5.08506,15.35872,6.851100000000001,17.107590000000002Q8.6172,18.85653,11.08231,19.17461Q13.54742,19.49269,15.6996,18.24934Q17.3365,17.30367,18.281399999999998,15.75L16,15.75Q15.9261,15.75,15.8537,15.73559Q15.7812,15.72118,15.713,15.69291Q15.6447,15.66464,15.5833,15.6236Q15.5219,15.58256,15.4697,15.53033Q15.4174,15.4781,15.3764,15.41668Q15.3354,15.35526,15.3071,15.28701Q15.2788,15.21877,15.2644,15.14632Q15.25,15.07387,15.25,15Q15.25,14.92613,15.2644,14.85368Q15.2788,14.78123,15.3071,14.71299Q15.3354,14.64474,15.3764,14.58332Q15.4174,14.5219,15.4697,14.46967Q15.5219,14.41744,15.5833,14.3764Q15.6447,14.33536,15.713,14.30709Q15.7812,14.27882,15.8537,14.26441Q15.9261,14.25,16,14.25L20,14.25Q20.0739,14.25,20.1463,14.26441Q20.2188,14.27882,20.287,14.30709Q20.3553,14.33536,20.4167,14.3764Q20.4781,14.41744,20.5303,14.46967Q20.5826,14.5219,20.6236,14.58332Q20.6646,14.64474,20.6929,14.71299Q20.7212,14.78123,20.7356,14.85368Q20.75,14.92613,20.75,15L20.75,19Q20.75,19.07387,20.7356,19.14632Q20.7212,19.21877,20.6929,19.287010000000002Q20.6646,19.35526,20.6236,19.41668Q20.5826,19.4781,20.5303,19.53033Q20.4781,19.58256,20.4167,19.6236Q20.3553,19.66464,20.287,19.69291Q20.2188,19.72118,20.1463,19.735590000000002Q20.0739,19.75,20,19.75Q19.926099999999998,19.75,19.8537,19.735590000000002Q19.7812,19.72118,19.713,19.69291Q19.6447,19.66464,19.5833,19.6236Q19.521900000000002,19.58256,19.4697,19.53033Q19.4174,19.4781,19.3764,19.41668Q19.3354,19.35526,19.3071,19.287010000000002Q19.2788,19.21877,19.264400000000002,19.14632Q19.25,19.07387,19.25,19L19.25,17.01101Q18.1657,18.55697,16.45,19.54817Q13.85854,21.045270000000002,10.89035,20.66228Q7.92216,20.27928,5.79563,18.17342Q3.669093,16.06754,3.257139,13.103237Q3.25,13.0518652,3.25,13Q3.25,12.9261315,3.264411,12.853682Q3.278822,12.781233,3.30709,12.712987Q3.335359,12.644742,3.376398,12.583322Q3.417437,12.521903,3.46967,12.46967Q3.521903,12.417437,3.583322,12.376398Q3.644742,12.335359,3.712987,12.30709Q3.781233,12.278822,3.853682,12.264410999999999Q3.9261315,12.25,4,12.25Q4.0673384,12.25,4.1336,12.261995Q4.199861,12.27399,4.262926,12.297597Q4.325991,12.321204,4.383842,12.355667Q4.441693,12.39013,4.49248,12.434347Q4.543267,12.478564,4.585365,12.531121Q4.627463,12.583677,4.659526,12.642893Q4.691588,12.702108,4.71259,12.766087Q4.733592,12.830067,4.7428609999999995,12.896764L4.742888,12.896956Z" fill-rule="evenodd" fill="#000000" fill-opacity="1" style="mix-blend-mode:passthrough"/></g></g></svg>