<svg xmlns="http://www.w3.org/2000/svg" xmlns:xlink="http://www.w3.org/1999/xlink" fill="none" version="1.1" width="24" height="24" viewBox="0 0 24 24"><defs><clipPath id="master_svg0_5783_09054"><rect x="0" y="0" width="24" height="24" rx="0"/></clipPath></defs><g clip-path="url(#master_svg0_5783_09054)"><g></g><g><path d="M18.73573903121948,9.276341939163208L18.736239031219483,9.277581939163209Q18.777939031219482,9.382141939163208,18.848439031219485,9.469871939163209Q18.91893903121948,9.557591939163208,19.012139031219483,9.62076193916321Q19.105239031219483,9.68392193916321,19.21283903121948,9.716961939163209Q19.320439031219482,9.750001939163209,19.433039031219483,9.750001939163209Q19.506839031219485,9.750001939163209,19.579339031219483,9.735591939163207Q19.651739031219485,9.721181939163209,19.720039031219482,9.692911939163208Q19.788239031219483,9.664641939163207,19.849639031219482,9.623601939163208Q19.911139031219484,9.582561939163208,19.963339031219483,9.530331939163208Q20.015539031219483,9.478101939163208,20.056639031219483,9.416671939163209Q20.097639031219483,9.355261939163208,20.12593903121948,9.287011939163207Q20.154139031219483,9.218761939163208,20.16853903121948,9.146321939163208Q20.183039031219483,9.073871939163208,20.183039031219483,9.000001939163209Q20.183039031219483,8.856101939163208,20.129739031219483,8.722421939163208Q18.908939031219482,5.658161939163208,15.960239031219482,4.1786489391632085Q13.023709031219482,2.7052719391632083,9.821679031219482,3.526513939163208Q6.623219031219483,4.349231939163208,4.766043031219483,7.079501939163208Q2.9088690312194823,9.809771939163209,3.3185100312194824,13.086301939163208Q3.7281570312194825,16.36279193916321,6.200359031219483,18.55179193916321Q8.672559031219482,20.74079193916321,11.974599031219483,20.750791939163207Q15.276639031219483,20.76069193916321,17.761939031219484,18.586591939163206Q20.247239031219483,16.41249193916321,20.676639031219484,13.138521939163208Q20.683039031219483,13.089971939163208,20.683039031219483,13.041001939163207Q20.683039031219483,12.967131939163208,20.66853903121948,12.894681939163208Q20.654139031219483,12.822231939163208,20.62593903121948,12.753991939163209Q20.597639031219483,12.685741939163208,20.556639031219483,12.624321939163208Q20.515539031219483,12.562901939163208,20.463339031219483,12.510671939163208Q20.41113903121948,12.458441939163208,20.349639031219482,12.417391939163208Q20.288239031219483,12.376361939163209,20.220039031219482,12.348091939163208Q20.15173903121948,12.319821939163209,20.079339031219483,12.305411939163209Q20.00683903121948,12.291001939163207,19.933039031219483,12.291001939163207Q19.865339031219484,12.291001939163207,19.798739031219483,12.303121939163209Q19.732039031219482,12.315251939163208,19.66873903121948,12.339101939163209Q19.605339031219483,12.362961939163208,19.547339031219483,12.397771939163208Q19.489239031219483,12.432591939163208,19.438339031219485,12.477241939163209Q19.387439031219483,12.521901939163207,19.34533903121948,12.574941939163208Q19.303339031219483,12.627981939163208,19.271439031219483,12.687701939163208Q19.239539031219483,12.747421939163209,19.21883903121948,12.811891939163209Q19.198139031219483,12.876361939163209,19.189339031219482,12.943481939163208L19.189339031219482,12.943881939163209Q18.833439031219484,15.656391939163209,16.774339031219483,17.45759193916321Q14.715039031219483,19.25899193916321,11.979109031219483,19.250791939163207Q9.243139031219481,19.24249193916321,7.194739031219482,17.428791939163208Q5.146339031219482,15.615091939163207,4.806923031219482,12.900221939163208Q4.467502031219483,10.185371939163208,6.006309031219482,7.923151939163208Q7.545109031219482,5.660931939163208,10.194329031219482,4.979486939163208Q12.852689031219482,4.297680939163208,15.287539031219483,5.519351939163208Q17.725939031219482,6.742811939163208,18.73573903121948,9.276341939163208Z" fill-rule="evenodd" fill="#000000" fill-opacity="1" style="mix-blend-mode:passthrough"/></g><g><path d="M19.25,4Q19.25,3.9261315,19.264409999999998,3.853682Q19.27882,3.781233,19.30709,3.712987Q19.33536,3.644742,19.3764,3.583322Q19.41744,3.521903,19.46967,3.46967Q19.5219,3.417437,19.58332,3.376398Q19.64474,3.335359,19.712989999999998,3.30709Q19.78123,3.278822,19.85368,3.264411Q19.92613,3.25,20,3.25Q20.07387,3.25,20.14632,3.264411Q20.21877,3.278822,20.287010000000002,3.30709Q20.35526,3.335359,20.41668,3.376398Q20.4781,3.417437,20.53033,3.46967Q20.58256,3.521903,20.6236,3.583322Q20.66464,3.644742,20.69291,3.712987Q20.72118,3.781233,20.735590000000002,3.853682Q20.75,3.9261315,20.75,4L20.75,9Q20.75,9.07387,20.735590000000002,9.14632Q20.72118,9.21877,20.69291,9.28701Q20.66464,9.355260000000001,20.6236,9.41668Q20.58256,9.478100000000001,20.53033,9.53033Q20.4781,9.58256,20.41668,9.6236Q20.35526,9.66464,20.287010000000002,9.692910000000001Q20.21877,9.72118,20.14632,9.73559Q20.07387,9.75,20,9.75L15,9.75Q14.9261315,9.75,14.853682,9.73559Q14.781233,9.72118,14.712987,9.692910000000001Q14.644742,9.66464,14.583322,9.6236Q14.521903,9.58256,14.46967,9.53033Q14.417437,9.478100000000001,14.376398,9.41668Q14.335359,9.355260000000001,14.30709,9.28701Q14.278822,9.21877,14.264410999999999,9.14632Q14.25,9.07387,14.25,9Q14.25,8.92613,14.264410999999999,8.85368Q14.278822,8.78123,14.30709,8.71299Q14.335359,8.644739999999999,14.376398,8.58332Q14.417437,8.521899999999999,14.46967,8.46967Q14.521903,8.41744,14.583322,8.3764Q14.644742,8.33536,14.712987,8.307089999999999Q14.781233,8.27882,14.853682,8.26441Q14.9261315,8.25,15,8.25L19.25,8.25L19.25,4Z" fill-rule="evenodd" fill="#000000" fill-opacity="1" style="mix-blend-mode:passthrough"/></g></g></svg>