<svg xmlns="http://www.w3.org/2000/svg" xmlns:xlink="http://www.w3.org/1999/xlink" fill="none" version="1.1" width="24" height="24" viewBox="0 0 24 24"><defs><clipPath id="master_svg0_sa5787_08907"><rect x="0" y="0" width="24" height="24" rx="0"/></clipPath></defs><g clip-path="url(#master_svg0_sa5787_08907)"><g></g><g transform="matrix(-1,0,0,1,40,0)"><path d="M34.7354,9.276341939163208L34.7359,9.277581939163209Q34.7776,9.382141939163208,34.8481,9.469871939163209Q34.9186,9.557591939163208,35.0118,9.62076193916321Q35.1049,9.68392193916321,35.2125,9.716961939163209Q35.3201,9.750001939163209,35.4327,9.750001939163209Q35.5065,9.750001939163209,35.579,9.735591939163207Q35.6514,9.721181939163209,35.7197,9.692911939163208Q35.7879,9.664641939163207,35.8493,9.623601939163208Q35.9108,9.582561939163208,35.963,9.530331939163208Q36.0152,9.478101939163208,36.0563,9.416671939163209Q36.097300000000004,9.355261939163208,36.1256,9.287011939163207Q36.153800000000004,9.218761939163208,36.1682,9.146321939163208Q36.1827,9.073871939163208,36.1827,9.000001939163209Q36.1827,8.856101939163208,36.129400000000004,8.722421939163208Q34.9086,5.658161939163208,31.959899999999998,4.1786489391632085Q29.02337,2.7052719391632083,25.82134,3.526513939163208Q22.62288,4.349231939163208,20.765704,7.079501939163208Q18.90853,9.809771939163209,19.318171,13.086301939163208Q19.727818,16.36279193916321,22.20002,18.55179193916321Q24.67222,20.74079193916321,27.97426,20.750791939163207Q31.2763,20.76069193916321,33.7616,18.586591939163206Q36.2469,16.41249193916321,36.6763,13.138521939163208Q36.6827,13.089971939163208,36.6827,13.041001939163207Q36.6827,12.967131939163208,36.6682,12.894681939163208Q36.653800000000004,12.822231939163208,36.6256,12.753991939163209Q36.597300000000004,12.685741939163208,36.5563,12.624321939163208Q36.5152,12.562901939163208,36.463,12.510671939163208Q36.410799999999995,12.458441939163208,36.3493,12.417391939163208Q36.2879,12.376361939163209,36.2197,12.348091939163208Q36.151399999999995,12.319821939163209,36.079,12.305411939163209Q36.0065,12.291001939163207,35.9327,12.291001939163207Q35.865,12.291001939163207,35.7984,12.303121939163209Q35.731700000000004,12.315251939163208,35.6684,12.339101939163209Q35.605000000000004,12.362961939163208,35.547,12.397771939163208Q35.4889,12.432591939163208,35.438,12.477241939163209Q35.387100000000004,12.521901939163207,35.345,12.574941939163208Q35.303,12.627981939163208,35.271100000000004,12.687701939163208Q35.2392,12.747421939163209,35.2185,12.811891939163209Q35.1978,12.876361939163209,35.189,12.943481939163208L35.189,12.943881939163209Q34.8331,15.656391939163209,32.774,17.45759193916321Q30.7147,19.25899193916321,27.97877,19.250791939163207Q25.2428,19.24249193916321,23.1944,17.428791939163208Q21.146,15.615091939163207,20.806584,12.900221939163208Q20.467163,10.185371939163208,22.00597,7.923151939163208Q23.54477,5.660931939163208,26.19399,4.979486939163208Q28.85235,4.297680939163208,31.2872,5.519351939163208Q33.7256,6.742811939163208,34.7354,9.276341939163208Z" fill-rule="evenodd" fill="#000000" fill-opacity="1" style="mix-blend-mode:passthrough"/></g><g transform="matrix(-1,0,0,1,18.00067138671875,0)"><path d="M13.250335693359375,4Q13.250335693359375,3.9261315,13.264745693359375,3.853682Q13.279155693359375,3.781233,13.307425693359374,3.712987Q13.335695693359375,3.644742,13.376735693359375,3.583322Q13.417775693359374,3.521903,13.470005693359376,3.46967Q13.522235693359374,3.417437,13.583655693359376,3.376398Q13.645075693359374,3.335359,13.713325693359375,3.30709Q13.781565693359376,3.278822,13.854015693359376,3.264411Q13.926465693359376,3.25,14.000335693359375,3.25Q14.074205693359374,3.25,14.146655693359374,3.264411Q14.219105693359374,3.278822,14.287345693359375,3.30709Q14.355595693359376,3.335359,14.417015693359374,3.376398Q14.478435693359376,3.417437,14.530665693359374,3.46967Q14.582895693359376,3.521903,14.623935693359375,3.583322Q14.664975693359375,3.644742,14.693245693359376,3.712987Q14.721515693359375,3.781233,14.735925693359375,3.853682Q14.750335693359375,3.9261315,14.750335693359375,4L14.750335693359375,9Q14.750335693359375,9.07387,14.735925693359375,9.14632Q14.721515693359375,9.21877,14.693245693359376,9.28701Q14.664975693359375,9.355260000000001,14.623935693359375,9.41668Q14.582895693359376,9.478100000000001,14.530665693359374,9.53033Q14.478435693359376,9.58256,14.417015693359374,9.6236Q14.355595693359376,9.66464,14.287345693359375,9.692910000000001Q14.219105693359374,9.72118,14.146655693359374,9.73559Q14.074205693359374,9.75,14.000335693359375,9.75L9.000335693359375,9.75Q8.926467193359375,9.75,8.854017693359374,9.73559Q8.781568693359375,9.72118,8.713322693359375,9.692910000000001Q8.645077693359376,9.66464,8.583657693359376,9.6236Q8.522238693359375,9.58256,8.470005693359376,9.53033Q8.417772693359375,9.478100000000001,8.376733693359375,9.41668Q8.335694693359375,9.355260000000001,8.307425693359376,9.28701Q8.279157693359375,9.21877,8.264746693359374,9.14632Q8.250335693359375,9.07387,8.250335693359375,9Q8.250335693359375,8.92613,8.264746693359374,8.85368Q8.279157693359375,8.78123,8.307425693359376,8.71299Q8.335694693359375,8.644739999999999,8.376733693359375,8.58332Q8.417772693359375,8.521899999999999,8.470005693359376,8.46967Q8.522238693359375,8.41744,8.583657693359376,8.3764Q8.645077693359376,8.33536,8.713322693359375,8.307089999999999Q8.781568693359375,8.27882,8.854017693359374,8.26441Q8.926467193359375,8.25,9.000335693359375,8.25L13.250335693359375,8.25L13.250335693359375,4Z" fill-rule="evenodd" fill="#000000" fill-opacity="1" style="mix-blend-mode:passthrough"/></g></g></svg>