<svg xmlns="http://www.w3.org/2000/svg" xmlns:xlink="http://www.w3.org/1999/xlink" fill="none" version="1.1" width="32" height="32" viewBox="0 0 32 32"><defs><clipPath id="master_svg0_5881_02763"><rect x="0" y="0" width="32" height="32" rx="0"/></clipPath><filter id="master_svg1_5881_02769" filterUnits="objectBoundingBox" color-interpolation-filters="sRGB" x="0" y="0" width="1" height="1"><feFlood flood-opacity="0" result="BackgroundImageFix"/><feBlend mode="normal" in="SourceGraphic" in2="BackgroundImageFix" result="shape"/><feColorMatrix in="SourceAlpha" type="matrix" result="hardAlpha" values="0 0 0 0 0 0 0 0 0 0 0 0 0 0 0 0 0 0 127 0"/><feOffset dy="-2" dx="0"/><feGaussianBlur stdDeviation="2"/><feComposite in2="hardAlpha" operator="arithmetic" k2="-1" k3="1"/><feColorMatrix type="matrix" values="0 0 0 0 1 0 0 0 0 1 0 0 0 0 1 0 0 0 0.20000000298023224 0"/><feBlend mode="normal" in2="shape" result="effect1_innerShadow"/></filter><linearGradient x1="0.7222222089767456" y1="0.26965856552124023" x2="0.7222222089767456" y2="1.1484947204589844" id="master_svg2_5881_02826"><stop offset="0%" stop-color="#FFFFFF" stop-opacity="1"/><stop offset="40.104201436042786%" stop-color="#FFFFFF" stop-opacity="0.8500000238418579"/><stop offset="100%" stop-color="#FFFFFF" stop-opacity="0.5"/></linearGradient></defs><g clip-path="url(#master_svg0_5881_02763)"><g></g><g filter="url(#master_svg1_5881_02769)"><g transform="matrix(0.916670024394989,0,0,0.916670024394989,0.6492817641004933,0.4965095726254276)"><path d="M22.83269511795044,27.34135494995117L17.27069511795044,24.30335494995117C16.97213511795044,24.14045494995117,16.61125511795044,24.14045494995117,16.31269511795044,24.30335494995117L10.750695117950439,27.34135494995117C9.417695117950439,28.07035494995117,7.7916951179504395,27.10535494995117,7.7916951179504395,25.586354949951172L7.7916951179504395,7.958354949951172C7.7916951179504395,6.853784949951172,8.68712611795044,5.958354949951172,9.79169511795044,5.958354949951172L23.79169511795044,5.958354949951172C24.89629511795044,5.958354949951172,25.79169511795044,6.853784949951172,25.79169511795044,7.958354949951172L25.79169511795044,25.586354949951172C25.79169511795044,27.10535494995117,24.16569511795044,28.07035494995117,22.83269511795044,27.34135494995117ZM13.04869511795044,16.579354949951174L15.170695117950439,18.700354949951173C15.56119511795044,19.090754949951172,16.19419511795044,19.090754949951172,16.58469511795044,18.700354949951173L21.53469511795044,13.750354949951172C21.903995117950437,13.356514949951173,21.89399511795044,12.740614949951173,21.512095117950437,12.358964949951172C21.13019511795044,11.977324949951171,20.51429511795044,11.967754949951171,20.12069511795044,12.337354949951171L15.87769511795044,16.579354949951174L14.46369511795044,15.165354949951173C14.07323511795044,14.774614949951172,13.43993511795044,14.774394949951171,13.04919511795044,15.164854949951172C12.658455117950439,15.555324949951173,12.65823511795044,16.18865494995117,13.04869511795044,16.579354949951174Z" fill="url(#master_svg2_5881_02826)" fill-opacity="1" style="mix-blend-mode:passthrough"/></g></g></g></svg>