<svg id="图层_1" data-name="图层 1" xmlns="http://www.w3.org/2000/svg" viewBox="0 0 24 24"><defs><style>.cls-1{fill-rule:evenodd;}</style></defs><path class="cls-1" d="M18.21,2.37,8.59,12l9.62,9.63a1.22,1.22,0,0,1,.29.42,1.32,1.32,0,0,1,.1.51,2.28,2.28,0,0,1,0,.26,1.69,1.69,0,0,1-.08.24,1,1,0,0,1-.12.23,1.62,1.62,0,0,1-.37.37,1.19,1.19,0,0,1-.22.12l-.25.08-.26,0a1.29,1.29,0,0,1-.51-.1,1.22,1.22,0,0,1-.42-.29L5.79,12.93a1.22,1.22,0,0,1-.29-.42A1.32,1.32,0,0,1,5.4,12a1.29,1.29,0,0,1,.1-.51,1.22,1.22,0,0,1,.29-.42L16.35.51a1.22,1.22,0,0,1,.42-.29,1.32,1.32,0,0,1,.51-.1l.26,0,.25.08A1.19,1.19,0,0,1,18,.34a1.12,1.12,0,0,1,.2.17,1.12,1.12,0,0,1,.17.2,1.19,1.19,0,0,1,.12.22,2.41,2.41,0,0,1,.08.25,2.28,2.28,0,0,1,0,.26,1.29,1.29,0,0,1-.1.51,1.22,1.22,0,0,1-.29.42"/></svg>