<svg xmlns="http://www.w3.org/2000/svg" xmlns:xlink="http://www.w3.org/1999/xlink" fill="none" version="1.1" width="24" height="24" viewBox="0 0 24 24"><defs><clipPath id="master_svg0_5732_08126"><rect x="0" y="0" width="24" height="24" rx="0"/></clipPath></defs><g clip-path="url(#master_svg0_5732_08126)"><g><path d="M9.530484,5.469824L15.53033,11.46967Q15.635819999999999,11.57516,15.692910000000001,11.71299Q15.75,11.850819999999999,15.75,12Q15.75,12.149180000000001,15.692910000000001,12.28701Q15.635819999999999,12.42484,15.53033,12.53033L9.53033,18.5303Q9.424841,18.6358,9.287012,18.6929Q9.149184,18.75,9,18.75Q8.9261315,18.75,8.853682,18.735599999999998Q8.781233,18.7212,8.712987,18.6929Q8.644742,18.6646,8.583322,18.6236Q8.521903,18.5826,8.46967,18.5303Q8.417437,18.478099999999998,8.376398,18.4167Q8.335359,18.3553,8.30709,18.287Q8.278822,18.2188,8.264410999999999,18.1463Q8.25,18.073900000000002,8.25,18Q8.25,17.8508,8.30709,17.713Q8.364181,17.575200000000002,8.46967,17.4697L8.470132,17.4692L13.93934,12L8.469824,6.5304839999999995L8.46967,6.53033Q8.364181,6.424841,8.30709,6.287013Q8.25,6.149184,8.25,6Q8.25,5.9261315,8.264410999999999,5.853682Q8.278822,5.781233,8.30709,5.712987Q8.335359,5.644742,8.376398,5.583322Q8.417437,5.521903,8.46967,5.46967Q8.521903,5.417437,8.583322,5.376398Q8.644742,5.335359,8.712987,5.30709Q8.781233,5.278822,8.853682,5.264411Q8.9261315,5.25,9,5.25Q9.149184,5.25,9.287013,5.30709Q9.424841,5.364181,9.53033,5.46967L9.530484,5.469824Z" fill-rule="evenodd" fill="#000000" fill-opacity="1" style="mix-blend-mode:passthrough"/></g></g></svg>