<svg xmlns="http://www.w3.org/2000/svg" xmlns:xlink="http://www.w3.org/1999/xlink" fill="none" version="1.1" width="32" height="32" viewBox="0 0 32 32"><defs><clipPath id="master_svg0_5881_02703"><rect x="0" y="0" width="32" height="32" rx="0"/></clipPath><filter id="master_svg1_5881_02709" filterUnits="objectBoundingBox" color-interpolation-filters="sRGB" x="0" y="0" width="1" height="1"><feFlood flood-opacity="0" result="BackgroundImageFix"/><feBlend mode="normal" in="SourceGraphic" in2="BackgroundImageFix" result="shape"/><feColorMatrix in="SourceAlpha" type="matrix" result="hardAlpha" values="0 0 0 0 0 0 0 0 0 0 0 0 0 0 0 0 0 0 127 0"/><feOffset dy="-2" dx="0"/><feGaussianBlur stdDeviation="2"/><feComposite in2="hardAlpha" operator="arithmetic" k2="-1" k3="1"/><feColorMatrix type="matrix" values="0 0 0 0 1 0 0 0 0 1 0 0 0 0 1 0 0 0 0.20000000298023224 0"/><feBlend mode="normal" in2="shape" result="effect1_innerShadow"/></filter><linearGradient x1="0.6666666865348816" y1="0.2416505664587021" x2="0.6666666865348816" y2="1.1921600103378296" id="master_svg2_5881_02799"><stop offset="0%" stop-color="#FFFFFF" stop-opacity="1"/><stop offset="40.104201436042786%" stop-color="#FFFFFF" stop-opacity="0.8500000238418579"/><stop offset="100%" stop-color="#FFFFFF" stop-opacity="0.5"/></linearGradient></defs><g clip-path="url(#master_svg0_5881_02703)"><g></g><g filter="url(#master_svg1_5881_02709)"><g transform="matrix(0.916670024394989,0,0,0.916670024394989,0.42012349675530913,0.5728955690258886)"><path d="M16.541685104370117,6.875025510787911C15.810285104370116,6.87393582185791,15.184685104370118,7.40054084185791,15.061085104370116,8.121433841857911C14.937385104370117,8.84233384185791,15.351685104370118,9.54730384185791,16.041685104370117,9.79002384185791L16.041685104370117,11.87502384185791L10.541685104370117,11.87502384185791C9.437115104370118,11.87502384185791,8.541685104370117,12.770453841857911,8.541685104370117,13.87502384185791L8.541685104370117,24.87502384185791C8.541685104370117,25.97962384185791,9.437115104370118,26.87502384185791,10.541685104370117,26.87502384185791L23.541685104370117,26.87502384185791C24.64628510437012,26.87502384185791,25.541685104370117,25.97962384185791,25.541685104370117,24.87502384185791L25.541685104370117,13.87502384185791C25.541685104370117,12.770453841857911,24.64628510437012,11.87502384185791,23.541685104370117,11.87502384185791L18.041685104370117,11.87502384185791L18.041685104370117,9.79002384185791C18.731685104370115,9.54730384185791,19.14598510437012,8.84233384185791,19.02228510437012,8.121433841857911C18.898685104370117,7.40054184185791,18.273085104370118,6.87393665185791,17.541685104370117,6.875025510787911L16.541685104370117,6.875025510787911ZM12.041685104370117,19.37502384185791C12.041685104370117,18.546623841857908,12.713255104370116,17.87502384185791,13.541685104370117,17.87502384185791C14.370115104370118,17.87502384185791,15.041685104370117,18.546623841857908,15.041685104370117,19.37502384185791C15.041685104370117,20.203423841857912,14.370115104370118,20.87502384185791,13.541685104370117,20.87502384185791C12.713255104370116,20.87502384185791,12.041685104370117,20.203423841857912,12.041685104370117,19.37502384185791ZM20.541685104370117,17.87502384185791C21.370085104370116,17.87502384185791,22.041685104370117,18.546623841857908,22.041685104370117,19.37502384185791C22.041685104370117,20.203423841857912,21.370085104370116,20.87502384185791,20.541685104370117,20.87502384185791C19.713285104370115,20.87502384185791,19.041685104370117,20.203423841857912,19.041685104370117,19.37502384185791C19.041685104370117,18.546623841857908,19.713285104370115,17.87502384185791,20.541685104370117,17.87502384185791ZM7.041685104370117,17.87502384185791C7.041685104370117,17.322723841857908,6.593965104370117,16.87502384185791,6.041685104370117,16.87502384185791C5.489400104370117,16.87502384185791,5.041685104370117,17.322723841857908,5.041685104370117,17.87502384185791L5.041685104370117,20.87502384185791C5.041685104370117,21.427323841857913,5.489400104370117,21.87502384185791,6.041685104370117,21.87502384185791C6.593965104370117,21.87502384185791,7.041685104370117,21.427323841857913,7.041685104370117,20.87502384185791L7.041685104370117,17.87502384185791ZM28.041685104370117,16.87502384185791C27.48938510437012,16.87502384185791,27.041685104370117,17.322723841857908,27.041685104370117,17.87502384185791L27.041685104370117,20.87502384185791C27.041685104370117,21.427323841857913,27.48938510437012,21.87502384185791,28.041685104370117,21.87502384185791C28.593985104370116,21.87502384185791,29.041685104370117,21.427323841857913,29.041685104370117,20.87502384185791L29.041685104370117,17.87502384185791C29.041685104370117,17.322723841857908,28.593985104370116,16.87502384185791,28.041685104370117,16.87502384185791Z" fill="url(#master_svg2_5881_02799)" fill-opacity="1" style="mix-blend-mode:passthrough"/></g></g></g></svg>