<svg xmlns="http://www.w3.org/2000/svg" xmlns:xlink="http://www.w3.org/1999/xlink" fill="none" version="1.1" width="24" height="24" viewBox="0 0 24 24"><defs><clipPath id="master_svg0_5851_03512"><rect x="0" y="0" width="24" height="24" rx="0"/></clipPath></defs><g clip-path="url(#master_svg0_5851_03512)"><g><rect x="4.5" y="9" width="15" height="12" rx="4" fill-opacity="0" stroke-opacity="1" stroke="#000000" fill="none" stroke-width="1.5"/></g><g><path d="M11.25,5Q11.25,4.9261315,11.264410999999999,4.853682Q11.278822,4.781233,11.30709,4.712987Q11.335359,4.644742,11.376398,4.583322Q11.417437,4.521903,11.46967,4.46967Q11.521903,4.417437,11.583322,4.376398Q11.644742,4.335359,11.712987,4.30709Q11.781233,4.278822,11.853682,4.264411Q11.9261315,4.25,12,4.25Q12.0738685,4.25,12.146318,4.264411Q12.218767,4.278822,12.287013,4.30709Q12.355258,4.335359,12.416678,4.376398Q12.478097,4.417437,12.53033,4.46967Q12.582563,4.521903,12.623602,4.583322Q12.664641,4.644742,12.69291,4.712987Q12.721178,4.781233,12.735589000000001,4.853682Q12.75,4.9261315,12.75,5L12.75,9Q12.75,9.07387,12.735589000000001,9.14632Q12.721178,9.21877,12.69291,9.28701Q12.664641,9.355260000000001,12.623602,9.41668Q12.582563,9.478100000000001,12.53033,9.53033Q12.478097,9.58256,12.416678,9.6236Q12.355258,9.66464,12.287013,9.692910000000001Q12.218767,9.72118,12.146318,9.73559Q12.0738685,9.75,12,9.75Q11.9261315,9.75,11.853682,9.73559Q11.781233,9.72118,11.712987,9.692910000000001Q11.644742,9.66464,11.583322,9.6236Q11.521903,9.58256,11.46967,9.53033Q11.417437,9.478100000000001,11.376398,9.41668Q11.335359,9.355260000000001,11.30709,9.28701Q11.278822,9.21877,11.264410999999999,9.14632Q11.25,9.07387,11.25,9L11.25,5Z" fill-rule="evenodd" fill="#000000" fill-opacity="1"/></g><g><path d="M1.25,13Q1.25,12.9261315,1.264411,12.853682Q1.278822,12.781233,1.30709,12.712987Q1.335359,12.644742,1.376398,12.583322Q1.417437,12.521903,1.46967,12.46967Q1.521903,12.417437,1.583322,12.376398Q1.644742,12.335359,1.712987,12.30709Q1.781233,12.278822,1.853682,12.264410999999999Q1.9261314999999999,12.25,2,12.25Q2.0738685,12.25,2.146318,12.264410999999999Q2.218767,12.278822,2.287013,12.30709Q2.355258,12.335359,2.416678,12.376398Q2.478097,12.417437,2.53033,12.46967Q2.582563,12.521903,2.623602,12.583322Q2.664641,12.644742,2.69291,12.712987Q2.721178,12.781233,2.735589,12.853682Q2.75,12.9261315,2.75,13L2.75,17Q2.75,17.07387,2.735589,17.14632Q2.721178,17.21877,2.69291,17.287010000000002Q2.664641,17.35526,2.623602,17.41668Q2.582563,17.4781,2.53033,17.53033Q2.478097,17.58256,2.416678,17.6236Q2.355258,17.66464,2.287013,17.69291Q2.218767,17.72118,2.146318,17.735590000000002Q2.0738685,17.75,2,17.75Q1.9261314999999999,17.75,1.853682,17.735590000000002Q1.781233,17.72118,1.712987,17.69291Q1.644742,17.66464,1.583322,17.6236Q1.521903,17.58256,1.46967,17.53033Q1.417437,17.4781,1.376398,17.41668Q1.335359,17.35526,1.30709,17.287010000000002Q1.278822,17.21877,1.264411,17.14632Q1.25,17.07387,1.25,17L1.25,13Z" fill-rule="evenodd" fill="#000000" fill-opacity="1"/></g><g><path d="M21.25,13Q21.25,12.9261315,21.264411,12.853682Q21.278822,12.781233,21.30709,12.712987Q21.335359,12.644742,21.376398000000002,12.583322Q21.417437,12.521903,21.46967,12.46967Q21.521903000000002,12.417437,21.583322,12.376398Q21.644742,12.335359,21.712987,12.30709Q21.781233,12.278822,21.853682,12.264410999999999Q21.9261315,12.25,22,12.25Q22.0738685,12.25,22.146318,12.264410999999999Q22.218767,12.278822,22.287013,12.30709Q22.355258,12.335359,22.416678,12.376398Q22.478096999999998,12.417437,22.53033,12.46967Q22.582563,12.521903,22.623601999999998,12.583322Q22.664641,12.644742,22.69291,12.712987Q22.721178,12.781233,22.735589,12.853682Q22.75,12.9261315,22.75,13L22.75,17Q22.75,17.07387,22.735589,17.14632Q22.721178,17.21877,22.69291,17.287010000000002Q22.664641,17.35526,22.623601999999998,17.41668Q22.582563,17.4781,22.53033,17.53033Q22.478096999999998,17.58256,22.416678,17.6236Q22.355258,17.66464,22.287013,17.69291Q22.218767,17.72118,22.146318,17.735590000000002Q22.0738685,17.75,22,17.75Q21.9261315,17.75,21.853682,17.735590000000002Q21.781233,17.72118,21.712987,17.69291Q21.644742,17.66464,21.583322,17.6236Q21.521903000000002,17.58256,21.46967,17.53033Q21.417437,17.4781,21.376398000000002,17.41668Q21.335359,17.35526,21.30709,17.287010000000002Q21.278822,17.21877,21.264411,17.14632Q21.25,17.07387,21.25,17L21.25,13Z" fill-rule="evenodd" fill="#000000" fill-opacity="1"/></g><g><path d="M16.2490234375,14.5L16.2490234375,15.5Q16.2490234375,15.57387,16.2346124375,15.64632Q16.2202014375,15.71877,16.1919334375,15.78701Q16.1636644375,15.85526,16.122625437499998,15.91668Q16.0815864375,15.9781,16.0293534375,16.03033Q15.9771204375,16.08256,15.9157014375,16.1236Q15.8542814375,16.16464,15.7860364375,16.19291Q15.7177904375,16.22118,15.6453414375,16.23559Q15.5728919375,16.25,15.4990234375,16.25Q15.4251549375,16.25,15.3527054375,16.23559Q15.2802564375,16.22118,15.2120104375,16.19291Q15.1437654375,16.16464,15.0823454375,16.1236Q15.0209264375,16.08256,14.9686934375,16.03033Q14.9164604375,15.9781,14.8754214375,15.91668Q14.8343824375,15.85526,14.8061134375,15.78701Q14.7778454375,15.71877,14.763434437499999,15.64632Q14.7490234375,15.57387,14.7490234375,15.5L14.7490234375,14.5Q14.7490234375,14.4261315,14.763434437499999,14.353682Q14.7778454375,14.281233,14.8061134375,14.212987Q14.8343824375,14.144742,14.8754214375,14.083322Q14.9164604375,14.021903,14.9686934375,13.96967Q15.0209264375,13.917437,15.0823454375,13.876398Q15.1437654375,13.835359,15.2120104375,13.80709Q15.2802564375,13.778822,15.3527054375,13.764410999999999Q15.4251549375,13.75,15.4990234375,13.75Q15.5728919375,13.75,15.6453414375,13.764410999999999Q15.7177904375,13.778822,15.7860364375,13.80709Q15.8542814375,13.835359,15.9157014375,13.876398Q15.9771204375,13.917437,16.0293534375,13.96967Q16.0815864375,14.021903,16.122625437499998,14.083322Q16.1636644375,14.144742,16.1919334375,14.212987Q16.2202014375,14.281233,16.2346124375,14.353682Q16.2490234375,14.4261315,16.2490234375,14.5Z" fill-rule="evenodd" fill="#000000" fill-opacity="1"/></g><g><path d="M9.2490234375,14.5L9.2490234375,15.5Q9.2490234375,15.57387,9.234612437500001,15.64632Q9.2202014375,15.71877,9.1919334375,15.78701Q9.1636644375,15.85526,9.1226254375,15.91668Q9.0815864375,15.9781,9.0293534375,16.03033Q8.9771204375,16.08256,8.9157014375,16.1236Q8.8542814375,16.16464,8.7860364375,16.19291Q8.7177904375,16.22118,8.6453414375,16.23559Q8.5728919375,16.25,8.4990234375,16.25Q8.4251549375,16.25,8.3527054375,16.23559Q8.2802564375,16.22118,8.2120104375,16.19291Q8.1437654375,16.16464,8.0823454375,16.1236Q8.0209264375,16.08256,7.9686934375,16.03033Q7.9164604375,15.9781,7.8754214375,15.91668Q7.8343824375,15.85526,7.8061134375,15.78701Q7.7778454375,15.71877,7.7634344375,15.64632Q7.7490234375,15.57387,7.7490234375,15.5L7.7490234375,14.5Q7.7490234375,14.4261315,7.7634344375,14.353682Q7.7778454375,14.281233,7.8061134375,14.212987Q7.8343824375,14.144742,7.8754214375,14.083322Q7.9164604375,14.021903,7.9686934375,13.96967Q8.0209264375,13.917437,8.0823454375,13.876398Q8.1437654375,13.835359,8.2120104375,13.80709Q8.2802564375,13.778822,8.3527054375,13.764410999999999Q8.4251549375,13.75,8.4990234375,13.75Q8.5728919375,13.75,8.6453414375,13.764410999999999Q8.7177904375,13.778822,8.7860364375,13.80709Q8.8542814375,13.835359,8.9157014375,13.876398Q8.9771204375,13.917437,9.0293534375,13.96967Q9.0815864375,14.021903,9.1226254375,14.083322Q9.1636644375,14.144742,9.1919334375,14.212987Q9.2202014375,14.281233,9.234612437500001,14.353682Q9.2490234375,14.4261315,9.2490234375,14.5Z" fill-rule="evenodd" fill="#000000" fill-opacity="1"/></g><g><ellipse cx="12" cy="4" rx="1" ry="1" fill="#000000" fill-opacity="1"/><ellipse cx="12" cy="4" rx="1" ry="1" fill-opacity="0" stroke-opacity="1" stroke="#000000" fill="none" stroke-width="1.5"/></g></g></svg>