<svg xmlns="http://www.w3.org/2000/svg" xmlns:xlink="http://www.w3.org/1999/xlink" fill="none" version="1.1" width="32" height="32" viewBox="0 0 32 32"><defs><clipPath id="master_svg0_5881_02733"><rect x="0" y="0" width="32" height="32" rx="0"/></clipPath><filter id="master_svg1_5881_02739" filterUnits="objectBoundingBox" color-interpolation-filters="sRGB" x="0" y="0" width="1" height="1"><feFlood flood-opacity="0" result="BackgroundImageFix"/><feBlend mode="normal" in="SourceGraphic" in2="BackgroundImageFix" result="shape"/><feColorMatrix in="SourceAlpha" type="matrix" result="hardAlpha" values="0 0 0 0 0 0 0 0 0 0 0 0 0 0 0 0 0 0 127 0"/><feOffset dy="-2" dx="0"/><feGaussianBlur stdDeviation="2"/><feComposite in2="hardAlpha" operator="arithmetic" k2="-1" k3="1"/><feColorMatrix type="matrix" values="0 0 0 0 1 0 0 0 0 1 0 0 0 0 1 0 0 0 0.20000000298023224 0"/><feBlend mode="normal" in2="shape" result="effect1_innerShadow"/></filter><linearGradient x1="0.7222222089767456" y1="0.25643885135650635" x2="0.7222222089767456" y2="1.1307660341262817" id="master_svg2_5881_02815"><stop offset="0%" stop-color="#FFFFFF" stop-opacity="1"/><stop offset="40.104201436042786%" stop-color="#FFFFFF" stop-opacity="0.8500000238418579"/><stop offset="100%" stop-color="#FFFFFF" stop-opacity="0.5"/></linearGradient></defs><g clip-path="url(#master_svg0_5881_02733)"><g></g><g filter="url(#master_svg1_5881_02739)"><g transform="matrix(0.916670024394989,0,0,0.916670024394989,0.6492817243656646,0.5161352005727338)"><path d="M9.341694641113282,8.578941974945067C8.433900641113281,8.788571974945068,7.791097641113281,9.597261974945068,7.791695117950281,10.528941974945068L7.791695117950281,25.936971974945067C7.791695117950281,27.04147197494507,8.687125641113282,27.936971974945067,9.791694641113281,27.936971974945067L23.79169464111328,27.936971974945067C24.896294641113283,27.936971974945067,25.79169464111328,27.04147197494507,25.79169464111328,25.936971974945067L25.79169464111328,11.936941974945068C25.79169464111328,10.832371974945069,24.896294641113283,9.936941974945068,23.79169464111328,9.936941974945068L20.79169464111328,9.936941974945068L20.79169464111328,7.193941974945068C20.79149464111328,6.5509479749450685,20.19319464111328,6.075270974945068,19.56669464111328,6.2199452749450685L9.341694641113282,8.578941974945067L9.341694641113282,8.578941974945067ZM23.79169464111328,25.936971974945067L20.79169464111328,25.936971974945067L20.79169464111328,11.936941974945068L23.79169464111328,11.936941974945068L23.79169464111328,25.936971974945067ZM15.791694641113281,16.936971974945067C16.34398464111328,16.936971974945067,16.79169464111328,17.384671974945068,16.79169464111328,17.936971974945067L16.79169464111328,19.936971974945067C16.79169464111328,20.48927197494507,16.34398464111328,20.936971974945067,15.791694641113281,20.936971974945067C15.239414641113282,20.936971974945067,14.791694641113281,20.48927197494507,14.791694641113281,19.936971974945067L14.791694641113281,17.936971974945067C14.791694641113281,17.384671974945068,15.239414641113282,16.936971974945067,15.791694641113281,16.936971974945067Z" fill="url(#master_svg2_5881_02815)" fill-opacity="1" style="mix-blend-mode:passthrough"/></g></g></g></svg>