<svg xmlns="http://www.w3.org/2000/svg" xmlns:xlink="http://www.w3.org/1999/xlink" fill="none" version="1.1" width="24" height="24" viewBox="0 0 24 24"><defs><clipPath id="master_svg0_5908_02679"><rect x="0" y="0" width="24" height="24" rx="0"/></clipPath></defs><g clip-path="url(#master_svg0_5908_02679)"><g><path d="M4.550000190734863,14.250010893249511L4.050000190734863,14.250010893249511Q3.976131690734863,14.250010893249511,3.9036821907348633,14.264410893249512Q3.831233190734863,14.278810893249512,3.7629871907348633,14.307110893249511Q3.694742190734863,14.335310893249511,3.633322190734863,14.376410893249512Q3.5719031907348633,14.417410893249512,3.519670190734863,14.46971089324951Q3.4674371907348633,14.521910893249512,3.4263981907348633,14.583310893249513Q3.3853591907348632,14.644710893249512,3.3570901907348634,14.713010893249512Q3.328822190734863,14.781210893249511,3.3144111907348632,14.853710893249511Q3.3000001907348633,14.926110893249511,3.3000001907348633,15.000010893249511L3.3000001907348633,20.00001089324951Q3.3000001907348633,20.07391089324951,3.3144111907348632,20.146310893249513Q3.328822190734863,20.21881089324951,3.3570901907348634,20.287010893249512Q3.3853591907348632,20.355210893249513,3.4263981907348633,20.416710893249512Q3.4674371907348633,20.47811089324951,3.519670190734863,20.53031089324951Q3.5719031907348633,20.582510893249513,3.633322190734863,20.623610893249513Q3.694742190734863,20.664610893249513,3.7629871907348633,20.69291089324951Q3.831233190734863,20.721210893249513,3.9036821907348633,20.73561089324951Q3.976131690734863,20.750010893249513,4.050000190734863,20.750010893249513Q4.123868690734863,20.750010893249513,4.196318190734863,20.73561089324951Q4.268767190734863,20.721210893249513,4.337013190734863,20.69291089324951Q4.405258190734863,20.664610893249513,4.466678190734863,20.623610893249513Q4.528097190734863,20.582510893249513,4.5803301907348635,20.53031089324951Q4.632563190734864,20.47811089324951,4.673602190734863,20.416710893249512Q4.714641190734863,20.355210893249513,4.742910190734864,20.287010893249512Q4.771178190734863,20.21881089324951,4.785589190734863,20.146310893249513Q4.800000190734863,20.07391089324951,4.800000190734863,20.00001089324951L4.800000190734863,17.09511089324951Q6.588960190734863,19.765610893249512,9.992030190734862,20.56041089324951Q14.440400190734863,21.599410893249512,17.835800190734865,18.54331089324951Q21.231200190734864,15.487310893249512,20.664600190734863,10.954430893249512Q20.09800019073486,6.421560893249511,16.054800190734863,4.2953178932495115Q12.011660190734863,2.1690908932495114,7.955860190734864,4.271106893249511Q3.900637190734863,6.372830893249512,3.3065291907348633,10.901250893249511L3.3063621907348635,10.902530893249512Q3.3000001907348633,10.951050893249512,3.3000001907348633,11.000000893249512Q3.3000001907348633,11.073870893249513,3.3144111907348632,11.146320893249513Q3.328822190734863,11.218760893249511,3.3570901907348634,11.287010893249512Q3.3853591907348632,11.355260893249511,3.4263981907348633,11.416680893249513Q3.4674371907348633,11.478090893249512,3.519670190734863,11.530330893249513Q3.5719031907348633,11.58256089324951,3.633322190734863,11.623600893249511Q3.694742190734863,11.664640893249512,3.7629871907348633,11.692910893249511Q3.831233190734863,11.721180893249512,3.9036821907348633,11.735590893249512Q3.976131690734863,11.750000893249512,4.050000190734863,11.750000893249512Q4.117704790734863,11.750000893249512,4.184315190734863,11.73787089324951Q4.250925190734863,11.725750893249511,4.3142861907348635,11.701890893249512Q4.377648190734863,11.678030893249511,4.435713190734863,11.643210893249512Q4.493778190734863,11.608390893249512,4.544668190734863,11.563740893249513Q4.595558190734863,11.519080893249512,4.637629190734863,11.466040893249513Q4.679700190734863,11.41299089324951,4.711590190734864,11.353270893249512Q4.7434811907348635,11.293540893249512,4.764160190734863,11.229070893249512Q4.784839190734863,11.164610893249511,4.793639190734863,11.09748089324951Q5.285570190734863,7.344540893249512,8.646080190734864,5.602870893249512Q12.006600190734863,3.8611998932495117,15.356600190734863,5.622930893249512Q18.706700190734864,7.3846708932495115,19.176200190734864,11.140480893249512Q19.64560019073486,14.896310893249511,16.832300190734863,17.428410893249513Q14.019030190734863,19.960610893249513,10.333190190734864,19.09971089324951Q7.219400190734863,18.372410893249512,5.736560190734863,15.750010893249511L9.050000190734863,15.750010893249511Q9.123870190734863,15.750010893249511,9.196320190734863,15.735610893249511Q9.268770190734863,15.721210893249511,9.337010190734864,15.692910893249511Q9.405260190734865,15.664610893249511,9.466680190734863,15.623610893249511Q9.528100190734865,15.582610893249512,9.580330190734863,15.530310893249512Q9.632560190734864,15.47811089324951,9.673600190734863,15.416710893249512Q9.714640190734864,15.355210893249511,9.742910190734865,15.287010893249512Q9.771180190734864,15.218810893249511,9.785590190734863,15.146310893249511Q9.800000190734863,15.073910893249511,9.800000190734863,15.000010893249511Q9.800000190734863,14.926110893249511,9.785590190734863,14.853710893249511Q9.771180190734864,14.781210893249511,9.742910190734865,14.713010893249512Q9.714640190734864,14.644710893249512,9.673600190734863,14.583310893249513Q9.632560190734864,14.521910893249512,9.580330190734863,14.46971089324951Q9.528100190734865,14.417410893249512,9.466680190734863,14.376410893249512Q9.405260190734865,14.335310893249511,9.337010190734864,14.307110893249511Q9.268770190734863,14.278810893249512,9.196320190734863,14.264410893249512Q9.123870190734863,14.250010893249511,9.050000190734863,14.250010893249511L4.550000190734863,14.250010893249511Z" fill-rule="evenodd" fill="#000000" fill-opacity="1" style="mix-blend-mode:passthrough"/></g></g></svg>