<svg xmlns="http://www.w3.org/2000/svg" xmlns:xlink="http://www.w3.org/1999/xlink" fill="none" version="1.1" width="24" height="24" viewBox="0 0 24 24"><defs><clipPath id="master_svg0_63_00926"><rect x="0" y="0" width="24" height="24" rx="0"/></clipPath></defs><g clip-path="url(#master_svg0_63_00926)"><g><path d="M17.25,2Q17.25,1.9261314999999999,17.264411,1.853682Q17.278822,1.781233,17.30709,1.712987Q17.335359,1.644742,17.376398000000002,1.583322Q17.417437,1.521903,17.46967,1.46967Q17.521903000000002,1.417437,17.583322,1.376398Q17.644742,1.335359,17.712987,1.30709Q17.781233,1.278822,17.853682,1.264411Q17.9261315,1.25,18,1.25Q18.0738685,1.25,18.146318,1.264411Q18.218767,1.278822,18.287013,1.30709Q18.355258,1.335359,18.416678,1.376398Q18.478096999999998,1.417437,18.53033,1.46967Q18.582563,1.521903,18.623601999999998,1.583322Q18.664641,1.644742,18.69291,1.712987Q18.721178,1.781233,18.735589,1.853682Q18.75,1.9261314999999999,18.75,2L18.75,21.75Q18.75,21.8239,18.735589,21.8963Q18.721178,21.9688,18.69291,22.037Q18.664641,22.1053,18.623601999999998,22.1667Q18.582563,22.2281,18.53033,22.2803Q18.478096999999998,22.3326,18.416678,22.3736Q18.355258,22.4146,18.287013,22.4429Q18.218767,22.4712,18.146318,22.4856Q18.0738685,22.5,18,22.5Q17.9261315,22.5,17.853682,22.4856Q17.781233,22.4712,17.712987,22.4429Q17.644742,22.4146,17.583322,22.3736Q17.521903000000002,22.3326,17.46967,22.2803Q17.417437,22.2281,17.376398000000002,22.1667Q17.335359,22.1053,17.30709,22.037Q17.278822,21.9688,17.264411,21.8963Q17.25,21.8239,17.25,21.75L17.25,2Z" fill-rule="evenodd" fill="#13943C" fill-opacity="1" style="mix-blend-mode:passthrough"/></g><g><path d="M3.5,22.25L11.5,22.25Q11.57387,22.25,11.64632,22.235590000000002Q11.71877,22.22118,11.78701,22.192909999999998Q11.85526,22.16464,11.91668,22.1236Q11.9781,22.08256,12.03033,22.03033Q12.08256,21.978099999999998,12.1236,21.91668Q12.16464,21.85526,12.19291,21.787010000000002Q12.22118,21.71877,12.23559,21.64632Q12.25,21.57387,12.25,21.5Q12.25,21.42613,12.23559,21.35368Q12.22118,21.28123,12.19291,21.212989999999998Q12.16464,21.14474,12.1236,21.08332Q12.08256,21.0219,12.03033,20.96967Q11.9781,20.91744,11.91668,20.8764Q11.85526,20.83536,11.78701,20.80709Q11.71877,20.77882,11.64632,20.764409999999998Q11.57387,20.75,11.5,20.75L5.31066,20.75L12.03033,14.03033Q12.13582,13.924841,12.19291,13.787013Q12.25,13.649184,12.25,13.5Q12.25,13.350816,12.19291,13.212987Q12.13582,13.075159,12.03033,12.96967Q11.92484,12.864181,11.78701,12.80709Q11.64918,12.75,11.5,12.75L3.5,12.75Q3.4261315,12.75,3.353682,12.764410999999999Q3.281233,12.778822,3.212987,12.80709Q3.144742,12.835359,3.083322,12.876398Q3.021903,12.917437,2.96967,12.96967Q2.917437,13.021903,2.876398,13.083322Q2.835359,13.144742,2.80709,13.212987Q2.778822,13.281233,2.764411,13.353682Q2.75,13.4261315,2.75,13.5Q2.75,13.5738685,2.764411,13.646318Q2.778822,13.718767,2.80709,13.787013Q2.835359,13.855258,2.876398,13.916678Q2.917437,13.978097,2.96967,14.03033Q3.021903,14.082563,3.083322,14.123602Q3.144742,14.164641,3.212987,14.19291Q3.281233,14.221178,3.353682,14.235589000000001Q3.4261315,14.25,3.5,14.25L9.68934,14.25L2.96967,20.96967Q2.864181,21.07516,2.80709,21.212989999999998Q2.75,21.35082,2.75,21.5Q2.75,21.57387,2.764411,21.64632Q2.778822,21.71877,2.80709,21.787010000000002Q2.835359,21.85526,2.876398,21.91668Q2.917437,21.978099999999998,2.96967,22.03033Q3.021903,22.08256,3.083322,22.1236Q3.144742,22.16464,3.212987,22.192909999999998Q3.281233,22.22118,3.353682,22.235590000000002Q3.4261315,22.25,3.5,22.25Z" fill-rule="evenodd" fill="#231F2E" fill-opacity="1"/></g><g><path d="M14.530484,17.469824L18,20.93934L21.46967,17.46967Q21.57516,17.364181,21.712989999999998,17.30709Q21.85082,17.25,22,17.25Q22.07387,17.25,22.14632,17.264411Q22.21877,17.278822,22.287010000000002,17.30709Q22.35526,17.335359,22.41668,17.376398000000002Q22.478099999999998,17.417437,22.53033,17.46967Q22.58256,17.521903000000002,22.6236,17.583322Q22.66464,17.644742,22.692909999999998,17.712987Q22.72118,17.781233,22.735590000000002,17.853682Q22.75,17.9261315,22.75,18Q22.75,18.149184,22.692909999999998,18.287013Q22.635820000000002,18.424841,22.53033,18.53033L22.529870000000003,18.530792L18.53033,22.53033Q18.4781,22.58256,18.41668,22.6236Q18.35526,22.66464,18.287010000000002,22.69291Q18.21877,22.72118,18.14632,22.735590000000002Q18.07387,22.75,18,22.75Q17.92613,22.75,17.85368,22.735590000000002Q17.78123,22.72118,17.71299,22.69291Q17.64474,22.66464,17.58332,22.6236Q17.5219,22.58256,17.46967,22.53033L13.469824,18.530484L13.46967,18.53033Q13.364181,18.424841,13.30709,18.287013Q13.25,18.149184,13.25,18Q13.25,17.9261315,13.264410999999999,17.853682Q13.278822,17.781233,13.30709,17.712987Q13.335359,17.644742,13.376398,17.583322Q13.417437,17.521903000000002,13.46967,17.46967Q13.521903,17.417437,13.583322,17.376398000000002Q13.644742,17.335359,13.712987,17.30709Q13.781233,17.278822,13.853682,17.264411Q13.9261315,17.25,14,17.25Q14.149184,17.25,14.287013,17.30709Q14.424841,17.364181,14.53033,17.46967L14.530484,17.469824Z" fill-rule="evenodd" fill="#13943C" fill-opacity="1" style="mix-blend-mode:passthrough"/></g><g><g><path d="M8.170819999999999,2.83541Q8.25,2.677051,8.25,2.5Q8.25,2.4261315,8.23559,2.353682Q8.22118,2.281233,8.192910000000001,2.212987Q8.16464,2.144742,8.1236,2.083322Q8.08256,2.021903,8.03033,1.96967Q7.9781,1.917437,7.91668,1.876398Q7.85526,1.835359,7.78701,1.80709Q7.71877,1.778822,7.64632,1.764411Q7.57387,1.75,7.5,1.75Q7.3955400000000004,1.75,7.29505,1.778546Q7.19456,1.807092,7.105700000000001,1.862012Q7.01684,1.916931,6.94637,1.994043Q6.8759,2.071156,6.82918,2.16459L2.829322,10.16432L2.829179,10.1646Q2.75,10.32296,2.75,10.50001Q2.75,10.57388,2.764411,10.64633Q2.778822,10.71878,2.80709,10.78702Q2.835359,10.85527,2.876398,10.91669Q2.917437,10.97811,2.96967,11.03034Q3.021903,11.08257,3.083322,11.12361Q3.144742,11.16465,3.212987,11.19292Q3.281233,11.22119,3.353682,11.2356Q3.4261315,11.25001,3.5,11.25001Q3.604463,11.25001,3.70495,11.22147Q3.805437,11.19292,3.894298,11.138Q3.98316,11.08308,4.053632,11.00597Q4.124103,10.92886,4.17082,10.83542L8.170819999999999,2.83541L8.170819999999999,2.83541Z" fill-rule="evenodd" fill="#231F2E" fill-opacity="1"/></g><g><path d="M5.100000023841858,7.75L9.900000023841859,7.75Q9.973870023841858,7.75,10.046320023841858,7.764411Q10.118770023841858,7.778822,10.187010023841857,7.80709Q10.255260023841858,7.835359,10.316680023841858,7.876398Q10.378100023841858,7.917437,10.430330023841858,7.96967Q10.482560023841858,8.021903,10.523600023841858,8.083322Q10.564640023841857,8.144742,10.592910023841858,8.212987Q10.621180023841859,8.281233,10.635590023841857,8.353682Q10.650000023841859,8.4261315,10.650000023841859,8.5Q10.650000023841859,8.5738685,10.635590023841857,8.646318Q10.621180023841859,8.718767,10.592910023841858,8.787013Q10.564640023841857,8.855258,10.523600023841858,8.916678Q10.482560023841858,8.978097,10.430330023841858,9.03033Q10.378100023841858,9.082563,10.316680023841858,9.123602Q10.255260023841858,9.164641,10.187010023841857,9.19291Q10.118770023841858,9.221178,10.046320023841858,9.235589000000001Q9.973870023841858,9.25,9.900000023841859,9.25L5.100000023841858,9.25Q5.026131523841858,9.25,4.953682023841858,9.235589000000001Q4.881233023841858,9.221178,4.812987023841858,9.19291Q4.744742023841858,9.164641,4.683322023841858,9.123602Q4.621903023841858,9.082563,4.569670023841858,9.03033Q4.5174370238418575,8.978097,4.476398023841858,8.916678Q4.435359023841858,8.855258,4.4070900238418576,8.787013Q4.378822023841858,8.718767,4.364411023841858,8.646318Q4.350000023841858,8.5738685,4.350000023841858,8.5Q4.350000023841858,8.4261315,4.364411023841858,8.353682Q4.378822023841858,8.281233,4.4070900238418576,8.212987Q4.435359023841858,8.144742,4.476398023841858,8.083322Q4.5174370238418575,8.021903,4.569670023841858,7.96967Q4.621903023841858,7.917437,4.683322023841858,7.876398Q4.744742023841858,7.835359,4.812987023841858,7.80709Q4.881233023841858,7.778822,4.953682023841858,7.764411Q5.026131523841858,7.75,5.100000023841858,7.75Z" fill-rule="evenodd" fill="#231F2E" fill-opacity="1"/></g><g><path d="M6.829179,2.83541Q6.75,2.677051,6.75,2.5Q6.75,2.4261315,6.764411,2.353682Q6.778822,2.281233,6.80709,2.212987Q6.835359,2.144742,6.876398,2.083322Q6.917437,2.021903,6.96967,1.96967Q7.021903,1.917437,7.083322,1.876398Q7.144742,1.835359,7.212987,1.80709Q7.281233,1.778822,7.353682,1.764411Q7.4261315,1.75,7.5,1.75Q7.604463,1.75,7.70495,1.778546Q7.805437,1.807093,7.894298,1.862012Q7.98316,1.916932,8.053632,1.9940440000000001Q8.124103,2.071156,8.170821,2.16459L12.170819999999999,10.1646Q12.25,10.32296,12.25,10.50001Q12.25,10.57388,12.23559,10.64633Q12.22118,10.71878,12.192910000000001,10.78702Q12.16464,10.85527,12.1236,10.91669Q12.08256,10.97811,12.03033,11.03034Q11.978100000000001,11.08257,11.91668,11.12361Q11.855260000000001,11.16465,11.78701,11.19292Q11.71877,11.22119,11.64632,11.2356Q11.57387,11.25001,11.5,11.25001Q11.39554,11.25001,11.29505,11.22147Q11.19456,11.19292,11.1057,11.138Q11.01684,11.08308,10.94637,11.00597Q10.8759,10.92886,10.829180000000001,10.83542L6.829179,2.83541Z" fill-rule="evenodd" fill="#231F2E" fill-opacity="1"/></g></g></g></svg>