<svg xmlns="http://www.w3.org/2000/svg" xmlns:xlink="http://www.w3.org/1999/xlink" fill="none" version="1.1" width="24" height="24" viewBox="0 0 24 24"><defs><clipPath id="master_svg0_62_03710"><rect x="0" y="0" width="24" height="24" rx="0"/></clipPath></defs><g clip-path="url(#master_svg0_62_03710)"><g><g><path d="M7.75,10.25L7.75,3.75L15.25,3.75L15.25,10.25L7.75,10.25ZM13.75,5.25L9.25,5.25L9.25,8.75L13.75,8.75L13.75,5.25Z" fill-rule="evenodd" fill="#736F78" fill-opacity="1"/></g><g><path d="M1.75,10.25L9.25,10.25L9.25,3.75L4,3.75Q3.0680199999999997,3.75,2.4090097,4.4090098Q1.75,5.06802,1.75,6L1.75,10.25ZM7.75,8.75L3.25,8.75L3.25,6Q3.25,5.68934,3.46967,5.46967Q3.68934,5.25,4,5.25L7.75,5.25L7.75,8.75Z" fill-rule="evenodd" fill="#736F78" fill-opacity="1"/></g><g><path d="M1.75,15.25L1.75,8.75L9.25,8.75L9.25,15.25L1.75,15.25ZM7.75,10.25L3.25,10.25L3.25,13.75L7.75,13.75L7.75,10.25Z" fill-rule="evenodd" fill="#736F78" fill-opacity="1"/></g><g><path d="M4,20.25L9.25,20.25L9.25,13.75L1.75,13.75L1.75,18Q1.75,18.93198,2.4090098,19.590989999999998Q3.0680199999999997,20.25,4,20.25ZM7.75,18.75L4,18.75Q3.68934,18.75,3.46967,18.53033Q3.25,18.31066,3.25,18L3.25,15.25L7.75,15.25L7.75,18.75Z" fill-rule="evenodd" fill="#736F78" fill-opacity="1"/></g><g><path d="M13.75,10.25L21.25,10.25L21.25,6Q21.25,5.06802,20.590989999999998,4.4090099Q19.93198,3.75,19,3.75L13.75,3.75L13.75,10.25ZM19.75,8.75L19.75,6Q19.75,5.68934,19.53033,5.46967Q19.31066,5.25,19,5.25L15.25,5.25L15.25,8.75L19.75,8.75Z" fill-rule="evenodd" fill="#736F78" fill-opacity="1"/></g></g><g><path d="M20.591,19.591Q21.25,18.932000000000002,21.25,18L21.25,6Q21.25,5.06802,20.591,4.4090098Q19.932,3.75,19,3.75L4,3.75Q3.0680199999999997,3.75,2.40901,4.4090098Q1.75,5.068019,1.75,6L1.75,18Q1.75,18.932000000000002,2.40901,19.591Q3.068019,20.25,4,20.25L19,20.25Q19.932,20.25,20.591,19.591ZM19.75,6L19.75,18Q19.75,18.75,19,18.75L4,18.75Q3.25,18.75,3.25,18L3.25,6Q3.25,5.68934,3.46967,5.46967Q3.68934,5.25,4,5.25L19,5.25Q19.3107,5.25,19.5303,5.46967Q19.75,5.68934,19.75,6Z" fill-rule="evenodd" fill="#231F2E" fill-opacity="1"/></g><g><g><path d="M8.5,14.5L14.5,14.5L14.5,9.5L8.5,9.5L8.5,14.5Z" fill="#DE1000" fill-opacity="0.20000000298023224"/><path d="M7.75,15.25L7.75,8.75L15.25,8.75L15.25,15.25L7.75,15.25ZM13.75,10.25L9.25,10.25L9.25,13.75L13.75,13.75L13.75,10.25Z" fill-rule="evenodd" fill="#DE1000" fill-opacity="1"/></g><g><path d="M8.5,19.5L14.5,19.5L14.5,14.5L8.5,14.5L8.5,19.5Z" fill="#DE1000" fill-opacity="0.20000000298023224"/><path d="M7.75,20.25L7.75,13.75L15.25,13.75L15.25,20.25L7.75,20.25ZM13.75,15.25L9.25,15.25L9.25,18.75L13.75,18.75L13.75,15.25Z" fill-rule="evenodd" fill="#DE1000" fill-opacity="1"/></g><g><path d="M14.5,14.5L20.5,14.5L20.5,9.5L14.5,9.5L14.5,14.5Z" fill="#DE1000" fill-opacity="0.20000000298023224"/><path d="M13.75,15.25L13.75,8.75L21.25,8.75L21.25,15.25L13.75,15.25ZM19.75,10.25L15.25,10.25L15.25,13.75L19.75,13.75L19.75,10.25Z" fill-rule="evenodd" fill="#DE1000" fill-opacity="1"/></g><g><path d="M14.5,14.5L14.5,19.5L19,19.5C19.82843,19.5,20.5,18.82843,20.5,18L20.5,14.5L14.5,14.5Z" fill="#DE1000" fill-opacity="0.20000000298023224"/><path d="M20.590989999999998,19.590989999999998Q21.25,18.93198,21.25,18L21.25,13.75L13.75,13.75L13.75,20.25L19,20.25Q19.93198,20.25,20.590989999999998,19.590989999999998ZM19.75,15.25L19.75,18Q19.75,18.31066,19.53033,18.53033Q19.31066,18.75,19,18.75L15.25,18.75L15.25,15.25L19.75,15.25Z" fill-rule="evenodd" fill="#DE1000" fill-opacity="1"/></g></g><g><g><g><path d="M18.23791,15.76304L23.236530000000002,20.76166L23.23744,20.76256Q23.35931,20.88444,23.45507,21.02775Q23.55083,21.17106,23.61679,21.3303Q23.68275,21.489539999999998,23.71637,21.65859Q23.75,21.82764,23.75,22Q23.75,22.08597,23.74157,22.17153Q23.733150000000002,22.257089999999998,23.71637,22.34141Q23.6996,22.42573,23.67464,22.508Q23.64969,22.59027,23.61679,22.66969Q23.58389,22.749119999999998,23.54336,22.824939999999998Q23.50283,22.90076,23.45507,22.97225Q23.40731,23.04373,23.35277,23.11019Q23.29823,23.176650000000002,23.23744,23.23744Q23.176650000000002,23.29823,23.11019,23.35277Q23.04373,23.40731,22.97225,23.45507Q22.90076,23.50283,22.824939999999998,23.54336Q22.749119999999998,23.58389,22.66969,23.61679Q22.59027,23.64969,22.508,23.67464Q22.42573,23.6996,22.34141,23.71637Q22.257089999999998,23.733150000000002,22.17153,23.74157Q22.08597,23.75,22,23.75Q21.82764,23.75,21.65859,23.71637Q21.489539999999998,23.68275,21.3303,23.61679Q21.17106,23.55083,21.02775,23.45507Q20.88444,23.35931,20.76256,23.23744L20.76166,23.236530000000002L15.76304,18.23791L15.76256,18.23744Q15.64069,18.11556,15.54493,17.972248Q15.44917,17.828936,15.38321,17.669696Q15.31725,17.510456,15.28363,17.341408Q15.25,17.17236,15.25,17Q15.25,16.914028,15.25843,16.82847Q15.26685,16.742912,15.28363,16.658592Q15.3004,16.574272,15.32535,16.492002Q15.35031,16.409731999999998,15.38321,16.330304Q15.41611,16.250876,15.45664,16.175056Q15.497160000000001,16.099235,15.54493,16.027752Q15.59269,15.95627,15.64723,15.88981Q15.70177,15.82335,15.76256,15.76256Q15.82335,15.70177,15.88981,15.64723Q15.95627,15.59269,16.027752,15.54493Q16.099235,15.497160000000001,16.175056,15.45664Q16.250876,15.41611,16.330304,15.38321Q16.409731999999998,15.35031,16.492002,15.32535Q16.574272,15.3004,16.658592,15.28363Q16.742912,15.26685,16.82847,15.25843Q16.914028,15.25,17,15.25Q17.17236,15.25,17.341408,15.28363Q17.510456,15.31725,17.669696,15.38321Q17.828936,15.44917,17.972248,15.54493Q18.11556,15.64069,18.23744,15.76256L18.23791,15.76304Z" fill-rule="evenodd" fill="#FFFFFF" fill-opacity="1" style="mix-blend-mode:passthrough"/></g><g><path d="M23.23744,18.23744Q23.35931,18.11556,23.45507,17.972248Q23.55083,17.828936,23.61679,17.669696Q23.68275,17.510456,23.71637,17.341408Q23.75,17.17236,23.75,17Q23.75,16.914028,23.74157,16.82847Q23.733150000000002,16.742912,23.71637,16.658592Q23.6996,16.574272,23.67464,16.492002Q23.64969,16.409731999999998,23.61679,16.330304Q23.58389,16.250876,23.54336,16.175056Q23.50283,16.099235,23.45507,16.027752Q23.40731,15.95627,23.35277,15.88981Q23.29823,15.82335,23.23744,15.76256Q23.176650000000002,15.70177,23.11019,15.64723Q23.04373,15.59269,22.97225,15.54493Q22.90076,15.497160000000001,22.824939999999998,15.45664Q22.749119999999998,15.41611,22.66969,15.38321Q22.59027,15.35031,22.508,15.32535Q22.42573,15.3004,22.34141,15.28363Q22.257089999999998,15.26685,22.17153,15.25843Q22.08597,15.25,22,15.25Q21.82764,15.25,21.65859,15.28363Q21.489539999999998,15.31725,21.3303,15.38321Q21.17106,15.44917,21.02775,15.54493Q20.88444,15.64069,20.76256,15.76256L20.76209,15.76304L15.76256,20.76256Q15.64069,20.88444,15.54493,21.02775Q15.44917,21.17106,15.38321,21.3303Q15.31725,21.489539999999998,15.28363,21.65859Q15.25,21.82764,15.25,22Q15.25,22.08597,15.25843,22.17153Q15.26685,22.257089999999998,15.28363,22.34141Q15.3004,22.42573,15.32535,22.508Q15.35031,22.59027,15.38321,22.66969Q15.41611,22.749119999999998,15.45664,22.824939999999998Q15.497160000000001,22.90076,15.54493,22.97225Q15.59269,23.04373,15.64723,23.11019Q15.70177,23.176650000000002,15.76256,23.23744Q15.82335,23.29823,15.88981,23.35277Q15.95627,23.40731,16.027752,23.45507Q16.099235,23.50283,16.175056,23.54336Q16.250876,23.58389,16.330304,23.61679Q16.409731999999998,23.64969,16.492002,23.67464Q16.574272,23.6996,16.658592,23.71637Q16.742912,23.733150000000002,16.82847,23.74157Q16.914028,23.75,17,23.75Q17.17236,23.75,17.341408,23.71637Q17.510456,23.68275,17.669696,23.61679Q17.828936,23.55083,17.972248,23.45507Q18.11556,23.35931,18.23744,23.23744L18.23834,23.236530000000002L23.23744,18.23744L23.23744,18.23744Z" fill-rule="evenodd" fill="#FFFFFF" fill-opacity="1" style="mix-blend-mode:passthrough"/></g></g><g><g><path d="M17.530484,16.469824L22.5297,21.46904L22.53033,21.46967Q22.63582,21.57516,22.69291,21.712989999999998Q22.75,21.85082,22.75,22Q22.75,22.07387,22.735590000000002,22.14632Q22.72118,22.21877,22.69291,22.287010000000002Q22.66464,22.35526,22.6236,22.41668Q22.58256,22.4781,22.53033,22.53033Q22.4781,22.58256,22.41668,22.6236Q22.35526,22.66464,22.287010000000002,22.69291Q22.21877,22.72118,22.14632,22.735590000000002Q22.07387,22.75,22,22.75Q21.85082,22.75,21.712989999999998,22.69291Q21.57516,22.63582,21.46967,22.53033L21.46904,22.5297L16.469824,17.530484L16.46967,17.53033Q16.364181,17.424841,16.30709,17.287013Q16.25,17.149184,16.25,17Q16.25,16.9261315,16.264411,16.853682Q16.278822,16.781233,16.30709,16.712987Q16.335359,16.644742,16.376398000000002,16.583322Q16.417437,16.521903000000002,16.46967,16.46967Q16.521903000000002,16.417437,16.583322,16.376398000000002Q16.644742,16.335359,16.712987,16.30709Q16.781233,16.278822,16.853682,16.264411Q16.9261315,16.25,17,16.25Q17.149184,16.25,17.287013,16.30709Q17.424841,16.364181,17.53033,16.46967L17.530484,16.469824Z" fill-rule="evenodd" fill="#DE1000" fill-opacity="1" style="mix-blend-mode:passthrough"/></g><g><path d="M22.53033,17.53033Q22.63582,17.424841,22.69291,17.287013Q22.75,17.149184,22.75,17Q22.75,16.9261315,22.735590000000002,16.853682Q22.72118,16.781233,22.69291,16.712987Q22.66464,16.644742,22.6236,16.583322Q22.58256,16.521903000000002,22.53033,16.46967Q22.4781,16.417437,22.41668,16.376398000000002Q22.35526,16.335359,22.287010000000002,16.30709Q22.21877,16.278822,22.14632,16.264411Q22.07387,16.25,22,16.25Q21.85082,16.25,21.712989999999998,16.30709Q21.57516,16.364181,21.46967,16.46967L21.46921,16.470132L16.470132,21.46921L16.46967,21.46967Q16.364181,21.57516,16.30709,21.712989999999998Q16.25,21.85082,16.25,22Q16.25,22.07387,16.264411,22.14632Q16.278822,22.21877,16.30709,22.287010000000002Q16.335359,22.35526,16.376398000000002,22.41668Q16.417437,22.4781,16.46967,22.53033Q16.521903000000002,22.58256,16.583322,22.6236Q16.644742,22.66464,16.712987,22.69291Q16.781233,22.72118,16.853682,22.735590000000002Q16.9261315,22.75,17,22.75Q17.149184,22.75,17.287013,22.69291Q17.424841,22.63582,17.53033,22.53033L17.530792,22.52987L22.52987,17.530792L22.53033,17.53033L22.53033,17.53033Z" fill-rule="evenodd" fill="#DE1000" fill-opacity="1" style="mix-blend-mode:passthrough"/></g></g></g></g></svg>