<svg xmlns="http://www.w3.org/2000/svg" xmlns:xlink="http://www.w3.org/1999/xlink" fill="none" version="1.1" width="24" height="24" viewBox="0 0 24 24"><defs><clipPath id="master_svg0_63_02894"><rect x="0" y="0" width="24" height="24" rx="0"/></clipPath></defs><g clip-path="url(#master_svg0_63_02894)"><g><path d="M18.0079,2.9422891Q15.4949,2,12,2Q8.50506,2,5.9921500000000005,2.9422891Q3.000001,4.06428,3.000001,6Q3,7.93572,5.99214,9.05771Q8.50506,10,12,10Q15.4949,10,18.0079,9.05771Q21,7.93572,21,6Q21,4.06428,18.0079,2.9422891ZM6.69436,4.81496Q8.867709999999999,4,12,4Q15.1323,4,17.3056,4.81496Q18.2393,5.16508,18.707900000000002,5.58047Q19,5.839449999999999,19,6Q19,6.160550000000001,18.707900000000002,6.41953Q18.2393,6.83492,17.3056,7.18504Q15.1323,8,12,8Q8.867709999999999,8,6.69436,7.18504Q5.76065,6.83492,5.29211,6.41953Q5,6.160550000000001,5,6Q5,5.839449999999999,5.29211,5.58047Q5.76066,5.16508,6.69436,4.81496Z" fill-rule="evenodd" fill="#231F2E" fill-opacity="1"/></g><g><path d="M3,6Q3,5.9015086,3.019215,5.80491Q3.03843,5.708311,3.076121,5.617317Q3.1138120000000002,5.526322,3.16853,5.44443Q3.223249,5.362537,3.292893,5.292893Q3.362537,5.223249,3.44443,5.16853Q3.526322,5.113812,3.617317,5.076121Q3.708311,5.03843,3.80491,5.019215Q3.9015086,5,4,5Q4.0984914,5,4.19509,5.019215Q4.291689,5.03843,4.382683,5.076121Q4.473678,5.113812,4.55557,5.16853Q4.637463,5.223249,4.707107,5.292893Q4.776751,5.362537,4.83147,5.44443Q4.886188,5.526322,4.923879,5.617317Q4.96157,5.708311,4.980785,5.80491Q5,5.9015086,5,6L5,12Q5,12.16055,5.29211,12.41953Q5.76065,12.83492,6.69436,13.18504Q8.867709999999999,14,12,14Q13.56655,14,14.9912,13.77169L14.9917,13.7716Q15.0704,13.759,15.15,13.759Q15.2485,13.759,15.3451,13.77821Q15.4417,13.79743,15.5327,13.83512Q15.6237,13.872810000000001,15.7056,13.92753Q15.7875,13.98225,15.8571,14.05189Q15.9267,14.12154,15.9815,14.20343Q16.0362,14.28532,16.073900000000002,14.37632Q16.1116,14.46731,16.1308,14.56391Q16.15,14.66051,16.15,14.759Q16.15,14.84748,16.1345,14.93459Q16.1189,15.0217,16.0883,15.10473Q16.0577,15.18776,16.012999999999998,15.26412Q15.9684,15.34049,15.9109,15.40782Q15.8535,15.47515,15.7852,15.53136Q15.7168,15.58756,15.6397,15.63089Q15.5625,15.67422,15.479,15.70333Q15.3954,15.73244,15.3081,15.74643L15.3052,15.74689Q13.72441,16,12,16Q8.50506,16,5.99214,15.05771Q3,13.93572,3,12L3,6Q3,6.0984914,3.019215,6.19509Q3.03843,6.291689,3.076121,6.382683Q3.1138120000000002,6.473678,3.16853,6.55557Q3.223249,6.637463,3.292893,6.707107Q3.362537,6.776751,3.44443,6.83147Q3.526322,6.886188,3.617317,6.923879Q3.708311,6.96157,3.80491,6.980785Q3.9015086,7,4,7Q4.0984914,7,4.19509,6.980785Q4.291689,6.96157,4.382683,6.923879Q4.473678,6.886188,4.55557,6.83147Q4.637463,6.776751,4.707107,6.707107Q4.776751,6.637463,4.83147,6.55557Q4.886188,6.473678,4.923879,6.382683Q4.96157,6.291689,4.980785,6.19509Q5,6.0984914,5,6L3,6Z" fill-rule="evenodd" fill="#231F2E" fill-opacity="1"/></g><g><path d="M19,6Q19,5.9015086,19.019215,5.80491Q19.038429999999998,5.708311,19.076121,5.617317Q19.113812,5.526322,19.16853,5.44443Q19.223249,5.362537,19.292893,5.292893Q19.362537,5.223249,19.44443,5.16853Q19.526322,5.113812,19.617317,5.076121Q19.708311,5.03843,19.80491,5.019215Q19.9015086,5,20,5Q20.0984914,5,20.19509,5.019215Q20.291689,5.03843,20.382683,5.076121Q20.473678,5.113812,20.55557,5.16853Q20.637463,5.223249,20.707107,5.292893Q20.776751,5.362537,20.83147,5.44443Q20.886188,5.526322,20.923879,5.617317Q20.961570000000002,5.708311,20.980785,5.80491Q21,5.9015086,21,6L21,12Q21,12.09849,20.980785,12.19509Q20.961570000000002,12.29169,20.923879,12.38268Q20.886188,12.47368,20.83147,12.55557Q20.776751,12.63746,20.707107,12.70711Q20.637463,12.77675,20.55557,12.83147Q20.473678,12.88619,20.382683,12.92388Q20.291689,12.96157,20.19509,12.98078Q20.0984914,13,20,13Q19.9015086,13,19.80491,12.98078Q19.708311,12.96157,19.617317,12.92388Q19.526322,12.88619,19.44443,12.83147Q19.362537,12.77675,19.292893,12.70711Q19.223249,12.63746,19.16853,12.55557Q19.113812,12.47368,19.076121,12.38268Q19.038429999999998,12.29169,19.019215,12.19509Q19,12.09849,19,12L19,6Z" fill-rule="evenodd" fill="#231F2E" fill-opacity="1"/></g><g><path d="M3,12Q3,11.9015086,3.019215,11.80491Q3.03843,11.708311,3.076121,11.617317Q3.1138120000000002,11.526322,3.16853,11.44443Q3.223249,11.362537,3.292893,11.292893Q3.362537,11.223249,3.44443,11.16853Q3.526322,11.113812,3.617317,11.076121Q3.708311,11.03843,3.80491,11.019214999999999Q3.9015086,11,4,11Q4.0984914,11,4.19509,11.019214999999999Q4.291689,11.03843,4.382683,11.076121Q4.473678,11.113812,4.55557,11.16853Q4.637463,11.223249,4.707107,11.292893Q4.776751,11.362537,4.83147,11.44443Q4.886188,11.526322,4.923879,11.617317Q4.96157,11.708311,4.980785,11.80491Q5,11.9015086,5,12L5,18Q5,18.16055,5.29211,18.41953Q5.76065,18.83492,6.69436,19.18504Q8.867709999999999,20,12,20Q12.19922,20,12.44578,19.99521L12.44653,19.99519Q12.45627,19.995,12.466,19.995Q12.56449,19.995,12.66109,20.01422Q12.75769,20.03343,12.84868,20.07112Q12.93968,20.10881,13.02157,20.16353Q13.10346,20.218249999999998,13.17311,20.28789Q13.24275,20.35754,13.29747,20.43943Q13.35219,20.52132,13.38988,20.61232Q13.42757,20.703310000000002,13.44678,20.79991Q13.466,20.89651,13.466,20.994999999999997Q13.466,21.09227,13.44726,21.1877Q13.42851,21.28314,13.39173,21.373179999999998Q13.35495,21.46322,13.3015,21.54449Q13.24806,21.62575,13.17996,21.69519Q13.11185,21.76463,13.03165,21.81965Q12.95144,21.874670000000002,12.86213,21.91319Q12.77283,21.95172,12.67777,21.97232Q12.58271,21.992919999999998,12.48547,21.99481Q12.21899,22,12,22Q8.50506,22,5.99214,21.05771Q3,19.93572,3.000001,18L3,12Z" fill-rule="evenodd" fill="#231F2E" fill-opacity="1"/></g><g><path d="M16,18.25L22,18.25Q22.07387,18.25,22.14632,18.264411Q22.21877,18.278822,22.287010000000002,18.30709Q22.35526,18.335359,22.41668,18.376398000000002Q22.4781,18.417437,22.53033,18.46967Q22.58256,18.521903000000002,22.6236,18.583322Q22.66464,18.644742,22.69291,18.712987Q22.72118,18.781233,22.735590000000002,18.853682Q22.75,18.9261315,22.75,19Q22.75,19.0738685,22.735590000000002,19.146318Q22.72118,19.218767,22.69291,19.287013Q22.66464,19.355258,22.6236,19.416678Q22.58256,19.478096999999998,22.53033,19.53033Q22.4781,19.582563,22.41668,19.623601999999998Q22.35526,19.664641,22.287010000000002,19.69291Q22.21877,19.721178,22.14632,19.735589Q22.07387,19.75,22,19.75L16,19.75Q15.9261315,19.75,15.853682,19.735589Q15.781233,19.721178,15.712987,19.69291Q15.644742,19.664641,15.583322,19.623601999999998Q15.521903,19.582563,15.46967,19.53033Q15.417437,19.478096999999998,15.376398,19.416678Q15.335359,19.355258,15.30709,19.287013Q15.278822,19.218767,15.264410999999999,19.146318Q15.25,19.0738685,15.25,19Q15.25,18.9261315,15.264410999999999,18.853682Q15.278822,18.781233,15.30709,18.712987Q15.335359,18.644742,15.376398,18.583322Q15.417437,18.521903000000002,15.46967,18.46967Q15.521903,18.417437,15.583322,18.376398000000002Q15.644742,18.335359,15.712987,18.30709Q15.781233,18.278822,15.853682,18.264411Q15.9261315,18.25,16,18.25Z" fill-rule="evenodd" fill="#2882FF" fill-opacity="1"/></g><g><path d="M18.25,16Q18.25,15.9261315,18.264411,15.853682Q18.278822,15.781233,18.30709,15.712987Q18.335359,15.644742,18.376398000000002,15.583322Q18.417437,15.521903,18.46967,15.46967Q18.521903000000002,15.417437,18.583322,15.376398Q18.644742,15.335359,18.712987,15.30709Q18.781233,15.278822,18.853682,15.264410999999999Q18.9261315,15.25,19,15.25Q19.0738685,15.25,19.146318,15.264410999999999Q19.218767,15.278822,19.287013,15.30709Q19.355258,15.335359,19.416678,15.376398Q19.478096999999998,15.417437,19.53033,15.46967Q19.582563,15.521903,19.623601999999998,15.583322Q19.664641,15.644742,19.69291,15.712987Q19.721178,15.781233,19.735589,15.853682Q19.75,15.9261315,19.75,16L19.75,22Q19.75,22.07387,19.735589,22.14632Q19.721178,22.21877,19.69291,22.287010000000002Q19.664641,22.35526,19.623601999999998,22.41668Q19.582563,22.4781,19.53033,22.53033Q19.478096999999998,22.58256,19.416678,22.6236Q19.355258,22.66464,19.287013,22.69291Q19.218767,22.72118,19.146318,22.735590000000002Q19.0738685,22.75,19,22.75Q18.9261315,22.75,18.853682,22.735590000000002Q18.781233,22.72118,18.712987,22.69291Q18.644742,22.66464,18.583322,22.6236Q18.521903000000002,22.58256,18.46967,22.53033Q18.417437,22.4781,18.376398000000002,22.41668Q18.335359,22.35526,18.30709,22.287010000000002Q18.278822,22.21877,18.264411,22.14632Q18.25,22.07387,18.25,22L18.25,16Z" fill-rule="evenodd" fill="#2882FF" fill-opacity="1"/></g></g></svg>