<svg xmlns="http://www.w3.org/2000/svg" xmlns:xlink="http://www.w3.org/1999/xlink" fill="none" version="1.1" width="24" height="24" viewBox="0 0 24 24"><defs><clipPath id="master_svg0_78_01378"><rect x="0" y="0" width="24" height="24" rx="0"/></clipPath></defs><g clip-path="url(#master_svg0_78_01378)"><g><path d="M9.1560160078125,3.762965L9.6003480078125,5.09597L9.6004180078125,5.09616Q9.6388980078125,5.21162,9.6388980078125,5.33333Q9.6388980078125,5.4072,9.6244880078125,5.4796499999999995Q9.6100780078125,5.5521,9.5818080078125,5.62035Q9.5535480078125,5.68859,9.5125080078125,5.75001Q9.4714680078125,5.81143,9.4192320078125,5.86366Q9.3669990078125,5.9159,9.3055800078125,5.9569399999999995Q9.244161007812501,5.9979700000000005,9.1759150078125,6.02624Q9.1076690078125,6.0545100000000005,9.0352200078125,6.06892Q8.9627710078125,6.08333,8.8889020078125,6.08333Q8.8302340078125,6.08333,8.7722800078125,6.07421Q8.7143250078125,6.06509,8.6584940078125,6.04706Q8.6026630078125,6.02904,8.5503130078125,6.002549999999999Q8.4979639078125,5.97607,8.4503697278125,5.94177Q8.4027756078125,5.90746,8.3610945078125,5.86617Q8.3194130078125,5.82489,8.2846590078125,5.77762Q8.2499050078125,5.73035,8.2229240078125,5.67826Q8.1959420078125,5.6261600000000005,8.1773900078125,5.5705L8.1773780078125,5.57047L7.7329910078125,4.237306L7.7329460078125,4.237171Q7.6944580078125,4.121708,7.6944580078125,4Q7.6944580078125,3.9261315,7.7088690078125,3.853682Q7.7232800078125,3.781233,7.7515480078125,3.712987Q7.7798170078125,3.644742,7.8208560078125,3.583322Q7.8618950078125,3.521903,7.9141280078125,3.46967Q7.9663610078125,3.417437,8.0277800078125,3.376398Q8.0892000078125,3.335359,8.1574450078125,3.30709Q8.2256910078125,3.278822,8.2981400078125,3.264411Q8.3705895078125,3.25,8.4444580078125,3.25Q8.5031262078125,3.25,8.5610810078125,3.2591229999999998Q8.6190350078125,3.268246,8.6748670078125,3.286269Q8.7306980078125,3.304293,8.7830470078125,3.330778Q8.8353960078125,3.357264,8.8829910078125,3.391568Q8.9305850078125,3.425872,8.9722660078125,3.46716Q9.0139470078125,3.508447,9.0487010078125,3.555714Q9.0834550078125,3.60298,9.110436007812499,3.655076Q9.1374180078125,3.707172,9.1559700078125,3.762829L9.1560160078125,3.762965Z" fill-rule="evenodd" fill="#231F2E" fill-opacity="1"/></g><g><path d="M4,5.47222900390625L13.77778,5.47222900390625Q13.85165,5.47222900390625,13.9241,5.48664000390625Q13.99654,5.50105100390625,14.0648,5.52931900390625Q14.133,5.55758800390625,14.1945,5.59862700390625Q14.2559,5.63966600390625,14.3081,5.69189900390625Q14.3603,5.74413200390625,14.4014,5.80555100390625Q14.4424,5.86697100390625,14.4707,5.93521600390625Q14.499,6.00346200390625,14.5134,6.07591100390625Q14.5278,6.14836050390625,14.5278,6.22222900390625Q14.5278,6.29609750390625,14.5134,6.36854700390625Q14.499,6.44099600390625,14.4707,6.50924200390625Q14.4424,6.57748700390625,14.4014,6.63890700390625Q14.3603,6.70032600390625,14.3081,6.75255900390625Q14.2559,6.80479200390625,14.1945,6.84583100390625Q14.133,6.88687000390625,14.0648,6.91513900390625Q13.99654,6.94340700390625,13.9241,6.95781800390625Q13.85165,6.97222900390625,13.77778,6.97222900390625L4,6.97222900390625Q3.9261315,6.97222900390625,3.853682,6.95781800390625Q3.781233,6.94340700390625,3.712987,6.91513900390625Q3.644742,6.88687000390625,3.583322,6.84583100390625Q3.521903,6.80479200390625,3.46967,6.75255900390625Q3.417437,6.70032600390625,3.376398,6.63890700390625Q3.335359,6.57748700390625,3.30709,6.50924200390625Q3.278822,6.44099600390625,3.264411,6.36854700390625Q3.25,6.29609750390625,3.25,6.22222900390625Q3.25,6.14836050390625,3.264411,6.07591100390625Q3.278822,6.00346200390625,3.30709,5.93521600390625Q3.335359,5.86697100390625,3.376398,5.80555100390625Q3.417437,5.74413200390625,3.46967,5.69189900390625Q3.521903,5.63966600390625,3.583322,5.59862700390625Q3.644742,5.55758800390625,3.712987,5.52931900390625Q3.781233,5.50105100390625,3.853682,5.48664000390625Q3.9261315,5.47222900390625,4,5.47222900390625Z" fill-rule="evenodd" fill="#231F2E" fill-opacity="1"/></g><g><path d="M5.05664799609375,8.6505700078125Q5.02777099609375,8.5495370078125,5.02777099609375,8.4444580078125Q5.02777099609375,8.3705895078125,5.04218199609375,8.2981400078125Q5.05659299609375,8.2256910078125,5.08486099609375,8.1574450078125Q5.11312999609375,8.0892000078125,5.15416899609375,8.0277800078125Q5.19520799609375,7.9663610078125,5.24744099609375,7.9141280078125Q5.29967399609375,7.8618950078125,5.36109299609375,7.8208560078125Q5.42251299609375,7.7798170078125,5.49075799609375,7.7515480078125Q5.55900399609375,7.7232800078125,5.63145299609375,7.7088690078125Q5.70390249609375,7.6944580078125,5.77777099609375,7.6944580078125Q5.83848419609375,7.6944580078125,5.89840699609375,7.7042240078125Q5.95832999609375,7.7139890078125,6.01590099609375,7.7332660078124995Q6.07347299609375,7.7525430078125,6.12719399609375,7.7808290078125Q6.18091599609375,7.8091150078125,6.22938799609375,7.8456740078125Q6.27785999609375,7.8822330078125,6.31982099609375,7.9261120078125Q6.36178099609375,7.9699920078125,6.39613799609375,8.0200490078125Q6.43049399609375,8.0701070078125,6.45635099609375,8.1250380078125Q6.48220899609375,8.1799700078125,6.49889399609375,8.2383460078125Q7.22689099609375,10.7853780078125,9.02177099609375,12.1808580078125Q10.91876099609375,13.6557980078125,14.03524099609375,14.8510480078125L14.70359099609375,15.0834880078125L14.70430099609375,15.0837280078125Q14.75914099609375,15.102798007812499,14.81038099609375,15.1300880078125Q14.86163099609375,15.1573680078125,14.90807099609375,15.1922080078125Q14.95451099609375,15.2270580078125,14.99504099609375,15.268628007812499Q15.03556099609375,15.3102080078125,15.06920099609375,15.357528007812501Q15.10284099609375,15.4048480078125,15.12880099609375,15.456778007812499Q15.15476099609375,15.508708007812501,15.17242099609375,15.5640180078125Q15.19008099609375,15.619318007812499,15.19901099609375,15.676688007812501Q15.20795099609375,15.7340580078125,15.20795099609375,15.792118007812501Q15.20794099609375,15.865978007812501,15.19353099609375,15.938428007812501Q15.17912099609375,16.0108780078125,15.15085099609375,16.0791280078125Q15.12259099609375,16.1473680078125,15.08155099609375,16.2087880078125Q15.04051099609375,16.2702080078125,14.98828099609375,16.3224480078125Q14.93604099609375,16.3746780078125,14.87462099609375,16.4157180078125Q14.81320099609375,16.4567580078125,14.74496099609375,16.4850180078125Q14.67671099609375,16.5132880078125,14.60426099609375,16.5276980078125Q14.53181099609375,16.542118007812498,14.45795099609375,16.542118007812498Q14.33125099609375,16.542118007812498,14.21159099609375,16.5004980078125L14.21130099609375,16.5003980078125L13.53141099609375,16.263958007812498Q13.52037099609375,16.2601180078125,13.50945099609375,16.2559280078125Q10.177290996093749,14.9793480078125,8.10106099609375,13.365038007812501Q5.91931899609375,11.6687880078125,5.05664799609375,8.6505700078125Z" fill-rule="evenodd" fill="#231F2E" fill-opacity="1"/></g><g><path d="M12.73282,6.38181600390625Q12.75,6.30294680390625,12.75,6.22222900390625Q12.75,6.14836050390625,12.73559,6.07591100390625Q12.72118,6.00346200390625,12.69291,5.93521600390625Q12.66464,5.86697100390625,12.6236,5.80555100390625Q12.58256,5.74413200390625,12.53033,5.69189900390625Q12.4781,5.63966600390625,12.41668,5.59862700390625Q12.35526,5.55758800390625,12.28701,5.52931900390625Q12.21877,5.50105100390625,12.14632,5.48664000390625Q12.07387,5.47222900390625,12,5.47222900390625Q11.93627,5.47222900390625,11.87345,5.48298300390625Q11.81063,5.49373700390625,11.75052,5.51493700390625Q11.69042,5.53613600390625,11.63476,5.56717400390625Q11.57909,5.5982110039062505,11.52946,5.63819600390625Q11.47983,5.67818000390625,11.437660000000001,5.72596600390625Q11.395489999999999,5.7737520039062495,11.361989999999999,5.82796800390625Q11.32849,5.88218500390625,11.30461,5.94127700390625Q11.28074,6.00036900390625,11.26718,6.06264200390625Q10.51781,9.50374900390625,8.680679999999999,11.37845900390625Q6.77999,13.318069003906249,3.663968,14.88504900390625L3.66307,14.88549900390625Q3.569936,14.93232900390625,3.493103,15.00278900390625Q3.416271,15.07324900390625,3.361566,15.16198900390625Q3.306861,15.25071900390625,3.27843,15.35101900390625Q3.25,15.45131900390625,3.25,15.55555900390625Q3.25,15.62942900390625,3.264411,15.70187900390625Q3.278822,15.77432900390625,3.30709,15.84256900390625Q3.335359,15.91081900390625,3.376398,15.97223900390625Q3.417437,16.03365900390625,3.46967,16.08588900390625Q3.521903,16.138119003906247,3.583322,16.17915900390625Q3.644742,16.220199003906252,3.712987,16.24842900390625Q3.781233,16.27672900390625,3.853682,16.29112900390625Q3.9261315,16.30552900390625,4,16.30552900390625Q4.177949,16.30552900390625,4.33693,16.22562900390625Q7.6764600000000005,14.54638900390625,9.752030000000001,12.42830900390625Q11.89129,10.24529900390625,12.73264,6.38268500390625L12.73275,6.38213900390625L12.73282,6.38181600390625L12.73282,6.38181600390625Z" fill-rule="evenodd" fill="#231F2E" fill-opacity="1"/></g><g><path d="M13.222676015625,17.46596L12.206809015625,19.68818Q12.138916015625,19.8367,12.138916015625,20Q12.138916015625,20.07387,12.153327015624999,20.14632Q12.167738015625,20.21877,12.196006015625,20.287010000000002Q12.224275015625,20.35526,12.265314015625,20.41668Q12.306353015625,20.478099999999998,12.358586015625,20.53033Q12.410819015625,20.58256,12.472238015625,20.6236Q12.533658015625,20.66464,12.601903015625,20.692909999999998Q12.670149015625,20.72118,12.742598015625,20.735590000000002Q12.815047515625,20.75,12.888916015625,20.75Q12.996714015625,20.75,13.100148015625,20.71964Q13.203582015625,20.68928,13.294278015625,20.63102Q13.384974015625,20.57275,13.455589015625,20.49131Q13.526205015624999,20.409860000000002,13.571023015625,20.31182L13.571086015625,20.311680000000003L14.386576015625,18.52778L18.502366015625,18.52778L19.317916015625002,20.31182Q19.348636015625,20.378999999999998,19.391856015625,20.4389Q19.435086015625,20.4988,19.489166015625,20.54911Q19.543256015625,20.599429999999998,19.606116015625,20.63823Q19.668976015625,20.67702,19.738196015625,20.70281Q19.807416015625,20.7286,19.880336015624998,20.740389999999998Q19.953256015625,20.75218,20.027076015625,20.74951Q20.100896015625,20.746850000000002,20.172786015625,20.72983Q20.244666015625,20.71282,20.311846015625,20.68211Q20.447526015625,20.62008,20.549136015625,20.51086Q20.650756015625,20.40163,20.702836015625,20.26183Q20.754916015625,20.12204,20.749536015625,19.97295Q20.744156015625002,19.82386,20.682136015624998,19.68818L19.668556015625,17.47097L17.131066015625,11.698198Q17.074396015625,11.569261000000001,16.974806015625,11.46967Q16.875206015625,11.370079,16.746276015625,11.313403Q16.678646015625,11.283678,16.606526015625,11.267717Q16.534406015625,11.251756,16.460546015625,11.250172Q16.386696015625,11.248588999999999,16.313956015625,11.261443Q16.241216015625,11.274298,16.172376015624998,11.301096Q16.103546015625,11.327895,16.041256015625,11.367608Q15.978976015625,11.407321,15.925636015624999,11.458422Q15.872296015625,11.509523,15.829946015625,11.570049Q15.787596015625,11.630574,15.757876015625,11.698198L13.222676015625,17.46596ZM17.835236015625,17.02778L16.444456015625,13.86378L15.053636015624999,17.02778L17.835236015625,17.02778Z" fill-rule="evenodd" fill="#2882FF" fill-opacity="1"/></g></g></svg>