<svg xmlns="http://www.w3.org/2000/svg" xmlns:xlink="http://www.w3.org/1999/xlink" fill="none" version="1.1" width="24" height="24" viewBox="0 0 24 24"><defs><clipPath id="master_svg0_62_08067"><rect x="0" y="0" width="24" height="24" rx="0"/></clipPath></defs><g clip-path="url(#master_svg0_62_08067)"><g><path d="M16.25,7L16.25,5Q16.25,4.31461,16.541600000000003,3.75L8,3.75Q7.06802,3.75,6.40901,4.40901Q5.75,5.068020000000001,5.75,6L5.75,16.25L13,16.25Q13.0739,16.25,13.1463,16.264400000000002Q13.2188,16.2788,13.287,16.3071Q13.3553,16.3354,13.4167,16.3764Q13.4781,16.4174,13.5303,16.4697Q13.5826,16.521900000000002,13.6236,16.5833Q13.6646,16.6447,13.6929,16.713Q13.7212,16.7812,13.7356,16.8537Q13.75,16.926099999999998,13.75,17L13.75,19Q13.75,20.25,15,20.25Q16.25,20.25,16.25,19L16.25,7ZM12.54162,20.25Q12.25,19.6854,12.25,19L12.25,17.75L3.75,17.75L3.75,18Q3.75,18.932000000000002,4.40901,19.591Q5.068020000000001,20.25,6,20.25L12.54162,20.25ZM4.25,16.25L4.25,6Q4.25,4.4467,5.34835,3.348349Q6.4467,2.25,8,2.25L19,2.25Q20.1391,2.25,20.9445,3.0554565Q21.75,3.860912,21.75,5Q21.75,6.1390899999999995,20.9445,6.94454Q20.1391,7.75,19,7.75L17.75,7.75L17.75,19Q17.75,20.1391,16.944499999999998,20.9445Q16.1391,21.75,15,21.75L6,21.75Q4.4467,21.75,3.348349,20.6517Q2.25,19.5533,2.25,18L2.25,17Q2.25,16.926099999999998,2.264411,16.8537Q2.278822,16.7812,2.30709,16.713Q2.335359,16.6447,2.376398,16.5833Q2.417437,16.521900000000002,2.46967,16.4697Q2.521903,16.4174,2.583322,16.3764Q2.644742,16.3354,2.712987,16.3071Q2.781233,16.2788,2.853682,16.264400000000002Q2.9261315,16.25,3,16.25L4.25,16.25ZM17.75,6.25L19,6.25Q20.25,6.25,20.25,5Q20.25,3.75,19,3.75Q17.75,3.75,17.75,5L17.75,6.25Z" fill-rule="evenodd" fill="#231F2E" fill-opacity="1"/></g><g><path d="M9,6.25L13,6.25Q13.07387,6.25,13.14632,6.264411Q13.21877,6.278822,13.28701,6.30709Q13.355260000000001,6.335359,13.41668,6.376398Q13.478100000000001,6.417437,13.53033,6.46967Q13.58256,6.521903,13.6236,6.583322Q13.66464,6.644742,13.692910000000001,6.712987Q13.72118,6.781233,13.73559,6.853682Q13.75,6.9261315,13.75,7Q13.75,7.0738685,13.73559,7.146318Q13.72118,7.218767,13.692910000000001,7.287013Q13.66464,7.355258,13.6236,7.416678Q13.58256,7.478097,13.53033,7.53033Q13.478100000000001,7.582563,13.41668,7.623602Q13.355260000000001,7.664641,13.28701,7.69291Q13.21877,7.721178,13.14632,7.735589Q13.07387,7.75,13,7.75L9,7.75Q8.9261315,7.75,8.853682,7.735589Q8.781233,7.721178,8.712987,7.69291Q8.644742,7.664641,8.583322,7.623602Q8.521903,7.582563,8.46967,7.53033Q8.417437,7.478097,8.376398,7.416678Q8.335359,7.355258,8.30709,7.287013Q8.278822,7.218767,8.264410999999999,7.146318Q8.25,7.0738685,8.25,7Q8.25,6.9261315,8.264410999999999,6.853682Q8.278822,6.781233,8.30709,6.712987Q8.335359,6.644742,8.376398,6.583322Q8.417437,6.521903,8.46967,6.46967Q8.521903,6.417437,8.583322,6.376398Q8.644742,6.335359,8.712987,6.30709Q8.781233,6.278822,8.853682,6.264411Q8.9261315,6.25,9,6.25Z" fill-rule="evenodd" fill="#13943C" fill-opacity="1" style="mix-blend-mode:passthrough"/></g><g><path d="M9,10.25L13,10.25Q13.07387,10.25,13.14632,10.264410999999999Q13.21877,10.278822,13.28701,10.30709Q13.355260000000001,10.335359,13.41668,10.376398Q13.478100000000001,10.417437,13.53033,10.46967Q13.58256,10.521903,13.6236,10.583322Q13.66464,10.644742,13.692910000000001,10.712987Q13.72118,10.781233,13.73559,10.853682Q13.75,10.9261315,13.75,11Q13.75,11.0738685,13.73559,11.146318Q13.72118,11.218767,13.692910000000001,11.287013Q13.66464,11.355258,13.6236,11.416678Q13.58256,11.478097,13.53033,11.53033Q13.478100000000001,11.582563,13.41668,11.623602Q13.355260000000001,11.664641,13.28701,11.69291Q13.21877,11.721178,13.14632,11.735589000000001Q13.07387,11.75,13,11.75L9,11.75Q8.9261315,11.75,8.853682,11.735589000000001Q8.781233,11.721178,8.712987,11.69291Q8.644742,11.664641,8.583322,11.623602Q8.521903,11.582563,8.46967,11.53033Q8.417437,11.478097,8.376398,11.416678Q8.335359,11.355258,8.30709,11.287013Q8.278822,11.218767,8.264410999999999,11.146318Q8.25,11.0738685,8.25,11Q8.25,10.9261315,8.264410999999999,10.853682Q8.278822,10.781233,8.30709,10.712987Q8.335359,10.644742,8.376398,10.583322Q8.417437,10.521903,8.46967,10.46967Q8.521903,10.417437,8.583322,10.376398Q8.644742,10.335359,8.712987,10.30709Q8.781233,10.278822,8.853682,10.264410999999999Q8.9261315,10.25,9,10.25Z" fill-rule="evenodd" fill="#13943C" fill-opacity="1" style="mix-blend-mode:passthrough"/></g><g><g><path d="M14.25,16.726247L14.25,21.27375Q14.25,22.04438,14.7671,22.61576Q15.284187,23.18714,16.0509927,23.26383L20.55099,23.71383Q21.43402,23.80213,22.092010000000002,23.20666Q22.75,22.61118,22.75,21.72375L22.75,16.276247Q22.75,15.388814,22.092010000000002,14.79334Q21.43402,14.19787,20.55099,14.28617L16.0509924,14.73617Q15.284189,14.812850000000001,14.76709,15.384237Q14.25,15.9556201,14.25,16.726247ZM17.75,19.91627L19.25,20.06627L19.25,17.93373L17.75,18.08373L17.75,19.91627Z" fill-rule="evenodd" fill="#FFFFFF" fill-opacity="1"/></g><g><path d="M16,21.27375C16,21.40219,16.0973236,21.50973,16.225124,21.52251L20.72512,21.97251C20.8723,21.98723,21,21.87166,21,21.72375L21,16.276247C21,16.128341,20.8723,16.0127704,20.72512,16.0274876L16.225124,16.477488C16.0973236,16.490268,16,16.597809,16,16.726247L16,21.27375Z" fill="#13943C" fill-opacity="1"/><path d="M15.25,16.726247L15.25,21.27375Q15.25,21.65907,15.508548,21.94476Q15.767094,22.23045,16.150496,22.26879L20.6505,22.71879Q21.092010000000002,22.76294,21.42101,22.46521Q21.75,22.16747,21.75,21.72375L21.75,16.276247Q21.75,15.83253,21.42101,15.534794Q21.092010000000002,15.237058,20.6505,15.28121L16.150496,15.73121Q15.767095,15.76955,15.508547,16.0552417Q15.25,16.340933,15.25,16.726247ZM16.75,20.82126L20.25,21.17126L20.25,16.828741L16.75,17.17874L16.75,20.82126Z" fill-rule="evenodd" fill="#13943C" fill-opacity="1"/></g><g><path d="M17.083975,17.77735Q17,17.651388,17,17.5Q17,17.4507543,17.009607,17.4024549Q17.019215,17.354155,17.03806,17.308658Q17.056906,17.263161,17.084265,17.222215Q17.111625,17.181269,17.146447,17.146447Q17.181269,17.111625,17.222215,17.084265Q17.263161,17.056906,17.308658,17.03806Q17.354155,17.019215,17.4024549,17.009607Q17.4507543,17,17.5,17Q17.5617355,17,17.621617,17.015016Q17.681498,17.030032,17.735929,17.059163Q17.79036,17.088293,17.83607,17.129788Q17.88178,17.171283,17.916025,17.22265L19.91603,20.22265Q20,20.34861,20,20.5Q20,20.54925,19.99039,20.59754Q19.98078,20.64584,19.96194,20.69134Q19.94309,20.73684,19.91573,20.77778Q19.88838,20.81873,19.85355,20.85355Q19.81873,20.888370000000002,19.77779,20.91573Q19.73684,20.94309,19.69134,20.96194Q19.64584,20.98078,19.59754,20.99039Q19.54925,21,19.5,21Q19.43826,21,19.37838,20.98498Q19.3185,20.96997,19.26407,20.94084Q19.20964,20.91171,19.16393,20.87021Q19.11822,20.82872,19.08397,20.77735L17.083975,17.77735Z" fill-rule="evenodd" fill="#FFFFFF" fill-opacity="1"/></g><g><path d="M19.91603,17.77735Q20,17.651388,20,17.5Q20,17.4507543,19.99039,17.4024549Q19.98078,17.354155,19.96194,17.308658Q19.94309,17.263161,19.91573,17.222215Q19.88838,17.181269,19.85355,17.146447Q19.81873,17.111625,19.77779,17.084265Q19.73684,17.056906,19.69134,17.03806Q19.64584,17.019215,19.59754,17.009607Q19.54925,17,19.5,17Q19.43826,17,19.37838,17.015016Q19.3185,17.030032,19.26407,17.059163Q19.20964,17.088293,19.16393,17.129788Q19.11822,17.171283,19.08397,17.22265L17.083975,20.22265Q17,20.34861,17,20.5Q17,20.54925,17.009607,20.59754Q17.019215,20.64584,17.03806,20.69134Q17.056906,20.73684,17.084265,20.77778Q17.111625,20.81873,17.146447,20.85355Q17.181269,20.888370000000002,17.222215,20.91573Q17.263161,20.94309,17.308658,20.96194Q17.354155,20.98078,17.4024549,20.99039Q17.4507543,21,17.5,21Q17.5617355,21,17.621617,20.98498Q17.681498,20.96997,17.735929,20.94084Q17.79036,20.91171,17.83607,20.87021Q17.88178,20.82872,17.916025,20.77735L19.91603,17.77735Z" fill-rule="evenodd" fill="#FFFFFF" fill-opacity="1"/></g></g></g></svg>