<svg xmlns="http://www.w3.org/2000/svg" xmlns:xlink="http://www.w3.org/1999/xlink" fill="none" version="1.1" width="24" height="24" viewBox="0 0 24 24"><defs><clipPath id="master_svg0_63_02790"><rect x="0" y="0" width="24" height="24" rx="0"/></clipPath></defs><g clip-path="url(#master_svg0_63_02790)"><g><path d="M12.99998950958252,4.25L20.49998950958252,4.25Q21.43196950958252,4.25,22.090979509582517,4.9090098Q22.74998950958252,5.568021,22.74998950958252,6.5L22.74998950958252,14.5Q22.74998950958252,14.57387,22.73557950958252,14.64632Q22.72116950958252,14.71877,22.692899509582517,14.78701Q22.664629509582518,14.85526,22.62358950958252,14.91668Q22.58254950958252,14.9781,22.53031950958252,15.0303Q22.478089509582517,15.0826,22.41666950958252,15.1236Q22.35524950958252,15.1646,22.28699950958252,15.1929Q22.21875950958252,15.2212,22.14630950958252,15.2356Q22.07385950958252,15.25,21.99998950958252,15.25Q21.92611950958252,15.25,21.85366950958252,15.2356Q21.78121950958252,15.2212,21.712979509582517,15.1929Q21.64472950958252,15.1646,21.58330950958252,15.1236Q21.521889509582522,15.0826,21.46965950958252,15.0303Q21.41742950958252,14.9781,21.37638950958252,14.91668Q21.33534950958252,14.85526,21.307079509582522,14.78701Q21.27880950958252,14.71877,21.264399509582518,14.64632Q21.24998950958252,14.57387,21.24998950958252,14.5L21.24998950958252,6.5Q21.24998950958252,6.18934,21.03031950958252,5.96967Q20.810649509582518,5.75,20.49998950958252,5.75L12.99998950958252,5.75Q12.92612100958252,5.75,12.853671509582519,5.735589Q12.78122250958252,5.721178,12.71297650958252,5.69291Q12.64473150958252,5.664641,12.58331150958252,5.623602Q12.52189250958252,5.582563,12.46965950958252,5.53033Q12.41742650958252,5.478097,12.37638750958252,5.416678Q12.33534850958252,5.355258,12.30707950958252,5.287013Q12.27881150958252,5.218767,12.264400509582519,5.146318Q12.24998950958252,5.0738685,12.24998950958252,5Q12.24998950958252,4.9261315,12.264400509582519,4.853682Q12.27881150958252,4.781233,12.30707950958252,4.712987Q12.33534850958252,4.644742,12.37638750958252,4.583322Q12.41742650958252,4.521903,12.46965950958252,4.46967Q12.52189250958252,4.417437,12.58331150958252,4.376398Q12.64473150958252,4.335359,12.71297650958252,4.30709Q12.78122250958252,4.278822,12.853671509582519,4.264411Q12.92612100958252,4.25,12.99998950958252,4.25Z" fill-rule="evenodd" fill="#231F2E" fill-opacity="1"/></g><g><path d="M17,12.748992919921875L15.5,12.748992919921875Q15.4261315,12.748992919921875,15.353682,12.734581919921876Q15.281233,12.720170919921875,15.212987,12.691902919921874Q15.144742,12.663633919921875,15.083322,12.622594919921875Q15.021903,12.581555919921875,14.96967,12.529322919921874Q14.917437,12.477089919921875,14.876398,12.415670919921874Q14.835359,12.354250919921874,14.80709,12.286005919921875Q14.778822,12.217759919921875,14.764410999999999,12.145310919921876Q14.75,12.072861419921875,14.75,11.998992919921875Q14.75,11.925124419921875,14.764410999999999,11.852674919921874Q14.778822,11.780225919921875,14.80709,11.711979919921875Q14.835359,11.643734919921876,14.876398,11.582314919921876Q14.917437,11.520895919921875,14.96967,11.468662919921876Q15.021903,11.416429919921875,15.083322,11.375390919921875Q15.144742,11.334351919921875,15.212987,11.306082919921876Q15.281233,11.277814919921875,15.353682,11.263403919921874Q15.4261315,11.248992919921875,15.5,11.248992919921875L17,11.248992919921875Q17.07387,11.248992919921875,17.14632,11.263403919921874Q17.21877,11.277814919921875,17.28701,11.306082919921876Q17.35526,11.334351919921875,17.41668,11.375390919921875Q17.4781,11.416429919921875,17.53033,11.468662919921876Q17.58256,11.520895919921875,17.6236,11.582314919921876Q17.66464,11.643734919921876,17.69291,11.711979919921875Q17.72118,11.780225919921875,17.735590000000002,11.852674919921874Q17.75,11.925124419921875,17.75,11.998992919921875Q17.75,12.072861419921875,17.735590000000002,12.145310919921876Q17.72118,12.217759919921875,17.69291,12.286005919921875Q17.66464,12.354250919921874,17.6236,12.415670919921874Q17.58256,12.477089919921875,17.53033,12.529322919921874Q17.4781,12.581555919921875,17.41668,12.622594919921875Q17.35526,12.663633919921875,17.28701,12.691902919921874Q17.21877,12.720170919921875,17.14632,12.734581919921876Q17.07387,12.748992919921875,17,12.748992919921875Z" fill-rule="evenodd" fill="#231F2E" fill-opacity="1"/></g><g><path d="M15.5,8.25L19.5,8.25Q19.57387,8.25,19.64632,8.264410999999999Q19.71877,8.278822,19.787010000000002,8.30709Q19.85526,8.335359,19.91668,8.376398Q19.9781,8.417437,20.03033,8.46967Q20.08256,8.521903,20.1236,8.583322Q20.16464,8.644742,20.19291,8.712987Q20.22118,8.781233,20.235590000000002,8.853682Q20.25,8.9261315,20.25,9Q20.25,9.0738685,20.235590000000002,9.146318Q20.22118,9.218767,20.19291,9.287013Q20.16464,9.355258,20.1236,9.416678Q20.08256,9.478097,20.03033,9.53033Q19.9781,9.582563,19.91668,9.623602Q19.85526,9.664641,19.787010000000002,9.69291Q19.71877,9.721178,19.64632,9.735589000000001Q19.57387,9.75,19.5,9.75L15.5,9.75Q15.4261315,9.75,15.353682,9.735589000000001Q15.281233,9.721178,15.212987,9.69291Q15.144742,9.664641,15.083322,9.623602Q15.021903,9.582563,14.96967,9.53033Q14.917437,9.478097,14.876398,9.416678Q14.835359,9.355258,14.80709,9.287013Q14.778822,9.218767,14.764410999999999,9.146318Q14.75,9.0738685,14.75,9Q14.75,8.9261315,14.764410999999999,8.853682Q14.778822,8.781233,14.80709,8.712987Q14.835359,8.644742,14.876398,8.583322Q14.917437,8.521903,14.96967,8.46967Q15.021903,8.417437,15.083322,8.376398Q15.144742,8.335359,15.212987,8.30709Q15.281233,8.278822,15.353682,8.264410999999999Q15.4261315,8.25,15.5,8.25Z" fill-rule="evenodd" fill="#231F2E" fill-opacity="1"/></g><g><path d="M1.25,5.251860000000001L1.25,18.7481Q1.25,19.5637,1.772559,20.1898Q2.295118,20.816,3.0975099999999998,20.9618L11.09751,22.4164Q12.1334,22.6047,12.9417,21.9301Q13.75,21.2555,13.75,20.2027L13.75,3.79732Q13.75,2.744481,12.9417,2.0698778Q12.1334,1.3952740000000001,11.09751,1.583612L3.0975099999999998,3.03816Q2.295117,3.18405,1.772559,3.81018Q1.25,4.43632,1.25,5.251860000000001ZM3.36584,19.486Q2.75,19.3741,2.75,18.7481L2.75,5.251860000000001Q2.75,4.62593,3.36584,4.51396L11.36584,3.0594200000000003Q11.71112,2.996638,11.98056,3.2215100000000003Q12.25,3.44637,12.25,3.79732L12.25,20.2027Q12.25,20.5536,11.98056,20.7785Q11.71112,21.0034,11.36584,20.9406L3.36584,19.486Z" fill-rule="evenodd" fill="#231F2E" fill-opacity="1"/></g><g><path d="M3.775312,9.69710825Q3.75,9.60216525,3.75,9.50390625Q3.75,9.43003775,3.764411,9.35758825Q3.778822,9.28513925,3.80709,9.21689325Q3.835359,9.14864825,3.876398,9.08722825Q3.917437,9.02580925,3.96967,8.97357625Q4.021903,8.92134325,4.083322,8.88030425Q4.144742,8.83926525,4.212987,8.81099625Q4.281233,8.78272825,4.353682,8.768317249999999Q4.4261315,8.75390625,4.5,8.75390625Q4.5615559,8.75390625,4.622288,8.76394325Q4.68302,8.77397925,4.741303,8.79378425Q4.799586,8.81358925,4.85386,8.84263225Q4.908134,8.87167525,4.956946,8.90917925Q5.005758,8.94668225,5.047801,8.99164325Q5.089845,9.03660325,5.123995,9.08781725Q5.158146,9.13903225,5.183488,9.19512925Q5.208831,9.25122625,5.224688,9.31070425L5.98938,12.17900625L6.80771,10.21539525Q6.86478,10.07846925,6.96967,9.97357625Q7.07456,9.86868325,7.2114899999999995,9.81161925Q7.34919,9.754230249999999,7.49838,9.75390825Q7.64756,9.75358525,7.78551,9.81037725Q7.92346,9.86716925,8.02918,9.97243025Q8.1349,10.07769125,8.19229,10.21539525L9.01062,12.17900625L9.77519,9.31117725L9.775310000000001,9.31070425Q9.791170000000001,9.25122625,9.816510000000001,9.19512925Q9.84186,9.13903225,9.87601,9.08781725Q9.910160000000001,9.03660325,9.952200000000001,8.99164325Q9.99424,8.94668225,10.043050000000001,8.90917925Q10.09187,8.87167525,10.146139999999999,8.84263225Q10.20041,8.81358925,10.258700000000001,8.79378425Q10.316980000000001,8.77397925,10.37771,8.76394325Q10.43844,8.75390625,10.5,8.75390625Q10.57387,8.75390625,10.64632,8.768317249999999Q10.71877,8.78272825,10.78701,8.81099625Q10.855260000000001,8.83926525,10.91668,8.88030425Q10.978100000000001,8.92134325,11.03033,8.97357625Q11.08256,9.02580925,11.1236,9.08722825Q11.16464,9.14864825,11.192910000000001,9.21689325Q11.22118,9.28513925,11.23559,9.35758825Q11.25,9.43003775,11.25,9.50390625Q11.25,9.60216525,11.224689999999999,9.69710825L9.89169,14.697106250000001Q9.87266,14.768486249999999,9.84007,14.83477625Q9.80748,14.90106625,9.76259,14.95972625Q9.717690000000001,15.018386249999999,9.66222,15.06716625Q9.60674,15.11593625,9.542819999999999,15.152956249999999Q9.47889,15.189966250000001,9.40897,15.21379625Q9.33905,15.237636250000001,9.265830000000001,15.247366249999999Q9.19261,15.25709625,9.11889,15.25235625Q9.045169999999999,15.24762625,8.9738,15.228596249999999Q8.890509999999999,15.206386250000001,8.814440000000001,15.16587625Q8.73836,15.12535625,8.67346,15.06863625Q8.608550000000001,15.01190625,8.558209999999999,14.94194625Q8.50787,14.87197625,8.47471,14.792416249999999L7.5,12.45357625L6.52529,14.792416249999999Q6.4679,14.930116250000001,6.36218,15.03538625Q6.25646,15.14064625,6.11851,15.197436249999999Q5.9805600000000005,15.25422625,5.83138,15.25390625Q5.68219,15.25357625,5.54449,15.19619625Q5.464927,15.163036250000001,5.394962,15.112696249999999Q5.324996,15.06235625,5.268275,14.99744625Q5.211554,14.93254625,5.171035,14.85647625Q5.130516,14.780396249999999,5.108312,14.697106250000001L3.775312,9.69710825Z" fill-rule="evenodd" fill="#231F2E" fill-opacity="1"/></g><g><path d="M17.2786317578125,17.67558320703125Q17.3552417578125,17.57691020703125,17.3957317578125,17.45873420703125Q17.4362217578125,17.34055820703125,17.4362217578125,17.21563720703125Q17.4362217578125,17.14176870703125,17.4218117578125,17.06931920703125Q17.4074017578125,16.99687020703125,17.3791317578125,16.92862420703125Q17.3508617578125,16.86037920703125,17.3098217578125,16.79895920703125Q17.2687817578125,16.737540207031252,17.2165517578125,16.68530720703125Q17.164321757812502,16.63307420703125,17.1029017578125,16.592035207031252Q17.041481757812498,16.55099620703125,16.9732367578125,16.52272720703125Q16.9049907578125,16.49445920703125,16.8325417578125,16.48004820703125Q16.7600927578125,16.46563720703125,16.6862237578125,16.46563720703125Q16.6004827578125,16.46563720703125,16.5169547578125,16.48498820703125Q16.4334267578125,16.50433920703125,16.3564207578125,16.54204220703125Q16.2794147578125,16.57974620703125,16.2129047578125,16.63385620703125Q16.1463950578125,16.68796620703125,16.0938136578125,16.75569120703125Q15.8601647578125,17.05663020703125,15.6929047578125,17.39888220703125Q15.3636617578125,18.07258720703125,15.3214347578125,18.82437720703125Q15.2316417578125,20.42302720703125,16.3316307578125,21.58652720703125Q17.4316217578125,22.750037207031248,19.0327817578125,22.750037207031248Q20.6339417578125,22.750037207031248,21.7339317578125,21.58652720703125Q22.8339217578125,20.42302720703125,22.7441317578125,18.82437720703125Q22.7019017578125,18.07258720703125,22.3726617578125,17.39888420703125Q22.2054017578125,17.05663820703125,21.9717517578125,16.75569320703125Q21.9191717578125,16.68796820703125,21.8526617578125,16.63385720703125Q21.7861517578125,16.57974720703125,21.7091417578125,16.54204320703125Q21.632141757812498,16.50433920703125,21.548611757812502,16.48498820703125Q21.4650817578125,16.46563720703125,21.3793417578125,16.46563720703125Q21.305471757812498,16.46563720703125,21.2330217578125,16.48004820703125Q21.160571757812498,16.49445920703125,21.0923317578125,16.52272820703125Q21.0240817578125,16.55099620703125,20.962661757812498,16.592035207031252Q20.9012417578125,16.63307420703125,20.849011757812498,16.68530720703125Q20.7967817578125,16.737540207031252,20.7557417578125,16.79895920703125Q20.7147017578125,16.86037920703125,20.6864317578125,16.92862520703125Q20.6581617578125,16.99687020703125,20.6437517578125,17.06931920703125Q20.6293417578125,17.14176870703125,20.6293417578125,17.21563720703125Q20.6293417578125,17.34055720703125,20.6698317578125,17.45873320703125Q20.7103217578125,17.57691020703125,20.7869317578125,17.67558220703125Q20.925671757812502,17.85428720703125,21.0249817578125,18.05749520703125Q21.2212517578125,18.45909720703125,21.2464917578125,18.90849720703125Q21.3000517578125,19.86204720703125,20.6439417578125,20.55603720703125Q19.9878317578125,21.250037207031248,19.0327817578125,21.250037207031248Q18.0777317578125,21.250037207031248,17.4216217578125,20.55603720703125Q16.7655157578125,19.86204720703125,16.8190747578125,18.90849720703125Q16.8443167578125,18.45909720703125,17.040579757812502,18.05749720703125Q17.1398917578125,17.85428520703125,17.2786317578125,17.67558320703125Z" fill-rule="evenodd" fill="#3862BE" fill-opacity="1"/></g><g><path d="M18.2828369140625,16Q18.2828369140625,15.9261315,18.2972479140625,15.853682Q18.3116589140625,15.781233,18.3399269140625,15.712987Q18.3681959140625,15.644742,18.409234914062502,15.583322Q18.4502739140625,15.521903,18.5025069140625,15.46967Q18.554739914062502,15.417437,18.6161589140625,15.376398Q18.6775789140625,15.335359,18.7458239140625,15.30709Q18.8140699140625,15.278822,18.8865189140625,15.264410999999999Q18.9589684140625,15.25,19.0328369140625,15.25Q19.1067054140625,15.25,19.1791549140625,15.264410999999999Q19.2516039140625,15.278822,19.3198499140625,15.30709Q19.3880949140625,15.335359,19.4495149140625,15.376398Q19.510933914062498,15.417437,19.5631669140625,15.46967Q19.6153999140625,15.521903,19.656438914062498,15.583322Q19.6974779140625,15.644742,19.7257469140625,15.712987Q19.7540149140625,15.781233,19.7684259140625,15.853682Q19.7828369140625,15.9261315,19.7828369140625,16L19.7828369140625,19.06291Q19.7828369140625,19.13678,19.7684259140625,19.209229999999998Q19.7540149140625,19.28168,19.7257469140625,19.34993Q19.6974779140625,19.41817,19.656438914062498,19.47959Q19.6153999140625,19.54101,19.5631669140625,19.59324Q19.510933914062498,19.64548,19.4495149140625,19.68651Q19.3880949140625,19.72755,19.3198499140625,19.75582Q19.2516039140625,19.78409,19.1791549140625,19.7985Q19.1067054140625,19.81291,19.0328369140625,19.81291Q18.9589684140625,19.81291,18.8865189140625,19.7985Q18.8140699140625,19.78409,18.7458239140625,19.75582Q18.6775789140625,19.72755,18.6161589140625,19.68651Q18.554739914062502,19.64548,18.5025069140625,19.59324Q18.4502739140625,19.54101,18.409234914062502,19.47959Q18.3681959140625,19.41817,18.3399269140625,19.34993Q18.3116589140625,19.28168,18.2972479140625,19.209229999999998Q18.2828369140625,19.13678,18.2828369140625,19.06291L18.2828369140625,16Z" fill-rule="evenodd" fill="#3862BE" fill-opacity="1"/></g></g></svg>