<svg xmlns="http://www.w3.org/2000/svg" xmlns:xlink="http://www.w3.org/1999/xlink" fill="none" version="1.1" width="24" height="24" viewBox="0 0 24 24"><defs><clipPath id="master_svg0_62_09644"><rect x="0" y="0" width="24" height="24" rx="0"/></clipPath></defs><g clip-path="url(#master_svg0_62_09644)"><g><g><path d="M1.75,16.25L1.75,7.75L8.050049999999999,7.75L8.050049999999999,16.25L1.75,16.25ZM6.55005,9.25L3.25,9.25L3.25,14.75L6.55005,14.75L6.55005,9.25Z" fill-rule="evenodd" fill="#736F78" fill-opacity="1"/></g><g><path d="M6.550048828125,20.25L6.550048828125,14.75L16.550048828125,14.75L16.550048828125,20.25L6.550048828125,20.25ZM15.050048828125,16.25L8.050048828125,16.25L8.050048828125,18.75L15.050048828125,18.75L15.050048828125,16.25Z" fill-rule="evenodd" fill="#736F78" fill-opacity="1"/></g><g><path d="M15.050048828125,16.25L15.050048828125,7.75L21.249998828125,7.75L21.249998828125,16.25L15.050048828125,16.25ZM19.749998828125,9.25L16.550048828125,9.25L16.550048828125,14.75L19.749998828125,14.75L19.749998828125,9.25Z" fill-rule="evenodd" fill="#736F78" fill-opacity="1"/></g><g><path d="M6.550048828125,9.25L6.550048828125,3.75L16.550048828125,3.75L16.550048828125,9.25L6.550048828125,9.25ZM15.050048828125,5.25L8.050048828125,5.25L8.050048828125,7.75L15.050048828125,7.75L15.050048828125,5.25Z" fill-rule="evenodd" fill="#736F78" fill-opacity="1"/></g><g><path d="M7.300048828125,8.5L7.300048828125,15.5L15.800048828125,15.5L15.800048828125,8.5L7.300048828125,8.5Z" fill="#13943C" fill-opacity="0.20000000298023224"/><path d="M6.550048828125,16.25L6.550048828125,7.75L16.550048828125,7.75L16.550048828125,16.25L6.550048828125,16.25ZM15.050048828125,9.25L8.050048828125,9.25L8.050048828125,14.75L15.050048828125,14.75L15.050048828125,9.25Z" fill-rule="evenodd" fill="#13943C" fill-opacity="1"/></g></g><g><path d="M20.591,19.591Q21.25,18.932000000000002,21.25,18L21.25,6Q21.25,5.06802,20.591,4.4090098Q19.932,3.75,19,3.75L4,3.75Q3.0680199999999997,3.75,2.40901,4.4090098Q1.75,5.068019,1.75,6L1.75,18Q1.75,18.932000000000002,2.40901,19.591Q3.068019,20.25,4,20.25L19,20.25Q19.932,20.25,20.591,19.591ZM19.75,6L19.75,18Q19.75,18.75,19,18.75L4,18.75Q3.25,18.75,3.25,18L3.25,6Q3.25,5.68934,3.46967,5.46967Q3.68934,5.25,4,5.25L19,5.25Q19.3107,5.25,19.5303,5.46967Q19.75,5.68934,19.75,6Z" fill-rule="evenodd" fill="#231F2E" fill-opacity="1"/></g><g><g><g><path d="M19.92997,22.037789677963257Q20.29957,21.394869677963257,20.29957,20.673369677963258Q20.29957,19.441936007963257,19.42882,18.571182677963257Q18.55806,17.700429677963257,17.32663,17.700429677963257Q16.27933,17.700429677963257,15.53493,18.257099677963257Q15.115744,18.57056867796326,14.720459,19.180458677963255Q14.697929,19.215221677963257,14.680082,19.242268677963256Q14.606589,19.249989677963256,14.5,19.249989677963256Q14.188378,19.249989677963256,13.895911,19.357560077963257Q13.603444,19.465130077963256,13.36609,19.667045677963255Q13.3006,19.722751677963256,13.2409,19.78460767796326Q13.18119,19.846462677963256,13.12783,19.913873677963256Q13.07447,19.98128367796326,13.02798,20.053599677963255Q12.98149,20.125915677963256,12.942309999999999,20.202439677963255Q12.90312,20.278964677963256,12.87163,20.358960677963257Q12.84014,20.438957677963256,12.81664,20.521659677963257Q12.79314,20.604349677963256,12.77786,20.688959677963258Q12.76258,20.773559677963256,12.75567,20.859249677963255Q12.74875,20.94494967796326,12.75027,21.03090967796326Q12.75179,21.116859677963255,12.76173,21.202259677963255Q12.77167,21.287659677963255,12.78992,21.371669677963258Q12.80818,21.455679677963257,12.83459,21.537489677963258Q12.861,21.61930967796326,12.89529,21.69813967796326Q12.92959,21.776979677963258,12.97145,21.852069677963257Q13.01331,21.927159677963257,13.06233,21.997789677963258Q13.11135,22.068419677963256,13.16706,22.133899677963257Q14.5418455,23.750009677963256,16.57365,23.749999677963256Q18.02196,23.749999677963256,19.0472,23.006929677963257Q19.60541,22.602349677963257,19.92997,22.037789677963257Z" fill-rule="evenodd" fill="#FFFFFF" fill-opacity="1" style="mix-blend-mode:passthrough"/></g><g><path d="M22.23716315498352,17.73386Q22.31496315498352,17.72321,22.39149315498352,17.70565Q22.46802315498352,17.68808,22.54267315498352,17.66373Q22.61732315498352,17.63938,22.68949315498352,17.60845Q22.76166315498352,17.57751,22.830773154983522,17.54023Q22.89988315498352,17.50296,22.96537315498352,17.45964Q23.03087315498352,17.41633,23.09222315498352,17.36732Q23.15357315498352,17.31831,23.21028315498352,17.26401Q23.26700315498352,17.2097,23.31862315498352,17.15054Q23.37025315498352,17.09137,23.41636315498352,17.02782Q23.46248315498352,16.964268,23.50272315498352,16.896842Q23.54296315498352,16.829416,23.577003154983522,16.758657Q23.61104315498352,16.687898,23.63861315498352,16.614374Q23.66618315498352,16.540851,23.68705315498352,16.465154Q23.70792315498352,16.389457,23.72193315498352,16.312195Q23.73593315498352,16.234933,23.74297315498352,16.156727Q23.75000315498352,16.0785214,23.75000315498352,16Q23.75000315498352,15.914028,23.74157315498352,15.82847Q23.73315315498352,15.742912,23.716373154983522,15.658592Q23.69960315498352,15.574272,23.67464315498352,15.492002Q23.64969315498352,15.409732,23.61679315498352,15.330304Q23.58389315498352,15.250876,23.54336315498352,15.175056Q23.50283315498352,15.099235,23.45507315498352,15.027752Q23.40731315498352,14.95627,23.35277315498352,14.88981Q23.29823315498352,14.82335,23.23744315498352,14.76256Q23.17664315498352,14.70177,23.11019315498352,14.64723Q23.04373315498352,14.59269,22.97225315498352,14.54493Q22.900763154983522,14.497160000000001,22.824943154983522,14.45664Q22.749123154983522,14.41611,22.66970315498352,14.38321Q22.59027315498352,14.35031,22.50800315498352,14.32535Q22.42573315498352,14.3004,22.34141315498352,14.28363Q22.257093154983522,14.26685,22.17153315498352,14.25843Q22.08597315498352,14.25,22.00000315498352,14.25Q21.88087315498352,14.25,21.76284315498352,14.26614Q19.94942315498352,14.51419,18.30607015498352,15.866047Q16.70120815498352,17.18625,16.05660315498352,18.89269L16.05648315498352,18.89301L16.05635315498352,18.893349999999998Q15.94351315498352,19.19216,15.94351315498352,19.51158Q15.94351315498352,19.59755,15.951943154983521,19.68311Q15.96036315498352,19.76866,15.977143154983521,19.85298Q15.99391315498352,19.9373,16.01886315498352,20.01957Q16.04382315498352,20.10184,16.07672315498352,20.181269999999998Q16.10962315498352,20.2607,16.15015315498352,20.33652Q16.19067315498352,20.41234,16.23844315498352,20.48382Q16.28620315498352,20.55531,16.34074315498352,20.621760000000002Q16.39528315498352,20.68822,16.45607315498352,20.74901Q16.516863154983522,20.8098,16.58332315498352,20.86434Q16.64978315498352,20.91888,16.72126515498352,20.96665Q16.79274815498352,21.014409999999998,16.868569154983522,21.054940000000002Q16.944389154983522,21.09547,17.023817154983522,21.12836Q17.10324515498352,21.161270000000002,17.18551515498352,21.18622Q17.26778515498352,21.21118,17.35210515498352,21.22795Q17.43642515498352,21.24472,17.52198315498352,21.253149999999998Q17.60754115498352,21.261580000000002,17.69351315498352,21.261580000000002Q17.826080154983522,21.261580000000002,17.95713315498352,21.24161Q18.08818715498352,21.22164,18.21473715498352,21.18215Q18.34128715498352,21.14267,18.460446154983522,21.08457Q18.57960415498352,21.02647,18.68865015498352,20.95109Q18.79769315498352,20.875709999999998,18.89414315498352,20.78476Q18.99059315498352,20.69381,19.072233154983522,20.58936Q19.15388315498352,20.48492,19.21886315498352,20.36937Q19.283843154983522,20.25383,19.330673154983522,20.12981Q19.64540315498352,19.29635,20.52959315498352,18.569Q21.40673315498352,17.84744,22.23716315498352,17.73386Z" fill-rule="evenodd" fill="#FFFFFF" fill-opacity="1" style="mix-blend-mode:passthrough"/></g><g><path d="M23.73386287063599,16.237159Q23.75000287063599,16.119129,23.75000287063599,16Q23.75000287063599,15.914028,23.741582870635987,15.82847Q23.733152870635987,15.742912,23.716382870635986,15.658592Q23.699602870635985,15.574272,23.674652870635988,15.492002Q23.649692870635988,15.409732,23.616792870635987,15.330304Q23.583892870635985,15.250876,23.54336287063599,15.175056Q23.502842870635988,15.099235,23.455072870635988,15.027752Q23.407312870635987,14.95627,23.352772870635988,14.88981Q23.298232870635985,14.82335,23.237442870635988,14.76256Q23.176652870635987,14.70177,23.110192870635984,14.64723Q23.043732870635985,14.59269,22.972252870635987,14.54493Q22.900772870635986,14.497160000000001,22.824952870635986,14.45664Q22.749132870635986,14.41611,22.669702870635987,14.38321Q22.590272870635985,14.35031,22.508002870635988,14.32535Q22.425732870635986,14.3004,22.341412870635985,14.28363Q22.257092870635987,14.26685,22.171532870635986,14.25843Q22.085972870635985,14.25,22.000002870635985,14.25Q21.921482870635987,14.25,21.843272870635985,14.25703Q21.765072870635986,14.26406,21.687812870635987,14.27807Q21.610552870635985,14.29208,21.534852870635987,14.31295Q21.459152870635986,14.33382,21.385632870635988,14.36139Q21.312102870635986,14.38896,21.241352870635986,14.423Q21.170592870635986,14.45704,21.103162870635988,14.49728Q21.035732870635986,14.53752,20.972182870635987,14.583639999999999Q20.908632870635987,14.62975,20.849472870635985,14.68138Q20.790302870635987,14.733,20.735992870635986,14.789719999999999Q20.681692870635985,14.84643,20.632682870635985,14.90778Q20.583682870635986,14.96913,20.540362870635988,15.034627Q20.497042870635987,15.10012,20.459772870635987,15.16923Q20.422492870635985,15.238339,20.391562870635987,15.310509Q20.360622870635986,15.382679,20.336272870635987,15.45733Q20.311922870635986,15.531981,20.294352870635986,15.608512Q20.276792870635987,15.685044,20.266152870635985,15.762841Q20.152562870635986,16.593267,19.431001870635985,17.47041Q18.703647870635987,18.35459,17.870191870635985,18.66933Q17.746173870635985,18.71616,17.630624870635987,18.78114Q17.515075870635986,18.84612,17.410632870635986,18.92776Q17.306192870635986,19.00941,17.215242870635986,19.10586Q17.124292870635987,19.2023,17.048912870635988,19.31135Q16.973522870635986,19.4204,16.915422870635986,19.53955Q16.857332870635986,19.65871,16.817842870635985,19.78526Q16.778362870635988,19.91181,16.758392870635987,20.04286Q16.738422870635986,20.17392,16.738422870635986,20.30649Q16.738422870635986,20.39246,16.746852870635987,20.47802Q16.755272870635988,20.56357,16.772052870635985,20.64789Q16.788822870635986,20.732210000000002,16.813772870635987,20.81448Q16.838732870635987,20.89675,16.871632870635985,20.97618Q16.904532870635986,21.05561,16.945062870635986,21.13143Q16.985582870635987,21.207250000000002,17.033352870635987,21.27873Q17.081112870635987,21.35022,17.135652870635987,21.41667Q17.190192870635986,21.48313,17.250982870635987,21.54392Q17.311772870635988,21.60471,17.378232870635987,21.65925Q17.444692870635986,21.71379,17.516174870635986,21.76156Q17.587657870635987,21.80932,17.663478870635988,21.84985Q17.739298870635988,21.89037,17.818726870635988,21.92327Q17.898154870635985,21.95617,17.980424870635986,21.98113Q18.062694870635987,22.00609,18.147014870635985,22.02286Q18.231334870635987,22.03963,18.316892870635986,22.04806Q18.402450870635985,22.05649,18.488422870635986,22.05649Q18.807835870635987,22.05649,19.106653870635988,21.943640000000002Q20.813502870635986,21.2991,22.133952870635987,19.69393Q23.485822870635985,18.05058,23.73386287063599,16.237159Z" fill-rule="evenodd" fill="#FFFFFF" fill-opacity="1" style="mix-blend-mode:passthrough"/></g></g><g><g><path d="M22.06776315498352,16.495387Q22.11231315498352,16.489294,22.15505315498352,16.475352Q22.197793154983522,16.46141,22.23736315498352,16.440067Q22.27693315498352,16.418723,22.31206315498352,16.390662Q22.347193154983522,16.362602,22.37675315498352,16.328725Q22.406313154983522,16.294847,22.42935315498352,16.25624Q22.452393154983522,16.217633,22.46817315498352,16.175535Q22.48396315498352,16.133437,22.491983154983522,16.0891985Q22.50000315498352,16.0449599,22.50000315498352,16Q22.50000315498352,15.9507543,22.490393154983522,15.9024549Q22.48078315498352,15.854155,22.461943154983523,15.808658Q22.443093154983522,15.763161,22.41573315498352,15.722215Q22.38837315498352,15.681269,22.353553154983523,15.646447Q22.31873315498352,15.611625,22.27778315498352,15.584265Q22.23684315498352,15.556906,22.19134315498352,15.53806Q22.14584315498352,15.519214999999999,22.09754315498352,15.509607Q22.04924315498352,15.5,22.00000315498352,15.5Q21.96596315498352,15.5,21.93224315498352,15.504612999999999Q20.46989315498352,15.704636,19.10018315498352,16.831388Q17.75250795498352,17.94002,17.225753154983522,19.33494Q17.19351315498352,19.42032,17.19351315498352,19.51158Q17.19351315498352,19.56082,17.20312015498352,19.60912Q17.21272815498352,19.657420000000002,17.231573154983522,19.70292Q17.250419154983522,19.74841,17.27777815498352,19.78936Q17.30513815498352,19.83031,17.33996015498352,19.86513Q17.37478215498352,19.89995,17.41572815498352,19.92731Q17.45667415498352,19.95467,17.50217115498352,19.97352Q17.54766815498352,19.99236,17.59596805498352,20.00197Q17.64426745498352,20.011580000000002,17.69351315498352,20.011580000000002Q17.76970275498352,20.011580000000002,17.842434154983522,19.98888Q17.91516615498352,19.96619,17.97783815498352,19.92287Q18.040510154983522,19.87954,18.08743415498352,19.81952Q18.13435715498352,19.75949,18.16127315498352,19.68821Q18.59379515498352,18.54283,19.73547315498352,17.60366Q20.88626315498352,16.656995,22.06776315498352,16.495387Z" fill-rule="evenodd" fill="#231F2E" fill-opacity="1"/></g><g><path d="M22.495392870635985,16.0677597Q22.50000287063599,16.0340369,22.50000287063599,16Q22.50000287063599,15.9507543,22.490392870635986,15.9024549Q22.480792870635987,15.854155,22.461942870635987,15.808658Q22.443102870635986,15.763161,22.415742870635988,15.722215Q22.388382870635986,15.681269,22.353562870635987,15.646447Q22.318732870635987,15.611625,22.277792870635984,15.584265Q22.236842870635986,15.556906,22.191342870635985,15.53806Q22.145852870635988,15.519214999999999,22.097552870635987,15.509607Q22.049252870635986,15.5,22.000002870635985,15.5Q21.955042870635985,15.5,21.910802870635987,15.508021Q21.866572870635988,15.516041,21.824472870635987,15.531826Q21.782372870635985,15.54761,21.743762870635987,15.570651Q21.705152870635985,15.593692,21.671282870635984,15.623251Q21.637402870635988,15.65281,21.609342870635984,15.687938Q21.581282870635988,15.723066,21.559942870635986,15.762637Q21.538592870635988,15.802208,21.524652870635986,15.844951Q21.510712870635984,15.887695,21.504622870635988,15.9322402Q21.343012870635988,17.11374,20.396342870635987,18.26452Q19.457644870635985,19.40562,18.312953870635987,19.83828L18.311785870635987,19.838729999999998Q18.240508870635985,19.86564,18.180483870635985,19.91257Q18.120457870635985,19.95949,18.077132870635985,20.02216Q18.033807870635986,20.08483,18.011114870635986,20.15756Q17.988422870635986,20.2303,17.988422870635986,20.30649Q17.988422870635986,20.35573,17.998029870635985,20.40403Q18.007637870635985,20.45233,18.026482870635988,20.49783Q18.045328870635988,20.54332,18.072687870635985,20.58427Q18.100047870635986,20.62522,18.134869870635985,20.660040000000002Q18.169691870635987,20.69486,18.210637870635985,20.72222Q18.251583870635987,20.74958,18.297080870635988,20.76842Q18.342577870635985,20.78727,18.390877770635985,20.79688Q18.439177170635986,20.80648,18.488422870635986,20.80649Q18.579683870635986,20.80649,18.665059870635986,20.77424L18.665492870635987,20.774079999999998Q20.060152870635985,20.24728,21.168612870635986,18.89982Q22.295372870635987,17.53011,22.495392870635985,16.0677597Z" fill-rule="evenodd" fill="#231F2E" fill-opacity="1"/></g><g><path d="M17.32663,19.450429677963257C18.00204,19.450429677963257,18.54957,19.997957677963257,18.54957,20.673369677963258C18.54957,21.348779677963257,17.796590000000002,21.999999677963256,16.57364,21.999999677963256Q15.350694,21.999999677963256,14.5,20.999989677963256C16.58597,20.999989677963256,15.81391,19.450429677963257,17.32663,19.450429677963257Z" fill="#13943C" fill-opacity="0.20000000298023224"/><path d="M18.31364,21.994809677963257Q19.04957,21.461419677963256,19.04957,20.673369677963258Q19.04957,19.959702677963257,18.54493,19.455066207963256Q18.0403,18.950429677963257,17.32663,18.950429677963257Q16.69502,18.950429677963257,16.28352,19.258151677963255Q16.04321,19.437856977963257,15.76941,19.860310677963255Q15.55038,20.198257677963255,15.388797,20.305851677963258Q15.097244,20.499989677963256,14.5,20.499989677963256Q14.4109651,20.499989677963256,14.327403,20.53071967796326Q14.243841,20.561459677963256,14.176025,20.619149677963257Q14.138515,20.651059677963257,14.107951,20.689669677963256Q14.077388,20.728279677963258,14.054944,20.772119677963257Q14.032501,20.815949677963257,14.01904,20.863319677963258Q14.00558,20.910689677963255,14.00162,20.959779677963258Q13.997659,21.008869677963258,14.003351,21.057779677963257Q14.009043,21.106699677963256,14.024169,21.15355967796326Q14.039294,21.200429677963257,14.063272,21.243439677963256Q14.08725,21.286459677963258,14.119159,21.323969677963255Q15.119594,22.499999677963256,16.57364,22.499999677963256Q17.61661,22.499999677963256,18.31364,21.994809677963257ZM17.83783,20.162172677963255Q18.04957,20.37391667796326,18.04957,20.673369677963258Q18.04957,20.951169677963257,17.72679,21.185109677963258Q17.29233,21.499999677963256,16.57364,21.499999677963256Q16.07781,21.499999677963256,15.654679999999999,21.294089677963257Q15.80961,21.227059677963258,15.94304,21.138209677963257Q16.27694,20.915869677963258,16.60857,20.404192677963255Q16.78519,20.131687677963257,16.8824,20.058993677963258Q17.02758,19.950429677963257,17.32663,19.950429677963257Q17.62608,19.950429677963257,17.83783,20.162172677963255Z" fill-rule="evenodd" fill="#13943C" fill-opacity="1" style="mix-blend-mode:passthrough"/></g></g></g></g></svg>