<svg xmlns="http://www.w3.org/2000/svg" xmlns:xlink="http://www.w3.org/1999/xlink" fill="none" version="1.1" width="24" height="24" viewBox="0 0 24 24"><defs><clipPath id="master_svg0_72_02455"><rect x="0" y="0" width="24" height="24" rx="0"/></clipPath></defs><g clip-path="url(#master_svg0_72_02455)"><g><g><path d="M21.249997966308594,8Q21.249997966308594,7.9261315,21.264407966308593,7.853682Q21.278817966308594,7.781233,21.307087966308593,7.712987Q21.335357966308592,7.644742,21.376397966308595,7.583322Q21.417437966308594,7.521903,21.469667966308595,7.46967Q21.521907966308593,7.417437,21.583327966308595,7.376398Q21.644737966308593,7.335359,21.712987966308592,7.30709Q21.781237966308595,7.278822,21.853677966308595,7.264411Q21.926127966308595,7.25,21.999997966308594,7.25Q22.073867966308594,7.25,22.146317966308594,7.264411Q22.218767966308594,7.278822,22.287017966308593,7.30709Q22.355257966308592,7.335359,22.416677966308594,7.376398Q22.478097966308592,7.417437,22.530327966308594,7.46967Q22.582567966308595,7.521903,22.623597966308594,7.583322Q22.664637966308593,7.644742,22.692907966308596,7.712987Q22.721177966308595,7.781233,22.735587966308593,7.853682Q22.749997966308594,7.9261315,22.749997966308594,8L22.749997966308594,16Q22.749997966308594,16.07387,22.735587966308593,16.14632Q22.721177966308595,16.21877,22.692907966308596,16.287010000000002Q22.664637966308593,16.35526,22.623597966308594,16.41668Q22.582567966308595,16.478099999999998,22.530327966308594,16.53033Q22.478097966308592,16.58256,22.416677966308594,16.6236Q22.355257966308592,16.66464,22.287017966308593,16.692909999999998Q22.218767966308594,16.72118,22.146317966308594,16.735590000000002Q22.073867966308594,16.75,21.999997966308594,16.75Q21.941657966308593,16.75,21.884007966308594,16.74098Q21.826357966308592,16.731949999999998,21.770807966308595,16.71412Q21.715247966308596,16.696289999999998,21.663117966308594,16.67008Q21.610987966308592,16.64388,21.563537966308594,16.609920000000002Q21.516087966308593,16.575969999999998,21.474467966308595,16.53508Q21.432837966308593,16.4942,21.398027966308593,16.44736Q21.363227966308592,16.40053,21.336087966308593,16.34888Q21.308947966308594,16.29723,21.290117966308593,16.24201L20.022727966308594,12.524329999999999L20.022727966308594,16Q20.022727966308594,16.07387,20.008316966308595,16.14632Q19.993905966308592,16.21877,19.965637966308595,16.287010000000002Q19.937368966308593,16.35526,19.896329966308592,16.41668Q19.855290966308594,16.478099999999998,19.803057966308593,16.53033Q19.750824966308592,16.58256,19.689405966308595,16.6236Q19.627985966308593,16.66464,19.559740966308595,16.692909999999998Q19.491494966308593,16.72118,19.419045966308595,16.735590000000002Q19.346596466308593,16.75,19.272727966308594,16.75Q19.198859466308594,16.75,19.126409966308593,16.735590000000002Q19.053960966308594,16.72118,18.985714966308592,16.692909999999998Q18.917469966308595,16.66464,18.856049966308593,16.6236Q18.794630966308596,16.58256,18.742397966308594,16.53033Q18.690164966308593,16.478099999999998,18.649125966308596,16.41668Q18.608086966308594,16.35526,18.579817966308593,16.287010000000002Q18.551549966308595,16.21877,18.537138966308593,16.14632Q18.522727966308594,16.07387,18.522727966308594,16L18.522727966308594,8Q18.522727966308594,7.9416526,18.531751966308594,7.884007Q18.540775966308594,7.826362,18.558605966308594,7.770805Q18.576436966308595,7.715249,18.602644966308596,7.663119Q18.628852966308592,7.610989,18.662807966308595,7.5635390000000005Q18.696762966308594,7.51609,18.737648966308594,7.474462Q18.778533966308594,7.432835,18.825364966308594,7.398032Q18.872195966308595,7.363228,18.923845966308594,7.336086Q18.975495966308593,7.308945,19.030722966308595,7.290117Q19.100639966308595,7.266282,19.173863866308594,7.256545Q19.247087766308592,7.246807,19.320804366308593,7.251543Q19.394520966308594,7.256278,19.465896966308595,7.275303Q19.537273966308593,7.294329,19.603566966308595,7.326914Q19.669859966308593,7.359498,19.728522966308592,7.40439Q19.787184966308594,7.449282,19.835962966308593,7.504756Q19.884739966308594,7.56023,19.921756966308592,7.624153Q19.958774966308592,7.688077,19.982610966308595,7.757995L21.249997966308594,11.475670000000001L21.249997966308594,8Z" fill-rule="evenodd" fill="#231F2E" fill-opacity="1"/></g><g><path d="M12.886668995788574,8.0812818Q12.159090995788574,8.881618,12.159090995788574,10L12.159090995788574,14Q12.159090995788574,15.11838,12.886669195788574,15.91872Q13.642378995788574,16.75,14.727270995788574,16.75Q15.812160995788574,16.75,16.567880995788574,15.91872Q17.295450995788574,15.11838,17.295450995788574,14L17.295450995788574,10Q17.295450995788574,8.881617,16.567880995788574,8.0812819Q15.812160995788574,7.25,14.727270995788574,7.25Q13.642379995788573,7.25,12.886668995788574,8.0812818ZM13.659090995788574,14L13.659090995788574,10Q13.659090995788574,9.46153,13.996580995788575,9.09029Q14.305930995788575,8.75,14.727270995788574,8.75Q15.148610995788575,8.75,15.457970995788575,9.09029Q15.795450995788574,9.46153,15.795450995788574,10L15.795450995788574,14Q15.795450995788574,14.53847,15.457970995788575,14.90971Q15.148610995788575,15.25,14.727270995788574,15.25Q14.305930995788575,15.25,13.996580995788575,14.90971Q13.659090995788574,14.53847,13.659090995788574,14Z" fill-rule="evenodd" fill="#231F2E" fill-opacity="1"/></g><g><path d="M2.75,14.5L2.75,14Q2.75,13.92613,2.735589,13.85368Q2.721178,13.78123,2.69291,13.71299Q2.664641,13.644739999999999,2.623602,13.58332Q2.582563,13.521899999999999,2.53033,13.46967Q2.478097,13.41744,2.416678,13.3764Q2.355258,13.33536,2.287013,13.307089999999999Q2.218767,13.27882,2.146318,13.26441Q2.0738685,13.25,2,13.25Q1.9261314999999999,13.25,1.853682,13.26441Q1.781233,13.27882,1.712987,13.307089999999999Q1.644742,13.33536,1.583322,13.3764Q1.521903,13.41744,1.46967,13.46967Q1.417437,13.521899999999999,1.376398,13.58332Q1.335359,13.644739999999999,1.30709,13.71299Q1.278822,13.78123,1.264411,13.85368Q1.25,13.92613,1.25,14L1.25,14.5Q1.25,15.41128,1.844445,16.065170000000002Q2.467022,16.75,3.36364,16.75Q4.26025,16.75,4.88283,16.06516Q5.47727,15.41128,5.47727,14.5L5.47727,8Q5.47727,7.9261315,5.46286,7.853682Q5.448449999999999,7.781233,5.42018,7.712987Q5.39191,7.644742,5.3508700000000005,7.583322Q5.3098399999999994,7.521903,5.2576,7.46967Q5.20537,7.417437,5.14395,7.376398Q5.08253,7.335359,5.01429,7.30709Q4.94604,7.278822,4.87359,7.264411Q4.80114,7.25,4.72727,7.25L2,7.25Q1.9261314999999999,7.25,1.853682,7.264411Q1.781233,7.278822,1.712987,7.30709Q1.644742,7.335359,1.583322,7.376398Q1.521903,7.417437,1.46967,7.46967Q1.417437,7.521903,1.376398,7.583322Q1.335359,7.644742,1.30709,7.712987Q1.278822,7.781233,1.264411,7.853682Q1.25,7.9261315,1.25,8Q1.25,8.0738685,1.264411,8.146318Q1.278822,8.218767,1.30709,8.287013Q1.335359,8.355258,1.376398,8.416678Q1.417437,8.478097,1.46967,8.53033Q1.521903,8.582563,1.583322,8.623602Q1.644742,8.664641,1.712987,8.69291Q1.781233,8.721178,1.853682,8.735589000000001Q1.9261314999999999,8.75,2,8.75L3.97727,8.75L3.97727,14.5Q3.97727,14.83137,3.77292,15.05616Q3.5967000000000002,15.25,3.36364,15.25Q3.13058,15.25,2.954355,15.05616Q2.75,14.83136,2.75,14.5Z" fill-rule="evenodd" fill="#231F2E" fill-opacity="1"/></g><g><path d="M9.360595497894288,8.797398Q9.431815497894288,8.875741,9.431815497894288,9Q9.431815497894288,9.07387,9.446225497894288,9.14632Q9.460635497894287,9.21877,9.488905497894287,9.28701Q9.517175497894288,9.35526,9.558215497894288,9.41668Q9.599255497894287,9.4781,9.651485497894287,9.53033Q9.703725497894286,9.58256,9.765145497894288,9.6236Q9.826555497894287,9.66464,9.894805497894287,9.69291Q9.963055497894286,9.72118,10.035495497894287,9.73559Q10.107945497894287,9.75,10.181815497894288,9.75Q10.255685497894287,9.75,10.328135497894287,9.73559Q10.400585497894287,9.72118,10.468835497894286,9.69291Q10.537075497894287,9.66464,10.598495497894287,9.6236Q10.659915497894287,9.58256,10.712145497894287,9.53033Q10.764385497894287,9.4781,10.805415497894288,9.41668Q10.846455497894286,9.35526,10.874725497894287,9.28701Q10.902995497894286,9.21877,10.917405497894286,9.14632Q10.931815497894288,9.07387,10.931815497894288,9Q10.931815497894288,8.295831,10.470505497894287,7.788388Q9.981065497894287,7.25,9.272725497894287,7.25L8.363636497894287,7.25Q7.655301497894287,7.25,7.1658574978942875,7.788388Q6.704545497894287,8.295831,6.704545497894287,9L6.704545497894287,11Q6.704545497894287,11.70417,7.1658574978942875,12.21161Q7.655301497894287,12.75,8.363636497894287,12.75L9.272725497894287,12.75Q9.317505497894286,12.75,9.360595497894288,12.7974Q9.431815497894288,12.87574,9.431815497894288,13L9.431815497894288,15Q9.431815497894288,15.12426,9.360595497894288,15.2026Q9.317505497894286,15.25,9.272725497894287,15.25L8.363636497894287,15.25Q8.318855497894287,15.25,8.275767497894288,15.2026Q8.204545497894287,15.12426,8.204545497894287,15Q8.204545497894287,14.92613,8.190134497894288,14.85368Q8.175723497894287,14.78123,8.147455497894287,14.71299Q8.119186497894287,14.644739999999999,8.078147497894287,14.58332Q8.037108497894287,14.521899999999999,7.984875497894287,14.46967Q7.932642497894287,14.41744,7.871223497894287,14.3764Q7.809803497894287,14.33536,7.741558497894287,14.307089999999999Q7.673312497894287,14.27882,7.600863497894287,14.26441Q7.528413997894287,14.25,7.454545497894287,14.25Q7.380676997894287,14.25,7.308227497894287,14.26441Q7.235778497894287,14.27882,7.167532497894287,14.307089999999999Q7.099287497894287,14.33536,7.037867497894287,14.3764Q6.976448497894287,14.41744,6.924215497894287,14.46967Q6.871982497894287,14.521899999999999,6.830943497894287,14.58332Q6.7899044978942875,14.644739999999999,6.761635497894287,14.71299Q6.733367497894287,14.78123,6.718956497894287,14.85368Q6.704545497894287,14.92613,6.704545497894287,15Q6.704545497894287,15.704170000000001,7.1658574978942875,16.21161Q7.655301497894287,16.75,8.363636497894287,16.75L9.272725497894287,16.75Q9.981065497894287,16.75,10.470505497894287,16.21161Q10.931815497894288,15.704170000000001,10.931815497894288,15L10.931815497894288,13Q10.931815497894288,12.295829999999999,10.470505497894287,11.78839Q9.981065497894287,11.25,9.272725497894287,11.25L8.363636497894287,11.25Q8.318856497894288,11.25,8.275767497894288,11.2026Q8.204545497894287,11.12426,8.204545497894287,11L8.204545497894287,9Q8.204545497894287,8.875741,8.275767497894288,8.797398Q8.318855497894287,8.75,8.363636497894287,8.75L9.272725497894287,8.75Q9.317505497894286,8.75,9.360595497894288,8.797398Z" fill-rule="evenodd" fill="#231F2E" fill-opacity="1"/></g></g><g><g><path d="M18.23791,14.76304L23.236530000000002,19.76166L23.23744,19.76256Q23.35931,19.88444,23.45507,20.02775Q23.55083,20.17106,23.61679,20.3303Q23.68275,20.489539999999998,23.71637,20.65859Q23.75,20.82764,23.75,21Q23.75,21.08597,23.74157,21.17153Q23.733150000000002,21.257089999999998,23.71637,21.34141Q23.6996,21.42573,23.67464,21.508Q23.64969,21.59027,23.61679,21.66969Q23.58389,21.749119999999998,23.54336,21.824939999999998Q23.50283,21.90076,23.45507,21.97225Q23.40731,22.04373,23.35277,22.11019Q23.29823,22.176650000000002,23.23744,22.23744Q23.176650000000002,22.29823,23.11019,22.35277Q23.04373,22.40731,22.97225,22.45507Q22.90076,22.50283,22.824939999999998,22.54336Q22.749119999999998,22.58389,22.66969,22.61679Q22.59027,22.64969,22.508,22.67464Q22.42573,22.6996,22.34141,22.71637Q22.257089999999998,22.733150000000002,22.17153,22.74157Q22.08597,22.75,22,22.75Q21.82764,22.75,21.65859,22.71637Q21.489539999999998,22.68275,21.3303,22.61679Q21.17106,22.55083,21.02775,22.45507Q20.88444,22.35931,20.76256,22.23744L20.76166,22.236530000000002L15.76304,17.23791L15.76256,17.23744Q15.64069,17.11556,15.54493,16.972248Q15.44917,16.828936,15.38321,16.669696Q15.31725,16.510456,15.28363,16.341408Q15.25,16.17236,15.25,16Q15.25,15.914028,15.25843,15.82847Q15.26685,15.742912,15.28363,15.658592Q15.3004,15.574272,15.32535,15.492002Q15.35031,15.409732,15.38321,15.330304Q15.41611,15.250876,15.45664,15.175056Q15.497160000000001,15.099235,15.54493,15.027752Q15.59269,14.95627,15.64723,14.88981Q15.70177,14.82335,15.76256,14.76256Q15.82335,14.70177,15.88981,14.64723Q15.95627,14.59269,16.027752,14.54493Q16.099235,14.497160000000001,16.175056,14.45664Q16.250876,14.41611,16.330304,14.38321Q16.409731999999998,14.35031,16.492002,14.32535Q16.574272,14.3004,16.658592,14.28363Q16.742912,14.26685,16.82847,14.25843Q16.914028,14.25,17,14.25Q17.17236,14.25,17.341408,14.28363Q17.510456,14.31725,17.669696,14.38321Q17.828936,14.44917,17.972248,14.54493Q18.11556,14.64069,18.23744,14.76256L18.23791,14.76304Z" fill-rule="evenodd" fill="#FFFFFF" fill-opacity="1" style="mix-blend-mode:passthrough"/></g><g><path d="M23.23744,17.23744Q23.35931,17.11556,23.45507,16.972248Q23.55083,16.828936,23.61679,16.669696Q23.68275,16.510456,23.71637,16.341408Q23.75,16.17236,23.75,16Q23.75,15.914028,23.74157,15.82847Q23.733150000000002,15.742912,23.71637,15.658592Q23.6996,15.574272,23.67464,15.492002Q23.64969,15.409732,23.61679,15.330304Q23.58389,15.250876,23.54336,15.175056Q23.50283,15.099235,23.45507,15.027752Q23.40731,14.95627,23.35277,14.88981Q23.29823,14.82335,23.23744,14.76256Q23.176650000000002,14.70177,23.11019,14.64723Q23.04373,14.59269,22.97225,14.54493Q22.90076,14.497160000000001,22.824939999999998,14.45664Q22.749119999999998,14.41611,22.66969,14.38321Q22.59027,14.35031,22.508,14.32535Q22.42573,14.3004,22.34141,14.28363Q22.257089999999998,14.26685,22.17153,14.25843Q22.08597,14.25,22,14.25Q21.82764,14.25,21.65859,14.28363Q21.489539999999998,14.31725,21.3303,14.38321Q21.17106,14.44917,21.02775,14.54493Q20.88444,14.64069,20.76256,14.76256L20.76209,14.76304L15.76256,19.76256Q15.64069,19.88444,15.54493,20.02775Q15.44917,20.17106,15.38321,20.3303Q15.31725,20.489539999999998,15.28363,20.65859Q15.25,20.82764,15.25,21Q15.25,21.08597,15.25843,21.17153Q15.26685,21.257089999999998,15.28363,21.34141Q15.3004,21.42573,15.32535,21.508Q15.35031,21.59027,15.38321,21.66969Q15.41611,21.749119999999998,15.45664,21.824939999999998Q15.497160000000001,21.90076,15.54493,21.97225Q15.59269,22.04373,15.64723,22.11019Q15.70177,22.176650000000002,15.76256,22.23744Q15.82335,22.29823,15.88981,22.35277Q15.95627,22.40731,16.027752,22.45507Q16.099235,22.50283,16.175056,22.54336Q16.250876,22.58389,16.330304,22.61679Q16.409731999999998,22.64969,16.492002,22.67464Q16.574272,22.6996,16.658592,22.71637Q16.742912,22.733150000000002,16.82847,22.74157Q16.914028,22.75,17,22.75Q17.17236,22.75,17.341408,22.71637Q17.510456,22.68275,17.669696,22.61679Q17.828936,22.55083,17.972248,22.45507Q18.11556,22.35931,18.23744,22.23744L18.23834,22.236530000000002L23.23744,17.23744L23.23744,17.23744Z" fill-rule="evenodd" fill="#FFFFFF" fill-opacity="1" style="mix-blend-mode:passthrough"/></g></g><g><g><path d="M17.530484,15.469824L22.5297,20.46904L22.53033,20.46967Q22.63582,20.57516,22.69291,20.712989999999998Q22.75,20.85082,22.75,21Q22.75,21.07387,22.735590000000002,21.14632Q22.72118,21.21877,22.69291,21.287010000000002Q22.66464,21.35526,22.6236,21.41668Q22.58256,21.4781,22.53033,21.53033Q22.4781,21.58256,22.41668,21.6236Q22.35526,21.66464,22.287010000000002,21.69291Q22.21877,21.72118,22.14632,21.735590000000002Q22.07387,21.75,22,21.75Q21.85082,21.75,21.712989999999998,21.69291Q21.57516,21.63582,21.46967,21.53033L21.46904,21.5297L16.469824,16.530484L16.46967,16.53033Q16.364181,16.424841,16.30709,16.287013Q16.25,16.149184,16.25,16Q16.25,15.9261315,16.264411,15.853682Q16.278822,15.781233,16.30709,15.712987Q16.335359,15.644742,16.376398000000002,15.583322Q16.417437,15.521903,16.46967,15.46967Q16.521903000000002,15.417437,16.583322,15.376398Q16.644742,15.335359,16.712987,15.30709Q16.781233,15.278822,16.853682,15.264410999999999Q16.9261315,15.25,17,15.25Q17.149184,15.25,17.287013,15.30709Q17.424841,15.364181,17.53033,15.46967L17.530484,15.469824Z" fill-rule="evenodd" fill="#DE1000" fill-opacity="1" style="mix-blend-mode:passthrough"/></g><g><path d="M22.53033,16.53033Q22.63582,16.424841,22.69291,16.287013Q22.75,16.149184,22.75,16Q22.75,15.9261315,22.735590000000002,15.853682Q22.72118,15.781233,22.69291,15.712987Q22.66464,15.644742,22.6236,15.583322Q22.58256,15.521903,22.53033,15.46967Q22.4781,15.417437,22.41668,15.376398Q22.35526,15.335359,22.287010000000002,15.30709Q22.21877,15.278822,22.14632,15.264410999999999Q22.07387,15.25,22,15.25Q21.85082,15.25,21.712989999999998,15.30709Q21.57516,15.364181,21.46967,15.46967L21.46921,15.470132L16.470132,20.46921L16.46967,20.46967Q16.364181,20.57516,16.30709,20.712989999999998Q16.25,20.85082,16.25,21Q16.25,21.07387,16.264411,21.14632Q16.278822,21.21877,16.30709,21.287010000000002Q16.335359,21.35526,16.376398000000002,21.41668Q16.417437,21.4781,16.46967,21.53033Q16.521903000000002,21.58256,16.583322,21.6236Q16.644742,21.66464,16.712987,21.69291Q16.781233,21.72118,16.853682,21.735590000000002Q16.9261315,21.75,17,21.75Q17.149184,21.75,17.287013,21.69291Q17.424841,21.63582,17.53033,21.53033L17.530792,21.52987L22.52987,16.530792L22.53033,16.53033L22.53033,16.53033Z" fill-rule="evenodd" fill="#DE1000" fill-opacity="1" style="mix-blend-mode:passthrough"/></g></g></g></svg>