<svg xmlns="http://www.w3.org/2000/svg" xmlns:xlink="http://www.w3.org/1999/xlink" fill="none" version="1.1" width="24" height="24" viewBox="0 0 24 24"><defs><clipPath id="master_svg0_62_01299"><rect x="0" y="0" width="24" height="24" rx="0"/></clipPath></defs><g clip-path="url(#master_svg0_62_01299)"><g><path d="M18.25,8.31066L18.25,12.5Q18.25,12.57387,18.264400000000002,12.64632Q18.2788,12.71877,18.3071,12.78701Q18.3354,12.85526,18.3764,12.91668Q18.4174,12.9781,18.4697,13.0303Q18.521900000000002,13.0826,18.5833,13.1236Q18.6447,13.1646,18.713,13.1929Q18.7812,13.2212,18.8537,13.2356Q18.926099999999998,13.25,19,13.25Q19.073900000000002,13.25,19.1463,13.2356Q19.2188,13.2212,19.287,13.1929Q19.3553,13.1646,19.4167,13.1236Q19.478099999999998,13.0826,19.5303,13.0303Q19.5826,12.9781,19.6236,12.91668Q19.6646,12.85526,19.6929,12.78701Q19.7212,12.71877,19.735599999999998,12.64632Q19.75,12.57387,19.75,12.5L19.75,12.4988L19.75,8Q19.75,7.85082,19.6929,7.71299Q19.6358,7.57516,19.5303,7.46967L14.53033,2.46967Q14.42484,2.364181,14.28701,2.30709Q14.14919,2.25,14,2.25L7,2.25Q5.860913,2.25,5.0554564,3.0554564Q4.25,3.860913,4.25,5L4.25,19Q4.25,20.1391,5.0554563,20.9445Q5.860912,21.75,7,21.75L12,21.75Q12.07387,21.75,12.14632,21.7356Q12.21877,21.7212,12.28701,21.6929Q12.355260000000001,21.6646,12.41668,21.6236Q12.478100000000001,21.5826,12.53033,21.5303Q12.58256,21.4781,12.6236,21.4167Q12.66464,21.3553,12.692910000000001,21.287Q12.72118,21.2188,12.73559,21.1463Q12.75,21.0739,12.75,21Q12.75,20.9261,12.73559,20.8537Q12.72118,20.7812,12.692910000000001,20.713Q12.66464,20.6447,12.6236,20.5833Q12.58256,20.5219,12.53033,20.4697Q12.478100000000001,20.4174,12.41668,20.3764Q12.355260000000001,20.3354,12.28701,20.3071Q12.21877,20.2788,12.14632,20.2644Q12.07387,20.25,12,20.25L7,20.25Q6.4822299999999995,20.25,6.1161200000000004,19.8839Q5.75,19.5178,5.75,19L5.75,5Q5.75,4.4822299999999995,6.1161200000000004,4.1161200000000004Q6.4822299999999995,3.75,7,3.75L13.68934,3.75L18.25,8.31066Z" fill-rule="evenodd" fill="#231F2E" fill-opacity="1"/></g><g><path d="M8,7.25L10,7.25Q10.07387,7.25,10.14632,7.264411Q10.21877,7.278822,10.28701,7.30709Q10.35526,7.335359,10.41668,7.376398Q10.4781,7.417437,10.53033,7.46967Q10.58256,7.521903,10.6236,7.583322Q10.66464,7.644742,10.69291,7.712987Q10.72118,7.781233,10.73559,7.853682Q10.75,7.9261315,10.75,8Q10.75,8.0738685,10.73559,8.146318Q10.72118,8.218767,10.69291,8.287013Q10.66464,8.355258,10.6236,8.416678Q10.58256,8.478097,10.53033,8.53033Q10.4781,8.582563,10.41668,8.623602Q10.35526,8.664641,10.28701,8.69291Q10.21877,8.721178,10.14632,8.735589000000001Q10.07387,8.75,10,8.75L8,8.75Q7.9261315,8.75,7.853682,8.735589000000001Q7.781233,8.721178,7.712987,8.69291Q7.644742,8.664641,7.583322,8.623602Q7.521903,8.582563,7.46967,8.53033Q7.417437,8.478097,7.376398,8.416678Q7.335359,8.355258,7.30709,8.287013Q7.278822,8.218767,7.264411,8.146318Q7.25,8.0738685,7.25,8Q7.25,7.9261315,7.264411,7.853682Q7.278822,7.781233,7.30709,7.712987Q7.335359,7.644742,7.376398,7.583322Q7.417437,7.521903,7.46967,7.46967Q7.521903,7.417437,7.583322,7.376398Q7.644742,7.335359,7.712987,7.30709Q7.781233,7.278822,7.853682,7.264411Q7.9261315,7.25,8,7.25Z" fill-rule="evenodd" fill="#13943C" fill-opacity="1"/></g><g><path d="M8,11.25L15,11.25Q15.07387,11.25,15.14632,11.264410999999999Q15.21877,11.278822,15.28701,11.30709Q15.355260000000001,11.335359,15.41668,11.376398Q15.478100000000001,11.417437,15.53033,11.46967Q15.58256,11.521903,15.6236,11.583322Q15.66464,11.644742,15.692910000000001,11.712987Q15.72118,11.781233,15.73559,11.853682Q15.75,11.9261315,15.75,12Q15.75,12.0738685,15.73559,12.146318Q15.72118,12.218767,15.692910000000001,12.287013Q15.66464,12.355258,15.6236,12.416678Q15.58256,12.478097,15.53033,12.53033Q15.478100000000001,12.582563,15.41668,12.623602Q15.355260000000001,12.664641,15.28701,12.69291Q15.21877,12.721178,15.14632,12.735589000000001Q15.07387,12.75,15,12.75L8,12.75Q7.9261315,12.75,7.853682,12.735589000000001Q7.781233,12.721178,7.712987,12.69291Q7.644742,12.664641,7.583322,12.623602Q7.521903,12.582563,7.46967,12.53033Q7.417437,12.478097,7.376398,12.416678Q7.335359,12.355258,7.30709,12.287013Q7.278822,12.218767,7.264411,12.146318Q7.25,12.0738685,7.25,12Q7.25,11.9261315,7.264411,11.853682Q7.278822,11.781233,7.30709,11.712987Q7.335359,11.644742,7.376398,11.583322Q7.417437,11.521903,7.46967,11.46967Q7.521903,11.417437,7.583322,11.376398Q7.644742,11.335359,7.712987,11.30709Q7.781233,11.278822,7.853682,11.264410999999999Q7.9261315,11.25,8,11.25Z" fill-rule="evenodd" fill="#13943C" fill-opacity="1"/></g><g><path d="M16,21.27375C16,21.40219,16.0973236,21.50973,16.225124,21.52251L20.72512,21.97251C20.8723,21.98723,21,21.87166,21,21.72375L21,16.276247C21,16.128341,20.8723,16.0127704,20.72512,16.0274876L16.225124,16.477488C16.0973236,16.490268,16,16.597809,16,16.726247L16,21.27375Z" fill="#13943C" fill-opacity="1"/><path d="M15.25,16.726247L15.25,21.27375Q15.25,21.65907,15.508548,21.94476Q15.767094,22.23045,16.150496,22.26879L20.6505,22.71879Q21.092010000000002,22.76294,21.42101,22.46521Q21.75,22.16747,21.75,21.72375L21.75,16.276247Q21.75,15.83253,21.42101,15.534794Q21.092010000000002,15.237058,20.6505,15.28121L16.150496,15.73121Q15.767095,15.76955,15.508547,16.0552417Q15.25,16.340933,15.25,16.726247ZM16.75,20.82126L20.25,21.17126L20.25,16.828741L16.75,17.17874L16.75,20.82126Z" fill-rule="evenodd" fill="#13943C" fill-opacity="1"/></g><g><path d="M17.083975,17.77735Q17,17.651388,17,17.5Q17,17.4507543,17.009607,17.4024549Q17.019215,17.354155,17.03806,17.308658Q17.056906,17.263161,17.084265,17.222215Q17.111625,17.181269,17.146447,17.146447Q17.181269,17.111625,17.222215,17.084265Q17.263161,17.056906,17.308658,17.03806Q17.354155,17.019215,17.4024549,17.009607Q17.4507543,17,17.5,17Q17.5617355,17,17.621617,17.015016Q17.681498,17.030032,17.735929,17.059163Q17.79036,17.088293,17.83607,17.129788Q17.88178,17.171283,17.916025,17.22265L19.91603,20.22265Q20,20.34861,20,20.5Q20,20.54925,19.99039,20.59754Q19.98078,20.64584,19.96194,20.69134Q19.94309,20.73684,19.91573,20.77778Q19.88838,20.81873,19.85355,20.85355Q19.81873,20.888370000000002,19.77779,20.91573Q19.73684,20.94309,19.69134,20.96194Q19.64584,20.98078,19.59754,20.99039Q19.54925,21,19.5,21Q19.43826,21,19.37838,20.98498Q19.3185,20.96997,19.26407,20.94084Q19.20964,20.91171,19.16393,20.87021Q19.11822,20.82872,19.08397,20.77735L17.083975,17.77735Z" fill-rule="evenodd" fill="#FFFFFF" fill-opacity="1"/></g><g><path d="M19.91603,17.77735Q20,17.651388,20,17.5Q20,17.4507543,19.99039,17.4024549Q19.98078,17.354155,19.96194,17.308658Q19.94309,17.263161,19.91573,17.222215Q19.88838,17.181269,19.85355,17.146447Q19.81873,17.111625,19.77779,17.084265Q19.73684,17.056906,19.69134,17.03806Q19.64584,17.019215,19.59754,17.009607Q19.54925,17,19.5,17Q19.43826,17,19.37838,17.015016Q19.3185,17.030032,19.26407,17.059163Q19.20964,17.088293,19.16393,17.129788Q19.11822,17.171283,19.08397,17.22265L17.083975,20.22265Q17,20.34861,17,20.5Q17,20.54925,17.009607,20.59754Q17.019215,20.64584,17.03806,20.69134Q17.056906,20.73684,17.084265,20.77778Q17.111625,20.81873,17.146447,20.85355Q17.181269,20.888370000000002,17.222215,20.91573Q17.263161,20.94309,17.308658,20.96194Q17.354155,20.98078,17.4024549,20.99039Q17.4507543,21,17.5,21Q17.5617355,21,17.621617,20.98498Q17.681498,20.96997,17.735929,20.94084Q17.79036,20.91171,17.83607,20.87021Q17.88178,20.82872,17.916025,20.77735L19.91603,17.77735Z" fill-rule="evenodd" fill="#FFFFFF" fill-opacity="1"/></g><g><path d="M8,15.25L12,15.25Q12.07387,15.25,12.14632,15.264410999999999Q12.21877,15.278822,12.28701,15.30709Q12.355260000000001,15.335359,12.41668,15.376398Q12.478100000000001,15.417437,12.53033,15.46967Q12.58256,15.521903,12.6236,15.583322Q12.66464,15.644742,12.692910000000001,15.712987Q12.72118,15.781233,12.73559,15.853682Q12.75,15.9261315,12.75,16Q12.75,16.0738685,12.73559,16.146318Q12.72118,16.218767,12.692910000000001,16.287013Q12.66464,16.355258,12.6236,16.416678Q12.58256,16.478096999999998,12.53033,16.53033Q12.478100000000001,16.582563,12.41668,16.623601999999998Q12.355260000000001,16.664641,12.28701,16.69291Q12.21877,16.721178,12.14632,16.735589Q12.07387,16.75,12,16.75L8,16.75Q7.9261315,16.75,7.853682,16.735589Q7.781233,16.721178,7.712987,16.69291Q7.644742,16.664641,7.583322,16.623601999999998Q7.521903,16.582563,7.46967,16.53033Q7.417437,16.478096999999998,7.376398,16.416678Q7.335359,16.355258,7.30709,16.287013Q7.278822,16.218767,7.264411,16.146318Q7.25,16.0738685,7.25,16Q7.25,15.9261315,7.264411,15.853682Q7.278822,15.781233,7.30709,15.712987Q7.335359,15.644742,7.376398,15.583322Q7.417437,15.521903,7.46967,15.46967Q7.521903,15.417437,7.583322,15.376398Q7.644742,15.335359,7.712987,15.30709Q7.781233,15.278822,7.853682,15.264410999999999Q7.9261315,15.25,8,15.25Z" fill-rule="evenodd" fill="#13943C" fill-opacity="1"/></g><g><path d="M14,3L14,7C14,7.55228,14.447715,8,15,8L19,8" fill="#231F2E" fill-opacity="1"/><path d="M13.25,3Q13.25,2.9261315,13.264410999999999,2.853682Q13.278822,2.781233,13.30709,2.712987Q13.335359,2.644742,13.376398,2.583322Q13.417437,2.521903,13.46967,2.46967Q13.521903,2.417437,13.583322,2.376398Q13.644742,2.335359,13.712987,2.30709Q13.781233,2.278822,13.853682,2.264411Q13.9261315,2.25,14,2.25Q14.0738685,2.25,14.146318,2.264411Q14.218767,2.278822,14.287013,2.30709Q14.355258,2.335359,14.416678,2.376398Q14.478097,2.417437,14.53033,2.46967Q14.582563,2.521903,14.623602,2.583322Q14.664641,2.644742,14.69291,2.712987Q14.721178,2.781233,14.735589000000001,2.853682Q14.75,2.9261315,14.75,3L14.75,7Q14.75,7.10355,14.823223,7.17678Q14.896447,7.25,15,7.25L19,7.25Q19.07387,7.25,19.14632,7.26441Q19.21877,7.27882,19.287010000000002,7.30709Q19.35526,7.33536,19.41668,7.3764Q19.4781,7.41744,19.53033,7.46967Q19.58256,7.5219,19.6236,7.58332Q19.66464,7.64474,19.69291,7.71299Q19.72118,7.78123,19.735590000000002,7.85368Q19.75,7.92613,19.75,8Q19.75,8.07387,19.735590000000002,8.14632Q19.72118,8.21877,19.69291,8.28701Q19.66464,8.355260000000001,19.6236,8.41668Q19.58256,8.478100000000001,19.53033,8.53033Q19.4781,8.58256,19.41668,8.6236Q19.35526,8.66464,19.287010000000002,8.692910000000001Q19.21877,8.72118,19.14632,8.73559Q19.07387,8.75,19,8.75L15,8.75Q14.275126,8.75,13.762563,8.23744Q13.25,7.72487,13.25,7L13.25,3Z" fill-rule="evenodd" fill="#231F2E" fill-opacity="1"/></g><g><path d="M12.0145036,9.560612500000001C11.9780114,9.6830325,12.011558,9.8156025,12.101885,9.905932499999999C12.192212,9.9962525,12.324782,10.0298025,12.4472,9.9933125L13.69242,9.6222925C14.08024,9.5067325,14.43313,9.2963325,14.7192,9.0101225L19.64351,4.0858225C20.118830000000003,3.6104125,20.118830000000003,2.8397125,19.64351,2.3643065C19.1681,1.8889805,18.3974,1.8889805,17.922,2.3643065L12.997694,7.2886125C12.71148,7.5746825,12.50108,7.9275725,12.385519,8.3153925L12.0145036,9.560612500000001Z" fill="#FFFFFF" fill-opacity="1"/><path d="M11.056139,9.2750625L11.056176,9.2749425L11.427161,8.0298225Q11.675555,7.1962225,12.290588,6.5815025L17.21495,1.6571415Q17.86438,1.0078125,18.78275,1.0078125Q19.70112,1.0078125,20.35067,1.6572594999999999Q21,2.3066965,21,3.2250625Q21,4.143432499999999,20.35061,4.7929224999999995L15.42649,9.717052500000001Q14.811589999999999,10.3322625,13.97797,10.5806625L12.732873,10.9516325Q11.9629088,11.1811625,11.394778,10.6130325Q10.86216,10.0804225,11.030602,9.3704025Q11.041816,9.3231225,11.056139,9.2750625ZM12.101885,9.905932499999999C12.011558,9.8156025,11.9780114,9.6830325,12.0145036,9.560612500000001L12.172028,9.0319225L12.17205,9.0318425L12.385519,8.3153925C12.50108,7.9275725,12.71148,7.5746825,12.997694,7.2886125L17.922,2.3643065C18.3974,1.8889805,19.1681,1.8889805,19.64351,2.3643065C20.118830000000003,2.8397125,20.118830000000003,3.6104125,19.64351,4.0858225L14.7192,9.0101225C14.43313,9.2963325,14.08024,9.5067325,13.69242,9.6222925L12.975966,9.835762500000001L12.97589,9.8357825L12.4472,9.9933125C12.324782,10.0298025,12.192212,9.9962525,12.101885,9.905932499999999Z" fill-rule="evenodd" fill="#FFFFFF" fill-opacity="1"/></g><g><path d="M19.64351,2.3643065C19.1681,1.8889805,18.3974,1.8889805,17.922,2.3643065L17.38541,2.9008875L19.10693,4.6224025L19.64351,4.0858225C20.118830000000003,3.6104125,20.118830000000003,2.8397125,19.64351,2.3643065ZM18.61487,5.1144625L16.893349999999998,3.3929425L12.997694,7.2886125C12.71148,7.5746825,12.50108,7.9275725,12.385519,8.3153925L12.0145036,9.560612500000001C11.9780114,9.6830325,12.011558,9.8156025,12.101885,9.905932499999999C12.192212,9.9962525,12.324782,10.0298025,12.4472,9.9933125L13.69242,9.6222925C14.08024,9.5067325,14.43313,9.2963325,14.7192,9.0101225L18.61487,5.1144625Z" fill="#13943C" fill-opacity="1"/></g></g></svg>