<svg xmlns="http://www.w3.org/2000/svg" xmlns:xlink="http://www.w3.org/1999/xlink" fill="none" version="1.1" width="24" height="24" viewBox="0 0 24 24"><defs><clipPath id="master_svg0_62_08579"><rect x="0" y="0" width="24" height="24" rx="0"/></clipPath></defs><g clip-path="url(#master_svg0_62_08579)"><g><g><path d="M1.75,13.25L1.75,7.75L9.25,7.75L9.25,13.25L1.75,13.25ZM7.75,9.25L3.25,9.25L3.25,11.75L7.75,11.75L7.75,9.25Z" fill-rule="evenodd" fill="#736F78" fill-opacity="1"/></g><g><path d="M7.75,17.25L7.75,11.75L15.25,11.75L15.25,17.25L7.75,17.25ZM13.75,13.25L9.25,13.25L9.25,15.75L13.75,15.75L13.75,13.25Z" fill-rule="evenodd" fill="#736F78" fill-opacity="1"/></g><g><path d="M13.75,13.25L13.75,7.75L21.25,7.75L21.25,13.25L13.75,13.25ZM19.75,9.25L15.25,9.25L15.25,11.75L19.75,11.75L19.75,9.25Z" fill-rule="evenodd" fill="#736F78" fill-opacity="1"/></g><g><path d="M7.75,13.25L7.75,7.75L15.25,7.75L15.25,13.25L7.75,13.25ZM13.75,9.25L9.25,9.25L9.25,11.75L13.75,11.75L13.75,9.25Z" fill-rule="evenodd" fill="#736F78" fill-opacity="1"/></g><g><path d="M7.75,9.25L7.75,3.75L15.25,3.75L15.25,9.25L7.75,9.25ZM13.75,5.25L9.25,5.25L9.25,7.75L13.75,7.75L13.75,5.25Z" fill-rule="evenodd" fill="#736F78" fill-opacity="1"/></g></g><g><path d="M2.5,19.5L7.5,19.5L10.5,16.5L2.5,16.5L2.5,19.5Z" fill="#13943C" fill-opacity="0.20000000298023224"/><path d="M1.75,20.25L7.81066,20.25L8.03033,20.03033L12.31066,15.75L1.75,15.75L1.75,20.25ZM7.18934,18.75L3.25,18.75L3.25,17.25L8.68934,17.25L7.18934,18.75Z" fill-rule="evenodd" fill="#13943C" fill-opacity="1"/></g><g><path d="M20.591,16.591Q21.25,15.932,21.25,15L21.25,6Q21.25,5.068018,20.591,4.4090097Q19.932,3.75,19,3.75L4,3.75Q3.0680199999999997,3.75,2.4090099,4.4090098Q1.75,5.06802,1.75,6L1.75,17.25L19,17.25Q19.932,17.25,20.591,16.591ZM19.75,6L19.75,15Q19.75,15.75,19,15.75L3.25,15.75L3.25,6Q3.25,5.25,4,5.25L19,5.25Q19.75,5.25,19.75,6Z" fill-rule="evenodd" fill="#231F2E" fill-opacity="1"/></g><g><path d="M22.73744,18.23744Q22.85931,18.11556,22.95507,17.972248Q23.05083,17.828936,23.11679,17.669696Q23.18275,17.510456,23.21637,17.341408Q23.25,17.17236,23.25,17Q23.25,16.914028,23.24157,16.82847Q23.233150000000002,16.742912,23.21637,16.658592Q23.1996,16.574272,23.17465,16.492002Q23.14969,16.409731999999998,23.11679,16.330304Q23.08389,16.250876,23.04336,16.175056Q23.00284,16.099235,22.95507,16.027752Q22.90731,15.95627,22.85277,15.88981Q22.79823,15.82335,22.73744,15.76256Q22.676650000000002,15.70177,22.61019,15.64723Q22.54373,15.59269,22.47225,15.54493Q22.40076,15.497160000000001,22.324939999999998,15.45664Q22.249119999999998,15.41611,22.1697,15.38321Q22.09027,15.35031,22.008,15.32535Q21.92573,15.3004,21.84141,15.28363Q21.757089999999998,15.26685,21.67153,15.25843Q21.58597,15.25,21.5,15.25Q21.32764,15.25,21.15859,15.28363Q20.989539999999998,15.31725,20.8303,15.38321Q20.67106,15.44917,20.52775,15.54493Q20.384439999999998,15.64069,20.26256,15.76256L20.26228,15.76285L17.5,18.52513L16.73744,17.762563Q16.61556,17.640686,16.472248,17.544928Q16.328936,17.44917,16.169696,17.383211Q16.010456,17.317252,15.841408,17.283626Q15.67236,17.25,15.5,17.25Q15.414028,17.25,15.32847,17.258427Q15.242912,17.266853,15.158592,17.283626Q15.074272,17.300398,14.992002,17.325354Q14.909732,17.350311,14.830304,17.383211Q14.750876,17.416111,14.675056,17.456638Q14.599235,17.497165,14.527752,17.544928Q14.45627,17.592692,14.38981,17.647232Q14.32335,17.701772,14.26256,17.762563Q14.20177,17.823354,14.14723,17.889812Q14.09269,17.956269,14.04493,18.02775Q13.997160000000001,18.09924,13.95664,18.17506Q13.91611,18.25088,13.88321,18.3303Q13.85031,18.40973,13.82535,18.492Q13.8004,18.57427,13.78363,18.65859Q13.76685,18.74291,13.75843,18.82847Q13.75,18.91403,13.75,19Q13.75,19.17236,13.78363,19.34141Q13.81725,19.510460000000002,13.88321,19.6697Q13.94917,19.82894,14.04493,19.97225Q14.14069,20.11556,14.26256,20.23744L16.262563,22.23744Q16.323355,22.29823,16.389812,22.35277Q16.456269,22.40731,16.52775,22.45507Q16.59924,22.50284,16.67506,22.54336Q16.75088,22.58389,16.8303,22.61679Q16.90973,22.64969,16.992,22.67464Q17.07427,22.6996,17.15859,22.71637Q17.24291,22.733150000000002,17.32847,22.74157Q17.41403,22.75,17.5,22.75Q17.58597,22.75,17.67153,22.74157Q17.757089999999998,22.733150000000002,17.84141,22.71637Q17.92573,22.6996,18.008,22.67464Q18.09027,22.64969,18.1697,22.61679Q18.24912,22.58389,18.324939999999998,22.54336Q18.40076,22.50284,18.47225,22.45507Q18.54373,22.40731,18.61019,22.35277Q18.67665,22.29823,18.73744,22.23744L22.73715,18.23772L22.73744,18.23744Z" fill-rule="evenodd" fill="#FFFFFF" fill-opacity="1" style="mix-blend-mode:passthrough"/></g><g><path d="M22.03033,17.53033Q22.13582,17.424841,22.19291,17.287013Q22.25,17.149184,22.25,17Q22.25,16.9261315,22.235590000000002,16.853682Q22.22118,16.781233,22.19291,16.712987Q22.16464,16.644742,22.1236,16.583322Q22.08256,16.521903000000002,22.03033,16.46967Q21.9781,16.417437,21.91668,16.376398000000002Q21.85526,16.335359,21.787010000000002,16.30709Q21.71877,16.278822,21.64632,16.264411Q21.57387,16.25,21.5,16.25Q21.35082,16.25,21.212989999999998,16.30709Q21.07516,16.364181,20.96967,16.46967L17.5,19.93934L16.030484,18.46982L16.03033,18.46967Q15.924841,18.36418,15.787013,18.30709Q15.649184,18.25,15.5,18.25Q15.4261315,18.25,15.353682,18.26441Q15.281233,18.27882,15.212987,18.30709Q15.144742,18.33536,15.083322,18.3764Q15.021903,18.41744,14.96967,18.46967Q14.917437,18.5219,14.876398,18.58332Q14.835359,18.64474,14.80709,18.71299Q14.778822,18.78123,14.764410999999999,18.85368Q14.75,18.92613,14.75,19Q14.75,19.14918,14.80709,19.28701Q14.864181,19.42484,14.96967,19.53033L16.96967,21.53033Q17.07516,21.63582,17.21299,21.69291Q17.35082,21.75,17.5,21.75Q17.64918,21.75,17.78701,21.69291Q17.92484,21.63582,18.03033,21.53033L22.03033,17.53033L22.03033,17.53033Z" fill-rule="evenodd" fill="#13943C" fill-opacity="1" style="mix-blend-mode:passthrough"/></g></g></svg>