<svg xmlns="http://www.w3.org/2000/svg" xmlns:xlink="http://www.w3.org/1999/xlink" fill="none" version="1.1" width="24" height="24" viewBox="0 0 24 24"><defs><clipPath id="master_svg0_62_00827"><rect x="0" y="0" width="24" height="24" rx="0"/></clipPath></defs><g clip-path="url(#master_svg0_62_00827)"><g><path d="M12.99998950958252,4.25L20.49998950958252,4.25Q21.43196950958252,4.25,22.090979509582517,4.9090098Q22.74998950958252,5.568021,22.74998950958252,6.5L22.74998950958252,14.5Q22.74998950958252,14.57387,22.73557950958252,14.64632Q22.72116950958252,14.71877,22.692899509582517,14.78701Q22.664629509582518,14.85526,22.62358950958252,14.91668Q22.58254950958252,14.9781,22.53031950958252,15.0303Q22.478089509582517,15.0826,22.41666950958252,15.1236Q22.35524950958252,15.1646,22.28699950958252,15.1929Q22.21875950958252,15.2212,22.14630950958252,15.2356Q22.07385950958252,15.25,21.99998950958252,15.25Q21.92611950958252,15.25,21.85366950958252,15.2356Q21.78121950958252,15.2212,21.712979509582517,15.1929Q21.64472950958252,15.1646,21.58330950958252,15.1236Q21.521889509582522,15.0826,21.46965950958252,15.0303Q21.41742950958252,14.9781,21.37638950958252,14.91668Q21.33534950958252,14.85526,21.307079509582522,14.78701Q21.27880950958252,14.71877,21.264399509582518,14.64632Q21.24998950958252,14.57387,21.24998950958252,14.5L21.24998950958252,6.5Q21.24998950958252,6.18934,21.03031950958252,5.96967Q20.810649509582518,5.75,20.49998950958252,5.75L12.99998950958252,5.75Q12.92612100958252,5.75,12.853671509582519,5.735589Q12.78122250958252,5.721178,12.71297650958252,5.69291Q12.64473150958252,5.664641,12.58331150958252,5.623602Q12.52189250958252,5.582563,12.46965950958252,5.53033Q12.41742650958252,5.478097,12.37638750958252,5.416678Q12.33534850958252,5.355258,12.30707950958252,5.287013Q12.27881150958252,5.218767,12.264400509582519,5.146318Q12.24998950958252,5.0738685,12.24998950958252,5Q12.24998950958252,4.9261315,12.264400509582519,4.853682Q12.27881150958252,4.781233,12.30707950958252,4.712987Q12.33534850958252,4.644742,12.37638750958252,4.583322Q12.41742650958252,4.521903,12.46965950958252,4.46967Q12.52189250958252,4.417437,12.58331150958252,4.376398Q12.64473150958252,4.335359,12.71297650958252,4.30709Q12.78122250958252,4.278822,12.853671509582519,4.264411Q12.92612100958252,4.25,12.99998950958252,4.25Z" fill-rule="evenodd" fill="#231F2E" fill-opacity="1"/></g><g><path d="M17,12.748992919921875L15.5,12.748992919921875Q15.4261315,12.748992919921875,15.353682,12.734581919921876Q15.281233,12.720170919921875,15.212987,12.691902919921874Q15.144742,12.663633919921875,15.083322,12.622594919921875Q15.021903,12.581555919921875,14.96967,12.529322919921874Q14.917437,12.477089919921875,14.876398,12.415670919921874Q14.835359,12.354250919921874,14.80709,12.286005919921875Q14.778822,12.217759919921875,14.764410999999999,12.145310919921876Q14.75,12.072861419921875,14.75,11.998992919921875Q14.75,11.925124419921875,14.764410999999999,11.852674919921874Q14.778822,11.780225919921875,14.80709,11.711979919921875Q14.835359,11.643734919921876,14.876398,11.582314919921876Q14.917437,11.520895919921875,14.96967,11.468662919921876Q15.021903,11.416429919921875,15.083322,11.375390919921875Q15.144742,11.334351919921875,15.212987,11.306082919921876Q15.281233,11.277814919921875,15.353682,11.263403919921874Q15.4261315,11.248992919921875,15.5,11.248992919921875L17,11.248992919921875Q17.07387,11.248992919921875,17.14632,11.263403919921874Q17.21877,11.277814919921875,17.28701,11.306082919921876Q17.35526,11.334351919921875,17.41668,11.375390919921875Q17.4781,11.416429919921875,17.53033,11.468662919921876Q17.58256,11.520895919921875,17.6236,11.582314919921876Q17.66464,11.643734919921876,17.69291,11.711979919921875Q17.72118,11.780225919921875,17.735590000000002,11.852674919921874Q17.75,11.925124419921875,17.75,11.998992919921875Q17.75,12.072861419921875,17.735590000000002,12.145310919921876Q17.72118,12.217759919921875,17.69291,12.286005919921875Q17.66464,12.354250919921874,17.6236,12.415670919921874Q17.58256,12.477089919921875,17.53033,12.529322919921874Q17.4781,12.581555919921875,17.41668,12.622594919921875Q17.35526,12.663633919921875,17.28701,12.691902919921874Q17.21877,12.720170919921875,17.14632,12.734581919921876Q17.07387,12.748992919921875,17,12.748992919921875Z" fill-rule="evenodd" fill="#231F2E" fill-opacity="1"/></g><g><path d="M15.5,8.25L19.5,8.25Q19.57387,8.25,19.64632,8.264410999999999Q19.71877,8.278822,19.787010000000002,8.30709Q19.85526,8.335359,19.91668,8.376398Q19.9781,8.417437,20.03033,8.46967Q20.08256,8.521903,20.1236,8.583322Q20.16464,8.644742,20.19291,8.712987Q20.22118,8.781233,20.235590000000002,8.853682Q20.25,8.9261315,20.25,9Q20.25,9.0738685,20.235590000000002,9.146318Q20.22118,9.218767,20.19291,9.287013Q20.16464,9.355258,20.1236,9.416678Q20.08256,9.478097,20.03033,9.53033Q19.9781,9.582563,19.91668,9.623602Q19.85526,9.664641,19.787010000000002,9.69291Q19.71877,9.721178,19.64632,9.735589000000001Q19.57387,9.75,19.5,9.75L15.5,9.75Q15.4261315,9.75,15.353682,9.735589000000001Q15.281233,9.721178,15.212987,9.69291Q15.144742,9.664641,15.083322,9.623602Q15.021903,9.582563,14.96967,9.53033Q14.917437,9.478097,14.876398,9.416678Q14.835359,9.355258,14.80709,9.287013Q14.778822,9.218767,14.764410999999999,9.146318Q14.75,9.0738685,14.75,9Q14.75,8.9261315,14.764410999999999,8.853682Q14.778822,8.781233,14.80709,8.712987Q14.835359,8.644742,14.876398,8.583322Q14.917437,8.521903,14.96967,8.46967Q15.021903,8.417437,15.083322,8.376398Q15.144742,8.335359,15.212987,8.30709Q15.281233,8.278822,15.353682,8.264410999999999Q15.4261315,8.25,15.5,8.25Z" fill-rule="evenodd" fill="#231F2E" fill-opacity="1"/></g><g><path d="M1.25,5.251860000000001L1.25,18.7481Q1.25,19.5637,1.772559,20.1898Q2.295118,20.816,3.0975099999999998,20.9618L11.09751,22.4164Q12.1334,22.6047,12.9417,21.9301Q13.75,21.2555,13.75,20.2027L13.75,3.79732Q13.75,2.744481,12.9417,2.0698778Q12.1334,1.3952740000000001,11.09751,1.583612L3.0975099999999998,3.03816Q2.295117,3.18405,1.772559,3.81018Q1.25,4.43632,1.25,5.251860000000001ZM3.36584,19.486Q2.75,19.3741,2.75,18.7481L2.75,5.251860000000001Q2.75,4.62593,3.36584,4.51396L11.36584,3.0594200000000003Q11.71112,2.996638,11.98056,3.2215100000000003Q12.25,3.44637,12.25,3.79732L12.25,20.2027Q12.25,20.5536,11.98056,20.7785Q11.71112,21.0034,11.36584,20.9406L3.36584,19.486Z" fill-rule="evenodd" fill="#231F2E" fill-opacity="1"/></g><g><path d="M4.875962,9.416025Q4.75,9.227082,4.75,9Q4.75,8.9261315,4.764411,8.853682Q4.778822,8.781233,4.80709,8.712987Q4.835359,8.644742,4.876398,8.583322Q4.917437,8.521903,4.96967,8.46967Q5.021903,8.417437,5.083322,8.376398Q5.144742,8.335359,5.212987,8.30709Q5.281233,8.278822,5.353682,8.264410999999999Q5.4261315,8.25,5.5,8.25Q5.5926032,8.25,5.682425,8.272524Q5.772247,8.295048,5.853893,8.338744Q5.935539,8.38244,6.004105,8.444682Q6.072671,8.506924,6.124038,8.583975L10.12404,14.58397Q10.25,14.77292,10.25,15Q10.25,15.07387,10.23559,15.14632Q10.22118,15.21877,10.192910000000001,15.28701Q10.16464,15.355260000000001,10.1236,15.41668Q10.08256,15.478100000000001,10.03033,15.53033Q9.978100000000001,15.58256,9.91668,15.6236Q9.855260000000001,15.66464,9.78701,15.692910000000001Q9.71877,15.72118,9.64632,15.73559Q9.57387,15.75,9.5,15.75Q9.407399999999999,15.75,9.31757,15.72748Q9.22775,15.70495,9.14611,15.66126Q9.06446,15.617560000000001,8.99589,15.55532Q8.92733,15.493079999999999,8.87596,15.41603L4.875962,9.416025L4.875962,9.416025Z" fill-rule="evenodd" fill="#231F2E" fill-opacity="1"/></g><g><path d="M10.12404,9.416025Q10.25,9.227082,10.25,9Q10.25,8.9261315,10.23559,8.853682Q10.22118,8.781233,10.192910000000001,8.712987Q10.16464,8.644742,10.1236,8.583322Q10.08256,8.521903,10.03033,8.46967Q9.978100000000001,8.417437,9.91668,8.376398Q9.855260000000001,8.335359,9.78701,8.30709Q9.71877,8.278822,9.64632,8.264410999999999Q9.57387,8.25,9.5,8.25Q9.407399999999999,8.25,9.31757,8.272524Q9.22775,8.295048,9.14611,8.338744Q9.06446,8.38244,8.99589,8.444682Q8.92733,8.506924,8.87596,8.583975L4.875962,14.58397Q4.75,14.77292,4.75,15Q4.75,15.07387,4.764411,15.14632Q4.778822,15.21877,4.80709,15.28701Q4.835359,15.355260000000001,4.876398,15.41668Q4.917437,15.478100000000001,4.96967,15.53033Q5.021903,15.58256,5.083322,15.6236Q5.144742,15.66464,5.212987,15.692910000000001Q5.281233,15.72118,5.353682,15.73559Q5.4261315,15.75,5.5,15.75Q5.5926032,15.75,5.682425,15.72748Q5.772247,15.70495,5.853893,15.66126Q5.935539,15.617560000000001,6.004105,15.55532Q6.072671,15.493079999999999,6.124038,15.41603L10.12404,9.416025L10.12404,9.416025Z" fill-rule="evenodd" fill="#231F2E" fill-opacity="1"/></g><g><path d="M16.17691670703125,18.62294L15.98907470703125,18.62294Q15.91520620703125,18.62294,15.84275670703125,18.608530000000002Q15.77030770703125,18.59412,15.70206170703125,18.56585Q15.63381670703125,18.53759,15.57239670703125,18.49655Q15.51097770703125,18.45551,15.45874470703125,18.40327Q15.40651170703125,18.35104,15.36547270703125,18.28962Q15.32443370703125,18.2282,15.29616470703125,18.159959999999998Q15.26789670703125,18.09171,15.253485707031249,18.01926Q15.23907470703125,17.94681,15.23907470703125,17.87294L15.23907470703125,16.37021Q15.23907470703125,16.296341,15.253485707031249,16.223892Q15.26789670703125,16.151443,15.29616470703125,16.0831974Q15.32443370703125,16.0149518,15.36547270703125,15.953532299999999Q15.40651170703125,15.892113,15.45874470703125,15.83988Q15.51097770703125,15.787647,15.57239670703125,15.746608Q15.63381670703125,15.705569,15.70206170703125,15.6773Q15.77030770703125,15.649032,15.84275670703125,15.634621Q15.91520620703125,15.62021,15.98907470703125,15.62021Q16.09449670703125,15.62021,16.19583370703125,15.649273Q16.29717170703125,15.678335,16.38656970703125,15.734208Q16.47596770703125,15.790082,16.54649870703125,15.868435Q16.61702970703125,15.946788,16.66322770703125,16.041549Q16.86317070703125,15.889023,17.08853470703125,15.758829Q18.19919470703125,15.117184,19.47134470703125,15.281331Q20.74348470703125,15.445478,21.65489470703125,16.348037Q22.09259470703125,16.78148,22.37037470703125,17.33008L22.370774707031252,17.33088L22.37079470703125,17.33091Q22.451594707031248,17.49059,22.451594707031248,17.66955Q22.451594707031248,17.74342,22.43718470703125,17.81587Q22.42277470703125,17.88832,22.39450470703125,17.95656Q22.36623470703125,18.02481,22.32519470703125,18.08623Q22.28415470703125,18.14765,22.23192470703125,18.19988Q22.17969470703125,18.252110000000002,22.11827470703125,18.29315Q22.05685470703125,18.33419,21.98860470703125,18.36246Q21.92036470703125,18.39073,21.84791470703125,18.40514Q21.77546470703125,18.41955,21.701594707031248,18.41955Q21.59759470703125,18.41955,21.49751470703125,18.39125Q21.397434707031252,18.36295,21.30883470703125,18.30849Q21.22023470703125,18.25402,21.14979470703125,18.177500000000002Q21.07935470703125,18.10099,21.03239470703125,18.00819Q20.86446470703125,17.67632,20.59942470703125,17.41386Q20.04844470703125,16.868231,19.279384707031248,16.768998Q18.510324707031252,16.669765,17.83888470703125,17.05766Q17.76266470703125,17.10169,17.69126470703125,17.14995Q17.75020470703125,17.16621,17.80574470703125,17.19181Q17.86127470703125,17.2174,17.91193470703125,17.25166Q17.96258470703125,17.28591,18.00702470703125,17.32792Q18.05145470703125,17.36992,18.088504707031248,17.41857Q18.12554470703125,17.46722,18.15422470703125,17.52123Q18.18290470703125,17.57524,18.20245470703125,17.63317Q18.22199470703125,17.69111,18.23190470703125,17.75145Q18.24180470703125,17.8118,18.24180470703125,17.87294Q18.24180470703125,17.94681,18.22739470703125,18.01926Q18.21298470703125,18.09171,18.18471470703125,18.159959999999998Q18.15645470703125,18.2282,18.11541470703125,18.28962Q18.07437470703125,18.35104,18.02213470703125,18.40327Q17.96990470703125,18.45551,17.90848470703125,18.49655Q17.84706470703125,18.53759,17.77882470703125,18.56585Q17.71057470703125,18.59412,17.63812470703125,18.608530000000002Q17.56567470703125,18.62294,17.49180470703125,18.62294L16.17691670703125,18.62294Z" fill-rule="evenodd" fill="#13943C" fill-opacity="1"/></g><g><path d="M21.812170844726563,19.377037048339844L20.49728084472656,19.377037048339844Q20.42341084472656,19.377037048339844,20.35096084472656,19.391448048339843Q20.27851084472656,19.405859048339845,20.210260844726562,19.434127048339843Q20.142020844726563,19.462396048339844,20.08060084472656,19.503435048339846Q20.019180844726563,19.544474048339843,19.96695084472656,19.596707048339844Q19.914710844726564,19.648940048339846,19.87367084472656,19.710359048339843Q19.832640844726562,19.771779048339845,19.804370844726563,19.840024048339842Q19.776100844726564,19.908270048339844,19.761690844726562,19.980719048339843Q19.74728084472656,20.053168548339844,19.74728084472656,20.127037048339844Q19.74728084472656,20.188185548339845,19.757180844726562,20.248526048339844Q19.767090844726564,20.308867048339845,19.786640844726563,20.366807048339844Q19.80619084472656,20.424746048339845,19.834860844726563,20.478754048339844Q19.86354084472656,20.532762048339844,19.900580844726562,20.581411048339845Q19.937630844726563,20.630060048339843,19.982070844726564,20.672066048339843Q20.026500844726563,20.714072048339844,20.077160844726563,20.748325048339844Q20.12781084472656,20.782578048339843,20.18335084472656,20.808173048339842Q20.238880844726562,20.833769048339843,20.297830844726562,20.850030048339843Q20.22642084472656,20.898286048339845,20.150200844726562,20.942317048339845Q19.478760844726562,21.330217048339843,18.709700844726562,21.230987048339845Q17.940640844726563,21.131747048339843,17.389660844726563,20.586118048339845Q17.12462484472656,20.323660048339843,16.956686844726562,19.991793048339844Q16.90972784472656,19.898995048339845,16.83928984472656,19.822477048339845Q16.768851844726562,19.745959048339845,16.68025084472656,19.691495048339842Q16.59164984472656,19.637031048339843,16.49157184472656,19.608731048339845Q16.391492844726564,19.580432048339844,16.287490844726562,19.580432048339844Q16.213622344726563,19.580432048339844,16.14117284472656,19.594843048339843Q16.068723844726563,19.609254048339842,16.00047784472656,19.637522048339843Q15.932232844726563,19.665790048339844,15.870812844726563,19.706829048339845Q15.809393844726563,19.747869048339844,15.757160844726563,19.800101048339844Q15.704927844726562,19.852334048339845,15.663888844726563,19.913754048339843Q15.622849844726563,19.975173048339844,15.594580844726563,20.043419048339842Q15.566312844726562,20.111664648339843,15.551901844726562,20.184113848339845Q15.537490844726562,20.256563048339842,15.537490844726562,20.330432048339844Q15.537490844726562,20.509392048339844,15.618294844726563,20.669071048339845Q15.896160844726563,21.218177048339843,16.334188444726564,21.651947048339842Q17.245603844726563,22.554507048339843,18.51774084472656,22.718647048339843Q19.789890844726564,22.882797048339842,20.900550844726563,22.241157048339844Q21.12592084472656,22.110957048339845,21.325860844726563,21.958427048339843Q21.372060844726562,22.053197048339843,21.442590844726563,22.131547048339844Q21.51312084472656,22.209897048339844,21.602520844726563,22.265777048339842Q21.691910844726564,22.321647048339845,21.793250844726565,22.350707048339842Q21.89459084472656,22.379767048339843,22.00001084472656,22.379767048339843Q22.073880844726563,22.379767048339843,22.146330844726563,22.365357048339845Q22.218780844726563,22.350947048339844,22.287020844726563,22.322677048339845Q22.35527084472656,22.294417048339845,22.416690844726563,22.253377048339843Q22.47811084472656,22.212337048339844,22.530340844726563,22.160097048339843Q22.58257084472656,22.107867048339845,22.623610844726564,22.046447048339843Q22.664650844726562,21.985027048339845,22.69292084472656,21.916787048339845Q22.721190844726564,21.848537048339843,22.735600844726562,21.776087048339843Q22.75001084472656,21.703637048339843,22.75001084472656,21.629767048339843L22.75001084472656,20.127037048339844Q22.75001084472656,20.053168548339844,22.735600844726562,19.980719048339843Q22.721190844726564,19.908270048339844,22.69292084472656,19.840024048339842Q22.664650844726562,19.771779048339845,22.623610844726564,19.710359048339843Q22.58257084472656,19.648940048339846,22.530340844726563,19.596707048339844Q22.47811084472656,19.544474048339843,22.416690844726563,19.503435048339846Q22.35527084472656,19.462396048339844,22.287020844726563,19.434127048339843Q22.218780844726563,19.405859048339845,22.146330844726563,19.391448048339843Q22.073880844726563,19.377037048339844,22.00001084472656,19.377037048339844L21.812170844726563,19.377037048339844Z" fill-rule="evenodd" fill="#13943C" fill-opacity="1"/></g></g></svg>