<svg xmlns="http://www.w3.org/2000/svg" xmlns:xlink="http://www.w3.org/1999/xlink" fill="none" version="1.1" width="24" height="24" viewBox="0 0 24 24"><defs><clipPath id="master_svg0_63_03802"><rect x="0" y="0" width="24" height="24" rx="0"/></clipPath></defs><g clip-path="url(#master_svg0_63_03802)"><g><path d="M18.008,2.9423505Q15.495,2,12,2Q8.50496,2,5.99202,2.9423503Q3,4.06436,3,6Q3,7.93564,5.99202,9.057649999999999Q8.50496,10,12,10Q15.495,10,18.008,9.057649999999999Q21,7.93564,21,6Q21,4.06436,18.008,2.9423505ZM6.6942699999999995,4.81501Q8.867619999999999,4,12,4Q15.1324,4,17.3057,4.81501Q18.2394,5.1651299999999996,18.707900000000002,5.58052Q19,5.83949,19,6Q19,6.16051,18.707900000000002,6.41948Q18.2394,6.8348700000000004,17.3057,7.18499Q15.1324,8,12,8Q8.86763,8,6.6942699999999995,7.18499Q5.76061,6.8348700000000004,5.29209,6.41948Q5,6.16051,4.999999,6Q4.999999,5.83949,5.29209,5.58052Q5.76061,5.1651299999999996,6.6942699999999995,4.81501Z" fill-rule="evenodd" fill="#231F2E" fill-opacity="1"/></g><g><path d="M3,6Q3,5.9015086,3.019215,5.80491Q3.03843,5.708311,3.076121,5.617317Q3.1138120000000002,5.526322,3.16853,5.44443Q3.223249,5.362537,3.292893,5.292893Q3.362537,5.223249,3.44443,5.16853Q3.526322,5.113812,3.617317,5.076121Q3.708311,5.03843,3.80491,5.019215Q3.9015086,5,4,5Q4.0984914,5,4.19509,5.019215Q4.291689,5.03843,4.382683,5.076121Q4.473678,5.113812,4.55557,5.16853Q4.637463,5.223249,4.707107,5.292893Q4.776751,5.362537,4.83147,5.44443Q4.886188,5.526322,4.923879,5.617317Q4.96157,5.708311,4.980785,5.80491Q5,5.9015086,5,6L5,12Q5,12.16051,5.29209,12.41948Q5.76061,12.834869999999999,6.6942699999999995,13.184989999999999Q8.86763,14,12,14Q15.1324,14,17.3057,13.184989999999999Q18.2394,12.834869999999999,18.707900000000002,12.41948Q19,12.16051,19,12L19,6Q19,5.9015086,19.019199999999998,5.80491Q19.0384,5.708311,19.0761,5.617317Q19.113799999999998,5.526322,19.1685,5.44443Q19.2232,5.362537,19.2929,5.292893Q19.3625,5.223249,19.4444,5.16853Q19.5263,5.113812,19.6173,5.076121Q19.7083,5.03843,19.8049,5.019215Q19.9015,5,20,5Q20.0985,5,20.1951,5.019215Q20.2917,5.03843,20.3827,5.076121Q20.4737,5.113812,20.5556,5.16853Q20.6375,5.223249,20.7071,5.292893Q20.7767,5.362537,20.8315,5.44443Q20.8862,5.526322,20.9239,5.617317Q20.9616,5.708311,20.9808,5.80491Q21,5.9015086,21,6L21,12Q21,13.93564,18.008,15.05765Q15.495,16,12,16Q8.50496,16,5.99202,15.05765Q3,13.93564,3,12L3,6Z" fill-rule="evenodd" fill="#231F2E" fill-opacity="1"/></g><g><path d="M3,12Q3,11.9015086,3.019215,11.80491Q3.03843,11.708311,3.076121,11.617317Q3.1138120000000002,11.526322,3.16853,11.44443Q3.223249,11.362537,3.292893,11.292893Q3.362537,11.223249,3.44443,11.16853Q3.526322,11.113812,3.617317,11.076121Q3.708311,11.03843,3.80491,11.019214999999999Q3.9015086,11,4,11Q4.0984914,11,4.19509,11.019214999999999Q4.291689,11.03843,4.382683,11.076121Q4.473678,11.113812,4.55557,11.16853Q4.637463,11.223249,4.707107,11.292893Q4.776751,11.362537,4.83147,11.44443Q4.886188,11.526322,4.923879,11.617317Q4.96157,11.708311,4.980785,11.80491Q5,11.9015086,5,12L5,18Q5,18.160510000000002,5.29209,18.41948Q5.76061,18.83487,6.6942699999999995,19.18499Q8.86763,20,12,20Q15.1324,20,17.3057,19.18499Q18.2394,18.83487,18.707900000000002,18.41948Q19,18.160510000000002,19,18L19,12Q19,11.9015086,19.019199999999998,11.80491Q19.0384,11.708311,19.0761,11.617317Q19.113799999999998,11.526322,19.1685,11.44443Q19.2232,11.362537,19.2929,11.292893Q19.3625,11.223249,19.4444,11.16853Q19.5263,11.113812,19.6173,11.076121Q19.7083,11.03843,19.8049,11.019214999999999Q19.9015,11,20,11Q20.0985,11,20.1951,11.019214999999999Q20.2917,11.03843,20.3827,11.076121Q20.4737,11.113812,20.5556,11.16853Q20.6375,11.223249,20.7071,11.292893Q20.7767,11.362537,20.8315,11.44443Q20.8862,11.526322,20.9239,11.617317Q20.9616,11.708311,20.9808,11.80491Q21,11.9015086,21,12L21,18Q21,19.93564,18.008,21.057650000000002Q15.495,22,12,22Q8.50496,22,5.99202,21.057650000000002Q3,19.93564,3,18L3,12Z" fill-rule="evenodd" fill="#231F2E" fill-opacity="1"/></g><g><g><g><path d="M9.54124,18.15652Q10.25,18.93147,10.25,20L10.25,21Q10.25,22.13909,9.44454,22.94454Q8.63909,23.75,7.5,23.75L6.25,23.75Q5.214628,23.75,4.48231,23.01769Q3.75,22.28537,3.75,21.25Q3.75,21.04486,3.79744,20.84528Q3.84489,20.645690000000002,3.9372,20.46249Q4.02952,20.2793,4.1617,20.122410000000002Q4.29388,19.96553,4.45876,19.84347Q3.75,19.06853,3.75,18L3.75,17Q3.75,15.860912,4.5554559999999995,15.055456Q5.360912,14.25,6.5,14.25L7.75,14.25Q8.78553,14.25,9.517769999999999,14.98223Q10.25,15.714467,10.25,16.75Q10.25,16.955143,10.20256,17.15472Q10.15511,17.354309999999998,10.0628,17.5375Q9.97048,17.7207,9.8383,17.877580000000002Q9.70612,18.03447,9.54124,18.15652Z" fill-rule="evenodd" fill="#FFFFFF" fill-opacity="1" style="mix-blend-mode:passthrough"/></g><g><path d="M16.75,16Q16.75,15.914028,16.75843,15.82847Q16.76685,15.742912,16.78363,15.658592Q16.8004,15.574272,16.82535,15.492002Q16.85031,15.409732,16.88321,15.330304Q16.91611,15.250876,16.95664,15.175056Q16.99716,15.099235,17.04493,15.027752Q17.09269,14.95627,17.14723,14.88981Q17.20177,14.82335,17.26256,14.76256Q17.32335,14.70177,17.38981,14.64723Q17.45627,14.59269,17.527752,14.54493Q17.599235,14.497160000000001,17.675056,14.45664Q17.750876,14.41611,17.830304,14.38321Q17.909731999999998,14.35031,17.992002,14.32535Q18.074272,14.3004,18.158592,14.28363Q18.242912,14.26685,18.32847,14.25843Q18.414028,14.25,18.5,14.25Q18.585972,14.25,18.67153,14.25843Q18.757088,14.26685,18.841408,14.28363Q18.925728,14.3004,19.007998,14.32535Q19.090268000000002,14.35031,19.169696,14.38321Q19.249124,14.41611,19.324944,14.45664Q19.400765,14.497160000000001,19.472248,14.54493Q19.54373,14.59269,19.61019,14.64723Q19.67665,14.70177,19.73744,14.76256Q19.79823,14.82335,19.85277,14.88981Q19.90731,14.95627,19.95507,15.027752Q20.00284,15.099235,20.04336,15.175056Q20.08389,15.250876,20.11679,15.330304Q20.14969,15.409732,20.17465,15.492002Q20.1996,15.574272,20.21637,15.658592Q20.23315,15.742912,20.24157,15.82847Q20.25,15.914028,20.25,16L20.25,20.25L20.5,20.25Q20.58597,20.25,20.67153,20.25843Q20.757089999999998,20.266849999999998,20.84141,20.28363Q20.92573,20.3004,21.008,20.32535Q21.09027,20.35031,21.1697,20.38321Q21.24912,20.41611,21.324939999999998,20.45664Q21.40076,20.49716,21.47225,20.54493Q21.54373,20.59269,21.61019,20.64723Q21.67665,20.70177,21.73744,20.76256Q21.79823,20.823349999999998,21.85277,20.88981Q21.90731,20.95627,21.95507,21.02775Q22.00284,21.09923,22.04336,21.17505Q22.08389,21.250880000000002,22.11679,21.3303Q22.14969,21.40973,22.17465,21.492Q22.1996,21.57427,22.21637,21.65859Q22.233150000000002,21.742910000000002,22.24157,21.82847Q22.25,21.91403,22.25,22Q22.25,22.08597,22.24157,22.17153Q22.233150000000002,22.257089999999998,22.21637,22.34141Q22.1996,22.42573,22.17465,22.508Q22.14969,22.59027,22.11679,22.66969Q22.08389,22.749119999999998,22.04336,22.824939999999998Q22.00284,22.90076,21.95507,22.97225Q21.90731,23.04373,21.85277,23.11019Q21.79823,23.176650000000002,21.73744,23.23744Q21.67665,23.29823,21.61019,23.35277Q21.54373,23.40731,21.47225,23.45507Q21.40076,23.50284,21.324939999999998,23.54336Q21.24912,23.58389,21.1697,23.61679Q21.09027,23.64969,21.008,23.67465Q20.92573,23.6996,20.84141,23.71637Q20.757089999999998,23.733150000000002,20.67153,23.74157Q20.58597,23.75,20.5,23.75L18.5,23.75Q18.414028,23.75,18.32847,23.74157Q18.242912,23.733150000000002,18.158592,23.71637Q18.074272,23.6996,17.992002,23.67465Q17.909731999999998,23.64969,17.830304,23.61679Q17.750876,23.58389,17.675056,23.54336Q17.599235,23.50284,17.527752,23.45507Q17.45627,23.40731,17.38981,23.35277Q17.32335,23.29823,17.26256,23.23744Q17.20177,23.176650000000002,17.14723,23.11019Q17.09269,23.04373,17.04493,22.97225Q16.99716,22.90076,16.95664,22.824939999999998Q16.91611,22.749119999999998,16.88321,22.6697Q16.85031,22.59027,16.82535,22.508Q16.8004,22.42573,16.78363,22.34141Q16.76685,22.257089999999998,16.75843,22.17153Q16.75,22.08597,16.75,22L16.75,16Z" fill-rule="evenodd" fill="#FFFFFF" fill-opacity="1" style="mix-blend-mode:passthrough"/></g><g><g><path d="M10.59835,15.34835Q9.5,16.446699,9.5,18L9.5,20Q9.5,21.5533,10.59835,22.65165Q11.696699,23.75,13.25,23.75Q14.8033,23.75,15.90165,22.65165Q17,21.5533,17,20L17,18Q17,16.446699,15.90165,15.34835Q14.8033,14.25,13.25,14.25Q11.696699,14.25,10.59835,15.34835ZM13,20L13,18Q13,17.75,13.25,17.75Q13.5,17.75,13.5,18L13.5,20Q13.5,20.25,13.25,20.25Q13,20.25,13,20Z" fill-rule="evenodd" fill="#FFFFFF" fill-opacity="1" style="mix-blend-mode:passthrough"/></g><g><path d="M15.48744,19.76256Q15.36556,19.64069,15.222248,19.54493Q15.078936,19.44917,14.919696,19.38321Q14.760456,19.31725,14.591408,19.28363Q14.42236,19.25,14.25,19.25Q14.164028,19.25,14.07847,19.25843Q13.992912,19.26685,13.908592,19.28363Q13.824272,19.3004,13.742002,19.32535Q13.659732,19.35031,13.580304,19.38321Q13.500876,19.41611,13.425056,19.45664Q13.349235,19.49716,13.277752,19.54493Q13.20627,19.59269,13.13981,19.64723Q13.07335,19.70177,13.01256,19.76256Q12.95177,19.82335,12.89723,19.88981Q12.84269,19.95627,12.79493,20.027752Q12.747160000000001,20.099235,12.70664,20.175056Q12.66611,20.250876,12.63321,20.330304Q12.60031,20.409731999999998,12.57535,20.492002Q12.5504,20.574272,12.53363,20.658592Q12.51685,20.742912,12.50843,20.82847Q12.5,20.914028,12.5,21Q12.5,21.17236,12.53363,21.341408Q12.56725,21.510456,12.63321,21.669696Q12.69917,21.828936,12.79493,21.972248Q12.89069,22.11556,13.01256,22.23744L14.512563,23.73744Q14.63444,23.85931,14.777752,23.95507Q14.921064,24.05083,15.080304,24.11679Q15.239544,24.18275,15.40859,24.21637Q15.57764,24.25,15.75,24.25Q15.83597,24.25,15.92153,24.24157Q16.00709,24.233150000000002,16.09141,24.21637Q16.17573,24.1996,16.258,24.17465Q16.34027,24.14969,16.4197,24.11679Q16.49912,24.08389,16.574939999999998,24.04336Q16.65076,24.00284,16.72225,23.95507Q16.79373,23.90731,16.86019,23.85277Q16.92665,23.79823,16.98744,23.73744Q17.04823,23.67665,17.10277,23.61019Q17.15731,23.54373,17.20507,23.47225Q17.25284,23.40076,17.29336,23.324939999999998Q17.33389,23.24912,17.36679,23.1697Q17.39969,23.09027,17.42465,23.008Q17.4496,22.92573,17.46637,22.84141Q17.483150000000002,22.75709,17.49157,22.67153Q17.5,22.58597,17.5,22.5Q17.5,22.32764,17.46637,22.15859Q17.43275,21.989544,17.36679,21.830304Q17.30083,21.671064,17.20507,21.527752Q17.10931,21.38444,16.98744,21.262563L15.48744,19.76256L15.48744,19.76256Z" fill-rule="evenodd" fill="#FFFFFF" fill-opacity="1" style="mix-blend-mode:passthrough"/></g></g></g><g><g><path d="M6.5,16.75L7.75,16.75Q7.75,16.823869,7.76441,16.896318Q7.77882,16.968767,7.8070900000000005,17.03701Q7.83536,17.10526,7.8764,17.16668Q7.91744,17.2281,7.96967,17.28033Q8.0219,17.33256,8.08332,17.3736Q8.14474,17.41464,8.21299,17.44291Q8.28123,17.47118,8.35368,17.48559Q8.42613,17.5,8.5,17.5Q8.57387,17.5,8.64632,17.48559Q8.71877,17.47118,8.78701,17.44291Q8.85526,17.41464,8.91668,17.3736Q8.9781,17.33256,9.03033,17.28033Q9.08256,17.2281,9.1236,17.16668Q9.16464,17.10526,9.19291,17.03701Q9.22118,16.968767,9.23559,16.896318Q9.25,16.823869,9.25,16.75Q9.25,16.12868,8.81066,15.68934Q8.37132,15.25,7.75,15.25L6.5,15.25Q5.775126,15.25,5.262563,15.762563Q4.75,16.275126,4.75,17L4.75,18Q4.75,18.72487,5.262563,19.23744Q5.775126,19.75,6.5,19.75L7.5,19.75Q7.60355,19.75,7.67678,19.82322Q7.75,19.89645,7.75,20L7.75,21Q7.75,21.10355,7.67678,21.17678Q7.60355,21.25,7.5,21.25L6.25,21.25Q6.25,21.17613,6.235589,21.10368Q6.221178,21.03123,6.192909,20.962989999999998Q6.164641,20.89474,6.123602,20.83332Q6.082563,20.7719,6.03033,20.71967Q5.978097,20.66744,5.916678,20.6264Q5.855258,20.58536,5.787013,20.55709Q5.718767,20.52882,5.646318,20.514409999999998Q5.5738685,20.5,5.5,20.5Q5.4261315,20.5,5.353682,20.514409999999998Q5.281233,20.52882,5.212987,20.55709Q5.144742,20.58536,5.083322,20.6264Q5.021903,20.66744,4.96967,20.71967Q4.917437,20.7719,4.876398,20.83332Q4.835359,20.89474,4.80709,20.962989999999998Q4.778822,21.03123,4.764411,21.10368Q4.75,21.17613,4.75,21.25Q4.75,21.87116,5.189421,22.31058Q5.628841,22.75,6.25,22.75L7.5,22.75Q8.22487,22.75,8.73744,22.23744Q9.25,21.72487,9.25,21L9.25,20Q9.25,19.27513,8.73744,18.76256Q8.22487,18.25,7.5,18.25L6.5,18.25Q6.396446,18.25,6.3232230000000005,18.17678Q6.25,18.10355,6.25,18L6.25,17Q6.25,16.896446,6.3232230000000005,16.823223Q6.396446,16.75,6.5,16.75Z" fill-rule="evenodd" fill="#2882FF" fill-opacity="1" style="mix-blend-mode:passthrough"/></g><g><path d="M17.75,16Q17.75,15.9261315,17.764411,15.853682Q17.778822,15.781233,17.80709,15.712987Q17.835359,15.644742,17.876398000000002,15.583322Q17.917437,15.521903,17.96967,15.46967Q18.021903000000002,15.417437,18.083322,15.376398Q18.144742,15.335359,18.212987,15.30709Q18.281233,15.278822,18.353682,15.264410999999999Q18.4261315,15.25,18.5,15.25Q18.5738685,15.25,18.646318,15.264410999999999Q18.718767,15.278822,18.787013,15.30709Q18.855258,15.335359,18.916678,15.376398Q18.978096999999998,15.417437,19.03033,15.46967Q19.082563,15.521903,19.123601999999998,15.583322Q19.164641,15.644742,19.19291,15.712987Q19.221178,15.781233,19.235589,15.853682Q19.25,15.9261315,19.25,16L19.25,21.25L20.5,21.25Q20.57387,21.25,20.64632,21.264409999999998Q20.71877,21.27882,20.78701,21.30709Q20.85526,21.33536,20.91668,21.3764Q20.9781,21.41744,21.03033,21.46967Q21.08256,21.5219,21.1236,21.58332Q21.16464,21.64474,21.19291,21.712989999999998Q21.22118,21.78123,21.235590000000002,21.85368Q21.25,21.92613,21.25,22Q21.25,22.07387,21.235590000000002,22.14632Q21.22118,22.21877,21.19291,22.287010000000002Q21.16464,22.35526,21.1236,22.41668Q21.08256,22.4781,21.03033,22.53033Q20.9781,22.58256,20.91668,22.6236Q20.85526,22.66464,20.78701,22.69291Q20.71877,22.72118,20.64632,22.735590000000002Q20.57387,22.75,20.5,22.75L18.5,22.75Q18.4261315,22.75,18.353682,22.735590000000002Q18.281233,22.72118,18.212987,22.69291Q18.144742,22.66464,18.083322,22.6236Q18.021903000000002,22.58256,17.96967,22.53033Q17.917437,22.4781,17.876398000000002,22.41668Q17.835359,22.35526,17.80709,22.287010000000002Q17.778822,22.21877,17.764411,22.14632Q17.75,22.07387,17.75,22L17.75,16Z" fill-rule="evenodd" fill="#2882FF" fill-opacity="1" style="mix-blend-mode:passthrough"/></g><g><g><path d="M11.3054564,16.0554564Q10.5,16.860913,10.5,18L10.5,20Q10.5,21.13909,11.3054565,21.94454Q12.110912,22.75,13.25,22.75Q14.38909,22.75,15.19454,21.94454Q16,21.13909,16,20L16,18Q16,16.860912,15.19454,16.0554564Q14.38909,15.25,13.25,15.25Q12.110913,15.25,11.3054564,16.0554564ZM12,20L12,18Q12,17.48223,12.36612,17.11612Q12.73223,16.75,13.25,16.75Q13.76777,16.75,14.13388,17.11612Q14.5,17.48223,14.5,18L14.5,20Q14.5,20.51777,14.13388,20.88388Q13.76777,21.25,13.25,21.25Q12.73223,21.25,12.36612,20.88388Q12,20.51777,12,20Z" fill-rule="evenodd" fill="#2882FF" fill-opacity="1" style="mix-blend-mode:passthrough"/></g><g><path d="M14.780484,20.469824L16.28033,21.96967Q16.38582,22.07516,16.44291,22.21299Q16.5,22.35082,16.5,22.5Q16.5,22.57387,16.485590000000002,22.64632Q16.47118,22.71877,16.44291,22.78701Q16.41464,22.85526,16.3736,22.91668Q16.33256,22.9781,16.28033,23.03033Q16.2281,23.08256,16.16668,23.1236Q16.10526,23.16464,16.03701,23.19291Q15.96877,23.22118,15.89632,23.235590000000002Q15.82387,23.25,15.75,23.25Q15.60082,23.25,15.46299,23.19291Q15.32516,23.13582,15.21967,23.03033L13.719824,21.530484L13.71967,21.53033Q13.614181,21.424841,13.55709,21.287013Q13.5,21.149184,13.5,21Q13.5,20.9261315,13.514410999999999,20.853682Q13.528822,20.781233,13.55709,20.712987Q13.585359,20.644742,13.626398,20.583322Q13.667437,20.521903000000002,13.71967,20.46967Q13.771903,20.417437,13.833322,20.376398000000002Q13.894742,20.335359,13.962987,20.30709Q14.031233,20.278822,14.103682,20.264411Q14.1761315,20.25,14.25,20.25Q14.399184,20.25,14.537013,20.30709Q14.674841,20.364181,14.78033,20.46967L14.780484,20.469824Z" fill-rule="evenodd" fill="#2882FF" fill-opacity="1" style="mix-blend-mode:passthrough"/></g></g></g></g></g></svg>