<svg xmlns="http://www.w3.org/2000/svg" xmlns:xlink="http://www.w3.org/1999/xlink" fill="none" version="1.1" width="24" height="24" viewBox="0 0 24 24"><defs><clipPath id="master_svg0_62_06748"><rect x="0" y="0" width="24" height="24" rx="0"/></clipPath></defs><g clip-path="url(#master_svg0_62_06748)"><g><path d="M4.75,10.25L22.75,10.25L22.75,6Q22.75,5.068021,22.091,4.4090099Q21.432000000000002,3.75,20.5,3.75L7,3.75Q6.06802,3.75,5.4090099,4.4090097Q4.75,5.06802,4.75,6L4.75,10.25ZM21.25,8.75L21.25,6Q21.25,5.68934,21.0303,5.46967Q20.8107,5.25,20.5,5.25L7,5.25Q6.68934,5.25,6.46967,5.46967Q6.25,5.68934,6.25,6L6.25,8.75L21.25,8.75Z" fill-rule="evenodd" fill="#231F2E" fill-opacity="1"/></g><g><path d="M22.091,19.590989999999998Q22.75,18.93198,22.75,18L22.75,13.75L4.75,13.75L4.75,18Q4.75,18.93198,5.4090098,19.590989999999998Q6.06802,20.25,7,20.25L20.5,20.25Q21.432000000000002,20.25,22.091,19.590989999999998ZM21.25,15.25L21.25,18Q21.25,18.31066,21.0303,18.53033Q20.8107,18.75,20.5,18.75L7,18.75Q6.68934,18.75,6.46967,18.53033Q6.25,18.31066,6.25,18L6.25,15.25L21.25,15.25Z" fill-rule="evenodd" fill="#231F2E" fill-opacity="1"/></g><g><path d="M2.5,14.5L20.5,14.5L20.5,9.5L2.5,9.5L2.5,14.5Z" fill="#DE1000" fill-opacity="0.20000000298023224"/><path d="M1.75,15.25L1.75,8.75L21.25,8.75L21.25,15.25L1.75,15.25ZM19.75,10.25L3.25,10.25L3.25,13.75L19.75,13.75L19.75,10.25Z" fill-rule="evenodd" fill="#DE1000" fill-opacity="1"/></g><g><g><g><path d="M18.23791,8.26304L23.236530000000002,13.26166L23.23744,13.26256Q23.35931,13.38444,23.45507,13.527750000000001Q23.55083,13.67106,23.61679,13.830300000000001Q23.68275,13.98954,23.71637,14.15859Q23.75,14.327639999999999,23.75,14.5Q23.75,14.58597,23.74157,14.67153Q23.733150000000002,14.75709,23.71637,14.84141Q23.6996,14.92573,23.67464,15.008Q23.64969,15.09027,23.61679,15.16969Q23.58389,15.24912,23.54336,15.32494Q23.50283,15.40076,23.45507,15.472249999999999Q23.40731,15.54373,23.35277,15.61019Q23.29823,15.67665,23.23744,15.73744Q23.176650000000002,15.79823,23.11019,15.85277Q23.04373,15.907309999999999,22.97225,15.95507Q22.90076,16.00283,22.824939999999998,16.04336Q22.749119999999998,16.08389,22.66969,16.11679Q22.59027,16.14969,22.508,16.17464Q22.42573,16.1996,22.34141,16.21637Q22.257089999999998,16.233150000000002,22.17153,16.24157Q22.08597,16.25,22,16.25Q21.82764,16.25,21.65859,16.21637Q21.489539999999998,16.18275,21.3303,16.11679Q21.17106,16.05083,21.02775,15.95507Q20.88444,15.85931,20.76256,15.73744L20.76166,15.73653L15.76304,10.73791L15.76256,10.73744Q15.64069,10.61556,15.54493,10.472248Q15.44917,10.328936,15.38321,10.169696Q15.31725,10.010456,15.28363,9.841408Q15.25,9.67236,15.25,9.5Q15.25,9.414028,15.25843,9.32847Q15.26685,9.242912,15.28363,9.158592Q15.3004,9.074272,15.32535,8.992002Q15.35031,8.909732,15.38321,8.830304Q15.41611,8.750876,15.45664,8.675056Q15.497160000000001,8.599235,15.54493,8.527752Q15.59269,8.45627,15.64723,8.38981Q15.70177,8.32335,15.76256,8.26256Q15.82335,8.20177,15.88981,8.14723Q15.95627,8.09269,16.027752,8.04493Q16.099235,7.99716,16.175056,7.95664Q16.250876,7.91611,16.330304,7.88321Q16.409731999999998,7.85031,16.492002,7.82535Q16.574272,7.8004,16.658592,7.7836300000000005Q16.742912,7.76685,16.82847,7.75843Q16.914028,7.75,17,7.75Q17.17236,7.75,17.341408,7.7836300000000005Q17.510456,7.81725,17.669696,7.88321Q17.828936,7.9491700000000005,17.972248,8.04493Q18.11556,8.14069,18.23744,8.26256L18.23791,8.26304Z" fill-rule="evenodd" fill="#FFFFFF" fill-opacity="1" style="mix-blend-mode:passthrough"/></g><g><path d="M23.23744,10.73744Q23.35931,10.61556,23.45507,10.472248Q23.55083,10.328936,23.61679,10.169696Q23.68275,10.010456,23.71637,9.841408Q23.75,9.67236,23.75,9.5Q23.75,9.414028,23.74157,9.32847Q23.733150000000002,9.242912,23.71637,9.158592Q23.6996,9.074272,23.67464,8.992002Q23.64969,8.909732,23.61679,8.830304Q23.58389,8.750876,23.54336,8.675056Q23.50283,8.599235,23.45507,8.527752Q23.40731,8.45627,23.35277,8.38981Q23.29823,8.32335,23.23744,8.26256Q23.176650000000002,8.20177,23.11019,8.14723Q23.04373,8.09269,22.97225,8.04493Q22.90076,7.99716,22.824939999999998,7.95664Q22.749119999999998,7.91611,22.66969,7.88321Q22.59027,7.85031,22.508,7.82535Q22.42573,7.8004,22.34141,7.7836300000000005Q22.257089999999998,7.76685,22.17153,7.75843Q22.08597,7.75,22,7.75Q21.82764,7.75,21.65859,7.7836300000000005Q21.489539999999998,7.81725,21.3303,7.88321Q21.17106,7.9491700000000005,21.02775,8.04493Q20.88444,8.14069,20.76256,8.26256L20.76209,8.26304L15.76256,13.26256Q15.64069,13.38444,15.54493,13.527750000000001Q15.44917,13.67106,15.38321,13.830300000000001Q15.31725,13.98954,15.28363,14.15859Q15.25,14.327639999999999,15.25,14.5Q15.25,14.58597,15.25843,14.67153Q15.26685,14.75709,15.28363,14.84141Q15.3004,14.92573,15.32535,15.008Q15.35031,15.09027,15.38321,15.16969Q15.41611,15.24912,15.45664,15.32494Q15.497160000000001,15.40076,15.54493,15.472249999999999Q15.59269,15.54373,15.64723,15.61019Q15.70177,15.67665,15.76256,15.73744Q15.82335,15.79823,15.88981,15.85277Q15.95627,15.907309999999999,16.027752,15.95507Q16.099235,16.00283,16.175056,16.04336Q16.250876,16.08389,16.330304,16.11679Q16.409731999999998,16.14969,16.492002,16.17464Q16.574272,16.1996,16.658592,16.21637Q16.742912,16.233150000000002,16.82847,16.24157Q16.914028,16.25,17,16.25Q17.17236,16.25,17.341408,16.21637Q17.510456,16.18275,17.669696,16.11679Q17.828936,16.05083,17.972248,15.95507Q18.11556,15.85931,18.23744,15.73744L18.23834,15.73653L23.23744,10.73744L23.23744,10.73744Z" fill-rule="evenodd" fill="#FFFFFF" fill-opacity="1" style="mix-blend-mode:passthrough"/></g></g><g><g><path d="M17.530484,8.969824L22.5297,13.96904L22.53033,13.96967Q22.63582,14.07516,22.69291,14.21299Q22.75,14.350819999999999,22.75,14.5Q22.75,14.57387,22.735590000000002,14.64632Q22.72118,14.71877,22.69291,14.78701Q22.66464,14.855260000000001,22.6236,14.91668Q22.58256,14.978100000000001,22.53033,15.03033Q22.4781,15.08256,22.41668,15.1236Q22.35526,15.16464,22.287010000000002,15.192910000000001Q22.21877,15.22118,22.14632,15.23559Q22.07387,15.25,22,15.25Q21.85082,15.25,21.712989999999998,15.192910000000001Q21.57516,15.135819999999999,21.46967,15.03033L21.46904,15.0297L16.469824,10.030484L16.46967,10.03033Q16.364181,9.924841,16.30709,9.787013Q16.25,9.649184,16.25,9.5Q16.25,9.4261315,16.264411,9.353682Q16.278822,9.281233,16.30709,9.212987Q16.335359,9.144742,16.376398000000002,9.083322Q16.417437,9.021903,16.46967,8.96967Q16.521903000000002,8.917437,16.583322,8.876398Q16.644742,8.835359,16.712987,8.80709Q16.781233,8.778822,16.853682,8.764410999999999Q16.9261315,8.75,17,8.75Q17.149184,8.75,17.287013,8.80709Q17.424841,8.864181,17.53033,8.96967L17.530484,8.969824Z" fill-rule="evenodd" fill="#DE1000" fill-opacity="1" style="mix-blend-mode:passthrough"/></g><g><path d="M22.53033,10.03033Q22.63582,9.924841,22.69291,9.787013Q22.75,9.649184,22.75,9.5Q22.75,9.4261315,22.735590000000002,9.353682Q22.72118,9.281233,22.69291,9.212987Q22.66464,9.144742,22.6236,9.083322Q22.58256,9.021903,22.53033,8.96967Q22.4781,8.917437,22.41668,8.876398Q22.35526,8.835359,22.287010000000002,8.80709Q22.21877,8.778822,22.14632,8.764410999999999Q22.07387,8.75,22,8.75Q21.85082,8.75,21.712989999999998,8.80709Q21.57516,8.864181,21.46967,8.96967L21.46921,8.970132L16.470132,13.96921L16.46967,13.96967Q16.364181,14.07516,16.30709,14.21299Q16.25,14.350819999999999,16.25,14.5Q16.25,14.57387,16.264411,14.64632Q16.278822,14.71877,16.30709,14.78701Q16.335359,14.855260000000001,16.376398000000002,14.91668Q16.417437,14.978100000000001,16.46967,15.03033Q16.521903000000002,15.08256,16.583322,15.1236Q16.644742,15.16464,16.712987,15.192910000000001Q16.781233,15.22118,16.853682,15.23559Q16.9261315,15.25,17,15.25Q17.149184,15.25,17.287013,15.192910000000001Q17.424841,15.135819999999999,17.53033,15.03033L17.530792,15.029869999999999L22.52987,10.030792L22.53033,10.03033L22.53033,10.03033Z" fill-rule="evenodd" fill="#DE1000" fill-opacity="1" style="mix-blend-mode:passthrough"/></g></g></g></g></svg>