<svg xmlns="http://www.w3.org/2000/svg" xmlns:xlink="http://www.w3.org/1999/xlink" fill="none" version="1.1" width="24" height="24" viewBox="0 0 24 24"><defs><clipPath id="master_svg0_62_08240"><rect x="0" y="0" width="24" height="24" rx="0"/></clipPath></defs><g clip-path="url(#master_svg0_62_08240)"><g><g><path d="M1.75,13.25L1.75,7.75L9.25,7.75L9.25,13.25L1.75,13.25ZM7.75,9.25L3.25,9.25L3.25,11.75L7.75,11.75L7.75,9.25Z" fill-rule="evenodd" fill="#736F78" fill-opacity="1"/></g><g><path d="M7.75,17.25L7.75,11.75L15.25,11.75L15.25,17.25L7.75,17.25ZM13.75,13.25L9.25,13.25L9.25,15.75L13.75,15.75L13.75,13.25Z" fill-rule="evenodd" fill="#736F78" fill-opacity="1"/></g><g><path d="M13.75,13.25L13.75,7.75L21.25,7.75L21.25,13.25L13.75,13.25ZM19.75,9.25L15.25,9.25L15.25,11.75L19.75,11.75L19.75,9.25Z" fill-rule="evenodd" fill="#736F78" fill-opacity="1"/></g><g><path d="M7.75,13.25L7.75,7.75L15.25,7.75L15.25,13.25L7.75,13.25ZM13.75,9.25L9.25,9.25L9.25,11.75L13.75,11.75L13.75,9.25Z" fill-rule="evenodd" fill="#736F78" fill-opacity="1"/></g><g><path d="M7.75,9.25L7.75,3.75L15.25,3.75L15.25,9.25L7.75,9.25ZM13.75,5.25L9.25,5.25L9.25,7.75L13.75,7.75L13.75,5.25Z" fill-rule="evenodd" fill="#736F78" fill-opacity="1"/></g></g><g><path d="M2.5,19.5L7.5,19.5L10.5,16.5L2.5,16.5L2.5,19.5Z" fill="#13943C" fill-opacity="0.20000000298023224"/><path d="M1.75,20.25L7.81066,20.25L8.03033,20.03033L12.31066,15.75L1.75,15.75L1.75,20.25ZM7.18934,18.75L3.25,18.75L3.25,17.25L8.68934,17.25L7.18934,18.75Z" fill-rule="evenodd" fill="#13943C" fill-opacity="1"/></g><g><path d="M20.591,16.591Q21.25,15.932,21.25,15L21.25,6Q21.25,5.068018,20.591,4.4090097Q19.932,3.75,19,3.75L4,3.75Q3.0680199999999997,3.75,2.4090099,4.4090098Q1.75,5.06802,1.75,6L1.75,17.25L19,17.25Q19.932,17.25,20.591,16.591ZM19.75,6L19.75,15Q19.75,15.75,19,15.75L3.25,15.75L3.25,6Q3.25,5.25,4,5.25L19,5.25Q19.75,5.25,19.75,6Z" fill-rule="evenodd" fill="#231F2E" fill-opacity="1"/></g><g><g><path d="M16,17.25L22,17.25Q22.08597,17.25,22.17153,17.25843Q22.257089999999998,17.26685,22.34141,17.28363Q22.42573,17.3004,22.508,17.32535Q22.59027,17.35031,22.66969,17.38321Q22.749119999999998,17.41611,22.824939999999998,17.45664Q22.90076,17.49716,22.97225,17.54493Q23.04373,17.59269,23.11019,17.64723Q23.176650000000002,17.70177,23.23744,17.76256Q23.29823,17.82335,23.35277,17.88981Q23.40731,17.95627,23.45507,18.027752Q23.50284,18.099235,23.54336,18.175056Q23.58389,18.250876,23.61679,18.330304Q23.64969,18.409731999999998,23.67465,18.492002Q23.6996,18.574272,23.71637,18.658592Q23.733150000000002,18.742912,23.74157,18.82847Q23.75,18.914028,23.75,19Q23.75,19.085972,23.74157,19.17153Q23.733150000000002,19.257088,23.71637,19.341408Q23.6996,19.425728,23.67465,19.507998Q23.64969,19.590268000000002,23.61679,19.669696Q23.58389,19.749124,23.54336,19.824944Q23.50284,19.900765,23.45507,19.972248Q23.40731,20.04373,23.35277,20.11019Q23.29823,20.17665,23.23744,20.23744Q23.176650000000002,20.29823,23.11019,20.35277Q23.04373,20.40731,22.97225,20.45507Q22.90076,20.50284,22.824939999999998,20.54336Q22.749119999999998,20.58389,22.6697,20.61679Q22.59027,20.64969,22.508,20.67465Q22.42573,20.6996,22.34141,20.71637Q22.257089999999998,20.73315,22.17153,20.74157Q22.08597,20.75,22,20.75L16,20.75Q15.914028,20.75,15.82847,20.74157Q15.742912,20.73315,15.658592,20.71637Q15.574272,20.6996,15.492002,20.67465Q15.409732,20.64969,15.330304,20.61679Q15.250876,20.58389,15.175056,20.54336Q15.099235,20.50284,15.027752,20.45507Q14.95627,20.40731,14.88981,20.35277Q14.82335,20.29823,14.76256,20.23744Q14.70177,20.17665,14.64723,20.11019Q14.59269,20.04373,14.54493,19.972248Q14.497160000000001,19.900765,14.45664,19.824944Q14.41611,19.749124,14.38321,19.669696Q14.35031,19.590268000000002,14.32535,19.507998Q14.3004,19.425728,14.28363,19.341408Q14.26685,19.257088,14.25843,19.17153Q14.25,19.085972,14.25,19Q14.25,18.914028,14.25843,18.82847Q14.26685,18.742912,14.28363,18.658592Q14.3004,18.574272,14.32535,18.492002Q14.35031,18.409731999999998,14.38321,18.330304Q14.41611,18.250876,14.45664,18.175056Q14.497160000000001,18.099235,14.54493,18.027752Q14.59269,17.95627,14.64723,17.88981Q14.70177,17.82335,14.76256,17.76256Q14.82335,17.70177,14.88981,17.64723Q14.95627,17.59269,15.027752,17.54493Q15.099235,17.49716,15.175056,17.45664Q15.250876,17.41611,15.330304,17.38321Q15.409732,17.35031,15.492002,17.32535Q15.574272,17.3004,15.658592,17.28363Q15.742912,17.26685,15.82847,17.25843Q15.914028,17.25,16,17.25Z" fill-rule="evenodd" fill="#FFFFFF" fill-opacity="1" style="mix-blend-mode:passthrough"/></g><g><path d="M17.25,16Q17.25,15.914028,17.25843,15.82847Q17.26685,15.742912,17.28363,15.658592Q17.3004,15.574272,17.32535,15.492002Q17.35031,15.409732,17.38321,15.330304Q17.41611,15.250876,17.45664,15.175056Q17.49716,15.099235,17.54493,15.027752Q17.59269,14.95627,17.64723,14.88981Q17.70177,14.82335,17.76256,14.76256Q17.82335,14.70177,17.88981,14.64723Q17.95627,14.59269,18.027752,14.54493Q18.099235,14.497160000000001,18.175056,14.45664Q18.250876,14.41611,18.330304,14.38321Q18.409731999999998,14.35031,18.492002,14.32535Q18.574272,14.3004,18.658592,14.28363Q18.742912,14.26685,18.82847,14.25843Q18.914028,14.25,19,14.25Q19.085972,14.25,19.17153,14.25843Q19.257088,14.26685,19.341408,14.28363Q19.425728,14.3004,19.507998,14.32535Q19.590268000000002,14.35031,19.669696,14.38321Q19.749124,14.41611,19.824944,14.45664Q19.900765,14.497160000000001,19.972248,14.54493Q20.04373,14.59269,20.11019,14.64723Q20.17665,14.70177,20.23744,14.76256Q20.29823,14.82335,20.35277,14.88981Q20.40731,14.95627,20.45507,15.027752Q20.50284,15.099235,20.54336,15.175056Q20.58389,15.250876,20.61679,15.330304Q20.64969,15.409732,20.67465,15.492002Q20.6996,15.574272,20.71637,15.658592Q20.73315,15.742912,20.74157,15.82847Q20.75,15.914028,20.75,16L20.75,22Q20.75,22.08597,20.74157,22.17153Q20.73315,22.257089999999998,20.71637,22.34141Q20.6996,22.42573,20.67465,22.508Q20.64969,22.59027,20.61679,22.66969Q20.58389,22.749119999999998,20.54336,22.824939999999998Q20.50284,22.90076,20.45507,22.97225Q20.40731,23.04373,20.35277,23.11019Q20.29823,23.176650000000002,20.23744,23.23744Q20.17665,23.29823,20.11019,23.35277Q20.04373,23.40731,19.972248,23.45507Q19.900765,23.50284,19.824944,23.54336Q19.749124,23.58389,19.669696,23.61679Q19.590268000000002,23.64969,19.507998,23.67465Q19.425728,23.6996,19.341408,23.71637Q19.257088,23.733150000000002,19.17153,23.74157Q19.085972,23.75,19,23.75Q18.914028,23.75,18.82847,23.74157Q18.742912,23.733150000000002,18.658592,23.71637Q18.574272,23.6996,18.492002,23.67465Q18.409731999999998,23.64969,18.330304,23.61679Q18.250876,23.58389,18.175056,23.54336Q18.099235,23.50284,18.027752,23.45507Q17.95627,23.40731,17.88981,23.35277Q17.82335,23.29823,17.76256,23.23744Q17.70177,23.176650000000002,17.64723,23.11019Q17.59269,23.04373,17.54493,22.97225Q17.49716,22.90076,17.45664,22.824939999999998Q17.41611,22.749119999999998,17.38321,22.6697Q17.35031,22.59027,17.32535,22.508Q17.3004,22.42573,17.28363,22.34141Q17.26685,22.257089999999998,17.25843,22.17153Q17.25,22.08597,17.25,22L17.25,16Z" fill-rule="evenodd" fill="#FFFFFF" fill-opacity="1" style="mix-blend-mode:passthrough"/></g></g><g><g><path d="M16,18.25L22,18.25Q22.07387,18.25,22.14632,18.264411Q22.21877,18.278822,22.287010000000002,18.30709Q22.35526,18.335359,22.41668,18.376398000000002Q22.4781,18.417437,22.53033,18.46967Q22.58256,18.521903000000002,22.6236,18.583322Q22.66464,18.644742,22.69291,18.712987Q22.72118,18.781233,22.735590000000002,18.853682Q22.75,18.9261315,22.75,19Q22.75,19.0738685,22.735590000000002,19.146318Q22.72118,19.218767,22.69291,19.287013Q22.66464,19.355258,22.6236,19.416678Q22.58256,19.478096999999998,22.53033,19.53033Q22.4781,19.582563,22.41668,19.623601999999998Q22.35526,19.664641,22.287010000000002,19.69291Q22.21877,19.721178,22.14632,19.735589Q22.07387,19.75,22,19.75L16,19.75Q15.9261315,19.75,15.853682,19.735589Q15.781233,19.721178,15.712987,19.69291Q15.644742,19.664641,15.583322,19.623601999999998Q15.521903,19.582563,15.46967,19.53033Q15.417437,19.478096999999998,15.376398,19.416678Q15.335359,19.355258,15.30709,19.287013Q15.278822,19.218767,15.264410999999999,19.146318Q15.25,19.0738685,15.25,19Q15.25,18.9261315,15.264410999999999,18.853682Q15.278822,18.781233,15.30709,18.712987Q15.335359,18.644742,15.376398,18.583322Q15.417437,18.521903000000002,15.46967,18.46967Q15.521903,18.417437,15.583322,18.376398000000002Q15.644742,18.335359,15.712987,18.30709Q15.781233,18.278822,15.853682,18.264411Q15.9261315,18.25,16,18.25Z" fill-rule="evenodd" fill="#13943C" fill-opacity="1" style="mix-blend-mode:passthrough"/></g><g><path d="M18.25,16Q18.25,15.9261315,18.264411,15.853682Q18.278822,15.781233,18.30709,15.712987Q18.335359,15.644742,18.376398000000002,15.583322Q18.417437,15.521903,18.46967,15.46967Q18.521903000000002,15.417437,18.583322,15.376398Q18.644742,15.335359,18.712987,15.30709Q18.781233,15.278822,18.853682,15.264410999999999Q18.9261315,15.25,19,15.25Q19.0738685,15.25,19.146318,15.264410999999999Q19.218767,15.278822,19.287013,15.30709Q19.355258,15.335359,19.416678,15.376398Q19.478096999999998,15.417437,19.53033,15.46967Q19.582563,15.521903,19.623601999999998,15.583322Q19.664641,15.644742,19.69291,15.712987Q19.721178,15.781233,19.735589,15.853682Q19.75,15.9261315,19.75,16L19.75,22Q19.75,22.07387,19.735589,22.14632Q19.721178,22.21877,19.69291,22.287010000000002Q19.664641,22.35526,19.623601999999998,22.41668Q19.582563,22.4781,19.53033,22.53033Q19.478096999999998,22.58256,19.416678,22.6236Q19.355258,22.66464,19.287013,22.69291Q19.218767,22.72118,19.146318,22.735590000000002Q19.0738685,22.75,19,22.75Q18.9261315,22.75,18.853682,22.735590000000002Q18.781233,22.72118,18.712987,22.69291Q18.644742,22.66464,18.583322,22.6236Q18.521903000000002,22.58256,18.46967,22.53033Q18.417437,22.4781,18.376398000000002,22.41668Q18.335359,22.35526,18.30709,22.287010000000002Q18.278822,22.21877,18.264411,22.14632Q18.25,22.07387,18.25,22L18.25,16Z" fill-rule="evenodd" fill="#13943C" fill-opacity="1" style="mix-blend-mode:passthrough"/></g></g></g></svg>