<svg xmlns="http://www.w3.org/2000/svg" xmlns:xlink="http://www.w3.org/1999/xlink" fill="none" version="1.1" width="24" height="24" viewBox="0 0 24 24"><defs><clipPath id="master_svg0_72_03381"><rect x="0" y="0" width="24" height="24" rx="0"/></clipPath></defs><g clip-path="url(#master_svg0_72_03381)"><g><path d="M20.4335,10.18589C20.8873,8.82399,20.731,7.33208,20.0054,6.09331C18.9141,4.19326,16.7203,3.2157400000000003,14.5778,3.67575C13.6246,2.601981,12.2552,1.99134248,10.81958,2.0000927468C8.629529999999999,1.99509264,6.68636,3.40512,6.0126,5.48892C4.60569,5.77705,3.3912899999999997,6.65769,2.6806520000000003,7.90584C1.581254,9.80088,1.831884,12.1897,3.30067,13.8147C2.846906,15.1766,3.0031600000000003,16.6685,3.7287999999999997,17.9073C4.820069999999999,19.8073,7.01387,20.7849,9.156410000000001,20.3249C10.10894,21.3986,11.47896,22.0093,12.9146,21.9999C15.1059,22.0055,17.0497,20.5942,17.7235,18.5086C19.1304,18.2204,20.3448,17.3398,21.0554,16.0916C22.1536,14.1966,21.9023,11.80968,20.4342,10.18464L20.4335,10.18589ZM12.9159,20.693C12.039,20.6942,11.18958,20.3874,10.51645,19.8255C10.54707,19.8092,10.6002,19.7798,10.63457,19.7586L14.6172,17.4585C14.8209,17.3429,14.9459,17.125999999999998,14.9447,16.8917L14.9447,11.27717L16.6278,12.2491C16.646,12.2578,16.6578,12.2753,16.6603,12.2953L16.6603,16.9448C16.6578,19.0123,14.9834,20.6886,12.9159,20.693ZM4.8632,17.253500000000003C4.42382,16.494799999999998,4.26569,15.6054,4.41631,14.7422C4.44569,14.7597,4.49757,14.7916,4.53444,14.8129L8.51703,17.1129C8.718910000000001,17.231,8.968910000000001,17.231,9.171420000000001,17.1129L14.0334,14.3054L14.0334,16.2491C14.0346,16.2691,14.0253,16.2885,14.0096,16.301000000000002L9.98393,18.6255C8.19077,19.658,5.90072,19.0442,4.8638200000000005,17.253500000000003L4.8632,17.253500000000003ZM3.8150500000000003,8.56023C4.25256,7.80022,4.9432,7.21896,5.76572,6.91707C5.76572,6.95145,5.76384,7.01208,5.76384,7.05458L5.76384,11.6553C5.762589999999999,11.88905,5.8876,12.1059,6.09073,12.2216L10.9527,15.0285L9.26954,16.0004C9.25267,16.0116,9.23142,16.0135,9.21267,16.0054L5.18633,13.6791C3.3969199999999997,12.6428,2.783155,10.3534,3.8144299999999998,8.56086L3.8150500000000003,8.56023ZM17.6441,11.77843L12.7821,8.97087L14.4653,7.9996C14.4822,7.98835,14.5034,7.98647,14.5222,7.9946L18.5485,10.31902C20.341,11.35467,20.9554,13.6478,19.9198,15.4404C19.4816,16.1991,18.7916,16.7804,17.9697,17.082900000000002L17.9697,12.3447C17.971600000000002,12.1109,17.8472,11.89468,17.6447,11.77843L17.6441,11.77843ZM19.3191,9.25712C19.2898,9.239,19.2379,9.20775,19.201,9.186499999999999L15.2184,6.88645C15.0165,6.76832,14.7665,6.76832,14.564,6.88645L9.70205,9.694009999999999L9.70205,7.75022C9.700800000000001,7.73022,9.710180000000001,7.71084,9.7258,7.69834L13.7515,5.37579C15.5447,4.3414,17.8372,4.95703,18.871,6.75082C19.3079,7.50834,19.466,8.39523,19.3179,9.25712L19.3191,9.25712ZM8.78703,12.7216L7.10325,11.74968C7.08512,11.74093,7.07325,11.72343,7.07075,11.70343L7.07075,7.05395C7.072,4.98391,8.75141,3.3063700000000003,10.82145,3.30762C11.69709,3.30762,12.5446,3.6151299999999997,13.2178,4.17514C13.1871,4.19139,13.1346,4.22077,13.0996,4.24202L9.11704,6.54207C8.91328,6.65769,8.78828,6.87395,8.78953,7.10833L8.78703,12.7203L8.78703,12.7216ZM9.70143,10.75028L11.8671,9.49963L14.0328,10.74965L14.0328,13.2503L11.8671,14.5004L9.70143,13.2503L9.70143,10.75028Z" fill="#007B7B" fill-opacity="1" style="mix-blend-mode:passthrough"/></g></g></svg>