<svg xmlns="http://www.w3.org/2000/svg" xmlns:xlink="http://www.w3.org/1999/xlink" fill="none" version="1.1" width="24" height="24" viewBox="0 0 24 24"><defs><clipPath id="master_svg0_62_08631"><rect x="0" y="0" width="24" height="24" rx="0"/></clipPath></defs><g clip-path="url(#master_svg0_62_08631)"><g><g><path d="M1.75,13.25L1.75,7.75L9.25,7.75L9.25,13.25L1.75,13.25ZM7.75,9.25L3.25,9.25L3.25,11.75L7.75,11.75L7.75,9.25Z" fill-rule="evenodd" fill="#736F78" fill-opacity="1"/></g><g><path d="M7.75,17.25L7.75,11.75L15.25,11.75L15.25,17.25L7.75,17.25ZM13.75,13.25L9.25,13.25L9.25,15.75L13.75,15.75L13.75,13.25Z" fill-rule="evenodd" fill="#736F78" fill-opacity="1"/></g><g><path d="M13.75,13.25L13.75,7.75L21.25,7.75L21.25,13.25L13.75,13.25ZM19.75,9.25L15.25,9.25L15.25,11.75L19.75,11.75L19.75,9.25Z" fill-rule="evenodd" fill="#736F78" fill-opacity="1"/></g><g><path d="M7.75,13.25L7.75,7.75L15.25,7.75L15.25,13.25L7.75,13.25ZM13.75,9.25L9.25,9.25L9.25,11.75L13.75,11.75L13.75,9.25Z" fill-rule="evenodd" fill="#736F78" fill-opacity="1"/></g><g><path d="M7.75,9.25L7.75,3.75L15.25,3.75L15.25,9.25L7.75,9.25ZM13.75,5.25L9.25,5.25L9.25,7.75L13.75,7.75L13.75,5.25Z" fill-rule="evenodd" fill="#736F78" fill-opacity="1"/></g></g><g><path d="M2.5,19.5L7.5,19.5L10.5,16.5L2.5,16.5L2.5,19.5Z" fill="#13943C" fill-opacity="0.20000000298023224"/><path d="M1.75,20.25L7.81066,20.25L8.03033,20.03033L12.31066,15.75L1.75,15.75L1.75,20.25ZM7.18934,18.75L3.25,18.75L3.25,17.25L8.68934,17.25L7.18934,18.75Z" fill-rule="evenodd" fill="#13943C" fill-opacity="1"/></g><g><path d="M20.591,16.591Q21.25,15.932,21.25,15L21.25,6Q21.25,5.068018,20.591,4.4090097Q19.932,3.75,19,3.75L4,3.75Q3.0680199999999997,3.75,2.4090099,4.4090098Q1.75,5.06802,1.75,6L1.75,17.25L19,17.25Q19.932,17.25,20.591,16.591ZM19.75,6L19.75,15Q19.75,15.75,19,15.75L3.25,15.75L3.25,6Q3.25,5.25,4,5.25L19,5.25Q19.75,5.25,19.75,6Z" fill-rule="evenodd" fill="#231F2E" fill-opacity="1"/></g><g><g transform="matrix(1,0,0,-1,0,43)"><path d="M13.75,22.169983L13.75,24.83325Q13.75,25.8343,14.45785,26.54215Q15.165699,27.25,16.16675,27.25L18.82996,27.25Q19.827840000000002,27.25,20.53629,26.54636Q21.25,25.83748,21.25,24.83325L21.25,22.169983Q21.25,21.168874,20.54043,20.45939Q19.83095,19.75,18.82996,19.75L16.166748,19.75Q15.162578,19.75,14.45372,20.46361Q13.75,21.172045,13.75,22.169983ZM17.25,23.75L17.75,23.75L17.75,23.25L17.25,23.25L17.25,23.75Z" fill-rule="evenodd" fill="#FFFFFF" fill-opacity="1" style="mix-blend-mode:passthrough"/></g><g transform="matrix(-1,0,0,1,43,0)"><path d="M24.09861,17.25L23.25,17.25L23.25,18.57834Q23.37863,18.78596,23.4455,19.02086Q23.51237,19.25576,23.51237,19.5Q23.51237,19.58597,23.50394,19.67153Q23.49552,19.757089999999998,23.47874,19.84141Q23.46197,19.92573,23.43702,20.008Q23.41206,20.09027,23.37916,20.1697Q23.34626,20.249119999999998,23.30573,20.324939999999998Q23.26521,20.40076,23.21744,20.47225Q23.16968,20.54373,23.11514,20.61019Q23.0606,20.676650000000002,22.99981,20.73744Q22.93902,20.79823,22.87256,20.85277Q22.8061,20.90731,22.73462,20.95507Q22.66314,21.00284,22.58731,21.04336Q22.51149,21.08389,22.432066,21.11679Q22.352639,21.14969,22.270369,21.17464Q22.188098,21.1996,22.103778,21.21637Q22.019458,21.233150000000002,21.9339,21.24157Q21.848342,21.25,21.76237,21.25Q21.305555,21.25,20.907023,21.02672L20.905765,21.02602L20.905462,21.02585Q20.37498,20.72813,20.06532,20.2058Q19.75151,19.676470000000002,19.75,19.05744L19.75,16.01001Q19.75,15.066522,20.42503,14.40241Q21.08818,13.75,22.018555,13.75L24.61108,13.75Q25.29747,13.75,25.84291,14.1285Q26.25504,14.41449,26.52307,14.888164Q26.63463,15.085324,26.69232,15.304394Q26.75,15.5234634,26.75,15.75Q26.75,15.835972,26.74157,15.92153Q26.733150000000002,16.007088,26.71637,16.091408Q26.6996,16.175728,26.67465,16.257998Q26.64969,16.340268000000002,26.61679,16.419696Q26.58389,16.499124,26.54336,16.57494Q26.50283,16.65076,26.45507,16.72225Q26.40731,16.79373,26.35277,16.86019Q26.29823,16.92665,26.23744,16.98744Q26.176650000000002,17.04823,26.11019,17.10277Q26.04373,17.15731,25.97225,17.20507Q25.90076,17.25284,25.824939999999998,17.29336Q25.749119999999998,17.33389,25.6697,17.36679Q25.59027,17.39969,25.508,17.42465Q25.42573,17.4496,25.34141,17.46637Q25.257089999999998,17.48315,25.17153,17.49157Q25.08597,17.5,25,17.5Q24.76181,17.5,24.53229,17.43634Q24.30277,17.37268,24.09861,17.25Z" fill-rule="evenodd" fill="#FFFFFF" fill-opacity="1" style="mix-blend-mode:passthrough"/></g></g><g><g transform="matrix(1,0,0,-1,0,43)"><path d="M14.75,22.169983L14.75,24.83325Q14.75,25.420090000000002,15.164957,25.83504Q15.5799128,26.25,16.16675,26.25L18.82996,26.25Q19.41561,26.25,19.83159,25.83685Q20.25,25.42127,20.25,24.83325L20.25,22.169983Q20.25,21.5831237,19.83336,21.16654Q19.41677,20.75,18.82996,20.75L16.166748,20.75Q15.578749,20.75,15.163187,21.168347Q14.75,21.5843033,14.75,22.169983ZM16.25,24.75L18.75,24.75L18.75,22.25L16.25,22.25L16.25,24.75Z" fill-rule="evenodd" fill="#13943C" fill-opacity="1" style="mix-blend-mode:passthrough"/></g><g transform="matrix(-1,0,0,1,43,0)"><path d="M24.44098,16.25L22.25,16.25L22.25,18.93016Q22.374884,19.03703,22.443627,19.186329999999998Q22.51237,19.335630000000002,22.51237,19.5Q22.51237,19.57387,22.497959,19.64632Q22.483548,19.71877,22.45528,19.787010000000002Q22.427012,19.85526,22.385972,19.91668Q22.344933,19.9781,22.2927,20.03033Q22.240467,20.08256,22.179048,20.1236Q22.117628,20.16464,22.049383,20.19291Q21.981137,20.22118,21.908688,20.235590000000002Q21.836239,20.25,21.76237,20.25Q21.5665922,20.25,21.395793,20.15431L21.395351,20.15406L21.394832,20.15377Q20.751802,19.79296,20.75,19.05744L20.75,16.01001Q20.75,15.4855224,21.126347,15.115267Q21.49762257,14.75,22.018555,14.75L24.61108,14.75Q25.29589,14.75,25.65274,15.380642Q25.75,15.5525165,25.75,15.75Q25.75,15.823869,25.735590000000002,15.896318Q25.72118,15.968767,25.69291,16.037013Q25.66464,16.105258,25.6236,16.166678Q25.58256,16.228096999999998,25.53033,16.28033Q25.4781,16.332563,25.41668,16.373601999999998Q25.35526,16.414641,25.28701,16.44291Q25.21877,16.471178,25.14632,16.485589Q25.07387,16.5,25,16.5Q24.83993,16.5,24.69381,16.434653Q24.54769,16.369306,24.44098,16.25Z" fill-rule="evenodd" fill="#13943C" fill-opacity="1" style="mix-blend-mode:passthrough"/></g></g></g></svg>