<svg xmlns="http://www.w3.org/2000/svg" xmlns:xlink="http://www.w3.org/1999/xlink" fill="none" version="1.1" width="24" height="24" viewBox="0 0 24 24"><defs><clipPath id="master_svg0_63_00854"><rect x="0" y="0" width="24" height="24" rx="0"/></clipPath></defs><g clip-path="url(#master_svg0_63_00854)"><g><g><path d="M3,17.75L10,17.75Q10.07387,17.75,10.14632,17.764411Q10.21877,17.778822,10.28701,17.80709Q10.355260000000001,17.835359,10.41668,17.876398000000002Q10.478100000000001,17.917437,10.53033,17.96967Q10.58256,18.021903000000002,10.6236,18.083322Q10.66464,18.144742,10.692910000000001,18.212987Q10.72118,18.281233,10.73559,18.353682Q10.75,18.4261315,10.75,18.5Q10.75,18.5738685,10.73559,18.646318Q10.72118,18.718767,10.692910000000001,18.787013Q10.66464,18.855258,10.6236,18.916678Q10.58256,18.978096999999998,10.53033,19.03033Q10.478100000000001,19.082563,10.41668,19.123601999999998Q10.355260000000001,19.164641,10.28701,19.19291Q10.21877,19.221178,10.14632,19.235589Q10.07387,19.25,10,19.25L3,19.25Q2.9261315,19.25,2.853682,19.235589Q2.781233,19.221178,2.712987,19.19291Q2.644742,19.164641,2.583322,19.123601999999998Q2.521903,19.082563,2.46967,19.03033Q2.417437,18.978096999999998,2.376398,18.916678Q2.335359,18.855258,2.30709,18.787013Q2.278822,18.718767,2.264411,18.646318Q2.25,18.5738685,2.25,18.5Q2.25,18.4261315,2.264411,18.353682Q2.278822,18.281233,2.30709,18.212987Q2.335359,18.144742,2.376398,18.083322Q2.417437,18.021903000000002,2.46967,17.96967Q2.521903,17.917437,2.583322,17.876398000000002Q2.644742,17.835359,2.712987,17.80709Q2.781233,17.778822,2.853682,17.764411Q2.9261315,17.75,3,17.75Z" fill-rule="evenodd" fill="#13943C" fill-opacity="1" style="mix-blend-mode:passthrough"/></g><g><path d="M6.53033,16.03033Q6.63582,15.924841,6.6929099999999995,15.787013Q6.75,15.649184,6.75,15.5Q6.75,15.4261315,6.73559,15.353682Q6.72118,15.281233,6.6929099999999995,15.212987Q6.66464,15.144742,6.6236,15.083322Q6.58256,15.021903,6.53033,14.96967Q6.4780999999999995,14.917437,6.4166799999999995,14.876398Q6.3552599999999995,14.835359,6.28701,14.80709Q6.21877,14.778822,6.146319999999999,14.764410999999999Q6.073869999999999,14.75,6,14.75Q5.850820000000001,14.75,5.71299,14.80709Q5.57516,14.864181,5.46967,14.96967L2.46967,17.96967Q2.417437,18.0219,2.376398,18.08332Q2.335359,18.14474,2.30709,18.21299Q2.278822,18.28123,2.264411,18.35368Q2.25,18.42613,2.25,18.5Q2.25,18.57387,2.264411,18.64632Q2.278822,18.71877,2.30709,18.78701Q2.335359,18.85526,2.376398,18.91668Q2.417437,18.9781,2.46967,19.03033L5.4692799999999995,22.02994L5.46967,22.03033Q5.57516,22.13582,5.71299,22.19291Q5.850820000000001,22.25,6,22.25Q6.073869999999999,22.25,6.146319999999999,22.235590000000002Q6.21877,22.22118,6.28701,22.19291Q6.3552599999999995,22.16464,6.4166799999999995,22.1236Q6.4780999999999995,22.08256,6.53033,22.03033Q6.58256,21.9781,6.6236,21.91668Q6.66464,21.85526,6.6929099999999995,21.787010000000002Q6.72118,21.71877,6.73559,21.64632Q6.75,21.57387,6.75,21.5Q6.75,21.35082,6.6929099999999995,21.212989999999998Q6.63582,21.07516,6.53033,20.96967L6.5298,20.96914L4.06066,18.5L6.53004,16.030625L6.53033,16.03033L6.53033,16.03033Z" fill-rule="evenodd" fill="#13943C" fill-opacity="1" style="mix-blend-mode:passthrough"/></g></g><g><g><path d="M14,17.75L21,17.75Q21.07387,17.75,21.14632,17.764411Q21.21877,17.778822,21.287010000000002,17.80709Q21.35526,17.835359,21.41668,17.876398000000002Q21.4781,17.917437,21.53033,17.96967Q21.58256,18.021903000000002,21.6236,18.083322Q21.66464,18.144742,21.69291,18.212987Q21.72118,18.281233,21.735590000000002,18.353682Q21.75,18.4261315,21.75,18.5Q21.75,18.5738685,21.735590000000002,18.646318Q21.72118,18.718767,21.69291,18.787013Q21.66464,18.855258,21.6236,18.916678Q21.58256,18.978096999999998,21.53033,19.03033Q21.4781,19.082563,21.41668,19.123601999999998Q21.35526,19.164641,21.287010000000002,19.19291Q21.21877,19.221178,21.14632,19.235589Q21.07387,19.25,21,19.25L14,19.25Q13.9261315,19.25,13.853682,19.235589Q13.781233,19.221178,13.712987,19.19291Q13.644742,19.164641,13.583322,19.123601999999998Q13.521903,19.082563,13.46967,19.03033Q13.417437,18.978096999999998,13.376398,18.916678Q13.335359,18.855258,13.30709,18.787013Q13.278822,18.718767,13.264410999999999,18.646318Q13.25,18.5738685,13.25,18.5Q13.25,18.4261315,13.264410999999999,18.353682Q13.278822,18.281233,13.30709,18.212987Q13.335359,18.144742,13.376398,18.083322Q13.417437,18.021903000000002,13.46967,17.96967Q13.521903,17.917437,13.583322,17.876398000000002Q13.644742,17.835359,13.712987,17.80709Q13.781233,17.778822,13.853682,17.764411Q13.9261315,17.75,14,17.75Z" fill-rule="evenodd" fill="#13943C" fill-opacity="1" style="mix-blend-mode:passthrough"/></g><g><path d="M18.530484,14.969824L21.53033,17.96967Q21.63582,18.07516,21.69291,18.21299Q21.75,18.35082,21.75,18.5Q21.75,18.64918,21.69291,18.78701Q21.63582,18.92484,21.53033,19.03033L18.530792,22.02987L18.53033,22.03033Q18.424841,22.13582,18.287013,22.19291Q18.149184,22.25,18,22.25Q17.9261315,22.25,17.853682,22.235590000000002Q17.781233,22.22118,17.712987,22.19291Q17.644742,22.16464,17.583322,22.1236Q17.521903000000002,22.08256,17.46967,22.03033Q17.417437,21.9781,17.376398000000002,21.91668Q17.335359,21.85526,17.30709,21.787010000000002Q17.278822,21.71877,17.264411,21.64632Q17.25,21.57387,17.25,21.5Q17.25,21.35082,17.30709,21.212989999999998Q17.364181,21.07516,17.46967,20.96967L17.470132,20.96921L19.93934,18.5L17.469824,16.030484L17.46967,16.03033Q17.364181,15.924841,17.30709,15.787013Q17.25,15.649184,17.25,15.5Q17.25,15.4261315,17.264411,15.353682Q17.278822,15.281233,17.30709,15.212987Q17.335359,15.144742,17.376398000000002,15.083322Q17.417437,15.021903,17.46967,14.96967Q17.521903000000002,14.917437,17.583322,14.876398Q17.644742,14.835359,17.712987,14.80709Q17.781233,14.778822,17.853682,14.764410999999999Q17.9261315,14.75,18,14.75Q18.149184,14.75,18.287013,14.80709Q18.424841,14.864181,18.53033,14.96967L18.530484,14.969824Z" fill-rule="evenodd" fill="#13943C" fill-opacity="1" style="mix-blend-mode:passthrough"/></g></g><g><path d="M3.5 5C3.5 4.17157287525381 4.17157287525381 3.5 5 3.5L19 3.5C19.82842712474619 3.5 20.5 4.17157287525381 20.5 5L20.5 12.5C20.5 12.5 20.5 12.5 20.5 12.5L3.5 12.5C3.5 12.5 3.5 12.5 3.5 12.5Z" fill="#FFFFFF" fill-opacity="1"/><path d="M5,2.75C3.757359,2.75,2.75,3.757359,2.75,5L2.75,12.5L4.25,12.5L4.25,5Q4.25,4.92613,4.264411,4.85368Q4.278822,4.78123,4.30709,4.71299Q4.335359,4.6447400000000005,4.376398,4.5833200000000005Q4.417437,4.5219000000000005,4.46967,4.46967Q4.5219000000000005,4.417437,4.5833200000000005,4.376398Q4.6447400000000005,4.335359,4.71299,4.30709Q4.78123,4.278822,4.85368,4.264411Q4.92613,4.25,5,4.25L19,4.25Q19.073900000000002,4.25,19.1463,4.264411Q19.2188,4.278822,19.287,4.30709Q19.3553,4.335359,19.4167,4.376398Q19.478099999999998,4.417437,19.5303,4.46967Q19.5826,4.5219000000000005,19.6236,4.5833200000000005Q19.6646,4.6447400000000005,19.6929,4.71299Q19.7212,4.78123,19.7356,4.85368Q19.75,4.92613,19.75,5L19.75,12.5L21.25,12.5L21.25,5C21.25,3.757359,20.2426,2.75,19,2.75L5,2.75Z" fill-rule="evenodd" fill="#231F2E" fill-opacity="1"/></g></g></svg>