<svg xmlns="http://www.w3.org/2000/svg" xmlns:xlink="http://www.w3.org/1999/xlink" fill="none" version="1.1" width="24" height="24" viewBox="0 0 24 24"><defs><clipPath id="master_svg0_62_03563"><rect x="0" y="0" width="24" height="24" rx="0"/></clipPath></defs><g clip-path="url(#master_svg0_62_03563)"><g><g><path d="M7.75,10.25L7.75,3.75L15.25,3.75L15.25,10.25L7.75,10.25ZM13.75,5.25L9.25,5.25L9.25,8.75L13.75,8.75L13.75,5.25Z" fill-rule="evenodd" fill="#736F78" fill-opacity="1"/></g><g><path d="M7.75,15.25L7.75,8.75L15.25,8.75L15.25,15.25L7.75,15.25ZM13.75,10.25L9.25,10.25L9.25,13.75L13.75,13.75L13.75,10.25Z" fill-rule="evenodd" fill="#736F78" fill-opacity="1"/></g><g><path d="M13.75,10.25L21.25,10.25L21.25,6Q21.25,5.06802,20.590989999999998,4.4090099Q19.93198,3.75,19,3.75L13.75,3.75L13.75,10.25ZM19.75,8.75L19.75,6Q19.75,5.68934,19.53033,5.46967Q19.31066,5.25,19,5.25L15.25,5.25L15.25,8.75L19.75,8.75Z" fill-rule="evenodd" fill="#736F78" fill-opacity="1"/></g><g><path d="M13.75,15.25L13.75,8.75L21.25,8.75L21.25,15.25L13.75,15.25ZM19.75,10.25L15.25,10.25L15.25,13.75L19.75,13.75L19.75,10.25Z" fill-rule="evenodd" fill="#736F78" fill-opacity="1"/></g><g><path d="M7.75,20.25L7.75,13.75L15.25,13.75L15.25,20.25L7.75,20.25ZM13.75,15.25L9.25,15.25L9.25,18.75L13.75,18.75L13.75,15.25Z" fill-rule="evenodd" fill="#736F78" fill-opacity="1"/></g><g><path d="M13.75,20.25L13.75,13.75L21.25,13.75L21.25,20.25L13.75,20.25ZM19.75,15.25L15.25,15.25L15.25,18.75L19.75,18.75L19.75,15.25Z" fill-rule="evenodd" fill="#736F78" fill-opacity="1"/></g></g><g><path d="M20.591,19.591Q21.25,18.932000000000002,21.25,18L21.25,6Q21.25,5.06802,20.591,4.4090098Q19.932,3.75,19,3.75L4,3.75Q3.0680199999999997,3.75,2.40901,4.4090098Q1.75,5.068019,1.75,6L1.75,18Q1.75,18.932000000000002,2.40901,19.591Q3.068019,20.25,4,20.25L19,20.25Q19.932,20.25,20.591,19.591ZM19.75,6L19.75,18Q19.75,18.75,19,18.75L4,18.75Q3.25,18.75,3.25,18L3.25,6Q3.25,5.68934,3.46967,5.46967Q3.68934,5.25,4,5.25L19,5.25Q19.3107,5.25,19.5303,5.46967Q19.75,5.68934,19.75,6Z" fill-rule="evenodd" fill="#231F2E" fill-opacity="1"/></g><g><g><path d="M2.5,14.5L2.5,18C2.5,18.82843,3.171573,19.5,4,19.5L8.5,19.5L8.5,14.5L2.5,14.5Z" fill="#13943C" fill-opacity="0.20000000298023224"/><path d="M4,20.25L9.25,20.25L9.25,13.75L1.75,13.75L1.75,18Q1.75,18.93198,2.4090098,19.590989999999998Q3.0680199999999997,20.25,4,20.25ZM7.75,18.75L4,18.75Q3.68934,18.75,3.46967,18.53033Q3.25,18.31066,3.25,18L3.25,15.25L7.75,15.25L7.75,18.75Z" fill-rule="evenodd" fill="#13943C" fill-opacity="1"/></g><g><path d="M2.5,6L2.5,9.5L8.5,9.5L8.5,4.5L4,4.5C3.171573,4.5,2.5,5.171573,2.5,6Z" fill="#13943C" fill-opacity="0.20000000298023224"/><path d="M1.75,10.25L9.25,10.25L9.25,3.75L4,3.75Q3.0680199999999997,3.75,2.4090097,4.4090098Q1.75,5.06802,1.75,6L1.75,10.25ZM7.75,8.75L3.25,8.75L3.25,6Q3.25,5.68934,3.46967,5.46967Q3.68934,5.25,4,5.25L7.75,5.25L7.75,8.75Z" fill-rule="evenodd" fill="#13943C" fill-opacity="1"/></g><g><path d="M2.5,14.5L8.5,14.5L8.5,9.5L2.5,9.5L2.5,14.5Z" fill="#13943C" fill-opacity="0.20000000298023224"/><path d="M1.75,15.25L1.75,8.75L9.25,8.75L9.25,15.25L1.75,15.25ZM7.75,10.25L3.25,10.25L3.25,13.75L7.75,13.75L7.75,10.25Z" fill-rule="evenodd" fill="#13943C" fill-opacity="1"/></g></g><g><g><path d="M14.25,16.726247L14.25,21.27375Q14.25,22.04438,14.7671,22.61576Q15.284187,23.18714,16.0509927,23.26383L20.55099,23.71383Q21.43402,23.80213,22.092010000000002,23.20666Q22.75,22.61118,22.75,21.72375L22.75,16.276247Q22.75,15.388814,22.092010000000002,14.79334Q21.43402,14.19787,20.55099,14.28617L16.0509924,14.73617Q15.284189,14.812850000000001,14.76709,15.384237Q14.25,15.9556201,14.25,16.726247ZM17.75,19.91627L19.25,20.06627L19.25,17.93373L17.75,18.08373L17.75,19.91627Z" fill-rule="evenodd" fill="#FFFFFF" fill-opacity="1"/></g><g><path d="M16,21.27375C16,21.40219,16.0973236,21.50973,16.225124,21.52251L20.72512,21.97251C20.8723,21.98723,21,21.87166,21,21.72375L21,16.276247C21,16.128341,20.8723,16.0127704,20.72512,16.0274876L16.225124,16.477488C16.0973236,16.490268,16,16.597809,16,16.726247L16,21.27375Z" fill="#13943C" fill-opacity="1"/><path d="M15.25,16.726247L15.25,21.27375Q15.25,21.65907,15.508548,21.94476Q15.767094,22.23045,16.150496,22.26879L20.6505,22.71879Q21.092010000000002,22.76294,21.42101,22.46521Q21.75,22.16747,21.75,21.72375L21.75,16.276247Q21.75,15.83253,21.42101,15.534794Q21.092010000000002,15.237058,20.6505,15.28121L16.150496,15.73121Q15.767095,15.76955,15.508547,16.0552417Q15.25,16.340933,15.25,16.726247ZM16.75,20.82126L20.25,21.17126L20.25,16.828741L16.75,17.17874L16.75,20.82126Z" fill-rule="evenodd" fill="#13943C" fill-opacity="1"/></g><g><path d="M17.083975,17.77735Q17,17.651388,17,17.5Q17,17.4507543,17.009607,17.4024549Q17.019215,17.354155,17.03806,17.308658Q17.056906,17.263161,17.084265,17.222215Q17.111625,17.181269,17.146447,17.146447Q17.181269,17.111625,17.222215,17.084265Q17.263161,17.056906,17.308658,17.03806Q17.354155,17.019215,17.4024549,17.009607Q17.4507543,17,17.5,17Q17.5617355,17,17.621617,17.015016Q17.681498,17.030032,17.735929,17.059163Q17.79036,17.088293,17.83607,17.129788Q17.88178,17.171283,17.916025,17.22265L19.91603,20.22265Q20,20.34861,20,20.5Q20,20.54925,19.99039,20.59754Q19.98078,20.64584,19.96194,20.69134Q19.94309,20.73684,19.91573,20.77778Q19.88838,20.81873,19.85355,20.85355Q19.81873,20.888370000000002,19.77779,20.91573Q19.73684,20.94309,19.69134,20.96194Q19.64584,20.98078,19.59754,20.99039Q19.54925,21,19.5,21Q19.43826,21,19.37838,20.98498Q19.3185,20.96997,19.26407,20.94084Q19.20964,20.91171,19.16393,20.87021Q19.11822,20.82872,19.08397,20.77735L17.083975,17.77735Z" fill-rule="evenodd" fill="#FFFFFF" fill-opacity="1"/></g><g><path d="M19.91603,17.77735Q20,17.651388,20,17.5Q20,17.4507543,19.99039,17.4024549Q19.98078,17.354155,19.96194,17.308658Q19.94309,17.263161,19.91573,17.222215Q19.88838,17.181269,19.85355,17.146447Q19.81873,17.111625,19.77779,17.084265Q19.73684,17.056906,19.69134,17.03806Q19.64584,17.019215,19.59754,17.009607Q19.54925,17,19.5,17Q19.43826,17,19.37838,17.015016Q19.3185,17.030032,19.26407,17.059163Q19.20964,17.088293,19.16393,17.129788Q19.11822,17.171283,19.08397,17.22265L17.083975,20.22265Q17,20.34861,17,20.5Q17,20.54925,17.009607,20.59754Q17.019215,20.64584,17.03806,20.69134Q17.056906,20.73684,17.084265,20.77778Q17.111625,20.81873,17.146447,20.85355Q17.181269,20.888370000000002,17.222215,20.91573Q17.263161,20.94309,17.308658,20.96194Q17.354155,20.98078,17.4024549,20.99039Q17.4507543,21,17.5,21Q17.5617355,21,17.621617,20.98498Q17.681498,20.96997,17.735929,20.94084Q17.79036,20.91171,17.83607,20.87021Q17.88178,20.82872,17.916025,20.77735L19.91603,17.77735Z" fill-rule="evenodd" fill="#FFFFFF" fill-opacity="1"/></g></g></g></svg>