<svg xmlns="http://www.w3.org/2000/svg" xmlns:xlink="http://www.w3.org/1999/xlink" fill="none" version="1.1" width="24" height="24" viewBox="0 0 24 24"><defs><clipPath id="master_svg0_63_02477"><rect x="0" y="0" width="24" height="24" rx="0"/></clipPath></defs><g clip-path="url(#master_svg0_63_02477)"><g><g><path d="M2.75,15.25L2.75,8.75L10.25,8.75L10.25,15.25L2.75,15.25ZM8.75,10.25L4.25,10.25L4.25,13.75L8.75,13.75L8.75,10.25Z" fill-rule="evenodd" fill="#736F78" fill-opacity="1"/></g><g><path d="M8.75,20.25L8.75,13.75L16.25,13.75L16.25,20.25L8.75,20.25ZM14.75,15.25L10.25,15.25L10.25,18.75L14.75,18.75L14.75,15.25Z" fill-rule="evenodd" fill="#736F78" fill-opacity="1"/></g><g><path d="M14.75,15.25L14.75,8.75L22.25,8.75L22.25,15.25L14.75,15.25ZM20.75,10.25L16.25,10.25L16.25,13.75L20.75,13.75L20.75,10.25Z" fill-rule="evenodd" fill="#736F78" fill-opacity="1"/></g><g><path d="M8.75,15.25L8.75,8.75L16.25,8.75L16.25,15.25L8.75,15.25ZM14.75,10.25L10.25,10.25L10.25,13.75L14.75,13.75L14.75,10.25Z" fill-rule="evenodd" fill="#736F78" fill-opacity="1"/></g></g><g><path d="M21.591,19.591Q22.25,18.932000000000002,22.25,18L22.25,6Q22.25,5.06802,21.591,4.4090098Q20.932,3.75,20,3.75L5,3.75Q4.06802,3.75,3.40901,4.4090098Q2.75,5.068019,2.75,6L2.75,18Q2.75,18.932000000000002,3.40901,19.591Q4.068019,20.25,5,20.25L20,20.25Q20.932,20.25,21.591,19.591ZM20.75,6L20.75,18Q20.75,18.75,20,18.75L5,18.75Q4.25,18.75,4.25,18L4.25,6Q4.25,5.68934,4.46967,5.46967Q4.68934,5.25,5,5.25L20,5.25Q20.3107,5.25,20.5303,5.46967Q20.75,5.68934,20.75,6Z" fill-rule="evenodd" fill="#231F2E" fill-opacity="1"/></g><g><g><g><path d="M13.23744,13.247205625Q13.35931,13.125325625,13.45507,12.982013625Q13.550830000000001,12.838701625,13.61679,12.679461625Q13.68275,12.520221625,13.716370000000001,12.351173625Q13.75,12.182125625,13.75,12.009765625Q13.75,11.923793625,13.74157,11.838235625Q13.73315,11.752677625,13.716370000000001,11.668357625Q13.6996,11.584037625,13.67465,11.501767625Q13.64969,11.419497625,13.61679,11.340069625Q13.58389,11.260641625,13.54336,11.184821625Q13.50283,11.109000625,13.45507,11.037517625Q13.407309999999999,10.966035625,13.35277,10.899575625Q13.29823,10.833115625,13.23744,10.772325625Q13.17665,10.711535625,13.11019,10.656995625Q13.04373,10.602455625,12.972249999999999,10.554695625Q12.90076,10.506925625000001,12.82494,10.466405625Q12.74912,10.425875625,12.669699999999999,10.392975625Q12.59027,10.360075625,12.508,10.335115625Q12.42573,10.310165625,12.34141,10.293395625Q12.25709,10.276615625,12.17153,10.268195625Q12.08597,10.259765625,12,10.259765625Q11.82764,10.259765625,11.65859,10.293395625Q11.48954,10.327015625,11.3303,10.392975625Q11.17106,10.458935625,11.027750000000001,10.554695625Q10.88444,10.650455625,10.76256,10.772325625L7.26256,14.272325625Q7.14069,14.394205625,7.04493,14.537515625000001Q6.9491700000000005,14.680825625,6.88321,14.840065625Q6.81725,14.999305625,6.7836300000000005,15.168355625Q6.75,15.337405625,6.75,15.509765625Q6.75,15.595735625,6.75843,15.681295625Q6.76685,15.766855625,6.7836300000000005,15.851175625Q6.8004,15.935495625,6.82535,16.017765625Q6.85031,16.100035625,6.88321,16.179465625Q6.91611,16.258885624999998,6.95664,16.334705624999998Q6.99716,16.410525625,7.04493,16.482015625Q7.09269,16.553495625,7.14723,16.619955625Q7.20177,16.686415625000002,7.26256,16.747205625Q7.32335,16.807995625,7.38981,16.862535625Q7.45627,16.917075625,7.5277519999999996,16.964835625Q7.599235,17.012595625,7.675056,17.053125625Q7.750876,17.093655625,7.830304,17.126555625Q7.909732,17.159455625,7.992002,17.184405625Q8.074272,17.209365625,8.158592,17.226135625Q8.242912,17.242915625000002,8.32847,17.251335625Q8.414028,17.259765625,8.5,17.259765625Q8.67236,17.259765625,8.841408,17.226135625Q9.010456,17.192515625,9.169696,17.126555625Q9.328936,17.060595625,9.472248,16.964835625Q9.61556,16.869075625,9.73744,16.747205625L9.73791,16.746725625L13.23744,13.247205625L13.23744,13.247205625Z" fill-rule="evenodd" fill="#FFFFFF" fill-opacity="1" style="mix-blend-mode:passthrough"/></g><g><path d="M9.73791,7.272805625L13.23744,10.772325625Q13.35931,10.894205625,13.45507,11.037515625000001Q13.550830000000001,11.180825625,13.61679,11.340065625Q13.68275,11.499305625,13.716370000000001,11.668355625Q13.75,11.837405625,13.75,12.009765625Q13.75,12.095735625,13.74157,12.181295625Q13.73315,12.266855625,13.716370000000001,12.351175625Q13.6996,12.435495625,13.67465,12.517765625Q13.64969,12.600035625,13.61679,12.679465624999999Q13.58389,12.758885625,13.54336,12.834705625Q13.50283,12.910525625,13.45507,12.982015624999999Q13.407309999999999,13.053495625,13.35277,13.119955625Q13.29823,13.186415625,13.23744,13.247205625Q13.17665,13.307995625,13.11019,13.362535625Q13.04373,13.417075624999999,12.972249999999999,13.464835625Q12.90076,13.512595625,12.82494,13.553125625Q12.74912,13.593655625,12.669699999999999,13.626555625Q12.59027,13.659455625,12.508,13.684405625Q12.42573,13.709365625,12.34141,13.726135625000001Q12.25709,13.742915625,12.17153,13.751335625Q12.08597,13.759765625,12,13.759765625Q11.82764,13.759765625,11.65859,13.726135625000001Q11.48954,13.692515625,11.3303,13.626555625Q11.17106,13.560595625000001,11.027750000000001,13.464835625Q10.88444,13.369075625,10.76256,13.247205625L7.26256,9.747205625Q7.14069,9.625325625,7.04493,9.482013625Q6.9491700000000005,9.338701625,6.88321,9.179461625Q6.81725,9.020221625,6.7836300000000005,8.851173625Q6.75,8.682125625,6.75,8.509765625Q6.75,8.423793625,6.75843,8.338235625Q6.76685,8.252677625,6.7836300000000005,8.168357625Q6.8004,8.084037625,6.82535,8.001767625Q6.85031,7.919497625,6.88321,7.840069625Q6.91611,7.760641625,6.95664,7.684821625Q6.99716,7.609000625,7.04493,7.5375176249999996Q7.09269,7.466035625,7.14723,7.399575625Q7.20177,7.333115625,7.26256,7.272325625Q7.32335,7.211535625,7.38981,7.156995625Q7.45627,7.102455625,7.5277519999999996,7.054695625Q7.599235,7.006925625,7.675056,6.966405625Q7.750876,6.925875625,7.830304,6.892975625Q7.909732,6.860075625,7.992002,6.835115625Q8.074272,6.810165625,8.158592,6.7933956250000005Q8.242912,6.776615625,8.32847,6.768195625Q8.414028,6.759765625,8.5,6.759765625Q8.67236,6.759765625,8.841408,6.7933956250000005Q9.010456,6.827015625,9.169696,6.892975625Q9.328936,6.9589356250000005,9.472248,7.054695625Q9.61556,7.150455625,9.73744,7.272325625L9.73791,7.272805625Z" fill-rule="evenodd" fill="#FFFFFF" fill-opacity="1" style="mix-blend-mode:passthrough"/></g><g><path d="M2,10.259765625L12,10.259765625Q12.086,10.259765625,12.1715,10.268195625Q12.2571,10.276615625,12.3414,10.293395625Q12.4257,10.310165625,12.508,10.335115625Q12.5903,10.360075625,12.6697,10.392975625Q12.7491,10.425875625,12.8249,10.466405625Q12.9008,10.506925625000001,12.9722,10.554695625Q13.0437,10.602455625,13.1102,10.656995625Q13.1766,10.711535625,13.2374,10.772325625Q13.2982,10.833115625,13.3528,10.899575625Q13.4073,10.966035625,13.4551,11.037517625Q13.5028,11.109000625,13.5434,11.184821625Q13.5839,11.260641625,13.6168,11.340069625Q13.6497,11.419497625,13.6746,11.501767625Q13.6996,11.584037625,13.7164,11.668357625Q13.7331,11.752677625,13.7416,11.838235625Q13.75,11.923793625,13.75,12.009765625Q13.75,12.095737625,13.7416,12.181295625Q13.7331,12.266853625,13.7164,12.351173625Q13.6996,12.435493625,13.6746,12.517763625Q13.6497,12.600033625,13.6168,12.679461625Q13.5839,12.758889625,13.5434,12.834709625Q13.5028,12.910530625,13.4551,12.982013625Q13.4073,13.053495625,13.3528,13.119955625Q13.2982,13.186415625,13.2374,13.247205625Q13.1766,13.307995625,13.1102,13.362535625Q13.0437,13.417075625,12.9722,13.464835625Q12.9008,13.512605624999999,12.8249,13.553125625Q12.7491,13.593655625,12.6697,13.626555625Q12.5903,13.659455625,12.508,13.684415625Q12.4257,13.709365625,12.3414,13.726135625Q12.2571,13.742915625,12.1715,13.751335625Q12.086,13.759765625,12,13.759765625L2,13.759765625Q1.914028,13.759765625,1.82847,13.751335625Q1.742912,13.742915625,1.658592,13.726135625Q1.5742720000000001,13.709365625,1.492002,13.684415625Q1.409732,13.659455625,1.330304,13.626555625Q1.2508759999999999,13.593655625,1.175056,13.553125625Q1.099235,13.512605624999999,1.027752,13.464835625Q0.95627,13.417075625,0.88981,13.362535625Q0.82335,13.307995625,0.7625599999999999,13.247205625Q0.70177,13.186415625,0.64723,13.119955625Q0.5926899999999999,13.053495625,0.5449299999999999,12.982013625Q0.49716000000000005,12.910530625,0.45663999999999993,12.834709625Q0.41611,12.758889625,0.38321000000000005,12.679461625Q0.3503099999999999,12.600033625,0.32535000000000003,12.517763625Q0.3004,12.435493625,0.28363000000000005,12.351173625Q0.26685000000000003,12.266853625,0.25842999999999994,12.181295625Q0.25,12.095737625,0.25,12.009765625Q0.25,11.923793625,0.25842999999999994,11.838235625Q0.26685000000000003,11.752677625,0.28363000000000005,11.668357625Q0.3004,11.584037625,0.32535000000000003,11.501767625Q0.3503099999999999,11.419497625,0.38321000000000005,11.340069625Q0.41611,11.260641625,0.45663999999999993,11.184821625Q0.49716000000000005,11.109000625,0.5449299999999999,11.037517625Q0.5926899999999999,10.966035625,0.64723,10.899575625Q0.70177,10.833115625,0.7625599999999999,10.772325625Q0.82335,10.711535625,0.88981,10.656995625Q0.95627,10.602455625,1.027752,10.554695625Q1.099235,10.506925625000001,1.175056,10.466405625Q1.2508759999999999,10.425875625,1.330304,10.392975625Q1.409732,10.360075625,1.492002,10.335115625Q1.5742720000000001,10.310165625,1.658592,10.293395625Q1.742912,10.276615625,1.82847,10.268195625Q1.914028,10.259765625,2,10.259765625Z" fill-rule="evenodd" fill="#FFFFFF" fill-opacity="1" style="mix-blend-mode:passthrough"/></g></g><g><g><path d="M12.53033,12.540095625Q12.635819999999999,12.434606625,12.692910000000001,12.296778625Q12.75,12.158949625,12.75,12.009765625Q12.75,11.935897125,12.73559,11.863447625Q12.72118,11.790998625,12.692910000000001,11.722752625Q12.66464,11.654507625,12.6236,11.593087625Q12.58256,11.531668625,12.53033,11.479435625Q12.4781,11.427202625,12.41668,11.386163625Q12.35526,11.345124625,12.28701,11.316855625Q12.21877,11.288587625,12.14632,11.274176624999999Q12.07387,11.259765625,12,11.259765625Q11.85082,11.259765625,11.71299,11.316855625Q11.57516,11.373946625,11.46967,11.479435625L7.96967,14.979435625Q7.864181,15.084925625,7.80709,15.222755625Q7.75,15.360585625,7.75,15.509765625Q7.75,15.583635625,7.764411,15.656085625Q7.778822,15.728535625,7.80709,15.796775625Q7.835359,15.865025625,7.876398,15.926445625Q7.917437,15.987865625,7.96967,16.040095625Q8.021903,16.092325625,8.083322,16.133365625Q8.144742,16.174405625,8.212987,16.202675625Q8.281233,16.230945625,8.353682,16.245355625000002Q8.4261315,16.259765625,8.5,16.259765625Q8.649184,16.259765625,8.787013,16.202675625Q8.924841,16.145585625,9.03033,16.040095625L9.030792,16.039635625L12.529869999999999,12.540557625L12.53033,12.540095625L12.53033,12.540095625Z" fill-rule="evenodd" fill="#3862BE" fill-opacity="1" style="mix-blend-mode:passthrough"/></g><g><path d="M9.030484,7.979589625L12.52994,11.479045625L12.53033,11.479435625Q12.635819999999999,11.584925625,12.692910000000001,11.722755625Q12.75,11.860585625,12.75,12.009765625Q12.75,12.083635625,12.73559,12.156085625Q12.72118,12.228535625,12.692910000000001,12.296775625Q12.66464,12.365025625,12.6236,12.426445625Q12.58256,12.487865625,12.53033,12.540095625Q12.4781,12.592325625,12.41668,12.633365625Q12.35526,12.674405625,12.28701,12.702675625000001Q12.21877,12.730945625,12.14632,12.745355625Q12.07387,12.759765625,12,12.759765625Q11.85082,12.759765625,11.71299,12.702675625000001Q11.57516,12.645585624999999,11.46967,12.540095625L7.96967,9.040095625Q7.864181,8.934606625,7.80709,8.796778625Q7.75,8.658949625,7.75,8.509765625Q7.75,8.435897125,7.764411,8.363447625Q7.778822,8.290998625,7.80709,8.222752625Q7.835359,8.154507625,7.876398,8.093087625Q7.917437,8.031668625,7.96967,7.979435625Q8.021903,7.927202625,8.083322,7.886163625Q8.144742,7.845124625,8.212987,7.816855625Q8.281233,7.788587625,8.353682,7.774176625Q8.4261315,7.759765625,8.5,7.759765625Q8.649184,7.759765625,8.787013,7.816855625Q8.924841,7.873946625,9.03033,7.979435625L9.030484,7.979589625Z" fill-rule="evenodd" fill="#3862BE" fill-opacity="1" style="mix-blend-mode:passthrough"/></g><g><path d="M2,11.259765625L12,11.259765625Q12.0739,11.259765625,12.1463,11.274176624999999Q12.2188,11.288587625,12.287,11.316855625Q12.3553,11.345124625,12.4167,11.386163625Q12.4781,11.427202625,12.5303,11.479435625Q12.5826,11.531668625,12.6236,11.593087625Q12.6646,11.654507625,12.6929,11.722752625Q12.7212,11.790998625,12.7356,11.863447625Q12.75,11.935897125,12.75,12.009765625Q12.75,12.083634125,12.7356,12.156083625Q12.7212,12.228532625,12.6929,12.296778625Q12.6646,12.365023625,12.6236,12.426443625Q12.5826,12.487862625,12.5303,12.540095625Q12.4781,12.592328625,12.4167,12.633367625Q12.3553,12.674406625,12.287,12.702675625Q12.2188,12.730943625,12.1463,12.745354625000001Q12.0739,12.759765625,12,12.759765625L2,12.759765625Q1.9261314999999999,12.759765625,1.853682,12.745354625000001Q1.781233,12.730943625,1.712987,12.702675625Q1.644742,12.674406625,1.583322,12.633367625Q1.521903,12.592328625,1.46967,12.540095625Q1.417437,12.487862625,1.376398,12.426443625Q1.335359,12.365023625,1.30709,12.296778625Q1.278822,12.228532625,1.264411,12.156083625Q1.25,12.083634125,1.25,12.009765625Q1.25,11.935897125,1.264411,11.863447625Q1.278822,11.790998625,1.30709,11.722752625Q1.335359,11.654507625,1.376398,11.593087625Q1.417437,11.531668625,1.46967,11.479435625Q1.521903,11.427202625,1.583322,11.386163625Q1.644742,11.345124625,1.712987,11.316855625Q1.781233,11.288587625,1.853682,11.274176624999999Q1.9261314999999999,11.259765625,2,11.259765625Z" fill-rule="evenodd" fill="#3862BE" fill-opacity="1" style="mix-blend-mode:passthrough"/></g></g></g></g></svg>