<svg xmlns="http://www.w3.org/2000/svg" xmlns:xlink="http://www.w3.org/1999/xlink" fill="none" version="1.1" width="24" height="24" viewBox="0 0 24 24"><defs><clipPath id="master_svg0_72_02268"><rect x="0" y="0" width="24" height="24" rx="0"/></clipPath></defs><g clip-path="url(#master_svg0_72_02268)"><g><g><path d="M13.25,3Q13.25,2.9261315,13.264410999999999,2.853682Q13.278822,2.781233,13.30709,2.712987Q13.335359,2.644742,13.376398,2.583322Q13.417437,2.521903,13.46967,2.46967Q13.521903,2.417437,13.583322,2.376398Q13.644742,2.335359,13.712987,2.30709Q13.781233,2.278822,13.853682,2.264411Q13.9261315,2.25,14,2.25Q14.0738685,2.25,14.146318,2.264411Q14.218767,2.278822,14.287013,2.30709Q14.355258,2.335359,14.416678,2.376398Q14.478097,2.417437,14.53033,2.46967Q14.582563,2.521903,14.623602,2.583322Q14.664641,2.644742,14.69291,2.712987Q14.721178,2.781233,14.735589000000001,2.853682Q14.75,2.9261315,14.75,3L14.75,7Q14.75,7.10355,14.823223,7.17678Q14.896447,7.25,15,7.25L19,7.25Q19.07387,7.25,19.14632,7.26441Q19.21877,7.27882,19.287010000000002,7.30709Q19.35526,7.33536,19.41668,7.3764Q19.4781,7.41744,19.53033,7.46967Q19.58256,7.5219,19.6236,7.58332Q19.66464,7.64474,19.69291,7.71299Q19.72118,7.78123,19.735590000000002,7.85368Q19.75,7.92613,19.75,8Q19.75,8.07387,19.735590000000002,8.14632Q19.72118,8.21877,19.69291,8.28701Q19.66464,8.355260000000001,19.6236,8.41668Q19.58256,8.478100000000001,19.53033,8.53033Q19.4781,8.58256,19.41668,8.6236Q19.35526,8.66464,19.287010000000002,8.692910000000001Q19.21877,8.72118,19.14632,8.73559Q19.07387,8.75,19,8.75L15,8.75Q14.275126,8.75,13.762563,8.23744Q13.25,7.72487,13.25,7L13.25,3Z" fill-rule="evenodd" fill="#231F2E" fill-opacity="1"/></g><g><path d="M18.944499999999998,20.9445Q19.75,20.1391,19.75,19L19.75,8Q19.75,7.85082,19.6929,7.71299Q19.6358,7.57516,19.5303,7.46967L14.53033,2.46967Q14.42484,2.364181,14.28701,2.30709Q14.14919,2.25,14,2.25L7,2.25Q5.860913,2.25,5.0554564,3.0554564Q4.25,3.860913,4.25,5L4.25,19Q4.25,20.1391,5.0554563,20.9445Q5.860912,21.75,7,21.75L17,21.75Q18.1391,21.75,18.944499999999998,20.9445ZM18.25,8.31066L18.25,19Q18.25,19.5178,17.8839,19.8839Q17.5178,20.25,17,20.25L7,20.25Q6.4822299999999995,20.25,6.1161200000000004,19.8839Q5.75,19.5178,5.75,19L5.75,5Q5.75,4.4822299999999995,6.1161200000000004,4.1161200000000004Q6.4822299999999995,3.75,7,3.75L13.68934,3.75L18.25,8.31066Z" fill-rule="evenodd" fill="#231F2E" fill-opacity="1"/></g><g><path d="M9.03318,11.604605Q9.13778,11.5,9.28571,11.5Q9.33496,11.5,9.38326,11.490393Q9.43156,11.480785000000001,9.47706,11.46194Q9.52255,11.443094,9.5635,11.415735Q9.60445,11.388375,9.63927,11.353553Q9.67409,11.318731,9.70145,11.277785Q9.72881,11.236839,9.74765,11.191342Q9.7665,11.145845,9.77611,11.0975451Q9.78571,11.0492457,9.78571,11Q9.78571,10.9507543,9.77611,10.9024549Q9.7665,10.854155,9.74765,10.808658Q9.72881,10.763161,9.70145,10.722215Q9.67409,10.681269,9.63927,10.646447Q9.60445,10.611625,9.5635,10.584265Q9.52255,10.556906,9.47706,10.53806Q9.43156,10.519214999999999,9.38326,10.509607Q9.33496,10.5,9.28571,10.5Q8.723567,10.5,8.326069,10.897498Q7.9285714,11.294996,7.9285714,11.857143L7.9285715,13.36432L7.646447,13.64645Q7.611625,13.68127,7.584265,13.72221Q7.556906,13.76316,7.53806,13.80866Q7.519215,13.85415,7.509607,13.90245Q7.5,13.95075,7.5,14Q7.5,14.04925,7.509607,14.09754Q7.519215,14.14584,7.53806,14.19134Q7.556906,14.23684,7.584265,14.27778Q7.611625,14.31873,7.646446,14.35355L7.9285715,14.63568L7.9285715,16.14286Q7.9285715,16.705,8.326069,17.1025Q8.723567,17.5,9.28571,17.5Q9.33496,17.5,9.38326,17.490389999999998Q9.43156,17.48078,9.47706,17.46194Q9.52255,17.443089999999998,9.5635,17.41573Q9.60445,17.388370000000002,9.63927,17.35355Q9.67409,17.318730000000002,9.70145,17.27778Q9.72881,17.23684,9.74765,17.19134Q9.7665,17.14584,9.77611,17.09755Q9.78571,17.04925,9.78571,17Q9.78571,16.95075,9.77611,16.90245Q9.7665,16.85415,9.74765,16.80866Q9.72881,16.76316,9.70145,16.72221Q9.67409,16.681269999999998,9.63927,16.64645Q9.60445,16.611620000000002,9.5635,16.58426Q9.52255,16.556910000000002,9.47706,16.53806Q9.43156,16.51921,9.38326,16.509610000000002Q9.33496,16.5,9.28571,16.5Q9.13778,16.5,9.03318,16.395400000000002Q8.928571,16.29079,8.928571,16.14286L8.928571999999999,14.42857Q8.928571999999999,14.32912,8.890511,14.23723Q8.852451,14.145340000000001,8.782125,14.07502L8.707107,14L8.782125,13.92498Q8.852451,13.854659999999999,8.890511,13.76277Q8.928571999999999,13.67088,8.928571,13.57143L8.928571,11.857143Q8.928571,11.70921,9.03318,11.604605Z" fill-rule="evenodd" fill="#000000" fill-opacity="1" style="mix-blend-mode:passthrough"/></g><g><path d="M13.25,10.5Q13.812147,10.5,14.209645,10.897498Q14.60714,11.294996,14.60714,11.857143L14.60714,13.36432L14.88927,13.64645Q14.92409,13.68127,14.95145,13.72221Q14.97881,13.76316,14.99765,13.80866Q15.0165,13.85416,15.02611,13.90245Q15.03571,13.95075,15.03571,14Q15.03571,14.04925,15.02611,14.09754Q15.0165,14.14584,14.99765,14.19134Q14.97881,14.23684,14.95145,14.27778Q14.92409,14.31873,14.88927,14.35355L14.60714,14.63568L14.60714,16.14286Q14.60714,16.705,14.209645,17.1025Q13.812147,17.5,13.25,17.5Q13.2007543,17.5,13.1524549,17.490389999999998Q13.104155,17.48078,13.058658,17.46194Q13.013161,17.443089999999998,12.972215,17.41573Q12.931269,17.388370000000002,12.896447,17.35355Q12.861625,17.318730000000002,12.834265,17.27778Q12.806906,17.23684,12.78806,17.19134Q12.769214999999999,17.14584,12.759607,17.09755Q12.75,17.04925,12.75,17Q12.75,16.95075,12.759607,16.90245Q12.769214999999999,16.85415,12.78806,16.80866Q12.806906,16.76316,12.834265,16.72221Q12.861625,16.681269999999998,12.896447,16.64645Q12.931269,16.611620000000002,12.972215,16.58426Q13.013161,16.556910000000002,13.058658,16.53806Q13.104155,16.51921,13.1524549,16.509610000000002Q13.2007543,16.5,13.25,16.5Q13.397934,16.5,13.502538,16.395400000000002Q13.607143,16.29079,13.607143,16.14286L13.607143,14.42857Q13.607143,14.32912,13.645203,14.23723Q13.683263,14.14535,13.753589,14.07502L13.828608,14L13.753589999999999,13.92498Q13.683263,13.854659999999999,13.645203,13.76277Q13.607143,13.67088,13.607143,13.57143L13.607143,11.857143Q13.607143,11.709209,13.502538,11.604605Q13.397934,11.5,13.25,11.5Q13.2007543,11.5,13.1524549,11.490393Q13.104155,11.480785000000001,13.058658,11.46194Q13.013161,11.443094,12.972215,11.415735Q12.931269,11.388375,12.896447,11.353553Q12.861625,11.318731,12.834265,11.277785Q12.806906,11.236839,12.78806,11.191342Q12.769214999999999,11.145845,12.759607,11.0975451Q12.75,11.0492457,12.75,11Q12.75,10.9507543,12.759607,10.9024549Q12.769214999999999,10.854155,12.78806,10.808658Q12.806906,10.763161,12.834265,10.722215Q12.861625,10.681269,12.896447,10.646447Q12.931269,10.611625,12.972215,10.584265Q13.013161,10.556906,13.058658,10.53806Q13.104155,10.519214999999999,13.1524549,10.509607Q13.2007543,10.5,13.25,10.5Z" fill-rule="evenodd" fill="#000000" fill-opacity="1" style="mix-blend-mode:passthrough"/></g><g><g><g><ellipse cx="18.75" cy="18.75" rx="4.75" ry="4.75" fill="#FFFFFF" fill-opacity="1"/></g></g><g><path d="M18.0127,19.80859Q17.96582,19.8418,17.8457,19.89941Q17.72559,19.95703,17.51465,20.00195Q17.30371,20.04688,16.98535,20.04688Q16.55762,20.04688,16.248047,19.90527Q15.938477,19.76367,15.772461,19.44629Q15.606445,19.12891,15.606445,18.60547Q15.606445,17.9082,15.963867,17.53027Q16.32129,17.15234,16.95996,17.15234Q17.26465,17.15234,17.44629,17.21094Q17.62793,17.26953,17.72168,17.34766Q17.81543,17.42578,17.85254,17.48438Q17.86621,17.50586,17.87207,17.52246Q17.87793,17.53906,17.87988,17.57422Q17.88574,17.62109,17.88281,17.71094Q17.87988,17.80078,17.86816,17.86914Q17.86035,17.91211,17.84277,17.92578Q17.83496,17.93359,17.81543,17.93945Q17.7959,17.94531,17.75684,17.94531Q17.69434,17.94531,17.61133,17.94043Q17.52832,17.93555,17.48926,17.92969Q17.44238,17.92188,17.42188,17.90723Q17.40137,17.89258,17.37793,17.86133Q17.35449,17.83008,17.31348,17.78809Q17.27246,17.74609,17.18945,17.71289Q17.10645,17.67969,16.95996,17.67969Q16.6377,17.67969,16.4541,17.91309Q16.27051,18.14648,16.27051,18.58398Q16.27051,19.04297,16.46094,19.28125Q16.65137,19.51953,17.00879,19.51953Q17.18848,19.51953,17.27344,19.49316Q17.3584,19.4668,17.38184,19.45312L17.38184,18.8457Q17.38184,18.78906,17.40137,18.75977Q17.48926,18.63086,17.64746,18.48828Q17.67676,18.46484,17.69824,18.46484Q17.72168,18.46484,17.74707,18.48828Q17.83301,18.5625,17.8916,18.62988Q17.9502,18.69727,17.99316,18.75977Q18.0127,18.79102,18.0127,18.8457L18.0127,19.80859ZM19.47168,20.04883Q19.1416,20.04883,18.89746,19.94238Q18.65332,19.83594,18.51855,19.61133Q18.38379,19.38672,18.38379,19.03125Q18.38379,18.49805,18.65723,18.22461Q18.93066,17.95117,19.38379,17.95117Q19.67871,17.95117,19.88281,18.05664Q20.08691,18.16211,20.19336,18.34766Q20.2998,18.5332,20.2998,18.77148Q20.2998,19.00391,20.18066,19.0957Q20.06152,19.1875,19.83301,19.1875L18.99512,19.1875Q19.01074,19.38867,19.14258,19.49414Q19.27441,19.59961,19.50098,19.59961Q19.68066,19.59961,19.78906,19.5459Q19.89746,19.49219,19.94043,19.46094Q19.97754,19.43359,20.02441,19.43555Q20.06152,19.43555,20.13086,19.4502Q20.2002,19.46484,20.26855,19.50391Q20.31738,19.5293,20.31738,19.57422Q20.31738,19.59961,20.30762,19.64648Q20.30176,19.67383,20.28809,19.72559Q20.27441,19.77734,20.25293,19.82227Q20.24121,19.84375,20.21582,19.86328Q20.17676,19.89062,20.08984,19.93555Q20.00293,19.98047,19.85254,20.01465Q19.70215,20.04883,19.47168,20.04883ZM18.99121,18.78711L19.62793,18.78711Q19.72754,18.78711,19.72754,18.69531Q19.72754,18.55664,19.64062,18.46191Q19.55371,18.36719,19.37988,18.36719Q19.19043,18.36719,19.10156,18.48828Q19.0127,18.60938,18.99121,18.78711ZM21.50098,20.04883Q20.84863,20.04883,20.84863,19.37109L20.84863,18.45508L20.62793,18.45508Q20.56934,18.45508,20.54688,18.43066Q20.52441,18.40625,20.52441,18.34766L20.52441,18.10742Q20.52441,18.04883,20.54688,18.02441Q20.56934,18,20.62793,18L20.84863,18L20.84863,17.68555Q20.84863,17.63867,20.86816,17.61328Q20.9502,17.50586,21.1084,17.38086Q21.13574,17.36133,21.15723,17.36133Q21.18066,17.36133,21.2041,17.38086Q21.28809,17.44531,21.3457,17.50195Q21.40332,17.55859,21.44434,17.61328Q21.46387,17.63867,21.46387,17.68555L21.46387,18L21.80957,18Q21.86816,18,21.89062,18.02441Q21.91309,18.04883,21.91309,18.10742L21.91309,18.34766Q21.91309,18.40625,21.89062,18.43066Q21.86816,18.45508,21.80957,18.45508L21.46387,18.45508L21.46387,19.26367Q21.46387,19.57617,21.69043,19.57617Q21.72559,19.57617,21.75488,19.56934Q21.78418,19.5625,21.80566,19.55469Q21.84668,19.53906,21.86328,19.54297Q21.87988,19.54688,21.89355,19.58594L22.00684,19.88867Q22.02441,19.9375,21.9834,19.95898Q21.9541,19.97266,21.8418,20.01074Q21.72949,20.04883,21.50098,20.04883Z" fill="#22C55E" fill-opacity="1"/></g></g></g><g><ellipse cx="10.5" cy="15.5" rx="0.5" ry="0.5" fill="#2882FF" fill-opacity="1"/></g><g><ellipse cx="12" cy="15.5" rx="0.5" ry="0.5" fill="#2882FF" fill-opacity="1"/></g></g></svg>