<svg xmlns="http://www.w3.org/2000/svg" xmlns:xlink="http://www.w3.org/1999/xlink" fill="none" version="1.1" width="24" height="24" viewBox="0 0 24 24"><defs><clipPath id="master_svg0_72_01902"><rect x="0" y="0" width="24" height="24" rx="0"/></clipPath></defs><g clip-path="url(#master_svg0_72_01902)"><g><g><path d="M6,4.75L8,4.75Q8.07387,4.75,8.14632,4.735589Q8.21877,4.721178,8.28701,4.69291Q8.355260000000001,4.664641,8.41668,4.623602Q8.478100000000001,4.582563,8.53033,4.53033Q8.58256,4.478097,8.6236,4.416678Q8.66464,4.355258,8.692910000000001,4.287013Q8.72118,4.218767,8.73559,4.146318Q8.75,4.0738685,8.75,4Q8.75,3.9261315,8.73559,3.853682Q8.72118,3.781233,8.692910000000001,3.712987Q8.66464,3.644742,8.6236,3.583322Q8.58256,3.521903,8.53033,3.46967Q8.478100000000001,3.417437,8.41668,3.376398Q8.355260000000001,3.335359,8.28701,3.30709Q8.21877,3.278822,8.14632,3.264411Q8.07387,3.25,8,3.25L6,3.25Q4.860913,3.25,4.0554564,4.0554564Q3.25,4.860913,3.25,6L3.25,8Q3.25,8.07387,3.264411,8.14632Q3.278822,8.21877,3.30709,8.28701Q3.335359,8.355260000000001,3.376398,8.41668Q3.417437,8.478100000000001,3.46967,8.53033Q3.521903,8.58256,3.583322,8.6236Q3.644742,8.66464,3.712987,8.692910000000001Q3.781233,8.72118,3.853682,8.73559Q3.9261315,8.75,4,8.75Q4.0738685,8.75,4.146318,8.73559Q4.218767,8.72118,4.287013,8.692910000000001Q4.355258,8.66464,4.416678,8.6236Q4.478097,8.58256,4.53033,8.53033Q4.582563,8.478100000000001,4.623602,8.41668Q4.664641,8.355260000000001,4.69291,8.28701Q4.721178,8.21877,4.735589,8.14632Q4.75,8.07387,4.75,8L4.75,6Q4.75,5.4822299999999995,5.1161200000000004,5.1161200000000004Q5.4822299999999995,4.75,6,4.75Z" fill-rule="evenodd" fill="#231F2E" fill-opacity="1" style="mix-blend-mode:passthrough"/></g><g><path d="M3.25,16Q3.25,15.9261315,3.264411,15.853682Q3.278822,15.781233,3.30709,15.712987Q3.335359,15.644742,3.376398,15.583322Q3.417437,15.521903,3.46967,15.46967Q3.521903,15.417437,3.583322,15.376398Q3.644742,15.335359,3.712987,15.30709Q3.781233,15.278822,3.853682,15.264410999999999Q3.9261315,15.25,4,15.25Q4.0738685,15.25,4.146318,15.264410999999999Q4.218767,15.278822,4.287013,15.30709Q4.355258,15.335359,4.416678,15.376398Q4.478097,15.417437,4.53033,15.46967Q4.582563,15.521903,4.623602,15.583322Q4.664641,15.644742,4.69291,15.712987Q4.721178,15.781233,4.735589,15.853682Q4.75,15.9261315,4.75,16L4.75,18Q4.75,18.51777,5.1161200000000004,18.88388Q5.4822299999999995,19.25,6,19.25L8,19.25Q8.07387,19.25,8.14632,19.264409999999998Q8.21877,19.27882,8.28701,19.30709Q8.355260000000001,19.33536,8.41668,19.3764Q8.478100000000001,19.41744,8.53033,19.46967Q8.58256,19.5219,8.6236,19.58332Q8.66464,19.64474,8.692910000000001,19.71299Q8.72118,19.78123,8.73559,19.85368Q8.75,19.92613,8.75,20Q8.75,20.07387,8.73559,20.14632Q8.72118,20.21877,8.692910000000001,20.287010000000002Q8.66464,20.35526,8.6236,20.41668Q8.58256,20.4781,8.53033,20.53033Q8.478100000000001,20.58256,8.41668,20.6236Q8.355260000000001,20.66464,8.28701,20.69291Q8.21877,20.72118,8.14632,20.735590000000002Q8.07387,20.75,8,20.75L6,20.75Q4.860913,20.75,4.0554565,19.94454Q3.25,19.13909,3.25,18L3.25,16Z" fill-rule="evenodd" fill="#231F2E" fill-opacity="1" style="mix-blend-mode:passthrough"/></g><g><path d="M16,3.25L18,3.25Q19.13909,3.25,19.94454,4.0554565Q20.75,4.860913,20.75,6L20.75,8Q20.75,8.07387,20.735590000000002,8.14632Q20.72118,8.21877,20.69291,8.28701Q20.66464,8.355260000000001,20.6236,8.41668Q20.58256,8.478100000000001,20.53033,8.53033Q20.4781,8.58256,20.41668,8.6236Q20.35526,8.66464,20.287010000000002,8.692910000000001Q20.21877,8.72118,20.14632,8.73559Q20.07387,8.75,20,8.75Q19.92613,8.75,19.85368,8.73559Q19.78123,8.72118,19.71299,8.692910000000001Q19.64474,8.66464,19.58332,8.6236Q19.5219,8.58256,19.46967,8.53033Q19.41744,8.478100000000001,19.3764,8.41668Q19.33536,8.355260000000001,19.30709,8.28701Q19.27882,8.21877,19.264409999999998,8.14632Q19.25,8.07387,19.25,8L19.25,6Q19.25,5.4822299999999995,18.88388,5.1161200000000004Q18.51777,4.75,18,4.75L16,4.75Q15.9261315,4.75,15.853682,4.735589Q15.781233,4.721178,15.712987,4.69291Q15.644742,4.664641,15.583322,4.623602Q15.521903,4.582563,15.46967,4.53033Q15.417437,4.478097,15.376398,4.416678Q15.335359,4.355258,15.30709,4.287013Q15.278822,4.218767,15.264410999999999,4.146318Q15.25,4.0738685,15.25,4Q15.25,3.9261315,15.264410999999999,3.853682Q15.278822,3.781233,15.30709,3.712987Q15.335359,3.644742,15.376398,3.583322Q15.417437,3.521903,15.46967,3.46967Q15.521903,3.417437,15.583322,3.376398Q15.644742,3.335359,15.712987,3.30709Q15.781233,3.278822,15.853682,3.264411Q15.9261315,3.25,16,3.25Z" fill-rule="evenodd" fill="#231F2E" fill-opacity="1" style="mix-blend-mode:passthrough"/></g><g><path d="M19.25,16Q19.25,15.9261315,19.264409999999998,15.853682Q19.27882,15.781233,19.30709,15.712987Q19.33536,15.644742,19.3764,15.583322Q19.41744,15.521903,19.46967,15.46967Q19.5219,15.417437,19.58332,15.376398Q19.64474,15.335359,19.71299,15.30709Q19.78123,15.278822,19.85368,15.264410999999999Q19.92613,15.25,20,15.25Q20.07387,15.25,20.14632,15.264410999999999Q20.21877,15.278822,20.287010000000002,15.30709Q20.35526,15.335359,20.41668,15.376398Q20.4781,15.417437,20.53033,15.46967Q20.58256,15.521903,20.6236,15.583322Q20.66464,15.644742,20.69291,15.712987Q20.72118,15.781233,20.735590000000002,15.853682Q20.75,15.9261315,20.75,16L20.75,18Q20.75,19.13909,19.94454,19.94454Q19.13909,20.75,18,20.75L16,20.75Q15.9261315,20.75,15.853682,20.735590000000002Q15.781233,20.72118,15.712987,20.69291Q15.644742,20.66464,15.583322,20.6236Q15.521903,20.58256,15.46967,20.53033Q15.417437,20.4781,15.376398,20.41668Q15.335359,20.35526,15.30709,20.287010000000002Q15.278822,20.21877,15.264410999999999,20.14632Q15.25,20.07387,15.25,20Q15.25,19.92613,15.264410999999999,19.85368Q15.278822,19.78123,15.30709,19.71299Q15.335359,19.64474,15.376398,19.58332Q15.417437,19.5219,15.46967,19.46967Q15.521903,19.41744,15.583322,19.3764Q15.644742,19.33536,15.712987,19.30709Q15.781233,19.27882,15.853682,19.264409999999998Q15.9261315,19.25,16,19.25L18,19.25Q18.51777,19.25,18.88388,18.88388Q19.25,18.51777,19.25,18L19.25,16Z" fill-rule="evenodd" fill="#231F2E" fill-opacity="1" style="mix-blend-mode:passthrough"/></g><g><path d="M8,11.25L16,11.25Q16.07387,11.25,16.14632,11.264410999999999Q16.21877,11.278822,16.287010000000002,11.30709Q16.35526,11.335359,16.41668,11.376398Q16.478099999999998,11.417437,16.53033,11.46967Q16.58256,11.521903,16.6236,11.583322Q16.66464,11.644742,16.692909999999998,11.712987Q16.72118,11.781233,16.735590000000002,11.853682Q16.75,11.9261315,16.75,12Q16.75,12.0738685,16.735590000000002,12.146318Q16.72118,12.218767,16.692909999999998,12.287013Q16.66464,12.355258,16.6236,12.416678Q16.58256,12.478097,16.53033,12.53033Q16.478099999999998,12.582563,16.41668,12.623602Q16.35526,12.664641,16.287010000000002,12.69291Q16.21877,12.721178,16.14632,12.735589000000001Q16.07387,12.75,16,12.75L8,12.75Q7.9261315,12.75,7.853682,12.735589000000001Q7.781233,12.721178,7.712987,12.69291Q7.644742,12.664641,7.583322,12.623602Q7.521903,12.582563,7.46967,12.53033Q7.417437,12.478097,7.376398,12.416678Q7.335359,12.355258,7.30709,12.287013Q7.278822,12.218767,7.264411,12.146318Q7.25,12.0738685,7.25,12Q7.25,11.9261315,7.264411,11.853682Q7.278822,11.781233,7.30709,11.712987Q7.335359,11.644742,7.376398,11.583322Q7.417437,11.521903,7.46967,11.46967Q7.521903,11.417437,7.583322,11.376398Q7.644742,11.335359,7.712987,11.30709Q7.781233,11.278822,7.853682,11.264410999999999Q7.9261315,11.25,8,11.25Z" fill-rule="evenodd" fill="#2882FF" fill-opacity="1" style="mix-blend-mode:passthrough"/></g><g><path d="M8,8.25L14,8.25Q14.07387,8.25,14.14632,8.264410999999999Q14.21877,8.278822,14.28701,8.30709Q14.355260000000001,8.335359,14.41668,8.376398Q14.478100000000001,8.417437,14.53033,8.46967Q14.58256,8.521903,14.6236,8.583322Q14.66464,8.644742,14.692910000000001,8.712987Q14.72118,8.781233,14.73559,8.853682Q14.75,8.9261315,14.75,9Q14.75,9.0738685,14.73559,9.146318Q14.72118,9.218767,14.692910000000001,9.287013Q14.66464,9.355258,14.6236,9.416678Q14.58256,9.478097,14.53033,9.53033Q14.478100000000001,9.582563,14.41668,9.623602Q14.355260000000001,9.664641,14.28701,9.69291Q14.21877,9.721178,14.14632,9.735589000000001Q14.07387,9.75,14,9.75L8,9.75Q7.9261315,9.75,7.853682,9.735589000000001Q7.781233,9.721178,7.712987,9.69291Q7.644742,9.664641,7.583322,9.623602Q7.521903,9.582563,7.46967,9.53033Q7.417437,9.478097,7.376398,9.416678Q7.335359,9.355258,7.30709,9.287013Q7.278822,9.218767,7.264411,9.146318Q7.25,9.0738685,7.25,9Q7.25,8.9261315,7.264411,8.853682Q7.278822,8.781233,7.30709,8.712987Q7.335359,8.644742,7.376398,8.583322Q7.417437,8.521903,7.46967,8.46967Q7.521903,8.417437,7.583322,8.376398Q7.644742,8.335359,7.712987,8.30709Q7.781233,8.278822,7.853682,8.264410999999999Q7.9261315,8.25,8,8.25Z" fill-rule="evenodd" fill="#2882FF" fill-opacity="1" style="mix-blend-mode:passthrough"/></g><g><path d="M8,14.25L12,14.25Q12.07387,14.25,12.14632,14.264410999999999Q12.21877,14.278822,12.28701,14.30709Q12.355260000000001,14.335359,12.41668,14.376398Q12.478100000000001,14.417437,12.53033,14.46967Q12.58256,14.521903,12.6236,14.583322Q12.66464,14.644742,12.692910000000001,14.712987Q12.72118,14.781233,12.73559,14.853682Q12.75,14.9261315,12.75,15Q12.75,15.0738685,12.73559,15.146318Q12.72118,15.218767,12.692910000000001,15.287013Q12.66464,15.355258,12.6236,15.416678Q12.58256,15.478097,12.53033,15.53033Q12.478100000000001,15.582563,12.41668,15.623602Q12.355260000000001,15.664641,12.28701,15.69291Q12.21877,15.721178,12.14632,15.735589000000001Q12.07387,15.75,12,15.75L8,15.75Q7.9261315,15.75,7.853682,15.735589000000001Q7.781233,15.721178,7.712987,15.69291Q7.644742,15.664641,7.583322,15.623602Q7.521903,15.582563,7.46967,15.53033Q7.417437,15.478097,7.376398,15.416678Q7.335359,15.355258,7.30709,15.287013Q7.278822,15.218767,7.264411,15.146318Q7.25,15.0738685,7.25,15Q7.25,14.9261315,7.264411,14.853682Q7.278822,14.781233,7.30709,14.712987Q7.335359,14.644742,7.376398,14.583322Q7.417437,14.521903,7.46967,14.46967Q7.521903,14.417437,7.583322,14.376398Q7.644742,14.335359,7.712987,14.30709Q7.781233,14.278822,7.853682,14.264410999999999Q7.9261315,14.25,8,14.25Z" fill-rule="evenodd" fill="#2882FF" fill-opacity="1" style="mix-blend-mode:passthrough"/></g></g></g></svg>