<svg xmlns="http://www.w3.org/2000/svg" xmlns:xlink="http://www.w3.org/1999/xlink" fill="none" version="1.1" width="24" height="24" viewBox="0 0 24 24"><defs><clipPath id="master_svg0_62_07822"><rect x="0" y="0" width="24" height="24" rx="0"/></clipPath></defs><g clip-path="url(#master_svg0_62_07822)"><g><path d="M20.591,19.591Q21.25,18.932000000000002,21.25,18L21.25,6Q21.25,5.06802,20.591,4.4090098Q19.932,3.75,19,3.75L4,3.75Q3.0680199999999997,3.75,2.40901,4.4090098Q1.75,5.068019,1.75,6L1.75,18Q1.75,18.932000000000002,2.40901,19.591Q3.068019,20.25,4,20.25L19,20.25Q19.932,20.25,20.591,19.591ZM19.75,6L19.75,18Q19.75,18.75,19,18.75L4,18.75Q3.25,18.75,3.25,18L3.25,6Q3.25,5.68934,3.46967,5.46967Q3.68934,5.25,4,5.25L19,5.25Q19.3107,5.25,19.5303,5.46967Q19.75,5.68934,19.75,6Z" fill-rule="evenodd" fill="#231F2E" fill-opacity="1"/></g><g><g><path d="M2.5,14.5L8.5,14.5L8.5,9.5L2.5,9.5L2.5,14.5Z" fill="#13943C" fill-opacity="0.20000000298023224"/><path d="M1.75,15.25L1.75,8.75L9.25,8.75L9.25,15.25L1.75,15.25ZM7.75,10.25L3.25,10.25L3.25,13.75L7.75,13.75L7.75,10.25Z" fill-rule="evenodd" fill="#13943C" fill-opacity="1"/></g><g><path d="M8.5,19.5L14.5,19.5L14.5,14.5L8.5,14.5L8.5,19.5Z" fill="#13943C" fill-opacity="0.20000000298023224"/><path d="M7.75,20.25L7.75,13.75L15.25,13.75L15.25,20.25L7.75,20.25ZM13.75,15.25L9.25,15.25L9.25,18.75L13.75,18.75L13.75,15.25Z" fill-rule="evenodd" fill="#13943C" fill-opacity="1"/></g><g><path d="M14.5,14.5L20.5,14.5L20.5,9.5L14.5,9.5L14.5,14.5Z" fill="#13943C" fill-opacity="0.20000000298023224"/><path d="M13.75,15.25L13.75,8.75L21.25,8.75L21.25,15.25L13.75,15.25ZM19.75,10.25L15.25,10.25L15.25,13.75L19.75,13.75L19.75,10.25Z" fill-rule="evenodd" fill="#13943C" fill-opacity="1"/></g><g><path d="M8.5,14.5L14.5,14.5L14.5,9.5L8.5,9.5L8.5,14.5Z" fill="#13943C" fill-opacity="0.20000000298023224"/><path d="M7.75,15.25L7.75,8.75L15.25,8.75L15.25,15.25L7.75,15.25ZM13.75,10.25L9.25,10.25L9.25,13.75L13.75,13.75L13.75,10.25Z" fill-rule="evenodd" fill="#13943C" fill-opacity="1"/></g><g><path d="M8.5,9.5L14.5,9.5L14.5,4.5L8.5,4.5L8.5,9.5Z" fill="#13943C" fill-opacity="0.20000000298023224"/><path d="M7.75,10.25L7.75,3.75L15.25,3.75L15.25,10.25L7.75,10.25ZM13.75,5.25L9.25,5.25L9.25,8.75L13.75,8.75L13.75,5.25Z" fill-rule="evenodd" fill="#13943C" fill-opacity="1"/></g></g><g><g><path d="M13.5282689296875,19.16758C13.4904142396875,19.05753,13.4904142396875,18.938,13.5282689296875,18.82795C14.1142219296875,17.13466,15.7094379296875,15.999188982,17.5012479296875,16.0000011445C19.2930679296875,16.000813307,20.8872479296875,17.13773,21.4716679296875,18.83155C21.5095279296875,18.9416,21.5095279296875,19.06113,21.4716679296875,19.17118C20.8859779296875,20.864919999999998,19.2905379296875,22.00081,17.4983879296875,22C15.7062379296875,21.99919,14.1118269296875,20.86185,13.5276688296875,19.16758L13.5282689296875,19.16758Z" fill-rule="evenodd" fill="#FFFFFF" fill-opacity="1" style="mix-blend-mode:passthrough"/><path d="M12.5826529296875,18.502670000000002Q12.6418769296875,18.33152,12.7106869296875,18.16758Q13.2746779296875,16.823839,14.4826699296875,15.9639955Q15.8380479296875,14.99925,17.501707929687498,15.000002Q19.1653679296875,15.000755,20.5198679296875,15.9667319Q21.8743679296875,16.93271,22.4169879296875,18.50539Q22.587597929687497,19.00137,22.4172879296875,19.49647Q21.8729579296875,21.0706,20.5174279296875,22.03568Q19.1619079296875,23.00075,17.4979379296875,23Q15.8339579296875,22.99925,14.4793089296875,22.03294Q13.1246619296875,21.06663,12.5822829296875,19.49353Q12.5735039296875,19.46807,12.5661089296875,19.44217Q12.4210579296875,18.97242,12.5826529296875,18.502670000000002ZM17.4983879296875,22C16.0874479296875,21.99936,14.799077929687499,21.29428,14.0297519296875,20.16758C14.007286929687499,20.13468,13.9852639296875,20.10142,13.9636939296875,20.0678C13.7857219296875,19.79047,13.6385529296875,19.48913,13.5277325296875,19.16776L13.5276688296875,19.16758L13.5282689296875,19.16758L13.5282053296875,19.16739C13.4904142496875,19.0574,13.4904354496875,18.93794,13.5282689296875,18.82795C14.1142219296875,17.13466,15.7094379296875,15.999188982,17.5012479296875,16C19.2930679296875,16.000813307,20.8872479296875,17.13773,21.4716679296875,18.83155C21.5095279296875,18.9416,21.5095279296875,19.06113,21.4716679296875,19.17118C20.8859779296875,20.864919999999998,19.2905379296875,22.00081,17.4983879296875,22Z" fill-rule="evenodd" fill="#FFFFFF" fill-opacity="1"/></g><g><path d="M18.400641537322997,18.99956579510498Q18.400641537322997,19.08821479510498,18.383341537323,19.17515779510498Q18.366051537323,19.26210779510498,18.332121537322998,19.34400779510498Q18.298201537323,19.42590779510498,18.248951537323,19.49961779510498Q18.199701537322998,19.57332779510498,18.137011537322998,19.63600779510498Q18.074331537322998,19.69869779510498,18.000621537323,19.74794779510498Q17.926911537322997,19.79719779510498,17.845011537322996,19.83111779510498Q17.763111537323,19.86504779510498,17.676161537322997,19.88233779510498Q17.589218537323,19.89963779510498,17.500569537323,19.89963779510498Q17.411920537323,19.89963779510498,17.324974537322998,19.88233779510498Q17.238029537322998,19.86504779510498,17.156128537323,19.83111779510498Q17.074227537322997,19.79719779510498,17.000518537322996,19.74794779510498Q16.926809537323,19.69869779510498,16.864125537322998,19.63600779510498Q16.801441537322997,19.57332779510498,16.752190537323,19.49961779510498Q16.702939537322997,19.42590779510498,16.669015137322997,19.34400779510498Q16.635090637323,19.26210779510498,16.617796137322998,19.17515779510498Q16.600501537322998,19.08821479510498,16.600501537322998,18.99956579510498Q16.600501537322998,18.91091679510498,16.617796137322998,18.82397079510498Q16.635090637323,18.73702579510498,16.669015137322997,18.65512479510498Q16.702939537322997,18.57322379510498,16.752190537323,18.49951479510498Q16.801441537322997,18.42580579510498,16.864125537322998,18.36312179510498Q16.926809537323,18.30043779510498,17.000518537322996,18.25118679510498Q17.074227537322997,18.20193579510498,17.156128537323,18.16801139510498Q17.238029537322998,18.134086895104982,17.324974537322998,18.11679239510498Q17.411920537323,18.09949779510498,17.500569537323,18.09949779510498Q17.589218537323,18.09949779510498,17.676161537322997,18.11679239510498Q17.763111537323,18.134086895104982,17.845011537322996,18.16801139510498Q17.926911537322997,18.20193579510498,18.000621537323,18.25118679510498Q18.074331537322998,18.30043779510498,18.137011537322998,18.36312179510498Q18.199701537322998,18.42580579510498,18.248951537323,18.49951479510498Q18.298201537323,18.57322379510498,18.332121537322998,18.65512479510498Q18.366051537323,18.73702579510498,18.383341537323,18.82397079510498Q18.400641537322997,18.91091679510498,18.400641537322997,18.99956579510498Z" fill="#13943C" fill-opacity="1" style="mix-blend-mode:passthrough"/></g><g><path d="M13.5282689296875,19.16758C13.4904142396875,19.05753,13.4904142396875,18.938,13.5282689296875,18.82795C14.1142219296875,17.13466,15.7094379296875,15.999188982,17.5012479296875,16.0000011445C19.2930679296875,16.000813307,20.8872479296875,17.13773,21.4716679296875,18.83155C21.5095279296875,18.9416,21.5095279296875,19.06113,21.4716679296875,19.17118C20.8859779296875,20.864919999999998,19.2905379296875,22.00081,17.4983879296875,22C15.7062379296875,21.99919,14.1118269296875,20.86185,13.5276688296875,19.16758L13.5282689296875,19.16758ZM19.3007079296875,18.99957C19.3007079296875,19.99375,18.494757929687502,20.7997,17.5005679296875,20.7997C16.5063779296875,20.7997,15.7004379296875,19.99375,15.7004379296875,18.99957C15.7004379296875,18.00538,16.5063779296875,17.19943,17.5005679296875,17.19943C18.494757929687502,17.19943,19.3007079296875,18.00538,19.3007079296875,18.99957Z" fill-rule="evenodd" fill="#13943C" fill-opacity="1" style="mix-blend-mode:passthrough"/></g></g></g></svg>