<svg xmlns="http://www.w3.org/2000/svg" xmlns:xlink="http://www.w3.org/1999/xlink" fill="none" version="1.1" width="24" height="24" viewBox="0 0 24 24"><defs><clipPath id="master_svg0_72_02132"><rect x="0" y="0" width="24" height="24" rx="0"/></clipPath></defs><g clip-path="url(#master_svg0_72_02132)"><g><g><path d="M21.249997966308594,8Q21.249997966308594,7.9261315,21.264407966308593,7.853682Q21.278817966308594,7.781233,21.307087966308593,7.712987Q21.335357966308592,7.644742,21.376397966308595,7.583322Q21.417437966308594,7.521903,21.469667966308595,7.46967Q21.521907966308593,7.417437,21.583327966308595,7.376398Q21.644737966308593,7.335359,21.712987966308592,7.30709Q21.781237966308595,7.278822,21.853677966308595,7.264411Q21.926127966308595,7.25,21.999997966308594,7.25Q22.073867966308594,7.25,22.146317966308594,7.264411Q22.218767966308594,7.278822,22.287017966308593,7.30709Q22.355257966308592,7.335359,22.416677966308594,7.376398Q22.478097966308592,7.417437,22.530327966308594,7.46967Q22.582567966308595,7.521903,22.623597966308594,7.583322Q22.664637966308593,7.644742,22.692907966308596,7.712987Q22.721177966308595,7.781233,22.735587966308593,7.853682Q22.749997966308594,7.9261315,22.749997966308594,8L22.749997966308594,16Q22.749997966308594,16.07387,22.735587966308593,16.14632Q22.721177966308595,16.21877,22.692907966308596,16.287010000000002Q22.664637966308593,16.35526,22.623597966308594,16.41668Q22.582567966308595,16.478099999999998,22.530327966308594,16.53033Q22.478097966308592,16.58256,22.416677966308594,16.6236Q22.355257966308592,16.66464,22.287017966308593,16.692909999999998Q22.218767966308594,16.72118,22.146317966308594,16.735590000000002Q22.073867966308594,16.75,21.999997966308594,16.75Q21.941657966308593,16.75,21.884007966308594,16.74098Q21.826357966308592,16.731949999999998,21.770807966308595,16.71412Q21.715247966308596,16.696289999999998,21.663117966308594,16.67008Q21.610987966308592,16.64388,21.563537966308594,16.609920000000002Q21.516087966308593,16.575969999999998,21.474467966308595,16.53508Q21.432837966308593,16.4942,21.398027966308593,16.44736Q21.363227966308592,16.40053,21.336087966308593,16.34888Q21.308947966308594,16.29723,21.290117966308593,16.24201L20.022727966308594,12.524329999999999L20.022727966308594,16Q20.022727966308594,16.07387,20.008316966308595,16.14632Q19.993905966308592,16.21877,19.965637966308595,16.287010000000002Q19.937368966308593,16.35526,19.896329966308592,16.41668Q19.855290966308594,16.478099999999998,19.803057966308593,16.53033Q19.750824966308592,16.58256,19.689405966308595,16.6236Q19.627985966308593,16.66464,19.559740966308595,16.692909999999998Q19.491494966308593,16.72118,19.419045966308595,16.735590000000002Q19.346596466308593,16.75,19.272727966308594,16.75Q19.198859466308594,16.75,19.126409966308593,16.735590000000002Q19.053960966308594,16.72118,18.985714966308592,16.692909999999998Q18.917469966308595,16.66464,18.856049966308593,16.6236Q18.794630966308596,16.58256,18.742397966308594,16.53033Q18.690164966308593,16.478099999999998,18.649125966308596,16.41668Q18.608086966308594,16.35526,18.579817966308593,16.287010000000002Q18.551549966308595,16.21877,18.537138966308593,16.14632Q18.522727966308594,16.07387,18.522727966308594,16L18.522727966308594,8Q18.522727966308594,7.9416526,18.531751966308594,7.884007Q18.540775966308594,7.826362,18.558605966308594,7.770805Q18.576436966308595,7.715249,18.602644966308596,7.663119Q18.628852966308592,7.610989,18.662807966308595,7.5635390000000005Q18.696762966308594,7.51609,18.737648966308594,7.474462Q18.778533966308594,7.432835,18.825364966308594,7.398032Q18.872195966308595,7.363228,18.923845966308594,7.336086Q18.975495966308593,7.308945,19.030722966308595,7.290117Q19.100639966308595,7.266282,19.173863866308594,7.256545Q19.247087766308592,7.246807,19.320804366308593,7.251543Q19.394520966308594,7.256278,19.465896966308595,7.275303Q19.537273966308593,7.294329,19.603566966308595,7.326914Q19.669859966308593,7.359498,19.728522966308592,7.40439Q19.787184966308594,7.449282,19.835962966308593,7.504756Q19.884739966308594,7.56023,19.921756966308592,7.624153Q19.958774966308592,7.688077,19.982610966308595,7.757995L21.249997966308594,11.475670000000001L21.249997966308594,8Z" fill-rule="evenodd" fill="#231F2E" fill-opacity="1"/></g><g><path d="M12.886668995788574,8.0812818Q12.159090995788574,8.881618,12.159090995788574,10L12.159090995788574,14Q12.159090995788574,15.11838,12.886669195788574,15.91872Q13.642378995788574,16.75,14.727270995788574,16.75Q15.812160995788574,16.75,16.567880995788574,15.91872Q17.295450995788574,15.11838,17.295450995788574,14L17.295450995788574,10Q17.295450995788574,8.881617,16.567880995788574,8.0812819Q15.812160995788574,7.25,14.727270995788574,7.25Q13.642379995788573,7.25,12.886668995788574,8.0812818ZM13.659090995788574,14L13.659090995788574,10Q13.659090995788574,9.46153,13.996580995788575,9.09029Q14.305930995788575,8.75,14.727270995788574,8.75Q15.148610995788575,8.75,15.457970995788575,9.09029Q15.795450995788574,9.46153,15.795450995788574,10L15.795450995788574,14Q15.795450995788574,14.53847,15.457970995788575,14.90971Q15.148610995788575,15.25,14.727270995788574,15.25Q14.305930995788575,15.25,13.996580995788575,14.90971Q13.659090995788574,14.53847,13.659090995788574,14Z" fill-rule="evenodd" fill="#231F2E" fill-opacity="1"/></g><g><path d="M2.75,14.5L2.75,14Q2.75,13.92613,2.735589,13.85368Q2.721178,13.78123,2.69291,13.71299Q2.664641,13.644739999999999,2.623602,13.58332Q2.582563,13.521899999999999,2.53033,13.46967Q2.478097,13.41744,2.416678,13.3764Q2.355258,13.33536,2.287013,13.307089999999999Q2.218767,13.27882,2.146318,13.26441Q2.0738685,13.25,2,13.25Q1.9261314999999999,13.25,1.853682,13.26441Q1.781233,13.27882,1.712987,13.307089999999999Q1.644742,13.33536,1.583322,13.3764Q1.521903,13.41744,1.46967,13.46967Q1.417437,13.521899999999999,1.376398,13.58332Q1.335359,13.644739999999999,1.30709,13.71299Q1.278822,13.78123,1.264411,13.85368Q1.25,13.92613,1.25,14L1.25,14.5Q1.25,15.41128,1.844445,16.065170000000002Q2.467022,16.75,3.36364,16.75Q4.26025,16.75,4.88283,16.06516Q5.47727,15.41128,5.47727,14.5L5.47727,8Q5.47727,7.9261315,5.46286,7.853682Q5.448449999999999,7.781233,5.42018,7.712987Q5.39191,7.644742,5.3508700000000005,7.583322Q5.3098399999999994,7.521903,5.2576,7.46967Q5.20537,7.417437,5.14395,7.376398Q5.08253,7.335359,5.01429,7.30709Q4.94604,7.278822,4.87359,7.264411Q4.80114,7.25,4.72727,7.25L2,7.25Q1.9261314999999999,7.25,1.853682,7.264411Q1.781233,7.278822,1.712987,7.30709Q1.644742,7.335359,1.583322,7.376398Q1.521903,7.417437,1.46967,7.46967Q1.417437,7.521903,1.376398,7.583322Q1.335359,7.644742,1.30709,7.712987Q1.278822,7.781233,1.264411,7.853682Q1.25,7.9261315,1.25,8Q1.25,8.0738685,1.264411,8.146318Q1.278822,8.218767,1.30709,8.287013Q1.335359,8.355258,1.376398,8.416678Q1.417437,8.478097,1.46967,8.53033Q1.521903,8.582563,1.583322,8.623602Q1.644742,8.664641,1.712987,8.69291Q1.781233,8.721178,1.853682,8.735589000000001Q1.9261314999999999,8.75,2,8.75L3.97727,8.75L3.97727,14.5Q3.97727,14.83137,3.77292,15.05616Q3.5967000000000002,15.25,3.36364,15.25Q3.13058,15.25,2.954355,15.05616Q2.75,14.83136,2.75,14.5Z" fill-rule="evenodd" fill="#231F2E" fill-opacity="1"/></g><g><path d="M9.360595497894288,8.797398Q9.431815497894288,8.875741,9.431815497894288,9Q9.431815497894288,9.07387,9.446225497894288,9.14632Q9.460635497894287,9.21877,9.488905497894287,9.28701Q9.517175497894288,9.35526,9.558215497894288,9.41668Q9.599255497894287,9.4781,9.651485497894287,9.53033Q9.703725497894286,9.58256,9.765145497894288,9.6236Q9.826555497894287,9.66464,9.894805497894287,9.69291Q9.963055497894286,9.72118,10.035495497894287,9.73559Q10.107945497894287,9.75,10.181815497894288,9.75Q10.255685497894287,9.75,10.328135497894287,9.73559Q10.400585497894287,9.72118,10.468835497894286,9.69291Q10.537075497894287,9.66464,10.598495497894287,9.6236Q10.659915497894287,9.58256,10.712145497894287,9.53033Q10.764385497894287,9.4781,10.805415497894288,9.41668Q10.846455497894286,9.35526,10.874725497894287,9.28701Q10.902995497894286,9.21877,10.917405497894286,9.14632Q10.931815497894288,9.07387,10.931815497894288,9Q10.931815497894288,8.295831,10.470505497894287,7.788388Q9.981065497894287,7.25,9.272725497894287,7.25L8.363636497894287,7.25Q7.655301497894287,7.25,7.1658574978942875,7.788388Q6.704545497894287,8.295831,6.704545497894287,9L6.704545497894287,11Q6.704545497894287,11.70417,7.1658574978942875,12.21161Q7.655301497894287,12.75,8.363636497894287,12.75L9.272725497894287,12.75Q9.317505497894286,12.75,9.360595497894288,12.7974Q9.431815497894288,12.87574,9.431815497894288,13L9.431815497894288,15Q9.431815497894288,15.12426,9.360595497894288,15.2026Q9.317505497894286,15.25,9.272725497894287,15.25L8.363636497894287,15.25Q8.318855497894287,15.25,8.275767497894288,15.2026Q8.204545497894287,15.12426,8.204545497894287,15Q8.204545497894287,14.92613,8.190134497894288,14.85368Q8.175723497894287,14.78123,8.147455497894287,14.71299Q8.119186497894287,14.644739999999999,8.078147497894287,14.58332Q8.037108497894287,14.521899999999999,7.984875497894287,14.46967Q7.932642497894287,14.41744,7.871223497894287,14.3764Q7.809803497894287,14.33536,7.741558497894287,14.307089999999999Q7.673312497894287,14.27882,7.600863497894287,14.26441Q7.528413997894287,14.25,7.454545497894287,14.25Q7.380676997894287,14.25,7.308227497894287,14.26441Q7.235778497894287,14.27882,7.167532497894287,14.307089999999999Q7.099287497894287,14.33536,7.037867497894287,14.3764Q6.976448497894287,14.41744,6.924215497894287,14.46967Q6.871982497894287,14.521899999999999,6.830943497894287,14.58332Q6.7899044978942875,14.644739999999999,6.761635497894287,14.71299Q6.733367497894287,14.78123,6.718956497894287,14.85368Q6.704545497894287,14.92613,6.704545497894287,15Q6.704545497894287,15.704170000000001,7.1658574978942875,16.21161Q7.655301497894287,16.75,8.363636497894287,16.75L9.272725497894287,16.75Q9.981065497894287,16.75,10.470505497894287,16.21161Q10.931815497894288,15.704170000000001,10.931815497894288,15L10.931815497894288,13Q10.931815497894288,12.295829999999999,10.470505497894287,11.78839Q9.981065497894287,11.25,9.272725497894287,11.25L8.363636497894287,11.25Q8.318856497894288,11.25,8.275767497894288,11.2026Q8.204545497894287,11.12426,8.204545497894287,11L8.204545497894287,9Q8.204545497894287,8.875741,8.275767497894288,8.797398Q8.318855497894287,8.75,8.363636497894287,8.75L9.272725497894287,8.75Q9.317505497894286,8.75,9.360595497894288,8.797398Z" fill-rule="evenodd" fill="#231F2E" fill-opacity="1"/></g></g><g><g><ellipse cx="18.75" cy="18.75" rx="4.75" ry="4.75" fill="#FFFFFF" fill-opacity="1"/></g><g><g><path d="M16.881282,20.86872Q17.137563,21.125,17.5,21.125Q17.536929999999998,21.125,17.57316,21.11779Q17.60938,21.110590000000002,17.64351,21.09645Q17.67763,21.08232,17.70834,21.061799999999998Q17.73905,21.04128,17.76516,21.01516Q17.79128,20.98905,17.8118,20.95834Q17.83232,20.92763,17.84645,20.89351Q17.86059,20.85938,17.86779,20.82316Q17.875,20.786929999999998,17.875,20.75Q17.875,20.713070000000002,17.86779,20.67684Q17.86059,20.64062,17.84645,20.60649Q17.83232,20.57237,17.8118,20.54166Q17.79128,20.51095,17.76516,20.48483Q17.73905,20.45872,17.70834,20.438200000000002Q17.67763,20.41768,17.64351,20.40354Q17.60938,20.389409999999998,17.57316,20.38221Q17.536929999999998,20.375,17.5,20.375Q17.448223,20.375,17.411612,20.33839Q17.375,20.30178,17.375,20.25L17.375,19.5Q17.375,19.0758,17.165572,18.76166Q17.161659,18.75579,17.157693,18.75Q17.161659,18.74421,17.165572,18.73834Q17.375,18.4242,17.375,18L17.375,17.25Q17.375,17.198223,17.411612,17.161612Q17.448223,17.125,17.5,17.125Q17.536929999999998,17.125,17.57316,17.117794Q17.60938,17.110589,17.64351,17.096455Q17.67763,17.082321,17.70834,17.061801Q17.73905,17.041281,17.76516,17.015165Q17.79128,16.989049,17.8118,16.958339Q17.83232,16.927629,17.84645,16.893506Q17.86059,16.859383,17.86779,16.8231589Q17.875,16.7869343,17.875,16.75Q17.875,16.7130657,17.86779,16.6768411Q17.86059,16.640617,17.84645,16.606494Q17.83232,16.572371,17.8118,16.541661Q17.79128,16.510951,17.76516,16.484835Q17.73905,16.458719,17.70834,16.438199Q17.67763,16.417679,17.64351,16.403545Q17.60938,16.389411,17.57316,16.382206Q17.536929999999998,16.375,17.5,16.375Q17.137563,16.375,16.881282,16.631282Q16.625,16.887563,16.625,17.25L16.625,18Q16.625,18.197119999999998,16.5415345,18.32232Q16.5163896,18.36004,16.49372655,18.37441L16.49268687,18.37507Q16.456221,18.37578,16.4205757,18.38351Q16.38493,18.39123,16.351442,18.40568Q16.317953,18.42013,16.287876,18.44076Q16.257799,18.46139,16.232262,18.48743Q16.206724,18.51347,16.186684,18.54395Q16.166643,18.57442,16.15285,18.60818Q16.139056,18.64195,16.132028,18.67774Q16.125,18.71353,16.125,18.75Q16.125,18.78647,16.132028,18.82226Q16.139057,18.85805,16.15285,18.89182Q16.166643,18.92558,16.186684,18.95605Q16.206724,18.986530000000002,16.232262,19.01257Q16.257799,19.03861,16.287876,19.05924Q16.317953,19.07987,16.351442,19.09432Q16.38493,19.10877,16.4205756,19.11649Q16.456221,19.12422,16.49268684,19.12493L16.49372654,19.12559Q16.5163896,19.139969999999998,16.5415345,19.17768Q16.625,19.302880000000002,16.625,19.5L16.625,20.25Q16.625,20.61244,16.881282,20.86872Z" fill-rule="evenodd" fill="#2882FF" fill-opacity="1"/></g><g><path d="M20,16.375Q20.362437,16.375,20.618719,16.631282Q20.875,16.887563,20.875,17.25L20.875,18Q20.875,18.197119999999998,20.958465,18.32232Q20.98361,18.360030000000002,21.00627,18.37441L21.00731,18.37507Q21.043779999999998,18.37578,21.07942,18.38351Q21.11507,18.39123,21.14856,18.40568Q21.18205,18.42013,21.21212,18.44076Q21.2422,18.46139,21.26774,18.48743Q21.29328,18.51347,21.31332,18.54395Q21.33336,18.57442,21.34715,18.60818Q21.36094,18.64195,21.36797,18.67774Q21.375,18.71353,21.375,18.75Q21.375,18.78647,21.36797,18.82226Q21.36094,18.85805,21.34715,18.89182Q21.33336,18.92558,21.31332,18.95605Q21.29328,18.986530000000002,21.26774,19.01257Q21.2422,19.03861,21.21212,19.05924Q21.18205,19.07987,21.14856,19.09432Q21.11507,19.10877,21.07942,19.11649Q21.043779999999998,19.12422,21.00731,19.12493L21.00627,19.12559Q20.98361,19.139969999999998,20.958465,19.17768Q20.875,19.302880000000002,20.875,19.5L20.875,20.25Q20.875,20.61244,20.618719,20.86872Q20.362437,21.125,20,21.125Q19.9630657,21.125,19.9268411,21.11779Q19.890617,21.110590000000002,19.856494,21.09645Q19.822371,21.08232,19.791661,21.061799999999998Q19.760951,21.04128,19.734835,21.01516Q19.708719,20.98905,19.688199,20.95834Q19.667679,20.92763,19.653545,20.89351Q19.639411,20.85938,19.632206,20.82316Q19.625,20.786929999999998,19.625,20.75Q19.625,20.713070000000002,19.632206,20.67684Q19.639411,20.64062,19.653545,20.60649Q19.667679,20.57237,19.688199,20.54166Q19.708719,20.51095,19.734835,20.48483Q19.760951,20.45872,19.791661,20.438200000000002Q19.822371,20.41768,19.856494,20.40354Q19.890617,20.389409999999998,19.9268411,20.38221Q19.9630657,20.375,20,20.375Q20.0517769,20.375,20.0883884,20.33839Q20.125,20.30178,20.125,20.25L20.125,19.5Q20.125,19.0758,20.334428,18.76166Q20.338342,18.75579,20.342307,18.75Q20.338341,18.74421,20.334428,18.73834Q20.125,18.4242,20.125,18L20.125,17.25Q20.125,17.198223,20.0883884,17.161612Q20.0517768,17.125,20,17.125Q19.9630657,17.125,19.9268411,17.117794Q19.890617,17.110589,19.856494,17.096455Q19.822371,17.082321,19.791661,17.061801Q19.760951,17.041281,19.734835,17.015165Q19.708719,16.989049,19.688199,16.958339Q19.667679,16.927629,19.653545,16.893506Q19.639411,16.859383,19.632206,16.8231589Q19.625,16.7869343,19.625,16.75Q19.625,16.7130657,19.632206,16.6768411Q19.639411,16.640617,19.653545,16.606494Q19.667679,16.572371,19.688199,16.541661Q19.708719,16.510951,19.734835,16.484835Q19.760951,16.458719,19.791661,16.438199Q19.822371,16.417679,19.856494,16.403545Q19.890617,16.389411,19.9268411,16.382206Q19.9630657,16.375,20,16.375Z" fill-rule="evenodd" fill="#2882FF" fill-opacity="1"/></g></g></g></g></svg>