<svg xmlns="http://www.w3.org/2000/svg" xmlns:xlink="http://www.w3.org/1999/xlink" fill="none" version="1.1" width="24" height="24" viewBox="0 0 24 24"><defs><clipPath id="master_svg0_63_03609"><rect x="0" y="0" width="24" height="24" rx="0"/></clipPath></defs><g clip-path="url(#master_svg0_63_03609)"><g><path d="M13.25,3Q13.25,2.9261315,13.264410999999999,2.853682Q13.278822,2.781233,13.30709,2.712987Q13.335359,2.644742,13.376398,2.583322Q13.417437,2.521903,13.46967,2.46967Q13.521903,2.417437,13.583322,2.376398Q13.644742,2.335359,13.712987,2.30709Q13.781233,2.278822,13.853682,2.264411Q13.9261315,2.25,14,2.25Q14.0738685,2.25,14.146318,2.264411Q14.218767,2.278822,14.287013,2.30709Q14.355258,2.335359,14.416678,2.376398Q14.478097,2.417437,14.53033,2.46967Q14.582563,2.521903,14.623602,2.583322Q14.664641,2.644742,14.69291,2.712987Q14.721178,2.781233,14.735589000000001,2.853682Q14.75,2.9261315,14.75,3L14.75,7Q14.75,7.10355,14.823223,7.17678Q14.896447,7.25,15,7.25L19,7.25Q19.07387,7.25,19.14632,7.26441Q19.21877,7.27882,19.287010000000002,7.30709Q19.35526,7.33536,19.41668,7.3764Q19.4781,7.41744,19.53033,7.46967Q19.58256,7.5219,19.6236,7.58332Q19.66464,7.64474,19.69291,7.71299Q19.72118,7.78123,19.735590000000002,7.85368Q19.75,7.92613,19.75,8Q19.75,8.07387,19.735590000000002,8.14632Q19.72118,8.21877,19.69291,8.28701Q19.66464,8.355260000000001,19.6236,8.41668Q19.58256,8.478100000000001,19.53033,8.53033Q19.4781,8.58256,19.41668,8.6236Q19.35526,8.66464,19.287010000000002,8.692910000000001Q19.21877,8.72118,19.14632,8.73559Q19.07387,8.75,19,8.75L15,8.75Q14.275126,8.75,13.762563,8.23744Q13.25,7.72487,13.25,7L13.25,3Z" fill-rule="evenodd" fill="#231F2E" fill-opacity="1"/></g><g><path d="M18.25,8.31066L18.25,12.5Q18.25,12.57387,18.264400000000002,12.64632Q18.2788,12.71877,18.3071,12.78701Q18.3354,12.85526,18.3764,12.91668Q18.4174,12.9781,18.4697,13.0303Q18.521900000000002,13.0826,18.5833,13.1236Q18.6447,13.1646,18.713,13.1929Q18.7812,13.2212,18.8537,13.2356Q18.926099999999998,13.25,19,13.25Q19.073900000000002,13.25,19.1463,13.2356Q19.2188,13.2212,19.287,13.1929Q19.3553,13.1646,19.4167,13.1236Q19.478099999999998,13.0826,19.5303,13.0303Q19.5826,12.9781,19.6236,12.91668Q19.6646,12.85526,19.6929,12.78701Q19.7212,12.71877,19.735599999999998,12.64632Q19.75,12.57387,19.75,12.5L19.75,12.4988L19.75,8Q19.75,7.85082,19.6929,7.71299Q19.6358,7.57516,19.5303,7.46967L14.53033,2.46967Q14.42484,2.364181,14.28701,2.30709Q14.14919,2.25,14,2.25L7,2.25Q5.860913,2.25,5.0554564,3.0554564Q4.25,3.860913,4.25,5L4.25,19Q4.25,20.1391,5.0554563,20.9445Q5.860912,21.75,7,21.75L12,21.75Q12.07387,21.75,12.14632,21.7356Q12.21877,21.7212,12.28701,21.6929Q12.355260000000001,21.6646,12.41668,21.6236Q12.478100000000001,21.5826,12.53033,21.5303Q12.58256,21.4781,12.6236,21.4167Q12.66464,21.3553,12.692910000000001,21.287Q12.72118,21.2188,12.73559,21.1463Q12.75,21.0739,12.75,21Q12.75,20.9261,12.73559,20.8537Q12.72118,20.7812,12.692910000000001,20.713Q12.66464,20.6447,12.6236,20.5833Q12.58256,20.5219,12.53033,20.4697Q12.478100000000001,20.4174,12.41668,20.3764Q12.355260000000001,20.3354,12.28701,20.3071Q12.21877,20.2788,12.14632,20.2644Q12.07387,20.25,12,20.25L7,20.25Q6.4822299999999995,20.25,6.1161200000000004,19.8839Q5.75,19.5178,5.75,19L5.75,5Q5.75,4.4822299999999995,6.1161200000000004,4.1161200000000004Q6.4822299999999995,3.75,7,3.75L13.68934,3.75L18.25,8.31066Z" fill-rule="evenodd" fill="#231F2E" fill-opacity="1"/></g><g><path d="M16.4350388671875,14.145050000000001C15.7428488671875,13.426269999999999,13.8520288671875,13.71918,13.3995788671875,13.772359999999999C12.733988867187499,13.13336,12.281128867187501,12.361,12.1215788671875,12.09468C12.3613088671875,11.375910000000001,12.5208488671875,10.65673,12.5474388671875,9.88477C12.5474388671875,9.219182,12.281128867187501,8.5,11.5357588671875,8.5C11.2694388671875,8.5,11.0297188671875,8.659954,10.8967588671875,8.872682C10.5772588671875,9.431909,10.7102188671875,10.55036,11.2162588671875,11.695C10.9233488671875,12.52055,10.657028867187499,13.31909,9.911668867187501,14.730450000000001C9.1393088671875,15.049959999999999,7.5152138671875,15.795729999999999,7.3822593671875,16.59427C7.3290773671875,16.834,7.4088501671875004,17.073729999999998,7.5953958671875,17.25986C7.7815318671875,17.42023,8.0208498671875,17.5,8.260576867187499,17.5C9.2456688671875,17.5,10.2041688671875,16.14182,10.8701688671875,14.99718C11.429398867187501,14.81064,12.3081288671875,14.544319999999999,13.1868488671875,14.38477C14.2251288671875,15.29009,15.1304388671875,15.42304,15.6098988671875,15.42304C16.2488988671875,15.42304,16.488618867187498,15.15673,16.5683988671875,14.917C16.701348867187498,14.65109,16.6215788671875,14.35818,16.4350388671875,14.145050000000001ZM15.7694388671875,14.5975C15.7428488671875,14.78405,15.5031288671875,14.97018,15.0772588671875,14.86382C14.5712188671875,14.73086,14.1187588671875,14.49114,13.7190788671875,14.17164C14.0651688671875,14.11845,14.837528867187501,14.03868,15.3967588671875,14.145050000000001C15.6098988671875,14.198229999999999,15.8226288671875,14.33118,15.7694388671875,14.5975ZM11.3226188671875,9.112409C11.3758088671875,9.032636,11.4555788671875,8.979454,11.5357588671875,8.979454C11.7754888671875,8.979454,11.828668867187499,9.272364,11.828668867187499,9.51209C11.8020788671875,10.07132,11.6957188671875,10.63055,11.509168867187501,11.16318C11.1098988671875,10.0975,11.1896688671875,9.352136,11.3226188671875,9.112409ZM11.2694388671875,14.277999999999999C11.482578867187499,13.85214,11.7754888671875,13.106359999999999,11.8818488671875,12.78686C12.1215788671875,13.18614,12.5208488671875,13.66559,12.733988867187499,13.878730000000001C12.733988867187499,13.90532,11.908438867187499,14.06527,11.2694388671875,14.277999999999999ZM9.6985288671875,15.34327C9.0861188671875,16.35496,8.4471188671875,16.99437,8.1010318671875,16.99437C8.0478498671875,16.99437,7.9946678671875,16.967779999999998,7.9410768671875,16.94118C7.8613048671875,16.887999999999998,7.8347138671875,16.80822,7.8613048671875,16.70146C7.9410768671875,16.32836,8.6332588671875,15.822320000000001,9.6985288671875,15.34327Z" fill="#E53935" fill-opacity="1" style="mix-blend-mode:passthrough"/></g><g><g><path d="M16,18.25L22,18.25Q22.07387,18.25,22.14632,18.264411Q22.21877,18.278822,22.287010000000002,18.30709Q22.35526,18.335359,22.41668,18.376398000000002Q22.4781,18.417437,22.53033,18.46967Q22.58256,18.521903000000002,22.6236,18.583322Q22.66464,18.644742,22.69291,18.712987Q22.72118,18.781233,22.735590000000002,18.853682Q22.75,18.9261315,22.75,19Q22.75,19.0738685,22.735590000000002,19.146318Q22.72118,19.218767,22.69291,19.287013Q22.66464,19.355258,22.6236,19.416678Q22.58256,19.478096999999998,22.53033,19.53033Q22.4781,19.582563,22.41668,19.623601999999998Q22.35526,19.664641,22.287010000000002,19.69291Q22.21877,19.721178,22.14632,19.735589Q22.07387,19.75,22,19.75L16,19.75Q15.9261315,19.75,15.853682,19.735589Q15.781233,19.721178,15.712987,19.69291Q15.644742,19.664641,15.583322,19.623601999999998Q15.521903,19.582563,15.46967,19.53033Q15.417437,19.478096999999998,15.376398,19.416678Q15.335359,19.355258,15.30709,19.287013Q15.278822,19.218767,15.264410999999999,19.146318Q15.25,19.0738685,15.25,19Q15.25,18.9261315,15.264410999999999,18.853682Q15.278822,18.781233,15.30709,18.712987Q15.335359,18.644742,15.376398,18.583322Q15.417437,18.521903000000002,15.46967,18.46967Q15.521903,18.417437,15.583322,18.376398000000002Q15.644742,18.335359,15.712987,18.30709Q15.781233,18.278822,15.853682,18.264411Q15.9261315,18.25,16,18.25Z" fill-rule="evenodd" fill="#E53935" fill-opacity="1" style="mix-blend-mode:passthrough"/></g><g><path d="M19.530484,15.469824L22.53033,18.46967Q22.63582,18.57516,22.69291,18.71299Q22.75,18.85082,22.75,19Q22.75,19.14918,22.69291,19.28701Q22.63582,19.42484,22.53033,19.53033L19.530792,22.52987L19.53033,22.53033Q19.424841,22.63582,19.287013,22.69291Q19.149184,22.75,19,22.75Q18.9261315,22.75,18.853682,22.735590000000002Q18.781233,22.72118,18.712987,22.69291Q18.644742,22.66464,18.583322,22.6236Q18.521903000000002,22.58256,18.46967,22.53033Q18.417437,22.4781,18.376398000000002,22.41668Q18.335359,22.35526,18.30709,22.287010000000002Q18.278822,22.21877,18.264411,22.14632Q18.25,22.07387,18.25,22Q18.25,21.85082,18.30709,21.712989999999998Q18.364181,21.57516,18.46967,21.46967L18.470132,21.46921L20.93934,19L18.469824,16.530484L18.46967,16.53033Q18.364181,16.424841,18.30709,16.287013Q18.25,16.149184,18.25,16Q18.25,15.9261315,18.264411,15.853682Q18.278822,15.781233,18.30709,15.712987Q18.335359,15.644742,18.376398000000002,15.583322Q18.417437,15.521903,18.46967,15.46967Q18.521903000000002,15.417437,18.583322,15.376398Q18.644742,15.335359,18.712987,15.30709Q18.781233,15.278822,18.853682,15.264410999999999Q18.9261315,15.25,19,15.25Q19.149184,15.25,19.287013,15.30709Q19.424841,15.364181,19.53033,15.46967L19.530484,15.469824Z" fill-rule="evenodd" fill="#E53935" fill-opacity="1" style="mix-blend-mode:passthrough"/></g></g></g></svg>