<svg xmlns="http://www.w3.org/2000/svg" xmlns:xlink="http://www.w3.org/1999/xlink" fill="none" version="1.1" width="24" height="24" viewBox="0 0 24 24"><defs><clipPath id="master_svg0_62_07563"><rect x="0" y="0" width="24" height="24" rx="0"/></clipPath></defs><g clip-path="url(#master_svg0_62_07563)"><g><path d="M3.2548828125,3L1.7548828125,3L1.7548828125,10.999939999999999C1.7548828125,12.24258,2.7622418125,13.2499,4.0048828125,13.2499L8.7500028125,13.2499L8.7500028125,11.74994L4.0048828125,11.74994Q3.9310128124999997,11.74994,3.8585628124999998,11.73553Q3.7861128125,11.72112,3.7178728125,11.69285Q3.6496228125,11.66458,3.5882028125,11.62354Q3.5267828125,11.5825,3.4745528125,11.53027Q3.4223198125,11.47803,3.3812808125,11.41662Q3.3402418125,11.3552,3.3119728125,11.28695Q3.2837048125,11.21871,3.2692938125,11.14626Q3.2548828125,11.07381,3.2548828125,10.999939999999999L3.2548828125,3Z" fill-rule="evenodd" fill="#231F2E" fill-opacity="1"/></g><g><path d="M22.25,3L20.75,3L20.75,10.999939999999999Q20.75,11.07381,20.735590000000002,11.14626Q20.72118,11.21871,20.69291,11.28695Q20.66464,11.3552,20.6236,11.41662Q20.58256,11.47803,20.53033,11.53027Q20.4781,11.5825,20.41668,11.62354Q20.35526,11.66458,20.287010000000002,11.69285Q20.21877,11.72112,20.14632,11.73553Q20.07387,11.74994,20,11.74994L15.25,11.74994L15.25,13.2499L20,13.2499C21.24264,13.2499,22.25,12.24258,22.25,10.999939999999999L22.25,3Z" fill-rule="evenodd" fill="#231F2E" fill-opacity="1"/></g><g><rect x="8.75" y="3" width="6.5" height="14" rx="0" fill="#13943C" fill-opacity="0.20000000298023224"/><path d="M8,3.75L8,17Q8,17.073900000000002,8.014410999999999,17.1463Q8.028822,17.2188,8.05709,17.287Q8.085359,17.3553,8.126398,17.4167Q8.167437,17.478099999999998,8.21967,17.5303Q8.271903,17.5826,8.333322,17.6236Q8.394742,17.6646,8.462987,17.6929Q8.531233,17.7212,8.603682,17.735599999999998Q8.6761315,17.75,8.75,17.75L15.25002,17.75Q15.323889999999999,17.75,15.39634,17.735599999999998Q15.468779999999999,17.7212,15.53703,17.6929Q15.60527,17.6646,15.66669,17.6236Q15.728110000000001,17.5826,15.780339999999999,17.5303Q15.83257,17.478099999999998,15.87361,17.4167Q15.91464,17.3553,15.942910000000001,17.287Q15.97118,17.2188,15.98559,17.1463Q16,17.073900000000002,16,17L16,3L14.5,3L14.5,16.25L9.5,16.25L9.5,3L8,3L8,3.75Z" fill-rule="evenodd" fill="#13943C" fill-opacity="1"/></g><g><g><path d="M10.25,14Q10.25,13.914028,10.25843,13.82847Q10.26685,13.742912,10.28363,13.658592Q10.3004,13.574272,10.32535,13.492002Q10.35031,13.409732,10.38321,13.330304Q10.41611,13.250876,10.45664,13.175056Q10.497160000000001,13.099235,10.54493,13.027752Q10.59269,12.95627,10.64723,12.88981Q10.70177,12.82335,10.76256,12.76256Q10.82335,12.70177,10.88981,12.64723Q10.95627,12.59269,11.027752,12.54493Q11.099235,12.497160000000001,11.175056,12.45664Q11.250876,12.41611,11.330304,12.38321Q11.409732,12.35031,11.492002,12.32535Q11.574272,12.3004,11.658592,12.28363Q11.742912,12.26685,11.82847,12.25843Q11.914028,12.25,12,12.25Q12.085972,12.25,12.17153,12.25843Q12.257088,12.26685,12.341408,12.28363Q12.425728,12.3004,12.507998,12.32535Q12.590268,12.35031,12.669696,12.38321Q12.749124,12.41611,12.824944,12.45664Q12.900765,12.497160000000001,12.972248,12.54493Q13.04373,12.59269,13.11019,12.64723Q13.17665,12.70177,13.23744,12.76256Q13.29823,12.82335,13.35277,12.88981Q13.40731,12.95627,13.45507,13.027752Q13.502839999999999,13.099235,13.54336,13.175056Q13.58389,13.250876,13.61679,13.330304Q13.64969,13.409732,13.67465,13.492002Q13.6996,13.574272,13.71637,13.658592Q13.73315,13.742912,13.74157,13.82847Q13.75,13.914028,13.75,14L13.75,22Q13.75,22.08597,13.74157,22.17153Q13.73315,22.257089999999998,13.71637,22.34141Q13.6996,22.42573,13.67465,22.508Q13.64969,22.59027,13.61679,22.6697Q13.58389,22.749119999999998,13.54336,22.824939999999998Q13.502839999999999,22.90076,13.45507,22.972250000000003Q13.40731,23.04373,13.35277,23.11019Q13.29823,23.176650000000002,13.23744,23.23744Q13.17665,23.29823,13.11019,23.35277Q13.04373,23.407310000000003,12.972248,23.45507Q12.900765,23.50283,12.824944,23.54336Q12.749124,23.58389,12.669696,23.61679Q12.590268,23.64969,12.507998,23.67464Q12.425728,23.6996,12.341408,23.716369999999998Q12.257088,23.733150000000002,12.17153,23.74157Q12.085972,23.75,12,23.75Q11.914028,23.75,11.82847,23.74157Q11.742912,23.733150000000002,11.658592,23.716369999999998Q11.574272,23.6996,11.492002,23.67464Q11.409732,23.64969,11.330304,23.61679Q11.250876,23.58389,11.175056,23.54336Q11.099235,23.50283,11.027752,23.45507Q10.95627,23.407310000000003,10.88981,23.35277Q10.82335,23.29823,10.76256,23.23744Q10.70177,23.176650000000002,10.64723,23.11019Q10.59269,23.04373,10.54493,22.972250000000003Q10.497160000000001,22.90076,10.45664,22.824939999999998Q10.41611,22.749119999999998,10.38321,22.6697Q10.35031,22.59027,10.32535,22.508Q10.3004,22.42573,10.28363,22.34141Q10.26685,22.257089999999998,10.25843,22.17153Q10.25,22.08597,10.25,22L10.25,14Z" fill-rule="evenodd" fill="#FFFFFF" fill-opacity="1" style="mix-blend-mode:passthrough"/></g><g><path d="M10.76256,12.76256L7.76256,15.76256Q7.64069,15.88444,7.54493,16.02775Q7.4491700000000005,16.17106,7.38321,16.3303Q7.31725,16.489539999999998,7.2836300000000005,16.65859Q7.25,16.82764,7.25,17Q7.25,17.08597,7.25843,17.17153Q7.26685,17.257089999999998,7.2836300000000005,17.34141Q7.3004,17.42573,7.32535,17.508Q7.35031,17.59027,7.38321,17.6697Q7.41611,17.74912,7.45664,17.824939999999998Q7.49716,17.90076,7.54493,17.97225Q7.59269,18.04373,7.64723,18.11019Q7.70177,18.176650000000002,7.76256,18.23744Q7.82335,18.29823,7.88981,18.35277Q7.95627,18.40731,8.027752,18.45507Q8.099235,18.50283,8.175056,18.54336Q8.250876,18.58389,8.330304,18.61679Q8.409732,18.64969,8.492002,18.67464Q8.574272,18.6996,8.658592,18.71637Q8.742912,18.733150000000002,8.82847,18.74157Q8.914028,18.75,9,18.75Q9.17236,18.75,9.341408,18.71637Q9.510456,18.68275,9.669696,18.61679Q9.828936,18.55083,9.972248,18.45507Q10.11556,18.35931,10.23744,18.23744L12,16.47487L13.76209,18.23696L13.76256,18.23744Q13.88444,18.35931,14.027750000000001,18.45507Q14.17106,18.55083,14.330300000000001,18.61679Q14.48954,18.68275,14.65859,18.71637Q14.827639999999999,18.75,15,18.75Q15.08597,18.75,15.17153,18.74157Q15.25709,18.733150000000002,15.34141,18.71637Q15.42573,18.6996,15.508,18.67464Q15.59027,18.64969,15.66969,18.61679Q15.74912,18.58389,15.82494,18.54336Q15.90076,18.50283,15.972249999999999,18.45507Q16.04373,18.40731,16.11019,18.35277Q16.176650000000002,18.29823,16.23744,18.23744Q16.29823,18.176650000000002,16.35277,18.11019Q16.40731,18.04373,16.45507,17.97225Q16.50284,17.90076,16.54336,17.824939999999998Q16.58389,17.74912,16.61679,17.6697Q16.64969,17.59027,16.67465,17.508Q16.6996,17.42573,16.71637,17.34141Q16.733150000000002,17.257089999999998,16.74157,17.17153Q16.75,17.08597,16.75,17Q16.75,16.82764,16.71637,16.65859Q16.68275,16.489539999999998,16.61679,16.3303Q16.55083,16.17106,16.45507,16.02775Q16.35931,15.88444,16.23744,15.76256L13.23744,12.76256Q13.11556,12.64069,12.972249999999999,12.54493Q12.82894,12.44917,12.6697,12.38321Q12.51046,12.31725,12.34141,12.28363Q12.17236,12.25,12,12.25Q11.82764,12.25,11.65859,12.28363Q11.48954,12.31725,11.3303,12.38321Q11.17106,12.44917,11.027750000000001,12.54493Q10.88444,12.64069,10.76256,12.76256Z" fill-rule="evenodd" fill="#FFFFFF" fill-opacity="1" style="mix-blend-mode:passthrough"/></g></g><g><g><path d="M11.25,14Q11.25,13.9261315,11.264410999999999,13.853682Q11.278822,13.781233,11.30709,13.712987Q11.335359,13.644742,11.376398,13.583322Q11.417437,13.521903,11.46967,13.46967Q11.521903,13.417437,11.583322,13.376398Q11.644742,13.335359,11.712987,13.30709Q11.781233,13.278822,11.853682,13.264410999999999Q11.9261315,13.25,12,13.25Q12.0738685,13.25,12.146318,13.264410999999999Q12.218767,13.278822,12.287013,13.30709Q12.355258,13.335359,12.416678,13.376398Q12.478097,13.417437,12.53033,13.46967Q12.582563,13.521903,12.623602,13.583322Q12.664641,13.644742,12.69291,13.712987Q12.721178,13.781233,12.735589000000001,13.853682Q12.75,13.9261315,12.75,14L12.75,22Q12.75,22.07387,12.735589000000001,22.14632Q12.721178,22.21877,12.69291,22.287010000000002Q12.664641,22.35526,12.623602,22.41668Q12.582563,22.478099999999998,12.53033,22.53033Q12.478097,22.58256,12.416678,22.6236Q12.355258,22.66464,12.287013,22.692909999999998Q12.218767,22.72118,12.146318,22.735590000000002Q12.0738685,22.75,12,22.75Q11.9261315,22.75,11.853682,22.735590000000002Q11.781233,22.72118,11.712987,22.692909999999998Q11.644742,22.66464,11.583322,22.6236Q11.521903,22.58256,11.46967,22.53033Q11.417437,22.478099999999998,11.376398,22.41668Q11.335359,22.35526,11.30709,22.287010000000002Q11.278822,22.21877,11.264410999999999,22.14632Q11.25,22.07387,11.25,22L11.25,14Z" fill-rule="evenodd" fill="#13943C" fill-opacity="1" style="mix-blend-mode:passthrough"/></g><g><path d="M11.46967,13.46967L8.46967,16.46967Q8.364181,16.57516,8.30709,16.71299Q8.25,16.85082,8.25,17Q8.25,17.07387,8.264410999999999,17.14632Q8.278822,17.21877,8.30709,17.28701Q8.335359,17.35526,8.376398,17.41668Q8.417437,17.4781,8.46967,17.53033Q8.521903,17.58256,8.583322,17.6236Q8.644742,17.66464,8.712987,17.69291Q8.781233,17.72118,8.853682,17.735590000000002Q8.9261315,17.75,9,17.75Q9.149184,17.75,9.287013,17.69291Q9.424841,17.63582,9.53033,17.53033L9.530625,17.53004L12,15.06066L14.46914,17.5298L14.46967,17.53033Q14.57516,17.63582,14.71299,17.69291Q14.850819999999999,17.75,15,17.75Q15.07387,17.75,15.14632,17.735590000000002Q15.21877,17.72118,15.28701,17.69291Q15.355260000000001,17.66464,15.41668,17.6236Q15.478100000000001,17.58256,15.53033,17.53033Q15.58256,17.4781,15.6236,17.41668Q15.66464,17.35526,15.692910000000001,17.28701Q15.72118,17.21877,15.73559,17.14632Q15.75,17.07387,15.75,17Q15.75,16.85082,15.692910000000001,16.71299Q15.635819999999999,16.57516,15.53033,16.46967L12.53033,13.46967Q12.4781,13.417437,12.41668,13.376398Q12.35526,13.335359,12.28701,13.30709Q12.21877,13.278822,12.14632,13.264410999999999Q12.07387,13.25,12,13.25Q11.92613,13.25,11.85368,13.264410999999999Q11.78123,13.278822,11.71299,13.30709Q11.64474,13.335359,11.58332,13.376398Q11.5219,13.417437,11.46967,13.46967Z" fill-rule="evenodd" fill="#13943C" fill-opacity="1" style="mix-blend-mode:passthrough"/></g></g></g></svg>