<svg xmlns="http://www.w3.org/2000/svg" xmlns:xlink="http://www.w3.org/1999/xlink" fill="none" version="1.1" width="24" height="24" viewBox="0 0 24 24"><defs><clipPath id="master_svg0_78_01341"><rect x="0" y="0" width="24" height="24" rx="0"/></clipPath></defs><g clip-path="url(#master_svg0_78_01341)"><g><path d="M12.25,4Q12.25,3.9261315,12.264410999999999,3.853682Q12.278822,3.781233,12.30709,3.712987Q12.335359,3.644742,12.376398,3.583322Q12.417437,3.521903,12.46967,3.46967Q12.521903,3.417437,12.583322,3.376398Q12.644742,3.335359,12.712987,3.30709Q12.781233,3.278822,12.853682,3.264411Q12.9261315,3.25,13,3.25Q13.0738685,3.25,13.146318,3.264411Q13.218767,3.278822,13.287013,3.30709Q13.355258,3.335359,13.416678,3.376398Q13.478097,3.417437,13.53033,3.46967Q13.582563,3.521903,13.623602,3.583322Q13.664641,3.644742,13.69291,3.712987Q13.721178,3.781233,13.735589000000001,3.853682Q13.75,3.9261315,13.75,4L13.75,20Q13.75,20.0739,13.735589000000001,20.1463Q13.721178,20.2188,13.69291,20.287Q13.664641,20.3553,13.623602,20.4167Q13.582563,20.4781,13.53033,20.5303Q13.478097,20.5826,13.416678,20.6236Q13.355258,20.6646,13.287013,20.6929Q13.218767,20.7212,13.146318,20.7356Q13.0738685,20.75,13,20.75Q12.9261315,20.75,12.853682,20.7356Q12.781233,20.7212,12.712987,20.6929Q12.644742,20.6646,12.583322,20.6236Q12.521903,20.5826,12.46967,20.5303Q12.417437,20.4781,12.376398,20.4167Q12.335359,20.3553,12.30709,20.287Q12.278822,20.2188,12.264410999999999,20.1463Q12.25,20.0739,12.25,20L12.25,4Z" fill-rule="evenodd" fill="#231F2E" fill-opacity="1"/></g><g><path d="M16.25,4Q16.25,3.9261315,16.264411,3.853682Q16.278822,3.781233,16.30709,3.712987Q16.335359,3.644742,16.376398000000002,3.583322Q16.417437,3.521903,16.46967,3.46967Q16.521903000000002,3.417437,16.583322,3.376398Q16.644742,3.335359,16.712987,3.30709Q16.781233,3.278822,16.853682,3.264411Q16.9261315,3.25,17,3.25Q17.0738685,3.25,17.146318,3.264411Q17.218767,3.278822,17.287013,3.30709Q17.355258,3.335359,17.416678,3.376398Q17.478096999999998,3.417437,17.53033,3.46967Q17.582563,3.521903,17.623601999999998,3.583322Q17.664641,3.644742,17.69291,3.712987Q17.721178,3.781233,17.735589,3.853682Q17.75,3.9261315,17.75,4L17.75,20Q17.75,20.0739,17.735589,20.1463Q17.721178,20.2188,17.69291,20.287Q17.664641,20.3553,17.623601999999998,20.4167Q17.582563,20.4781,17.53033,20.5303Q17.478096999999998,20.5826,17.416678,20.6236Q17.355258,20.6646,17.287013,20.6929Q17.218767,20.7212,17.146318,20.7356Q17.0738685,20.75,17,20.75Q16.9261315,20.75,16.853682,20.7356Q16.781233,20.7212,16.712987,20.6929Q16.644742,20.6646,16.583322,20.6236Q16.521903000000002,20.5826,16.46967,20.5303Q16.417437,20.4781,16.376398000000002,20.4167Q16.335359,20.3553,16.30709,20.287Q16.278822,20.2188,16.264411,20.1463Q16.25,20.0739,16.25,20L16.25,4Z" fill-rule="evenodd" fill="#231F2E" fill-opacity="1"/></g><g><path d="M9.5,13.75L13,13.75Q13.07387,13.75,13.14632,13.73559Q13.21877,13.72118,13.28701,13.69291Q13.35526,13.66464,13.41668,13.6236Q13.4781,13.58256,13.53033,13.53033Q13.58256,13.4781,13.6236,13.41668Q13.66464,13.35526,13.69291,13.28701Q13.72118,13.21877,13.73559,13.14632Q13.75,13.07387,13.75,13Q13.75,12.92613,13.73559,12.85368Q13.72118,12.78123,13.69291,12.71299Q13.66464,12.64474,13.6236,12.58332Q13.58256,12.5219,13.53033,12.46967Q13.4781,12.41744,13.41668,12.3764Q13.35526,12.33536,13.28701,12.30709Q13.21877,12.27882,13.14632,12.26441Q13.07387,12.25,13,12.25L9.5,12.25Q7.9467,12.25,6.84835,11.15165Q5.75,10.0533,5.749999,8.5Q5.75,6.9467,6.84835,5.84835Q7.9467,4.75,9.5,4.75L19,4.75Q19.073900000000002,4.75,19.1463,4.735589Q19.2188,4.721178,19.287,4.69291Q19.3553,4.664641,19.4167,4.623602Q19.478099999999998,4.582563,19.5303,4.53033Q19.5826,4.478097,19.6236,4.416678Q19.6646,4.355258,19.6929,4.287013Q19.7212,4.218767,19.735599999999998,4.146318Q19.75,4.0738685,19.75,4Q19.75,3.9261315,19.735599999999998,3.853682Q19.7212,3.781233,19.6929,3.712987Q19.6646,3.644742,19.6236,3.583322Q19.5826,3.521903,19.5303,3.46967Q19.478099999999998,3.417437,19.4167,3.376398Q19.3553,3.335359,19.287,3.30709Q19.2188,3.278822,19.1463,3.264411Q19.073900000000002,3.25,19,3.25L9.5,3.25Q7.32538,3.25,5.787689,4.787689Q4.25,6.32538,4.249999,8.5Q4.25,10.67462,5.787689,12.21231Q7.32538,13.75,9.5,13.75Z" fill-rule="evenodd" fill="#231F2E" fill-opacity="1"/></g><g><g><path d="M21.652619886779785,16.348349Q20.554269886779785,15.25,19.000969886779785,15.25Q17.447668886779784,15.25,16.349319886779785,16.348349Q15.250969886779785,17.446698,15.250969886779785,19Q15.250969886779785,20.5533,16.349319886779785,21.65165Q17.447668886779784,22.75,19.000969886779785,22.75Q20.554269886779785,22.75,21.652619886779785,21.65165Q22.750969886779785,20.5533,22.750969886779785,19Q22.750969886779785,17.446698,21.652619886779785,16.348349ZM18.750969886779785,19Q18.750969886779785,18.75,19.000969886779785,18.75Q19.250969886779785,18.75,19.250969886779785,19Q19.250969886779785,19.25,19.000969886779785,19.25Q18.750969886779785,19.25,18.750969886779785,19Z" fill-rule="evenodd" fill="#FFFFFF" fill-opacity="1"/></g><g><path d="M20.750969886779785,15.5L20.750969886779785,17Q20.750969886779785,17.08597,20.742539886779785,17.17153Q20.734119886779784,17.25709,20.717339886779786,17.34141Q20.700569886779785,17.42573,20.675619886779785,17.508Q20.650659886779785,17.59027,20.617759886779787,17.6697Q20.584859886779785,17.74912,20.544329886779785,17.824939999999998Q20.503809886779784,17.90076,20.456039886779784,17.97225Q20.408279886779784,18.04373,20.353739886779785,18.11019Q20.299199886779785,18.17665,20.238409886779785,18.23744Q20.177619886779784,18.29823,20.111159886779785,18.35277Q20.044699886779785,18.40731,19.973217886779786,18.45507Q19.901734886779785,18.50284,19.825913886779784,18.54336Q19.750093886779784,18.58389,19.670665886779783,18.61679Q19.591237886779787,18.64969,19.508967886779786,18.67465Q19.426697886779785,18.6996,19.342377886779786,18.71637Q19.258057886779785,18.733150000000002,19.172499886779786,18.74157Q19.086941886779787,18.75,19.000969886779785,18.75Q18.914997886779783,18.75,18.829439886779785,18.74157Q18.743881886779786,18.733150000000002,18.659561886779784,18.71637Q18.575241886779786,18.6996,18.492971886779785,18.67465Q18.410701886779783,18.64969,18.331273886779787,18.61679Q18.251845886779787,18.58389,18.176025886779787,18.54336Q18.100204886779785,18.50284,18.028721886779785,18.45507Q17.957239886779785,18.40731,17.890779886779786,18.35277Q17.824319886779787,18.29823,17.763529886779786,18.23744Q17.702739886779785,18.17665,17.648199886779786,18.11019Q17.593659886779786,18.04373,17.545899886779786,17.97225Q17.498129886779786,17.90076,17.457609886779785,17.824939999999998Q17.417079886779785,17.74912,17.384179886779783,17.6697Q17.351279886779785,17.59027,17.326319886779785,17.508Q17.301369886779785,17.42573,17.284599886779784,17.34141Q17.267819886779787,17.25709,17.259399886779786,17.17153Q17.250969886779785,17.08597,17.250969886779785,17L17.250969886779785,15.5Q17.250969886779785,15.414028,17.259399886779786,15.32847Q17.267819886779787,15.242912,17.284599886779784,15.158592Q17.301369886779785,15.074272,17.326319886779785,14.992002Q17.351279886779785,14.909732,17.384179886779783,14.830304Q17.417079886779785,14.750876,17.457609886779785,14.675056Q17.498129886779786,14.599235,17.545899886779786,14.527752Q17.593659886779786,14.45627,17.648199886779786,14.38981Q17.702739886779785,14.32335,17.763529886779786,14.26256Q17.824319886779787,14.20177,17.890779886779786,14.14723Q17.957239886779785,14.09269,18.028721886779785,14.04493Q18.100204886779785,13.997160000000001,18.176025886779787,13.95664Q18.251845886779787,13.91611,18.331273886779787,13.88321Q18.410701886779783,13.85031,18.492971886779785,13.82535Q18.575241886779786,13.8004,18.659561886779784,13.78363Q18.743881886779786,13.76685,18.829439886779785,13.75843Q18.914997886779783,13.75,19.000969886779785,13.75Q19.086941886779787,13.75,19.172499886779786,13.75843Q19.258057886779785,13.76685,19.342377886779786,13.78363Q19.426697886779785,13.8004,19.508967886779786,13.82535Q19.591237886779787,13.85031,19.670665886779783,13.88321Q19.750093886779784,13.91611,19.825913886779784,13.95664Q19.901734886779785,13.997160000000001,19.973217886779786,14.04493Q20.044699886779785,14.09269,20.111159886779785,14.14723Q20.177619886779784,14.20177,20.238409886779785,14.26256Q20.299199886779785,14.32335,20.353739886779785,14.38981Q20.408279886779784,14.45627,20.456039886779784,14.527752Q20.503809886779784,14.599235,20.544329886779785,14.675056Q20.584859886779785,14.750876,20.617759886779787,14.830304Q20.650659886779785,14.909732,20.675619886779785,14.992002Q20.700569886779785,15.074272,20.717339886779786,15.158592Q20.734119886779784,15.242912,20.742539886779785,15.32847Q20.750969886779785,15.414028,20.750969886779785,15.5Z" fill-rule="evenodd" fill="#FFFFFF" fill-opacity="1"/></g><g><path d="M20.750969886779785,21L20.750969886779785,22.5Q20.750969886779785,22.58597,20.742539886779785,22.67153Q20.734119886779784,22.75709,20.717339886779786,22.84141Q20.700569886779785,22.92573,20.675619886779785,23.008Q20.650659886779785,23.09027,20.617759886779787,23.1697Q20.584859886779785,23.24912,20.544329886779785,23.324939999999998Q20.503809886779784,23.40076,20.456039886779784,23.47225Q20.408279886779784,23.54373,20.353739886779785,23.61019Q20.299199886779785,23.67665,20.238409886779785,23.73744Q20.177619886779784,23.79823,20.111159886779785,23.85277Q20.044699886779785,23.90731,19.973217886779786,23.95507Q19.901734886779785,24.00284,19.825913886779784,24.04336Q19.750093886779784,24.08389,19.670665886779783,24.11679Q19.591237886779787,24.14969,19.508967886779786,24.17465Q19.426697886779785,24.1996,19.342377886779786,24.21637Q19.258057886779785,24.233150000000002,19.172499886779786,24.24157Q19.086941886779787,24.25,19.000969886779785,24.25Q18.914997886779783,24.25,18.829439886779785,24.24157Q18.743881886779786,24.233150000000002,18.659561886779784,24.21637Q18.575241886779786,24.1996,18.492971886779785,24.17465Q18.410701886779783,24.14969,18.331273886779787,24.11679Q18.251845886779787,24.08389,18.176025886779787,24.04336Q18.100204886779785,24.00284,18.028721886779785,23.95507Q17.957239886779785,23.90731,17.890779886779786,23.85277Q17.824319886779787,23.79823,17.763529886779786,23.73744Q17.702739886779785,23.67665,17.648199886779786,23.61019Q17.593659886779786,23.54373,17.545899886779786,23.47225Q17.498129886779786,23.40076,17.457609886779785,23.324939999999998Q17.417079886779785,23.24912,17.384179886779783,23.1697Q17.351279886779785,23.09027,17.326319886779785,23.008Q17.301369886779785,22.92573,17.284599886779784,22.84141Q17.267819886779787,22.75709,17.259399886779786,22.67153Q17.250969886779785,22.58597,17.250969886779785,22.5L17.250969886779785,21Q17.250969886779785,20.914028,17.259399886779786,20.82847Q17.267819886779787,20.742912,17.284599886779784,20.658592Q17.301369886779785,20.574272,17.326319886779785,20.492002Q17.351279886779785,20.409731999999998,17.384179886779783,20.330304Q17.417079886779785,20.250876,17.457609886779785,20.175056Q17.498129886779786,20.099235,17.545899886779786,20.027752Q17.593659886779786,19.95627,17.648199886779786,19.88981Q17.702739886779785,19.82335,17.763529886779786,19.76256Q17.824319886779787,19.70177,17.890779886779786,19.64723Q17.957239886779785,19.59269,18.028721886779785,19.54493Q18.100204886779785,19.49716,18.176025886779787,19.45664Q18.251845886779787,19.41611,18.331273886779787,19.38321Q18.410701886779783,19.35031,18.492971886779785,19.32535Q18.575241886779786,19.3004,18.659561886779784,19.28363Q18.743881886779786,19.26685,18.829439886779785,19.25843Q18.914997886779783,19.25,19.000969886779785,19.25Q19.086941886779787,19.25,19.172499886779786,19.25843Q19.258057886779785,19.26685,19.342377886779786,19.28363Q19.426697886779785,19.3004,19.508967886779786,19.32535Q19.591237886779787,19.35031,19.670665886779783,19.38321Q19.750093886779784,19.41611,19.825913886779784,19.45664Q19.901734886779785,19.49716,19.973217886779786,19.54493Q20.044699886779785,19.59269,20.111159886779785,19.64723Q20.177619886779784,19.70177,20.238409886779785,19.76256Q20.299199886779785,19.82335,20.353739886779785,19.88981Q20.408279886779784,19.95627,20.456039886779784,20.027752Q20.503809886779784,20.099235,20.544329886779785,20.175056Q20.584859886779785,20.250876,20.617759886779787,20.330304Q20.650659886779785,20.409731999999998,20.675619886779785,20.492002Q20.700569886779785,20.574272,20.717339886779786,20.658592Q20.734119886779784,20.742912,20.742539886779785,20.82847Q20.750969886779785,20.914028,20.750969886779785,21Z" fill-rule="evenodd" fill="#FFFFFF" fill-opacity="1"/></g><g><path d="M22.906990237731932,18.76553Q23.006320237731934,18.70818,23.097320237731935,18.63836Q23.188310237731933,18.56853,23.269420237731932,18.48743Q23.350520237731935,18.40632,23.420350237731935,18.31532Q23.490170237731935,18.224324,23.547520237731934,18.12499Q23.604870237731934,18.025657,23.648760237731935,17.919688Q23.692660237731936,17.813719,23.722340237731935,17.702928Q23.752030237731933,17.592137,23.767000237731935,17.478418Q23.781970237731933,17.3647,23.781970237731933,17.25Q23.781970237731933,17.164028,23.773540237731932,17.07847Q23.765120237731935,16.992912,23.748340237731934,16.908592Q23.731570237731933,16.824272,23.706620237731933,16.742002Q23.681660237731933,16.659731999999998,23.648760237731935,16.580304Q23.615860237731933,16.500876,23.575330237731933,16.425056Q23.534810237731932,16.349235,23.487040237731932,16.277752Q23.439280237731936,16.20627,23.384740237731933,16.13981Q23.330200237731933,16.07335,23.269410237731933,16.01256Q23.208620237731935,15.95177,23.142160237731932,15.89723Q23.075700237731933,15.84269,23.004220237731936,15.79493Q22.932730237731935,15.747160000000001,22.856910237731935,15.70664Q22.781090237731934,15.66611,22.701670237731932,15.63321Q22.622240237731933,15.60031,22.539970237731932,15.57535Q22.457700237731935,15.5504,22.373380237731933,15.53363Q22.289060237731935,15.51685,22.203500237731934,15.50843Q22.117940237731933,15.5,22.031970237731933,15.5Q21.801570237731934,15.5,21.579026237731934,15.55963Q21.356479237731932,15.61927,21.156951237731935,15.73447L19.857951237731932,16.484467Q19.758619237731935,16.541818,19.667620237731935,16.611643Q19.576630237731933,16.681469,19.495520237731935,16.762575Q19.41442023773193,16.843681,19.344590237731932,16.934679Q19.274770237731932,17.025676,19.217420237731933,17.12501Q19.160070237731933,17.2243428,19.116180237731932,17.3303117Q19.072280237731935,17.436281,19.042600237731932,17.547072Q19.012910237731933,17.657863,18.99794023773193,17.771582Q18.982970237731934,17.8853,18.982970237731934,18Q18.982970237731934,18.085972,18.991400237731934,18.17153Q18.999820237731935,18.25709,19.016600237731932,18.34141Q19.033370237731933,18.42573,19.058320237731934,18.508Q19.083280237731934,18.59027,19.116180237731932,18.6697Q19.149080237731933,18.74912,19.189610237731934,18.82494Q19.230130237731935,18.90076,19.277900237731934,18.97225Q19.325660237731935,19.04373,19.380200237731934,19.11019Q19.434740237731933,19.17665,19.495530237731934,19.23744Q19.556320237731935,19.29823,19.622780237731934,19.35277Q19.689240237731934,19.40731,19.760722237731933,19.45507Q19.832205237731934,19.50284,19.908026237731935,19.54336Q19.983846237731935,19.58389,20.063274237731935,19.61679Q20.142702237731932,19.64969,20.224972237731933,19.67465Q20.307242237731934,19.6996,20.391562237731932,19.71637Q20.475882237731934,19.733150000000002,20.561440237731933,19.74157Q20.646998237731932,19.75,20.732970237731934,19.75Q20.963368237731935,19.75,21.185914237731932,19.69037Q21.408461237731935,19.63073,21.607989237731935,19.51553L22.906990237731932,18.76553L22.906990237731932,18.76553Z" fill-rule="evenodd" fill="#FFFFFF" fill-opacity="1"/></g><g><path d="M18.144480703125,21.51582Q18.243870703125,21.45849,18.334910703125,21.38867Q18.425960703125,21.31885,18.507110703125,21.23773Q18.588260703125002,21.15662,18.658120703125,21.06561Q18.727990703125002,20.974598,18.785370703125,20.875243Q18.842760703125002,20.775888,18.886680703125002,20.66989Q18.930600703125002,20.563893,18.960300703125,20.453069Q18.990010703125,20.342244,19.004990703125,20.22849Q19.019970703125,20.114736,19.019970703125,20Q19.019970703125,19.914028,19.011540703125,19.82847Q19.003120703125,19.742912,18.986340703125002,19.658592Q18.969570703125,19.574272,18.944620703125,19.492002Q18.919660703125,19.409731999999998,18.886760703125,19.330304Q18.853860703125,19.250876,18.813330703125,19.175056Q18.772810703125,19.099235,18.725040703125,19.027752Q18.677280703125,18.95627,18.622740703125,18.88981Q18.568200703125,18.82335,18.507410703125,18.76256Q18.446620703125,18.70177,18.380160703125,18.64723Q18.313700703125,18.59269,18.242220703125,18.54493Q18.170730703125,18.49716,18.094910703125,18.45664Q18.019090703125,18.41611,17.939670703125,18.38321Q17.860240703125,18.35031,17.777970703125,18.32535Q17.695700703125,18.3004,17.611380703125,18.28363Q17.527060703125,18.26685,17.441500703125,18.25843Q17.355940703125,18.25,17.269970703125,18.25Q17.039720703125,18.25,16.817308703125,18.30956Q16.594895703125,18.36911,16.395456703125,18.48418L16.395257703125,18.48429L15.095456703125,19.234175Q14.996073703124999,19.291511,14.905030703125,19.361333Q14.813980703125,19.431154,14.732830703125,19.512266Q14.651680703125,19.593377,14.581820703125,19.684389Q14.511950703125,19.775402,14.454570703125,19.874757Q14.397180703125,19.9741125,14.353260703125,20.0801097Q14.309340703125,20.186107,14.279640703125,20.296931Q14.249930703124999,20.407756,14.234950703125,20.52151Q14.219970703125,20.635264,14.219970703125,20.75Q14.219970703125,20.835972,14.228400703125,20.92153Q14.236820703125,21.00709,14.253600703125,21.09141Q14.270370703125,21.17573,14.295320703125,21.258Q14.320280703125,21.34027,14.353180703125,21.4197Q14.386080703125,21.49912,14.426610703125,21.57494Q14.467130703125001,21.65076,14.514900703125,21.72225Q14.562660703125,21.79373,14.617200703125,21.86019Q14.671740703125,21.92665,14.732530703125,21.98744Q14.793320703125,22.04823,14.859780703125,22.10277Q14.926240703125,22.15731,14.997722703125,22.20507Q15.069205703125,22.25284,15.145026703125,22.29336Q15.220846703125,22.33389,15.300274703125,22.36679Q15.379702703125,22.39969,15.461972703125,22.42465Q15.544242703125,22.4496,15.628562703125,22.46637Q15.712882703125,22.483150000000002,15.798440703125,22.49157Q15.883998703125,22.5,15.969970703125,22.5Q16.200219703125,22.5,16.422632703125,22.44044Q16.645046703125,22.38089,16.844484703125,22.26582L16.844683703125,22.26571L18.144040703125,21.51608L18.144480703125,21.51582L18.144480703125,21.51582Z" fill-rule="evenodd" fill="#FFFFFF" fill-opacity="1"/></g><g><path d="M15.095456703125,18.76582Q14.996073703124999,18.70849,14.905030703125,18.63867Q14.813980703125,18.56885,14.732830703125,18.48773Q14.651680703125,18.40662,14.581820703125,18.31561Q14.511950703125,18.224598,14.454570703125,18.125243Q14.397180703125,18.025887,14.353260703125,17.91989Q14.309340703125,17.813893,14.279640703125,17.703069Q14.249930703124999,17.592244,14.234950703125,17.47849Q14.219970703125,17.364736,14.219970703125,17.25Q14.219970703125,17.164028,14.228400703125,17.07847Q14.236820703125,16.992912,14.253600703125,16.908592Q14.270370703125,16.824272,14.295320703125,16.742002Q14.320280703125,16.659731999999998,14.353180703125,16.580304Q14.386080703125,16.500876,14.426610703125,16.425056Q14.467130703125001,16.349235,14.514900703125,16.277752Q14.562660703125,16.20627,14.617200703125,16.13981Q14.671740703125,16.07335,14.732530703125,16.01256Q14.793320703125,15.95177,14.859780703125,15.89723Q14.926240703125,15.84269,14.997722703125,15.79493Q15.069205703125,15.747160000000001,15.145026703125,15.70664Q15.220846703125,15.66611,15.300274703125,15.63321Q15.379702703125,15.60031,15.461972703125,15.57535Q15.544242703125,15.5504,15.628562703125,15.53363Q15.712882703125,15.51685,15.798440703125,15.50843Q15.883998703125,15.5,15.969970703125,15.5Q16.200219703125,15.5,16.422632703125,15.55956Q16.645046703125,15.61911,16.844484703125,15.73418L16.844683703125,15.73429L18.144240703125,16.484033L18.144480703125,16.484175Q18.243870703125,16.541511,18.334910703125,16.611333Q18.425960703125,16.681154,18.507110703125,16.762266Q18.588260703125002,16.843377,18.658120703125,16.934389Q18.727990703125002,17.025402,18.785370703125,17.124757Q18.842760703125002,17.2241124,18.886680703125002,17.3301096Q18.930600703125002,17.436107,18.960300703125,17.546931Q18.990010703125,17.657756,19.004990703125,17.77151Q19.019970703125,17.885264,19.019970703125,18Q19.019970703125,18.085972,19.011540703125,18.17153Q19.003120703125,18.25709,18.986340703125002,18.34141Q18.969570703125,18.42573,18.944620703125,18.508Q18.919660703125,18.59027,18.886760703125,18.6697Q18.853860703125,18.74912,18.813330703125,18.82494Q18.772810703125,18.90076,18.725040703125,18.97225Q18.677280703125,19.04373,18.622740703125,19.11019Q18.568200703125,19.17665,18.507410703125,19.23744Q18.446620703125,19.29823,18.380160703125,19.35277Q18.313700703125,19.40731,18.242220703125,19.45507Q18.170730703125,19.50284,18.094910703125,19.54336Q18.019090703125,19.58389,17.939670703125,19.61679Q17.860240703125,19.64969,17.777970703125,19.67465Q17.695700703125,19.6996,17.611380703125,19.71637Q17.527060703125,19.733150000000002,17.441500703125,19.74157Q17.355940703125,19.75,17.269970703125,19.75Q17.039720703125,19.75,16.817308703125,19.69044Q16.594895703125,19.63089,16.395456703125,19.51582L16.395257703125,19.51571L15.095655703125,18.76594L15.095456703125,18.76582Z" fill-rule="evenodd" fill="#FFFFFF" fill-opacity="1"/></g><g><path d="M19.858456237731932,21.51582Q19.759073237731933,21.45849,19.668030237731934,21.38867Q19.576980237731934,21.31885,19.495830237731933,21.23773Q19.414680237731933,21.15662,19.344820237731934,21.06561Q19.274950237731932,20.974598,19.217570237731934,20.875243Q19.160180237731932,20.775887,19.116260237731932,20.66989Q19.072340237731932,20.563893,19.042640237731934,20.453069Q19.012930237731933,20.342244,18.997950237731935,20.22849Q18.982970237731934,20.114736,18.982970237731934,20Q18.982970237731934,19.914028,18.991400237731934,19.82847Q18.999820237731935,19.742912,19.016600237731932,19.658592Q19.033370237731933,19.574272,19.058320237731934,19.492002Q19.083280237731934,19.409731999999998,19.116180237731932,19.330304Q19.149080237731933,19.250876,19.189610237731934,19.175056Q19.230130237731935,19.099235,19.277900237731934,19.027752Q19.325660237731935,18.95627,19.380200237731934,18.88981Q19.434740237731933,18.82335,19.495530237731934,18.76256Q19.556320237731935,18.70177,19.622780237731934,18.64723Q19.689240237731934,18.59269,19.760722237731933,18.54493Q19.832205237731934,18.49716,19.908026237731935,18.45664Q19.983846237731935,18.41611,20.063274237731935,18.38321Q20.142702237731932,18.35031,20.224972237731933,18.32535Q20.307242237731934,18.3004,20.391562237731932,18.28363Q20.475882237731934,18.26685,20.561440237731933,18.25843Q20.646998237731932,18.25,20.732970237731934,18.25Q20.963219237731934,18.25,21.185632237731934,18.30956Q21.408046237731934,18.36911,21.607484237731935,18.48418L21.607683237731933,18.48429L22.907240237731934,19.234033L22.907480237731935,19.234175Q23.006870237731935,19.291511,23.097910237731934,19.361333Q23.188960237731933,19.431154,23.270110237731934,19.512266Q23.351260237731935,19.593377,23.421120237731934,19.684389Q23.490990237731936,19.775402,23.548370237731934,19.874757Q23.605760237731936,19.9741124,23.649680237731936,20.0801096Q23.693600237731935,20.186107,23.723300237731934,20.296931Q23.753010237731935,20.407756,23.767990237731933,20.52151Q23.782970237731934,20.635264,23.782970237731934,20.75Q23.782970237731934,20.835972,23.774540237731934,20.92153Q23.766120237731933,21.00709,23.749340237731936,21.09141Q23.732570237731935,21.17573,23.707620237731934,21.258Q23.682660237731934,21.34027,23.649760237731932,21.4197Q23.616860237731935,21.49912,23.576330237731934,21.57494Q23.535810237731933,21.65076,23.488040237731934,21.72225Q23.440280237731933,21.79373,23.385740237731934,21.86019Q23.331200237731935,21.92665,23.270410237731934,21.98744Q23.209620237731933,22.04823,23.143160237731934,22.10277Q23.076700237731934,22.15731,23.005220237731933,22.20507Q22.933730237731933,22.25284,22.857910237731932,22.29336Q22.782090237731932,22.33389,22.702670237731933,22.36679Q22.623240237731935,22.39969,22.540970237731933,22.42465Q22.458700237731932,22.4496,22.374380237731934,22.46637Q22.290060237731932,22.483150000000002,22.204500237731935,22.49157Q22.118940237731934,22.5,22.032970237731934,22.5Q21.802720237731933,22.5,21.580308237731934,22.44044Q21.357895237731935,22.38089,21.158456237731933,22.26582L21.158257237731934,22.26571L19.858655237731934,21.51594L19.858456237731932,21.51582Z" fill-rule="evenodd" fill="#FFFFFF" fill-opacity="1"/></g></g><g><g><path d="M20.945509886779785,17.0554559Q20.140059886779785,16.25,19.000969886779785,16.25Q17.861882886779785,16.25,17.056426386779783,17.0554559Q16.250969886779785,17.860912,16.250969886779785,19Q16.250969886779785,20.13909,17.056426386779783,20.94454Q17.861882886779785,21.75,19.000969886779785,21.75Q20.140059886779785,21.75,20.945509886779785,20.94454Q21.750969886779785,20.13909,21.750969886779785,19Q21.750969886779785,17.860912,20.945509886779785,17.0554559ZM18.117089886779784,18.11612Q18.483199886779786,17.75,19.000969886779785,17.75Q19.518739886779784,17.75,19.884849886779786,18.11612Q20.250969886779785,18.48223,20.250969886779785,19Q20.250969886779785,19.51777,19.884849886779786,19.88388Q19.518739886779784,20.25,19.000969886779785,20.25Q18.483199886779786,20.25,18.117089886779784,19.88388Q17.750969886779785,19.51777,17.750969886779785,19Q17.750969886779785,18.48223,18.117089886779784,18.11612Z" fill-rule="evenodd" fill="#2882FF" fill-opacity="1"/></g><g><path d="M18.250969886779785,15.5Q18.250969886779785,15.4261315,18.265380886779784,15.353682Q18.279791886779787,15.281233,18.308059886779784,15.212987Q18.336328886779786,15.144742,18.377367886779787,15.083322Q18.418406886779785,15.021903,18.470639886779786,14.96967Q18.522872886779787,14.917437,18.584291886779784,14.876398Q18.645711886779786,14.835359,18.713956886779783,14.80709Q18.782202886779785,14.778822,18.854651886779784,14.764410999999999Q18.927101386779785,14.75,19.000969886779785,14.75Q19.074838386779785,14.75,19.147287886779786,14.764410999999999Q19.219736886779785,14.778822,19.287982886779787,14.80709Q19.356227886779784,14.835359,19.417647886779786,14.876398Q19.479066886779783,14.917437,19.531299886779784,14.96967Q19.583532886779786,15.021903,19.624571886779783,15.083322Q19.665610886779785,15.144742,19.693879886779786,15.212987Q19.722147886779783,15.281233,19.736558886779786,15.353682Q19.750969886779785,15.4261315,19.750969886779785,15.5L19.750969886779785,17Q19.750969886779785,17.07387,19.736558886779786,17.14632Q19.722147886779783,17.21877,19.693879886779786,17.28701Q19.665610886779785,17.35526,19.624571886779783,17.41668Q19.583532886779786,17.4781,19.531299886779784,17.53033Q19.479066886779783,17.58256,19.417647886779786,17.6236Q19.356227886779784,17.66464,19.287982886779787,17.69291Q19.219736886779785,17.72118,19.147287886779786,17.735590000000002Q19.074838386779785,17.75,19.000969886779785,17.75Q18.927101386779785,17.75,18.854651886779784,17.735590000000002Q18.782202886779785,17.72118,18.713956886779783,17.69291Q18.645711886779786,17.66464,18.584291886779784,17.6236Q18.522872886779787,17.58256,18.470639886779786,17.53033Q18.418406886779785,17.4781,18.377367886779787,17.41668Q18.336328886779786,17.35526,18.308059886779784,17.28701Q18.279791886779787,17.21877,18.265380886779784,17.14632Q18.250969886779785,17.07387,18.250969886779785,17L18.250969886779785,15.5Z" fill-rule="evenodd" fill="#2882FF" fill-opacity="1"/></g><g><path d="M18.250969886779785,21Q18.250969886779785,20.9261315,18.265380886779784,20.853682Q18.279791886779787,20.781233,18.308059886779784,20.712987Q18.336328886779786,20.644742,18.377367886779787,20.583322Q18.418406886779785,20.521903000000002,18.470639886779786,20.46967Q18.522872886779787,20.417437,18.584291886779784,20.376398000000002Q18.645711886779786,20.335359,18.713956886779783,20.30709Q18.782202886779785,20.278822,18.854651886779784,20.264411Q18.927101386779785,20.25,19.000969886779785,20.25Q19.074838386779785,20.25,19.147287886779786,20.264411Q19.219736886779785,20.278822,19.287982886779787,20.30709Q19.356227886779784,20.335359,19.417647886779786,20.376398000000002Q19.479066886779783,20.417437,19.531299886779784,20.46967Q19.583532886779786,20.521903000000002,19.624571886779783,20.583322Q19.665610886779785,20.644742,19.693879886779786,20.712987Q19.722147886779783,20.781233,19.736558886779786,20.853682Q19.750969886779785,20.9261315,19.750969886779785,21L19.750969886779785,22.5Q19.750969886779785,22.57387,19.736558886779786,22.64632Q19.722147886779783,22.71877,19.693879886779786,22.78701Q19.665610886779785,22.85526,19.624571886779783,22.91668Q19.583532886779786,22.9781,19.531299886779784,23.03033Q19.479066886779783,23.08256,19.417647886779786,23.1236Q19.356227886779784,23.16464,19.287982886779787,23.19291Q19.219736886779785,23.22118,19.147287886779786,23.235590000000002Q19.074838386779785,23.25,19.000969886779785,23.25Q18.927101386779785,23.25,18.854651886779784,23.235590000000002Q18.782202886779785,23.22118,18.713956886779783,23.19291Q18.645711886779786,23.16464,18.584291886779784,23.1236Q18.522872886779787,23.08256,18.470639886779786,23.03033Q18.418406886779785,22.9781,18.377367886779787,22.91668Q18.336328886779786,22.85526,18.308059886779784,22.78701Q18.279791886779787,22.71877,18.265380886779784,22.64632Q18.250969886779785,22.57387,18.250969886779785,22.5L18.250969886779785,21Z" fill-rule="evenodd" fill="#2882FF" fill-opacity="1"/></g><g><path d="M22.406980237731933,17.899514Q22.492490237731932,17.850144,22.562310237731932,17.780325Q22.632120237731932,17.710506,22.681490237731932,17.624996Q22.73086023773193,17.539486,22.756410237731934,17.444112Q22.781970237731933,17.3487382,22.781970237731933,17.25Q22.781970237731933,17.1761315,22.767560237731935,17.103682Q22.753150237731933,17.031233,22.724880237731934,16.962987Q22.696610237731935,16.894742,22.655570237731933,16.833322Q22.614530237731934,16.771903000000002,22.562300237731932,16.71967Q22.510070237731934,16.667437,22.448650237731933,16.626398000000002Q22.387230237731934,16.585359,22.318980237731935,16.55709Q22.250740237731932,16.528822,22.178290237731932,16.514411Q22.105840237731933,16.5,22.031970237731933,16.5Q21.831000237731935,16.5,21.656962237731932,16.600486L21.656865237731935,16.600541L20.358058237731935,17.35043L20.357962237731932,17.350486Q20.272453237731934,17.399856,20.202635237731933,17.469675Q20.132817237731935,17.539494,20.083448237731933,17.625004Q20.034080237731935,17.710514,20.008525237731934,17.805888Q19.982970237731934,17.901262,19.982970237731934,18Q19.982970237731934,18.073869,19.997381237731933,18.146318Q20.011792237731935,18.218767,20.040060237731932,18.28701Q20.068329237731934,18.35526,20.109368237731935,18.41668Q20.150407237731933,18.4781,20.202640237731934,18.53033Q20.254873237731935,18.58256,20.316292237731933,18.6236Q20.377712237731934,18.66464,20.445957237731932,18.69291Q20.514203237731934,18.72118,20.586652237731933,18.73559Q20.659101737731934,18.75,20.732970237731934,18.75Q20.933937237731932,18.75,21.107978237731935,18.64951L21.108238237731932,18.64936L22.406980237731933,17.899514Z" fill-rule="evenodd" fill="#2882FF" fill-opacity="1"/></g><g><path d="M17.644760703125,20.649639Q17.730310703125,20.600282,17.800170703125,20.530458Q17.870030703125,20.460633,17.919430703125,20.375104Q17.968830703125,20.289575,17.994400703125,20.194172000000002Q18.019970703125,20.0987699,18.019970703125,20Q18.019970703125,19.9261315,18.005560703125,19.853682Q17.991150703125,19.781233,17.962880703125,19.712987Q17.934610703125,19.644742,17.893570703125,19.583322Q17.852530703125,19.521903000000002,17.800300703125,19.46967Q17.748070703125,19.417437,17.686650703125,19.376398000000002Q17.625230703125,19.335359,17.556980703125,19.30709Q17.488740703125,19.278822,17.416290703125,19.264411Q17.343840703125,19.25,17.269970703125,19.25Q17.069140703125,19.25,16.895178703125,19.350361L16.894946703125,19.350495L15.595255703125,20.100317L15.595178703125,20.100361Q15.509625703125,20.149718,15.439767703125,20.219542Q15.369910703125,20.289367,15.320511703125,20.374896Q15.271112703125,20.460425,15.245541703125,20.555827999999998Q15.219970703125,20.651229999999998,15.219970703125,20.75Q15.219970703125,20.823869,15.234381703124999,20.896318Q15.248792703125,20.968767,15.277060703125,21.03701Q15.305329703125,21.10526,15.346368703125,21.16668Q15.387407703125,21.2281,15.439640703125,21.28033Q15.491873703125,21.33256,15.553292703125,21.3736Q15.614712703125,21.41464,15.682957703125,21.44291Q15.751203703125,21.47118,15.823652703125,21.48559Q15.896102203125,21.5,15.969970703125,21.5Q16.170803703125,21.5,16.344762703125,21.39964L17.644760703125,20.649639Z" fill-rule="evenodd" fill="#2882FF" fill-opacity="1"/></g><g><path d="M16.344904703125,16.600443L17.644760703125,17.350361Q17.730310703125,17.399718,17.800170703125,17.469542Q17.870030703125,17.539367,17.919430703125,17.624896Q17.968830703125,17.710425,17.994400703125,17.805827999999998Q18.019970703125,17.901229999999998,18.019970703125,18Q18.019970703125,18.073869,18.005560703125,18.146318Q17.991150703125,18.218767,17.962880703125,18.28701Q17.934610703125,18.35526,17.893570703125,18.41668Q17.852530703125,18.4781,17.800300703125,18.53033Q17.748070703125,18.58256,17.686650703125,18.6236Q17.625230703125,18.66464,17.556980703125,18.69291Q17.488740703125,18.72118,17.416290703125,18.73559Q17.343840703125,18.75,17.269970703125,18.75Q17.069140703125,18.75,16.895178703125,18.64964L15.595321703125,17.899722L15.595178703125,17.899639Q15.509625703125,17.850282,15.439767703125,17.780458Q15.369910703125,17.710633,15.320511703125,17.625104Q15.271112703125,17.539575,15.245541703125,17.444172000000002Q15.219970703125,17.3487699,15.219970703125,17.25Q15.219970703125,17.1761315,15.234381703124999,17.103682Q15.248792703125,17.031233,15.277060703125,16.962987Q15.305329703125,16.894742,15.346368703125,16.833322Q15.387407703125,16.771903000000002,15.439640703125,16.71967Q15.491873703125,16.667437,15.553292703125,16.626398000000002Q15.614712703125,16.585359,15.682957703125,16.55709Q15.751203703125,16.528822,15.823652703125,16.514411Q15.896102203125,16.5,15.969970703125,16.5Q16.170803703125,16.5,16.344762703125,16.600361L16.344904703125,16.600443Z" fill-rule="evenodd" fill="#2882FF" fill-opacity="1"/></g><g><path d="M21.107904237731933,19.350443L22.407760237731935,20.100361Q22.493310237731933,20.149718,22.563170237731935,20.219542Q22.633030237731933,20.289367,22.682430237731932,20.374896Q22.731830237731934,20.460425,22.757400237731932,20.555827999999998Q22.782970237731934,20.651229999999998,22.782970237731934,20.75Q22.782970237731934,20.823869,22.768560237731933,20.896318Q22.754150237731935,20.968767,22.725880237731932,21.03701Q22.697610237731933,21.10526,22.656570237731934,21.16668Q22.615530237731935,21.2281,22.563300237731934,21.28033Q22.511070237731932,21.33256,22.449650237731934,21.3736Q22.388230237731932,21.41464,22.319980237731933,21.44291Q22.251740237731934,21.47118,22.179290237731934,21.48559Q22.106840237731934,21.5,22.032970237731934,21.5Q21.832140237731934,21.5,21.658178237731935,21.39964L20.358321237731932,20.649722L20.358178237731934,20.649639Q20.272625237731933,20.600282,20.202767237731933,20.530458Q20.132910237731934,20.460633,20.083511237731933,20.375104Q20.034112237731932,20.289575,20.008541237731933,20.194172000000002Q19.982970237731934,20.0987699,19.982970237731934,20Q19.982970237731934,19.9261315,19.997381237731933,19.853682Q20.011792237731935,19.781233,20.040060237731932,19.712987Q20.068329237731934,19.644742,20.109368237731935,19.583322Q20.150407237731933,19.521903000000002,20.202640237731934,19.46967Q20.254873237731935,19.417437,20.316292237731933,19.376398000000002Q20.377712237731934,19.335359,20.445957237731932,19.30709Q20.514203237731934,19.278822,20.586652237731933,19.264411Q20.659101737731934,19.25,20.732970237731934,19.25Q20.933803237731933,19.25,21.107762237731933,19.350361L21.107904237731933,19.350443Z" fill-rule="evenodd" fill="#2882FF" fill-opacity="1"/></g></g></g></svg>