<svg xmlns="http://www.w3.org/2000/svg" xmlns:xlink="http://www.w3.org/1999/xlink" fill="none" version="1.1" width="24" height="24" viewBox="0 0 24 24"><defs><clipPath id="master_svg0_72_03928"><rect x="0" y="0" width="24" height="24" rx="0"/></clipPath></defs><g clip-path="url(#master_svg0_72_03928)"><g transform="matrix(-1,0,0,1,42,0)"><path d="M28,7.75L29,7.75Q29.07387,7.75,29.14632,7.735589Q29.21877,7.721178,29.287010000000002,7.69291Q29.35526,7.664641,29.41668,7.623602Q29.478099999999998,7.582563,29.53033,7.53033Q29.58256,7.478097,29.6236,7.416678Q29.66464,7.355258,29.692909999999998,7.287013Q29.72118,7.218767,29.735590000000002,7.146318Q29.75,7.0738685,29.75,7Q29.75,6.9261315,29.735590000000002,6.853682Q29.72118,6.781233,29.692909999999998,6.712987Q29.66464,6.644742,29.6236,6.583322Q29.58256,6.521903,29.53033,6.46967Q29.478099999999998,6.417437,29.41668,6.376398Q29.35526,6.335359,29.287010000000002,6.30709Q29.21877,6.278822,29.14632,6.264411Q29.07387,6.25,29,6.25L24.00001,6.25Q22.44671,6.25,21.348357,7.348349Q20.250008,8.4467,20.250007,10L20.250002,18Q20.250001,19.5533,21.348351,20.651600000000002Q22.4467,21.75,24,21.75L31,21.75Q32.5533,21.75,33.6516,20.651699999999998Q34.75,19.5533,34.75,18L34.75,12Q34.75,11.92613,34.7356,11.85368Q34.721199999999996,11.78123,34.6929,11.71299Q34.6646,11.644739999999999,34.623599999999996,11.58332Q34.5826,11.521899999999999,34.5303,11.46967Q34.4781,11.41744,34.4167,11.3764Q34.3553,11.33536,34.287,11.307089999999999Q34.2188,11.27882,34.1463,11.26441Q34.0739,11.25,34,11.25Q33.9261,11.25,33.8537,11.26441Q33.7812,11.27882,33.713,11.307089999999999Q33.6447,11.33536,33.5833,11.3764Q33.5219,11.41744,33.4697,11.46967Q33.4174,11.521899999999999,33.376400000000004,11.58332Q33.3354,11.644739999999999,33.3071,11.71299Q33.278800000000004,11.78123,33.2644,11.85368Q33.25,11.92613,33.25,12L33.25,16L33.25,18Q33.25,18.932000000000002,32.591,19.591Q31.932000000000002,20.25,31,20.25L24,20.25Q23.06802,20.25,22.40901,19.591Q21.750001,18.932000000000002,21.750002,18L21.750007,10Q21.750008,9.06802,22.409019999999998,8.40901Q23.06803,7.75,24.00001,7.75L28,7.75Z" fill-rule="evenodd" fill="#231F2E" fill-opacity="1"/></g><g><path d="M13,9.25L18,9.25Q18.07387,9.25,18.14632,9.264410999999999Q18.21877,9.278822,18.287010000000002,9.30709Q18.35526,9.335359,18.41668,9.376398Q18.4781,9.417437,18.53033,9.46967Q18.58256,9.521903,18.6236,9.583322Q18.66464,9.644742,18.69291,9.712987Q18.72118,9.781233,18.735590000000002,9.853682Q18.75,9.9261315,18.75,10Q18.75,10.0738685,18.735590000000002,10.146318Q18.72118,10.218767,18.69291,10.287013Q18.66464,10.355258,18.6236,10.416678Q18.58256,10.478097,18.53033,10.53033Q18.4781,10.582563,18.41668,10.623602Q18.35526,10.664641,18.287010000000002,10.69291Q18.21877,10.721178,18.14632,10.735589000000001Q18.07387,10.75,18,10.75L13,10.75Q12.9261315,10.75,12.853682,10.735589000000001Q12.781233,10.721178,12.712987,10.69291Q12.644742,10.664641,12.583322,10.623602Q12.521903,10.582563,12.46967,10.53033Q12.417437,10.478097,12.376398,10.416678Q12.335359,10.355258,12.30709,10.287013Q12.278822,10.218767,12.264410999999999,10.146318Q12.25,10.0738685,12.25,10Q12.25,9.9261315,12.264410999999999,9.853682Q12.278822,9.781233,12.30709,9.712987Q12.335359,9.644742,12.376398,9.583322Q12.417437,9.521903,12.46967,9.46967Q12.521903,9.417437,12.583322,9.376398Q12.644742,9.335359,12.712987,9.30709Q12.781233,9.278822,12.853682,9.264410999999999Q12.9261315,9.25,13,9.25Z" fill-rule="evenodd" fill="#231F2E" fill-opacity="1"/></g><g><path d="M13,12.75L18,12.75Q18.07387,12.75,18.14632,12.764410999999999Q18.21877,12.778822,18.287010000000002,12.80709Q18.35526,12.835359,18.41668,12.876398Q18.4781,12.917437,18.53033,12.96967Q18.58256,13.021903,18.6236,13.083322Q18.66464,13.144742,18.69291,13.212987Q18.72118,13.281233,18.735590000000002,13.353682Q18.75,13.4261315,18.75,13.5Q18.75,13.5738685,18.735590000000002,13.646318Q18.72118,13.718767,18.69291,13.787013Q18.66464,13.855258,18.6236,13.916678Q18.58256,13.978097,18.53033,14.03033Q18.4781,14.082563,18.41668,14.123602Q18.35526,14.164641,18.287010000000002,14.19291Q18.21877,14.221178,18.14632,14.235589000000001Q18.07387,14.25,18,14.25L13,14.25Q12.9261315,14.25,12.853682,14.235589000000001Q12.781233,14.221178,12.712987,14.19291Q12.644742,14.164641,12.583322,14.123602Q12.521903,14.082563,12.46967,14.03033Q12.417437,13.978097,12.376398,13.916678Q12.335359,13.855258,12.30709,13.787013Q12.278822,13.718767,12.264410999999999,13.646318Q12.25,13.5738685,12.25,13.5Q12.25,13.4261315,12.264410999999999,13.353682Q12.278822,13.281233,12.30709,13.212987Q12.335359,13.144742,12.376398,13.083322Q12.417437,13.021903,12.46967,12.96967Q12.521903,12.917437,12.583322,12.876398Q12.644742,12.835359,12.712987,12.80709Q12.781233,12.778822,12.853682,12.764410999999999Q12.9261315,12.75,13,12.75Z" fill-rule="evenodd" fill="#231F2E" fill-opacity="1"/></g><g><path d="M10.5,16.25L18,16.25Q18.07387,16.25,18.14632,16.264411Q18.21877,16.278822,18.287010000000002,16.30709Q18.35526,16.335359,18.41668,16.376398000000002Q18.4781,16.417437,18.53033,16.46967Q18.58256,16.521903000000002,18.6236,16.583322Q18.66464,16.644742,18.692909999999998,16.712987Q18.72118,16.781233,18.735590000000002,16.853682Q18.75,16.9261315,18.75,17Q18.75,17.0738685,18.735590000000002,17.146318Q18.72118,17.218767,18.692909999999998,17.287013Q18.66464,17.355258,18.6236,17.416678Q18.58256,17.478096999999998,18.53033,17.53033Q18.4781,17.582563,18.41668,17.623601999999998Q18.35526,17.664641,18.287010000000002,17.69291Q18.21877,17.721178,18.14632,17.735589Q18.07387,17.75,18,17.75L10.5,17.75Q10.4261315,17.75,10.353682,17.735589Q10.281233,17.721178,10.212987,17.69291Q10.144742,17.664641,10.083322,17.623601999999998Q10.021903,17.582563,9.96967,17.53033Q9.917437,17.478096999999998,9.876398,17.416678Q9.835359,17.355258,9.80709,17.287013Q9.778822,17.218767,9.764410999999999,17.146318Q9.75,17.0738685,9.75,17Q9.75,16.9261315,9.764410999999999,16.853682Q9.778822,16.781233,9.80709,16.712987Q9.835359,16.644742,9.876398,16.583322Q9.917437,16.521903000000002,9.96967,16.46967Q10.021903,16.417437,10.083322,16.376398000000002Q10.144742,16.335359,10.212987,16.30709Q10.281233,16.278822,10.353682,16.264411Q10.4261315,16.25,10.5,16.25Z" fill-rule="evenodd" fill="#231F2E" fill-opacity="1"/></g><g><rect x="2" y="3" width="9" height="7" rx="2" fill="#2882FF" fill-opacity="1"/></g><g><rect x="4" y="5" width="1" height="3" rx="0.5" fill="#FFFFFF" fill-opacity="1"/></g><g><rect x="6" y="4" width="1" height="5" rx="0.5" fill="#FFFFFF" fill-opacity="1"/></g><g><rect x="8" y="5" width="1" height="3" rx="0.5" fill="#FFFFFF" fill-opacity="1"/></g></g></svg>