<svg xmlns="http://www.w3.org/2000/svg" xmlns:xlink="http://www.w3.org/1999/xlink" fill="none" version="1.1" width="24" height="24" viewBox="0 0 24 24"><defs><clipPath id="master_svg0_63_02285"><rect x="0" y="0" width="24" height="24" rx="0"/></clipPath></defs><g clip-path="url(#master_svg0_63_02285)"><g><path d="M13.25,3Q13.25,2.9261315,13.264410999999999,2.853682Q13.278822,2.781233,13.30709,2.712987Q13.335359,2.644742,13.376398,2.583322Q13.417437,2.521903,13.46967,2.46967Q13.521903,2.417437,13.583322,2.376398Q13.644742,2.335359,13.712987,2.30709Q13.781233,2.278822,13.853682,2.264411Q13.9261315,2.25,14,2.25Q14.0738685,2.25,14.146318,2.264411Q14.218767,2.278822,14.287013,2.30709Q14.355258,2.335359,14.416678,2.376398Q14.478097,2.417437,14.53033,2.46967Q14.582563,2.521903,14.623602,2.583322Q14.664641,2.644742,14.69291,2.712987Q14.721178,2.781233,14.735589000000001,2.853682Q14.75,2.9261315,14.75,3L14.75,7Q14.75,7.10355,14.823223,7.17678Q14.896447,7.25,15,7.25L19,7.25Q19.07387,7.25,19.14632,7.26441Q19.21877,7.27882,19.287010000000002,7.30709Q19.35526,7.33536,19.41668,7.3764Q19.4781,7.41744,19.53033,7.46967Q19.58256,7.5219,19.6236,7.58332Q19.66464,7.64474,19.69291,7.71299Q19.72118,7.78123,19.735590000000002,7.85368Q19.75,7.92613,19.75,8Q19.75,8.07387,19.735590000000002,8.14632Q19.72118,8.21877,19.69291,8.28701Q19.66464,8.355260000000001,19.6236,8.41668Q19.58256,8.478100000000001,19.53033,8.53033Q19.4781,8.58256,19.41668,8.6236Q19.35526,8.66464,19.287010000000002,8.692910000000001Q19.21877,8.72118,19.14632,8.73559Q19.07387,8.75,19,8.75L15,8.75Q14.275126,8.75,13.762563,8.23744Q13.25,7.72487,13.25,7L13.25,3Z" fill-rule="evenodd" fill="#231F2E" fill-opacity="1"/></g><g><path d="M18.25,8.31066L18.25,12.5Q18.25,12.57387,18.264400000000002,12.64632Q18.2788,12.71877,18.3071,12.78701Q18.3354,12.85526,18.3764,12.91668Q18.4174,12.9781,18.4697,13.0303Q18.521900000000002,13.0826,18.5833,13.1236Q18.6447,13.1646,18.713,13.1929Q18.7812,13.2212,18.8537,13.2356Q18.926099999999998,13.25,19,13.25Q19.073900000000002,13.25,19.1463,13.2356Q19.2188,13.2212,19.287,13.1929Q19.3553,13.1646,19.4167,13.1236Q19.478099999999998,13.0826,19.5303,13.0303Q19.5826,12.9781,19.6236,12.91668Q19.6646,12.85526,19.6929,12.78701Q19.7212,12.71877,19.735599999999998,12.64632Q19.75,12.57387,19.75,12.5L19.75,12.4988L19.75,8Q19.75,7.85082,19.6929,7.71299Q19.6358,7.57516,19.5303,7.46967L14.53033,2.46967Q14.42484,2.364181,14.28701,2.30709Q14.14919,2.25,14,2.25L7,2.25Q5.860913,2.25,5.0554564,3.0554564Q4.25,3.860913,4.25,5L4.25,19Q4.25,20.1391,5.0554563,20.9445Q5.860912,21.75,7,21.75L12,21.75Q12.07387,21.75,12.14632,21.7356Q12.21877,21.7212,12.28701,21.6929Q12.355260000000001,21.6646,12.41668,21.6236Q12.478100000000001,21.5826,12.53033,21.5303Q12.58256,21.4781,12.6236,21.4167Q12.66464,21.3553,12.692910000000001,21.287Q12.72118,21.2188,12.73559,21.1463Q12.75,21.0739,12.75,21Q12.75,20.9261,12.73559,20.8537Q12.72118,20.7812,12.692910000000001,20.713Q12.66464,20.6447,12.6236,20.5833Q12.58256,20.5219,12.53033,20.4697Q12.478100000000001,20.4174,12.41668,20.3764Q12.355260000000001,20.3354,12.28701,20.3071Q12.21877,20.2788,12.14632,20.2644Q12.07387,20.25,12,20.25L7,20.25Q6.4822299999999995,20.25,6.1161200000000004,19.8839Q5.75,19.5178,5.75,19L5.75,5Q5.75,4.4822299999999995,6.1161200000000004,4.1161200000000004Q6.4822299999999995,3.75,7,3.75L13.68934,3.75L18.25,8.31066Z" fill-rule="evenodd" fill="#231F2E" fill-opacity="1"/></g><g><path d="M8.275312,12.193202Q8.25,12.098259,8.25,12Q8.25,11.9261315,8.264410999999999,11.853682Q8.278822,11.781233,8.30709,11.712987Q8.335359,11.644742,8.376398,11.583322Q8.417437,11.521903,8.46967,11.46967Q8.521903,11.417437,8.583322,11.376398Q8.644742,11.335359,8.712987,11.30709Q8.781233,11.278822,8.853682,11.264410999999999Q8.9261315,11.25,9,11.25Q9.0615559,11.25,9.122288,11.260037Q9.18302,11.270073,9.241303,11.289878Q9.299586,11.309683,9.35386,11.338726Q9.408134,11.367769,9.456946,11.405273Q9.505758,11.442776,9.547801,11.487737Q9.589845,11.532697,9.623995,11.583911Q9.658146,11.635126,9.683488,11.691223Q9.708831,11.74732,9.724688,11.806798L10.48938,14.6751L11.30771,12.711489Q11.36478,12.574563,11.46967,12.46967Q11.57456,12.364777,11.71149,12.307713Q11.84919,12.250323999999999,11.998380000000001,12.250002Q12.14756,12.249679,12.28551,12.306471Q12.42346,12.363263,12.52918,12.468524Q12.6349,12.573785,12.69229,12.711489L13.51062,14.6751L14.27519,11.807271L14.275310000000001,11.806798Q14.291170000000001,11.74732,14.316510000000001,11.691223Q14.34186,11.635126,14.37601,11.583911Q14.410160000000001,11.532697,14.452200000000001,11.487737Q14.49424,11.442776,14.543050000000001,11.405273Q14.59187,11.367769,14.646139999999999,11.338726Q14.70041,11.309683,14.758700000000001,11.289878Q14.816980000000001,11.270073,14.87771,11.260037Q14.93844,11.25,15,11.25Q15.07387,11.25,15.14632,11.264410999999999Q15.21877,11.278822,15.28701,11.30709Q15.355260000000001,11.335359,15.41668,11.376398Q15.478100000000001,11.417437,15.53033,11.46967Q15.58256,11.521903,15.6236,11.583322Q15.66464,11.644742,15.692910000000001,11.712987Q15.72118,11.781233,15.73559,11.853682Q15.75,11.9261315,15.75,12Q15.75,12.098259,15.724689999999999,12.193202L14.39169,17.1932Q14.37266,17.26458,14.34007,17.33087Q14.30748,17.39716,14.26259,17.45582Q14.217690000000001,17.51448,14.16222,17.56326Q14.10674,17.61203,14.042819999999999,17.64905Q13.97889,17.68606,13.90897,17.70989Q13.83905,17.73373,13.765830000000001,17.74346Q13.69261,17.75319,13.61889,17.74845Q13.545169999999999,17.74372,13.4738,17.72469Q13.390509999999999,17.70248,13.314440000000001,17.66197Q13.23836,17.62145,13.17346,17.56473Q13.108550000000001,17.508,13.058209999999999,17.43804Q13.00787,17.36807,12.97471,17.28851L12,14.94967L11.02529,17.28851Q10.9679,17.42621,10.86218,17.531480000000002Q10.75646,17.63674,10.61851,17.69353Q10.48056,17.750320000000002,10.33138,17.75Q10.18219,17.749670000000002,10.04449,17.69229Q9.964927,17.65913,9.894962,17.60879Q9.824996,17.55845,9.768275,17.49354Q9.711554,17.42864,9.671035,17.35257Q9.630516,17.27649,9.608312,17.1932L8.275312,12.193202Z" fill-rule="evenodd" fill="#3862BE" fill-opacity="1" style="mix-blend-mode:passthrough"/></g><g transform="matrix(-1,0,0,1,42.996337890625,0)"><path d="M22.2481689453125,15.808511734008789L22.2481689453125,16.31080473400879L22.7504589453125,16.31080473400879Q22.8243289453125,16.31080473400879,22.8967789453125,16.32521573400879Q22.9692289453125,16.33962673400879,23.0374789453125,16.36789573400879Q23.1057189453125,16.396163734008788,23.1671389453125,16.43720273400879Q23.2285589453125,16.47824173400879,23.2807889453125,16.530474734008788Q23.3330289453125,16.58270773400879,23.3740689453125,16.64412773400879Q23.4150989453125,16.705546734008788,23.4433689453125,16.77379273400879Q23.4716389453125,16.842041734008788,23.4860489453125,16.914491734008788Q23.5004589453125,16.986931734008788,23.5004589453125,17.060801734008788Q23.5004589453125,17.13467173400879,23.4860489453125,17.20712173400879Q23.4716389453125,17.27957173400879,23.4433689453125,17.34782173400879Q23.4150989453125,17.41606173400879,23.3740689453125,17.47748173400879Q23.3330289453125,17.53890173400879,23.2807889453125,17.59113173400879Q23.2285589453125,17.643371734008788,23.1671389453125,17.68441173400879Q23.1057189453125,17.72544173400879,23.0374789453125,17.75371173400879Q22.9692289453125,17.781981734008788,22.8967789453125,17.79639173400879Q22.8243289453125,17.810801734008788,22.7504589453125,17.810801734008788L21.4981689453125,17.810801734008788Q21.4243004453125,17.810801734008788,21.3518509453125,17.79639173400879Q21.2794019453125,17.781981734008788,21.2111559453125,17.75371173400879Q21.1429109453125,17.72544173400879,21.0814909453125,17.68441173400879Q21.020071945312502,17.643371734008788,20.9678389453125,17.59113173400879Q20.9156059453125,17.53890173400879,20.874566945312502,17.47748173400879Q20.8335279453125,17.41606173400879,20.8052589453125,17.34782173400879Q20.7769909453125,17.27957173400879,20.7625799453125,17.20712173400879Q20.7481689453125,17.13467173400879,20.7481689453125,17.060801734008788L20.7481689453125,15.808511734008789Q20.7481689453125,15.73464323400879,20.7625799453125,15.662193734008788Q20.7769909453125,15.58974473400879,20.8052589453125,15.521498734008789Q20.8335279453125,15.45325373400879,20.874566945312502,15.39183373400879Q20.9156059453125,15.330414734008789,20.9678389453125,15.27818173400879Q21.020071945312502,15.225948734008789,21.0814909453125,15.184909734008789Q21.1429109453125,15.14387073400879,21.2111559453125,15.11560173400879Q21.2794019453125,15.087333734008789,21.3518509453125,15.072922734008788Q21.4243004453125,15.058511734008789,21.4981689453125,15.058511734008789Q21.5720374453125,15.058511734008789,21.6444869453125,15.072922734008788Q21.7169359453125,15.087333734008789,21.7851819453125,15.11560173400879Q21.8534269453125,15.14387073400879,21.9148469453125,15.184909734008789Q21.976265945312498,15.225948734008789,22.0284989453125,15.27818173400879Q22.0807319453125,15.330414734008789,22.121770945312498,15.39183373400879Q22.1628099453125,15.45325373400879,22.1910789453125,15.521498734008789Q22.2193469453125,15.58974473400879,22.2337579453125,15.662193734008788Q22.2481689453125,15.73464323400879,22.2481689453125,15.808511734008789Z" fill-rule="evenodd" fill="#3862BE" fill-opacity="1"/></g><g transform="matrix(-1,0,0,1,42.683265686035156,0)"><path d="M22.03879684301758,15.190792Q21.076629843017578,15.746647,20.64930884301758,16.77238Q20.591632843017578,16.91083,20.591632843017578,17.06081Q20.591632843017578,17.13467,20.606043843017577,17.20712Q20.62045484301758,17.27957,20.648722843017577,17.34782Q20.67699184301758,17.41606,20.71803084301758,17.47748Q20.759069843017578,17.538899999999998,20.81130284301758,17.59114Q20.86353584301758,17.64337,20.924954843017577,17.68441Q20.98637484301758,17.72545,21.054619843017576,17.753709999999998Q21.12286584301758,17.78198,21.195314843017577,17.79639Q21.26776434301758,17.81081,21.341632843017578,17.81081Q21.452689843017577,17.81081,21.55898084301758,17.77862Q21.66527284301758,17.74644,21.757675843017577,17.684829999999998Q21.850078843017577,17.62322,21.92066384301758,17.53748Q21.99124884301758,17.45174,22.033956843017577,17.34923Q22.26620784301758,16.79174,22.78915284301758,16.489627Q23.312092843017577,16.187518,23.91106284301758,16.264804Q24.510022843017577,16.34209,24.939152843017578,16.76705Q25.145602843017578,16.97149,25.27639284301758,17.22995Q25.323352843017577,17.32274,25.39378284301758,17.399259999999998Q25.464222843017577,17.47578,25.55282284301758,17.53024Q25.64142284301758,17.58471,25.741502843017578,17.61301Q25.841582843017576,17.64131,25.94558284301758,17.64131Q26.01945284301758,17.64131,26.09190284301758,17.6269Q26.16435284301758,17.61249,26.232602843017577,17.584220000000002Q26.300842843017577,17.55595,26.36226284301758,17.51491Q26.423682843017577,17.47387,26.47591284301758,17.42164Q26.52815284301758,17.3694,26.56919284301758,17.30799Q26.610222843017578,17.24657,26.638492843017577,17.17832Q26.66676284301758,17.11007,26.681172843017578,17.03763Q26.69558284301758,16.96518,26.69558284301758,16.89131Q26.69558284301758,16.71201,26.61450284301758,16.55211L26.61396284301758,16.55105Q26.37341284301758,16.076335,25.994622843017577,15.701221Q25.20506284301758,14.919338,24.103012843017577,14.777137Q23.00096284301758,14.634937,22.03879684301758,15.190792Z" fill-rule="evenodd" fill="#3862BE" fill-opacity="1"/></g><g transform="matrix(-1,0,0,1,35.482627868652344,0)"><path d="M17.741313934326172,18.189208984375Q17.667445434326172,18.189208984375,17.59499593432617,18.203619984375Q17.522546934326172,18.218030984375,17.45430093432617,18.246298984375Q17.386055934326173,18.274567984375,17.32463593432617,18.315606984375002Q17.263216934326174,18.356645984375,17.210983934326173,18.408878984375Q17.15875093432617,18.461111984375002,17.117711934326174,18.522530984375Q17.076672934326172,18.583950984375,17.04840393432617,18.652195984375Q17.020135934326174,18.720441984375,17.00572493432617,18.792890984375Q16.991313934326172,18.865340484375,16.991313934326172,18.939208984375Q16.991313934326172,19.013077484375,17.00572493432617,19.085526984375Q17.020135934326174,19.157975984375,17.04840393432617,19.226221984375Q17.076672934326172,19.294466984375,17.117711934326174,19.355886984375Q17.15875093432617,19.417305984374998,17.210983934326173,19.469538984375Q17.263216934326174,19.521771984375,17.32463593432617,19.562810984374998Q17.386055934326173,19.603849984375,17.45430093432617,19.632118984375Q17.522546934326172,19.660386984375,17.59499593432617,19.674797984375Q17.667445434326172,19.689208984375,17.741313934326172,19.689208984375L18.243606934326174,19.689208984375L18.243606934326174,20.191498984375Q18.243606934326174,20.265368984375,18.258017934326173,20.337818984375Q18.27242893432617,20.410268984375,18.300696934326172,20.478518984375Q18.32896593432617,20.546758984375,18.37000493432617,20.608178984375Q18.411043934326173,20.669598984375,18.46327693432617,20.721828984375Q18.51550993432617,20.774068984375,18.576928934326173,20.815108984375Q18.63834893432617,20.856138984375,18.706593934326172,20.884408984375Q18.77484393432617,20.912678984375,18.84729393432617,20.927088984375Q18.91973393432617,20.941498984375,18.99360393432617,20.941498984375Q19.067473934326173,20.941498984375,19.139923934326173,20.927088984375Q19.212373934326173,20.912678984375,19.280623934326172,20.884408984375Q19.34886393432617,20.856138984375,19.410283934326173,20.815108984375Q19.47170393432617,20.774068984375,19.523933934326173,20.721828984375Q19.57617393432617,20.669598984375,19.617213934326173,20.608178984375Q19.658243934326173,20.546758984375,19.68651393432617,20.478518984375Q19.71478393432617,20.410268984375,19.729193934326172,20.337818984375Q19.74360393432617,20.265368984375,19.74360393432617,20.191498984375L19.74360393432617,18.939208984375Q19.74360393432617,18.865340484375,19.729193934326172,18.792890984375Q19.71478393432617,18.720441984375,19.68651393432617,18.652195984375Q19.658243934326173,18.583950984375,19.617213934326173,18.522530984375Q19.57617393432617,18.461111984375002,19.523933934326173,18.408878984375Q19.47170393432617,18.356645984375,19.410283934326173,18.315606984375002Q19.34886393432617,18.274567984375,19.280623934326172,18.246298984375Q19.212373934326173,18.218030984375,19.139923934326173,18.203619984375Q19.067473934326173,18.189208984375,18.99360393432617,18.189208984375L17.741313934326172,18.189208984375Z" fill-rule="evenodd" fill="#3862BE" fill-opacity="1"/></g><g transform="matrix(-1,0,0,1,42.4990234375,0)"><path d="M26.54579171875,19.227629984375Q26.60346171875,19.089185984375,26.60346171875,18.939208984375Q26.60346171875,18.865340484375,26.58905171875,18.792890984375Q26.57464171875,18.720441984375,26.54637171875,18.652195984375Q26.51810171875,18.583950984375,26.47707171875,18.522530984375Q26.43603171875,18.461111984375002,26.38379171875,18.408878984375Q26.33156171875,18.356645984375,26.27014171875,18.315606984375002Q26.20872171875,18.274567984375,26.14048171875,18.246298984375Q26.07223171875,18.218030984375,25.99978171875,18.203619984375Q25.92733171875,18.189208984375,25.85346171875,18.189208984375Q25.74241171875,18.189208984375,25.63611171875,18.221392984375Q25.52982171875,18.253576984375,25.43742171875,18.315182984375Q25.34502171875,18.376788984375,25.27443171875,18.462529984375Q25.203851718750002,18.548270984375,25.16114171875,18.650787984375Q24.928891718750002,19.208278984375,24.40595171875,19.510386984375Q23.88301171875,19.812495984375,23.28404171875,19.735209984375Q22.68507171875,19.657923984375,22.25594171875,19.232966984375Q22.04949771875,19.028525084375,21.91870771875,18.770066984375Q21.87174871875,18.677269984375,21.80131071875,18.600751984375Q21.73087271875,18.524233984375,21.64227171875,18.469769984375Q21.55367071875,18.415305984375,21.45359271875,18.387005984375Q21.35351371875,18.358705984375,21.24951171875,18.358705984375Q21.17564321875,18.358705984375,21.10319371875,18.373117984375Q21.03074471875,18.387528984375,20.96249871875,18.415796984375Q20.89425371875,18.444064984375,20.83283371875,18.485103984375Q20.771414718750002,18.526142984375,20.71918171875,18.578375984375Q20.66694871875,18.630608984375,20.625909718750002,18.692028984375Q20.58487071875,18.753447984375,20.55660171875,18.821693984375Q20.52833371875,18.889939484375,20.51392271875,18.962388684375Q20.49951171875,19.034837884375,20.49951171875,19.108705984375Q20.49951171875,19.287665984375,20.58031571875,19.447344984375L20.58048871875,19.447686984375Q20.82116971875,19.923171984375,21.20047671875,20.298788984375Q21.99003171875,21.080678984374998,23.09208171875,21.222878984375Q24.19413171875,21.365078984375,25.15630171875,20.809218984375Q26.11847171875,20.253368984375,26.54579171875,19.227629984375Z" fill-rule="evenodd" fill="#3862BE" fill-opacity="1"/></g><g><path d="M21.030426779541017,19.969766779541015L21.530212779541017,20.469555479541015L22.530102779541014,21.469440779541017Q22.635592779541014,21.574932779541015,22.692682779541016,21.712762779541016Q22.749772779541015,21.850582779541014,22.749772779541015,21.999772779541015Q22.749772779541015,22.073642779541014,22.735362779541017,22.146092779541014Q22.720952779541015,22.218542779541014,22.692682779541016,22.286782779541017Q22.664412779541017,22.355032779541016,22.623372779541015,22.416452779541014Q22.582332779541016,22.477872779541016,22.530102779541014,22.530102779541014Q22.477872779541016,22.582332779541016,22.416452779541014,22.623372779541015Q22.355032779541016,22.664412779541017,22.286782779541017,22.692682779541016Q22.218542779541014,22.720952779541015,22.146092779541014,22.735362779541017Q22.073642779541014,22.749772779541015,21.999772779541015,22.749772779541015Q21.850582779541014,22.749772779541015,21.712762779541016,22.692682779541016Q21.574932779541015,22.635592779541014,21.469441779541015,22.530102779541014L20.469555479541015,21.530212779541017L19.969766779541015,21.030426779541017L19.969612779541016,21.030272779541015Q19.864123779541014,20.924783779541016,19.807032779541014,20.786955779541017Q19.749942779541016,20.649126779541017,19.749942779541016,20.499942779541016Q19.749942779541016,20.426074279541016,19.764353779541015,20.353624779541015Q19.778764779541017,20.281175779541016,19.807032779541014,20.212929779541014Q19.835301779541016,20.144684779541016,19.876340779541017,20.083264779541015Q19.917379779541015,20.021845779541017,19.969612779541016,19.969612779541016Q20.021845779541017,19.917379779541015,20.083264779541015,19.876340779541017Q20.144684779541016,19.835301779541016,20.212929779541014,19.807032779541014Q20.281175779541016,19.778764779541017,20.353624779541015,19.764353779541015Q20.426074279541016,19.749942779541016,20.499942779541016,19.749942779541016Q20.649126779541017,19.749942779541016,20.786955779541017,19.807032779541014Q20.924783779541016,19.864123779541014,21.030272779541015,19.969612779541016L21.030426779541017,19.969766779541015Z" fill-rule="evenodd" fill="#3862BE" fill-opacity="1" style="mix-blend-mode:passthrough"/></g></g></svg>