<svg xmlns="http://www.w3.org/2000/svg" xmlns:xlink="http://www.w3.org/1999/xlink" fill="none" version="1.1" width="24" height="24" viewBox="0 0 24 24"><defs><clipPath id="master_svg0_76_01633"><rect x="0" y="0" width="24" height="24" rx="0"/></clipPath></defs><g clip-path="url(#master_svg0_76_01633)"><g><path d="M18.0079,2.9422891Q15.4949,2,12,2Q8.50506,2,5.9921500000000005,2.9422891Q3.000001,4.06428,3.000001,6Q3,7.93572,5.99214,9.05771Q8.50506,10,12,10Q15.4949,10,18.0079,9.05771Q21,7.93572,21,6Q21,4.06428,18.0079,2.9422891ZM6.69436,4.81496Q8.867709999999999,4,12,4Q15.1323,4,17.3056,4.81496Q18.2393,5.16508,18.707900000000002,5.58047Q19,5.839449999999999,19,6Q19,6.160550000000001,18.707900000000002,6.41953Q18.2393,6.83492,17.3056,7.18504Q15.1323,8,12,8Q8.867709999999999,8,6.69436,7.18504Q5.76065,6.83492,5.29211,6.41953Q5,6.160550000000001,5,6Q5,5.839449999999999,5.29211,5.58047Q5.76066,5.16508,6.69436,4.81496Z" fill-rule="evenodd" fill="#231F2E" fill-opacity="1"/></g><g><path d="M3,6Q3,5.9015086,3.019215,5.80491Q3.03843,5.708311,3.076121,5.617317Q3.1138120000000002,5.526322,3.16853,5.44443Q3.223249,5.362537,3.292893,5.292893Q3.362537,5.223249,3.44443,5.16853Q3.526322,5.113812,3.617317,5.076121Q3.708311,5.03843,3.80491,5.019215Q3.9015086,5,4,5Q4.0984914,5,4.19509,5.019215Q4.291689,5.03843,4.382683,5.076121Q4.473678,5.113812,4.55557,5.16853Q4.637463,5.223249,4.707107,5.292893Q4.776751,5.362537,4.83147,5.44443Q4.886188,5.526322,4.923879,5.617317Q4.96157,5.708311,4.980785,5.80491Q5,5.9015086,5,6L5,12Q5,12.16055,5.29211,12.41953Q5.76065,12.83492,6.69436,13.18504Q8.867709999999999,14,12,14Q13.56655,14,14.9912,13.77169L14.9917,13.7716Q15.0704,13.759,15.15,13.759Q15.2485,13.759,15.3451,13.77821Q15.4417,13.79743,15.5327,13.83512Q15.6237,13.872810000000001,15.7056,13.92753Q15.7875,13.98225,15.8571,14.05189Q15.9267,14.12154,15.9815,14.20343Q16.0362,14.28532,16.073900000000002,14.37632Q16.1116,14.46731,16.1308,14.56391Q16.15,14.66051,16.15,14.759Q16.15,14.84748,16.1345,14.93459Q16.1189,15.0217,16.0883,15.10473Q16.0577,15.18776,16.012999999999998,15.26412Q15.9684,15.34049,15.9109,15.40782Q15.8535,15.47515,15.7852,15.53136Q15.7168,15.58756,15.6397,15.63089Q15.5625,15.67422,15.479,15.70333Q15.3954,15.73244,15.3081,15.74643L15.3052,15.74689Q13.72441,16,12,16Q8.50506,16,5.99214,15.05771Q3,13.93572,3,12L3,6Q3,6.0984914,3.019215,6.19509Q3.03843,6.291689,3.076121,6.382683Q3.1138120000000002,6.473678,3.16853,6.55557Q3.223249,6.637463,3.292893,6.707107Q3.362537,6.776751,3.44443,6.83147Q3.526322,6.886188,3.617317,6.923879Q3.708311,6.96157,3.80491,6.980785Q3.9015086,7,4,7Q4.0984914,7,4.19509,6.980785Q4.291689,6.96157,4.382683,6.923879Q4.473678,6.886188,4.55557,6.83147Q4.637463,6.776751,4.707107,6.707107Q4.776751,6.637463,4.83147,6.55557Q4.886188,6.473678,4.923879,6.382683Q4.96157,6.291689,4.980785,6.19509Q5,6.0984914,5,6L3,6Z" fill-rule="evenodd" fill="#231F2E" fill-opacity="1"/></g><g><path d="M19,6Q19,5.9015086,19.019215,5.80491Q19.038429999999998,5.708311,19.076121,5.617317Q19.113812,5.526322,19.16853,5.44443Q19.223249,5.362537,19.292893,5.292893Q19.362537,5.223249,19.44443,5.16853Q19.526322,5.113812,19.617317,5.076121Q19.708311,5.03843,19.80491,5.019215Q19.9015086,5,20,5Q20.0984914,5,20.19509,5.019215Q20.291689,5.03843,20.382683,5.076121Q20.473678,5.113812,20.55557,5.16853Q20.637463,5.223249,20.707107,5.292893Q20.776751,5.362537,20.83147,5.44443Q20.886188,5.526322,20.923879,5.617317Q20.961570000000002,5.708311,20.980785,5.80491Q21,5.9015086,21,6L21,12Q21,12.09849,20.980785,12.19509Q20.961570000000002,12.29169,20.923879,12.38268Q20.886188,12.47368,20.83147,12.55557Q20.776751,12.63746,20.707107,12.70711Q20.637463,12.77675,20.55557,12.83147Q20.473678,12.88619,20.382683,12.92388Q20.291689,12.96157,20.19509,12.98078Q20.0984914,13,20,13Q19.9015086,13,19.80491,12.98078Q19.708311,12.96157,19.617317,12.92388Q19.526322,12.88619,19.44443,12.83147Q19.362537,12.77675,19.292893,12.70711Q19.223249,12.63746,19.16853,12.55557Q19.113812,12.47368,19.076121,12.38268Q19.038429999999998,12.29169,19.019215,12.19509Q19,12.09849,19,12L19,6Z" fill-rule="evenodd" fill="#231F2E" fill-opacity="1"/></g><g><path d="M3,12Q3,11.9015086,3.019215,11.80491Q3.03843,11.708311,3.076121,11.617317Q3.1138120000000002,11.526322,3.16853,11.44443Q3.223249,11.362537,3.292893,11.292893Q3.362537,11.223249,3.44443,11.16853Q3.526322,11.113812,3.617317,11.076121Q3.708311,11.03843,3.80491,11.019214999999999Q3.9015086,11,4,11Q4.0984914,11,4.19509,11.019214999999999Q4.291689,11.03843,4.382683,11.076121Q4.473678,11.113812,4.55557,11.16853Q4.637463,11.223249,4.707107,11.292893Q4.776751,11.362537,4.83147,11.44443Q4.886188,11.526322,4.923879,11.617317Q4.96157,11.708311,4.980785,11.80491Q5,11.9015086,5,12L5,18Q5,18.16055,5.29211,18.41953Q5.76065,18.83492,6.69436,19.18504Q8.867709999999999,20,12,20Q12.19922,20,12.44578,19.99521L12.44653,19.99519Q12.45627,19.995,12.466,19.995Q12.56449,19.995,12.66109,20.01422Q12.75769,20.03343,12.84868,20.07112Q12.93968,20.10881,13.02157,20.16353Q13.10346,20.218249999999998,13.17311,20.28789Q13.24275,20.35754,13.29747,20.43943Q13.35219,20.52132,13.38988,20.61232Q13.42757,20.703310000000002,13.44678,20.79991Q13.466,20.89651,13.466,20.994999999999997Q13.466,21.09227,13.44726,21.1877Q13.42851,21.28314,13.39173,21.373179999999998Q13.35495,21.46322,13.3015,21.54449Q13.24806,21.62575,13.17996,21.69519Q13.11185,21.76463,13.03165,21.81965Q12.95144,21.874670000000002,12.86213,21.91319Q12.77283,21.95172,12.67777,21.97232Q12.58271,21.992919999999998,12.48547,21.99481Q12.21899,22,12,22Q8.50506,22,5.99214,21.05771Q3,19.93572,3.000001,18L3,12Z" fill-rule="evenodd" fill="#231F2E" fill-opacity="1"/></g><g><path d="M17.2786317578125,17.680404984375Q17.3552417578125,17.581731984375,17.3957317578125,17.463555984375Q17.4362217578125,17.345379984375,17.4362217578125,17.220458984375Q17.4362217578125,17.146590484375,17.4218117578125,17.074140984375Q17.4074017578125,17.001691984375,17.3791317578125,16.933445984375Q17.3508617578125,16.865200984375,17.3098217578125,16.803780984375Q17.2687817578125,16.742361984375002,17.2165517578125,16.690128984375Q17.164321757812502,16.637895984375,17.1029017578125,16.596856984375002Q17.041481757812498,16.555817984375,16.9732367578125,16.527548984375Q16.9049907578125,16.499280984375,16.8325417578125,16.484869984375Q16.7600927578125,16.470458984375,16.6862237578125,16.470458984375Q16.6004827578125,16.470458984375,16.5169547578125,16.489809984375Q16.4334267578125,16.509160984375,16.3564207578125,16.546863984375Q16.2794147578125,16.584567984375,16.2129047578125,16.638677984375Q16.1463950578125,16.692787984375,16.0938136578125,16.760512984375Q15.8601647578125,17.061451984375,15.6929047578125,17.403703984375Q15.3636617578125,18.077408984375,15.3214347578125,18.829198984375Q15.2316417578125,20.427848984375,16.3316307578125,21.591348984375Q17.4316217578125,22.754858984374998,19.0327817578125,22.754858984374998Q20.6339417578125,22.754858984374998,21.7339317578125,21.591348984375Q22.8339217578125,20.427848984375,22.7441317578125,18.829198984375Q22.7019017578125,18.077408984375,22.3726617578125,17.403705984375Q22.2054017578125,17.061459984375,21.9717517578125,16.760514984375Q21.9191717578125,16.692789984375,21.8526617578125,16.638678984375Q21.7861517578125,16.584568984375,21.7091417578125,16.546864984375Q21.632141757812498,16.509160984375,21.548611757812502,16.489809984375Q21.4650817578125,16.470458984375,21.3793417578125,16.470458984375Q21.305471757812498,16.470458984375,21.2330217578125,16.484869984375Q21.160571757812498,16.499280984375,21.0923317578125,16.527549984375Q21.0240817578125,16.555817984375,20.962661757812498,16.596856984375002Q20.9012417578125,16.637895984375,20.849011757812498,16.690128984375Q20.7967817578125,16.742361984375002,20.7557417578125,16.803780984375Q20.7147017578125,16.865200984375,20.6864317578125,16.933446984375Q20.6581617578125,17.001691984375,20.6437517578125,17.074140984375Q20.6293417578125,17.146590484375,20.6293417578125,17.220458984375Q20.6293417578125,17.345378984375,20.6698317578125,17.463554984375Q20.7103217578125,17.581731984375,20.7869317578125,17.680403984375Q20.925671757812502,17.859108984375,21.0249817578125,18.062316984375Q21.2212517578125,18.463918984375,21.2464917578125,18.913318984375Q21.3000517578125,19.866868984375,20.6439417578125,20.560858984375Q19.9878317578125,21.254858984374998,19.0327817578125,21.254858984374998Q18.0777317578125,21.254858984374998,17.4216217578125,20.560858984375Q16.7655157578125,19.866868984375,16.8190747578125,18.913318984375Q16.8443167578125,18.463918984375,17.040579757812502,18.062318984375Q17.1398917578125,17.859106984375,17.2786317578125,17.680404984375Z" fill-rule="evenodd" fill="#2882FF" fill-opacity="1"/></g><g><path d="M18.2828369140625,16.00482177734375Q18.2828369140625,15.93095327734375,18.2972479140625,15.85850377734375Q18.3116589140625,15.78605477734375,18.3399269140625,15.71780877734375Q18.3681959140625,15.64956377734375,18.409234914062502,15.58814377734375Q18.4502739140625,15.52672477734375,18.5025069140625,15.47449177734375Q18.554739914062502,15.42225877734375,18.6161589140625,15.38121977734375Q18.6775789140625,15.34018077734375,18.7458239140625,15.31191177734375Q18.8140699140625,15.28364377734375,18.8865189140625,15.269232777343749Q18.9589684140625,15.25482177734375,19.0328369140625,15.25482177734375Q19.1067054140625,15.25482177734375,19.1791549140625,15.269232777343749Q19.2516039140625,15.28364377734375,19.3198499140625,15.31191177734375Q19.3880949140625,15.34018077734375,19.4495149140625,15.38121977734375Q19.510933914062498,15.42225877734375,19.5631669140625,15.47449177734375Q19.6153999140625,15.52672477734375,19.656438914062498,15.58814377734375Q19.6974779140625,15.64956377734375,19.7257469140625,15.71780877734375Q19.7540149140625,15.78605477734375,19.7684259140625,15.85850377734375Q19.7828369140625,15.93095327734375,19.7828369140625,16.00482177734375L19.7828369140625,19.06773177734375Q19.7828369140625,19.14160177734375,19.7684259140625,19.214051777343748Q19.7540149140625,19.28650177734375,19.7257469140625,19.35475177734375Q19.6974779140625,19.42299177734375,19.656438914062498,19.48441177734375Q19.6153999140625,19.54583177734375,19.5631669140625,19.59806177734375Q19.510933914062498,19.65030177734375,19.4495149140625,19.69133177734375Q19.3880949140625,19.73237177734375,19.3198499140625,19.76064177734375Q19.2516039140625,19.78891177734375,19.1791549140625,19.80332177734375Q19.1067054140625,19.81773177734375,19.0328369140625,19.81773177734375Q18.9589684140625,19.81773177734375,18.8865189140625,19.80332177734375Q18.8140699140625,19.78891177734375,18.7458239140625,19.76064177734375Q18.6775789140625,19.73237177734375,18.6161589140625,19.69133177734375Q18.554739914062502,19.65030177734375,18.5025069140625,19.59806177734375Q18.4502739140625,19.54583177734375,18.409234914062502,19.48441177734375Q18.3681959140625,19.42299177734375,18.3399269140625,19.35475177734375Q18.3116589140625,19.28650177734375,18.2972479140625,19.214051777343748Q18.2828369140625,19.14160177734375,18.2828369140625,19.06773177734375L18.2828369140625,16.00482177734375Z" fill-rule="evenodd" fill="#2882FF" fill-opacity="1"/></g></g></svg>