<svg xmlns="http://www.w3.org/2000/svg" xmlns:xlink="http://www.w3.org/1999/xlink" fill="none" version="1.1" width="24" height="24" viewBox="0 0 24 24"><defs><clipPath id="master_svg0_62_07023"><rect x="0" y="0" width="24" height="24" rx="0"/></clipPath></defs><g clip-path="url(#master_svg0_62_07023)"><g><path d="M10,3.7548828125L2,3.7548828125L2,5.2548828125L10,5.2548828125Q10.07387,5.2548828125,10.14632,5.2692938125Q10.21877,5.2837048125,10.28701,5.3119728125Q10.35526,5.3402418125,10.41668,5.3812808125Q10.4781,5.4223198125,10.53033,5.4745528125Q10.58256,5.5267828125000005,10.6236,5.5882028125000005Q10.66464,5.6496228125000005,10.69291,5.7178728125Q10.72118,5.7861128125,10.73559,5.8585628125Q10.75,5.9310128125,10.75,6.0048828125L10.75,9.5048828125L12.25,9.5048828125L12.25,6.0048828125C12.25,4.7622418125,11.24264,3.7548828125,10,3.7548828125Z" fill-rule="evenodd" fill="#231F2E" fill-opacity="1"/></g><g><path d="M12.25,14.5048828125L10.75,14.5048828125L10.75,18.0048828125Q10.75,18.0787528125,10.73559,18.1512028125Q10.72118,18.2236528125,10.69291,18.2918928125Q10.66464,18.3601428125,10.6236,18.4215628125Q10.58256,18.4829828125,10.53033,18.5352128125Q10.4781,18.5874428125,10.41668,18.6284828125Q10.35526,18.6695228125,10.28701,18.6977928125Q10.21877,18.7260628125,10.14632,18.740472812500002Q10.07387,18.7548828125,10,18.7548828125L2,18.7548828125L2,20.2548828125L10,20.2548828125C11.24264,20.2548828125,12.25,19.2475228125,12.25,18.0048828125L12.25,14.5048828125Z" fill-rule="evenodd" fill="#231F2E" fill-opacity="1"/></g><g><rect x="2" y="9.5048828125" width="15.5" height="5" rx="0" fill="#13943C" fill-opacity="0.20000000298023224"/><path d="M2,13.7548828125L2,15.2548828125L17.5,15.2548828125Q17.573900000000002,15.2548828125,17.6463,15.2404728125Q17.7188,15.2260628125,17.787,15.197792812500001Q17.8553,15.1695228125,17.9167,15.1284828125Q17.978099999999998,15.0874428125,18.0303,15.0352128125Q18.0826,14.982982812500001,18.1236,14.9215628125Q18.1646,14.860142812500001,18.1929,14.7918928125Q18.2212,14.7236528125,18.2356,14.6512028125Q18.25,14.5787528125,18.25,14.5048828125L18.25,9.5048828125Q18.25,9.4310143125,18.2356,9.3585648125Q18.2212,9.2861158125,18.1929,9.2178698125Q18.1646,9.1496248125,18.1236,9.0882048125Q18.0826,9.0267858125,18.0303,8.9745528125Q17.978099999999998,8.9223198125,17.9167,8.8812808125Q17.8553,8.8402418125,17.787,8.8119728125Q17.7188,8.7837048125,17.6463,8.769293812499999Q17.573900000000002,8.7548828125,17.5,8.7548828125L2,8.7548828125L2,10.2548828125L16.75,10.2548828125L16.75,13.7548828125L2,13.7548828125Z" fill-rule="evenodd" fill="#13943C" fill-opacity="1"/></g><g><g transform="matrix(0,1,-1,0,34,-10)"><path d="M20.25,12Q20.25,11.914028,20.25843,11.82847Q20.26685,11.742912,20.28363,11.658592Q20.3004,11.574272,20.32535,11.492002Q20.35031,11.409732,20.38321,11.330304Q20.41611,11.250876,20.45664,11.175056Q20.49716,11.099235,20.54493,11.027752Q20.59269,10.95627,20.64723,10.88981Q20.70177,10.82335,20.76256,10.76256Q20.82335,10.70177,20.88981,10.64723Q20.95627,10.59269,21.027752,10.54493Q21.099235,10.497160000000001,21.175056,10.45664Q21.250876,10.41611,21.330304,10.38321Q21.409731999999998,10.35031,21.492002,10.32535Q21.574272,10.3004,21.658592,10.28363Q21.742912,10.26685,21.82847,10.25843Q21.914028,10.25,22,10.25Q22.085972,10.25,22.17153,10.25843Q22.257088,10.26685,22.341408,10.28363Q22.425728,10.3004,22.507998,10.32535Q22.590268000000002,10.35031,22.669696,10.38321Q22.749124,10.41611,22.824944,10.45664Q22.900765,10.497160000000001,22.972248,10.54493Q23.04373,10.59269,23.11019,10.64723Q23.17665,10.70177,23.23744,10.76256Q23.29823,10.82335,23.35277,10.88981Q23.40731,10.95627,23.45507,11.027752Q23.50284,11.099235,23.54336,11.175056Q23.58389,11.250876,23.61679,11.330304Q23.64969,11.409732,23.67465,11.492002Q23.6996,11.574272,23.71637,11.658592Q23.73315,11.742912,23.74157,11.82847Q23.75,11.914028,23.75,12L23.75,20Q23.75,20.08597,23.74157,20.17153Q23.73315,20.257089999999998,23.71637,20.34141Q23.6996,20.42573,23.67465,20.508Q23.64969,20.59027,23.61679,20.6697Q23.58389,20.749119999999998,23.54336,20.824939999999998Q23.50284,20.90076,23.45507,20.972250000000003Q23.40731,21.04373,23.35277,21.11019Q23.29823,21.176650000000002,23.23744,21.23744Q23.17665,21.29823,23.11019,21.35277Q23.04373,21.407310000000003,22.972248,21.45507Q22.900765,21.50283,22.824944,21.54336Q22.749124,21.58389,22.669696,21.61679Q22.590268000000002,21.64969,22.507998,21.67464Q22.425728,21.6996,22.341408,21.716369999999998Q22.257088,21.733150000000002,22.17153,21.74157Q22.085972,21.75,22,21.75Q21.914028,21.75,21.82847,21.74157Q21.742912,21.733150000000002,21.658592,21.716369999999998Q21.574272,21.6996,21.492002,21.67464Q21.409731999999998,21.64969,21.330304,21.61679Q21.250876,21.58389,21.175056,21.54336Q21.099235,21.50283,21.027752,21.45507Q20.95627,21.407310000000003,20.88981,21.35277Q20.82335,21.29823,20.76256,21.23744Q20.70177,21.176650000000002,20.64723,21.11019Q20.59269,21.04373,20.54493,20.972250000000003Q20.49716,20.90076,20.45664,20.824939999999998Q20.41611,20.749119999999998,20.38321,20.6697Q20.35031,20.59027,20.32535,20.508Q20.3004,20.42573,20.28363,20.34141Q20.26685,20.257089999999998,20.25843,20.17153Q20.25,20.08597,20.25,20L20.25,12Z" fill-rule="evenodd" fill="#FFFFFF" fill-opacity="1" style="mix-blend-mode:passthrough"/></g><g transform="matrix(0,1,-1,0,26,-8)"><path d="M15.76256,10.23744Q15.64069,10.11556,15.54493,9.972248Q15.44917,9.828936,15.38321,9.669696Q15.31725,9.510456,15.28363,9.341408Q15.25,9.17236,15.25,9Q15.25,8.914028,15.25843,8.82847Q15.26685,8.742912,15.28363,8.658592Q15.3004,8.574272,15.32535,8.492002Q15.35031,8.409732,15.38321,8.330304Q15.41611,8.250876,15.45664,8.175056Q15.497160000000001,8.099235,15.54493,8.027752Q15.59269,7.95627,15.64723,7.88981Q15.70177,7.82335,15.76256,7.76256Q15.82335,7.70177,15.88981,7.64723Q15.95627,7.59269,16.027752,7.54493Q16.099235,7.49716,16.175056,7.45664Q16.250876,7.41611,16.330304,7.38321Q16.409731999999998,7.35031,16.492002,7.32535Q16.574272,7.3004,16.658592,7.2836300000000005Q16.742912,7.26685,16.82847,7.25843Q16.914028,7.25,17,7.25Q17.17236,7.25,17.341408,7.2836300000000005Q17.510456,7.31725,17.669696,7.38321Q17.828936,7.4491700000000005,17.972248,7.54493Q18.11556,7.64069,18.23744,7.76256L20,9.525126L21.76256,7.76256Q21.884439999999998,7.64069,22.02775,7.54493Q22.17106,7.4491700000000005,22.3303,7.38321Q22.489539999999998,7.31725,22.65859,7.2836300000000005Q22.82764,7.25,23,7.25Q23.08597,7.25,23.17153,7.25843Q23.257089999999998,7.26685,23.34141,7.2836300000000005Q23.42573,7.3004,23.508,7.32535Q23.59027,7.35031,23.66969,7.38321Q23.749119999999998,7.41611,23.824939999999998,7.45664Q23.90076,7.49716,23.97225,7.54493Q24.04373,7.59269,24.11019,7.64723Q24.176650000000002,7.70177,24.23744,7.76256Q24.29823,7.82335,24.35277,7.88981Q24.40731,7.95627,24.45507,8.027752Q24.50284,8.099235,24.54336,8.175056Q24.58389,8.250876,24.61679,8.330304Q24.64969,8.409732,24.67465,8.492002Q24.6996,8.574272,24.71637,8.658592Q24.733150000000002,8.742912,24.74157,8.82847Q24.75,8.914028,24.75,9Q24.75,9.17236,24.71637,9.341408Q24.68275,9.510456,24.61679,9.669696Q24.55083,9.828936,24.45507,9.972248Q24.35931,10.11556,24.23744,10.23744L21.23744,13.23744Q21.115560000000002,13.35931,20.97225,13.45507Q20.82894,13.550830000000001,20.6697,13.61679Q20.510460000000002,13.68275,20.34141,13.716370000000001Q20.17236,13.75,20,13.75Q19.82764,13.75,19.65859,13.716370000000001Q19.489539999999998,13.68275,19.3303,13.61679Q19.17106,13.550830000000001,19.02775,13.45507Q18.88444,13.35931,18.76256,13.23744L15.76256,10.23744L15.76256,10.23744Z" fill-rule="evenodd" fill="#FFFFFF" fill-opacity="1" style="mix-blend-mode:passthrough"/></g></g><g><g transform="matrix(0,1,-1,0,34,-10)"><path d="M21.25,12Q21.25,11.9261315,21.264411,11.853682Q21.278822,11.781233,21.30709,11.712987Q21.335359,11.644742,21.376398000000002,11.583322Q21.417437,11.521903,21.46967,11.46967Q21.521903000000002,11.417437,21.583322,11.376398Q21.644742,11.335359,21.712987,11.30709Q21.781233,11.278822,21.853682,11.264410999999999Q21.9261315,11.25,22,11.25Q22.0738685,11.25,22.146318,11.264410999999999Q22.218767,11.278822,22.287013,11.30709Q22.355258,11.335359,22.416678,11.376398Q22.478096999999998,11.417437,22.53033,11.46967Q22.582563,11.521903,22.623601999999998,11.583322Q22.664641,11.644742,22.69291,11.712987Q22.721178,11.781233,22.735589,11.853682Q22.75,11.9261315,22.75,12L22.75,20Q22.75,20.07387,22.735589,20.14632Q22.721178,20.21877,22.69291,20.287010000000002Q22.664641,20.35526,22.623601999999998,20.41668Q22.582563,20.478099999999998,22.53033,20.53033Q22.478096999999998,20.58256,22.416678,20.6236Q22.355258,20.66464,22.287013,20.692909999999998Q22.218767,20.72118,22.146318,20.735590000000002Q22.0738685,20.75,22,20.75Q21.9261315,20.75,21.853682,20.735590000000002Q21.781233,20.72118,21.712987,20.692909999999998Q21.644742,20.66464,21.583322,20.6236Q21.521903000000002,20.58256,21.46967,20.53033Q21.417437,20.478099999999998,21.376398000000002,20.41668Q21.335359,20.35526,21.30709,20.287010000000002Q21.278822,20.21877,21.264411,20.14632Q21.25,20.07387,21.25,20L21.25,12Z" fill-rule="evenodd" fill="#13943C" fill-opacity="1" style="mix-blend-mode:passthrough"/></g><g transform="matrix(0,1,-1,0,26,-8)"><path d="M17.530484,8.469824L20,10.93934L22.46921,8.470132L22.46967,8.46967Q22.57516,8.364181,22.712989999999998,8.30709Q22.85082,8.25,23,8.25Q23.07387,8.25,23.14632,8.264410999999999Q23.21877,8.278822,23.287010000000002,8.30709Q23.35526,8.335359,23.41668,8.376398Q23.4781,8.417437,23.53033,8.46967Q23.58256,8.521903,23.6236,8.583322Q23.66464,8.644742,23.69291,8.712987Q23.72118,8.781233,23.735590000000002,8.853682Q23.75,8.9261315,23.75,9Q23.75,9.149184,23.69291,9.287013Q23.63582,9.424841,23.53033,9.53033L23.52987,9.530792L20.53033,12.53033Q20.42484,12.635819999999999,20.28701,12.69291Q20.14918,12.75,20,12.75Q19.85082,12.75,19.71299,12.69291Q19.57516,12.635819999999999,19.46967,12.53033L16.46967,9.53033Q16.364181,9.424841,16.30709,9.287013Q16.25,9.149184,16.25,9Q16.25,8.9261315,16.264411,8.853682Q16.278822,8.781233,16.30709,8.712987Q16.335359,8.644742,16.376398000000002,8.583322Q16.417437,8.521903,16.46967,8.46967Q16.521903000000002,8.417437,16.583322,8.376398Q16.644742,8.335359,16.712987,8.30709Q16.781233,8.278822,16.853682,8.264410999999999Q16.9261315,8.25,17,8.25Q17.149184,8.25,17.287013,8.30709Q17.424841,8.364181,17.53033,8.46967L17.530484,8.469824Z" fill-rule="evenodd" fill="#13943C" fill-opacity="1" style="mix-blend-mode:passthrough"/></g></g></g></svg>