<svg xmlns="http://www.w3.org/2000/svg" xmlns:xlink="http://www.w3.org/1999/xlink" fill="none" version="1.1" width="24" height="24" viewBox="0 0 24 24"><defs><clipPath id="master_svg0_48_03338"><rect x="0" y="0" width="24" height="24" rx="0"/></clipPath></defs><g clip-path="url(#master_svg0_48_03338)"><g><path d="M13.5,16L3.5,16C2.947715,16,2.5,15.55229,2.5,15L2.5,7C2.5,6.447715,2.947715,6,3.5,6L13.5,6" fill="#2882FF" fill-opacity="0.30000001192092896"/><path d="M3.5,6.75L13.5,6.75Q13.5739,6.75,13.6463,6.735589Q13.7188,6.721178,13.787,6.69291Q13.8553,6.664641,13.9167,6.623602Q13.9781,6.582563,14.0303,6.53033Q14.0826,6.478097,14.1236,6.416678Q14.1646,6.355258,14.1929,6.287013Q14.2212,6.218767,14.2356,6.146318Q14.25,6.0738685,14.25,6Q14.25,5.9261315,14.2356,5.853682Q14.2212,5.781233,14.1929,5.712987Q14.1646,5.644742,14.1236,5.583322Q14.0826,5.521903,14.0303,5.46967Q13.9781,5.417437,13.9167,5.376398Q13.8553,5.335359,13.787,5.30709Q13.7188,5.278822,13.6463,5.264411Q13.5739,5.25,13.5,5.25L3.5,5.25Q2.775126,5.25,2.262563,5.762563Q1.75,6.275126,1.75,7L1.75,15Q1.75,15.72487,2.262563,16.2374Q2.775126,16.75,3.5,16.75L13.5,16.75Q13.5739,16.75,13.6463,16.735599999999998Q13.7188,16.7212,13.787,16.6929Q13.8553,16.6646,13.9167,16.6236Q13.9781,16.5826,14.0303,16.5303Q14.0826,16.478099999999998,14.1236,16.4167Q14.1646,16.3553,14.1929,16.287Q14.2212,16.2188,14.2356,16.1463Q14.25,16.073900000000002,14.25,16Q14.25,15.92613,14.2356,15.85368Q14.2212,15.78123,14.1929,15.71299Q14.1646,15.64474,14.1236,15.58332Q14.0826,15.5219,14.0303,15.46967Q13.9781,15.41744,13.9167,15.3764Q13.8553,15.33536,13.787,15.30709Q13.7188,15.27882,13.6463,15.26441Q13.5739,15.25,13.5,15.25L3.5,15.25Q3.25,15.25,3.25,15L3.25,7Q3.25,6.75,3.5,6.75Z" fill-rule="evenodd" fill="#231F2E" fill-opacity="1"/></g><g><path d="M7,19.25L10,19.25Q10.07387,19.25,10.14632,19.264411Q10.21877,19.278822,10.28701,19.30709Q10.35526,19.335359,10.41668,19.376398000000002Q10.4781,19.417437,10.53033,19.46967Q10.58256,19.521903000000002,10.6236,19.583322Q10.66464,19.644742,10.69291,19.712987Q10.72118,19.781233,10.73559,19.853682Q10.75,19.9261315,10.75,20Q10.75,20.0738685,10.73559,20.146318Q10.72118,20.218767,10.69291,20.287013Q10.66464,20.355258,10.6236,20.416678Q10.58256,20.478096999999998,10.53033,20.53033Q10.4781,20.582563,10.41668,20.623601999999998Q10.35526,20.664641,10.28701,20.69291Q10.21877,20.721178,10.14632,20.735589Q10.07387,20.75,10,20.75L7,20.75Q6.9261315,20.75,6.853682,20.735589Q6.781233,20.721178,6.712987,20.69291Q6.644742,20.664641,6.583322,20.623601999999998Q6.521903,20.582563,6.46967,20.53033Q6.417437,20.478096999999998,6.376398,20.416678Q6.335359,20.355258,6.30709,20.287013Q6.278822,20.218767,6.264411,20.146318Q6.25,20.0738685,6.25,20Q6.25,19.9261315,6.264411,19.853682Q6.278822,19.781233,6.30709,19.712987Q6.335359,19.644742,6.376398,19.583322Q6.417437,19.521903000000002,6.46967,19.46967Q6.521903,19.417437,6.583322,19.376398000000002Q6.644742,19.335359,6.712987,19.30709Q6.781233,19.278822,6.853682,19.264411Q6.9261315,19.25,7,19.25Z" fill-rule="evenodd" fill="#231F2E" fill-opacity="1"/></g><g><path d="M7.75,16Q7.75,15.9261315,7.764411,15.853682Q7.778822,15.781233,7.80709,15.712987Q7.835359,15.644742,7.876398,15.583322Q7.917437,15.521903,7.96967,15.46967Q8.021903,15.417437,8.083322,15.376398Q8.144742,15.335359,8.212987,15.30709Q8.281233,15.278822,8.353682,15.264410999999999Q8.4261315,15.25,8.5,15.25Q8.5738685,15.25,8.646318,15.264410999999999Q8.718767,15.278822,8.787013,15.30709Q8.855258,15.335359,8.916678,15.376398Q8.978097,15.417437,9.03033,15.46967Q9.082563,15.521903,9.123602,15.583322Q9.164641,15.644742,9.19291,15.712987Q9.221178,15.781233,9.235589000000001,15.853682Q9.25,15.9261315,9.25,16L9.25,20Q9.25,20.07387,9.235589000000001,20.14632Q9.221178,20.21877,9.19291,20.287010000000002Q9.164641,20.35526,9.123602,20.41668Q9.082563,20.4781,9.03033,20.53033Q8.978097,20.58256,8.916678,20.6236Q8.855258,20.66464,8.787013,20.69291Q8.718767,20.72118,8.646318,20.735590000000002Q8.5738685,20.75,8.5,20.75Q8.4261315,20.75,8.353682,20.735590000000002Q8.281233,20.72118,8.212987,20.69291Q8.144742,20.66464,8.083322,20.6236Q8.021903,20.58256,7.96967,20.53033Q7.917437,20.4781,7.876398,20.41668Q7.835359,20.35526,7.80709,20.287010000000002Q7.778822,20.21877,7.764411,20.14632Q7.75,20.07387,7.75,20L7.75,16Z" fill-rule="evenodd" fill="#231F2E" fill-opacity="1"/></g><g><g><path d="M12.75,5L12.75,19Q12.75,19.724899999999998,13.262563,20.2374Q13.775126,20.75,14.5,20.75L20.5,20.75Q21.22487,20.75,21.73744,20.2374Q22.25,19.724899999999998,22.25,19L22.25,5Q22.25,4.275126,21.73744,3.762563Q21.22487,3.25,20.5,3.25L14.5,3.25Q13.775126,3.25,13.262563,3.762563Q12.75,4.275126,12.75,5ZM14.323223,19.1768Q14.25,19.1036,14.25,19L14.25,5Q14.25,4.896446,14.323223,4.8232230000000005Q14.396446,4.75,14.5,4.75L20.5,4.75Q20.75,4.75,20.75,5L20.75,19Q20.75,19.25,20.5,19.25L14.5,19.25Q14.396446,19.25,14.323223,19.1768Z" fill-rule="evenodd" fill="#231F2E" fill-opacity="1"/></g><g><path d="M18.73744,14.762563Q18.22487,14.25,17.5,14.25Q16.775127,14.25,16.262564,14.762563Q15.75,15.275126,15.75,16Q15.75,16.72487,16.262563,17.23744Q16.775126,17.75,17.5,17.75Q18.22487,17.75,18.73744,17.23744Q19.25,16.72487,19.25,16Q19.25,15.275126,18.73744,14.762563ZM17.323223,15.823223Q17.396447,15.75,17.5,15.75Q17.60355,15.75,17.67678,15.823223Q17.75,15.896447,17.75,16Q17.75,16.10355,17.67678,16.17678Q17.60355,16.25,17.5,16.25Q17.396447,16.25,17.323223,16.17678Q17.25,16.10355,17.25,16Q17.25,15.896447,17.323223,15.823223Z" fill-rule="evenodd" fill="#2882FF" fill-opacity="1"/></g><g><path d="M16.5,6.75L18.5,6.75Q18.57387,6.75,18.64632,6.764411Q18.71877,6.778822,18.78701,6.80709Q18.85526,6.835359,18.91668,6.876398Q18.9781,6.917437,19.03033,6.96967Q19.08256,7.021903,19.1236,7.083322Q19.16464,7.144742,19.19291,7.212987Q19.22118,7.281233,19.235590000000002,7.353682Q19.25,7.4261315,19.25,7.5Q19.25,7.5738685,19.235590000000002,7.646318Q19.22118,7.718767,19.19291,7.787013Q19.16464,7.855258,19.1236,7.916678Q19.08256,7.978097,19.03033,8.03033Q18.9781,8.082563,18.91668,8.123602Q18.85526,8.164641,18.78701,8.19291Q18.71877,8.221178,18.64632,8.235589000000001Q18.57387,8.25,18.5,8.25L16.5,8.25Q16.4261315,8.25,16.353682,8.235589000000001Q16.281233,8.221178,16.212987,8.19291Q16.144742,8.164641,16.083322,8.123602Q16.021903000000002,8.082563,15.96967,8.03033Q15.917437,7.978097,15.876398,7.916678Q15.835359,7.855258,15.80709,7.787013Q15.778822,7.718767,15.764410999999999,7.646318Q15.75,7.5738685,15.75,7.5Q15.75,7.4261315,15.764410999999999,7.353682Q15.778822,7.281233,15.80709,7.212987Q15.835359,7.144742,15.876398,7.083322Q15.917437,7.021903,15.96967,6.96967Q16.021903000000002,6.917437,16.083322,6.876398Q16.144742,6.835359,16.212987,6.80709Q16.281233,6.778822,16.353682,6.764411Q16.4261315,6.75,16.5,6.75Z" fill-rule="evenodd" fill="#2882FF" fill-opacity="1"/></g><g><path d="M16.5,9.75L18.5,9.75Q18.57387,9.75,18.64632,9.764410999999999Q18.71877,9.778822,18.78701,9.80709Q18.85526,9.835359,18.91668,9.876398Q18.9781,9.917437,19.03033,9.96967Q19.08256,10.021903,19.1236,10.083322Q19.16464,10.144742,19.19291,10.212987Q19.22118,10.281233,19.235590000000002,10.353682Q19.25,10.4261315,19.25,10.5Q19.25,10.5738685,19.235590000000002,10.646318Q19.22118,10.718767,19.19291,10.787013Q19.16464,10.855258,19.1236,10.916678Q19.08256,10.978097,19.03033,11.03033Q18.9781,11.082563,18.91668,11.123602Q18.85526,11.164641,18.78701,11.19291Q18.71877,11.221178,18.64632,11.235589000000001Q18.57387,11.25,18.5,11.25L16.5,11.25Q16.4261315,11.25,16.353682,11.235589000000001Q16.281233,11.221178,16.212987,11.19291Q16.144742,11.164641,16.083322,11.123602Q16.021903000000002,11.082563,15.96967,11.03033Q15.917437,10.978097,15.876398,10.916678Q15.835359,10.855258,15.80709,10.787013Q15.778822,10.718767,15.764410999999999,10.646318Q15.75,10.5738685,15.75,10.5Q15.75,10.4261315,15.764410999999999,10.353682Q15.778822,10.281233,15.80709,10.212987Q15.835359,10.144742,15.876398,10.083322Q15.917437,10.021903,15.96967,9.96967Q16.021903000000002,9.917437,16.083322,9.876398Q16.144742,9.835359,16.212987,9.80709Q16.281233,9.778822,16.353682,9.764410999999999Q16.4261315,9.75,16.5,9.75Z" fill-rule="evenodd" fill="#2882FF" fill-opacity="1"/></g></g></g></svg>