<svg xmlns="http://www.w3.org/2000/svg" xmlns:xlink="http://www.w3.org/1999/xlink" fill="none" version="1.1" width="24" height="24" viewBox="0 0 24 24"><defs><clipPath id="master_svg0_72_03206"><rect x="0" y="0" width="24" height="24" rx="0"/></clipPath><clipPath id="master_svg1_75_02997"><rect x="1" y="1" width="22" height="22" rx="0"/></clipPath></defs><g clip-path="url(#master_svg0_72_03206)"><g clip-path="url(#master_svg1_75_02997)"><g></g><g><path d="M7.58333,12.74998298828125L7.58333,15.66664298828125Q7.58333,15.74051298828125,7.59774,15.81296298828125Q7.61215,15.88541298828125,7.640420000000001,15.953652988281249Q7.66869,16.021902988281248,7.70973,16.08332298828125Q7.75077,16.14474298828125,7.803,16.19697298828125Q7.85524,16.24920298828125,7.91666,16.29024298828125Q7.97807,16.33128298828125,8.04632,16.35955298828125Q8.11457,16.38782298828125,8.18702,16.40223298828125Q8.25946,16.41664298828125,8.33333,16.41664298828125Q8.4072,16.41664298828125,8.47965,16.40223298828125Q8.5521,16.38782298828125,8.62035,16.35955298828125Q8.68859,16.33128298828125,8.75001,16.29024298828125Q8.81143,16.24920298828125,8.86366,16.19697298828125Q8.9159,16.14474298828125,8.95694,16.08332298828125Q8.997969999999999,16.021902988281248,9.02624,15.953652988281249Q9.05451,15.88541298828125,9.06892,15.81296298828125Q9.08333,15.74051298828125,9.08333,15.66664298828125L9.08333,10.62498298828125Q9.08333,9.36508298828125,8.192450000000001,8.47419598828125Q7.30157,7.58331298828125,6.04167,7.58331298828125Q4.78177,7.58331298828125,3.890884,8.47419598828125Q3,9.36508298828125,3,10.62498298828125L3,11.99998298828125L3,15.66664298828125Q3,15.74051298828125,3.014411,15.81296298828125Q3.028822,15.88541298828125,3.05709,15.953652988281249Q3.085359,16.021902988281248,3.126398,16.08332298828125Q3.167437,16.14474298828125,3.21967,16.19697298828125Q3.271903,16.24920298828125,3.333322,16.29024298828125Q3.394742,16.33128298828125,3.462987,16.35955298828125Q3.531233,16.38782298828125,3.603682,16.40223298828125Q3.6761315,16.41664298828125,3.75,16.41664298828125Q3.8238685,16.41664298828125,3.896318,16.40223298828125Q3.968767,16.38782298828125,4.037013,16.35955298828125Q4.105258,16.33128298828125,4.166678,16.29024298828125Q4.228097,16.24920298828125,4.28033,16.19697298828125Q4.332563,16.14474298828125,4.373602,16.08332298828125Q4.414641,16.021902988281248,4.44291,15.953652988281249Q4.471178,15.88541298828125,4.485589,15.81296298828125Q4.5,15.74051298828125,4.5,15.66664298828125L4.5,12.74998298828125L7.58333,12.74998298828125ZM7.58333,11.24998298828125L7.58333,10.62498298828125Q7.58333,9.98640298828125,7.1317900000000005,9.53485298828125Q6.68025,9.08331298828125,6.04167,9.08331298828125Q5.40309,9.08331298828125,4.95154,9.53485298828125Q4.5,9.98640298828125,4.5,10.62498298828125L4.5,11.24998298828125L7.58333,11.24998298828125Z" fill-rule="evenodd" fill="#231F2E" fill-opacity="1" style="mix-blend-mode:passthrough"/></g><g><path d="M19.503330076293945,12.74998298828125L19.503330076293945,15.66664298828125Q19.503330076293945,15.74051298828125,19.517740076293947,15.81296298828125Q19.532150076293945,15.88541298828125,19.560420076293944,15.953652988281249Q19.588690076293943,16.021902988281248,19.629730076293946,16.08332298828125Q19.670770076293945,16.14474298828125,19.723000076293946,16.19697298828125Q19.775240076293947,16.24920298828125,19.836660076293946,16.29024298828125Q19.898070076293944,16.33128298828125,19.966320076293947,16.35955298828125Q20.034570076293946,16.38782298828125,20.107020076293946,16.40223298828125Q20.179460076293946,16.41664298828125,20.253330076293945,16.41664298828125Q20.327200076293945,16.41664298828125,20.399650076293945,16.40223298828125Q20.472100076293945,16.38782298828125,20.540350076293947,16.35955298828125Q20.608590076293943,16.33128298828125,20.670010076293945,16.29024298828125Q20.731430076293947,16.24920298828125,20.783660076293945,16.19697298828125Q20.835900076293946,16.14474298828125,20.876940076293945,16.08332298828125Q20.917970076293944,16.021902988281248,20.946240076293947,15.953652988281249Q20.974510076293946,15.88541298828125,20.988920076293944,15.81296298828125Q21.003330076293945,15.74051298828125,21.003330076293945,15.66664298828125L21.003330076293945,10.62498298828125Q21.003330076293945,9.36508298828125,20.112450076293946,8.47419598828125Q19.221570076293943,7.58331298828125,17.961670076293945,7.58331298828125Q16.701770076293947,7.58331298828125,15.810884076293945,8.47419598828125Q14.920000076293945,9.36508298828125,14.920000076293945,10.62498298828125L14.920000076293945,11.99998298828125L14.920000076293945,15.66664298828125Q14.920000076293945,15.74051298828125,14.934411076293944,15.81296298828125Q14.948822076293945,15.88541298828125,14.977090076293946,15.953652988281249Q15.005359076293946,16.021902988281248,15.046398076293945,16.08332298828125Q15.087437076293945,16.14474298828125,15.139670076293946,16.19697298828125Q15.191903076293945,16.24920298828125,15.253322076293946,16.29024298828125Q15.314742076293946,16.33128298828125,15.382987076293945,16.35955298828125Q15.451233076293946,16.38782298828125,15.523682076293944,16.40223298828125Q15.596131576293946,16.41664298828125,15.670000076293945,16.41664298828125Q15.743868576293945,16.41664298828125,15.816318076293946,16.40223298828125Q15.888767076293945,16.38782298828125,15.957013076293945,16.35955298828125Q16.025258076293944,16.33128298828125,16.086678076293946,16.29024298828125Q16.148097076293944,16.24920298828125,16.200330076293945,16.19697298828125Q16.252563076293946,16.14474298828125,16.293602076293944,16.08332298828125Q16.334641076293945,16.021902988281248,16.362910076293947,15.953652988281249Q16.391178076293944,15.88541298828125,16.405589076293946,15.81296298828125Q16.420000076293945,15.74051298828125,16.420000076293945,15.66664298828125L16.420000076293945,12.74998298828125L19.503330076293945,12.74998298828125ZM19.503330076293945,11.24998298828125L19.503330076293945,10.62498298828125Q19.503330076293945,9.98640298828125,19.051790076293944,9.53485298828125Q18.600250076293946,9.08331298828125,17.961670076293945,9.08331298828125Q17.323090076293944,9.08331298828125,16.871540076293947,9.53485298828125Q16.420000076293945,9.98640298828125,16.420000076293945,10.62498298828125L16.420000076293945,11.24998298828125L19.503330076293945,11.24998298828125Z" fill-rule="evenodd" fill="#231F2E" fill-opacity="1" style="mix-blend-mode:passthrough"/></g><g><path d="M11.25,6.5Q11.25,6.4261315,11.264410999999999,6.353682Q11.278822,6.281233,11.30709,6.212987Q11.335359,6.144742,11.376398,6.083322Q11.417437,6.021903,11.46967,5.96967Q11.521903,5.917437,11.583322,5.876398Q11.644742,5.835359,11.712987,5.80709Q11.781233,5.778822,11.853682,5.764411Q11.9261315,5.75,12,5.75Q12.0738685,5.75,12.146318,5.764411Q12.218767,5.778822,12.287013,5.80709Q12.355258,5.835359,12.416678,5.876398Q12.478097,5.917437,12.53033,5.96967Q12.582563,6.021903,12.623602,6.083322Q12.664641,6.144742,12.69291,6.212987Q12.721178,6.281233,12.735589000000001,6.353682Q12.75,6.4261315,12.75,6.5L12.75,17.5Q12.75,17.573900000000002,12.735589000000001,17.6463Q12.721178,17.7188,12.69291,17.787Q12.664641,17.8553,12.623602,17.9167Q12.582563,17.978099999999998,12.53033,18.0303Q12.478097,18.0826,12.416678,18.1236Q12.355258,18.1646,12.287013,18.1929Q12.218767,18.2212,12.146318,18.235599999999998Q12.0738685,18.25,12,18.25Q11.9261315,18.25,11.853682,18.235599999999998Q11.781233,18.2212,11.712987,18.1929Q11.644742,18.1646,11.583322,18.1236Q11.521903,18.0826,11.46967,18.0303Q11.417437,17.978099999999998,11.376398,17.9167Q11.335359,17.8553,11.30709,17.787Q11.278822,17.7188,11.264410999999999,17.6463Q11.25,17.573900000000002,11.25,17.5L11.25,6.5Z" fill-rule="evenodd" fill="#2882FF" fill-opacity="1"/></g></g></g></svg>