<svg xmlns="http://www.w3.org/2000/svg" xmlns:xlink="http://www.w3.org/1999/xlink" fill="none" version="1.1" width="24" height="24" viewBox="0 0 24 24"><defs><clipPath id="master_svg0_63_18677"><rect x="0" y="0" width="24" height="24" rx="0"/></clipPath></defs><g clip-path="url(#master_svg0_63_18677)"><g><rect x="3.5048828125" y="3.5" width="17" height="17" rx="1.7894736528396606" fill-opacity="0" stroke-opacity="1" stroke="#231F2E" fill="none" stroke-width="1.3421052694320679"/></g><g><path d="M8,7.25L16,7.25Q16.07387,7.25,16.14632,7.264411Q16.21877,7.278822,16.287010000000002,7.30709Q16.35526,7.335359,16.41668,7.376398Q16.478099999999998,7.417437,16.53033,7.46967Q16.58256,7.521903,16.6236,7.583322Q16.66464,7.644742,16.692909999999998,7.712987Q16.72118,7.781233,16.735590000000002,7.853682Q16.75,7.9261315,16.75,8Q16.75,8.0738685,16.735590000000002,8.146318Q16.72118,8.218767,16.692909999999998,8.287013Q16.66464,8.355258,16.6236,8.416678Q16.58256,8.478097,16.53033,8.53033Q16.478099999999998,8.582563,16.41668,8.623602Q16.35526,8.664641,16.287010000000002,8.69291Q16.21877,8.721178,16.14632,8.735589000000001Q16.07387,8.75,16,8.75L8,8.75Q7.9261315,8.75,7.853682,8.735589000000001Q7.781233,8.721178,7.712987,8.69291Q7.644742,8.664641,7.583322,8.623602Q7.521903,8.582563,7.46967,8.53033Q7.417437,8.478097,7.376398,8.416678Q7.335359,8.355258,7.30709,8.287013Q7.278822,8.218767,7.264411,8.146318Q7.25,8.0738685,7.25,8Q7.25,7.9261315,7.264411,7.853682Q7.278822,7.781233,7.30709,7.712987Q7.335359,7.644742,7.376398,7.583322Q7.417437,7.521903,7.46967,7.46967Q7.521903,7.417437,7.583322,7.376398Q7.644742,7.335359,7.712987,7.30709Q7.781233,7.278822,7.853682,7.264411Q7.9261315,7.25,8,7.25Z" fill-rule="evenodd" fill="#2882FF" fill-opacity="1"/></g><g><path d="M11.25,8Q11.25,7.9261315,11.264410999999999,7.853682Q11.278822,7.781233,11.30709,7.712987Q11.335359,7.644742,11.376398,7.583322Q11.417437,7.521903,11.46967,7.46967Q11.521903,7.417437,11.583322,7.376398Q11.644742,7.335359,11.712987,7.30709Q11.781233,7.278822,11.853682,7.264411Q11.9261315,7.25,12,7.25Q12.0738685,7.25,12.146318,7.264411Q12.218767,7.278822,12.287013,7.30709Q12.355258,7.335359,12.416678,7.376398Q12.478097,7.417437,12.53033,7.46967Q12.582563,7.521903,12.623602,7.583322Q12.664641,7.644742,12.69291,7.712987Q12.721178,7.781233,12.735589000000001,7.853682Q12.75,7.9261315,12.75,8L12.75,17Q12.75,17.07387,12.735589000000001,17.14632Q12.721178,17.21877,12.69291,17.287010000000002Q12.664641,17.35526,12.623602,17.41668Q12.582563,17.478099999999998,12.53033,17.53033Q12.478097,17.58256,12.416678,17.6236Q12.355258,17.66464,12.287013,17.692909999999998Q12.218767,17.72118,12.146318,17.735590000000002Q12.0738685,17.75,12,17.75Q11.9261315,17.75,11.853682,17.735590000000002Q11.781233,17.72118,11.712987,17.692909999999998Q11.644742,17.66464,11.583322,17.6236Q11.521903,17.58256,11.46967,17.53033Q11.417437,17.478099999999998,11.376398,17.41668Q11.335359,17.35526,11.30709,17.287010000000002Q11.278822,17.21877,11.264410999999999,17.14632Q11.25,17.07387,11.25,17L11.25,8Z" fill-rule="evenodd" fill="#2882FF" fill-opacity="1"/></g><g><g transform="matrix(-1,0,0,1,42.68310546875,0)"><path d="M21.538481734375,14.3249Q20.283492734375,15.049921,19.726132734375,16.387821Q19.591552734375,16.71086,19.591552734375,17.06081Q19.591552734375,17.14678,19.599982734375,17.23234Q19.608402734375,17.31789,19.625182734375,17.40221Q19.641952734375,17.48653,19.666902734375,17.5688Q19.691862734375,17.65107,19.724762734375,17.7305Q19.757662734375,17.80993,19.798192734375,17.88575Q19.838712734375,17.961570000000002,19.886482734375,18.03305Q19.934242734375,18.10454,19.988782734375,18.17099Q20.043322734375,18.23745,20.104112734375,18.29824Q20.164902734375,18.35903,20.231362734375,18.41357Q20.297822734375,18.46811,20.369304734375,18.51588Q20.440787734375,18.56364,20.516608734375,18.60417Q20.592428734375,18.64469,20.671856734375,18.67759Q20.751284734374998,18.71049,20.833554734375,18.73545Q20.915824734375,18.76041,21.000144734375,18.77718Q21.084464734375,18.79395,21.170022734375,18.80238Q21.255580734375,18.81081,21.341552734375,18.81081Q21.470416734375,18.81081,21.597890734375,18.79193Q21.725364734375,18.77305,21.848698734375,18.73571Q21.972033734375,18.69836,22.088566734375,18.64336Q22.205100734375,18.58835,22.312319734375,18.51687Q22.419542734375,18.44538,22.515132734375,18.35896Q22.610722734375,18.27254,22.692622734375,18.17306Q22.774532734375,18.07357,22.840972734375,17.96316Q22.907422734375,17.85274,22.956972734375,17.73379Q23.059182734375,17.48846,23.289302734375,17.35552Q23.519422734375,17.22257,23.783002734375,17.25658Q24.046582734375,17.29059,24.235422734375,17.4776Q24.326542734375,17.56783,24.384052734375,17.68147Q24.438572734375,17.78921,24.507382734375,17.88845Q24.576192734375,17.98769,24.657972734375,18.076529999999998Q24.739762734375,18.16538,24.832972734375,18.24215Q24.926192734375,18.31892,25.029062734375,18.38216Q25.131942734375,18.4454,25.242532734375,18.49391Q25.353112734375,18.54241,25.469322734374998,18.57527Q25.585522734375,18.60813,25.705132734375,18.62472Q25.824752734375,18.64131,25.945502734375,18.64131Q26.031482734375,18.64131,26.117032734375,18.63288Q26.202592734375,18.62445,26.286912734375,18.607680000000002Q26.371232734375,18.59091,26.453502734375,18.56595Q26.535772734375,18.541,26.615202734375,18.5081Q26.694632734375,18.4752,26.770452734375,18.43467Q26.846272734375,18.39414,26.917752734375,18.34638Q26.989232734375,18.29862,27.055692734375,18.24408Q27.122152734375,18.18954,27.182942734375,18.12874Q27.243732734375,18.06795,27.298272734375,18.0015Q27.352812734375,17.93504,27.400582734375,17.86356Q27.448342734375,17.79207,27.488872734375,17.71625Q27.529392734375,17.64043,27.562292734375,17.561Q27.595192734375,17.48158,27.620152734375,17.39931Q27.645112734375,17.31704,27.661882734375,17.23272Q27.678652734375,17.1484,27.687082734375,17.06284Q27.695502734375,16.97728,27.695502734375,16.89131Q27.695502734375,16.473734,27.506962734375,16.10115L27.506772734374998,16.100763L27.506302734374998,16.099839Q27.192432734375,15.4801153,26.698192734375,14.990671Q25.668352734375,13.970839999999999,24.230902734375,13.78536Q22.793462734375,13.59988,21.538481734375,14.3249Z" fill-rule="evenodd" fill="#FFFFFF" fill-opacity="1"/></g><g transform="matrix(-1,0,0,1,35.482421875,0)"><path d="M17.7412109375,17.189208984375Q17.6552389375,17.189208984375,17.5696809375,17.197638984375Q17.4841229375,17.206058984375,17.3998029375,17.222838984375Q17.3154829375,17.239608984375,17.2332129375,17.264558984375Q17.150942937499998,17.289518984375,17.0715149375,17.322418984375Q16.9920869375,17.355318984375,16.9162669375,17.395848984375Q16.8404459375,17.436368984375,16.7689629375,17.484138984375Q16.6974809375,17.531898984375,16.6310209375,17.586438984375Q16.5645609375,17.640978984375,16.5037709375,17.701768984375Q16.4429809375,17.762558984375,16.3884409375,17.829018984375Q16.3339009375,17.895478984375,16.2861409375,17.966960984375Q16.2383709375,18.038443984375,16.1978509375,18.114264984375Q16.1573209375,18.190084984375,16.1244209375,18.269512984375Q16.0915209375,18.348940984374998,16.0665609375,18.431210984375Q16.0416109375,18.513480984375,16.0248409375,18.597800984375Q16.0080609375,18.682120984375,15.9996409375,18.767678984375Q15.9912109375,18.853236984375,15.9912109375,18.939208984375Q15.9912109375,19.083465984375,16.0148309375,19.225774984375Q16.0384509375,19.368083984375,16.0850609375,19.504604984375Q16.1316709375,19.641124984375,16.2000009375,19.768169984375Q16.2683409375,19.895215984375,16.3565509375,20.009358984374998Q16.4447609375,20.123498984375,16.5504809375,20.221648984375Q16.6561909375,20.319808984375,16.7765559375,20.399328984375Q16.8969169375,20.478848984375,17.0286739375,20.537578984375Q17.1604319375,20.596318984375,17.3000289375,20.632688984375Q17.336396937499998,20.772278984375,17.3951329375,20.904038984375Q17.4538689375,21.035798984375,17.5333879375,21.156158984375Q17.6129059375,21.276518984375,17.7110610375,21.382228984375Q17.8092157375,21.487948984375,17.9233569375,21.576158984375Q18.0374969375,21.664378984375,18.1645429375,21.732708984375Q18.2915879375,21.801038984375,18.4281079375,21.847648984375Q18.5646289375,21.894258984375,18.7069379375,21.917878984375Q18.8492509375,21.941498984375,18.9935009375,21.941498984375Q19.0794809375,21.941498984375,19.1650309375,21.933078984375Q19.2505909375,21.924648984375,19.3349109375,21.907878984375Q19.4192309375,21.891108984375002,19.5015009375,21.866148984375002Q19.5837709375,21.841188984375002,19.6632009375,21.808288984375Q19.7426309375,21.775388984375,19.8184509375,21.734868984374998Q19.8942709375,21.694338984375,19.9657509375,21.646568984375Q20.0372309375,21.598808984375,20.1036909375,21.544268984375Q20.1701509375,21.489728984375,20.2309409375,21.428938984375Q20.2917309375,21.368148984375,20.3462709375,21.301688984375Q20.4008109375,21.235228984375,20.4485709375,21.163748984375Q20.4963409375,21.092268984375,20.536860937500002,21.016448984375Q20.5773909375,20.940628984375,20.6102909375,20.861198984375Q20.643190937500002,20.781768984375,20.668150937500002,20.699498984375Q20.6931009375,20.617228984375,20.7098809375,20.532908984375Q20.7266509375,20.448588984375,20.7350809375,20.363028984375Q20.7435009375,20.277478984375,20.7435009375,20.191498984375L20.7435009375,18.939208984375Q20.7435009375,18.853236984375,20.7350809375,18.767678984375Q20.7266509375,18.682120984375,20.7098809375,18.597800984375Q20.693110937500002,18.513480984375,20.668150937500002,18.431210984375Q20.643190937500002,18.348940984374998,20.6102909375,18.269512984375Q20.5773909375,18.190084984375,20.536870937499998,18.114264984375Q20.4963409375,18.038443984375,20.4485709375,17.966960984375Q20.4008109375,17.895478984375,20.3462709375,17.829018984375Q20.2917309375,17.762558984375,20.2309409375,17.701768984375Q20.1701509375,17.640978984375,20.1036909375,17.586438984375Q20.0372309375,17.531898984375,19.9657509375,17.484138984375Q19.8942709375,17.436368984375,19.8184509375,17.395848984375Q19.7426309375,17.355318984375,19.6632009375,17.322418984375Q19.5837709375,17.289518984375,19.5015009375,17.264558984375Q19.4192309375,17.239608984375,19.3349109375,17.222838984375Q19.2505909375,17.206058984375,19.1650309375,17.197638984375Q19.0794809375,17.189208984375,18.9935009375,17.189208984375L17.7412109375,17.189208984375Z" fill-rule="evenodd" fill="#FFFFFF" fill-opacity="1"/></g><g transform="matrix(-1,0,0,1,42.4990234375,0)"><path d="M27.46889171875,19.612191984375Q27.60346171875,19.289155984375,27.60346171875,18.939208984375Q27.60346171875,18.853236984375,27.59504171875,18.767678984375Q27.58661171875,18.682120984375,27.56984171875,18.597800984375Q27.55307171875,18.513480984375,27.52811171875,18.431210984375Q27.50315171875,18.348940984374998,27.47025171875,18.269512984375Q27.43735171875,18.190084984375,27.39683171875,18.114264984375Q27.35630171875,18.038443984375,27.30853171875,17.966960984375Q27.26077171875,17.895478984375,27.20623171875,17.829018984375Q27.15169171875,17.762558984375,27.09090171875,17.701768984375Q27.03011171875,17.640978984375,26.96365171875,17.586438984375Q26.89719171875,17.531898984375,26.82571171875,17.484138984375Q26.75423171875,17.436368984375,26.67841171875,17.395848984375Q26.60259171875,17.355318984375,26.52316171875,17.322418984375Q26.44373171875,17.289518984375,26.36146171875,17.264558984375Q26.27919171875,17.239608984375,26.19487171875,17.222838984375Q26.11055171875,17.206058984375,26.02499171875,17.197638984375Q25.93944171875,17.189208984375,25.85346171875,17.189208984375Q25.72460171875,17.189208984375,25.59713171875,17.208088984375Q25.46965171875,17.226958984375,25.346321718749998,17.264308984375Q25.22298171875,17.301648984375,25.10645171875,17.356658984375Q24.98991171875,17.411668984375,24.88270171875,17.483148984375Q24.77548171875,17.554628984375,24.67988171875,17.641048984375Q24.58429171875,17.727468984375,24.50239171875,17.826958984375Q24.42049171875,17.926448984375,24.35404171875,18.036858984375Q24.28760171875,18.147271984375,24.23804171875,18.266225984375Q24.13584171875,18.511552984375,23.90571171875,18.644496984375Q23.67559171875,18.777441984375,23.41201171875,18.743431984375Q23.14843171875,18.709421984375,22.95959171875,18.522416984375Q22.86857171875,18.432280984375,22.81109171875,18.318794984375L22.81097171875,18.318548984375Q22.75644171875,18.210800984375,22.68764171875,18.111562984375Q22.618831718750002,18.012325984375,22.53704171875,17.923478984375Q22.45525171875,17.834628984375,22.36204171875,17.757858984375Q22.26883171875,17.681088984375002,22.16595171875,17.617858984375Q22.06307571875,17.554618984375,21.95248871875,17.506108984375Q21.84190171875,17.457598984375,21.72569971875,17.424738984375Q21.60949771875,17.391878984375,21.48988371875,17.375288984375Q21.37026971875,17.358708984375,21.24951171875,17.358708984375Q21.16353971875,17.358708984375,21.07798171875,17.367128984375Q20.99242371875,17.375558984375,20.90810371875,17.392328984375Q20.82378371875,17.409108984375,20.74151371875,17.434058984375Q20.659243718749998,17.459018984375,20.57981571875,17.491918984375Q20.50038771875,17.524818984375,20.42456771875,17.565348984375Q20.34874671875,17.605868984375,20.27726371875,17.653638984375Q20.20578171875,17.701398984375,20.13932171875,17.755938984375Q20.07286171875,17.810478984375,20.01207171875,17.871268984375Q19.95128171875,17.932058984375,19.89674171875,17.998517984375Q19.84220171875,18.064975984375,19.79444171875,18.136458984375Q19.74667171875,18.207941984375,19.70615171875,18.283761984375Q19.66562171875,18.359582984375,19.63272171875,18.439010984375Q19.59982171875,18.518437984375,19.57486171875,18.600707984375Q19.54991171875,18.682977984375,19.53314171875,18.767297984375Q19.51636171875,18.851618484375,19.50794171875,18.937176504375Q19.49951171875,19.022734484375,19.49951171875,19.108705984375Q19.49951171875,19.526278984375,19.68805171875,19.898863984375L19.68840171875,19.899558984375Q20.00233171875,20.519648984375,20.49683071875,21.009338984375Q21.52667171875,22.029178984375,22.96411171875,22.214658984375Q24.40155171875,22.400128984375,25.65654171875,21.675108984375Q26.91119171875,20.950288984375,27.468591718749998,19.612904984375L27.46875171875,19.612511984375L27.46889171875,19.612191984375Z" fill-rule="evenodd" fill="#FFFFFF" fill-opacity="1"/></g><g><path d="M21.73744,19.26256Q21.61556,19.14069,21.472248,19.04493Q21.328936,18.94917,21.169696,18.88321Q21.010456,18.81725,20.841408,18.78363Q20.67236,18.75,20.5,18.75Q20.414028,18.75,20.32847,18.75843Q20.242912,18.76685,20.158592,18.78363Q20.074272,18.8004,19.992002,18.82535Q19.909731999999998,18.85031,19.830304,18.88321Q19.750876,18.91611,19.675056,18.95664Q19.599235,18.99716,19.527752,19.04493Q19.45627,19.09269,19.38981,19.14723Q19.32335,19.20177,19.26256,19.26256Q19.20177,19.32335,19.14723,19.38981Q19.09269,19.45627,19.04493,19.527752Q18.99716,19.599235,18.95664,19.675056Q18.91611,19.750876,18.88321,19.830304Q18.85031,19.909731999999998,18.82535,19.992002Q18.8004,20.074272,18.78363,20.158592Q18.76685,20.242912,18.75843,20.32847Q18.75,20.414028,18.75,20.5Q18.75,20.67236,18.78363,20.841408Q18.81725,21.010456,18.88321,21.169696Q18.94917,21.328936,19.04493,21.472248Q19.14069,21.61556,19.26256,21.73744L19.762506,22.23738L20.762392,23.23727Q20.884269,23.35914,21.027581,23.4549Q21.170893,23.55066,21.330133,23.61662Q21.489372,23.68258,21.65842,23.7162Q21.827469999999998,23.74983,21.99983,23.74983Q22.0858,23.74983,22.17136,23.7414Q22.25692,23.73297,22.34124,23.7162Q22.42556,23.69943,22.50783,23.67447Q22.5901,23.64952,22.66952,23.61662Q22.74895,23.58372,22.82477,23.54319Q22.90059,23.50266,22.97208,23.4549Q23.04356,23.40714,23.11002,23.3526Q23.176470000000002,23.29806,23.23727,23.23727Q23.29806,23.176470000000002,23.3526,23.11002Q23.40714,23.04356,23.4549,22.97208Q23.50266,22.90059,23.54319,22.82477Q23.58372,22.74895,23.61662,22.66952Q23.64952,22.5901,23.67447,22.50783Q23.69943,22.42556,23.7162,22.34124Q23.73297,22.25692,23.7414,22.17136Q23.74983,22.0858,23.74983,21.99983Q23.74983,21.827469999999998,23.7162,21.65842Q23.68258,21.489372,23.61662,21.330133Q23.55066,21.170893,23.4549,21.027581Q23.35914,20.884269,23.23727,20.762392L22.23738,19.762506L21.73744,19.26256Z" fill-rule="evenodd" fill="#FFFFFF" fill-opacity="1" style="mix-blend-mode:passthrough"/></g><g transform="matrix(-1,0,0,1,42.99590301513672,0)"><path d="M23.19143150756836,15.3672896796875Q23.33102150756836,15.4036576796875,23.46278150756836,15.4623936796875Q23.59454150756836,15.5211296796875,23.71490150756836,15.6006486796875Q23.835261507568358,15.6801666796875,23.94097150756836,15.7783218796875Q24.046691507568358,15.8764766796875,24.134901507568358,15.9906176796875Q24.223121507568358,16.1047586796875,24.29145150756836,16.2318036796875Q24.35978150756836,16.3588486796875,24.406391507568358,16.4953696796875Q24.45300150756836,16.6318896796875,24.47662150756836,16.7741986796875Q24.500241507568358,16.9165116796875,24.500241507568358,17.0607616796875Q24.500241507568358,17.1467416796875,24.49182150756836,17.2322916796875Q24.48339150756836,17.3178516796875,24.46662150756836,17.4021716796875Q24.44985150756836,17.4864916796875,24.42489150756836,17.5687616796875Q24.39993150756836,17.6510316796875,24.36703150756836,17.7304616796875Q24.334131507568358,17.8098916796875,24.293611507568357,17.8857116796875Q24.25308150756836,17.9615316796875,24.20531150756836,18.0330116796875Q24.15755150756836,18.1044916796875,24.10301150756836,18.1709516796875Q24.048471507568358,18.2374116796875,23.98768150756836,18.2982016796875Q23.92689150756836,18.3589916796875,23.86043150756836,18.4135316796875Q23.793971507568358,18.4680716796875,23.72249150756836,18.5158416796875Q23.65101150756836,18.5636016796875,23.57519150756836,18.604131679687498Q23.49937150756836,18.6446516796875,23.41994150756836,18.6775516796875Q23.34051150756836,18.710451679687502,23.25824150756836,18.735411679687502Q23.17597150756836,18.760371679687502,23.091651507568358,18.7771416796875Q23.00733150756836,18.7939116796875,22.92177150756836,18.8023416796875Q22.83622150756836,18.8107616796875,22.750241507568358,18.8107616796875L21.49795150756836,18.8107616796875Q21.411979507568358,18.8107616796875,21.32642150756836,18.8023416796875Q21.24086350756836,18.7939116796875,21.156543507568358,18.7771416796875Q21.07222350756836,18.760371679687502,20.98995350756836,18.735411679687502Q20.907683507568358,18.710451679687502,20.82825550756836,18.6775516796875Q20.74882750756836,18.6446516796875,20.67300750756836,18.604131679687498Q20.59718650756836,18.5636016796875,20.52570350756836,18.5158316796875Q20.45422150756836,18.4680716796875,20.38776150756836,18.4135316796875Q20.32130150756836,18.3589916796875,20.26051150756836,18.2982016796875Q20.19972150756836,18.2374116796875,20.14518150756836,18.1709516796875Q20.09064150756836,18.1044916796875,20.04288150756836,18.0330116796875Q19.99511150756836,17.9615316796875,19.95459150756836,17.8857116796875Q19.91406150756836,17.8098916796875,19.881161507568358,17.7304616796875Q19.84826150756836,17.6510316796875,19.82330150756836,17.5687616796875Q19.79835150756836,17.4864916796875,19.781581507568358,17.4021716796875Q19.76480150756836,17.3178516796875,19.75638150756836,17.2322916796875Q19.74795150756836,17.1467416796875,19.74795150756836,17.0607616796875L19.74795150756836,15.8084716796875Q19.74795150756836,15.7224996796875,19.75638150756836,15.6369416796875Q19.76480150756836,15.5513836796875,19.781581507568358,15.4670636796875Q19.79835150756836,15.3827436796875,19.82330150756836,15.3004736796875Q19.84826150756836,15.2182036796875,19.881161507568358,15.1387756796875Q19.91406150756836,15.0593476796875,19.95459150756836,14.9835276796875Q19.99511150756836,14.9077066796875,20.04288150756836,14.8362236796875Q20.09064150756836,14.7647416796875,20.14518150756836,14.6982816796875Q20.19972150756836,14.6318216796875,20.26051150756836,14.5710316796875Q20.32130150756836,14.5102416796875,20.38776150756836,14.4557016796875Q20.45422150756836,14.4011616796875,20.52570350756836,14.3534016796875Q20.59718650756836,14.305631679687501,20.67300750756836,14.2651116796875Q20.74882750756836,14.2245816796875,20.82825550756836,14.1916816796875Q20.907683507568358,14.1587816796875,20.98995350756836,14.1338216796875Q21.07222350756836,14.1088716796875,21.156543507568358,14.0921016796875Q21.24086350756836,14.0753216796875,21.32642150756836,14.0669016796875Q21.411979507568358,14.0584716796875,21.49795150756836,14.0584716796875Q21.64220850756836,14.0584716796875,21.78451750756836,14.0820916796875Q21.92682650756836,14.1057116796875,22.06334750756836,14.1523216796875Q22.19986750756836,14.198931679687501,22.32691250756836,14.2672616796875Q22.45395850756836,14.3356016796875,22.568101507568358,14.4238116796875Q22.68224150756836,14.5120216796875,22.78039150756836,14.6177416796875Q22.87855150756836,14.7234516796875,22.95807150756836,14.8438166796875Q23.037591507568358,14.9641776796875,23.09632150756836,15.0959346796875Q23.15506150756836,15.2276926796875,23.19143150756836,15.3672896796875Z" fill-rule="evenodd" fill="#FFFFFF" fill-opacity="1"/></g></g><g><g transform="matrix(-1,0,0,1,42.68329620361328,0)"><path d="M22.03881210180664,15.190792Q21.07664510180664,15.746647,20.64932410180664,16.77238Q20.59164810180664,16.91083,20.59164810180664,17.06081Q20.59164810180664,17.13467,20.60605910180664,17.20712Q20.620470101806642,17.27957,20.64873810180664,17.34782Q20.67700710180664,17.41606,20.718046101806642,17.47748Q20.75908510180664,17.538899999999998,20.81131810180664,17.59114Q20.863551101806642,17.64337,20.92497010180664,17.68441Q20.98639010180664,17.72545,21.05463510180664,17.753709999999998Q21.12288110180664,17.78198,21.19533010180664,17.79639Q21.26777960180664,17.81081,21.34164810180664,17.81081Q21.45270510180664,17.81081,21.558996101806642,17.77862Q21.66528810180664,17.74644,21.75769110180664,17.684829999999998Q21.85009410180664,17.62322,21.92067910180664,17.53748Q21.991264101806642,17.45174,22.03397210180664,17.34923Q22.26622310180664,16.79174,22.78916810180664,16.489627Q23.31210810180664,16.187518,23.91107810180664,16.264804Q24.51003810180664,16.34209,24.93916810180664,16.76705Q25.14561810180664,16.97149,25.27640810180664,17.22995Q25.32336810180664,17.32274,25.39379810180664,17.399259999999998Q25.46423810180664,17.47578,25.552838101806643,17.53024Q25.641438101806642,17.58471,25.74151810180664,17.61301Q25.84159810180664,17.64131,25.94559810180664,17.64131Q26.01946810180664,17.64131,26.09191810180664,17.6269Q26.16436810180664,17.61249,26.23261810180664,17.584220000000002Q26.30085810180664,17.55595,26.36227810180664,17.51491Q26.42369810180664,17.47387,26.47592810180664,17.42164Q26.528168101806642,17.3694,26.56920810180664,17.30799Q26.61023810180664,17.24657,26.63850810180664,17.17832Q26.666778101806642,17.11007,26.68118810180664,17.03763Q26.69559810180664,16.96518,26.69559810180664,16.89131Q26.69559810180664,16.71201,26.61451810180664,16.55211L26.61397810180664,16.55105Q26.373428101806642,16.076335,25.99463810180664,15.701221Q25.20507810180664,14.919338,24.10302810180664,14.777137Q23.00097810180664,14.634937,22.03881210180664,15.190792Z" fill-rule="evenodd" fill="#2882FF" fill-opacity="1"/></g><g transform="matrix(-1,0,0,1,35.48261260986328,0)"><path d="M17.74130630493164,18.189208984375Q17.66743780493164,18.189208984375,17.59498830493164,18.203619984375Q17.52253930493164,18.218030984375,17.45429330493164,18.246298984375Q17.38604830493164,18.274567984375,17.32462830493164,18.315606984375002Q17.263209304931642,18.356645984375,17.21097630493164,18.408878984375Q17.15874330493164,18.461111984375002,17.117704304931642,18.522530984375Q17.07666530493164,18.583950984375,17.04839630493164,18.652195984375Q17.020128304931642,18.720441984375,17.00571730493164,18.792890984375Q16.99130630493164,18.865340484375,16.99130630493164,18.939208984375Q16.99130630493164,19.013077484375,17.00571730493164,19.085526984375Q17.020128304931642,19.157975984375,17.04839630493164,19.226221984375Q17.07666530493164,19.294466984375,17.117704304931642,19.355886984375Q17.15874330493164,19.417305984374998,17.21097630493164,19.469538984375Q17.263209304931642,19.521771984375,17.32462830493164,19.562810984374998Q17.38604830493164,19.603849984375,17.45429330493164,19.632118984375Q17.52253930493164,19.660386984375,17.59498830493164,19.674797984375Q17.66743780493164,19.689208984375,17.74130630493164,19.689208984375L18.243599304931642,19.689208984375L18.243599304931642,20.191498984375Q18.243599304931642,20.265368984375,18.25801030493164,20.337818984375Q18.27242130493164,20.410268984375,18.30068930493164,20.478518984375Q18.32895830493164,20.546758984375,18.36999730493164,20.608178984375Q18.411036304931642,20.669598984375,18.46326930493164,20.721828984375Q18.51550230493164,20.774068984375,18.57692130493164,20.815108984375Q18.63834130493164,20.856138984375,18.70658630493164,20.884408984375Q18.77483630493164,20.912678984375,18.84728630493164,20.927088984375Q18.91972630493164,20.941498984375,18.99359630493164,20.941498984375Q19.067466304931642,20.941498984375,19.139916304931642,20.927088984375Q19.212366304931642,20.912678984375,19.28061630493164,20.884408984375Q19.34885630493164,20.856138984375,19.410276304931642,20.815108984375Q19.47169630493164,20.774068984375,19.523926304931642,20.721828984375Q19.57616630493164,20.669598984375,19.617206304931642,20.608178984375Q19.65823630493164,20.546758984375,19.68650630493164,20.478518984375Q19.71477630493164,20.410268984375,19.72918630493164,20.337818984375Q19.74359630493164,20.265368984375,19.74359630493164,20.191498984375L19.74359630493164,18.939208984375Q19.74359630493164,18.865340484375,19.72918630493164,18.792890984375Q19.71477630493164,18.720441984375,19.68650630493164,18.652195984375Q19.65823630493164,18.583950984375,19.617206304931642,18.522530984375Q19.57616630493164,18.461111984375002,19.523926304931642,18.408878984375Q19.47169630493164,18.356645984375,19.410276304931642,18.315606984375002Q19.34885630493164,18.274567984375,19.28061630493164,18.246298984375Q19.212366304931642,18.218030984375,19.139916304931642,18.203619984375Q19.067466304931642,18.189208984375,18.99359630493164,18.189208984375L17.74130630493164,18.189208984375Z" fill-rule="evenodd" fill="#2882FF" fill-opacity="1"/></g><g transform="matrix(-1,0,0,1,42.49921417236328,0)"><path d="M26.54588708618164,19.227629984375Q26.60355708618164,19.089185984375,26.60355708618164,18.939208984375Q26.60355708618164,18.865340484375,26.58914708618164,18.792890984375Q26.574737086181642,18.720441984375,26.54646708618164,18.652195984375Q26.51819708618164,18.583950984375,26.47716708618164,18.522530984375Q26.436127086181642,18.461111984375002,26.38388708618164,18.408878984375Q26.33165708618164,18.356645984375,26.27023708618164,18.315606984375002Q26.20881708618164,18.274567984375,26.14057708618164,18.246298984375Q26.07232708618164,18.218030984375,25.99987708618164,18.203619984375Q25.92742708618164,18.189208984375,25.85355708618164,18.189208984375Q25.74250708618164,18.189208984375,25.636207086181642,18.221392984375Q25.52991708618164,18.253576984375,25.43751708618164,18.315182984375Q25.34511708618164,18.376788984375,25.274527086181642,18.462529984375Q25.203947086181643,18.548270984375,25.16123708618164,18.650787984375Q24.928987086181642,19.208278984375,24.40604708618164,19.510386984375Q23.883107086181642,19.812495984375,23.28413708618164,19.735209984375Q22.68516708618164,19.657923984375,22.256037086181642,19.232966984375Q22.04959308618164,19.028525084375,21.91880308618164,18.770066984375Q21.87184408618164,18.677269984375,21.80140608618164,18.600751984375Q21.73096808618164,18.524233984375,21.64236708618164,18.469769984375Q21.55376608618164,18.415305984375,21.45368808618164,18.387005984375Q21.353609086181642,18.358705984375,21.24960708618164,18.358705984375Q21.17573858618164,18.358705984375,21.10328908618164,18.373117984375Q21.03084008618164,18.387528984375,20.96259408618164,18.415796984375Q20.89434908618164,18.444064984375,20.83292908618164,18.485103984375Q20.771510086181642,18.526142984375,20.71927708618164,18.578375984375Q20.66704408618164,18.630608984375,20.626005086181642,18.692028984375Q20.58496608618164,18.753447984375,20.55669708618164,18.821693984375Q20.528429086181642,18.889939484375,20.51401808618164,18.962388684375Q20.49960708618164,19.034837884375,20.49960708618164,19.108705984375Q20.49960708618164,19.287665984375,20.58041108618164,19.447344984375L20.58058408618164,19.447686984375Q20.82126508618164,19.923171984375,21.20057208618164,20.298788984375Q21.99012708618164,21.080678984374998,23.09217708618164,21.222878984375Q24.19422708618164,21.365078984375,25.15639708618164,20.809218984375Q26.118567086181642,20.253368984375,26.54588708618164,19.227629984375Z" fill-rule="evenodd" fill="#2882FF" fill-opacity="1"/></g><g><path d="M21.030579367431642,19.969824L21.530365367431642,20.4696127L22.53025536743164,21.469498Q22.63574536743164,21.57499,22.69283536743164,21.71282Q22.74992536743164,21.85064,22.74992536743164,21.99983Q22.74992536743164,22.0737,22.735515367431642,22.14615Q22.72110536743164,22.2186,22.69283536743164,22.28684Q22.664565367431642,22.35509,22.62352536743164,22.41651Q22.58248536743164,22.47793,22.53025536743164,22.53016Q22.47802536743164,22.58239,22.41660536743164,22.62343Q22.35518536743164,22.66447,22.286935367431642,22.69274Q22.21869536743164,22.72101,22.14624536743164,22.73542Q22.07379536743164,22.74983,21.99992536743164,22.74983Q21.85073536743164,22.74983,21.71291536743164,22.69274Q21.57508536743164,22.63565,21.46959436743164,22.53016L20.46970806743164,21.53027L19.96991936743164,21.030484L19.96976536743164,21.03033Q19.86427636743164,20.924841,19.80718536743164,20.787013Q19.75009536743164,20.649184,19.75009536743164,20.5Q19.75009536743164,20.4261315,19.76450636743164,20.353682Q19.778917367431642,20.281233,19.80718536743164,20.212987Q19.83545436743164,20.144742,19.876493367431642,20.083322Q19.91753236743164,20.021903000000002,19.96976536743164,19.96967Q20.021998367431642,19.917437,20.08341736743164,19.876398000000002Q20.14483736743164,19.835359,20.21308236743164,19.80709Q20.28132836743164,19.778822,20.35377736743164,19.764411Q20.42622686743164,19.75,20.50009536743164,19.75Q20.649279367431642,19.75,20.787108367431642,19.80709Q20.92493636743164,19.864181,21.03042536743164,19.96967L21.030579367431642,19.969824Z" fill-rule="evenodd" fill="#2882FF" fill-opacity="1" style="mix-blend-mode:passthrough"/></g><g transform="matrix(-1,0,0,1,42.99609375,0)"><path d="M22.248046875,15.8084716796875L22.248046875,16.3107646796875L22.750336875,16.3107646796875Q22.824206875,16.3107646796875,22.896656875,16.3251756796875Q22.969106875,16.3395866796875,23.037356875,16.3678556796875Q23.105596875,16.3961236796875,23.167016875,16.4371626796875Q23.228436875,16.4782016796875,23.280666875,16.5304346796875Q23.332906875,16.5826676796875,23.373946875,16.6440876796875Q23.414976875,16.7055066796875,23.443246875,16.7737526796875Q23.471516875,16.8420016796875,23.485926875,16.9144516796875Q23.500336875,16.9868916796875,23.500336875,17.0607616796875Q23.500336875,17.1346316796875,23.485926875,17.2070816796875Q23.471516875,17.2795316796875,23.443246875,17.3477816796875Q23.414976875,17.4160216796875,23.373946875,17.4774416796875Q23.332906875,17.5388616796875,23.280666875,17.5910916796875Q23.228436875,17.6433316796875,23.167016875,17.6843716796875Q23.105596875,17.7254016796875,23.037356875,17.7536716796875Q22.969106875,17.7819416796875,22.896656875,17.7963516796875Q22.824206875,17.8107616796875,22.750336875,17.8107616796875L21.498046875,17.8107616796875Q21.424178375,17.8107616796875,21.351728875,17.7963516796875Q21.279279875,17.7819416796875,21.211033875,17.7536716796875Q21.142788875,17.7254016796875,21.081368875,17.6843716796875Q21.019949875000002,17.6433316796875,20.967716875,17.5910916796875Q20.915483875,17.5388616796875,20.874444875000002,17.4774416796875Q20.833405875,17.4160216796875,20.805136875,17.3477816796875Q20.776868875,17.2795316796875,20.762457875,17.2070816796875Q20.748046875,17.1346316796875,20.748046875,17.0607616796875L20.748046875,15.8084716796875Q20.748046875,15.7346031796875,20.762457875,15.6621536796875Q20.776868875,15.5897046796875,20.805136875,15.5214586796875Q20.833405875,15.4532136796875,20.874444875000002,15.3917936796875Q20.915483875,15.3303746796875,20.967716875,15.2781416796875Q21.019949875000002,15.2259086796875,21.081368875,15.1848696796875Q21.142788875,15.1438306796875,21.211033875,15.1155616796875Q21.279279875,15.0872936796875,21.351728875,15.072882679687499Q21.424178375,15.0584716796875,21.498046875,15.0584716796875Q21.571915375,15.0584716796875,21.644364875,15.072882679687499Q21.716813875,15.0872936796875,21.785059875,15.1155616796875Q21.853304875,15.1438306796875,21.914724875,15.1848696796875Q21.976143874999998,15.2259086796875,22.028376875,15.2781416796875Q22.080609875,15.3303746796875,22.121648874999998,15.3917936796875Q22.162687875,15.4532136796875,22.190956875,15.5214586796875Q22.219224875,15.5897046796875,22.233635875,15.6621536796875Q22.248046875,15.7346031796875,22.248046875,15.8084716796875Z" fill-rule="evenodd" fill="#2882FF" fill-opacity="1"/></g></g></g></svg>