<svg xmlns="http://www.w3.org/2000/svg" xmlns:xlink="http://www.w3.org/1999/xlink" fill="none" version="1.1" width="24" height="24" viewBox="0 0 24 24"><defs><clipPath id="master_svg0_63_18541"><rect x="0" y="0" width="24" height="24" rx="0"/></clipPath></defs><g clip-path="url(#master_svg0_63_18541)"><g><rect x="3.5048828125" y="3.5" width="17" height="17" rx="1.7894736528396606" fill-opacity="0" stroke-opacity="1" stroke="#231F2E" fill="none" stroke-width="1.3421052694320679"/></g><g><path d="M8,7.25L16,7.25Q16.07387,7.25,16.14632,7.264411Q16.21877,7.278822,16.287010000000002,7.30709Q16.35526,7.335359,16.41668,7.376398Q16.478099999999998,7.417437,16.53033,7.46967Q16.58256,7.521903,16.6236,7.583322Q16.66464,7.644742,16.692909999999998,7.712987Q16.72118,7.781233,16.735590000000002,7.853682Q16.75,7.9261315,16.75,8Q16.75,8.0738685,16.735590000000002,8.146318Q16.72118,8.218767,16.692909999999998,8.287013Q16.66464,8.355258,16.6236,8.416678Q16.58256,8.478097,16.53033,8.53033Q16.478099999999998,8.582563,16.41668,8.623602Q16.35526,8.664641,16.287010000000002,8.69291Q16.21877,8.721178,16.14632,8.735589000000001Q16.07387,8.75,16,8.75L8,8.75Q7.9261315,8.75,7.853682,8.735589000000001Q7.781233,8.721178,7.712987,8.69291Q7.644742,8.664641,7.583322,8.623602Q7.521903,8.582563,7.46967,8.53033Q7.417437,8.478097,7.376398,8.416678Q7.335359,8.355258,7.30709,8.287013Q7.278822,8.218767,7.264411,8.146318Q7.25,8.0738685,7.25,8Q7.25,7.9261315,7.264411,7.853682Q7.278822,7.781233,7.30709,7.712987Q7.335359,7.644742,7.376398,7.583322Q7.417437,7.521903,7.46967,7.46967Q7.521903,7.417437,7.583322,7.376398Q7.644742,7.335359,7.712987,7.30709Q7.781233,7.278822,7.853682,7.264411Q7.9261315,7.25,8,7.25Z" fill-rule="evenodd" fill="#2882FF" fill-opacity="1"/></g><g><path d="M11.25,8Q11.25,7.9261315,11.264410999999999,7.853682Q11.278822,7.781233,11.30709,7.712987Q11.335359,7.644742,11.376398,7.583322Q11.417437,7.521903,11.46967,7.46967Q11.521903,7.417437,11.583322,7.376398Q11.644742,7.335359,11.712987,7.30709Q11.781233,7.278822,11.853682,7.264411Q11.9261315,7.25,12,7.25Q12.0738685,7.25,12.146318,7.264411Q12.218767,7.278822,12.287013,7.30709Q12.355258,7.335359,12.416678,7.376398Q12.478097,7.417437,12.53033,7.46967Q12.582563,7.521903,12.623602,7.583322Q12.664641,7.644742,12.69291,7.712987Q12.721178,7.781233,12.735589000000001,7.853682Q12.75,7.9261315,12.75,8L12.75,17Q12.75,17.07387,12.735589000000001,17.14632Q12.721178,17.21877,12.69291,17.287010000000002Q12.664641,17.35526,12.623602,17.41668Q12.582563,17.478099999999998,12.53033,17.53033Q12.478097,17.58256,12.416678,17.6236Q12.355258,17.66464,12.287013,17.692909999999998Q12.218767,17.72118,12.146318,17.735590000000002Q12.0738685,17.75,12,17.75Q11.9261315,17.75,11.853682,17.735590000000002Q11.781233,17.72118,11.712987,17.692909999999998Q11.644742,17.66464,11.583322,17.6236Q11.521903,17.58256,11.46967,17.53033Q11.417437,17.478099999999998,11.376398,17.41668Q11.335359,17.35526,11.30709,17.287010000000002Q11.278822,17.21877,11.264410999999999,17.14632Q11.25,17.07387,11.25,17L11.25,8Z" fill-rule="evenodd" fill="#2882FF" fill-opacity="1"/></g><g><path d="M15.033203125,21.8056L20.838803125,16L21.999923125,17.16112L19.677683125,19.48336L20.451763125,20.25744C19.077103125,21.74601,16.986783125,22.34325,15.033203125,21.8056Z" fill="#FFFFFF" fill-opacity="1"/><path d="M18.440343125,23.47402Q20.373443125,22.92171,21.737413125,21.44471Q21.822693125,21.35237,21.893893124999998,21.24879Q21.965093125,21.14521,22.020763125000002,21.032510000000002Q22.076433125,20.91982,22.115433125,20.80033Q22.154423125,20.68083,22.175943125,20.55699Q22.197453125,20.43316,22.201053125,20.30751Q22.204643125,20.18187,22.190253124999998,20.057000000000002Q22.175853125,19.93214,22.143763125,19.81061Q22.111663125,19.68908,22.062533125,19.57339L23.237363125,18.39856Q23.359243125,18.27668,23.454993125,18.13337Q23.550753125,17.99006,23.616713125,17.83082Q23.682673125,17.67158,23.716303125,17.50253Q23.749923125000002,17.33348,23.749923125000002,17.16112Q23.749923125000002,16.988761,23.716303125,16.819713Q23.682673125,16.650665,23.616713125,16.491425Q23.550753125,16.332185,23.454993125,16.188873Q23.359243125,16.0455607,23.237363125,15.9236837L22.076243125,14.76256Q22.015453125,14.70177,21.948993125,14.64723Q21.882533125000002,14.59269,21.811053125,14.54493Q21.739573125,14.497160000000001,21.663753125,14.45664Q21.587933125,14.41611,21.508503125,14.38321Q21.429073125000002,14.35031,21.346803125,14.32535Q21.264533125,14.3004,21.180213125,14.28363Q21.095893125,14.26685,21.010333125,14.25843Q20.924773125,14.25,20.838803125,14.25Q20.752833125000002,14.25,20.667273125,14.25843Q20.581723125,14.26685,20.497393125000002,14.28363Q20.413083125,14.3004,20.330803125,14.32535Q20.248533125,14.35031,20.169113125,14.38321Q20.089683125,14.41611,20.013863125,14.45664Q19.938043125,14.497160000000001,19.866553125,14.54493Q19.795073125000002,14.59269,19.728623125,14.64723Q19.662163125,14.70177,19.601373125000002,14.76256L13.795763125,20.568170000000002Q13.634983125,20.72895,13.520623125,20.92549Q13.406273125,21.12202,13.345933125,21.34125Q13.300203125,21.50743,13.287763125,21.67934Q13.275333125,21.85125,13.296673125,22.022289999999998Q13.318013125,22.19332,13.372313125,22.35691Q13.426613125,22.52049,13.511773125,22.67034Q13.596943125,22.82018,13.709713125,22.95054Q13.822483125,23.08089,13.958513125,23.18674Q14.094538125,23.29258,14.248604125,23.36986Q14.402670125,23.44714,14.568852125,23.49287Q16.507243125,24.02633,18.440343125,23.47402Z" fill-rule="evenodd" fill="#FFFFFF" fill-opacity="1" style="mix-blend-mode:passthrough"/></g><g><path d="M18.165623125,22.5125Q19.829053125,22.03723,21.002763125,20.76627Q21.051593125,20.71339,21.089483125,20.65218Q21.127373125,20.59097,21.152923125,20.52367Q21.178473125,20.45637,21.190763125,20.38544Q21.203053125,20.31451,21.201623125,20.242530000000002Q21.200183125,20.170560000000002,21.185093125,20.10017Q21.169993125,20.02979,21.141793125,19.96356Q21.113583124999998,19.89733,21.073293125,19.83767Q21.033003125,19.778010000000002,20.982093125,19.72711L20.738343125,19.48336L22.530253125,17.69145Q22.582493125,17.63922,22.623533125,17.5778Q22.664563125,17.51638,22.692833125,17.44813Q22.721103125,17.37989,22.735513125,17.30744Q22.749923125,17.23499,22.749923125,17.16112Q22.749923125,17.08725,22.735513125,17.0148Q22.721103125,16.942354,22.692833125,16.874108Q22.664563125,16.805862,22.623533125,16.744443Q22.582493125,16.683023,22.530253125,16.630791L21.369133125,15.46967Q21.316903125,15.417437,21.255483124999998,15.376398Q21.194063125,15.335359,21.125823125,15.30709Q21.057573125,15.278822,20.985123125,15.264410999999999Q20.912673125,15.25,20.838803125,15.25Q20.764933125,15.25,20.692493125,15.264410999999999Q20.620043125,15.278822,20.551793125,15.30709Q20.483543125,15.335359,20.422123125,15.376398Q20.360713125,15.417437,20.308473125,15.46967L14.502873125,21.27527Q14.362691125,21.41546,14.310088125,21.6066Q14.270502125,21.75043,14.288974125,21.89847Q14.307446125,22.0465,14.381163125,22.1762Q14.454880125,22.3059,14.572619125,22.39752Q14.690359125,22.48913,14.834195125,22.52872Q16.502183125,22.98776,18.165623125,22.5125ZM19.373973125,20.24031L19.147353125000002,20.01369Q19.041863125,19.9082,18.984773125,19.77037Q18.927683125,19.632550000000002,18.927683125,19.48336Q18.927683125,19.33418,18.984773125,19.19635Q19.041863125,19.05852,19.147353125000002,18.95303L20.939263125,17.16112L20.838803125,17.06066L16.649813125,21.24966Q17.202003125,21.22779,17.753543125,21.07021Q18.659783125,20.81128,19.373973125,20.24031Z" fill-rule="evenodd" fill="#2882FF" fill-opacity="1" style="mix-blend-mode:passthrough"/></g></g></svg>