<svg xmlns="http://www.w3.org/2000/svg" xmlns:xlink="http://www.w3.org/1999/xlink" fill="none" version="1.1" width="24" height="24" viewBox="0 0 24 24"><defs><clipPath id="master_svg0_63_18904"><rect x="0" y="0" width="24" height="24" rx="0"/></clipPath></defs><g clip-path="url(#master_svg0_63_18904)"><g><path d="M4,5.25L13,5.25Q13.07387,5.25,13.14632,5.264411Q13.21877,5.278822,13.28701,5.30709Q13.35526,5.335359,13.41668,5.376398Q13.4781,5.417437,13.53033,5.46967Q13.58256,5.521903,13.6236,5.583322Q13.66464,5.644742,13.69291,5.712987Q13.72118,5.781233,13.73559,5.853682Q13.75,5.9261315,13.75,6Q13.75,6.0738685,13.73559,6.146318Q13.72118,6.218767,13.69291,6.287013Q13.66464,6.355258,13.6236,6.416678Q13.58256,6.478097,13.53033,6.53033Q13.4781,6.582563,13.41668,6.623602Q13.35526,6.664641,13.28701,6.69291Q13.21877,6.721178,13.14632,6.735589Q13.07387,6.75,13,6.75L4,6.75Q3.9261315,6.75,3.853682,6.735589Q3.781233,6.721178,3.712987,6.69291Q3.644742,6.664641,3.583322,6.623602Q3.521903,6.582563,3.46967,6.53033Q3.417437,6.478097,3.376398,6.416678Q3.335359,6.355258,3.30709,6.287013Q3.278822,6.218767,3.264411,6.146318Q3.25,6.0738685,3.25,6Q3.25,5.9261315,3.264411,5.853682Q3.278822,5.781233,3.30709,5.712987Q3.335359,5.644742,3.376398,5.583322Q3.417437,5.521903,3.46967,5.46967Q3.521903,5.417437,3.583322,5.376398Q3.644742,5.335359,3.712987,5.30709Q3.781233,5.278822,3.853682,5.264411Q3.9261315,5.25,4,5.25Z" fill-rule="evenodd" fill="#231F2E" fill-opacity="1"/></g><g><path d="M4,11.25L11,11.25Q11.07387,11.25,11.14632,11.264410999999999Q11.21877,11.278822,11.28701,11.30709Q11.355260000000001,11.335359,11.41668,11.376398Q11.478100000000001,11.417437,11.53033,11.46967Q11.58256,11.521903,11.6236,11.583322Q11.66464,11.644742,11.692910000000001,11.712987Q11.72118,11.781233,11.73559,11.853682Q11.75,11.9261315,11.75,12Q11.75,12.0738685,11.73559,12.146318Q11.72118,12.218767,11.692910000000001,12.287013Q11.66464,12.355258,11.6236,12.416678Q11.58256,12.478097,11.53033,12.53033Q11.478100000000001,12.582563,11.41668,12.623602Q11.355260000000001,12.664641,11.28701,12.69291Q11.21877,12.721178,11.14632,12.735589000000001Q11.07387,12.75,11,12.75L4,12.75Q3.9261315,12.75,3.853682,12.735589000000001Q3.781233,12.721178,3.712987,12.69291Q3.644742,12.664641,3.583322,12.623602Q3.521903,12.582563,3.46967,12.53033Q3.417437,12.478097,3.376398,12.416678Q3.335359,12.355258,3.30709,12.287013Q3.278822,12.218767,3.264411,12.146318Q3.25,12.0738685,3.25,12Q3.25,11.9261315,3.264411,11.853682Q3.278822,11.781233,3.30709,11.712987Q3.335359,11.644742,3.376398,11.583322Q3.417437,11.521903,3.46967,11.46967Q3.521903,11.417437,3.583322,11.376398Q3.644742,11.335359,3.712987,11.30709Q3.781233,11.278822,3.853682,11.264410999999999Q3.9261315,11.25,4,11.25Z" fill-rule="evenodd" fill="#231F2E" fill-opacity="1"/></g><g><path d="M4,17.25L11,17.25Q11.07387,17.25,11.14632,17.264411Q11.21877,17.278822,11.28701,17.30709Q11.355260000000001,17.335359,11.41668,17.376398000000002Q11.478100000000001,17.417437,11.53033,17.46967Q11.58256,17.521903000000002,11.6236,17.583322Q11.66464,17.644742,11.692910000000001,17.712987Q11.72118,17.781233,11.73559,17.853682Q11.75,17.9261315,11.75,18Q11.75,18.0738685,11.73559,18.146318Q11.72118,18.218767,11.692910000000001,18.287013Q11.66464,18.355258,11.6236,18.416678Q11.58256,18.478096999999998,11.53033,18.53033Q11.478100000000001,18.582563,11.41668,18.623601999999998Q11.355260000000001,18.664641,11.28701,18.69291Q11.21877,18.721178,11.14632,18.735589Q11.07387,18.75,11,18.75L4,18.75Q3.9261315,18.75,3.853682,18.735589Q3.781233,18.721178,3.712987,18.69291Q3.644742,18.664641,3.583322,18.623601999999998Q3.521903,18.582563,3.46967,18.53033Q3.417437,18.478096999999998,3.376398,18.416678Q3.335359,18.355258,3.30709,18.287013Q3.278822,18.218767,3.264411,18.146318Q3.25,18.0738685,3.25,18Q3.25,17.9261315,3.264411,17.853682Q3.278822,17.781233,3.30709,17.712987Q3.335359,17.644742,3.376398,17.583322Q3.417437,17.521903000000002,3.46967,17.46967Q3.521903,17.417437,3.583322,17.376398000000002Q3.644742,17.335359,3.712987,17.30709Q3.781233,17.278822,3.853682,17.264411Q3.9261315,17.25,4,17.25Z" fill-rule="evenodd" fill="#231F2E" fill-opacity="1"/></g><g><path d="M15.530484,14.469824L18,16.93934L20.46921,14.470132L20.46967,14.46967Q20.57516,14.364181,20.712989999999998,14.30709Q20.85082,14.25,21,14.25Q21.07387,14.25,21.14632,14.264410999999999Q21.21877,14.278822,21.287010000000002,14.30709Q21.35526,14.335359,21.41668,14.376398Q21.4781,14.417437,21.53033,14.46967Q21.58256,14.521903,21.6236,14.583322Q21.66464,14.644742,21.69291,14.712987Q21.72118,14.781233,21.735590000000002,14.853682Q21.75,14.9261315,21.75,15Q21.75,15.149184,21.69291,15.287013Q21.63582,15.424841,21.53033,15.53033L21.52987,15.530792L18.53033,18.53033Q18.42484,18.63582,18.28701,18.69291Q18.14918,18.75,18,18.75Q17.85082,18.75,17.71299,18.69291Q17.57516,18.63582,17.46967,18.53033L14.46967,15.53033Q14.364181,15.424841,14.30709,15.287013Q14.25,15.149184,14.25,15Q14.25,14.9261315,14.264410999999999,14.853682Q14.278822,14.781233,14.30709,14.712987Q14.335359,14.644742,14.376398,14.583322Q14.417437,14.521903,14.46967,14.46967Q14.521903,14.417437,14.583322,14.376398Q14.644742,14.335359,14.712987,14.30709Q14.781233,14.278822,14.853682,14.264410999999999Q14.9261315,14.25,15,14.25Q15.149184,14.25,15.287013,14.30709Q15.424841,14.364181,15.53033,14.46967L15.530484,14.469824Z" fill-rule="evenodd" fill="#2882FF" fill-opacity="1" style="mix-blend-mode:passthrough"/></g><g><path d="M17.25,6Q17.25,5.9261315,17.264411,5.853682Q17.278822,5.781233,17.30709,5.712987Q17.335359,5.644742,17.376398000000002,5.583322Q17.417437,5.521903,17.46967,5.46967Q17.521903000000002,5.417437,17.583322,5.376398Q17.644742,5.335359,17.712987,5.30709Q17.781233,5.278822,17.853682,5.264411Q17.9261315,5.25,18,5.25Q18.0738685,5.25,18.146318,5.264411Q18.218767,5.278822,18.287013,5.30709Q18.355258,5.335359,18.416678,5.376398Q18.478096999999998,5.417437,18.53033,5.46967Q18.582563,5.521903,18.623601999999998,5.583322Q18.664641,5.644742,18.69291,5.712987Q18.721178,5.781233,18.735589,5.853682Q18.75,5.9261315,18.75,6L18.75,18Q18.75,18.073900000000002,18.735589,18.1463Q18.721178,18.2188,18.69291,18.287Q18.664641,18.3553,18.623601999999998,18.4167Q18.582563,18.478099999999998,18.53033,18.5303Q18.478096999999998,18.5826,18.416678,18.6236Q18.355258,18.6646,18.287013,18.6929Q18.218767,18.7212,18.146318,18.735599999999998Q18.0738685,18.75,18,18.75Q17.9261315,18.75,17.853682,18.735599999999998Q17.781233,18.7212,17.712987,18.6929Q17.644742,18.6646,17.583322,18.6236Q17.521903000000002,18.5826,17.46967,18.5303Q17.417437,18.478099999999998,17.376398000000002,18.4167Q17.335359,18.3553,17.30709,18.287Q17.278822,18.2188,17.264411,18.1463Q17.25,18.073900000000002,17.25,18L17.25,6Z" fill-rule="evenodd" fill="#2882FF" fill-opacity="1" style="mix-blend-mode:passthrough"/></g></g></svg>