<svg xmlns="http://www.w3.org/2000/svg" xmlns:xlink="http://www.w3.org/1999/xlink" fill="none" version="1.1" width="24" height="24" viewBox="0 0 24 24"><defs><clipPath id="master_svg0_53_01680"><rect x="0" y="0" width="24" height="24" rx="0"/></clipPath></defs><g clip-path="url(#master_svg0_53_01680)"><g><path d="M7.249998371810913,18.75001287460327L6.0000183718109135,18.75001287460327Q4.446718371810913,18.75001287460327,3.348376371810913,17.651612874603273Q2.250030371810913,16.55331287460327,2.2500293718109132,15.000012874603271L2.250028371810913,7.000022874603271Q2.250028371810913,5.446722874603271,3.348377371810913,4.348368874603271Q4.446728371810913,3.2500188746032714,6.000028371810913,3.2500178746032713L18.000028371810913,3.2500138746032716Q19.553328371810913,3.2500128746032715,20.65162837181091,4.348365874603272Q21.750028371810913,5.446712874603271,21.750028371810913,7.000022874603271L21.749928371810913,15.000012874603271Q21.749928371810913,16.55331287460327,20.65162837181091,17.651612874603273Q19.553228371810913,18.75001287460327,18.000028371810913,18.75001287460327L13.207728371810914,18.75001287460327L8.385868371810913,21.643112874603272Q8.322528371810913,21.681112874603272,8.252988371810913,21.70601287460327Q8.183448371810913,21.73091287460327,8.110388371810913,21.741812874603273Q8.037318371810912,21.752712874603272,7.963538371810913,21.74911287460327Q7.889758371810913,21.74551287460327,7.818098371810913,21.72761287460327Q7.746438371810913,21.709712874603273,7.679648371810913,21.678112874603272Q7.612848371810913,21.64661287460327,7.553498371810913,21.60261287460327Q7.494148371810913,21.55861287460327,7.444518371810913,21.503912874603273Q7.3948883718109135,21.449212874603273,7.356878371810913,21.38591287460327Q7.249998371810913,21.20771287460327,7.249998371810913,21.00001287460327L7.249998371810913,18.75001287460327ZM8.749998371810914,18.00001287460327Q8.749998371810914,17.92611287460327,8.735588371810913,17.85371287460327Q8.721178371810913,17.78121287460327,8.692908371810912,17.713012874603272Q8.664638371810913,17.64471287460327,8.623598371810914,17.583312874603273Q8.582558371810913,17.521912874603274,8.530328371810914,17.46971287460327Q8.478098371810912,17.417412874603272,8.416678371810914,17.37641287460327Q8.355258371810912,17.33531287460327,8.287018371810912,17.30711287460327Q8.218768371810913,17.278812874603272,8.146318371810914,17.264412874603273Q8.073868371810914,17.25001287460327,7.999998371810913,17.25001287460327L6.000028371810913,17.25001287460327Q5.068048371810914,17.25001287460327,4.409038371810913,16.591012874603273Q3.750030371810913,15.932012874603272,3.7500293718109132,15.000012874603271L3.750028371810913,7.000022874603271Q3.750028371810913,6.068042874603272,4.409038371810913,5.409032874603271Q5.068048371810914,4.750017874603271,6.000028371810913,4.750017874603271L18.000028371810913,4.750013874603272Q18.931928371810912,4.750013874603272,19.591028371810914,5.409022874603272Q20.250028371810913,6.068032874603272,20.250028371810913,7.000022874603271L20.249928371810913,15.000012874603271Q20.249928371810913,15.932012874603272,19.590928371810914,16.591012874603273Q18.931928371810912,17.25001287460327,18.000028371810913,17.25001287460327L12.999998371810912,17.25001287460327Q12.792258371810913,17.25001287460327,12.614128371810914,17.35691287460327L8.749998371810914,19.67531287460327L8.749998371810914,18.00001287460327Z" fill-rule="evenodd" fill="#231F2E" fill-opacity="1"/></g><g><path d="M8,8.25L16,8.25Q16.07387,8.25,16.14632,8.264410999999999Q16.21877,8.278822,16.287010000000002,8.30709Q16.35526,8.335359,16.41668,8.376398Q16.478099999999998,8.417437,16.53033,8.46967Q16.58256,8.521903,16.6236,8.583322Q16.66464,8.644742,16.692909999999998,8.712987Q16.72118,8.781233,16.735590000000002,8.853682Q16.75,8.9261315,16.75,9Q16.75,9.0738685,16.735590000000002,9.146318Q16.72118,9.218767,16.692909999999998,9.287013Q16.66464,9.355258,16.6236,9.416678Q16.58256,9.478097,16.53033,9.53033Q16.478099999999998,9.582563,16.41668,9.623602Q16.35526,9.664641,16.287010000000002,9.69291Q16.21877,9.721178,16.14632,9.735589000000001Q16.07387,9.75,16,9.75L8,9.75Q7.9261315,9.75,7.853682,9.735589000000001Q7.781233,9.721178,7.712987,9.69291Q7.644742,9.664641,7.583322,9.623602Q7.521903,9.582563,7.46967,9.53033Q7.417437,9.478097,7.376398,9.416678Q7.335359,9.355258,7.30709,9.287013Q7.278822,9.218767,7.264411,9.146318Q7.25,9.0738685,7.25,9Q7.25,8.9261315,7.264411,8.853682Q7.278822,8.781233,7.30709,8.712987Q7.335359,8.644742,7.376398,8.583322Q7.417437,8.521903,7.46967,8.46967Q7.521903,8.417437,7.583322,8.376398Q7.644742,8.335359,7.712987,8.30709Q7.781233,8.278822,7.853682,8.264410999999999Q7.9261315,8.25,8,8.25Z" fill-rule="evenodd" fill="#2882FF" fill-opacity="1"/></g><g><path d="M8,12.25L14,12.25Q14.07387,12.25,14.14632,12.264410999999999Q14.21877,12.278822,14.28701,12.30709Q14.355260000000001,12.335359,14.41668,12.376398Q14.478100000000001,12.417437,14.53033,12.46967Q14.58256,12.521903,14.6236,12.583322Q14.66464,12.644742,14.692910000000001,12.712987Q14.72118,12.781233,14.73559,12.853682Q14.75,12.9261315,14.75,13Q14.75,13.0738685,14.73559,13.146318Q14.72118,13.218767,14.692910000000001,13.287013Q14.66464,13.355258,14.6236,13.416678Q14.58256,13.478097,14.53033,13.53033Q14.478100000000001,13.582563,14.41668,13.623602Q14.355260000000001,13.664641,14.28701,13.69291Q14.21877,13.721178,14.14632,13.735589000000001Q14.07387,13.75,14,13.75L8,13.75Q7.9261315,13.75,7.853682,13.735589000000001Q7.781233,13.721178,7.712987,13.69291Q7.644742,13.664641,7.583322,13.623602Q7.521903,13.582563,7.46967,13.53033Q7.417437,13.478097,7.376398,13.416678Q7.335359,13.355258,7.30709,13.287013Q7.278822,13.218767,7.264411,13.146318Q7.25,13.0738685,7.25,13Q7.25,12.9261315,7.264411,12.853682Q7.278822,12.781233,7.30709,12.712987Q7.335359,12.644742,7.376398,12.583322Q7.417437,12.521903,7.46967,12.46967Q7.521903,12.417437,7.583322,12.376398Q7.644742,12.335359,7.712987,12.30709Q7.781233,12.278822,7.853682,12.264410999999999Q7.9261315,12.25,8,12.25Z" fill-rule="evenodd" fill="#2882FF" fill-opacity="1"/></g></g></svg>