<svg xmlns="http://www.w3.org/2000/svg" xmlns:xlink="http://www.w3.org/1999/xlink" fill="none" version="1.1" width="24" height="24" viewBox="0 0 24 24"><defs><clipPath id="master_svg0_63_20292"><rect x="0" y="0" width="24" height="24" rx="0"/></clipPath></defs><g clip-path="url(#master_svg0_63_20292)"><g><path d="M13.25,3Q13.25,2.9261315,13.264410999999999,2.853682Q13.278822,2.781233,13.30709,2.712987Q13.335359,2.644742,13.376398,2.583322Q13.417437,2.521903,13.46967,2.46967Q13.521903,2.417437,13.583322,2.376398Q13.644742,2.335359,13.712987,2.30709Q13.781233,2.278822,13.853682,2.264411Q13.9261315,2.25,14,2.25Q14.0738685,2.25,14.146318,2.264411Q14.218767,2.278822,14.287013,2.30709Q14.355258,2.335359,14.416678,2.376398Q14.478097,2.417437,14.53033,2.46967Q14.582563,2.521903,14.623602,2.583322Q14.664641,2.644742,14.69291,2.712987Q14.721178,2.781233,14.735589000000001,2.853682Q14.75,2.9261315,14.75,3L14.75,7Q14.75,7.10355,14.823223,7.17678Q14.896447,7.25,15,7.25L19,7.25Q19.07387,7.25,19.14632,7.26441Q19.21877,7.27882,19.287010000000002,7.30709Q19.35526,7.33536,19.41668,7.3764Q19.4781,7.41744,19.53033,7.46967Q19.58256,7.5219,19.6236,7.58332Q19.66464,7.64474,19.69291,7.71299Q19.72118,7.78123,19.735590000000002,7.85368Q19.75,7.92613,19.75,8Q19.75,8.07387,19.735590000000002,8.14632Q19.72118,8.21877,19.69291,8.28701Q19.66464,8.355260000000001,19.6236,8.41668Q19.58256,8.478100000000001,19.53033,8.53033Q19.4781,8.58256,19.41668,8.6236Q19.35526,8.66464,19.287010000000002,8.692910000000001Q19.21877,8.72118,19.14632,8.73559Q19.07387,8.75,19,8.75L15,8.75Q14.275126,8.75,13.762563,8.23744Q13.25,7.72487,13.25,7L13.25,3Z" fill-rule="evenodd" fill="#231F2E" fill-opacity="1"/></g><g><path d="M18.25,8.31066L18.25,12Q18.25,12.07387,18.264400000000002,12.14632Q18.2788,12.21877,18.3071,12.28701Q18.3354,12.35526,18.3764,12.41668Q18.4174,12.4781,18.4697,12.53033Q18.521900000000002,12.58256,18.5833,12.6236Q18.6447,12.66464,18.713,12.69291Q18.7812,12.72118,18.8537,12.73559Q18.926099999999998,12.75,19,12.75Q19.073900000000002,12.75,19.1463,12.73559Q19.2188,12.72118,19.287,12.69291Q19.3553,12.66464,19.4167,12.6236Q19.478099999999998,12.58256,19.5303,12.53033Q19.5826,12.4781,19.6236,12.41668Q19.6646,12.35526,19.6929,12.28701Q19.7212,12.21877,19.735599999999998,12.14632Q19.75,12.07387,19.75,12L19.75,8Q19.75,7.85082,19.6929,7.71299Q19.6358,7.57516,19.5303,7.46967L14.53033,2.46967Q14.42484,2.364181,14.28701,2.30709Q14.14918,2.25,14,2.25L7,2.25Q5.860913,2.25,5.0554563,3.0554564Q4.25,3.860913,4.25,5L4.25,12Q4.25,12.07387,4.264411,12.14632Q4.278822,12.21877,4.30709,12.28701Q4.335359,12.35526,4.376398,12.41668Q4.417437,12.4781,4.46967,12.53033Q4.521903,12.58256,4.583322,12.6236Q4.644742,12.66464,4.712987,12.69291Q4.781233,12.72118,4.853682,12.73559Q4.9261315,12.75,5,12.75Q5.0738685,12.75,5.146318,12.73559Q5.218767,12.72118,5.287013,12.69291Q5.355258,12.66464,5.416678,12.6236Q5.478097,12.58256,5.53033,12.53033Q5.582563,12.4781,5.623602,12.41668Q5.664641,12.35526,5.69291,12.28701Q5.721178,12.21877,5.735589,12.14632Q5.75,12.07387,5.75,12L5.75,5Q5.75,4.4822299999999995,6.1161200000000004,4.1161200000000004Q6.4822299999999995,3.75,7,3.75L13.68934,3.75L18.25,8.31066Z" fill-rule="evenodd" fill="#231F2E" fill-opacity="1"/></g><g><path d="M7.09099,21.090989999999998Q7.75,20.43198,7.75,19.5Q7.75,19.42613,7.73559,19.35368Q7.72118,19.28123,7.6929099999999995,19.212989999999998Q7.66464,19.14474,7.6236,19.08332Q7.58256,19.0219,7.53033,18.96967Q7.4780999999999995,18.91744,7.4166799999999995,18.8764Q7.3552599999999995,18.83536,7.28701,18.80709Q7.21877,18.77882,7.146319999999999,18.764409999999998Q7.073869999999999,18.75,7,18.75Q6.926130000000001,18.75,6.853680000000001,18.764409999999998Q6.78123,18.77882,6.71299,18.80709Q6.6447400000000005,18.83536,6.5833200000000005,18.8764Q6.5219000000000005,18.91744,6.46967,18.96967Q6.41744,19.0219,6.3764,19.08332Q6.33536,19.14474,6.3070900000000005,19.212989999999998Q6.27882,19.28123,6.26441,19.35368Q6.25,19.42613,6.25,19.5Q6.25,19.81066,6.03033,20.03033Q5.81066,20.25,5.5,20.25Q5.18934,20.25,4.96967,20.03033Q4.75,19.81066,4.75,19.5L4.75,16.5Q4.75,16.18934,4.96967,15.96967Q5.18934,15.75,5.5,15.75Q5.81066,15.75,6.03033,15.96967Q6.25,16.18934,6.25,16.5Q6.25,16.57387,6.26441,16.64632Q6.27882,16.71877,6.3070900000000005,16.78701Q6.33536,16.85526,6.3764,16.91668Q6.41744,16.9781,6.46967,17.03033Q6.5219000000000005,17.08256,6.5833200000000005,17.1236Q6.6447400000000005,17.16464,6.71299,17.19291Q6.78123,17.22118,6.853680000000001,17.235590000000002Q6.926130000000001,17.25,7,17.25Q7.073869999999999,17.25,7.146319999999999,17.235590000000002Q7.21877,17.22118,7.28701,17.19291Q7.3552599999999995,17.16464,7.4166799999999995,17.1236Q7.4780999999999995,17.08256,7.53033,17.03033Q7.58256,16.9781,7.6236,16.91668Q7.66464,16.85526,7.6929099999999995,16.78701Q7.72118,16.71877,7.73559,16.64632Q7.75,16.57387,7.75,16.5Q7.75,15.56802,7.09099,14.9090097Q6.431979999999999,14.25,5.5,14.25Q4.56802,14.25,3.9090102,14.9090096Q3.250001,15.568019,3.25,16.5L3.25,19.5Q3.250001,20.43198,3.90901,21.090989999999998Q4.56802,21.75,5.5,21.75Q6.431979999999999,21.75,7.09099,21.090989999999998Z" fill-rule="evenodd" fill="#2882FF" fill-opacity="1"/></g><g><path d="M11,15.75L12.25,15.75Q12.25,15.823869,12.26441,15.896318Q12.27882,15.968767,12.30709,16.03701Q12.33536,16.10526,12.3764,16.16668Q12.41744,16.2281,12.46967,16.28033Q12.5219,16.33256,12.58332,16.3736Q12.64474,16.41464,12.71299,16.44291Q12.78123,16.47118,12.85368,16.48559Q12.92613,16.5,13,16.5Q13.07387,16.5,13.14632,16.48559Q13.21877,16.47118,13.28701,16.44291Q13.35526,16.41464,13.41668,16.3736Q13.4781,16.33256,13.53033,16.28033Q13.58256,16.2281,13.6236,16.16668Q13.66464,16.10526,13.69291,16.03701Q13.72118,15.968767,13.73559,15.896318Q13.75,15.823869,13.75,15.75Q13.75,15.12868,13.31066,14.68934Q12.87132,14.25,12.25,14.25L11,14.25Q10.275126,14.25,9.762563,14.762563Q9.25,15.275126,9.25,16L9.25,17Q9.25,17.72487,9.762563,18.23744Q10.275126,18.75,11,18.75L12,18.75Q12.10355,18.75,12.17678,18.82322Q12.25,18.89645,12.25,19L12.25,20Q12.25,20.10355,12.17678,20.17678Q12.10355,20.25,12,20.25L10.75,20.25Q10.75,20.17613,10.735589000000001,20.10368Q10.721178,20.03123,10.692909,19.962989999999998Q10.664641,19.89474,10.623602,19.83332Q10.582563,19.7719,10.53033,19.71967Q10.478097,19.66744,10.416678,19.6264Q10.355258,19.58536,10.287013,19.55709Q10.218767,19.52882,10.146318,19.514409999999998Q10.0738685,19.5,10,19.5Q9.9261315,19.5,9.853682,19.514409999999998Q9.781233,19.52882,9.712987,19.55709Q9.644742,19.58536,9.583322,19.6264Q9.521903,19.66744,9.46967,19.71967Q9.417437,19.7719,9.376398,19.83332Q9.335359,19.89474,9.30709,19.962989999999998Q9.278822,20.03123,9.264410999999999,20.10368Q9.25,20.17613,9.25,20.25Q9.25,20.87116,9.689421,21.31058Q10.128841,21.75,10.75,21.75L12,21.75Q12.72487,21.75,13.23744,21.23744Q13.75,20.72487,13.75,20L13.75,19Q13.75,18.27513,13.23744,17.76256Q12.72487,17.25,12,17.25L11,17.25Q10.896446,17.25,10.823223,17.17678Q10.75,17.10355,10.75,17L10.75,16Q10.75,15.896446,10.823223,15.823223Q10.896446,15.75,11,15.75Z" fill-rule="evenodd" fill="#2882FF" fill-opacity="1"/></g><g><path d="M15.288487,15.237171Q15.25,15.121708,15.25,15Q15.25,14.9261315,15.264410999999999,14.853682Q15.278822,14.781233,15.30709,14.712987Q15.335359,14.644742,15.376398,14.583322Q15.417437,14.521903,15.46967,14.46967Q15.521903,14.417437,15.583322,14.376398Q15.644742,14.335359,15.712987,14.30709Q15.781233,14.278822,15.853682,14.264410999999999Q15.9261315,14.25,16,14.25Q16.0586682,14.25,16.116623,14.259123Q16.174578,14.268246,16.230409,14.286269Q16.28624,14.304293,16.338589,14.330778Q16.390939,14.357264,16.438533,14.391568Q16.486127,14.425872,16.527808,14.46716Q16.569489,14.508447,16.604243,14.555714Q16.638997,14.60298,16.665979,14.655076Q16.69296,14.707172,16.711513,14.762829L18,18.62829L19.28849,14.762829Q19.30704,14.707172,19.33402,14.655076Q19.361,14.60298,19.39576,14.555714Q19.430509999999998,14.508447,19.47219,14.46716Q19.51387,14.425872,19.56147,14.391568Q19.60906,14.357264,19.66141,14.330779Q19.71376,14.304293,19.76959,14.286269Q19.82542,14.268246,19.88338,14.259123Q19.94133,14.25,20,14.25Q20.07387,14.25,20.14632,14.264410999999999Q20.21877,14.278822,20.287010000000002,14.30709Q20.35526,14.335359,20.41668,14.376398Q20.4781,14.417437,20.53033,14.46967Q20.58256,14.521903,20.6236,14.583322Q20.66464,14.644742,20.69291,14.712987Q20.72118,14.781233,20.735590000000002,14.853682Q20.75,14.9261315,20.75,15Q20.75,15.121708,20.71151,15.237171L18.71151,21.23717Q18.68815,21.30725,18.65157,21.37142Q18.61499,21.4356,18.56659,21.4914Q18.51819,21.5472,18.45984,21.592489999999998Q18.40148,21.63778,18.33541,21.67082Q18.26934,21.70385,18.19809,21.72337Q18.12685,21.74288,18.05317,21.74811Q17.97948,21.75335,17.9062,21.74411Q17.83291,21.73487,17.76283,21.71151Q17.67999,21.6839,17.6057,21.637990000000002Q17.53142,21.59208,17.46967,21.53033Q17.40792,21.46858,17.36201,21.3943Q17.3161,21.32001,17.28849,21.23717L15.288487,15.237171L15.288487,15.237171Z" fill-rule="evenodd" fill="#2882FF" fill-opacity="1"/></g><g><path d="M12.0145036,9.560612500000001C11.9780114,9.6830325,12.011558,9.8156025,12.101885,9.905932499999999C12.192212,9.9962525,12.324782,10.0298025,12.4472,9.9933125L13.69242,9.6222925C14.08024,9.5067325,14.43313,9.2963325,14.7192,9.0101225L19.64351,4.0858225C20.118830000000003,3.6104125,20.118830000000003,2.8397125,19.64351,2.3643065C19.1681,1.8889805,18.3974,1.8889805,17.922,2.3643065L12.997694,7.2886125C12.71148,7.5746825,12.50108,7.9275725,12.385519,8.3153925L12.0145036,9.560612500000001Z" fill="#FFFFFF" fill-opacity="1"/><path d="M11.056139,9.2750625L11.056176,9.2749425L11.427161,8.0298225Q11.675555,7.1962225,12.290588,6.5815025L17.21495,1.6571415Q17.86438,1.0078125,18.78275,1.0078125Q19.70112,1.0078125,20.35067,1.6572594999999999Q21,2.3066965,21,3.2250625Q21,4.143432499999999,20.35061,4.7929224999999995L15.42649,9.717052500000001Q14.811589999999999,10.3322625,13.97797,10.5806625L12.732873,10.9516325Q11.9629088,11.1811625,11.394778,10.6130325Q10.86216,10.0804225,11.030602,9.3704025Q11.041816,9.3231225,11.056139,9.2750625ZM12.101885,9.905932499999999C12.011558,9.8156025,11.9780114,9.6830325,12.0145036,9.560612500000001L12.172028,9.0319225L12.17205,9.0318425L12.385519,8.3153925C12.50108,7.9275725,12.71148,7.5746825,12.997694,7.2886125L17.922,2.3643065C18.3974,1.8889805,19.1681,1.8889805,19.64351,2.3643065C20.118830000000003,2.8397125,20.118830000000003,3.6104125,19.64351,4.0858225L14.7192,9.0101225C14.43313,9.2963325,14.08024,9.5067325,13.69242,9.6222925L12.975966,9.835762500000001L12.97589,9.8357825L12.4472,9.9933125C12.324782,10.0298025,12.192212,9.9962525,12.101885,9.905932499999999Z" fill-rule="evenodd" fill="#FFFFFF" fill-opacity="1"/></g><g><path d="M19.64351,2.3643065C19.1681,1.8889805,18.3974,1.8889805,17.922,2.3643065L17.38541,2.9008875L19.10693,4.6224025L19.64351,4.0858225C20.118830000000003,3.6104125,20.118830000000003,2.8397125,19.64351,2.3643065ZM18.61487,5.1144625L16.893349999999998,3.3929425L12.997694,7.2886125C12.71148,7.5746825,12.50108,7.9275725,12.385519,8.3153925L12.0145036,9.560612500000001C11.9780114,9.6830325,12.011558,9.8156025,12.101885,9.905932499999999C12.192212,9.9962525,12.324782,10.0298025,12.4472,9.9933125L13.69242,9.6222925C14.08024,9.5067325,14.43313,9.2963325,14.7192,9.0101225L18.61487,5.1144625Z" fill="#2882FF" fill-opacity="1"/></g></g></svg>