<svg xmlns="http://www.w3.org/2000/svg" xmlns:xlink="http://www.w3.org/1999/xlink" fill="none" version="1.1" width="24" height="24" viewBox="0 0 24 24"><defs><clipPath id="master_svg0_63_18913"><rect x="0" y="0" width="24" height="24" rx="0"/></clipPath></defs><g clip-path="url(#master_svg0_63_18913)"><g><path d="M18.530484,3.469824L21.53033,6.46967Q21.63582,6.57516,21.69291,6.71299Q21.75,6.850820000000001,21.75,7Q21.75,7.149179999999999,21.69291,7.28701Q21.63582,7.42484,21.53033,7.53033L18.530792,10.529869999999999L18.53033,10.53033Q18.424841,10.635819999999999,18.287013,10.692910000000001Q18.149184,10.75,18,10.75Q17.9261315,10.75,17.853682,10.73559Q17.781233,10.72118,17.712987,10.692910000000001Q17.644742,10.66464,17.583322,10.6236Q17.521903000000002,10.58256,17.46967,10.53033Q17.417437,10.478100000000001,17.376398000000002,10.41668Q17.335359,10.355260000000001,17.30709,10.28701Q17.278822,10.21877,17.264411,10.14632Q17.25,10.07387,17.25,10Q17.25,9.850819999999999,17.30709,9.71299Q17.364181,9.57516,17.46967,9.46967L17.470132,9.46921L19.93934,7L17.469824,4.5304839999999995L17.46967,4.53033Q17.364181,4.424841,17.30709,4.287013Q17.25,4.149184,17.25,4Q17.25,3.9261315,17.264411,3.853682Q17.278822,3.781233,17.30709,3.712987Q17.335359,3.644742,17.376398000000002,3.583322Q17.417437,3.521903,17.46967,3.46967Q17.521903000000002,3.417437,17.583322,3.376398Q17.644742,3.335359,17.712987,3.30709Q17.781233,3.278822,17.853682,3.264411Q17.9261315,3.25,18,3.25Q18.149184,3.25,18.287013,3.30709Q18.424841,3.364181,18.53033,3.46967L18.530484,3.469824Z" fill-rule="evenodd" fill="#231F2E" fill-opacity="1"/></g><g><path d="M18.530484,13.469824L21.53033,16.46967Q21.63582,16.57516,21.69291,16.71299Q21.75,16.85082,21.75,17Q21.75,17.14918,21.69291,17.28701Q21.63582,17.42484,21.53033,17.53033L18.530792,20.52987L18.53033,20.53033Q18.424841,20.63582,18.287013,20.69291Q18.149184,20.75,18,20.75Q17.9261315,20.75,17.853682,20.735590000000002Q17.781233,20.72118,17.712987,20.69291Q17.644742,20.66464,17.583322,20.6236Q17.521903000000002,20.58256,17.46967,20.53033Q17.417437,20.4781,17.376398000000002,20.41668Q17.335359,20.35526,17.30709,20.287010000000002Q17.278822,20.21877,17.264411,20.14632Q17.25,20.07387,17.25,20Q17.25,19.85082,17.30709,19.712989999999998Q17.364181,19.57516,17.46967,19.46967L17.470132,19.46921L19.93934,17L17.469824,14.530484L17.46967,14.53033Q17.364181,14.424841,17.30709,14.287013Q17.25,14.149184,17.25,14Q17.25,13.9261315,17.264411,13.853682Q17.278822,13.781233,17.30709,13.712987Q17.335359,13.644742,17.376398000000002,13.583322Q17.417437,13.521903,17.46967,13.46967Q17.521903000000002,13.417437,17.583322,13.376398Q17.644742,13.335359,17.712987,13.30709Q17.781233,13.278822,17.853682,13.264410999999999Q17.9261315,13.25,18,13.25Q18.149184,13.25,18.287013,13.30709Q18.424841,13.364181,18.53033,13.46967L18.530484,13.469824Z" fill-rule="evenodd" fill="#2882FF" fill-opacity="1"/></g><g><path d="M16,7.75L21,7.75Q21.0739,7.75,21.1463,7.735589Q21.2188,7.721178,21.287,7.69291Q21.3553,7.664641,21.4167,7.623602Q21.4781,7.582563,21.5303,7.53033Q21.5826,7.478097,21.6236,7.416678Q21.6646,7.355258,21.6929,7.287013Q21.7212,7.218767,21.7356,7.146318Q21.75,7.0738685,21.75,7Q21.75,6.9261315,21.7356,6.853682Q21.7212,6.781233,21.6929,6.712987Q21.6646,6.644742,21.6236,6.583322Q21.5826,6.521903,21.5303,6.46967Q21.4781,6.417437,21.4167,6.376398Q21.3553,6.335359,21.287,6.30709Q21.2188,6.278822,21.1463,6.264411Q21.0739,6.25,21,6.25L16,6.25Q13.6183,6.25,11.93414,7.934136Q10.25,9.618269999999999,10.25,12Q10.25,13.76041,9.0052,15.0052Q7.76041,16.25,6,16.25L3,16.25Q2.9261315,16.25,2.853682,16.264409999999998Q2.781233,16.27882,2.712987,16.307090000000002Q2.644742,16.33536,2.583322,16.3764Q2.521903,16.41744,2.46967,16.46967Q2.417437,16.521900000000002,2.376398,16.58332Q2.335359,16.64474,2.30709,16.712989999999998Q2.278822,16.78123,2.264411,16.85368Q2.25,16.92613,2.25,17Q2.25,17.073900000000002,2.264411,17.1463Q2.278822,17.2188,2.30709,17.287Q2.335359,17.3553,2.376398,17.4167Q2.417437,17.478099999999998,2.46967,17.5303Q2.521903,17.5826,2.583322,17.6236Q2.644742,17.6646,2.712987,17.6929Q2.781233,17.7212,2.853682,17.735599999999998Q2.9261315,17.75,3,17.75L6,17.75Q8.381730000000001,17.75,10.06586,16.06586Q11.75,14.381730000000001,11.75,12Q11.75,10.23959,12.99479,8.9948Q14.2396,7.75,16,7.75Z" fill-rule="evenodd" fill="#231F2E" fill-opacity="1"/></g><g><path d="M3,6.25L6,6.25Q8.381730000000001,6.25,10.06586,7.934136Q11.75,9.618269999999999,11.75,12Q11.75,13.76041,12.99479,15.0052Q14.2396,16.25,16,16.25L21,16.25Q21.0739,16.25,21.1463,16.264409999999998Q21.2188,16.27882,21.287,16.307090000000002Q21.3553,16.33536,21.4167,16.3764Q21.4781,16.41744,21.5303,16.46967Q21.5826,16.521900000000002,21.6236,16.58332Q21.6646,16.64474,21.6929,16.712989999999998Q21.7212,16.78123,21.7356,16.85368Q21.75,16.92613,21.75,17Q21.75,17.073900000000002,21.7356,17.1463Q21.7212,17.2188,21.6929,17.287Q21.6646,17.3553,21.6236,17.4167Q21.5826,17.478099999999998,21.5303,17.5303Q21.4781,17.5826,21.4167,17.6236Q21.3553,17.6646,21.287,17.6929Q21.2188,17.7212,21.1463,17.735599999999998Q21.0739,17.75,21,17.75L16,17.75Q13.6183,17.75,11.93414,16.06586Q10.25,14.381730000000001,10.25,12Q10.25,10.23959,9.0052,8.9948Q7.76041,7.75,6,7.75L3,7.75Q2.9261315,7.75,2.853682,7.735589Q2.781233,7.721178,2.712987,7.69291Q2.644742,7.664641,2.583322,7.623602Q2.521903,7.582563,2.46967,7.53033Q2.417437,7.478097,2.376398,7.416678Q2.335359,7.355258,2.30709,7.287013Q2.278822,7.218767,2.264411,7.146318Q2.25,7.0738685,2.25,7Q2.25,6.9261315,2.264411,6.853682Q2.278822,6.781233,2.30709,6.712987Q2.335359,6.644742,2.376398,6.583322Q2.417437,6.521903,2.46967,6.46967Q2.521903,6.417437,2.583322,6.376398Q2.644742,6.335359,2.712987,6.30709Q2.781233,6.278822,2.853682,6.264411Q2.9261315,6.25,3,6.25Z" fill-rule="evenodd" fill="#2882FF" fill-opacity="1"/></g></g></svg>