<svg xmlns="http://www.w3.org/2000/svg" xmlns:xlink="http://www.w3.org/1999/xlink" fill="none" version="1.1" width="24" height="24" viewBox="0 0 24 24"><defs><clipPath id="master_svg0_63_19031"><rect x="0" y="0" width="24" height="24" rx="0"/></clipPath></defs><g clip-path="url(#master_svg0_63_19031)"><g><path d="M9,5.25L20,5.25Q20.073900000000002,5.25,20.1463,5.264411Q20.2188,5.278822,20.287,5.30709Q20.3553,5.335359,20.4167,5.376398Q20.478099999999998,5.417437,20.5303,5.46967Q20.5826,5.521903,20.6236,5.583322Q20.6646,5.644742,20.6929,5.712987Q20.7212,5.781233,20.735599999999998,5.853682Q20.75,5.9261315,20.75,6Q20.75,6.0738685,20.735599999999998,6.146318Q20.7212,6.218767,20.6929,6.287013Q20.6646,6.355258,20.6236,6.416678Q20.5826,6.478097,20.5303,6.53033Q20.478099999999998,6.582563,20.4167,6.623602Q20.3553,6.664641,20.287,6.69291Q20.2188,6.721178,20.1463,6.735589Q20.073900000000002,6.75,20,6.75L9,6.75Q8.9261315,6.75,8.853682,6.735589Q8.781233,6.721178,8.712987,6.69291Q8.644742,6.664641,8.583322,6.623602Q8.521903,6.582563,8.46967,6.53033Q8.417437,6.478097,8.376398,6.416678Q8.335359,6.355258,8.30709,6.287013Q8.278822,6.218767,8.264410999999999,6.146318Q8.25,6.0738685,8.25,6Q8.25,5.9261315,8.264410999999999,5.853682Q8.278822,5.781233,8.30709,5.712987Q8.335359,5.644742,8.376398,5.583322Q8.417437,5.521903,8.46967,5.46967Q8.521903,5.417437,8.583322,5.376398Q8.644742,5.335359,8.712987,5.30709Q8.781233,5.278822,8.853682,5.264411Q8.9261315,5.25,9,5.25Z" fill-rule="evenodd" fill="#231F2E" fill-opacity="1"/></g><g><path d="M9,11.25L20,11.25Q20.073900000000002,11.25,20.1463,11.264410999999999Q20.2188,11.278822,20.287,11.30709Q20.3553,11.335359,20.4167,11.376398Q20.478099999999998,11.417437,20.5303,11.46967Q20.5826,11.521903,20.6236,11.583322Q20.6646,11.644742,20.6929,11.712987Q20.7212,11.781233,20.735599999999998,11.853682Q20.75,11.9261315,20.75,12Q20.75,12.0738685,20.735599999999998,12.146318Q20.7212,12.218767,20.6929,12.287013Q20.6646,12.355258,20.6236,12.416678Q20.5826,12.478097,20.5303,12.53033Q20.478099999999998,12.582563,20.4167,12.623602Q20.3553,12.664641,20.287,12.69291Q20.2188,12.721178,20.1463,12.735589000000001Q20.073900000000002,12.75,20,12.75L9,12.75Q8.9261315,12.75,8.853682,12.735589000000001Q8.781233,12.721178,8.712987,12.69291Q8.644742,12.664641,8.583322,12.623602Q8.521903,12.582563,8.46967,12.53033Q8.417437,12.478097,8.376398,12.416678Q8.335359,12.355258,8.30709,12.287013Q8.278822,12.218767,8.264410999999999,12.146318Q8.25,12.0738685,8.25,12Q8.25,11.9261315,8.264410999999999,11.853682Q8.278822,11.781233,8.30709,11.712987Q8.335359,11.644742,8.376398,11.583322Q8.417437,11.521903,8.46967,11.46967Q8.521903,11.417437,8.583322,11.376398Q8.644742,11.335359,8.712987,11.30709Q8.781233,11.278822,8.853682,11.264410999999999Q8.9261315,11.25,9,11.25Z" fill-rule="evenodd" fill="#231F2E" fill-opacity="1"/></g><g><path d="M9,17.25L12,17.25Q12.07387,17.25,12.14632,17.264411Q12.21877,17.278822,12.28701,17.30709Q12.35526,17.335359,12.41668,17.376398000000002Q12.4781,17.417437,12.53033,17.46967Q12.58256,17.521903000000002,12.6236,17.583322Q12.66464,17.644742,12.69291,17.712987Q12.72118,17.781233,12.73559,17.853682Q12.75,17.9261315,12.75,18Q12.75,18.0738685,12.73559,18.146318Q12.72118,18.218767,12.69291,18.287013Q12.66464,18.355258,12.6236,18.416678Q12.58256,18.478096999999998,12.53033,18.53033Q12.4781,18.582563,12.41668,18.623601999999998Q12.35526,18.664641,12.28701,18.69291Q12.21877,18.721178,12.14632,18.735589Q12.07387,18.75,12,18.75L9,18.75Q8.9261315,18.75,8.853682,18.735589Q8.781233,18.721178,8.712987,18.69291Q8.644742,18.664641,8.583322,18.623601999999998Q8.521903,18.582563,8.46967,18.53033Q8.417437,18.478096999999998,8.376398,18.416678Q8.335359,18.355258,8.30709,18.287013Q8.278822,18.218767,8.264410999999999,18.146318Q8.25,18.0738685,8.25,18Q8.25,17.9261315,8.264410999999999,17.853682Q8.278822,17.781233,8.30709,17.712987Q8.335359,17.644742,8.376398,17.583322Q8.417437,17.521903000000002,8.46967,17.46967Q8.521903,17.417437,8.583322,17.376398000000002Q8.644742,17.335359,8.712987,17.30709Q8.781233,17.278822,8.853682,17.264411Q8.9261315,17.25,9,17.25Z" fill-rule="evenodd" fill="#231F2E" fill-opacity="1"/></g><g><ellipse cx="5.0048828125" cy="6" rx="1" ry="1" fill="#231F2E" fill-opacity="1"/></g><g><ellipse cx="5.0048828125" cy="12.010009765625" rx="1" ry="1" fill="#231F2E" fill-opacity="1"/></g><g><ellipse cx="5.0048828125" cy="18.010009765625" rx="1" ry="1" fill="#231F2E" fill-opacity="1"/></g><g><path d="M14.25,18.75Q14.25,18.6761315,14.264410999999999,18.603682Q14.278822,18.531233,14.30709,18.462987Q14.335359,18.394742,14.376398,18.333322Q14.417437,18.271903000000002,14.46967,18.21967Q14.521903,18.167437,14.583322,18.126398000000002Q14.644742,18.085359,14.712987,18.05709Q14.781233,18.028822,14.853682,18.014411Q14.9261315,18,15,18Q15.0738685,18,15.146318,18.014411Q15.218767,18.028822,15.287013,18.05709Q15.355258,18.085359,15.416678,18.126398000000002Q15.478097,18.167437,15.53033,18.21967Q15.582563,18.271903000000002,15.623602,18.333322Q15.664641,18.394742,15.69291,18.462987Q15.721178,18.531233,15.735589000000001,18.603682Q15.75,18.6761315,15.75,18.75L15.75,19.75L21.25,19.75L21.25,18.75Q21.25,18.6761315,21.264409999999998,18.603682Q21.27882,18.531233,21.30709,18.462987Q21.33536,18.394742,21.3764,18.333322Q21.41744,18.271903000000002,21.46967,18.21967Q21.5219,18.167437,21.58332,18.126398000000002Q21.64474,18.085359,21.712989999999998,18.05709Q21.78123,18.028822,21.85368,18.014411Q21.92613,18,22,18Q22.07387,18,22.14632,18.014411Q22.21877,18.028822,22.287010000000002,18.05709Q22.35526,18.085359,22.41668,18.126398000000002Q22.4781,18.167437,22.53033,18.21967Q22.58256,18.271903000000002,22.6236,18.333322Q22.66464,18.394742,22.69291,18.462987Q22.72118,18.531233,22.735590000000002,18.603682Q22.75,18.6761315,22.75,18.75L22.75,20.0625Q22.75,20.554380000000002,22.40219,20.90219Q22.054380000000002,21.25,21.5625,21.25L15.4375,21.25Q14.9456217,21.25,14.597811,20.90219Q14.25,20.554380000000002,14.25,20.0625L14.25,18.75Z" fill-rule="evenodd" fill="#2882FF" fill-opacity="1" style="mix-blend-mode:passthrough"/></g></g></svg>