<svg xmlns="http://www.w3.org/2000/svg" xmlns:xlink="http://www.w3.org/1999/xlink" fill="none" version="1.1" width="24" height="24" viewBox="0 0 24 24"><defs><clipPath id="master_svg0_63_18921"><rect x="0" y="0" width="24" height="24" rx="0"/></clipPath></defs><g clip-path="url(#master_svg0_63_18921)"><g><path d="M18,3.25L7,3.25Q5.860913,3.25,5.0554564,4.0554564Q4.25,4.860913,4.25,6L4.25,18Q4.25,19.1391,5.0554565,19.944499999999998Q5.860911,20.75,7,20.75L18,20.75Q18.724899999999998,20.75,19.2374,20.2374Q19.75,19.724899999999998,19.75,19L19.75,5Q19.75,4.275127,19.2374,3.762564Q18.724899999999998,3.25,18,3.25ZM6.1161200000000004,5.1161200000000004Q6.4822299999999995,4.75,7,4.75L18,4.75Q18.25,4.75,18.25,5L18.25,19Q18.25,19.25,18,19.25L7,19.25Q6.4822299999999995,19.25,6.1161200000000004,18.8839Q5.75,18.5178,5.75,18L5.75,6Q5.75,5.4822299999999995,6.1161200000000004,5.1161200000000004Z" fill-rule="evenodd" fill="#231F2E" fill-opacity="1"/></g><g><path d="M4.466417,16.929345Q4.25,17.44101,4.25,18Q4.25,18.07387,4.264411,18.14632Q4.278822,18.21877,4.30709,18.28701Q4.335359,18.35526,4.376398,18.41668Q4.417437,18.4781,4.46967,18.53033Q4.521903,18.58256,4.583322,18.6236Q4.644742,18.66464,4.712987,18.69291Q4.781233,18.72118,4.853682,18.735590000000002Q4.9261315,18.75,5,18.75Q5.0738685,18.75,5.146318,18.735590000000002Q5.218767,18.72118,5.287013,18.69291Q5.355258,18.66464,5.416678,18.6236Q5.478097,18.58256,5.53033,18.53033Q5.582563,18.4781,5.623602,18.41668Q5.664641,18.35526,5.69291,18.28701Q5.721178,18.21877,5.735589,18.14632Q5.75,18.07387,5.75,18Q5.75,17.48223,6.1161200000000004,17.11612Q6.4822299999999995,16.75,7,16.75L19,16.75Q19.073900000000002,16.75,19.1463,16.735589Q19.2188,16.721178,19.287,16.69291Q19.3553,16.664641,19.4167,16.623601999999998Q19.478099999999998,16.582563,19.5303,16.53033Q19.5826,16.478096999999998,19.6236,16.416678Q19.6646,16.355258,19.6929,16.287013Q19.7212,16.218767,19.735599999999998,16.146318Q19.75,16.0738685,19.75,16Q19.75,15.9261315,19.735599999999998,15.853682Q19.7212,15.781233,19.6929,15.712987Q19.6646,15.644742,19.6236,15.583322Q19.5826,15.521903,19.5303,15.46967Q19.478099999999998,15.417437,19.4167,15.376398Q19.3553,15.335359,19.287,15.30709Q19.2188,15.278822,19.1463,15.264410999999999Q19.073900000000002,15.25,19,15.25L7,15.25Q6.44101,15.25,5.929346,15.466416Q5.435703,15.67521,5.0554565,16.0554559Q4.67521,16.435702,4.466417,16.929345Z" fill-rule="evenodd" fill="#231F2E" fill-opacity="1"/></g><g><path d="M13,3.25L9,3.25Q8.9261315,3.25,8.853682,3.264411Q8.781233,3.278822,8.712987,3.30709Q8.644742,3.335359,8.583322,3.376398Q8.521903,3.417437,8.46967,3.46967Q8.417437,3.521903,8.376398,3.583322Q8.335359,3.644742,8.30709,3.712987Q8.278822,3.781233,8.264410999999999,3.853682Q8.25,3.9261315,8.25,4L8.25,9.66663Q8.25,9.893699999999999,8.375951,10.08263Q8.4587,10.206769999999999,8.582653,10.28978Q8.706606,10.3728,8.852892,10.402059999999999Q8.999178557,10.43132,9.145527,10.402370000000001Q9.291876,10.37342,9.416008,10.29068L11,9.23474L12.58399,10.29068Q12.77293,10.41663,13,10.41663Q13.07387,10.41663,13.14632,10.40221Q13.21877,10.3878,13.28701,10.35953Q13.355260000000001,10.33127,13.41668,10.290230000000001Q13.478100000000001,10.249189999999999,13.53033,10.19696Q13.58256,10.14472,13.6236,10.083300000000001Q13.66464,10.02188,13.692910000000001,9.95364Q13.72118,9.885390000000001,13.73559,9.812940000000001Q13.75,9.740490000000001,13.75,9.66663L13.75,4Q13.75,3.9261315,13.73559,3.853682Q13.72118,3.781233,13.692910000000001,3.712987Q13.66464,3.644742,13.6236,3.583322Q13.58256,3.521903,13.53033,3.46967Q13.478100000000001,3.417437,13.41668,3.376398Q13.355260000000001,3.335359,13.28701,3.30709Q13.21877,3.278822,13.14632,3.264411Q13.07387,3.25,13,3.25ZM9.75,4.75L9.75,8.26529L10.58399,7.70932Q10.67639,7.64773,10.78267,7.61555Q10.88895,7.58337,11,7.58337Q11.11105,7.58337,11.21733,7.61555Q11.32361,7.64773,11.41601,7.70932L12.25,8.26529L12.25,4.75L9.75,4.75Z" fill-rule="evenodd" fill="#231F2E" fill-opacity="1"/></g><g><g><path d="M21.50057,18.5Q21.50057,18.64738,21.48612,18.79405Q21.47167,18.94072,21.44292,19.08527Q21.41416,19.22982,21.37137,19.37085Q21.32858,19.51189,21.27217,19.648049999999998Q21.21575,19.78421,21.14627,19.914189999999998Q21.07678,20.04417,20.994880000000002,20.166710000000002Q20.91299,20.28925,20.81947,20.40318Q20.72596,20.51711,20.62172,20.62132Q20.51749,20.72553,20.40354,20.819029999999998Q20.28959,20.91253,20.16703,20.994410000000002Q20.04446,21.07629,19.91446,21.14576Q19.78446,21.21524,19.64827,21.271639999999998Q19.51208,21.32804,19.37102,21.370820000000002Q19.22996,21.4136,19.08538,21.44236Q18.94081,21.47111,18.79411,21.48555Q18.64741,21.5,18.5,21.5Q18.35259,21.5,18.20589,21.48555Q18.05919,21.47111,17.91462,21.44235Q17.77004,21.4136,17.62898,21.370820000000002Q17.48792,21.32804,17.35173,21.271639999999998Q17.21554,21.21524,17.08554,21.14576Q16.95554,21.07629,16.83297,20.994410000000002Q16.71041,20.91253,16.59646,20.819029999999998Q16.482509,20.72553,16.378275,20.62132Q16.274041,20.51711,16.180526,20.40318Q16.087011,20.28925,16.005115,20.166710000000002Q15.923219,20.04417,15.853732,19.914189999999998Q15.784244,19.78421,15.727833,19.648049999999998Q15.671422,19.51189,15.628631,19.37085Q15.585841,19.22982,15.557083,19.08527Q15.528325,18.94072,15.5138764,18.79405Q15.499427875,18.64738,15.499427875,18.5Q15.499427875,18.35262,15.5138764,18.20595Q15.528325,18.05928,15.557083,17.91473Q15.585841,17.77018,15.628631,17.62915Q15.671422,17.48811,15.727833,17.35195Q15.784244,17.21579,15.853732,17.08581Q15.923219,16.95583,16.005115,16.83329Q16.087011,16.71075,16.180526,16.59682Q16.274041,16.482893,16.378275,16.37868Q16.482509,16.274466,16.59646,16.180969Q16.71041,16.087471,16.83297,16.005591Q16.95554,15.923711,17.08554,15.854236Q17.21554,15.784761,17.35173,15.728361Q17.48792,15.671961,17.62898,15.629179Q17.77004,15.5863967,17.91462,15.5576442Q18.05919,15.5288916,18.20589,15.5144458Q18.35259,15.5,18.5,15.5Q18.64741,15.5,18.79411,15.5144458Q18.94081,15.5288916,19.08538,15.5576442Q19.22996,15.5863967,19.37102,15.629179Q19.51208,15.671961,19.64827,15.728361Q19.78446,15.784761,19.91446,15.854236Q20.04446,15.923711,20.16703,16.005591Q20.28959,16.087471,20.40354,16.180969Q20.51749,16.274466,20.62172,16.37868Q20.72596,16.482893,20.81947,16.59682Q20.91299,16.71075,20.994880000000002,16.83329Q21.07678,16.95583,21.14627,17.08581Q21.21575,17.21579,21.27217,17.35195Q21.32858,17.48811,21.37137,17.62915Q21.41416,17.77018,21.44292,17.91473Q21.47167,18.05928,21.48612,18.20595Q21.50057,18.35262,21.50057,18.5Z" fill="#2882FF" fill-opacity="1"/><path d="M21.85818,15.140663Q20.46703,13.75,18.5,13.75Q16.53297,13.75,15.141822,15.140663Q13.75068,16.53133,13.75,18.498359999999998Q13.74932,20.46635,15.140663,21.85818Q16.53201,23.25,18.5,23.25Q20.46799,23.25,21.85934,21.85818Q23.25068,20.46635,23.25,18.498359999999998Q23.24932,16.53133,21.85818,15.140663ZM17.61627,17.61596Q17.98236,17.25,18.5,17.25Q19.01764,17.25,19.38373,17.61596Q19.74982,17.98193,19.75,18.49957Q19.75018,19.01746,19.38404,19.38373Q19.01789,19.75,18.5,19.75Q17.98211,19.75,17.61596,19.38373Q17.24982,19.01746,17.25,18.49957Q17.25018,17.98193,17.61627,17.61596Z" fill-rule="evenodd" fill="#FFFFFF" fill-opacity="1" style="mix-blend-mode:passthrough"/></g><g><path d="M21.50057,18.5Q21.50057,18.64738,21.48612,18.79405Q21.47167,18.94072,21.44292,19.08527Q21.41416,19.22982,21.37137,19.37085Q21.32858,19.51189,21.27217,19.648049999999998Q21.21575,19.78421,21.14627,19.914189999999998Q21.07678,20.04417,20.994880000000002,20.166710000000002Q20.91299,20.28925,20.81947,20.40318Q20.72596,20.51711,20.62172,20.62132Q20.51749,20.72553,20.40354,20.819029999999998Q20.28959,20.91253,20.16703,20.994410000000002Q20.04446,21.07629,19.91446,21.14576Q19.78446,21.21524,19.64827,21.271639999999998Q19.51208,21.32804,19.37102,21.370820000000002Q19.22996,21.4136,19.08538,21.44236Q18.94081,21.47111,18.79411,21.48555Q18.64741,21.5,18.5,21.5Q18.35259,21.5,18.20589,21.48555Q18.05919,21.47111,17.91462,21.44235Q17.77004,21.4136,17.62898,21.370820000000002Q17.48792,21.32804,17.35173,21.271639999999998Q17.21554,21.21524,17.08554,21.14576Q16.95554,21.07629,16.83297,20.994410000000002Q16.71041,20.91253,16.59646,20.819029999999998Q16.482509,20.72553,16.378275,20.62132Q16.274041,20.51711,16.180526,20.40318Q16.087011,20.28925,16.005115,20.166710000000002Q15.923219,20.04417,15.853732,19.914189999999998Q15.784244,19.78421,15.727833,19.648049999999998Q15.671422,19.51189,15.628631,19.37085Q15.585841,19.22982,15.557083,19.08527Q15.528325,18.94072,15.5138764,18.79405Q15.499427875,18.64738,15.499427875,18.5Q15.499427875,18.35262,15.5138764,18.20595Q15.528325,18.05928,15.557083,17.91473Q15.585841,17.77018,15.628631,17.62915Q15.671422,17.48811,15.727833,17.35195Q15.784244,17.21579,15.853732,17.08581Q15.923219,16.95583,16.005115,16.83329Q16.087011,16.71075,16.180526,16.59682Q16.274041,16.482893,16.378275,16.37868Q16.482509,16.274466,16.59646,16.180969Q16.71041,16.087471,16.83297,16.005591Q16.95554,15.923711,17.08554,15.854236Q17.21554,15.784761,17.35173,15.728361Q17.48792,15.671961,17.62898,15.629179Q17.77004,15.5863967,17.91462,15.5576442Q18.05919,15.5288916,18.20589,15.5144458Q18.35259,15.5,18.5,15.5Q18.64741,15.5,18.79411,15.5144458Q18.94081,15.5288916,19.08538,15.5576442Q19.22996,15.5863967,19.37102,15.629179Q19.51208,15.671961,19.64827,15.728361Q19.78446,15.784761,19.91446,15.854236Q20.04446,15.923711,20.16703,16.005591Q20.28959,16.087471,20.40354,16.180969Q20.51749,16.274466,20.62172,16.37868Q20.72596,16.482893,20.81947,16.59682Q20.91299,16.71075,20.994880000000002,16.83329Q21.07678,16.95583,21.14627,17.08581Q21.21575,17.21579,21.27217,17.35195Q21.32858,17.48811,21.37137,17.62915Q21.41416,17.77018,21.44292,17.91473Q21.47167,18.05928,21.48612,18.20595Q21.50057,18.35262,21.50057,18.5Z" fill="#2882FF" fill-opacity="1"/><path d="M21.15119,15.847892Q20.05292,14.75,18.5,14.75Q16.94708,14.75,15.848807,15.847892Q14.750536,16.94578,14.75,18.4987Q14.749464,20.05238,15.847892,21.15119Q16.94632,22.25,18.5,22.25Q20.05368,22.25,21.15211,21.15119Q22.25054,20.05238,22.25,18.49871Q22.24946,16.94578,21.15119,15.847892ZM16.90928,16.90874Q17.56825,16.25,18.5,16.25Q19.43175,16.25,20.09071,16.90873Q20.749679999999998,17.56747,20.75,18.49922Q20.750320000000002,19.43143,20.09126,20.09072Q19.43221,20.75,18.5,20.75Q17.56779,20.75,16.90874,20.09072Q16.249678,19.43143,16.25,18.49922Q16.250322,17.56747,16.90928,16.90874Z" fill-rule="evenodd" fill="#2882FF" fill-opacity="1"/></g><g><path d="M16.75,17.748789072036743L20.24995,17.748789072036743Q20.32381,17.748789072036743,20.396259999999998,17.763200072036742Q20.46871,17.777611072036745,20.53696,17.805879072036742Q20.6052,17.834148072036744,20.66662,17.875187072036745Q20.72804,17.916226072036743,20.78028,17.968459072036744Q20.83251,18.020692072036745,20.87355,18.082111072036742Q20.91459,18.143531072036744,20.94286,18.21177607203674Q20.97112,18.280022072036743,20.98554,18.352471072036742Q20.99995,18.424920572036743,20.99995,18.498789072036743Q20.99995,18.572657572036743,20.98554,18.645107072036744Q20.97112,18.717556072036743,20.94286,18.785802072036745Q20.91459,18.854047072036742,20.87355,18.915467072036744Q20.83251,18.97688607203674,20.78028,19.029119072036742Q20.72804,19.081352072036744,20.66662,19.12239107203674Q20.6052,19.163430072036743,20.53696,19.191699072036744Q20.46871,19.21996707203674,20.396259999999998,19.234378072036744Q20.32381,19.248789072036743,20.24995,19.248789072036743L16.75,19.248789072036743Q16.6761315,19.248789072036743,16.603682,19.234378072036744Q16.531233,19.21996707203674,16.462987,19.191699072036744Q16.394742,19.163430072036743,16.333322,19.12239107203674Q16.271903000000002,19.081352072036744,16.21967,19.029119072036742Q16.167437,18.97688607203674,16.126398000000002,18.915467072036744Q16.085359,18.854047072036742,16.05709,18.785802072036745Q16.028822,18.717556072036743,16.014411,18.645107072036744Q16,18.572657572036743,16,18.498789072036743Q16,18.424920572036743,16.014411,18.352471072036742Q16.028822,18.280022072036743,16.05709,18.21177607203674Q16.085359,18.143531072036744,16.126398000000002,18.082111072036742Q16.167437,18.020692072036745,16.21967,17.968459072036744Q16.271903000000002,17.916226072036743,16.333322,17.875187072036745Q16.394742,17.834148072036744,16.462987,17.805879072036742Q16.531233,17.777611072036745,16.603682,17.763200072036742Q16.6761315,17.748789072036743,16.75,17.748789072036743Z" fill-rule="evenodd" fill="#FFFFFF" fill-opacity="1" style="mix-blend-mode:passthrough"/></g><g><path d="M17.749999523162842,16.748779296875Q17.749999523162842,16.674910796875,17.76441052316284,16.602461296875Q17.778821523162843,16.530012296875,17.80708952316284,16.461766296875Q17.835358523162842,16.393521296875,17.876397523162844,16.332101296875Q17.91743652316284,16.270682296875002,17.969669523162842,16.218449296875Q18.021902523162844,16.166216296875,18.08332152316284,16.125177296875002Q18.144741523162843,16.084138296875,18.21298652316284,16.055869296875Q18.281232523162842,16.027601296875,18.35368152316284,16.013190296875Q18.426131023162842,15.998779296875,18.499999523162842,15.998779296875Q18.57386802316284,15.998779296875,18.646317523162843,16.013190296875Q18.71876652316284,16.027601296875,18.787012523162844,16.055869296875Q18.85525752316284,16.084138296875,18.916677523162843,16.125177296875002Q18.97809652316284,16.166216296875,19.03032952316284,16.218449296875Q19.082562523162842,16.270682296875002,19.12360152316284,16.332101296875Q19.16464052316284,16.393521296875,19.192909523162843,16.461766296875Q19.22117752316284,16.530012296875,19.235588523162843,16.602461296875Q19.249999523162842,16.674910796875,19.249999523162842,16.748779296875L19.249999523162842,20.248729296875Q19.249999523162842,20.322589296875,19.235588523162843,20.395039296874998Q19.22117752316284,20.467489296875,19.192909523162843,20.535739296875Q19.16464052316284,20.603979296875,19.12360152316284,20.665399296875Q19.082562523162842,20.726819296875,19.03032952316284,20.779059296875Q18.97809652316284,20.831289296875,18.916677523162843,20.872329296875Q18.85525752316284,20.913369296875,18.787012523162844,20.941639296875Q18.71876652316284,20.969899296875,18.646317523162843,20.984319296875Q18.57386802316284,20.998729296875,18.499999523162842,20.998729296875Q18.426131023162842,20.998729296875,18.35368152316284,20.984319296875Q18.281232523162842,20.969899296875,18.21298652316284,20.941639296875Q18.144741523162843,20.913369296875,18.08332152316284,20.872329296875Q18.021902523162844,20.831289296875,17.969669523162842,20.779059296875Q17.91743652316284,20.726819296875,17.876397523162844,20.665399296875Q17.835358523162842,20.603979296875,17.80708952316284,20.535739296875Q17.778821523162843,20.467489296875,17.76441052316284,20.395039296874998Q17.749999523162842,20.322589296875,17.749999523162842,20.248729296875L17.749999523162842,16.748779296875Z" fill-rule="evenodd" fill="#FFFFFF" fill-opacity="1" style="mix-blend-mode:passthrough"/></g></g></g></svg>