<svg xmlns="http://www.w3.org/2000/svg" xmlns:xlink="http://www.w3.org/1999/xlink" fill="none" version="1.1" width="24" height="24" viewBox="0 0 24 24"><defs><clipPath id="master_svg0_63_19150"><rect x="0" y="0" width="24" height="24" rx="0"/></clipPath></defs><g clip-path="url(#master_svg0_63_19150)"><g><path d="M9,5.25L20,5.25Q20.073900000000002,5.25,20.1463,5.264411Q20.2188,5.278822,20.287,5.30709Q20.3553,5.335359,20.4167,5.376398Q20.478099999999998,5.417437,20.5303,5.46967Q20.5826,5.521903,20.6236,5.583322Q20.6646,5.644742,20.6929,5.712987Q20.7212,5.781233,20.735599999999998,5.853682Q20.75,5.9261315,20.75,6Q20.75,6.0738685,20.735599999999998,6.146318Q20.7212,6.218767,20.6929,6.287013Q20.6646,6.355258,20.6236,6.416678Q20.5826,6.478097,20.5303,6.53033Q20.478099999999998,6.582563,20.4167,6.623602Q20.3553,6.664641,20.287,6.69291Q20.2188,6.721178,20.1463,6.735589Q20.073900000000002,6.75,20,6.75L9,6.75Q8.9261315,6.75,8.853682,6.735589Q8.781233,6.721178,8.712987,6.69291Q8.644742,6.664641,8.583322,6.623602Q8.521903,6.582563,8.46967,6.53033Q8.417437,6.478097,8.376398,6.416678Q8.335359,6.355258,8.30709,6.287013Q8.278822,6.218767,8.264410999999999,6.146318Q8.25,6.0738685,8.25,6Q8.25,5.9261315,8.264410999999999,5.853682Q8.278822,5.781233,8.30709,5.712987Q8.335359,5.644742,8.376398,5.583322Q8.417437,5.521903,8.46967,5.46967Q8.521903,5.417437,8.583322,5.376398Q8.644742,5.335359,8.712987,5.30709Q8.781233,5.278822,8.853682,5.264411Q8.9261315,5.25,9,5.25Z" fill-rule="evenodd" fill="#231F2E" fill-opacity="1"/></g><g><path d="M9,11.25L20,11.25Q20.073900000000002,11.25,20.1463,11.264410999999999Q20.2188,11.278822,20.287,11.30709Q20.3553,11.335359,20.4167,11.376398Q20.478099999999998,11.417437,20.5303,11.46967Q20.5826,11.521903,20.6236,11.583322Q20.6646,11.644742,20.6929,11.712987Q20.7212,11.781233,20.735599999999998,11.853682Q20.75,11.9261315,20.75,12Q20.75,12.0738685,20.735599999999998,12.146318Q20.7212,12.218767,20.6929,12.287013Q20.6646,12.355258,20.6236,12.416678Q20.5826,12.478097,20.5303,12.53033Q20.478099999999998,12.582563,20.4167,12.623602Q20.3553,12.664641,20.287,12.69291Q20.2188,12.721178,20.1463,12.735589000000001Q20.073900000000002,12.75,20,12.75L9,12.75Q8.9261315,12.75,8.853682,12.735589000000001Q8.781233,12.721178,8.712987,12.69291Q8.644742,12.664641,8.583322,12.623602Q8.521903,12.582563,8.46967,12.53033Q8.417437,12.478097,8.376398,12.416678Q8.335359,12.355258,8.30709,12.287013Q8.278822,12.218767,8.264410999999999,12.146318Q8.25,12.0738685,8.25,12Q8.25,11.9261315,8.264410999999999,11.853682Q8.278822,11.781233,8.30709,11.712987Q8.335359,11.644742,8.376398,11.583322Q8.417437,11.521903,8.46967,11.46967Q8.521903,11.417437,8.583322,11.376398Q8.644742,11.335359,8.712987,11.30709Q8.781233,11.278822,8.853682,11.264410999999999Q8.9261315,11.25,9,11.25Z" fill-rule="evenodd" fill="#231F2E" fill-opacity="1"/></g><g><path d="M9,17.25L12,17.25Q12.07387,17.25,12.14632,17.264411Q12.21877,17.278822,12.28701,17.30709Q12.35526,17.335359,12.41668,17.376398000000002Q12.4781,17.417437,12.53033,17.46967Q12.58256,17.521903000000002,12.6236,17.583322Q12.66464,17.644742,12.69291,17.712987Q12.72118,17.781233,12.73559,17.853682Q12.75,17.9261315,12.75,18Q12.75,18.0738685,12.73559,18.146318Q12.72118,18.218767,12.69291,18.287013Q12.66464,18.355258,12.6236,18.416678Q12.58256,18.478096999999998,12.53033,18.53033Q12.4781,18.582563,12.41668,18.623601999999998Q12.35526,18.664641,12.28701,18.69291Q12.21877,18.721178,12.14632,18.735589Q12.07387,18.75,12,18.75L9,18.75Q8.9261315,18.75,8.853682,18.735589Q8.781233,18.721178,8.712987,18.69291Q8.644742,18.664641,8.583322,18.623601999999998Q8.521903,18.582563,8.46967,18.53033Q8.417437,18.478096999999998,8.376398,18.416678Q8.335359,18.355258,8.30709,18.287013Q8.278822,18.218767,8.264410999999999,18.146318Q8.25,18.0738685,8.25,18Q8.25,17.9261315,8.264410999999999,17.853682Q8.278822,17.781233,8.30709,17.712987Q8.335359,17.644742,8.376398,17.583322Q8.417437,17.521903000000002,8.46967,17.46967Q8.521903,17.417437,8.583322,17.376398000000002Q8.644742,17.335359,8.712987,17.30709Q8.781233,17.278822,8.853682,17.264411Q8.9261315,17.25,9,17.25Z" fill-rule="evenodd" fill="#231F2E" fill-opacity="1"/></g><g><ellipse cx="5.0048828125" cy="6" rx="1" ry="1" fill="#231F2E" fill-opacity="1"/></g><g><ellipse cx="5.0048828125" cy="12.010009765625" rx="1" ry="1" fill="#231F2E" fill-opacity="1"/></g><g><ellipse cx="5.0048828125" cy="18.010009765625" rx="1" ry="1" fill="#231F2E" fill-opacity="1"/></g><g><path d="M14.75,18.166667L14.75,20.83333Q14.75,21.42014,15.164932,21.83507Q15.5798643,22.25,16.166667,22.25L18.83333,22.25Q19.42014,22.25,19.83507,21.83507Q20.25,21.42014,20.25,20.83333L20.25,18.166667Q20.25,17.579864,19.83507,17.164932Q19.42014,16.75,18.83333,16.75L16.166667,16.75Q15.5798642,16.75,15.164932,17.164932Q14.75,17.5798641,14.75,18.166667ZM16.25,20.75L18.75,20.75L18.75,18.25L16.25,18.25L16.25,20.75Z" fill-rule="evenodd" fill="#2882FF" fill-opacity="1" style="mix-blend-mode:passthrough"/></g><g><path d="M18.16666603088379,14.75L20.83333603088379,14.75Q21.42013603088379,14.75,21.835066030883787,15.164932Q22.24999603088379,15.5798643,22.24999603088379,16.166667L22.24999603088379,18.83333Q22.24999603088379,18.9072,22.235586030883788,18.97965Q22.22117603088379,19.0521,22.19290603088379,19.120350000000002Q22.164636030883788,19.18859,22.12359603088379,19.25001Q22.08256603088379,19.31143,22.03032603088379,19.36366Q21.97809603088379,19.4159,21.91667603088379,19.45693Q21.85525603088379,19.49797,21.78701603088379,19.52624Q21.71876603088379,19.55451,21.64631603088379,19.56892Q21.57386603088379,19.58333,21.49999603088379,19.58333Q21.42612603088379,19.58333,21.35368603088379,19.56892Q21.28123603088379,19.55451,21.21298603088379,19.52624Q21.144736030883788,19.49797,21.08332603088379,19.45693Q21.021906030883788,19.4159,20.96966603088379,19.36366Q20.91743603088379,19.31143,20.87639603088379,19.25001Q20.835356030883787,19.18859,20.807086030883788,19.120350000000002Q20.77881603088379,19.0521,20.76440603088379,18.97965Q20.74999603088379,18.9072,20.74999603088379,18.83333L20.74999603088379,16.25L18.16666603088379,16.25Q18.09279753088379,16.25,18.02034803088379,16.235589Q17.94789903088379,16.221178,17.879653030883787,16.19291Q17.81140803088379,16.164641,17.749988030883788,16.123601999999998Q17.68856903088379,16.082563,17.63633603088379,16.03033Q17.58410303088379,15.978097,17.54306403088379,15.916678Q17.50202503088379,15.855258,17.473756030883788,15.787013Q17.44548803088379,15.718767,17.431077030883788,15.646318Q17.41666603088379,15.5738685,17.41666603088379,15.5Q17.41666603088379,15.4261315,17.431077030883788,15.353682Q17.44548803088379,15.281233,17.473756030883788,15.212987Q17.50202503088379,15.144742,17.54306403088379,15.083322Q17.58410303088379,15.021903,17.63633603088379,14.96967Q17.68856903088379,14.917437,17.749988030883788,14.876398Q17.81140803088379,14.835359,17.879653030883787,14.80709Q17.94789903088379,14.778822,18.02034803088379,14.764410999999999Q18.09279753088379,14.75,18.16666603088379,14.75Z" fill-rule="evenodd" fill="#2882FF" fill-opacity="1" style="mix-blend-mode:passthrough"/></g></g></svg>