<svg xmlns="http://www.w3.org/2000/svg" xmlns:xlink="http://www.w3.org/1999/xlink" fill="none" version="1.1" width="24" height="24" viewBox="0 0 24 24"><defs><clipPath id="master_svg0_63_03994"><rect x="0" y="0" width="24" height="24" rx="0"/></clipPath></defs><g clip-path="url(#master_svg0_63_03994)"><g><path d="M4.05546,19.944499999999998Q4.8609100000000005,20.75,6,20.75Q6.07387,20.75,6.14632,20.7356Q6.21877,20.7212,6.28701,20.6929Q6.35526,20.6646,6.41668,20.6236Q6.4781,20.5826,6.53033,20.5303Q6.58256,20.4781,6.6236,20.4167Q6.66464,20.3553,6.69291,20.287Q6.72118,20.2188,6.73559,20.1463Q6.75,20.0739,6.75,20Q6.75,19.926099999999998,6.73559,19.8537Q6.72118,19.7812,6.69291,19.713Q6.66464,19.6447,6.6236,19.5833Q6.58256,19.521900000000002,6.53033,19.4697Q6.4781,19.4174,6.41668,19.3764Q6.35526,19.3354,6.28701,19.3071Q6.21877,19.2788,6.14632,19.264400000000002Q6.07387,19.25,6,19.25Q5.4822299999999995,19.25,5.1161200000000004,18.8839Q4.75,18.5178,4.75,18L4.75,15Q4.75,13.53028,4.03825,12.46265Q3.8655999999999997,12.20367,3.6737200000000003,12Q3.86559,11.796330000000001,4.03825,11.53735Q4.75,10.469719999999999,4.75,9L4.75,6Q4.75,5.4822299999999995,5.1161200000000004,5.1161200000000004Q5.4822299999999995,4.75,6,4.75Q6.07387,4.75,6.14632,4.735589Q6.21877,4.721178,6.28701,4.69291Q6.35526,4.664641,6.41668,4.623602Q6.4781,4.582563,6.53033,4.53033Q6.58256,4.478097,6.6236,4.416678Q6.66464,4.355258,6.69291,4.287013Q6.72118,4.218767,6.73559,4.146318Q6.75,4.0738685,6.75,4Q6.75,3.9261315,6.73559,3.853682Q6.72118,3.781233,6.69291,3.712987Q6.66464,3.644742,6.6236,3.583322Q6.58256,3.521903,6.53033,3.46967Q6.4781,3.417437,6.41668,3.376398Q6.35526,3.335359,6.28701,3.30709Q6.21877,3.278822,6.14632,3.264411Q6.07387,3.25,6,3.25Q4.8609100000000005,3.25,4.05546,4.0554564Q3.25,4.860913,3.25,6L3.25,9Q3.25,10.01556,2.7901759999999998,10.705300000000001Q2.42704,11.25,2,11.25Q1.9261314999999999,11.25,1.853682,11.26441Q1.781233,11.27882,1.712987,11.307089999999999Q1.644742,11.33536,1.583322,11.3764Q1.521903,11.41744,1.46967,11.46967Q1.417437,11.521899999999999,1.376398,11.58332Q1.335359,11.644739999999999,1.30709,11.71299Q1.278822,11.78123,1.264411,11.85368Q1.25,11.92613,1.25,12Q1.25,12.07387,1.264411,12.14632Q1.278822,12.21877,1.30709,12.28701Q1.335359,12.35526,1.376398,12.41668Q1.417437,12.4781,1.46967,12.53033Q1.521903,12.58256,1.583322,12.6236Q1.644742,12.66464,1.712987,12.69291Q1.781233,12.72118,1.853682,12.73559Q1.9261314999999999,12.75,2,12.75Q2.42704,12.75,2.7901759999999998,13.2947Q3.25,13.98444,3.25,15L3.25,18Q3.25,19.1391,4.05546,19.944499999999998Z" fill-rule="evenodd" fill="#231F2E" fill-opacity="1"/></g><g><path d="M18,3.25Q19.13909,3.25,19.94454,4.0554565Q20.75,4.860913,20.75,6L20.75,9Q20.75,10.01556,21.20982,10.705300000000001Q21.572960000000002,11.25,22,11.25Q22.07387,11.25,22.14632,11.26441Q22.21877,11.27882,22.287010000000002,11.307089999999999Q22.35526,11.33536,22.41668,11.3764Q22.4781,11.41744,22.53033,11.46967Q22.58256,11.521899999999999,22.6236,11.58332Q22.66464,11.644739999999999,22.69291,11.71299Q22.72118,11.78123,22.735590000000002,11.85368Q22.75,11.92613,22.75,12Q22.75,12.07387,22.735590000000002,12.14632Q22.72118,12.21877,22.69291,12.28701Q22.66464,12.35526,22.6236,12.41668Q22.58256,12.4781,22.53033,12.53033Q22.4781,12.58256,22.41668,12.6236Q22.35526,12.66464,22.287010000000002,12.69291Q22.21877,12.72118,22.14632,12.73559Q22.07387,12.75,22,12.75Q21.572960000000002,12.75,21.20982,13.2947Q20.75,13.98444,20.75,15L20.75,18Q20.75,19.1391,19.94454,19.944499999999998Q19.13909,20.75,18,20.75Q17.9261315,20.75,17.853682,20.7356Q17.781233,20.7212,17.712987,20.6929Q17.644742,20.6646,17.583322,20.6236Q17.521903000000002,20.5826,17.46967,20.5303Q17.417437,20.4781,17.376398000000002,20.4167Q17.335359,20.3553,17.30709,20.287Q17.278822,20.2188,17.264411,20.1463Q17.25,20.0739,17.25,20Q17.25,19.926099999999998,17.264411,19.8537Q17.278822,19.7812,17.30709,19.713Q17.335359,19.6447,17.376398000000002,19.5833Q17.417437,19.521900000000002,17.46967,19.4697Q17.521903000000002,19.4174,17.583322,19.3764Q17.644742,19.3354,17.712987,19.3071Q17.781233,19.2788,17.853682,19.264400000000002Q17.9261315,19.25,18,19.25Q18.517768,19.25,18.883884,18.8839Q19.25,18.5178,19.25,18L19.25,15Q19.25,13.53028,19.96175,12.46265Q20.1344,12.20367,20.32628,12Q20.1344,11.796330000000001,19.96175,11.53735Q19.25,10.469719999999999,19.25,9L19.25,6Q19.25,5.4822299999999995,18.883884,5.1161200000000004Q18.517767,4.75,18,4.75Q17.9261315,4.75,17.853682,4.735589Q17.781233,4.721178,17.712987,4.69291Q17.644742,4.664641,17.583322,4.623602Q17.521903000000002,4.582563,17.46967,4.53033Q17.417437,4.478097,17.376398000000002,4.416678Q17.335359,4.355258,17.30709,4.287013Q17.278822,4.218767,17.264411,4.146318Q17.25,4.0738685,17.25,4Q17.25,3.9261315,17.264411,3.853682Q17.278822,3.781233,17.30709,3.712987Q17.335359,3.644742,17.376398000000002,3.583322Q17.417437,3.521903,17.46967,3.46967Q17.521903000000002,3.417437,17.583322,3.376398Q17.644742,3.335359,17.712987,3.30709Q17.781233,3.278822,17.853682,3.264411Q17.9261315,3.25,18,3.25Z" fill-rule="evenodd" fill="#231F2E" fill-opacity="1"/></g><g><path d="M10.0554575,7.88230076171875Q9.25,8.68775826171875,9.25,9.82684326171875Q9.25,9.90071326171875,9.264410999999999,9.97316326171875Q9.278822,10.04561326171875,9.30709,10.11385326171875Q9.335359,10.18210326171875,9.376398,10.24352326171875Q9.417437,10.30494326171875,9.46967,10.35717326171875Q9.521903,10.40940326171875,9.583322,10.45044326171875Q9.644742,10.49148326171875,9.712987,10.51975326171875Q9.781233,10.54802326171875,9.853682,10.56243326171875Q9.9261315,10.57684326171875,10,10.57684326171875Q10.0738685,10.57684326171875,10.146318,10.56243326171875Q10.218767,10.54802326171875,10.287013,10.51975326171875Q10.355258,10.49148326171875,10.416678,10.45044326171875Q10.478097,10.40940326171875,10.53033,10.35717326171875Q10.582563,10.30494326171875,10.623602,10.24352326171875Q10.664641,10.18210326171875,10.69291,10.11385326171875Q10.721178,10.04561326171875,10.735589000000001,9.97316326171875Q10.75,9.90071326171875,10.75,9.82684326171875Q10.75,9.309083261718751,11.11612,8.94296326171875Q11.482240000000001,8.57684326171875,12,8.57684326171875Q12.517759999999999,8.57684326171875,12.88388,8.94296326171875Q13.25,9.30907326171875,13.25,9.82684326171875Q13.25,10.42777326171875,12.77985,10.80384326171875Q12.13989,11.31572326171875,11.82842,11.69582326171875Q11.25,12.40167326171875,11.25,13.16017326171875Q11.25,13.23404326171875,11.26441,13.30649326171875Q11.27882,13.37894326171875,11.30709,13.44719326171875Q11.33536,13.51543326171875,11.3764,13.57685326171875Q11.41744,13.63827326171875,11.46967,13.69050326171875Q11.5219,13.74274326171875,11.58332,13.78377326171875Q11.64474,13.824813261718749,11.71299,13.85308326171875Q11.78123,13.88135326171875,11.85368,13.89576326171875Q11.92613,13.91017326171875,12,13.91017326171875Q12.07387,13.91017326171875,12.14632,13.89576326171875Q12.21877,13.88135326171875,12.28701,13.85308326171875Q12.35526,13.824813261718749,12.41668,13.78377326171875Q12.4781,13.74274326171875,12.53033,13.69050326171875Q12.58256,13.63827326171875,12.6236,13.57685326171875Q12.66464,13.51543326171875,12.69291,13.44719326171875Q12.72118,13.37894326171875,12.73559,13.30649326171875Q12.75,13.23404326171875,12.75,13.16017326171875Q12.75,12.74853326171875,13.7168,11.97521326171875Q14.75,11.14877326171875,14.75,9.82684326171875Q14.75,8.68775826171875,13.94454,7.88230076171875Q13.13909,7.07684326171875,12,7.07684326171875Q10.860915,7.07684326171875,10.0554575,7.88230076171875Z" fill-rule="evenodd" fill="#2882FF" fill-opacity="1" style="mix-blend-mode:passthrough"/></g><g><path d="M12.875,15.812408447265625Q12.875,15.898588447265626,12.85819,15.983108447265625Q12.84137,16.067638447265626,12.80839,16.147258447265624Q12.77541,16.226878447265626,12.72754,16.298528447265625Q12.67966,16.370188447265626,12.61872,16.431128447265625Q12.55778,16.492068447265623,12.48612,16.539948447265626Q12.41447,16.587818447265626,12.33485,16.620798447265624Q12.255230000000001,16.653778447265626,12.1707,16.670598447265625Q12.08618,16.687408447265625,12,16.687408447265625Q11.91382,16.687408447265625,11.829296,16.670598447265625Q11.744772,16.653778447265626,11.665151999999999,16.620798447265624Q11.585532,16.587818447265626,11.513876,16.539948447265626Q11.44222,16.492068447265623,11.381282,16.431128447265625Q11.320343,16.370188447265626,11.272464,16.298528447265625Q11.224585,16.226878447265626,11.1916054,16.147258447265624Q11.1586258,16.067638447265626,11.1418129,15.983108447265625Q11.125,15.898588447265626,11.125,15.812408447265625Q11.125,15.726228447265624,11.1418129,15.641704447265624Q11.1586258,15.557180447265624,11.1916054,15.477560447265624Q11.224585,15.397940447265626,11.272464,15.326284447265625Q11.320343,15.254628447265626,11.381282,15.193690447265626Q11.44222,15.132751447265624,11.513876,15.084872447265624Q11.585532,15.036993447265624,11.665151999999999,15.004013847265625Q11.744772,14.971034247265624,11.829296,14.954221347265625Q11.91382,14.937408447265625,12,14.937408447265625Q12.08618,14.937408447265625,12.1707,14.954221347265625Q12.255230000000001,14.971034247265624,12.33485,15.004013847265625Q12.41447,15.036993447265624,12.48612,15.084872447265624Q12.55778,15.132751447265624,12.61872,15.193690447265626Q12.67966,15.254628447265626,12.72754,15.326284447265625Q12.77541,15.397940447265626,12.80839,15.477560447265624Q12.84137,15.557180447265624,12.85819,15.641704447265624Q12.875,15.726228447265624,12.875,15.812408447265625Z" fill="#2882FF" fill-opacity="1" style="mix-blend-mode:passthrough"/></g></g></svg>