<svg xmlns="http://www.w3.org/2000/svg" xmlns:xlink="http://www.w3.org/1999/xlink" fill="none" version="1.1" width="24" height="24" viewBox="0 0 24 24"><defs><clipPath id="master_svg0_63_19361"><rect x="0" y="0" width="24" height="24" rx="0"/></clipPath></defs><g clip-path="url(#master_svg0_63_19361)"><g><path d="M18,3.25L7,3.25Q5.860913,3.25,5.0554564,4.0554564Q4.25,4.860913,4.25,6L4.25,18Q4.25,19.1391,5.0554565,19.944499999999998Q5.860911,20.75,7,20.75L18,20.75Q18.724899999999998,20.75,19.2374,20.2374Q19.75,19.724899999999998,19.75,19L19.75,5Q19.75,4.275127,19.2374,3.762564Q18.724899999999998,3.25,18,3.25ZM6.1161200000000004,5.1161200000000004Q6.4822299999999995,4.75,7,4.75L18,4.75Q18.25,4.75,18.25,5L18.25,19Q18.25,19.25,18,19.25L7,19.25Q6.4822299999999995,19.25,6.1161200000000004,18.8839Q5.75,18.5178,5.75,18L5.75,6Q5.75,5.4822299999999995,6.1161200000000004,5.1161200000000004Z" fill-rule="evenodd" fill="#231F2E" fill-opacity="1"/></g><g><path d="M4.466417,16.929345Q4.25,17.44101,4.25,18Q4.25,18.07387,4.264411,18.14632Q4.278822,18.21877,4.30709,18.28701Q4.335359,18.35526,4.376398,18.41668Q4.417437,18.4781,4.46967,18.53033Q4.521903,18.58256,4.583322,18.6236Q4.644742,18.66464,4.712987,18.69291Q4.781233,18.72118,4.853682,18.735590000000002Q4.9261315,18.75,5,18.75Q5.0738685,18.75,5.146318,18.735590000000002Q5.218767,18.72118,5.287013,18.69291Q5.355258,18.66464,5.416678,18.6236Q5.478097,18.58256,5.53033,18.53033Q5.582563,18.4781,5.623602,18.41668Q5.664641,18.35526,5.69291,18.28701Q5.721178,18.21877,5.735589,18.14632Q5.75,18.07387,5.75,18Q5.75,17.48223,6.1161200000000004,17.11612Q6.4822299999999995,16.75,7,16.75L19,16.75Q19.073900000000002,16.75,19.1463,16.735589Q19.2188,16.721178,19.287,16.69291Q19.3553,16.664641,19.4167,16.623601999999998Q19.478099999999998,16.582563,19.5303,16.53033Q19.5826,16.478096999999998,19.6236,16.416678Q19.6646,16.355258,19.6929,16.287013Q19.7212,16.218767,19.735599999999998,16.146318Q19.75,16.0738685,19.75,16Q19.75,15.9261315,19.735599999999998,15.853682Q19.7212,15.781233,19.6929,15.712987Q19.6646,15.644742,19.6236,15.583322Q19.5826,15.521903,19.5303,15.46967Q19.478099999999998,15.417437,19.4167,15.376398Q19.3553,15.335359,19.287,15.30709Q19.2188,15.278822,19.1463,15.264410999999999Q19.073900000000002,15.25,19,15.25L7,15.25Q6.44101,15.25,5.929346,15.466416Q5.435703,15.67521,5.0554565,16.0554559Q4.67521,16.435702,4.466417,16.929345Z" fill-rule="evenodd" fill="#231F2E" fill-opacity="1"/></g><g><path d="M13,3.25L9,3.25Q8.9261315,3.25,8.853682,3.264411Q8.781233,3.278822,8.712987,3.30709Q8.644742,3.335359,8.583322,3.376398Q8.521903,3.417437,8.46967,3.46967Q8.417437,3.521903,8.376398,3.583322Q8.335359,3.644742,8.30709,3.712987Q8.278822,3.781233,8.264410999999999,3.853682Q8.25,3.9261315,8.25,4L8.25,9.66663Q8.25,9.893699999999999,8.375951,10.08263Q8.4587,10.206769999999999,8.582653,10.28978Q8.706606,10.3728,8.852892,10.402059999999999Q8.999178557,10.43132,9.145527,10.402370000000001Q9.291876,10.37342,9.416008,10.29068L11,9.23474L12.58399,10.29068Q12.77293,10.41663,13,10.41663Q13.07387,10.41663,13.14632,10.40221Q13.21877,10.3878,13.28701,10.35953Q13.355260000000001,10.33127,13.41668,10.290230000000001Q13.478100000000001,10.249189999999999,13.53033,10.19696Q13.58256,10.14472,13.6236,10.083300000000001Q13.66464,10.02188,13.692910000000001,9.95364Q13.72118,9.885390000000001,13.73559,9.812940000000001Q13.75,9.740490000000001,13.75,9.66663L13.75,4Q13.75,3.9261315,13.73559,3.853682Q13.72118,3.781233,13.692910000000001,3.712987Q13.66464,3.644742,13.6236,3.583322Q13.58256,3.521903,13.53033,3.46967Q13.478100000000001,3.417437,13.41668,3.376398Q13.355260000000001,3.335359,13.28701,3.30709Q13.21877,3.278822,13.14632,3.264411Q13.07387,3.25,13,3.25ZM9.75,4.75L9.75,8.26529L10.58399,7.70932Q10.67639,7.64773,10.78267,7.61555Q10.88895,7.58337,11,7.58337Q11.11105,7.58337,11.21733,7.61555Q11.32361,7.64773,11.41601,7.70932L12.25,8.26529L12.25,4.75L9.75,4.75Z" fill-rule="evenodd" fill="#231F2E" fill-opacity="1"/></g><g><g><path d="M21.1429820703125,18.57143Q21.1429820703125,18.69775,21.1306020703125,18.82347Q21.1182120703125,18.94919,21.0935720703125,19.07309Q21.0689220703125,19.19699,21.032252070312502,19.31787Q20.9955820703125,19.43876,20.947242070312498,19.55547Q20.8988920703125,19.67218,20.8393520703125,19.78359Q20.7798020703125,19.895,20.7096120703125,20.00004Q20.639432070312502,20.10507,20.5592920703125,20.20273Q20.4791520703125,20.30038,20.3898220703125,20.3897Q20.3005020703125,20.47903,20.2028420703125,20.55917Q20.1051920703125,20.639310000000002,20.0001620703125,20.70949Q19.8951220703125,20.77968,19.7837120703125,20.83923Q19.6723020703125,20.89877,19.5555920703125,20.947119999999998Q19.4388820703125,20.99546,19.3179920703125,21.032130000000002Q19.1971120703125,21.0688,19.0732120703125,21.09345Q18.9493120703125,21.11809,18.8235920703125,21.13048Q18.6978720703125,21.14286,18.5715520703125,21.14286Q18.4452220703125,21.14286,18.3195020703125,21.13048Q18.1937920703125,21.11809,18.0698920703125,21.09345Q17.9459920703125,21.0688,17.8251020703125,21.032130000000002Q17.7042220703125,20.99546,17.5875120703125,20.947119999999998Q17.4708020703125,20.89877,17.3593920703125,20.83923Q17.2479820703125,20.77968,17.1429420703125,20.70949Q17.0379020703125,20.639310000000002,16.9402530703125,20.55917Q16.8426020703125,20.47903,16.7532760703125,20.3897Q16.6639500703125,20.30038,16.5838090703125,20.20272Q16.5036690703125,20.10507,16.4334860703125,20.00004Q16.3633030703125,19.895,16.3037530703125,19.78359Q16.2442030703125,19.67218,16.1958600703125,19.55547Q16.1475170703125,19.43876,16.1108470703125,19.31787Q16.0741763703125,19.19699,16.0495313703125,19.07309Q16.0248863703125,18.94919,16.0125041703125,18.82347Q16.0001220703125,18.69775,16.0001220703125,18.57143Q16.0001220703125,18.4451,16.0125041703125,18.31938Q16.0248863703125,18.19367,16.0495313703125,18.06977Q16.0741763703125,17.94587,16.1108470703125,17.82498Q16.1475170703125,17.7041,16.1958600703125,17.58739Q16.2442030703125,17.47068,16.3037530703125,17.35927Q16.3633030703125,17.24786,16.4334860703125,17.14282Q16.5036690703125,17.03778,16.5838090703125,16.940131Q16.6639500703125,16.84248,16.7532760703125,16.753154Q16.8426020703125,16.663828,16.9402530703125,16.583687Q17.0379020703125,16.503547,17.1429420703125,16.433364Q17.2479820703125,16.363181,17.3593920703125,16.303631Q17.4708020703125,16.244081,17.5875120703125,16.195738Q17.7042220703125,16.147395,17.8251020703125,16.110725Q17.9459920703125,16.0740543,18.0698920703125,16.0494093Q18.1937920703125,16.0247643,18.3195020703125,16.0123821Q18.4452220703125,16,18.5715520703125,16Q18.6978720703125,16,18.8235920703125,16.0123821Q18.9493120703125,16.0247643,19.0732120703125,16.0494093Q19.1971120703125,16.0740543,19.3179920703125,16.110725Q19.4388820703125,16.147395,19.5555920703125,16.195738Q19.6723020703125,16.244081,19.7837120703125,16.303631Q19.8951220703125,16.363181,20.0001620703125,16.433364Q20.1051920703125,16.503547,20.2028520703125,16.583687Q20.3005020703125,16.663828,20.3898220703125,16.753154Q20.4791520703125,16.84248,20.5592920703125,16.940131Q20.639432070312502,17.03778,20.7096120703125,17.14282Q20.7798020703125,17.24786,20.8393520703125,17.35927Q20.8988920703125,17.47068,20.947242070312498,17.58739Q20.9955820703125,17.7041,21.032252070312502,17.82498Q21.0689220703125,17.94587,21.0935720703125,18.06977Q21.1182120703125,18.19367,21.1306020703125,18.31938Q21.1429820703125,18.4451,21.1429820703125,18.57143Z" fill="#FFFFFF" fill-opacity="1"/><path d="M21.6272620703125,15.515717Q20.3615420703125,14.25,18.5715520703125,14.25Q16.7815560703125,14.25,15.5158390703125,15.515717Q14.2501220703125,16.781434,14.2501220703125,18.57143Q14.2501220703125,20.36142,15.5158390703125,21.62714Q16.7815560703125,22.89286,18.5715520703125,22.89286Q20.3615420703125,22.89286,21.6272620703125,21.62714Q22.8929820703125,20.36142,22.8929820703125,18.57143Q22.8929820703125,16.781434,21.6272620703125,15.515717ZM17.9907120703125,17.99059Q18.231302070312502,17.75,18.5715520703125,17.75Q18.9118020703125,17.75,19.1523920703125,17.99059Q19.3929820703125,18.231180000000002,19.3929820703125,18.57143Q19.3929820703125,18.91168,19.1523920703125,19.15227Q18.9118020703125,19.39286,18.5715520703125,19.39286Q18.231302070312502,19.39286,17.9907120703125,19.15227Q17.7501220703125,18.91168,17.7501220703125,18.57143Q17.7501220703125,18.231180000000002,17.9907120703125,17.99059Z" fill-rule="evenodd" fill="#FFFFFF" fill-opacity="1" style="mix-blend-mode:passthrough"/></g><g><path d="M19.2201933203125,21.6950633203125L19.2197133203125,21.6945933203125Q19.0978433203125,21.5727133203125,19.0020833203125,21.4294013203125Q18.9063233203125,21.2860893203125,18.8403633203125,21.1268493203125Q18.7744033203125,20.9676093203125,18.7407833203125,20.7985613203125Q18.7071533203125,20.6295133203125,18.7071533203125,20.4571533203125Q18.7071533203125,20.3711813203125,18.7155833203125,20.2856233203125Q18.7240033203125,20.2000653203125,18.7407833203125,20.1157453203125Q18.7575533203125,20.0314253203125,18.7825033203125,19.9491553203125Q18.8074633203125,19.866885320312498,18.8403633203125,19.7874573203125Q18.8732633203125,19.7080293203125,18.9137933203125,19.6322093203125Q18.9543133203125,19.5563883203125,19.0020833203125,19.4849053203125Q19.0498433203125,19.4134233203125,19.1043833203125,19.3469633203125Q19.1589233203125,19.2805033203125,19.2197133203125,19.2197133203125Q19.2805033203125,19.1589233203125,19.3469633203125,19.1043833203125Q19.4134233203125,19.0498433203125,19.4849053203125,19.0020833203125Q19.5563883203125,18.9543133203125,19.6322093203125,18.9137933203125Q19.7080293203125,18.8732633203125,19.7874573203125,18.8403633203125Q19.866885320312498,18.8074633203125,19.9491553203125,18.7825033203125Q20.0314253203125,18.7575533203125,20.1157453203125,18.7407833203125Q20.2000653203125,18.7240033203125,20.2856233203125,18.7155833203125Q20.3711813203125,18.7071533203125,20.4571533203125,18.7071533203125Q20.6295133203125,18.7071533203125,20.7985613203125,18.7407833203125Q20.9676093203125,18.7744033203125,21.1268493203125,18.8403633203125Q21.2860893203125,18.9063233203125,21.4294013203125,19.0020833203125Q21.5727133203125,19.0978433203125,21.6945933203125,19.2197133203125L21.6950633203125,19.2201933203125L23.2371633203125,20.7622893203125L23.2374433203125,20.7625733203125Q23.359323320312498,20.8844493203125,23.4550833203125,21.0277613203125Q23.5508433203125,21.1710743203125,23.6168033203125,21.3303133203125Q23.6827533203125,21.4895533203125,23.7163833203125,21.6586033203125Q23.7500133203125,21.8276533203125,23.7500133203125,22.0000133203125Q23.7500133203125,22.0859833203125,23.7415833203125,22.1715433203125Q23.7331533203125,22.2570933203125,23.7163833203125,22.3414133203125Q23.6996133203125,22.4257333203125,23.6746533203125,22.5080033203125Q23.6497033203125,22.590273320312498,23.6168033203125,22.6697033203125Q23.5839033203125,22.7491333203125,23.5433733203125,22.8249533203125Q23.5028433203125,22.9007733203125,23.4550833203125,22.9722533203125Q23.4073133203125,23.0437433203125,23.3527733203125,23.1101933203125Q23.298233320312498,23.1766533203125,23.2374433203125,23.2374433203125Q23.1766533203125,23.298233320312498,23.1101933203125,23.3527733203125Q23.0437433203125,23.4073133203125,22.9722533203125,23.4550833203125Q22.9007733203125,23.5028433203125,22.8249533203125,23.5433733203125Q22.7491333203125,23.5839033203125,22.6697033203125,23.6168033203125Q22.590273320312498,23.6497033203125,22.5080033203125,23.6746533203125Q22.4257333203125,23.6996133203125,22.3414133203125,23.7163833203125Q22.2570933203125,23.7331533203125,22.1715433203125,23.7415833203125Q22.0859833203125,23.7500133203125,22.0000133203125,23.7500133203125Q21.8276533203125,23.7500133203125,21.6586033203125,23.7163833203125Q21.4895533203125,23.6827533203125,21.3303133203125,23.6168033203125Q21.1710743203125,23.5508433203125,21.0277613203125,23.4550833203125Q20.8844493203125,23.359323320312498,20.7625733203125,23.2374433203125L20.7622893203125,23.2371633203125L19.2201933203125,21.6950633203125Z" fill-rule="evenodd" fill="#FFFFFF" fill-opacity="1" style="mix-blend-mode:passthrough"/></g></g><g><g><path d="M20.9201520703125,16.222824Q19.9473320703125,15.25,18.5715520703125,15.25Q17.1957720703125,15.25,16.2229460703125,16.222824Q15.2501220703125,17.19565,15.2501220703125,18.57143Q15.2501220703125,19.94721,16.2229460703125,20.92003Q17.1957720703125,21.89286,18.5715520703125,21.89286Q19.9473320703125,21.89286,20.9201520703125,20.92003Q21.8929820703125,19.94721,21.8929820703125,18.57143Q21.8929820703125,17.19565,20.9201520703125,16.222824ZM17.2836020703125,17.28348Q17.8170920703125,16.75,18.5715520703125,16.75Q19.3260120703125,16.75,19.8594920703125,17.28348Q20.3929820703125,17.81697,20.3929820703125,18.57143Q20.3929820703125,19.32589,19.8594920703125,19.85937Q19.3260120703125,20.39286,18.5715520703125,20.39286Q17.8170920703125,20.39286,17.2836020703125,19.85937Q16.7501220703125,19.32589,16.7501220703125,18.57143Q16.7501220703125,17.81697,17.2836020703125,17.28348Z" fill-rule="evenodd" fill="#2882FF" fill-opacity="1" style="mix-blend-mode:passthrough"/></g><g><path d="M20.9876373203125,19.9269773203125L22.5301833203125,21.4695233203125L22.5303433203125,21.469683320312498Q22.6358333203125,21.5751733203125,22.6929233203125,21.7129933203125Q22.7500133203125,21.8508233203125,22.7500133203125,22.0000133203125Q22.7500133203125,22.0738733203125,22.7356033203125,22.1463233203125Q22.721183320312498,22.2187733203125,22.6929233203125,22.2870233203125Q22.6646533203125,22.3552633203125,22.6236133203125,22.4166833203125Q22.5825733203125,22.4781033203125,22.5303433203125,22.5303433203125Q22.4781033203125,22.5825733203125,22.4166833203125,22.6236133203125Q22.3552633203125,22.6646533203125,22.2870233203125,22.6929233203125Q22.2187733203125,22.721183320312498,22.1463233203125,22.7356033203125Q22.0738733203125,22.7500133203125,22.0000133203125,22.7500133203125Q21.8508233203125,22.7500133203125,21.7129933203125,22.6929233203125Q21.5751733203125,22.6358333203125,21.469683320312498,22.5303433203125L21.4695233203125,22.5301833203125L19.9269773203125,20.9876373203125L19.9268233203125,20.9874833203125Q19.8213343203125,20.8819943203125,19.7642433203125,20.7441663203125Q19.7071533203125,20.6063373203125,19.7071533203125,20.4571533203125Q19.7071533203125,20.3832848203125,19.7215643203125,20.3108353203125Q19.7359753203125,20.2383863203125,19.7642433203125,20.1701403203125Q19.7925123203125,20.1018953203125,19.833551320312502,20.0404753203125Q19.8745903203125,19.979056320312502,19.9268233203125,19.9268233203125Q19.979056320312502,19.8745903203125,20.0404753203125,19.833551320312502Q20.1018953203125,19.7925123203125,20.1701403203125,19.7642433203125Q20.2383863203125,19.7359753203125,20.3108353203125,19.7215643203125Q20.3832848203125,19.7071533203125,20.4571533203125,19.7071533203125Q20.6063373203125,19.7071533203125,20.7441663203125,19.7642433203125Q20.8819943203125,19.8213343203125,20.9874833203125,19.9268233203125L20.9876373203125,19.9269773203125Z" fill-rule="evenodd" fill="#2882FF" fill-opacity="1" style="mix-blend-mode:passthrough"/></g></g></g></svg>