<svg xmlns="http://www.w3.org/2000/svg" xmlns:xlink="http://www.w3.org/1999/xlink" fill="none" version="1.1" width="24" height="24" viewBox="0 0 24 24"><defs><clipPath id="master_svg0_74_13159"><rect x="0" y="0" width="24" height="24" rx="0"/></clipPath></defs><g clip-path="url(#master_svg0_74_13159)"><g><path d="M17.5308,2.470096L20.5303,5.46967Q20.6358,5.57516,20.6929,5.71299Q20.75,5.850820000000001,20.75,6Q20.75,6.149179999999999,20.6929,6.28701Q20.6358,6.42484,20.5303,6.53033L17.5307,9.52994L17.5303,9.53033Q17.424799999999998,9.635819999999999,17.287,9.692910000000001Q17.1492,9.75,17,9.75Q16.926099999999998,9.75,16.8537,9.73559Q16.7812,9.72118,16.713,9.692910000000001Q16.6447,9.66464,16.5833,9.6236Q16.521900000000002,9.58256,16.4697,9.53033Q16.4174,9.478100000000001,16.3764,9.41668Q16.3354,9.355260000000001,16.3071,9.28701Q16.2788,9.21877,16.264400000000002,9.14632Q16.25,9.07387,16.25,9Q16.25,8.850819999999999,16.3071,8.71299Q16.3642,8.57516,16.4697,8.46967L16.4703,8.46904L18.1893,6.75L7,6.75Q6.068020000000001,6.75,5.40901,7.40901Q4.75,8.06802,4.75,9L4.75,12Q4.75,12.07387,4.735589,12.14632Q4.721178,12.21877,4.69291,12.28701Q4.664641,12.35526,4.623602,12.41668Q4.582563,12.4781,4.53033,12.53033Q4.478097,12.58256,4.416678,12.6236Q4.355258,12.66464,4.287013,12.69291Q4.218767,12.72118,4.146318,12.73559Q4.0738685,12.75,4,12.75Q3.9261315,12.75,3.853682,12.73559Q3.781233,12.72118,3.712987,12.69291Q3.644742,12.66464,3.583322,12.6236Q3.521903,12.58256,3.46967,12.53033Q3.417437,12.4781,3.376398,12.41668Q3.335359,12.35526,3.30709,12.28701Q3.278822,12.21877,3.264411,12.14632Q3.25,12.07387,3.25,12L3.25,9Q3.25,7.4467,4.34835,6.34835Q5.4467,5.25,7,5.25L18.1893,5.25L16.470100000000002,3.5307560000000002L16.4697,3.53033Q16.3642,3.424841,16.3071,3.287013Q16.25,3.149184,16.25,3Q16.25,2.9261315,16.264400000000002,2.853682Q16.2788,2.781233,16.3071,2.712987Q16.3354,2.644742,16.3764,2.583322Q16.4174,2.521903,16.4697,2.46967Q16.521900000000002,2.417437,16.5833,2.376398Q16.6447,2.335359,16.713,2.30709Q16.7812,2.278822,16.8537,2.264411Q16.926099999999998,2.25,17,2.25Q17.1492,2.25,17.287,2.30709Q17.424799999999998,2.364181,17.5303,2.46967L17.5308,2.470096Z" fill-rule="evenodd" fill="#231F2E" fill-opacity="1"/></g><g><path d="M19.25,12Q19.25,11.9261315,19.264400000000002,11.853682Q19.2788,11.781233,19.3071,11.712987Q19.3354,11.644742,19.3764,11.583322Q19.4174,11.521903,19.4697,11.46967Q19.521900000000002,11.417437,19.5833,11.376398Q19.6447,11.335359,19.713,11.30709Q19.7812,11.278822,19.8537,11.264410999999999Q19.926099999999998,11.25,20,11.25Q20.0739,11.25,20.1463,11.264410999999999Q20.2188,11.278822,20.287,11.30709Q20.3553,11.335359,20.4167,11.376398Q20.4781,11.417437,20.5303,11.46967Q20.5826,11.521903,20.6236,11.583322Q20.6646,11.644742,20.6929,11.712987Q20.7212,11.781233,20.7356,11.853682Q20.75,11.9261315,20.75,12L20.75,15Q20.75,16.5533,19.651699999999998,17.65165Q18.5533,18.75,17,18.75L5.81066,18.75L7.52994,20.469279999999998L7.53033,20.46967Q7.63582,20.57516,7.6929099999999995,20.712989999999998Q7.75,20.85082,7.75,21Q7.75,21.07387,7.73559,21.14632Q7.72118,21.21877,7.6929099999999995,21.287010000000002Q7.66464,21.35526,7.6236,21.41668Q7.58256,21.478099999999998,7.53033,21.53033Q7.4780999999999995,21.58256,7.4166799999999995,21.6236Q7.3552599999999995,21.66464,7.28701,21.692909999999998Q7.21877,21.72118,7.146319999999999,21.735590000000002Q7.073869999999999,21.75,7,21.75Q6.850820000000001,21.75,6.71299,21.692909999999998Q6.57516,21.635820000000002,6.46967,21.53033L3.46967,18.53033Q3.364181,18.42484,3.30709,18.287010000000002Q3.25,18.14918,3.25,18Q3.25,17.85082,3.30709,17.712989999999998Q3.364181,17.57516,3.46967,17.46967L6.4692799999999995,14.47006L6.46967,14.46967Q6.57516,14.364180000000001,6.71299,14.30709Q6.850820000000001,14.25,7,14.25Q7.073869999999999,14.25,7.146319999999999,14.26441Q7.21877,14.27882,7.28701,14.30709Q7.3552599999999995,14.33536,7.4166799999999995,14.3764Q7.4780999999999995,14.41744,7.53033,14.46967Q7.58256,14.5219,7.6236,14.58332Q7.66464,14.64474,7.6929099999999995,14.71299Q7.72118,14.78123,7.73559,14.85368Q7.75,14.92613,7.75,15Q7.75,15.14918,7.6929099999999995,15.28701Q7.63582,15.42484,7.53033,15.53033L5.81066,17.25L17,17.25Q17.932000000000002,17.25,18.591,16.590989999999998Q19.25,15.93198,19.25,15L19.25,12Z" fill-rule="evenodd" fill="#231F2E" fill-opacity="1"/></g><g><path d="M14.25,8.5L10.125,8.5Q9.607233,8.5,9.241117,8.866117Q8.875,9.232233,8.875,9.75L8.875,14.25Q8.875,14.767769999999999,9.241117,15.133880000000001Q9.607232,15.5,10.125,15.5L14.25,15.5Q14.61244,15.5,14.86872,15.24372Q15.125,14.98744,15.125,14.625L15.125,9.375Q15.125,9.0125631,14.86872,8.756282Q14.61244,8.5,14.25,8.5ZM9.875,9.75Q9.875,9.5,10.125,9.5L14.125,9.5L14.125,14.5L10.125,14.5Q9.875,14.5,9.875,14.25L9.875,9.75Z" fill-rule="evenodd" fill="#2882FF" fill-opacity="1"/></g><g><path d="M8.973436,13.76329Q8.875,13.99602,8.875,14.25Q8.875,14.299246,8.884607,14.347545Q8.894214999999999,14.395845,8.91306,14.441342Q8.931906,14.486839,8.959265,14.52778Q8.986625,14.56873,9.021447,14.60355Q9.056269,14.63838,9.097215,14.66573Q9.138161,14.69309,9.183658,14.71194Q9.229155,14.73079,9.2774549,14.74039Q9.3257543,14.75,9.375,14.75Q9.4242457,14.75,9.4725451,14.74039Q9.520845,14.73079,9.566342,14.71194Q9.611839,14.69309,9.652785,14.66573Q9.693731,14.63838,9.728553,14.60355Q9.763375,14.56873,9.790735,14.52778Q9.818094,14.486839,9.83694,14.441342Q9.855785000000001,14.395845,9.865393,14.347545Q9.875,14.299246,9.875,14.25Q9.875,14.146447,9.948223,14.073223Q10.021447,14,10.125,14L14.625,14Q14.67425,14,14.72255,13.990393Q14.77084,13.980785000000001,14.81634,13.96194Q14.86184,13.943094,14.90278,13.915735Q14.94373,13.888375,14.97855,13.853553Q15.01338,13.818731,15.04073,13.777785Q15.06809,13.736839,15.08694,13.691342Q15.10578,13.645845,15.11539,13.5975451Q15.125,13.5492457,15.125,13.5Q15.125,13.4507543,15.11539,13.4024549Q15.10578,13.354155,15.08694,13.308658Q15.06809,13.263161,15.04073,13.222215Q15.01338,13.181269,14.97855,13.146447Q14.94373,13.111625,14.90278,13.084265Q14.86184,13.056906,14.81634,13.03806Q14.77084,13.019214999999999,14.72255,13.009607Q14.67425,13,14.625,13L10.125,13Q9.87102,13,9.63829,13.098436Q9.4138785,13.193354,9.241117,13.366116Q9.068355,13.5388783,8.973436,13.76329Z" fill-rule="evenodd" fill="#2882FF" fill-opacity="1"/></g><g><path d="M12.375,8.5L10.875,8.5Q10.8257543,8.5,10.7774549,8.509607Q10.729155,8.519214999999999,10.683658,8.53806Q10.638161,8.556906,10.597215,8.584265Q10.556269,8.611625,10.521447,8.646447Q10.486625,8.681269,10.459265,8.722215Q10.431906,8.763161,10.41306,8.808658Q10.394214999999999,8.854155,10.384607,8.9024549Q10.375,8.9507543,10.375,9L10.375,11.12498Q10.375,11.27636,10.458967,11.40232Q10.486283,11.4433,10.521067,11.478159999999999Q10.555852,11.513020000000001,10.596768,11.540420000000001Q10.637685,11.567820000000001,10.683162,11.58672Q10.728639,11.60561,10.7769281,11.61527Q10.8252172,11.624929999999999,10.87446291,11.62498Q10.9237086,11.62504,10.9720183,11.61548Q11.020328,11.60593,11.065845,11.58713Q11.111363,11.56833,11.152338,11.54102L11.625,11.22593L12.09766,11.54102Q12.22362,11.62498,12.375,11.62498Q12.42425,11.62498,12.47254,11.61538Q12.52084,11.60577,12.56634,11.58692Q12.61184,11.56808,12.65278,11.54072Q12.69373,11.51336,12.72855,11.47854Q12.76338,11.443719999999999,12.79073,11.40277Q12.81809,11.36182,12.83694,11.31633Q12.85579,11.27083,12.86539,11.222529999999999Q12.875,11.17423,12.875,11.12498L12.875,9Q12.875,8.9507543,12.86539,8.9024549Q12.85579,8.854155,12.83694,8.808658Q12.81809,8.763161,12.79073,8.722215Q12.76338,8.681269,12.72855,8.646447Q12.69373,8.611625,12.65278,8.584265Q12.61184,8.556906,12.56634,8.53806Q12.52084,8.519214999999999,12.47255,8.509607Q12.42425,8.5,12.375,8.5ZM11.875,10.192L11.875,9.5L11.375,9.5L11.375,10.192Q11.432007,10.159089999999999,11.495591,10.14205Q11.559174,10.12502,11.625,10.12502Q11.690826,10.12502,11.75441,10.14205Q11.817993,10.159089999999999,11.875,10.192Z" fill-rule="evenodd" fill="#2882FF" fill-opacity="1"/></g></g></svg>