<svg xmlns="http://www.w3.org/2000/svg" xmlns:xlink="http://www.w3.org/1999/xlink" fill="none" version="1.1" width="24" height="24" viewBox="0 0 24 24"><defs><clipPath id="master_svg0_63_04579"><rect x="0" y="0" width="24" height="24" rx="0"/></clipPath></defs><g clip-path="url(#master_svg0_63_04579)"><g></g><g><path d="M9,5.25L20,5.25Q20.073900000000002,5.25,20.1463,5.264411Q20.2188,5.278822,20.287,5.30709Q20.3553,5.335359,20.4167,5.376398Q20.478099999999998,5.417437,20.5303,5.46967Q20.5826,5.521903,20.6236,5.583322Q20.6646,5.644742,20.6929,5.712987Q20.7212,5.781233,20.735599999999998,5.853682Q20.75,5.9261315,20.75,6Q20.75,6.0738685,20.735599999999998,6.146318Q20.7212,6.218767,20.6929,6.287013Q20.6646,6.355258,20.6236,6.416678Q20.5826,6.478097,20.5303,6.53033Q20.478099999999998,6.582563,20.4167,6.623602Q20.3553,6.664641,20.287,6.69291Q20.2188,6.721178,20.1463,6.735589Q20.073900000000002,6.75,20,6.75L9,6.75Q8.9261315,6.75,8.853682,6.735589Q8.781233,6.721178,8.712987,6.69291Q8.644742,6.664641,8.583322,6.623602Q8.521903,6.582563,8.46967,6.53033Q8.417437,6.478097,8.376398,6.416678Q8.335359,6.355258,8.30709,6.287013Q8.278822,6.218767,8.264410999999999,6.146318Q8.25,6.0738685,8.25,6Q8.25,5.9261315,8.264410999999999,5.853682Q8.278822,5.781233,8.30709,5.712987Q8.335359,5.644742,8.376398,5.583322Q8.417437,5.521903,8.46967,5.46967Q8.521903,5.417437,8.583322,5.376398Q8.644742,5.335359,8.712987,5.30709Q8.781233,5.278822,8.853682,5.264411Q8.9261315,5.25,9,5.25Z" fill-rule="evenodd" fill="#231F2E" fill-opacity="1"/></g><g><path d="M9,11.25L20,11.25Q20.073900000000002,11.25,20.1463,11.264410999999999Q20.2188,11.278822,20.287,11.30709Q20.3553,11.335359,20.4167,11.376398Q20.478099999999998,11.417437,20.5303,11.46967Q20.5826,11.521903,20.6236,11.583322Q20.6646,11.644742,20.6929,11.712987Q20.7212,11.781233,20.735599999999998,11.853682Q20.75,11.9261315,20.75,12Q20.75,12.0738685,20.735599999999998,12.146318Q20.7212,12.218767,20.6929,12.287013Q20.6646,12.355258,20.6236,12.416678Q20.5826,12.478097,20.5303,12.53033Q20.478099999999998,12.582563,20.4167,12.623602Q20.3553,12.664641,20.287,12.69291Q20.2188,12.721178,20.1463,12.735589000000001Q20.073900000000002,12.75,20,12.75L9,12.75Q8.9261315,12.75,8.853682,12.735589000000001Q8.781233,12.721178,8.712987,12.69291Q8.644742,12.664641,8.583322,12.623602Q8.521903,12.582563,8.46967,12.53033Q8.417437,12.478097,8.376398,12.416678Q8.335359,12.355258,8.30709,12.287013Q8.278822,12.218767,8.264410999999999,12.146318Q8.25,12.0738685,8.25,12Q8.25,11.9261315,8.264410999999999,11.853682Q8.278822,11.781233,8.30709,11.712987Q8.335359,11.644742,8.376398,11.583322Q8.417437,11.521903,8.46967,11.46967Q8.521903,11.417437,8.583322,11.376398Q8.644742,11.335359,8.712987,11.30709Q8.781233,11.278822,8.853682,11.264410999999999Q8.9261315,11.25,9,11.25Z" fill-rule="evenodd" fill="#231F2E" fill-opacity="1"/></g><g><path d="M9,17.25L20,17.25Q20.073900000000002,17.25,20.1463,17.264411Q20.2188,17.278822,20.287,17.30709Q20.3553,17.335359,20.4167,17.376398000000002Q20.478099999999998,17.417437,20.5303,17.46967Q20.5826,17.521903000000002,20.6236,17.583322Q20.6646,17.644742,20.6929,17.712987Q20.7212,17.781233,20.735599999999998,17.853682Q20.75,17.9261315,20.75,18Q20.75,18.0738685,20.735599999999998,18.146318Q20.7212,18.218767,20.6929,18.287013Q20.6646,18.355258,20.6236,18.416678Q20.5826,18.478096999999998,20.5303,18.53033Q20.478099999999998,18.582563,20.4167,18.623601999999998Q20.3553,18.664641,20.287,18.69291Q20.2188,18.721178,20.1463,18.735589Q20.073900000000002,18.75,20,18.75L9,18.75Q8.9261315,18.75,8.853682,18.735589Q8.781233,18.721178,8.712987,18.69291Q8.644742,18.664641,8.583322,18.623601999999998Q8.521903,18.582563,8.46967,18.53033Q8.417437,18.478096999999998,8.376398,18.416678Q8.335359,18.355258,8.30709,18.287013Q8.278822,18.218767,8.264410999999999,18.146318Q8.25,18.0738685,8.25,18Q8.25,17.9261315,8.264410999999999,17.853682Q8.278822,17.781233,8.30709,17.712987Q8.335359,17.644742,8.376398,17.583322Q8.417437,17.521903000000002,8.46967,17.46967Q8.521903,17.417437,8.583322,17.376398000000002Q8.644742,17.335359,8.712987,17.30709Q8.781233,17.278822,8.853682,17.264411Q8.9261315,17.25,9,17.25Z" fill-rule="evenodd" fill="#231F2E" fill-opacity="1"/></g><g><g><path d="M13.75,19.166667L13.75,21.83333Q13.75,22.83435,14.45783,23.542180000000002Q15.165651,24.25,16.166667,24.25L18.83333,24.25Q19.83435,24.25,20.542180000000002,23.54217Q21.25,22.83435,21.25,21.83333L21.25,19.166667Q21.25,18.16565,20.542180000000002,17.45783Q19.83435,16.75,18.83333,16.75L16.166667,16.75Q15.165651,16.75,14.45783,17.45783Q13.75,18.165651,13.75,19.166667ZM17.25,20.75L17.75,20.75L17.75,20.25L17.25,20.25L17.25,20.75Z" fill-rule="evenodd" fill="#FFFFFF" fill-opacity="1" style="mix-blend-mode:passthrough"/></g><g><path d="M15.75,17.166667L15.75,19.83333Q15.75,20.83435,16.45783,21.542180000000002Q17.165651,22.25,18.166667,22.25L20.83333,22.25Q21.83435,22.25,22.542180000000002,21.54217Q23.25,20.83435,23.25,19.83333L23.25,17.166667Q23.25,16.16565,22.542180000000002,15.45783Q21.83435,14.75,20.83333,14.75L18.166667,14.75Q17.165651,14.75,16.45783,15.45783Q15.75,16.165651,15.75,17.166667ZM19.25,18.75L19.75,18.75L19.75,18.25L19.25,18.25L19.25,18.75Z" fill-rule="evenodd" fill="#FFFFFF" fill-opacity="1" style="mix-blend-mode:passthrough"/></g></g><g><g><path d="M14.75,19.166667L14.75,21.83333Q14.75,22.42014,15.164932,22.83507Q15.5798643,23.25,16.166667,23.25L18.83333,23.25Q19.42014,23.25,19.83507,22.83507Q20.25,22.42014,20.25,21.83333L20.25,19.166667Q20.25,18.579864,19.83507,18.164932Q19.42014,17.75,18.83333,17.75L16.166667,17.75Q15.5798642,17.75,15.164932,18.164932Q14.75,18.5798641,14.75,19.166667ZM16.25,21.75L18.75,21.75L18.75,19.25L16.25,19.25L16.25,21.75Z" fill-rule="evenodd" fill="#2882FF" fill-opacity="1" style="mix-blend-mode:passthrough"/></g><g><path d="M16.75,17.166667L16.75,19.83333Q16.75,20.42014,17.164932,20.83507Q17.5798643,21.25,18.166667,21.25L20.83333,21.25Q21.42014,21.25,21.83507,20.83507Q22.25,20.42014,22.25,19.83333L22.25,17.166667Q22.25,16.579864,21.83507,16.164932Q21.42014,15.75,20.83333,15.75L18.166667,15.75Q17.5798642,15.75,17.164932,16.164932Q16.75,16.5798641,16.75,17.166667ZM18.25,19.75L20.75,19.75L20.75,17.25L18.25,17.25L18.25,19.75Z" fill-rule="evenodd" fill="#2882FF" fill-opacity="1" style="mix-blend-mode:passthrough"/></g></g><g><ellipse cx="5.0048828125" cy="6" rx="1" ry="1" fill="#231F2E" fill-opacity="1"/></g><g><ellipse cx="5.0048828125" cy="12.010009765625" rx="1" ry="1" fill="#231F2E" fill-opacity="1"/></g><g><ellipse cx="5.0048828125" cy="18.00244140625" rx="1" ry="1" fill="#231F2E" fill-opacity="1"/></g></g></svg>