<svg xmlns="http://www.w3.org/2000/svg" xmlns:xlink="http://www.w3.org/1999/xlink" fill="none" version="1.1" width="24" height="24" viewBox="0 0 24 24"><defs><clipPath id="master_svg0_63_20105"><rect x="0" y="0" width="24" height="24" rx="0"/></clipPath></defs><g clip-path="url(#master_svg0_63_20105)"><g><g><path d="M19.5,9.75L22.5,9.75Q22.57387,9.75,22.64632,9.73559Q22.71877,9.72118,22.78701,9.692910000000001Q22.85526,9.66464,22.91668,9.6236Q22.9781,9.58256,23.03033,9.53033Q23.08256,9.478100000000001,23.1236,9.41668Q23.16464,9.355260000000001,23.19291,9.28701Q23.22118,9.21877,23.235590000000002,9.14632Q23.25,9.07387,23.25,9Q23.25,8.92613,23.235590000000002,8.85368Q23.22118,8.78123,23.19291,8.71299Q23.16464,8.644739999999999,23.1236,8.58332Q23.08256,8.521899999999999,23.03033,8.46967Q22.9781,8.41744,22.91668,8.3764Q22.85526,8.33536,22.78701,8.307089999999999Q22.71877,8.27882,22.64632,8.26441Q22.57387,8.25,22.5,8.25L20.25,8.25L20.25,3.75L22.5,3.75Q22.57387,3.75,22.64632,3.735589Q22.71877,3.721178,22.78701,3.69291Q22.85526,3.664641,22.91668,3.623602Q22.9781,3.582563,23.03033,3.53033Q23.08256,3.478097,23.1236,3.416678Q23.16464,3.355258,23.19291,3.287013Q23.22118,3.218767,23.235590000000002,3.146318Q23.25,3.0738685,23.25,3Q23.25,2.9261315,23.235590000000002,2.853682Q23.22118,2.781233,23.19291,2.712987Q23.16464,2.644742,23.1236,2.583322Q23.08256,2.521903,23.03033,2.46967Q22.9781,2.417437,22.91668,2.376398Q22.85526,2.335359,22.78701,2.30709Q22.71877,2.278822,22.64632,2.264411Q22.57387,2.25,22.5,2.25L19.5,2.25Q19.4261315,2.25,19.353682,2.264411Q19.281233,2.278822,19.212987,2.30709Q19.144742,2.335359,19.083322,2.376398Q19.021903000000002,2.417437,18.96967,2.46967Q18.917437,2.521903,18.876398000000002,2.583322Q18.835359,2.644742,18.80709,2.712987Q18.778822,2.781233,18.764411,2.853682Q18.75,2.9261315,18.75,3L18.75,9Q18.75,9.07387,18.764411,9.14632Q18.778822,9.21877,18.80709,9.28701Q18.835359,9.355260000000001,18.876398000000002,9.41668Q18.917437,9.478100000000001,18.96967,9.53033Q19.021903000000002,9.58256,19.083322,9.6236Q19.144742,9.66464,19.212987,9.692910000000001Q19.281233,9.72118,19.353682,9.73559Q19.4261315,9.75,19.5,9.75Z" fill-rule="evenodd" fill="#231F2E" fill-opacity="1"/></g><g><path d="M19.5,5.25L21.375,5.25Q21.44887,5.25,21.52132,5.264411Q21.59377,5.278822,21.66201,5.30709Q21.73026,5.335359,21.79168,5.376398Q21.8531,5.417437,21.90533,5.46967Q21.95756,5.521903,21.9986,5.583322Q22.03964,5.644742,22.06791,5.712987Q22.09618,5.781233,22.110590000000002,5.853682Q22.125,5.9261315,22.125,6Q22.125,6.0738685,22.110590000000002,6.146318Q22.09618,6.218767,22.06791,6.287013Q22.03964,6.355258,21.9986,6.416678Q21.95756,6.478097,21.90533,6.53033Q21.8531,6.582563,21.79168,6.623602Q21.73026,6.664641,21.66201,6.69291Q21.59377,6.721178,21.52132,6.735589Q21.44887,6.75,21.375,6.75L19.5,6.75Q19.4261315,6.75,19.353682,6.735589Q19.281233,6.721178,19.212987,6.69291Q19.144742,6.664641,19.083322,6.623602Q19.021903000000002,6.582563,18.96967,6.53033Q18.917437,6.478097,18.876398000000002,6.416678Q18.835359,6.355258,18.80709,6.287013Q18.778822,6.218767,18.764411,6.146318Q18.75,6.0738685,18.75,6Q18.75,5.9261315,18.764411,5.853682Q18.778822,5.781233,18.80709,5.712987Q18.835359,5.644742,18.876398000000002,5.583322Q18.917437,5.521903,18.96967,5.46967Q19.021903000000002,5.417437,19.083322,5.376398Q19.144742,5.335359,19.212987,5.30709Q19.281233,5.278822,19.353682,5.264411Q19.4261315,5.25,19.5,5.25Z" fill-rule="evenodd" fill="#231F2E" fill-opacity="1"/></g></g><g><path d="M0.75,6L0.75,9Q0.75,9.07387,0.764411,9.14632Q0.778822,9.21877,0.80709,9.28701Q0.835359,9.355260000000001,0.876398,9.41668Q0.917437,9.478100000000001,0.96967,9.53033Q1.021903,9.58256,1.083322,9.6236Q1.144742,9.66464,1.212987,9.692910000000001Q1.281233,9.72118,1.353682,9.73559Q1.4261314999999999,9.75,1.5,9.75L3,9.75Q3.93198,9.75,4.59099,9.09099Q5.25,8.43198,5.25,7.5Q5.25,6.63147,4.6776599999999995,6Q5.25,5.368539999999999,5.25,4.5Q5.25,3.5680199999999997,4.59099,2.9090098Q3.93198,2.25,3,2.25L1.5,2.25Q1.4261314999999999,2.25,1.353682,2.264411Q1.281233,2.278822,1.212987,2.30709Q1.144742,2.335359,1.083322,2.376398Q1.021903,2.417437,0.96967,2.46967Q0.917437,2.521903,0.876398,2.583322Q0.835359,2.644742,0.80709,2.712987Q0.778822,2.781233,0.764411,2.853682Q0.75,2.9261315,0.75,3L0.75,6ZM3.53033,5.03033Q3.31066,5.25,3,5.25L2.25,5.25L2.25,3.75L3,3.75Q3.31066,3.75,3.53033,3.96967Q3.75,4.18934,3.75,4.5Q3.75,4.81066,3.53033,5.03033ZM2.25,6.75L3,6.75Q3.31066,6.75,3.53033,6.96967Q3.75,7.18934,3.75,7.5Q3.75,7.81066,3.53033,8.03033Q3.31066,8.25,3,8.25L2.25,8.25L2.25,6.75Z" fill-rule="evenodd" fill="#231F2E" fill-opacity="1"/></g><g><g><path d="M9.75,4.5L9.75,9Q9.75,9.07387,9.76441,9.14632Q9.77882,9.21877,9.80709,9.28701Q9.83536,9.355260000000001,9.8764,9.41668Q9.91744,9.478100000000001,9.96967,9.53033Q10.0219,9.58256,10.08332,9.6236Q10.14474,9.66464,10.21299,9.692910000000001Q10.28123,9.72118,10.35368,9.73559Q10.42613,9.75,10.5,9.75Q10.57387,9.75,10.64632,9.73559Q10.71877,9.72118,10.78701,9.692910000000001Q10.85526,9.66464,10.91668,9.6236Q10.9781,9.58256,11.03033,9.53033Q11.08256,9.478100000000001,11.1236,9.41668Q11.16464,9.355260000000001,11.19291,9.28701Q11.22118,9.21877,11.23559,9.14632Q11.25,9.07387,11.25,9L11.25,4.5Q11.25,3.5680199999999997,10.59099,2.9090098Q9.93198,2.25,9,2.25Q8.06802,2.25,7.4090098,2.9090098Q6.75,3.5680199999999997,6.75,4.5L6.75,9Q6.75,9.07387,6.764411,9.14632Q6.778822,9.21877,6.80709,9.28701Q6.835359,9.355260000000001,6.876398,9.41668Q6.917437,9.478100000000001,6.96967,9.53033Q7.021903,9.58256,7.083322,9.6236Q7.144742,9.66464,7.212987,9.692910000000001Q7.281233,9.72118,7.353682,9.73559Q7.4261315,9.75,7.5,9.75Q7.5738685,9.75,7.646318,9.73559Q7.718767,9.72118,7.787013,9.692910000000001Q7.855258,9.66464,7.916678,9.6236Q7.978097,9.58256,8.03033,9.53033Q8.082563,9.478100000000001,8.123602,9.41668Q8.164641,9.355260000000001,8.19291,9.28701Q8.221178,9.21877,8.235589000000001,9.14632Q8.25,9.07387,8.25,9L8.25,4.5Q8.25,4.18934,8.46967,3.96967Q8.68934,3.75,9,3.75Q9.31066,3.75,9.53033,3.96967Q9.75,4.18934,9.75,4.5Z" fill-rule="evenodd" fill="#231F2E" fill-opacity="1"/></g><g><path d="M7.5,6L10.5,6Q10.57387,6,10.64632,6.014411Q10.71877,6.028822,10.78701,6.05709Q10.85526,6.085359,10.91668,6.126398Q10.9781,6.167437,11.03033,6.21967Q11.08256,6.271903,11.1236,6.333322Q11.16464,6.394742,11.19291,6.462987Q11.22118,6.531233,11.23559,6.603682Q11.25,6.6761315,11.25,6.75Q11.25,6.8238685,11.23559,6.896318Q11.22118,6.968767,11.19291,7.037013Q11.16464,7.105258,11.1236,7.166678Q11.08256,7.228097,11.03033,7.28033Q10.9781,7.332563,10.91668,7.373602Q10.85526,7.414641,10.78701,7.44291Q10.71877,7.471178,10.64632,7.485589Q10.57387,7.5,10.5,7.5L7.5,7.5Q7.4261315,7.5,7.353682,7.485589Q7.281233,7.471178,7.212987,7.44291Q7.144742,7.414641,7.083322,7.373602Q7.021903,7.332563,6.96967,7.28033Q6.917437,7.228097,6.876398,7.166678Q6.835359,7.105258,6.80709,7.037013Q6.778822,6.968767,6.764411,6.896318Q6.75,6.8238685,6.75,6.75Q6.75,6.6761315,6.764411,6.603682Q6.778822,6.531233,6.80709,6.462987Q6.835359,6.394742,6.876398,6.333322Q6.917437,6.271903,6.96967,6.21967Q7.021903,6.167437,7.083322,6.126398Q7.144742,6.085359,7.212987,6.05709Q7.281233,6.028822,7.353682,6.014411Q7.4261315,6,7.5,6Z" fill-rule="evenodd" fill="#231F2E" fill-opacity="1"/></g></g><g><g><path d="M14.25,3.75L15.75,3.75Q15.75,3.823869,15.76441,3.896318Q15.77882,3.968767,15.80709,4.03701Q15.83536,4.1052599999999995,15.8764,4.1666799999999995Q15.91744,4.2280999999999995,15.96967,4.28033Q16.0219,4.33256,16.08332,4.3736Q16.14474,4.41464,16.21299,4.4429099999999995Q16.28123,4.47118,16.35368,4.48559Q16.42613,4.5,16.5,4.5Q16.57387,4.5,16.64632,4.48559Q16.71877,4.47118,16.78701,4.4429099999999995Q16.85526,4.41464,16.91668,4.3736Q16.9781,4.33256,17.03033,4.28033Q17.08256,4.2280999999999995,17.1236,4.1666799999999995Q17.16464,4.1052599999999995,17.19291,4.03701Q17.22118,3.968767,17.235590000000002,3.896318Q17.25,3.823869,17.25,3.75Q17.25,3.128679,16.81066,2.68934Q16.37132,2.25,15.75,2.25L14.25,2.25Q13.62868,2.25,13.18934,2.68934Q12.75,3.128679,12.75,3.75L12.75,5.25Q12.75,5.87132,13.18934,6.31066Q13.62868,6.75,14.25,6.75L15.75,6.75L15.75,8.25L14.25,8.25Q14.25,8.17613,14.235589000000001,8.10368Q14.221178,8.03123,14.19291,7.96299Q14.164641,7.89474,14.123602,7.83332Q14.082563,7.7719,14.03033,7.71967Q13.978097,7.66744,13.916678,7.6264Q13.855258,7.58536,13.787013,7.55709Q13.718767,7.52882,13.646318,7.51441Q13.5738685,7.5,13.5,7.5Q13.4261315,7.5,13.353682,7.51441Q13.281233,7.52882,13.212987,7.55709Q13.144742,7.58536,13.083322,7.6264Q13.021903,7.66744,12.96967,7.71967Q12.917437,7.7719,12.876398,7.83332Q12.835359,7.89474,12.80709,7.96299Q12.778822,8.03123,12.764410999999999,8.10368Q12.75,8.17613,12.75,8.25Q12.75,8.87132,13.18934,9.31066Q13.62868,9.75,14.25,9.75L15.75,9.75Q16.37132,9.75,16.81066,9.31066Q17.25,8.87132,17.25,8.25L17.25,6.75Q17.25,6.12868,16.81066,5.68934Q16.37132,5.25,15.75,5.25L14.25,5.25L14.25,3.75Z" fill-rule="evenodd" fill="#231F2E" fill-opacity="1"/></g></g><g><g><path d="M13.25,13Q13.25,12.9261315,13.264410999999999,12.853682Q13.278822,12.781233,13.30709,12.712987Q13.335359,12.644742,13.376398,12.583322Q13.417437,12.521903,13.46967,12.46967Q13.521903,12.417437,13.583322,12.376398Q13.644742,12.335359,13.712987,12.30709Q13.781233,12.278822,13.853682,12.264410999999999Q13.9261315,12.25,14,12.25Q14.0738685,12.25,14.146318,12.264410999999999Q14.218767,12.278822,14.287013,12.30709Q14.355258,12.335359,14.416678,12.376398Q14.478097,12.417437,14.53033,12.46967Q14.582563,12.521903,14.623602,12.583322Q14.664641,12.644742,14.69291,12.712987Q14.721178,12.781233,14.735589000000001,12.853682Q14.75,12.9261315,14.75,13L14.75,16Q14.75,16.10355,14.823223,16.17678Q14.896446,16.25,15,16.25L18,16.25Q18.07387,16.25,18.14632,16.264409999999998Q18.21877,16.27882,18.287010000000002,16.30709Q18.35526,16.33536,18.41668,16.3764Q18.4781,16.41744,18.53033,16.46967Q18.58256,16.5219,18.6236,16.58332Q18.66464,16.64474,18.69291,16.71299Q18.72118,16.78123,18.735590000000002,16.85368Q18.75,16.92613,18.75,17Q18.75,17.07387,18.735590000000002,17.14632Q18.72118,17.21877,18.69291,17.287010000000002Q18.66464,17.35526,18.6236,17.41668Q18.58256,17.4781,18.53033,17.53033Q18.4781,17.58256,18.41668,17.6236Q18.35526,17.66464,18.287010000000002,17.69291Q18.21877,17.72118,18.14632,17.735590000000002Q18.07387,17.75,18,17.75L15,17.75Q14.275126,17.75,13.762563,17.23744Q13.25,16.72487,13.25,16L13.25,13Z" fill-rule="evenodd" fill="#2882FF" fill-opacity="1"/></g><g><path d="M17.25,13Q17.25,12.9261315,17.264411,12.853682Q17.278822,12.781233,17.30709,12.712987Q17.335359,12.644742,17.376398000000002,12.583322Q17.417437,12.521903,17.46967,12.46967Q17.521903000000002,12.417437,17.583322,12.376398Q17.644742,12.335359,17.712987,12.30709Q17.781233,12.278822,17.853682,12.264410999999999Q17.9261315,12.25,18,12.25Q18.0738685,12.25,18.146318,12.264410999999999Q18.218767,12.278822,18.287013,12.30709Q18.355258,12.335359,18.416678,12.376398Q18.478096999999998,12.417437,18.53033,12.46967Q18.582563,12.521903,18.623601999999998,12.583322Q18.664641,12.644742,18.69291,12.712987Q18.721178,12.781233,18.735589,12.853682Q18.75,12.9261315,18.75,13L18.75,21Q18.75,21.07387,18.735589,21.14632Q18.721178,21.21877,18.69291,21.287010000000002Q18.664641,21.35526,18.623601999999998,21.41668Q18.582563,21.478099999999998,18.53033,21.53033Q18.478096999999998,21.58256,18.416678,21.6236Q18.355258,21.66464,18.287013,21.692909999999998Q18.218767,21.72118,18.146318,21.735590000000002Q18.0738685,21.75,18,21.75Q17.9261315,21.75,17.853682,21.735590000000002Q17.781233,21.72118,17.712987,21.692909999999998Q17.644742,21.66464,17.583322,21.6236Q17.521903000000002,21.58256,17.46967,21.53033Q17.417437,21.478099999999998,17.376398000000002,21.41668Q17.335359,21.35526,17.30709,21.287010000000002Q17.278822,21.21877,17.264411,21.14632Q17.25,21.07387,17.25,21L17.25,13Z" fill-rule="evenodd" fill="#2882FF" fill-opacity="1"/></g></g><g><path d="M5.25,17L5.25,14Q5.25,13.275126,5.762563,12.762563Q6.275126,12.25,7,12.25L9,12.25Q9.72487,12.25,10.23744,12.762563Q10.75,13.275126,10.75,14Q10.75,14.07387,10.73559,14.14632Q10.72118,14.21877,10.692910000000001,14.28701Q10.66464,14.35526,10.6236,14.41668Q10.58256,14.4781,10.53033,14.53033Q10.478100000000001,14.58256,10.41668,14.6236Q10.355260000000001,14.66464,10.28701,14.69291Q10.21877,14.72118,10.14632,14.73559Q10.07387,14.75,10,14.75Q9.92613,14.75,9.85368,14.73559Q9.78123,14.72118,9.71299,14.69291Q9.64474,14.66464,9.58332,14.6236Q9.5219,14.58256,9.46967,14.53033Q9.41744,14.4781,9.3764,14.41668Q9.33536,14.35526,9.30709,14.28701Q9.27882,14.21877,9.26441,14.14632Q9.25,14.07387,9.25,14Q9.25,13.75,9,13.75L7,13.75Q6.896446,13.75,6.8232230000000005,13.823223Q6.75,13.896446,6.75,14L6.75,16.25L9,16.25Q9.72487,16.25,10.23744,16.76256Q10.75,17.27513,10.75,18L10.75,20Q10.75,20.72487,10.23744,21.23744Q9.72487,21.75,9,21.75L7,21.75Q6.275126,21.75,5.762563,21.23744Q5.25,20.72487,5.25,20L5.25,17ZM6.75,17.75L6.75,20Q6.75,20.10355,6.8232230000000005,20.17678Q6.896446,20.25,7,20.25L9,20.25Q9.25,20.25,9.25,20L9.25,18Q9.25,17.75,9,17.75L6.75,17.75Z" fill-rule="evenodd" fill="#2882FF" fill-opacity="1"/></g></g></svg>