<svg xmlns="http://www.w3.org/2000/svg" xmlns:xlink="http://www.w3.org/1999/xlink" fill="none" version="1.1" width="24" height="24" viewBox="0 0 24 24"><defs><clipPath id="master_svg0_6057_03124"><rect x="0" y="0" width="24" height="24" rx="0"/></clipPath></defs><g clip-path="url(#master_svg0_6057_03124)"><g><path d="M4.055456400000001,19.944544Q4.8609127999999995,20.75,6,20.75Q6.0738688,20.75,6.1463175,20.735588Q6.2187667,20.721178,6.2870121,20.692909Q6.355258,20.66464,6.416677,20.6236Q6.478097,20.582561,6.5303297,20.530329Q6.5825624,20.478096,6.6236019,20.416676Q6.6646409,20.355255,6.6929092,20.28701Q6.7211776,20.218765,6.735589,20.146317Q6.75,20.073868,6.75,20Q6.75,19.92613,6.735589,19.853682Q6.7211776,19.781232,6.6929092,19.712986Q6.6646409,19.64474,6.6236019,19.583320999999998Q6.5825624,19.521902,6.5303297,19.469669Q6.478097,19.417437,6.416677,19.376397Q6.355258,19.335358,6.2870121,19.307090000000002Q6.2187667,19.278821999999998,6.1463175,19.264411000000003Q6.0738688,19.25,6,19.25Q5.4822321,19.25,5.1161163,18.883884000000002Q4.75,18.517768,4.75,18L4.75,15Q4.75,13.5302773,4.0382511999999995,12.4626541Q3.8655952,12.2036705,3.6737199,11.9999971Q3.8655951,11.796330000000001,4.0382511999999995,11.5373459Q4.75,10.4697227,4.75,9L4.75,6Q4.75,5.482233,5.1161165,5.1161165Q5.482233,4.75,6,4.75Q6.0738688,4.75,6.1463175,4.73558891Q6.2187667,4.72117788,6.2870121,4.6929096Q6.355258,4.66464132,6.416677,4.62360215Q6.478097,4.58256298,6.5303297,4.53033006Q6.5825624,4.47809708,6.6236019,4.41667762Q6.6646409,4.35525817,6.6929092,4.28701252Q6.7211776,4.21876688,6.735589,4.14631772Q6.75,4.073868543,6.75,4Q6.75,3.926131457,6.735589,3.85368228Q6.7211776,3.78123312,6.6929092,3.71298748Q6.6646409,3.64474183,6.6236019,3.58332238Q6.5825624,3.52190292,6.5303297,3.46966994Q6.478097,3.41743702,6.416677,3.37639785Q6.355258,3.33535868,6.2870121,3.3070904Q6.2187667,3.27882212,6.1463175,3.26441109Q6.0738688,3.25,6,3.25Q4.8609126,3.25,4.0554562,4.0554564Q3.25,4.86091268,3.25,6L3.25,9Q3.25,10.0155592,2.7901758599999997,10.7052956Q2.4270395000000002,11.25,2,11.25Q1.926131457,11.25,1.85368228,11.264410999999999Q1.78123312,11.2788219,1.71298748,11.3070898Q1.64474183,11.3353577,1.58332238,11.3763971Q1.52190292,11.4174361,1.46966994,11.4696693Q1.41743702,11.5219021,1.37639785,11.5833216Q1.3353586800000001,11.644741100000001,1.3070903999999999,11.7129865Q1.27882212,11.7812319,1.2644110899999998,11.8536816Q1.25,11.9261312,1.25,12Q1.25,12.0738678,1.2644110899999998,12.1463165Q1.27882212,12.2187653,1.3070903999999999,12.2870111Q1.3353586800000001,12.355257,1.37639785,12.4166765Q1.41743702,12.478096,1.46966994,12.5303297Q1.52190292,12.5825624,1.58332238,12.623601Q1.64474183,12.6646404,1.71298748,12.6929083Q1.78123312,12.7211761,1.85368228,12.7355881Q1.926131457,12.75,2,12.75Q2.42703947,12.75,2.7901758599999997,13.2947044Q3.25,13.9844408,3.25,15L3.25,18Q3.25,19.139088,4.055456400000001,19.944544Z" fill-rule="evenodd" fill="#000000" fill-opacity="1"/></g><g><path d="M18,3.25Q19.1390879,3.25,19.9445441,4.05545646Q20.75,4.86091268,20.75,6L20.75,9Q20.75,10.0155597,21.2098238,10.7052956Q21.5729601,11.25,22,11.25Q22.0738688,11.25,22.146317500000002,11.264410999999999Q22.2187667,11.2788219,22.2870121,11.3070898Q22.355258,11.3353577,22.416677,11.3763971Q22.478096999999998,11.4174361,22.5303297,11.4696693Q22.5825624,11.5219021,22.6236019,11.5833216Q22.664640900000002,11.644741100000001,22.6929092,11.7129865Q22.7211776,11.7812319,22.735589,11.8536816Q22.75,11.9261312,22.75,12Q22.75,12.0738678,22.735589,12.1463165Q22.7211776,12.2187653,22.6929092,12.2870111Q22.664640900000002,12.355257,22.6236019,12.4166765Q22.5825624,12.478096,22.5303297,12.5303297Q22.478096999999998,12.5825624,22.416677,12.623601Q22.355258,12.6646404,22.2870121,12.6929083Q22.2187667,12.7211761,22.146317500000002,12.7355881Q22.0738688,12.75,22,12.75Q21.5729601,12.75,21.2098238,13.2947044Q20.75,13.9844398,20.75,15L20.75,18Q20.75,19.139088,19.944544,19.944544Q19.1390878,20.75,18,20.75Q17.926131457,20.75,17.85368228,20.735588Q17.78123312,20.721178,17.71298748,20.692909Q17.64474183,20.66464,17.58332238,20.6236Q17.52190292,20.582561,17.46966994,20.530329Q17.41743702,20.478096,17.37639785,20.416676Q17.33535868,20.355255,17.3070904,20.28701Q17.27882212,20.218765,17.26441109,20.146317Q17.25,20.073868,17.25,20Q17.25,19.92613,17.26441109,19.853682Q17.27882212,19.781232,17.3070904,19.712986Q17.33535868,19.64474,17.37639785,19.583320999999998Q17.41743702,19.521902,17.46966994,19.469669Q17.52190292,19.417437,17.58332238,19.376397Q17.64474183,19.335358,17.71298748,19.307090000000002Q17.78123312,19.278821999999998,17.85368228,19.264411000000003Q17.926131457,19.25,18,19.25Q18.51776832,19.25,18.88388383,18.883884000000002Q19.25,18.517768,19.25,18L19.25,15Q19.25,13.5302773,19.9617484,12.4626541Q20.1344047,12.2036695,20.3262794,11.9999971Q20.1344044,11.796330000000001,19.9617484,11.5373459Q19.25,10.4697232,19.25,9L19.25,6Q19.25,5.4822329,18.88388371,5.1161165Q18.51776731,4.75,18,4.75Q17.926131457,4.75,17.85368228,4.73558891Q17.78123312,4.72117788,17.71298748,4.6929096Q17.64474183,4.66464132,17.58332238,4.62360215Q17.52190292,4.58256298,17.46966994,4.53033006Q17.41743702,4.47809708,17.37639785,4.41667762Q17.33535868,4.35525817,17.3070904,4.28701252Q17.27882212,4.21876688,17.26441109,4.14631772Q17.25,4.073868543,17.25,4Q17.25,3.926131457,17.26441109,3.85368228Q17.27882212,3.78123312,17.3070904,3.71298748Q17.33535868,3.64474183,17.37639785,3.58332238Q17.41743702,3.52190292,17.46966994,3.46966994Q17.52190292,3.41743702,17.58332238,3.37639785Q17.64474183,3.33535868,17.71298748,3.3070904Q17.78123312,3.27882212,17.85368228,3.26441109Q17.926131457,3.25,18,3.25Z" fill-rule="evenodd" fill="#000000" fill-opacity="1"/></g><g><path d="M9,7.75L10,7.75Q10.915596,7.75,11.426451199999999,8.522865966Q11.6755235,8.89968425,12.0999207,10.1026185Q12.4529271,11.1031976,12.7118626,11.7472234Q12.9732678,12.4041767,13.3243847,13.4110413Q13.6796446,14.429786199999999,13.8253794,14.6510234Q13.890577799999999,14.750000499999999,14,14.750000499999999L15,14.750000499999999Q15.0738683,14.75,15.1463175,14.764410999999999Q15.218766200000001,14.7788219,15.2870121,14.8070898Q15.3552575,14.8353577,15.416677,14.8763971Q15.4780965,14.9174366,15.5303297,14.9696698Q15.5825624,15.0219026,15.6236014,15.083321999999999Q15.6646404,15.144741100000001,15.6929088,15.2129869Q15.7211771,15.2812328,15.735588100000001,15.353682Q15.749999500000001,15.4261312,15.75,15.5Q15.749999500000001,15.5738683,15.735588100000001,15.6463175Q15.7211771,15.718766200000001,15.6929088,15.7870121Q15.6646404,15.8552575,15.6236014,15.916677Q15.5825624,15.9780965,15.5303297,16.0303297Q15.4780965,16.0825624,15.416677,16.1236014Q15.3552575,16.1646404,15.2870121,16.192908799999998Q15.218766200000001,16.2211771,15.146317,16.2355881Q15.0738683,16.2499995,15,16.25L14,16.2500005Q13.0824695,16.2500005,12.572731000000001,15.4761739Q12.3245912,15.0994768,11.9080341,13.9049549Q11.5675747,12.9286528,11.320137299999999,12.306777499999999Q11.0491381,11.6327465,10.6853735,10.6016736Q10.3223904,9.5728154,10.1751057,9.34999025Q10.1090134,9.25,10,9.25L9,9.25Q8.926131457,9.25,8.85368228,9.23558891Q8.78123312,9.22117788,8.71298748,9.1929096Q8.64474183,9.16464132,8.58332238,9.12360215Q8.52190292,9.08256298,8.46966994,9.03033006Q8.41743702,8.97809708,8.37639785,8.91667762Q8.33535868,8.85525817,8.3070904,8.78701252Q8.27882212,8.71876688,8.26441109,8.64631772Q8.25,8.573868543,8.25,8.5Q8.25,8.426131457,8.26441109,8.35368228Q8.27882212,8.28123312,8.3070904,8.21298748Q8.33535868,8.14474183,8.37639785,8.08332238Q8.41743702,8.02190292,8.46966994,7.96966994Q8.52190292,7.91743702,8.58332238,7.87639785Q8.64474183,7.83535868,8.71298748,7.8070904Q8.78123312,7.77882212,8.85368228,7.76441109Q8.926131457,7.75,9,7.75Z" fill-rule="evenodd" fill="#000000" fill-opacity="1"/></g><g><path d="M12.624038200000001,12.4160247Q14.7347207,9.25,16,9.25Q16.073867800000002,9.25,16.146316499999998,9.23558891Q16.2187653,9.22117788,16.2870111,9.1929096Q16.355257,9.16464132,16.4166765,9.12360215Q16.478096,9.08256298,16.5303297,9.03033006Q16.5825624,8.97809708,16.623601,8.91667762Q16.6646404,8.85525817,16.6929083,8.78701252Q16.7211761,8.71876688,16.7355881,8.64631772Q16.75,8.573868543,16.75,8.5Q16.75,8.426131457,16.7355881,8.35368228Q16.7211761,8.28123312,16.6929083,8.21298748Q16.6646404,8.14474183,16.6236019,8.08332238Q16.5825624,8.02190292,16.5303297,7.96966994Q16.478096,7.91743702,16.4166775,7.87639785Q16.355257,7.83535868,16.2870121,7.8070904Q16.218766199999997,7.77882212,16.146316499999998,7.76441109Q16.073867800000002,7.75,16,7.75Q14.689340099999999,7.75,13.2821698,9.15716988Q12.4171562,10.0221834,11.3759625,11.5839748Q9.2652792,14.749999500000001,8,14.749999500000001Q7.926131457,14.749999500000001,7.85368228,14.76441Q7.78123312,14.778821,7.71298748,14.807089300000001Q7.64474183,14.8353577,7.58332238,14.8763967Q7.52190292,14.9174361,7.46966994,14.9696693Q7.41743702,15.0219021,7.37639785,15.0833216Q7.33535868,15.144741100000001,7.3070904,15.2129869Q7.27882212,15.2812328,7.26441109,15.353682Q7.25,15.4261312,7.25,15.5Q7.25,15.5738683,7.26441109,15.6463175Q7.27882212,15.718766200000001,7.3070904,15.7870121Q7.33535868,15.8552575,7.37639785,15.916677Q7.41743702,15.9780965,7.46966994,16.0303297Q7.52190292,16.0825624,7.58332238,16.1236014Q7.64474183,16.1646404,7.71298748,16.192908799999998Q7.78123312,16.2211771,7.85368228,16.2355881Q7.926131457,16.2499995,8,16.25Q9.3106596,16.25,10.7178302,14.8428297Q11.5828426,13.9778171,12.624038200000001,12.4160247Z" fill-rule="evenodd" fill="#000000" fill-opacity="1"/></g></g></svg>