<svg xmlns="http://www.w3.org/2000/svg" xmlns:xlink="http://www.w3.org/1999/xlink" fill="none" version="1.1" width="24" height="24" viewBox="0 0 24 24"><defs><clipPath id="master_svg0_63_04571"><rect x="0" y="0" width="24" height="24" rx="0"/></clipPath><linearGradient x1="0" y1="0" x2="0.5694566120090047" y2="1.240357893596075" id="master_svg1_63_18356"><stop offset="0%" stop-color="#73AEFF" stop-opacity="1"/><stop offset="100.00015497207642%" stop-color="#2882FF" stop-opacity="1"/></linearGradient><linearGradient x1="0" y1="0" x2="1.1881202086968718" y2="0.7411018459576904" id="master_svg2_63_18356"><stop offset="0%" stop-color="#73AEFF" stop-opacity="1"/><stop offset="100.00015497207642%" stop-color="#2882FF" stop-opacity="1"/></linearGradient></defs><g clip-path="url(#master_svg0_63_04571)"><g><g><path d="M6.28977,5.009028L1.539766,19.009Q1.5,19.1262,1.5,19.25Q1.5,19.323900000000002,1.514411,19.3963Q1.528822,19.4688,1.55709,19.537Q1.585359,19.6053,1.626398,19.6667Q1.667437,19.728099999999998,1.71967,19.7803Q1.771903,19.8326,1.833322,19.8736Q1.894742,19.9146,1.962987,19.9429Q2.031233,19.9712,2.103682,19.985599999999998Q2.1761315,20,2.25,20Q2.3084161,20,2.366128,19.991Q2.423839,19.9819,2.479454,19.964Q2.53507,19.946199999999997,2.587247,19.9199Q2.639424,19.8936,2.686905,19.8596Q2.734385,19.8256,2.7760249999999997,19.784599999999998Q2.8176639999999997,19.7436,2.8524570000000002,19.6967Q2.88725,19.6498,2.914358,19.598Q2.941465,19.546300000000002,2.960234,19.491L2.960411,19.4905L7.25,6.84745L11.53948,19.490099999999998L11.53977,19.491Q11.55854,19.546300000000002,11.58564,19.598Q11.61275,19.6498,11.64754,19.6967Q11.68234,19.7436,11.72398,19.784599999999998Q11.76561,19.8256,11.8131,19.8596Q11.86058,19.8936,11.91276,19.9199Q11.96493,19.946199999999997,12.02055,19.964Q12.07616,19.9819,12.13387,19.991Q12.19158,20,12.25,20Q12.3239,20,12.3963,19.985599999999998Q12.4688,19.9712,12.537,19.9429Q12.6053,19.9146,12.6667,19.8736Q12.7281,19.8326,12.7803,19.7803Q12.8326,19.728099999999998,12.8736,19.6667Q12.9146,19.6053,12.9429,19.537Q12.9712,19.4688,12.9856,19.3963Q13,19.323900000000002,13,19.25Q13,19.1262,12.9602,19.009L8.21023,5.009028Q8.191469999999999,4.953709,8.16436,4.901963Q8.13725,4.850218,8.10246,4.803294Q8.06766,4.75637,8.026019999999999,4.715399Q7.98439,4.674428,7.93691,4.640398Q7.88942,4.606368,7.83725,4.580101Q7.78507,4.553833,7.72945,4.535962Q7.67384,4.51809,7.61613,4.509045Q7.55842,4.5,7.5,4.5L7,4.5Q6.94158,4.5,6.88387,4.509045Q6.82616,4.51809,6.77055,4.535962Q6.71493,4.553833,6.66275,4.580101Q6.61058,4.606368,6.5631,4.640398Q6.51562,4.674428,6.47398,4.715399Q6.43234,4.75637,6.39754,4.803294Q6.36275,4.850218,6.33564,4.901963Q6.30853,4.953709,6.28977,5.009028Z" fill-rule="evenodd" fill="#2882FF" fill-opacity="1" style="mix-blend-mode:passthrough"/></g><g><line x1="3.946044921875" y1="14.25" x2="10.554044723510742" y2="14.25" fill-opacity="0" stroke-opacity="1" stroke="#2882FF" fill="none" stroke-width="1.5" stroke-linecap="ROUND" stroke-linejoin="round" style="mix-blend-mode:passthrough"/></g></g><g><g><path d="M20.674265625,12.81153L20.674265625,19.062530000000002Q20.674265625,19.136400000000002,20.688675625000002,19.208849999999998Q20.703085625,19.2813,20.731355625,19.349539999999998Q20.759625624999998,19.41779,20.800665625,19.479210000000002Q20.841705625,19.54063,20.893935625,19.59286Q20.946165625,19.64509,21.007585625,19.68613Q21.069005625,19.72717,21.137255625,19.75544Q21.205495625,19.78371,21.277945625,19.79812Q21.350395625,19.812530000000002,21.424265625,19.812530000000002Q21.498135625,19.812530000000002,21.570585625,19.79812Q21.643035625,19.78371,21.711275625,19.75544Q21.779525624999998,19.72717,21.840945625,19.68613Q21.902365625,19.64509,21.954595625,19.59286Q22.006825625,19.54063,22.047865625,19.479210000000002Q22.088905625,19.41779,22.117175625,19.349539999999998Q22.145445625,19.2813,22.159855625,19.208849999999998Q22.174265625,19.136400000000002,22.174265625,19.062530000000002L22.174265625,12.81153Q22.174265625,11.37023,21.221405625,10.412641Q20.271965625,9.458476,18.688265625,9.327097Q17.454585625,9.224516,16.335325625,9.804497Q15.225485825,10.379599,14.559656625,11.45462Q14.447265625,11.63608,14.447265625,11.84953Q14.447265625,11.9234,14.461676624999999,11.99585Q14.476087625,12.0683,14.504355625,12.13654Q14.532624625,12.20479,14.573663625,12.266210000000001Q14.614702625,12.32763,14.666935625,12.37986Q14.719168625,12.43209,14.780587625,12.47313Q14.842007625,12.51417,14.910252625,12.54244Q14.978498625,12.57071,15.050947625,12.58512Q15.123397125,12.59953,15.197265625,12.59953Q15.293055625,12.59953,15.385770625,12.57545Q15.478485625,12.55138,15.562173625,12.50477Q15.645860625,12.458169999999999,15.715147625,12.39202Q15.784435625,12.32588,15.834873625,12.24444L15.835618625,12.24324Q16.283505625,11.52078,17.025455625,11.13631Q17.760985625,10.75517,18.564255625,10.821962Q19.597955625,10.907714,20.158125625,11.47067Q20.674265625,11.98938,20.674265625,12.81153Z" fill-rule="evenodd" fill="url(#master_svg1_63_18356)" fill-opacity="1" style="mix-blend-mode:passthrough"/></g><g><path d="M17.128427734375002,15.36574375Q18.403377734375,14.98206775,21.387007734375,15.13062575Q21.405637734375,15.13155375,21.424297734375,15.13155375Q21.498167734375002,15.13155375,21.570617734375,15.11714275Q21.643067734375002,15.10273175,21.711317734375,15.07446275Q21.779557734375,15.04619475,21.840977734375,15.00515575Q21.902397734375,14.96411675,21.954627734375002,14.91188375Q22.006867734375,14.85965075,22.047907734375002,14.79823175Q22.088937734375,14.73681175,22.117207734375,14.66856575Q22.145477734375,14.60032075,22.159887734375,14.52787175Q22.174297734375,14.45542175,22.174297734375,14.38155365Q22.174297734375,14.31003905,22.160787734375,14.23981275Q22.147267734375,14.16958675,22.120727734375002,14.10318075Q22.094187734374998,14.03677475,22.055567734375,13.97658175Q22.016957734374998,13.91638875,21.967657734375,13.86457775Q21.918357734375,13.81276775,21.860167734375,13.77120675Q21.801967734375,13.72964575,21.736957734375,13.69983275Q21.671957734375,13.67001975,21.602487734375,13.65302875Q21.533027734375,13.63603775,21.461597734375,13.63248175Q18.219227734375,13.47103975,16.696177734375,13.92936775Q15.420915734375,14.31313095,14.776849734375,15.37462375Q14.177945734375,16.36169375,14.367888734375,17.48012375Q14.567287734375,18.65725375,15.522326734375,19.36913375Q16.395467734375,20.01996375,17.497277734375,19.99942375Q18.928857734375,19.97205375,20.142187734375,19.15437375Q21.457387734375,18.26805375,22.115717734375,16.69515375L22.116197734375,16.69399375Q22.174297734375,16.55510375,22.174297734375,16.404553749999998Q22.174297734375,16.33068375,22.159887734375,16.25823375Q22.145477734375,16.18578375,22.117207734375,16.11754375Q22.088937734375,16.04929375,22.047907734375002,15.98787375Q22.006867734375,15.92645375,21.954627734375002,15.87422375Q21.902397734375,15.82199375,21.840977734375,15.78095375Q21.779557734375,15.73991375,21.711317734375,15.71164375Q21.643067734375002,15.68337375,21.570617734375,15.66896375Q21.498167734375002,15.65455375,21.424297734375,15.65455375Q21.313387734375,15.65455375,21.207217734375,15.68665375Q21.101047734375,15.71876375,21.008717734375,15.78022375Q20.916387734375,15.84168375,20.845797734375,15.92723375Q20.775207734375,16.01279375,20.732397734375,16.11511375Q20.247317734375,17.27470375,19.303907734375,17.91048375Q18.457637734374998,18.48079375,17.469327734375,18.49968375Q16.880527734375,18.51066375,16.418777734375,18.16647375Q15.945800734375,17.81392375,15.846714734375,17.22898375Q15.750386734375,16.661773750000002,16.059252734375,16.15273375Q16.404597734375,15.58356375,17.128427734375002,15.36574375Z" fill-rule="evenodd" fill="url(#master_svg2_63_18356)" fill-opacity="1" style="mix-blend-mode:passthrough"/></g></g></g></svg>