<svg xmlns="http://www.w3.org/2000/svg" xmlns:xlink="http://www.w3.org/1999/xlink" fill="none" version="1.1" width="24" height="24" viewBox="0 0 24 24"><defs><clipPath id="master_svg0_63_04294"><rect x="0" y="0" width="24" height="24" rx="0"/></clipPath></defs><g clip-path="url(#master_svg0_63_04294)"><g><rect x="3.5048828125" y="3.5" width="17" height="17" rx="1.7894736528396606" fill-opacity="0" stroke-opacity="1" stroke="#231F2E" fill="none" stroke-width="1.3421052694320679"/></g><g><path d="M8,7.25L16,7.25Q16.07387,7.25,16.14632,7.264411Q16.21877,7.278822,16.287010000000002,7.30709Q16.35526,7.335359,16.41668,7.376398Q16.478099999999998,7.417437,16.53033,7.46967Q16.58256,7.521903,16.6236,7.583322Q16.66464,7.644742,16.692909999999998,7.712987Q16.72118,7.781233,16.735590000000002,7.853682Q16.75,7.9261315,16.75,8Q16.75,8.0738685,16.735590000000002,8.146318Q16.72118,8.218767,16.692909999999998,8.287013Q16.66464,8.355258,16.6236,8.416678Q16.58256,8.478097,16.53033,8.53033Q16.478099999999998,8.582563,16.41668,8.623602Q16.35526,8.664641,16.287010000000002,8.69291Q16.21877,8.721178,16.14632,8.735589000000001Q16.07387,8.75,16,8.75L8,8.75Q7.9261315,8.75,7.853682,8.735589000000001Q7.781233,8.721178,7.712987,8.69291Q7.644742,8.664641,7.583322,8.623602Q7.521903,8.582563,7.46967,8.53033Q7.417437,8.478097,7.376398,8.416678Q7.335359,8.355258,7.30709,8.287013Q7.278822,8.218767,7.264411,8.146318Q7.25,8.0738685,7.25,8Q7.25,7.9261315,7.264411,7.853682Q7.278822,7.781233,7.30709,7.712987Q7.335359,7.644742,7.376398,7.583322Q7.417437,7.521903,7.46967,7.46967Q7.521903,7.417437,7.583322,7.376398Q7.644742,7.335359,7.712987,7.30709Q7.781233,7.278822,7.853682,7.264411Q7.9261315,7.25,8,7.25Z" fill-rule="evenodd" fill="#2882FF" fill-opacity="1"/></g><g><path d="M11.25,8Q11.25,7.9261315,11.264410999999999,7.853682Q11.278822,7.781233,11.30709,7.712987Q11.335359,7.644742,11.376398,7.583322Q11.417437,7.521903,11.46967,7.46967Q11.521903,7.417437,11.583322,7.376398Q11.644742,7.335359,11.712987,7.30709Q11.781233,7.278822,11.853682,7.264411Q11.9261315,7.25,12,7.25Q12.0738685,7.25,12.146318,7.264411Q12.218767,7.278822,12.287013,7.30709Q12.355258,7.335359,12.416678,7.376398Q12.478097,7.417437,12.53033,7.46967Q12.582563,7.521903,12.623602,7.583322Q12.664641,7.644742,12.69291,7.712987Q12.721178,7.781233,12.735589000000001,7.853682Q12.75,7.9261315,12.75,8L12.75,17Q12.75,17.07387,12.735589000000001,17.14632Q12.721178,17.21877,12.69291,17.287010000000002Q12.664641,17.35526,12.623602,17.41668Q12.582563,17.478099999999998,12.53033,17.53033Q12.478097,17.58256,12.416678,17.6236Q12.355258,17.66464,12.287013,17.692909999999998Q12.218767,17.72118,12.146318,17.735590000000002Q12.0738685,17.75,12,17.75Q11.9261315,17.75,11.853682,17.735590000000002Q11.781233,17.72118,11.712987,17.692909999999998Q11.644742,17.66464,11.583322,17.6236Q11.521903,17.58256,11.46967,17.53033Q11.417437,17.478099999999998,11.376398,17.41668Q11.335359,17.35526,11.30709,17.287010000000002Q11.278822,17.21877,11.264410999999999,17.14632Q11.25,17.07387,11.25,17L11.25,8Z" fill-rule="evenodd" fill="#2882FF" fill-opacity="1"/></g><g><g><path d="M17.79299,19.127439389648437Q17.91487,19.005559389648436,18.01063,18.862247389648438Q18.10638,18.718935389648436,18.17234,18.559695389648436Q18.2383,18.40045538964844,18.27193,18.23140738964844Q18.30556,18.06235938964844,18.30556,17.889999389648438Q18.30556,17.804027389648436,18.29713,17.718469389648437Q18.2887,17.632911389648438,18.27193,17.548591389648436Q18.25516,17.464271389648438,18.2302,17.382001389648437Q18.20524,17.299731389648436,18.17234,17.22030338964844Q18.13944,17.14087538964844,18.09892,17.06505538964844Q18.05839,16.989234389648438,18.01063,16.917751389648437Q17.96286,16.846269389648437,17.90832,16.779809389648438Q17.85378,16.71334938964844,17.79299,16.652559389648438Q17.7322,16.591769389648437,17.66574,16.537229389648438Q17.59929,16.48268938964844,17.5278,16.43492938964844Q17.456319999999998,16.38715938964844,17.3805,16.346639389648438Q17.30468,16.306109389648437,17.22525,16.273209389648436Q17.14582,16.240309389648438,17.06355,16.215349389648438Q16.981279999999998,16.190399389648437,16.89696,16.173629389648436Q16.812640000000002,16.15684938964844,16.72709,16.148429389648438Q16.64153,16.139999389648438,16.55556,16.139999389648438Q16.3832,16.139999389648438,16.21415,16.173629389648436Q16.0451,16.20724938964844,15.885859,16.273209389648436Q15.72662,16.339169389648436,15.583308,16.43492938964844Q15.439995,16.530689389648437,15.318119,16.652559389648438L13.76256,18.208118389648437Q13.70177,18.26890938964844,13.64723,18.33536638964844Q13.59269,18.401823389648438,13.54493,18.47330638964844Q13.497160000000001,18.544790389648437,13.45664,18.620610389648437Q13.41611,18.69643138964844,13.38321,18.775858389648437Q13.35031,18.855286389648438,13.32535,18.937559389648438Q13.3004,19.019829389648436,13.28363,19.104149389648438Q13.26685,19.18846938964844,13.25843,19.274029389648437Q13.25,19.359579389648438,13.25,19.445559389648437Q13.25,19.531529389648437,13.25843,19.617089389648438Q13.26685,19.70263938964844,13.28363,19.786959389648437Q13.3004,19.871279389648436,13.32535,19.953549389648437Q13.35031,20.035819389648438,13.38321,20.115249389648437Q13.41611,20.19467938964844,13.45664,20.27049938964844Q13.497160000000001,20.346319389648436,13.54493,20.417799389648437Q13.59269,20.489289389648437,13.64723,20.555739389648437Q13.70177,20.622199389648436,13.76256,20.682989389648437L15.318119,22.238549389648437Q15.439995,22.36041938964844,15.583308,22.456179389648437Q15.72662,22.55193938964844,15.885859,22.617899389648436Q16.0451,22.683859389648436,16.21415,22.71747938964844Q16.3832,22.751109389648438,16.55556,22.751109389648438Q16.64153,22.751109389648438,16.72709,22.742679389648437Q16.812640000000002,22.734259389648436,16.89696,22.71747938964844Q16.981279999999998,22.700709389648438,17.06355,22.675759389648437Q17.14582,22.650799389648437,17.22525,22.617899389648436Q17.30468,22.584999389648438,17.3805,22.544469389648437Q17.456319999999998,22.503949389648437,17.5278,22.456179389648437Q17.59929,22.408419389648436,17.66574,22.353879389648437Q17.7322,22.299339389648438,17.79299,22.238549389648437Q17.85378,22.177759389648436,17.90832,22.111299389648437Q17.96286,22.044839389648438,18.01063,21.973359389648436Q18.05839,21.901879389648435,18.09892,21.82605938964844Q18.13944,21.75022938964844,18.17234,21.670809389648436Q18.20524,21.591379389648438,18.2302,21.509109389648437Q18.25516,21.42683938964844,18.27193,21.342519389648437Q18.2887,21.25819938964844,18.29713,21.172639389648438Q18.30556,21.087079389648437,18.30556,21.001109389648438Q18.30556,20.828749389648436,18.27193,20.659699389648438Q18.2383,20.49064938964844,18.17234,20.33140938964844Q18.10638,20.172169389648438,18.01063,20.02885938964844Q17.91487,19.88554938964844,17.79299,19.763669389648438L17.47487,19.445559389648437L17.79299,19.127439389648437L17.79299,19.127439389648437Z" fill-rule="evenodd" fill="#FFFFFF" fill-opacity="1" style="mix-blend-mode:passthrough"/></g><g><path d="M19.2068959375,19.127439389648437Q19.0850259375,19.005559389648436,18.9892659375,18.862247389648438Q18.8935059375,18.718935389648436,18.8275459375,18.559695389648436Q18.7615859375,18.40045538964844,18.7279659375,18.23140738964844Q18.6943359375,18.06235938964844,18.6943359375,17.889999389648438Q18.6943359375,17.804027389648436,18.7027659375,17.718469389648437Q18.7111859375,17.632911389648438,18.7279659375,17.548591389648436Q18.7447359375,17.464271389648438,18.7696859375,17.382001389648437Q18.7946459375,17.299731389648436,18.8275459375,17.22030338964844Q18.8604459375,17.14087538964844,18.9009759375,17.06505538964844Q18.9414959375,16.989234389648438,18.9892659375,16.917751389648437Q19.0370259375,16.846269389648437,19.0915659375,16.779809389648438Q19.1461059375,16.71334938964844,19.2068959375,16.652559389648438Q19.2676859375,16.591769389648437,19.3341459375,16.537229389648438Q19.4006059375,16.48268938964844,19.4720879375,16.43492938964844Q19.5435709375,16.38715938964844,19.6193919375,16.346639389648438Q19.6952119375,16.306109389648437,19.7746399375,16.273209389648436Q19.854067937499998,16.240309389648438,19.9363379375,16.215349389648438Q20.0186079375,16.190399389648437,20.1029279375,16.173629389648436Q20.1872479375,16.15684938964844,20.2728059375,16.148429389648438Q20.3583639375,16.139999389648438,20.4443359375,16.139999389648438Q20.6166959375,16.139999389648438,20.7857439375,16.173629389648436Q20.9547919375,16.20724938964844,21.1140319375,16.273209389648436Q21.2732719375,16.339169389648436,21.4165839375,16.43492938964844Q21.5598959375,16.530689389648437,21.6817759375,16.652559389648438L23.2373259375,18.208118389648437Q23.2981159375,18.26890938964844,23.3526559375,18.33536638964844Q23.4071959375,18.40182438964844,23.4549659375,18.473307389648436Q23.5027259375,18.544790389648437,23.5432559375,18.620610389648437Q23.5837759375,18.69643138964844,23.6166759375,18.775858389648437Q23.6495759375,18.855286389648438,23.6745359375,18.937559389648438Q23.6994959375,19.019829389648436,23.7162659375,19.104149389648438Q23.7330359375,19.18846938964844,23.7414659375,19.274029389648437Q23.7498959375,19.359579389648438,23.7498959375,19.445559389648437Q23.7498959375,19.531529389648437,23.7414659375,19.617089389648438Q23.7330359375,19.70263938964844,23.7162659375,19.786959389648437Q23.6994959375,19.871279389648436,23.6745359375,19.953549389648437Q23.6495759375,20.035819389648438,23.6166759375,20.115249389648437Q23.5837759375,20.19467938964844,23.5432559375,20.27049938964844Q23.5027259375,20.346319389648436,23.4549659375,20.417799389648437Q23.4071959375,20.489289389648437,23.3526559375,20.555739389648437Q23.2981159375,20.622199389648436,23.2373259375,20.682989389648437L21.6820559375,22.238259389648437L21.6817759375,22.238549389648437Q21.5598959375,22.36041938964844,21.4165839375,22.456179389648437Q21.2732719375,22.55193938964844,21.1140319375,22.617899389648436Q20.9547919375,22.683859389648436,20.7857439375,22.71747938964844Q20.6166959375,22.751109389648438,20.4443359375,22.751109389648438Q20.3583639375,22.751109389648438,20.2728059375,22.742679389648437Q20.1872479375,22.734259389648436,20.1029279375,22.71747938964844Q20.0186079375,22.700709389648438,19.9363379375,22.675759389648437Q19.854067937499998,22.650799389648437,19.7746399375,22.617899389648436Q19.6952119375,22.584999389648438,19.6193919375,22.544469389648437Q19.5435709375,22.503949389648437,19.4720879375,22.456179389648437Q19.4006059375,22.408419389648436,19.3341459375,22.353879389648437Q19.2676859375,22.299339389648438,19.2068959375,22.238549389648437Q19.1461059375,22.177759389648436,19.0915659375,22.111299389648437Q19.0370259375,22.044839389648438,18.9892659375,21.973359389648436Q18.9414959375,21.901879389648435,18.9009759375,21.82605938964844Q18.8604459375,21.75022938964844,18.8275459375,21.670809389648436Q18.7946459375,21.591379389648438,18.7696859375,21.509109389648437Q18.7447359375,21.42683938964844,18.7279659375,21.342519389648437Q18.7111859375,21.25819938964844,18.7027659375,21.172639389648438Q18.6943359375,21.087079389648437,18.6943359375,21.001109389648438Q18.6943359375,20.828749389648436,18.7279659375,20.659699389648438Q18.7615859375,20.49064938964844,18.8275459375,20.33141938964844Q18.8935059375,20.172179389648438,18.9892659375,20.02885938964844Q19.0850259375,19.88554938964844,19.2068959375,19.763669389648438L19.2071859375,19.763389389648438L19.5250179375,19.445559389648437L19.2068959375,19.127439389648437Z" fill-rule="evenodd" fill="#FFFFFF" fill-opacity="1" style="mix-blend-mode:passthrough"/></g><g><path d="M15,17.695541381835938L22,17.695541381835938Q22.08597,17.695541381835938,22.17153,17.703971381835938Q22.257089999999998,17.71239138183594,22.34141,17.729171381835936Q22.42573,17.745941381835937,22.508,17.770891381835938Q22.59027,17.795851381835938,22.66969,17.828751381835936Q22.749119999999998,17.861651381835937,22.824939999999998,17.902181381835938Q22.90076,17.94270138183594,22.97225,17.99047138183594Q23.04373,18.03823138183594,23.11019,18.092771381835938Q23.17664,18.147311381835937,23.23744,18.208101381835938Q23.29823,18.26889138183594,23.35277,18.335351381835938Q23.407310000000003,18.401811381835937,23.45507,18.473293381835937Q23.50283,18.544776381835938,23.54336,18.62059738183594Q23.58389,18.69641738183594,23.61679,18.77584538183594Q23.64969,18.855273381835936,23.67465,18.937543381835937Q23.6996,19.019813381835938,23.716369999999998,19.104133381835936Q23.733150000000002,19.188453381835938,23.74157,19.274011381835937Q23.75,19.359569381835936,23.75,19.445541381835938Q23.75,19.53151338183594,23.74157,19.617071381835938Q23.733150000000002,19.702629381835937,23.716369999999998,19.78694938183594Q23.6996,19.871269381835937,23.67465,19.953539381835938Q23.64969,20.03580938183594,23.61679,20.115237381835936Q23.58389,20.194665381835936,23.54336,20.270485381835936Q23.50284,20.346306381835937,23.45507,20.417789381835938Q23.407310000000003,20.489271381835938,23.35277,20.555731381835937Q23.29823,20.622191381835936,23.23744,20.682981381835937Q23.17664,20.743771381835938,23.11019,20.798311381835937Q23.04373,20.852851381835936,22.97225,20.900611381835937Q22.90076,20.948381381835937,22.824939999999998,20.988901381835937Q22.749119999999998,21.029431381835938,22.66969,21.06233138183594Q22.59027,21.095231381835937,22.508,21.120191381835937Q22.42573,21.145141381835938,22.34141,21.16191138183594Q22.257089999999998,21.178691381835936,22.17153,21.187111381835937Q22.08597,21.195541381835938,22,21.195541381835938L15,21.195541381835938Q14.914028,21.195541381835938,14.82847,21.187111381835937Q14.742912,21.178691381835936,14.658592,21.16191138183594Q14.574272,21.145141381835938,14.492002,21.120191381835937Q14.409732,21.095231381835937,14.330304,21.06233138183594Q14.250876,21.029431381835938,14.175056,20.988901381835937Q14.099235,20.948381381835937,14.027752,20.900611381835937Q13.95627,20.852851381835936,13.88981,20.798311381835937Q13.82335,20.743771381835938,13.76256,20.682981381835937Q13.70177,20.622191381835936,13.64723,20.555731381835937Q13.59269,20.489271381835938,13.54493,20.417789381835938Q13.497160000000001,20.346306381835937,13.45664,20.270485381835936Q13.41611,20.194665381835936,13.38321,20.115237381835936Q13.35031,20.03580938183594,13.32535,19.953539381835938Q13.3004,19.871269381835937,13.28363,19.78694938183594Q13.26685,19.702629381835937,13.25843,19.617071381835938Q13.25,19.53151338183594,13.25,19.445541381835938Q13.25,19.359569381835936,13.25843,19.274011381835937Q13.26685,19.188453381835938,13.28363,19.104133381835936Q13.3004,19.019813381835938,13.32535,18.937543381835937Q13.35031,18.855273381835936,13.38321,18.77584538183594Q13.41611,18.69641738183594,13.45664,18.62059738183594Q13.497160000000001,18.544776381835938,13.54493,18.473293381835937Q13.59269,18.401811381835937,13.64723,18.335351381835938Q13.70177,18.26889138183594,13.76256,18.208101381835938Q13.82335,18.147311381835937,13.88981,18.092771381835938Q13.95627,18.03823138183594,14.027752,17.99047138183594Q14.099235,17.94270138183594,14.175056,17.902181381835938Q14.250876,17.861651381835937,14.330304,17.828751381835936Q14.409732,17.795851381835938,14.492002,17.770891381835938Q14.574272,17.745941381835937,14.658592,17.729171381835936Q14.742912,17.71239138183594,14.82847,17.703971381835938Q14.914028,17.695541381835938,15,17.695541381835938Z" fill-rule="evenodd" fill="#FFFFFF" fill-opacity="1" style="mix-blend-mode:passthrough"/></g></g><g><g><path d="M17.08589,18.420329389648437Q17.19137,18.314840389648438,17.24847,18.17701238964844Q17.30556,18.03918338964844,17.30556,17.889999389648438Q17.30556,17.816130889648438,17.29114,17.743681389648437Q17.27673,17.671232389648438,17.24846,17.602986389648436Q17.2202,17.53474138964844,17.17916,17.473321389648437Q17.13812,17.41190238964844,17.08589,17.359669389648438Q17.03365,17.307436389648437,16.97223,17.26639738964844Q16.91081,17.225358389648438,16.84257,17.197089389648436Q16.77432,17.16882138964844,16.70187,17.154410389648437Q16.62942,17.139999389648438,16.55556,17.139999389648438Q16.40637,17.139999389648438,16.26854,17.197089389648436Q16.13071,17.254180389648436,16.02523,17.359669389648438L14.46967,18.915229389648438Q14.417437,18.967459389648436,14.376398,19.028879389648438Q14.335359,19.090299389648436,14.30709,19.15853938964844Q14.278822,19.226789389648438,14.264410999999999,19.299239389648438Q14.25,19.371689389648438,14.25,19.445559389648437Q14.25,19.519419389648437,14.264410999999999,19.591869389648437Q14.278822,19.664319389648437,14.30709,19.732569389648436Q14.335359,19.80080938964844,14.376398,19.862229389648437Q14.417437,19.92364938964844,14.46967,19.975889389648437L16.02523,21.531439389648437Q16.13071,21.636929389648436,16.26854,21.69401938964844Q16.40637,21.751109389648438,16.55556,21.751109389648438Q16.62942,21.751109389648438,16.70187,21.736699389648436Q16.77432,21.722289389648438,16.84257,21.69401938964844Q16.91081,21.665749389648436,16.97223,21.624709389648437Q17.03365,21.58366938964844,17.08589,21.531439389648437Q17.13812,21.47920938964844,17.17916,21.417789389648437Q17.2202,21.35636938964844,17.24846,21.288119389648436Q17.27673,21.219879389648437,17.29114,21.147429389648437Q17.30556,21.074979389648437,17.30556,21.001109389648438Q17.30556,20.851929389648436,17.24847,20.71409938964844Q17.19137,20.576269389648438,17.08589,20.47077938964844L16.06066,19.445559389648437L17.08589,18.420329389648437Z" fill-rule="evenodd" fill="#2882FF" fill-opacity="1" style="mix-blend-mode:passthrough"/></g><g><path d="M19.9140059375,18.420329389648437Q19.8085169375,18.314840389648438,19.7514259375,18.17701238964844Q19.6943359375,18.03918338964844,19.6943359375,17.889999389648438Q19.6943359375,17.816130889648438,19.7087469375,17.743681389648437Q19.7231579375,17.671232389648438,19.7514259375,17.602986389648436Q19.7796949375,17.53474138964844,19.820733937500002,17.473321389648437Q19.8617729375,17.41190238964844,19.9140059375,17.359669389648438Q19.966238937500002,17.307436389648437,20.0276579375,17.26639738964844Q20.0890779375,17.225358389648438,20.1573229375,17.197089389648436Q20.2255689375,17.16882138964844,20.2980179375,17.154410389648437Q20.3704674375,17.139999389648438,20.4443359375,17.139999389648438Q20.5935199375,17.139999389648438,20.7313489375,17.197089389648436Q20.8691769375,17.254180389648436,20.9746659375,17.359669389648438L22.5302259375,18.915229389648438Q22.5824559375,18.967459389648436,22.6234959375,19.028879389648438Q22.6645359375,19.090299389648436,22.6928059375,19.15853938964844Q22.7210659375,19.226789389648438,22.7354759375,19.299239389648438Q22.7498959375,19.371689389648438,22.7498959375,19.445559389648437Q22.7498959375,19.519419389648437,22.7354759375,19.591869389648437Q22.7210659375,19.664319389648437,22.6928059375,19.732569389648436Q22.6645359375,19.80080938964844,22.6234959375,19.862229389648437Q22.5824559375,19.92364938964844,22.5302259375,19.975889389648437L20.9749009375,21.53120938964844L20.9746659375,21.531439389648437Q20.8691769375,21.636929389648436,20.7313489375,21.69401938964844Q20.5935199375,21.751109389648438,20.4443359375,21.751109389648438Q20.3704674375,21.751109389648438,20.2980179375,21.736699389648436Q20.2255689375,21.722289389648438,20.1573229375,21.69401938964844Q20.0890779375,21.665749389648436,20.0276579375,21.624709389648437Q19.966238937500002,21.58366938964844,19.9140059375,21.531439389648437Q19.8617729375,21.47920938964844,19.820733937500002,21.417789389648437Q19.7796949375,21.35636938964844,19.7514259375,21.288119389648436Q19.7231579375,21.219879389648437,19.7087469375,21.147429389648437Q19.6943359375,21.074979389648437,19.6943359375,21.001109389648438Q19.6943359375,20.851929389648436,19.7514259375,20.71409938964844Q19.8085169375,20.576269389648438,19.9140059375,20.47077938964844L20.9392309375,19.445559389648437L19.9140059375,18.420329389648437L19.9140059375,18.420329389648437Z" fill-rule="evenodd" fill="#2882FF" fill-opacity="1" style="mix-blend-mode:passthrough"/></g><g><path d="M15,18.695541381835938L22,18.695541381835938Q22.07387,18.695541381835938,22.14632,18.709952381835937Q22.21877,18.72436338183594,22.287010000000002,18.752631381835936Q22.35526,18.780900381835938,22.41668,18.82193938183594Q22.4781,18.862978381835937,22.53033,18.915211381835938Q22.58256,18.96744438183594,22.6236,19.028863381835937Q22.66464,19.09028338183594,22.69291,19.158528381835936Q22.72118,19.226774381835938,22.735590000000002,19.299223381835937Q22.75,19.371672881835938,22.75,19.445541381835938Q22.75,19.519409881835937,22.735590000000002,19.59185938183594Q22.72118,19.664308381835937,22.69291,19.73255438183594Q22.66464,19.800799381835937,22.6236,19.86221938183594Q22.58256,19.923638381835936,22.53033,19.975871381835937Q22.4781,20.028104381835938,22.41668,20.069143381835936Q22.35526,20.110182381835937,22.287010000000002,20.13845138183594Q22.21877,20.166719381835936,22.14632,20.18113038183594Q22.07387,20.195541381835938,22,20.195541381835938L15,20.195541381835938Q14.9261315,20.195541381835938,14.853682,20.18113038183594Q14.781233,20.166719381835936,14.712987,20.13845138183594Q14.644742,20.110182381835937,14.583322,20.069143381835936Q14.521903,20.028104381835938,14.46967,19.975871381835937Q14.417437,19.923638381835936,14.376398,19.86221938183594Q14.335359,19.800799381835937,14.30709,19.73255438183594Q14.278822,19.664308381835937,14.264410999999999,19.59185938183594Q14.25,19.519409881835937,14.25,19.445541381835938Q14.25,19.371672881835938,14.264410999999999,19.299223381835937Q14.278822,19.226774381835938,14.30709,19.158528381835936Q14.335359,19.09028338183594,14.376398,19.028863381835937Q14.417437,18.96744438183594,14.46967,18.915211381835938Q14.521903,18.862978381835937,14.583322,18.82193938183594Q14.644742,18.780900381835938,14.712987,18.752631381835936Q14.781233,18.72436338183594,14.853682,18.709952381835937Q14.9261315,18.695541381835938,15,18.695541381835938Z" fill-rule="evenodd" fill="#2882FF" fill-opacity="1" style="mix-blend-mode:passthrough"/></g></g></g></svg>