<svg xmlns="http://www.w3.org/2000/svg" xmlns:xlink="http://www.w3.org/1999/xlink" fill="none" version="1.1" width="24" height="24" viewBox="0 0 24 24"><defs><clipPath id="master_svg0_63_19894"><rect x="0" y="0" width="24" height="24" rx="0"/></clipPath></defs><g clip-path="url(#master_svg0_63_19894)"><g><path d="M3,18.85L21,18.85Q21.0985,18.85,21.1951,18.8308Q21.2917,18.8116,21.3827,18.773899999999998Q21.4737,18.7362,21.5556,18.6815Q21.6375,18.6267,21.7071,18.5571Q21.7767,18.4875,21.8315,18.4056Q21.8862,18.323700000000002,21.9239,18.2327Q21.9616,18.1417,21.9808,18.045099999999998Q22,17.9485,22,17.85Q22,14.5993,20.607,13.5167Q19.6849,12.8,17.21,12.8Q15.8937,12.8,15.6155,12.43848Q15.4403,12.21072,15.6225,11.46667Q15.7504,10.94474,16.232,9.74798Q17,7.83984,17,7Q17,4.92893,15.5355,3.464466Q14.0711,2,12,2Q9.928930000000001,2,8.46447,3.464466Q7,4.92893,7,7Q7,7.83984,7.76796,9.74798Q8.54044,11.66735,8.45683,12.24063Q8.375250000000001,12.8,6.79,12.8Q4.31509,12.8,3.3929679999999998,13.5167Q2,14.5993,2,17.85Q2,17.9485,2.019214,18.045099999999998Q2.038429,18.1417,2.07612,18.2327Q2.113811,18.323700000000002,2.16853,18.4056Q2.223249,18.4875,2.292893,18.5571Q2.362537,18.6267,2.44443,18.6815Q2.526322,18.7362,2.617317,18.773899999999998Q2.708311,18.8116,2.80491,18.8308Q2.9015086,18.85,3,18.85ZM19.9633,16.85L4.03675,16.85Q4.15097,15.4606,4.62028,15.0958Q5.00091,14.8,6.79,14.8Q10.10471,14.8,10.43589,12.52927Q10.597439999999999,11.42161,9.62333,9.001249999999999Q9,7.45247,9,7Q9,5.75736,9.87868,4.87868Q10.75736,4,12,4Q13.2426,4,14.1213,4.87868Q15,5.75736,15,7Q15,7.45247,14.3767,9.001249999999999Q13.8417,10.33035,13.68,10.990829999999999Q13.269,12.6685,14.0304,13.6581Q14.909,14.8,17.21,14.8Q18.9991,14.8,19.3797,15.0958Q19.849,15.4606,19.9633,16.85Z" fill-rule="evenodd" fill="#231F2E" fill-opacity="1"/></g><g><path d="M5,20L19,20Q19.0985,20,19.1951,20.019215Q19.2917,20.038429999999998,19.3827,20.076121Q19.4737,20.113812,19.5556,20.16853Q19.6375,20.223249,19.7071,20.292893Q19.776699999999998,20.362537,19.8315,20.44443Q19.886200000000002,20.526322,19.9239,20.617317Q19.9616,20.708311,19.980800000000002,20.80491Q20,20.9015086,20,21Q20,21.0984914,19.980800000000002,21.19509Q19.9616,21.291689,19.9239,21.382683Q19.886200000000002,21.473678,19.8315,21.55557Q19.776699999999998,21.637463,19.7071,21.707107Q19.6375,21.776751,19.5556,21.83147Q19.4737,21.886188,19.3827,21.923879Q19.2917,21.961570000000002,19.1951,21.980785Q19.0985,22,19,22L5,22Q4.9015086,22,4.80491,21.980785Q4.708311,21.961570000000002,4.617317,21.923879Q4.526322,21.886188,4.44443,21.83147Q4.362537,21.776751,4.292893,21.707107Q4.223249,21.637463,4.16853,21.55557Q4.113812,21.473678,4.076121,21.382683Q4.03843,21.291689,4.019215,21.19509Q4,21.0984914,4,21Q4,20.9015086,4.019215,20.80491Q4.03843,20.708311,4.076121,20.617317Q4.113812,20.526322,4.16853,20.44443Q4.223249,20.362537,4.292893,20.292893Q4.362537,20.223249,4.44443,20.16853Q4.526322,20.113812,4.617317,20.076121Q4.708311,20.038429999999998,4.80491,20.019215Q4.9015086,20,5,20Z" fill-rule="evenodd" fill="#231F2E" fill-opacity="1"/></g><g><g><path d="M22,18Q22,18.19651,21.98074,18.39207Q21.96148,18.58763,21.92314,18.78036Q21.8848,18.97309,21.827759999999998,19.16114Q21.77072,19.34918,21.695520000000002,19.53073Q21.62032,19.71228,21.52768,19.88559Q21.43505,20.058889999999998,21.325879999999998,20.222279999999998Q21.2167,20.38567,21.09204,20.53757Q20.96738,20.68948,20.82843,20.82843Q20.68948,20.96738,20.53757,21.09204Q20.38567,21.2167,20.222279999999998,21.325879999999998Q20.058889999999998,21.43505,19.88559,21.52768Q19.71228,21.62032,19.53073,21.695520000000002Q19.34918,21.77072,19.16114,21.827759999999998Q18.97309,21.8848,18.78036,21.92314Q18.58763,21.96148,18.39207,21.98074Q18.19651,22,18,22Q17.80349,22,17.60793,21.98074Q17.41237,21.96148,17.21964,21.92314Q17.02691,21.8848,16.83886,21.827759999999998Q16.65082,21.77072,16.46927,21.695520000000002Q16.28772,21.62032,16.11441,21.52768Q15.94111,21.43505,15.77772,21.325879999999998Q15.61433,21.2167,15.46243,21.09204Q15.31052,20.96738,15.17157,20.82843Q15.03262,20.68948,14.907958,20.53757Q14.783295,20.38567,14.674121,20.222279999999998Q14.564948,20.058889999999998,14.472315,19.88559Q14.379682,19.71228,14.304482,19.53073Q14.229282,19.34918,14.172239,19.16114Q14.115196,18.97309,14.0768589,18.78036Q14.0385222,18.58763,14.0192611,18.39207Q14,18.19651,14,18Q14,17.80349,14.0192611,17.60793Q14.0385222,17.41237,14.0768589,17.21964Q14.115196,17.02691,14.172239,16.83886Q14.229282,16.65082,14.304482,16.46927Q14.379682,16.28772,14.472315,16.11441Q14.564948,15.94111,14.674121,15.77772Q14.783295,15.61433,14.907958,15.46243Q15.03262,15.31052,15.17157,15.17157Q15.31052,15.03262,15.46243,14.907958Q15.61433,14.783295,15.77772,14.674121Q15.94111,14.564948,16.11441,14.472315Q16.28772,14.379682,16.46927,14.304482Q16.65082,14.229282,16.83886,14.172239Q17.02691,14.115196,17.21964,14.0768589Q17.41237,14.0385222,17.60793,14.0192611Q17.80349,14,18,14Q18.19651,14,18.39207,14.0192611Q18.58763,14.0385222,18.78036,14.0768589Q18.97309,14.115196,19.16114,14.172239Q19.34918,14.229282,19.53073,14.304482Q19.71228,14.379682,19.88559,14.472315Q20.058889999999998,14.564948,20.222279999999998,14.674121Q20.38567,14.783295,20.53757,14.907958Q20.68948,15.03262,20.82843,15.17157Q20.96738,15.31052,21.09204,15.46243Q21.2167,15.61433,21.325879999999998,15.77772Q21.43505,15.94111,21.52768,16.11441Q21.62032,16.28772,21.695520000000002,16.46927Q21.77072,16.65082,21.827759999999998,16.83886Q21.8848,17.02691,21.92314,17.21964Q21.96148,17.41237,21.98074,17.60793Q22,17.80349,22,18Z" fill="#FFFFFF" fill-opacity="1"/><path d="M22.06586,13.934136Q20.38173,12.25,18,12.25Q15.61827,12.25,13.934136,13.934136Q12.25,15.61827,12.25,18Q12.25,20.38173,13.934136,22.06586Q15.61827,23.75,18,23.75Q20.38173,23.75,22.06586,22.06586Q23.75,20.38173,23.75,18Q23.75,15.61827,22.06586,13.934136ZM16.40901,16.40901Q17.06802,15.75,18,15.75Q18.93198,15.75,19.590989999999998,16.40901Q20.25,17.06802,20.25,18Q20.25,18.93198,19.590989999999998,19.590989999999998Q18.93198,20.25,18,20.25Q17.06802,20.25,16.40901,19.590989999999998Q15.75,18.93198,15.75,18Q15.75,17.06802,16.40901,16.40901Z" fill-rule="evenodd" fill="#FFFFFF" fill-opacity="1"/></g><g><path d="M19.75,16.49609375L19.75,17.27521975L20.23715,17.762373750000002L20.23744,17.76265375Q20.35931,17.88453375,20.45507,18.02784375Q20.55083,18.17115375,20.61679,18.33039375Q20.68275,18.48963375,20.71637,18.65868375Q20.75,18.82773375,20.75,19.00009375Q20.75,19.08606375,20.74157,19.171623750000002Q20.733150000000002,19.25718375,20.71637,19.34150375Q20.6996,19.42582375,20.67465,19.50809375Q20.64969,19.59036375,20.61679,19.66979375Q20.58389,19.74921375,20.54336,19.82503375Q20.50284,19.90085375,20.45507,19.97234375Q20.40731,20.04382375,20.35277,20.11028375Q20.29823,20.17673375,20.23744,20.23753375Q20.17665,20.29832375,20.11019,20.35286375Q20.04373,20.40740375,19.97225,20.45516375Q19.90076,20.50292375,19.82494,20.54345375Q19.74912,20.58398375,19.6697,20.61688375Q19.59027,20.64978375,19.508,20.67473375Q19.42573,20.69969375,19.34141,20.71646375Q19.25709,20.73324375,19.17153,20.74166375Q19.08597,20.750093749999998,19,20.750093749999998Q18.82764,20.750093749999998,18.658592,20.71646375Q18.489544,20.68284375,18.330304,20.61688375Q18.171064,20.55092375,18.027752,20.45516375Q17.88444,20.35940375,17.762563,20.23753375L17.76228,20.23724375L16.76256,19.23753375Q16.64069,19.11565375,16.54493,18.97234375Q16.44917,18.82903375,16.38321,18.66979375Q16.31725,18.51055375,16.28363,18.34150375Q16.25,18.17245375,16.25,18.00009375L16.25,16.49609375Q16.25,16.41012175,16.25843,16.32456375Q16.26685,16.23900575,16.28363,16.15468575Q16.3004,16.07036575,16.32535,15.98809575Q16.35031,15.90582575,16.38321,15.82639775Q16.41611,15.74696975,16.45664,15.67114975Q16.49716,15.59532875,16.54493,15.52384575Q16.59269,15.45236375,16.64723,15.38590375Q16.70177,15.31944375,16.76256,15.25865375Q16.82335,15.19786375,16.88981,15.14332375Q16.95627,15.08878375,17.027752,15.04102375Q17.099235,14.993253750000001,17.175056,14.95273375Q17.250876,14.91220375,17.330304,14.87930375Q17.409731999999998,14.84640375,17.492002,14.82144375Q17.574272,14.79649375,17.658592,14.77972375Q17.742912,14.76294375,17.82847,14.75452375Q17.914028,14.74609375,18,14.74609375Q18.085972,14.74609375,18.17153,14.75452375Q18.257088,14.76294375,18.341408,14.77972375Q18.425728,14.79649375,18.507998,14.82144375Q18.590268000000002,14.84640375,18.669696,14.87930375Q18.749124,14.91220375,18.824944,14.95273375Q18.900765,14.993253750000001,18.972248,15.04102375Q19.04373,15.08878375,19.11019,15.14332375Q19.17665,15.19786375,19.23744,15.25865375Q19.29823,15.31944375,19.35277,15.38590375Q19.40731,15.45236375,19.45507,15.52384575Q19.50284,15.59532875,19.54336,15.67114975Q19.58389,15.74696975,19.61679,15.82639775Q19.64969,15.90582575,19.67465,15.98809575Q19.6996,16.07036575,19.71637,16.15468575Q19.73315,16.23900575,19.74157,16.32456375Q19.75,16.41012175,19.75,16.49609375Z" fill-rule="evenodd" fill="#FFFFFF" fill-opacity="1"/></g></g><g><g><path d="M21.35876,14.641243Q19.96751,13.25,18,13.25Q16.03249,13.25,14.641243,14.641243Q13.25,16.03249,13.25,18Q13.25,19.96751,14.641243,21.35876Q16.03249,22.75,18,22.75Q19.96751,22.75,21.35876,21.35876Q22.75,19.96752,22.75,18Q22.75,16.03249,21.35876,14.641243ZM15.7019,15.7019Q16.65381,14.75,18,14.75Q19.34619,14.75,20.298099999999998,15.7019Q21.25,16.65381,21.25,18Q21.25,19.34619,20.298099999999998,20.298099999999998Q19.34619,21.25,18,21.25Q16.65381,21.25,15.7019,20.298099999999998Q14.75,19.34619,14.75,18Q14.75,16.65381,15.7019,15.7019Z" fill-rule="evenodd" fill="#2882FF" fill-opacity="1"/></g><g><path d="M17.25,16.49609375Q17.25,16.42222525,17.264411,16.34977575Q17.278822,16.27732675,17.30709,16.20908075Q17.335359,16.14083575,17.376398000000002,16.07941575Q17.417437,16.017996750000002,17.46967,15.96576375Q17.521903000000002,15.91353075,17.583322,15.87249175Q17.644742,15.83145275,17.712987,15.80318375Q17.781233,15.77491575,17.853682,15.760504749999999Q17.9261315,15.74609375,18,15.74609375Q18.0738685,15.74609375,18.146318,15.760504749999999Q18.218767,15.77491575,18.287013,15.80318375Q18.355258,15.83145275,18.416678,15.87249175Q18.478096999999998,15.91353075,18.53033,15.96576375Q18.582563,16.017996750000002,18.623601999999998,16.07941575Q18.664641,16.14083575,18.69291,16.20908075Q18.721178,16.27732675,18.735589,16.34977575Q18.75,16.42222525,18.75,16.49609375L18.75,17.68943375L19.53033,18.46976375Q19.63582,18.57525375,19.69291,18.71308375Q19.75,18.85091375,19.75,19.00009375Q19.75,19.07396375,19.73559,19.14641375Q19.72118,19.21886375,19.69291,19.28710375Q19.66464,19.35535375,19.6236,19.41677375Q19.58256,19.47819375,19.53033,19.53042375Q19.4781,19.58265375,19.41668,19.62369375Q19.35526,19.66473375,19.28701,19.69300375Q19.21877,19.72127375,19.14632,19.73568375Q19.07387,19.75009375,19,19.75009375Q18.850816000000002,19.75009375,18.712987,19.69300375Q18.575159,19.63591375,18.46967,19.53042375L17.46967,18.53042375Q17.364181,18.42493375,17.30709,18.28710375Q17.25,18.14927375,17.25,18.00009375L17.25,16.49609375Z" fill-rule="evenodd" fill="#2882FF" fill-opacity="1"/></g></g></g></svg>