<svg xmlns="http://www.w3.org/2000/svg" xmlns:xlink="http://www.w3.org/1999/xlink" fill="none" version="1.1" width="24" height="24" viewBox="0 0 24 24"><defs><clipPath id="master_svg0_53_01231"><rect x="0" y="0" width="24" height="24" rx="0"/></clipPath></defs><g clip-path="url(#master_svg0_53_01231)"><g></g><g><path d="M18.893099523162842,5.10762754776001Q16.03759952316284,2.2531075477600098,11.999999523162842,2.25310854776001Q7.962409523162842,2.2531075477600098,5.106899523162841,5.10762754776001Q2.2513935231628417,7.96214754776001,2.2500015231628416,11.99973754776001Q2.248605523162842,16.03930754776001,5.104519523162842,18.89620754776001Q7.9604295231628415,21.75310754776001,11.999999523162842,21.75310754776001Q16.039599523162842,21.75310754776001,18.89549952316284,18.89620754776001Q21.751399523162842,16.03930754776001,21.749999523162842,11.99973754776001Q21.74859952316284,7.96214754776001,18.893099523162842,5.10762754776001ZM6.167379523162841,6.1684675477600095Q8.583569523162842,3.7531075477600098,11.999999523162842,3.7531075477600098Q15.416399523162841,3.7531075477600098,17.83259952316284,6.1684675477600095Q20.24879952316284,8.58382754776001,20.249999523162842,12.00025754776001Q20.251199523162843,15.41830754776001,17.834599523162844,17.83570754776001Q15.418099523162843,20.25310754776001,11.999999523162842,20.25310754776001Q8.581909523162842,20.25310754776001,6.1653595231628415,17.83570754776001Q3.748819523162842,15.41840754776001,3.7500015231628416,12.00025754776001Q3.7511805231628417,8.58382754776001,6.167379523162841,6.1684675477600095Z" fill-rule="evenodd" fill="#231F2E" fill-opacity="1"/></g><g><path d="M3.5999999046325684,8.25L20.39999990463257,8.25Q20.473899904632567,8.25,20.54629990463257,8.264410999999999Q20.618799904632567,8.278822,20.686999904632568,8.30709Q20.75529990463257,8.335359,20.816699904632568,8.376398Q20.878099904632567,8.417437,20.93029990463257,8.46967Q20.98259990463257,8.521903,21.02359990463257,8.583322Q21.06459990463257,8.644742,21.092899904632567,8.712987Q21.12119990463257,8.781233,21.135599904632567,8.853682Q21.14999990463257,8.9261315,21.14999990463257,9Q21.14999990463257,9.0738685,21.135599904632567,9.146318Q21.12119990463257,9.218767,21.092899904632567,9.287013Q21.06459990463257,9.355258,21.02359990463257,9.416678Q20.98259990463257,9.478097,20.93029990463257,9.53033Q20.878099904632567,9.582563,20.816699904632568,9.623602Q20.75529990463257,9.664641,20.686999904632568,9.69291Q20.618799904632567,9.721178,20.54629990463257,9.735589000000001Q20.473899904632567,9.75,20.39999990463257,9.75L3.5999999046325684,9.75Q3.5261314046325682,9.75,3.4536819046325684,9.735589000000001Q3.381232904632568,9.721178,3.3129869046325684,9.69291Q3.2447419046325683,9.664641,3.1833219046325683,9.623602Q3.1219029046325684,9.582563,3.069669904632568,9.53033Q3.0174369046325684,9.478097,2.9763979046325684,9.416678Q2.9353589046325683,9.355258,2.9070899046325684,9.287013Q2.8788219046325683,9.218767,2.8644109046325683,9.146318Q2.8499999046325684,9.0738685,2.8499999046325684,9Q2.8499999046325684,8.9261315,2.8644109046325683,8.853682Q2.8788219046325683,8.781233,2.9070899046325684,8.712987Q2.9353589046325683,8.644742,2.9763979046325684,8.583322Q3.0174369046325684,8.521903,3.069669904632568,8.46967Q3.1219029046325684,8.417437,3.1833219046325683,8.376398Q3.2447419046325683,8.335359,3.3129869046325684,8.30709Q3.381232904632568,8.278822,3.4536819046325684,8.264410999999999Q3.5261314046325682,8.25,3.5999999046325684,8.25Z" fill-rule="evenodd" fill="#231F2E" fill-opacity="1"/></g><g><path d="M3.5999999046325684,14.25L20.39999990463257,14.25Q20.473899904632567,14.25,20.54629990463257,14.264410999999999Q20.618799904632567,14.278822,20.686999904632568,14.30709Q20.75529990463257,14.335359,20.816699904632568,14.376398Q20.878099904632567,14.417437,20.93029990463257,14.46967Q20.98259990463257,14.521903,21.02359990463257,14.583322Q21.06459990463257,14.644742,21.092899904632567,14.712987Q21.12119990463257,14.781233,21.135599904632567,14.853682Q21.14999990463257,14.9261315,21.14999990463257,15Q21.14999990463257,15.0738685,21.135599904632567,15.146318Q21.12119990463257,15.218767,21.092899904632567,15.287013Q21.06459990463257,15.355258,21.02359990463257,15.416678Q20.98259990463257,15.478097,20.93029990463257,15.53033Q20.878099904632567,15.582563,20.816699904632568,15.623602Q20.75529990463257,15.664641,20.686999904632568,15.69291Q20.618799904632567,15.721178,20.54629990463257,15.735589000000001Q20.473899904632567,15.75,20.39999990463257,15.75L3.5999999046325684,15.75Q3.5261314046325682,15.75,3.4536819046325684,15.735589000000001Q3.381232904632568,15.721178,3.3129869046325684,15.69291Q3.2447419046325683,15.664641,3.1833219046325683,15.623602Q3.1219029046325684,15.582563,3.069669904632568,15.53033Q3.0174369046325684,15.478097,2.9763979046325684,15.416678Q2.9353589046325683,15.355258,2.9070899046325684,15.287013Q2.8788219046325683,15.218767,2.8644109046325683,15.146318Q2.8499999046325684,15.0738685,2.8499999046325684,15Q2.8499999046325684,14.9261315,2.8644109046325683,14.853682Q2.8788219046325683,14.781233,2.9070899046325684,14.712987Q2.9353589046325683,14.644742,2.9763979046325684,14.583322Q3.0174369046325684,14.521903,3.069669904632568,14.46967Q3.1219029046325684,14.417437,3.1833219046325683,14.376398Q3.2447419046325683,14.335359,3.3129869046325684,14.30709Q3.381232904632568,14.278822,3.4536819046325684,14.264410999999999Q3.5261314046325682,14.25,3.5999999046325684,14.25Z" fill-rule="evenodd" fill="#231F2E" fill-opacity="1"/></g><g><path d="M12.135184971313477,3.398793Q12.250004971313476,3.2159240000000002,12.250004971313476,3Q12.249994971313477,2.9261315,12.235584971313477,2.853682Q12.221174971313477,2.781233,12.192904971313476,2.712987Q12.164644971313477,2.644742,12.123604971313476,2.583322Q12.082564971313477,2.521903,12.030324971313476,2.46967Q11.978094971313476,2.417437,11.916674971313476,2.376398Q11.855254971313476,2.335359,11.787014971313477,2.30709Q11.718764971313476,2.278822,11.646314971313476,2.264411Q11.573864971313476,2.25,11.500004971313476,2.25Q11.404534971313478,2.25,11.312104971313477,2.273917Q11.219684971313477,2.297834,11.136194971313476,2.344143Q11.052714971313478,2.390452,10.983494971313476,2.4562Q10.914274971313477,2.521947,10.863724971313477,2.602939Q8.172204971313477,6.91601,8.172204971313477,12Q8.172204971313477,17.082700000000003,10.862354971313476,21.3949Q10.862944971313476,21.3958,10.863544971313477,21.3968L10.863724971313477,21.3971Q10.914264971313477,21.4781,10.983494971313476,21.5438Q11.052714971313478,21.6095,11.136194971313476,21.6559Q11.219684971313477,21.7022,11.312104971313477,21.7261Q11.404534971313478,21.75,11.500004971313476,21.75Q11.573864971313476,21.75,11.646314971313476,21.7356Q11.718764971313476,21.7212,11.787014971313477,21.6929Q11.855254971313476,21.6646,11.916674971313476,21.6236Q11.978094971313476,21.5826,12.030324971313476,21.5303Q12.082564971313477,21.4781,12.123604971313476,21.4167Q12.164644971313477,21.3553,12.192904971313476,21.287Q12.221174971313477,21.2188,12.235584971313477,21.1463Q12.249994971313477,21.0739,12.250004971313476,21Q12.250004971313476,20.7852,12.136274971313476,20.6029L12.136224971313476,20.6029L12.135504971313477,20.6017Q9.672202971313476,16.6536,9.672204971313477,12Q9.672204971313477,7.34667,12.135184971313477,3.398793Z" fill-rule="evenodd" fill="#231F2E" fill-opacity="1"/></g><g><path d="M11.863727,3.39706Q11.75,3.214817,11.75,3Q11.75,2.9261315,11.764410999999999,2.853682Q11.778822,2.781233,11.80709,2.712987Q11.835359,2.644742,11.876398,2.583322Q11.917437,2.521903,11.96967,2.46967Q12.021903,2.417437,12.083322,2.376398Q12.144742,2.335359,12.212987,2.30709Q12.281233,2.278822,12.353682,2.264411Q12.4261315,2.25,12.5,2.25Q12.5956137,2.25,12.688169,2.2739890000000003Q12.780725,2.297978,12.864301,2.34442Q12.947878,2.390863,13.017129,2.45679Q13.08638,2.522716,13.136876,2.603908Q15.82779,6.916589999999999,15.82779,12Q15.82779,17.0828,13.137568,21.395Q13.136921,21.396,13.136274,21.3971Q13.085739,21.4781,13.016522,21.5438Q12.947304,21.6095,12.863818,21.6559Q12.780333,21.7022,12.687904,21.7261Q12.5954755,21.75,12.5,21.75Q12.4261315,21.75,12.353682,21.7356Q12.281233,21.7212,12.212987,21.6929Q12.144742,21.6646,12.083322,21.6236Q12.021903,21.5826,11.96967,21.5303Q11.917437,21.4781,11.876398,21.4167Q11.835359,21.3553,11.80709,21.287Q11.778822,21.2188,11.764410999999999,21.1463Q11.75,21.0739,11.75,21Q11.75,20.7852,11.863729,20.6029L11.864492,20.6017Q14.32779,16.6536,14.32779,12Q14.32779,7.34565,11.863727,3.39706Z" fill-rule="evenodd" fill="#231F2E" fill-opacity="1"/></g></g></svg>