<svg xmlns="http://www.w3.org/2000/svg" xmlns:xlink="http://www.w3.org/1999/xlink" fill="none" version="1.1" width="24" height="24" viewBox="0 0 24 24"><defs><clipPath id="master_svg0_69_15182"><rect x="0" y="0" width="24" height="24" rx="0"/></clipPath></defs><g clip-path="url(#master_svg0_69_15182)"><g><path d="M3.416025,6.375962L11.30662,11.63636Q12,12.09861,12.69337,11.63636L20.584,6.375962Q20.7729,6.25,21,6.25Q21.0739,6.25,21.1463,6.264411Q21.2188,6.278822,21.287,6.30709Q21.3553,6.335359,21.4167,6.376398Q21.4781,6.417437,21.5303,6.46967Q21.5826,6.521903,21.6236,6.583322Q21.6646,6.644742,21.6929,6.712987Q21.7212,6.781233,21.7356,6.853682Q21.75,6.9261315,21.75,7Q21.75,7.0926034,21.7275,7.182426Q21.705,7.272248,21.6613,7.353894Q21.6176,7.43554,21.5553,7.504106Q21.4931,7.572672,21.416,7.624039L21.415,7.624726L13.5254,12.88444Q12.83263,13.3463,12,13.3463Q11.16737,13.3463,10.47457,12.88444L2.583975,7.624038Q2.506924,7.572671,2.4446820000000002,7.504105Q2.38244,7.435539,2.338744,7.353893Q2.295048,7.272248,2.2725239999999998,7.182425Q2.25,7.0926032,2.25,7Q2.25,6.9261315,2.264411,6.853682Q2.278822,6.781233,2.30709,6.712987Q2.335359,6.644742,2.376398,6.583322Q2.417437,6.521903,2.46967,6.46967Q2.521903,6.417437,2.583322,6.376398Q2.644742,6.335359,2.712987,6.30709Q2.781233,6.278822,2.853682,6.264411Q2.9261315,6.25,3,6.25Q3.2270820000000002,6.25,3.416025,6.375962Z" fill-rule="evenodd" fill="#231F2E" fill-opacity="1"/></g><g><path d="M15,17.75L21,17.75Q21.07387,17.75,21.14632,17.764411Q21.21877,17.778822,21.287010000000002,17.80709Q21.35526,17.835359,21.41668,17.876398000000002Q21.4781,17.917437,21.53033,17.96967Q21.58256,18.021903000000002,21.6236,18.083322Q21.66464,18.144742,21.69291,18.212987Q21.72118,18.281233,21.735590000000002,18.353682Q21.75,18.4261315,21.75,18.5Q21.75,18.5738685,21.735590000000002,18.646318Q21.72118,18.718767,21.69291,18.787013Q21.66464,18.855258,21.6236,18.916678Q21.58256,18.978096999999998,21.53033,19.03033Q21.4781,19.082563,21.41668,19.123601999999998Q21.35526,19.164641,21.287010000000002,19.19291Q21.21877,19.221178,21.14632,19.235589Q21.07387,19.25,21,19.25L15,19.25Q14.9261315,19.25,14.853682,19.235589Q14.781233,19.221178,14.712987,19.19291Q14.644742,19.164641,14.583322,19.123601999999998Q14.521903,19.082563,14.46967,19.03033Q14.417437,18.978096999999998,14.376398,18.916678Q14.335359,18.855258,14.30709,18.787013Q14.278822,18.718767,14.264410999999999,18.646318Q14.25,18.5738685,14.25,18.5Q14.25,18.4261315,14.264410999999999,18.353682Q14.278822,18.281233,14.30709,18.212987Q14.335359,18.144742,14.376398,18.083322Q14.417437,18.021903000000002,14.46967,17.96967Q14.521903,17.917437,14.583322,17.876398000000002Q14.644742,17.835359,14.712987,17.80709Q14.781233,17.778822,14.853682,17.764411Q14.9261315,17.75,15,17.75Z" fill-rule="evenodd" fill="#2882FF" fill-opacity="1"/></g><g><path d="M18.530484,14.969824L21.53033,17.96967Q21.63582,18.07516,21.69291,18.21299Q21.75,18.35082,21.75,18.5Q21.75,18.64918,21.69291,18.78701Q21.63582,18.92484,21.53033,19.03033L18.530792,22.02987L18.53033,22.03033Q18.424841,22.13582,18.287013,22.19291Q18.149184,22.25,18,22.25Q17.9261315,22.25,17.853682,22.235590000000002Q17.781233,22.22118,17.712987,22.19291Q17.644742,22.16464,17.583322,22.1236Q17.521903000000002,22.08256,17.46967,22.03033Q17.417437,21.9781,17.376398000000002,21.91668Q17.335359,21.85526,17.30709,21.787010000000002Q17.278822,21.71877,17.264411,21.64632Q17.25,21.57387,17.25,21.5Q17.25,21.35082,17.30709,21.212989999999998Q17.364181,21.07516,17.46967,20.96967L17.470132,20.96921L19.93934,18.5L17.469824,16.030484L17.46967,16.03033Q17.364181,15.924841,17.30709,15.787013Q17.25,15.649184,17.25,15.5Q17.25,15.4261315,17.264411,15.353682Q17.278822,15.281233,17.30709,15.212987Q17.335359,15.144742,17.376398000000002,15.083322Q17.417437,15.021903,17.46967,14.96967Q17.521903000000002,14.917437,17.583322,14.876398Q17.644742,14.835359,17.712987,14.80709Q17.781233,14.778822,17.853682,14.764410999999999Q17.9261315,14.75,18,14.75Q18.149184,14.75,18.287013,14.80709Q18.424841,14.864181,18.53033,14.96967L18.530484,14.969824Z" fill-rule="evenodd" fill="#2882FF" fill-opacity="1"/></g><g><path d="M20.75,13.99831L20.75,14Q20.75,14.07387,20.7644,14.14632Q20.7788,14.21877,20.8071,14.28701Q20.8354,14.35526,20.8764,14.41668Q20.9174,14.4781,20.9697,14.5303Q21.0219,14.5826,21.0833,14.6236Q21.1447,14.6646,21.213,14.6929Q21.2812,14.7212,21.3537,14.7356Q21.4261,14.75,21.5,14.75Q21.5739,14.75,21.6463,14.7356Q21.7188,14.7212,21.787,14.6929Q21.8553,14.6646,21.9167,14.6236Q21.9781,14.5826,22.0303,14.5303Q22.0826,14.4781,22.1236,14.41668Q22.1646,14.35526,22.1929,14.28701Q22.2212,14.21877,22.2356,14.14632Q22.25,14.07387,22.25,14L22.25,7.5Q22.25,5.9467,21.1517,4.84835Q20.0533,3.75,18.5,3.75L5.5,3.75Q3.9467,3.75,2.848349,4.84835Q1.75,5.9467,1.75,7.5L1.75,16.5Q1.75,18.0533,2.84835,19.151600000000002Q3.9467,20.25,5.5,20.25L12,20.25Q12.07387,20.25,12.14632,20.235599999999998Q12.21877,20.2212,12.28701,20.1929Q12.35526,20.1646,12.41668,20.1236Q12.4781,20.0826,12.5303,20.0303Q12.5826,19.978099999999998,12.6236,19.9167Q12.6646,19.8553,12.6929,19.787Q12.7212,19.7188,12.7356,19.6463Q12.75,19.573900000000002,12.75,19.5Q12.75,19.426099999999998,12.7356,19.3537Q12.7212,19.2812,12.6929,19.213Q12.6646,19.1447,12.6236,19.0833Q12.5826,19.021900000000002,12.5303,18.9697Q12.4781,18.9174,12.41668,18.8764Q12.35526,18.8354,12.28701,18.8071Q12.21877,18.7788,12.14632,18.764400000000002Q12.07387,18.75,12,18.75L5.5,18.75Q4.568020000000001,18.75,3.9090100000000003,18.091Q3.25,17.432000000000002,3.25,16.5L3.25,7.5Q3.25,6.568020000000001,3.9090100000000003,5.90901Q4.568020000000001,5.25,5.5,5.25L18.5,5.25Q19.432,5.25,20.091,5.90901Q20.75,6.568020000000001,20.75,7.5L20.75,13.99831Z" fill-rule="evenodd" fill="#231F2E" fill-opacity="1"/></g></g></svg>