<svg xmlns="http://www.w3.org/2000/svg" xmlns:xlink="http://www.w3.org/1999/xlink" fill="none" version="1.1" width="24" height="24" viewBox="0 0 24 24"><defs><clipPath id="master_svg0_53_01240"><rect x="0" y="0" width="24" height="24" rx="0"/></clipPath></defs><g clip-path="url(#master_svg0_53_01240)"><g></g><g><path d="M3.25,5L3.25,9Q3.25,9.72487,3.762564,10.23744Q4.275127,10.75,5,10.75L9,10.75Q9.72487,10.75,10.23744,10.23744Q10.75,9.72487,10.75,9L10.75,5Q10.75,4.275127,10.23744,3.762563Q9.72487,3.25,9,3.25L5,3.25Q4.275126,3.25,3.762563,3.762563Q3.25,4.275126,3.25,5ZM5,9.25Q4.75,9.25,4.75,9L4.75,5Q4.75,4.75,5,4.75L9,4.75Q9.25,4.75,9.25,5L9.25,9Q9.25,9.25,9,9.25L5,9.25Z" fill-rule="evenodd" fill="#231F2E" fill-opacity="1"/></g><g><path d="M3.25,15L3.25,19Q3.25,19.72487,3.762564,20.23744Q4.275127,20.75,5,20.75L9,20.75Q9.72487,20.75,10.23744,20.23744Q10.75,19.72487,10.75,19L10.75,15Q10.75,14.275127,10.23744,13.762563Q9.72487,13.25,9,13.25L5,13.25Q4.275126,13.25,3.762563,13.762563Q3.25,14.275126,3.25,15ZM5,19.25Q4.75,19.25,4.75,19L4.75,15Q4.75,14.75,5,14.75L9,14.75Q9.25,14.75,9.25,15L9.25,19Q9.25,19.25,9,19.25L5,19.25Z" fill-rule="evenodd" fill="#231F2E" fill-opacity="1"/></g><g><path d="M13.25,15L13.25,19Q13.25,19.72487,13.762564,20.23744Q14.275127,20.75,15,20.75L19,20.75Q19.72487,20.75,20.23744,20.23744Q20.75,19.72487,20.75,19L20.75,15Q20.75,14.275127,20.23744,13.762563Q19.72487,13.25,19,13.25L15,13.25Q14.275126,13.25,13.762563,13.762563Q13.25,14.275126,13.25,15ZM15,19.25Q14.75,19.25,14.75,19L14.75,15Q14.75,14.75,15,14.75L19,14.75Q19.25,14.75,19.25,15L19.25,19Q19.25,19.25,19,19.25L15,19.25Z" fill-rule="evenodd" fill="#231F2E" fill-opacity="1"/></g><g><path d="M14,6.25L20,6.25Q20.07387,6.25,20.14632,6.264411Q20.21877,6.278822,20.287010000000002,6.30709Q20.35526,6.335359,20.41668,6.376398Q20.4781,6.417437,20.53033,6.46967Q20.58256,6.521903,20.6236,6.583322Q20.66464,6.644742,20.69291,6.712987Q20.72118,6.781233,20.735590000000002,6.853682Q20.75,6.9261315,20.75,7Q20.75,7.0738685,20.735590000000002,7.146318Q20.72118,7.218767,20.69291,7.287013Q20.66464,7.355258,20.6236,7.416678Q20.58256,7.478097,20.53033,7.53033Q20.4781,7.582563,20.41668,7.623602Q20.35526,7.664641,20.287010000000002,7.69291Q20.21877,7.721178,20.14632,7.735589Q20.07387,7.75,20,7.75L14,7.75Q13.9261315,7.75,13.853682,7.735589Q13.781233,7.721178,13.712987,7.69291Q13.644742,7.664641,13.583322,7.623602Q13.521903,7.582563,13.46967,7.53033Q13.417437,7.478097,13.376398,7.416678Q13.335359,7.355258,13.30709,7.287013Q13.278822,7.218767,13.264410999999999,7.146318Q13.25,7.0738685,13.25,7Q13.25,6.9261315,13.264410999999999,6.853682Q13.278822,6.781233,13.30709,6.712987Q13.335359,6.644742,13.376398,6.583322Q13.417437,6.521903,13.46967,6.46967Q13.521903,6.417437,13.583322,6.376398Q13.644742,6.335359,13.712987,6.30709Q13.781233,6.278822,13.853682,6.264411Q13.9261315,6.25,14,6.25Z" fill-rule="evenodd" fill="#2882FF" fill-opacity="1"/></g><g><path d="M16.25,4Q16.25,3.9261315,16.264411,3.853682Q16.278822,3.781233,16.30709,3.712987Q16.335359,3.644742,16.376398000000002,3.583322Q16.417437,3.521903,16.46967,3.46967Q16.521903000000002,3.417437,16.583322,3.376398Q16.644742,3.335359,16.712987,3.30709Q16.781233,3.278822,16.853682,3.264411Q16.9261315,3.25,17,3.25Q17.0738685,3.25,17.146318,3.264411Q17.218767,3.278822,17.287013,3.30709Q17.355258,3.335359,17.416678,3.376398Q17.478096999999998,3.417437,17.53033,3.46967Q17.582563,3.521903,17.623601999999998,3.583322Q17.664641,3.644742,17.69291,3.712987Q17.721178,3.781233,17.735589,3.853682Q17.75,3.9261315,17.75,4L17.75,10Q17.75,10.07387,17.735589,10.14632Q17.721178,10.21877,17.69291,10.28701Q17.664641,10.355260000000001,17.623601999999998,10.41668Q17.582563,10.478100000000001,17.53033,10.53033Q17.478096999999998,10.58256,17.416678,10.6236Q17.355258,10.66464,17.287013,10.692910000000001Q17.218767,10.72118,17.146318,10.73559Q17.0738685,10.75,17,10.75Q16.9261315,10.75,16.853682,10.73559Q16.781233,10.72118,16.712987,10.692910000000001Q16.644742,10.66464,16.583322,10.6236Q16.521903000000002,10.58256,16.46967,10.53033Q16.417437,10.478100000000001,16.376398000000002,10.41668Q16.335359,10.355260000000001,16.30709,10.28701Q16.278822,10.21877,16.264411,10.14632Q16.25,10.07387,16.25,10L16.25,4Z" fill-rule="evenodd" fill="#2882FF" fill-opacity="1"/></g></g></svg>