<svg xmlns="http://www.w3.org/2000/svg" xmlns:xlink="http://www.w3.org/1999/xlink" fill="none" version="1.1" width="24" height="24" viewBox="0 0 24 24"><defs><clipPath id="master_svg0_72_04507"><rect x="0" y="0" width="24" height="24" rx="0"/></clipPath></defs><g clip-path="url(#master_svg0_72_04507)"><g><g></g><g><g><path d="M16.159508172607424,5.196953640209198Q16.26490817260742,5.091466640209198,16.322008172607422,4.953651640209198Q16.379108172607424,4.815835640209198,16.379108172607424,4.666667640209198Q16.379108172607424,4.592799140209198,16.364708172607422,4.520349640209198Q16.35030817260742,4.447900640209198,16.322008172607422,4.379654640209198Q16.293708172607424,4.311409640209198,16.25270817260742,4.249989640209198Q16.21160817260742,4.188570640209198,16.15940817260742,4.136337640209198Q16.10720817260742,4.084104640209198,16.045808172607423,4.043065640209198Q15.984308172607422,4.002026640209198,15.916108172607421,3.973757640209198Q15.847908172607422,3.945489640209198,15.775408172607422,3.931078640209198Q15.703008172607422,3.916667640209198,15.629108172607422,3.916667640209198Q15.479908172607422,3.916667640209198,15.342008172607422,3.973769640209198Q15.204208172607421,4.030871640209198,15.098708172607422,4.136381640209198L15.098308172607421,4.136766640209198L3.9868851726074217,15.250067640209197Q3.0002351726074217,16.236967640209198,3.000408172607422,17.6324676402092Q3.000581172607422,19.027867640209198,3.9874541726074217,20.014567640209197Q4.9743281726074215,21.001167640209196,6.369798172607422,21.000967640209197Q7.765278172607422,21.000767640209197,8.751908172607422,20.0139676402092L19.862908172607423,8.901097640209198L19.86370817260742,8.900287640209198Q19.969208172607424,8.794797640209197,20.026308172607422,8.656987640209199Q20.08330817260742,8.519167640209197,20.08330817260742,8.369997640209197Q20.08330817260742,8.296127640209198,20.068908172607422,8.223677640209198Q20.05450817260742,8.151237640209198,20.026208172607422,8.082987640209197Q19.99800817260742,8.014737640209198,19.95690817260742,7.953317640209198Q19.915908172607423,7.891897640209198,19.86370817260742,7.839667640209198Q19.811408172607422,7.787437640209198,19.750008172607423,7.746397640209198Q19.688608172607424,7.705357640209198,19.620308172607423,7.677087640209198Q19.552108172607422,7.648817640209198,19.479708172607424,7.634407640209198Q19.407208172607422,7.619997640209197,19.333308172607424,7.619997640209197Q19.184108172607424,7.619997640209197,19.04630817260742,7.6770976402091975Q18.90850817260742,7.734207640209198,18.80300817260742,7.839717640209198L18.80250817260742,7.8401976402091975L7.691118172607422,18.953367640209198Q7.143768172607421,19.500867640209197,6.369618172607422,19.500967640209197Q5.595458172607422,19.5010676402092,5.047978172607422,18.9537676402092Q4.500504172607422,18.406367640209197,4.500408172607422,17.6322676402092Q4.500312172607422,16.8580676402092,5.047628172607422,16.310667640209196L16.159508172607424,5.196953640209198L16.159508172607424,5.196953640209198Z" fill-rule="evenodd" fill="#231F2E" fill-opacity="1" style="mix-blend-mode:passthrough"/></g><g><path d="M7.416674613952637,12.166667938232422L14.750004613952637,12.166667938232422Q14.823874613952636,12.166667938232422,14.896324613952636,12.181078938232421Q14.968774613952636,12.195489938232422,15.037024613952637,12.223757938232422Q15.105264613952636,12.252026938232422,15.166684613952636,12.293065938232422Q15.228104613952636,12.334104938232421,15.280334613952636,12.386337938232423Q15.332574613952637,12.438570938232422,15.373614613952636,12.499989938232423Q15.414644613952635,12.561409938232423,15.442914613952636,12.629654938232422Q15.471184613952637,12.697900938232422,15.485594613952637,12.770349938232421Q15.500004613952637,12.842799438232422,15.500004613952637,12.916667938232422Q15.500004613952637,12.990536438232422,15.485594613952637,13.062985938232423Q15.471184613952637,13.135434938232422,15.442914613952636,13.203680938232422Q15.414644613952635,13.271925938232421,15.373614613952636,13.333345938232421Q15.332574613952637,13.394764938232422,15.280334613952636,13.446997938232421Q15.228104613952636,13.499230938232422,15.166684613952636,13.540269938232422Q15.105264613952636,13.581308938232421,15.037024613952637,13.609577938232421Q14.968774613952636,13.637845938232422,14.896324613952636,13.652256938232423Q14.823874613952636,13.666667938232422,14.750004613952637,13.666667938232422L7.416674613952637,13.666667938232422Q7.342806113952637,13.666667938232422,7.270356613952637,13.652256938232423Q7.197907613952637,13.637845938232422,7.129661613952637,13.609577938232421Q7.061416613952637,13.581308938232421,6.999996613952637,13.540269938232422Q6.938577613952637,13.499230938232422,6.8863446139526365,13.446997938232421Q6.834111613952636,13.394764938232422,6.793072613952637,13.333345938232421Q6.752033613952637,13.271925938232421,6.723764613952636,13.203680938232422Q6.695496613952637,13.135434938232422,6.681085613952637,13.062985938232423Q6.666674613952637,12.990536438232422,6.666674613952637,12.916667938232422Q6.666674613952637,12.842799438232422,6.681085613952637,12.770349938232421Q6.695496613952637,12.697900938232422,6.723764613952636,12.629654938232422Q6.752033613952637,12.561409938232423,6.793072613952637,12.499989938232423Q6.834111613952636,12.438570938232422,6.8863446139526365,12.386337938232423Q6.938577613952637,12.334104938232421,6.999996613952637,12.293065938232422Q7.061416613952637,12.252026938232422,7.129661613952637,12.223757938232422Q7.197907613952637,12.195489938232422,7.270356613952637,12.181078938232421Q7.342806113952637,12.166667938232422,7.416674613952637,12.166667938232422Z" fill-rule="evenodd" fill="#231F2E" fill-opacity="1" style="mix-blend-mode:passthrough"/></g><g><path d="M17.869523015441896,14.237044953674317L16.494522115441896,15.703711953674317Q16.486720215441895,15.712033953674316,16.479175015441893,15.720589953674317Q15.792221015441894,16.499520953674317,15.835596015441894,17.537190953674315Q15.878971015441895,18.574860953674317,16.628534015441893,19.293750953674316Q17.378097015441895,20.012640953674318,18.416673015441894,20.012640953674318Q19.455253015441894,20.012640953674318,20.204813015441893,19.293750953674316Q20.954383015441895,18.574860953674317,20.997753015441894,17.537190953674315Q21.041133015441893,16.499520953674317,20.354173015441894,15.720589953674317Q20.346633015441896,15.712033953674316,20.338823015441896,15.703711953674317L18.963823015441896,14.237044953674317Q18.947283015441894,14.219394953674316,18.929633015441894,14.202847953674317Q18.820793015441893,14.100814953674316,18.681193015441895,14.048197953674316Q18.541603015441893,13.995580953674317,18.392493015441893,14.000390953674316Q18.243383015441893,14.005200953674317,18.107473015441894,14.066704953674316Q17.971553015441895,14.128209953674316,17.869523015441896,14.237044953674317ZM17.597543015441893,16.720330953674317Q17.316308015441894,17.044440953674318,17.334287015441895,17.474550953674317Q17.352477015441895,17.909700953674317,17.666813015441896,18.211170953674316Q17.981143015441894,18.512640953674318,18.416673015441894,18.512640953674318Q18.852203015441894,18.512640953674318,19.166543015441896,18.211170953674316Q19.480873015441894,17.909700953674317,19.499063015441894,17.474550953674317Q19.517043015441896,17.044440953674318,19.235813015441895,16.720330953674317L18.416673015441894,15.846590953674315L17.597543015441893,16.720330953674317Z" fill-rule="evenodd" fill="#F97316" fill-opacity="1"/></g><g><path d="M14.219678583068848,4.28033Q14.114189583068848,4.174841,14.057098583068848,4.037013Q14.000008583068848,3.899184,14.000008583068848,3.75Q14.000008583068848,3.6761315,14.014419583068847,3.603682Q14.028830583068848,3.531233,14.057098583068848,3.462987Q14.085367583068848,3.394742,14.126406583068848,3.333322Q14.167445583068847,3.271903,14.219678583068848,3.21967Q14.271911583068848,3.167437,14.333330583068848,3.126398Q14.394750583068848,3.085359,14.462995583068848,3.05709Q14.531241583068848,3.028822,14.603690583068847,3.014411Q14.676140083068848,3,14.750008583068848,3Q14.899192583068848,3,15.037021583068848,3.05709Q15.174849583068848,3.114181,15.280338583068847,3.21967L20.780338583068847,8.71967Q20.885828583068847,8.82516,20.94291858306885,8.96299Q21.000008583068848,9.100819999999999,21.000008583068848,9.25Q21.000008583068848,9.32387,20.98559858306885,9.39632Q20.971188583068848,9.46877,20.94291858306885,9.53701Q20.914648583068846,9.605260000000001,20.873608583068847,9.66668Q20.83256858306885,9.728100000000001,20.780338583068847,9.78033Q20.72810858306885,9.83256,20.666688583068847,9.8736Q20.60526858306885,9.91464,20.53701858306885,9.942910000000001Q20.468778583068847,9.97118,20.396328583068847,9.98559Q20.323878583068847,10,20.250008583068848,10Q20.100828583068846,10,19.962998583068845,9.942910000000001Q19.825168583068848,9.885819999999999,19.71967858306885,9.78033L14.219678583068848,4.28033Z" fill-rule="evenodd" fill="#231F2E" fill-opacity="1" style="mix-blend-mode:passthrough"/></g></g></g></g></svg>