<svg xmlns="http://www.w3.org/2000/svg" xmlns:xlink="http://www.w3.org/1999/xlink" fill="none" version="1.1" width="24" height="24" viewBox="0 0 24 24"><defs><clipPath id="master_svg0_72_05555"><rect x="0" y="0" width="24" height="24" rx="0"/></clipPath></defs><g clip-path="url(#master_svg0_72_05555)"><g><g></g><g><path d="M11.6323,2.346318L3.632304,6.84632Q3.545313,6.89525,3.474147,6.96523Q3.402981,7.03521,3.352593,7.12137Q3.302205,7.20752,3.276102,7.30386Q3.25,7.40019,3.25,7.5L3.25,16.5Q3.25,16.599800000000002,3.276102,16.6961Q3.302205,16.7925,3.352593,16.8786Q3.402981,16.9648,3.474147,17.0348Q3.545313,17.1047,3.632304,17.1537L11.6323,21.6537Q11.7165,21.701,11.80995,21.7255Q11.903400000000001,21.75,12,21.75Q12.0966,21.75,12.19005,21.7255Q12.2835,21.701,12.3677,21.6537L20.3677,17.1537Q20.4547,17.1047,20.5259,17.0348Q20.597,16.9648,20.6474,16.8786Q20.6978,16.7925,20.7239,16.6961Q20.75,16.599800000000002,20.75,16.5L20.75,7.5Q20.75,7.40019,20.7239,7.30386Q20.6978,7.20752,20.6474,7.12137Q20.597,7.03521,20.5259,6.96523Q20.4547,6.89525,20.3677,6.84632L12.3677,2.346318Q12.2835,2.298958,12.19005,2.274479Q12.0966,2.25,12,2.25Q11.903400000000001,2.25,11.80995,2.274479Q11.7165,2.298958,11.6323,2.346318ZM4.75,7.93864L4.75,16.0614L12,20.1395L19.25,16.0614L19.25,7.93864L12,3.860511L4.75,7.93864Z" fill-rule="evenodd" fill="#231F2E" fill-opacity="1" style="mix-blend-mode:passthrough"/></g><g><path d="M20.3677,8.153682Q20.45469,8.104749,20.52585,8.03477Q20.59702,7.96479,20.64741,7.878634Q20.697789999999998,7.792479,20.7239,7.696144Q20.75,7.5998087,20.75,7.5Q20.75,7.4261315,20.735590000000002,7.353682Q20.72118,7.281233,20.692909999999998,7.212987Q20.66464,7.144742,20.6236,7.083322Q20.58256,7.021903,20.53033,6.96967Q20.478099999999998,6.917437,20.41668,6.876398Q20.35526,6.835359,20.287010000000002,6.80709Q20.21877,6.778822,20.14632,6.764411Q20.07387,6.75,20,6.75Q19.803539999999998,6.75,19.6323,6.846318L11.632304,11.34632Q11.545313,11.39525,11.474147,11.46523Q11.402981,11.53521,11.352593,11.621369999999999Q11.302205,11.707519999999999,11.276102,11.80386Q11.25,11.90019,11.25,12Q11.25,12.07387,11.264410999999999,12.14632Q11.278822,12.21877,11.30709,12.28701Q11.335359,12.355260000000001,11.376398,12.41668Q11.417437,12.478100000000001,11.46967,12.53033Q11.521903,12.58256,11.583322,12.6236Q11.644742,12.66464,11.712987,12.692910000000001Q11.781233,12.72118,11.853682,12.73559Q11.9261315,12.75,12,12.75Q12.196463,12.75,12.367696,12.65368L20.367539999999998,8.153768L20.3677,8.153682Z" fill-rule="evenodd" fill="#231F2E" fill-opacity="1" style="mix-blend-mode:passthrough"/></g><g><path d="M11.25,12Q11.25,11.9261315,11.264410999999999,11.853682Q11.278822,11.781233,11.30709,11.712987Q11.335359,11.644742,11.376398,11.583322Q11.417437,11.521903,11.46967,11.46967Q11.521903,11.417437,11.583322,11.376398Q11.644742,11.335359,11.712987,11.30709Q11.781233,11.278822,11.853682,11.264410999999999Q11.9261315,11.25,12,11.25Q12.0738685,11.25,12.146318,11.264410999999999Q12.218767,11.278822,12.287013,11.30709Q12.355258,11.335359,12.416678,11.376398Q12.478097,11.417437,12.53033,11.46967Q12.582563,11.521903,12.623602,11.583322Q12.664641,11.644742,12.69291,11.712987Q12.721178,11.781233,12.735589000000001,11.853682Q12.75,11.9261315,12.75,12L12.75,21Q12.75,21.07387,12.735589000000001,21.14632Q12.721178,21.21877,12.69291,21.287010000000002Q12.664641,21.35526,12.623602,21.41668Q12.582563,21.478099999999998,12.53033,21.53033Q12.478097,21.58256,12.416678,21.6236Q12.355258,21.66464,12.287013,21.692909999999998Q12.218767,21.72118,12.146318,21.735590000000002Q12.0738685,21.75,12,21.75Q11.9261315,21.75,11.853682,21.735590000000002Q11.781233,21.72118,11.712987,21.692909999999998Q11.644742,21.66464,11.583322,21.6236Q11.521903,21.58256,11.46967,21.53033Q11.417437,21.478099999999998,11.376398,21.41668Q11.335359,21.35526,11.30709,21.287010000000002Q11.278822,21.21877,11.264410999999999,21.14632Q11.25,21.07387,11.25,21L11.25,12Z" fill-rule="evenodd" fill="#231F2E" fill-opacity="1" style="mix-blend-mode:passthrough"/></g><g><path d="M4.3676960000000005,6.846318L12.3677,11.34632Q12.45469,11.39525,12.52585,11.46523Q12.59702,11.53521,12.64741,11.621369999999999Q12.69779,11.707519999999999,12.7239,11.80386Q12.75,11.90019,12.75,12Q12.75,12.07387,12.73559,12.14632Q12.72118,12.21877,12.69291,12.28701Q12.66464,12.355260000000001,12.6236,12.41668Q12.58256,12.478100000000001,12.53033,12.53033Q12.4781,12.58256,12.41668,12.6236Q12.35526,12.66464,12.28701,12.692910000000001Q12.21877,12.72118,12.14632,12.73559Q12.07387,12.75,12,12.75Q11.80354,12.75,11.6323,12.65368L3.632304,8.153682Q3.545313,8.104749,3.474147,8.03477Q3.402981,7.96479,3.352593,7.878634Q3.302205,7.792479,3.276102,7.696144Q3.25,7.5998087,3.25,7.5Q3.25,7.4261315,3.264411,7.353682Q3.278822,7.281233,3.30709,7.212987Q3.335359,7.144742,3.376398,7.083322Q3.417437,7.021903,3.46967,6.96967Q3.521903,6.917437,3.583322,6.876398Q3.644742,6.835359,3.712987,6.80709Q3.781233,6.778822,3.853682,6.764411Q3.9261315,6.75,4,6.75Q4.196463,6.75,4.3676960000000005,6.846318Z" fill-rule="evenodd" fill="#231F2E" fill-opacity="1" style="mix-blend-mode:passthrough"/></g></g><g><g><ellipse cx="18.75" cy="18.75" rx="4.75" ry="4.75" fill="#FF4444" fill-opacity="1"/><path d="M23.5,18.75Q23.5,18.86661,23.49428,18.983069999999998Q23.48856,19.09954,23.477130000000002,19.21558Q23.4657,19.33163,23.44859,19.44697Q23.43148,19.56231,23.40873,19.67668Q23.38598,19.79104,23.35765,19.90415Q23.32931,20.01727,23.29547,20.12885Q23.26162,20.24044,23.22233,20.35023Q23.18305,20.46002,23.13843,20.56775Q23.0938,20.67547,23.043950000000002,20.78089Q22.99409,20.8863,22.939120000000003,20.98913Q22.88416,21.09197,22.82421,21.19199Q22.76426,21.292,22.69948,21.38896Q22.634700000000002,21.48591,22.56523,21.57957Q22.49577,21.67323,22.421799999999998,21.763370000000002Q22.34782,21.8535,22.26952,21.9399Q22.191209999999998,22.0263,22.10876,22.10876Q22.0263,22.191209999999998,21.9399,22.26952Q21.8535,22.34782,21.763370000000002,22.421799999999998Q21.67323,22.49577,21.57957,22.56523Q21.48591,22.634700000000002,21.38896,22.69948Q21.292,22.76426,21.19199,22.82421Q21.09197,22.88416,20.98913,22.93913Q20.8863,22.99409,20.78089,23.043950000000002Q20.67547,23.0938,20.56775,23.13843Q20.46002,23.18305,20.35023,23.22233Q20.24044,23.26162,20.12885,23.29547Q20.01727,23.32931,19.90415,23.35765Q19.79104,23.38598,19.67668,23.40873Q19.56231,23.43148,19.44697,23.44859Q19.33163,23.4657,19.21558,23.477130000000002Q19.09954,23.48856,18.983069999999998,23.49428Q18.86661,23.5,18.75,23.5Q18.63339,23.5,18.516930000000002,23.49428Q18.40046,23.48856,18.28442,23.477130000000002Q18.16837,23.4657,18.05303,23.44859Q17.93769,23.43148,17.82332,23.40873Q17.70896,23.38598,17.59584,23.35765Q17.48273,23.32931,17.37115,23.29547Q17.25956,23.26162,17.14977,23.22233Q17.03998,23.18305,16.93225,23.13843Q16.82452,23.0938,16.71911,23.043950000000002Q16.6137,22.99409,16.51087,22.939120000000003Q16.40803,22.88416,16.30801,22.82421Q16.208,22.76426,16.11104,22.69948Q16.01409,22.634700000000002,15.92043,22.56523Q15.82677,22.49577,15.73663,22.421799999999998Q15.64649,22.34782,15.5601,22.26952Q15.473700000000001,22.191209999999998,15.39124,22.10876Q15.30879,22.0263,15.23048,21.9399Q15.15217,21.8535,15.0782,21.763370000000002Q15.00423,21.67323,14.934764,21.57957Q14.865302,21.48591,14.800519,21.38896Q14.735736,21.292,14.675789,21.19199Q14.615842,21.09197,14.560874,20.98913Q14.505906,20.8863,14.456051,20.78089Q14.406195,20.67547,14.361572,20.56775Q14.316949,20.46002,14.277666,20.35023Q14.238382,20.24044,14.204533,20.12885Q14.170684,20.01727,14.142352,19.90415Q14.114019,19.79104,14.0912699,19.67668Q14.0685212,19.56231,14.0514116,19.44697Q14.0343019,19.33163,14.0228725,19.21558Q14.0114432,19.09954,14.00572158,18.983069999999998Q14,18.86661,14,18.75Q14,18.63339,14.00572158,18.516930000000002Q14.0114432,18.40046,14.0228725,18.28442Q14.0343019,18.16837,14.0514116,18.05303Q14.0685212,17.93769,14.0912699,17.82332Q14.114019,17.70896,14.142352,17.59584Q14.170684,17.48273,14.204533,17.37115Q14.238382,17.25956,14.277666,17.14977Q14.316949,17.03998,14.361572,16.93225Q14.406195,16.82452,14.456051,16.71911Q14.505906,16.6137,14.560874,16.51087Q14.615842,16.40803,14.675789,16.30801Q14.735736,16.208,14.800519,16.11104Q14.865302,16.01409,14.934764,15.92043Q15.00423,15.82677,15.0782,15.73663Q15.15217,15.64649,15.23048,15.5601Q15.30879,15.473700000000001,15.39124,15.39124Q15.473700000000001,15.30879,15.56009,15.23048Q15.64649,15.15217,15.73663,15.0782Q15.82677,15.00423,15.92043,14.934764Q16.01409,14.865302,16.11104,14.800519Q16.208,14.735736,16.30801,14.675789Q16.40803,14.615842,16.51087,14.560874Q16.6137,14.505906,16.71911,14.456051Q16.82452,14.406195,16.93225,14.361572Q17.03998,14.316949,17.14977,14.277666Q17.25956,14.238382,17.37115,14.204533Q17.48273,14.170684,17.59584,14.142352Q17.70896,14.114019,17.82332,14.0912699Q17.93769,14.0685212,18.05303,14.0514116Q18.16837,14.0343019,18.28442,14.0228725Q18.40046,14.0114432,18.516930000000002,14.00572158Q18.63339,14,18.75,14Q18.86661,14,18.983069999999998,14.00572158Q19.09954,14.0114432,19.21558,14.0228725Q19.33163,14.0343019,19.44697,14.0514116Q19.56231,14.0685212,19.67668,14.0912699Q19.79104,14.114019,19.90415,14.142352Q20.01727,14.170684,20.12885,14.204533Q20.24044,14.238382,20.35023,14.277666Q20.46002,14.316949,20.56775,14.361572Q20.67547,14.406195,20.78089,14.456051Q20.8863,14.505906,20.98913,14.560874Q21.09197,14.615842,21.19199,14.675789Q21.292,14.735736,21.38896,14.800519Q21.48591,14.865302,21.57957,14.934764Q21.67323,15.00423,21.763370000000002,15.0782Q21.8535,15.15217,21.9399,15.23048Q22.0263,15.30879,22.10876,15.39124Q22.191209999999998,15.473700000000001,22.26952,15.56009Q22.34782,15.64649,22.421799999999998,15.73663Q22.49577,15.82677,22.56523,15.92043Q22.634700000000002,16.01409,22.69948,16.11104Q22.76426,16.208,22.82421,16.30801Q22.88416,16.40803,22.93913,16.51087Q22.99409,16.6137,23.043950000000002,16.71911Q23.0938,16.82452,23.13843,16.93225Q23.18305,17.03998,23.22233,17.14977Q23.26162,17.25956,23.29547,17.37115Q23.32931,17.48273,23.35765,17.59584Q23.38598,17.70896,23.40873,17.82332Q23.43148,17.93769,23.44859,18.05303Q23.4657,18.16837,23.477130000000002,18.28442Q23.48856,18.40046,23.49428,18.516930000000002Q23.5,18.63339,23.5,18.75ZM22.5,18.75Q22.5,18.56577,22.48194,18.38244Q22.46388,18.1991,22.42794,18.01841Q22.392,17.83773,22.338520000000003,17.66143Q22.28505,17.48514,22.21455,17.31494Q22.14405,17.14473,22.057209999999998,16.98226Q21.97036,16.81979,21.868009999999998,16.66661Q21.76566,16.51343,21.648789999999998,16.37103Q21.53192,16.22862,21.40165,16.09835Q21.27138,15.96808,21.12897,15.85121Q20.98657,15.73434,20.83339,15.63199Q20.68021,15.52964,20.51774,15.4428Q20.35527,15.35595,20.18506,15.28545Q20.01486,15.21495,19.83857,15.16147Q19.66227,15.108,19.48159,15.07206Q19.3009,15.03611,19.11756,15.01806Q18.93423,15,18.75,15Q18.56577,15,18.38244,15.01806Q18.1991,15.03611,18.01841,15.07206Q17.83773,15.108,17.66143,15.16147Q17.48514,15.21495,17.31494,15.28545Q17.14473,15.35595,16.98226,15.4428Q16.81979,15.52964,16.66661,15.63199Q16.51343,15.73434,16.37103,15.85121Q16.22862,15.96808,16.09835,16.09835Q15.96808,16.22862,15.85121,16.37103Q15.73434,16.51343,15.63199,16.66661Q15.52964,16.81979,15.4428,16.98226Q15.35595,17.14473,15.28545,17.31494Q15.21495,17.48514,15.16147,17.66143Q15.108,17.83773,15.07206,18.01841Q15.03611,18.1991,15.01806,18.38244Q15,18.56577,15,18.75Q15,18.93423,15.01806,19.11756Q15.03611,19.3009,15.07205,19.48159Q15.108,19.66227,15.16147,19.83857Q15.21495,20.01486,15.28545,20.18506Q15.35595,20.35526,15.4428,20.51774Q15.52964,20.68021,15.63199,20.83339Q15.73434,20.98657,15.85121,21.12897Q15.96808,21.27138,16.09835,21.40165Q16.22862,21.53192,16.37103,21.648789999999998Q16.51343,21.76566,16.66661,21.868009999999998Q16.81979,21.97036,16.98226,22.0572Q17.14473,22.14405,17.31494,22.21455Q17.48514,22.28505,17.66143,22.33853Q17.83773,22.392,18.01841,22.42794Q18.1991,22.46388,18.38244,22.48194Q18.56577,22.5,18.75,22.5Q18.93423,22.5,19.11756,22.48194Q19.3009,22.46388,19.48159,22.42794Q19.66227,22.392,19.83857,22.338520000000003Q20.01486,22.28505,20.18506,22.21455Q20.35526,22.14405,20.51774,22.057209999999998Q20.68021,21.97036,20.83339,21.868009999999998Q20.98657,21.76566,21.12897,21.648789999999998Q21.27138,21.53192,21.40165,21.40165Q21.53192,21.27138,21.648789999999998,21.12897Q21.76566,20.98657,21.868009999999998,20.83339Q21.97036,20.68021,22.0572,20.51774Q22.14405,20.35527,22.21455,20.18506Q22.28505,20.01486,22.33853,19.83857Q22.392,19.66227,22.42794,19.48159Q22.46388,19.3009,22.48194,19.11756Q22.5,18.93423,22.5,18.75Z" fill="#FFFFFF" fill-opacity="1"/></g><g><rect x="16.75" y="18.25" width="4" height="1" rx="0.5" fill="#FFFFFF" fill-opacity="1"/></g></g></g></svg>