<svg xmlns="http://www.w3.org/2000/svg" xmlns:xlink="http://www.w3.org/1999/xlink" fill="none" version="1.1" width="24" height="24" viewBox="0 0 24 24"><defs><clipPath id="master_svg0_74_12882"><rect x="0" y="0" width="24" height="24" rx="0"/></clipPath></defs><g clip-path="url(#master_svg0_74_12882)"><g></g><g><path d="M8,8.25L16,8.25Q16.07387,8.25,16.14632,8.264410999999999Q16.21877,8.278822,16.287010000000002,8.30709Q16.35526,8.335359,16.41668,8.376398Q16.478099999999998,8.417437,16.53033,8.46967Q16.58256,8.521903,16.6236,8.583322Q16.66464,8.644742,16.692909999999998,8.712987Q16.72118,8.781233,16.735590000000002,8.853682Q16.75,8.9261315,16.75,9Q16.75,9.0738685,16.735590000000002,9.146318Q16.72118,9.218767,16.692909999999998,9.287013Q16.66464,9.355258,16.6236,9.416678Q16.58256,9.478097,16.53033,9.53033Q16.478099999999998,9.582563,16.41668,9.623602Q16.35526,9.664641,16.287010000000002,9.69291Q16.21877,9.721178,16.14632,9.735589000000001Q16.07387,9.75,16,9.75L8,9.75Q7.9261315,9.75,7.853682,9.735589000000001Q7.781233,9.721178,7.712987,9.69291Q7.644742,9.664641,7.583322,9.623602Q7.521903,9.582563,7.46967,9.53033Q7.417437,9.478097,7.376398,9.416678Q7.335359,9.355258,7.30709,9.287013Q7.278822,9.218767,7.264411,9.146318Q7.25,9.0738685,7.25,9Q7.25,8.9261315,7.264411,8.853682Q7.278822,8.781233,7.30709,8.712987Q7.335359,8.644742,7.376398,8.583322Q7.417437,8.521903,7.46967,8.46967Q7.521903,8.417437,7.583322,8.376398Q7.644742,8.335359,7.712987,8.30709Q7.781233,8.278822,7.853682,8.264410999999999Q7.9261315,8.25,8,8.25Z" fill-rule="evenodd" fill="#2882FF" fill-opacity="1"/></g><g><path d="M8,12.25L14,12.25Q14.07387,12.25,14.14632,12.264410999999999Q14.21877,12.278822,14.28701,12.30709Q14.355260000000001,12.335359,14.41668,12.376398Q14.478100000000001,12.417437,14.53033,12.46967Q14.58256,12.521903,14.6236,12.583322Q14.66464,12.644742,14.692910000000001,12.712987Q14.72118,12.781233,14.73559,12.853682Q14.75,12.9261315,14.75,13Q14.75,13.0738685,14.73559,13.146318Q14.72118,13.218767,14.692910000000001,13.287013Q14.66464,13.355258,14.6236,13.416678Q14.58256,13.478097,14.53033,13.53033Q14.478100000000001,13.582563,14.41668,13.623602Q14.355260000000001,13.664641,14.28701,13.69291Q14.21877,13.721178,14.14632,13.735589000000001Q14.07387,13.75,14,13.75L8,13.75Q7.9261315,13.75,7.853682,13.735589000000001Q7.781233,13.721178,7.712987,13.69291Q7.644742,13.664641,7.583322,13.623602Q7.521903,13.582563,7.46967,13.53033Q7.417437,13.478097,7.376398,13.416678Q7.335359,13.355258,7.30709,13.287013Q7.278822,13.218767,7.264411,13.146318Q7.25,13.0738685,7.25,13Q7.25,12.9261315,7.264411,12.853682Q7.278822,12.781233,7.30709,12.712987Q7.335359,12.644742,7.376398,12.583322Q7.417437,12.521903,7.46967,12.46967Q7.521903,12.417437,7.583322,12.376398Q7.644742,12.335359,7.712987,12.30709Q7.781233,12.278822,7.853682,12.264410999999999Q7.9261315,12.25,8,12.25Z" fill-rule="evenodd" fill="#2882FF" fill-opacity="1"/></g><g><path d="M20.25,7L20.25,12Q20.25,12.07387,20.2644,12.14632Q20.2788,12.21877,20.3071,12.28701Q20.3354,12.35526,20.3764,12.41668Q20.4174,12.4781,20.4697,12.53033Q20.5219,12.58256,20.5833,12.6236Q20.6447,12.66464,20.713,12.69291Q20.7812,12.72118,20.8537,12.73559Q20.9261,12.75,21,12.75Q21.0739,12.75,21.1463,12.73559Q21.2188,12.72118,21.287,12.69291Q21.3553,12.66464,21.4167,12.6236Q21.4781,12.58256,21.5303,12.53033Q21.5826,12.4781,21.6236,12.41668Q21.6646,12.35526,21.6929,12.28701Q21.7212,12.21877,21.7356,12.14632Q21.75,12.07387,21.75,12L21.75,7Q21.75,5.4467,20.6517,4.348349Q19.5533,3.25,18,3.25L6,3.25Q4.4467,3.25,3.348349,4.348349Q2.25,5.4467,2.25,7L2.25,15Q2.25,16.5533,3.348349,17.651699999999998Q4.4467,18.75,6,18.75L7.25,18.75L7.25,21Q7.25,21.0739,7.26441,21.1463Q7.27882,21.2188,7.30709,21.287Q7.33536,21.3553,7.3764,21.4167Q7.41744,21.4781,7.46967,21.5303Q7.5219,21.5826,7.58332,21.6236Q7.64474,21.6646,7.71299,21.6929Q7.78123,21.7212,7.85368,21.7356Q7.92613,21.75,8,21.75Q8.207740000000001,21.75,8.38587,21.6431L13.3859,18.6431Q13.4692,18.5931,13.537,18.523600000000002Q13.6048,18.454,13.6526,18.369500000000002Q13.7005,18.285,13.7253,18.1911Q13.75,18.097099999999998,13.75,18Q13.75,17.926099999999998,13.7356,17.8537Q13.7212,17.7812,13.6929,17.713Q13.6646,17.6447,13.6236,17.5833Q13.5826,17.521900000000002,13.5303,17.4697Q13.4781,17.4174,13.4167,17.3764Q13.3553,17.3354,13.287,17.3071Q13.2188,17.2788,13.1463,17.264400000000002Q13.0739,17.25,13,17.25Q12.79226,17.25,12.61413,17.3569L8.75,19.6754L8.75,18Q8.75,17.926099999999998,8.73559,17.8537Q8.72118,17.7812,8.692910000000001,17.713Q8.66464,17.6447,8.6236,17.5833Q8.58256,17.521900000000002,8.53033,17.4697Q8.478100000000001,17.4174,8.41668,17.3764Q8.355260000000001,17.3354,8.28701,17.3071Q8.21877,17.2788,8.14632,17.264400000000002Q8.07387,17.25,8,17.25L6,17.25Q5.068020000000001,17.25,4.40901,16.591Q3.75,15.932,3.75,15L3.75,7Q3.75,6.068020000000001,4.40901,5.40901Q5.068020000000001,4.75,6,4.75L18,4.75Q18.932000000000002,4.75,19.591,5.40901Q20.25,6.068020000000001,20.25,7Z" fill-rule="evenodd" fill="#231F2E" fill-opacity="1"/></g><g><path d="M21.707169999999998,14.292835C21.31665,13.9023884,20.68358,13.9023884,20.29307,14.292835L19.85231,14.733597L21.2664,16.1477L21.707169999999998,15.70693C22.09761,15.31642,22.09761,14.683346,21.707169999999998,14.292835ZM20.86221,16.55189L19.44811,15.13779L14.819534,19.766370000000002C14.58443,20.00136,14.411601,20.291240000000002,14.316676,20.6098L14.0119138,21.63266C13.9819379,21.73322,14.00949407,21.842109999999998,14.083691,21.91631C14.157888,21.99051,14.266785,22.01806,14.367343,21.98809L15.3902,21.683320000000002C15.70877,21.5884,15.99865,21.41557,16.233629999999998,21.18047L20.86221,16.55189L20.86221,16.55189Z" fill="#2882FF" fill-opacity="1"/></g></g></svg>