<svg xmlns="http://www.w3.org/2000/svg" xmlns:xlink="http://www.w3.org/1999/xlink" fill="none" version="1.1" width="24" height="24" viewBox="0 0 24 24"><defs><clipPath id="master_svg0_72_04723"><rect x="0" y="0" width="24" height="24" rx="0"/></clipPath></defs><g clip-path="url(#master_svg0_72_04723)"><g><g><g><path d="M1.25,12.75L1.25,7.25L8.75,7.25L8.75,12.75L1.25,12.75ZM7.25,8.75L2.75,8.75L2.75,11.25L7.25,11.25L7.25,8.75Z" fill-rule="evenodd" fill="#736F78" fill-opacity="1"/></g><g><path d="M7.25,16.75L7.25,11.25L14.75,11.25L14.75,16.75L7.25,16.75ZM13.25,12.75L8.75,12.75L8.75,15.25L13.25,15.25L13.25,12.75Z" fill-rule="evenodd" fill="#736F78" fill-opacity="1"/></g><g><path d="M13.25,12.75L13.25,7.25L20.75,7.25L20.75,12.75L13.25,12.75ZM19.25,8.75L14.75,8.75L14.75,11.25L19.25,11.25L19.25,8.75Z" fill-rule="evenodd" fill="#736F78" fill-opacity="1"/></g><g><path d="M7.25,12.75L7.25,7.25L14.75,7.25L14.75,12.75L7.25,12.75ZM13.25,8.75L8.75,8.75L8.75,11.25L13.25,11.25L13.25,8.75Z" fill-rule="evenodd" fill="#736F78" fill-opacity="1"/></g><g><path d="M7.25,8.75L7.25,3.25L14.75,3.25L14.75,8.75L7.25,8.75ZM13.25,4.75L8.75,4.75L8.75,7.25L13.25,7.25L13.25,4.75Z" fill-rule="evenodd" fill="#736F78" fill-opacity="1"/></g></g><g><path d="M2,19L7,19L10,16L2,16L2,19Z" fill="#2882FF" fill-opacity="0.20000000298023224"/><path d="M1.25,19.75L7.31066,19.75L7.53033,19.53033L11.81066,15.25L1.25,15.25L1.25,19.75ZM6.68934,18.25L2.75,18.25L2.75,16.75L8.18934,16.75L6.68934,18.25Z" fill-rule="evenodd" fill="#2882FF" fill-opacity="1"/></g><g><path d="M20.091,16.091Q20.75,15.432,20.75,14.5L20.75,5.5Q20.75,4.568018,20.091,3.9090097Q19.432,3.25,18.5,3.25L3.5,3.25Q2.5680199999999997,3.25,1.9090099,3.9090098Q1.25,4.56802,1.25,5.5L1.25,16.75L18.5,16.75Q19.432,16.75,20.091,16.091ZM19.25,5.5L19.25,14.5Q19.25,15.25,18.5,15.25L2.75,15.25L2.75,5.5Q2.75,4.75,3.5,4.75L18.5,4.75Q19.25,4.75,19.25,5.5Z" fill-rule="evenodd" fill="#231F2E" fill-opacity="1"/></g></g><g><g><g><ellipse cx="18.75" cy="18.75" rx="4.75" ry="4.75" fill="#FFFFFF" fill-opacity="1"/></g></g><g><path d="M18.0127,19.80859Q17.96582,19.8418,17.8457,19.89941Q17.72559,19.95703,17.51465,20.00195Q17.30371,20.04688,16.98535,20.04688Q16.55762,20.04688,16.248047,19.90527Q15.938477,19.76367,15.772461,19.44629Q15.606445,19.12891,15.606445,18.60547Q15.606445,17.9082,15.963867,17.53027Q16.32129,17.15234,16.95996,17.15234Q17.26465,17.15234,17.44629,17.21094Q17.62793,17.26953,17.72168,17.34766Q17.81543,17.42578,17.85254,17.48438Q17.86621,17.50586,17.87207,17.52246Q17.87793,17.53906,17.87988,17.57422Q17.88574,17.62109,17.88281,17.71094Q17.87988,17.80078,17.86816,17.86914Q17.86035,17.91211,17.84277,17.92578Q17.83496,17.93359,17.81543,17.93945Q17.7959,17.94531,17.75684,17.94531Q17.69434,17.94531,17.61133,17.94043Q17.52832,17.93555,17.48926,17.92969Q17.44238,17.92188,17.42188,17.90723Q17.40137,17.89258,17.37793,17.86133Q17.35449,17.83008,17.31348,17.78809Q17.27246,17.74609,17.18945,17.71289Q17.10645,17.67969,16.95996,17.67969Q16.6377,17.67969,16.4541,17.91309Q16.27051,18.14648,16.27051,18.58398Q16.27051,19.04297,16.46094,19.28125Q16.65137,19.51953,17.00879,19.51953Q17.18848,19.51953,17.27344,19.49316Q17.3584,19.4668,17.38184,19.45312L17.38184,18.8457Q17.38184,18.78906,17.40137,18.75977Q17.48926,18.63086,17.64746,18.48828Q17.67676,18.46484,17.69824,18.46484Q17.72168,18.46484,17.74707,18.48828Q17.83301,18.5625,17.8916,18.62988Q17.9502,18.69727,17.99316,18.75977Q18.0127,18.79102,18.0127,18.8457L18.0127,19.80859ZM19.47168,20.04883Q19.1416,20.04883,18.89746,19.94238Q18.65332,19.83594,18.51855,19.61133Q18.38379,19.38672,18.38379,19.03125Q18.38379,18.49805,18.65723,18.22461Q18.93066,17.95117,19.38379,17.95117Q19.67871,17.95117,19.88281,18.05664Q20.08691,18.16211,20.19336,18.34766Q20.2998,18.5332,20.2998,18.77148Q20.2998,19.00391,20.18066,19.0957Q20.06152,19.1875,19.83301,19.1875L18.99512,19.1875Q19.01074,19.38867,19.14258,19.49414Q19.27441,19.59961,19.50098,19.59961Q19.68066,19.59961,19.78906,19.5459Q19.89746,19.49219,19.94043,19.46094Q19.97754,19.43359,20.02441,19.43555Q20.06152,19.43555,20.13086,19.4502Q20.2002,19.46484,20.26855,19.50391Q20.31738,19.5293,20.31738,19.57422Q20.31738,19.59961,20.30762,19.64648Q20.30176,19.67383,20.28809,19.72559Q20.27441,19.77734,20.25293,19.82227Q20.24121,19.84375,20.21582,19.86328Q20.17676,19.89062,20.08984,19.93555Q20.00293,19.98047,19.85254,20.01465Q19.70215,20.04883,19.47168,20.04883ZM18.99121,18.78711L19.62793,18.78711Q19.72754,18.78711,19.72754,18.69531Q19.72754,18.55664,19.64062,18.46191Q19.55371,18.36719,19.37988,18.36719Q19.19043,18.36719,19.10156,18.48828Q19.0127,18.60938,18.99121,18.78711ZM21.50098,20.04883Q20.84863,20.04883,20.84863,19.37109L20.84863,18.45508L20.62793,18.45508Q20.56934,18.45508,20.54688,18.43066Q20.52441,18.40625,20.52441,18.34766L20.52441,18.10742Q20.52441,18.04883,20.54688,18.02441Q20.56934,18,20.62793,18L20.84863,18L20.84863,17.68555Q20.84863,17.63867,20.86816,17.61328Q20.9502,17.50586,21.1084,17.38086Q21.13574,17.36133,21.15723,17.36133Q21.18066,17.36133,21.2041,17.38086Q21.28809,17.44531,21.3457,17.50195Q21.40332,17.55859,21.44434,17.61328Q21.46387,17.63867,21.46387,17.68555L21.46387,18L21.80957,18Q21.86816,18,21.89062,18.02441Q21.91309,18.04883,21.91309,18.10742L21.91309,18.34766Q21.91309,18.40625,21.89062,18.43066Q21.86816,18.45508,21.80957,18.45508L21.46387,18.45508L21.46387,19.26367Q21.46387,19.57617,21.69043,19.57617Q21.72559,19.57617,21.75488,19.56934Q21.78418,19.5625,21.80566,19.55469Q21.84668,19.53906,21.86328,19.54297Q21.87988,19.54688,21.89355,19.58594L22.00684,19.88867Q22.02441,19.9375,21.9834,19.95898Q21.9541,19.97266,21.8418,20.01074Q21.72949,20.04883,21.50098,20.04883Z" fill="#2882FF" fill-opacity="1"/></g></g></g></svg>