<svg xmlns="http://www.w3.org/2000/svg" xmlns:xlink="http://www.w3.org/1999/xlink" fill="none" version="1.1" width="24" height="24" viewBox="0 0 24 24"><defs><clipPath id="master_svg0_83_06109"><rect x="0" y="0" width="24" height="24" rx="0"/></clipPath></defs><g clip-path="url(#master_svg0_83_06109)"><g></g><g><path d="M20.6708,7.6645900000000005Q20.6164,7.5557300000000005,20.5303,7.46967Q20.4443,7.38361,20.3354,7.32918L12.33541,3.32918Q12.2573,3.290127,12.17231,3.270063Q12.08733,3.25,12,3.25Q11.91267,3.25,11.82769,3.270063Q11.7427,3.290127,11.66459,3.32918L3.66459,7.32918Q3.531155,7.3959,3.43341,7.5085999999999995Q3.335664,7.6213,3.288488,7.76283Q3.241311,7.9043600000000005,3.251887,8.05317Q3.262462,8.201979999999999,3.32918,8.33541Q3.383609,8.44427,3.46967,8.53033Q3.5557309999999998,8.616389999999999,3.66459,8.670819999999999L11.66459,12.67082Q11.7427,12.70987,11.82769,12.72994Q11.91267,12.75,12,12.75Q12.08733,12.75,12.17231,12.72994Q12.2573,12.70987,12.33541,12.67082L20.3354,8.670819999999999Q20.4688,8.604099999999999,20.5666,8.491399999999999Q20.6643,8.3787,20.7115,8.237169999999999Q20.7587,8.09564,20.7481,7.94683Q20.7375,7.79802,20.6708,7.6645900000000005ZM18.3229,8L12,4.838525L5.6770499999999995,8L12,11.16147L18.3229,8Z" fill-rule="evenodd" fill="#231F2E" fill-opacity="1"/></g><g><path d="M4.335631,15.32929L12,19.16147L19.6643,15.329322L19.6646,15.329180000000001Q19.8229,15.25,20,15.25Q20.0739,15.25,20.1463,15.264410999999999Q20.2188,15.278822,20.287,15.30709Q20.3553,15.335359,20.4167,15.376398Q20.4781,15.417437,20.5303,15.46967Q20.5826,15.521903,20.6236,15.583322Q20.6646,15.644742,20.6929,15.712987Q20.7212,15.781233,20.7356,15.853682Q20.75,15.9261315,20.75,16Q20.75,16.104463,20.7215,16.20495Q20.6929,16.305437,20.638,16.394298Q20.5831,16.48316,20.506,16.553631Q20.4288,16.624103,20.3354,16.67082L12.33541,20.67082Q12.2573,20.70987,12.17231,20.72994Q12.08733,20.75,12,20.75Q11.91267,20.75,11.82769,20.72994Q11.7427,20.70987,11.66459,20.67082L3.664811,16.670931L3.66459,16.67082Q3.571155,16.624103,3.494043,16.553631Q3.416931,16.48316,3.362012,16.394298Q3.307093,16.305437,3.278546,16.20495Q3.25,16.104463,3.25,16Q3.25,15.9261315,3.264411,15.853682Q3.278822,15.781233,3.30709,15.712987Q3.335359,15.644742,3.376398,15.583322Q3.417437,15.521903,3.46967,15.46967Q3.521903,15.417437,3.583322,15.376398Q3.644742,15.335359,3.712987,15.30709Q3.781233,15.278822,3.853682,15.264410999999999Q3.9261315,15.25,4,15.25Q4.177051,15.25,4.3354099999999995,15.329180000000001L4.335631,15.32929Z" fill-rule="evenodd" fill="#231F2E" fill-opacity="1"/></g><g><path d="M4.335631,11.32929L12,15.16147L19.6643,11.329322L19.6646,11.329180000000001Q19.8229,11.25,20,11.25Q20.0739,11.25,20.1463,11.264410999999999Q20.2188,11.278822,20.287,11.30709Q20.3553,11.335359,20.4167,11.376398Q20.4781,11.417437,20.5303,11.46967Q20.5826,11.521903,20.6236,11.583322Q20.6646,11.644742,20.6929,11.712987Q20.7212,11.781233,20.7356,11.853682Q20.75,11.9261315,20.75,12Q20.75,12.104463,20.7215,12.20495Q20.6929,12.305437,20.638,12.394298Q20.5831,12.48316,20.506,12.553631Q20.4288,12.624103,20.3354,12.670819999999999L12.33541,16.67082Q12.2573,16.70987,12.17231,16.72994Q12.08733,16.75,12,16.75Q11.91267,16.75,11.82769,16.72994Q11.7427,16.70987,11.66459,16.67082L3.664811,12.670931L3.66459,12.670819999999999Q3.571155,12.624103,3.494043,12.553631Q3.416931,12.48316,3.362012,12.394298Q3.307093,12.305437,3.278546,12.20495Q3.25,12.104463,3.25,12Q3.25,11.9261315,3.264411,11.853682Q3.278822,11.781233,3.30709,11.712987Q3.335359,11.644742,3.376398,11.583322Q3.417437,11.521903,3.46967,11.46967Q3.521903,11.417437,3.583322,11.376398Q3.644742,11.335359,3.712987,11.30709Q3.781233,11.278822,3.853682,11.264410999999999Q3.9261315,11.25,4,11.25Q4.177051,11.25,4.3354099999999995,11.329180000000001L4.335631,11.32929Z" fill-rule="evenodd" fill="#231F2E" fill-opacity="1"/></g><g><path d="M15.49939,15.099632Q15.377,15.303615,15.3135,15.532866Q15.25,15.762117,15.25,16L15.25,22Q15.25,22.08597,15.25843,22.17153Q15.26685,22.257089999999998,15.28363,22.34141Q15.3004,22.42573,15.32535,22.508Q15.35031,22.59027,15.38321,22.66969Q15.41611,22.749119999999998,15.45664,22.824939999999998Q15.497160000000001,22.90076,15.54493,22.97225Q15.59269,23.04373,15.64723,23.11019Q15.70177,23.176650000000002,15.76256,23.23744Q15.82335,23.29823,15.88981,23.35277Q15.95627,23.40731,16.027752,23.45507Q16.099235,23.50284,16.175056,23.54336Q16.250876,23.58389,16.330304,23.61679Q16.409731999999998,23.64969,16.492002,23.67465Q16.574272,23.6996,16.658592,23.71637Q16.742912,23.733150000000002,16.82847,23.74157Q16.914028,23.75,17,23.75Q17.237883,23.75,17.467134,23.6865Q17.696385,23.623,17.900368,23.50061L22.90037,20.50061Q22.97409,20.45638,23.043120000000002,20.40514Q23.11215,20.35389,23.17582,20.296129999999998Q23.2395,20.23836,23.2972,20.17463Q23.35491,20.11091,23.40609,20.04183Q23.45727,19.97275,23.50144,19.89899Q23.5456,19.82523,23.58232,19.7475Q23.61905,19.66976,23.64797,19.5888Q23.6769,19.50784,23.69775,19.42444Q23.718600000000002,19.34103,23.731180000000002,19.25598Q23.74375,19.17094,23.74793,19.08507Q23.752110000000002,18.999200000000002,23.74785,18.913330000000002Q23.74359,18.82746,23.73094,18.74243Q23.71829,18.65739,23.69736,18.57401Q23.67643,18.49062,23.64743,18.40969Q23.61843,18.32875,23.58164,18.25105Q23.54484,18.17335,23.50061,18.09963Q23.27552,17.72448,22.90037,17.49939L17.900368,14.49939Q17.826647,14.45516,17.748946,14.41836Q17.671246,14.38157,17.590312,14.35257Q17.509379,14.32357,17.425993,14.30264Q17.342607,14.28171,17.257572,14.26906Q17.172536,14.25641,17.0866695,14.25215Q17.00080299,14.24789,16.9149326,14.25207Q16.829062,14.25625,16.744015,14.26882Q16.658968,14.2814,16.575563,14.30225Q16.492158,14.3231,16.411198,14.35203Q16.330238,14.38095,16.252504,14.41768Q16.174769,14.4544,16.101008,14.49856Q16.027247,14.54273,15.958169999999999,14.59391Q15.88909,14.64509,15.82537,14.7028Q15.76164,14.7605,15.70387,14.82418Q15.64611,14.88785,15.59486,14.95688Q15.54362,15.025912,15.49939,15.099632Z" fill-rule="evenodd" fill="#FFFFFF" fill-opacity="1"/></g><g><path d="M16.35688,15.614128000000001Q16.25,15.792262,16.25,16L16.25,22Q16.25,22.07387,16.264411,22.14632Q16.278822,22.21877,16.30709,22.287010000000002Q16.335359,22.35526,16.376398000000002,22.41668Q16.417437,22.4781,16.46967,22.53033Q16.521903000000002,22.58256,16.583322,22.6236Q16.644742,22.66464,16.712987,22.69291Q16.781233,22.72118,16.853682,22.735590000000002Q16.9261315,22.75,17,22.75Q17.207738,22.75,17.385872,22.64312L22.38587,19.64312Q22.5138,19.56637,22.60261,19.4465Q22.69142,19.32663,22.72761,19.1819Q22.76379,19.03717,22.74183,18.88961Q22.71987,18.74205,22.64312,18.61413Q22.54665,18.45335,22.38587,18.35688L17.385872,15.35688Q17.257947,15.280126,17.110388,15.258168Q16.9628284,15.236211,16.818098,15.272393Q16.673368,15.308576,16.553502,15.39739Q16.433635,15.486204,16.35688,15.614128000000001ZM17.75,17.32464L17.75,20.67536L20.54226,19L17.75,17.32464Z" fill-rule="evenodd" fill="#2882FF" fill-opacity="1"/></g></g></svg>