<svg xmlns="http://www.w3.org/2000/svg" xmlns:xlink="http://www.w3.org/1999/xlink" fill="none" version="1.1" width="24" height="24" viewBox="0 0 24 24"><defs><clipPath id="master_svg0_389_19009"><rect x="-0.75" y="-0.75" width="25.5" height="25.5" rx="0"/></clipPath></defs><g clip-path="url(#master_svg0_389_19009)"><path d="M6,6.50000006L6,8.5C6,8.7761424,6.22385764,9,6.50000006,9L8.5,9C8.7761424,9,9,8.7761424,9,8.5L9,6.50000006C9,6.22385764,8.7761424,6,8.5,6L6.50000006,6C6.22385764,6,6,6.22385764,6,6.50000006Z" fill="#2882FF" fill-opacity="1"/><path d="M6,12.5C6,12.7761424,6.22385764,13,6.50000006,13L8.5,13C8.7761424,13,9,12.7761424,9,12.5L9,11.5C9,11.22385764,8.7761424,11,8.5,11L6.50000006,11C6.22385764,11,6,11.22385764,6,11.50000006L6,12.5Z" fill="#000000" fill-opacity="1" style="opacity:0.30000001192092896;"/><path d="M6,16.5C6,16.7761424,6.22385764,17,6.50000006,17L8.5,17C8.7761424,17,9,16.7761424,9,16.5L9,15.5C9,15.22385764,8.7761424,15,8.5,15L6.50000006,15C6.22385764,15,6,15.22385764,6,15.50000006L6,16.5Z" fill="#000000" fill-opacity="1" style="opacity:0.30000001192092896;"/><path d="M11,6.50000006L11,8.5C11,8.7761424,11.22385764,9,11.50000006,9L17.5000005,9C17.7761431,9,18.0000005,8.7761424,18.0000005,8.5L18.0000005,6.50000006C18.0000005,6.22385764,17.7761431,6,17.5000005,6L11.50000006,6C11.22385764,6,11,6.22385764,11,6.50000006Z" fill="#2882FF" fill-opacity="1"/><path d="M11,11.50000006L11,12.5C11,12.7761424,11.22385764,13,11.50000006,13L17.5000005,13C17.7761431,13,18.0000005,12.7761424,18.0000005,12.5L18.0000005,11.5C18.0000005,11.22385764,17.7761431,11,17.5000005,11L11.50000006,11C11.22385764,11,11,11.22385764,11,11.50000006Z" fill="#000000" fill-opacity="1" style="opacity:0.30000001192092896;"/><path d="M11,15.50000006L11,16.5C11,16.7761424,11.22385764,17,11.50000006,17L17.5000005,17C17.7761431,17,18.0000005,16.7761424,18.0000005,16.5L18.0000005,15.5C18.0000005,15.22385764,17.7761431,15,17.5000005,15L11.50000006,15C11.22385764,15,11,15.22385764,11,15.50000006Z" fill="#000000" fill-opacity="1" style="opacity:0.30000001192092896;"/><path d="M19.25,11.5L19.25,15.75L19.250151,15.75Q19.250149,15.823853,19.264557,15.896288Q19.278965,15.968722,19.307228,16.036955Q19.335491,16.105186,19.376522,16.166595Q19.417553,16.228001,19.469776,16.280224Q19.521997,16.332445,19.583405,16.373476Q19.64481,16.414507,19.713043,16.44277Q19.781277,16.471033,19.85371,16.485441Q19.926147,16.499848999999998,20,16.499850000000002Q20.073853,16.499848999999998,20.146288,16.485441Q20.218721,16.471033,20.286953,16.44277Q20.355185,16.414507,20.416592,16.373476Q20.478001,16.332445,20.530222,16.280224Q20.582443,16.228001,20.623474,16.166594Q20.664505,16.105186,20.692768,16.036954Q20.721031,15.968721,20.735439,15.896288Q20.749847,15.823853,20.749849,15.75L20.75,15.75L20.75,4.5000005000000005Q20.75,3.56801951,20.09099,2.909009755Q19.43198,2.24999994,18.5,2.25L4.5000005000000005,2.25Q3.56801963,2.25,2.909009814,2.909009755Q2.25,3.56801951,2.25,4.5000002L2.25,18.5Q2.25,19.43198,2.909009755,20.09099Q3.56801957,20.75,4.5000002,20.75L15.75,20.75L15.75,20.749849Q15.823853,20.749847,15.896288,20.735439Q15.968722,20.721031,16.036955,20.692768Q16.105186,20.664505,16.166595,20.623474Q16.228001,20.582443,16.280224,20.530222Q16.332445,20.478001,16.373476,20.416592Q16.414507,20.355185,16.44277,20.286953Q16.471033,20.218721,16.485441,20.146288Q16.499848999999998,20.073853,16.499850000000002,20Q16.499848999999998,19.926147,16.485441,19.85371Q16.471033,19.781277,16.44277,19.713043Q16.414507,19.64481,16.373476,19.583405Q16.332445,19.521997,16.280224,19.469776Q16.228001,19.417553,16.166594,19.376522Q16.105186,19.335491,16.036954,19.307228Q15.968721,19.278967,15.896288,19.264559Q15.823853,19.250151,15.75,19.250151L15.75,19.25L4.5000002,19.25Q3.75,19.25,3.75,18.5L3.75,4.5000002Q3.75,3.75,4.5000005000000005,3.75L18.5,3.75Q19.25,3.75,19.25,4.5000005000000005L19.25,11.5Z" fill-rule="evenodd" fill="#231F2E" fill-opacity="1"/><ellipse cx="18.75" cy="18.75" rx="4.75" ry="4.75" fill="#FFFFFF" fill-opacity="1"/><g><path d="M18.0126953,19.8085938Q17.9658203,19.8417969,17.8457031,19.8994141Q17.7255859,19.9570312,17.5146484,20.0019531Q17.3037109,20.046875,16.9853516,20.046875Q16.5576172,20.046875,16.24804688,19.9052734Q15.93847656,19.7636719,15.77246094,19.4462891Q15.60644531,19.1289062,15.60644531,18.6054688Q15.60644531,17.9082031,15.96386719,17.5302734Q16.3212891,17.1523438,16.9599609,17.1523438Q17.2646484,17.1523438,17.4462891,17.2109375Q17.6279297,17.2695312,17.7216797,17.3476562Q17.8154297,17.4257812,17.8525391,17.484375Q17.8662109,17.5058594,17.8720703,17.5224609Q17.8779297,17.5390625,17.8798828,17.5742188Q17.8857422,17.6210938,17.8828125,17.7109375Q17.8798828,17.8007812,17.8681641,17.8691406Q17.8603516,17.9121094,17.8427734,17.9257812Q17.8349609,17.9335938,17.8154297,17.9394531Q17.7958984,17.9453125,17.7568359,17.9453125Q17.6943359,17.9453125,17.6113281,17.9404297Q17.5283203,17.9355469,17.4892578,17.9296875Q17.4423828,17.921875,17.421875,17.9072266Q17.4013672,17.8925781,17.3779297,17.8613281Q17.3544922,17.8300781,17.3134766,17.7880859Q17.2724609,17.7460938,17.1894531,17.7128906Q17.1064453,17.6796875,16.9599609,17.6796875Q16.6376953,17.6796875,16.4541016,17.9130859Q16.2705078,18.1464844,16.2705078,18.5839844Q16.2705078,19.0429688,16.4609375,19.28125Q16.6513672,19.5195312,17.0087891,19.5195312Q17.1884766,19.5195312,17.2734375,19.4931641Q17.3583984,19.4667969,17.3818359,19.453125L17.3818359,18.8457031Q17.3818359,18.7890625,17.4013672,18.7597656Q17.4892578,18.6308594,17.6474609,18.4882812Q17.6767578,18.4648438,17.6982422,18.4648438Q17.7216797,18.4648438,17.7470703,18.4882812Q17.8330078,18.5625,17.8916016,18.6298828Q17.9501953,18.6972656,17.9931641,18.7597656Q18.0126953,18.7910156,18.0126953,18.8457031L18.0126953,19.8085938ZM19.4716797,20.0488281Q19.1416016,20.0488281,18.8974609,19.9423828Q18.6533203,19.8359375,18.5185547,19.6113281Q18.3837891,19.3867188,18.3837891,19.03125Q18.3837891,18.4980469,18.6572266,18.2246094Q18.9306641,17.9511719,19.3837891,17.9511719Q19.6787109,17.9511719,19.8828125,18.0566406Q20.0869141,18.1621094,20.1933594,18.3476562Q20.2998047,18.5332031,20.2998047,18.7714844Q20.2998047,19.0039062,20.1806641,19.0957031Q20.0615234,19.1875,19.8330078,19.1875L18.9951172,19.1875Q19.0107422,19.3886719,19.1425781,19.4941406Q19.2744141,19.5996094,19.5009766,19.5996094Q19.6806641,19.5996094,19.7890625,19.5458984Q19.8974609,19.4921875,19.9404297,19.4609375Q19.9775391,19.4335938,20.0244141,19.4355469Q20.0615234,19.4355469,20.1308594,19.4501953Q20.2001953,19.4648438,20.2685547,19.5039062Q20.3173828,19.5292969,20.3173828,19.5742188Q20.3173828,19.5996094,20.3076172,19.6464844Q20.3017578,19.6738281,20.2880859,19.7255859Q20.2744141,19.7773438,20.2529297,19.8222656Q20.2412109,19.84375,20.2158203,19.8632812Q20.1767578,19.890625,20.0898438,19.9355469Q20.0029297,19.9804688,19.8525391,20.0146484Q19.7021484,20.0488281,19.4716797,20.0488281ZM18.9912109,18.7871094L19.6279297,18.7871094Q19.7275391,18.7871094,19.7275391,18.6953125Q19.7275391,18.5566406,19.640625,18.4619141Q19.5537109,18.3671875,19.3798828,18.3671875Q19.1904297,18.3671875,19.1015625,18.4882812Q19.0126953,18.609375,18.9912109,18.7871094ZM21.5009766,20.0488281Q20.8486328,20.0488281,20.8486328,19.3710938L20.8486328,18.4550781L20.6279297,18.4550781Q20.5693359,18.4550781,20.546875,18.4306641Q20.5244141,18.40625,20.5244141,18.3476562L20.5244141,18.1074219Q20.5244141,18.0488281,20.546875,18.0244141Q20.5693359,18,20.6279297,18L20.8486328,18L20.8486328,17.6855469Q20.8486328,17.6386719,20.8681641,17.6132812Q20.9501953,17.5058594,21.1083984,17.3808594Q21.1357422,17.3613281,21.1572266,17.3613281Q21.1806641,17.3613281,21.2041016,17.3808594Q21.2880859,17.4453125,21.3457031,17.5019531Q21.4033203,17.5585938,21.4443359,17.6132812Q21.4638672,17.6386719,21.4638672,17.6855469L21.4638672,18L21.8095703,18Q21.8681641,18,21.890625,18.0244141Q21.9130859,18.0488281,21.9130859,18.1074219L21.9130859,18.3476562Q21.9130859,18.40625,21.890625,18.4306641Q21.8681641,18.4550781,21.8095703,18.4550781L21.4638672,18.4550781L21.4638672,19.2636719Q21.4638672,19.5761719,21.6904297,19.5761719Q21.7255859,19.5761719,21.7548828,19.5693359Q21.7841797,19.5625,21.8056641,19.5546875Q21.8466797,19.5390625,21.8632812,19.5429688Q21.8798828,19.546875,21.8935547,19.5859375L22.0068359,19.8886719Q22.0244141,19.9375,21.9833984,19.9589844Q21.9541016,19.9726562,21.8417969,20.0107422Q21.7294922,20.0488281,21.5009766,20.0488281Z" fill="#2882FF" fill-opacity="1"/></g></g></svg>