<svg xmlns="http://www.w3.org/2000/svg" xmlns:xlink="http://www.w3.org/1999/xlink" fill="none" version="1.1" width="24" height="24" viewBox="0 0 24 24"><defs><clipPath id="master_svg0_389_19089"><rect x="-1.75" y="-1.75" width="27.5" height="27.5" rx="0"/></clipPath></defs><g clip-path="url(#master_svg0_389_19089)"><path d="M7.25,9.75L7.25,3.25L14.75,3.25L14.75,9.75L7.25,9.75ZM13.250000499999999,4.75L8.75,4.75L8.75,8.25L13.250000499999999,8.25L13.250000499999999,4.75Z" fill-rule="evenodd" fill="#736F78" fill-opacity="1"/><path d="M1.25,14.75L1.25,8.25L8.75,8.25L8.75,14.75L1.25,14.75ZM7.2500005,9.75L2.75,9.75L2.75,13.25L7.2500005,13.25L7.2500005,9.75Z" fill-rule="evenodd" fill="#736F78" fill-opacity="1"/><path d="M13.25,9.75L20.75,9.75L20.75,5.5000004Q20.75,4.56802005,20.0909901,3.909009896Q19.4319806,3.24999982,18.5000005,3.24999982L13.25,3.25L13.25,9.75ZM19.2500005,8.25L19.2500005,5.5000004Q19.2500005,5.1893399,19.0303307,4.96966982Q18.8106604,4.74999988,18.5000005,4.74999988L14.75,4.75L14.75,8.25L19.2500005,8.25Z" fill-rule="evenodd" fill="#736F78" fill-opacity="1"/><path d="M13.25,14.75L13.25,8.25L20.75,8.25L20.75,14.75L13.25,14.75ZM19.2500005,9.75L14.75,9.75L14.75,13.25L19.2500005,13.25L19.2500005,9.75Z" fill-rule="evenodd" fill="#736F78" fill-opacity="1"/><path d="M7.25,19.75L7.25,13.25L14.75,13.25L14.75,19.75L7.25,19.75ZM13.250000499999999,14.75L8.75,14.75L8.75,18.25L13.250000499999999,18.25L13.250000499999999,14.75Z" fill-rule="evenodd" fill="#736F78" fill-opacity="1"/><path d="M20.090988,19.090989999999998Q20.749998,18.431981,20.749998,17.500000999999997L20.749998,5.5000004Q20.749998,4.56801933,20.090988,3.909009755Q19.43198,3.25,18.5,3.25000012L3.5000007,3.25Q2.56801987,3.25,1.909009978,3.909009755Q1.2500001200000002,4.56801951,1.25000018,5.5000004L1.25,17.5Q1.25,18.43198,1.90901003,19.090989999999998Q2.56801862,19.749997999999998,3.5000001999999997,19.749997999999998L18.5,19.749997999999998Q19.43198,19.749997999999998,20.090988,19.090989999999998ZM19.25,5.5000004L19.25,17.5Q19.25,18.249999000000003,18.5,18.249999000000003L3.5000001999999997,18.249999000000003Q2.75,18.249999000000003,2.75,17.5L2.75000024,5.5000001Q2.75000018,5.1893398,2.96967,4.96967Q3.18934,4.75,3.5000007,4.75L18.5,4.75000012Q18.810659,4.75000012,19.030329,4.96967Q19.25,5.1893411,19.25,5.5000004Z" fill-rule="evenodd" fill="#231F2E" fill-opacity="1"/><path d="M14.2499999,15.5L14.2499999,16.2861864Q14.2501009,17.2353719,14.8886342,17.9378834L16.014705996,19.176562099999998L16.014705996,21.5Q16.014705996,21.7839856,16.10451015,22.0533986Q16.13169688,22.1349592,16.16674697,22.2134619Q16.20179707,22.2919645,16.24437298,22.366653Q16.28694892,22.4413424,16.33664066,22.5114989Q16.38633239,22.5816555,16.44266135,22.6466026Q16.49899033,22.7115507,16.56141406,22.7706642Q16.62383783,22.8297777,16.69175518,22.8824883Q16.75967264,22.9351997,16.83242947,22.9809995Q16.9051863,23.0267992,16.98208195,23.065246600000002Q17.0589777,23.1036949,17.1392716,23.1344204Q17.2195656,23.1651459,17.3024844,23.1878529Q17.3854034,23.2105608,17.4701488,23.2250309Q17.5548942,23.239502,17.6406498,23.2455964Q17.7264056,23.2516913,17.8123457,23.249351Q17.8982859,23.2470107,17.9835827,23.236257600000002Q18.0688796,23.2255054,18.1527119,23.2064443Q18.2365441,23.1873827,18.3181043,23.1601958L20.4357514,22.4543142Q20.5656195,22.411025000000002,20.6871762,22.3480682Q20.808733,22.2851119,20.9190216,22.2040195Q21.0293102,22.1229267,21.1256475,22.0256705Q21.2219849,21.9284148,21.3020277,21.8173618Q21.3820701,21.7063084,21.4438705,21.5841599Q21.5056705,21.4620113,21.5477257,21.3317385Q21.5897808,21.2014656,21.6110668,21.0662379Q21.6323533,20.9310102,21.6323533,20.7941179L21.6323533,19.048402799999998L22.6774797,18.0032756Q23.3968363,17.2841417,23.397059,16.26658827L23.397059,15.5Q23.3970594,15.414028004,23.3886323,15.32846999Q23.3802056,15.24291196,23.3634329,15.15859193Q23.3466606,15.07427186,23.3217049,14.99200177Q23.2967482,14.90973175,23.2638474,14.83030403Q23.230947999999998,14.75087631,23.190421100000002,14.67505574Q23.1498938,14.59923524,23.1021299,14.52775216Q23.0543671,14.456269,22.9998274,14.3898119Q22.9452877,14.3233546,22.884495700000002,14.2625632Q22.8237047,14.2017717,22.7572474,14.1472318Q22.690790200000002,14.0926917,22.6193066,14.0449283Q22.5478239,13.997164699999999,22.472003,13.9566379Q22.3961821,13.9161109,22.3167543,13.8832109Q22.2373266,13.8503106,22.155057,13.8253541Q22.0727873,13.8003979,21.9884672,13.7836256Q21.9041471,13.7668532,21.818589199999998,13.7584264Q21.7330313,13.7499999,21.6470594,13.7499999L16,13.7499999Q15.914028004,13.7499999,15.82846999,13.7584264Q15.74291196,13.7668532,15.65859193,13.7836256Q15.57427186,13.8003979,15.49200177,13.8253542Q15.40973175,13.8503106,15.33030403,13.8832109Q15.25087631,13.9161109,15.17505574,13.9566379Q15.09923524,13.997164699999999,15.02775216,14.0449283Q14.956269,14.0926917,14.8898119,14.1472318Q14.8233546,14.2017717,14.7625632,14.2625632Q14.7017717,14.3233546,14.6472318,14.3898118Q14.5926917,14.456269,14.5449283,14.52775216Q14.497164699999999,14.59923524,14.4566379,14.67505574Q14.4161109,14.75087631,14.3832109,14.83030403Q14.3503106,14.90973175,14.3253541,14.99200183Q14.3003979,15.07427186,14.2836256,15.15859193Q14.2668532,15.24291196,14.2584264,15.32846999Q14.2499998,15.414028004,14.2499999,15.5Z" fill-rule="evenodd" fill="#FFFFFF" fill-opacity="1"/><path d="M15.25,15.5L15.25,16.28607994Q15.25005984,16.8487707,15.6285744,17.2652106L17.0147061,18.7899551L17.0147061,21.5Q17.0147061,21.6217079,17.0531936,21.7371707Q17.0765529,21.8072481,17.1131347,21.8714218Q17.1497166,21.935595499999998,17.1981155,21.9913998Q17.2465143,22.047204,17.30487,22.0924945Q17.3632257,22.137784500000002,17.4292958,22.1708198Q17.4953657,22.2038546,17.5666111,22.2233648Q17.6378562,22.242875599999998,17.711539,22.2481122Q17.7852218,22.2533484,17.8585103,22.2441096Q17.9317988,22.2348709,18.001876799999998,22.2115121L20.119524,21.5056305Q20.1751814,21.4870777,20.2272773,21.4600964Q20.279373200000002,21.433115,20.3266397,21.3983612Q20.3739061,21.3636074,20.415193600000002,21.3219261Q20.456481,21.2802448,20.4907851,21.2326512Q20.5250893,21.1850567,20.551575200000002,21.1327076Q20.5780611,21.080358,20.5960846,21.0245271Q20.6141081,20.9686956,20.6232309,20.910741299999998Q20.6323538,20.8527861,20.6323533,20.7941179L20.6323533,18.6341901L21.9704823,17.2960591Q22.3969274,16.8697463,22.3970594,16.26658827L22.3970594,15.5Q22.397059,15.426131457,22.3826475,15.35368228Q22.368236500000002,15.28123312,22.3399682,15.21298748Q22.3116999,15.14474183,22.2706604,15.08332238Q22.229621899999998,15.02190292,22.1773891,14.96966994Q22.1251559,14.91743702,22.063736,14.87639785Q22.0023165,14.83535868,21.9340711,14.8070904Q21.865825700000002,14.77882212,21.7933764,14.76441109Q21.7209272,14.75,21.6470594,14.75L16,14.75Q15.926131457,14.75,15.85368228,14.76441109Q15.78123312,14.77882212,15.71298748,14.8070904Q15.64474183,14.83535868,15.58332238,14.87639785Q15.52190292,14.91743702,15.46966994,14.96966994Q15.41743702,15.02190292,15.37639785,15.08332238Q15.33535868,15.14474183,15.3070904,15.21298748Q15.27882212,15.28123312,15.26441109,15.35368228Q15.25,15.426131457,15.25,15.5ZM16.75,16.26886845L18.3196611,17.9954953Q18.4137888,18.0990357,18.4642475,18.2295525Q18.5147061,18.3600693,18.5147061,18.5L18.5147061,20.4594307L19.1323533,20.2535481L19.1323533,18.3235297Q19.1323533,18.1743455,19.1894436,18.0365171Q19.2465339,17.898689,19.3520229,17.7931998L20.8952212,16.25L16.75,16.25L16.75,16.26886845Z" fill-rule="evenodd" fill="#3B82F6" fill-opacity="1"/></g></svg>