<svg xmlns="http://www.w3.org/2000/svg" xmlns:xlink="http://www.w3.org/1999/xlink" fill="none" version="1.1" width="24" height="24" viewBox="0 0 24 24"><defs><clipPath id="master_svg0_72_05245"><rect x="0" y="0" width="24" height="24" rx="0"/></clipPath></defs><g clip-path="url(#master_svg0_72_05245)"><g><g><g><path d="M7.25,9.75L7.25,3.25L14.75,3.25L14.75,9.75L7.25,9.75ZM13.25,4.75L8.75,4.75L8.75,8.25L13.25,8.25L13.25,4.75Z" fill-rule="evenodd" fill="#736F78" fill-opacity="1"/></g><g><path d="M13.25,9.75L20.75,9.75L20.75,5.5Q20.75,4.56802,20.090989999999998,3.9090099Q19.43198,3.25,18.5,3.25L13.25,3.25L13.25,9.75ZM19.25,8.25L19.25,5.5Q19.25,5.18934,19.03033,4.96967Q18.81066,4.75,18.5,4.75L14.75,4.75L14.75,8.25L19.25,8.25Z" fill-rule="evenodd" fill="#736F78" fill-opacity="1"/></g><g><path d="M13.25,14.75L13.25,8.25L20.75,8.25L20.75,14.75L13.25,14.75ZM19.25,9.75L14.75,9.75L14.75,13.25L19.25,13.25L19.25,9.75Z" fill-rule="evenodd" fill="#736F78" fill-opacity="1"/></g><g><path d="M7.25,19.75L7.25,13.25L14.75,13.25L14.75,19.75L7.25,19.75ZM13.25,14.75L8.75,14.75L8.75,18.25L13.25,18.25L13.25,14.75Z" fill-rule="evenodd" fill="#736F78" fill-opacity="1"/></g><g><path d="M13.25,19.75L13.25,13.25L20.75,13.25L20.75,19.75L13.25,19.75ZM19.25,14.75L14.75,14.75L14.75,18.25L19.25,18.25L19.25,14.75Z" fill-rule="evenodd" fill="#736F78" fill-opacity="1"/></g><g><path d="M7.25,14.75L7.25,8.25L14.75,8.25L14.75,14.75L7.25,14.75ZM13.25,9.75L8.75,9.75L8.75,13.25L13.25,13.25L13.25,9.75Z" fill-rule="evenodd" fill="#736F78" fill-opacity="1"/></g><g><path d="M1.25,14.75L1.25,8.25L8.75,8.25L8.75,14.75L1.25,14.75ZM7.25,9.75L2.75,9.75L2.75,13.25L7.25,13.25L7.25,9.75Z" fill-rule="evenodd" fill="#736F78" fill-opacity="1"/></g></g><g><path d="M20.091,19.091Q20.75,18.432000000000002,20.75,17.5L20.75,5.5Q20.75,4.56802,20.091,3.9090098Q19.432,3.25,18.5,3.25L3.5,3.25Q2.5680199999999997,3.25,1.90901,3.9090098Q1.25,4.568019,1.25,5.5L1.25,17.5Q1.25,18.432000000000002,1.90901,19.091Q2.568019,19.75,3.5,19.75L18.5,19.75Q19.432,19.75,20.091,19.091ZM19.25,5.5L19.25,17.5Q19.25,18.25,18.5,18.25L3.5,18.25Q2.75,18.25,2.75,17.5L2.75,5.5Q2.75,5.18934,2.96967,4.96967Q3.18934,4.75,3.5,4.75L18.5,4.75Q18.8107,4.75,19.0303,4.96967Q19.25,5.18934,19.25,5.5Z" fill-rule="evenodd" fill="#231F2E" fill-opacity="1"/></g></g><g><g><ellipse cx="18.75" cy="18.75" rx="4.75" ry="4.75" fill="#FF4444" fill-opacity="1"/><path d="M23.5,18.75Q23.5,18.86661,23.49428,18.983069999999998Q23.48856,19.09954,23.477130000000002,19.21558Q23.4657,19.33163,23.44859,19.44697Q23.43148,19.56231,23.40873,19.67668Q23.38598,19.79104,23.35765,19.90415Q23.32931,20.01727,23.29547,20.12885Q23.26162,20.24044,23.22233,20.35023Q23.18305,20.46002,23.13843,20.56775Q23.0938,20.67547,23.043950000000002,20.78089Q22.99409,20.8863,22.939120000000003,20.98913Q22.88416,21.09197,22.82421,21.19199Q22.76426,21.292,22.69948,21.38896Q22.634700000000002,21.48591,22.56523,21.57957Q22.49577,21.67323,22.421799999999998,21.763370000000002Q22.34782,21.8535,22.26952,21.9399Q22.191209999999998,22.0263,22.10876,22.10876Q22.0263,22.191209999999998,21.9399,22.26952Q21.8535,22.34782,21.763370000000002,22.421799999999998Q21.67323,22.49577,21.57957,22.56523Q21.48591,22.634700000000002,21.38896,22.69948Q21.292,22.76426,21.19199,22.82421Q21.09197,22.88416,20.98913,22.93913Q20.8863,22.99409,20.78089,23.043950000000002Q20.67547,23.0938,20.56775,23.13843Q20.46002,23.18305,20.35023,23.22233Q20.24044,23.26162,20.12885,23.29547Q20.01727,23.32931,19.90415,23.35765Q19.79104,23.38598,19.67668,23.40873Q19.56231,23.43148,19.44697,23.44859Q19.33163,23.4657,19.21558,23.477130000000002Q19.09954,23.48856,18.983069999999998,23.49428Q18.86661,23.5,18.75,23.5Q18.63339,23.5,18.516930000000002,23.49428Q18.40046,23.48856,18.28442,23.477130000000002Q18.16837,23.4657,18.05303,23.44859Q17.93769,23.43148,17.82332,23.40873Q17.70896,23.38598,17.59584,23.35765Q17.48273,23.32931,17.37115,23.29547Q17.25956,23.26162,17.14977,23.22233Q17.03998,23.18305,16.93225,23.13843Q16.82452,23.0938,16.71911,23.043950000000002Q16.6137,22.99409,16.51087,22.939120000000003Q16.40803,22.88416,16.30801,22.82421Q16.208,22.76426,16.11104,22.69948Q16.01409,22.634700000000002,15.92043,22.56523Q15.82677,22.49577,15.73663,22.421799999999998Q15.64649,22.34782,15.5601,22.26952Q15.473700000000001,22.191209999999998,15.39124,22.10876Q15.30879,22.0263,15.23048,21.9399Q15.15217,21.8535,15.0782,21.763370000000002Q15.00423,21.67323,14.934764,21.57957Q14.865302,21.48591,14.800519,21.38896Q14.735736,21.292,14.675789,21.19199Q14.615842,21.09197,14.560874,20.98913Q14.505906,20.8863,14.456051,20.78089Q14.406195,20.67547,14.361572,20.56775Q14.316949,20.46002,14.277666,20.35023Q14.238382,20.24044,14.204533,20.12885Q14.170684,20.01727,14.142352,19.90415Q14.114019,19.79104,14.0912699,19.67668Q14.0685212,19.56231,14.0514116,19.44697Q14.0343019,19.33163,14.0228725,19.21558Q14.0114432,19.09954,14.00572158,18.983069999999998Q14,18.86661,14,18.75Q14,18.63339,14.00572158,18.516930000000002Q14.0114432,18.40046,14.0228725,18.28442Q14.0343019,18.16837,14.0514116,18.05303Q14.0685212,17.93769,14.0912699,17.82332Q14.114019,17.70896,14.142352,17.59584Q14.170684,17.48273,14.204533,17.37115Q14.238382,17.25956,14.277666,17.14977Q14.316949,17.03998,14.361572,16.93225Q14.406195,16.82452,14.456051,16.71911Q14.505906,16.6137,14.560874,16.51087Q14.615842,16.40803,14.675789,16.30801Q14.735736,16.208,14.800519,16.11104Q14.865302,16.01409,14.934764,15.92043Q15.00423,15.82677,15.0782,15.73663Q15.15217,15.64649,15.23048,15.5601Q15.30879,15.473700000000001,15.39124,15.39124Q15.473700000000001,15.30879,15.56009,15.23048Q15.64649,15.15217,15.73663,15.0782Q15.82677,15.00423,15.92043,14.934764Q16.01409,14.865302,16.11104,14.800519Q16.208,14.735736,16.30801,14.675789Q16.40803,14.615842,16.51087,14.560874Q16.6137,14.505906,16.71911,14.456051Q16.82452,14.406195,16.93225,14.361572Q17.03998,14.316949,17.14977,14.277666Q17.25956,14.238382,17.37115,14.204533Q17.48273,14.170684,17.59584,14.142352Q17.70896,14.114019,17.82332,14.0912699Q17.93769,14.0685212,18.05303,14.0514116Q18.16837,14.0343019,18.28442,14.0228725Q18.40046,14.0114432,18.516930000000002,14.00572158Q18.63339,14,18.75,14Q18.86661,14,18.983069999999998,14.00572158Q19.09954,14.0114432,19.21558,14.0228725Q19.33163,14.0343019,19.44697,14.0514116Q19.56231,14.0685212,19.67668,14.0912699Q19.79104,14.114019,19.90415,14.142352Q20.01727,14.170684,20.12885,14.204533Q20.24044,14.238382,20.35023,14.277666Q20.46002,14.316949,20.56775,14.361572Q20.67547,14.406195,20.78089,14.456051Q20.8863,14.505906,20.98913,14.560874Q21.09197,14.615842,21.19199,14.675789Q21.292,14.735736,21.38896,14.800519Q21.48591,14.865302,21.57957,14.934764Q21.67323,15.00423,21.763370000000002,15.0782Q21.8535,15.15217,21.9399,15.23048Q22.0263,15.30879,22.10876,15.39124Q22.191209999999998,15.473700000000001,22.26952,15.56009Q22.34782,15.64649,22.421799999999998,15.73663Q22.49577,15.82677,22.56523,15.92043Q22.634700000000002,16.01409,22.69948,16.11104Q22.76426,16.208,22.82421,16.30801Q22.88416,16.40803,22.93913,16.51087Q22.99409,16.6137,23.043950000000002,16.71911Q23.0938,16.82452,23.13843,16.93225Q23.18305,17.03998,23.22233,17.14977Q23.26162,17.25956,23.29547,17.37115Q23.32931,17.48273,23.35765,17.59584Q23.38598,17.70896,23.40873,17.82332Q23.43148,17.93769,23.44859,18.05303Q23.4657,18.16837,23.477130000000002,18.28442Q23.48856,18.40046,23.49428,18.516930000000002Q23.5,18.63339,23.5,18.75ZM22.5,18.75Q22.5,18.56577,22.48194,18.38244Q22.46388,18.1991,22.42794,18.01841Q22.392,17.83773,22.338520000000003,17.66143Q22.28505,17.48514,22.21455,17.31494Q22.14405,17.14473,22.057209999999998,16.98226Q21.97036,16.81979,21.868009999999998,16.66661Q21.76566,16.51343,21.648789999999998,16.37103Q21.53192,16.22862,21.40165,16.09835Q21.27138,15.96808,21.12897,15.85121Q20.98657,15.73434,20.83339,15.63199Q20.68021,15.52964,20.51774,15.4428Q20.35527,15.35595,20.18506,15.28545Q20.01486,15.21495,19.83857,15.16147Q19.66227,15.108,19.48159,15.07206Q19.3009,15.03611,19.11756,15.01806Q18.93423,15,18.75,15Q18.56577,15,18.38244,15.01806Q18.1991,15.03611,18.01841,15.07206Q17.83773,15.108,17.66143,15.16147Q17.48514,15.21495,17.31494,15.28545Q17.14473,15.35595,16.98226,15.4428Q16.81979,15.52964,16.66661,15.63199Q16.51343,15.73434,16.37103,15.85121Q16.22862,15.96808,16.09835,16.09835Q15.96808,16.22862,15.85121,16.37103Q15.73434,16.51343,15.63199,16.66661Q15.52964,16.81979,15.4428,16.98226Q15.35595,17.14473,15.28545,17.31494Q15.21495,17.48514,15.16147,17.66143Q15.108,17.83773,15.07206,18.01841Q15.03611,18.1991,15.01806,18.38244Q15,18.56577,15,18.75Q15,18.93423,15.01806,19.11756Q15.03611,19.3009,15.07205,19.48159Q15.108,19.66227,15.16147,19.83857Q15.21495,20.01486,15.28545,20.18506Q15.35595,20.35526,15.4428,20.51774Q15.52964,20.68021,15.63199,20.83339Q15.73434,20.98657,15.85121,21.12897Q15.96808,21.27138,16.09835,21.40165Q16.22862,21.53192,16.37103,21.648789999999998Q16.51343,21.76566,16.66661,21.868009999999998Q16.81979,21.97036,16.98226,22.0572Q17.14473,22.14405,17.31494,22.21455Q17.48514,22.28505,17.66143,22.33853Q17.83773,22.392,18.01841,22.42794Q18.1991,22.46388,18.38244,22.48194Q18.56577,22.5,18.75,22.5Q18.93423,22.5,19.11756,22.48194Q19.3009,22.46388,19.48159,22.42794Q19.66227,22.392,19.83857,22.338520000000003Q20.01486,22.28505,20.18506,22.21455Q20.35526,22.14405,20.51774,22.057209999999998Q20.68021,21.97036,20.83339,21.868009999999998Q20.98657,21.76566,21.12897,21.648789999999998Q21.27138,21.53192,21.40165,21.40165Q21.53192,21.27138,21.648789999999998,21.12897Q21.76566,20.98657,21.868009999999998,20.83339Q21.97036,20.68021,22.0572,20.51774Q22.14405,20.35527,22.21455,20.18506Q22.28505,20.01486,22.33853,19.83857Q22.392,19.66227,22.42794,19.48159Q22.46388,19.3009,22.48194,19.11756Q22.5,18.93423,22.5,18.75Z" fill="#FFFFFF" fill-opacity="1"/></g><g><rect x="16.75" y="18.25" width="4" height="1" rx="0.5" fill="#FFFFFF" fill-opacity="1"/></g></g></g></svg>