<svg xmlns="http://www.w3.org/2000/svg" xmlns:xlink="http://www.w3.org/1999/xlink" fill="none" version="1.1" width="24" height="24" viewBox="0 0 24 24"><defs><clipPath id="master_svg0_70_02429"><rect x="0" y="0" width="24" height="24" rx="0"/></clipPath></defs><g clip-path="url(#master_svg0_70_02429)"><g><path d="M21.53033,13.53033Q21.63582,13.424841,21.69291,13.287013Q21.75,13.149184,21.75,13Q21.75,12.9261315,21.735590000000002,12.853682Q21.72118,12.781233,21.69291,12.712987Q21.66464,12.644742,21.6236,12.583322Q21.58256,12.521903,21.53033,12.46967Q21.4781,12.417437,21.41668,12.376398Q21.35526,12.335359,21.287010000000002,12.30709Q21.21877,12.278822,21.14632,12.264410999999999Q21.07387,12.25,21,12.25Q20.85082,12.25,20.712989999999998,12.30709Q20.57516,12.364181,20.46967,12.46967L13.46967,19.46967Q13.364181,19.57516,13.30709,19.712989999999998Q13.25,19.85082,13.25,20Q13.25,20.07387,13.264410999999999,20.14632Q13.278822,20.21877,13.30709,20.287010000000002Q13.335359,20.35526,13.376398,20.41668Q13.417437,20.4781,13.46967,20.53033Q13.521903,20.58256,13.583322,20.6236Q13.644742,20.66464,13.712987,20.69291Q13.781233,20.72118,13.853682,20.735590000000002Q13.9261315,20.75,14,20.75Q14.149184,20.75,14.287013,20.69291Q14.424841,20.63582,14.53033,20.53033L14.530792,20.52987L21.52987,13.530792L21.53033,13.53033L21.53033,13.53033Z" fill-rule="evenodd" fill="#231F2E" fill-opacity="1"/></g><g><path d="M20.65168426437378,4.34835Q19.55328426437378,3.25,17.99998426437378,3.25L5.999984264373779,3.25Q4.446684264373779,3.25,3.3483342643737792,4.34835Q2.2499842643737793,5.4467,2.2499842643737793,7L2.2499842643737793,17Q2.2499842643737793,18.5533,3.3483342643737792,19.651699999999998Q4.446684264373779,20.75,5.999984264373779,20.75L13.99998426437378,20.75Q14.07388426437378,20.75,14.14628426437378,20.7356Q14.21878426437378,20.7212,14.28698426437378,20.6929Q14.355284264373779,20.6646,14.41668426437378,20.6236Q14.478084264373779,20.5826,14.53028426437378,20.5303Q14.582584264373779,20.4781,14.623584264373779,20.4167Q14.66458426437378,20.3553,14.69288426437378,20.287Q14.721184264373779,20.2188,14.735584264373779,20.1463Q14.74998426437378,20.0739,14.74998426437378,20L14.74998426437378,14.5Q14.74998426437378,13.75,15.49998426437378,13.75L20.99998426437378,13.75Q21.073884264373778,13.75,21.14628426437378,13.73559Q21.21878426437378,13.72118,21.28698426437378,13.69291Q21.35528426437378,13.66464,21.416684264373778,13.6236Q21.47808426437378,13.58256,21.53028426437378,13.53033Q21.58258426437378,13.4781,21.62358426437378,13.41668Q21.66458426437378,13.35526,21.69288426437378,13.28701Q21.72118426437378,13.21877,21.73558426437378,13.14632Q21.74998426437378,13.07387,21.74998426437378,13L21.74998426437378,7Q21.74998426437378,5.4467,20.65168426437378,4.34835ZM5.999984264373779,4.75L17.99998426437378,4.75Q18.93198426437378,4.75,19.59098426437378,5.40901Q20.24998426437378,6.068020000000001,20.24998426437378,7L20.24998426437378,12.25L15.49998426437378,12.25Q14.567984264373779,12.25,13.90898426437378,12.90901Q13.24998426437378,13.56802,13.24998426437378,14.5L13.24998426437378,19.25L5.999984264373779,19.25Q5.06800426437378,19.25,4.40899426437378,18.591Q3.7499842643737793,17.932000000000002,3.7499842643737793,17L3.7499842643737793,7Q3.7499842643737793,6.068020000000001,4.40899426437378,5.40901Q5.06800426437378,4.75,5.999984264373779,4.75Z" fill-rule="evenodd" fill="#231F2E" fill-opacity="1"/></g><g><path d="M7,8.25L17,8.25Q17.073900000000002,8.25,17.1463,8.264410999999999Q17.2188,8.278822,17.287,8.30709Q17.3553,8.335359,17.4167,8.376398Q17.478099999999998,8.417437,17.5303,8.46967Q17.5826,8.521903,17.6236,8.583322Q17.6646,8.644742,17.6929,8.712987Q17.7212,8.781233,17.735599999999998,8.853682Q17.75,8.9261315,17.75,9Q17.75,9.0738685,17.735599999999998,9.146318Q17.7212,9.218767,17.6929,9.287013Q17.6646,9.355258,17.6236,9.416678Q17.5826,9.478097,17.5303,9.53033Q17.478099999999998,9.582563,17.4167,9.623602Q17.3553,9.664641,17.287,9.69291Q17.2188,9.721178,17.1463,9.735589000000001Q17.073900000000002,9.75,17,9.75L7,9.75Q6.9261315,9.75,6.853682,9.735589000000001Q6.781233,9.721178,6.712987,9.69291Q6.644742,9.664641,6.583322,9.623602Q6.521903,9.582563,6.46967,9.53033Q6.417437,9.478097,6.376398,9.416678Q6.335359,9.355258,6.30709,9.287013Q6.278822,9.218767,6.264411,9.146318Q6.25,9.0738685,6.25,9Q6.25,8.9261315,6.264411,8.853682Q6.278822,8.781233,6.30709,8.712987Q6.335359,8.644742,6.376398,8.583322Q6.417437,8.521903,6.46967,8.46967Q6.521903,8.417437,6.583322,8.376398Q6.644742,8.335359,6.712987,8.30709Q6.781233,8.278822,6.853682,8.264410999999999Q6.9261315,8.25,7,8.25Z" fill-rule="evenodd" fill="#2882FF" fill-opacity="1"/></g><g><path d="M7,12.25L11,12.25Q11.07387,12.25,11.14632,12.264410999999999Q11.21877,12.278822,11.28701,12.30709Q11.355260000000001,12.335359,11.41668,12.376398Q11.478100000000001,12.417437,11.53033,12.46967Q11.58256,12.521903,11.6236,12.583322Q11.66464,12.644742,11.692910000000001,12.712987Q11.72118,12.781233,11.73559,12.853682Q11.75,12.9261315,11.75,13Q11.75,13.0738685,11.73559,13.146318Q11.72118,13.218767,11.692910000000001,13.287013Q11.66464,13.355258,11.6236,13.416678Q11.58256,13.478097,11.53033,13.53033Q11.478100000000001,13.582563,11.41668,13.623602Q11.355260000000001,13.664641,11.28701,13.69291Q11.21877,13.721178,11.14632,13.735589000000001Q11.07387,13.75,11,13.75L7,13.75Q6.9261315,13.75,6.853682,13.735589000000001Q6.781233,13.721178,6.712987,13.69291Q6.644742,13.664641,6.583322,13.623602Q6.521903,13.582563,6.46967,13.53033Q6.417437,13.478097,6.376398,13.416678Q6.335359,13.355258,6.30709,13.287013Q6.278822,13.218767,6.264411,13.146318Q6.25,13.0738685,6.25,13Q6.25,12.9261315,6.264411,12.853682Q6.278822,12.781233,6.30709,12.712987Q6.335359,12.644742,6.376398,12.583322Q6.417437,12.521903,6.46967,12.46967Q6.521903,12.417437,6.583322,12.376398Q6.644742,12.335359,6.712987,12.30709Q6.781233,12.278822,6.853682,12.264410999999999Q6.9261315,12.25,7,12.25Z" fill-rule="evenodd" fill="#2882FF" fill-opacity="1"/></g></g></svg>