<svg xmlns="http://www.w3.org/2000/svg" xmlns:xlink="http://www.w3.org/1999/xlink" fill="none" version="1.1" width="24" height="24" viewBox="0 0 24 24"><defs><clipPath id="master_svg0_72_04990"><rect x="0" y="0" width="24" height="24" rx="0"/></clipPath></defs><g clip-path="url(#master_svg0_72_04990)"><g><g><g><path d="M7.25,9.75L7.25,3.25L14.75,3.25L14.75,9.75L7.25,9.75ZM13.25,4.75L8.75,4.75L8.75,8.25L13.25,8.25L13.25,4.75Z" fill-rule="evenodd" fill="#736F78" fill-opacity="1"/></g><g><path d="M13.25,9.75L20.75,9.75L20.75,5.5Q20.75,4.56802,20.090989999999998,3.9090099Q19.43198,3.25,18.5,3.25L13.25,3.25L13.25,9.75ZM19.25,8.25L19.25,5.5Q19.25,5.18934,19.03033,4.96967Q18.81066,4.75,18.5,4.75L14.75,4.75L14.75,8.25L19.25,8.25Z" fill-rule="evenodd" fill="#736F78" fill-opacity="1"/></g><g><path d="M13.25,14.75L13.25,8.25L20.75,8.25L20.75,14.75L13.25,14.75ZM19.25,9.75L14.75,9.75L14.75,13.25L19.25,13.25L19.25,9.75Z" fill-rule="evenodd" fill="#736F78" fill-opacity="1"/></g><g><path d="M7.25,19.75L7.25,13.25L14.75,13.25L14.75,19.75L7.25,19.75ZM13.25,14.75L8.75,14.75L8.75,18.25L13.25,18.25L13.25,14.75Z" fill-rule="evenodd" fill="#736F78" fill-opacity="1"/></g><g><path d="M13.25,19.75L13.25,13.25L20.75,13.25L20.75,19.75L13.25,19.75ZM19.25,14.75L14.75,14.75L14.75,18.25L19.25,18.25L19.25,14.75Z" fill-rule="evenodd" fill="#736F78" fill-opacity="1"/></g><g><path d="M8,9L8,14L14,14L14,9L8,9Z" fill="#2882FF" fill-opacity="0.20000000298023224"/><path d="M7.25,14.75L7.25,8.25L14.75,8.25L14.75,14.75L7.25,14.75ZM13.25,9.75L8.75,9.75L8.75,13.25L13.25,13.25L13.25,9.75Z" fill-rule="evenodd" fill="#2882FF" fill-opacity="1"/></g></g><g><path d="M20.091,19.091Q20.75,18.432000000000002,20.75,17.5L20.75,5.5Q20.75,4.56802,20.091,3.9090098Q19.432,3.25,18.5,3.25L3.5,3.25Q2.5680199999999997,3.25,1.90901,3.9090098Q1.25,4.568019,1.25,5.5L1.25,17.5Q1.25,18.432000000000002,1.90901,19.091Q2.568019,19.75,3.5,19.75L18.5,19.75Q19.432,19.75,20.091,19.091ZM19.25,5.5L19.25,17.5Q19.25,18.25,18.5,18.25L3.5,18.25Q2.75,18.25,2.75,17.5L2.75,5.5Q2.75,5.18934,2.96967,4.96967Q3.18934,4.75,3.5,4.75L18.5,4.75Q18.8107,4.75,19.0303,4.96967Q19.25,5.18934,19.25,5.5Z" fill-rule="evenodd" fill="#231F2E" fill-opacity="1"/></g><g><path d="M8,4L8,9L14,9L14,4L8,4Z" fill="#2882FF" fill-opacity="0.20000000298023224"/><path d="M7.25,9.75L7.25,3.25L14.75,3.25L14.75,9.75L7.25,9.75ZM13.25,4.75L8.75,4.75L8.75,8.25L13.25,8.25L13.25,4.75Z" fill-rule="evenodd" fill="#2882FF" fill-opacity="1"/></g><g><path d="M8,14L8,19L14,19L14,14L8,14Z" fill="#2882FF" fill-opacity="0.20000000298023224"/><path d="M7.25,19.75L7.25,13.25L14.75,13.25L14.75,19.75L7.25,19.75ZM13.25,14.75L8.75,14.75L8.75,18.25L13.25,18.25L13.25,14.75Z" fill-rule="evenodd" fill="#2882FF" fill-opacity="1"/></g><g><g><path d="M2,14L2,17.5C2,18.32843,2.671573,19,3.5,19L8,19L8,14L2,14Z" fill="#2882FF" fill-opacity="0.20000000298023224"/><path d="M3.5,19.75L8.75,19.75L8.75,13.25L1.25,13.25L1.25,17.5Q1.25,18.43198,1.9090098,19.090989999999998Q2.5680199999999997,19.75,3.5,19.75ZM7.25,18.25L3.5,18.25Q3.18934,18.25,2.96967,18.03033Q2.75,17.81066,2.75,17.5L2.75,14.75L7.25,14.75L7.25,18.25Z" fill-rule="evenodd" fill="#2882FF" fill-opacity="1"/></g><g><path d="M2,5.5L2,9L8,9L8,4L3.5,4C2.671573,4,2,4.671573,2,5.5Z" fill="#2882FF" fill-opacity="0.20000000298023224"/><path d="M1.25,9.75L8.75,9.75L8.75,3.25L3.5,3.25Q2.5680199999999997,3.25,1.9090097,3.9090098Q1.25,4.56802,1.25,5.5L1.25,9.75ZM7.25,8.25L2.75,8.25L2.75,5.5Q2.75,5.18934,2.96967,4.96967Q3.18934,4.75,3.5,4.75L7.25,4.75L7.25,8.25Z" fill-rule="evenodd" fill="#2882FF" fill-opacity="1"/></g><g><path d="M2,9L2,14L8,14L8,9L2,9Z" fill="#2882FF" fill-opacity="0.20000000298023224"/><path d="M1.25,14.75L1.25,8.25L8.75,8.25L8.75,14.75L1.25,14.75ZM7.25,9.75L2.75,9.75L2.75,13.25L7.25,13.25L7.25,9.75Z" fill-rule="evenodd" fill="#2882FF" fill-opacity="1"/></g></g><g><g><path d="M22.00057,19Q22.00057,19.14738,21.98612,19.29405Q21.97167,19.44072,21.94292,19.58527Q21.91416,19.72982,21.87137,19.87085Q21.82858,20.01189,21.77217,20.148049999999998Q21.71575,20.28421,21.64627,20.414189999999998Q21.57678,20.54417,21.494880000000002,20.666710000000002Q21.41299,20.78925,21.31947,20.90318Q21.22596,21.01711,21.12172,21.12132Q21.01749,21.22553,20.90354,21.319029999999998Q20.78959,21.41253,20.66703,21.494410000000002Q20.54446,21.57629,20.41446,21.64576Q20.28446,21.71524,20.14827,21.771639999999998Q20.01208,21.82804,19.87102,21.870820000000002Q19.72996,21.9136,19.58538,21.94236Q19.44081,21.97111,19.29411,21.98555Q19.14741,22,19,22Q18.85259,22,18.70589,21.98555Q18.55919,21.97111,18.41462,21.94235Q18.27004,21.9136,18.12898,21.870820000000002Q17.98792,21.82804,17.85173,21.771639999999998Q17.71554,21.71524,17.58554,21.64576Q17.45554,21.57629,17.33297,21.494410000000002Q17.21041,21.41253,17.09646,21.319029999999998Q16.982509,21.22553,16.878275,21.12132Q16.774041,21.01711,16.680526,20.90318Q16.587011,20.78925,16.505115,20.666710000000002Q16.423219,20.54417,16.353732,20.414189999999998Q16.284244,20.28421,16.227833,20.148049999999998Q16.171422,20.01189,16.128631,19.87085Q16.085841,19.72982,16.057083,19.58527Q16.028325,19.44072,16.0138764,19.29405Q15.999427875,19.14738,15.999427875,19Q15.999427875,18.85262,16.0138764,18.70595Q16.028325,18.55928,16.057083,18.41473Q16.085841,18.27018,16.128631,18.12915Q16.171422,17.98811,16.227833,17.85195Q16.284244,17.71579,16.353732,17.58581Q16.423219,17.45583,16.505115,17.33329Q16.587011,17.21075,16.680526,17.09682Q16.774041,16.982893,16.878275,16.87868Q16.982509,16.774466,17.09646,16.680969Q17.21041,16.587471,17.33297,16.505591Q17.45554,16.423711,17.58554,16.354236Q17.71554,16.284761,17.85173,16.228361Q17.98792,16.171961,18.12898,16.129179Q18.27004,16.0863967,18.41462,16.0576442Q18.55919,16.0288916,18.70589,16.0144458Q18.85259,16,19,16Q19.14741,16,19.29411,16.0144458Q19.44081,16.0288916,19.58538,16.0576442Q19.72996,16.0863967,19.87102,16.129179Q20.01208,16.171961,20.14827,16.228361Q20.28446,16.284761,20.41446,16.354236Q20.54446,16.423711,20.66703,16.505591Q20.78959,16.587471,20.90354,16.680969Q21.01749,16.774466,21.12172,16.87868Q21.22596,16.982893,21.31947,17.09682Q21.41299,17.21075,21.494880000000002,17.33329Q21.57678,17.45583,21.64627,17.58581Q21.71575,17.71579,21.77217,17.85195Q21.82858,17.98811,21.87137,18.12915Q21.91416,18.27018,21.94292,18.41473Q21.97167,18.55928,21.98612,18.70595Q22.00057,18.85262,22.00057,19Z" fill="#FFFFFF" fill-opacity="1"/><path d="M22.35818,15.640663Q20.96703,14.25,19,14.25Q17.03297,14.25,15.641822,15.640663Q14.25068,17.03133,14.25,18.998359999999998Q14.24932,20.96635,15.640663,22.35818Q17.03201,23.75,19,23.75Q20.96799,23.75,22.35934,22.35818Q23.75068,20.96635,23.75,18.998359999999998Q23.74932,17.03133,22.35818,15.640663ZM18.11627,18.11596Q18.48236,17.75,19,17.75Q19.51764,17.75,19.88373,18.11596Q20.24982,18.48193,20.25,18.99957Q20.25018,19.51746,19.88404,19.88373Q19.51789,20.25,19,20.25Q18.48211,20.25,18.11596,19.88373Q17.74982,19.51746,17.75,18.99957Q17.75018,18.48193,18.11627,18.11596Z" fill-rule="evenodd" fill="#FFFFFF" fill-opacity="1" style="mix-blend-mode:passthrough"/></g><g><rect x="16" y="18" width="6" height="2" rx="1" fill="#2882FF" fill-opacity="1"/></g><g><rect x="18" y="16" width="2" height="6" rx="1" fill="#2882FF" fill-opacity="1"/></g></g></g></g></svg>