<svg xmlns="http://www.w3.org/2000/svg" xmlns:xlink="http://www.w3.org/1999/xlink" fill="none" version="1.1" width="24" height="24" viewBox="0 0 24 24"><defs><clipPath id="master_svg0_72_05610"><rect x="0" y="0" width="24" height="24" rx="0"/></clipPath></defs><g clip-path="url(#master_svg0_72_05610)"><g><g></g><g><path d="M17.9202,3.176433Q15.4497,2.25,12,2.25Q8.55029,2.25,6.0798000000000005,3.176433Q3.249999,4.23761,3.249999,6Q3.25,7.76239,6.0798000000000005,8.82357Q8.55029,9.75,12,9.75Q15.4497,9.75,17.9202,8.82357Q20.75,7.76239,20.75,6Q20.75,4.23761,17.9202,3.176433ZM6.60649,4.58093Q8.822289999999999,3.75,12,3.75Q15.1777,3.75,17.3935,4.58093Q18.3706,4.9473199999999995,18.8738,5.39346Q19.25,5.72703,19.25,6Q19.25,6.27297,18.8738,6.60654Q18.3706,7.05268,17.3935,7.41907Q15.1777,8.25,12,8.25Q8.822289999999999,8.25,6.60649,7.41907Q5.62943,7.05268,5.12623,6.60654Q4.75,6.27297,4.749999,6Q4.749999,5.72703,5.12623,5.39346Q5.62943,4.9473199999999995,6.60649,4.58093Z" fill-rule="evenodd" fill="#231F2E" fill-opacity="1" style="mix-blend-mode:passthrough"/></g><g><path d="M3.25,6Q3.25,5.9261315,3.264411,5.853682Q3.278822,5.781233,3.30709,5.712987Q3.335359,5.644742,3.376398,5.583322Q3.417437,5.521903,3.46967,5.46967Q3.521903,5.417437,3.583322,5.376398Q3.644742,5.335359,3.712987,5.30709Q3.781233,5.278822,3.853682,5.264411Q3.9261315,5.25,4,5.25Q4.0738685,5.25,4.146318,5.264411Q4.218767,5.278822,4.287013,5.30709Q4.355258,5.335359,4.416678,5.376398Q4.478097,5.417437,4.53033,5.46967Q4.582563,5.521903,4.623602,5.583322Q4.664641,5.644742,4.69291,5.712987Q4.721178,5.781233,4.735589,5.853682Q4.75,5.9261315,4.75,6L4.75,12Q4.75,12.72289,6.60649,13.41907Q8.822289999999999,14.25,12,14.25Q15.1777,14.25,17.3935,13.41907Q19.25,12.72289,19.25,12L19.25,6Q19.25,5.9261315,19.264400000000002,5.853682Q19.2788,5.781233,19.3071,5.712987Q19.3354,5.644742,19.3764,5.583322Q19.4174,5.521903,19.4697,5.46967Q19.521900000000002,5.417437,19.5833,5.376398Q19.6447,5.335359,19.713,5.30709Q19.7812,5.278822,19.8537,5.264411Q19.926099999999998,5.25,20,5.25Q20.0739,5.25,20.1463,5.264411Q20.2188,5.278822,20.287,5.30709Q20.3553,5.335359,20.4167,5.376398Q20.4781,5.417437,20.5303,5.46967Q20.5826,5.521903,20.6236,5.583322Q20.6646,5.644742,20.6929,5.712987Q20.7212,5.781233,20.7356,5.853682Q20.75,5.9261315,20.75,6L20.75,12Q20.75,13.76239,17.9202,14.82357Q15.4497,15.75,12,15.75Q8.55029,15.75,6.0798000000000005,14.82357Q3.25,13.76239,3.25,12L3.25,6Z" fill-rule="evenodd" fill="#231F2E" fill-opacity="1" style="mix-blend-mode:passthrough"/></g><g><path d="M3.25,12Q3.25,11.9261315,3.264411,11.853682Q3.278822,11.781233,3.30709,11.712987Q3.335359,11.644742,3.376398,11.583322Q3.417437,11.521903,3.46967,11.46967Q3.521903,11.417437,3.583322,11.376398Q3.644742,11.335359,3.712987,11.30709Q3.781233,11.278822,3.853682,11.264410999999999Q3.9261315,11.25,4,11.25Q4.0738685,11.25,4.146318,11.264410999999999Q4.218767,11.278822,4.287013,11.30709Q4.355258,11.335359,4.416678,11.376398Q4.478097,11.417437,4.53033,11.46967Q4.582563,11.521903,4.623602,11.583322Q4.664641,11.644742,4.69291,11.712987Q4.721178,11.781233,4.735589,11.853682Q4.75,11.9261315,4.75,12L4.75,18Q4.75,18.72289,6.60649,19.419069999999998Q8.822289999999999,20.25,12,20.25Q15.1777,20.25,17.3935,19.419069999999998Q19.25,18.72289,19.25,18L19.25,12Q19.25,11.9261315,19.264400000000002,11.853682Q19.2788,11.781233,19.3071,11.712987Q19.3354,11.644742,19.3764,11.583322Q19.4174,11.521903,19.4697,11.46967Q19.521900000000002,11.417437,19.5833,11.376398Q19.6447,11.335359,19.713,11.30709Q19.7812,11.278822,19.8537,11.264410999999999Q19.926099999999998,11.25,20,11.25Q20.0739,11.25,20.1463,11.264410999999999Q20.2188,11.278822,20.287,11.30709Q20.3553,11.335359,20.4167,11.376398Q20.4781,11.417437,20.5303,11.46967Q20.5826,11.521903,20.6236,11.583322Q20.6646,11.644742,20.6929,11.712987Q20.7212,11.781233,20.7356,11.853682Q20.75,11.9261315,20.75,12L20.75,18Q20.75,19.76239,17.9202,20.82357Q15.4497,21.75,12,21.75Q8.55029,21.75,6.0798000000000005,20.82357Q3.25,19.76239,3.25,18L3.25,12Z" fill-rule="evenodd" fill="#231F2E" fill-opacity="1" style="mix-blend-mode:passthrough"/></g></g><g><g><g><ellipse cx="18.75" cy="18.75" rx="4.75" ry="4.75" fill="#FFFFFF" fill-opacity="1"/></g></g><g><path d="M18.0127,19.80859Q17.96582,19.8418,17.8457,19.89941Q17.72559,19.95703,17.51465,20.00195Q17.30371,20.04688,16.98535,20.04688Q16.55762,20.04688,16.248047,19.90527Q15.938477,19.76367,15.772461,19.44629Q15.606445,19.12891,15.606445,18.60547Q15.606445,17.9082,15.963867,17.53027Q16.32129,17.15234,16.95996,17.15234Q17.26465,17.15234,17.44629,17.21094Q17.62793,17.26953,17.72168,17.34766Q17.81543,17.42578,17.85254,17.48438Q17.86621,17.50586,17.87207,17.52246Q17.87793,17.53906,17.87988,17.57422Q17.88574,17.62109,17.88281,17.71094Q17.87988,17.80078,17.86816,17.86914Q17.86035,17.91211,17.84277,17.92578Q17.83496,17.93359,17.81543,17.93945Q17.7959,17.94531,17.75684,17.94531Q17.69434,17.94531,17.61133,17.94043Q17.52832,17.93555,17.48926,17.92969Q17.44238,17.92188,17.42188,17.90723Q17.40137,17.89258,17.37793,17.86133Q17.35449,17.83008,17.31348,17.78809Q17.27246,17.74609,17.18945,17.71289Q17.10645,17.67969,16.95996,17.67969Q16.6377,17.67969,16.4541,17.91309Q16.27051,18.14648,16.27051,18.58398Q16.27051,19.04297,16.46094,19.28125Q16.65137,19.51953,17.00879,19.51953Q17.18848,19.51953,17.27344,19.49316Q17.3584,19.4668,17.38184,19.45312L17.38184,18.8457Q17.38184,18.78906,17.40137,18.75977Q17.48926,18.63086,17.64746,18.48828Q17.67676,18.46484,17.69824,18.46484Q17.72168,18.46484,17.74707,18.48828Q17.83301,18.5625,17.8916,18.62988Q17.9502,18.69727,17.99316,18.75977Q18.0127,18.79102,18.0127,18.8457L18.0127,19.80859ZM19.47168,20.04883Q19.1416,20.04883,18.89746,19.94238Q18.65332,19.83594,18.51855,19.61133Q18.38379,19.38672,18.38379,19.03125Q18.38379,18.49805,18.65723,18.22461Q18.93066,17.95117,19.38379,17.95117Q19.67871,17.95117,19.88281,18.05664Q20.08691,18.16211,20.19336,18.34766Q20.2998,18.5332,20.2998,18.77148Q20.2998,19.00391,20.18066,19.0957Q20.06152,19.1875,19.83301,19.1875L18.99512,19.1875Q19.01074,19.38867,19.14258,19.49414Q19.27441,19.59961,19.50098,19.59961Q19.68066,19.59961,19.78906,19.5459Q19.89746,19.49219,19.94043,19.46094Q19.97754,19.43359,20.02441,19.43555Q20.06152,19.43555,20.13086,19.4502Q20.2002,19.46484,20.26855,19.50391Q20.31738,19.5293,20.31738,19.57422Q20.31738,19.59961,20.30762,19.64648Q20.30176,19.67383,20.28809,19.72559Q20.27441,19.77734,20.25293,19.82227Q20.24121,19.84375,20.21582,19.86328Q20.17676,19.89062,20.08984,19.93555Q20.00293,19.98047,19.85254,20.01465Q19.70215,20.04883,19.47168,20.04883ZM18.99121,18.78711L19.62793,18.78711Q19.72754,18.78711,19.72754,18.69531Q19.72754,18.55664,19.64062,18.46191Q19.55371,18.36719,19.37988,18.36719Q19.19043,18.36719,19.10156,18.48828Q19.0127,18.60938,18.99121,18.78711ZM21.50098,20.04883Q20.84863,20.04883,20.84863,19.37109L20.84863,18.45508L20.62793,18.45508Q20.56934,18.45508,20.54688,18.43066Q20.52441,18.40625,20.52441,18.34766L20.52441,18.10742Q20.52441,18.04883,20.54688,18.02441Q20.56934,18,20.62793,18L20.84863,18L20.84863,17.68555Q20.84863,17.63867,20.86816,17.61328Q20.9502,17.50586,21.1084,17.38086Q21.13574,17.36133,21.15723,17.36133Q21.18066,17.36133,21.2041,17.38086Q21.28809,17.44531,21.3457,17.50195Q21.40332,17.55859,21.44434,17.61328Q21.46387,17.63867,21.46387,17.68555L21.46387,18L21.80957,18Q21.86816,18,21.89062,18.02441Q21.91309,18.04883,21.91309,18.10742L21.91309,18.34766Q21.91309,18.40625,21.89062,18.43066Q21.86816,18.45508,21.80957,18.45508L21.46387,18.45508L21.46387,19.26367Q21.46387,19.57617,21.69043,19.57617Q21.72559,19.57617,21.75488,19.56934Q21.78418,19.5625,21.80566,19.55469Q21.84668,19.53906,21.86328,19.54297Q21.87988,19.54688,21.89355,19.58594L22.00684,19.88867Q22.02441,19.9375,21.9834,19.95898Q21.9541,19.97266,21.8418,20.01074Q21.72949,20.04883,21.50098,20.04883Z" fill="#2882FF" fill-opacity="1"/></g></g></g></svg>