<svg xmlns="http://www.w3.org/2000/svg" xmlns:xlink="http://www.w3.org/1999/xlink" fill="none" version="1.1" width="24" height="24" viewBox="0 0 24 24"><defs><clipPath id="master_svg0_72_04606"><rect x="0" y="0" width="24" height="24" rx="0"/></clipPath></defs><g clip-path="url(#master_svg0_72_04606)"><g><g></g><g><g><path d="M16.159508172607424,5.196953640209198Q16.26490817260742,5.091466640209198,16.322008172607422,4.953651640209198Q16.379108172607424,4.815835640209198,16.379108172607424,4.666667640209198Q16.379108172607424,4.592799140209198,16.364708172607422,4.520349640209198Q16.35030817260742,4.447900640209198,16.322008172607422,4.379654640209198Q16.293708172607424,4.311409640209198,16.25270817260742,4.249989640209198Q16.21160817260742,4.188570640209198,16.15940817260742,4.136337640209198Q16.10720817260742,4.084104640209198,16.045808172607423,4.043065640209198Q15.984308172607422,4.002026640209198,15.916108172607421,3.973757640209198Q15.847908172607422,3.945489640209198,15.775408172607422,3.931078640209198Q15.703008172607422,3.916667640209198,15.629108172607422,3.916667640209198Q15.479908172607422,3.916667640209198,15.342008172607422,3.973769640209198Q15.204208172607421,4.030871640209198,15.098708172607422,4.136381640209198L15.098308172607421,4.136766640209198L3.9868851726074217,15.250067640209197Q3.0002351726074217,16.236967640209198,3.000408172607422,17.6324676402092Q3.000581172607422,19.027867640209198,3.9874541726074217,20.014567640209197Q4.9743281726074215,21.001167640209196,6.369798172607422,21.000967640209197Q7.765278172607422,21.000767640209197,8.751908172607422,20.0139676402092L19.862908172607423,8.901097640209198L19.86370817260742,8.900287640209198Q19.969208172607424,8.794797640209197,20.026308172607422,8.656987640209199Q20.08330817260742,8.519167640209197,20.08330817260742,8.369997640209197Q20.08330817260742,8.296127640209198,20.068908172607422,8.223677640209198Q20.05450817260742,8.151237640209198,20.026208172607422,8.082987640209197Q19.99800817260742,8.014737640209198,19.95690817260742,7.953317640209198Q19.915908172607423,7.891897640209198,19.86370817260742,7.839667640209198Q19.811408172607422,7.787437640209198,19.750008172607423,7.746397640209198Q19.688608172607424,7.705357640209198,19.620308172607423,7.677087640209198Q19.552108172607422,7.648817640209198,19.479708172607424,7.634407640209198Q19.407208172607422,7.619997640209197,19.333308172607424,7.619997640209197Q19.184108172607424,7.619997640209197,19.04630817260742,7.6770976402091975Q18.90850817260742,7.734207640209198,18.80300817260742,7.839717640209198L18.80250817260742,7.8401976402091975L7.691118172607422,18.953367640209198Q7.143768172607421,19.500867640209197,6.369618172607422,19.500967640209197Q5.595458172607422,19.5010676402092,5.047978172607422,18.9537676402092Q4.500504172607422,18.406367640209197,4.500408172607422,17.6322676402092Q4.500312172607422,16.8580676402092,5.047628172607422,16.310667640209196L16.159508172607424,5.196953640209198L16.159508172607424,5.196953640209198Z" fill-rule="evenodd" fill="#231F2E" fill-opacity="1" style="mix-blend-mode:passthrough"/></g><g><path d="M7.416674613952637,12.166667938232422L14.750004613952637,12.166667938232422Q14.823874613952636,12.166667938232422,14.896324613952636,12.181078938232421Q14.968774613952636,12.195489938232422,15.037024613952637,12.223757938232422Q15.105264613952636,12.252026938232422,15.166684613952636,12.293065938232422Q15.228104613952636,12.334104938232421,15.280334613952636,12.386337938232423Q15.332574613952637,12.438570938232422,15.373614613952636,12.499989938232423Q15.414644613952635,12.561409938232423,15.442914613952636,12.629654938232422Q15.471184613952637,12.697900938232422,15.485594613952637,12.770349938232421Q15.500004613952637,12.842799438232422,15.500004613952637,12.916667938232422Q15.500004613952637,12.990536438232422,15.485594613952637,13.062985938232423Q15.471184613952637,13.135434938232422,15.442914613952636,13.203680938232422Q15.414644613952635,13.271925938232421,15.373614613952636,13.333345938232421Q15.332574613952637,13.394764938232422,15.280334613952636,13.446997938232421Q15.228104613952636,13.499230938232422,15.166684613952636,13.540269938232422Q15.105264613952636,13.581308938232421,15.037024613952637,13.609577938232421Q14.968774613952636,13.637845938232422,14.896324613952636,13.652256938232423Q14.823874613952636,13.666667938232422,14.750004613952637,13.666667938232422L7.416674613952637,13.666667938232422Q7.342806113952637,13.666667938232422,7.270356613952637,13.652256938232423Q7.197907613952637,13.637845938232422,7.129661613952637,13.609577938232421Q7.061416613952637,13.581308938232421,6.999996613952637,13.540269938232422Q6.938577613952637,13.499230938232422,6.8863446139526365,13.446997938232421Q6.834111613952636,13.394764938232422,6.793072613952637,13.333345938232421Q6.752033613952637,13.271925938232421,6.723764613952636,13.203680938232422Q6.695496613952637,13.135434938232422,6.681085613952637,13.062985938232423Q6.666674613952637,12.990536438232422,6.666674613952637,12.916667938232422Q6.666674613952637,12.842799438232422,6.681085613952637,12.770349938232421Q6.695496613952637,12.697900938232422,6.723764613952636,12.629654938232422Q6.752033613952637,12.561409938232423,6.793072613952637,12.499989938232423Q6.834111613952636,12.438570938232422,6.8863446139526365,12.386337938232423Q6.938577613952637,12.334104938232421,6.999996613952637,12.293065938232422Q7.061416613952637,12.252026938232422,7.129661613952637,12.223757938232422Q7.197907613952637,12.195489938232422,7.270356613952637,12.181078938232421Q7.342806113952637,12.166667938232422,7.416674613952637,12.166667938232422Z" fill-rule="evenodd" fill="#231F2E" fill-opacity="1" style="mix-blend-mode:passthrough"/></g><g><path d="M14.219678583068848,4.28033Q14.114189583068848,4.174841,14.057098583068848,4.037013Q14.000008583068848,3.899184,14.000008583068848,3.75Q14.000008583068848,3.6761315,14.014419583068847,3.603682Q14.028830583068848,3.531233,14.057098583068848,3.462987Q14.085367583068848,3.394742,14.126406583068848,3.333322Q14.167445583068847,3.271903,14.219678583068848,3.21967Q14.271911583068848,3.167437,14.333330583068848,3.126398Q14.394750583068848,3.085359,14.462995583068848,3.05709Q14.531241583068848,3.028822,14.603690583068847,3.014411Q14.676140083068848,3,14.750008583068848,3Q14.899192583068848,3,15.037021583068848,3.05709Q15.174849583068848,3.114181,15.280338583068847,3.21967L20.780338583068847,8.71967Q20.885828583068847,8.82516,20.94291858306885,8.96299Q21.000008583068848,9.100819999999999,21.000008583068848,9.25Q21.000008583068848,9.32387,20.98559858306885,9.39632Q20.971188583068848,9.46877,20.94291858306885,9.53701Q20.914648583068846,9.605260000000001,20.873608583068847,9.66668Q20.83256858306885,9.728100000000001,20.780338583068847,9.78033Q20.72810858306885,9.83256,20.666688583068847,9.8736Q20.60526858306885,9.91464,20.53701858306885,9.942910000000001Q20.468778583068847,9.97118,20.396328583068847,9.98559Q20.323878583068847,10,20.250008583068848,10Q20.100828583068846,10,19.962998583068845,9.942910000000001Q19.825168583068848,9.885819999999999,19.71967858306885,9.78033L14.219678583068848,4.28033Z" fill-rule="evenodd" fill="#231F2E" fill-opacity="1" style="mix-blend-mode:passthrough"/></g></g></g><g><g><rect x="11" y="15" width="11" height="7" rx="2" fill="#F97316" fill-opacity="1"/></g><g><path d="M13.05151,20.5Q12.800049,20.5,12.669434,20.43652Q12.538818,20.37305,12.493652,20.229Q12.448486,20.08496,12.448486,19.8457L12.448486,17.65332Q12.448486,17.40918,12.493652,17.26636Q12.538818,17.12354,12.669434,17.06128Q12.800049,16.99902,13.05151,16.99902L14.19897,16.99902Q14.25757,16.99902,14.28687,17.01855Q14.35034,17.0625,14.4187,17.12354Q14.48706,17.18457,14.56274,17.27002Q14.58716,17.30176,14.58716,17.32129Q14.58716,17.34326,14.56274,17.37012Q14.48706,17.45557,14.4187,17.5166Q14.35034,17.57764,14.28687,17.62158Q14.25269,17.64111,14.19897,17.64111L13.51538,17.64111Q13.35425,17.64111,13.29565,17.70947Q13.23706,17.77783,13.23706,17.94385L13.23706,18.41748L14.11353,18.41748Q14.17212,18.41748,14.20142,18.43701Q14.26489,18.48096,14.33325,18.54199Q14.40161,18.60303,14.47729,18.68848Q14.50171,18.72021,14.50171,18.73975Q14.50171,18.76172,14.47729,18.78857Q14.40161,18.87402,14.33325,18.93506Q14.26489,18.99609,14.20142,19.04004Q14.16724,19.05957,14.11353,19.05957L13.23706,19.05957L13.23706,19.55273Q13.23706,19.71631,13.29565,19.78711Q13.35425,19.85791,13.51538,19.85791L14.27954,19.85791Q14.33813,19.85791,14.36743,19.87744Q14.43091,19.92139,14.49927,19.98242Q14.56763,20.04346,14.64331,20.12891Q14.66772,20.16064,14.66772,20.18018Q14.66772,20.20215,14.64331,20.229Q14.56763,20.31445,14.49927,20.37549Q14.43091,20.43652,14.36743,20.48047Q14.33325,20.5,14.27954,20.5L13.05151,20.5ZM17.53638,18.94482L17.53638,20.37061Q17.53638,20.44385,17.50586,20.47192Q17.47534,20.5,17.4021,20.5L16.899169999999998,20.5Q16.82593,20.5,16.79541,20.47192Q16.76489,20.44385,16.76489,20.37061L16.76489,19.07178Q16.76489,18.80566,16.65259,18.68359Q16.54028,18.56152,16.34741,18.56152Q16.15454,18.56152,16.05078,18.64453Q15.94702,18.72754,15.89087,18.85449L15.89087,20.37061Q15.89087,20.44385,15.86035,20.47192Q15.82983,20.5,15.75659,20.5L15.25366,20.5Q15.18042,20.5,15.1499,20.47192Q15.11938,20.44385,15.11938,20.37061L15.11938,18.32471Q15.11938,18.26611,15.1438,18.23438Q15.19507,18.16602,15.26709,18.09521Q15.33911,18.02441,15.44409,17.94385Q15.47583,17.91943,15.50513,17.91943Q15.53198,17.91943,15.56616,17.94385Q15.6687,18.02441,15.74194,18.09766Q15.81519,18.1709,15.87134,18.24902L15.88354,18.24902Q15.92505,18.19531,16.00806,18.12329Q16.09106,18.05127,16.24121,17.99512Q16.39136,17.93896,16.62573,17.93896Q16.85522,17.93896,17.062739999999998,18.03174Q17.27026,18.12451,17.40332,18.34424Q17.53638,18.56396,17.53638,18.94482ZM19.079349999999998,20.56104Q18.754640000000002,20.56104,18.52637,20.40112Q18.298099999999998,20.24121,18.17969,19.959229999999998Q18.06128,19.67725,18.06128,19.30859Q18.06128,18.82275,18.2334,18.52124Q18.40552,18.21973,18.71924,18.07812Q19.03296,17.93652,19.46021,17.93652Q19.60669,17.93652,19.70312,17.95117Q19.79956,17.96582,19.84106,17.97803L19.84106,17.06738Q19.84106,17.00879,19.865479999999998,16.97705Q19.96802,16.84277,20.165770000000002,16.68652Q20.19995,16.66211,20.22681,16.66211Q20.25854,16.66211,20.28784,16.68652Q20.39282,16.76709,20.464840000000002,16.83789Q20.53687,16.90869,20.58813,16.97705Q20.61255,17.00879,20.61255,17.06738L20.61255,20.3877Q20.61255,20.43408,20.58081,20.46704Q20.54907,20.5,20.500239999999998,20.5L20.13647,20.5Q20.09741,20.5,20.06689,20.48901Q20.03638,20.47803,20.009520000000002,20.44629L19.858150000000002,20.25098L19.84106,20.25098Q19.80933,20.2998,19.72754,20.37427Q19.64575,20.44873,19.49072,20.50488Q19.33569,20.56104,19.079349999999998,20.56104ZM19.31616,19.93604Q19.535890000000002,19.93604,19.66162,19.85303Q19.78735,19.77002,19.84106,19.64307L19.84106,18.62012Q19.802,18.5957,19.711669999999998,18.56152Q19.62134,18.52734,19.45776,18.52734Q19.15503,18.52734,19.00366,18.7251Q18.85229,18.92285,18.85229,19.25732Q18.85229,19.604,18.97925,19.77002Q19.1062,19.93604,19.31616,19.93604Z" fill="#FFFFFF" fill-opacity="1"/></g></g></g></svg>