<svg xmlns="http://www.w3.org/2000/svg" xmlns:xlink="http://www.w3.org/1999/xlink" fill="none" version="1.1" width="24" height="24" viewBox="0 0 24 24"><defs><clipPath id="master_svg0_74_12989"><rect x="0" y="0" width="24" height="24" rx="0"/></clipPath></defs><g clip-path="url(#master_svg0_74_12989)"><g><path d="M7.249998371810913,18.75001287460327L6.0000183718109135,18.75001287460327Q4.446718371810913,18.75001287460327,3.348376371810913,17.651612874603273Q2.250030371810913,16.55331287460327,2.2500293718109132,15.000012874603271L2.250028371810913,7.000022874603271Q2.250028371810913,5.446722874603271,3.348377371810913,4.348368874603271Q4.446728371810913,3.2500188746032714,6.000028371810913,3.2500178746032713L18.000028371810913,3.2500138746032716Q19.553328371810913,3.2500128746032715,20.65162837181091,4.348365874603272Q21.750028371810913,5.446712874603271,21.750028371810913,7.000022874603271L21.749928371810913,15.000012874603271Q21.749928371810913,16.55331287460327,20.65162837181091,17.651612874603273Q19.553228371810913,18.75001287460327,18.000028371810913,18.75001287460327L13.207728371810914,18.75001287460327L8.385868371810913,21.643112874603272Q8.322528371810913,21.681112874603272,8.252988371810913,21.70601287460327Q8.183448371810913,21.73091287460327,8.110388371810913,21.741812874603273Q8.037318371810912,21.752712874603272,7.963538371810913,21.74911287460327Q7.889758371810913,21.74551287460327,7.818098371810913,21.72761287460327Q7.746438371810913,21.709712874603273,7.679648371810913,21.678112874603272Q7.612848371810913,21.64661287460327,7.553498371810913,21.60261287460327Q7.494148371810913,21.55861287460327,7.444518371810913,21.503912874603273Q7.3948883718109135,21.449212874603273,7.356878371810913,21.38591287460327Q7.249998371810913,21.20771287460327,7.249998371810913,21.00001287460327L7.249998371810913,18.75001287460327ZM8.749998371810914,18.00001287460327Q8.749998371810914,17.92611287460327,8.735588371810913,17.85371287460327Q8.721178371810913,17.78121287460327,8.692908371810912,17.713012874603272Q8.664638371810913,17.64471287460327,8.623598371810914,17.583312874603273Q8.582558371810913,17.521912874603274,8.530328371810914,17.46971287460327Q8.478098371810912,17.417412874603272,8.416678371810914,17.37641287460327Q8.355258371810912,17.33531287460327,8.287018371810912,17.30711287460327Q8.218768371810913,17.278812874603272,8.146318371810914,17.264412874603273Q8.073868371810914,17.25001287460327,7.999998371810913,17.25001287460327L6.000028371810913,17.25001287460327Q5.068048371810914,17.25001287460327,4.409038371810913,16.591012874603273Q3.750030371810913,15.932012874603272,3.7500293718109132,15.000012874603271L3.750028371810913,7.000022874603271Q3.750028371810913,6.068042874603272,4.409038371810913,5.409032874603271Q5.068048371810914,4.750017874603271,6.000028371810913,4.750017874603271L18.000028371810913,4.750013874603272Q18.931928371810912,4.750013874603272,19.591028371810914,5.409022874603272Q20.250028371810913,6.068032874603272,20.250028371810913,7.000022874603271L20.249928371810913,15.000012874603271Q20.249928371810913,15.932012874603272,19.590928371810914,16.591012874603273Q18.931928371810912,17.25001287460327,18.000028371810913,17.25001287460327L12.999998371810912,17.25001287460327Q12.792258371810913,17.25001287460327,12.614128371810914,17.35691287460327L8.749998371810914,19.67531287460327L8.749998371810914,18.00001287460327Z" fill-rule="evenodd" fill="#231F2E" fill-opacity="1"/></g><g><path d="M15.50067,11Q15.50067,11.17194,15.48381,11.34306Q15.46695,11.51418,15.433399999999999,11.68282Q15.39985,11.85146,15.34993,12.016Q15.30001,12.18054,15.23419,12.33939Q15.168379999999999,12.498249999999999,15.08731,12.64989Q15.00624,12.80153,14.9107,12.9445Q14.81515,13.08746,14.706050000000001,13.220379999999999Q14.59695,13.353290000000001,14.47534,13.47487Q14.35374,13.59646,14.2208,13.70554Q14.08786,13.81462,13.94486,13.91014Q13.801870000000001,14.00567,13.6502,14.08672Q13.498529999999999,14.16778,13.339649999999999,14.23358Q13.18076,14.29938,13.01619,14.34929Q12.85162,14.3992,12.68295,14.43275Q12.51427,14.46629,12.343119999999999,14.48315Q12.17198,14.5,12,14.5Q11.82802,14.5,11.65687,14.48315Q11.48573,14.46629,11.31705,14.43275Q11.14838,14.3992,10.98381,14.34929Q10.81924,14.29938,10.660350000000001,14.23358Q10.50147,14.16778,10.3498,14.08672Q10.198129999999999,14.00567,10.05513,13.91014Q9.91214,13.81462,9.7792,13.70554Q9.64626,13.59646,9.52465,13.47487Q9.403048,13.353290000000001,9.293947,13.220379999999999Q9.184846,13.08746,9.089301,12.9445Q8.993756,12.80153,8.912687,12.64989Q8.831618,12.498249999999999,8.765805,12.33939Q8.699992,12.18054,8.65007,12.016Q8.600148,11.85146,8.5665968,11.68282Q8.5330459,11.51418,8.5161892,11.34306Q8.499332521,11.17194,8.499332521,11Q8.499332521,10.82806,8.5161892,10.65694Q8.5330459,10.48582,8.5665968,10.31718Q8.600148,10.14854,8.65007,9.984Q8.699992,9.81946,8.765805,9.66061Q8.831618,9.50175,8.912687,9.35011Q8.993756,9.19847,9.089301,9.0555Q9.184846,8.91254,9.293947,8.77962Q9.403048,8.64671,9.52465,8.52513Q9.64626,8.403542999999999,9.7792,8.294463Q9.91214,8.185383,10.05513,8.089856Q10.198129999999999,7.9943290000000005,10.3498,7.913276Q10.50147,7.832222,10.660350000000001,7.766422Q10.81924,7.700622,10.98381,7.650709Q11.14838,7.600796,11.31705,7.5672515Q11.48573,7.5337069,11.65687,7.5168535Q11.82802,7.5,12,7.5Q12.17198,7.5,12.343119999999999,7.5168535Q12.51427,7.5337069,12.68295,7.5672515Q12.85162,7.600796,13.01619,7.650709Q13.18076,7.700622,13.339649999999999,7.766422Q13.498529999999999,7.832222,13.6502,7.913276Q13.801870000000001,7.9943290000000005,13.94487,8.089856Q14.08786,8.185383,14.2208,8.294463Q14.35374,8.403542999999999,14.47534,8.52513Q14.59695,8.64671,14.706050000000001,8.77962Q14.81515,8.91254,14.9107,9.0555Q15.00624,9.19847,15.08731,9.35011Q15.168379999999999,9.50175,15.23419,9.66061Q15.30001,9.81946,15.34993,9.984Q15.39985,10.14854,15.433399999999999,10.31718Q15.46695,10.48582,15.48381,10.65694Q15.50067,10.82806,15.50067,11Z" fill="#2882FF" fill-opacity="1"/><path d="M15.00468,7.994277Q13.759979999999999,6.75,12,6.75Q10.24002,6.75,8.995314,7.994277Q7.7506070000000005,9.23855,7.75,10.99853Q7.749392,12.75937,8.994277,14.00468Q10.23916,15.25,12,15.25Q13.76084,15.25,15.00572,14.00468Q16.25061,12.75937,16.25,10.99853Q16.24939,9.23855,15.00468,7.994277ZM10.05579,9.05512Q10.86119,8.25,12,8.25Q13.13881,8.25,13.94421,9.05512Q14.749600000000001,9.860240000000001,14.75,10.99905Q14.75039,12.13842,13.944880000000001,12.94421Q13.13936,13.75,12,13.75Q10.86063,13.75,10.05512,12.94421Q9.249607,12.13841,9.25,10.99905Q9.250393,9.860240000000001,10.05579,9.05512Z" fill-rule="evenodd" fill="#2882FF" fill-opacity="1"/></g><g><ellipse cx="12" cy="8.955078125" rx="0.75" ry="0.75" fill="#FFFFFF" fill-opacity="1"/></g><g><path d="M11.24997329711914,11.25Q11.24997329711914,11.1761315,11.26438429711914,11.103682Q11.27879529711914,11.031233,11.307063297119141,10.962987Q11.335332297119141,10.894742,11.37637129711914,10.833322Q11.41741029711914,10.771903,11.469643297119141,10.71967Q11.52187629711914,10.667437,11.583295297119141,10.626398Q11.644715297119141,10.585359,11.71296029711914,10.55709Q11.781206297119141,10.528822,11.85365529711914,10.514410999999999Q11.926104797119141,10.5,11.99997329711914,10.5Q12.07384179711914,10.5,12.146291297119141,10.514410999999999Q12.21874029711914,10.528822,12.28698629711914,10.55709Q12.35523129711914,10.585359,12.41665129711914,10.626398Q12.47807029711914,10.667437,12.53030329711914,10.71967Q12.582536297119141,10.771903,12.62357529711914,10.833322Q12.66461429711914,10.894742,12.69288329711914,10.962987Q12.72115129711914,11.031233,12.735562297119142,11.103682Q12.74997329711914,11.1761315,12.74997329711914,11.25L12.74997329711914,12.75Q12.74997329711914,12.82387,12.735562297119142,12.89632Q12.72115129711914,12.96877,12.69288329711914,13.03701Q12.66461429711914,13.10526,12.62357529711914,13.16668Q12.582536297119141,13.2281,12.53030329711914,13.28033Q12.47807029711914,13.33256,12.41665129711914,13.3736Q12.35523129711914,13.41464,12.28698629711914,13.44291Q12.21874029711914,13.47118,12.146291297119141,13.48559Q12.07384179711914,13.5,11.99997329711914,13.5Q11.926104797119141,13.5,11.85365529711914,13.48559Q11.781206297119141,13.47118,11.71296029711914,13.44291Q11.644715297119141,13.41464,11.583295297119141,13.3736Q11.52187629711914,13.33256,11.469643297119141,13.28033Q11.41741029711914,13.2281,11.37637129711914,13.16668Q11.335332297119141,13.10526,11.307063297119141,13.03701Q11.27879529711914,12.96877,11.26438429711914,12.89632Q11.24997329711914,12.82387,11.24997329711914,12.75L11.24997329711914,11.25Z" fill-rule="evenodd" fill="#FFFFFF" fill-opacity="1" style="mix-blend-mode:passthrough"/></g></g></svg>