<svg xmlns="http://www.w3.org/2000/svg" xmlns:xlink="http://www.w3.org/1999/xlink" fill="none" version="1.1" width="24" height="24" viewBox="0 0 24 24"><defs><clipPath id="master_svg0_74_12760"><rect x="0" y="0" width="24" height="24" rx="0"/></clipPath></defs><g clip-path="url(#master_svg0_74_12760)"><g><path d="M7.249998371810913,18.75001287460327L6.0000183718109135,18.75001287460327Q4.446718371810913,18.75001287460327,3.348376371810913,17.651612874603273Q2.250030371810913,16.55331287460327,2.2500293718109132,15.000012874603271L2.250028371810913,7.000022874603271Q2.250028371810913,5.446722874603271,3.348377371810913,4.348368874603271Q4.446728371810913,3.2500188746032714,6.000028371810913,3.2500178746032713L18.000028371810913,3.2500138746032716Q19.553328371810913,3.2500128746032715,20.65162837181091,4.348365874603272Q21.750028371810913,5.446712874603271,21.750028371810913,7.000022874603271L21.749928371810913,15.000012874603271Q21.749928371810913,16.55331287460327,20.65162837181091,17.651612874603273Q19.553228371810913,18.75001287460327,18.000028371810913,18.75001287460327L13.207728371810914,18.75001287460327L8.385868371810913,21.643112874603272Q8.322528371810913,21.681112874603272,8.252988371810913,21.70601287460327Q8.183448371810913,21.73091287460327,8.110388371810913,21.741812874603273Q8.037318371810912,21.752712874603272,7.963538371810913,21.74911287460327Q7.889758371810913,21.74551287460327,7.818098371810913,21.72761287460327Q7.746438371810913,21.709712874603273,7.679648371810913,21.678112874603272Q7.612848371810913,21.64661287460327,7.553498371810913,21.60261287460327Q7.494148371810913,21.55861287460327,7.444518371810913,21.503912874603273Q7.3948883718109135,21.449212874603273,7.356878371810913,21.38591287460327Q7.249998371810913,21.20771287460327,7.249998371810913,21.00001287460327L7.249998371810913,18.75001287460327ZM8.749998371810914,18.00001287460327Q8.749998371810914,17.92611287460327,8.735588371810913,17.85371287460327Q8.721178371810913,17.78121287460327,8.692908371810912,17.713012874603272Q8.664638371810913,17.64471287460327,8.623598371810914,17.583312874603273Q8.582558371810913,17.521912874603274,8.530328371810914,17.46971287460327Q8.478098371810912,17.417412874603272,8.416678371810914,17.37641287460327Q8.355258371810912,17.33531287460327,8.287018371810912,17.30711287460327Q8.218768371810913,17.278812874603272,8.146318371810914,17.264412874603273Q8.073868371810914,17.25001287460327,7.999998371810913,17.25001287460327L6.000028371810913,17.25001287460327Q5.068048371810914,17.25001287460327,4.409038371810913,16.591012874603273Q3.750030371810913,15.932012874603272,3.7500293718109132,15.000012874603271L3.750028371810913,7.000022874603271Q3.750028371810913,6.068042874603272,4.409038371810913,5.409032874603271Q5.068048371810914,4.750017874603271,6.000028371810913,4.750017874603271L18.000028371810913,4.750013874603272Q18.931928371810912,4.750013874603272,19.591028371810914,5.409022874603272Q20.250028371810913,6.068032874603272,20.250028371810913,7.000022874603271L20.249928371810913,15.000012874603271Q20.249928371810913,15.932012874603272,19.590928371810914,16.591012874603273Q18.931928371810912,17.25001287460327,18.000028371810913,17.25001287460327L12.999998371810912,17.25001287460327Q12.792258371810913,17.25001287460327,12.614128371810914,17.35691287460327L8.749998371810914,19.67531287460327L8.749998371810914,18.00001287460327Z" fill-rule="evenodd" fill="#231F2E" fill-opacity="1"/></g><g><path d="M9.34283,8.097743330078124Q9.448319999999999,7.992254330078125,9.50541,7.854426330078125Q9.5625,7.716597330078125,9.5625,7.567413330078125Q9.5625,7.493544830078125,9.54809,7.421095330078125Q9.53368,7.348646330078125,9.50541,7.280400330078125Q9.47714,7.212155330078125,9.4361,7.150735330078125Q9.39506,7.089316330078125,9.34283,7.037083330078125Q9.2906,6.984850330078125,9.22918,6.943811330078125Q9.16776,6.902772330078125,9.09951,6.874503330078125Q9.03127,6.846235330078125,8.95882,6.831824330078125Q8.88637,6.817413330078125,8.8125,6.817413330078125Q8.66332,6.817413330078125,8.52549,6.874503330078125Q8.38766,6.931594330078125,8.28217,7.037083330078125L8.28193,7.037318330078125L6.9375,8.381753330078125L6.34283,7.787083330078125Q6.237341,7.681594330078125,6.099513,7.624503630078125Q5.961684,7.567413330078125,5.8125,7.567413330078125Q5.7386315,7.567413330078125,5.666182,7.581824330078125Q5.593733,7.596235430078125,5.525487,7.624503630078125Q5.457242,7.652771930078125,5.395822,7.693811330078125Q5.334403,7.734850330078125,5.28217,7.787083330078125Q5.229937,7.839316330078125,5.188898,7.900735330078125Q5.147859,7.962155330078125,5.11959,8.030400330078125Q5.091322,8.098646330078125,5.076911,8.171095330078124Q5.0625,8.243544330078125,5.0625,8.317413330078125Q5.0625,8.466597330078125,5.11959,8.604423330078125Q5.176681,8.742253330078125,5.28217,8.847743330078124L6.40717,9.972743330078124Q6.459403,10.024973330078126,6.520822,10.066013330078125Q6.582242,10.107053330078125,6.650487,10.135323330078124Q6.718733,10.163593330078125,6.791182,10.178003330078125Q6.86363,10.192413330078125,6.9375,10.192413330078125Q7.01137,10.192413330078125,7.08382,10.178003330078125Q7.15627,10.163593330078125,7.22451,10.135323330078124Q7.2927599999999995,10.107053330078125,7.3541799999999995,10.066013330078125Q7.4155999999999995,10.024973330078126,7.46783,9.972743330078124L9.34259,8.097978330078124L9.34283,8.097743330078124L9.34283,8.097743330078124Z" fill-rule="evenodd" fill="#2882FF" fill-opacity="1"/></g><g><path d="M11.4375,7.75L18.1875,7.75Q18.26137,7.75,18.33382,7.764411Q18.40627,7.778822,18.474510000000002,7.80709Q18.54276,7.835359,18.60418,7.876398Q18.6656,7.917437,18.71783,7.96967Q18.77006,8.021903,18.8111,8.083322Q18.85214,8.144742,18.88041,8.212987Q18.90868,8.281233,18.923090000000002,8.353682Q18.9375,8.4261315,18.9375,8.5Q18.9375,8.5738685,18.923090000000002,8.646318Q18.90868,8.718767,18.88041,8.787013Q18.85214,8.855258,18.8111,8.916678Q18.77006,8.978097,18.71783,9.03033Q18.6656,9.082563,18.60418,9.123602Q18.54276,9.164641,18.474510000000002,9.19291Q18.40627,9.221178,18.33382,9.235589000000001Q18.26137,9.25,18.1875,9.25L11.4375,9.25Q11.3636315,9.25,11.291182,9.235589000000001Q11.218733,9.221178,11.150487,9.19291Q11.082242,9.164641,11.020822,9.123602Q10.959403,9.082563,10.90717,9.03033Q10.854937,8.978097,10.813898,8.916678Q10.772859,8.855258,10.74459,8.787013Q10.716322,8.718767,10.701910999999999,8.646318Q10.6875,8.5738685,10.6875,8.5Q10.6875,8.4261315,10.701910999999999,8.353682Q10.716322,8.281233,10.74459,8.212987Q10.772859,8.144742,10.813898,8.083322Q10.854937,8.021903,10.90717,7.96967Q10.959403,7.917437,11.020822,7.876398Q11.082242,7.835359,11.150487,7.80709Q11.218733,7.778822,11.291182,7.764411Q11.3636315,7.75,11.4375,7.75Z" fill-rule="evenodd" fill="#2882FF" fill-opacity="1"/></g><g><path d="M9.34283,13.09862833984375Q9.448319999999999,12.99313933984375,9.50541,12.85531133984375Q9.5625,12.71748233984375,9.5625,12.56829833984375Q9.5625,12.49442983984375,9.54809,12.42198033984375Q9.53368,12.34953133984375,9.50541,12.28128533984375Q9.47714,12.21304033984375,9.4361,12.15162033984375Q9.39506,12.09020133984375,9.34283,12.03796833984375Q9.2906,11.98573533984375,9.22918,11.94469633984375Q9.16776,11.90365733984375,9.09951,11.87538833984375Q9.03127,11.84712033984375,8.95882,11.832709339843749Q8.88637,11.81829833984375,8.8125,11.81829833984375Q8.66332,11.81829833984375,8.52549,11.87538833984375Q8.38766,11.93247933984375,8.28217,12.03796833984375L8.28193,12.03820333984375L6.9375,13.38263833984375L6.34283,12.78796833984375Q6.237341,12.68247933984375,6.099513,12.62538863984375Q5.961684,12.56829833984375,5.8125,12.56829833984375Q5.7386315,12.56829833984375,5.666182,12.58270933984375Q5.593733,12.59712043984375,5.525487,12.62538863984375Q5.457242,12.65365693984375,5.395822,12.69469633984375Q5.334403,12.73573533984375,5.28217,12.78796833984375Q5.229937,12.84020133984375,5.188898,12.90162033984375Q5.147859,12.96304033984375,5.11959,13.03128533984375Q5.091322,13.09953133984375,5.076911,13.17198033984375Q5.0625,13.24442933984375,5.0625,13.31829833984375Q5.0625,13.46748233984375,5.11959,13.60530833984375Q5.176681,13.74313833984375,5.28217,13.84862833984375L6.40717,14.97362833984375Q6.459403,15.02585833984375,6.520822,15.06689833984375Q6.582242,15.10793833984375,6.650487,15.13620833984375Q6.718733,15.16447833984375,6.791182,15.17888833984375Q6.86363,15.19329833984375,6.9375,15.19329833984375Q7.01137,15.19329833984375,7.08382,15.17888833984375Q7.15627,15.16447833984375,7.22451,15.13620833984375Q7.2927599999999995,15.10793833984375,7.3541799999999995,15.06689833984375Q7.4155999999999995,15.02585833984375,7.46783,14.97362833984375L9.34259,13.09886333984375L9.34283,13.09862833984375L9.34283,13.09862833984375Z" fill-rule="evenodd" fill="#2882FF" fill-opacity="1"/></g><g><path d="M11.4375,12.75335693359375L18.1875,12.75335693359375Q18.26137,12.75335693359375,18.33382,12.767767933593749Q18.40627,12.78217893359375,18.474510000000002,12.81044693359375Q18.54276,12.83871593359375,18.60418,12.87975493359375Q18.6656,12.92079393359375,18.71783,12.97302693359375Q18.77006,13.02525993359375,18.8111,13.08667893359375Q18.85214,13.14809893359375,18.88041,13.21634393359375Q18.90868,13.28458993359375,18.923090000000002,13.35703893359375Q18.9375,13.42948843359375,18.9375,13.50335693359375Q18.9375,13.57722543359375,18.923090000000002,13.64967493359375Q18.90868,13.72212393359375,18.88041,13.79036993359375Q18.85214,13.85861493359375,18.8111,13.92003493359375Q18.77006,13.98145393359375,18.71783,14.03368693359375Q18.6656,14.08591993359375,18.60418,14.12695893359375Q18.54276,14.16799793359375,18.474510000000002,14.19626693359375Q18.40627,14.22453493359375,18.33382,14.238945933593751Q18.26137,14.25335693359375,18.1875,14.25335693359375L11.4375,14.25335693359375Q11.3636315,14.25335693359375,11.291182,14.238945933593751Q11.218733,14.22453493359375,11.150487,14.19626693359375Q11.082242,14.16799793359375,11.020822,14.12695893359375Q10.959403,14.08591993359375,10.90717,14.03368693359375Q10.854937,13.98145393359375,10.813898,13.92003493359375Q10.772859,13.85861493359375,10.74459,13.79036993359375Q10.716322,13.72212393359375,10.701910999999999,13.64967493359375Q10.6875,13.57722543359375,10.6875,13.50335693359375Q10.6875,13.42948843359375,10.701910999999999,13.35703893359375Q10.716322,13.28458993359375,10.74459,13.21634393359375Q10.772859,13.14809893359375,10.813898,13.08667893359375Q10.854937,13.02525993359375,10.90717,12.97302693359375Q10.959403,12.92079393359375,11.020822,12.87975493359375Q11.082242,12.83871593359375,11.150487,12.81044693359375Q11.218733,12.78217893359375,11.291182,12.767767933593749Q11.3636315,12.75335693359375,11.4375,12.75335693359375Z" fill-rule="evenodd" fill="#2882FF" fill-opacity="1"/></g></g></svg>