<svg xmlns="http://www.w3.org/2000/svg" xmlns:xlink="http://www.w3.org/1999/xlink" fill="none" version="1.1" width="24" height="24" viewBox="0 0 24 24"><defs><clipPath id="master_svg0_389_19278"><rect x="-1.75" y="-1.75" width="27.5" height="27.5" rx="0"/></clipPath></defs><g clip-path="url(#master_svg0_389_19278)"><path d="M20.590988,19.590989999999998Q21.249998,18.931981,21.249998,18.000000999999997L21.249998,6.0000004Q21.249998,5.06801933,20.590988,4.409009755Q19.93198,3.75,19,3.75000012L4.0000007,3.75Q3.06801987,3.75,2.409009978,4.409009755Q1.7500001200000002,5.06801951,1.75000018,6.0000004L1.75,18Q1.75,18.93198,2.40901003,19.590989999999998Q3.06801862,20.249997999999998,4.0000002,20.249997999999998L19,20.249997999999998Q19.93198,20.249997999999998,20.590988,19.590989999999998ZM19.75,6.0000004L19.75,18Q19.75,18.749999000000003,19,18.749999000000003L4.0000002,18.749999000000003Q3.25,18.749999000000003,3.25,18L3.25000024,6.0000001Q3.25000018,5.6893398,3.46967,5.46967Q3.68934,5.25,4.0000007,5.25L19,5.25000012Q19.310659,5.25000012,19.530329,5.46967Q19.75,5.6893411,19.75,6.0000004Z" fill-rule="evenodd" fill="#231F2E" fill-opacity="1"/><path d="M2.5,14.5L2.5,17.9999995C2.5,18.8284273,3.17157292,19.5,4.0000002,19.5L20.5,19.5L20.5,14.5L2.5,14.5Z" fill="#2882FF" fill-opacity="0.20000000298023224"/><path d="M4.0000002,20.25L21.250002,20.25L21.250002,13.75L1.75,13.75L1.75,17.9999995Q1.75,18.9319801,2.409009784,19.5909901Q3.06801969,20.25,4.0000002,20.25ZM19.75,18.75L4.0000002,18.75Q3.6893402,18.75,3.46966994,18.5303297Q3.25,18.3106599,3.25,17.9999995L3.25,15.25L19.75,15.25L19.75,18.75Z" fill-rule="evenodd" fill="#2882FF" fill-opacity="1"/><path d="M2.5,6.0000002L2.5,9.5L20.5,9.5L20.5,6.0000002C20.5,5.17157292,19.828426,4.5,19,4.5L4.0000002,4.5C3.17157292,4.5,2.5,5.17157292,2.5,6.0000002Z" fill="#2882FF" fill-opacity="0.20000000298023224"/><path d="M1.75,10.25L21.250002,10.25L21.250002,6.0000004Q21.250002,5.06801951,20.59099,4.409009598Q19.93198,3.74999982,19,3.74999982L4.0000008000000005,3.75Q3.06801987,3.75,2.409009933,4.40900971Q1.75000006,5.06801939,1.75,6.0000002L1.75,10.25ZM19.75,8.75L19.75,6.0000004Q19.75,5.6893393,19.530331,5.46967012Q19.310661,5.24999988,19,5.24999988L4.0000008000000005,5.25Q3.6893401,5.25,3.46966994,5.46967006Q3.25,5.6893399,3.25,6.0000002L3.25,8.75L19.75,8.75Z" fill-rule="evenodd" fill="#2882FF" fill-opacity="1"/><path d="M21.358757,14.64124274Q19.967515,13.25,18,13.25Q16.0324855,13.2499999,14.64124265,14.64124265Q13.25,16.0324855,13.25,18Q13.2499999,19.967515,14.64124265,21.358757Q16.0324861,22.7500005,18,22.7500005Q19.967514,22.7500005,21.358757,21.358757Q22.7500005,19.967514,22.7500005,18Q22.7500005,16.0324862,21.358757,14.64124274ZM17.1161165,17.1161163Q17.4822328,16.7500001,18,16.7500001Q18.5177674,16.7500002,18.8838837,17.1161165Q19.25,17.4822328,19.25,18Q19.25,18.5177674,18.8838837,18.8838837Q18.5177674,19.25,18,19.25Q17.4822328,19.25,17.1161163,18.8838835Q16.7500001,18.5177672,16.7500002,18Q16.7500002,17.4822326,17.1161165,17.1161163Z" fill-rule="evenodd" fill="#FFFFFF" fill-opacity="1" style="mix-blend-mode:passthrough"/><path d="M18.96282280703125,21.437140571875Q18.84097030703125,21.315288071875,18.74523150703125,21.172004581875Q18.64949250703125,21.028721211875,18.58354640703125,20.869513271875Q18.517600307031252,20.710305271875,18.48398140703125,20.541290941875Q18.45036220703125,20.372276651875,18.45036220703125,20.199951171875Q18.45036220703125,20.113996378875,18.45878730703125,20.028455481875Q18.46721230703125,19.942914571875,18.48398140703125,19.858611401875Q18.50075030703125,19.774308201875,18.52570160703125,19.692054631875Q18.55065300703125,19.609800991875,18.58354650703125,19.530389191875Q18.61643990703125,19.450977321875,18.65695880703125,19.375171901875Q18.69747760703125,19.299366591875,18.74523160703125,19.227897761875Q18.79298540703125,19.156428971875002,18.84751460703125,19.089984971875Q18.90204370703125,19.023540971875,18.96282290703125,18.962761871875Q19.02360200703125,18.901982671875,19.09004600703125,18.847453571875Q19.156490007031252,18.792924371875,19.22795885703125,18.745170571875Q19.29942762703125,18.697416571875,19.37523293703125,18.656897771875Q19.45103835703125,18.616378871875,19.53045022703125,18.583485471875Q19.60986202703125,18.550591971875,19.69211560703125,18.525640571875Q19.77436923703125,18.500689271875,19.85867243703125,18.483920371875Q19.94297560703125,18.467151271875,20.02851651703125,18.458726171875Q20.11405741403125,18.450301171875,20.20001220703125,18.450301171875Q20.37233768703125,18.450301171875,20.54135197703125,18.483920171875Q20.71036630703125,18.517539271875002,20.86957430703125,18.583485371875Q21.02878224703125,18.649431471875,21.17206561703125,18.745170471875Q21.31534910703125,18.840909271875,21.43720160703125,18.962761771875L21.43744910703125,18.962514271875L23.23744800703125,20.762513461875L23.23720050703125,20.762760821875Q23.35905310703125,20.884613271875,23.45479200703125,21.027896761875Q23.55053090703125,21.171180131875,23.61647720703125,21.330388171875Q23.68242330703125,21.489596171875,23.716042307031252,21.658610471875Q23.74966140703125,21.827624771875,23.74966140703125,21.999950371875Q23.74966140703125,22.085905271875,23.74123640703125,22.171446071875Q23.73281140703125,22.256987071875,23.71604200703125,22.341289971875Q23.69927310703125,22.425593371875,23.67432160703125,22.507846871875Q23.64937020703125,22.590100271875,23.61647650703125,22.669512271875Q23.58358330703125,22.748924271875,23.54306460703125,22.824729471875Q23.50254560703125,22.900534671875,23.45479150703125,22.972003471875Q23.40703800703125,23.043472271875,23.35250880703125,23.109916471875Q23.29797980703125,23.176360371875,23.23720050703125,23.237139471875Q23.17642140703125,23.297918771875,23.10997750703125,23.352447971875Q23.04353330703125,23.406977171875,22.97206450703125,23.454730771875Q22.90059570703125,23.502484771875,22.82479050703125,23.543003571875Q22.74898500703125,23.583522271875,22.66957310703125,23.616415771875Q22.59016130703125,23.649309371875,22.50790760703125,23.674260871875Q22.42565420703125,23.699212071875,22.34135100703125,23.715980971875Q22.25704810703125,23.732750371875,22.17150720703125,23.741175371875Q22.08596630703125,23.749600371875,22.00001140703125,23.749600371875Q21.82768580703125,23.749600371875,21.65867150703125,23.715981471875Q21.48965720703125,23.682362271875,21.33044920703125,23.616416171875Q21.17124116703125,23.550469871875,21.02795779703125,23.454730971875Q20.88467430703125,23.358992071875,20.76282185703125,23.237139471875L20.76257449703125,23.237386971875L18.96257530703125,21.437388071875L18.96282280703125,21.437140571875Z" fill-rule="evenodd" fill="#FFFFFF" fill-opacity="1" style="mix-blend-mode:passthrough"/><path d="M20.6516504,15.34834963Q19.5533009,14.25000024,18,14.25000018Q16.4466988,14.25,15.34834957,15.34834945Q14.25000018,16.4466989,14.25000018,18Q14.25,19.5533013,15.34834945,20.6516504Q16.4466991,21.75,18,21.75Q19.5533009,21.75,20.6516504,20.6516504Q21.75,19.5533009,21.75,18Q21.75,16.4466991,20.6516504,15.34834963ZM16.4090098,16.4090097Q17.0680194,15.75,18,15.75Q18.9319811,15.75000018,19.5909905,16.4090098Q20.25,17.0680194,20.25,18Q20.25,18.9319811,19.5909905,19.5909905Q18.9319811,20.25,18,20.25Q17.068019200000002,20.25,16.4090097,19.5909905Q15.75,18.9319811,15.75000018,18Q15.75000018,17.0680194,16.4090098,16.4090097Z" fill-rule="evenodd" fill="#3B82F6" fill-opacity="1"/><path d="M19.66978817703125,20.730175201875Q19.56432008703125,20.624707101875,19.50724112703125,20.486906351875Q19.45016217703125,20.349105611875,19.45016217703125,20.199951171875Q19.45016217703125,20.126097388875,19.46457040703125,20.053662691875Q19.47897851703125,19.981227991875,19.50724112703125,19.912995991875Q19.53550374703125,19.844763991875,19.57653474703125,19.783356841875Q19.61756568703125,19.721949661875,19.66978817703125,19.669727141875Q19.72201069703125,19.617504651875,19.78341787703125,19.576473711875Q19.84482502703125,19.535442711875,19.91305702703125,19.507180091875Q19.98128902703125,19.478917481875,20.05372372703125,19.464509371875Q20.12615842403125,19.450101141875,20.20001220703125,19.450101141875Q20.34916664703125,19.450101141875,20.48696738703125,19.507180031875Q20.62476813703125,19.564259051875,20.73023623703125,19.669727141875L20.73034226703125,19.669621111875L22.53034140703125,21.469620271875L22.53023530703125,21.469726171875Q22.63570360703125,21.575194371875,22.69278240703125,21.712995171875Q22.749861507031248,21.850795971875,22.749861507031248,21.999950371875Q22.749861207031252,22.073804171875,22.73545310703125,22.146238671875Q22.72104500703125,22.218673271875,22.69278240703125,22.286905271875Q22.66451980703125,22.355137371875,22.623488907031252,22.416544471875Q22.58245800703125,22.477951771875,22.53023550703125,22.530174471875Q22.47801280703125,22.582396971875,22.41660550703125,22.623427871875002Q22.35519840703125,22.664458771875,22.28696630703125,22.692721371875Q22.21873430703125,22.720983971875,22.14629970703125,22.735392071875Q22.07386520703125,22.749800171875002,22.00001140703125,22.749800471874998Q21.85085700703125,22.749800471874998,21.71305610703125,22.692721371875Q21.57525540703125,22.635642571875,21.46978720703125,22.530174271875L21.46968130703125,22.530280371875L19.66968214703125,20.730281231875L19.66978817703125,20.730175201875Z" fill-rule="evenodd" fill="#3B82F6" fill-opacity="1"/></g></svg>