<svg xmlns="http://www.w3.org/2000/svg" xmlns:xlink="http://www.w3.org/1999/xlink" fill="none" version="1.1" width="24" height="24" viewBox="0 0 24 24"><defs><clipPath id="master_svg0_72_04525"><rect x="0" y="0" width="24" height="24" rx="0"/></clipPath><clipPath id="master_svg1_75_02600"><rect x="1" y="1" width="22" height="22" rx="0"/></clipPath></defs><g clip-path="url(#master_svg0_72_04525)"><g clip-path="url(#master_svg1_75_02600)"><g></g><g><path d="M12,3.91668701171875L11.08333,3.91668701171875Q11.00947,3.91668701171875,10.93702,3.93109801171875Q10.86457,3.94550901171875,10.79632,3.97377701171875Q10.72808,4.00204601171875,10.66666,4.04308501171875Q10.60524,4.08412401171875,10.553,4.13635701171875Q10.50077,4.18859001171875,10.45973,4.25000901171875Q10.41869,4.31142901171875,10.390419999999999,4.37967401171875Q10.36215,4.44792001171875,10.34774,4.52036901171875Q10.33333,4.59281851171875,10.33333,4.66668701171875Q10.33333,4.74055551171875,10.34774,4.81300501171875Q10.36215,4.88545401171875,10.390419999999999,4.95370001171875Q10.41869,5.02194501171875,10.45973,5.08336501171875Q10.50077,5.14478401171875,10.553,5.19701701171875Q10.60524,5.24925001171875,10.66666,5.29028901171875Q10.72808,5.33132801171875,10.79632,5.35959701171875Q10.86457,5.38786501171875,10.93702,5.40227601171875Q11.00947,5.41668701171875,11.08333,5.41668701171875L12,5.41668701171875Q12.44873,5.41668701171875,12.76603,5.7339870117187495Q13.08333,6.05128701171875,13.08333,6.50001701171875L13.08333,9.70835701171875Q13.08333,11.48601701171875,11.82633,12.74301701171875Q10.56933,14.00001701171875,8.79166,14.00001701171875Q7.013999999999999,14.00001701171875,5.757,12.74301701171875Q4.5,11.48601701171875,4.5,9.70834701171875L4.5,6.50001701171875Q4.5,6.05128701171875,4.8172999999999995,5.7339870117187495Q5.1346,5.41668701171875,5.58333,5.41668701171875L6.5,5.41668701171875Q6.573869999999999,5.41668701171875,6.646319999999999,5.40227601171875Q6.71877,5.38786501171875,6.78701,5.35959701171875Q6.8552599999999995,5.33132801171875,6.9166799999999995,5.29028901171875Q6.9780999999999995,5.24925001171875,7.03033,5.19701701171875Q7.08256,5.14478401171875,7.1236,5.08336501171875Q7.16464,5.02194501171875,7.1929099999999995,4.95370001171875Q7.22118,4.88545401171875,7.23559,4.81300501171875Q7.25,4.74055551171875,7.25,4.66668701171875Q7.25,4.59281851171875,7.23559,4.52036901171875Q7.22118,4.44792001171875,7.1929099999999995,4.37967401171875Q7.16464,4.31142901171875,7.1236,4.25000901171875Q7.08256,4.18859001171875,7.03033,4.13635701171875Q6.9780999999999995,4.08412401171875,6.9166799999999995,4.04308501171875Q6.8552599999999995,4.00204601171875,6.78701,3.97377701171875Q6.71877,3.94550901171875,6.646319999999999,3.93109801171875Q6.573869999999999,3.91668701171875,6.5,3.91668701171875L5.58333,3.91668701171875Q4.513282,3.91668701171875,3.7566409,4.67332798171875Q3,5.42996901171875,3,6.50001701171875L3,9.70834701171875Q3,12.10733701171875,4.69634,13.80367701171875Q6.39268,15.49998701171875,8.79166,15.49998701171875Q11.19065,15.49998701171875,12.88699,13.80367701171875Q14.5833,12.10733701171875,14.5833,9.70835701171875L14.5833,6.50001701171875Q14.5833,5.42996901171875,13.8267,4.67332795171875Q13.07005,3.91668701171875,12,3.91668701171875Z" fill-rule="evenodd" fill="#231F2E" fill-opacity="1" style="mix-blend-mode:passthrough"/></g><g><path d="M18.58331298828125,12Q18.58331298828125,11.9261315,18.597712988281252,11.853682Q18.61211298828125,11.781233,18.64041298828125,11.712987Q18.66871298828125,11.644742,18.70971298828125,11.583322Q18.75071298828125,11.521903,18.80301298828125,11.46967Q18.855212988281252,11.417437,18.91661298828125,11.376398Q18.97801298828125,11.335359,19.04631298828125,11.30709Q19.11451298828125,11.278822,19.18701298828125,11.264410999999999Q19.259412988281248,11.25,19.33331298828125,11.25Q19.407212988281252,11.25,19.47961298828125,11.264410999999999Q19.55211298828125,11.278822,19.62031298828125,11.30709Q19.68861298828125,11.335359,19.75001298828125,11.376398Q19.811412988281248,11.417437,19.86361298828125,11.46967Q19.91591298828125,11.521903,19.95691298828125,11.583322Q19.99791298828125,11.644742,20.02621298828125,11.712987Q20.05451298828125,11.781233,20.068912988281248,11.853682Q20.08331298828125,11.9261315,20.08331298828125,12L20.08331298828125,14.75Q20.08331298828125,17.33883,18.252732988281252,19.16942Q16.422152988281248,21,13.83331298828125,21Q11.24448298828125,21,9.41389298828125,19.16942Q7.58331298828125,17.33884,7.58331298828125,14.75Q7.58331298828125,14.67613,7.59772398828125,14.60368Q7.61213498828125,14.53123,7.64040298828125,14.46299Q7.66867198828125,14.39474,7.70971098828125,14.33332Q7.75074998828125,14.2719,7.80298298828125,14.21967Q7.85521598828125,14.16744,7.91663498828125,14.1264Q7.97805498828125,14.08536,8.04629998828125,14.05709Q8.11454598828125,14.02882,8.18699498828125,14.01441Q8.25944448828125,14,8.33331298828125,14Q8.40718148828125,14,8.47963098828125,14.01441Q8.55207998828125,14.02882,8.62032598828125,14.05709Q8.68857098828125,14.08536,8.74999098828125,14.1264Q8.81140998828125,14.16744,8.86364298828125,14.21967Q8.91587598828125,14.2719,8.95691498828125,14.33332Q8.99795398828125,14.39474,9.02622298828125,14.46299Q9.05449098828125,14.53123,9.068901988281251,14.60368Q9.08331298828125,14.67613,9.08331298828125,14.75Q9.08331298828125,16.71752,10.47455298828125,18.10876Q11.86579298828125,19.5,13.83331298828125,19.5Q15.80083298828125,19.5,17.19207298828125,18.10876Q18.58331298828125,16.71752,18.58331298828125,14.75L18.58331298828125,12Z" fill-rule="evenodd" fill="#231F2E" fill-opacity="1" style="mix-blend-mode:passthrough"/></g><g><path d="M10.33331298828125,3.75Q10.33331298828125,3.6761315,10.347723988281249,3.603682Q10.36213498828125,3.531233,10.39040298828125,3.462987Q10.41867198828125,3.394742,10.45971098828125,3.333322Q10.50074998828125,3.271903,10.55298298828125,3.21967Q10.60521598828125,3.167437,10.66663498828125,3.126398Q10.72805498828125,3.085359,10.79629998828125,3.05709Q10.86454598828125,3.028822,10.93699498828125,3.014411Q11.00944448828125,3,11.08331298828125,3Q11.15718148828125,3,11.22963098828125,3.014411Q11.30207998828125,3.028822,11.37032598828125,3.05709Q11.43857098828125,3.085359,11.49999098828125,3.126398Q11.56140998828125,3.167437,11.61364298828125,3.21967Q11.66587598828125,3.271903,11.70691498828125,3.333322Q11.74795398828125,3.394742,11.77622298828125,3.462987Q11.80449098828125,3.531233,11.818901988281251,3.603682Q11.83331298828125,3.6761315,11.83331298828125,3.75L11.83331298828125,5.58333Q11.83331298828125,5.6572,11.818901988281251,5.7296499999999995Q11.80449098828125,5.802099999999999,11.77622298828125,5.87035Q11.74795398828125,5.93859,11.70691498828125,6.00001Q11.66587598828125,6.06143,11.61364298828125,6.113659999999999Q11.56140998828125,6.165900000000001,11.49999098828125,6.2069399999999995Q11.43857098828125,6.2479700000000005,11.37032598828125,6.27624Q11.30207998828125,6.3045100000000005,11.22963098828125,6.31892Q11.15718148828125,6.33333,11.08331298828125,6.33333Q11.00944448828125,6.33333,10.93699498828125,6.31892Q10.86454598828125,6.3045100000000005,10.79629998828125,6.27624Q10.72805498828125,6.2479700000000005,10.66663498828125,6.2069399999999995Q10.60521598828125,6.165900000000001,10.55298298828125,6.113659999999999Q10.50074998828125,6.06143,10.45971098828125,6.00001Q10.41867198828125,5.93859,10.39040298828125,5.87035Q10.36213498828125,5.802099999999999,10.347723988281249,5.7296499999999995Q10.33331298828125,5.6572,10.33331298828125,5.58333L10.33331298828125,3.75Z" fill-rule="evenodd" fill="#231F2E" fill-opacity="1" style="mix-blend-mode:passthrough"/></g><g><path d="M5.75,3.75Q5.75,3.6761315,5.764411,3.603682Q5.778822,3.531233,5.80709,3.462987Q5.835359,3.394742,5.876398,3.333322Q5.917437,3.271903,5.96967,3.21967Q6.021903,3.167437,6.083322,3.126398Q6.144742,3.085359,6.212987,3.05709Q6.281233,3.028822,6.353682,3.014411Q6.4261315,3,6.5,3Q6.5738685,3,6.646318,3.014411Q6.718767,3.028822,6.787013,3.05709Q6.855258,3.085359,6.916678,3.126398Q6.978097,3.167437,7.03033,3.21967Q7.082563,3.271903,7.123602,3.333322Q7.164641,3.394742,7.19291,3.462987Q7.221178,3.531233,7.235589,3.603682Q7.25,3.6761315,7.25,3.75L7.25,5.58333Q7.25,5.6572,7.235589,5.7296499999999995Q7.221178,5.802099999999999,7.19291,5.87035Q7.164641,5.93859,7.123602,6.00001Q7.082563,6.06143,7.03033,6.113659999999999Q6.978097,6.165900000000001,6.916678,6.2069399999999995Q6.855258,6.2479700000000005,6.787013,6.27624Q6.718767,6.3045100000000005,6.646318,6.31892Q6.5738685,6.33333,6.5,6.33333Q6.4261315,6.33333,6.353682,6.31892Q6.281233,6.3045100000000005,6.212987,6.27624Q6.144742,6.2479700000000005,6.083322,6.2069399999999995Q6.021903,6.165900000000001,5.96967,6.113659999999999Q5.917437,6.06143,5.876398,6.00001Q5.835359,5.93859,5.80709,5.87035Q5.778822,5.802099999999999,5.764411,5.7296499999999995Q5.75,5.6572,5.75,5.58333L5.75,3.75Z" fill-rule="evenodd" fill="#231F2E" fill-opacity="1" style="mix-blend-mode:passthrough"/></g><g><path d="M21.16003,8.33995330828125Q20.40338,7.58331298828125,19.33333,7.58331298828125Q18.263282,7.58331298828125,17.50664082,8.33995336828125Q16.75,9.09659398828125,16.75,10.16664298828125Q16.75,11.23670298828125,17.50664087,11.993342988281249Q18.263282,12.74998298828125,19.33333,12.74998298828125Q20.40338,12.74998298828125,21.16003,11.993342988281249Q21.91667,11.23670298828125,21.91667,10.16664298828125Q21.91667,9.09659398828125,21.16003,8.33995330828125ZM18.5673,9.40061298828125Q18.8846,9.08331298828125,19.33333,9.08331298828125Q19.78206,9.08331298828125,20.09937,9.40061298828125Q20.41667,9.71791298828125,20.41667,10.16664298828125Q20.41667,10.615382988281251,20.09937,10.93268298828125Q19.78207,11.24998298828125,19.33333,11.24998298828125Q18.8846,11.24998298828125,18.5673,10.93268298828125Q18.25,10.61537298828125,18.25,10.16664298828125Q18.25,9.71791298828125,18.5673,9.40061298828125Z" fill-rule="evenodd" fill="#F97316" fill-opacity="1"/></g></g></g></svg>