<svg xmlns="http://www.w3.org/2000/svg" xmlns:xlink="http://www.w3.org/1999/xlink" fill="none" version="1.1" width="24" height="24" viewBox="0 0 24 24"><defs><clipPath id="master_svg0_72_04672"><rect x="0" y="0" width="24" height="24" rx="0"/></clipPath></defs><g clip-path="url(#master_svg0_72_04672)"><g><g><g><path d="M1.25,12.75L1.25,7.25L8.75,7.25L8.75,12.75L1.25,12.75ZM7.25,8.75L2.75,8.75L2.75,11.25L7.25,11.25L7.25,8.75Z" fill-rule="evenodd" fill="#736F78" fill-opacity="1"/></g><g><path d="M7.25,16.75L7.25,11.25L14.75,11.25L14.75,16.75L7.25,16.75ZM13.25,12.75L8.75,12.75L8.75,15.25L13.25,15.25L13.25,12.75Z" fill-rule="evenodd" fill="#736F78" fill-opacity="1"/></g><g><path d="M13.25,12.75L13.25,7.25L20.75,7.25L20.75,12.75L13.25,12.75ZM19.25,8.75L14.75,8.75L14.75,11.25L19.25,11.25L19.25,8.75Z" fill-rule="evenodd" fill="#736F78" fill-opacity="1"/></g><g><path d="M7.25,12.75L7.25,7.25L14.75,7.25L14.75,12.75L7.25,12.75ZM13.25,8.75L8.75,8.75L8.75,11.25L13.25,11.25L13.25,8.75Z" fill-rule="evenodd" fill="#736F78" fill-opacity="1"/></g><g><path d="M7.25,8.75L7.25,3.25L14.75,3.25L14.75,8.75L7.25,8.75ZM13.25,4.75L8.75,4.75L8.75,7.25L13.25,7.25L13.25,4.75Z" fill-rule="evenodd" fill="#736F78" fill-opacity="1"/></g></g><g><path d="M2,19L7,19L10,16L2,16L2,19Z" fill="#2882FF" fill-opacity="0.20000000298023224"/><path d="M1.25,19.75L7.31066,19.75L7.53033,19.53033L11.81066,15.25L1.25,15.25L1.25,19.75ZM6.68934,18.25L2.75,18.25L2.75,16.75L8.18934,16.75L6.68934,18.25Z" fill-rule="evenodd" fill="#2882FF" fill-opacity="1"/></g><g><path d="M20.091,16.091Q20.75,15.432,20.75,14.5L20.75,5.5Q20.75,4.568018,20.091,3.9090097Q19.432,3.25,18.5,3.25L3.5,3.25Q2.5680199999999997,3.25,1.9090099,3.9090098Q1.25,4.56802,1.25,5.5L1.25,16.75L18.5,16.75Q19.432,16.75,20.091,16.091ZM19.25,5.5L19.25,14.5Q19.25,15.25,18.5,15.25L2.75,15.25L2.75,5.5Q2.75,4.75,3.5,4.75L18.5,4.75Q19.25,4.75,19.25,5.5Z" fill-rule="evenodd" fill="#231F2E" fill-opacity="1"/></g><g><g><path d="M15.5,16.75L21.5,16.75Q21.58597,16.75,21.67153,16.75843Q21.757089999999998,16.76685,21.84141,16.78363Q21.92573,16.8004,22.008,16.82535Q22.09027,16.85031,22.16969,16.88321Q22.249119999999998,16.91611,22.324939999999998,16.95664Q22.40076,16.99716,22.47225,17.04493Q22.54373,17.09269,22.61019,17.14723Q22.676650000000002,17.20177,22.73744,17.26256Q22.79823,17.32335,22.85277,17.38981Q22.90731,17.45627,22.95507,17.527752Q23.00284,17.599235,23.04336,17.675056Q23.08389,17.750876,23.11679,17.830304Q23.14969,17.909731999999998,23.17465,17.992002Q23.1996,18.074272,23.21637,18.158592Q23.233150000000002,18.242912,23.24157,18.32847Q23.25,18.414028,23.25,18.5Q23.25,18.585972,23.24157,18.67153Q23.233150000000002,18.757088,23.21637,18.841408Q23.1996,18.925728,23.17465,19.007998Q23.14969,19.090268000000002,23.11679,19.169696Q23.08389,19.249124,23.04336,19.324944Q23.00284,19.400765,22.95507,19.472248Q22.90731,19.54373,22.85277,19.61019Q22.79823,19.67665,22.73744,19.73744Q22.676650000000002,19.79823,22.61019,19.85277Q22.54373,19.90731,22.47225,19.95507Q22.40076,20.00284,22.324939999999998,20.04336Q22.249119999999998,20.08389,22.1697,20.11679Q22.09027,20.14969,22.008,20.17465Q21.92573,20.1996,21.84141,20.21637Q21.757089999999998,20.23315,21.67153,20.24157Q21.58597,20.25,21.5,20.25L15.5,20.25Q15.414028,20.25,15.32847,20.24157Q15.242912,20.23315,15.158592,20.21637Q15.074272,20.1996,14.992002,20.17465Q14.909732,20.14969,14.830304,20.11679Q14.750876,20.08389,14.675056,20.04336Q14.599235,20.00284,14.527752,19.95507Q14.45627,19.90731,14.38981,19.85277Q14.32335,19.79823,14.26256,19.73744Q14.20177,19.67665,14.14723,19.61019Q14.09269,19.54373,14.04493,19.472248Q13.997160000000001,19.400765,13.95664,19.324944Q13.91611,19.249124,13.88321,19.169696Q13.85031,19.090268000000002,13.82535,19.007998Q13.8004,18.925728,13.78363,18.841408Q13.76685,18.757088,13.75843,18.67153Q13.75,18.585972,13.75,18.5Q13.75,18.414028,13.75843,18.32847Q13.76685,18.242912,13.78363,18.158592Q13.8004,18.074272,13.82535,17.992002Q13.85031,17.909731999999998,13.88321,17.830304Q13.91611,17.750876,13.95664,17.675056Q13.997160000000001,17.599235,14.04493,17.527752Q14.09269,17.45627,14.14723,17.38981Q14.20177,17.32335,14.26256,17.26256Q14.32335,17.20177,14.38981,17.14723Q14.45627,17.09269,14.527752,17.04493Q14.599235,16.99716,14.675056,16.95664Q14.750876,16.91611,14.830304,16.88321Q14.909732,16.85031,14.992002,16.82535Q15.074272,16.8004,15.158592,16.78363Q15.242912,16.76685,15.32847,16.75843Q15.414028,16.75,15.5,16.75Z" fill-rule="evenodd" fill="#FFFFFF" fill-opacity="1" style="mix-blend-mode:passthrough"/></g><g><path d="M16.75,15.5Q16.75,15.414028,16.75843,15.32847Q16.76685,15.242912,16.78363,15.158592Q16.8004,15.074272,16.82535,14.992002Q16.85031,14.909732,16.88321,14.830304Q16.91611,14.750876,16.95664,14.675056Q16.99716,14.599235,17.04493,14.527752Q17.09269,14.45627,17.14723,14.38981Q17.20177,14.32335,17.26256,14.26256Q17.32335,14.20177,17.38981,14.14723Q17.45627,14.09269,17.527752,14.04493Q17.599235,13.997160000000001,17.675056,13.95664Q17.750876,13.91611,17.830304,13.88321Q17.909731999999998,13.85031,17.992002,13.82535Q18.074272,13.8004,18.158592,13.78363Q18.242912,13.76685,18.32847,13.75843Q18.414028,13.75,18.5,13.75Q18.585972,13.75,18.67153,13.75843Q18.757088,13.76685,18.841408,13.78363Q18.925728,13.8004,19.007998,13.82535Q19.090268000000002,13.85031,19.169696,13.88321Q19.249124,13.91611,19.324944,13.95664Q19.400765,13.997160000000001,19.472248,14.04493Q19.54373,14.09269,19.61019,14.14723Q19.67665,14.20177,19.73744,14.26256Q19.79823,14.32335,19.85277,14.38981Q19.90731,14.45627,19.95507,14.527752Q20.00284,14.599235,20.04336,14.675056Q20.08389,14.750876,20.11679,14.830304Q20.14969,14.909732,20.17465,14.992002Q20.1996,15.074272,20.21637,15.158592Q20.23315,15.242912,20.24157,15.32847Q20.25,15.414028,20.25,15.5L20.25,21.5Q20.25,21.58597,20.24157,21.67153Q20.23315,21.757089999999998,20.21637,21.84141Q20.1996,21.92573,20.17465,22.008Q20.14969,22.09027,20.11679,22.16969Q20.08389,22.249119999999998,20.04336,22.324939999999998Q20.00284,22.40076,19.95507,22.47225Q19.90731,22.54373,19.85277,22.61019Q19.79823,22.676650000000002,19.73744,22.73744Q19.67665,22.79823,19.61019,22.85277Q19.54373,22.90731,19.472248,22.95507Q19.400765,23.00284,19.324944,23.04336Q19.249124,23.08389,19.169696,23.11679Q19.090268000000002,23.14969,19.007998,23.17465Q18.925728,23.1996,18.841408,23.21637Q18.757088,23.233150000000002,18.67153,23.24157Q18.585972,23.25,18.5,23.25Q18.414028,23.25,18.32847,23.24157Q18.242912,23.233150000000002,18.158592,23.21637Q18.074272,23.1996,17.992002,23.17465Q17.909731999999998,23.14969,17.830304,23.11679Q17.750876,23.08389,17.675056,23.04336Q17.599235,23.00284,17.527752,22.95507Q17.45627,22.90731,17.38981,22.85277Q17.32335,22.79823,17.26256,22.73744Q17.20177,22.676650000000002,17.14723,22.61019Q17.09269,22.54373,17.04493,22.47225Q16.99716,22.40076,16.95664,22.324939999999998Q16.91611,22.249119999999998,16.88321,22.1697Q16.85031,22.09027,16.82535,22.008Q16.8004,21.92573,16.78363,21.84141Q16.76685,21.757089999999998,16.75843,21.67153Q16.75,21.58597,16.75,21.5L16.75,15.5Z" fill-rule="evenodd" fill="#FFFFFF" fill-opacity="1" style="mix-blend-mode:passthrough"/></g></g><g><g><path d="M15.5,17.75L21.5,17.75Q21.57387,17.75,21.64632,17.764411Q21.71877,17.778822,21.787010000000002,17.80709Q21.85526,17.835359,21.91668,17.876398000000002Q21.9781,17.917437,22.03033,17.96967Q22.08256,18.021903000000002,22.1236,18.083322Q22.16464,18.144742,22.19291,18.212987Q22.22118,18.281233,22.235590000000002,18.353682Q22.25,18.4261315,22.25,18.5Q22.25,18.5738685,22.235590000000002,18.646318Q22.22118,18.718767,22.19291,18.787013Q22.16464,18.855258,22.1236,18.916678Q22.08256,18.978096999999998,22.03033,19.03033Q21.9781,19.082563,21.91668,19.123601999999998Q21.85526,19.164641,21.787010000000002,19.19291Q21.71877,19.221178,21.64632,19.235589Q21.57387,19.25,21.5,19.25L15.5,19.25Q15.4261315,19.25,15.353682,19.235589Q15.281233,19.221178,15.212987,19.19291Q15.144742,19.164641,15.083322,19.123601999999998Q15.021903,19.082563,14.96967,19.03033Q14.917437,18.978096999999998,14.876398,18.916678Q14.835359,18.855258,14.80709,18.787013Q14.778822,18.718767,14.764410999999999,18.646318Q14.75,18.5738685,14.75,18.5Q14.75,18.4261315,14.764410999999999,18.353682Q14.778822,18.281233,14.80709,18.212987Q14.835359,18.144742,14.876398,18.083322Q14.917437,18.021903000000002,14.96967,17.96967Q15.021903,17.917437,15.083322,17.876398000000002Q15.144742,17.835359,15.212987,17.80709Q15.281233,17.778822,15.353682,17.764411Q15.4261315,17.75,15.5,17.75Z" fill-rule="evenodd" fill="#2882FF" fill-opacity="1" style="mix-blend-mode:passthrough"/></g><g><path d="M17.75,15.5Q17.75,15.4261315,17.764411,15.353682Q17.778822,15.281233,17.80709,15.212987Q17.835359,15.144742,17.876398000000002,15.083322Q17.917437,15.021903,17.96967,14.96967Q18.021903000000002,14.917437,18.083322,14.876398Q18.144742,14.835359,18.212987,14.80709Q18.281233,14.778822,18.353682,14.764410999999999Q18.4261315,14.75,18.5,14.75Q18.5738685,14.75,18.646318,14.764410999999999Q18.718767,14.778822,18.787013,14.80709Q18.855258,14.835359,18.916678,14.876398Q18.978096999999998,14.917437,19.03033,14.96967Q19.082563,15.021903,19.123601999999998,15.083322Q19.164641,15.144742,19.19291,15.212987Q19.221178,15.281233,19.235589,15.353682Q19.25,15.4261315,19.25,15.5L19.25,21.5Q19.25,21.57387,19.235589,21.64632Q19.221178,21.71877,19.19291,21.787010000000002Q19.164641,21.85526,19.123601999999998,21.91668Q19.082563,21.9781,19.03033,22.03033Q18.978096999999998,22.08256,18.916678,22.1236Q18.855258,22.16464,18.787013,22.19291Q18.718767,22.22118,18.646318,22.235590000000002Q18.5738685,22.25,18.5,22.25Q18.4261315,22.25,18.353682,22.235590000000002Q18.281233,22.22118,18.212987,22.19291Q18.144742,22.16464,18.083322,22.1236Q18.021903000000002,22.08256,17.96967,22.03033Q17.917437,21.9781,17.876398000000002,21.91668Q17.835359,21.85526,17.80709,21.787010000000002Q17.778822,21.71877,17.764411,21.64632Q17.75,21.57387,17.75,21.5L17.75,15.5Z" fill-rule="evenodd" fill="#2882FF" fill-opacity="1" style="mix-blend-mode:passthrough"/></g></g></g></g></svg>