<svg xmlns="http://www.w3.org/2000/svg" xmlns:xlink="http://www.w3.org/1999/xlink" fill="none" version="1.1" width="24" height="24" viewBox="0 0 24 24"><defs><clipPath id="master_svg0_69_13432"><rect x="0" y="0" width="24" height="24" rx="0"/></clipPath></defs><g clip-path="url(#master_svg0_69_13432)"><g><path d="M1.75,7.5L1.75,16.5Q1.75,18.0533,2.84835,19.151600000000002Q3.9467,20.25,5.5,20.25L18.5,20.25Q20.0533,20.25,21.1517,19.151600000000002Q22.25,18.0533,22.25,16.5L22.25,7.5Q22.25,5.9467,21.1517,4.84835Q20.0533,3.75,18.5,3.75L5.5,3.75Q3.9467,3.75,2.84835,4.84835Q1.75,5.9467,1.75,7.5ZM3.9090100000000003,18.091Q3.25,17.432000000000002,3.25,16.5L3.25,7.5Q3.25,6.568020000000001,3.9090100000000003,5.90901Q4.568020000000001,5.25,5.5,5.25L18.5,5.25Q19.432,5.25,20.091,5.90901Q20.75,6.568020000000001,20.75,7.5L20.75,16.5Q20.75,17.432000000000002,20.091,18.091Q19.432,18.75,18.5,18.75L5.5,18.75Q4.568020000000001,18.75,3.9090100000000003,18.091Z" fill-rule="evenodd" fill="#231F2E" fill-opacity="1"/></g><g><path d="M7.202392578125,12.857149072265624L7.202392578125,10.428573072265625Q7.202392578125,9.782597072265625,7.659166578125,9.325823072265624Q8.115940578125,8.869049072265625,8.761916578125,8.869049072265625L15.238102578125,8.869049072265625Q15.884082578125,8.869049072265625,16.340852578125002,9.325823072265624Q16.797632578125,9.782598072265625,16.797632578125,10.428573072265625L16.797632578125,12.857149072265624Q16.797632578125,13.503119072265624,16.340852578125002,13.959899072265625Q15.884082578125,14.416669072265625,15.238102578125,14.416669072265625L8.761916578125,14.416669072265625Q8.115940578125,14.416669072265625,7.659166578125,13.959899072265625Q7.202392578125,13.503119072265624,7.202392578125,12.857149072265624ZM8.702392578125,12.857149072265624Q8.702392578125,12.916669072265625,8.761916578125,12.916669072265625L15.238102578125,12.916669072265625Q15.262762578124999,12.916669072265625,15.280192578125,12.899229072265625Q15.297632578125,12.881799072265625,15.297632578125,12.857149072265624L15.297632578125,10.428573072265625Q15.297632578125,10.369049072265625,15.238102578125,10.369049072265625L8.761916578125,10.369049072265625Q8.702392578125,10.369049072265625,8.702392578125,10.428573072265625L8.702392578125,12.857149072265624Z" fill="#2882FF" fill-opacity="1"/></g><g><path d="M11.25,8Q11.25,7.9261315,11.264410999999999,7.853682Q11.278822,7.781233,11.30709,7.712987Q11.335359,7.644742,11.376398,7.583322Q11.417437,7.521903,11.46967,7.46967Q11.521903,7.417437,11.583322,7.376398Q11.644742,7.335359,11.712987,7.30709Q11.781233,7.278822,11.853682,7.264411Q11.9261315,7.25,12,7.25Q12.0738685,7.25,12.146318,7.264411Q12.218767,7.278822,12.287013,7.30709Q12.355258,7.335359,12.416678,7.376398Q12.478097,7.417437,12.53033,7.46967Q12.582563,7.521903,12.623602,7.583322Q12.664641,7.644742,12.69291,7.712987Q12.721178,7.781233,12.735589000000001,7.853682Q12.75,7.9261315,12.75,8L12.75,16.5Q12.75,16.57387,12.735589000000001,16.64632Q12.721178,16.71877,12.69291,16.787010000000002Q12.664641,16.85526,12.623602,16.91668Q12.582563,16.978099999999998,12.53033,17.03033Q12.478097,17.08256,12.416678,17.1236Q12.355258,17.16464,12.287013,17.192909999999998Q12.218767,17.22118,12.146318,17.235590000000002Q12.0738685,17.25,12,17.25Q11.9261315,17.25,11.853682,17.235590000000002Q11.781233,17.22118,11.712987,17.192909999999998Q11.644742,17.16464,11.583322,17.1236Q11.521903,17.08256,11.46967,17.03033Q11.417437,16.978099999999998,11.376398,16.91668Q11.335359,16.85526,11.30709,16.787010000000002Q11.278822,16.71877,11.264410999999999,16.64632Q11.25,16.57387,11.25,16.5L11.25,8Z" fill-rule="evenodd" fill="#2882FF" fill-opacity="1"/></g></g></svg>