<svg xmlns="http://www.w3.org/2000/svg" xmlns:xlink="http://www.w3.org/1999/xlink" fill="none" version="1.1" width="24" height="24" viewBox="0 0 24 24"><defs><clipPath id="master_svg0_74_12157"><rect x="0" y="0" width="24" height="24" rx="0"/></clipPath></defs><g clip-path="url(#master_svg0_74_12157)"><g><path d="M13.250001389465332,5.499999165534973L13.250001389465332,9.999999165534973Q13.250001389465332,10.073869165534973,13.264411389465332,10.146319165534972Q13.278821389465332,10.218769165534972,13.307091389465333,10.287009165534974Q13.335361389465332,10.355259165534973,13.376401389465332,10.416679165534973Q13.417441389465331,10.478099165534973,13.469671389465333,10.530329165534972Q13.521901389465333,10.582559165534974,13.583321389465333,10.623599165534973Q13.644741389465333,10.664639165534973,13.712981389465332,10.692909165534973Q13.781231389465333,10.721179165534974,13.853681389465333,10.735589165534973Q13.926131389465333,10.749999165534973,14.000041389465332,10.749999165534973Q14.073841389465333,10.749999165534973,14.146341389465332,10.735589165534973Q14.218741389465333,10.721179165534974,14.287041389465331,10.692909165534973Q14.355241389465332,10.664639165534973,14.416641389465331,10.623599165534973Q14.478141389465332,10.582559165534974,14.530341389465333,10.530329165534972Q14.582541389465332,10.478099165534973,14.623641389465332,10.416679165534973Q14.664641389465332,10.355259165534973,14.692941389465332,10.287009165534974Q14.721141389465332,10.218769165534972,14.735541389465332,10.146319165534972Q14.750041389465332,10.073869165534973,14.750041389465332,9.999999165534973L14.750041389465332,5.499999165534973Q14.750041389465332,4.749999165534973,15.500041389465332,4.749999165534973Q15.810641389465331,4.749999165534973,16.030341389465335,4.969669165534973Q16.25004138946533,5.189339165534973,16.25004138946533,5.499999165534973L16.25004138946533,11.999999165534973Q16.25004138946533,12.073899165534973,16.264441389465333,12.146299165534973Q16.278841389465335,12.218799165534973,16.307041389465333,12.286999165534974Q16.335341389465334,12.355299165534973,16.376441389465334,12.416699165534974Q16.41744138946533,12.478099165534973,16.46964138946533,12.530299165534974Q16.521941389465333,12.582599165534972,16.583341389465332,12.623599165534973Q16.64474138946533,12.664599165534973,16.712941389465332,12.692899165534973Q16.781241389465333,12.721199165534973,16.85364138946533,12.735599165534973Q16.926141389465332,12.749999165534973,17.00004138946533,12.749999165534973Q17.073841389465333,12.749999165534973,17.146341389465334,12.735599165534973Q17.218741389465333,12.721199165534973,17.28704138946533,12.692899165534973Q17.355241389465334,12.664599165534973,17.416641389465333,12.623599165534973Q17.478141389465332,12.582599165534972,17.530341389465335,12.530299165534974Q17.582541389465334,12.478099165534973,17.623641389465334,12.416699165534974Q17.66464138946533,12.355299165534973,17.692941389465332,12.286999165534974Q17.72114138946533,12.218799165534973,17.735541389465332,12.146299165534973Q17.75004138946533,12.073899165534973,17.75004138946533,11.999999165534973L17.75004138946533,7.499999165534973Q17.75004138946533,6.749999165534973,18.50004138946533,6.749999165534973Q19.25004138946533,6.749999165534973,19.25004138946533,7.499999165534973L19.25004138946533,15.999999165534973Q19.25004138946533,18.174599165534975,17.71234138946533,19.712299165534972Q16.174641389465332,21.249999165534973,14.000041389465332,21.249999165534973L12.052591389465332,21.249999165534973Q9.102991389465332,20.825799165534974,7.6489213894653325,18.621899165534973L4.966966389465332,13.406999165534973Q4.9405983894653325,13.355699165534974,4.906704389465332,13.309099165534974Q4.348291389465332,12.540699165534972,5.116471389465332,11.982029165534973Q5.8629113894653315,11.439159165534972,6.411791389465332,12.148899165534973L7.283031389465332,13.842999165534973Q7.330311389465332,13.934899165534974,7.400701389465333,14.010699165534973Q7.471091389465332,14.086399165534973,7.559331389465332,14.140199165534973Q7.647581389465332,14.194099165534974,7.747101389465332,14.221999165534973Q7.846621389465332,14.249999165534973,7.950001389465331,14.249999165534973Q7.9625013894653325,14.249999165534973,7.975001389465332,14.249599165534972Q7.987491389465332,14.249999165534973,8.000001389465332,14.249999165534973Q8.073871389465332,14.249999165534973,8.146321389465331,14.235599165534973Q8.218771389465331,14.221199165534973,8.28701138946533,14.192899165534973Q8.355261389465332,14.164599165534973,8.416681389465332,14.123599165534973Q8.478101389465332,14.082599165534972,8.530331389465331,14.030299165534974Q8.582561389465333,13.978099165534973,8.623601389465332,13.916699165534974Q8.664641389465332,13.855299165534973,8.692911389465332,13.786999165534974Q8.721181389465333,13.718799165534973,8.735591389465332,13.646299165534973Q8.750001389465332,13.573899165534973,8.750001389465332,13.499999165534973L8.750001389465332,7.999999165534973Q8.750001389465332,7.926129165534973,8.735591389465332,7.853679165534973Q8.721181389465333,7.781229165534973,8.692911389465332,7.712989165534973Q8.664641389465332,7.644739165534973,8.623601389465332,7.583319165534973Q8.582561389465333,7.521899165534973,8.530331389465331,7.469669165534973Q8.478101389465332,7.417439165534973,8.416681389465332,7.376399165534973Q8.355261389465332,7.335359165534973,8.28701138946533,7.307089165534973Q8.218771389465331,7.278819165534973,8.146321389465331,7.264409165534973Q8.073871389465332,7.249999165534973,8.000001389465332,7.249999165534973Q7.926131389465333,7.249999165534973,7.853681389465332,7.264409165534973Q7.781231389465332,7.278819165534973,7.712991389465332,7.307089165534973Q7.644741389465333,7.335359165534973,7.583321389465333,7.376399165534973Q7.521901389465333,7.417439165534973,7.469671389465332,7.469669165534973Q7.417431389465332,7.521899165534973,7.376401389465332,7.583319165534973Q7.335361389465332,7.644739165534973,7.307091389465333,7.712989165534973Q7.278821389465332,7.781229165534973,7.264411389465332,7.853679165534973Q7.250001389465332,7.926129165534973,7.250001389465332,7.999999165534973L7.250001389465332,10.865999165534973Q6.750511389465332,10.439579165534973,6.057061389465332,10.330209165534972Q5.054801389465332,10.172129165534972,4.234215389465332,10.768919165534973Q3.413630389465332,11.365709165534973,3.255210389465332,12.367899165534974Q3.101654389465332,13.339399165534973,3.657377389465332,14.140299165534973L6.333031389465332,19.342999165534973Q6.3505913894653325,19.377099165534972,6.371531389465332,19.409299165534975Q8.211041389465333,22.233799165534972,11.897381389465332,22.742899165534972Q11.948451389465333,22.749999165534973,12.000001389465332,22.749999165534973L14.000041389465332,22.749999165534973Q16.795941389465334,22.749999165534973,18.77294138946533,20.772999165534973Q20.75004138946533,18.795899165534973,20.75004138946533,15.999999165534973L20.75004138946533,7.499999165534973Q20.75004138946533,6.568019165534973,20.090941389465332,5.9090091655349735Q19.43194138946533,5.249999165534973,18.50004138946533,5.249999165534973Q18.09804138946533,5.249999165534973,17.74684138946533,5.372589165534974Q17.704541389465334,4.522509165534974,17.090941389465332,3.9090091655349735Q16.43194138946533,3.249999165534973,15.500041389465332,3.249999165534973Q15.098041389465331,3.249999165534973,14.746841389465333,3.372589165534973Q14.704541389465332,2.522512165534973,14.091041389465332,1.9090091655349732Q13.431981389465331,1.2499991655349731,12.500001389465332,1.2499991655349731Q11.568021389465333,1.2499991655349731,10.909011389465332,1.9090086655349732Q10.293531389465333,2.5244891655349733,10.252871389465332,3.3780691655349733Q8.931581389465332,2.887028165534973,7.910001389465332,3.907339165534973Q7.804361389465332,4.012849165534973,7.747181389465332,4.150769165534973Q7.690001389465332,4.2886991655349735,7.690001389465332,4.437999165534974Q7.690001389465332,4.511869165534973,7.704411389465331,4.584319165534973Q7.718821389465332,4.656769165534973,7.747091389465332,4.725009165534973Q7.775361389465332,4.793259165534973,7.816401389465332,4.854679165534973Q7.857431389465332,4.916099165534973,7.909671389465332,4.968329165534973Q7.961901389465332,5.020559165534973,8.023321389465332,5.0615991655349735Q8.084741389465332,5.102639165534973,8.152991389465331,5.130909165534973Q8.221231389465332,5.159179165534973,8.293681389465332,5.173589165534973Q8.366131389465332,5.187999165534974,8.440001389465332,5.187999165534974Q8.589061389465332,5.187999165534974,8.726801389465333,5.130999165534973Q8.864531389465332,5.073999165534973,8.970001389465331,4.968659165534973L8.970011389465332,4.968649165534973L8.970331389465333,4.968329165534973Q9.324761389465332,4.614649165534973,9.787381389465331,4.806559165534973Q10.249771389465332,4.998379165534973,10.250001389465332,5.499009165534973L10.250001389465332,6.999999165534973Q10.250001389465332,7.0738691655349735,10.264411389465332,7.146319165534973Q10.278821389465332,7.218769165534973,10.30709138946533,7.287009165534974Q10.335361389465332,7.3552591655349735,10.376401389465332,7.4166791655349735Q10.417441389465331,7.478099165534974,10.469671389465333,7.530329165534973Q10.52190138946533,7.582559165534973,10.583321389465333,7.623599165534973Q10.64474138946533,7.6646391655349735,10.712991389465332,7.6929091655349735Q10.781231389465333,7.7211791655349735,10.853681389465333,7.735589165534973Q10.926131389465333,7.749999165534973,11.000001389465332,7.749999165534973Q11.073871389465332,7.749999165534973,11.146321389465331,7.735589165534973Q11.218761389465332,7.7211791655349735,11.28701138946533,7.6929091655349735Q11.355261389465332,7.6646391655349735,11.416681389465332,7.623599165534973Q11.478091389465332,7.582559165534973,11.530331389465331,7.530329165534973Q11.582561389465333,7.478099165534974,11.623601389465332,7.4166791655349735Q11.664641389465332,7.3552591655349735,11.692911389465332,7.287009165534974Q11.721181389465333,7.218769165534973,11.735591389465332,7.146319165534973Q11.750001389465332,7.0738691655349735,11.750001389465332,6.999999165534973L11.750001389465332,3.499999165534973Q11.750001389465332,2.749999165534973,12.500001389465332,2.749999165534973Q12.810661389465333,2.749999165534973,13.030331389465331,2.969669165534973Q13.250001389465332,3.189339165534973,13.250001389465332,3.499999165534973L13.250001389465332,5.499999165534973ZM11.750001389465332,11.007999165534972L11.750001389465332,11.999999165534973Q11.750001389465332,12.073899165534973,11.735591389465332,12.146299165534973Q11.721181389465333,12.218799165534973,11.692911389465332,12.286999165534974Q11.664641389465332,12.355299165534973,11.623601389465332,12.416699165534974Q11.582561389465333,12.478099165534973,11.530331389465331,12.530299165534974Q11.478091389465332,12.582599165534972,11.416671389465332,12.623599165534973Q11.355261389465332,12.664599165534973,11.28701138946533,12.692899165534973Q11.218761389465332,12.721199165534973,11.146321389465331,12.735599165534973Q11.073871389465332,12.749999165534973,11.000001389465332,12.749999165534973Q10.926131389465333,12.749999165534973,10.853681389465333,12.735599165534973Q10.781231389465333,12.721199165534973,10.712991389465332,12.692899165534973Q10.64474138946533,12.664599165534973,10.583321389465333,12.623599165534973Q10.52190138946533,12.582599165534972,10.469671389465333,12.530299165534974Q10.417441389465331,12.478099165534973,10.376401389465332,12.416699165534974Q10.335361389465332,12.355299165534973,10.30709138946533,12.286999165534974Q10.278821389465332,12.218799165534973,10.264411389465332,12.146299165534973Q10.250001389465332,12.073899165534973,10.250001389465332,11.999999165534973L10.250001389465332,11.007999165534972Q10.250001389465332,10.934129165534973,10.264411389465332,10.861679165534973Q10.278821389465332,10.789229165534973,10.30709138946533,10.720989165534974Q10.335361389465332,10.652739165534973,10.376401389465332,10.591319165534973Q10.417441389465331,10.529899165534973,10.469671389465333,10.477669165534973Q10.52190138946533,10.425439165534973,10.583321389465333,10.384399165534973Q10.64474138946533,10.343359165534974,10.712991389465332,10.315089165534973Q10.781231389465333,10.286819165534974,10.853681389465333,10.272409165534974Q10.926131389465333,10.257999165534972,11.000001389465332,10.257999165534972Q11.073871389465332,10.257999165534972,11.146321389465331,10.272409165534974Q11.218761389465332,10.286819165534974,11.28701138946533,10.315089165534973Q11.355261389465332,10.343359165534974,11.416681389465332,10.384399165534973Q11.478091389465332,10.425439165534973,11.530331389465331,10.477669165534973Q11.582561389465333,10.529899165534973,11.623601389465332,10.591319165534973Q11.664641389465332,10.652739165534973,11.692911389465332,10.720989165534974Q11.721181389465333,10.789229165534973,11.735591389465332,10.861679165534973Q11.750001389465332,10.934129165534973,11.750001389465332,11.007999165534972Z" fill-rule="evenodd" fill="#231F2E" fill-opacity="1"/></g><g><path d="M3.530484,2.469824L21.5303,20.4697Q21.6358,20.5752,21.6929,20.713Q21.75,20.8508,21.75,21Q21.75,21.0739,21.7356,21.1463Q21.7212,21.2188,21.6929,21.287Q21.6646,21.3553,21.6236,21.4167Q21.5826,21.4781,21.5303,21.5303Q21.4781,21.5826,21.4167,21.6236Q21.3553,21.6646,21.287,21.6929Q21.2188,21.7212,21.1463,21.7356Q21.0739,21.75,21,21.75Q20.8508,21.75,20.713,21.6929Q20.5752,21.6358,20.4697,21.5303L2.46967,3.53033Q2.364181,3.424841,2.30709,3.287013Q2.25,3.149184,2.25,3Q2.25,2.9261315,2.264411,2.853682Q2.278822,2.781233,2.30709,2.712987Q2.335359,2.644742,2.376398,2.583322Q2.417437,2.521903,2.46967,2.46967Q2.521903,2.417437,2.583322,2.376398Q2.644742,2.335359,2.712987,2.30709Q2.781233,2.278822,2.853682,2.264411Q2.9261315,2.25,3,2.25Q3.149184,2.25,3.287013,2.30709Q3.424841,2.364181,3.53033,2.46967L3.530484,2.469824Z" fill-rule="evenodd" fill="#DE1000" fill-opacity="1" style="mix-blend-mode:passthrough"/></g></g></svg>