<svg xmlns="http://www.w3.org/2000/svg" xmlns:xlink="http://www.w3.org/1999/xlink" fill="none" version="1.1" width="24" height="24" viewBox="0 0 24 24"><defs><clipPath id="master_svg0_69_00889"><rect x="0" y="0" width="24" height="24" rx="0"/></clipPath></defs><g clip-path="url(#master_svg0_69_00889)"><g><path d="M13.25,3Q13.25,2.9261315,13.264410999999999,2.853682Q13.278822,2.781233,13.30709,2.712987Q13.335359,2.644742,13.376398,2.583322Q13.417437,2.521903,13.46967,2.46967Q13.521903,2.417437,13.583322,2.376398Q13.644742,2.335359,13.712987,2.30709Q13.781233,2.278822,13.853682,2.264411Q13.9261315,2.25,14,2.25Q14.0738685,2.25,14.146318,2.264411Q14.218767,2.278822,14.287013,2.30709Q14.355258,2.335359,14.416678,2.376398Q14.478097,2.417437,14.53033,2.46967Q14.582563,2.521903,14.623602,2.583322Q14.664641,2.644742,14.69291,2.712987Q14.721178,2.781233,14.735589000000001,2.853682Q14.75,2.9261315,14.75,3L14.75,7Q14.75,7.10355,14.823223,7.17678Q14.896447,7.25,15,7.25L19,7.25Q19.07387,7.25,19.14632,7.26441Q19.21877,7.27882,19.287010000000002,7.30709Q19.35526,7.33536,19.41668,7.3764Q19.4781,7.41744,19.53033,7.46967Q19.58256,7.5219,19.6236,7.58332Q19.66464,7.64474,19.69291,7.71299Q19.72118,7.78123,19.735590000000002,7.85368Q19.75,7.92613,19.75,8Q19.75,8.07387,19.735590000000002,8.14632Q19.72118,8.21877,19.69291,8.28701Q19.66464,8.355260000000001,19.6236,8.41668Q19.58256,8.478100000000001,19.53033,8.53033Q19.4781,8.58256,19.41668,8.6236Q19.35526,8.66464,19.287010000000002,8.692910000000001Q19.21877,8.72118,19.14632,8.73559Q19.07387,8.75,19,8.75L15,8.75Q14.275126,8.75,13.762563,8.23744Q13.25,7.72487,13.25,7L13.25,3Z" fill-rule="evenodd" fill="#231F2E" fill-opacity="1"/></g><g><path d="M18.944499999999998,20.9445Q19.75,20.1391,19.75,19L19.75,8Q19.75,7.85082,19.6929,7.71299Q19.6358,7.57516,19.5303,7.46967L14.53033,2.46967Q14.42484,2.364181,14.28701,2.30709Q14.14919,2.25,14,2.25L7,2.25Q5.860913,2.25,5.0554564,3.0554564Q4.25,3.860913,4.25,5L4.25,19Q4.25,20.1391,5.0554563,20.9445Q5.860912,21.75,7,21.75L17,21.75Q18.1391,21.75,18.944499999999998,20.9445ZM18.25,8.31066L18.25,19Q18.25,19.5178,17.8839,19.8839Q17.5178,20.25,17,20.25L7,20.25Q6.4822299999999995,20.25,6.1161200000000004,19.8839Q5.75,19.5178,5.75,19L5.75,5Q5.75,4.4822299999999995,6.1161200000000004,4.1161200000000004Q6.4822299999999995,3.75,7,3.75L13.68934,3.75L18.25,8.31066Z" fill-rule="evenodd" fill="#231F2E" fill-opacity="1"/></g><g><path d="M9,14.25L15,14.25Q15.07387,14.25,15.14632,14.264410999999999Q15.21877,14.278822,15.28701,14.30709Q15.355260000000001,14.335359,15.41668,14.376398Q15.478100000000001,14.417437,15.53033,14.46967Q15.58256,14.521903,15.6236,14.583322Q15.66464,14.644742,15.692910000000001,14.712987Q15.72118,14.781233,15.73559,14.853682Q15.75,14.9261315,15.75,15Q15.75,15.0738685,15.73559,15.146318Q15.72118,15.218767,15.692910000000001,15.287013Q15.66464,15.355258,15.6236,15.416678Q15.58256,15.478097,15.53033,15.53033Q15.478100000000001,15.582563,15.41668,15.623602Q15.355260000000001,15.664641,15.28701,15.69291Q15.21877,15.721178,15.14632,15.735589000000001Q15.07387,15.75,15,15.75L9,15.75Q8.9261315,15.75,8.853682,15.735589000000001Q8.781233,15.721178,8.712987,15.69291Q8.644742,15.664641,8.583322,15.623602Q8.521903,15.582563,8.46967,15.53033Q8.417437,15.478097,8.376398,15.416678Q8.335359,15.355258,8.30709,15.287013Q8.278822,15.218767,8.264410999999999,15.146318Q8.25,15.0738685,8.25,15Q8.25,14.9261315,8.264410999999999,14.853682Q8.278822,14.781233,8.30709,14.712987Q8.335359,14.644742,8.376398,14.583322Q8.417437,14.521903,8.46967,14.46967Q8.521903,14.417437,8.583322,14.376398Q8.644742,14.335359,8.712987,14.30709Q8.781233,14.278822,8.853682,14.264410999999999Q8.9261315,14.25,9,14.25Z" fill-rule="evenodd" fill="#2882FF" fill-opacity="1"/></g><g><path d="M13.030484,11.969824L15.53033,14.46967Q15.635819999999999,14.57516,15.69291,14.71299Q15.75,14.85082,15.75,15Q15.75,15.14918,15.69291,15.28701Q15.635819999999999,15.42484,15.53033,15.53033L13.030792,18.02987L13.03033,18.03033Q12.924841,18.13582,12.787013,18.19291Q12.649184,18.25,12.5,18.25Q12.4261315,18.25,12.353682,18.235590000000002Q12.281233,18.22118,12.212987,18.19291Q12.144742,18.16464,12.083322,18.1236Q12.021903,18.08256,11.96967,18.03033Q11.917437,17.9781,11.876398,17.91668Q11.835359,17.85526,11.80709,17.787010000000002Q11.778822,17.71877,11.764410999999999,17.64632Q11.75,17.57387,11.75,17.5Q11.75,17.35082,11.80709,17.212989999999998Q11.864181,17.07516,11.96967,16.96967L11.970132,16.96921L13.93934,15L11.96967,13.03033Q11.864181,12.924841,11.80709,12.787013Q11.75,12.649184,11.75,12.5Q11.75,12.4261315,11.764410999999999,12.353682Q11.778822,12.281233,11.80709,12.212987Q11.835359,12.144742,11.876398,12.083322Q11.917437,12.021903,11.96967,11.96967Q12.021903,11.917437,12.083322,11.876398Q12.144742,11.835359,12.212987,11.80709Q12.281233,11.778822,12.353682,11.764410999999999Q12.4261315,11.75,12.5,11.75Q12.649184,11.75,12.787013,11.80709Q12.924841,11.864181,13.03033,11.96967L13.030484,11.969824Z" fill-rule="evenodd" fill="#2882FF" fill-opacity="1"/></g></g></svg>