<svg xmlns="http://www.w3.org/2000/svg" xmlns:xlink="http://www.w3.org/1999/xlink" fill="none" version="1.1" width="24" height="24" viewBox="0 0 24 24"><defs><clipPath id="master_svg0_72_02762"><rect x="0" y="0" width="24" height="24" rx="0"/></clipPath></defs><g clip-path="url(#master_svg0_72_02762)"><g><g><path d="M15.697369375976562,6.636350317596436L18.030545375976562,8.969526317596436Q18.082785375976563,9.021766317596436,18.123825375976562,9.083186317596436Q18.16486537597656,9.144606317596436,18.193125375976564,9.212846317596435Q18.221395375976563,9.281096317596436,18.23580537597656,9.353546317596436Q18.250215375976563,9.425996317596436,18.250215375976563,9.499856317596436Q18.250215375976563,9.573726317596435,18.23580537597656,9.646176317596435Q18.221395375976563,9.718626317596435,18.193125375976564,9.786876317596436Q18.16486537597656,9.855116317596435,18.123825375976562,9.916536317596435Q18.082785375976563,9.977956317596435,18.030545375976562,10.030186317596435L15.697215375976562,12.363526317596435Q15.591726375976563,12.469016317596434,15.453898375976562,12.526106317596437Q15.316069375976562,12.583196317596435,15.166885375976562,12.583196317596435Q15.093016875976563,12.583196317596435,15.020567375976562,12.568786317596436Q14.948118375976563,12.554376317596436,14.879872375976563,12.526106317596437Q14.811627375976563,12.497836317596436,14.750207375976563,12.456796317596435Q14.688788375976563,12.415756317596436,14.636555375976563,12.363526317596435Q14.584322375976562,12.311296317596437,14.543283375976563,12.249876317596435Q14.502244375976563,12.188456317596437,14.473975375976563,12.120206317596436Q14.445707375976562,12.051966317596435,14.431296375976562,11.979516317596435Q14.416885375976562,11.907066317596435,14.416885375976562,11.833196317596435Q14.416885375976562,11.684006317596435,14.473975375976563,11.546186317596437Q14.531066375976563,11.408356317596436,14.636555375976563,11.302866317596436L16.439555375976564,9.499856317596436L14.636555375976563,7.696856317596436Q14.531066375976563,7.591367317596435,14.473975375976563,7.4535393175964355Q14.416885375976562,7.3157103175964355,14.416885375976562,7.1665263175964355Q14.416885375976562,7.092657817596436,14.431296375976562,7.020208317596436Q14.445707375976562,6.947759317596436,14.473975375976563,6.879513317596436Q14.502244375976563,6.8112683175964355,14.543283375976563,6.749848317596435Q14.584322375976562,6.6884293175964356,14.636555375976563,6.636196317596435Q14.688788375976563,6.583963317596435,14.750207375976563,6.542924317596436Q14.811627375976563,6.501885317596436,14.879872375976563,6.473616317596435Q14.948118375976563,6.4453483175964355,15.020567375976562,6.4309373175964355Q15.093016875976563,6.4165263175964355,15.166885375976562,6.4165263175964355Q15.316069375976562,6.4165263175964355,15.453898375976562,6.473616317596435Q15.591726375976563,6.530707317596436,15.697215375976562,6.636196317596435L15.697369375976562,6.636350317596436Z" fill-rule="evenodd" fill="#2882FF" fill-opacity="1"/></g><g><path d="M3.5,8.749931335449219L17.5,8.749931335449219Q17.5738,8.749931335449219,17.6463,8.764342335449218Q17.7187,8.778753335449219,17.787,8.80702133544922Q17.8552,8.83529033544922,17.916600000000003,8.876329335449219Q17.978099999999998,8.917368335449218,18.0303,8.96960133544922Q18.0825,9.021834335449219,18.1236,9.08325333544922Q18.1646,9.14467333544922,18.1929,9.212918335449219Q18.2211,9.281164335449219,18.235599999999998,9.353613335449218Q18.25,9.426062835449219,18.25,9.499931335449219Q18.25,9.573799835449218,18.235599999999998,9.64624933544922Q18.2211,9.718698335449218,18.1929,9.786944335449219Q18.1646,9.855189335449218,18.1236,9.916609335449218Q18.0825,9.978028335449219,18.0303,10.030261335449218Q17.978099999999998,10.08249433544922,17.916600000000003,10.123533335449219Q17.8552,10.164572335449218,17.787,10.192841335449218Q17.7187,10.221109335449219,17.6463,10.23552033544922Q17.5738,10.249931335449219,17.5,10.249931335449219L3.5,10.249931335449219Q3.4261315,10.249931335449219,3.353682,10.23552033544922Q3.281233,10.221109335449219,3.212987,10.192841335449218Q3.144742,10.164572335449218,3.083322,10.123533335449219Q3.021903,10.08249433544922,2.96967,10.030261335449218Q2.917437,9.978028335449219,2.876398,9.916609335449218Q2.835359,9.855189335449218,2.80709,9.786944335449219Q2.778822,9.718698335449218,2.764411,9.64624933544922Q2.75,9.573799835449218,2.75,9.499931335449219Q2.75,9.426062835449219,2.764411,9.353613335449218Q2.778822,9.281164335449219,2.80709,9.212918335449219Q2.835359,9.14467333544922,2.876398,9.08325333544922Q2.917437,9.021834335449219,2.96967,8.96960133544922Q3.021903,8.917368335449218,3.083322,8.876329335449219Q3.144742,8.83529033544922,3.212987,8.80702133544922Q3.281233,8.778753335449219,3.353682,8.764342335449218Q3.4261315,8.749931335449219,3.5,8.749931335449219Z" fill-rule="evenodd" fill="#2882FF" fill-opacity="1"/></g><g transform="matrix(-1,0,0,1,11.667238235473633,0)"><path d="M6.364103117736816,6.636350317596436L8.697279117736816,8.969526317596436Q8.749519117736817,9.021766317596436,8.790559117736816,9.083186317596436Q8.831599117736816,9.144606317596436,8.859859117736816,9.212846317596435Q8.888129117736817,9.281096317596436,8.902539117736817,9.353546317596436Q8.916949117736817,9.425996317596436,8.916949117736817,9.499856317596436Q8.916949117736817,9.573726317596435,8.902539117736817,9.646176317596435Q8.888129117736817,9.718626317596435,8.859859117736816,9.786876317596436Q8.831599117736816,9.855116317596435,8.790559117736816,9.916536317596435Q8.749519117736817,9.977956317596435,8.697279117736816,10.030186317596435L6.363949117736817,12.363526317596435Q6.258460117736816,12.469016317596434,6.120632117736816,12.526106317596437Q5.982803117736816,12.583196317596435,5.833619117736816,12.583196317596435Q5.759750617736817,12.583196317596435,5.6873011177368165,12.568786317596436Q5.614852117736817,12.554376317596436,5.546606117736816,12.526106317596437Q5.478361117736816,12.497836317596436,5.416941117736816,12.456796317596435Q5.355522117736816,12.415756317596436,5.303289117736816,12.363526317596435Q5.251056117736816,12.311296317596437,5.210017117736816,12.249876317596435Q5.168978117736817,12.188456317596437,5.140709117736816,12.120206317596436Q5.112441117736816,12.051966317596435,5.098030117736816,11.979516317596435Q5.083619117736816,11.907066317596435,5.083619117736816,11.833196317596435Q5.083619117736816,11.684006317596435,5.140709117736816,11.546186317596437Q5.197800117736817,11.408356317596436,5.303289117736816,11.302866317596436L7.106289117736816,9.499856317596436L5.303289117736816,7.696856317596436Q5.197800117736817,7.591367317596435,5.140709117736816,7.4535393175964355Q5.083619117736816,7.3157103175964355,5.083619117736816,7.1665263175964355Q5.083619117736816,7.092657817596436,5.098030117736816,7.020208317596436Q5.112441117736816,6.947759317596436,5.140709117736816,6.879513317596436Q5.168978117736817,6.8112683175964355,5.210017117736816,6.749848317596435Q5.251056117736816,6.6884293175964356,5.303289117736816,6.636196317596435Q5.355522117736816,6.583963317596435,5.416941117736816,6.542924317596436Q5.478361117736816,6.501885317596436,5.546606117736816,6.473616317596435Q5.614852117736817,6.4453483175964355,5.6873011177368165,6.4309373175964355Q5.759750617736817,6.4165263175964355,5.833619117736816,6.4165263175964355Q5.982803117736816,6.4165263175964355,6.120632117736816,6.473616317596435Q6.258460117736816,6.530707317596436,6.363949117736817,6.636196317596435L6.364103117736816,6.636350317596436Z" fill-rule="evenodd" fill="#2882FF" fill-opacity="1"/></g><g transform="matrix(0,1,1,0,-5.999789714813232,5.999789714813232)"><path d="M8.697366038116455,13.636495752929687L11.030542038116455,15.969671752929688Q11.082782038116456,16.021911752929686,11.123822038116455,16.083331752929688Q11.164862038116455,16.144751752929686,11.193122038116455,16.21299175292969Q11.221392038116456,16.281241752929688,11.235802038116455,16.353691752929688Q11.250212038116455,16.426141752929688,11.250212038116455,16.500001752929688Q11.250212038116455,16.573871752929687,11.235802038116455,16.646321752929687Q11.221392038116456,16.718771752929687,11.193122038116455,16.78702175292969Q11.164862038116455,16.85526175292969,11.123822038116455,16.916681752929687Q11.082782038116456,16.97810175292969,11.030542038116455,17.030331752929687L8.697212038116454,19.363671752929687Q8.591723038116456,19.469161752929686,8.453895038116455,19.52625175292969Q8.316066038116455,19.583341752929687,8.166882038116455,19.583341752929687Q8.093013538116455,19.583341752929687,8.020564038116454,19.568931752929686Q7.948115038116455,19.554521752929688,7.879869038116455,19.52625175292969Q7.811624038116455,19.49798175292969,7.750204038116455,19.456941752929687Q7.688785038116455,19.41590175292969,7.636552038116455,19.363671752929687Q7.584319038116455,19.31144175292969,7.543280038116455,19.250021752929687Q7.5022410381164555,19.18860175292969,7.473972038116455,19.120351752929686Q7.445704038116455,19.052111752929687,7.431293038116455,18.979661752929687Q7.416882038116455,18.907211752929687,7.416882038116455,18.833341752929687Q7.416882038116455,18.684151752929687,7.473972038116455,18.54633175292969Q7.531063038116455,18.408501752929688,7.636552038116455,18.303011752929688L9.439552038116455,16.500001752929688L7.636552038116455,14.697001752929687Q7.531063038116455,14.591512752929688,7.473972038116455,14.453684752929687Q7.416882038116455,14.315855752929687,7.416882038116455,14.166671752929688Q7.416882038116455,14.092803252929688,7.431293038116455,14.020353752929687Q7.445704038116455,13.947904752929688,7.473972038116455,13.879658752929688Q7.5022410381164555,13.811413752929688,7.543280038116455,13.749993752929688Q7.584319038116455,13.688574752929688,7.636552038116455,13.636341752929688Q7.688785038116455,13.584108752929687,7.750204038116455,13.543069752929688Q7.811624038116455,13.502030752929688,7.879869038116455,13.473761752929688Q7.948115038116455,13.445493752929687,8.020564038116454,13.431082752929687Q8.093013538116455,13.416671752929688,8.166882038116455,13.416671752929688Q8.316066038116455,13.416671752929688,8.453895038116455,13.473761752929688Q8.591723038116456,13.530852752929688,8.697212038116454,13.636341752929688L8.697366038116455,13.636495752929687Z" fill-rule="evenodd" fill="#2882FF" fill-opacity="1"/></g><g transform="matrix(0,1,1,0,8.00000286102295,-8.00000286102295)"><path d="M10.50000286102295,1.75L24.50000286102295,1.75Q24.573802861022948,1.75,24.64630286102295,1.764411Q24.718702861022948,1.778822,24.78700286102295,1.80709Q24.85520286102295,1.835359,24.91660286102295,1.876398Q24.978102861022947,1.917437,25.03030286102295,1.96967Q25.08250286102295,2.021903,25.12360286102295,2.083322Q25.16460286102295,2.144742,25.19290286102295,2.212987Q25.22110286102295,2.281233,25.235602861022947,2.353682Q25.25000286102295,2.4261315,25.25000286102295,2.5Q25.25000286102295,2.5738685,25.235602861022947,2.646318Q25.22110286102295,2.718767,25.19290286102295,2.787013Q25.16460286102295,2.855258,25.12360286102295,2.916678Q25.08250286102295,2.978097,25.03030286102295,3.03033Q24.978102861022947,3.082563,24.91660286102295,3.123602Q24.85520286102295,3.164641,24.78700286102295,3.19291Q24.718702861022948,3.221178,24.64630286102295,3.235589Q24.573802861022948,3.25,24.50000286102295,3.25L10.50000286102295,3.25Q10.42613436102295,3.25,10.353684861022948,3.235589Q10.28123586102295,3.221178,10.21298986102295,3.19291Q10.14474486102295,3.164641,10.08332486102295,3.123602Q10.02190586102295,3.082563,9.96967286102295,3.03033Q9.917439861022949,2.978097,9.87640086102295,2.916678Q9.83536186102295,2.855258,9.80709286102295,2.787013Q9.77882486102295,2.718767,9.764413861022948,2.646318Q9.75000286102295,2.5738685,9.75000286102295,2.5Q9.75000286102295,2.4261315,9.764413861022948,2.353682Q9.77882486102295,2.281233,9.80709286102295,2.212987Q9.83536186102295,2.144742,9.87640086102295,2.083322Q9.917439861022949,2.021903,9.96967286102295,1.96967Q10.02190586102295,1.917437,10.08332486102295,1.876398Q10.14474486102295,1.835359,10.21298986102295,1.80709Q10.28123586102295,1.778822,10.353684861022948,1.764411Q10.42613436102295,1.75,10.50000286102295,1.75Z" fill-rule="evenodd" fill="#2882FF" fill-opacity="1"/></g><g transform="matrix(0,-1,1,0,3.333547830581665,13.000216245651245)"><path d="M8.697366038116455,4.30315820753479L11.030542038116455,6.63633420753479Q11.082782038116456,6.68857420753479,11.123822038116455,6.74999420753479Q11.164862038116455,6.81141420753479,11.193122038116455,6.87965420753479Q11.221392038116456,6.9479042075347905,11.235802038116455,7.0203542075347904Q11.250212038116455,7.09280420753479,11.250212038116455,7.16666420753479Q11.250212038116455,7.24053420753479,11.235802038116455,7.3129842075347895Q11.221392038116456,7.385434207534789,11.193122038116455,7.45368420753479Q11.164862038116455,7.52192420753479,11.123822038116455,7.58334420753479Q11.082782038116456,7.64476420753479,11.030542038116455,7.6969942075347895L8.697212038116454,10.03033420753479Q8.591723038116456,10.135824207534789,8.453895038116455,10.192914207534791Q8.316066038116455,10.25000420753479,8.166882038116455,10.25000420753479Q8.093013538116455,10.25000420753479,8.020564038116454,10.23559420753479Q7.948115038116455,10.22118420753479,7.879869038116455,10.192914207534791Q7.811624038116455,10.16464420753479,7.750204038116455,10.12360420753479Q7.688785038116455,10.08256420753479,7.636552038116455,10.03033420753479Q7.584319038116455,9.978104207534791,7.543280038116455,9.91668420753479Q7.5022410381164555,9.855264207534791,7.473972038116455,9.78701420753479Q7.445704038116455,9.71877420753479,7.431293038116455,9.64632420753479Q7.416882038116455,9.57387420753479,7.416882038116455,9.50000420753479Q7.416882038116455,9.350814207534789,7.473972038116455,9.212994207534791Q7.531063038116455,9.07516420753479,7.636552038116455,8.96967420753479L9.439552038116455,7.16666420753479L7.636552038116455,5.36366420753479Q7.531063038116455,5.25817520753479,7.473972038116455,5.12034720753479Q7.416882038116455,4.98251820753479,7.416882038116455,4.83333420753479Q7.416882038116455,4.75946570753479,7.431293038116455,4.68701620753479Q7.445704038116455,4.61456720753479,7.473972038116455,4.54632120753479Q7.5022410381164555,4.47807620753479,7.543280038116455,4.41665620753479Q7.584319038116455,4.35523720753479,7.636552038116455,4.30300420753479Q7.688785038116455,4.25077120753479,7.750204038116455,4.20973220753479Q7.811624038116455,4.1686932075347904,7.879869038116455,4.14042420753479Q7.948115038116455,4.11215620753479,8.020564038116454,4.09774520753479Q8.093013538116455,4.08333420753479,8.166882038116455,4.08333420753479Q8.316066038116455,4.08333420753479,8.453895038116455,4.14042420753479Q8.591723038116456,4.19751520753479,8.697212038116454,4.30300420753479L8.697366038116455,4.30315820753479Z" fill-rule="evenodd" fill="#2882FF" fill-opacity="1"/></g></g><g transform="matrix(1,-4.0080045948798215e-8,4.0080045948798215e-8,1,-3.9935959428305523e-7,4.4271277843677126e-7)"><path d="M15.53122533203125,21.96405029296875C15.49663533203125,21.96405029296875,15.462035332031249,21.957350292968748,15.42855533203125,21.94505029296875C15.35712533203125,21.91715029296875,15.30020533203125,21.862450292968752,15.26895533203125,21.79215029296875L13.60153533203125,17.93724029296875L11.52674433203125,19.887030292968753C11.44415533203125,19.96515029296875,11.32250233203125,19.98525029296875,11.21759133203125,19.94060029296875C11.11379603203125,19.895960292968752,11.04571533203125,19.792160292968752,11.04571533203125,19.67832029296875L11.04571533203125,10.24970229296875C11.04571533203125,10.13586229296875,11.11267993203125,10.03318309296875,11.21759133203125,9.98742359296875C11.321386332031249,9.94278049296875,11.44303933203125,9.96287018296875,11.52674433203125,10.04099529296875L18.38392533203125,16.44058029296875C18.46651533203125,16.517590292968748,18.49553533203125,16.63701029296875,18.45870533203125,16.74304029296875C18.42186533203125,16.85018029296875,18.32588533203125,16.92496029296875,18.21316533203125,16.935000292968752L15.30355533203125,17.185010292968748L17.04797533203125,20.98855029296875C17.07922533203125,21.056650292968747,17.08257533203125,21.13595029296875,17.055795332031252,21.207350292968748C17.02900533203125,21.278750292968752,16.97654533203125,21.33565029296875,16.90735533203125,21.366950292968752L15.649535332031249,21.93835029296875C15.61158533203125,21.95515029296875,15.572525332031251,21.96405029296875,15.53122533203125,21.96405029296875Z" fill="#231F2E" fill-opacity="1"/><path d="M15.08433533203125,22.88395029296875Q15.30276533203125,22.96405029296875,15.53122533203125,22.96405029296875Q15.80215533203125,22.96405029296875,16.06315533203125,22.84885029296875L17.318935332031252,22.27835029296875Q17.80439533203125,22.05905029296875,17.99211533203125,21.55845029296875Q18.17996533203125,21.05755029296875,17.95694533203125,20.57175029296875L16.804855332031252,18.05969029296875L18.30191533203125,17.931060292968752Q19.13319533203125,17.85699029296875,19.40333533203125,17.071170292968752Q19.67812533203125,16.28007029296875,19.06621533203125,15.70950029296875L12.20906533203125,9.30993929296875Q11.59478533203125,8.73662029296875,10.81779533203125,9.07081929296875Q10.04571533203125,9.40757929296875,10.04571533203125,10.24970229296875L10.04571533203125,19.67832029296875Q10.04571533203125,20.52515029296875,10.82604033203125,20.86075029296875Q11.60303833203125,21.19135029296875,12.21155533203125,20.615750292968748L13.248915332031249,19.64089029296875L14.355145332031249,22.198350292968748Q14.57081533203125,22.68355029296875,15.08433533203125,22.88395029296875ZM17.04797533203125,20.98855029296875L15.746415332031251,18.150640292968752L15.30355533203125,17.185010292968748L16.36199533203125,17.09406029296875L17.51255533203125,16.99520029296875L17.55396533203125,16.99164029296875L18.21316533203125,16.935000292968752C18.32588533203125,16.92496029296875,18.42186533203125,16.85018029296875,18.45870533203125,16.74304029296875C18.49553533203125,16.63701029296875,18.46651533203125,16.517590292968748,18.38392533203125,16.44058029296875L17.90015533203125,15.98909029296875L17.86985533203125,15.96082029296875L12.04571533203125,10.52533429296875L12.01104933203125,10.49298129296875L11.52674433203125,10.04099529296875C11.44303933203125,9.96287018296875,11.321386332031249,9.94278049296875,11.21759133203125,9.98742359296875C11.11267993203125,10.03318309296875,11.04571533203125,10.13586229296875,11.04571533203125,10.24970229296875L11.04571533203125,19.67832029296875C11.04571533203125,19.792160292968752,11.11379603203125,19.895960292968752,11.21759133203125,19.94060029296875C11.32250233203125,19.98525029296875,11.44415533203125,19.96515029296875,11.52674433203125,19.887030292968753L12.01009533203125,19.43280029296875L12.04571533203125,19.39933029296875L12.82688533203125,18.665220292968748L13.60153533203125,17.93724029296875L14.02355533203125,18.91292029296875L15.26895533203125,21.79215029296875C15.30020533203125,21.862450292968752,15.35712533203125,21.91715029296875,15.42855533203125,21.94505029296875C15.462035332031249,21.957350292968748,15.49663533203125,21.96405029296875,15.53122533203125,21.96405029296875C15.572525332031251,21.96405029296875,15.61158533203125,21.95515029296875,15.649535332031249,21.93835029296875L16.90735533203125,21.366950292968752C16.97654533203125,21.33565029296875,17.02900533203125,21.278750292968752,17.055795332031252,21.207350292968748C17.08257533203125,21.13595029296875,17.07922533203125,21.056650292968747,17.04797533203125,20.98855029296875Z" fill-rule="evenodd" fill="#FFFFFF" fill-opacity="1"/></g></g></svg>