<svg xmlns="http://www.w3.org/2000/svg" xmlns:xlink="http://www.w3.org/1999/xlink" fill="none" version="1.1" width="24" height="24" viewBox="0 0 24 24"><defs><clipPath id="master_svg0_74_12041"><rect x="0" y="0" width="24" height="24" rx="0"/></clipPath></defs><g clip-path="url(#master_svg0_74_12041)"><g><path d="M2.1020399375,15.837289786376953L2.1015139375,15.837809786376953Q1.9960209375,15.943299786376954,1.9389289375,16.08113978637695Q1.8818359375,16.218969786376952,1.8818359375,16.368149786376954Q1.8818359375,16.442019786376953,1.8962469375,16.514469786376953Q1.9106579375,16.586919786376953,1.9389259375,16.655159786376952Q1.9671949375,16.723409786376955,2.0082339375,16.784829786376953Q2.0492729375,16.84624978637695,2.1015059375,16.898479786376953Q2.1537389375,16.950709786376954,2.2151579375,16.991749786376953Q2.2765779375,17.032789786376952,2.3448229375,17.06105978637695Q2.4130689375,17.089329786376954,2.4855179375,17.103739786376952Q2.5579674375,17.118149786376954,2.6318359375,17.118149786376954Q2.7810169375,17.118149786376954,2.9188429375,17.06105978637695Q3.0566689375,17.003979786376952,3.1621579375,16.898489786376953L3.1623119375,16.89833978637695L3.5303219375,16.530339786376953L8.530325937499999,11.530329786376953Q9.4999959375,10.597422786376953,10.4799559375,11.540419786376953Q10.584755937499999,11.641269786376952,10.7196559375,11.695639786376953Q10.8545559375,11.749999786376954,10.9999959375,11.749999786376954Q11.0738659375,11.749999786376954,11.1463159375,11.735589786376954Q11.2187659375,11.721179786376954,11.2870159375,11.692909786376953Q11.3552559375,11.664639786376952,11.4166759375,11.623599786376953Q11.4780959375,11.582559786376953,11.5303259375,11.530329786376953Q11.5825659375,11.478099786376953,11.6236059375,11.416679786376953Q11.6646359375,11.355259786376953,11.6929059375,11.287011786376953Q11.7211759375,11.218765786376952,11.7355859375,11.146316786376953Q11.7499959375,11.073867786376953,11.7499959375,10.999999786376954Q11.7500059375,10.847065786376954,11.6901159375,10.706341786376953Q11.6302359375,10.565618786376954,11.5200359375,10.459575786376954L11.5194159375,10.458977786376954Q10.605875937499999,9.580249786376953,9.4999959375,9.580249786376953Q8.3937459375,9.580249786376953,7.4696659375,10.469669786376953L2.4696779375,15.469659786376953L2.1020399375,15.837289786376953Z" fill-rule="evenodd" fill="#231F2E" fill-opacity="1"/></g><g><path d="M20.75,5.5L20.75,7.5Q20.75,7.57387,20.7644,7.64632Q20.7788,7.71877,20.8071,7.78701Q20.8354,7.85526,20.8764,7.91668Q20.9174,7.9781,20.9697,8.03033Q21.0219,8.08256,21.0833,8.1236Q21.1447,8.16464,21.213,8.192910000000001Q21.2812,8.22118,21.3537,8.23559Q21.4261,8.25,21.5,8.25Q21.5739,8.25,21.6463,8.23559Q21.7188,8.22118,21.787,8.192910000000001Q21.8553,8.16464,21.9167,8.1236Q21.9781,8.08256,22.0303,8.03033Q22.0826,7.9781,22.1236,7.91668Q22.1646,7.85526,22.1929,7.78701Q22.2212,7.71877,22.2356,7.64632Q22.25,7.57387,22.25,7.5L22.25,5.5Q22.25,4.360912,21.4445,3.5554565Q20.6391,2.75,19.5,2.75L4.5,2.75Q3.360913,2.75,2.5554564,3.5554564Q1.75,4.360913,1.75,5.5L1.75,18.5Q1.75,19.6391,2.5554565,20.4445Q3.360912,21.25,4.5,21.25L12,21.25Q12.07387,21.25,12.14632,21.2356Q12.21877,21.2212,12.28701,21.1929Q12.35526,21.1646,12.41668,21.1236Q12.4781,21.0826,12.5303,21.0303Q12.5826,20.9781,12.6236,20.9167Q12.6646,20.8553,12.6929,20.787Q12.7212,20.7188,12.7356,20.6463Q12.75,20.5739,12.75,20.5Q12.75,20.4261,12.7356,20.3537Q12.7212,20.2812,12.6929,20.213Q12.6646,20.1447,12.6236,20.0833Q12.5826,20.0219,12.5303,19.9697Q12.4781,19.9174,12.41668,19.8764Q12.35526,19.8354,12.28701,19.8071Q12.21877,19.7788,12.14632,19.7644Q12.07387,19.75,12,19.75L4.5,19.75Q3.25,19.75,3.25,18.5L3.25,5.5Q3.25,4.25,4.5,4.25L19.5,4.25Q20.75,4.25,20.75,5.5Z" fill-rule="evenodd" fill="#231F2E" fill-opacity="1"/></g><g transform="matrix(1,-4.0080045948798215e-8,4.0080045948798215e-8,1,-5.39365768048583e-7,6.412807351807714e-7)"><path d="M19.36414,22.45721435546875C19.33819,22.45721435546875,19.31224,22.452194355468748,19.28713,22.442984355468752C19.23356,22.422054355468752,19.19087,22.381044355468752,19.16743,22.328304355468752L17.91686,19.43710435546875L16.360772,20.899444355468752C16.29883,20.95804435546875,16.20759,20.973114355468752,16.128907,20.93962435546875C16.0510605,20.90614435546875,16,20.82829435546875,16,20.74292435546875L16,13.67145335546875C16,13.58607335546875,16.0502235,13.50906395546875,16.128907,13.47474435546875C16.206753,13.44126205546875,16.297993,13.45632927246875,16.360772,13.51492315546875L21.50366,18.31461435546875C21.5656,18.37237435546875,21.58736,18.46193435546875,21.559739999999998,18.54145435546875C21.53212,18.62181435546875,21.46013,18.67789435546875,21.37559,18.68543435546875L19.19338,18.87293435546875L20.5017,21.72562435546875C20.52514,21.776684355468753,20.52765,21.83611435546875,20.507559999999998,21.889684355468752C20.487470000000002,21.94326435546875,20.44813,21.98595435546875,20.39623,22.00938435546875L19.45287,22.43796435546875C19.4244,22.450514355468748,19.39511,22.45721435546875,19.36414,22.45721435546875Z" fill="#2882FF" fill-opacity="1"/></g><g transform="matrix(0.9135454297065735,-0.4067366421222687,0.4067366421222687,0.9135454297065735,-4.13328155243363,5.189203728956073)"><g transform="matrix(1,-3.319054897588103e-8,3.319054897588103e-8,1,-4.088206981833764e-7,5.025049230056311e-7)"><path d="M14.390000343322754,12.3173828125Q14.390000343322754,12.2435143125,14.404411343322753,12.1710648125Q14.418822343322754,12.0986158125,14.447090343322754,12.0303698125Q14.475359343322754,11.9621248125,14.516398343322754,11.9007048125Q14.557437343322754,11.8392858125,14.609670343322755,11.7870528125Q14.661903343322754,11.7348198125,14.723322343322755,11.6937808125Q14.784742343322755,11.6527418125,14.852987343322754,11.6244728125Q14.921233343322754,11.5962048125,14.993682343322753,11.581793812499999Q15.066131843322754,11.5673828125,15.140000343322754,11.5673828125Q15.213868843322754,11.5673828125,15.286318343322755,11.581793812499999Q15.358767343322754,11.5962048125,15.427013343322754,11.6244728125Q15.495258343322753,11.6527418125,15.556678343322753,11.6937808125Q15.618097343322754,11.7348198125,15.670330343322753,11.7870528125Q15.722563343322754,11.8392858125,15.763602343322754,11.9007048125Q15.804641343322753,11.9621248125,15.832910343322753,12.0303698125Q15.861178343322754,12.0986158125,15.875589343322755,12.1710648125Q15.890000343322754,12.2435143125,15.890000343322754,12.3173828125L15.890000343322754,14.3173828125Q15.890000343322754,14.3912528125,15.875589343322755,14.4637028125Q15.861178343322754,14.5361528125,15.832910343322753,14.6043928125Q15.804641343322753,14.6726428125,15.763602343322754,14.7340628125Q15.722563343322754,14.7954828125,15.670330343322753,14.8477128125Q15.618097343322754,14.8999428125,15.556678343322753,14.9409828125Q15.495258343322753,14.9820228125,15.427013343322754,15.0102928125Q15.358767343322754,15.0385628125,15.286318343322755,15.0529728125Q15.213868843322754,15.0673828125,15.140000343322754,15.0673828125Q15.066131843322754,15.0673828125,14.993682343322753,15.0529728125Q14.921233343322754,15.0385628125,14.852987343322754,15.0102928125Q14.784742343322755,14.9820228125,14.723322343322755,14.9409828125Q14.661903343322754,14.8999428125,14.609670343322755,14.8477128125Q14.557437343322754,14.7954828125,14.516398343322754,14.7340628125Q14.475359343322754,14.6726428125,14.447090343322754,14.6043928125Q14.418822343322754,14.5361528125,14.404411343322753,14.4637028125Q14.390000343322754,14.3912528125,14.390000343322754,14.3173828125L14.390000343322754,12.3173828125Z" fill-rule="evenodd" fill="#2882FF" fill-opacity="1"/></g><g transform="matrix(0.7071067690849304,0.7071067690849304,-0.7071067690849304,0.7071067690849304,15.215216711909136,-9.169061301447243)"><path d="M17.925644874572754,13.7818603515625Q17.925644874572754,13.7079918515625,17.940055874572753,13.6355423515625Q17.954466874572756,13.5630933515625,17.982734874572753,13.4948473515625Q18.011003874572754,13.4266023515625,18.052042874572756,13.3651823515625Q18.093081874572754,13.3037633515625,18.145314874572755,13.2515303515625Q18.197547874572756,13.1992973515625,18.258966874572753,13.1582583515625Q18.320386874572755,13.1172193515625,18.388631874572752,13.0889503515625Q18.456877874572754,13.0606823515625,18.529326874572753,13.046271351562499Q18.601776374572754,13.0318603515625,18.675644874572754,13.0318603515625Q18.749513374572754,13.0318603515625,18.821962874572755,13.046271351562499Q18.894411874572754,13.0606823515625,18.962657874572756,13.0889503515625Q19.030902874572753,13.1172193515625,19.092322874572755,13.1582583515625Q19.153741874572752,13.1992973515625,19.205974874572753,13.2515303515625Q19.258207874572754,13.3037633515625,19.299246874572752,13.3651823515625Q19.340285874572753,13.4266023515625,19.368554874572755,13.4948473515625Q19.396822874572752,13.5630933515625,19.411233874572755,13.6355423515625Q19.425644874572754,13.7079918515625,19.425644874572754,13.7818603515625L19.425644874572754,15.7818603515625Q19.425644874572754,15.8557303515625,19.411233874572755,15.9281803515625Q19.396822874572752,16.0006303515625,19.368554874572755,16.0688703515625Q19.340285874572753,16.1371203515625,19.299246874572752,16.1985403515625Q19.258207874572754,16.2599603515625,19.205974874572753,16.3121903515625Q19.153741874572752,16.3644203515625,19.092322874572755,16.4054603515625Q19.030902874572753,16.4465003515625,18.962657874572756,16.4747703515625Q18.894411874572754,16.5030403515625,18.821962874572755,16.517450351562502Q18.749513374572754,16.5318603515625,18.675644874572754,16.5318603515625Q18.601776374572754,16.5318603515625,18.529326874572753,16.517450351562502Q18.456877874572754,16.5030403515625,18.388631874572752,16.4747703515625Q18.320386874572755,16.4465003515625,18.258966874572753,16.4054603515625Q18.197547874572756,16.3644203515625,18.145314874572755,16.3121903515625Q18.093081874572754,16.2599603515625,18.052042874572756,16.1985403515625Q18.011003874572754,16.1371203515625,17.982734874572753,16.0688703515625Q17.954466874572756,16.0006303515625,17.940055874572753,15.9281803515625Q17.925644874572754,15.8557303515625,17.925644874572754,15.7818603515625L17.925644874572754,13.7818603515625Z" fill-rule="evenodd" fill="#2882FF" fill-opacity="1"/></g><g transform="matrix(0,1,-1,0,37.457383155822754,-2.822617530822754)"><path d="M19.390000343322754,17.3173828125Q19.390000343322754,17.2435143125,19.404411343322753,17.1710648125Q19.418822343322756,17.0986158125,19.447090343322753,17.0303698125Q19.475359343322754,16.9621248125,19.516398343322756,16.9007048125Q19.557437343322754,16.839285812500002,19.609670343322755,16.7870528125Q19.661903343322756,16.7348198125,19.723322343322753,16.693780812500002Q19.784742343322755,16.6527418125,19.852987343322752,16.6244728125Q19.921233343322754,16.5962048125,19.993682343322753,16.5817938125Q20.066131843322754,16.5673828125,20.140000343322754,16.5673828125Q20.213868843322754,16.5673828125,20.286318343322755,16.5817938125Q20.358767343322754,16.5962048125,20.427013343322756,16.6244728125Q20.495258343322753,16.6527418125,20.556678343322755,16.693780812500002Q20.618097343322752,16.7348198125,20.670330343322753,16.7870528125Q20.722563343322754,16.839285812500002,20.763602343322752,16.9007048125Q20.804641343322753,16.9621248125,20.832910343322755,17.0303698125Q20.861178343322752,17.0986158125,20.875589343322755,17.1710648125Q20.890000343322754,17.2435143125,20.890000343322754,17.3173828125L20.890000343322754,19.3173828125Q20.890000343322754,19.3912528125,20.875589343322755,19.4637028125Q20.861178343322752,19.5361528125,20.832910343322755,19.6043928125Q20.804641343322753,19.6726428125,20.763602343322752,19.7340628125Q20.722563343322754,19.7954828125,20.670330343322753,19.8477128125Q20.618097343322752,19.8999428125,20.556678343322755,19.9409828125Q20.495258343322753,19.9820228125,20.427013343322756,20.0102928125Q20.358767343322754,20.0385628125,20.286318343322755,20.052972812500002Q20.213868843322754,20.0673828125,20.140000343322754,20.0673828125Q20.066131843322754,20.0673828125,19.993682343322753,20.052972812500002Q19.921233343322754,20.0385628125,19.852987343322752,20.0102928125Q19.784742343322755,19.9820228125,19.723322343322753,19.9409828125Q19.661903343322756,19.8999428125,19.609670343322755,19.8477128125Q19.557437343322754,19.7954828125,19.516398343322756,19.7340628125Q19.475359343322754,19.6726428125,19.447090343322753,19.6043928125Q19.418822343322756,19.5361528125,19.404411343322753,19.4637028125Q19.390000343322754,19.3912528125,19.390000343322754,19.3173828125L19.390000343322754,17.3173828125Z" fill-rule="evenodd" fill="#2882FF" fill-opacity="1"/></g><g transform="matrix(0,-1,1,0,-7.177321434020996,27.457322120666504)"><path d="M9.390000343322754,17.31732177734375Q9.390000343322754,17.24345327734375,9.404411343322753,17.17100377734375Q9.418822343322754,17.09855477734375,9.447090343322754,17.03030877734375Q9.475359343322754,16.96206377734375,9.516398343322754,16.90064377734375Q9.557437343322754,16.839224777343752,9.609670343322755,16.78699177734375Q9.661903343322754,16.73475877734375,9.723322343322755,16.693719777343752Q9.784742343322755,16.65268077734375,9.852987343322754,16.62441177734375Q9.921233343322754,16.59614377734375,9.993682343322753,16.58173277734375Q10.066131843322754,16.56732177734375,10.140000343322754,16.56732177734375Q10.213868843322754,16.56732177734375,10.286318343322755,16.58173277734375Q10.358767343322754,16.59614377734375,10.427013343322754,16.62441177734375Q10.495258343322753,16.65268077734375,10.556678343322753,16.693719777343752Q10.618097343322754,16.73475877734375,10.670330343322753,16.78699177734375Q10.722563343322754,16.839224777343752,10.763602343322754,16.90064377734375Q10.804641343322753,16.96206377734375,10.832910343322753,17.03030877734375Q10.861178343322754,17.09855477734375,10.875589343322755,17.17100377734375Q10.890000343322754,17.24345327734375,10.890000343322754,17.31732177734375L10.890000343322754,19.31732177734375Q10.890000343322754,19.39119177734375,10.875589343322755,19.46364177734375Q10.861178343322754,19.53609177734375,10.832910343322753,19.60433177734375Q10.804641343322753,19.67258177734375,10.763602343322754,19.73400177734375Q10.722563343322754,19.79542177734375,10.670330343322753,19.84765177734375Q10.618097343322754,19.89988177734375,10.556678343322753,19.94092177734375Q10.495258343322753,19.98196177734375,10.427013343322754,20.01023177734375Q10.358767343322754,20.03850177734375,10.286318343322755,20.052911777343752Q10.213868843322754,20.06732177734375,10.140000343322754,20.06732177734375Q10.066131843322754,20.06732177734375,9.993682343322753,20.052911777343752Q9.921233343322754,20.03850177734375,9.852987343322754,20.01023177734375Q9.784742343322755,19.98196177734375,9.723322343322755,19.94092177734375Q9.661903343322754,19.89988177734375,9.609670343322755,19.84765177734375Q9.557437343322754,19.79542177734375,9.516398343322754,19.73400177734375Q9.475359343322754,19.67258177734375,9.447090343322754,19.60433177734375Q9.418822343322754,19.53609177734375,9.404411343322753,19.46364177734375Q9.390000343322754,19.39119177734375,9.390000343322754,19.31732177734375L9.390000343322754,17.31732177734375Z" fill-rule="evenodd" fill="#2882FF" fill-opacity="1"/></g><g transform="matrix(0.7071066498756409,-0.70710688829422,0.70710688829422,0.7071066498756409,-6.346373984682998,12.242221495007755)"><path d="M10.854477882385254,13.7818603515625Q10.854477882385254,13.7079918515625,10.868888882385253,13.6355423515625Q10.883299882385254,13.5630933515625,10.911567882385254,13.4948473515625Q10.939836882385254,13.4266023515625,10.980875882385254,13.3651823515625Q11.021914882385254,13.3037633515625,11.074147882385255,13.2515303515625Q11.126380882385254,13.1992973515625,11.187799882385255,13.1582583515625Q11.249219882385255,13.1172193515625,11.317464882385254,13.0889503515625Q11.385710882385254,13.0606823515625,11.458159882385253,13.046271351562499Q11.530609382385254,13.0318603515625,11.604477882385254,13.0318603515625Q11.678346382385254,13.0318603515625,11.750795882385255,13.046271351562499Q11.823244882385254,13.0606823515625,11.891490882385254,13.0889503515625Q11.959735882385253,13.1172193515625,12.021155882385253,13.1582583515625Q12.082574882385254,13.1992973515625,12.134807882385253,13.2515303515625Q12.187040882385254,13.3037633515625,12.228079882385254,13.3651823515625Q12.269118882385253,13.4266023515625,12.297387882385253,13.4948473515625Q12.325655882385254,13.5630933515625,12.340066882385255,13.6355423515625Q12.354477882385254,13.7079918515625,12.354477882385254,13.7818603515625L12.354477882385254,15.7818603515625Q12.354477882385254,15.8557303515625,12.340066882385255,15.9281803515625Q12.325655882385254,16.0006303515625,12.297387882385253,16.0688703515625Q12.269118882385253,16.1371203515625,12.228079882385254,16.1985403515625Q12.187040882385254,16.2599603515625,12.134807882385253,16.3121903515625Q12.082574882385254,16.3644203515625,12.021155882385253,16.4054603515625Q11.959735882385253,16.4465003515625,11.891490882385254,16.4747703515625Q11.823244882385254,16.5030403515625,11.750795882385255,16.517450351562502Q11.678346382385254,16.5318603515625,11.604477882385254,16.5318603515625Q11.530609382385254,16.5318603515625,11.458159882385253,16.517450351562502Q11.385710882385254,16.5030403515625,11.317464882385254,16.4747703515625Q11.249219882385255,16.4465003515625,11.187799882385255,16.4054603515625Q11.126380882385254,16.3644203515625,11.074147882385255,16.3121903515625Q11.021914882385254,16.2599603515625,10.980875882385254,16.1985403515625Q10.939836882385254,16.1371203515625,10.911567882385254,16.0688703515625Q10.883299882385254,16.0006303515625,10.868888882385253,15.9281803515625Q10.854477882385254,15.8557303515625,10.854477882385254,15.7818603515625L10.854477882385254,13.7818603515625Z" fill-rule="evenodd" fill="#2882FF" fill-opacity="1"/></g></g></g></svg>