<svg xmlns="http://www.w3.org/2000/svg" xmlns:xlink="http://www.w3.org/1999/xlink" fill="none" version="1.1" width="24" height="24" viewBox="0 0 24 24"><defs><clipPath id="master_svg0_69_01543"><rect x="0" y="0" width="24" height="24" rx="0"/></clipPath></defs><g clip-path="url(#master_svg0_69_01543)"><g><path d="M21,10L21,12.5Q21,12.57387,21.0144,12.64632Q21.0288,12.71877,21.0571,12.78701Q21.0854,12.85526,21.1264,12.91668Q21.1674,12.9781,21.2197,13.03033Q21.2719,13.08256,21.3333,13.1236Q21.3947,13.16464,21.463,13.19291Q21.5312,13.22118,21.6037,13.23559Q21.6761,13.25,21.75,13.25Q21.8239,13.25,21.8963,13.23559Q21.9688,13.22118,22.037,13.19291Q22.1053,13.16464,22.1667,13.1236Q22.2281,13.08256,22.2803,13.03033Q22.3326,12.9781,22.3736,12.91668Q22.4146,12.85526,22.4429,12.78701Q22.4712,12.71877,22.4856,12.64632Q22.5,12.57387,22.5,12.5L22.5,10Q22.5,8.75736,21.6213,7.87868Q20.7426,7,19.5,7L14.121,7Q13.8111,6.99973,13.5916,6.779999999999999Q13.5801,6.76844,13.5681,6.7574000000000005L10.47033,3.6596724Q9.8112,3,8.87903,3L4.5,3Q3.2573600000000003,3,2.37868,3.87868Q1.5,4.75736,1.5,6L1.5,18Q1.5,19.2426,2.37868,20.1213Q3.2573600000000003,21,4.5,21L12,21Q12.07387,21,12.14632,20.9856Q12.21877,20.9712,12.287,20.9429Q12.3553,20.9146,12.4167,20.8736Q12.4781,20.8326,12.5303,20.7803Q12.5826,20.7281,12.6236,20.6667Q12.6646,20.6053,12.6929,20.537Q12.7212,20.4688,12.7356,20.3963Q12.75,20.3239,12.75,20.25Q12.75,20.1761,12.7356,20.1037Q12.7212,20.0312,12.6929,19.963Q12.6646,19.8947,12.6236,19.8333Q12.5826,19.7719,12.5303,19.7197Q12.4781,19.6674,12.4167,19.6264Q12.3553,19.5854,12.287,19.5571Q12.21877,19.5288,12.14632,19.514400000000002Q12.07387,19.5,12,19.5L4.5,19.5Q3,19.5,3,18L3,6Q3,4.5,4.5,4.5L8.87903,4.5Q9.18952,4.5,9.40967,4.720333L12.5297,7.84033Q12.5429,7.85355,12.5567,7.86609Q13.2073,8.4992,14.121,8.5L19.5,8.5Q21,8.5,21,10Z" fill-rule="evenodd" fill="#231F2E" fill-opacity="1"/></g><g><path d="M11,4.5L18,4.5Q19.34619,4.5,20.298099999999998,5.451903Q21.25,6.40381,21.25,7.75Q21.25,7.823869999999999,21.235599999999998,7.896319999999999Q21.2212,7.96877,21.1929,8.03701Q21.1646,8.10526,21.1236,8.16668Q21.0826,8.2281,21.0303,8.28033Q20.978099999999998,8.33256,20.91668,8.3736Q20.85526,8.41464,20.787010000000002,8.44291Q20.71877,8.47118,20.64632,8.48559Q20.57387,8.5,20.5,8.5Q20.42613,8.5,20.35368,8.48559Q20.28123,8.47118,20.212989999999998,8.44291Q20.14474,8.41464,20.08332,8.3736Q20.021900000000002,8.33256,19.96967,8.28033Q19.91744,8.2281,19.8764,8.16668Q19.83536,8.10526,19.807090000000002,8.03701Q19.77882,7.96877,19.764409999999998,7.896319999999999Q19.75,7.823869999999999,19.75,7.75Q19.75,7.02513,19.23744,6.51256Q18.72487,6,18,6L11,6Q10.9261315,6,10.853682,5.985589Q10.781233,5.971178,10.712987,5.94291Q10.644742,5.914641,10.583322,5.873602Q10.521903,5.832563,10.46967,5.78033Q10.417437,5.728097,10.376398,5.666678Q10.335359,5.605258,10.30709,5.537013Q10.278822,5.468767,10.264410999999999,5.396318Q10.25,5.3238685,10.25,5.25Q10.25,5.1761315,10.264410999999999,5.103682Q10.278822,5.031233,10.30709,4.962987Q10.335359,4.894742,10.376398,4.833322Q10.417437,4.771903,10.46967,4.71967Q10.521903,4.667437,10.583322,4.626398Q10.644742,4.585359,10.712987,4.55709Q10.781233,4.528822,10.853682,4.514411Q10.9261315,4.5,11,4.5Z" fill-rule="evenodd" fill="#231F2E" fill-opacity="1"/></g><g><path d="M15.5048828125,17.75L21.5048828125,17.75Q21.5787528125,17.75,21.6512028125,17.764411Q21.7236528125,17.778822,21.791892812500002,17.80709Q21.8601428125,17.835359,21.9215628125,17.876398000000002Q21.9829828125,17.917437,22.0352128125,17.96967Q22.0874428125,18.021903000000002,22.1284828125,18.083322Q22.1695228125,18.144742,22.1977928125,18.212987Q22.2260628125,18.281233,22.240472812500002,18.353682Q22.2548828125,18.4261315,22.2548828125,18.5Q22.2548828125,18.5738685,22.240472812500002,18.646318Q22.2260628125,18.718767,22.1977928125,18.787013Q22.1695228125,18.855258,22.1284828125,18.916678Q22.0874428125,18.978096999999998,22.0352128125,19.03033Q21.9829828125,19.082563,21.9215628125,19.123601999999998Q21.8601428125,19.164641,21.791892812500002,19.19291Q21.7236528125,19.221178,21.6512028125,19.235589Q21.5787528125,19.25,21.5048828125,19.25L15.5048828125,19.25Q15.4310143125,19.25,15.3585648125,19.235589Q15.2861158125,19.221178,15.2178698125,19.19291Q15.1496248125,19.164641,15.0882048125,19.123601999999998Q15.0267858125,19.082563,14.9745528125,19.03033Q14.9223198125,18.978096999999998,14.8812808125,18.916678Q14.8402418125,18.855258,14.8119728125,18.787013Q14.7837048125,18.718767,14.769293812499999,18.646318Q14.7548828125,18.5738685,14.7548828125,18.5Q14.7548828125,18.4261315,14.769293812499999,18.353682Q14.7837048125,18.281233,14.8119728125,18.212987Q14.8402418125,18.144742,14.8812808125,18.083322Q14.9223198125,18.021903000000002,14.9745528125,17.96967Q15.0267858125,17.917437,15.0882048125,17.876398000000002Q15.1496248125,17.835359,15.2178698125,17.80709Q15.2861158125,17.778822,15.3585648125,17.764411Q15.4310143125,17.75,15.5048828125,17.75Z" fill-rule="evenodd" fill="#2882FF" fill-opacity="1"/></g><g><path d="M17.75,15.504898071289062Q17.75,15.431029571289063,17.764411,15.358580071289062Q17.778822,15.286131071289063,17.80709,15.217885071289063Q17.835359,15.149640071289063,17.876398000000002,15.088220071289063Q17.917437,15.026801071289063,17.96967,14.974568071289063Q18.021903000000002,14.922335071289062,18.083322,14.881296071289063Q18.144742,14.840257071289063,18.212987,14.811988071289063Q18.281233,14.783720071289062,18.353682,14.769309071289062Q18.4261315,14.754898071289062,18.5,14.754898071289062Q18.5738685,14.754898071289062,18.646318,14.769309071289062Q18.718767,14.783720071289062,18.787013,14.811988071289063Q18.855258,14.840257071289063,18.916678,14.881296071289063Q18.978096999999998,14.922335071289062,19.03033,14.974568071289063Q19.082563,15.026801071289063,19.123601999999998,15.088220071289063Q19.164641,15.149640071289063,19.19291,15.217885071289063Q19.221178,15.286131071289063,19.235589,15.358580071289062Q19.25,15.431029571289063,19.25,15.504898071289062L19.25,21.504898071289062Q19.25,21.578768071289062,19.235589,21.651218071289062Q19.221178,21.72366807128906,19.19291,21.791908071289065Q19.164641,21.860158071289064,19.123601999999998,21.921578071289062Q19.082563,21.982998071289064,19.03033,22.035228071289062Q18.978096999999998,22.087458071289063,18.916678,22.128498071289062Q18.855258,22.16953807128906,18.787013,22.197808071289064Q18.718767,22.226078071289063,18.646318,22.240488071289064Q18.5738685,22.254898071289062,18.5,22.254898071289062Q18.4261315,22.254898071289062,18.353682,22.240488071289064Q18.281233,22.226078071289063,18.212987,22.197808071289064Q18.144742,22.16953807128906,18.083322,22.128498071289062Q18.021903000000002,22.087458071289063,17.96967,22.035228071289062Q17.917437,21.982998071289064,17.876398000000002,21.921578071289062Q17.835359,21.860158071289064,17.80709,21.791908071289065Q17.778822,21.72366807128906,17.764411,21.651218071289062Q17.75,21.578768071289062,17.75,21.504898071289062L17.75,15.504898071289062Z" fill-rule="evenodd" fill="#2882FF" fill-opacity="1" style="mix-blend-mode:passthrough"/></g></g></svg>