<svg xmlns="http://www.w3.org/2000/svg" xmlns:xlink="http://www.w3.org/1999/xlink" fill="none" version="1.1" width="24" height="24" viewBox="0 0 24 24"><defs><clipPath id="master_svg0_69_15137"><rect x="0" y="0" width="24" height="24" rx="0"/></clipPath></defs><g clip-path="url(#master_svg0_69_15137)"><g><path d="M20.75,11.99831L20.75,12Q20.75,12.07387,20.7644,12.14632Q20.7788,12.21877,20.8071,12.28701Q20.8354,12.355260000000001,20.8764,12.41668Q20.9174,12.478100000000001,20.9697,12.53033Q21.0219,12.58256,21.0833,12.6236Q21.1447,12.66464,21.213,12.69291Q21.2812,12.72118,21.3537,12.73559Q21.4261,12.75,21.5,12.75Q21.5739,12.75,21.6463,12.73559Q21.7188,12.72118,21.787,12.69291Q21.8553,12.66464,21.9167,12.6236Q21.9781,12.58256,22.0303,12.53033Q22.0826,12.478100000000001,22.1236,12.41668Q22.1646,12.355260000000001,22.1929,12.28701Q22.2212,12.21877,22.2356,12.14632Q22.25,12.07387,22.25,12L22.25,7.5Q22.25,5.9467,21.1517,4.84835Q20.0533,3.75,18.5,3.75L5.5,3.75Q3.9467,3.75,2.848349,4.84835Q1.75,5.9467,1.75,7.5L1.75,16.5Q1.75,18.0533,2.84835,19.151600000000002Q3.9467,20.25,5.5,20.25L12,20.25Q12.07387,20.25,12.14632,20.235599999999998Q12.21877,20.2212,12.28701,20.1929Q12.35526,20.1646,12.41668,20.1236Q12.4781,20.0826,12.5303,20.0303Q12.5826,19.978099999999998,12.6236,19.9167Q12.6646,19.8553,12.6929,19.787Q12.7212,19.7188,12.7356,19.6463Q12.75,19.573900000000002,12.75,19.5Q12.75,19.426099999999998,12.7356,19.3537Q12.7212,19.2812,12.6929,19.213Q12.6646,19.1447,12.6236,19.0833Q12.5826,19.021900000000002,12.5303,18.9697Q12.4781,18.9174,12.41668,18.8764Q12.35526,18.8354,12.28701,18.8071Q12.21877,18.7788,12.14632,18.764400000000002Q12.07387,18.75,12,18.75L5.5,18.75Q4.568020000000001,18.75,3.9090100000000003,18.091Q3.25,17.432000000000002,3.25,16.5L3.25,7.5Q3.25,6.568020000000001,3.9090100000000003,5.90901Q4.568020000000001,5.25,5.5,5.25L18.5,5.25Q19.432,5.25,20.091,5.90901Q20.75,6.568020000000001,20.75,7.5L20.75,11.99831Z" fill-rule="evenodd" fill="#231F2E" fill-opacity="1"/></g><g><path d="M15.8255279296875,12.832837329101562C15.4904979296875,12.924427329101562,15.153807929687499,12.970767329101562,14.8247079296875,12.970767329101562C12.731737929687501,12.970767329101562,11.0289779296875,11.268147329101563,11.0289779296875,9.175187329101563C11.0289779296875,8.846493329101563,11.0754679296875,8.509665329101562,11.1670479296875,8.174355329101562C11.1801579296875,8.126493329101562,11.1664979296875,8.075458529101562,11.1314679296875,8.040424029101562C11.0962879296875,8.005527499101563,11.0452579296875,7.992148199101562,10.9975379296875,8.004837859101562C9.2325679296875,8.487045329101562,7.9998779296875,10.100567329101562,7.9998779296875,11.928557329101562C7.9998779296875,14.173527329101564,9.8262179296875,16.000007329101564,12.071327929687499,16.000007329101564C13.8994679296875,16.000007329101564,15.5128479296875,14.767187329101564,15.9950479296875,13.002217329101562C16.0081579296875,12.954357329101562,15.994497929687501,12.903317329101561,15.9594679296875,12.868287329101562C15.9242879296875,12.833387329101562,15.873257929687501,12.819877329101562,15.8255279296875,12.832837329101562Z" fill="#2882FF" fill-opacity="1"/></g><g><path d="M14.4653642578125,8.952015258789062C14.0717142578125,8.952015258789062,13.7513642578125,8.631667258789063,13.7513642578125,8.238015258789062C13.7513642578125,8.106639258789063,13.6449742578125,8.000015258789062,13.5133642578125,8.000015258789062C13.3817542578125,8.000015258789062,13.2753642578125,8.106639258789063,13.2753642578125,8.238015258789062C13.2753642578125,8.631667258789063,12.9550162578125,8.952015258789062,12.5613642578125,8.952015258789062C12.4297502578125,8.952015258789062,12.3233642578125,9.058635258789062,12.3233642578125,9.190015258789062C12.3233642578125,9.321395258789062,12.4297502578125,9.428015258789063,12.5613642578125,9.428015258789063C12.9550162578125,9.428015258789063,13.2753642578125,9.748365258789063,13.2753642578125,10.142015258789062C13.2753642578125,10.273395258789062,13.3817542578125,10.380015258789062,13.5133642578125,10.380015258789062C13.6449742578125,10.380015258789062,13.7513642578125,10.273395258789062,13.7513642578125,10.142015258789062C13.7513642578125,9.748365258789063,14.0717142578125,9.428015258789063,14.4653642578125,9.428015258789063C14.5969742578125,9.428015258789063,14.703364257812499,9.321395258789062,14.703364257812499,9.190015258789062C14.703364257812499,9.058635258789062,14.5969742578125,8.952015258789062,14.4653642578125,8.952015258789062Z" fill="#2882FF" fill-opacity="1"/></g><g><path d="M15.86198546875,10.7586331796875C15.63384546875,10.7586331796875,15.44819146875,10.5729781796875,15.44819146875,10.3448401796875C15.44819146875,10.2687022796875,15.38653646875,10.2069091796875,15.31026046875,10.2069091796875C15.23398446875,10.2069091796875,15.17232946875,10.2687022796875,15.17232946875,10.3448401796875C15.17232946875,10.5729781796875,14.98667446875,10.7586331796875,14.75853646875,10.7586331796875C14.68226046875,10.7586331796875,14.62060546875,10.8204261796875,14.62060546875,10.8965641796875C14.62060546875,10.9727021796875,14.68226046875,11.0344951796875,14.75853646875,11.0344951796875C14.98667446875,11.0344951796875,15.17232946875,11.2201491796875,15.17232946875,11.4482891796875C15.17232946875,11.5244291796875,15.23398446875,11.5862191796875,15.31026046875,11.5862191796875C15.38653646875,11.5862191796875,15.44819146875,11.5244291796875,15.44819146875,11.4482891796875C15.44819146875,11.2201491796875,15.63384546875,11.0344951796875,15.86198546875,11.0344951796875C15.93826546875,11.0344951796875,15.99991546875,10.9727021796875,15.99991546875,10.8965641796875C15.99991546875,10.8204261796875,15.93826546875,10.7586331796875,15.86198546875,10.7586331796875Z" fill="#2882FF" fill-opacity="1"/></g><g><path d="M17.5880126953125,16.75Q17.5141441953125,16.75,17.4416946953125,16.764411Q17.3692456953125,16.778822,17.3009996953125,16.80709Q17.2327546953125,16.835359,17.1713346953125,16.876398000000002Q17.109915695312502,16.917437,17.0576826953125,16.96967Q17.0054496953125,17.021903000000002,16.964410695312502,17.083322Q16.9233716953125,17.144742,16.8951026953125,17.212987Q16.8668346953125,17.281233,16.8524236953125,17.353682Q16.8380126953125,17.4261315,16.8380126953125,17.5Q16.8380126953125,17.5738685,16.8524236953125,17.646318Q16.8668346953125,17.718767,16.8951026953125,17.787013Q16.9233716953125,17.855258,16.964410695312502,17.916678Q17.0054496953125,17.978096999999998,17.0576826953125,18.03033Q17.109915695312502,18.082563,17.1713346953125,18.123601999999998Q17.2327546953125,18.164641,17.3009996953125,18.19291Q17.3692456953125,18.221178,17.4416946953125,18.235589Q17.5141441953125,18.25,17.5880126953125,18.25L17.8380126953125,18.25L17.8380126953125,21.5Q17.8380126953125,21.57387,17.8524236953125,21.64632Q17.8668346953125,21.71877,17.8951026953125,21.787010000000002Q17.9233716953125,21.85526,17.964410695312502,21.91668Q18.0054496953125,21.9781,18.0576826953125,22.03033Q18.109915695312502,22.08256,18.1713346953125,22.1236Q18.2327546953125,22.16464,18.3009996953125,22.19291Q18.3692456953125,22.22118,18.4416946953125,22.235590000000002Q18.5141436953125,22.25,18.5880126953125,22.25L19.5880126953125,22.25Q19.6618826953125,22.25,19.7343326953125,22.235590000000002Q19.8067826953125,22.22118,19.8750226953125,22.19291Q19.9432726953125,22.16464,20.0046926953125,22.1236Q20.0661126953125,22.08256,20.1183426953125,22.03033Q20.1705726953125,21.9781,20.2116126953125,21.91668Q20.2526526953125,21.85526,20.2809226953125,21.787010000000002Q20.3091926953125,21.71877,20.323602695312502,21.64632Q20.3380126953125,21.57387,20.3380126953125,21.5Q20.3380126953125,21.42613,20.323602695312502,21.35368Q20.3091926953125,21.28123,20.2809226953125,21.21299Q20.2526526953125,21.14474,20.2116126953125,21.08332Q20.1705726953125,21.0219,20.1183426953125,20.96967Q20.0661126953125,20.91744,20.0046926953125,20.8764Q19.9432726953125,20.83536,19.8750226953125,20.80709Q19.8067826953125,20.77882,19.7343326953125,20.764409999999998Q19.6618826953125,20.75,19.5880126953125,20.75L19.3380126953125,20.75L19.3380126953125,17.5Q19.3380126953125,17.4261315,19.3236026953125,17.353682Q19.3091926953125,17.281233,19.2809226953125,17.212987Q19.2526526953125,17.144742,19.2116126953125,17.083322Q19.1705726953125,17.021903000000002,19.1183426953125,16.96967Q19.0661126953125,16.917437,19.0046926953125,16.876398000000002Q18.9432726953125,16.835359,18.8750226953125,16.80709Q18.8067826953125,16.778822,18.7343326953125,16.764411Q18.6618826953125,16.75,18.5880126953125,16.75L17.5880126953125,16.75Z" fill-rule="evenodd" fill="#2882FF" fill-opacity="1" style="mix-blend-mode:passthrough"/></g><g><ellipse cx="18.5880126953125" cy="15" rx="1" ry="1" fill="#2882FF" fill-opacity="1"/></g></g></svg>