<svg xmlns="http://www.w3.org/2000/svg" xmlns:xlink="http://www.w3.org/1999/xlink" fill="none" version="1.1" width="24" height="24" viewBox="0 0 24 24"><defs><clipPath id="master_svg0_6057_02992"><rect x="0" y="0" width="24" height="24" rx="0"/></clipPath></defs><g clip-path="url(#master_svg0_6057_02992)"><g><path d="M11.5,1.25C11.0857868,1.25,10.75,1.5857864,10.75,2L10.75,2.9829111Q8.102664,3.2199248000000003,6.1612945,5.161294Q4.2199253,7.1026635,3.9829115,9.75L3,9.75C2.5857864,9.75,2.25,10.0857868,2.25,10.5C2.25,10.9142132,2.5857864,11.25,3,11.25L3.9829203,11.25Q4.2199615,13.897272,6.1612942,15.838605Q7.8222661,17.499577,10,17.91297L10,16.375591Q8.4381127,15.994103,7.2219543,14.777946Q5.7212148,13.277205,5.4914773,11.25L6,11.25C6.4142137,11.25,6.75,10.9142132,6.75,10.5C6.75,10.0857868,6.4142137,9.75,6,9.75L5.491466,9.75Q5.7211783,7.7227306,7.2219543,6.2219543Q8.7227316,4.7211773,10.75,4.4914649L10.75,5C10.75,5.4142137,11.0857868,5.75,11.5,5.75C11.9142132,5.75,12.25,5.4142137,12.25,5L12.25,4.4914763Q14.277205,4.7212148,15.777946,6.2219543Q17.278722000000002,7.7227311,17.508435,9.75L17,9.75C16.585787,9.75,16.25,10.0857868,16.25,10.5C16.25,10.9142132,16.585787,11.25,17,11.25L17.508425000000003,11.25Q17.363778,12.526358,16.715288,13.594017L17.832438,14.636619Q18.8496,13.119305,19.016981,11.25L19.999989,11.25C20.414202,11.25,20.749989,10.9142132,20.749989,10.5C20.749989,10.0857868,20.414202,9.75,19.999989,9.75L19.016989,9.75Q18.779974,7.102664,16.838605,5.1612942Q14.897273,3.2199616,12.25,2.9829201999999997L12.25,2C12.25,1.5857864,11.9142132,1.25,11.5,1.25ZM14.611073,11.630219Q14.799952,11.1042032,14.799952,10.4999504Q14.799952,9.133046199999999,13.833403,8.1664987Q12.866856,7.1999512,11.4999504,7.1999512Q10.133046199999999,7.1999512,9.1664987,8.1664987Q8.199951200000001,9.133046199999999,8.199951200000001,10.4999504Q8.199951200000001,11.866856,9.1664987,12.833404Q9.551489400000001,13.218394,10,13.450038L10,10.2855978Q10,9.4434748,10.7720795,9.106715699999999Q11.5490694,8.772511999999999,12.1633463,9.3458347L14.611073,11.630219Z" fill-rule="evenodd" fill="#000000" fill-opacity="1"/></g><g><path d="M15.4855146,22C15.4509158,22,15.4163179,21.993302999999997,15.3828359,21.981029C15.3114061,21.953121,15.2544875,21.898438,15.2232366,21.828124000000003L13.5558171,17.9731927L11.48102936,19.922978399999998C11.39843962,20.001105000000003,11.27678719,20.021195,11.17187619,19.976553C11.068080716,19.9319086,11,19.8281126,11,19.7142744L11,10.28565162C11,10.17181185,11.066964641,10.06913276,11.17187619,10.023373317C11.27567118,9.978730228,11.39732355,9.9988198897,11.48102936,10.076945037L18.3382096,16.4765329C18.4207993,16.5535426,18.4498162,16.6729622,18.4129868,16.7789893C18.3761544,16.8861313,18.2801728,16.960910300000002,18.167448,16.970953899999998L15.257835400000001,17.2209563L17.0022645,21.024547C17.033514,21.092627,17.0368638,21.17187,17.0100765,21.243298C16.9832907,21.314728000000002,16.9308343,21.371648999999998,16.8616381,21.402898L15.6038198,21.974328C15.565872200000001,21.991070999999998,15.5268102,22,15.4855146,22Z" fill="#000000" fill-opacity="1"/></g></g></svg>