<svg xmlns="http://www.w3.org/2000/svg" xmlns:xlink="http://www.w3.org/1999/xlink" fill="none" version="1.1" width="24" height="24" viewBox="0 0 24 24"><defs><clipPath id="master_svg0_69_01130"><rect x="0" y="0" width="24" height="24" rx="0"/></clipPath></defs><g clip-path="url(#master_svg0_69_01130)"><g><path d="M4.6161200000000004,6.61611634262085Q4.72161,6.510627342620849,4.7787,6.37279934262085Q4.83579,6.23497034262085,4.83579,6.08578634262085Q4.83579,6.01191784262085,4.8213799999999996,5.93946834262085Q4.80696,5.86701934262085,4.7787,5.79877334262085Q4.75043,5.7305283426208495,4.70939,5.6691083426208495Q4.66835,5.60768934262085,4.6161200000000004,5.555456342620849Q4.56388,5.503223342620849,4.50246,5.46218434262085Q4.441045,5.42114534262085,4.372799,5.392876342620849Q4.304553,5.3646083426208495,4.232104,5.35019734262085Q4.159655,5.33578634262085,4.085786,5.33578634262085Q3.936602,5.33578634262085,3.798774,5.392876342620849Q3.660946,5.44996734262085,3.5554564,5.555456342620849Q2.75,6.36091334262085,2.75,7.499996342620849L2.75,20.49998634262085Q2.75,21.63908634262085,3.5554566,22.44458634262085Q4.360914,23.24998634262085,5.5,23.24998634262085L15.5,23.24998634262085Q16.6391,23.24998634262085,17.444499999999998,22.44458634262085Q17.55,22.33908634262085,17.607100000000003,22.20118634262085Q17.6642,22.063386342620852,17.6642,21.91418634262085Q17.6642,21.84038634262085,17.6498,21.767886342620848Q17.6354,21.69548634262085,17.607100000000003,21.62718634262085Q17.5789,21.558986342620848,17.5378,21.49748634262085Q17.4968,21.43608634262085,17.444499999999998,21.383886342620848Q17.3923,21.33168634262085,17.3309,21.29058634262085Q17.2695,21.24958634262085,17.2012,21.22128634262085Q17.133,21.19298634262085,17.060499999999998,21.17858634262085Q16.9881,21.16418634262085,16.9142,21.16418634262085Q16.765,21.16418634262085,16.627200000000002,21.22128634262085Q16.4894,21.27838634262085,16.3839,21.383886342620848Q16.0178,21.74998634262085,15.5,21.74998634262085L5.5,21.74998634262085Q4.9822299999999995,21.74998634262085,4.6161200000000004,21.383886342620848Q4.25,21.01778634262085,4.25,20.49998634262085L4.25,7.499996342620849Q4.25,6.98223334262085,4.6161200000000004,6.61611634262085Z" fill-rule="evenodd" fill="#2882FF" fill-opacity="1"/></g><g><g><path d="M14.75,2.5Q14.75,2.4261315,14.764410999999999,2.353682Q14.778822,2.281233,14.80709,2.212987Q14.835359,2.144742,14.876398,2.083322Q14.917437,2.021903,14.96967,1.96967Q15.021903,1.917437,15.083322,1.876398Q15.144742,1.835359,15.212987,1.80709Q15.281233,1.778822,15.353682,1.764411Q15.4261315,1.75,15.5,1.75Q15.5738685,1.75,15.646318,1.764411Q15.718767,1.778822,15.787013,1.80709Q15.855258,1.835359,15.916678,1.876398Q15.978097,1.917437,16.03033,1.96967Q16.082563,2.021903,16.123601999999998,2.083322Q16.164641,2.144742,16.19291,2.212987Q16.221178,2.281233,16.235589,2.353682Q16.25,2.4261315,16.25,2.5L16.25,6.5Q16.25,6.60355,16.323223,6.67678Q16.396447,6.75,16.5,6.75L20.5,6.75Q20.57387,6.75,20.64632,6.76441Q20.71877,6.77882,20.787010000000002,6.80709Q20.85526,6.83536,20.91668,6.8764Q20.9781,6.91744,21.03033,6.96967Q21.08256,7.0219,21.1236,7.08332Q21.16464,7.14474,21.19291,7.21299Q21.22118,7.28123,21.235590000000002,7.35368Q21.25,7.42613,21.25,7.5Q21.25,7.57387,21.235590000000002,7.64632Q21.22118,7.71877,21.19291,7.78701Q21.16464,7.85526,21.1236,7.91668Q21.08256,7.9781,21.03033,8.03033Q20.9781,8.08256,20.91668,8.1236Q20.85526,8.16464,20.787010000000002,8.192910000000001Q20.71877,8.22118,20.64632,8.23559Q20.57387,8.25,20.5,8.25L16.5,8.25Q15.775126,8.25,15.262563,7.73744Q14.75,7.22487,14.75,6.5L14.75,2.5Z" fill-rule="evenodd" fill="#231F2E" fill-opacity="1"/></g><g><path d="M20.444499999999998,19.4445Q21.25,18.6391,21.25,17.5L21.25,7.5Q21.25,7.35082,21.1929,7.21299Q21.1358,7.07516,21.0303,6.96967L16.03033,1.96967Q15.92484,1.8641809999999999,15.78701,1.80709Q15.64919,1.75,15.5,1.75L8.5,1.75Q7.360913,1.75,6.5554564,2.5554564Q5.75,3.360913,5.75,4.5L5.75,17.5Q5.75,18.6391,6.5554566,19.4445Q7.360914,20.25,8.5,20.25L18.5,20.25Q19.6391,20.25,20.444499999999998,19.4445ZM19.75,7.81066L19.75,17.5Q19.75,18.0178,19.3839,18.3839Q19.0178,18.75,18.5,18.75L8.5,18.75Q7.9822299999999995,18.75,7.6161200000000004,18.3839Q7.25,18.0178,7.25,17.5L7.25,4.5Q7.25,3.98223,7.6161200000000004,3.61612Q7.9822299999999995,3.25,8.5,3.25L15.18934,3.25L19.75,7.81066Z" fill-rule="evenodd" fill="#231F2E" fill-opacity="1"/></g><g><path d="M9.5,6.75L11.5,6.75Q11.57387,6.75,11.64632,6.764411Q11.71877,6.778822,11.78701,6.80709Q11.85526,6.835359,11.91668,6.876398Q11.9781,6.917437,12.03033,6.96967Q12.08256,7.021903,12.1236,7.083322Q12.16464,7.144742,12.19291,7.212987Q12.22118,7.281233,12.23559,7.353682Q12.25,7.4261315,12.25,7.5Q12.25,7.5738685,12.23559,7.646318Q12.22118,7.718767,12.19291,7.787013Q12.16464,7.855258,12.1236,7.916678Q12.08256,7.978097,12.03033,8.03033Q11.9781,8.082563,11.91668,8.123602Q11.85526,8.164641,11.78701,8.19291Q11.71877,8.221178,11.64632,8.235589000000001Q11.57387,8.25,11.5,8.25L9.5,8.25Q9.4261315,8.25,9.353682,8.235589000000001Q9.281233,8.221178,9.212987,8.19291Q9.144742,8.164641,9.083322,8.123602Q9.021903,8.082563,8.96967,8.03033Q8.917437,7.978097,8.876398,7.916678Q8.835359,7.855258,8.80709,7.787013Q8.778822,7.718767,8.764410999999999,7.646318Q8.75,7.5738685,8.75,7.5Q8.75,7.4261315,8.764410999999999,7.353682Q8.778822,7.281233,8.80709,7.212987Q8.835359,7.144742,8.876398,7.083322Q8.917437,7.021903,8.96967,6.96967Q9.021903,6.917437,9.083322,6.876398Q9.144742,6.835359,9.212987,6.80709Q9.281233,6.778822,9.353682,6.764411Q9.4261315,6.75,9.5,6.75Z" fill-rule="evenodd" fill="#231F2E" fill-opacity="1"/></g><g><path d="M9.5,10.75L17.5,10.75Q17.57387,10.75,17.64632,10.764410999999999Q17.71877,10.778822,17.787010000000002,10.80709Q17.85526,10.835359,17.91668,10.876398Q17.978099999999998,10.917437,18.03033,10.96967Q18.08256,11.021903,18.1236,11.083322Q18.16464,11.144742,18.192909999999998,11.212987Q18.22118,11.281233,18.235590000000002,11.353682Q18.25,11.4261315,18.25,11.5Q18.25,11.5738685,18.235590000000002,11.646318Q18.22118,11.718767,18.192909999999998,11.787013Q18.16464,11.855258,18.1236,11.916678Q18.08256,11.978097,18.03033,12.03033Q17.978099999999998,12.082563,17.91668,12.123602Q17.85526,12.164641,17.787010000000002,12.19291Q17.71877,12.221178,17.64632,12.235589000000001Q17.57387,12.25,17.5,12.25L9.5,12.25Q9.4261315,12.25,9.353682,12.235589000000001Q9.281233,12.221178,9.212987,12.19291Q9.144742,12.164641,9.083322,12.123602Q9.021903,12.082563,8.96967,12.03033Q8.917437,11.978097,8.876398,11.916678Q8.835359,11.855258,8.80709,11.787013Q8.778822,11.718767,8.764410999999999,11.646318Q8.75,11.5738685,8.75,11.5Q8.75,11.4261315,8.764410999999999,11.353682Q8.778822,11.281233,8.80709,11.212987Q8.835359,11.144742,8.876398,11.083322Q8.917437,11.021903,8.96967,10.96967Q9.021903,10.917437,9.083322,10.876398Q9.144742,10.835359,9.212987,10.80709Q9.281233,10.778822,9.353682,10.764410999999999Q9.4261315,10.75,9.5,10.75Z" fill-rule="evenodd" fill="#231F2E" fill-opacity="1"/></g><g><path d="M9.5,14.75L13.5,14.75Q13.57387,14.75,13.64632,14.764410999999999Q13.71877,14.778822,13.78701,14.80709Q13.855260000000001,14.835359,13.91668,14.876398Q13.978100000000001,14.917437,14.03033,14.96967Q14.08256,15.021903,14.1236,15.083322Q14.16464,15.144742,14.192910000000001,15.212987Q14.22118,15.281233,14.23559,15.353682Q14.25,15.4261315,14.25,15.5Q14.25,15.5738685,14.23559,15.646318Q14.22118,15.718767,14.192910000000001,15.787013Q14.16464,15.855258,14.1236,15.916678Q14.08256,15.978097,14.03033,16.03033Q13.978100000000001,16.082563,13.91668,16.123601999999998Q13.855260000000001,16.164641,13.78701,16.19291Q13.71877,16.221178,13.64632,16.235589Q13.57387,16.25,13.5,16.25L9.5,16.25Q9.4261315,16.25,9.353682,16.235589Q9.281233,16.221178,9.212987,16.19291Q9.144742,16.164641,9.083322,16.123601999999998Q9.021903,16.082563,8.96967,16.03033Q8.917437,15.978097,8.876398,15.916678Q8.835359,15.855258,8.80709,15.787013Q8.778822,15.718767,8.764410999999999,15.646318Q8.75,15.5738685,8.75,15.5Q8.75,15.4261315,8.764410999999999,15.353682Q8.778822,15.281233,8.80709,15.212987Q8.835359,15.144742,8.876398,15.083322Q8.917437,15.021903,8.96967,14.96967Q9.021903,14.917437,9.083322,14.876398Q9.144742,14.835359,9.212987,14.80709Q9.281233,14.778822,9.353682,14.764410999999999Q9.4261315,14.75,9.5,14.75Z" fill-rule="evenodd" fill="#231F2E" fill-opacity="1"/></g></g></g></svg>