<svg xmlns="http://www.w3.org/2000/svg" xmlns:xlink="http://www.w3.org/1999/xlink" fill="none" version="1.1" width="24" height="24" viewBox="0 0 24 24"><defs><clipPath id="master_svg0_69_12500"><rect x="0" y="0" width="24" height="24" rx="0"/></clipPath></defs><g clip-path="url(#master_svg0_69_12500)"><g><path d="M16.999998092651367,20.25L15.999998092651367,20.25Q15.926098092651367,20.25,15.853698092651367,20.2644Q15.781198092651367,20.2788,15.712998092651366,20.3071Q15.644698092651367,20.3354,15.583298092651367,20.3764Q15.521898092651368,20.4174,15.469698092651367,20.4697Q15.417398092651368,20.5219,15.376398092651367,20.5833Q15.335398092651367,20.6447,15.307098092651367,20.713Q15.278798092651368,20.7812,15.264398092651367,20.8537Q15.249998092651367,20.9261,15.249998092651367,21Q15.249998092651367,21.0739,15.264398092651367,21.1463Q15.278798092651368,21.2188,15.307098092651367,21.287Q15.335398092651367,21.3553,15.376398092651367,21.4167Q15.417398092651368,21.4781,15.469698092651367,21.5303Q15.521898092651368,21.5826,15.583298092651367,21.6236Q15.644698092651367,21.6646,15.712998092651366,21.6929Q15.781198092651367,21.7212,15.853698092651367,21.7356Q15.926098092651367,21.75,15.999998092651367,21.75L16.999998092651367,21.75Q18.139098092651366,21.75,18.944498092651365,20.9445Q19.749998092651367,20.1391,19.749998092651367,19L19.749998092651367,8Q19.749998092651367,7.85082,19.69289809265137,7.71299Q19.635798092651367,7.57516,19.530298092651368,7.46967L14.530328092651366,2.46967Q14.424838092651367,2.364181,14.287008092651368,2.30709Q14.149188092651368,2.25,13.999998092651367,2.25L6.999998092651367,2.25Q5.8609130926513675,2.25,5.055456392651367,3.0554564Q4.2500000926513675,3.860913,4.2500000926513675,5L4.2500000926513675,19Q4.247656092651368,20.5893,5.625001092651367,21.3845Q5.799039092651367,21.485,5.999998092651367,21.485Q6.0738680926513675,21.485,6.146318092651367,21.4706Q6.218768092651367,21.4562,6.287008092651368,21.4279Q6.355258092651367,21.3996,6.416678092651367,21.3586Q6.478098092651367,21.3176,6.530328092651367,21.2653Q6.582558092651367,21.2131,6.623598092651367,21.1517Q6.6646380926513675,21.0903,6.692908092651367,21.022Q6.721178092651368,20.9538,6.735588092651367,20.8813Q6.749998092651367,20.8089,6.749998092651367,20.735Q6.749998092651367,20.6363,6.724448092651367,20.5409Q6.698888092651368,20.4455,6.649518092651367,20.36Q6.600148092651367,20.2745,6.530328092651367,20.2047Q6.460508092651367,20.1349,6.374998092651367,20.0855Q5.748934092651368,19.724,5.7500000926513675,19L5.7500000926513675,5Q5.7500000926513675,4.4822299999999995,6.116118092651368,4.1161200000000004Q6.482238092651367,3.75,6.999998092651367,3.75L13.689338092651367,3.75L18.249998092651367,8.31066L18.249998092651367,19Q18.249998092651367,19.5178,17.883898092651368,19.8839Q17.51779809265137,20.25,16.999998092651367,20.25Z" fill-rule="evenodd" fill="#231F2E" fill-opacity="1"/></g><g><path d="M9.0554565,17.0554559Q8.25,17.860912,8.25,19L8.25,21Q8.25,21.72487,8.762563,22.23744Q9.275126,22.75,10,22.75L12,22.75Q12.72487,22.75,13.23744,22.23744Q13.75,21.72487,13.75,21L13.75,19Q13.75,17.860912,12.94454,17.0554559Q12.13909,16.25,11,16.25Q9.860913,16.25,9.0554565,17.0554559ZM9.75,21L9.75,19Q9.75,18.48223,10.11612,18.11612Q10.48223,17.75,11,17.75Q11.51777,17.75,11.88388,18.11612Q12.25,18.48223,12.25,19L12.25,21Q12.25,21.25,12,21.25L10,21.25Q9.896446,21.25,9.823223,21.17678Q9.75,21.10355,9.75,21Z" fill-rule="evenodd" fill="#2882FF" fill-opacity="1"/></g><g><path d="M10,4.25L11,4.25Q11.07387,4.25,11.14632,4.264411Q11.21877,4.278822,11.28701,4.30709Q11.35526,4.335359,11.41668,4.376398Q11.4781,4.417437,11.53033,4.46967Q11.58256,4.521903,11.6236,4.583322Q11.66464,4.644742,11.69291,4.712987Q11.72118,4.781233,11.73559,4.853682Q11.75,4.9261315,11.75,5Q11.75,5.0738685,11.73559,5.146318Q11.72118,5.218767,11.69291,5.287013Q11.66464,5.355258,11.6236,5.416678Q11.58256,5.478097,11.53033,5.53033Q11.4781,5.582563,11.41668,5.623602Q11.35526,5.664641,11.28701,5.69291Q11.21877,5.721178,11.14632,5.735589Q11.07387,5.75,11,5.75L10,5.75Q9.9261315,5.75,9.853682,5.735589Q9.781233,5.721178,9.712987,5.69291Q9.644742,5.664641,9.583322,5.623602Q9.521903,5.582563,9.46967,5.53033Q9.417437,5.478097,9.376398,5.416678Q9.335359,5.355258,9.30709,5.287013Q9.278822,5.218767,9.264410999999999,5.146318Q9.25,5.0738685,9.25,5Q9.25,4.9261315,9.264410999999999,4.853682Q9.278822,4.781233,9.30709,4.712987Q9.335359,4.644742,9.376398,4.583322Q9.417437,4.521903,9.46967,4.46967Q9.521903,4.417437,9.583322,4.376398Q9.644742,4.335359,9.712987,4.30709Q9.781233,4.278822,9.853682,4.264411Q9.9261315,4.25,10,4.25Z" fill-rule="evenodd" fill="#2882FF" fill-opacity="1"/></g><g><path d="M12,6.25L13,6.25Q13.07387,6.25,13.14632,6.264411Q13.21877,6.278822,13.28701,6.30709Q13.35526,6.335359,13.41668,6.376398Q13.4781,6.417437,13.53033,6.46967Q13.58256,6.521903,13.6236,6.583322Q13.66464,6.644742,13.69291,6.712987Q13.72118,6.781233,13.73559,6.853682Q13.75,6.9261315,13.75,7Q13.75,7.0738685,13.73559,7.146318Q13.72118,7.218767,13.69291,7.287013Q13.66464,7.355258,13.6236,7.416678Q13.58256,7.478097,13.53033,7.53033Q13.4781,7.582563,13.41668,7.623602Q13.35526,7.664641,13.28701,7.69291Q13.21877,7.721178,13.14632,7.735589Q13.07387,7.75,13,7.75L12,7.75Q11.9261315,7.75,11.853682,7.735589Q11.781233,7.721178,11.712987,7.69291Q11.644742,7.664641,11.583322,7.623602Q11.521903,7.582563,11.46967,7.53033Q11.417437,7.478097,11.376398,7.416678Q11.335359,7.355258,11.30709,7.287013Q11.278822,7.218767,11.264410999999999,7.146318Q11.25,7.0738685,11.25,7Q11.25,6.9261315,11.264410999999999,6.853682Q11.278822,6.781233,11.30709,6.712987Q11.335359,6.644742,11.376398,6.583322Q11.417437,6.521903,11.46967,6.46967Q11.521903,6.417437,11.583322,6.376398Q11.644742,6.335359,11.712987,6.30709Q11.781233,6.278822,11.853682,6.264411Q11.9261315,6.25,12,6.25Z" fill-rule="evenodd" fill="#2882FF" fill-opacity="1"/></g><g><path d="M10,8.25L11,8.25Q11.07387,8.25,11.14632,8.264410999999999Q11.21877,8.278822,11.28701,8.30709Q11.35526,8.335359,11.41668,8.376398Q11.4781,8.417437,11.53033,8.46967Q11.58256,8.521903,11.6236,8.583322Q11.66464,8.644742,11.69291,8.712987Q11.72118,8.781233,11.73559,8.853682Q11.75,8.9261315,11.75,9Q11.75,9.0738685,11.73559,9.146318Q11.72118,9.218767,11.69291,9.287013Q11.66464,9.355258,11.6236,9.416678Q11.58256,9.478097,11.53033,9.53033Q11.4781,9.582563,11.41668,9.623602Q11.35526,9.664641,11.28701,9.69291Q11.21877,9.721178,11.14632,9.735589000000001Q11.07387,9.75,11,9.75L10,9.75Q9.9261315,9.75,9.853682,9.735589000000001Q9.781233,9.721178,9.712987,9.69291Q9.644742,9.664641,9.583322,9.623602Q9.521903,9.582563,9.46967,9.53033Q9.417437,9.478097,9.376398,9.416678Q9.335359,9.355258,9.30709,9.287013Q9.278822,9.218767,9.264410999999999,9.146318Q9.25,9.0738685,9.25,9Q9.25,8.9261315,9.264410999999999,8.853682Q9.278822,8.781233,9.30709,8.712987Q9.335359,8.644742,9.376398,8.583322Q9.417437,8.521903,9.46967,8.46967Q9.521903,8.417437,9.583322,8.376398Q9.644742,8.335359,9.712987,8.30709Q9.781233,8.278822,9.853682,8.264410999999999Q9.9261315,8.25,10,8.25Z" fill-rule="evenodd" fill="#2882FF" fill-opacity="1"/></g><g><path d="M12,10.25L13,10.25Q13.07387,10.25,13.14632,10.264410999999999Q13.21877,10.278822,13.28701,10.30709Q13.35526,10.335359,13.41668,10.376398Q13.4781,10.417437,13.53033,10.46967Q13.58256,10.521903,13.6236,10.583322Q13.66464,10.644742,13.69291,10.712987Q13.72118,10.781233,13.73559,10.853682Q13.75,10.9261315,13.75,11Q13.75,11.0738685,13.73559,11.146318Q13.72118,11.218767,13.69291,11.287013Q13.66464,11.355258,13.6236,11.416678Q13.58256,11.478097,13.53033,11.53033Q13.4781,11.582563,13.41668,11.623602Q13.35526,11.664641,13.28701,11.69291Q13.21877,11.721178,13.14632,11.735589000000001Q13.07387,11.75,13,11.75L12,11.75Q11.9261315,11.75,11.853682,11.735589000000001Q11.781233,11.721178,11.712987,11.69291Q11.644742,11.664641,11.583322,11.623602Q11.521903,11.582563,11.46967,11.53033Q11.417437,11.478097,11.376398,11.416678Q11.335359,11.355258,11.30709,11.287013Q11.278822,11.218767,11.264410999999999,11.146318Q11.25,11.0738685,11.25,11Q11.25,10.9261315,11.264410999999999,10.853682Q11.278822,10.781233,11.30709,10.712987Q11.335359,10.644742,11.376398,10.583322Q11.417437,10.521903,11.46967,10.46967Q11.521903,10.417437,11.583322,10.376398Q11.644742,10.335359,11.712987,10.30709Q11.781233,10.278822,11.853682,10.264410999999999Q11.9261315,10.25,12,10.25Z" fill-rule="evenodd" fill="#2882FF" fill-opacity="1"/></g><g><path d="M10,12.25L11,12.25Q11.07387,12.25,11.14632,12.264410999999999Q11.21877,12.278822,11.28701,12.30709Q11.35526,12.335359,11.41668,12.376398Q11.4781,12.417437,11.53033,12.46967Q11.58256,12.521903,11.6236,12.583322Q11.66464,12.644742,11.69291,12.712987Q11.72118,12.781233,11.73559,12.853682Q11.75,12.9261315,11.75,13Q11.75,13.0738685,11.73559,13.146318Q11.72118,13.218767,11.69291,13.287013Q11.66464,13.355258,11.6236,13.416678Q11.58256,13.478097,11.53033,13.53033Q11.4781,13.582563,11.41668,13.623602Q11.35526,13.664641,11.28701,13.69291Q11.21877,13.721178,11.14632,13.735589000000001Q11.07387,13.75,11,13.75L10,13.75Q9.9261315,13.75,9.853682,13.735589000000001Q9.781233,13.721178,9.712987,13.69291Q9.644742,13.664641,9.583322,13.623602Q9.521903,13.582563,9.46967,13.53033Q9.417437,13.478097,9.376398,13.416678Q9.335359,13.355258,9.30709,13.287013Q9.278822,13.218767,9.264410999999999,13.146318Q9.25,13.0738685,9.25,13Q9.25,12.9261315,9.264410999999999,12.853682Q9.278822,12.781233,9.30709,12.712987Q9.335359,12.644742,9.376398,12.583322Q9.417437,12.521903,9.46967,12.46967Q9.521903,12.417437,9.583322,12.376398Q9.644742,12.335359,9.712987,12.30709Q9.781233,12.278822,9.853682,12.264410999999999Q9.9261315,12.25,10,12.25Z" fill-rule="evenodd" fill="#2882FF" fill-opacity="1"/></g><g><path d="M12,14.25L13,14.25Q13.07387,14.25,13.14632,14.264410999999999Q13.21877,14.278822,13.28701,14.30709Q13.35526,14.335359,13.41668,14.376398Q13.4781,14.417437,13.53033,14.46967Q13.58256,14.521903,13.6236,14.583322Q13.66464,14.644742,13.69291,14.712987Q13.72118,14.781233,13.73559,14.853682Q13.75,14.9261315,13.75,15Q13.75,15.0738685,13.73559,15.146318Q13.72118,15.218767,13.69291,15.287013Q13.66464,15.355258,13.6236,15.416678Q13.58256,15.478097,13.53033,15.53033Q13.4781,15.582563,13.41668,15.623602Q13.35526,15.664641,13.28701,15.69291Q13.21877,15.721178,13.14632,15.735589000000001Q13.07387,15.75,13,15.75L12,15.75Q11.9261315,15.75,11.853682,15.735589000000001Q11.781233,15.721178,11.712987,15.69291Q11.644742,15.664641,11.583322,15.623602Q11.521903,15.582563,11.46967,15.53033Q11.417437,15.478097,11.376398,15.416678Q11.335359,15.355258,11.30709,15.287013Q11.278822,15.218767,11.264410999999999,15.146318Q11.25,15.0738685,11.25,15Q11.25,14.9261315,11.264410999999999,14.853682Q11.278822,14.781233,11.30709,14.712987Q11.335359,14.644742,11.376398,14.583322Q11.417437,14.521903,11.46967,14.46967Q11.521903,14.417437,11.583322,14.376398Q11.644742,14.335359,11.712987,14.30709Q11.781233,14.278822,11.853682,14.264410999999999Q11.9261315,14.25,12,14.25Z" fill-rule="evenodd" fill="#2882FF" fill-opacity="1"/></g></g></svg>