<svg xmlns="http://www.w3.org/2000/svg" xmlns:xlink="http://www.w3.org/1999/xlink" fill="none" version="1.1" width="24" height="24" viewBox="0 0 24 24"><defs><clipPath id="master_svg0_69_01397"><rect x="0" y="0" width="24" height="24" rx="0"/></clipPath></defs><g clip-path="url(#master_svg0_69_01397)"><g><path d="M19,7.3L19,8.25Q19,8.32387,19.0144,8.39632Q19.0288,8.46877,19.0571,8.53701Q19.0854,8.605260000000001,19.1264,8.66668Q19.1674,8.728100000000001,19.2197,8.78033Q19.2719,8.83256,19.3333,8.8736Q19.3947,8.91464,19.463,8.942910000000001Q19.5312,8.97118,19.6037,8.98559Q19.6761,9,19.75,9Q19.8239,9,19.8963,8.98559Q19.9688,8.97118,20.037,8.942910000000001Q20.1053,8.91464,20.1667,8.8736Q20.2281,8.83256,20.2803,8.78033Q20.3326,8.728100000000001,20.3736,8.66668Q20.4146,8.605260000000001,20.4429,8.53701Q20.4712,8.46877,20.4856,8.39632Q20.5,8.32387,20.5,8.25L20.5,7.3Q20.5,4.75,17.5,4.75L13.121,4.75Q12.5045,4.749457,11.52256,4.040672Q10.08076,3,8.87903,3L4.5,3Q3.2573600000000003,3,2.37868,3.87868Q1.5,4.75736,1.5,6L1.5,18Q1.5,19.2426,2.37868,20.1213Q3.2573600000000003,21,4.5,21L12,21Q12.07387,21,12.14632,20.9856Q12.21877,20.9712,12.287,20.9429Q12.3553,20.9146,12.4167,20.8736Q12.4781,20.8326,12.5303,20.7803Q12.5826,20.7281,12.6236,20.6667Q12.6646,20.6053,12.6929,20.537Q12.7212,20.4688,12.7356,20.3963Q12.75,20.3239,12.75,20.25Q12.75,20.1761,12.7356,20.1037Q12.7212,20.0312,12.6929,19.963Q12.6646,19.8947,12.6236,19.8333Q12.5826,19.7719,12.5303,19.7197Q12.4781,19.6674,12.4167,19.6264Q12.3553,19.5854,12.287,19.5571Q12.21877,19.5288,12.14632,19.514400000000002Q12.07387,19.5,12,19.5L4.5,19.5Q3,19.5,3,18L3,6Q3,4.5,4.5,4.5L8.87903,4.5Q9.595970000000001,4.5,10.64467,5.25694Q12.01915,6.249029999999999,13.121,6.25L17.5,6.25Q19,6.25,19,7.3Z" fill-rule="evenodd" fill="#231F2E" fill-opacity="1"/></g><g><path d="M4.9774540703125,10.03855L3.4595300703125,18.956400000000002Q3.3231300703124997,19.7577,3.8474840703125,20.3789Q4.3718390703125,21,5.1847220703125,21L19.311622070312502,21Q20.3172220703125,21,21.0855220703125,20.351399999999998Q21.8539220703125,19.7027,22.0226220703125,18.711399999999998L23.3418220703125,10.96145Q23.5561220703125,9.70218,22.7322220703125,8.726089Q21.9082220703125,7.75,20.6308220703125,7.75L7.6884620703125,7.75Q6.6829220703125,7.75,5.9145520703125,8.398633Q5.1461820703125,9.047267,4.9774540703125,10.03855ZM4.9936840703125,19.4113Q4.9187770703125,19.322499999999998,4.9382620703125,19.208L6.4561820703125,10.29025Q6.6332520703124995,9.25,7.6884620703125,9.25L20.6308220703125,9.25Q21.2114220703125,9.25,21.5860220703125,9.69368Q21.9605220703125,10.13735,21.8631220703125,10.70975L20.5439220703125,18.45975Q20.3668220703125,19.5,19.311622070312502,19.5L5.1847220703125,19.5Q5.0685920703125,19.5,4.9936840703125,19.4113Z" fill-rule="evenodd" fill="#231F2E" fill-opacity="1"/></g></g></svg>