<svg xmlns="http://www.w3.org/2000/svg" xmlns:xlink="http://www.w3.org/1999/xlink" fill="none" version="1.1" width="24" height="24" viewBox="0 0 24 24"><defs><clipPath id="master_svg0_69_15283"><rect x="0" y="0" width="24" height="24" rx="0"/></clipPath></defs><g clip-path="url(#master_svg0_69_15283)"><g><path d="M20.75,11.99831L20.75,12Q20.75,12.07387,20.7644,12.14632Q20.7788,12.21877,20.8071,12.28701Q20.8354,12.355260000000001,20.8764,12.41668Q20.9174,12.478100000000001,20.9697,12.53033Q21.0219,12.58256,21.0833,12.6236Q21.1447,12.66464,21.213,12.69291Q21.2812,12.72118,21.3537,12.73559Q21.4261,12.75,21.5,12.75Q21.5739,12.75,21.6463,12.73559Q21.7188,12.72118,21.787,12.69291Q21.8553,12.66464,21.9167,12.6236Q21.9781,12.58256,22.0303,12.53033Q22.0826,12.478100000000001,22.1236,12.41668Q22.1646,12.355260000000001,22.1929,12.28701Q22.2212,12.21877,22.2356,12.14632Q22.25,12.07387,22.25,12L22.25,7.5Q22.25,5.9467,21.1517,4.84835Q20.0533,3.75,18.5,3.75L5.5,3.75Q3.9467,3.75,2.848349,4.84835Q1.75,5.9467,1.75,7.5L1.75,16.5Q1.75,18.0533,2.84835,19.151600000000002Q3.9467,20.25,5.5,20.25L12,20.25Q12.07387,20.25,12.14632,20.235599999999998Q12.21877,20.2212,12.28701,20.1929Q12.35526,20.1646,12.41668,20.1236Q12.4781,20.0826,12.5303,20.0303Q12.5826,19.978099999999998,12.6236,19.9167Q12.6646,19.8553,12.6929,19.787Q12.7212,19.7188,12.7356,19.6463Q12.75,19.573900000000002,12.75,19.5Q12.75,19.426099999999998,12.7356,19.3537Q12.7212,19.2812,12.6929,19.213Q12.6646,19.1447,12.6236,19.0833Q12.5826,19.021900000000002,12.5303,18.9697Q12.4781,18.9174,12.41668,18.8764Q12.35526,18.8354,12.28701,18.8071Q12.21877,18.7788,12.14632,18.764400000000002Q12.07387,18.75,12,18.75L5.5,18.75Q4.568020000000001,18.75,3.9090100000000003,18.091Q3.25,17.432000000000002,3.25,16.5L3.25,7.5Q3.25,6.568020000000001,3.9090100000000003,5.90901Q4.568020000000001,5.25,5.5,5.25L18.5,5.25Q19.432,5.25,20.091,5.90901Q20.75,6.568020000000001,20.75,7.5L20.75,11.99831Z" fill-rule="evenodd" fill="#231F2E" fill-opacity="1"/></g><g><path d="M15.8255279296875,12.832837329101562C15.4904979296875,12.924427329101562,15.153807929687499,12.970767329101562,14.8247079296875,12.970767329101562C12.731737929687501,12.970767329101562,11.0289779296875,11.268147329101563,11.0289779296875,9.175187329101563C11.0289779296875,8.846493329101563,11.0754679296875,8.509665329101562,11.1670479296875,8.174355329101562C11.1801579296875,8.126493329101562,11.1664979296875,8.075458529101562,11.1314679296875,8.040424029101562C11.0962879296875,8.005527499101563,11.0452579296875,7.992148199101562,10.9975379296875,8.004837859101562C9.2325679296875,8.487045329101562,7.9998779296875,10.100567329101562,7.9998779296875,11.928557329101562C7.9998779296875,14.173527329101564,9.8262179296875,16.000007329101564,12.071327929687499,16.000007329101564C13.8994679296875,16.000007329101564,15.5128479296875,14.767187329101564,15.9950479296875,13.002217329101562C16.0081579296875,12.954357329101562,15.994497929687501,12.903317329101561,15.9594679296875,12.868287329101562C15.9242879296875,12.833387329101562,15.873257929687501,12.819877329101562,15.8255279296875,12.832837329101562Z" fill="#2882FF" fill-opacity="1"/></g><g><path d="M14.4653642578125,8.952015258789062C14.0717142578125,8.952015258789062,13.7513642578125,8.631667258789063,13.7513642578125,8.238015258789062C13.7513642578125,8.106639258789063,13.6449742578125,8.000015258789062,13.5133642578125,8.000015258789062C13.3817542578125,8.000015258789062,13.2753642578125,8.106639258789063,13.2753642578125,8.238015258789062C13.2753642578125,8.631667258789063,12.9550162578125,8.952015258789062,12.5613642578125,8.952015258789062C12.4297502578125,8.952015258789062,12.3233642578125,9.058635258789062,12.3233642578125,9.190015258789062C12.3233642578125,9.321395258789062,12.4297502578125,9.428015258789063,12.5613642578125,9.428015258789063C12.9550162578125,9.428015258789063,13.2753642578125,9.748365258789063,13.2753642578125,10.142015258789062C13.2753642578125,10.273395258789062,13.3817542578125,10.380015258789062,13.5133642578125,10.380015258789062C13.6449742578125,10.380015258789062,13.7513642578125,10.273395258789062,13.7513642578125,10.142015258789062C13.7513642578125,9.748365258789063,14.0717142578125,9.428015258789063,14.4653642578125,9.428015258789063C14.5969742578125,9.428015258789063,14.703364257812499,9.321395258789062,14.703364257812499,9.190015258789062C14.703364257812499,9.058635258789062,14.5969742578125,8.952015258789062,14.4653642578125,8.952015258789062Z" fill="#2882FF" fill-opacity="1"/></g><g><path d="M15.86198546875,10.7586331796875C15.63384546875,10.7586331796875,15.44819146875,10.5729781796875,15.44819146875,10.3448401796875C15.44819146875,10.2687022796875,15.38653646875,10.2069091796875,15.31026046875,10.2069091796875C15.23398446875,10.2069091796875,15.17232946875,10.2687022796875,15.17232946875,10.3448401796875C15.17232946875,10.5729781796875,14.98667446875,10.7586331796875,14.75853646875,10.7586331796875C14.68226046875,10.7586331796875,14.62060546875,10.8204261796875,14.62060546875,10.8965641796875C14.62060546875,10.9727021796875,14.68226046875,11.0344951796875,14.75853646875,11.0344951796875C14.98667446875,11.0344951796875,15.17232946875,11.2201491796875,15.17232946875,11.4482891796875C15.17232946875,11.5244291796875,15.23398446875,11.5862191796875,15.31026046875,11.5862191796875C15.38653646875,11.5862191796875,15.44819146875,11.5244291796875,15.44819146875,11.4482891796875C15.44819146875,11.2201491796875,15.63384546875,11.0344951796875,15.86198546875,11.0344951796875C15.93826546875,11.0344951796875,15.99991546875,10.9727021796875,15.99991546875,10.8965641796875C15.99991546875,10.8204261796875,15.93826546875,10.7586331796875,15.86198546875,10.7586331796875Z" fill="#2882FF" fill-opacity="1"/></g><g><path d="M17.030484,14.9747068125L22.0297,19.9739228125L22.03033,19.9745528125Q22.13582,20.0800428125,22.19291,20.217872812499998Q22.25,20.3557028125,22.25,20.5048828125Q22.25,20.5787528125,22.235590000000002,20.6512028125Q22.22118,20.7236528125,22.19291,20.791892812500002Q22.16464,20.8601428125,22.1236,20.9215628125Q22.08256,20.9829828125,22.03033,21.0352128125Q21.9781,21.0874428125,21.91668,21.1284828125Q21.85526,21.1695228125,21.787010000000002,21.1977928125Q21.71877,21.2260628125,21.64632,21.240472812500002Q21.57387,21.2548828125,21.5,21.2548828125Q21.35082,21.2548828125,21.212989999999998,21.1977928125Q21.07516,21.1407028125,20.96967,21.0352128125L20.96904,21.0345828125L15.969824,16.0353668125L15.96967,16.0352128125Q15.864181,15.9297238125,15.80709,15.7918958125Q15.75,15.6540668125,15.75,15.5048828125Q15.75,15.4310143125,15.764410999999999,15.3585648125Q15.778822,15.2861158125,15.80709,15.2178698125Q15.835359,15.1496248125,15.876398,15.0882048125Q15.917437,15.0267858125,15.96967,14.9745528125Q16.021903000000002,14.9223198125,16.083322,14.8812808125Q16.144742,14.8402418125,16.212987,14.8119728125Q16.281233,14.7837048125,16.353682,14.769293812499999Q16.4261315,14.7548828125,16.5,14.7548828125Q16.649184,14.7548828125,16.787013,14.8119728125Q16.924841,14.8690638125,17.03033,14.9745528125L17.030484,14.9747068125Z" fill-rule="evenodd" fill="#2882FF" fill-opacity="1" style="mix-blend-mode:passthrough"/></g><g><path d="M22.03033,16.0352128125Q22.13582,15.9297238125,22.19291,15.7918958125Q22.25,15.6540668125,22.25,15.5048828125Q22.25,15.4310143125,22.235590000000002,15.3585648125Q22.22118,15.2861158125,22.19291,15.2178698125Q22.16464,15.1496248125,22.1236,15.0882048125Q22.08256,15.0267858125,22.03033,14.9745528125Q21.9781,14.9223198125,21.91668,14.8812808125Q21.85526,14.8402418125,21.787010000000002,14.8119728125Q21.71877,14.7837048125,21.64632,14.769293812499999Q21.57387,14.7548828125,21.5,14.7548828125Q21.35082,14.7548828125,21.212989999999998,14.8119728125Q21.07516,14.8690638125,20.96967,14.9745528125L20.96921,14.9750148125L15.970132,19.9740928125L15.96967,19.9745528125Q15.864181,20.0800428125,15.80709,20.217872812499998Q15.75,20.3557028125,15.75,20.5048828125Q15.75,20.5787528125,15.764410999999999,20.6512028125Q15.778822,20.7236528125,15.80709,20.791892812500002Q15.835359,20.8601428125,15.876398,20.9215628125Q15.917437,20.9829828125,15.96967,21.0352128125Q16.021903000000002,21.0874428125,16.083322,21.1284828125Q16.144742,21.1695228125,16.212987,21.1977928125Q16.281233,21.2260628125,16.353682,21.240472812500002Q16.4261315,21.2548828125,16.5,21.2548828125Q16.649184,21.2548828125,16.787013,21.1977928125Q16.924841,21.1407028125,17.03033,21.0352128125L17.030792,21.0347528125L22.02987,16.0356748125L22.03033,16.0352128125L22.03033,16.0352128125Z" fill-rule="evenodd" fill="#2882FF" fill-opacity="1" style="mix-blend-mode:passthrough"/></g></g></svg>