<svg xmlns="http://www.w3.org/2000/svg" xmlns:xlink="http://www.w3.org/1999/xlink" fill="none" version="1.1" width="24" height="24" viewBox="0 0 24 24"><defs><clipPath id="master_svg0_69_01116"><rect x="0" y="0" width="24" height="24" rx="0"/></clipPath></defs><g clip-path="url(#master_svg0_69_01116)"><g><path d="M12.25,3Q12.25,2.9261315,12.264410999999999,2.853682Q12.278822,2.781233,12.30709,2.712987Q12.335359,2.644742,12.376398,2.583322Q12.417437,2.521903,12.46967,2.46967Q12.521903,2.417437,12.583322,2.376398Q12.644742,2.335359,12.712987,2.30709Q12.781233,2.278822,12.853682,2.264411Q12.9261315,2.25,13,2.25Q13.0738685,2.25,13.146318,2.264411Q13.218767,2.278822,13.287013,2.30709Q13.355258,2.335359,13.416678,2.376398Q13.478097,2.417437,13.53033,2.46967Q13.582563,2.521903,13.623602,2.583322Q13.664641,2.644742,13.69291,2.712987Q13.721178,2.781233,13.735589000000001,2.853682Q13.75,2.9261315,13.75,3L13.75,7Q13.75,7.10355,13.823223,7.17678Q13.896447,7.25,14,7.25L18,7.25Q18.07387,7.25,18.14632,7.26441Q18.21877,7.27882,18.287010000000002,7.30709Q18.35526,7.33536,18.41668,7.3764Q18.4781,7.41744,18.53033,7.46967Q18.58256,7.5219,18.6236,7.58332Q18.66464,7.64474,18.69291,7.71299Q18.72118,7.78123,18.735590000000002,7.85368Q18.75,7.92613,18.75,8Q18.75,8.07387,18.735590000000002,8.14632Q18.72118,8.21877,18.69291,8.28701Q18.66464,8.355260000000001,18.6236,8.41668Q18.58256,8.478100000000001,18.53033,8.53033Q18.4781,8.58256,18.41668,8.6236Q18.35526,8.66464,18.287010000000002,8.692910000000001Q18.21877,8.72118,18.14632,8.73559Q18.07387,8.75,18,8.75L14,8.75Q13.275126,8.75,12.762563,8.23744Q12.25,7.72487,12.25,7L12.25,3Z" fill-rule="evenodd" fill="#231F2E" fill-opacity="1"/></g><g><path d="M17.25,8.31066L17.25,12.5Q17.25,12.57387,17.264400000000002,12.64632Q17.2788,12.71877,17.3071,12.78701Q17.3354,12.85526,17.3764,12.91668Q17.4174,12.9781,17.4697,13.0303Q17.521900000000002,13.0826,17.5833,13.1236Q17.6447,13.1646,17.713,13.1929Q17.7812,13.2212,17.8537,13.2356Q17.926099999999998,13.25,18,13.25Q18.073900000000002,13.25,18.1463,13.2356Q18.2188,13.2212,18.287,13.1929Q18.3553,13.1646,18.4167,13.1236Q18.478099999999998,13.0826,18.5303,13.0303Q18.5826,12.9781,18.6236,12.91668Q18.6646,12.85526,18.6929,12.78701Q18.7212,12.71877,18.735599999999998,12.64632Q18.75,12.57387,18.75,12.5L18.75,12.4988L18.75,8Q18.75,7.85082,18.6929,7.71299Q18.6358,7.57516,18.5303,7.46967L13.53033,2.46967Q13.42484,2.364181,13.28701,2.30709Q13.14919,2.25,13,2.25L6,2.25Q4.860913,2.25,4.0554564,3.0554564Q3.25,3.860913,3.25,5L3.25,19Q3.25,20.1391,4.0554563,20.9445Q4.860912,21.75,6,21.75L11,21.75Q11.07387,21.75,11.14632,21.7356Q11.21877,21.7212,11.28701,21.6929Q11.355260000000001,21.6646,11.41668,21.6236Q11.478100000000001,21.5826,11.53033,21.5303Q11.58256,21.4781,11.6236,21.4167Q11.66464,21.3553,11.692910000000001,21.287Q11.72118,21.2188,11.73559,21.1463Q11.75,21.0739,11.75,21Q11.75,20.9261,11.73559,20.8537Q11.72118,20.7812,11.692910000000001,20.713Q11.66464,20.6447,11.6236,20.5833Q11.58256,20.5219,11.53033,20.4697Q11.478100000000001,20.4174,11.41668,20.3764Q11.355260000000001,20.3354,11.28701,20.3071Q11.21877,20.2788,11.14632,20.2644Q11.07387,20.25,11,20.25L6,20.25Q5.4822299999999995,20.25,5.1161200000000004,19.8839Q4.75,19.5178,4.75,19L4.75,5Q4.75,4.4822299999999995,5.1161200000000004,4.1161200000000004Q5.4822299999999995,3.75,6,3.75L12.68934,3.75L17.25,8.31066Z" fill-rule="evenodd" fill="#231F2E" fill-opacity="1"/></g><g><path d="M7,7.25L9,7.25Q9.07387,7.25,9.14632,7.264411Q9.21877,7.278822,9.28701,7.30709Q9.35526,7.335359,9.41668,7.376398Q9.4781,7.417437,9.53033,7.46967Q9.58256,7.521903,9.6236,7.583322Q9.66464,7.644742,9.69291,7.712987Q9.72118,7.781233,9.73559,7.853682Q9.75,7.9261315,9.75,8Q9.75,8.0738685,9.73559,8.146318Q9.72118,8.218767,9.69291,8.287013Q9.66464,8.355258,9.6236,8.416678Q9.58256,8.478097,9.53033,8.53033Q9.4781,8.582563,9.41668,8.623602Q9.35526,8.664641,9.28701,8.69291Q9.21877,8.721178,9.14632,8.735589000000001Q9.07387,8.75,9,8.75L7,8.75Q6.9261315,8.75,6.853682,8.735589000000001Q6.781233,8.721178,6.712987,8.69291Q6.644742,8.664641,6.583322,8.623602Q6.521903,8.582563,6.46967,8.53033Q6.417437,8.478097,6.376398,8.416678Q6.335359,8.355258,6.30709,8.287013Q6.278822,8.218767,6.264411,8.146318Q6.25,8.0738685,6.25,8Q6.25,7.9261315,6.264411,7.853682Q6.278822,7.781233,6.30709,7.712987Q6.335359,7.644742,6.376398,7.583322Q6.417437,7.521903,6.46967,7.46967Q6.521903,7.417437,6.583322,7.376398Q6.644742,7.335359,6.712987,7.30709Q6.781233,7.278822,6.853682,7.264411Q6.9261315,7.25,7,7.25Z" fill-rule="evenodd" fill="#231F2E" fill-opacity="1"/></g><g><path d="M7,11.25L15,11.25Q15.07387,11.25,15.14632,11.264410999999999Q15.21877,11.278822,15.28701,11.30709Q15.35526,11.335359,15.41668,11.376398Q15.4781,11.417437,15.53033,11.46967Q15.58256,11.521903,15.6236,11.583322Q15.66464,11.644742,15.69291,11.712987Q15.72118,11.781233,15.73559,11.853682Q15.75,11.9261315,15.75,12Q15.75,12.0738685,15.73559,12.146318Q15.72118,12.218767,15.69291,12.287013Q15.66464,12.355258,15.6236,12.416678Q15.58256,12.478097,15.53033,12.53033Q15.4781,12.582563,15.41668,12.623602Q15.35526,12.664641,15.28701,12.69291Q15.21877,12.721178,15.14632,12.735589000000001Q15.07387,12.75,15,12.75L7,12.75Q6.9261315,12.75,6.853682,12.735589000000001Q6.781233,12.721178,6.712987,12.69291Q6.644742,12.664641,6.583322,12.623602Q6.521903,12.582563,6.46967,12.53033Q6.417437,12.478097,6.376398,12.416678Q6.335359,12.355258,6.30709,12.287013Q6.278822,12.218767,6.264411,12.146318Q6.25,12.0738685,6.25,12Q6.25,11.9261315,6.264411,11.853682Q6.278822,11.781233,6.30709,11.712987Q6.335359,11.644742,6.376398,11.583322Q6.417437,11.521903,6.46967,11.46967Q6.521903,11.417437,6.583322,11.376398Q6.644742,11.335359,6.712987,11.30709Q6.781233,11.278822,6.853682,11.264410999999999Q6.9261315,11.25,7,11.25Z" fill-rule="evenodd" fill="#231F2E" fill-opacity="1"/></g><g><path d="M7,15.25L11,15.25Q11.07387,15.25,11.14632,15.264410999999999Q11.21877,15.278822,11.28701,15.30709Q11.355260000000001,15.335359,11.41668,15.376398Q11.478100000000001,15.417437,11.53033,15.46967Q11.58256,15.521903,11.6236,15.583322Q11.66464,15.644742,11.692910000000001,15.712987Q11.72118,15.781233,11.73559,15.853682Q11.75,15.9261315,11.75,16Q11.75,16.0738685,11.73559,16.146318Q11.72118,16.218767,11.692910000000001,16.287013Q11.66464,16.355258,11.6236,16.416678Q11.58256,16.478096999999998,11.53033,16.53033Q11.478100000000001,16.582563,11.41668,16.623601999999998Q11.355260000000001,16.664641,11.28701,16.69291Q11.21877,16.721178,11.14632,16.735589Q11.07387,16.75,11,16.75L7,16.75Q6.9261315,16.75,6.853682,16.735589Q6.781233,16.721178,6.712987,16.69291Q6.644742,16.664641,6.583322,16.623601999999998Q6.521903,16.582563,6.46967,16.53033Q6.417437,16.478096999999998,6.376398,16.416678Q6.335359,16.355258,6.30709,16.287013Q6.278822,16.218767,6.264411,16.146318Q6.25,16.0738685,6.25,16Q6.25,15.9261315,6.264411,15.853682Q6.278822,15.781233,6.30709,15.712987Q6.335359,15.644742,6.376398,15.583322Q6.417437,15.521903,6.46967,15.46967Q6.521903,15.417437,6.583322,15.376398Q6.644742,15.335359,6.712987,15.30709Q6.781233,15.278822,6.853682,15.264410999999999Q6.9261315,15.25,7,15.25Z" fill-rule="evenodd" fill="#231F2E" fill-opacity="1"/></g><g><path d="M15,21.25L17,21.25Q17.07387,21.25,17.14632,21.264411Q17.21877,21.278822,17.28701,21.30709Q17.35526,21.335359,17.41668,21.376398000000002Q17.4781,21.417437,17.53033,21.46967Q17.58256,21.521903000000002,17.6236,21.583322Q17.66464,21.644742,17.69291,21.712987Q17.72118,21.781233,17.735590000000002,21.853682Q17.75,21.9261315,17.75,22Q17.75,22.0738685,17.735590000000002,22.146318Q17.72118,22.218767,17.69291,22.287013Q17.66464,22.355258,17.6236,22.416678Q17.58256,22.478096999999998,17.53033,22.53033Q17.4781,22.582563,17.41668,22.623601999999998Q17.35526,22.664641,17.28701,22.69291Q17.21877,22.721178,17.14632,22.735589Q17.07387,22.75,17,22.75L15,22.75Q14.9261315,22.75,14.853682,22.735589Q14.781233,22.721178,14.712987,22.69291Q14.644742,22.664641,14.583322,22.623601999999998Q14.521903,22.582563,14.46967,22.53033Q14.417437,22.478096999999998,14.376398,22.416678Q14.335359,22.355258,14.30709,22.287013Q14.278822,22.218767,14.264410999999999,22.146318Q14.25,22.0738685,14.25,22Q14.25,21.9261315,14.264410999999999,21.853682Q14.278822,21.781233,14.30709,21.712987Q14.335359,21.644742,14.376398,21.583322Q14.417437,21.521903000000002,14.46967,21.46967Q14.521903,21.417437,14.583322,21.376398000000002Q14.644742,21.335359,14.712987,21.30709Q14.781233,21.278822,14.853682,21.264411Q14.9261315,21.25,15,21.25Z" fill-rule="evenodd" fill="#2882FF" fill-opacity="1"/></g><g><path d="M15,18.25L21,18.25Q21.07387,18.25,21.14632,18.264411Q21.21877,18.278822,21.287010000000002,18.30709Q21.35526,18.335359,21.41668,18.376398000000002Q21.4781,18.417437,21.53033,18.46967Q21.58256,18.521903000000002,21.6236,18.583322Q21.66464,18.644742,21.69291,18.712987Q21.72118,18.781233,21.735590000000002,18.853682Q21.75,18.9261315,21.75,19Q21.75,19.0738685,21.735590000000002,19.146318Q21.72118,19.218767,21.69291,19.287013Q21.66464,19.355258,21.6236,19.416678Q21.58256,19.478096999999998,21.53033,19.53033Q21.4781,19.582563,21.41668,19.623601999999998Q21.35526,19.664641,21.287010000000002,19.69291Q21.21877,19.721178,21.14632,19.735589Q21.07387,19.75,21,19.75L15,19.75Q14.9261315,19.75,14.853682,19.735589Q14.781233,19.721178,14.712987,19.69291Q14.644742,19.664641,14.583322,19.623601999999998Q14.521903,19.582563,14.46967,19.53033Q14.417437,19.478096999999998,14.376398,19.416678Q14.335359,19.355258,14.30709,19.287013Q14.278822,19.218767,14.264410999999999,19.146318Q14.25,19.0738685,14.25,19Q14.25,18.9261315,14.264410999999999,18.853682Q14.278822,18.781233,14.30709,18.712987Q14.335359,18.644742,14.376398,18.583322Q14.417437,18.521903000000002,14.46967,18.46967Q14.521903,18.417437,14.583322,18.376398000000002Q14.644742,18.335359,14.712987,18.30709Q14.781233,18.278822,14.853682,18.264411Q14.9261315,18.25,15,18.25Z" fill-rule="evenodd" fill="#2882FF" fill-opacity="1"/></g><g><path d="M15,15.25L21,15.25Q21.07387,15.25,21.14632,15.264410999999999Q21.21877,15.278822,21.287010000000002,15.30709Q21.35526,15.335359,21.41668,15.376398Q21.4781,15.417437,21.53033,15.46967Q21.58256,15.521903,21.6236,15.583322Q21.66464,15.644742,21.69291,15.712987Q21.72118,15.781233,21.735590000000002,15.853682Q21.75,15.9261315,21.75,16Q21.75,16.0738685,21.735590000000002,16.146318Q21.72118,16.218767,21.69291,16.287013Q21.66464,16.355258,21.6236,16.416678Q21.58256,16.478096999999998,21.53033,16.53033Q21.4781,16.582563,21.41668,16.623601999999998Q21.35526,16.664641,21.287010000000002,16.69291Q21.21877,16.721178,21.14632,16.735589Q21.07387,16.75,21,16.75L15,16.75Q14.9261315,16.75,14.853682,16.735589Q14.781233,16.721178,14.712987,16.69291Q14.644742,16.664641,14.583322,16.623601999999998Q14.521903,16.582563,14.46967,16.53033Q14.417437,16.478096999999998,14.376398,16.416678Q14.335359,16.355258,14.30709,16.287013Q14.278822,16.218767,14.264410999999999,16.146318Q14.25,16.0738685,14.25,16Q14.25,15.9261315,14.264410999999999,15.853682Q14.278822,15.781233,14.30709,15.712987Q14.335359,15.644742,14.376398,15.583322Q14.417437,15.521903,14.46967,15.46967Q14.521903,15.417437,14.583322,15.376398Q14.644742,15.335359,14.712987,15.30709Q14.781233,15.278822,14.853682,15.264410999999999Q14.9261315,15.25,15,15.25Z" fill-rule="evenodd" fill="#2882FF" fill-opacity="1"/></g></g></svg>