<svg xmlns="http://www.w3.org/2000/svg" xmlns:xlink="http://www.w3.org/1999/xlink" fill="none" version="1.1" width="24" height="24" viewBox="0 0 24 24"><defs><clipPath id="master_svg0_72_02789"><rect x="0" y="0" width="24" height="24" rx="0"/></clipPath></defs><g clip-path="url(#master_svg0_72_02789)"><g><g><path d="M14.049999809265136,10.499999809265137Q14.049999809265136,10.625269809265136,14.037719809265138,10.749939809265136Q14.025439809265137,10.874609809265136,14.000999809265137,10.997479809265137Q13.976559809265137,11.120349809265136,13.940199809265136,11.240229809265138Q13.903829809265137,11.360099809265137,13.855889809265136,11.475839809265137Q13.807949809265136,11.591579809265136,13.748899809265136,11.702059809265137Q13.689849809265137,11.812539809265136,13.620249809265136,11.916699809265136Q13.550649809265137,12.020869809265136,13.471179809265138,12.117699809265137Q13.391699809265138,12.214539809265137,13.303119809265137,12.303119809265137Q13.214539809265137,12.391699809265138,13.117699809265137,12.471179809265138Q13.020869809265136,12.550649809265137,12.916699809265136,12.620249809265136Q12.812539809265136,12.689849809265137,12.702059809265137,12.748899809265136Q12.591579809265136,12.807949809265136,12.475839809265137,12.855889809265136Q12.360099809265137,12.903829809265137,12.240229809265138,12.940199809265136Q12.120349809265136,12.976559809265137,11.997479809265137,13.000999809265137Q11.874609809265136,13.025439809265137,11.749939809265136,13.037719809265138Q11.625269809265136,13.049999809265136,11.499999809265137,13.049999809265136Q11.374729809265137,13.049999809265136,11.250059809265137,13.037719809265138Q11.125389809265137,13.025439809265137,11.002519809265136,13.000999809265137Q10.879649809265137,12.976559809265137,10.759769809265137,12.940199809265136Q10.639889809265137,12.903829809265137,10.524159809265136,12.855889809265136Q10.408419809265137,12.807949809265136,10.297939809265136,12.748899809265136Q10.187459809265137,12.689849809265137,10.083299809265137,12.620249809265136Q9.979129809265137,12.550649809265137,9.882296809265137,12.471179809265138Q9.785458809265137,12.391699809265138,9.696877809265137,12.303119809265137Q9.608295809265137,12.214539809265137,9.528822809265137,12.117699809265137Q9.449350809265137,12.020869809265136,9.379751809265137,11.916699809265136Q9.310153809265136,11.812539809265136,9.251100809265136,11.702059809265137Q9.192046809265136,11.591579809265136,9.144106809265137,11.475839809265137Q9.096166809265137,11.360099809265137,9.059801809265137,11.240229809265138Q9.023437009265137,11.120349809265136,8.998997309265137,10.997479809265137Q8.974557709265136,10.874609809265136,8.962278709265137,10.749939809265136Q8.949999809265137,10.625269809265136,8.949999809265137,10.499999809265137Q8.949999809265137,10.374729809265137,8.962278709265137,10.250059809265137Q8.974557709265136,10.125389809265137,8.998997309265137,10.002519809265136Q9.023437009265137,9.879649809265137,9.059801809265137,9.759769809265137Q9.096166809265137,9.639889809265137,9.144106809265137,9.524159809265136Q9.192046809265136,9.408419809265137,9.251100809265136,9.297939809265136Q9.310153809265136,9.187459809265137,9.379751809265137,9.083299809265137Q9.449350809265137,8.979129809265137,9.528822809265137,8.882296809265137Q9.608295809265137,8.785458809265137,9.696877809265137,8.696877809265137Q9.785458809265137,8.608295809265137,9.882296809265137,8.528822809265137Q9.979129809265137,8.449350809265137,10.083299809265137,8.379751809265137Q10.187459809265137,8.310153809265136,10.297939809265136,8.251100809265136Q10.408419809265137,8.192046809265136,10.524159809265136,8.144106809265137Q10.639889809265137,8.096166809265137,10.759769809265137,8.059801809265137Q10.879649809265137,8.023437009265137,11.002519809265136,7.998997309265136Q11.125389809265137,7.974557709265136,11.250059809265137,7.962278709265137Q11.374729809265137,7.949999809265137,11.499999809265137,7.949999809265137Q11.625269809265136,7.949999809265137,11.749939809265136,7.962278709265137Q11.874609809265136,7.974557709265136,11.997479809265137,7.998997309265136Q12.120349809265136,8.023437009265137,12.240229809265138,8.059801809265137Q12.360099809265137,8.096166809265137,12.475839809265137,8.144106809265137Q12.591579809265136,8.192046809265136,12.702059809265137,8.251100809265136Q12.812539809265136,8.310153809265136,12.916699809265136,8.379751809265137Q13.020869809265136,8.449350809265137,13.117699809265137,8.528822809265137Q13.214539809265137,8.608295809265137,13.303119809265137,8.696877809265137Q13.391699809265138,8.785458809265137,13.471179809265138,8.882296809265137Q13.550649809265137,8.979129809265137,13.620249809265136,9.083299809265137Q13.689849809265137,9.187459809265137,13.748899809265136,9.297939809265136Q13.807949809265136,9.408419809265137,13.855889809265136,9.524159809265136Q13.903829809265137,9.639889809265137,13.940199809265136,9.759769809265137Q13.976559809265137,9.879649809265137,14.000999809265137,10.002519809265136Q14.025439809265137,10.125389809265137,14.037719809265138,10.250059809265137Q14.049999809265136,10.374729809265137,14.049999809265136,10.499999809265137Z" fill="#2882FF" fill-opacity="1"/><path d="M13.833449809265137,8.166546809265137Q12.866899809265137,7.199999809265137,11.499999809265137,7.199999809265137Q10.133099809265136,7.199999809265137,9.166547809265136,8.166546809265137Q8.199999809265137,9.133089809265137,8.199999809265137,10.499999809265137Q8.199999809265137,11.866909809265136,9.166546809265137,12.833449809265137Q10.133099809265136,13.799999809265136,11.499999809265137,13.799999809265136Q12.866899809265137,13.799999809265136,13.833449809265137,12.833449809265137Q14.799999809265136,11.866899809265137,14.799999809265136,10.499999809265137Q14.799999809265136,9.133099809265136,13.833449809265137,8.166546809265137ZM10.227209809265137,9.227209809265137Q10.754419809265137,8.699999809265137,11.499999809265137,8.699999809265137Q12.245579809265138,8.699999809265137,12.772789809265136,9.227209809265137Q13.299999809265136,9.754419809265137,13.299999809265136,10.499999809265137Q13.299999809265136,11.245579809265138,12.772789809265136,11.772789809265136Q12.245579809265138,12.299999809265136,11.499999809265137,12.299999809265136Q10.754419809265137,12.299999809265136,10.227209809265137,11.772789809265136Q9.699999809265137,11.245579809265138,9.699999809265137,10.499999809265137Q9.699999809265137,9.754419809265137,10.227209809265137,9.227209809265137Z" fill-rule="evenodd" fill="#2882FF" fill-opacity="1" style="mix-blend-mode:passthrough"/></g><g><path d="M16.838700047683716,5.161340047683716Q14.627310047683716,2.950000047683716,11.500000047683717,2.950001047683716Q8.372690047683715,2.950000047683716,6.161340047683716,5.161340047683716Q3.950000047683716,7.372690047683715,3.950001047683716,10.500000047683717Q3.950000047683716,13.627310047683716,6.161340047683716,15.838700047683716Q8.372690047683715,18.050000047683717,11.500000047683717,18.050000047683717Q14.627310047683716,18.050000047683717,16.838700047683716,15.838700047683716Q19.050000047683717,13.627310047683716,19.050000047683717,10.500000047683717Q19.050000047683717,7.372690047683715,16.838700047683716,5.161340047683716ZM7.222000047683716,6.222000047683716Q8.994010047683716,4.450000047683716,11.500000047683717,4.450000047683716Q14.005990047683715,4.450000047683716,15.778000047683715,6.222000047683716Q17.550000047683717,7.994010047683716,17.550000047683717,10.500000047683717Q17.550000047683717,13.005990047683715,15.778000047683715,14.778000047683715Q14.005990047683715,16.550000047683717,11.500000047683717,16.550000047683717Q8.994010047683716,16.550000047683717,7.222000047683716,14.778000047683715Q5.450000047683716,13.005990047683715,5.450001047683716,10.500000047683717Q5.450000047683716,7.994010047683716,7.222000047683716,6.222000047683716Z" fill-rule="evenodd" fill="#2882FF" fill-opacity="1" style="mix-blend-mode:passthrough"/></g><g><path d="M10.75,2Q10.75,1.9261314999999999,10.764410999999999,1.853682Q10.778822,1.781233,10.80709,1.712987Q10.835359,1.644742,10.876398,1.583322Q10.917437,1.521903,10.96967,1.46967Q11.021903,1.417437,11.083322,1.376398Q11.144742,1.335359,11.212987,1.30709Q11.281233,1.278822,11.353682,1.264411Q11.4261315,1.25,11.5,1.25Q11.5738685,1.25,11.646318,1.264411Q11.718767,1.278822,11.787013,1.30709Q11.855258,1.335359,11.916678,1.376398Q11.978097,1.417437,12.03033,1.46967Q12.082563,1.521903,12.123602,1.583322Q12.164641,1.644742,12.19291,1.712987Q12.221178,1.781233,12.235589000000001,1.853682Q12.25,1.9261314999999999,12.25,2L12.25,5Q12.25,5.073869999999999,12.235589000000001,5.146319999999999Q12.221178,5.21877,12.19291,5.28701Q12.164641,5.3552599999999995,12.123602,5.4166799999999995Q12.082563,5.4780999999999995,12.03033,5.53033Q11.978097,5.58256,11.916678,5.6236Q11.855258,5.66464,11.787013,5.6929099999999995Q11.718767,5.72118,11.646318,5.73559Q11.5738685,5.75,11.5,5.75Q11.4261315,5.75,11.353682,5.73559Q11.281233,5.72118,11.212987,5.6929099999999995Q11.144742,5.66464,11.083322,5.6236Q11.021903,5.58256,10.96967,5.53033Q10.917437,5.4780999999999995,10.876398,5.4166799999999995Q10.835359,5.3552599999999995,10.80709,5.28701Q10.778822,5.21877,10.764410999999999,5.146319999999999Q10.75,5.073869999999999,10.75,5L10.75,2Z" fill-rule="evenodd" fill="#2882FF" fill-opacity="1" style="mix-blend-mode:passthrough"/></g><g><path d="M10.75,17.300000190734863Q10.75,17.226131690734864,10.764410999999999,17.153682190734862Q10.778822,17.081233190734864,10.80709,17.01298719073486Q10.835359,16.944742190734864,10.876398,16.883322190734862Q10.917437,16.821903190734865,10.96967,16.769670190734864Q11.021903,16.717437190734863,11.083322,16.676398190734865Q11.144742,16.635359190734864,11.212987,16.607090190734862Q11.281233,16.578822190734865,11.353682,16.564411190734862Q11.4261315,16.550000190734863,11.5,16.550000190734863Q11.5738685,16.550000190734863,11.646318,16.564411190734862Q11.718767,16.578822190734865,11.787013,16.607090190734862Q11.855258,16.635359190734864,11.916678,16.676398190734865Q11.978097,16.717437190734863,12.03033,16.769670190734864Q12.082563,16.821903190734865,12.123602,16.883322190734862Q12.164641,16.944742190734864,12.19291,17.01298719073486Q12.221178,17.081233190734864,12.235589000000001,17.153682190734862Q12.25,17.226131690734864,12.25,17.300000190734863L12.25,19.000000190734863Q12.25,19.073870190734862,12.235589000000001,19.146320190734862Q12.221178,19.218770190734862,12.19291,19.287010190734865Q12.164641,19.355260190734864,12.123602,19.416680190734862Q12.082563,19.478100190734864,12.03033,19.530330190734862Q11.978097,19.582560190734863,11.916678,19.623600190734862Q11.855258,19.664640190734865,11.787013,19.692910190734864Q11.718767,19.721180190734863,11.646318,19.735590190734865Q11.5738685,19.750000190734863,11.5,19.750000190734863Q11.4261315,19.750000190734863,11.353682,19.735590190734865Q11.281233,19.721180190734863,11.212987,19.692910190734864Q11.144742,19.664640190734865,11.083322,19.623600190734862Q11.021903,19.582560190734863,10.96967,19.530330190734862Q10.917437,19.478100190734864,10.876398,19.416680190734862Q10.835359,19.355260190734864,10.80709,19.287010190734865Q10.778822,19.218770190734862,10.764410999999999,19.146320190734862Q10.75,19.073870190734862,10.75,19.000000190734863L10.75,17.300000190734863Z" fill-rule="evenodd" fill="#2882FF" fill-opacity="1" style="mix-blend-mode:passthrough"/></g><g><path d="M17.000012397766113,9.75L20.000002397766114,9.75Q20.073872397766113,9.75,20.146322397766113,9.764410999999999Q20.218762397766113,9.778822,20.287012397766112,9.80709Q20.35526239776611,9.835359,20.416672397766114,9.876398Q20.478092397766112,9.917437,20.530332397766113,9.96967Q20.582562397766115,10.021903,20.623602397766113,10.083322Q20.664642397766112,10.144742,20.692912397766115,10.212987Q20.721172397766114,10.281233,20.735592397766112,10.353682Q20.750002397766114,10.4261315,20.750002397766114,10.5Q20.750002397766114,10.5738685,20.735592397766112,10.646318Q20.721172397766114,10.718767,20.692912397766115,10.787013Q20.664642397766112,10.855258,20.623602397766113,10.916678Q20.582562397766115,10.978097,20.530332397766113,11.03033Q20.478092397766112,11.082563,20.416672397766114,11.123602Q20.35526239776611,11.164641,20.287012397766112,11.19291Q20.218762397766113,11.221178,20.146322397766113,11.235589000000001Q20.073872397766113,11.25,20.000002397766114,11.25L17.000012397766113,11.25Q16.926143897766114,11.25,16.853694397766112,11.235589000000001Q16.781245397766114,11.221178,16.71299939776611,11.19291Q16.644754397766114,11.164641,16.583334397766112,11.123602Q16.521915397766115,11.082563,16.469682397766114,11.03033Q16.417449397766113,10.978097,16.376410397766115,10.916678Q16.335371397766114,10.855258,16.307102397766112,10.787013Q16.278834397766115,10.718767,16.264423397766112,10.646318Q16.250012397766113,10.5738685,16.250012397766113,10.5Q16.250012397766113,10.4261315,16.264423397766112,10.353682Q16.278834397766115,10.281233,16.307102397766112,10.212987Q16.335371397766114,10.144742,16.376410397766115,10.083322Q16.417449397766113,10.021903,16.469682397766114,9.96967Q16.521915397766115,9.917437,16.583334397766112,9.876398Q16.644754397766114,9.835359,16.71299939776611,9.80709Q16.781245397766114,9.778822,16.853694397766112,9.764410999999999Q16.926143897766114,9.75,17.000012397766113,9.75Z" fill-rule="evenodd" fill="#2882FF" fill-opacity="1" style="mix-blend-mode:passthrough"/></g><g><path d="M3,9.75L6,9.75Q6.073869999999999,9.75,6.146319999999999,9.764410999999999Q6.21877,9.778822,6.28701,9.80709Q6.3552599999999995,9.835359,6.4166799999999995,9.876398Q6.4780999999999995,9.917437,6.53033,9.96967Q6.58256,10.021903,6.6236,10.083322Q6.66464,10.144742,6.6929099999999995,10.212987Q6.72118,10.281233,6.73559,10.353682Q6.75,10.4261315,6.75,10.5Q6.75,10.5738685,6.73559,10.646318Q6.72118,10.718767,6.6929099999999995,10.787013Q6.66464,10.855258,6.6236,10.916678Q6.58256,10.978097,6.53033,11.03033Q6.4780999999999995,11.082563,6.4166799999999995,11.123602Q6.3552599999999995,11.164641,6.28701,11.19291Q6.21877,11.221178,6.146319999999999,11.235589000000001Q6.073869999999999,11.25,6,11.25L3,11.25Q2.9261315,11.25,2.853682,11.235589000000001Q2.781233,11.221178,2.712987,11.19291Q2.644742,11.164641,2.583322,11.123602Q2.521903,11.082563,2.46967,11.03033Q2.417437,10.978097,2.376398,10.916678Q2.335359,10.855258,2.30709,10.787013Q2.278822,10.718767,2.264411,10.646318Q2.25,10.5738685,2.25,10.5Q2.25,10.4261315,2.264411,10.353682Q2.278822,10.281233,2.30709,10.212987Q2.335359,10.144742,2.376398,10.083322Q2.417437,10.021903,2.46967,9.96967Q2.521903,9.917437,2.583322,9.876398Q2.644742,9.835359,2.712987,9.80709Q2.781233,9.778822,2.853682,9.764410999999999Q2.9261315,9.75,3,9.75Z" fill-rule="evenodd" fill="#2882FF" fill-opacity="1" style="mix-blend-mode:passthrough"/></g></g><g transform="matrix(1,-4.0080045948798215e-8,4.0080045948798215e-8,1,-4.0080045948798215e-7,4.4088050543678037e-7)"><path d="M15.48551,22C15.45092,22,15.416319999999999,21.993299999999998,15.38284,21.981C15.31141,21.9531,15.25449,21.898400000000002,15.22324,21.8281L13.55582,17.97319L11.481029,19.922980000000003C11.39844,20.0011,11.276787,20.0212,11.171876,19.97655C11.0680807,19.931910000000002,11,19.828110000000002,11,19.71427L11,10.285652C11,10.171812,11.0669646,10.0691328,11.171876,10.0233733C11.275670999999999,9.9787302,11.397324,9.99881989,11.481029,10.076945L18.33821,16.47653C18.4208,16.553539999999998,18.44982,16.67296,18.41299,16.77899C18.37615,16.88613,18.28017,16.96091,18.16745,16.970950000000002L15.25784,17.220959999999998L17.00226,21.0245C17.03351,21.092599999999997,17.03686,21.1719,17.010080000000002,21.243299999999998C16.98329,21.314700000000002,16.93083,21.3716,16.86164,21.402900000000002L15.603819999999999,21.9743C15.56587,21.9911,15.526810000000001,22,15.48551,22Z" fill="#231F2E" fill-opacity="1"/><path d="M15.03862,22.9199Q15.25705,23,15.48551,23Q15.75644,23,16.01744,22.8848L17.273220000000002,22.3143Q17.75868,22.095,17.9464,21.5944Q18.13425,21.0935,17.91123,20.6077L16.759140000000002,18.09564L18.2562,17.967010000000002Q19.08748,17.89294,19.35762,17.107120000000002Q19.63241,16.31602,19.0205,15.74545L12.16335,9.345889Q11.54907,8.77257,10.77208,9.106769Q10,9.443529,10,10.285652L10,19.71427Q10,20.5611,10.780325,20.8967Q11.557323,21.2273,12.16584,20.651699999999998L13.203199999999999,19.67684L14.309429999999999,22.234299999999998Q14.5251,22.7195,15.03862,22.9199ZM17.00226,21.0245L15.700700000000001,18.186590000000002L15.25784,17.220959999999998L16.31628,17.13001L17.46684,17.03115L17.50825,17.02759L18.16745,16.970950000000002C18.28017,16.96091,18.37615,16.88613,18.41299,16.77899C18.44982,16.67296,18.4208,16.553539999999998,18.33821,16.47653L17.85444,16.02504L17.82414,15.99677L12,10.561284L11.965334,10.528931L11.481029,10.076945C11.397324,9.99881989,11.275670999999999,9.9787302,11.171876,10.0233733C11.0669646,10.0691328,11,10.171812,11,10.285652L11,19.71427C11,19.828110000000002,11.0680807,19.931910000000002,11.171876,19.97655C11.276787,20.0212,11.39844,20.0011,11.481029,19.922980000000003L11.96438,19.46875L12,19.43528L12.78117,18.701169999999998L13.55582,17.97319L13.97784,18.94887L15.22324,21.8281C15.25449,21.898400000000002,15.31141,21.9531,15.38284,21.981C15.416319999999999,21.993299999999998,15.45092,22,15.48551,22C15.526810000000001,22,15.56587,21.9911,15.603819999999999,21.9743L16.86164,21.402900000000002C16.93083,21.3716,16.98329,21.314700000000002,17.010080000000002,21.243299999999998C17.03686,21.1719,17.03351,21.092599999999997,17.00226,21.0245Z" fill-rule="evenodd" fill="#FFFFFF" fill-opacity="1"/></g></g></svg>