<svg xmlns="http://www.w3.org/2000/svg" xmlns:xlink="http://www.w3.org/1999/xlink" fill="none" version="1.1" width="24" height="24" viewBox="0 0 24 24"><defs><clipPath id="master_svg0_69_12985"><rect x="0" y="0" width="24" height="24" rx="0"/></clipPath></defs><g clip-path="url(#master_svg0_69_12985)"><g><path d="M16.999998092651367,20.25L15.999998092651367,20.25Q15.926098092651367,20.25,15.853698092651367,20.2644Q15.781198092651367,20.2788,15.712998092651366,20.3071Q15.644698092651367,20.3354,15.583298092651367,20.3764Q15.521898092651368,20.4174,15.469698092651367,20.4697Q15.417398092651368,20.5219,15.376398092651367,20.5833Q15.335398092651367,20.6447,15.307098092651367,20.713Q15.278798092651368,20.7812,15.264398092651367,20.8537Q15.249998092651367,20.9261,15.249998092651367,21Q15.249998092651367,21.0739,15.264398092651367,21.1463Q15.278798092651368,21.2188,15.307098092651367,21.287Q15.335398092651367,21.3553,15.376398092651367,21.4167Q15.417398092651368,21.4781,15.469698092651367,21.5303Q15.521898092651368,21.5826,15.583298092651367,21.6236Q15.644698092651367,21.6646,15.712998092651366,21.6929Q15.781198092651367,21.7212,15.853698092651367,21.7356Q15.926098092651367,21.75,15.999998092651367,21.75L16.999998092651367,21.75Q18.139098092651366,21.75,18.944498092651365,20.9445Q19.749998092651367,20.1391,19.749998092651367,19L19.749998092651367,8Q19.749998092651367,7.85082,19.69289809265137,7.71299Q19.635798092651367,7.57516,19.530298092651368,7.46967L14.530328092651366,2.46967Q14.424838092651367,2.364181,14.287008092651368,2.30709Q14.149188092651368,2.25,13.999998092651367,2.25L6.999998092651367,2.25Q5.8609130926513675,2.25,5.055456392651367,3.0554564Q4.2500000926513675,3.860913,4.2500000926513675,5L4.2500000926513675,19Q4.247656092651368,20.5893,5.625001092651367,21.3845Q5.799039092651367,21.485,5.999998092651367,21.485Q6.0738680926513675,21.485,6.146318092651367,21.4706Q6.218768092651367,21.4562,6.287008092651368,21.4279Q6.355258092651367,21.3996,6.416678092651367,21.3586Q6.478098092651367,21.3176,6.530328092651367,21.2653Q6.582558092651367,21.2131,6.623598092651367,21.1517Q6.6646380926513675,21.0903,6.692908092651367,21.022Q6.721178092651368,20.9538,6.735588092651367,20.8813Q6.749998092651367,20.8089,6.749998092651367,20.735Q6.749998092651367,20.6363,6.724448092651367,20.5409Q6.698888092651368,20.4455,6.649518092651367,20.36Q6.600148092651367,20.2745,6.530328092651367,20.2047Q6.460508092651367,20.1349,6.374998092651367,20.0855Q5.748934092651368,19.724,5.7500000926513675,19L5.7500000926513675,5Q5.7500000926513675,4.4822299999999995,6.116118092651368,4.1161200000000004Q6.482238092651367,3.75,6.999998092651367,3.75L13.689338092651367,3.75L18.249998092651367,8.31066L18.249998092651367,19Q18.249998092651367,19.5178,17.883898092651368,19.8839Q17.51779809265137,20.25,16.999998092651367,20.25Z" fill-rule="evenodd" fill="#231F2E" fill-opacity="1"/></g><g><path d="M9.0554565,17.0554559Q8.25,17.860912,8.25,19L8.25,21Q8.25,21.72487,8.762563,22.23744Q9.275126,22.75,10,22.75L12,22.75Q12.72487,22.75,13.23744,22.23744Q13.75,21.72487,13.75,21L13.75,19Q13.75,17.860912,12.94454,17.0554559Q12.13909,16.25,11,16.25Q9.860913,16.25,9.0554565,17.0554559ZM9.75,21L9.75,19Q9.75,18.48223,10.11612,18.11612Q10.48223,17.75,11,17.75Q11.51777,17.75,11.88388,18.11612Q12.25,18.48223,12.25,19L12.25,21Q12.25,21.25,12,21.25L10,21.25Q9.896446,21.25,9.823223,21.17678Q9.75,21.10355,9.75,21Z" fill-rule="evenodd" fill="#2882FF" fill-opacity="1"/></g><g><path d="M8,4.25L9,4.25Q9.07387,4.25,9.14632,4.264411Q9.21877,4.278822,9.28701,4.30709Q9.35526,4.335359,9.41668,4.376398Q9.4781,4.417437,9.53033,4.46967Q9.58256,4.521903,9.6236,4.583322Q9.66464,4.644742,9.69291,4.712987Q9.72118,4.781233,9.73559,4.853682Q9.75,4.9261315,9.75,5Q9.75,5.0738685,9.73559,5.146318Q9.72118,5.218767,9.69291,5.287013Q9.66464,5.355258,9.6236,5.416678Q9.58256,5.478097,9.53033,5.53033Q9.4781,5.582563,9.41668,5.623602Q9.35526,5.664641,9.28701,5.69291Q9.21877,5.721178,9.14632,5.735589Q9.07387,5.75,9,5.75L8,5.75Q7.9261315,5.75,7.853682,5.735589Q7.781233,5.721178,7.712987,5.69291Q7.644742,5.664641,7.583322,5.623602Q7.521903,5.582563,7.46967,5.53033Q7.417437,5.478097,7.376398,5.416678Q7.335359,5.355258,7.30709,5.287013Q7.278822,5.218767,7.264411,5.146318Q7.25,5.0738685,7.25,5Q7.25,4.9261315,7.264411,4.853682Q7.278822,4.781233,7.30709,4.712987Q7.335359,4.644742,7.376398,4.583322Q7.417437,4.521903,7.46967,4.46967Q7.521903,4.417437,7.583322,4.376398Q7.644742,4.335359,7.712987,4.30709Q7.781233,4.278822,7.853682,4.264411Q7.9261315,4.25,8,4.25Z" fill-rule="evenodd" fill="#2882FF" fill-opacity="1"/></g><g><path d="M14,6.25L15,6.25Q15.07387,6.25,15.14632,6.264411Q15.21877,6.278822,15.28701,6.30709Q15.35526,6.335359,15.41668,6.376398Q15.4781,6.417437,15.53033,6.46967Q15.58256,6.521903,15.6236,6.583322Q15.66464,6.644742,15.69291,6.712987Q15.72118,6.781233,15.73559,6.853682Q15.75,6.9261315,15.75,7Q15.75,7.0738685,15.73559,7.146318Q15.72118,7.218767,15.69291,7.287013Q15.66464,7.355258,15.6236,7.416678Q15.58256,7.478097,15.53033,7.53033Q15.4781,7.582563,15.41668,7.623602Q15.35526,7.664641,15.28701,7.69291Q15.21877,7.721178,15.14632,7.735589Q15.07387,7.75,15,7.75L14,7.75Q13.9261315,7.75,13.853682,7.735589Q13.781233,7.721178,13.712987,7.69291Q13.644742,7.664641,13.583322,7.623602Q13.521903,7.582563,13.46967,7.53033Q13.417437,7.478097,13.376398,7.416678Q13.335359,7.355258,13.30709,7.287013Q13.278822,7.218767,13.264410999999999,7.146318Q13.25,7.0738685,13.25,7Q13.25,6.9261315,13.264410999999999,6.853682Q13.278822,6.781233,13.30709,6.712987Q13.335359,6.644742,13.376398,6.583322Q13.417437,6.521903,13.46967,6.46967Q13.521903,6.417437,13.583322,6.376398Q13.644742,6.335359,13.712987,6.30709Q13.781233,6.278822,13.853682,6.264411Q13.9261315,6.25,14,6.25Z" fill-rule="evenodd" fill="#2882FF" fill-opacity="1"/></g><g><path d="M9,8.25L10,8.25Q10.07387,8.25,10.14632,8.264410999999999Q10.21877,8.278822,10.28701,8.30709Q10.35526,8.335359,10.41668,8.376398Q10.4781,8.417437,10.53033,8.46967Q10.58256,8.521903,10.6236,8.583322Q10.66464,8.644742,10.69291,8.712987Q10.72118,8.781233,10.73559,8.853682Q10.75,8.9261315,10.75,9Q10.75,9.0738685,10.73559,9.146318Q10.72118,9.218767,10.69291,9.287013Q10.66464,9.355258,10.6236,9.416678Q10.58256,9.478097,10.53033,9.53033Q10.4781,9.582563,10.41668,9.623602Q10.35526,9.664641,10.28701,9.69291Q10.21877,9.721178,10.14632,9.735589000000001Q10.07387,9.75,10,9.75L9,9.75Q8.9261315,9.75,8.853682,9.735589000000001Q8.781233,9.721178,8.712987,9.69291Q8.644742,9.664641,8.583322,9.623602Q8.521903,9.582563,8.46967,9.53033Q8.417437,9.478097,8.376398,9.416678Q8.335359,9.355258,8.30709,9.287013Q8.278822,9.218767,8.264410999999999,9.146318Q8.25,9.0738685,8.25,9Q8.25,8.9261315,8.264410999999999,8.853682Q8.278822,8.781233,8.30709,8.712987Q8.335359,8.644742,8.376398,8.583322Q8.417437,8.521903,8.46967,8.46967Q8.521903,8.417437,8.583322,8.376398Q8.644742,8.335359,8.712987,8.30709Q8.781233,8.278822,8.853682,8.264410999999999Q8.9261315,8.25,9,8.25Z" fill-rule="evenodd" fill="#2882FF" fill-opacity="1"/></g><g><path d="M8.5,6.25L9.5,6.25Q9.57387,6.25,9.64632,6.264411Q9.71877,6.278822,9.78701,6.30709Q9.85526,6.335359,9.91668,6.376398Q9.9781,6.417437,10.03033,6.46967Q10.08256,6.521903,10.1236,6.583322Q10.16464,6.644742,10.19291,6.712987Q10.22118,6.781233,10.23559,6.853682Q10.25,6.9261315,10.25,7Q10.25,7.0738685,10.23559,7.146318Q10.22118,7.218767,10.19291,7.287013Q10.16464,7.355258,10.1236,7.416678Q10.08256,7.478097,10.03033,7.53033Q9.9781,7.582563,9.91668,7.623602Q9.85526,7.664641,9.78701,7.69291Q9.71877,7.721178,9.64632,7.735589Q9.57387,7.75,9.5,7.75L8.5,7.75Q8.4261315,7.75,8.353682,7.735589Q8.281233,7.721178,8.212987,7.69291Q8.144742,7.664641,8.083322,7.623602Q8.021903,7.582563,7.96967,7.53033Q7.917437,7.478097,7.876398,7.416678Q7.835359,7.355258,7.80709,7.287013Q7.778822,7.218767,7.764411,7.146318Q7.75,7.0738685,7.75,7Q7.75,6.9261315,7.764411,6.853682Q7.778822,6.781233,7.80709,6.712987Q7.835359,6.644742,7.876398,6.583322Q7.917437,6.521903,7.96967,6.46967Q8.021903,6.417437,8.083322,6.376398Q8.144742,6.335359,8.212987,6.30709Q8.281233,6.278822,8.353682,6.264411Q8.4261315,6.25,8.5,6.25Z" fill-rule="evenodd" fill="#2882FF" fill-opacity="1"/></g><g><path d="M13,10.25L14,10.25Q14.07387,10.25,14.14632,10.264410999999999Q14.21877,10.278822,14.28701,10.30709Q14.35526,10.335359,14.41668,10.376398Q14.4781,10.417437,14.53033,10.46967Q14.58256,10.521903,14.6236,10.583322Q14.66464,10.644742,14.69291,10.712987Q14.72118,10.781233,14.73559,10.853682Q14.75,10.9261315,14.75,11Q14.75,11.0738685,14.73559,11.146318Q14.72118,11.218767,14.69291,11.287013Q14.66464,11.355258,14.6236,11.416678Q14.58256,11.478097,14.53033,11.53033Q14.4781,11.582563,14.41668,11.623602Q14.35526,11.664641,14.28701,11.69291Q14.21877,11.721178,14.14632,11.735589000000001Q14.07387,11.75,14,11.75L13,11.75Q12.9261315,11.75,12.853682,11.735589000000001Q12.781233,11.721178,12.712987,11.69291Q12.644742,11.664641,12.583322,11.623602Q12.521903,11.582563,12.46967,11.53033Q12.417437,11.478097,12.376398,11.416678Q12.335359,11.355258,12.30709,11.287013Q12.278822,11.218767,12.264410999999999,11.146318Q12.25,11.0738685,12.25,11Q12.25,10.9261315,12.264410999999999,10.853682Q12.278822,10.781233,12.30709,10.712987Q12.335359,10.644742,12.376398,10.583322Q12.417437,10.521903,12.46967,10.46967Q12.521903,10.417437,12.583322,10.376398Q12.644742,10.335359,12.712987,10.30709Q12.781233,10.278822,12.853682,10.264410999999999Q12.9261315,10.25,13,10.25Z" fill-rule="evenodd" fill="#2882FF" fill-opacity="1"/></g><g><path d="M13,12.25L14,12.25Q14.07387,12.25,14.14632,12.264410999999999Q14.21877,12.278822,14.28701,12.30709Q14.35526,12.335359,14.41668,12.376398Q14.4781,12.417437,14.53033,12.46967Q14.58256,12.521903,14.6236,12.583322Q14.66464,12.644742,14.69291,12.712987Q14.72118,12.781233,14.73559,12.853682Q14.75,12.9261315,14.75,13Q14.75,13.0738685,14.73559,13.146318Q14.72118,13.218767,14.69291,13.287013Q14.66464,13.355258,14.6236,13.416678Q14.58256,13.478097,14.53033,13.53033Q14.4781,13.582563,14.41668,13.623602Q14.35526,13.664641,14.28701,13.69291Q14.21877,13.721178,14.14632,13.735589000000001Q14.07387,13.75,14,13.75L13,13.75Q12.9261315,13.75,12.853682,13.735589000000001Q12.781233,13.721178,12.712987,13.69291Q12.644742,13.664641,12.583322,13.623602Q12.521903,13.582563,12.46967,13.53033Q12.417437,13.478097,12.376398,13.416678Q12.335359,13.355258,12.30709,13.287013Q12.278822,13.218767,12.264410999999999,13.146318Q12.25,13.0738685,12.25,13Q12.25,12.9261315,12.264410999999999,12.853682Q12.278822,12.781233,12.30709,12.712987Q12.335359,12.644742,12.376398,12.583322Q12.417437,12.521903,12.46967,12.46967Q12.521903,12.417437,12.583322,12.376398Q12.644742,12.335359,12.712987,12.30709Q12.781233,12.278822,12.853682,12.264410999999999Q12.9261315,12.25,13,12.25Z" fill-rule="evenodd" fill="#2882FF" fill-opacity="1"/></g><g><path d="M13.5,8.25L14.5,8.25Q14.57387,8.25,14.64632,8.264410999999999Q14.71877,8.278822,14.78701,8.30709Q14.85526,8.335359,14.91668,8.376398Q14.9781,8.417437,15.03033,8.46967Q15.08256,8.521903,15.1236,8.583322Q15.16464,8.644742,15.19291,8.712987Q15.22118,8.781233,15.23559,8.853682Q15.25,8.9261315,15.25,9Q15.25,9.0738685,15.23559,9.146318Q15.22118,9.218767,15.19291,9.287013Q15.16464,9.355258,15.1236,9.416678Q15.08256,9.478097,15.03033,9.53033Q14.9781,9.582563,14.91668,9.623602Q14.85526,9.664641,14.78701,9.69291Q14.71877,9.721178,14.64632,9.735589000000001Q14.57387,9.75,14.5,9.75L13.5,9.75Q13.4261315,9.75,13.353682,9.735589000000001Q13.281233,9.721178,13.212987,9.69291Q13.144742,9.664641,13.083322,9.623602Q13.021903,9.582563,12.96967,9.53033Q12.917437,9.478097,12.876398,9.416678Q12.835359,9.355258,12.80709,9.287013Q12.778822,9.218767,12.764410999999999,9.146318Q12.75,9.0738685,12.75,9Q12.75,8.9261315,12.764410999999999,8.853682Q12.778822,8.781233,12.80709,8.712987Q12.835359,8.644742,12.876398,8.583322Q12.917437,8.521903,12.96967,8.46967Q13.021903,8.417437,13.083322,8.376398Q13.144742,8.335359,13.212987,8.30709Q13.281233,8.278822,13.353682,8.264410999999999Q13.4261315,8.25,13.5,8.25Z" fill-rule="evenodd" fill="#2882FF" fill-opacity="1"/></g><g><path d="M10,12.25L11,12.25Q11.07387,12.25,11.14632,12.264410999999999Q11.21877,12.278822,11.28701,12.30709Q11.35526,12.335359,11.41668,12.376398Q11.4781,12.417437,11.53033,12.46967Q11.58256,12.521903,11.6236,12.583322Q11.66464,12.644742,11.69291,12.712987Q11.72118,12.781233,11.73559,12.853682Q11.75,12.9261315,11.75,13Q11.75,13.0738685,11.73559,13.146318Q11.72118,13.218767,11.69291,13.287013Q11.66464,13.355258,11.6236,13.416678Q11.58256,13.478097,11.53033,13.53033Q11.4781,13.582563,11.41668,13.623602Q11.35526,13.664641,11.28701,13.69291Q11.21877,13.721178,11.14632,13.735589000000001Q11.07387,13.75,11,13.75L10,13.75Q9.9261315,13.75,9.853682,13.735589000000001Q9.781233,13.721178,9.712987,13.69291Q9.644742,13.664641,9.583322,13.623602Q9.521903,13.582563,9.46967,13.53033Q9.417437,13.478097,9.376398,13.416678Q9.335359,13.355258,9.30709,13.287013Q9.278822,13.218767,9.264410999999999,13.146318Q9.25,13.0738685,9.25,13Q9.25,12.9261315,9.264410999999999,12.853682Q9.278822,12.781233,9.30709,12.712987Q9.335359,12.644742,9.376398,12.583322Q9.417437,12.521903,9.46967,12.46967Q9.521903,12.417437,9.583322,12.376398Q9.644742,12.335359,9.712987,12.30709Q9.781233,12.278822,9.853682,12.264410999999999Q9.9261315,12.25,10,12.25Z" fill-rule="evenodd" fill="#2882FF" fill-opacity="1"/></g><g><path d="M9.5,10.25L10.5,10.25Q10.57387,10.25,10.64632,10.264410999999999Q10.71877,10.278822,10.78701,10.30709Q10.85526,10.335359,10.91668,10.376398Q10.9781,10.417437,11.03033,10.46967Q11.08256,10.521903,11.1236,10.583322Q11.16464,10.644742,11.19291,10.712987Q11.22118,10.781233,11.23559,10.853682Q11.25,10.9261315,11.25,11Q11.25,11.0738685,11.23559,11.146318Q11.22118,11.218767,11.19291,11.287013Q11.16464,11.355258,11.1236,11.416678Q11.08256,11.478097,11.03033,11.53033Q10.9781,11.582563,10.91668,11.623602Q10.85526,11.664641,10.78701,11.69291Q10.71877,11.721178,10.64632,11.735589000000001Q10.57387,11.75,10.5,11.75L9.5,11.75Q9.4261315,11.75,9.353682,11.735589000000001Q9.281233,11.721178,9.212987,11.69291Q9.144742,11.664641,9.083322,11.623602Q9.021903,11.582563,8.96967,11.53033Q8.917437,11.478097,8.876398,11.416678Q8.835359,11.355258,8.80709,11.287013Q8.778822,11.218767,8.764410999999999,11.146318Q8.75,11.0738685,8.75,11Q8.75,10.9261315,8.764410999999999,10.853682Q8.778822,10.781233,8.80709,10.712987Q8.835359,10.644742,8.876398,10.583322Q8.917437,10.521903,8.96967,10.46967Q9.021903,10.417437,9.083322,10.376398Q9.144742,10.335359,9.212987,10.30709Q9.281233,10.278822,9.353682,10.264410999999999Q9.4261315,10.25,9.5,10.25Z" fill-rule="evenodd" fill="#2882FF" fill-opacity="1"/></g><g><path d="M11.5,14.25L12.5,14.25Q12.57387,14.25,12.64632,14.264410999999999Q12.71877,14.278822,12.78701,14.30709Q12.85526,14.335359,12.91668,14.376398Q12.9781,14.417437,13.03033,14.46967Q13.08256,14.521903,13.1236,14.583322Q13.16464,14.644742,13.19291,14.712987Q13.22118,14.781233,13.23559,14.853682Q13.25,14.9261315,13.25,15Q13.25,15.0738685,13.23559,15.146318Q13.22118,15.218767,13.19291,15.287013Q13.16464,15.355258,13.1236,15.416678Q13.08256,15.478097,13.03033,15.53033Q12.9781,15.582563,12.91668,15.623602Q12.85526,15.664641,12.78701,15.69291Q12.71877,15.721178,12.64632,15.735589000000001Q12.57387,15.75,12.5,15.75L11.5,15.75Q11.4261315,15.75,11.353682,15.735589000000001Q11.281233,15.721178,11.212987,15.69291Q11.144742,15.664641,11.083322,15.623602Q11.021903,15.582563,10.96967,15.53033Q10.917437,15.478097,10.876398,15.416678Q10.835359,15.355258,10.80709,15.287013Q10.778822,15.218767,10.764410999999999,15.146318Q10.75,15.0738685,10.75,15Q10.75,14.9261315,10.764410999999999,14.853682Q10.778822,14.781233,10.80709,14.712987Q10.835359,14.644742,10.876398,14.583322Q10.917437,14.521903,10.96967,14.46967Q11.021903,14.417437,11.083322,14.376398Q11.144742,14.335359,11.212987,14.30709Q11.281233,14.278822,11.353682,14.264410999999999Q11.4261315,14.25,11.5,14.25Z" fill-rule="evenodd" fill="#2882FF" fill-opacity="1"/></g></g></svg>