<svg xmlns="http://www.w3.org/2000/svg" xmlns:xlink="http://www.w3.org/1999/xlink" fill="none" version="1.1" width="24" height="24" viewBox="0 0 24 24"><defs><clipPath id="master_svg0_69_00848"><rect x="0" y="0" width="24" height="24" rx="0"/></clipPath></defs><g clip-path="url(#master_svg0_69_00848)"><g><path d="M2.75,3.5Q2.75,3.4261315,2.764411,3.353682Q2.778822,3.281233,2.80709,3.212987Q2.835359,3.144742,2.876398,3.083322Q2.917437,3.021903,2.96967,2.96967Q3.021903,2.917437,3.083322,2.876398Q3.144742,2.835359,3.212987,2.80709Q3.281233,2.778822,3.353682,2.764411Q3.4261315,2.75,3.5,2.75Q3.5738685,2.75,3.646318,2.764411Q3.718767,2.778822,3.787013,2.80709Q3.855258,2.835359,3.916678,2.876398Q3.978097,2.917437,4.03033,2.96967Q4.082563,3.021903,4.123602,3.083322Q4.164641,3.144742,4.19291,3.212987Q4.221178,3.281233,4.235589,3.353682Q4.25,3.4261315,4.25,3.5L4.25,16.5Q4.25,17.0178,4.6161200000000004,17.3839Q4.9822299999999995,17.75,5.5,17.75L22.5,17.75Q22.5739,17.75,22.6463,17.764400000000002Q22.7188,17.7788,22.787,17.8071Q22.8553,17.8354,22.9167,17.8764Q22.9781,17.9174,23.0303,17.9697Q23.0826,18.021900000000002,23.1236,18.0833Q23.1646,18.1447,23.1929,18.213Q23.2212,18.2812,23.2356,18.3537Q23.25,18.426099999999998,23.25,18.5Q23.25,18.573900000000002,23.2356,18.6463Q23.2212,18.7188,23.1929,18.787Q23.1646,18.8553,23.1236,18.9167Q23.0826,18.978099999999998,23.0303,19.0303Q22.9781,19.0826,22.9167,19.1236Q22.8553,19.1646,22.787,19.1929Q22.7188,19.2212,22.6463,19.235599999999998Q22.5739,19.25,22.5,19.25L22.4983,19.25L5.5,19.25Q4.360912,19.25,3.555457,18.444499999999998Q2.75,17.6391,2.75,16.5L2.75,3.5Z" fill-rule="evenodd" fill="#231F2E" fill-opacity="1"/></g><g><path d="M1.5,4.75L18.5,4.75Q19.6391,4.75,20.4445,5.5554564Q21.25,6.360911,21.25,7.5L21.25,20.5Q21.25,20.573900000000002,21.2356,20.6463Q21.2212,20.7188,21.1929,20.787Q21.1646,20.8553,21.1236,20.9167Q21.0826,20.978099999999998,21.0303,21.0303Q20.9781,21.0826,20.9167,21.1236Q20.8553,21.1646,20.787,21.1929Q20.7188,21.2212,20.6463,21.235599999999998Q20.5739,21.25,20.5,21.25Q20.4261,21.25,20.3537,21.235599999999998Q20.2812,21.2212,20.213,21.1929Q20.1447,21.1646,20.0833,21.1236Q20.0219,21.0826,19.9697,21.0303Q19.9174,20.978099999999998,19.8764,20.9167Q19.8354,20.8553,19.8071,20.787Q19.7788,20.7188,19.7644,20.6463Q19.75,20.573900000000002,19.75,20.5L19.75,20.4983L19.75,7.5Q19.75,6.9822299999999995,19.3839,6.6161200000000004Q19.0178,6.25,18.5,6.25L1.5,6.25Q1.4261314999999999,6.25,1.353682,6.235589Q1.281233,6.221178,1.212987,6.19291Q1.144742,6.164641,1.083322,6.123602Q1.021903,6.082563,0.96967,6.03033Q0.917437,5.978097,0.876398,5.916678Q0.835359,5.855258,0.80709,5.787013Q0.778822,5.718767,0.764411,5.646318Q0.75,5.5738685,0.75,5.5Q0.75,5.4261315,0.764411,5.353682Q0.778822,5.281233,0.80709,5.212987Q0.835359,5.144742,0.876398,5.083322Q0.917437,5.021903,0.96967,4.96967Q1.021903,4.917437,1.083322,4.876398Q1.144742,4.835359,1.212987,4.80709Q1.281233,4.778822,1.353682,4.764411Q1.4261314999999999,4.75,1.5,4.75Z" fill-rule="evenodd" fill="#231F2E" fill-opacity="1"/></g><g><g><path d="M11.09099,12.9090094Q10.43198,12.25,9.5,12.25Q8.568019,12.25,7.9090098,12.9090094Q7.25,13.568019,7.25,14.5Q7.25,15.43198,7.9090099,16.09099Q8.568019,16.75,9.5,16.75Q10.43198,16.75,11.09099,16.09099Q11.75,15.43198,11.75,14.5Q11.75,13.568019,11.09099,12.9090094ZM8.96967,13.96967Q9.18934,13.75,9.5,13.75Q9.81066,13.75,10.03033,13.96967Q10.25,14.18934,10.25,14.5Q10.25,14.81066,10.03033,15.03033Q9.81066,15.25,9.5,15.25Q9.18934,15.25,8.96967,15.03033Q8.75,14.81066,8.75,14.5Q8.75,14.18934,8.96967,13.96967Z" fill-rule="evenodd" fill="#2882FF" fill-opacity="1"/></g><g><path d="M16.09099,12.9090094Q15.43198,12.25,14.5,12.25Q13.568019,12.25,12.9090098,12.9090094Q12.25,13.568019,12.25,14.5Q12.25,15.43198,12.9090099,16.09099Q13.568019,16.75,14.5,16.75Q15.43198,16.75,16.09099,16.09099Q16.75,15.43198,16.75,14.5Q16.75,13.568019,16.09099,12.9090094ZM13.96967,13.96967Q14.18934,13.75,14.5,13.75Q14.81066,13.75,15.03033,13.96967Q15.25,14.18934,15.25,14.5Q15.25,14.81066,15.03033,15.03033Q14.81066,15.25,14.5,15.25Q14.18934,15.25,13.96967,15.03033Q13.75,14.81066,13.75,14.5Q13.75,14.18934,13.96967,13.96967Z" fill-rule="evenodd" fill="#2882FF" fill-opacity="1"/></g><g><path d="M15.58119220703125,8.474053Q15.66308220703125,8.373657,15.706552207031251,8.251607Q15.75001220703125,8.129558,15.75001220703125,8Q15.75001220703125,7.9261315,15.73560220703125,7.853682Q15.721192207031251,7.781233,15.69292220703125,7.712987Q15.66465220703125,7.644742,15.62361220703125,7.583322Q15.58257220703125,7.521903,15.53034220703125,7.46967Q15.47811220703125,7.417437,15.41669220703125,7.376398Q15.35527220703125,7.335359,15.28702220703125,7.30709Q15.21878220703125,7.278822,15.14633220703125,7.264411Q15.07388220703125,7.25,15.00001220703125,7.25Q14.83100220703125,7.25,14.67833220703125,7.32249Q14.52565220703125,7.39498,14.418832207031251,7.525947L9.99382920703125,12.950949999999999Q9.91193920703125,13.05134,9.86847620703125,13.173390000000001Q9.82501220703125,13.29544,9.82501220703125,13.425Q9.82501220703125,13.49887,9.839423207031249,13.57132Q9.85383420703125,13.64377,9.88210220703125,13.71201Q9.91037120703125,13.78026,9.95141020703125,13.84168Q9.99244920703125,13.9031,10.04468220703125,13.95533Q10.09691520703125,14.00756,10.15833420703125,14.0486Q10.21975420703125,14.08964,10.28799920703125,14.11791Q10.35624520703125,14.146180000000001,10.42869420703125,14.16059Q10.50114370703125,14.175,10.57501220703125,14.175Q10.74402120703125,14.175,10.89669620703125,14.102509999999999Q11.04937020703125,14.03002,11.15619520703125,13.899049999999999L11.15655020703125,13.898620000000001L15.58119220703125,8.474053L15.58119220703125,8.474053Z" fill-rule="evenodd" fill="#2882FF" fill-opacity="1"/></g><g><path d="M9.58134,7.526139L14.00618,12.950949999999999Q14.08807,13.05134,14.131540000000001,13.173390000000001Q14.175,13.29544,14.175,13.425Q14.175,13.49887,14.16059,13.57132Q14.146180000000001,13.64377,14.11791,13.71201Q14.08964,13.78026,14.0486,13.84168Q14.00756,13.9031,13.95533,13.95533Q13.9031,14.00756,13.84168,14.0486Q13.78026,14.08964,13.71201,14.11791Q13.64377,14.146180000000001,13.57132,14.16059Q13.49887,14.175,13.425,14.175Q13.25599,14.175,13.10332,14.102509999999999Q12.95064,14.03002,12.843820000000001,13.899049999999999L12.84361,13.8988L8.418973,8.474245L8.418817,8.474053Q8.336927,8.373657,8.293464,8.251607Q8.25,8.129558,8.25,8Q8.25,7.9261315,8.264410999999999,7.853682Q8.278822,7.781233,8.30709,7.712987Q8.335359,7.644742,8.376398,7.583322Q8.417437,7.521903,8.46967,7.46967Q8.521903,7.417437,8.583322,7.376398Q8.644742,7.335359,8.712987,7.30709Q8.781233,7.278822,8.853682,7.264411Q8.9261315,7.25,9,7.25Q9.169009,7.25,9.321683,7.32249Q9.474357,7.39498,9.581183,7.525947L9.58134,7.526139Z" fill-rule="evenodd" fill="#2882FF" fill-opacity="1"/></g></g></g></svg>