<svg xmlns="http://www.w3.org/2000/svg" xmlns:xlink="http://www.w3.org/1999/xlink" fill="none" version="1.1" width="24" height="24" viewBox="0 0 24 24"><defs><clipPath id="master_svg0_74_02113"><rect x="0" y="0" width="24" height="24" rx="0"/></clipPath></defs><g clip-path="url(#master_svg0_74_02113)"><g><path d="M21.651653269958498,17.651699999999998Q22.750053269958496,16.5533,22.750053269958496,15L22.750053269958496,9Q22.750053269958496,7.4467,21.651653269958498,6.34835Q20.553353269958496,5.25,19.000053269958496,5.25L4.999973269958496,5.25Q3.446663269958496,5.25,2.3483112699584963,6.348356Q1.2499602699584962,7.4467099999999995,1.249968269958496,9.00002L1.249997269958496,15.00002Q1.2500052699584963,16.5533,2.348354269958496,17.651699999999998Q3.446703269958496,18.75,5.000003269958496,18.75L19.000053269958496,18.75Q20.553353269958496,18.75,21.651653269958498,17.651699999999998ZM21.250053269958496,9L21.250053269958496,15Q21.250053269958496,15.93198,20.590953269958497,16.591Q19.931953269958495,17.25,19.000053269958496,17.25L5.000003269958496,17.25Q4.068023269958497,17.25,3.4090132699584963,16.591Q2.750002269958496,15.93199,2.749997269958496,15.00001L2.749968269958496,9.00001Q2.749963269958496,8.06803,3.408973269958496,7.40901Q4.067983269958496,6.75,4.999973269958496,6.75L19.000053269958496,6.75Q19.931953269958495,6.75,20.590953269958497,7.40901Q21.250053269958496,8.06802,21.250053269958496,9Z" fill-rule="evenodd" fill="#231F2E" fill-opacity="1"/></g><g><path d="M5,10.0100002L5,10L5,10.0100002ZM6,11.01Q6.0984914,11.01,6.19509,10.990785Q6.291689,10.971571,6.382683,10.93388Q6.473678,10.896189,6.55557,10.84147Q6.637463,10.786751,6.707107,10.717107Q6.776751,10.647463,6.83147,10.56557Q6.886188,10.483678,6.923879,10.392684Q6.96157,10.301689,6.980785,10.205091Q7,10.108492,7,10.0100002L5,10.0100002Q5,10.108492,5.019215,10.205091Q5.03843,10.301689,5.076121,10.392684Q5.113812,10.483678,5.16853,10.56557Q5.223249,10.647463,5.292893,10.717107Q5.362537,10.786751,5.44443,10.84147Q5.526322,10.896189,5.617317,10.93388Q5.708311,10.971571,5.80491,10.990785Q5.9015086,11.01,6,11.01Z" fill-rule="evenodd" fill="#231F2E" fill-opacity="1"/></g><g><path d="M9,10.0100002L9,10L9,10.0100002ZM10,11.01Q10.0984914,11.01,10.19509,10.990785Q10.291689,10.971571,10.382683,10.93388Q10.473678,10.896189,10.55557,10.84147Q10.637463,10.786751,10.707107,10.717107Q10.776751,10.647463,10.83147,10.56557Q10.886188,10.483678,10.923879,10.392684Q10.96157,10.301689,10.980785000000001,10.205091Q11,10.108492,11,10.0100002L9,10.0100002Q9,10.108492,9.019214999999999,10.205091Q9.03843,10.301689,9.076121,10.392684Q9.113812,10.483678,9.16853,10.56557Q9.223249,10.647463,9.292893,10.717107Q9.362537,10.786751,9.44443,10.84147Q9.526322,10.896189,9.617317,10.93388Q9.708311,10.971571,9.80491,10.990785Q9.9015086,11.01,10,11.01Z" fill-rule="evenodd" fill="#231F2E" fill-opacity="1"/></g><g><path d="M13,10.0100002L13,10L13,10.0100002ZM14,11.01Q14.0984914,11.01,14.19509,10.990785Q14.291689,10.971571,14.382683,10.93388Q14.473678,10.896189,14.55557,10.84147Q14.637463,10.786751,14.707107,10.717107Q14.776751,10.647463,14.83147,10.56557Q14.886188,10.483678,14.923879,10.392684Q14.96157,10.301689,14.980785000000001,10.205091Q15,10.108492,15,10.0100002L13,10.0100002Q13,10.108492,13.019214999999999,10.205091Q13.03843,10.301689,13.076121,10.392684Q13.113812,10.483678,13.16853,10.56557Q13.223249,10.647463,13.292893,10.717107Q13.362537,10.786751,13.44443,10.84147Q13.526322,10.896189,13.617317,10.93388Q13.708311,10.971571,13.80491,10.990785Q13.9015086,11.01,14,11.01Z" fill-rule="evenodd" fill="#231F2E" fill-opacity="1"/></g><g><path d="M17,10.0100002L17,10L17,10.0100002ZM18,11.01Q18.0984914,11.01,18.19509,10.990785Q18.291689,10.971571,18.382683,10.93388Q18.473678,10.896189,18.55557,10.84147Q18.637463,10.786751,18.707107,10.717107Q18.776751,10.647463,18.83147,10.56557Q18.886188,10.483678,18.923879,10.392684Q18.961570000000002,10.301689,18.980785,10.205091Q19,10.108492,19,10.0100002L17,10.0100002Q17,10.108492,17.019215,10.205091Q17.038429999999998,10.301689,17.076121,10.392684Q17.113812,10.483678,17.16853,10.56557Q17.223249,10.647463,17.292893,10.717107Q17.362537,10.786751,17.44443,10.84147Q17.526322,10.896189,17.617317,10.93388Q17.708311,10.971571,17.80491,10.990785Q17.9015086,11.01,18,11.01Z" fill-rule="evenodd" fill="#231F2E" fill-opacity="1"/></g><g><path d="M5,14.0100002L5,14L5,14.0100002ZM6,15.01Q6.0984914,15.01,6.19509,14.990785Q6.291689,14.971571,6.382683,14.93388Q6.473678,14.896189,6.55557,14.84147Q6.637463,14.786751,6.707107,14.717107Q6.776751,14.647463,6.83147,14.56557Q6.886188,14.483678,6.923879,14.392684Q6.96157,14.301689,6.980785,14.205091Q7,14.108492,7,14.0100002L5,14.0100002Q5,14.108492,5.019215,14.205091Q5.03843,14.301689,5.076121,14.392684Q5.113812,14.483678,5.16853,14.56557Q5.223249,14.647463,5.292893,14.717107Q5.362537,14.786751,5.44443,14.84147Q5.526322,14.896189,5.617317,14.93388Q5.708311,14.971571,5.80491,14.990785Q5.9015086,15.01,6,15.01Z" fill-rule="evenodd" fill="#231F2E" fill-opacity="1"/></g><g><path d="M17,14.0100002L17,14L17,14.0100002ZM18,15.01Q18.0984914,15.01,18.19509,14.990785Q18.291689,14.971571,18.382683,14.93388Q18.473678,14.896189,18.55557,14.84147Q18.637463,14.786751,18.707107,14.717107Q18.776751,14.647463,18.83147,14.56557Q18.886188,14.483678,18.923879,14.392684Q18.961570000000002,14.301689,18.980785,14.205091Q19,14.108492,19,14.0100002L17,14.0100002Q17,14.108492,17.019215,14.205091Q17.038429999999998,14.301689,17.076121,14.392684Q17.113812,14.483678,17.16853,14.56557Q17.223249,14.647463,17.292893,14.717107Q17.362537,14.786751,17.44443,14.84147Q17.526322,14.896189,17.617317,14.93388Q17.708311,14.971571,17.80491,14.990785Q17.9015086,15.01,18,15.01Z" fill-rule="evenodd" fill="#231F2E" fill-opacity="1"/></g><g><path d="M10.00250005,13.000003L14,13.009997L14.002500000000001,13.010003Q14.10083,13.010249,14.19724,13.029644Q14.29364,13.049039,14.38442,13.08684Q14.47519,13.124641,14.55687,13.1794Q14.63855,13.234159,14.707989999999999,13.303778Q14.77744,13.373397,14.831990000000001,13.45521Q14.88655,13.537022,14.92412,13.627894Q14.96169,13.718766,14.98085,13.815216Q15,13.9116666,15,14.0100002Q15,14.108492,14.98078,14.205091Q14.96157,14.301689,14.92388,14.392684Q14.88619,14.483678,14.83147,14.56557Q14.77675,14.647463,14.70711,14.717107Q14.63746,14.786751,14.55557,14.84147Q14.47368,14.896189,14.38268,14.93388Q14.29169,14.971571,14.19509,14.990785Q14.09849,15.01,14,15.01L13.9975,15.01L10,15L9.99749995,14.999997Q9.899167,14.999751,9.802765,14.980356Q9.706363,14.960961,9.615585,14.92316Q9.524807,14.88536,9.443131,14.830601Q9.361455,14.775842,9.29201,14.706222Q9.222564,14.636603000000001,9.16801,14.554791Q9.113455,14.472978,9.075881,14.382106Q9.038308,14.291234,9.019154,14.194784Q9,14.0983336,9,14Q9,13.9015086,9.019214999999999,13.80491Q9.03843,13.708311,9.076121,13.617317Q9.113812,13.526322,9.16853,13.44443Q9.223249,13.362537,9.292893,13.292893Q9.362537,13.223249,9.44443,13.16853Q9.526322,13.113812,9.617317,13.076121Q9.708311,13.03843,9.80491,13.019214999999999Q9.9015086,13,10,13L10.00250005,13.000003Z" fill-rule="evenodd" fill="#2882FF" fill-opacity="1"/></g></g></svg>