<svg xmlns="http://www.w3.org/2000/svg" xmlns:xlink="http://www.w3.org/1999/xlink" fill="none" version="1.1" width="24" height="24" viewBox="0 0 24 24"><defs><clipPath id="master_svg0_74_02172"><rect x="0" y="0" width="24" height="24" rx="0"/></clipPath></defs><g clip-path="url(#master_svg0_74_02172)"><g><g transform="matrix(1,-4.0080045948798215e-8,4.0080045948798215e-8,1,-3.9935959428305523e-7,4.4271277843677126e-7)"><path d="M15.53122533203125,21.96405029296875C15.49663533203125,21.96405029296875,15.462035332031249,21.957350292968748,15.42855533203125,21.94505029296875C15.35712533203125,21.91715029296875,15.30020533203125,21.862450292968752,15.26895533203125,21.79215029296875L13.60153533203125,17.93724029296875L11.52674433203125,19.887030292968753C11.44415533203125,19.96515029296875,11.32250233203125,19.98525029296875,11.21759133203125,19.94060029296875C11.11379603203125,19.895960292968752,11.04571533203125,19.792160292968752,11.04571533203125,19.67832029296875L11.04571533203125,10.24970229296875C11.04571533203125,10.13586229296875,11.11267993203125,10.03318309296875,11.21759133203125,9.98742359296875C11.321386332031249,9.94278049296875,11.44303933203125,9.96287018296875,11.52674433203125,10.04099529296875L18.38392533203125,16.44058029296875C18.46651533203125,16.517590292968748,18.49553533203125,16.63701029296875,18.45870533203125,16.74304029296875C18.42186533203125,16.85018029296875,18.32588533203125,16.92496029296875,18.21316533203125,16.935000292968752L15.30355533203125,17.185010292968748L17.04797533203125,20.98855029296875C17.07922533203125,21.056650292968747,17.08257533203125,21.13595029296875,17.055795332031252,21.207350292968748C17.02900533203125,21.278750292968752,16.97654533203125,21.33565029296875,16.90735533203125,21.366950292968752L15.649535332031249,21.93835029296875C15.61158533203125,21.95515029296875,15.572525332031251,21.96405029296875,15.53122533203125,21.96405029296875Z" fill="#231F2E" fill-opacity="1"/></g><g><g><path d="M10.75,2.5Q10.75,2.4261315,10.764410999999999,2.353682Q10.778822,2.281233,10.80709,2.212987Q10.835359,2.144742,10.876398,2.083322Q10.917437,2.021903,10.96967,1.96967Q11.021903,1.917437,11.083322,1.876398Q11.144742,1.835359,11.212987,1.80709Q11.281233,1.778822,11.353682,1.764411Q11.4261315,1.75,11.5,1.75Q11.5738685,1.75,11.646318,1.764411Q11.718767,1.778822,11.787013,1.80709Q11.855258,1.835359,11.916678,1.876398Q11.978097,1.917437,12.03033,1.96967Q12.082563,2.021903,12.123602,2.083322Q12.164641,2.144742,12.19291,2.212987Q12.221178,2.281233,12.235589000000001,2.353682Q12.25,2.4261315,12.25,2.5L12.25,6.5Q12.25,6.57387,12.235589000000001,6.64632Q12.221178,6.71877,12.19291,6.78701Q12.164641,6.85526,12.123602,6.91668Q12.082563,6.9781,12.03033,7.03033Q11.978097,7.08256,11.916678,7.1236Q11.855258,7.16464,11.787013,7.19291Q11.718767,7.22118,11.646318,7.23559Q11.5738685,7.25,11.5,7.25Q11.4261315,7.25,11.353682,7.23559Q11.281233,7.22118,11.212987,7.19291Q11.144742,7.16464,11.083322,7.1236Q11.021903,7.08256,10.96967,7.03033Q10.917437,6.9781,10.876398,6.91668Q10.835359,6.85526,10.80709,6.78701Q10.778822,6.71877,10.764410999999999,6.64632Q10.75,6.57387,10.75,6.5L10.75,2.5Z" fill-rule="evenodd" fill="#2882FF" fill-opacity="1"/></g><g transform="matrix(0.7071067690849304,0.7071067690849304,-0.7071067690849304,0.7071067690849304,8.44965877301729,-10.713245024999196)"><path d="M16.4068603515625,4.843017578125Q16.4068603515625,4.769149078125,16.4212713515625,4.696699578125Q16.4356823515625,4.624250578125,16.4639503515625,4.556004578125Q16.4922193515625,4.487759578125,16.533258351562502,4.426339578125Q16.5742973515625,4.364920578125,16.6265303515625,4.312687578125Q16.678763351562502,4.260454578125,16.7401823515625,4.219415578125Q16.8016023515625,4.178376578125,16.8698473515625,4.150107578125Q16.9380933515625,4.121839578125,17.0105423515625,4.107428578125Q17.0829918515625,4.093017578125,17.1568603515625,4.093017578125Q17.2307288515625,4.093017578125,17.3031783515625,4.107428578125Q17.3756273515625,4.121839578125,17.4438733515625,4.150107578125Q17.5121183515625,4.178376578125,17.5735383515625,4.219415578125Q17.634957351562498,4.260454578125,17.6871903515625,4.312687578125Q17.7394233515625,4.364920578125,17.780462351562498,4.426339578125Q17.8215013515625,4.487759578125,17.8497703515625,4.556004578125Q17.8780383515625,4.624250578125,17.8924493515625,4.696699578125Q17.9068603515625,4.769149078125,17.9068603515625,4.843017578125L17.9068603515625,8.843017578125Q17.9068603515625,8.916887578125,17.8924493515625,8.989337578125Q17.8780383515625,9.061787578125,17.8497703515625,9.130027578125Q17.8215013515625,9.198277578125001,17.780462351562498,9.259697578125Q17.7394233515625,9.321117578125001,17.6871903515625,9.373347578125Q17.634957351562498,9.425577578125,17.5735383515625,9.466617578125Q17.5121183515625,9.507657578125,17.4438733515625,9.535927578125001Q17.3756273515625,9.564197578125,17.3031783515625,9.578607578125Q17.2307288515625,9.593017578125,17.1568603515625,9.593017578125Q17.0829918515625,9.593017578125,17.0105423515625,9.578607578125Q16.9380933515625,9.564197578125,16.8698473515625,9.535927578125001Q16.8016023515625,9.507657578125,16.7401823515625,9.466617578125Q16.678763351562502,9.425577578125,16.6265303515625,9.373347578125Q16.5742973515625,9.321117578125001,16.533258351562502,9.259697578125Q16.4922193515625,9.198277578125001,16.4639503515625,9.130027578125Q16.4356823515625,9.061787578125,16.4212713515625,8.989337578125Q16.4068603515625,8.916887578125,16.4068603515625,8.843017578125L16.4068603515625,4.843017578125Z" fill-rule="evenodd" fill="#2882FF" fill-opacity="1"/></g><g transform="matrix(0,1,-1,0,30.00006103515625,-9.00006103515625)"><path d="M18.75006103515625,10.5Q18.75006103515625,10.4261315,18.76447203515625,10.353682Q18.77888303515625,10.281233,18.80715103515625,10.212987Q18.83542003515625,10.144742,18.876459035156252,10.083322Q18.91749803515625,10.021903,18.96973103515625,9.96967Q19.021964035156252,9.917437,19.08338303515625,9.876398Q19.14480303515625,9.835359,19.21304803515625,9.80709Q19.28129403515625,9.778822,19.35374303515625,9.764410999999999Q19.42619253515625,9.75,19.50006103515625,9.75Q19.57392953515625,9.75,19.64637903515625,9.764410999999999Q19.71882803515625,9.778822,19.78707403515625,9.80709Q19.85531903515625,9.835359,19.91673903515625,9.876398Q19.978158035156248,9.917437,20.03039103515625,9.96967Q20.08262403515625,10.021903,20.123663035156248,10.083322Q20.16470203515625,10.144742,20.19297103515625,10.212987Q20.22123903515625,10.281233,20.23565003515625,10.353682Q20.25006103515625,10.4261315,20.25006103515625,10.5L20.25006103515625,14.5Q20.25006103515625,14.57387,20.23565003515625,14.64632Q20.22123903515625,14.71877,20.19297103515625,14.78701Q20.16470203515625,14.855260000000001,20.123663035156248,14.91668Q20.08262403515625,14.978100000000001,20.03039103515625,15.03033Q19.978158035156248,15.08256,19.91673903515625,15.1236Q19.85531903515625,15.16464,19.78707403515625,15.192910000000001Q19.71882803515625,15.22118,19.64637903515625,15.23559Q19.57392953515625,15.25,19.50006103515625,15.25Q19.42619253515625,15.25,19.35374303515625,15.23559Q19.28129403515625,15.22118,19.21304803515625,15.192910000000001Q19.14480303515625,15.16464,19.08338303515625,15.1236Q19.021964035156252,15.08256,18.96973103515625,15.03033Q18.91749803515625,14.978100000000001,18.876459035156252,14.91668Q18.83542003515625,14.855260000000001,18.80715103515625,14.78701Q18.77888303515625,14.71877,18.76447203515625,14.64632Q18.75006103515625,14.57387,18.75006103515625,14.5L18.75006103515625,10.5Z" fill-rule="evenodd" fill="#2882FF" fill-opacity="1"/></g><g transform="matrix(-0.7071068286895752,-0.7071067094802856,0.7071067094802856,-0.7071068286895752,-1.4495523768273415,31.713296202913625)"><path d="M5.09326171875,16.1568603515625Q5.09326171875,16.0829918515625,5.10767271875,16.0105423515625Q5.12208371875,15.9380933515625,5.15035171875,15.8698473515625Q5.17862071875,15.8016023515625,5.21965971875,15.7401823515625Q5.26069871875,15.6787633515625,5.31293171875,15.6265303515625Q5.36516471875,15.5742973515625,5.42658371875,15.5332583515625Q5.48800371875,15.4922193515625,5.55624871875,15.4639503515625Q5.62449471875,15.4356823515625,5.69694371875,15.421271351562499Q5.76939321875,15.4068603515625,5.84326171875,15.4068603515625Q5.91713021875,15.4068603515625,5.98957971875,15.421271351562499Q6.06202871875,15.4356823515625,6.13027471875,15.4639503515625Q6.19851971875,15.4922193515625,6.25993971875,15.5332583515625Q6.32135871875,15.5742973515625,6.37359171875,15.6265303515625Q6.42582471875,15.6787633515625,6.46686371875,15.7401823515625Q6.50790271875,15.8016023515625,6.53617171875,15.8698473515625Q6.56443971875,15.9380933515625,6.57885071875,16.0105423515625Q6.59326171875,16.0829918515625,6.59326171875,16.1568603515625L6.59326171875,20.1568603515625Q6.59326171875,20.2307303515625,6.57885071875,20.3031803515625Q6.56443971875,20.3756303515625,6.53617171875,20.443870351562502Q6.50790271875,20.5121203515625,6.46686371875,20.5735403515625Q6.42582471875,20.6349603515625,6.37359171875,20.6871903515625Q6.32135871875,20.7394203515625,6.25993971875,20.7804603515625Q6.19851971875,20.8215003515625,6.13027471875,20.8497703515625Q6.06202871875,20.8780403515625,5.98957971875,20.892450351562502Q5.91713021875,20.9068603515625,5.84326171875,20.9068603515625Q5.76939321875,20.9068603515625,5.69694371875,20.892450351562502Q5.62449471875,20.8780403515625,5.55624871875,20.8497703515625Q5.48800371875,20.8215003515625,5.42658371875,20.7804603515625Q5.36516471875,20.7394203515625,5.31293171875,20.6871903515625Q5.26069871875,20.6349603515625,5.21965971875,20.5735403515625Q5.17862071875,20.5121203515625,5.15035171875,20.443870351562502Q5.12208371875,20.3756303515625,5.10767271875,20.3031803515625Q5.09326171875,20.2307303515625,5.09326171875,20.1568603515625L5.09326171875,16.1568603515625Z" fill-rule="evenodd" fill="#2882FF" fill-opacity="1"/></g><g transform="matrix(0,-1,1,0,-6.99993896484375,13.99993896484375)"><path d="M2.75,10.49993896484375Q2.75,10.42607046484375,2.764411,10.35362096484375Q2.778822,10.28117196484375,2.80709,10.21292596484375Q2.835359,10.14468096484375,2.876398,10.08326096484375Q2.917437,10.02184196484375,2.96967,9.96960896484375Q3.021903,9.91737596484375,3.083322,9.87633696484375Q3.144742,9.83529796484375,3.212987,9.80702896484375Q3.281233,9.77876096484375,3.353682,9.764349964843749Q3.4261315,9.74993896484375,3.5,9.74993896484375Q3.5738685,9.74993896484375,3.646318,9.764349964843749Q3.718767,9.77876096484375,3.787013,9.80702896484375Q3.855258,9.83529796484375,3.916678,9.87633696484375Q3.978097,9.91737596484375,4.03033,9.96960896484375Q4.082563,10.02184196484375,4.123602,10.08326096484375Q4.164641,10.14468096484375,4.19291,10.21292596484375Q4.221178,10.28117196484375,4.235589,10.35362096484375Q4.25,10.42607046484375,4.25,10.49993896484375L4.25,14.49993896484375Q4.25,14.57380896484375,4.235589,14.64625896484375Q4.221178,14.71870896484375,4.19291,14.78694896484375Q4.164641,14.855198964843751,4.123602,14.91661896484375Q4.082563,14.978038964843751,4.03033,15.03026896484375Q3.978097,15.08249896484375,3.916678,15.12353896484375Q3.855258,15.16457896484375,3.787013,15.192848964843751Q3.718767,15.22111896484375,3.646318,15.23552896484375Q3.5738685,15.24993896484375,3.5,15.24993896484375Q3.4261315,15.24993896484375,3.353682,15.23552896484375Q3.281233,15.22111896484375,3.212987,15.192848964843751Q3.144742,15.16457896484375,3.083322,15.12353896484375Q3.021903,15.08249896484375,2.96967,15.03026896484375Q2.917437,14.978038964843751,2.876398,14.91661896484375Q2.835359,14.855198964843751,2.80709,14.78694896484375Q2.778822,14.71870896484375,2.764411,14.64625896484375Q2.75,14.57380896484375,2.75,14.49993896484375L2.75,10.49993896484375Z" fill-rule="evenodd" fill="#2882FF" fill-opacity="1"/></g><g transform="matrix(0.7071066498756409,-0.70710688829422,0.70710688829422,0.7071066498756409,-1.7132006595056737,5.550247691426193)"><path d="M5.0931396484375,4.8431396484375Q5.0931396484375,4.7692711484375,5.1075506484375,4.6968216484375Q5.1219616484375,4.6243726484375,5.1502296484375,4.5561266484375Q5.1784986484375,4.4878816484375,5.2195376484375,4.4264616484375Q5.2605766484375,4.3650426484375,5.3128096484375,4.3128096484375Q5.3650426484375,4.2605766484375,5.4264616484375,4.2195376484375Q5.4878816484375,4.1784986484375,5.5561266484375,4.1502296484375Q5.6243726484375,4.1219616484375,5.6968216484375,4.1075506484375Q5.7692711484375,4.0931396484375,5.8431396484375,4.0931396484375Q5.9170081484375,4.0931396484375,5.9894576484375,4.1075506484375Q6.0619066484375,4.1219616484375,6.1301526484375,4.1502296484375Q6.1983976484375,4.1784986484375,6.2598176484375,4.2195376484375Q6.3212366484375,4.2605766484375,6.3734696484375,4.3128096484375Q6.4257026484375,4.3650426484375,6.4667416484375,4.4264616484375Q6.5077806484375,4.4878816484375,6.5360496484375,4.5561266484375Q6.5643176484375,4.6243726484375,6.5787286484375,4.6968216484375Q6.5931396484375,4.7692711484375,6.5931396484375,4.8431396484375L6.5931396484375,8.8431396484375Q6.5931396484375,8.9170096484375,6.5787286484375,8.9894596484375Q6.5643176484375,9.0619096484375,6.5360496484375,9.1301496484375Q6.5077806484375,9.198399648437501,6.4667416484375,9.2598196484375Q6.4257026484375,9.321239648437501,6.3734696484375,9.3734696484375Q6.3212366484375,9.4256996484375,6.2598176484375,9.4667396484375Q6.1983976484375,9.5077796484375,6.1301526484375,9.536049648437501Q6.0619066484375,9.5643196484375,5.9894576484375,9.5787296484375Q5.9170081484375,9.5931396484375,5.8431396484375,9.5931396484375Q5.7692711484375,9.5931396484375,5.6968216484375,9.5787296484375Q5.6243726484375,9.5643196484375,5.5561266484375,9.536049648437501Q5.4878816484375,9.5077796484375,5.4264616484375,9.4667396484375Q5.3650426484375,9.4256996484375,5.3128096484375,9.3734696484375Q5.2605766484375,9.321239648437501,5.2195376484375,9.2598196484375Q5.1784986484375,9.198399648437501,5.1502296484375,9.1301496484375Q5.1219616484375,9.0619096484375,5.1075506484375,8.9894596484375Q5.0931396484375,8.9170096484375,5.0931396484375,8.8431396484375L5.0931396484375,4.8431396484375Z" fill-rule="evenodd" fill="#2882FF" fill-opacity="1"/></g></g></g></g></svg>