<svg xmlns="http://www.w3.org/2000/svg" xmlns:xlink="http://www.w3.org/1999/xlink" fill="none" version="1.1" width="24" height="24" viewBox="0 0 24 24"><defs><clipPath id="master_svg0_69_12717"><rect x="0" y="0" width="24" height="24" rx="0"/></clipPath><linearGradient x1="0.00005952380888629705" y1="0.49936577677726746" x2="1.00041663646698" y2="0.49936577677726746" id="master_svg1_69_12731"><stop offset="0%" stop-color="#33BEF0" stop-opacity="1"/><stop offset="100%" stop-color="#22A5E2" stop-opacity="1"/></linearGradient><linearGradient x1="1.0747904777526855" y1="0.5001076459884644" x2="-0.20125748217105865" y2="0.5001076459884644" id="master_svg2_69_12732"><stop offset="0%" stop-color="#FEDE00" stop-opacity="1"/><stop offset="100%" stop-color="#FFD000" stop-opacity="1"/></linearGradient><linearGradient x1="0.0006547619123011827" y1="0.5039969086647034" x2="1.0016666650772095" y2="0.5039969086647034" id="master_svg3_69_12733"><stop offset="0%" stop-color="#F44F5A" stop-opacity="1"/><stop offset="44.29999887943268%" stop-color="#EE3D4A" stop-opacity="1"/><stop offset="100%" stop-color="#E52030" stop-opacity="1"/></linearGradient><linearGradient x1="0.6301785707473755" y1="0.5025031566619873" x2="-0.32011905312538147" y2="0.5025031566619873" id="master_svg4_69_12734"><stop offset="0%" stop-color="#21AD64" stop-opacity="1"/><stop offset="100%" stop-color="#088242" stop-opacity="1"/></linearGradient></defs><g clip-path="url(#master_svg0_69_12717)"><g><path d="M21,10L21,12.5Q21,12.57387,21.0144,12.64632Q21.0288,12.71877,21.0571,12.78701Q21.0854,12.85526,21.1264,12.91668Q21.1674,12.9781,21.2197,13.03033Q21.2719,13.08256,21.3333,13.1236Q21.3947,13.16464,21.463,13.19291Q21.5312,13.22118,21.6037,13.23559Q21.6761,13.25,21.75,13.25Q21.8239,13.25,21.8963,13.23559Q21.9688,13.22118,22.037,13.19291Q22.1053,13.16464,22.1667,13.1236Q22.2281,13.08256,22.2803,13.03033Q22.3326,12.9781,22.3736,12.91668Q22.4146,12.85526,22.4429,12.78701Q22.4712,12.71877,22.4856,12.64632Q22.5,12.57387,22.5,12.5L22.5,10Q22.5,8.75736,21.6213,7.87868Q20.7426,7,19.5,7L14.121,7Q13.8111,6.99973,13.5916,6.779999999999999Q13.5801,6.76844,13.5681,6.7574000000000005L10.47033,3.6596724Q9.8112,3,8.87903,3L4.5,3Q3.2573600000000003,3,2.37868,3.87868Q1.5,4.75736,1.5,6L1.5,18Q1.5,19.2426,2.37868,20.1213Q3.2573600000000003,21,4.5,21L12,21Q12.07387,21,12.14632,20.9856Q12.21877,20.9712,12.287,20.9429Q12.3553,20.9146,12.4167,20.8736Q12.4781,20.8326,12.5303,20.7803Q12.5826,20.7281,12.6236,20.6667Q12.6646,20.6053,12.6929,20.537Q12.7212,20.4688,12.7356,20.3963Q12.75,20.3239,12.75,20.25Q12.75,20.1761,12.7356,20.1037Q12.7212,20.0312,12.6929,19.963Q12.6646,19.8947,12.6236,19.8333Q12.5826,19.7719,12.5303,19.7197Q12.4781,19.6674,12.4167,19.6264Q12.3553,19.5854,12.287,19.5571Q12.21877,19.5288,12.14632,19.514400000000002Q12.07387,19.5,12,19.5L4.5,19.5Q3,19.5,3,18L3,6Q3,4.5,4.5,4.5L8.87903,4.5Q9.18952,4.5,9.40967,4.720333L12.5297,7.84033Q12.5429,7.85355,12.5567,7.86609Q13.2073,8.4992,14.121,8.5L19.5,8.5Q21,8.5,21,10Z" fill-rule="evenodd" fill="#231F2E" fill-opacity="1"/></g><g><path d="M11,4.5L18,4.5Q19.34619,4.5,20.298099999999998,5.451903Q21.25,6.40381,21.25,7.75Q21.25,7.823869999999999,21.235599999999998,7.896319999999999Q21.2212,7.96877,21.1929,8.03701Q21.1646,8.10526,21.1236,8.16668Q21.0826,8.2281,21.0303,8.28033Q20.978099999999998,8.33256,20.91668,8.3736Q20.85526,8.41464,20.787010000000002,8.44291Q20.71877,8.47118,20.64632,8.48559Q20.57387,8.5,20.5,8.5Q20.42613,8.5,20.35368,8.48559Q20.28123,8.47118,20.212989999999998,8.44291Q20.14474,8.41464,20.08332,8.3736Q20.021900000000002,8.33256,19.96967,8.28033Q19.91744,8.2281,19.8764,8.16668Q19.83536,8.10526,19.807090000000002,8.03701Q19.77882,7.96877,19.764409999999998,7.896319999999999Q19.75,7.823869999999999,19.75,7.75Q19.75,7.02513,19.23744,6.51256Q18.72487,6,18,6L11,6Q10.9261315,6,10.853682,5.985589Q10.781233,5.971178,10.712987,5.94291Q10.644742,5.914641,10.583322,5.873602Q10.521903,5.832563,10.46967,5.78033Q10.417437,5.728097,10.376398,5.666678Q10.335359,5.605258,10.30709,5.537013Q10.278822,5.468767,10.264410999999999,5.396318Q10.25,5.3238685,10.25,5.25Q10.25,5.1761315,10.264410999999999,5.103682Q10.278822,5.031233,10.30709,4.962987Q10.335359,4.894742,10.376398,4.833322Q10.417437,4.771903,10.46967,4.71967Q10.521903,4.667437,10.583322,4.626398Q10.644742,4.585359,10.712987,4.55709Q10.781233,4.528822,10.853682,4.514411Q10.9261315,4.5,11,4.5Z" fill-rule="evenodd" fill="#231F2E" fill-opacity="1"/></g><g><g><ellipse cx="6.06298828125" cy="17.25000011920929" rx="1" ry="1.0000001192092896" fill="#2882FF" fill-opacity="1"/></g><g><ellipse cx="9.06298828125" cy="17.25000011920929" rx="1" ry="1.0000001192092896" fill="#2882FF" fill-opacity="1"/></g><g><ellipse cx="14.06298828125" cy="17.25000011920929" rx="1" ry="1.0000001192092896" fill="#2882FF" fill-opacity="1"/></g><g><path d="M13.2727241796875,12.647415Q13.287354179687501,12.5744335,13.287354179687501,12.5Q13.287354179687501,12.4261315,13.2729441796875,12.353682Q13.2585341796875,12.281233,13.2302641796875,12.212987Q13.2019941796875,12.144742,13.1609541796875,12.083322Q13.1199141796875,12.021903,13.0676841796875,11.96967Q13.0154541796875,11.917437,12.9540341796875,11.876398Q12.8926141796875,11.835359,12.8243641796875,11.80709Q12.7561241796875,11.778822,12.6836741796875,11.764410999999999Q12.6112241796875,11.75,12.537354179687501,11.75Q12.4728381796875,11.75,12.4092701796875,11.761018Q12.3457021796875,11.772036,12.2849491796875,11.793748Q12.2241971796875,11.81546,12.1680451796875,11.847228Q12.1118931796875,11.878996,12.0619911796875,11.919887Q12.0120891796875,11.960779,11.9699041796875,12.009591Q11.9277181796875,12.058404,11.8944891796875,12.113703Q11.8612591796875,12.169003,11.8379621796875,12.229165Q11.8146641796875,12.289328,11.8019841796875,12.352585L10.7996641796875,17.35258Q10.7850341796875,17.42557,10.7850341796875,17.5Q10.7850341796875,17.57387,10.799445179687499,17.64632Q10.8138561796875,17.71877,10.8421241796875,17.787010000000002Q10.8703931796875,17.85526,10.9114321796875,17.91668Q10.9524711796875,17.9781,11.0047041796875,18.03033Q11.0569371796875,18.08256,11.1183561796875,18.1236Q11.1797761796875,18.16464,11.2480211796875,18.19291Q11.3162671796875,18.22118,11.3887161796875,18.235590000000002Q11.4611656796875,18.25,11.5350341796875,18.25Q11.5995498796875,18.25,11.6631181796875,18.238979999999998Q11.7266861796875,18.22796,11.7874381796875,18.20625Q11.8481911796875,18.18454,11.9043431796875,18.15277Q11.9604951796875,18.121000000000002,12.0103961796875,18.08011Q12.0602981796875,18.03922,12.102484179687501,17.99041Q12.1446691796875,17.9416,12.1778991796875,17.8863Q12.211128179687499,17.831,12.2344261796875,17.77083Q12.2577231796875,17.71067,12.2704041796875,17.64741L12.2704591796875,17.64714L13.2727241796875,12.647415L13.2727241796875,12.647415Z" fill-rule="evenodd" fill="#2882FF" fill-opacity="1"/></g></g><g><g><path d="M18.80701359375,19.120110980621337L18.04267359375,21.762539980621337C17.38752359375,21.303939980621337,16.66686359375,20.95451998062134,15.13818359375,21.587829980621336L15.88068359375,18.98908098062134C17.40936359375,18.33393398062134,18.15186359375,18.661507380621337,18.80701359375,19.120110980621337Z" fill="url(#master_svg1_69_12731)" fill-opacity="1" style="mix-blend-mode:passthrough"/></g><g><path d="M19.200097494125366,19.382169723510742L18.457597494125366,21.98091972351074C19.112744494125366,22.43951972351074,19.855247494125365,22.788939723510744,21.383927494125366,22.155629723510742L22.104587494125365,19.62239072351074C20.554067494125366,20.14650772351074,19.877087494125366,19.818934723510743,19.200097494125366,19.382169723510742Z" fill="url(#master_svg2_69_12732)" fill-opacity="1" style="mix-blend-mode:passthrough"/></g><g><path d="M18.938043564395905,18.63967L19.680543564395904,16.019079C19.025393564395905,15.560476,18.282893564395906,15.211064,16.754213564395904,15.844373L16.011713564395905,18.46496C16.623184564395906,18.2029,17.103623564395903,18.09371,17.496713564395904,18.09371C18.108183564395905,18.11555,18.544953564395904,18.37761,18.938043564395905,18.63967Z" fill="url(#master_svg3_69_12733)" fill-opacity="1" style="mix-blend-mode:passthrough"/></g><g><path d="M20.073627166748047,16.302976489067078L19.331127166748047,18.923566489067078C19.986274166748046,19.382166489067078,20.794287166748045,19.753416489067078,22.257447166748047,19.076436489067078L22.999957166748047,16.455843489067078C21.471277166748045,17.11099148906708,20.750617166748047,16.761579489067078,20.073627166748047,16.302976489067078Z" fill="url(#master_svg4_69_12734)" fill-opacity="1" style="mix-blend-mode:passthrough"/></g></g></g></svg>