<svg xmlns="http://www.w3.org/2000/svg" xmlns:xlink="http://www.w3.org/1999/xlink" fill="none" version="1.1" width="24" height="24" viewBox="0 0 24 24"><defs><clipPath id="master_svg0_74_13173"><rect x="0" y="0" width="24" height="24" rx="0"/></clipPath></defs><g clip-path="url(#master_svg0_74_13173)"><g><path d="M20.999984741210938,7.5L3.0000000000109375,7.5Q2.9261315412109377,7.5,2.8536827412109376,7.514411Q2.7812337412109374,7.528822,2.7129877412109376,7.55709Q2.6447417412109377,7.585359,2.5833227412109374,7.626398Q2.5219027412109374,7.667437,2.4696707412109378,7.71967Q2.4174377412109376,7.771903,2.3763977412109374,7.833322Q2.3353587412109373,7.894742,2.3070907412109376,7.962987Q2.2788227412109374,8.031233,2.2644117412109375,8.103682Q2.2499997412109374,8.1761314,2.2499997412109374,8.25L2.2499897412109373,17.24998Q2.2499867412109373,18.8033,3.3483367412109377,19.901600000000002Q4.446684741210937,21,5.9999847412109375,21L17.999984741210938,21Q19.553284741210938,21,20.65168474121094,19.901600000000002Q21.749984741210938,18.8033,21.749984741210938,17.24999L21.749984741210938,8.25Q21.749984741210938,8.1761315,21.73558474121094,8.103682Q21.721184741210937,8.031233,21.69288474121094,7.962987Q21.664584741210938,7.894742,21.623584741210937,7.833322Q21.582584741210937,7.771903,21.530284741210938,7.71967Q21.47808474121094,7.667437,21.416684741210936,7.626398Q21.355284741210937,7.585359,21.286984741210937,7.55709Q21.21878474121094,7.528822,21.146284741210938,7.514411Q21.073884741210936,7.5,20.999984741210938,7.5ZM3.7499987412109377,9L3.7499897412109373,17.24998Q3.7499877412109375,18.18197,4.408994741210938,18.841Q5.068004741210938,19.5,5.9999847412109375,19.5L17.999984741210938,19.5Q18.93198474121094,19.5,19.59098474121094,18.841Q20.249984741210938,18.18197,20.249984741210938,17.24999L20.249984741210938,9L3.7499987412109377,9Z" fill-rule="evenodd" fill="#231F2E" fill-opacity="1"/></g><g><path d="M2.25,6.75Q2.25,5.1967,3.34835,4.09835Q4.4467,3.00000488758,6,3.00000435114L18,3Q19.5534,3,20.6535,4.10792Q21.75,5.21217,21.75,6.76539L21.75,8.25001C21.75,8.66423,21.4142,9.00001,21,9.00001L3,9.00001C2.585786,9.00001,2.25,8.66423,2.25,8.25001L2.25,6.75ZM4.5,6L4.5,6.008C4.5,6.42221,4.835789999999999,6.758,5.25,6.758L5.258,6.758C5.67221,6.758,6.008,6.42221,6.008,6.008L6.008,6C6.008,5.585789999999999,5.67221,5.25,5.258,5.25L5.25,5.25C4.835789999999999,5.25,4.5,5.585789999999999,4.5,6ZM6.75,6L6.75,6.008C6.75,6.42221,7.08579,6.758,7.5,6.758L7.508,6.758C7.92221,6.758,8.258,6.42221,8.258,6.008L8.258,6C8.258,5.585789999999999,7.92221,5.25,7.508,5.25L7.5,5.25C7.08579,5.25,6.75,5.585789999999999,6.75,6ZM10.508,6.008L10.508,6C10.508,5.585789999999999,10.17221,5.25,9.758,5.25L9.75,5.25C9.33579,5.25,9,5.585789999999999,9,6L9,6.008C9,6.42221,9.33579,6.758,9.75,6.758L9.758,6.758C10.17221,6.758,10.508,6.42221,10.508,6.008Z" fill-rule="evenodd" fill="#231F2E" fill-opacity="1"/></g><g><g transform="matrix(0,1,-1,0,23.0653076171875,-0.9346923828125)"><path d="M12,10.3153076171875L12.402613,10.3153076171875Q13.15216,10.3153076171875,13.80278,10.7602066171875Q14.413879999999999,11.1780836171875,14.79739,11.8975006171875L15.014800000000001,12.3051676171875Q15.225159999999999,12.6998576171875,15.53241,12.9099476171875Q15.80019,13.0930676171875,16.08604,13.0930976171875L18.36934,13.0930976171875Q18.44321,13.0930976171875,18.51566,13.1075076171875Q18.58811,13.1219176171875,18.65635,13.1501876171875Q18.7246,13.1784476171875,18.78602,13.2194876171875Q18.84744,13.260527617187499,18.89967,13.3127676171875Q18.951900000000002,13.3649976171875,18.99294,13.4264176171875Q19.03398,13.4878376171875,19.06225,13.5560776171875Q19.090519999999998,13.6243276171875,19.10493,13.6967776171875Q19.11934,13.7692276171875,19.11934,13.8430976171875Q19.11934,13.9169576171875,19.10493,13.9894076171875Q19.090519999999998,14.0618576171875,19.06225,14.1301076171875Q19.03398,14.1983476171875,18.99294,14.2597676171875Q18.951900000000002,14.3211876171875,18.89967,14.3734276171875Q18.84744,14.4256576171875,18.78602,14.4666976171875Q18.7246,14.5077376171875,18.65635,14.5360076171875Q18.58811,14.5642676171875,18.51566,14.5786876171875Q18.44321,14.5930976171875,18.36934,14.5930976171875L16.08589,14.5930976171875Q15.336310000000001,14.593017617187499,14.68572,14.148147617187501Q14.0746,13.730257617187501,13.69125,13.0110076171875L13.47372,12.6031176171875Q13.26336,12.2085076171875,12.956096,11.9983986171875Q12.688344,11.8153076171875,12.402613,11.8153076171875L12,11.8153076171875Q11.9261315,11.8153076171875,11.853682,11.800896617187501Q11.781233,11.7864856171875,11.712987,11.7582176171875Q11.644742,11.7299486171875,11.583322,11.6889096171875Q11.521903,11.6478706171875,11.46967,11.5956376171875Q11.417437,11.5434046171875,11.376398,11.4819856171875Q11.335359,11.4205656171875,11.30709,11.3523206171875Q11.278822,11.2840746171875,11.264410999999999,11.2116256171875Q11.25,11.1391761171875,11.25,11.0653076171875Q11.25,10.9914391171875,11.264410999999999,10.9189896171875Q11.278822,10.8465406171875,11.30709,10.7782946171875Q11.335359,10.7100496171875,11.376398,10.6486296171875Q11.417437,10.5872106171875,11.46967,10.5349776171875Q11.521903,10.4827446171875,11.583322,10.4417056171875Q11.644742,10.4006666171875,11.712987,10.3723976171875Q11.781233,10.3441296171875,11.853682,10.329718617187499Q11.9261315,10.3153076171875,12,10.3153076171875Z" fill-rule="evenodd" fill="#2882FF" fill-opacity="1"/></g><g transform="matrix(0,1,-1,0,25.843017578125,-3.71240234375)"><path d="M21.1470499609375,11.8153076171875Q21.2209199609375,11.8153076171875,21.2933699609375,11.800896617187501Q21.3658199609375,11.7864856171875,21.4340599609375,11.7582176171875Q21.5023099609375,11.7299486171875,21.5637299609375,11.6889096171875Q21.6251499609375,11.6478706171875,21.6773799609375,11.5956376171875Q21.729609960937502,11.5434046171875,21.7706499609375,11.4819856171875Q21.8116899609375,11.4205656171875,21.8399599609375,11.3523206171875Q21.868229960937498,11.2840746171875,21.8826399609375,11.2116256171875Q21.8970499609375,11.1391761171875,21.8970499609375,11.0653076171875Q21.8970499609375,10.9914391171875,21.8826399609375,10.9189896171875Q21.868229960937498,10.8465406171875,21.8399599609375,10.7782946171875Q21.8116899609375,10.7100496171875,21.7706499609375,10.6486296171875Q21.729609960937502,10.5872106171875,21.6773799609375,10.5349776171875Q21.6251499609375,10.4827446171875,21.5637299609375,10.4417056171875Q21.5023099609375,10.4006666171875,21.4340599609375,10.3723976171875Q21.3658199609375,10.3441296171875,21.2933699609375,10.329718617187499Q21.2209199609375,10.3153076171875,21.1470499609375,10.3153076171875L21.1467499609375,10.3153076171875L18.8645699609375,10.3153076171875Q18.1144899609375,10.3152636171875,17.4635499609375,10.7605826171875Q16.8521199609375,11.1788736171875,16.4686099609375,11.8991496171875L16.2529999609375,12.3044076171875Q16.0425799609375,12.6994676171875,15.7351599609375,12.9098276171875Q15.4673399609375,13.0930976171875,15.1815919609375,13.0930976171875L14.7777099609375,13.0930976171875Q14.7038414609375,13.0930976171875,14.6313919609375,13.1075076171875Q14.5589429609375,13.1219176171875,14.4906969609375,13.1501876171875Q14.4224519609375,13.1784476171875,14.3610319609375,13.2194876171875Q14.2996129609375,13.260527617187499,14.2473799609375,13.3127676171875Q14.1951469609375,13.3649976171875,14.1541079609375,13.4264176171875Q14.1130689609375,13.4878376171875,14.0847999609375,13.5560776171875Q14.0565319609375,13.6243276171875,14.042120960937499,13.6967776171875Q14.0277099609375,13.7692276171875,14.0277099609375,13.8430976171875Q14.0277099609375,13.9169576171875,14.042120960937499,13.9894076171875Q14.0565319609375,14.0618576171875,14.0847999609375,14.1301076171875Q14.1130689609375,14.1983476171875,14.1541079609375,14.2597676171875Q14.1951469609375,14.3211876171875,14.2473799609375,14.3734276171875Q14.2996129609375,14.4256576171875,14.3610319609375,14.4666976171875Q14.4224519609375,14.5077376171875,14.4906969609375,14.5360076171875Q14.5589429609375,14.5642676171875,14.6313919609375,14.5786876171875Q14.7038414609375,14.5930976171875,14.7777099609375,14.5930976171875L14.7783079809375,14.5930976171875L15.1815919609375,14.5930976171875Q15.9314299609375,14.5930976171875,16.5822499609375,14.1477476171875Q17.1934599609375,13.729507617187501,17.5769199609375,13.0095476171875L17.7928499609375,12.6036976171875Q18.0030399609375,12.2089276171875,18.3104999609375,11.9985976171875Q18.5784399609375,11.8152906171875,18.8644799609375,11.8153076171875L21.1467499609375,11.8153076171875L21.1470499609375,11.8153076171875L21.1470499609375,11.8153076171875Z" fill-rule="evenodd" fill="#2882FF" fill-opacity="1"/></g><g transform="matrix(0,1,-1,0,32.21240234375,-0.6763916015625)"><path d="M16.97488097265625,15.23782937109375L18.64139697265625,16.90434537109375Q18.69362697265625,16.95657537109375,18.73466697265625,17.01799537109375Q18.775706972656252,17.07941537109375,18.80397697265625,17.14765537109375Q18.83223697265625,17.21590537109375,18.84665697265625,17.28835537109375Q18.86106697265625,17.36080537109375,18.86106697265625,17.43467537109375Q18.86106697265625,17.50853537109375,18.84665697265625,17.58098537109375Q18.83223697265625,17.65343537109375,18.80397697265625,17.72168537109375Q18.775706972656252,17.78992537109375,18.73466697265625,17.85134537109375Q18.69362697265625,17.91276537109375,18.64139697265625,17.96500537109375L16.97502197265625,19.63137537109375L16.97472697265625,19.63166537109375Q16.86923797265625,19.73715537109375,16.73140997265625,19.79424537109375Q16.59358097265625,19.85133537109375,16.44439697265625,19.85133537109375Q16.37052847265625,19.85133537109375,16.29807897265625,19.83692537109375Q16.22562997265625,19.82251537109375,16.15738397265625,19.79424537109375Q16.08913897265625,19.76597537109375,16.02771897265625,19.72493537109375Q15.96629997265625,19.68390537109375,15.91406697265625,19.63166537109375Q15.86183397265625,19.57943537109375,15.82079497265625,19.51801537109375Q15.77975597265625,19.45659537109375,15.75148697265625,19.388355371093752Q15.72321897265625,19.32010537109375,15.708807972656249,19.24765537109375Q15.69439697265625,19.17520537109375,15.69439697265625,19.10133537109375Q15.69439697265625,18.95215537109375,15.75148697265625,18.81432537109375Q15.80857797265625,18.67649537109375,15.91406697265625,18.57100537109375L17.05040297265625,17.43467537109375L15.91406697265625,16.29833537109375Q15.80857797265625,16.19284637109375,15.75148697265625,16.05501837109375Q15.69439697265625,15.91718937109375,15.69439697265625,15.76800537109375Q15.69439697265625,15.69413687109375,15.708807972656249,15.62168737109375Q15.72321897265625,15.54923837109375,15.75148697265625,15.48099237109375Q15.77975597265625,15.41274737109375,15.82079497265625,15.35132737109375Q15.86183397265625,15.28990837109375,15.91406697265625,15.23767537109375Q15.96629997265625,15.18544237109375,16.02771897265625,15.14440337109375Q16.08913897265625,15.10336437109375,16.15738397265625,15.07509537109375Q16.22562997265625,15.04682737109375,16.29807897265625,15.032416371093749Q16.37052847265625,15.01800537109375,16.44439697265625,15.01800537109375Q16.59358097265625,15.01800537109375,16.73140997265625,15.07509537109375Q16.86923797265625,15.13218637109375,16.97472697265625,15.23767537109375L16.97488097265625,15.23782937109375Z" fill-rule="evenodd" fill="#2882FF" fill-opacity="1"/></g><g transform="matrix(0,1,-1,0,26.65679931640625,4.87921142578125)"><path d="M11.4192779453125,15.23782937109375L13.0857939453125,16.90434537109375Q13.1380239453125,16.95657537109375,13.1790639453125,17.01799537109375Q13.2201039453125,17.07941537109375,13.2483739453125,17.14765537109375Q13.2766339453125,17.21590537109375,13.2910539453125,17.28835537109375Q13.3054639453125,17.36080537109375,13.3054639453125,17.43467537109375Q13.3054639453125,17.50853537109375,13.2910539453125,17.58098537109375Q13.2766339453125,17.65343537109375,13.2483739453125,17.72168537109375Q13.2201039453125,17.78992537109375,13.1790639453125,17.85134537109375Q13.1380239453125,17.91276537109375,13.0857939453125,17.96500537109375L11.4194189453125,19.63137537109375L11.4191239453125,19.63166537109375Q11.3136349453125,19.73715537109375,11.1758069453125,19.79424537109375Q11.0379779453125,19.85133537109375,10.8887939453125,19.85133537109375Q10.8149254453125,19.85133537109375,10.7424759453125,19.83692537109375Q10.6700269453125,19.82251537109375,10.6017809453125,19.79424537109375Q10.5335359453125,19.76597537109375,10.4721159453125,19.72493537109375Q10.4106969453125,19.68390537109375,10.3584639453125,19.63166537109375Q10.3062309453125,19.57943537109375,10.2651919453125,19.51801537109375Q10.2241529453125,19.45659537109375,10.1958839453125,19.388355371093752Q10.1676159453125,19.32010537109375,10.153204945312499,19.24765537109375Q10.1387939453125,19.17520537109375,10.1387939453125,19.10133537109375Q10.1387939453125,18.95215537109375,10.1958839453125,18.81432537109375Q10.2529749453125,18.67649537109375,10.3584639453125,18.57100537109375L11.4947999453125,17.43467537109375L10.3584639453125,16.29833537109375Q10.2529749453125,16.19284637109375,10.1958839453125,16.05501837109375Q10.1387939453125,15.91718937109375,10.1387939453125,15.76800537109375Q10.1387939453125,15.69413687109375,10.153204945312499,15.62168737109375Q10.1676159453125,15.54923837109375,10.1958839453125,15.48099237109375Q10.2241529453125,15.41274737109375,10.2651919453125,15.35132737109375Q10.3062309453125,15.28990837109375,10.3584639453125,15.23767537109375Q10.4106969453125,15.18544237109375,10.4721159453125,15.14440337109375Q10.5335359453125,15.10336437109375,10.6017809453125,15.07509537109375Q10.6700269453125,15.04682737109375,10.7424759453125,15.032416371093749Q10.8149254453125,15.01800537109375,10.8887939453125,15.01800537109375Q11.0379779453125,15.01800537109375,11.1758069453125,15.07509537109375Q11.3136349453125,15.13218637109375,11.4191239453125,15.23767537109375L11.4192779453125,15.23782937109375Z" fill-rule="evenodd" fill="#2882FF" fill-opacity="1"/></g></g></g></svg>