<svg xmlns="http://www.w3.org/2000/svg" xmlns:xlink="http://www.w3.org/1999/xlink" fill="none" version="1.1" width="24" height="24" viewBox="0 0 24 24"><defs><clipPath id="master_svg0_53_01818"><rect x="0" y="0" width="24" height="24" rx="0"/></clipPath></defs><g clip-path="url(#master_svg0_53_01818)"><g><path d="M20.999984741210938,7.5L3.0000000000109375,7.5Q2.9261315412109377,7.5,2.8536827412109376,7.514411Q2.7812337412109374,7.528822,2.7129877412109376,7.55709Q2.6447417412109377,7.585359,2.5833227412109374,7.626398Q2.5219027412109374,7.667437,2.4696707412109378,7.71967Q2.4174377412109376,7.771903,2.3763977412109374,7.833322Q2.3353587412109373,7.894742,2.3070907412109376,7.962987Q2.2788227412109374,8.031233,2.2644117412109375,8.103682Q2.2499997412109374,8.1761314,2.2499997412109374,8.25L2.2499897412109373,17.24998Q2.2499867412109373,18.8033,3.3483367412109377,19.901600000000002Q4.446684741210937,21,5.9999847412109375,21L17.999984741210938,21Q19.553284741210938,21,20.65168474121094,19.901600000000002Q21.749984741210938,18.8033,21.749984741210938,17.24999L21.749984741210938,8.25Q21.749984741210938,8.1761315,21.73558474121094,8.103682Q21.721184741210937,8.031233,21.69288474121094,7.962987Q21.664584741210938,7.894742,21.623584741210937,7.833322Q21.582584741210937,7.771903,21.530284741210938,7.71967Q21.47808474121094,7.667437,21.416684741210936,7.626398Q21.355284741210937,7.585359,21.286984741210937,7.55709Q21.21878474121094,7.528822,21.146284741210938,7.514411Q21.073884741210936,7.5,20.999984741210938,7.5ZM3.7499987412109377,9L3.7499897412109373,17.24998Q3.7499877412109375,18.18197,4.408994741210938,18.841Q5.068004741210938,19.5,5.9999847412109375,19.5L17.999984741210938,19.5Q18.93198474121094,19.5,19.59098474121094,18.841Q20.249984741210938,18.18197,20.249984741210938,17.24999L20.249984741210938,9L3.7499987412109377,9Z" fill-rule="evenodd" fill="#231F2E" fill-opacity="1"/></g><g><path d="M2.25,6.75Q2.25,5.1967,3.34835,4.09835Q4.4467,3.00000488758,6,3.00000435114L18,3Q19.5534,3,20.6535,4.10792Q21.75,5.21217,21.75,6.76539L21.75,8.25001C21.75,8.66423,21.4142,9.00001,21,9.00001L3,9.00001C2.585786,9.00001,2.25,8.66423,2.25,8.25001L2.25,6.75ZM4.5,6L4.5,6.008C4.5,6.42221,4.835789999999999,6.758,5.25,6.758L5.258,6.758C5.67221,6.758,6.008,6.42221,6.008,6.008L6.008,6C6.008,5.585789999999999,5.67221,5.25,5.258,5.25L5.25,5.25C4.835789999999999,5.25,4.5,5.585789999999999,4.5,6ZM6.75,6L6.75,6.008C6.75,6.42221,7.08579,6.758,7.5,6.758L7.508,6.758C7.92221,6.758,8.258,6.42221,8.258,6.008L8.258,6C8.258,5.585789999999999,7.92221,5.25,7.508,5.25L7.5,5.25C7.08579,5.25,6.75,5.585789999999999,6.75,6ZM10.508,6.008L10.508,6C10.508,5.585789999999999,10.17221,5.25,9.758,5.25L9.75,5.25C9.33579,5.25,9,5.585789999999999,9,6L9,6.008C9,6.42221,9.33579,6.758,9.75,6.758L9.758,6.758C10.17221,6.758,10.508,6.42221,10.508,6.008Z" fill-rule="evenodd" fill="#231F2E" fill-opacity="1"/></g><g><path d="M6.5,12L12.00002,12Q12.04927,12,12.097570000000001,12.009607Q12.14587,12.019214999999999,12.19136,12.03806Q12.23686,12.056906,12.277809999999999,12.084265Q12.31875,12.111625,12.353580000000001,12.146447Q12.3884,12.181269,12.415759999999999,12.222215Q12.44312,12.263161,12.461960000000001,12.308658Q12.48081,12.354155,12.49042,12.4024549Q12.50002,12.4507543,12.50002,12.5Q12.50002,12.5492457,12.49042,12.5975451Q12.48081,12.645845,12.461960000000001,12.691342Q12.44312,12.736839,12.415759999999999,12.777785Q12.3884,12.818731,12.353580000000001,12.853553Q12.31875,12.888375,12.277809999999999,12.915735Q12.23686,12.943094,12.19136,12.96194Q12.14587,12.980785000000001,12.097570000000001,12.990393Q12.04927,13,12.00002,13L6.5,13Q6.4507543,13,6.4024549,12.990393Q6.354155,12.980785000000001,6.308658,12.96194Q6.263161,12.943094,6.222215,12.915735Q6.181269,12.888375,6.146447,12.853553Q6.111625,12.818731,6.084265,12.777785Q6.056906,12.736839,6.03806,12.691342Q6.019215,12.645845,6.009607,12.5975451Q6,12.5492457,6,12.5Q6,12.4507543,6.009607,12.4024549Q6.019215,12.354155,6.03806,12.308658Q6.056906,12.263161,6.084265,12.222215Q6.111625,12.181269,6.146447,12.146447Q6.181269,12.111625,6.222215,12.084265Q6.263161,12.056906,6.308658,12.03806Q6.354155,12.019214999999999,6.4024549,12.009607Q6.4507543,12,6.5,12Z" fill-rule="evenodd" fill="#231F2E" fill-opacity="1"/></g><g><path d="M15,12L17.5,12Q17.54925,12,17.59754,12.009607Q17.64584,12.019214999999999,17.69134,12.03806Q17.73684,12.056906,17.77778,12.084265Q17.81873,12.111625,17.85355,12.146447Q17.888370000000002,12.181269,17.91573,12.222215Q17.94309,12.263161,17.96194,12.308658Q17.98078,12.354155,17.99039,12.4024549Q18,12.4507543,18,12.5Q18,12.5492457,17.99039,12.5975451Q17.98078,12.645845,17.96194,12.691342Q17.94309,12.736839,17.91573,12.777785Q17.888370000000002,12.818731,17.85355,12.853553Q17.81873,12.888375,17.77778,12.915735Q17.73684,12.943094,17.69134,12.96194Q17.64584,12.980785000000001,17.59754,12.990393Q17.54925,13,17.5,13L15,13Q14.9507543,13,14.9024549,12.990393Q14.854155,12.980785000000001,14.808658,12.96194Q14.763161,12.943094,14.722215,12.915735Q14.681269,12.888375,14.646447,12.853553Q14.611625,12.818731,14.584265,12.777785Q14.556906,12.736839,14.53806,12.691342Q14.519214999999999,12.645845,14.509607,12.5975451Q14.5,12.5492457,14.5,12.5Q14.5,12.4507543,14.509607,12.4024549Q14.519214999999999,12.354155,14.53806,12.308658Q14.556906,12.263161,14.584265,12.222215Q14.611625,12.181269,14.646447,12.146447Q14.681269,12.111625,14.722215,12.084265Q14.763161,12.056906,14.808658,12.03806Q14.854155,12.019214999999999,14.9024549,12.009607Q14.9507543,12,15,12Z" fill-rule="evenodd" fill="#231F2E" fill-opacity="1"/></g><g><path d="M6.5,16L8.00085,16Q8.0501,16,8.0984,16.009607Q8.1467,16.019215,8.1922,16.03806Q8.23769,16.056906,8.27864,16.084265Q8.31959,16.111625,8.35441,16.146447Q8.38923,16.181269,8.41659,16.222215Q8.443950000000001,16.263161,8.46279,16.308658Q8.48164,16.354155,8.49125,16.4024549Q8.50085,16.4507543,8.50085,16.5Q8.50085,16.5492457,8.49125,16.5975451Q8.48164,16.645845,8.46279,16.691342Q8.443950000000001,16.736839,8.41659,16.777785Q8.38923,16.818731,8.35441,16.853553Q8.31959,16.888375,8.27864,16.915735Q8.23769,16.943094,8.1922,16.96194Q8.1467,16.980785,8.0984,16.990393Q8.0501,17,8.00085,17L6.5,17Q6.4507543,17,6.4024549,16.990393Q6.354155,16.980785,6.308658,16.96194Q6.263161,16.943094,6.222215,16.915735Q6.181269,16.888375,6.146447,16.853553Q6.111625,16.818731,6.084265,16.777785Q6.056906,16.736839,6.03806,16.691342Q6.019215,16.645845,6.009607,16.5975451Q6,16.5492457,6,16.5Q6,16.4507543,6.009607,16.4024549Q6.019215,16.354155,6.03806,16.308658Q6.056906,16.263161,6.084265,16.222215Q6.111625,16.181269,6.146447,16.146447Q6.181269,16.111625,6.222215,16.084265Q6.263161,16.056906,6.308658,16.03806Q6.354155,16.019215,6.4024549,16.009607Q6.4507543,16,6.5,16Z" fill-rule="evenodd" fill="#231F2E" fill-opacity="1"/></g><g><path d="M11,16L17.5,16Q17.54925,16,17.597540000000002,16.009607Q17.64584,16.019215,17.69134,16.03806Q17.73684,16.056906,17.77778,16.084265Q17.818730000000002,16.111625,17.85355,16.146447Q17.888370000000002,16.181269,17.91573,16.222215Q17.943089999999998,16.263161,17.96194,16.308658Q17.98078,16.354155,17.990389999999998,16.4024549Q18,16.4507543,18,16.5Q18,16.5492457,17.990389999999998,16.5975451Q17.98078,16.645845,17.96194,16.691342Q17.943089999999998,16.736839,17.91573,16.777785Q17.888370000000002,16.818731,17.85355,16.853553Q17.818730000000002,16.888375,17.77778,16.915735Q17.73684,16.943094,17.69134,16.96194Q17.64584,16.980785,17.597540000000002,16.990393Q17.54925,17,17.5,17L11,17Q10.9507543,17,10.9024549,16.990393Q10.854155,16.980785,10.808658,16.96194Q10.763161,16.943094,10.722215,16.915735Q10.681269,16.888375,10.646447,16.853553Q10.611625,16.818731,10.584265,16.777785Q10.556906,16.736839,10.53806,16.691342Q10.519214999999999,16.645845,10.509607,16.5975451Q10.5,16.5492457,10.5,16.5Q10.5,16.4507543,10.509607,16.4024549Q10.519214999999999,16.354155,10.53806,16.308658Q10.556906,16.263161,10.584265,16.222215Q10.611625,16.181269,10.646447,16.146447Q10.681269,16.111625,10.722215,16.084265Q10.763161,16.056906,10.808658,16.03806Q10.854155,16.019215,10.9024549,16.009607Q10.9507543,16,11,16Z" fill-rule="evenodd" fill="#231F2E" fill-opacity="1"/></g><g><path d="M14.93947,11.0605323Q14.34322,10.464286,13.5,10.464286Q12.65678,10.464286,12.0605327,11.0605323Q11.464286,11.656779,11.464286,12.5Q11.464286,13.34322,12.0605327,13.93947Q12.656779,14.53571,13.5,14.53571Q14.34322,14.53571,14.93947,13.93947Q15.53571,13.34322,15.53571,12.5Q15.53571,11.656779,14.93947,11.0605323ZM12.818147,11.818147Q13.10058,11.535714,13.5,11.535714Q13.89942,11.535714,14.18185,11.818147Q14.46429,12.10058,14.46429,12.5Q14.46429,12.89942,14.18185,13.18185Q13.89942,13.46429,13.5,13.46429Q13.10058,13.46429,12.818147,13.18185Q12.535714,12.89942,12.535714,12.5Q12.535714,12.10058,12.818147,11.818147Z" fill-rule="evenodd" fill="#2882FF" fill-opacity="1"/></g><g><path d="M10.93947,15.06297370625Q10.34322,14.46672740625,9.5,14.46672740625Q8.656779,14.46672740625,8.0605326,15.06297370625Q7.4642859999999995,15.65922040625,7.4642859999999995,16.50244140625Q7.4642859999999995,17.34566140625,8.0605327,17.94191140625Q8.656779,18.53815140625,9.5,18.53815140625Q10.34322,18.53815140625,10.93947,17.94191140625Q11.53571,17.34566140625,11.53571,16.50244140625Q11.53571,15.65922040625,10.93947,15.06297370625ZM8.818147,15.82058840625Q9.10058,15.53815540625,9.5,15.53815540625Q9.89942,15.53815540625,10.18185,15.82058840625Q10.46429,16.10302140625,10.46429,16.50244140625Q10.46429,16.90186140625,10.18185,17.18429140625Q9.89942,17.46673140625,9.5,17.46673140625Q9.10058,17.46673140625,8.818147,17.18429140625Q8.535714,16.90186140625,8.535714,16.50244140625Q8.535714,16.10302140625,8.818147,15.82058840625Z" fill-rule="evenodd" fill="#2882FF" fill-opacity="1"/></g></g></svg>