<svg xmlns="http://www.w3.org/2000/svg" xmlns:xlink="http://www.w3.org/1999/xlink" fill="none" version="1.1" width="24" height="24" viewBox="0 0 24 24"><defs><clipPath id="master_svg0_53_01269"><rect x="0" y="0" width="24" height="24" rx="0"/></clipPath></defs><g clip-path="url(#master_svg0_53_01269)"><g><path d="M12.25,3Q12.25,2.9261315,12.264410999999999,2.853682Q12.278822,2.781233,12.30709,2.712987Q12.335359,2.644742,12.376398,2.583322Q12.417437,2.521903,12.46967,2.46967Q12.521903,2.417437,12.583322,2.376398Q12.644742,2.335359,12.712987,2.30709Q12.781233,2.278822,12.853682,2.264411Q12.9261315,2.25,13,2.25Q13.0738685,2.25,13.146318,2.264411Q13.218767,2.278822,13.287013,2.30709Q13.355258,2.335359,13.416678,2.376398Q13.478097,2.417437,13.53033,2.46967Q13.582563,2.521903,13.623602,2.583322Q13.664641,2.644742,13.69291,2.712987Q13.721178,2.781233,13.735589000000001,2.853682Q13.75,2.9261315,13.75,3L13.75,7Q13.75,7.10355,13.823223,7.17678Q13.896447,7.25,14,7.25L18,7.25Q18.07387,7.25,18.14632,7.26441Q18.21877,7.27882,18.287010000000002,7.30709Q18.35526,7.33536,18.41668,7.3764Q18.4781,7.41744,18.53033,7.46967Q18.58256,7.5219,18.6236,7.58332Q18.66464,7.64474,18.69291,7.71299Q18.72118,7.78123,18.735590000000002,7.85368Q18.75,7.92613,18.75,8Q18.75,8.07387,18.735590000000002,8.14632Q18.72118,8.21877,18.69291,8.28701Q18.66464,8.355260000000001,18.6236,8.41668Q18.58256,8.478100000000001,18.53033,8.53033Q18.4781,8.58256,18.41668,8.6236Q18.35526,8.66464,18.287010000000002,8.692910000000001Q18.21877,8.72118,18.14632,8.73559Q18.07387,8.75,18,8.75L14,8.75Q13.275126,8.75,12.762563,8.23744Q12.25,7.72487,12.25,7L12.25,3Z" fill-rule="evenodd" fill="#231F2E" fill-opacity="1"/></g><g><path d="M17.25,8.31066L17.25,12Q17.25,12.07387,17.264400000000002,12.14632Q17.2788,12.21877,17.3071,12.28701Q17.3354,12.35526,17.3764,12.41668Q17.4174,12.4781,17.4697,12.53033Q17.521900000000002,12.58256,17.5833,12.6236Q17.6447,12.66464,17.713,12.69291Q17.7812,12.72118,17.8537,12.73559Q17.926099999999998,12.75,18,12.75Q18.073900000000002,12.75,18.1463,12.73559Q18.2188,12.72118,18.287,12.69291Q18.3553,12.66464,18.4167,12.6236Q18.478099999999998,12.58256,18.5303,12.53033Q18.5826,12.4781,18.6236,12.41668Q18.6646,12.35526,18.6929,12.28701Q18.7212,12.21877,18.735599999999998,12.14632Q18.75,12.07387,18.75,12L18.75,11.9988L18.75,8Q18.75,7.85082,18.6929,7.71299Q18.6358,7.57516,18.5303,7.46967L13.53033,2.46967Q13.42484,2.364181,13.28701,2.30709Q13.14919,2.25,13,2.25L6,2.25Q4.860913,2.25,4.0554564,3.0554564Q3.25,3.860913,3.25,5L3.25,19Q3.25,20.1391,4.0554563,20.9445Q4.860912,21.75,6,21.75L8,21.75Q8.07387,21.75,8.14632,21.7356Q8.21877,21.7212,8.28701,21.6929Q8.355260000000001,21.6646,8.41668,21.6236Q8.478100000000001,21.5826,8.53033,21.5303Q8.58256,21.4781,8.6236,21.4167Q8.66464,21.3553,8.692910000000001,21.287Q8.72118,21.2188,8.73559,21.1463Q8.75,21.0739,8.75,21Q8.75,20.9261,8.73559,20.8537Q8.72118,20.7812,8.692910000000001,20.713Q8.66464,20.6447,8.6236,20.5833Q8.58256,20.5219,8.53033,20.4697Q8.478100000000001,20.4174,8.41668,20.3764Q8.355260000000001,20.3354,8.28701,20.3071Q8.21877,20.2788,8.14632,20.2644Q8.07387,20.25,8,20.25L6,20.25Q5.4822299999999995,20.25,5.1161200000000004,19.8839Q4.75,19.5178,4.75,19L4.75,5Q4.75,4.4822299999999995,5.1161200000000004,4.1161200000000004Q5.4822299999999995,3.75,6,3.75L12.68934,3.75L17.25,8.31066Z" fill-rule="evenodd" fill="#231F2E" fill-opacity="1"/></g><g><path d="M12.96967,20.03033Q12.75,19.81066,12.75,19.5Q12.75,19.42613,12.735589000000001,19.35368Q12.721178,19.28123,12.69291,19.212989999999998Q12.664641,19.14474,12.623602,19.08332Q12.582563,19.0219,12.53033,18.96967Q12.478097,18.91744,12.416678,18.8764Q12.355258,18.83536,12.287013,18.80709Q12.218767,18.77882,12.146318,18.764409999999998Q12.0738685,18.75,12,18.75Q11.9261315,18.75,11.853682,18.764409999999998Q11.781233,18.77882,11.712987,18.80709Q11.644742,18.83536,11.583322,18.8764Q11.521903,18.91744,11.46967,18.96967Q11.417437,19.0219,11.376398,19.08332Q11.335359,19.14474,11.30709,19.212989999999998Q11.278822,19.28123,11.264410999999999,19.35368Q11.25,19.42613,11.25,19.5Q11.25,20.43198,11.9090095,21.090989999999998Q12.56802,21.75,13.5,21.75Q14.43198,21.75,15.09099,21.090989999999998Q15.75,20.43198,15.75,19.5L15.75,15Q15.75,14.9261315,15.73559,14.853682Q15.72118,14.781233,15.69291,14.712987Q15.66464,14.644742,15.6236,14.583322Q15.58256,14.521903,15.53033,14.46967Q15.4781,14.417437,15.41668,14.376398Q15.35526,14.335359,15.28701,14.30709Q15.21877,14.278822,15.14632,14.264410999999999Q15.07387,14.25,15,14.25L12,14.25Q11.9261315,14.25,11.853682,14.264410999999999Q11.781233,14.278822,11.712987,14.30709Q11.644742,14.335359,11.583322,14.376398Q11.521903,14.417437,11.46967,14.46967Q11.417437,14.521903,11.376398,14.583322Q11.335359,14.644742,11.30709,14.712987Q11.278822,14.781233,11.264410999999999,14.853682Q11.25,14.9261315,11.25,15Q11.25,15.0738685,11.264410999999999,15.146318Q11.278822,15.218767,11.30709,15.287013Q11.335359,15.355258,11.376398,15.416678Q11.417437,15.478097,11.46967,15.53033Q11.521903,15.582563,11.583322,15.623602Q11.644742,15.664641,11.712987,15.69291Q11.781233,15.721178,11.853682,15.735589000000001Q11.9261315,15.75,12,15.75L14.25,15.75L14.25,19.5Q14.25,19.81066,14.03033,20.03033Q13.81066,20.25,13.5,20.25Q13.18934,20.25,12.96967,20.03033Z" fill-rule="evenodd" fill="#2882FF" fill-opacity="1"/></g><g><path d="M19,15.75L20.25,15.75Q20.25,15.823869,20.264409999999998,15.896318Q20.27882,15.968767,20.30709,16.03701Q20.33536,16.10526,20.3764,16.16668Q20.41744,16.2281,20.46967,16.28033Q20.5219,16.33256,20.58332,16.3736Q20.64474,16.41464,20.71299,16.44291Q20.78123,16.47118,20.85368,16.48559Q20.92613,16.5,21,16.5Q21.07387,16.5,21.14632,16.48559Q21.21877,16.47118,21.28701,16.44291Q21.35526,16.41464,21.41668,16.3736Q21.4781,16.33256,21.53033,16.28033Q21.58256,16.2281,21.6236,16.16668Q21.66464,16.10526,21.69291,16.03701Q21.72118,15.968767,21.735590000000002,15.896318Q21.75,15.823869,21.75,15.75Q21.75,15.12868,21.31066,14.68934Q20.87132,14.25,20.25,14.25L19,14.25Q18.275126,14.25,17.762563,14.762563Q17.25,15.275126,17.25,16L17.25,17Q17.25,17.72487,17.762563,18.23744Q18.275126,18.75,19,18.75L20,18.75Q20.10355,18.75,20.17678,18.82322Q20.25,18.89645,20.25,19L20.25,20Q20.25,20.10355,20.17678,20.17678Q20.10355,20.25,20,20.25L18.75,20.25Q18.75,20.17613,18.735589,20.10368Q18.721178,20.03123,18.692909,19.962989999999998Q18.664641,19.89474,18.623601999999998,19.83332Q18.582563,19.7719,18.53033,19.71967Q18.478096999999998,19.66744,18.416678,19.6264Q18.355258,19.58536,18.287013,19.55709Q18.218767,19.52882,18.146318,19.514409999999998Q18.0738685,19.5,18,19.5Q17.9261315,19.5,17.853682,19.514409999999998Q17.781233,19.52882,17.712987,19.55709Q17.644742,19.58536,17.583322,19.6264Q17.521903000000002,19.66744,17.46967,19.71967Q17.417437,19.7719,17.376398000000002,19.83332Q17.335359,19.89474,17.30709,19.962989999999998Q17.278822,20.03123,17.264411,20.10368Q17.25,20.17613,17.25,20.25Q17.25,20.87116,17.689421,21.31058Q18.128841,21.75,18.75,21.75L20,21.75Q20.72487,21.75,21.23744,21.23744Q21.75,20.72487,21.75,20L21.75,19Q21.75,18.27513,21.23744,17.76256Q20.72487,17.25,20,17.25L19,17.25Q18.896446,17.25,18.823223,17.17678Q18.75,17.10355,18.75,17L18.75,16Q18.75,15.896446,18.823223,15.823223Q18.896446,15.75,19,15.75Z" fill-rule="evenodd" fill="#2882FF" fill-opacity="1"/></g></g></svg>