<svg xmlns="http://www.w3.org/2000/svg" xmlns:xlink="http://www.w3.org/1999/xlink" fill="none" version="1.1" width="24" height="24" viewBox="0 0 24 24"><defs><clipPath id="master_svg0_76_01439"><rect x="0" y="0" width="24" height="24" rx="0"/></clipPath><clipPath id="master_svg1_76_01442"><rect x="2" y="7" width="20" height="10" rx="0"/></clipPath><linearGradient x1="0" y1="0.002222222276031971" x2="0" y2="1" id="master_svg2_72_05736"><stop offset="0%" stop-color="#00AAEE" stop-opacity="1"/><stop offset="100%" stop-color="#0055AA" stop-opacity="1"/></linearGradient></defs><g clip-path="url(#master_svg0_76_01439)"><g clip-path="url(#master_svg1_76_01442)"><g><path d="M22,7L2,7L2,17L12.1099,17" fill="url(#master_svg2_72_05736)" fill-opacity="1" style="mix-blend-mode:passthrough"/></g><g><path d="M11.890041875,8.99997118359375L11.890041875,13.711078183593749L10.175761875,8.99997118359375L8.461471875,8.99997118359375L7.010921875,12.91107818359375C6.835101875,11.93330818359375,5.824111875,11.57774818359375,5.032901875,11.31107818359375C4.505431875,11.13330818359375,3.934001875,10.91107818359375,3.934001875,10.59996818359375C3.934001875,10.37774818359375,4.241691875,10.15552818359375,4.813121875,10.19996818359375C5.208731875,10.24441818359375,5.5603718749999995,10.24441818359375,6.263671875,10.59996818359375L6.966971875,9.39997118359375C6.307631875,9.04441618359375,5.428511875,8.86663818359375,4.725211874999999,8.86663818359375C3.890041875,8.86663818359375,3.186748875,9.13330518359375,2.747187875,9.57774918359375C2.439495875,9.88885818359375,2.307627875,10.28885818359375,2.263671875,10.73330818359375C2.263671875,11.35552818359375,2.483451875,11.79996818359375,2.966968875,12.15552818359375C3.362571875,12.42219818359375,3.846091875,12.59996818359375,4.285651875,12.73330818359375C4.857081875,12.91107818359375,5.296641875000001,13.08885818359375,5.296641875000001,13.39996818359375C5.252681875,13.79996818359375,4.813121875,13.88885818359375,4.505431875,13.88885818359375C3.977961875,13.93330818359375,3.538401875,13.84441818359375,2.879056875,13.44441818359375L2.263671875,14.64441818359375C2.923012875,15.04441818359375,3.626311875,15.22219818359375,4.461471875,15.22219818359375C5.032901875,15.22219818359375,5.912021875000001,15.04441818359375,6.395541875,14.599968183593749L6.307631875,14.99996818359375L7.977961875,14.99996818359375L8.285651875,14.24441818359375C8.944991875,14.42219818359375,9.692241875,14.46663818359375,10.351581875,14.24441818359375L10.571361875,14.99996818359375L13.560371875,14.99996818359375L13.560371875,13.22219818359375L14.175771875,13.22219818359375C15.714171875,13.22219818359375,16.637271875,12.46663818359375,16.637271875,11.13330818359375C16.637271875,9.62219418359375,15.758171875,8.99997118359375,13.868071875,8.99997118359375L11.890041875,8.99997118359375ZM8.681251875000001,12.91107818359375L9.296641874999999,10.91107818359375L9.340591875000001,10.91107818359375L9.955981874999999,12.91107818359375C9.516421874999999,13.04441818359375,9.076861874999999,13.04441818359375,8.681251875000001,12.91107818359375ZM13.560371875,11.88885818359375L13.560371875,10.28885818359375L13.999971875,10.28885818359375C14.571371875,10.28885818359375,15.010971875,10.46663818359375,15.010971875,11.04441818359375C15.010971875,11.66663818359375,14.571371875,11.88885818359375,13.999971875,11.88885818359375L13.560371875,11.88885818359375Z" fill="#FFFFFF" fill-opacity="1" style="mix-blend-mode:passthrough"/></g></g></g></svg>