<svg xmlns="http://www.w3.org/2000/svg" xmlns:xlink="http://www.w3.org/1999/xlink" fill="none" version="1.1" width="24" height="24" viewBox="0 0 24 24"><defs><clipPath id="master_svg0_48_03118"><rect x="0" y="0" width="24" height="24" rx="0"/></clipPath></defs><g clip-path="url(#master_svg0_48_03118)"><g><path d="M20.999984741210938,7.5L3.0000000000109375,7.5Q2.9261315412109377,7.5,2.8536827412109376,7.514411Q2.7812337412109374,7.528822,2.7129877412109376,7.55709Q2.6447417412109377,7.585359,2.5833227412109374,7.626398Q2.5219027412109374,7.667437,2.4696707412109378,7.71967Q2.4174377412109376,7.771903,2.3763977412109374,7.833322Q2.3353587412109373,7.894742,2.3070907412109376,7.962987Q2.2788227412109374,8.031233,2.2644117412109375,8.103682Q2.2499997412109374,8.1761314,2.2499997412109374,8.25L2.2499897412109373,17.24998Q2.2499867412109373,18.8033,3.3483367412109377,19.901600000000002Q4.446684741210937,21,5.9999847412109375,21L17.999984741210938,21Q19.553284741210938,21,20.65168474121094,19.901600000000002Q21.749984741210938,18.8033,21.749984741210938,17.24999L21.749984741210938,8.25Q21.749984741210938,8.1761315,21.73558474121094,8.103682Q21.721184741210937,8.031233,21.69288474121094,7.962987Q21.664584741210938,7.894742,21.623584741210937,7.833322Q21.582584741210937,7.771903,21.530284741210938,7.71967Q21.47808474121094,7.667437,21.416684741210936,7.626398Q21.355284741210937,7.585359,21.286984741210937,7.55709Q21.21878474121094,7.528822,21.146284741210938,7.514411Q21.073884741210936,7.5,20.999984741210938,7.5ZM3.7499987412109377,9L3.7499897412109373,17.24998Q3.7499877412109375,18.18197,4.408994741210938,18.841Q5.068004741210938,19.5,5.9999847412109375,19.5L17.999984741210938,19.5Q18.93198474121094,19.5,19.59098474121094,18.841Q20.249984741210938,18.18197,20.249984741210938,17.24999L20.249984741210938,9L3.7499987412109377,9Z" fill-rule="evenodd" fill="#231F2E" fill-opacity="1"/></g><g><path d="M2.25,6.75Q2.25,5.1967,3.34835,4.09835Q4.4467,3.00000488758,6,3.00000435114L18,3Q19.5534,3,20.6535,4.10792Q21.75,5.21217,21.75,6.76539L21.75,8.25001C21.75,8.66423,21.4142,9.00001,21,9.00001L3,9.00001C2.585786,9.00001,2.25,8.66423,2.25,8.25001L2.25,6.75ZM4.5,6L4.5,6.008C4.5,6.42221,4.835789999999999,6.758,5.25,6.758L5.258,6.758C5.67221,6.758,6.008,6.42221,6.008,6.008L6.008,6C6.008,5.585789999999999,5.67221,5.25,5.258,5.25L5.25,5.25C4.835789999999999,5.25,4.5,5.585789999999999,4.5,6ZM6.75,6L6.75,6.008C6.75,6.42221,7.08579,6.758,7.5,6.758L7.508,6.758C7.92221,6.758,8.258,6.42221,8.258,6.008L8.258,6C8.258,5.585789999999999,7.92221,5.25,7.508,5.25L7.5,5.25C7.08579,5.25,6.75,5.585789999999999,6.75,6ZM10.508,6.008L10.508,6C10.508,5.585789999999999,10.17221,5.25,9.758,5.25L9.75,5.25C9.33579,5.25,9,5.585789999999999,9,6L9,6.008C9,6.42221,9.33579,6.758,9.75,6.758L9.758,6.758C10.17221,6.758,10.508,6.42221,10.508,6.008Z" fill-rule="evenodd" fill="#231F2E" fill-opacity="1"/></g><g><g><path d="M12,13.42705L13.828949999999999,17.08495L13.829180000000001,17.08541Q13.8759,17.17884,13.94637,17.25596Q14.01684,17.33307,14.105699999999999,17.387990000000002Q14.19456,17.44291,14.29505,17.47145Q14.39554,17.5,14.5,17.5Q14.57387,17.5,14.64632,17.485590000000002Q14.71877,17.47118,14.78701,17.44291Q14.855260000000001,17.41464,14.91668,17.3736Q14.978100000000001,17.33256,15.03033,17.28033Q15.08256,17.2281,15.1236,17.16668Q15.16464,17.10526,15.192910000000001,17.037010000000002Q15.22118,16.96877,15.23559,16.89632Q15.25,16.82387,15.25,16.75Q15.25,16.57295,15.170819999999999,16.41459L15.17059,16.41413L12.670819999999999,11.41459Q12.637789999999999,11.34852,12.5925,11.290164Q12.54721,11.231808000000001,12.4914,11.18341Q12.4356,11.135011,12.37142,11.098429Q12.30725,11.061847,12.237169999999999,11.038488Q12.16709,11.015128,12.0938,11.005889Q12.02052,10.99665,11.94683,11.001887Q11.873149999999999,11.007123,11.8019,11.026634Q11.73066,11.046145,11.66459,11.079180000000001Q11.55573,11.133609,11.46967,11.21967Q11.383610000000001,11.305731,11.329180000000001,11.41459L8.829245,16.41446L8.829180000000001,16.41459Q8.75,16.57295,8.75,16.75Q8.75,16.82387,8.764410999999999,16.89632Q8.778822,16.96877,8.80709,17.037010000000002Q8.835359,17.10526,8.876398,17.16668Q8.917437,17.2281,8.96967,17.28033Q9.021903,17.33256,9.083322,17.3736Q9.144742,17.41464,9.212987,17.44291Q9.281233,17.47118,9.353682,17.485590000000002Q9.4261315,17.5,9.5,17.5Q9.604463,17.5,9.70495,17.47145Q9.805437,17.44291,9.894298,17.387990000000002Q9.98316,17.33307,10.053631,17.25596Q10.124103,17.17884,10.170819999999999,17.08541L12,13.42705Z" fill-rule="evenodd" fill="#2882FF" fill-opacity="1"/></g><g><path d="M10.214314758777618,14.585154056549072L13.785744758777618,14.585154056549072Q13.859614758777619,14.585154056549072,13.932064758777619,14.599565056549071Q14.004504758777617,14.613976056549072,14.072754758777618,14.642244056549073Q14.141004758777619,14.670513056549073,14.202424758777617,14.711552056549072Q14.26384475877762,14.752591056549072,14.316074758777617,14.804824056549073Q14.368304758777619,14.857057056549072,14.409344758777618,14.918476056549073Q14.450384758777618,14.979896056549073,14.478654758777619,15.048141056549072Q14.506924758777618,15.116387056549073,14.521334758777618,15.188836056549071Q14.535744758777618,15.261285556549073,14.535744758777618,15.335154056549072Q14.535744758777618,15.409022556549072,14.521334758777618,15.481472056549073Q14.506924758777618,15.553921056549072,14.478654758777619,15.622167056549072Q14.450384758777618,15.690412056549071,14.409344758777618,15.751832056549071Q14.368304758777619,15.813251056549072,14.316074758777617,15.865484056549072Q14.26384475877762,15.917717056549073,14.202424758777617,15.958756056549072Q14.141004758777619,15.999795056549072,14.072754758777618,16.028064056549074Q14.004504758777617,16.05633205654907,13.932064758777619,16.070743056549073Q13.859614758777619,16.085154056549072,13.785744758777618,16.085154056549072L10.214314758777618,16.085154056549072Q10.140446258777619,16.085154056549072,10.067996758777618,16.070743056549073Q9.995547758777619,16.05633205654907,9.927301758777618,16.028064056549074Q9.85905675877762,15.999795056549072,9.79763675877762,15.958756056549072Q9.736217758777618,15.917717056549073,9.683984758777619,15.865484056549072Q9.631751758777618,15.813251056549072,9.590712758777618,15.751832056549071Q9.549673758777619,15.690412056549071,9.521404758777619,15.622167056549072Q9.493136758777618,15.553921056549072,9.478725758777617,15.481472056549073Q9.464314758777618,15.409022556549072,9.464314758777618,15.335154056549072Q9.464314758777618,15.261285556549073,9.478725758777617,15.188836056549071Q9.493136758777618,15.116387056549073,9.521404758777619,15.048141056549072Q9.549673758777619,14.979896056549073,9.590712758777618,14.918476056549073Q9.631751758777618,14.857057056549072,9.683984758777619,14.804824056549073Q9.736217758777618,14.752591056549072,9.79763675877762,14.711552056549072Q9.85905675877762,14.670513056549073,9.927301758777618,14.642244056549073Q9.995547758777619,14.613976056549072,10.067996758777618,14.599565056549071Q10.140446258777619,14.585154056549072,10.214314758777618,14.585154056549072Z" fill-rule="evenodd" fill="#2882FF" fill-opacity="1"/></g></g></g></svg>