<svg xmlns="http://www.w3.org/2000/svg" xmlns:xlink="http://www.w3.org/1999/xlink" fill="none" version="1.1" width="24" height="24" viewBox="0 0 24 24"><defs><clipPath id="master_svg0_60_01207"><rect x="0" y="0" width="24" height="24" rx="0"/></clipPath></defs><g clip-path="url(#master_svg0_60_01207)"><g><path d="M20.25,9L20.25,14.24999Q20.25,14.32386,20.2644,14.39631Q20.2788,14.46876,20.3071,14.53701Q20.3354,14.60525,20.3764,14.66667Q20.4174,14.72809,20.4697,14.78032Q20.5219,14.83256,20.5833,14.8736Q20.6448,14.914629999999999,20.713,14.9429Q20.7812,14.97117,20.8537,14.985579999999999Q20.9261,14.99999,21,14.99999Q21.0739,14.99999,21.1463,14.985579999999999Q21.2188,14.97117,21.287,14.9429Q21.3553,14.914629999999999,21.4167,14.8736Q21.4781,14.83256,21.5303,14.78032Q21.5826,14.72809,21.6236,14.66667Q21.6646,14.60525,21.6929,14.53701Q21.7212,14.46876,21.7356,14.39631Q21.75,14.32386,21.75,14.24999L21.75,8.25Q21.75,8.1761315,21.7356,8.103682Q21.7212,8.031233,21.6929,7.962987Q21.6646,7.894742,21.6236,7.833322Q21.5826,7.771903,21.5303,7.71967Q21.4781,7.667437,21.4167,7.626398Q21.3553,7.585359,21.287,7.55709Q21.2188,7.528822,21.1463,7.514411Q21.0739,7.5,21,7.5L3.0000152588,7.5Q2.9261468,7.5,2.853698,7.514411Q2.781249,7.528822,2.713003,7.55709Q2.6447570000000002,7.585359,2.583338,7.626398Q2.521918,7.667437,2.4696860000000003,7.71967Q2.417453,7.771903,2.376413,7.833322Q2.335374,7.894742,2.307106,7.962987Q2.278838,8.031233,2.264427,8.103682Q2.250015,8.1761314,2.250015,8.25L2.250004,17.24998Q2.250002,18.8033,3.348352,19.901600000000002Q4.4467,21,6,21L12.00001,21Q12.07387,21,12.14632,20.985599999999998Q12.21877,20.9712,12.28702,20.9429Q12.35526,20.9146,12.41668,20.8736Q12.4781,20.8325,12.53034,20.7803Q12.58257,20.728099999999998,12.62361,20.6667Q12.66465,20.6052,12.69291,20.537Q12.72118,20.4688,12.73559,20.3963Q12.75001,20.323900000000002,12.75001,20.25Q12.75001,20.176099999999998,12.73559,20.1037Q12.72118,20.0312,12.69291,19.963Q12.66465,19.8947,12.62361,19.8333Q12.58257,19.771900000000002,12.53034,19.7197Q12.4781,19.6674,12.41668,19.6264Q12.35526,19.5853,12.28702,19.5571Q12.21877,19.5288,12.14632,19.514400000000002Q12.07387,19.5,12.00001,19.5L6,19.5Q5.068020000000001,19.5,4.40901,18.841Q3.750003,18.18197,3.750004,17.24998L3.750014,9L20.25,9Z" fill-rule="evenodd" fill="#231F2E" fill-opacity="1"/></g><g><path d="M2.25,6.75Q2.25,5.1967,3.34835,4.09835Q4.4467,3.00000488758,6,3.00000435114L18,3Q19.5534,3,20.6535,4.10792Q21.75,5.21217,21.75,6.76539L21.75,8.25001C21.75,8.66423,21.4142,9.00001,21,9.00001L3,9.00001C2.585786,9.00001,2.25,8.66423,2.25,8.25001L2.25,6.75ZM4.5,6L4.5,6.008C4.5,6.42221,4.835789999999999,6.758,5.25,6.758L5.258,6.758C5.67221,6.758,6.008,6.42221,6.008,6.008L6.008,6C6.008,5.585789999999999,5.67221,5.25,5.258,5.25L5.25,5.25C4.835789999999999,5.25,4.5,5.585789999999999,4.5,6ZM6.75,6L6.75,6.008C6.75,6.42221,7.08579,6.758,7.5,6.758L7.508,6.758C7.92221,6.758,8.258,6.42221,8.258,6.008L8.258,6C8.258,5.585789999999999,7.92221,5.25,7.508,5.25L7.5,5.25C7.08579,5.25,6.75,5.585789999999999,6.75,6ZM10.508,6.008L10.508,6C10.508,5.585789999999999,10.17221,5.25,9.758,5.25L9.75,5.25C9.33579,5.25,9,5.585789999999999,9,6L9,6.008C9,6.42221,9.33579,6.758,9.75,6.758L9.758,6.758C10.17221,6.758,10.508,6.42221,10.508,6.008Z" fill-rule="evenodd" fill="#231F2E" fill-opacity="1"/></g><g><path d="M9.999999453125,16.76471L9.529479453124999,16.76471Q8.810697453125,16.7647,8.302443593125,16.25645Q7.794190453125,15.748190000000001,7.794190453125,15.02941L7.794189453125,11.7353Q7.794189453125,11.016515,8.302445463125,10.50825867Q8.810701453125,10.000002,9.529479453124999,10.000002L14.470649453124999,10Q15.189429453125001,10,15.697689453125001,10.5082576Q16.205949453125,11.016515,16.205939453124998,11.7353L16.205939453124998,15.02941Q16.205939453124998,15.748190000000001,15.697679453125,16.25645Q15.189429453125001,16.7647,14.470649453124999,16.7647L12.709299453125,16.76471L10.756079453125,17.92944Q10.713789453124999,17.95466,10.667379453125001,17.97115Q10.620979453124999,17.98764,10.572249453125,17.99475Q10.523519453125001,18.00187,10.474339453125,17.99934Q10.425159453125,17.99681,10.377419453125,17.984740000000002Q10.329669453125,17.97267,10.285199453125,17.95151Q10.240729453125,17.93035,10.201249453125,17.90093Q10.161759453125,17.87151,10.128769453125,17.83494Q10.095779453125001,17.79838,10.070559453125,17.75608Q9.999999453125,17.63776,9.999999453125,17.5L9.999999453125,16.76471ZM10.999999453125,16.26471Q10.999999453125,16.21546,10.990389453125001,16.16716Q10.980789453125,16.118859999999998,10.961939453125,16.07337Q10.943099453125,16.02787,10.915739453125,15.98692Q10.888379453125001,15.945979999999999,10.853549453125,15.911159999999999Q10.818729453125,15.876339999999999,10.777789453125,15.848980000000001Q10.736839453125,15.82162,10.691339453125,15.802769999999999Q10.645849453124999,15.78392,10.597549453125,15.77432Q10.549249453125,15.764710000000001,10.499999453125,15.764710000000001L9.529479453124999,15.764710000000001Q9.224913453125,15.764700000000001,9.009551453125,15.54934Q8.794190453125,15.33398,8.794190453125,15.02941L8.794189453125,11.7353Q8.794189453125,11.430728,9.009552453125,11.215365Q9.224915453125,11.000002,9.529479453124999,11.000002L14.470649453124999,11Q14.775219453125,11,14.990579453125001,11.215364Q15.205949453125001,11.430728,15.205939453125,11.7353L15.205939453125,15.02941Q15.205939453125,15.33398,14.990579453125001,15.54934Q14.775209453125001,15.764700000000001,14.470649453124999,15.764700000000001L12.571529453124999,15.764710000000001Q12.433769453124999,15.764710000000001,12.315449453125,15.835270000000001L10.999999453125,16.61969L10.999999453125,16.26471Z" fill-rule="evenodd" fill="#231F2E" fill-opacity="1"/></g><g><path d="M10.5,12L13.5,12Q13.54925,12,13.59754,12.009607Q13.64584,12.019214999999999,13.69134,12.03806Q13.73684,12.056906,13.77778,12.084265Q13.81873,12.111625,13.85355,12.146447Q13.88837,12.181269,13.91573,12.222215Q13.94309,12.263161,13.96194,12.308658Q13.98078,12.354155,13.99039,12.4024549Q14,12.4507543,14,12.5Q14,12.5492457,13.99039,12.5975451Q13.98078,12.645845,13.96194,12.691342Q13.94309,12.736839,13.91573,12.777785Q13.88837,12.818731,13.85355,12.853553Q13.81873,12.888375,13.77778,12.915735Q13.73684,12.943094,13.69134,12.96194Q13.64584,12.980785000000001,13.59754,12.990393Q13.54925,13,13.5,13L10.5,13Q10.4507543,13,10.4024549,12.990393Q10.354155,12.980785000000001,10.308658,12.96194Q10.263161,12.943094,10.222215,12.915735Q10.181269,12.888375,10.146447,12.853553Q10.111625,12.818731,10.084265,12.777785Q10.056906,12.736839,10.03806,12.691342Q10.019214999999999,12.645845,10.009607,12.5975451Q10,12.5492457,10,12.5Q10,12.4507543,10.009607,12.4024549Q10.019214999999999,12.354155,10.03806,12.308658Q10.056906,12.263161,10.084265,12.222215Q10.111625,12.181269,10.146447,12.146447Q10.181269,12.111625,10.222215,12.084265Q10.263161,12.056906,10.308658,12.03806Q10.354155,12.019214999999999,10.4024549,12.009607Q10.4507543,12,10.5,12Z" fill-rule="evenodd" fill="#2882FF" fill-opacity="1"/></g><g><path d="M10.5,14L12.5,14Q12.54925,14,12.59754,14.009607Q12.64584,14.019214999999999,12.69134,14.03806Q12.73684,14.056906,12.77778,14.084265Q12.81873,14.111625,12.85355,14.146447Q12.88838,14.181269,12.91573,14.222215Q12.94309,14.263161,12.96194,14.308658Q12.98078,14.354155,12.99039,14.4024549Q13,14.4507543,13,14.5Q13,14.5492457,12.99039,14.5975451Q12.98078,14.645845,12.96194,14.691342Q12.94309,14.736839,12.91573,14.777785Q12.88838,14.818731,12.85355,14.853553Q12.81873,14.888375,12.77779,14.915735Q12.73684,14.943094,12.69134,14.96194Q12.64584,14.980785000000001,12.59754,14.990393Q12.54925,15,12.5,15L10.5,15Q10.4507543,15,10.4024549,14.990393Q10.354155,14.980785000000001,10.308658,14.96194Q10.263161,14.943094,10.222215,14.915735Q10.181269,14.888375,10.146447,14.853553Q10.111625,14.818731,10.084265,14.777785Q10.056906,14.736839,10.03806,14.691342Q10.019214999999999,14.645845,10.009607,14.5975451Q10,14.5492457,10,14.5Q10,14.4507543,10.009607,14.4024549Q10.019214999999999,14.354155,10.03806,14.308658Q10.056906,14.263161,10.084265,14.222215Q10.111625,14.181269,10.146447,14.146447Q10.181269,14.111625,10.222215,14.084265Q10.263161,14.056906,10.308658,14.03806Q10.354155,14.019214999999999,10.4024549,14.009607Q10.4507543,14,10.5,14Z" fill-rule="evenodd" fill="#2882FF" fill-opacity="1"/></g><g><path d="M18.25,16Q18.25,15.9261315,18.264411,15.853682Q18.278822,15.781233,18.30709,15.712987Q18.335359,15.644742,18.376398000000002,15.583322Q18.417437,15.521903,18.46967,15.46967Q18.521903000000002,15.417437,18.583322,15.376398Q18.644742,15.335359,18.712987,15.30709Q18.781233,15.278822,18.853682,15.264410999999999Q18.9261315,15.25,19,15.25Q19.0738685,15.25,19.146318,15.264410999999999Q19.218767,15.278822,19.287013,15.30709Q19.355258,15.335359,19.416678,15.376398Q19.478096999999998,15.417437,19.53033,15.46967Q19.582563,15.521903,19.623601999999998,15.583322Q19.664641,15.644742,19.69291,15.712987Q19.721178,15.781233,19.735589,15.853682Q19.75,15.9261315,19.75,16L19.75,22Q19.75,22.07387,19.735589,22.14632Q19.721178,22.21877,19.69291,22.287010000000002Q19.664641,22.35526,19.623601999999998,22.41668Q19.582563,22.4781,19.53033,22.53033Q19.478096999999998,22.58256,19.416678,22.6236Q19.355258,22.66464,19.287013,22.69291Q19.218767,22.72118,19.146318,22.735590000000002Q19.0738685,22.75,19,22.75Q18.9261315,22.75,18.853682,22.735590000000002Q18.781233,22.72118,18.712987,22.69291Q18.644742,22.66464,18.583322,22.6236Q18.521903000000002,22.58256,18.46967,22.53033Q18.417437,22.4781,18.376398000000002,22.41668Q18.335359,22.35526,18.30709,22.287010000000002Q18.278822,22.21877,18.264411,22.14632Q18.25,22.07387,18.25,22L18.25,16Z" fill-rule="evenodd" fill="#2882FF" fill-opacity="1"/></g><g><path d="M16.530484,18.469824L19,20.93934L21.46921,18.470132L21.46967,18.46967Q21.57516,18.364181,21.712989999999998,18.30709Q21.85082,18.25,22,18.25Q22.07387,18.25,22.14632,18.264411Q22.21877,18.278822,22.287010000000002,18.30709Q22.35526,18.335359,22.41668,18.376398000000002Q22.4781,18.417437,22.53033,18.46967Q22.58256,18.521903000000002,22.6236,18.583322Q22.66464,18.644742,22.69291,18.712987Q22.72118,18.781233,22.735590000000002,18.853682Q22.75,18.9261315,22.75,19Q22.75,19.149184,22.69291,19.287013Q22.63582,19.424841,22.53033,19.53033L22.52987,19.530792L19.53033,22.53033Q19.42484,22.63582,19.28701,22.69291Q19.14918,22.75,19,22.75Q18.85082,22.75,18.71299,22.69291Q18.57516,22.63582,18.46967,22.53033L15.46967,19.53033Q15.364181,19.424841,15.30709,19.287013Q15.25,19.149184,15.25,19Q15.25,18.9261315,15.264410999999999,18.853682Q15.278822,18.781233,15.30709,18.712987Q15.335359,18.644742,15.376398,18.583322Q15.417437,18.521903000000002,15.46967,18.46967Q15.521903,18.417437,15.583322,18.376398000000002Q15.644742,18.335359,15.712987,18.30709Q15.781233,18.278822,15.853682,18.264411Q15.9261315,18.25,16,18.25Q16.149184,18.25,16.287013,18.30709Q16.424841,18.364181,16.53033,18.46967L16.530484,18.469824Z" fill-rule="evenodd" fill="#2882FF" fill-opacity="1"/></g></g></svg>