<svg xmlns="http://www.w3.org/2000/svg" xmlns:xlink="http://www.w3.org/1999/xlink" fill="none" version="1.1" width="24" height="24" viewBox="0 0 24 24"><defs><clipPath id="master_svg0_61_01124"><rect x="0" y="0" width="24" height="24" rx="0"/></clipPath></defs><g clip-path="url(#master_svg0_61_01124)"><g><path d="M2.860913,3.360913Q1.25,4.971830000000001,1.25,7.25Q1.25,7.32387,1.264411,7.39632Q1.278822,7.46877,1.30709,7.53701Q1.335359,7.60526,1.376398,7.66668Q1.417437,7.7281,1.46967,7.78033Q1.521903,7.83256,1.583322,7.8736Q1.644742,7.91464,1.712987,7.94291Q1.781233,7.97118,1.853682,7.98559Q1.9261314999999999,8,2,8Q2.0738685,8,2.146318,7.98559Q2.218767,7.97118,2.287013,7.94291Q2.355258,7.91464,2.416678,7.8736Q2.478097,7.83256,2.53033,7.78033Q2.582563,7.7281,2.623602,7.66668Q2.664641,7.60526,2.69291,7.53701Q2.721178,7.46877,2.735589,7.39632Q2.75,7.32387,2.75,7.25Q2.75,5.59315,3.92157,4.42157Q5.09315,3.25,6.75,3.25L7,3.25Q7.07387,3.25,7.14632,3.235589Q7.21877,3.221178,7.28701,3.19291Q7.35526,3.164641,7.41668,3.123602Q7.4781,3.082563,7.53033,3.03033Q7.58256,2.978097,7.6236,2.916678Q7.66464,2.855258,7.69291,2.787013Q7.72118,2.718767,7.73559,2.646318Q7.75,2.5738685,7.75,2.5Q7.75,2.4261315,7.73559,2.353682Q7.72118,2.281233,7.69291,2.212987Q7.66464,2.144742,7.6236,2.083322Q7.58256,2.021903,7.53033,1.96967Q7.4781,1.917437,7.41668,1.876398Q7.35526,1.835359,7.28701,1.80709Q7.21877,1.778822,7.14632,1.764411Q7.07387,1.75,7,1.75L6.75,1.75Q4.471830000000001,1.75,2.860913,3.360913ZM17,1.75L17.25,1.75Q19.5282,1.75,21.1391,3.360913Q22.75,4.97182,22.75,7.25Q22.75,7.32387,22.7356,7.39632Q22.7212,7.46877,22.6929,7.53701Q22.6646,7.60526,22.6236,7.66668Q22.5826,7.7281,22.5303,7.78033Q22.4781,7.83256,22.4167,7.8736Q22.3553,7.91464,22.287,7.94291Q22.2188,7.97118,22.1463,7.98559Q22.0739,8,22,8Q21.9261,8,21.8537,7.98559Q21.7812,7.97118,21.713,7.94291Q21.6447,7.91464,21.5833,7.8736Q21.5219,7.83256,21.4697,7.78033Q21.4174,7.7281,21.3764,7.66668Q21.3354,7.60526,21.3071,7.53701Q21.2788,7.46877,21.2644,7.39632Q21.25,7.32387,21.25,7.25Q21.25,5.59314,20.0784,4.42157Q18.9069,3.25,17.25,3.25L17,3.25Q16.926099999999998,3.25,16.8537,3.235589Q16.7812,3.221178,16.713,3.19291Q16.6447,3.164641,16.5833,3.123602Q16.521900000000002,3.082563,16.4697,3.03033Q16.4174,2.978097,16.3764,2.916678Q16.3354,2.855258,16.3071,2.787013Q16.2788,2.718767,16.264400000000002,2.646318Q16.25,2.5738685,16.25,2.5Q16.25,2.4261315,16.264400000000002,2.353682Q16.2788,2.281233,16.3071,2.212987Q16.3354,2.144742,16.3764,2.083322Q16.4174,2.021903,16.4697,1.96967Q16.521900000000002,1.917437,16.5833,1.876398Q16.6447,1.835359,16.713,1.80709Q16.7812,1.778822,16.8537,1.764411Q16.926099999999998,1.75,17,1.75ZM1.25,16.75Q1.25,16.676099999999998,1.264411,16.6037Q1.278822,16.5312,1.30709,16.463Q1.335359,16.3947,1.376398,16.3333Q1.417437,16.271900000000002,1.46967,16.2197Q1.521903,16.1674,1.583322,16.1264Q1.644742,16.0854,1.712987,16.0571Q1.781233,16.0288,1.853682,16.014400000000002Q1.9261314999999999,16,2,16Q2.0738685,16,2.146318,16.014400000000002Q2.218767,16.0288,2.287013,16.0571Q2.355258,16.0854,2.416678,16.1264Q2.478097,16.1674,2.53033,16.2197Q2.582563,16.271900000000002,2.623602,16.3333Q2.664641,16.3947,2.69291,16.463Q2.721178,16.5312,2.735589,16.6037Q2.75,16.676099999999998,2.75,16.75Q2.75,18.4069,3.92157,19.5784Q5.09315,20.75,6.75,20.75L7,20.75Q7.07387,20.75,7.14632,20.7644Q7.21877,20.7788,7.28701,20.8071Q7.35526,20.8354,7.41668,20.8764Q7.4781,20.9174,7.53033,20.9697Q7.58256,21.0219,7.6236,21.0833Q7.66464,21.1447,7.69291,21.213Q7.72118,21.2812,7.73559,21.3537Q7.75,21.4261,7.75,21.5Q7.75,21.5739,7.73559,21.6463Q7.72118,21.7188,7.69291,21.787Q7.66464,21.8553,7.6236,21.9167Q7.58256,21.9781,7.53033,22.0303Q7.4781,22.0826,7.41668,22.1236Q7.35526,22.1646,7.28701,22.1929Q7.21877,22.2212,7.14632,22.2356Q7.07387,22.25,7,22.25L6.75,22.25Q4.47182,22.25,2.860913,20.6391Q1.250318,19.0285,1.2500010000000001,16.7509L1.25,16.75L1.25,16.75ZM21.25,16.75Q21.25,16.676099999999998,21.2644,16.6037Q21.2788,16.5312,21.3071,16.463Q21.3354,16.3947,21.3764,16.3333Q21.4174,16.271900000000002,21.4697,16.2197Q21.5219,16.1674,21.5833,16.1264Q21.6447,16.0854,21.713,16.0571Q21.7812,16.0288,21.8537,16.014400000000002Q21.9261,16,22,16Q22.0739,16,22.1463,16.014400000000002Q22.2188,16.0288,22.287,16.0571Q22.3553,16.0854,22.4167,16.1264Q22.4781,16.1674,22.5303,16.2197Q22.5826,16.271900000000002,22.6236,16.3333Q22.6646,16.3947,22.6929,16.463Q22.7212,16.5312,22.7356,16.6037Q22.75,16.676099999999998,22.75,16.75Q22.75,19.0282,21.1391,20.6391Q19.5282,22.25,17.25,22.25L17,22.25Q16.926099999999998,22.25,16.8537,22.2356Q16.7812,22.2212,16.713,22.1929Q16.6447,22.1646,16.5833,22.1236Q16.521900000000002,22.0826,16.4697,22.0303Q16.4174,21.9781,16.3764,21.9167Q16.3354,21.8553,16.3071,21.787Q16.2788,21.7188,16.264400000000002,21.6463Q16.25,21.5739,16.25,21.5Q16.25,21.4261,16.264400000000002,21.3537Q16.2788,21.2812,16.3071,21.213Q16.3354,21.1447,16.3764,21.0833Q16.4174,21.0219,16.4697,20.9697Q16.521900000000002,20.9174,16.5833,20.8764Q16.6447,20.8354,16.713,20.8071Q16.7812,20.7788,16.8537,20.7644Q16.926099999999998,20.75,17,20.75L17.25,20.75Q18.9069,20.75,20.0784,19.5784Q21.25,18.4069,21.25,16.75Z" fill-rule="evenodd" fill="#2882FF" fill-opacity="1"/></g><g><path d="M4.25,8.875L4.25,16.5Q4.25,17.63909,5.0554565,18.44454Q5.860914,19.25,7,19.25L17,19.25Q18.1391,19.25,18.944499999999998,18.44454Q19.75,17.63909,19.75,16.5L19.75,8.875Q19.75,8.8011315,19.735599999999998,8.728682Q19.7212,8.656233,19.6929,8.587987Q19.6646,8.519742,19.6236,8.458322Q19.5826,8.396903,19.5303,8.34467Q19.478099999999998,8.292437,19.4167,8.251398Q19.3553,8.210359,19.287,8.18209Q19.2188,8.153822,19.1463,8.139410999999999Q19.073900000000002,8.125,19,8.125L5,8.125Q4.9261315,8.125,4.853682,8.139410999999999Q4.781233,8.153822,4.712987,8.18209Q4.644742,8.210359,4.583322,8.251398Q4.521903,8.292437,4.46967,8.34467Q4.417437,8.396903,4.376398,8.458322Q4.335359,8.519742,4.30709,8.587987Q4.278822,8.656233,4.264411,8.728682Q4.25,8.8011315,4.25,8.875ZM6.1161200000000004,17.383879999999998Q5.75,17.01777,5.75,16.5L5.75,9.625L18.25,9.625L18.25,16.5Q18.25,17.01777,17.8839,17.383879999999998Q17.5178,17.75,17,17.75L7,17.75Q6.4822299999999995,17.75,6.1161200000000004,17.383879999999998Z" fill-rule="evenodd" fill="#231F2E" fill-opacity="1"/></g><g><path d="M5.0000118679,8.87501L19,8.87501L19,7.5C19,6.395431,18.104599999999998,5.5,17,5.5L7.00001,5.50000417658C5.895442,5.50000456103,5.0000118679,6.395435,5.0000118679,7.5L5.0000118679,8.87501Z" fill="#231F2E" fill-opacity="1"/><path d="M17,4.750001L7.00001,4.750004Q5.860924,4.750005,5.0554678,5.5554608Q4.250012,6.360917,4.250012,7.5L4.250012,8.87501Q4.250012,8.948879999999999,4.264423,9.021329999999999Q4.278834,9.09378,4.307102,9.16202Q4.335371,9.23027,4.37641,9.29169Q4.4174489999999995,9.353110000000001,4.469682,9.405339999999999Q4.521915,9.45757,4.583334,9.49861Q4.644754,9.53965,4.712999,9.56792Q4.781245,9.59619,4.853694,9.6106Q4.9261433,9.62501,5.0000118679,9.62501L19,9.62501Q19.073900000000002,9.62501,19.1463,9.6106Q19.2188,9.59619,19.287,9.56792Q19.3553,9.53965,19.4167,9.49861Q19.478099999999998,9.45757,19.5303,9.405339999999999Q19.5826,9.353110000000001,19.6236,9.29169Q19.6646,9.23027,19.6929,9.16202Q19.7212,9.09378,19.735599999999998,9.021329999999999Q19.75,8.948879999999999,19.75,8.87501L19.75,7.5Q19.75,6.360912,18.9446,5.5554567Q18.1391,4.75,17,4.750001ZM6.11613,6.6161200000000004Q6.48224,6.250004,7.00001,6.250004L17,6.250001Q17.5178,6.25,17.8839,6.6161200000000004Q18.25,6.9822299999999995,18.25,7.5L18.25,8.12501L5.750012,8.12501L5.750012,7.5Q5.750012,6.98224,6.11613,6.6161200000000004Z" fill-rule="evenodd" fill="#231F2E" fill-opacity="1"/></g><g><path d="M5.94000244140625,7.1875L5.94000244140625,7.1954999Q5.94000244140625,7.2693684,5.95441344140625,7.341818Q5.96882444140625,7.414267,5.99709244140625,7.482512Q6.02536144140625,7.550758,6.06640044140625,7.612178Q6.10743944140625,7.673597,6.15967244140625,7.72583Q6.21190544140625,7.7780629999999995,6.27332444140625,7.819102Q6.33474444140625,7.8601410000000005,6.40298944140625,7.888409Q6.47123544140625,7.916678,6.54368444140625,7.931089Q6.61613394140625,7.9455,6.69000244140625,7.9455L6.69800186140625,7.9455Q6.77187044140625,7.9455,6.84431944140625,7.931089Q6.91676844140625,7.916678,6.98501444140625,7.88841Q7.05326044140625,7.8601410000000005,7.11467944140625,7.819102Q7.17609944140625,7.7780629999999995,7.22833144140625,7.72583Q7.28056444140625,7.673597,7.32160444140625,7.612178Q7.3626434414062505,7.550758,7.39091144140625,7.482512Q7.41917944140625,7.414267,7.43359044140625,7.341818Q7.44800144140625,7.2693684,7.44800144140625,7.1954999L7.44800144140625,7.1875Q7.44800144140625,7.1136315,7.43359044140625,7.041182Q7.41917944140625,6.968733,7.39091144140625,6.900487Q7.3626434414062505,6.832242,7.32160444140625,6.770822Q7.28056444140625,6.709403,7.22833144140625,6.65717Q7.17609944140625,6.604937,7.11467944140625,6.563898Q7.05326044140625,6.522859,6.98501444140625,6.49459Q6.91676844140625,6.466322,6.84431944140625,6.451911Q6.77187044140625,6.4375,6.69800186140625,6.4375L6.69000244140625,6.4375Q6.61613394140625,6.4375,6.54368444140625,6.451911Q6.47123544140625,6.466322,6.40298944140625,6.49459Q6.33474444140625,6.522859,6.27332444140625,6.563898Q6.21190544140625,6.604937,6.15967244140625,6.65717Q6.10743944140625,6.709403,6.06640044140625,6.770822Q6.02536144140625,6.832242,5.99709244140625,6.900487Q5.96882444140625,6.968733,5.95441344140625,7.041182Q5.94000244140625,7.1136315,5.94000244140625,7.1875ZM8.19000244140625,7.1875L8.19000244140625,7.1954999Q8.19000244140625,7.2693684,8.20441244140625,7.341818Q8.21882244140625,7.414267,8.24709244140625,7.482512Q8.27536244140625,7.550758,8.31640244140625,7.612178Q8.35744244140625,7.673597,8.40967244140625,7.72583Q8.46190244140625,7.7780629999999995,8.52332244140625,7.819102Q8.58474244140625,7.8601410000000005,8.65299244140625,7.888409Q8.72123244140625,7.916678,8.79368244140625,7.931089Q8.86613244140625,7.9455,8.94000244140625,7.9455L8.94800244140625,7.9455Q9.02187244140625,7.9455,9.09432244140625,7.931089Q9.16677244140625,7.916678,9.23501244140625,7.88841Q9.30326244140625,7.8601410000000005,9.36468244140625,7.819102Q9.42610244140625,7.7780629999999995,9.47833244140625,7.72583Q9.53056244140625,7.673597,9.57160244140625,7.612178Q9.61264244140625,7.550758,9.64091244140625,7.482512Q9.66918244140625,7.414267,9.683592441406251,7.341818Q9.69800244140625,7.2693684,9.69800244140625,7.1954999L9.69800244140625,7.1875Q9.69800244140625,7.1136315,9.683592441406251,7.041182Q9.66918244140625,6.968733,9.64091244140625,6.900487Q9.61264244140625,6.832242,9.57160244140625,6.770822Q9.53056244140625,6.709403,9.47833244140625,6.65717Q9.42610244140625,6.604937,9.36468244140625,6.563898Q9.30326244140625,6.522859,9.23501244140625,6.49459Q9.16677244140625,6.466322,9.09432244140625,6.451911Q9.02187244140625,6.4375,8.94800244140625,6.4375L8.94000244140625,6.4375Q8.86613244140625,6.4375,8.79368244140625,6.451911Q8.72123244140625,6.466322,8.65299244140625,6.49459Q8.58474244140625,6.522859,8.52332244140625,6.563898Q8.46190244140625,6.604937,8.40967244140625,6.65717Q8.35744244140625,6.709403,8.31640244140625,6.770822Q8.27536244140625,6.832242,8.24709244140625,6.900487Q8.21882244140625,6.968733,8.20441244140625,7.041182Q8.19000244140625,7.1136315,8.19000244140625,7.1875ZM11.94800244140625,7.1954999L11.94800244140625,7.1875Q11.94800244140625,7.1136315,11.933592441406251,7.041182Q11.91918244140625,6.968733,11.89091244140625,6.900487Q11.862642441406251,6.832242,11.821602441406249,6.770822Q11.78056244140625,6.709403,11.72833244140625,6.65717Q11.67610244140625,6.604937,11.61468244140625,6.563898Q11.55326244140625,6.522859,11.485012441406251,6.49459Q11.41677244140625,6.466322,11.34432244140625,6.451911Q11.27187244140625,6.4375,11.19800244140625,6.4375L11.19000244140625,6.4375Q11.11613244140625,6.4375,11.04368244140625,6.451911Q10.97123244140625,6.466322,10.90299244140625,6.49459Q10.834742441406249,6.522859,10.77332244140625,6.563898Q10.711902441406249,6.604937,10.65967244140625,6.65717Q10.60744244140625,6.709403,10.56640244140625,6.770822Q10.52536244140625,6.832242,10.49709244140625,6.900487Q10.46882244140625,6.968733,10.45441244140625,7.041182Q10.44000244140625,7.1136315,10.44000244140625,7.1875L10.44000244140625,7.1954999Q10.44000244140625,7.2693684,10.45441244140625,7.341818Q10.46882244140625,7.414267,10.49709244140625,7.482512Q10.52536244140625,7.550758,10.56640244140625,7.612178Q10.60744244140625,7.673597,10.65967244140625,7.72583Q10.711902441406249,7.7780629999999995,10.77332244140625,7.819102Q10.834742441406249,7.8601410000000005,10.90299244140625,7.888409Q10.97123244140625,7.916678,11.04368244140625,7.931089Q11.11613244140625,7.9455,11.19000244140625,7.9455L11.19800244140625,7.9455Q11.27187244140625,7.9455,11.34432244140625,7.931089Q11.41677244140625,7.916678,11.485012441406251,7.88841Q11.55326244140625,7.8601410000000005,11.61468244140625,7.819102Q11.67610244140625,7.7780629999999995,11.72833244140625,7.72583Q11.78056244140625,7.673597,11.821602441406249,7.612178Q11.862642441406251,7.550758,11.89091244140625,7.482512Q11.91918244140625,7.414267,11.933592441406251,7.341818Q11.94800244140625,7.2693684,11.94800244140625,7.1954999Z" fill-rule="evenodd" fill="#FFFFFF" fill-opacity="1" style="mix-blend-mode:passthrough"/></g><g><path d="M10.5,11L15.499970000000001,11Q15.54922,11,15.59752,11.009607Q15.64582,11.019214999999999,15.69131,11.03806Q15.73681,11.056906,15.77776,11.084265Q15.8187,11.111625,15.85352,11.146447Q15.888349999999999,11.181269,15.91571,11.222215Q15.94306,11.263161,15.96191,11.308658Q15.98076,11.354155,15.990359999999999,11.4024549Q15.999970000000001,11.4507543,15.999970000000001,11.5Q15.999970000000001,11.5492457,15.990359999999999,11.5975451Q15.98076,11.645845,15.96191,11.691342Q15.94306,11.736839,15.91571,11.777785Q15.888349999999999,11.818731,15.85352,11.853553Q15.8187,11.888375,15.77776,11.915735Q15.73681,11.943094,15.69131,11.96194Q15.64582,11.980785000000001,15.59752,11.990393Q15.54922,12,15.499970000000001,12L10.5,12Q10.4507543,12,10.4024549,11.990393Q10.354155,11.980785000000001,10.308658,11.96194Q10.263161,11.943094,10.222215,11.915735Q10.181269,11.888375,10.146447,11.853553Q10.111625,11.818731,10.084265,11.777785Q10.056906,11.736839,10.03806,11.691342Q10.019214999999999,11.645845,10.009607,11.5975451Q10,11.5492457,10,11.5Q10,11.4507543,10.009607,11.4024549Q10.019214999999999,11.354155,10.03806,11.308658Q10.056906,11.263161,10.084265,11.222215Q10.111625,11.181269,10.146447,11.146447Q10.181269,11.111625,10.222215,11.084265Q10.263161,11.056906,10.308658,11.03806Q10.354155,11.019214999999999,10.4024549,11.009607Q10.4507543,11,10.5,11Z" fill-rule="evenodd" fill="#2882FF" fill-opacity="1"/></g><g><path d="M10.5,13L15.499970000000001,13Q15.54922,13,15.59752,13.009607Q15.64582,13.019214999999999,15.69131,13.03806Q15.73681,13.056906,15.77776,13.084265Q15.8187,13.111625,15.85352,13.146447Q15.888349999999999,13.181269,15.91571,13.222215Q15.94306,13.263161,15.96191,13.308658Q15.98076,13.354155,15.990359999999999,13.4024549Q15.999970000000001,13.4507543,15.999970000000001,13.5Q15.999970000000001,13.5492457,15.990359999999999,13.5975451Q15.98076,13.645845,15.96191,13.691342Q15.94306,13.736839,15.91571,13.777785Q15.888349999999999,13.818731,15.85352,13.853553Q15.8187,13.888375,15.77776,13.915735Q15.73681,13.943094,15.69131,13.96194Q15.64582,13.980785000000001,15.59752,13.990393Q15.54922,14,15.499970000000001,14L10.5,14Q10.4507543,14,10.4024549,13.990393Q10.354155,13.980785000000001,10.308658,13.96194Q10.263161,13.943094,10.222215,13.915735Q10.181269,13.888375,10.146447,13.853553Q10.111625,13.818731,10.084265,13.777785Q10.056906,13.736839,10.03806,13.691342Q10.019214999999999,13.645845,10.009607,13.5975451Q10,13.5492457,10,13.5Q10,13.4507543,10.009607,13.4024549Q10.019214999999999,13.354155,10.03806,13.308658Q10.056906,13.263161,10.084265,13.222215Q10.111625,13.181269,10.146447,13.146447Q10.181269,13.111625,10.222215,13.084265Q10.263161,13.056906,10.308658,13.03806Q10.354155,13.019214999999999,10.4024549,13.009607Q10.4507543,13,10.5,13Z" fill-rule="evenodd" fill="#2882FF" fill-opacity="1"/></g><g><path d="M10.5,15L15.499970000000001,15Q15.54922,15,15.59752,15.009607Q15.64582,15.019214999999999,15.69131,15.03806Q15.73681,15.056906,15.77776,15.084265Q15.8187,15.111625,15.85352,15.146447Q15.888349999999999,15.181269,15.91571,15.222215Q15.94306,15.263161,15.96191,15.308658Q15.98076,15.354155,15.990359999999999,15.4024549Q15.999970000000001,15.4507543,15.999970000000001,15.5Q15.999970000000001,15.5492457,15.990359999999999,15.5975451Q15.98076,15.645845,15.96191,15.691342Q15.94306,15.736839,15.91571,15.777785Q15.888349999999999,15.818731,15.85352,15.853553Q15.8187,15.888375,15.77776,15.915735Q15.73681,15.943094,15.69131,15.96194Q15.64582,15.980785000000001,15.59752,15.990393Q15.54922,16,15.499970000000001,16L10.5,16Q10.4507543,16,10.4024549,15.990393Q10.354155,15.980785000000001,10.308658,15.96194Q10.263161,15.943094,10.222215,15.915735Q10.181269,15.888375,10.146447,15.853553Q10.111625,15.818731,10.084265,15.777785Q10.056906,15.736839,10.03806,15.691342Q10.019214999999999,15.645845,10.009607,15.5975451Q10,15.5492457,10,15.5Q10,15.4507543,10.009607,15.4024549Q10.019214999999999,15.354155,10.03806,15.308658Q10.056906,15.263161,10.084265,15.222215Q10.111625,15.181269,10.146447,15.146447Q10.181269,15.111625,10.222215,15.084265Q10.263161,15.056906,10.308658,15.03806Q10.354155,15.019214999999999,10.4024549,15.009607Q10.4507543,15,10.5,15Z" fill-rule="evenodd" fill="#2882FF" fill-opacity="1"/></g><g><path d="M7.875,11.50466677L7.875,11.5L7.875,11.50466675Q7.875,11.5662239,7.887009,11.626598Q7.899018,11.686972,7.922575,11.743844Q7.946132,11.800715,7.980332,11.851898Q8.014531,11.903081,8.058058,11.946608Q8.101586,11.990136,8.152769,12.024335Q8.203952,12.058535,8.260823,12.082091Q8.317694,12.105648,8.378069,12.117657Q8.4384429,12.129667,8.5,12.129667Q8.5615571,12.129667,8.621931,12.117657Q8.682306,12.105648,8.739177,12.082091Q8.796048,12.058535,8.847231,12.024335Q8.898414,11.990136,8.941942,11.946608Q8.985469,11.903081,9.019668,11.851898Q9.053868,11.800715,9.077425,11.743844Q9.100982,11.686972,9.112991,11.626598Q9.125,11.5662239,9.125,11.50466675L7.875,11.50466677Z" fill-rule="evenodd" fill="#2882FF" fill-opacity="1"/></g><g><path d="M7.875,13.50466677L7.875,13.5L7.875,13.50466675Q7.875,13.5662239,7.887009,13.626598Q7.899018,13.686972,7.922575,13.743844Q7.946132,13.800715,7.980332,13.851898Q8.014531,13.903081,8.058058,13.946608Q8.101586,13.990136,8.152769,14.024335Q8.203952,14.058535,8.260823,14.082091Q8.317694,14.105648,8.378069,14.117657Q8.4384429,14.129667,8.5,14.129667Q8.5615571,14.129667,8.621931,14.117657Q8.682306,14.105648,8.739177,14.082091Q8.796048,14.058535,8.847231,14.024335Q8.898414,13.990136,8.941942,13.946608Q8.985469,13.903081,9.019668,13.851898Q9.053868,13.800715,9.077425,13.743844Q9.100982,13.686972,9.112991,13.626598Q9.125,13.5662239,9.125,13.50466675L7.875,13.50466677Z" fill-rule="evenodd" fill="#2882FF" fill-opacity="1"/></g><g><path d="M7.875,15.50466677L7.875,15.5L7.875,15.50466675Q7.875,15.5662239,7.887009,15.626598Q7.899018,15.686972,7.922575,15.743844Q7.946132,15.800715,7.980332,15.851898Q8.014531,15.903081,8.058058,15.946608Q8.101586,15.990136,8.152769,16.024335Q8.203952,16.058535,8.260823,16.082091Q8.317694,16.105648,8.378069,16.117657Q8.4384429,16.129667,8.5,16.129667Q8.5615571,16.129667,8.621931,16.117657Q8.682306,16.105648,8.739177,16.082091Q8.796048,16.058535,8.847231,16.024335Q8.898414,15.990136,8.941942,15.946608Q8.985469,15.903081,9.019668,15.851898Q9.053868,15.800715,9.077425,15.743844Q9.100982,15.686972,9.112991,15.626598Q9.125,15.5662239,9.125,15.50466675L7.875,15.50466677Z" fill-rule="evenodd" fill="#2882FF" fill-opacity="1"/></g></g></svg>