<svg xmlns="http://www.w3.org/2000/svg" xmlns:xlink="http://www.w3.org/1999/xlink" fill="none" version="1.1" width="24" height="24" viewBox="0 0 24 24"><defs><clipPath id="master_svg0_58_01753"><rect x="0" y="0" width="24" height="24" rx="0"/></clipPath></defs><g clip-path="url(#master_svg0_58_01753)"><g><g><path d="M17.5,6.2500152587890625L17.5,9.999995258789063Q17.5,10.073865258789063,17.514400000000002,10.146315258789063Q17.5288,10.218765258789062,17.5571,10.287015258789062Q17.5854,10.355255258789063,17.6264,10.416675258789063Q17.6674,10.478095258789063,17.7197,10.530325258789063Q17.771900000000002,10.582565258789064,17.8333,10.623605258789063Q17.8947,10.664645258789061,17.963,10.692905258789063Q18.0312,10.721175258789064,18.1037,10.735585258789062Q18.176099999999998,10.749995258789063,18.25,10.749995258789063Q18.323900000000002,10.749995258789063,18.3963,10.735585258789062Q18.4688,10.721175258789064,18.537,10.692905258789063Q18.6053,10.664645258789061,18.6667,10.623605258789063Q18.728099999999998,10.582565258789064,18.7803,10.530325258789063Q18.8326,10.478095258789063,18.8736,10.416675258789063Q18.9146,10.355255258789063,18.9429,10.287015258789062Q18.9712,10.218765258789062,18.9856,10.146315258789063Q19,10.073865258789063,19,9.999995258789063L19,5.5000152587890625Q19,5.426146758789063,18.9856,5.3536972587890626Q18.9712,5.281248258789063,18.9429,5.2130022587890625Q18.9146,5.144757258789062,18.8736,5.083337258789062Q18.8326,5.0219182587890625,18.7803,4.969685258789062Q18.728099999999998,4.917452258789062,18.6667,4.8764132587890625Q18.6053,4.835374258789063,18.537,4.807105258789062Q18.4688,4.778837258789062,18.3963,4.7644262587890625Q18.323900000000002,4.7500152587890625,18.25,4.7500152587890625L2.75,4.7500152587890625Q2.6761315,4.7500152587890625,2.603682,4.7644262587890625Q2.531233,4.778837258789062,2.462987,4.807105258789062Q2.394742,4.835374258789063,2.333322,4.8764132587890625Q2.271903,4.917452258789062,2.21967,4.969685258789062Q2.167437,5.0219182587890625,2.126398,5.083337258789062Q2.085359,5.144757258789062,2.05709,5.2130022587890625Q2.028822,5.281248258789063,2.014411,5.3536972587890626Q2,5.426146758789063,2,5.5000152587890625L2,12.499995258789063Q2,13.639085258789063,2.8054563,14.444545258789063Q3.610914,15.249995258789063,4.75,15.249995258789063L5.75,15.249995258789063Q5.823869999999999,15.249995258789063,5.896319999999999,15.235585258789062Q5.96877,15.221175258789062,6.03701,15.192905258789063Q6.1052599999999995,15.164645258789063,6.1666799999999995,15.123595258789063Q6.2280999999999995,15.082565258789062,6.28033,15.030325258789063Q6.33256,14.978095258789063,6.3736,14.916675258789063Q6.41464,14.855255258789063,6.4429099999999995,14.787005258789062Q6.47118,14.718765258789062,6.48559,14.646315258789063Q6.5,14.573865258789063,6.5,14.499995258789063Q6.5,14.426135258789062,6.48559,14.353685258789062Q6.47118,14.281235258789062,6.4429099999999995,14.212985258789063Q6.41464,14.144735258789062,6.3736,14.083325258789063Q6.33256,14.021905258789063,6.28033,13.969665258789062Q6.2280999999999995,13.917435258789062,6.1666799999999995,13.876395258789062Q6.1052599999999995,13.835355258789063,6.03701,13.807085258789062Q5.96877,13.778825258789063,5.896319999999999,13.764415258789063Q5.823869999999999,13.750005258789063,5.75,13.749995258789063L4.75,13.749995258789063Q4.2322299999999995,13.749995258789063,3.86612,13.383885258789062Q3.5,13.017765258789062,3.5,12.499995258789063L3.5,6.2500152587890625L17.5,6.2500152587890625Z" fill-rule="evenodd" fill="#231F2E" fill-opacity="1"/></g><g><path d="M2.75000900997,4.00001L2.7500157674,5.50001L18.25,5.50002L18.25,4.008290000000001C18.25,2.903724,17.354599999999998,2,16.25,2L4.75001,2C3.645436,2,2.75000403391,2.895436,2.75000900997,4.00001Z" fill="#231F2E" fill-opacity="1"/><path d="M16.25,1.25L4.75001,1.25Q3.610918,1.25,2.805461,2.0554607Q2.000004,2.8609210000000003,2.000009,4.00001L2.000016,5.50002Q2.000016,5.57388,2.014427,5.64633Q2.028839,5.718780000000001,2.0571070000000002,5.78703Q2.085375,5.85527,2.126415,5.91669Q2.167454,5.97811,2.219687,6.03034Q2.27192,6.08258,2.333339,6.12362Q2.394758,6.16465,2.463004,6.19292Q2.531249,6.22119,2.603698,6.2356Q2.6761473000000002,6.25001,2.7500156362,6.25001L18.25,6.25002Q18.323900000000002,6.25002,18.3963,6.2356Q18.4688,6.22119,18.537,6.19292Q18.6053,6.16466,18.6667,6.12362Q18.728099999999998,6.08258,18.7803,6.03034Q18.8326,5.97811,18.8736,5.91669Q18.9147,5.85527,18.9429,5.78703Q18.9712,5.718780000000001,18.9856,5.64633Q19,5.57388,19,5.50002L19,4.008290000000001Q19,2.869671,18.1961,2.0611205Q17.3896,1.25,16.25,1.25ZM3.86612,3.11612Q4.23224,2.75,4.75001,2.75L16.25,2.75Q16.765700000000002,2.75,17.1324,3.11875Q17.5,3.48848,17.5,4.008290000000001L17.5,4.75002L3.500012,4.75001L3.500009,4.00001Q3.500007,3.48224,3.86612,3.11612Z" fill-rule="evenodd" fill="#231F2E" fill-opacity="1"/></g><g><path d="M4.25,3.75L4.25,3.7579999Q4.25,3.8318684,4.264411,3.904318Q4.278822,3.976767,4.30709,4.045012Q4.335359,4.113258,4.376398,4.174678Q4.417437,4.236097,4.46967,4.28833Q4.521903,4.3405629999999995,4.583322,4.381602Q4.644742,4.4226410000000005,4.712987,4.450909Q4.781233,4.479178,4.853682,4.493589Q4.9261315,4.508,5,4.508L5.00799942,4.508Q5.081868,4.508,5.154317,4.493589Q5.226766,4.479178,5.295012,4.45091Q5.363258,4.4226410000000005,5.424677,4.381602Q5.486097,4.3405629999999995,5.538329,4.28833Q5.590562,4.236097,5.631602,4.174678Q5.6726410000000005,4.113258,5.700909,4.045012Q5.729177,3.976767,5.743588,3.904318Q5.757999,3.8318684,5.757999,3.7579999L5.757999,3.75Q5.757999,3.6761315,5.743588,3.603682Q5.729177,3.531233,5.700909,3.462987Q5.6726410000000005,3.394742,5.631602,3.333322Q5.590562,3.271903,5.538329,3.21967Q5.486097,3.167437,5.424677,3.126398Q5.363258,3.085359,5.295012,3.05709Q5.226766,3.028822,5.154317,3.014411Q5.081868,3,5.00799942,3L5,3Q4.9261315,3,4.853682,3.014411Q4.781233,3.028822,4.712987,3.05709Q4.644742,3.085359,4.583322,3.126398Q4.521903,3.167437,4.46967,3.21967Q4.417437,3.271903,4.376398,3.333322Q4.335359,3.394742,4.30709,3.462987Q4.278822,3.531233,4.264411,3.603682Q4.25,3.6761315,4.25,3.75ZM6.5,3.75L6.5,3.7579999Q6.5,3.8318684,6.51441,3.904318Q6.52882,3.976767,6.5570900000000005,4.045012Q6.58536,4.113258,6.6264,4.174678Q6.66744,4.236097,6.71967,4.28833Q6.7719000000000005,4.3405629999999995,6.8333200000000005,4.381602Q6.8947400000000005,4.4226410000000005,6.96299,4.450909Q7.03123,4.479178,7.103680000000001,4.493589Q7.176130000000001,4.508,7.25,4.508L7.258,4.508Q7.33187,4.508,7.40432,4.493589Q7.47677,4.479178,7.5450099999999996,4.45091Q7.61326,4.4226410000000005,7.67468,4.381602Q7.7361,4.3405629999999995,7.78833,4.28833Q7.84056,4.236097,7.881600000000001,4.174678Q7.9226399999999995,4.113258,7.95091,4.045012Q7.9791799999999995,3.976767,7.99359,3.904318Q8.008,3.8318684,8.008,3.7579999L8.008,3.75Q8.008,3.6761315,7.99359,3.603682Q7.9791799999999995,3.531233,7.95091,3.462987Q7.9226399999999995,3.394742,7.881600000000001,3.333322Q7.84056,3.271903,7.78833,3.21967Q7.7361,3.167437,7.67468,3.126398Q7.61326,3.085359,7.5450099999999996,3.05709Q7.47677,3.028822,7.40432,3.014411Q7.33187,3,7.258,3L7.25,3Q7.176130000000001,3,7.103680000000001,3.014411Q7.03123,3.028822,6.96299,3.05709Q6.8947400000000005,3.085359,6.8333200000000005,3.126398Q6.7719000000000005,3.167437,6.71967,3.21967Q6.66744,3.271903,6.6264,3.333322Q6.58536,3.394742,6.5570900000000005,3.462987Q6.52882,3.531233,6.51441,3.603682Q6.5,3.6761315,6.5,3.75ZM10.258,3.7579999L10.258,3.75Q10.258,3.6761315,10.243590000000001,3.603682Q10.22918,3.531233,10.20091,3.462987Q10.172640000000001,3.394742,10.131599999999999,3.333322Q10.09056,3.271903,10.03833,3.21967Q9.9861,3.167437,9.92468,3.126398Q9.86326,3.085359,9.795010000000001,3.05709Q9.72677,3.028822,9.65432,3.014411Q9.58187,3,9.508,3L9.5,3Q9.42613,3,9.35368,3.014411Q9.28123,3.028822,9.21299,3.05709Q9.144739999999999,3.085359,9.08332,3.126398Q9.021899999999999,3.167437,8.96967,3.21967Q8.91744,3.271903,8.8764,3.333322Q8.83536,3.394742,8.80709,3.462987Q8.77882,3.531233,8.76441,3.603682Q8.75,3.6761315,8.75,3.75L8.75,3.7579999Q8.75,3.8318684,8.76441,3.904318Q8.77882,3.976767,8.80709,4.045012Q8.83536,4.113258,8.8764,4.174678Q8.91744,4.236097,8.96967,4.28833Q9.021899999999999,4.3405629999999995,9.08332,4.381602Q9.144739999999999,4.4226410000000005,9.21299,4.450909Q9.28123,4.479178,9.35368,4.493589Q9.42613,4.508,9.5,4.508L9.508,4.508Q9.58187,4.508,9.65432,4.493589Q9.72677,4.479178,9.795010000000001,4.45091Q9.86326,4.4226410000000005,9.92468,4.381602Q9.9861,4.3405629999999995,10.03833,4.28833Q10.09056,4.236097,10.131599999999999,4.174678Q10.172640000000001,4.113258,10.20091,4.045012Q10.22918,3.976767,10.243590000000001,3.904318Q10.258,3.8318684,10.258,3.7579999Z" fill-rule="evenodd" fill="#FFFFFF" fill-opacity="1" style="mix-blend-mode:passthrough"/></g></g><g><g><path d="M21.25,11.500015258789062L5.75,11.500015258789062Q5.6761315,11.500015258789062,5.603682,11.514426258789062Q5.531233,11.528837258789062,5.462987,11.557105258789063Q5.394742,11.585374258789063,5.333322,11.626413258789063Q5.271903,11.667452258789062,5.21967,11.719685258789063Q5.167437,11.771918258789063,5.126398,11.833337258789063Q5.085359,11.894757258789063,5.05709,11.963002258789063Q5.028822,12.031248258789063,5.014411,12.103697258789062Q5,12.176146758789063,5,12.250015258789062L5,19.249995258789063Q5,20.389085258789063,5.8054561,21.194545258789063Q6.610913,21.999995258789063,7.75,21.999995258789063L19.25,21.999995258789063Q20.3891,21.999995258789063,21.194499999999998,21.194545258789063Q22,20.389085258789063,22,19.249995258789063L22,12.250015258789062Q22,12.176146758789063,21.9856,12.103697258789062Q21.9712,12.031248258789063,21.9429,11.963002258789063Q21.9146,11.894757258789063,21.8736,11.833337258789063Q21.8326,11.771918258789063,21.7803,11.719685258789063Q21.728099999999998,11.667452258789062,21.6667,11.626413258789063Q21.6053,11.585374258789063,21.537,11.557105258789063Q21.4688,11.528837258789062,21.3963,11.514426258789062Q21.323900000000002,11.500015258789062,21.25,11.500015258789062ZM6.5,13.000015258789062L6.5,19.249995258789063Q6.5,19.767765258789062,6.8661200000000004,20.133885258789064Q7.2322299999999995,20.499995258789063,7.75,20.499995258789063L19.25,20.499995258789063Q19.7678,20.499995258789063,20.1339,20.133885258789064Q20.5,19.767765258789062,20.5,19.249995258789063L20.5,13.000015258789062L6.5,13.000015258789062Z" fill-rule="evenodd" fill="#231F2E" fill-opacity="1"/></g><g><path d="M5.75,12.25002L21.25,12.25002L21.25,10.75829C21.25,9.653724,20.354599999999998,8.75,19.25,8.75L7.75,8.75C6.645431,8.75,5.75,9.645431,5.75,10.75L5.75,12.25002Z" fill="#231F2E" fill-opacity="1"/><path d="M19.25,8L7.75,8Q6.610913,8,5.8054564,8.8054564Q5,9.610913,5,10.75L5,12.25002Q5,12.323879999999999,5.014411,12.396329999999999Q5.028822,12.46878,5.05709,12.53703Q5.085359,12.60527,5.126398,12.66669Q5.167437,12.728110000000001,5.21967,12.780339999999999Q5.271903,12.83258,5.333322,12.873619999999999Q5.394742,12.91466,5.462987,12.94292Q5.531233,12.97119,5.603682,12.9856Q5.6761315,13.00002,5.75,13.00002L21.25,13.00002Q21.323900000000002,13.00002,21.3963,12.9856Q21.4688,12.97119,21.537,12.94292Q21.6053,12.91466,21.6667,12.873619999999999Q21.728099999999998,12.83258,21.7803,12.780339999999999Q21.8326,12.728110000000001,21.8736,12.66669Q21.9146,12.60527,21.9429,12.53703Q21.9712,12.46878,21.9856,12.396329999999999Q22,12.323879999999999,22,12.25002L22,10.75829Q22,9.619669,21.1961,8.8111205Q20.3896,8,19.25,8ZM6.8661200000000004,9.86612Q7.2322299999999995,9.5,7.75,9.5L19.25,9.5Q19.765700000000002,9.5,20.1324,9.86875Q20.5,10.23848,20.5,10.75829L20.5,11.50002L6.5,11.50002L6.5,10.75Q6.5,10.23223,6.8661200000000004,9.86612Z" fill-rule="evenodd" fill="#231F2E" fill-opacity="1"/></g><g><path d="M7.75,10.5L7.75,10.5079999Q7.75,10.5818684,7.764411,10.654318Q7.778822,10.726767,7.80709,10.795012Q7.835359,10.863258,7.876398,10.924678Q7.917437,10.986097000000001,7.96967,11.03833Q8.021903,11.090563,8.083322,11.131602Q8.144742,11.172641,8.212987,11.200909Q8.281233,11.229178,8.353682,11.243589Q8.4261315,11.258,8.5,11.258L8.50799942,11.258Q8.581868,11.258,8.654317,11.243589Q8.726766,11.229178,8.795012,11.20091Q8.863258,11.172641,8.924677,11.131602Q8.986097000000001,11.090563,9.038329,11.03833Q9.090562,10.986097000000001,9.131602,10.924678Q9.172641,10.863258,9.200909,10.795012Q9.229177,10.726767,9.243588,10.654318Q9.257999,10.5818684,9.257999,10.5079999L9.257999,10.5Q9.257999,10.4261315,9.243588,10.353682Q9.229177,10.281233,9.200909,10.212987Q9.172641,10.144742,9.131602,10.083322Q9.090562,10.021903,9.038329,9.96967Q8.986097000000001,9.917437,8.924677,9.876398Q8.863258,9.835359,8.795012,9.80709Q8.726766,9.778822,8.654317,9.764410999999999Q8.581868,9.75,8.50799942,9.75L8.5,9.75Q8.4261315,9.75,8.353682,9.764410999999999Q8.281233,9.778822,8.212987,9.80709Q8.144742,9.835359,8.083322,9.876398Q8.021903,9.917437,7.96967,9.96967Q7.917437,10.021903,7.876398,10.083322Q7.835359,10.144742,7.80709,10.212987Q7.778822,10.281233,7.764411,10.353682Q7.75,10.4261315,7.75,10.5ZM10,10.5L10,10.5079999Q10,10.5818684,10.01441,10.654318Q10.02882,10.726767,10.05709,10.795012Q10.08536,10.863258,10.1264,10.924678Q10.16744,10.986097000000001,10.21967,11.03833Q10.2719,11.090563,10.33332,11.131602Q10.39474,11.172641,10.46299,11.200909Q10.53123,11.229178,10.60368,11.243589Q10.67613,11.258,10.75,11.258L10.758,11.258Q10.83187,11.258,10.90432,11.243589Q10.97677,11.229178,11.04501,11.20091Q11.11326,11.172641,11.17468,11.131602Q11.2361,11.090563,11.28833,11.03833Q11.34056,10.986097000000001,11.3816,10.924678Q11.42264,10.863258,11.45091,10.795012Q11.47918,10.726767,11.493590000000001,10.654318Q11.508,10.5818684,11.508,10.5079999L11.508,10.5Q11.508,10.4261315,11.493590000000001,10.353682Q11.47918,10.281233,11.45091,10.212987Q11.42264,10.144742,11.3816,10.083322Q11.34056,10.021903,11.28833,9.96967Q11.2361,9.917437,11.17468,9.876398Q11.11326,9.835359,11.04501,9.80709Q10.97677,9.778822,10.90432,9.764410999999999Q10.83187,9.75,10.758,9.75L10.75,9.75Q10.67613,9.75,10.60368,9.764410999999999Q10.53123,9.778822,10.46299,9.80709Q10.39474,9.835359,10.33332,9.876398Q10.2719,9.917437,10.21967,9.96967Q10.16744,10.021903,10.1264,10.083322Q10.08536,10.144742,10.05709,10.212987Q10.02882,10.281233,10.01441,10.353682Q10,10.4261315,10,10.5ZM13.758,10.5079999L13.758,10.5Q13.758,10.4261315,13.743590000000001,10.353682Q13.72918,10.281233,13.70091,10.212987Q13.672640000000001,10.144742,13.631599999999999,10.083322Q13.59056,10.021903,13.53833,9.96967Q13.4861,9.917437,13.42468,9.876398Q13.36326,9.835359,13.295010000000001,9.80709Q13.22677,9.778822,13.15432,9.764410999999999Q13.08187,9.75,13.008,9.75L13,9.75Q12.92613,9.75,12.85368,9.764410999999999Q12.78123,9.778822,12.71299,9.80709Q12.644739999999999,9.835359,12.58332,9.876398Q12.521899999999999,9.917437,12.46967,9.96967Q12.41744,10.021903,12.3764,10.083322Q12.33536,10.144742,12.30709,10.212987Q12.27882,10.281233,12.26441,10.353682Q12.25,10.4261315,12.25,10.5L12.25,10.5079999Q12.25,10.5818684,12.26441,10.654318Q12.27882,10.726767,12.30709,10.795012Q12.33536,10.863258,12.3764,10.924678Q12.41744,10.986097000000001,12.46967,11.03833Q12.521899999999999,11.090563,12.58332,11.131602Q12.644739999999999,11.172641,12.71299,11.200909Q12.78123,11.229178,12.85368,11.243589Q12.92613,11.258,13,11.258L13.008,11.258Q13.08187,11.258,13.15432,11.243589Q13.22677,11.229178,13.295010000000001,11.20091Q13.36326,11.172641,13.42468,11.131602Q13.4861,11.090563,13.53833,11.03833Q13.59056,10.986097000000001,13.631599999999999,10.924678Q13.672640000000001,10.863258,13.70091,10.795012Q13.72918,10.726767,13.743590000000001,10.654318Q13.758,10.5818684,13.758,10.5079999Z" fill-rule="evenodd" fill="#FFFFFF" fill-opacity="1" style="mix-blend-mode:passthrough"/></g></g><g><path d="M12.98935546875,14.25L12.951055468749999,14.25127648C12.68461546875,14.2713159,12.47868546875,14.493387,12.47877546875,14.760580000000001L12.47877546875,16.54735L11.81859146875,16.54761C11.61211446875,16.54765,11.42598846875,16.67205,11.34697986875,16.86281C11.26797066875,17.05358,11.31163251875,17.27315,11.45761146875,17.41917L13.13895546875,19.10051C13.33833546875,19.29983,13.66152546875,19.29983,13.860915468750001,19.10051L15.54224546875,17.41917C15.68835546875,17.27315,15.73209546875,17.05348,15.653045468750001,16.86264L15.635685468750001,16.82562C15.548315468750001,16.65497,15.37283546875,16.54761,15.18126546875,16.54761L14.52108546875,16.54735L14.52108546875,14.760580000000001C14.52108546875,14.478595,14.29249546875,14.250000121732,14.01050546875,14.250000121732L12.98935546875,14.25Z" fill="#2882FF" fill-opacity="1"/></g></g></svg>