<svg xmlns="http://www.w3.org/2000/svg" xmlns:xlink="http://www.w3.org/1999/xlink" fill="none" version="1.1" width="24" height="24" viewBox="0 0 24 24"><defs><clipPath id="master_svg0_48_01710"><rect x="0" y="0" width="24" height="24" rx="0"/></clipPath></defs><g clip-path="url(#master_svg0_48_01710)"><g><path d="M11.25,16.5Q11.25,16.4261315,11.264410999999999,16.353682Q11.278822,16.281233,11.30709,16.212987Q11.335359,16.144742,11.376398,16.083322Q11.417437,16.021903000000002,11.46967,15.96967Q11.521903,15.917437,11.583322,15.876398Q11.644742,15.835359,11.712987,15.80709Q11.781233,15.778822,11.853682,15.764410999999999Q11.9261315,15.75,12,15.75Q12.0738685,15.75,12.146318,15.764410999999999Q12.218767,15.778822,12.287013,15.80709Q12.355258,15.835359,12.416678,15.876398Q12.478097,15.917437,12.53033,15.96967Q12.582563,16.021903000000002,12.623602,16.083322Q12.664641,16.144742,12.69291,16.212987Q12.721178,16.281233,12.735589000000001,16.353682Q12.75,16.4261315,12.75,16.5L12.75,19.5Q12.75,19.57387,12.735589000000001,19.64632Q12.721178,19.71877,12.69291,19.78701Q12.664641,19.85526,12.623602,19.91668Q12.582563,19.9781,12.53033,20.03033Q12.478097,20.08256,12.416678,20.1236Q12.355258,20.16464,12.287013,20.19291Q12.218767,20.22118,12.146318,20.235590000000002Q12.0738685,20.25,12,20.25Q11.9261315,20.25,11.853682,20.235590000000002Q11.781233,20.22118,11.712987,20.19291Q11.644742,20.16464,11.583322,20.1236Q11.521903,20.08256,11.46967,20.03033Q11.417437,19.9781,11.376398,19.91668Q11.335359,19.85526,11.30709,19.78701Q11.278822,19.71877,11.264410999999999,19.64632Q11.25,19.57387,11.25,19.5L11.25,16.5Z" fill-rule="evenodd" fill="#231F2E" fill-opacity="1"/></g><g><path d="M6,19.75L18,19.75Q18.073900000000002,19.75,18.1463,19.764411Q18.2188,19.778822,18.287,19.80709Q18.3553,19.835359,18.4167,19.876398000000002Q18.478099999999998,19.917437,18.5303,19.96967Q18.5826,20.021903000000002,18.6236,20.083322Q18.6646,20.144742,18.6929,20.212987Q18.7212,20.281233,18.735599999999998,20.353682Q18.75,20.4261315,18.75,20.5Q18.75,20.5738685,18.735599999999998,20.646318Q18.7212,20.718767,18.6929,20.787013Q18.6646,20.855258,18.6236,20.916678Q18.5826,20.978096999999998,18.5303,21.03033Q18.478099999999998,21.082563,18.4167,21.123601999999998Q18.3553,21.164641,18.287,21.19291Q18.2188,21.221178,18.1463,21.235589Q18.073900000000002,21.25,18,21.25L6,21.25Q5.9261315,21.25,5.853682,21.235589Q5.781233,21.221178,5.712987,21.19291Q5.644742,21.164641,5.583322,21.123601999999998Q5.521903,21.082563,5.46967,21.03033Q5.417437,20.978096999999998,5.376398,20.916678Q5.335359,20.855258,5.30709,20.787013Q5.278822,20.718767,5.264411,20.646318Q5.25,20.5738685,5.25,20.5Q5.25,20.4261315,5.264411,20.353682Q5.278822,20.281233,5.30709,20.212987Q5.335359,20.144742,5.376398,20.083322Q5.417437,20.021903000000002,5.46967,19.96967Q5.521903,19.917437,5.583322,19.876398000000002Q5.644742,19.835359,5.712987,19.80709Q5.781233,19.778822,5.853682,19.764411Q5.9261315,19.75,6,19.75Z" fill-rule="evenodd" fill="#231F2E" fill-opacity="1"/></g><g><path d="M6,16.5L4,16.5C2.895431,16.5,2,15.6046,2,14.5L2,5.5C2,4.395431,2.895431,3.5,4,3.5L20,3.5C21.1046,3.5,22,4.395431,22,5.5L22,14.5C22,15.6046,21.1046,16.5,20,16.5L18,16.5L6,16.5Z" fill="#2882FF" fill-opacity="0.30000001192092896"/><path d="M6,17.25L20,17.25Q21.1391,17.25,21.9445,16.444499999999998Q22.75,15.6391,22.75,14.5L22.75,5.5Q22.75,4.360912,21.9445,3.5554566Q21.1391,2.75,20,2.75L4,2.75Q2.860913,2.75,2.0554564,3.5554564Q1.25,4.360913,1.25,5.5L1.25,14.5Q1.25,15.6391,2.0554565,16.444499999999998Q2.860913,17.25,4,17.25L6,17.25ZM20,15.75L4,15.75Q3.48223,15.75,3.11612,15.3839Q2.75,15.0178,2.75,14.5L2.75,5.5Q2.75,4.9822299999999995,3.11612,4.6161200000000004Q3.48223,4.25,4,4.25L20,4.25Q20.5178,4.25,20.8839,4.6161200000000004Q21.25,4.9822299999999995,21.25,5.5L21.25,14.5Q21.25,15.0178,20.8839,15.3839Q20.5178,15.75,20,15.75Z" fill-rule="evenodd" fill="#231F2E" fill-opacity="1"/></g></g></svg>