<svg xmlns="http://www.w3.org/2000/svg" xmlns:xlink="http://www.w3.org/1999/xlink" fill="none" version="1.1" width="24" height="24" viewBox="0 0 24 24"><defs><clipPath id="master_svg0_61_00890"><rect x="0" y="0" width="24" height="24" rx="0"/></clipPath></defs><g clip-path="url(#master_svg0_61_00890)"><g><path d="M20.999984741210938,7.5L3.0000000000109375,7.5Q2.9261315412109377,7.5,2.8536827412109376,7.514411Q2.7812337412109374,7.528822,2.7129877412109376,7.55709Q2.6447417412109377,7.585359,2.5833227412109374,7.626398Q2.5219027412109374,7.667437,2.4696707412109378,7.71967Q2.4174377412109376,7.771903,2.3763977412109374,7.833322Q2.3353587412109373,7.894742,2.3070907412109376,7.962987Q2.2788227412109374,8.031233,2.2644117412109375,8.103682Q2.2499997412109374,8.1761314,2.2499997412109374,8.25L2.2499897412109373,17.24998Q2.2499867412109373,18.8033,3.3483367412109377,19.901600000000002Q4.446684741210937,21,5.9999847412109375,21L17.999984741210938,21Q19.553284741210938,21,20.65168474121094,19.901600000000002Q21.749984741210938,18.8033,21.749984741210938,17.24999L21.749984741210938,8.25Q21.749984741210938,8.1761315,21.73558474121094,8.103682Q21.721184741210937,8.031233,21.69288474121094,7.962987Q21.664584741210938,7.894742,21.623584741210937,7.833322Q21.582584741210937,7.771903,21.530284741210938,7.71967Q21.47808474121094,7.667437,21.416684741210936,7.626398Q21.355284741210937,7.585359,21.286984741210937,7.55709Q21.21878474121094,7.528822,21.146284741210938,7.514411Q21.073884741210936,7.5,20.999984741210938,7.5ZM3.7499987412109377,9L3.7499897412109373,17.24998Q3.7499877412109375,18.18197,4.408994741210938,18.841Q5.068004741210938,19.5,5.9999847412109375,19.5L17.999984741210938,19.5Q18.93198474121094,19.5,19.59098474121094,18.841Q20.249984741210938,18.18197,20.249984741210938,17.24999L20.249984741210938,9L3.7499987412109377,9Z" fill-rule="evenodd" fill="#231F2E" fill-opacity="1"/></g><g><path d="M2.25,6.75Q2.25,5.1967,3.34835,4.09835Q4.4467,3.00000488758,6,3.00000435114L18,3Q19.5534,3,20.6535,4.10792Q21.75,5.21217,21.75,6.76539L21.75,8.25001C21.75,8.66423,21.4142,9.00001,21,9.00001L3,9.00001C2.585786,9.00001,2.25,8.66423,2.25,8.25001L2.25,6.75ZM4.5,6L4.5,6.008C4.5,6.42221,4.835789999999999,6.758,5.25,6.758L5.258,6.758C5.67221,6.758,6.008,6.42221,6.008,6.008L6.008,6C6.008,5.585789999999999,5.67221,5.25,5.258,5.25L5.25,5.25C4.835789999999999,5.25,4.5,5.585789999999999,4.5,6ZM6.75,6L6.75,6.008C6.75,6.42221,7.08579,6.758,7.5,6.758L7.508,6.758C7.92221,6.758,8.258,6.42221,8.258,6.008L8.258,6C8.258,5.585789999999999,7.92221,5.25,7.508,5.25L7.5,5.25C7.08579,5.25,6.75,5.585789999999999,6.75,6ZM10.508,6.008L10.508,6C10.508,5.585789999999999,10.17221,5.25,9.758,5.25L9.75,5.25C9.33579,5.25,9,5.585789999999999,9,6L9,6.008C9,6.42221,9.33579,6.758,9.75,6.758L9.758,6.758C10.17221,6.758,10.508,6.42221,10.508,6.008Z" fill-rule="evenodd" fill="#231F2E" fill-opacity="1"/></g><g><path d="M12,9.75Q11.9261315,9.75,11.853682,9.764410999999999Q11.781233,9.778822,11.712987,9.80709Q11.644742,9.835359,11.583322,9.876398Q11.521903,9.917437,11.46967,9.96967Q11.417437,10.021903,11.376398,10.083322Q11.335359,10.144742,11.30709,10.212987Q11.278822,10.281233,11.264410999999999,10.353682Q11.25,10.4261315,11.25,10.5Q11.25,10.5738685,11.264410999999999,10.646318Q11.278822,10.718767,11.30709,10.787013Q11.335359,10.855258,11.376398,10.916678Q11.417437,10.978097,11.46967,11.03033Q11.521903,11.082563,11.583322,11.123602Q11.644742,11.164641,11.712987,11.19291Q11.781233,11.221178,11.853682,11.235589000000001Q11.9261315,11.25,12,11.25L12.0100002,11.25Q12.0838688,11.25,12.156318,11.235589000000001Q12.228767,11.221178,12.297013,11.19291Q12.365258,11.164641,12.426678,11.123602Q12.488097,11.082563,12.54033,11.03033Q12.592563,10.978097,12.633602,10.916678Q12.674641,10.855258,12.70291,10.787013Q12.731178,10.718767,12.745589,10.646318Q12.76,10.5738685,12.76,10.5Q12.76,10.4261315,12.745589,10.353682Q12.731178,10.281233,12.70291,10.212987Q12.674642,10.144742,12.633602,10.083322Q12.592563,10.021903,12.54033,9.96967Q12.488097,9.917437,12.426678,9.876398Q12.365258,9.835359,12.297013,9.80709Q12.228767,9.778822,12.156318,9.764410999999999Q12.0838688,9.75,12.0100002,9.75L12,9.75Z" fill-rule="evenodd" fill="#2882FF" fill-opacity="1"/></g><g><path d="M11,12.75Q10.9261315,12.75,10.853682,12.764410999999999Q10.781233,12.778822,10.712987,12.80709Q10.644742,12.835359,10.583322,12.876398Q10.521903,12.917437,10.46967,12.96967Q10.417437,13.021903,10.376398,13.083322Q10.335359,13.144742,10.30709,13.212987Q10.278822,13.281233,10.264410999999999,13.353682Q10.25,13.4261315,10.25,13.5Q10.25,13.5738685,10.264410999999999,13.646318Q10.278822,13.718767,10.30709,13.787013Q10.335359,13.855258,10.376398,13.916678Q10.417437,13.978097,10.46967,14.03033Q10.521903,14.082563,10.583322,14.123602Q10.644742,14.164641,10.712987,14.19291Q10.781233,14.221178,10.853682,14.235589000000001Q10.9261315,14.25,11,14.25L11.25,14.25L11.25,17.5Q11.25,17.57387,11.264411,17.64632Q11.278822,17.71877,11.30709,17.787010000000002Q11.335359,17.85526,11.376398,17.91668Q11.417437,17.9781,11.46967,18.03033Q11.521903,18.08256,11.583322,18.1236Q11.644742,18.16464,11.712987,18.19291Q11.781233,18.22118,11.853682,18.235590000000002Q11.926131,18.25,12,18.25L13,18.25Q13.07387,18.25,13.14632,18.235590000000002Q13.21877,18.22118,13.28701,18.19291Q13.35526,18.16464,13.41668,18.1236Q13.4781,18.08256,13.53033,18.03033Q13.58256,17.9781,13.6236,17.91668Q13.66464,17.85526,13.69291,17.787010000000002Q13.72118,17.71877,13.73559,17.64632Q13.75,17.57387,13.75,17.5Q13.75,17.42613,13.73559,17.35368Q13.72118,17.28123,13.69291,17.21299Q13.66464,17.14474,13.6236,17.08332Q13.58256,17.0219,13.53033,16.96967Q13.4781,16.91744,13.41668,16.8764Q13.35526,16.83536,13.28701,16.80709Q13.21877,16.77882,13.14632,16.764409999999998Q13.07387,16.75,13,16.75L12.75,16.75L12.75,13.5Q12.75,13.4261315,12.73559,13.353682Q12.72118,13.281233,12.69291,13.212987Q12.66464,13.144742,12.6236,13.083322Q12.58256,13.021903,12.53033,12.96967Q12.4781,12.917437,12.41668,12.876398Q12.35526,12.835359,12.28701,12.80709Q12.21877,12.778822,12.14632,12.764410999999999Q12.07387,12.75,12,12.75L11,12.75Z" fill-rule="evenodd" fill="#2882FF" fill-opacity="1"/></g></g></svg>