<svg xmlns="http://www.w3.org/2000/svg" xmlns:xlink="http://www.w3.org/1999/xlink" fill="none" version="1.1" width="24" height="24" viewBox="0 0 24 24"><defs><clipPath id="master_svg0_53_01341"><rect x="0" y="0" width="24" height="24" rx="0"/></clipPath></defs><g clip-path="url(#master_svg0_53_01341)"><g><path d="M20.999984741210938,7.5L3.0000000000109375,7.5Q2.9261315412109377,7.5,2.8536827412109376,7.514411Q2.7812337412109374,7.528822,2.7129877412109376,7.55709Q2.6447417412109377,7.585359,2.5833227412109374,7.626398Q2.5219027412109374,7.667437,2.4696707412109378,7.71967Q2.4174377412109376,7.771903,2.3763977412109374,7.833322Q2.3353587412109373,7.894742,2.3070907412109376,7.962987Q2.2788227412109374,8.031233,2.2644117412109375,8.103682Q2.2499997412109374,8.1761314,2.2499997412109374,8.25L2.2499897412109373,17.24998Q2.2499867412109373,18.8033,3.3483367412109377,19.901600000000002Q4.446684741210937,21,5.9999847412109375,21L17.999984741210938,21Q19.553284741210938,21,20.65168474121094,19.901600000000002Q21.749984741210938,18.8033,21.749984741210938,17.24999L21.749984741210938,8.25Q21.749984741210938,8.1761315,21.73558474121094,8.103682Q21.721184741210937,8.031233,21.69288474121094,7.962987Q21.664584741210938,7.894742,21.623584741210937,7.833322Q21.582584741210937,7.771903,21.530284741210938,7.71967Q21.47808474121094,7.667437,21.416684741210936,7.626398Q21.355284741210937,7.585359,21.286984741210937,7.55709Q21.21878474121094,7.528822,21.146284741210938,7.514411Q21.073884741210936,7.5,20.999984741210938,7.5ZM3.7499987412109377,9L3.7499897412109373,17.24998Q3.7499877412109375,18.18197,4.408994741210938,18.841Q5.068004741210938,19.5,5.9999847412109375,19.5L17.999984741210938,19.5Q18.93198474121094,19.5,19.59098474121094,18.841Q20.249984741210938,18.18197,20.249984741210938,17.24999L20.249984741210938,9L3.7499987412109377,9Z" fill-rule="evenodd" fill="#231F2E" fill-opacity="1"/></g><g><path d="M2.25,6.75Q2.25,5.1967,3.34835,4.09835Q4.4467,3.00000488758,6,3.00000435114L18,3Q19.5534,3,20.6535,4.10792Q21.75,5.21217,21.75,6.76539L21.75,8.25001C21.75,8.66423,21.4142,9.00001,21,9.00001L3,9.00001C2.585786,9.00001,2.25,8.66423,2.25,8.25001L2.25,6.75ZM4.5,6L4.5,6.008C4.5,6.42221,4.835789999999999,6.758,5.25,6.758L5.258,6.758C5.67221,6.758,6.008,6.42221,6.008,6.008L6.008,6C6.008,5.585789999999999,5.67221,5.25,5.258,5.25L5.25,5.25C4.835789999999999,5.25,4.5,5.585789999999999,4.5,6ZM6.75,6L6.75,6.008C6.75,6.42221,7.08579,6.758,7.5,6.758L7.508,6.758C7.92221,6.758,8.258,6.42221,8.258,6.008L8.258,6C8.258,5.585789999999999,7.92221,5.25,7.508,5.25L7.5,5.25C7.08579,5.25,6.75,5.585789999999999,6.75,6ZM10.508,6.008L10.508,6C10.508,5.585789999999999,10.17221,5.25,9.758,5.25L9.75,5.25C9.33579,5.25,9,5.585789999999999,9,6L9,6.008C9,6.42221,9.33579,6.758,9.75,6.758L9.758,6.758C10.17221,6.758,10.508,6.42221,10.508,6.008Z" fill-rule="evenodd" fill="#231F2E" fill-opacity="1"/></g><g><path d="M19,15.5L19,14.752320000000001Q19,14.70307,18.9904,14.65477Q18.980800000000002,14.60647,18.9619,14.56098Q18.9431,14.51548,18.9157,14.47453Q18.8884,14.43359,18.8536,14.398769999999999Q18.8187,14.36394,18.7778,14.33658Q18.736800000000002,14.30922,18.6913,14.290379999999999Q18.6458,14.27153,18.5975,14.26193Q18.5492,14.252320000000001,18.5,14.252320000000001Q18.4508,14.252320000000001,18.4025,14.26193Q18.3542,14.27153,18.3087,14.290379999999999Q18.263199999999998,14.30922,18.2222,14.33658Q18.1813,14.36394,18.1464,14.398769999999999Q18.1116,14.43359,18.0843,14.47453Q18.0569,14.51548,18.0381,14.56098Q18.019199999999998,14.60647,18.0096,14.65477Q18,14.70307,18,14.752320000000001L18,14.7533L18,15.5Q18,15.70711,17.8536,15.85355Q17.7071,16,17.5,16L6.5,16Q6.292893,16,6.146447,15.85355Q6,15.70711,6,15.5L6,12.5Q6,12.292893,6.146447,12.146447Q6.292893,12,6.5,12L16,12Q16.0492,12,16.0975,11.990393Q16.1458,11.980785000000001,16.1913,11.96194Q16.236800000000002,11.943094,16.2778,11.915735Q16.3187,11.888375,16.3536,11.853553Q16.3884,11.818731,16.4157,11.777785Q16.4431,11.736839,16.4619,11.691342Q16.480800000000002,11.645845,16.4904,11.5975451Q16.5,11.5492457,16.5,11.5Q16.5,11.4507543,16.4904,11.4024549Q16.480800000000002,11.354155,16.4619,11.308658Q16.4431,11.263161,16.4157,11.222215Q16.3884,11.181269,16.3536,11.146447Q16.3187,11.111625,16.2778,11.084265Q16.236800000000002,11.056906,16.1913,11.03806Q16.1458,11.019214999999999,16.0975,11.009607Q16.0492,11,16,11L6.5,11Q5.87868,11,5.4393399,11.4393399Q5,11.87868,5,12.5L5,15.5Q5,16.12132,5.4393397,16.56066Q5.87868,17,6.5,17L17.5,17Q18.121299999999998,17,18.5607,16.56066Q19,16.12132,19,15.5Z" fill-rule="evenodd" fill="#231F2E" fill-opacity="1"/></g><g><path d="M19.1070766015625,11.603552Q19.1774066015625,11.533225999999999,19.2154666015625,11.441341Q19.2535266015625,11.3494555,19.2535266015625,11.25Q19.2535266015625,11.2007543,19.2439166015625,11.1524549Q19.2343066015625,11.104155,19.2154666015625,11.058658Q19.1966166015625,11.013161,19.169256601562502,10.972215Q19.1418966015625,10.931269,19.1070766015625,10.896447Q19.0722566015625,10.861625,19.0313066015625,10.834265Q18.9903566015625,10.806906,18.9448666015625,10.78806Q18.899366601562498,10.769214999999999,18.8510666015625,10.759607Q18.8027666015625,10.75,18.7535266015625,10.75Q18.6540666015625,10.75,18.5621766015625,10.788061Q18.4702966015625,10.826121,18.3999666015625,10.896448L16.1510206015625,13.14542L16.1509616015625,13.14548Q16.0806366015625,13.2158,16.0425766015625,13.307690000000001Q16.0045166015625,13.39957,16.0045166015625,13.49903Q16.0045166015625,13.54827,16.0141236015625,13.59657Q16.0237316015625,13.644870000000001,16.0425766015625,13.69037Q16.0614226015625,13.73587,16.0887816015625,13.77681Q16.1161416015625,13.81776,16.1509636015625,13.85258Q16.1857856015625,13.8874,16.2267316015625,13.91476Q16.2676776015625,13.94212,16.3131746015625,13.96097Q16.3586716015625,13.97981,16.4069715015625,13.989419999999999Q16.4552709015625,13.99903,16.5045166015625,13.99903Q16.6039734015625,13.99903,16.6958596015625,13.96097Q16.7877456015625,13.92291,16.8580716015625,13.85258L16.8581316015625,13.85252L19.1070766015625,11.603552L19.1070766015625,11.603552Z" fill-rule="evenodd" fill="#231F2E" fill-opacity="1"/></g><g><g><path d="M10.715000114440919,13.125Q10.715000114440919,13.0964375,10.720572114440918,13.0684238Q10.726145114440918,13.0404101,10.737075114440918,13.014022Q10.748005114440918,12.987634,10.763874114440918,12.963885Q10.779742114440918,12.940136,10.799939114440917,12.919939Q10.820136114440919,12.899742,10.843885114440917,12.883874Q10.867634114440918,12.868005,10.894022114440919,12.857075Q10.920410214440919,12.846145,10.948423914440918,12.840572Q10.976437614440918,12.835,11.005000114440918,12.835Q11.033562614440918,12.835,11.061576314440918,12.840572Q11.089590014440917,12.846145,11.115978114440917,12.857075Q11.142366114440918,12.868005,11.166115114440919,12.883874Q11.189864114440917,12.899742,11.210061114440919,12.919939Q11.230258114440918,12.940136,11.246126114440917,12.963885Q11.261995114440918,12.987634,11.272925114440918,13.014022Q11.283855114440918,13.0404101,11.289428114440918,13.0684238Q11.295000114440917,13.0964375,11.295000114440917,13.125L11.296667114440918,13.125L11.296667114440918,14.875L11.295000114440917,14.875Q11.295000114440917,14.90356,11.289428114440918,14.93158Q11.283855114440918,14.95959,11.272925114440918,14.98598Q11.261995114440918,15.01237,11.246126114440917,15.03612Q11.230258114440918,15.05986,11.210061114440919,15.08006Q11.189864114440917,15.10026,11.166115114440919,15.11613Q11.142366114440918,15.13199,11.115978114440917,15.14292Q11.089590014440917,15.15386,11.061576314440918,15.15943Q11.033562614440918,15.165,11.005000114440918,15.165Q10.976437614440918,15.165,10.948423914440918,15.15943Q10.920410214440919,15.15386,10.894022114440919,15.14292Q10.867634114440918,15.13199,10.843885114440917,15.11613Q10.820136114440919,15.10026,10.799939114440917,15.08006Q10.779742114440918,15.05986,10.763874114440918,15.03612Q10.748005114440918,15.01237,10.737075114440918,14.98598Q10.726145114440918,14.95959,10.720572114440918,14.93158Q10.715000114440919,14.90356,10.715000114440919,14.875L10.713333114440918,14.875L10.713333114440918,13.125L10.715000114440919,13.125Z" fill-rule="evenodd" fill="#2882FF" fill-opacity="1"/></g><g><path d="M12.009690114440918,13.821884Q12.083380114440917,13.785041,12.126690114440919,13.714962Q12.170000114440917,13.644883,12.170000114440917,13.5625Q12.170000114440917,13.5339375,12.164430114440918,13.5059238Q12.158860114440918,13.4779101,12.147920114440918,13.451522Q12.136990114440918,13.425134,12.121130114440918,13.401385Q12.105260114440918,13.377636,12.085060114440918,13.357439Q12.064860114440918,13.337242,12.041120114440918,13.321374Q12.017370114440919,13.305505,11.990980114440918,13.294575Q11.964590114440918,13.283645,11.936580114440918,13.278072Q11.908560114440919,13.2725,11.880000114440918,13.2725Q11.811540114440918,13.2725,11.750310114440918,13.303116L11.749560114440918,13.301625L9.999563114440917,14.176625L10.000308114440918,14.178116Q9.926623114440918,14.214959,9.883311114440918,14.285038Q9.840000114440919,14.355117,9.840000114440919,14.4375Q9.840000114440919,14.466062,9.845572114440918,14.494076Q9.851145114440918,14.52209,9.862075114440918,14.548478Q9.873005114440918,14.57487,9.888874114440918,14.59862Q9.904742114440918,14.62236,9.924939114440917,14.64256Q9.945136114440919,14.66276,9.968885114440917,14.67863Q9.992634114440918,14.69449,10.019022114440919,14.70542Q10.045410214440919,14.71636,10.073423914440918,14.72193Q10.101437614440918,14.7275,10.130000114440918,14.7275Q10.198459814440918,14.7275,10.259692114440918,14.69688L10.260437114440919,14.69837L12.010440114440918,13.823375L12.009690114440918,13.821884Z" fill-rule="evenodd" fill="#2882FF" fill-opacity="1"/></g><g><path d="M10.259692114440918,13.303116L10.260437114440919,13.301625L12.010440114440918,14.176625L12.009690114440918,14.178116Q12.083380114440917,14.214959,12.126690114440919,14.285038Q12.170000114440917,14.355117,12.170000114440917,14.4375Q12.170000114440917,14.466062,12.164430114440918,14.494076Q12.158860114440918,14.52209,12.147920114440918,14.548478Q12.136990114440918,14.57487,12.121130114440918,14.59862Q12.105260114440918,14.62236,12.085060114440918,14.64256Q12.064860114440918,14.66276,12.041120114440918,14.67863Q12.017370114440919,14.69449,11.990980114440918,14.70542Q11.964590114440918,14.71636,11.936580114440918,14.72193Q11.908560114440919,14.7275,11.880000114440918,14.7275Q11.811540114440918,14.7275,11.750310114440918,14.69688L11.749560114440918,14.69837L9.999563114440917,13.823375L10.000308114440918,13.821884Q9.926623114440918,13.785041,9.883311114440918,13.714962Q9.840000114440919,13.6448829,9.840000114440919,13.5625Q9.840000114440919,13.5339375,9.845572114440918,13.5059238Q9.851145114440918,13.4779101,9.862075114440918,13.451522Q9.873005114440918,13.425134,9.888874114440918,13.401385Q9.904742114440918,13.377636,9.924939114440917,13.357439Q9.945136114440919,13.337242,9.968885114440917,13.321374Q9.992634114440918,13.305505,10.019022114440919,13.294575Q10.045410214440919,13.283645,10.073423914440918,13.278072Q10.101437614440918,13.2725,10.130000114440918,13.2725Q10.198459814440918,13.2725,10.259692114440918,13.303116Z" fill-rule="evenodd" fill="#2882FF" fill-opacity="1"/></g></g><g><g><path d="M7.71,13.125Q7.71,13.0964375,7.715572,13.0684238Q7.721145,13.0404101,7.732075,13.014022Q7.743005,12.987634,7.758874,12.963885Q7.774742,12.940136,7.794939,12.919939Q7.815136,12.899742,7.838885,12.883874Q7.862634,12.868005,7.889022,12.857075Q7.9154101,12.846145,7.9434238,12.840572Q7.9714375,12.835,8,12.835Q8.0285625,12.835,8.0565762,12.840572Q8.0845899,12.846145,8.110978,12.857075Q8.137366,12.868005,8.161115,12.883874Q8.184864,12.899742,8.205061,12.919939Q8.225258,12.940136,8.241126,12.963885Q8.256995,12.987634,8.267925,13.014022Q8.278855,13.0404101,8.284428,13.0684238Q8.29,13.0964375,8.29,13.125L8.291667,13.125L8.291667,14.875L8.29,14.875Q8.29,14.90356,8.284428,14.93158Q8.278855,14.95959,8.267925,14.98598Q8.256995,15.01237,8.241126,15.03612Q8.225258,15.05986,8.205061,15.08006Q8.184864,15.10026,8.161115,15.11613Q8.137366,15.13199,8.110978,15.14292Q8.0845899,15.15386,8.0565762,15.15943Q8.0285625,15.165,8,15.165Q7.9714375,15.165,7.9434238,15.15943Q7.9154101,15.15386,7.889022,15.14292Q7.862634,15.13199,7.838885,15.11613Q7.815136,15.10026,7.794939,15.08006Q7.774742,15.05986,7.758874,15.03612Q7.743005,15.01237,7.732075,14.98598Q7.721145,14.95959,7.715572,14.93158Q7.71,14.90356,7.71,14.875L7.708333,14.875L7.708333,13.125L7.71,13.125Z" fill-rule="evenodd" fill="#2882FF" fill-opacity="1"/></g><g><path d="M9.00469,13.821884Q9.07838,13.785041,9.121690000000001,13.714962Q9.165,13.644883,9.165,13.5625Q9.165,13.5339375,9.15943,13.5059238Q9.15386,13.4779101,9.14292,13.451522Q9.13199,13.425134,9.11613,13.401385Q9.10026,13.377636,9.08006,13.357439Q9.05986,13.337242,9.03612,13.321374Q9.01237,13.305505,8.98598,13.294575Q8.95959,13.283645,8.93158,13.278072Q8.90356,13.2725,8.875,13.2725Q8.80654,13.2725,8.74531,13.303116L8.74456,13.301625L6.994563,14.176625L6.995308,14.178116Q6.921623,14.214959,6.878311,14.285038Q6.835,14.355117,6.835,14.4375Q6.835,14.466062,6.840572,14.494076Q6.846145,14.52209,6.857075,14.548478Q6.868005,14.57487,6.883874,14.59862Q6.899742,14.62236,6.919939,14.64256Q6.940136,14.66276,6.963885,14.67863Q6.987634,14.69449,7.014022,14.70542Q7.0404101,14.71636,7.0684238,14.72193Q7.0964375,14.7275,7.125,14.7275Q7.1934597,14.7275,7.254692,14.69688L7.255437,14.69837L9.00544,13.823375L9.00469,13.821884Z" fill-rule="evenodd" fill="#2882FF" fill-opacity="1"/></g><g><path d="M7.254692,13.303116L7.255437,13.301625L9.00544,14.176625L9.00469,14.178116Q9.07838,14.214959,9.121690000000001,14.285038Q9.165,14.355117,9.165,14.4375Q9.165,14.466062,9.15943,14.494076Q9.15386,14.52209,9.14292,14.548478Q9.13199,14.57487,9.11613,14.59862Q9.10026,14.62236,9.08006,14.64256Q9.05986,14.66276,9.03612,14.67863Q9.01237,14.69449,8.98598,14.70542Q8.95959,14.71636,8.93158,14.72193Q8.90356,14.7275,8.875,14.7275Q8.80654,14.7275,8.74531,14.69688L8.74456,14.69837L6.994563,13.823375L6.995308,13.821884Q6.921623,13.785041,6.878311,13.714962Q6.835,13.6448829,6.835,13.5625Q6.835,13.5339375,6.840572,13.5059238Q6.846145,13.4779101,6.857075,13.451522Q6.868005,13.425134,6.883874,13.401385Q6.899742,13.377636,6.919939,13.357439Q6.940136,13.337242,6.963885,13.321374Q6.987634,13.305505,7.014022,13.294575Q7.0404101,13.283645,7.0684238,13.278072Q7.0964375,13.2725,7.125,13.2725Q7.1934597,13.2725,7.254692,13.303116Z" fill-rule="evenodd" fill="#2882FF" fill-opacity="1"/></g></g><g><g><path d="M13.715000114440919,13.125Q13.715000114440919,13.0964375,13.720572114440918,13.0684238Q13.726145114440918,13.0404101,13.737075114440918,13.014022Q13.748005114440918,12.987634,13.763874114440918,12.963885Q13.779742114440918,12.940136,13.799939114440917,12.919939Q13.820136114440919,12.899742,13.843885114440917,12.883874Q13.867634114440918,12.868005,13.894022114440919,12.857075Q13.920410214440919,12.846145,13.948423914440918,12.840572Q13.976437614440918,12.835,14.005000114440918,12.835Q14.033562614440918,12.835,14.061576314440918,12.840572Q14.089590014440917,12.846145,14.115978114440917,12.857075Q14.142366114440918,12.868005,14.166115114440919,12.883874Q14.189864114440917,12.899742,14.210061114440919,12.919939Q14.230258114440918,12.940136,14.246126114440917,12.963885Q14.261995114440918,12.987634,14.272925114440918,13.014022Q14.283855114440918,13.0404101,14.289428114440918,13.0684238Q14.295000114440917,13.0964375,14.295000114440917,13.125L14.296667114440918,13.125L14.296667114440918,14.875L14.295000114440917,14.875Q14.295000114440917,14.90356,14.289428114440918,14.93158Q14.283855114440918,14.95959,14.272925114440918,14.98598Q14.261995114440918,15.01237,14.246126114440917,15.03612Q14.230258114440918,15.05986,14.210061114440919,15.08006Q14.189864114440917,15.10026,14.166115114440919,15.11613Q14.142366114440918,15.13199,14.115978114440917,15.14292Q14.089590014440917,15.15386,14.061576314440918,15.15943Q14.033562614440918,15.165,14.005000114440918,15.165Q13.976437614440918,15.165,13.948423914440918,15.15943Q13.920410214440919,15.15386,13.894022114440919,15.14292Q13.867634114440918,15.13199,13.843885114440917,15.11613Q13.820136114440919,15.10026,13.799939114440917,15.08006Q13.779742114440918,15.05986,13.763874114440918,15.03612Q13.748005114440918,15.01237,13.737075114440918,14.98598Q13.726145114440918,14.95959,13.720572114440918,14.93158Q13.715000114440919,14.90356,13.715000114440919,14.875L13.713333114440918,14.875L13.713333114440918,13.125L13.715000114440919,13.125Z" fill-rule="evenodd" fill="#2882FF" fill-opacity="1"/></g><g><path d="M15.009690114440918,13.821884Q15.083380114440917,13.785041,15.126690114440919,13.714962Q15.170000114440917,13.644883,15.170000114440917,13.5625Q15.170000114440917,13.5339375,15.164430114440918,13.5059238Q15.158860114440918,13.4779101,15.147920114440918,13.451522Q15.136990114440918,13.425134,15.121130114440918,13.401385Q15.105260114440918,13.377636,15.085060114440918,13.357439Q15.064860114440918,13.337242,15.041120114440918,13.321374Q15.017370114440919,13.305505,14.990980114440918,13.294575Q14.964590114440918,13.283645,14.936580114440918,13.278072Q14.908560114440919,13.2725,14.880000114440918,13.2725Q14.811540114440918,13.2725,14.750310114440918,13.303116L14.749560114440918,13.301625L12.999563114440917,14.176625L13.000308114440918,14.178116Q12.926623114440918,14.214959,12.883311114440918,14.285038Q12.840000114440919,14.355117,12.840000114440919,14.4375Q12.840000114440919,14.466062,12.845572114440918,14.494076Q12.851145114440918,14.52209,12.862075114440918,14.548478Q12.873005114440918,14.57487,12.888874114440918,14.59862Q12.904742114440918,14.62236,12.924939114440917,14.64256Q12.945136114440919,14.66276,12.968885114440917,14.67863Q12.992634114440918,14.69449,13.019022114440919,14.70542Q13.045410214440919,14.71636,13.073423914440918,14.72193Q13.101437614440918,14.7275,13.130000114440918,14.7275Q13.198459814440918,14.7275,13.259692114440918,14.69688L13.260437114440919,14.69837L15.010440114440918,13.823375L15.009690114440918,13.821884Z" fill-rule="evenodd" fill="#2882FF" fill-opacity="1"/></g><g><path d="M13.259692114440918,13.303116L13.260437114440919,13.301625L15.010440114440918,14.176625L15.009690114440918,14.178116Q15.083380114440917,14.214959,15.126690114440919,14.285038Q15.170000114440917,14.355117,15.170000114440917,14.4375Q15.170000114440917,14.466062,15.164430114440918,14.494076Q15.158860114440918,14.52209,15.147920114440918,14.548478Q15.136990114440918,14.57487,15.121130114440918,14.59862Q15.105260114440918,14.62236,15.085060114440918,14.64256Q15.064860114440918,14.66276,15.041120114440918,14.67863Q15.017370114440919,14.69449,14.990980114440918,14.70542Q14.964590114440918,14.71636,14.936580114440918,14.72193Q14.908560114440919,14.7275,14.880000114440918,14.7275Q14.811540114440918,14.7275,14.750310114440918,14.69688L14.749560114440918,14.69837L12.999563114440917,13.823375L13.000308114440918,13.821884Q12.926623114440918,13.785041,12.883311114440918,13.714962Q12.840000114440919,13.6448829,12.840000114440919,13.5625Q12.840000114440919,13.5339375,12.845572114440918,13.5059238Q12.851145114440918,13.4779101,12.862075114440918,13.451522Q12.873005114440918,13.425134,12.888874114440918,13.401385Q12.904742114440918,13.377636,12.924939114440917,13.357439Q12.945136114440919,13.337242,12.968885114440917,13.321374Q12.992634114440918,13.305505,13.019022114440919,13.294575Q13.045410214440919,13.283645,13.073423914440918,13.278072Q13.101437614440918,13.2725,13.130000114440918,13.2725Q13.198459814440918,13.2725,13.259692114440918,13.303116Z" fill-rule="evenodd" fill="#2882FF" fill-opacity="1"/></g></g></g></svg>