<svg xmlns="http://www.w3.org/2000/svg" xmlns:xlink="http://www.w3.org/1999/xlink" fill="none" version="1.1" width="24" height="24" viewBox="0 0 24 24"><defs><clipPath id="master_svg0_76_01331"><rect x="0" y="0" width="24" height="24" rx="0"/></clipPath></defs><g clip-path="url(#master_svg0_76_01331)"><g><path d="M20.999984741210938,7.5L3.0000000000109375,7.5Q2.9261315412109377,7.5,2.8536827412109376,7.514411Q2.7812337412109374,7.528822,2.7129877412109376,7.55709Q2.6447417412109377,7.585359,2.5833227412109374,7.626398Q2.5219027412109374,7.667437,2.4696707412109378,7.71967Q2.4174377412109376,7.771903,2.3763977412109374,7.833322Q2.3353587412109373,7.894742,2.3070907412109376,7.962987Q2.2788227412109374,8.031233,2.2644117412109375,8.103682Q2.2499997412109374,8.1761314,2.2499997412109374,8.25L2.2499897412109373,17.24998Q2.2499867412109373,18.8033,3.3483367412109377,19.901600000000002Q4.446684741210937,21,5.9999847412109375,21L17.999984741210938,21Q19.553284741210938,21,20.65168474121094,19.901600000000002Q21.749984741210938,18.8033,21.749984741210938,17.24999L21.749984741210938,8.25Q21.749984741210938,8.1761315,21.73558474121094,8.103682Q21.721184741210937,8.031233,21.69288474121094,7.962987Q21.664584741210938,7.894742,21.623584741210937,7.833322Q21.582584741210937,7.771903,21.530284741210938,7.71967Q21.47808474121094,7.667437,21.416684741210936,7.626398Q21.355284741210937,7.585359,21.286984741210937,7.55709Q21.21878474121094,7.528822,21.146284741210938,7.514411Q21.073884741210936,7.5,20.999984741210938,7.5ZM3.7499987412109377,9L3.7499897412109373,17.24998Q3.7499877412109375,18.18197,4.408994741210938,18.841Q5.068004741210938,19.5,5.9999847412109375,19.5L17.999984741210938,19.5Q18.93198474121094,19.5,19.59098474121094,18.841Q20.249984741210938,18.18197,20.249984741210938,17.24999L20.249984741210938,9L3.7499987412109377,9Z" fill-rule="evenodd" fill="#231F2E" fill-opacity="1"/></g><g><path d="M2.25,6.75Q2.25,5.1967,3.34835,4.09835Q4.4467,3.00000488758,6,3.00000435114L18,3Q19.5534,3,20.6535,4.10792Q21.75,5.21217,21.75,6.76539L21.75,8.25001C21.75,8.66423,21.4142,9.00001,21,9.00001L3,9.00001C2.585786,9.00001,2.25,8.66423,2.25,8.25001L2.25,6.75ZM4.5,6L4.5,6.008C4.5,6.42221,4.835789999999999,6.758,5.25,6.758L5.258,6.758C5.67221,6.758,6.008,6.42221,6.008,6.008L6.008,6C6.008,5.585789999999999,5.67221,5.25,5.258,5.25L5.25,5.25C4.835789999999999,5.25,4.5,5.585789999999999,4.5,6ZM6.75,6L6.75,6.008C6.75,6.42221,7.08579,6.758,7.5,6.758L7.508,6.758C7.92221,6.758,8.258,6.42221,8.258,6.008L8.258,6C8.258,5.585789999999999,7.92221,5.25,7.508,5.25L7.5,5.25C7.08579,5.25,6.75,5.585789999999999,6.75,6ZM10.508,6.008L10.508,6C10.508,5.585789999999999,10.17221,5.25,9.758,5.25L9.75,5.25C9.33579,5.25,9,5.585789999999999,9,6L9,6.008C9,6.42221,9.33579,6.758,9.75,6.758L9.758,6.758C10.17221,6.758,10.508,6.42221,10.508,6.008Z" fill-rule="evenodd" fill="#231F2E" fill-opacity="1"/></g><g><path d="M7,14.75L17,14.75Q17.073900000000002,14.75,17.1463,14.764410999999999Q17.2188,14.778822,17.287,14.80709Q17.3553,14.835359,17.4167,14.876398Q17.478099999999998,14.917437,17.5303,14.96967Q17.5826,15.021903,17.6236,15.083322Q17.6646,15.144742,17.6929,15.212987Q17.7212,15.281233,17.735599999999998,15.353682Q17.75,15.4261315,17.75,15.5Q17.75,15.5738685,17.735599999999998,15.646318Q17.7212,15.718767,17.6929,15.787013Q17.6646,15.855258,17.6236,15.916678Q17.5826,15.978097,17.5303,16.03033Q17.478099999999998,16.082563,17.4167,16.123601999999998Q17.3553,16.164641,17.287,16.19291Q17.2188,16.221178,17.1463,16.235589Q17.073900000000002,16.25,17,16.25L7,16.25Q6.9261315,16.25,6.853682,16.235589Q6.781233,16.221178,6.712987,16.19291Q6.644742,16.164641,6.583322,16.123601999999998Q6.521903,16.082563,6.46967,16.03033Q6.417437,15.978097,6.376398,15.916678Q6.335359,15.855258,6.30709,15.787013Q6.278822,15.718767,6.264411,15.646318Q6.25,15.5738685,6.25,15.5Q6.25,15.4261315,6.264411,15.353682Q6.278822,15.281233,6.30709,15.212987Q6.335359,15.144742,6.376398,15.083322Q6.417437,15.021903,6.46967,14.96967Q6.521903,14.917437,6.583322,14.876398Q6.644742,14.835359,6.712987,14.80709Q6.781233,14.778822,6.853682,14.764410999999999Q6.9261315,14.75,7,14.75Z" fill-rule="evenodd" fill="#2882FF" fill-opacity="1" style="mix-blend-mode:passthrough"/></g><g><path d="M7,11.75L15,11.75Q15.07387,11.75,15.14632,11.764410999999999Q15.21877,11.778822,15.28701,11.80709Q15.35526,11.835359,15.41668,11.876398Q15.4781,11.917437,15.53033,11.96967Q15.58256,12.021903,15.6236,12.083322Q15.66464,12.144742,15.69291,12.212987Q15.72118,12.281233,15.73559,12.353682Q15.75,12.4261315,15.75,12.5Q15.75,12.5738685,15.73559,12.646318Q15.72118,12.718767,15.69291,12.787013Q15.66464,12.855258,15.6236,12.916678Q15.58256,12.978097,15.53033,13.03033Q15.4781,13.082563,15.41668,13.123602Q15.35526,13.164641,15.28701,13.19291Q15.21877,13.221178,15.14632,13.235589000000001Q15.07387,13.25,15,13.25L7,13.25Q6.9261315,13.25,6.853682,13.235589000000001Q6.781233,13.221178,6.712987,13.19291Q6.644742,13.164641,6.583322,13.123602Q6.521903,13.082563,6.46967,13.03033Q6.417437,12.978097,6.376398,12.916678Q6.335359,12.855258,6.30709,12.787013Q6.278822,12.718767,6.264411,12.646318Q6.25,12.5738685,6.25,12.5Q6.25,12.4261315,6.264411,12.353682Q6.278822,12.281233,6.30709,12.212987Q6.335359,12.144742,6.376398,12.083322Q6.417437,12.021903,6.46967,11.96967Q6.521903,11.917437,6.583322,11.876398Q6.644742,11.835359,6.712987,11.80709Q6.781233,11.778822,6.853682,11.764410999999999Q6.9261315,11.75,7,11.75Z" fill-rule="evenodd" fill="#2882FF" fill-opacity="1" style="mix-blend-mode:passthrough"/></g></g></svg>