<svg xmlns="http://www.w3.org/2000/svg" xmlns:xlink="http://www.w3.org/1999/xlink" fill="none" version="1.1" width="24" height="24" viewBox="0 0 24 24"><defs><clipPath id="master_svg0_48_02123"><rect x="0" y="0" width="24" height="24" rx="0"/></clipPath></defs><g clip-path="url(#master_svg0_48_02123)"><g><path d="M18.530484,6.469824L21.53033,9.46967Q21.63582,9.57516,21.69291,9.71299Q21.75,9.85082,21.75,10Q21.75,10.14918,21.69291,10.28701Q21.63582,10.42484,21.53033,10.53033L18.530792,13.529869999999999L18.53033,13.53033Q18.424841,13.635819999999999,18.287013,13.692910000000001Q18.149184,13.75,18,13.75Q17.9261315,13.75,17.853682,13.73559Q17.781233,13.72118,17.712987,13.692910000000001Q17.644742,13.66464,17.583322,13.6236Q17.521903000000002,13.58256,17.46967,13.53033Q17.417437,13.478100000000001,17.376398000000002,13.41668Q17.335359,13.355260000000001,17.30709,13.28701Q17.278822,13.21877,17.264411,13.14632Q17.25,13.07387,17.25,13Q17.25,12.850819999999999,17.30709,12.71299Q17.364181,12.57516,17.46967,12.46967L17.470132,12.46921L19.93934,10L17.469824,7.5304839999999995L17.46967,7.53033Q17.364181,7.424841,17.30709,7.287013Q17.25,7.149184,17.25,7Q17.25,6.9261315,17.264411,6.853682Q17.278822,6.781233,17.30709,6.712987Q17.335359,6.644742,17.376398000000002,6.583322Q17.417437,6.521903,17.46967,6.46967Q17.521903000000002,6.417437,17.583322,6.376398Q17.644742,6.335359,17.712987,6.30709Q17.781233,6.278822,17.853682,6.264411Q17.9261315,6.25,18,6.25Q18.149184,6.25,18.287013,6.30709Q18.424841,6.364181,18.53033,6.46967L18.530484,6.469824Z" fill-rule="evenodd" fill="#231F2E" fill-opacity="1"/></g><g transform="matrix(1,0,0,-1,0,20)"><path d="M9,10.75L21,10.75Q21.073900000000002,10.75,21.1463,10.735589000000001Q21.2188,10.721178,21.287,10.69291Q21.3553,10.664641,21.4167,10.623602Q21.478099999999998,10.582563,21.5303,10.53033Q21.5826,10.478097,21.6236,10.416678Q21.6646,10.355258,21.6929,10.287013Q21.7212,10.218767,21.735599999999998,10.146318Q21.75,10.0738685,21.75,10Q21.75,9.9261315,21.735599999999998,9.853682Q21.7212,9.781233,21.6929,9.712987Q21.6646,9.644742,21.6236,9.583322Q21.5826,9.521903,21.5303,9.46967Q21.478099999999998,9.417437,21.4167,9.376398Q21.3553,9.335359,21.287,9.30709Q21.2188,9.278822,21.1463,9.264410999999999Q21.073900000000002,9.25,21,9.25L9,9.25Q7.4467,9.25,6.348349,10.348349Q5.25,11.4467,5.25,13L5.25,17Q5.25,17.07387,5.264411,17.14632Q5.278822,17.21877,5.30709,17.287010000000002Q5.335359,17.35526,5.376398,17.41668Q5.417437,17.4781,5.46967,17.53033Q5.521903,17.58256,5.583322,17.6236Q5.644742,17.66464,5.712987,17.69291Q5.781233,17.72118,5.853682,17.735590000000002Q5.9261315,17.75,6,17.75Q6.0738685,17.75,6.146318,17.735590000000002Q6.218767,17.72118,6.287013,17.69291Q6.355258,17.66464,6.416678,17.6236Q6.478097,17.58256,6.53033,17.53033Q6.582563,17.4781,6.623602,17.41668Q6.664641,17.35526,6.69291,17.287010000000002Q6.721178,17.21877,6.735589,17.14632Q6.75,17.07387,6.75,17L6.75,13Q6.75,12.06802,7.40901,11.40901Q8.06802,10.75,9,10.75Z" fill-rule="evenodd" fill="#231F2E" fill-opacity="1"/></g><g><path d="M8.9951171875,14.75L9.9999971875,14.75Q10.0738671875,14.75,10.1463171875,14.735589000000001Q10.2187671875,14.721178,10.2870071875,14.69291Q10.355257187500001,14.664641,10.4166771875,14.623602Q10.478097187500001,14.582563,10.5303271875,14.53033Q10.5825671875,14.478097,10.6235971875,14.416678Q10.6646371875,14.355258,10.692907187500001,14.287013Q10.7211771875,14.218767,10.7355871875,14.146318Q10.7499971875,14.0738685,10.7499971875,14Q10.7499971875,13.9261315,10.7355871875,13.853682Q10.7211771875,13.781233,10.692907187500001,13.712987Q10.6646371875,13.644742,10.6235971875,13.583322Q10.5825671875,13.521903,10.5303271875,13.46967Q10.478097187500001,13.417437,10.4166771875,13.376398Q10.355257187500001,13.335359,10.2870071875,13.30709Q10.2187671875,13.278822,10.1463171875,13.264410999999999Q10.0738671875,13.25,9.9999971875,13.25L8.9951171875,13.25Q7.4418171875,13.25,6.3434671875,14.34835Q5.2451171875,15.4467,5.2451171875,17L5.2451171875,21Q5.2451171875,21.07387,5.2595281875,21.14632Q5.2739391875,21.21877,5.3022071875,21.287010000000002Q5.3304761875,21.35526,5.3715151875,21.41668Q5.4125541875,21.4781,5.4647871875,21.53033Q5.5170201875,21.58256,5.5784391875,21.6236Q5.6398591875,21.66464,5.7081041875,21.69291Q5.7763501875,21.72118,5.8487991875,21.735590000000002Q5.9212486875,21.75,5.9951171875,21.75Q6.0689856875,21.75,6.1414351875,21.735590000000002Q6.2138841875,21.72118,6.2821301875,21.69291Q6.3503751875,21.66464,6.4117951875,21.6236Q6.4732141875,21.58256,6.5254471875,21.53033Q6.5776801875,21.4781,6.6187191875,21.41668Q6.6597581875,21.35526,6.6880271875,21.287010000000002Q6.7162951875,21.21877,6.7307061875,21.14632Q6.7451171875,21.07387,6.7451171875,21L6.7451171875,17Q6.7451171875,16.06802,7.4041271875,15.40901Q8.0631371875,14.75,8.9951171875,14.75Z" fill-rule="evenodd" fill="#231F2E" fill-opacity="1"/></g><g><path d="M3.530484,17.469824L6,19.93934L8.46921,17.470132L8.46967,17.46967Q8.57516,17.364181,8.71299,17.30709Q8.850819999999999,17.25,9,17.25Q9.07387,17.25,9.14632,17.264411Q9.21877,17.278822,9.28701,17.30709Q9.355260000000001,17.335359,9.41668,17.376398000000002Q9.478100000000001,17.417437,9.53033,17.46967Q9.58256,17.521903000000002,9.6236,17.583322Q9.66464,17.644742,9.692910000000001,17.712987Q9.72118,17.781233,9.73559,17.853682Q9.75,17.9261315,9.75,18Q9.75,18.149184,9.692910000000001,18.287013Q9.635819999999999,18.424841,9.53033,18.53033L9.529869999999999,18.530792L6.53033,21.53033Q6.42484,21.63582,6.28701,21.69291Q6.149179999999999,21.75,6,21.75Q5.850820000000001,21.75,5.71299,21.69291Q5.57516,21.63582,5.46967,21.53033L2.46967,18.53033Q2.364181,18.424841,2.30709,18.287013Q2.25,18.149184,2.25,18Q2.25,17.9261315,2.264411,17.853682Q2.278822,17.781233,2.30709,17.712987Q2.335359,17.644742,2.376398,17.583322Q2.417437,17.521903000000002,2.46967,17.46967Q2.521903,17.417437,2.583322,17.376398000000002Q2.644742,17.335359,2.712987,17.30709Q2.781233,17.278822,2.853682,17.264411Q2.9261315,17.25,3,17.25Q3.149184,17.25,3.287013,17.30709Q3.424841,17.364181,3.53033,17.46967L3.530484,17.469824Z" fill-rule="evenodd" fill="#231F2E" fill-opacity="1"/></g><g><path d="M14.5,14.75L13,14.75Q12.9261315,14.75,12.853682,14.735589000000001Q12.781233,14.721178,12.712987,14.69291Q12.644742,14.664641,12.583322,14.623602Q12.521903,14.582563,12.46967,14.53033Q12.417437,14.478097,12.376398,14.416678Q12.335359,14.355258,12.30709,14.287013Q12.278822,14.218767,12.264410999999999,14.146318Q12.25,14.0738685,12.25,14Q12.25,13.9261315,12.264410999999999,13.853682Q12.278822,13.781233,12.30709,13.712987Q12.335359,13.644742,12.376398,13.583322Q12.417437,13.521903,12.46967,13.46967Q12.521903,13.417437,12.583322,13.376398Q12.644742,13.335359,12.712987,13.30709Q12.781233,13.278822,12.853682,13.264410999999999Q12.9261315,13.25,13,13.25L14.5,13.25Q14.57387,13.25,14.64632,13.264410999999999Q14.71877,13.278822,14.78701,13.30709Q14.85526,13.335359,14.91668,13.376398Q14.9781,13.417437,15.03033,13.46967Q15.08256,13.521903,15.1236,13.583322Q15.16464,13.644742,15.19291,13.712987Q15.22118,13.781233,15.23559,13.853682Q15.25,13.9261315,15.25,14Q15.25,14.0738685,15.23559,14.146318Q15.22118,14.218767,15.19291,14.287013Q15.16464,14.355258,15.1236,14.416678Q15.08256,14.478097,15.03033,14.53033Q14.9781,14.582563,14.91668,14.623602Q14.85526,14.664641,14.78701,14.69291Q14.71877,14.721178,14.64632,14.735589000000001Q14.57387,14.75,14.5,14.75Z" fill-rule="evenodd" fill="#2882FF" fill-opacity="1"/></g></g></svg>