<svg xmlns="http://www.w3.org/2000/svg" xmlns:xlink="http://www.w3.org/1999/xlink" fill="none" version="1.1" width="24" height="24" viewBox="0 0 24 24"><defs><clipPath id="master_svg0_48_02119"><rect x="0" y="0" width="24" height="24" rx="0"/></clipPath></defs><g clip-path="url(#master_svg0_48_02119)"><g><path d="M21,10L21,15.5Q21,15.5739,21.0144,15.6463Q21.0288,15.7188,21.0571,15.787Q21.0854,15.8553,21.1264,15.9167Q21.1674,15.9781,21.2197,16.0303Q21.2719,16.0826,21.3333,16.1236Q21.3947,16.1646,21.463,16.1929Q21.5312,16.2212,21.6037,16.235599999999998Q21.6761,16.25,21.75,16.25Q21.8239,16.25,21.8963,16.235599999999998Q21.9688,16.2212,22.037,16.1929Q22.1053,16.1646,22.1667,16.1236Q22.2281,16.0826,22.2803,16.0303Q22.3326,15.9781,22.3736,15.9167Q22.4146,15.8553,22.4429,15.787Q22.4712,15.7188,22.4856,15.6463Q22.5,15.5739,22.5,15.5L22.5,10Q22.5,8.75736,21.6213,7.87868Q20.7426,7,19.5,7L14.121,7Q13.8111,6.99973,13.5916,6.779999999999999Q13.5801,6.76844,13.5681,6.7574000000000005L10.47033,3.6596724Q9.8112,3,8.87903,3L4.5,3Q3.2573600000000003,3,2.37868,3.87868Q1.5,4.75736,1.5,6L1.5,18Q1.5,19.2426,2.37868,20.1213Q3.2573600000000003,21,4.5,21L12,21Q12.07387,21,12.14632,20.9856Q12.21877,20.9712,12.287,20.9429Q12.3553,20.9146,12.4167,20.8736Q12.4781,20.8326,12.5303,20.7803Q12.5826,20.7281,12.6236,20.6667Q12.6646,20.6053,12.6929,20.537Q12.7212,20.4688,12.7356,20.3963Q12.75,20.3239,12.75,20.25Q12.75,20.1761,12.7356,20.1037Q12.7212,20.0312,12.6929,19.963Q12.6646,19.8947,12.6236,19.8333Q12.5826,19.7719,12.5303,19.7197Q12.4781,19.6674,12.4167,19.6264Q12.3553,19.5854,12.287,19.5571Q12.21877,19.5288,12.14632,19.514400000000002Q12.07387,19.5,12,19.5L4.5,19.5Q3,19.5,3,18L3,6Q3,4.5,4.5,4.5L8.87903,4.5Q9.18952,4.5,9.40967,4.720333L12.5297,7.84033Q12.5429,7.85355,12.5567,7.86609Q13.2073,8.4992,14.121,8.5L19.5,8.5Q21,8.5,21,10Z" fill-rule="evenodd" fill="#231F2E" fill-opacity="1"/></g><g><path d="M17.24188861328125,15.442413330078125C17.57846861328125,14.859080330078125,18.42022861328125,14.859080330078125,18.75738861328125,15.442413330078125L21.78838861328125,20.692413330078125C22.12515861328125,21.275753330078125,21.70419861328125,22.004913330078125,21.03063861328125,22.004913330078125L14.96863961328125,22.004913330078125C14.65593161328125,22.005113330078125,14.36688761328125,21.838423330078125,14.21044661328125,21.567653330078123C14.05400601328125,21.296893330078124,14.05395261328125,20.963223330078126,14.21030661328125,20.692413330078125L17.24188861328125,15.442413330078125ZM17.99963861328125,16.463243330078125C18.24126861328125,16.463243330078125,18.43713861328125,16.659123330078124,18.43713861328125,16.900743330078125L18.43713861328125,18.650743330078125C18.43713861328125,18.892373330078126,18.24126861328125,19.088243330078125,17.99963861328125,19.088243330078125C17.75801861328125,19.088243330078125,17.56213861328125,18.892373330078126,17.56213861328125,18.650743330078125L17.56213861328125,16.900743330078125C17.56213861328125,16.659123330078124,17.75801861328125,16.463243330078125,17.99963861328125,16.463243330078125ZM17.99963861328125,21.129913330078125C18.32180861328125,21.129913330078125,18.58296861328125,20.868743330078125,18.58296861328125,20.546583330078125C18.58296861328125,20.224413330078125,18.32180861328125,19.963243330078125,17.99963861328125,19.963243330078125C17.67747861328125,19.963243330078125,17.41630861328125,20.224413330078125,17.41630861328125,20.546583330078125C17.41630861328125,20.868743330078125,17.67747861328125,21.129913330078125,17.99963861328125,21.129913330078125Z" fill-rule="evenodd" fill="#2882FF" fill-opacity="1"/></g><g><path d="M11,4.5L18,4.5Q19.34619,4.5,20.298099999999998,5.451903Q21.25,6.40381,21.25,7.75Q21.25,7.823869999999999,21.235599999999998,7.896319999999999Q21.2212,7.96877,21.1929,8.03701Q21.1646,8.10526,21.1236,8.16668Q21.0826,8.2281,21.0303,8.28033Q20.978099999999998,8.33256,20.91668,8.3736Q20.85526,8.41464,20.787010000000002,8.44291Q20.71877,8.47118,20.64632,8.48559Q20.57387,8.5,20.5,8.5Q20.42613,8.5,20.35368,8.48559Q20.28123,8.47118,20.212989999999998,8.44291Q20.14474,8.41464,20.08332,8.3736Q20.021900000000002,8.33256,19.96967,8.28033Q19.91744,8.2281,19.8764,8.16668Q19.83536,8.10526,19.807090000000002,8.03701Q19.77882,7.96877,19.764409999999998,7.896319999999999Q19.75,7.823869999999999,19.75,7.75Q19.75,7.02513,19.23744,6.51256Q18.72487,6,18,6L11,6Q10.9261315,6,10.853682,5.985589Q10.781233,5.971178,10.712987,5.94291Q10.644742,5.914641,10.583322,5.873602Q10.521903,5.832563,10.46967,5.78033Q10.417437,5.728097,10.376398,5.666678Q10.335359,5.605258,10.30709,5.537013Q10.278822,5.468767,10.264410999999999,5.396318Q10.25,5.3238685,10.25,5.25Q10.25,5.1761315,10.264410999999999,5.103682Q10.278822,5.031233,10.30709,4.962987Q10.335359,4.894742,10.376398,4.833322Q10.417437,4.771903,10.46967,4.71967Q10.521903,4.667437,10.583322,4.626398Q10.644742,4.585359,10.712987,4.55709Q10.781233,4.528822,10.853682,4.514411Q10.9261315,4.5,11,4.5Z" fill-rule="evenodd" fill="#231F2E" fill-opacity="1"/></g></g></svg>