<svg xmlns="http://www.w3.org/2000/svg" xmlns:xlink="http://www.w3.org/1999/xlink" fill="none" version="1.1" width="24" height="24" viewBox="0 0 24 24"><defs><clipPath id="master_svg0_53_01709"><rect x="0" y="0" width="24" height="24" rx="0"/></clipPath></defs><g clip-path="url(#master_svg0_53_01709)"><g><path d="M20.999984741210938,7.5L3.0000000000109375,7.5Q2.9261315412109377,7.5,2.8536827412109376,7.514411Q2.7812337412109374,7.528822,2.7129877412109376,7.55709Q2.6447417412109377,7.585359,2.5833227412109374,7.626398Q2.5219027412109374,7.667437,2.4696707412109378,7.71967Q2.4174377412109376,7.771903,2.3763977412109374,7.833322Q2.3353587412109373,7.894742,2.3070907412109376,7.962987Q2.2788227412109374,8.031233,2.2644117412109375,8.103682Q2.2499997412109374,8.1761314,2.2499997412109374,8.25L2.2499897412109373,17.24998Q2.2499867412109373,18.8033,3.3483367412109377,19.901600000000002Q4.446684741210937,21,5.9999847412109375,21L17.999984741210938,21Q19.553284741210938,21,20.65168474121094,19.901600000000002Q21.749984741210938,18.8033,21.749984741210938,17.24999L21.749984741210938,8.25Q21.749984741210938,8.1761315,21.73558474121094,8.103682Q21.721184741210937,8.031233,21.69288474121094,7.962987Q21.664584741210938,7.894742,21.623584741210937,7.833322Q21.582584741210937,7.771903,21.530284741210938,7.71967Q21.47808474121094,7.667437,21.416684741210936,7.626398Q21.355284741210937,7.585359,21.286984741210937,7.55709Q21.21878474121094,7.528822,21.146284741210938,7.514411Q21.073884741210936,7.5,20.999984741210938,7.5ZM3.7499987412109377,9L3.7499897412109373,17.24998Q3.7499877412109375,18.18197,4.408994741210938,18.841Q5.068004741210938,19.5,5.9999847412109375,19.5L17.999984741210938,19.5Q18.93198474121094,19.5,19.59098474121094,18.841Q20.249984741210938,18.18197,20.249984741210938,17.24999L20.249984741210938,9L3.7499987412109377,9Z" fill-rule="evenodd" fill="#231F2E" fill-opacity="1"/></g><g><path d="M2.25,6.75Q2.25,5.1967,3.34835,4.09835Q4.4467,3.00000488758,6,3.00000435114L18,3Q19.5534,3,20.6535,4.10792Q21.75,5.21217,21.75,6.76539L21.75,8.25001C21.75,8.66423,21.4142,9.00001,21,9.00001L3,9.00001C2.585786,9.00001,2.25,8.66423,2.25,8.25001L2.25,6.75ZM4.5,6L4.5,6.008C4.5,6.42221,4.835789999999999,6.758,5.25,6.758L5.258,6.758C5.67221,6.758,6.008,6.42221,6.008,6.008L6.008,6C6.008,5.585789999999999,5.67221,5.25,5.258,5.25L5.25,5.25C4.835789999999999,5.25,4.5,5.585789999999999,4.5,6ZM6.75,6L6.75,6.008C6.75,6.42221,7.08579,6.758,7.5,6.758L7.508,6.758C7.92221,6.758,8.258,6.42221,8.258,6.008L8.258,6C8.258,5.585789999999999,7.92221,5.25,7.508,5.25L7.5,5.25C7.08579,5.25,6.75,5.585789999999999,6.75,6ZM10.508,6.008L10.508,6C10.508,5.585789999999999,10.17221,5.25,9.758,5.25L9.75,5.25C9.33579,5.25,9,5.585789999999999,9,6L9,6.008C9,6.42221,9.33579,6.758,9.75,6.758L9.758,6.758C10.17221,6.758,10.508,6.42221,10.508,6.008Z" fill-rule="evenodd" fill="#231F2E" fill-opacity="1"/></g><g><g><path d="M11.85355,12.478553Q11.92388,12.408227,11.96194,12.316342Q12,12.2244562,12,12.125Q12,12.0757543,11.99039,12.0274549Q11.98078,11.979155,11.96194,11.933658Q11.94309,11.888161,11.91573,11.847215Q11.88838,11.806269,11.85355,11.771447Q11.81873,11.736625,11.77778,11.709265Q11.73684,11.681906,11.69134,11.66306Q11.64584,11.644214999999999,11.59754,11.634607Q11.54925,11.625,11.5,11.625Q11.40054,11.625,11.30866,11.66306Q11.21677,11.70112,11.14645,11.771447L11.14629,11.771604L9,13.91789L8.416179,13.33407L8.416053,13.33395Q8.345727,13.26362,8.253842,13.22556Q8.1619562,13.1875,8.0625,13.1875Q8.0132543,13.1875,7.9649549,13.19711Q7.916655,13.20671,7.871158,13.22556Q7.825661,13.24441,7.784715,13.27177Q7.743769,13.29912,7.708947,13.33395Q7.674125,13.36877,7.646765,13.40971Q7.619406,13.45066,7.60056,13.49616Q7.581715,13.54166,7.572107,13.58995Q7.5625,13.63825,7.5625,13.6875Q7.5625,13.78696,7.60056,13.87884Q7.638621,13.97073,7.708947,14.04105L8.646447,14.97855Q8.681269,15.01338,8.722215,15.04073Q8.763161,15.06809,8.808658,15.08694Q8.854155,15.10578,8.902455,15.11539Q8.950754,15.125,9,15.125Q9.049246,15.125,9.09755,15.11539Q9.14584,15.10578,9.19134,15.08694Q9.23684,15.06809,9.27779,15.04073Q9.31873,15.01338,9.35355,14.97855L11.8534,12.47871L11.85355,12.478553L11.85355,12.478553Z" fill-rule="evenodd" fill="#2882FF" fill-opacity="1"/></g><g><path d="M7.125,12L9.5,12Q9.54925,12,9.59754,11.990393Q9.64584,11.980785000000001,9.69134,11.96194Q9.73684,11.943094,9.77778,11.915735Q9.81873,11.888375,9.85355,11.853553Q9.88837,11.818731,9.91573,11.777785Q9.94309,11.736839,9.96194,11.691342Q9.98078,11.645845,9.99039,11.5975451Q10,11.5492457,10,11.5Q10,11.4507543,9.99039,11.4024549Q9.98078,11.354155,9.96194,11.308658Q9.94309,11.263161,9.91573,11.222215Q9.88837,11.181269,9.85355,11.146447Q9.81873,11.111625,9.77778,11.084265Q9.73684,11.056906,9.69134,11.03806Q9.64584,11.019214999999999,9.59754,11.009607Q9.54925,11,9.5,11L7.125,11Q6.65901,11,6.329505,11.329505Q6,11.65901,6,12.125L6,15.875Q6,16.340989999999998,6.329505,16.6705Q6.659009,17,7.125,17L10.875,17Q11.34099,17,11.6705,16.6705Q12,16.340989999999998,12,15.875L12,14.5Q12,14.45075,11.99039,14.40245Q11.98078,14.35415,11.96194,14.30866Q11.94309,14.26316,11.91573,14.22221Q11.88837,14.18127,11.85355,14.14645Q11.81873,14.11162,11.77778,14.08426Q11.73684,14.05691,11.69134,14.03806Q11.64584,14.019210000000001,11.59755,14.00961Q11.54925,14,11.5,14Q11.45075,14,11.40245,14.00961Q11.35415,14.019210000000001,11.30866,14.03806Q11.26316,14.05691,11.22221,14.08426Q11.18127,14.11162,11.14645,14.14645Q11.11162,14.18127,11.08426,14.22221Q11.056899999999999,14.26316,11.03806,14.30866Q11.019210000000001,14.35415,11.00961,14.40245Q11,14.45075,11,14.5L11,15.875Q11,16,10.875,16L7.125,16Q7,16,7,15.875L7,12.125Q7,12,7.125,12Z" fill-rule="evenodd" fill="#231F2E" fill-opacity="1"/></g></g><g><path d="M13.5,12L17.5,12Q17.54925,12,17.59755,12.009607Q17.64584,12.019214999999999,17.69134,12.03806Q17.73684,12.056906,17.77778,12.084265Q17.818730000000002,12.111625,17.85355,12.146447Q17.888370000000002,12.181269,17.91573,12.222215Q17.943089999999998,12.263161,17.96194,12.308658Q17.98078,12.354155,17.990389999999998,12.4024549Q18,12.4507543,18,12.5Q18,12.5492457,17.990389999999998,12.5975451Q17.98078,12.645845,17.96194,12.691342Q17.943089999999998,12.736839,17.91573,12.777785Q17.888370000000002,12.818731,17.85355,12.853553Q17.818730000000002,12.888375,17.77778,12.915735Q17.73684,12.943094,17.69134,12.96194Q17.64584,12.980785000000001,17.59755,12.990393Q17.54925,13,17.5,13L13.5,13Q13.4507543,13,13.4024549,12.990393Q13.354155,12.980785000000001,13.308658,12.96194Q13.263161,12.943094,13.222215,12.915735Q13.181269,12.888375,13.146447,12.853553Q13.111625,12.818731,13.084265,12.777785Q13.056906,12.736839,13.03806,12.691342Q13.019214999999999,12.645845,13.009607,12.5975451Q13,12.5492457,13,12.5Q13,12.4507543,13.009607,12.4024549Q13.019214999999999,12.354155,13.03806,12.308658Q13.056906,12.263161,13.084265,12.222215Q13.111625,12.181269,13.146447,12.146447Q13.181269,12.111625,13.222215,12.084265Q13.263161,12.056906,13.308658,12.03806Q13.354155,12.019214999999999,13.4024549,12.009607Q13.4507543,12,13.5,12Z" fill-rule="evenodd" fill="#2882FF" fill-opacity="1"/></g><g><path d="M13.5,15L16.5,15Q16.54925,15,16.59754,15.009607Q16.64584,15.019214999999999,16.69134,15.03806Q16.73684,15.056906,16.77778,15.084265Q16.81873,15.111625,16.85355,15.146447Q16.888370000000002,15.181269,16.91573,15.222215Q16.94309,15.263161,16.96194,15.308658Q16.98078,15.354155,16.99039,15.4024549Q17,15.4507543,17,15.5Q17,15.5492457,16.99039,15.5975451Q16.98078,15.645845,16.96194,15.691342Q16.94309,15.736839,16.91573,15.777785Q16.888370000000002,15.818731,16.85355,15.853553Q16.81873,15.888375,16.77778,15.915735Q16.73684,15.943094,16.69134,15.96194Q16.64584,15.980785000000001,16.59754,15.990393Q16.54925,16,16.5,16L13.5,16Q13.4507543,16,13.4024549,15.990393Q13.354155,15.980785000000001,13.308658,15.96194Q13.263161,15.943094,13.222215,15.915735Q13.181269,15.888375,13.146447,15.853553Q13.111625,15.818731,13.084265,15.777785Q13.056906,15.736839,13.03806,15.691342Q13.019214999999999,15.645845,13.009607,15.5975451Q13,15.5492457,13,15.5Q13,15.4507543,13.009607,15.4024549Q13.019214999999999,15.354155,13.03806,15.308658Q13.056906,15.263161,13.084265,15.222215Q13.111625,15.181269,13.146447,15.146447Q13.181269,15.111625,13.222215,15.084265Q13.263161,15.056906,13.308658,15.03806Q13.354155,15.019214999999999,13.4024549,15.009607Q13.4507543,15,13.5,15Z" fill-rule="evenodd" fill="#2882FF" fill-opacity="1"/></g></g></svg>