<svg xmlns="http://www.w3.org/2000/svg" xmlns:xlink="http://www.w3.org/1999/xlink" fill="none" version="1.1" width="24" height="24" viewBox="0 0 24 24"><defs><clipPath id="master_svg0_48_02267"><rect x="0" y="0" width="24" height="24" rx="0"/></clipPath></defs><g clip-path="url(#master_svg0_48_02267)"><g><path d="M20.999984741210938,7.5L3.0000000000109375,7.5Q2.9261315412109377,7.5,2.8536827412109376,7.514411Q2.7812337412109374,7.528822,2.7129877412109376,7.55709Q2.6447417412109377,7.585359,2.5833227412109374,7.626398Q2.5219027412109374,7.667437,2.4696707412109378,7.71967Q2.4174377412109376,7.771903,2.3763977412109374,7.833322Q2.3353587412109373,7.894742,2.3070907412109376,7.962987Q2.2788227412109374,8.031233,2.2644117412109375,8.103682Q2.2499997412109374,8.1761314,2.2499997412109374,8.25L2.2499897412109373,17.24998Q2.2499867412109373,18.8033,3.3483367412109377,19.901600000000002Q4.446684741210937,21,5.9999847412109375,21L17.999984741210938,21Q19.553284741210938,21,20.65168474121094,19.901600000000002Q21.749984741210938,18.8033,21.749984741210938,17.24999L21.749984741210938,8.25Q21.749984741210938,8.1761315,21.73558474121094,8.103682Q21.721184741210937,8.031233,21.69288474121094,7.962987Q21.664584741210938,7.894742,21.623584741210937,7.833322Q21.582584741210937,7.771903,21.530284741210938,7.71967Q21.47808474121094,7.667437,21.416684741210936,7.626398Q21.355284741210937,7.585359,21.286984741210937,7.55709Q21.21878474121094,7.528822,21.146284741210938,7.514411Q21.073884741210936,7.5,20.999984741210938,7.5ZM3.7499987412109377,9L3.7499897412109373,17.24998Q3.7499877412109375,18.18197,4.408994741210938,18.841Q5.068004741210938,19.5,5.9999847412109375,19.5L17.999984741210938,19.5Q18.93198474121094,19.5,19.59098474121094,18.841Q20.249984741210938,18.18197,20.249984741210938,17.24999L20.249984741210938,9L3.7499987412109377,9Z" fill-rule="evenodd" fill="#231F2E" fill-opacity="1"/></g><g><path d="M2.25,6.75Q2.25,5.1967,3.34835,4.09835Q4.4467,3.00000488758,6,3.00000435114L18,3Q19.5534,3,20.6535,4.10792Q21.75,5.21217,21.75,6.76539L21.75,8.25001C21.75,8.66423,21.4142,9.00001,21,9.00001L3,9.00001C2.585786,9.00001,2.25,8.66423,2.25,8.25001L2.25,6.75ZM4.5,6L4.5,6.008C4.5,6.42221,4.835789999999999,6.758,5.25,6.758L5.258,6.758C5.67221,6.758,6.008,6.42221,6.008,6.008L6.008,6C6.008,5.585789999999999,5.67221,5.25,5.258,5.25L5.25,5.25C4.835789999999999,5.25,4.5,5.585789999999999,4.5,6ZM6.75,6L6.75,6.008C6.75,6.42221,7.08579,6.758,7.5,6.758L7.508,6.758C7.92221,6.758,8.258,6.42221,8.258,6.008L8.258,6C8.258,5.585789999999999,7.92221,5.25,7.508,5.25L7.5,5.25C7.08579,5.25,6.75,5.585789999999999,6.75,6ZM10.508,6.008L10.508,6C10.508,5.585789999999999,10.17221,5.25,9.758,5.25L9.75,5.25C9.33579,5.25,9,5.585789999999999,9,6L9,6.008C9,6.42221,9.33579,6.758,9.75,6.758L9.758,6.758C10.17221,6.758,10.508,6.42221,10.508,6.008Z" fill-rule="evenodd" fill="#231F2E" fill-opacity="1"/></g><g><path d="M16.00439892578125,14.254908447265624Q16.00439892578125,14.451658447265626,15.98511892578125,14.647468447265625Q15.96582892578125,14.843268447265626,15.927448925781249,15.036248447265624Q15.88907892578125,15.229218447265625,15.83196892578125,15.417498447265626Q15.774858925781249,15.605778447265624,15.69957892578125,15.787558447265624Q15.62429892578125,15.969328447265625,15.53156892578125,16.142848447265624Q15.43882892578125,16.316368447265624,15.32953892578125,16.479968447265627Q15.22023892578125,16.643558447265626,15.095438925781249,16.795648447265627Q14.97064892578125,16.947748447265624,14.831538925781249,17.086868447265626Q14.69243892578125,17.225998447265624,14.54036892578125,17.350818447265624Q14.38829892578125,17.475628447265624,14.22472892578125,17.584938447265625Q14.06115892578125,17.694258447265625,13.887668925781249,17.786998447265624Q13.71416892578125,17.879748447265627,13.53242892578125,17.955048447265625Q13.35067892578125,18.030338447265624,13.16242892578125,18.087458447265625Q12.97416892578125,18.144568447265627,12.78122892578125,18.182948447265623Q12.58828892578125,18.221338447265623,12.39250892578125,18.240628447265625Q12.19673892578125,18.259908447265623,12.00001892578125,18.259908447265623Q11.80328892578125,18.259908447265623,11.60751892578125,18.240628447265625Q11.41173892578125,18.221338447265623,11.21879892578125,18.182948447265623Q11.02585892578125,18.144568447265627,10.83760892578125,18.087458447265625Q10.64934892578125,18.030338447265624,10.46760892578125,17.955048447265625Q10.28585892578125,17.879748447265627,10.11235892578125,17.786998447265624Q9.93886892578125,17.694258447265625,9.77529892578125,17.584938447265625Q9.61172892578125,17.475628447265624,9.45965892578125,17.350818447265624Q9.30759892578125,17.225998447265624,9.16848892578125,17.086868447265626Q9.02938892578125,16.947748447265624,8.90458792578125,16.795648447265627Q8.77978792578125,16.643558447265626,8.67049492578125,16.479968447265627Q8.56120192578125,16.316368447265624,8.46846792578125,16.142848447265624Q8.37573292578125,15.969328447265625,8.30045092578125,15.787558447265624Q8.22516792578125,15.605778447265624,8.16806292578125,15.417498447265626Q8.11095692578125,15.229218447265625,8.07257832578125,15.036248447265624Q8.03419962578125,14.843268447265626,8.01491752578125,14.647468447265625Q7.99563529578125,14.451658447265626,7.99563529578125,14.254908447265624Q7.99563529578125,14.058158447265626,8.01491752578125,13.862348447265624Q8.03419962578125,13.666548447265626,8.07257832578125,13.473568447265626Q8.11095692578125,13.280598447265625,8.16806292578125,13.092318447265626Q8.22516792578125,12.904038447265625,8.30045092578125,12.722258447265625Q8.37573292578125,12.540488447265625,8.46846792578125,12.366968447265625Q8.56120192578125,12.193448447265625,8.67049492578125,12.029848447265625Q8.77978792578125,11.866258447265626,8.90458792578125,11.714158447265625Q9.02938892578125,11.562068447265625,9.16848892578125,11.422948447265625Q9.30759892578125,11.283818447265626,9.45965892578125,11.159001447265625Q9.61172892578125,11.034182447265625,9.77529892578125,10.924872447265624Q9.93886892578125,10.815562447265625,10.11235892578125,10.722813447265626Q10.28585892578125,10.630065447265626,10.46760892578125,10.554770447265625Q10.64934892578125,10.479476447265625,10.83760892578125,10.422362447265625Q11.02585892578125,10.365248447265625,11.21879892578125,10.326863347265625Q11.41173892578125,10.288478747265625,11.60751892578125,10.269193647265626Q11.80328892578125,10.249908447265625,12.00001892578125,10.249908447265625Q12.19673892578125,10.249908447265625,12.39250892578125,10.269193647265626Q12.58828892578125,10.288478747265625,12.78122892578125,10.326863347265625Q12.97416892578125,10.365248447265625,13.16242892578125,10.422362447265625Q13.35067892578125,10.479476447265625,13.53242892578125,10.554770447265625Q13.71416892578125,10.630065447265626,13.887668925781249,10.722813447265626Q14.06115892578125,10.815562447265625,14.22472892578125,10.924872447265624Q14.38829892578125,11.034182447265625,14.54036892578125,11.159001447265625Q14.69243892578125,11.283818447265626,14.831538925781249,11.422948447265625Q14.97064892578125,11.562068447265625,15.09544892578125,11.714158447265625Q15.22023892578125,11.866258447265626,15.32953892578125,12.029848447265625Q15.43882892578125,12.193448447265625,15.53156892578125,12.366968447265625Q15.62429892578125,12.540488447265625,15.69957892578125,12.722258447265625Q15.774858925781249,12.904038447265625,15.83196892578125,13.092318447265626Q15.88907892578125,13.280598447265625,15.927448925781249,13.473568447265626Q15.96582892578125,13.666548447265626,15.98511892578125,13.862348447265624Q16.00439892578125,14.058158447265626,16.00439892578125,14.254908447265624Z" fill="#2882FF" fill-opacity="1"/></g><g><path d="M10.853613,12.401419330078125L12,13.547806330078124L13.14626,12.401547330078126L13.14645,12.401360330078125Q13.21677,12.331033330078125,13.30866,12.292973330078125Q13.40054,12.254913330078125,13.5,12.254913330078125Q13.54925,12.254913330078125,13.59754,12.264520330078126Q13.64584,12.274128330078124,13.69134,12.292973330078125Q13.73684,12.311819330078125,13.77778,12.339178330078125Q13.81873,12.366538330078125,13.85355,12.401360330078125Q13.88837,12.436182330078125,13.91573,12.477128330078125Q13.94309,12.518074330078125,13.96194,12.563571330078124Q13.98078,12.609068330078125,13.99039,12.657368230078125Q14,12.705667630078125,14,12.754913330078125Q14,12.854369530078126,13.96194,12.946255330078126Q13.92388,13.038140330078125,13.85355,13.108466330078125L13.85337,13.108654330078124L12.70711,14.254913330078125L13.85355,15.401363330078125Q13.92388,15.471683330078125,13.96194,15.563573330078125Q14,15.655453330078124,14,15.754913330078125Q14,15.804163330078126,13.99039,15.852453330078125Q13.98078,15.900753330078125,13.96194,15.946253330078125Q13.94309,15.991753330078126,13.91573,16.032693330078125Q13.88837,16.073643330078124,13.85355,16.108463330078123Q13.81873,16.143283330078127,13.77778,16.170643330078125Q13.73684,16.198003330078127,13.69134,16.216853330078123Q13.64584,16.235693330078124,13.59754,16.245303330078126Q13.54925,16.254913330078125,13.5,16.254913330078125Q13.40054,16.254913330078125,13.30866,16.216853330078123Q13.21677,16.178793330078125,13.14645,16.108463330078123L12,14.962023330078125L10.853741,16.108283330078123L10.853553,16.108463330078123Q10.783227,16.178793330078125,10.691342,16.216853330078123Q10.5994562,16.254913330078125,10.5,16.254913330078125Q10.4507543,16.254913330078125,10.4024549,16.245303330078126Q10.354155,16.235693330078124,10.308658,16.216853330078123Q10.263161,16.198003330078127,10.222215,16.170643330078125Q10.181269,16.143283330078127,10.146447,16.108463330078123Q10.111625,16.073643330078124,10.084265,16.032693330078125Q10.056906,15.991753330078126,10.03806,15.946253330078125Q10.019214999999999,15.900753330078125,10.009607,15.852453330078125Q10,15.804163330078126,10,15.754913330078125Q10,15.655453330078124,10.03806,15.563573330078125Q10.07612,15.471683330078125,10.146447,15.401363330078125L10.146634,15.401173330078125L11.292893,14.254913330078125L10.146447,13.108466330078125Q10.07612,13.038140330078125,10.03806,12.946255330078126Q10,12.854369530078126,10,12.754913330078125Q10,12.705667630078125,10.009607,12.657368230078125Q10.019214999999999,12.609068330078125,10.03806,12.563571330078124Q10.056906,12.518074330078125,10.084265,12.477128330078125Q10.111625,12.436182330078125,10.146447,12.401360330078125Q10.181269,12.366538330078125,10.222215,12.339178330078125Q10.263161,12.311819330078125,10.308658,12.292973330078125Q10.354155,12.274128330078124,10.4024549,12.264520330078126Q10.4507543,12.254913330078125,10.5,12.254913330078125Q10.5994562,12.254913330078125,10.691342,12.292973330078125Q10.783227,12.331033330078125,10.853553,12.401360330078125L10.853613,12.401419330078125Z" fill-rule="evenodd" fill="#FFFFFF" fill-opacity="1" style="mix-blend-mode:passthrough"/></g></g></svg>