<svg xmlns="http://www.w3.org/2000/svg" xmlns:xlink="http://www.w3.org/1999/xlink" fill="none" version="1.1" width="24" height="24" viewBox="0 0 24 24"><defs><clipPath id="master_svg0_61_01164"><rect x="0" y="0" width="24" height="24" rx="0"/></clipPath></defs><g clip-path="url(#master_svg0_61_01164)"><g><path d="M20.999984741210938,7.5L3.0000000000109375,7.5Q2.9261315412109377,7.5,2.8536827412109376,7.514411Q2.7812337412109374,7.528822,2.7129877412109376,7.55709Q2.6447417412109377,7.585359,2.5833227412109374,7.626398Q2.5219027412109374,7.667437,2.4696707412109378,7.71967Q2.4174377412109376,7.771903,2.3763977412109374,7.833322Q2.3353587412109373,7.894742,2.3070907412109376,7.962987Q2.2788227412109374,8.031233,2.2644117412109375,8.103682Q2.2499997412109374,8.1761314,2.2499997412109374,8.25L2.2499897412109373,17.24998Q2.2499867412109373,18.8033,3.3483367412109377,19.901600000000002Q4.446684741210937,21,5.9999847412109375,21L17.999984741210938,21Q19.553284741210938,21,20.65168474121094,19.901600000000002Q21.749984741210938,18.8033,21.749984741210938,17.24999L21.749984741210938,8.25Q21.749984741210938,8.1761315,21.73558474121094,8.103682Q21.721184741210937,8.031233,21.69288474121094,7.962987Q21.664584741210938,7.894742,21.623584741210937,7.833322Q21.582584741210937,7.771903,21.530284741210938,7.71967Q21.47808474121094,7.667437,21.416684741210936,7.626398Q21.355284741210937,7.585359,21.286984741210937,7.55709Q21.21878474121094,7.528822,21.146284741210938,7.514411Q21.073884741210936,7.5,20.999984741210938,7.5ZM3.7499987412109377,9L3.7499897412109373,17.24998Q3.7499877412109375,18.18197,4.408994741210938,18.841Q5.068004741210938,19.5,5.9999847412109375,19.5L17.999984741210938,19.5Q18.93198474121094,19.5,19.59098474121094,18.841Q20.249984741210938,18.18197,20.249984741210938,17.24999L20.249984741210938,9L3.7499987412109377,9Z" fill-rule="evenodd" fill="#231F2E" fill-opacity="1"/></g><g><path d="M2.25,6.75Q2.25,5.1967,3.34835,4.09835Q4.4467,3.00000488758,6,3.00000435114L18,3Q19.5534,3,20.6535,4.10792Q21.75,5.21217,21.75,6.76539L21.75,8.25001C21.75,8.66423,21.4142,9.00001,21,9.00001L3,9.00001C2.585786,9.00001,2.25,8.66423,2.25,8.25001L2.25,6.75ZM4.5,6L4.5,6.008C4.5,6.42221,4.835789999999999,6.758,5.25,6.758L5.258,6.758C5.67221,6.758,6.008,6.42221,6.008,6.008L6.008,6C6.008,5.585789999999999,5.67221,5.25,5.258,5.25L5.25,5.25C4.835789999999999,5.25,4.5,5.585789999999999,4.5,6ZM6.75,6L6.75,6.008C6.75,6.42221,7.08579,6.758,7.5,6.758L7.508,6.758C7.92221,6.758,8.258,6.42221,8.258,6.008L8.258,6C8.258,5.585789999999999,7.92221,5.25,7.508,5.25L7.5,5.25C7.08579,5.25,6.75,5.585789999999999,6.75,6ZM10.508,6.008L10.508,6C10.508,5.585789999999999,10.17221,5.25,9.758,5.25L9.75,5.25C9.33579,5.25,9,5.585789999999999,9,6L9,6.008C9,6.42221,9.33579,6.758,9.75,6.758L9.758,6.758C10.17221,6.758,10.508,6.42221,10.508,6.008Z" fill-rule="evenodd" fill="#231F2E" fill-opacity="1"/></g><g><path d="M12.54908,10.859313L13.50621,11.255515C13.723939999999999,11.345426,13.79747,11.617166,13.65479,11.8046C13.36276,12.18929,13.36265,12.72139,13.65452,13.10621C13.946390000000001,13.491019999999999,14.45881,13.63438,14.908000000000001,13.45688C15.091619999999999,13.38418,15.299479999999999,13.47352,15.3731,13.65677L15.39069,13.70056C15.536439999999999,14.05235,15.536439999999999,14.44765,15.39069,14.79944L15.36234,14.853629999999999C15.19474,15.1192,15.08062,15.325199999999999,15.0232,15.46373C14.963619999999999,15.60728,14.889330000000001,15.857420000000001,14.8032,16.20768L14.78633,16.25936C14.64047,16.61108,14.360859999999999,16.890439999999998,14.009,17.035980000000002L13.95912,17.05248C13.59809,17.14328,13.34723,17.21793,13.214089999999999,17.2732C13.066230000000001,17.3342,12.86167,17.44761,12.60543,17.61126L12.54944,17.64069C12.19765,17.78644,11.80235,17.78644,11.45056,17.64069L11.39744,17.61305C11.12505,17.44259,10.91906,17.32846,10.78591,17.2732C10.63769,17.21183,10.38792,17.13754,10.04303,17.05356L9.990639999999999,17.03633C9.63892,16.89047,9.359558,16.61086,9.214023,16.259L9.197514,16.20948C9.106359,15.84737,9.031353,15.59615,8.976804,15.46373Q8.884931,15.24086,8.63874,14.85543L8.609312,14.79944C8.4635627,14.44764,8.4635627,14.05235,8.609312,13.70056L8.639458,13.64313C8.799876,13.39479,8.912564,13.19023,8.976804,13.03591C9.029559,12.90851,9.104565000000001,12.65658,9.197514,12.29016L9.213664,12.240639999999999C9.359523,11.88892,9.63914,11.609557,9.991,11.464022L10.0416,11.447155C10.39617,11.35923,10.64667,11.284583,10.78591,11.226804C10.927669999999999,11.167947,11.132950000000001,11.054542,11.39601,10.888022L11.45056,10.859312C11.80235,10.7135626,12.19765,10.7135626,12.54908,10.859313ZM12,15.68551C11.8018,15.68551,11.64112,15.84619,11.64112,16.04439L11.64112,16.04798C11.64112,16.24618,11.8018,16.40686,12,16.40686C12.1982,16.40686,12.35888,16.24618,12.35888,16.04798L12.35888,16.04439C12.35888,15.84619,12.1982,15.68551,12,15.68551ZM13.43551,14.60888C13.23731,14.60888,13.076640000000001,14.769549999999999,13.076640000000001,14.96776L13.076640000000001,14.971350000000001C13.076830000000001,15.16941,13.237449999999999,15.32987,13.43551,15.32987C13.63358,15.32987,13.7942,15.16941,13.79439,14.971350000000001L13.79439,14.96776C13.79439,14.769549999999999,13.63372,14.60888,13.43551,14.60888ZM10.56448,14.25C10.36628,14.25,10.2056,14.41067,10.2056,14.60888L10.2056,14.61247C10.2056,14.81067,10.36628,14.971350000000001,10.56448,14.971350000000001C10.76269,14.971350000000001,10.92336,14.81067,10.92336,14.61247L10.92336,14.60888C10.92336,14.41067,10.76269,14.25,10.56448,14.25ZM12,13.89112C11.8018,13.89112,11.64112,14.0518,11.64112,14.25L11.64112,14.253589999999999C11.64112,14.451789999999999,11.8018,14.61247,12,14.61247C12.1982,14.61247,12.35888,14.451789999999999,12.35888,14.253589999999999L12.35888,14.25C12.35888,14.0518,12.1982,13.89112,12,13.89112ZM11.64112,12.4556C11.44302,12.4556,11.28224,12.61638,11.28224,12.81807C11.28323,13.01628,11.44471,13.17615,11.64291,13.17516C11.84112,13.17417,12.00099,13.01269,12,12.81448C12,12.61628,11.83932,12.4556,11.64112,12.4556Z" fill="#2882FF" fill-opacity="1"/></g></g></svg>