<svg xmlns="http://www.w3.org/2000/svg" xmlns:xlink="http://www.w3.org/1999/xlink" fill="none" version="1.1" width="24" height="24" viewBox="0 0 24 24"><defs><clipPath id="master_svg0_48_02259"><rect x="0" y="0" width="24" height="24" rx="0"/></clipPath></defs><g clip-path="url(#master_svg0_48_02259)"><g><path d="M20.999984741210938,7.5L3.0000000000109375,7.5Q2.9261315412109377,7.5,2.8536827412109376,7.514411Q2.7812337412109374,7.528822,2.7129877412109376,7.55709Q2.6447417412109377,7.585359,2.5833227412109374,7.626398Q2.5219027412109374,7.667437,2.4696707412109378,7.71967Q2.4174377412109376,7.771903,2.3763977412109374,7.833322Q2.3353587412109373,7.894742,2.3070907412109376,7.962987Q2.2788227412109374,8.031233,2.2644117412109375,8.103682Q2.2499997412109374,8.1761314,2.2499997412109374,8.25L2.2499897412109373,17.24998Q2.2499867412109373,18.8033,3.3483367412109377,19.901600000000002Q4.446684741210937,21,5.9999847412109375,21L17.999984741210938,21Q19.553284741210938,21,20.65168474121094,19.901600000000002Q21.749984741210938,18.8033,21.749984741210938,17.24999L21.749984741210938,8.25Q21.749984741210938,8.1761315,21.73558474121094,8.103682Q21.721184741210937,8.031233,21.69288474121094,7.962987Q21.664584741210938,7.894742,21.623584741210937,7.833322Q21.582584741210937,7.771903,21.530284741210938,7.71967Q21.47808474121094,7.667437,21.416684741210936,7.626398Q21.355284741210937,7.585359,21.286984741210937,7.55709Q21.21878474121094,7.528822,21.146284741210938,7.514411Q21.073884741210936,7.5,20.999984741210938,7.5ZM3.7499987412109377,9L3.7499897412109373,17.24998Q3.7499877412109375,18.18197,4.408994741210938,18.841Q5.068004741210938,19.5,5.9999847412109375,19.5L17.999984741210938,19.5Q18.93198474121094,19.5,19.59098474121094,18.841Q20.249984741210938,18.18197,20.249984741210938,17.24999L20.249984741210938,9L3.7499987412109377,9Z" fill-rule="evenodd" fill="#231F2E" fill-opacity="1"/></g><g><path d="M2.25,6.75Q2.25,5.1967,3.34835,4.09835Q4.4467,3.00000488758,6,3.00000435114L18,3Q19.5534,3,20.6535,4.10792Q21.75,5.21217,21.75,6.76539L21.75,8.25001C21.75,8.66423,21.4142,9.00001,21,9.00001L3,9.00001C2.585786,9.00001,2.25,8.66423,2.25,8.25001L2.25,6.75ZM4.5,6L4.5,6.008C4.5,6.42221,4.835789999999999,6.758,5.25,6.758L5.258,6.758C5.67221,6.758,6.008,6.42221,6.008,6.008L6.008,6C6.008,5.585789999999999,5.67221,5.25,5.258,5.25L5.25,5.25C4.835789999999999,5.25,4.5,5.585789999999999,4.5,6ZM6.75,6L6.75,6.008C6.75,6.42221,7.08579,6.758,7.5,6.758L7.508,6.758C7.92221,6.758,8.258,6.42221,8.258,6.008L8.258,6C8.258,5.585789999999999,7.92221,5.25,7.508,5.25L7.5,5.25C7.08579,5.25,6.75,5.585789999999999,6.75,6ZM10.508,6.008L10.508,6C10.508,5.585789999999999,10.17221,5.25,9.758,5.25L9.75,5.25C9.33579,5.25,9,5.585789999999999,9,6L9,6.008C9,6.42221,9.33579,6.758,9.75,6.758L9.758,6.758C10.17221,6.758,10.508,6.42221,10.508,6.008Z" fill-rule="evenodd" fill="#231F2E" fill-opacity="1"/></g><g transform="matrix(1,-4.0080045948798215e-8,4.0080045948798215e-8,1,-4.0080045948798215e-7,4.0080045948798215e-7)"><path d="M12.99034,18C12.96728,18,12.94421,17.99554,12.92189,17.98735C12.87427,17.96875,12.83632,17.932290000000002,12.81549,17.88542L11.70388,15.31546L10.320686,16.61532C10.265626,16.6674,10.184525,16.680799999999998,10.114584,16.65103C10.0453871,16.62127,10,16.55208,10,16.47618L10,10.190434C10,10.114541,10.0446431,10.0460885,10.114584,10.0155822C10.183781,9.9858202,10.264882,9.99921326,10.320686,10.0512967L14.892140000000001,14.317689999999999C14.947199999999999,14.36903,14.96654,14.448640000000001,14.94199,14.51933C14.91744,14.59075,14.853449999999999,14.640609999999999,14.7783,14.647300000000001L12.838560000000001,14.813970000000001L14.00151,17.3497C14.02234,17.39508,14.02458,17.44791,14.00672,17.49553C13.988859999999999,17.54315,13.95389,17.5811,13.90776,17.60193L13.06921,17.98289C13.04392,17.99405,13.01787,18,12.99034,18Z" fill="#2882FF" fill-opacity="1"/></g></g></svg>