<svg xmlns="http://www.w3.org/2000/svg" xmlns:xlink="http://www.w3.org/1999/xlink" fill="none" version="1.1" width="32" height="32" viewBox="0 0 32 32"><defs><clipPath id="master_svg0_5881_02872"><rect x="0" y="0" width="32" height="32" rx="0"/></clipPath><filter id="master_svg1_5881_02878" filterUnits="objectBoundingBox" color-interpolation-filters="sRGB" x="0" y="0" width="1" height="1"><feFlood flood-opacity="0" result="BackgroundImageFix"/><feBlend mode="normal" in="SourceGraphic" in2="BackgroundImageFix" result="shape"/><feColorMatrix in="SourceAlpha" type="matrix" result="hardAlpha" values="0 0 0 0 0 0 0 0 0 0 0 0 0 0 0 0 0 0 127 0"/><feOffset dy="-2" dx="0"/><feGaussianBlur stdDeviation="2"/><feComposite in2="hardAlpha" operator="arithmetic" k2="-1" k3="1"/><feColorMatrix type="matrix" values="0 0 0 0 1 0 0 0 0 1 0 0 0 0 1 0 0 0 0.20000000298023224 0"/><feBlend mode="normal" in2="shape" result="effect1_innerShadow"/></filter><linearGradient x1="0.7122465372085571" y1="0.2608495056629181" x2="0.7122465372085571" y2="1.1341501474380493" id="master_svg2_5881_02952"><stop offset="0%" stop-color="#FFFFFF" stop-opacity="1"/><stop offset="40.104201436042786%" stop-color="#FFFFFF" stop-opacity="0.8500000238418579"/><stop offset="100%" stop-color="#FFFFFF" stop-opacity="0.5"/></linearGradient></defs><g clip-path="url(#master_svg0_5881_02872)"><g></g><g filter="url(#master_svg1_5881_02878)"><g transform="matrix(0.916670024394989,0,0,0.916670024394989,0.6169704741927262,0.5083329490669541)"><path d="M25.67194401550293,10.115461184234618C26.02174401550293,10.25552118423462,26.25074401550293,10.59469118423462,26.24994401550293,10.97146118423462L26.24994401550293,17.63944118423462C26.24994401550293,22.265441184234618,21.63994401550293,26.515441184234618,17.08294401550293,27.832441184234618C16.91531401550293,27.88044118423462,16.73757401550293,27.88044118423462,16.56994401550293,27.832441184234618C12.01394401550293,26.515441184234618,7.40394401550293,22.265441184234618,7.40394401550293,17.63944118423462L7.40394401550293,10.97146118423462C7.40394401550293,10.59446118423462,7.6319440155029294,10.25646118423462,7.98094401550293,10.115461184234618C8.91594401550293,9.672461184234619,9.84894401550293,9.207461184234619,10.783944015502929,8.74146118423462C12.539944015502929,7.865461184234619,14.30394401550293,6.986457184234619,16.10394401550293,6.243457184234619C16.567374015502928,6.052156684234619,17.08777401550293,6.052516384234619,17.550944015502928,6.244457184234619C19.35094401550293,6.989457184234619,21.11294401550293,7.867461184234619,22.86894401550293,8.74246118423462C23.80394401550293,9.207461184234619,24.736944015502928,9.672461184234619,25.67194401550293,10.115461184234618ZM22.033944015502932,15.15246118423462C22.41294401550293,14.76008118423462,22.407444015502932,14.136381184234619,22.021744015502932,13.75065118423462C21.636044015502932,13.36492118423462,21.01234401550293,13.35950118423462,20.61994401550293,13.73846118423462L15.82694401550293,18.53144118423462L13.533944015502929,16.238441184234617C13.14156401550293,15.85948118423462,12.51785401550293,15.864891184234619,12.13211401550293,16.250641184234617C11.74638401550293,16.636341184234617,11.740964015502929,17.26004118423462,12.11994401550293,17.65244118423462L15.11994401550293,20.65244118423462C15.51044401550293,21.042841184234618,16.14344401550293,21.042841184234618,16.533944015502932,20.65244118423462L22.033944015502932,15.15246118423462Z" fill="url(#master_svg2_5881_02952)" fill-opacity="1" style="mix-blend-mode:passthrough"/></g></g></g></svg>