<svg xmlns="http://www.w3.org/2000/svg" xmlns:xlink="http://www.w3.org/1999/xlink" fill="none" version="1.1" width="32" height="32" viewBox="0 0 32 32"><defs><clipPath id="master_svg0_5881_02783"><rect x="0" y="0" width="32" height="32" rx="0"/></clipPath><filter id="master_svg1_5881_02789" filterUnits="objectBoundingBox" color-interpolation-filters="sRGB" x="0" y="0" width="1" height="1"><feFlood flood-opacity="0" result="BackgroundImageFix"/><feBlend mode="normal" in="SourceGraphic" in2="BackgroundImageFix" result="shape"/><feColorMatrix in="SourceAlpha" type="matrix" result="hardAlpha" values="0 0 0 0 0 0 0 0 0 0 0 0 0 0 0 0 0 0 127 0"/><feOffset dy="-2" dx="0"/><feGaussianBlur stdDeviation="2"/><feComposite in2="hardAlpha" operator="arithmetic" k2="-1" k3="1"/><feColorMatrix type="matrix" values="0 0 0 0 1 0 0 0 0 1 0 0 0 0 1 0 0 0 0.20000000298023224 0"/><feBlend mode="normal" in2="shape" result="effect1_innerShadow"/></filter><linearGradient x1="0.6666702032089233" y1="0.2970825731754303" x2="0.6666702032089233" y2="1.1235991716384888" id="master_svg2_5881_02840"><stop offset="0%" stop-color="#FFFFFF" stop-opacity="1"/><stop offset="40.104201436042786%" stop-color="#FFFFFF" stop-opacity="0.8500000238418579"/><stop offset="100%" stop-color="#FFFFFF" stop-opacity="0.5"/></linearGradient></defs><g clip-path="url(#master_svg0_5881_02783)"><g></g><g filter="url(#master_svg1_5881_02789)"><g transform="matrix(0.916670024394989,0,0,0.916670024394989,0.42012349675530913,0.42012349675530913)"><path d="M17.041685104370117,5.041685104370117C16.209685104370116,5.041685104370117,15.451685104370117,5.515685104370117,15.085685104370118,6.262685104370117L12.525685104370117,11.687685104370118C12.513625104370117,11.710895104370117,12.491445104370118,11.727155104370116,12.465685104370117,11.731685104370118L12.450685104370116,11.733685104370117L6.890685104370117,12.713685104370118C6.0757651043701175,12.839575104370116,5.4014181043701175,13.414105104370117,5.147685104370117,14.198685104370117L5.147685104370117,14.200685104370118C4.892619104370117,14.990875104370117,5.106817804370118,15.857385104370117,5.700685104370117,16.437685104370118L5.737685104370117,16.474685104370117L9.986685104370117,19.83068510437012C9.996685104370117,19.846685104370117,10.000685104370117,19.865685104370115,9.998685104370118,19.88568510437012L8.826685104370117,25.601685104370116L8.823685104370117,25.617685104370118C8.641685104370117,26.680685104370117,9.397685104370117,27.33068510437012,9.795685104370117,27.622685104370117L9.797685104370117,27.623685104370118C10.469595104370118,28.114085104370115,11.362315104370118,28.178485104370118,12.097685104370118,27.78968510437012L12.109685104370117,27.782685104370117L17.009685104370117,25.01368510437012C17.031285104370117,25.00448510437012,17.055685104370117,25.005285104370117,17.076685104370117,25.015685104370117L22.192685104370117,27.785685104370117L22.200685104370116,27.788685104370117C22.936185104370118,28.17678510437012,23.828485104370117,28.112385104370116,24.500685104370117,27.622685104370117C24.820685104370117,27.389685104370116,25.076685104370117,27.08068510437012,25.207685104370118,26.677685104370116C25.331685104370116,26.29568510437012,25.311685104370117,25.924685104370116,25.259685104370117,25.620685104370118L24.30168510437012,20.009685104370117C24.29728510437012,19.985185104370117,24.303085104370115,19.959885104370116,24.317685104370117,19.939685104370117L28.361685104370117,16.459685104370116L28.38568510437012,16.435685104370116C28.977285104370118,15.854885104370117,29.190185104370116,14.989735104370117,28.935685104370116,14.200685104370118C28.68278510437012,13.414775104370117,28.00768510437012,12.839135104370119,27.191685104370116,12.713685104370118L21.531685104370116,11.733685104370117L21.518685104370118,11.731685104370118C21.49368510437012,11.728055104370117,21.471685104370117,11.713365104370117,21.45868510437012,11.691685104370118L19.003685104370117,6.274685104370118L18.996685104370115,6.2606851043701175C18.630685104370116,5.515386104370117,17.872985104370116,5.042733814370117,17.042685104370115,5.041685104370117L17.041685104370117,5.041685104370117ZM20.749685104370116,17.587685104370117C20.96168510437012,17.587685104370117,21.10668510437012,17.817685104370117,21.012685104370117,18.017685104370116L20.986685104370117,18.072685104370116C20.238685104370116,19.568685104370118,18.751685104370118,20.587685104370117,17.04068510437012,20.587685104370117C15.311685104370117,20.587685104370117,13.812685104370118,19.547685104370117,13.072685104370118,18.027685104370118C12.975905104370117,17.826485104370118,13.119465104370118,17.59248510437012,13.342685104370117,17.587685104370117L14.312685104370118,17.587685104370117C14.563685104370117,17.587685104370117,14.797685104370117,17.713685104370118,14.963685104370118,17.91268510437012C15.483685104370117,18.519185104370116,16.241785104370116,18.869585104370117,17.04068510437012,18.872685104370117C17.838985104370117,18.869285104370118,18.596585104370117,18.519385104370116,19.116685104370116,17.913685104370117C19.283685104370118,17.713685104370118,19.51668510437012,17.587685104370117,19.768685104370118,17.587685104370117L20.749685104370116,17.587685104370117L20.749685104370116,17.587685104370117Z" fill="url(#master_svg2_5881_02840)" fill-opacity="1" style="mix-blend-mode:passthrough"/></g></g></g></svg>