<svg xmlns="http://www.w3.org/2000/svg" xmlns:xlink="http://www.w3.org/1999/xlink" fill="none" version="1.1" width="24" height="24" viewBox="0 0 24 24"><defs><clipPath id="master_svg0_5851_03340"><rect x="0" y="0" width="24" height="24" rx="0"/></clipPath></defs><g clip-path="url(#master_svg0_5851_03340)"><g></g><g><path d="M4.25,17Q4.25,16.9261315,4.264411,16.853682Q4.278822,16.781233,4.30709,16.712987Q4.335359,16.644742,4.376398,16.583322Q4.417437,16.521903000000002,4.46967,16.46967Q4.521903,16.417437,4.583322,16.376398000000002Q4.644742,16.335359,4.712987,16.30709Q4.781233,16.278822,4.853682,16.264411Q4.9261315,16.25,5,16.25Q5.0738685,16.25,5.146318,16.264411Q5.218767,16.278822,5.287013,16.30709Q5.355258,16.335359,5.416678,16.376398000000002Q5.478097,16.417437,5.53033,16.46967Q5.582563,16.521903000000002,5.623602,16.583322Q5.664641,16.644742,5.69291,16.712987Q5.721178,16.781233,5.735589,16.853682Q5.75,16.9261315,5.75,17Q5.75,17.517767,6.1161200000000004,17.883884Q6.4822299999999995,18.25,7,18.25Q7.073869999999999,18.25,7.146319999999999,18.26441Q7.21877,18.27882,7.28701,18.30709Q7.3552599999999995,18.33536,7.4166799999999995,18.3764Q7.4780999999999995,18.41744,7.53033,18.46967Q7.58256,18.5219,7.6236,18.58332Q7.66464,18.64474,7.6929099999999995,18.71299Q7.72118,18.78123,7.73559,18.85368Q7.75,18.92613,7.75,19Q7.75,19.07387,7.73559,19.14632Q7.72118,19.21877,7.6929099999999995,19.28701Q7.66464,19.35526,7.6236,19.41668Q7.58256,19.4781,7.53033,19.53033Q7.4780999999999995,19.58256,7.4166799999999995,19.6236Q7.3552599999999995,19.66464,7.28701,19.69291Q7.21877,19.72118,7.146319999999999,19.735590000000002Q7.073869999999999,19.75,7,19.75Q6.44101,19.75,5.929346,19.53358Q5.435703,19.32479,5.0554565,18.94454Q4.67521,18.5643,4.466417,18.07065Q4.25,17.558988,4.25,17Z" fill-rule="evenodd" fill="#000000" fill-opacity="1" style="mix-blend-mode:passthrough"/></g><g><path d="M4.25,11Q4.25,10.9261315,4.264411,10.853682Q4.278822,10.781233,4.30709,10.712987Q4.335359,10.644742,4.376398,10.583322Q4.417437,10.521903,4.46967,10.46967Q4.521903,10.417437,4.583322,10.376398Q4.644742,10.335359,4.712987,10.30709Q4.781233,10.278822,4.853682,10.264410999999999Q4.9261315,10.25,5,10.25Q5.0738685,10.25,5.146318,10.264410999999999Q5.218767,10.278822,5.287013,10.30709Q5.355258,10.335359,5.416678,10.376398Q5.478097,10.417437,5.53033,10.46967Q5.582563,10.521903,5.623602,10.583322Q5.664641,10.644742,5.69291,10.712987Q5.721178,10.781233,5.735589,10.853682Q5.75,10.9261315,5.75,11L5.75,13Q5.75,13.07387,5.735589,13.14632Q5.721178,13.21877,5.69291,13.28701Q5.664641,13.35526,5.623602,13.41668Q5.582563,13.4781,5.53033,13.53033Q5.478097,13.58256,5.416678,13.6236Q5.355258,13.66464,5.287013,13.69291Q5.218767,13.72118,5.146318,13.73559Q5.0738685,13.75,5,13.75Q4.9261315,13.75,4.853682,13.73559Q4.781233,13.72118,4.712987,13.69291Q4.644742,13.66464,4.583322,13.6236Q4.521903,13.58256,4.46967,13.53033Q4.417437,13.4781,4.376398,13.41668Q4.335359,13.35526,4.30709,13.28701Q4.278822,13.21877,4.264411,13.14632Q4.25,13.07387,4.25,13L4.25,11Z" fill-rule="evenodd" fill="#000000" fill-opacity="1" style="mix-blend-mode:passthrough"/></g><g><path d="M6.1161200000000004,6.1161200000000004Q6.4822299999999995,5.75,7,5.75Q7.073869999999999,5.75,7.146319999999999,5.735589Q7.21877,5.721178,7.28701,5.69291Q7.3552599999999995,5.664641,7.4166799999999995,5.623602Q7.4780999999999995,5.582563,7.53033,5.53033Q7.58256,5.478097,7.6236,5.416678Q7.66464,5.355258,7.6929099999999995,5.287013Q7.72118,5.218767,7.73559,5.146318Q7.75,5.0738685,7.75,5Q7.75,4.9261315,7.73559,4.853682Q7.72118,4.781233,7.6929099999999995,4.712987Q7.66464,4.644742,7.6236,4.583322Q7.58256,4.521903,7.53033,4.46967Q7.4780999999999995,4.417437,7.4166799999999995,4.376398Q7.3552599999999995,4.335359,7.28701,4.30709Q7.21877,4.278822,7.146319999999999,4.264411Q7.073869999999999,4.25,7,4.25Q6.44101,4.25,5.929346,4.466417Q5.435703,4.67521,5.0554564,5.0554564Q4.67521,5.435703,4.466416,5.929346Q4.25,6.44101,4.25,7Q4.25,7.073869999999999,4.264411,7.146319999999999Q4.278822,7.21877,4.30709,7.28701Q4.335359,7.3552599999999995,4.376398,7.4166799999999995Q4.417437,7.4780999999999995,4.46967,7.53033Q4.521903,7.58256,4.583322,7.6236Q4.644742,7.66464,4.712987,7.6929099999999995Q4.781233,7.72118,4.853682,7.73559Q4.9261315,7.75,5,7.75Q5.0738685,7.75,5.146318,7.73559Q5.218767,7.72118,5.287013,7.6929099999999995Q5.355258,7.66464,5.416678,7.6236Q5.478097,7.58256,5.53033,7.53033Q5.582563,7.4780999999999995,5.623602,7.4166799999999995Q5.664641,7.3552599999999995,5.69291,7.28701Q5.721178,7.21877,5.735589,7.146319999999999Q5.75,7.073869999999999,5.75,7Q5.75,6.4822299999999995,6.1161200000000004,6.1161200000000004Z" fill-rule="evenodd" fill="#000000" fill-opacity="1" style="mix-blend-mode:passthrough"/></g><g><path d="M11,4.25L13,4.25Q13.07387,4.25,13.14632,4.264411Q13.21877,4.278822,13.28701,4.30709Q13.35526,4.335359,13.41668,4.376398Q13.4781,4.417437,13.53033,4.46967Q13.58256,4.521903,13.6236,4.583322Q13.66464,4.644742,13.69291,4.712987Q13.72118,4.781233,13.73559,4.853682Q13.75,4.9261315,13.75,5Q13.75,5.0738685,13.73559,5.146318Q13.72118,5.218767,13.69291,5.287013Q13.66464,5.355258,13.6236,5.416678Q13.58256,5.478097,13.53033,5.53033Q13.4781,5.582563,13.41668,5.623602Q13.35526,5.664641,13.28701,5.69291Q13.21877,5.721178,13.14632,5.735589Q13.07387,5.75,13,5.75L11,5.75Q10.9261315,5.75,10.853682,5.735589Q10.781233,5.721178,10.712987,5.69291Q10.644742,5.664641,10.583322,5.623602Q10.521903,5.582563,10.46967,5.53033Q10.417437,5.478097,10.376398,5.416678Q10.335359,5.355258,10.30709,5.287013Q10.278822,5.218767,10.264410999999999,5.146318Q10.25,5.0738685,10.25,5Q10.25,4.9261315,10.264410999999999,4.853682Q10.278822,4.781233,10.30709,4.712987Q10.335359,4.644742,10.376398,4.583322Q10.417437,4.521903,10.46967,4.46967Q10.521903,4.417437,10.583322,4.376398Q10.644742,4.335359,10.712987,4.30709Q10.781233,4.278822,10.853682,4.264411Q10.9261315,4.25,11,4.25Z" fill-rule="evenodd" fill="#000000" fill-opacity="1" style="mix-blend-mode:passthrough"/></g><g><path d="M17,4.25Q17.558989,4.25,18.07065,4.466416Q18.5643,4.67521,18.94454,5.0554565Q19.32479,5.435703,19.53358,5.929346Q19.75,6.44101,19.75,7Q19.75,7.073869999999999,19.735590000000002,7.146319999999999Q19.72118,7.21877,19.69291,7.28701Q19.66464,7.3552599999999995,19.6236,7.4166799999999995Q19.58256,7.4780999999999995,19.53033,7.53033Q19.4781,7.58256,19.41668,7.6236Q19.35526,7.66464,19.28701,7.6929099999999995Q19.21877,7.72118,19.14632,7.73559Q19.07387,7.75,19,7.75Q18.92613,7.75,18.85368,7.73559Q18.78123,7.72118,18.71299,7.6929099999999995Q18.64474,7.66464,18.58332,7.6236Q18.5219,7.58256,18.46967,7.53033Q18.41744,7.4780999999999995,18.3764,7.4166799999999995Q18.33536,7.3552599999999995,18.30709,7.28701Q18.27882,7.21877,18.26441,7.146319999999999Q18.25,7.073869999999999,18.25,7Q18.25,6.4822299999999995,17.883884,6.1161200000000004Q17.517767,5.75,17,5.75Q16.9261315,5.75,16.853682,5.735589Q16.781233,5.721178,16.712987,5.69291Q16.644742,5.664641,16.583322,5.623602Q16.521903000000002,5.582563,16.46967,5.53033Q16.417437,5.478097,16.376398000000002,5.416678Q16.335359,5.355258,16.30709,5.287013Q16.278822,5.218767,16.264411,5.146318Q16.25,5.0738685,16.25,5Q16.25,4.9261315,16.264411,4.853682Q16.278822,4.781233,16.30709,4.712987Q16.335359,4.644742,16.376398000000002,4.583322Q16.417437,4.521903,16.46967,4.46967Q16.521903000000002,4.417437,16.583322,4.376398Q16.644742,4.335359,16.712987,4.30709Q16.781233,4.278822,16.853682,4.264411Q16.9261315,4.25,17,4.25Z" fill-rule="evenodd" fill="#000000" fill-opacity="1" style="mix-blend-mode:passthrough"/></g><g><path d="M18.25,11Q18.25,10.9261315,18.264411,10.853682Q18.278822,10.781233,18.30709,10.712987Q18.335359,10.644742,18.376398000000002,10.583322Q18.417437,10.521903,18.46967,10.46967Q18.521903000000002,10.417437,18.583322,10.376398Q18.644742,10.335359,18.712987,10.30709Q18.781233,10.278822,18.853682,10.264410999999999Q18.9261315,10.25,19,10.25Q19.0738685,10.25,19.146318,10.264410999999999Q19.218767,10.278822,19.287013,10.30709Q19.355258,10.335359,19.416678,10.376398Q19.478096999999998,10.417437,19.53033,10.46967Q19.582563,10.521903,19.623601999999998,10.583322Q19.664641,10.644742,19.69291,10.712987Q19.721178,10.781233,19.735589,10.853682Q19.75,10.9261315,19.75,11L19.75,13Q19.75,13.07387,19.735589,13.14632Q19.721178,13.21877,19.69291,13.28701Q19.664641,13.35526,19.623601999999998,13.41668Q19.582563,13.4781,19.53033,13.53033Q19.478096999999998,13.58256,19.416678,13.6236Q19.355258,13.66464,19.287013,13.69291Q19.218767,13.72118,19.146318,13.73559Q19.0738685,13.75,19,13.75Q18.9261315,13.75,18.853682,13.73559Q18.781233,13.72118,18.712987,13.69291Q18.644742,13.66464,18.583322,13.6236Q18.521903000000002,13.58256,18.46967,13.53033Q18.417437,13.4781,18.376398000000002,13.41668Q18.335359,13.35526,18.30709,13.28701Q18.278822,13.21877,18.264411,13.14632Q18.25,13.07387,18.25,13L18.25,11Z" fill-rule="evenodd" fill="#000000" fill-opacity="1" style="mix-blend-mode:passthrough"/></g><g><path d="M18.25,17Q18.25,16.9261315,18.264411,16.853682Q18.278822,16.781233,18.30709,16.712987Q18.335359,16.644742,18.376398000000002,16.583322Q18.417437,16.521903000000002,18.46967,16.46967Q18.521903000000002,16.417437,18.583322,16.376398000000002Q18.644742,16.335359,18.712987,16.30709Q18.781233,16.278822,18.853682,16.264411Q18.9261315,16.25,19,16.25Q19.0738685,16.25,19.146318,16.264411Q19.218767,16.278822,19.287013,16.30709Q19.355258,16.335359,19.416678,16.376398000000002Q19.478096999999998,16.417437,19.53033,16.46967Q19.582563,16.521903000000002,19.623601999999998,16.583322Q19.664641,16.644742,19.69291,16.712987Q19.721178,16.781233,19.735589,16.853682Q19.75,16.9261315,19.75,17L19.75,21Q19.75,21.07387,19.735589,21.14632Q19.721178,21.21877,19.69291,21.287010000000002Q19.664641,21.35526,19.623601999999998,21.41668Q19.582563,21.4781,19.53033,21.53033Q19.478096999999998,21.58256,19.416678,21.6236Q19.355258,21.66464,19.287013,21.69291Q19.218767,21.72118,19.146318,21.735590000000002Q19.0738685,21.75,19,21.75Q18.9261315,21.75,18.853682,21.735590000000002Q18.781233,21.72118,18.712987,21.69291Q18.644742,21.66464,18.583322,21.6236Q18.521903000000002,21.58256,18.46967,21.53033Q18.417437,21.4781,18.376398000000002,21.41668Q18.335359,21.35526,18.30709,21.287010000000002Q18.278822,21.21877,18.264411,21.14632Q18.25,21.07387,18.25,21L18.25,17Z" fill-rule="evenodd" fill="#000000" fill-opacity="1" style="mix-blend-mode:passthrough"/></g><g><path d="M17,18.25L21,18.25Q21.07387,18.25,21.14632,18.264411Q21.21877,18.278822,21.287010000000002,18.30709Q21.35526,18.335359,21.41668,18.376398000000002Q21.4781,18.417437,21.53033,18.46967Q21.58256,18.521903000000002,21.6236,18.583322Q21.66464,18.644742,21.69291,18.712987Q21.72118,18.781233,21.735590000000002,18.853682Q21.75,18.9261315,21.75,19Q21.75,19.0738685,21.735590000000002,19.146318Q21.72118,19.218767,21.69291,19.287013Q21.66464,19.355258,21.6236,19.416678Q21.58256,19.478096999999998,21.53033,19.53033Q21.4781,19.582563,21.41668,19.623601999999998Q21.35526,19.664641,21.287010000000002,19.69291Q21.21877,19.721178,21.14632,19.735589Q21.07387,19.75,21,19.75L17,19.75Q16.9261315,19.75,16.853682,19.735589Q16.781233,19.721178,16.712987,19.69291Q16.644742,19.664641,16.583322,19.623601999999998Q16.521903000000002,19.582563,16.46967,19.53033Q16.417437,19.478096999999998,16.376398000000002,19.416678Q16.335359,19.355258,16.30709,19.287013Q16.278822,19.218767,16.264411,19.146318Q16.25,19.0738685,16.25,19Q16.25,18.9261315,16.264411,18.853682Q16.278822,18.781233,16.30709,18.712987Q16.335359,18.644742,16.376398000000002,18.583322Q16.417437,18.521903000000002,16.46967,18.46967Q16.521903000000002,18.417437,16.583322,18.376398000000002Q16.644742,18.335359,16.712987,18.30709Q16.781233,18.278822,16.853682,18.264411Q16.9261315,18.25,17,18.25Z" fill-rule="evenodd" fill="#000000" fill-opacity="1" style="mix-blend-mode:passthrough"/></g><g><path d="M11,18.25L13,18.25Q13.07387,18.25,13.14632,18.264411Q13.21877,18.278822,13.28701,18.30709Q13.35526,18.335359,13.41668,18.376398000000002Q13.4781,18.417437,13.53033,18.46967Q13.58256,18.521903000000002,13.6236,18.583322Q13.66464,18.644742,13.69291,18.712987Q13.72118,18.781233,13.73559,18.853682Q13.75,18.9261315,13.75,19Q13.75,19.0738685,13.73559,19.146318Q13.72118,19.218767,13.69291,19.287013Q13.66464,19.355258,13.6236,19.416678Q13.58256,19.478096999999998,13.53033,19.53033Q13.4781,19.582563,13.41668,19.623601999999998Q13.35526,19.664641,13.28701,19.69291Q13.21877,19.721178,13.14632,19.735589Q13.07387,19.75,13,19.75L11,19.75Q10.9261315,19.75,10.853682,19.735589Q10.781233,19.721178,10.712987,19.69291Q10.644742,19.664641,10.583322,19.623601999999998Q10.521903,19.582563,10.46967,19.53033Q10.417437,19.478096999999998,10.376398,19.416678Q10.335359,19.355258,10.30709,19.287013Q10.278822,19.218767,10.264410999999999,19.146318Q10.25,19.0738685,10.25,19Q10.25,18.9261315,10.264410999999999,18.853682Q10.278822,18.781233,10.30709,18.712987Q10.335359,18.644742,10.376398,18.583322Q10.417437,18.521903000000002,10.46967,18.46967Q10.521903,18.417437,10.583322,18.376398000000002Q10.644742,18.335359,10.712987,18.30709Q10.781233,18.278822,10.853682,18.264411Q10.9261315,18.25,11,18.25Z" fill-rule="evenodd" fill="#000000" fill-opacity="1" style="mix-blend-mode:passthrough"/></g></g></svg>