<svg xmlns="http://www.w3.org/2000/svg" xmlns:xlink="http://www.w3.org/1999/xlink" fill="none" version="1.1" width="24" height="24" viewBox="0 0 24 24"><g><g><g><path d="M8.03388,5.51695L8.03388,5.8983C8.03388,6.23529,7.7607,6.50847,7.42371,6.50847L3.610167,6.50847C3.273181,6.50847,3,6.23529,3,5.8983L3,5.51695Q2.9999999393853,4.46336,3.731678,3.73168Q4.46336,2.99999987877,5.51694,3Q6.57053,2.99999975754,7.3022,3.73168Q8.03388,4.46336,8.03388,5.51695ZM6.439299999999999,4.59459Q6.73266,4.88795,6.796060000000001,5.28814L4.23782,5.28814Q4.30123,4.88795,4.59459,4.59459Q4.96884,4.22034,5.51694,4.22034Q6.065049999999999,4.22034,6.439299999999999,4.59459Z" fill-rule="evenodd" fill="#E0AC10" fill-opacity="1"/></g><g><path d="M6.439299790840149,4.594602338386536Q6.732659790840149,4.887963338386536,6.7960597908401486,5.288151338386536L4.237819790840149,5.288151338386536Q4.301226590840149,4.887963338386536,4.5945867908401485,4.594602338386536Q4.9688367908401485,4.220351156541535,5.516939790840149,4.220351338386536Q6.065049790840149,4.2203510656195355,6.439299790840149,4.594602338386536Z" fill-rule="evenodd" fill="#E0AC10" fill-opacity="1"/></g><g><path d="M18.10167320957184,21L9.330483209571838,21Q8.276903209571838,21,7.545223209571839,20.2683Q6.813543209571838,19.5366,6.813543209571838,18.483L6.813543209571838,5.51695Q6.813543209571838,4.96884,6.439293209571838,4.59459Q6.065043209571838,4.22034,5.516940209571838,4.22034C5.1799542095718385,4.22034,4.906773209571838,3.947157,4.906773209571838,3.610169C4.906773209571838,3.4483420000000002,4.971058509571838,3.293143,5.085487209571839,3.178715C5.199916209571838,3.0642857,5.3551142095718385,3.00000012123,5.516940209571838,3L16.19487320957184,3Q17.248473209571838,3,17.980173209571838,3.73168Q18.711773209571838,4.46336,18.711773209571838,5.51695L18.711773209571838,18.1017C18.711773209571838,18.4387,18.43867320957184,18.7119,18.10167320957184,18.7119C17.76467320957184,18.7119,17.491473209571836,18.4387,17.491473209571836,18.1017L17.491473209571836,5.51695Q17.491473209571836,4.96884,17.117273209571838,4.59459Q16.742973209571836,4.22034,16.19487320957184,4.22034L7.688003209571838,4.22034Q8.033883209571838,4.79256,8.033883209571838,5.51695L8.033883209571838,18.483Q8.033883209571838,19.0312,8.408133209571838,19.4054Q8.782383209571838,19.7797,9.330483209571838,19.7797L18.10167320957184,19.7797C18.43867320957184,19.7797,18.711773209571838,20.0528,18.711773209571838,20.3898C18.711773209571838,20.7268,18.43867320957184,21,18.10167320957184,21Z" fill-rule="evenodd" fill="#FAC814" fill-opacity="1"/></g><g><path d="M7.688004016876221,4.220351338386536Q8.03388301687622,4.792570338386536,8.03388301687622,5.516961338386536L8.03388301687622,18.483051338386538Q8.03388301687622,19.031151338386536,8.40813401687622,19.405451338386534Q8.78238401687622,19.779651338386536,9.330494016876221,19.779651338386536L18.101604016876223,19.779651338386536L18.101604016876223,18.711851338386538C17.764704016876223,18.711851338386538,17.49147401687622,18.438651338386535,17.49147401687622,18.101751338386535L17.49147401687622,5.516961338386536Q17.49147401687622,4.968855338386535,17.11722401687622,4.594603338386536Q16.74297401687622,4.220351338386536,16.19487401687622,4.220351338386536L7.688004016876221,4.220351338386536Z" fill="#FAC814" fill-opacity="1"/></g><g><path d="M11.84742407989502,10.4745751088562C11.84742407989502,10.6364021088562,11.78314407989502,10.7916011088562,11.66871407989502,10.906026108856201L10.57474407989502,11.999996108856202L11.66871407989502,13.0939661088562C11.78314407989502,13.208396108856201,11.84742407989502,13.363596108856202,11.84742407989502,13.525426108856202C11.84742407989502,13.862406108856202,11.57424407989502,14.135596108856202,11.23726407989502,14.135596108856202C11.07543407989502,14.135596108856202,10.92023407989502,14.071306108856202,10.805804079895019,13.9568761088562L9.280388079895019,12.431456108856201C9.04210277989502,12.1931661088562,9.04210277989502,11.806826108856201,9.280388079895019,11.568546108856202L10.805704079895019,10.043219108856201C10.92023407989502,9.928691608856202,11.07543407989502,9.864406108856201,11.23726407989502,9.864406108856201C11.57424407989502,9.864406108856201,11.84742407989502,10.137588108856201,11.84742407989502,10.4745751088562Z" fill-rule="evenodd" fill="#FFFFFF" fill-opacity="1"/></g><g><path d="M16.244969878234862,11.568546108856202L14.719549878234863,10.043121108856202C14.605121878234863,9.928691608856202,14.449923878234863,9.864406108856201,14.288096878234864,9.864406108856201C13.951110878234863,9.864406108856201,13.677929878234863,10.137588108856201,13.677929878234863,10.4745751088562C13.677929878234863,10.6364021088562,13.742215178234863,10.7916011088562,13.856643878234863,10.906026108856201L14.950609878234863,11.999996108856202L13.856801878234863,13.093806108856201C13.742215178234863,13.208396108856201,13.677929878234863,13.363596108856202,13.677929878234863,13.525426108856202C13.677929878234863,13.862406108856202,13.951110878234863,14.135596108856202,14.288096878234864,14.135596108856202C14.449923878234863,14.135596108856202,14.605121878234863,14.071306108856202,14.719549878234863,13.9568761088562L16.244969878234862,12.431456108856201C16.483249878234865,12.1931661088562,16.483249878234865,11.806826108856201,16.244969878234862,11.568546108856202Z" fill-rule="evenodd" fill="#FFFFFF" fill-opacity="1"/></g><g><path d="M20.3897730178833,17.49152374267578C20.726773017883303,17.49152374267578,20.9999730178833,17.76470574267578,20.9999730178833,18.10169274267578L20.9999730178833,18.48304874267578Q20.9999730178833,19.536633742675782,20.268273017883303,20.26831374267578Q19.5365730178833,20.99999374267578,18.4830130178833,20.99999374267578L9.3305010178833,20.99999374267578C9.021633017883302,20.99999374267578,8.7614798178833,20.769193742675782,8.7246797678833,20.46252374267578C8.6845295178833,20.127943742675782,8.923217017883301,19.824153742675783,9.257803017883301,19.784003742675782Q10.001653017883301,19.694743742675783,10.329123017883301,19.36727374267578Q10.6271030178833,19.069293742675782,10.6271030178833,18.48304874267578L10.6271030178833,18.10169274267578C10.6271030178833,17.76470574267578,10.9002930178833,17.49152374267578,11.2372730178833,17.49152374267578L20.3897730178833,17.49152374267578ZM11.8399230178833,18.71186374267578L19.7621730178833,18.71186374267578Q19.6987730178833,19.11204374267578,19.4053730178833,19.40540374267578Q19.0310730178833,19.77966374267578,18.4830130178833,19.77966374267578L11.5366830178833,19.77966374267578Q11.7991130178833,19.31952374267578,11.8399230178833,18.71186374267578Z" fill-rule="evenodd" fill="#BA830B" fill-opacity="1"/></g><g><path d="M20.389819747924804,17.49152374267578C20.726819747924807,17.49152374267578,21.000019747924803,17.76470574267578,21.000019747924803,18.10169274267578L21.000019747924803,18.48304874267578Q21.000019747924803,19.536633742675782,20.268319747924807,20.26831374267578Q19.536619747924803,20.99999374267578,18.483059747924806,20.99999374267578L9.330547747924804,20.99999374267578C9.021679747924805,20.99999374267578,8.761526547924804,20.769193742675782,8.724726497924804,20.46252374267578C8.684576247924804,20.127943742675782,8.923263747924805,19.824153742675783,9.257849747924805,19.784003742675782Q10.001699747924805,19.694743742675783,10.329169747924805,19.36727374267578Q10.627149747924804,19.069293742675782,10.627149747924804,18.48304874267578L10.627149747924804,18.10169274267578C10.627149747924804,17.76470574267578,10.900339747924804,17.49152374267578,11.237319747924804,17.49152374267578L20.389819747924804,17.49152374267578Z" fill-rule="evenodd" fill="#E0AC10" fill-opacity="1"/></g></g></g></svg>