<svg xmlns="http://www.w3.org/2000/svg" xmlns:xlink="http://www.w3.org/1999/xlink" fill="none" version="1.1" width="24" height="24" viewBox="0 0 24 24"><defs><clipPath id="master_svg0_6101_03511"><rect x="-0.75" y="-0.75" width="25.5" height="25.5" rx="0"/></clipPath></defs><g clip-path="url(#master_svg0_6101_03511)"><path d="M2.25,5L2.25,19Q2.25,20.139088,3.05545646,20.944544Q3.86091292,21.75,5,21.75L19,21.75Q20.139088,21.75,20.944544,20.944544Q21.75,20.139088,21.75,19L21.75,5Q21.75,3.86091286,20.944544,3.05545646Q20.139088,2.25,19,2.25L5,2.25Q3.8609128,2.25,3.0554564,3.0554564Q2.25,3.86091292,2.25,5ZM5,20.25Q3.75,20.25,3.75,19L3.75,5Q3.75,3.75,5,3.75L19,3.75Q20.25,3.75,20.25,5L20.25,19Q20.25,20.25,19,20.25L5,20.25Z" fill-rule="evenodd" fill="#000000" fill-opacity="1" style="mix-blend-mode:passthrough"/><path d="M8.46977597,11.53022403Q8.36430788,11.42475593,8.30722892,11.28695518Q8.25014997,11.14915444,8.25014997,11Q8.25014997,10.926146217,8.2645582,10.85371152Q8.27896631,10.78127682,8.30722892,10.71304482Q8.33549154,10.64481282,8.37652254,10.58340567Q8.41755348,10.52199849,8.46977597,10.46977597Q8.52199849,10.41755348,8.58340567,10.37652254Q8.64481282,10.33549154,8.71304482,10.30722892Q8.78127682,10.27896631,8.85371152,10.2645582Q8.926146217,10.25014997,9,10.25014997Q9.14915444,10.25014997,9.28695518,10.30722886Q9.42475593,10.36430788,9.53022403,10.46977597L9.53033006,10.46966994L12,12.939339799999999L14.4696703,10.46966994L14.4697762,10.46977568Q14.5752439,10.3643077,14.7130446,10.30722886Q14.8508453,10.25014997,15,10.25014997Q15.0738535,10.25014997,15.1462879,10.2645582Q15.2187223,10.27896631,15.286954399999999,10.30722892Q15.3551865,10.33549154,15.416593599999999,10.37652254Q15.4780011,10.41755348,15.5302238,10.46977597Q15.5824461,10.52199849,15.623477000000001,10.58340567Q15.6645079,10.64481282,15.692771,10.71304482Q15.7210331,10.78127682,15.7354412,10.85371152Q15.7498503,10.926146217,15.7498503,11Q15.7498503,11.14915453,15.692771,11.28695536Q15.635691600000001,11.42475617,15.5302238,11.53022432L15.5303297,11.53033006L12.5303299,14.5303299Q12.4248407,14.635819,12.2870126,14.692909499999999Q12.1491842,14.75,12.0000002,14.7500002Q11.850816,14.75,11.7129874,14.6929097Q11.5751591,14.6358192,11.4696698,14.5303299L8.46966994,11.53033006L8.46977597,11.53022403Z" fill-rule="evenodd" fill="#000000" fill-opacity="1" style="mix-blend-mode:passthrough"/></g></svg>