<svg xmlns="http://www.w3.org/2000/svg" xmlns:xlink="http://www.w3.org/1999/xlink" fill="none" version="1.1" width="24" height="24" viewBox="0 0 24 24"><defs><clipPath id="master_svg0_848_42179"><rect x="0" y="0" width="24" height="24" rx="0"/></clipPath></defs><g clip-path="url(#master_svg0_848_42179)"><g><path d="M11.07797552734375,2.25000214577C10.16097552734375,2.25000214577,9.37897552734375,2.913002,9.22797552734375,3.817L9.04997552734375,4.888999999999999C9.029975527343751,5.009,8.934975527343749,5.149,8.75297552734375,5.237C8.410325527343751,5.40171,8.08070552734375,5.59226,7.76697552734375,5.807C7.60097552734375,5.922000000000001,7.43297552734375,5.933,7.31697552734375,5.890000000000001L6.29997552734375,5.508C5.44137552734375,5.18633,4.47608552734375,5.53277,4.01797552734375,6.327L3.09597352734375,7.924C2.63770952734375,8.71774,2.82041712734375,9.72644,3.5279735273437502,10.309L4.36797552734375,11.001C4.46297552734375,11.079,4.53797552734375,11.23,4.52197552734375,11.431C4.49347552734375,11.81013,4.49347552734375,12.19087,4.52197552734375,12.57C4.53697552734375,12.77,4.46297552734375,12.922,4.36897552734375,13L3.5279735273437502,13.692C2.82041792734375,14.2746,2.63770952734375,15.2833,3.09597352734375,16.076999999999998L4.01797552734375,17.674C4.47639552734375,18.4679,5.44161552734375,18.8138,6.29997552734375,18.492L7.31897552734375,18.11C7.43397552734375,18.067,7.60197552734375,18.079,7.76897552734375,18.192C8.08097552734375,18.406,8.40997552734375,18.597,8.75397552734375,18.762C8.93597552734375,18.85,9.030975527343749,18.99,9.05097552734375,19.112L9.22897552734375,20.183C9.379975527343749,21.087,10.161975527343749,21.75,11.07897552734375,21.75L12.92296552734375,21.75C13.83896552734375,21.75,14.62196552734375,21.087,14.77296552734375,20.183L14.95096552734375,19.111C14.97096552734375,18.991,15.06496552734375,18.851,15.24796552734375,18.762C15.59196552734375,18.597,15.92096552734375,18.406,16.23296552734375,18.192C16.399965527343753,18.078,16.567965527343752,18.067,16.68296552734375,18.11L17.70296552734375,18.492C18.56096552734375,18.8125,19.52506552734375,18.4663,19.98296552734375,17.673000000000002L20.90596552734375,16.076C21.36426552734375,15.2823,21.18156552734375,14.2736,20.47396552734375,13.691L19.63396552734375,12.999C19.53896552734375,12.921,19.46396552734375,12.77,19.47996552734375,12.569C19.50846552734375,12.18987,19.50846552734375,11.80914,19.47996552734375,11.43C19.46396552734375,11.23,19.53896552734375,11.078,19.63296552734375,11L20.47296552734375,10.308C21.18096552734375,9.725999999999999,21.36396552734375,8.718,20.90596552734375,7.923L19.98396552734375,6.326C19.52556552734375,5.53215,18.56036552734375,5.18616,17.701965527343752,5.508L16.68196552734375,5.890000000000001C16.567965527343752,5.933,16.399965527343753,5.920999999999999,16.23296552734375,5.807C15.91956552734375,5.59229,15.59026552734375,5.40175,15.24796552734375,5.237C15.06496552734375,5.15,14.97096552734375,5.01,14.95096552734375,4.888999999999999L14.77196552734375,3.817C14.62136552734375,2.912608,13.83886552734375,2.249770403,12.92196552734375,2.250000238419L11.07897552734375,2.250000238419L11.07797552734375,2.25000214577ZM11.99997552734375,15.75C14.07106552734375,15.75,15.74996552734375,14.0711,15.74996552734375,12C15.74996552734375,9.92894,14.07106552734375,8.25,11.99997552734375,8.25C9.928905527343751,8.25,8.24997552734375,9.92894,8.24997552734375,12C8.24997552734375,14.0711,9.928905527343751,15.75,11.99997552734375,15.75Z" fill-rule="evenodd" fill="#000000" fill-opacity="1"/></g></g></svg>