<svg xmlns="http://www.w3.org/2000/svg" xmlns:xlink="http://www.w3.org/1999/xlink" fill="none" version="1.1" width="32" height="32" viewBox="0 0 32 32"><defs><clipPath id="master_svg0_5881_02852"><rect x="0" y="0" width="32" height="32" rx="0"/></clipPath><filter id="master_svg1_5881_02858" filterUnits="objectBoundingBox" color-interpolation-filters="sRGB" x="0" y="0" width="1" height="1"><feFlood flood-opacity="0" result="BackgroundImageFix"/><feBlend mode="normal" in="SourceGraphic" in2="BackgroundImageFix" result="shape"/><feColorMatrix in="SourceAlpha" type="matrix" result="hardAlpha" values="0 0 0 0 0 0 0 0 0 0 0 0 0 0 0 0 0 0 127 0"/><feOffset dy="-2" dx="0"/><feGaussianBlur stdDeviation="2"/><feComposite in2="hardAlpha" operator="arithmetic" k2="-1" k3="1"/><feColorMatrix type="matrix" values="0 0 0 0 1 0 0 0 0 1 0 0 0 0 1 0 0 0 0.20000000298023224 0"/><feBlend mode="normal" in2="shape" result="effect1_innerShadow"/></filter><linearGradient x1="0.6981797218322754" y1="0.25316327810287476" x2="0.6981797218322754" y2="1.1526970863342285" id="master_svg2_5881_02946"><stop offset="0%" stop-color="#FFFFFF" stop-opacity="1"/><stop offset="40.104201436042786%" stop-color="#FFFFFF" stop-opacity="0.8500000238418579"/><stop offset="100%" stop-color="#FFFFFF" stop-opacity="0.5"/></linearGradient></defs><g clip-path="url(#master_svg0_5881_02852)"><g></g><g filter="url(#master_svg1_5881_02858)"><g transform="matrix(0.916670024394989,0,0,0.916670024394989,0.5151417106492318,0.5333898512878932)"><path d="M13.011029615478517,26.363136126708984C11.448769615478515,27.925936126708983,8.915299615478515,27.925936126708983,7.353049615478516,26.363136126708984C5.790810615478516,24.800336126708984,5.791694615478516,22.266836126708984,7.355029615478515,20.705136126708986L9.784029615478516,18.276136126708984C8.693489615478516,15.035446126708985,9.533059615478516,11.456696126708984,11.951029615478515,9.039126126708984C14.369569615478516,6.619138126708984,17.951049615478517,5.779757126708985,21.193049615478515,6.873122126708984C21.394049615478515,6.941122126708985,21.636049615478516,7.041122126708984,21.918049615478516,7.1721221267089845C22.514949615478514,7.449996126708984,22.653749615478517,8.236736126708985,22.188049615478516,8.702126126708984L19.376049615478514,11.513126126708984C18.594849615478516,12.294056126708984,18.594549615478513,13.560416126708985,19.375549615478516,14.341626126708984C20.156449615478515,15.122826126708985,21.422849615478516,15.123056126708985,22.204049615478514,14.342126126708983L24.962049615478517,11.585126126708985C25.454949615478515,11.092596126708983,26.287849615478514,11.242586126708984,26.578049615478516,11.876126126708984C26.706049615478516,12.155126126708986,26.802049615478516,12.395126126708984,26.868049615478515,12.596126126708985C27.925949615478515,15.821016126708985,27.079549615478516,19.366836126708982,24.679049615478515,21.766136126708986C22.261549615478515,24.185036126708983,18.682149615478515,25.025036126708983,15.441029615478516,23.934136126708985L13.011029615478517,26.363136126708984Z" fill="url(#master_svg2_5881_02946)" fill-opacity="1" style="mix-blend-mode:passthrough"/></g></g></g></svg>