<svg xmlns="http://www.w3.org/2000/svg" xmlns:xlink="http://www.w3.org/1999/xlink" fill="none" version="1.1" width="24" height="24" viewBox="0 0 24 24"><defs><clipPath id="master_svg0_5518_08969"><rect x="0" y="0" width="24" height="24" rx="0"/></clipPath><clipPath id="master_svg1_5518_08971"><rect x="3" y="3" width="18" height="18" rx="0"/></clipPath></defs><g clip-path="url(#master_svg0_5518_08969)"><g clip-path="url(#master_svg1_5518_08971)"><g><g><path d="M17.587498426437378,14.437511837482452C17.587498426437378,14.596641837482453,17.650708426437376,14.749253837482453,17.76323842643738,14.861771837482452L19.224988426437378,16.323521837482453L19.26322842643738,16.36177183748245Q19.84607842643738,16.95644183748245,19.83776842643738,17.795051837482454Q19.82946842643738,18.633671837482453,19.23065842643738,19.220861837482452L19.18823842643738,19.263251837482454Q18.59339842643738,19.84626183748245,17.754538426437378,19.837791837482452Q16.915678426437378,19.82931183748245,16.32856842643738,19.23010183748245L14.111918426437377,17.01341183748245C13.999240426437378,16.900721837482454,13.846628426437379,16.837511837482452,13.687498426437378,16.837511837482452C13.356127426437379,16.837511837482452,13.087498426437378,17.106141837482454,13.087498426437378,17.437511837482454C13.087498426437378,17.59664183748245,13.150712526437378,17.749251837482454,13.263234426437378,17.86177183748245L15.471428426437377,20.069921837482454Q16.40645842643738,21.024231837482453,17.74241842643738,21.03772183748245Q19.078388426437378,21.05122183748245,20.036758426437377,20.11177183748245L20.070838426437376,20.077661837482452Q21.02448842643738,19.14252183748245,21.037708426437376,17.80694183748245Q21.050938426437376,16.47135183748245,20.11176842643738,15.513251837482452L20.073508426437378,15.475001837482452L18.611758426437376,14.013247837482453C18.49923842643738,13.900726037482453,18.346628426437377,13.837511837482452,18.18749842643738,13.837511837482452C17.85612842643738,13.837511837482452,17.587498426437378,14.106140837482453,17.587498426437378,14.437511837482452Z" fill-rule="evenodd" fill="#38363C" fill-opacity="1" style="mix-blend-mode:passthrough"/></g><g><path d="M9.347489092102052,12.040244172821044L4.0089850921020505,6.701744172821044C3.774670392102051,6.467434172821045,3.774670392102051,6.087534172821044,4.0089850921020505,5.8532241728210455L5.915489092102051,3.946720172821045C6.028009092102051,3.834198272821045,6.1806190921020505,3.770984113216445,6.339749092102051,3.770984172821045C6.498879092102051,3.770984172821045,6.65148909210205,3.834198272821045,6.76400909210205,3.946720172821045L12.229819092102051,9.412524172821044C12.34253909210205,9.525244172821045,12.40574909210205,9.677854172821045,12.40574909210205,9.836984172821044C12.40574909210205,10.168354172821044,12.13711909210205,10.436984172821045,11.805749092102051,10.436984172821045C11.64661909210205,10.436984172821045,11.49400909210205,10.373774172821044,11.38148909210205,10.261244172821044L6.339749092102051,5.219514172821045L5.281779092102051,6.277484172821045L10.19600909210205,11.191724172821045C10.308539092102052,11.304244172821045,10.37174909210205,11.456854172821046,10.37174909210205,11.615984172821044C10.37174909210205,11.947354172821045,10.103119092102052,12.215984172821045,9.771749092102052,12.215984172821045C9.612619092102051,12.215984172821045,9.460009092102052,12.152774172821045,9.347489092102052,12.040244172821044Z" fill-rule="evenodd" fill="#38363C" fill-opacity="1" style="mix-blend-mode:passthrough"/></g><g><path d="M20.847609731674194,9.50251659395218Q20.030309731674194,12.31539659395218,17.160709731674196,12.908556593952179C17.149509731674193,12.910866593952179,17.138309731674195,12.91285659395218,17.127009731674192,12.914526593952179Q16.094409731674194,13.067156593952179,15.088109731674194,12.843196593952179L8.793979731674195,19.91919659395218Q8.674859731674195,20.06269659395218,8.542879731674194,20.186696593952178Q7.626119731674194,21.06519659395218,6.356679731674195,21.03789659395218Q5.087239731674194,21.01049659395218,4.201626731674194,20.08549659395218Q4.198226731674194,20.08179659395218,4.190321731674194,20.07329659395218Q4.1583887316741945,20.038996593952177,4.137707731674194,20.01509659395218Q3.2693666316741945,19.03839659395218,3.344019771674194,17.732696593952177Q3.418833031674194,16.424296593952178,4.399599731674194,15.54949659395218L11.490599731674195,9.301836593952178Q11.349099731674194,8.79578659395218,11.353439731674195,8.261976593952179Q11.313369731674193,6.363766593952179,12.581969731674194,4.949346593952179Q13.848609731674195,3.5370755939521787,15.736209731674194,3.369546193952179Q16.774009731674195,3.228729593952179,17.736109731674194,3.645707593952179C17.805809731674195,3.675917593952179,17.869109731674193,3.719088593952179,17.922709731674196,3.772926593952179C18.035009731674194,3.885704593952179,18.097909731674193,4.038460593952179,18.097509731674194,4.197590593952179C18.097109731674195,4.356716593952179,18.033609731674193,4.509186593952179,17.920809731674197,4.621456593952179L16.038409731674193,6.495266593952179L17.887009731674194,8.331506593952179L19.772609731674194,6.453806593952179C19.833109731674195,6.393636593952179,19.905609731674193,6.347036593952179,19.985509731674195,6.3171165939521785C20.295809731674193,6.200846593952178,20.641609731674194,6.3581465939521795,20.757809731674193,6.668456593952179Q21.283209731674194,8.070506593952178,20.847609731674194,9.50251659395218ZM19.698609731674193,9.156376593952178Q19.863709731674195,8.61514659395218,19.840409731674196,8.079796593952178L18.310909731674194,9.602886593952178C18.077009731674195,9.835796593952178,17.698809731674196,9.83603659395218,17.464609731674194,9.60340659395218L14.764609731674195,6.921406593952179C14.529609731674194,6.687876593952179,14.528309731674195,6.307976593952179,14.761809731674195,6.072876593952179C14.761809731674195,6.072876593952179,14.764209731674194,6.070496593952178,14.764209731674194,6.070496593952178L16.306609731674193,4.5351165939521785Q16.098809731674194,4.530506593952179,15.886309731674194,4.560196593952179C15.875709731674194,4.561666593952179,15.865209731674195,4.562866593952179,15.854609731674195,4.563766593952179Q14.430009731674195,4.686136593952179,13.475309731674194,5.750576593952179Q12.520599731674194,6.8150065939521784,12.553349731674194,8.244476593952179C12.553349731674194,8.244476593952179,12.553469731674195,8.264666593952178,12.553469731674195,8.264666593952178Q12.547909731674194,8.781966593952179,12.743139731674194,9.26104659395218C12.839469731674194,9.49744659395218,12.775679731674193,9.76890659395218,12.584149731674195,9.937656593952179L5.192899731674194,16.44989659395218Q4.588499731674194,16.98899659395218,4.542059731674194,17.801196593952177Q4.495619731674195,18.613496593952178,5.037069731674194,19.220696593952177C5.037069731674194,19.220696593952177,5.046009731674195,19.23089659395218,5.046009731674195,19.23089659395218Q5.050339731674194,19.23599659395218,5.068219731674194,19.255196593952178Q5.077999731674194,19.26569659395218,5.083379731674194,19.27149659395218Q5.610149731674195,19.82149659395218,6.382499731674194,19.83809659395218Q7.154849731674194,19.85479659395218,7.712619731674194,19.32029659395218Q7.801499731674195,19.23669659395218,7.875399731674194,19.14699659395218C7.875399731674194,19.14699659395218,7.8901897316741945,19.12969659395218,7.8901897316741945,19.12969659395218L14.434709731674195,11.772196593952179C14.588909731674194,11.598786593952179,14.829409731674195,11.52988659395218,15.052109731674195,11.59528659395218Q15.979109731674194,11.86753659395218,16.934609731674193,11.729886593952179Q19.083609731674194,11.27796659395218,19.696209731674195,9.164436593952178L19.698609731674193,9.156376593952178Z" fill-rule="evenodd" fill="#38363C" fill-opacity="1" style="mix-blend-mode:passthrough"/></g></g></g></g></svg>