<svg xmlns="http://www.w3.org/2000/svg" xmlns:xlink="http://www.w3.org/1999/xlink" fill="none" version="1.1" width="24" height="24" viewBox="0 0 24 24"><defs><clipPath id="master_svg0_5778_08503"><rect x="0" y="0" width="24" height="24" rx="0"/></clipPath></defs><g clip-path="url(#master_svg0_5778_08503)"><g></g><g><path d="M11.503033174438476,2.438284Q8.088533174438478,5.4591899999999995,3.5342841744384765,5.25078Q3.4718321744384766,5.24793,3.4097701744384765,5.25545Q3.3477071744384768,5.26297,3.2877461744384764,5.28066Q3.2277861744384766,5.29835,3.1715811744384768,5.32573Q3.1153771744384766,5.3530999999999995,3.0644812744384766,5.38941Q3.0135851544384766,5.4257100000000005,2.9694017744384764,5.469939999999999Q2.9252183744384768,5.51417,2.8889671744384766,5.5651Q2.8527161744384766,5.61603,2.8253981744384764,5.67227Q2.7980791744384765,5.7285,2.7804481744384764,5.78848Q1.2570331744384766,10.970790000000001,3.9200791744384764,15.6703Q6.583133174438476,20.3698,11.811693174438476,21.726Q12.000003174438477,21.7748,12.188303174438477,21.726Q17.416863174438475,20.3698,20.079963174438475,15.6703Q22.742963174438476,10.970790000000001,21.219563174438477,5.78848Q21.201963174438475,5.7285,21.174563174438475,5.67227Q21.147263174438475,5.61603,21.111063174438478,5.5651Q21.074763174438477,5.51417,21.030563174438477,5.469939999999999Q20.986363174438477,5.4257100000000005,20.935563174438478,5.38941Q20.884663174438476,5.3530999999999995,20.828463174438475,5.32573Q20.772163174438475,5.29835,20.712263174438476,5.28066Q20.652263174438477,5.26297,20.590263174438476,5.25545Q20.528163174438475,5.24793,20.465763174438475,5.25078Q15.911463174438477,5.4591899999999995,12.496963174438477,2.438284Q12.445973174438477,2.393166,12.387683174438477,2.3579689999999998Q12.329393174438476,2.3227729999999998,12.265723174438477,2.298649Q12.202043174438476,2.274525,12.135063174438477,2.2622619999999998Q12.068093174438477,2.25,12.000003174438477,2.25Q11.931913174438476,2.25,11.864933174438477,2.2622619999999998Q11.797953174438476,2.274525,11.734283174438476,2.298649Q11.670613174438477,2.3227729999999998,11.612323174438476,2.3579689999999998Q11.554033174438477,2.393166,11.503033174438476,2.438284ZM4.070163174438477,6.76434Q3.0178045444384765,11.03552,5.2251131744384764,14.9308Q7.526663174438476,18.9923,12.000003174438477,20.2237Q16.473363174438475,18.9923,18.774863174438476,14.9308Q20.982163174438476,11.03553,19.929863174438477,6.76435Q15.467663174438476,6.78216,12.000003174438477,3.982008Q8.532363174438476,6.78216,4.070163174438477,6.76434Z" fill-rule="evenodd" fill="#000000" fill-opacity="1" style="mix-blend-mode:passthrough"/></g></g></svg>