<svg xmlns="http://www.w3.org/2000/svg" xmlns:xlink="http://www.w3.org/1999/xlink" fill="none" version="1.1" width="24" height="24" viewBox="0 0 24 24"><defs><clipPath id="master_svg0_5813_08818"><rect x="0" y="0" width="24" height="24" rx="0"/></clipPath><linearGradient x1="0" y1="0" x2="1" y2="1" id="master_svg1_5803_09361"><stop offset="0%" stop-color="#2882FF" stop-opacity="1"/><stop offset="31.42857253551483%" stop-color="#5B65F5" stop-opacity="1"/><stop offset="100%" stop-color="#B700FF" stop-opacity="1"/></linearGradient><linearGradient x1="0" y1="0" x2="1" y2="1" id="master_svg2_5813_08795"><stop offset="0%" stop-color="#28DBFF" stop-opacity="1"/><stop offset="44.285714626312256%" stop-color="#995BF5" stop-opacity="1"/><stop offset="100%" stop-color="#D900FF" stop-opacity="1"/></linearGradient><linearGradient x1="0" y1="0" x2="0.9999998410542174" y2="1.0000001589457321" id="master_svg3_5813_08792"><stop offset="0%" stop-color="#3328FF" stop-opacity="1"/><stop offset="48.571428656578064%" stop-color="#ED5BF5" stop-opacity="1"/><stop offset="100%" stop-color="#FFDD00" stop-opacity="1"/></linearGradient></defs><g clip-path="url(#master_svg0_5813_08818)"><g><path d="M10.52568,16.139699999999998L9.72115,18.956Q9.700859999999999,19.027,9.6671,19.0927Q9.63335,19.1584,9.58742,19.2163Q9.54149,19.2742,9.48516,19.3219Q9.42883,19.3697,9.36426,19.4056Q9.29969,19.441499999999998,9.22936,19.464100000000002Q9.15903,19.4867,9.085650000000001,19.4951Q9.012260000000001,19.503500000000003,8.93864,19.497500000000002Q8.865020000000001,19.4914,8.79399,19.4712Q8.702069999999999,19.4449,8.61967,19.3964Q8.53727,19.3479,8.46967,19.2803Q8.40207,19.212699999999998,8.35359,19.1303Q8.305109999999999,19.0479,8.27885,18.956L7.46585,16.11Q6.89347,14.10753,4.89088,13.53512L2.043825,12.72111Q1.9728029999999999,12.700800000000001,1.907106,12.66703Q1.84141,12.63325,1.783565,12.58731Q1.725719,12.54137,1.677948,12.48503Q1.630176,12.42869,1.594315,12.36411Q1.558453,12.29953,1.535879,12.229199999999999Q1.513305,12.15886,1.504887,12.08547Q1.4964680000000001,12.01209,1.5025279999999999,11.938469999999999Q1.508589,11.86485,1.528895,11.79383Q1.55517,11.70193,1.6036540000000001,11.61956Q1.6521379999999999,11.537189999999999,1.719731,11.46961Q1.787325,11.40203,1.869707,11.353570000000001Q1.952089,11.3051,2.043993,11.27885L4.88999,10.46585Q6.89247,9.89347,7.46488,7.89088L8.27889,5.043825Q8.299199999999999,4.972803,8.33297,4.907106Q8.36675,4.84141,8.41269,4.783565Q8.45862,4.725719,8.51497,4.677948Q8.57131,4.630176,8.63589,4.594315Q8.70047,4.558453,8.770800000000001,4.5358789999999996Q8.84114,4.513305,8.91453,4.504887Q8.98791,4.496468,9.061530000000001,4.502528Q9.13515,4.508589,9.20617,4.528895Q9.29807,4.55517,9.38044,4.603654Q9.462810000000001,4.652138,9.53039,4.719731Q9.59797,4.787325,9.646429999999999,4.869707Q9.6949,4.952089,9.72115,5.043993L10.53415,7.88999Q11.10653,9.89247,13.1091,10.46488L15.9562,11.27889Q16.0272,11.299199999999999,16.0929,11.33297Q16.1586,11.36675,16.2164,11.41269Q16.2743,11.45862,16.3221,11.51497Q16.369799999999998,11.57131,16.4057,11.63589Q16.441499999999998,11.70047,16.464100000000002,11.770800000000001Q16.4867,11.84114,16.4951,11.91453Q16.503500000000003,11.98791,16.497500000000002,12.061530000000001Q16.4914,12.13515,16.4711,12.20617Q16.4448,12.29807,16.3963,12.38044Q16.3479,12.462810000000001,16.2803,12.53039Q16.212699999999998,12.59797,16.1303,12.646429999999999Q16.0479,12.6949,15.956,12.72115L13.11,13.53415Q11.10752,14.10653,10.53512,16.109099999999998Q10.53072,16.124499999999998,10.52568,16.139699999999998ZM9.10192,15.6655Q9.90995,12.888760000000001,12.698,12.09185L13.0206,11.99968L12.6969,11.907119999999999Q9.89325,11.10575,9.09185,8.30201L8.99968,7.97938L8.907119999999999,8.30312Q8.10575,11.10675,5.30201,11.90815L4.97938,12.00032L5.30312,12.092880000000001Q8.10675,12.89425,8.90815,15.698L9,16.0195L9.09185,15.698Q9.09652,15.6817,9.10192,15.6655Z" fill-rule="evenodd" fill="url(#master_svg1_5803_09361)" fill-opacity="1"/></g><g><path d="M21.93207,5.27243L20.89707,5.01343L20.89684,5.01338Q20.19135,4.83706,19.67714,4.32286Q19.16294,3.80865,18.986620000000002,3.103155L18.72756,2.067932Q18.69135,1.923211,18.60251,1.803364Q18.51367,1.6835179999999998,18.38572,1.606792Q18.25778,1.5300669999999998,18.110219999999998,1.508143Q17.96265,1.486219,17.81793,1.522435Q17.71907,1.547173,17.6304,1.5973920000000001Q17.54173,1.647612,17.46967,1.71967Q17.39761,1.7917290000000001,17.34739,1.8804020000000001Q17.29717,1.969076,17.27243,2.067934L17.01344,3.102934Q16.83715,3.80856,16.32317,4.32275Q15.809190000000001,4.83694,15.103919,5.01344L14.068099,5.27239Q13.996436,5.29031,13.929645,5.32186Q13.862854,5.35341,13.803502,5.39739Q13.74415,5.44137,13.694518,5.49608Q13.644886,5.55079,13.60688,5.614129999999999Q13.568875,5.67747,13.543958,5.7470099999999995Q13.51904,5.816549999999999,13.508168,5.889609999999999Q13.497296,5.962680000000001,13.500887,6.03646Q13.504477,6.11024,13.522393,6.181900000000001Q13.547119,6.28081,13.59735,6.36952Q13.64758,6.45824,13.71967,6.53033Q13.791759,6.60242,13.880476,6.65265Q13.969192,6.70288,14.068097999999999,6.72761L15.104097,6.98661Q15.809190000000001,7.16306,16.32317,7.67725Q16.83715,8.19144,17.01336,8.89678L17.27243,9.93207Q17.30865,10.076789999999999,17.39749,10.19664Q17.48633,10.31648,17.61427,10.39321Q17.74222,10.46993,17.889780000000002,10.49186Q18.03735,10.51378,18.18207,10.47756Q18.280920000000002,10.45283,18.3696,10.40261Q18.45827,10.35239,18.53033,10.28033Q18.60239,10.208269999999999,18.65261,10.1196Q18.70283,10.03092,18.72756,9.93207L18.98657,8.89707Q19.16294,8.19135,19.67714,7.67714Q20.19135,7.16294,20.89684,6.98662L21.93207,6.72757Q22.07679,6.69135,22.196640000000002,6.60251Q22.31648,6.51367,22.39321,6.38573Q22.469929999999998,6.25778,22.491860000000003,6.11022Q22.51378,5.96265,22.47756,5.8179300000000005Q22.45283,5.71907,22.40261,5.6304Q22.35239,5.541729999999999,22.28033,5.46967Q22.20827,5.39761,22.1196,5.34739Q22.030920000000002,5.2971699999999995,21.93207,5.27243ZM19.39924,6Q18.977809999999998,5.74485,18.61648,5.38352Q18.255200000000002,5.02223,18.00006,4.600849999999999Q17.74509,5.02201,17.38405,5.38319Q17.02267,5.7447099999999995,16.60112,6.00001Q17.02269,6.2553,17.38405,6.61681Q17.74506,6.97797,18.00004,7.39915Q18.25517,6.97779,18.61648,6.61648Q18.977809999999998,6.25515,19.39924,6Z" fill-rule="evenodd" fill="url(#master_svg2_5813_08795)" fill-opacity="1"/></g><g><path d="M20.211570000000002,18.513010953674318Q20.18396,18.430110953674316,20.13804,18.355780953674316Q20.092109999999998,18.281450953674316,20.03033,18.219670953674317Q19.96855,18.15789095367432,19.89422,18.111960953674316Q19.81989,18.066040953674317,19.73699,18.038430953674315L18.55399,17.644430953674316Q17.84268,17.407320953674315,17.60551,16.695823953674317L17.211570000000002,15.513010953674316Q17.16443,15.371469953674316,17.06671,15.258743953674317Q16.969,15.146016953674316,16.83558,15.079265953674316Q16.70216,15.012514953674316,16.553350000000002,15.001900953674316Q16.40455,14.991287953674316,16.26301,15.038427953674317Q16.18011,15.066036953674317,16.10578,15.111962953674317Q16.03145,15.157887953674317,15.96967,15.219670953674317Q15.90789,15.281452953674316,15.86196,15.355783953674317Q15.81603,15.430113953674317,15.78843,15.513010953674316L15.39443,16.696010953674318Q15.15732,17.407320953674315,14.445823,17.644490953674318L13.26301,18.038430953674315Q13.121469,18.085570953674317,13.008743,18.183280953674316Q12.896016,18.281000953674315,12.829265,18.414420953674316Q12.762514,18.547840953674317,12.7519,18.696640953674315Q12.741287,18.845450953674316,12.788427,18.986990953674315Q12.816036,19.069890953674317,12.861962,19.144220953674317Q12.907887,19.218550953674317,12.96967,19.280330953674316Q13.031452,19.342110953674315,13.105783,19.388040953674317Q13.180113,19.433960953674315,13.26301,19.461570953674318L14.446011,19.855570953674317Q15.15732,20.092680953674318,15.39449,20.804180953674315L15.78843,21.986990953674315Q15.83557,22.128530953674314,15.93328,22.241260953674317Q16.031,22.353980953674316,16.16442,22.420730953674315Q16.29784,22.487480953674314,16.44664,22.498100953674317Q16.59545,22.508710953674317,16.73699,22.461570953674318Q16.81989,22.433960953674315,16.89422,22.388040953674317Q16.96855,22.342110953674315,17.03033,22.280330953674316Q17.092109999999998,22.218550953674317,17.13804,22.144220953674317Q17.18396,22.069890953674317,17.211570000000002,21.986990953674315L17.60557,20.803990953674315Q17.84268,20.092680953674318,18.55417,19.855510953674315L19.73699,19.461570953674318Q19.80707,19.438230953674317,19.87125,19.401660953674316Q19.93544,19.365100953674315,19.99125,19.316710953674317Q20.047069999999998,19.268330953674315,20.09238,19.209990953674318Q20.13768,19.151640953674317,20.17073,19.085580953674317Q20.203780000000002,19.019520953674316,20.223309999999998,18.948280953674317Q20.24284,18.877040953674317,20.2481,18.803360953674318Q20.25335,18.729670953674315,20.24413,18.656380953674315Q20.23491,18.583090953674315,20.211570000000002,18.513010953674318ZM17.39311,18.749990953674317Q16.84144,18.408520953674316,16.49999,17.856890953674316Q16.15852,18.408550953674315,15.60689,18.750010953674316Q16.158549999999998,19.091480953674317,16.50001,19.643110953674316Q16.84148,19.091440953674315,17.39311,18.749990953674317Z" fill-rule="evenodd" fill="url(#master_svg3_5813_08792)" fill-opacity="1"/></g></g></svg>