<svg xmlns="http://www.w3.org/2000/svg" xmlns:xlink="http://www.w3.org/1999/xlink" fill="none" version="1.1" width="24" height="24" viewBox="0 0 24 24"><defs><clipPath id="master_svg0_6113_03511"><rect x="-0.75" y="-0.75" width="25.5" height="25.5" rx="0"/></clipPath></defs><g clip-path="url(#master_svg0_6113_03511)"><path d="M9.25,12L9.25,16Q9.25,16.073867800000002,9.26441109,16.146316499999998Q9.27882212,16.2187653,9.3070904,16.2870111Q9.33535868,16.355257,9.37639785,16.4166765Q9.41743702,16.478096,9.46966994,16.5303297Q9.52190292,16.5825624,9.58332238,16.623601Q9.64474183,16.6646404,9.71298748,16.6929083Q9.78123312,16.7211761,9.85368228,16.7355881Q9.926131457,16.75,10,16.75L12,16.75Q13.139087700000001,16.75,13.9445438,15.9445438Q14.75,15.139087700000001,14.75,14Q14.75,12.860912299999999,13.9445438,12.0554562Q13.9163218,12.027234100000001,13.8876889,11.9999998Q13.9163172,11.9727705,13.9445438,11.9445438Q14.75,11.139087400000001,14.75,10Q14.75,8.86091256,13.9445438,8.0554564Q13.1390872,7.25,12,7.25L10,7.25Q9.926131457,7.25,9.85368228,7.26441109Q9.78123312,7.27882212,9.71298748,7.3070904Q9.64474183,7.33535868,9.58332238,7.37639785Q9.52190292,7.41743702,9.46966994,7.46966994Q9.41743702,7.52190292,9.37639785,7.58332238Q9.33535868,7.64474183,9.3070904,7.71298748Q9.27882212,7.78123312,9.26441109,7.85368228Q9.25,7.926131457,9.25,8L9.25,12ZM12.8838835,10.8838835Q12.517767,11.25,12,11.25L10.75,11.25L10.75,8.75L12,8.75Q12.517767,8.75,12.8838835,9.1161165Q13.25,9.482233,13.25,10Q13.25,10.517767,12.8838835,10.8838835ZM10.75,12.75L12,12.75Q12.517767,12.75,12.8838835,13.1161165Q13.25,13.482233,13.25,14Q13.25,14.517767,12.8838835,14.8838835Q12.517767,15.25,12,15.25L10.75,15.25L10.75,12.75Z" fill-rule="evenodd" fill="#000000" fill-opacity="1" style="mix-blend-mode:passthrough"/><path d="M4.26967,4.2696705Q2.25,6.28934,2.25,12Q2.25000107,17.710662,4.2696705999999995,19.730331Q6.289339099999999,21.75,12,21.75Q17.710663,21.75,19.730331,19.730331Q21.75,17.710663,21.75,12Q21.75,6.2893387999999995,19.730331,4.26967Q17.710662,2.25,12,2.25000095Q6.2893398000000005,2.25000095,4.26967,4.2696705ZM5.3303308000000005,18.669671Q3.75000095,17.089340999999997,3.75000095,12Q3.75,6.9106603,5.330330099999999,5.3303308000000005Q6.9106603,3.75000095,12,3.75000095Q17.089340999999997,3.75,18.669671,5.330330099999999Q20.25,6.9106593,20.25,12Q20.25,17.089342000000002,18.669671,18.669671Q17.089342000000002,20.25,12,20.25Q6.9106597999999995,20.25,5.3303308000000005,18.669671Z" fill-rule="evenodd" fill="#000000" fill-opacity="1" style="mix-blend-mode:passthrough"/></g></svg>