<svg xmlns="http://www.w3.org/2000/svg" xmlns:xlink="http://www.w3.org/1999/xlink" fill="none" version="1.1" width="24" height="24" viewBox="0 0 24 24"><defs><clipPath id="master_svg0_6111_03530"><rect x="-0.75" y="-0.75" width="25.5" height="25.5" rx="0"/></clipPath></defs><g clip-path="url(#master_svg0_6111_03530)"><path d="M2.25,5L2.25,19Q2.25,20.139088,3.05545646,20.944544Q3.86091292,21.75,5,21.75L19,21.75Q20.139088,21.75,20.944544,20.944544Q21.75,20.139088,21.75,19L21.75,5Q21.75,3.86091286,20.944544,3.05545646Q20.139088,2.25,19,2.25L5,2.25Q3.8609128,2.25,3.0554564,3.0554564Q2.25,3.86091292,2.25,5ZM5,20.25Q3.75,20.25,3.75,19L3.75,5Q3.75,3.75,5,3.75L19,3.75Q20.25,3.75,20.25,5L20.25,19Q20.25,20.25,19,20.25L5,20.25Z" fill-rule="evenodd" fill="#000000" fill-opacity="1" style="mix-blend-mode:passthrough"/><path d="M15.5302243,10.53022408Q15.635692599999999,10.42475596,15.6927714,10.28695521Q15.7498503,10.14915445,15.7498503,10Q15.7498503,9.926146217,15.735441699999999,9.85371152Q15.7210331,9.78127682,15.6927705,9.71304482Q15.6645079,9.64481282,15.623477000000001,9.58340567Q15.5824461,9.52199849,15.5302238,9.46977597Q15.4780011,9.41755348,15.416594,9.37652254Q15.3551865,9.33549154,15.2869549,9.30722892Q15.2187228,9.27896631,15.1462879,9.2645582Q15.0738535,9.25014997,15,9.25014997Q14.8508453,9.25015002,14.7130446,9.30722892Q14.5752439,9.36430788,14.4697757,9.46977592L14.4696698,9.46966994L11,12.9393396L9.53033006,11.4696699L9.53022403,11.4697759Q9.42475593,11.3643079,9.28695518,11.3072289Q9.14915444,11.25015,9,11.25015Q8.926146217,11.25015,8.85371152,11.2645581Q8.78127682,11.2789662,8.71304482,11.3072288Q8.64481282,11.3354914,8.58340567,11.3765224Q8.52199849,11.4175534,8.46977597,11.4697759Q8.41755348,11.5219984,8.37652254,11.5834055Q8.33549154,11.6448126,8.30722892,11.7130446Q8.27896631,11.7812766,8.2645582,11.8537114Q8.25014997,11.926146,8.25014997,12Q8.25014997,12.1491544,8.30722892,12.2869554Q8.36430788,12.4247561,8.46977603,12.5302241L8.46966994,12.5303302L10.4696699,14.5303302Q10.5751591,14.635819399999999,10.7129874,14.6929102Q10.8508155,14.750000499999999,10.9999999,14.750000499999999Q11.1491842,14.75,11.2870126,14.692909700000001Q11.4248409,14.635819399999999,11.5303302,14.5303302L15.5303302,10.53033006L15.5302243,10.53022408Z" fill-rule="evenodd" fill="#000000" fill-opacity="1" style="mix-blend-mode:passthrough"/></g></svg>