<svg xmlns="http://www.w3.org/2000/svg" xmlns:xlink="http://www.w3.org/1999/xlink" fill="none" version="1.1" width="24" height="24" viewBox="0 0 24 24"><defs><clipPath id="master_svg0_5851_03411"><rect x="0" y="0" width="24" height="24" rx="0"/></clipPath></defs><g clip-path="url(#master_svg0_5851_03411)"><g></g><g><path d="M6.3354099999999995,10.670819999999999Q6.42884,10.624103,6.50596,10.553631Q6.58307,10.48316,6.63799,10.394298Q6.6929099999999995,10.305437,6.72145,10.20495Q6.75,10.104463,6.75,10Q6.75,9.9261315,6.73559,9.853682Q6.72118,9.781233,6.6929099999999995,9.712987Q6.66464,9.644742,6.6236,9.583322Q6.58256,9.521903,6.53033,9.46967Q6.4780999999999995,9.417437,6.4166799999999995,9.376398Q6.3552599999999995,9.335359,6.28701,9.30709Q6.21877,9.278822,6.146319999999999,9.264410999999999Q6.073869999999999,9.25,6,9.25Q5.8229500000000005,9.25,5.6645900000000005,9.329180000000001L3.66459,10.32918Q3.5557309999999998,10.383609,3.46967,10.46967Q3.383609,10.555731,3.32918,10.66459Q3.296145,10.73066,3.276634,10.801905Q3.257123,10.87315,3.251887,10.946833Q3.246651,11.02052,3.255889,11.0938Q3.265128,11.16709,3.288488,11.23717Q3.311847,11.30725,3.348429,11.37142Q3.385011,11.4356,3.43341,11.4914Q3.481808,11.54721,3.540164,11.5925Q3.59852,11.63779,3.66459,11.670819999999999L11.66459,15.670819999999999Q11.7427,15.709869999999999,11.82769,15.72994Q11.91267,15.75,12,15.75Q12.08733,15.75,12.17231,15.72994Q12.2573,15.709869999999999,12.33541,15.670819999999999L20.3354,11.670819999999999Q20.4443,11.616389999999999,20.5303,11.53033Q20.6164,11.44427,20.6708,11.33541Q20.7039,11.26934,20.7234,11.19809Q20.7429,11.12685,20.7481,11.05317Q20.7533,10.979484,20.7441,10.906195Q20.7349,10.832907,20.7115,10.762829Q20.6882,10.692751,20.6516,10.628577Q20.615,10.564403,20.5666,10.508599Q20.5182,10.452794,20.4598,10.407504Q20.4015,10.362215,20.3354,10.32918L18.336100000000002,9.329521L18.3354,9.329180000000001Q18.1771,9.25,18,9.25Q17.926099999999998,9.25,17.8537,9.264410999999999Q17.7812,9.278822,17.713,9.30709Q17.6447,9.335359,17.5833,9.376398Q17.521900000000002,9.417437,17.4697,9.46967Q17.4174,9.521903,17.3764,9.583322Q17.3354,9.644742,17.3071,9.712987Q17.2788,9.781233,17.264400000000002,9.853682Q17.25,9.9261315,17.25,10Q17.25,10.104463,17.2785,10.20495Q17.3071,10.305437,17.362000000000002,10.394298Q17.4169,10.48316,17.494,10.553631Q17.571199999999997,10.624103,17.6646,10.670819999999999L18.3229,11L12,14.16147L5.6770499999999995,11L6.3354099999999995,10.670819999999999L6.3354099999999995,10.670819999999999Z" fill-rule="evenodd" fill="#000000" fill-opacity="1" style="mix-blend-mode:passthrough"/></g><g><path d="M4.335631,14.32929L12,18.16147L19.6643,14.329322L19.6646,14.329180000000001Q19.8229,14.25,20,14.25Q20.0739,14.25,20.1463,14.264410999999999Q20.2188,14.278822,20.287,14.30709Q20.3553,14.335359,20.4167,14.376398Q20.4781,14.417437,20.5303,14.46967Q20.5826,14.521903,20.6236,14.583322Q20.6646,14.644742,20.6929,14.712987Q20.7212,14.781233,20.7356,14.853682Q20.75,14.9261315,20.75,15Q20.75,15.104463,20.7215,15.20495Q20.6929,15.305437,20.638,15.394298Q20.5831,15.483159,20.506,15.553631Q20.4288,15.624103,20.3354,15.670819999999999L12.33541,19.67082Q12.2573,19.70987,12.17231,19.72994Q12.08733,19.75,12,19.75Q11.91267,19.75,11.82769,19.72994Q11.7427,19.70987,11.66459,19.67082L3.664811,15.670931L3.66459,15.670819999999999Q3.571155,15.624103,3.494043,15.553631Q3.416931,15.48316,3.362012,15.394298Q3.307093,15.305437,3.278546,15.20495Q3.25,15.104463,3.25,15Q3.25,14.9261315,3.264411,14.853682Q3.278822,14.781233,3.30709,14.712987Q3.335359,14.644742,3.376398,14.583322Q3.417437,14.521903,3.46967,14.46967Q3.521903,14.417437,3.583322,14.376398Q3.644742,14.335359,3.712987,14.30709Q3.781233,14.278822,3.853682,14.264410999999999Q3.9261315,14.25,4,14.25Q4.177051,14.25,4.3354099999999995,14.329180000000001L4.335631,14.32929Z" fill-rule="evenodd" fill="#000000" fill-opacity="1" style="mix-blend-mode:passthrough"/></g><g><path d="M11.25,4Q11.25,3.9261315,11.264410999999999,3.853682Q11.278822,3.781233,11.30709,3.712987Q11.335359,3.644742,11.376398,3.583322Q11.417437,3.521903,11.46967,3.46967Q11.521903,3.417437,11.583322,3.376398Q11.644742,3.335359,11.712987,3.30709Q11.781233,3.278822,11.853682,3.264411Q11.9261315,3.25,12,3.25Q12.0738685,3.25,12.146318,3.264411Q12.218767,3.278822,12.287013,3.30709Q12.355258,3.335359,12.416678,3.376398Q12.478097,3.417437,12.53033,3.46967Q12.582563,3.521903,12.623602,3.583322Q12.664641,3.644742,12.69291,3.712987Q12.721178,3.781233,12.735589000000001,3.853682Q12.75,3.9261315,12.75,4L12.75,11Q12.75,11.07387,12.735589000000001,11.14632Q12.721178,11.21877,12.69291,11.28701Q12.664641,11.355260000000001,12.623602,11.41668Q12.582563,11.478100000000001,12.53033,11.53033Q12.478097,11.58256,12.416678,11.6236Q12.355258,11.66464,12.287013,11.692910000000001Q12.218767,11.72118,12.146318,11.73559Q12.0738685,11.75,12,11.75Q11.9261315,11.75,11.853682,11.73559Q11.781233,11.72118,11.712987,11.692910000000001Q11.644742,11.66464,11.583322,11.6236Q11.521903,11.58256,11.46967,11.53033Q11.417437,11.478100000000001,11.376398,11.41668Q11.335359,11.355260000000001,11.30709,11.28701Q11.278822,11.21877,11.264410999999999,11.14632Q11.25,11.07387,11.25,11L11.25,4Z" fill-rule="evenodd" fill="#000000" fill-opacity="1" style="mix-blend-mode:passthrough"/></g><g><path d="M9.530484,7.469824L12,9.93934L14.46921,7.4701319999999996L14.46967,7.46967Q14.57516,7.364181,14.71299,7.30709Q14.850819999999999,7.25,15,7.25Q15.07387,7.25,15.14632,7.264411Q15.21877,7.278822,15.28701,7.30709Q15.355260000000001,7.335359,15.41668,7.376398Q15.478100000000001,7.417437,15.53033,7.46967Q15.58256,7.521903,15.6236,7.583322Q15.66464,7.644742,15.692910000000001,7.712987Q15.72118,7.781233,15.73559,7.853682Q15.75,7.9261315,15.75,8Q15.75,8.149184,15.692910000000001,8.287013Q15.635819999999999,8.424841,15.53033,8.53033L15.529869999999999,8.530792L12.53033,11.53033Q12.42484,11.635819999999999,12.28701,11.69291Q12.14918,11.75,12,11.75Q11.85082,11.75,11.71299,11.69291Q11.57516,11.635819999999999,11.46967,11.53033L8.46967,8.53033Q8.364181,8.424841,8.30709,8.287013Q8.25,8.149184,8.25,8Q8.25,7.9261315,8.264410999999999,7.853682Q8.278822,7.781233,8.30709,7.712987Q8.335359,7.644742,8.376398,7.583322Q8.417437,7.521903,8.46967,7.46967Q8.521903,7.417437,8.583322,7.376398Q8.644742,7.335359,8.712987,7.30709Q8.781233,7.278822,8.853682,7.264411Q8.9261315,7.25,9,7.25Q9.149184,7.25,9.287013,7.30709Q9.424841,7.364181,9.53033,7.46967L9.530484,7.469824Z" fill-rule="evenodd" fill="#000000" fill-opacity="1" style="mix-blend-mode:passthrough"/></g></g></svg>