<svg xmlns="http://www.w3.org/2000/svg" xmlns:xlink="http://www.w3.org/1999/xlink" fill="none" version="1.1" width="24" height="24" viewBox="0 0 24 24"><defs><clipPath id="master_svg0_5783_09146"><rect x="0" y="0" width="24" height="24" rx="0"/></clipPath></defs><g clip-path="url(#master_svg0_5783_09146)"><g></g><g><path d="M11.999999969482422,17.749999378204343L5.827999969482422,20.994999378204344L7.006999969482422,14.121999378204345L2.006999969482422,9.254999378204346L8.906999969482422,8.254999378204346L11.992999969482423,2.0019993782043457L15.078999969482421,8.254999378204346L21.978999969482423,9.254999378204346L16.978999969482423,14.121999378204345L18.15799996948242,20.994999378204344L11.999999969482422,17.749999378204343Z" fill="#000000" fill-opacity="1"/><path d="M11.999599969482421,18.597599378204347L17.808399969482423,21.658499378204347Q17.917999969482423,21.716299378204347,18.040299969482422,21.735699378204345Q18.16269996948242,21.755199378204345,18.28479996948242,21.734199378204345Q18.431799969482423,21.708999378204346,18.55799996948242,21.629399378204347Q18.68419996948242,21.549799378204344,18.770399969482423,21.427999378204344Q18.85649996948242,21.306199378204347,18.889499969482422,21.160699378204345Q18.922399969482424,21.015199378204347,18.897199969482422,20.868199378204345L17.784899969482424,14.384199378204345L22.502099969482423,9.792429378204346Q22.59089996948242,9.705999378204346,22.647199969482422,9.595599378204346Q22.703499969482422,9.485199378204346,22.721199969482424,9.362569378204345Q22.742599969482423,9.214929378204346,22.70589996948242,9.070339378204345Q22.66919996948242,8.925749378204346,22.579899969482423,8.806219378204347Q22.49059996948242,8.686689378204346,22.36239996948242,8.610419378204345Q22.23419996948242,8.534149378204345,22.08659996948242,8.512749378204346L15.576999969482422,7.569329378204346L12.665599969482422,1.6700783782043458Q12.610799969482422,1.5591443782043457,12.523299969482421,1.4716693782043457Q12.435899969482422,1.3841943782043455,12.324899969482422,1.3294453782043458Q12.191099969482423,1.2634223782043457,12.042299969482421,1.2536203782043458Q11.893419969482421,1.2438173782043456,11.752139969482421,1.2917283782043456Q11.610849969482421,1.3396393782043456,11.498659969482421,1.4379693782043457Q11.386469969482421,1.5362993782043457,11.320449969482421,1.6700783782043458L8.409029969482422,7.569329378204346L1.8994279694824219,8.512749378204346Q1.776796969482422,8.530529378204346,1.666398969482422,8.586799378204347Q1.556000969482422,8.643069378204345,1.4695699694824218,8.731869378204346Q1.418045969482422,8.784799378204346,1.3778379694824219,8.846759378204347Q1.3376309694824218,8.908729378204345,1.310284969482422,8.977349378204345Q1.282938969482422,9.045969378204346,1.269505969482422,9.118609378204345Q1.256072969482422,9.191249378204347,1.2570679694824218,9.265109378204347Q1.2580639694824218,9.338969378204347,1.2734499694824217,9.411219378204347Q1.2888359694824219,9.483469378204346,1.3180219694824218,9.551319378204346Q1.3472069694824218,9.619179378204347,1.389069969482422,9.680039378204345Q1.430933969482422,9.740899378204347,1.4838659694824219,9.792429378204346L6.201069969482422,14.384199378204345L5.088799969482421,20.868199378204345Q5.067879969482422,20.990099378204345,5.087229969482422,21.112299378204344Q5.106589969482422,21.234499378204347,5.164159969482422,21.343999378204344Q5.198529969482422,21.409399378204345,5.245009969482422,21.466799378204346Q5.291479969482422,21.524199378204347,5.348259969482422,21.571499378204347Q5.405039969482422,21.618699378204347,5.469939969482422,21.653999378204347Q5.534849969482422,21.689299378204346,5.605389969482422,21.711199378204345Q5.6759299694824215,21.733099378204347,5.749389969482422,21.740899378204347Q5.822849969482422,21.748599378204347,5.896409969482422,21.741899378204344Q5.969969969482422,21.735099378204346,6.040809969482422,21.714199378204345Q6.111639969482422,21.693199378204344,6.177019969482422,21.658799378204346L11.999599969482421,18.597599378204347ZM17.16149996948242,19.622199378204346L12.349599969482421,17.086499378204344Q12.268899969482423,17.043899378204344,12.180299969482421,17.021999378204345Q12.091599969482422,16.999999378204343,12.000349969482421,16.999999378204343Q11.909059969482422,16.999999378204343,11.820419969482423,17.021799378204346Q11.731779969482423,17.043699378204344,11.650979969482423,17.086199378204345L6.824149969482422,19.623899378204346L7.746199969482422,14.248799378204346Q7.761629969482422,14.158799378204346,7.7550399694824215,14.067799378204345Q7.748449969482422,13.976799378204346,7.720209969482422,13.889999378204346Q7.691979969482422,13.803199378204345,7.643759969482422,13.725699378204345Q7.595529969482422,13.648199378204346,7.530129969482422,13.584599378204345L3.620559969482422,9.778989378204345L9.014569969482423,8.997239378204345Q9.104859969482423,8.984159378204346,9.189379969482422,8.949809378204346Q9.273909969482421,8.915459378204346,9.347729969482423,8.861839378204346Q9.421549969482422,8.808229378204345,9.480359969482421,8.738479378204346Q9.539179969482422,8.668739378204346,9.579549969482422,8.586919378204346L11.992999969482423,3.6966793782043457L14.406399969482422,8.586919378204346Q14.446799969482422,8.668739378204346,14.505599969482422,8.738479378204346Q14.564499969482421,8.808229378204345,14.638299969482421,8.861839378204346Q14.712099969482422,8.915459378204346,14.796599969482422,8.949809378204346Q14.881099969482422,8.984159378204346,14.971399969482421,8.997239378204345L20.36539996948242,9.778989378204345L16.455899969482424,13.584599378204345Q16.39049996948242,13.648199378204346,16.342199969482422,13.725699378204345Q16.29399996948242,13.803199378204345,16.265799969482423,13.889999378204346Q16.237599969482424,13.976799378204346,16.230999969482422,14.067799378204345Q16.22439996948242,14.158799378204346,16.23979996948242,14.248799378204346L17.16149996948242,19.622199378204346Z" fill-rule="evenodd" fill="#000000" fill-opacity="1" style="mix-blend-mode:passthrough"/></g></g></svg>