<svg xmlns="http://www.w3.org/2000/svg" xmlns:xlink="http://www.w3.org/1999/xlink" fill="none" version="1.1" width="32" height="32" viewBox="0 0 32 32"><defs><clipPath id="master_svg0_5881_02743"><rect x="0" y="0" width="32" height="32" rx="0"/></clipPath><filter id="master_svg1_5881_02749" filterUnits="objectBoundingBox" color-interpolation-filters="sRGB" x="0" y="0" width="1" height="1"><feFlood flood-opacity="0" result="BackgroundImageFix"/><feBlend mode="normal" in="SourceGraphic" in2="BackgroundImageFix" result="shape"/><feColorMatrix in="SourceAlpha" type="matrix" result="hardAlpha" values="0 0 0 0 0 0 0 0 0 0 0 0 0 0 0 0 0 0 127 0"/><feOffset dy="-2" dx="0"/><feGaussianBlur stdDeviation="2"/><feComposite in2="hardAlpha" operator="arithmetic" k2="-1" k3="1"/><feColorMatrix type="matrix" values="0 0 0 0 1 0 0 0 0 1 0 0 0 0 1 0 0 0 0.20000000298023224 0"/><feBlend mode="normal" in2="shape" result="effect1_innerShadow"/></filter><linearGradient x1="0.6818181872367859" y1="0.27776238322257996" x2="0.6818181872367859" y2="1.1830095052719116" id="master_svg2_5881_02820"><stop offset="0%" stop-color="#FFFFFF" stop-opacity="1"/><stop offset="40.104201436042786%" stop-color="#FFFFFF" stop-opacity="0.8500000238418579"/><stop offset="100%" stop-color="#FFFFFF" stop-opacity="0.5"/></linearGradient></defs><g clip-path="url(#master_svg0_5881_02743)"><g filter="url(#master_svg1_5881_02749)"><g transform="matrix(0.916670024394989,0,0,0.916670024394989,0.4965095726254276,0.4965095726254276)"><path d="M10.958354949951172,9.958354949951172L10.958354949951172,7.958354949951172C10.958354949951172,6.853784949951172,11.853784949951173,5.958354949951172,12.958354949951172,5.958354949951172L20.958354949951172,5.958354949951172C22.062954949951173,5.958354949951172,22.958354949951172,6.853784949951172,22.958354949951172,7.958354949951172L22.958354949951172,9.958354949951172L25.958354949951172,9.958354949951172C27.062954949951173,9.958354949951172,27.958354949951172,10.853784949951173,27.958354949951172,11.958354949951172L27.958354949951172,24.958354949951172C27.958354949951172,26.062954949951173,27.062954949951173,26.958354949951172,25.958354949951172,26.958354949951172L7.958354949951172,26.958354949951172C6.853784949951172,26.958354949951172,5.958354949951172,26.062954949951173,5.958354949951172,24.958354949951172L5.958354949951172,11.958354949951172C5.958354949951172,10.853784949951173,6.853784949951172,9.958354949951172,7.958354949951172,9.958354949951172L10.958354949951172,9.958354949951172ZM12.958354949951172,7.958354949951172L12.958354949951172,9.958354949951172L20.958354949951172,9.958354949951172L20.958354949951172,7.958354949951172L12.958354949951172,7.958354949951172ZM10.958354949951172,20.958354949951172C10.958354949951172,21.510654949951174,11.406074949951172,21.958354949951172,11.958354949951172,21.958354949951172C12.510634949951172,21.958354949951172,12.958354949951172,21.510654949951174,12.958354949951172,20.958354949951172L12.958354949951172,15.958354949951172C12.958354949951172,15.406064949951173,12.510634949951172,14.958354949951172,11.958354949951172,14.958354949951172C11.406074949951172,14.958354949951172,10.958354949951172,15.406064949951173,10.958354949951172,15.958354949951172L10.958354949951172,20.958354949951172ZM20.958354949951172,15.958354949951172L20.958354949951172,20.958354949951172C20.958354949951172,21.510654949951174,21.40605494995117,21.958354949951172,21.958354949951172,21.958354949951172C22.51065494995117,21.958354949951172,22.958354949951172,21.510654949951174,22.958354949951172,20.958354949951172L22.958354949951172,15.958354949951172C22.958354949951172,15.406064949951173,22.51065494995117,14.958354949951172,21.958354949951172,14.958354949951172C21.40605494995117,14.958354949951172,20.958354949951172,15.406064949951173,20.958354949951172,15.958354949951172Z" fill="url(#master_svg2_5881_02820)" fill-opacity="1" style="mix-blend-mode:passthrough"/></g></g></g></svg>