<svg xmlns="http://www.w3.org/2000/svg" xmlns:xlink="http://www.w3.org/1999/xlink" fill="none" version="1.1" width="24" height="24" viewBox="0 0 24 24"><defs><clipPath id="master_svg0_5424_07227"><rect x="0" y="0" width="24" height="24" rx="0"/></clipPath><clipPath id="master_svg1_5424_07180"><rect x="3" y="3" width="18" height="18" rx="0"/></clipPath><clipPath id="master_svg2_5424_07169"><rect x="14" y="13" width="8" height="8" rx="0"/></clipPath><linearGradient x1="0.5000007748603821" y1="8.326672684688674e-17" x2="0.5000007748603821" y2="0.9999988675117493" id="master_svg3_5424_07173"><stop offset="0%" stop-color="#FFD36E" stop-opacity="1"/><stop offset="100%" stop-color="#F6B828" stop-opacity="1"/></linearGradient><linearGradient x1="0.5000002980232239" y1="-4.440892098500626e-16" x2="0.5000002980232239" y2="1.9012216329574585" id="master_svg4_5424_07176"><stop offset="0%" stop-color="#F6B828" stop-opacity="1"/><stop offset="100%" stop-color="#C88509" stop-opacity="1"/></linearGradient><linearGradient x1="0.5000002980232239" y1="-3.3306690738754696e-15" x2="0.5000002980232239" y2="2.1515469551086426" id="master_svg5_5424_07179"><stop offset="0%" stop-color="#F6B828" stop-opacity="1"/><stop offset="100%" stop-color="#C88509" stop-opacity="1"/></linearGradient></defs><g><g clip-path="url(#master_svg0_5424_07227)"></g><g><g clip-path="url(#master_svg1_5424_07180)"><g><g><path d="M9.375,6L7.875,4.5L4.125,4.5C3.710625,4.5,3.375,4.835625,3.375,5.25L3.375,18C3.375,18.828400000000002,4.046625,19.5,4.875,19.5L19.125,19.5C19.9534,19.5,20.625,18.828400000000002,20.625,18L20.625,7.5C20.625,6.67163,19.9534,6,19.125,6L9.375,6Z" fill="#FF5C6C" fill-opacity="1"/></g><g><path d="M20.625,8.25L3.375,8.25L3.375,5.25C3.375,4.835625,3.710625,4.5,4.125,4.5L7.875,4.5L9.375,6L19.125,6C19.9534,6,20.625,6.67163,20.625,7.5L20.625,8.25Z" fill="#D04B58" fill-opacity="1"/></g></g></g><g clip-path="url(#master_svg2_5424_07169)"><g><g><path d="M21.422669431610107,17.020944776382446L17.78466943161011,13.382938076382446C17.75349943161011,13.351604776382446,17.71099943161011,13.334104776382446,17.666839431610107,13.334104776382446L14.500166431610108,13.334104776382446C14.408166131610107,13.334104776382446,14.333499431610107,13.408771476382446,14.333499431610107,13.500771776382447L14.333499431610107,16.667444776382446C14.333499431610107,16.711614776382447,14.350999431610107,16.754114776382448,14.382332731610108,16.785284776382447L18.020339431610108,20.423284776382445C18.345999431610107,20.748114776382447,18.87316943161011,20.748114776382447,19.198839431610107,20.423284776382445L21.422669431610107,18.199444776382446C21.74816943161011,17.873944776382444,21.74816943161011,17.346444776382448,21.422669431610107,17.020944776382446ZM16.333499431610107,16.000784776382446C15.965339431610108,16.000784776382446,15.666839431610107,15.702284776382447,15.666839431610107,15.334114776382446C15.666839431610107,14.965944776382447,15.965339431610108,14.667444776382446,16.333499431610107,14.667444776382446C16.701669431610107,14.667444776382446,17.000169431610107,14.965944776382447,17.000169431610107,15.334114776382446C17.000169431610107,15.702284776382447,16.701669431610107,16.000784776382446,16.333499431610107,16.000784776382446Z" fill="url(#master_svg3_5424_07173)" fill-opacity="1"/></g><g><path d="M18.617837498016357,18.617823526382445C18.55283749801636,18.682823526382446,18.447167498016356,18.682823526382446,18.382167498016358,18.617823526382445L17.048834998016357,17.284490526382445C16.984835098016358,17.218323526382445,16.986668398016356,17.112823526382446,17.05300189801636,17.048823326382447C17.117668498016357,16.986490126382446,17.22000149801636,16.986490126382446,17.284501498016358,17.048823326382447L18.617837498016357,18.382153526382446C18.682837498016358,18.447153526382447,18.682837498016358,18.552823526382447,18.617837498016357,18.617823526382445Z" fill="url(#master_svg4_5424_07176)" fill-opacity="1"/></g><g><path d="M19.617837498016357,17.617823526382445C19.55283749801636,17.682823526382446,19.447167498016356,17.682823526382446,19.382167498016358,17.617823526382445L18.048834998016357,16.284490526382445C17.984835098016358,16.218323526382445,17.986668398016356,16.112823526382446,18.05300189801636,16.048823326382447C18.117668498016357,15.986490126382446,18.22000149801636,15.986490126382446,18.284501498016358,16.048823326382447L19.617837498016357,17.382153526382446C19.682837498016358,17.447153526382447,19.682837498016358,17.552823526382447,19.617837498016357,17.617823526382445Z" fill="url(#master_svg5_5424_07179)" fill-opacity="1"/></g></g></g></g></g></svg>