<svg xmlns="http://www.w3.org/2000/svg" xmlns:xlink="http://www.w3.org/1999/xlink" fill="none" version="1.1" width="24" height="24" viewBox="0 0 24 24"><defs><clipPath id="master_svg0_5566_09258"><rect x="0" y="0" width="24" height="24" rx="0"/></clipPath></defs><g clip-path="url(#master_svg0_5566_09258)"><g><path d="M6,8.25L12,8.25Q12.07387,8.25,12.14632,8.264410999999999Q12.21877,8.278822,12.28701,8.30709Q12.355260000000001,8.335359,12.41668,8.376398Q12.478100000000001,8.417437,12.53033,8.46967Q12.58256,8.521903,12.6236,8.583322Q12.66464,8.644742,12.692910000000001,8.712987Q12.72118,8.781233,12.73559,8.853682Q12.75,8.9261315,12.75,9Q12.75,9.0738685,12.73559,9.146318Q12.72118,9.218767,12.692910000000001,9.287013Q12.66464,9.355258,12.6236,9.416678Q12.58256,9.478097,12.53033,9.53033Q12.478100000000001,9.582563,12.41668,9.623602Q12.355260000000001,9.664641,12.28701,9.69291Q12.21877,9.721178,12.14632,9.735589000000001Q12.07387,9.75,12,9.75L6,9.75Q5.9261315,9.75,5.853682,9.735589000000001Q5.781233,9.721178,5.712987,9.69291Q5.644742,9.664641,5.583322,9.623602Q5.521903,9.582563,5.46967,9.53033Q5.417437,9.478097,5.376398,9.416678Q5.335359,9.355258,5.30709,9.287013Q5.278822,9.218767,5.264411,9.146318Q5.25,9.0738685,5.25,9Q5.25,8.9261315,5.264411,8.853682Q5.278822,8.781233,5.30709,8.712987Q5.335359,8.644742,5.376398,8.583322Q5.417437,8.521903,5.46967,8.46967Q5.521903,8.417437,5.583322,8.376398Q5.644742,8.335359,5.712987,8.30709Q5.781233,8.278822,5.853682,8.264410999999999Q5.9261315,8.25,6,8.25Z" fill-rule="evenodd" fill="#000000" fill-opacity="1" style="mix-blend-mode:passthrough"/></g><g><path d="M4,4.25L8,4.25Q8.07387,4.25,8.14632,4.264411Q8.21877,4.278822,8.28701,4.30709Q8.355260000000001,4.335359,8.41668,4.376398Q8.478100000000001,4.417437,8.53033,4.46967Q8.58256,4.521903,8.6236,4.583322Q8.66464,4.644742,8.692910000000001,4.712987Q8.72118,4.781233,8.73559,4.853682Q8.75,4.9261315,8.75,5Q8.75,5.0738685,8.73559,5.146318Q8.72118,5.218767,8.692910000000001,5.287013Q8.66464,5.355258,8.6236,5.416678Q8.58256,5.478097,8.53033,5.53033Q8.478100000000001,5.582563,8.41668,5.623602Q8.355260000000001,5.664641,8.28701,5.69291Q8.21877,5.721178,8.14632,5.735589Q8.07387,5.75,8,5.75L4,5.75Q3.9261315,5.75,3.853682,5.735589Q3.781233,5.721178,3.712987,5.69291Q3.644742,5.664641,3.583322,5.623602Q3.521903,5.582563,3.46967,5.53033Q3.417437,5.478097,3.376398,5.416678Q3.335359,5.355258,3.30709,5.287013Q3.278822,5.218767,3.264411,5.146318Q3.25,5.0738685,3.25,5Q3.25,4.9261315,3.264411,4.853682Q3.278822,4.781233,3.30709,4.712987Q3.335359,4.644742,3.376398,4.583322Q3.417437,4.521903,3.46967,4.46967Q3.521903,4.417437,3.583322,4.376398Q3.644742,4.335359,3.712987,4.30709Q3.781233,4.278822,3.853682,4.264411Q3.9261315,4.25,4,4.25Z" fill-rule="evenodd" fill="#000000" fill-opacity="1" style="mix-blend-mode:passthrough"/></g><g><path d="M5.25,5Q5.25,4.9261315,5.264411,4.853682Q5.278822,4.781233,5.30709,4.712987Q5.335359,4.644742,5.376398,4.583322Q5.417437,4.521903,5.46967,4.46967Q5.521903,4.417437,5.583322,4.376398Q5.644742,4.335359,5.712987,4.30709Q5.781233,4.278822,5.853682,4.264411Q5.9261315,4.25,6,4.25Q6.0738685,4.25,6.146318,4.264411Q6.218767,4.278822,6.287013,4.30709Q6.355258,4.335359,6.416678,4.376398Q6.478097,4.417437,6.53033,4.46967Q6.582563,4.521903,6.623602,4.583322Q6.664641,4.644742,6.69291,4.712987Q6.721178,4.781233,6.735589,4.853682Q6.75,4.9261315,6.75,5L6.75,16Q6.75,16.25,7,16.25L12,16.25Q12.07387,16.25,12.14632,16.264400000000002Q12.21877,16.2788,12.28701,16.3071Q12.355260000000001,16.3354,12.41668,16.3764Q12.478100000000001,16.4174,12.53033,16.4697Q12.58256,16.521900000000002,12.6236,16.5833Q12.66464,16.6447,12.692910000000001,16.713Q12.72118,16.7812,12.73559,16.8537Q12.75,16.926099999999998,12.75,17Q12.75,17.073900000000002,12.73559,17.1463Q12.72118,17.2188,12.692910000000001,17.287Q12.66464,17.3553,12.6236,17.4167Q12.58256,17.478099999999998,12.53033,17.5303Q12.478100000000001,17.5826,12.41668,17.6236Q12.355260000000001,17.6646,12.28701,17.6929Q12.21877,17.7212,12.14632,17.735599999999998Q12.07387,17.75,12,17.75L7,17.75Q6.275126,17.75,5.762563,17.2374Q5.25,16.724899999999998,5.25,16L5.25,5Z" fill-rule="evenodd" fill="#000000" fill-opacity="1" style="mix-blend-mode:passthrough"/></g><g><path d="M11.25,8L11.25,10Q11.25,10.72487,11.762563,11.23744Q12.275126,11.75,13,11.75L19,11.75Q19.72487,11.75,20.23744,11.23744Q20.75,10.72487,20.75,10L20.75,8Q20.75,7.275126,20.23744,6.762563Q19.72487,6.25,19,6.25L13,6.25Q12.275126,6.25,11.762563,6.762563Q11.25,7.275126,11.25,8ZM12.823223,10.17678Q12.75,10.10355,12.75,10L12.75,8Q12.75,7.896446,12.823223,7.8232230000000005Q12.896446,7.75,13,7.75L19,7.75Q19.25,7.75,19.25,8L19.25,10Q19.25,10.25,19,10.25L13,10.25Q12.896446,10.25,12.823223,10.17678Z" fill-rule="evenodd" fill="#000000" fill-opacity="1" style="mix-blend-mode:passthrough"/></g><g><path d="M11.25,16L11.25,18Q11.25,18.72487,11.762563,19.23744Q12.275126,19.75,13,19.75L19,19.75Q19.72487,19.75,20.23744,19.23744Q20.75,18.72487,20.75,18L20.75,16Q20.75,15.275126,20.23744,14.762563Q19.72487,14.25,19,14.25L13,14.25Q12.275126,14.25,11.762563,14.762563Q11.25,15.275126,11.25,16ZM12.823223,18.17678Q12.75,18.10355,12.75,18L12.75,16Q12.75,15.896446,12.823223,15.823223Q12.896446,15.75,13,15.75L19,15.75Q19.25,15.75,19.25,16L19.25,18Q19.25,18.25,19,18.25L13,18.25Q12.896446,18.25,12.823223,18.17678Z" fill-rule="evenodd" fill="#000000" fill-opacity="1" style="mix-blend-mode:passthrough"/></g></g></svg>