<svg xmlns="http://www.w3.org/2000/svg" xmlns:xlink="http://www.w3.org/1999/xlink" fill="none" version="1.1" width="24" height="24" viewBox="0 0 24 24"><defs><clipPath id="master_svg0_5380_08151"><rect x="0" y="0" width="24" height="24" rx="0"/></clipPath><mask id="master_svg1_5380_05887" style="mask-type:alpha" maskUnits="userSpaceOnUse"><g><path d="M22.07054458618164,16.6536C21.75954458618164,15.38031,21.20804458618164,14.17821,20.44574458618164,13.11194C19.96274458618164,12.43423,19.39974458618164,11.81723,18.76894458618164,11.27432C18.36464458618164,10.92568,17.934044586181642,10.608730000000001,17.480944586181643,10.32631L17.492144586181638,10.30551L18.11614458618164,9.2295L18.72654458618164,8.17749L19.164144586181642,7.42228C19.39874458618164,6.972708,19.23794458618164,6.418164,18.79934458618164,6.163728C18.360744586181642,5.9092918,17.79954458618164,6.0450639,17.52574458618164,6.471865L17.08814458618164,7.22707L16.477744586181643,8.27829L15.85374458618164,9.3551L15.784944586181641,9.4735L15.690544586181641,9.4359C14.51164458618164,8.987359999999999,13.260644586181641,8.75826,11.999244586181641,8.75989L11.892864586181641,8.75989C10.64046458618164,8.7717,9.400614586181641,9.01077,8.23362458618164,9.4655L8.16962458618164,9.3559L7.545614586181641,8.27909L6.936004586181641,7.22707L6.497604586181641,6.471865C6.305574586181641,6.140544,5.932804586181641,5.9575965,5.55324458618164,6.00839177C5.173684586181641,6.0591871,4.862134586181641,6.333713,4.763984586181641,6.703868C4.699654586181641,6.946606,4.73417458618164,7.20495,4.859984586181641,7.42228L5.297584586181641,8.17829L5.9079945861816405,9.2295L6.532004586181641,10.30631L6.537604586181641,10.31511C4.954674586181641,11.29807,3.6644745861816403,12.68773,2.8015595861816407,14.33916C2.4190325861816406,15.07311,2.1262555861816406,15.85045,1.9295496861816406,16.654400000000003C1.7551475861816406,17.3632,2.3287545861816406,18,3.0591645861816406,18L20.938544586181642,18C21.66814458618164,18,22.244944586181642,17.3624,22.07054458618164,16.6536Z" fill="#FFFFFF" fill-opacity="1"/></g></mask><filter id="master_svg2_5380_05894" filterUnits="objectBoundingBox" color-interpolation-filters="sRGB" x="-1.6000186204910278" y="-1.6000186204910278" width="13.200408220291138" height="17.36736512184143"><feFlood flood-opacity="0" result="BackgroundImageFix"/><feBlend mode="normal" in="SourceGraphic" in2="BackgroundImageFix" result="shape"/><feGaussianBlur stdDeviation="0.40000465512275696" result="effect1_foregroundBlur"/></filter><linearGradient x1="0.16237343847751617" y1="0.29501280188560486" x2="0.47588545083999634" y2="0.4338126480579376" id="master_svg3_5380_08128"><stop offset="0%" stop-color="#A8F0B9" stop-opacity="1"/><stop offset="80.69999814033508%" stop-color="#ADEEBC" stop-opacity="0"/></linearGradient><filter id="master_svg4_5380_05898" filterUnits="objectBoundingBox" color-interpolation-filters="sRGB" x="-1.6000186204910278" y="-1.6000186204910278" width="13.709298372268677" height="16.588340044021606"><feFlood flood-opacity="0" result="BackgroundImageFix"/><feBlend mode="normal" in="SourceGraphic" in2="BackgroundImageFix" result="shape"/><feGaussianBlur stdDeviation="0.40000465512275696" result="effect1_foregroundBlur"/></filter><linearGradient x1="0.8376213312149048" y1="0.29497024416923523" x2="0.5437818169593811" y2="0.45594847202301025" id="master_svg5_5380_08129"><stop offset="29.199999570846558%" stop-color="#A8F0B9" stop-opacity="1"/><stop offset="82.8000009059906%" stop-color="#ADEEBC" stop-opacity="0"/></linearGradient><filter id="master_svg6_5380_05904" filterUnits="objectBoundingBox" color-interpolation-filters="sRGB" x="-30.1059513092041" y="-30.1059513092041" width="66.38689041137695" height="70.4194564819336"><feFlood flood-opacity="0" result="BackgroundImageFix"/><feBlend mode="normal" in="SourceGraphic" in2="BackgroundImageFix" result="shape"/><feGaussianBlur stdDeviation="7.526487827301025" result="effect1_foregroundBlur"/></filter><filter id="master_svg7_5380_05908" filterUnits="objectBoundingBox" color-interpolation-filters="sRGB" x="-30.1059513092041" y="-30.1059513092041" width="66.38688516616821" height="70.4194688796997"><feFlood flood-opacity="0" result="BackgroundImageFix"/><feBlend mode="normal" in="SourceGraphic" in2="BackgroundImageFix" result="shape"/><feGaussianBlur stdDeviation="7.526487827301025" result="effect1_foregroundBlur"/></filter><filter id="master_svg8_5380_05912" filterUnits="objectBoundingBox" color-interpolation-filters="sRGB" x="-40.141265869140625" y="-40.141265869140625" width="82.34855628013611" height="84.78095006942749"><feFlood flood-opacity="0" result="BackgroundImageFix"/><feBlend mode="normal" in="SourceGraphic" in2="BackgroundImageFix" result="shape"/><feGaussianBlur stdDeviation="10.035316467285156" result="effect1_foregroundBlur"/></filter><filter id="master_svg9_5380_05918" filterUnits="objectBoundingBox" color-interpolation-filters="sRGB" x="-10.035316467285156" y="-10.035316467285156" width="22.794001579284668" height="24.206342220306396"><feFlood flood-opacity="0" result="BackgroundImageFix"/><feBlend mode="normal" in="SourceGraphic" in2="BackgroundImageFix" result="shape"/><feGaussianBlur stdDeviation="2.508829116821289" result="effect1_foregroundBlur"/></filter><filter id="master_svga_5380_05922" filterUnits="objectBoundingBox" color-interpolation-filters="sRGB" x="-30.1059513092041" y="-30.1059513092041" width="63.475929737091064" height="63.533287525177"><feFlood flood-opacity="0" result="BackgroundImageFix"/><feBlend mode="normal" in="SourceGraphic" in2="BackgroundImageFix" result="shape"/><feGaussianBlur stdDeviation="7.526487827301025" result="effect1_foregroundBlur"/></filter><radialGradient cx="0" cy="0" r="1" gradientUnits="userSpaceOnUse" id="master_svgb_5380_08134" gradientTransform="translate(5.0383867611659525 6.550263732671738) rotate(163.31676455661574) scale(0.7023064434275628 0.5314160711367241)"><stop offset="0%" stop-color="#FFFFFF" stop-opacity="1"/><stop offset="94.80000138282776%" stop-color="#FFFFFF" stop-opacity="0"/></radialGradient><radialGradient cx="0" cy="0" r="1" gradientUnits="userSpaceOnUse" id="master_svgc_5380_08135" gradientTransform="translate(18.946552515029907 6.389461994171143) rotate(163.34033135341159) scale(0.7542273815642896 0.5465481100668003)"><stop offset="0%" stop-color="#FFFFFF" stop-opacity="1"/><stop offset="94.80000138282776%" stop-color="#FFFFFF" stop-opacity="0"/></radialGradient><filter id="master_svgd_5380_05932" filterUnits="objectBoundingBox" color-interpolation-filters="sRGB" x="-10.035316467285156" y="-10.035316467285156" width="22.727956295013428" height="24.24906349182129"><feFlood flood-opacity="0" result="BackgroundImageFix"/><feBlend mode="normal" in="SourceGraphic" in2="BackgroundImageFix" result="shape"/><feGaussianBlur stdDeviation="2.508829116821289" result="effect1_foregroundBlur"/></filter><mask id="master_svge_5380_05937" style="mask-type:alpha" maskUnits="userSpaceOnUse"><g><path d="M17.579328605194092,10.386312802772522C17.091328605194093,10.082302802772523,15.976114605194091,9.559102802772522,15.479308605194092,9.335892802772522L15.807312605194092,8.175082802772522L19.013748605194092,9.464702802772521C18.73854860519409,9.899102802772521,18.06733860519409,10.691112802772523,17.579328605194092,10.386312802772522Z" fill="#FFFFFF" fill-opacity="1"/></g></mask><filter id="master_svgf_5380_05941" filterUnits="objectBoundingBox" color-interpolation-filters="sRGB" x="-20.070632934570312" y="-20.070632934570312" width="43.30819249153137" height="41.530516505241394"><feFlood flood-opacity="0" result="BackgroundImageFix"/><feBlend mode="normal" in="SourceGraphic" in2="BackgroundImageFix" result="shape"/><feGaussianBlur stdDeviation="5.017658233642578" result="effect1_foregroundBlur"/></filter><filter id="master_svgg_5380_05945" filterUnits="objectBoundingBox" color-interpolation-filters="sRGB" x="-12.041740417480469" y="-12.041740417480469" width="24.969102025032043" height="24.546128123998642"><feFlood flood-opacity="0" result="BackgroundImageFix"/><feBlend mode="normal" in="SourceGraphic" in2="BackgroundImageFix" result="shape"/><feGaussianBlur stdDeviation="3.010435104370117" result="effect1_foregroundBlur"/></filter><mask id="master_svgh_5380_05950" style="mask-type:alpha" maskUnits="userSpaceOnUse"><g><path d="M6.315204796142578,10.483113593559265C6.796004796142578,10.168703593559265,7.900024796142578,9.623903593559266,8.392824796142579,9.389493593559266L8.040824796142578,8.235883593559265L4.862384796142578,9.591103593559264C5.145587796142578,10.019903593559265,5.833595796142578,10.797513593559266,6.315204796142578,10.483113593559265Z" fill="#FFFFFF" fill-opacity="1"/></g></mask><filter id="master_svgi_5380_05952" filterUnits="objectBoundingBox" color-interpolation-filters="sRGB" x="-20.070632934570312" y="-20.070632934570312" width="43.28063249588013" height="41.592496275901794"><feFlood flood-opacity="0" result="BackgroundImageFix"/><feBlend mode="normal" in="SourceGraphic" in2="BackgroundImageFix" result="shape"/><feGaussianBlur stdDeviation="5.017658233642578" result="effect1_foregroundBlur"/></filter><filter id="master_svgj_5380_05954" filterUnits="objectBoundingBox" color-interpolation-filters="sRGB" x="-12.041740417480469" y="-12.041740417480469" width="24.959837317466736" height="24.56187805533409"><feFlood flood-opacity="0" result="BackgroundImageFix"/><feBlend mode="normal" in="SourceGraphic" in2="BackgroundImageFix" result="shape"/><feGaussianBlur stdDeviation="3.010435104370117" result="effect1_foregroundBlur"/></filter><filter id="master_svgk_5380_05956" filterUnits="objectBoundingBox" color-interpolation-filters="sRGB" x="-40.141265869140625" y="-40.141265869140625" width="82.28201031684875" height="84.80975437164307"><feFlood flood-opacity="0" result="BackgroundImageFix"/><feBlend mode="normal" in="SourceGraphic" in2="BackgroundImageFix" result="shape"/><feGaussianBlur stdDeviation="10.035316467285156" result="effect1_foregroundBlur"/></filter><filter id="master_svgl_5380_05958" filterUnits="objectBoundingBox" color-interpolation-filters="sRGB" x="-30.1059513092041" y="-30.1059513092041" width="63.66679549217224" height="64.23552513122559"><feFlood flood-opacity="0" result="BackgroundImageFix"/><feBlend mode="normal" in="SourceGraphic" in2="BackgroundImageFix" result="shape"/><feGaussianBlur stdDeviation="7.526487827301025" result="effect1_foregroundBlur"/></filter><radialGradient cx="0" cy="0" r="1" gradientUnits="userSpaceOnUse" id="master_svgm_5380_08138" gradientTransform="translate(8.106016445026626 13.386861628604926) rotate(132.97300532326403) scale(0.2830352585997793 0.5152062579453829)"><stop offset="0%" stop-color="#93E19F" stop-opacity="1"/><stop offset="100%" stop-color="#93E19F" stop-opacity="0"/></radialGradient><radialGradient cx="0" cy="0" r="1" gradientUnits="userSpaceOnUse" id="master_svgn_5380_08139" gradientTransform="translate(16.959663922718057 13.27760542142212) rotate(47.0260597050839) scale(0.28278233354685045 0.5149659405015768)"><stop offset="0%" stop-color="#93E19F" stop-opacity="1"/><stop offset="100%" stop-color="#93E19F" stop-opacity="0"/></radialGradient><linearGradient x1="0.47015535831451416" y1="-0.3405563533306122" x2="0.5126737356185913" y2="0.955136775970459" id="master_svgo_5380_08141"><stop offset="0%" stop-color="#E2DDE2" stop-opacity="1"/><stop offset="100%" stop-color="#E2DDE2" stop-opacity="0"/></linearGradient><linearGradient x1="0.5002133846282959" y1="0.0036445679143071175" x2="0.5002133846282959" y2="1" id="master_svgp_5380_08142"><stop offset="0%" stop-color="#373637" stop-opacity="1"/><stop offset="100%" stop-color="#373637" stop-opacity="0"/></linearGradient></defs><g clip-path="url(#master_svg0_5380_08151)"><g mask="url(#master_svg1_5380_05887)"><g><g><path d="M22.42263221912384,5.621452907244919L0.41833221912384033,5.621452907244919L0.41833221912384033,18.00235288424492L22.42263221912384,18.00235288424492L22.42263221912384,5.620652884244919L22.42263221912384,5.621452907244919Z" fill="#4FAF53" fill-opacity="1"/></g><g filter="url(#master_svg2_5380_05894)"><g><path d="M11.58166596092224,10.283907366462708C13.668075960922241,11.939931366462707,7.788815960922241,12.123931366462708,5.5159959609222415,15.735971366462707C3.2439659609222415,19.34721136646271,5.061585960922241,25.626511366462708,2.9751629609222414,23.971311366462707C1.6863479609222412,21.989611366462707,1.4847449609222412,17.960001366462706,3.7575759609222414,14.347151366462708C6.029595960922241,10.735914366462708,9.800845960922242,9.548699366462708,11.573665960922241,10.283908366462708L11.58166596092224,10.283907366462708Z" fill="url(#master_svg3_5380_08128)" fill-opacity="0.4000000059604645"/></g></g><g filter="url(#master_svg4_5380_05898)"><g><path d="M12.48407339175415,10.27270792237091C10.29205139175415,11.83752992237091,16.47052139175415,12.01112992237091,18.85855139175415,15.42476992237091C21.246581391754148,18.83760992237091,19.33615139175415,24.77129992237091,21.52898139175415,23.20729992237091C22.883391391754152,21.33439992237091,23.09459139175415,17.52638992237091,20.706571391754153,14.11274992237091C18.318541391754152,10.69911192237091,14.35609139175415,9.57749892237091,12.49207439175415,10.272706922370912L12.48407339175415,10.27270792237091Z" fill="url(#master_svg5_5380_08129)" fill-opacity="0.4000000059604645"/></g></g><g style="opacity:0.6000000238418579;" filter="url(#master_svg6_5380_05904)"><g><path d="M0.5831332160949707,15.334370868415832C-0.2544757839050293,17.970390868415834,-0.6856807839050293,20.185650868415834,-0.3800772839050293,20.282450868415832C-0.07447378390502929,20.37925086841583,0.8519332160949706,18.322400868415833,1.6903432160949707,15.686370868415832C2.527953216094971,13.051140868415832,5.98319321609497,10.177506568415833,5.677593216094971,10.080705598415832C5.371993216094971,9.983104268415833,1.4215432160949708,12.699130868415832,0.5831332160949707,15.334370868415832Z" fill="#8BD8A0" fill-opacity="1"/></g></g><g style="opacity:0.5;" filter="url(#master_svg7_5380_05908)"><g><path d="M22.464988072662354,15.094359111518859C23.302598072662352,17.72958911151886,23.733808072662352,19.94478911151886,23.428198072662354,20.04158911151886C23.122598072662353,20.13918911151886,22.196188072662352,18.081599111518862,21.358578072662354,15.44556911151886C20.520968072662352,12.81033911151886,17.064927072662353,9.93670361151886,17.370530272662354,9.83990264151886C17.676134072662354,9.74310171151886,21.626578072662355,12.459129111518859,22.464988072662354,15.094359111518859Z" fill="#8BD8A0" fill-opacity="1"/></g></g><g style="opacity:0.699999988079071;" filter="url(#master_svg8_5380_05912)"><g><path d="M5.615193608428955,8.067077994346619C6.444006608428955,9.429497994346619,6.807206608428955,10.079107994346618,6.687206608428955,10.152707994346619C6.567206608428955,10.225507994346618,6.0079966084289556,9.695097994346618,5.178388608428955,8.33268799434662C3.925573608428955,7.231067994346619,5.250389608428955,5.739854194346619,5.371190608428956,5.666253364346619C5.491192608428955,5.592652494346619,4.381578608428955,6.261459994346619,5.615193608428955,8.067077994346619Z" fill="#0D652D" fill-opacity="1"/></g></g><g style="opacity:0.10000000149011612;" filter="url(#master_svg9_5380_05918)"><g><path d="M6.5272036636352535,10.294309141864776C6.626403663635254,10.230309141864776,6.103203663635254,9.252699141864777,5.356793663635254,8.112679141864776C4.6119816636352535,6.9726681418647765,3.927173663635254,6.100658541864776,3.8279721636352537,6.165459291864777C3.7287709636352537,6.229460041864777,4.251976663635254,7.2070691418647765,4.998383663635254,8.347089141864776C5.743193663635254,9.487899141864776,6.428003663635254,10.359909141864776,6.5272036636352535,10.294309141864776Z" fill="#202124" fill-opacity="1"/></g></g><g style="opacity:0.30000001192092896;" filter="url(#master_svga_5380_05922)"><g><path d="M6.647204721221923,7.371874775390625C7.515214721221923,8.796694775390625,7.938424721221924,9.450294775390624,8.034424721221924,9.391094775390625C8.130424721221925,9.332694775390625,7.864014721221924,8.584684775390624,6.996004721221924,7.159074775390625C6.159194721221924,5.255048775390625,4.650381721221924,6.391061775390625,4.799183321221924,6.599063775390625C5.088786721221924,7.156674775390625,5.537591721221924,5.373449775390625,6.647204721221923,7.371874775390625Z" fill="#FFFFFF" fill-opacity="1"/></g></g><g style="opacity:0.15000000596046448;"><path d="M3.964774049383545,6.860671179571152C4.116775649383545,7.3870711795711514,4.720782649383545,7.674281179571151,5.313587649383545,7.502271179571151C5.906397649383544,7.331071179571152,6.263997649383545,6.766271179571151,6.111197649383545,6.239860179571152C5.959197649383545,5.713454179571151,5.355187649383545,5.426251179571151,4.762383649383545,5.598252679571152C4.170376649383545,5.769454179571151,3.812772649383545,6.334261179571151,3.964774049383545,6.860671179571152Z" fill="url(#master_svgb_5380_08134)" fill-opacity="0.8999999761581421"/></g><g style="opacity:0.15000000596046448;"><path d="M17.793739045513917,6.723064677314758C17.950540245513917,7.263874677314758,18.593748245513915,7.5534746773147585,19.229760245513916,7.3686746773147584C19.866560245513917,7.184674677314758,20.255370245513916,6.596664677314759,20.099370245513917,6.0558576773147585C19.942560245513917,5.515051677314759,19.299360245513917,5.225448677314758,18.663349245513917,5.4102503773147586C18.026542245513916,5.594252677314758,17.637737245513915,6.182259677314758,17.793739045513917,6.723064677314758Z" fill="url(#master_svgc_5380_08135)" fill-opacity="0.8999999761581421"/></g><g style="opacity:0.10000000149011612;" filter="url(#master_svgd_5380_05932)"><g><path d="M17.419333528985597,10.368708630313872C17.318532728985595,10.305508630313874,17.827338428985595,9.320698630313874,18.553741428985596,8.168678630313874C19.280951428985595,7.016668630313873,19.951361428985596,6.133458930313873,20.051361428985597,6.196659660313873C20.151361428985595,6.259860430313873,19.643361428985596,7.244668630313873,18.916151428985597,8.396688630313873C18.189740428985594,9.548698630313874,17.519333428985597,10.431908630313874,17.418532428985596,10.368708630313872L17.419333528985597,10.368708630313872Z" fill="#202124" fill-opacity="1"/></g></g><g mask="url(#master_svge_5380_05937)"><g><g style="opacity:0.30000001192092896;mix-blend-mode:multiply" filter="url(#master_svgf_5380_05941)"><g><path d="M17.905741769976615,10.216706464628219C17.032927769976617,9.84790246462822,16.287318169976615,9.63669986462822,16.241718239976617,9.74550116462822C16.195317269976616,9.855102464628219,16.857725769976614,10.16150646462822,17.730531769976615,10.53111046462822C18.604141769976614,10.899912464628219,19.357751769976616,11.19192246462822,19.404151769976615,11.08311246462822C19.449751769976615,10.97351246462822,18.779351769976614,10.586311464628219,17.905741769976615,10.216706464628219Z" fill="#0D652D" fill-opacity="1"/></g></g><g style="opacity:0.30000001192092896;mix-blend-mode:screen" filter="url(#master_svgg_5380_05945)"><g><path d="M16.116117335951806,9.519898732246398C15.872913335951806,9.400697032246399,15.656111235951805,9.342296332246399,15.632911475951806,9.389496932246399C15.609711735951805,9.4374974322464,15.792914335951805,9.5390987322464,16.035316335951805,9.6590997322464C16.278520335951804,9.7791017322464,16.491321335951806,9.8703027322464,16.514521335951805,9.8231017322464C16.537720335951803,9.7751017322464,16.359319335951806,9.639099732246398,16.116117335951806,9.519898732246398Z" fill="#81C995" fill-opacity="1"/></g></g></g></g><g mask="url(#master_svgh_5380_05950)"><g><g style="opacity:0.30000001192092896;mix-blend-mode:multiply" filter="url(#master_svgi_5380_05952)"><g><path d="M5.984795548362732,10.313508112810135C6.8504055483627315,9.926303112810135,7.591215548362731,9.699900712810134,7.640015548362732,9.807902112810135C7.688015548362732,9.915903112810135,7.032005548362732,10.236707112810135,6.166395548362732,10.623912112810135C5.300790548362732,11.011120112810135,4.553581248362732,11.318320112810135,4.505580718362732,11.210320112810134C4.457580148362732,11.102320112810135,5.119187548362732,10.700712112810136,5.985595548362732,10.313508112810135L5.984795548362732,10.313508112810135Z" fill="#0D652D" fill-opacity="1"/></g></g><g style="opacity:0.30000001192092896;mix-blend-mode:screen" filter="url(#master_svgj_5380_05954)"><g><path d="M7.755218439033508,9.582299666290282C7.995221439033508,9.457497866290284,8.211224439033508,9.395097066290283,8.235224439033509,9.442297666290283C8.259224439033508,9.489498166290284,8.079222439033508,9.594299666290283,7.838419439033508,9.719100666290283C7.597616439033509,9.843902666290283,7.387214339033508,9.939903666290283,7.363214259033509,9.892702666290283C7.339213839033508,9.846302666290283,7.514416439033508,9.707100666290284,7.755218439033508,9.582299666290282Z" fill="#81C995" fill-opacity="1"/></g></g></g></g><g style="opacity:0.699999988079071;" filter="url(#master_svgk_5380_05956)"><g><path d="M18.43934070388794,8.123880717830659C17.64173270388794,9.504700717830659,17.29372950388794,10.163110717830659,17.415329703887938,10.233510717830658C17.53853070388794,10.303910717830657,18.08413770388794,9.760700717830659,18.88175070388794,8.379080717830657C20.108960703887938,7.248670717830658,18.74894070388794,5.787854517830658,18.62654070388794,5.717453887830658C18.50494070388794,5.647053017830658,19.62975070388794,6.290260717830658,18.43934070388794,8.123880717830659Z" fill="#0D652D" fill-opacity="1"/></g></g><g style="opacity:0.30000001192092896;" filter="url(#master_svgl_5380_05958)"><g><path d="M17.34173353225708,7.44867273483038C16.52972353225708,8.85589273483038,16.13131853225708,9.49910273483038,16.02811733225708,9.43989273483038C15.92571593225708,9.38069273483038,16.15771953225708,8.63989273483038,16.96972853225708,7.2342727348303795C17.89454353225708,4.79184373483038,19.72816353225708,5.114246734830379,19.42735353225708,6.45026273483038C19.19055353225708,6.99827273483038,18.36814353225708,5.47665133483038,17.34173353225708,7.44867273483038L17.34173353225708,7.44867273483038Z" fill="#FFFFFF" fill-opacity="1"/></g></g><g><path d="M8.04002568725586,13.733547238197326C8.172825687255859,13.583145238197327,8.060825687255859,13.263941238197326,7.789618687255859,13.019938238197327C7.5176156872558595,12.775935418197326,7.190411687255859,12.699935138197327,7.057610187255859,12.851136138197326C6.924808787255859,13.001537238197326,7.036809987255859,13.320741238197327,7.308013687255859,13.564744238197326C7.58001668725586,13.808752238197327,7.907220687255859,13.884752238197327,8.04002568725586,13.733547238197326Z" fill="url(#master_svgm_5380_08138)" fill-opacity="0.699999988079071"/></g><g><path d="M17.072127004669188,13.579945997688293C17.34413400466919,13.335942997688294,17.456134004669188,13.016738997688293,17.32253400466919,12.866337297688293C17.18972800466919,12.715135397688293,16.86252400466919,12.791136507688293,16.59132200466919,13.034338997688293C16.31931850466919,13.279141997688294,16.20731770466919,13.598345997688293,16.34091910466919,13.748746997688293C16.47372100466919,13.899948997688293,16.80092500466919,13.823948997688294,17.072127004669188,13.579945997688293L17.072127004669188,13.579945997688293Z" fill="url(#master_svgn_5380_08139)" fill-opacity="0.699999988079071"/></g><g style="opacity:0.09000000357627869;"><path d="M7.930416424713135,14.735155724983215C8.260026424713136,13.913545724983216,7.914416424713135,13.407143724983216,7.7008164247131345,13.250341724983215C7.0840064247131345,12.487132724983216,6.252800424713135,13.075939724983215,6.007197424713135,13.407943724983216C5.759994424713135,13.731147724983215,5.398390424713135,14.311955724983216,5.751994424713135,15.108765724983215C6.1055984247131345,15.904775724983216,7.520016424713135,15.763975724983215,7.930416424713135,14.735155724983215ZM16.456156424713136,14.753555724983215C16.127356424713135,13.940745724983216,16.472156424713134,13.425544724983215,16.686556424713135,13.276742724983215C17.302556424713135,12.513533724983215,18.132956424713136,13.102340724983215,18.380156424713135,13.434344724983216C18.626556424713137,13.757548724983215,18.988156424713132,14.338355724983215,18.634556424713132,15.127165724983215C18.280956424713136,15.915175724983214,16.866556424713135,15.782375724983215,16.456156424713136,14.761555724983216L16.456156424713136,14.753555724983215Z" fill="#011B04" fill-opacity="1"/></g><g><path d="M18.315338718414306,15.315169398231507C18.824948718414305,14.975159398231506,18.907348718414305,14.187149398231506,18.496138718414308,13.564745398231507C18.084938718414307,12.942338698231506,17.336128718414308,12.718336398231507,16.827322718414308,13.058339398231507C16.317717818414305,13.399143398231507,16.235316718414307,14.186349398231506,16.64652071841431,14.808759398231507C17.056926718414307,15.431169398231507,17.805738718414307,15.655169398231507,18.315338718414306,15.315169398231507Z" fill="#202124" fill-opacity="1"/></g><g><path d="M7.73361377532959,14.783961965065002C8.14482377532959,14.161551965065001,8.071223775329589,13.389543965065002,7.569613775329589,13.049539965065003C7.0680137753295895,12.718335965065002,6.33600177532959,12.950338765065002,5.92479677532959,13.563944965065003C5.51359177532959,14.186351965065002,5.58799297532959,14.957561965065002,6.0895987753295895,15.298361965065002C6.59120477532959,15.629571965065002,7.32241377532959,15.397561965065002,7.73361377532959,14.783961965065002ZM16.647333775329592,14.792761965065003C16.23613377532959,14.171151965065002,16.30973377532959,13.399144965065002,16.81133377532959,13.059140965065003C17.31293377532959,12.727136965065002,18.04493377532959,12.959939765065002,18.45613377532959,13.573545965065003C18.86733377532959,14.195951965065003,18.79293377532959,14.967161965065003,18.29133377532959,15.307161965065003C17.789733775329587,15.639171965065003,17.05853377532959,15.407171965065002,16.647333775329592,14.792761965065003Z" fill="#000000" fill-opacity="1"/></g><g><path d="M6.072798780822754,13.490344236976624C5.678393780822754,13.971947236976623,5.636793300822754,14.543957236976624,5.686394080822754,14.784757236976624C5.587992780822754,14.311957236976623,5.620793480822754,13.855149236976624,5.998397780822754,13.391144236976624C6.203999780822754,13.133541236976624,6.524803780822754,12.992739236976623,6.755203780822754,12.926338036976624C6.788003780822754,12.918337736976623,6.829603780822754,12.910337436976624,6.853603780822754,12.901537636976624C6.8990037808227545,12.887252236976623,6.946063780822754,12.878916216976624,6.993613780822754,12.876737236976624C6.952813780822754,12.884737516976623,6.9032037808227535,12.892737836976623,6.853603780822754,12.900737336976624C6.821603780822754,12.900737336976624,6.788003780822754,12.918337736976623,6.755203780822754,12.926338036976624C6.5904047808227535,12.984738236976623,6.368802780822754,13.108739236976623,6.064798780822754,13.490344236976624L6.072798780822754,13.490344236976624Z" fill="#000000" fill-opacity="1"/></g><g style="opacity:0.800000011920929;"><path d="M7.841618846832276,13.607946976997376C7.677616846832276,12.919138676997376,7.126410846832275,12.852737776997376,6.872007846832275,12.902338576997375C7.093610846832275,12.802337376997375,7.488014846832275,12.926338576997376,7.660816846832275,13.126340976997376C7.792818846832276,13.283941976997376,7.841618846832276,13.515945976997376,7.850419846832275,13.615946976997375L7.841618846832276,13.607946976997376L7.841618846832276,13.607946976997376Z" fill="url(#master_svgo_5380_08141)" fill-opacity="1"/></g><g><path d="M17.288131861480714,13.024738750126037C16.704125861480712,13.057539440126037,16.515323261480713,13.522344340126038,16.490522861480713,13.746347340126038C16.548123961480712,13.605546340126038,16.762525861480714,13.314342340126037,17.132130861480714,13.240741340126037C17.50173286148071,13.174340340126038,17.987342861480712,13.596745340126038,18.184142861480712,13.820748340126038L18.364942861480714,13.613546340126037C18.249742861480712,13.397543340126038,17.872142861480715,12.983138940126038,17.288131861480714,13.024738750126037Z" fill="url(#master_svgp_5380_08142)" fill-opacity="1"/></g><g><path d="M18.306542127593993,13.506345938331604C18.701743127593993,13.987148938331604,18.742543127593994,14.559958938331604,18.692943127593995,14.799958938331605C18.792143127593995,14.327958938331603,18.758543127593995,13.871148938331604,18.380943127593994,13.406343938331604C18.175340127593994,13.149540938331604,17.854536127593995,13.007939938331605,17.624135127593995,12.942338938331604C17.592133127593993,12.934338738331604,17.550534127593995,12.925538838331605,17.525734127593996,12.916739038331604C17.480302127593994,12.902716778331603,17.433241927593993,12.894649358331604,17.385733127593994,12.892738938331604C17.427333627593995,12.900739218331603,17.476134927593993,12.908739538331604,17.525734127593996,12.916739038331604C17.558535127593995,12.916739038331604,17.591335127593993,12.933539138331604,17.624135127593995,12.942338938331604C17.788936127593995,12.999939938331604,18.010539127593994,13.124741938331605,18.315343127593994,13.506345938331604L18.307343127593995,13.506345938331604L18.306542127593993,13.506345938331604Z" fill="#000000" fill-opacity="1"/></g><g style="opacity:0.800000011920929;"><path d="M6.589604468231201,13.311142563819885C6.359202468231201,13.360743363819886,6.186399968231201,13.601545563819885,6.137599468231201,13.717547563819885L6.252800468231201,13.891949563819885Q6.334402468231201,13.750348563819886,6.424803468231201,13.659947563819886C6.515204468231201,13.567946563819886,6.655205468231201,13.467945563819885,6.712806468231201,13.427144563819885L6.597605468231201,13.311142563819885L6.589604468231201,13.311142563819885ZM17.7976994682312,13.316742603819884C18.0200994682312,13.358343163819885,18.192099468231202,13.591146563819885,18.2496994682312,13.707146563819885L18.135299468231203,13.872748563819885Q18.052899468231203,13.739946563819885,17.9624994682312,13.648746563819886C17.8720994682312,13.557545563819886,17.7400994682312,13.466344563819884,17.6824994682312,13.424743563819884L17.7976994682312,13.316742603819884Z" fill="#E2DCE1" fill-opacity="1"/></g><g style="opacity:0.800000011920929;"><g><path d="M7.527215768890381,14.554354226264953C7.420014768890381,14.612754226264954,7.247211768890381,14.695954226264954,7.173611368890381,14.728764226264953L7.108010768890381,14.927964226264955C7.280012768890381,14.869564226264954,7.404013768890381,14.770364226264954,7.452814768890381,14.728764226264953L7.527215768890381,14.554354226264953ZM7.872019768890381,13.682346226264954C7.854331768890381,13.622725226264954,7.832408768890381,13.564442826264953,7.8064187688903806,13.507944226264954L7.8064187688903806,13.582345426264954C7.838418768890381,13.640746226264953,7.864019768890381,13.747947226264953,7.872019768890381,13.798348226264954C7.872019768890381,13.781548226264954,7.888019768890381,13.731947226264953,7.872019768890381,13.673547226264954L7.872019768890381,13.682346226264954L7.872019768890381,13.682346226264954Z" fill="#E2DCE1" fill-opacity="1"/></g></g><g style="opacity:0.800000011920929;"><g><path d="M16.83612559951782,14.571955106697082C16.942526599517823,14.629555106697083,17.116129599517823,14.712755106697083,17.189729599517822,14.746365106697082L17.255330599517823,14.944765106697083C17.128789599517823,14.900705106697082,17.01158059951782,14.833425106697083,16.909727599517822,14.746365106697082L16.83612559951782,14.571955106697082ZM16.497721279517823,13.699147106697083C16.51372179951782,13.640747106697082,16.54732209951782,13.558346106697083,16.56332259951782,13.524745106697083L16.56332259951782,13.599946606697083C16.531396299517823,13.668500106697083,16.509310499517824,13.741219106697082,16.497721279517823,13.815949106697083C16.497721279517823,13.798349106697083,16.48172072951782,13.748749106697083,16.497721279517823,13.691148106697083L16.497721279517823,13.699147106697083Z" fill="#E2DCE1" fill-opacity="1"/></g></g></g></g></g></svg>