<svg xmlns="http://www.w3.org/2000/svg" xmlns:xlink="http://www.w3.org/1999/xlink" fill="none" version="1.1" width="24" height="24" viewBox="0 0 24 24"><defs><clipPath id="master_svg0_5380_08281"><rect x="0" y="0" width="24" height="24" rx="0"/></clipPath></defs><g clip-path="url(#master_svg0_5380_08281)"><g><path d="M7.55556,22L16.4444,22C19.5128,22,22,19.5128,22,16.4444L22,7.55556C22,4.487220000000001,19.5128,2,16.4444,2L7.55556,2C4.487220000000001,2,2,4.487220000000001,2,7.55556L2,16.4444C2,19.5128,4.487220000000001,22,7.55556,22Z" fill="#118CAB" fill-opacity="1"/></g><g transform="matrix(1,0,0,-1,0,29.16314697265625)"><g><g><g><path d="M9.65232,14.581573486328125L8.31665,14.581573486328125L7.9087,15.604663486328125L5.6824200000000005,15.604663486328125L5.31143,14.581573486328125L4,14.581573486328125L6.00493,19.744723486328127L7.44234,19.744723486328127L9.65232,14.581573486328125ZM6.7404,18.512293486328126L6.0113,16.507433486328125L7.54415,16.507433486328125L6.7404,18.512293486328126Z" fill="#FFFFFF" fill-opacity="1"/></g><g><path d="M12.16479327896118,19.744723486328127C13.18581327896118,19.744723486328127,13.790953278961181,19.036283486328124,13.790953278961181,18.263853486328124C13.790953278961181,17.696393486328127,13.506903278961182,17.269923486328125,12.937303278961181,16.998673486328126C13.447063278961181,16.733073486328124,13.602273278961182,16.097343486328125,14.302143278961182,14.581573486328125L12.937303278961181,14.581573486328125C12.403303278961182,15.689393486328125,12.208263278961182,16.679733486328125,11.535423278961181,16.679733486328125L11.178733278961182,16.679733486328125L11.178733278961182,14.581573486328125L9.938513278961182,14.581573486328125L9.938513278961182,19.744723486328127L12.16479327896118,19.744723486328127ZM11.178733278961182,17.628043486328124L11.837353278961182,17.628043486328124C12.179093278961181,17.628043486328124,12.515123278961182,17.777543486328124,12.515123278961182,18.218233486328124C12.515123278961182,18.603453486328124,12.274473278961182,18.800633486328124,11.80668327896118,18.800633486328124L11.178733278961182,18.800633486328124L11.178733278961182,17.628043486328124Z" fill="#FFFFFF" fill-opacity="1"/></g><g><path d="M18.919211797790528,19.744723486328127L20.000001797790528,19.744723486328127L20.000001797790528,14.581573486328125L18.759781797790527,14.581573486328125L18.759781797790527,17.808143486328124L17.41910179779053,16.188423486328126L17.226921797790528,16.188423486328126L15.884821797790527,17.808143486328124L15.884821797790527,14.581573486328125L14.643881797790527,14.581573486328125L14.643881797790527,19.744723486328127L15.723241797790527,19.744723486328127L17.322301797790526,17.830953486328124L18.919211797790528,19.744723486328127Z" fill="#FFFFFF" fill-opacity="1"/></g></g></g></g></g></svg>