<svg xmlns="http://www.w3.org/2000/svg" xmlns:xlink="http://www.w3.org/1999/xlink" fill="none" version="1.1" width="24" height="24" viewBox="0 0 24 24"><defs><clipPath id="master_svg0_5851_03378"><rect x="0" y="0" width="24" height="24" rx="0"/></clipPath></defs><g clip-path="url(#master_svg0_5851_03378)"><g></g><g><path d="M2.25,5L2.25,19Q2.25,20.1391,3.0554565,20.9445Q3.860912,21.75,5,21.75L19,21.75Q20.1391,21.75,20.9445,20.9445Q21.75,20.1391,21.75,19L21.75,5Q21.75,3.860912,20.9445,3.0554565Q20.1391,2.25,19,2.25L5,2.25Q3.860913,2.25,3.0554564,3.0554564Q2.25,3.860913,2.25,5ZM5,20.25Q3.75,20.25,3.75,19L3.75,5Q3.75,3.75,5,3.75L19,3.75Q20.25,3.75,20.25,5L20.25,19Q20.25,20.25,19,20.25L5,20.25Z" fill-rule="evenodd" fill="#000000" fill-opacity="1" style="mix-blend-mode:passthrough"/></g><g><path d="M3,9.25L21,9.25Q21.0739,9.25,21.1463,9.264410999999999Q21.2188,9.278822,21.287,9.30709Q21.3553,9.335359,21.4167,9.376398Q21.4781,9.417437,21.5303,9.46967Q21.5826,9.521903,21.6236,9.583322Q21.6646,9.644742,21.6929,9.712987Q21.7212,9.781233,21.7356,9.853682Q21.75,9.9261315,21.75,10Q21.75,10.0738685,21.7356,10.146318Q21.7212,10.218767,21.6929,10.287013Q21.6646,10.355258,21.6236,10.416678Q21.5826,10.478097,21.5303,10.53033Q21.4781,10.582563,21.4167,10.623602Q21.3553,10.664641,21.287,10.69291Q21.2188,10.721178,21.1463,10.735589000000001Q21.0739,10.75,21,10.75L3,10.75Q2.9261315,10.75,2.853682,10.735589000000001Q2.781233,10.721178,2.712987,10.69291Q2.644742,10.664641,2.583322,10.623602Q2.521903,10.582563,2.46967,10.53033Q2.417437,10.478097,2.376398,10.416678Q2.335359,10.355258,2.30709,10.287013Q2.278822,10.218767,2.264411,10.146318Q2.25,10.0738685,2.25,10Q2.25,9.9261315,2.264411,9.853682Q2.278822,9.781233,2.30709,9.712987Q2.335359,9.644742,2.376398,9.583322Q2.417437,9.521903,2.46967,9.46967Q2.521903,9.417437,2.583322,9.376398Q2.644742,9.335359,2.712987,9.30709Q2.781233,9.278822,2.853682,9.264410999999999Q2.9261315,9.25,3,9.25Z" fill-rule="evenodd" fill="#000000" fill-opacity="1" style="mix-blend-mode:passthrough"/></g><g><path d="M9.25,3Q9.25,2.9261315,9.264410999999999,2.853682Q9.278822,2.781233,9.30709,2.712987Q9.335359,2.644742,9.376398,2.583322Q9.417437,2.521903,9.46967,2.46967Q9.521903,2.417437,9.583322,2.376398Q9.644742,2.335359,9.712987,2.30709Q9.781233,2.278822,9.853682,2.264411Q9.9261315,2.25,10,2.25Q10.0738685,2.25,10.146318,2.264411Q10.218767,2.278822,10.287013,2.30709Q10.355258,2.335359,10.416678,2.376398Q10.478097,2.417437,10.53033,2.46967Q10.582563,2.521903,10.623602,2.583322Q10.664641,2.644742,10.69291,2.712987Q10.721178,2.781233,10.735589000000001,2.853682Q10.75,2.9261315,10.75,3L10.75,21Q10.75,21.0739,10.735589000000001,21.1463Q10.721178,21.2188,10.69291,21.287Q10.664641,21.3553,10.623602,21.4167Q10.582563,21.4781,10.53033,21.5303Q10.478097,21.5826,10.416678,21.6236Q10.355258,21.6646,10.287013,21.6929Q10.218767,21.7212,10.146318,21.7356Q10.0738685,21.75,10,21.75Q9.9261315,21.75,9.853682,21.7356Q9.781233,21.7212,9.712987,21.6929Q9.644742,21.6646,9.583322,21.6236Q9.521903,21.5826,9.46967,21.5303Q9.417437,21.4781,9.376398,21.4167Q9.335359,21.3553,9.30709,21.287Q9.278822,21.2188,9.264410999999999,21.1463Q9.25,21.0739,9.25,21L9.25,3Z" fill-rule="evenodd" fill="#000000" fill-opacity="1" style="mix-blend-mode:passthrough"/></g></g></svg>