<svg xmlns="http://www.w3.org/2000/svg" xmlns:xlink="http://www.w3.org/1999/xlink" fill="none" version="1.1" width="24" height="24" viewBox="0 0 24 24"><defs><clipPath id="master_svg0_6113_03523"><rect x="-0.75" y="-0.75" width="25.5" height="25.5" rx="0"/></clipPath></defs><g clip-path="url(#master_svg0_6113_03523)"><path d="M2.25,15.25L2.25,8.75L9.75,8.75L9.75,15.25L2.25,15.25ZM8.250000499999999,10.25L3.75,10.25L3.75,13.75L8.250000499999999,13.75L8.250000499999999,10.25Z" fill-rule="evenodd" fill="#000000" fill-opacity="1"/><path d="M8.25,20.25L8.25,13.75L15.75,13.75L15.75,20.25L8.25,20.25ZM14.250000499999999,15.25L9.75,15.25L9.75,18.75L14.250000499999999,18.75L14.250000499999999,15.25Z" fill-rule="evenodd" fill="#000000" fill-opacity="1"/><path d="M14.25,15.25L14.25,8.75L21.75,8.75L21.75,15.25L14.25,15.25ZM20.2500005,10.25L15.75,10.25L15.75,13.75L20.2500005,13.75L20.2500005,10.25Z" fill-rule="evenodd" fill="#000000" fill-opacity="1"/><path d="M8.25,15.25L8.25,8.75L15.75,8.75L15.75,15.25L8.25,15.25ZM14.250000499999999,10.25L9.75,10.25L9.75,13.75L14.250000499999999,13.75L14.250000499999999,10.25Z" fill-rule="evenodd" fill="#000000" fill-opacity="1"/><path d="M21.090988,19.590989999999998Q21.749998,18.931981,21.749998,18.000000999999997L21.749998,6.0000004Q21.749998,5.06801933,21.090988,4.409009755Q20.43198,3.75,19.5,3.75000012L4.5000007,3.75Q3.56801987,3.75,2.909009978,4.409009755Q2.25000012,5.06801951,2.25000018,6.0000004L2.25,18Q2.25,18.93198,2.90901003,19.590989999999998Q3.56801862,20.249997999999998,4.5000002,20.249997999999998L19.5,20.249997999999998Q20.43198,20.249997999999998,21.090988,19.590989999999998ZM20.25,6.0000004L20.25,18Q20.25,18.749999000000003,19.5,18.749999000000003L4.5000002,18.749999000000003Q3.75,18.749999000000003,3.75,18L3.75000024,6.0000001Q3.75000018,5.6893398,3.96967,5.46967Q4.18934,5.25,4.5000007,5.25L19.5,5.25000012Q19.810659,5.25000012,20.030329,5.46967Q20.25,5.6893411,20.25,6.0000004Z" fill-rule="evenodd" fill="#000000" fill-opacity="1"/></g></svg>