<svg xmlns="http://www.w3.org/2000/svg" xmlns:xlink="http://www.w3.org/1999/xlink" fill="none" version="1.1" width="32" height="32" viewBox="0 0 32 32"><defs><clipPath id="master_svg0_5881_02842"><rect x="0" y="0" width="32" height="32" rx="0"/></clipPath><filter id="master_svg1_5881_02848" filterUnits="objectBoundingBox" color-interpolation-filters="sRGB" x="0" y="0" width="1" height="1"><feFlood flood-opacity="0" result="BackgroundImageFix"/><feBlend mode="normal" in="SourceGraphic" in2="BackgroundImageFix" result="shape"/><feColorMatrix in="SourceAlpha" type="matrix" result="hardAlpha" values="0 0 0 0 0 0 0 0 0 0 0 0 0 0 0 0 0 0 127 0"/><feOffset dy="-2" dx="0"/><feGaussianBlur stdDeviation="2"/><feComposite in2="hardAlpha" operator="arithmetic" k2="-1" k3="1"/><feColorMatrix type="matrix" values="0 0 0 0 1 0 0 0 0 1 0 0 0 0 1 0 0 0 0.20000000298023224 0"/><feBlend mode="normal" in2="shape" result="effect1_innerShadow"/></filter><linearGradient x1="0.7024111747741699" y1="0.23675473034381866" x2="0.7024111747741699" y2="1.1680071353912354" id="master_svg2_5881_02943"><stop offset="0%" stop-color="#FFFFFF" stop-opacity="1"/><stop offset="40.104201436042786%" stop-color="#FFFFFF" stop-opacity="0.8500000238418579"/><stop offset="100%" stop-color="#FFFFFF" stop-opacity="0.5"/></linearGradient></defs><g clip-path="url(#master_svg0_5881_02842)"><g></g><g filter="url(#master_svg1_5881_02848)"><g transform="matrix(0.916670024394989,0,0,0.916670024394989,0.5469952155948477,0.5728956882303748)"><path d="M24.97830707702637,6.875025272369385C26.082807077026366,6.875025272369385,26.97830707702637,7.770456272369385,26.97830707702637,8.875025272369385L26.97830707702637,15.688025272369385C26.977807077026366,16.483755272369386,26.66130707702637,17.246725272369385,26.098307077026366,17.809025272369382L17.20530707702637,26.703025272369384C16.424287077026367,27.483825272369383,15.158287077026367,27.483825272369383,14.377287077026367,26.703025272369384L7.150280077026367,19.475025272369386C6.3688490770263675,18.693925272369384,6.3688490770263675,17.427125272369384,7.150280077026367,16.646025272369386L16.043277077026367,7.755025272369385C16.605307077026367,7.192255272369385,17.367907077026366,6.875725269369385,18.163307077026367,6.875025272369385L24.97830707702637,6.875025272369385L24.97830707702637,6.875025272369385ZM21.77830707702637,14.666025272369385C22.523507077026366,13.955575272369384,22.537607077026365,12.770825272369386,21.809407077026368,12.042905272369385C21.081207077026367,11.314975272369384,19.896407077026367,11.329485272369386,19.186307077026367,12.075025272369384C18.487507077026365,12.793625272369384,18.495507077026367,13.940265272369384,19.204307077026368,14.649025272369386C19.913007077026368,15.357785272369386,21.059707077026367,15.365805272369386,21.77830707702637,14.666025272369385L21.77830707702637,14.666025272369385Z" fill="url(#master_svg2_5881_02943)" fill-opacity="1" style="mix-blend-mode:passthrough"/></g></g></g></svg>