<svg xmlns="http://www.w3.org/2000/svg" xmlns:xlink="http://www.w3.org/1999/xlink" fill="none" version="1.1" width="24" height="24" viewBox="0 0 24 24"><defs><clipPath id="master_svg0_5792_08800"><rect x="0" y="0" width="24" height="24" rx="0"/></clipPath></defs><g clip-path="url(#master_svg0_5792_08800)"><g><path d="M8.5,7.5Q8.5,7.59849,8.48079,7.69509Q8.46157,7.79169,8.42388,7.88268Q8.38619,7.97368,8.33147,8.05557Q8.27675,8.13746,8.20711,8.20711Q8.13746,8.27675,8.05557,8.33147Q7.97368,8.38619,7.88268,8.42388Q7.79169,8.46157,7.69509,8.48079Q7.59849,8.5,7.5,8.5Q7.401509,8.5,7.30491,8.48079Q7.208311,8.46157,7.117316,8.42388Q7.026322,8.38619,6.94443,8.33147Q6.862537,8.27675,6.792893,8.20711Q6.723249,8.13746,6.66853,8.05557Q6.613811,7.97368,6.5761205,7.88268Q6.5384294,7.79169,6.5192147,7.69509Q6.5,7.59849,6.5,7.5Q6.5,7.401509,6.5192147,7.30491Q6.5384294,7.208311,6.5761205,7.117316Q6.613811,7.026322,6.66853,6.94443Q6.723249,6.862537,6.792893,6.792893Q6.862537,6.723249,6.94443,6.66853Q7.026322,6.613811,7.117316,6.5761205Q7.208311,6.5384294,7.30491,6.5192147Q7.401509,6.5,7.5,6.5Q7.59849,6.5,7.69509,6.5192147Q7.79169,6.5384294,7.88268,6.5761205Q7.97368,6.613811,8.05557,6.66853Q8.13746,6.723249,8.20711,6.792893Q8.27675,6.862537,8.33147,6.94443Q8.38619,7.026322,8.42388,7.117316Q8.46157,7.208311,8.48079,7.30491Q8.5,7.401509,8.5,7.5Z" fill="#000000" fill-opacity="1"/><path d="M8.73744,6.262563Q8.22487,5.75,7.5,5.75Q6.775126,5.75,6.262563,6.262563Q5.75,6.775126,5.75,7.5Q5.75,8.22487,6.262563,8.73744Q6.775126,9.25,7.5,9.25Q8.22487,9.25,8.73744,8.73744Q9.25,8.22487,9.25,7.5Q9.25,6.775126,8.73744,6.262563ZM7.3232230000000005,7.3232230000000005Q7.396447,7.25,7.5,7.25Q7.60355,7.25,7.67678,7.3232230000000005Q7.75,7.396446,7.75,7.5Q7.75,7.60355,7.67678,7.67678Q7.60355,7.75,7.5,7.75Q7.396446,7.75,7.3232230000000005,7.67678Q7.25,7.60355,7.25,7.5Q7.25,7.396447,7.3232230000000005,7.3232230000000005Z" fill-rule="evenodd" fill="#000000" fill-opacity="1" style="mix-blend-mode:passthrough"/></g><g><path d="M11.171999761581421,2.2500014305114746L5.999999761581421,2.2500014305114746Q4.446699761581421,2.2500014305114746,3.3483487615814207,3.3483504305114744Q2.249999761581421,4.4467014305114745,2.249999761581421,6.000001430511475L2.249999761581421,11.172001430511475Q2.250242761581421,12.311151430511474,3.055750461581421,13.116401430511475L10.765669761581421,20.826301430511474Q11.69121976158142,21.751701430511474,12.999999761581421,21.751701430511474Q14.30879976158142,21.751701430511474,15.23429976158142,20.826401430511474L20.82629976158142,15.234301430511474Q21.75169976158142,14.308801430511474,21.75169976158142,13.000001430511475Q21.75169976158142,11.691221430511474,20.82639976158142,10.765711430511475L13.116299761581422,3.0556712305114746Q12.310559761581422,2.2500014305114746,11.171999761581421,2.2500014305114746ZM4.409009761581421,4.409011430511475Q5.0680197615814215,3.7500014305114746,5.999999761581421,3.7500014305114746L11.171999761581421,3.7500014305114746Q11.68928976158142,3.7500014305114746,12.05566976158142,4.116331430511474L19.76559976158142,11.826291430511475Q20.93919976158142,13.000001430511475,19.76569976158142,14.173701430511475L14.173699761581421,19.765601430511474Q12.999999761581421,20.939201430511474,11.826329761581421,19.765701430511474L4.116249761581421,12.055591430511475Q3.750110761581421,11.689561430511475,3.749999761581421,11.172001430511475L3.749999761581421,6.000001430511475Q3.749999761581421,5.068021430511475,4.409009761581421,4.409011430511475Z" fill-rule="evenodd" fill="#000000" fill-opacity="1" style="mix-blend-mode:passthrough"/></g></g></svg>