<svg xmlns="http://www.w3.org/2000/svg" xmlns:xlink="http://www.w3.org/1999/xlink" fill="none" version="1.1" width="24" height="24" viewBox="0 0 24 24"><defs><clipPath id="master_svg0_5518_08446"><rect x="0" y="0" width="24" height="24" rx="0"/></clipPath><clipPath id="master_svg1_5518_08462"><rect x="0" y="0" width="24" height="24" rx="0"/></clipPath></defs><g clip-path="url(#master_svg0_5518_08446)"><g clip-path="url(#master_svg1_5518_08462)"></g><g><g><path d="M20,3L4,3L4,21.5L20,21.5L20,20Q20.2321,19.8259,20.4425,19.6262Q20.6529,19.4265,20.8388,19.2037Q21.0246,18.981,21.1835,18.738300000000002Q21.3424,18.4955,21.4721,18.2361Q21.6019,17.976599999999998,21.7007,17.7038Q21.7996,17.4311,21.8662,17.1488Q21.9329,16.8664,21.9664,16.5783Q22,16.290100000000002,22,16Q22,15.7099,21.9664,15.4217Q21.9329,15.1336,21.8662,14.8512Q21.7996,14.5689,21.7007,14.2962Q21.6019,14.0234,21.4721,13.7639Q21.3424,13.5045,21.1835,13.2617Q21.0246,13.019,20.8388,12.79626Q20.6529,12.57353,20.4425,12.3738Q20.2321,12.17406,20,12L20,3Z" fill-rule="evenodd" fill="#E6FAF3" fill-opacity="1"/></g><g><path d="M19.25,3.25L19.25,8.875C19.25,9.22018,19.5298,9.5,19.875,9.5C20.2202,9.5,20.5,9.22018,20.5,8.875L20.5,2.625C20.5,2.2798220000000002,20.2202,2,19.875,2L3.625,2C3.2798220000000002,2,3,2.2798220000000002,3,2.625L3,21.375C3,21.7202,3.2798220000000002,22,3.625,22L11.125,22C11.47018,22,11.75,21.7202,11.75,21.375C11.75,21.0298,11.47018,20.75,11.125,20.75L4.25,20.75L4.25,3.25L19.25,3.25ZM16.125,5.75L7.375,5.75C7.02982,5.75,6.75,6.02982,6.75,6.375C6.75,6.72018,7.02982,7,7.375,7L16.125,7C16.4702,7,16.75,6.72018,16.75,6.375C16.75,6.02982,16.4702,5.75,16.125,5.75ZM12.375,9.5L7.375,9.5C7.02982,9.5,6.75,9.77982,6.75,10.125C6.75,10.47018,7.02982,10.75,7.375,10.75L12.375,10.75C12.72018,10.75,13,10.47018,13,10.125C13,9.77982,12.72018,9.5,12.375,9.5ZM21.3525,20.3525Q23,18.705,23,16.375Q23,14.045,21.3525,12.3975Q19.705,10.75,17.375,10.75Q15.045,10.75,13.3975,12.3975Q11.75,14.045,11.75,16.375Q11.75,18.705,13.3975,20.3525Q15.045,22,17.375,22Q19.705,22,21.3525,20.3525ZM20.4686,13.2814Q21.75,14.5628,21.75,16.375Q21.75,18.1872,20.4686,19.4686Q19.1872,20.75,17.375,20.75Q15.5628,20.75,14.2814,19.4686Q13,18.1872,13,16.375Q13,14.5628,14.2814,13.2814Q15.5628,12,17.375,12Q19.1872,12,20.4686,13.2814ZM7.375,13.25L9.875,13.25C10.22018,13.25,10.5,13.5298,10.5,13.875C10.5,14.2202,10.22018,14.5,9.875,14.5L7.375,14.5C7.02982,14.5,6.75,14.2202,6.75,13.875C6.75,13.5298,7.02982,13.25,7.375,13.25ZM18,17L18,18.875C18,19.2202,17.7202,19.5,17.375,19.5C17.0298,19.5,16.75,19.2202,16.75,18.875L16.75,17L14.875,17C14.5298,17,14.25,16.7202,14.25,16.375C14.25,16.0298,14.5298,15.75,14.875,15.75L16.75,15.75L16.75,13.875C16.75,13.5298,17.0298,13.25,17.375,13.25C17.7202,13.25,18,13.5298,18,13.875L18,15.75L19.875,15.75C20.2202,15.75,20.5,16.0298,20.5,16.375C20.5,16.7202,20.2202,17,19.875,17L18,17ZM7.375,17L9.875,17C10.22018,17,10.5,17.2798,10.5,17.625C10.5,17.9702,10.22018,18.25,9.875,18.25L7.375,18.25C7.02982,18.25,6.75,17.9702,6.75,17.625C6.75,17.2798,7.02982,17,7.375,17Z" fill-rule="evenodd" fill="#22C55E" fill-opacity="1"/></g></g></g></svg>