<svg xmlns="http://www.w3.org/2000/svg" xmlns:xlink="http://www.w3.org/1999/xlink" fill="none" version="1.1" width="24" height="24" viewBox="0 0 24 24"><defs><clipPath id="master_svg0_5851_03353"><rect x="0" y="0" width="24" height="24" rx="0"/></clipPath></defs><g clip-path="url(#master_svg0_5851_03353)"><g></g><g><path d="M8.530484,8.469824L11.53033,11.46967Q11.635819999999999,11.57516,11.69291,11.71299Q11.75,11.85082,11.75,12Q11.75,12.14918,11.69291,12.28701Q11.635819999999999,12.42484,11.53033,12.53033L8.530792,15.529869999999999L8.53033,15.53033Q8.424841,15.635819999999999,8.287013,15.692910000000001Q8.149184,15.75,8,15.75Q7.9261315,15.75,7.853682,15.73559Q7.781233,15.72118,7.712987,15.692910000000001Q7.644742,15.66464,7.583322,15.6236Q7.521903,15.58256,7.46967,15.53033Q7.417437,15.478100000000001,7.376398,15.41668Q7.335359,15.355260000000001,7.30709,15.28701Q7.278822,15.21877,7.264411,15.14632Q7.25,15.07387,7.25,15Q7.25,14.850819999999999,7.30709,14.71299Q7.364181,14.57516,7.46967,14.46967L7.4701319999999996,14.46921L9.93934,12L7.469824,9.530484L7.46967,9.53033Q7.364181,9.424841,7.30709,9.287013Q7.25,9.149184,7.25,9Q7.25,8.9261315,7.264411,8.853682Q7.278822,8.781233,7.30709,8.712987Q7.335359,8.644742,7.376398,8.583322Q7.417437,8.521903,7.46967,8.46967Q7.521903,8.417437,7.583322,8.376398Q7.644742,8.335359,7.712987,8.30709Q7.781233,8.278822,7.853682,8.264410999999999Q7.9261315,8.25,8,8.25Q8.149184,8.25,8.287013,8.30709Q8.424841,8.364181,8.53033,8.46967L8.530484,8.469824Z" fill-rule="evenodd" fill="#000000" fill-opacity="1" style="mix-blend-mode:passthrough"/></g><g><path d="M13,14.25L16,14.25Q16.07387,14.25,16.14632,14.264410999999999Q16.21877,14.278822,16.28701,14.30709Q16.35526,14.335359,16.41668,14.376398Q16.4781,14.417437,16.53033,14.46967Q16.58256,14.521903,16.6236,14.583322Q16.66464,14.644742,16.69291,14.712987Q16.72118,14.781233,16.735590000000002,14.853682Q16.75,14.9261315,16.75,15Q16.75,15.0738685,16.735590000000002,15.146318Q16.72118,15.218767,16.69291,15.287013Q16.66464,15.355258,16.6236,15.416678Q16.58256,15.478097,16.53033,15.53033Q16.4781,15.582563,16.41668,15.623602Q16.35526,15.664641,16.28701,15.69291Q16.21877,15.721178,16.14632,15.735589000000001Q16.07387,15.75,16,15.75L13,15.75Q12.9261315,15.75,12.853682,15.735589000000001Q12.781233,15.721178,12.712987,15.69291Q12.644742,15.664641,12.583322,15.623602Q12.521903,15.582563,12.46967,15.53033Q12.417437,15.478097,12.376398,15.416678Q12.335359,15.355258,12.30709,15.287013Q12.278822,15.218767,12.264410999999999,15.146318Q12.25,15.0738685,12.25,15Q12.25,14.9261315,12.264410999999999,14.853682Q12.278822,14.781233,12.30709,14.712987Q12.335359,14.644742,12.376398,14.583322Q12.417437,14.521903,12.46967,14.46967Q12.521903,14.417437,12.583322,14.376398Q12.644742,14.335359,12.712987,14.30709Q12.781233,14.278822,12.853682,14.264410999999999Q12.9261315,14.25,13,14.25Z" fill-rule="evenodd" fill="#000000" fill-opacity="1" style="mix-blend-mode:passthrough"/></g><g><path d="M2.25,6L2.25,18Q2.25,19.1391,3.0554565,19.944499999999998Q3.860913,20.75,5,20.75L19,20.75Q20.1391,20.75,20.9445,19.944499999999998Q21.75,19.1391,21.75,18L21.75,6Q21.75,4.860912,20.9445,4.0554565Q20.1391,3.25,19,3.25L5,3.25Q3.860913,3.25,3.0554564,4.0554564Q2.25,4.860913,2.25,6ZM5,19.25Q3.75,19.25,3.75,18L3.75,6Q3.75,4.75,5,4.75L19,4.75Q20.25,4.75,20.25,6L20.25,18Q20.25,19.25,19,19.25L5,19.25Z" fill-rule="evenodd" fill="#000000" fill-opacity="1" style="mix-blend-mode:passthrough"/></g></g></svg>