<svg xmlns="http://www.w3.org/2000/svg" xmlns:xlink="http://www.w3.org/1999/xlink" fill="none" version="1.1" width="24" height="24" viewBox="0 0 24 24"><defs><clipPath id="master_svg0_6101_03804"><rect x="-0.75" y="-0.75" width="25.5" height="25.5" rx="0"/></clipPath></defs><g clip-path="url(#master_svg0_6101_03804)"><path d="M6.5106418,3.70456049L3.31064129,11.1712279L3.3107789800000003,11.1712871Q3.25014997,11.3127546,3.25014997,11.4666672Q3.25014997,11.5405207,3.2645581999999997,11.6129556Q3.27896631,11.68539,3.30722892,11.753622100000001Q3.33549154,11.8218536,3.37652254,11.8832612Q3.41755348,11.944667800000001,3.46977597,11.996891Q3.52199849,12.0491123,3.58340567,12.0901432Q3.64481282,12.1311741,3.71304482,12.1594372Q3.78127682,12.1877003,3.85371152,12.2021084Q3.926146217,12.2165165,4,12.2165174Q4.11006206,12.2165165,4.21548176,12.1848888Q4.32090148,12.1532612,4.4127858,12.0926723Q4.50467008,12.0320845,4.57526779,11.947647100000001Q4.64586544,11.863209699999999,4.68922102,11.762047299999999L4.6893587100000005,11.7621064L7.2000005,5.9039431L9.710641899999999,11.7621064L9.710779200000001,11.762047299999999Q9.7541347,11.863209699999999,9.8247323,11.947647100000001Q9.895330000000001,12.0320845,9.9872146,12.0926723Q10.0790987,12.1532612,10.1845183,12.1848888Q10.289938,12.2165165,10.4000006,12.2165174Q10.4738541,12.2165165,10.546288,12.2021084Q10.6187229,12.1877003,10.686955000000001,12.1594372Q10.755187,12.1311741,10.8165946,12.0901432Q10.8780017,12.0491123,10.9302244,11.996891Q10.9824467,11.944667800000001,11.0234776,11.8832612Q11.064508400000001,11.8218536,11.0927715,11.753622100000001Q11.1210337,11.68539,11.135441799999999,11.6129551Q11.1498504,11.5405207,11.1498508,11.4666672Q11.1498508,11.3127546,11.089222,11.1712871L11.0893593,11.1712279L7.8893597,3.70456058Q7.832463300000001,3.5718022,7.7303312,3.46966994Q7.6281986,3.36753774,7.4954402,3.31064129Q7.4275441,3.28154308,7.3552759000000005,3.26624978Q7.2830075999999995,3.25095654,7.2091448,3.25005585Q7.1352816,3.24915516,7.0626621,3.26268178Q6.9900427,3.2762084,6.9214575,3.30364251Q6.8528721,3.33107662,6.790956700000001,3.37136388Q6.7290416,3.41165113,6.6761756000000005,3.46324337Q6.6233096,3.5148356,6.5815246,3.57575008Q6.5397396,3.6366646,6.5106418,3.70456049Z" fill-rule="evenodd" fill="#000000" fill-opacity="1" style="mix-blend-mode:passthrough"/><path d="M4,16.4833984375L20,16.4833984375L20,16.4832484675Q20.073853,16.4832484675,20.146288,16.4688402375Q20.218721,16.4544321275,20.286953,16.4261695175Q20.355186,16.3979068975,20.416594,16.3568758975Q20.478001,16.3158449575,20.530224,16.2636224675Q20.582447,16.2113999475,20.623476,16.1499927675Q20.664507,16.0885856175,20.69277,16.0203536175Q20.721031,15.9521216175,20.735439,15.8796869175Q20.749847,15.8072522205,20.749849,15.7333984375Q20.749847,15.6595446545,20.735439,15.5871099575Q20.721031,15.5146752575,20.692768,15.4464432575Q20.664505,15.3782112575,20.623474,15.3168041075Q20.582443,15.2553969275,20.530222,15.2031744075Q20.478001,15.1509519175,20.416592,15.1099209775Q20.355185,15.0688899775,20.286953,15.0406273575Q20.218721,15.0123647475,20.146286,14.9979566375Q20.073853,14.9835484075,20,14.9835484075L20,14.9833984375L4,14.9833984375L4,14.9835484075Q3.926146217,14.9835484075,3.85371152,14.9979566375Q3.78127682,15.0123647475,3.71304482,15.0406273575Q3.64481282,15.0688899775,3.58340567,15.1099209775Q3.52199849,15.1509519175,3.46977597,15.2031744075Q3.41755348,15.2553969275,3.37652254,15.3168041075Q3.33549154,15.3782112575,3.30722892,15.4464432575Q3.27896631,15.5146752575,3.2645581999999997,15.5871099575Q3.25014997,15.6595446545,3.25014997,15.7333984375Q3.25014997,15.8072522205,3.2645581999999997,15.8796869175Q3.27896631,15.9521216175,3.30722892,16.0203536175Q3.33549154,16.0885856175,3.37652254,16.1499927675Q3.41755348,16.2113999475,3.46977597,16.2636224675Q3.52199849,16.3158449575,3.58340567,16.3568758975Q3.64481282,16.3979068975,3.71304482,16.4261695175Q3.78127682,16.4544321275,3.85371152,16.4688402375Q3.926146217,16.4832484675,4,16.4832484675L4,16.4833984375Z" fill-rule="evenodd" fill="#000000" fill-opacity="1" style="mix-blend-mode:passthrough"/><path d="M20,19.25L4,19.25L4,19.25014997Q3.926146217,19.25014997,3.85371152,19.2645582Q3.78127682,19.27896631,3.71304482,19.30722892Q3.64481282,19.33549154,3.58340567,19.37652254Q3.52199849,19.41755348,3.46977597,19.46977597Q3.41755348,19.52199849,3.37652254,19.58340567Q3.33549154,19.64481282,3.30722892,19.71304482Q3.27896631,19.78127682,3.2645581999999997,19.85371152Q3.25014997,19.926146217,3.25014997,20Q3.25014997,20.073853783,3.2645581999999997,20.14628848Q3.27896631,20.21872318,3.30722892,20.28695518Q3.33549154,20.35518718,3.37652254,20.41659433Q3.41755348,20.47800151,3.46977597,20.53022403Q3.52199849,20.58244652,3.58340567,20.62347746Q3.64481282,20.66450846,3.71304482,20.69277108Q3.78127682,20.72103369,3.85371152,20.7354418Q3.926146217,20.74985003,4,20.74985003L4,20.75L20,20.75L20,20.74985003Q20.073853,20.74985003,20.146288,20.7354418Q20.218721,20.72103369,20.286953,20.69277108Q20.355186,20.66450846,20.416594,20.62347746Q20.478001,20.58244652,20.530224,20.53022403Q20.582447,20.47800151,20.623476,20.41659433Q20.664507,20.35518718,20.69277,20.28695518Q20.721031,20.21872318,20.735439,20.14628848Q20.749847,20.073853783,20.749849,20Q20.749847,19.926146217,20.735439,19.85371152Q20.721031,19.78127682,20.692768,19.71304482Q20.664505,19.64481282,20.623474,19.58340567Q20.582443,19.52199849,20.530222,19.46977597Q20.478001,19.41755348,20.416592,19.37652254Q20.355185,19.33549154,20.286953,19.30722892Q20.218721,19.27896631,20.146286,19.2645582Q20.073853,19.25014997,20,19.25014997L20,19.25Z" fill-rule="evenodd" fill="#000000" fill-opacity="1" style="mix-blend-mode:passthrough"/><path d="M13.5999755859375,12.2166748046875L19.9999761859375,12.2166748046875L19.9999761859375,12.2165248346875Q20.0738296859375,12.2165248346875,20.1462635859375,12.2021166046875Q20.2186984859375,12.1877084946875,20.2869305859375,12.1594458846875Q20.3551625859375,12.1311832646875,20.416570185937502,12.0901522646875Q20.4779772859375,12.0491213246875,20.5301999859375,11.9968988346875Q20.5824222859375,11.9446763146875,20.6234531859375,11.8832691346875Q20.6644839859375,11.8218619846875,20.692747085937498,11.7536299846875Q20.721009285937498,11.6853979846875,20.7354173859375,11.6129632846875Q20.7498259859375,11.5405285876875,20.7498263859375,11.4666748046875Q20.7498259859375,11.3928210216875,20.7354178859375,11.3203863246875Q20.721009285937498,11.2479516246875,20.6927466859375,11.1797196246875Q20.6644839859375,11.1114876246875,20.6234531859375,11.0500804746875Q20.5824222859375,10.9886732946875,20.5301999859375,10.9364507746875Q20.4779772859375,10.8842282846875,20.4165696859375,10.8431973446875Q20.3551625859375,10.8021663446875,20.2869305859375,10.7739037246875Q20.2186984859375,10.7456411146875,20.1462640859375,10.7312330046875Q20.0738296859375,10.7168247746875,19.9999761859375,10.7168247746875L19.9999761859375,10.7166748046875L13.5999755859375,10.7166748046875L13.5999755859375,10.7168247746875Q13.5261218029375,10.7168247746875,13.4536871059375,10.7312330046875Q13.3812524059375,10.7456411146875,13.3130204059375,10.7739037246875Q13.2447884059375,10.8021663446875,13.1833812559375,10.8431973446875Q13.1219740759375,10.8842282846875,13.0697515559375,10.9364507746875Q13.0175290659375,10.9886732946875,12.9764981259375,11.0500804746875Q12.9354671259375,11.1114876246875,12.9072045059375,11.1797196246875Q12.8789418959375,11.2479516246875,12.8645337859375,11.3203863246875Q12.8501255559375,11.3928210216875,12.8501255559375,11.4666748046875Q12.8501255559375,11.5405285876875,12.8645337859375,11.6129632846875Q12.8789418959375,11.6853979846875,12.9072045059375,11.7536299846875Q12.9354671259375,11.8218619846875,12.9764981259375,11.8832691346875Q13.0175290659375,11.9446763146875,13.0697515559375,11.9968988346875Q13.1219740759375,12.0491213246875,13.1833812559375,12.0901522646875Q13.2447884059375,12.1311832646875,13.3130204059375,12.1594458846875Q13.3812524059375,12.1877084946875,13.4536871059375,12.2021166046875Q13.5261218029375,12.2165248346875,13.5999755859375,12.2165248346875L13.5999755859375,12.2166748046875Z" fill-rule="evenodd" fill="#000000" fill-opacity="1" style="mix-blend-mode:passthrough"/><path d="M19.9999761859375,6.4500732421875L13.5999755859375,6.4500732421875L13.5999755859375,6.4502232121875Q13.5261218029375,6.4502232121875,13.4536871059375,6.4646314421875Q13.3812524059375,6.4790395521875,13.3130204059375,6.5073021621875Q13.2447884059375,6.5355647821875,13.1833812559375,6.5765957821875Q13.1219740759375,6.6176267221875005,13.0697515559375,6.6698492121875Q13.0175290659375,6.7220717321875,12.9764981259375,6.7834789121875Q12.9354671259375,6.8448860621875,12.9072045059375,6.9131180621875Q12.8789418959375,6.9813500621875,12.8645337859375,7.0537847621875Q12.8501255559375,7.1262194591875,12.8501255559375,7.2000732421875Q12.8501255559375,7.2739270251875,12.8645337859375,7.3463617221875Q12.8789418959375,7.4187964221875,12.9072045059375,7.4870284221875Q12.9354671259375,7.5552604221875,12.9764981259375,7.6166675721875Q13.0175290659375,7.6780747521875,13.0697515559375,7.7302972721875Q13.1219740759375,7.7825197621874995,13.1833812559375,7.8235507021875Q13.2447884059375,7.8645817021875,13.3130204059375,7.8928443221875Q13.3812524059375,7.9211069321875,13.4536871059375,7.9355150421875Q13.5261218029375,7.9499232721875,13.5999755859375,7.9499232721875L13.5999755859375,7.9500732421875L19.9999761859375,7.9500732421875L19.9999761859375,7.9499232721875Q20.0738296859375,7.9499232721875,20.1462635859375,7.9355150421875Q20.2186984859375,7.9211069321875,20.2869305859375,7.8928443221875Q20.3551625859375,7.8645817021875,20.416570185937502,7.8235507021875Q20.4779772859375,7.7825197621874995,20.5301999859375,7.7302972721875Q20.5824222859375,7.6780747521875,20.6234531859375,7.6166675721875Q20.6644839859375,7.5552604221875,20.692747085937498,7.4870284221875Q20.721009285937498,7.4187964221875,20.7354173859375,7.3463617221875Q20.7498259859375,7.2739270251875,20.7498263859375,7.2000732421875Q20.7498259859375,7.1262194591875,20.7354178859375,7.0537847621875Q20.721009285937498,6.9813500621875,20.6927466859375,6.9131180621875Q20.6644839859375,6.8448860621875,20.6234531859375,6.7834789121875Q20.5824222859375,6.7220717321875,20.5301999859375,6.6698492121875Q20.4779772859375,6.6176267221875005,20.4165696859375,6.5765957821875Q20.3551625859375,6.5355647821875,20.2869305859375,6.5073021621875Q20.2186984859375,6.4790395521875,20.1462640859375,6.4646314421875Q20.0738296859375,6.4502232121875,19.9999761859375,6.4502232121875L19.9999761859375,6.4500732421875Z" fill-rule="evenodd" fill="#000000" fill-opacity="1" style="mix-blend-mode:passthrough"/><path d="M9.199951171875,8.75L5.199951171875,8.75L5.199951171875,8.75014997Q5.126097388875,8.75014997,5.053662691875,8.7645582Q4.981227991875,8.77896631,4.912995991875,8.80722892Q4.844763991875,8.83549154,4.783356841875,8.87652254Q4.721949661875,8.91755348,4.669727141875,8.96977597Q4.6175046518750005,9.02199849,4.576473711875,9.08340567Q4.535442711875,9.14481282,4.507180091875,9.21304482Q4.478917481875,9.28127682,4.464509371875,9.35371152Q4.450101141875,9.426146217,4.450101141875,9.5Q4.450101141875,9.573853783,4.464509371875,9.64628848Q4.478917481875,9.71872318,4.507180091875,9.78695518Q4.535442711875,9.85518718,4.576473711875,9.91659433Q4.6175046518750005,9.97800151,4.669727141875,10.03022403Q4.721949661875,10.08244652,4.783356841875,10.12347746Q4.844763991875,10.16450846,4.912995991875,10.19277108Q4.981227991875,10.22103369,5.053662691875,10.2354418Q5.126097388875,10.24985003,5.199951171875,10.24985003L5.199951171875,10.25L9.199951171875,10.25L9.199951171875,10.24985003Q9.273804671875,10.24985003,9.346239571875,10.2354418Q9.418674471875,10.22103369,9.486906071875,10.19277108Q9.555138071875,10.16450846,9.616545171875,10.12347746Q9.677952771874999,10.08244652,9.730174971875,10.03022403Q9.782397271875,9.97800151,9.823428171875001,9.91659433Q9.864459071875,9.85518718,9.892722171875,9.78695518Q9.920984771875,9.71872318,9.935393371875,9.64628848Q9.949801471875,9.573853783,9.949801471875,9.5Q9.949801471875,9.426146217,9.935392871874999,9.35371152Q9.920984771875,9.28127682,9.892722171875,9.21304482Q9.864459071875,9.14481282,9.823428171875001,9.08340567Q9.782397271875,9.02199849,9.730174971875,8.96977597Q9.677952771874999,8.91755348,9.616545171875,8.87652254Q9.555138071875,8.83549154,9.486906071875,8.80722892Q9.418674471875,8.77896631,9.346239571875,8.7645582Q9.273804671875,8.75014997,9.199951171875,8.75014997L9.199951171875,8.75Z" fill-rule="evenodd" fill="#000000" fill-opacity="1" style="mix-blend-mode:passthrough"/></g></svg>