<svg xmlns="http://www.w3.org/2000/svg" xmlns:xlink="http://www.w3.org/1999/xlink" fill="none" version="1.1" width="24" height="24" viewBox="0 0 24 24"><defs><clipPath id="master_svg0_6101_03626"><rect x="-0.75" y="-0.75" width="25.5" height="25.5" rx="0"/></clipPath></defs><g clip-path="url(#master_svg0_6101_03626)"><path d="M8.2994623,3.23214686L1.79946113,20.232147L1.7996012000000001,20.232201Q1.75014997,20.361534,1.75014997,20.5Q1.75014997,20.573853,1.7645582,20.646288Q1.77896631,20.718721,1.80722892,20.786953Q1.83549154,20.855185,1.8765225399999999,20.916592Q1.91755348,20.978001,1.9697759700000002,21.030222Q2.02199849,21.082443,2.08340567,21.123474Q2.14481282,21.164505,2.21304482,21.192768Q2.28127682,21.221031,2.35371152,21.235439Q2.426146217,21.249847,2.5,21.249849Q2.61386496,21.249847,2.7225971700000002,21.216047Q2.83132938,21.182245,2.92512605,21.117689Q3.01892269,21.053135,3.08932763,20.963644Q3.15973246,20.874157,3.20039821,20.767801L3.20053887,20.767855L9.000001000000001,5.600031899999999L14.79946,20.767855L14.799602,20.767801Q14.840267,20.874157,14.910671,20.963646Q14.981077,21.053135,15.074874,21.117691Q15.168671,21.182247,15.277403,21.216047Q15.386135,21.249847,15.5,21.249849Q15.573853,21.249847,15.646287,21.235439Q15.718721,21.221031,15.786953,21.192768Q15.855186,21.164505,15.916594,21.123474Q15.978001,21.082443,16.030224,21.030222Q16.082445,20.978001,16.123476,20.916592Q16.164507,20.855185,16.19277,20.786953Q16.221033,20.718721,16.235441,20.646288Q16.249848999999998,20.573853,16.249850000000002,20.5Q16.249850000000002,20.361534,16.200398,20.232201L16.200538,20.232147L9.700540100000001,3.23214695Q9.6434221,3.08276033,9.5303316,2.96966994Q9.4172411,2.8565795400000003,9.2678542,2.79946113Q9.128507599999999,2.74618185,8.979379699999999,2.7502836Q8.8302517,2.7543853499999997,8.6940455,2.81524366Q8.5578384,2.87610197,8.4552898,2.98445153Q8.3527412,3.09280115,8.2994623,3.23214686Z" fill-rule="evenodd" fill="#000000" fill-opacity="1" style="mix-blend-mode:passthrough"/><path d="M14.5,6.75L21.5,6.75L21.5,6.74985003Q21.5738535,6.74985003,21.6462874,6.7354418Q21.7187223,6.72103369,21.7869544,6.69277108Q21.855186500000002,6.66450846,21.9165936,6.62347746Q21.9780006,6.5824465199999995,22.0302238,6.53022403Q22.0824461,6.47800151,22.123477,6.41659433Q22.1645079,6.35518718,22.19277,6.28695518Q22.2210331,6.21872318,22.2354412,6.14628848Q22.2498498,6.073853783,22.2498503,6Q22.2498498,5.926146217,22.2354417,5.85371152Q22.2210331,5.78127682,22.1927705,5.71304482Q22.1645079,5.64481282,22.123477,5.58340567Q22.0824456,5.52199849,22.0302234,5.46977597Q21.9780006,5.4175534800000005,21.9165931,5.37652254Q21.855186500000002,5.33549154,21.7869544,5.30722892Q21.7187223,5.27896631,21.6462879,5.2645582Q21.5738535,5.25014997,21.5,5.25014997L21.5,5.25L14.5,5.25L14.5,5.25014997Q14.426146217,5.25014997,14.35371152,5.2645582Q14.28127682,5.27896631,14.21304482,5.30722892Q14.14481282,5.33549154,14.08340567,5.37652254Q14.02199849,5.4175534800000005,13.96977597,5.46977597Q13.91755348,5.52199849,13.87652254,5.58340567Q13.83549154,5.64481282,13.80722892,5.71304482Q13.77896631,5.78127682,13.7645582,5.85371152Q13.75014997,5.926146217,13.75014997,6Q13.75014997,6.073853783,13.7645582,6.14628848Q13.77896631,6.21872318,13.80722892,6.28695518Q13.83549154,6.35518718,13.87652254,6.41659433Q13.91755348,6.47800151,13.96977597,6.53022403Q14.02199849,6.5824465199999995,14.08340567,6.62347746Q14.14481282,6.66450846,14.21304482,6.69277108Q14.28127682,6.72103369,14.35371152,6.7354418Q14.426146217,6.74985003,14.5,6.74985003L14.5,6.75Z" fill-rule="evenodd" fill="#000000" fill-opacity="1"/><path d="M5,15.2548828125L13,15.2548828125L13,15.2547328425Q13.0738535,15.2547328425,13.1462879,15.2403246125Q13.2187233,15.2259165025,13.2869549,15.1976538925Q13.3551865,15.1693912725,13.4165936,15.1283602725Q13.4780006,15.0873293325,13.5302238,15.0351068425Q13.5824451,14.9828843225,13.623477,14.9214771425Q13.6645069,14.8600699925,13.69277,14.7918379925Q13.7210331,14.7236059925,13.7354412,14.6511712925Q13.7498493,14.5787365955,13.7498503,14.5048828125Q13.7498493,14.4310290295,13.7354412,14.3585943325Q13.7210331,14.2861596325,13.69277,14.2179276325Q13.6645069,14.1496956325,13.623477,14.0882884825Q13.5824451,14.0268813025,13.5302238,13.9746587825Q13.4780006,13.9224362925,13.4165936,13.8814053525Q13.3551865,13.8403743525,13.2869549,13.8121117325Q13.2187233,13.7838491225,13.1462879,13.7694410125Q13.0738535,13.7550327825,13,13.7550327825L13,13.7548828125L5,13.7548828125L5,13.7550327825Q4.926146217,13.7550327825,4.85371152,13.7694410125Q4.78127682,13.7838491225,4.71304482,13.8121117325Q4.64481282,13.8403743525,4.58340567,13.8814053525Q4.52199849,13.9224362925,4.46977597,13.9746587825Q4.4175534800000005,14.0268813025,4.37652254,14.0882884825Q4.33549154,14.1496956325,4.30722892,14.2179276325Q4.27896631,14.2861596325,4.2645582,14.3585943325Q4.25014997,14.4310290295,4.25014997,14.5048828125Q4.25014997,14.5787365955,4.2645582,14.6511712925Q4.27896631,14.7236059925,4.30722892,14.7918379925Q4.33549154,14.8600699925,4.37652254,14.9214771425Q4.4175534800000005,14.9828843225,4.46977597,15.0351068425Q4.52199849,15.0873293325,4.58340567,15.1283602725Q4.64481282,15.1693912725,4.71304482,15.1976538925Q4.78127682,15.2259165025,4.85371152,15.2403246125Q4.926146217,15.2547328425,5,15.2547328425L5,15.2548828125Z" fill-rule="evenodd" fill="#000000" fill-opacity="1"/><path d="M16.5,12.75L21.5,12.75L21.5,12.74985003Q21.5738535,12.74985003,21.6462879,12.7354418Q21.7187223,12.72103369,21.786954899999998,12.69277108Q21.855186500000002,12.66450846,21.9165936,12.62347746Q21.9780006,12.58244652,22.0302238,12.53022403Q22.0824461,12.47800151,22.123477,12.41659433Q22.1645079,12.35518718,22.192771,12.28695518Q22.2210336,12.21872318,22.2354422,12.14628848Q22.2498503,12.073853783,22.2498503,12Q22.2498503,11.926146217,22.2354417,11.85371152Q22.2210331,11.78127682,22.1927705,11.71304482Q22.1645079,11.64481282,22.123477,11.58340567Q22.0824461,11.52199849,22.0302238,11.46977597Q21.9780006,11.41755348,21.9165936,11.37652254Q21.855186500000002,11.33549154,21.786954899999998,11.30722892Q21.7187223,11.27896631,21.6462879,11.2645582Q21.5738535,11.25014997,21.5,11.25014997L21.5,11.25L16.5,11.25L16.5,11.25014997Q16.426146217,11.25014997,16.35371152,11.2645582Q16.28127682,11.27896631,16.21304482,11.30722892Q16.14481282,11.33549154,16.08340567,11.37652254Q16.02199849,11.41755348,15.96977597,11.46977597Q15.91755348,11.52199849,15.87652254,11.58340567Q15.83549154,11.64481282,15.80722892,11.71304482Q15.77896631,11.78127682,15.7645582,11.85371152Q15.75014997,11.926146217,15.75014997,12Q15.75014997,12.073853783,15.7645582,12.14628848Q15.77896631,12.21872318,15.80722892,12.28695518Q15.83549154,12.35518718,15.87652254,12.41659433Q15.91755348,12.47800151,15.96977597,12.53022403Q16.02199849,12.58244652,16.08340567,12.62347746Q16.14481282,12.66450846,16.21304482,12.69277108Q16.28127682,12.72103369,16.35371152,12.7354418Q16.426146217,12.74985003,16.5,12.74985003L16.5,12.75Z" fill-rule="evenodd" fill="#000000" fill-opacity="1"/><path d="M18.5,18.75L21.5,18.75L21.5,18.74985003Q21.5738535,18.74985003,21.6462882,18.7354418Q21.718722800000002,18.72103369,21.7869549,18.69277108Q21.8551869,18.66450846,21.916594,18.62347746Q21.9780011,18.58244652,22.0302238,18.53022403Q22.0824461,18.47800151,22.123477,18.41659433Q22.1645079,18.35518718,22.1927705,18.28695518Q22.221033300000002,18.21872318,22.2354414,18.14628848Q22.2498498,18.073853783,22.24985,18Q22.2498498,17.926146217,22.2354417,17.85371152Q22.2210336,17.78127682,22.1927707,17.71304482Q22.1645081,17.64481282,22.123477,17.58340567Q22.0824461,17.52199849,22.0302238,17.46977597Q21.9780011,17.41755348,21.916594,17.37652254Q21.8551869,17.33549154,21.7869549,17.30722892Q21.718722800000002,17.27896631,21.6462882,17.2645582Q21.5738535,17.25014997,21.5,17.25014997L21.5,17.25L18.5,17.25L18.5,17.25014997Q18.426146217,17.25014997,18.35371152,17.2645582Q18.28127682,17.27896631,18.21304482,17.30722892Q18.14481282,17.33549154,18.08340567,17.37652254Q18.02199849,17.41755348,17.96977597,17.46977597Q17.91755348,17.52199849,17.87652254,17.58340567Q17.83549154,17.64481282,17.80722892,17.71304482Q17.77896631,17.78127682,17.7645582,17.85371152Q17.75014997,17.926146217,17.75014997,18Q17.75014997,18.073853783,17.7645582,18.14628848Q17.77896631,18.21872318,17.80722892,18.28695518Q17.83549154,18.35518718,17.87652254,18.41659433Q17.91755348,18.47800151,17.96977597,18.53022403Q18.02199849,18.58244652,18.08340567,18.62347746Q18.14481282,18.66450846,18.21304482,18.69277108Q18.28127682,18.72103369,18.35371152,18.7354418Q18.426146217,18.74985003,18.5,18.74985003L18.5,18.75Z" fill-rule="evenodd" fill="#000000" fill-opacity="1"/></g></svg>