<svg xmlns="http://www.w3.org/2000/svg" xmlns:xlink="http://www.w3.org/1999/xlink" fill="none" version="1.1" width="24" height="24" viewBox="0 0 24 24"><defs><clipPath id="master_svg0_973_41180"><rect x="0" y="0" width="24" height="24" rx="0"/></clipPath><clipPath id="master_svg1_3118_3534"><rect x="0" y="0" width="24" height="24" rx="0"/></clipPath></defs><g clip-path="url(#master_svg0_973_41180)"><g clip-path="url(#master_svg1_3118_3534)"></g><g><path d="M18.8931,5.10762754776001Q16.037599999999998,2.2531075477600098,12,2.2531075477600098Q7.9624,2.25310854776001,5.1068999999999996,5.10762754776001Q2.251394,7.96214754776001,2.250002,11.99973754776001Q2.248606,16.03930754776001,5.10452,18.89620754776001Q7.96043,21.75310754776001,12,21.75310754776001Q16.0396,21.75310754776001,18.8955,18.89620754776001Q21.7514,16.03930754776001,21.75,11.99973754776001Q21.7486,7.96214754776001,18.8931,5.10762754776001ZM6.16738,6.1684675477600095Q8.58357,3.7531075477600098,12,3.7531075477600098Q15.4164,3.7531075477600098,17.8326,6.1684675477600095Q20.2488,8.58382754776001,20.25,12.00025754776001Q20.2512,15.41830754776001,17.834600000000002,17.83570754776001Q15.4181,20.25310754776001,12,20.25310754776001Q8.581900000000001,20.25310754776001,6.16536,17.83570754776001Q3.748821,15.41830754776001,3.750002,12.00025754776001Q3.751179,8.58382754776001,6.16738,6.1684675477600095ZM11.25,5.99999754776001Q11.25,5.92612754776001,11.26441,5.853677547760009Q11.27882,5.78123754776001,11.30709,5.71298754776001Q11.33536,5.64473754776001,11.3764,5.58331754776001Q11.41744,5.52190754776001,11.46967,5.469667547760009Q11.5219,5.417437547760009,11.58332,5.37639754776001Q11.64474,5.33535754776001,11.71299,5.30708754776001Q11.78123,5.27881754776001,11.85368,5.26440754776001Q11.92613,5.24999754776001,12,5.24999754776001Q12.07387,5.24999754776001,12.14632,5.26440754776001Q12.21877,5.27881754776001,12.28701,5.30708754776001Q12.35526,5.33535754776001,12.41668,5.37639754776001Q12.4781,5.417437547760009,12.53033,5.469667547760009Q12.58256,5.52190754776001,12.6236,5.58331754776001Q12.66464,5.64473754776001,12.69291,5.71298754776001Q12.72118,5.78123754776001,12.73559,5.853677547760009Q12.75,5.92612754776001,12.75,5.99999754776001L12.75,11.24999754776001L16.5,11.24999754776001Q16.573900000000002,11.24999754776001,16.6463,11.26440754776001Q16.7188,11.27881754776001,16.787,11.307087547760009Q16.8553,11.33535754776001,16.9167,11.37639754776001Q16.978099999999998,11.41743754776001,17.0303,11.46966754776001Q17.0826,11.52190754776001,17.1236,11.583317547760009Q17.1646,11.644737547760009,17.1929,11.71298754776001Q17.2212,11.78122754776001,17.235599999999998,11.85368754776001Q17.25,11.926127547760009,17.25,11.99999754776001Q17.25,12.07386754776001,17.235599999999998,12.14631754776001Q17.2212,12.21876754776001,17.1929,12.287007547760009Q17.1646,12.35525754776001,17.1236,12.41667754776001Q17.0826,12.47809754776001,17.0303,12.53032754776001Q16.978099999999998,12.582567547760009,16.9167,12.62359754776001Q16.8553,12.66463754776001,16.787,12.69290754776001Q16.7188,12.72117754776001,16.6463,12.73558754776001Q16.573900000000002,12.74999754776001,16.5,12.74999754776001L12,12.74999754776001Q11.92613,12.74999754776001,11.85368,12.73558754776001Q11.78123,12.72117754776001,11.71299,12.69290754776001Q11.64474,12.66463754776001,11.58332,12.62359754776001Q11.5219,12.582567547760009,11.46967,12.53032754776001Q11.41744,12.47809754776001,11.3764,12.41667754776001Q11.33536,12.35525754776001,11.30709,12.287007547760009Q11.27882,12.21876754776001,11.26441,12.14631754776001Q11.25,12.07386754776001,11.25,11.99999754776001L11.25,5.99999754776001Z" fill-rule="evenodd" fill="#000000" fill-opacity="1"/></g></g></svg>