<svg xmlns="http://www.w3.org/2000/svg" xmlns:xlink="http://www.w3.org/1999/xlink" fill="none" version="1.1" width="24" height="24" viewBox="0 0 24 24"><defs><clipPath id="master_svg0_5856_02550"><rect x="0" y="0" width="24" height="24" rx="0"/></clipPath></defs><g clip-path="url(#master_svg0_5856_02550)"><g><path d="M11.254150390625,3Q11.254150390625,2.9261315,11.268561390624999,2.853682Q11.282972390625,2.781233,11.311240390625,2.712987Q11.339509390625,2.644742,11.380548390625,2.583322Q11.421587390625,2.521903,11.473820390625,2.46967Q11.526053390625,2.417437,11.587472390625,2.376398Q11.648892390625,2.335359,11.717137390625,2.30709Q11.785383390625,2.278822,11.857832390625,2.264411Q11.930281890625,2.25,12.004150390625,2.25Q12.078018890625,2.25,12.150468390625,2.264411Q12.222917390625,2.278822,12.291163390625,2.30709Q12.359408390625,2.335359,12.420828390625,2.376398Q12.482247390625,2.417437,12.534480390625,2.46967Q12.586713390625,2.521903,12.627752390625,2.583322Q12.668791390625,2.644742,12.697060390625,2.712987Q12.725328390625,2.781233,12.739739390625001,2.853682Q12.754150390625,2.9261315,12.754150390625,3L12.754150390625,16.9498Q12.754150390625,17.023600000000002,12.739739390625001,17.0961Q12.725328390625,17.1685,12.697060390625,17.236800000000002Q12.668791390625,17.305,12.627752390625,17.3664Q12.586713390625,17.427799999999998,12.534480390625,17.4801Q12.482247390625,17.5323,12.420828390625,17.5734Q12.359408390625,17.6144,12.291163390625,17.642699999999998Q12.222917390625,17.6709,12.150468390625,17.685299999999998Q12.078018890625,17.6998,12.004150390625,17.6998Q11.930281890625,17.6998,11.857832390625,17.685299999999998Q11.785383390625,17.6709,11.717137390625,17.642699999999998Q11.648892390625,17.6144,11.587472390625,17.5734Q11.526053390625,17.5323,11.473820390625,17.4801Q11.421587390625,17.427799999999998,11.380548390625,17.3664Q11.339509390625,17.305,11.311240390625,17.236800000000002Q11.282972390625,17.1685,11.268561390624999,17.0961Q11.254150390625,17.023600000000002,11.254150390625,16.9498L11.254150390625,3Z" fill-rule="evenodd" fill="#333333" fill-opacity="1" style="mix-blend-mode:passthrough"/></g><g><path d="M6.5304839999999995,10.469824L12,15.93934L17.4692,10.470132L17.4697,10.46967Q17.575200000000002,10.364181,17.713,10.30709Q17.8508,10.25,18,10.25Q18.073900000000002,10.25,18.1463,10.264410999999999Q18.2188,10.278822,18.287,10.30709Q18.3553,10.335359,18.4167,10.376398Q18.478099999999998,10.417437,18.5303,10.46967Q18.5826,10.521903,18.6236,10.583322Q18.6646,10.644742,18.6929,10.712987Q18.7212,10.781233,18.735599999999998,10.853682Q18.75,10.9261315,18.75,11Q18.75,11.149184,18.6929,11.287013Q18.6358,11.424841,18.5303,11.53033L12.53033,17.53033Q12.42484,17.63582,12.28701,17.69291Q12.149180000000001,17.75,12,17.75Q11.850819999999999,17.75,11.71299,17.69291Q11.57516,17.63582,11.46967,17.53033L5.469824,11.530484L5.46967,11.53033Q5.364181,11.424841,5.30709,11.287013Q5.25,11.149184,5.25,11Q5.25,10.9261315,5.264411,10.853682Q5.278822,10.781233,5.30709,10.712987Q5.335359,10.644742,5.376398,10.583322Q5.417437,10.521903,5.46967,10.46967Q5.521903,10.417437,5.583322,10.376398Q5.644742,10.335359,5.712987,10.30709Q5.781233,10.278822,5.853682,10.264410999999999Q5.9261315,10.25,6,10.25Q6.149184,10.25,6.287013,10.30709Q6.424841,10.364181,6.53033,10.46967L6.5304839999999995,10.469824Z" fill-rule="evenodd" fill="#333333" fill-opacity="1" style="mix-blend-mode:passthrough"/></g><g><path d="M6,20.25L18,20.25Q18.073900000000002,20.25,18.1463,20.264411Q18.2188,20.278822,18.287,20.30709Q18.3553,20.335359,18.4167,20.376398000000002Q18.478099999999998,20.417437,18.5303,20.46967Q18.5826,20.521903000000002,18.6236,20.583322Q18.6646,20.644742,18.6929,20.712987Q18.7212,20.781233,18.735599999999998,20.853682Q18.75,20.9261315,18.75,21Q18.75,21.0738685,18.735599999999998,21.146318Q18.7212,21.218767,18.6929,21.287013Q18.6646,21.355258,18.6236,21.416678Q18.5826,21.478096999999998,18.5303,21.53033Q18.478099999999998,21.582563,18.4167,21.623601999999998Q18.3553,21.664641,18.287,21.69291Q18.2188,21.721178,18.1463,21.735589Q18.073900000000002,21.75,18,21.75L6,21.75Q5.9261315,21.75,5.853682,21.735589Q5.781233,21.721178,5.712987,21.69291Q5.644742,21.664641,5.583322,21.623601999999998Q5.521903,21.582563,5.46967,21.53033Q5.417437,21.478096999999998,5.376398,21.416678Q5.335359,21.355258,5.30709,21.287013Q5.278822,21.218767,5.264411,21.146318Q5.25,21.0738685,5.25,21Q5.25,20.9261315,5.264411,20.853682Q5.278822,20.781233,5.30709,20.712987Q5.335359,20.644742,5.376398,20.583322Q5.417437,20.521903000000002,5.46967,20.46967Q5.521903,20.417437,5.583322,20.376398000000002Q5.644742,20.335359,5.712987,20.30709Q5.781233,20.278822,5.853682,20.264411Q5.9261315,20.25,6,20.25Z" fill-rule="evenodd" fill="#333333" fill-opacity="1" style="mix-blend-mode:passthrough"/></g></g></svg>