<svg xmlns="http://www.w3.org/2000/svg" xmlns:xlink="http://www.w3.org/1999/xlink" fill="none" version="1.1" width="24" height="24" viewBox="0 0 24 24"><defs><clipPath id="master_svg0_5856_02544"><rect x="0" y="0" width="24" height="24" rx="0"/></clipPath></defs><g clip-path="url(#master_svg0_5856_02544)"><g><path d="M11.254150390625,7.050300121307373Q11.254150390625,6.976431621307373,11.268561390624999,6.903982121307373Q11.282972390625,6.831533121307373,11.311240390625,6.763287121307373Q11.339509390625,6.695042121307373,11.380548390625,6.633622121307373Q11.421587390625,6.572203121307373,11.473820390625,6.519970121307373Q11.526053390625,6.467737121307373,11.587472390625,6.426698121307373Q11.648892390625,6.3856591213073735,11.717137390625,6.357390121307373Q11.785383390625,6.329122121307373,11.857832390625,6.314711121307373Q11.930281890625,6.300300121307373,12.004150390625,6.300300121307373Q12.078018890625,6.300300121307373,12.150468390625,6.314711121307373Q12.222917390625,6.329122121307373,12.291163390625,6.357390121307373Q12.359408390625,6.3856591213073735,12.420828390625,6.426698121307373Q12.482247390625,6.467737121307373,12.534480390625,6.519970121307373Q12.586713390625,6.572203121307373,12.627752390625,6.633622121307373Q12.668791390625,6.695042121307373,12.697060390625,6.763287121307373Q12.725328390625,6.831533121307373,12.739739390625001,6.903982121307373Q12.754150390625,6.976431621307373,12.754150390625,7.050300121307373L12.754150390625,21.000000121307373Q12.754150390625,21.073900121307375,12.739739390625001,21.146400121307373Q12.725328390625,21.218800121307375,12.697060390625,21.287100121307375Q12.668791390625,21.355300121307373,12.627752390625,21.41670012130737Q12.586713390625,21.47810012130737,12.534480390625,21.530400121307373Q12.482247390625,21.582600121307372,12.420828390625,21.623600121307373Q12.359408390625,21.664700121307373,12.291163390625,21.69300012130737Q12.222917390625,21.721200121307373,12.150468390625,21.73560012130737Q12.078018890625,21.750000121307373,12.004150390625,21.750000121307373Q11.930281890625,21.750000121307373,11.857832390625,21.73560012130737Q11.785383390625,21.721200121307373,11.717137390625,21.69300012130737Q11.648892390625,21.664700121307373,11.587472390625,21.623600121307373Q11.526053390625,21.582600121307372,11.473820390625,21.530400121307373Q11.421587390625,21.47810012130737,11.380548390625,21.41670012130737Q11.339509390625,21.355300121307373,11.311240390625,21.287100121307375Q11.282972390625,21.218800121307375,11.268561390624999,21.146400121307373Q11.254150390625,21.073900121307375,11.254150390625,21.000000121307373L11.254150390625,7.050300121307373Z" fill-rule="evenodd" fill="#333333" fill-opacity="1" style="mix-blend-mode:passthrough"/></g><g><path d="M17.469,13.5297L17.4697,13.53033Q17.575200000000002,13.635819999999999,17.713,13.692910000000001Q17.8508,13.75,18,13.75Q18.073900000000002,13.75,18.1463,13.73559Q18.2188,13.72118,18.287,13.692910000000001Q18.3553,13.66464,18.4167,13.6236Q18.478099999999998,13.58256,18.5303,13.53033Q18.5826,13.478100000000001,18.6236,13.41668Q18.6646,13.355260000000001,18.6929,13.28701Q18.7212,13.21877,18.735599999999998,13.14632Q18.75,13.07387,18.75,13Q18.75,12.850819999999999,18.6929,12.71299Q18.6358,12.57516,18.5303,12.46967L12.53033,6.46967Q12.42484,6.364181,12.28701,6.30709Q12.149180000000001,6.25,12,6.25Q11.850819999999999,6.25,11.71299,6.30709Q11.57516,6.364181,11.46967,6.46967L5.4701319999999996,12.46921L5.46967,12.46967Q5.364181,12.57516,5.30709,12.71299Q5.25,12.850819999999999,5.25,13Q5.25,13.07387,5.264411,13.14632Q5.278822,13.21877,5.30709,13.28701Q5.335359,13.355260000000001,5.376398,13.41668Q5.417437,13.478100000000001,5.46967,13.53033Q5.521903,13.58256,5.583322,13.6236Q5.644742,13.66464,5.712987,13.692910000000001Q5.781233,13.72118,5.853682,13.73559Q5.9261315,13.75,6,13.75Q6.149184,13.75,6.287013,13.692910000000001Q6.424841,13.635819999999999,6.53033,13.53033L6.530792,13.529869999999999L12,8.06066L17.469,13.5297Z" fill-rule="evenodd" fill="#333333" fill-opacity="1" style="mix-blend-mode:passthrough"/></g><g><path d="M6,2.25L18,2.25Q18.073900000000002,2.25,18.1463,2.264411Q18.2188,2.278822,18.287,2.30709Q18.3553,2.335359,18.4167,2.376398Q18.478099999999998,2.417437,18.5303,2.46967Q18.5826,2.521903,18.6236,2.583322Q18.6646,2.644742,18.6929,2.712987Q18.7212,2.781233,18.735599999999998,2.853682Q18.75,2.9261315,18.75,3Q18.75,3.0738685,18.735599999999998,3.146318Q18.7212,3.218767,18.6929,3.287013Q18.6646,3.355258,18.6236,3.416678Q18.5826,3.478097,18.5303,3.53033Q18.478099999999998,3.582563,18.4167,3.623602Q18.3553,3.664641,18.287,3.69291Q18.2188,3.721178,18.1463,3.735589Q18.073900000000002,3.75,18,3.75L6,3.75Q5.9261315,3.75,5.853682,3.735589Q5.781233,3.721178,5.712987,3.69291Q5.644742,3.664641,5.583322,3.623602Q5.521903,3.582563,5.46967,3.53033Q5.417437,3.478097,5.376398,3.416678Q5.335359,3.355258,5.30709,3.287013Q5.278822,3.218767,5.264411,3.146318Q5.25,3.0738685,5.25,3Q5.25,2.9261315,5.264411,2.853682Q5.278822,2.781233,5.30709,2.712987Q5.335359,2.644742,5.376398,2.583322Q5.417437,2.521903,5.46967,2.46967Q5.521903,2.417437,5.583322,2.376398Q5.644742,2.335359,5.712987,2.30709Q5.781233,2.278822,5.853682,2.264411Q5.9261315,2.25,6,2.25Z" fill-rule="evenodd" fill="#333333" fill-opacity="1" style="mix-blend-mode:passthrough"/></g></g></svg>