<svg xmlns="http://www.w3.org/2000/svg" xmlns:xlink="http://www.w3.org/1999/xlink" fill="none" version="1.1" width="24" height="24" viewBox="0 0 24 24"><defs><clipPath id="master_svg0_5824_09114"><rect x="0" y="0" width="24" height="24" rx="0"/></clipPath><clipPath id="master_svg1_5824_09117"><rect x="2" y="2" width="20" height="20" rx="0"/></clipPath></defs><g clip-path="url(#master_svg0_5824_09114)"><g clip-path="url(#master_svg1_5824_09117)"><g><path d="M2,18L2,6Q2,5.80349,2.0192611,5.60793Q2.0385222,5.41237,2.0768589,5.21964Q2.115196,5.02691,2.172239,4.83886Q2.229282,4.6508199999999995,2.304482,4.46927Q2.379682,4.28772,2.472315,4.1144099999999995Q2.5649480000000002,3.94111,2.674121,3.77772Q2.783295,3.61433,2.907958,3.46243Q3.03262,3.31052,3.17157,3.17157Q3.31052,3.03262,3.46243,2.907958Q3.61433,2.783295,3.77772,2.674121Q3.94111,2.5649480000000002,4.1144099999999995,2.472315Q4.28772,2.379682,4.46927,2.304482Q4.6508199999999995,2.229282,4.83886,2.172239Q5.02691,2.115196,5.21964,2.0768589Q5.41237,2.0385222,5.60793,2.0192611Q5.80349,2,6,2L18,2Q18.1965,2,18.3921,2.0192611Q18.5876,2.0385222,18.7804,2.0768589Q18.9731,2.115196,19.1611,2.172239Q19.3492,2.229282,19.5307,2.304482Q19.7123,2.379682,19.8856,2.472315Q20.0589,2.5649480000000002,20.2223,2.674121Q20.3857,2.783295,20.5376,2.907958Q20.6895,3.03262,20.8284,3.17157Q20.9674,3.31052,21.092,3.46243Q21.2167,3.61433,21.3259,3.77772Q21.435,3.94111,21.5277,4.1144099999999995Q21.6203,4.28772,21.6955,4.46927Q21.7707,4.6508199999999995,21.8278,4.83886Q21.8848,5.02691,21.9231,5.21964Q21.9615,5.41237,21.9807,5.60793Q22,5.80349,22,6L22,18Q22,18.1965,21.9807,18.3921Q21.9615,18.5876,21.9231,18.7804Q21.8848,18.9731,21.8278,19.1611Q21.7707,19.3492,21.6955,19.5307Q21.6203,19.7123,21.5277,19.8856Q21.435,20.0589,21.3259,20.2223Q21.2167,20.3857,21.092,20.5376Q20.9674,20.6895,20.8284,20.8284Q20.6895,20.9674,20.5376,21.092Q20.3857,21.2167,20.2223,21.3259Q20.0589,21.435,19.8856,21.5277Q19.7123,21.6203,19.5307,21.6955Q19.3492,21.7707,19.1611,21.8278Q18.9731,21.8848,18.7804,21.9231Q18.5876,21.9615,18.3921,21.9807Q18.1965,22,18,22L6,22Q5.80349,22,5.60793,21.9807Q5.41237,21.9615,5.21964,21.9231Q5.02691,21.8848,4.83886,21.8278Q4.6508199999999995,21.7707,4.46927,21.6955Q4.28772,21.6203,4.1144099999999995,21.5277Q3.94111,21.435,3.77772,21.3259Q3.61433,21.2167,3.46243,21.092Q3.31052,20.9674,3.17157,20.8284Q3.03262,20.6895,2.907958,20.5376Q2.783295,20.3857,2.674121,20.2223Q2.5649480000000002,20.0589,2.472315,19.8856Q2.379682,19.7123,2.304482,19.5307Q2.229282,19.3492,2.172239,19.1611Q2.115196,18.9731,2.0768589,18.7804Q2.0385222,18.5876,2.0192611,18.3921Q2,18.1965,2,18ZM12.4962,5.85622C12.5006,5.860469999999999,12.505,5.8648299999999995,12.5092,5.8693L15.4569,8.96392C15.6035,9.11767,15.5977,9.36112,15.4439,9.50769C15.3724,9.575890000000001,15.2773,9.61394,15.1785,9.61392L14.1531,9.61392C13.9407,9.61392,13.7685,9.78611,13.7685,9.998529999999999L13.7685,11.92315C13.7685,12.1356,13.5963,12.3078,13.3839,12.3078L11.07616,12.3078C10.86374,12.3078,10.69154,12.1356,10.69154,11.92315L10.69154,9.998529999999999C10.69154,9.78611,10.51934,9.61392,10.30693,9.61392L9.28154,9.61392C9.06912,9.613959999999999,8.89685,9.441790000000001,8.89685,9.22937C8.89685,9.13053,8.93487,9.03546,9.00308,8.96392L11.95308,5.8693C12.0996,5.71551,12.3431,5.70962,12.4962,5.85622ZM11.66697,13.3025C12.9936,13.3025,13.7629,13.764,13.7629,15.5912C13.7629,17.424,12.9936,17.8794,11.66697,17.8794C10.34594,17.8794,9.57056,17.424,9.57056,15.5907C9.57056,13.764,10.34594,13.3025,11.66697,13.3025ZM9.14129,13.623C9.14129,13.4814,9.026489999999999,13.3666,8.884879999999999,13.3666L6.00641,13.3666C5.8648,13.3666,5.75,13.4814,5.75,13.623L5.75,14.2256C5.75,14.3672,5.8648,14.482,6.00641,14.482L6.55103,14.482C6.69264,14.482,6.80744,14.5968,6.80744,14.7384L6.80744,17.5589C6.80744,17.700499999999998,6.92224,17.8153,7.06385,17.8153L7.82077,17.8153C7.96238,17.8153,8.07718,17.700499999999998,8.07718,17.5589L8.07718,14.7384C8.07718,14.5968,8.191980000000001,14.482,8.333590000000001,14.482L8.884879999999999,14.482C9.026489999999999,14.482,9.14129,14.3672,9.14129,14.2256L9.14129,13.623ZM18.0644,14.9497C18.0644,13.8025,17.628500000000003,13.3666,16.2244,13.3666L14.7501,13.3666C14.6085,13.3666,14.4937,13.4814,14.4937,13.623L14.4937,17.5589C14.4937,17.700499999999998,14.6085,17.8153,14.7501,17.8153L15.5131,17.8153C15.6548,17.8153,15.7695,17.700499999999998,15.7695,17.5589L15.7695,16.8599C15.7695,16.7183,15.8843,16.6035,16.026,16.6035L16.2244,16.6035C17.5578,16.6035,18.0644,16.1999,18.0644,14.9497ZM11.667,14.3348C11.05777,14.3348,10.91674,14.623,10.91674,15.5912C10.91674,16.5461,11.05777,16.8281,11.667,16.8281C12.2757,16.8281,12.4229,16.5461,12.4229,15.5912C12.4229,14.623,12.2757,14.3348,11.667,14.3348ZM16.026,14.3476L16.0383,14.3476C16.5578,14.3476,16.762900000000002,14.4886,16.762900000000002,14.982C16.762900000000002,15.4497,16.5706,15.5912,16.0383,15.5912L16.026,15.5912C15.8844,15.5912,15.7696,15.4764,15.7696,15.3348L15.7696,14.604C15.7696,14.4624,15.8844,14.3476,16.026,14.3476Z" fill-rule="evenodd" fill="#FF294D" fill-opacity="1"/></g></g></g></svg>