<svg xmlns="http://www.w3.org/2000/svg" xmlns:xlink="http://www.w3.org/1999/xlink" fill="none" version="1.1" width="24" height="24" viewBox="0 0 24 24"><defs><clipPath id="master_svg0_5518_09116"><rect x="0" y="0" width="24" height="24" rx="0"/></clipPath><clipPath id="master_svg1_5518_09117"><rect x="0" y="0" width="24" height="24" rx="0"/></clipPath><clipPath id="master_svg2_5518_09118"><rect x="0" y="24" width="24" height="24" rx="0"/></clipPath></defs><g clip-path="url(#master_svg0_5518_09116)"><g clip-path="url(#master_svg1_5518_09117)"></g><g transform="matrix(1,0,0,-1,0,48)" clip-path="url(#master_svg2_5518_09118)"><g><g><path d="M14.475,40.05L3.675,40.05C3.302208,40.05,3,39.7478,3,39.375C3,39.0022,3.302208,38.7,3.675,38.7L14.475,38.7Q16.618499999999997,38.7,18.1343,37.1843Q19.65,35.66852,19.65,33.52498Q19.65,31.381439999999998,18.1343,29.86572Q16.618499999999997,28.35,14.475,28.35L10.425,28.35C10.052209999999999,28.35,9.75,28.04779,9.75,27.675C9.75,27.302208,10.052209999999999,27,10.425,27L14.475,27.000000697374Q17.1777,27.000000590086,19.0889,28.91112Q21,30.82225,21,33.52498Q21,36.22771,19.0889,38.1389Q17.1777,40.05,14.475,40.05Z" fill-rule="evenodd" fill="#38363C" fill-opacity="1" style="mix-blend-mode:passthrough"/></g><g><path d="M8.85000011920929,34.874999809265134C8.85000011920929,35.05402080926514,8.77888011920929,35.22570980926513,8.65230011920929,35.35229980926513L8.65230011920929,35.35229980926513L4.62959011920929,39.374999809265134L8.65230011920929,43.397699809265134C8.77888011920929,43.524289809265134,8.85000011920929,43.69597980926514,8.85000011920929,43.874999809265134C8.85000011920929,44.24779980926514,8.547790119209289,44.54999980926514,8.17500011920929,44.54999980926514C7.99598011920929,44.54999980926514,7.82429011920929,44.47889980926514,7.69770011920929,44.35229980926513L7.69770011920929,44.35229980926513L3.1977031192092897,39.85229980926513C3.0711159192092894,39.72570980926514,3.0000001192092896,39.554019809265135,3.0000001192092896,39.374999809265134C3.0000001192092896,39.19597980926514,3.0711159192092894,39.024289809265134,3.1977031192092897,38.897699809265134L7.697290119209289,34.398118809265135L7.697290119209289,34.398118809265135C7.82429011920929,34.27111560926514,7.99598011920929,34.19999980926514,8.17500011920929,34.19999980926514C8.547790119209289,34.19999980926514,8.85000011920929,34.50220780926514,8.85000011920929,34.874999809265134Z" fill-rule="evenodd" fill="#38363C" fill-opacity="1" style="mix-blend-mode:passthrough"/></g></g></g></g></svg>