<svg xmlns="http://www.w3.org/2000/svg" xmlns:xlink="http://www.w3.org/1999/xlink" fill="none" version="1.1" width="24" height="24" viewBox="0 0 24 24"><defs><clipPath id="master_svg0_5732_08104"><rect x="0" y="0" width="24" height="24" rx="0"/></clipPath></defs><g clip-path="url(#master_svg0_5732_08104)"><g><path d="M17.469,15.5297L17.4697,15.53033Q17.575200000000002,15.635819999999999,17.713,15.692910000000001Q17.8508,15.75,18,15.75Q18.073900000000002,15.75,18.1463,15.73559Q18.2188,15.72118,18.287,15.692910000000001Q18.3553,15.66464,18.4167,15.6236Q18.478099999999998,15.58256,18.5303,15.53033Q18.5826,15.478100000000001,18.6236,15.41668Q18.6646,15.355260000000001,18.6929,15.28701Q18.7212,15.21877,18.735599999999998,15.14632Q18.75,15.07387,18.75,15Q18.75,14.850819999999999,18.6929,14.71299Q18.6358,14.57516,18.5303,14.46967L12.53033,8.46967Q12.42484,8.364181,12.28701,8.30709Q12.149180000000001,8.25,12,8.25Q11.850819999999999,8.25,11.71299,8.30709Q11.57516,8.364181,11.46967,8.46967L5.4701319999999996,14.46921L5.46967,14.46967Q5.364181,14.57516,5.30709,14.71299Q5.25,14.850819999999999,5.25,15Q5.25,15.07387,5.264411,15.14632Q5.278822,15.21877,5.30709,15.28701Q5.335359,15.355260000000001,5.376398,15.41668Q5.417437,15.478100000000001,5.46967,15.53033Q5.521903,15.58256,5.583322,15.6236Q5.644742,15.66464,5.712987,15.692910000000001Q5.781233,15.72118,5.853682,15.73559Q5.9261315,15.75,6,15.75Q6.149184,15.75,6.287013,15.692910000000001Q6.424841,15.635819999999999,6.53033,15.53033L6.530792,15.529869999999999L12,10.06066L17.469,15.5297Z" fill-rule="evenodd" fill="#000000" fill-opacity="1" style="mix-blend-mode:passthrough"/></g></g></svg>