<svg xmlns="http://www.w3.org/2000/svg" xmlns:xlink="http://www.w3.org/1999/xlink" fill="none" version="1.1" width="24" height="24" viewBox="0 0 24 24"><defs><clipPath id="master_svg0_29_4805"><rect x="0" y="0" width="24" height="24" rx="0"/></clipPath></defs><g clip-path="url(#master_svg0_29_4805)"><g><path d="M11.541818641967774,3.4581842384185792Q10.333628641967774,2.250000238418579,8.624998641967775,2.250000238418579Q6.9163686419677735,2.250000238418579,5.708188641967773,3.4581842384185792Q4.499998641967773,4.666370238418579,4.499998641967773,6.375000238418579Q4.499998641967773,8.083630238418579,5.708188641967773,9.29182023841858Q6.9163686419677735,10.500000238418579,8.624998641967775,10.500000238418579Q10.333628641967774,10.500000238418579,11.541818641967774,9.29182023841858Q12.749998641967773,8.083630238418579,12.749998641967773,6.375000238418579Q12.749998641967773,4.666370238418579,11.541818641967774,3.4581842384185792ZM6.768848641967773,4.518840238418579Q7.537688641967773,3.750000238418579,8.624998641967775,3.750000238418579Q9.712308641967773,3.750000238418579,10.481158641967774,4.518840238418579Q11.249998641967773,5.287690238418579,11.249998641967773,6.375000238418579Q11.249998641967773,7.4623102384185795,10.481158641967774,8.231160238418578Q9.712308641967773,9.000000238418579,8.624998641967775,9.000000238418579Q7.537688641967773,9.000000238418579,6.768848641967773,8.231160238418578Q5.999998641967773,7.4623102384185795,5.999998641967773,6.375000238418579Q5.999998641967773,5.287690238418579,6.768848641967773,4.518840238418579ZM20.011498641967773,6.238510238418579Q19.022998641967774,5.250000238418579,17.62499864196777,5.250000238418579Q16.226998641967775,5.250000238418579,15.238498641967773,6.238510238418579Q14.249998641967773,7.227030238418579,14.249998641967773,8.625000238418579Q14.249998641967773,10.02297023841858,15.238498641967773,11.01149023841858Q16.226998641967775,12.000000238418579,17.62499864196777,12.000000238418579Q19.022998641967774,12.000000238418579,20.011498641967773,11.01149023841858Q20.999998641967775,10.02297023841858,20.999998641967775,8.625000238418579Q20.999998641967775,7.227030238418579,20.011498641967773,6.238510238418579ZM16.299198641967774,7.299170238418579Q16.848298641967773,6.750000238418579,17.62499864196777,6.750000238418579Q19.499998641967775,6.750000238418579,19.499998641967775,8.625000238418579Q19.499998641967775,10.500000238418579,17.62499864196777,10.500000238418579Q16.848298641967773,10.500000238418579,16.299198641967774,9.950830238418579Q15.749998641967773,9.40165023841858,15.749998641967773,8.625000238418579Q15.749998641967773,7.848350238418579,16.299198641967774,7.299170238418579ZM8.622738641967773,21.75000023841858Q12.177638641967773,21.75600023841858,15.235198641967774,19.96660023841858Q16.409998641967775,20.25120023841858,17.623898641967774,20.25000023841858Q19.969498641967775,20.25340023841858,22.075898641967772,19.221500238418578Q22.166798641967773,19.17700023841858,22.242698641967774,19.11000023841858Q22.318498641967775,19.04300023841858,22.373798641967774,18.95830023841858Q22.429198641967773,18.87350023841858,22.46009864196777,18.77720023841858Q22.491098641967774,18.680800238418577,22.495298641967775,18.57970023841858Q22.650898641967775,14.902000238418578,19.156298641967773,13.745500238418579Q16.21189864196777,12.77105023841858,14.279498641967773,14.77890023841858Q13.185598641967774,13.33300023841858,11.456858641967774,12.58392023841858Q9.217278641967773,11.613470238418579,6.853078641967773,12.220130238418578Q4.488868641967773,12.82680023841858,2.9932746419677736,14.755700238418578Q1.4976766419677734,16.68460023841858,1.4990316419677734,19.13190023841858L1.5000306419677734,19.24090023841858Q1.5009126419677734,19.33700023841858,1.5260036419677734,19.42980023841858Q1.5510946419677736,19.52260023841858,1.5987726419677735,19.60600023841858Q1.6464506419677734,19.689500238418578,1.7136336419677733,19.758200238418578Q1.7808176419677735,19.82700023841858,1.8631636419677735,19.87650023841858Q4.9750186419677735,21.75000023841858,8.622738641967773,21.75000023841858ZM15.092098641967773,16.12930023841858Q15.627798641967773,17.27510023841858,15.727298641967774,18.54110023841858Q16.661198641967772,18.751000238418577,17.626098641967772,18.75000023841858Q19.390198641967775,18.75260023841858,20.995298641967775,18.06720023841858Q20.884198641967775,15.897300238418579,18.685098641967773,15.169500238418578Q16.477798641967773,14.439100238418579,15.092098641967773,16.12930023841858ZM13.555498641967773,16.41580023841858Q14.173198641967774,17.53560023841858,14.241498641967773,18.80660023841858Q11.634688641967774,20.255100238418578,8.625268641967773,20.25000023841858Q5.607548641967774,20.25000023841858,3.0067656419677733,18.80550023841858Q3.0948806419677735,17.07260023841858,4.178688641967773,15.674800238418579Q5.3594286419677735,14.152000238418578,7.225898641967773,13.673100238418579Q9.092378641967773,13.19410023841858,10.860468641967774,13.96030023841858Q12.628598641967773,14.726400238418579,13.555498641967773,16.41580023841858Z" fill-rule="evenodd" fill="#000000" fill-opacity="1" style="mix-blend-mode:passthrough"/></g></g></svg>