<svg xmlns="http://www.w3.org/2000/svg" xmlns:xlink="http://www.w3.org/1999/xlink" fill="none" version="1.1" width="24" height="24" viewBox="0 0 24 24"><defs><clipPath id="master_svg0_5510_08037"><rect x="0" y="0" width="24" height="24" rx="0"/></clipPath></defs><g clip-path="url(#master_svg0_5510_08037)"><g><path d="M15.181,2.818019Q13.86296,1.5,11.998999999999999,1.5Q10.13504,1.5,8.81702,2.818019Q7.4990000000000006,4.1360399999999995,7.4990000000000006,6Q7.4990000000000006,7.86396,8.81702,9.18198Q10.13504,10.5,11.998999999999999,10.5Q13.86296,10.5,15.181,9.18198Q16.499000000000002,7.86396,16.499000000000002,6Q16.499000000000002,4.1360399999999995,15.181,2.818019ZM9.87768,3.87868Q10.75636,3,11.998999999999999,3Q13.24164,3,14.12032,3.87868Q14.999,4.75736,14.999,6Q14.999,7.24264,14.12032,8.12132Q13.24164,9,11.998999999999999,9Q10.75636,9,9.87768,8.12132Q8.998999999999999,7.24264,8.998999999999999,6Q8.998999999999999,4.75736,9.87768,3.87868ZM5.441387,21.3209Q8.59815,22.4998,11.997869999999999,22.5L11.997910000000001,22.5L11.99911,22.5Q15.3824,22.5044,18.5524,21.3221Q19.3617,21.0202,19.802799999999998,20.2948Q20.2656,19.5336,20.099899999999998,18.6725Q19.545099999999998,15.7907,17.2797,13.9018Q14.9875,11.99046,11.998999999999999,11.99046Q9.01051,11.99046,6.71826,13.9018Q4.4529258,15.7907,3.8981500000000002,18.6725Q3.732509,19.533,4.192687,20.2929Q4.632243,21.0187,5.441387,21.3209ZM11.997959999999999,21L11.997910000000001,21Q8.86913,20.9998,5.96616,19.9157Q5.238674,19.644,5.371106,18.9561Q5.82468,16.599899999999998,7.67887,15.0538Q9.55383,13.4905,11.998999999999999,13.4905Q14.44417,13.4905,16.3191,15.0538Q18.173299999999998,16.599899999999998,18.6269,18.9561Q18.7593,19.6439,18.0282,19.9166Q15.1127,21.004,12.00105,21L11.997959999999999,21Z" fill-rule="evenodd" fill="#000000" fill-opacity="1"/></g></g></svg>