<svg xmlns="http://www.w3.org/2000/svg" xmlns:xlink="http://www.w3.org/1999/xlink" fill="none" version="1.1" width="24" height="24" viewBox="0 0 24 24"><defs><clipPath id="master_svg0_5898_02684"><rect x="0" y="0" width="24" height="24" rx="0"/></clipPath></defs><g clip-path="url(#master_svg0_5898_02684)"><g><path d="M14.651699007034301,4.098349Q13.553299007034301,3,11.999999007034301,3Q10.4466990070343,3,9.348349007034301,4.098349Q8.249999007034301,5.1967,8.249999007034301,6.75Q8.249999007034301,8.3033,9.348349007034301,9.40165Q10.4466990070343,10.5,11.999999007034301,10.5Q13.553299007034301,10.5,14.651699007034301,9.40165Q15.749999007034301,8.3033,15.749999007034301,6.75Q15.749999007034301,5.1967,14.651699007034301,4.098349ZM10.409009007034301,5.15901Q11.068019007034302,4.5,11.999999007034301,4.5Q12.931999007034301,4.5,13.590999007034302,5.15901Q14.249999007034301,5.818020000000001,14.249999007034301,6.75Q14.249999007034301,7.681979999999999,13.590999007034302,8.34099Q12.931999007034301,9,11.999999007034301,9Q11.068019007034302,9,10.409009007034301,8.34099Q9.749999007034301,7.681979999999999,9.749999007034301,6.75Q9.749999007034301,5.818020000000001,10.409009007034301,5.15901ZM7.370959007034302,7.62909Q6.4923390070343014,6.75078,5.249999007034302,6.75078Q4.0076590070343014,6.75078,3.129046007034302,7.62909Q2.2504289750343016,8.5074,2.2500000570343017,9.74974Q2.249570607034302,10.99268,3.1283130070343015,11.87173Q4.007059007034302,12.75078,5.249999007034302,12.75078Q6.492939007034302,12.75078,7.371689007034302,11.87173Q8.250429007034302,10.99269,8.249999007034301,9.74974Q8.249569007034303,8.5074,7.370959007034302,7.62909ZM20.8705990070343,7.6295Q19.991999007034302,6.75155,18.7499990070343,6.75155Q17.5079990070343,6.75155,16.6293990070343,7.6295Q15.750899007034302,8.50745,15.749999007034301,9.74948Q15.749099007034301,10.99273,16.6278990070343,11.87214Q17.506799007034303,12.75155,18.7499990070343,12.75155Q19.993199007034303,12.75155,20.8720990070343,11.87214Q21.750899007034302,10.99273,21.7499990070343,9.74948Q21.749099007034303,8.50745,20.8705990070343,7.6295ZM3.749999007034302,9.75026Q3.7505190070343017,8.250779999999999,5.249999007034302,8.250779999999999Q6.749479007034302,8.250779999999999,6.749999007034302,9.75026Q6.7502190070343016,10.37173,6.310839007034302,10.811250000000001Q5.871469007034301,11.250779999999999,5.249999007034302,11.250779999999999Q4.628529007034302,11.250779999999999,4.189159007034302,10.811250000000001Q3.749789007034302,10.37173,3.749999007034302,9.75026ZM17.2499990070343,9.75052Q17.250999007034302,8.25155,18.7499990070343,8.25155Q20.248999007034303,8.25155,20.2499990070343,9.75052Q20.2503990070343,10.37214,19.8109990070343,10.81185Q19.371599007034302,11.25155,18.7499990070343,11.25155Q18.128399007034304,11.25155,17.6889990070343,10.81185Q17.249599007034302,10.37214,17.2499990070343,9.75052ZM7.555269007034302,15.9537Q6.756079007034302,17.2202,6.749989007034301,18.722Q6.749459007034302,18.8388,6.754039007034302,18.9553Q9.194909007034301,20.25,11.999999007034301,20.25Q14.796799007034302,20.2545,17.246099007034303,18.9551Q17.2497990070343,18.8594,17.2499990070343,18.761699999999998L17.249399007034302,18.7432Q17.2489990070343,18.731099999999998,17.2489990070343,18.719Q17.2489990070343,18.7021,17.2497990070343,18.685200000000002Q17.234999007034304,17.1903,16.4285990070343,15.9284Q16.427999007034302,15.9274,16.4272990070343,15.9264L16.4265990070343,15.9252L16.426099007034303,15.9243Q14.878499007034302,13.49805,11.999619007034301,13.5Q9.122149007034302,13.49852,7.574949007034302,15.9243L7.574389007034302,15.9252Q7.5651590070343016,15.9397,7.555269007034302,15.9537ZM6.719739007034302,14.5323Q5.075299007034301,13.7653,3.367189007034302,14.7578Q1.3228410070343017,15.9457,1.5134400070343017,18.302500000000002Q1.5222060070343018,18.410800000000002,1.5613940070343018,18.5123Q1.6005820070343018,18.6137,1.6669650070343018,18.6998Q1.7333470070343018,18.786,1.8214580070343018,18.8497Q1.9095680070343017,18.9134,2.0121500070343017,18.9495Q3.6157390070343016,19.5135,5.291939007034301,19.5019Q5.302009007034302,19.5893,5.332079007034302,19.6721Q5.362149007034302,19.7549,5.410559007034301,19.8284Q5.458979007034301,19.902,5.5231190070343015,19.9623Q5.587249007034302,20.0226,5.663619007034302,20.0665Q8.596459007034301,21.75,11.999999007034301,21.75Q15.392599007034303,21.7554,18.336199007034303,20.0665Q18.412699007034302,20.0227,18.4768990070343,19.9622Q18.5411990070343,19.9018,18.589599007034302,19.8281Q18.638099007034302,19.7545,18.6680990070343,19.671599999999998Q18.6981990070343,19.5887,18.708199007034302,19.5011L18.708199007034302,19.500999999999998Q20.384699007034303,19.5095,21.988399007034303,18.948999999999998Q22.0912990070343,18.9131,22.1795990070343,18.8494Q22.267899007034302,18.7857,22.334499007034303,18.6995Q22.4010990070343,18.613300000000002,22.4403990070343,18.5118Q22.479699007034302,18.4102,22.488499007034303,18.3016Q22.6797990070343,15.9441,20.634599007034303,14.7559Q18.9254990070343,13.763,17.2804990070343,14.5313Q15.334799007034302,11.99774,12.000389007034302,12Q8.665219007034302,11.99829,6.719739007034302,14.5323ZM18.089599007034302,15.8284Q18.5901990070343,16.858800000000002,18.711399007034302,18.0009Q19.8717990070343,18.006999999999998,20.9910990070343,17.691499999999998Q20.886199007034303,16.6369,19.8810990070343,16.0529Q18.970099007034303,15.5237,18.089599007034302,15.8284ZM5.288859007034302,18.0017Q4.129439007034302,18.0104,3.0110060070343017,17.6935Q3.1157830070343016,16.6387,4.1208090070343015,16.0548Q5.030549007034302,15.5261,5.910179007034301,15.8294Q5.410229007034301,16.8595,5.288859007034302,18.0017Z" fill-rule="evenodd" fill="#000000" fill-opacity="1" style="mix-blend-mode:passthrough"/></g></g></svg>