<svg xmlns="http://www.w3.org/2000/svg" xmlns:xlink="http://www.w3.org/1999/xlink" fill="none" version="1.1" width="24" height="24" viewBox="0 0 24 24"><defs><clipPath id="master_svg0_5936_02713"><rect x="0" y="0" width="24" height="24" rx="0"/></clipPath></defs><g clip-path="url(#master_svg0_5936_02713)"><g><ellipse cx="12" cy="12" rx="12" ry="12" fill="#F3F4F6" fill-opacity="1"/></g><g><rect x="9.391357421875" y="11.86376953125" width="5.217391014099121" height="5.954629898071289" rx="0" fill="#D1D5DB" fill-opacity="1"/></g><g><path d="M12.000081875,14.6089628515625C9.694891875,14.6089628515625,7.826171875,12.7402428515625,7.826171875,10.4350528515625L7.826171875,8.8698328515625C7.826171875,6.5646428515625,9.694891875,4.6959228515625,12.000081875,4.6959228515625C14.305271874999999,4.6959228515625,16.174001875000002,6.5646428515625,16.174001875000002,8.8698328515625L16.174001875000002,10.4350528515625C16.174001875000002,12.7402428515625,14.305271874999999,14.6089628515625,12.000081875,14.6089628515625Z" fill-rule="evenodd" fill="#E5E7EB" fill-opacity="1"/></g><g><path d="M12.0000231640625,24.000051679687502C15.5139931640625,24.000051679687502,18.6748931640625,22.4892816796875,20.8695931640625,20.0821916796875C20.8693931640625,19.2215716796875,20.2333931640625,18.2301916796875,19.4488931640625,17.8706316796875L14.6086931640625,15.6522216796875Q13.5652931640625,16.6957016796875,12.0000231640625,16.6957016796875Q10.4348131640625,16.6957016796875,9.3913331640625,15.6522216796875L4.5511331640625,17.8706316796875C3.7653441640625003,18.2307616796875,3.1306842310625,19.2203216796875,3.1304931640625,20.0821916796875C5.3251431640625,22.4892816796875,8.486093164062499,24.000051679687502,12.0000231640625,24.000051679687502Z" fill-rule="evenodd" fill="#9CA3AF" fill-opacity="1"/></g><g><path d="M14.087041875,6.7828753125C15.239641875,6.7828753125,16.174001875000002,7.7172353125,16.174001875000002,8.8698253125L16.174001875000002,6.2610953125C16.174001875000002,5.113125312499999,15.239351875,4.1741753125,14.086401875,4.1741753125L13.826171875,4.1741753125L13.278371875000001,3.0785753125C13.145871875000001,2.8135842125,12.827991875,2.6951866125,12.562071875,2.8015530125L9.279511875,4.1145853125C8.476409875,4.4358153125,7.826171875,5.3970753125,7.826171875,6.2620053124999995L7.826171875,8.8698253125C7.826171875,7.7172353125,8.760532874999999,6.7828753125,9.913131875,6.7828753125L14.087041875,6.7828753125Z" fill-rule="evenodd" fill="#9CA3AF" fill-opacity="1"/></g></g></svg>