<svg xmlns="http://www.w3.org/2000/svg" xmlns:xlink="http://www.w3.org/1999/xlink" fill="none" version="1.1" width="24" height="24" viewBox="0 0 24 24"><defs><clipPath id="master_svg0_5898_02688"><rect x="0" y="0" width="24" height="24" rx="0"/></clipPath></defs><g clip-path="url(#master_svg0_5898_02688)"><g><path d="M8.25,6.750000238418579C8.25,4.678930238418579,9.928930000000001,3.000000238418579,12,3.000000238418579C14.0711,3.000000238418579,15.75,4.678930238418579,15.75,6.750000238418579C15.75,8.821070238418578,14.0711,10.500000238418579,12,10.500000238418579C9.928930000000001,10.500000238418579,8.25,8.821070238418578,8.25,6.750000238418579ZM15.75,9.750000238418579C15.75,8.093150238418579,17.0931,6.750000238418579,18.75,6.750000238418579C20.4069,6.750000238418579,21.75,8.093150238418579,21.75,9.750000238418579C21.75,11.40685023841858,20.4069,12.750000238418579,18.75,12.750000238418579C17.0931,12.750000238418579,15.75,11.40685023841858,15.75,9.750000238418579ZM2.25,9.750000238418579C2.25,8.093150238418579,3.59315,6.750000238418579,5.25,6.750000238418579C6.90685,6.750000238418579,8.25,8.093150238418579,8.25,9.750000238418579C8.25,11.40685023841858,6.90685,12.750000238418579,5.25,12.750000238418579C3.59315,12.750000238418579,2.25,11.40685023841858,2.25,9.750000238418579ZM6.31,15.11700023841858C7.54961,13.17420023841858,9.69538,11.998700238418579,12,12.000000238418579C16.0258,11.99632023841858,19.1584,15.497300238418578,18.709,19.49800023841858C18.6827,19.73580023841858,18.5445,19.94690023841858,18.337,20.066000238418578C16.4086,21.17250023841858,14.2233,21.75320023841858,12,21.75000023841858C9.695,21.75000023841858,7.53,21.13800023841858,5.663,20.066000238418578C5.45549,19.94680023841858,5.31729,19.73580023841858,5.291,19.49800023841858C5.12305,17.96460023841858,5.48246,16.41980023841858,6.31,15.11700023841858L6.31,15.11700023841858Z" fill-rule="evenodd" fill="#000000" fill-opacity="1" style="mix-blend-mode:passthrough"/></g><g><path d="M5.082003407287598,14.253999710083008C4.095753407287598,15.776379710083008,3.636253407287598,17.580309710083007,3.774003407287598,19.388999710083006C3.1735034072875976,19.297959710083006,2.5829034072875974,19.150639710083006,2.0099994072875975,18.948999710083008L1.8949994072875977,18.90899971008301C1.6853804072875977,18.83459971008301,1.5392140072875977,18.643759710083007,1.5219997072875977,18.421999710083007L1.5119997072875977,18.30099971008301C1.3417094072875977,16.184599710083006,2.9608834072875974,14.349074410083007,5.082003407287598,14.253999710083008ZM20.226003407287596,19.388999710083006C20.3637034072876,17.580309710083007,19.904203407287596,15.776379710083008,18.918003407287596,14.253999710083008C21.039103407287598,14.349076310083008,22.658303407287598,16.184599710083006,22.488003407287597,18.30099971008301L22.4780034072876,18.421999710083007C22.460403407287597,18.643389710083007,22.314303407287596,18.83374971008301,22.105003407287597,18.907999710083008L21.9900034072876,18.947999710083007C21.4230034072876,19.147999710083006,20.834003407287597,19.296999710083007,20.226003407287596,19.388999710083006Z" fill="#000000" fill-opacity="1" style="mix-blend-mode:passthrough"/></g></g></svg>