<svg xmlns="http://www.w3.org/2000/svg" xmlns:xlink="http://www.w3.org/1999/xlink" fill="none" version="1.1" width="24" height="24" viewBox="0 0 24 24"><defs><clipPath id="master_svg0_5544_08984"><rect x="0" y="0" width="24" height="24" rx="0"/></clipPath></defs><g clip-path="url(#master_svg0_5544_08984)"><g><path d="M4.05546,19.944499999999998Q4.8609100000000005,20.75,6,20.75Q6.07387,20.75,6.14632,20.7356Q6.21877,20.7212,6.28701,20.6929Q6.35526,20.6646,6.41668,20.6236Q6.4781,20.5826,6.53033,20.5303Q6.58256,20.4781,6.6236,20.4167Q6.66464,20.3553,6.69291,20.287Q6.72118,20.2188,6.73559,20.1463Q6.75,20.0739,6.75,20Q6.75,19.926099999999998,6.73559,19.8537Q6.72118,19.7812,6.69291,19.713Q6.66464,19.6447,6.6236,19.5833Q6.58256,19.521900000000002,6.53033,19.4697Q6.4781,19.4174,6.41668,19.3764Q6.35526,19.3354,6.28701,19.3071Q6.21877,19.2788,6.14632,19.264400000000002Q6.07387,19.25,6,19.25Q5.4822299999999995,19.25,5.1161200000000004,18.8839Q4.75,18.5178,4.75,18L4.75,15Q4.75,13.53028,4.03825,12.46265Q3.8655999999999997,12.20367,3.6737200000000003,12Q3.86559,11.796330000000001,4.03825,11.53735Q4.75,10.469719999999999,4.75,9L4.75,6Q4.75,5.4822299999999995,5.1161200000000004,5.1161200000000004Q5.4822299999999995,4.75,6,4.75Q6.07387,4.75,6.14632,4.735589Q6.21877,4.721178,6.28701,4.69291Q6.35526,4.664641,6.41668,4.623602Q6.4781,4.582563,6.53033,4.53033Q6.58256,4.478097,6.6236,4.416678Q6.66464,4.355258,6.69291,4.287013Q6.72118,4.218767,6.73559,4.146318Q6.75,4.0738685,6.75,4Q6.75,3.9261315,6.73559,3.853682Q6.72118,3.781233,6.69291,3.712987Q6.66464,3.644742,6.6236,3.583322Q6.58256,3.521903,6.53033,3.46967Q6.4781,3.417437,6.41668,3.376398Q6.35526,3.335359,6.28701,3.30709Q6.21877,3.278822,6.14632,3.264411Q6.07387,3.25,6,3.25Q4.8609100000000005,3.25,4.05546,4.0554564Q3.25,4.860913,3.25,6L3.25,9Q3.25,10.01556,2.7901759999999998,10.705300000000001Q2.42704,11.25,2,11.25Q1.9261314999999999,11.25,1.853682,11.26441Q1.781233,11.27882,1.712987,11.307089999999999Q1.644742,11.33536,1.583322,11.3764Q1.521903,11.41744,1.46967,11.46967Q1.417437,11.521899999999999,1.376398,11.58332Q1.335359,11.644739999999999,1.30709,11.71299Q1.278822,11.78123,1.264411,11.85368Q1.25,11.92613,1.25,12Q1.25,12.07387,1.264411,12.14632Q1.278822,12.21877,1.30709,12.28701Q1.335359,12.35526,1.376398,12.41668Q1.417437,12.4781,1.46967,12.53033Q1.521903,12.58256,1.583322,12.6236Q1.644742,12.66464,1.712987,12.69291Q1.781233,12.72118,1.853682,12.73559Q1.9261314999999999,12.75,2,12.75Q2.42704,12.75,2.7901759999999998,13.2947Q3.25,13.98444,3.25,15L3.25,18Q3.25,19.1391,4.05546,19.944499999999998Z" fill-rule="evenodd" fill="#000000" fill-opacity="1" style="mix-blend-mode:passthrough"/></g><g><path d="M18,3.25Q19.13909,3.25,19.94454,4.0554565Q20.75,4.860913,20.75,6L20.75,9Q20.75,10.01556,21.20982,10.705300000000001Q21.572960000000002,11.25,22,11.25Q22.07387,11.25,22.14632,11.26441Q22.21877,11.27882,22.287010000000002,11.307089999999999Q22.35526,11.33536,22.41668,11.3764Q22.4781,11.41744,22.53033,11.46967Q22.58256,11.521899999999999,22.6236,11.58332Q22.66464,11.644739999999999,22.69291,11.71299Q22.72118,11.78123,22.735590000000002,11.85368Q22.75,11.92613,22.75,12Q22.75,12.07387,22.735590000000002,12.14632Q22.72118,12.21877,22.69291,12.28701Q22.66464,12.35526,22.6236,12.41668Q22.58256,12.4781,22.53033,12.53033Q22.4781,12.58256,22.41668,12.6236Q22.35526,12.66464,22.287010000000002,12.69291Q22.21877,12.72118,22.14632,12.73559Q22.07387,12.75,22,12.75Q21.572960000000002,12.75,21.20982,13.2947Q20.75,13.98444,20.75,15L20.75,18Q20.75,19.1391,19.94454,19.944499999999998Q19.13909,20.75,18,20.75Q17.9261315,20.75,17.853682,20.7356Q17.781233,20.7212,17.712987,20.6929Q17.644742,20.6646,17.583322,20.6236Q17.521903000000002,20.5826,17.46967,20.5303Q17.417437,20.4781,17.376398000000002,20.4167Q17.335359,20.3553,17.30709,20.287Q17.278822,20.2188,17.264411,20.1463Q17.25,20.0739,17.25,20Q17.25,19.926099999999998,17.264411,19.8537Q17.278822,19.7812,17.30709,19.713Q17.335359,19.6447,17.376398000000002,19.5833Q17.417437,19.521900000000002,17.46967,19.4697Q17.521903000000002,19.4174,17.583322,19.3764Q17.644742,19.3354,17.712987,19.3071Q17.781233,19.2788,17.853682,19.264400000000002Q17.9261315,19.25,18,19.25Q18.517768,19.25,18.883884,18.8839Q19.25,18.5178,19.25,18L19.25,15Q19.25,13.53028,19.96175,12.46265Q20.1344,12.20367,20.32628,12Q20.1344,11.796330000000001,19.96175,11.53735Q19.25,10.469719999999999,19.25,9L19.25,6Q19.25,5.4822299999999995,18.883884,5.1161200000000004Q18.517767,4.75,18,4.75Q17.9261315,4.75,17.853682,4.735589Q17.781233,4.721178,17.712987,4.69291Q17.644742,4.664641,17.583322,4.623602Q17.521903000000002,4.582563,17.46967,4.53033Q17.417437,4.478097,17.376398000000002,4.416678Q17.335359,4.355258,17.30709,4.287013Q17.278822,4.218767,17.264411,4.146318Q17.25,4.0738685,17.25,4Q17.25,3.9261315,17.264411,3.853682Q17.278822,3.781233,17.30709,3.712987Q17.335359,3.644742,17.376398000000002,3.583322Q17.417437,3.521903,17.46967,3.46967Q17.521903000000002,3.417437,17.583322,3.376398Q17.644742,3.335359,17.712987,3.30709Q17.781233,3.278822,17.853682,3.264411Q17.9261315,3.25,18,3.25Z" fill-rule="evenodd" fill="#000000" fill-opacity="1" style="mix-blend-mode:passthrough"/></g><g><path d="M9,7.75L10,7.75Q10.9156,7.75,11.426449999999999,8.522866Q11.67552,8.899685,12.099920000000001,10.10262Q12.45293,11.103200000000001,12.71186,11.74722Q12.97327,12.40418,13.32438,13.41104Q13.67964,14.42979,13.82538,14.651019999999999Q13.89058,14.75,14,14.75L15,14.75Q15.07387,14.75,15.14632,14.76441Q15.21877,14.77882,15.28701,14.807089999999999Q15.355260000000001,14.83536,15.41668,14.8764Q15.478100000000001,14.91744,15.53033,14.96967Q15.58256,15.021899999999999,15.6236,15.08332Q15.66464,15.144739999999999,15.692910000000001,15.21299Q15.72118,15.28123,15.73559,15.35368Q15.75,15.42613,15.75,15.5Q15.75,15.57387,15.73559,15.64632Q15.72118,15.71877,15.692910000000001,15.78701Q15.66464,15.855260000000001,15.6236,15.91668Q15.58256,15.978100000000001,15.53033,16.03033Q15.478100000000001,16.08256,15.41668,16.1236Q15.355260000000001,16.16464,15.28701,16.19291Q15.21877,16.22118,15.14632,16.235590000000002Q15.07387,16.25,15,16.25L14,16.25Q13.08247,16.25,12.57273,15.47617Q12.32459,15.09948,11.90803,13.90495Q11.56757,12.928650000000001,11.32014,12.30678Q11.04914,11.63275,10.68537,10.60167Q10.32239,9.57282,10.17511,9.34999Q10.10901,9.25,10,9.25L9,9.25Q8.9261315,9.25,8.853682,9.235589000000001Q8.781233,9.221178,8.712987,9.19291Q8.644742,9.164641,8.583322,9.123602Q8.521903,9.082563,8.46967,9.03033Q8.417437,8.978097,8.376398,8.916678Q8.335359,8.855258,8.30709,8.787013Q8.278822,8.718767,8.264410999999999,8.646318Q8.25,8.5738685,8.25,8.5Q8.25,8.4261315,8.264410999999999,8.353682Q8.278822,8.281233,8.30709,8.212987Q8.335359,8.144742,8.376398,8.083322Q8.417437,8.021903,8.46967,7.96967Q8.521903,7.917437,8.583322,7.876398Q8.644742,7.835359,8.712987,7.80709Q8.781233,7.778822,8.853682,7.764411Q8.9261315,7.75,9,7.75Z" fill-rule="evenodd" fill="#000000" fill-opacity="1" style="mix-blend-mode:passthrough"/></g><g><path d="M12.62404,12.41602Q14.73472,9.25,16,9.25Q16.07387,9.25,16.14632,9.235589000000001Q16.21877,9.221178,16.287010000000002,9.19291Q16.35526,9.164641,16.41668,9.123602Q16.478099999999998,9.082563,16.53033,9.03033Q16.58256,8.978097,16.6236,8.916678Q16.66464,8.855258,16.692909999999998,8.787013Q16.72118,8.718767,16.735590000000002,8.646318Q16.75,8.5738685,16.75,8.5Q16.75,8.4261315,16.735590000000002,8.353682Q16.72118,8.281233,16.692909999999998,8.212987Q16.66464,8.144742,16.6236,8.083322Q16.58256,8.021903,16.53033,7.96967Q16.478099999999998,7.917437,16.41668,7.876398Q16.35526,7.835359,16.287010000000002,7.80709Q16.21877,7.778822,16.14632,7.764411Q16.07387,7.75,16,7.75Q14.68934,7.75,13.28217,9.15717Q12.417159999999999,10.02218,11.37596,11.58397Q9.26528,14.75,8,14.75Q7.9261315,14.75,7.853682,14.76441Q7.781233,14.77882,7.712987,14.807089999999999Q7.644742,14.83536,7.583322,14.8764Q7.521903,14.91744,7.46967,14.96967Q7.417437,15.021899999999999,7.376398,15.08332Q7.335359,15.144739999999999,7.30709,15.21299Q7.278822,15.28123,7.264411,15.35368Q7.25,15.42613,7.25,15.5Q7.25,15.57387,7.264411,15.64632Q7.278822,15.71877,7.30709,15.78701Q7.335359,15.855260000000001,7.376398,15.91668Q7.417437,15.978100000000001,7.46967,16.03033Q7.521903,16.08256,7.583322,16.1236Q7.644742,16.16464,7.712987,16.19291Q7.781233,16.22118,7.853682,16.235590000000002Q7.9261315,16.25,8,16.25Q9.31066,16.25,10.71783,14.84283Q11.582840000000001,13.977820000000001,12.62404,12.41602Z" fill-rule="evenodd" fill="#000000" fill-opacity="1" style="mix-blend-mode:passthrough"/></g></g></svg>