<svg xmlns="http://www.w3.org/2000/svg" xmlns:xlink="http://www.w3.org/1999/xlink" fill="none" version="1.1" width="24" height="24" viewBox="0 0 24 24"><defs><clipPath id="master_svg0_5519_08141"><rect x="0" y="0" width="24" height="24" rx="0"/></clipPath></defs><g clip-path="url(#master_svg0_5519_08141)"><g><path d="M2.0000038146972656,3.999969482421875C2.0000038146972656,2.895400482421875,2.8954348146972655,1.999969482421875,4.000003814697266,1.999969482421875L20.000003814697266,1.999969482421875C21.104603814697267,1.999969482421875,22.000003814697266,2.895400482421875,22.000003814697266,3.999969482421875L22.000003814697266,19.999969482421875C22.000003814697266,21.104569482421876,21.104603814697267,21.999969482421875,20.000003814697266,21.999969482421875L4.000003814697266,21.999969482421875C2.8954348146972655,21.999969482421875,2.0000038146972656,21.104569482421876,2.0000038146972656,19.999969482421875L2.0000038146972656,3.999969482421875ZM14.015003814697266,9.000029482421876L13.656003814697266,9.000029482421876C13.294003814697266,9.000029482421876,13.000003814697266,8.706029482421876,13.000003814697266,8.344029482421874L13.000003814697266,7.656029482421875C13.000003814697266,7.293729482421875,13.293703814697265,7.000029482421875,13.656003814697266,7.000029482421875L17.840003814697265,7.000029482421875C18.203003814697265,7.000029482421875,18.497803814697267,7.293089482421875,18.500003814697266,7.656029482421875L18.500003814697266,8.344029482421874C18.497803814697267,8.706979482421875,18.203003814697265,9.000039482421876,17.840003814697265,9.000029482421876L16.504003814697263,9.000029482421876L10.137003814697266,17.595069482421877C9.896313814697265,17.920269482421872,9.483323814697265,18.068469482421875,9.090753814697266,17.970369482421873C8.698183814697266,17.872269482421874,8.403423814697266,17.547269482421875,8.344003814697267,17.147069482421877L7.137003814697265,9.000029482421876L6.410003814697266,9.000029482421876C6.047043814697266,9.000029482421876,5.752193814697266,8.706969482421876,5.750003814697266,8.344029482421874L5.750003814697266,7.656029482421875C5.752203814697266,7.293089482421875,6.047053814697265,7.000019482421875,6.410003814697266,7.000029482421875L10.344003814697265,7.000029482421875C10.706303814697266,7.000029482421875,11.000003814697266,7.293729482421875,11.000003814697266,7.656029482421875L11.000003814697266,8.344029482421874C11.000003814697266,8.705939482421876,10.706913814697266,8.999479482421876,10.345003814697266,9.000029482421876L9.160003814697266,9.000029482421876L9.968003814697266,14.463069482421876L14.015003814697266,9.000029482421876ZM14.625003814697266,16.525069482421877C14.625003814697266,16.235069482421874,14.860103814697265,16.000069482421875,15.150003814697266,16.000069482421875L16.100003814697267,16.000069482421875C16.389903814697266,16.000069482421875,16.625003814697266,16.235069482421874,16.625003814697266,16.525069482421877L16.625003814697266,17.475069482421873C16.625003814697266,17.765069482421875,16.390003814697266,18.000069482421875,16.100003814697267,18.000069482421875L15.150003814697266,18.000069482421875C14.860003814697265,18.000069482421875,14.625003814697266,17.765069482421875,14.625003814697266,17.475069482421873L14.625003814697266,16.525069482421877Z" fill-rule="evenodd" fill="#2882FF" fill-opacity="1"/></g></g></svg>