<svg xmlns="http://www.w3.org/2000/svg" xmlns:xlink="http://www.w3.org/1999/xlink" fill="none" version="1.1" width="24" height="24" viewBox="0 0 24 24"><defs><clipPath id="master_svg0_91_02051"><rect x="0" y="0" width="24" height="24" rx="0"/></clipPath></defs><g clip-path="url(#master_svg0_91_02051)"><g style="opacity:0.5;"><path d="M16,9.9999956741333L20.553,7.7239996741333C21.21768,7.391856674133301,21.99961,7.874954674133301,22,8.6179956741333L22,15.3819956741333C21.9996,16.1250456741333,21.21768,16.6081456741333,20.553,16.2759956741333L16,13.9999956741333L16,9.9999956741333Z" fill="#00C8FF" fill-opacity="1"/><path d="M15.25,9.9999956741333L15.25,13.9999956741333Q15.25,14.104475674133301,15.278551,14.204965674133302Q15.307101,14.3054556741333,15.362029,14.3943256741333Q15.416957,14.4831956741333,15.49408,14.5536656741333Q15.571203,14.624135674133301,15.664649,14.6708456741333L20.21775,16.9468956741333Q21.090139999999998,17.3828356741333,21.91981,16.8702456741333Q22.74948,16.357645674133302,22.75,15.3819956741333L22.75,8.617605674133301Q22.74948,7.642354174133301,21.91981,7.129757674133301Q21.090139999999998,6.6171656741333,20.21765,7.053149674133301L15.664649,9.3291456741333Q15.571203,9.375865674133301,15.49408,9.446335674133302Q15.416957,9.5168056741333,15.362029,9.6056756741333Q15.307101,9.6945356741333,15.278551,9.7950356741333Q15.25,9.895525674133301,15.25,9.9999956741333ZM16.75,13.536425674133302L20.88825,15.6050956741333Q21.01288,15.6673756741333,21.1314,15.594145674133301Q21.24993,15.5209256741333,21.25,15.3819956741333L21.25,8.6183956741333Q21.24993,8.479078674133302,21.1314,8.405850674133301Q21.01288,8.332622674133301,20.88835,8.394849674133301L16.75,10.4635756741333L16.75,13.536425674133302Z" fill-rule="evenodd" fill="#00C8FF" fill-opacity="1" style="mix-blend-mode:passthrough"/></g><g><path d="M2,7.5C2,6.395431,2.895431,5.5,4,5.5L14,5.5C15.1046,5.5,16,6.395431,16,7.5L16,16.5C16,17.604599999999998,15.1046,18.5,14,18.5L4,18.5C2.895431,18.5,2,17.604599999999998,2,16.5L2,7.5Z" fill="#00C8FF" fill-opacity="1"/><path d="M1.25,7.5L1.25,16.5Q1.25,17.6391,2.0554568,18.444499999999998Q2.860912,19.25,4,19.25L14,19.25Q15.1391,19.25,15.9445,18.444499999999998Q16.75,17.6391,16.75,16.5L16.75,7.5Q16.75,6.360913,15.9445,5.5554564Q15.1391,4.75,14,4.75L4,4.75Q2.860913,4.75,2.0554564,5.5554565Q1.25,6.360913,1.25,7.5ZM3.11612,17.3839Q2.75,17.0178,2.75,16.5L2.75,7.5Q2.75,6.9822299999999995,3.11612,6.6161200000000004Q3.48223,6.25,4,6.25L14,6.25Q14.5178,6.25,14.8839,6.6161200000000004Q15.25,6.9822299999999995,15.25,7.5L15.25,16.5Q15.25,17.0178,14.8839,17.3839Q14.5178,17.75,14,17.75L4,17.75Q3.48223,17.75,3.11612,17.3839Z" fill-rule="evenodd" fill="#00C8FF" fill-opacity="1" style="mix-blend-mode:passthrough"/></g></g></svg>