<?xml version="1.0" encoding="UTF-8"?>
<svg id="_图层_1" data-name="图层 1" xmlns="http://www.w3.org/2000/svg" viewBox="0 0 24 24">
  <path d="M18.75,9.75c0,3.93-3.15,6.88-6.75,6.88s-6.75-2.96-6.75-6.88c0-.62-.51-1.12-1.13-1.12s-1.13,.51-1.13,1.12c0,4.97,4.03,9,9,9s9-4.03,9-9c0-.62-.51-1.12-1.13-1.12s-1.13,.51-1.13,1.12Zm-10.12,11.25c-.62,0-1.12,.51-1.12,1.13s.51,1.13,1.12,1.13h6.75c.62,0,1.13-.51,1.13-1.13s-.51-1.13-1.13-1.13h-6.75Z"/>
  <path d="M12,.75c-2.49,0-4.5,2.01-4.5,4.5v4.5c0,2.49,2.01,4.5,4.5,4.5s4.5-2.01,4.5-4.5V5.25c0-2.49-2.01-4.5-4.5-4.5Zm2.25,9c0,1.24-1.01,2.25-2.25,2.25s-2.25-1.01-2.25-2.25V5.25c0-1.24,1.01-2.25,2.25-2.25s2.25,1.01,2.25,2.25v4.5Z"/>
</svg>