<svg xmlns="http://www.w3.org/2000/svg" xmlns:xlink="http://www.w3.org/1999/xlink" fill="none" version="1.1" width="24" height="24" viewBox="0 0 24 24"><defs><clipPath id="master_svg0_5851_02583"><rect x="0" y="0" width="24" height="24" rx="0"/></clipPath></defs><g clip-path="url(#master_svg0_5851_02583)"><g></g><g><path d="M11.999999165534973,2C17.522999165534973,2,21.999999165534973,6.477,21.999999165534973,12C22.004399165534974,17.4628,17.62409916553497,21.9182,12.161999165534974,22.0067C6.699959165534973,22.0952,2.177634165534973,17.784100000000002,2.004999165534973,12.324L1.9999991655349731,12L2.003999235534973,11.72C2.1519991655349733,6.327,6.569999165534973,2,11.999999165534973,2ZM12.009999165534973,15L11.882999165534972,15.007C11.379949165534972,15.0668,11.001119165534973,15.4934,11.001119165534973,16C11.001119165534973,16.5066,11.379949165534972,16.9332,11.882999165534972,16.993000000000002L11.999999165534973,17L12.126999165534974,16.993000000000002C12.630099165534974,16.9332,13.008899165534974,16.5066,13.008899165534974,16C13.008899165534974,15.4934,12.630099165534974,15.0668,12.126999165534974,15.007L12.009999165534973,15ZM11.999999165534973,7C11.493029165534972,7.00007,11.066319165534972,7.37951,11.006999165534973,7.883L10.999999165534973,8L10.999999165534973,12L11.006999165534973,12.117C11.066839165534972,12.6201,11.493399165534973,12.9989,11.999999165534973,12.9989C12.506599165534974,12.9989,12.933199165534973,12.6201,12.992999165534973,12.117L12.999999165534973,12L12.999999165534973,8L12.992999165534973,7.883C12.933599165534973,7.37944,12.506899165534973,7,11.999999165534973,7Z" fill="#000000" fill-opacity="1" style="mix-blend-mode:passthrough"/></g></g></svg>