<svg xmlns="http://www.w3.org/2000/svg" xmlns:xlink="http://www.w3.org/1999/xlink" fill="none" version="1.1" width="24" height="24" viewBox="0 0 24 24"><defs><clipPath id="master_svg0_3253_04053"><rect x="0" y="0" width="24" height="24" rx="0"/></clipPath><clipPath id="master_svg1_3253_04054"><rect x="0" y="0" width="24" height="24" rx="0"/></clipPath></defs><g clip-path="url(#master_svg0_3253_04053)"><g clip-path="url(#master_svg1_3253_04054)"></g><g><path d="M11.25,9Q11.25,8.9261315,11.264410999999999,8.853682Q11.278822,8.781233,11.30709,8.712987Q11.335359,8.644742,11.376398,8.583322Q11.417437,8.521903,11.46967,8.46967Q11.521903,8.417437,11.583322,8.376398Q11.644742,8.335359,11.712987,8.30709Q11.781233,8.278822,11.853682,8.264410999999999Q11.9261315,8.25,12,8.25Q12.0738685,8.25,12.146318,8.264410999999999Q12.218767,8.278822,12.287013,8.30709Q12.355258,8.335359,12.416678,8.376398Q12.478097,8.417437,12.53033,8.46967Q12.582563,8.521903,12.623602,8.583322Q12.664641,8.644742,12.69291,8.712987Q12.721178,8.781233,12.735589000000001,8.853682Q12.75,8.9261315,12.75,9L12.75,13Q12.75,13.07387,12.735589000000001,13.14632Q12.721178,13.21877,12.69291,13.28701Q12.664641,13.355260000000001,12.623602,13.41668Q12.582563,13.478100000000001,12.53033,13.53033Q12.478097,13.58256,12.416678,13.6236Q12.355258,13.66464,12.287013,13.692910000000001Q12.218767,13.72118,12.146318,13.73559Q12.0738685,13.75,12,13.75Q11.9261315,13.75,11.853682,13.73559Q11.781233,13.72118,11.712987,13.692910000000001Q11.644742,13.66464,11.583322,13.6236Q11.521903,13.58256,11.46967,13.53033Q11.417437,13.478100000000001,11.376398,13.41668Q11.335359,13.355260000000001,11.30709,13.28701Q11.278822,13.21877,11.264410999999999,13.14632Q11.25,13.07387,11.25,13L11.25,9Z" fill-rule="evenodd" fill="#000000" fill-opacity="1" style="mix-blend-mode:passthrough"/></g><g><path d="M9.70575169921875,3.228657609375Q9.71335169921875,3.214820609375,9.72154169921875,3.201316609375Q10.49920169921875,1.917724609375,12.00004169921875,1.917724609375Q13.50074169921875,1.917724609375,14.28044169921875,3.204618609375L22.39274169921875,16.751324609375Q23.15574169921875,18.074424609375,22.39934169921875,19.401324609375Q21.64294169921875,20.728324609375,20.10704169921875,20.745924609375L3.88457169921875,20.745924609375Q2.35650069921875,20.728724609375,1.59991169921875,19.401024609375Q0.84332169921875,18.073324609375,1.61357369921875,16.739624609375L9.70575169921875,3.228657609375ZM11.01612169921875,3.9596346093749997Q11.01137169921875,3.968034609375,11.00641169921875,3.9763146093749997L2.90041669921875,17.510324609374997Q2.57258869921875,18.078224609375,2.90316969921875,18.658324609375Q3.2337516992187503,19.238524609375,3.90142169921875,19.246024609375L20.10704169921875,19.245924609375Q20.76564169921875,19.238324609375,21.09614169921875,18.658524609375Q21.42664169921875,18.078724609375,21.09324169921875,17.500624609375002L12.99354169921875,3.975274609375Q12.65574169921875,3.417724609375,12.00004169921875,3.417724609375Q11.35541169921875,3.417724609375,11.01612169921875,3.9596346093749997Z" fill-rule="evenodd" fill="#000000" fill-opacity="1" style="mix-blend-mode:passthrough"/></g><g><ellipse cx="11.99969482421875" cy="16" rx="0.75" ry="0.75" fill="#000000" fill-opacity="1"/></g></g></svg>