<svg xmlns="http://www.w3.org/2000/svg" xmlns:xlink="http://www.w3.org/1999/xlink" fill="none" version="1.1" width="24" height="24" viewBox="0 0 24 24"><defs><clipPath id="master_svg0_6098_03511"><rect x="0" y="0" width="24" height="24" rx="0"/></clipPath></defs><g clip-path="url(#master_svg0_6098_03511)"><g><path d="M18.893099523162842,5.10762594776001Q16.037595523162842,2.2531077877600096,11.999999523162842,2.2531084977600098Q7.962402823162842,2.25310790776001,5.1068983231628415,5.10762694776001Q2.251394273162842,7.96214534776001,2.250001493162842,11.99974204776001Q2.248605133162842,16.039308547760008,5.104518423162842,18.89620954776001Q7.960432023162841,21.75310954776001,12.000001423162843,21.75310954776001Q16.039568523162842,21.75310754776001,18.895480523162842,18.89620954776001Q21.751393523162843,16.03930954776001,21.749999523162842,11.99974104776001Q21.74860552316284,7.96214534776001,18.893099523162842,5.10762594776001ZM6.167375523162842,6.168469947760009Q8.583570923162842,3.75310790776001,11.999999523162842,3.7531075477600098Q15.416427523162842,3.7531080277600095,17.83262252316284,6.16846944776001Q20.248818523162843,8.583831347760011,20.249999523162842,12.00025984776001Q20.25118052316284,15.418356547760009,17.83463852316284,17.83573254776001Q15.418096523162841,20.25310754776001,12.000001423162843,20.25310954776001Q8.581903923162841,20.25310954776001,6.165361923162841,17.83573254776001Q3.7488195931628416,15.418356547760009,3.7500013731628417,12.00025894776001Q3.7511799331628417,8.583831347760011,6.167375523162842,6.168469947760009Z" fill-rule="evenodd" fill="#000000" fill-opacity="1" style="mix-blend-mode:passthrough"/></g><g><path d="M11.25014997,8Q11.25014997,7.926146217,11.2645582,7.85371152Q11.27896631,7.78127682,11.30722892,7.71304482Q11.33549154,7.64481282,11.37652254,7.58340567Q11.41755348,7.52199849,11.46977597,7.46977597Q11.52199849,7.4175534800000005,11.58340567,7.37652254Q11.64481282,7.33549154,11.71304482,7.30722892Q11.78127682,7.27896631,11.85371152,7.2645582Q11.926146217,7.25014997,12,7.25014997Q12.073853783,7.25014997,12.14628848,7.2645582Q12.21872318,7.27896631,12.28695518,7.30722892Q12.35518718,7.33549154,12.41659433,7.37652254Q12.47800151,7.4175534800000005,12.53022403,7.46977597Q12.58244652,7.52199849,12.62347746,7.58340567Q12.66450846,7.64481282,12.69277108,7.71304482Q12.72103369,7.78127682,12.7354418,7.85371152Q12.74985003,7.926146217,12.74985003,8L12.75,8L12.75,12L12.74985003,12Q12.74985003,12.0738535,12.7354418,12.1462884Q12.72103369,12.2187233,12.69277108,12.2869549Q12.66450846,12.3551869,12.62347746,12.416594Q12.58244652,12.478001599999999,12.53022403,12.5302238Q12.47800151,12.5824461,12.41659433,12.623477000000001Q12.35518718,12.6645079,12.28695518,12.692771Q12.21872318,12.7210336,12.14628848,12.7354422Q12.073853783,12.7498503,12,12.7498503Q11.926146217,12.7498503,11.85371152,12.735441699999999Q11.78127682,12.7210336,11.71304482,12.692771Q11.64481282,12.6645079,11.58340567,12.623477000000001Q11.52199849,12.5824461,11.46977597,12.5302238Q11.41755348,12.478001599999999,11.37652254,12.416594Q11.33549154,12.3551869,11.30722892,12.2869549Q11.27896631,12.2187233,11.2645582,12.1462884Q11.25014997,12.0738535,11.25014997,12L11.25,12L11.25,8L11.25014997,8Z" fill-rule="evenodd" fill="#000000" fill-opacity="1" style="mix-blend-mode:passthrough"/></g><g><ellipse cx="11.99969482421875" cy="16" rx="0.75" ry="0.75" fill="#000000" fill-opacity="1"/></g></g></svg>