<svg xmlns="http://www.w3.org/2000/svg" xmlns:xlink="http://www.w3.org/1999/xlink" fill="none" version="1.1" width="24" height="24" viewBox="0 0 24 24"><defs><clipPath id="master_svg0_5851_02578"><rect x="0" y="0" width="24" height="24" rx="0"/></clipPath></defs><g clip-path="url(#master_svg0_5851_02578)"><g></g><g><path d="M12.000022900390626,1.6699999570847872C12.955022900390626,1.6699999570847872,13.845022900390624,2.136999599456787,14.390022900390624,2.916999599456787L14.495022900390625,3.076999599456787L22.609022900390624,16.624999599456785C23.683022900390625,18.485099599456788,22.443922900390625,20.828399599456787,20.302022900390625,20.98799959945679L20.107022900390625,20.995999599456788L3.882002900390625,20.995999599456788C1.738482900390625,20.971899599456787,0.353832900390625,18.719499599456785,1.3000019003906251,16.795999599456785L1.3990019003906249,16.61099959945679L9.509002900390625,3.072999599456787C10.037502900390624,2.201932599456787,10.981942900390624,1.669997811316787,12.000022900390626,1.6699999570847872ZM12.010022900390625,14.999999599456787L11.883022900390625,15.006999599456787C11.379922900390625,15.066799599456788,11.001122900390625,15.493399599456787,11.001122900390625,15.999999599456787C11.001122900390625,16.506599599456788,11.379922900390625,16.933199599456785,11.883022900390625,16.992999599456788L12.000022900390626,16.999999599456785L12.127022900390624,16.992999599456788C12.630022900390625,16.933199599456785,13.008922900390624,16.506599599456788,13.008922900390624,15.999999599456787C13.008922900390624,15.493399599456787,12.630022900390625,15.066799599456788,12.127022900390624,15.006999599456787L12.010022900390625,14.999999599456787ZM12.000022900390626,7.999999599456787C11.493022900390624,8.000069599456786,11.066322900390626,8.379509599456787,11.007022900390625,8.882999599456788L11.000022900390626,8.999999599456787L11.000022900390626,12.999999599456787L11.007022900390625,13.116999599456786C11.066822900390624,13.620099599456788,11.493422900390625,13.998899599456788,12.000022900390626,13.998899599456788C12.506622900390624,13.998899599456788,12.933122900390625,13.620099599456788,12.993022900390624,13.116999599456786L13.000022900390626,12.999999599456787L13.000022900390626,8.999999599456787L12.993022900390624,8.882999599456788C12.933622900390626,8.379439599456788,12.506922900390625,7.999999599456787,12.000022900390626,7.999999599456787Z" fill="#000000" fill-opacity="1" style="mix-blend-mode:passthrough"/></g></g></svg>