<svg xmlns="http://www.w3.org/2000/svg" xmlns:xlink="http://www.w3.org/1999/xlink" fill="none" version="1.1" width="24" height="24" viewBox="0 0 24 24"><defs><clipPath id="master_svg0_5866_02806"><rect x="0" y="0" width="24" height="24" rx="0"/></clipPath></defs><g clip-path="url(#master_svg0_5866_02806)"><g></g><g><path d="M4.25,6.55556L4.25,17.4444Q4.25,18.3994,4.9252817,19.0747Q5.600563,19.75,6.55556,19.75L17.4444,19.75Q18.3994,19.75,19.0747,19.0747Q19.75,18.3994,19.75,17.4444L19.75,6.55556Q19.75,5.600564,19.0747,4.925282Q18.3994,4.25,17.4444,4.25L6.55556,4.25Q5.600563,4.25,4.9252816,4.9252816Q4.25,5.600563,4.25,6.55556ZM6.55556,18.25Q5.75,18.25,5.75,17.4444L5.75,6.55556Q5.75,6.2218800000000005,5.985942,5.985942Q6.2218800000000005,5.75,6.55556,5.75L17.4444,5.75Q18.25,5.75,18.25,6.55556L18.25,17.4444Q18.25,18.25,17.4444,18.25L6.55556,18.25Z" fill-rule="evenodd" fill="#000000" fill-opacity="1" style="mix-blend-mode:passthrough"/></g></g></svg>