<svg xmlns="http://www.w3.org/2000/svg" xmlns:xlink="http://www.w3.org/1999/xlink" fill="none" version="1.1" width="24" height="24" viewBox="0 0 24 24"><defs><clipPath id="master_svg0_5866_06741"><rect x="0" y="0" width="24" height="24" rx="0"/></clipPath></defs><g clip-path="url(#master_svg0_5866_06741)"><g></g><g transform="matrix(-1,0,0,1,31.77783203125,0)"><path d="M15.138916015625,10.185413984375L15.138916015625,16.925643984375Q15.138916015625,18.095513984375,15.966144215625,18.922783984375002Q16.793372015625,19.749983984375,17.963246015625,19.749983984375L24.703476015625,19.749983984375Q25.873346015625,19.749983984375,26.700616015625002,18.922783984375002Q27.527816015625,18.095513984375,27.527816015625,16.925643984375L27.527816015625,10.185413984375Q27.527816015625,9.015538984375,26.700616015625002,8.188312284375Q25.873346015625,7.361083984375,24.703476015625,7.361083984375L17.963246015625,7.361083984375Q16.793372015625,7.361083984375,15.966144415625,8.188311784375Q15.138917015625,9.015538984375,15.138916015625,10.185413984375ZM17.026806015625,17.862083984374998Q16.638916015625,17.474193984375,16.638916015625,16.925643984375L16.638916015625,10.185413984375Q16.638916015625,9.636863984375,17.026806015625,9.248973984375Q17.414696015625,8.861083984375,17.963246015625,8.861083984375L24.703476015625,8.861083984375Q25.252026015625,8.861083984375,25.639916015624998,9.248973984375Q26.027816015625,9.636863984375,26.027816015625,10.185413984375L26.027816015625,16.925643984375Q26.027816015625,17.474193984375,25.639916015624998,17.862083984374998Q25.252026015625,18.249983984375,24.703476015625,18.249983984375L17.963246015625,18.249983984375Q17.414696015625,18.249983984375,17.026806015625,17.862083984374998Z" fill-rule="evenodd" fill="#000000" fill-opacity="1" style="mix-blend-mode:passthrough"/></g><g transform="matrix(-1,0,0,1,38,0)"><path d="M18.250023,7.99891L18.25,14.33333Q18.25,14.4072,18.264411,14.47965Q18.278822,14.5521,18.30709,14.62034Q18.335359,14.68859,18.376398000000002,14.75001Q18.417437,14.81143,18.46967,14.86366Q18.521903000000002,14.91589,18.583322,14.95693Q18.644742,14.99797,18.712987,15.0262Q18.781233,15.0545,18.853682,15.0689Q18.9261315,15.0833,19,15.0833Q19.0738685,15.0833,19.146318,15.0689Q19.218767,15.0545,19.287013,15.0262Q19.355258,14.99797,19.416678,14.95694Q19.478096999999998,14.9159,19.53033,14.86366Q19.582563,14.81143,19.623601999999998,14.75001Q19.664641,14.68859,19.69291,14.62035Q19.721178,14.5521,19.735589,14.47965Q19.75,14.4072,19.75,14.33333L19.750023,7.99892Q19.750027,7.06715,20.4089,6.4086Q21.06783,5.75,22.00002,5.75L28.33333,5.75Q28.4072,5.75,28.47965,5.735589Q28.5521,5.721178,28.62034,5.69291Q28.688589999999998,5.664641,28.75001,5.623602Q28.81143,5.582563,28.86366,5.53033Q28.915889999999997,5.478097,28.95693,5.416678Q28.997970000000002,5.355258,29.0262,5.287013Q29.0545,5.218767,29.0689,5.146318Q29.0833,5.0738685,29.0833,5Q29.0833,4.9261315,29.0689,4.853682Q29.0545,4.781233,29.0262,4.712987Q28.997970000000002,4.644742,28.95693,4.583322Q28.915889999999997,4.521903,28.86366,4.46967Q28.81143,4.417437,28.75001,4.376398Q28.688589999999998,4.335359,28.62034,4.30709Q28.5521,4.278822,28.47965,4.264411Q28.4072,4.25,28.33333,4.25L22.00002,4.25Q20.44673,4.25,19.348509,5.347676Q18.250029,6.44561,18.250023,7.99891Z" fill-rule="evenodd" fill="#000000" fill-opacity="1" style="mix-blend-mode:passthrough"/></g></g></svg>