<svg xmlns="http://www.w3.org/2000/svg" xmlns:xlink="http://www.w3.org/1999/xlink" fill="none" version="1.1" width="24" height="24" viewBox="0 0 24 24"><defs><clipPath id="master_svg0_5851_03369"><rect x="0" y="0" width="24" height="24" rx="0"/></clipPath></defs><g clip-path="url(#master_svg0_5851_03369)"><g></g><g><path d="M5.25,3Q5.25,2.9261315,5.264411,2.853682Q5.278822,2.781233,5.30709,2.712987Q5.335359,2.644742,5.376398,2.583322Q5.417437,2.521903,5.46967,2.46967Q5.521903,2.417437,5.583322,2.376398Q5.644742,2.335359,5.712987,2.30709Q5.781233,2.278822,5.853682,2.264411Q5.9261315,2.25,6,2.25Q6.0738685,2.25,6.146318,2.264411Q6.218767,2.278822,6.287013,2.30709Q6.355258,2.335359,6.416678,2.376398Q6.478097,2.417437,6.53033,2.46967Q6.582563,2.521903,6.623602,2.583322Q6.664641,2.644742,6.69291,2.712987Q6.721178,2.781233,6.735589,2.853682Q6.75,2.9261315,6.75,3L6.75,21Q6.75,21.0739,6.735589,21.1463Q6.721178,21.2188,6.69291,21.287Q6.664641,21.3553,6.623602,21.4167Q6.582563,21.4781,6.53033,21.5303Q6.478097,21.5826,6.416678,21.6236Q6.355258,21.6646,6.287013,21.6929Q6.218767,21.7212,6.146318,21.7356Q6.0738685,21.75,6,21.75Q5.9261315,21.75,5.853682,21.7356Q5.781233,21.7212,5.712987,21.6929Q5.644742,21.6646,5.583322,21.6236Q5.521903,21.5826,5.46967,21.5303Q5.417437,21.4781,5.376398,21.4167Q5.335359,21.3553,5.30709,21.287Q5.278822,21.2188,5.264411,21.1463Q5.25,21.0739,5.25,21L5.25,3Z" fill-rule="evenodd" fill="#000000" fill-opacity="1" style="mix-blend-mode:passthrough"/></g><g><path d="M6.0625098,4.25261L18.0623,5.252591Q18.131999999999998,5.258399,18.1994,5.276992Q18.2668,5.295585,18.3296,5.326322Q18.3925,5.35706,18.4485,5.398882Q18.5046,5.440704,18.5519,5.492168Q18.5993,5.543632,18.6363,5.602964Q18.673299999999998,5.6622959999999996,18.698700000000002,5.727451Q18.7241,5.792605,18.737099999999998,5.861335Q18.75,5.930065,18.75,6L18.75,10Q18.75,10.069939999999999,18.737099999999998,10.138670000000001Q18.7241,10.2074,18.698700000000002,10.272549999999999Q18.673299999999998,10.3377,18.6363,10.39704Q18.5993,10.45637,18.5519,10.50783Q18.5046,10.5593,18.4485,10.60112Q18.3925,10.64294,18.3296,10.673680000000001Q18.2668,10.704419999999999,18.1994,10.72301Q18.131999999999998,10.7416,18.0623,10.74741L6.0622841,11.74741Q6.0311959,11.75,6,11.75Q5.9261315,11.75,5.853682,11.73559Q5.781233,11.72118,5.712987,11.692910000000001Q5.644742,11.66464,5.583322,11.6236Q5.521903,11.58256,5.46967,11.53033Q5.417437,11.478100000000001,5.376398,11.41668Q5.335359,11.355260000000001,5.30709,11.28701Q5.278822,11.21877,5.264411,11.14632Q5.25,11.07387,5.25,11Q5.25,10.930060000000001,5.26293,10.861329999999999Q5.27586,10.79261,5.301275,10.727450000000001Q5.326689,10.6623,5.363712,10.60296Q5.400734,10.54363,5.448088,10.49217Q5.495442,10.4407,5.551495,10.39888Q5.6075479999999995,10.35706,5.670366,10.326319999999999Q5.733185,10.29559,5.800603,10.27699Q5.868022,10.2584,5.9377159,10.25259L17.25,9.309899999999999L17.25,6.6901L5.9379416,5.747428L5.9377159,5.747409Q5.868022,5.741601,5.800603,5.723008Q5.733185,5.704415,5.670366,5.673678Q5.6075479999999995,5.64294,5.551495,5.601118Q5.495442,5.559296,5.448088,5.507832Q5.400734,5.456368,5.363712,5.397036Q5.326689,5.337703,5.301275,5.272549Q5.27586,5.207395,5.26293,5.138665Q5.25,5.0699355,5.25,5Q5.25,4.9261315,5.264411,4.853682Q5.278822,4.781233,5.30709,4.712987Q5.335359,4.644742,5.376398,4.583322Q5.417437,4.521903,5.46967,4.46967Q5.521903,4.417437,5.583322,4.376398Q5.644742,4.335359,5.712987,4.30709Q5.781233,4.278822,5.853682,4.264411Q5.9261315,4.25,6,4.25Q6.0311959,4.25,6.0622841,4.252591L6.0625098,4.25261Z" fill-rule="evenodd" fill="#000000" fill-opacity="1" style="mix-blend-mode:passthrough"/></g><g><path d="M9.25,5.5Q9.25,5.4261315,9.264410999999999,5.353682Q9.278822,5.281233,9.30709,5.212987Q9.335359,5.144742,9.376398,5.083322Q9.417437,5.021903,9.46967,4.96967Q9.521903,4.917437,9.583322,4.876398Q9.644742,4.835359,9.712987,4.80709Q9.781233,4.778822,9.853682,4.764411Q9.9261315,4.75,10,4.75Q10.0738685,4.75,10.146318,4.764411Q10.218767,4.778822,10.287013,4.80709Q10.355258,4.835359,10.416678,4.876398Q10.478097,4.917437,10.53033,4.96967Q10.582563,5.021903,10.623602,5.083322Q10.664641,5.144742,10.69291,5.212987Q10.721178,5.281233,10.735589000000001,5.353682Q10.75,5.4261315,10.75,5.5L10.75,10.5Q10.75,10.57387,10.735589000000001,10.64632Q10.721178,10.71877,10.69291,10.78701Q10.664641,10.855260000000001,10.623602,10.91668Q10.582563,10.978100000000001,10.53033,11.03033Q10.478097,11.08256,10.416678,11.1236Q10.355258,11.16464,10.287013,11.192910000000001Q10.218767,11.22118,10.146318,11.23559Q10.0738685,11.25,10,11.25Q9.9261315,11.25,9.853682,11.23559Q9.781233,11.22118,9.712987,11.192910000000001Q9.644742,11.16464,9.583322,11.1236Q9.521903,11.08256,9.46967,11.03033Q9.417437,10.978100000000001,9.376398,10.91668Q9.335359,10.855260000000001,9.30709,10.78701Q9.278822,10.71877,9.264410999999999,10.64632Q9.25,10.57387,9.25,10.5L9.25,5.5Z" fill-rule="evenodd" fill="#000000" fill-opacity="1" style="mix-blend-mode:passthrough"/></g><g><path d="M13.25,6Q13.25,5.9261315,13.264410999999999,5.853682Q13.278822,5.781233,13.30709,5.712987Q13.335359,5.644742,13.376398,5.583322Q13.417437,5.521903,13.46967,5.46967Q13.521903,5.417437,13.583322,5.376398Q13.644742,5.335359,13.712987,5.30709Q13.781233,5.278822,13.853682,5.264411Q13.9261315,5.25,14,5.25Q14.0738685,5.25,14.146318,5.264411Q14.218767,5.278822,14.287013,5.30709Q14.355258,5.335359,14.416678,5.376398Q14.478097,5.417437,14.53033,5.46967Q14.582563,5.521903,14.623602,5.583322Q14.664641,5.644742,14.69291,5.712987Q14.721178,5.781233,14.735589000000001,5.853682Q14.75,5.9261315,14.75,6L14.75,10Q14.75,10.07387,14.735589000000001,10.14632Q14.721178,10.21877,14.69291,10.28701Q14.664641,10.355260000000001,14.623602,10.41668Q14.582563,10.478100000000001,14.53033,10.53033Q14.478097,10.58256,14.416678,10.6236Q14.355258,10.66464,14.287013,10.692910000000001Q14.218767,10.72118,14.146318,10.73559Q14.0738685,10.75,14,10.75Q13.9261315,10.75,13.853682,10.73559Q13.781233,10.72118,13.712987,10.692910000000001Q13.644742,10.66464,13.583322,10.6236Q13.521903,10.58256,13.46967,10.53033Q13.417437,10.478100000000001,13.376398,10.41668Q13.335359,10.355260000000001,13.30709,10.28701Q13.278822,10.21877,13.264410999999999,10.14632Q13.25,10.07387,13.25,10L13.25,6Z" fill-rule="evenodd" fill="#000000" fill-opacity="1" style="mix-blend-mode:passthrough"/></g><g><path d="M4,20.25L8,20.25Q8.07387,20.25,8.14632,20.264411Q8.21877,20.278822,8.28701,20.30709Q8.355260000000001,20.335359,8.41668,20.376398000000002Q8.478100000000001,20.417437,8.53033,20.46967Q8.58256,20.521903000000002,8.6236,20.583322Q8.66464,20.644742,8.692910000000001,20.712987Q8.72118,20.781233,8.73559,20.853682Q8.75,20.9261315,8.75,21Q8.75,21.0738685,8.73559,21.146318Q8.72118,21.218767,8.692910000000001,21.287013Q8.66464,21.355258,8.6236,21.416678Q8.58256,21.478096999999998,8.53033,21.53033Q8.478100000000001,21.582563,8.41668,21.623601999999998Q8.355260000000001,21.664641,8.28701,21.69291Q8.21877,21.721178,8.14632,21.735589Q8.07387,21.75,8,21.75L4,21.75Q3.9261315,21.75,3.853682,21.735589Q3.781233,21.721178,3.712987,21.69291Q3.644742,21.664641,3.583322,21.623601999999998Q3.521903,21.582563,3.46967,21.53033Q3.417437,21.478096999999998,3.376398,21.416678Q3.335359,21.355258,3.30709,21.287013Q3.278822,21.218767,3.264411,21.146318Q3.25,21.0738685,3.25,21Q3.25,20.9261315,3.264411,20.853682Q3.278822,20.781233,3.30709,20.712987Q3.335359,20.644742,3.376398,20.583322Q3.417437,20.521903000000002,3.46967,20.46967Q3.521903,20.417437,3.583322,20.376398000000002Q3.644742,20.335359,3.712987,20.30709Q3.781233,20.278822,3.853682,20.264411Q3.9261315,20.25,4,20.25Z" fill-rule="evenodd" fill="#000000" fill-opacity="1" style="mix-blend-mode:passthrough"/></g></g></svg>