<svg xmlns="http://www.w3.org/2000/svg" xmlns:xlink="http://www.w3.org/1999/xlink" fill="none" version="1.1" width="24" height="24" viewBox="0 0 24 24"><defs><clipPath id="master_svg0_5866_02818"><rect x="0" y="0" width="24" height="24" rx="0"/></clipPath></defs><g clip-path="url(#master_svg0_5866_02818)"><g><path d="M4.25,15.70586021875L4.25,18.176474218750002Q4.25,18.82824421875,4.710878,19.28912421875Q5.171756,19.75000421875,5.823536,19.75000421875L8.29415,19.75000421875Q8.94593,19.75000421875,9.4068,19.28912421875Q9.86768,18.82824421875,9.86768,18.176474218750002L9.86768,15.70586021875Q9.86768,15.05408021875,9.4068,14.59320221875Q8.94593,14.13232421875,8.29415,14.13232421875L5.823536,14.13232421875Q5.171756,14.13232421875,4.710878,14.59320221875Q4.25,15.05408121875,4.25,15.70586021875ZM5.823536,18.25000421875Q5.75,18.25000421875,5.75,18.176474218750002L5.75,15.70586021875Q5.75,15.63232421875,5.823536,15.63232421875L8.29415,15.63232421875Q8.36768,15.63232421875,8.36768,15.70586021875L8.36768,18.176474218750002Q8.36768,18.25000421875,8.29415,18.25000421875L5.823536,18.25000421875Z" fill-rule="evenodd" fill="#000000" fill-opacity="1" style="mix-blend-mode:passthrough"/></g><g><path d="M12.03537,19.7241Q12.01769,19.725,12,19.725Q11.92859,19.725,11.85856,19.711100000000002Q11.78853,19.6971,11.72255,19.669800000000002Q11.65658,19.6425,11.59721,19.602800000000002Q11.53784,19.5631,11.48735,19.512700000000002Q11.43686,19.4622,11.397179999999999,19.4028Q11.357510000000001,19.343400000000003,11.33019,19.2774Q11.302859999999999,19.2115,11.28893,19.1414Q11.275,19.0714,11.275,19Q11.275,18.9286,11.28893,18.8586Q11.302859999999999,18.7885,11.33019,18.7226Q11.357510000000001,18.656599999999997,11.397179999999999,18.5972Q11.43686,18.5378,11.48735,18.487299999999998Q11.53784,18.4369,11.59721,18.397199999999998Q11.65658,18.3575,11.72255,18.330199999999998Q11.78853,18.3029,11.85856,18.288899999999998Q11.92859,18.275,12,18.275Q12.017669999999999,18.275,12.03533,18.2759L17.25,18.2759Q17.6749,18.2759,17.9754,17.9754Q18.2759,17.6749,18.2759,17.25L18.2759,6.75Q18.2759,6.32507,17.9754,6.02461Q17.6749,5.724138,17.25,5.724138L6.75,5.724138Q6.32507,5.724138,6.02461,6.02461Q5.724138,6.32507,5.724138,6.75L5.724138,11.964649999999999Q5.725,11.98232,5.725,12Q5.725,12.07141,5.711069,12.14144Q5.697139,12.21147,5.6698129999999995,12.27745Q5.642487,12.34342,5.602815,12.40279Q5.563144,12.46216,5.512652,12.51265Q5.46216,12.56314,5.402788,12.60281Q5.343416,12.642489999999999,5.277445,12.66981Q5.211475,12.697140000000001,5.14144,12.71107Q5.0714063,12.725,5,12.725Q4.9285937,12.725,4.85856,12.71107Q4.788525,12.697140000000001,4.722555,12.66981Q4.656584,12.642489999999999,4.597212,12.60281Q4.53784,12.56314,4.487348,12.51265Q4.436856,12.46216,4.397185,12.40279Q4.357513,12.34342,4.3301870000000005,12.27745Q4.302861,12.21147,4.288931,12.14144Q4.275,12.07141,4.275,12Q4.275,11.98232,4.275862,11.964649999999999L4.275862,6.75Q4.275862,5.725179,5.000520289,5.000520289Q5.725178,4.275862,6.75,4.275862L17.25,4.275862Q18.2748,4.275862,18.999499999999998,5.000520863Q19.7241,5.72518,19.7241,6.75L19.7241,17.25Q19.7241,18.2748,18.999499999999998,18.999499999999998Q18.2748,19.7241,17.25,19.7241L12.03537,19.7241Z" fill-rule="evenodd" fill="#000000" fill-opacity="1" style="mix-blend-mode:passthrough"/></g><g><path d="M11.9117431640625,8.0439453125L15.2058831640625,8.0439453125Q15.2797531640625,8.0439453125,15.3522031640625,8.058356312499999Q15.4246531640625,8.0727673125,15.4929031640625,8.1010353125Q15.5611431640625,8.1293043125,15.6225631640625,8.1703433125Q15.6839831640625,8.2113823125,15.7362131640625,8.2636153125Q15.7884531640625,8.3158483125,15.8294931640625,8.3772673125Q15.8705331640625,8.4386873125,15.8987931640625,8.5069323125Q15.9270631640625,8.5751783125,15.9414731640625,8.6476273125Q15.955883164062499,8.7200768125,15.955883164062499,8.7939453125L15.955883164062499,12.0880853125Q15.955883164062499,12.1619553125,15.9414731640625,12.2344053125Q15.9270631640625,12.3068553125,15.8987931640625,12.3751053125Q15.8705331640625,12.4433453125,15.8294931640625,12.5047653125Q15.7884531640625,12.5661853125,15.7362131640625,12.6184153125Q15.6839831640625,12.6706553125,15.6225631640625,12.7116953125Q15.5611431640625,12.7527353125,15.4929031640625,12.7809953125Q15.4246531640625,12.8092653125,15.3522031640625,12.8236753125Q15.2797531640625,12.838085312499999,15.2058831640625,12.838085312499999Q15.132023164062499,12.838085312499999,15.059573164062499,12.8236753125Q14.9871231640625,12.8092653125,14.9188731640625,12.7809953125Q14.8506331640625,12.7527353125,14.7892131640625,12.7116953125Q14.7277931640625,12.6706553125,14.6755531640625,12.6184153125Q14.6233231640625,12.5661853125,14.582283164062499,12.5047653125Q14.5412431640625,12.4433453125,14.512973164062501,12.3751053125Q14.4847131640625,12.3068553125,14.4703031640625,12.2344053125Q14.4558831640625,12.1619553125,14.4558831640625,12.0880853125L14.4558831640625,9.5439453125L11.9117431640625,9.5439453125Q11.8378746640625,9.5439453125,11.7654251640625,9.529534312500001Q11.6929761640625,9.5151233125,11.6247301640625,9.4868553125Q11.5564851640625,9.4585863125,11.4950651640625,9.4175473125Q11.4336461640625,9.3765083125,11.3814131640625,9.3242753125Q11.3291801640625,9.2720423125,11.2881411640625,9.2106233125Q11.2471021640625,9.1492033125,11.2188331640625,9.0809583125Q11.1905651640625,9.0127123125,11.176154164062499,8.9402633125Q11.1617431640625,8.8678138125,11.1617431640625,8.7939453125Q11.1617431640625,8.7200768125,11.176154164062499,8.6476273125Q11.1905651640625,8.5751783125,11.2188331640625,8.5069323125Q11.2471021640625,8.4386873125,11.2881411640625,8.3772673125Q11.3291801640625,8.3158483125,11.3814131640625,8.2636153125Q11.4336461640625,8.2113823125,11.4950651640625,8.1703433125Q11.5564851640625,8.1293043125,11.6247301640625,8.1010353125Q11.6929761640625,8.0727673125,11.7654251640625,8.058356312499999Q11.8378746640625,8.0439453125,11.9117431640625,8.0439453125Z" fill-rule="evenodd" fill="#000000" fill-opacity="1" style="mix-blend-mode:passthrough"/></g><g><path d="M15.7362668359375,9.3242753125Q15.841756835937499,9.2187863125,15.898846835937501,9.0809583125Q15.9559368359375,8.9431293125,15.9559368359375,8.7939453125Q15.9559368359375,8.7200768125,15.9415268359375,8.6476273125Q15.9271168359375,8.5751783125,15.898846835937501,8.5069323125Q15.8705768359375,8.4386873125,15.8295368359375,8.3772673125Q15.7884968359375,8.3158483125,15.7362668359375,8.2636153125Q15.684036835937501,8.2113823125,15.6226168359375,8.1703433125Q15.561196835937501,8.1293043125,15.4929468359375,8.1010353125Q15.4247068359375,8.0727673125,15.3522568359375,8.058356312499999Q15.2798068359375,8.0439453125,15.2059368359375,8.0439453125Q15.0567568359375,8.0439453125,14.9189268359375,8.1010353125Q14.7810968359375,8.1581263125,14.6756068359375,8.2636153125L14.6753768359375,8.2638503125L10.5581618359375,12.3810653125L10.5579268359375,12.3812953125Q10.4524378359375,12.4867853125,10.3953468359375,12.6246153125Q10.3382568359375,12.7624453125,10.3382568359375,12.9116253125Q10.3382568359375,12.9854953125,10.352667835937499,13.0579453125Q10.3670788359375,13.1303953125,10.3953468359375,13.1986353125Q10.4236158359375,13.266885312500001,10.4646548359375,13.3283053125Q10.5056938359375,13.389725312500001,10.5579268359375,13.4419553125Q10.6101598359375,13.4941853125,10.6715788359375,13.5352253125Q10.7329988359375,13.5762653125,10.8012438359375,13.604535312500001Q10.8694898359375,13.6328053125,10.9419388359375,13.6472153125Q11.0143883359375,13.6616253125,11.0882568359375,13.6616253125Q11.2374408359375,13.6616253125,11.3752698359375,13.604535312500001Q11.5130978359375,13.547445312499999,11.6185868359375,13.4419553125L15.7362668359375,9.3242753125Z" fill-rule="evenodd" fill="#000000" fill-opacity="1" style="mix-blend-mode:passthrough"/></g></g></svg>