<svg xmlns="http://www.w3.org/2000/svg" xmlns:xlink="http://www.w3.org/1999/xlink" fill="none" version="1.1" width="24" height="24" viewBox="0 0 24 24"><defs><clipPath id="master_svg0_5811_08815"><rect x="0" y="0" width="24" height="24" rx="0"/></clipPath></defs><g clip-path="url(#master_svg0_5811_08815)"><g><path d="M12.199215,1.6546817375L21.438275,3.1968671875C21.590575,3.2226471875,21.700775,3.3421771875,21.700775,3.4828071874999997L21.700775,7.8796771875C21.700775,13.6710671875,18.342175,19.0241671875,12.874175,21.9562671875L12.189845,22.3101671875C12.089065,22.3616671875,11.971875,22.3616671875,11.871095,22.3124671875L11.634375,22.1952671875C5.882815,19.3335671875,2.296875,13.8257671875,2.296875,7.8398371875L2.296875,3.4804671875C2.296875,3.3374971875,2.407031,3.2203071875,2.561719,3.1945271875000003L11.857035,1.6570254875L11.885155,1.6546817375L12.145315,1.6523379895C12.164065,1.6499942375,12.180465,1.6523379895,12.199215,1.6546817375ZM8.798435,4.2374971875C8.681255,4.710927187499999,8.521875,5.2054671875,8.317965000000001,5.7187471875C7.919535,6.7171771875,7.453125,7.6874971875,6.918745,8.6203071875C6.660935,9.063277187499999,6.414845,9.4499971875,6.180465,9.7804671875L7.061715,10.7929571875L7.305465,10.4484271875L7.530465,10.1062471875L7.957035,9.4195271875L7.957035,15.8812671875L9.164065,15.8812671875L9.164065,7.0663971875L9.321095,6.6796771875C9.583594999999999,5.9976471875,9.813285,5.3038971875000005,10.010155000000001,4.5984271875000005L8.798435,4.2374971875ZM16.879675,11.3320271875L10.387495,11.3320271875L10.387495,15.8577671875L11.648435,15.8577671875L11.648435,15.1124671875L15.616375,15.1124671875L15.616375,15.8577671875L16.879675,15.8577671875L16.879675,11.3320271875ZM15.616375,12.4640671875L15.616375,14.0062671875L11.648435,14.0062671875L11.648435,12.4640671875L15.616375,12.4640671875ZM16.739075,9.4570271875L10.504685,9.4570271875L10.504685,10.5492071875L16.739075,10.5492071875L16.739075,9.4570271875ZM16.739075,7.5843671875L10.504685,7.5843671875L10.504685,8.650777187500001L16.739075,8.650777187500001L16.739075,7.5843671875ZM14.017975,4.3242171875L12.717175,4.5210871875L12.796875,4.760147187499999L13.073475,5.5992171875L9.834375,5.5992171875L9.834375,6.7781171875L17.821875,6.7781171875L17.821875,5.6015571875L14.442175,5.6015571875L14.369575,5.357807187500001C14.320275,5.2054671875,14.271075,5.0554671875,14.217175,4.9054671875C14.139875,4.6921771875000005,14.074175,4.4999971875,14.017975,4.3242171875Z" fill="#458FFF" fill-opacity="1" style="mix-blend-mode:passthrough"/></g></g></svg>