<svg xmlns="http://www.w3.org/2000/svg" xmlns:xlink="http://www.w3.org/1999/xlink" fill="none" version="1.1" width="24" height="24" viewBox="0 0 24 24"><defs><clipPath id="master_svg0_5772_08547"><rect x="0" y="0" width="24" height="24" rx="0"/></clipPath></defs><g clip-path="url(#master_svg0_5772_08547)"><g></g><g><path d="M15.4801,4.51992Q13.2102,2.25,10,2.249999Q6.78984,2.25,4.51992,4.51992Q2.25,6.78984,2.249999,10Q2.25,13.2102,4.51992,15.4801Q6.7898499999999995,17.75,10,17.75Q13.2102,17.75,15.4801,15.4801Q17.75,13.2102,17.75,10Q17.75,6.78984,15.4801,4.51992ZM5.580579999999999,5.580579999999999Q7.41116,3.75,10,3.75Q12.58883,3.75,14.4194,5.580579999999999Q16.25,7.41116,16.25,10Q16.25,12.58883,14.4194,14.4194Q12.58884,16.25,10,16.25Q7.41116,16.25,5.580579999999999,14.4194Q3.75,12.58884,3.749999,10Q3.75,7.41116,5.580579999999999,5.580579999999999Z" fill-rule="evenodd" fill="#000000" fill-opacity="1" style="mix-blend-mode:passthrough"/></g><g><path d="M7,9.25L13,9.25Q13.07387,9.25,13.14632,9.264410999999999Q13.21877,9.278822,13.28701,9.30709Q13.355260000000001,9.335359,13.41668,9.376398Q13.478100000000001,9.417437,13.53033,9.46967Q13.58256,9.521903,13.6236,9.583322Q13.66464,9.644742,13.692910000000001,9.712987Q13.72118,9.781233,13.73559,9.853682Q13.75,9.9261315,13.75,10Q13.75,10.0738685,13.73559,10.146318Q13.72118,10.218767,13.692910000000001,10.287013Q13.66464,10.355258,13.6236,10.416678Q13.58256,10.478097,13.53033,10.53033Q13.478100000000001,10.582563,13.41668,10.623602Q13.355260000000001,10.664641,13.28701,10.69291Q13.21877,10.721178,13.14632,10.735589000000001Q13.07387,10.75,13,10.75L7,10.75Q6.9261315,10.75,6.853682,10.735589000000001Q6.781233,10.721178,6.712987,10.69291Q6.644742,10.664641,6.583322,10.623602Q6.521903,10.582563,6.46967,10.53033Q6.417437,10.478097,6.376398,10.416678Q6.335359,10.355258,6.30709,10.287013Q6.278822,10.218767,6.264411,10.146318Q6.25,10.0738685,6.25,10Q6.25,9.9261315,6.264411,9.853682Q6.278822,9.781233,6.30709,9.712987Q6.335359,9.644742,6.376398,9.583322Q6.417437,9.521903,6.46967,9.46967Q6.521903,9.417437,6.583322,9.376398Q6.644742,9.335359,6.712987,9.30709Q6.781233,9.278822,6.853682,9.264410999999999Q6.9261315,9.25,7,9.25Z" fill-rule="evenodd" fill="#000000" fill-opacity="1" style="mix-blend-mode:passthrough"/></g><g><path d="M15.530484,14.469824L21.5297,20.46904L21.53033,20.46967Q21.63582,20.57516,21.69291,20.712989999999998Q21.75,20.85082,21.75,21Q21.75,21.07387,21.735590000000002,21.14632Q21.72118,21.21877,21.69291,21.287010000000002Q21.66464,21.35526,21.6236,21.41668Q21.58256,21.4781,21.53033,21.53033Q21.4781,21.58256,21.41668,21.6236Q21.35526,21.66464,21.287010000000002,21.69291Q21.21877,21.72118,21.14632,21.735590000000002Q21.07387,21.75,21,21.75Q20.85082,21.75,20.712989999999998,21.69291Q20.57516,21.63582,20.46967,21.53033L20.46904,21.5297L14.469824,15.530484L14.46967,15.53033Q14.364181,15.424841,14.30709,15.287013Q14.25,15.149184,14.25,15Q14.25,14.9261315,14.264410999999999,14.853682Q14.278822,14.781233,14.30709,14.712987Q14.335359,14.644742,14.376398,14.583322Q14.417437,14.521903,14.46967,14.46967Q14.521903,14.417437,14.583322,14.376398Q14.644742,14.335359,14.712987,14.30709Q14.781233,14.278822,14.853682,14.264410999999999Q14.9261315,14.25,15,14.25Q15.149184,14.25,15.287013,14.30709Q15.424841,14.364181,15.53033,14.46967L15.530484,14.469824Z" fill-rule="evenodd" fill="#000000" fill-opacity="1" style="mix-blend-mode:passthrough"/></g></g></svg>