<svg xmlns="http://www.w3.org/2000/svg" xmlns:xlink="http://www.w3.org/1999/xlink" fill="none" version="1.1" width="24" height="24" viewBox="0 0 24 24"><defs><clipPath id="master_svg0_30_03865"><rect x="0" y="0" width="24" height="24" rx="0"/></clipPath><filter id="master_svg1_30_03875" filterUnits="objectBoundingBox" color-interpolation-filters="sRGB" x="-0.3" y="-0.4" width="1.8" height="1.8"><feFlood flood-opacity="0" result="BackgroundImageFix"/><feColorMatrix in="SourceAlpha" type="matrix" values="0 0 0 0 0 0 0 0 0 0 0 0 0 0 0 0 0 0 127 0"/><feOffset dy="0" dx="1"/><feGaussianBlur stdDeviation="1"/><feColorMatrix type="matrix" values="0 0 0 0 0 0 0 0 0 0.1726190447807312 0 0 0 0 0.06277056038379669 0 0 0 0.33000001311302185 0"/><feBlend mode="normal" in2="BackgroundImageFix" result="effect1_dropShadow"/><feBlend mode="normal" in="SourceGraphic" in2="effect1_dropShadow" result="shape"/></filter></defs><g clip-path="url(#master_svg0_30_03865)"><g><path d="M4.000006675720215,4L4.000017994620215,20C4.000018689220215,21.1046,4.895448675720215,22,6.0000166757202145,22L18.000006675720215,22C19.104606675720213,22,20.000006675720215,21.1046,20.000006675720215,20L20.000006675720215,4C20.000006675720215,2.895431,19.104606675720213,2,18.000006675720215,2L6.000006675720215,2C4.895437675720215,2,4.000006675720215,2.895431,4.000006675720215,4Z" fill="#009A29" fill-opacity="1"/></g><g style="opacity:0.5;"><path d="M13,7L13.00000550225,12L20,12L20,7L13,7Z" fill="#FFFCE8" fill-opacity="1"/></g><g style="opacity:0.30000001192092896;"><path d="M4,7L4.00000707433,12L13,12L13,7L4,7Z" fill="#FFFCE8" fill-opacity="1"/></g><g style="opacity:0.6000000238418579;"><path d="M13,2L13.00000550225,7L20,7L20,4C20,2.895431,19.10457,2,18,2L13,2Z" fill="#FFFCE8" fill-opacity="1"/></g><g style="opacity:0.4000000059604645;"><path d="M4.00000282973,4L4.00000707433,7L13,7L13,2L6,2C4.895432,2,4,2.895432,4.00000282973,4Z" fill="#FFFCE8" fill-opacity="1"/></g><g style="opacity:0.30000001192092896;"><path d="M13,17L13.00000550225,22L18,22C19.10457,22,20,21.10457,20,20L20,17L13,17Z" fill="#FFFCE8" fill-opacity="1"/></g><g style="opacity:0.10000000149011612;"><path d="M4,17L4.0000042446,20C4.00000580742,21.10457,4.895436,22,6,22L13,22L13,17L4,17Z" fill="#FFFCE8" fill-opacity="1"/></g><g style="opacity:0.4000000059604645;"><path d="M13,12L13.00000550225,17L20,17L20,12L13,12Z" fill="#FFFCE8" fill-opacity="1"/></g><g style="opacity:0.20000000298023224;"><path d="M4,12L4.00000707433,17L13,17L13,12L4,12Z" fill="#FFFCE8" fill-opacity="1"/></g><g filter="url(#master_svg1_30_03875)"><rect x="1.5" y="7" width="10" height="10" rx="2" fill="#008026" fill-opacity="1"/></g><g><path d="M5.0304839999999995,9.469824L9.03033,13.46967Q9.135819999999999,13.57516,9.192910000000001,13.71299Q9.25,13.85082,9.25,14Q9.25,14.07387,9.23559,14.14632Q9.22118,14.21877,9.192910000000001,14.28701Q9.16464,14.355260000000001,9.1236,14.41668Q9.08256,14.478100000000001,9.03033,14.53033Q8.978100000000001,14.58256,8.91668,14.6236Q8.855260000000001,14.66464,8.78701,14.692910000000001Q8.71877,14.72118,8.64632,14.73559Q8.57387,14.75,8.5,14.75Q8.35082,14.75,8.21299,14.692910000000001Q8.07516,14.635819999999999,7.96967,14.53033L3.969824,10.530484L3.96967,10.53033Q3.864181,10.424841,3.80709,10.287013Q3.75,10.149184,3.75,10Q3.75,9.9261315,3.764411,9.853682Q3.778822,9.781233,3.80709,9.712987Q3.835359,9.644742,3.876398,9.583322Q3.917437,9.521903,3.96967,9.46967Q4.021903,9.417437,4.083322,9.376398Q4.144742,9.335359,4.212987,9.30709Q4.281233,9.278822,4.353682,9.264410999999999Q4.4261315,9.25,4.5,9.25Q4.649184,9.25,4.787013,9.30709Q4.924841,9.364181,5.03033,9.46967L5.0304839999999995,9.469824Z" fill-rule="evenodd" fill="#FFFFFF" fill-opacity="1"/></g><g><path d="M9.03033,10.53033Q9.135819999999999,10.424841,9.192910000000001,10.287013Q9.25,10.149184,9.25,10Q9.25,9.9261315,9.23559,9.853682Q9.22118,9.781233,9.192910000000001,9.712987Q9.16464,9.644742,9.1236,9.583322Q9.08256,9.521903,9.03033,9.46967Q8.978100000000001,9.417437,8.91668,9.376398Q8.855260000000001,9.335359,8.78701,9.30709Q8.71877,9.278822,8.64632,9.264410999999999Q8.57387,9.25,8.5,9.25Q8.35082,9.25,8.21299,9.30709Q8.07516,9.364181,7.96967,9.46967L3.96967,13.46967Q3.864181,13.57516,3.80709,13.71299Q3.75,13.85082,3.75,14Q3.75,14.07387,3.764411,14.14632Q3.778822,14.21877,3.80709,14.28701Q3.835359,14.355260000000001,3.876398,14.41668Q3.917437,14.478100000000001,3.96967,14.53033Q4.021903,14.58256,4.083322,14.6236Q4.144742,14.66464,4.212987,14.692910000000001Q4.281233,14.72118,4.353682,14.73559Q4.4261315,14.75,4.5,14.75Q4.649184,14.75,4.787013,14.692910000000001Q4.924841,14.635819999999999,5.03033,14.53033L9.03033,10.53033L9.03033,10.53033Z" fill-rule="evenodd" fill="#FFFFFF" fill-opacity="1"/></g><g><path d="M12.376585299987793,22.62342Q11.834639299987792,22.08147,12.053549199987794,21.34711L12.358318299987793,20.32423Q12.575270299987793,19.59615,13.112425299987793,19.059260000000002L17.438095299987793,14.7336L18.448115299987794,13.723575L18.586015299987793,13.585669Q19.171785299987793,13,20.000115299987794,13Q20.82844529998779,13,21.414215299987795,13.585669Q21.999965299987792,14.17155,21.999965299987792,14.999880000000001Q21.999965299987792,15.82821,21.414275299987793,16.41404L21.276425299987793,16.55189L20.266405299987795,17.56191L15.940915299987793,21.8874Q15.403855299987793,22.42473,14.675745299987792,22.64169L13.653005299987793,22.94642Q12.918527299987794,23.165399999999998,12.376585299987793,22.62342Z" fill-rule="evenodd" fill="#FFFFFF" fill-opacity="1"/></g><g><path d="M20.707169999999998,14.292835C20.31665,13.9023884,19.68358,13.9023884,19.29307,14.292835L18.85231,14.733597L20.2664,16.1477L20.707169999999998,15.70693C21.09761,15.31642,21.09761,14.683346,20.707169999999998,14.292835ZM19.86221,16.55189L18.44811,15.13779L13.819534,19.766370000000002C13.58443,20.00136,13.411601,20.29123,13.316676,20.6098L13.0119138,21.63266C12.9819379,21.73322,13.00949407,21.842109999999998,13.083691,21.91631C13.157888,21.99051,13.266785,22.01806,13.367343,21.98809L14.3902,21.683320000000002C14.70876,21.5884,14.99865,21.41557,15.23363,21.18047L19.86221,16.55189L19.86221,16.55189Z" fill="#008026" fill-opacity="1"/></g></g></svg>