<svg xmlns="http://www.w3.org/2000/svg" xmlns:xlink="http://www.w3.org/1999/xlink" fill="none" version="1.1" width="24" height="24" viewBox="0 0 24 24"><defs><clipPath id="master_svg0_30_00613"><rect x="0" y="0" width="24" height="24" rx="0"/></clipPath><filter id="master_svg1_30_00619" filterUnits="objectBoundingBox" color-interpolation-filters="sRGB" x="0" y="0" width="1" height="1"><feFlood flood-opacity="0" result="BackgroundImageFix"/><feBlend mode="normal" in="SourceGraphic" in2="BackgroundImageFix" result="shape"/><feGaussianBlur in="BackgroundImageFix" stdDeviation="1.7164440155029297"/><feComposite in2="SourceAlpha" operator="in" result="effect1_foregroundBlur"/><feBlend mode="normal" in="SourceGraphic" in2="effect1_foregroundBlur" result="shape"/></filter></defs><g clip-path="url(#master_svg0_30_00613)"><g><path d="M10.246140762939453,19.892348828125C15.242200762939452,19.892348828125,19.29220076293945,15.842248828125,19.29220076293945,10.846188828125C19.29220076293945,5.850138828125,15.242200762939452,1.800048828125,10.246140762939453,1.800048828125C5.2500807629394535,1.800048828125,1.2000007629394531,5.850138828125,1.2000007629394531,10.846188828125C1.2000007629394531,10.989828828125,1.2033487329394532,11.132688828125,1.209972712939453,11.274648828125C1.308240762939453,13.515248828125,2.224060762939453,15.543648828125,3.6664707629394533,17.068748828125003L2.783500762939453,18.368648828125C2.343800762939453,19.016048828125,2.807480762939453,19.891448828125,3.590040762939453,19.891448828125L9.787620762939452,19.891448828125L9.787200762939452,19.881248828125C9.835140762939453,19.883548828125,9.883200762939452,19.885448828125,9.931380762939453,19.886948828125C10.035840762939452,19.890548828125,10.140780762939453,19.892348828125,10.246140762939453,19.892348828125Z" fill-rule="evenodd" fill="#2AAE67" fill-opacity="1" style="mix-blend-mode:passthrough"/></g><g filter="url(#master_svg1_30_00619)"><g><path d="M21.719101248168947,19.336926795043944C22.599601248168945,18.310986795043945,23.131601248168945,16.977186795043945,23.131601248168945,15.519126795043945C23.131601248168945,12.279846795043944,20.505661248168945,9.653886795043945,17.266381248168944,9.653886795043945C14.027101248168945,9.653886795043945,11.401201248168945,12.279846795043944,11.401201248168945,15.519126795043945C11.401201248168945,18.758406795043946,14.027101248168945,21.384386795043945,17.266381248168944,21.384386795043945C17.390761248168946,21.384386795043945,17.514241248168943,21.380486795043943,17.636641248168946,21.372886795043947L17.636641248168946,21.384086795043945L21.274321248168945,21.384086795043945C22.060101248168944,21.384086795043945,22.523101248168945,20.502086795043944,22.076801248168945,19.855286795043945L21.719101248168947,19.336926795043944Z" fill-rule="evenodd" fill="#3EE454" fill-opacity="1" style="mix-blend-mode:passthrough"/></g></g></g></svg>