<svg xmlns="http://www.w3.org/2000/svg" xmlns:xlink="http://www.w3.org/1999/xlink" fill="none" version="1.1" width="24" height="24" viewBox="0 0 24 24"><defs><clipPath id="master_svg0_36_01149"><rect x="0" y="0" width="24" height="24" rx="0"/></clipPath></defs><g clip-path="url(#master_svg0_36_01149)"><g transform="matrix(0.4999999701976776,0.866025447845459,-0.866025447845459,0.4999999701976776,11.1867016971446,-12.696247728774324)"><path d="M26.588623046875,3.33984375C21.244273046875,8.14975375,21.244273046875,16.52994375,26.588623046875,21.33984375C31.932923046875,16.52994375,31.932923046875,8.14975375,26.588623046875,3.33984375Z" fill="#96BFFC" fill-opacity="1"/><path d="M27.090323046875,2.78237275Q27.039123046874998,2.73628575,26.980423046875,2.70029775Q26.921623046875,2.66431075,26.857323046875003,2.63962875Q26.793023046875,2.61494575,26.725223046875,2.60239475Q26.657523046875,2.58984375,26.588623046875,2.58984375Q26.519733046875,2.58984375,26.451993046875,2.60239475Q26.384243046875,2.61494575,26.319923046874997,2.63962875Q26.255603046875002,2.66431075,26.196853046875,2.70029775Q26.138113046875,2.73628575,26.086903046875,2.78237275Q24.001423046875,4.65930375,22.894573046875,7.20620375Q21.830363046875,9.65499375,21.830363046875,12.33984375Q21.830363046875,15.02474375,22.894573046875,17.47344375Q24.001423046875,20.02034375,26.086903046875,21.89734375Q26.138113046875,21.94344375,26.196853046875,21.97934375Q26.255603046875002,22.01534375,26.319923046874997,22.04004375Q26.384243046875,22.06474375,26.451993046875,22.07724375Q26.519733046875,22.08984375,26.588623046875,22.08984375Q26.657523046875,22.08984375,26.725223046875,22.07724375Q26.793023046875,22.06474375,26.857323046875003,22.04004375Q26.921623046875,22.01534375,26.980423046875,21.97934375Q27.039123046874998,21.94344375,27.090323046875,21.89734375Q29.175823046875,20.02034375,30.282623046875003,17.47344375Q31.346923046875,15.02474375,31.346923046875,12.33984375Q31.346923046875,9.65499375,30.282623046875003,7.20620375Q29.175823046875,4.65930375,27.090323046875,2.78237275ZM26.588623046875,4.37598375Q25.109683046875,5.87257375,24.270283046875,7.80406375Q23.330363046875,9.966843749999999,23.330363046875,12.33984375Q23.330363046875,14.71284375,24.270283046875,16.875643750000002Q25.109683046875,18.80714375,26.588623046875,20.30374375Q28.067523046875,18.80714375,28.906923046875,16.875643750000002Q29.846923046875,14.71284375,29.846923046875,12.33984375Q29.846923046875,9.96685375,28.906923046875,7.80406375Q28.067523046875,5.87257375,26.588623046875,4.37598375Z" fill-rule="evenodd" fill="#96BFFC" fill-opacity="1"/></g><g transform="matrix(0.8660253882408142,0.5,-0.5,0.8660253882408142,1.055050227259926,-3.1147467722621514)"><path d="M16.3397216796875,0.411376953125C10.9953716796875,5.221286953125,10.9953716796875,13.601476953125,16.3397216796875,18.411376953125C21.6840216796875,13.601476953125,21.6840216796875,5.221286953125,16.3397216796875,0.411376953125Z" fill="#458DF9" fill-opacity="1"/><path d="M16.8414216796875,-0.14609404687500005Q16.790221679687498,-0.19218104687500004,16.7315216796875,-0.22816904687499995Q16.6727216796875,-0.26415604687500005,16.608421679687503,-0.28883804687500003Q16.5441216796875,-0.31352104687500004,16.4763216796875,-0.326072046875Q16.4086216796875,-0.338623046875,16.3397216796875,-0.338623046875Q16.2708316796875,-0.338623046875,16.2030916796875,-0.326072046875Q16.1353416796875,-0.31352104687500004,16.071021679687497,-0.28883804687500003Q16.006701679687502,-0.26415604687500005,15.9479516796875,-0.22816904687499995Q15.8892116796875,-0.19218104687500004,15.8380016796875,-0.14609404687500005Q13.7525216796875,1.730836953125,12.6456716796875,4.277736953125Q11.5814616796875,6.726526953125,11.5814616796875,9.411376953125Q11.5814616796875,12.096276953125,12.6456716796875,14.544976953125Q13.7525216796875,17.091876953125,15.8380016796875,18.968876953125Q15.8892116796875,19.014976953125,15.9479516796875,19.050876953125Q16.006701679687502,19.086876953125,16.071021679687497,19.111576953125Q16.1353416796875,19.136276953125,16.2030916796875,19.148776953125Q16.2708316796875,19.161376953125,16.3397216796875,19.161376953125Q16.4086216796875,19.161376953125,16.4763216796875,19.148776953125Q16.5441216796875,19.136276953125,16.608421679687503,19.111576953125Q16.6727216796875,19.086876953125,16.7315216796875,19.050876953125Q16.790221679687498,19.014976953125,16.8414216796875,18.968876953125Q18.9269216796875,17.091876953125,20.033721679687503,14.544976953125Q21.0980216796875,12.096276953125,21.0980216796875,9.411376953125Q21.0980216796875,6.726526953125,20.033721679687503,4.277736953125Q18.9269216796875,1.730836953125,16.8414216796875,-0.14609404687500005ZM16.3397216796875,1.447516953125Q14.8607816796875,2.944106953125,14.0213816796875,4.875596953125Q13.0814616796875,7.038376953125,13.0814616796875,9.411376953125Q13.0814616796875,11.784376953125,14.0213816796875,13.947176953125Q14.8607816796875,15.878676953125,16.3397216796875,17.375276953125Q17.8186216796875,15.878676953125,18.6580216796875,13.947176953125Q19.5980216796875,11.784376953125,19.5980216796875,9.411376953125Q19.5980216796875,7.038386953125,18.6580216796875,4.875596953125Q17.8186216796875,2.944106953125,16.3397216796875,1.447516953125Z" fill-rule="evenodd" fill="#458DF9" fill-opacity="1"/></g><g><path d="M6,3C0.6556499999999996,7.80991,0.6556499999999996,16.1901,6,21C11.3443,16.1901,11.3443,7.80991,6,3Z" fill="#0066FF" fill-opacity="1"/><path d="M6.5017,2.442529Q6.4505,2.396442,6.3918,2.360454Q6.333,2.324467,6.268700000000001,2.299785Q6.2044,2.275102,6.1366,2.262551Q6.068899999999999,2.25,6,2.25Q5.93111,2.25,5.86337,2.262551Q5.7956199999999995,2.275102,5.731299999999999,2.299785Q5.666980000000001,2.324467,5.608230000000001,2.360454Q5.5494900000000005,2.396442,5.498279999999999,2.442529Q3.4128,4.31946,2.30595,6.86636Q1.24174,9.31515,1.24174,12Q1.24174,14.6849,2.30595,17.1336Q3.4128,19.6805,5.498279999999999,21.5575Q5.5494900000000005,21.6036,5.608230000000001,21.6395Q5.666980000000001,21.6755,5.731299999999999,21.7002Q5.7956199999999995,21.7249,5.86337,21.7374Q5.93111,21.75,6,21.75Q6.068899999999999,21.75,6.1366,21.7374Q6.2044,21.7249,6.268700000000001,21.7002Q6.333,21.6755,6.3918,21.6395Q6.4505,21.6036,6.5017,21.5575Q8.5872,19.6805,9.694,17.1336Q10.7583,14.6849,10.7583,12Q10.7583,9.31515,9.694,6.86636Q8.5872,4.31946,6.5017,2.442529ZM6,4.03614Q4.52106,5.53273,3.68166,7.46422Q2.74174,9.626999999999999,2.74174,12Q2.74174,14.373,3.68166,16.535800000000002Q4.52106,18.4673,6,19.9639Q7.478899999999999,18.4673,8.3183,16.535800000000002Q9.2583,14.373,9.2583,12Q9.2583,9.62701,8.3183,7.46422Q7.478899999999999,5.53273,6,4.03614Z" fill-rule="evenodd" fill="#0066FF" fill-opacity="1"/></g><g><path d="M16.5,15.5Q16.5,15.4263097,16.50722,15.352974Q16.51445,15.279639,16.52882,15.207365Q16.5432,15.13509,16.56459,15.064573Q16.58598,14.994056,16.61418,14.925975Q16.64238,14.857894,16.67712,14.792905Q16.71186,14.727916,16.7528,14.666645Q16.79374,14.605373,16.84048,14.54841Q16.88723,14.49145,16.93934,14.43934Q16.99145,14.38723,17.04841,14.34048Q17.10537,14.29374,17.16664,14.2528Q17.22792,14.21186,17.2929,14.17712Q17.35789,14.14238,17.42597,14.11418Q17.49406,14.08598,17.56457,14.064589999999999Q17.635089999999998,14.0432,17.70736,14.02882Q17.77964,14.01445,17.85297,14.00722Q17.92631,14,18,14Q18.07369,14,18.14703,14.00722Q18.22036,14.01445,18.29263,14.02882Q18.364910000000002,14.0432,18.43543,14.064589999999999Q18.50594,14.08598,18.57402,14.11418Q18.64211,14.14238,18.70709,14.17712Q18.77208,14.21186,18.83335,14.2528Q18.89463,14.29374,18.95159,14.34048Q19.00855,14.38723,19.06066,14.43934Q19.11277,14.49145,19.15952,14.54841Q19.20626,14.605373,19.2472,14.666645Q19.28814,14.727916,19.322879999999998,14.792905Q19.35762,14.857894,19.38582,14.925975Q19.41402,14.994056,19.43541,15.064573Q19.4568,15.13509,19.47118,15.207365Q19.48555,15.279639,19.49278,15.352974Q19.5,15.4263097,19.5,15.5L19.5,18.87868L19.93903,18.43965L19.93934,18.43934Q20.04381,18.33487,20.16664,18.2528Q20.28948,18.17072,20.42597,18.11418Q20.56247,18.05764,20.70736,18.02882Q20.85226,18,21,18Q21.07369,18,21.14703,18.00722Q21.22036,18.01445,21.29263,18.02882Q21.364910000000002,18.0432,21.43543,18.06459Q21.50594,18.08598,21.57402,18.11418Q21.64211,18.14238,21.70709,18.17712Q21.77208,18.21186,21.83335,18.2528Q21.89463,18.29374,21.95159,18.34048Q22.00855,18.38723,22.06066,18.43934Q22.11277,18.49145,22.15952,18.54841Q22.20626,18.60537,22.2472,18.66664Q22.28814,18.72792,22.322879999999998,18.7929Q22.35762,18.85789,22.38582,18.92597Q22.41402,18.99406,22.43541,19.06457Q22.4568,19.135089999999998,22.47118,19.20736Q22.48555,19.27964,22.49278,19.35297Q22.5,19.42631,22.5,19.5Q22.5,19.64774,22.47118,19.79264Q22.44236,19.93753,22.38582,20.07403Q22.32928,20.21052,22.2472,20.33336Q22.16513,20.45619,22.06066,20.56066L22.06035,20.56097L19.06066,23.56066Q18.95619,23.665129999999998,18.83336,23.7472Q18.71052,23.82928,18.57403,23.885820000000002Q18.43753,23.94236,18.29263,23.97118Q18.14774,24,18,24Q17.85226,24,17.70736,23.97118Q17.56247,23.94236,17.42597,23.885820000000002Q17.28948,23.82928,17.16664,23.7472Q17.04381,23.665129999999998,16.93934,23.56066L13.93934,20.56066Q13.83487,20.45619,13.7528,20.33336Q13.67072,20.21052,13.61418,20.07403Q13.55764,19.93753,13.52882,19.79263Q13.5,19.64774,13.5,19.5Q13.5,19.42631,13.50722,19.35297Q13.51445,19.27964,13.52882,19.20736Q13.5432,19.135089999999998,13.564589999999999,19.06457Q13.58598,18.99406,13.61418,18.92597Q13.64238,18.85789,13.67712,18.7929Q13.71186,18.72792,13.7528,18.66664Q13.79374,18.60537,13.84048,18.54841Q13.88723,18.49145,13.93934,18.43934Q13.99145,18.38723,14.04841,18.34048Q14.105373,18.29374,14.166645,18.2528Q14.227916,18.21186,14.292905,18.17712Q14.357894,18.14238,14.425975,18.11418Q14.494056,18.08598,14.564573,18.06459Q14.63509,18.0432,14.707365,18.02882Q14.779639,18.01445,14.852974,18.00722Q14.9263097,18,15,18Q15.147737,18,15.292636,18.02882Q15.437534,18.05764,15.574025,18.11418Q15.710517,18.17072,15.833355,18.2528Q15.956194,18.33487,16.06066,18.43934L16.06113,18.43981L16.5,18.87868L16.5,15.5Z" fill-rule="evenodd" fill="#FFFFFF" fill-opacity="1" style="mix-blend-mode:passthrough"/></g><g><path d="M17.5,15.5Q17.5,15.4507543,17.50961,15.4024549Q17.51921,15.354155,17.53806,15.308658Q17.55691,15.263161,17.58426,15.222215Q17.61162,15.181269,17.64645,15.146447Q17.68127,15.111625,17.72221,15.084265Q17.76316,15.056906,17.80866,15.03806Q17.85415,15.019214999999999,17.90245,15.009607Q17.95075,15,18,15Q18.04925,15,18.09754,15.009607Q18.14584,15.019214999999999,18.19134,15.03806Q18.23684,15.056906,18.27778,15.084265Q18.31873,15.111625,18.35355,15.146447Q18.388370000000002,15.181269,18.41573,15.222215Q18.44309,15.263161,18.46194,15.308658Q18.48078,15.354155,18.49039,15.4024549Q18.5,15.4507543,18.5,15.5L18.5,21.29289L20.64619,19.14671L20.64645,19.14645Q20.71677,19.07612,20.80866,19.03806Q20.90054,19,21,19Q21.04925,19,21.09755,19.00961Q21.14584,19.01921,21.19134,19.03806Q21.23684,19.05691,21.27778,19.08426Q21.318730000000002,19.11162,21.35355,19.14645Q21.388370000000002,19.18127,21.41573,19.22221Q21.443089999999998,19.26316,21.46194,19.30866Q21.48078,19.35415,21.490389999999998,19.40245Q21.5,19.45075,21.5,19.5Q21.5,19.59946,21.46194,19.69134Q21.42388,19.78323,21.35355,19.85355L18.35355,22.85355Q18.28323,22.92388,18.19134,22.96194Q18.09946,23,18,23Q17.90054,23,17.80866,22.96194Q17.71677,22.92388,17.64645,22.85355L14.646447,19.85355Q14.57612,19.78323,14.53806,19.69134Q14.5,19.59946,14.5,19.5Q14.5,19.45075,14.509607,19.40245Q14.519214999999999,19.35415,14.53806,19.30866Q14.556906,19.26316,14.584265,19.22221Q14.611625,19.18127,14.646447,19.14645Q14.681269,19.11162,14.722215,19.08426Q14.763161,19.05691,14.808658,19.03806Q14.854155,19.01921,14.9024549,19.00961Q14.9507543,19,15,19Q15.0994562,19,15.191342,19.03806Q15.283227,19.07612,15.353553,19.14645L15.35371,19.1466L17.5,21.29289L17.5,15.5Z" fill-rule="evenodd" fill="#0066FF" fill-opacity="1" style="mix-blend-mode:passthrough"/></g></g></svg>