<svg xmlns="http://www.w3.org/2000/svg" xmlns:xlink="http://www.w3.org/1999/xlink" fill="none" version="1.1" width="24" height="24" viewBox="0 0 24 24"><defs><clipPath id="master_svg0_30_03900"><rect x="0" y="0" width="24" height="24" rx="0"/></clipPath></defs><g clip-path="url(#master_svg0_30_03900)"><g><path d="M5.625,1.5C4.589,1.5,3.75,2.34,3.75,3.375L3.75,20.625C3.75,21.66,4.59,22.5,5.625,22.5L18.375,22.5C19.41,22.5,20.25,21.66,20.25,20.625L20.25,12.75C20.25,10.67893,18.5711,9,16.5,9L14.625,9C13.58947,9,12.75,8.16053,12.75,7.125L12.75,5.25C12.75,3.1789300000000003,11.071069999999999,1.500000238419,9,1.5L5.625,1.5Z" fill="#E6E6E6" fill-opacity="1"/></g><g><path d="M12.97100830078125,1.81591796875C13.79752430078125,2.76888196875,14.25175830078125,3.98846796875,14.25000830078125,5.24991796875L14.25000830078125,7.12491796875C14.25000830078125,7.33191796875,14.41800830078125,7.49991796875,14.62500830078125,7.49991796875L16.50000830078125,7.49991796875C17.76145830078125,7.49816796875,18.98104830078125,7.95239796875,19.93400830078125,8.778917968750001C19.03826830078125,5.37221796875,16.37770830078125,2.71165396875,12.97100830078125,1.81591796875Z" fill="#B3B3B3" fill-opacity="1"/></g><g><g><path d="M16.888956533203125,15.417778C16.928956533203124,15.176889,17.137846533203124,15,17.382296533203125,15L18.534736533203123,15C18.779176533203124,15,18.988066533203124,15.176889,19.028066533203123,15.417778L19.122736533203124,15.987111C19.150736533203126,16.15333,19.261846533203126,16.292,19.409406533203125,16.37378C19.442296533203127,16.39156,19.474736533203124,16.41067,19.507176533203126,16.43022C19.651626533203125,16.51733,19.827176533203126,16.54444,19.984956533203125,16.48533L20.525846533203126,16.28267C20.754756533203125,16.19658,21.012346533203125,16.288710000000002,21.134736533203125,16.50044L21.710736533203125,17.49911C21.832856533203124,17.71086,21.783986533203127,17.97986,21.595176533203123,18.13511L21.149406533203127,18.502670000000002C21.019176533203126,18.60978,20.954736533203125,18.77511,20.958296533203125,18.94356C20.958916533203123,18.98133,20.958916533203123,19.01911,20.958296533203125,19.05689C20.954736533203125,19.224890000000002,21.019176533203126,19.39022,21.149406533203127,19.497329999999998L21.595626533203124,19.86489C21.784066533203124,20.02044,21.832956533203124,20.28933,21.711176533203126,20.50044L21.134296533203127,21.49911C21.012076533203125,21.71079,20.754736533203126,21.80309,20.525846533203126,21.71733L19.984956533203125,21.51467C19.827176533203126,21.45556,19.651626533203125,21.48267,19.506736533203124,21.56978C19.474516533203126,21.58938,19.441916533203127,21.60835,19.408956533203124,21.62667C19.261846533203126,21.708,19.150736533203126,21.84667,19.122736533203124,22.01289L19.028066533203123,22.58222C18.988066533203124,22.82355,18.779176533203124,23,18.534736533203123,23L17.381846533203124,23C17.137406533203126,23,16.928956533203124,22.82311,16.888516533203124,22.58222L16.793846533203126,22.01289C16.766296533203125,21.84667,16.655176533203125,21.708,16.507626533203126,21.62622C16.474666533203123,21.60804,16.442066533203125,21.58922,16.409846533203126,21.56978C16.265406533203127,21.48267,16.089846533203126,21.45555,15.931626533203126,21.51467L15.390736533203125,21.71733C15.161956533203124,21.80317,14.904644533203125,21.71107,14.782291533203125,21.49955L14.205847533203125,20.50089C14.083725333203125,20.28914,14.132600463203126,20.020139999999998,14.321403533203124,19.86489L14.767625533203125,19.497329999999998C14.897402533203126,19.39067,14.961847533203125,19.224890000000002,14.958736533203124,19.05689C14.958041533203126,19.01911,14.958041533203126,18.98133,14.958736533203124,18.943550000000002C14.961847533203125,18.77467,14.897402533203126,18.60978,14.767625533203125,18.502670000000002L14.321403533203124,18.13511C14.132837403203125,17.97991,14.083980633203126,17.711199999999998,14.205847533203125,17.49955L14.782291533203125,16.50089C14.904539533203124,16.28899,15.162166533203125,16.19666,15.391176533203126,16.28267L15.931626533203126,16.48533C16.089846533203126,16.54444,16.265406533203127,16.51733,16.409846533203126,16.43022C16.441846533203126,16.41067,16.474736533203124,16.392,16.507626533203126,16.37333C16.655176533203125,16.292,16.766296533203125,16.15333,16.793846533203126,15.98711L16.888956533203125,15.417778L16.888956533203125,15.417778Z" fill="#444444" fill-opacity="1"/><path d="M15.902626533203126,15.253005L15.902466533203125,15.253969L15.878506533203126,15.397411L15.742766533203126,15.34651Q15.227476533203125,15.152986,14.709316533203125,15.338691Q14.191157133203125,15.524397,13.916215533203125,16.00098L13.339246533203125,17.00055Q13.065046533203125,17.47675,13.163343533203125,18.01738Q13.261640533203124,18.55802,13.685614533203125,18.90697L13.798550533203125,19L13.686260533203125,19.092489999999998Q13.261454533203125,19.44181,13.163136533203126,19.98294Q13.064816533203125,20.52406,13.339771533203125,21.000799999999998L13.916680533203126,22.00027Q14.191973533203125,22.47618,14.709612533203124,22.661459999999998Q15.227256533203125,22.84673,15.741606533203125,22.65376L15.878176533203124,22.60259L15.902316533203125,22.747799999999998Q15.993246533203125,23.289360000000002,16.412196533203126,23.644370000000002Q16.831876533203125,24,17.381846533203124,24L18.534736533203123,24Q19.084486533203126,24,19.504036533203127,23.64498Q19.924546533203124,23.28914,20.014526533203124,22.74625L20.038416533203126,22.60259L20.174996533203124,22.65376Q20.689996533203125,22.84672,21.207676533203127,22.66105Q21.725346533203126,22.47539,22.000196533203123,21.99931L22.577396533203125,21.00011Q22.851996533203128,20.524079999999998,22.753606533203126,19.98295Q22.655446533203126,19.44305,22.231416533203124,19.09302L22.118306533203125,18.999859999999998L22.230326533203126,18.9075Q22.655126533203124,18.55818,22.753446533203125,18.01706Q22.851766533203126,17.475929999999998,22.576976533203123,16.99949L22.000506533203126,16Q21.725126533203124,15.523599,21.207006533203124,15.338286Q20.688886533203124,15.152972,20.174976533203125,15.346243L20.038416533203126,15.397412L20.014566533203123,15.25397Q19.924436533203124,14.711198,19.504316533203124,14.355426Q19.084606533203125,14,18.534736533203123,14L17.382296533203125,14Q16.832426533203126,14,16.412716533203124,14.355426Q15.992966533203125,14.710881,15.902626533203126,15.253005ZM17.382296533203125,15C17.137846533203124,15,16.928956533203124,15.176889,16.888956533203125,15.417778L16.793846533203126,15.98711C16.766296533203125,16.15333,16.655176533203125,16.292,16.507626533203126,16.37333C16.474736533203124,16.392,16.441846533203126,16.41067,16.409846533203126,16.43022C16.265406533203127,16.51733,16.089846533203126,16.54444,15.931626533203126,16.48533L15.391176533203126,16.28267C15.162166533203125,16.19666,14.904539533203124,16.28899,14.782291533203125,16.50089L14.205847533203125,17.49955C14.083980633203126,17.711199999999998,14.132837403203125,17.97991,14.321403533203124,18.13511L14.767625533203125,18.502670000000002C14.897402533203126,18.60978,14.961847533203125,18.77467,14.958736533203124,18.943550000000002C14.958041533203126,18.98133,14.958041533203126,19.01911,14.958736533203124,19.05689C14.961847533203125,19.224890000000002,14.897402533203126,19.39067,14.767625533203125,19.497329999999998L14.321403533203124,19.86489C14.132600463203126,20.020139999999998,14.083725333203125,20.28914,14.205847533203125,20.50089L14.782291533203125,21.49955C14.904644533203125,21.71107,15.161956533203124,21.80317,15.390736533203125,21.71733L15.931626533203126,21.51467C16.089846533203126,21.45555,16.265406533203127,21.48267,16.409846533203126,21.56978C16.442066533203125,21.58922,16.474666533203123,21.60804,16.507626533203126,21.62622C16.655176533203125,21.708,16.766296533203125,21.84667,16.793846533203126,22.01289L16.888516533203124,22.58222C16.928956533203124,22.82311,17.137406533203126,23,17.381846533203124,23L18.534736533203123,23C18.779176533203124,23,18.988066533203124,22.82355,19.028066533203123,22.58222L19.122736533203124,22.01289C19.150736533203126,21.84667,19.261846533203126,21.708,19.408956533203124,21.62667C19.441916533203127,21.60835,19.474516533203126,21.58938,19.506736533203124,21.56978C19.651626533203125,21.48267,19.827176533203126,21.45556,19.984956533203125,21.51467L20.525846533203126,21.71733C20.754736533203126,21.80309,21.012076533203125,21.71079,21.134296533203127,21.49911L21.711176533203126,20.50044C21.832956533203124,20.28933,21.784066533203124,20.02044,21.595626533203124,19.86489L21.149406533203127,19.497329999999998C21.019176533203126,19.39022,20.954736533203125,19.224890000000002,20.958296533203125,19.05689C20.958916533203123,19.01911,20.958916533203123,18.98133,20.958296533203125,18.94356C20.954736533203125,18.77511,21.019176533203126,18.60978,21.149406533203127,18.502670000000002L21.595176533203123,18.13511C21.783986533203127,17.97986,21.832856533203124,17.71086,21.710736533203125,17.49911L21.134736533203125,16.50044C21.012346533203125,16.288710000000002,20.754756533203125,16.19658,20.525846533203126,16.28267L19.984956533203125,16.48533C19.827176533203126,16.54444,19.651626533203125,16.51733,19.507176533203126,16.43022C19.474736533203124,16.41067,19.442296533203127,16.39156,19.409406533203125,16.37378C19.261846533203126,16.292,19.150736533203126,16.15333,19.122736533203124,15.987111L19.028066533203123,15.417778C18.988066533203124,15.176889,18.779176533203124,15,18.534736533203123,15L17.382296533203125,15Z" fill-rule="evenodd" fill="#FFFFFF" fill-opacity="1"/></g><g><path d="M19.291624223632812,19.000078046875Q19.291624223632812,19.065588046875,19.285204223632814,19.130768046875Q19.27878422363281,19.195958046875,19.266004223632812,19.260198046875Q19.253224223632813,19.324448046875,19.234204223632812,19.387128046875Q19.215194223632814,19.449808046875,19.190124223632814,19.510328046875Q19.16506422363281,19.570838046875,19.13418422363281,19.628608046875Q19.10330422363281,19.686378046875,19.066914223632814,19.740838046874998Q19.030524223632813,19.795308046875,18.988964223632813,19.845938046875Q18.947414223632812,19.896578046875,18.90109422363281,19.942888046874998Q18.854784223632812,19.989208046875,18.80414422363281,20.030758046875Q18.753514223632813,20.072318046875,18.69904422363281,20.108708046875Q18.644584223632812,20.145098046875,18.586814223632814,20.175978046875Q18.529044223632813,20.206858046875,18.468534223632812,20.231918046875002Q18.40801422363281,20.256988046875,18.34533422363281,20.275998046875Q18.28265422363281,20.295018046875,18.218404223632813,20.307798046875Q18.15416422363281,20.320578046875,18.088974223632814,20.326998046875Q18.023794223632812,20.333418046875,17.958284223632813,20.333418046875Q17.892784223632813,20.333418046875,17.82759422363281,20.326998046875Q17.762414223632813,20.320578046875,17.698164223632812,20.307798046875Q17.633924223632814,20.295018046875,17.571241223632814,20.275998046875Q17.508559223632812,20.256988046875,17.448043223632812,20.231918046875002Q17.38752622363281,20.206858046875,17.329758223632812,20.175978046875Q17.271990223632812,20.145098046875,17.217527223632814,20.108708046875Q17.163064223632812,20.072318046875,17.112430223632813,20.030758046875Q17.06179622363281,19.989208046875,17.01547822363281,19.942888046874998Q16.969161223632813,19.896578046875,16.927607223632812,19.845938046875Q16.886052223632813,19.795308046875,16.84966122363281,19.740838046874998Q16.813270223632813,19.686378046875,16.78239222363281,19.628608046875Q16.75151522363281,19.570838046875,16.72644822363281,19.510328046875Q16.701381423632814,19.449808046875,16.68236712363281,19.387128046875Q16.663352723632812,19.324448046875,16.65057382363281,19.260198046875Q16.637794923632814,19.195958046875,16.631374583632812,19.130768046875Q16.624954223632812,19.065588046875,16.624954223632812,19.000078046875Q16.624954223632812,18.934578046875,16.631374583632812,18.869388046875Q16.637794923632814,18.804208046875,16.65057382363281,18.739958046875Q16.663352723632812,18.675718046875,16.68236712363281,18.613035046875Q16.701381423632814,18.550353046875,16.72644822363281,18.489837046875Q16.75151522363281,18.429320046875,16.78239222363281,18.371552046875Q16.813270223632813,18.313784046875,16.84966122363281,18.259321046875Q16.886052223632813,18.204858046875,16.927607223632812,18.154224046875Q16.969161223632813,18.103590046875,17.01547822363281,18.057272046875Q17.06179622363281,18.010955046875,17.112430223632813,17.969401046875Q17.163064223632812,17.927846046875,17.217527223632814,17.891455046875Q17.271990223632812,17.855064046875,17.329758223632812,17.824186046875Q17.38752622363281,17.793309046875,17.448043223632812,17.768242046875Q17.508559223632812,17.743175246875,17.571241223632814,17.724160946875Q17.633924223632814,17.705146546875,17.698164223632812,17.692367646875Q17.762414223632813,17.679588746875,17.82759422363281,17.673168406875Q17.892784223632813,17.666748046875,17.958284223632813,17.666748046875Q18.023794223632812,17.666748046875,18.088974223632814,17.673168406875Q18.15416422363281,17.679588746875,18.218404223632813,17.692367646875Q18.28265422363281,17.705146546875,18.34533422363281,17.724160946875Q18.40801422363281,17.743175246875,18.468534223632812,17.768242046875Q18.529044223632813,17.793309046875,18.586814223632814,17.824186046875Q18.644584223632812,17.855064046875,18.69904422363281,17.891455046875Q18.753514223632813,17.927846046875,18.80414422363281,17.969401046875Q18.854784223632812,18.010955046875,18.90109422363281,18.057272046875Q18.947414223632812,18.103590046875,18.988964223632813,18.154224046875Q19.030524223632813,18.204858046875,19.066914223632814,18.259321046875Q19.10330422363281,18.313784046875,19.13418422363281,18.371552046875Q19.16506422363281,18.429320046875,19.190124223632814,18.489837046875Q19.215194223632814,18.550353046875,19.234204223632812,18.613035046875Q19.253224223632813,18.675718046875,19.266004223632812,18.739958046875Q19.27878422363281,18.804208046875,19.285204223632814,18.869388046875Q19.291624223632812,18.934578046875,19.291624223632812,19.000078046875Z" fill="#FFFFFF" fill-opacity="1"/></g></g></g></svg>