<svg xmlns="http://www.w3.org/2000/svg" xmlns:xlink="http://www.w3.org/1999/xlink" fill="none" version="1.1" width="24" height="24" viewBox="0 0 24 24"><defs><clipPath id="master_svg0_5518_09093"><rect x="0" y="0" width="24" height="24" rx="0"/></clipPath><clipPath id="master_svg1_5518_09094"><rect x="0" y="0" width="24" height="24" rx="0"/></clipPath><clipPath id="master_svg2_5518_09095"><rect x="2" y="2" width="20" height="20" rx="0"/></clipPath></defs><g clip-path="url(#master_svg0_5518_09093)"><g clip-path="url(#master_svg1_5518_09094)"></g><g clip-path="url(#master_svg2_5518_09095)"><g><g><g><path d="M3.875,14.79168701171875C3.460786,14.79168701171875,3.125,15.12747301171875,3.125,15.54168701171875L3.125,18.87501701171875Q3.124999821186,19.87603701171875,3.832825,20.58385701171875Q4.54065,21.29168701171875,5.54167,21.29168701171875L18.875,21.29168701171875Q19.876,21.29168701171875,20.5838,20.583867011718752Q21.2917,19.87603701171875,21.2917,18.87501701171875L21.2917,15.54168701171875C21.2917,15.12747301171875,20.9559,14.79168701171875,20.5417,14.79168701171875C20.1275,14.79168701171875,19.7917,15.12747301171875,19.7917,15.54168701171875L19.7917,18.87501701171875Q19.7917,19.25471701171875,19.5232,19.52319701171875Q19.2547,19.79168701171875,18.875,19.79168701171875L5.54167,19.79168701171875Q5.16197,19.79168701171875,4.89349,19.52319701171875Q4.625,19.25471701171875,4.625,18.87501701171875L4.625,15.54168701171875C4.625,15.12747301171875,4.28921,14.79168701171875,3.875,14.79168701171875Z" fill-rule="evenodd" fill="#38363C" fill-opacity="1" style="mix-blend-mode:passthrough"/></g><g transform="matrix(0,1,-1,0,15.375015258789062,-10.791641235351562)"><path d="M26.333328247070312,2.29168701171875L13.833328247070312,2.29168701171875C13.419114247070313,2.29168701171875,13.083328247070312,2.62747301171875,13.083328247070312,3.04168701171875C13.083328247070312,3.4558970117187497,13.419114247070313,3.79168701171875,13.833328247070312,3.79168701171875L26.333328247070312,3.79168701171875C26.747528247070314,3.79168701171875,27.083328247070312,3.4558970117187497,27.083328247070312,3.04168701171875C27.083328247070312,2.62747301171875,26.747528247070314,2.29168701171875,26.333328247070312,2.29168701171875Z" fill-rule="evenodd" fill="#38363C" fill-opacity="1" style="mix-blend-mode:passthrough"/></g><g><path d="M12.208341752929687,14.48101L8.572151752929688,10.844824C8.431351752929688,10.7040176,8.240583752929687,10.625,8.041671752929688,10.625C7.627457752929687,10.625,7.2916717529296875,10.960786,7.2916717529296875,11.375C7.2916717529296875,11.573912,7.370689352929688,11.76468,7.511341752929687,11.90533L11.678011752929688,16.072C11.970901752929688,16.36489,12.445771752929687,16.36489,12.738671752929687,16.072L16.905331752929687,11.90533C17.045991752929687,11.76468,17.125001752929688,11.573912,17.125001752929688,11.375C17.125001752929688,10.960786,16.789221752929688,10.625,16.375001752929688,10.625C16.176091752929686,10.625,15.985331752929687,10.7040176,15.844671752929688,10.84467L12.208341752929687,14.48101Z" fill-rule="evenodd" fill="#38363C" fill-opacity="1" style="mix-blend-mode:passthrough"/></g></g></g></g></g></svg>