<svg xmlns="http://www.w3.org/2000/svg" xmlns:xlink="http://www.w3.org/1999/xlink" fill="none" version="1.1" width="24" height="24" viewBox="0 0 24 24"><defs><clipPath id="master_svg0_72_02050"><rect x="0" y="0" width="24" height="24" rx="0"/></clipPath></defs><g clip-path="url(#master_svg0_72_02050)"><g><g><path d="M21.249997966308594,8Q21.249997966308594,7.9261315,21.264407966308593,7.853682Q21.278817966308594,7.781233,21.307087966308593,7.712987Q21.335357966308592,7.644742,21.376397966308595,7.583322Q21.417437966308594,7.521903,21.469667966308595,7.46967Q21.521907966308593,7.417437,21.583327966308595,7.376398Q21.644737966308593,7.335359,21.712987966308592,7.30709Q21.781237966308595,7.278822,21.853677966308595,7.264411Q21.926127966308595,7.25,21.999997966308594,7.25Q22.073867966308594,7.25,22.146317966308594,7.264411Q22.218767966308594,7.278822,22.287017966308593,7.30709Q22.355257966308592,7.335359,22.416677966308594,7.376398Q22.478097966308592,7.417437,22.530327966308594,7.46967Q22.582567966308595,7.521903,22.623597966308594,7.583322Q22.664637966308593,7.644742,22.692907966308596,7.712987Q22.721177966308595,7.781233,22.735587966308593,7.853682Q22.749997966308594,7.9261315,22.749997966308594,8L22.749997966308594,16Q22.749997966308594,16.07387,22.735587966308593,16.14632Q22.721177966308595,16.21877,22.692907966308596,16.287010000000002Q22.664637966308593,16.35526,22.623597966308594,16.41668Q22.582567966308595,16.478099999999998,22.530327966308594,16.53033Q22.478097966308592,16.58256,22.416677966308594,16.6236Q22.355257966308592,16.66464,22.287017966308593,16.692909999999998Q22.218767966308594,16.72118,22.146317966308594,16.735590000000002Q22.073867966308594,16.75,21.999997966308594,16.75Q21.941657966308593,16.75,21.884007966308594,16.74098Q21.826357966308592,16.731949999999998,21.770807966308595,16.71412Q21.715247966308596,16.696289999999998,21.663117966308594,16.67008Q21.610987966308592,16.64388,21.563537966308594,16.609920000000002Q21.516087966308593,16.575969999999998,21.474467966308595,16.53508Q21.432837966308593,16.4942,21.398027966308593,16.44736Q21.363227966308592,16.40053,21.336087966308593,16.34888Q21.308947966308594,16.29723,21.290117966308593,16.24201L20.022727966308594,12.524329999999999L20.022727966308594,16Q20.022727966308594,16.07387,20.008316966308595,16.14632Q19.993905966308592,16.21877,19.965637966308595,16.287010000000002Q19.937368966308593,16.35526,19.896329966308592,16.41668Q19.855290966308594,16.478099999999998,19.803057966308593,16.53033Q19.750824966308592,16.58256,19.689405966308595,16.6236Q19.627985966308593,16.66464,19.559740966308595,16.692909999999998Q19.491494966308593,16.72118,19.419045966308595,16.735590000000002Q19.346596466308593,16.75,19.272727966308594,16.75Q19.198859466308594,16.75,19.126409966308593,16.735590000000002Q19.053960966308594,16.72118,18.985714966308592,16.692909999999998Q18.917469966308595,16.66464,18.856049966308593,16.6236Q18.794630966308596,16.58256,18.742397966308594,16.53033Q18.690164966308593,16.478099999999998,18.649125966308596,16.41668Q18.608086966308594,16.35526,18.579817966308593,16.287010000000002Q18.551549966308595,16.21877,18.537138966308593,16.14632Q18.522727966308594,16.07387,18.522727966308594,16L18.522727966308594,8Q18.522727966308594,7.9416526,18.531751966308594,7.884007Q18.540775966308594,7.826362,18.558605966308594,7.770805Q18.576436966308595,7.715249,18.602644966308596,7.663119Q18.628852966308592,7.610989,18.662807966308595,7.5635390000000005Q18.696762966308594,7.51609,18.737648966308594,7.474462Q18.778533966308594,7.432835,18.825364966308594,7.398032Q18.872195966308595,7.363228,18.923845966308594,7.336086Q18.975495966308593,7.308945,19.030722966308595,7.290117Q19.100639966308595,7.266282,19.173863866308594,7.256545Q19.247087766308592,7.246807,19.320804366308593,7.251543Q19.394520966308594,7.256278,19.465896966308595,7.275303Q19.537273966308593,7.294329,19.603566966308595,7.326914Q19.669859966308593,7.359498,19.728522966308592,7.40439Q19.787184966308594,7.449282,19.835962966308593,7.504756Q19.884739966308594,7.56023,19.921756966308592,7.624153Q19.958774966308592,7.688077,19.982610966308595,7.757995L21.249997966308594,11.475670000000001L21.249997966308594,8Z" fill-rule="evenodd" fill="#231F2E" fill-opacity="1"/></g><g><path d="M12.886668995788574,8.0812818Q12.159090995788574,8.881618,12.159090995788574,10L12.159090995788574,14Q12.159090995788574,15.11838,12.886669195788574,15.91872Q13.642378995788574,16.75,14.727270995788574,16.75Q15.812160995788574,16.75,16.567880995788574,15.91872Q17.295450995788574,15.11838,17.295450995788574,14L17.295450995788574,10Q17.295450995788574,8.881617,16.567880995788574,8.0812819Q15.812160995788574,7.25,14.727270995788574,7.25Q13.642379995788573,7.25,12.886668995788574,8.0812818ZM13.659090995788574,14L13.659090995788574,10Q13.659090995788574,9.46153,13.996580995788575,9.09029Q14.305930995788575,8.75,14.727270995788574,8.75Q15.148610995788575,8.75,15.457970995788575,9.09029Q15.795450995788574,9.46153,15.795450995788574,10L15.795450995788574,14Q15.795450995788574,14.53847,15.457970995788575,14.90971Q15.148610995788575,15.25,14.727270995788574,15.25Q14.305930995788575,15.25,13.996580995788575,14.90971Q13.659090995788574,14.53847,13.659090995788574,14Z" fill-rule="evenodd" fill="#231F2E" fill-opacity="1"/></g><g><path d="M2.75,14.5L2.75,14Q2.75,13.92613,2.735589,13.85368Q2.721178,13.78123,2.69291,13.71299Q2.664641,13.644739999999999,2.623602,13.58332Q2.582563,13.521899999999999,2.53033,13.46967Q2.478097,13.41744,2.416678,13.3764Q2.355258,13.33536,2.287013,13.307089999999999Q2.218767,13.27882,2.146318,13.26441Q2.0738685,13.25,2,13.25Q1.9261314999999999,13.25,1.853682,13.26441Q1.781233,13.27882,1.712987,13.307089999999999Q1.644742,13.33536,1.583322,13.3764Q1.521903,13.41744,1.46967,13.46967Q1.417437,13.521899999999999,1.376398,13.58332Q1.335359,13.644739999999999,1.30709,13.71299Q1.278822,13.78123,1.264411,13.85368Q1.25,13.92613,1.25,14L1.25,14.5Q1.25,15.41128,1.844445,16.065170000000002Q2.467022,16.75,3.36364,16.75Q4.26025,16.75,4.88283,16.06516Q5.47727,15.41128,5.47727,14.5L5.47727,8Q5.47727,7.9261315,5.46286,7.853682Q5.448449999999999,7.781233,5.42018,7.712987Q5.39191,7.644742,5.3508700000000005,7.583322Q5.3098399999999994,7.521903,5.2576,7.46967Q5.20537,7.417437,5.14395,7.376398Q5.08253,7.335359,5.01429,7.30709Q4.94604,7.278822,4.87359,7.264411Q4.80114,7.25,4.72727,7.25L2,7.25Q1.9261314999999999,7.25,1.853682,7.264411Q1.781233,7.278822,1.712987,7.30709Q1.644742,7.335359,1.583322,7.376398Q1.521903,7.417437,1.46967,7.46967Q1.417437,7.521903,1.376398,7.583322Q1.335359,7.644742,1.30709,7.712987Q1.278822,7.781233,1.264411,7.853682Q1.25,7.9261315,1.25,8Q1.25,8.0738685,1.264411,8.146318Q1.278822,8.218767,1.30709,8.287013Q1.335359,8.355258,1.376398,8.416678Q1.417437,8.478097,1.46967,8.53033Q1.521903,8.582563,1.583322,8.623602Q1.644742,8.664641,1.712987,8.69291Q1.781233,8.721178,1.853682,8.735589000000001Q1.9261314999999999,8.75,2,8.75L3.97727,8.75L3.97727,14.5Q3.97727,14.83137,3.77292,15.05616Q3.5967000000000002,15.25,3.36364,15.25Q3.13058,15.25,2.954355,15.05616Q2.75,14.83136,2.75,14.5Z" fill-rule="evenodd" fill="#231F2E" fill-opacity="1"/></g><g><path d="M9.360595497894288,8.797398Q9.431815497894288,8.875741,9.431815497894288,9Q9.431815497894288,9.07387,9.446225497894288,9.14632Q9.460635497894287,9.21877,9.488905497894287,9.28701Q9.517175497894288,9.35526,9.558215497894288,9.41668Q9.599255497894287,9.4781,9.651485497894287,9.53033Q9.703725497894286,9.58256,9.765145497894288,9.6236Q9.826555497894287,9.66464,9.894805497894287,9.69291Q9.963055497894286,9.72118,10.035495497894287,9.73559Q10.107945497894287,9.75,10.181815497894288,9.75Q10.255685497894287,9.75,10.328135497894287,9.73559Q10.400585497894287,9.72118,10.468835497894286,9.69291Q10.537075497894287,9.66464,10.598495497894287,9.6236Q10.659915497894287,9.58256,10.712145497894287,9.53033Q10.764385497894287,9.4781,10.805415497894288,9.41668Q10.846455497894286,9.35526,10.874725497894287,9.28701Q10.902995497894286,9.21877,10.917405497894286,9.14632Q10.931815497894288,9.07387,10.931815497894288,9Q10.931815497894288,8.295831,10.470505497894287,7.788388Q9.981065497894287,7.25,9.272725497894287,7.25L8.363636497894287,7.25Q7.655301497894287,7.25,7.1658574978942875,7.788388Q6.704545497894287,8.295831,6.704545497894287,9L6.704545497894287,11Q6.704545497894287,11.70417,7.1658574978942875,12.21161Q7.655301497894287,12.75,8.363636497894287,12.75L9.272725497894287,12.75Q9.317505497894286,12.75,9.360595497894288,12.7974Q9.431815497894288,12.87574,9.431815497894288,13L9.431815497894288,15Q9.431815497894288,15.12426,9.360595497894288,15.2026Q9.317505497894286,15.25,9.272725497894287,15.25L8.363636497894287,15.25Q8.318855497894287,15.25,8.275767497894288,15.2026Q8.204545497894287,15.12426,8.204545497894287,15Q8.204545497894287,14.92613,8.190134497894288,14.85368Q8.175723497894287,14.78123,8.147455497894287,14.71299Q8.119186497894287,14.644739999999999,8.078147497894287,14.58332Q8.037108497894287,14.521899999999999,7.984875497894287,14.46967Q7.932642497894287,14.41744,7.871223497894287,14.3764Q7.809803497894287,14.33536,7.741558497894287,14.307089999999999Q7.673312497894287,14.27882,7.600863497894287,14.26441Q7.528413997894287,14.25,7.454545497894287,14.25Q7.380676997894287,14.25,7.308227497894287,14.26441Q7.235778497894287,14.27882,7.167532497894287,14.307089999999999Q7.099287497894287,14.33536,7.037867497894287,14.3764Q6.976448497894287,14.41744,6.924215497894287,14.46967Q6.871982497894287,14.521899999999999,6.830943497894287,14.58332Q6.7899044978942875,14.644739999999999,6.761635497894287,14.71299Q6.733367497894287,14.78123,6.718956497894287,14.85368Q6.704545497894287,14.92613,6.704545497894287,15Q6.704545497894287,15.704170000000001,7.1658574978942875,16.21161Q7.655301497894287,16.75,8.363636497894287,16.75L9.272725497894287,16.75Q9.981065497894287,16.75,10.470505497894287,16.21161Q10.931815497894288,15.704170000000001,10.931815497894288,15L10.931815497894288,13Q10.931815497894288,12.295829999999999,10.470505497894287,11.78839Q9.981065497894287,11.25,9.272725497894287,11.25L8.363636497894287,11.25Q8.318856497894288,11.25,8.275767497894288,11.2026Q8.204545497894287,11.12426,8.204545497894287,11L8.204545497894287,9Q8.204545497894287,8.875741,8.275767497894288,8.797398Q8.318855497894287,8.75,8.363636497894287,8.75L9.272725497894287,8.75Q9.317505497894286,8.75,9.360595497894288,8.797398Z" fill-rule="evenodd" fill="#231F2E" fill-opacity="1"/></g></g><g><g><path d="M23.008,18.005Q23.008,18.20175,22.98872,18.39756Q22.96943,18.59336,22.93105,18.78634Q22.89268,18.979309999999998,22.83557,19.16759Q22.77846,19.35587,22.70318,19.53765Q22.6279,19.71942,22.53517,19.89294Q22.44243,20.06646,22.33314,20.23006Q22.22384,20.39365,22.09904,20.545740000000002Q21.974249999999998,20.69784,21.83514,20.83696Q21.69604,20.97609,21.54397,21.10091Q21.3919,21.22572,21.22833,21.33503Q21.06476,21.44435,20.89127,21.53709Q20.71777,21.62984,20.53603,21.70514Q20.35428,21.78043,20.16603,21.83755Q19.97777,21.894660000000002,19.78483,21.93304Q19.59189,21.971429999999998,19.39611,21.99072Q19.20034,22.009999999999998,19.003619999999998,22.009999999999998Q18.80689,22.009999999999998,18.61112,21.99072Q18.41534,21.971429999999998,18.2224,21.93304Q18.02946,21.894660000000002,17.84121,21.83755Q17.65295,21.78043,17.47121,21.70514Q17.28946,21.62984,17.11596,21.53709Q16.94247,21.44435,16.7789,21.33503Q16.61533,21.22572,16.46326,21.10091Q16.3112,20.97609,16.17209,20.83696Q16.03299,20.69784,15.908189,20.545740000000002Q15.783389,20.39365,15.674096,20.23006Q15.564803,20.06646,15.472069,19.89294Q15.379334,19.71942,15.304052,19.53765Q15.228769,19.35587,15.171664,19.16759Q15.114558,18.979309999999998,15.0761794,18.78634Q15.0378007,18.59336,15.0185186,18.39756Q14.99923637,18.20175,14.99923637,18.005Q14.99923637,17.80825,15.0185186,17.61244Q15.0378007,17.41664,15.0761794,17.22366Q15.114558,17.03069,15.171664,16.84241Q15.228769,16.65413,15.304052,16.47235Q15.379334,16.29058,15.472069,16.11706Q15.564803,15.94354,15.674096,15.77994Q15.783389,15.61635,15.908189,15.46425Q16.03299,15.31216,16.17209,15.17304Q16.3112,15.03391,16.46326,14.909093Q16.61533,14.784274,16.7789,14.674964Q16.94247,14.565654,17.11596,14.472905Q17.28946,14.380157,17.47121,14.304862Q17.65295,14.229568,17.84121,14.172454Q18.02946,14.11534,18.2224,14.0769549Q18.41534,14.0385703,18.61112,14.0192852Q18.80689,14,19.003619999999998,14Q19.20034,14,19.39611,14.0192852Q19.59189,14.0385703,19.78483,14.0769549Q19.97777,14.11534,20.16603,14.172454Q20.35428,14.229568,20.53603,14.304862Q20.71777,14.380157,20.89127,14.472905Q21.06476,14.565654,21.22833,14.674964Q21.3919,14.784274,21.54397,14.909093Q21.69604,15.03391,21.83514,15.17304Q21.974249999999998,15.31216,22.09905,15.46425Q22.22384,15.61635,22.33314,15.77994Q22.44243,15.94354,22.53517,16.11706Q22.6279,16.29058,22.70318,16.47235Q22.77846,16.65413,22.83557,16.84241Q22.89268,17.03069,22.93105,17.22366Q22.96943,17.41664,22.98872,17.61244Q23.008,17.80825,23.008,18.005Z" fill="#2882FF" fill-opacity="1"/><path d="M22.54232,21.54386Q21.80947,22.27697,20.92475,22.6435Q20.04008,23.009999999999998,19.003619999999998,23.009999999999998Q17.91351,23.009999999999998,16.99131,22.60458Q16.15983,22.23902,15.464915,21.54386Q13.99953,20.07797,14.000001,18.00534L14,18.004649999999998Q13.99953,15.93203,15.464915,14.466137Q16.33516,13.595589,17.41957,13.241946Q18.16147,13,19.003619999999998,13Q19.98725,13,20.834130000000002,13.330074Q21.772100000000002,13.695653,22.54232,14.466136Q24.00795,15.932269999999999,24.00723,18.004649999999998Q24.00795,20.07773,22.54232,21.54386ZM19.003619999999998,22.009999999999998Q19.20034,22.009999999999998,19.39611,21.99072Q19.59189,21.971429999999998,19.78483,21.93304Q19.97777,21.894660000000002,20.16603,21.83755Q20.35428,21.78043,20.53603,21.70514Q20.71777,21.62984,20.89127,21.53709Q21.06476,21.44435,21.22833,21.33503Q21.3919,21.22572,21.54397,21.10091Q21.69604,20.97609,21.83514,20.83696Q21.974249999999998,20.69784,22.09905,20.545740000000002Q22.22384,20.39365,22.33314,20.23006Q22.44243,20.06646,22.53517,19.89294Q22.6279,19.71942,22.70318,19.53765Q22.77846,19.35587,22.83557,19.16759Q22.89268,18.979309999999998,22.93105,18.78634Q22.96943,18.59336,22.98872,18.39756Q23.008,18.20175,23.008,18.005Q23.008,17.80825,22.98872,17.61244Q22.96943,17.41664,22.93105,17.22366Q22.89268,17.03069,22.83557,16.84241Q22.77846,16.65413,22.70318,16.47235Q22.6279,16.29058,22.53517,16.11706Q22.44243,15.94354,22.33314,15.77994Q22.22384,15.61635,22.09904,15.46425Q21.974249999999998,15.31216,21.83514,15.17304Q21.69604,15.03391,21.54397,14.909093Q21.3919,14.784274,21.22833,14.674964Q21.06476,14.565654,20.89127,14.472905Q20.71777,14.380157,20.53603,14.304862Q20.35428,14.229568,20.16603,14.172454Q19.97777,14.11534,19.78483,14.0769549Q19.59189,14.0385703,19.39611,14.0192852Q19.20034,14,19.003619999999998,14Q18.80689,14,18.61112,14.0192852Q18.41534,14.0385703,18.2224,14.0769549Q18.02946,14.11534,17.84121,14.172454Q17.65295,14.229568,17.47121,14.304862Q17.28946,14.380157,17.11596,14.472905Q16.94247,14.565654,16.7789,14.674964Q16.61533,14.784274,16.46326,14.909093Q16.3112,15.03391,16.17209,15.17304Q16.03299,15.31216,15.908189,15.46425Q15.783389,15.61635,15.674096,15.77994Q15.564803,15.94354,15.472069,16.11706Q15.379334,16.29058,15.304052,16.47235Q15.228769,16.65413,15.171664,16.84241Q15.114558,17.03069,15.0761794,17.22366Q15.0378007,17.41664,15.0185186,17.61244Q14.99923637,17.80825,14.99923637,18.005Q14.99923637,18.20175,15.0185186,18.39756Q15.0378007,18.59336,15.0761794,18.78634Q15.114558,18.979309999999998,15.171664,19.16759Q15.228769,19.35587,15.304052,19.53765Q15.379334,19.71942,15.472069,19.89294Q15.564803,20.06646,15.674096,20.23006Q15.783389,20.39365,15.908189,20.545740000000002Q16.03299,20.69784,16.17209,20.83696Q16.3112,20.97609,16.46326,21.10091Q16.61533,21.22572,16.7789,21.33503Q16.94247,21.44435,17.11596,21.53709Q17.28946,21.62984,17.47121,21.70514Q17.65295,21.78043,17.84121,21.83755Q18.02946,21.894660000000002,18.2224,21.93304Q18.41534,21.971429999999998,18.61112,21.99072Q18.80689,22.009999999999998,19.003619999999998,22.009999999999998Z" fill-rule="evenodd" fill="#FFFFFF" fill-opacity="1"/></g><g><path d="M17.25360107421875,17.5050048828125L20.75360107421875,17.5050048828125Q20.80285107421875,17.5050048828125,20.85114107421875,17.5146118828125Q20.89944107421875,17.5242198828125,20.94494107421875,17.5430648828125Q20.99044107421875,17.5619108828125,21.03138107421875,17.5892698828125Q21.07233107421875,17.6166298828125,21.10715107421875,17.6514518828125Q21.14198107421875,17.6862738828125,21.16933107421875,17.7272198828125Q21.19669107421875,17.7681658828125,21.21554107421875,17.8136628828125Q21.23438107421875,17.8591598828125,21.24399107421875,17.9074597828125Q21.25360107421875,17.9557591828125,21.25360107421875,18.0050048828125Q21.25360107421875,18.0542505828125,21.24399107421875,18.1025499828125Q21.23438107421875,18.1508498828125,21.21554107421875,18.1963468828125Q21.19669107421875,18.2418438828125,21.16933107421875,18.2827898828125Q21.14198107421875,18.3237358828125,21.10715107421875,18.3585578828125Q21.07233107421875,18.3933798828125,21.03138107421875,18.4207398828125Q20.99044107421875,18.4480988828125,20.94494107421875,18.4669448828125Q20.89944107421875,18.4857898828125,20.85114107421875,18.4953978828125Q20.80285107421875,18.5050048828125,20.75360107421875,18.5050048828125L17.25360107421875,18.5050048828125Q17.20435537421875,18.5050048828125,17.15605597421875,18.4953978828125Q17.10775607421875,18.4857898828125,17.06225907421875,18.4669448828125Q17.01676207421875,18.4480988828125,16.97581607421875,18.4207398828125Q16.93487007421875,18.3933798828125,16.90004807421875,18.3585578828125Q16.86522607421875,18.3237358828125,16.83786607421875,18.2827898828125Q16.81050707421875,18.2418438828125,16.79166107421875,18.1963468828125Q16.77281607421875,18.1508498828125,16.76320807421875,18.1025499828125Q16.75360107421875,18.0542505828125,16.75360107421875,18.0050048828125Q16.75360107421875,17.9557591828125,16.76320807421875,17.9074597828125Q16.77281607421875,17.8591598828125,16.79166107421875,17.8136628828125Q16.81050707421875,17.7681658828125,16.83786607421875,17.7272198828125Q16.86522607421875,17.6862738828125,16.90004807421875,17.6514518828125Q16.93487007421875,17.6166298828125,16.97581607421875,17.5892698828125Q17.01676207421875,17.5619108828125,17.06225907421875,17.5430648828125Q17.10775607421875,17.5242198828125,17.15605597421875,17.5146118828125Q17.20435537421875,17.5050048828125,17.25360107421875,17.5050048828125Z" fill-rule="evenodd" fill="#FFFFFF" fill-opacity="1" style="mix-blend-mode:passthrough"/></g><g><path d="M18.49871826171875,16.2550048828125Q18.49871826171875,16.2057591828125,18.50832526171875,16.1574597828125Q18.51793326171875,16.1091598828125,18.53677826171875,16.0636628828125Q18.55562426171875,16.0181658828125,18.58298326171875,15.9772198828125Q18.61034326171875,15.9362738828125,18.64516526171875,15.9014518828125Q18.67998726171875,15.8666298828125,18.72093326171875,15.8392698828125Q18.76187926171875,15.8119108828125,18.80737626171875,15.7930648828125Q18.85287326171875,15.774219882812499,18.90117316171875,15.7646118828125Q18.94947256171875,15.7550048828125,18.99871826171875,15.7550048828125Q19.04796396171875,15.7550048828125,19.09626336171875,15.7646118828125Q19.14456326171875,15.774219882812499,19.19006026171875,15.7930648828125Q19.23555726171875,15.8119108828125,19.27650326171875,15.8392698828125Q19.31744926171875,15.8666298828125,19.35227126171875,15.9014518828125Q19.38709326171875,15.9362738828125,19.41445326171875,15.9772198828125Q19.44181226171875,16.0181658828125,19.46065826171875,16.0636628828125Q19.47950326171875,16.1091598828125,19.48911126171875,16.1574597828125Q19.49871826171875,16.2057591828125,19.49871826171875,16.2550048828125L19.49871826171875,19.7550048828125Q19.49871826171875,19.8042548828125,19.48911126171875,19.8525448828125Q19.47950326171875,19.9008448828125,19.46065826171875,19.9463448828125Q19.44181226171875,19.9918448828125,19.41445326171875,20.0327848828125Q19.38709326171875,20.0737348828125,19.35227126171875,20.1085548828125Q19.31744926171875,20.1433848828125,19.27650326171875,20.1707348828125Q19.23555726171875,20.1980948828125,19.19006026171875,20.2169448828125Q19.14456326171875,20.2357848828125,19.09626336171875,20.2453948828125Q19.04796396171875,20.2550048828125,18.99871826171875,20.2550048828125Q18.94947256171875,20.2550048828125,18.90117316171875,20.2453948828125Q18.85287326171875,20.2357848828125,18.80737626171875,20.2169448828125Q18.76187926171875,20.1980948828125,18.72093326171875,20.1707348828125Q18.67998726171875,20.1433848828125,18.64516526171875,20.1085548828125Q18.61034326171875,20.0737348828125,18.58298326171875,20.0327848828125Q18.55562426171875,19.9918448828125,18.53677826171875,19.9463448828125Q18.51793326171875,19.9008448828125,18.50832526171875,19.8525448828125Q18.49871826171875,19.8042548828125,18.49871826171875,19.7550048828125L18.49871826171875,16.2550048828125Z" fill-rule="evenodd" fill="#FFFFFF" fill-opacity="1" style="mix-blend-mode:passthrough"/></g></g></g></svg>