<svg xmlns="http://www.w3.org/2000/svg" xmlns:xlink="http://www.w3.org/1999/xlink" fill="none" version="1.1" width="24" height="24" viewBox="0 0 24 24"><defs><clipPath id="master_svg0_62_01388"><rect x="0" y="0" width="24" height="24" rx="0"/></clipPath></defs><g clip-path="url(#master_svg0_62_01388)"><g><path d="M13.25,3Q13.25,2.9261315,13.264410999999999,2.853682Q13.278822,2.781233,13.30709,2.712987Q13.335359,2.644742,13.376398,2.583322Q13.417437,2.521903,13.46967,2.46967Q13.521903,2.417437,13.583322,2.376398Q13.644742,2.335359,13.712987,2.30709Q13.781233,2.278822,13.853682,2.264411Q13.9261315,2.25,14,2.25Q14.0738685,2.25,14.146318,2.264411Q14.218767,2.278822,14.287013,2.30709Q14.355258,2.335359,14.416678,2.376398Q14.478097,2.417437,14.53033,2.46967Q14.582563,2.521903,14.623602,2.583322Q14.664641,2.644742,14.69291,2.712987Q14.721178,2.781233,14.735589000000001,2.853682Q14.75,2.9261315,14.75,3L14.75,7Q14.75,7.10355,14.823223,7.17678Q14.896447,7.25,15,7.25L19,7.25Q19.07387,7.25,19.14632,7.26441Q19.21877,7.27882,19.287010000000002,7.30709Q19.35526,7.33536,19.41668,7.3764Q19.4781,7.41744,19.53033,7.46967Q19.58256,7.5219,19.6236,7.58332Q19.66464,7.64474,19.69291,7.71299Q19.72118,7.78123,19.735590000000002,7.85368Q19.75,7.92613,19.75,8Q19.75,8.07387,19.735590000000002,8.14632Q19.72118,8.21877,19.69291,8.28701Q19.66464,8.355260000000001,19.6236,8.41668Q19.58256,8.478100000000001,19.53033,8.53033Q19.4781,8.58256,19.41668,8.6236Q19.35526,8.66464,19.287010000000002,8.692910000000001Q19.21877,8.72118,19.14632,8.73559Q19.07387,8.75,19,8.75L15,8.75Q14.275126,8.75,13.762563,8.23744Q13.25,7.72487,13.25,7L13.25,3Z" fill-rule="evenodd" fill="#231F2E" fill-opacity="1"/></g><g><path d="M18.25,8.31066L18.25,12.5Q18.25,12.57387,18.264400000000002,12.64632Q18.2788,12.71877,18.3071,12.78701Q18.3354,12.85526,18.3764,12.91668Q18.4174,12.9781,18.4697,13.0303Q18.521900000000002,13.0826,18.5833,13.1236Q18.6447,13.1646,18.713,13.1929Q18.7812,13.2212,18.8537,13.2356Q18.926099999999998,13.25,19,13.25Q19.073900000000002,13.25,19.1463,13.2356Q19.2188,13.2212,19.287,13.1929Q19.3553,13.1646,19.4167,13.1236Q19.478099999999998,13.0826,19.5303,13.0303Q19.5826,12.9781,19.6236,12.91668Q19.6646,12.85526,19.6929,12.78701Q19.7212,12.71877,19.735599999999998,12.64632Q19.75,12.57387,19.75,12.5L19.75,12.4988L19.75,8Q19.75,7.85082,19.6929,7.71299Q19.6358,7.57516,19.5303,7.46967L14.53033,2.46967Q14.42484,2.364181,14.28701,2.30709Q14.14919,2.25,14,2.25L7,2.25Q5.860913,2.25,5.0554564,3.0554564Q4.25,3.860913,4.25,5L4.25,19Q4.25,20.1391,5.0554563,20.9445Q5.860912,21.75,7,21.75L12,21.75Q12.07387,21.75,12.14632,21.7356Q12.21877,21.7212,12.28701,21.6929Q12.355260000000001,21.6646,12.41668,21.6236Q12.478100000000001,21.5826,12.53033,21.5303Q12.58256,21.4781,12.6236,21.4167Q12.66464,21.3553,12.692910000000001,21.287Q12.72118,21.2188,12.73559,21.1463Q12.75,21.0739,12.75,21Q12.75,20.9261,12.73559,20.8537Q12.72118,20.7812,12.692910000000001,20.713Q12.66464,20.6447,12.6236,20.5833Q12.58256,20.5219,12.53033,20.4697Q12.478100000000001,20.4174,12.41668,20.3764Q12.355260000000001,20.3354,12.28701,20.3071Q12.21877,20.2788,12.14632,20.2644Q12.07387,20.25,12,20.25L7,20.25Q6.4822299999999995,20.25,6.1161200000000004,19.8839Q5.75,19.5178,5.75,19L5.75,5Q5.75,4.4822299999999995,6.1161200000000004,4.1161200000000004Q6.4822299999999995,3.75,7,3.75L13.68934,3.75L18.25,8.31066Z" fill-rule="evenodd" fill="#231F2E" fill-opacity="1"/></g><g><path d="M9.414348,12.468521Q9.334557,12.368783,9.292279,12.248255Q9.25,12.127728,9.25,12Q9.25,11.9261315,9.264410999999999,11.853682Q9.278822,11.781233,9.30709,11.712987Q9.335359,11.644742,9.376398,11.583322Q9.417437,11.521903,9.46967,11.46967Q9.521903,11.417437,9.583322,11.376398Q9.644742,11.335359,9.712987,11.30709Q9.781233,11.278822,9.853682,11.264410999999999Q9.9261315,11.25,10,11.25Q10.0843583,11.25,10.166609,11.26874Q10.248859,11.287479,10.324892,11.324023Q10.400924,11.360566,10.466939,11.413086Q10.532953,11.465606,10.585652,11.531479L14.58526,16.53099L14.585650000000001,16.531480000000002Q14.66544,16.63122,14.70772,16.75175Q14.75,16.87227,14.75,17Q14.75,17.07387,14.73559,17.14632Q14.72118,17.21877,14.692910000000001,17.287010000000002Q14.66464,17.35526,14.6236,17.41668Q14.58256,17.4781,14.53033,17.53033Q14.478100000000001,17.58256,14.41668,17.6236Q14.355260000000001,17.66464,14.28701,17.69291Q14.21877,17.72118,14.14632,17.735590000000002Q14.07387,17.75,14,17.75Q13.91564,17.75,13.83339,17.73126Q13.75114,17.712519999999998,13.67511,17.67598Q13.59908,17.63943,13.533059999999999,17.58691Q13.46705,17.534390000000002,13.41435,17.468519999999998L13.41413,17.46825L9.414348,12.468521L9.414348,12.468521Z" fill-rule="evenodd" fill="#13943C" fill-opacity="1" style="mix-blend-mode:passthrough"/></g><g><path d="M14.585650000000001,12.468521Q14.66544,12.368783,14.70772,12.248255Q14.75,12.127728,14.75,12Q14.75,11.9261315,14.73559,11.853682Q14.72118,11.781233,14.692910000000001,11.712987Q14.66464,11.644742,14.6236,11.583322Q14.58256,11.521903,14.53033,11.46967Q14.478100000000001,11.417437,14.41668,11.376398Q14.355260000000001,11.335359,14.28701,11.30709Q14.21877,11.278822,14.14632,11.264410999999999Q14.07387,11.25,14,11.25Q13.91564,11.25,13.83339,11.26874Q13.75114,11.287479,13.67511,11.324023Q13.59908,11.360566,13.533059999999999,11.413086Q13.46705,11.465606,13.41435,11.531479L9.414565,16.53121L9.414348,16.531480000000002Q9.334557,16.63122,9.292279,16.75175Q9.25,16.87227,9.25,17Q9.25,17.07387,9.264410999999999,17.14632Q9.278822,17.21877,9.30709,17.287010000000002Q9.335359,17.35526,9.376398,17.41668Q9.417437,17.4781,9.46967,17.53033Q9.521903,17.58256,9.583322,17.6236Q9.644742,17.66464,9.712987,17.69291Q9.781233,17.72118,9.853682,17.735590000000002Q9.9261315,17.75,10,17.75Q10.0843583,17.75,10.166609,17.73126Q10.248859,17.712519999999998,10.324892,17.67598Q10.400924,17.63943,10.466939,17.58691Q10.532953,17.534390000000002,10.585652,17.468519999999998L10.585868,17.46825L14.58535,12.468897L14.585650000000001,12.468521L14.585650000000001,12.468521Z" fill-rule="evenodd" fill="#13943C" fill-opacity="1" style="mix-blend-mode:passthrough"/></g><g><path d="M17.5,22.25L18.85242,22.25Q18.92629,22.25,18.998730000000002,22.235590000000002Q19.07118,22.22118,19.13943,22.19291Q19.20767,22.16464,19.26909,22.1236Q19.33051,22.08256,19.38275,22.03033Q19.43498,21.9781,19.47602,21.91668Q19.51706,21.85526,19.54533,21.787010000000002Q19.57359,21.71877,19.58801,21.64632Q19.60242,21.57387,19.60242,21.5Q19.60242,21.42613,19.58801,21.35368Q19.57359,21.28123,19.54533,21.212989999999998Q19.51706,21.14474,19.47602,21.08332Q19.43498,21.0219,19.38275,20.96967Q19.33051,20.91744,19.26909,20.8764Q19.20767,20.83536,19.13943,20.80709Q19.07118,20.77882,18.998730000000002,20.764409999999998Q18.92629,20.75,18.85242,20.75L17.5,20.75Q17.25,20.75,17.25,20.5L17.25,17.5Q17.25,17.396447,17.323223,17.323223Q17.396447,17.25,17.5,17.25L20.5,17.25Q20.75,17.25,20.75,17.5L20.75,19Q20.75,19.07387,20.764409999999998,19.14632Q20.77882,19.21877,20.80709,19.28701Q20.83536,19.35526,20.8764,19.41668Q20.91744,19.4781,20.96967,19.53033Q21.0219,19.58256,21.08332,19.6236Q21.14474,19.66464,21.212989999999998,19.69291Q21.28123,19.72118,21.35368,19.735590000000002Q21.42613,19.75,21.5,19.75Q21.57387,19.75,21.64632,19.735590000000002Q21.71877,19.72118,21.787010000000002,19.69291Q21.85526,19.66464,21.91668,19.6236Q21.9781,19.58256,22.03033,19.53033Q22.08256,19.4781,22.1236,19.41668Q22.16464,19.35526,22.19291,19.28701Q22.22118,19.21877,22.235590000000002,19.14632Q22.25,19.07387,22.25,19L22.25,17.5Q22.25,16.775126,21.73744,16.262563Q21.22487,15.75,20.5,15.75L17.5,15.75Q16.775126,15.75,16.262563,16.262563Q15.75,16.775126,15.75,17.5L15.75,20.5Q15.75,21.22487,16.262563,21.73744Q16.775126,22.25,17.5,22.25Z" fill-rule="evenodd" fill="#13943C" fill-opacity="1" style="mix-blend-mode:passthrough"/></g><g><path d="M20.8350101953125,16.20533604296875Q20.8350101953125,16.02269504296875,20.7860001953125,15.84964404296875L20.7859001953125,15.84926404296875Q20.6664201953125,15.42702124296875,20.3163801953125,15.16231104296875Q19.9661901953125,14.89748204296875,19.527320195312498,14.89764404296875L18.4503921953125,14.89764404296875Q18.0062021953125,14.89764404296875,17.6542817953125,15.167844042968749Q17.3089971953125,15.43294864296875,17.1911661953125,15.85156704296875Q17.1427001953125,16.02568504296875,17.1427001953125,16.20533704296875Q17.1427001953125,16.52396404296875,17.3680031953125,16.74926404296875Q17.5933053953125,16.97456404296875,17.9119311953125,16.97456404296875L20.0657801953125,16.97456404296875Q20.3844001953125,16.97456404296875,20.6097001953125,16.74926404296875Q20.8350101953125,16.52396404296875,20.8350101953125,16.20533604296875ZM19.731240195312502,15.97456704296875L18.2467101953125,15.97456704296875Q18.2546901953125,15.96761104296875,18.2632721953125,15.96102104296875Q18.3458181953125,15.89764404296875,18.4503921953125,15.89764404296875L19.527320195312498,15.89764404296875Q19.6308101953125,15.89760604296875,19.7132101953125,15.95991904296875Q19.7225801953125,15.96700304296875,19.731240195312502,15.97456704296875Z" fill-rule="evenodd" fill="#13943C" fill-opacity="1" style="mix-blend-mode:passthrough"/></g><g><path d="M22.96959953125,19.984189999999998Q22.96959953125,19.8391,22.91548953125,19.70447Q22.86137953125,19.56985,22.760959531250002,19.465121L21.33785953125,17.980929Q21.231779531249998,17.870288,21.09078953125,17.810144Q20.94978953125,17.75,20.79650953125,17.75L18.98876953125,17.75Q18.91490103125,17.75,18.84245153125,17.764411Q18.77000253125,17.778822,18.70175653125,17.80709Q18.63351153125,17.835359,18.57209153125,17.876398000000002Q18.510672531250002,17.917437,18.45843953125,17.96967Q18.40620653125,18.021903000000002,18.365167531250002,18.083322Q18.32412853125,18.144742,18.29585953125,18.212987Q18.26759153125,18.281233,18.25318053125,18.353682Q18.23876953125,18.4261315,18.23876953125,18.5L18.23876953125,22.39764Q18.23876953125,22.47151,18.25318053125,22.54396Q18.26759153125,22.616410000000002,18.29585953125,22.68466Q18.32412853125,22.7529,18.365167531250002,22.814320000000002Q18.40620653125,22.87574,18.45843953125,22.927970000000002Q18.510672531250002,22.98021,18.57209153125,23.021250000000002Q18.63351153125,23.06228,18.70175653125,23.09055Q18.77000253125,23.11882,18.84245153125,23.13323Q18.91490103125,23.14764,18.98876953125,23.14764L22.21959953125,23.14764Q22.29346953125,23.14764,22.36591953125,23.13323Q22.43836953125,23.11882,22.50661953125,23.09055Q22.57485953125,23.06228,22.63627953125,23.021250000000002Q22.69769953125,22.98021,22.74992953125,22.927970000000002Q22.80216953125,22.87574,22.84320953125,22.814320000000002Q22.88424953125,22.7529,22.91250953125,22.68466Q22.94077953125,22.616410000000002,22.95518953125,22.54396Q22.96959953125,22.47151,22.96959953125,22.39764L22.96959953125,19.984189999999998ZM21.46959953125,20.28566L20.47657953125,19.25L19.73876953125,19.25L19.73876953125,21.64764L21.46959953125,21.64764L21.46959953125,20.28566Z" fill-rule="evenodd" fill="#13943C" fill-opacity="1" style="mix-blend-mode:passthrough"/></g></g></svg>