<svg xmlns="http://www.w3.org/2000/svg" xmlns:xlink="http://www.w3.org/1999/xlink" fill="none" version="1.1" width="24" height="24" viewBox="0 0 24 24"><defs><clipPath id="master_svg0_72_01982"><rect x="0" y="0" width="24" height="24" rx="0"/></clipPath></defs><g clip-path="url(#master_svg0_72_01982)"><g><path d="M10.0554564,8.0554564Q9.25,8.860913,9.25,10L9.25,14Q9.25,15.13909,10.0554564,15.94454Q10.860913,16.75,12,16.75Q13.13909,16.75,13.94454,15.94454Q14.75,15.13909,14.75,14L14.75,10Q14.75,8.860912,13.94454,8.0554564Q13.13909,7.25,12,7.25Q10.860913,7.25,10.0554564,8.0554564ZM10.75,14L10.75,10Q10.75,9.48223,11.11612,9.11612Q11.48223,8.75,12,8.75Q12.51777,8.75,12.88388,9.11612Q13.25,9.48223,13.25,10L13.25,14Q13.25,14.517769999999999,12.88388,14.883880000000001Q12.51777,15.25,12,15.25Q11.48223,15.25,11.11612,14.883880000000001Q10.75,14.517769999999999,10.75,14Z" fill-rule="evenodd" fill="#231F2E" fill-opacity="1" style="mix-blend-mode:passthrough"/></g><g><path d="M16.25,8Q16.25,7.9261315,16.264411,7.853682Q16.278822,7.781233,16.30709,7.712987Q16.335359,7.644742,16.376398000000002,7.583322Q16.417437,7.521903,16.46967,7.46967Q16.521903000000002,7.417437,16.583322,7.376398Q16.644742,7.335359,16.712987,7.30709Q16.781233,7.278822,16.853682,7.264411Q16.9261315,7.25,17,7.25Q17.0738685,7.25,17.146318,7.264411Q17.218767,7.278822,17.287013,7.30709Q17.355258,7.335359,17.416678,7.376398Q17.478096999999998,7.417437,17.53033,7.46967Q17.582563,7.521903,17.623601999999998,7.583322Q17.664641,7.644742,17.69291,7.712987Q17.721178,7.781233,17.735589,7.853682Q17.75,7.9261315,17.75,8L17.75,15.25L21,15.25Q21.07387,15.25,21.14632,15.26441Q21.21877,15.27882,21.287010000000002,15.307089999999999Q21.35526,15.33536,21.41668,15.3764Q21.4781,15.41744,21.53033,15.46967Q21.58256,15.521899999999999,21.6236,15.58332Q21.66464,15.644739999999999,21.69291,15.71299Q21.72118,15.78123,21.735590000000002,15.85368Q21.75,15.92613,21.75,16Q21.75,16.07387,21.735590000000002,16.14632Q21.72118,16.21877,21.69291,16.287010000000002Q21.66464,16.35526,21.6236,16.41668Q21.58256,16.478099999999998,21.53033,16.53033Q21.4781,16.58256,21.41668,16.6236Q21.35526,16.66464,21.287010000000002,16.692909999999998Q21.21877,16.72118,21.14632,16.735590000000002Q21.07387,16.75,21,16.75L17,16.75Q16.9261315,16.75,16.853682,16.735590000000002Q16.781233,16.72118,16.712987,16.692909999999998Q16.644742,16.66464,16.583322,16.6236Q16.521903000000002,16.58256,16.46967,16.53033Q16.417437,16.478099999999998,16.376398000000002,16.41668Q16.335359,16.35526,16.30709,16.287010000000002Q16.278822,16.21877,16.264411,16.14632Q16.25,16.07387,16.25,16L16.25,8Z" fill-rule="evenodd" fill="#231F2E" fill-opacity="1" style="mix-blend-mode:passthrough"/></g><g><path d="M13.530484,14.469824L14.53018,15.469516L14.53033,15.46967Q14.63582,15.575159,14.69291,15.712987Q14.75,15.850816,14.75,16Q14.75,16.07387,14.73559,16.14632Q14.72118,16.21877,14.69291,16.28701Q14.66464,16.35526,14.6236,16.41668Q14.58256,16.4781,14.53033,16.53033Q14.4781,16.58256,14.41668,16.6236Q14.35526,16.66464,14.28701,16.69291Q14.21877,16.72118,14.14632,16.73559Q14.07387,16.75,14,16.75Q13.850816,16.75,13.712987,16.69291Q13.575159,16.63582,13.46967,16.53033L13.469516,16.53018L12.46967,15.53033Q12.364181,15.424841,12.30709,15.287013Q12.25,15.149184,12.25,15Q12.25,14.9261315,12.264410999999999,14.853682Q12.278822,14.781233,12.30709,14.712987Q12.335359,14.644742,12.376398,14.583322Q12.417437,14.521903,12.46967,14.46967Q12.521903,14.417437,12.583322,14.376398Q12.644742,14.335359,12.712987,14.30709Q12.781233,14.278822,12.853682,14.264410999999999Q12.9261315,14.25,13,14.25Q13.149184,14.25,13.287013,14.30709Q13.424841,14.364181,13.53033,14.46967L13.530484,14.469824Z" fill-rule="evenodd" fill="#231F2E" fill-opacity="1" style="mix-blend-mode:passthrough"/></g><g><path d="M6.17678,8.823223Q6.25,8.896446,6.25,9Q6.25,9.07387,6.26441,9.14632Q6.27882,9.21877,6.3070900000000005,9.28701Q6.33536,9.35526,6.3764,9.41668Q6.41744,9.4781,6.46967,9.53033Q6.5219000000000005,9.58256,6.5833200000000005,9.6236Q6.6447400000000005,9.66464,6.71299,9.69291Q6.78123,9.72118,6.853680000000001,9.73559Q6.926130000000001,9.75,7,9.75Q7.07387,9.75,7.14632,9.73559Q7.21877,9.72118,7.28701,9.69291Q7.35526,9.66464,7.41668,9.6236Q7.4781,9.58256,7.53033,9.53033Q7.58256,9.4781,7.6236,9.41668Q7.66464,9.35526,7.69291,9.28701Q7.72118,9.21877,7.73559,9.14632Q7.75,9.07387,7.75,9Q7.75,8.275126,7.23744,7.762563Q6.72487,7.25,6,7.25L4,7.25Q3.275126,7.25,2.762563,7.762563Q2.25,8.275126,2.25,9L2.25,11Q2.25,11.72487,2.762563,12.23744Q3.275126,12.75,4,12.75L6,12.75Q6.25,12.75,6.25,13L6.25,15Q6.25,15.25,6,15.25L4,15.25Q3.896446,15.25,3.823223,15.17678Q3.75,15.10355,3.75,15Q3.75,14.92613,3.735589,14.85368Q3.721178,14.78123,3.69291,14.71299Q3.664641,14.644739999999999,3.623602,14.58332Q3.582563,14.521899999999999,3.53033,14.46967Q3.478097,14.41744,3.416678,14.3764Q3.355258,14.33536,3.287013,14.307089999999999Q3.218767,14.27882,3.146318,14.26441Q3.0738685,14.25,3,14.25Q2.9261315,14.25,2.853682,14.26441Q2.781233,14.27882,2.712987,14.307089999999999Q2.644742,14.33536,2.583322,14.3764Q2.521903,14.41744,2.46967,14.46967Q2.417437,14.521899999999999,2.376398,14.58332Q2.335359,14.644739999999999,2.30709,14.71299Q2.278822,14.78123,2.264411,14.85368Q2.25,14.92613,2.25,15Q2.25,15.72487,2.762563,16.23744Q3.275126,16.75,4,16.75L6,16.75Q6.72487,16.75,7.23744,16.23744Q7.75,15.72487,7.75,15L7.75,13Q7.75,12.27513,7.23744,11.76256Q6.72487,11.25,6,11.25L4,11.25Q3.75,11.25,3.75,11L3.75,9Q3.75,8.896446,3.823223,8.823223Q3.896446,8.75,4,8.75L6,8.75Q6.10355,8.75,6.17678,8.823223Z" fill-rule="evenodd" fill="#231F2E" fill-opacity="1" style="mix-blend-mode:passthrough"/></g><g><g><path d="M20.6272620703125,15.515717Q19.3615420703125,14.25,17.5715520703125,14.25Q15.7815560703125,14.25,14.5158390703125,15.515717Q13.2501220703125,16.781434,13.2501220703125,18.57143Q13.2501220703125,20.36142,14.5158390703125,21.62714Q15.7815560703125,22.89286,17.5715520703125,22.89286Q19.3615420703125,22.89286,20.6272620703125,21.62714Q21.8929820703125,20.36142,21.8929820703125,18.57143Q21.8929820703125,16.781434,20.6272620703125,15.515717ZM16.9907120703125,17.99059Q17.231302070312502,17.75,17.5715520703125,17.75Q17.9118020703125,17.75,18.1523920703125,17.99059Q18.3929820703125,18.231180000000002,18.3929820703125,18.57143Q18.3929820703125,18.91168,18.1523920703125,19.15227Q17.9118020703125,19.39286,17.5715520703125,19.39286Q17.231302070312502,19.39286,16.9907120703125,19.15227Q16.7501220703125,18.91168,16.7501220703125,18.57143Q16.7501220703125,18.231180000000002,16.9907120703125,17.99059Z" fill-rule="evenodd" fill="#FFFFFF" fill-opacity="1" style="mix-blend-mode:passthrough"/></g><g><path d="M18.2201933203125,21.6950633203125L18.2197133203125,21.6945933203125Q18.0978433203125,21.5727133203125,18.0020833203125,21.4294013203125Q17.9063233203125,21.2860893203125,17.8403633203125,21.1268493203125Q17.7744033203125,20.9676093203125,17.7407833203125,20.7985613203125Q17.7071533203125,20.6295133203125,17.7071533203125,20.4571533203125Q17.7071533203125,20.3711813203125,17.7155833203125,20.2856233203125Q17.7240033203125,20.2000653203125,17.7407833203125,20.1157453203125Q17.7575533203125,20.0314253203125,17.7825033203125,19.9491553203125Q17.8074633203125,19.866885320312498,17.8403633203125,19.7874573203125Q17.8732633203125,19.7080293203125,17.9137933203125,19.6322093203125Q17.9543133203125,19.5563883203125,18.0020833203125,19.4849053203125Q18.0498433203125,19.4134233203125,18.1043833203125,19.3469633203125Q18.1589233203125,19.2805033203125,18.2197133203125,19.2197133203125Q18.2805033203125,19.1589233203125,18.3469633203125,19.1043833203125Q18.4134233203125,19.0498433203125,18.4849053203125,19.0020833203125Q18.5563883203125,18.9543133203125,18.6322093203125,18.9137933203125Q18.7080293203125,18.8732633203125,18.7874573203125,18.8403633203125Q18.866885320312498,18.8074633203125,18.9491553203125,18.7825033203125Q19.0314253203125,18.7575533203125,19.1157453203125,18.7407833203125Q19.2000653203125,18.7240033203125,19.2856233203125,18.7155833203125Q19.3711813203125,18.7071533203125,19.4571533203125,18.7071533203125Q19.6295133203125,18.7071533203125,19.7985613203125,18.7407833203125Q19.9676093203125,18.7744033203125,20.1268493203125,18.8403633203125Q20.2860893203125,18.9063233203125,20.4294013203125,19.0020833203125Q20.5727133203125,19.0978433203125,20.6945933203125,19.2197133203125L20.6950633203125,19.2201933203125L22.2371633203125,20.7622893203125L22.2374433203125,20.7625733203125Q22.359323320312498,20.8844493203125,22.4550833203125,21.0277613203125Q22.5508433203125,21.1710743203125,22.6168033203125,21.3303133203125Q22.6827533203125,21.4895533203125,22.7163833203125,21.6586033203125Q22.7500133203125,21.8276533203125,22.7500133203125,22.0000133203125Q22.7500133203125,22.0859833203125,22.7415833203125,22.1715433203125Q22.7331533203125,22.2570933203125,22.7163833203125,22.3414133203125Q22.6996133203125,22.4257333203125,22.6746533203125,22.5080033203125Q22.6497033203125,22.590273320312498,22.6168033203125,22.6697033203125Q22.5839033203125,22.7491333203125,22.5433733203125,22.8249533203125Q22.5028433203125,22.9007733203125,22.4550833203125,22.9722533203125Q22.4073133203125,23.0437433203125,22.3527733203125,23.1101933203125Q22.298233320312498,23.1766533203125,22.2374433203125,23.2374433203125Q22.1766533203125,23.298233320312498,22.1101933203125,23.3527733203125Q22.0437433203125,23.4073133203125,21.9722533203125,23.4550833203125Q21.9007733203125,23.5028433203125,21.8249533203125,23.5433733203125Q21.7491333203125,23.5839033203125,21.6697033203125,23.6168033203125Q21.590273320312498,23.6497033203125,21.5080033203125,23.6746533203125Q21.4257333203125,23.6996133203125,21.3414133203125,23.7163833203125Q21.2570933203125,23.7331533203125,21.1715433203125,23.7415833203125Q21.0859833203125,23.7500133203125,21.0000133203125,23.7500133203125Q20.8276533203125,23.7500133203125,20.6586033203125,23.7163833203125Q20.4895533203125,23.6827533203125,20.3303133203125,23.6168033203125Q20.1710743203125,23.5508433203125,20.0277613203125,23.4550833203125Q19.8844493203125,23.359323320312498,19.7625733203125,23.2374433203125L19.7622893203125,23.2371633203125L18.2201933203125,21.6950633203125Z" fill-rule="evenodd" fill="#FFFFFF" fill-opacity="1" style="mix-blend-mode:passthrough"/></g></g><g><g><path d="M19.9201520703125,16.222824Q18.9473320703125,15.25,17.5715520703125,15.25Q16.1957720703125,15.25,15.2229460703125,16.222824Q14.2501220703125,17.19565,14.2501220703125,18.57143Q14.2501220703125,19.94721,15.2229460703125,20.92003Q16.1957720703125,21.89286,17.5715520703125,21.89286Q18.9473320703125,21.89286,19.9201520703125,20.92003Q20.8929820703125,19.94721,20.8929820703125,18.57143Q20.8929820703125,17.19565,19.9201520703125,16.222824ZM16.2836020703125,17.28348Q16.8170920703125,16.75,17.5715520703125,16.75Q18.3260120703125,16.75,18.8594920703125,17.28348Q19.3929820703125,17.81697,19.3929820703125,18.57143Q19.3929820703125,19.32589,18.8594920703125,19.85937Q18.3260120703125,20.39286,17.5715520703125,20.39286Q16.8170920703125,20.39286,16.2836020703125,19.85937Q15.7501220703125,19.32589,15.7501220703125,18.57143Q15.7501220703125,17.81697,16.2836020703125,17.28348Z" fill-rule="evenodd" fill="#2882FF" fill-opacity="1" style="mix-blend-mode:passthrough"/></g><g><path d="M19.9876373203125,19.9269773203125L21.5301833203125,21.4695233203125L21.5303433203125,21.469683320312498Q21.6358333203125,21.5751733203125,21.6929233203125,21.7129933203125Q21.7500133203125,21.8508233203125,21.7500133203125,22.0000133203125Q21.7500133203125,22.0738733203125,21.7356033203125,22.1463233203125Q21.721183320312498,22.2187733203125,21.6929233203125,22.2870233203125Q21.6646533203125,22.3552633203125,21.6236133203125,22.4166833203125Q21.5825733203125,22.4781033203125,21.5303433203125,22.5303433203125Q21.4781033203125,22.5825733203125,21.4166833203125,22.6236133203125Q21.3552633203125,22.6646533203125,21.2870233203125,22.6929233203125Q21.2187733203125,22.721183320312498,21.1463233203125,22.7356033203125Q21.0738733203125,22.7500133203125,21.0000133203125,22.7500133203125Q20.8508233203125,22.7500133203125,20.7129933203125,22.6929233203125Q20.5751733203125,22.6358333203125,20.469683320312498,22.5303433203125L20.4695233203125,22.5301833203125L18.9269773203125,20.9876373203125L18.9268233203125,20.9874833203125Q18.8213343203125,20.8819943203125,18.7642433203125,20.7441663203125Q18.7071533203125,20.6063373203125,18.7071533203125,20.4571533203125Q18.7071533203125,20.3832848203125,18.7215643203125,20.3108353203125Q18.7359753203125,20.2383863203125,18.7642433203125,20.1701403203125Q18.7925123203125,20.1018953203125,18.833551320312502,20.0404753203125Q18.8745903203125,19.979056320312502,18.9268233203125,19.9268233203125Q18.979056320312502,19.8745903203125,19.0404753203125,19.833551320312502Q19.1018953203125,19.7925123203125,19.1701403203125,19.7642433203125Q19.2383863203125,19.7359753203125,19.3108353203125,19.7215643203125Q19.3832848203125,19.7071533203125,19.4571533203125,19.7071533203125Q19.6063373203125,19.7071533203125,19.7441663203125,19.7642433203125Q19.8819943203125,19.8213343203125,19.9874833203125,19.9268233203125L19.9876373203125,19.9269773203125Z" fill-rule="evenodd" fill="#2882FF" fill-opacity="1" style="mix-blend-mode:passthrough"/></g></g></g></svg>