<svg xmlns="http://www.w3.org/2000/svg" xmlns:xlink="http://www.w3.org/1999/xlink" fill="none" version="1.1" width="24" height="24" viewBox="0 0 24 24"><defs><clipPath id="master_svg0_62_00836"><rect x="0" y="0" width="24" height="24" rx="0"/></clipPath></defs><g clip-path="url(#master_svg0_62_00836)"><g><path d="M12.99998950958252,4.25L20.49998950958252,4.25Q21.43196950958252,4.25,22.090979509582517,4.9090098Q22.74998950958252,5.568021,22.74998950958252,6.5L22.74998950958252,14.5Q22.74998950958252,14.57387,22.73557950958252,14.64632Q22.72116950958252,14.71877,22.692899509582517,14.78701Q22.664629509582518,14.85526,22.62358950958252,14.91668Q22.58254950958252,14.9781,22.53031950958252,15.0303Q22.478089509582517,15.0826,22.41666950958252,15.1236Q22.35524950958252,15.1646,22.28699950958252,15.1929Q22.21875950958252,15.2212,22.14630950958252,15.2356Q22.07385950958252,15.25,21.99998950958252,15.25Q21.92611950958252,15.25,21.85366950958252,15.2356Q21.78121950958252,15.2212,21.712979509582517,15.1929Q21.64472950958252,15.1646,21.58330950958252,15.1236Q21.521889509582522,15.0826,21.46965950958252,15.0303Q21.41742950958252,14.9781,21.37638950958252,14.91668Q21.33534950958252,14.85526,21.307079509582522,14.78701Q21.27880950958252,14.71877,21.264399509582518,14.64632Q21.24998950958252,14.57387,21.24998950958252,14.5L21.24998950958252,6.5Q21.24998950958252,6.18934,21.03031950958252,5.96967Q20.810649509582518,5.75,20.49998950958252,5.75L12.99998950958252,5.75Q12.92612100958252,5.75,12.853671509582519,5.735589Q12.78122250958252,5.721178,12.71297650958252,5.69291Q12.64473150958252,5.664641,12.58331150958252,5.623602Q12.52189250958252,5.582563,12.46965950958252,5.53033Q12.41742650958252,5.478097,12.37638750958252,5.416678Q12.33534850958252,5.355258,12.30707950958252,5.287013Q12.27881150958252,5.218767,12.264400509582519,5.146318Q12.24998950958252,5.0738685,12.24998950958252,5Q12.24998950958252,4.9261315,12.264400509582519,4.853682Q12.27881150958252,4.781233,12.30707950958252,4.712987Q12.33534850958252,4.644742,12.37638750958252,4.583322Q12.41742650958252,4.521903,12.46965950958252,4.46967Q12.52189250958252,4.417437,12.58331150958252,4.376398Q12.64473150958252,4.335359,12.71297650958252,4.30709Q12.78122250958252,4.278822,12.853671509582519,4.264411Q12.92612100958252,4.25,12.99998950958252,4.25Z" fill-rule="evenodd" fill="#231F2E" fill-opacity="1"/></g><g><path d="M17,12.748992919921875L15.5,12.748992919921875Q15.4261315,12.748992919921875,15.353682,12.734581919921876Q15.281233,12.720170919921875,15.212987,12.691902919921874Q15.144742,12.663633919921875,15.083322,12.622594919921875Q15.021903,12.581555919921875,14.96967,12.529322919921874Q14.917437,12.477089919921875,14.876398,12.415670919921874Q14.835359,12.354250919921874,14.80709,12.286005919921875Q14.778822,12.217759919921875,14.764410999999999,12.145310919921876Q14.75,12.072861419921875,14.75,11.998992919921875Q14.75,11.925124419921875,14.764410999999999,11.852674919921874Q14.778822,11.780225919921875,14.80709,11.711979919921875Q14.835359,11.643734919921876,14.876398,11.582314919921876Q14.917437,11.520895919921875,14.96967,11.468662919921876Q15.021903,11.416429919921875,15.083322,11.375390919921875Q15.144742,11.334351919921875,15.212987,11.306082919921876Q15.281233,11.277814919921875,15.353682,11.263403919921874Q15.4261315,11.248992919921875,15.5,11.248992919921875L17,11.248992919921875Q17.07387,11.248992919921875,17.14632,11.263403919921874Q17.21877,11.277814919921875,17.28701,11.306082919921876Q17.35526,11.334351919921875,17.41668,11.375390919921875Q17.4781,11.416429919921875,17.53033,11.468662919921876Q17.58256,11.520895919921875,17.6236,11.582314919921876Q17.66464,11.643734919921876,17.69291,11.711979919921875Q17.72118,11.780225919921875,17.735590000000002,11.852674919921874Q17.75,11.925124419921875,17.75,11.998992919921875Q17.75,12.072861419921875,17.735590000000002,12.145310919921876Q17.72118,12.217759919921875,17.69291,12.286005919921875Q17.66464,12.354250919921874,17.6236,12.415670919921874Q17.58256,12.477089919921875,17.53033,12.529322919921874Q17.4781,12.581555919921875,17.41668,12.622594919921875Q17.35526,12.663633919921875,17.28701,12.691902919921874Q17.21877,12.720170919921875,17.14632,12.734581919921876Q17.07387,12.748992919921875,17,12.748992919921875Z" fill-rule="evenodd" fill="#231F2E" fill-opacity="1"/></g><g><path d="M15.5,8.25L19.5,8.25Q19.57387,8.25,19.64632,8.264410999999999Q19.71877,8.278822,19.787010000000002,8.30709Q19.85526,8.335359,19.91668,8.376398Q19.9781,8.417437,20.03033,8.46967Q20.08256,8.521903,20.1236,8.583322Q20.16464,8.644742,20.19291,8.712987Q20.22118,8.781233,20.235590000000002,8.853682Q20.25,8.9261315,20.25,9Q20.25,9.0738685,20.235590000000002,9.146318Q20.22118,9.218767,20.19291,9.287013Q20.16464,9.355258,20.1236,9.416678Q20.08256,9.478097,20.03033,9.53033Q19.9781,9.582563,19.91668,9.623602Q19.85526,9.664641,19.787010000000002,9.69291Q19.71877,9.721178,19.64632,9.735589000000001Q19.57387,9.75,19.5,9.75L15.5,9.75Q15.4261315,9.75,15.353682,9.735589000000001Q15.281233,9.721178,15.212987,9.69291Q15.144742,9.664641,15.083322,9.623602Q15.021903,9.582563,14.96967,9.53033Q14.917437,9.478097,14.876398,9.416678Q14.835359,9.355258,14.80709,9.287013Q14.778822,9.218767,14.764410999999999,9.146318Q14.75,9.0738685,14.75,9Q14.75,8.9261315,14.764410999999999,8.853682Q14.778822,8.781233,14.80709,8.712987Q14.835359,8.644742,14.876398,8.583322Q14.917437,8.521903,14.96967,8.46967Q15.021903,8.417437,15.083322,8.376398Q15.144742,8.335359,15.212987,8.30709Q15.281233,8.278822,15.353682,8.264410999999999Q15.4261315,8.25,15.5,8.25Z" fill-rule="evenodd" fill="#231F2E" fill-opacity="1"/></g><g><path d="M1.25,5.251860000000001L1.25,18.7481Q1.25,19.5637,1.772559,20.1898Q2.295118,20.816,3.0975099999999998,20.9618L11.09751,22.4164Q12.1334,22.6047,12.9417,21.9301Q13.75,21.2555,13.75,20.2027L13.75,3.79732Q13.75,2.744481,12.9417,2.0698778Q12.1334,1.3952740000000001,11.09751,1.583612L3.0975099999999998,3.03816Q2.295117,3.18405,1.772559,3.81018Q1.25,4.43632,1.25,5.251860000000001ZM3.36584,19.486Q2.75,19.3741,2.75,18.7481L2.75,5.251860000000001Q2.75,4.62593,3.36584,4.51396L11.36584,3.0594200000000003Q11.71112,2.996638,11.98056,3.2215100000000003Q12.25,3.44637,12.25,3.79732L12.25,20.2027Q12.25,20.5536,11.98056,20.7785Q11.71112,21.0034,11.36584,20.9406L3.36584,19.486Z" fill-rule="evenodd" fill="#231F2E" fill-opacity="1"/></g><g><path d="M4.875962,9.416025Q4.75,9.227082,4.75,9Q4.75,8.9261315,4.764411,8.853682Q4.778822,8.781233,4.80709,8.712987Q4.835359,8.644742,4.876398,8.583322Q4.917437,8.521903,4.96967,8.46967Q5.021903,8.417437,5.083322,8.376398Q5.144742,8.335359,5.212987,8.30709Q5.281233,8.278822,5.353682,8.264410999999999Q5.4261315,8.25,5.5,8.25Q5.5926032,8.25,5.682425,8.272524Q5.772247,8.295048,5.853893,8.338744Q5.935539,8.38244,6.004105,8.444682Q6.072671,8.506924,6.124038,8.583975L10.12404,14.58397Q10.25,14.77292,10.25,15Q10.25,15.07387,10.23559,15.14632Q10.22118,15.21877,10.192910000000001,15.28701Q10.16464,15.355260000000001,10.1236,15.41668Q10.08256,15.478100000000001,10.03033,15.53033Q9.978100000000001,15.58256,9.91668,15.6236Q9.855260000000001,15.66464,9.78701,15.692910000000001Q9.71877,15.72118,9.64632,15.73559Q9.57387,15.75,9.5,15.75Q9.407399999999999,15.75,9.31757,15.72748Q9.22775,15.70495,9.14611,15.66126Q9.06446,15.617560000000001,8.99589,15.55532Q8.92733,15.493079999999999,8.87596,15.41603L4.875962,9.416025L4.875962,9.416025Z" fill-rule="evenodd" fill="#231F2E" fill-opacity="1"/></g><g><path d="M10.12404,9.416025Q10.25,9.227082,10.25,9Q10.25,8.9261315,10.23559,8.853682Q10.22118,8.781233,10.192910000000001,8.712987Q10.16464,8.644742,10.1236,8.583322Q10.08256,8.521903,10.03033,8.46967Q9.978100000000001,8.417437,9.91668,8.376398Q9.855260000000001,8.335359,9.78701,8.30709Q9.71877,8.278822,9.64632,8.264410999999999Q9.57387,8.25,9.5,8.25Q9.407399999999999,8.25,9.31757,8.272524Q9.22775,8.295048,9.14611,8.338744Q9.06446,8.38244,8.99589,8.444682Q8.92733,8.506924,8.87596,8.583975L4.875962,14.58397Q4.75,14.77292,4.75,15Q4.75,15.07387,4.764411,15.14632Q4.778822,15.21877,4.80709,15.28701Q4.835359,15.355260000000001,4.876398,15.41668Q4.917437,15.478100000000001,4.96967,15.53033Q5.021903,15.58256,5.083322,15.6236Q5.144742,15.66464,5.212987,15.692910000000001Q5.281233,15.72118,5.353682,15.73559Q5.4261315,15.75,5.5,15.75Q5.5926032,15.75,5.682425,15.72748Q5.772247,15.70495,5.853893,15.66126Q5.935539,15.617560000000001,6.004105,15.55532Q6.072671,15.493079999999999,6.124038,15.41603L10.12404,9.416025L10.12404,9.416025Z" fill-rule="evenodd" fill="#231F2E" fill-opacity="1"/></g><g><path d="M17.2786317578125,17.675566040893553Q17.3552417578125,17.576893040893555,17.3957317578125,17.458717040893553Q17.4362217578125,17.340541040893555,17.4362217578125,17.215620040893555Q17.4362217578125,17.141751540893555,17.4218117578125,17.069302040893554Q17.4074017578125,16.996853040893555,17.3791317578125,16.928607040893553Q17.3508617578125,16.860362040893556,17.3098217578125,16.798942040893554Q17.2687817578125,16.737523040893556,17.2165517578125,16.685290040893555Q17.164321757812502,16.633057040893554,17.1029017578125,16.592018040893556Q17.041481757812498,16.550979040893555,16.9732367578125,16.522710040893553Q16.9049907578125,16.494442040893556,16.8325417578125,16.480031040893554Q16.7600927578125,16.465620040893555,16.6862237578125,16.465620040893555Q16.6004827578125,16.465620040893555,16.5169547578125,16.484971040893555Q16.4334267578125,16.504322040893555,16.3564207578125,16.542025040893556Q16.2794147578125,16.579729040893554,16.2129047578125,16.633839040893555Q16.1463950578125,16.687949040893553,16.0938136578125,16.755674040893556Q15.8601647578125,17.056613040893556,15.6929047578125,17.398865040893554Q15.3636617578125,18.072570040893556,15.3214347578125,18.824360040893556Q15.2316417578125,20.423010040893555,16.3316307578125,21.586510040893554Q17.4316217578125,22.750020040893553,19.0327817578125,22.750020040893553Q20.6339417578125,22.750020040893553,21.7339317578125,21.586510040893554Q22.8339217578125,20.423010040893555,22.7441317578125,18.824360040893556Q22.7019017578125,18.072570040893556,22.3726617578125,17.398867040893556Q22.2054017578125,17.056621040893553,21.9717517578125,16.755676040893555Q21.9191717578125,16.687951040893555,21.8526617578125,16.633840040893556Q21.7861517578125,16.579730040893555,21.7091417578125,16.542026040893553Q21.632141757812498,16.504322040893555,21.548611757812502,16.484971040893555Q21.4650817578125,16.465620040893555,21.3793417578125,16.465620040893555Q21.305471757812498,16.465620040893555,21.2330217578125,16.480031040893554Q21.160571757812498,16.494442040893556,21.0923317578125,16.522711040893554Q21.0240817578125,16.550979040893555,20.962661757812498,16.592018040893556Q20.9012417578125,16.633057040893554,20.849011757812498,16.685290040893555Q20.7967817578125,16.737523040893556,20.7557417578125,16.798942040893554Q20.7147017578125,16.860362040893556,20.6864317578125,16.928608040893554Q20.6581617578125,16.996853040893555,20.6437517578125,17.069302040893554Q20.6293417578125,17.141751540893555,20.6293417578125,17.215620040893555Q20.6293417578125,17.340540040893554,20.6698317578125,17.458716040893556Q20.7103217578125,17.576893040893555,20.7869317578125,17.675565040893556Q20.925671757812502,17.854270040893553,21.0249817578125,18.057478040893553Q21.2212517578125,18.459080040893554,21.2464917578125,18.908480040893554Q21.3000517578125,19.862030040893554,20.6439417578125,20.556020040893554Q19.9878317578125,21.250020040893553,19.0327817578125,21.250020040893553Q18.0777317578125,21.250020040893553,17.4216217578125,20.556020040893554Q16.7655157578125,19.862030040893554,16.8190747578125,18.908480040893554Q16.8443167578125,18.459080040893554,17.040579757812502,18.057480040893555Q17.1398917578125,17.854268040893555,17.2786317578125,17.675566040893553Z" fill-rule="evenodd" fill="#13943C" fill-opacity="1"/></g><g><path d="M18.2828369140625,16Q18.2828369140625,15.9261315,18.2972479140625,15.853682Q18.3116589140625,15.781233,18.3399269140625,15.712987Q18.3681959140625,15.644742,18.409234914062502,15.583322Q18.4502739140625,15.521903,18.5025069140625,15.46967Q18.554739914062502,15.417437,18.6161589140625,15.376398Q18.6775789140625,15.335359,18.7458239140625,15.30709Q18.8140699140625,15.278822,18.8865189140625,15.264410999999999Q18.9589684140625,15.25,19.0328369140625,15.25Q19.1067054140625,15.25,19.1791549140625,15.264410999999999Q19.2516039140625,15.278822,19.3198499140625,15.30709Q19.3880949140625,15.335359,19.4495149140625,15.376398Q19.510933914062498,15.417437,19.5631669140625,15.46967Q19.6153999140625,15.521903,19.656438914062498,15.583322Q19.6974779140625,15.644742,19.7257469140625,15.712987Q19.7540149140625,15.781233,19.7684259140625,15.853682Q19.7828369140625,15.9261315,19.7828369140625,16L19.7828369140625,19.06291Q19.7828369140625,19.13678,19.7684259140625,19.209229999999998Q19.7540149140625,19.28168,19.7257469140625,19.34993Q19.6974779140625,19.41817,19.656438914062498,19.47959Q19.6153999140625,19.54101,19.5631669140625,19.59324Q19.510933914062498,19.64548,19.4495149140625,19.68651Q19.3880949140625,19.72755,19.3198499140625,19.75582Q19.2516039140625,19.78409,19.1791549140625,19.7985Q19.1067054140625,19.81291,19.0328369140625,19.81291Q18.9589684140625,19.81291,18.8865189140625,19.7985Q18.8140699140625,19.78409,18.7458239140625,19.75582Q18.6775789140625,19.72755,18.6161589140625,19.68651Q18.554739914062502,19.64548,18.5025069140625,19.59324Q18.4502739140625,19.54101,18.409234914062502,19.47959Q18.3681959140625,19.41817,18.3399269140625,19.34993Q18.3116589140625,19.28168,18.2972479140625,19.209229999999998Q18.2828369140625,19.13678,18.2828369140625,19.06291L18.2828369140625,16Z" fill-rule="evenodd" fill="#13943C" fill-opacity="1"/></g></g></svg>