<svg xmlns="http://www.w3.org/2000/svg" xmlns:xlink="http://www.w3.org/1999/xlink" fill="none" version="1.1" width="24" height="24" viewBox="0 0 24 24"><defs><clipPath id="master_svg0_63_00813"><rect x="0" y="0" width="24" height="24" rx="0"/></clipPath></defs><g clip-path="url(#master_svg0_63_00813)"><g><g><path d="M1.75,16.25L1.75,7.75L8.050049999999999,7.75L8.050049999999999,16.25L1.75,16.25ZM6.55005,9.25L3.25,9.25L3.25,14.75L6.55005,14.75L6.55005,9.25Z" fill-rule="evenodd" fill="#736F78" fill-opacity="1"/></g><g><path d="M6.550048828125,20.25L6.550048828125,14.75L16.550048828125,14.75L16.550048828125,20.25L6.550048828125,20.25ZM15.050048828125,16.25L8.050048828125,16.25L8.050048828125,18.75L15.050048828125,18.75L15.050048828125,16.25Z" fill-rule="evenodd" fill="#736F78" fill-opacity="1"/></g><g><path d="M15.050048828125,16.25L15.050048828125,7.75L21.249998828125,7.75L21.249998828125,16.25L15.050048828125,16.25ZM19.749998828125,9.25L16.550048828125,9.25L16.550048828125,14.75L19.749998828125,14.75L19.749998828125,9.25Z" fill-rule="evenodd" fill="#736F78" fill-opacity="1"/></g><g><path d="M6.550048828125,9.25L6.550048828125,3.75L16.550048828125,3.75L16.550048828125,9.25L6.550048828125,9.25ZM15.050048828125,5.25L8.050048828125,5.25L8.050048828125,7.75L15.050048828125,7.75L15.050048828125,5.25Z" fill-rule="evenodd" fill="#736F78" fill-opacity="1"/></g><g><path d="M7.300048828125,8.5L7.300048828125,15.5L15.800048828125,15.5L15.800048828125,8.5L7.300048828125,8.5Z" fill="#13943C" fill-opacity="0.20000000298023224"/><path d="M6.550048828125,16.25L6.550048828125,7.75L16.550048828125,7.75L16.550048828125,16.25L6.550048828125,16.25ZM15.050048828125,9.25L8.050048828125,9.25L8.050048828125,14.75L15.050048828125,14.75L15.050048828125,9.25Z" fill-rule="evenodd" fill="#13943C" fill-opacity="1"/></g></g><g><path d="M20.591,19.591Q21.25,18.932000000000002,21.25,18L21.25,6Q21.25,5.06802,20.591,4.4090098Q19.932,3.75,19,3.75L4,3.75Q3.0680199999999997,3.75,2.40901,4.4090098Q1.75,5.068019,1.75,6L1.75,18Q1.75,18.932000000000002,2.40901,19.591Q3.068019,20.25,4,20.25L19,20.25Q19.932,20.25,20.591,19.591ZM19.75,6L19.75,18Q19.75,18.75,19,18.75L4,18.75Q3.25,18.75,3.25,18L3.25,6Q3.25,5.68934,3.46967,5.46967Q3.68934,5.25,4,5.25L19,5.25Q19.3107,5.25,19.5303,5.46967Q19.75,5.68934,19.75,6Z" fill-rule="evenodd" fill="#231F2E" fill-opacity="1"/></g><g><g><path d="M18.43978796875,23.75L17.31612796875,23.75Q17.14143796875,23.75,16.97018796875,23.71547Q16.79893796875,23.68093,16.63789796875,23.61322Q16.47685296875,23.54552,16.33237296875,23.44731Q16.18789296875,23.34911,16.06567696875,23.22428L14.49634796875,21.62133Q13.87841796875,20.99971,13.87841796875,20.12322Q13.87841796875,19.24672,14.50002796875,18.62142L18.25352796875,14.86793Q18.87513796875,14.25,19.75163796875,14.25Q20.62812796875,14.25,21.25343796875,14.8716L23.13201796875,16.750201Q23.74994796875,17.37182,23.74994796875,18.24831Q23.74994796875,19.1248,23.13501796875,19.7434L22.29433796875,20.59322Q22.45928796875,20.71527,22.59152796875,20.87217Q22.72377796875,21.02907,22.81613796875,21.2123Q22.908497968749998,21.39554,22.95596796875,21.59517Q23.00343796875,21.794800000000002,23.00343796875,22Q23.00343796875,22.08597,22.995007968750002,22.17153Q22.986577968749998,22.257089999999998,22.96980796875,22.34141Q22.95303796875,22.42573,22.92807796875,22.508Q22.90312796875,22.59027,22.87022796875,22.66969Q22.83732796875,22.749119999999998,22.79679796875,22.824939999999998Q22.75626796875,22.90076,22.70850796875,22.97225Q22.66074796875,23.04373,22.60620796875,23.11019Q22.55166796875,23.176650000000002,22.49086796875,23.23744Q22.43007796875,23.29823,22.363627968750002,23.35277Q22.29716796875,23.40731,22.22567796875,23.45507Q22.15419796875,23.50284,22.07837796875,23.54336Q22.00255796875,23.58389,21.923127968750002,23.61679Q21.84370796875,23.64969,21.761437968750002,23.67465Q21.67916796875,23.6996,21.59484796875,23.71637Q21.51052796875,23.733150000000002,21.42496796875,23.74157Q21.33940796875,23.75,21.25343796875,23.75L21.252147968750002,23.75L18.43978796875,23.75ZM16.99552796875,19.17114Q16.987137968749998,19.16245,16.97857796875,19.15383L16.99552796875,19.17114Z" fill-rule="evenodd" fill="#FFFFFF" fill-opacity="1" style="mix-blend-mode:passthrough"/></g><g><path d="M19.75402328125,15.888284140625L22.11593328125,18.250194140625Q22.23781328125,18.372064140625,22.33356328125,18.515384140625Q22.42932328125,18.658694140625,22.49528328125,18.817934140625Q22.56124328125,18.977174140625,22.59487328125,19.146214140625Q22.62849328125,19.315264140625,22.62849328125,19.487624140625Q22.62849328125,19.573594140625,22.62007328125,19.659154140625Q22.61164328125,19.744714140625,22.59487328125,19.829034140625Q22.57810328125,19.913354140625,22.55314328125,19.995624140625Q22.52818328125,20.077894140625,22.49528328125,20.157324140625Q22.46238328125,20.236754140625,22.42186328125,20.312574140625Q22.38133328125,20.388394140625,22.33356328125,20.459874140625Q22.28580328125,20.531354140624998,22.23126328125,20.597814140625Q22.17672328125,20.664274140625,22.11593328125,20.725064140625Q22.05514328125,20.785854140625,21.98868328125,20.840394140625Q21.922223281249998,20.894934140625,21.85074328125,20.942694140625Q21.77926328125,20.990464140625,21.70344328125,21.030994140625Q21.62762328125,21.071514140625,21.54819328125,21.104414140625Q21.46876328125,21.137314140625,21.38649328125,21.162274140625Q21.30422328125,21.187234140625,21.21990328125,21.204004140625Q21.13558328125,21.220774140625,21.05002328125,21.229204140625Q20.96446328125,21.237624140625,20.87849328125,21.237624140625Q20.70613328125,21.237624140625,20.53708328125,21.204004140625Q20.36804328125,21.170374140625,20.20880328125,21.104414140625Q20.04956328125,21.038454140625,19.90624328125,20.942694140625Q19.76293328125,20.846944140625,19.64106328125,20.725064140625L19.64058328125,20.724584140625L17.27867328125,18.362684140625Q17.15680328125,18.240804140625,17.06104328125,18.097492140625Q16.96528328125,17.954180140625,16.89932328125,17.794940140625Q16.83336328125,17.635700140625,16.79974328125,17.466652140625Q16.76611328125,17.297604140625,16.76611328125,17.125244140625Q16.76611328125,17.039272140625,16.77454328125,16.953714140625Q16.78296328125,16.868156140625,16.79974328125,16.783836140625Q16.81651328125,16.699516140625,16.84146328125,16.617246140625Q16.86642328125,16.534976140624998,16.89932328125,16.455548140625Q16.93222328125,16.376120140625,16.97275328125,16.300300140625Q17.01327328125,16.224479140625,17.06104328125,16.152996140625Q17.10880328125,16.081514140625,17.16334328125,16.015054140625Q17.21788328125,15.948594140625,17.27867328125,15.887804140625Q17.33946328125,15.827014140625,17.40592328125,15.772474140625Q17.47238328125,15.717934140625,17.54386528125,15.670174140625Q17.61534828125,15.622404140625001,17.69116928125,15.581884140625Q17.76698928125,15.541354140625,17.84641728125,15.508454140625Q17.925845281249998,15.475554140625,18.00811528125,15.450594140625Q18.09038528125,15.425644140625,18.17470528125,15.408874140625Q18.25902528125,15.392094140625,18.34458328125,15.383674140625Q18.43014128125,15.375244140625,18.51611328125,15.375244140625Q18.68847328125,15.375244140625,18.85752128125,15.408874140625Q19.02656928125,15.442494140625,19.18580928125,15.508454140625Q19.34504928125,15.574414140625,19.48836128125,15.670174140625Q19.63167328125,15.765934140625,19.75355328125,15.887804140625L19.75402328125,15.888284140625Z" fill-rule="evenodd" fill="#FFFFFF" fill-opacity="1" style="mix-blend-mode:passthrough"/></g></g><g><g><path d="M18.44035796875,22.75L17.31612796875,22.75Q17.16488796875,22.75,17.02545796875,22.69138Q16.88602796875,22.63276,16.78021796875,22.52469L15.20555396875,20.916330000000002Q14.87841796875,20.58724,14.87841796875,20.12322Q14.87841796875,19.65919,15.20712996875,19.32853L18.95852796875,15.577136Q19.28760796875,15.25,19.75163796875,15.25Q20.21565796875,15.25,20.54632796875,15.578712L22.42280796875,17.4552Q22.74994796875,17.78429,22.74994796875,18.24831Q22.74994796875,18.71233,22.42409796875,19.04013L20.237987968749998,21.25L21.25343796875,21.25Q21.32730796875,21.25,21.399757968750002,21.264409999999998Q21.47219796875,21.27882,21.54044796875,21.30709Q21.60869796875,21.33536,21.67011796875,21.3764Q21.73153796875,21.41744,21.78376796875,21.46967Q21.83599796875,21.5219,21.87703796875,21.58332Q21.918077968749998,21.64474,21.94634796875,21.712989999999998Q21.97461796875,21.78123,21.98902796875,21.85368Q22.00343796875,21.92613,22.00343796875,22Q22.00343796875,22.07387,21.98902796875,22.14632Q21.97461796875,22.21877,21.94634796875,22.287010000000002Q21.918077968749998,22.35526,21.87703796875,22.41668Q21.83599796875,22.4781,21.78376796875,22.53033Q21.73153796875,22.58256,21.67011796875,22.6236Q21.60869796875,22.66464,21.54044796875,22.69291Q21.47219796875,22.72118,21.399757968750002,22.735590000000002Q21.32730796875,22.75,21.25343796875,22.75L18.44178796875,22.75L18.44035796875,22.75ZM18.12803796875,21.25L21.09603796875,18.24974L19.75163796875,16.905337L16.53096196875,20.12601L17.63144796875,21.25L18.12803796875,21.25ZM16.27711896875,19.86675Q16.27329796875,19.86279,16.26936596875,19.85883L16.27711896875,19.86675Z" fill-rule="evenodd" fill="#13943C" fill-opacity="1" style="mix-blend-mode:passthrough"/></g><g style="opacity:0.5;"><path d="M17.04659728125,18.595068140625L19.40882328125,20.957294140625Q19.51431328125,21.062784140625,19.57140328125,21.200614140625Q19.62849328125,21.338444140625,19.62849328125,21.487624140625Q19.62849328125,21.561494140625,19.61408328125,21.633944140625Q19.59967328125,21.706394140625,19.57140328125,21.774644140625Q19.54313328125,21.842884140625,19.50209328125,21.904304140625Q19.46106328125,21.965724140625,19.40882328125,22.017954140625Q19.35659328125,22.070194140625,19.29517328125,22.111224140625Q19.23375328125,22.152264140625,19.16551328125,22.180534140625Q19.09726328125,22.208804140625,19.02481328125,22.223214140625Q18.95236328125,22.237624140625,18.87849328125,22.237624140625Q18.72931328125,22.237624140625,18.59148328125,22.180534140625Q18.45365328125,22.123444140625,18.34816328125,22.017954140625L18.34787328125,22.017664140625L15.98578328125,19.655574140625Q15.88029428125,19.550085140625,15.82320328125,19.412257140625Q15.76611328125,19.274428140625,15.76611328125,19.125244140625Q15.76611328125,19.051375640625,15.780524281249999,18.978926140625Q15.79493528125,18.906477140625,15.82320328125,18.838231140625Q15.85147228125,18.769986140625,15.89251128125,18.708566140625Q15.93355028125,18.647147140625002,15.98578328125,18.594914140625Q16.038016281250002,18.542681140625,16.09943528125,18.501642140625002Q16.16085528125,18.460603140625,16.22910028125,18.432334140625Q16.29734628125,18.404066140625,16.36979528125,18.389655140625Q16.44224478125,18.375244140625,16.51611328125,18.375244140625Q16.66529728125,18.375244140625,16.80312628125,18.432334140625Q16.94095428125,18.489425140625,17.04644328125,18.594914140625L17.04659728125,18.595068140625Z" fill-rule="evenodd" fill="#13943C" fill-opacity="1" style="mix-blend-mode:passthrough"/></g></g></g></svg>