<svg xmlns="http://www.w3.org/2000/svg" xmlns:xlink="http://www.w3.org/1999/xlink" fill="none" version="1.1" width="24" height="24" viewBox="0 0 24 24"><defs><clipPath id="master_svg0_63_01959"><rect x="0" y="0" width="24" height="24" rx="0"/></clipPath></defs><g clip-path="url(#master_svg0_63_01959)"><g><path d="M12.99998950958252,4.25L20.49998950958252,4.25Q21.43196950958252,4.25,22.090979509582517,4.9090098Q22.74998950958252,5.568021,22.74998950958252,6.5L22.74998950958252,14.5Q22.74998950958252,14.57387,22.73557950958252,14.64632Q22.72116950958252,14.71877,22.692899509582517,14.78701Q22.664629509582518,14.85526,22.62358950958252,14.91668Q22.58254950958252,14.9781,22.53031950958252,15.0303Q22.478089509582517,15.0826,22.41666950958252,15.1236Q22.35524950958252,15.1646,22.28699950958252,15.1929Q22.21875950958252,15.2212,22.14630950958252,15.2356Q22.07385950958252,15.25,21.99998950958252,15.25Q21.92611950958252,15.25,21.85366950958252,15.2356Q21.78121950958252,15.2212,21.712979509582517,15.1929Q21.64472950958252,15.1646,21.58330950958252,15.1236Q21.521889509582522,15.0826,21.46965950958252,15.0303Q21.41742950958252,14.9781,21.37638950958252,14.91668Q21.33534950958252,14.85526,21.307079509582522,14.78701Q21.27880950958252,14.71877,21.264399509582518,14.64632Q21.24998950958252,14.57387,21.24998950958252,14.5L21.24998950958252,6.5Q21.24998950958252,6.18934,21.03031950958252,5.96967Q20.810649509582518,5.75,20.49998950958252,5.75L12.99998950958252,5.75Q12.92612100958252,5.75,12.853671509582519,5.735589Q12.78122250958252,5.721178,12.71297650958252,5.69291Q12.64473150958252,5.664641,12.58331150958252,5.623602Q12.52189250958252,5.582563,12.46965950958252,5.53033Q12.41742650958252,5.478097,12.37638750958252,5.416678Q12.33534850958252,5.355258,12.30707950958252,5.287013Q12.27881150958252,5.218767,12.264400509582519,5.146318Q12.24998950958252,5.0738685,12.24998950958252,5Q12.24998950958252,4.9261315,12.264400509582519,4.853682Q12.27881150958252,4.781233,12.30707950958252,4.712987Q12.33534850958252,4.644742,12.37638750958252,4.583322Q12.41742650958252,4.521903,12.46965950958252,4.46967Q12.52189250958252,4.417437,12.58331150958252,4.376398Q12.64473150958252,4.335359,12.71297650958252,4.30709Q12.78122250958252,4.278822,12.853671509582519,4.264411Q12.92612100958252,4.25,12.99998950958252,4.25Z" fill-rule="evenodd" fill="#231F2E" fill-opacity="1"/></g><g><path d="M17,12.748992919921875L15.5,12.748992919921875Q15.4261315,12.748992919921875,15.353682,12.734581919921876Q15.281233,12.720170919921875,15.212987,12.691902919921874Q15.144742,12.663633919921875,15.083322,12.622594919921875Q15.021903,12.581555919921875,14.96967,12.529322919921874Q14.917437,12.477089919921875,14.876398,12.415670919921874Q14.835359,12.354250919921874,14.80709,12.286005919921875Q14.778822,12.217759919921875,14.764410999999999,12.145310919921876Q14.75,12.072861419921875,14.75,11.998992919921875Q14.75,11.925124419921875,14.764410999999999,11.852674919921874Q14.778822,11.780225919921875,14.80709,11.711979919921875Q14.835359,11.643734919921876,14.876398,11.582314919921876Q14.917437,11.520895919921875,14.96967,11.468662919921876Q15.021903,11.416429919921875,15.083322,11.375390919921875Q15.144742,11.334351919921875,15.212987,11.306082919921876Q15.281233,11.277814919921875,15.353682,11.263403919921874Q15.4261315,11.248992919921875,15.5,11.248992919921875L17,11.248992919921875Q17.07387,11.248992919921875,17.14632,11.263403919921874Q17.21877,11.277814919921875,17.28701,11.306082919921876Q17.35526,11.334351919921875,17.41668,11.375390919921875Q17.4781,11.416429919921875,17.53033,11.468662919921876Q17.58256,11.520895919921875,17.6236,11.582314919921876Q17.66464,11.643734919921876,17.69291,11.711979919921875Q17.72118,11.780225919921875,17.735590000000002,11.852674919921874Q17.75,11.925124419921875,17.75,11.998992919921875Q17.75,12.072861419921875,17.735590000000002,12.145310919921876Q17.72118,12.217759919921875,17.69291,12.286005919921875Q17.66464,12.354250919921874,17.6236,12.415670919921874Q17.58256,12.477089919921875,17.53033,12.529322919921874Q17.4781,12.581555919921875,17.41668,12.622594919921875Q17.35526,12.663633919921875,17.28701,12.691902919921874Q17.21877,12.720170919921875,17.14632,12.734581919921876Q17.07387,12.748992919921875,17,12.748992919921875Z" fill-rule="evenodd" fill="#231F2E" fill-opacity="1"/></g><g><path d="M15.5,8.25L19.5,8.25Q19.57387,8.25,19.64632,8.264410999999999Q19.71877,8.278822,19.787010000000002,8.30709Q19.85526,8.335359,19.91668,8.376398Q19.9781,8.417437,20.03033,8.46967Q20.08256,8.521903,20.1236,8.583322Q20.16464,8.644742,20.19291,8.712987Q20.22118,8.781233,20.235590000000002,8.853682Q20.25,8.9261315,20.25,9Q20.25,9.0738685,20.235590000000002,9.146318Q20.22118,9.218767,20.19291,9.287013Q20.16464,9.355258,20.1236,9.416678Q20.08256,9.478097,20.03033,9.53033Q19.9781,9.582563,19.91668,9.623602Q19.85526,9.664641,19.787010000000002,9.69291Q19.71877,9.721178,19.64632,9.735589000000001Q19.57387,9.75,19.5,9.75L15.5,9.75Q15.4261315,9.75,15.353682,9.735589000000001Q15.281233,9.721178,15.212987,9.69291Q15.144742,9.664641,15.083322,9.623602Q15.021903,9.582563,14.96967,9.53033Q14.917437,9.478097,14.876398,9.416678Q14.835359,9.355258,14.80709,9.287013Q14.778822,9.218767,14.764410999999999,9.146318Q14.75,9.0738685,14.75,9Q14.75,8.9261315,14.764410999999999,8.853682Q14.778822,8.781233,14.80709,8.712987Q14.835359,8.644742,14.876398,8.583322Q14.917437,8.521903,14.96967,8.46967Q15.021903,8.417437,15.083322,8.376398Q15.144742,8.335359,15.212987,8.30709Q15.281233,8.278822,15.353682,8.264410999999999Q15.4261315,8.25,15.5,8.25Z" fill-rule="evenodd" fill="#231F2E" fill-opacity="1"/></g><g><path d="M1.25,5.251860000000001L1.25,18.7481Q1.25,19.5637,1.772559,20.1898Q2.295118,20.816,3.0975099999999998,20.9618L11.09751,22.4164Q12.1334,22.6047,12.9417,21.9301Q13.75,21.2555,13.75,20.2027L13.75,3.79732Q13.75,2.744481,12.9417,2.0698778Q12.1334,1.3952740000000001,11.09751,1.583612L3.0975099999999998,3.03816Q2.295117,3.18405,1.772559,3.81018Q1.25,4.43632,1.25,5.251860000000001ZM3.36584,19.486Q2.75,19.3741,2.75,18.7481L2.75,5.251860000000001Q2.75,4.62593,3.36584,4.51396L11.36584,3.0594200000000003Q11.71112,2.996638,11.98056,3.2215100000000003Q12.25,3.44637,12.25,3.79732L12.25,20.2027Q12.25,20.5536,11.98056,20.7785Q11.71112,21.0034,11.36584,20.9406L3.36584,19.486Z" fill-rule="evenodd" fill="#231F2E" fill-opacity="1"/></g><g><path d="M3.775312,9.69710825Q3.75,9.60216525,3.75,9.50390625Q3.75,9.43003775,3.764411,9.35758825Q3.778822,9.28513925,3.80709,9.21689325Q3.835359,9.14864825,3.876398,9.08722825Q3.917437,9.02580925,3.96967,8.97357625Q4.021903,8.92134325,4.083322,8.88030425Q4.144742,8.83926525,4.212987,8.81099625Q4.281233,8.78272825,4.353682,8.768317249999999Q4.4261315,8.75390625,4.5,8.75390625Q4.5615559,8.75390625,4.622288,8.76394325Q4.68302,8.77397925,4.741303,8.79378425Q4.799586,8.81358925,4.85386,8.84263225Q4.908134,8.87167525,4.956946,8.90917925Q5.005758,8.94668225,5.047801,8.99164325Q5.089845,9.03660325,5.123995,9.08781725Q5.158146,9.13903225,5.183488,9.19512925Q5.208831,9.25122625,5.224688,9.31070425L5.98938,12.17900625L6.80771,10.21539525Q6.86478,10.07846925,6.96967,9.97357625Q7.07456,9.86868325,7.2114899999999995,9.81161925Q7.34919,9.754230249999999,7.49838,9.75390825Q7.64756,9.75358525,7.78551,9.81037725Q7.92346,9.86716925,8.02918,9.97243025Q8.1349,10.07769125,8.19229,10.21539525L9.01062,12.17900625L9.77519,9.31117725L9.775310000000001,9.31070425Q9.791170000000001,9.25122625,9.816510000000001,9.19512925Q9.84186,9.13903225,9.87601,9.08781725Q9.910160000000001,9.03660325,9.952200000000001,8.99164325Q9.99424,8.94668225,10.043050000000001,8.90917925Q10.09187,8.87167525,10.146139999999999,8.84263225Q10.20041,8.81358925,10.258700000000001,8.79378425Q10.316980000000001,8.77397925,10.37771,8.76394325Q10.43844,8.75390625,10.5,8.75390625Q10.57387,8.75390625,10.64632,8.768317249999999Q10.71877,8.78272825,10.78701,8.81099625Q10.855260000000001,8.83926525,10.91668,8.88030425Q10.978100000000001,8.92134325,11.03033,8.97357625Q11.08256,9.02580925,11.1236,9.08722825Q11.16464,9.14864825,11.192910000000001,9.21689325Q11.22118,9.28513925,11.23559,9.35758825Q11.25,9.43003775,11.25,9.50390625Q11.25,9.60216525,11.224689999999999,9.69710825L9.89169,14.697106250000001Q9.87266,14.768486249999999,9.84007,14.83477625Q9.80748,14.90106625,9.76259,14.95972625Q9.717690000000001,15.018386249999999,9.66222,15.06716625Q9.60674,15.11593625,9.542819999999999,15.152956249999999Q9.47889,15.189966250000001,9.40897,15.21379625Q9.33905,15.237636250000001,9.265830000000001,15.247366249999999Q9.19261,15.25709625,9.11889,15.25235625Q9.045169999999999,15.24762625,8.9738,15.228596249999999Q8.890509999999999,15.206386250000001,8.814440000000001,15.16587625Q8.73836,15.12535625,8.67346,15.06863625Q8.608550000000001,15.01190625,8.558209999999999,14.94194625Q8.50787,14.87197625,8.47471,14.792416249999999L7.5,12.45357625L6.52529,14.792416249999999Q6.4679,14.930116250000001,6.36218,15.03538625Q6.25646,15.14064625,6.11851,15.197436249999999Q5.9805600000000005,15.25422625,5.83138,15.25390625Q5.68219,15.25357625,5.54449,15.19619625Q5.464927,15.163036250000001,5.394962,15.112696249999999Q5.324996,15.06235625,5.268275,14.99744625Q5.211554,14.93254625,5.171035,14.85647625Q5.130516,14.780396249999999,5.108312,14.697106250000001L3.775312,9.69710825Z" fill-rule="evenodd" fill="#231F2E" fill-opacity="1"/></g><g><path d="M20.9201520703125,16.222824Q19.9473320703125,15.25,18.5715520703125,15.25Q17.1957720703125,15.25,16.2229460703125,16.222824Q15.2501220703125,17.19565,15.2501220703125,18.57143Q15.2501220703125,19.94721,16.2229460703125,20.92003Q17.1957720703125,21.89286,18.5715520703125,21.89286Q19.9473320703125,21.89286,20.9201520703125,20.92003Q21.8929820703125,19.94721,21.8929820703125,18.57143Q21.8929820703125,17.19565,20.9201520703125,16.222824ZM17.2836020703125,17.28348Q17.8170920703125,16.75,18.5715520703125,16.75Q19.3260120703125,16.75,19.8594920703125,17.28348Q20.3929820703125,17.81697,20.3929820703125,18.57143Q20.3929820703125,19.32589,19.8594920703125,19.85937Q19.3260120703125,20.39286,18.5715520703125,20.39286Q17.8170920703125,20.39286,17.2836020703125,19.85937Q16.7501220703125,19.32589,16.7501220703125,18.57143Q16.7501220703125,17.81697,17.2836020703125,17.28348Z" fill-rule="evenodd" fill="#3862BE" fill-opacity="1" style="mix-blend-mode:passthrough"/></g><g><path d="M20.9876373203125,19.9269773203125L22.5301833203125,21.4695233203125L22.5303433203125,21.469683320312498Q22.6358333203125,21.5751733203125,22.6929233203125,21.7129933203125Q22.7500133203125,21.8508233203125,22.7500133203125,22.0000133203125Q22.7500133203125,22.0738733203125,22.7356033203125,22.1463233203125Q22.721183320312498,22.2187733203125,22.6929233203125,22.2870233203125Q22.6646533203125,22.3552633203125,22.6236133203125,22.4166833203125Q22.5825733203125,22.4781033203125,22.5303433203125,22.5303433203125Q22.4781033203125,22.5825733203125,22.4166833203125,22.6236133203125Q22.3552633203125,22.6646533203125,22.2870233203125,22.6929233203125Q22.2187733203125,22.721183320312498,22.1463233203125,22.7356033203125Q22.0738733203125,22.7500133203125,22.0000133203125,22.7500133203125Q21.8508233203125,22.7500133203125,21.7129933203125,22.6929233203125Q21.5751733203125,22.6358333203125,21.469683320312498,22.5303433203125L21.4695233203125,22.5301833203125L19.9269773203125,20.9876373203125L19.9268233203125,20.9874833203125Q19.8213343203125,20.8819943203125,19.7642433203125,20.7441663203125Q19.7071533203125,20.6063373203125,19.7071533203125,20.4571533203125Q19.7071533203125,20.3832848203125,19.7215643203125,20.3108353203125Q19.7359753203125,20.2383863203125,19.7642433203125,20.1701403203125Q19.7925123203125,20.1018953203125,19.833551320312502,20.0404753203125Q19.8745903203125,19.979056320312502,19.9268233203125,19.9268233203125Q19.979056320312502,19.8745903203125,20.0404753203125,19.833551320312502Q20.1018953203125,19.7925123203125,20.1701403203125,19.7642433203125Q20.2383863203125,19.7359753203125,20.3108353203125,19.7215643203125Q20.3832848203125,19.7071533203125,20.4571533203125,19.7071533203125Q20.6063373203125,19.7071533203125,20.7441663203125,19.7642433203125Q20.8819943203125,19.8213343203125,20.9874833203125,19.9268233203125L20.9876373203125,19.9269773203125Z" fill-rule="evenodd" fill="#3862BE" fill-opacity="1" style="mix-blend-mode:passthrough"/></g></g></svg>