<svg xmlns="http://www.w3.org/2000/svg" xmlns:xlink="http://www.w3.org/1999/xlink" fill="none" version="1.1" width="24" height="24" viewBox="0 0 24 24"><defs><clipPath id="master_svg0_72_03545"><rect x="0" y="0" width="24" height="24" rx="0"/></clipPath><clipPath id="master_svg1_75_05749"><rect x="1" y="1" width="22" height="22" rx="0"/></clipPath></defs><g clip-path="url(#master_svg0_72_03545)"><g clip-path="url(#master_svg1_75_05749)"><g></g><g><path d="M6.50001701171875,5.41668701171875L8.33335701171875,5.41668701171875Q8.40721701171875,5.41668701171875,8.47966701171875,5.40227601171875Q8.55211701171875,5.38786501171875,8.62036701171875,5.35959701171875Q8.68860701171875,5.33132801171875,8.75002701171875,5.29028901171875Q8.81144701171875,5.24925001171875,8.86368701171875,5.19701701171875Q8.91591701171875,5.14478401171875,8.95695701171875,5.08336501171875Q8.99799701171875,5.02194501171875,9.026267011718751,4.95370001171875Q9.05452701171875,4.88545401171875,9.06894701171875,4.81300501171875Q9.08335701171875,4.74055551171875,9.08335701171875,4.66668701171875Q9.08335701171875,4.59281851171875,9.06894701171875,4.52036901171875Q9.05452701171875,4.44792001171875,9.026267011718751,4.37967401171875Q8.99799701171875,4.31142901171875,8.95695701171875,4.25000901171875Q8.91591701171875,4.18859001171875,8.86368701171875,4.13635701171875Q8.81144701171875,4.08412401171875,8.75002701171875,4.04308501171875Q8.68860701171875,4.00204601171875,8.62036701171875,3.97377701171875Q8.55211701171875,3.94550901171875,8.47966701171875,3.93109801171875Q8.40722701171875,3.91668701171875,8.33335701171875,3.91668701171875L6.50001701171875,3.91668701171875Q5.42996901171875,3.91668701171875,4.67332772171875,4.67332777171875Q3.91668701171875,5.42996801171875,3.91668701171875,6.50001701171875L3.91668701171875,8.33335701171875Q3.91668701171875,8.40721701171875,3.93109801171875,8.47966701171875Q3.94550901171875,8.55211701171875,3.97377701171875,8.62036701171875Q4.00204601171875,8.68860701171875,4.04308501171875,8.75002701171875Q4.08412401171875,8.81144701171875,4.13635701171875,8.86368701171875Q4.18859001171875,8.91591701171875,4.25000901171875,8.95695701171875Q4.31142901171875,8.99799701171875,4.37967401171875,9.026267011718751Q4.44792001171875,9.05452701171875,4.52036901171875,9.06894701171875Q4.59281851171875,9.08335701171875,4.66668701171875,9.08335701171875Q4.74055551171875,9.08335701171875,4.81300501171875,9.06894701171875Q4.88545401171875,9.05452701171875,4.95370001171875,9.026267011718751Q5.02194501171875,8.99799701171875,5.08336501171875,8.95695701171875Q5.14478401171875,8.91591701171875,5.19701701171875,8.86368701171875Q5.24925001171875,8.81144701171875,5.29028901171875,8.75002701171875Q5.33132801171875,8.68860701171875,5.35959701171875,8.62036701171875Q5.38786501171875,8.55211701171875,5.40227601171875,8.47966701171875Q5.41668701171875,8.40722701171875,5.41668701171875,8.33335701171875L5.41668701171875,6.50001701171875Q5.41668701171875,6.05128701171875,5.7339870117187495,5.7339870117187495Q6.05128701171875,5.41668701171875,6.50001701171875,5.41668701171875Z" fill-rule="evenodd" fill="#231F2E" fill-opacity="1" style="mix-blend-mode:passthrough"/></g><g><path d="M3.91668701171875,15.66668701171875Q3.91668701171875,15.59281851171875,3.93109801171875,15.52036901171875Q3.94550901171875,15.44792001171875,3.97377701171875,15.37967401171875Q4.00204601171875,15.31142901171875,4.04308501171875,15.25000901171875Q4.08412401171875,15.18859001171875,4.13635701171875,15.13635701171875Q4.18859001171875,15.08412401171875,4.25000901171875,15.04308501171875Q4.31142901171875,15.00204601171875,4.37967401171875,14.97377701171875Q4.44792001171875,14.94550901171875,4.52036901171875,14.931098011718749Q4.59281851171875,14.91668701171875,4.66668701171875,14.91668701171875Q4.74055551171875,14.91668701171875,4.81300501171875,14.931098011718749Q4.88545401171875,14.94550901171875,4.95370001171875,14.97377701171875Q5.02194501171875,15.00204601171875,5.08336501171875,15.04308501171875Q5.14478401171875,15.08412401171875,5.19701701171875,15.13635701171875Q5.24925001171875,15.18859001171875,5.29028901171875,15.25000901171875Q5.33132801171875,15.31142901171875,5.35959701171875,15.37967401171875Q5.38786501171875,15.44792001171875,5.40227601171875,15.52036901171875Q5.41668701171875,15.59281851171875,5.41668701171875,15.66668701171875L5.41668701171875,17.50001701171875Q5.41668701171875,17.94875701171875,5.7339870117187495,18.26605701171875Q6.05128701171875,18.58335701171875,6.50001701171875,18.58335701171875L8.33335701171875,18.58335701171875Q8.40721701171875,18.58335701171875,8.47966701171875,18.59776701171875Q8.55211701171875,18.61217701171875,8.62036701171875,18.64044701171875Q8.68860701171875,18.66870701171875,8.75002701171875,18.70974701171875Q8.81144701171875,18.75078701171875,8.86368701171875,18.80302701171875Q8.91591701171875,18.85525701171875,8.95695701171875,18.91667701171875Q8.99799701171875,18.97809701171875,9.026267011718751,19.046337011718748Q9.05452701171875,19.11458701171875,9.06894701171875,19.18703701171875Q9.08335701171875,19.25948701171875,9.08335701171875,19.33335701171875Q9.08335701171875,19.40722701171875,9.06894701171875,19.47966701171875Q9.05452701171875,19.55211701171875,9.026267011718751,19.62036701171875Q8.99799701171875,19.68860701171875,8.95695701171875,19.75002701171875Q8.91591701171875,19.811447011718748,8.86368701171875,19.86368701171875Q8.81144701171875,19.91591701171875,8.75002701171875,19.95695701171875Q8.68860701171875,19.997997011718752,8.62036701171875,20.02626701171875Q8.55211701171875,20.05452701171875,8.47966701171875,20.06894701171875Q8.40722701171875,20.08335701171875,8.33335701171875,20.08335701171875L8.33250701171875,20.08335701171875L6.50001701171875,20.08335701171875Q5.42996901171875,20.08335701171875,4.67332783171875,19.32671701171875Q3.91668701171875,18.57007701171875,3.91668701171875,17.50001701171875L3.91668701171875,15.66668701171875Z" fill-rule="evenodd" fill="#231F2E" fill-opacity="1" style="mix-blend-mode:passthrough"/></g><g><path d="M15.66668701171875,3.91668701171875L17.50001701171875,3.91668701171875Q18.57007701171875,3.91668701171875,19.32671701171875,4.67332783171875Q20.08335701171875,5.42996901171875,20.08335701171875,6.50001701171875L20.08335701171875,8.33335701171875Q20.08335701171875,8.40721701171875,20.06894701171875,8.47966701171875Q20.05452701171875,8.55211701171875,20.02626701171875,8.62036701171875Q19.997997011718752,8.68860701171875,19.95695701171875,8.75002701171875Q19.91591701171875,8.81144701171875,19.86368701171875,8.86368701171875Q19.811447011718748,8.91591701171875,19.75002701171875,8.95695701171875Q19.68860701171875,8.99799701171875,19.62036701171875,9.026267011718751Q19.55211701171875,9.05452701171875,19.47966701171875,9.06894701171875Q19.40722701171875,9.08335701171875,19.33335701171875,9.08335701171875Q19.25948701171875,9.08335701171875,19.18703701171875,9.06894701171875Q19.11458701171875,9.05452701171875,19.046337011718748,9.026267011718751Q18.97809701171875,8.99799701171875,18.91667701171875,8.95695701171875Q18.85525701171875,8.91591701171875,18.80302701171875,8.86368701171875Q18.75078701171875,8.81144701171875,18.70974701171875,8.75002701171875Q18.66871701171875,8.68860701171875,18.64044701171875,8.62036701171875Q18.61217701171875,8.55211701171875,18.59776701171875,8.47966701171875Q18.58335701171875,8.40722701171875,18.58335701171875,8.33335701171875L18.58335701171875,6.50001701171875Q18.58335701171875,6.05128701171875,18.26605701171875,5.7339870117187495Q17.94875701171875,5.41668701171875,17.50001701171875,5.41668701171875L15.66668701171875,5.41668701171875Q15.59281851171875,5.41668701171875,15.52036901171875,5.40227601171875Q15.44792001171875,5.38786501171875,15.37967401171875,5.35959701171875Q15.31142901171875,5.33132801171875,15.25000901171875,5.29028901171875Q15.18859001171875,5.24925001171875,15.13635701171875,5.19701701171875Q15.08412401171875,5.14478401171875,15.04308501171875,5.08336501171875Q15.00204601171875,5.02194501171875,14.97377701171875,4.95370001171875Q14.94550901171875,4.88545401171875,14.931098011718749,4.81300501171875Q14.91668701171875,4.74055551171875,14.91668701171875,4.66668701171875Q14.91668701171875,4.59281851171875,14.931098011718749,4.52036901171875Q14.94550901171875,4.44792001171875,14.97377701171875,4.37967401171875Q15.00204601171875,4.31142901171875,15.04308501171875,4.25000901171875Q15.08412401171875,4.18859001171875,15.13635701171875,4.13635701171875Q15.18859001171875,4.08412401171875,15.25000901171875,4.04308501171875Q15.31142901171875,4.00204601171875,15.37967401171875,3.97377701171875Q15.44792001171875,3.94550901171875,15.52036901171875,3.93109801171875Q15.59281851171875,3.91668701171875,15.66668701171875,3.91668701171875Z" fill-rule="evenodd" fill="#231F2E" fill-opacity="1" style="mix-blend-mode:passthrough"/></g><g><path d="M20.08335701171875,15.66753273971875L20.08335701171875,17.50001701171875Q20.08335701171875,18.57007701171875,19.32671701171875,19.32671701171875Q18.57007701171875,20.08335701171875,17.50001701171875,20.08335701171875L15.66668701171875,20.08335701171875Q15.59281851171875,20.08335701171875,15.52036901171875,20.06894701171875Q15.44792001171875,20.05452701171875,15.37967401171875,20.02626701171875Q15.31142901171875,19.997997011718752,15.25000901171875,19.95695701171875Q15.18859001171875,19.91591701171875,15.13635701171875,19.86368701171875Q15.08412401171875,19.811447011718748,15.04308501171875,19.75002701171875Q15.00204601171875,19.68860701171875,14.97377701171875,19.62036701171875Q14.94550901171875,19.55211701171875,14.931098011718749,19.47966701171875Q14.91668701171875,19.40722701171875,14.91668701171875,19.33335701171875Q14.91668701171875,19.25948701171875,14.931098011718749,19.18703701171875Q14.94550901171875,19.11458701171875,14.97377701171875,19.046337011718748Q15.00204601171875,18.97809701171875,15.04308501171875,18.91667701171875Q15.08412401171875,18.85525701171875,15.13635701171875,18.80302701171875Q15.18859001171875,18.75078701171875,15.25000901171875,18.70974701171875Q15.31142901171875,18.66871701171875,15.37967401171875,18.64044701171875Q15.44792001171875,18.61217701171875,15.52036901171875,18.59776701171875Q15.59281851171875,18.58335701171875,15.66668701171875,18.58335701171875L17.50001701171875,18.58335701171875Q17.94875701171875,18.58335701171875,18.26605701171875,18.26605701171875Q18.58335701171875,17.94875701171875,18.58335701171875,17.50001701171875L18.58335701171875,15.66668701171875Q18.58335701171875,15.59281851171875,18.59776701171875,15.52036901171875Q18.61217701171875,15.44792001171875,18.64044701171875,15.37967401171875Q18.66870701171875,15.31142901171875,18.70974701171875,15.25000901171875Q18.75078701171875,15.18859001171875,18.80302701171875,15.13635701171875Q18.85525701171875,15.08412401171875,18.91667701171875,15.04308501171875Q18.97809701171875,15.00204601171875,19.046337011718748,14.97377701171875Q19.11458701171875,14.94550901171875,19.18703701171875,14.931098011718749Q19.25948701171875,14.91668701171875,19.33335701171875,14.91668701171875Q19.40722701171875,14.91668701171875,19.47966701171875,14.931098011718749Q19.55211701171875,14.94550901171875,19.62036701171875,14.97377701171875Q19.68860701171875,15.00204601171875,19.75002701171875,15.04308501171875Q19.811447011718748,15.08412401171875,19.86368701171875,15.13635701171875Q19.91591701171875,15.18859001171875,19.95695701171875,15.25000901171875Q19.997997011718752,15.31142901171875,20.02626701171875,15.37967401171875Q20.05452701171875,15.44792001171875,20.06894701171875,15.52036901171875Q20.08335701171875,15.59281851171875,20.08335701171875,15.66668701171875L20.08335701171875,15.66753273971875Z" fill-rule="evenodd" fill="#231F2E" fill-opacity="1" style="mix-blend-mode:passthrough"/></g><g><g transform="matrix(1,0,0,-1,0,29.407094955444336)"><path d="M8.01083,19.35415747772217C7.616441,19.24810747772217,7.291649,18.969717477722167,7.10274,18.578637477722168L7,18.363217477722166L7,17.05410747772217L7,15.744997477722167L7.10274,15.529577477722167C7.294964,15.131873477722168,7.619755,14.856795477722168,8.0274,14.750741177722167C8.86589,14.535318477722168,9.67456,15.078846477722168,9.8005,15.943847477722167C9.84358,16.245447477722166,9.84358,17.86276747772217,9.8005,18.164367477722166C9.67456,19.032687477722167,8.852640000000001,19.579527477722166,8.01083,19.35415747772217ZM8.62727,18.349957477722167C8.82944,18.227337477722166,8.83938,18.164367477722166,8.83938,17.05410747772217C8.83938,16.189107477722168,8.83275,16.03664747772217,8.78304,15.937227477722168C8.62396,15.599175477722168,8.13014,15.619060477722169,7.997573,15.967047477722168C7.94786,16.09298747772217,7.941232,16.242127477722168,7.951175,17.12038747772217C7.961117,18.048367477722167,7.967746,18.13784747772217,8.02409,18.224017477722168C8.150030000000001,18.412927477722167,8.42842,18.46926747772217,8.62727,18.349957477722167Z" fill="#2882FF" fill-opacity="1"/></g><g transform="matrix(1,0,0,-1,0,29.413253784179688)"><path d="M11.64641285346985,19.37672689208984C11.31499585346985,19.300506892089842,10.917291853469848,18.992286892089844,10.75158185346985,18.690696892089843C10.57924385346985,18.372526892089844,10.562672853469849,18.233336892089845,10.562672853469849,17.060106892089845C10.562672853469849,15.886876892089845,10.57924385346985,15.747686892089844,10.75158185346985,15.429520892089844C10.874207853469848,15.207469892089843,11.152599853469848,14.955590892089845,11.411106853469848,14.832965892089844C11.689502853469849,14.703712002089844,12.103772853469849,14.667255792089843,12.392112853469849,14.753424992089844C12.819642853469848,14.876049892089844,13.214032853469849,15.263811892089844,13.346602853469848,15.691342892089844C13.508992853469849,16.214986892089843,13.35985285346985,16.576236892089845,12.965462853469848,16.622636892089844C12.706962853469848,16.649146892089846,12.418622853469849,16.403896892089843,12.418622853469849,16.152016892089843C12.418622853469849,15.900136892089844,12.219772853469848,15.701285892089844,11.961262853469849,15.701285892089844C11.848582853469848,15.701285892089844,11.798872853469849,15.721166892089844,11.696132853469848,15.813966892089844L11.573502853469849,15.926646892089844L11.573502853469849,17.060106892089845L11.573502853469849,18.193566892089844L11.696132853469848,18.306246892089845C11.798872853469849,18.399046892089842,11.848582853469848,18.418926892089843,11.961262853469849,18.418926892089843C12.219772853469848,18.418926892089843,12.418622853469849,18.220076892089843,12.418622853469849,17.968196892089843C12.418622853469849,17.716316892089843,12.706962853469848,17.471066892089844,12.965462853469848,17.497576892089842C13.356542853469849,17.543976892089844,13.50568285346985,17.908536892089842,13.346602853469848,18.428866892089843C13.217342853469848,18.846456892089844,12.822952853469848,19.240846892089845,12.408682853469848,19.363476892089842C12.226402853469848,19.416496892089842,11.848582853469848,19.423126892089844,11.64641285346985,19.37672689208984Z" fill="#2882FF" fill-opacity="1"/></g><g transform="matrix(1,0,0,-1,0,29.417359352111816)"><path d="M14.4038522840271,19.347759676055908C14.3375682840271,19.307989676055907,14.2547129840271,19.231769676055908,14.2215709840271,19.172109676055907C14.1619154840271,19.07267967605591,14.1586012840271,18.97656967605591,14.1586012840271,17.064279676055907C14.1586012840271,15.148674676055908,14.1619154840271,15.055877676055909,14.2215709840271,14.953137676055908C14.3574532840271,14.731086076055908,14.6822442840271,14.644916976055908,14.897667284027099,14.777484876055908C15.0965192840271,14.900109676055909,15.1362892840271,15.009478676055908,15.1362892840271,15.450266676055907C15.1362892840271,15.662375676055909,15.1462322840271,15.838029676055909,15.1628012840271,15.838029676055909C15.1760612840271,15.838029676055909,15.418001284027099,15.606033676055908,15.6997012840271,15.321012676055908C15.9814112840271,15.039306676055908,16.2531712840271,14.784113276055908,16.302891284027098,14.757599676055909C16.4984212840271,14.654859576055909,16.7436712840271,14.717829316055909,16.9060712840271,14.910052676055908C16.9723512840271,14.992907676055909,16.9922412840271,15.049248676055909,16.9922412840271,15.178502676055908C16.9922412840271,15.271300676055908,16.9756712840271,15.377354676055909,16.9557812840271,15.417124676055908C16.9359012840271,15.456895676055908,16.7171612840271,15.695517676055909,16.4686012840271,15.944079676055908C16.2200312840271,16.195959676055907,16.0244912840271,16.404759676055907,16.0311212840271,16.41137967605591C16.0410612840271,16.41800967605591,16.1272312840271,16.467729676055907,16.2200312840271,16.517439676055908C16.3161412840271,16.570469676055907,16.4785412840271,16.696409676055907,16.5779612840271,16.802459676055907C17.3833112840271,17.64757967605591,16.9789812840271,19.07267967605591,15.848841284027099,19.36764967605591C15.7096412840271,19.404099676055907,15.4909112840271,19.41735967605591,15.0865762840271,19.41735967605591C14.5761902840271,19.41735967605591,14.5132202840271,19.410729676055908,14.4038522840271,19.347759676055908ZM15.696391284027099,18.373389676055908C15.9283812840271,18.257389676055908,16.060951284027098,17.965739676055907,15.9979812840271,17.727119676055906C15.9217512840271,17.442099676055907,15.7030212840271,17.296269676055907,15.355031284027099,17.296269676055907L15.1362892840271,17.296269676055907L15.1362892840271,17.859689676055908L15.1362892840271,18.42309967605591L15.3682812840271,18.42309967605591C15.5107912840271,18.42309967605591,15.6400512840271,18.403219676055908,15.696391284027099,18.373389676055908Z" fill="#2882FF" fill-opacity="1"/></g></g></g></g></svg>