<svg xmlns="http://www.w3.org/2000/svg" xmlns:xlink="http://www.w3.org/1999/xlink" fill="none" version="1.1" width="24" height="24" viewBox="0 0 24 24"><defs><clipPath id="master_svg0_62_00819"><rect x="0" y="0" width="24" height="24" rx="0"/></clipPath></defs><g clip-path="url(#master_svg0_62_00819)"><g><path d="M12.99998950958252,4.25L20.49998950958252,4.25Q21.43196950958252,4.25,22.090979509582517,4.9090099Q22.74998950958252,5.568019,22.74998950958252,6.5L22.74998950958252,15.5Q22.74998950958252,15.5739,22.73557950958252,15.6463Q22.72116950958252,15.7188,22.692899509582517,15.787Q22.664629509582518,15.8553,22.62358950958252,15.9167Q22.58254950958252,15.9781,22.53031950958252,16.0303Q22.478089509582517,16.0826,22.41666950958252,16.1236Q22.35524950958252,16.1646,22.28699950958252,16.1929Q22.21875950958252,16.2212,22.14630950958252,16.235599999999998Q22.07385950958252,16.25,21.99998950958252,16.25Q21.92611950958252,16.25,21.85366950958252,16.235599999999998Q21.78121950958252,16.2212,21.712979509582517,16.1929Q21.64472950958252,16.1646,21.58330950958252,16.1236Q21.521889509582522,16.0826,21.46965950958252,16.0303Q21.41742950958252,15.9781,21.37638950958252,15.9167Q21.33534950958252,15.8553,21.307079509582522,15.787Q21.27880950958252,15.7188,21.264399509582518,15.6463Q21.24998950958252,15.5739,21.24998950958252,15.5L21.24998950958252,6.5Q21.24998950958252,6.18934,21.03031950958252,5.96967Q20.810649509582518,5.75,20.49998950958252,5.75L12.99998950958252,5.75Q12.92612100958252,5.75,12.853671509582519,5.735589Q12.78122250958252,5.721178,12.71297650958252,5.69291Q12.64473150958252,5.664641,12.58331150958252,5.623602Q12.52189250958252,5.582563,12.46965950958252,5.53033Q12.41742650958252,5.478097,12.37638750958252,5.416678Q12.33534850958252,5.355258,12.30707950958252,5.287013Q12.27881150958252,5.218767,12.264400509582519,5.146318Q12.24998950958252,5.0738685,12.24998950958252,5Q12.24998950958252,4.9261315,12.264400509582519,4.853682Q12.27881150958252,4.781233,12.30707950958252,4.712987Q12.33534850958252,4.644742,12.37638750958252,4.583322Q12.41742650958252,4.521903,12.46965950958252,4.46967Q12.52189250958252,4.417437,12.58331150958252,4.376398Q12.64473150958252,4.335359,12.71297650958252,4.30709Q12.78122250958252,4.278822,12.853671509582519,4.264411Q12.92612100958252,4.25,12.99998950958252,4.25ZM14.49998950958252,19.75L12.99998950958252,19.75Q12.92612100958252,19.75,12.853671509582519,19.735599999999998Q12.78122250958252,19.7212,12.71297650958252,19.6929Q12.64473150958252,19.6646,12.58331150958252,19.6236Q12.52189250958252,19.5826,12.46965950958252,19.5303Q12.41742650958252,19.478099999999998,12.37638750958252,19.4167Q12.33534850958252,19.3553,12.30707950958252,19.287Q12.27881150958252,19.2188,12.264400509582519,19.1463Q12.24998950958252,19.073900000000002,12.24998950958252,19Q12.24998950958252,18.926099999999998,12.264400509582519,18.8537Q12.27881150958252,18.7812,12.30707950958252,18.713Q12.33534850958252,18.6447,12.37638750958252,18.5833Q12.41742650958252,18.521900000000002,12.46965950958252,18.4697Q12.52189250958252,18.4174,12.58331150958252,18.3764Q12.64473150958252,18.3354,12.71297650958252,18.3071Q12.78122250958252,18.2788,12.853671509582519,18.264400000000002Q12.92612100958252,18.25,12.99998950958252,18.25L14.49998950958252,18.25Q14.573859509582519,18.25,14.646309509582519,18.264400000000002Q14.718759509582519,18.2788,14.78699950958252,18.3071Q14.855249509582519,18.3354,14.916669509582519,18.3764Q14.978089509582519,18.4174,15.030319509582519,18.4697Q15.08254950958252,18.521900000000002,15.12358950958252,18.5833Q15.16462950958252,18.6447,15.192899509582519,18.713Q15.22116950958252,18.7812,15.23557950958252,18.8537Q15.24998950958252,18.926099999999998,15.24998950958252,19Q15.24998950958252,19.073900000000002,15.23557950958252,19.1463Q15.22116950958252,19.2188,15.192899509582519,19.287Q15.16462950958252,19.3553,15.12358950958252,19.4167Q15.08254950958252,19.478099999999998,15.030319509582519,19.5303Q14.978089509582519,19.5826,14.916669509582519,19.6236Q14.855249509582519,19.6646,14.78699950958252,19.6929Q14.718759509582519,19.7212,14.646309509582519,19.735599999999998Q14.573859509582519,19.75,14.49998950958252,19.75Z" fill-rule="evenodd" fill="#231F2E" fill-opacity="1"/></g><g><path d="M17,12.748992919921875L15.5,12.748992919921875Q15.4261315,12.748992919921875,15.353682,12.734581919921876Q15.281233,12.720170919921875,15.212987,12.691902919921874Q15.144742,12.663633919921875,15.083322,12.622594919921875Q15.021903,12.581555919921875,14.96967,12.529322919921874Q14.917437,12.477089919921875,14.876398,12.415670919921874Q14.835359,12.354250919921874,14.80709,12.286005919921875Q14.778822,12.217759919921875,14.764410999999999,12.145310919921876Q14.75,12.072861419921875,14.75,11.998992919921875Q14.75,11.925124419921875,14.764410999999999,11.852674919921874Q14.778822,11.780225919921875,14.80709,11.711979919921875Q14.835359,11.643734919921876,14.876398,11.582314919921876Q14.917437,11.520895919921875,14.96967,11.468662919921876Q15.021903,11.416429919921875,15.083322,11.375390919921875Q15.144742,11.334351919921875,15.212987,11.306082919921876Q15.281233,11.277814919921875,15.353682,11.263403919921874Q15.4261315,11.248992919921875,15.5,11.248992919921875L17,11.248992919921875Q17.07387,11.248992919921875,17.14632,11.263403919921874Q17.21877,11.277814919921875,17.28701,11.306082919921876Q17.35526,11.334351919921875,17.41668,11.375390919921875Q17.4781,11.416429919921875,17.53033,11.468662919921876Q17.58256,11.520895919921875,17.6236,11.582314919921876Q17.66464,11.643734919921876,17.69291,11.711979919921875Q17.72118,11.780225919921875,17.735590000000002,11.852674919921874Q17.75,11.925124419921875,17.75,11.998992919921875Q17.75,12.072861419921875,17.735590000000002,12.145310919921876Q17.72118,12.217759919921875,17.69291,12.286005919921875Q17.66464,12.354250919921874,17.6236,12.415670919921874Q17.58256,12.477089919921875,17.53033,12.529322919921874Q17.4781,12.581555919921875,17.41668,12.622594919921875Q17.35526,12.663633919921875,17.28701,12.691902919921874Q17.21877,12.720170919921875,17.14632,12.734581919921876Q17.07387,12.748992919921875,17,12.748992919921875Z" fill-rule="evenodd" fill="#231F2E" fill-opacity="1"/></g><g><path d="M15.5,8.25L19.5,8.25Q19.57387,8.25,19.64632,8.264410999999999Q19.71877,8.278822,19.787010000000002,8.30709Q19.85526,8.335359,19.91668,8.376398Q19.9781,8.417437,20.03033,8.46967Q20.08256,8.521903,20.1236,8.583322Q20.16464,8.644742,20.19291,8.712987Q20.22118,8.781233,20.235590000000002,8.853682Q20.25,8.9261315,20.25,9Q20.25,9.0738685,20.235590000000002,9.146318Q20.22118,9.218767,20.19291,9.287013Q20.16464,9.355258,20.1236,9.416678Q20.08256,9.478097,20.03033,9.53033Q19.9781,9.582563,19.91668,9.623602Q19.85526,9.664641,19.787010000000002,9.69291Q19.71877,9.721178,19.64632,9.735589000000001Q19.57387,9.75,19.5,9.75L15.5,9.75Q15.4261315,9.75,15.353682,9.735589000000001Q15.281233,9.721178,15.212987,9.69291Q15.144742,9.664641,15.083322,9.623602Q15.021903,9.582563,14.96967,9.53033Q14.917437,9.478097,14.876398,9.416678Q14.835359,9.355258,14.80709,9.287013Q14.778822,9.218767,14.764410999999999,9.146318Q14.75,9.0738685,14.75,9Q14.75,8.9261315,14.764410999999999,8.853682Q14.778822,8.781233,14.80709,8.712987Q14.835359,8.644742,14.876398,8.583322Q14.917437,8.521903,14.96967,8.46967Q15.021903,8.417437,15.083322,8.376398Q15.144742,8.335359,15.212987,8.30709Q15.281233,8.278822,15.353682,8.264410999999999Q15.4261315,8.25,15.5,8.25Z" fill-rule="evenodd" fill="#231F2E" fill-opacity="1"/></g><g><path d="M1.25,5.251860000000001L1.25,18.7481Q1.25,19.5637,1.772559,20.1898Q2.295118,20.816,3.0975099999999998,20.9618L11.09751,22.4164Q12.1334,22.6047,12.9417,21.9301Q13.75,21.2555,13.75,20.2027L13.75,3.79732Q13.75,2.744481,12.9417,2.0698778Q12.1334,1.3952740000000001,11.09751,1.583612L3.0975099999999998,3.03816Q2.295117,3.18405,1.772559,3.81018Q1.25,4.43632,1.25,5.251860000000001ZM3.36584,19.486Q2.75,19.3741,2.75,18.7481L2.75,5.251860000000001Q2.75,4.62593,3.36584,4.51396L11.36584,3.0594200000000003Q11.71112,2.996638,11.98056,3.2215100000000003Q12.25,3.44637,12.25,3.79732L12.25,20.2027Q12.25,20.5536,11.98056,20.7785Q11.71112,21.0034,11.36584,20.9406L3.36584,19.486Z" fill-rule="evenodd" fill="#231F2E" fill-opacity="1"/></g><g><path d="M4.875962,9.416025Q4.75,9.227082,4.75,9Q4.75,8.9261315,4.764411,8.853682Q4.778822,8.781233,4.80709,8.712987Q4.835359,8.644742,4.876398,8.583322Q4.917437,8.521903,4.96967,8.46967Q5.021903,8.417437,5.083322,8.376398Q5.144742,8.335359,5.212987,8.30709Q5.281233,8.278822,5.353682,8.264410999999999Q5.4261315,8.25,5.5,8.25Q5.5926032,8.25,5.682425,8.272524Q5.772247,8.295048,5.853893,8.338744Q5.935539,8.38244,6.004105,8.444682Q6.072671,8.506924,6.124038,8.583975L10.12404,14.58397Q10.25,14.77292,10.25,15Q10.25,15.07387,10.23559,15.14632Q10.22118,15.21877,10.192910000000001,15.28701Q10.16464,15.355260000000001,10.1236,15.41668Q10.08256,15.478100000000001,10.03033,15.53033Q9.978100000000001,15.58256,9.91668,15.6236Q9.855260000000001,15.66464,9.78701,15.692910000000001Q9.71877,15.72118,9.64632,15.73559Q9.57387,15.75,9.5,15.75Q9.407399999999999,15.75,9.31757,15.72748Q9.22775,15.70495,9.14611,15.66126Q9.06446,15.617560000000001,8.99589,15.55532Q8.92733,15.493079999999999,8.87596,15.41603L4.875962,9.416025L4.875962,9.416025Z" fill-rule="evenodd" fill="#231F2E" fill-opacity="1"/></g><g><path d="M10.12404,9.416025Q10.25,9.227082,10.25,9Q10.25,8.9261315,10.23559,8.853682Q10.22118,8.781233,10.192910000000001,8.712987Q10.16464,8.644742,10.1236,8.583322Q10.08256,8.521903,10.03033,8.46967Q9.978100000000001,8.417437,9.91668,8.376398Q9.855260000000001,8.335359,9.78701,8.30709Q9.71877,8.278822,9.64632,8.264410999999999Q9.57387,8.25,9.5,8.25Q9.407399999999999,8.25,9.31757,8.272524Q9.22775,8.295048,9.14611,8.338744Q9.06446,8.38244,8.99589,8.444682Q8.92733,8.506924,8.87596,8.583975L4.875962,14.58397Q4.75,14.77292,4.75,15Q4.75,15.07387,4.764411,15.14632Q4.778822,15.21877,4.80709,15.28701Q4.835359,15.355260000000001,4.876398,15.41668Q4.917437,15.478100000000001,4.96967,15.53033Q5.021903,15.58256,5.083322,15.6236Q5.144742,15.66464,5.212987,15.692910000000001Q5.281233,15.72118,5.353682,15.73559Q5.4261315,15.75,5.5,15.75Q5.5926032,15.75,5.682425,15.72748Q5.772247,15.70495,5.853893,15.66126Q5.935539,15.617560000000001,6.004105,15.55532Q6.072671,15.493079999999999,6.124038,15.41603L10.12404,9.416025L10.12404,9.416025Z" fill-rule="evenodd" fill="#231F2E" fill-opacity="1"/></g><g><path d="M16.35688,15.614128000000001Q16.25,15.792262,16.25,16L16.25,22Q16.25,22.07387,16.264411,22.14632Q16.278822,22.21877,16.30709,22.287010000000002Q16.335359,22.35526,16.376398000000002,22.41668Q16.417437,22.4781,16.46967,22.53033Q16.521903000000002,22.58256,16.583322,22.6236Q16.644742,22.66464,16.712987,22.69291Q16.781233,22.72118,16.853682,22.735590000000002Q16.9261315,22.75,17,22.75Q17.207738,22.75,17.385872,22.64312L22.38587,19.64312Q22.5138,19.56637,22.60261,19.4465Q22.69142,19.32663,22.72761,19.1819Q22.76379,19.03717,22.74183,18.88961Q22.71987,18.74205,22.64312,18.61413Q22.54665,18.45335,22.38587,18.35688L17.385872,15.35688Q17.257947,15.280126,17.110388,15.258168Q16.9628284,15.236211,16.818098,15.272393Q16.673368,15.308576,16.553502,15.39739Q16.433635,15.486204,16.35688,15.614128000000001ZM17.75,17.32464L17.75,20.67536L20.54226,19L17.75,17.32464Z" fill-rule="evenodd" fill="#13943C" fill-opacity="1"/></g></g></svg>