<svg xmlns="http://www.w3.org/2000/svg" xmlns:xlink="http://www.w3.org/1999/xlink" fill="none" version="1.1" width="24" height="24" viewBox="0 0 24 24"><defs><clipPath id="master_svg0_72_03810"><rect x="0" y="0" width="24" height="24" rx="0"/></clipPath><clipPath id="master_svg1_75_05842"><rect x="1" y="1" width="22" height="22" rx="0"/></clipPath></defs><g clip-path="url(#master_svg0_72_03810)"><g clip-path="url(#master_svg1_75_05842)"><g></g><g><path d="M6.50001701171875,5.41668701171875L8.33335701171875,5.41668701171875Q8.40722701171875,5.41668701171875,8.47966701171875,5.40227601171875Q8.55211701171875,5.38786501171875,8.62036701171875,5.35959701171875Q8.68860701171875,5.33132801171875,8.75002701171875,5.29028901171875Q8.81144701171875,5.24925001171875,8.86368701171875,5.19701701171875Q8.91591701171875,5.14478401171875,8.95695701171875,5.08336501171875Q8.99799701171875,5.02194501171875,9.026267011718751,4.95370001171875Q9.05452701171875,4.88545401171875,9.06894701171875,4.81300501171875Q9.08335701171875,4.74055551171875,9.08335701171875,4.66668701171875Q9.08335701171875,4.59281851171875,9.06894701171875,4.52036901171875Q9.05452701171875,4.44792001171875,9.026267011718751,4.37967401171875Q8.99799701171875,4.31142901171875,8.95695701171875,4.25000901171875Q8.91591701171875,4.18859001171875,8.86368701171875,4.13635701171875Q8.81144701171875,4.08412401171875,8.75002701171875,4.04308501171875Q8.68860701171875,4.00204601171875,8.62036701171875,3.97377701171875Q8.55211701171875,3.94550901171875,8.47966701171875,3.93109801171875Q8.40722701171875,3.91668701171875,8.33335701171875,3.91668701171875L6.50001701171875,3.91668701171875Q5.42996901171875,3.91668701171875,4.67332785171875,4.67332785171875Q3.91668701171875,5.42996901171875,3.91668701171875,6.50001701171875L3.91668701171875,7.41668701171875Q3.91668701171875,7.490557011718749,3.93109801171875,7.563007011718749Q3.94550901171875,7.63545701171875,3.97377701171875,7.70369701171875Q4.00204601171875,7.7719470117187495,4.04308501171875,7.8333670117187495Q4.08412401171875,7.8947870117187495,4.13635701171875,7.94701701171875Q4.18859001171875,7.99924701171875,4.25000901171875,8.04028701171875Q4.31142901171875,8.08132701171875,4.37967401171875,8.10959701171875Q4.44792001171875,8.13786701171875,4.52036901171875,8.15227701171875Q4.59281851171875,8.16668701171875,4.66668701171875,8.16668701171875Q4.74055551171875,8.16668701171875,4.81300501171875,8.15227701171875Q4.88545401171875,8.13786701171875,4.95370001171875,8.10959701171875Q5.02194501171875,8.08132701171875,5.08336501171875,8.04028701171875Q5.14478401171875,7.99924701171875,5.19701701171875,7.94701701171875Q5.24925001171875,7.8947870117187495,5.29028901171875,7.8333670117187495Q5.33132801171875,7.7719470117187495,5.35959701171875,7.70369701171875Q5.38786501171875,7.63545701171875,5.40227601171875,7.563007011718749Q5.41668701171875,7.490557011718749,5.41668701171875,7.41668701171875L5.41668701171875,6.50001701171875Q5.41668701171875,6.05128701171875,5.7339870117187495,5.7339870117187495Q6.05128701171875,5.41668701171875,6.50001701171875,5.41668701171875Z" fill-rule="evenodd" fill="#231F2E" fill-opacity="1"/></g><g><path d="M3.91668701171875,16.58331298828125Q3.91668701171875,16.50944448828125,3.93109801171875,16.43699498828125Q3.94550901171875,16.36454598828125,3.97377701171875,16.29629998828125Q4.00204601171875,16.22805498828125,4.04308501171875,16.16663498828125Q4.08412401171875,16.105215988281252,4.13635701171875,16.05298298828125Q4.18859001171875,16.00074998828125,4.25000901171875,15.95971098828125Q4.31142901171875,15.91867198828125,4.37967401171875,15.89040298828125Q4.44792001171875,15.86213498828125,4.52036901171875,15.847723988281249Q4.59281851171875,15.83331298828125,4.66668701171875,15.83331298828125Q4.74055551171875,15.83331298828125,4.81300501171875,15.847723988281249Q4.88545401171875,15.86213498828125,4.95370001171875,15.89040298828125Q5.02194501171875,15.91867198828125,5.08336501171875,15.95971098828125Q5.14478401171875,16.00074998828125,5.19701701171875,16.05298298828125Q5.24925001171875,16.105215988281252,5.29028901171875,16.16663498828125Q5.33132801171875,16.22805498828125,5.35959701171875,16.29629998828125Q5.38786501171875,16.36454598828125,5.40227601171875,16.43699498828125Q5.41668701171875,16.50944448828125,5.41668701171875,16.58331298828125L5.41668701171875,17.49997998828125Q5.41668701171875,17.94871298828125,5.7339870117187495,18.26601298828125Q6.05128701171875,18.58331298828125,6.50001701171875,18.58331298828125L8.33335701171875,18.58331298828125Q8.40722701171875,18.58331298828125,8.47966701171875,18.597722988281248Q8.55211701171875,18.61213298828125,8.62036701171875,18.64040298828125Q8.68860701171875,18.66867298828125,8.75002701171875,18.70971298828125Q8.81144701171875,18.75075298828125,8.86368701171875,18.80298298828125Q8.91591701171875,18.85521298828125,8.95695701171875,18.91663298828125Q8.99799701171875,18.97805298828125,9.026267011718751,19.04630298828125Q9.05452701171875,19.11454298828125,9.06894701171875,19.18699298828125Q9.08335701171875,19.25944298828125,9.08335701171875,19.33331298828125Q9.08335701171875,19.40718298828125,9.06894701171875,19.47963298828125Q9.05452701171875,19.55208298828125,9.026267011718751,19.62032298828125Q8.99799701171875,19.68857298828125,8.95695701171875,19.74999298828125Q8.91591701171875,19.81141298828125,8.86368701171875,19.86364298828125Q8.81144701171875,19.91587298828125,8.75002701171875,19.95691298828125Q8.68860701171875,19.99795298828125,8.62036701171875,20.02622298828125Q8.55211701171875,20.05449298828125,8.47966701171875,20.068902988281252Q8.40722701171875,20.08331298828125,8.33335701171875,20.08331298828125L6.50001701171875,20.08331298828125Q5.42996801171875,20.08331298828125,4.67332802171875,19.32667298828125Q3.91668701171875,18.57003298828125,3.91668701171875,17.49997998828125L3.91668701171875,16.58331298828125Z" fill-rule="evenodd" fill="#231F2E" fill-opacity="1"/></g><g><path d="M15.66668701171875,3.91668701171875L17.50001701171875,3.91668701171875Q18.57007701171875,3.91668701171875,19.32671701171875,4.67332794171875Q20.08335701171875,5.42996901171875,20.08335701171875,6.50001701171875L20.08335701171875,7.41668701171875Q20.08335701171875,7.490557011718749,20.06894701171875,7.563007011718749Q20.05452701171875,7.63545701171875,20.02626701171875,7.70369701171875Q19.997997011718752,7.7719470117187495,19.95695701171875,7.8333670117187495Q19.91591701171875,7.8947870117187495,19.86368701171875,7.94701701171875Q19.811447011718748,7.99924701171875,19.75002701171875,8.04028701171875Q19.68860701171875,8.08132701171875,19.62036701171875,8.10959701171875Q19.55211701171875,8.13786701171875,19.47966701171875,8.15227701171875Q19.40722701171875,8.16668701171875,19.33335701171875,8.16668701171875Q19.25948701171875,8.16668701171875,19.18703701171875,8.15227701171875Q19.11458701171875,8.13786701171875,19.046337011718748,8.10959701171875Q18.97809701171875,8.08132701171875,18.91667701171875,8.04028701171875Q18.85525701171875,7.99924701171875,18.80302701171875,7.94701701171875Q18.75078701171875,7.8947870117187495,18.70974701171875,7.8333670117187495Q18.66871701171875,7.7719470117187495,18.64044701171875,7.70369701171875Q18.61217701171875,7.63545701171875,18.59776701171875,7.563007011718749Q18.58335701171875,7.490557011718749,18.58335701171875,7.41668701171875L18.58335701171875,6.50001701171875Q18.58335701171875,6.05128701171875,18.26605701171875,5.7339870117187495Q17.94875701171875,5.41668701171875,17.50001701171875,5.41668701171875L15.66668701171875,5.41668701171875Q15.59281851171875,5.41668701171875,15.52036901171875,5.40227601171875Q15.44792001171875,5.38786501171875,15.37967401171875,5.35959701171875Q15.31142901171875,5.33132801171875,15.25000901171875,5.29028901171875Q15.18859001171875,5.24925001171875,15.13635701171875,5.19701701171875Q15.08412401171875,5.14478401171875,15.04308501171875,5.08336501171875Q15.00204601171875,5.02194501171875,14.97377701171875,4.95370001171875Q14.94550901171875,4.88545401171875,14.931098011718749,4.81300501171875Q14.91668701171875,4.74055551171875,14.91668701171875,4.66668701171875Q14.91668701171875,4.59281851171875,14.931098011718749,4.52036901171875Q14.94550901171875,4.44792001171875,14.97377701171875,4.37967401171875Q15.00204601171875,4.31142901171875,15.04308501171875,4.25000901171875Q15.08412401171875,4.18859001171875,15.13635701171875,4.13635701171875Q15.18859001171875,4.08412401171875,15.25000901171875,4.04308501171875Q15.31142901171875,4.00204601171875,15.37967401171875,3.97377701171875Q15.44792001171875,3.94550901171875,15.52036901171875,3.93109801171875Q15.59281851171875,3.91668701171875,15.66668701171875,3.91668701171875Z" fill-rule="evenodd" fill="#231F2E" fill-opacity="1"/></g><g><path d="M20.08335701171875,16.58415871628125L20.08335701171875,17.49997998828125Q20.08335701171875,18.57003298828125,19.32671701171875,19.32667298828125Q18.57006701171875,20.08331298828125,17.50001701171875,20.08331298828125L15.66668701171875,20.08331298828125Q15.59281851171875,20.08331298828125,15.52036901171875,20.068902988281252Q15.44792001171875,20.05449298828125,15.37967401171875,20.02622298828125Q15.31142901171875,19.99795298828125,15.25000901171875,19.95691298828125Q15.18859001171875,19.91587298828125,15.13635701171875,19.86364298828125Q15.08412401171875,19.81141298828125,15.04308501171875,19.74999298828125Q15.00204601171875,19.68857298828125,14.97377701171875,19.62032298828125Q14.94550901171875,19.55208298828125,14.931098011718749,19.47963298828125Q14.91668701171875,19.40718298828125,14.91668701171875,19.33331298828125Q14.91668701171875,19.25944298828125,14.931098011718749,19.18699298828125Q14.94550901171875,19.11454298828125,14.97377701171875,19.04630298828125Q15.00204601171875,18.97805298828125,15.04308501171875,18.91663298828125Q15.08412401171875,18.85521298828125,15.13635701171875,18.80298298828125Q15.18859001171875,18.75075298828125,15.25000901171875,18.70971298828125Q15.31142901171875,18.66867298828125,15.37967401171875,18.64040298828125Q15.44792001171875,18.61213298828125,15.52036901171875,18.597722988281248Q15.59281851171875,18.58331298828125,15.66668701171875,18.58331298828125L17.50001701171875,18.58331298828125Q17.94875701171875,18.58331298828125,18.26605701171875,18.26601298828125Q18.58335701171875,17.94871298828125,18.58335701171875,17.49997998828125L18.58335701171875,16.58331298828125Q18.58335701171875,16.50944448828125,18.59776701171875,16.43699498828125Q18.61217701171875,16.36454598828125,18.64044701171875,16.29629998828125Q18.66870701171875,16.22805498828125,18.70974701171875,16.16663498828125Q18.75078701171875,16.105215988281252,18.80302701171875,16.05298298828125Q18.85525701171875,16.00074998828125,18.91667701171875,15.95971098828125Q18.97809701171875,15.91867198828125,19.046337011718748,15.89040298828125Q19.11458701171875,15.86213498828125,19.18703701171875,15.847723988281249Q19.25948701171875,15.83331298828125,19.33335701171875,15.83331298828125Q19.40722701171875,15.83331298828125,19.47966701171875,15.847723988281249Q19.55211701171875,15.86213498828125,19.62036701171875,15.89040298828125Q19.68860701171875,15.91867198828125,19.75002701171875,15.95971098828125Q19.811447011718748,16.00074998828125,19.86368701171875,16.05298298828125Q19.91591701171875,16.105215988281252,19.95695701171875,16.16663498828125Q19.997997011718752,16.22805498828125,20.02626701171875,16.29629998828125Q20.05452701171875,16.36454598828125,20.06894701171875,16.43699498828125Q20.08335701171875,16.50944448828125,20.08335701171875,16.58331298828125L20.08335701171875,16.58415871628125Z" fill-rule="evenodd" fill="#231F2E" fill-opacity="1"/></g><g><path d="M5.58331298828125,11.25L18.41661298828125,11.25Q18.49051298828125,11.25,18.56301298828125,11.264410999999999Q18.63541298828125,11.278822,18.70361298828125,11.30709Q18.77191298828125,11.335359,18.83331298828125,11.376398Q18.89471298828125,11.417437,18.94701298828125,11.46967Q18.99921298828125,11.521903,19.040212988281247,11.583322Q19.081312988281248,11.644742,19.10951298828125,11.712987Q19.13781298828125,11.781233,19.15221298828125,11.853682Q19.16661298828125,11.9261315,19.16661298828125,12Q19.16661298828125,12.0738685,19.15221298828125,12.146318Q19.13781298828125,12.218767,19.10951298828125,12.287013Q19.081312988281248,12.355258,19.040212988281247,12.416678Q18.99921298828125,12.478097,18.94701298828125,12.53033Q18.89471298828125,12.582563,18.83331298828125,12.623602Q18.77191298828125,12.664641,18.70361298828125,12.69291Q18.63541298828125,12.721178,18.562912988281248,12.735589000000001Q18.49051298828125,12.75,18.41661298828125,12.75L5.58331298828125,12.75Q5.50944448828125,12.75,5.43699498828125,12.735589000000001Q5.36454598828125,12.721178,5.29629998828125,12.69291Q5.22805498828125,12.664641,5.16663498828125,12.623602Q5.10521598828125,12.582563,5.05298298828125,12.53033Q5.00074998828125,12.478097,4.95971098828125,12.416678Q4.91867198828125,12.355258,4.89040298828125,12.287013Q4.86213498828125,12.218767,4.84772398828125,12.146318Q4.83331298828125,12.0738685,4.83331298828125,12Q4.83331298828125,11.9261315,4.84772398828125,11.853682Q4.86213498828125,11.781233,4.89040298828125,11.712987Q4.91867198828125,11.644742,4.95971098828125,11.583322Q5.00074998828125,11.521903,5.05298298828125,11.46967Q5.10521598828125,11.417437,5.16663498828125,11.376398Q5.22805498828125,11.335359,5.29629998828125,11.30709Q5.36454598828125,11.278822,5.43699498828125,11.264410999999999Q5.50944448828125,11.25,5.58331298828125,11.25Z" fill-rule="evenodd" fill="#2882FF" fill-opacity="1"/></g></g></g></svg>