<svg xmlns="http://www.w3.org/2000/svg" xmlns:xlink="http://www.w3.org/1999/xlink" fill="none" version="1.1" width="24" height="24" viewBox="0 0 24 24"><defs><clipPath id="master_svg0_63_02341"><rect x="0" y="0" width="24" height="24" rx="0"/></clipPath></defs><g clip-path="url(#master_svg0_63_02341)"><g><g><path d="M1.75,15.25L1.75,8.75L9.25,8.75L9.25,15.25L1.75,15.25ZM7.75,10.25L3.25,10.25L3.25,13.75L7.75,13.75L7.75,10.25Z" fill-rule="evenodd" fill="#736F78" fill-opacity="1"/></g><g><path d="M4,20.25L9.25,20.25L9.25,13.75L1.75,13.75L1.75,18Q1.75,18.93198,2.4090098,19.590989999999998Q3.0680199999999997,20.25,4,20.25ZM7.75,18.75L4,18.75Q3.68934,18.75,3.46967,18.53033Q3.25,18.31066,3.25,18L3.25,15.25L7.75,15.25L7.75,18.75Z" fill-rule="evenodd" fill="#736F78" fill-opacity="1"/></g><g><path d="M7.75,20.25L7.75,13.75L15.25,13.75L15.25,20.25L7.75,20.25ZM13.75,15.25L9.25,15.25L9.25,18.75L13.75,18.75L13.75,15.25Z" fill-rule="evenodd" fill="#736F78" fill-opacity="1"/></g><g><path d="M13.75,15.25L13.75,8.75L21.25,8.75L21.25,15.25L13.75,15.25ZM19.75,10.25L15.25,10.25L15.25,13.75L19.75,13.75L19.75,10.25Z" fill-rule="evenodd" fill="#736F78" fill-opacity="1"/></g><g><path d="M13.75,20.25L13.75,13.75L21.25,13.75L21.25,20.25L13.75,20.25ZM19.75,15.25L15.25,15.25L15.25,18.75L19.75,18.75L19.75,15.25Z" fill-rule="evenodd" fill="#736F78" fill-opacity="1"/></g><g><path d="M7.75,15.25L7.75,8.75L15.25,8.75L15.25,15.25L7.75,15.25ZM13.75,10.25L9.25,10.25L9.25,13.75L13.75,13.75L13.75,10.25Z" fill-rule="evenodd" fill="#736F78" fill-opacity="1"/></g></g><g><path d="M20.591,19.591Q21.25,18.932000000000002,21.25,18L21.25,6Q21.25,5.06802,20.591,4.4090098Q19.932,3.75,19,3.75L4,3.75Q3.0680199999999997,3.75,2.40901,4.4090098Q1.75,5.068019,1.75,6L1.75,18Q1.75,18.932000000000002,2.40901,19.591Q3.068019,20.25,4,20.25L19,20.25Q19.932,20.25,20.591,19.591ZM19.75,6L19.75,18Q19.75,18.75,19,18.75L4,18.75Q3.25,18.75,3.25,18L3.25,6Q3.25,5.68934,3.46967,5.46967Q3.68934,5.25,4,5.25L19,5.25Q19.3107,5.25,19.5303,5.46967Q19.75,5.68934,19.75,6Z" fill-rule="evenodd" fill="#231F2E" fill-opacity="1"/></g><g><g><path d="M21.1429820703125,18.57143Q21.1429820703125,18.69775,21.1306020703125,18.82347Q21.1182120703125,18.94919,21.0935720703125,19.07309Q21.0689220703125,19.19699,21.032252070312502,19.31787Q20.9955820703125,19.43876,20.947242070312498,19.55547Q20.8988920703125,19.67218,20.8393520703125,19.78359Q20.7798020703125,19.895,20.7096120703125,20.00004Q20.639432070312502,20.10507,20.5592920703125,20.20273Q20.4791520703125,20.30038,20.3898220703125,20.3897Q20.3005020703125,20.47903,20.2028420703125,20.55917Q20.1051920703125,20.639310000000002,20.0001620703125,20.70949Q19.8951220703125,20.77968,19.7837120703125,20.83923Q19.6723020703125,20.89877,19.5555920703125,20.947119999999998Q19.4388820703125,20.99546,19.3179920703125,21.032130000000002Q19.1971120703125,21.0688,19.0732120703125,21.09345Q18.9493120703125,21.11809,18.8235920703125,21.13048Q18.6978720703125,21.14286,18.5715520703125,21.14286Q18.4452220703125,21.14286,18.3195020703125,21.13048Q18.1937920703125,21.11809,18.0698920703125,21.09345Q17.9459920703125,21.0688,17.8251020703125,21.032130000000002Q17.7042220703125,20.99546,17.5875120703125,20.947119999999998Q17.4708020703125,20.89877,17.3593920703125,20.83923Q17.2479820703125,20.77968,17.1429420703125,20.70949Q17.0379020703125,20.639310000000002,16.9402530703125,20.55917Q16.8426020703125,20.47903,16.7532760703125,20.3897Q16.6639500703125,20.30038,16.5838090703125,20.20272Q16.5036690703125,20.10507,16.4334860703125,20.00004Q16.3633030703125,19.895,16.3037530703125,19.78359Q16.2442030703125,19.67218,16.1958600703125,19.55547Q16.1475170703125,19.43876,16.1108470703125,19.31787Q16.0741763703125,19.19699,16.0495313703125,19.07309Q16.0248863703125,18.94919,16.0125041703125,18.82347Q16.0001220703125,18.69775,16.0001220703125,18.57143Q16.0001220703125,18.4451,16.0125041703125,18.31938Q16.0248863703125,18.19367,16.0495313703125,18.06977Q16.0741763703125,17.94587,16.1108470703125,17.82498Q16.1475170703125,17.7041,16.1958600703125,17.58739Q16.2442030703125,17.47068,16.3037530703125,17.35927Q16.3633030703125,17.24786,16.4334860703125,17.14282Q16.5036690703125,17.03778,16.5838090703125,16.940131Q16.6639500703125,16.84248,16.7532760703125,16.753154Q16.8426020703125,16.663828,16.9402530703125,16.583687Q17.0379020703125,16.503547,17.1429420703125,16.433364Q17.2479820703125,16.363181,17.3593920703125,16.303631Q17.4708020703125,16.244081,17.5875120703125,16.195738Q17.7042220703125,16.147395,17.8251020703125,16.110725Q17.9459920703125,16.0740543,18.0698920703125,16.0494093Q18.1937920703125,16.0247643,18.3195020703125,16.0123821Q18.4452220703125,16,18.5715520703125,16Q18.6978720703125,16,18.8235920703125,16.0123821Q18.9493120703125,16.0247643,19.0732120703125,16.0494093Q19.1971120703125,16.0740543,19.3179920703125,16.110725Q19.4388820703125,16.147395,19.5555920703125,16.195738Q19.6723020703125,16.244081,19.7837120703125,16.303631Q19.8951220703125,16.363181,20.0001620703125,16.433364Q20.1051920703125,16.503547,20.2028520703125,16.583687Q20.3005020703125,16.663828,20.3898220703125,16.753154Q20.4791520703125,16.84248,20.5592920703125,16.940131Q20.639432070312502,17.03778,20.7096120703125,17.14282Q20.7798020703125,17.24786,20.8393520703125,17.35927Q20.8988920703125,17.47068,20.947242070312498,17.58739Q20.9955820703125,17.7041,21.032252070312502,17.82498Q21.0689220703125,17.94587,21.0935720703125,18.06977Q21.1182120703125,18.19367,21.1306020703125,18.31938Q21.1429820703125,18.4451,21.1429820703125,18.57143Z" fill="#FFFFFF" fill-opacity="1"/><path d="M21.6272620703125,15.515717Q20.3615420703125,14.25,18.5715520703125,14.25Q16.7815560703125,14.25,15.5158390703125,15.515717Q14.2501220703125,16.781434,14.2501220703125,18.57143Q14.2501220703125,20.36142,15.5158390703125,21.62714Q16.7815560703125,22.89286,18.5715520703125,22.89286Q20.3615420703125,22.89286,21.6272620703125,21.62714Q22.8929820703125,20.36142,22.8929820703125,18.57143Q22.8929820703125,16.781434,21.6272620703125,15.515717ZM17.9907120703125,17.99059Q18.231302070312502,17.75,18.5715520703125,17.75Q18.9118020703125,17.75,19.1523920703125,17.99059Q19.3929820703125,18.231180000000002,19.3929820703125,18.57143Q19.3929820703125,18.91168,19.1523920703125,19.15227Q18.9118020703125,19.39286,18.5715520703125,19.39286Q18.231302070312502,19.39286,17.9907120703125,19.15227Q17.7501220703125,18.91168,17.7501220703125,18.57143Q17.7501220703125,18.231180000000002,17.9907120703125,17.99059Z" fill-rule="evenodd" fill="#FFFFFF" fill-opacity="1" style="mix-blend-mode:passthrough"/></g><g><path d="M19.2201933203125,21.6950633203125L19.2197133203125,21.6945933203125Q19.0978433203125,21.5727133203125,19.0020833203125,21.4294013203125Q18.9063233203125,21.2860893203125,18.8403633203125,21.1268493203125Q18.7744033203125,20.9676093203125,18.7407833203125,20.7985613203125Q18.7071533203125,20.6295133203125,18.7071533203125,20.4571533203125Q18.7071533203125,20.3711813203125,18.7155833203125,20.2856233203125Q18.7240033203125,20.2000653203125,18.7407833203125,20.1157453203125Q18.7575533203125,20.0314253203125,18.7825033203125,19.9491553203125Q18.8074633203125,19.866885320312498,18.8403633203125,19.7874573203125Q18.8732633203125,19.7080293203125,18.9137933203125,19.6322093203125Q18.9543133203125,19.5563883203125,19.0020833203125,19.4849053203125Q19.0498433203125,19.4134233203125,19.1043833203125,19.3469633203125Q19.1589233203125,19.2805033203125,19.2197133203125,19.2197133203125Q19.2805033203125,19.1589233203125,19.3469633203125,19.1043833203125Q19.4134233203125,19.0498433203125,19.4849053203125,19.0020833203125Q19.5563883203125,18.9543133203125,19.6322093203125,18.9137933203125Q19.7080293203125,18.8732633203125,19.7874573203125,18.8403633203125Q19.866885320312498,18.8074633203125,19.9491553203125,18.7825033203125Q20.0314253203125,18.7575533203125,20.1157453203125,18.7407833203125Q20.2000653203125,18.7240033203125,20.2856233203125,18.7155833203125Q20.3711813203125,18.7071533203125,20.4571533203125,18.7071533203125Q20.6295133203125,18.7071533203125,20.7985613203125,18.7407833203125Q20.9676093203125,18.7744033203125,21.1268493203125,18.8403633203125Q21.2860893203125,18.9063233203125,21.4294013203125,19.0020833203125Q21.5727133203125,19.0978433203125,21.6945933203125,19.2197133203125L21.6950633203125,19.2201933203125L23.2371633203125,20.7622893203125L23.2374433203125,20.7625733203125Q23.359323320312498,20.8844493203125,23.4550833203125,21.0277613203125Q23.5508433203125,21.1710743203125,23.6168033203125,21.3303133203125Q23.6827533203125,21.4895533203125,23.7163833203125,21.6586033203125Q23.7500133203125,21.8276533203125,23.7500133203125,22.0000133203125Q23.7500133203125,22.0859833203125,23.7415833203125,22.1715433203125Q23.7331533203125,22.2570933203125,23.7163833203125,22.3414133203125Q23.6996133203125,22.4257333203125,23.6746533203125,22.5080033203125Q23.6497033203125,22.590273320312498,23.6168033203125,22.6697033203125Q23.5839033203125,22.7491333203125,23.5433733203125,22.8249533203125Q23.5028433203125,22.9007733203125,23.4550833203125,22.9722533203125Q23.4073133203125,23.0437433203125,23.3527733203125,23.1101933203125Q23.298233320312498,23.1766533203125,23.2374433203125,23.2374433203125Q23.1766533203125,23.298233320312498,23.1101933203125,23.3527733203125Q23.0437433203125,23.4073133203125,22.9722533203125,23.4550833203125Q22.9007733203125,23.5028433203125,22.8249533203125,23.5433733203125Q22.7491333203125,23.5839033203125,22.6697033203125,23.6168033203125Q22.590273320312498,23.6497033203125,22.5080033203125,23.6746533203125Q22.4257333203125,23.6996133203125,22.3414133203125,23.7163833203125Q22.2570933203125,23.7331533203125,22.1715433203125,23.7415833203125Q22.0859833203125,23.7500133203125,22.0000133203125,23.7500133203125Q21.8276533203125,23.7500133203125,21.6586033203125,23.7163833203125Q21.4895533203125,23.6827533203125,21.3303133203125,23.6168033203125Q21.1710743203125,23.5508433203125,21.0277613203125,23.4550833203125Q20.8844493203125,23.359323320312498,20.7625733203125,23.2374433203125L20.7622893203125,23.2371633203125L19.2201933203125,21.6950633203125Z" fill-rule="evenodd" fill="#FFFFFF" fill-opacity="1" style="mix-blend-mode:passthrough"/></g></g><g><g><path d="M20.9201520703125,16.222824Q19.9473320703125,15.25,18.5715520703125,15.25Q17.1957720703125,15.25,16.2229460703125,16.222824Q15.2501220703125,17.19565,15.2501220703125,18.57143Q15.2501220703125,19.94721,16.2229460703125,20.92003Q17.1957720703125,21.89286,18.5715520703125,21.89286Q19.9473320703125,21.89286,20.9201520703125,20.92003Q21.8929820703125,19.94721,21.8929820703125,18.57143Q21.8929820703125,17.19565,20.9201520703125,16.222824ZM17.2836020703125,17.28348Q17.8170920703125,16.75,18.5715520703125,16.75Q19.3260120703125,16.75,19.8594920703125,17.28348Q20.3929820703125,17.81697,20.3929820703125,18.57143Q20.3929820703125,19.32589,19.8594920703125,19.85937Q19.3260120703125,20.39286,18.5715520703125,20.39286Q17.8170920703125,20.39286,17.2836020703125,19.85937Q16.7501220703125,19.32589,16.7501220703125,18.57143Q16.7501220703125,17.81697,17.2836020703125,17.28348Z" fill-rule="evenodd" fill="#3862BE" fill-opacity="1" style="mix-blend-mode:passthrough"/></g><g><path d="M20.9876373203125,19.9269773203125L22.5301833203125,21.4695233203125L22.5303433203125,21.469683320312498Q22.6358333203125,21.5751733203125,22.6929233203125,21.7129933203125Q22.7500133203125,21.8508233203125,22.7500133203125,22.0000133203125Q22.7500133203125,22.0738733203125,22.7356033203125,22.1463233203125Q22.721183320312498,22.2187733203125,22.6929233203125,22.2870233203125Q22.6646533203125,22.3552633203125,22.6236133203125,22.4166833203125Q22.5825733203125,22.4781033203125,22.5303433203125,22.5303433203125Q22.4781033203125,22.5825733203125,22.4166833203125,22.6236133203125Q22.3552633203125,22.6646533203125,22.2870233203125,22.6929233203125Q22.2187733203125,22.721183320312498,22.1463233203125,22.7356033203125Q22.0738733203125,22.7500133203125,22.0000133203125,22.7500133203125Q21.8508233203125,22.7500133203125,21.7129933203125,22.6929233203125Q21.5751733203125,22.6358333203125,21.469683320312498,22.5303433203125L21.4695233203125,22.5301833203125L19.9269773203125,20.9876373203125L19.9268233203125,20.9874833203125Q19.8213343203125,20.8819943203125,19.7642433203125,20.7441663203125Q19.7071533203125,20.6063373203125,19.7071533203125,20.4571533203125Q19.7071533203125,20.3832848203125,19.7215643203125,20.3108353203125Q19.7359753203125,20.2383863203125,19.7642433203125,20.1701403203125Q19.7925123203125,20.1018953203125,19.833551320312502,20.0404753203125Q19.8745903203125,19.979056320312502,19.9268233203125,19.9268233203125Q19.979056320312502,19.8745903203125,20.0404753203125,19.833551320312502Q20.1018953203125,19.7925123203125,20.1701403203125,19.7642433203125Q20.2383863203125,19.7359753203125,20.3108353203125,19.7215643203125Q20.3832848203125,19.7071533203125,20.4571533203125,19.7071533203125Q20.6063373203125,19.7071533203125,20.7441663203125,19.7642433203125Q20.8819943203125,19.8213343203125,20.9874833203125,19.9268233203125L20.9876373203125,19.9269773203125Z" fill-rule="evenodd" fill="#3862BE" fill-opacity="1" style="mix-blend-mode:passthrough"/></g></g></g></svg>