<svg xmlns="http://www.w3.org/2000/svg" xmlns:xlink="http://www.w3.org/1999/xlink" fill="none" version="1.1" width="24" height="24" viewBox="0 0 24 24"><defs><clipPath id="master_svg0_72_02185"><rect x="0" y="0" width="24" height="24" rx="0"/></clipPath></defs><g clip-path="url(#master_svg0_72_02185)"><g><g><g><path d="M21.249997966308594,8Q21.249997966308594,7.9261315,21.264407966308593,7.853682Q21.278817966308594,7.781233,21.307087966308593,7.712987Q21.335357966308592,7.644742,21.376397966308595,7.583322Q21.417437966308594,7.521903,21.469667966308595,7.46967Q21.521907966308593,7.417437,21.583327966308595,7.376398Q21.644737966308593,7.335359,21.712987966308592,7.30709Q21.781237966308595,7.278822,21.853677966308595,7.264411Q21.926127966308595,7.25,21.999997966308594,7.25Q22.073867966308594,7.25,22.146317966308594,7.264411Q22.218767966308594,7.278822,22.287017966308593,7.30709Q22.355257966308592,7.335359,22.416677966308594,7.376398Q22.478097966308592,7.417437,22.530327966308594,7.46967Q22.582567966308595,7.521903,22.623597966308594,7.583322Q22.664637966308593,7.644742,22.692907966308596,7.712987Q22.721177966308595,7.781233,22.735587966308593,7.853682Q22.749997966308594,7.9261315,22.749997966308594,8L22.749997966308594,16Q22.749997966308594,16.07387,22.735587966308593,16.14632Q22.721177966308595,16.21877,22.692907966308596,16.287010000000002Q22.664637966308593,16.35526,22.623597966308594,16.41668Q22.582567966308595,16.478099999999998,22.530327966308594,16.53033Q22.478097966308592,16.58256,22.416677966308594,16.6236Q22.355257966308592,16.66464,22.287017966308593,16.692909999999998Q22.218767966308594,16.72118,22.146317966308594,16.735590000000002Q22.073867966308594,16.75,21.999997966308594,16.75Q21.941657966308593,16.75,21.884007966308594,16.74098Q21.826357966308592,16.731949999999998,21.770807966308595,16.71412Q21.715247966308596,16.696289999999998,21.663117966308594,16.67008Q21.610987966308592,16.64388,21.563537966308594,16.609920000000002Q21.516087966308593,16.575969999999998,21.474467966308595,16.53508Q21.432837966308593,16.4942,21.398027966308593,16.44736Q21.363227966308592,16.40053,21.336087966308593,16.34888Q21.308947966308594,16.29723,21.290117966308593,16.24201L20.022727966308594,12.524329999999999L20.022727966308594,16Q20.022727966308594,16.07387,20.008316966308595,16.14632Q19.993905966308592,16.21877,19.965637966308595,16.287010000000002Q19.937368966308593,16.35526,19.896329966308592,16.41668Q19.855290966308594,16.478099999999998,19.803057966308593,16.53033Q19.750824966308592,16.58256,19.689405966308595,16.6236Q19.627985966308593,16.66464,19.559740966308595,16.692909999999998Q19.491494966308593,16.72118,19.419045966308595,16.735590000000002Q19.346596466308593,16.75,19.272727966308594,16.75Q19.198859466308594,16.75,19.126409966308593,16.735590000000002Q19.053960966308594,16.72118,18.985714966308592,16.692909999999998Q18.917469966308595,16.66464,18.856049966308593,16.6236Q18.794630966308596,16.58256,18.742397966308594,16.53033Q18.690164966308593,16.478099999999998,18.649125966308596,16.41668Q18.608086966308594,16.35526,18.579817966308593,16.287010000000002Q18.551549966308595,16.21877,18.537138966308593,16.14632Q18.522727966308594,16.07387,18.522727966308594,16L18.522727966308594,8Q18.522727966308594,7.9416526,18.531751966308594,7.884007Q18.540775966308594,7.826362,18.558605966308594,7.770805Q18.576436966308595,7.715249,18.602644966308596,7.663119Q18.628852966308592,7.610989,18.662807966308595,7.5635390000000005Q18.696762966308594,7.51609,18.737648966308594,7.474462Q18.778533966308594,7.432835,18.825364966308594,7.398032Q18.872195966308595,7.363228,18.923845966308594,7.336086Q18.975495966308593,7.308945,19.030722966308595,7.290117Q19.100639966308595,7.266282,19.173863866308594,7.256545Q19.247087766308592,7.246807,19.320804366308593,7.251543Q19.394520966308594,7.256278,19.465896966308595,7.275303Q19.537273966308593,7.294329,19.603566966308595,7.326914Q19.669859966308593,7.359498,19.728522966308592,7.40439Q19.787184966308594,7.449282,19.835962966308593,7.504756Q19.884739966308594,7.56023,19.921756966308592,7.624153Q19.958774966308592,7.688077,19.982610966308595,7.757995L21.249997966308594,11.475670000000001L21.249997966308594,8Z" fill-rule="evenodd" fill="#231F2E" fill-opacity="1"/></g><g><path d="M12.886668995788574,8.0812818Q12.159090995788574,8.881618,12.159090995788574,10L12.159090995788574,14Q12.159090995788574,15.11838,12.886669195788574,15.91872Q13.642378995788574,16.75,14.727270995788574,16.75Q15.812160995788574,16.75,16.567880995788574,15.91872Q17.295450995788574,15.11838,17.295450995788574,14L17.295450995788574,10Q17.295450995788574,8.881617,16.567880995788574,8.0812819Q15.812160995788574,7.25,14.727270995788574,7.25Q13.642379995788573,7.25,12.886668995788574,8.0812818ZM13.659090995788574,14L13.659090995788574,10Q13.659090995788574,9.46153,13.996580995788575,9.09029Q14.305930995788575,8.75,14.727270995788574,8.75Q15.148610995788575,8.75,15.457970995788575,9.09029Q15.795450995788574,9.46153,15.795450995788574,10L15.795450995788574,14Q15.795450995788574,14.53847,15.457970995788575,14.90971Q15.148610995788575,15.25,14.727270995788574,15.25Q14.305930995788575,15.25,13.996580995788575,14.90971Q13.659090995788574,14.53847,13.659090995788574,14Z" fill-rule="evenodd" fill="#231F2E" fill-opacity="1"/></g><g><path d="M2.75,14.5L2.75,14Q2.75,13.92613,2.735589,13.85368Q2.721178,13.78123,2.69291,13.71299Q2.664641,13.644739999999999,2.623602,13.58332Q2.582563,13.521899999999999,2.53033,13.46967Q2.478097,13.41744,2.416678,13.3764Q2.355258,13.33536,2.287013,13.307089999999999Q2.218767,13.27882,2.146318,13.26441Q2.0738685,13.25,2,13.25Q1.9261314999999999,13.25,1.853682,13.26441Q1.781233,13.27882,1.712987,13.307089999999999Q1.644742,13.33536,1.583322,13.3764Q1.521903,13.41744,1.46967,13.46967Q1.417437,13.521899999999999,1.376398,13.58332Q1.335359,13.644739999999999,1.30709,13.71299Q1.278822,13.78123,1.264411,13.85368Q1.25,13.92613,1.25,14L1.25,14.5Q1.25,15.41128,1.844445,16.065170000000002Q2.467022,16.75,3.36364,16.75Q4.26025,16.75,4.88283,16.06516Q5.47727,15.41128,5.47727,14.5L5.47727,8Q5.47727,7.9261315,5.46286,7.853682Q5.448449999999999,7.781233,5.42018,7.712987Q5.39191,7.644742,5.3508700000000005,7.583322Q5.3098399999999994,7.521903,5.2576,7.46967Q5.20537,7.417437,5.14395,7.376398Q5.08253,7.335359,5.01429,7.30709Q4.94604,7.278822,4.87359,7.264411Q4.80114,7.25,4.72727,7.25L2,7.25Q1.9261314999999999,7.25,1.853682,7.264411Q1.781233,7.278822,1.712987,7.30709Q1.644742,7.335359,1.583322,7.376398Q1.521903,7.417437,1.46967,7.46967Q1.417437,7.521903,1.376398,7.583322Q1.335359,7.644742,1.30709,7.712987Q1.278822,7.781233,1.264411,7.853682Q1.25,7.9261315,1.25,8Q1.25,8.0738685,1.264411,8.146318Q1.278822,8.218767,1.30709,8.287013Q1.335359,8.355258,1.376398,8.416678Q1.417437,8.478097,1.46967,8.53033Q1.521903,8.582563,1.583322,8.623602Q1.644742,8.664641,1.712987,8.69291Q1.781233,8.721178,1.853682,8.735589000000001Q1.9261314999999999,8.75,2,8.75L3.97727,8.75L3.97727,14.5Q3.97727,14.83137,3.77292,15.05616Q3.5967000000000002,15.25,3.36364,15.25Q3.13058,15.25,2.954355,15.05616Q2.75,14.83136,2.75,14.5Z" fill-rule="evenodd" fill="#231F2E" fill-opacity="1"/></g><g><path d="M9.360595497894288,8.797398Q9.431815497894288,8.875741,9.431815497894288,9Q9.431815497894288,9.07387,9.446225497894288,9.14632Q9.460635497894287,9.21877,9.488905497894287,9.28701Q9.517175497894288,9.35526,9.558215497894288,9.41668Q9.599255497894287,9.4781,9.651485497894287,9.53033Q9.703725497894286,9.58256,9.765145497894288,9.6236Q9.826555497894287,9.66464,9.894805497894287,9.69291Q9.963055497894286,9.72118,10.035495497894287,9.73559Q10.107945497894287,9.75,10.181815497894288,9.75Q10.255685497894287,9.75,10.328135497894287,9.73559Q10.400585497894287,9.72118,10.468835497894286,9.69291Q10.537075497894287,9.66464,10.598495497894287,9.6236Q10.659915497894287,9.58256,10.712145497894287,9.53033Q10.764385497894287,9.4781,10.805415497894288,9.41668Q10.846455497894286,9.35526,10.874725497894287,9.28701Q10.902995497894286,9.21877,10.917405497894286,9.14632Q10.931815497894288,9.07387,10.931815497894288,9Q10.931815497894288,8.295831,10.470505497894287,7.788388Q9.981065497894287,7.25,9.272725497894287,7.25L8.363636497894287,7.25Q7.655301497894287,7.25,7.1658574978942875,7.788388Q6.704545497894287,8.295831,6.704545497894287,9L6.704545497894287,11Q6.704545497894287,11.70417,7.1658574978942875,12.21161Q7.655301497894287,12.75,8.363636497894287,12.75L9.272725497894287,12.75Q9.317505497894286,12.75,9.360595497894288,12.7974Q9.431815497894288,12.87574,9.431815497894288,13L9.431815497894288,15Q9.431815497894288,15.12426,9.360595497894288,15.2026Q9.317505497894286,15.25,9.272725497894287,15.25L8.363636497894287,15.25Q8.318855497894287,15.25,8.275767497894288,15.2026Q8.204545497894287,15.12426,8.204545497894287,15Q8.204545497894287,14.92613,8.190134497894288,14.85368Q8.175723497894287,14.78123,8.147455497894287,14.71299Q8.119186497894287,14.644739999999999,8.078147497894287,14.58332Q8.037108497894287,14.521899999999999,7.984875497894287,14.46967Q7.932642497894287,14.41744,7.871223497894287,14.3764Q7.809803497894287,14.33536,7.741558497894287,14.307089999999999Q7.673312497894287,14.27882,7.600863497894287,14.26441Q7.528413997894287,14.25,7.454545497894287,14.25Q7.380676997894287,14.25,7.308227497894287,14.26441Q7.235778497894287,14.27882,7.167532497894287,14.307089999999999Q7.099287497894287,14.33536,7.037867497894287,14.3764Q6.976448497894287,14.41744,6.924215497894287,14.46967Q6.871982497894287,14.521899999999999,6.830943497894287,14.58332Q6.7899044978942875,14.644739999999999,6.761635497894287,14.71299Q6.733367497894287,14.78123,6.718956497894287,14.85368Q6.704545497894287,14.92613,6.704545497894287,15Q6.704545497894287,15.704170000000001,7.1658574978942875,16.21161Q7.655301497894287,16.75,8.363636497894287,16.75L9.272725497894287,16.75Q9.981065497894287,16.75,10.470505497894287,16.21161Q10.931815497894288,15.704170000000001,10.931815497894288,15L10.931815497894288,13Q10.931815497894288,12.295829999999999,10.470505497894287,11.78839Q9.981065497894287,11.25,9.272725497894287,11.25L8.363636497894287,11.25Q8.318856497894288,11.25,8.275767497894288,11.2026Q8.204545497894287,11.12426,8.204545497894287,11L8.204545497894287,9Q8.204545497894287,8.875741,8.275767497894288,8.797398Q8.318855497894287,8.75,8.363636497894287,8.75L9.272725497894287,8.75Q9.317505497894286,8.75,9.360595497894288,8.797398Z" fill-rule="evenodd" fill="#231F2E" fill-opacity="1"/></g></g><g><g><g><ellipse cx="18.75" cy="18.75" rx="4.75" ry="4.75" fill="#FFFFFF" fill-opacity="1"/></g></g><g><path d="M18.0127,19.80859Q17.96582,19.8418,17.8457,19.89941Q17.72559,19.95703,17.51465,20.00195Q17.30371,20.04688,16.98535,20.04688Q16.55762,20.04688,16.248047,19.90527Q15.938477,19.76367,15.772461,19.44629Q15.606445,19.12891,15.606445,18.60547Q15.606445,17.9082,15.963867,17.53027Q16.32129,17.15234,16.95996,17.15234Q17.26465,17.15234,17.44629,17.21094Q17.62793,17.26953,17.72168,17.34766Q17.81543,17.42578,17.85254,17.48438Q17.86621,17.50586,17.87207,17.52246Q17.87793,17.53906,17.87988,17.57422Q17.88574,17.62109,17.88281,17.71094Q17.87988,17.80078,17.86816,17.86914Q17.86035,17.91211,17.84277,17.92578Q17.83496,17.93359,17.81543,17.93945Q17.7959,17.94531,17.75684,17.94531Q17.69434,17.94531,17.61133,17.94043Q17.52832,17.93555,17.48926,17.92969Q17.44238,17.92188,17.42188,17.90723Q17.40137,17.89258,17.37793,17.86133Q17.35449,17.83008,17.31348,17.78809Q17.27246,17.74609,17.18945,17.71289Q17.10645,17.67969,16.95996,17.67969Q16.6377,17.67969,16.4541,17.91309Q16.27051,18.14648,16.27051,18.58398Q16.27051,19.04297,16.46094,19.28125Q16.65137,19.51953,17.00879,19.51953Q17.18848,19.51953,17.27344,19.49316Q17.3584,19.4668,17.38184,19.45312L17.38184,18.8457Q17.38184,18.78906,17.40137,18.75977Q17.48926,18.63086,17.64746,18.48828Q17.67676,18.46484,17.69824,18.46484Q17.72168,18.46484,17.74707,18.48828Q17.83301,18.5625,17.8916,18.62988Q17.9502,18.69727,17.99316,18.75977Q18.0127,18.79102,18.0127,18.8457L18.0127,19.80859ZM19.47168,20.04883Q19.1416,20.04883,18.89746,19.94238Q18.65332,19.83594,18.51855,19.61133Q18.38379,19.38672,18.38379,19.03125Q18.38379,18.49805,18.65723,18.22461Q18.93066,17.95117,19.38379,17.95117Q19.67871,17.95117,19.88281,18.05664Q20.08691,18.16211,20.19336,18.34766Q20.2998,18.5332,20.2998,18.77148Q20.2998,19.00391,20.18066,19.0957Q20.06152,19.1875,19.83301,19.1875L18.99512,19.1875Q19.01074,19.38867,19.14258,19.49414Q19.27441,19.59961,19.50098,19.59961Q19.68066,19.59961,19.78906,19.5459Q19.89746,19.49219,19.94043,19.46094Q19.97754,19.43359,20.02441,19.43555Q20.06152,19.43555,20.13086,19.4502Q20.2002,19.46484,20.26855,19.50391Q20.31738,19.5293,20.31738,19.57422Q20.31738,19.59961,20.30762,19.64648Q20.30176,19.67383,20.28809,19.72559Q20.27441,19.77734,20.25293,19.82227Q20.24121,19.84375,20.21582,19.86328Q20.17676,19.89062,20.08984,19.93555Q20.00293,19.98047,19.85254,20.01465Q19.70215,20.04883,19.47168,20.04883ZM18.99121,18.78711L19.62793,18.78711Q19.72754,18.78711,19.72754,18.69531Q19.72754,18.55664,19.64062,18.46191Q19.55371,18.36719,19.37988,18.36719Q19.19043,18.36719,19.10156,18.48828Q19.0127,18.60938,18.99121,18.78711ZM21.50098,20.04883Q20.84863,20.04883,20.84863,19.37109L20.84863,18.45508L20.62793,18.45508Q20.56934,18.45508,20.54688,18.43066Q20.52441,18.40625,20.52441,18.34766L20.52441,18.10742Q20.52441,18.04883,20.54688,18.02441Q20.56934,18,20.62793,18L20.84863,18L20.84863,17.68555Q20.84863,17.63867,20.86816,17.61328Q20.9502,17.50586,21.1084,17.38086Q21.13574,17.36133,21.15723,17.36133Q21.18066,17.36133,21.2041,17.38086Q21.28809,17.44531,21.3457,17.50195Q21.40332,17.55859,21.44434,17.61328Q21.46387,17.63867,21.46387,17.68555L21.46387,18L21.80957,18Q21.86816,18,21.89062,18.02441Q21.91309,18.04883,21.91309,18.10742L21.91309,18.34766Q21.91309,18.40625,21.89062,18.43066Q21.86816,18.45508,21.80957,18.45508L21.46387,18.45508L21.46387,19.26367Q21.46387,19.57617,21.69043,19.57617Q21.72559,19.57617,21.75488,19.56934Q21.78418,19.5625,21.80566,19.55469Q21.84668,19.53906,21.86328,19.54297Q21.87988,19.54688,21.89355,19.58594L22.00684,19.88867Q22.02441,19.9375,21.9834,19.95898Q21.9541,19.97266,21.8418,20.01074Q21.72949,20.04883,21.50098,20.04883Z" fill="#22C55E" fill-opacity="1"/></g></g></g></g></svg>