<svg xmlns="http://www.w3.org/2000/svg" xmlns:xlink="http://www.w3.org/1999/xlink" fill="none" version="1.1" width="24" height="24" viewBox="0 0 24 24"><defs><clipPath id="master_svg0_62_01337"><rect x="0" y="0" width="24" height="24" rx="0"/></clipPath></defs><g clip-path="url(#master_svg0_62_01337)"><g><path d="M13.25,3Q13.25,2.9261315,13.264410999999999,2.853682Q13.278822,2.781233,13.30709,2.712987Q13.335359,2.644742,13.376398,2.583322Q13.417437,2.521903,13.46967,2.46967Q13.521903,2.417437,13.583322,2.376398Q13.644742,2.335359,13.712987,2.30709Q13.781233,2.278822,13.853682,2.264411Q13.9261315,2.25,14,2.25Q14.0738685,2.25,14.146318,2.264411Q14.218767,2.278822,14.287013,2.30709Q14.355258,2.335359,14.416678,2.376398Q14.478097,2.417437,14.53033,2.46967Q14.582563,2.521903,14.623602,2.583322Q14.664641,2.644742,14.69291,2.712987Q14.721178,2.781233,14.735589000000001,2.853682Q14.75,2.9261315,14.75,3L14.75,7Q14.75,7.10355,14.823223,7.17678Q14.896447,7.25,15,7.25L19,7.25Q19.07387,7.25,19.14632,7.26441Q19.21877,7.27882,19.287010000000002,7.30709Q19.35526,7.33536,19.41668,7.3764Q19.4781,7.41744,19.53033,7.46967Q19.58256,7.5219,19.6236,7.58332Q19.66464,7.64474,19.69291,7.71299Q19.72118,7.78123,19.735590000000002,7.85368Q19.75,7.92613,19.75,8Q19.75,8.07387,19.735590000000002,8.14632Q19.72118,8.21877,19.69291,8.28701Q19.66464,8.355260000000001,19.6236,8.41668Q19.58256,8.478100000000001,19.53033,8.53033Q19.4781,8.58256,19.41668,8.6236Q19.35526,8.66464,19.287010000000002,8.692910000000001Q19.21877,8.72118,19.14632,8.73559Q19.07387,8.75,19,8.75L15,8.75Q14.275126,8.75,13.762563,8.23744Q13.25,7.72487,13.25,7L13.25,3Z" fill-rule="evenodd" fill="#231F2E" fill-opacity="1"/></g><g><path d="M18.25,8.31066L18.25,12.5Q18.25,12.57387,18.264400000000002,12.64632Q18.2788,12.71877,18.3071,12.78701Q18.3354,12.85526,18.3764,12.91668Q18.4174,12.9781,18.4697,13.0303Q18.521900000000002,13.0826,18.5833,13.1236Q18.6447,13.1646,18.713,13.1929Q18.7812,13.2212,18.8537,13.2356Q18.926099999999998,13.25,19,13.25Q19.073900000000002,13.25,19.1463,13.2356Q19.2188,13.2212,19.287,13.1929Q19.3553,13.1646,19.4167,13.1236Q19.478099999999998,13.0826,19.5303,13.0303Q19.5826,12.9781,19.6236,12.91668Q19.6646,12.85526,19.6929,12.78701Q19.7212,12.71877,19.735599999999998,12.64632Q19.75,12.57387,19.75,12.5L19.75,12.4988L19.75,8Q19.75,7.85082,19.6929,7.71299Q19.6358,7.57516,19.5303,7.46967L14.53033,2.46967Q14.42484,2.364181,14.28701,2.30709Q14.14919,2.25,14,2.25L7,2.25Q5.860913,2.25,5.0554564,3.0554564Q4.25,3.860913,4.25,5L4.25,19Q4.25,20.1391,5.0554563,20.9445Q5.860912,21.75,7,21.75L12,21.75Q12.07387,21.75,12.14632,21.7356Q12.21877,21.7212,12.28701,21.6929Q12.355260000000001,21.6646,12.41668,21.6236Q12.478100000000001,21.5826,12.53033,21.5303Q12.58256,21.4781,12.6236,21.4167Q12.66464,21.3553,12.692910000000001,21.287Q12.72118,21.2188,12.73559,21.1463Q12.75,21.0739,12.75,21Q12.75,20.9261,12.73559,20.8537Q12.72118,20.7812,12.692910000000001,20.713Q12.66464,20.6447,12.6236,20.5833Q12.58256,20.5219,12.53033,20.4697Q12.478100000000001,20.4174,12.41668,20.3764Q12.355260000000001,20.3354,12.28701,20.3071Q12.21877,20.2788,12.14632,20.2644Q12.07387,20.25,12,20.25L7,20.25Q6.4822299999999995,20.25,6.1161200000000004,19.8839Q5.75,19.5178,5.75,19L5.75,5Q5.75,4.4822299999999995,6.1161200000000004,4.1161200000000004Q6.4822299999999995,3.75,7,3.75L13.68934,3.75L18.25,8.31066Z" fill-rule="evenodd" fill="#231F2E" fill-opacity="1"/></g><g><path d="M9.414348,12.468521Q9.334557,12.368783,9.292279,12.248255Q9.25,12.127728,9.25,12Q9.25,11.9261315,9.264410999999999,11.853682Q9.278822,11.781233,9.30709,11.712987Q9.335359,11.644742,9.376398,11.583322Q9.417437,11.521903,9.46967,11.46967Q9.521903,11.417437,9.583322,11.376398Q9.644742,11.335359,9.712987,11.30709Q9.781233,11.278822,9.853682,11.264410999999999Q9.9261315,11.25,10,11.25Q10.0843583,11.25,10.166609,11.26874Q10.248859,11.287479,10.324892,11.324023Q10.400924,11.360566,10.466939,11.413086Q10.532953,11.465606,10.585652,11.531479L14.58526,16.53099L14.585650000000001,16.531480000000002Q14.66544,16.63122,14.70772,16.75175Q14.75,16.87227,14.75,17Q14.75,17.07387,14.73559,17.14632Q14.72118,17.21877,14.692910000000001,17.287010000000002Q14.66464,17.35526,14.6236,17.41668Q14.58256,17.4781,14.53033,17.53033Q14.478100000000001,17.58256,14.41668,17.6236Q14.355260000000001,17.66464,14.28701,17.69291Q14.21877,17.72118,14.14632,17.735590000000002Q14.07387,17.75,14,17.75Q13.91564,17.75,13.83339,17.73126Q13.75114,17.712519999999998,13.67511,17.67598Q13.59908,17.63943,13.533059999999999,17.58691Q13.46705,17.534390000000002,13.41435,17.468519999999998L13.41413,17.46825L9.414348,12.468521L9.414348,12.468521Z" fill-rule="evenodd" fill="#13943C" fill-opacity="1" style="mix-blend-mode:passthrough"/></g><g><path d="M14.585650000000001,12.468521Q14.66544,12.368783,14.70772,12.248255Q14.75,12.127728,14.75,12Q14.75,11.9261315,14.73559,11.853682Q14.72118,11.781233,14.692910000000001,11.712987Q14.66464,11.644742,14.6236,11.583322Q14.58256,11.521903,14.53033,11.46967Q14.478100000000001,11.417437,14.41668,11.376398Q14.355260000000001,11.335359,14.28701,11.30709Q14.21877,11.278822,14.14632,11.264410999999999Q14.07387,11.25,14,11.25Q13.91564,11.25,13.83339,11.26874Q13.75114,11.287479,13.67511,11.324023Q13.59908,11.360566,13.533059999999999,11.413086Q13.46705,11.465606,13.41435,11.531479L9.414565,16.53121L9.414348,16.531480000000002Q9.334557,16.63122,9.292279,16.75175Q9.25,16.87227,9.25,17Q9.25,17.07387,9.264410999999999,17.14632Q9.278822,17.21877,9.30709,17.287010000000002Q9.335359,17.35526,9.376398,17.41668Q9.417437,17.4781,9.46967,17.53033Q9.521903,17.58256,9.583322,17.6236Q9.644742,17.66464,9.712987,17.69291Q9.781233,17.72118,9.853682,17.735590000000002Q9.9261315,17.75,10,17.75Q10.0843583,17.75,10.166609,17.73126Q10.248859,17.712519999999998,10.324892,17.67598Q10.400924,17.63943,10.466939,17.58691Q10.532953,17.534390000000002,10.585652,17.468519999999998L10.585868,17.46825L14.58535,12.468897L14.585650000000001,12.468521L14.585650000000001,12.468521Z" fill-rule="evenodd" fill="#13943C" fill-opacity="1" style="mix-blend-mode:passthrough"/></g><g><g transform="matrix(1,0,0,-1,0,43)"><path d="M14.75,22.169983L14.75,24.83325Q14.75,25.420090000000002,15.164957,25.83504Q15.5799128,26.25,16.16675,26.25L18.82996,26.25Q19.41561,26.25,19.83159,25.83685Q20.25,25.42127,20.25,24.83325L20.25,22.169983Q20.25,21.5831237,19.83336,21.16654Q19.41677,20.75,18.82996,20.75L16.166748,20.75Q15.578749,20.75,15.163187,21.168347Q14.75,21.5843033,14.75,22.169983ZM16.25,24.75L18.75,24.75L18.75,22.25L16.25,22.25L16.25,24.75Z" fill-rule="evenodd" fill="#13943C" fill-opacity="1" style="mix-blend-mode:passthrough"/></g><g transform="matrix(-1,0,0,1,43,0)"><path d="M24.44098,16.25L22.25,16.25L22.25,18.93016Q22.374884,19.03703,22.443627,19.186329999999998Q22.51237,19.335630000000002,22.51237,19.5Q22.51237,19.57387,22.497959,19.64632Q22.483548,19.71877,22.45528,19.787010000000002Q22.427012,19.85526,22.385972,19.91668Q22.344933,19.9781,22.2927,20.03033Q22.240467,20.08256,22.179048,20.1236Q22.117628,20.16464,22.049383,20.19291Q21.981137,20.22118,21.908688,20.235590000000002Q21.836239,20.25,21.76237,20.25Q21.5665922,20.25,21.395793,20.15431L21.395351,20.15406L21.394832,20.15377Q20.751802,19.79296,20.75,19.05744L20.75,16.01001Q20.75,15.4855224,21.126347,15.115267Q21.49762257,14.75,22.018555,14.75L24.61108,14.75Q25.29589,14.75,25.65274,15.380642Q25.75,15.5525165,25.75,15.75Q25.75,15.823869,25.735590000000002,15.896318Q25.72118,15.968767,25.69291,16.037013Q25.66464,16.105258,25.6236,16.166678Q25.58256,16.228096999999998,25.53033,16.28033Q25.4781,16.332563,25.41668,16.373601999999998Q25.35526,16.414641,25.28701,16.44291Q25.21877,16.471178,25.14632,16.485589Q25.07387,16.5,25,16.5Q24.83993,16.5,24.69381,16.434653Q24.54769,16.369306,24.44098,16.25Z" fill-rule="evenodd" fill="#13943C" fill-opacity="1" style="mix-blend-mode:passthrough"/></g></g></g></svg>