<svg xmlns="http://www.w3.org/2000/svg" xmlns:xlink="http://www.w3.org/1999/xlink" fill="none" version="1.1" width="24" height="24" viewBox="0 0 24 24"><defs><clipPath id="master_svg0_62_06947"><rect x="0" y="0" width="24" height="24" rx="0"/></clipPath></defs><g clip-path="url(#master_svg0_62_06947)"><g><path d="M4,20.25L9.5,20.25L9.5,4.75L4,4.75Q3.068019,4.75,2.4090097,5.4090098Q1.75,6.06802,1.75,7L1.75,18Q1.75,18.932000000000002,2.4090098,19.591Q3.068019,20.25,4,20.25ZM8,18.75L4,18.75Q3.68934,18.75,3.46967,18.5303Q3.25,18.3107,3.25,18L3.25,7Q3.25,6.68934,3.46967,6.46967Q3.68934,6.25,4,6.25L8,6.25L8,18.75Z" fill-rule="evenodd" fill="#231F2E" fill-opacity="1"/></g><g><path d="M21.590989999999998,19.591Q22.25,18.932000000000002,22.25,18L22.25,7Q22.25,6.06802,21.590989999999998,5.4090097Q20.93198,4.75,20,4.75L14.5,4.75L14.5,20.25L20,20.25Q20.93198,20.25,21.590989999999998,19.591ZM20.75,7L20.75,18Q20.75,18.3107,20.53033,18.5303Q20.31066,18.75,20,18.75L16,18.75L16,6.25L20,6.25Q20.31066,6.25,20.53033,6.46967Q20.75,6.68934,20.75,7Z" fill-rule="evenodd" fill="#231F2E" fill-opacity="1"/></g><g><path d="M8.75,17L12,18.566200000000002L15.25,17L15.25,3.5L8.75,3.5L8.75,17Z" fill="#DE1000" fill-opacity="0.20000000298023224"/><path d="M8,17.4711L11.67441,19.241799999999998L12,19.398699999999998L16,17.4711L16,2.75L8,2.75L8,17.4711ZM12,17.7336L9.5,16.5289L9.5,4.25L14.5,4.25L14.5,16.5289L12,17.7336Z" fill-rule="evenodd" fill="#DE1000" fill-opacity="1"/></g><g><g><g><path d="M10.73791,15.76304L15.73653,20.76166L15.73744,20.76256Q15.85931,20.88444,15.95507,21.02775Q16.05083,21.17106,16.11679,21.3303Q16.18275,21.489539999999998,16.21637,21.65859Q16.25,21.82764,16.25,22Q16.25,22.08597,16.24157,22.17153Q16.233150000000002,22.257089999999998,16.21637,22.34141Q16.1996,22.42573,16.17464,22.508Q16.14969,22.59027,16.11679,22.66969Q16.08389,22.749119999999998,16.04336,22.824939999999998Q16.00283,22.90076,15.95507,22.97225Q15.907309999999999,23.04373,15.85277,23.11019Q15.79823,23.176650000000002,15.73744,23.23744Q15.67665,23.29823,15.61019,23.35277Q15.54373,23.40731,15.472249999999999,23.45507Q15.40076,23.50283,15.32494,23.54336Q15.24912,23.58389,15.16969,23.61679Q15.09027,23.64969,15.008,23.67464Q14.92573,23.6996,14.84141,23.71637Q14.75709,23.733150000000002,14.67153,23.74157Q14.58597,23.75,14.5,23.75Q14.327639999999999,23.75,14.15859,23.71637Q13.98954,23.68275,13.830300000000001,23.61679Q13.67106,23.55083,13.527750000000001,23.45507Q13.38444,23.35931,13.26256,23.23744L13.26166,23.236530000000002L8.26304,18.23791L8.26256,18.23744Q8.14069,18.11556,8.04493,17.972248Q7.9491700000000005,17.828936,7.88321,17.669696Q7.81725,17.510456,7.7836300000000005,17.341408Q7.75,17.17236,7.75,17Q7.75,16.914028,7.75843,16.82847Q7.76685,16.742912,7.7836300000000005,16.658592Q7.8004,16.574272,7.82535,16.492002Q7.85031,16.409731999999998,7.88321,16.330304Q7.91611,16.250876,7.95664,16.175056Q7.99716,16.099235,8.04493,16.027752Q8.09269,15.95627,8.14723,15.88981Q8.20177,15.82335,8.26256,15.76256Q8.32335,15.70177,8.38981,15.64723Q8.45627,15.59269,8.527752,15.54493Q8.599235,15.497160000000001,8.675056,15.45664Q8.750876,15.41611,8.830304,15.38321Q8.909732,15.35031,8.992002,15.32535Q9.074272,15.3004,9.158592,15.28363Q9.242912,15.26685,9.32847,15.25843Q9.414028,15.25,9.5,15.25Q9.67236,15.25,9.841408,15.28363Q10.010456,15.31725,10.169696,15.38321Q10.328936,15.44917,10.472248,15.54493Q10.61556,15.64069,10.73744,15.76256L10.73791,15.76304Z" fill-rule="evenodd" fill="#FFFFFF" fill-opacity="1" style="mix-blend-mode:passthrough"/></g><g><path d="M15.73744,18.23744Q15.85931,18.11556,15.95507,17.972248Q16.05083,17.828936,16.11679,17.669696Q16.18275,17.510456,16.21637,17.341408Q16.25,17.17236,16.25,17Q16.25,16.914028,16.24157,16.82847Q16.233150000000002,16.742912,16.21637,16.658592Q16.1996,16.574272,16.17464,16.492002Q16.14969,16.409731999999998,16.11679,16.330304Q16.08389,16.250876,16.04336,16.175056Q16.00283,16.099235,15.95507,16.027752Q15.907309999999999,15.95627,15.85277,15.88981Q15.79823,15.82335,15.73744,15.76256Q15.67665,15.70177,15.61019,15.64723Q15.54373,15.59269,15.472249999999999,15.54493Q15.40076,15.497160000000001,15.32494,15.45664Q15.24912,15.41611,15.16969,15.38321Q15.09027,15.35031,15.008,15.32535Q14.92573,15.3004,14.84141,15.28363Q14.75709,15.26685,14.67153,15.25843Q14.58597,15.25,14.5,15.25Q14.327639999999999,15.25,14.15859,15.28363Q13.98954,15.31725,13.830300000000001,15.38321Q13.67106,15.44917,13.527750000000001,15.54493Q13.38444,15.64069,13.26256,15.76256L13.26209,15.76304L8.26256,20.76256Q8.14069,20.88444,8.04493,21.02775Q7.9491700000000005,21.17106,7.88321,21.3303Q7.81725,21.489539999999998,7.7836300000000005,21.65859Q7.75,21.82764,7.75,22Q7.75,22.08597,7.75843,22.17153Q7.76685,22.257089999999998,7.7836300000000005,22.34141Q7.8004,22.42573,7.82535,22.508Q7.85031,22.59027,7.88321,22.66969Q7.91611,22.749119999999998,7.95664,22.824939999999998Q7.99716,22.90076,8.04493,22.97225Q8.09269,23.04373,8.14723,23.11019Q8.20177,23.176650000000002,8.26256,23.23744Q8.32335,23.29823,8.38981,23.35277Q8.45627,23.40731,8.527752,23.45507Q8.599235,23.50283,8.675056,23.54336Q8.750876,23.58389,8.830304,23.61679Q8.909732,23.64969,8.992002,23.67464Q9.074272,23.6996,9.158592,23.71637Q9.242912,23.733150000000002,9.32847,23.74157Q9.414028,23.75,9.5,23.75Q9.67236,23.75,9.841408,23.71637Q10.010456,23.68275,10.169696,23.61679Q10.328936,23.55083,10.472248,23.45507Q10.61556,23.35931,10.73744,23.23744L10.73834,23.236530000000002L15.73744,18.23744L15.73744,18.23744Z" fill-rule="evenodd" fill="#FFFFFF" fill-opacity="1" style="mix-blend-mode:passthrough"/></g></g><g><g><path d="M10.030484,16.469824L15.0297,21.46904L15.03033,21.46967Q15.135819999999999,21.57516,15.192910000000001,21.712989999999998Q15.25,21.85082,15.25,22Q15.25,22.07387,15.23559,22.14632Q15.22118,22.21877,15.192910000000001,22.287010000000002Q15.16464,22.35526,15.1236,22.41668Q15.08256,22.4781,15.03033,22.53033Q14.978100000000001,22.58256,14.91668,22.6236Q14.855260000000001,22.66464,14.78701,22.69291Q14.71877,22.72118,14.64632,22.735590000000002Q14.57387,22.75,14.5,22.75Q14.350819999999999,22.75,14.21299,22.69291Q14.07516,22.63582,13.96967,22.53033L13.96904,22.5297L8.969824,17.530484L8.96967,17.53033Q8.864181,17.424841,8.80709,17.287013Q8.75,17.149184,8.75,17Q8.75,16.9261315,8.764410999999999,16.853682Q8.778822,16.781233,8.80709,16.712987Q8.835359,16.644742,8.876398,16.583322Q8.917437,16.521903000000002,8.96967,16.46967Q9.021903,16.417437,9.083322,16.376398000000002Q9.144742,16.335359,9.212987,16.30709Q9.281233,16.278822,9.353682,16.264411Q9.4261315,16.25,9.5,16.25Q9.649184,16.25,9.787013,16.30709Q9.924841,16.364181,10.03033,16.46967L10.030484,16.469824Z" fill-rule="evenodd" fill="#DE1000" fill-opacity="1" style="mix-blend-mode:passthrough"/></g><g><path d="M15.03033,17.53033Q15.135819999999999,17.424841,15.192910000000001,17.287013Q15.25,17.149184,15.25,17Q15.25,16.9261315,15.23559,16.853682Q15.22118,16.781233,15.192910000000001,16.712987Q15.16464,16.644742,15.1236,16.583322Q15.08256,16.521903000000002,15.03033,16.46967Q14.978100000000001,16.417437,14.91668,16.376398000000002Q14.855260000000001,16.335359,14.78701,16.30709Q14.71877,16.278822,14.64632,16.264411Q14.57387,16.25,14.5,16.25Q14.350819999999999,16.25,14.21299,16.30709Q14.07516,16.364181,13.96967,16.46967L13.96921,16.470132L8.970132,21.46921L8.96967,21.46967Q8.864181,21.57516,8.80709,21.712989999999998Q8.75,21.85082,8.75,22Q8.75,22.07387,8.764410999999999,22.14632Q8.778822,22.21877,8.80709,22.287010000000002Q8.835359,22.35526,8.876398,22.41668Q8.917437,22.4781,8.96967,22.53033Q9.021903,22.58256,9.083322,22.6236Q9.144742,22.66464,9.212987,22.69291Q9.281233,22.72118,9.353682,22.735590000000002Q9.4261315,22.75,9.5,22.75Q9.649184,22.75,9.787013,22.69291Q9.924841,22.63582,10.03033,22.53033L10.030792,22.52987L15.029869999999999,17.530792L15.03033,17.53033L15.03033,17.53033Z" fill-rule="evenodd" fill="#DE1000" fill-opacity="1" style="mix-blend-mode:passthrough"/></g></g></g></g></svg>