<svg xmlns="http://www.w3.org/2000/svg" xmlns:xlink="http://www.w3.org/1999/xlink" fill="none" version="1.1" width="24" height="24" viewBox="0 0 24 24"><defs><clipPath id="master_svg0_72_03462"><rect x="0" y="0" width="24" height="24" rx="0"/></clipPath><linearGradient x1="0.26580810546875" y1="0.8880906105041504" x2="0.7295530176323491" y2="0.10233751725106344" id="master_svg1_75_05622"><stop offset="0%" stop-color="#0852C9" stop-opacity="1"/><stop offset="52.85714268684387%" stop-color="#1A89ED" stop-opacity="1"/><stop offset="100%" stop-color="#24A3FE" stop-opacity="1"/></linearGradient></defs><g clip-path="url(#master_svg0_72_03462)"><g><g><path d="M11.26461,1.692637L3.264608,6.19264C2.792293,6.45831,2.5,6.95809,2.5,7.5L2.5,16.5C2.5,17.0419,2.792293,17.5417,3.264608,17.8074L11.24121,22.2942C11.45103,22.4175,11.69347,22.4912,11.95247,22.4993C11.96825,22.4998,11.9841,22.5,12,22.5C12.0169,22.5,12.03374,22.4997,12.0505,22.4992C12.30838,22.4906,12.5498,22.417,12.7588,22.2942L20.7354,17.8074C21.2077,17.5417,21.5,17.0419,21.5,16.5L21.5,7.5C21.5,7.12572,21.3629,6.78345,21.1362,6.52068C21.0831,6.45905,21.0248,6.40153,20.9617,6.34884C20.884,6.28381,20.7995,6.22652,20.7096,6.17813L12.7354,1.692637C12.27877,1.4357878,11.72123,1.4357878,11.26461,1.692637ZM16.9404,7.5L12,4.72102L5.5,8.37727L5.5,15.6227L10.5,18.4352L10.5,12C10.5,11.6257,10.63708,11.28345,10.86378,11.02068C10.91603,10.96004,10.9733,10.90339,11.03521,10.8514C11.11381,10.78531,11.19928,10.72715,11.29041,10.67813L16.9404,7.5ZM13.5,18.4352L18.5,15.6227L18.5,10.06477L13.5,12.8773L13.5,18.4352Z" fill-rule="evenodd" fill="url(#master_svg1_75_05622)" fill-opacity="1" style="mix-blend-mode:passthrough"/></g><g><path d="M10.5,12.1C10.5,11.216344,11.216344,10.5,12.1,10.5C12.98366,10.5,13.7,11.216344,13.7,12.1L13.7,12.1C13.7,12.98366,12.98366,13.7,12.1,13.7C11.216344,13.7,10.5,12.98366,10.5,12.1L10.5,12.1Z" fill-rule="evenodd" fill="#023395" fill-opacity="1" style="mix-blend-mode:passthrough"/></g></g></g></svg>