<svg xmlns="http://www.w3.org/2000/svg" xmlns:xlink="http://www.w3.org/1999/xlink" fill="none" version="1.1" width="24" height="24" viewBox="0 0 24 24"><defs><clipPath id="master_svg0_62_01321"><rect x="0" y="0" width="24" height="24" rx="0"/></clipPath></defs><g clip-path="url(#master_svg0_62_01321)"><g><path d="M13.25,3Q13.25,2.9261315,13.264410999999999,2.853682Q13.278822,2.781233,13.30709,2.712987Q13.335359,2.644742,13.376398,2.583322Q13.417437,2.521903,13.46967,2.46967Q13.521903,2.417437,13.583322,2.376398Q13.644742,2.335359,13.712987,2.30709Q13.781233,2.278822,13.853682,2.264411Q13.9261315,2.25,14,2.25Q14.0738685,2.25,14.146318,2.264411Q14.218767,2.278822,14.287013,2.30709Q14.355258,2.335359,14.416678,2.376398Q14.478097,2.417437,14.53033,2.46967Q14.582563,2.521903,14.623602,2.583322Q14.664641,2.644742,14.69291,2.712987Q14.721178,2.781233,14.735589000000001,2.853682Q14.75,2.9261315,14.75,3L14.75,7Q14.75,7.10355,14.823223,7.17678Q14.896447,7.25,15,7.25L19,7.25Q19.07387,7.25,19.14632,7.26441Q19.21877,7.27882,19.287010000000002,7.30709Q19.35526,7.33536,19.41668,7.3764Q19.4781,7.41744,19.53033,7.46967Q19.58256,7.5219,19.6236,7.58332Q19.66464,7.64474,19.69291,7.71299Q19.72118,7.78123,19.735590000000002,7.85368Q19.75,7.92613,19.75,8Q19.75,8.07387,19.735590000000002,8.14632Q19.72118,8.21877,19.69291,8.28701Q19.66464,8.355260000000001,19.6236,8.41668Q19.58256,8.478100000000001,19.53033,8.53033Q19.4781,8.58256,19.41668,8.6236Q19.35526,8.66464,19.287010000000002,8.692910000000001Q19.21877,8.72118,19.14632,8.73559Q19.07387,8.75,19,8.75L15,8.75Q14.275126,8.75,13.762563,8.23744Q13.25,7.72487,13.25,7L13.25,3Z" fill-rule="evenodd" fill="#231F2E" fill-opacity="1"/></g><g><path d="M18.25,8.31066L18.25,12.5Q18.25,12.57387,18.264400000000002,12.64632Q18.2788,12.71877,18.3071,12.78701Q18.3354,12.85526,18.3764,12.91668Q18.4174,12.9781,18.4697,13.0303Q18.521900000000002,13.0826,18.5833,13.1236Q18.6447,13.1646,18.713,13.1929Q18.7812,13.2212,18.8537,13.2356Q18.926099999999998,13.25,19,13.25Q19.073900000000002,13.25,19.1463,13.2356Q19.2188,13.2212,19.287,13.1929Q19.3553,13.1646,19.4167,13.1236Q19.478099999999998,13.0826,19.5303,13.0303Q19.5826,12.9781,19.6236,12.91668Q19.6646,12.85526,19.6929,12.78701Q19.7212,12.71877,19.735599999999998,12.64632Q19.75,12.57387,19.75,12.5L19.75,12.4988L19.75,8Q19.75,7.85082,19.6929,7.71299Q19.6358,7.57516,19.5303,7.46967L14.53033,2.46967Q14.42484,2.364181,14.28701,2.30709Q14.14919,2.25,14,2.25L7,2.25Q5.860913,2.25,5.0554564,3.0554564Q4.25,3.860913,4.25,5L4.25,19Q4.25,20.1391,5.0554563,20.9445Q5.860912,21.75,7,21.75L12,21.75Q12.07387,21.75,12.14632,21.7356Q12.21877,21.7212,12.28701,21.6929Q12.355260000000001,21.6646,12.41668,21.6236Q12.478100000000001,21.5826,12.53033,21.5303Q12.58256,21.4781,12.6236,21.4167Q12.66464,21.3553,12.692910000000001,21.287Q12.72118,21.2188,12.73559,21.1463Q12.75,21.0739,12.75,21Q12.75,20.9261,12.73559,20.8537Q12.72118,20.7812,12.692910000000001,20.713Q12.66464,20.6447,12.6236,20.5833Q12.58256,20.5219,12.53033,20.4697Q12.478100000000001,20.4174,12.41668,20.3764Q12.355260000000001,20.3354,12.28701,20.3071Q12.21877,20.2788,12.14632,20.2644Q12.07387,20.25,12,20.25L7,20.25Q6.4822299999999995,20.25,6.1161200000000004,19.8839Q5.75,19.5178,5.75,19L5.75,5Q5.75,4.4822299999999995,6.1161200000000004,4.1161200000000004Q6.4822299999999995,3.75,7,3.75L13.68934,3.75L18.25,8.31066Z" fill-rule="evenodd" fill="#231F2E" fill-opacity="1"/></g><g><path d="M8,7.25L11,7.25Q11.07387,7.25,11.14632,7.264411Q11.21877,7.278822,11.28701,7.30709Q11.35526,7.335359,11.41668,7.376398Q11.4781,7.417437,11.53033,7.46967Q11.58256,7.521903,11.6236,7.583322Q11.66464,7.644742,11.69291,7.712987Q11.72118,7.781233,11.73559,7.853682Q11.75,7.9261315,11.75,8Q11.75,8.0738685,11.73559,8.146318Q11.72118,8.218767,11.69291,8.287013Q11.66464,8.355258,11.6236,8.416678Q11.58256,8.478097,11.53033,8.53033Q11.4781,8.582563,11.41668,8.623602Q11.35526,8.664641,11.28701,8.69291Q11.21877,8.721178,11.14632,8.735589000000001Q11.07387,8.75,11,8.75L8,8.75Q7.9261315,8.75,7.853682,8.735589000000001Q7.781233,8.721178,7.712987,8.69291Q7.644742,8.664641,7.583322,8.623602Q7.521903,8.582563,7.46967,8.53033Q7.417437,8.478097,7.376398,8.416678Q7.335359,8.355258,7.30709,8.287013Q7.278822,8.218767,7.264411,8.146318Q7.25,8.0738685,7.25,8Q7.25,7.9261315,7.264411,7.853682Q7.278822,7.781233,7.30709,7.712987Q7.335359,7.644742,7.376398,7.583322Q7.417437,7.521903,7.46967,7.46967Q7.521903,7.417437,7.583322,7.376398Q7.644742,7.335359,7.712987,7.30709Q7.781233,7.278822,7.853682,7.264411Q7.9261315,7.25,8,7.25Z" fill-rule="evenodd" fill="#231F2E" fill-opacity="1"/></g><g><path d="M8,10.2548828125L16,10.2548828125Q16.07387,10.2548828125,16.14632,10.269293812499999Q16.21877,10.2837048125,16.287010000000002,10.3119728125Q16.35526,10.3402418125,16.41668,10.3812808125Q16.478099999999998,10.4223198125,16.53033,10.4745528125Q16.58256,10.5267858125,16.6236,10.5882048125Q16.66464,10.6496248125,16.692909999999998,10.7178698125Q16.72118,10.7861158125,16.735590000000002,10.8585648125Q16.75,10.9310143125,16.75,11.0048828125Q16.75,11.0787513125,16.735590000000002,11.1512008125Q16.72118,11.2236498125,16.692909999999998,11.2918958125Q16.66464,11.3601408125,16.6236,11.4215608125Q16.58256,11.4829798125,16.53033,11.5352128125Q16.478099999999998,11.5874458125,16.41668,11.6284848125Q16.35526,11.6695238125,16.287010000000002,11.6977928125Q16.21877,11.7260608125,16.14632,11.740471812500001Q16.07387,11.7548828125,16,11.7548828125L8,11.7548828125Q7.9261315,11.7548828125,7.853682,11.740471812500001Q7.781233,11.7260608125,7.712987,11.6977928125Q7.644742,11.6695238125,7.583322,11.6284848125Q7.521903,11.5874458125,7.46967,11.5352128125Q7.417437,11.4829798125,7.376398,11.4215608125Q7.335359,11.3601408125,7.30709,11.2918958125Q7.278822,11.2236498125,7.264411,11.1512008125Q7.25,11.0787513125,7.25,11.0048828125Q7.25,10.9310143125,7.264411,10.8585648125Q7.278822,10.7861158125,7.30709,10.7178698125Q7.335359,10.6496248125,7.376398,10.5882048125Q7.417437,10.5267858125,7.46967,10.4745528125Q7.521903,10.4223198125,7.583322,10.3812808125Q7.644742,10.3402418125,7.712987,10.3119728125Q7.781233,10.2837048125,7.853682,10.269293812499999Q7.9261315,10.2548828125,8,10.2548828125Z" fill-rule="evenodd" fill="#13943C" fill-opacity="1"/></g><g><path d="M16,21.27375C16,21.40219,16.0973236,21.50973,16.225124,21.52251L20.72512,21.97251C20.8723,21.98723,21,21.87166,21,21.72375L21,16.276247C21,16.128341,20.8723,16.0127704,20.72512,16.0274876L16.225124,16.477488C16.0973236,16.490268,16,16.597809,16,16.726247L16,21.27375Z" fill="#13943C" fill-opacity="1"/><path d="M15.25,16.726247L15.25,21.27375Q15.25,21.65907,15.508548,21.94476Q15.767094,22.23045,16.150496,22.26879L20.6505,22.71879Q21.092010000000002,22.76294,21.42101,22.46521Q21.75,22.16747,21.75,21.72375L21.75,16.276247Q21.75,15.83253,21.42101,15.534794Q21.092010000000002,15.237058,20.6505,15.28121L16.150496,15.73121Q15.767095,15.76955,15.508547,16.0552417Q15.25,16.340933,15.25,16.726247ZM16.75,20.82126L20.25,21.17126L20.25,16.828741L16.75,17.17874L16.75,20.82126Z" fill-rule="evenodd" fill="#13943C" fill-opacity="1"/></g><g><path d="M17.083975,17.77735Q17,17.651388,17,17.5Q17,17.4507543,17.009607,17.4024549Q17.019215,17.354155,17.03806,17.308658Q17.056906,17.263161,17.084265,17.222215Q17.111625,17.181269,17.146447,17.146447Q17.181269,17.111625,17.222215,17.084265Q17.263161,17.056906,17.308658,17.03806Q17.354155,17.019215,17.4024549,17.009607Q17.4507543,17,17.5,17Q17.5617355,17,17.621617,17.015016Q17.681498,17.030032,17.735929,17.059163Q17.79036,17.088293,17.83607,17.129788Q17.88178,17.171283,17.916025,17.22265L19.91603,20.22265Q20,20.34861,20,20.5Q20,20.54925,19.99039,20.59754Q19.98078,20.64584,19.96194,20.69134Q19.94309,20.73684,19.91573,20.77778Q19.88838,20.81873,19.85355,20.85355Q19.81873,20.888370000000002,19.77779,20.91573Q19.73684,20.94309,19.69134,20.96194Q19.64584,20.98078,19.59754,20.99039Q19.54925,21,19.5,21Q19.43826,21,19.37838,20.98498Q19.3185,20.96997,19.26407,20.94084Q19.20964,20.91171,19.16393,20.87021Q19.11822,20.82872,19.08397,20.77735L17.083975,17.77735Z" fill-rule="evenodd" fill="#FFFFFF" fill-opacity="1"/></g><g><path d="M19.91603,17.77735Q20,17.651388,20,17.5Q20,17.4507543,19.99039,17.4024549Q19.98078,17.354155,19.96194,17.308658Q19.94309,17.263161,19.91573,17.222215Q19.88838,17.181269,19.85355,17.146447Q19.81873,17.111625,19.77779,17.084265Q19.73684,17.056906,19.69134,17.03806Q19.64584,17.019215,19.59754,17.009607Q19.54925,17,19.5,17Q19.43826,17,19.37838,17.015016Q19.3185,17.030032,19.26407,17.059163Q19.20964,17.088293,19.16393,17.129788Q19.11822,17.171283,19.08397,17.22265L17.083975,20.22265Q17,20.34861,17,20.5Q17,20.54925,17.009607,20.59754Q17.019215,20.64584,17.03806,20.69134Q17.056906,20.73684,17.084265,20.77778Q17.111625,20.81873,17.146447,20.85355Q17.181269,20.888370000000002,17.222215,20.91573Q17.263161,20.94309,17.308658,20.96194Q17.354155,20.98078,17.4024549,20.99039Q17.4507543,21,17.5,21Q17.5617355,21,17.621617,20.98498Q17.681498,20.96997,17.735929,20.94084Q17.79036,20.91171,17.83607,20.87021Q17.88178,20.82872,17.916025,20.77735L19.91603,17.77735Z" fill-rule="evenodd" fill="#FFFFFF" fill-opacity="1"/></g><g><path d="M8,13.259765625L14,13.259765625Q14.07387,13.259765625,14.14632,13.274176624999999Q14.21877,13.288587625,14.28701,13.316855625Q14.355260000000001,13.345124625,14.41668,13.386163625Q14.478100000000001,13.427202625,14.53033,13.479435625Q14.58256,13.531668625,14.6236,13.593087625Q14.66464,13.654507625,14.692910000000001,13.722752625Q14.72118,13.790998625,14.73559,13.863447625Q14.75,13.935897125,14.75,14.009765625Q14.75,14.083634125,14.73559,14.156083625Q14.72118,14.228532625,14.692910000000001,14.296778625Q14.66464,14.365023625,14.6236,14.426443625Q14.58256,14.487862625,14.53033,14.540095625Q14.478100000000001,14.592328625,14.41668,14.633367625Q14.355260000000001,14.674406625,14.28701,14.702675625Q14.21877,14.730943625,14.14632,14.745354625000001Q14.07387,14.759765625,14,14.759765625L8,14.759765625Q7.9261315,14.759765625,7.853682,14.745354625000001Q7.781233,14.730943625,7.712987,14.702675625Q7.644742,14.674406625,7.583322,14.633367625Q7.521903,14.592328625,7.46967,14.540095625Q7.417437,14.487862625,7.376398,14.426443625Q7.335359,14.365023625,7.30709,14.296778625Q7.278822,14.228532625,7.264411,14.156083625Q7.25,14.083634125,7.25,14.009765625Q7.25,13.935897125,7.264411,13.863447625Q7.278822,13.790998625,7.30709,13.722752625Q7.335359,13.654507625,7.376398,13.593087625Q7.417437,13.531668625,7.46967,13.479435625Q7.521903,13.427202625,7.583322,13.386163625Q7.644742,13.345124625,7.712987,13.316855625Q7.781233,13.288587625,7.853682,13.274176624999999Q7.9261315,13.259765625,8,13.259765625Z" fill-rule="evenodd" fill="#231F2E" fill-opacity="1"/></g><g><path d="M8,16.2646484375L12,16.2646484375Q12.07387,16.2646484375,12.14632,16.2790594375Q12.21877,16.2934704375,12.28701,16.3217384375Q12.355260000000001,16.3500074375,12.41668,16.391046437500002Q12.478100000000001,16.4320854375,12.53033,16.4843184375Q12.58256,16.536551437500002,12.6236,16.5979704375Q12.66464,16.6593904375,12.692910000000001,16.7276354375Q12.72118,16.7958814375,12.73559,16.8683304375Q12.75,16.9407799375,12.75,17.0146484375Q12.75,17.0885169375,12.73559,17.1609664375Q12.72118,17.2334154375,12.692910000000001,17.3016614375Q12.66464,17.3699064375,12.6236,17.4313264375Q12.58256,17.492745437499998,12.53033,17.5449784375Q12.478100000000001,17.5972114375,12.41668,17.638250437499998Q12.355260000000001,17.6792894375,12.28701,17.7075584375Q12.21877,17.7358264375,12.14632,17.7502374375Q12.07387,17.7646484375,12,17.7646484375L8,17.7646484375Q7.9261315,17.7646484375,7.853682,17.7502374375Q7.781233,17.7358264375,7.712987,17.7075584375Q7.644742,17.6792894375,7.583322,17.638250437499998Q7.521903,17.5972114375,7.46967,17.5449784375Q7.417437,17.492745437499998,7.376398,17.4313264375Q7.335359,17.3699064375,7.30709,17.3016614375Q7.278822,17.2334154375,7.264411,17.1609664375Q7.25,17.0885169375,7.25,17.0146484375Q7.25,16.9407799375,7.264411,16.8683304375Q7.278822,16.7958814375,7.30709,16.7276354375Q7.335359,16.6593904375,7.376398,16.5979704375Q7.417437,16.536551437500002,7.46967,16.4843184375Q7.521903,16.4320854375,7.583322,16.391046437500002Q7.644742,16.3500074375,7.712987,16.3217384375Q7.781233,16.2934704375,7.853682,16.2790594375Q7.9261315,16.2646484375,8,16.2646484375Z" fill-rule="evenodd" fill="#231F2E" fill-opacity="1"/></g></g></svg>