<svg xmlns="http://www.w3.org/2000/svg" xmlns:xlink="http://www.w3.org/1999/xlink" fill="none" version="1.1" width="24" height="24" viewBox="0 0 24 24"><defs><clipPath id="master_svg0_62_08770"><rect x="0" y="0" width="24" height="24" rx="0"/></clipPath></defs><g clip-path="url(#master_svg0_62_08770)"><g><g><path d="M1.75,13.25L1.75,7.75L9.25,7.75L9.25,13.25L1.75,13.25ZM7.75,9.25L3.25,9.25L3.25,11.75L7.75,11.75L7.75,9.25Z" fill-rule="evenodd" fill="#736F78" fill-opacity="1"/></g><g><path d="M7.75,17.25L7.75,11.75L15.25,11.75L15.25,17.25L7.75,17.25ZM13.75,13.25L9.25,13.25L9.25,15.75L13.75,15.75L13.75,13.25Z" fill-rule="evenodd" fill="#736F78" fill-opacity="1"/></g><g><path d="M13.75,13.25L13.75,7.75L21.25,7.75L21.25,13.25L13.75,13.25ZM19.75,9.25L15.25,9.25L15.25,11.75L19.75,11.75L19.75,9.25Z" fill-rule="evenodd" fill="#736F78" fill-opacity="1"/></g><g><path d="M7.75,13.25L7.75,7.75L15.25,7.75L15.25,13.25L7.75,13.25ZM13.75,9.25L9.25,9.25L9.25,11.75L13.75,11.75L13.75,9.25Z" fill-rule="evenodd" fill="#736F78" fill-opacity="1"/></g><g><path d="M7.75,9.25L7.75,3.75L15.25,3.75L15.25,9.25L7.75,9.25ZM13.75,5.25L9.25,5.25L9.25,7.75L13.75,7.75L13.75,5.25Z" fill-rule="evenodd" fill="#736F78" fill-opacity="1"/></g></g><g><path d="M2.5,19.5L7.5,19.5L10.5,16.5L2.5,16.5L2.5,19.5Z" fill="#13943C" fill-opacity="0.20000000298023224"/><path d="M1.75,20.25L7.81066,20.25L8.03033,20.03033L12.31066,15.75L1.75,15.75L1.75,20.25ZM7.18934,18.75L3.25,18.75L3.25,17.25L8.68934,17.25L7.18934,18.75Z" fill-rule="evenodd" fill="#13943C" fill-opacity="1"/></g><g><path d="M20.591,16.591Q21.25,15.932,21.25,15L21.25,6Q21.25,5.068018,20.591,4.4090097Q19.932,3.75,19,3.75L4,3.75Q3.0680199999999997,3.75,2.4090099,4.4090098Q1.75,5.06802,1.75,6L1.75,17.25L19,17.25Q19.932,17.25,20.591,16.591ZM19.75,6L19.75,15Q19.75,15.75,19,15.75L3.25,15.75L3.25,6Q3.25,5.25,4,5.25L19,5.25Q19.75,5.25,19.75,6Z" fill-rule="evenodd" fill="#231F2E" fill-opacity="1"/></g><g><g><path d="M16.319580078125,13.75Q16.911831078125,13.75,17.455440078125,13.97994Q17.979180078125,14.20148,18.382000078125,14.604327Q18.784800078125,15.00716,19.006310078125,15.5308939Q19.236210078125,16.074479,19.236210078125,16.66667L19.236250078125,20.33333Q19.236250078125,20.92557,19.006320078125,21.46917Q18.784800078125,21.9929,18.381970078125,22.39573Q17.979150078125,22.798560000000002,17.455410078125,23.02008Q16.911812078125,23.25,16.319580078125,23.25Q16.233608078125,23.25,16.148050078125,23.24157Q16.062492078125,23.233150000000002,15.978172078125,23.21637Q15.893852078125,23.1996,15.811582078125,23.17465Q15.729312078125,23.14969,15.649884078125,23.11679Q15.570456078125,23.08389,15.494636078125,23.04336Q15.418815078125,23.00284,15.347332078125,22.95507Q15.275850078125,22.90731,15.209390078125,22.85277Q15.142930078125,22.79823,15.082140078125,22.73744Q15.021350078125,22.676650000000002,14.966810078125,22.61019Q14.912270078125,22.54373,14.864510078125,22.47225Q14.816740078125001,22.40076,14.776220078125,22.324939999999998Q14.735690078125,22.249119999999998,14.702790078125,22.1697Q14.669890078125,22.09027,14.644930078125,22.008Q14.619980078125,21.92573,14.603210078125,21.84141Q14.586430078125,21.757089999999998,14.578010078125,21.67153Q14.569580078125,21.58597,14.569580078125,21.5Q14.569580078125,21.365099999999998,14.590260078125,21.23179Q14.610930078125,21.098480000000002,14.651790078125,20.969920000000002Q14.692660078125,20.84135,14.752740078125,20.720570000000002Q14.812820078125,20.59979,14.890710078125,20.48964Q14.968600078125,20.37949,15.062440078125,20.28258Q15.156290078125,20.185670000000002,15.263880078125,20.10429Q15.371470078125,20.02291,15.490262078125,19.95898Q15.609054078125,19.89505,15.736241078125,19.85009L15.736211078125,17.1499Q15.609027078125,17.10493,15.490238078125,17.041Q15.371448078125,16.97707,15.263860078125,16.895690000000002Q15.156270078125,16.81431,15.062430078125,16.7174Q14.968580078125001,16.62049,14.890700078125,16.51035Q14.812820078125,16.400201,14.752730078125,16.279420000000002Q14.692650078125,16.158638,14.651790078125,16.030076Q14.610930078125,15.901513,14.590250078124999,15.768206Q14.569580078125,15.6349,14.569580078125,15.5Q14.569580078125,15.414028,14.578010078125,15.32847Q14.586430078125,15.242912,14.603210078125,15.158592Q14.619980078125,15.074272,14.644930078125,14.992002Q14.669890078125,14.909732,14.702790078125,14.830304Q14.735690078125,14.750876,14.776220078125,14.675056Q14.816740078125001,14.599235,14.864510078125,14.527752Q14.912270078125,14.45627,14.966810078125,14.38981Q15.021350078125,14.32335,15.082140078125,14.26256Q15.142930078125,14.20177,15.209390078125,14.14723Q15.275850078125,14.09269,15.347332078125,14.04493Q15.418815078125,13.997160000000001,15.494636078125,13.95664Q15.570456078125,13.91611,15.649884078125,13.88321Q15.729312078125,13.85031,15.811582078125,13.82535Q15.893852078125,13.8004,15.978172078125,13.78363Q16.062492078125,13.76685,16.148050078125,13.75843Q16.233608078125,13.75,16.319580078125,13.75Z" fill-rule="evenodd" fill="#FFFFFF" fill-opacity="1"/></g><g transform="matrix(-1,0,0,1,37.3056640625,0)"><path d="M18.65283203125,13.75Q19.24508303125,13.75,19.78869203125,13.97994Q20.31243203125,14.20148,20.71525203125,14.604327Q21.11805203125,15.00716,21.33956203125,15.5308939Q21.56946203125,16.074479,21.56946203125,16.66667L21.56950203125,20.33333Q21.56950203125,20.92557,21.33957203125,21.46917Q21.11805203125,21.9929,20.71522203125,22.39573Q20.31240203125,22.798560000000002,19.78866203125,23.02008Q19.24506403125,23.25,18.65283203125,23.25Q18.56686003125,23.25,18.48130203125,23.24157Q18.39574403125,23.233150000000002,18.31142403125,23.21637Q18.22710403125,23.1996,18.14483403125,23.17465Q18.062564031249998,23.14969,17.98313603125,23.11679Q17.90370803125,23.08389,17.82788803125,23.04336Q17.75206703125,23.00284,17.68058403125,22.95507Q17.60910203125,22.90731,17.54264203125,22.85277Q17.47618203125,22.79823,17.41539203125,22.73744Q17.35460203125,22.676650000000002,17.30006203125,22.61019Q17.24552203125,22.54373,17.19776203125,22.47225Q17.14999203125,22.40076,17.10947203125,22.324939999999998Q17.06894203125,22.249119999999998,17.03604203125,22.1697Q17.00314203125,22.09027,16.97818203125,22.008Q16.95323203125,21.92573,16.93646203125,21.84141Q16.91968203125,21.757089999999998,16.91126203125,21.67153Q16.90283203125,21.58597,16.90283203125,21.5Q16.90283203125,21.365099999999998,16.92351203125,21.23179Q16.94418203125,21.098480000000002,16.98504203125,20.969920000000002Q17.02591203125,20.84135,17.08599203125,20.720570000000002Q17.14607203125,20.59979,17.22396203125,20.48964Q17.30185203125,20.37949,17.39569203125,20.28258Q17.48954203125,20.185670000000002,17.59713203125,20.10429Q17.70472203125,20.02291,17.82351403125,19.95898Q17.94230603125,19.89505,18.06949303125,19.85009L18.06946303125,17.1499Q17.94227903125,17.10493,17.82349003125,17.041Q17.70470003125,16.97707,17.59711203125,16.895690000000002Q17.48952203125,16.81431,17.39568203125,16.7174Q17.30183203125,16.62049,17.22395203125,16.51035Q17.14607203125,16.400201,17.08598203125,16.279420000000002Q17.02590203125,16.158638,16.98504203125,16.030076Q16.94418203125,15.901513,16.92350203125,15.768206Q16.90283203125,15.6349,16.90283203125,15.5Q16.90283203125,15.414028,16.91126203125,15.32847Q16.91968203125,15.242912,16.93646203125,15.158592Q16.95323203125,15.074272,16.97818203125,14.992002Q17.00314203125,14.909732,17.03604203125,14.830304Q17.06894203125,14.750876,17.10947203125,14.675056Q17.14999203125,14.599235,17.19776203125,14.527752Q17.24552203125,14.45627,17.30006203125,14.38981Q17.35460203125,14.32335,17.41539203125,14.26256Q17.47618203125,14.20177,17.54264203125,14.14723Q17.60910203125,14.09269,17.68058403125,14.04493Q17.75206703125,13.997160000000001,17.82788803125,13.95664Q17.90370803125,13.91611,17.98313603125,13.88321Q18.062564031249998,13.85031,18.14483403125,13.82535Q18.22710403125,13.8004,18.31142403125,13.78363Q18.39574403125,13.76685,18.48130203125,13.75843Q18.56686003125,13.75,18.65283203125,13.75Z" fill-rule="evenodd" fill="#FFFFFF" fill-opacity="1"/></g><g><path d="M19.5,15.75Q19.414028,15.75,19.32847,15.75843Q19.242912,15.76685,19.158592,15.78363Q19.074272,15.8004,18.992002,15.82535Q18.909731999999998,15.85031,18.830304,15.88321Q18.750876,15.91611,18.675056,15.95664Q18.599235,15.997160000000001,18.527752,16.04493Q18.45627,16.09269,18.38981,16.14723Q18.32335,16.20177,18.26256,16.26256Q18.20177,16.32335,18.14723,16.38981Q18.09269,16.45627,18.04493,16.527752Q17.99716,16.599235,17.95664,16.675056Q17.91611,16.750876,17.88321,16.830304Q17.85031,16.909731999999998,17.82535,16.992002Q17.8004,17.074272,17.78363,17.158592Q17.76685,17.242912,17.75843,17.32847Q17.75,17.414028,17.75,17.5Q17.75,17.768178,17.83031,18.024049Q17.91061,18.27992,18.06386,18.5Q17.91061,18.72008,17.83031,18.97595Q17.75,19.23182,17.75,19.5Q17.75,19.58597,17.75843,19.67153Q17.76685,19.757089999999998,17.78363,19.84141Q17.8004,19.92573,17.82535,20.008Q17.85031,20.09027,17.88321,20.1697Q17.91611,20.24912,17.95664,20.324939999999998Q17.99716,20.40076,18.04493,20.47225Q18.09269,20.54373,18.14723,20.61019Q18.20177,20.67665,18.26256,20.73744Q18.32335,20.79823,18.38981,20.85277Q18.45627,20.90731,18.527752,20.95507Q18.599235,21.00284,18.675056,21.04336Q18.750876,21.08389,18.830304,21.11679Q18.909731999999998,21.14969,18.992002,21.17465Q19.074272,21.1996,19.158592,21.21637Q19.242912,21.233150000000002,19.32847,21.24157Q19.414028,21.25,19.5,21.25L21,21.25Q21.93198,21.25,22.59099,20.59099Q23.25,19.93198,23.25,19L23.25,18Q23.25,17.068019,22.59099,16.40901Q21.93198,15.75,21,15.75L19.5,15.75Z" fill-rule="evenodd" fill="#FFFFFF" fill-opacity="1"/></g><g><path d="M15,21.25L15.5,21.25Q15.58597,21.25,15.67153,21.24157Q15.75709,21.233150000000002,15.84141,21.21637Q15.92573,21.1996,16.008,21.17465Q16.09027,21.14969,16.1697,21.11679Q16.24912,21.08389,16.32494,21.04336Q16.40076,21.00284,16.47225,20.95507Q16.54373,20.90731,16.61019,20.85277Q16.67665,20.79823,16.73744,20.73744Q16.79823,20.67665,16.85277,20.61019Q16.90731,20.54373,16.95507,20.47225Q17.00284,20.40076,17.04336,20.324939999999998Q17.08389,20.24912,17.11679,20.1697Q17.14969,20.09027,17.17465,20.008Q17.1996,19.92573,17.21637,19.84141Q17.233150000000002,19.757089999999998,17.24157,19.67153Q17.25,19.58597,17.25,19.5Q17.25,19.23182,17.16969,18.97595Q17.08938,18.72008,16.93614,18.499999Q17.08938,18.279919,17.16969,18.024049Q17.25,17.768178,17.25,17.5Q17.25,17.414028,17.24157,17.32847Q17.233150000000002,17.242912,17.21637,17.158592Q17.1996,17.074272,17.17465,16.992002Q17.14969,16.909731999999998,17.11679,16.830304Q17.08389,16.750876,17.04336,16.675056Q17.00284,16.599235,16.95507,16.527752Q16.90731,16.45627,16.85277,16.38981Q16.79823,16.32335,16.73744,16.26256Q16.67665,16.20177,16.61019,16.14723Q16.54373,16.09269,16.47225,16.04493Q16.40076,15.997160000000001,16.32494,15.95664Q16.24912,15.91611,16.1697,15.88321Q16.09027,15.85031,16.008,15.82535Q15.92573,15.8004,15.84141,15.78363Q15.75709,15.76685,15.67153,15.75843Q15.58597,15.75,15.5,15.75L15,15.75Q14.5434005,15.75,14.123662,15.92753Q13.719568,16.09845,13.40901,16.40901Q13.09845,16.719568,12.92753,17.123661Q12.75,17.5434005,12.75,18L12.75,19Q12.75,19.4566,12.92753,19.87634Q13.09845,20.28043,13.40901,20.59099Q13.719568,20.90155,14.123661,21.07247Q14.5434004,21.25,15,21.25Z" fill-rule="evenodd" fill="#FFFFFF" fill-opacity="1"/></g></g><g><g><path d="M16.319580078125,14.75Q16.709035078125,14.75,17.065872078125,14.900938Q17.409960078125,15.046486,17.674870078125,15.311408Q17.939760078125,15.5763218,18.085290078125,15.92042Q18.236210078125,16.27725,18.236210078125,16.66668L18.236250078125,20.33333Q18.236250078125,20.72278,18.085320078125,21.07962Q17.939780078125,21.42371,17.674870078125,21.68862Q17.409960078125,21.95353,17.065863078125,22.09907Q16.709976078125,22.2496,16.321652868125,22.25L16.319580078125,22.25Q16.245711578125,22.25,16.173262078125,22.235590000000002Q16.100813078125,22.22118,16.032567078125,22.19291Q15.964322078125,22.16464,15.902902078125,22.1236Q15.841483078125,22.08256,15.789250078125,22.03033Q15.737017078125,21.9781,15.695978078125,21.91668Q15.654939078125,21.85526,15.626670078125,21.787010000000002Q15.598402078125,21.71877,15.583991078124999,21.64632Q15.569580078125,21.57387,15.569580078125,21.5Q15.569580078125,21.42613,15.583991078124999,21.35368Q15.598402078125,21.28123,15.626670078125,21.212989999999998Q15.654939078125,21.14474,15.695978078125,21.08332Q15.737017078125,21.0219,15.789250078125,20.96967Q15.841483078125,20.91744,15.902902078125,20.8764Q15.964322078125,20.83536,16.032567078125,20.80709Q16.100813078125,20.77882,16.173262078125,20.764409999999998Q16.245711578125,20.75,16.319580078125,20.75Q16.492169078125,20.75,16.614208078125,20.62796Q16.736247078125,20.50592,16.736247078125,20.33333L16.736206078125,16.6667Q16.736206078125,16.494076,16.614168078125,16.37203Q16.492148078125,16.25,16.319580078125,16.25Q16.245711578125,16.25,16.173262078125,16.235589Q16.100813078125,16.221178,16.032567078125,16.19291Q15.964322078125,16.164641,15.902902078125,16.123601999999998Q15.841483078125,16.082563,15.789250078125,16.03033Q15.737017078125,15.978097,15.695978078125,15.916678Q15.654939078125,15.855258,15.626670078125,15.787013Q15.598402078125,15.718767,15.583991078124999,15.646318Q15.569580078125,15.5738685,15.569580078125,15.5Q15.569580078125,15.4261315,15.583991078124999,15.353682Q15.598402078125,15.281233,15.626670078125,15.212987Q15.654939078125,15.144742,15.695978078125,15.083322Q15.737017078125,15.021903,15.789250078125,14.96967Q15.841483078125,14.917437,15.902902078125,14.876398Q15.964322078125,14.835359,16.032567078125,14.80709Q16.100813078125,14.778822,16.173262078125,14.764410999999999Q16.245711578125,14.75,16.319580078125,14.75Z" fill-rule="evenodd" fill="#13943C" fill-opacity="1"/></g><g transform="matrix(-1,0,0,1,37.3056640625,0)"><path d="M18.65283203125,14.75Q19.04228703125,14.75,19.39912403125,14.900938Q19.74321203125,15.046486,20.00812203125,15.311408Q20.27301203125,15.5763218,20.41854203125,15.92042Q20.56946203125,16.27725,20.56946203125,16.66668L20.56950203125,20.33333Q20.56950203125,20.72278,20.41857203125,21.07962Q20.27303203125,21.42371,20.00812203125,21.68862Q19.74321203125,21.95353,19.39911503125,22.09907Q19.04322803125,22.2496,18.65490482125,22.25L18.65283203125,22.25Q18.57896353125,22.25,18.50651403125,22.235590000000002Q18.43406503125,22.22118,18.36581903125,22.19291Q18.29757403125,22.16464,18.23615403125,22.1236Q18.174735031250002,22.08256,18.12250203125,22.03033Q18.07026903125,21.9781,18.029230031250002,21.91668Q17.98819103125,21.85526,17.95992203125,21.787010000000002Q17.93165403125,21.71877,17.91724303125,21.64632Q17.90283203125,21.57387,17.90283203125,21.5Q17.90283203125,21.42613,17.91724303125,21.35368Q17.93165403125,21.28123,17.95992203125,21.212989999999998Q17.98819103125,21.14474,18.029230031250002,21.08332Q18.07026903125,21.0219,18.12250203125,20.96967Q18.174735031250002,20.91744,18.23615403125,20.8764Q18.29757403125,20.83536,18.36581903125,20.80709Q18.43406503125,20.77882,18.50651403125,20.764409999999998Q18.57896353125,20.75,18.65283203125,20.75Q18.82542103125,20.75,18.94746003125,20.62796Q19.06949903125,20.50592,19.06949903125,20.33333L19.06945803125,16.6667Q19.06945803125,16.494076,18.94742003125,16.37203Q18.82540003125,16.25,18.65283203125,16.25Q18.57896353125,16.25,18.50651403125,16.235589Q18.43406503125,16.221178,18.36581903125,16.19291Q18.29757403125,16.164641,18.23615403125,16.123601999999998Q18.174735031250002,16.082563,18.12250203125,16.03033Q18.07026903125,15.978097,18.029230031250002,15.916678Q17.98819103125,15.855258,17.95992203125,15.787013Q17.93165403125,15.718767,17.91724303125,15.646318Q17.90283203125,15.5738685,17.90283203125,15.5Q17.90283203125,15.4261315,17.91724303125,15.353682Q17.93165403125,15.281233,17.95992203125,15.212987Q17.98819103125,15.144742,18.029230031250002,15.083322Q18.07026903125,15.021903,18.12250203125,14.96967Q18.174735031250002,14.917437,18.23615403125,14.876398Q18.29757403125,14.835359,18.36581903125,14.80709Q18.43406503125,14.778822,18.50651403125,14.764410999999999Q18.57896353125,14.75,18.65283203125,14.75Z" fill-rule="evenodd" fill="#13943C" fill-opacity="1"/></g><g><path d="M19.5,16.75L21.25,16.75Q21.66421,16.75,21.95711,17.042893Q22.25,17.335786,22.25,17.75L22.25,19.25Q22.25,19.66421,21.95711,19.95711Q21.66421,20.25,21.25,20.25L19.5,20.25Q19.4261315,20.25,19.353682,20.235590000000002Q19.281233,20.22118,19.212987,20.19291Q19.144742,20.16464,19.083322,20.1236Q19.021903000000002,20.08256,18.96967,20.03033Q18.917437,19.9781,18.876398000000002,19.91668Q18.835359,19.85526,18.80709,19.78701Q18.778822,19.71877,18.764411,19.64632Q18.75,19.57387,18.75,19.5Q18.75,19.42613,18.764411,19.35368Q18.778822,19.28123,18.80709,19.21299Q18.835359,19.14474,18.876398000000002,19.08332Q18.917437,19.0219,18.96967,18.96967Q19.021903000000002,18.91744,19.083322,18.8764Q19.144742,18.83536,19.212987,18.80709Q19.281233,18.77882,19.353682,18.76441Q19.4261315,18.75,19.5,18.75L20.75,18.75L20.75,18.25L19.5,18.25Q19.4261315,18.25,19.353682,18.235589Q19.281233,18.221178,19.212987,18.19291Q19.144742,18.164641,19.083322,18.123601999999998Q19.021903000000002,18.082563,18.96967,18.03033Q18.917437,17.978096999999998,18.876398000000002,17.916678Q18.835359,17.855258,18.80709,17.787013Q18.778822,17.718767,18.764411,17.646318Q18.75,17.5738685,18.75,17.5Q18.75,17.4261315,18.764411,17.353682Q18.778822,17.281233,18.80709,17.212987Q18.835359,17.144742,18.876398000000002,17.083322Q18.917437,17.021903000000002,18.96967,16.96967Q19.021903000000002,16.917437,19.083322,16.876398000000002Q19.144742,16.835359,19.212987,16.80709Q19.281233,16.778822,19.353682,16.764411Q19.4261315,16.75,19.5,16.75Z" fill-rule="evenodd" fill="#13943C" fill-opacity="1"/></g><g><path d="M14.75,20.25L15.5,20.25Q15.57387,20.25,15.64632,20.235590000000002Q15.71877,20.22118,15.78701,20.19291Q15.85526,20.16464,15.91668,20.1236Q15.9781,20.08256,16.03033,20.03033Q16.08256,19.9781,16.1236,19.91668Q16.16464,19.85526,16.19291,19.78701Q16.22118,19.71877,16.23559,19.64632Q16.25,19.57387,16.25,19.5Q16.25,19.42613,16.23559,19.35368Q16.22118,19.28123,16.19291,19.21299Q16.16464,19.14474,16.1236,19.08332Q16.08256,19.0219,16.03033,18.96967Q15.9781,18.91744,15.91668,18.8764Q15.85526,18.83536,15.78701,18.80709Q15.71877,18.77882,15.64632,18.76441Q15.57387,18.75,15.5,18.75L15.25,18.75L15.25,18.25L15.5,18.25Q15.57387,18.25,15.64632,18.235589Q15.71877,18.221178,15.78701,18.19291Q15.85526,18.164641,15.91668,18.123601999999998Q15.9781,18.082563,16.03033,18.03033Q16.08256,17.978096999999998,16.1236,17.916678Q16.16464,17.855258,16.19291,17.787013Q16.22118,17.718767,16.23559,17.646318Q16.25,17.5738685,16.25,17.5Q16.25,17.4261315,16.23559,17.353682Q16.22118,17.281233,16.19291,17.212987Q16.16464,17.144742,16.1236,17.083322Q16.08256,17.021903000000002,16.03033,16.96967Q15.9781,16.917437,15.91668,16.876398000000002Q15.85526,16.835359,15.78701,16.80709Q15.71877,16.778822,15.64632,16.764411Q15.57387,16.75,15.5,16.75L14.75,16.75Q14.335786,16.75,14.042893,17.042893Q13.75,17.335786,13.75,17.75L13.75,19.25Q13.75,19.66421,14.042893,19.95711Q14.335786,20.25,14.75,20.25Z" fill-rule="evenodd" fill="#13943C" fill-opacity="1"/></g></g></g></svg>