<svg xmlns="http://www.w3.org/2000/svg" xmlns:xlink="http://www.w3.org/1999/xlink" fill="none" version="1.1" width="24" height="24" viewBox="0 0 24 24"><defs><clipPath id="master_svg0_63_02842"><rect x="0" y="0" width="24" height="24" rx="0"/></clipPath></defs><g clip-path="url(#master_svg0_63_02842)"><g><path d="M13.25,3Q13.25,2.9261315,13.264410999999999,2.853682Q13.278822,2.781233,13.30709,2.712987Q13.335359,2.644742,13.376398,2.583322Q13.417437,2.521903,13.46967,2.46967Q13.521903,2.417437,13.583322,2.376398Q13.644742,2.335359,13.712987,2.30709Q13.781233,2.278822,13.853682,2.264411Q13.9261315,2.25,14,2.25Q14.0738685,2.25,14.146318,2.264411Q14.218767,2.278822,14.287013,2.30709Q14.355258,2.335359,14.416678,2.376398Q14.478097,2.417437,14.53033,2.46967Q14.582563,2.521903,14.623602,2.583322Q14.664641,2.644742,14.69291,2.712987Q14.721178,2.781233,14.735589000000001,2.853682Q14.75,2.9261315,14.75,3L14.75,7Q14.75,7.10355,14.823223,7.17678Q14.896447,7.25,15,7.25L19,7.25Q19.07387,7.25,19.14632,7.26441Q19.21877,7.27882,19.287010000000002,7.30709Q19.35526,7.33536,19.41668,7.3764Q19.4781,7.41744,19.53033,7.46967Q19.58256,7.5219,19.6236,7.58332Q19.66464,7.64474,19.69291,7.71299Q19.72118,7.78123,19.735590000000002,7.85368Q19.75,7.92613,19.75,8Q19.75,8.07387,19.735590000000002,8.14632Q19.72118,8.21877,19.69291,8.28701Q19.66464,8.355260000000001,19.6236,8.41668Q19.58256,8.478100000000001,19.53033,8.53033Q19.4781,8.58256,19.41668,8.6236Q19.35526,8.66464,19.287010000000002,8.692910000000001Q19.21877,8.72118,19.14632,8.73559Q19.07387,8.75,19,8.75L15,8.75Q14.275126,8.75,13.762563,8.23744Q13.25,7.72487,13.25,7L13.25,3Z" fill-rule="evenodd" fill="#231F2E" fill-opacity="1"/></g><g><path d="M18.25,8.31066L18.25,12.5Q18.25,12.57387,18.264400000000002,12.64632Q18.2788,12.71877,18.3071,12.78701Q18.3354,12.85526,18.3764,12.91668Q18.4174,12.9781,18.4697,13.0303Q18.521900000000002,13.0826,18.5833,13.1236Q18.6447,13.1646,18.713,13.1929Q18.7812,13.2212,18.8537,13.2356Q18.926099999999998,13.25,19,13.25Q19.073900000000002,13.25,19.1463,13.2356Q19.2188,13.2212,19.287,13.1929Q19.3553,13.1646,19.4167,13.1236Q19.478099999999998,13.0826,19.5303,13.0303Q19.5826,12.9781,19.6236,12.91668Q19.6646,12.85526,19.6929,12.78701Q19.7212,12.71877,19.735599999999998,12.64632Q19.75,12.57387,19.75,12.5L19.75,12.4988L19.75,8Q19.75,7.85082,19.6929,7.71299Q19.6358,7.57516,19.5303,7.46967L14.53033,2.46967Q14.42484,2.364181,14.28701,2.30709Q14.14919,2.25,14,2.25L7,2.25Q5.860913,2.25,5.0554564,3.0554564Q4.25,3.860913,4.25,5L4.25,19Q4.25,20.1391,5.0554563,20.9445Q5.860912,21.75,7,21.75L12,21.75Q12.07387,21.75,12.14632,21.7356Q12.21877,21.7212,12.28701,21.6929Q12.355260000000001,21.6646,12.41668,21.6236Q12.478100000000001,21.5826,12.53033,21.5303Q12.58256,21.4781,12.6236,21.4167Q12.66464,21.3553,12.692910000000001,21.287Q12.72118,21.2188,12.73559,21.1463Q12.75,21.0739,12.75,21Q12.75,20.9261,12.73559,20.8537Q12.72118,20.7812,12.692910000000001,20.713Q12.66464,20.6447,12.6236,20.5833Q12.58256,20.5219,12.53033,20.4697Q12.478100000000001,20.4174,12.41668,20.3764Q12.355260000000001,20.3354,12.28701,20.3071Q12.21877,20.2788,12.14632,20.2644Q12.07387,20.25,12,20.25L7,20.25Q6.4822299999999995,20.25,6.1161200000000004,19.8839Q5.75,19.5178,5.75,19L5.75,5Q5.75,4.4822299999999995,6.1161200000000004,4.1161200000000004Q6.4822299999999995,3.75,7,3.75L13.68934,3.75L18.25,8.31066Z" fill-rule="evenodd" fill="#231F2E" fill-opacity="1"/></g><g><path d="M16.4350388671875,14.145050000000001C15.7428488671875,13.426269999999999,13.8520288671875,13.71918,13.3995788671875,13.772359999999999C12.733988867187499,13.13336,12.281128867187501,12.361,12.1215788671875,12.09468C12.3613088671875,11.375910000000001,12.5208488671875,10.65673,12.5474388671875,9.88477C12.5474388671875,9.219182,12.281128867187501,8.5,11.5357588671875,8.5C11.2694388671875,8.5,11.0297188671875,8.659954,10.8967588671875,8.872682C10.5772588671875,9.431909,10.7102188671875,10.55036,11.2162588671875,11.695C10.9233488671875,12.52055,10.657028867187499,13.31909,9.911668867187501,14.730450000000001C9.1393088671875,15.049959999999999,7.5152138671875,15.795729999999999,7.3822593671875,16.59427C7.3290773671875,16.834,7.4088501671875004,17.073729999999998,7.5953958671875,17.25986C7.7815318671875,17.42023,8.0208498671875,17.5,8.260576867187499,17.5C9.2456688671875,17.5,10.2041688671875,16.14182,10.8701688671875,14.99718C11.429398867187501,14.81064,12.3081288671875,14.544319999999999,13.1868488671875,14.38477C14.2251288671875,15.29009,15.1304388671875,15.42304,15.6098988671875,15.42304C16.2488988671875,15.42304,16.488618867187498,15.15673,16.5683988671875,14.917C16.701348867187498,14.65109,16.6215788671875,14.35818,16.4350388671875,14.145050000000001ZM15.7694388671875,14.5975C15.7428488671875,14.78405,15.5031288671875,14.97018,15.0772588671875,14.86382C14.5712188671875,14.73086,14.1187588671875,14.49114,13.7190788671875,14.17164C14.0651688671875,14.11845,14.837528867187501,14.03868,15.3967588671875,14.145050000000001C15.6098988671875,14.198229999999999,15.8226288671875,14.33118,15.7694388671875,14.5975ZM11.3226188671875,9.112409C11.3758088671875,9.032636,11.4555788671875,8.979454,11.5357588671875,8.979454C11.7754888671875,8.979454,11.828668867187499,9.272364,11.828668867187499,9.51209C11.8020788671875,10.07132,11.6957188671875,10.63055,11.509168867187501,11.16318C11.1098988671875,10.0975,11.1896688671875,9.352136,11.3226188671875,9.112409ZM11.2694388671875,14.277999999999999C11.482578867187499,13.85214,11.7754888671875,13.106359999999999,11.8818488671875,12.78686C12.1215788671875,13.18614,12.5208488671875,13.66559,12.733988867187499,13.878730000000001C12.733988867187499,13.90532,11.908438867187499,14.06527,11.2694388671875,14.277999999999999ZM9.6985288671875,15.34327C9.0861188671875,16.35496,8.4471188671875,16.99437,8.1010318671875,16.99437C8.0478498671875,16.99437,7.9946678671875,16.967779999999998,7.9410768671875,16.94118C7.8613048671875,16.887999999999998,7.8347138671875,16.80822,7.8613048671875,16.70146C7.9410768671875,16.32836,8.6332588671875,15.822320000000001,9.6985288671875,15.34327Z" fill="#E53935" fill-opacity="1" style="mix-blend-mode:passthrough"/></g><g><g><path d="M22.94455829875946,22.94454Q23.75000829875946,22.13909,23.75000829875946,21L23.75000829875946,17Q23.75000829875946,15.860912,22.94455829875946,15.055456Q22.13909829875946,14.25,21.00000829875946,14.25L16.29412829875946,14.25Q15.15504129875946,14.25,14.34958429875946,15.055456Q13.54412829875946,15.860913,13.54412829875946,17L13.54412829875946,21Q13.54412829875946,22.13909,14.349585298759461,22.94454Q15.15504129875946,23.75,16.29412829875946,23.75L21.00000829875946,23.75Q22.13909829875946,23.75,22.94455829875946,22.94454ZM20.25000829875946,20.25L20.25000829875946,17.75L17.04412829875946,17.75L17.04412829875946,20.25L20.25000829875946,20.25Z" fill-rule="evenodd" fill="#FFFFFF" fill-opacity="1"/></g><g><path d="M15.29412829875946,21C15.29412829875946,21.55228,15.741843298759461,22,16.29412829875946,22L21.00000829875946,22C21.55229829875946,22,22.00000829875946,21.55228,22.00000829875946,21L22.00000829875946,17C22.00000829875946,16.447715,21.55229829875946,16,21.00000829875946,16L16.29412829875946,16C15.741843298759461,16,15.29412829875946,16.447715,15.29412829875946,17L15.29412829875946,21Z" fill="#E53935" fill-opacity="1"/><path d="M22.23744829875946,22.23744Q22.75000829875946,21.72487,22.75000829875946,21L22.75000829875946,17Q22.75000829875946,16.275126,22.23744829875946,15.762563Q21.72488829875946,15.25,21.00000829875946,15.25L16.29412829875946,15.25Q15.56925429875946,15.25,15.05669129875946,15.762563Q14.54412829875946,16.275126,14.54412829875946,17L14.54412829875946,21Q14.54412829875946,21.72487,15.05669129875946,22.23744Q15.56925529875946,22.75,16.29412829875946,22.75L21.00000829875946,22.75Q21.72488829875946,22.75,22.23744829875946,22.23744ZM21.25000829875946,17L21.25000829875946,21Q21.25000829875946,21.25,21.00000829875946,21.25L16.29412829875946,21.25Q16.04412829875946,21.25,16.04412829875946,21L16.04412829875946,17Q16.04412829875946,16.75,16.29412829875946,16.75L21.00000829875946,16.75Q21.25000829875946,16.75,21.25000829875946,17Z" fill-rule="evenodd" fill="#E53935" fill-opacity="1"/></g><g><path d="M19.704889293823243,20.764927194595337L19.705279293823242,20.765317194595337Q19.775609293823244,20.83564719459534,19.86748929382324,20.873707194595337Q19.959379293823243,20.91176719459534,20.058829293823244,20.91176719459534Q20.10807929382324,20.91176719459534,20.156379293823242,20.902157194595336Q20.20467929382324,20.892547194595338,20.250179293823244,20.873707194595337Q20.29566929382324,20.854857194595336,20.33661929382324,20.827497194595338Q20.377569293823242,20.800137194595337,20.412389293823242,20.765317194595337Q20.447209293823242,20.730497194595337,20.474569293823244,20.689547194595338Q20.501929293823242,20.648607194595336,20.520769293823243,20.60310719459534Q20.539619293823243,20.557607194595338,20.54922929382324,20.509307194595337Q20.558829293823244,20.461007194595336,20.558829293823244,20.41176719459534Q20.558829293823244,20.312307194595338,20.520769293823243,20.220427194595338Q20.48270929382324,20.12853719459534,20.412389293823242,20.058207194595337L18.64767929382324,18.293506194595338Q18.24997929382324,17.910677194595337,17.76471929382324,17.910677194595337Q17.27944929382324,17.910677194595337,16.888609293823244,18.286777194595338L13.989674293823242,21.185607194595338Q13.919349293823242,21.255927194595337,13.881289293823242,21.347817194595336Q13.843229293823242,21.439697194595336,13.843229293823242,21.539157194595337Q13.843229293823242,21.588397194595338,13.852836293823243,21.636697194595335Q13.862444293823241,21.684997194595336,13.881289293823242,21.730497194595337Q13.900135293823242,21.775997194595337,13.927494293823242,21.816937194595337Q13.954854293823242,21.857887194595335,13.989676293823242,21.89270719459534Q14.024498293823243,21.927527194595335,14.065444293823242,21.954887194595337Q14.106390293823242,21.982247194595338,14.151887293823242,22.00109719459534Q14.197384293823243,22.019937194595336,14.245684193823243,22.029547194595338Q14.293983593823242,22.039157194595337,14.343229293823242,22.039157194595337Q14.442685893823242,22.039157194595337,14.534572293823242,22.00109719459534Q14.626457293823242,21.963037194595337,14.696784293823242,21.89270719459534L17.58199929382324,19.00734219459534Q17.76471929382324,18.831515194595337,17.94057929382324,19.00061319459534L19.704889293823243,20.764927194595337Z" fill-rule="evenodd" fill="#FFFFFF" fill-opacity="1"/></g><g><path d="M22.88077929382324,21.68579902862549L22.881039293823243,21.68605902862549Q22.95135929382324,21.75637902862549,23.04324929382324,21.79443902862549Q23.13512929382324,21.832499028625488,23.23458929382324,21.832499028625488Q23.283829293823242,21.832499028625488,23.332129293823243,21.82288902862549Q23.38042929382324,21.813289028625487,23.42592929382324,21.79443902862549Q23.471429293823242,21.77559902862549,23.51236929382324,21.748239028625488Q23.553319293823243,21.72087902862549,23.588139293823243,21.68605902862549Q23.622959293823243,21.651229028625487,23.65031929382324,21.610289028625488Q23.677679293823243,21.56933902862549,23.696529293823243,21.52383902862549Q23.715369293823244,21.478349028625487,23.724979293823242,21.43004902862549Q23.73458929382324,21.38174902862549,23.73458929382324,21.332499028625488Q23.73458929382324,21.233039028625488,23.696529293823243,21.141159028625488Q23.658459293823242,21.04926902862549,23.588139293823243,20.97894902862549L23.587879293823242,20.97868902862549L21.60854929382324,18.99938502862549Q21.21084929382324,18.61655902862549,20.72558229382324,18.61655902862549Q20.240317293823242,18.61655902862549,19.84947630382324,18.99265902862549L19.48983229382324,19.352173028625486L19.48967629382324,19.352329028625487Q19.41934929382324,19.42265502862549,19.381289293823244,19.514541028625487Q19.343229293823242,19.60642602862549,19.343229293823242,19.70588302862549Q19.343229293823242,19.75512802862549,19.35283629382324,19.80342802862549Q19.36244429382324,19.85172702862549,19.381289293823244,19.897224028625487Q19.400135293823244,19.94272102862549,19.42749429382324,19.98366702862549Q19.454854293823242,20.02461402862549,19.48967629382324,20.059436028625488Q19.524498293823243,20.09425802862549,19.56544429382324,20.12161902862549Q19.606390293823242,20.148979028625487,19.651887293823243,20.167819028625487Q19.69738429382324,20.186669028625488,19.74568419382324,20.19627902862549Q19.793983593823242,20.20587902862549,19.843229293823242,20.20587902862549Q19.94268549382324,20.20587902862549,20.03457129382324,20.167819028625487Q20.126456293823242,20.12975902862549,20.196782293823244,20.059436028625488L20.19684929382324,20.05936902862549L20.542864293823243,19.71322402862549Q20.72558229382324,19.537397028625488,20.90143929382324,19.70649802862549L22.88077929382324,21.68579902862549Z" fill-rule="evenodd" fill="#FFFFFF" fill-opacity="1"/></g><g><ellipse cx="20.093229293823242" cy="16.75" rx="0.75" ry="0.75" fill="#FFFFFF" fill-opacity="1"/></g></g></g></svg>