<svg xmlns="http://www.w3.org/2000/svg" xmlns:xlink="http://www.w3.org/1999/xlink" fill="none" version="1.1" width="24" height="24" viewBox="0 0 24 24"><defs><clipPath id="master_svg0_72_03188"><rect x="0" y="0" width="24" height="24" rx="0"/></clipPath><clipPath id="master_svg1_75_02979"><rect x="1" y="1" width="22" height="22" rx="0"/></clipPath></defs><g clip-path="url(#master_svg0_72_03188)"><g clip-path="url(#master_svg1_75_02979)"><g></g><g><path d="M7.58333,12.74998298828125L7.58333,15.66664298828125Q7.58333,15.74051298828125,7.59774,15.81296298828125Q7.61215,15.88541298828125,7.640420000000001,15.953652988281249Q7.66869,16.021902988281248,7.70973,16.08332298828125Q7.75077,16.14474298828125,7.803,16.19697298828125Q7.85524,16.24920298828125,7.91666,16.29024298828125Q7.97807,16.33128298828125,8.04632,16.35955298828125Q8.11457,16.38782298828125,8.18702,16.40223298828125Q8.25946,16.41664298828125,8.33333,16.41664298828125Q8.4072,16.41664298828125,8.47965,16.40223298828125Q8.5521,16.38782298828125,8.62035,16.35955298828125Q8.68859,16.33128298828125,8.75001,16.29024298828125Q8.81143,16.24920298828125,8.86366,16.19697298828125Q8.9159,16.14474298828125,8.95694,16.08332298828125Q8.997969999999999,16.021902988281248,9.02624,15.953652988281249Q9.05451,15.88541298828125,9.06892,15.81296298828125Q9.08333,15.74051298828125,9.08333,15.66664298828125L9.08333,10.62498298828125Q9.08333,9.36508298828125,8.192450000000001,8.47419598828125Q7.30157,7.58331298828125,6.04167,7.58331298828125Q4.78177,7.58331298828125,3.890884,8.47419598828125Q3,9.36508298828125,3,10.62498298828125L3,11.99998298828125L3,15.66664298828125Q3,15.74051298828125,3.014411,15.81296298828125Q3.028822,15.88541298828125,3.05709,15.953652988281249Q3.085359,16.021902988281248,3.126398,16.08332298828125Q3.167437,16.14474298828125,3.21967,16.19697298828125Q3.271903,16.24920298828125,3.333322,16.29024298828125Q3.394742,16.33128298828125,3.462987,16.35955298828125Q3.531233,16.38782298828125,3.603682,16.40223298828125Q3.6761315,16.41664298828125,3.75,16.41664298828125Q3.8238685,16.41664298828125,3.896318,16.40223298828125Q3.968767,16.38782298828125,4.037013,16.35955298828125Q4.105258,16.33128298828125,4.166678,16.29024298828125Q4.228097,16.24920298828125,4.28033,16.19697298828125Q4.332563,16.14474298828125,4.373602,16.08332298828125Q4.414641,16.021902988281248,4.44291,15.953652988281249Q4.471178,15.88541298828125,4.485589,15.81296298828125Q4.5,15.74051298828125,4.5,15.66664298828125L4.5,12.74998298828125L7.58333,12.74998298828125ZM7.58333,11.24998298828125L7.58333,10.62498298828125Q7.58333,9.98640298828125,7.1317900000000005,9.53485298828125Q6.68025,9.08331298828125,6.04167,9.08331298828125Q5.40309,9.08331298828125,4.95154,9.53485298828125Q4.5,9.98640298828125,4.5,10.62498298828125L4.5,11.24998298828125L7.58333,11.24998298828125Z" fill-rule="evenodd" fill="#231F2E" fill-opacity="1" style="mix-blend-mode:passthrough"/></g><g transform="matrix(0.24253569543361664,0.9701425433158875,-0.9701425433158875,0.24253569543361664,25.308717570893037,-0.35596668826060807)"><path d="M14.094964682006836,16.211317806335448Q14.117364682006835,16.121748306335448,14.117364682006835,16.02942180633545Q14.117364682006835,15.95555330633545,14.102954682006835,15.883103806335448Q14.088534682006836,15.81065480633545,14.060274682006836,15.74240880633545Q14.032004682006836,15.67416380633545,13.990964682006837,15.61274380633545Q13.949924682006836,15.55132480633545,13.897694682006836,15.49909180633545Q13.845457682006836,15.446858806335449,13.784038682006836,15.40581980633545Q13.722618682006836,15.36478080633545,13.654373682006836,15.33651180633545Q13.586127682006836,15.30824380633545,13.513678682006836,15.293832806335448Q13.441229682006837,15.27942180633545,13.367360682006836,15.27942180633545Q13.305070682006836,15.27942180633545,13.243632682006837,15.289697806335449Q13.182195682006835,15.29997380633545,13.123295682006836,15.320244806335449Q13.064395682006836,15.34051580633545,13.009646682006835,15.370224806335449Q12.954897482006835,15.39993480633545,12.905799782006836,15.43826980633545Q12.856702082006835,15.476603806335449,12.814601182006836,15.522512806335449Q12.772500682006836,15.568421806335449,12.738549682006836,15.62064780633545Q12.704599682006837,15.67287280633545,12.679729682006837,15.729983806335449Q12.654860682006836,15.78709480633545,12.639752682006836,15.84752580633545L12.639728682006837,15.84762280633545L12.154706682006836,17.78777180633545Q12.132314682006836,17.877341806335448,12.132314682006836,17.969671806335448Q12.132314682006836,18.043531806335448,12.146725682006835,18.115981806335448Q12.161136682006836,18.188431806335448,12.189404682006836,18.25668180633545Q12.217673682006836,18.32492180633545,12.258712682006836,18.386341806335448Q12.299751682006836,18.44776180633545,12.351984682006837,18.500001806335447Q12.404217682006836,18.55223180633545,12.465636682006837,18.593271806335448Q12.527056682006837,18.63431180633545,12.595301682006836,18.66257180633545Q12.663547682006836,18.69084180633545,12.735996682006835,18.70525180633545Q12.808446182006836,18.719671806335448,12.882314682006836,18.719671806335448Q12.944605382006836,18.719671806335448,13.006042682006836,18.70939180633545Q13.067479682006836,18.69911180633545,13.126379682006837,18.67884180633545Q13.185279682006836,18.65857180633545,13.240029682006837,18.62886180633545Q13.294778682006836,18.59915180633545,13.343875682006836,18.56082180633545Q13.392973682006836,18.52248180633545,13.435074682006835,18.47657180633545Q13.477175682006836,18.43066180633545,13.511125682006837,18.37844180633545Q13.545076682006837,18.32621180633545,13.569945682006836,18.26910180633545Q13.594815682006836,18.211991806335448,13.609922682006836,18.15156180633545L13.609986682006836,18.15131180633545L14.094964682006836,16.211317806335448Z" fill-rule="evenodd" fill="#2882FF" fill-opacity="1"/></g><g><path d="M18.41668701171875,11.24998298828125Q18.86541701171875,11.24998298828125,19.18271701171875,10.93268298828125Q19.50001701171875,10.61537298828125,19.50001701171875,10.16664298828125Q19.50001701171875,9.71791298828125,19.18271701171875,9.40061298828125Q18.86541701171875,9.08331298828125,18.41668701171875,9.08331298828125L16.41668701171875,9.08331298828125L16.41668701171875,11.24998298828125L18.41668701171875,11.24998298828125ZM14.91668701171875,11.99998298828125L14.91668701171875,8.33331298828125Q14.91668701171875,8.25944448828125,14.931098011718749,8.18699498828125Q14.94550901171875,8.11454598828125,14.97377701171875,8.04629998828125Q15.00204601171875,7.97805498828125,15.04308501171875,7.91663498828125Q15.08412401171875,7.85521598828125,15.13635701171875,7.80298298828125Q15.18859001171875,7.75074998828125,15.25000901171875,7.70971098828125Q15.31142901171875,7.66867198828125,15.37967401171875,7.64040298828125Q15.44792001171875,7.61213498828125,15.52036901171875,7.59772398828125Q15.59281851171875,7.58331298828125,15.66668701171875,7.58331298828125L18.41668701171875,7.58331298828125Q19.486737011718752,7.58331298828125,20.24337701171875,8.33995391828125Q21.00001701171875,9.09659498828125,21.00001701171875,10.16664298828125Q21.00001701171875,11.23669298828125,20.24337701171875,11.993342988281249Q20.24004701171875,11.99666298828125,20.23671701171875,11.99998298828125Q20.24004701171875,12.003292988281249,20.24337701171875,12.00662298828125Q21.00001701171875,12.76326298828125,21.00001701171875,13.83331298828125Q21.00001701171875,14.90336298828125,20.24337701171875,15.66000298828125Q19.486737011718752,16.41664298828125,18.41668701171875,16.41664298828125L15.66668701171875,16.41664298828125Q15.59281851171875,16.41664298828125,15.52036901171875,16.40223298828125Q15.44792001171875,16.38782298828125,15.37967401171875,16.35955298828125Q15.31142901171875,16.33128298828125,15.25000901171875,16.29024298828125Q15.18859001171875,16.24920298828125,15.13635701171875,16.19697298828125Q15.08412401171875,16.14474298828125,15.04308501171875,16.08332298828125Q15.00204601171875,16.021902988281248,14.97377701171875,15.953652988281249Q14.94550901171875,15.88541298828125,14.931098011718749,15.81296298828125Q14.91668701171875,15.74051298828125,14.91668701171875,15.66664298828125L14.91668701171875,11.99998298828125ZM18.41685701171875,12.74998298828125L16.41668701171875,12.74998298828125L16.41668701171875,14.91664298828125L18.41668701171875,14.91664298828125Q18.86541701171875,14.91664298828125,19.18271701171875,14.59934298828125Q19.50001701171875,14.282042988281251,19.50001701171875,13.83331298828125Q19.50001701171875,13.384582988281249,19.18271701171875,13.06728298828125Q18.86547701171875,12.750042988281251,18.41685701171875,12.74998298828125Z" fill-rule="evenodd" fill="#231F2E" fill-opacity="1" style="mix-blend-mode:passthrough"/></g></g></g></svg>