<svg xmlns="http://www.w3.org/2000/svg" xmlns:xlink="http://www.w3.org/1999/xlink" fill="none" version="1.1" width="24" height="24" viewBox="0 0 24 24"><defs><clipPath id="master_svg0_72_03845"><rect x="0" y="0" width="24" height="24" rx="0"/></clipPath><clipPath id="master_svg1_75_05854"><rect x="1" y="1" width="22" height="22" rx="0"/></clipPath></defs><g clip-path="url(#master_svg0_72_03845)"><g clip-path="url(#master_svg1_75_05854)"><g></g><g><path d="M14.75,7.58331298828125Q14.6761315,7.58331298828125,14.603682,7.59772398828125Q14.531233,7.61213498828125,14.462987,7.64040298828125Q14.394742,7.66867198828125,14.333322,7.70971098828125Q14.271903,7.75074998828125,14.21967,7.80298298828125Q14.167437,7.85521598828125,14.126398,7.91663498828125Q14.085359,7.97805498828125,14.05709,8.04629998828125Q14.028822,8.11454598828125,14.014410999999999,8.18699498828125Q14,8.25944448828125,14,8.33331298828125Q14,8.40718148828125,14.014410999999999,8.47963098828125Q14.028822,8.55207998828125,14.05709,8.62032598828125Q14.085359,8.68857098828125,14.126398,8.74999098828125Q14.167437,8.81140998828125,14.21967,8.86364298828125Q14.271903,8.91587598828125,14.333322,8.95691498828125Q14.394742,8.99795398828125,14.462987,9.02622298828125Q14.531233,9.05449098828125,14.603682,9.068901988281251Q14.6761315,9.08331298828125,14.75,9.08331298828125L14.75916688,9.08331298828125Q14.8330354,9.08331298828125,14.905485,9.068901988281251Q14.977934,9.05449098828125,15.046179,9.02622298828125Q15.114425,8.99795398828125,15.175844,8.95691498828125Q15.237264,8.91587598828125,15.289497,8.86364298828125Q15.34173,8.81140998828125,15.382769,8.74999098828125Q15.423808,8.68857098828125,15.452076,8.62032598828125Q15.480345,8.55207998828125,15.494756,8.47963098828125Q15.509167,8.40718148828125,15.509167,8.33331298828125Q15.509167,8.25944448828125,15.494756,8.18699498828125Q15.480345,8.11454598828125,15.452076,8.04629998828125Q15.423808,7.97805498828125,15.382769,7.91663498828125Q15.34173,7.85521598828125,15.289497,7.80298298828125Q15.237264,7.75074998828125,15.175845,7.70971098828125Q15.114425,7.66867198828125,15.046179,7.64040298828125Q14.977934,7.61213498828125,14.905485,7.59772398828125Q14.8330354,7.58331298828125,14.7591669,7.58331298828125L14.75,7.58331298828125Z" fill-rule="evenodd" fill="#2882FF" fill-opacity="1"/></g><g><path d="M9.96267,11.02335064453125L13.303,14.36368564453125Q13.40849,14.46917564453125,13.54632,14.52626564453125Q13.684149999999999,14.583355644531249,13.83333,14.583355644531249Q13.9072,14.583355644531249,13.97965,14.56894564453125Q14.0521,14.55453564453125,14.12035,14.52626564453125Q14.18859,14.497995644531251,14.25001,14.45695564453125Q14.31143,14.41591564453125,14.36366,14.36368564453125Q14.4159,14.31145564453125,14.45694,14.25003564453125Q14.497969999999999,14.18861564453125,14.52624,14.120365644531251Q14.55451,14.05212564453125,14.56892,13.97967564453125Q14.58333,13.90722564453125,14.58333,13.83335564453125Q14.58333,13.68416564453125,14.52624,13.54634564453125Q14.469149999999999,13.40851564453125,14.36366,13.30302564453125L14.36314,13.30249564453125L11.02333,9.96269064453125Q10.47893,9.41778564453125,9.70833,9.41778564453125Q8.93773,9.41778564453125,8.39309,9.96293964453125L5.96967,12.38635564453125Q5.864181,12.49184564453125,5.80709,12.62967564453125Q5.75,12.76750564453125,5.75,12.916685644531249Q5.75,12.99055564453125,5.764411,13.06300564453125Q5.778822,13.13545564453125,5.80709,13.20369564453125Q5.835359,13.27194564453125,5.876398,13.33336564453125Q5.917437,13.39478564453125,5.96967,13.44701564453125Q6.021903,13.49925564453125,6.083322,13.54028564453125Q6.144742,13.58132564453125,6.212987,13.60959564453125Q6.281233,13.63786564453125,6.353682,13.652275644531251Q6.4261315,13.666685644531249,6.5,13.666685644531249Q6.649184,13.666685644531249,6.787013,13.60959564453125Q6.924841,13.55250564453125,7.03033,13.44701564453125L9.45425,11.02310264453125Q9.55946,10.91778564453125,9.70833,10.91778564453125Q9.8572,10.91778564453125,9.96267,11.02335064453125Z" fill-rule="evenodd" fill="#2882FF" fill-opacity="1"/></g><g><path d="M15.46268701171875,11.94003765625L16.96916701171875,13.44651265625L16.96968701171875,13.44704265625Q17.07517701171875,13.55252265625,17.21300701171875,13.60961265625Q17.35083701171875,13.66671265625,17.50001701171875,13.66671265625Q17.57388701171875,13.66671265625,17.64633701171875,13.652292656250001Q17.71878701171875,13.63788265625,17.787037011718752,13.60961265625Q17.855277011718748,13.58135265625,17.91669701171875,13.54031265625Q17.97811701171875,13.49927265625,18.03034701171875,13.44704265625Q18.08258701171875,13.39480265625,18.12362701171875,13.33338265625Q18.16465701171875,13.27196265625,18.19292701171875,13.203722656250001Q18.22119701171875,13.13547265625,18.23560701171875,13.06302265625Q18.25001701171875,12.99057265625,18.25001701171875,12.91671265625Q18.25001701171875,12.76752265625,18.19292701171875,12.62969265625Q18.13583701171875,12.49186265625,18.03034701171875,12.38638265625L18.03005701171875,12.38608265625L16.52334701171875,10.87937765625Q15.97895701171875,10.33447265625,15.20835701171875,10.33447265625Q14.43774701171875,10.33447265625,13.89310801171875,10.87962665625L12.38651101171875,12.38622265625L12.38635701171875,12.38638265625Q12.28086801171875,12.49186265625,12.22377701171875,12.62969265625Q12.16668701171875,12.76752265625,12.16668701171875,12.91671265625Q12.16668701171875,12.99057265625,12.181098011718749,13.06302265625Q12.19550901171875,13.13547265625,12.22377701171875,13.203722656250001Q12.25204601171875,13.27196265625,12.29308501171875,13.33338265625Q12.33412401171875,13.39480265625,12.38635701171875,13.44704265625Q12.43859001171875,13.49927265625,12.50000901171875,13.54031265625Q12.56142901171875,13.58135265625,12.62967401171875,13.60961265625Q12.69792001171875,13.63788265625,12.77036901171875,13.652292656250001Q12.84281851171875,13.66671265625,12.91668701171875,13.66671265625Q13.06587101171875,13.66671265625,13.20370001171875,13.60962265625Q13.34152801171875,13.55252265625,13.44701701171875,13.44704265625L14.95426701171875,11.93978965625Q15.05948701171875,11.83447265625,15.20835701171875,11.83447265625Q15.35722701171875,11.83447265625,15.46268701171875,11.94003765625Z" fill-rule="evenodd" fill="#2882FF" fill-opacity="1"/></g><g><path d="M6.50001701171875,5.41668701171875L8.33335701171875,5.41668701171875Q8.40721701171875,5.41668701171875,8.47966701171875,5.40227601171875Q8.55211701171875,5.38786501171875,8.62036701171875,5.35959701171875Q8.68860701171875,5.33132801171875,8.75002701171875,5.29028901171875Q8.81144701171875,5.24925001171875,8.86368701171875,5.19701701171875Q8.91591701171875,5.14478401171875,8.95695701171875,5.08336501171875Q8.99799701171875,5.02194501171875,9.026267011718751,4.95370001171875Q9.05452701171875,4.88545401171875,9.06894701171875,4.81300501171875Q9.08335701171875,4.74055551171875,9.08335701171875,4.66668701171875Q9.08335701171875,4.59281851171875,9.06894701171875,4.52036901171875Q9.05452701171875,4.44792001171875,9.026267011718751,4.37967401171875Q8.99799701171875,4.31142901171875,8.95695701171875,4.25000901171875Q8.91591701171875,4.18859001171875,8.86368701171875,4.13635701171875Q8.81144701171875,4.08412401171875,8.75002701171875,4.04308501171875Q8.68860701171875,4.00204601171875,8.62036701171875,3.97377701171875Q8.55211701171875,3.94550901171875,8.47966701171875,3.93109801171875Q8.40722701171875,3.91668701171875,8.33335701171875,3.91668701171875L6.50001701171875,3.91668701171875Q5.42996901171875,3.91668701171875,4.67332772171875,4.67332777171875Q3.91668701171875,5.42996801171875,3.91668701171875,6.50001701171875L3.91668701171875,8.33335701171875Q3.91668701171875,8.40721701171875,3.93109801171875,8.47966701171875Q3.94550901171875,8.55211701171875,3.97377701171875,8.62036701171875Q4.00204601171875,8.68860701171875,4.04308501171875,8.75002701171875Q4.08412401171875,8.81144701171875,4.13635701171875,8.86368701171875Q4.18859001171875,8.91591701171875,4.25000901171875,8.95695701171875Q4.31142901171875,8.99799701171875,4.37967401171875,9.026267011718751Q4.44792001171875,9.05452701171875,4.52036901171875,9.06894701171875Q4.59281851171875,9.08335701171875,4.66668701171875,9.08335701171875Q4.74055551171875,9.08335701171875,4.81300501171875,9.06894701171875Q4.88545401171875,9.05452701171875,4.95370001171875,9.026267011718751Q5.02194501171875,8.99799701171875,5.08336501171875,8.95695701171875Q5.14478401171875,8.91591701171875,5.19701701171875,8.86368701171875Q5.24925001171875,8.81144701171875,5.29028901171875,8.75002701171875Q5.33132801171875,8.68860701171875,5.35959701171875,8.62036701171875Q5.38786501171875,8.55211701171875,5.40227601171875,8.47966701171875Q5.41668701171875,8.40722701171875,5.41668701171875,8.33335701171875L5.41668701171875,6.50001701171875Q5.41668701171875,6.05128701171875,5.7339870117187495,5.7339870117187495Q6.05128701171875,5.41668701171875,6.50001701171875,5.41668701171875Z" fill-rule="evenodd" fill="#231F2E" fill-opacity="1"/></g><g><path d="M3.91668701171875,15.66668701171875Q3.91668701171875,15.59281851171875,3.93109801171875,15.52036901171875Q3.94550901171875,15.44792001171875,3.97377701171875,15.37967401171875Q4.00204601171875,15.31142901171875,4.04308501171875,15.25000901171875Q4.08412401171875,15.18859001171875,4.13635701171875,15.13635701171875Q4.18859001171875,15.08412401171875,4.25000901171875,15.04308501171875Q4.31142901171875,15.00204601171875,4.37967401171875,14.97377701171875Q4.44792001171875,14.94550901171875,4.52036901171875,14.931098011718749Q4.59281851171875,14.91668701171875,4.66668701171875,14.91668701171875Q4.74055551171875,14.91668701171875,4.81300501171875,14.931098011718749Q4.88545401171875,14.94550901171875,4.95370001171875,14.97377701171875Q5.02194501171875,15.00204601171875,5.08336501171875,15.04308501171875Q5.14478401171875,15.08412401171875,5.19701701171875,15.13635701171875Q5.24925001171875,15.18859001171875,5.29028901171875,15.25000901171875Q5.33132801171875,15.31142901171875,5.35959701171875,15.37967401171875Q5.38786501171875,15.44792001171875,5.40227601171875,15.52036901171875Q5.41668701171875,15.59281851171875,5.41668701171875,15.66668701171875L5.41668701171875,17.50001701171875Q5.41668701171875,17.94875701171875,5.7339870117187495,18.26605701171875Q6.05128701171875,18.58335701171875,6.50001701171875,18.58335701171875L8.33335701171875,18.58335701171875Q8.40721701171875,18.58335701171875,8.47966701171875,18.59776701171875Q8.55211701171875,18.61217701171875,8.62036701171875,18.64044701171875Q8.68860701171875,18.66870701171875,8.75002701171875,18.70974701171875Q8.81144701171875,18.75078701171875,8.86368701171875,18.80302701171875Q8.91591701171875,18.85525701171875,8.95695701171875,18.91667701171875Q8.99799701171875,18.97809701171875,9.026267011718751,19.046337011718748Q9.05452701171875,19.11458701171875,9.06894701171875,19.18703701171875Q9.08335701171875,19.25948701171875,9.08335701171875,19.33335701171875Q9.08335701171875,19.40722701171875,9.06894701171875,19.47966701171875Q9.05452701171875,19.55211701171875,9.026267011718751,19.62036701171875Q8.99799701171875,19.68860701171875,8.95695701171875,19.75002701171875Q8.91591701171875,19.811447011718748,8.86368701171875,19.86368701171875Q8.81144701171875,19.91591701171875,8.75002701171875,19.95695701171875Q8.68860701171875,19.997997011718752,8.62036701171875,20.02626701171875Q8.55211701171875,20.05452701171875,8.47966701171875,20.06894701171875Q8.40722701171875,20.08335701171875,8.33335701171875,20.08335701171875L8.33250701171875,20.08335701171875L6.50001701171875,20.08335701171875Q5.42996901171875,20.08335701171875,4.67332783171875,19.32671701171875Q3.91668701171875,18.57007701171875,3.91668701171875,17.50001701171875L3.91668701171875,15.66668701171875Z" fill-rule="evenodd" fill="#231F2E" fill-opacity="1"/></g><g><path d="M15.66668701171875,3.91668701171875L17.50001701171875,3.91668701171875Q18.57007701171875,3.91668701171875,19.32671701171875,4.67332783171875Q20.08335701171875,5.42996901171875,20.08335701171875,6.50001701171875L20.08335701171875,8.33335701171875Q20.08335701171875,8.40721701171875,20.06894701171875,8.47966701171875Q20.05452701171875,8.55211701171875,20.02626701171875,8.62036701171875Q19.997997011718752,8.68860701171875,19.95695701171875,8.75002701171875Q19.91591701171875,8.81144701171875,19.86368701171875,8.86368701171875Q19.811447011718748,8.91591701171875,19.75002701171875,8.95695701171875Q19.68860701171875,8.99799701171875,19.62036701171875,9.026267011718751Q19.55211701171875,9.05452701171875,19.47966701171875,9.06894701171875Q19.40722701171875,9.08335701171875,19.33335701171875,9.08335701171875Q19.25948701171875,9.08335701171875,19.18703701171875,9.06894701171875Q19.11458701171875,9.05452701171875,19.046337011718748,9.026267011718751Q18.97809701171875,8.99799701171875,18.91667701171875,8.95695701171875Q18.85525701171875,8.91591701171875,18.80302701171875,8.86368701171875Q18.75078701171875,8.81144701171875,18.70974701171875,8.75002701171875Q18.66871701171875,8.68860701171875,18.64044701171875,8.62036701171875Q18.61217701171875,8.55211701171875,18.59776701171875,8.47966701171875Q18.58335701171875,8.40722701171875,18.58335701171875,8.33335701171875L18.58335701171875,6.50001701171875Q18.58335701171875,6.05128701171875,18.26605701171875,5.7339870117187495Q17.94875701171875,5.41668701171875,17.50001701171875,5.41668701171875L15.66668701171875,5.41668701171875Q15.59281851171875,5.41668701171875,15.52036901171875,5.40227601171875Q15.44792001171875,5.38786501171875,15.37967401171875,5.35959701171875Q15.31142901171875,5.33132801171875,15.25000901171875,5.29028901171875Q15.18859001171875,5.24925001171875,15.13635701171875,5.19701701171875Q15.08412401171875,5.14478401171875,15.04308501171875,5.08336501171875Q15.00204601171875,5.02194501171875,14.97377701171875,4.95370001171875Q14.94550901171875,4.88545401171875,14.931098011718749,4.81300501171875Q14.91668701171875,4.74055551171875,14.91668701171875,4.66668701171875Q14.91668701171875,4.59281851171875,14.931098011718749,4.52036901171875Q14.94550901171875,4.44792001171875,14.97377701171875,4.37967401171875Q15.00204601171875,4.31142901171875,15.04308501171875,4.25000901171875Q15.08412401171875,4.18859001171875,15.13635701171875,4.13635701171875Q15.18859001171875,4.08412401171875,15.25000901171875,4.04308501171875Q15.31142901171875,4.00204601171875,15.37967401171875,3.97377701171875Q15.44792001171875,3.94550901171875,15.52036901171875,3.93109801171875Q15.59281851171875,3.91668701171875,15.66668701171875,3.91668701171875Z" fill-rule="evenodd" fill="#231F2E" fill-opacity="1"/></g><g><path d="M20.08335701171875,15.66753273971875L20.08335701171875,17.50001701171875Q20.08335701171875,18.57007701171875,19.32671701171875,19.32671701171875Q18.57007701171875,20.08335701171875,17.50001701171875,20.08335701171875L15.66668701171875,20.08335701171875Q15.59281851171875,20.08335701171875,15.52036901171875,20.06894701171875Q15.44792001171875,20.05452701171875,15.37967401171875,20.02626701171875Q15.31142901171875,19.997997011718752,15.25000901171875,19.95695701171875Q15.18859001171875,19.91591701171875,15.13635701171875,19.86368701171875Q15.08412401171875,19.811447011718748,15.04308501171875,19.75002701171875Q15.00204601171875,19.68860701171875,14.97377701171875,19.62036701171875Q14.94550901171875,19.55211701171875,14.931098011718749,19.47966701171875Q14.91668701171875,19.40722701171875,14.91668701171875,19.33335701171875Q14.91668701171875,19.25948701171875,14.931098011718749,19.18703701171875Q14.94550901171875,19.11458701171875,14.97377701171875,19.046337011718748Q15.00204601171875,18.97809701171875,15.04308501171875,18.91667701171875Q15.08412401171875,18.85525701171875,15.13635701171875,18.80302701171875Q15.18859001171875,18.75078701171875,15.25000901171875,18.70974701171875Q15.31142901171875,18.66871701171875,15.37967401171875,18.64044701171875Q15.44792001171875,18.61217701171875,15.52036901171875,18.59776701171875Q15.59281851171875,18.58335701171875,15.66668701171875,18.58335701171875L17.50001701171875,18.58335701171875Q17.94875701171875,18.58335701171875,18.26605701171875,18.26605701171875Q18.58335701171875,17.94875701171875,18.58335701171875,17.50001701171875L18.58335701171875,15.66668701171875Q18.58335701171875,15.59281851171875,18.59776701171875,15.52036901171875Q18.61217701171875,15.44792001171875,18.64044701171875,15.37967401171875Q18.66870701171875,15.31142901171875,18.70974701171875,15.25000901171875Q18.75078701171875,15.18859001171875,18.80302701171875,15.13635701171875Q18.85525701171875,15.08412401171875,18.91667701171875,15.04308501171875Q18.97809701171875,15.00204601171875,19.046337011718748,14.97377701171875Q19.11458701171875,14.94550901171875,19.18703701171875,14.931098011718749Q19.25948701171875,14.91668701171875,19.33335701171875,14.91668701171875Q19.40722701171875,14.91668701171875,19.47966701171875,14.931098011718749Q19.55211701171875,14.94550901171875,19.62036701171875,14.97377701171875Q19.68860701171875,15.00204601171875,19.75002701171875,15.04308501171875Q19.811447011718748,15.08412401171875,19.86368701171875,15.13635701171875Q19.91591701171875,15.18859001171875,19.95695701171875,15.25000901171875Q19.997997011718752,15.31142901171875,20.02626701171875,15.37967401171875Q20.05452701171875,15.44792001171875,20.06894701171875,15.52036901171875Q20.08335701171875,15.59281851171875,20.08335701171875,15.66668701171875L20.08335701171875,15.66753273971875Z" fill-rule="evenodd" fill="#231F2E" fill-opacity="1"/></g></g></g></svg>