<svg xmlns="http://www.w3.org/2000/svg" xmlns:xlink="http://www.w3.org/1999/xlink" fill="none" version="1.1" width="24" height="24" viewBox="0 0 24 24"><defs><clipPath id="master_svg0_72_02106"><rect x="0" y="0" width="24" height="24" rx="0"/></clipPath></defs><g clip-path="url(#master_svg0_72_02106)"><g><g><path d="M22.749997966308594,10L22.749997966308594,4Q22.749997966308594,3.9261315,22.735587966308593,3.853682Q22.721177966308595,3.781233,22.692907966308596,3.712987Q22.664637966308593,3.644742,22.623597966308594,3.583322Q22.582567966308595,3.521903,22.530327966308594,3.46967Q22.478097966308592,3.417437,22.416677966308594,3.376398Q22.355257966308592,3.335359,22.287017966308593,3.30709Q22.218767966308594,3.278822,22.146317966308594,3.264411Q22.073867966308594,3.25,21.999997966308594,3.25Q21.926127966308595,3.25,21.853677966308595,3.264411Q21.781237966308595,3.278822,21.712987966308592,3.30709Q21.644737966308593,3.335359,21.583327966308595,3.376398Q21.521907966308593,3.417437,21.469667966308595,3.46967Q21.417437966308594,3.521903,21.376397966308595,3.583322Q21.335357966308592,3.644742,21.307087966308593,3.712987Q21.278817966308594,3.781233,21.264407966308593,3.853682Q21.249997966308594,3.9261315,21.249997966308594,4L21.249997966308594,6.53754L19.955502966308593,3.689648Q19.924935966308595,3.6224,19.881836966308594,3.562408Q19.838737966308592,3.502416,19.784762966308595,3.451985Q19.730787966308593,3.401554,19.668011966308594,3.362622Q19.605235966308594,3.32369,19.536070966308593,3.297753Q19.466904966308594,3.271816,19.394008966308594,3.259871Q19.321112566308592,3.247926,19.247286466308594,3.250432Q19.173460466308594,3.252937,19.101541966308595,3.2697979999999998Q19.029622966308594,3.286658,18.962375966308592,3.317225Q18.864052966308595,3.361917,18.782335966308594,3.432536Q18.700618966308593,3.503154,18.642146966308594,3.593961Q18.583675966308594,3.684767,18.553201966308595,3.788382Q18.522727966308594,3.891997,18.522727966308594,4L18.522727966308594,10Q18.522727966308594,10.07387,18.537138966308593,10.14632Q18.551549966308595,10.21877,18.579817966308593,10.28701Q18.608086966308594,10.355260000000001,18.649125966308596,10.41668Q18.690164966308593,10.478100000000001,18.742397966308594,10.53033Q18.794630966308596,10.58256,18.856049966308593,10.6236Q18.917469966308595,10.66464,18.985714966308592,10.692910000000001Q19.053960966308594,10.72118,19.126409966308593,10.73559Q19.198859466308594,10.75,19.272727966308594,10.75Q19.346596466308593,10.75,19.419045966308595,10.73559Q19.491494966308593,10.72118,19.559740966308595,10.692910000000001Q19.627985966308593,10.66464,19.689405966308595,10.6236Q19.750824966308592,10.58256,19.803057966308593,10.53033Q19.855290966308594,10.478100000000001,19.896329966308592,10.41668Q19.937368966308593,10.355260000000001,19.965637966308595,10.28701Q19.993905966308592,10.21877,20.008316966308595,10.14632Q20.022727966308594,10.07387,20.022727966308594,10L20.022727966308594,7.46246L21.317227966308593,10.31035Q21.361917966308592,10.40868,21.432537966308594,10.49039Q21.503157966308592,10.57211,21.593957966308594,10.63058Q21.684767966308595,10.68905,21.788387966308594,10.719529999999999Q21.891997966308594,10.75,21.999997966308594,10.75Q22.073867966308594,10.75,22.146317966308594,10.73559Q22.218767966308594,10.72118,22.287017966308593,10.692910000000001Q22.355257966308592,10.66464,22.416677966308594,10.6236Q22.478097966308592,10.58256,22.530327966308594,10.53033Q22.582567966308595,10.478100000000001,22.623597966308594,10.41668Q22.664637966308593,10.355260000000001,22.692907966308596,10.28701Q22.721177966308595,10.21877,22.735587966308593,10.14632Q22.749997966308594,10.07387,22.749997966308594,10Z" fill-rule="evenodd" fill="#231F2E" fill-opacity="1"/></g><g><path d="M12.964336895788573,3.86081Q12.159090995788574,4.525138,12.159090995788574,5.5L12.159090995788574,8.5Q12.159090995788574,9.47486,12.964336895788573,10.13919Q13.704711995788575,10.75,14.727270995788574,10.75Q15.749830995788574,10.75,16.490210995788573,10.13919Q17.295450995788574,9.47486,17.295450995788574,8.5L17.295450995788574,5.5Q17.295450995788574,4.525138,16.490210995788573,3.86081Q15.749830995788574,3.25,14.727270995788574,3.25Q13.704712995788574,3.25,12.964336895788573,3.86081ZM13.659090995788574,8.5L13.659090995788574,5.5Q13.659090995788574,5.23222,13.918910995788574,5.01787Q14.243600995788574,4.75,14.727270995788574,4.75Q15.210940995788574,4.75,15.535630995788575,5.01787Q15.795450995788574,5.23222,15.795450995788574,5.5L15.795450995788574,8.5Q15.795450995788574,8.76778,15.535630995788575,8.98213Q15.210940995788574,9.25,14.727270995788574,9.25Q14.243600995788574,9.25,13.918910995788574,8.98213Q13.659090995788574,8.76778,13.659090995788574,8.5Z" fill-rule="evenodd" fill="#231F2E" fill-opacity="1"/></g><g><path d="M2.75,8.875L2.75,8.5Q2.75,8.42613,2.735589,8.35368Q2.721178,8.28123,2.69291,8.21299Q2.664641,8.144739999999999,2.623602,8.08332Q2.582563,8.021899999999999,2.53033,7.96967Q2.478097,7.91744,2.416678,7.8764Q2.355258,7.83536,2.287013,7.8070900000000005Q2.218767,7.77882,2.146318,7.76441Q2.0738685,7.75,2,7.75Q1.9261314999999999,7.75,1.853682,7.76441Q1.781233,7.77882,1.712987,7.8070900000000005Q1.644742,7.83536,1.583322,7.8764Q1.521903,7.91744,1.46967,7.96967Q1.417437,8.021899999999999,1.376398,8.08332Q1.335359,8.144739999999999,1.30709,8.21299Q1.278822,8.28123,1.264411,8.35368Q1.25,8.42613,1.25,8.5L1.25,8.875Q1.25,9.69453,1.9221128,10.249030000000001Q2.529356,10.75,3.36364,10.75Q4.19792,10.75,4.80516,10.249030000000001Q5.47727,9.69453,5.47727,8.875L5.47727,4Q5.47727,3.9261315,5.46286,3.853682Q5.448449999999999,3.781233,5.42018,3.712987Q5.39191,3.644742,5.3508700000000005,3.583322Q5.3098399999999994,3.521903,5.2576,3.46967Q5.20537,3.417437,5.14395,3.376398Q5.08253,3.335359,5.01429,3.30709Q4.94604,3.278822,4.87359,3.264411Q4.80114,3.25,4.72727,3.25L2,3.25Q1.9261314999999999,3.25,1.853682,3.264411Q1.781233,3.278822,1.712987,3.30709Q1.644742,3.335359,1.583322,3.376398Q1.521903,3.417437,1.46967,3.46967Q1.417437,3.521903,1.376398,3.583322Q1.335359,3.644742,1.30709,3.712987Q1.278822,3.781233,1.264411,3.853682Q1.25,3.9261315,1.25,4Q1.25,4.0738685,1.264411,4.146318Q1.278822,4.218767,1.30709,4.287013Q1.335359,4.355258,1.376398,4.416678Q1.417437,4.478097,1.46967,4.53033Q1.521903,4.582563,1.583322,4.623602Q1.644742,4.664641,1.712987,4.69291Q1.781233,4.721178,1.853682,4.735589Q1.9261314999999999,4.75,2,4.75L3.97727,4.75L3.97727,8.875Q3.97727,8.987449999999999,3.85059,9.09197Q3.65903,9.25,3.36364,9.25Q3.0682400000000003,9.25,2.876687,9.09197Q2.75,8.987449999999999,2.75,8.875Z" fill-rule="evenodd" fill="#231F2E" fill-opacity="1"/></g><g><path d="M9.433115497894287,4.794118Q9.375205497894287,4.75,9.272725497894287,4.75L8.363636497894287,4.75Q8.262302497894288,4.75,8.204545497894287,4.793139L8.204545497894287,6.20686Q8.262302497894288,6.25,8.363636497894287,6.25L9.272725497894287,6.25Q9.918725497894286,6.25,10.392835497894287,6.64114Q10.931815497894288,7.0858,10.931815497894288,7.75L10.931815497894288,9.25Q10.931815497894288,9.914200000000001,10.392835497894287,10.35886Q9.918725497894286,10.75,9.272725497894287,10.75L8.363636497894287,10.75Q7.717634497894287,10.75,7.243524497894287,10.35886Q6.704545497894287,9.914200000000001,6.704545497894287,9.25Q6.704545497894287,9.17613,6.718956497894287,9.10368Q6.733367497894287,9.03123,6.761635497894287,8.96299Q6.7899044978942875,8.894739999999999,6.830943497894287,8.83332Q6.871982497894287,8.771899999999999,6.924215497894287,8.71967Q6.976448497894287,8.66744,7.037867497894287,8.6264Q7.099287497894287,8.58536,7.167532497894287,8.557089999999999Q7.235778497894287,8.52882,7.308227497894287,8.51441Q7.380676997894287,8.5,7.454545497894287,8.5Q7.525629297894287,8.5,7.595447497894287,8.513349999999999Q7.665265497894287,8.52671,7.731331497894287,8.55294Q7.797397497894287,8.579180000000001,7.857358497894287,8.61735Q7.917319497894287,8.655529999999999,7.969040497894287,8.70429Q8.020762497894287,8.75306,8.062401497894287,8.81067Q8.104040497894287,8.86828,8.134114497894288,8.932690000000001Q8.164188497894287,8.9971,8.181626497894287,9.06601Q8.199065497894287,9.134920000000001,8.203246497894288,9.20588Q8.261158497894288,9.25,8.363636497894287,9.25L9.272725497894287,9.25Q9.374065497894287,9.25,9.431815497894288,9.206859999999999L9.431815497894288,7.79314Q9.374065497894287,7.75,9.272725497894287,7.75L8.363636497894287,7.75Q7.717633497894287,7.75,7.243524497894287,7.35886Q6.704545497894287,6.9142,6.704545497894287,6.25L6.704545497894287,4.75Q6.704545497894287,4.0857977,7.243524497894287,3.64114Q7.717634497894287,3.25,8.363636497894287,3.25L9.272725497894287,3.25Q9.918725497894286,3.25,10.392835497894287,3.64114Q10.931815497894288,4.0857975,10.931815497894288,4.75Q10.931815497894288,4.823869,10.917405497894286,4.896318Q10.902995497894286,4.968767,10.874725497894287,5.03701Q10.846455497894286,5.1052599999999995,10.805415497894288,5.1666799999999995Q10.764385497894287,5.2280999999999995,10.712145497894287,5.28033Q10.659915497894287,5.33256,10.598495497894287,5.3736Q10.537075497894287,5.41464,10.468835497894286,5.4429099999999995Q10.400585497894287,5.47118,10.328135497894287,5.48559Q10.255685497894287,5.5,10.181815497894288,5.5Q10.110735497894288,5.5,10.040915497894288,5.48665Q9.971095497894288,5.47329,9.905035497894287,5.4470600000000005Q9.838965497894288,5.42082,9.779005497894287,5.38265Q9.719045497894287,5.34447,9.667325497894288,5.29571Q9.615605497894286,5.24694,9.573965497894287,5.18933Q9.532325497894288,5.13172,9.502245497894286,5.06731Q9.472175497894288,5.0029,9.454735497894287,4.933991Q9.437295497894286,4.865079,9.433115497894287,4.794118Z" fill-rule="evenodd" fill="#231F2E" fill-opacity="1"/></g></g><g><g><g><g><path d="M10.5,13.25L13.22727,13.25Q13.30114,13.25,13.37359,13.264410999999999Q13.44604,13.278822,13.514289999999999,13.30709Q13.58253,13.335359,13.64395,13.376398Q13.70537,13.417437,13.7576,13.46967Q13.80984,13.521903,13.85087,13.583322Q13.89191,13.644742,13.92018,13.712987Q13.94845,13.781233,13.96286,13.853682Q13.97727,13.9261315,13.97727,14Q13.97727,14.0738685,13.96286,14.146318Q13.94845,14.218767,13.92018,14.287013Q13.89191,14.355258,13.85087,14.416678Q13.80984,14.478097,13.7576,14.53033Q13.70537,14.582563,13.64395,14.623602Q13.58253,14.664641,13.514289999999999,14.69291Q13.44604,14.721178,13.37359,14.735589000000001Q13.30114,14.75,13.22727,14.75L10.5,14.75Q10.4261315,14.75,10.353682,14.735589000000001Q10.281233,14.721178,10.212987,14.69291Q10.144742,14.664641,10.083322,14.623602Q10.021903,14.582563,9.96967,14.53033Q9.917437,14.478097,9.876398,14.416678Q9.835359,14.355258,9.80709,14.287013Q9.778822,14.218767,9.764410999999999,14.146318Q9.75,14.0738685,9.75,14Q9.75,13.9261315,9.764410999999999,13.853682Q9.778822,13.781233,9.80709,13.712987Q9.835359,13.644742,9.876398,13.583322Q9.917437,13.521903,9.96967,13.46967Q10.021903,13.417437,10.083322,13.376398Q10.144742,13.335359,10.212987,13.30709Q10.281233,13.278822,10.353682,13.264410999999999Q10.4261315,13.25,10.5,13.25Z" fill-rule="evenodd" fill="#2882FF" fill-opacity="1"/></g><g><path d="M11.149999618530273,14Q11.149999618530273,13.9261315,11.164410618530273,13.853682Q11.178821618530273,13.781233,11.207089618530274,13.712987Q11.235358618530274,13.644742,11.276397618530273,13.583322Q11.317436618530273,13.521903,11.369669618530274,13.46967Q11.421902618530273,13.417437,11.483321618530274,13.376398Q11.544741618530274,13.335359,11.612986618530273,13.30709Q11.681232618530274,13.278822,11.753681618530273,13.264410999999999Q11.826131118530274,13.25,11.899999618530273,13.25Q11.973868118530273,13.25,12.046317618530274,13.264410999999999Q12.118766618530273,13.278822,12.187012618530273,13.30709Q12.255257618530273,13.335359,12.316677618530273,13.376398Q12.378096618530273,13.417437,12.430329618530273,13.46967Q12.482562618530274,13.521903,12.523601618530273,13.583322Q12.564640618530273,13.644742,12.592909618530273,13.712987Q12.621177618530274,13.781233,12.635588618530274,13.853682Q12.649999618530273,13.9261315,12.649999618530273,14L12.649999618530273,20Q12.649999618530273,20.07387,12.635588618530274,20.14632Q12.621177618530274,20.21877,12.592909618530273,20.287010000000002Q12.564640618530273,20.35526,12.523601618530273,20.41668Q12.482562618530274,20.4781,12.430329618530273,20.53033Q12.378096618530273,20.58256,12.316677618530273,20.6236Q12.255257618530273,20.66464,12.187012618530273,20.69291Q12.118766618530273,20.72118,12.046317618530274,20.735590000000002Q11.973868118530273,20.75,11.899999618530273,20.75Q11.826131118530274,20.75,11.753681618530273,20.735590000000002Q11.681232618530274,20.72118,11.612986618530273,20.69291Q11.544741618530274,20.66464,11.483321618530274,20.6236Q11.421902618530273,20.58256,11.369669618530274,20.53033Q11.317436618530273,20.4781,11.276397618530273,20.41668Q11.235358618530274,20.35526,11.207089618530274,20.287010000000002Q11.178821618530273,20.21877,11.164410618530273,20.14632Q11.149999618530273,20.07387,11.149999618530273,20L11.149999618530273,14Z" fill-rule="evenodd" fill="#2882FF" fill-opacity="1"/></g></g><g><path d="M7.478586689300537,14.794118Q7.420676689300537,14.75,7.318196689300537,14.75L6.409107689300537,14.75Q6.307773689300537,14.75,6.250016689300537,14.793139L6.250016689300537,16.20686Q6.307773689300537,16.25,6.409107689300537,16.25L7.318196689300537,16.25Q7.964196689300537,16.25,8.438306689300537,16.64114Q8.977286689300538,17.0858,8.977286689300538,17.75L8.977286689300538,19.25Q8.977286689300538,19.9142,8.438306689300537,20.35886Q7.964196689300537,20.75,7.318196689300537,20.75L6.409107689300537,20.75Q5.763105689300537,20.75,5.288995689300537,20.35886Q4.750016689300537,19.9142,4.750016689300537,19.25Q4.750016689300537,19.17613,4.764427689300537,19.10368Q4.778838689300537,19.03123,4.807106689300537,18.962989999999998Q4.8353756893005375,18.89474,4.876414689300537,18.83332Q4.917453689300537,18.7719,4.969686689300537,18.71967Q5.021919689300537,18.66744,5.083338689300537,18.6264Q5.144758689300537,18.58536,5.213003689300537,18.55709Q5.281249689300537,18.52882,5.353698689300537,18.514409999999998Q5.426148189300537,18.5,5.500016689300537,18.5Q5.571100489300537,18.5,5.640918689300537,18.51335Q5.710736689300537,18.52671,5.776802689300537,18.55294Q5.842868689300537,18.57918,5.902829689300537,18.617350000000002Q5.962790689300537,18.65553,6.014511689300537,18.70429Q6.066233689300537,18.753059999999998,6.107872689300537,18.810670000000002Q6.149511689300537,18.86828,6.179585689300537,18.93269Q6.209659689300537,18.9971,6.227097689300537,19.06601Q6.244536689300537,19.13492,6.248717689300537,19.20588Q6.306629689300538,19.25,6.409107689300537,19.25L7.318196689300537,19.25Q7.4195366893005374,19.25,7.477286689300537,19.20686L7.477286689300537,17.79314Q7.4195366893005374,17.75,7.318196689300537,17.75L6.409107689300537,17.75Q5.763104689300537,17.75,5.288995689300537,17.35886Q4.750016689300537,16.9142,4.750016689300537,16.25L4.750016689300537,14.75Q4.750016689300537,14.0857977,5.288995689300537,13.64114Q5.763105689300537,13.25,6.409107689300537,13.25L7.318196689300537,13.25Q7.964196689300537,13.25,8.438306689300537,13.64114Q8.977286689300538,14.0857975,8.977286689300538,14.75Q8.977286689300538,14.823869,8.962876689300536,14.896318Q8.948466689300536,14.968767,8.920196689300537,15.03701Q8.891926689300536,15.10526,8.850886689300538,15.16668Q8.809856689300537,15.2281,8.757616689300537,15.28033Q8.705386689300537,15.33256,8.643966689300537,15.3736Q8.582546689300537,15.41464,8.514306689300536,15.44291Q8.446056689300537,15.47118,8.373606689300537,15.48559Q8.301156689300537,15.5,8.227286689300538,15.5Q8.156206689300538,15.5,8.086386689300538,15.486650000000001Q8.016566689300538,15.47329,7.950506689300537,15.44706Q7.8844366893005375,15.420819999999999,7.824476689300537,15.38265Q7.764516689300537,15.34447,7.7127966893005375,15.29571Q7.661076689300537,15.24694,7.619436689300537,15.18933Q7.577796689300538,15.13172,7.547716689300537,15.067309999999999Q7.517646689300538,15.0029,7.500206689300537,14.933991Q7.482766689300537,14.865079,7.478586689300537,14.794118Z" fill-rule="evenodd" fill="#2882FF" fill-opacity="1"/></g></g><g><g transform="matrix(-1,0,0,1,36.5455322265625,0)"><path d="M21.75003611328125,17.75L21.75003611328125,19.25L21.75005611328125,19.999380000000002L21.75005611328125,19.99998L21.75005611328125,20Q21.75005611328125,20.07387,21.73564611328125,20.14632Q21.72123611328125,20.21877,21.69296611328125,20.287010000000002Q21.664706113281248,20.35526,21.62366611328125,20.41668Q21.58262611328125,20.4781,21.53038611328125,20.53033Q21.47815611328125,20.58256,21.41673611328125,20.6236Q21.35531611328125,20.66464,21.287076113281252,20.69291Q21.21882611328125,20.72118,21.14637611328125,20.735590000000002Q21.07392611328125,20.75,21.00005611328125,20.75Q20.92619611328125,20.75,20.85374611328125,20.735590000000002Q20.78129611328125,20.72118,20.71305611328125,20.69291Q20.64480611328125,20.66464,20.58338611328125,20.62361Q20.52197611328125,20.58257,20.46973611328125,20.53034Q20.41750611328125,20.47811,20.37646611328125,20.41669Q20.33542611328125,20.35527,20.307156113281252,20.28703Q20.27888611328125,20.21878,20.26447611328125,20.146340000000002Q20.25006611328125,20.07389,20.25005611328125,20.00002L20.25005611328125,20L20.25003611328125,19.25L20.25003611328125,17.79314Q20.19228611328125,17.75,20.090946113281248,17.75L19.18185711328125,17.75Q18.53585411328125,17.75,18.06174611328125,17.35886Q17.52276611328125,16.9142,17.52276611328125,16.25L17.52276611328125,14.75Q17.52276611328125,14.0857978,18.06174511328125,13.64114Q18.53585411328125,13.25,19.18185711328125,13.25L20.090946113281248,13.25Q20.73694611328125,13.25,21.21105611328125,13.64114Q21.75003611328125,14.0857975,21.75003611328125,14.75L21.75003611328125,17.75ZM20.25003611328125,16.25613L20.25003611328125,14.793139Q20.19228611328125,14.75,20.090946113281248,14.75L19.18185711328125,14.75Q19.08052311328125,14.75,19.02276611328125,14.793139L19.02276611328125,16.20686Q19.08052311328125,16.25,19.18185711328125,16.25L20.090946113281248,16.25Q20.17184611328125,16.25,20.25003611328125,16.25613Z" fill-rule="evenodd" fill="#2882FF" fill-opacity="1"/></g><g><path d="M15.62009899140625,16.253722Q17.16925119140625,16.408637,18.11491119140625,17.511907Q18.98694119140625,18.52927,19.27761119140625,19.8373Q19.29547119140625,19.91767,19.29547119140625,20Q19.29547119140625,20.07387,19.281061191406252,20.14632Q19.26665119140625,20.21877,19.23838119140625,20.28701Q19.21011119140625,20.35526,19.16907119140625,20.41668Q19.12803119140625,20.4781,19.07580119140625,20.53033Q19.02357119140625,20.58256,18.96215119140625,20.6236Q18.90073119140625,20.66464,18.83248119140625,20.69291Q18.76424119140625,20.72118,18.69179119140625,20.735590000000002Q18.61934119140625,20.75,18.54547119140625,20.75Q18.48194119140625,20.75,18.41931119140625,20.73931Q18.35668119140625,20.72863,18.29675119140625,20.70756Q18.23681119140625,20.68649,18.18127119140625,20.65564Q18.12573119140625,20.62478,18.07617119140625,20.58503Q18.02662119140625,20.545279999999998,17.98445119140625,20.49775Q17.942291191406248,20.45023,17.90872119140625,20.39629Q17.87515119140625,20.34235,17.85113119140625,20.28353Q17.82711119140625,20.22472,17.81333119140625,20.1627L17.81307119140625,20.16155Q17.60362119140625,19.22029,16.97603119140625,18.48809Q16.42184819140625,17.84155,15.47139559140625,17.746333L15.47084339140625,17.746278Q15.40203219140625,17.739397,15.33564019140625,17.720049Q15.26924719140625,17.700702,15.20751219140625,17.66954Q15.14577719140625,17.638378,15.09078119140625,17.596453Q15.03578419140625,17.554528,14.98938219140625,17.503254Q14.94297919140625,17.45198,14.90673419140625,17.393084Q14.87049019140625,17.33419,14.84562619140625,17.269660000000002Q14.82076119140625,17.20513,14.80811619140625,17.137142Q14.79547119140625,17.0691541,14.79547119140625,17Q14.79547119140625,16.9261315,14.809882191406249,16.853682Q14.82429319140625,16.781233,14.85256119140625,16.712987Q14.88083019140625,16.644742,14.92186919140625,16.583322Q14.96290819140625,16.521903000000002,15.01514119140625,16.46967Q15.06737419140625,16.417437,15.12879319140625,16.376398000000002Q15.19021319140625,16.335359,15.25845819140625,16.30709Q15.32670419140625,16.278822,15.39915319140625,16.264411Q15.47160269140625,16.25,15.54547119140625,16.25Q15.58287789140625,16.25,15.62009899140625,16.253722Z" fill-rule="evenodd" fill="#2882FF" fill-opacity="1"/></g></g></g></g></svg>