<svg xmlns="http://www.w3.org/2000/svg" xmlns:xlink="http://www.w3.org/1999/xlink" fill="none" version="1.1" width="24" height="24" viewBox="0 0 24 24"><defs><clipPath id="master_svg0_78_01943"><rect x="0" y="0" width="24" height="24" rx="0"/></clipPath></defs><g clip-path="url(#master_svg0_78_01943)"><g><g><path d="M10.5197960625,11.31959L10.5198210625,11.31986L11.0395410625,16.98636Q11.1957806625,18.69144,12.4604990625,19.8457Q13.7252090625,20.9999,15.437499062499999,21L16.8124890625,21Q18.5246290625,21,19.7893690625,19.8458Q21.054059062500002,18.69157,21.2104390625,16.98642L21.7301890625,11.31971Q21.834489062499998,10.184282,21.0659490625,9.3420304Q20.297389062500002,8.499777,19.1573290625,8.5L13.0926590625,8.5Q11.952395062499999,8.500002,11.1838941625,9.3421901Q10.4153660625,10.184408,10.5197960625,11.31959ZM12.5332790625,16.84948L12.0135260625,11.18258L12.0135020625,11.18231Q11.9696790625,10.70641,12.2919190625,10.35327Q12.6142790625,10.000001,13.0926590625,10L19.1573290625,10Q19.6356290625,9.999907,19.9579290625,10.353110000000001Q20.2802290625,10.70631,20.2364690625,11.18246L19.7167090625,16.849420000000002Q19.6134290625,17.975569999999998,18.7782190625,18.73781Q17.943059062499998,19.5,16.8124990625,19.5L15.437499062499999,19.5Q14.3068390625,19.4999,13.4716490625,18.7377Q12.6364590625,17.975479999999997,12.5332790625,16.84948Z" fill-rule="evenodd" fill="#2882FF" fill-opacity="1" style="mix-blend-mode:passthrough"/></g><g><ellipse cx="14.7591552734375" cy="12.9215087890625" rx="0.75" ry="0.75" fill="#2882FF" fill-opacity="1"/></g><g><ellipse cx="17.5091552734375" cy="12.9215087890625" rx="0.75" ry="0.75" fill="#2882FF" fill-opacity="1"/></g><g><path d="M15.166671000000001,15.501393Q15.664908,15.833562,16.125,15.833562Q16.58532,15.833562,17.08383,15.501058Q17.27282,15.375,17.5,15.375Q17.57387,15.375,17.64632,15.389410999999999Q17.71877,15.403822,17.78701,15.43209Q17.85526,15.460359,17.91668,15.501398Q17.9781,15.542437,18.03033,15.59467Q18.08256,15.646903,18.1236,15.708322Q18.16464,15.769742,18.19291,15.837987Q18.22118,15.906233,18.235590000000002,15.978682Q18.25,16.0511315,18.25,16.125Q18.25,16.2175813,18.22749,16.307383Q18.20497,16.397186,18.1613,16.478817Q18.11762,16.560449,18.055410000000002,16.629009Q17.99319,16.697569,17.91617,16.748942Q17.03968,17.33356,16.125,17.33356Q15.210324,17.33356,14.333831,16.748942Q14.25681,16.697569,14.194595,16.629009Q14.132379,16.560449,14.088703,16.478817Q14.045027,16.397186,14.022514,16.307383Q14,16.2175813,14,16.125Q14,16.0511315,14.014410999999999,15.978682Q14.028822,15.906233,14.05709,15.837987Q14.085359,15.769742,14.126398,15.708322Q14.167437,15.646903,14.21967,15.59467Q14.271903,15.542437,14.333322,15.501398Q14.394742,15.460359,14.462987,15.43209Q14.531233,15.403822,14.603682,15.389410999999999Q14.6761315,15.375,14.75,15.375Q14.977176,15.375,15.166169,15.501058L15.166671000000001,15.501393Z" fill-rule="evenodd" fill="#2882FF" fill-opacity="1" style="mix-blend-mode:passthrough"/></g></g><g><g><path d="M11.6733590625,5.7339870117187495Q11.9906590625,6.05128701171875,11.9906590625,6.50001701171875Q11.9906590625,6.57388701171875,12.0050690625,6.6463370117187495Q12.0194790625,6.718787011718749,12.0477490625,6.78703701171875Q12.0760190625,6.85527701171875,12.1170590625,6.91669701171875Q12.1580990625,6.97811701171875,12.2103290625,7.030347011718749Q12.2625690625,7.082587011718751,12.3239890625,7.1236270117187495Q12.3853990625,7.16466701171875,12.4536490625,7.19292701171875Q12.5218990625,7.2211970117187505,12.5943490625,7.23560701171875Q12.6667890625,7.25001701171875,12.7406590625,7.25001701171875Q12.8145290625,7.25001701171875,12.8869790625,7.23560701171875Q12.9594290625,7.2211970117187505,13.0276890625,7.19292701171875Q13.0958890625,7.16466701171875,13.1573890625,7.1236270117187495Q13.2187890625,7.082587011718751,13.2709890625,7.030347011718749Q13.3231890625,6.97811701171875,13.3642890625,6.91669701171875Q13.4052890625,6.85527701171875,13.4335890625,6.78703701171875Q13.4617890625,6.718787011718749,13.4762890625,6.6463370117187495Q13.4906890625,6.57388701171875,13.4906890625,6.50001701171875Q13.4906890625,5.42996901171875,12.7340190625,4.67332816171875Q11.9773790625,3.91668801171875,10.9073290625,3.91668701171875L4.8426590625,3.91668701171875Q3.7023970625000002,3.91668701171875,2.9338947625,4.75887561171875Q2.1652750625,5.60119301171875,2.2698210625,6.736537011718751L2.7895460625,12.403107011718749Q2.9457808625,14.10812701171875,4.2104990625,15.26238701171875Q5.475209062499999,16.41658701171875,7.1874390625,16.41668701171875L8.562499062499999,16.41668701171875Q8.7733390625,16.41678701171875,8.9834090625,16.39688701171875Q9.0524990625,16.390287011718748,9.119219062500001,16.37118701171875Q9.185939062500001,16.35208701171875,9.2480090625,16.321087011718753Q9.310089062500001,16.28998701171875,9.3654190625,16.248087011718752Q9.420739062500001,16.20618701171875,9.467439062499999,16.15488701171875Q9.5141390625,16.10358701171875,9.5506290625,16.04448701171875Q9.587119062500001,15.98548701171875,9.6121590625,15.92078701171875Q9.6371890625,15.85598701171875,9.6499290625,15.78778701171875Q9.662659062500001,15.71958701171875,9.662659062500001,15.65018701171875Q9.662659062500001,15.57628701171875,9.6482490625,15.50388701171875Q9.6338390625,15.43138701171875,9.605569062499999,15.36318701171875Q9.5772990625,15.29488701171875,9.536259062500001,15.23348701171875Q9.4952290625,15.17208701171875,9.4429890625,15.11988701171875Q9.390759062499999,15.06758701171875,9.3293390625,15.02658701171875Q9.267919062499999,14.98558701171875,9.1996790625,14.95728701171875Q9.1314290625,14.92898701171875,9.0589790625,14.91458701171875Q8.9865290625,14.90018701171875,8.912659062500001,14.90018701171875Q8.8772090625,14.90018701171875,8.841909062500001,14.90348701171875Q8.702639062500001,14.91668701171875,8.562499062499999,14.91668701171875L7.1875490625,14.91668701171875Q6.0568390625,14.91658701171875,5.2216490625,14.15438701171875Q4.3864590625,13.39216701171875,4.2832790625,12.26610701171875L3.7635010625,6.59899701171875Q3.7196790625,6.12309701171875,4.0419190625,5.76995701171875Q4.3642790625,5.41668701171875,4.8426590625,5.41668701171875L10.9073290625,5.41668701171875Q11.3560590625,5.41668801171875,11.6733590625,5.7339870117187495Z" fill-rule="evenodd" fill="#231F2E" fill-opacity="1" style="mix-blend-mode:passthrough"/></g><g><ellipse cx="6.5091552734375" cy="8.33819580078125" rx="0.75" ry="0.75" fill="#231F2E" fill-opacity="1"/></g><g><ellipse cx="9.2591552734375" cy="8.33819580078125" rx="0.75" ry="0.75" fill="#231F2E" fill-opacity="1"/></g><g transform="matrix(1,0,0,-1,0,24.0001220703125)"><path d="M7.6668,12.76635603515625Q8.00432,12.71332503515625,8.34989,12.83560803515625Q8.4713,12.87857103515625,8.60008,12.87857103515625Q8.67395,12.87857103515625,8.7464,12.86416003515625Q8.81885,12.84974903515625,8.8871,12.82148103515625Q8.95534,12.79321203515625,9.01676,12.75217303515625Q9.07818,12.71113403515625,9.13041,12.65890103515625Q9.18265,12.60666803515625,9.22369,12.54524903515625Q9.26472,12.48382903515625,9.29299,12.41558403515625Q9.32126,12.34733803515625,9.33567,12.27488903515625Q9.35008,12.20244003515625,9.35008,12.12857103515625Q9.35008,12.01227613515625,9.314869999999999,11.90144193515625Q9.27965,11.79060803515625,9.21252,11.69564403515625Q9.145389999999999,11.60068003515625,9.05265,11.53050503515625Q8.95991,11.46033003515625,8.85028,11.42153403515625Q8.14668,11.17255503515625,7.433974,11.28453503515625Q6.745953,11.39263703515625,6.083598,11.83478503515625Q6.006626,11.88616603515625,5.944454,11.95471753515625Q5.882281,12.02326873515625,5.838637,12.10487703515625Q5.794993,12.18648603515625,5.7724969999999995,12.27625503515625Q5.75,12.36602503515625,5.75,12.45857103515625Q5.75,12.53243903515625,5.764411,12.60488903515625Q5.778822,12.67733803515625,5.80709,12.74558303515625Q5.835359,12.81382903515625,5.876398,12.87524903515625Q5.917437,12.93666803515625,5.96967,12.98890103515625Q6.021903,13.04113103515625,6.083322,13.08217103515625Q6.144742,13.12321103515625,6.212987,13.15148103515625Q6.281233,13.17975103515625,6.353682,13.19416103515625Q6.4261315,13.20857103515625,6.5,13.20857103515625Q6.727329,13.20857103515625,6.916402,13.08236103515625L6.916421,13.08234103515625Q7.304521,12.82327703515625,7.6668,12.76635603515625Z" fill-rule="evenodd" fill="#231F2E" fill-opacity="1" style="mix-blend-mode:passthrough"/></g></g></g></svg>