<svg xmlns="http://www.w3.org/2000/svg" xmlns:xlink="http://www.w3.org/1999/xlink" fill="none" version="1.1" width="24" height="24" viewBox="0 0 24 24"><defs><clipPath id="master_svg0_63_00841"><rect x="0" y="0" width="24" height="24" rx="0"/></clipPath></defs><g clip-path="url(#master_svg0_63_00841)"><g><path d="M7.96914,6.5298L7.96967,6.53033Q8.07516,6.63582,8.21299,6.6929099999999995Q8.350819999999999,6.75,8.5,6.75Q8.57387,6.75,8.64632,6.73559Q8.71877,6.72118,8.78701,6.6929099999999995Q8.855260000000001,6.66464,8.91668,6.6236Q8.978100000000001,6.58256,9.03033,6.53033Q9.08256,6.4780999999999995,9.1236,6.4166799999999995Q9.16464,6.3552599999999995,9.192910000000001,6.28701Q9.22118,6.21877,9.23559,6.146319999999999Q9.25,6.073869999999999,9.25,6Q9.25,5.850820000000001,9.192910000000001,5.71299Q9.135819999999999,5.57516,9.03033,5.46967L6.03033,2.46967Q5.9780999999999995,2.417437,5.9166799999999995,2.376398Q5.8552599999999995,2.335359,5.78701,2.30709Q5.71877,2.278822,5.646319999999999,2.264411Q5.573869999999999,2.25,5.5,2.25Q5.426130000000001,2.25,5.353680000000001,2.264411Q5.28123,2.278822,5.21299,2.30709Q5.1447400000000005,2.335359,5.0833200000000005,2.376398Q5.0219000000000005,2.417437,4.96967,2.46967L1.96967,5.46967Q1.8641809999999999,5.57516,1.80709,5.71299Q1.75,5.850820000000001,1.75,6Q1.75,6.073869999999999,1.764411,6.146319999999999Q1.778822,6.21877,1.80709,6.28701Q1.835359,6.3552599999999995,1.876398,6.4166799999999995Q1.917437,6.4780999999999995,1.96967,6.53033Q2.021903,6.58256,2.083322,6.6236Q2.144742,6.66464,2.212987,6.6929099999999995Q2.281233,6.72118,2.353682,6.73559Q2.4261315,6.75,2.5,6.75Q2.649184,6.75,2.787013,6.6929099999999995Q2.924841,6.63582,3.03033,6.53033L3.030625,6.53004L5.5,4.06066L7.96914,6.5298Z" fill-rule="evenodd" fill="#13943C" fill-opacity="1"/></g><g><path d="M4.75,3Q4.75,2.9261315,4.764411,2.853682Q4.778822,2.781233,4.80709,2.712987Q4.835359,2.644742,4.876398,2.583322Q4.917437,2.521903,4.96967,2.46967Q5.021903,2.417437,5.083322,2.376398Q5.144742,2.335359,5.212987,2.30709Q5.281233,2.278822,5.353682,2.264411Q5.4261315,2.25,5.5,2.25Q5.5738685,2.25,5.646318,2.264411Q5.718767,2.278822,5.787013,2.30709Q5.855258,2.335359,5.916678,2.376398Q5.978097,2.417437,6.03033,2.46967Q6.082563,2.521903,6.123602,2.583322Q6.164641,2.644742,6.19291,2.712987Q6.221178,2.781233,6.235589,2.853682Q6.25,2.9261315,6.25,3L6.25,10Q6.25,10.07387,6.235589,10.14632Q6.221178,10.21877,6.19291,10.28701Q6.164641,10.355260000000001,6.123602,10.41668Q6.082563,10.478100000000001,6.03033,10.53033Q5.978097,10.58256,5.916678,10.6236Q5.855258,10.66464,5.787013,10.692910000000001Q5.718767,10.72118,5.646318,10.73559Q5.5738685,10.75,5.5,10.75Q5.4261315,10.75,5.353682,10.73559Q5.281233,10.72118,5.212987,10.692910000000001Q5.144742,10.66464,5.083322,10.6236Q5.021903,10.58256,4.96967,10.53033Q4.917437,10.478100000000001,4.876398,10.41668Q4.835359,10.355260000000001,4.80709,10.28701Q4.778822,10.21877,4.764411,10.14632Q4.75,10.07387,4.75,10L4.75,3Z" fill-rule="evenodd" fill="#13943C" fill-opacity="1"/></g><g><path d="M3.030484,17.469824L5.5,19.93934L7.96921,17.470132L7.96967,17.46967Q8.07516,17.364181,8.21299,17.30709Q8.350819999999999,17.25,8.5,17.25Q8.57387,17.25,8.64632,17.264411Q8.71877,17.278822,8.78701,17.30709Q8.855260000000001,17.335359,8.91668,17.376398000000002Q8.978100000000001,17.417437,9.03033,17.46967Q9.08256,17.521903000000002,9.1236,17.583322Q9.16464,17.644742,9.192910000000001,17.712987Q9.22118,17.781233,9.23559,17.853682Q9.25,17.9261315,9.25,18Q9.25,18.149184,9.192910000000001,18.287013Q9.135819999999999,18.424841,9.03033,18.53033L9.029869999999999,18.530792L6.03033,21.53033Q5.92484,21.63582,5.78701,21.69291Q5.649179999999999,21.75,5.5,21.75Q5.350820000000001,21.75,5.21299,21.69291Q5.07516,21.63582,4.96967,21.53033L1.96967,18.53033Q1.8641809999999999,18.424841,1.80709,18.287013Q1.75,18.149184,1.75,18Q1.75,17.9261315,1.764411,17.853682Q1.778822,17.781233,1.80709,17.712987Q1.835359,17.644742,1.876398,17.583322Q1.917437,17.521903000000002,1.96967,17.46967Q2.021903,17.417437,2.083322,17.376398000000002Q2.144742,17.335359,2.212987,17.30709Q2.281233,17.278822,2.353682,17.264411Q2.4261315,17.25,2.5,17.25Q2.649184,17.25,2.787013,17.30709Q2.924841,17.364181,3.03033,17.46967L3.030484,17.469824Z" fill-rule="evenodd" fill="#13943C" fill-opacity="1"/></g><g><path d="M4.75,14Q4.75,13.9261315,4.764411,13.853682Q4.778822,13.781233,4.80709,13.712987Q4.835359,13.644742,4.876398,13.583322Q4.917437,13.521903,4.96967,13.46967Q5.021903,13.417437,5.083322,13.376398Q5.144742,13.335359,5.212987,13.30709Q5.281233,13.278822,5.353682,13.264410999999999Q5.4261315,13.25,5.5,13.25Q5.5738685,13.25,5.646318,13.264410999999999Q5.718767,13.278822,5.787013,13.30709Q5.855258,13.335359,5.916678,13.376398Q5.978097,13.417437,6.03033,13.46967Q6.082563,13.521903,6.123602,13.583322Q6.164641,13.644742,6.19291,13.712987Q6.221178,13.781233,6.235589,13.853682Q6.25,13.9261315,6.25,14L6.25,21Q6.25,21.07387,6.235589,21.14632Q6.221178,21.21877,6.19291,21.287010000000002Q6.164641,21.35526,6.123602,21.41668Q6.082563,21.4781,6.03033,21.53033Q5.978097,21.58256,5.916678,21.6236Q5.855258,21.66464,5.787013,21.69291Q5.718767,21.72118,5.646318,21.735590000000002Q5.5738685,21.75,5.5,21.75Q5.4261315,21.75,5.353682,21.735590000000002Q5.281233,21.72118,5.212987,21.69291Q5.144742,21.66464,5.083322,21.6236Q5.021903,21.58256,4.96967,21.53033Q4.917437,21.4781,4.876398,21.41668Q4.835359,21.35526,4.80709,21.287010000000002Q4.778822,21.21877,4.764411,21.14632Q4.75,21.07387,4.75,21L4.75,14Z" fill-rule="evenodd" fill="#13943C" fill-opacity="1"/></g><g><path d="M11 4.5C11 4.5 11 4.5 11 4.5L20 4.5C20.82842712474619 4.5 21.5 5.17157287525381 21.5 6L21.5 18C21.5 18.82842712474619 20.82842712474619 19.5 20 19.5L11 19.5C11 19.5 11 19.5 11 19.5Z" fill="#FFFFFF" fill-opacity="1"/><path d="M20,3.75L11,3.75L11,5.25L20,5.25Q20.07387,5.25,20.14632,5.264411Q20.21877,5.278822,20.287010000000002,5.30709Q20.35526,5.335359,20.41668,5.376398Q20.478099999999998,5.417437,20.53033,5.46967Q20.58256,5.5219000000000005,20.6236,5.5833200000000005Q20.66464,5.6447400000000005,20.692909999999998,5.71299Q20.72118,5.78123,20.735590000000002,5.85368Q20.75,5.92613,20.75,6L20.75,18Q20.75,18.073900000000002,20.735590000000002,18.1463Q20.72118,18.2188,20.692909999999998,18.287Q20.66464,18.3553,20.6236,18.4167Q20.58256,18.478099999999998,20.53033,18.5303Q20.478099999999998,18.5826,20.41668,18.6236Q20.35526,18.6646,20.287010000000002,18.6929Q20.21877,18.7212,20.14632,18.735599999999998Q20.07387,18.75,20,18.75L11,18.75L11,20.25L20,20.25C21.2426,20.25,22.25,19.2426,22.25,18L22.25,6C22.25,4.757359,21.2426,3.75,20,3.75Z" fill-rule="evenodd" fill="#231F2E" fill-opacity="1"/></g></g></svg>