<svg xmlns="http://www.w3.org/2000/svg" xmlns:xlink="http://www.w3.org/1999/xlink" fill="none" version="1.1" width="24" height="24" viewBox="0 0 24 24"><defs><clipPath id="master_svg0_63_01330"><rect x="0" y="0" width="24" height="24" rx="0"/></clipPath></defs><g clip-path="url(#master_svg0_63_01330)"><g><path d="M6,6.5L6,8.5C6,8.77614,6.223858,9,6.5,9L8.5,9C8.77614,9,9,8.77614,9,8.5L9,6.5C9,6.223858,8.77614,6,8.5,6L6.5,6C6.223858,6,6,6.223858,6,6.5Z" fill="#13943C" fill-opacity="1"/></g><g><path d="M11,6.5L11,8.5C11,8.77614,11.223858,9,11.5,9L17.5,9C17.776139999999998,9,18,8.77614,18,8.5L18,6.5C18,6.223858,17.776139999999998,6,17.5,6L11.5,6C11.223858,6,11,6.223858,11,6.5Z" fill="#13943C" fill-opacity="1"/></g><g><path d="M6,11.5L6,17.5C6,17.776139999999998,6.223858,18,6.5,18L8.5,18C8.77614,18,9,17.776139999999998,9,17.5L9,11.5C9,11.223858,8.77614,11,8.5,11L6.5,11C6.223858,11,6,11.223858,6,11.5Z" fill="#13943C" fill-opacity="1"/></g><g><g><path d="M14.53579915625,12.20181L14.53560715625,12.202Q14.46528015625,12.27233,14.42722015625,12.36421Q14.38916015625,12.4561,14.38916015625,12.55556Q14.38916015625,12.604800000000001,14.39876715625,12.6531Q14.408375156249999,12.7014,14.42722015625,12.7469Q14.44606615625,12.79239,14.47342515625,12.83334Q14.50078515625,12.87429,14.53560715625,12.90911Q14.57042915625,12.94393,14.61137515625,12.97129Q14.65232115625,12.99865,14.69781815625,13.01749Q14.74331515625,13.03634,14.79161505625,13.04595Q14.83991445625,13.05556,14.88916015625,13.05556Q14.98861635625,13.05556,15.08050215625,13.0175Q15.17238715625,12.97943,15.24271315625,12.90911L16.44472015625,11.707107L17.64656015625,12.90895L17.646720156249998,12.90911Q17.71704015625,12.97943,17.80893015625,13.01749Q17.90081015625,13.05556,18.00027015625,13.05556Q18.04952015625,13.05556,18.097820156250002,13.04595Q18.14612015625,13.03634,18.19161015625,13.01749Q18.23711015625,12.99865,18.27806015625,12.97129Q18.31900015625,12.94393,18.35382015625,12.90911Q18.38865015625,12.87429,18.41601015625,12.83334Q18.44336015625,12.79239,18.46221015625,12.7469Q18.48106015625,12.7014,18.49066015625,12.6531Q18.50027015625,12.604800000000001,18.50027015625,12.55556Q18.50027015625,12.4561,18.46221015625,12.36421Q18.42415015625,12.27233,18.35382015625,12.202L16.79827015625,10.646447Q16.72794015625,10.57612,16.63606015625,10.53806Q16.54417015625,10.5,16.44472015625,10.5Q16.34526015625,10.5,16.25337015625,10.53806Q16.16149015625,10.57612,16.091160156249998,10.646447L14.53579915625,12.20181Z" fill-rule="evenodd" fill="#231F2E" fill-opacity="1"/></g><g><path d="M15.94444,11Q15.94444,10.9507543,15.954049999999999,10.9024549Q15.96366,10.854155,15.9825,10.808658Q16.001350000000002,10.763161,16.02871,10.722215Q16.05607,10.681269,16.09089,10.646447Q16.125709999999998,10.611625,16.16666,10.584265Q16.2076,10.556906,16.2531,10.53806Q16.2986,10.519214999999999,16.346899999999998,10.509607Q16.3952,10.5,16.44444,10.5Q16.49369,10.5,16.54199,10.509607Q16.59029,10.519214999999999,16.63578,10.53806Q16.68128,10.556906,16.72223,10.584265Q16.76317,10.611625,16.798000000000002,10.646447Q16.832819999999998,10.681269,16.86018,10.722215Q16.88754,10.763161,16.90638,10.808658Q16.92523,10.854155,16.934829999999998,10.9024549Q16.94444,10.9507543,16.94444,11L16.94444,15.27778Q16.94444,15.96813,16.45629,16.45629Q15.96813,16.94444,15.27778,16.94444L11,16.94444Q10.9507543,16.94444,10.9024549,16.934829999999998Q10.854155,16.92523,10.808658,16.90638Q10.763161,16.88754,10.722215,16.86018Q10.681269,16.832819999999998,10.646447,16.798000000000002Q10.611625,16.76317,10.584265,16.72223Q10.556906,16.68128,10.53806,16.63578Q10.519214999999999,16.59029,10.509607,16.54199Q10.5,16.49369,10.5,16.44444Q10.5,16.3952,10.509607,16.346899999999998Q10.519214999999999,16.2986,10.53806,16.2531Q10.556906,16.2076,10.584265,16.16666Q10.611625,16.125709999999998,10.646447,16.09089Q10.681269,16.05607,10.722215,16.02871Q10.763161,16.001350000000002,10.808658,15.9825Q10.854155,15.96366,10.9024549,15.954049999999999Q10.9507543,15.94444,11,15.94444L15.27778,15.94444Q15.55392,15.94444,15.749179999999999,15.749179999999999Q15.94444,15.55392,15.94444,15.27778L15.94444,11Z" fill-rule="evenodd" fill="#231F2E" fill-opacity="1"/></g><g><path d="M12.90911,15.24240798046875Q12.97943,15.17208198046875,13.01749,15.08019698046875Q13.05556,14.98831118046875,13.05556,14.88885498046875Q13.05556,14.83960928046875,13.04595,14.79130988046875Q13.03634,14.74300998046875,13.01749,14.69751298046875Q12.99865,14.65201598046875,12.97129,14.61106998046875Q12.94393,14.57012398046875,12.90911,14.53530198046875Q12.87429,14.50047998046875,12.83334,14.47311998046875Q12.79239,14.44576098046875,12.7469,14.42691498046875Q12.7014,14.408069980468749,12.6531,14.39846198046875Q12.604800000000001,14.38885498046875,12.55556,14.38885498046875Q12.4561,14.38885498046875,12.36421,14.42691498046875Q12.27233,14.46497498046875,12.202,14.53530198046875L12.20181,14.53549398046875L10.646447,16.090854980468748Q10.57612,16.16118498046875,10.53806,16.25306498046875Q10.5,16.34495498046875,10.5,16.44441498046875Q10.5,16.54386498046875,10.53806,16.63575498046875Q10.57612,16.72763498046875,10.646447,16.79796498046875L12.202,18.35351498046875Q12.27233,18.42384498046875,12.36421,18.46190498046875Q12.4561,18.49996498046875,12.55556,18.49996498046875Q12.604800000000001,18.49996498046875,12.6531,18.49035498046875Q12.7014,18.48075498046875,12.7469,18.46190498046875Q12.79239,18.44305498046875,12.83334,18.41570498046875Q12.87429,18.38834498046875,12.90911,18.35351498046875Q12.94393,18.31869498046875,12.97129,18.27775498046875Q12.99865,18.23680498046875,13.01749,18.19130498046875Q13.03634,18.14581498046875,13.04595,18.097514980468752Q13.05556,18.04921498046875,13.05556,17.99996498046875Q13.05556,17.90050498046875,13.01749,17.80862498046875Q12.97943,17.71673498046875,12.90911,17.646414980468748L12.90895,17.64625498046875L11.707107,16.44441498046875L12.90911,15.24240798046875L12.90911,15.24240798046875Z" fill-rule="evenodd" fill="#231F2E" fill-opacity="1"/></g></g><g><path d="M19.75,12L19.75,16.25Q19.75,16.323900000000002,19.7644,16.3963Q19.7788,16.4688,19.8071,16.537Q19.8354,16.6053,19.8764,16.6667Q19.9174,16.728099999999998,19.9697,16.7803Q20.0219,16.8326,20.0833,16.8736Q20.1447,16.9146,20.213,16.9429Q20.2812,16.9712,20.3537,16.985599999999998Q20.4261,17,20.5,17Q20.5739,17,20.6463,16.985599999999998Q20.7188,16.9712,20.787,16.9429Q20.8553,16.9146,20.9167,16.8736Q20.9781,16.8326,21.0303,16.7803Q21.0826,16.728099999999998,21.1236,16.6667Q21.1646,16.6053,21.1929,16.537Q21.2212,16.4688,21.2356,16.3963Q21.25,16.323900000000002,21.25,16.25L21.25,5Q21.25,4.068019,20.591,3.4090098Q19.932,2.75,19,2.75L5,2.75Q4.06802,2.75,3.4090098,3.4090098Q2.75,4.068019,2.75,5L2.75,19Q2.75,19.932,3.4090098,20.591Q4.068019,21.25,5,21.25L16.25,21.25Q16.323900000000002,21.25,16.3963,21.2356Q16.4688,21.2212,16.537,21.1929Q16.6053,21.1646,16.6667,21.1236Q16.728099999999998,21.0826,16.7803,21.0303Q16.8326,20.9781,16.8736,20.9167Q16.9146,20.8553,16.9429,20.787Q16.9712,20.7188,16.985599999999998,20.6463Q17,20.5739,17,20.5Q17,20.4261,16.985599999999998,20.3537Q16.9712,20.2812,16.9429,20.213Q16.9146,20.1447,16.8736,20.0833Q16.8326,20.0219,16.7803,19.9697Q16.728099999999998,19.9174,16.6667,19.8764Q16.6053,19.8354,16.537,19.8071Q16.4688,19.7788,16.3963,19.7644Q16.323900000000002,19.75,16.25,19.75L5,19.75Q4.25,19.75,4.25,19L4.25,5Q4.25,4.25,5,4.25L19,4.25Q19.75,4.25,19.75,5L19.75,12Z" fill-rule="evenodd" fill="#231F2E" fill-opacity="1"/></g><g><g><path d="M14.239013671875,16.37021L14.239013671875,17.87294Q14.239013671875,17.95892,14.247443671875,18.04447Q14.255863671875,18.13003,14.272643671875,18.21435Q14.289413671875,18.29867,14.314363671875,18.38094Q14.339323671875,18.46321,14.372223671875,18.54264Q14.405123671875,18.62207,14.445653671875,18.69789Q14.486173671875001,18.77371,14.533943671875,18.84519Q14.581703671875,18.91668,14.636243671875,18.98313Q14.690783671875,19.04959,14.751573671875,19.11038Q14.812363671875,19.17117,14.878823671875,19.22571Q14.945283671875,19.28025,15.016765671875,19.32802Q15.088248671875,19.37578,15.164069671875,19.41631Q15.239889671875,19.45683,15.319317671875,19.48973Q15.398745671875,19.52263,15.481015671875,19.54759Q15.563285671875,19.57255,15.647605671875,19.58932Q15.731925671875,19.606090000000002,15.817483671875,19.61452Q15.903041671875,19.62294,15.989013671875,19.62294L17.491743671875,19.62294Q17.577723671875,19.62294,17.663273671875,19.61452Q17.748833671875,19.606090000000002,17.833153671875,19.58932Q17.917473671875,19.57255,17.999743671875,19.54759Q18.082013671875,19.52263,18.161443671875,19.48973Q18.240873671875,19.45683,18.316693671875,19.41631Q18.392513671875,19.37578,18.463993671875,19.32802Q18.535483671875,19.28025,18.601933671875,19.22571Q18.668393671875002,19.17117,18.729183671875,19.11038Q18.789973671875,19.04959,18.844513671875,18.98313Q18.899053671875,18.91668,18.946823671875,18.84519Q18.994583671875,18.77371,19.035113671875,18.69789Q19.075633671875,18.62207,19.108533671875,18.54264Q19.141433671875,18.46321,19.166393671875,18.38094Q19.191353671875,18.29867,19.208123671875,18.21435Q19.224893671875,18.13003,19.233323671875,18.04447Q19.241743671875,17.95892,19.241743671875,17.87294Q19.241743671875,17.82388,19.239003671875,17.7749Q19.616883671875,17.84828,19.895723671875,18.12441Q20.044963671875,18.27221,20.139493671875,18.45855L20.140073671875,18.45971Q20.194603671875,18.56745,20.263403671875,18.66669Q20.332213671875,18.76593,20.414003671875,18.854779999999998Q20.495783671875,18.94362,20.589003671875,19.02039Q20.682213671875,19.09716,20.785093671875,19.1604Q20.887973671875,19.22364,20.998553671875,19.27215Q21.109143671875,19.32066,21.225343671875,19.35352Q21.341543671875,19.38638,21.461163671875,19.40296Q21.580773671875,19.41955,21.701533671874998,19.41955Q21.787503671875,19.41955,21.873063671875002,19.41112Q21.958623671875,19.4027,22.042943671875,19.38592Q22.127263671875,19.36915,22.209533671875,19.34419Q22.291803671875,19.31924,22.371233671875,19.28634Q22.450653671875,19.25344,22.526483671875,19.21291Q22.602303671875,19.17238,22.673783671875,19.12462Q22.745263671875,19.07686,22.811723671875,19.02232Q22.878183671875,18.96778,22.938973671875,18.90699Q22.999763671875,18.84619,23.054303671875,18.77974Q23.108843671875,18.71328,23.156603671875,18.6418Q23.204373671875,18.57031,23.244893671875,18.49449Q23.285423671875,18.41867,23.318323671875,18.33925Q23.351223671875,18.25982,23.376183671875,18.17755Q23.401133671875,18.09528,23.417903671875,18.01096Q23.434683671875,17.92664,23.443103671875,17.84108Q23.451533671874998,17.75552,23.451533671874998,17.66955Q23.451533671874998,17.25198,23.262993671875,16.879394L23.262873671875,16.879159L23.262253671875,16.877927Q22.911253671875002,16.184887,22.358483671875,15.637487Q21.206783671875,14.49698,19.599253671875,14.28955Q18.088943671875,14.09468,16.758752671875,14.79859Q16.394551671875,14.62021,15.989013671875,14.62021Q15.903041671875,14.62021,15.817483671875,14.62864Q15.731925671875,14.63706,15.647605671875,14.65384Q15.563285671875,14.67061,15.481015671875,14.69556Q15.398745671875,14.72052,15.319317671875,14.75342Q15.239889671875,14.78632,15.164069671875,14.82685Q15.088248671875,14.86737,15.016765671875,14.915140000000001Q14.945283671875,14.9629,14.878823671875,15.017441999999999Q14.812363671875,15.071982,14.751573671875,15.132773Q14.690783671875,15.193564,14.636243671875,15.260022Q14.581703671875,15.326478999999999,14.533943671875,15.397962Q14.486173671875001,15.469445,14.445653671875,15.545266Q14.405123671875,15.621086,14.372223671875,15.700514Q14.339323671875,15.779942,14.314363671875,15.862212Q14.289413671875,15.9444818,14.272643671875,16.0288019Q14.255863671875,16.113122,14.247443671875,16.19868Q14.239013671875,16.284238,14.239013671875,16.37021Z" fill-rule="evenodd" fill="#FFFFFF" fill-opacity="1"/></g><g><path d="M20.497265585937498,18.37701416015625Q20.4112855859375,18.37701416015625,20.3257355859375,18.38544416015625Q20.2401755859375,18.39386416015625,20.155855585937502,18.41064416015625Q20.0715355859375,18.42741416015625,19.9892655859375,18.45236416015625Q19.9069955859375,18.47732416015625,19.8275655859375,18.51022416015625Q19.7481355859375,18.54312416015625,19.6723155859375,18.58365416015625Q19.5964955859375,18.62417416015625,19.5250155859375,18.67194416015625Q19.4535355859375,18.71970416015625,19.3870755859375,18.77424416015625Q19.3206155859375,18.82878416015625,19.2598255859375,18.88957416015625Q19.1990355859375,18.95036416015625,19.1444955859375,19.01682416015625Q19.0899555859375,19.08328416015625,19.0421855859375,19.15476616015625Q18.9944255859375,19.22624916015625,18.9538955859375,19.30207016015625Q18.9133755859375,19.37789016015625,18.8804755859375,19.45731816015625Q18.8475755859375,19.536746160156248,18.8226155859375,19.61901616015625Q18.7976555859375,19.70128616015625,18.7808855859375,19.78560616015625Q18.7641155859375,19.86992616015625,18.7556855859375,19.95548416015625Q18.747265585937498,20.04104216015625,18.747265585937498,20.12701416015625Q18.747265585937498,20.17607526015625,18.7500155859375,20.22505926015625Q18.3721255859375,20.15167426015625,18.0932855859375,19.87554416015625Q17.943585585937498,19.72729516015625,17.8489355859375,19.54025116015625Q17.7944055859375,19.43250316015625,17.7256055859375,19.33326516015625Q17.656795585937502,19.23402816015625,17.5750055859375,19.14518216015625Q17.493225585937502,19.05633416015625,17.4000055859375,18.97956416015625Q17.3067955859375,18.90279416015625,17.2039155859375,18.83955416015625Q17.1010395859375,18.77631416015625,16.9904525859375,18.72781416015625Q16.8798655859375,18.67930416015625,16.7636635859375,18.64644416015625Q16.6474615859375,18.61358416015625,16.5278475859375,18.59699416015625Q16.4082335859375,18.58040416015625,16.2874755859375,18.58040416015625Q16.2015035859375,18.58040416015625,16.1159455859375,18.58883416015625Q16.0303875859375,18.59726416015625,15.9460675859375,18.61403416015625Q15.8617475859375,18.63080416015625,15.7794775859375,18.65576416015625Q15.6972075859375,18.68072416015625,15.6177795859375,18.71362416015625Q15.5383515859375,18.74652416015625,15.4625315859375,18.78704416015625Q15.3867105859375,18.82757416015625,15.3152275859375,18.87533416015625Q15.2437455859375,18.92310416015625,15.1772855859375,18.97764416015625Q15.1108255859375,19.03218416015625,15.0500355859375,19.09297416015625Q14.9892455859375,19.15376316015625,14.9347055859375,19.22022016015625Q14.8801655859375,19.28667816015625,14.8324055859375,19.35816116015625Q14.784635585937501,19.42964416015625,14.7441155859375,19.50546416015625Q14.7035855859375,19.58128516015625,14.6706855859375,19.66071316015625Q14.6377855859375,19.74014016015625,14.6128255859375,19.82241016015625Q14.5878755859375,19.90468016015625,14.5711055859375,19.98900116015625Q14.5543255859375,20.07332076015625,14.5459055859375,20.15887876015625Q14.5374755859375,20.24443716015625,14.5374755859375,20.33040916015625Q14.5374755859375,20.74798216015625,14.7260155859375,21.12056616015625Q15.0771655859375,21.81449416015625,15.6305275859375,22.36247416015625Q16.7822285859375,23.50298416015625,18.3897555859375,23.71040416015625Q19.9000655859375,23.90528416015625,21.2302555859375,23.20137416015625Q21.5944555859375,23.37974416015625,21.999995585937498,23.37974416015625Q22.0859655859375,23.37974416015625,22.171525585937502,23.37132416015625Q22.2570855859375,23.36289416015625,22.3414055859375,23.34612416015625Q22.4257255859375,23.32935416015625,22.5079955859375,23.30439416015625Q22.5902655859375,23.27943416015625,22.6696955859375,23.24653416015625Q22.7491155859375,23.21363416015625,22.8249455859375,23.17311416015625Q22.9007655859375,23.13258416015625,22.9722455859375,23.08482416015625Q23.0437255859375,23.03705416015625,23.1101855859375,22.98251416015625Q23.1766455859375,22.92797416015625,23.2374355859375,22.86718416015625Q23.2982255859375,22.806394160156252,23.3527655859375,22.73993416015625Q23.4073055859375,22.67348416015625,23.4550655859375,22.60199416015625Q23.5028355859375,22.53051416015625,23.5433555859375,22.45469416015625Q23.5838855859375,22.37887416015625,23.6167855859375,22.29944416015625Q23.6496855859375,22.22001416015625,23.6746455859375,22.13774416015625Q23.6995955859375,22.05547416015625,23.7163655859375,21.97115416015625Q23.7331455859375,21.88683416015625,23.7415655859375,21.80127416015625Q23.749995585937498,21.71572416015625,23.749995585937498,21.62974416015625L23.749995585937498,20.12701416015625Q23.749995585937498,20.04104216015625,23.7415655859375,19.95548416015625Q23.7331455859375,19.86992616015625,23.7163655859375,19.78560616015625Q23.6995955859375,19.70128616015625,23.6746455859375,19.61901616015625Q23.6496855859375,19.536746160156248,23.6167855859375,19.45731816015625Q23.5838855859375,19.37789016015625,23.5433555859375,19.30207016015625Q23.5028355859375,19.22624916015625,23.4550655859375,19.15476616015625Q23.4073055859375,19.08328416015625,23.3527655859375,19.01682416015625Q23.2982255859375,18.95036416015625,23.2374355859375,18.88957416015625Q23.1766455859375,18.82878416015625,23.1101855859375,18.77424416015625Q23.0437255859375,18.71970416015625,22.9722455859375,18.67194416015625Q22.9007655859375,18.62417416015625,22.8249455859375,18.58365416015625Q22.7491155859375,18.54312416015625,22.6696955859375,18.51022416015625Q22.5902655859375,18.47732416015625,22.5079955859375,18.45236416015625Q22.4257255859375,18.42741416015625,22.3414055859375,18.41064416015625Q22.2570855859375,18.39386416015625,22.171525585937502,18.38544416015625Q22.0859655859375,18.37701416015625,21.999995585937498,18.37701416015625L20.497265585937498,18.37701416015625Z" fill-rule="evenodd" fill="#FFFFFF" fill-opacity="1"/></g></g><g><g><path d="M16.176855671875,18.62294L15.989013671875,18.62294Q15.915145171875,18.62294,15.842695671875,18.608530000000002Q15.770246671875,18.59412,15.702000671875,18.56585Q15.633755671875,18.53759,15.572335671875,18.49655Q15.510916671875,18.45551,15.458683671875,18.40327Q15.406450671875,18.35104,15.365411671875,18.28962Q15.324372671875,18.2282,15.296103671875,18.159959999999998Q15.267835671875,18.09171,15.253424671874999,18.01926Q15.239013671875,17.94681,15.239013671875,17.87294L15.239013671875,16.37021Q15.239013671875,16.296341,15.253424671874999,16.223892Q15.267835671875,16.151443,15.296103671875,16.0831974Q15.324372671875,16.0149518,15.365411671875,15.953532299999999Q15.406450671875,15.892113,15.458683671875,15.83988Q15.510916671875,15.787647,15.572335671875,15.746608Q15.633755671875,15.705569,15.702000671875,15.6773Q15.770246671875,15.649032,15.842695671875,15.634621Q15.915145171875,15.62021,15.989013671875,15.62021Q16.094435671875,15.62021,16.195772671875,15.649273Q16.297110671875,15.678335,16.386508671875,15.734208Q16.475906671875,15.790082,16.546437671875,15.868435Q16.616968671875,15.946788,16.663166671875,16.041549Q16.863109671875,15.889023,17.088473671875,15.758829Q18.199133671875,15.117184,19.471283671875,15.281331Q20.743423671875,15.445478,21.654833671875,16.348037Q22.092533671875,16.78148,22.370313671875,17.33008L22.370713671875002,17.33088L22.370733671875,17.33091Q22.451533671874998,17.49059,22.451533671874998,17.66955Q22.451533671874998,17.74342,22.437123671875,17.81587Q22.422713671875,17.88832,22.394443671875,17.95656Q22.366173671875,18.02481,22.325133671875,18.08623Q22.284093671875,18.14765,22.231863671875,18.19988Q22.179633671875,18.252110000000002,22.118213671875,18.29315Q22.056793671875,18.33419,21.988543671875,18.36246Q21.920303671875,18.39073,21.847853671875,18.40514Q21.775403671875,18.41955,21.701533671874998,18.41955Q21.597533671875,18.41955,21.497453671875,18.39125Q21.397373671875002,18.36295,21.308773671875,18.30849Q21.220173671875,18.25402,21.149733671875,18.177500000000002Q21.079293671875,18.10099,21.032333671875,18.00819Q20.864403671875,17.67632,20.599363671875,17.41386Q20.048383671875,16.868231,19.279323671874998,16.768998Q18.510263671875002,16.669765,17.838823671875,17.05766Q17.762603671875,17.10169,17.691203671875,17.14995Q17.750143671875,17.16621,17.805683671875,17.19181Q17.861213671875,17.2174,17.911873671875,17.25166Q17.962523671875,17.28591,18.006963671875,17.32792Q18.051393671875,17.36992,18.088443671874998,17.41857Q18.125483671875,17.46722,18.154163671875,17.52123Q18.182843671875,17.57524,18.202393671875,17.63317Q18.221933671875,17.69111,18.231843671875,17.75145Q18.241743671875,17.8118,18.241743671875,17.87294Q18.241743671875,17.94681,18.227333671875,18.01926Q18.212923671875,18.09171,18.184653671875,18.159959999999998Q18.156393671875,18.2282,18.115353671875,18.28962Q18.074313671875,18.35104,18.022073671875,18.40327Q17.969843671875,18.45551,17.908423671875,18.49655Q17.847003671875,18.53759,17.778763671875,18.56585Q17.710513671875,18.59412,17.638063671875,18.608530000000002Q17.565613671875,18.62294,17.491743671875,18.62294L16.176855671875,18.62294Z" fill-rule="evenodd" fill="#13943C" fill-opacity="1"/></g><g><path d="M21.8121555859375,19.37701416015625L20.497265585937498,19.37701416015625Q20.4233955859375,19.37701416015625,20.3509455859375,19.39142516015625Q20.2784955859375,19.40583616015625,20.2102455859375,19.43410416015625Q20.1420055859375,19.46237316015625,20.0805855859375,19.503412160156252Q20.0191655859375,19.54445116015625,19.9669355859375,19.59668416015625Q19.9146955859375,19.648917160156252,19.8736555859375,19.71033616015625Q19.8326255859375,19.77175616015625,19.8043555859375,19.84000116015625Q19.7760855859375,19.90824716015625,19.7616755859375,19.98069616015625Q19.747265585937498,20.05314566015625,19.747265585937498,20.12701416015625Q19.747265585937498,20.18816266015625,19.7571655859375,20.24850316015625Q19.7670755859375,20.30884416015625,19.7866255859375,20.36678416015625Q19.8061755859375,20.42472316015625,19.8348455859375,20.47873116015625Q19.8635255859375,20.53273916015625,19.9005655859375,20.58138816015625Q19.9376155859375,20.63003716015625,19.982055585937502,20.67204316015625Q20.0264855859375,20.71404916015625,20.0771455859375,20.74830216015625Q20.1277955859375,20.78255516015625,20.1833355859375,20.80815016015625Q20.2388655859375,20.83374616015625,20.2978155859375,20.85000716015625Q20.2264055859375,20.89826316015625,20.1501855859375,20.94229416015625Q19.4787455859375,21.33019416015625,18.7096855859375,21.23096416015625Q17.9406255859375,21.13172416015625,17.3896455859375,20.58609516015625Q17.1246095859375,20.32363716015625,16.9566715859375,19.99177016015625Q16.9097125859375,19.89897216015625,16.8392745859375,19.82245416015625Q16.7688365859375,19.74593616015625,16.6802355859375,19.69147216015625Q16.5916345859375,19.63700816015625,16.4915565859375,19.60870816015625Q16.3914775859375,19.58040916015625,16.2874755859375,19.58040916015625Q16.2136070859375,19.58040916015625,16.1411575859375,19.59482016015625Q16.0687085859375,19.60923116015625,16.0004625859375,19.63749916015625Q15.9322175859375,19.66576716015625,15.8707975859375,19.70680616015625Q15.8093785859375,19.74784616015625,15.7571455859375,19.80007816015625Q15.7049125859375,19.85231116015625,15.6638735859375,19.91373116015625Q15.6228345859375,19.97515016015625,15.5945655859375,20.04339616015625Q15.5662975859375,20.11164176015625,15.551886585937499,20.18409096015625Q15.5374755859375,20.25654016015625,15.5374755859375,20.33040916015625Q15.5374755859375,20.50936916015625,15.6182795859375,20.66904816015625Q15.8961455859375,21.21815416015625,16.3341731859375,21.65192416015625Q17.2455885859375,22.55448416015625,18.517725585937498,22.71862416015625Q19.7898755859375,22.88277416015625,20.9005355859375,22.24113416015625Q21.1259055859375,22.11093416015625,21.3258455859375,21.95840416015625Q21.3720455859375,22.05317416015625,21.4425755859375,22.13152416015625Q21.5131055859375,22.20987416015625,21.6025055859375,22.26575416015625Q21.691895585937502,22.32162416015625,21.793235585937502,22.35068416015625Q21.8945755859375,22.37974416015625,21.999995585937498,22.37974416015625Q22.0738655859375,22.37974416015625,22.1463155859375,22.36533416015625Q22.2187655859375,22.35092416015625,22.2870055859375,22.32265416015625Q22.3552555859375,22.29439416015625,22.4166755859375,22.25335416015625Q22.4780955859375,22.21231416015625,22.5303255859375,22.16007416015625Q22.5825555859375,22.10784416015625,22.6235955859375,22.04642416015625Q22.6646355859375,21.98500416015625,22.6929055859375,21.91676416015625Q22.7211755859375,21.84851416015625,22.7355855859375,21.77606416015625Q22.749995585937498,21.70361416015625,22.749995585937498,21.62974416015625L22.749995585937498,20.12701416015625Q22.749995585937498,20.05314566015625,22.7355855859375,19.98069616015625Q22.7211755859375,19.90824716015625,22.6929055859375,19.84000116015625Q22.6646355859375,19.77175616015625,22.6235955859375,19.71033616015625Q22.5825555859375,19.648917160156252,22.5303255859375,19.59668416015625Q22.4780955859375,19.54445116015625,22.4166755859375,19.503412160156252Q22.3552555859375,19.46237316015625,22.2870055859375,19.43410416015625Q22.2187655859375,19.40583616015625,22.1463155859375,19.39142516015625Q22.0738655859375,19.37701416015625,21.999995585937498,19.37701416015625L21.8121555859375,19.37701416015625Z" fill-rule="evenodd" fill="#13943C" fill-opacity="1"/></g></g></g></svg>