<svg xmlns="http://www.w3.org/2000/svg" xmlns:xlink="http://www.w3.org/1999/xlink" fill="none" version="1.1" width="24" height="24" viewBox="0 0 24 24"><defs><clipPath id="master_svg0_72_02344"><rect x="0" y="0" width="24" height="24" rx="0"/></clipPath></defs><g clip-path="url(#master_svg0_72_02344)"><g><g><path d="M13.25,3Q13.25,2.9261315,13.264410999999999,2.853682Q13.278822,2.781233,13.30709,2.712987Q13.335359,2.644742,13.376398,2.583322Q13.417437,2.521903,13.46967,2.46967Q13.521903,2.417437,13.583322,2.376398Q13.644742,2.335359,13.712987,2.30709Q13.781233,2.278822,13.853682,2.264411Q13.9261315,2.25,14,2.25Q14.0738685,2.25,14.146318,2.264411Q14.218767,2.278822,14.287013,2.30709Q14.355258,2.335359,14.416678,2.376398Q14.478097,2.417437,14.53033,2.46967Q14.582563,2.521903,14.623602,2.583322Q14.664641,2.644742,14.69291,2.712987Q14.721178,2.781233,14.735589000000001,2.853682Q14.75,2.9261315,14.75,3L14.75,7Q14.75,7.10355,14.823223,7.17678Q14.896447,7.25,15,7.25L19,7.25Q19.07387,7.25,19.14632,7.26441Q19.21877,7.27882,19.287010000000002,7.30709Q19.35526,7.33536,19.41668,7.3764Q19.4781,7.41744,19.53033,7.46967Q19.58256,7.5219,19.6236,7.58332Q19.66464,7.64474,19.69291,7.71299Q19.72118,7.78123,19.735590000000002,7.85368Q19.75,7.92613,19.75,8Q19.75,8.07387,19.735590000000002,8.14632Q19.72118,8.21877,19.69291,8.28701Q19.66464,8.355260000000001,19.6236,8.41668Q19.58256,8.478100000000001,19.53033,8.53033Q19.4781,8.58256,19.41668,8.6236Q19.35526,8.66464,19.287010000000002,8.692910000000001Q19.21877,8.72118,19.14632,8.73559Q19.07387,8.75,19,8.75L15,8.75Q14.275126,8.75,13.762563,8.23744Q13.25,7.72487,13.25,7L13.25,3Z" fill-rule="evenodd" fill="#231F2E" fill-opacity="1"/></g><g><path d="M18.25,8.31066L18.25,12.5Q18.25,12.57387,18.264400000000002,12.64632Q18.2788,12.71877,18.3071,12.78701Q18.3354,12.85526,18.3764,12.91668Q18.4174,12.9781,18.4697,13.0303Q18.521900000000002,13.0826,18.5833,13.1236Q18.6447,13.1646,18.713,13.1929Q18.7812,13.2212,18.8537,13.2356Q18.926099999999998,13.25,19,13.25Q19.073900000000002,13.25,19.1463,13.2356Q19.2188,13.2212,19.287,13.1929Q19.3553,13.1646,19.4167,13.1236Q19.478099999999998,13.0826,19.5303,13.0303Q19.5826,12.9781,19.6236,12.91668Q19.6646,12.85526,19.6929,12.78701Q19.7212,12.71877,19.735599999999998,12.64632Q19.75,12.57387,19.75,12.5L19.75,12.4988L19.75,8Q19.75,7.85082,19.6929,7.71299Q19.6358,7.57516,19.5303,7.46967L14.53033,2.46967Q14.42484,2.364181,14.28701,2.30709Q14.14919,2.25,14,2.25L7,2.25Q5.860913,2.25,5.0554564,3.0554564Q4.25,3.860913,4.25,5L4.25,19Q4.25,20.1391,5.0554563,20.9445Q5.860912,21.75,7,21.75L12,21.75Q12.07387,21.75,12.14632,21.7356Q12.21877,21.7212,12.28701,21.6929Q12.355260000000001,21.6646,12.41668,21.6236Q12.478100000000001,21.5826,12.53033,21.5303Q12.58256,21.4781,12.6236,21.4167Q12.66464,21.3553,12.692910000000001,21.287Q12.72118,21.2188,12.73559,21.1463Q12.75,21.0739,12.75,21Q12.75,20.9261,12.73559,20.8537Q12.72118,20.7812,12.692910000000001,20.713Q12.66464,20.6447,12.6236,20.5833Q12.58256,20.5219,12.53033,20.4697Q12.478100000000001,20.4174,12.41668,20.3764Q12.355260000000001,20.3354,12.28701,20.3071Q12.21877,20.2788,12.14632,20.2644Q12.07387,20.25,12,20.25L7,20.25Q6.4822299999999995,20.25,6.1161200000000004,19.8839Q5.75,19.5178,5.75,19L5.75,5Q5.75,4.4822299999999995,6.1161200000000004,4.1161200000000004Q6.4822299999999995,3.75,7,3.75L13.68934,3.75L18.25,8.31066Z" fill-rule="evenodd" fill="#231F2E" fill-opacity="1"/></g><g><path d="M9.03318,11.604605Q9.13778,11.5,9.28571,11.5Q9.33496,11.5,9.38326,11.490393Q9.43156,11.480785000000001,9.47706,11.46194Q9.52255,11.443094,9.5635,11.415735Q9.60445,11.388375,9.63927,11.353553Q9.67409,11.318731,9.70145,11.277785Q9.72881,11.236839,9.74765,11.191342Q9.7665,11.145845,9.77611,11.0975451Q9.78571,11.0492457,9.78571,11Q9.78571,10.9507543,9.77611,10.9024549Q9.7665,10.854155,9.74765,10.808658Q9.72881,10.763161,9.70145,10.722215Q9.67409,10.681269,9.63927,10.646447Q9.60445,10.611625,9.5635,10.584265Q9.52255,10.556906,9.47706,10.53806Q9.43156,10.519214999999999,9.38326,10.509607Q9.33496,10.5,9.28571,10.5Q8.723567,10.5,8.326069,10.897498Q7.9285714,11.294996,7.9285714,11.857143L7.9285715,13.36432L7.646447,13.64645Q7.611625,13.68127,7.584265,13.72221Q7.556906,13.76316,7.53806,13.80866Q7.519215,13.85415,7.509607,13.90245Q7.5,13.95075,7.5,14Q7.5,14.04925,7.509607,14.09754Q7.519215,14.14584,7.53806,14.19134Q7.556906,14.23684,7.584265,14.27778Q7.611625,14.31873,7.646446,14.35355L7.9285715,14.63568L7.9285715,16.14286Q7.9285715,16.705,8.326069,17.1025Q8.723567,17.5,9.28571,17.5Q9.33496,17.5,9.38326,17.490389999999998Q9.43156,17.48078,9.47706,17.46194Q9.52255,17.443089999999998,9.5635,17.41573Q9.60445,17.388370000000002,9.63927,17.35355Q9.67409,17.318730000000002,9.70145,17.27778Q9.72881,17.23684,9.74765,17.19134Q9.7665,17.14584,9.77611,17.09755Q9.78571,17.04925,9.78571,17Q9.78571,16.95075,9.77611,16.90245Q9.7665,16.85415,9.74765,16.80866Q9.72881,16.76316,9.70145,16.72221Q9.67409,16.681269999999998,9.63927,16.64645Q9.60445,16.611620000000002,9.5635,16.58426Q9.52255,16.556910000000002,9.47706,16.53806Q9.43156,16.51921,9.38326,16.509610000000002Q9.33496,16.5,9.28571,16.5Q9.13778,16.5,9.03318,16.395400000000002Q8.928571,16.29079,8.928571,16.14286L8.928571999999999,14.42857Q8.928571999999999,14.32912,8.890511,14.23723Q8.852451,14.145340000000001,8.782125,14.07502L8.707107,14L8.782125,13.92498Q8.852451,13.854659999999999,8.890511,13.76277Q8.928571999999999,13.67088,8.928571,13.57143L8.928571,11.857143Q8.928571,11.70921,9.03318,11.604605Z" fill-rule="evenodd" fill="#000000" fill-opacity="1" style="mix-blend-mode:passthrough"/></g><g><path d="M13.25,10.5Q13.812147,10.5,14.209645,10.897498Q14.60714,11.294996,14.60714,11.857143L14.60714,13.36432L14.88927,13.64645Q14.92409,13.68127,14.95145,13.72221Q14.97881,13.76316,14.99765,13.80866Q15.0165,13.85416,15.02611,13.90245Q15.03571,13.95075,15.03571,14Q15.03571,14.04925,15.02611,14.09754Q15.0165,14.14584,14.99765,14.19134Q14.97881,14.23684,14.95145,14.27778Q14.92409,14.31873,14.88927,14.35355L14.60714,14.63568L14.60714,16.14286Q14.60714,16.705,14.209645,17.1025Q13.812147,17.5,13.25,17.5Q13.2007543,17.5,13.1524549,17.490389999999998Q13.104155,17.48078,13.058658,17.46194Q13.013161,17.443089999999998,12.972215,17.41573Q12.931269,17.388370000000002,12.896447,17.35355Q12.861625,17.318730000000002,12.834265,17.27778Q12.806906,17.23684,12.78806,17.19134Q12.769214999999999,17.14584,12.759607,17.09755Q12.75,17.04925,12.75,17Q12.75,16.95075,12.759607,16.90245Q12.769214999999999,16.85415,12.78806,16.80866Q12.806906,16.76316,12.834265,16.72221Q12.861625,16.681269999999998,12.896447,16.64645Q12.931269,16.611620000000002,12.972215,16.58426Q13.013161,16.556910000000002,13.058658,16.53806Q13.104155,16.51921,13.1524549,16.509610000000002Q13.2007543,16.5,13.25,16.5Q13.397934,16.5,13.502538,16.395400000000002Q13.607143,16.29079,13.607143,16.14286L13.607143,14.42857Q13.607143,14.32912,13.645203,14.23723Q13.683263,14.14535,13.753589,14.07502L13.828608,14L13.753589999999999,13.92498Q13.683263,13.854659999999999,13.645203,13.76277Q13.607143,13.67088,13.607143,13.57143L13.607143,11.857143Q13.607143,11.709209,13.502538,11.604605Q13.397934,11.5,13.25,11.5Q13.2007543,11.5,13.1524549,11.490393Q13.104155,11.480785000000001,13.058658,11.46194Q13.013161,11.443094,12.972215,11.415735Q12.931269,11.388375,12.896447,11.353553Q12.861625,11.318731,12.834265,11.277785Q12.806906,11.236839,12.78806,11.191342Q12.769214999999999,11.145845,12.759607,11.0975451Q12.75,11.0492457,12.75,11Q12.75,10.9507543,12.759607,10.9024549Q12.769214999999999,10.854155,12.78806,10.808658Q12.806906,10.763161,12.834265,10.722215Q12.861625,10.681269,12.896447,10.646447Q12.931269,10.611625,12.972215,10.584265Q13.013161,10.556906,13.058658,10.53806Q13.104155,10.519214999999999,13.1524549,10.509607Q13.2007543,10.5,13.25,10.5Z" fill-rule="evenodd" fill="#000000" fill-opacity="1" style="mix-blend-mode:passthrough"/></g></g><g><g><path d="M19.9201520703125,16.222824Q18.9473320703125,15.25,17.5715520703125,15.25Q16.1957720703125,15.25,15.2229460703125,16.222824Q14.2501220703125,17.19565,14.2501220703125,18.57143Q14.2501220703125,19.94721,15.2229460703125,20.92003Q16.1957720703125,21.89286,17.5715520703125,21.89286Q18.9473320703125,21.89286,19.9201520703125,20.92003Q20.8929820703125,19.94721,20.8929820703125,18.57143Q20.8929820703125,17.19565,19.9201520703125,16.222824ZM16.2836020703125,17.28348Q16.8170920703125,16.75,17.5715520703125,16.75Q18.3260120703125,16.75,18.8594920703125,17.28348Q19.3929820703125,17.81697,19.3929820703125,18.57143Q19.3929820703125,19.32589,18.8594920703125,19.85937Q18.3260120703125,20.39286,17.5715520703125,20.39286Q16.8170920703125,20.39286,16.2836020703125,19.85937Q15.7501220703125,19.32589,15.7501220703125,18.57143Q15.7501220703125,17.81697,16.2836020703125,17.28348Z" fill-rule="evenodd" fill="#2882FF" fill-opacity="1" style="mix-blend-mode:passthrough"/></g><g><path d="M19.9876373203125,19.9269773203125L21.5301833203125,21.4695233203125L21.5303433203125,21.469683320312498Q21.6358333203125,21.5751733203125,21.6929233203125,21.7129933203125Q21.7500133203125,21.8508233203125,21.7500133203125,22.0000133203125Q21.7500133203125,22.0738733203125,21.7356033203125,22.1463233203125Q21.721183320312498,22.2187733203125,21.6929233203125,22.2870233203125Q21.6646533203125,22.3552633203125,21.6236133203125,22.4166833203125Q21.5825733203125,22.4781033203125,21.5303433203125,22.5303433203125Q21.4781033203125,22.5825733203125,21.4166833203125,22.6236133203125Q21.3552633203125,22.6646533203125,21.2870233203125,22.6929233203125Q21.2187733203125,22.721183320312498,21.1463233203125,22.7356033203125Q21.0738733203125,22.7500133203125,21.0000133203125,22.7500133203125Q20.8508233203125,22.7500133203125,20.7129933203125,22.6929233203125Q20.5751733203125,22.6358333203125,20.469683320312498,22.5303433203125L20.4695233203125,22.5301833203125L18.9269773203125,20.9876373203125L18.9268233203125,20.9874833203125Q18.8213343203125,20.8819943203125,18.7642433203125,20.7441663203125Q18.7071533203125,20.6063373203125,18.7071533203125,20.4571533203125Q18.7071533203125,20.3832848203125,18.7215643203125,20.3108353203125Q18.7359753203125,20.2383863203125,18.7642433203125,20.1701403203125Q18.7925123203125,20.1018953203125,18.833551320312502,20.0404753203125Q18.8745903203125,19.979056320312502,18.9268233203125,19.9268233203125Q18.979056320312502,19.8745903203125,19.0404753203125,19.833551320312502Q19.1018953203125,19.7925123203125,19.1701403203125,19.7642433203125Q19.2383863203125,19.7359753203125,19.3108353203125,19.7215643203125Q19.3832848203125,19.7071533203125,19.4571533203125,19.7071533203125Q19.6063373203125,19.7071533203125,19.7441663203125,19.7642433203125Q19.8819943203125,19.8213343203125,19.9874833203125,19.9268233203125L19.9876373203125,19.9269773203125Z" fill-rule="evenodd" fill="#2882FF" fill-opacity="1" style="mix-blend-mode:passthrough"/></g></g></g></svg>