<svg xmlns="http://www.w3.org/2000/svg" xmlns:xlink="http://www.w3.org/1999/xlink" fill="none" version="1.1" width="24" height="24" viewBox="0 0 24 24"><defs><clipPath id="master_svg0_63_01316"><rect x="0" y="0" width="24" height="24" rx="0"/></clipPath></defs><g clip-path="url(#master_svg0_63_01316)"><g><path d="M6,6.5L6,8.5C6,8.77614,6.223858,9,6.5,9L8.5,9C8.77614,9,9,8.77614,9,8.5L9,6.5C9,6.223858,8.77614,6,8.5,6L6.5,6C6.223858,6,6,6.223858,6,6.5Z" fill="#13943C" fill-opacity="1"/></g><g><path d="M11,6.5L11,8.5C11,8.77614,11.223858,9,11.5,9L17.5,9C17.776139999999998,9,18,8.77614,18,8.5L18,6.5C18,6.223858,17.776139999999998,6,17.5,6L11.5,6C11.223858,6,11,6.223858,11,6.5Z" fill="#13943C" fill-opacity="1"/></g><g><path d="M6,11.5L6,17.5C6,17.776139999999998,6.223858,18,6.5,18L8.5,18C8.77614,18,9,17.776139999999998,9,17.5L9,11.5C9,11.223858,8.77614,11,8.5,11L6.5,11C6.223858,11,6,11.223858,6,11.5Z" fill="#13943C" fill-opacity="1"/></g><g><path d="M20.591,20.591Q21.25,19.932,21.25,19L21.25,5Q21.25,4.068019,20.591,3.4090098Q19.932,2.75,19,2.75L5,2.75Q4.06802,2.75,3.4090098,3.4090098Q2.75,4.068019,2.75,5L2.75,19Q2.75,19.932,3.4090098,20.591Q4.068019,21.25,5,21.25L19,21.25Q19.932,21.25,20.591,20.591ZM19.75,5L19.75,19Q19.75,19.75,19,19.75L5,19.75Q4.25,19.75,4.25,19L4.25,5Q4.25,4.25,5,4.25L19,4.25Q19.75,4.25,19.75,5Z" fill-rule="evenodd" fill="#231F2E" fill-opacity="1"/></g><g><g><path d="M14.53579915625,12.20181L14.53560715625,12.202Q14.46528015625,12.27233,14.42722015625,12.36421Q14.38916015625,12.4561,14.38916015625,12.55556Q14.38916015625,12.604800000000001,14.39876715625,12.6531Q14.408375156249999,12.7014,14.42722015625,12.7469Q14.44606615625,12.79239,14.47342515625,12.83334Q14.50078515625,12.87429,14.53560715625,12.90911Q14.57042915625,12.94393,14.61137515625,12.97129Q14.65232115625,12.99865,14.69781815625,13.01749Q14.74331515625,13.03634,14.79161505625,13.04595Q14.83991445625,13.05556,14.88916015625,13.05556Q14.98861635625,13.05556,15.08050215625,13.0175Q15.17238715625,12.97943,15.24271315625,12.90911L16.44472015625,11.707107L17.64656015625,12.90895L17.646720156249998,12.90911Q17.71704015625,12.97943,17.80893015625,13.01749Q17.90081015625,13.05556,18.00027015625,13.05556Q18.04952015625,13.05556,18.097820156250002,13.04595Q18.14612015625,13.03634,18.19161015625,13.01749Q18.23711015625,12.99865,18.27806015625,12.97129Q18.31900015625,12.94393,18.35382015625,12.90911Q18.38865015625,12.87429,18.41601015625,12.83334Q18.44336015625,12.79239,18.46221015625,12.7469Q18.48106015625,12.7014,18.49066015625,12.6531Q18.50027015625,12.604800000000001,18.50027015625,12.55556Q18.50027015625,12.4561,18.46221015625,12.36421Q18.42415015625,12.27233,18.35382015625,12.202L16.79827015625,10.646447Q16.72794015625,10.57612,16.63606015625,10.53806Q16.54417015625,10.5,16.44472015625,10.5Q16.34526015625,10.5,16.25337015625,10.53806Q16.16149015625,10.57612,16.091160156249998,10.646447L14.53579915625,12.20181Z" fill-rule="evenodd" fill="#231F2E" fill-opacity="1"/></g><g><path d="M15.94444,11Q15.94444,10.9507543,15.954049999999999,10.9024549Q15.96366,10.854155,15.9825,10.808658Q16.001350000000002,10.763161,16.02871,10.722215Q16.05607,10.681269,16.09089,10.646447Q16.125709999999998,10.611625,16.16666,10.584265Q16.2076,10.556906,16.2531,10.53806Q16.2986,10.519214999999999,16.346899999999998,10.509607Q16.3952,10.5,16.44444,10.5Q16.49369,10.5,16.54199,10.509607Q16.59029,10.519214999999999,16.63578,10.53806Q16.68128,10.556906,16.72223,10.584265Q16.76317,10.611625,16.798000000000002,10.646447Q16.832819999999998,10.681269,16.86018,10.722215Q16.88754,10.763161,16.90638,10.808658Q16.92523,10.854155,16.934829999999998,10.9024549Q16.94444,10.9507543,16.94444,11L16.94444,15.27778Q16.94444,15.96813,16.45629,16.45629Q15.96813,16.94444,15.27778,16.94444L11,16.94444Q10.9507543,16.94444,10.9024549,16.934829999999998Q10.854155,16.92523,10.808658,16.90638Q10.763161,16.88754,10.722215,16.86018Q10.681269,16.832819999999998,10.646447,16.798000000000002Q10.611625,16.76317,10.584265,16.72223Q10.556906,16.68128,10.53806,16.63578Q10.519214999999999,16.59029,10.509607,16.54199Q10.5,16.49369,10.5,16.44444Q10.5,16.3952,10.509607,16.346899999999998Q10.519214999999999,16.2986,10.53806,16.2531Q10.556906,16.2076,10.584265,16.16666Q10.611625,16.125709999999998,10.646447,16.09089Q10.681269,16.05607,10.722215,16.02871Q10.763161,16.001350000000002,10.808658,15.9825Q10.854155,15.96366,10.9024549,15.954049999999999Q10.9507543,15.94444,11,15.94444L15.27778,15.94444Q15.55392,15.94444,15.749179999999999,15.749179999999999Q15.94444,15.55392,15.94444,15.27778L15.94444,11Z" fill-rule="evenodd" fill="#231F2E" fill-opacity="1"/></g><g><path d="M12.90911,15.24240798046875Q12.97943,15.17208198046875,13.01749,15.08019698046875Q13.05556,14.98831118046875,13.05556,14.88885498046875Q13.05556,14.83960928046875,13.04595,14.79130988046875Q13.03634,14.74300998046875,13.01749,14.69751298046875Q12.99865,14.65201598046875,12.97129,14.61106998046875Q12.94393,14.57012398046875,12.90911,14.53530198046875Q12.87429,14.50047998046875,12.83334,14.47311998046875Q12.79239,14.44576098046875,12.7469,14.42691498046875Q12.7014,14.408069980468749,12.6531,14.39846198046875Q12.604800000000001,14.38885498046875,12.55556,14.38885498046875Q12.4561,14.38885498046875,12.36421,14.42691498046875Q12.27233,14.46497498046875,12.202,14.53530198046875L12.20181,14.53549398046875L10.646447,16.090854980468748Q10.57612,16.16118498046875,10.53806,16.25306498046875Q10.5,16.34495498046875,10.5,16.44441498046875Q10.5,16.54386498046875,10.53806,16.63575498046875Q10.57612,16.72763498046875,10.646447,16.79796498046875L12.202,18.35351498046875Q12.27233,18.42384498046875,12.36421,18.46190498046875Q12.4561,18.49996498046875,12.55556,18.49996498046875Q12.604800000000001,18.49996498046875,12.6531,18.49035498046875Q12.7014,18.48075498046875,12.7469,18.46190498046875Q12.79239,18.44305498046875,12.83334,18.41570498046875Q12.87429,18.38834498046875,12.90911,18.35351498046875Q12.94393,18.31869498046875,12.97129,18.27775498046875Q12.99865,18.23680498046875,13.01749,18.19130498046875Q13.03634,18.14581498046875,13.04595,18.097514980468752Q13.05556,18.04921498046875,13.05556,17.99996498046875Q13.05556,17.90050498046875,13.01749,17.80862498046875Q12.97943,17.71673498046875,12.90911,17.646414980468748L12.90895,17.64625498046875L11.707107,16.44441498046875L12.90911,15.24240798046875L12.90911,15.24240798046875Z" fill-rule="evenodd" fill="#231F2E" fill-opacity="1"/></g></g><g><g><path d="M16,17.25L22,17.25Q22.08597,17.25,22.17153,17.25843Q22.257089999999998,17.26685,22.34141,17.28363Q22.42573,17.3004,22.508,17.32535Q22.59027,17.35031,22.66969,17.38321Q22.749119999999998,17.41611,22.824939999999998,17.45664Q22.90076,17.49716,22.97225,17.54493Q23.04373,17.59269,23.11019,17.64723Q23.176650000000002,17.70177,23.23744,17.76256Q23.29823,17.82335,23.35277,17.88981Q23.40731,17.95627,23.45507,18.027752Q23.50284,18.099235,23.54336,18.175056Q23.58389,18.250876,23.61679,18.330304Q23.64969,18.409731999999998,23.67465,18.492002Q23.6996,18.574272,23.71637,18.658592Q23.733150000000002,18.742912,23.74157,18.82847Q23.75,18.914028,23.75,19Q23.75,19.085972,23.74157,19.17153Q23.733150000000002,19.257088,23.71637,19.341408Q23.6996,19.425728,23.67465,19.507998Q23.64969,19.590268000000002,23.61679,19.669696Q23.58389,19.749124,23.54336,19.824944Q23.50284,19.900765,23.45507,19.972248Q23.40731,20.04373,23.35277,20.11019Q23.29823,20.17665,23.23744,20.23744Q23.176650000000002,20.29823,23.11019,20.35277Q23.04373,20.40731,22.97225,20.45507Q22.90076,20.50284,22.824939999999998,20.54336Q22.749119999999998,20.58389,22.6697,20.61679Q22.59027,20.64969,22.508,20.67465Q22.42573,20.6996,22.34141,20.71637Q22.257089999999998,20.73315,22.17153,20.74157Q22.08597,20.75,22,20.75L16,20.75Q15.914028,20.75,15.82847,20.74157Q15.742912,20.73315,15.658592,20.71637Q15.574272,20.6996,15.492002,20.67465Q15.409732,20.64969,15.330304,20.61679Q15.250876,20.58389,15.175056,20.54336Q15.099235,20.50284,15.027752,20.45507Q14.95627,20.40731,14.88981,20.35277Q14.82335,20.29823,14.76256,20.23744Q14.70177,20.17665,14.64723,20.11019Q14.59269,20.04373,14.54493,19.972248Q14.497160000000001,19.900765,14.45664,19.824944Q14.41611,19.749124,14.38321,19.669696Q14.35031,19.590268000000002,14.32535,19.507998Q14.3004,19.425728,14.28363,19.341408Q14.26685,19.257088,14.25843,19.17153Q14.25,19.085972,14.25,19Q14.25,18.914028,14.25843,18.82847Q14.26685,18.742912,14.28363,18.658592Q14.3004,18.574272,14.32535,18.492002Q14.35031,18.409731999999998,14.38321,18.330304Q14.41611,18.250876,14.45664,18.175056Q14.497160000000001,18.099235,14.54493,18.027752Q14.59269,17.95627,14.64723,17.88981Q14.70177,17.82335,14.76256,17.76256Q14.82335,17.70177,14.88981,17.64723Q14.95627,17.59269,15.027752,17.54493Q15.099235,17.49716,15.175056,17.45664Q15.250876,17.41611,15.330304,17.38321Q15.409732,17.35031,15.492002,17.32535Q15.574272,17.3004,15.658592,17.28363Q15.742912,17.26685,15.82847,17.25843Q15.914028,17.25,16,17.25Z" fill-rule="evenodd" fill="#FFFFFF" fill-opacity="1" style="mix-blend-mode:passthrough"/></g><g><path d="M17.25,16Q17.25,15.914028,17.25843,15.82847Q17.26685,15.742912,17.28363,15.658592Q17.3004,15.574272,17.32535,15.492002Q17.35031,15.409732,17.38321,15.330304Q17.41611,15.250876,17.45664,15.175056Q17.49716,15.099235,17.54493,15.027752Q17.59269,14.95627,17.64723,14.88981Q17.70177,14.82335,17.76256,14.76256Q17.82335,14.70177,17.88981,14.64723Q17.95627,14.59269,18.027752,14.54493Q18.099235,14.497160000000001,18.175056,14.45664Q18.250876,14.41611,18.330304,14.38321Q18.409731999999998,14.35031,18.492002,14.32535Q18.574272,14.3004,18.658592,14.28363Q18.742912,14.26685,18.82847,14.25843Q18.914028,14.25,19,14.25Q19.085972,14.25,19.17153,14.25843Q19.257088,14.26685,19.341408,14.28363Q19.425728,14.3004,19.507998,14.32535Q19.590268000000002,14.35031,19.669696,14.38321Q19.749124,14.41611,19.824944,14.45664Q19.900765,14.497160000000001,19.972248,14.54493Q20.04373,14.59269,20.11019,14.64723Q20.17665,14.70177,20.23744,14.76256Q20.29823,14.82335,20.35277,14.88981Q20.40731,14.95627,20.45507,15.027752Q20.50284,15.099235,20.54336,15.175056Q20.58389,15.250876,20.61679,15.330304Q20.64969,15.409732,20.67465,15.492002Q20.6996,15.574272,20.71637,15.658592Q20.73315,15.742912,20.74157,15.82847Q20.75,15.914028,20.75,16L20.75,22Q20.75,22.08597,20.74157,22.17153Q20.73315,22.257089999999998,20.71637,22.34141Q20.6996,22.42573,20.67465,22.508Q20.64969,22.59027,20.61679,22.66969Q20.58389,22.749119999999998,20.54336,22.824939999999998Q20.50284,22.90076,20.45507,22.97225Q20.40731,23.04373,20.35277,23.11019Q20.29823,23.176650000000002,20.23744,23.23744Q20.17665,23.29823,20.11019,23.35277Q20.04373,23.40731,19.972248,23.45507Q19.900765,23.50284,19.824944,23.54336Q19.749124,23.58389,19.669696,23.61679Q19.590268000000002,23.64969,19.507998,23.67465Q19.425728,23.6996,19.341408,23.71637Q19.257088,23.733150000000002,19.17153,23.74157Q19.085972,23.75,19,23.75Q18.914028,23.75,18.82847,23.74157Q18.742912,23.733150000000002,18.658592,23.71637Q18.574272,23.6996,18.492002,23.67465Q18.409731999999998,23.64969,18.330304,23.61679Q18.250876,23.58389,18.175056,23.54336Q18.099235,23.50284,18.027752,23.45507Q17.95627,23.40731,17.88981,23.35277Q17.82335,23.29823,17.76256,23.23744Q17.70177,23.176650000000002,17.64723,23.11019Q17.59269,23.04373,17.54493,22.97225Q17.49716,22.90076,17.45664,22.824939999999998Q17.41611,22.749119999999998,17.38321,22.6697Q17.35031,22.59027,17.32535,22.508Q17.3004,22.42573,17.28363,22.34141Q17.26685,22.257089999999998,17.25843,22.17153Q17.25,22.08597,17.25,22L17.25,16Z" fill-rule="evenodd" fill="#FFFFFF" fill-opacity="1" style="mix-blend-mode:passthrough"/></g></g><g><g><path d="M16,18.25L22,18.25Q22.07387,18.25,22.14632,18.264411Q22.21877,18.278822,22.287010000000002,18.30709Q22.35526,18.335359,22.41668,18.376398000000002Q22.4781,18.417437,22.53033,18.46967Q22.58256,18.521903000000002,22.6236,18.583322Q22.66464,18.644742,22.69291,18.712987Q22.72118,18.781233,22.735590000000002,18.853682Q22.75,18.9261315,22.75,19Q22.75,19.0738685,22.735590000000002,19.146318Q22.72118,19.218767,22.69291,19.287013Q22.66464,19.355258,22.6236,19.416678Q22.58256,19.478096999999998,22.53033,19.53033Q22.4781,19.582563,22.41668,19.623601999999998Q22.35526,19.664641,22.287010000000002,19.69291Q22.21877,19.721178,22.14632,19.735589Q22.07387,19.75,22,19.75L16,19.75Q15.9261315,19.75,15.853682,19.735589Q15.781233,19.721178,15.712987,19.69291Q15.644742,19.664641,15.583322,19.623601999999998Q15.521903,19.582563,15.46967,19.53033Q15.417437,19.478096999999998,15.376398,19.416678Q15.335359,19.355258,15.30709,19.287013Q15.278822,19.218767,15.264410999999999,19.146318Q15.25,19.0738685,15.25,19Q15.25,18.9261315,15.264410999999999,18.853682Q15.278822,18.781233,15.30709,18.712987Q15.335359,18.644742,15.376398,18.583322Q15.417437,18.521903000000002,15.46967,18.46967Q15.521903,18.417437,15.583322,18.376398000000002Q15.644742,18.335359,15.712987,18.30709Q15.781233,18.278822,15.853682,18.264411Q15.9261315,18.25,16,18.25Z" fill-rule="evenodd" fill="#13943C" fill-opacity="1" style="mix-blend-mode:passthrough"/></g><g><path d="M18.25,16Q18.25,15.9261315,18.264411,15.853682Q18.278822,15.781233,18.30709,15.712987Q18.335359,15.644742,18.376398000000002,15.583322Q18.417437,15.521903,18.46967,15.46967Q18.521903000000002,15.417437,18.583322,15.376398Q18.644742,15.335359,18.712987,15.30709Q18.781233,15.278822,18.853682,15.264410999999999Q18.9261315,15.25,19,15.25Q19.0738685,15.25,19.146318,15.264410999999999Q19.218767,15.278822,19.287013,15.30709Q19.355258,15.335359,19.416678,15.376398Q19.478096999999998,15.417437,19.53033,15.46967Q19.582563,15.521903,19.623601999999998,15.583322Q19.664641,15.644742,19.69291,15.712987Q19.721178,15.781233,19.735589,15.853682Q19.75,15.9261315,19.75,16L19.75,22Q19.75,22.07387,19.735589,22.14632Q19.721178,22.21877,19.69291,22.287010000000002Q19.664641,22.35526,19.623601999999998,22.41668Q19.582563,22.4781,19.53033,22.53033Q19.478096999999998,22.58256,19.416678,22.6236Q19.355258,22.66464,19.287013,22.69291Q19.218767,22.72118,19.146318,22.735590000000002Q19.0738685,22.75,19,22.75Q18.9261315,22.75,18.853682,22.735590000000002Q18.781233,22.72118,18.712987,22.69291Q18.644742,22.66464,18.583322,22.6236Q18.521903000000002,22.58256,18.46967,22.53033Q18.417437,22.4781,18.376398000000002,22.41668Q18.335359,22.35526,18.30709,22.287010000000002Q18.278822,22.21877,18.264411,22.14632Q18.25,22.07387,18.25,22L18.25,16Z" fill-rule="evenodd" fill="#13943C" fill-opacity="1" style="mix-blend-mode:passthrough"/></g></g></g></svg>