<svg xmlns="http://www.w3.org/2000/svg" xmlns:xlink="http://www.w3.org/1999/xlink" fill="none" version="1.1" width="24" height="24" viewBox="0 0 24 24"><defs><clipPath id="master_svg0_72_03130"><rect x="0" y="0" width="24" height="24" rx="0"/></clipPath></defs><g clip-path="url(#master_svg0_72_03130)"><g><g><path d="M20.68936,14.295439Q20.75,14.153943,20.75,14Q20.75,13.9261315,20.735590000000002,13.853682Q20.72118,13.781233,20.69291,13.712987Q20.66464,13.644742,20.6236,13.583322Q20.58256,13.521903,20.53033,13.46967Q20.4781,13.417437,20.41668,13.376398Q20.35526,13.335359,20.287010000000002,13.30709Q20.21877,13.278822,20.14632,13.264410999999999Q20.07387,13.25,20,13.25Q19.88992,13.25,19.78447,13.281634Q19.67903,13.313269,19.587130000000002,13.373869Q19.49523,13.434469,19.42462,13.518923000000001Q19.35401,13.603377,19.31064,13.704561Q18.617539999999998,15.3218,17.46967,16.46967Q16.322400000000002,17.61694,14.706258,18.309910000000002L14.704561,18.31064Q14.603377,18.35401,14.518923000000001,18.42462Q14.434469,18.49523,14.373869,18.587130000000002Q14.313269,18.67903,14.281634,18.78447Q14.25,18.88992,14.25,19Q14.25,19.07387,14.264410999999999,19.14632Q14.278822,19.21877,14.30709,19.287010000000002Q14.335359,19.35526,14.376398,19.41668Q14.417437,19.4781,14.46967,19.53033Q14.521903,19.58256,14.583322,19.6236Q14.644742,19.66464,14.712987,19.69291Q14.781233,19.72118,14.853682,19.735590000000002Q14.9261315,19.75,15,19.75Q15.153943,19.75,15.295439,19.68936L15.295733,19.689230000000002Q17.1783,18.88236,18.53033,17.53033Q19.88236,16.1783,20.689230000000002,14.295733L20.68936,14.295439L20.68936,14.295439Z" fill-rule="evenodd" fill="#2882FF" fill-opacity="1" style="mix-blend-mode:passthrough"/></g><g><path d="M15.5,13.25L20,13.25Q20.07387,13.25,20.14632,13.264410999999999Q20.21877,13.278822,20.287010000000002,13.30709Q20.35526,13.335359,20.41668,13.376398Q20.4781,13.417437,20.53033,13.46967Q20.58256,13.521903,20.6236,13.583322Q20.66464,13.644742,20.69291,13.712987Q20.72118,13.781233,20.735590000000002,13.853682Q20.75,13.9261315,20.75,14L20.75,18.5Q20.75,18.57387,20.735590000000002,18.64632Q20.72118,18.71877,20.69291,18.787010000000002Q20.66464,18.85526,20.6236,18.91668Q20.58256,18.9781,20.53033,19.03033Q20.4781,19.08256,20.41668,19.1236Q20.35526,19.16464,20.287010000000002,19.19291Q20.21877,19.22118,20.14632,19.235590000000002Q20.07387,19.25,20,19.25Q19.92613,19.25,19.85368,19.235590000000002Q19.78123,19.22118,19.712989999999998,19.19291Q19.64474,19.16464,19.58332,19.1236Q19.5219,19.08256,19.46967,19.03033Q19.41744,18.9781,19.3764,18.91668Q19.33536,18.85526,19.30709,18.787010000000002Q19.27882,18.71877,19.264409999999998,18.64632Q19.25,18.57387,19.25,18.5L19.25,14.75L15.5,14.75Q15.4261315,14.75,15.353682,14.735589000000001Q15.281233,14.721178,15.212987,14.69291Q15.144742,14.664641,15.083322,14.623602Q15.021903,14.582563,14.96967,14.53033Q14.917437,14.478097,14.876398,14.416678Q14.835359,14.355258,14.80709,14.287013Q14.778822,14.218767,14.764410999999999,14.146318Q14.75,14.0738685,14.75,14Q14.75,13.9261315,14.764410999999999,13.853682Q14.778822,13.781233,14.80709,13.712987Q14.835359,13.644742,14.876398,13.583322Q14.917437,13.521903,14.96967,13.46967Q15.021903,13.417437,15.083322,13.376398Q15.144742,13.335359,15.212987,13.30709Q15.281233,13.278822,15.353682,13.264410999999999Q15.4261315,13.25,15.5,13.25Z" fill-rule="evenodd" fill="#2882FF" fill-opacity="1" style="mix-blend-mode:passthrough"/></g><g><g><path d="M14.62236,7.11906Q14.98187,7.54394,14.98187,8.16667Q14.98187,8.24054,14.99628,8.31298Q15.01069,8.38543,15.03896,8.45368Q15.06723,8.52192,15.10827,8.58334Q15.14931,8.64476,15.20154,8.697Q15.25378,8.74923,15.3152,8.79027Q15.37661,8.83131,15.44486,8.85958Q15.51311,8.88784,15.58556,8.90226Q15.658,8.91667,15.73187,8.91667Q15.80574,8.91667,15.87819,8.90226Q15.95064,8.88784,16.018900000000002,8.85958Q16.0871,8.83131,16.148600000000002,8.79027Q16.21,8.74923,16.2622,8.697Q16.3144,8.64476,16.3555,8.58334Q16.3965,8.52192,16.424799999999998,8.45368Q16.453,8.38543,16.4675,8.31298Q16.4819,8.24054,16.4819,8.16667Q16.4819,6.994474,15.76744,6.150146Q15.00578,5.250001,13.89854,5.250001L7.83387,5.25Q6.656091,5.25,5.88548,6.248046Q5.1635159999999996,7.18309,5.2601379999999995,8.42318L5.779871,15.12012Q5.9297666,17.0534,7.1573,18.3774Q8.42982,19.7498,10.17864,19.75L11.553709999999999,19.75Q11.77093,19.7501,11.98734,19.7258Q12.05551,19.7182,12.12116,19.6983Q12.186810000000001,19.6785,12.24777,19.647Q12.30873,19.6156,12.36297,19.5736Q12.41721,19.531599999999997,12.46294,19.4805Q12.508659999999999,19.429299999999998,12.54435,19.3707Q12.58004,19.3122,12.60452,19.2481Q12.62899,19.183999999999997,12.64143,19.116500000000002Q12.653870000000001,19.0491,12.653870000000001,18.9805Q12.653870000000001,18.906599999999997,12.63946,18.8342Q12.62505,18.761699999999998,12.596779999999999,18.6935Q12.56851,18.6252,12.527470000000001,18.5638Q12.48644,18.5024,12.4342,18.450200000000002Q12.381969999999999,18.3979,12.32055,18.3569Q12.259129999999999,18.3159,12.19089,18.287599999999998Q12.12264,18.2593,12.05019,18.2449Q11.97774,18.2305,11.903870000000001,18.2305Q11.86201,18.2305,11.8204,18.2352L11.82028,18.2352L11.81934,18.235300000000002Q11.68693,18.25,11.553709999999999,18.25L10.17878,18.25Q9.08466,18.2499,8.25726,17.3575Q7.3849,16.416600000000003,7.27537,15.00405L6.755606,8.30666Q6.70386,7.64254,7.07276,7.16477Q7.39301,6.75,7.83387,6.750001L13.89854,6.750001Q14.31008,6.750001,14.62236,7.11906Z" fill-rule="evenodd" fill="#231F2E" fill-opacity="1" style="mix-blend-mode:passthrough"/></g><g><path d="M9.4912109375,9.583284854888916Q9.4173424375,9.583284854888916,9.3448929375,9.597695854888915Q9.2724439375,9.612106854888916,9.2041979375,9.640374854888917Q9.1359529375,9.668643854888916,9.0745329375,9.709682854888916Q9.0131139375,9.750721854888916,8.9608809375,9.802954854888917Q8.9086479375,9.855187854888916,8.8676089375,9.916606854888917Q8.8265699375,9.978026854888917,8.7983009375,10.046271854888916Q8.7700329375,10.114517854888916,8.755621937499999,10.186966854888915Q8.7412109375,10.259416354888916,8.7412109375,10.333284854888916Q8.7412109375,10.407153354888916,8.755621937499999,10.479602854888917Q8.7700329375,10.552051854888916,8.7983009375,10.620297854888916Q8.8265699375,10.688542854888915,8.8676089375,10.749962854888915Q8.9086479375,10.811381854888916,8.9608809375,10.863614854888915Q9.0131139375,10.915847854888916,9.0745329375,10.956886854888916Q9.1359529375,10.997925854888916,9.2041979375,11.026194854888915Q9.2724439375,11.054462854888916,9.3448929375,11.068873854888917Q9.4173424375,11.083284854888916,9.4912109375,11.083284854888916L9.5003778175,11.083284854888916Q9.5742463375,11.083284854888916,9.6466959375,11.068873854888917Q9.7191449375,11.054462854888916,9.7873899375,11.026194854888915Q9.8556359375,10.997925854888916,9.9170549375,10.956886854888916Q9.9784749375,10.915847854888916,10.0307079375,10.863614854888915Q10.0829409375,10.811381854888916,10.1239799375,10.749962854888915Q10.1650189375,10.688542854888915,10.1932869375,10.620297854888916Q10.2215559375,10.552051854888916,10.2359669375,10.479602854888917Q10.2503779375,10.407153354888916,10.2503779375,10.333284854888916Q10.2503779375,10.259416354888916,10.2359669375,10.186966854888915Q10.2215559375,10.114517854888916,10.1932869375,10.046271854888916Q10.1650189375,9.978026854888917,10.1239799375,9.916606854888917Q10.0829409375,9.855187854888916,10.0307079375,9.802954854888917Q9.9784749375,9.750721854888916,9.9170559375,9.709682854888916Q9.8556359375,9.668643854888916,9.7873899375,9.640374854888917Q9.7191449375,9.612106854888916,9.6466959375,9.597695854888915Q9.5742463375,9.583284854888916,9.5003778375,9.583284854888916L9.4912109375,9.583284854888916Z" fill-rule="evenodd" fill="#231F2E" fill-opacity="1" style="mix-blend-mode:passthrough"/></g><g><path d="M12.2412109375,9.583284854888916Q12.1673424375,9.583284854888916,12.0948929375,9.597695854888915Q12.0224439375,9.612106854888916,11.9541979375,9.640374854888917Q11.8859529375,9.668643854888916,11.8245329375,9.709682854888916Q11.7631139375,9.750721854888916,11.7108809375,9.802954854888917Q11.6586479375,9.855187854888916,11.6176089375,9.916606854888917Q11.5765699375,9.978026854888917,11.5483009375,10.046271854888916Q11.5200329375,10.114517854888916,11.505621937499999,10.186966854888915Q11.4912109375,10.259416354888916,11.4912109375,10.333284854888916Q11.4912109375,10.407153354888916,11.505621937499999,10.479602854888917Q11.5200329375,10.552051854888916,11.5483009375,10.620297854888916Q11.5765699375,10.688542854888915,11.6176089375,10.749962854888915Q11.6586479375,10.811381854888916,11.7108809375,10.863614854888915Q11.7631139375,10.915847854888916,11.8245329375,10.956886854888916Q11.8859529375,10.997925854888916,11.9541979375,11.026194854888915Q12.0224439375,11.054462854888916,12.0948929375,11.068873854888917Q12.1673424375,11.083284854888916,12.2412109375,11.083284854888916L12.2503778175,11.083284854888916Q12.3242463375,11.083284854888916,12.3966959375,11.068873854888917Q12.4691449375,11.054462854888916,12.5373899375,11.026194854888915Q12.6056359375,10.997925854888916,12.6670549375,10.956886854888916Q12.7284749375,10.915847854888916,12.7807079375,10.863614854888915Q12.8329409375,10.811381854888916,12.8739799375,10.749962854888915Q12.9150189375,10.688542854888915,12.9432869375,10.620297854888916Q12.9715559375,10.552051854888916,12.9859669375,10.479602854888917Q13.0003779375,10.407153354888916,13.0003779375,10.333284854888916Q13.0003779375,10.259416354888916,12.9859669375,10.186966854888915Q12.9715559375,10.114517854888916,12.9432869375,10.046271854888916Q12.9150189375,9.978026854888917,12.8739799375,9.916606854888917Q12.8329409375,9.855187854888916,12.7807079375,9.802954854888917Q12.7284749375,9.750721854888916,12.6670559375,9.709682854888916Q12.6056359375,9.668643854888916,12.5373899375,9.640374854888917Q12.4691449375,9.612106854888916,12.3966959375,9.597695854888915Q12.3242463375,9.583284854888916,12.2503778375,9.583284854888916L12.2412109375,9.583284854888916Z" fill-rule="evenodd" fill="#231F2E" fill-opacity="1" style="mix-blend-mode:passthrough"/></g><g transform="matrix(1,0,0,-1,0,29.33342933654785)"><path d="M10.6785209375,15.434109668273926Q10.9837109375,15.377440668273925,11.3019209375,15.510519668273925Q11.4407809375,15.568590668273925,11.5912909375,15.568590668273925Q11.6651609375,15.568590668273925,11.7376109375,15.554179668273926Q11.8100609375,15.539768668273926,11.8783109375,15.511499668273926Q11.9465509375,15.483231668273925,12.0079709375,15.442192668273925Q12.0693909375,15.401153668273926,12.1216209375,15.348920668273927Q12.1738609375,15.296687668273925,12.2149009375,15.235267668273925Q12.2559309375,15.173848668273926,12.2842009375,15.105602668273926Q12.3124709375,15.037357668273925,12.3268809375,14.964907668273925Q12.3412909375,14.892458668273926,12.3412909375,14.818590668273925Q12.3412909375,14.707664468273926,12.309180937499999,14.601487468273925Q12.2770709375,14.495310668273925,12.2156009375,14.402974668273925Q12.1541309375,14.310637668273927,12.0685709375,14.240048668273925Q11.9830009375,14.169459668273927,11.8806609375,14.126661668273925L11.8805909375,14.126632668273926L11.8803209375,14.126519668273925Q11.1495409375,13.821006668273926,10.4046719375,13.959319668273926Q9.6975329375,14.090625668273926,9.0269969375,14.619518768273926L9.0266819375,14.619766668273925Q8.9599459375,14.672415578273926,8.9066849375,14.738664768273926Q8.8534249375,14.804913668273926,8.8163419375,14.881402668273926Q8.7792589375,14.957890668273926,8.7602349375,15.040738668273926Q8.7412109375,15.123586668273926,8.7412109375,15.208589668273925Q8.7412109375,15.282458668273925,8.755621937499999,15.354907668273926Q8.7700329375,15.427356668273926,8.7983009375,15.495602668273925Q8.8265699375,15.563847668273926,8.8676089375,15.625267668273926Q8.9086479375,15.686684668273926,8.9608809375,15.738924668273926Q9.0131139375,15.791154668273926,9.0745329375,15.832194668273926Q9.1359529375,15.873234668273925,9.2041979375,15.901494668273926Q9.2724439375,15.929764668273926,9.3448929375,15.944174668273925Q9.4173424375,15.958594668273925,9.4912109375,15.958594668273925Q9.6176269375,15.958594668273925,9.7370589375,15.917154668273925Q9.8564909375,15.875714668273925,9.9557399375,15.797414668273927L9.9563819375,15.796904668273926Q10.3358099375,15.497746668273926,10.6785209375,15.434109668273926Z" fill-rule="evenodd" fill="#231F2E" fill-opacity="1" style="mix-blend-mode:passthrough"/></g></g></g></g></svg>