<svg xmlns="http://www.w3.org/2000/svg" xmlns:xlink="http://www.w3.org/1999/xlink" fill="none" version="1.1" width="24" height="24" viewBox="0 0 24 24"><defs><clipPath id="master_svg0_63_01442"><rect x="0" y="0" width="24" height="24" rx="0"/></clipPath></defs><g clip-path="url(#master_svg0_63_01442)"><g><path d="M6,6.5L6,8.5C6,8.77614,6.223858,9,6.5,9L8.5,9C8.77614,9,9,8.77614,9,8.5L9,6.5C9,6.223858,8.77614,6,8.5,6L6.5,6C6.223858,6,6,6.223858,6,6.5Z" fill="#13943C" fill-opacity="1"/></g><g><path d="M11,6.5L11,8.5C11,8.77614,11.223858,9,11.5,9L17.5,9C17.776139999999998,9,18,8.77614,18,8.5L18,6.5C18,6.223858,17.776139999999998,6,17.5,6L11.5,6C11.223858,6,11,6.223858,11,6.5Z" fill="#13943C" fill-opacity="1"/></g><g><path d="M6,11.5L6,17.5C6,17.776139999999998,6.223858,18,6.5,18L8.5,18C8.77614,18,9,17.776139999999998,9,17.5L9,11.5C9,11.223858,8.77614,11,8.5,11L6.5,11C6.223858,11,6,11.223858,6,11.5Z" fill="#13943C" fill-opacity="1"/></g><g><g><path d="M14.53579915625,12.20181L14.53560715625,12.202Q14.46528015625,12.27233,14.42722015625,12.36421Q14.38916015625,12.4561,14.38916015625,12.55556Q14.38916015625,12.604800000000001,14.39876715625,12.6531Q14.408375156249999,12.7014,14.42722015625,12.7469Q14.44606615625,12.79239,14.47342515625,12.83334Q14.50078515625,12.87429,14.53560715625,12.90911Q14.57042915625,12.94393,14.61137515625,12.97129Q14.65232115625,12.99865,14.69781815625,13.01749Q14.74331515625,13.03634,14.79161505625,13.04595Q14.83991445625,13.05556,14.88916015625,13.05556Q14.98861635625,13.05556,15.08050215625,13.0175Q15.17238715625,12.97943,15.24271315625,12.90911L16.44472015625,11.707107L17.64656015625,12.90895L17.646720156249998,12.90911Q17.71704015625,12.97943,17.80893015625,13.01749Q17.90081015625,13.05556,18.00027015625,13.05556Q18.04952015625,13.05556,18.097820156250002,13.04595Q18.14612015625,13.03634,18.19161015625,13.01749Q18.23711015625,12.99865,18.27806015625,12.97129Q18.31900015625,12.94393,18.35382015625,12.90911Q18.38865015625,12.87429,18.41601015625,12.83334Q18.44336015625,12.79239,18.46221015625,12.7469Q18.48106015625,12.7014,18.49066015625,12.6531Q18.50027015625,12.604800000000001,18.50027015625,12.55556Q18.50027015625,12.4561,18.46221015625,12.36421Q18.42415015625,12.27233,18.35382015625,12.202L16.79827015625,10.646447Q16.72794015625,10.57612,16.63606015625,10.53806Q16.54417015625,10.5,16.44472015625,10.5Q16.34526015625,10.5,16.25337015625,10.53806Q16.16149015625,10.57612,16.091160156249998,10.646447L14.53579915625,12.20181Z" fill-rule="evenodd" fill="#231F2E" fill-opacity="1"/></g><g><path d="M15.94444,11Q15.94444,10.9507543,15.954049999999999,10.9024549Q15.96366,10.854155,15.9825,10.808658Q16.001350000000002,10.763161,16.02871,10.722215Q16.05607,10.681269,16.09089,10.646447Q16.125709999999998,10.611625,16.16666,10.584265Q16.2076,10.556906,16.2531,10.53806Q16.2986,10.519214999999999,16.346899999999998,10.509607Q16.3952,10.5,16.44444,10.5Q16.49369,10.5,16.54199,10.509607Q16.59029,10.519214999999999,16.63578,10.53806Q16.68128,10.556906,16.72223,10.584265Q16.76317,10.611625,16.798000000000002,10.646447Q16.832819999999998,10.681269,16.86018,10.722215Q16.88754,10.763161,16.90638,10.808658Q16.92523,10.854155,16.934829999999998,10.9024549Q16.94444,10.9507543,16.94444,11L16.94444,15.27778Q16.94444,15.96813,16.45629,16.45629Q15.96813,16.94444,15.27778,16.94444L11,16.94444Q10.9507543,16.94444,10.9024549,16.934829999999998Q10.854155,16.92523,10.808658,16.90638Q10.763161,16.88754,10.722215,16.86018Q10.681269,16.832819999999998,10.646447,16.798000000000002Q10.611625,16.76317,10.584265,16.72223Q10.556906,16.68128,10.53806,16.63578Q10.519214999999999,16.59029,10.509607,16.54199Q10.5,16.49369,10.5,16.44444Q10.5,16.3952,10.509607,16.346899999999998Q10.519214999999999,16.2986,10.53806,16.2531Q10.556906,16.2076,10.584265,16.16666Q10.611625,16.125709999999998,10.646447,16.09089Q10.681269,16.05607,10.722215,16.02871Q10.763161,16.001350000000002,10.808658,15.9825Q10.854155,15.96366,10.9024549,15.954049999999999Q10.9507543,15.94444,11,15.94444L15.27778,15.94444Q15.55392,15.94444,15.749179999999999,15.749179999999999Q15.94444,15.55392,15.94444,15.27778L15.94444,11Z" fill-rule="evenodd" fill="#231F2E" fill-opacity="1"/></g><g><path d="M12.90911,15.24240798046875Q12.97943,15.17208198046875,13.01749,15.08019698046875Q13.05556,14.98831118046875,13.05556,14.88885498046875Q13.05556,14.83960928046875,13.04595,14.79130988046875Q13.03634,14.74300998046875,13.01749,14.69751298046875Q12.99865,14.65201598046875,12.97129,14.61106998046875Q12.94393,14.57012398046875,12.90911,14.53530198046875Q12.87429,14.50047998046875,12.83334,14.47311998046875Q12.79239,14.44576098046875,12.7469,14.42691498046875Q12.7014,14.408069980468749,12.6531,14.39846198046875Q12.604800000000001,14.38885498046875,12.55556,14.38885498046875Q12.4561,14.38885498046875,12.36421,14.42691498046875Q12.27233,14.46497498046875,12.202,14.53530198046875L12.20181,14.53549398046875L10.646447,16.090854980468748Q10.57612,16.16118498046875,10.53806,16.25306498046875Q10.5,16.34495498046875,10.5,16.44441498046875Q10.5,16.54386498046875,10.53806,16.63575498046875Q10.57612,16.72763498046875,10.646447,16.79796498046875L12.202,18.35351498046875Q12.27233,18.42384498046875,12.36421,18.46190498046875Q12.4561,18.49996498046875,12.55556,18.49996498046875Q12.604800000000001,18.49996498046875,12.6531,18.49035498046875Q12.7014,18.48075498046875,12.7469,18.46190498046875Q12.79239,18.44305498046875,12.83334,18.41570498046875Q12.87429,18.38834498046875,12.90911,18.35351498046875Q12.94393,18.31869498046875,12.97129,18.27775498046875Q12.99865,18.23680498046875,13.01749,18.19130498046875Q13.03634,18.14581498046875,13.04595,18.097514980468752Q13.05556,18.04921498046875,13.05556,17.99996498046875Q13.05556,17.90050498046875,13.01749,17.80862498046875Q12.97943,17.71673498046875,12.90911,17.646414980468748L12.90895,17.64625498046875L11.707107,16.44441498046875L12.90911,15.24240798046875L12.90911,15.24240798046875Z" fill-rule="evenodd" fill="#231F2E" fill-opacity="1"/></g></g><g><path d="M20.591,20.591Q21.25,19.932,21.25,19L21.25,5Q21.25,4.068019,20.591,3.4090098Q19.932,2.75,19,2.75L5,2.75Q4.06802,2.75,3.4090098,3.4090098Q2.75,4.068019,2.75,5L2.75,19Q2.75,19.932,3.4090098,20.591Q4.068019,21.25,5,21.25L19,21.25Q19.932,21.25,20.591,20.591ZM19.75,5L19.75,19Q19.75,19.75,19,19.75L5,19.75Q4.25,19.75,4.25,19L4.25,5Q4.25,4.25,5,4.25L19,4.25Q19.75,4.25,19.75,5Z" fill-rule="evenodd" fill="#231F2E" fill-opacity="1"/></g><g><path d="M14.271728515625,16L14.271728515625,16.786Q14.271728515625,17.73511,14.910358515625,18.43788L16.036434515625,19.67656L16.036434315625,22Q16.036434515625,22.28399,16.126238515625,22.5534Q16.153425515625,22.63496,16.188475515625,22.71346Q16.223525515625,22.79196,16.266101515625,22.86665Q16.308677515625,22.94134,16.358369515625,23.011499999999998Q16.408060515625,23.08165,16.464389515625,23.1466Q16.520718515625,23.21155,16.583142515625,23.27066Q16.645566515625,23.32978,16.713483515625,23.38249Q16.781401515625,23.435200000000002,16.854158515625,23.481Q16.926914515625,23.5268,17.003810515625,23.56525Q17.080708515625,23.60369,17.160998515625,23.63442Q17.241298515625,23.66515,17.324208515625,23.68785Q17.407128515625,23.71056,17.491878515625,23.72503Q17.576618515625,23.7395,17.662378515625,23.7456Q17.748138515625,23.75169,17.834078515625,23.74935Q17.920018515625,23.74701,18.005308515625,23.73626Q18.090608515625,23.72551,18.174438515625,23.70644Q18.258268515625,23.68738,18.339828515625,23.6602L20.457478515625,22.95431Q20.587348515625,22.91102,20.708908515624998,22.84807Q20.830458515625,22.78511,20.940748515625,22.70402Q21.051038515625,22.62293,21.147378515625,22.525669999999998Q21.243708515625002,22.42841,21.323758515625002,22.31736Q21.403798515625,22.206310000000002,21.465598515625,22.08416Q21.527398515625002,21.96201,21.569448515624998,21.83174Q21.611508515625,21.70147,21.632798515624998,21.56624Q21.654078515625,21.43101,21.654078515625,21.29412L21.654078515625,19.5484L22.699208515625,18.50327Q23.418568515625,17.78414,23.418788515625,16.766588L23.418788515625,16Q23.418788515625,15.914028,23.410358515625,15.82847Q23.401938515624998,15.742912,23.385158515625,15.658592Q23.368388515625,15.574272,23.343428515625,15.492002Q23.318478515625,15.409732,23.285578515624998,15.330304Q23.252678515625,15.250876,23.212148515625,15.175056Q23.171618515625,15.099235,23.123858515625,15.027752Q23.076098515625,14.95627,23.021558515625,14.88981Q22.967018515625,14.82335,22.906218515625,14.76256Q22.845428515625,14.70177,22.778978515625,14.64723Q22.712518515625,14.59269,22.641038515625,14.54493Q22.569548515625,14.497160000000001,22.493728515625,14.45664Q22.417908515625,14.41611,22.338478515625,14.38321Q22.259058515625,14.35031,22.176788515625,14.32535Q22.094518515625,14.3004,22.010198515625,14.28363Q21.925878515625,14.26685,21.840318515625,14.25843Q21.754758515625,14.25,21.668788515625,14.25L16.021728515625,14.25Q15.935756515625,14.25,15.850198515625,14.25843Q15.764640515625,14.26685,15.680320515625,14.28363Q15.596000515625,14.3004,15.513730515625,14.32535Q15.431460515625,14.35031,15.352032515625,14.38321Q15.272604515625,14.41611,15.196784515625,14.45664Q15.120963515625,14.497160000000001,15.049480515625,14.54493Q14.977998515625,14.59269,14.911538515625,14.64723Q14.845078515625,14.70177,14.784288515625,14.76256Q14.723498515625,14.82335,14.668958515625,14.88981Q14.614418515625,14.95627,14.566658515625,15.027752Q14.518888515625001,15.099235,14.478368515625,15.175056Q14.437838515625,15.250876,14.404938515625,15.330304Q14.372038515625,15.409732,14.347078515625,15.492002Q14.322128515625,15.574272,14.305358515625,15.658592Q14.288578515625,15.742912,14.280158515625,15.82847Q14.271728515625,15.914028,14.271728515625,16Z" fill-rule="evenodd" fill="#FFFFFF" fill-opacity="1" style="mix-blend-mode:passthrough"/></g><g><path d="M16.021728515625,16L21.668788515625,16L21.668788515625,16.766588C21.668748515625,16.953785,21.594348515625,17.1333,21.461968515625,17.26565L19.904078515625,18.823529999999998L19.904078515625,21.29412L17.786438515625,22L17.786438515625,19L16.205257515625,17.26071C16.087161815625,17.13075,16.021728515625,16.961503,16.021728515625,16.786L16.021728515625,16Z" fill="#13943C" fill-opacity="0.20000000298023224"/><path d="M15.271728515625,16L15.271728515625,16.786Q15.271728515625,17.34861,15.650302515625,17.76521L17.036438515625,19.28996L17.036438515625,22Q17.036438515625,22.12171,17.074918515625,22.23717Q17.122098515625,22.378700000000002,17.219848515625,22.4914Q17.317588515625,22.6041,17.451028515625,22.67082Q17.584458515625,22.73754,17.733268515625,22.74811Q17.882078515625,22.75869,18.023608515625,22.71151L20.141248515625,22.00563Q20.196908515625,21.98708,20.249008515625,21.9601Q20.301098515625,21.93312,20.348368515625,21.89836Q20.395638515625002,21.86361,20.436918515625,21.821930000000002Q20.478208515625,21.78024,20.512508515625,21.73265Q20.546818515625,21.68506,20.573298515624998,21.63271Q20.599788515625,21.58036,20.617808515625,21.52453Q20.635838515625,21.46869,20.644958515625,21.41074Q20.654078515625,21.35279,20.654078515625,21.29412L20.654078515625,19.13419L21.992208515625002,17.79606Q22.418658515625,17.36974,22.418788515625,16.766588L22.418788515625,16Q22.418788515625,15.9261315,22.404378515624998,15.853682Q22.389968515625,15.781233,22.361698515625,15.712987Q22.333428515625002,15.644742,22.292388515625,15.583322Q22.251348515625,15.521903,22.199118515625,15.46967Q22.146888515625,15.417437,22.085468515625,15.376398Q22.024048515625,15.335359,21.955798515625,15.30709Q21.887558515625,15.278822,21.815108515625,15.264410999999999Q21.742658515625,15.25,21.668788515625,15.25L16.021728515625,15.25Q15.947860015625,15.25,15.875410515625,15.264410999999999Q15.802961515625,15.278822,15.734715515625,15.30709Q15.666470515625,15.335359,15.605050515625,15.376398Q15.543631515625,15.417437,15.491398515625,15.46967Q15.439165515625,15.521903,15.398126515625,15.583322Q15.357087515625,15.644742,15.328818515625,15.712987Q15.300550515625,15.781233,15.286139515624999,15.853682Q15.271728515625,15.9261315,15.271728515625,16ZM16.771728515625,16.768868L18.341388515625,18.4955Q18.435518515625,18.59904,18.485978515625,18.72955Q18.536438515625,18.86007,18.536438515625,19L18.536438515625,20.95943L19.154078515625,20.75355L19.154078515625,18.823529999999998Q19.154078515625,18.67435,19.211168515625,18.53652Q19.268258515625,18.398690000000002,19.373748515625,18.2932L20.916948515625002,16.75L16.771728515625,16.75L16.771728515625,16.768868Z" fill-rule="evenodd" fill="#13943C" fill-opacity="1" style="mix-blend-mode:passthrough"/></g></g></svg>