<svg xmlns="http://www.w3.org/2000/svg" xmlns:xlink="http://www.w3.org/1999/xlink" fill="none" version="1.1" width="24" height="24" viewBox="0 0 24 24"><defs><clipPath id="master_svg0_78_01693"><rect x="0" y="0" width="24" height="24" rx="0"/></clipPath></defs><g clip-path="url(#master_svg0_78_01693)"><g><g><path d="M1.75,16.25L1.75,7.75L8.050049999999999,7.75L8.050049999999999,16.25L1.75,16.25ZM6.55005,9.25L3.25,9.25L3.25,14.75L6.55005,14.75L6.55005,9.25Z" fill-rule="evenodd" fill="#736F78" fill-opacity="1"/></g><g><path d="M6.550048828125,20.25L6.550048828125,14.75L16.550048828125,14.75L16.550048828125,20.25L6.550048828125,20.25ZM15.050048828125,16.25L8.050048828125,16.25L8.050048828125,18.75L15.050048828125,18.75L15.050048828125,16.25Z" fill-rule="evenodd" fill="#736F78" fill-opacity="1"/></g><g><path d="M15.050048828125,16.25L15.050048828125,7.75L21.249998828125,7.75L21.249998828125,16.25L15.050048828125,16.25ZM19.749998828125,9.25L16.550048828125,9.25L16.550048828125,14.75L19.749998828125,14.75L19.749998828125,9.25Z" fill-rule="evenodd" fill="#736F78" fill-opacity="1"/></g><g><path d="M6.550048828125,9.25L6.550048828125,3.75L16.550048828125,3.75L16.550048828125,9.25L6.550048828125,9.25ZM15.050048828125,5.25L8.050048828125,5.25L8.050048828125,7.75L15.050048828125,7.75L15.050048828125,5.25Z" fill-rule="evenodd" fill="#736F78" fill-opacity="1"/></g><g><path d="M7.300048828125,8.5L7.300048828125,15.5L15.800048828125,15.5L15.800048828125,8.5L7.300048828125,8.5Z" fill="#13943C" fill-opacity="0.20000000298023224"/><path d="M6.550048828125,16.25L6.550048828125,7.75L16.550048828125,7.75L16.550048828125,16.25L6.550048828125,16.25ZM15.050048828125,9.25L8.050048828125,9.25L8.050048828125,14.75L15.050048828125,14.75L15.050048828125,9.25Z" fill-rule="evenodd" fill="#13943C" fill-opacity="1"/></g></g><g><path d="M20.591,19.591Q21.25,18.932000000000002,21.25,18L21.25,6Q21.25,5.06802,20.591,4.4090098Q19.932,3.75,19,3.75L4,3.75Q3.0680199999999997,3.75,2.40901,4.4090098Q1.75,5.068019,1.75,6L1.75,18Q1.75,18.932000000000002,2.40901,19.591Q3.068019,20.25,4,20.25L19,20.25Q19.932,20.25,20.591,19.591ZM19.75,6L19.75,18Q19.75,18.75,19,18.75L4,18.75Q3.25,18.75,3.25,18L3.25,6Q3.25,5.68934,3.46967,5.46967Q3.68934,5.25,4,5.25L19,5.25Q19.3107,5.25,19.5303,5.46967Q19.75,5.68934,19.75,6Z" fill-rule="evenodd" fill="#231F2E" fill-opacity="1"/></g><g><path d="M15.0126907,22.1087C14.98076,22.21582,15.0101133,22.33182,15.0891491,22.41085C15.168185,22.48989,15.284184,22.51924,15.3913,22.48731L16.48087,22.16267C16.82021,22.06156,17.12899,21.87746,17.3793,21.62702L21.68807,17.31825C22.10398,16.90228,22.10398,16.227912,21.68807,15.811933C21.27209,15.396022,20.59772,15.396022,20.18175,15.811933L15.872983,20.1207C15.622545,20.37101,15.438445,20.67979,15.337329,21.01913L15.0126907,22.1087Z" fill="#FFFFFF" fill-opacity="1"/><path d="M14.054326,21.82315L14.054363,21.82303L14.378971,20.73356Q14.605356,19.97383,15.165876,19.41359L19.4747,15.104768Q20.07956,14.5,20.934910000000002,14.5Q21.79025,14.5,22.395229999999998,15.104886Q23,15.709753,23,16.56509Q23,17.42043,22.39517,18.02536L18.08659,22.33395Q17.52617,22.89465,16.76641,23.12104L15.676977,23.44564Q14.9318489,23.66776,14.382042,23.11796Q13.86661,22.60252,14.029614,21.91541Q14.040466,21.86966,14.054326,21.82315ZM15.0891491,22.41085C15.0101133,22.33182,14.98076,22.21582,15.0126907,22.1087L15.191694,21.50792L15.193192,21.50289L15.337329,21.01913C15.438445,20.67979,15.622545,20.37101,15.872983,20.1207L20.18175,15.811933C20.59772,15.396022,21.27209,15.396022,21.68807,15.811933C22.10398,16.227912,22.10398,16.90228,21.68807,17.31825L17.3793,21.62702C17.12899,21.87746,16.82021,22.06156,16.48087,22.16267L15.997108,22.30681L15.992079,22.30831L15.3913,22.48731C15.284184,22.51924,15.168185,22.48989,15.0891491,22.41085Z" fill-rule="evenodd" fill="#FFFFFF" fill-opacity="1"/></g><g><path d="M21.68807,15.811933C21.27209,15.396022,20.59772,15.396022,20.18175,15.811933L19.71224,16.281441L21.21856,17.78776L21.68807,17.31825C22.10398,16.90228,22.10398,16.227912,21.68807,15.811933ZM20.78801,18.21831L19.28169,16.71199L15.872983,20.1207C15.622545,20.37101,15.438445,20.67979,15.337329,21.01913L15.0126907,22.1087C14.98076,22.21582,15.0101133,22.33182,15.0891491,22.41085C15.168185,22.48989,15.284184,22.51924,15.3913,22.48731L16.48087,22.16267C16.82021,22.06156,17.12899,21.87746,17.3793,21.62702L20.78801,18.21831Z" fill="#13943C" fill-opacity="1"/></g></g></svg>