<svg xmlns="http://www.w3.org/2000/svg" xmlns:xlink="http://www.w3.org/1999/xlink" fill="none" version="1.1" width="24" height="24" viewBox="0 0 24 24"><defs><clipPath id="master_svg0_72_03233"><rect x="0" y="0" width="24" height="24" rx="0"/></clipPath><clipPath id="master_svg1_75_03009"><rect x="1" y="1" width="22" height="22" rx="0"/></clipPath></defs><g clip-path="url(#master_svg0_72_03233)"><g clip-path="url(#master_svg1_75_03009)"><g></g><g><path d="M5.6360399999999995,18.364Q8.272079999999999,21,12,21Q12.07387,21,12.14632,20.9856Q12.21877,20.9712,12.28701,20.9429Q12.35526,20.9146,12.41668,20.8736Q12.4781,20.8326,12.53033,20.7803Q12.58256,20.7281,12.6236,20.6667Q12.66464,20.6053,12.69291,20.537Q12.72118,20.4688,12.73559,20.3963Q12.75,20.3239,12.75,20.25Q12.75,20.1761,12.73559,20.1037Q12.72118,20.0312,12.69291,19.963Q12.66464,19.8947,12.6236,19.8333Q12.58256,19.7719,12.53033,19.7197Q12.4781,19.6674,12.41668,19.6264Q12.35526,19.5854,12.28701,19.5571Q12.21877,19.5288,12.14632,19.514400000000002Q12.07387,19.5,12,19.5Q8.8934,19.5,6.6967,17.3033Q4.499999,15.1066,4.499999,12Q4.5,8.8934,6.6967,6.6967Q8.8934,4.499999,12,4.499999Q15.1066,4.5,17.3033,6.6967Q19.5,8.8934,19.5,12Q19.5,12.07387,19.514400000000002,12.14632Q19.5288,12.21877,19.5571,12.28701Q19.5854,12.35526,19.6264,12.41668Q19.6674,12.4781,19.7197,12.53033Q19.7719,12.58256,19.8333,12.6236Q19.8947,12.66464,19.963,12.69291Q20.0312,12.72118,20.1037,12.73559Q20.1761,12.75,20.25,12.75Q20.3239,12.75,20.3963,12.73559Q20.4688,12.72118,20.537,12.69291Q20.6053,12.66464,20.6667,12.6236Q20.7281,12.58256,20.7803,12.53033Q20.8326,12.4781,20.8736,12.41668Q20.9146,12.35526,20.9429,12.28701Q20.9712,12.21877,20.9856,12.14632Q21,12.07387,21,12Q21,8.272079999999999,18.364,5.6360399999999995Q15.7279,3,12,2.999999Q8.272079999999999,3,5.6360399999999995,5.6360399999999995Q3,8.272079999999999,2.999999,12Q3,15.7279,5.6360399999999995,18.364Z" fill-rule="evenodd" fill="#231F2E" fill-opacity="1" style="mix-blend-mode:passthrough"/></g><g><path d="M9.25,9.41668701171875Q9.1761315,9.41668701171875,9.103682,9.431098011718749Q9.031233,9.44550901171875,8.962987,9.47377701171875Q8.894742,9.50204601171875,8.833322,9.54308501171875Q8.771903,9.58412401171875,8.71967,9.63635701171875Q8.667437,9.68859001171875,8.626398,9.75000901171875Q8.585359,9.81142901171875,8.55709,9.87967401171875Q8.528822,9.94792001171875,8.514410999999999,10.02036901171875Q8.5,10.09281851171875,8.5,10.16668701171875Q8.5,10.24055551171875,8.514410999999999,10.31300501171875Q8.528822,10.38545401171875,8.55709,10.45370001171875Q8.585359,10.52194501171875,8.626398,10.58336501171875Q8.667437,10.64478401171875,8.71967,10.69701701171875Q8.771903,10.74925001171875,8.833322,10.79028901171875Q8.894742,10.83132801171875,8.962987,10.85959701171875Q9.031233,10.88786501171875,9.103682,10.902276011718751Q9.1761315,10.91668701171875,9.25,10.91668701171875L9.25916688,10.91668701171875Q9.3330354,10.91668701171875,9.405485,10.902276011718751Q9.477934,10.88786501171875,9.546179,10.85959701171875Q9.614425,10.83132801171875,9.675844,10.79028901171875Q9.737264,10.74925001171875,9.789497,10.69701701171875Q9.84173,10.64478401171875,9.882769,10.58336501171875Q9.923808,10.52194501171875,9.952076,10.45370001171875Q9.980345,10.38545401171875,9.994756,10.31300501171875Q10.009167,10.24055551171875,10.009167,10.16668701171875Q10.009167,10.09281851171875,9.994756,10.02036901171875Q9.980345,9.94792001171875,9.952076,9.87967401171875Q9.923808,9.81142901171875,9.882769,9.75000901171875Q9.84173,9.68859001171875,9.789497,9.63635701171875Q9.737264,9.58412401171875,9.675845,9.54308501171875Q9.614425,9.50204601171875,9.546179,9.47377701171875Q9.477934,9.44550901171875,9.405485,9.431098011718749Q9.3330354,9.41668701171875,9.2591669,9.41668701171875L9.25,9.41668701171875Z" fill-rule="evenodd" fill="#231F2E" fill-opacity="1" style="mix-blend-mode:passthrough"/></g><g><path d="M14.75,9.41668701171875Q14.6761315,9.41668701171875,14.603682,9.431098011718749Q14.531233,9.44550901171875,14.462987,9.47377701171875Q14.394742,9.50204601171875,14.333322,9.54308501171875Q14.271903,9.58412401171875,14.21967,9.63635701171875Q14.167437,9.68859001171875,14.126398,9.75000901171875Q14.085359,9.81142901171875,14.05709,9.87967401171875Q14.028822,9.94792001171875,14.014410999999999,10.02036901171875Q14,10.09281851171875,14,10.16668701171875Q14,10.24055551171875,14.014410999999999,10.31300501171875Q14.028822,10.38545401171875,14.05709,10.45370001171875Q14.085359,10.52194501171875,14.126398,10.58336501171875Q14.167437,10.64478401171875,14.21967,10.69701701171875Q14.271903,10.74925001171875,14.333322,10.79028901171875Q14.394742,10.83132801171875,14.462987,10.85959701171875Q14.531233,10.88786501171875,14.603682,10.902276011718751Q14.6761315,10.91668701171875,14.75,10.91668701171875L14.75916688,10.91668701171875Q14.8330354,10.91668701171875,14.905485,10.902276011718751Q14.977934,10.88786501171875,15.046179,10.85959701171875Q15.114425,10.83132801171875,15.175844,10.79028901171875Q15.237264,10.74925001171875,15.289497,10.69701701171875Q15.34173,10.64478401171875,15.382769,10.58336501171875Q15.423808,10.52194501171875,15.452076,10.45370001171875Q15.480345,10.38545401171875,15.494756,10.31300501171875Q15.509167,10.24055551171875,15.509167,10.16668701171875Q15.509167,10.09281851171875,15.494756,10.02036901171875Q15.480345,9.94792001171875,15.452076,9.87967401171875Q15.423808,9.81142901171875,15.382769,9.75000901171875Q15.34173,9.68859001171875,15.289497,9.63635701171875Q15.237264,9.58412401171875,15.175845,9.54308501171875Q15.114425,9.50204601171875,15.046179,9.47377701171875Q14.977934,9.44550901171875,14.905485,9.431098011718749Q14.8330354,9.41668701171875,14.7591669,9.41668701171875L14.75,9.41668701171875Z" fill-rule="evenodd" fill="#231F2E" fill-opacity="1" style="mix-blend-mode:passthrough"/></g><g><path d="M10.24446098828125,14.225552Q10.57512698828125,14.563139,11.02993298828125,14.74067719Q11.48077298828125,14.916667,11.99998298828125,14.916667Q12.07385298828125,14.916667,12.14629298828125,14.931078Q12.21874298828125,14.945489,12.28699298828125,14.973757Q12.35523298828125,15.002025,12.41665298828125,15.043064Q12.47807298828125,15.084104,12.53031298828125,15.136337Q12.58254298828125,15.18857,12.62358298828125,15.249989Q12.66462298828125,15.311408,12.69289298828125,15.379654Q12.72115298828125,15.4479,12.73557298828125,15.520349Q12.74998298828125,15.592798,12.74998298828125,15.666667Q12.74998298828125,15.740535,12.73557298828125,15.81298Q12.72115298828125,15.88543,12.69289298828125,15.95368Q12.66462298828125,16.02192,12.62358298828125,16.08334Q12.58254298828125,16.14476,12.53031298828125,16.197Q12.47807298828125,16.24923,12.41665298828125,16.29027Q12.35523298828125,16.33131,12.28699298828125,16.35958Q12.21874298828125,16.38784,12.14629298828125,16.40226Q12.07385298828125,16.41667,11.99998298828125,16.41667Q11.19838298828125,16.41667,10.48448198828125,16.13799Q9.72892088828125,15.84305,9.17242998828125,15.274719Q9.06949198828125,15.16959,9.01390198828125,15.033362Q8.95831298828125,14.897134,8.95831298828125,14.75Q8.95831298828125,14.6761315,8.972723988281249,14.603682Q8.98713498828125,14.531233,9.01540298828125,14.462987Q9.04367198828125,14.394742,9.08471098828125,14.333322Q9.12574998828125,14.271903,9.17798298828125,14.21967Q9.23021598828125,14.167437,9.29163498828125,14.126398Q9.35305498828125,14.085359,9.42129998828125,14.05709Q9.48954598828125,14.028822,9.56199498828125,14.014410999999999Q9.63444448828125,14,9.70831298828125,14Q9.85954998828125,14,9.99896798828125,14.05861Q10.13838598828125,14.117221,10.24419598828125,14.225281L10.24446098828125,14.225552Z" fill-rule="evenodd" fill="#231F2E" fill-opacity="1" style="mix-blend-mode:passthrough"/></g><g><path d="M19.97487,15.025126Q18.94975,14,17.5,14Q16.05025,14,15.025126,15.025126Q14,16.05025,14,17.5Q14,18.94975,15.025126,19.97487Q16.05025,21,17.5,21Q18.94975,21,19.97487,19.97487Q21,18.94975,21,17.5Q21,16.05025,19.97487,15.025126ZM16.08579,16.08579Q16.67157,15.5,17.5,15.5Q18.32843,15.5,18.91421,16.08579Q19.5,16.67157,19.5,17.5Q19.5,18.32843,18.91421,18.91421Q18.32843,19.5,17.5,19.5Q16.67157,19.5,16.08579,18.91421Q15.5,18.32843,15.5,17.5Q15.5,16.67157,16.08579,16.08579Z" fill-rule="evenodd" fill="#2882FF" fill-opacity="1" style="mix-blend-mode:passthrough"/></g><g><path d="M20.04714659765625,18.98648659765625L21.69684259765625,20.63618259765625L21.69699259765625,20.63633259765625Q21.80248259765625,20.74182259765625,21.85957259765625,20.87965259765625Q21.91666259765625,21.01748259765625,21.91666259765625,21.16666259765625Q21.91666259765625,21.24053259765625,21.90225259765625,21.31298259765625Q21.88784259765625,21.38543259765625,21.85957259765625,21.45367259765625Q21.83130259765625,21.52192259765625,21.790262597656252,21.583342597656248Q21.74922259765625,21.64476259765625,21.69699259765625,21.69699259765625Q21.64476259765625,21.74922259765625,21.583342597656248,21.790262597656252Q21.52192259765625,21.83130259765625,21.45367259765625,21.85957259765625Q21.38543259765625,21.88784259765625,21.31298259765625,21.90225259765625Q21.24053259765625,21.91666259765625,21.16666259765625,21.91666259765625Q21.01748259765625,21.91666259765625,20.87965259765625,21.85957259765625Q20.74182259765625,21.80248259765625,20.63633259765625,21.69699259765625L20.63618259765625,21.69684259765625L18.98648659765625,20.04714659765625L18.98633259765625,20.04699259765625Q18.88084359765625,19.94150359765625,18.82375259765625,19.80367559765625Q18.76666259765625,19.66584659765625,18.76666259765625,19.51666259765625Q18.76666259765625,19.44279409765625,18.78107359765625,19.37034459765625Q18.79548459765625,19.29789559765625,18.82375259765625,19.22964959765625Q18.85202159765625,19.16140459765625,18.893060597656252,19.09998459765625Q18.93409959765625,19.038565597656252,18.98633259765625,18.98633259765625Q19.038565597656252,18.93409959765625,19.09998459765625,18.893060597656252Q19.16140459765625,18.85202159765625,19.22964959765625,18.82375259765625Q19.29789559765625,18.79548459765625,19.37034459765625,18.78107359765625Q19.44279409765625,18.76666259765625,19.51666259765625,18.76666259765625Q19.66584659765625,18.76666259765625,19.80367559765625,18.82375259765625Q19.94150359765625,18.88084359765625,20.04699259765625,18.98633259765625L20.04714659765625,18.98648659765625Z" fill-rule="evenodd" fill="#2882FF" fill-opacity="1" style="mix-blend-mode:passthrough"/></g></g></g></svg>