<svg xmlns="http://www.w3.org/2000/svg" xmlns:xlink="http://www.w3.org/1999/xlink" fill="none" version="1.1" width="24" height="24" viewBox="0 0 24 24"><defs><clipPath id="master_svg0_62_01130"><rect x="0" y="0" width="24" height="24" rx="0"/></clipPath></defs><g clip-path="url(#master_svg0_62_01130)"><g><path d="M4.9999928202819826,21.75L12.000002820281983,21.75Q12.073862820281983,21.75,12.146312820281983,21.7356Q12.218762820281983,21.7212,12.287012820281982,21.6929Q12.355252820281983,21.6646,12.416672820281983,21.6236Q12.478092820281983,21.5826,12.530332820281982,21.5303Q12.582562820281982,21.4781,12.623602820281983,21.4167Q12.664642820281982,21.3553,12.692902820281983,21.287Q12.721172820281982,21.2188,12.735582820281982,21.1463Q12.750002820281983,21.0739,12.750002820281983,21Q12.750002820281983,20.9261,12.735582820281982,20.8537Q12.721172820281982,20.7812,12.692902820281983,20.713Q12.664642820281982,20.6447,12.623602820281983,20.5833Q12.582562820281982,20.5219,12.530332820281982,20.4697Q12.478092820281983,20.4174,12.416672820281983,20.3764Q12.355252820281983,20.3354,12.287012820281982,20.3071Q12.218762820281983,20.2788,12.146312820281983,20.2644Q12.073862820281983,20.25,12.000002820281983,20.25L4.9999928202819826,20.25Q3.7499958202819825,20.25,3.7499938202819827,19L3.7499758202819824,5Q3.7499748202819823,4.4822299999999995,4.116092820281983,4.1161200000000004Q4.482212820281982,3.75,4.999972820281982,3.75L16.352172820281982,3.75Q16.84497282028198,3.75,17.205272820281984,4.08633L19.853072820281984,6.558479999999999Q20.249972820281982,6.92909,20.249972820281982,7.47215L20.249972820281982,13.0516Q20.249972820281982,13.1255,20.26437282028198,13.1979Q20.278772820281983,13.2704,20.30707282028198,13.3386Q20.335372820281982,13.4069,20.376372820281983,13.4683Q20.417472820281983,13.5297,20.469672820281982,13.582Q20.52187282028198,13.6342,20.583272820281984,13.6752Q20.644772820281982,13.7163,20.712972820281983,13.7445Q20.781272820281984,13.7728,20.853672820281982,13.7872Q20.926172820281984,13.8016,20.999972820281982,13.8016Q21.07387282028198,13.8016,21.146272820281983,13.7872Q21.218772820281984,13.7728,21.28697282028198,13.7445Q21.355272820281982,13.7163,21.41667282028198,13.6752Q21.478072820281984,13.6342,21.530372820281983,13.582Q21.58257282028198,13.5297,21.623572820281982,13.4683Q21.664672820281982,13.4069,21.692872820281984,13.3386Q21.721172820281982,13.2704,21.735572820281984,13.1979Q21.749972820281982,13.1255,21.749972820281982,13.0516L21.749972820281982,7.47215Q21.749972820281982,6.27741,20.876672820281982,5.462070000000001L18.228872820281982,2.9899184Q17.43637282028198,2.25,16.352172820281982,2.25L4.999972820281982,2.25Q3.8608868202819826,2.25,3.0554306202819825,3.0554578Q2.2499738202819826,3.860916,2.2499758202819824,5L2.2499938202819827,19Q2.2499958202819825,20.1391,3.0554516202819824,20.9445Q3.8609048202819825,21.75,4.9999928202819826,21.75Z" fill-rule="evenodd" fill="#231F2E" fill-opacity="1"/></g><g></g><g><path d="M7.749996708465576,6L7.749999708465576,3L6.249999708465576,3L6.249996708465576,6Q6.249996708465576,7.13909,7.055452808465576,7.94454Q7.860909708465576,8.75,8.999995708465576,8.75L14.001655708465577,8.75Q15.140075708465575,8.75,15.945395708465576,7.94535Q16.750705708465574,7.1407,16.751655708465577,6.00228L16.754145708465575,3.000622673L15.254145708465575,2.999377327L15.251655708465576,6.00104Q15.251225708465576,6.5184999999999995,14.885175708465576,6.88425Q14.519115708465577,7.25,14.001655708465577,7.25L8.999995708465576,7.25Q8.482225708465576,7.25,8.116115708465577,6.8838799999999996Q7.749996708465576,6.5177700000000005,7.749996708465576,6Z" fill-rule="evenodd" fill="#231F2E" fill-opacity="1"/></g><g><path d="M16.03033,12.96967Q16.25,13.18934,16.25,13.5Q16.25,13.57387,16.264409999999998,13.64632Q16.27882,13.71877,16.307090000000002,13.78701Q16.33536,13.85526,16.3764,13.91668Q16.41744,13.9781,16.46967,14.03033Q16.521900000000002,14.08256,16.58332,14.1236Q16.64474,14.16464,16.712989999999998,14.19291Q16.78123,14.22118,16.85368,14.23559Q16.92613,14.25,17,14.25Q17.073900000000002,14.25,17.1463,14.23559Q17.2188,14.22118,17.287,14.19291Q17.3553,14.16464,17.4167,14.1236Q17.478099999999998,14.08256,17.5303,14.03033Q17.5826,13.9781,17.6236,13.91668Q17.6646,13.85526,17.6929,13.78701Q17.7212,13.71877,17.735599999999998,13.64632Q17.75,13.57387,17.75,13.5Q17.75,12.56802,17.091,11.9090098Q16.43198,11.25,15.5,11.25L9,11.25Q7.860913,11.25,7.0554564,12.0554564Q6.25,12.860913,6.25,14L6.25,20.997680000000003Q6.25,21.071550000000002,6.264411,21.144Q6.278822,21.216450000000002,6.30709,21.284689999999998Q6.335359,21.35294,6.376398,21.414360000000002Q6.417437,21.47578,6.46967,21.528010000000002Q6.521903,21.58024,6.583322,21.62128Q6.644742,21.66232,6.712987,21.69059Q6.781233,21.71886,6.853682,21.733269999999997Q6.9261315,21.747680000000003,7,21.747680000000003Q7.0738685,21.747680000000003,7.146318,21.733269999999997Q7.218767,21.71886,7.287013,21.69059Q7.355258,21.66232,7.416678,21.62128Q7.478097,21.58024,7.53033,21.528010000000002Q7.582563,21.47578,7.623602,21.414360000000002Q7.664641,21.35294,7.69291,21.284689999999998Q7.721178,21.216450000000002,7.735589,21.144Q7.75,21.071550000000002,7.75,20.997680000000003L7.75,14Q7.75,13.48223,8.11612,13.11612Q8.48223,12.75,9,12.75L15.5,12.75Q15.81066,12.75,16.03033,12.96967Z" fill-rule="evenodd" fill="#231F2E" fill-opacity="1"/></g><g><path d="M11.0020751953125,18.75L9.5020751953125,18.75Q9.4282066953125,18.75,9.3557571953125,18.735589Q9.2833081953125,18.721178,9.2150621953125,18.69291Q9.1468171953125,18.664641,9.0853971953125,18.623601999999998Q9.0239781953125,18.582563,8.9717451953125,18.53033Q8.9195121953125,18.478096999999998,8.8784731953125,18.416678Q8.8374341953125,18.355258,8.8091651953125,18.287013Q8.7808971953125,18.218767,8.766486195312499,18.146318Q8.7520751953125,18.0738685,8.7520751953125,18Q8.7520751953125,17.9261315,8.766486195312499,17.853682Q8.7808971953125,17.781233,8.8091651953125,17.712987Q8.8374341953125,17.644742,8.8784731953125,17.583322Q8.9195121953125,17.521903000000002,8.9717451953125,17.46967Q9.0239781953125,17.417437,9.0853971953125,17.376398000000002Q9.1468171953125,17.335359,9.2150621953125,17.30709Q9.2833081953125,17.278822,9.3557571953125,17.264411Q9.4282066953125,17.25,9.5020751953125,17.25L11.0020751953125,17.25Q11.0759451953125,17.25,11.1483951953125,17.264411Q11.2208451953125,17.278822,11.2890851953125,17.30709Q11.3573351953125,17.335359,11.4187551953125,17.376398000000002Q11.4801751953125,17.417437,11.5324051953125,17.46967Q11.5846351953125,17.521903000000002,11.6256751953125,17.583322Q11.6667151953125,17.644742,11.6949851953125,17.712987Q11.7232551953125,17.781233,11.7376651953125,17.853682Q11.7520751953125,17.9261315,11.7520751953125,18Q11.7520751953125,18.0738685,11.7376651953125,18.146318Q11.7232551953125,18.218767,11.6949851953125,18.287013Q11.6667151953125,18.355258,11.6256751953125,18.416678Q11.5846351953125,18.478096999999998,11.5324051953125,18.53033Q11.4801751953125,18.582563,11.4187551953125,18.623601999999998Q11.3573351953125,18.664641,11.2890851953125,18.69291Q11.2208451953125,18.721178,11.1483951953125,18.735589Q11.0759451953125,18.75,11.0020751953125,18.75Z" fill-rule="evenodd" fill="#231F2E" fill-opacity="1"/></g><g><path d="M9.5020751953125,14.2490234375L12.5062251953125,14.2490234375Q12.5800951953125,14.2490234375,12.6525451953125,14.263434437499999Q12.7249951953125,14.2778454375,12.7932351953125,14.3061134375Q12.8614851953125,14.3343824375,12.9229051953125,14.3754214375Q12.9843251953125,14.4164604375,13.0365551953125,14.4686934375Q13.0887851953125,14.5209264375,13.129825195312499,14.5823454375Q13.1708651953125,14.6437654375,13.1991351953125,14.7120104375Q13.2274051953125,14.7802564375,13.2418151953125,14.8527054375Q13.2562251953125,14.9251549375,13.2562251953125,14.9990234375Q13.2562251953125,15.0728919375,13.2418151953125,15.1453414375Q13.2274051953125,15.2177904375,13.1991351953125,15.2860364375Q13.1708651953125,15.3542814375,13.129825195312499,15.4157014375Q13.0887851953125,15.4771204375,13.0365551953125,15.5293534375Q12.9843251953125,15.5815864375,12.9229051953125,15.6226254375Q12.8614851953125,15.6636644375,12.7932351953125,15.6919334375Q12.7249951953125,15.7202014375,12.6525451953125,15.734612437500001Q12.5800951953125,15.7490234375,12.5062251953125,15.7490234375L9.5020751953125,15.7490234375Q9.4282066953125,15.7490234375,9.3557571953125,15.734612437500001Q9.2833081953125,15.7202014375,9.2150621953125,15.6919334375Q9.1468171953125,15.6636644375,9.0853971953125,15.6226254375Q9.0239781953125,15.5815864375,8.9717451953125,15.5293534375Q8.9195121953125,15.4771204375,8.8784731953125,15.4157014375Q8.8374341953125,15.3542814375,8.8091651953125,15.2860364375Q8.7808971953125,15.2177904375,8.766486195312499,15.1453414375Q8.7520751953125,15.0728919375,8.7520751953125,14.9990234375Q8.7520751953125,14.9251549375,8.766486195312499,14.8527054375Q8.7808971953125,14.7802564375,8.8091651953125,14.7120104375Q8.8374341953125,14.6437654375,8.8784731953125,14.5823454375Q8.9195121953125,14.5209264375,8.9717451953125,14.4686934375Q9.0239781953125,14.4164604375,9.0853971953125,14.3754214375Q9.1468171953125,14.3343824375,9.2150621953125,14.3061134375Q9.2833081953125,14.2778454375,9.3557571953125,14.263434437499999Q9.4282066953125,14.2490234375,9.5020751953125,14.2490234375Z" fill-rule="evenodd" fill="#231F2E" fill-opacity="1"/></g><g><path d="M13.75,5L13.75,6Q13.75,6.07387,13.735589000000001,6.14632Q13.721178,6.21877,13.69291,6.28701Q13.664641,6.3552599999999995,13.623602,6.4166799999999995Q13.582563,6.4780999999999995,13.53033,6.53033Q13.478097,6.58256,13.416678,6.6236Q13.355258,6.66464,13.287013,6.6929099999999995Q13.218767,6.72118,13.146318,6.73559Q13.0738685,6.75,13,6.75Q12.9261315,6.75,12.853682,6.73559Q12.781233,6.72118,12.712987,6.6929099999999995Q12.644742,6.66464,12.583322,6.6236Q12.521903,6.58256,12.46967,6.53033Q12.417437,6.4780999999999995,12.376398,6.4166799999999995Q12.335359,6.3552599999999995,12.30709,6.28701Q12.278822,6.21877,12.264410999999999,6.14632Q12.25,6.07387,12.25,6L12.25,5Q12.25,4.9261315,12.264410999999999,4.853682Q12.278822,4.781233,12.30709,4.712987Q12.335359,4.644742,12.376398,4.583322Q12.417437,4.521903,12.46967,4.46967Q12.521903,4.417437,12.583322,4.376398Q12.644742,4.335359,12.712987,4.30709Q12.781233,4.278822,12.853682,4.264411Q12.9261315,4.25,13,4.25Q13.0738685,4.25,13.146318,4.264411Q13.218767,4.278822,13.287013,4.30709Q13.355258,4.335359,13.416678,4.376398Q13.478097,4.417437,13.53033,4.46967Q13.582563,4.521903,13.623602,4.583322Q13.664641,4.644742,13.69291,4.712987Q13.721178,4.781233,13.735589000000001,4.853682Q13.75,4.9261315,13.75,5Z" fill-rule="evenodd" fill="#13943C" fill-opacity="1" style="mix-blend-mode:passthrough"/></g><g><path d="M16,21.27375C16,21.40219,16.0973236,21.50973,16.225124,21.52251L20.72512,21.97251C20.8723,21.98723,21,21.87166,21,21.72375L21,16.276247C21,16.128341,20.8723,16.0127704,20.72512,16.0274876L16.225124,16.477488C16.0973236,16.490268,16,16.597809,16,16.726247L16,21.27375Z" fill="#13943C" fill-opacity="1"/><path d="M15.25,16.726247L15.25,21.27375Q15.25,21.65907,15.508548,21.94476Q15.767094,22.23045,16.150496,22.26879L20.6505,22.71879Q21.092010000000002,22.76294,21.42101,22.46521Q21.75,22.16747,21.75,21.72375L21.75,16.276247Q21.75,15.83253,21.42101,15.534794Q21.092010000000002,15.237058,20.6505,15.28121L16.150496,15.73121Q15.767095,15.76955,15.508547,16.0552417Q15.25,16.340933,15.25,16.726247ZM16.75,20.82126L20.25,21.17126L20.25,16.828741L16.75,17.17874L16.75,20.82126Z" fill-rule="evenodd" fill="#13943C" fill-opacity="1"/></g><g><path d="M17.083975,17.77735Q17,17.651388,17,17.5Q17,17.4507543,17.009607,17.4024549Q17.019215,17.354155,17.03806,17.308658Q17.056906,17.263161,17.084265,17.222215Q17.111625,17.181269,17.146447,17.146447Q17.181269,17.111625,17.222215,17.084265Q17.263161,17.056906,17.308658,17.03806Q17.354155,17.019215,17.4024549,17.009607Q17.4507543,17,17.5,17Q17.5617355,17,17.621617,17.015016Q17.681498,17.030032,17.735929,17.059163Q17.79036,17.088293,17.83607,17.129788Q17.88178,17.171283,17.916025,17.22265L19.91603,20.22265Q20,20.34861,20,20.5Q20,20.54925,19.99039,20.59754Q19.98078,20.64584,19.96194,20.69134Q19.94309,20.73684,19.91573,20.77778Q19.88838,20.81873,19.85355,20.85355Q19.81873,20.888370000000002,19.77779,20.91573Q19.73684,20.94309,19.69134,20.96194Q19.64584,20.98078,19.59754,20.99039Q19.54925,21,19.5,21Q19.43826,21,19.37838,20.98498Q19.3185,20.96997,19.26407,20.94084Q19.20964,20.91171,19.16393,20.87021Q19.11822,20.82872,19.08397,20.77735L17.083975,17.77735Z" fill-rule="evenodd" fill="#FFFFFF" fill-opacity="1"/></g><g><path d="M19.91603,17.77735Q20,17.651388,20,17.5Q20,17.4507543,19.99039,17.4024549Q19.98078,17.354155,19.96194,17.308658Q19.94309,17.263161,19.91573,17.222215Q19.88838,17.181269,19.85355,17.146447Q19.81873,17.111625,19.77779,17.084265Q19.73684,17.056906,19.69134,17.03806Q19.64584,17.019215,19.59754,17.009607Q19.54925,17,19.5,17Q19.43826,17,19.37838,17.015016Q19.3185,17.030032,19.26407,17.059163Q19.20964,17.088293,19.16393,17.129788Q19.11822,17.171283,19.08397,17.22265L17.083975,20.22265Q17,20.34861,17,20.5Q17,20.54925,17.009607,20.59754Q17.019215,20.64584,17.03806,20.69134Q17.056906,20.73684,17.084265,20.77778Q17.111625,20.81873,17.146447,20.85355Q17.181269,20.888370000000002,17.222215,20.91573Q17.263161,20.94309,17.308658,20.96194Q17.354155,20.98078,17.4024549,20.99039Q17.4507543,21,17.5,21Q17.5617355,21,17.621617,20.98498Q17.681498,20.96997,17.735929,20.94084Q17.79036,20.91171,17.83607,20.87021Q17.88178,20.82872,17.916025,20.77735L19.91603,17.77735Z" fill-rule="evenodd" fill="#FFFFFF" fill-opacity="1"/></g></g></svg>