<svg xmlns="http://www.w3.org/2000/svg" xmlns:xlink="http://www.w3.org/1999/xlink" fill="none" version="1.1" width="24" height="24" viewBox="0 0 24 24"><defs><clipPath id="master_svg0_63_02770"><rect x="0" y="0" width="24" height="24" rx="0"/></clipPath></defs><g clip-path="url(#master_svg0_63_02770)"><g><path d="M4.9999928202819826,21.75L12.000002820281983,21.75Q12.073862820281983,21.75,12.146312820281983,21.7356Q12.218762820281983,21.7212,12.287012820281982,21.6929Q12.355252820281983,21.6646,12.416672820281983,21.6236Q12.478092820281983,21.5826,12.530332820281982,21.5303Q12.582562820281982,21.4781,12.623602820281983,21.4167Q12.664642820281982,21.3553,12.692902820281983,21.287Q12.721172820281982,21.2188,12.735582820281982,21.1463Q12.750002820281983,21.0739,12.750002820281983,21Q12.750002820281983,20.9261,12.735582820281982,20.8537Q12.721172820281982,20.7812,12.692902820281983,20.713Q12.664642820281982,20.6447,12.623602820281983,20.5833Q12.582562820281982,20.5219,12.530332820281982,20.4697Q12.478092820281983,20.4174,12.416672820281983,20.3764Q12.355252820281983,20.3354,12.287012820281982,20.3071Q12.218762820281983,20.2788,12.146312820281983,20.2644Q12.073862820281983,20.25,12.000002820281983,20.25L4.9999928202819826,20.25Q3.7499958202819825,20.25,3.7499938202819827,19L3.7499758202819824,5Q3.7499748202819823,4.4822299999999995,4.116092820281983,4.1161200000000004Q4.482212820281982,3.75,4.999972820281982,3.75L16.352172820281982,3.75Q16.84497282028198,3.75,17.205272820281984,4.08633L19.853072820281984,6.558479999999999Q20.249972820281982,6.92909,20.249972820281982,7.47215L20.249972820281982,13.0516Q20.249972820281982,13.1255,20.26437282028198,13.1979Q20.278772820281983,13.2704,20.30707282028198,13.3386Q20.335372820281982,13.4069,20.376372820281983,13.4683Q20.417472820281983,13.5297,20.469672820281982,13.582Q20.52187282028198,13.6342,20.583272820281984,13.6752Q20.644772820281982,13.7163,20.712972820281983,13.7445Q20.781272820281984,13.7728,20.853672820281982,13.7872Q20.926172820281984,13.8016,20.999972820281982,13.8016Q21.07387282028198,13.8016,21.146272820281983,13.7872Q21.218772820281984,13.7728,21.28697282028198,13.7445Q21.355272820281982,13.7163,21.41667282028198,13.6752Q21.478072820281984,13.6342,21.530372820281983,13.582Q21.58257282028198,13.5297,21.623572820281982,13.4683Q21.664672820281982,13.4069,21.692872820281984,13.3386Q21.721172820281982,13.2704,21.735572820281984,13.1979Q21.749972820281982,13.1255,21.749972820281982,13.0516L21.749972820281982,7.47215Q21.749972820281982,6.27741,20.876672820281982,5.462070000000001L18.228872820281982,2.9899184Q17.43637282028198,2.25,16.352172820281982,2.25L4.999972820281982,2.25Q3.8608868202819826,2.25,3.0554306202819825,3.0554578Q2.2499738202819826,3.860916,2.2499758202819824,5L2.2499938202819827,19Q2.2499958202819825,20.1391,3.0554516202819824,20.9445Q3.8609048202819825,21.75,4.9999928202819826,21.75Z" fill-rule="evenodd" fill="#231F2E" fill-opacity="1"/></g><g></g><g><path d="M7.749996708465576,6L7.749999708465576,3L6.249999708465576,3L6.249996708465576,6Q6.249996708465576,7.13909,7.055452808465576,7.94454Q7.860909708465576,8.75,8.999995708465576,8.75L14.001655708465577,8.75Q15.140075708465575,8.75,15.945395708465576,7.94535Q16.750705708465574,7.1407,16.751655708465577,6.00228L16.754145708465575,3.000622673L15.254145708465575,2.999377327L15.251655708465576,6.00104Q15.251225708465576,6.5184999999999995,14.885175708465576,6.88425Q14.519115708465577,7.25,14.001655708465577,7.25L8.999995708465576,7.25Q8.482225708465576,7.25,8.116115708465577,6.8838799999999996Q7.749996708465576,6.5177700000000005,7.749996708465576,6Z" fill-rule="evenodd" fill="#231F2E" fill-opacity="1"/></g><g><path d="M16.03033,12.96967Q16.25,13.18934,16.25,13.5Q16.25,13.57387,16.264409999999998,13.64632Q16.27882,13.71877,16.307090000000002,13.78701Q16.33536,13.85526,16.3764,13.91668Q16.41744,13.9781,16.46967,14.03033Q16.521900000000002,14.08256,16.58332,14.1236Q16.64474,14.16464,16.712989999999998,14.19291Q16.78123,14.22118,16.85368,14.23559Q16.92613,14.25,17,14.25Q17.073900000000002,14.25,17.1463,14.23559Q17.2188,14.22118,17.287,14.19291Q17.3553,14.16464,17.4167,14.1236Q17.478099999999998,14.08256,17.5303,14.03033Q17.5826,13.9781,17.6236,13.91668Q17.6646,13.85526,17.6929,13.78701Q17.7212,13.71877,17.735599999999998,13.64632Q17.75,13.57387,17.75,13.5Q17.75,12.56802,17.091,11.9090098Q16.43198,11.25,15.5,11.25L9,11.25Q7.860913,11.25,7.0554564,12.0554564Q6.25,12.860913,6.25,14L6.25,20.997680000000003Q6.25,21.071550000000002,6.264411,21.144Q6.278822,21.216450000000002,6.30709,21.284689999999998Q6.335359,21.35294,6.376398,21.414360000000002Q6.417437,21.47578,6.46967,21.528010000000002Q6.521903,21.58024,6.583322,21.62128Q6.644742,21.66232,6.712987,21.69059Q6.781233,21.71886,6.853682,21.733269999999997Q6.9261315,21.747680000000003,7,21.747680000000003Q7.0738685,21.747680000000003,7.146318,21.733269999999997Q7.218767,21.71886,7.287013,21.69059Q7.355258,21.66232,7.416678,21.62128Q7.478097,21.58024,7.53033,21.528010000000002Q7.582563,21.47578,7.623602,21.414360000000002Q7.664641,21.35294,7.69291,21.284689999999998Q7.721178,21.216450000000002,7.735589,21.144Q7.75,21.071550000000002,7.75,20.997680000000003L7.75,14Q7.75,13.48223,8.11612,13.11612Q8.48223,12.75,9,12.75L15.5,12.75Q15.81066,12.75,16.03033,12.96967Z" fill-rule="evenodd" fill="#231F2E" fill-opacity="1"/></g><g><path d="M11.0020751953125,18.75L9.5020751953125,18.75Q9.4282066953125,18.75,9.3557571953125,18.735589Q9.2833081953125,18.721178,9.2150621953125,18.69291Q9.1468171953125,18.664641,9.0853971953125,18.623601999999998Q9.0239781953125,18.582563,8.9717451953125,18.53033Q8.9195121953125,18.478096999999998,8.8784731953125,18.416678Q8.8374341953125,18.355258,8.8091651953125,18.287013Q8.7808971953125,18.218767,8.766486195312499,18.146318Q8.7520751953125,18.0738685,8.7520751953125,18Q8.7520751953125,17.9261315,8.766486195312499,17.853682Q8.7808971953125,17.781233,8.8091651953125,17.712987Q8.8374341953125,17.644742,8.8784731953125,17.583322Q8.9195121953125,17.521903000000002,8.9717451953125,17.46967Q9.0239781953125,17.417437,9.0853971953125,17.376398000000002Q9.1468171953125,17.335359,9.2150621953125,17.30709Q9.2833081953125,17.278822,9.3557571953125,17.264411Q9.4282066953125,17.25,9.5020751953125,17.25L11.0020751953125,17.25Q11.0759451953125,17.25,11.1483951953125,17.264411Q11.2208451953125,17.278822,11.2890851953125,17.30709Q11.3573351953125,17.335359,11.4187551953125,17.376398000000002Q11.4801751953125,17.417437,11.5324051953125,17.46967Q11.5846351953125,17.521903000000002,11.6256751953125,17.583322Q11.6667151953125,17.644742,11.6949851953125,17.712987Q11.7232551953125,17.781233,11.7376651953125,17.853682Q11.7520751953125,17.9261315,11.7520751953125,18Q11.7520751953125,18.0738685,11.7376651953125,18.146318Q11.7232551953125,18.218767,11.6949851953125,18.287013Q11.6667151953125,18.355258,11.6256751953125,18.416678Q11.5846351953125,18.478096999999998,11.5324051953125,18.53033Q11.4801751953125,18.582563,11.4187551953125,18.623601999999998Q11.3573351953125,18.664641,11.2890851953125,18.69291Q11.2208451953125,18.721178,11.1483951953125,18.735589Q11.0759451953125,18.75,11.0020751953125,18.75Z" fill-rule="evenodd" fill="#231F2E" fill-opacity="1"/></g><g><path d="M9.5020751953125,14.2490234375L12.5062251953125,14.2490234375Q12.5800951953125,14.2490234375,12.6525451953125,14.263434437499999Q12.7249951953125,14.2778454375,12.7932351953125,14.3061134375Q12.8614851953125,14.3343824375,12.9229051953125,14.3754214375Q12.9843251953125,14.4164604375,13.0365551953125,14.4686934375Q13.0887851953125,14.5209264375,13.129825195312499,14.5823454375Q13.1708651953125,14.6437654375,13.1991351953125,14.7120104375Q13.2274051953125,14.7802564375,13.2418151953125,14.8527054375Q13.2562251953125,14.9251549375,13.2562251953125,14.9990234375Q13.2562251953125,15.0728919375,13.2418151953125,15.1453414375Q13.2274051953125,15.2177904375,13.1991351953125,15.2860364375Q13.1708651953125,15.3542814375,13.129825195312499,15.4157014375Q13.0887851953125,15.4771204375,13.0365551953125,15.5293534375Q12.9843251953125,15.5815864375,12.9229051953125,15.6226254375Q12.8614851953125,15.6636644375,12.7932351953125,15.6919334375Q12.7249951953125,15.7202014375,12.6525451953125,15.734612437500001Q12.5800951953125,15.7490234375,12.5062251953125,15.7490234375L9.5020751953125,15.7490234375Q9.4282066953125,15.7490234375,9.3557571953125,15.734612437500001Q9.2833081953125,15.7202014375,9.2150621953125,15.6919334375Q9.1468171953125,15.6636644375,9.0853971953125,15.6226254375Q9.0239781953125,15.5815864375,8.9717451953125,15.5293534375Q8.9195121953125,15.4771204375,8.8784731953125,15.4157014375Q8.8374341953125,15.3542814375,8.8091651953125,15.2860364375Q8.7808971953125,15.2177904375,8.766486195312499,15.1453414375Q8.7520751953125,15.0728919375,8.7520751953125,14.9990234375Q8.7520751953125,14.9251549375,8.766486195312499,14.8527054375Q8.7808971953125,14.7802564375,8.8091651953125,14.7120104375Q8.8374341953125,14.6437654375,8.8784731953125,14.5823454375Q8.9195121953125,14.5209264375,8.9717451953125,14.4686934375Q9.0239781953125,14.4164604375,9.0853971953125,14.3754214375Q9.1468171953125,14.3343824375,9.2150621953125,14.3061134375Q9.2833081953125,14.2778454375,9.3557571953125,14.263434437499999Q9.4282066953125,14.2490234375,9.5020751953125,14.2490234375Z" fill-rule="evenodd" fill="#231F2E" fill-opacity="1"/></g><g><path d="M13.75,5L13.75,6Q13.75,6.07387,13.735589000000001,6.14632Q13.721178,6.21877,13.69291,6.28701Q13.664641,6.3552599999999995,13.623602,6.4166799999999995Q13.582563,6.4780999999999995,13.53033,6.53033Q13.478097,6.58256,13.416678,6.6236Q13.355258,6.66464,13.287013,6.6929099999999995Q13.218767,6.72118,13.146318,6.73559Q13.0738685,6.75,13,6.75Q12.9261315,6.75,12.853682,6.73559Q12.781233,6.72118,12.712987,6.6929099999999995Q12.644742,6.66464,12.583322,6.6236Q12.521903,6.58256,12.46967,6.53033Q12.417437,6.4780999999999995,12.376398,6.4166799999999995Q12.335359,6.3552599999999995,12.30709,6.28701Q12.278822,6.21877,12.264410999999999,6.14632Q12.25,6.07387,12.25,6L12.25,5Q12.25,4.9261315,12.264410999999999,4.853682Q12.278822,4.781233,12.30709,4.712987Q12.335359,4.644742,12.376398,4.583322Q12.417437,4.521903,12.46967,4.46967Q12.521903,4.417437,12.583322,4.376398Q12.644742,4.335359,12.712987,4.30709Q12.781233,4.278822,12.853682,4.264411Q12.9261315,4.25,13,4.25Q13.0738685,4.25,13.146318,4.264411Q13.218767,4.278822,13.287013,4.30709Q13.355258,4.335359,13.416678,4.376398Q13.478097,4.417437,13.53033,4.46967Q13.582563,4.521903,13.623602,4.583322Q13.664641,4.644742,13.69291,4.712987Q13.721178,4.781233,13.735589000000001,4.853682Q13.75,4.9261315,13.75,5Z" fill-rule="evenodd" fill="#3862BE" fill-opacity="1" style="mix-blend-mode:passthrough"/></g><g><path d="M16,16.726247L16,21.27375C16,21.40219,16.0973236,21.50973,16.225124,21.52251L20.72512,21.97251C20.8723,21.98723,21,21.87166,21,21.72375L21,16.276247C21,16.128341,20.8723,16.0127704,20.72512,16.0274876L16.225124,16.477488C16.0973236,16.490268,16,16.597809,16,16.726247Z" fill="#3862BE" fill-opacity="1"/><path d="M15.25,16.726247L15.25,21.27375Q15.25,21.65907,15.508548,21.94476Q15.767094,22.23045,16.150496,22.26879L20.6505,22.71879Q21.092010000000002,22.76294,21.42101,22.46521Q21.75,22.16747,21.75,21.72375L21.75,16.276247Q21.75,15.83253,21.42101,15.534794Q21.092010000000002,15.237058,20.6505,15.28121L16.150496,15.73121Q15.767095,15.76955,15.508547,16.0552417Q15.25,16.340933,15.25,16.726247ZM16.75,20.82126L20.25,21.17126L20.25,16.828741L16.75,17.17874L16.75,20.82126Z" fill-rule="evenodd" fill="#3862BE" fill-opacity="1"/></g><g><path d="M17.183083171875,17.371225L17.604003171875,18.95007L18.038431171875,17.90766Q18.076471171875,17.816375,18.146401171875,17.746447Q18.216331171875,17.676518,18.307611171875,17.638475Q18.353071171875,17.619531,18.401341171875,17.60982Q18.449621171875002,17.600108,18.498871171875,17.600001Q18.548111171875,17.5998947,18.596431171875,17.609398Q18.644751171875,17.6189,18.690291171875,17.637647Q18.735831171875,17.656394,18.776831171875,17.683665Q18.817841171875,17.710936,18.852741171875,17.745683Q18.887631171875,17.780429,18.915081171875,17.821316Q18.942531171875,17.862203,18.961471171875,17.90766L19.395901171875,18.95007L19.816781171875,17.371365L19.816821171875,17.371199Q19.838111171875,17.291356,19.883951171875,17.222608Q19.929801171875,17.153859,19.995321171875,17.103515Q20.060841171875,17.053171,20.139081171875,17.026586Q20.217321171875,17,20.299951171875,17Q20.349201171875,17,20.397501171875,17.009607Q20.445791171875,17.019215,20.491291171874998,17.03806Q20.536791171875,17.056906,20.577731171875,17.084265Q20.618681171875,17.111625,20.653501171875,17.146447Q20.688331171875,17.181269,20.715681171874998,17.222215Q20.743041171875,17.263161,20.761891171875,17.308658Q20.780741171875,17.354155,20.790341171875,17.4024549Q20.799951171875,17.4507543,20.799951171875,17.5Q20.799951171875,17.565506,20.783081171875,17.628801L20.782941171875,17.629301L19.983281171875,20.6288Q19.970591171875,20.67638,19.948861171875,20.720579999999998Q19.927141171875,20.76477,19.897211171875,20.80388Q19.867281171875,20.84299,19.830301171875,20.8755Q19.793311171875,20.90802,19.750701171875,20.9327Q19.708081171875,20.95737,19.661471171875,20.97326Q19.614851171875,20.98915,19.566041171875,20.99564Q19.517221171875,21.00213,19.468081171875,20.99897Q19.418931171875002,20.99581,19.371351171875,20.98313Q19.258821171875,20.95312,19.171121171875,20.87648Q19.083431171875,20.79984,19.038631171875,20.69234L18.499951171875,19.39978L17.961281171875,20.69234Q17.942331171875,20.7378,17.914881171875,20.77868Q17.887441171875,20.81957,17.852541171875,20.85432Q17.817641171875,20.88906,17.776641171875,20.91633Q17.735631171875,20.94361,17.690093171875,20.96235Q17.644555171874998,20.9811,17.596235171875,20.9906Q17.547915171875,21.00011,17.498670171875,21Q17.449424171875,20.99989,17.401146171875,20.99018Q17.352867171875,20.98047,17.307411171875,20.96152Q17.199908171875,20.91672,17.123268171875,20.82903Q17.046627171875,20.74134,17.016626171875,20.6288L16.216832171875,17.628827L16.216826171875,17.628801Q16.199951171875,17.565506,16.199951171875,17.5Q16.199951171875,17.4507543,16.209558171875,17.4024549Q16.219166171875,17.354155,16.238011171875,17.308658Q16.256857171875,17.263161,16.284216171875,17.222215Q16.311576171875,17.181269,16.346398171875,17.146447Q16.381220171875,17.111625,16.422166171875,17.084265Q16.463112171875,17.056906,16.508609171875,17.03806Q16.554106171875,17.019215,16.602406071875,17.009607Q16.650705471875,17,16.699951171875,17Q16.782582371875,17,16.860820171875,17.026586Q16.939057171875,17.053171,17.004581171875,17.103515Q17.070105171875,17.153859,17.115948171875,17.222608Q17.161790171875,17.291356,17.183076171875,17.371199L17.183083171875,17.371225Z" fill-rule="evenodd" fill="#FFFFFF" fill-opacity="1"/></g></g></svg>