<svg xmlns="http://www.w3.org/2000/svg" xmlns:xlink="http://www.w3.org/1999/xlink" fill="none" version="1.1" width="24" height="24" viewBox="0 0 24 24"><defs><clipPath id="master_svg0_62_00847"><rect x="0" y="0" width="24" height="24" rx="0"/></clipPath></defs><g clip-path="url(#master_svg0_62_00847)"><g><g><path d="M12.699993133544922,6.349999904632568L17.949993133544922,6.349999904632568Q18.695573133544922,6.349999904632568,19.222783133544922,6.877207904632568Q19.749993133544923,7.404415904632568,19.749993133544923,8.149999904632569L19.749993133544923,15.849999904632568Q19.749993133544923,16.59557990463257,19.222783133544922,17.12279990463257Q18.695573133544922,17.64999990463257,17.949993133544922,17.64999990463257L12.699993133544922,17.64999990463257Q12.626124633544922,17.64999990463257,12.553675133544921,17.63559990463257Q12.481226133544922,17.62119990463257,12.412980133544922,17.592899904632567Q12.344735133544923,17.56459990463257,12.283315133544923,17.52359990463257Q12.221896133544922,17.48259990463257,12.169663133544923,17.43029990463257Q12.117430133544921,17.37809990463257,12.076391133544922,17.316699904632568Q12.035352133544922,17.25529990463257,12.007083133544922,17.186999904632568Q11.978815133544922,17.118799904632567,11.964404133544921,17.04631990463257Q11.949993133544922,16.97386990463257,11.949993133544922,16.89999990463257Q11.949993133544922,16.826129904632566,11.964404133544921,16.75367990463257Q11.978815133544922,16.681229904632566,12.007083133544922,16.61298990463257Q12.035352133544922,16.544739904632568,12.076391133544922,16.483319904632566Q12.117430133544921,16.421899904632568,12.169663133544923,16.369669904632566Q12.221896133544922,16.317439904632568,12.283315133544923,16.27639990463257Q12.344735133544923,16.235359904632567,12.412980133544922,16.207089904632568Q12.481226133544922,16.17881990463257,12.553675133544921,16.16440990463257Q12.626124633544922,16.14999990463257,12.699993133544922,16.14999990463257L17.949993133544922,16.14999990463257Q18.249993133544923,16.14999990463257,18.249993133544923,15.849999904632568L18.249993133544923,8.149999904632569Q18.249993133544923,7.849999904632568,17.949993133544922,7.849999904632568L12.699993133544922,7.849999904632568Q12.626124633544922,7.849999904632568,12.553675133544921,7.835588904632568Q12.481226133544922,7.8211779046325685,12.412980133544922,7.792909904632569Q12.344735133544923,7.764640904632568,12.283315133544923,7.723601904632568Q12.221896133544922,7.682562904632569,12.169663133544923,7.6303299046325685Q12.117430133544921,7.578096904632568,12.076391133544922,7.5166779046325685Q12.035352133544922,7.455257904632568,12.007083133544922,7.387012904632568Q11.978815133544922,7.318766904632568,11.964404133544921,7.246317904632568Q11.949993133544922,7.173868404632568,11.949993133544922,7.099999904632568Q11.949993133544922,7.026131404632569,11.964404133544921,6.953681904632568Q11.978815133544922,6.881232904632569,12.007083133544922,6.812986904632568Q12.035352133544922,6.744741904632568,12.076391133544922,6.683321904632568Q12.117430133544921,6.621902904632568,12.169663133544923,6.569669904632568Q12.221896133544922,6.517436904632568,12.283315133544923,6.476397904632568Q12.344735133544923,6.435358904632569,12.412980133544922,6.407089904632568Q12.481226133544922,6.378821904632568,12.553675133544921,6.364410904632568Q12.626124633544922,6.349999904632568,12.699993133544922,6.349999904632568Z" fill-rule="evenodd" fill="#231F2E" fill-opacity="1"/></g><g><path d="M14.8499755859375,12.01434326171875Q14.7761070859375,12.01434326171875,14.7036575859375,12.028754261718749Q14.6312085859375,12.04316526171875,14.5629625859375,12.07143326171875Q14.4947175859375,12.09970226171875,14.4332975859375,12.14074126171875Q14.3718785859375,12.18178026171875,14.3196455859375,12.23401326171875Q14.2674125859375,12.28624626171875,14.2263735859375,12.34766526171875Q14.1853345859375,12.40908526171875,14.1570655859375,12.47733026171875Q14.1287975859375,12.54557626171875,14.114386585937499,12.61802526171875Q14.0999755859375,12.69047476171875,14.0999755859375,12.76434326171875Q14.0999755859375,12.83821176171875,14.114386585937499,12.91066126171875Q14.1287975859375,12.98311026171875,14.1570655859375,13.05135626171875Q14.1853345859375,13.11960126171875,14.2263735859375,13.18102126171875Q14.2674125859375,13.24244026171875,14.3196455859375,13.29467326171875Q14.3718785859375,13.34690626171875,14.4332975859375,13.38794526171875Q14.4947175859375,13.42898426171875,14.5629625859375,13.45725326171875Q14.6312085859375,13.48552126171875,14.7036575859375,13.499932261718751Q14.7761070859375,13.51434326171875,14.8499755859375,13.51434326171875L15.8499755859375,13.51434326171875Q15.9238455859375,13.51434326171875,15.9962955859375,13.499932261718751Q16.0687455859375,13.48552126171875,16.1369855859375,13.45725326171875Q16.2052355859375,13.42898426171875,16.2666555859375,13.38794526171875Q16.3280755859375,13.34690626171875,16.3803055859375,13.29467326171875Q16.4325355859375,13.24244026171875,16.4735755859375,13.18102126171875Q16.5146155859375,13.11960126171875,16.5428855859375,13.05135626171875Q16.5711555859375,12.98311026171875,16.5855655859375,12.91066126171875Q16.5999755859375,12.83821176171875,16.5999755859375,12.76434326171875Q16.5999755859375,12.69047476171875,16.5855655859375,12.61802526171875Q16.5711555859375,12.54557626171875,16.5428855859375,12.47733026171875Q16.5146155859375,12.40908526171875,16.4735755859375,12.34766526171875Q16.4325355859375,12.28624626171875,16.3803055859375,12.23401326171875Q16.3280755859375,12.18178026171875,16.2666555859375,12.14074126171875Q16.2052355859375,12.09970226171875,16.1369855859375,12.07143326171875Q16.0687455859375,12.04316526171875,15.9962955859375,12.028754261718749Q15.9238455859375,12.01434326171875,15.8499755859375,12.01434326171875L14.8499755859375,12.01434326171875Z" fill-rule="evenodd" fill="#231F2E" fill-opacity="1"/></g><g><path d="M14.8499755859375,9.0120849609375L16.8499755859375,9.0120849609375Q16.9238455859375,9.0120849609375,16.9962955859375,9.026495960937499Q17.0687455859375,9.0409069609375,17.1369855859375,9.0691749609375Q17.2052355859375,9.0974439609375,17.2666555859375,9.1384829609375Q17.3280755859375,9.1795219609375,17.3803055859375,9.2317549609375Q17.4325355859375,9.2839879609375,17.4735755859375,9.3454069609375Q17.5146155859375,9.4068269609375,17.5428855859375,9.4750719609375Q17.5711555859375,9.5433179609375,17.585565585937502,9.6157669609375Q17.5999755859375,9.6882164609375,17.5999755859375,9.7620849609375Q17.5999755859375,9.8359534609375,17.585565585937502,9.9084029609375Q17.5711555859375,9.9808519609375,17.5428855859375,10.0490979609375Q17.5146155859375,10.1173429609375,17.4735755859375,10.1787629609375Q17.4325355859375,10.2401819609375,17.3803055859375,10.2924149609375Q17.3280755859375,10.3446479609375,17.2666555859375,10.3856869609375Q17.2052355859375,10.4267259609375,17.1369855859375,10.4549949609375Q17.0687455859375,10.4832629609375,16.9962955859375,10.497673960937501Q16.9238455859375,10.5120849609375,16.8499755859375,10.5120849609375L14.8499755859375,10.5120849609375Q14.7761070859375,10.5120849609375,14.7036575859375,10.497673960937501Q14.6312085859375,10.4832629609375,14.5629625859375,10.4549949609375Q14.4947175859375,10.4267259609375,14.4332975859375,10.3856869609375Q14.3718785859375,10.3446479609375,14.3196455859375,10.2924149609375Q14.2674125859375,10.2401819609375,14.2263735859375,10.1787629609375Q14.1853345859375,10.1173429609375,14.1570655859375,10.0490979609375Q14.1287975859375,9.9808519609375,14.114386585937499,9.9084029609375Q14.0999755859375,9.8359534609375,14.0999755859375,9.7620849609375Q14.0999755859375,9.6882164609375,14.114386585937499,9.6157669609375Q14.1287975859375,9.5433179609375,14.1570655859375,9.4750719609375Q14.1853345859375,9.4068269609375,14.2263735859375,9.3454069609375Q14.2674125859375,9.2839879609375,14.3196455859375,9.2317549609375Q14.3718785859375,9.1795219609375,14.4332975859375,9.1384829609375Q14.4947175859375,9.0974439609375,14.5629625859375,9.0691749609375Q14.6312085859375,9.0409069609375,14.7036575859375,9.026495960937499Q14.7761070859375,9.0120849609375,14.8499755859375,9.0120849609375Z" fill-rule="evenodd" fill="#231F2E" fill-opacity="1"/></g><g><path d="M4.25,7.2763L4.25,16.7237Q4.25,17.3761,4.668047,17.877000000000002Q5.0860932,18.3779,5.728006,18.4947L11.328,19.5128Q12.156690000000001,19.6635,12.80334,19.1238Q13.45,18.5841,13.45,17.7419L13.45,6.25812Q13.45,5.415852,12.80334,4.87617Q12.156690000000001,4.336488,11.328009999999999,4.487158L5.728006,5.505339Q5.0860936,5.622051,4.668047,6.12296Q4.25,6.62387,4.25,7.2763ZM5.996334,17.018900000000002Q5.75,16.9741,5.75,16.7237L5.75,7.2763Q5.75,7.02593,5.996335,6.98114L11.59633,5.962962Q11.734449999999999,5.937851,11.842220000000001,6.0278Q11.95,6.1177399999999995,11.95,6.25812L11.95,17.7419Q11.95,17.8823,11.842220000000001,17.9722Q11.734449999999999,18.0622,11.59633,18.037L5.996334,17.018900000000002Z" fill-rule="evenodd" fill="#231F2E" fill-opacity="1"/></g><g><path d="M8.140747597656251,9.58410703515625L10.807362597656251,13.58402103515625Q10.93332259765625,13.77297103515625,10.93332259765625,14.00005103515625Q10.93332259765625,14.07392103515625,10.91891259765625,14.14637103515625Q10.90450259765625,14.21881103515625,10.87623259765625,14.287061035156249Q10.84796259765625,14.35531103515625,10.80692259765625,14.41673103515625Q10.765882597656251,14.47815103515625,10.71365259765625,14.53038103515625Q10.66142259765625,14.582611035156251,10.60000259765625,14.62365103515625Q10.53858259765625,14.664691035156249,10.470332597656249,14.69296103515625Q10.40209259765625,14.72123103515625,10.32964259765625,14.735641035156249Q10.25719259765625,14.75005103515625,10.18332259765625,14.75005103515625Q10.09072259765625,14.75005103515625,10.00089259765625,14.72752103515625Q9.91107259765625,14.70500103515625,9.82942259765625,14.66130103515625Q9.74778259765625,14.61761103515625,9.67921259765625,14.55537103515625Q9.61065259765625,14.49312103515625,9.55928259765625,14.41607103515625L9.55895259765625,14.41558103515625L6.89267259765625,10.41615703515625L6.89262459765625,10.41608603515625Q6.76666259765625,10.22714303515625,6.76666259765625,10.00006103515625Q6.76666259765625,9.92619253515625,6.78107359765625,9.85374303515625Q6.79548459765625,9.78129403515625,6.82375259765625,9.71304803515625Q6.85202159765625,9.64480303515625,6.89306059765625,9.58338303515625Q6.93409959765625,9.52196403515625,6.98633259765625,9.46973103515625Q7.03856559765625,9.41749803515625,7.09998459765625,9.37645903515625Q7.16140459765625,9.33542003515625,7.22964959765625,9.30715103515625Q7.29789559765625,9.27888303515625,7.37034459765625,9.264472035156249Q7.44279409765625,9.25006103515625,7.51666259765625,9.25006103515625Q7.60926579765625,9.25006103515625,7.69908759765625,9.27258503515625Q7.78891059765625,9.29510903515625,7.87055559765625,9.33880503515625Q7.95220159765625,9.38250103515625,8.02076759765625,9.44474303515625Q8.08933359765625,9.50698503515625,8.14070059765625,9.58403603515625L8.140747597656251,9.58410703515625Z" fill-rule="evenodd" fill="#13943C" fill-opacity="1"/></g><g><path d="M10.807362597656251,10.41608603515625Q10.93332259765625,10.22714303515625,10.93332259765625,10.00006103515625Q10.93332259765625,9.92619253515625,10.91891259765625,9.85374303515625Q10.90450259765625,9.78129403515625,10.87623259765625,9.71304803515625Q10.84796259765625,9.64480303515625,10.80692259765625,9.58338303515625Q10.765882597656251,9.52196403515625,10.71365259765625,9.46973103515625Q10.66142259765625,9.41749803515625,10.60000259765625,9.37645903515625Q10.53858259765625,9.33542003515625,10.470332597656249,9.30715103515625Q10.40209259765625,9.27888303515625,10.32964259765625,9.264472035156249Q10.25719259765625,9.25006103515625,10.18332259765625,9.25006103515625Q10.09072259765625,9.25006103515625,10.00089259765625,9.27258503515625Q9.91107259765625,9.29510903515625,9.82943259765625,9.33880503515625Q9.74778259765625,9.38250103515625,9.67921259765625,9.44474303515625Q9.61065259765625,9.50698503515625,9.55928259765625,9.58403603515625L9.55923259765625,9.58410703515625L6.89262459765625,13.58402103515625Q6.76666259765625,13.77297103515625,6.76666259765625,14.00005103515625Q6.76666259765625,14.07392103515625,6.78107359765625,14.14637103515625Q6.79548459765625,14.21881103515625,6.82375259765625,14.287061035156249Q6.85202159765625,14.35531103515625,6.89306059765625,14.41673103515625Q6.93409959765625,14.47815103515625,6.98633259765625,14.53038103515625Q7.03856559765625,14.582611035156251,7.09998459765625,14.62365103515625Q7.16140459765625,14.664691035156249,7.22964959765625,14.69296103515625Q7.29789559765625,14.72123103515625,7.37034459765625,14.735641035156249Q7.44279409765625,14.75005103515625,7.51666259765625,14.75005103515625Q7.60926589765625,14.75005103515625,7.69908759765625,14.72752103515625Q7.78891059765625,14.70500103515625,7.87055659765625,14.66130103515625Q7.95220259765625,14.61761103515625,8.02076759765625,14.55537103515625Q8.08933359765625,14.49312103515625,8.14070059765625,14.41607103515625L8.14103059765625,14.41558103515625L10.80731259765625,10.41615703515625L10.807362597656251,10.41608603515625Z" fill-rule="evenodd" fill="#13943C" fill-opacity="1"/></g></g><g><path d="M2.860913,2.860913Q1.25,4.471830000000001,1.25,6.75Q1.25,6.82387,1.264411,6.89632Q1.278822,6.96877,1.30709,7.03701Q1.335359,7.10526,1.376398,7.16668Q1.417437,7.2281,1.46967,7.28033Q1.521903,7.33256,1.583322,7.3736Q1.644742,7.41464,1.712987,7.44291Q1.781233,7.47118,1.853682,7.48559Q1.9261314999999999,7.5,2,7.5Q2.0738685,7.5,2.146318,7.48559Q2.218767,7.47118,2.287013,7.44291Q2.355258,7.41464,2.416678,7.3736Q2.478097,7.33256,2.53033,7.28033Q2.582563,7.2281,2.623602,7.16668Q2.664641,7.10526,2.69291,7.03701Q2.721178,6.96877,2.735589,6.89632Q2.75,6.82387,2.75,6.75Q2.75,5.09315,3.92157,3.92157Q5.09315,2.75,6.75,2.75L7,2.75Q7.07387,2.75,7.14632,2.735589Q7.21877,2.721178,7.28701,2.69291Q7.35526,2.664641,7.41668,2.623602Q7.4781,2.582563,7.53033,2.53033Q7.58256,2.478097,7.6236,2.416678Q7.66464,2.355258,7.69291,2.287013Q7.72118,2.218767,7.73559,2.146318Q7.75,2.0738685,7.75,2Q7.75,1.9261314999999999,7.73559,1.853682Q7.72118,1.781233,7.69291,1.712987Q7.66464,1.644742,7.6236,1.583322Q7.58256,1.521903,7.53033,1.46967Q7.4781,1.417437,7.41668,1.376398Q7.35526,1.335359,7.28701,1.30709Q7.21877,1.278822,7.14632,1.264411Q7.07387,1.25,7,1.25L6.75,1.25Q4.471830000000001,1.25,2.860913,2.860913ZM17,1.25L17.25,1.25Q19.5282,1.25,21.1391,2.860913Q22.75,4.47182,22.75,6.75Q22.75,6.82387,22.7356,6.89632Q22.7212,6.96877,22.6929,7.03701Q22.6646,7.10526,22.6236,7.16668Q22.5826,7.2281,22.5303,7.28033Q22.4781,7.33256,22.4167,7.3736Q22.3553,7.41464,22.287,7.44291Q22.2188,7.47118,22.1463,7.48559Q22.0739,7.5,22,7.5Q21.9261,7.5,21.8537,7.48559Q21.7812,7.47118,21.713,7.44291Q21.6447,7.41464,21.5833,7.3736Q21.5219,7.33256,21.4697,7.28033Q21.4174,7.2281,21.3764,7.16668Q21.3354,7.10526,21.3071,7.03701Q21.2788,6.96877,21.2644,6.89632Q21.25,6.82387,21.25,6.75Q21.25,5.09314,20.0784,3.92157Q18.9069,2.75,17.25,2.75L17,2.75Q16.926099999999998,2.75,16.8537,2.735589Q16.7812,2.721178,16.713,2.69291Q16.6447,2.664641,16.5833,2.623602Q16.521900000000002,2.582563,16.4697,2.53033Q16.4174,2.478097,16.3764,2.416678Q16.3354,2.355258,16.3071,2.287013Q16.2788,2.218767,16.264400000000002,2.146318Q16.25,2.0738685,16.25,2Q16.25,1.9261314999999999,16.264400000000002,1.853682Q16.2788,1.781233,16.3071,1.712987Q16.3354,1.644742,16.3764,1.583322Q16.4174,1.521903,16.4697,1.46967Q16.521900000000002,1.417437,16.5833,1.376398Q16.6447,1.335359,16.713,1.30709Q16.7812,1.278822,16.8537,1.264411Q16.926099999999998,1.25,17,1.25ZM1.25,17.25Q1.25,17.176099999999998,1.264411,17.1037Q1.278822,17.0312,1.30709,16.963Q1.335359,16.8947,1.376398,16.8333Q1.417437,16.771900000000002,1.46967,16.7197Q1.521903,16.6674,1.583322,16.6264Q1.644742,16.5854,1.712987,16.5571Q1.781233,16.5288,1.853682,16.514400000000002Q1.9261314999999999,16.5,2,16.5Q2.0738685,16.5,2.146318,16.514400000000002Q2.218767,16.5288,2.287013,16.5571Q2.355258,16.5854,2.416678,16.6264Q2.478097,16.6674,2.53033,16.7197Q2.582563,16.771900000000002,2.623602,16.8333Q2.664641,16.8947,2.69291,16.963Q2.721178,17.0312,2.735589,17.1037Q2.75,17.176099999999998,2.75,17.25Q2.75,18.9069,3.92157,20.0784Q5.09315,21.25,6.75,21.25L7,21.25Q7.07387,21.25,7.14632,21.2644Q7.21877,21.2788,7.28701,21.3071Q7.35526,21.3354,7.41668,21.3764Q7.4781,21.4174,7.53033,21.4697Q7.58256,21.5219,7.6236,21.5833Q7.66464,21.6447,7.69291,21.713Q7.72118,21.7812,7.73559,21.8537Q7.75,21.9261,7.75,22Q7.75,22.0739,7.73559,22.1463Q7.72118,22.2188,7.69291,22.287Q7.66464,22.3553,7.6236,22.4167Q7.58256,22.4781,7.53033,22.5303Q7.4781,22.5826,7.41668,22.6236Q7.35526,22.6646,7.28701,22.6929Q7.21877,22.7212,7.14632,22.7356Q7.07387,22.75,7,22.75L6.75,22.75Q4.47182,22.75,2.860913,21.1391Q1.250318,19.5285,1.2500010000000001,17.2509L1.25,17.25L1.25,17.25ZM21.25,17.25Q21.25,17.176099999999998,21.2644,17.1037Q21.2788,17.0312,21.3071,16.963Q21.3354,16.8947,21.3764,16.8333Q21.4174,16.771900000000002,21.4697,16.7197Q21.5219,16.6674,21.5833,16.6264Q21.6447,16.5854,21.713,16.5571Q21.7812,16.5288,21.8537,16.514400000000002Q21.9261,16.5,22,16.5Q22.0739,16.5,22.1463,16.514400000000002Q22.2188,16.5288,22.287,16.5571Q22.3553,16.5854,22.4167,16.6264Q22.4781,16.6674,22.5303,16.7197Q22.5826,16.771900000000002,22.6236,16.8333Q22.6646,16.8947,22.6929,16.963Q22.7212,17.0312,22.7356,17.1037Q22.75,17.176099999999998,22.75,17.25Q22.75,19.5282,21.1391,21.1391Q19.5282,22.75,17.25,22.75L17,22.75Q16.926099999999998,22.75,16.8537,22.7356Q16.7812,22.7212,16.713,22.6929Q16.6447,22.6646,16.5833,22.6236Q16.521900000000002,22.5826,16.4697,22.5303Q16.4174,22.4781,16.3764,22.4167Q16.3354,22.3553,16.3071,22.287Q16.2788,22.2188,16.264400000000002,22.1463Q16.25,22.0739,16.25,22Q16.25,21.9261,16.264400000000002,21.8537Q16.2788,21.7812,16.3071,21.713Q16.3354,21.6447,16.3764,21.5833Q16.4174,21.5219,16.4697,21.4697Q16.521900000000002,21.4174,16.5833,21.3764Q16.6447,21.3354,16.713,21.3071Q16.7812,21.2788,16.8537,21.2644Q16.926099999999998,21.25,17,21.25L17.25,21.25Q18.9069,21.25,20.0784,20.0784Q21.25,18.9069,21.25,17.25Z" fill-rule="evenodd" fill="#13943C" fill-opacity="1"/></g></g></svg>