<svg xmlns="http://www.w3.org/2000/svg" xmlns:xlink="http://www.w3.org/1999/xlink" fill="none" version="1.1" width="24" height="24" viewBox="0 0 24 24"><defs><clipPath id="master_svg0_62_00921"><rect x="0" y="0" width="24" height="24" rx="0"/></clipPath></defs><g clip-path="url(#master_svg0_62_00921)"><g><path d="M13.25,3Q13.25,2.9261315,13.264410999999999,2.853682Q13.278822,2.781233,13.30709,2.712987Q13.335359,2.644742,13.376398,2.583322Q13.417437,2.521903,13.46967,2.46967Q13.521903,2.417437,13.583322,2.376398Q13.644742,2.335359,13.712987,2.30709Q13.781233,2.278822,13.853682,2.264411Q13.9261315,2.25,14,2.25Q14.0738685,2.25,14.146318,2.264411Q14.218767,2.278822,14.287013,2.30709Q14.355258,2.335359,14.416678,2.376398Q14.478097,2.417437,14.53033,2.46967Q14.582563,2.521903,14.623602,2.583322Q14.664641,2.644742,14.69291,2.712987Q14.721178,2.781233,14.735589000000001,2.853682Q14.75,2.9261315,14.75,3L14.75,7Q14.75,7.10355,14.823223,7.17678Q14.896447,7.25,15,7.25L19,7.25Q19.07387,7.25,19.14632,7.26441Q19.21877,7.27882,19.287010000000002,7.30709Q19.35526,7.33536,19.41668,7.3764Q19.4781,7.41744,19.53033,7.46967Q19.58256,7.5219,19.6236,7.58332Q19.66464,7.64474,19.69291,7.71299Q19.72118,7.78123,19.735590000000002,7.85368Q19.75,7.92613,19.75,8Q19.75,8.07387,19.735590000000002,8.14632Q19.72118,8.21877,19.69291,8.28701Q19.66464,8.355260000000001,19.6236,8.41668Q19.58256,8.478100000000001,19.53033,8.53033Q19.4781,8.58256,19.41668,8.6236Q19.35526,8.66464,19.287010000000002,8.692910000000001Q19.21877,8.72118,19.14632,8.73559Q19.07387,8.75,19,8.75L15,8.75Q14.275126,8.75,13.762563,8.23744Q13.25,7.72487,13.25,7L13.25,3Z" fill-rule="evenodd" fill="#231F2E" fill-opacity="1"/></g><g><path d="M18.25,8.31066L18.25,12Q18.25,12.07387,18.264400000000002,12.14632Q18.2788,12.21877,18.3071,12.28701Q18.3354,12.35526,18.3764,12.41668Q18.4174,12.4781,18.4697,12.53033Q18.521900000000002,12.58256,18.5833,12.6236Q18.6447,12.66464,18.713,12.69291Q18.7812,12.72118,18.8537,12.73559Q18.926099999999998,12.75,19,12.75Q19.073900000000002,12.75,19.1463,12.73559Q19.2188,12.72118,19.287,12.69291Q19.3553,12.66464,19.4167,12.6236Q19.478099999999998,12.58256,19.5303,12.53033Q19.5826,12.4781,19.6236,12.41668Q19.6646,12.35526,19.6929,12.28701Q19.7212,12.21877,19.735599999999998,12.14632Q19.75,12.07387,19.75,12L19.75,8Q19.75,7.85082,19.6929,7.71299Q19.6358,7.57516,19.5303,7.46967L14.53033,2.46967Q14.42484,2.364181,14.28701,2.30709Q14.14918,2.25,14,2.25L7,2.25Q5.860913,2.25,5.0554563,3.0554564Q4.25,3.860913,4.25,5L4.25,12Q4.25,12.07387,4.264411,12.14632Q4.278822,12.21877,4.30709,12.28701Q4.335359,12.35526,4.376398,12.41668Q4.417437,12.4781,4.46967,12.53033Q4.521903,12.58256,4.583322,12.6236Q4.644742,12.66464,4.712987,12.69291Q4.781233,12.72118,4.853682,12.73559Q4.9261315,12.75,5,12.75Q5.0738685,12.75,5.146318,12.73559Q5.218767,12.72118,5.287013,12.69291Q5.355258,12.66464,5.416678,12.6236Q5.478097,12.58256,5.53033,12.53033Q5.582563,12.4781,5.623602,12.41668Q5.664641,12.35526,5.69291,12.28701Q5.721178,12.21877,5.735589,12.14632Q5.75,12.07387,5.75,12L5.75,5Q5.75,4.4822299999999995,6.1161200000000004,4.1161200000000004Q6.4822299999999995,3.75,7,3.75L13.68934,3.75L18.25,8.31066Z" fill-rule="evenodd" fill="#231F2E" fill-opacity="1"/></g><g><path d="M4.25,18L4.25,21Q4.25,21.07387,4.264411,21.14632Q4.278822,21.21877,4.30709,21.287010000000002Q4.335359,21.35526,4.376398,21.41668Q4.417437,21.4781,4.46967,21.53033Q4.521903,21.58256,4.583322,21.6236Q4.644742,21.66464,4.712987,21.69291Q4.781233,21.72118,4.853682,21.735590000000002Q4.9261315,21.75,5,21.75Q5.0738685,21.75,5.146318,21.735590000000002Q5.218767,21.72118,5.287013,21.69291Q5.355258,21.66464,5.416678,21.6236Q5.478097,21.58256,5.53033,21.53033Q5.582563,21.4781,5.623602,21.41668Q5.664641,21.35526,5.69291,21.287010000000002Q5.721178,21.21877,5.735589,21.14632Q5.75,21.07387,5.75,21L5.75,18.75L6.5,18.75Q7.431979999999999,18.75,8.09099,18.09099Q8.75,17.43198,8.75,16.5Q8.75,15.568019,8.09099,14.9090097Q7.431979999999999,14.25,6.5,14.25L5,14.25Q4.9261315,14.25,4.853682,14.264410999999999Q4.781233,14.278822,4.712987,14.30709Q4.644742,14.335359,4.583322,14.376398Q4.521903,14.417437,4.46967,14.46967Q4.417437,14.521903,4.376398,14.583322Q4.335359,14.644742,4.30709,14.712987Q4.278822,14.781233,4.264411,14.853682Q4.25,14.9261315,4.25,15L4.25,18ZM5.75,17.25L5.75,15.75L6.5,15.75Q6.81066,15.75,7.03033,15.96967Q7.25,16.18934,7.25,16.5Q7.25,16.81066,7.03033,17.03033Q6.81066,17.25,6.5,17.25L5.75,17.25Z" fill-rule="evenodd" fill="#13943C" fill-opacity="1" style="mix-blend-mode:passthrough"/></g><g><path d="M17,17.25L19,17.25Q19.07387,17.25,19.14632,17.264411Q19.21877,17.278822,19.28701,17.30709Q19.35526,17.335359,19.41668,17.376398000000002Q19.4781,17.417437,19.53033,17.46967Q19.58256,17.521903000000002,19.6236,17.583322Q19.66464,17.644742,19.69291,17.712987Q19.72118,17.781233,19.735590000000002,17.853682Q19.75,17.9261315,19.75,18Q19.75,18.0738685,19.735590000000002,18.146318Q19.72118,18.218767,19.69291,18.287013Q19.66464,18.355258,19.6236,18.416678Q19.58256,18.478096999999998,19.53033,18.53033Q19.4781,18.582563,19.41668,18.623601999999998Q19.35526,18.664641,19.28701,18.69291Q19.21877,18.721178,19.14632,18.735589Q19.07387,18.75,19,18.75L17,18.75Q16.9261315,18.75,16.853682,18.735589Q16.781233,18.721178,16.712987,18.69291Q16.644742,18.664641,16.583322,18.623601999999998Q16.521903000000002,18.582563,16.46967,18.53033Q16.417437,18.478096999999998,16.376398000000002,18.416678Q16.335359,18.355258,16.30709,18.287013Q16.278822,18.218767,16.264411,18.146318Q16.25,18.0738685,16.25,18Q16.25,17.9261315,16.264411,17.853682Q16.278822,17.781233,16.30709,17.712987Q16.335359,17.644742,16.376398000000002,17.583322Q16.417437,17.521903000000002,16.46967,17.46967Q16.521903000000002,17.417437,16.583322,17.376398000000002Q16.644742,17.335359,16.712987,17.30709Q16.781233,17.278822,16.853682,17.264411Q16.9261315,17.25,17,17.25Z" fill-rule="evenodd" fill="#13943C" fill-opacity="1" style="mix-blend-mode:passthrough"/></g><g><path d="M16.25,15L16.25,21Q16.25,21.07387,16.264411,21.14632Q16.278822,21.21877,16.30709,21.287010000000002Q16.335359,21.35526,16.376398000000002,21.41668Q16.417437,21.4781,16.46967,21.53033Q16.521903000000002,21.58256,16.583322,21.6236Q16.644742,21.66464,16.712987,21.69291Q16.781233,21.72118,16.853682,21.735590000000002Q16.9261315,21.75,17,21.75Q17.0738685,21.75,17.146318,21.735590000000002Q17.218767,21.72118,17.287013,21.69291Q17.355258,21.66464,17.416678,21.6236Q17.478096999999998,21.58256,17.53033,21.53033Q17.582563,21.4781,17.623601999999998,21.41668Q17.664641,21.35526,17.69291,21.287010000000002Q17.721178,21.21877,17.735589,21.14632Q17.75,21.07387,17.75,21L17.75,15.75L20,15.75Q20.07387,15.75,20.14632,15.735589000000001Q20.21877,15.721178,20.28701,15.69291Q20.35526,15.664641,20.41668,15.623602Q20.4781,15.582563,20.53033,15.53033Q20.58256,15.478097,20.6236,15.416678Q20.66464,15.355258,20.69291,15.287013Q20.72118,15.218767,20.735590000000002,15.146318Q20.75,15.0738685,20.75,15Q20.75,14.9261315,20.735590000000002,14.853682Q20.72118,14.781233,20.69291,14.712987Q20.66464,14.644742,20.6236,14.583322Q20.58256,14.521903,20.53033,14.46967Q20.4781,14.417437,20.41668,14.376398Q20.35526,14.335359,20.28701,14.30709Q20.21877,14.278822,20.14632,14.264410999999999Q20.07387,14.25,20,14.25L17,14.25Q16.9261315,14.25,16.853682,14.264410999999999Q16.781233,14.278822,16.712987,14.30709Q16.644742,14.335359,16.583322,14.376398Q16.521903000000002,14.417437,16.46967,14.46967Q16.417437,14.521903,16.376398000000002,14.583322Q16.335359,14.644742,16.30709,14.712987Q16.278822,14.781233,16.264411,14.853682Q16.25,14.9261315,16.25,15Z" fill-rule="evenodd" fill="#13943C" fill-opacity="1" style="mix-blend-mode:passthrough"/></g><g><path d="M13.94454,15.0554565Q13.13909,14.25,12,14.25L11,14.25Q10.9261315,14.25,10.853682,14.264410999999999Q10.781233,14.278822,10.712987,14.30709Q10.644742,14.335359,10.583322,14.376398Q10.521903,14.417437,10.46967,14.46967Q10.417437,14.521903,10.376398,14.583322Q10.335359,14.644742,10.30709,14.712987Q10.278822,14.781233,10.264410999999999,14.853682Q10.25,14.9261315,10.25,15L10.25,21Q10.25,21.07387,10.264410999999999,21.14632Q10.278822,21.21877,10.30709,21.287010000000002Q10.335359,21.35526,10.376398,21.41668Q10.417437,21.4781,10.46967,21.53033Q10.521903,21.58256,10.583322,21.6236Q10.644742,21.66464,10.712987,21.69291Q10.781233,21.72118,10.853682,21.735590000000002Q10.9261315,21.75,11,21.75L12,21.75Q13.13909,21.75,13.94454,20.94454Q14.75,20.13909,14.75,19L14.75,17Q14.75,15.860913,13.94454,15.0554565ZM11.75,15.75L12,15.75Q12.51777,15.75,12.88388,16.11612Q13.25,16.48223,13.25,17L13.25,19Q13.25,19.51777,12.88388,19.88388Q12.51777,20.25,12,20.25L11.75,20.25L11.75,15.75Z" fill-rule="evenodd" fill="#13943C" fill-opacity="1" style="mix-blend-mode:passthrough"/></g></g></svg>