<svg xmlns="http://www.w3.org/2000/svg" xmlns:xlink="http://www.w3.org/1999/xlink" fill="none" version="1.1" width="24" height="24" viewBox="0 0 24 24"><defs><clipPath id="master_svg0_63_01604"><rect x="0" y="0" width="24" height="24" rx="0"/></clipPath></defs><g clip-path="url(#master_svg0_63_01604)"><g><path d="M2.5 15C2.5 14.723857625084603 2.7238576250846034 14.5 3 14.5L19 14.5C19 14.5 19 14.5 19 14.5L19 19.5C19 19.5 19 19.5 19 19.5L3 19.5C2.7238576250846034 19.5 2.5 19.2761423749154 2.5 19Z" fill="#FFFFFF" fill-opacity="1"/><path d="M3,13.75C2.309644,13.75,1.75,14.309644,1.75,15L1.75,19C1.75,19.69036,2.309644,20.25,3,20.25L19,20.25L19,18.75L3.25,18.75L3.25,15.25L19,15.25L19,13.75L3,13.75Z" fill-rule="evenodd" fill="#231F2E" fill-opacity="1"/></g><g><g><g><path d="M22.35876,13.641243Q20.96751,12.25,19,12.25Q17.03249,12.25,15.641243,13.641243Q14.25,15.03249,14.25,17Q14.25,18.96751,15.641243,20.35876Q17.03249,21.75,19,21.75Q20.96751,21.75,22.35876,20.35876Q23.75,18.96751,23.75,17Q23.75,15.03249,22.35876,13.641243ZM18.11612,16.11612Q18.48223,15.75,19,15.75Q19.51777,15.75,19.88388,16.11612Q20.25,16.48223,20.25,17Q20.25,17.51777,19.88388,17.88388Q19.51777,18.25,19,18.25Q18.48223,18.25,18.11612,17.88388Q17.75,17.51777,17.75,17Q17.75,16.48223,18.11612,16.11612Z" fill-rule="evenodd" fill="#FFFFFF" fill-opacity="1" style="mix-blend-mode:passthrough"/></g><g><path d="M22.23744,16.23744Q22.35931,16.11556,22.45507,15.972248Q22.55083,15.828936,22.61679,15.669696Q22.68275,15.510456,22.71637,15.341408Q22.75,15.17236,22.75,15Q22.75,14.914028,22.74157,14.82847Q22.733150000000002,14.742912,22.71637,14.658592Q22.6996,14.574272,22.67465,14.492002Q22.64969,14.409732,22.61679,14.330304Q22.58389,14.250876,22.54336,14.175056Q22.50284,14.099235,22.45507,14.027752Q22.40731,13.95627,22.35277,13.88981Q22.29823,13.82335,22.23744,13.76256Q22.176650000000002,13.70177,22.11019,13.64723Q22.04373,13.59269,21.97225,13.54493Q21.90076,13.497160000000001,21.824939999999998,13.45664Q21.749119999999998,13.41611,21.6697,13.38321Q21.59027,13.35031,21.508,13.32535Q21.42573,13.3004,21.34141,13.28363Q21.257089999999998,13.26685,21.17153,13.25843Q21.08597,13.25,21,13.25Q20.82764,13.25,20.65859,13.28363Q20.489539999999998,13.31725,20.3303,13.38321Q20.17106,13.44917,20.02775,13.54493Q19.88444,13.64069,19.76256,13.76256L15.76256,17.76256Q15.64069,17.88444,15.54493,18.02775Q15.44917,18.17106,15.38321,18.3303Q15.31725,18.489539999999998,15.28363,18.65859Q15.25,18.82764,15.25,19Q15.25,19.08597,15.25843,19.17153Q15.26685,19.257089999999998,15.28363,19.34141Q15.3004,19.42573,15.32535,19.508Q15.35031,19.59027,15.38321,19.6697Q15.41611,19.749119999999998,15.45664,19.824939999999998Q15.497160000000001,19.90076,15.54493,19.97225Q15.59269,20.04373,15.64723,20.11019Q15.70177,20.176650000000002,15.76256,20.23744Q15.82335,20.29823,15.88981,20.35277Q15.95627,20.40731,16.027752,20.45507Q16.099235,20.50284,16.175056,20.54336Q16.250876,20.58389,16.330304,20.61679Q16.409731999999998,20.64969,16.492002,20.67464Q16.574272,20.6996,16.658592,20.71637Q16.742912,20.733150000000002,16.82847,20.74157Q16.914028,20.75,17,20.75Q17.17236,20.75,17.341408,20.71637Q17.510456,20.68275,17.669696,20.61679Q17.828936,20.55083,17.972248,20.45507Q18.11556,20.35931,18.23744,20.23744L18.23772,20.23715L22.23715,16.23772L22.23744,16.23744Z" fill-rule="evenodd" fill="#FFFFFF" fill-opacity="1" style="mix-blend-mode:passthrough"/></g></g><g><g><path d="M21.65165,14.34835Q20.5533,13.25,19,13.25Q17.4467,13.25,16.34835,14.348349Q15.25,15.4467,15.25,17Q15.25,18.5533,16.348349,19.65165Q17.4467,20.75,19,20.75Q20.5533,20.75,21.65165,19.65165Q22.75,18.5533,22.75,17Q22.75,15.4467,21.65165,14.34835ZM17.40901,15.40901Q18.06802,14.75,19,14.75Q19.93198,14.75,20.590989999999998,15.40901Q21.25,16.06802,21.25,17Q21.25,17.93198,20.590989999999998,18.590989999999998Q19.93198,19.25,19,19.25Q18.06802,19.25,17.40901,18.590989999999998Q16.75,17.93198,16.75,17Q16.75,16.06802,17.40901,15.40901Z" fill-rule="evenodd" fill="#DE1000" fill-opacity="1" style="mix-blend-mode:passthrough"/></g><g><path d="M21.53033,15.53033Q21.63582,15.424841,21.69291,15.287013Q21.75,15.149184,21.75,15Q21.75,14.9261315,21.735590000000002,14.853682Q21.72118,14.781233,21.69291,14.712987Q21.66464,14.644742,21.6236,14.583322Q21.58256,14.521903,21.53033,14.46967Q21.4781,14.417437,21.41668,14.376398Q21.35526,14.335359,21.287010000000002,14.30709Q21.21877,14.278822,21.14632,14.264410999999999Q21.07387,14.25,21,14.25Q20.85082,14.25,20.71299,14.30709Q20.57516,14.364181,20.46967,14.46967L16.46967,18.46967Q16.364181,18.57516,16.30709,18.71299Q16.25,18.85082,16.25,19Q16.25,19.07387,16.264411,19.14632Q16.278822,19.21877,16.30709,19.287010000000002Q16.335359,19.35526,16.376398000000002,19.41668Q16.417437,19.4781,16.46967,19.53033Q16.521903000000002,19.58256,16.583322,19.6236Q16.644742,19.66464,16.712987,19.69291Q16.781233,19.72118,16.853682,19.735590000000002Q16.9261315,19.75,17,19.75Q17.149184,19.75,17.287013,19.69291Q17.424841,19.63582,17.53033,19.53033L21.53033,15.53033L21.53033,15.53033Z" fill-rule="evenodd" fill="#DE1000" fill-opacity="1" style="mix-blend-mode:passthrough"/></g></g></g><g><path d="M2.5,9C2.5,9.27614,2.723858,9.5,3,9.5L18,9.5L22,4.5L3,4.5C2.723858,4.5,2.5,4.723858,2.5,5L2.5,9Z" fill="#FFFFFF" fill-opacity="1"/><path d="M1.75,5L1.75,9Q1.75,9.517769999999999,2.116117,9.883880000000001Q2.4822332,10.25,3,10.25L18,10.25Q18.084400000000002,10.25,18.166600000000003,10.231259999999999Q18.2489,10.21252,18.3249,10.17598Q18.4009,10.13943,18.466900000000003,10.08691Q18.533,10.03439,18.5857,9.96852L22.5857,4.968521Q22.6654,4.868783,22.7077,4.748255Q22.75,4.627728,22.75,4.5Q22.75,4.4261315,22.7356,4.353682Q22.7212,4.281233,22.6929,4.212987Q22.6646,4.144742,22.6236,4.083322Q22.5826,4.021903,22.5303,3.96967Q22.4781,3.917437,22.4167,3.876398Q22.3553,3.835359,22.287,3.80709Q22.2188,3.778822,22.1463,3.764411Q22.0739,3.75,22,3.75L3,3.75Q2.4822331,3.75,2.116117,4.116117Q1.75,4.4822332,1.75,5ZM3.25,8.75L17.639499999999998,8.75L20.4395,5.25L3.25,5.25L3.25,8.75Z" fill-rule="evenodd" fill="#231F2E" fill-opacity="1"/></g><g><g><path d="M23.23744,6.23744Q23.35931,6.11556,23.45507,5.9722480000000004Q23.55083,5.828936,23.61679,5.669696Q23.68275,5.510456,23.71637,5.341408Q23.75,5.17236,23.75,5Q23.75,4.914028,23.74157,4.82847Q23.733150000000002,4.7429120000000005,23.71637,4.658592Q23.6996,4.574272,23.67465,4.492002Q23.64969,4.409732,23.61679,4.330304Q23.58389,4.250876,23.54336,4.175056Q23.50284,4.099235,23.45507,4.0277519999999996Q23.40731,3.95627,23.35277,3.8898099999999998Q23.29823,3.82335,23.23744,3.7625599999999997Q23.176650000000002,3.70177,23.11019,3.64723Q23.04373,3.59269,22.97225,3.54493Q22.90076,3.49716,22.824939999999998,3.45664Q22.749119999999998,3.4161099999999998,22.6697,3.38321Q22.59027,3.35031,22.508,3.3253500000000003Q22.42573,3.3004,22.34141,3.28363Q22.257089999999998,3.26685,22.17153,3.2584299999999997Q22.08597,3.25,22,3.25Q21.82764,3.25,21.65859,3.28363Q21.489539999999998,3.31725,21.3303,3.38321Q21.17106,3.44917,21.02775,3.54493Q20.884439999999998,3.64069,20.76256,3.7625599999999997L20.76228,3.7628500000000003L18,6.52513L17.23744,5.762563Q17.11556,5.640686,16.972248,5.544928Q16.828936,5.44917,16.669696,5.383211Q16.510456,5.317252,16.341408,5.283626Q16.17236,5.25,16,5.25Q15.914028,5.25,15.82847,5.258427Q15.742912,5.266853,15.658592,5.283626Q15.574272,5.300398,15.492002,5.325354Q15.409732,5.350311,15.330304,5.383211Q15.250876,5.416111,15.175056,5.456638Q15.099235,5.497165,15.027752,5.544928Q14.95627,5.5926919999999996,14.88981,5.647232Q14.82335,5.701772,14.76256,5.762563Q14.70177,5.823354,14.64723,5.889812Q14.59269,5.956269,14.54493,6.02775Q14.497160000000001,6.09924,14.45664,6.17506Q14.41611,6.25088,14.38321,6.3303Q14.35031,6.40973,14.32535,6.492Q14.3004,6.57427,14.28363,6.65859Q14.26685,6.74291,14.25843,6.82847Q14.25,6.91403,14.25,7Q14.25,7.172359999999999,14.28363,7.34141Q14.31725,7.51046,14.38321,7.669700000000001Q14.44917,7.828939999999999,14.54493,7.97225Q14.64069,8.11556,14.76256,8.23744L16.762563,10.23744Q16.823355,10.29823,16.889812,10.35277Q16.956269,10.407309999999999,17.02775,10.45507Q17.09924,10.502839999999999,17.17506,10.54336Q17.25088,10.58389,17.3303,10.61679Q17.40973,10.64969,17.492,10.67464Q17.57427,10.6996,17.65859,10.716370000000001Q17.74291,10.73315,17.82847,10.74157Q17.91403,10.75,18,10.75Q18.08597,10.75,18.17153,10.74157Q18.257089999999998,10.73315,18.34141,10.716370000000001Q18.42573,10.6996,18.508,10.67464Q18.59027,10.64969,18.6697,10.61679Q18.74912,10.58389,18.824939999999998,10.54336Q18.90076,10.502839999999999,18.97225,10.45507Q19.04373,10.407309999999999,19.11019,10.35277Q19.17665,10.29823,19.23744,10.23744L23.23715,6.2377199999999995L23.23744,6.23744Z" fill-rule="evenodd" fill="#FFFFFF" fill-opacity="1" style="mix-blend-mode:passthrough"/></g><g><path d="M22.53033,5.53033Q22.63582,5.424841,22.69291,5.287013Q22.75,5.149184,22.75,5Q22.75,4.9261315,22.735590000000002,4.853682Q22.72118,4.781233,22.69291,4.712987Q22.66464,4.644742,22.6236,4.583322Q22.58256,4.521903,22.53033,4.46967Q22.4781,4.417437,22.41668,4.376398Q22.35526,4.335359,22.287010000000002,4.30709Q22.21877,4.278822,22.14632,4.264411Q22.07387,4.25,22,4.25Q21.85082,4.25,21.712989999999998,4.30709Q21.57516,4.364181,21.46967,4.46967L18,7.93934L16.530484,6.46982L16.53033,6.46967Q16.424841,6.36418,16.287013,6.3070900000000005Q16.149184,6.25,16,6.25Q15.9261315,6.25,15.853682,6.26441Q15.781233,6.27882,15.712987,6.3070900000000005Q15.644742,6.33536,15.583322,6.3764Q15.521903,6.41744,15.46967,6.46967Q15.417437,6.5219000000000005,15.376398,6.5833200000000005Q15.335359,6.6447400000000005,15.30709,6.71299Q15.278822,6.78123,15.264410999999999,6.85368Q15.25,6.92613,15.25,7Q15.25,7.149179999999999,15.30709,7.28701Q15.364181,7.42484,15.46967,7.53033L17.46967,9.53033Q17.57516,9.635819999999999,17.71299,9.692910000000001Q17.85082,9.75,18,9.75Q18.14918,9.75,18.28701,9.692910000000001Q18.42484,9.635819999999999,18.53033,9.53033L22.53033,5.53033L22.53033,5.53033Z" fill-rule="evenodd" fill="#13943C" fill-opacity="1" style="mix-blend-mode:passthrough"/></g></g></g></svg>