<svg xmlns="http://www.w3.org/2000/svg" xmlns:xlink="http://www.w3.org/1999/xlink" fill="none" version="1.1" width="24" height="24" viewBox="0 0 24 24"><defs><clipPath id="master_svg0_72_03106"><rect x="0" y="0" width="24" height="24" rx="0"/></clipPath><clipPath id="master_svg1_75_02812"><rect x="1" y="1" width="22" height="22" rx="0"/></clipPath></defs><g clip-path="url(#master_svg0_72_03106)"><g clip-path="url(#master_svg1_75_02812)"><g></g><g><path d="M6.50001701171875,5.41668701171875L8.33335701171875,5.41668701171875Q8.40721701171875,5.41668701171875,8.47966701171875,5.40227601171875Q8.55211701171875,5.38786501171875,8.62036701171875,5.35959701171875Q8.68860701171875,5.33132801171875,8.75002701171875,5.29028901171875Q8.81144701171875,5.24925001171875,8.86368701171875,5.19701701171875Q8.91591701171875,5.14478401171875,8.95695701171875,5.08336501171875Q8.99799701171875,5.02194501171875,9.026267011718751,4.95370001171875Q9.05452701171875,4.88545401171875,9.06894701171875,4.81300501171875Q9.08335701171875,4.74055551171875,9.08335701171875,4.66668701171875Q9.08335701171875,4.59281851171875,9.06894701171875,4.52036901171875Q9.05452701171875,4.44792001171875,9.026267011718751,4.37967401171875Q8.99799701171875,4.31142901171875,8.95695701171875,4.25000901171875Q8.91591701171875,4.18859001171875,8.86368701171875,4.13635701171875Q8.81144701171875,4.08412401171875,8.75002701171875,4.04308501171875Q8.68860701171875,4.00204601171875,8.62036701171875,3.97377701171875Q8.55211701171875,3.94550901171875,8.47966701171875,3.93109801171875Q8.40722701171875,3.91668701171875,8.33335701171875,3.91668701171875L6.50001701171875,3.91668701171875Q5.42996901171875,3.91668701171875,4.67332772171875,4.67332777171875Q3.91668701171875,5.42996801171875,3.91668701171875,6.50001701171875L3.91668701171875,8.33335701171875Q3.91668701171875,8.40721701171875,3.93109801171875,8.47966701171875Q3.94550901171875,8.55211701171875,3.97377701171875,8.62036701171875Q4.00204601171875,8.68860701171875,4.04308501171875,8.75002701171875Q4.08412401171875,8.81144701171875,4.13635701171875,8.86368701171875Q4.18859001171875,8.91591701171875,4.25000901171875,8.95695701171875Q4.31142901171875,8.99799701171875,4.37967401171875,9.026267011718751Q4.44792001171875,9.05452701171875,4.52036901171875,9.06894701171875Q4.59281851171875,9.08335701171875,4.66668701171875,9.08335701171875Q4.74055551171875,9.08335701171875,4.81300501171875,9.06894701171875Q4.88545401171875,9.05452701171875,4.95370001171875,9.026267011718751Q5.02194501171875,8.99799701171875,5.08336501171875,8.95695701171875Q5.14478401171875,8.91591701171875,5.19701701171875,8.86368701171875Q5.24925001171875,8.81144701171875,5.29028901171875,8.75002701171875Q5.33132801171875,8.68860701171875,5.35959701171875,8.62036701171875Q5.38786501171875,8.55211701171875,5.40227601171875,8.47966701171875Q5.41668701171875,8.40722701171875,5.41668701171875,8.33335701171875L5.41668701171875,6.50001701171875Q5.41668701171875,6.05128701171875,5.7339870117187495,5.7339870117187495Q6.05128701171875,5.41668701171875,6.50001701171875,5.41668701171875Z" fill-rule="evenodd" fill="#231F2E" fill-opacity="1" style="mix-blend-mode:passthrough"/></g><g><path d="M3.91668701171875,15.66668701171875Q3.91668701171875,15.59281851171875,3.93109801171875,15.52036901171875Q3.94550901171875,15.44792001171875,3.97377701171875,15.37967401171875Q4.00204601171875,15.31142901171875,4.04308501171875,15.25000901171875Q4.08412401171875,15.18859001171875,4.13635701171875,15.13635701171875Q4.18859001171875,15.08412401171875,4.25000901171875,15.04308501171875Q4.31142901171875,15.00204601171875,4.37967401171875,14.97377701171875Q4.44792001171875,14.94550901171875,4.52036901171875,14.931098011718749Q4.59281851171875,14.91668701171875,4.66668701171875,14.91668701171875Q4.74055551171875,14.91668701171875,4.81300501171875,14.931098011718749Q4.88545401171875,14.94550901171875,4.95370001171875,14.97377701171875Q5.02194501171875,15.00204601171875,5.08336501171875,15.04308501171875Q5.14478401171875,15.08412401171875,5.19701701171875,15.13635701171875Q5.24925001171875,15.18859001171875,5.29028901171875,15.25000901171875Q5.33132801171875,15.31142901171875,5.35959701171875,15.37967401171875Q5.38786501171875,15.44792001171875,5.40227601171875,15.52036901171875Q5.41668701171875,15.59281851171875,5.41668701171875,15.66668701171875L5.41668701171875,17.50001701171875Q5.41668701171875,17.94875701171875,5.7339870117187495,18.26605701171875Q6.05128701171875,18.58335701171875,6.50001701171875,18.58335701171875L8.33335701171875,18.58335701171875Q8.40721701171875,18.58335701171875,8.47966701171875,18.59776701171875Q8.55211701171875,18.61217701171875,8.62036701171875,18.64044701171875Q8.68860701171875,18.66870701171875,8.75002701171875,18.70974701171875Q8.81144701171875,18.75078701171875,8.86368701171875,18.80302701171875Q8.91591701171875,18.85525701171875,8.95695701171875,18.91667701171875Q8.99799701171875,18.97809701171875,9.026267011718751,19.046337011718748Q9.05452701171875,19.11458701171875,9.06894701171875,19.18703701171875Q9.08335701171875,19.25948701171875,9.08335701171875,19.33335701171875Q9.08335701171875,19.40722701171875,9.06894701171875,19.47966701171875Q9.05452701171875,19.55211701171875,9.026267011718751,19.62036701171875Q8.99799701171875,19.68860701171875,8.95695701171875,19.75002701171875Q8.91591701171875,19.811447011718748,8.86368701171875,19.86368701171875Q8.81144701171875,19.91591701171875,8.75002701171875,19.95695701171875Q8.68860701171875,19.997997011718752,8.62036701171875,20.02626701171875Q8.55211701171875,20.05452701171875,8.47966701171875,20.06894701171875Q8.40722701171875,20.08335701171875,8.33335701171875,20.08335701171875L8.33250701171875,20.08335701171875L6.50001701171875,20.08335701171875Q5.42996901171875,20.08335701171875,4.67332783171875,19.32671701171875Q3.91668701171875,18.57007701171875,3.91668701171875,17.50001701171875L3.91668701171875,15.66668701171875Z" fill-rule="evenodd" fill="#231F2E" fill-opacity="1" style="mix-blend-mode:passthrough"/></g><g><path d="M15.66668701171875,3.91668701171875L17.50001701171875,3.91668701171875Q18.57007701171875,3.91668701171875,19.32671701171875,4.67332783171875Q20.08335701171875,5.42996901171875,20.08335701171875,6.50001701171875L20.08335701171875,8.33335701171875Q20.08335701171875,8.40721701171875,20.06894701171875,8.47966701171875Q20.05452701171875,8.55211701171875,20.02626701171875,8.62036701171875Q19.997997011718752,8.68860701171875,19.95695701171875,8.75002701171875Q19.91591701171875,8.81144701171875,19.86368701171875,8.86368701171875Q19.811447011718748,8.91591701171875,19.75002701171875,8.95695701171875Q19.68860701171875,8.99799701171875,19.62036701171875,9.026267011718751Q19.55211701171875,9.05452701171875,19.47966701171875,9.06894701171875Q19.40722701171875,9.08335701171875,19.33335701171875,9.08335701171875Q19.25948701171875,9.08335701171875,19.18703701171875,9.06894701171875Q19.11458701171875,9.05452701171875,19.046337011718748,9.026267011718751Q18.97809701171875,8.99799701171875,18.91667701171875,8.95695701171875Q18.85525701171875,8.91591701171875,18.80302701171875,8.86368701171875Q18.75078701171875,8.81144701171875,18.70974701171875,8.75002701171875Q18.66871701171875,8.68860701171875,18.64044701171875,8.62036701171875Q18.61217701171875,8.55211701171875,18.59776701171875,8.47966701171875Q18.58335701171875,8.40722701171875,18.58335701171875,8.33335701171875L18.58335701171875,6.50001701171875Q18.58335701171875,6.05128701171875,18.26605701171875,5.7339870117187495Q17.94875701171875,5.41668701171875,17.50001701171875,5.41668701171875L15.66668701171875,5.41668701171875Q15.59281851171875,5.41668701171875,15.52036901171875,5.40227601171875Q15.44792001171875,5.38786501171875,15.37967401171875,5.35959701171875Q15.31142901171875,5.33132801171875,15.25000901171875,5.29028901171875Q15.18859001171875,5.24925001171875,15.13635701171875,5.19701701171875Q15.08412401171875,5.14478401171875,15.04308501171875,5.08336501171875Q15.00204601171875,5.02194501171875,14.97377701171875,4.95370001171875Q14.94550901171875,4.88545401171875,14.931098011718749,4.81300501171875Q14.91668701171875,4.74055551171875,14.91668701171875,4.66668701171875Q14.91668701171875,4.59281851171875,14.931098011718749,4.52036901171875Q14.94550901171875,4.44792001171875,14.97377701171875,4.37967401171875Q15.00204601171875,4.31142901171875,15.04308501171875,4.25000901171875Q15.08412401171875,4.18859001171875,15.13635701171875,4.13635701171875Q15.18859001171875,4.08412401171875,15.25000901171875,4.04308501171875Q15.31142901171875,4.00204601171875,15.37967401171875,3.97377701171875Q15.44792001171875,3.94550901171875,15.52036901171875,3.93109801171875Q15.59281851171875,3.91668701171875,15.66668701171875,3.91668701171875Z" fill-rule="evenodd" fill="#231F2E" fill-opacity="1" style="mix-blend-mode:passthrough"/></g><g><path d="M20.08335701171875,15.66753273971875L20.08335701171875,17.50001701171875Q20.08335701171875,18.57007701171875,19.32671701171875,19.32671701171875Q18.57007701171875,20.08335701171875,17.50001701171875,20.08335701171875L15.66668701171875,20.08335701171875Q15.59281851171875,20.08335701171875,15.52036901171875,20.06894701171875Q15.44792001171875,20.05452701171875,15.37967401171875,20.02626701171875Q15.31142901171875,19.997997011718752,15.25000901171875,19.95695701171875Q15.18859001171875,19.91591701171875,15.13635701171875,19.86368701171875Q15.08412401171875,19.811447011718748,15.04308501171875,19.75002701171875Q15.00204601171875,19.68860701171875,14.97377701171875,19.62036701171875Q14.94550901171875,19.55211701171875,14.931098011718749,19.47966701171875Q14.91668701171875,19.40722701171875,14.91668701171875,19.33335701171875Q14.91668701171875,19.25948701171875,14.931098011718749,19.18703701171875Q14.94550901171875,19.11458701171875,14.97377701171875,19.046337011718748Q15.00204601171875,18.97809701171875,15.04308501171875,18.91667701171875Q15.08412401171875,18.85525701171875,15.13635701171875,18.80302701171875Q15.18859001171875,18.75078701171875,15.25000901171875,18.70974701171875Q15.31142901171875,18.66871701171875,15.37967401171875,18.64044701171875Q15.44792001171875,18.61217701171875,15.52036901171875,18.59776701171875Q15.59281851171875,18.58335701171875,15.66668701171875,18.58335701171875L17.50001701171875,18.58335701171875Q17.94875701171875,18.58335701171875,18.26605701171875,18.26605701171875Q18.58335701171875,17.94875701171875,18.58335701171875,17.50001701171875L18.58335701171875,15.66668701171875Q18.58335701171875,15.59281851171875,18.59776701171875,15.52036901171875Q18.61217701171875,15.44792001171875,18.64044701171875,15.37967401171875Q18.66870701171875,15.31142901171875,18.70974701171875,15.25000901171875Q18.75078701171875,15.18859001171875,18.80302701171875,15.13635701171875Q18.85525701171875,15.08412401171875,18.91667701171875,15.04308501171875Q18.97809701171875,15.00204601171875,19.046337011718748,14.97377701171875Q19.11458701171875,14.94550901171875,19.18703701171875,14.931098011718749Q19.25948701171875,14.91668701171875,19.33335701171875,14.91668701171875Q19.40722701171875,14.91668701171875,19.47966701171875,14.931098011718749Q19.55211701171875,14.94550901171875,19.62036701171875,14.97377701171875Q19.68860701171875,15.00204601171875,19.75002701171875,15.04308501171875Q19.811447011718748,15.08412401171875,19.86368701171875,15.13635701171875Q19.91591701171875,15.18859001171875,19.95695701171875,15.25000901171875Q19.997997011718752,15.31142901171875,20.02626701171875,15.37967401171875Q20.05452701171875,15.44792001171875,20.06894701171875,15.52036901171875Q20.08335701171875,15.59281851171875,20.08335701171875,15.66668701171875L20.08335701171875,15.66753273971875Z" fill-rule="evenodd" fill="#231F2E" fill-opacity="1" style="mix-blend-mode:passthrough"/></g><g><path d="M13.17849298828125,7.15484201171875Q12.69033298828125,6.66668701171875,11.99997898828125,6.66668701171875Q11.30962398828125,6.66668701171875,10.82146798828125,7.15484201171875Q10.33331298828125,7.64299701171875,10.33331298828125,8.33335401171875Q10.33331298828125,9.02370701171875,10.82146798828125,9.51186701171875Q11.30962398828125,10.00001701171875,11.99997998828125,10.00001701171875Q12.69033298828125,10.00001701171875,13.17849298828125,9.51186701171875Q13.66664298828125,9.02370701171875,13.66664298828125,8.33335401171875Q13.66664298828125,7.64299801171875,13.17849298828125,7.15484201171875ZM11.88212898828125,8.21550201171875Q11.93094398828125,8.16668701171875,11.99997998828125,8.16668701171875Q12.06901498828125,8.16668701171875,12.11783298828125,8.21550301171875Q12.16664298828125,8.26431801171875,12.16664298828125,8.33335401171875Q12.16664298828125,8.40238901171875,12.11783298828125,8.45120701171875Q12.06901498828125,8.50001701171875,11.99997998828125,8.50001701171875Q11.93094398828125,8.50001701171875,11.88212898828125,8.45120701171875Q11.83331298828125,8.40238901171875,11.83331298828125,8.33335401171875Q11.83331298828125,8.26431801171875,11.88212898828125,8.21550201171875Z" fill-rule="evenodd" fill="#2882FF" fill-opacity="1" style="mix-blend-mode:passthrough"/></g><g><path d="M13.08335701171875,15.66664298828125L13.08335701171875,16.58331298828125Q13.08335701171875,16.65718298828125,13.09776701171875,16.72963298828125Q13.11217701171875,16.80208298828125,13.14044701171875,16.87032298828125Q13.16870701171875,16.93857298828125,13.20974701171875,16.99999298828125Q13.25078701171875,17.06141298828125,13.30302701171875,17.11364298828125Q13.35525701171875,17.16587298828125,13.41667701171875,17.20691298828125Q13.47809701171875,17.24795298828125,13.54633701171875,17.27622298828125Q13.61458701171875,17.30449298828125,13.68703701171875,17.318902988281252Q13.75948701171875,17.33331298828125,13.83335701171875,17.33331298828125Q13.90722701171875,17.33331298828125,13.97966701171875,17.318902988281252Q14.05211701171875,17.30449298828125,14.12036701171875,17.27622298828125Q14.18860701171875,17.24795298828125,14.25002701171875,17.20691298828125Q14.31144701171875,17.16587298828125,14.36368701171875,17.11364298828125Q14.41591701171875,17.06141298828125,14.45695701171875,16.99999298828125Q14.49799701171875,16.93857298828125,14.526267011718751,16.87032298828125Q14.55452701171875,16.80208298828125,14.56894701171875,16.72963298828125Q14.58335701171875,16.65718298828125,14.58335701171875,16.58331298828125L14.58335701171875,16.58246298828125L14.58335701171875,15.66664298828125Q14.58335701171875,14.59659498828125,13.826717011718749,13.83995382828125Q13.07006701171875,13.08331298828125,12.00001701171875,13.08331298828125Q10.92996901171875,13.08331298828125,10.17332785171875,13.83995382828125Q9.41668701171875,14.59659498828125,9.41668701171875,15.66664298828125L9.41668701171875,16.58331298828125Q9.41668701171875,16.65718298828125,9.431098011718749,16.72963298828125Q9.44550901171875,16.80208298828125,9.47377701171875,16.87032298828125Q9.50204601171875,16.93857298828125,9.54308501171875,16.99999298828125Q9.58412401171875,17.06141298828125,9.63635701171875,17.11364298828125Q9.68859001171875,17.16587298828125,9.75000901171875,17.20691298828125Q9.81142901171875,17.24795298828125,9.87967401171875,17.27622298828125Q9.94792001171875,17.30449298828125,10.02036901171875,17.318902988281252Q10.09281851171875,17.33331298828125,10.16668701171875,17.33331298828125Q10.24055551171875,17.33331298828125,10.31300501171875,17.318902988281252Q10.38545401171875,17.30449298828125,10.45370001171875,17.27622298828125Q10.52194501171875,17.24795298828125,10.58336501171875,17.20691298828125Q10.64478401171875,17.16587298828125,10.69701701171875,17.11364298828125Q10.74925001171875,17.06141298828125,10.79028901171875,16.99999298828125Q10.83132801171875,16.93857298828125,10.85959701171875,16.87032298828125Q10.88786501171875,16.80208298828125,10.902276011718751,16.72963298828125Q10.91668701171875,16.65718298828125,10.91668701171875,16.58331298828125L10.91668701171875,15.66664298828125Q10.91668701171875,15.21791298828125,11.23398701171875,14.90061298828125Q11.55128701171875,14.58331298828125,12.00001701171875,14.58331298828125Q12.44874701171875,14.58331298828125,12.76605701171875,14.90061298828125Q13.08335701171875,15.21791298828125,13.08335701171875,15.66664298828125Z" fill-rule="evenodd" fill="#2882FF" fill-opacity="1" style="mix-blend-mode:passthrough"/></g><g><path d="M7.80298298828125,10.69701701171875Q7.69749398828125,10.59152801171875,7.64040298828125,10.45370001171875Q7.58331298828125,10.31587101171875,7.58331298828125,10.16668701171875Q7.58331298828125,10.09281851171875,7.59772398828125,10.02036901171875Q7.61213498828125,9.94792001171875,7.64040298828125,9.87967401171875Q7.66867198828125,9.81142901171875,7.70971098828125,9.75000901171875Q7.75074998828125,9.68859001171875,7.80298298828125,9.63635701171875Q7.85521598828125,9.58412401171875,7.91663498828125,9.54308501171875Q7.97805498828125,9.50204601171875,8.04629998828125,9.47377701171875Q8.11454598828125,9.44550901171875,8.18699498828125,9.431098011718749Q8.25944448828125,9.41668701171875,8.33331298828125,9.41668701171875Q8.48249698828125,9.41668701171875,8.62032598828125,9.47377701171875Q8.75815398828125,9.53086801171875,8.86364298828125,9.63635701171875Q9.56064298828125,10.33335401171875,10.16664298828125,10.33335401171875L13.83331298828125,10.33335401171875Q14.439322988281251,10.33335401171875,15.13631298828125,9.63635701171875Q15.24180298828125,9.53086801171875,15.37963298828125,9.47377701171875Q15.517462988281249,9.41668701171875,15.66664298828125,9.41668701171875Q15.74051298828125,9.41668701171875,15.81296298828125,9.431098011718749Q15.88541298828125,9.44550901171875,15.95366298828125,9.47377701171875Q16.021902988281248,9.50204601171875,16.08332298828125,9.54308501171875Q16.14474298828125,9.58412401171875,16.19697298828125,9.63635701171875Q16.24921298828125,9.68859001171875,16.29025298828125,9.75000901171875Q16.33128298828125,9.81142901171875,16.35955298828125,9.87967401171875Q16.38782298828125,9.94792001171875,16.40223298828125,10.02036901171875Q16.41664298828125,10.09281851171875,16.41664298828125,10.16668701171875Q16.41664298828125,10.31587101171875,16.35955298828125,10.45370001171875Q16.30246298828125,10.59152801171875,16.19697298828125,10.69701801171875L16.19603298828125,10.69796201171875Q15.06013298828125,11.83335701171875,13.83331298828125,11.83335701171875L10.16664298828125,11.83335701171875Q8.93948998828125,11.83335701171875,7.8032989882812505,10.69733201171875L7.80298298828125,10.69701701171875L7.80298298828125,10.69701701171875Z" fill-rule="evenodd" fill="#2882FF" fill-opacity="1" style="mix-blend-mode:passthrough"/></g><g><path d="M11.25,11.08331298828125Q11.25,11.00944448828125,11.264410999999999,10.93699498828125Q11.278822,10.86454598828125,11.30709,10.79629998828125Q11.335359,10.72805498828125,11.376398,10.66663498828125Q11.417437,10.60521598828125,11.46967,10.55298298828125Q11.521903,10.50074998828125,11.583322,10.45971098828125Q11.644742,10.41867198828125,11.712987,10.39040298828125Q11.781233,10.36213498828125,11.853682,10.347723988281249Q11.9261315,10.33331298828125,12,10.33331298828125Q12.0738685,10.33331298828125,12.146318,10.347723988281249Q12.218767,10.36213498828125,12.287013,10.39040298828125Q12.355258,10.41867198828125,12.416678,10.45971098828125Q12.478097,10.50074998828125,12.53033,10.55298298828125Q12.582563,10.60521598828125,12.623602,10.66663498828125Q12.664641,10.72805498828125,12.69291,10.79629998828125Q12.721178,10.86454598828125,12.735589000000001,10.93699498828125Q12.75,11.00944448828125,12.75,11.08331298828125L12.75,13.83331298828125Q12.75,13.90718298828125,12.735589000000001,13.97963298828125Q12.721178,14.05208298828125,12.69291,14.12032298828125Q12.664641,14.18857298828125,12.623602,14.24999298828125Q12.582563,14.31141298828125,12.53033,14.36364298828125Q12.478097,14.41587298828125,12.416678,14.45691298828125Q12.355258,14.49795298828125,12.287013,14.52622298828125Q12.218767,14.55449298828125,12.146318,14.56890298828125Q12.0738685,14.58331298828125,12,14.58331298828125Q11.9261315,14.58331298828125,11.853682,14.56890298828125Q11.781233,14.55449298828125,11.712987,14.52622298828125Q11.644742,14.49795298828125,11.583322,14.45691298828125Q11.521903,14.41587298828125,11.46967,14.36364298828125Q11.417437,14.31141298828125,11.376398,14.24999298828125Q11.335359,14.18857298828125,11.30709,14.12032298828125Q11.278822,14.05208298828125,11.264410999999999,13.97963298828125Q11.25,13.90718298828125,11.25,13.83331298828125L11.25,11.08331298828125Z" fill-rule="evenodd" fill="#2882FF" fill-opacity="1" style="mix-blend-mode:passthrough"/></g></g></g></svg>