<svg xmlns="http://www.w3.org/2000/svg" xmlns:xlink="http://www.w3.org/1999/xlink" fill="none" version="1.1" width="24" height="24" viewBox="0 0 24 24"><defs><clipPath id="master_svg0_72_03287"><rect x="0" y="0" width="24" height="24" rx="0"/></clipPath><clipPath id="master_svg1_75_03035"><rect x="1" y="1" width="22" height="22" rx="0"/></clipPath></defs><g clip-path="url(#master_svg0_72_03287)"><g clip-path="url(#master_svg1_75_03035)"><g></g><g><path d="M9.05349298828125,6.69646798828125Q8.56533298828125,6.20831298828125,7.87497898828125,6.20831298828125Q7.18462398828125,6.20831298828125,6.69646798828125,6.69646798828125Q6.20831298828125,7.18462298828125,6.20831298828125,7.87497998828125Q6.20831298828125,8.56533298828125,6.69646798828125,9.05349298828125Q7.18462398828125,9.54164298828125,7.87497998828125,9.54164298828125Q8.56533298828125,9.54164298828125,9.05349298828125,9.05349298828125Q9.54164298828125,8.56533298828125,9.54164298828125,7.87497998828125Q9.54164298828125,7.18462398828125,9.05349298828125,6.69646798828125ZM7.75712898828125,7.75712798828125Q7.80594398828125,7.70831298828125,7.87497998828125,7.70831298828125Q7.94401498828125,7.70831298828125,7.9928329882812506,7.75712898828125Q8.04164298828125,7.80594398828125,8.04164298828125,7.87497998828125Q8.04164298828125,7.94401498828125,7.9928329882812506,7.9928329882812506Q7.94401498828125,8.04164298828125,7.87497998828125,8.04164298828125Q7.80594398828125,8.04164298828125,7.75712898828125,7.9928329882812506Q7.70831298828125,7.94401498828125,7.70831298828125,7.87497998828125Q7.70831298828125,7.80594398828125,7.75712898828125,7.75712798828125Z" fill-rule="evenodd" fill="#231F2E" fill-opacity="1" style="mix-blend-mode:passthrough"/></g><g><path d="M11.241,3L6.5,3Q5.05025,3,4.025126,4.025126Q2.999999,5.05025,3,6.5L3,11.241Q3.000229,12.31112,3.7569176,13.06758L10.82434,20.135Q11.69107,21.0016,12.91667,21.0016Q14.1423,21.0016,15.009,20.135L20.135,15.009Q21.0016,14.1423,21.0016,12.91667Q21.0016,11.69107,20.135,10.82438L13.0675,3.75683653Q12.31056,3,11.241,3ZM5.08579,5.08579Q5.67157,4.5,6.5,4.5L11.241,4.5Q11.6893,4.5,12.00684,4.8175L19.0743,11.88496Q20.1059,12.91667,19.0743,13.9483L13.9484,19.0743Q12.91667,20.1059,11.885,19.0743L4.81742,12.00675Q4.500096,11.689530000000001,4.5,11.241L4.5,6.5Q4.5,5.67157,5.08579,5.08579Z" fill-rule="evenodd" fill="#231F2E" fill-opacity="1" style="mix-blend-mode:passthrough"/></g><g><path d="M12.45835701171875,14.63908662109375L13.37627701171875,15.34466662109375Q13.44604701171875,15.398296621093749,13.52633701171875,15.43431662109375Q13.60661701171875,15.47033662109375,13.69305701171875,15.486796621093749Q13.77950701171875,15.503256621093751,13.86740701171875,15.49926662109375Q13.95531701171875,15.49526662109375,14.03990701171875,15.47103662109375Q14.110917011718751,15.45068662109375,14.17659701171875,15.416886621093749Q14.24227701171875,15.38307662109375,14.30009701171875,15.33710662109375Q14.357917011718751,15.291136621093749,14.40565701171875,15.234766621093751Q14.453407011718749,15.17839662109375,14.48922701171875,15.113806621093751Q14.52505701171875,15.049206621093749,14.54759701171875,14.978856621093751Q14.57012701171875,14.90850662109375,14.578507011718749,14.83511662109375Q14.58689701171875,14.76172662109375,14.58079701171875,14.68810662109375Q14.57469701171875,14.61449662109375,14.55434701171875,14.54348662109375L14.20933701171875,13.339176621093749L15.19851701171875,12.60116662109375Q15.26869701171875,12.54880662109375,15.32492701171875,12.48167662109375Q15.38115701171875,12.41455662109375,15.420417011718751,12.33628662109375Q15.45967701171875,12.25801662109375,15.47984701171875,12.17280662109375Q15.50001701171875,12.08759662109375,15.50001701171875,12.00003662109375Q15.50001701171875,11.92616662109375,15.48560701171875,11.85371662109375Q15.47119701171875,11.78126662109375,15.44292701171875,11.71302662109375Q15.414657011718749,11.644776621093751,15.37361701171875,11.583356621093749Q15.33258701171875,11.52193662109375,15.28034701171875,11.46970662109375Q15.22811701171875,11.41747662109375,15.16669701171875,11.37643662109375Q15.10527701171875,11.33539562109375,15.03703701171875,11.30712662109375Q14.96878701171875,11.27885862109375,14.89633701171875,11.26444762109375Q14.82388701171875,11.25003662109375,14.75001701171875,11.25003662109375L13.54765701171875,11.25003662109375L13.17010701171875,10.11357762109375Q13.14250701171875,10.03052562109375,13.09653701171875,9.95605762109375Q13.05056701171875,9.88158962109375,12.98868701171875,9.81970662109375Q12.926797011718751,9.75782362109375,12.852337011718749,9.71185162109375Q12.777867011718751,9.66587862109375,12.69481701171875,9.63828762109375Q12.55323701171875,9.59125262109375,12.40443701171875,9.60197662109375Q12.25563701171875,9.61270162109375,12.12227701171875,9.67955262109375Q11.98890701171875,9.74640262109375,11.89126701171875,9.85920262109375Q11.79363701171875,9.97200162109375,11.74660701171875,10.11357762109375L11.36904701171875,11.25003662109375L10.16668701171875,11.25003662109375Q10.07912301171875,11.25003662109375,9.99391401171875,11.27020862109375Q9.90870501171875,11.29037962109375,9.83043501171875,11.32963762109375Q9.752164011718751,11.36889662109375,9.68504301171875,11.42512662109375Q9.61792101171875,11.48136662109375,9.56555901171875,11.55154662109375Q9.52138601171875,11.61074662109375,9.48961301171875,11.67743662109375Q9.45784001171875,11.74412662109375,9.43968701171875,11.81572662109375Q9.42153401171875,11.88732662109375,9.41769901171875,11.96109662109375Q9.41386401171875,12.03486662109375,9.42449401171875,12.10796662109375Q9.43512401171875,12.18106662109375,9.45981101171875,12.25068662109375Q9.48449801171875,12.32030662109375,9.52229301171875,12.38377662109375Q9.56008801171875,12.44724662109375,9.60953901171875,12.50211662109375Q9.65898901171875,12.55699662109375,9.71819501171875,12.60116662109375L10.70737201171875,13.339176621093749L10.36235701171875,14.54348662109375Q10.33812301171875,14.62807662109375,10.33412701171875,14.71598662109375Q10.33013201171875,14.80388662109375,10.34659201171875,14.890326621093749Q10.36305201171875,14.97677662109375,10.39907401171875,15.05705662109375Q10.43509601171875,15.13734662109375,10.48872401171875,15.20710662109375Q10.53374101171875,15.26567662109375,10.58932001171875,15.31433662109375Q10.64489801171875,15.36298662109375,10.70890101171875,15.39986662109375Q10.772904011718751,15.43674662109375,10.84287301171875,15.46043662109375Q10.91284101171875,15.48412662109375,10.98608601171875,15.49370662109375Q11.05933001171875,15.50328662109375,11.13303701171875,15.49838662109375Q11.20674701171875,15.493496621093751,11.27807701171875,15.474316621093749Q11.34941701171875,15.45513662109375,11.41563701171875,15.42240662109375Q11.48185701171875,15.38968662109375,11.54042701171875,15.34466662109375L12.45835701171875,14.63908662109375ZM12.60121701171875,12.956856621093749Q12.619177011718751,12.80986662109375,12.69164701171875,12.68073662109375Q12.55848701171875,12.61913662109375,12.45835701171875,12.51190662109375Q12.35821701171875,12.61913662109375,12.22506701171875,12.68073662109375Q12.29753701171875,12.80986662109375,12.31548701171875,12.956856621093749Q12.45835701171875,12.92912662109375,12.60121701171875,12.956856621093749Z" fill-rule="evenodd" fill="#2882FF" fill-opacity="1" style="mix-blend-mode:passthrough"/></g></g></g></svg>