<svg xmlns="http://www.w3.org/2000/svg" xmlns:xlink="http://www.w3.org/1999/xlink" fill="none" version="1.1" width="24" height="24" viewBox="0 0 24 24"><defs><clipPath id="master_svg0_62_09330"><rect x="0" y="0" width="24" height="24" rx="0"/></clipPath></defs><g clip-path="url(#master_svg0_62_09330)"><g><path d="M13.25,3Q13.25,2.9261315,13.264410999999999,2.853682Q13.278822,2.781233,13.30709,2.712987Q13.335359,2.644742,13.376398,2.583322Q13.417437,2.521903,13.46967,2.46967Q13.521903,2.417437,13.583322,2.376398Q13.644742,2.335359,13.712987,2.30709Q13.781233,2.278822,13.853682,2.264411Q13.9261315,2.25,14,2.25Q14.0738685,2.25,14.146318,2.264411Q14.218767,2.278822,14.287013,2.30709Q14.355258,2.335359,14.416678,2.376398Q14.478097,2.417437,14.53033,2.46967Q14.582563,2.521903,14.623602,2.583322Q14.664641,2.644742,14.69291,2.712987Q14.721178,2.781233,14.735589000000001,2.853682Q14.75,2.9261315,14.75,3L14.75,7Q14.75,7.10355,14.823223,7.17678Q14.896447,7.25,15,7.25L19,7.25Q19.07387,7.25,19.14632,7.26441Q19.21877,7.27882,19.287010000000002,7.30709Q19.35526,7.33536,19.41668,7.3764Q19.4781,7.41744,19.53033,7.46967Q19.58256,7.5219,19.6236,7.58332Q19.66464,7.64474,19.69291,7.71299Q19.72118,7.78123,19.735590000000002,7.85368Q19.75,7.92613,19.75,8Q19.75,8.07387,19.735590000000002,8.14632Q19.72118,8.21877,19.69291,8.28701Q19.66464,8.355260000000001,19.6236,8.41668Q19.58256,8.478100000000001,19.53033,8.53033Q19.4781,8.58256,19.41668,8.6236Q19.35526,8.66464,19.287010000000002,8.692910000000001Q19.21877,8.72118,19.14632,8.73559Q19.07387,8.75,19,8.75L15,8.75Q14.275126,8.75,13.762563,8.23744Q13.25,7.72487,13.25,7L13.25,3Z" fill-rule="evenodd" fill="#231F2E" fill-opacity="1"/></g><g><path d="M18.25,8.31066L18.25,12.5Q18.25,12.57387,18.264400000000002,12.64632Q18.2788,12.71877,18.3071,12.78701Q18.3354,12.85526,18.3764,12.91668Q18.4174,12.9781,18.4697,13.0303Q18.521900000000002,13.0826,18.5833,13.1236Q18.6447,13.1646,18.713,13.1929Q18.7812,13.2212,18.8537,13.2356Q18.926099999999998,13.25,19,13.25Q19.073900000000002,13.25,19.1463,13.2356Q19.2188,13.2212,19.287,13.1929Q19.3553,13.1646,19.4167,13.1236Q19.478099999999998,13.0826,19.5303,13.0303Q19.5826,12.9781,19.6236,12.91668Q19.6646,12.85526,19.6929,12.78701Q19.7212,12.71877,19.735599999999998,12.64632Q19.75,12.57387,19.75,12.5L19.75,12.4988L19.75,8Q19.75,7.85082,19.6929,7.71299Q19.6358,7.57516,19.5303,7.46967L14.53033,2.46967Q14.42484,2.364181,14.28701,2.30709Q14.14919,2.25,14,2.25L7,2.25Q5.860913,2.25,5.0554564,3.0554564Q4.25,3.860913,4.25,5L4.25,19Q4.25,20.1391,5.0554563,20.9445Q5.860912,21.75,7,21.75L12,21.75Q12.07387,21.75,12.14632,21.7356Q12.21877,21.7212,12.28701,21.6929Q12.355260000000001,21.6646,12.41668,21.6236Q12.478100000000001,21.5826,12.53033,21.5303Q12.58256,21.4781,12.6236,21.4167Q12.66464,21.3553,12.692910000000001,21.287Q12.72118,21.2188,12.73559,21.1463Q12.75,21.0739,12.75,21Q12.75,20.9261,12.73559,20.8537Q12.72118,20.7812,12.692910000000001,20.713Q12.66464,20.6447,12.6236,20.5833Q12.58256,20.5219,12.53033,20.4697Q12.478100000000001,20.4174,12.41668,20.3764Q12.355260000000001,20.3354,12.28701,20.3071Q12.21877,20.2788,12.14632,20.2644Q12.07387,20.25,12,20.25L7,20.25Q6.4822299999999995,20.25,6.1161200000000004,19.8839Q5.75,19.5178,5.75,19L5.75,5Q5.75,4.4822299999999995,6.1161200000000004,4.1161200000000004Q6.4822299999999995,3.75,7,3.75L13.68934,3.75L18.25,8.31066Z" fill-rule="evenodd" fill="#231F2E" fill-opacity="1"/></g><g><path d="M9.414348,12.468521Q9.334557,12.368783,9.292279,12.248255Q9.25,12.127728,9.25,12Q9.25,11.9261315,9.264410999999999,11.853682Q9.278822,11.781233,9.30709,11.712987Q9.335359,11.644742,9.376398,11.583322Q9.417437,11.521903,9.46967,11.46967Q9.521903,11.417437,9.583322,11.376398Q9.644742,11.335359,9.712987,11.30709Q9.781233,11.278822,9.853682,11.264410999999999Q9.9261315,11.25,10,11.25Q10.0843583,11.25,10.166609,11.26874Q10.248859,11.287479,10.324892,11.324023Q10.400924,11.360566,10.466939,11.413086Q10.532953,11.465606,10.585652,11.531479L14.58526,16.53099L14.585650000000001,16.531480000000002Q14.66544,16.63122,14.70772,16.75175Q14.75,16.87227,14.75,17Q14.75,17.07387,14.73559,17.14632Q14.72118,17.21877,14.692910000000001,17.287010000000002Q14.66464,17.35526,14.6236,17.41668Q14.58256,17.4781,14.53033,17.53033Q14.478100000000001,17.58256,14.41668,17.6236Q14.355260000000001,17.66464,14.28701,17.69291Q14.21877,17.72118,14.14632,17.735590000000002Q14.07387,17.75,14,17.75Q13.91564,17.75,13.83339,17.73126Q13.75114,17.712519999999998,13.67511,17.67598Q13.59908,17.63943,13.533059999999999,17.58691Q13.46705,17.534390000000002,13.41435,17.468519999999998L13.41413,17.46825L9.414348,12.468521L9.414348,12.468521Z" fill-rule="evenodd" fill="#13943C" fill-opacity="1" style="mix-blend-mode:passthrough"/></g><g><path d="M14.585650000000001,12.468521Q14.66544,12.368783,14.70772,12.248255Q14.75,12.127728,14.75,12Q14.75,11.9261315,14.73559,11.853682Q14.72118,11.781233,14.692910000000001,11.712987Q14.66464,11.644742,14.6236,11.583322Q14.58256,11.521903,14.53033,11.46967Q14.478100000000001,11.417437,14.41668,11.376398Q14.355260000000001,11.335359,14.28701,11.30709Q14.21877,11.278822,14.14632,11.264410999999999Q14.07387,11.25,14,11.25Q13.91564,11.25,13.83339,11.26874Q13.75114,11.287479,13.67511,11.324023Q13.59908,11.360566,13.533059999999999,11.413086Q13.46705,11.465606,13.41435,11.531479L9.414565,16.53121L9.414348,16.531480000000002Q9.334557,16.63122,9.292279,16.75175Q9.25,16.87227,9.25,17Q9.25,17.07387,9.264410999999999,17.14632Q9.278822,17.21877,9.30709,17.287010000000002Q9.335359,17.35526,9.376398,17.41668Q9.417437,17.4781,9.46967,17.53033Q9.521903,17.58256,9.583322,17.6236Q9.644742,17.66464,9.712987,17.69291Q9.781233,17.72118,9.853682,17.735590000000002Q9.9261315,17.75,10,17.75Q10.0843583,17.75,10.166609,17.73126Q10.248859,17.712519999999998,10.324892,17.67598Q10.400924,17.63943,10.466939,17.58691Q10.532953,17.534390000000002,10.585652,17.468519999999998L10.585868,17.46825L14.58535,12.468897L14.585650000000001,12.468521L14.585650000000001,12.468521Z" fill-rule="evenodd" fill="#13943C" fill-opacity="1" style="mix-blend-mode:passthrough"/></g><g><path d="M16.176855671875,18.62294L15.989013671875,18.62294Q15.915145171875,18.62294,15.842695671875,18.608530000000002Q15.770246671875,18.59412,15.702000671875,18.56585Q15.633755671875,18.53759,15.572335671875,18.49655Q15.510916671875,18.45551,15.458683671875,18.40327Q15.406450671875,18.35104,15.365411671875,18.28962Q15.324372671875,18.2282,15.296103671875,18.159959999999998Q15.267835671875,18.09171,15.253424671874999,18.01926Q15.239013671875,17.94681,15.239013671875,17.87294L15.239013671875,16.37021Q15.239013671875,16.296341,15.253424671874999,16.223892Q15.267835671875,16.151443,15.296103671875,16.0831974Q15.324372671875,16.0149518,15.365411671875,15.953532299999999Q15.406450671875,15.892113,15.458683671875,15.83988Q15.510916671875,15.787647,15.572335671875,15.746608Q15.633755671875,15.705569,15.702000671875,15.6773Q15.770246671875,15.649032,15.842695671875,15.634621Q15.915145171875,15.62021,15.989013671875,15.62021Q16.094435671875,15.62021,16.195772671875,15.649273Q16.297110671875,15.678335,16.386508671875,15.734208Q16.475906671875,15.790082,16.546437671875,15.868435Q16.616968671875,15.946788,16.663166671875,16.041549Q16.863109671875,15.889023,17.088473671875,15.758829Q18.199133671875,15.117184,19.471283671875,15.281331Q20.743423671875,15.445478,21.654833671875,16.348037Q22.092533671875,16.78148,22.370313671875,17.33008L22.370713671875002,17.33088L22.370733671875,17.33091Q22.451533671874998,17.49059,22.451533671874998,17.66955Q22.451533671874998,17.74342,22.437123671875,17.81587Q22.422713671875,17.88832,22.394443671875,17.95656Q22.366173671875,18.02481,22.325133671875,18.08623Q22.284093671875,18.14765,22.231863671875,18.19988Q22.179633671875,18.252110000000002,22.118213671875,18.29315Q22.056793671875,18.33419,21.988543671875,18.36246Q21.920303671875,18.39073,21.847853671875,18.40514Q21.775403671875,18.41955,21.701533671874998,18.41955Q21.597533671875,18.41955,21.497453671875,18.39125Q21.397373671875002,18.36295,21.308773671875,18.30849Q21.220173671875,18.25402,21.149733671875,18.177500000000002Q21.079293671875,18.10099,21.032333671875,18.00819Q20.864403671875,17.67632,20.599363671875,17.41386Q20.048383671875,16.868231,19.279323671874998,16.768998Q18.510263671875002,16.669765,17.838823671875,17.05766Q17.762603671875,17.10169,17.691203671875,17.14995Q17.750143671875,17.16621,17.805683671875,17.19181Q17.861213671875,17.2174,17.911873671875,17.25166Q17.962523671875,17.28591,18.006963671875,17.32792Q18.051393671875,17.36992,18.088443671874998,17.41857Q18.125483671875,17.46722,18.154163671875,17.52123Q18.182843671875,17.57524,18.202393671875,17.63317Q18.221933671875,17.69111,18.231843671875,17.75145Q18.241743671875,17.8118,18.241743671875,17.87294Q18.241743671875,17.94681,18.227333671875,18.01926Q18.212923671875,18.09171,18.184653671875,18.159959999999998Q18.156393671875,18.2282,18.115353671875,18.28962Q18.074313671875,18.35104,18.022073671875,18.40327Q17.969843671875,18.45551,17.908423671875,18.49655Q17.847003671875,18.53759,17.778763671875,18.56585Q17.710513671875,18.59412,17.638063671875,18.608530000000002Q17.565613671875,18.62294,17.491743671875,18.62294L16.176855671875,18.62294Z" fill-rule="evenodd" fill="#13943C" fill-opacity="1"/></g><g><path d="M21.8121555859375,19.37701416015625L20.497265585937498,19.37701416015625Q20.4233955859375,19.37701416015625,20.3509455859375,19.39142516015625Q20.2784955859375,19.40583616015625,20.2102455859375,19.43410416015625Q20.1420055859375,19.46237316015625,20.0805855859375,19.503412160156252Q20.0191655859375,19.54445116015625,19.9669355859375,19.59668416015625Q19.9146955859375,19.648917160156252,19.8736555859375,19.71033616015625Q19.8326255859375,19.77175616015625,19.8043555859375,19.84000116015625Q19.7760855859375,19.90824716015625,19.7616755859375,19.98069616015625Q19.747265585937498,20.05314566015625,19.747265585937498,20.12701416015625Q19.747265585937498,20.18816266015625,19.7571655859375,20.24850316015625Q19.7670755859375,20.30884416015625,19.7866255859375,20.36678416015625Q19.8061755859375,20.42472316015625,19.8348455859375,20.47873116015625Q19.8635255859375,20.53273916015625,19.9005655859375,20.58138816015625Q19.9376155859375,20.63003716015625,19.982055585937502,20.67204316015625Q20.0264855859375,20.71404916015625,20.0771455859375,20.74830216015625Q20.1277955859375,20.78255516015625,20.1833355859375,20.80815016015625Q20.2388655859375,20.83374616015625,20.2978155859375,20.85000716015625Q20.2264055859375,20.89826316015625,20.1501855859375,20.94229416015625Q19.4787455859375,21.33019416015625,18.7096855859375,21.23096416015625Q17.9406255859375,21.13172416015625,17.3896455859375,20.58609516015625Q17.1246095859375,20.32363716015625,16.9566715859375,19.99177016015625Q16.9097125859375,19.89897216015625,16.8392745859375,19.82245416015625Q16.7688365859375,19.74593616015625,16.6802355859375,19.69147216015625Q16.5916345859375,19.63700816015625,16.4915565859375,19.60870816015625Q16.3914775859375,19.58040916015625,16.2874755859375,19.58040916015625Q16.2136070859375,19.58040916015625,16.1411575859375,19.59482016015625Q16.0687085859375,19.60923116015625,16.0004625859375,19.63749916015625Q15.9322175859375,19.66576716015625,15.8707975859375,19.70680616015625Q15.8093785859375,19.74784616015625,15.7571455859375,19.80007816015625Q15.7049125859375,19.85231116015625,15.6638735859375,19.91373116015625Q15.6228345859375,19.97515016015625,15.5945655859375,20.04339616015625Q15.5662975859375,20.11164176015625,15.551886585937499,20.18409096015625Q15.5374755859375,20.25654016015625,15.5374755859375,20.33040916015625Q15.5374755859375,20.50936916015625,15.6182795859375,20.66904816015625Q15.8961455859375,21.21815416015625,16.3341731859375,21.65192416015625Q17.2455885859375,22.55448416015625,18.517725585937498,22.71862416015625Q19.7898755859375,22.88277416015625,20.9005355859375,22.24113416015625Q21.1259055859375,22.11093416015625,21.3258455859375,21.95840416015625Q21.3720455859375,22.05317416015625,21.4425755859375,22.13152416015625Q21.5131055859375,22.20987416015625,21.6025055859375,22.26575416015625Q21.691895585937502,22.32162416015625,21.793235585937502,22.35068416015625Q21.8945755859375,22.37974416015625,21.999995585937498,22.37974416015625Q22.0738655859375,22.37974416015625,22.1463155859375,22.36533416015625Q22.2187655859375,22.35092416015625,22.2870055859375,22.32265416015625Q22.3552555859375,22.29439416015625,22.4166755859375,22.25335416015625Q22.4780955859375,22.21231416015625,22.5303255859375,22.16007416015625Q22.5825555859375,22.10784416015625,22.6235955859375,22.04642416015625Q22.6646355859375,21.98500416015625,22.6929055859375,21.91676416015625Q22.7211755859375,21.84851416015625,22.7355855859375,21.77606416015625Q22.749995585937498,21.70361416015625,22.749995585937498,21.62974416015625L22.749995585937498,20.12701416015625Q22.749995585937498,20.05314566015625,22.7355855859375,19.98069616015625Q22.7211755859375,19.90824716015625,22.6929055859375,19.84000116015625Q22.6646355859375,19.77175616015625,22.6235955859375,19.71033616015625Q22.5825555859375,19.648917160156252,22.5303255859375,19.59668416015625Q22.4780955859375,19.54445116015625,22.4166755859375,19.503412160156252Q22.3552555859375,19.46237316015625,22.2870055859375,19.43410416015625Q22.2187655859375,19.40583616015625,22.1463155859375,19.39142516015625Q22.0738655859375,19.37701416015625,21.999995585937498,19.37701416015625L21.8121555859375,19.37701416015625Z" fill-rule="evenodd" fill="#13943C" fill-opacity="1"/></g></g></svg>