<svg xmlns="http://www.w3.org/2000/svg" xmlns:xlink="http://www.w3.org/1999/xlink" fill="none" version="1.1" width="24" height="24" viewBox="0 0 24 24"><defs><clipPath id="master_svg0_83_05430"><rect x="0" y="0" width="24" height="24" rx="0"/></clipPath><linearGradient x1="0" y1="0" x2="0.9379872892554231" y2="1.0551280342864033" id="master_svg1_83_05875"><stop offset="0%" stop-color="#2882FF" stop-opacity="1"/><stop offset="31.42857253551483%" stop-color="#5B65F5" stop-opacity="1"/><stop offset="100%" stop-color="#B700FF" stop-opacity="1"/></linearGradient></defs><g clip-path="url(#master_svg0_83_05430)"><g><path d="M12.08641,13.75L9.249410000000001,5.39235L6.413069999999999,13.75L12.08641,13.75ZM12.59558,15.25L14.2898,20.2411Q14.3086,20.2964,14.3357,20.3481Q14.3628,20.3999,14.3976,20.4468Q14.4324,20.4937,14.474,20.5347Q14.5157,20.5756,14.5631,20.6096Q14.6106,20.6437,14.6628,20.6699Q14.715,20.6962,14.7706,20.714Q14.8262,20.7319,14.8839,20.741Q14.9416,20.75,15,20.75Q15.0739,20.75,15.1463,20.7356Q15.2188,20.7212,15.287,20.6929Q15.3553,20.6646,15.4167,20.6236Q15.4781,20.5826,15.5303,20.5303Q15.5826,20.4781,15.6236,20.4167Q15.6646,20.3553,15.6929,20.287Q15.7212,20.2188,15.7356,20.1463Q15.75,20.0739,15.75,20Q15.75,19.8762,15.7102,19.7589L15.71,19.7584L10.279,3.7589230000000002Q10.26023,3.703614,10.23312,3.651878Q10.20601,3.600142,10.17121,3.553227Q10.136420000000001,3.506313,10.09478,3.46535Q10.053139999999999,3.424388,10.00567,3.390366Q9.95819,3.356344,9.90602,3.3300823Q9.85384,3.3038208,9.79823,3.2859532Q9.742619999999999,3.2680856,9.68492,3.25904282Q9.62721,3.25,9.56881,3.25L8.92992,3.25Q8.871500000000001,3.25,8.8138,3.25904386Q8.75609,3.2680877,8.700479999999999,3.2859573Q8.644860000000001,3.303827,8.592690000000001,3.3300914Q8.54052,3.356356,8.49304,3.390382Q8.44556,3.424407,8.40392,3.465374Q8.36228,3.50634,8.327490000000001,3.55326Q8.29269,3.600179,8.26558,3.65192Q8.23847,3.70366,8.2197,3.7589740000000003L2.7897841,19.759Q2.75,19.8762,2.75,20Q2.75,20.0739,2.764411,20.1463Q2.7788221,20.2188,2.8070903,20.287Q2.8353586,20.3553,2.876398,20.4167Q2.917437,20.4781,2.96967,20.5303Q3.021903,20.5826,3.083322,20.6236Q3.144742,20.6646,3.212987,20.6929Q3.281233,20.7212,3.353682,20.7356Q3.426131,20.75,3.5,20.75Q3.558412,20.75,3.616121,20.741Q3.673829,20.7319,3.729441,20.714Q3.78505,20.6962,3.83723,20.6699Q3.8894,20.6436,3.93688,20.6096Q3.9843599999999997,20.5756,4.026,20.5346Q4.06764,20.4937,4.10243,20.4467Q4.13722,20.3998,4.16433,20.3481Q4.19144,20.2963,4.21022,20.241L5.90402,15.25L12.59558,15.25ZM17.75,4L17.75,20Q17.75,20.0739,17.764400000000002,20.1463Q17.7788,20.2188,17.8071,20.287Q17.8354,20.3553,17.8764,20.4167Q17.9174,20.4781,17.9697,20.5303Q18.021900000000002,20.5826,18.0833,20.6236Q18.1447,20.6646,18.213,20.6929Q18.2812,20.7212,18.3537,20.7356Q18.426099999999998,20.75,18.5,20.75Q18.573900000000002,20.75,18.6463,20.7356Q18.7188,20.7212,18.787,20.6929Q18.8553,20.6646,18.9167,20.6236Q18.9781,20.5826,19.0303,20.5303Q19.0826,20.4781,19.1236,20.4167Q19.1646,20.3553,19.1929,20.287Q19.2212,20.2188,19.2356,20.1463Q19.25,20.0739,19.25,20L19.25,4Q19.25,3.926131,19.2356,3.853682Q19.2212,3.781233,19.1929,3.712987Q19.1646,3.644742,19.1236,3.583322Q19.0826,3.521903,19.0303,3.46967Q18.9781,3.417437,18.9167,3.376398Q18.8553,3.3353586,18.787,3.3070903Q18.7188,3.2788221,18.6463,3.264411Q18.573900000000002,3.25,18.5,3.25Q18.426099999999998,3.25,18.3537,3.264411Q18.2812,3.2788221,18.213,3.3070903Q18.1447,3.3353586,18.0833,3.376398Q18.021900000000002,3.417437,17.9697,3.46967Q17.9174,3.521903,17.8764,3.583322Q17.8354,3.644742,17.8071,3.712987Q17.7788,3.781233,17.764400000000002,3.853682Q17.75,3.926131,17.75,4Z" fill-rule="evenodd" fill="url(#master_svg1_83_05875)" fill-opacity="1"/></g></g></svg>