<svg xmlns="http://www.w3.org/2000/svg" xmlns:xlink="http://www.w3.org/1999/xlink" fill="none" version="1.1" width="24" height="24" viewBox="0 0 24 24"><defs><clipPath id="master_svg0_62_07770"><rect x="0" y="0" width="24" height="24" rx="0"/></clipPath></defs><g clip-path="url(#master_svg0_62_07770)"><g><g><path d="M4.25,15.25L4.25,8.75L10.25,8.75L10.25,15.25L4.25,15.25ZM8.75,10.25L5.75,10.25L5.75,13.75L8.75,13.75L8.75,10.25Z" fill-rule="evenodd" fill="#736F78" fill-opacity="1"/></g><g><path d="M9.5,19L14.5,19L14.5,14.5L9.5,14.5L9.5,19Z" fill="#13943C" fill-opacity="0.20000000298023224"/><path d="M8.75,19.75L8.75,13.75L15.25,13.75L15.25,19.75L8.75,19.75ZM13.75,15.25L10.25,15.25L10.25,18.25L13.75,18.25L13.75,15.25Z" fill-rule="evenodd" fill="#13943C" fill-opacity="1"/></g><g><path d="M14.5,14.5L19,14.5L19,9.5L14.5,9.5L14.5,14.5Z" fill="#13943C" fill-opacity="0.20000000298023224"/><path d="M13.75,15.25L13.75,8.75L19.75,8.75L19.75,15.25L13.75,15.25ZM18.25,10.25L15.25,10.25L15.25,13.75L18.25,13.75L18.25,10.25Z" fill-rule="evenodd" fill="#13943C" fill-opacity="1"/></g><g><path d="M14.5,14.5L14.5,19L17.5,19C18.32843,19,19,18.32843,19,17.5L19,14.5L14.5,14.5Z" fill="#13943C" fill-opacity="0.20000000298023224"/><path d="M19.090989999999998,19.090989999999998Q19.75,18.43198,19.75,17.5L19.75,13.75L13.75,13.75L13.75,19.75L17.5,19.75Q18.43198,19.75,19.090989999999998,19.090989999999998ZM18.25,15.25L18.25,17.5Q18.25,17.81066,18.03033,18.03033Q17.81066,18.25,17.5,18.25L15.25,18.25L15.25,15.25L18.25,15.25Z" fill-rule="evenodd" fill="#13943C" fill-opacity="1"/></g><g><path d="M8.75,10.25L8.75,4.25L15.25,4.25L15.25,10.25L8.75,10.25ZM13.75,5.75L10.25,5.75L10.25,8.75L13.75,8.75L13.75,5.75Z" fill-rule="evenodd" fill="#736F78" fill-opacity="1"/></g><g><path d="M9.5,14.5L14.5,14.5L14.5,9.5L9.5,9.5L9.5,14.5Z" fill="#13943C" fill-opacity="0.20000000298023224"/><path d="M8.75,15.25L8.75,8.75L15.25,8.75L15.25,15.25L8.75,15.25ZM13.75,10.25L10.25,10.25L10.25,13.75L13.75,13.75L13.75,10.25Z" fill-rule="evenodd" fill="#13943C" fill-opacity="1"/></g></g><g><path d="M19.091,19.091Q19.75,18.432000000000002,19.75,17.5L19.75,6.5Q19.75,5.568019,19.091,4.9090099Q18.432000000000002,4.25,17.5,4.25L6.5,4.25Q5.56802,4.25,4.9090097,4.9090098Q4.25,5.56802,4.25,6.5L4.25,17.5Q4.25,18.432000000000002,4.9090098,19.091Q5.568021,19.75,6.5,19.75L17.5,19.75Q18.432000000000002,19.75,19.091,19.091ZM18.25,6.5L18.25,17.5Q18.25,18.25,17.5,18.25L6.5,18.25Q5.75,18.25,5.75,17.5L5.75,6.5Q5.75,6.18934,5.96967,5.96967Q6.18934,5.75,6.5,5.75L17.5,5.75Q17.8107,5.75,18.0303,5.96967Q18.25,6.18934,18.25,6.5Z" fill-rule="evenodd" fill="#231F2E" fill-opacity="1"/></g><g><path d="M2.860913,2.860913Q1.25,4.471830000000001,1.25,6.75Q1.25,6.82387,1.264411,6.89632Q1.278822,6.96877,1.30709,7.03701Q1.335359,7.10526,1.376398,7.16668Q1.417437,7.2281,1.46967,7.28033Q1.521903,7.33256,1.583322,7.3736Q1.644742,7.41464,1.712987,7.44291Q1.781233,7.47118,1.853682,7.48559Q1.9261314999999999,7.5,2,7.5Q2.0738685,7.5,2.146318,7.48559Q2.218767,7.47118,2.287013,7.44291Q2.355258,7.41464,2.416678,7.3736Q2.478097,7.33256,2.53033,7.28033Q2.582563,7.2281,2.623602,7.16668Q2.664641,7.10526,2.69291,7.03701Q2.721178,6.96877,2.735589,6.89632Q2.75,6.82387,2.75,6.75Q2.75,5.09315,3.92157,3.92157Q5.09315,2.75,6.75,2.75L7,2.75Q7.07387,2.75,7.14632,2.735589Q7.21877,2.721178,7.28701,2.69291Q7.35526,2.664641,7.41668,2.623602Q7.4781,2.582563,7.53033,2.53033Q7.58256,2.478097,7.6236,2.416678Q7.66464,2.355258,7.69291,2.287013Q7.72118,2.218767,7.73559,2.146318Q7.75,2.0738685,7.75,2Q7.75,1.9261314999999999,7.73559,1.853682Q7.72118,1.781233,7.69291,1.712987Q7.66464,1.644742,7.6236,1.583322Q7.58256,1.521903,7.53033,1.46967Q7.4781,1.417437,7.41668,1.376398Q7.35526,1.335359,7.28701,1.30709Q7.21877,1.278822,7.14632,1.264411Q7.07387,1.25,7,1.25L6.75,1.25Q4.471830000000001,1.25,2.860913,2.860913ZM17,1.25L17.25,1.25Q19.5282,1.25,21.1391,2.860913Q22.75,4.47182,22.75,6.75Q22.75,6.82387,22.7356,6.89632Q22.7212,6.96877,22.6929,7.03701Q22.6646,7.10526,22.6236,7.16668Q22.5826,7.2281,22.5303,7.28033Q22.4781,7.33256,22.4167,7.3736Q22.3553,7.41464,22.287,7.44291Q22.2188,7.47118,22.1463,7.48559Q22.0739,7.5,22,7.5Q21.9261,7.5,21.8537,7.48559Q21.7812,7.47118,21.713,7.44291Q21.6447,7.41464,21.5833,7.3736Q21.5219,7.33256,21.4697,7.28033Q21.4174,7.2281,21.3764,7.16668Q21.3354,7.10526,21.3071,7.03701Q21.2788,6.96877,21.2644,6.89632Q21.25,6.82387,21.25,6.75Q21.25,5.09314,20.0784,3.92157Q18.9069,2.75,17.25,2.75L17,2.75Q16.926099999999998,2.75,16.8537,2.735589Q16.7812,2.721178,16.713,2.69291Q16.6447,2.664641,16.5833,2.623602Q16.521900000000002,2.582563,16.4697,2.53033Q16.4174,2.478097,16.3764,2.416678Q16.3354,2.355258,16.3071,2.287013Q16.2788,2.218767,16.264400000000002,2.146318Q16.25,2.0738685,16.25,2Q16.25,1.9261314999999999,16.264400000000002,1.853682Q16.2788,1.781233,16.3071,1.712987Q16.3354,1.644742,16.3764,1.583322Q16.4174,1.521903,16.4697,1.46967Q16.521900000000002,1.417437,16.5833,1.376398Q16.6447,1.335359,16.713,1.30709Q16.7812,1.278822,16.8537,1.264411Q16.926099999999998,1.25,17,1.25ZM1.25,17.25Q1.25,17.176099999999998,1.264411,17.1037Q1.278822,17.0312,1.30709,16.963Q1.335359,16.8947,1.376398,16.8333Q1.417437,16.771900000000002,1.46967,16.7197Q1.521903,16.6674,1.583322,16.6264Q1.644742,16.5854,1.712987,16.5571Q1.781233,16.5288,1.853682,16.514400000000002Q1.9261314999999999,16.5,2,16.5Q2.0738685,16.5,2.146318,16.514400000000002Q2.218767,16.5288,2.287013,16.5571Q2.355258,16.5854,2.416678,16.6264Q2.478097,16.6674,2.53033,16.7197Q2.582563,16.771900000000002,2.623602,16.8333Q2.664641,16.8947,2.69291,16.963Q2.721178,17.0312,2.735589,17.1037Q2.75,17.176099999999998,2.75,17.25Q2.75,18.9069,3.92157,20.0784Q5.09315,21.25,6.75,21.25L7,21.25Q7.07387,21.25,7.14632,21.2644Q7.21877,21.2788,7.28701,21.3071Q7.35526,21.3354,7.41668,21.3764Q7.4781,21.4174,7.53033,21.4697Q7.58256,21.5219,7.6236,21.5833Q7.66464,21.6447,7.69291,21.713Q7.72118,21.7812,7.73559,21.8537Q7.75,21.9261,7.75,22Q7.75,22.0739,7.73559,22.1463Q7.72118,22.2188,7.69291,22.287Q7.66464,22.3553,7.6236,22.4167Q7.58256,22.4781,7.53033,22.5303Q7.4781,22.5826,7.41668,22.6236Q7.35526,22.6646,7.28701,22.6929Q7.21877,22.7212,7.14632,22.7356Q7.07387,22.75,7,22.75L6.75,22.75Q4.47182,22.75,2.860913,21.1391Q1.250318,19.5285,1.2500010000000001,17.2509L1.25,17.25L1.25,17.25ZM21.25,17.25Q21.25,17.176099999999998,21.2644,17.1037Q21.2788,17.0312,21.3071,16.963Q21.3354,16.8947,21.3764,16.8333Q21.4174,16.771900000000002,21.4697,16.7197Q21.5219,16.6674,21.5833,16.6264Q21.6447,16.5854,21.713,16.5571Q21.7812,16.5288,21.8537,16.514400000000002Q21.9261,16.5,22,16.5Q22.0739,16.5,22.1463,16.514400000000002Q22.2188,16.5288,22.287,16.5571Q22.3553,16.5854,22.4167,16.6264Q22.4781,16.6674,22.5303,16.7197Q22.5826,16.771900000000002,22.6236,16.8333Q22.6646,16.8947,22.6929,16.963Q22.7212,17.0312,22.7356,17.1037Q22.75,17.176099999999998,22.75,17.25Q22.75,19.5282,21.1391,21.1391Q19.5282,22.75,17.25,22.75L17,22.75Q16.926099999999998,22.75,16.8537,22.7356Q16.7812,22.7212,16.713,22.6929Q16.6447,22.6646,16.5833,22.6236Q16.521900000000002,22.5826,16.4697,22.5303Q16.4174,22.4781,16.3764,22.4167Q16.3354,22.3553,16.3071,22.287Q16.2788,22.2188,16.264400000000002,22.1463Q16.25,22.0739,16.25,22Q16.25,21.9261,16.264400000000002,21.8537Q16.2788,21.7812,16.3071,21.713Q16.3354,21.6447,16.3764,21.5833Q16.4174,21.5219,16.4697,21.4697Q16.521900000000002,21.4174,16.5833,21.3764Q16.6447,21.3354,16.713,21.3071Q16.7812,21.2788,16.8537,21.2644Q16.926099999999998,21.25,17,21.25L17.25,21.25Q18.9069,21.25,20.0784,20.0784Q21.25,18.9069,21.25,17.25Z" fill-rule="evenodd" fill="#13943C" fill-opacity="1"/></g><g><g><path d="M14.25,16.726247L14.25,21.27375Q14.25,22.04438,14.7671,22.61576Q15.284187,23.18714,16.0509927,23.26383L20.55099,23.71383Q21.43402,23.80213,22.092010000000002,23.20666Q22.75,22.61118,22.75,21.72375L22.75,16.276247Q22.75,15.388814,22.092010000000002,14.79334Q21.43402,14.19787,20.55099,14.28617L16.0509924,14.73617Q15.284189,14.812850000000001,14.76709,15.384237Q14.25,15.9556201,14.25,16.726247ZM17.75,19.91627L19.25,20.06627L19.25,17.93373L17.75,18.08373L17.75,19.91627Z" fill-rule="evenodd" fill="#FFFFFF" fill-opacity="1"/></g><g><path d="M16,21.27375C16,21.40219,16.0973236,21.50973,16.225124,21.52251L20.72512,21.97251C20.8723,21.98723,21,21.87166,21,21.72375L21,16.276247C21,16.128341,20.8723,16.0127704,20.72512,16.0274876L16.225124,16.477488C16.0973236,16.490268,16,16.597809,16,16.726247L16,21.27375Z" fill="#13943C" fill-opacity="1"/><path d="M15.25,16.726247L15.25,21.27375Q15.25,21.65907,15.508548,21.94476Q15.767094,22.23045,16.150496,22.26879L20.6505,22.71879Q21.092010000000002,22.76294,21.42101,22.46521Q21.75,22.16747,21.75,21.72375L21.75,16.276247Q21.75,15.83253,21.42101,15.534794Q21.092010000000002,15.237058,20.6505,15.28121L16.150496,15.73121Q15.767095,15.76955,15.508547,16.0552417Q15.25,16.340933,15.25,16.726247ZM16.75,20.82126L20.25,21.17126L20.25,16.828741L16.75,17.17874L16.75,20.82126Z" fill-rule="evenodd" fill="#13943C" fill-opacity="1"/></g><g><path d="M17.083975,17.77735Q17,17.651388,17,17.5Q17,17.4507543,17.009607,17.4024549Q17.019215,17.354155,17.03806,17.308658Q17.056906,17.263161,17.084265,17.222215Q17.111625,17.181269,17.146447,17.146447Q17.181269,17.111625,17.222215,17.084265Q17.263161,17.056906,17.308658,17.03806Q17.354155,17.019215,17.4024549,17.009607Q17.4507543,17,17.5,17Q17.5617355,17,17.621617,17.015016Q17.681498,17.030032,17.735929,17.059163Q17.79036,17.088293,17.83607,17.129788Q17.88178,17.171283,17.916025,17.22265L19.91603,20.22265Q20,20.34861,20,20.5Q20,20.54925,19.99039,20.59754Q19.98078,20.64584,19.96194,20.69134Q19.94309,20.73684,19.91573,20.77778Q19.88838,20.81873,19.85355,20.85355Q19.81873,20.888370000000002,19.77779,20.91573Q19.73684,20.94309,19.69134,20.96194Q19.64584,20.98078,19.59754,20.99039Q19.54925,21,19.5,21Q19.43826,21,19.37838,20.98498Q19.3185,20.96997,19.26407,20.94084Q19.20964,20.91171,19.16393,20.87021Q19.11822,20.82872,19.08397,20.77735L17.083975,17.77735Z" fill-rule="evenodd" fill="#FFFFFF" fill-opacity="1"/></g><g><path d="M19.91603,17.77735Q20,17.651388,20,17.5Q20,17.4507543,19.99039,17.4024549Q19.98078,17.354155,19.96194,17.308658Q19.94309,17.263161,19.91573,17.222215Q19.88838,17.181269,19.85355,17.146447Q19.81873,17.111625,19.77779,17.084265Q19.73684,17.056906,19.69134,17.03806Q19.64584,17.019215,19.59754,17.009607Q19.54925,17,19.5,17Q19.43826,17,19.37838,17.015016Q19.3185,17.030032,19.26407,17.059163Q19.20964,17.088293,19.16393,17.129788Q19.11822,17.171283,19.08397,17.22265L17.083975,20.22265Q17,20.34861,17,20.5Q17,20.54925,17.009607,20.59754Q17.019215,20.64584,17.03806,20.69134Q17.056906,20.73684,17.084265,20.77778Q17.111625,20.81873,17.146447,20.85355Q17.181269,20.888370000000002,17.222215,20.91573Q17.263161,20.94309,17.308658,20.96194Q17.354155,20.98078,17.4024549,20.99039Q17.4507543,21,17.5,21Q17.5617355,21,17.621617,20.98498Q17.681498,20.96997,17.735929,20.94084Q17.79036,20.91171,17.83607,20.87021Q17.88178,20.82872,17.916025,20.77735L19.91603,17.77735Z" fill-rule="evenodd" fill="#FFFFFF" fill-opacity="1"/></g></g></g></svg>