<svg xmlns="http://www.w3.org/2000/svg" xmlns:xlink="http://www.w3.org/1999/xlink" fill="none" version="1.1" width="24" height="24" viewBox="0 0 24 24"><defs><clipPath id="master_svg0_72_02072"><rect x="0" y="0" width="24" height="24" rx="0"/></clipPath></defs><g clip-path="url(#master_svg0_72_02072)"><g><g><path d="M21.249997966308594,8Q21.249997966308594,7.9261315,21.264407966308593,7.853682Q21.278817966308594,7.781233,21.307087966308593,7.712987Q21.335357966308592,7.644742,21.376397966308595,7.583322Q21.417437966308594,7.521903,21.469667966308595,7.46967Q21.521907966308593,7.417437,21.583327966308595,7.376398Q21.644737966308593,7.335359,21.712987966308592,7.30709Q21.781237966308595,7.278822,21.853677966308595,7.264411Q21.926127966308595,7.25,21.999997966308594,7.25Q22.073867966308594,7.25,22.146317966308594,7.264411Q22.218767966308594,7.278822,22.287017966308593,7.30709Q22.355257966308592,7.335359,22.416677966308594,7.376398Q22.478097966308592,7.417437,22.530327966308594,7.46967Q22.582567966308595,7.521903,22.623597966308594,7.583322Q22.664637966308593,7.644742,22.692907966308596,7.712987Q22.721177966308595,7.781233,22.735587966308593,7.853682Q22.749997966308594,7.9261315,22.749997966308594,8L22.749997966308594,16Q22.749997966308594,16.07387,22.735587966308593,16.14632Q22.721177966308595,16.21877,22.692907966308596,16.287010000000002Q22.664637966308593,16.35526,22.623597966308594,16.41668Q22.582567966308595,16.478099999999998,22.530327966308594,16.53033Q22.478097966308592,16.58256,22.416677966308594,16.6236Q22.355257966308592,16.66464,22.287017966308593,16.692909999999998Q22.218767966308594,16.72118,22.146317966308594,16.735590000000002Q22.073867966308594,16.75,21.999997966308594,16.75Q21.941657966308593,16.75,21.884007966308594,16.74098Q21.826357966308592,16.731949999999998,21.770807966308595,16.71412Q21.715247966308596,16.696289999999998,21.663117966308594,16.67008Q21.610987966308592,16.64388,21.563537966308594,16.609920000000002Q21.516087966308593,16.575969999999998,21.474467966308595,16.53508Q21.432837966308593,16.4942,21.398027966308593,16.44736Q21.363227966308592,16.40053,21.336087966308593,16.34888Q21.308947966308594,16.29723,21.290117966308593,16.24201L20.022727966308594,12.524329999999999L20.022727966308594,16Q20.022727966308594,16.07387,20.008316966308595,16.14632Q19.993905966308592,16.21877,19.965637966308595,16.287010000000002Q19.937368966308593,16.35526,19.896329966308592,16.41668Q19.855290966308594,16.478099999999998,19.803057966308593,16.53033Q19.750824966308592,16.58256,19.689405966308595,16.6236Q19.627985966308593,16.66464,19.559740966308595,16.692909999999998Q19.491494966308593,16.72118,19.419045966308595,16.735590000000002Q19.346596466308593,16.75,19.272727966308594,16.75Q19.198859466308594,16.75,19.126409966308593,16.735590000000002Q19.053960966308594,16.72118,18.985714966308592,16.692909999999998Q18.917469966308595,16.66464,18.856049966308593,16.6236Q18.794630966308596,16.58256,18.742397966308594,16.53033Q18.690164966308593,16.478099999999998,18.649125966308596,16.41668Q18.608086966308594,16.35526,18.579817966308593,16.287010000000002Q18.551549966308595,16.21877,18.537138966308593,16.14632Q18.522727966308594,16.07387,18.522727966308594,16L18.522727966308594,8Q18.522727966308594,7.9416526,18.531751966308594,7.884007Q18.540775966308594,7.826362,18.558605966308594,7.770805Q18.576436966308595,7.715249,18.602644966308596,7.663119Q18.628852966308592,7.610989,18.662807966308595,7.5635390000000005Q18.696762966308594,7.51609,18.737648966308594,7.474462Q18.778533966308594,7.432835,18.825364966308594,7.398032Q18.872195966308595,7.363228,18.923845966308594,7.336086Q18.975495966308593,7.308945,19.030722966308595,7.290117Q19.100639966308595,7.266282,19.173863866308594,7.256545Q19.247087766308592,7.246807,19.320804366308593,7.251543Q19.394520966308594,7.256278,19.465896966308595,7.275303Q19.537273966308593,7.294329,19.603566966308595,7.326914Q19.669859966308593,7.359498,19.728522966308592,7.40439Q19.787184966308594,7.449282,19.835962966308593,7.504756Q19.884739966308594,7.56023,19.921756966308592,7.624153Q19.958774966308592,7.688077,19.982610966308595,7.757995L21.249997966308594,11.475670000000001L21.249997966308594,8Z" fill-rule="evenodd" fill="#231F2E" fill-opacity="1"/></g><g><path d="M12.886668995788574,8.0812818Q12.159090995788574,8.881618,12.159090995788574,10L12.159090995788574,14Q12.159090995788574,15.11838,12.886669195788574,15.91872Q13.642378995788574,16.75,14.727270995788574,16.75Q15.812160995788574,16.75,16.567880995788574,15.91872Q17.295450995788574,15.11838,17.295450995788574,14L17.295450995788574,10Q17.295450995788574,8.881617,16.567880995788574,8.0812819Q15.812160995788574,7.25,14.727270995788574,7.25Q13.642379995788573,7.25,12.886668995788574,8.0812818ZM13.659090995788574,14L13.659090995788574,10Q13.659090995788574,9.46153,13.996580995788575,9.09029Q14.305930995788575,8.75,14.727270995788574,8.75Q15.148610995788575,8.75,15.457970995788575,9.09029Q15.795450995788574,9.46153,15.795450995788574,10L15.795450995788574,14Q15.795450995788574,14.53847,15.457970995788575,14.90971Q15.148610995788575,15.25,14.727270995788574,15.25Q14.305930995788575,15.25,13.996580995788575,14.90971Q13.659090995788574,14.53847,13.659090995788574,14Z" fill-rule="evenodd" fill="#231F2E" fill-opacity="1"/></g><g><path d="M2.75,14.5L2.75,14Q2.75,13.92613,2.735589,13.85368Q2.721178,13.78123,2.69291,13.71299Q2.664641,13.644739999999999,2.623602,13.58332Q2.582563,13.521899999999999,2.53033,13.46967Q2.478097,13.41744,2.416678,13.3764Q2.355258,13.33536,2.287013,13.307089999999999Q2.218767,13.27882,2.146318,13.26441Q2.0738685,13.25,2,13.25Q1.9261314999999999,13.25,1.853682,13.26441Q1.781233,13.27882,1.712987,13.307089999999999Q1.644742,13.33536,1.583322,13.3764Q1.521903,13.41744,1.46967,13.46967Q1.417437,13.521899999999999,1.376398,13.58332Q1.335359,13.644739999999999,1.30709,13.71299Q1.278822,13.78123,1.264411,13.85368Q1.25,13.92613,1.25,14L1.25,14.5Q1.25,15.41128,1.844445,16.065170000000002Q2.467022,16.75,3.36364,16.75Q4.26025,16.75,4.88283,16.06516Q5.47727,15.41128,5.47727,14.5L5.47727,8Q5.47727,7.9261315,5.46286,7.853682Q5.448449999999999,7.781233,5.42018,7.712987Q5.39191,7.644742,5.3508700000000005,7.583322Q5.3098399999999994,7.521903,5.2576,7.46967Q5.20537,7.417437,5.14395,7.376398Q5.08253,7.335359,5.01429,7.30709Q4.94604,7.278822,4.87359,7.264411Q4.80114,7.25,4.72727,7.25L2,7.25Q1.9261314999999999,7.25,1.853682,7.264411Q1.781233,7.278822,1.712987,7.30709Q1.644742,7.335359,1.583322,7.376398Q1.521903,7.417437,1.46967,7.46967Q1.417437,7.521903,1.376398,7.583322Q1.335359,7.644742,1.30709,7.712987Q1.278822,7.781233,1.264411,7.853682Q1.25,7.9261315,1.25,8Q1.25,8.0738685,1.264411,8.146318Q1.278822,8.218767,1.30709,8.287013Q1.335359,8.355258,1.376398,8.416678Q1.417437,8.478097,1.46967,8.53033Q1.521903,8.582563,1.583322,8.623602Q1.644742,8.664641,1.712987,8.69291Q1.781233,8.721178,1.853682,8.735589000000001Q1.9261314999999999,8.75,2,8.75L3.97727,8.75L3.97727,14.5Q3.97727,14.83137,3.77292,15.05616Q3.5967000000000002,15.25,3.36364,15.25Q3.13058,15.25,2.954355,15.05616Q2.75,14.83136,2.75,14.5Z" fill-rule="evenodd" fill="#231F2E" fill-opacity="1"/></g><g><path d="M9.360595497894288,8.797398Q9.431815497894288,8.875741,9.431815497894288,9Q9.431815497894288,9.07387,9.446225497894288,9.14632Q9.460635497894287,9.21877,9.488905497894287,9.28701Q9.517175497894288,9.35526,9.558215497894288,9.41668Q9.599255497894287,9.4781,9.651485497894287,9.53033Q9.703725497894286,9.58256,9.765145497894288,9.6236Q9.826555497894287,9.66464,9.894805497894287,9.69291Q9.963055497894286,9.72118,10.035495497894287,9.73559Q10.107945497894287,9.75,10.181815497894288,9.75Q10.255685497894287,9.75,10.328135497894287,9.73559Q10.400585497894287,9.72118,10.468835497894286,9.69291Q10.537075497894287,9.66464,10.598495497894287,9.6236Q10.659915497894287,9.58256,10.712145497894287,9.53033Q10.764385497894287,9.4781,10.805415497894288,9.41668Q10.846455497894286,9.35526,10.874725497894287,9.28701Q10.902995497894286,9.21877,10.917405497894286,9.14632Q10.931815497894288,9.07387,10.931815497894288,9Q10.931815497894288,8.295831,10.470505497894287,7.788388Q9.981065497894287,7.25,9.272725497894287,7.25L8.363636497894287,7.25Q7.655301497894287,7.25,7.1658574978942875,7.788388Q6.704545497894287,8.295831,6.704545497894287,9L6.704545497894287,11Q6.704545497894287,11.70417,7.1658574978942875,12.21161Q7.655301497894287,12.75,8.363636497894287,12.75L9.272725497894287,12.75Q9.317505497894286,12.75,9.360595497894288,12.7974Q9.431815497894288,12.87574,9.431815497894288,13L9.431815497894288,15Q9.431815497894288,15.12426,9.360595497894288,15.2026Q9.317505497894286,15.25,9.272725497894287,15.25L8.363636497894287,15.25Q8.318855497894287,15.25,8.275767497894288,15.2026Q8.204545497894287,15.12426,8.204545497894287,15Q8.204545497894287,14.92613,8.190134497894288,14.85368Q8.175723497894287,14.78123,8.147455497894287,14.71299Q8.119186497894287,14.644739999999999,8.078147497894287,14.58332Q8.037108497894287,14.521899999999999,7.984875497894287,14.46967Q7.932642497894287,14.41744,7.871223497894287,14.3764Q7.809803497894287,14.33536,7.741558497894287,14.307089999999999Q7.673312497894287,14.27882,7.600863497894287,14.26441Q7.528413997894287,14.25,7.454545497894287,14.25Q7.380676997894287,14.25,7.308227497894287,14.26441Q7.235778497894287,14.27882,7.167532497894287,14.307089999999999Q7.099287497894287,14.33536,7.037867497894287,14.3764Q6.976448497894287,14.41744,6.924215497894287,14.46967Q6.871982497894287,14.521899999999999,6.830943497894287,14.58332Q6.7899044978942875,14.644739999999999,6.761635497894287,14.71299Q6.733367497894287,14.78123,6.718956497894287,14.85368Q6.704545497894287,14.92613,6.704545497894287,15Q6.704545497894287,15.704170000000001,7.1658574978942875,16.21161Q7.655301497894287,16.75,8.363636497894287,16.75L9.272725497894287,16.75Q9.981065497894287,16.75,10.470505497894287,16.21161Q10.931815497894288,15.704170000000001,10.931815497894288,15L10.931815497894288,13Q10.931815497894288,12.295829999999999,10.470505497894287,11.78839Q9.981065497894287,11.25,9.272725497894287,11.25L8.363636497894287,11.25Q8.318856497894288,11.25,8.275767497894288,11.2026Q8.204545497894287,11.12426,8.204545497894287,11L8.204545497894287,9Q8.204545497894287,8.875741,8.275767497894288,8.797398Q8.318855497894287,8.75,8.363636497894287,8.75L9.272725497894287,8.75Q9.317505497894286,8.75,9.360595497894288,8.797398Z" fill-rule="evenodd" fill="#231F2E" fill-opacity="1"/></g></g><g><g><path d="M21.6272620703125,15.515717Q20.3615420703125,14.25,18.5715520703125,14.25Q16.7815560703125,14.25,15.5158390703125,15.515717Q14.2501220703125,16.781434,14.2501220703125,18.57143Q14.2501220703125,20.36142,15.5158390703125,21.62714Q16.7815560703125,22.89286,18.5715520703125,22.89286Q20.3615420703125,22.89286,21.6272620703125,21.62714Q22.8929820703125,20.36142,22.8929820703125,18.57143Q22.8929820703125,16.781434,21.6272620703125,15.515717ZM17.9907120703125,17.99059Q18.231302070312502,17.75,18.5715520703125,17.75Q18.9118020703125,17.75,19.1523920703125,17.99059Q19.3929820703125,18.231180000000002,19.3929820703125,18.57143Q19.3929820703125,18.91168,19.1523920703125,19.15227Q18.9118020703125,19.39286,18.5715520703125,19.39286Q18.231302070312502,19.39286,17.9907120703125,19.15227Q17.7501220703125,18.91168,17.7501220703125,18.57143Q17.7501220703125,18.231180000000002,17.9907120703125,17.99059Z" fill-rule="evenodd" fill="#FFFFFF" fill-opacity="1"/></g><g><path d="M19.2201933203125,21.6950633203125L19.2197133203125,21.6945933203125Q19.0978433203125,21.5727133203125,19.0020833203125,21.4294013203125Q18.9063233203125,21.2860893203125,18.8403633203125,21.1268493203125Q18.7744033203125,20.9676093203125,18.7407833203125,20.7985613203125Q18.7071533203125,20.6295133203125,18.7071533203125,20.4571533203125Q18.7071533203125,20.3711813203125,18.7155833203125,20.2856233203125Q18.7240033203125,20.2000653203125,18.7407833203125,20.1157453203125Q18.7575533203125,20.0314253203125,18.7825033203125,19.9491553203125Q18.8074633203125,19.866885320312498,18.8403633203125,19.7874573203125Q18.8732633203125,19.7080293203125,18.9137933203125,19.6322093203125Q18.9543133203125,19.5563883203125,19.0020833203125,19.4849053203125Q19.0498433203125,19.4134233203125,19.1043833203125,19.3469633203125Q19.1589233203125,19.2805033203125,19.2197133203125,19.2197133203125Q19.2805033203125,19.1589233203125,19.3469633203125,19.1043833203125Q19.4134233203125,19.0498433203125,19.4849053203125,19.0020833203125Q19.5563883203125,18.9543133203125,19.6322093203125,18.9137933203125Q19.7080293203125,18.8732633203125,19.7874573203125,18.8403633203125Q19.866885320312498,18.8074633203125,19.9491553203125,18.7825033203125Q20.0314253203125,18.7575533203125,20.1157453203125,18.7407833203125Q20.2000653203125,18.7240033203125,20.2856233203125,18.7155833203125Q20.3711813203125,18.7071533203125,20.4571533203125,18.7071533203125Q20.6295133203125,18.7071533203125,20.7985613203125,18.7407833203125Q20.9676093203125,18.7744033203125,21.1268493203125,18.8403633203125Q21.2860893203125,18.9063233203125,21.4294013203125,19.0020833203125Q21.5727133203125,19.0978433203125,21.6945933203125,19.2197133203125L21.6950633203125,19.2201933203125L23.2371633203125,20.7622893203125L23.2374433203125,20.7625733203125Q23.359323320312498,20.8844493203125,23.4550833203125,21.0277613203125Q23.5508433203125,21.1710743203125,23.6168033203125,21.3303133203125Q23.6827533203125,21.4895533203125,23.7163833203125,21.6586033203125Q23.7500133203125,21.8276533203125,23.7500133203125,22.0000133203125Q23.7500133203125,22.0859833203125,23.7415833203125,22.1715433203125Q23.7331533203125,22.2570933203125,23.7163833203125,22.3414133203125Q23.6996133203125,22.4257333203125,23.6746533203125,22.5080033203125Q23.6497033203125,22.590273320312498,23.6168033203125,22.6697033203125Q23.5839033203125,22.7491333203125,23.5433733203125,22.8249533203125Q23.5028433203125,22.9007733203125,23.4550833203125,22.9722533203125Q23.4073133203125,23.0437433203125,23.3527733203125,23.1101933203125Q23.298233320312498,23.1766533203125,23.2374433203125,23.2374433203125Q23.1766533203125,23.298233320312498,23.1101933203125,23.3527733203125Q23.0437433203125,23.4073133203125,22.9722533203125,23.4550833203125Q22.9007733203125,23.5028433203125,22.8249533203125,23.5433733203125Q22.7491333203125,23.5839033203125,22.6697033203125,23.6168033203125Q22.590273320312498,23.6497033203125,22.5080033203125,23.6746533203125Q22.4257333203125,23.6996133203125,22.3414133203125,23.7163833203125Q22.2570933203125,23.7331533203125,22.1715433203125,23.7415833203125Q22.0859833203125,23.7500133203125,22.0000133203125,23.7500133203125Q21.8276533203125,23.7500133203125,21.6586033203125,23.7163833203125Q21.4895533203125,23.6827533203125,21.3303133203125,23.6168033203125Q21.1710743203125,23.5508433203125,21.0277613203125,23.4550833203125Q20.8844493203125,23.359323320312498,20.7625733203125,23.2374433203125L20.7622893203125,23.2371633203125L19.2201933203125,21.6950633203125Z" fill-rule="evenodd" fill="#FFFFFF" fill-opacity="1"/></g></g><g><g><path d="M20.9201520703125,16.222824Q19.9473320703125,15.25,18.5715520703125,15.25Q17.1957720703125,15.25,16.2229460703125,16.222824Q15.2501220703125,17.19565,15.2501220703125,18.57143Q15.2501220703125,19.94721,16.2229460703125,20.92003Q17.1957720703125,21.89286,18.5715520703125,21.89286Q19.9473320703125,21.89286,20.9201520703125,20.92003Q21.8929820703125,19.94721,21.8929820703125,18.57143Q21.8929820703125,17.19565,20.9201520703125,16.222824ZM17.2836020703125,17.28348Q17.8170920703125,16.75,18.5715520703125,16.75Q19.3260120703125,16.75,19.8594920703125,17.28348Q20.3929820703125,17.81697,20.3929820703125,18.57143Q20.3929820703125,19.32589,19.8594920703125,19.85937Q19.3260120703125,20.39286,18.5715520703125,20.39286Q17.8170920703125,20.39286,17.2836020703125,19.85937Q16.7501220703125,19.32589,16.7501220703125,18.57143Q16.7501220703125,17.81697,17.2836020703125,17.28348Z" fill-rule="evenodd" fill="#2882FF" fill-opacity="1"/></g><g><path d="M20.9876373203125,19.9269773203125L22.5301833203125,21.4695233203125L22.5303433203125,21.469683320312498Q22.6358333203125,21.5751733203125,22.6929233203125,21.7129933203125Q22.7500133203125,21.8508233203125,22.7500133203125,22.0000133203125Q22.7500133203125,22.0738733203125,22.7356033203125,22.1463233203125Q22.721183320312498,22.2187733203125,22.6929233203125,22.2870233203125Q22.6646533203125,22.3552633203125,22.6236133203125,22.4166833203125Q22.5825733203125,22.4781033203125,22.5303433203125,22.5303433203125Q22.4781033203125,22.5825733203125,22.4166833203125,22.6236133203125Q22.3552633203125,22.6646533203125,22.2870233203125,22.6929233203125Q22.2187733203125,22.721183320312498,22.1463233203125,22.7356033203125Q22.0738733203125,22.7500133203125,22.0000133203125,22.7500133203125Q21.8508233203125,22.7500133203125,21.7129933203125,22.6929233203125Q21.5751733203125,22.6358333203125,21.469683320312498,22.5303433203125L21.4695233203125,22.5301833203125L19.9269773203125,20.9876373203125L19.9268233203125,20.9874833203125Q19.8213343203125,20.8819943203125,19.7642433203125,20.7441663203125Q19.7071533203125,20.6063373203125,19.7071533203125,20.4571533203125Q19.7071533203125,20.3832848203125,19.7215643203125,20.3108353203125Q19.7359753203125,20.2383863203125,19.7642433203125,20.1701403203125Q19.7925123203125,20.1018953203125,19.833551320312502,20.0404753203125Q19.8745903203125,19.979056320312502,19.9268233203125,19.9268233203125Q19.979056320312502,19.8745903203125,20.0404753203125,19.833551320312502Q20.1018953203125,19.7925123203125,20.1701403203125,19.7642433203125Q20.2383863203125,19.7359753203125,20.3108353203125,19.7215643203125Q20.3832848203125,19.7071533203125,20.4571533203125,19.7071533203125Q20.6063373203125,19.7071533203125,20.7441663203125,19.7642433203125Q20.8819943203125,19.8213343203125,20.9874833203125,19.9268233203125L20.9876373203125,19.9269773203125Z" fill-rule="evenodd" fill="#2882FF" fill-opacity="1"/></g></g></g></svg>