<svg xmlns="http://www.w3.org/2000/svg" xmlns:xlink="http://www.w3.org/1999/xlink" fill="none" version="1.1" width="24" height="24" viewBox="0 0 24 24"><defs><clipPath id="master_svg0_78_01999"><rect x="0" y="0" width="24" height="24" rx="0"/></clipPath></defs><g clip-path="url(#master_svg0_78_01999)"><g><path d="M10.469673164062499,11.530329786376953L15.4696431640625,16.530329786376953Q15.5751431640625,16.635819786376953,15.7129431640625,16.69290978637695Q15.8508431640625,16.749999786376954,16.0000431640625,16.749999786376954Q16.073843164062502,16.749999786376954,16.1463431640625,16.735589786376952Q16.218743164062502,16.721179786376954,16.2870431640625,16.69290978637695Q16.3552431640625,16.664639786376952,16.4166431640625,16.623599786376953Q16.4781431640625,16.582559786376954,16.5303431640625,16.530329786376953Q16.5825431640625,16.47809978637695,16.6236431640625,16.416679786376953Q16.6646431640625,16.355259786376955,16.6929431640625,16.287009786376952Q16.7211431640625,16.218769786376953,16.7355431640625,16.146319786376953Q16.7500431640625,16.073869786376953,16.7500431640625,15.999999786376954Q16.7500431640625,15.850819786376952,16.6929431640625,15.712989786376953Q16.6358431640625,15.575159786376954,16.5303431640625,15.469669786376954L11.5303331640625,10.469669786376953Q10.6062531640625,9.580249786376953,9.5000031640625,9.580249786376953Q8.393753164062499,9.580249786376953,7.4799631640625,10.459576786376953L2.0064131640625,15.932909786376953Q1.9009241640624999,16.038399786376953,1.8438341640625,16.176229786376954Q1.7867431640625,16.31405978637695,1.7867431640625,16.463249786376952Q1.7867431640625,16.537109786376952,1.8011541640625,16.609559786376952Q1.8155651640625,16.682009786376952,1.8438331640625,16.750259786376954Q1.8721021640625,16.818499786376954,1.9131411640625,16.879919786376952Q1.9541801640625,16.941339786376954,2.0064131640625,16.993579786376955Q2.0586461640625,17.045809786376953,2.1200651640625,17.086849786376952Q2.1814851640625,17.127889786376954,2.2497301640625,17.156149786376954Q2.3179761640625,17.184419786376953,2.3904251640625,17.198829786376955Q2.4628746640625,17.213249786376952,2.5367431640625,17.213249786376952Q2.6859271640625,17.213249786376952,2.8237551640625,17.156149786376954Q2.9615831640625,17.099059786376955,3.0670721640625,16.993579786376955L8.5200431640625,11.540419786376953Q9.5000031640625,10.597422786376953,10.469673164062499,11.530329786376953Z" fill-rule="evenodd" fill="#2882FF" fill-opacity="1"/></g><g><path d="M17.46967,13.530329786376953L20.93976,17.000409786376952Q21.04525,17.105899786376952,21.18308,17.162989786376954Q21.320909999999998,17.220079786376953,21.47009,17.220079786376953Q21.54396,17.220079786376953,21.616410000000002,17.20566978637695Q21.68886,17.191259786376953,21.7571,17.162989786376954Q21.82535,17.134719786376955,21.88677,17.093679786376953Q21.94819,17.052639786376954,22.00042,17.000409786376952Q22.05266,16.948179786376954,22.093690000000002,16.886759786376953Q22.134729999999998,16.825339786376954,22.163,16.75708978637695Q22.19127,16.688849786376952,22.20568,16.616399786376952Q22.22009,16.543949786376952,22.22009,16.470079786376953Q22.22009,16.320899786376952,22.163,16.183069786376954Q22.10591,16.045239786376953,22.00042,15.939749786376954L21.9999,15.939219786376952L18.53033,12.469668786376953Q17.60625,11.580249786376953,16.5,11.580249786376953Q15.39375,11.580250786376952,14.479959000000001,12.459576786376953L13.469884,13.469459786376953L13.46967,13.469669786376953Q13.364181,13.575159786376954,13.30709,13.712989786376953Q13.25,13.850819786376952,13.25,13.999999786376954Q13.25,14.073869786376953,13.264410999999999,14.146319786376953Q13.278822,14.218769786376953,13.30709,14.287009786376952Q13.335359,14.355259786376953,13.376398,14.416679786376953Q13.417437,14.478099786376953,13.46967,14.530329786376953Q13.521903,14.582559786376953,13.583322,14.623599786376953Q13.644742,14.664639786376952,13.712987,14.692909786376953Q13.781233,14.721179786376954,13.853682,14.735589786376952Q13.9261315,14.749999786376954,14,14.749999786376954Q14.149184,14.749999786376954,14.287013,14.692909786376953Q14.424841,14.635819786376953,14.53033,14.530329786376953L14.530682,14.529979786376954L15.52004,13.540419786376953Q16.5,12.597423786376954,17.46967,13.530329786376953Z" fill-rule="evenodd" fill="#2882FF" fill-opacity="1"/></g><g><ellipse cx="15" cy="8" rx="1" ry="1" fill="#2882FF" fill-opacity="1"/></g><g><path d="M21.4445,20.4445Q22.25,19.6391,22.25,18.5L22.25,5.5Q22.25,4.360912,21.4445,3.5554565Q20.6391,2.75,19.5,2.75L4.5,2.75Q3.360913,2.75,2.5554564,3.5554564Q1.75,4.360913,1.75,5.5L1.75,18.5Q1.75,19.6391,2.5554565,20.4445Q3.360912,21.25,4.5,21.25L19.5,21.25Q20.6391,21.25,21.4445,20.4445ZM20.75,5.5L20.75,18.5Q20.75,19.75,19.5,19.75L4.5,19.75Q3.25,19.75,3.25,18.5L3.25,5.5Q3.25,4.25,4.5,4.25L19.5,4.25Q20.75,4.25,20.75,5.5Z" fill-rule="evenodd" fill="#231F2E" fill-opacity="1"/></g></g></svg>