<svg xmlns="http://www.w3.org/2000/svg" xmlns:xlink="http://www.w3.org/1999/xlink" fill="none" version="1.1" width="24" height="24" viewBox="0 0 24 24"><defs><clipPath id="master_svg0_62_09051"><rect x="0" y="0" width="24" height="24" rx="0"/></clipPath></defs><g clip-path="url(#master_svg0_62_09051)"><g><g><path d="M1.75,13.25L1.75,7.75L9.25,7.75L9.25,13.25L1.75,13.25ZM7.75,9.25L3.25,9.25L3.25,11.75L7.75,11.75L7.75,9.25Z" fill-rule="evenodd" fill="#736F78" fill-opacity="1"/></g><g><path d="M7.75,17.25L7.75,11.75L15.25,11.75L15.25,17.25L7.75,17.25ZM13.75,13.25L9.25,13.25L9.25,15.75L13.75,15.75L13.75,13.25Z" fill-rule="evenodd" fill="#736F78" fill-opacity="1"/></g><g><path d="M13.75,13.25L13.75,7.75L21.25,7.75L21.25,13.25L13.75,13.25ZM19.75,9.25L15.25,9.25L15.25,11.75L19.75,11.75L19.75,9.25Z" fill-rule="evenodd" fill="#736F78" fill-opacity="1"/></g><g><path d="M7.75,13.25L7.75,7.75L15.25,7.75L15.25,13.25L7.75,13.25ZM13.75,9.25L9.25,9.25L9.25,11.75L13.75,11.75L13.75,9.25Z" fill-rule="evenodd" fill="#736F78" fill-opacity="1"/></g><g><path d="M7.75,9.25L7.75,3.75L15.25,3.75L15.25,9.25L7.75,9.25ZM13.75,5.25L9.25,5.25L9.25,7.75L13.75,7.75L13.75,5.25Z" fill-rule="evenodd" fill="#736F78" fill-opacity="1"/></g></g><g><path d="M2.5,19.5L7.5,19.5L10.5,16.5L2.5,16.5L2.5,19.5Z" fill="#13943C" fill-opacity="0.20000000298023224"/><path d="M1.75,20.25L7.81066,20.25L8.03033,20.03033L12.31066,15.75L1.75,15.75L1.75,20.25ZM7.18934,18.75L3.25,18.75L3.25,17.25L8.68934,17.25L7.18934,18.75Z" fill-rule="evenodd" fill="#13943C" fill-opacity="1"/></g><g><path d="M20.591,16.591Q21.25,15.932,21.25,15L21.25,6Q21.25,5.068018,20.591,4.4090097Q19.932,3.75,19,3.75L4,3.75Q3.0680199999999997,3.75,2.4090099,4.4090098Q1.75,5.06802,1.75,6L1.75,17.25L19,17.25Q19.932,17.25,20.591,16.591ZM19.75,6L19.75,15Q19.75,15.75,19,15.75L3.25,15.75L3.25,6Q3.25,5.25,4,5.25L19,5.25Q19.75,5.25,19.75,6Z" fill-rule="evenodd" fill="#231F2E" fill-opacity="1"/></g><g><g><ellipse cx="17.5" cy="19.5" rx="0.75" ry="0.75" fill="#FFFFFF" fill-opacity="1"/><ellipse cx="17.5" cy="19.5" rx="0.75" ry="0.75" fill-opacity="0" stroke-opacity="1" stroke="#FFFFFF" fill="none" stroke-width="3.5"/></g><g><ellipse cx="15.4959716796875" cy="19.5" rx="0.75" ry="0.75" fill="#FFFFFF" fill-opacity="1"/><ellipse cx="15.4959716796875" cy="19.5" rx="0.75" ry="0.75" fill-opacity="0" stroke-opacity="1" stroke="#FFFFFF" fill="none" stroke-width="3.5"/></g><g><ellipse cx="19.5" cy="19.5" rx="0.75" ry="0.75" fill="#FFFFFF" fill-opacity="1"/><ellipse cx="19.5" cy="19.5" rx="0.75" ry="0.75" fill-opacity="0" stroke-opacity="1" stroke="#FFFFFF" fill="none" stroke-width="3.5"/></g><g><path d="M19.5,15.75Q19.414028,15.75,19.32847,15.75843Q19.242912,15.76685,19.158592,15.78363Q19.074272,15.8004,18.992002,15.82535Q18.909731999999998,15.85031,18.830304,15.88321Q18.750876,15.91611,18.675056,15.95664Q18.599235,15.997160000000001,18.527752,16.04493Q18.45627,16.09269,18.38981,16.14723Q18.32335,16.20177,18.26256,16.26256Q18.20177,16.32335,18.14723,16.38981Q18.09269,16.45627,18.04493,16.527752Q17.99716,16.599235,17.95664,16.675056Q17.91611,16.750876,17.88321,16.830304Q17.85031,16.909731999999998,17.82535,16.992002Q17.8004,17.074272,17.78363,17.158592Q17.76685,17.242912,17.75843,17.32847Q17.75,17.414028,17.75,17.5Q17.75,17.585972,17.75843,17.67153Q17.76685,17.757088,17.78363,17.841408Q17.8004,17.925728,17.82535,18.007998Q17.85031,18.090268000000002,17.88321,18.169696Q17.91611,18.249124,17.95664,18.324944Q17.99716,18.400765,18.04493,18.472248Q18.09269,18.54373,18.14723,18.61019Q18.20177,18.67665,18.26256,18.73744Q18.32335,18.79823,18.38981,18.85277Q18.45627,18.90731,18.527752,18.95507Q18.599235,19.00284,18.675056,19.04336Q18.750876,19.08389,18.830304,19.11679Q18.909731999999998,19.14969,18.992002,19.17465Q19.074272,19.1996,19.158592,19.21637Q19.242912,19.23315,19.32847,19.24157Q19.414028,19.25,19.5,19.25L19.75,19.25L19.75,19.75L19.5,19.75Q19.414028,19.75,19.32847,19.75843Q19.242912,19.766849999999998,19.158592,19.78363Q19.074272,19.8004,18.992002,19.82535Q18.909731999999998,19.85031,18.830304,19.88321Q18.750876,19.91611,18.675056,19.95664Q18.599235,19.99716,18.527752,20.04493Q18.45627,20.09269,18.38981,20.14723Q18.32335,20.20177,18.26256,20.26256Q18.20177,20.32335,18.14723,20.38981Q18.09269,20.45627,18.04493,20.52775Q17.99716,20.59924,17.95664,20.675060000000002Q17.91611,20.75088,17.88321,20.8303Q17.85031,20.90973,17.82535,20.992Q17.8004,21.07427,17.78363,21.15859Q17.76685,21.242910000000002,17.75843,21.32847Q17.75,21.41403,17.75,21.5Q17.75,21.58597,17.75843,21.67153Q17.76685,21.757089999999998,17.78363,21.84141Q17.8004,21.92573,17.82535,22.008Q17.85031,22.09027,17.88321,22.1697Q17.91611,22.249119999999998,17.95664,22.324939999999998Q17.99716,22.40076,18.04493,22.47225Q18.09269,22.54373,18.14723,22.61019Q18.20177,22.676650000000002,18.26256,22.73744Q18.32335,22.79823,18.38981,22.85277Q18.45627,22.90731,18.527752,22.95507Q18.599235,23.00284,18.675056,23.04336Q18.750876,23.08389,18.830304,23.11679Q18.909731999999998,23.14969,18.992002,23.17464Q19.074272,23.1996,19.158592,23.21637Q19.242912,23.233150000000002,19.32847,23.24157Q19.414028,23.25,19.5,23.25L21.25,23.25Q22.07843,23.25,22.66422,22.66421Q23.25,22.07842,23.25,21.25L23.25,17.75Q23.25,16.921572,22.66421,16.33579Q22.07843,15.75,21.25,15.75L19.5,15.75Z" fill-rule="evenodd" fill="#FFFFFF" fill-opacity="1"/></g><g><path d="M13.75,23.25L14.5,23.25Q14.58597,23.25,14.67153,23.24157Q14.75709,23.233150000000002,14.84141,23.21637Q14.92573,23.1996,15.008,23.17465Q15.09027,23.14969,15.1697,23.11679Q15.24912,23.08389,15.32494,23.04336Q15.40076,23.00284,15.47225,22.95507Q15.54373,22.90731,15.61019,22.85277Q15.67665,22.79823,15.73744,22.73744Q15.79823,22.676650000000002,15.85277,22.61019Q15.907309999999999,22.54373,15.95507,22.47225Q16.00284,22.40076,16.04336,22.324939999999998Q16.08389,22.249119999999998,16.11679,22.1697Q16.14969,22.09027,16.17465,22.008Q16.1996,21.92573,16.21637,21.84141Q16.233150000000002,21.757089999999998,16.24157,21.67153Q16.25,21.58597,16.25,21.5Q16.25,21.37643,16.23264,21.25409Q16.21527,21.13175,16.18089,21.01306Q16.14651,20.894379999999998,16.09579,20.7817Q16.04507,20.66902,15.97902,20.56459Q15.91297,20.46015,15.8329,20.366039999999998Q15.75283,20.27192,15.66033,20.18999Q15.56783,20.108060000000002,15.464739999999999,20.03994Q15.36164,19.97182,15.25,19.91886L15.25,19.08114Q15.36164,19.02818,15.464739999999999,18.96006Q15.56783,18.891939999999998,15.66033,18.81001Q15.75283,18.72808,15.8329,18.633960000000002Q15.91297,18.53985,15.97902,18.435414Q16.04507,18.330981,16.09579,18.218303Q16.14651,18.105624,16.18089,17.986937Q16.21527,17.86825,16.23264,17.745908Q16.25,17.623567,16.25,17.5Q16.25,17.414028,16.24157,17.32847Q16.233150000000002,17.242912,16.21637,17.158592Q16.1996,17.074272,16.17465,16.992002Q16.14969,16.909731999999998,16.11679,16.830304Q16.08389,16.750876,16.04336,16.675056Q16.00284,16.599235,15.95507,16.527752Q15.907309999999999,16.45627,15.85277,16.38981Q15.79823,16.32335,15.73744,16.26256Q15.67665,16.20177,15.61019,16.14723Q15.54373,16.09269,15.47225,16.04493Q15.40076,15.997160000000001,15.32494,15.95664Q15.24912,15.91611,15.1697,15.88321Q15.09027,15.85031,15.008,15.82535Q14.92573,15.8004,14.84141,15.78363Q14.75709,15.76685,14.67153,15.75843Q14.58597,15.75,14.5,15.75L13.75,15.75Q13.344263,15.75,12.970973,15.90789Q12.611744,16.05983,12.33579,16.33579Q12.05983,16.611743,11.90789,16.970973Q11.75,17.344263,11.75,17.75L11.75,21.25Q11.75,21.65574,11.90789,22.02902Q12.05983,22.38825,12.33578,22.66421Q12.611742,22.940170000000002,12.970971,23.092109999999998Q13.344262,23.25,13.75,23.25Z" fill-rule="evenodd" fill="#FFFFFF" fill-opacity="1"/></g></g><g><g><ellipse cx="17.5" cy="19.5" rx="0.75" ry="0.75" fill="#13943C" fill-opacity="1"/></g><g><ellipse cx="15.4959716796875" cy="19.5" rx="0.75" ry="0.75" fill="#13943C" fill-opacity="1"/></g><g><ellipse cx="19.5" cy="19.5" rx="0.75" ry="0.75" fill="#13943C" fill-opacity="1"/></g><g><path d="M19.5,16.75L21.25,16.75Q21.66421,16.75,21.95711,17.042893Q22.25,17.335786,22.25,17.75L22.25,21.25Q22.25,21.66421,21.95711,21.95711Q21.66421,22.25,21.25,22.25L19.5,22.25Q19.4261315,22.25,19.353682,22.235590000000002Q19.281233,22.22118,19.212987,22.19291Q19.144742,22.16464,19.083322,22.1236Q19.021903000000002,22.08256,18.96967,22.03033Q18.917437,21.9781,18.876398000000002,21.91668Q18.835359,21.85526,18.80709,21.787010000000002Q18.778822,21.71877,18.764411,21.64632Q18.75,21.57387,18.75,21.5Q18.75,21.42613,18.764411,21.35368Q18.778822,21.28123,18.80709,21.21299Q18.835359,21.14474,18.876398000000002,21.08332Q18.917437,21.0219,18.96967,20.96967Q19.021903000000002,20.91744,19.083322,20.8764Q19.144742,20.83536,19.212987,20.80709Q19.281233,20.77882,19.353682,20.764409999999998Q19.4261315,20.75,19.5,20.75L20.75,20.75L20.75,18.25L19.5,18.25Q19.4261315,18.25,19.353682,18.235589Q19.281233,18.221178,19.212987,18.19291Q19.144742,18.164641,19.083322,18.123601999999998Q19.021903000000002,18.082563,18.96967,18.03033Q18.917437,17.978096999999998,18.876398000000002,17.916678Q18.835359,17.855258,18.80709,17.787013Q18.778822,17.718767,18.764411,17.646318Q18.75,17.5738685,18.75,17.5Q18.75,17.4261315,18.764411,17.353682Q18.778822,17.281233,18.80709,17.212987Q18.835359,17.144742,18.876398000000002,17.083322Q18.917437,17.021903000000002,18.96967,16.96967Q19.021903000000002,16.917437,19.083322,16.876398000000002Q19.144742,16.835359,19.212987,16.80709Q19.281233,16.778822,19.353682,16.764411Q19.4261315,16.75,19.5,16.75Z" fill-rule="evenodd" fill="#13943C" fill-opacity="1"/></g><g><path d="M13.75,22.25L14.5,22.25Q14.57387,22.25,14.64632,22.235590000000002Q14.71877,22.22118,14.78701,22.19291Q14.85526,22.16464,14.91668,22.1236Q14.9781,22.08256,15.03033,22.03033Q15.08256,21.9781,15.1236,21.91668Q15.16464,21.85526,15.19291,21.787010000000002Q15.22118,21.71877,15.23559,21.64632Q15.25,21.57387,15.25,21.5Q15.25,21.42613,15.23559,21.35368Q15.22118,21.28123,15.19291,21.21299Q15.16464,21.14474,15.1236,21.08332Q15.08256,21.0219,15.03033,20.96967Q14.9781,20.91744,14.91668,20.8764Q14.85526,20.83536,14.78701,20.80709Q14.71877,20.77882,14.64632,20.764409999999998Q14.57387,20.75,14.5,20.75L14.25,20.75L14.25,18.25L14.5,18.25Q14.57387,18.25,14.64632,18.235589Q14.71877,18.221178,14.78701,18.19291Q14.85526,18.164641,14.91668,18.123601999999998Q14.9781,18.082563,15.03033,18.03033Q15.08256,17.978096999999998,15.1236,17.916678Q15.16464,17.855258,15.19291,17.787013Q15.22118,17.718767,15.23559,17.646318Q15.25,17.5738685,15.25,17.5Q15.25,17.4261315,15.23559,17.353682Q15.22118,17.281233,15.19291,17.212987Q15.16464,17.144742,15.1236,17.083322Q15.08256,17.021903000000002,15.03033,16.96967Q14.9781,16.917437,14.91668,16.876398000000002Q14.85526,16.835359,14.78701,16.80709Q14.71877,16.778822,14.64632,16.764411Q14.57387,16.75,14.5,16.75L13.75,16.75Q13.335786,16.75,13.042893,17.042893Q12.75,17.335786,12.75,17.75L12.75,21.25Q12.75,21.66421,13.042892,21.95711Q13.335786,22.25,13.75,22.25Z" fill-rule="evenodd" fill="#13943C" fill-opacity="1"/></g></g></g></svg>