<svg xmlns="http://www.w3.org/2000/svg" xmlns:xlink="http://www.w3.org/1999/xlink" fill="none" version="1.1" width="24" height="24" viewBox="0 0 24 24"><defs><clipPath id="master_svg0_63_02566"><rect x="0" y="0" width="24" height="24" rx="0"/></clipPath></defs><g clip-path="url(#master_svg0_63_02566)"><g><path d="M13.25,3Q13.25,2.9261315,13.264410999999999,2.853682Q13.278822,2.781233,13.30709,2.712987Q13.335359,2.644742,13.376398,2.583322Q13.417437,2.521903,13.46967,2.46967Q13.521903,2.417437,13.583322,2.376398Q13.644742,2.335359,13.712987,2.30709Q13.781233,2.278822,13.853682,2.264411Q13.9261315,2.25,14,2.25Q14.0738685,2.25,14.146318,2.264411Q14.218767,2.278822,14.287013,2.30709Q14.355258,2.335359,14.416678,2.376398Q14.478097,2.417437,14.53033,2.46967Q14.582563,2.521903,14.623602,2.583322Q14.664641,2.644742,14.69291,2.712987Q14.721178,2.781233,14.735589000000001,2.853682Q14.75,2.9261315,14.75,3L14.75,7Q14.75,7.10355,14.823223,7.17678Q14.896447,7.25,15,7.25L19,7.25Q19.07387,7.25,19.14632,7.26441Q19.21877,7.27882,19.287010000000002,7.30709Q19.35526,7.33536,19.41668,7.3764Q19.4781,7.41744,19.53033,7.46967Q19.58256,7.5219,19.6236,7.58332Q19.66464,7.64474,19.69291,7.71299Q19.72118,7.78123,19.735590000000002,7.85368Q19.75,7.92613,19.75,8Q19.75,8.07387,19.735590000000002,8.14632Q19.72118,8.21877,19.69291,8.28701Q19.66464,8.355260000000001,19.6236,8.41668Q19.58256,8.478100000000001,19.53033,8.53033Q19.4781,8.58256,19.41668,8.6236Q19.35526,8.66464,19.287010000000002,8.692910000000001Q19.21877,8.72118,19.14632,8.73559Q19.07387,8.75,19,8.75L15,8.75Q14.275126,8.75,13.762563,8.23744Q13.25,7.72487,13.25,7L13.25,3Z" fill-rule="evenodd" fill="#231F2E" fill-opacity="1"/></g><g><path d="M18.25,8.31066L18.25,12.5Q18.25,12.57387,18.264400000000002,12.64632Q18.2788,12.71877,18.3071,12.78701Q18.3354,12.85526,18.3764,12.91668Q18.4174,12.9781,18.4697,13.0303Q18.521900000000002,13.0826,18.5833,13.1236Q18.6447,13.1646,18.713,13.1929Q18.7812,13.2212,18.8537,13.2356Q18.926099999999998,13.25,19,13.25Q19.073900000000002,13.25,19.1463,13.2356Q19.2188,13.2212,19.287,13.1929Q19.3553,13.1646,19.4167,13.1236Q19.478099999999998,13.0826,19.5303,13.0303Q19.5826,12.9781,19.6236,12.91668Q19.6646,12.85526,19.6929,12.78701Q19.7212,12.71877,19.735599999999998,12.64632Q19.75,12.57387,19.75,12.5L19.75,12.4988L19.75,8Q19.75,7.85082,19.6929,7.71299Q19.6358,7.57516,19.5303,7.46967L14.53033,2.46967Q14.42484,2.364181,14.28701,2.30709Q14.14919,2.25,14,2.25L7,2.25Q5.860913,2.25,5.0554564,3.0554564Q4.25,3.860913,4.25,5L4.25,19Q4.25,20.1391,5.0554563,20.9445Q5.860912,21.75,7,21.75L10,21.75Q10.07387,21.75,10.14632,21.7356Q10.21877,21.7212,10.28701,21.6929Q10.355260000000001,21.6646,10.41668,21.6236Q10.478100000000001,21.5826,10.53033,21.5303Q10.58256,21.4781,10.6236,21.4167Q10.66464,21.3553,10.692910000000001,21.287Q10.72118,21.2188,10.73559,21.1463Q10.75,21.0739,10.75,21Q10.75,20.9261,10.73559,20.8537Q10.72118,20.7812,10.692910000000001,20.713Q10.66464,20.6447,10.6236,20.5833Q10.58256,20.5219,10.53033,20.4697Q10.478100000000001,20.4174,10.41668,20.3764Q10.355260000000001,20.3354,10.28701,20.3071Q10.21877,20.2788,10.14632,20.2644Q10.07387,20.25,10,20.25L7,20.25Q6.4822299999999995,20.25,6.1161200000000004,19.8839Q5.75,19.5178,5.75,19L5.75,5Q5.75,4.4822299999999995,6.1161200000000004,4.1161200000000004Q6.4822299999999995,3.75,7,3.75L13.68934,3.75L18.25,8.31066Z" fill-rule="evenodd" fill="#231F2E" fill-opacity="1"/></g><g><path d="M16.4350388671875,14.145050000000001C15.7428488671875,13.426269999999999,13.8520288671875,13.71918,13.3995788671875,13.772359999999999C12.733988867187499,13.13336,12.281128867187501,12.361,12.1215788671875,12.09468C12.3613088671875,11.375910000000001,12.5208488671875,10.65673,12.5474388671875,9.88477C12.5474388671875,9.219182,12.281128867187501,8.5,11.5357588671875,8.5C11.2694388671875,8.5,11.0297188671875,8.659954,10.8967588671875,8.872682C10.5772588671875,9.431909,10.7102188671875,10.55036,11.2162588671875,11.695C10.9233488671875,12.52055,10.657028867187499,13.31909,9.911668867187501,14.730450000000001C9.1393088671875,15.049959999999999,7.5152138671875,15.795729999999999,7.3822593671875,16.59427C7.3290773671875,16.834,7.4088501671875004,17.073729999999998,7.5953958671875,17.25986C7.7815318671875,17.42023,8.0208498671875,17.5,8.260576867187499,17.5C9.2456688671875,17.5,10.2041688671875,16.14182,10.8701688671875,14.99718C11.429398867187501,14.81064,12.3081288671875,14.544319999999999,13.1868488671875,14.38477C14.2251288671875,15.29009,15.1304388671875,15.42304,15.6098988671875,15.42304C16.2488988671875,15.42304,16.488618867187498,15.15673,16.5683988671875,14.917C16.701348867187498,14.65109,16.6215788671875,14.35818,16.4350388671875,14.145050000000001ZM15.7694388671875,14.5975C15.7428488671875,14.78405,15.5031288671875,14.97018,15.0772588671875,14.86382C14.5712188671875,14.73086,14.1187588671875,14.49114,13.7190788671875,14.17164C14.0651688671875,14.11845,14.837528867187501,14.03868,15.3967588671875,14.145050000000001C15.6098988671875,14.198229999999999,15.8226288671875,14.33118,15.7694388671875,14.5975ZM11.3226188671875,9.112409C11.3758088671875,9.032636,11.4555788671875,8.979454,11.5357588671875,8.979454C11.7754888671875,8.979454,11.828668867187499,9.272364,11.828668867187499,9.51209C11.8020788671875,10.07132,11.6957188671875,10.63055,11.509168867187501,11.16318C11.1098988671875,10.0975,11.1896688671875,9.352136,11.3226188671875,9.112409ZM11.2694388671875,14.277999999999999C11.482578867187499,13.85214,11.7754888671875,13.106359999999999,11.8818488671875,12.78686C12.1215788671875,13.18614,12.5208488671875,13.66559,12.733988867187499,13.878730000000001C12.733988867187499,13.90532,11.908438867187499,14.06527,11.2694388671875,14.277999999999999ZM9.6985288671875,15.34327C9.0861188671875,16.35496,8.4471188671875,16.99437,8.1010318671875,16.99437C8.0478498671875,16.99437,7.9946678671875,16.967779999999998,7.9410768671875,16.94118C7.8613048671875,16.887999999999998,7.8347138671875,16.80822,7.8613048671875,16.70146C7.9410768671875,16.32836,8.6332588671875,15.822320000000001,9.6985288671875,15.34327Z" fill="#E53935" fill-opacity="1" style="mix-blend-mode:passthrough"/></g><g><g><path d="M19.428589344024658,15.10721641778946Q19.342617344024656,15.10721641778946,19.257059344024658,15.11564641778946Q19.17150134402466,15.124066417789459,19.087181344024657,15.14084641778946Q19.00286134402466,15.157616417789459,18.920591344024658,15.18256641778946Q18.838321344024656,15.20752641778946,18.75889334402466,15.24042641778946Q18.67946534402466,15.273326417789459,18.60364534402466,15.31385641778946Q18.52782434402466,15.35437641778946,18.456341344024658,15.40214641778946Q18.384859344024658,15.449906417789459,18.31839934402466,15.50444641778946Q18.25193934402466,15.558986417789459,18.19114934402466,15.61977641778946Q18.130359344024658,15.680566417789459,18.07581934402466,15.74702641778946Q18.02127934402466,15.81348641778946,17.97351934402466,15.884968417789459Q17.92574934402466,15.95645141778946,17.88522934402466,16.03227241778946Q17.844699344024658,16.10809241778946,17.811799344024656,16.18752041778946Q17.77889934402466,16.266948417789457,17.75393934402466,16.34921841778946Q17.728989344024658,16.43148841778946,17.712219344024657,16.515808417789458Q17.69543934402466,16.60012841778946,17.68701934402466,16.68568641778946Q17.678589344024658,16.771244417789458,17.678589344024658,16.85721641778946Q17.678589344024658,16.94318841778946,17.68701934402466,17.02874641778946Q17.69543934402466,17.11430441778946,17.712219344024657,17.19862441778946Q17.728989344024658,17.28294441778946,17.75393934402466,17.36521441778946Q17.77889934402466,17.44748441778946,17.811799344024656,17.526912417789458Q17.844699344024658,17.606340417789458,17.88522934402466,17.682160417789458Q17.92574934402466,17.75798141778946,17.97351934402466,17.82946441778946Q18.02127934402466,17.90094641778946,18.07581934402466,17.96740641778946Q18.130359344024658,18.033866417789458,18.19114934402466,18.09465641778946Q18.25193934402466,18.15544641778946,18.31839934402466,18.20998641778946Q18.384859344024658,18.264526417789458,18.456341344024658,18.31228641778946Q18.52782434402466,18.36005641778946,18.60364534402466,18.40057641778946Q18.67946534402466,18.44110641778946,18.75889334402466,18.47400641778946Q18.838321344024656,18.50690641778946,18.920591344024658,18.53186641778946Q19.00286134402466,18.55681641778946,19.087181344024657,18.57358641778946Q19.17150134402466,18.590366417789458,19.257059344024658,18.59878641778946Q19.342617344024656,18.60721641778946,19.428589344024658,18.60721641778946L21.99997934402466,18.60721641778946Q22.08594934402466,18.60721641778946,22.171509344024656,18.59878641778946Q22.257069344024657,18.590366417789458,22.34138934402466,18.57358641778946Q22.425709344024657,18.55681641778946,22.50797934402466,18.53186641778946Q22.59024934402466,18.50690641778946,22.669679344024658,18.47400641778946Q22.74910934402466,18.44110641778946,22.824929344024657,18.40057641778946Q22.900749344024657,18.36005641778946,22.972229344024658,18.31228641778946Q23.04370934402466,18.264526417789458,23.11016934402466,18.20998641778946Q23.176629344024658,18.15544641778946,23.23741934402466,18.09465641778946Q23.29820934402466,18.033866417789458,23.35274934402466,17.96740641778946Q23.407289344024658,17.90094641778946,23.45504934402466,17.82946441778946Q23.502819344024658,17.75798141778946,23.54333934402466,17.682160417789458Q23.58386934402466,17.606340417789458,23.616769344024657,17.526912417789458Q23.64966934402466,17.44748441778946,23.67462934402466,17.36521441778946Q23.69957934402466,17.28294441778946,23.71635934402466,17.19862441778946Q23.733129344024658,17.11430441778946,23.741559344024658,17.02874641778946Q23.74997934402466,16.94318841778946,23.74997934402466,16.85721641778946Q23.74997934402466,16.771244417789458,23.741559344024658,16.68568641778946Q23.733129344024658,16.60012841778946,23.71635934402466,16.515808417789458Q23.69957934402466,16.43148841778946,23.67462934402466,16.34921841778946Q23.64966934402466,16.266948417789457,23.616769344024657,16.18752041778946Q23.58386934402466,16.10809241778946,23.54333934402466,16.03227241778946Q23.502819344024658,15.95645141778946,23.45504934402466,15.884968417789459Q23.407289344024658,15.81348641778946,23.35274934402466,15.74702641778946Q23.29820934402466,15.680566417789459,23.23741934402466,15.61977641778946Q23.176629344024658,15.558986417789459,23.11016934402466,15.50444641778946Q23.04370934402466,15.449906417789459,22.972229344024658,15.40214641778946Q22.900749344024657,15.35437641778946,22.824929344024657,15.31385641778946Q22.74910934402466,15.273326417789459,22.669679344024658,15.24042641778946Q22.59024934402466,15.20752641778946,22.50797934402466,15.18256641778946Q22.425709344024657,15.157616417789459,22.34138934402466,15.14084641778946Q22.257069344024657,15.124066417789459,22.171509344024656,15.11564641778946Q22.08594934402466,15.10721641778946,21.99997934402466,15.10721641778946L19.428589344024658,15.10721641778946Z" fill-rule="evenodd" fill="#FFFFFF" fill-opacity="1" style="mix-blend-mode:passthrough"/></g><g><path d="M21.142850399017334,18.535738945007324Q21.056878399017332,18.535738945007324,20.971320399017333,18.544168945007325Q20.885762399017334,18.552588945007326,20.801442399017333,18.569368945007323Q20.717122399017335,18.586138945007324,20.634852399017333,18.611088945007324Q20.552582399017332,18.636048945007325,20.473154399017336,18.668948945007322Q20.393726399017336,18.701848945007324,20.317906399017335,18.742378945007324Q20.242085399017334,18.782898945007325,20.170602399017334,18.830668945007325Q20.099120399017334,18.878428945007325,20.032660399017335,18.932968945007325Q19.966200399017335,18.987508945007324,19.905410399017335,19.048298945007325Q19.844620399017334,19.109088945007326,19.790080399017334,19.175548945007325Q19.735540399017335,19.242008945007324,19.687780399017335,19.313490945007324Q19.640010399017335,19.384973945007324,19.599490399017334,19.460794945007326Q19.558960399017334,19.536614945007326,19.526060399017332,19.616042945007326Q19.493160399017334,19.695470945007322,19.468200399017334,19.777740945007324Q19.443250399017334,19.860010945007325,19.426480399017333,19.944330945007323Q19.409700399017336,20.028650945007325,19.401280399017335,20.114208945007324Q19.392850399017334,20.199766945007323,19.392850399017334,20.285738945007324Q19.392850399017334,20.371710945007326,19.401280399017335,20.457268945007325Q19.409700399017336,20.542826945007324,19.426480399017333,20.627146945007325Q19.443250399017334,20.711466945007324,19.468200399017334,20.793736945007325Q19.493160399017334,20.876006945007326,19.526060399017332,20.955434945007323Q19.558960399017334,21.034862945007323,19.599490399017334,21.110682945007323Q19.640010399017335,21.186503945007324,19.687780399017335,21.257986945007325Q19.735540399017335,21.329468945007324,19.790080399017334,21.395928945007324Q19.844620399017334,21.462388945007323,19.905410399017335,21.523178945007324Q19.966200399017335,21.583968945007324,20.032660399017335,21.638508945007324Q20.099120399017334,21.693048945007323,20.170602399017334,21.740808945007323Q20.242085399017334,21.788578945007323,20.317906399017335,21.829098945007324Q20.393726399017336,21.869628945007324,20.473154399017336,21.902528945007326Q20.552582399017332,21.935428945007324,20.634852399017333,21.960388945007324Q20.717122399017335,21.985338945007324,20.801442399017333,22.002108945007326Q20.885762399017334,22.018888945007323,20.971320399017333,22.027308945007324Q21.056878399017332,22.035738945007324,21.142850399017334,22.035738945007324L21.999981399017333,22.035738945007324Q22.085953399017335,22.035738945007324,22.171510399017333,22.027308945007324Q22.257070399017334,22.018888945007323,22.341390399017335,22.002108945007326Q22.425710399017333,21.985338945007324,22.507980399017335,21.960388945007324Q22.590250399017336,21.935428945007324,22.669680399017334,21.902528945007326Q22.749100399017333,21.869628945007324,22.824920399017333,21.829098945007324Q22.900750399017333,21.788578945007323,22.972230399017334,21.740808945007323Q23.043710399017336,21.693048945007323,23.110170399017335,21.638508945007324Q23.176630399017334,21.583968945007324,23.237420399017335,21.523178945007324Q23.298210399017336,21.462388945007323,23.352750399017335,21.395928945007324Q23.407290399017334,21.329468945007324,23.455050399017335,21.257986945007325Q23.502820399017335,21.186503945007324,23.543340399017335,21.110682945007323Q23.583870399017336,21.034862945007323,23.616770399017334,20.955434945007323Q23.649670399017335,20.876006945007326,23.674630399017335,20.793736945007325Q23.699580399017336,20.711466945007324,23.716350399017333,20.627146945007325Q23.733130399017334,20.542826945007324,23.741550399017335,20.457268945007325Q23.749980399017335,20.371710945007326,23.749980399017335,20.285738945007324Q23.749980399017335,20.199766945007323,23.741550399017335,20.114208945007324Q23.733130399017334,20.028650945007325,23.716350399017333,19.944330945007323Q23.699580399017336,19.860010945007325,23.674630399017335,19.777740945007324Q23.649670399017335,19.695470945007322,23.616770399017334,19.616042945007326Q23.583870399017336,19.536614945007326,23.543340399017335,19.460794945007326Q23.502820399017335,19.384973945007324,23.455050399017335,19.313490945007324Q23.407290399017334,19.242008945007324,23.352750399017335,19.175548945007325Q23.298210399017336,19.109088945007326,23.237420399017335,19.048298945007325Q23.176630399017334,18.987508945007324,23.110170399017335,18.932968945007325Q23.043710399017336,18.878428945007325,22.972230399017334,18.830668945007325Q22.900750399017333,18.782898945007325,22.824920399017333,18.742378945007324Q22.749100399017333,18.701848945007324,22.669680399017334,18.668948945007322Q22.590250399017336,18.636048945007325,22.507980399017335,18.611088945007324Q22.425710399017333,18.586138945007324,22.341390399017335,18.569368945007323Q22.257070399017334,18.552588945007326,22.171510399017333,18.544168945007325Q22.085953399017335,18.535738945007324,21.999981399017333,18.535738945007324L21.142850399017334,18.535738945007324Z" fill-rule="evenodd" fill="#FFFFFF" fill-opacity="1" style="mix-blend-mode:passthrough"/></g><g><path d="M14.863382020950317,16.78272413580322Q14.678632020950317,16.413219135803224,14.678632020950317,16.000100135803223Q14.678632020950317,15.914128135803223,14.687062020950318,15.828570135803222Q14.695482020950317,15.743012135803223,14.712262020950318,15.658692135803223Q14.729032020950317,15.574372135803223,14.753982020950318,15.492102135803222Q14.778942020950318,15.409832135803223,14.811842020950317,15.330404135803223Q14.844742020950317,15.250976135803223,14.885272020950318,15.175156135803222Q14.925792020950318,15.099335135803223,14.973562020950318,15.027852135803222Q15.021322020950317,14.956370135803223,15.075862020950318,14.889910135803223Q15.130402020950317,14.823450135803222,15.191192020950318,14.762660135803223Q15.251982020950317,14.701870135803222,15.318442020950318,14.647330135803223Q15.384902020950317,14.592790135803222,15.456384020950317,14.545030135803223Q15.527867020950318,14.497260135803224,15.603688020950317,14.456740135803223Q15.679508020950317,14.416210135803222,15.758936020950317,14.383310135803223Q15.838364020950317,14.350410135803223,15.920634020950317,14.325450135803223Q16.002904020950318,14.300500135803222,16.087224020950316,14.283730135803223Q16.171544020950318,14.266950135803222,16.257102020950317,14.258530135803223Q16.342660020950316,14.250100135803223,16.428632020950317,14.250100135803223Q16.549920020950317,14.250100135803223,16.67004802095032,14.266830135803222Q16.790177020950317,14.283560135803222,16.906848020950317,14.316710135803223Q17.02352002095032,14.349850135803223,17.134504020950317,14.398770135803222Q17.24548802095032,14.447700135803222,17.348661020950317,14.511460135803222Q17.451832020950317,14.575230135803222,17.545222020950316,14.652610135803222Q17.63861202095032,14.730000135803223,17.720442020950316,14.819530135803223Q17.802262020950316,14.909070135803223,17.870952020950316,15.009030135803222Q17.939642020950316,15.108993135803223,17.993882020950316,15.217476135803222L20.993842020950318,21.21739013580322Q21.17859202095032,21.586900135803223,21.17859202095032,22.000010135803223Q21.17859202095032,22.085990135803222,21.17016202095032,22.171540135803223Q21.161732020950318,22.25710013580322,21.144962020950317,22.341420135803222Q21.128192020950316,22.425740135803224,21.103232020950315,22.50801013580322Q21.07828202095032,22.590280135803223,21.045382020950317,22.66971013580322Q21.012482020950316,22.749140135803223,20.97195202095032,22.824960135803224Q20.93142202095032,22.900780135803224,20.883662020950318,22.97226013580322Q20.835902020950318,23.043740135803223,20.78136202095032,23.110200135803222Q20.726822020950316,23.176660135803225,20.66602202095032,23.237450135803222Q20.605232020950318,23.298240135803223,20.53878202095032,23.352780135803222Q20.472322020950315,23.40732013580322,20.40083202095032,23.45509013580322Q20.329352020950317,23.50285013580322,20.253532020950317,23.543380135803222Q20.177712020950317,23.583900135803223,20.098282020950318,23.616800135803224Q20.018852020950316,23.649700135803222,19.936592020950318,23.674660135803222Q19.854322020950317,23.699620135803222,19.76999202095032,23.716390135803223Q19.685682020950317,23.733160135803224,19.600122020950316,23.74159013580322Q19.51456202095032,23.750010135803223,19.42859202095032,23.750010135803223Q19.307302020950317,23.750010135803223,19.187172020950317,23.733280135803223Q19.067042020950318,23.716550135803224,18.95037202095032,23.68341013580322Q18.833702020950316,23.650260135803222,18.722722020950318,23.601340135803223Q18.611732020950317,23.552420135803224,18.50856202095032,23.488650135803223Q18.405382020950317,23.424890135803224,18.311992020950317,23.347500135803223Q18.218602020950318,23.270110135803222,18.136782020950317,23.180580135803222Q18.054962020950317,23.091050135803222,17.986272020950317,22.991080135803223Q17.917582020950316,22.891120135803224,17.863342020950316,22.782640135803224L14.863382020950317,16.78272413580322L14.863382020950317,16.78272413580322Z" fill-rule="evenodd" fill="#FFFFFF" fill-opacity="1" style="mix-blend-mode:passthrough"/></g><g><path d="M17.9937888671875,16.782624Q18.1785488671875,16.413119000000002,18.1785488671875,16Q18.1785488671875,15.914028,18.1701188671875,15.82847Q18.1616888671875,15.742912,18.1449188671875,15.658592Q18.128148867187498,15.574272,18.103188867187498,15.492002Q18.0782388671875,15.409732,18.0453388671875,15.330304Q18.012438867187498,15.250876,17.9719088671875,15.175056Q17.9313788671875,15.099235,17.8836188671875,15.027752Q17.8358588671875,14.95627,17.7813188671875,14.88981Q17.726778867187498,14.82335,17.6659788671875,14.76256Q17.6051888671875,14.70177,17.5387388671875,14.64723Q17.472278867187498,14.59269,17.4007888671875,14.54493Q17.3293088671875,14.497160000000001,17.2534888671875,14.45664Q17.1776688671875,14.41611,17.0982388671875,14.38321Q17.0188088671875,14.35031,16.9365488671875,14.32535Q16.8542788671875,14.3004,16.7699488671875,14.28363Q16.6856388671875,14.26685,16.6000788671875,14.25843Q16.5145188671875,14.25,16.4285488671875,14.25Q16.3072588671875,14.25,16.1871288671875,14.266729999999999Q16.0669988671875,14.28346,15.9503288671875,14.31661Q15.8336588671875,14.34975,15.7226788671875,14.39867Q15.6116888671875,14.4476,15.508518867187501,14.51136Q15.4053388671875,14.57513,15.3119488671875,14.65251Q15.2185588671875,14.7299,15.1367388671875,14.81943Q15.0549188671875,14.90897,14.9862288671875,15.00893Q14.917538867187499,15.108893,14.863298867187499,15.217376L11.8633388671875,21.21729Q11.6785888671875,21.5868,11.6785888671875,21.99991Q11.6785888671875,22.08589,11.6870188671875,22.17144Q11.6954388671875,22.256999999999998,11.7122188671875,22.34132Q11.7289888671875,22.42564,11.7539388671875,22.50791Q11.7788988671875,22.59018,11.8117988671875,22.66961Q11.8446988671875,22.74904,11.8852288671875,22.82486Q11.925748867187501,22.90068,11.9735188671875,22.97216Q12.0212788671875,23.04364,12.0758188671875,23.1101Q12.1303588671875,23.176560000000002,12.1911488671875,23.23735Q12.2519388671875,23.29814,12.3183988671875,23.35268Q12.3848588671875,23.40722,12.4563408671875,23.45499Q12.5278238671875,23.50275,12.6036448671875,23.54328Q12.6794648671875,23.5838,12.7588928671875,23.6167Q12.8383208671875,23.6496,12.9205908671875,23.67456Q13.0028608671875,23.69952,13.0871808671875,23.71629Q13.1715008671875,23.733060000000002,13.2570588671875,23.74149Q13.3426168671875,23.74991,13.4285888671875,23.74991Q13.5498768671875,23.74991,13.6700048671875,23.73318Q13.7901338671875,23.716450000000002,13.9068048671875,23.68331Q14.0234768671875,23.65016,14.1344608671875,23.60124Q14.2454448671875,23.55232,14.3486178671875,23.48855Q14.4517888671875,23.42479,14.5451788671875,23.3474Q14.6385688671875,23.27001,14.7203988671875,23.18048Q14.8022188671875,23.09095,14.8709088671875,22.99098Q14.9395988671875,22.89102,14.9938388671875,22.78254L17.9937988671875,16.782624L17.9937888671875,16.782624Z" fill-rule="evenodd" fill="#FFFFFF" fill-opacity="1" style="mix-blend-mode:passthrough"/></g><g><path d="M14.285805344581604,18.75L18.571455344581604,18.75Q18.657425344581604,18.75,18.742985344581605,18.75843Q18.828545344581606,18.76685,18.912865344581604,18.78363Q18.997185344581602,18.8004,19.079455344581604,18.82535Q19.161725344581605,18.85031,19.241155344581603,18.88321Q19.320585344581602,18.91611,19.396405344581602,18.95664Q19.472225344581602,18.99716,19.543705344581603,19.04493Q19.615185344581604,19.09269,19.681645344581604,19.14723Q19.748105344581603,19.20177,19.808895344581604,19.26256Q19.869685344581605,19.32335,19.924225344581604,19.38981Q19.978765344581603,19.45627,20.026525344581604,19.527752Q20.074295344581603,19.599235,20.114825344581604,19.675056Q20.155345344581605,19.750876,20.188245344581603,19.830304Q20.221145344581604,19.909731999999998,20.246105344581604,19.992002Q20.271065344581604,20.074272,20.287835344581605,20.158592Q20.304605344581603,20.242912,20.313035344581603,20.32847Q20.321455344581604,20.414028,20.321455344581604,20.5Q20.321455344581604,20.585972,20.313035344581603,20.67153Q20.304605344581603,20.757088,20.287835344581605,20.841408Q20.271065344581604,20.925728,20.246105344581604,21.007998Q20.221145344581604,21.090268000000002,20.188245344581603,21.169696Q20.155345344581605,21.249124,20.114825344581604,21.324944Q20.074295344581603,21.400765,20.026525344581604,21.472248Q19.978765344581603,21.54373,19.924225344581604,21.61019Q19.869685344581605,21.67665,19.808895344581604,21.73744Q19.748105344581603,21.79823,19.681645344581604,21.85277Q19.615185344581604,21.90731,19.543705344581603,21.95507Q19.472225344581602,22.00284,19.396405344581602,22.04336Q19.320585344581602,22.08389,19.241155344581603,22.11679Q19.161725344581605,22.14969,19.079455344581604,22.17465Q18.997185344581602,22.1996,18.912865344581604,22.21637Q18.828545344581606,22.23315,18.742985344581605,22.24157Q18.657425344581604,22.25,18.571455344581604,22.25L14.285805344581604,22.25Q14.199833344581604,22.25,14.114275344581603,22.24157Q14.028717344581604,22.23315,13.944397344581605,22.21637Q13.860077344581605,22.1996,13.777807344581603,22.17465Q13.695537344581604,22.14969,13.616109344581604,22.11679Q13.536681344581604,22.08389,13.460861344581604,22.04336Q13.385040344581604,22.00284,13.313557344581604,21.95507Q13.242075344581604,21.90731,13.175615344581605,21.85277Q13.109155344581604,21.79823,13.048365344581605,21.73744Q12.987575344581604,21.67665,12.933035344581604,21.61019Q12.878495344581603,21.54373,12.830735344581605,21.472248Q12.782965344581605,21.400765,12.742445344581604,21.324944Q12.701915344581604,21.249124,12.669015344581604,21.169696Q12.636115344581604,21.090268000000002,12.611155344581604,21.007998Q12.586205344581604,20.925728,12.569435344581604,20.841408Q12.552655344581604,20.757088,12.544235344581605,20.67153Q12.535805344581604,20.585972,12.535805344581604,20.5Q12.535805344581604,20.414028,12.544235344581605,20.32847Q12.552655344581604,20.242912,12.569435344581604,20.158592Q12.586205344581604,20.074272,12.611155344581604,19.992002Q12.636115344581604,19.909731999999998,12.669015344581604,19.830304Q12.701915344581604,19.750876,12.742445344581604,19.675056Q12.782965344581605,19.599235,12.830735344581605,19.527752Q12.878495344581603,19.45627,12.933035344581604,19.38981Q12.987575344581604,19.32335,13.048365344581605,19.26256Q13.109155344581604,19.20177,13.175615344581605,19.14723Q13.242075344581604,19.09269,13.313557344581604,19.04493Q13.385040344581604,18.99716,13.460861344581604,18.95664Q13.536681344581604,18.91611,13.616109344581604,18.88321Q13.695537344581604,18.85031,13.777807344581603,18.82535Q13.860077344581605,18.8004,13.944397344581605,18.78363Q14.028717344581604,18.76685,14.114275344581603,18.75843Q14.199833344581604,18.75,14.285805344581604,18.75Z" fill-rule="evenodd" fill="#FFFFFF" fill-opacity="1" style="mix-blend-mode:passthrough"/></g></g><g><g><path d="M19.428589344024658,16.10721641778946L21.99997934402466,16.10721641778946Q22.07384934402466,16.10721641778946,22.14629934402466,16.12162741778946Q22.21874934402466,16.13603841778946,22.286989344024658,16.164306417789458Q22.355239344024657,16.19257541778946,22.41665934402466,16.23361441778946Q22.478079344024657,16.27465341778946,22.53030934402466,16.32688641778946Q22.58253934402466,16.37911941778946,22.62357934402466,16.44053841778946Q22.664619344024658,16.50195841778946,22.692889344024657,16.570203417789457Q22.72115934402466,16.63844941778946,22.735569344024658,16.71089841778946Q22.74997934402466,16.78334791778946,22.74997934402466,16.85721641778946Q22.74997934402466,16.93108491778946,22.735569344024658,17.00353441778946Q22.72115934402466,17.07598341778946,22.692889344024657,17.14422941778946Q22.664619344024658,17.21247441778946,22.62357934402466,17.27389441778946Q22.58253934402466,17.335313417789457,22.53030934402466,17.38754641778946Q22.478079344024657,17.43977941778946,22.41665934402466,17.480818417789457Q22.355239344024657,17.52185741778946,22.286989344024658,17.55012641778946Q22.21874934402466,17.578394417789458,22.14629934402466,17.59280541778946Q22.07384934402466,17.60721641778946,21.99997934402466,17.60721641778946L19.428589344024658,17.60721641778946Q19.35472084402466,17.60721641778946,19.282271344024657,17.59280541778946Q19.20982234402466,17.578394417789458,19.141576344024656,17.55012641778946Q19.07333134402466,17.52185741778946,19.011911344024657,17.480818417789457Q18.95049234402466,17.43977941778946,18.89825934402466,17.38754641778946Q18.846026344024658,17.335313417789457,18.80498734402466,17.27389441778946Q18.76394834402466,17.21247441778946,18.735679344024657,17.14422941778946Q18.70741134402466,17.07598341778946,18.693000344024657,17.00353441778946Q18.678589344024658,16.93108491778946,18.678589344024658,16.85721641778946Q18.678589344024658,16.78334791778946,18.693000344024657,16.71089841778946Q18.70741134402466,16.63844941778946,18.735679344024657,16.570203417789457Q18.76394834402466,16.50195841778946,18.80498734402466,16.44053841778946Q18.846026344024658,16.37911941778946,18.89825934402466,16.32688641778946Q18.95049234402466,16.27465341778946,19.011911344024657,16.23361441778946Q19.07333134402466,16.19257541778946,19.141576344024656,16.164306417789458Q19.20982234402466,16.13603841778946,19.282271344024657,16.12162741778946Q19.35472084402466,16.10721641778946,19.428589344024658,16.10721641778946Z" fill-rule="evenodd" fill="#E53935" fill-opacity="1" style="mix-blend-mode:passthrough"/></g><g><path d="M21.142850399017334,19.535738945007324Q21.068981899017334,19.535738945007324,20.996532399017333,19.550149945007323Q20.924083399017334,19.564560945007326,20.855837399017332,19.592828945007323Q20.787592399017335,19.621097945007325,20.726172399017333,19.662136945007326Q20.664753399017336,19.703175945007324,20.612520399017335,19.755408945007325Q20.560287399017334,19.807641945007326,20.519248399017336,19.869060945007323Q20.478209399017334,19.930480945007325,20.449940399017333,19.998725945007322Q20.421672399017336,20.066971945007325,20.407261399017333,20.139420945007323Q20.392850399017334,20.211870445007325,20.392850399017334,20.285738945007324Q20.392850399017334,20.359607445007324,20.407261399017333,20.432056945007325Q20.421672399017336,20.504505945007324,20.449940399017333,20.572751945007326Q20.478209399017334,20.640996945007323,20.519248399017336,20.702416945007325Q20.560287399017334,20.763835945007322,20.612520399017335,20.816068945007324Q20.664753399017336,20.868301945007325,20.726172399017333,20.909340945007322Q20.787592399017335,20.950379945007324,20.855837399017332,20.978648945007325Q20.924083399017334,21.006916945007323,20.996532399017333,21.021327945007325Q21.068981899017334,21.035738945007324,21.142850399017334,21.035738945007324L21.999981399017333,21.035738945007324Q22.073849399017334,21.035738945007324,22.146300399017335,21.021327945007325Q22.218750399017335,21.006916945007323,22.286990399017334,20.978648945007325Q22.355240399017333,20.950379945007324,22.416660399017335,20.909340945007322Q22.478080399017333,20.868301945007325,22.530310399017335,20.816068945007324Q22.582540399017333,20.763835945007322,22.623580399017335,20.702416945007325Q22.664620399017334,20.640996945007323,22.692890399017333,20.572751945007326Q22.721160399017336,20.504505945007324,22.735570399017334,20.432056945007325Q22.749980399017335,20.359607445007324,22.749980399017335,20.285738945007324Q22.749980399017335,20.211870445007325,22.735570399017334,20.139420945007323Q22.721160399017336,20.066971945007325,22.692890399017333,19.998725945007322Q22.664620399017334,19.930480945007325,22.623580399017335,19.869060945007323Q22.582540399017333,19.807641945007326,22.530310399017335,19.755408945007325Q22.478080399017333,19.703175945007324,22.416660399017335,19.662136945007326Q22.355240399017333,19.621097945007325,22.286990399017334,19.592828945007323Q22.218750399017335,19.564560945007326,22.146300399017335,19.550149945007323Q22.073849399017334,19.535738945007324,21.999981399017333,19.535738945007324L21.142850399017334,19.535738945007324Z" fill-rule="evenodd" fill="#E53935" fill-opacity="1" style="mix-blend-mode:passthrough"/></g><g><path d="M15.757812020950318,16.335510135803222Q15.678632020950317,16.17715113580322,15.678632020950317,16.000100135803223Q15.678632020950317,15.926231635803223,15.693043020950316,15.853782135803222Q15.707454020950317,15.781333135803223,15.735722020950318,15.713087135803223Q15.763991020950318,15.644842135803223,15.805030020950317,15.583422135803223Q15.846069020950317,15.522003135803223,15.898302020950318,15.469770135803223Q15.950535020950317,15.417537135803222,16.011954020950316,15.376498135803223Q16.073374020950318,15.335459135803223,16.141619020950316,15.307190135803223Q16.209865020950318,15.278922135803223,16.282314020950317,15.264511135803222Q16.354763520950318,15.250100135803223,16.428632020950317,15.250100135803223Q16.533095020950316,15.250100135803223,16.633582020950318,15.278646135803223Q16.73406902095032,15.307193135803223,16.822930020950317,15.362112135803223Q16.91179202095032,15.417031135803223,16.982263020950317,15.494143135803222Q17.05273502095032,15.571255135803222,17.099452020950316,15.664690135803223L20.099412020950318,21.664600135803223Q20.17859202095032,21.82296013580322,20.17859202095032,22.000010135803223Q20.17859202095032,22.073880135803222,20.164182020950317,22.146330135803222Q20.149762020950316,22.21878013580322,20.121502020950317,22.28703013580322Q20.093232020950317,22.355270135803224,20.05219202095032,22.416690135803222Q20.011152020950316,22.478110135803224,19.958922020950318,22.530340135803222Q19.906682020950317,22.582580135803223,19.84526202095032,22.623620135803222Q19.783852020950317,22.66465013580322,19.715602020950318,22.692920135803224Q19.64735202095032,22.721190135803223,19.57490202095032,22.735600135803224Q19.50246202095032,22.750010135803223,19.42859202095032,22.750010135803223Q19.324122020950316,22.750010135803223,19.22364202095032,22.721470135803223Q19.123152020950318,22.692920135803224,19.034292020950318,22.638000135803225Q18.945432020950317,22.583080135803222,18.874962020950317,22.505970135803224Q18.804482020950317,22.428860135803223,18.757772020950316,22.335420135803222L15.757812020950318,16.335510135803222L15.757812020950318,16.335510135803222Z" fill-rule="evenodd" fill="#E53935" fill-opacity="1" style="mix-blend-mode:passthrough"/></g><g><path d="M17.0993688671875,16.33541Q17.1785488671875,16.177051,17.1785488671875,16Q17.1785488671875,15.9261315,17.1641388671875,15.853682Q17.1497188671875,15.781233,17.1214588671875,15.712987Q17.0931888671875,15.644742,17.0521488671875,15.583322Q17.0111088671875,15.521903,16.9588788671875,15.46967Q16.9066388671875,15.417437,16.8452188671875,15.376398Q16.7838088671875,15.335359,16.7155588671875,15.30709Q16.6473088671875,15.278822,16.5748588671875,15.264410999999999Q16.5024188671875,15.25,16.4285488671875,15.25Q16.3240788671875,15.25,16.2235988671875,15.278546Q16.1231088671875,15.307093,16.0342488671875,15.362012Q15.9453888671875,15.416931,15.8749188671875,15.494043Q15.8044388671875,15.571155,15.7577288671875,15.66459L12.757768867187501,21.6645Q12.6785888671875,21.82286,12.6785888671875,21.99991Q12.6785888671875,22.07378,12.692999867187499,22.14623Q12.7074108671875,22.21868,12.7356788671875,22.286929999999998Q12.7639478671875,22.35517,12.8049868671875,22.41659Q12.8460258671875,22.47801,12.8982588671875,22.53024Q12.9504918671875,22.58248,13.0119108671875,22.62352Q13.0733308671875,22.66455,13.1415758671875,22.69282Q13.2098218671875,22.72109,13.2822708671875,22.735500000000002Q13.3547203671875,22.74991,13.4285888671875,22.74991Q13.5330518671875,22.74991,13.6335388671875,22.72137Q13.7340258671875,22.69282,13.8228868671875,22.637900000000002Q13.9117488671875,22.58298,13.9822198671875,22.50587Q14.0526918671875,22.42876,14.099408867187499,22.33532L17.0993688671875,16.33541L17.0993688671875,16.33541Z" fill-rule="evenodd" fill="#E53935" fill-opacity="1" style="mix-blend-mode:passthrough"/></g><g><path d="M14.28582763671875,19.5357666015625L18.57147763671875,19.5357666015625Q18.64534763671875,19.5357666015625,18.71779763671875,19.5501776015625Q18.79024763671875,19.5645886015625,18.85849763671875,19.5928566015625Q18.926737636718748,19.6211256015625,18.98815763671875,19.662164601562502Q19.04957763671875,19.7032036015625,19.10180763671875,19.7554366015625Q19.15404763671875,19.807669601562502,19.19507763671875,19.8690886015625Q19.23611763671875,19.9305086015625,19.26438763671875,19.9987536015625Q19.29265763671875,20.0669996015625,19.30706763671875,20.1394486015625Q19.32147763671875,20.2118981015625,19.32147763671875,20.2857666015625Q19.32147763671875,20.3596351015625,19.30706763671875,20.4320846015625Q19.29265763671875,20.5045336015625,19.26438763671875,20.5727796015625Q19.23611763671875,20.6410246015625,19.19507763671875,20.7024446015625Q19.15404763671875,20.763863601562498,19.10180763671875,20.8160966015625Q19.04957763671875,20.8683296015625,18.98815763671875,20.909368601562498Q18.926737636718748,20.9504076015625,18.85849763671875,20.9786766015625Q18.79024763671875,21.0069446015625,18.71779763671875,21.0213556015625Q18.64534763671875,21.0357666015625,18.57147763671875,21.0357666015625L14.28582763671875,21.0357666015625Q14.21195913671875,21.0357666015625,14.13950963671875,21.0213556015625Q14.06706063671875,21.0069446015625,13.99881463671875,20.9786766015625Q13.93056963671875,20.9504076015625,13.86914963671875,20.909368601562498Q13.80773063671875,20.8683296015625,13.75549763671875,20.8160966015625Q13.70326463671875,20.763863601562498,13.66222563671875,20.7024446015625Q13.62118663671875,20.6410246015625,13.59291763671875,20.5727796015625Q13.56464963671875,20.5045336015625,13.550238636718749,20.4320846015625Q13.53582763671875,20.3596351015625,13.53582763671875,20.2857666015625Q13.53582763671875,20.2118981015625,13.550238636718749,20.1394486015625Q13.56464963671875,20.0669996015625,13.59291763671875,19.9987536015625Q13.62118663671875,19.9305086015625,13.66222563671875,19.8690886015625Q13.70326463671875,19.807669601562502,13.75549763671875,19.7554366015625Q13.80773063671875,19.7032036015625,13.86914963671875,19.662164601562502Q13.93056963671875,19.6211256015625,13.99881463671875,19.5928566015625Q14.06706063671875,19.5645886015625,14.13950963671875,19.5501776015625Q14.21195913671875,19.5357666015625,14.28582763671875,19.5357666015625Z" fill-rule="evenodd" fill="#E53935" fill-opacity="1" style="mix-blend-mode:passthrough"/></g><g><path d="M14.285805344581604,19.75L18.571455344581604,19.75Q18.645325344581604,19.75,18.717775344581604,19.764411Q18.790225344581604,19.778822,18.858475344581603,19.80709Q18.926715344581602,19.835359,18.988135344581604,19.876398000000002Q19.049555344581606,19.917437,19.101785344581604,19.96967Q19.154025344581605,20.021903000000002,19.195055344581604,20.083322Q19.236095344581603,20.144742,19.264365344581606,20.212987Q19.292635344581605,20.281233,19.307045344581603,20.353682Q19.321455344581604,20.4261315,19.321455344581604,20.5Q19.321455344581604,20.5738685,19.307045344581603,20.646318Q19.292635344581605,20.718767,19.264365344581606,20.787013Q19.236095344581603,20.855258,19.195055344581604,20.916678Q19.154025344581605,20.978096999999998,19.101785344581604,21.03033Q19.049555344581606,21.082563,18.988135344581604,21.123601999999998Q18.926715344581602,21.164641,18.858475344581603,21.19291Q18.790225344581604,21.221178,18.717775344581604,21.235589Q18.645325344581604,21.25,18.571455344581604,21.25L14.285805344581604,21.25Q14.211936844581604,21.25,14.139487344581603,21.235589Q14.067038344581604,21.221178,13.998792344581604,21.19291Q13.930547344581605,21.164641,13.869127344581605,21.123601999999998Q13.807708344581604,21.082563,13.755475344581605,21.03033Q13.703242344581604,20.978096999999998,13.662203344581604,20.916678Q13.621164344581604,20.855258,13.592895344581605,20.787013Q13.564627344581604,20.718767,13.550216344581603,20.646318Q13.535805344581604,20.5738685,13.535805344581604,20.5Q13.535805344581604,20.4261315,13.550216344581603,20.353682Q13.564627344581604,20.281233,13.592895344581605,20.212987Q13.621164344581604,20.144742,13.662203344581604,20.083322Q13.703242344581604,20.021903000000002,13.755475344581605,19.96967Q13.807708344581604,19.917437,13.869127344581605,19.876398000000002Q13.930547344581605,19.835359,13.998792344581604,19.80709Q14.067038344581604,19.778822,14.139487344581603,19.764411Q14.211936844581604,19.75,14.285805344581604,19.75Z" fill-rule="evenodd" fill="#E53935" fill-opacity="1" style="mix-blend-mode:passthrough"/></g></g></g></svg>