<svg xmlns="http://www.w3.org/2000/svg" xmlns:xlink="http://www.w3.org/1999/xlink" fill="none" version="1.1" width="24" height="24" viewBox="0 0 24 24"><defs><clipPath id="master_svg0_72_03346"><rect x="0" y="0" width="24" height="24" rx="0"/></clipPath></defs><g clip-path="url(#master_svg0_72_03346)"><g><g><path d="M5.762715258789063,12.4767C7.923525258789063,12.0125,7.6285352587890625,9.427340000000001,7.565245258789062,8.86247C7.458735258789062,7.99117,6.434655258789062,6.46968,5.045045258789063,6.59124Q3.2954792587890624,6.7471,3.0400850587890624,9.27427C2.8030952587890625,10.44446,3.6055232587890624,12.9421,5.762715258789063,12.4767ZM9.775415258789064,8.14312C10.968185258789063,8.14312,11.932325258789062,6.76857,11.932325258789062,5.07059C11.932325258789062,3.37233,10.968185258789063,2,9.775415258789064,2C8.582085258789062,2,7.615435258789063,3.37233,7.615435258789063,5.07059C7.615435258789063,6.76857,8.581805258789062,8.14312,9.775415258789064,8.14312ZM14.917915258789062,8.34526C16.514615258789064,8.55438,17.53761525878906,6.8511,17.742215258789063,5.56046C17.951415258789062,4.2715,16.91971525878906,2.772317,15.791915258789063,2.514971C14.659115258789063,2.254559,13.245015258789062,4.06797,13.117515258789062,5.25098C12.962265258789062,6.69803,13.322815258789063,8.140889999999999,14.917915258789062,8.34526ZM21.241115258789062,10.51361C21.241115258789062,9.89631,20.730015258789063,8.035499999999999,18.82681525878906,8.035499999999999C16.91971525878906,8.035499999999999,16.667715258789062,9.79148,16.667715258789062,11.0322C16.667715258789062,12.2163,16.766415258789063,13.868,19.13461525878906,13.8167C21.50041525878906,13.7643,21.241115258789062,11.13508,21.241115258789062,10.51361ZM18.82681525878906,15.9326Q16.358515258789062,14.0233,14.917915258789062,11.95898C12.961705258789063,8.91516,10.186385258789063,10.15477,9.258485258789062,11.70052C8.333385258789063,13.2502,6.895255258789062,14.2288,6.689495258789062,14.4887C6.481775258789062,14.7432,3.7084042587890624,16.2419,4.323745258789063,18.9784Q4.940485258789062,21.7128,7.103255258789063,21.6609Q8.697235258789062,21.8168,10.545775258789062,21.4033Q12.398215258789062,20.9909,13.991915258789062,21.5045Q18.313015258789065,22.9535,19.493815258789063,20.1653Q20.67591525878906,17.3794,18.82681525878906,15.9326Z" fill="#2319DC" fill-opacity="1" style="mix-blend-mode:passthrough"/></g><g><path d="M10.158772619781494,13.270803451538086L10.158772619781494,15.107633451538085L8.662092619781493,15.107633451538085Q7.166254619781494,15.231703451538086,6.642641319781494,16.927183451538085C6.460017619781494,18.059163451538087,6.803796619781494,18.725813451538087,6.8637406197814945,18.868283451538087C6.924244619781494,19.010483451538086,7.407707619781494,19.838563451538086,8.621662619781494,20.081683451538087L11.430162619781495,20.081683451538087L11.430162619781495,13.290877751538085L10.158772619781494,13.270803451538086ZM10.136192619781493,18.966983451538084L9.004762619781495,18.966983451538084Q8.216552619781494,18.926003451538087,7.976492619781494,18.018463451538086C7.852692619781494,17.616403451538087,7.994892619781494,17.151903451538086,8.057342619781494,16.969283451538086C8.114502619781494,16.786373451538086,8.379102619781495,16.363693451538087,8.924742619781494,16.200863451538087L10.135912619781493,16.200863451538087L10.136192619781493,18.966983451538084Z" fill="#FFFFFF" fill-opacity="1" style="mix-blend-mode:passthrough"/></g><g><path d="M12.118559837341309,15.272414517822266L12.118559837341309,18.847934517822267Q12.17711063734131,19.737634517822265,13.431779837341308,20.061894517822267L16.66379983734131,20.061894517822267L16.66379983734131,15.271857117822266L15.268889837341309,15.271857117822266L15.268889837341309,18.867734517822264L13.937829837341308,18.867734517822264Q13.512349837341308,18.805834517822266,13.432329837341308,18.464004517822264L13.432329837341308,15.251224517822266L12.118559837341309,15.272414517822266Z" fill="#FFFFFF" fill-opacity="1" style="mix-blend-mode:passthrough"/></g></g></g></svg>