<svg xmlns="http://www.w3.org/2000/svg" xmlns:xlink="http://www.w3.org/1999/xlink" fill="none" version="1.1" width="24" height="24" viewBox="0 0 24 24"><defs><clipPath id="master_svg0_63_19695"><rect x="0" y="0" width="24" height="24" rx="0"/></clipPath></defs><g clip-path="url(#master_svg0_63_19695)"><g><path d="M18.25,7L18.25,12Q18.25,12.07387,18.264400000000002,12.14632Q18.2788,12.21877,18.3071,12.28701Q18.3354,12.355260000000001,18.3764,12.41668Q18.4174,12.478100000000001,18.4697,12.53033Q18.521900000000002,12.58256,18.5833,12.6236Q18.6447,12.66464,18.713,12.692910000000001Q18.7812,12.72118,18.8537,12.73559Q18.926099999999998,12.75,19,12.75Q19.0739,12.75,19.1463,12.73559Q19.2188,12.72118,19.287,12.692910000000001Q19.3553,12.66464,19.4167,12.6236Q19.4781,12.58256,19.5303,12.53033Q19.5826,12.478100000000001,19.6236,12.41668Q19.6646,12.355260000000001,19.6929,12.28701Q19.7212,12.21877,19.7356,12.14632Q19.75,12.07387,19.75,12L19.75,7Q19.75,5.860913,18.944499999999998,5.0554565Q18.1391,4.25,17,4.25L5,4.25Q3.860913,4.25,3.0554564,5.0554564Q2.25,5.860913,2.25,7L2.25,19Q2.25,20.1391,3.0554565,20.944499999999998Q3.860912,21.75,5,21.75L11.5,21.75Q11.57387,21.75,11.64632,21.7356Q11.71877,21.7212,11.78701,21.6929Q11.85526,21.6646,11.91668,21.6236Q11.9781,21.5826,12.03033,21.5303Q12.08256,21.4781,12.1236,21.4167Q12.16464,21.3553,12.19291,21.287Q12.22118,21.2188,12.23559,21.1463Q12.25,21.0739,12.25,21Q12.25,20.926099999999998,12.23559,20.8537Q12.22118,20.7812,12.19291,20.713Q12.16464,20.6447,12.1236,20.5833Q12.08256,20.521900000000002,12.03033,20.4697Q11.9781,20.4174,11.91668,20.3764Q11.85526,20.3354,11.78701,20.3071Q11.71877,20.2788,11.64632,20.264400000000002Q11.57387,20.25,11.5,20.25L5,20.25Q3.75,20.25,3.75,19L3.75,7Q3.75,5.75,5,5.75L17,5.75Q18.25,5.75,18.25,7Z" fill-rule="evenodd" fill="#231F2E" fill-opacity="1"/></g><g><path d="M14.25,3Q14.25,2.9261315,14.264410999999999,2.853682Q14.278822,2.781233,14.30709,2.712987Q14.335359,2.644742,14.376398,2.583322Q14.417437,2.521903,14.46967,2.46967Q14.521903,2.417437,14.583322,2.376398Q14.644742,2.335359,14.712987,2.30709Q14.781233,2.278822,14.853682,2.264411Q14.9261315,2.25,15,2.25Q15.0738685,2.25,15.146318,2.264411Q15.218767,2.278822,15.287013,2.30709Q15.355258,2.335359,15.416678,2.376398Q15.478097,2.417437,15.53033,2.46967Q15.582563,2.521903,15.623602,2.583322Q15.664641,2.644742,15.69291,2.712987Q15.721178,2.781233,15.735589000000001,2.853682Q15.75,2.9261315,15.75,3L15.75,7Q15.75,7.07387,15.735589000000001,7.14632Q15.721178,7.21877,15.69291,7.28701Q15.664641,7.35526,15.623602,7.41668Q15.582563,7.4781,15.53033,7.53033Q15.478097,7.58256,15.416678,7.6236Q15.355258,7.66464,15.287013,7.69291Q15.218767,7.72118,15.146318,7.73559Q15.0738685,7.75,15,7.75Q14.9261315,7.75,14.853682,7.73559Q14.781233,7.72118,14.712987,7.69291Q14.644742,7.66464,14.583322,7.6236Q14.521903,7.58256,14.46967,7.53033Q14.417437,7.4781,14.376398,7.41668Q14.335359,7.35526,14.30709,7.28701Q14.278822,7.21877,14.264410999999999,7.14632Q14.25,7.07387,14.25,7L14.25,3Z" fill-rule="evenodd" fill="#231F2E" fill-opacity="1"/></g><g><path d="M6.25,3Q6.25,2.9261315,6.264411,2.853682Q6.278822,2.781233,6.30709,2.712987Q6.335359,2.644742,6.376398,2.583322Q6.417437,2.521903,6.46967,2.46967Q6.521903,2.417437,6.583322,2.376398Q6.644742,2.335359,6.712987,2.30709Q6.781233,2.278822,6.853682,2.264411Q6.9261315,2.25,7,2.25Q7.0738685,2.25,7.146318,2.264411Q7.218767,2.278822,7.287013,2.30709Q7.355258,2.335359,7.416678,2.376398Q7.478097,2.417437,7.53033,2.46967Q7.582563,2.521903,7.623602,2.583322Q7.664641,2.644742,7.69291,2.712987Q7.721178,2.781233,7.735589,2.853682Q7.75,2.9261315,7.75,3L7.75,7Q7.75,7.07387,7.735589,7.14632Q7.721178,7.21877,7.69291,7.28701Q7.664641,7.35526,7.623602,7.41668Q7.582563,7.4781,7.53033,7.53033Q7.478097,7.58256,7.416678,7.6236Q7.355258,7.66464,7.287013,7.69291Q7.218767,7.72118,7.146318,7.73559Q7.0738685,7.75,7,7.75Q6.9261315,7.75,6.853682,7.73559Q6.781233,7.72118,6.712987,7.69291Q6.644742,7.66464,6.583322,7.6236Q6.521903,7.58256,6.46967,7.53033Q6.417437,7.4781,6.376398,7.41668Q6.335359,7.35526,6.30709,7.28701Q6.278822,7.21877,6.264411,7.14632Q6.25,7.07387,6.25,7L6.25,3Z" fill-rule="evenodd" fill="#231F2E" fill-opacity="1"/></g><g><path d="M3,10.25L19,10.25Q19.0739,10.25,19.1463,10.264410999999999Q19.2188,10.278822,19.287,10.30709Q19.3553,10.335359,19.4167,10.376398Q19.4781,10.417437,19.5303,10.46967Q19.5826,10.521903,19.6236,10.583322Q19.6646,10.644742,19.6929,10.712987Q19.7212,10.781233,19.7356,10.853682Q19.75,10.9261315,19.75,11Q19.75,11.0738685,19.7356,11.146318Q19.7212,11.218767,19.6929,11.287013Q19.6646,11.355258,19.6236,11.416678Q19.5826,11.478097,19.5303,11.53033Q19.4781,11.582563,19.4167,11.623602Q19.3553,11.664641,19.287,11.69291Q19.2188,11.721178,19.1463,11.735589000000001Q19.0739,11.75,19,11.75L3,11.75Q2.9261315,11.75,2.853682,11.735589000000001Q2.781233,11.721178,2.712987,11.69291Q2.644742,11.664641,2.583322,11.623602Q2.521903,11.582563,2.46967,11.53033Q2.417437,11.478097,2.376398,11.416678Q2.335359,11.355258,2.30709,11.287013Q2.278822,11.218767,2.264411,11.146318Q2.25,11.0738685,2.25,11Q2.25,10.9261315,2.264411,10.853682Q2.278822,10.781233,2.30709,10.712987Q2.335359,10.644742,2.376398,10.583322Q2.417437,10.521903,2.46967,10.46967Q2.521903,10.417437,2.583322,10.376398Q2.644742,10.335359,2.712987,10.30709Q2.781233,10.278822,2.853682,10.264410999999999Q2.9261315,10.25,3,10.25Z" fill-rule="evenodd" fill="#231F2E" fill-opacity="1"/></g><g><path d="M16,18.25L22,18.25Q22.07387,18.25,22.14632,18.264411Q22.21877,18.278822,22.287010000000002,18.30709Q22.35526,18.335359,22.41668,18.376398000000002Q22.4781,18.417437,22.53033,18.46967Q22.58256,18.521903000000002,22.6236,18.583322Q22.66464,18.644742,22.69291,18.712987Q22.72118,18.781233,22.735590000000002,18.853682Q22.75,18.9261315,22.75,19Q22.75,19.0738685,22.735590000000002,19.146318Q22.72118,19.218767,22.69291,19.287013Q22.66464,19.355258,22.6236,19.416678Q22.58256,19.478096999999998,22.53033,19.53033Q22.4781,19.582563,22.41668,19.623601999999998Q22.35526,19.664641,22.287010000000002,19.69291Q22.21877,19.721178,22.14632,19.735589Q22.07387,19.75,22,19.75L16,19.75Q15.9261315,19.75,15.853682,19.735589Q15.781233,19.721178,15.712987,19.69291Q15.644742,19.664641,15.583322,19.623601999999998Q15.521903,19.582563,15.46967,19.53033Q15.417437,19.478096999999998,15.376398,19.416678Q15.335359,19.355258,15.30709,19.287013Q15.278822,19.218767,15.264410999999999,19.146318Q15.25,19.0738685,15.25,19Q15.25,18.9261315,15.264410999999999,18.853682Q15.278822,18.781233,15.30709,18.712987Q15.335359,18.644742,15.376398,18.583322Q15.417437,18.521903000000002,15.46967,18.46967Q15.521903,18.417437,15.583322,18.376398000000002Q15.644742,18.335359,15.712987,18.30709Q15.781233,18.278822,15.853682,18.264411Q15.9261315,18.25,16,18.25Z" fill-rule="evenodd" fill="#2882FF" fill-opacity="1" style="mix-blend-mode:passthrough"/></g><g><path d="M18.25,16Q18.25,15.9261315,18.264411,15.853682Q18.278822,15.781233,18.30709,15.712987Q18.335359,15.644742,18.376398000000002,15.583322Q18.417437,15.521903,18.46967,15.46967Q18.521903000000002,15.417437,18.583322,15.376398Q18.644742,15.335359,18.712987,15.30709Q18.781233,15.278822,18.853682,15.264410999999999Q18.9261315,15.25,19,15.25Q19.0738685,15.25,19.146318,15.264410999999999Q19.218767,15.278822,19.287013,15.30709Q19.355258,15.335359,19.416678,15.376398Q19.478096999999998,15.417437,19.53033,15.46967Q19.582563,15.521903,19.623601999999998,15.583322Q19.664641,15.644742,19.69291,15.712987Q19.721178,15.781233,19.735589,15.853682Q19.75,15.9261315,19.75,16L19.75,22Q19.75,22.07387,19.735589,22.14632Q19.721178,22.21877,19.69291,22.287010000000002Q19.664641,22.35526,19.623601999999998,22.41668Q19.582563,22.4781,19.53033,22.53033Q19.478096999999998,22.58256,19.416678,22.6236Q19.355258,22.66464,19.287013,22.69291Q19.218767,22.72118,19.146318,22.735590000000002Q19.0738685,22.75,19,22.75Q18.9261315,22.75,18.853682,22.735590000000002Q18.781233,22.72118,18.712987,22.69291Q18.644742,22.66464,18.583322,22.6236Q18.521903000000002,22.58256,18.46967,22.53033Q18.417437,22.4781,18.376398000000002,22.41668Q18.335359,22.35526,18.30709,22.287010000000002Q18.278822,22.21877,18.264411,22.14632Q18.25,22.07387,18.25,22L18.25,16Z" fill-rule="evenodd" fill="#2882FF" fill-opacity="1" style="mix-blend-mode:passthrough"/></g></g></svg>