<svg xmlns="http://www.w3.org/2000/svg" xmlns:xlink="http://www.w3.org/1999/xlink" fill="none" version="1.1" width="24" height="24" viewBox="0 0 24 24"><defs><clipPath id="master_svg0_48_03375"><rect x="0" y="0" width="24" height="24" rx="0"/></clipPath></defs><g clip-path="url(#master_svg0_48_03375)"><g></g><g><path d="M17.920099999999998,3.176373Q15.4496,2.25,12,2.25Q8.55039,2.25,6.0799199999999995,3.176373Q3.25,4.23753,3.250001,6Q3.25,7.76247,6.0799199999999995,8.82363Q8.55039,9.75,12,9.75Q15.4496,9.75,17.920099999999998,8.82363Q20.75,7.76247,20.75,6Q20.75,4.23753,17.920099999999998,3.176373ZM6.60658,4.5808800000000005Q8.822379999999999,3.75,12,3.75Q15.1776,3.75,17.3934,4.5808800000000005Q18.3705,4.94727,18.8737,5.393409999999999Q19.25,5.72699,19.25,6Q19.25,6.27301,18.8737,6.606590000000001Q18.3705,7.05273,17.3934,7.41912Q15.1776,8.25,12,8.25Q8.822379999999999,8.25,6.60658,7.41912Q5.62948,7.05273,5.12626,6.606590000000001Q4.75,6.27301,4.750001,6Q4.750001,5.72699,5.12626,5.393409999999999Q5.6294900000000005,4.94727,6.60658,4.5808800000000005Z" fill-rule="evenodd" fill="#231F2E" fill-opacity="1"/></g><g><path d="M3.25,6Q3.25,5.9261315,3.264411,5.853682Q3.278822,5.781233,3.30709,5.712987Q3.335359,5.644742,3.376398,5.583322Q3.417437,5.521903,3.46967,5.46967Q3.521903,5.417437,3.583322,5.376398Q3.644742,5.335359,3.712987,5.30709Q3.781233,5.278822,3.853682,5.264411Q3.9261315,5.25,4,5.25Q4.0738685,5.25,4.146318,5.264411Q4.218767,5.278822,4.287013,5.30709Q4.355258,5.335359,4.416678,5.376398Q4.478097,5.417437,4.53033,5.46967Q4.582563,5.521903,4.623602,5.583322Q4.664641,5.644742,4.69291,5.712987Q4.721178,5.781233,4.735589,5.853682Q4.75,5.9261315,4.75,6L4.750001,12Q4.750001,12.72295,6.60658,13.41912Q8.822379999999999,14.25,12,14.25Q12.31895,14.25,12.60053,14.24043Q12.61326,14.24,12.626,14.24Q12.69987,14.24,12.77232,14.25441Q12.84476,14.26882,12.91301,14.29709Q12.98126,14.32536,13.04268,14.3664Q13.1041,14.40744,13.15633,14.45967Q13.20856,14.5119,13.2496,14.57332Q13.29064,14.63474,13.31891,14.70299Q13.34718,14.77123,13.36159,14.84368Q13.376,14.91613,13.376,14.99Q13.376,15.06226,13.36221,15.13319Q13.34841,15.20413,13.32132,15.27112Q13.29424,15.33811,13.25486,15.3987Q13.21548,15.45929,13.16526,15.51125Q13.11504,15.5632,13.05582,15.60462Q12.9966,15.64603,12.93057,15.67537Q12.86453,15.70472,12.79411,15.72092Q12.72369,15.73711,12.65147,15.73957Q12.34441,15.75,12,15.75Q8.55039,15.75,6.0799199999999995,14.82363Q3.250001,13.76247,3.250001,12L3.25,6Z" fill-rule="evenodd" fill="#231F2E" fill-opacity="1"/></g><g><path d="M19.25,6Q19.25,5.9261315,19.264411,5.853682Q19.278822,5.781233,19.30709,5.712987Q19.335359,5.644742,19.376398000000002,5.583322Q19.417437,5.521903,19.46967,5.46967Q19.521903000000002,5.417437,19.583322,5.376398Q19.644742,5.335359,19.712987,5.30709Q19.781233,5.278822,19.853682,5.264411Q19.9261315,5.25,20,5.25Q20.0738685,5.25,20.146318,5.264411Q20.218767,5.278822,20.287013,5.30709Q20.355258,5.335359,20.416678,5.376398Q20.478096999999998,5.417437,20.53033,5.46967Q20.582563,5.521903,20.623601999999998,5.583322Q20.664641,5.644742,20.69291,5.712987Q20.721178,5.781233,20.735589,5.853682Q20.75,5.9261315,20.75,6L20.75,11.5Q20.75,11.57387,20.735589,11.64632Q20.721178,11.71877,20.69291,11.78701Q20.664641,11.855260000000001,20.623601999999998,11.91668Q20.582563,11.978100000000001,20.53033,12.03033Q20.478096999999998,12.08256,20.416678,12.1236Q20.355258,12.16464,20.287013,12.192910000000001Q20.218767,12.22118,20.146318,12.23559Q20.0738685,12.25,20,12.25Q19.9261315,12.25,19.853682,12.23559Q19.781233,12.22118,19.712987,12.192910000000001Q19.644742,12.16464,19.583322,12.1236Q19.521903000000002,12.08256,19.46967,12.03033Q19.417437,11.978100000000001,19.376398000000002,11.91668Q19.335359,11.855260000000001,19.30709,11.78701Q19.278822,11.71877,19.264411,11.64632Q19.25,11.57387,19.25,11.5L19.25,6Z" fill-rule="evenodd" fill="#231F2E" fill-opacity="1"/></g><g><path d="M3.25,12Q3.25,11.9261315,3.264411,11.853682Q3.278822,11.781233,3.30709,11.712987Q3.335359,11.644742,3.376398,11.583322Q3.417437,11.521903,3.46967,11.46967Q3.521903,11.417437,3.583322,11.376398Q3.644742,11.335359,3.712987,11.30709Q3.781233,11.278822,3.853682,11.264410999999999Q3.9261315,11.25,4,11.25Q4.0738685,11.25,4.146318,11.264410999999999Q4.218767,11.278822,4.287013,11.30709Q4.355258,11.335359,4.416678,11.376398Q4.478097,11.417437,4.53033,11.46967Q4.582563,11.521903,4.623602,11.583322Q4.664641,11.644742,4.69291,11.712987Q4.721178,11.781233,4.735589,11.853682Q4.75,11.9261315,4.75,12L4.75,18Q4.75,18.27301,5.12626,18.60659Q5.62948,19.05273,6.60658,19.41912Q8.822379999999999,20.25,12,20.25Q12.07387,20.25,12.14632,20.264409999999998Q12.21877,20.27882,12.28701,20.307090000000002Q12.35526,20.33536,12.41668,20.3764Q12.4781,20.41744,12.53033,20.46967Q12.58256,20.521900000000002,12.6236,20.58332Q12.66464,20.64474,12.69291,20.712989999999998Q12.72118,20.78123,12.73559,20.85368Q12.75,20.92613,12.75,21Q12.75,21.07387,12.73559,21.14632Q12.72118,21.21877,12.69291,21.287010000000002Q12.66464,21.35526,12.6236,21.41668Q12.58256,21.478099999999998,12.53033,21.53033Q12.4781,21.58256,12.41668,21.6236Q12.35526,21.66464,12.28701,21.692909999999998Q12.21877,21.72118,12.14632,21.735590000000002Q12.07387,21.75,12,21.75Q8.55039,21.75,6.0799199999999995,20.82363Q3.25,19.76247,3.25,18L3.25,12Z" fill-rule="evenodd" fill="#231F2E" fill-opacity="1"/></g><g><path d="M20.945539450683594,17.0554559Q20.140089450683593,16.25,19.000999450683594,16.25Q17.861912450683594,16.25,17.056455950683592,17.0554559Q16.250999450683594,17.860912,16.250999450683594,19Q16.250999450683594,20.13909,17.056455950683592,20.94454Q17.861912450683594,21.75,19.000999450683594,21.75Q20.140089450683593,21.75,20.945539450683594,20.94454Q21.750999450683594,20.13909,21.750999450683594,19Q21.750999450683594,17.860912,20.945539450683594,17.0554559ZM18.117119450683592,18.11612Q18.483229450683595,17.75,19.000999450683594,17.75Q19.518769450683592,17.75,19.884879450683595,18.11612Q20.250999450683594,18.48223,20.250999450683594,19Q20.250999450683594,19.51777,19.884879450683595,19.88388Q19.518769450683592,20.25,19.000999450683594,20.25Q18.483229450683595,20.25,18.117119450683592,19.88388Q17.750999450683594,19.51777,17.750999450683594,19Q17.750999450683594,18.48223,18.117119450683592,18.11612Z" fill-rule="evenodd" fill="#2882FF" fill-opacity="1"/></g><g><path d="M18.250999450683594,15.5Q18.250999450683594,15.4261315,18.265410450683593,15.353682Q18.279821450683595,15.281233,18.308089450683593,15.212987Q18.336358450683594,15.144742,18.377397450683596,15.083322Q18.418436450683593,15.021903,18.470669450683594,14.96967Q18.522902450683596,14.917437,18.584321450683593,14.876398Q18.645741450683595,14.835359,18.713986450683592,14.80709Q18.782232450683594,14.778822,18.854681450683593,14.764410999999999Q18.927130950683594,14.75,19.000999450683594,14.75Q19.074867950683593,14.75,19.147317450683595,14.764410999999999Q19.219766450683593,14.778822,19.288012450683595,14.80709Q19.356257450683593,14.835359,19.417677450683595,14.876398Q19.479096450683592,14.917437,19.531329450683593,14.96967Q19.583562450683594,15.021903,19.624601450683592,15.083322Q19.665640450683593,15.144742,19.693909450683595,15.212987Q19.722177450683592,15.281233,19.736588450683595,15.353682Q19.750999450683594,15.4261315,19.750999450683594,15.5L19.750999450683594,17Q19.750999450683594,17.07387,19.736588450683595,17.14632Q19.722177450683592,17.21877,19.693909450683595,17.28701Q19.665640450683593,17.35526,19.624601450683592,17.41668Q19.583562450683594,17.4781,19.531329450683593,17.53033Q19.479096450683592,17.58256,19.417677450683595,17.6236Q19.356257450683593,17.66464,19.288012450683595,17.69291Q19.219766450683593,17.72118,19.147317450683595,17.735590000000002Q19.074867950683593,17.75,19.000999450683594,17.75Q18.927130950683594,17.75,18.854681450683593,17.735590000000002Q18.782232450683594,17.72118,18.713986450683592,17.69291Q18.645741450683595,17.66464,18.584321450683593,17.6236Q18.522902450683596,17.58256,18.470669450683594,17.53033Q18.418436450683593,17.4781,18.377397450683596,17.41668Q18.336358450683594,17.35526,18.308089450683593,17.28701Q18.279821450683595,17.21877,18.265410450683593,17.14632Q18.250999450683594,17.07387,18.250999450683594,17L18.250999450683594,15.5Z" fill-rule="evenodd" fill="#2882FF" fill-opacity="1"/></g><g><path d="M18.250999450683594,21Q18.250999450683594,20.9261315,18.265410450683593,20.853682Q18.279821450683595,20.781233,18.308089450683593,20.712987Q18.336358450683594,20.644742,18.377397450683596,20.583322Q18.418436450683593,20.521903000000002,18.470669450683594,20.46967Q18.522902450683596,20.417437,18.584321450683593,20.376398000000002Q18.645741450683595,20.335359,18.713986450683592,20.30709Q18.782232450683594,20.278822,18.854681450683593,20.264411Q18.927130950683594,20.25,19.000999450683594,20.25Q19.074867950683593,20.25,19.147317450683595,20.264411Q19.219766450683593,20.278822,19.288012450683595,20.30709Q19.356257450683593,20.335359,19.417677450683595,20.376398000000002Q19.479096450683592,20.417437,19.531329450683593,20.46967Q19.583562450683594,20.521903000000002,19.624601450683592,20.583322Q19.665640450683593,20.644742,19.693909450683595,20.712987Q19.722177450683592,20.781233,19.736588450683595,20.853682Q19.750999450683594,20.9261315,19.750999450683594,21L19.750999450683594,22.5Q19.750999450683594,22.57387,19.736588450683595,22.64632Q19.722177450683592,22.71877,19.693909450683595,22.78701Q19.665640450683593,22.85526,19.624601450683592,22.91668Q19.583562450683594,22.9781,19.531329450683593,23.03033Q19.479096450683592,23.08256,19.417677450683595,23.1236Q19.356257450683593,23.16464,19.288012450683595,23.19291Q19.219766450683593,23.22118,19.147317450683595,23.235590000000002Q19.074867950683593,23.25,19.000999450683594,23.25Q18.927130950683594,23.25,18.854681450683593,23.235590000000002Q18.782232450683594,23.22118,18.713986450683592,23.19291Q18.645741450683595,23.16464,18.584321450683593,23.1236Q18.522902450683596,23.08256,18.470669450683594,23.03033Q18.418436450683593,22.9781,18.377397450683596,22.91668Q18.336358450683594,22.85526,18.308089450683593,22.78701Q18.279821450683595,22.71877,18.265410450683593,22.64632Q18.250999450683594,22.57387,18.250999450683594,22.5L18.250999450683594,21Z" fill-rule="evenodd" fill="#2882FF" fill-opacity="1"/></g><g><path d="M22.40700980163574,17.899514Q22.49251980163574,17.850144,22.56233980163574,17.780325Q22.63214980163574,17.710506,22.68151980163574,17.624996Q22.73088980163574,17.539486,22.756439801635743,17.444112Q22.78199980163574,17.3487382,22.78199980163574,17.25Q22.78199980163574,17.1761315,22.767589801635744,17.103682Q22.753179801635742,17.031233,22.724909801635743,16.962987Q22.696639801635744,16.894742,22.65559980163574,16.833322Q22.614559801635743,16.771903000000002,22.56232980163574,16.71967Q22.510099801635743,16.667437,22.44867980163574,16.626398000000002Q22.387259801635743,16.585359,22.319009801635744,16.55709Q22.25076980163574,16.528822,22.17831980163574,16.514411Q22.10586980163574,16.5,22.03199980163574,16.5Q21.831029801635744,16.5,21.65699180163574,16.600486L21.656894801635744,16.600541L20.358087801635744,17.35043L20.35799180163574,17.350486Q20.272482801635743,17.399856,20.20266480163574,17.469675Q20.132846801635743,17.539494,20.08347780163574,17.625004Q20.034109801635744,17.710514,20.008554801635743,17.805888Q19.982999801635742,17.901262,19.982999801635742,18Q19.982999801635742,18.073869,19.99741080163574,18.146318Q20.011821801635744,18.218767,20.04008980163574,18.28701Q20.068358801635743,18.35526,20.109397801635744,18.41668Q20.150436801635742,18.4781,20.202669801635743,18.53033Q20.254902801635744,18.58256,20.31632180163574,18.6236Q20.377741801635743,18.66464,20.44598680163574,18.69291Q20.514232801635742,18.72118,20.58668180163574,18.73559Q20.659131301635743,18.75,20.732999801635742,18.75Q20.93396680163574,18.75,21.108007801635743,18.64951L21.10826780163574,18.64936L22.40700980163574,17.899514Z" fill-rule="evenodd" fill="#2882FF" fill-opacity="1"/></g><g><path d="M17.64479026702881,20.649639Q17.730340267028808,20.600282,17.80020026702881,20.530458Q17.87006026702881,20.460633,17.919460267028807,20.375104Q17.96886026702881,20.289575,17.994430267028807,20.194172000000002Q18.02000026702881,20.0987699,18.02000026702881,20Q18.02000026702881,19.9261315,18.005590267028808,19.853682Q17.99118026702881,19.781233,17.962910267028807,19.712987Q17.934640267028808,19.644742,17.89360026702881,19.583322Q17.85256026702881,19.521903000000002,17.80033026702881,19.46967Q17.748100267028807,19.417437,17.68668026702881,19.376398000000002Q17.625260267028807,19.335359,17.557010267028808,19.30709Q17.48877026702881,19.278822,17.41632026702881,19.264411Q17.34387026702881,19.25,17.27000026702881,19.25Q17.06917026702881,19.25,16.89520826702881,19.350361L16.89497626702881,19.350495L15.595285267028808,20.100317L15.59520826702881,20.100361Q15.509655267028808,20.149718,15.439797267028808,20.219542Q15.36994026702881,20.289367,15.320541267028808,20.374896Q15.271142267028809,20.460425,15.245571267028808,20.555827999999998Q15.220000267028809,20.651229999999998,15.220000267028809,20.75Q15.220000267028809,20.823869,15.234411267028808,20.896318Q15.248822267028808,20.968767,15.27709026702881,21.03701Q15.305359267028809,21.10526,15.346398267028809,21.16668Q15.387437267028808,21.2281,15.43967026702881,21.28033Q15.491903267028809,21.33256,15.55332226702881,21.3736Q15.61474226702881,21.41464,15.682987267028809,21.44291Q15.751233267028809,21.47118,15.823682267028808,21.48559Q15.896131767028809,21.5,15.970000267028809,21.5Q16.170833267028808,21.5,16.344792267028808,21.39964L17.64479026702881,20.649639Z" fill-rule="evenodd" fill="#2882FF" fill-opacity="1"/></g><g><path d="M16.34493426702881,16.600443L17.64479026702881,17.350361Q17.730340267028808,17.399718,17.80020026702881,17.469542Q17.87006026702881,17.539367,17.919460267028807,17.624896Q17.96886026702881,17.710425,17.994430267028807,17.805827999999998Q18.02000026702881,17.901229999999998,18.02000026702881,18Q18.02000026702881,18.073869,18.005590267028808,18.146318Q17.99118026702881,18.218767,17.962910267028807,18.28701Q17.934640267028808,18.35526,17.89360026702881,18.41668Q17.85256026702881,18.4781,17.80033026702881,18.53033Q17.748100267028807,18.58256,17.68668026702881,18.6236Q17.625260267028807,18.66464,17.557010267028808,18.69291Q17.48877026702881,18.72118,17.41632026702881,18.73559Q17.34387026702881,18.75,17.27000026702881,18.75Q17.06917026702881,18.75,16.89520826702881,18.64964L15.595351267028809,17.899722L15.59520826702881,17.899639Q15.509655267028808,17.850282,15.439797267028808,17.780458Q15.36994026702881,17.710633,15.320541267028808,17.625104Q15.271142267028809,17.539575,15.245571267028808,17.444172000000002Q15.220000267028809,17.3487699,15.220000267028809,17.25Q15.220000267028809,17.1761315,15.234411267028808,17.103682Q15.248822267028808,17.031233,15.27709026702881,16.962987Q15.305359267028809,16.894742,15.346398267028809,16.833322Q15.387437267028808,16.771903000000002,15.43967026702881,16.71967Q15.491903267028809,16.667437,15.55332226702881,16.626398000000002Q15.61474226702881,16.585359,15.682987267028809,16.55709Q15.751233267028809,16.528822,15.823682267028808,16.514411Q15.896131767028809,16.5,15.970000267028809,16.5Q16.170833267028808,16.5,16.344792267028808,16.600361L16.34493426702881,16.600443Z" fill-rule="evenodd" fill="#2882FF" fill-opacity="1"/></g><g><path d="M21.107933801635742,19.350443L22.407789801635744,20.100361Q22.49333980163574,20.149718,22.563199801635744,20.219542Q22.633059801635742,20.289367,22.68245980163574,20.374896Q22.731859801635743,20.460425,22.75742980163574,20.555827999999998Q22.782999801635743,20.651229999999998,22.782999801635743,20.75Q22.782999801635743,20.823869,22.76858980163574,20.896318Q22.754179801635743,20.968767,22.72590980163574,21.03701Q22.69763980163574,21.10526,22.656599801635743,21.16668Q22.615559801635744,21.2281,22.563329801635742,21.28033Q22.51109980163574,21.33256,22.449679801635742,21.3736Q22.38825980163574,21.41464,22.32000980163574,21.44291Q22.251769801635742,21.47118,22.179319801635742,21.48559Q22.106869801635742,21.5,22.032999801635743,21.5Q21.832169801635743,21.5,21.658207801635744,21.39964L20.35835080163574,20.649722L20.358207801635743,20.649639Q20.272654801635742,20.600282,20.202796801635742,20.530458Q20.132939801635743,20.460633,20.083540801635742,20.375104Q20.03414180163574,20.289575,20.00857080163574,20.194172000000002Q19.982999801635742,20.0987699,19.982999801635742,20Q19.982999801635742,19.9261315,19.99741080163574,19.853682Q20.011821801635744,19.781233,20.04008980163574,19.712987Q20.068358801635743,19.644742,20.109397801635744,19.583322Q20.150436801635742,19.521903000000002,20.202669801635743,19.46967Q20.254902801635744,19.417437,20.31632180163574,19.376398000000002Q20.377741801635743,19.335359,20.44598680163574,19.30709Q20.514232801635742,19.278822,20.58668180163574,19.264411Q20.659131301635743,19.25,20.732999801635742,19.25Q20.93383280163574,19.25,21.10779180163574,19.350361L21.107933801635742,19.350443Z" fill-rule="evenodd" fill="#2882FF" fill-opacity="1"/></g></g></svg>