<svg xmlns="http://www.w3.org/2000/svg" xmlns:xlink="http://www.w3.org/1999/xlink" fill="none" version="1.1" width="24" height="24" viewBox="0 0 24 24"><defs><clipPath id="master_svg0_63_19116"><rect x="0" y="0" width="24" height="24" rx="0"/></clipPath></defs><g clip-path="url(#master_svg0_63_19116)"><g><path d="M9,5.25L20,5.25Q20.073900000000002,5.25,20.1463,5.264411Q20.2188,5.278822,20.287,5.30709Q20.3553,5.335359,20.4167,5.376398Q20.478099999999998,5.417437,20.5303,5.46967Q20.5826,5.521903,20.6236,5.583322Q20.6646,5.644742,20.6929,5.712987Q20.7212,5.781233,20.735599999999998,5.853682Q20.75,5.9261315,20.75,6Q20.75,6.0738685,20.735599999999998,6.146318Q20.7212,6.218767,20.6929,6.287013Q20.6646,6.355258,20.6236,6.416678Q20.5826,6.478097,20.5303,6.53033Q20.478099999999998,6.582563,20.4167,6.623602Q20.3553,6.664641,20.287,6.69291Q20.2188,6.721178,20.1463,6.735589Q20.073900000000002,6.75,20,6.75L9,6.75Q8.9261315,6.75,8.853682,6.735589Q8.781233,6.721178,8.712987,6.69291Q8.644742,6.664641,8.583322,6.623602Q8.521903,6.582563,8.46967,6.53033Q8.417437,6.478097,8.376398,6.416678Q8.335359,6.355258,8.30709,6.287013Q8.278822,6.218767,8.264410999999999,6.146318Q8.25,6.0738685,8.25,6Q8.25,5.9261315,8.264410999999999,5.853682Q8.278822,5.781233,8.30709,5.712987Q8.335359,5.644742,8.376398,5.583322Q8.417437,5.521903,8.46967,5.46967Q8.521903,5.417437,8.583322,5.376398Q8.644742,5.335359,8.712987,5.30709Q8.781233,5.278822,8.853682,5.264411Q8.9261315,5.25,9,5.25Z" fill-rule="evenodd" fill="#231F2E" fill-opacity="1"/></g><g><path d="M9,11.25L20,11.25Q20.073900000000002,11.25,20.1463,11.264410999999999Q20.2188,11.278822,20.287,11.30709Q20.3553,11.335359,20.4167,11.376398Q20.478099999999998,11.417437,20.5303,11.46967Q20.5826,11.521903,20.6236,11.583322Q20.6646,11.644742,20.6929,11.712987Q20.7212,11.781233,20.735599999999998,11.853682Q20.75,11.9261315,20.75,12Q20.75,12.0738685,20.735599999999998,12.146318Q20.7212,12.218767,20.6929,12.287013Q20.6646,12.355258,20.6236,12.416678Q20.5826,12.478097,20.5303,12.53033Q20.478099999999998,12.582563,20.4167,12.623602Q20.3553,12.664641,20.287,12.69291Q20.2188,12.721178,20.1463,12.735589000000001Q20.073900000000002,12.75,20,12.75L9,12.75Q8.9261315,12.75,8.853682,12.735589000000001Q8.781233,12.721178,8.712987,12.69291Q8.644742,12.664641,8.583322,12.623602Q8.521903,12.582563,8.46967,12.53033Q8.417437,12.478097,8.376398,12.416678Q8.335359,12.355258,8.30709,12.287013Q8.278822,12.218767,8.264410999999999,12.146318Q8.25,12.0738685,8.25,12Q8.25,11.9261315,8.264410999999999,11.853682Q8.278822,11.781233,8.30709,11.712987Q8.335359,11.644742,8.376398,11.583322Q8.417437,11.521903,8.46967,11.46967Q8.521903,11.417437,8.583322,11.376398Q8.644742,11.335359,8.712987,11.30709Q8.781233,11.278822,8.853682,11.264410999999999Q8.9261315,11.25,9,11.25Z" fill-rule="evenodd" fill="#231F2E" fill-opacity="1"/></g><g><path d="M9,17.25L12,17.25Q12.07387,17.25,12.14632,17.264411Q12.21877,17.278822,12.28701,17.30709Q12.35526,17.335359,12.41668,17.376398000000002Q12.4781,17.417437,12.53033,17.46967Q12.58256,17.521903000000002,12.6236,17.583322Q12.66464,17.644742,12.69291,17.712987Q12.72118,17.781233,12.73559,17.853682Q12.75,17.9261315,12.75,18Q12.75,18.0738685,12.73559,18.146318Q12.72118,18.218767,12.69291,18.287013Q12.66464,18.355258,12.6236,18.416678Q12.58256,18.478096999999998,12.53033,18.53033Q12.4781,18.582563,12.41668,18.623601999999998Q12.35526,18.664641,12.28701,18.69291Q12.21877,18.721178,12.14632,18.735589Q12.07387,18.75,12,18.75L9,18.75Q8.9261315,18.75,8.853682,18.735589Q8.781233,18.721178,8.712987,18.69291Q8.644742,18.664641,8.583322,18.623601999999998Q8.521903,18.582563,8.46967,18.53033Q8.417437,18.478096999999998,8.376398,18.416678Q8.335359,18.355258,8.30709,18.287013Q8.278822,18.218767,8.264410999999999,18.146318Q8.25,18.0738685,8.25,18Q8.25,17.9261315,8.264410999999999,17.853682Q8.278822,17.781233,8.30709,17.712987Q8.335359,17.644742,8.376398,17.583322Q8.417437,17.521903000000002,8.46967,17.46967Q8.521903,17.417437,8.583322,17.376398000000002Q8.644742,17.335359,8.712987,17.30709Q8.781233,17.278822,8.853682,17.264411Q8.9261315,17.25,9,17.25Z" fill-rule="evenodd" fill="#231F2E" fill-opacity="1"/></g><g><ellipse cx="5.0048828125" cy="6" rx="1" ry="1" fill="#231F2E" fill-opacity="1"/></g><g><ellipse cx="5.0048828125" cy="12.010009765625" rx="1" ry="1" fill="#231F2E" fill-opacity="1"/></g><g><ellipse cx="5.0048828125" cy="18.010009765625" rx="1" ry="1" fill="#231F2E" fill-opacity="1"/></g><g><g><path d="M20.25,20.83333L20.25,19.5Q20.25,19.42613,20.235590000000002,19.35368Q20.22118,19.28123,20.19291,19.21299Q20.16464,19.14474,20.1236,19.08332Q20.08256,19.0219,20.03033,18.96967Q19.9781,18.91744,19.91668,18.8764Q19.85526,18.83536,19.787010000000002,18.80709Q19.71877,18.77882,19.64632,18.76441Q19.57387,18.75,19.5,18.75Q19.42613,18.75,19.35368,18.76441Q19.28123,18.77882,19.21299,18.80709Q19.14474,18.83536,19.08332,18.8764Q19.0219,18.91744,18.96967,18.96967Q18.91744,19.0219,18.8764,19.08332Q18.83536,19.14474,18.80709,19.21299Q18.77882,19.28123,18.764409999999998,19.35368Q18.75,19.42613,18.75,19.5L18.75,20.75L16.25,20.75L16.25,18.25L17.5,18.25Q17.57387,18.25,17.64632,18.235589Q17.71877,18.221178,17.78701,18.19291Q17.85526,18.164641,17.91668,18.123601999999998Q17.9781,18.082563,18.03033,18.03033Q18.08256,17.978096999999998,18.1236,17.916678Q18.16464,17.855258,18.19291,17.787013Q18.22118,17.718767,18.235590000000002,17.646318Q18.25,17.5738685,18.25,17.5Q18.25,17.4261315,18.235590000000002,17.353682Q18.22118,17.281233,18.19291,17.212987Q18.16464,17.144742,18.1236,17.083322Q18.08256,17.021903000000002,18.03033,16.96967Q17.9781,16.917437,17.91668,16.876398000000002Q17.85526,16.835359,17.78701,16.80709Q17.71877,16.778822,17.64632,16.764411Q17.57387,16.75,17.5,16.75L16.166667,16.75Q15.5798642,16.75,15.164932,17.164932Q14.75,17.5798641,14.75,18.166667L14.75,20.83333Q14.75,21.42014,15.164932,21.83507Q15.5798643,22.25,16.166667,22.25L18.83333,22.25Q19.42014,22.25,19.83507,21.83507Q20.25,21.42014,20.25,20.83333Z" fill-rule="evenodd" fill="#2882FF" fill-opacity="1" style="mix-blend-mode:passthrough"/></g><g><path d="M16.75,16.166667L16.75,17.5Q16.75,17.57387,16.764411,17.64632Q16.778822,17.71877,16.80709,17.78701Q16.835359,17.85526,16.876398000000002,17.91668Q16.917437,17.9781,16.96967,18.03033Q17.021903000000002,18.08256,17.083322,18.1236Q17.144742,18.16464,17.212987,18.19291Q17.281233,18.22118,17.353682,18.235590000000002Q17.4261315,18.25,17.5,18.25Q17.5738685,18.25,17.646318,18.235590000000002Q17.718767,18.22118,17.787013,18.19291Q17.855258,18.16464,17.916678,18.1236Q17.978096999999998,18.08256,18.03033,18.03033Q18.082563,17.9781,18.123601999999998,17.91668Q18.164641,17.85526,18.19291,17.78701Q18.221178,17.71877,18.235589,17.64632Q18.25,17.57387,18.25,17.5L18.25,16.25L20.75,16.25L20.75,18.75L19.5,18.75Q19.42613,18.75,19.35368,18.764409999999998Q19.28123,18.77882,19.21299,18.80709Q19.14474,18.83536,19.08332,18.8764Q19.0219,18.91744,18.96967,18.96967Q18.91744,19.0219,18.8764,19.08332Q18.83536,19.14474,18.80709,19.21299Q18.77882,19.28123,18.76441,19.35368Q18.75,19.42613,18.75,19.5Q18.75,19.57387,18.76441,19.64632Q18.77882,19.71877,18.80709,19.787010000000002Q18.83536,19.85526,18.8764,19.91668Q18.91744,19.9781,18.96967,20.03033Q19.0219,20.08256,19.08332,20.1236Q19.14474,20.16464,19.21299,20.19291Q19.28123,20.22118,19.35368,20.235590000000002Q19.42613,20.25,19.5,20.25L20.83333,20.25Q21.42014,20.25,21.83507,19.83507Q22.25,19.42014,22.25,18.83333L22.25,16.166667Q22.25,15.579864,21.83507,15.164932Q21.42014,14.75,20.83333,14.75L18.166667,14.75Q17.5798642,14.75,17.164932,15.164932Q16.75,15.5798641,16.75,16.166667Z" fill-rule="evenodd" fill="#2882FF" fill-opacity="1" style="mix-blend-mode:passthrough"/></g></g><g><path d="M19.5,19.5L18.166667,19.5C17.798477,19.5,17.5,19.20152,17.5,18.83333L17.5,17.5L18.83333,17.5C19.20152,17.5,19.5,17.798477,19.5,18.166667L19.5,19.5Z" fill-rule="evenodd" fill="#2882FF" fill-opacity="1"/><path d="M19.5,20.25L18.166667,20.25Q17.5798641,20.25,17.164932,19.83507Q16.75,19.42014,16.75,18.83333L16.75,17.5Q16.75,17.4261315,16.764411,17.353682Q16.778822,17.281233,16.80709,17.212987Q16.835359,17.144742,16.876398000000002,17.083322Q16.917437,17.021903000000002,16.96967,16.96967Q17.021903000000002,16.917437,17.083322,16.876398000000002Q17.144742,16.835359,17.212987,16.80709Q17.281233,16.778822,17.353682,16.764411Q17.4261315,16.75,17.5,16.75L18.83333,16.75Q19.42014,16.75,19.83507,17.164932Q20.25,17.5798641,20.25,18.166667L20.25,19.5Q20.25,19.57387,20.235590000000002,19.64632Q20.22118,19.71877,20.19291,19.78701Q20.16464,19.85526,20.1236,19.91668Q20.08256,19.9781,20.03033,20.03033Q19.9781,20.08256,19.91668,20.1236Q19.85526,20.16464,19.78701,20.19291Q19.71877,20.22118,19.64632,20.235590000000002Q19.57387,20.25,19.5,20.25ZM19.5,18.75L19.5,19.5L18.75,19.5L18.75,18.166667Q18.75,18.25,18.83333,18.25L17.5,18.25L17.5,17.5L18.25,17.5L18.25,18.83333Q18.25,18.75,18.166667,18.75L19.5,18.75Z" fill="#2882FF" fill-opacity="1"/></g></g></svg>