<svg xmlns="http://www.w3.org/2000/svg" xmlns:xlink="http://www.w3.org/1999/xlink" fill="none" version="1.1" width="24" height="24" viewBox="0 0 24 24"><defs><clipPath id="master_svg0_63_19632"><rect x="0" y="0" width="24" height="24" rx="0"/></clipPath></defs><g clip-path="url(#master_svg0_63_19632)"><g><path d="M18.8955,5.1068999999999996Q16.0396,2.250001,12,2.25Q7.96043,2.25,5.10452,5.1068999999999996Q2.248606,7.9638,2.250001,12.00337Q2.248606,16.0424,5.10452,18.8993Q7.96043,21.7562,12,21.7562Q16.0396,21.7562,18.8955,18.8993Q21.7514,16.0424,21.75,12.00285Q21.7514,7.96381,18.8955,5.1068999999999996ZM6.16536,6.16738Q8.58191,3.75,12,3.75Q15.4181,3.75,17.834600000000002,6.16738Q20.2512,8.58475,20.25,12.00337Q20.2512,15.4215,17.834600000000002,17.8388Q15.4181,20.2562,12,20.2562Q8.58191,20.2562,6.16536,17.8388Q3.7488200000000003,15.4215,3.750001,12.00285Q3.7488200000000003,8.58475,6.16536,6.16738Z" fill-rule="evenodd" fill="#231F2E" fill-opacity="1"/></g><g><path d="M11.375962,12.416025Q11.25,12.227082,11.25,12Q11.25,11.9261315,11.264410999999999,11.853682Q11.278822,11.781233,11.30709,11.712987Q11.335359,11.644742,11.376398,11.583322Q11.417437,11.521903,11.46967,11.46967Q11.521903,11.417437,11.583322,11.376398Q11.644742,11.335359,11.712987,11.30709Q11.781233,11.278822,11.853682,11.264410999999999Q11.9261315,11.25,12,11.25Q12.0926032,11.25,12.182425,11.272524Q12.272247,11.295048,12.353893,11.338744Q12.435539,11.38244,12.504105,11.444682Q12.572671,11.506924,12.624038,11.583975L14.62404,14.58397Q14.75,14.77292,14.75,15Q14.75,15.07387,14.73559,15.14632Q14.72118,15.21877,14.69291,15.28701Q14.66464,15.35526,14.6236,15.41668Q14.58256,15.4781,14.53033,15.53033Q14.4781,15.58256,14.41668,15.6236Q14.35526,15.66464,14.28701,15.69291Q14.21877,15.72118,14.14632,15.73559Q14.07387,15.75,14,15.75Q13.907399999999999,15.75,13.81757,15.72748Q13.72775,15.70495,13.64611,15.66126Q13.56446,15.617560000000001,13.49589,15.55532Q13.42733,15.493079999999999,13.37596,15.41603L11.375962,12.416025L11.375962,12.416025Z" fill-rule="evenodd" fill="#231F2E" fill-opacity="1"/></g><g><path d="M11.25,7Q11.25,6.9261315,11.264410999999999,6.853682Q11.278822,6.781233,11.30709,6.712987Q11.335359,6.644742,11.376398,6.583322Q11.417437,6.521903,11.46967,6.46967Q11.521903,6.417437,11.583322,6.376398Q11.644742,6.335359,11.712987,6.30709Q11.781233,6.278822,11.853682,6.264411Q11.9261315,6.25,12,6.25Q12.0738685,6.25,12.146318,6.264411Q12.218767,6.278822,12.287013,6.30709Q12.355258,6.335359,12.416678,6.376398Q12.478097,6.417437,12.53033,6.46967Q12.582563,6.521903,12.623602,6.583322Q12.664641,6.644742,12.69291,6.712987Q12.721178,6.781233,12.735589000000001,6.853682Q12.75,6.9261315,12.75,7L12.75,12Q12.75,12.07387,12.735589000000001,12.14632Q12.721178,12.21877,12.69291,12.28701Q12.664641,12.355260000000001,12.623602,12.41668Q12.582563,12.478100000000001,12.53033,12.53033Q12.478097,12.58256,12.416678,12.6236Q12.355258,12.66464,12.287013,12.692910000000001Q12.218767,12.72118,12.146318,12.73559Q12.0738685,12.75,12,12.75Q11.9261315,12.75,11.853682,12.73559Q11.781233,12.72118,11.712987,12.692910000000001Q11.644742,12.66464,11.583322,12.6236Q11.521903,12.58256,11.46967,12.53033Q11.417437,12.478100000000001,11.376398,12.41668Q11.335359,12.355260000000001,11.30709,12.28701Q11.278822,12.21877,11.264410999999999,12.14632Q11.25,12.07387,11.25,12L11.25,7Z" fill-rule="evenodd" fill="#231F2E" fill-opacity="1"/></g><g><g><path d="M21.09727703125,16.41712Q21.25831703125,15.88334,21.25831703125,15.508420000000001Q21.25831703125,14.158736,20.30394703125,13.204369Q19.34957703125,12.25,17.99989703125,12.25Q16.65021703125,12.25,15.69584703125,13.204368Q14.74147903125,14.158737,14.74147803125,15.508420000000001Q14.74147803125,15.88334,14.90251703125,16.41712Q14.33938903125,16.54945,13.91165903125,16.88188Q12.85595703125,17.702379999999998,12.85595703125,19.6Q12.85595703125,19.68597,12.86438703125,19.77153Q12.87280703125,19.85709,12.88958703125,19.94141Q12.90635703125,20.02573,12.93130703125,20.108Q12.95626703125,20.190269999999998,12.98916703125,20.2697Q13.02206703125,20.34912,13.06259703125,20.42494Q13.103117031250001,20.50076,13.15088703125,20.57225Q13.19864703125,20.643729999999998,13.25318703125,20.71019Q13.30772703125,20.77664,13.36851703125,20.83744Q13.42930703125,20.898229999999998,13.49576703125,20.95277Q13.56222703125,21.00731,13.63370903125,21.05507Q13.70519203125,21.10283,13.78101303125,21.14336Q13.85683303125,21.183889999999998,13.93626103125,21.21679Q14.01568903125,21.24969,14.09795903125,21.27465Q14.18022903125,21.299599999999998,14.26454903125,21.31637Q14.34886903125,21.33315,14.43442703125,21.34157Q14.51998503125,21.35,14.60595703125,21.35L21.39383703125,21.35Q21.47980703125,21.35,21.56536703125,21.34157Q21.65092703125,21.33315,21.73524703125,21.31637Q21.81956703125,21.299599999999998,21.90183703125,21.27465Q21.984107031249998,21.24969,22.06352703125,21.21679Q22.14295703125,21.183889999999998,22.21877703125,21.14336Q22.29459703125,21.10283,22.36608703125,21.05507Q22.43756703125,21.00731,22.50402703125,20.95277Q22.57047703125,20.898229999999998,22.63127703125,20.83744Q22.692067031249998,20.77664,22.74660703125,20.71019Q22.80114703125,20.643729999999998,22.84890703125,20.57225Q22.89666703125,20.50076,22.93719703125,20.42494Q22.977727031249998,20.34912,23.01062703125,20.2697Q23.04352703125,20.190269999999998,23.068477031249998,20.108Q23.093437031249998,20.02573,23.11020703125,19.94141Q23.12698703125,19.85709,23.13540703125,19.77153Q23.14383703125,19.68597,23.14383703125,19.6Q23.14383703125,17.702379999999998,22.08813703125,16.88188Q21.66040703125,16.54945,21.09727703125,16.41712Z" fill-rule="evenodd" fill="#FFFFFF" fill-opacity="1" style="mix-blend-mode:passthrough"/></g><g><path d="M14.888916015625,20.25L21.111136015625,20.25Q21.197106015625,20.25,21.282666015625,20.25843Q21.368226015624998,20.26685,21.452546015625,20.28363Q21.536866015625,20.3004,21.619136015625,20.32535Q21.701406015625,20.35031,21.780836015625,20.38321Q21.860266015625,20.41611,21.936086015625,20.45664Q22.011906015625,20.49716,22.083386015625,20.54493Q22.154866015625,20.59269,22.221326015625,20.64723Q22.287786015625,20.70177,22.348576015625,20.76256Q22.409366015625,20.82335,22.463906015625,20.88981Q22.518446015625,20.95627,22.566206015625,21.027752Q22.613976015625,21.099235,22.654496015625,21.175056Q22.695026015625,21.250876,22.727926015625002,21.330304Q22.760826015625,21.409731999999998,22.785786015625,21.492002Q22.810736015625,21.574272,22.827516015625,21.658592Q22.844286015625002,21.742912,22.852716015625,21.82847Q22.861136015625,21.914028,22.861136015625,22Q22.861136015625,22.085972,22.852716015625,22.17153Q22.844286015625002,22.257088,22.827516015625,22.341408Q22.810736015625,22.425728,22.785786015625,22.507998Q22.760826015625,22.590268000000002,22.727926015625002,22.669696Q22.695026015625,22.749124,22.654496015625,22.824944Q22.613976015625,22.900765,22.566206015625,22.972248Q22.518446015625,23.04373,22.463906015625,23.11019Q22.409366015625,23.17665,22.348576015625,23.23744Q22.287786015625,23.29823,22.221326015625,23.35277Q22.154866015625,23.40731,22.083386015625,23.45507Q22.011906015625,23.50284,21.936086015625,23.54336Q21.860266015625,23.58389,21.780836015625,23.61679Q21.701406015625,23.64969,21.619136015625,23.67465Q21.536866015625,23.6996,21.452546015625,23.71637Q21.368226015624998,23.73315,21.282666015625,23.74157Q21.197106015625,23.75,21.111136015625,23.75L14.888916015625,23.75Q14.802944015625,23.75,14.717386015625,23.74157Q14.631828015625,23.73315,14.547508015625,23.71637Q14.463188015625,23.6996,14.380918015625,23.67465Q14.298648015625,23.64969,14.219220015625,23.61679Q14.139792015625,23.58389,14.063972015625,23.54336Q13.988151015625,23.50284,13.916668015625,23.45507Q13.845186015625,23.40731,13.778726015625,23.35277Q13.712266015625,23.29823,13.651476015625,23.23744Q13.590686015625,23.17665,13.536146015625,23.11019Q13.481606015625,23.04373,13.433846015625,22.972248Q13.386076015625001,22.900765,13.345556015625,22.824944Q13.305026015625,22.749124,13.272126015625,22.669696Q13.239226015625,22.590268000000002,13.214266015625,22.507998Q13.189316015625,22.425728,13.172546015625,22.341408Q13.155766015625,22.257088,13.147346015625,22.17153Q13.138916015625,22.085972,13.138916015625,22Q13.138916015625,21.914028,13.147346015625,21.82847Q13.155766015625,21.742912,13.172546015625,21.658592Q13.189316015625,21.574272,13.214266015625,21.492002Q13.239226015625,21.409731999999998,13.272126015625,21.330304Q13.305026015625,21.250876,13.345556015625,21.175056Q13.386076015625001,21.099235,13.433846015625,21.027752Q13.481606015625,20.95627,13.536146015625,20.88981Q13.590686015625,20.82335,13.651476015625,20.76256Q13.712266015625,20.70177,13.778726015625,20.64723Q13.845186015625,20.59269,13.916668015625,20.54493Q13.988151015625,20.49716,14.063972015625,20.45664Q14.139792015625,20.41611,14.219220015625,20.38321Q14.298648015625,20.35031,14.380918015625,20.32535Q14.463188015625,20.3004,14.547508015625,20.28363Q14.631828015625,20.26685,14.717386015625,20.25843Q14.802944015625,20.25,14.888916015625,20.25Z" fill-rule="evenodd" fill="#FFFFFF" fill-opacity="1" style="mix-blend-mode:passthrough"/></g></g><g><g><path d="M22.14379703125,20Q22.14379703125,17.32273,19.96460703125,17.32273Q19.81213703125,17.32273,19.720107031250002,17.31088Q19.76592703125,17.12078,19.94174703125,16.68392Q20.25831703125,15.89735,20.25831703125,15.508420000000001Q20.25831703125,14.572951,19.59683703125,13.9114752Q18.93536703125,13.25,17.99989703125,13.25Q17.06442703125,13.25,16.40295703125,13.9114753Q15.74147703125,14.57295,15.74147703125,15.508420000000001Q15.74147703125,15.89735,16.05804703125,16.68392Q16.23386703125,17.12079,16.27968703125,17.31088Q16.18765703125,17.32273,16.03518703125,17.32273Q13.85595703125,17.32273,13.85595703125,20Q13.85595703125,20.07387,13.870368031249999,20.14632Q13.88477903125,20.21877,13.91304703125,20.287010000000002Q13.94131603125,20.35526,13.98235503125,20.41668Q14.02339403125,20.4781,14.07562703125,20.53033Q14.12786003125,20.58256,14.18927903125,20.6236Q14.25069903125,20.66464,14.31894403125,20.69291Q14.38719003125,20.72118,14.45963903125,20.735590000000002Q14.53208853125,20.75,14.60595703125,20.75L21.39379703125,20.75Q21.467667031250002,20.75,21.54011703125,20.735590000000002Q21.612567031250002,20.72118,21.680807031249998,20.69291Q21.74905703125,20.66464,21.81047703125,20.6236Q21.87189703125,20.58256,21.924127031250002,20.53033Q21.97635703125,20.4781,22.01739703125,20.41668Q22.05843703125,20.35526,22.08670703125,20.287010000000002Q22.11497703125,20.21877,22.12938703125,20.14632Q22.14379703125,20.07387,22.14379703125,20ZM18.22073703125,17.64734Q18.39215703125,18.82273,19.96460703125,18.82273Q20.33582703125,18.82273,20.44116703125,18.947490000000002Q20.52625703125,19.04827,20.57561703125,19.25L15.42414703125,19.25Q15.47350903125,19.04827,15.55860203125,18.947499999999998Q15.66395703125,18.82273,16.03518703125,18.82273Q17.60762703125,18.82273,17.779057031249998,17.64734Q17.85450703125,17.13001,17.44957703125,16.12387Q17.24147703125,15.606819999999999,17.24147703125,15.508420000000001Q17.24147703125,15.19427,17.46361703125,14.972135Q17.68574703125,14.75,17.99989703125,14.75Q18.31404703125,14.75,18.53617703125,14.972135Q18.75831703125,15.19427,18.75831703125,15.508420000000001Q18.75831703125,15.606819999999999,18.55021703125,16.12387Q18.14528703125,17.13001,18.22073703125,17.64734Z" fill-rule="evenodd" fill="#2882FF" fill-opacity="1" style="mix-blend-mode:passthrough"/></g><g><path d="M14.888916015625,21.25L21.111136015625,21.25Q21.185006015625,21.25,21.257456015625,21.264411Q21.329906015625,21.278822,21.398146015625,21.30709Q21.466396015625,21.335359,21.527816015625,21.376398000000002Q21.589236015624998,21.417437,21.641466015625,21.46967Q21.693706015625,21.521903000000002,21.734736015625,21.583322Q21.775776015625,21.644742,21.804046015625,21.712987Q21.832316015625,21.781233,21.846726015625002,21.853682Q21.861136015625,21.9261315,21.861136015625,22Q21.861136015625,22.0738685,21.846726015625002,22.146318Q21.832316015625,22.218767,21.804046015625,22.287013Q21.775776015625,22.355258,21.734736015625,22.416678Q21.693706015625,22.478096999999998,21.641466015625,22.53033Q21.589236015624998,22.582563,21.527816015625,22.623601999999998Q21.466396015625,22.664641,21.398146015625,22.69291Q21.329906015625,22.721178,21.257456015625,22.735589Q21.185006015625,22.75,21.111136015625,22.75L14.888916015625,22.75Q14.815047515625,22.75,14.742598015625,22.735589Q14.670149015625,22.721178,14.601903015625,22.69291Q14.533658015625,22.664641,14.472238015625,22.623601999999998Q14.410819015625,22.582563,14.358586015625,22.53033Q14.306353015625,22.478096999999998,14.265314015625,22.416678Q14.224275015625,22.355258,14.196006015625,22.287013Q14.167738015625,22.218767,14.153327015624999,22.146318Q14.138916015625,22.0738685,14.138916015625,22Q14.138916015625,21.9261315,14.153327015624999,21.853682Q14.167738015625,21.781233,14.196006015625,21.712987Q14.224275015625,21.644742,14.265314015625,21.583322Q14.306353015625,21.521903000000002,14.358586015625,21.46967Q14.410819015625,21.417437,14.472238015625,21.376398000000002Q14.533658015625,21.335359,14.601903015625,21.30709Q14.670149015625,21.278822,14.742598015625,21.264411Q14.815047515625,21.25,14.888916015625,21.25Z" fill-rule="evenodd" fill="#2882FF" fill-opacity="1" style="mix-blend-mode:passthrough"/></g></g></g></svg>