<svg xmlns="http://www.w3.org/2000/svg" xmlns:xlink="http://www.w3.org/1999/xlink" fill="none" version="1.1" width="24" height="24" viewBox="0 0 24 24"><defs><clipPath id="master_svg0_63_19097"><rect x="0" y="0" width="24" height="24" rx="0"/></clipPath></defs><g clip-path="url(#master_svg0_63_19097)"><g><path d="M9,5.25L20,5.25Q20.073900000000002,5.25,20.1463,5.264411Q20.2188,5.278822,20.287,5.30709Q20.3553,5.335359,20.4167,5.376398Q20.478099999999998,5.417437,20.5303,5.46967Q20.5826,5.521903,20.6236,5.583322Q20.6646,5.644742,20.6929,5.712987Q20.7212,5.781233,20.735599999999998,5.853682Q20.75,5.9261315,20.75,6Q20.75,6.0738685,20.735599999999998,6.146318Q20.7212,6.218767,20.6929,6.287013Q20.6646,6.355258,20.6236,6.416678Q20.5826,6.478097,20.5303,6.53033Q20.478099999999998,6.582563,20.4167,6.623602Q20.3553,6.664641,20.287,6.69291Q20.2188,6.721178,20.1463,6.735589Q20.073900000000002,6.75,20,6.75L9,6.75Q8.9261315,6.75,8.853682,6.735589Q8.781233,6.721178,8.712987,6.69291Q8.644742,6.664641,8.583322,6.623602Q8.521903,6.582563,8.46967,6.53033Q8.417437,6.478097,8.376398,6.416678Q8.335359,6.355258,8.30709,6.287013Q8.278822,6.218767,8.264410999999999,6.146318Q8.25,6.0738685,8.25,6Q8.25,5.9261315,8.264410999999999,5.853682Q8.278822,5.781233,8.30709,5.712987Q8.335359,5.644742,8.376398,5.583322Q8.417437,5.521903,8.46967,5.46967Q8.521903,5.417437,8.583322,5.376398Q8.644742,5.335359,8.712987,5.30709Q8.781233,5.278822,8.853682,5.264411Q8.9261315,5.25,9,5.25Z" fill-rule="evenodd" fill="#231F2E" fill-opacity="1"/></g><g><path d="M9,11.25L20,11.25Q20.073900000000002,11.25,20.1463,11.264410999999999Q20.2188,11.278822,20.287,11.30709Q20.3553,11.335359,20.4167,11.376398Q20.478099999999998,11.417437,20.5303,11.46967Q20.5826,11.521903,20.6236,11.583322Q20.6646,11.644742,20.6929,11.712987Q20.7212,11.781233,20.735599999999998,11.853682Q20.75,11.9261315,20.75,12Q20.75,12.0738685,20.735599999999998,12.146318Q20.7212,12.218767,20.6929,12.287013Q20.6646,12.355258,20.6236,12.416678Q20.5826,12.478097,20.5303,12.53033Q20.478099999999998,12.582563,20.4167,12.623602Q20.3553,12.664641,20.287,12.69291Q20.2188,12.721178,20.1463,12.735589000000001Q20.073900000000002,12.75,20,12.75L9,12.75Q8.9261315,12.75,8.853682,12.735589000000001Q8.781233,12.721178,8.712987,12.69291Q8.644742,12.664641,8.583322,12.623602Q8.521903,12.582563,8.46967,12.53033Q8.417437,12.478097,8.376398,12.416678Q8.335359,12.355258,8.30709,12.287013Q8.278822,12.218767,8.264410999999999,12.146318Q8.25,12.0738685,8.25,12Q8.25,11.9261315,8.264410999999999,11.853682Q8.278822,11.781233,8.30709,11.712987Q8.335359,11.644742,8.376398,11.583322Q8.417437,11.521903,8.46967,11.46967Q8.521903,11.417437,8.583322,11.376398Q8.644742,11.335359,8.712987,11.30709Q8.781233,11.278822,8.853682,11.264410999999999Q8.9261315,11.25,9,11.25Z" fill-rule="evenodd" fill="#231F2E" fill-opacity="1"/></g><g><path d="M9,17.25L12,17.25Q12.07387,17.25,12.14632,17.264411Q12.21877,17.278822,12.28701,17.30709Q12.35526,17.335359,12.41668,17.376398000000002Q12.4781,17.417437,12.53033,17.46967Q12.58256,17.521903000000002,12.6236,17.583322Q12.66464,17.644742,12.69291,17.712987Q12.72118,17.781233,12.73559,17.853682Q12.75,17.9261315,12.75,18Q12.75,18.0738685,12.73559,18.146318Q12.72118,18.218767,12.69291,18.287013Q12.66464,18.355258,12.6236,18.416678Q12.58256,18.478096999999998,12.53033,18.53033Q12.4781,18.582563,12.41668,18.623601999999998Q12.35526,18.664641,12.28701,18.69291Q12.21877,18.721178,12.14632,18.735589Q12.07387,18.75,12,18.75L9,18.75Q8.9261315,18.75,8.853682,18.735589Q8.781233,18.721178,8.712987,18.69291Q8.644742,18.664641,8.583322,18.623601999999998Q8.521903,18.582563,8.46967,18.53033Q8.417437,18.478096999999998,8.376398,18.416678Q8.335359,18.355258,8.30709,18.287013Q8.278822,18.218767,8.264410999999999,18.146318Q8.25,18.0738685,8.25,18Q8.25,17.9261315,8.264410999999999,17.853682Q8.278822,17.781233,8.30709,17.712987Q8.335359,17.644742,8.376398,17.583322Q8.417437,17.521903000000002,8.46967,17.46967Q8.521903,17.417437,8.583322,17.376398000000002Q8.644742,17.335359,8.712987,17.30709Q8.781233,17.278822,8.853682,17.264411Q8.9261315,17.25,9,17.25Z" fill-rule="evenodd" fill="#231F2E" fill-opacity="1"/></g><g><ellipse cx="5.0048828125" cy="6" rx="1" ry="1" fill="#231F2E" fill-opacity="1"/></g><g><ellipse cx="5.0048828125" cy="12.010009765625" rx="1" ry="1" fill="#231F2E" fill-opacity="1"/></g><g><ellipse cx="5.0048828125" cy="18.010009765625" rx="1" ry="1" fill="#231F2E" fill-opacity="1"/></g><g><g><path d="M15.676855671875,18.12294L15.489013671875,18.12294Q15.415145171875,18.12294,15.342695671875,18.108530000000002Q15.270246671875,18.09412,15.202000671875,18.06585Q15.133755671875,18.03759,15.072335671875,17.99655Q15.010916671875,17.95551,14.958683671875,17.90327Q14.906450671875,17.85104,14.865411671875,17.78962Q14.824372671875,17.7282,14.796103671875,17.659959999999998Q14.767835671875,17.59171,14.753424671874999,17.51926Q14.739013671875,17.44681,14.739013671875,17.37294L14.739013671875,15.87021Q14.739013671875,15.796341,14.753424671874999,15.723892Q14.767835671875,15.651443,14.796103671875,15.5831974Q14.824372671875,15.5149518,14.865411671875,15.453532299999999Q14.906450671875,15.392113,14.958683671875,15.33988Q15.010916671875,15.287647,15.072335671875,15.246608Q15.133755671875,15.205569,15.202000671875,15.1773Q15.270246671875,15.149032,15.342695671875,15.134621Q15.415145171875,15.12021,15.489013671875,15.12021Q15.594435671875,15.12021,15.695772671875,15.149273Q15.797110671875,15.178335,15.886508671875,15.234208Q15.975906671875,15.290082,16.046437671875,15.368435Q16.116968671875,15.446788,16.163166671875,15.541549Q16.363109671875,15.389023,16.588473671875,15.258829Q17.699133671875,14.617184,18.971283671875,14.781331Q20.243423671875,14.945478,21.154833671875,15.848037Q21.592533671875,16.28148,21.870313671875,16.83008L21.870713671875002,16.83088L21.870733671875,16.83091Q21.951533671874998,16.99059,21.951533671874998,17.16955Q21.951533671874998,17.24342,21.937123671875,17.31587Q21.922713671875,17.38832,21.894443671875,17.45656Q21.866173671875,17.52481,21.825133671875,17.58623Q21.784093671875,17.64765,21.731863671875,17.69988Q21.679633671875,17.752110000000002,21.618213671875,17.79315Q21.556793671875,17.83419,21.488543671875,17.86246Q21.420303671875,17.89073,21.347853671875,17.90514Q21.275403671875,17.91955,21.201533671874998,17.91955Q21.097533671875,17.91955,20.997453671875,17.89125Q20.897373671875002,17.86295,20.808773671875,17.80849Q20.720173671875,17.75402,20.649733671875,17.677500000000002Q20.579293671875,17.60099,20.532333671875,17.50819Q20.364403671875,17.17632,20.099363671875,16.91386Q19.548383671875,16.368231,18.779323671874998,16.268998Q18.010263671875002,16.169765,17.338823671875,16.55766Q17.262603671875,16.60169,17.191203671875,16.64995Q17.250143671875,16.66621,17.305683671875,16.69181Q17.361213671875,16.7174,17.411873671875,16.75166Q17.462523671875,16.78591,17.506963671875,16.82792Q17.551393671875,16.86992,17.588443671874998,16.91857Q17.625483671875,16.96722,17.654163671875,17.02123Q17.682843671875,17.07524,17.702393671875,17.13317Q17.721933671875,17.19111,17.731843671875,17.25145Q17.741743671875,17.3118,17.741743671875,17.37294Q17.741743671875,17.44681,17.727333671875,17.51926Q17.712923671875,17.59171,17.684653671875,17.659959999999998Q17.656393671875,17.7282,17.615353671875,17.78962Q17.574313671875,17.85104,17.522073671875,17.90327Q17.469843671875,17.95551,17.408423671875,17.99655Q17.347003671875,18.03759,17.278763671875,18.06585Q17.210513671875,18.09412,17.138063671875,18.108530000000002Q17.065613671875,18.12294,16.991743671875,18.12294L15.676855671875,18.12294Z" fill-rule="evenodd" fill="#2882FF" fill-opacity="1"/></g><g><path d="M21.3121555859375,18.87701416015625L19.997265585937498,18.87701416015625Q19.9233955859375,18.87701416015625,19.8509455859375,18.89142516015625Q19.7784955859375,18.90583616015625,19.7102455859375,18.93410416015625Q19.6420055859375,18.96237316015625,19.5805855859375,19.003412160156252Q19.5191655859375,19.04445116015625,19.4669355859375,19.09668416015625Q19.4146955859375,19.148917160156252,19.3736555859375,19.21033616015625Q19.3326255859375,19.27175616015625,19.3043555859375,19.34000116015625Q19.2760855859375,19.40824716015625,19.2616755859375,19.48069616015625Q19.247265585937498,19.55314566015625,19.247265585937498,19.62701416015625Q19.247265585937498,19.68816266015625,19.2571655859375,19.74850316015625Q19.2670755859375,19.80884416015625,19.2866255859375,19.86678416015625Q19.3061755859375,19.92472316015625,19.3348455859375,19.97873116015625Q19.3635255859375,20.03273916015625,19.4005655859375,20.08138816015625Q19.4376155859375,20.13003716015625,19.482055585937502,20.17204316015625Q19.5264855859375,20.21404916015625,19.5771455859375,20.24830216015625Q19.6277955859375,20.28255516015625,19.6833355859375,20.30815016015625Q19.7388655859375,20.33374616015625,19.7978155859375,20.35000716015625Q19.7264055859375,20.39826316015625,19.6501855859375,20.44229416015625Q18.9787455859375,20.83019416015625,18.2096855859375,20.73096416015625Q17.4406255859375,20.63172416015625,16.8896455859375,20.08609516015625Q16.6246095859375,19.82363716015625,16.4566715859375,19.49177016015625Q16.4097125859375,19.39897216015625,16.3392745859375,19.32245416015625Q16.2688365859375,19.24593616015625,16.1802355859375,19.19147216015625Q16.0916345859375,19.13700816015625,15.9915565859375,19.10870816015625Q15.8914775859375,19.08040916015625,15.7874755859375,19.08040916015625Q15.7136070859375,19.08040916015625,15.6411575859375,19.09482016015625Q15.5687085859375,19.10923116015625,15.5004625859375,19.13749916015625Q15.4322175859375,19.16576716015625,15.3707975859375,19.20680616015625Q15.3093785859375,19.24784616015625,15.2571455859375,19.30007816015625Q15.2049125859375,19.35231116015625,15.1638735859375,19.41373116015625Q15.1228345859375,19.47515016015625,15.0945655859375,19.54339616015625Q15.0662975859375,19.61164176015625,15.051886585937499,19.68409096015625Q15.0374755859375,19.75654016015625,15.0374755859375,19.83040916015625Q15.0374755859375,20.00936916015625,15.1182795859375,20.16904816015625Q15.3961455859375,20.71815416015625,15.8341731859375,21.15192416015625Q16.7455885859375,22.05448416015625,18.017725585937498,22.21862416015625Q19.2898755859375,22.38277416015625,20.4005355859375,21.74113416015625Q20.6259055859375,21.61093416015625,20.8258455859375,21.45840416015625Q20.8720455859375,21.55317416015625,20.9425755859375,21.63152416015625Q21.0131055859375,21.70987416015625,21.1025055859375,21.76575416015625Q21.191895585937502,21.82162416015625,21.293235585937502,21.85068416015625Q21.3945755859375,21.87974416015625,21.499995585937498,21.87974416015625Q21.5738655859375,21.87974416015625,21.6463155859375,21.86533416015625Q21.7187655859375,21.85092416015625,21.7870055859375,21.82265416015625Q21.8552555859375,21.79439416015625,21.9166755859375,21.75335416015625Q21.9780955859375,21.71231416015625,22.0303255859375,21.66007416015625Q22.0825555859375,21.60784416015625,22.1235955859375,21.54642416015625Q22.1646355859375,21.48500416015625,22.1929055859375,21.41676416015625Q22.2211755859375,21.34851416015625,22.2355855859375,21.27606416015625Q22.249995585937498,21.20361416015625,22.249995585937498,21.12974416015625L22.249995585937498,19.62701416015625Q22.249995585937498,19.55314566015625,22.2355855859375,19.48069616015625Q22.2211755859375,19.40824716015625,22.1929055859375,19.34000116015625Q22.1646355859375,19.27175616015625,22.1235955859375,19.21033616015625Q22.0825555859375,19.148917160156252,22.0303255859375,19.09668416015625Q21.9780955859375,19.04445116015625,21.9166755859375,19.003412160156252Q21.8552555859375,18.96237316015625,21.7870055859375,18.93410416015625Q21.7187655859375,18.90583616015625,21.6463155859375,18.89142516015625Q21.5738655859375,18.87701416015625,21.499995585937498,18.87701416015625L21.3121555859375,18.87701416015625Z" fill-rule="evenodd" fill="#2882FF" fill-opacity="1"/></g></g></g></svg>