<svg xmlns="http://www.w3.org/2000/svg" xmlns:xlink="http://www.w3.org/1999/xlink" fill="none" version="1.1" width="24" height="24" viewBox="0 0 24 24"><defs><clipPath id="master_svg0_63_04247"><rect x="0" y="0" width="24" height="24" rx="0"/></clipPath></defs><g clip-path="url(#master_svg0_63_04247)"><g><rect x="3.5048828125" y="3.5" width="17" height="17" rx="1.7894736528396606" fill-opacity="0" stroke-opacity="1" stroke="#231F2E" fill="none" stroke-width="1.3421052694320679"/></g><g><path d="M8,7.25L16,7.25Q16.07387,7.25,16.14632,7.264411Q16.21877,7.278822,16.287010000000002,7.30709Q16.35526,7.335359,16.41668,7.376398Q16.478099999999998,7.417437,16.53033,7.46967Q16.58256,7.521903,16.6236,7.583322Q16.66464,7.644742,16.692909999999998,7.712987Q16.72118,7.781233,16.735590000000002,7.853682Q16.75,7.9261315,16.75,8Q16.75,8.0738685,16.735590000000002,8.146318Q16.72118,8.218767,16.692909999999998,8.287013Q16.66464,8.355258,16.6236,8.416678Q16.58256,8.478097,16.53033,8.53033Q16.478099999999998,8.582563,16.41668,8.623602Q16.35526,8.664641,16.287010000000002,8.69291Q16.21877,8.721178,16.14632,8.735589000000001Q16.07387,8.75,16,8.75L8,8.75Q7.9261315,8.75,7.853682,8.735589000000001Q7.781233,8.721178,7.712987,8.69291Q7.644742,8.664641,7.583322,8.623602Q7.521903,8.582563,7.46967,8.53033Q7.417437,8.478097,7.376398,8.416678Q7.335359,8.355258,7.30709,8.287013Q7.278822,8.218767,7.264411,8.146318Q7.25,8.0738685,7.25,8Q7.25,7.9261315,7.264411,7.853682Q7.278822,7.781233,7.30709,7.712987Q7.335359,7.644742,7.376398,7.583322Q7.417437,7.521903,7.46967,7.46967Q7.521903,7.417437,7.583322,7.376398Q7.644742,7.335359,7.712987,7.30709Q7.781233,7.278822,7.853682,7.264411Q7.9261315,7.25,8,7.25Z" fill-rule="evenodd" fill="#2882FF" fill-opacity="1"/></g><g><path d="M11.25,8Q11.25,7.9261315,11.264410999999999,7.853682Q11.278822,7.781233,11.30709,7.712987Q11.335359,7.644742,11.376398,7.583322Q11.417437,7.521903,11.46967,7.46967Q11.521903,7.417437,11.583322,7.376398Q11.644742,7.335359,11.712987,7.30709Q11.781233,7.278822,11.853682,7.264411Q11.9261315,7.25,12,7.25Q12.0738685,7.25,12.146318,7.264411Q12.218767,7.278822,12.287013,7.30709Q12.355258,7.335359,12.416678,7.376398Q12.478097,7.417437,12.53033,7.46967Q12.582563,7.521903,12.623602,7.583322Q12.664641,7.644742,12.69291,7.712987Q12.721178,7.781233,12.735589000000001,7.853682Q12.75,7.9261315,12.75,8L12.75,17Q12.75,17.07387,12.735589000000001,17.14632Q12.721178,17.21877,12.69291,17.287010000000002Q12.664641,17.35526,12.623602,17.41668Q12.582563,17.478099999999998,12.53033,17.53033Q12.478097,17.58256,12.416678,17.6236Q12.355258,17.66464,12.287013,17.692909999999998Q12.218767,17.72118,12.146318,17.735590000000002Q12.0738685,17.75,12,17.75Q11.9261315,17.75,11.853682,17.735590000000002Q11.781233,17.72118,11.712987,17.692909999999998Q11.644742,17.66464,11.583322,17.6236Q11.521903,17.58256,11.46967,17.53033Q11.417437,17.478099999999998,11.376398,17.41668Q11.335359,17.35526,11.30709,17.287010000000002Q11.278822,17.21877,11.264410999999999,17.14632Q11.25,17.07387,11.25,17L11.25,8Z" fill-rule="evenodd" fill="#2882FF" fill-opacity="1"/></g><g><path d="M13.25,18.750645935L13.25,20.0625Q13.25,20.50638,13.42262,20.91451Q13.588799999999999,21.307389999999998,13.89071,21.6093Q14.192613,21.9112,14.585491,22.077379999999998Q14.99361702,22.25,15.4375,22.25L21.5625,22.25Q22.00638,22.25,22.41451,22.077379999999998Q22.807389999999998,21.9112,23.109299999999998,21.6093Q23.41121,21.307389999999998,23.577379999999998,20.91451Q23.75,20.50638,23.75,20.0625L23.75,18.75Q23.75,18.664028,23.74157,18.57847Q23.73314,18.492912,23.716369999999998,18.408592Q23.6996,18.324272,23.67464,18.242002Q23.64969,18.159731999999998,23.61679,18.080304Q23.58389,18.000876,23.54336,17.925056Q23.50283,17.849235,23.45507,17.777752Q23.407310000000003,17.70627,23.35277,17.63981Q23.29823,17.57335,23.23744,17.51256Q23.17664,17.45177,23.11019,17.39723Q23.04373,17.34269,22.97225,17.29493Q22.90076,17.24716,22.824939999999998,17.20664Q22.749119999999998,17.16611,22.66969,17.13321Q22.59027,17.10031,22.508,17.07535Q22.42573,17.0504,22.34141,17.03363Q22.257089999999998,17.01685,22.17153,17.00843Q22.08597,17,22,17Q21.91403,17,21.82847,17.00843Q21.742910000000002,17.01685,21.65859,17.03363Q21.57427,17.0504,21.492,17.07535Q21.40973,17.10031,21.3303,17.13321Q21.250880000000002,17.16611,21.175060000000002,17.20664Q21.09924,17.24716,21.02775,17.29493Q20.95627,17.34269,20.88981,17.39723Q20.823349999999998,17.45177,20.76256,17.51256Q20.70177,17.57335,20.64723,17.63981Q20.59269,17.70627,20.54493,17.777752Q20.49716,17.849235,20.45664,17.925056Q20.41611,18.000876,20.38321,18.080304Q20.35031,18.159731999999998,20.32535,18.242002Q20.3004,18.324272,20.28363,18.408592Q20.266849999999998,18.492912,20.25843,18.57847Q20.25,18.664028,20.25,18.75L16.75,18.75Q16.75,18.664028,16.74157,18.57847Q16.73315,18.492912,16.71637,18.408592Q16.6996,18.324272,16.67465,18.242002Q16.64969,18.159731999999998,16.61679,18.080304Q16.58389,18.000876,16.54336,17.925056Q16.50284,17.849235,16.45507,17.777752Q16.40731,17.70627,16.35277,17.63981Q16.29823,17.57335,16.23744,17.51256Q16.17665,17.45177,16.11019,17.39723Q16.04373,17.34269,15.972248,17.29493Q15.900765,17.24716,15.824944,17.20664Q15.749124,17.16611,15.669696,17.13321Q15.590268,17.10031,15.507998,17.07535Q15.425728,17.0504,15.341408,17.03363Q15.257088,17.01685,15.17153,17.00843Q15.085972,17,15,17Q14.914028,17,14.82847,17.00843Q14.742912,17.01685,14.658592,17.03363Q14.574272,17.0504,14.492002,17.07535Q14.409732,17.10031,14.330304,17.13321Q14.250876,17.16611,14.175056,17.20664Q14.099235,17.24716,14.027752,17.29493Q13.95627,17.34269,13.88981,17.39723Q13.82335,17.45177,13.76256,17.51256Q13.70177,17.57335,13.64723,17.63981Q13.59269,17.70627,13.54493,17.777752Q13.497160000000001,17.849235,13.45664,17.925056Q13.41611,18.000876,13.38321,18.080304Q13.35031,18.159731999999998,13.32535,18.242002Q13.3004,18.324272,13.28363,18.408592Q13.26685,18.492912,13.25843,18.57847Q13.25,18.664028,13.25,18.75L13.25,18.750645935Z" fill-rule="evenodd" fill="#FFFFFF" fill-opacity="1" style="mix-blend-mode:passthrough"/></g><g><path d="M14.25,18.75Q14.25,18.6761315,14.264410999999999,18.603682Q14.278822,18.531233,14.30709,18.462987Q14.335359,18.394742,14.376398,18.333322Q14.417437,18.271903000000002,14.46967,18.21967Q14.521903,18.167437,14.583322,18.126398000000002Q14.644742,18.085359,14.712987,18.05709Q14.781233,18.028822,14.853682,18.014411Q14.9261315,18,15,18Q15.0738685,18,15.146318,18.014411Q15.218767,18.028822,15.287013,18.05709Q15.355258,18.085359,15.416678,18.126398000000002Q15.478097,18.167437,15.53033,18.21967Q15.582563,18.271903000000002,15.623602,18.333322Q15.664641,18.394742,15.69291,18.462987Q15.721178,18.531233,15.735589000000001,18.603682Q15.75,18.6761315,15.75,18.75L15.75,19.75L21.25,19.75L21.25,18.75Q21.25,18.6761315,21.264409999999998,18.603682Q21.27882,18.531233,21.30709,18.462987Q21.33536,18.394742,21.3764,18.333322Q21.41744,18.271903000000002,21.46967,18.21967Q21.5219,18.167437,21.58332,18.126398000000002Q21.64474,18.085359,21.712989999999998,18.05709Q21.78123,18.028822,21.85368,18.014411Q21.92613,18,22,18Q22.07387,18,22.14632,18.014411Q22.21877,18.028822,22.287010000000002,18.05709Q22.35526,18.085359,22.41668,18.126398000000002Q22.4781,18.167437,22.53033,18.21967Q22.58256,18.271903000000002,22.6236,18.333322Q22.66464,18.394742,22.69291,18.462987Q22.72118,18.531233,22.735590000000002,18.603682Q22.75,18.6761315,22.75,18.75L22.75,20.0625Q22.75,20.554380000000002,22.40219,20.90219Q22.054380000000002,21.25,21.5625,21.25L15.4375,21.25Q14.9456217,21.25,14.597811,20.90219Q14.25,20.554380000000002,14.25,20.0625L14.25,18.75Z" fill-rule="evenodd" fill="#2882FF" fill-opacity="1" style="mix-blend-mode:passthrough"/></g></g></svg>