<svg xmlns="http://www.w3.org/2000/svg" xmlns:xlink="http://www.w3.org/1999/xlink" fill="none" version="1.1" width="24" height="24" viewBox="0 0 24 24"><defs><clipPath id="master_svg0_63_19497"><rect x="0" y="0" width="24" height="24" rx="0"/></clipPath></defs><g clip-path="url(#master_svg0_63_19497)"><g><path d="M18,3.25L7,3.25Q5.860913,3.25,5.0554564,4.0554564Q4.25,4.860913,4.25,6L4.25,18Q4.25,19.1391,5.0554565,19.944499999999998Q5.860911,20.75,7,20.75L18,20.75Q18.724899999999998,20.75,19.2374,20.2374Q19.75,19.724899999999998,19.75,19L19.75,5Q19.75,4.275127,19.2374,3.762564Q18.724899999999998,3.25,18,3.25ZM6.1161200000000004,5.1161200000000004Q6.4822299999999995,4.75,7,4.75L18,4.75Q18.25,4.75,18.25,5L18.25,19Q18.25,19.25,18,19.25L7,19.25Q6.4822299999999995,19.25,6.1161200000000004,18.8839Q5.75,18.5178,5.75,18L5.75,6Q5.75,5.4822299999999995,6.1161200000000004,5.1161200000000004Z" fill-rule="evenodd" fill="#231F2E" fill-opacity="1"/></g><g><path d="M4.466417,16.929345Q4.25,17.44101,4.25,18Q4.25,18.07387,4.264411,18.14632Q4.278822,18.21877,4.30709,18.28701Q4.335359,18.35526,4.376398,18.41668Q4.417437,18.4781,4.46967,18.53033Q4.521903,18.58256,4.583322,18.6236Q4.644742,18.66464,4.712987,18.69291Q4.781233,18.72118,4.853682,18.735590000000002Q4.9261315,18.75,5,18.75Q5.0738685,18.75,5.146318,18.735590000000002Q5.218767,18.72118,5.287013,18.69291Q5.355258,18.66464,5.416678,18.6236Q5.478097,18.58256,5.53033,18.53033Q5.582563,18.4781,5.623602,18.41668Q5.664641,18.35526,5.69291,18.28701Q5.721178,18.21877,5.735589,18.14632Q5.75,18.07387,5.75,18Q5.75,17.48223,6.1161200000000004,17.11612Q6.4822299999999995,16.75,7,16.75L19,16.75Q19.073900000000002,16.75,19.1463,16.735589Q19.2188,16.721178,19.287,16.69291Q19.3553,16.664641,19.4167,16.623601999999998Q19.478099999999998,16.582563,19.5303,16.53033Q19.5826,16.478096999999998,19.6236,16.416678Q19.6646,16.355258,19.6929,16.287013Q19.7212,16.218767,19.735599999999998,16.146318Q19.75,16.0738685,19.75,16Q19.75,15.9261315,19.735599999999998,15.853682Q19.7212,15.781233,19.6929,15.712987Q19.6646,15.644742,19.6236,15.583322Q19.5826,15.521903,19.5303,15.46967Q19.478099999999998,15.417437,19.4167,15.376398Q19.3553,15.335359,19.287,15.30709Q19.2188,15.278822,19.1463,15.264410999999999Q19.073900000000002,15.25,19,15.25L7,15.25Q6.44101,15.25,5.929346,15.466416Q5.435703,15.67521,5.0554565,16.0554559Q4.67521,16.435702,4.466417,16.929345Z" fill-rule="evenodd" fill="#231F2E" fill-opacity="1"/></g><g><path d="M13,3.25L9,3.25Q8.9261315,3.25,8.853682,3.264411Q8.781233,3.278822,8.712987,3.30709Q8.644742,3.335359,8.583322,3.376398Q8.521903,3.417437,8.46967,3.46967Q8.417437,3.521903,8.376398,3.583322Q8.335359,3.644742,8.30709,3.712987Q8.278822,3.781233,8.264410999999999,3.853682Q8.25,3.9261315,8.25,4L8.25,9.66663Q8.25,9.893699999999999,8.375951,10.08263Q8.4587,10.206769999999999,8.582653,10.28978Q8.706606,10.3728,8.852892,10.402059999999999Q8.999178557,10.43132,9.145527,10.402370000000001Q9.291876,10.37342,9.416008,10.29068L11,9.23474L12.58399,10.29068Q12.77293,10.41663,13,10.41663Q13.07387,10.41663,13.14632,10.40221Q13.21877,10.3878,13.28701,10.35953Q13.355260000000001,10.33127,13.41668,10.290230000000001Q13.478100000000001,10.249189999999999,13.53033,10.19696Q13.58256,10.14472,13.6236,10.083300000000001Q13.66464,10.02188,13.692910000000001,9.95364Q13.72118,9.885390000000001,13.73559,9.812940000000001Q13.75,9.740490000000001,13.75,9.66663L13.75,4Q13.75,3.9261315,13.73559,3.853682Q13.72118,3.781233,13.692910000000001,3.712987Q13.66464,3.644742,13.6236,3.583322Q13.58256,3.521903,13.53033,3.46967Q13.478100000000001,3.417437,13.41668,3.376398Q13.355260000000001,3.335359,13.28701,3.30709Q13.21877,3.278822,13.14632,3.264411Q13.07387,3.25,13,3.25ZM9.75,4.75L9.75,8.26529L10.58399,7.70932Q10.67639,7.64773,10.78267,7.61555Q10.88895,7.58337,11,7.58337Q11.11105,7.58337,11.21733,7.61555Q11.32361,7.64773,11.41601,7.70932L12.25,8.26529L12.25,4.75L9.75,4.75Z" fill-rule="evenodd" fill="#231F2E" fill-opacity="1"/></g><g><g><path d="M15.76256,18.23744Q15.64069,18.11556,15.54493,17.972248Q15.44917,17.828936,15.38321,17.669696Q15.31725,17.510456,15.28363,17.341408Q15.25,17.17236,15.25,17Q15.25,16.914028,15.25843,16.82847Q15.26685,16.742912,15.28363,16.658592Q15.3004,16.574272,15.32535,16.492002Q15.35031,16.409731999999998,15.38321,16.330304Q15.41611,16.250876,15.45664,16.175056Q15.497160000000001,16.099235,15.54493,16.027752Q15.59269,15.95627,15.64723,15.88981Q15.70177,15.82335,15.76256,15.76256Q15.82335,15.70177,15.88981,15.64723Q15.95627,15.59269,16.027752,15.54493Q16.099235,15.497160000000001,16.175056,15.45664Q16.250876,15.41611,16.330304,15.38321Q16.409731999999998,15.35031,16.492002,15.32535Q16.574272,15.3004,16.658592,15.28363Q16.742912,15.26685,16.82847,15.25843Q16.914028,15.25,17,15.25Q17.17236,15.25,17.341408,15.28363Q17.510456,15.31725,17.669696,15.38321Q17.828936,15.44917,17.972248,15.54493Q18.11556,15.64069,18.23744,15.76256L22.23744,19.76256Q22.35931,19.88444,22.45507,20.02775Q22.55083,20.17106,22.61679,20.3303Q22.68275,20.489539999999998,22.71637,20.65859Q22.75,20.82764,22.75,21Q22.75,21.08597,22.74157,21.17153Q22.733150000000002,21.257089999999998,22.71637,21.34141Q22.6996,21.42573,22.67465,21.508Q22.64969,21.59027,22.61679,21.6697Q22.58389,21.749119999999998,22.54336,21.824939999999998Q22.50284,21.90076,22.45507,21.97225Q22.40731,22.04373,22.35277,22.11019Q22.29823,22.176650000000002,22.23744,22.23744Q22.176650000000002,22.29823,22.11019,22.35277Q22.04373,22.40731,21.97225,22.45507Q21.90076,22.50284,21.824939999999998,22.54336Q21.749119999999998,22.58389,21.6697,22.61679Q21.59027,22.64969,21.508,22.67464Q21.42573,22.6996,21.34141,22.71637Q21.257089999999998,22.733150000000002,21.17153,22.74157Q21.08597,22.75,21,22.75Q20.82764,22.75,20.65859,22.71637Q20.489539999999998,22.68275,20.3303,22.61679Q20.17106,22.55083,20.02775,22.45507Q19.88444,22.35931,19.76256,22.23744L15.76256,18.23744Z" fill-rule="evenodd" fill="#FFFFFF" fill-opacity="1" style="mix-blend-mode:passthrough"/></g><g><path d="M22.23744,18.23744Q22.35931,18.11556,22.45507,17.972248Q22.55083,17.828936,22.61679,17.669696Q22.68275,17.510456,22.71637,17.341408Q22.75,17.17236,22.75,17Q22.75,16.914028,22.74157,16.82847Q22.733150000000002,16.742912,22.71637,16.658592Q22.6996,16.574272,22.67465,16.492002Q22.64969,16.409731999999998,22.61679,16.330304Q22.58389,16.250876,22.54336,16.175056Q22.50284,16.099235,22.45507,16.027752Q22.40731,15.95627,22.35277,15.88981Q22.29823,15.82335,22.23744,15.76256Q22.176650000000002,15.70177,22.11019,15.64723Q22.04373,15.59269,21.97225,15.54493Q21.90076,15.497160000000001,21.824939999999998,15.45664Q21.749119999999998,15.41611,21.6697,15.38321Q21.59027,15.35031,21.508,15.32535Q21.42573,15.3004,21.34141,15.28363Q21.257089999999998,15.26685,21.17153,15.25843Q21.08597,15.25,21,15.25Q20.82764,15.25,20.65859,15.28363Q20.489539999999998,15.31725,20.3303,15.38321Q20.17106,15.44917,20.02775,15.54493Q19.88444,15.64069,19.76256,15.76256L15.76256,19.76256Q15.64069,19.88444,15.54493,20.02775Q15.44917,20.17106,15.38321,20.3303Q15.31725,20.489539999999998,15.28363,20.65859Q15.25,20.82764,15.25,21Q15.25,21.08597,15.25843,21.17153Q15.26685,21.257089999999998,15.28363,21.34141Q15.3004,21.42573,15.32535,21.508Q15.35031,21.59027,15.38321,21.6697Q15.41611,21.749119999999998,15.45664,21.824939999999998Q15.497160000000001,21.90076,15.54493,21.97225Q15.59269,22.04373,15.64723,22.11019Q15.70177,22.176650000000002,15.76256,22.23744Q15.82335,22.29823,15.88981,22.35277Q15.95627,22.40731,16.027752,22.45507Q16.099235,22.50284,16.175056,22.54336Q16.250876,22.58389,16.330304,22.61679Q16.409731999999998,22.64969,16.492002,22.67464Q16.574272,22.6996,16.658592,22.71637Q16.742912,22.733150000000002,16.82847,22.74157Q16.914028,22.75,17,22.75Q17.17236,22.75,17.341408,22.71637Q17.510456,22.68275,17.669696,22.61679Q17.828936,22.55083,17.972248,22.45507Q18.11556,22.35931,18.23744,22.23744L18.23772,22.23715L22.23715,18.23772L22.23744,18.23744Z" fill-rule="evenodd" fill="#FFFFFF" fill-opacity="1" style="mix-blend-mode:passthrough"/></g></g><g><g><path d="M17.530484,16.469824L21.53033,20.46967Q21.63582,20.57516,21.69291,20.71299Q21.75,20.85082,21.75,21Q21.75,21.07387,21.735590000000002,21.14632Q21.72118,21.21877,21.69291,21.287010000000002Q21.66464,21.35526,21.6236,21.41668Q21.58256,21.4781,21.53033,21.53033Q21.4781,21.58256,21.41668,21.6236Q21.35526,21.66464,21.287010000000002,21.69291Q21.21877,21.72118,21.14632,21.735590000000002Q21.07387,21.75,21,21.75Q20.85082,21.75,20.71299,21.69291Q20.57516,21.63582,20.46967,21.53033L16.469824,17.530484L16.46967,17.53033Q16.364181,17.424841,16.30709,17.287013Q16.25,17.149184,16.25,17Q16.25,16.9261315,16.264411,16.853682Q16.278822,16.781233,16.30709,16.712987Q16.335359,16.644742,16.376398000000002,16.583322Q16.417437,16.521903000000002,16.46967,16.46967Q16.521903000000002,16.417437,16.583322,16.376398000000002Q16.644742,16.335359,16.712987,16.30709Q16.781233,16.278822,16.853682,16.264411Q16.9261315,16.25,17,16.25Q17.149184,16.25,17.287013,16.30709Q17.424841,16.364181,17.53033,16.46967L17.530484,16.469824Z" fill-rule="evenodd" fill="#2882FF" fill-opacity="1" style="mix-blend-mode:passthrough"/></g><g><path d="M21.53033,17.53033Q21.63582,17.424841,21.69291,17.287013Q21.75,17.149184,21.75,17Q21.75,16.9261315,21.735590000000002,16.853682Q21.72118,16.781233,21.69291,16.712987Q21.66464,16.644742,21.6236,16.583322Q21.58256,16.521903000000002,21.53033,16.46967Q21.4781,16.417437,21.41668,16.376398000000002Q21.35526,16.335359,21.287010000000002,16.30709Q21.21877,16.278822,21.14632,16.264411Q21.07387,16.25,21,16.25Q20.85082,16.25,20.71299,16.30709Q20.57516,16.364181,20.46967,16.46967L16.46967,20.46967Q16.364181,20.57516,16.30709,20.71299Q16.25,20.85082,16.25,21Q16.25,21.07387,16.264411,21.14632Q16.278822,21.21877,16.30709,21.287010000000002Q16.335359,21.35526,16.376398000000002,21.41668Q16.417437,21.4781,16.46967,21.53033Q16.521903000000002,21.58256,16.583322,21.6236Q16.644742,21.66464,16.712987,21.69291Q16.781233,21.72118,16.853682,21.735590000000002Q16.9261315,21.75,17,21.75Q17.149184,21.75,17.287013,21.69291Q17.424841,21.63582,17.53033,21.53033L21.53033,17.53033L21.53033,17.53033Z" fill-rule="evenodd" fill="#2882FF" fill-opacity="1" style="mix-blend-mode:passthrough"/></g></g></g></svg>