<svg xmlns="http://www.w3.org/2000/svg" xmlns:xlink="http://www.w3.org/1999/xlink" fill="none" version="1.1" width="24" height="24" viewBox="0 0 24 24"><defs><clipPath id="master_svg0_63_19770"><rect x="0" y="0" width="24" height="24" rx="0"/></clipPath></defs><g clip-path="url(#master_svg0_63_19770)"><g><path d="M18.25,7L18.25,11Q18.25,11.07387,18.264400000000002,11.14632Q18.2788,11.21877,18.3071,11.28701Q18.3354,11.355260000000001,18.3764,11.41668Q18.4174,11.478100000000001,18.4697,11.53033Q18.521900000000002,11.58256,18.5833,11.6236Q18.6447,11.66464,18.713,11.692910000000001Q18.7812,11.72118,18.8537,11.73559Q18.926099999999998,11.75,19,11.75Q19.0739,11.75,19.1463,11.73559Q19.2188,11.72118,19.287,11.692910000000001Q19.3553,11.66464,19.4167,11.6236Q19.4781,11.58256,19.5303,11.53033Q19.5826,11.478100000000001,19.6236,11.41668Q19.6646,11.355260000000001,19.6929,11.28701Q19.7212,11.21877,19.7356,11.14632Q19.75,11.07387,19.75,11L19.75,7Q19.75,5.860913,18.944499999999998,5.0554565Q18.1391,4.25,17,4.25L5,4.25Q3.860913,4.25,3.0554564,5.0554564Q2.25,5.860913,2.25,7L2.25,19Q2.25,20.1391,3.0554565,20.944499999999998Q3.860912,21.75,5,21.75L11.795,21.75Q11.86887,21.75,11.94132,21.7356Q12.01377,21.7212,12.08201,21.6929Q12.15026,21.6646,12.21168,21.6236Q12.2731,21.5826,12.32533,21.5303Q12.37756,21.4781,12.4186,21.4167Q12.45964,21.3553,12.48791,21.287Q12.51618,21.2188,12.53059,21.1463Q12.545,21.0739,12.545,21Q12.545,20.926099999999998,12.53059,20.8537Q12.51618,20.7812,12.48791,20.713Q12.45964,20.6447,12.4186,20.5833Q12.37756,20.521900000000002,12.32533,20.4697Q12.2731,20.4174,12.21168,20.3764Q12.15026,20.3354,12.08201,20.3071Q12.01377,20.2788,11.94132,20.264400000000002Q11.86887,20.25,11.795,20.25L5,20.25Q3.75,20.25,3.75,19L3.75,7Q3.75,5.75,5,5.75L17,5.75Q18.25,5.75,18.25,7Z" fill-rule="evenodd" fill="#231F2E" fill-opacity="1"/></g><g><path d="M21.35876,14.641243Q19.96751,13.25,18,13.25Q16.03249,13.25,14.641243,14.641243Q13.25,16.03249,13.25,18Q13.25,19.96751,14.641243,21.35876Q16.03249,22.75,18,22.75Q19.96751,22.75,21.35876,21.35876Q22.75,19.96752,22.75,18Q22.75,16.03249,21.35876,14.641243ZM15.7019,15.7019Q16.65381,14.75,18,14.75Q19.34619,14.75,20.298099999999998,15.7019Q21.25,16.65381,21.25,18Q21.25,19.34619,20.298099999999998,20.298099999999998Q19.34619,21.25,18,21.25Q16.65381,21.25,15.7019,20.298099999999998Q14.75,19.34619,14.75,18Q14.75,16.65381,15.7019,15.7019Z" fill-rule="evenodd" fill="#2882FF" fill-opacity="1"/></g><g><path d="M14.25,3Q14.25,2.9261315,14.264410999999999,2.853682Q14.278822,2.781233,14.30709,2.712987Q14.335359,2.644742,14.376398,2.583322Q14.417437,2.521903,14.46967,2.46967Q14.521903,2.417437,14.583322,2.376398Q14.644742,2.335359,14.712987,2.30709Q14.781233,2.278822,14.853682,2.264411Q14.9261315,2.25,15,2.25Q15.0738685,2.25,15.146318,2.264411Q15.218767,2.278822,15.287013,2.30709Q15.355258,2.335359,15.416678,2.376398Q15.478097,2.417437,15.53033,2.46967Q15.582563,2.521903,15.623602,2.583322Q15.664641,2.644742,15.69291,2.712987Q15.721178,2.781233,15.735589000000001,2.853682Q15.75,2.9261315,15.75,3L15.75,7Q15.75,7.07387,15.735589000000001,7.14632Q15.721178,7.21877,15.69291,7.28701Q15.664641,7.35526,15.623602,7.41668Q15.582563,7.4781,15.53033,7.53033Q15.478097,7.58256,15.416678,7.6236Q15.355258,7.66464,15.287013,7.69291Q15.218767,7.72118,15.146318,7.73559Q15.0738685,7.75,15,7.75Q14.9261315,7.75,14.853682,7.73559Q14.781233,7.72118,14.712987,7.69291Q14.644742,7.66464,14.583322,7.6236Q14.521903,7.58256,14.46967,7.53033Q14.417437,7.4781,14.376398,7.41668Q14.335359,7.35526,14.30709,7.28701Q14.278822,7.21877,14.264410999999999,7.14632Q14.25,7.07387,14.25,7L14.25,3Z" fill-rule="evenodd" fill="#231F2E" fill-opacity="1"/></g><g><path d="M6.25,3Q6.25,2.9261315,6.264411,2.853682Q6.278822,2.781233,6.30709,2.712987Q6.335359,2.644742,6.376398,2.583322Q6.417437,2.521903,6.46967,2.46967Q6.521903,2.417437,6.583322,2.376398Q6.644742,2.335359,6.712987,2.30709Q6.781233,2.278822,6.853682,2.264411Q6.9261315,2.25,7,2.25Q7.0738685,2.25,7.146318,2.264411Q7.218767,2.278822,7.287013,2.30709Q7.355258,2.335359,7.416678,2.376398Q7.478097,2.417437,7.53033,2.46967Q7.582563,2.521903,7.623602,2.583322Q7.664641,2.644742,7.69291,2.712987Q7.721178,2.781233,7.735589,2.853682Q7.75,2.9261315,7.75,3L7.75,7Q7.75,7.07387,7.735589,7.14632Q7.721178,7.21877,7.69291,7.28701Q7.664641,7.35526,7.623602,7.41668Q7.582563,7.4781,7.53033,7.53033Q7.478097,7.58256,7.416678,7.6236Q7.355258,7.66464,7.287013,7.69291Q7.218767,7.72118,7.146318,7.73559Q7.0738685,7.75,7,7.75Q6.9261315,7.75,6.853682,7.73559Q6.781233,7.72118,6.712987,7.69291Q6.644742,7.66464,6.583322,7.6236Q6.521903,7.58256,6.46967,7.53033Q6.417437,7.4781,6.376398,7.41668Q6.335359,7.35526,6.30709,7.28701Q6.278822,7.21877,6.264411,7.14632Q6.25,7.07387,6.25,7L6.25,3Z" fill-rule="evenodd" fill="#231F2E" fill-opacity="1"/></g><g><path d="M3,10.25L19,10.25Q19.0739,10.25,19.1463,10.264410999999999Q19.2188,10.278822,19.287,10.30709Q19.3553,10.335359,19.4167,10.376398Q19.4781,10.417437,19.5303,10.46967Q19.5826,10.521903,19.6236,10.583322Q19.6646,10.644742,19.6929,10.712987Q19.7212,10.781233,19.7356,10.853682Q19.75,10.9261315,19.75,11Q19.75,11.0738685,19.7356,11.146318Q19.7212,11.218767,19.6929,11.287013Q19.6646,11.355258,19.6236,11.416678Q19.5826,11.478097,19.5303,11.53033Q19.4781,11.582563,19.4167,11.623602Q19.3553,11.664641,19.287,11.69291Q19.2188,11.721178,19.1463,11.735589000000001Q19.0739,11.75,19,11.75L3,11.75Q2.9261315,11.75,2.853682,11.735589000000001Q2.781233,11.721178,2.712987,11.69291Q2.644742,11.664641,2.583322,11.623602Q2.521903,11.582563,2.46967,11.53033Q2.417437,11.478097,2.376398,11.416678Q2.335359,11.355258,2.30709,11.287013Q2.278822,11.218767,2.264411,11.146318Q2.25,11.0738685,2.25,11Q2.25,10.9261315,2.264411,10.853682Q2.278822,10.781233,2.30709,10.712987Q2.335359,10.644742,2.376398,10.583322Q2.417437,10.521903,2.46967,10.46967Q2.521903,10.417437,2.583322,10.376398Q2.644742,10.335359,2.712987,10.30709Q2.781233,10.278822,2.853682,10.264410999999999Q2.9261315,10.25,3,10.25Z" fill-rule="evenodd" fill="#231F2E" fill-opacity="1"/></g><g><path d="M18.7490234375,18.5L18.7490234375,19.5Q18.7490234375,19.57387,18.7346124375,19.64632Q18.7202014375,19.71877,18.6919334375,19.78701Q18.6636644375,19.85526,18.622625437499998,19.91668Q18.5815864375,19.9781,18.5293534375,20.03033Q18.477120437499998,20.08256,18.4157014375,20.1236Q18.3542814375,20.16464,18.2860364375,20.19291Q18.2177904375,20.22118,18.1453414375,20.23559Q18.0728919375,20.25,17.9990234375,20.25Q17.9251549375,20.25,17.8527054375,20.23559Q17.7802564375,20.22118,17.7120104375,20.19291Q17.6437654375,20.16464,17.5823454375,20.1236Q17.520926437500002,20.08256,17.4686934375,20.03033Q17.4164604375,19.9781,17.375421437500002,19.91668Q17.3343824375,19.85526,17.3061134375,19.78701Q17.2778454375,19.71877,17.2634344375,19.64632Q17.2490234375,19.57387,17.2490234375,19.5L17.2490234375,18.5Q17.2490234375,18.4261315,17.2634344375,18.353682Q17.2778454375,18.281233,17.3061134375,18.212987Q17.3343824375,18.144742,17.375421437500002,18.083322Q17.4164604375,18.021903000000002,17.4686934375,17.96967Q17.520926437500002,17.917437,17.5823454375,17.876398000000002Q17.6437654375,17.835359,17.7120104375,17.80709Q17.7802564375,17.778822,17.8527054375,17.764411Q17.9251549375,17.75,17.9990234375,17.75Q18.0728919375,17.75,18.1453414375,17.764411Q18.2177904375,17.778822,18.2860364375,17.80709Q18.3542814375,17.835359,18.4157014375,17.876398000000002Q18.477120437499998,17.917437,18.5293534375,17.96967Q18.5815864375,18.021903000000002,18.622625437499998,18.083322Q18.6636644375,18.144742,18.6919334375,18.212987Q18.7202014375,18.281233,18.7346124375,18.353682Q18.7490234375,18.4261315,18.7490234375,18.5Z" fill-rule="evenodd" fill="#2882FF" fill-opacity="1" style="mix-blend-mode:passthrough"/></g><g><ellipse cx="18.0048828125" cy="16.5" rx="0.75" ry="0.75" fill="#2882FF" fill-opacity="1"/></g></g></svg>