<svg xmlns="http://www.w3.org/2000/svg" xmlns:xlink="http://www.w3.org/1999/xlink" fill="none" version="1.1" width="24" height="24" viewBox="0 0 24 24"><defs><clipPath id="master_svg0_63_18982"><rect x="0" y="0" width="24" height="24" rx="0"/></clipPath></defs><g clip-path="url(#master_svg0_63_18982)"><g><path d="M9,5.25L20,5.25Q20.073900000000002,5.25,20.1463,5.264411Q20.2188,5.278822,20.287,5.30709Q20.3553,5.335359,20.4167,5.376398Q20.478099999999998,5.417437,20.5303,5.46967Q20.5826,5.521903,20.6236,5.583322Q20.6646,5.644742,20.6929,5.712987Q20.7212,5.781233,20.735599999999998,5.853682Q20.75,5.9261315,20.75,6Q20.75,6.0738685,20.735599999999998,6.146318Q20.7212,6.218767,20.6929,6.287013Q20.6646,6.355258,20.6236,6.416678Q20.5826,6.478097,20.5303,6.53033Q20.478099999999998,6.582563,20.4167,6.623602Q20.3553,6.664641,20.287,6.69291Q20.2188,6.721178,20.1463,6.735589Q20.073900000000002,6.75,20,6.75L9,6.75Q8.9261315,6.75,8.853682,6.735589Q8.781233,6.721178,8.712987,6.69291Q8.644742,6.664641,8.583322,6.623602Q8.521903,6.582563,8.46967,6.53033Q8.417437,6.478097,8.376398,6.416678Q8.335359,6.355258,8.30709,6.287013Q8.278822,6.218767,8.264410999999999,6.146318Q8.25,6.0738685,8.25,6Q8.25,5.9261315,8.264410999999999,5.853682Q8.278822,5.781233,8.30709,5.712987Q8.335359,5.644742,8.376398,5.583322Q8.417437,5.521903,8.46967,5.46967Q8.521903,5.417437,8.583322,5.376398Q8.644742,5.335359,8.712987,5.30709Q8.781233,5.278822,8.853682,5.264411Q8.9261315,5.25,9,5.25Z" fill-rule="evenodd" fill="#231F2E" fill-opacity="1"/></g><g><path d="M9,11.25L20,11.25Q20.073900000000002,11.25,20.1463,11.264410999999999Q20.2188,11.278822,20.287,11.30709Q20.3553,11.335359,20.4167,11.376398Q20.478099999999998,11.417437,20.5303,11.46967Q20.5826,11.521903,20.6236,11.583322Q20.6646,11.644742,20.6929,11.712987Q20.7212,11.781233,20.735599999999998,11.853682Q20.75,11.9261315,20.75,12Q20.75,12.0738685,20.735599999999998,12.146318Q20.7212,12.218767,20.6929,12.287013Q20.6646,12.355258,20.6236,12.416678Q20.5826,12.478097,20.5303,12.53033Q20.478099999999998,12.582563,20.4167,12.623602Q20.3553,12.664641,20.287,12.69291Q20.2188,12.721178,20.1463,12.735589000000001Q20.073900000000002,12.75,20,12.75L9,12.75Q8.9261315,12.75,8.853682,12.735589000000001Q8.781233,12.721178,8.712987,12.69291Q8.644742,12.664641,8.583322,12.623602Q8.521903,12.582563,8.46967,12.53033Q8.417437,12.478097,8.376398,12.416678Q8.335359,12.355258,8.30709,12.287013Q8.278822,12.218767,8.264410999999999,12.146318Q8.25,12.0738685,8.25,12Q8.25,11.9261315,8.264410999999999,11.853682Q8.278822,11.781233,8.30709,11.712987Q8.335359,11.644742,8.376398,11.583322Q8.417437,11.521903,8.46967,11.46967Q8.521903,11.417437,8.583322,11.376398Q8.644742,11.335359,8.712987,11.30709Q8.781233,11.278822,8.853682,11.264410999999999Q8.9261315,11.25,9,11.25Z" fill-rule="evenodd" fill="#231F2E" fill-opacity="1"/></g><g><path d="M9,17.25L12,17.25Q12.07387,17.25,12.14632,17.264411Q12.21877,17.278822,12.28701,17.30709Q12.35526,17.335359,12.41668,17.376398000000002Q12.4781,17.417437,12.53033,17.46967Q12.58256,17.521903000000002,12.6236,17.583322Q12.66464,17.644742,12.69291,17.712987Q12.72118,17.781233,12.73559,17.853682Q12.75,17.9261315,12.75,18Q12.75,18.0738685,12.73559,18.146318Q12.72118,18.218767,12.69291,18.287013Q12.66464,18.355258,12.6236,18.416678Q12.58256,18.478096999999998,12.53033,18.53033Q12.4781,18.582563,12.41668,18.623601999999998Q12.35526,18.664641,12.28701,18.69291Q12.21877,18.721178,12.14632,18.735589Q12.07387,18.75,12,18.75L9,18.75Q8.9261315,18.75,8.853682,18.735589Q8.781233,18.721178,8.712987,18.69291Q8.644742,18.664641,8.583322,18.623601999999998Q8.521903,18.582563,8.46967,18.53033Q8.417437,18.478096999999998,8.376398,18.416678Q8.335359,18.355258,8.30709,18.287013Q8.278822,18.218767,8.264410999999999,18.146318Q8.25,18.0738685,8.25,18Q8.25,17.9261315,8.264410999999999,17.853682Q8.278822,17.781233,8.30709,17.712987Q8.335359,17.644742,8.376398,17.583322Q8.417437,17.521903000000002,8.46967,17.46967Q8.521903,17.417437,8.583322,17.376398000000002Q8.644742,17.335359,8.712987,17.30709Q8.781233,17.278822,8.853682,17.264411Q8.9261315,17.25,9,17.25Z" fill-rule="evenodd" fill="#231F2E" fill-opacity="1"/></g><g><ellipse cx="5.0048828125" cy="6" rx="1" ry="1" fill="#231F2E" fill-opacity="1"/></g><g><ellipse cx="5.0048828125" cy="12.010009765625" rx="1" ry="1" fill="#231F2E" fill-opacity="1"/></g><g><ellipse cx="5.0048828125" cy="18.010009765625" rx="1" ry="1" fill="#231F2E" fill-opacity="1"/></g><g transform="matrix(-1,0,0,-1,41.009765625,42.02001953125)"><path d="M26.0352128125,21.540339765625Q26.1407028125,21.434850765625,26.1977928125,21.297022765625Q26.2548828125,21.159193765625,26.2548828125,21.010009765625Q26.2548828125,20.936141265625,26.240472812500002,20.863691765625Q26.2260628125,20.791242765625,26.1977928125,20.722996765625Q26.1695228125,20.654751765625,26.1284828125,20.593331765625Q26.0874428125,20.531912765625002,26.0352128125,20.479679765625Q25.9829828125,20.427446765625,25.9215628125,20.386407765625002Q25.8601428125,20.345368765625,25.791892812500002,20.317099765625Q25.7236528125,20.288831765625,25.6512028125,20.274420765625Q25.5787528125,20.260009765625,25.5048828125,20.260009765625Q25.3557028125,20.260009765625,25.217872812499998,20.317099765625Q25.0800428125,20.374190765625,24.9745528125,20.479679765625L24.9740928125,20.480141765625L19.9750148125,25.479219765625L19.9745528125,25.479679765625Q19.8690638125,25.585169765625,19.8119728125,25.722999765624998Q19.7548828125,25.860829765625,19.7548828125,26.010009765625Q19.7548828125,26.083879765625,19.7692938125,26.156329765625Q19.7837048125,26.228779765625,19.8119728125,26.297019765625002Q19.8402418125,26.365269765625,19.881280812500002,26.426689765625Q19.9223198125,26.488109765625,19.9745528125,26.540339765625Q20.026785812500002,26.592569765625,20.0882048125,26.633609765625Q20.1496248125,26.674649765625,20.2178698125,26.702919765625Q20.2861158125,26.731189765625,20.3585648125,26.745599765625002Q20.4310143125,26.760009765625,20.5048828125,26.760009765625Q20.6540668125,26.760009765625,20.7918958125,26.702919765625Q20.9297238125,26.645829765625,21.0352128125,26.540339765625L21.0356748125,26.539879765625L26.0347528125,21.540801765625L26.0352128125,21.540339765625L26.0352128125,21.540339765625Z" fill-rule="evenodd" fill="#2882FF" fill-opacity="1" style="mix-blend-mode:passthrough"/></g><g transform="matrix(-1,0,0,-1,40.009765625,42.02001953125)"><path d="M20.0048828125,20.260009765625L24.5048828125,20.260009765625Q24.5787528125,20.260009765625,24.6512028125,20.274420765625Q24.7236528125,20.288831765625,24.791892812500002,20.317099765625Q24.8601428125,20.345368765625,24.9215628125,20.386407765625002Q24.9829828125,20.427446765625,25.0352128125,20.479679765625Q25.0874428125,20.531912765625002,25.1284828125,20.593331765625Q25.1695228125,20.654751765625,25.1977928125,20.722996765625Q25.2260628125,20.791242765625,25.240472812500002,20.863691765625Q25.2548828125,20.936141265625,25.2548828125,21.010009765625L25.2548828125,25.510009765625Q25.2548828125,25.583879765625,25.240472812500002,25.656329765625Q25.2260628125,25.728779765625,25.1977928125,25.797019765625002Q25.1695228125,25.865269765625,25.1284828125,25.926689765625Q25.0874428125,25.988109765625,25.0352128125,26.040339765625Q24.9829828125,26.092569765625,24.9215628125,26.133609765625Q24.8601428125,26.174649765625,24.791892812500002,26.202919765625Q24.7236528125,26.231189765625,24.6512028125,26.245599765625002Q24.5787528125,26.260009765625,24.5048828125,26.260009765625Q24.4310128125,26.260009765625,24.3585628125,26.245599765625002Q24.2861128125,26.231189765625,24.217872812499998,26.202919765625Q24.1496228125,26.174649765625,24.0882028125,26.133609765625Q24.0267828125,26.092569765625,23.9745528125,26.040339765625Q23.9223228125,25.988109765625,23.8812828125,25.926689765625Q23.8402428125,25.865269765625,23.8119728125,25.797019765625002Q23.7837028125,25.728779765625,23.769292812499998,25.656329765625Q23.7548828125,25.583879765625,23.7548828125,25.510009765625L23.7548828125,21.760009765625L20.0048828125,21.760009765625Q19.9310143125,21.760009765625,19.8585648125,21.745598765625Q19.7861158125,21.731187765625,19.7178698125,21.702919765625Q19.6496248125,21.674650765625,19.5882048125,21.633611765624998Q19.526785812500002,21.592572765625,19.4745528125,21.540339765625Q19.4223198125,21.488106765624998,19.381280812500002,21.426687765625Q19.3402418125,21.365267765625,19.3119728125,21.297022765625Q19.2837048125,21.228776765625,19.2692938125,21.156327765625Q19.2548828125,21.083878265625,19.2548828125,21.010009765625Q19.2548828125,20.936141265625,19.2692938125,20.863691765625Q19.2837048125,20.791242765625,19.3119728125,20.722996765625Q19.3402418125,20.654751765625,19.381280812500002,20.593331765625Q19.4223198125,20.531912765625002,19.4745528125,20.479679765625Q19.526785812500002,20.427446765625,19.5882048125,20.386407765625002Q19.6496248125,20.345368765625,19.7178698125,20.317099765625Q19.7861158125,20.288831765625,19.8585648125,20.274420765625Q19.9310143125,20.260009765625,20.0048828125,20.260009765625Z" fill-rule="evenodd" fill="#2882FF" fill-opacity="1" style="mix-blend-mode:passthrough"/></g></g></svg>