<svg xmlns="http://www.w3.org/2000/svg" xmlns:xlink="http://www.w3.org/1999/xlink" fill="none" version="1.1" width="24" height="24" viewBox="0 0 24 24"><defs><clipPath id="master_svg0_63_19600"><rect x="0" y="0" width="24" height="24" rx="0"/></clipPath></defs><g clip-path="url(#master_svg0_63_19600)"><g><path d="M3.25,7L3.25,19Q3.25,20.1391,4.0554565,20.944499999999998Q4.860913,21.75,6,21.75L18,21.75Q19.1391,21.75,19.944499999999998,20.944499999999998Q20.75,20.1391,20.75,19L20.75,7Q20.75,5.860912,19.944499999999998,5.0554565Q19.1391,4.25,18,4.25L6,4.25Q4.860913,4.25,4.0554564,5.0554564Q3.25,5.860913,3.25,7ZM6,20.25Q4.75,20.25,4.75,19L4.75,7Q4.75,5.75,6,5.75L18,5.75Q19.25,5.75,19.25,7L19.25,19Q19.25,20.25,18,20.25L6,20.25Z" fill-rule="evenodd" fill="#231F2E" fill-opacity="1"/></g><g><path d="M15.25,3Q15.25,2.9261315,15.264410999999999,2.853682Q15.278822,2.781233,15.30709,2.712987Q15.335359,2.644742,15.376398,2.583322Q15.417437,2.521903,15.46967,2.46967Q15.521903,2.417437,15.583322,2.376398Q15.644742,2.335359,15.712987,2.30709Q15.781233,2.278822,15.853682,2.264411Q15.9261315,2.25,16,2.25Q16.0738685,2.25,16.146318,2.264411Q16.218767,2.278822,16.287013,2.30709Q16.355258,2.335359,16.416678,2.376398Q16.478096999999998,2.417437,16.53033,2.46967Q16.582563,2.521903,16.623601999999998,2.583322Q16.664641,2.644742,16.69291,2.712987Q16.721178,2.781233,16.735589,2.853682Q16.75,2.9261315,16.75,3L16.75,7Q16.75,7.07387,16.735589,7.14632Q16.721178,7.21877,16.69291,7.28701Q16.664641,7.35526,16.623601999999998,7.41668Q16.582563,7.4781,16.53033,7.53033Q16.478096999999998,7.58256,16.416678,7.6236Q16.355258,7.66464,16.287013,7.69291Q16.218767,7.72118,16.146318,7.73559Q16.0738685,7.75,16,7.75Q15.9261315,7.75,15.853682,7.73559Q15.781233,7.72118,15.712987,7.69291Q15.644742,7.66464,15.583322,7.6236Q15.521903,7.58256,15.46967,7.53033Q15.417437,7.4781,15.376398,7.41668Q15.335359,7.35526,15.30709,7.28701Q15.278822,7.21877,15.264410999999999,7.14632Q15.25,7.07387,15.25,7L15.25,3Z" fill-rule="evenodd" fill="#231F2E" fill-opacity="1"/></g><g><path d="M7.25,3Q7.25,2.9261315,7.264411,2.853682Q7.278822,2.781233,7.30709,2.712987Q7.335359,2.644742,7.376398,2.583322Q7.417437,2.521903,7.46967,2.46967Q7.521903,2.417437,7.583322,2.376398Q7.644742,2.335359,7.712987,2.30709Q7.781233,2.278822,7.853682,2.264411Q7.9261315,2.25,8,2.25Q8.0738685,2.25,8.146318,2.264411Q8.218767,2.278822,8.287013,2.30709Q8.355258,2.335359,8.416678,2.376398Q8.478097,2.417437,8.53033,2.46967Q8.582563,2.521903,8.623602,2.583322Q8.664641,2.644742,8.69291,2.712987Q8.721178,2.781233,8.735589000000001,2.853682Q8.75,2.9261315,8.75,3L8.75,7Q8.75,7.07387,8.735589000000001,7.14632Q8.721178,7.21877,8.69291,7.28701Q8.664641,7.35526,8.623602,7.41668Q8.582563,7.4781,8.53033,7.53033Q8.478097,7.58256,8.416678,7.6236Q8.355258,7.66464,8.287013,7.69291Q8.218767,7.72118,8.146318,7.73559Q8.0738685,7.75,8,7.75Q7.9261315,7.75,7.853682,7.73559Q7.781233,7.72118,7.712987,7.69291Q7.644742,7.66464,7.583322,7.6236Q7.521903,7.58256,7.46967,7.53033Q7.417437,7.4781,7.376398,7.41668Q7.335359,7.35526,7.30709,7.28701Q7.278822,7.21877,7.264411,7.14632Q7.25,7.07387,7.25,7L7.25,3Z" fill-rule="evenodd" fill="#231F2E" fill-opacity="1"/></g><g><path d="M4,10.25L20,10.25Q20.0739,10.25,20.1463,10.264410999999999Q20.2188,10.278822,20.287,10.30709Q20.3553,10.335359,20.4167,10.376398Q20.4781,10.417437,20.5303,10.46967Q20.5826,10.521903,20.6236,10.583322Q20.6646,10.644742,20.6929,10.712987Q20.7212,10.781233,20.7356,10.853682Q20.75,10.9261315,20.75,11Q20.75,11.0738685,20.7356,11.146318Q20.7212,11.218767,20.6929,11.287013Q20.6646,11.355258,20.6236,11.416678Q20.5826,11.478097,20.5303,11.53033Q20.4781,11.582563,20.4167,11.623602Q20.3553,11.664641,20.287,11.69291Q20.2188,11.721178,20.1463,11.735589000000001Q20.0739,11.75,20,11.75L4,11.75Q3.9261315,11.75,3.853682,11.735589000000001Q3.781233,11.721178,3.712987,11.69291Q3.644742,11.664641,3.583322,11.623602Q3.521903,11.582563,3.46967,11.53033Q3.417437,11.478097,3.376398,11.416678Q3.335359,11.355258,3.30709,11.287013Q3.278822,11.218767,3.264411,11.146318Q3.25,11.0738685,3.25,11Q3.25,10.9261315,3.264411,10.853682Q3.278822,10.781233,3.30709,10.712987Q3.335359,10.644742,3.376398,10.583322Q3.417437,10.521903,3.46967,10.46967Q3.521903,10.417437,3.583322,10.376398Q3.644742,10.335359,3.712987,10.30709Q3.781233,10.278822,3.853682,10.264410999999999Q3.9261315,10.25,4,10.25Z" fill-rule="evenodd" fill="#231F2E" fill-opacity="1"/></g><g><path d="M7.5,13.75L12.5,13.75Q12.57387,13.75,12.64632,13.764410999999999Q12.71877,13.778822,12.78701,13.80709Q12.855260000000001,13.835359,12.91668,13.876398Q12.978100000000001,13.917437,13.03033,13.96967Q13.08256,14.021903,13.1236,14.083322Q13.16464,14.144742,13.192910000000001,14.212987Q13.22118,14.281233,13.23559,14.353682Q13.25,14.4261315,13.25,14.5Q13.25,14.5738685,13.23559,14.646318Q13.22118,14.718767,13.192910000000001,14.787013Q13.16464,14.855258,13.1236,14.916678Q13.08256,14.978097,13.03033,15.03033Q12.978100000000001,15.082563,12.91668,15.123602Q12.855260000000001,15.164641,12.78701,15.19291Q12.71877,15.221178,12.64632,15.235589000000001Q12.57387,15.25,12.5,15.25L7.5,15.25Q7.4261315,15.25,7.353682,15.235589000000001Q7.281233,15.221178,7.212987,15.19291Q7.144742,15.164641,7.083322,15.123602Q7.021903,15.082563,6.96967,15.03033Q6.917437,14.978097,6.876398,14.916678Q6.835359,14.855258,6.80709,14.787013Q6.778822,14.718767,6.764411,14.646318Q6.75,14.5738685,6.75,14.5Q6.75,14.4261315,6.764411,14.353682Q6.778822,14.281233,6.80709,14.212987Q6.835359,14.144742,6.876398,14.083322Q6.917437,14.021903,6.96967,13.96967Q7.021903,13.917437,7.083322,13.876398Q7.144742,13.835359,7.212987,13.80709Q7.281233,13.778822,7.353682,13.764410999999999Q7.4261315,13.75,7.5,13.75Z" fill-rule="evenodd" fill="#2882FF" fill-opacity="1"/></g><g><path d="M11.5,16.75L16.5,16.75Q16.57387,16.75,16.64632,16.764411Q16.71877,16.778822,16.787010000000002,16.80709Q16.85526,16.835359,16.91668,16.876398000000002Q16.9781,16.917437,17.03033,16.96967Q17.08256,17.021903000000002,17.1236,17.083322Q17.16464,17.144742,17.19291,17.212987Q17.22118,17.281233,17.235590000000002,17.353682Q17.25,17.4261315,17.25,17.5Q17.25,17.5738685,17.235590000000002,17.646318Q17.22118,17.718767,17.19291,17.787013Q17.16464,17.855258,17.1236,17.916678Q17.08256,17.978096999999998,17.03033,18.03033Q16.9781,18.082563,16.91668,18.123601999999998Q16.85526,18.164641,16.787010000000002,18.19291Q16.71877,18.221178,16.64632,18.235589Q16.57387,18.25,16.5,18.25L11.5,18.25Q11.4261315,18.25,11.353682,18.235589Q11.281233,18.221178,11.212987,18.19291Q11.144742,18.164641,11.083322,18.123601999999998Q11.021903,18.082563,10.96967,18.03033Q10.917437,17.978096999999998,10.876398,17.916678Q10.835359,17.855258,10.80709,17.787013Q10.778822,17.718767,10.764410999999999,17.646318Q10.75,17.5738685,10.75,17.5Q10.75,17.4261315,10.764410999999999,17.353682Q10.778822,17.281233,10.80709,17.212987Q10.835359,17.144742,10.876398,17.083322Q10.917437,17.021903000000002,10.96967,16.96967Q11.021903,16.917437,11.083322,16.876398000000002Q11.144742,16.835359,11.212987,16.80709Q11.281233,16.778822,11.353682,16.764411Q11.4261315,16.75,11.5,16.75Z" fill-rule="evenodd" fill="#2882FF" fill-opacity="1"/></g><g><path d="M15.5,13.75Q15.4261315,13.75,15.353682,13.764410999999999Q15.281233,13.778822,15.212987,13.80709Q15.144742,13.835359,15.083322,13.876398Q15.021903,13.917437,14.96967,13.96967Q14.917437,14.021903,14.876398,14.083322Q14.835359,14.144742,14.80709,14.212987Q14.778822,14.281233,14.764410999999999,14.353682Q14.75,14.4261315,14.75,14.5Q14.75,14.5738685,14.764410999999999,14.646318Q14.778822,14.718767,14.80709,14.787013Q14.835359,14.855258,14.876398,14.916678Q14.917437,14.978097,14.96967,15.03033Q15.021903,15.082563,15.083322,15.123602Q15.144742,15.164641,15.212987,15.19291Q15.281233,15.221178,15.353682,15.235589000000001Q15.4261315,15.25,15.5,15.25L16.5,15.25Q16.57387,15.25,16.64632,15.235589000000001Q16.71877,15.221178,16.78701,15.19291Q16.85526,15.164641,16.91668,15.123602Q16.9781,15.082563,17.03033,15.03033Q17.08256,14.978097,17.1236,14.916678Q17.16464,14.855258,17.19291,14.787013Q17.22118,14.718767,17.23559,14.646318Q17.25,14.5738685,17.25,14.5Q17.25,14.4261315,17.23559,14.353682Q17.22118,14.281233,17.19291,14.212987Q17.16464,14.144742,17.1236,14.083322Q17.08256,14.021903,17.03033,13.96967Q16.9781,13.917437,16.91668,13.876398Q16.85526,13.835359,16.78701,13.80709Q16.71877,13.778822,16.64632,13.764410999999999Q16.57387,13.75,16.5,13.75L15.5,13.75Z" fill-rule="evenodd" fill="#2882FF" fill-opacity="1"/></g><g><path d="M7.5,16.75Q7.4261315,16.75,7.353682,16.764411Q7.281233,16.778822,7.212987,16.80709Q7.144742,16.835359,7.083322,16.876398000000002Q7.021903,16.917437,6.96967,16.96967Q6.917437,17.021903000000002,6.876398,17.083322Q6.835359,17.144742,6.80709,17.212987Q6.778822,17.281233,6.764411,17.353682Q6.75,17.4261315,6.75,17.5Q6.75,17.5738685,6.764411,17.646318Q6.778822,17.718767,6.80709,17.787013Q6.835359,17.855258,6.876398,17.916678Q6.917437,17.978096999999998,6.96967,18.03033Q7.021903,18.082563,7.083322,18.123601999999998Q7.144742,18.164641,7.212987,18.19291Q7.281233,18.221178,7.353682,18.235589Q7.4261315,18.25,7.5,18.25L8.5,18.25Q8.57387,18.25,8.64632,18.235589Q8.71877,18.221178,8.78701,18.19291Q8.85526,18.164641,8.91668,18.123601999999998Q8.9781,18.082563,9.03033,18.03033Q9.08256,17.978096999999998,9.1236,17.916678Q9.16464,17.855258,9.19291,17.787013Q9.22118,17.718767,9.23559,17.646318Q9.25,17.5738685,9.25,17.5Q9.25,17.4261315,9.23559,17.353682Q9.22118,17.281233,9.19291,17.212987Q9.16464,17.144742,9.1236,17.083322Q9.08256,17.021903000000002,9.03033,16.96967Q8.9781,16.917437,8.91668,16.876398000000002Q8.85526,16.835359,8.78701,16.80709Q8.71877,16.778822,8.64632,16.764411Q8.57387,16.75,8.5,16.75L7.5,16.75Z" fill-rule="evenodd" fill="#2882FF" fill-opacity="1"/></g></g></svg>