<svg xmlns="http://www.w3.org/2000/svg" xmlns:xlink="http://www.w3.org/1999/xlink" fill="none" version="1.1" width="24" height="24" viewBox="0 0 24 24"><defs><clipPath id="master_svg0_63_20549"><rect x="0" y="0" width="24" height="24" rx="0"/></clipPath></defs><g clip-path="url(#master_svg0_63_20549)"><g transform="matrix(-1,0,0,1,13.009765625,0)"><path d="M6.5048828125,2.25Q7.5662528125,2.25,8.3439928125,2.784697Q9.2548828125,3.410933,9.2548828125,4.375L9.2548828125,6.4375Q9.2548828125,6.98789,9.6290928125,7.3738Q9.9938928125,7.75,10.5048828125,7.75Q10.5787528125,7.75,10.6512028125,7.76441Q10.7236528125,7.77882,10.7918928125,7.80709Q10.860142812500001,7.83536,10.9215628125,7.8764Q10.982982812500001,7.91744,11.0352128125,7.96967Q11.0874428125,8.021899999999999,11.1284828125,8.08332Q11.1695228125,8.144739999999999,11.197792812500001,8.21299Q11.2260628125,8.28123,11.2404728125,8.35368Q11.2548828125,8.42613,11.2548828125,8.5Q11.2548828125,8.57387,11.2404728125,8.64632Q11.2260628125,8.71877,11.197792812500001,8.78701Q11.1695228125,8.855260000000001,11.1284828125,8.91668Q11.0874428125,8.978100000000001,11.0352128125,9.03033Q10.982982812500001,9.08256,10.9215628125,9.1236Q10.860142812500001,9.16464,10.7918928125,9.192910000000001Q10.7236528125,9.22118,10.6512028125,9.23559Q10.5787528125,9.25,10.5048828125,9.25Q9.9938928125,9.25,9.6290928125,9.6262Q9.2548828125,10.01211,9.2548828125,10.5625L9.2548828125,12.625Q9.2548828125,13.5891,8.3439928125,14.2153Q7.5662528125,14.75,6.5048828125,14.75Q6.4310143125,14.75,6.3585648125,14.7356Q6.2861158125,14.7212,6.2178698125,14.6929Q6.1496248125,14.6646,6.0882048125,14.6236Q6.0267858125,14.5826,5.9745528125,14.5303Q5.9223198125,14.4781,5.8812808125,14.4167Q5.8402418125,14.3553,5.8119728125,14.287Q5.7837048125,14.2188,5.7692938125,14.1463Q5.7548828125,14.0739,5.7548828125,14Q5.7548828125,13.9261,5.7692938125,13.8537Q5.7837048125,13.7812,5.8119728125,13.713Q5.8402418125,13.6447,5.8812808125,13.5833Q5.9223198125,13.5219,5.9745528125,13.4697Q6.0267858125,13.4174,6.0882048125,13.3764Q6.1496248125,13.3354,6.2178698125,13.3071Q6.2861158125,13.2788,6.3585648125,13.2644Q6.4310143125,13.25,6.5048828125,13.25Q7.1003678125,13.25,7.4941998125,12.97924Q7.7548828125,12.80002,7.7548828125,12.625L7.7548828125,10.5625Q7.7548828125,9.40426,8.5522428125,8.58198Q8.5930228125,8.53993,8.6346728125,8.5Q8.5930228125,8.46007,8.5522428125,8.41802Q7.7548828125,7.59574,7.7548828125,6.4375L7.7548828125,4.375Q7.7548828125,4.19998,7.4941998125,4.02076Q7.1003678125,3.75,6.5048828125,3.75Q6.4310143125,3.75,6.3585648125,3.735589Q6.2861158125,3.721178,6.2178698125,3.69291Q6.1496248125,3.664641,6.0882048125,3.623602Q6.0267858125,3.582563,5.9745528125,3.53033Q5.9223198125,3.478097,5.8812808125,3.416678Q5.8402418125,3.355258,5.8119728125,3.287013Q5.7837048125,3.218767,5.7692938125,3.146318Q5.7548828125,3.0738685,5.7548828125,3Q5.7548828125,2.9261315,5.7692938125,2.853682Q5.7837048125,2.781233,5.8119728125,2.712987Q5.8402418125,2.644742,5.8812808125,2.583322Q5.9223198125,2.521903,5.9745528125,2.46967Q6.0267858125,2.417437,6.0882048125,2.376398Q6.1496248125,2.335359,6.2178698125,2.30709Q6.2861158125,2.278822,6.3585648125,2.264411Q6.4310143125,2.25,6.5048828125,2.25Z" fill-rule="evenodd" fill="#231F2E" fill-opacity="1"/></g><g><path d="M17.5048828125,2.25Q18.5662528125,2.25,19.3439928125,2.784697Q20.2548828125,3.410933,20.2548828125,4.375L20.2548828125,6.4375Q20.2548828125,6.98789,20.6290928125,7.3738Q20.9938928125,7.75,21.5048828125,7.75Q21.5787528125,7.75,21.6512028125,7.76441Q21.7236528125,7.77882,21.791892812500002,7.80709Q21.8601428125,7.83536,21.9215628125,7.8764Q21.9829828125,7.91744,22.0352128125,7.96967Q22.0874428125,8.021899999999999,22.1284828125,8.08332Q22.1695228125,8.144739999999999,22.1977928125,8.21299Q22.2260628125,8.28123,22.240472812500002,8.35368Q22.2548828125,8.42613,22.2548828125,8.5Q22.2548828125,8.57387,22.240472812500002,8.64632Q22.2260628125,8.71877,22.1977928125,8.78701Q22.1695228125,8.855260000000001,22.1284828125,8.91668Q22.0874428125,8.978100000000001,22.0352128125,9.03033Q21.9829828125,9.08256,21.9215628125,9.1236Q21.8601428125,9.16464,21.791892812500002,9.192910000000001Q21.7236528125,9.22118,21.6512028125,9.23559Q21.5787528125,9.25,21.5048828125,9.25Q20.9938928125,9.25,20.6290928125,9.6262Q20.2548828125,10.01211,20.2548828125,10.5625L20.2548828125,12.625Q20.2548828125,13.5891,19.3439928125,14.2153Q18.5662528125,14.75,17.5048828125,14.75Q17.4310143125,14.75,17.3585648125,14.7356Q17.2861158125,14.7212,17.2178698125,14.6929Q17.1496248125,14.6646,17.0882048125,14.6236Q17.026785812500002,14.5826,16.9745528125,14.5303Q16.9223198125,14.4781,16.881280812500002,14.4167Q16.8402418125,14.3553,16.8119728125,14.287Q16.7837048125,14.2188,16.7692938125,14.1463Q16.7548828125,14.0739,16.7548828125,14Q16.7548828125,13.9261,16.7692938125,13.8537Q16.7837048125,13.7812,16.8119728125,13.713Q16.8402418125,13.6447,16.881280812500002,13.5833Q16.9223198125,13.5219,16.9745528125,13.4697Q17.026785812500002,13.4174,17.0882048125,13.3764Q17.1496248125,13.3354,17.2178698125,13.3071Q17.2861158125,13.2788,17.3585648125,13.2644Q17.4310143125,13.25,17.5048828125,13.25Q18.1003678125,13.25,18.4941998125,12.97924Q18.7548828125,12.80002,18.7548828125,12.625L18.7548828125,10.5625Q18.7548828125,9.40426,19.5522428125,8.58198Q19.5930228125,8.53993,19.6346728125,8.5Q19.5930228125,8.46007,19.5522428125,8.41802Q18.7548828125,7.59574,18.7548828125,6.4375L18.7548828125,4.375Q18.7548828125,4.19998,18.4941998125,4.02076Q18.1003678125,3.75,17.5048828125,3.75Q17.4310143125,3.75,17.3585648125,3.735589Q17.2861158125,3.721178,17.2178698125,3.69291Q17.1496248125,3.664641,17.0882048125,3.623602Q17.026785812500002,3.582563,16.9745528125,3.53033Q16.9223198125,3.478097,16.881280812500002,3.416678Q16.8402418125,3.355258,16.8119728125,3.287013Q16.7837048125,3.218767,16.7692938125,3.146318Q16.7548828125,3.0738685,16.7548828125,3Q16.7548828125,2.9261315,16.7692938125,2.853682Q16.7837048125,2.781233,16.8119728125,2.712987Q16.8402418125,2.644742,16.881280812500002,2.583322Q16.9223198125,2.521903,16.9745528125,2.46967Q17.026785812500002,2.417437,17.0882048125,2.376398Q17.1496248125,2.335359,17.2178698125,2.30709Q17.2861158125,2.278822,17.3585648125,2.264411Q17.4310143125,2.25,17.5048828125,2.25Z" fill-rule="evenodd" fill="#231F2E" fill-opacity="1"/></g><g><g><g><path d="M13.5,15.75L13.25,15.75Q13.07539,15.75,12.904209999999999,15.7845Q12.733039999999999,15.818999999999999,12.57206,15.88665Q12.41108,15.95429,12.26664,16.052410000000002Q12.1222,16.15053,12,16.27526L12,15.58114Q12.11164,15.52818,12.214739999999999,15.46006Q12.31783,15.39194,12.41033,15.31001Q12.50283,15.22808,12.5829,15.13396Q12.66297,15.03985,12.72902,14.935414Q12.795069999999999,14.830981,12.845790000000001,14.718303Q12.89651,14.605624,12.93089,14.486937Q12.96527,14.36825,12.98264,14.245908Q13,14.123567,13,14Q13,13.914028,12.99157,13.82847Q12.98315,13.742912,12.96637,13.658592Q12.9496,13.574272,12.92465,13.492002Q12.89969,13.409732,12.86679,13.330304Q12.83389,13.250876,12.79336,13.175056Q12.752839999999999,13.099235,12.70507,13.027752Q12.657309999999999,12.95627,12.60277,12.88981Q12.54823,12.82335,12.48744,12.76256Q12.42665,12.70177,12.36019,12.64723Q12.29373,12.59269,12.22225,12.54493Q12.15076,12.497160000000001,12.07494,12.45664Q11.99912,12.41611,11.9197,12.38321Q11.84027,12.35031,11.758,12.32535Q11.67573,12.3004,11.59141,12.28363Q11.50709,12.26685,11.42153,12.25843Q11.33597,12.25,11.25,12.25L10.25,12.25Q10.164028,12.25,10.07847,12.25843Q9.992912,12.26685,9.908592,12.28363Q9.824272,12.3004,9.742002,12.32535Q9.659732,12.35031,9.580304,12.38321Q9.500876,12.41611,9.425056,12.45664Q9.349235,12.497160000000001,9.277752,12.54493Q9.20627,12.59269,9.13981,12.64723Q9.07335,12.70177,9.01256,12.76256Q8.95177,12.82335,8.89723,12.88981Q8.84269,12.95627,8.79493,13.027752Q8.747160000000001,13.099235,8.70664,13.175056Q8.66611,13.250876,8.63321,13.330304Q8.60031,13.409732,8.57535,13.492002Q8.5504,13.574272,8.53363,13.658592Q8.51685,13.742912,8.50843,13.82847Q8.5,13.914028,8.5,14L8.5,21Q8.5,21.08597,8.50843,21.17153Q8.51685,21.257089999999998,8.53363,21.34141Q8.5504,21.42573,8.57535,21.508Q8.60031,21.59027,8.63321,21.66969Q8.66611,21.749119999999998,8.70664,21.824939999999998Q8.747160000000001,21.90076,8.79493,21.97225Q8.84269,22.04373,8.89723,22.11019Q8.95177,22.17664,9.01256,22.23744Q9.07335,22.29823,9.13981,22.35277Q9.20627,22.407310000000003,9.277752,22.45507Q9.349235,22.50283,9.425056,22.54336Q9.500876,22.58389,9.580304,22.61679Q9.659732,22.64969,9.742002,22.67465Q9.824272,22.6996,9.908592,22.716369999999998Q9.992912,22.733150000000002,10.07847,22.74157Q10.164028,22.75,10.25,22.75L13.5,22.75Q14.94975,22.75,15.974879999999999,21.72487Q17,20.69975,17,19.25Q17,17.80025,15.97487,16.77513Q14.94975,15.75,13.5,15.75ZM12,18.72474L12,19.25L13.25,19.25Q13.07539,19.25,12.904209999999999,19.2155Q12.733039999999999,19.18099,12.57206,19.11335Q12.41108,19.04571,12.26664,18.947589999999998Q12.1222,18.84947,12,18.72474Z" fill-rule="evenodd" fill="#FFFFFF" fill-opacity="1"/></g><g><path d="M11.250646,12.25L12.5,12.25Q13.94975,12.25,14.97487,13.275126Q16,14.300251,16,15.75Q16,17.19975,14.97487,18.22487Q13.94975,19.25,12.5,19.25L10.75,19.25Q10.664028,19.25,10.57847,19.24157Q10.492912,19.233150000000002,10.408592,19.21637Q10.324272,19.1996,10.242002,19.17464Q10.159732,19.14969,10.080304,19.11679Q10.000876,19.08389,9.925056,19.04336Q9.849235,19.00283,9.777752,18.95507Q9.70627,18.90731,9.63981,18.85277Q9.57335,18.79823,9.51256,18.73744Q9.45177,18.676650000000002,9.39723,18.61019Q9.34269,18.54373,9.29493,18.47225Q9.247160000000001,18.40076,9.20664,18.324939999999998Q9.16611,18.249119999999998,9.13321,18.1697Q9.10031,18.09027,9.07535,18.008Q9.0504,17.92573,9.03363,17.84141Q9.01685,17.757089999999998,9.00843,17.67153Q9,17.58597,9,17.5Q9,17.41403,9.00843,17.32847Q9.01685,17.242910000000002,9.03363,17.15859Q9.0504,17.07427,9.07535,16.992Q9.10031,16.90973,9.13321,16.8303Q9.16611,16.75088,9.20664,16.675060000000002Q9.247160000000001,16.59923,9.29493,16.52775Q9.34269,16.45627,9.39723,16.38981Q9.45177,16.32335,9.51256,16.26256Q9.57335,16.20177,9.63981,16.14723Q9.70627,16.09269,9.777752,16.04493Q9.849235,15.997160000000001,9.925056,15.95664Q10.000876,15.91611,10.080304,15.88321Q10.159732,15.85031,10.242002,15.82535Q10.324272,15.8004,10.408592,15.78363Q10.492912,15.76685,10.57847,15.75843Q10.664028,15.75,10.75,15.75L11.249354,15.75Q11.163402,15.74997,11.077867,15.74151Q10.992332,15.73306,10.908038,15.71626Q10.8237428,15.69947,10.74149961,15.67449Q10.6592564,15.64952,10.579856,15.6166Q10.500456,15.58369,10.424664,15.54315Q10.348872,15.50262,10.277416,15.45485Q10.205961,15.40708,10.139531,15.35254Q10.073101,15.298,10.012335,15.23721Q9.951569,15.17642,9.897052,15.10997Q9.842535999999999,15.043520000000001,9.794794,14.972046Q9.74705,14.900574,9.70654,14.824766Q9.66603,14.748959,9.63315,14.669547Q9.60026,14.590135,9.57532,14.507882Q9.550370000000001,14.42563,9.53361,14.341329Q9.51685,14.257028,9.508420000000001,14.17149Q9.5,14.0859518,9.5,14Q9.5,13.914028,9.50843,13.82847Q9.51685,13.742912,9.53363,13.658592Q9.5504,13.574272,9.57535,13.492002Q9.60031,13.409732,9.63321,13.330304Q9.66611,13.250876,9.70664,13.175056Q9.747160000000001,13.099235,9.794928,13.027752Q9.842692,12.95627,9.897232,12.88981Q9.951772,12.82335,10.012563,12.76256Q10.073354,12.70177,10.139812,12.64723Q10.206269,12.59269,10.277752,12.54493Q10.349235,12.497160000000001,10.425056,12.45664Q10.500876,12.41611,10.580304,12.38321Q10.6597318,12.35031,10.74200183,12.32535Q10.8242719,12.3004,10.908592,12.28363Q10.992912,12.26685,11.07847,12.25843Q11.164028,12.25,11.25,12.25L11.250646,12.25Z" fill-rule="evenodd" fill="#FFFFFF" fill-opacity="1"/></g></g><g><path d="M20,14Q20,13.914028,20.00843,13.82847Q20.016849999999998,13.742912,20.03363,13.658592Q20.0504,13.574272,20.07535,13.492002Q20.10031,13.409732,20.13321,13.330304Q20.16611,13.250876,20.20664,13.175056Q20.24716,13.099235,20.29493,13.027752Q20.34269,12.95627,20.39723,12.88981Q20.45177,12.82335,20.51256,12.76256Q20.57335,12.70177,20.63981,12.64723Q20.70627,12.59269,20.77775,12.54493Q20.84924,12.497160000000001,20.925060000000002,12.45664Q21.00088,12.41611,21.0803,12.38321Q21.15973,12.35031,21.242,12.32535Q21.32427,12.3004,21.40859,12.28363Q21.492910000000002,12.26685,21.57847,12.25843Q21.66403,12.25,21.75,12.25Q21.83597,12.25,21.92153,12.25843Q22.007089999999998,12.26685,22.09141,12.28363Q22.17573,12.3004,22.258,12.32535Q22.34027,12.35031,22.41969,12.38321Q22.499119999999998,12.41611,22.574939999999998,12.45664Q22.65076,12.497160000000001,22.72225,12.54493Q22.79373,12.59269,22.86019,12.64723Q22.926650000000002,12.70177,22.98744,12.76256Q23.04823,12.82335,23.10277,12.88981Q23.15731,12.95627,23.20507,13.027752Q23.25283,13.099235,23.29336,13.175056Q23.33389,13.250876,23.36679,13.330304Q23.39969,13.409732,23.42464,13.492002Q23.4496,13.574272,23.46637,13.658592Q23.483150000000002,13.742912,23.49157,13.82847Q23.5,13.914028,23.5,14L23.5,18.75Q23.5,20.40682,22.328409999999998,21.578409999999998Q21.15682,22.75,19.5,22.75Q17.843176,22.75,16.671588,21.578409999999998Q15.5,20.40682,15.5,18.75L15.5,18Q15.5,17.91403,15.50843,17.82847Q15.51685,17.742910000000002,15.53363,17.65859Q15.5504,17.57427,15.57535,17.492Q15.60031,17.40973,15.63321,17.3303Q15.66611,17.25088,15.70664,17.175060000000002Q15.747160000000001,17.09924,15.79493,17.02775Q15.84269,16.95627,15.89723,16.88981Q15.95177,16.82335,16.01256,16.76256Q16.07335,16.70177,16.13981,16.64723Q16.20627,16.59269,16.277752,16.54493Q16.349235,16.49716,16.425056,16.45664Q16.500876,16.41611,16.580304,16.38321Q16.659731999999998,16.35031,16.742002,16.32535Q16.824272,16.3004,16.908592,16.28363Q16.992912,16.266849999999998,17.07847,16.25843Q17.164028,16.25,17.25,16.25Q17.335972,16.25,17.42153,16.25843Q17.507088,16.266849999999998,17.591408,16.28363Q17.675728,16.3004,17.757998,16.32535Q17.840268000000002,16.35031,17.919696,16.38321Q17.999124,16.41611,18.074944,16.45664Q18.150765,16.49716,18.222248,16.54493Q18.29373,16.59269,18.36019,16.64723Q18.42665,16.70177,18.48744,16.76256Q18.54823,16.82335,18.60277,16.88981Q18.65731,16.95627,18.70507,17.02775Q18.75284,17.09924,18.79336,17.175060000000002Q18.83389,17.25088,18.86679,17.3303Q18.89969,17.40973,18.92465,17.492Q18.9496,17.57427,18.96637,17.65859Q18.98315,17.742910000000002,18.99157,17.82847Q19,17.91403,19,18L19,18.75Q19,18.95708,19.14646,19.10354Q19.29292,19.25,19.5,19.25Q19.70708,19.25,19.85354,19.10354Q20,18.95708,20,18.75L20,14Z" fill-rule="evenodd" fill="#FFFFFF" fill-opacity="1"/></g><g><path d="M8.70002,13.886239Q7.29752,12.25,5.25,12.25Q3.202476,12.25,1.799983,13.886239Q0.5,15.40288,0.5,17.5Q0.5,19.59712,1.799983,21.11376Q3.202476,22.75,5.25,22.75Q7.29752,22.75,8.70002,21.11376Q10,19.59712,10,17.5Q10,15.40288,8.70002,13.886239ZM4.457380000000001,16.16401Q4.812250000000001,15.75,5.25,15.75Q5.687749999999999,15.75,6.042619999999999,16.16401Q6.5,16.69762,6.5,17.5Q6.5,18.30238,6.042619999999999,18.83599Q5.687749999999999,19.25,5.25,19.25Q4.812250000000001,19.25,4.457380000000001,18.83599Q4,18.30238,4,17.5Q4,16.69762,4.457380000000001,16.16401Z" fill-rule="evenodd" fill="#FFFFFF" fill-opacity="1"/></g></g><g><g><g><path d="M13.5,16.75L13.25,16.75Q13.17613,16.75,13.10368,16.764409999999998Q13.03123,16.77882,12.96299,16.80709Q12.89474,16.83536,12.83332,16.8764Q12.7719,16.91744,12.71967,16.96967Q12.66744,17.0219,12.6264,17.08332Q12.58536,17.14474,12.55709,17.21299Q12.52882,17.28123,12.51441,17.35368Q12.5,17.42613,12.5,17.5Q12.5,17.57387,12.51441,17.64632Q12.52882,17.71877,12.55709,17.78701Q12.58536,17.85526,12.6264,17.91668Q12.66744,17.9781,12.71967,18.03033Q12.7719,18.08256,12.83332,18.1236Q12.89474,18.16464,12.96299,18.19291Q13.03123,18.22118,13.10368,18.235590000000002Q13.17613,18.25,13.25,18.25L13.5,18.25Q13.91422,18.25,14.20711,18.54289Q14.5,18.83579,14.5,19.25Q14.5,19.66422,14.20711,19.95711Q13.91422,20.25,13.5,20.25L11,20.25L11,14.75L11.25,14.75Q11.32387,14.75,11.39632,14.735589000000001Q11.46877,14.721178,11.53701,14.69291Q11.60526,14.664641,11.66668,14.623602Q11.7281,14.582563,11.78033,14.53033Q11.83256,14.478097,11.8736,14.416678Q11.91464,14.355258,11.94291,14.287013Q11.97118,14.218767,11.98559,14.146318Q12,14.0738685,12,14Q12,13.9261315,11.98559,13.853682Q11.97118,13.781233,11.94291,13.712987Q11.91464,13.644742,11.8736,13.583322Q11.83256,13.521903,11.78033,13.46967Q11.7281,13.417437,11.66668,13.376398Q11.60526,13.335359,11.53701,13.30709Q11.46877,13.278822,11.39632,13.264410999999999Q11.32387,13.25,11.25,13.25L10.25,13.25Q10.1761315,13.25,10.103682,13.264410999999999Q10.031233,13.278822,9.962987,13.30709Q9.894742,13.335359,9.833322,13.376398Q9.771903,13.417437,9.71967,13.46967Q9.667437,13.521903,9.626398,13.583322Q9.585359,13.644742,9.55709,13.712987Q9.528822,13.781233,9.514410999999999,13.853682Q9.5,13.9261315,9.5,14L9.5,21Q9.5,21.07387,9.514410999999999,21.14632Q9.528822,21.21877,9.55709,21.287010000000002Q9.585359,21.35526,9.626398,21.41668Q9.667437,21.4781,9.71967,21.53033Q9.771903,21.58256,9.833322,21.6236Q9.894742,21.66464,9.962987,21.69291Q10.031233,21.72118,10.103682,21.735590000000002Q10.1761315,21.75,10.25,21.75L13.5,21.75Q14.535540000000001,21.75,15.267769999999999,21.01777Q16,20.28553,16,19.25Q16,18.21447,15.267769999999999,17.48223Q14.535540000000001,16.75,13.5,16.75Z" fill-rule="evenodd" fill="#2882FF" fill-opacity="1"/></g><g><path d="M11.25,13.25L12.5,13.25Q13.535540000000001,13.25,14.26777,13.9822323Q15,14.714465,15,15.75Q15,16.78554,14.26777,17.51777Q13.535540000000001,18.25,12.5,18.25L10.75,18.25Q10.6761315,18.25,10.603682,18.235590000000002Q10.531233,18.22118,10.462987,18.19291Q10.394742,18.16464,10.333322,18.1236Q10.271903,18.08256,10.21967,18.03033Q10.167437,17.9781,10.126398,17.91668Q10.085359,17.85526,10.05709,17.78701Q10.028822,17.71877,10.014410999999999,17.64632Q10,17.57387,10,17.5Q10,17.42613,10.014410999999999,17.35368Q10.028822,17.28123,10.05709,17.21299Q10.085359,17.14474,10.126398,17.08332Q10.167437,17.0219,10.21967,16.96967Q10.271903,16.91744,10.333322,16.8764Q10.394742,16.83536,10.462987,16.80709Q10.531233,16.77882,10.603682,16.764409999999998Q10.6761315,16.75,10.75,16.75L12.5,16.75Q12.91421,16.75,13.20711,16.45711Q13.5,16.16421,13.5,15.75Q13.5,15.33578,13.20711,15.04289Q12.91422,14.75,12.5,14.75L11.25,14.75Q11.176131,14.75,11.103682,14.735589000000001Q11.031233,14.721178,10.962987,14.69291Q10.894742,14.664641,10.8333223,14.623602Q10.7719029,14.582563,10.7196699,14.53033Q10.667437,14.478097,10.626398,14.416678Q10.585359,14.355258,10.55709,14.287013Q10.528822,14.218767,10.514411,14.146318Q10.5,14.0738685,10.5,14Q10.5,13.9261315,10.514411,13.853682Q10.528822,13.781233,10.55709,13.712987Q10.585359,13.644742,10.626398,13.583322Q10.667437,13.521903,10.7196699,13.46967Q10.7719029,13.417437,10.8333223,13.376398Q10.894742,13.335359,10.962987,13.30709Q11.031233,13.278822,11.103682,13.264410999999999Q11.176131,13.25,11.25,13.25Z" fill-rule="evenodd" fill="#2882FF" fill-opacity="1"/></g></g><g><path d="M21,14Q21,13.9261315,21.014409999999998,13.853682Q21.02882,13.781233,21.05709,13.712987Q21.08536,13.644742,21.1264,13.583322Q21.16744,13.521903,21.21967,13.46967Q21.2719,13.417437,21.33332,13.376398Q21.39474,13.335359,21.462989999999998,13.30709Q21.53123,13.278822,21.60368,13.264410999999999Q21.67613,13.25,21.75,13.25Q21.82387,13.25,21.89632,13.264410999999999Q21.96877,13.278822,22.037010000000002,13.30709Q22.10526,13.335359,22.16668,13.376398Q22.2281,13.417437,22.28033,13.46967Q22.33256,13.521903,22.3736,13.583322Q22.41464,13.644742,22.44291,13.712987Q22.47118,13.781233,22.485590000000002,13.853682Q22.5,13.9261315,22.5,14L22.5,18.75Q22.5,19.99261,21.621299999999998,20.871299999999998Q20.74261,21.75,19.5,21.75Q18.25739,21.75,17.378695,20.871299999999998Q16.5,19.99261,16.5,18.75L16.5,18Q16.5,17.92613,16.514411,17.85368Q16.528822,17.78123,16.55709,17.71299Q16.585359,17.64474,16.626398000000002,17.58332Q16.667437,17.5219,16.71967,17.46967Q16.771903000000002,17.41744,16.833322,17.3764Q16.894742,17.33536,16.962987,17.30709Q17.031233,17.27882,17.103682,17.264409999999998Q17.1761315,17.25,17.25,17.25Q17.3238685,17.25,17.396318,17.264409999999998Q17.468767,17.27882,17.537013,17.30709Q17.605258,17.33536,17.666678,17.3764Q17.728096999999998,17.41744,17.78033,17.46967Q17.832563,17.5219,17.873601999999998,17.58332Q17.914641,17.64474,17.94291,17.71299Q17.971178,17.78123,17.985589,17.85368Q18,17.92613,18,18L18,18.75Q18,19.371290000000002,18.43936,19.81064Q18.87871,20.25,19.5,20.25Q20.121290000000002,20.25,20.56064,19.81064Q21,19.371290000000002,21,18.75L21,14Z" fill-rule="evenodd" fill="#2882FF" fill-opacity="1"/></g><g><path d="M7.94076,14.537031Q6.83759,13.25,5.25,13.25Q3.66241,13.25,2.559239,14.537031Q1.5,15.77281,1.5,17.5Q1.5,19.22719,2.559239,20.46297Q3.66241,21.75,5.25,21.75Q6.83759,21.75,7.94076,20.46297Q9,19.22719,9,17.5Q9,15.77281,7.94076,14.537031ZM3.6981200000000003,15.51322Q4.35231,14.75,5.25,14.75Q6.14769,14.75,6.80188,15.51322Q7.5,16.32769,7.5,17.5Q7.5,18.67231,6.80188,19.48678Q6.14769,20.25,5.25,20.25Q4.35231,20.25,3.6981200000000003,19.48678Q3,18.67231,3,17.5Q3,16.32769,3.6981200000000003,15.51322Z" fill-rule="evenodd" fill="#2882FF" fill-opacity="1"/></g></g></g></svg>