<svg xmlns="http://www.w3.org/2000/svg" xmlns:xlink="http://www.w3.org/1999/xlink" fill="none" version="1.1" width="24" height="24" viewBox="0 0 24 24"><defs><clipPath id="master_svg0_63_20048"><rect x="0" y="0" width="24" height="24" rx="0"/></clipPath></defs><g clip-path="url(#master_svg0_63_20048)"><g><path d="M17.5048828125,2.25Q18.5662528125,2.25,19.3439928125,2.784697Q20.2548828125,3.410933,20.2548828125,4.375L20.2548828125,6.4375Q20.2548828125,6.98789,20.6290928125,7.3738Q20.9938928125,7.75,21.5048828125,7.75Q21.5787528125,7.75,21.6512028125,7.76441Q21.7236528125,7.77882,21.791892812500002,7.80709Q21.8601428125,7.83536,21.9215628125,7.8764Q21.9829828125,7.91744,22.0352128125,7.96967Q22.0874428125,8.021899999999999,22.1284828125,8.08332Q22.1695228125,8.144739999999999,22.1977928125,8.21299Q22.2260628125,8.28123,22.240472812500002,8.35368Q22.2548828125,8.42613,22.2548828125,8.5Q22.2548828125,8.57387,22.240472812500002,8.64632Q22.2260628125,8.71877,22.1977928125,8.78701Q22.1695228125,8.855260000000001,22.1284828125,8.91668Q22.0874428125,8.978100000000001,22.0352128125,9.03033Q21.9829828125,9.08256,21.9215628125,9.1236Q21.8601428125,9.16464,21.791892812500002,9.192910000000001Q21.7236528125,9.22118,21.6512028125,9.23559Q21.5787528125,9.25,21.5048828125,9.25Q20.9938928125,9.25,20.6290928125,9.6262Q20.2548828125,10.01211,20.2548828125,10.5625L20.2548828125,12.625Q20.2548828125,13.5891,19.3439928125,14.2153Q18.5662528125,14.75,17.5048828125,14.75Q17.4310143125,14.75,17.3585648125,14.7356Q17.2861158125,14.7212,17.2178698125,14.6929Q17.1496248125,14.6646,17.0882048125,14.6236Q17.026785812500002,14.5826,16.9745528125,14.5303Q16.9223198125,14.4781,16.881280812500002,14.4167Q16.8402418125,14.3553,16.8119728125,14.287Q16.7837048125,14.2188,16.7692938125,14.1463Q16.7548828125,14.0739,16.7548828125,14Q16.7548828125,13.9261,16.7692938125,13.8537Q16.7837048125,13.7812,16.8119728125,13.713Q16.8402418125,13.6447,16.881280812500002,13.5833Q16.9223198125,13.5219,16.9745528125,13.4697Q17.026785812500002,13.4174,17.0882048125,13.3764Q17.1496248125,13.3354,17.2178698125,13.3071Q17.2861158125,13.2788,17.3585648125,13.2644Q17.4310143125,13.25,17.5048828125,13.25Q18.1003678125,13.25,18.4941998125,12.97924Q18.7548828125,12.80002,18.7548828125,12.625L18.7548828125,10.5625Q18.7548828125,9.40426,19.5522428125,8.58198Q19.5930228125,8.53993,19.6346728125,8.5Q19.5930228125,8.46007,19.5522428125,8.41802Q18.7548828125,7.59574,18.7548828125,6.4375L18.7548828125,4.375Q18.7548828125,4.19998,18.4941998125,4.02076Q18.1003678125,3.75,17.5048828125,3.75Q17.4310143125,3.75,17.3585648125,3.735589Q17.2861158125,3.721178,17.2178698125,3.69291Q17.1496248125,3.664641,17.0882048125,3.623602Q17.026785812500002,3.582563,16.9745528125,3.53033Q16.9223198125,3.478097,16.881280812500002,3.416678Q16.8402418125,3.355258,16.8119728125,3.287013Q16.7837048125,3.218767,16.7692938125,3.146318Q16.7548828125,3.0738685,16.7548828125,3Q16.7548828125,2.9261315,16.7692938125,2.853682Q16.7837048125,2.781233,16.8119728125,2.712987Q16.8402418125,2.644742,16.881280812500002,2.583322Q16.9223198125,2.521903,16.9745528125,2.46967Q17.026785812500002,2.417437,17.0882048125,2.376398Q17.1496248125,2.335359,17.2178698125,2.30709Q17.2861158125,2.278822,17.3585648125,2.264411Q17.4310143125,2.25,17.5048828125,2.25Z" fill-rule="evenodd" fill="#231F2E" fill-opacity="1"/></g><g transform="matrix(-1,0,0,1,13.009765625,0)"><path d="M6.5048828125,2.25Q7.5662528125,2.25,8.3439928125,2.784697Q9.2548828125,3.410933,9.2548828125,4.375L9.2548828125,6.4375Q9.2548828125,6.98789,9.6290928125,7.3738Q9.9938928125,7.75,10.5048828125,7.75Q10.5787528125,7.75,10.6512028125,7.76441Q10.7236528125,7.77882,10.7918928125,7.80709Q10.860142812500001,7.83536,10.9215628125,7.8764Q10.982982812500001,7.91744,11.0352128125,7.96967Q11.0874428125,8.021899999999999,11.1284828125,8.08332Q11.1695228125,8.144739999999999,11.197792812500001,8.21299Q11.2260628125,8.28123,11.2404728125,8.35368Q11.2548828125,8.42613,11.2548828125,8.5Q11.2548828125,8.57387,11.2404728125,8.64632Q11.2260628125,8.71877,11.197792812500001,8.78701Q11.1695228125,8.855260000000001,11.1284828125,8.91668Q11.0874428125,8.978100000000001,11.0352128125,9.03033Q10.982982812500001,9.08256,10.9215628125,9.1236Q10.860142812500001,9.16464,10.7918928125,9.192910000000001Q10.7236528125,9.22118,10.6512028125,9.23559Q10.5787528125,9.25,10.5048828125,9.25Q9.9938928125,9.25,9.6290928125,9.6262Q9.2548828125,10.01211,9.2548828125,10.5625L9.2548828125,12.625Q9.2548828125,13.5891,8.3439928125,14.2153Q7.5662528125,14.75,6.5048828125,14.75Q6.4310143125,14.75,6.3585648125,14.7356Q6.2861158125,14.7212,6.2178698125,14.6929Q6.1496248125,14.6646,6.0882048125,14.6236Q6.0267858125,14.5826,5.9745528125,14.5303Q5.9223198125,14.4781,5.8812808125,14.4167Q5.8402418125,14.3553,5.8119728125,14.287Q5.7837048125,14.2188,5.7692938125,14.1463Q5.7548828125,14.0739,5.7548828125,14Q5.7548828125,13.9261,5.7692938125,13.8537Q5.7837048125,13.7812,5.8119728125,13.713Q5.8402418125,13.6447,5.8812808125,13.5833Q5.9223198125,13.5219,5.9745528125,13.4697Q6.0267858125,13.4174,6.0882048125,13.3764Q6.1496248125,13.3354,6.2178698125,13.3071Q6.2861158125,13.2788,6.3585648125,13.2644Q6.4310143125,13.25,6.5048828125,13.25Q7.1003678125,13.25,7.4941998125,12.97924Q7.7548828125,12.80002,7.7548828125,12.625L7.7548828125,10.5625Q7.7548828125,9.40426,8.5522428125,8.58198Q8.5930228125,8.53993,8.6346728125,8.5Q8.5930228125,8.46007,8.5522428125,8.41802Q7.7548828125,7.59574,7.7548828125,6.4375L7.7548828125,4.375Q7.7548828125,4.19998,7.4941998125,4.02076Q7.1003678125,3.75,6.5048828125,3.75Q6.4310143125,3.75,6.3585648125,3.735589Q6.2861158125,3.721178,6.2178698125,3.69291Q6.1496248125,3.664641,6.0882048125,3.623602Q6.0267858125,3.582563,5.9745528125,3.53033Q5.9223198125,3.478097,5.8812808125,3.416678Q5.8402418125,3.355258,5.8119728125,3.287013Q5.7837048125,3.218767,5.7692938125,3.146318Q5.7548828125,3.0738685,5.7548828125,3Q5.7548828125,2.9261315,5.7692938125,2.853682Q5.7837048125,2.781233,5.8119728125,2.712987Q5.8402418125,2.644742,5.8812808125,2.583322Q5.9223198125,2.521903,5.9745528125,2.46967Q6.0267858125,2.417437,6.0882048125,2.376398Q6.1496248125,2.335359,6.2178698125,2.30709Q6.2861158125,2.278822,6.3585648125,2.264411Q6.4310143125,2.25,6.5048828125,2.25Z" fill-rule="evenodd" fill="#231F2E" fill-opacity="1"/></g><g><g><path d="M10.0048828125,22.75L10.0564833125,22.75Q10.1966078125,22.75,10.3349478125,22.7277Q10.4732868125,22.70541,10.6063158125,22.66138Q10.7393448125,22.617350000000002,10.8636738125,22.55272Q10.9880018125,22.48809,11.1004628125,22.4045Q11.2129228125,22.3209,11.3106428125,22.220480000000002Q11.4083728125,22.120060000000002,11.4888728125,22.00537Q11.5693728125,21.89067,11.6306028125,21.76463Q11.6918228125,21.63859,11.7322128125,21.50441L15.5243128125,14.868243Q15.6098228125,14.718593,15.6645028125,14.555135Q15.7191728125,14.391677,15.7409128125,14.220693Q15.762642812500001,14.0497091,15.7506128125,13.87777Q15.7385728125,13.705831,15.6932228125,13.539544Q15.647872812500001,13.373258,15.5709428125,13.219014Q15.494022812499999,13.06477,15.388492812500001,12.9285Q15.2829628125,12.79222,15.1528728125,12.67916Q15.022772812500001,12.566089999999999,14.8731228125,12.48057Q14.6748128125,12.36725,14.454052812499999,12.30863Q14.2332928125,12.25,14.0048828125,12.25L13.9543828125,12.25Q13.8145228125,12.25,13.6764428125,12.27221Q13.5383628125,12.29442,13.4055628125,12.33828Q13.2727628125,12.38214,13.1486128125,12.44654Q13.0244628125,12.51094,12.9121228125,12.59423Q12.7997728125,12.67753,12.7020828125,12.77761Q12.6043928125,12.87769,12.5238328125,12.99201Q12.4432828125,13.106341,12.3819028125,13.23201Q12.3205228125,13.357679,12.2798928125,13.491501L8.4854528125,20.13176Q8.3721328125,20.33007,8.3135128125,20.55083Q8.2548828125,20.77159,8.2548828125,21Q8.2548828125,21.08597,8.2633128125,21.17153Q8.2717328125,21.257089999999998,8.2885128125,21.34141Q8.3052828125,21.42573,8.3302328125,21.508Q8.3551928125,21.59027,8.3880928125,21.66969Q8.4209928125,21.749119999999998,8.4615228125,21.824939999999998Q8.502042812500001,21.90076,8.5498128125,21.97225Q8.5975728125,22.04373,8.6521128125,22.11019Q8.7066528125,22.17664,8.7674428125,22.23744Q8.8282328125,22.29823,8.8946928125,22.35277Q8.9611528125,22.407310000000003,9.0326348125,22.45507Q9.1041178125,22.50283,9.1799388125,22.54336Q9.2557588125,22.58389,9.3351868125,22.61679Q9.4146148125,22.64969,9.4968848125,22.67465Q9.5791548125,22.6996,9.6634748125,22.716369999999998Q9.7477948125,22.733150000000002,9.8333528125,22.74157Q9.9189108125,22.75,10.0048828125,22.75Z" fill-rule="evenodd" fill="#FFFFFF" fill-opacity="1" style="mix-blend-mode:passthrough"/></g><g><path d="M10.0564833125,12.25L10.0048828125,12.25Q9.9189108125,12.25,9.8333528125,12.25843Q9.7477948125,12.26685,9.6634748125,12.28363Q9.5791548125,12.3004,9.4968848125,12.32535Q9.4146148125,12.35031,9.3351868125,12.38321Q9.2557588125,12.41611,9.1799388125,12.45664Q9.1041178125,12.497160000000001,9.0326348125,12.54493Q8.9611528125,12.59269,8.8946928125,12.64723Q8.8282328125,12.70177,8.7674428125,12.76256Q8.7066528125,12.82335,8.6521128125,12.88981Q8.5975728125,12.95627,8.5498128125,13.027752Q8.502042812500001,13.099235,8.4615228125,13.175056Q8.4209928125,13.250876,8.3880928125,13.330304Q8.3551928125,13.409732,8.3302328125,13.492002Q8.3052828125,13.574272,8.2885128125,13.658592Q8.2717328125,13.742912,8.2633128125,13.82847Q8.2548828125,13.914028,8.2548828125,14Q8.2548828125,14.22841,8.3135128125,14.449169Q8.3721328125,14.669927,8.4854528125,14.868243L12.2798928125,21.508499999999998Q12.3205228125,21.642319999999998,12.3819028125,21.76799Q12.4432828125,21.89366,12.5238328125,22.00799Q12.6043928125,22.12231,12.7020828125,22.22239Q12.7997728125,22.32247,12.9121228125,22.40577Q13.0244628125,22.489069999999998,13.1486128125,22.55346Q13.2727628125,22.61786,13.4055628125,22.661720000000003Q13.5383628125,22.705579999999998,13.6764428125,22.72779Q13.8145228125,22.75,13.9543828125,22.75L14.0048828125,22.75Q14.2332928125,22.75,14.454052812499999,22.69137Q14.6748128125,22.63275,14.8731228125,22.51943Q14.9477728125,22.476770000000002,15.0178728125,22.42701Q15.0879828125,22.37724,15.1528728125,22.32084Q15.217752812499999,22.26445,15.2768028125,22.20196Q15.3358528125,22.13947,15.388492812500001,22.0715Q15.441132812500001,22.003529999999998,15.4868528125,21.93073Q15.5325828125,21.85792,15.5709428125,21.78099Q15.6093128125,21.70405,15.639952812499999,21.62372Q15.6706028125,21.5434,15.6932228125,21.46045Q15.7158428125,21.37751,15.7302228125,21.292749999999998Q15.7446028125,21.20799,15.7506128125,21.122230000000002Q15.7566128125,21.03647,15.7541828125,20.95053Q15.751752812500001,20.86459,15.7409128125,20.77931Q15.7300728125,20.694020000000002,15.7109228125,20.610210000000002Q15.6917728125,20.5264,15.6645028125,20.44486Q15.6372228125,20.36333,15.6020928125,20.284869999999998Q15.5669628125,20.206400000000002,15.5243128125,20.13176L11.7322128125,13.495591Q11.6918228125,13.361413,11.6306028125,13.235371Q11.5693728125,13.109329,11.4888728125,12.99464Q11.4083728125,12.87994,11.3106428125,12.77952Q11.2129228125,12.6791,11.1004628125,12.5955Q10.9880018125,12.51191,10.8636738125,12.44728Q10.7393448125,12.38265,10.6063158125,12.33862Q10.4732868125,12.29459,10.3349478125,12.2723Q10.1966078125,12.25,10.0564833125,12.25Z" fill-rule="evenodd" fill="#FFFFFF" fill-opacity="1" style="mix-blend-mode:passthrough"/></g><g><path d="M2.0048828125,12.25L7.0048828125,12.25Q7.0908528125,12.25,7.1764128125,12.25843Q7.2619728125,12.26685,7.3462928125,12.28363Q7.4306128125,12.3004,7.5128828125,12.32535Q7.5951528125,12.35031,7.6745728125,12.38321Q7.7540028125,12.41611,7.8298228125,12.45664Q7.9056428125,12.497160000000001,7.9771328125,12.54493Q8.0486128125,12.59269,8.1150728125,12.64723Q8.1815328125,12.70177,8.2423228125,12.76256Q8.3031128125,12.82335,8.3576528125,12.88981Q8.412192812499999,12.95627,8.4599528125,13.027752Q8.5077128125,13.099235,8.5482428125,13.175056Q8.5887728125,13.250876,8.6216728125,13.330304Q8.6545728125,13.409732,8.6795228125,13.492002Q8.7044828125,13.574272,8.721252812500001,13.658592Q8.7380328125,13.742912,8.7464528125,13.82847Q8.7548828125,13.914028,8.7548828125,14Q8.7548828125,14.085972,8.7464528125,14.17153Q8.7380328125,14.257088,8.721252812500001,14.341408Q8.7044828125,14.425728,8.6795228125,14.507998Q8.6545728125,14.590268,8.6216728125,14.669696Q8.5887728125,14.749124,8.5482428125,14.824944Q8.5077128125,14.900765,8.4599528125,14.972248Q8.412192812499999,15.04373,8.3576528125,15.11019Q8.3031128125,15.17665,8.2423228125,15.23744Q8.1815328125,15.29823,8.1150728125,15.35277Q8.0486128125,15.40731,7.9771328125,15.45507Q7.9056428125,15.502839999999999,7.8298228125,15.54336Q7.7540028125,15.58389,7.6745728125,15.61679Q7.5951528125,15.64969,7.5128828125,15.67465Q7.4306128125,15.6996,7.3462928125,15.71637Q7.2619728125,15.73315,7.1764128125,15.74157Q7.0908528125,15.75,7.0048828125,15.75L6.2548828125,15.75L6.2548828125,21Q6.2548828125,21.08597,6.2464528125,21.17153Q6.2380328125,21.257089999999998,6.2212528125,21.34141Q6.2044828125,21.42573,6.1795328125,21.508Q6.1545728125,21.59027,6.1216728125,21.66969Q6.0887728125,21.749119999999998,6.0482428125,21.824939999999998Q6.0077228125,21.90076,5.9599528125,21.97225Q5.9121928125,22.04373,5.8576528125,22.11019Q5.8031128125,22.17664,5.742322812499999,22.23744Q5.6815328125,22.29823,5.615072812499999,22.35277Q5.5486128125,22.407310000000003,5.4771328125,22.45507Q5.4056428125,22.50283,5.3298228125,22.54336Q5.2540028125,22.58389,5.174582812500001,22.61679Q5.0951528125,22.64969,5.0128828125,22.67465Q4.9306128125,22.6996,4.8462928125,22.716369999999998Q4.7619728125,22.733150000000002,4.676412812500001,22.74157Q4.5908528125,22.75,4.5048828125,22.75Q4.4189128125,22.75,4.333352812499999,22.74157Q4.2477928125,22.733150000000002,4.1634728125,22.716369999999998Q4.0791528125,22.6996,3.9968828125,22.67465Q3.9146128124999997,22.64969,3.8351828125000003,22.61679Q3.7557628125,22.58389,3.6799428125,22.54336Q3.6041228125,22.50284,3.5326328125,22.45507Q3.4611528125,22.407310000000003,3.3946928124999998,22.35277Q3.3282328125,22.29823,3.2674428124999997,22.23744Q3.2066528125,22.17664,3.1521128125,22.11019Q3.0975728125,22.04373,3.0498128125,21.97225Q3.0020478125,21.90076,2.9615208125,21.824939999999998Q2.9209938125,21.749119999999998,2.8880938125,21.66969Q2.8551938125,21.59027,2.8302368125,21.508Q2.8052808125,21.42573,2.7885088125,21.34141Q2.7717358125000002,21.257089999999998,2.7633098125,21.17153Q2.7548828125,21.08597,2.7548828125,21L2.7548828125,15.75L2.0048828125,15.75Q1.9189108125,15.75,1.8333528125,15.74157Q1.7477948125,15.73315,1.6634748125,15.71637Q1.5791548125000001,15.6996,1.4968848125,15.67465Q1.4146148125,15.64969,1.3351868125,15.61679Q1.2557588124999999,15.58389,1.1799388125,15.54336Q1.1041178125,15.502839999999999,1.0326348125,15.45507Q0.9611528125,15.40731,0.8946928125,15.35277Q0.8282328125,15.29823,0.7674428124999999,15.23744Q0.7066528125,15.17665,0.6521128125,15.11019Q0.5975728124999999,15.04373,0.5498128124999999,14.972248Q0.5020428125,14.900765,0.46152281249999993,14.824944Q0.4209928125,14.749124,0.38809281250000005,14.669696Q0.3551928124999999,14.590268,0.33023281250000003,14.507998Q0.3052828125,14.425728,0.28851281250000005,14.341408Q0.27173281250000003,14.257088,0.26331281249999994,14.17153Q0.2548828125,14.085972,0.2548828125,14Q0.2548828125,13.914028,0.26331281249999994,13.82847Q0.27173281250000003,13.742912,0.28851281250000005,13.658592Q0.3052828125,13.574272,0.33023281250000003,13.492002Q0.3551928124999999,13.409732,0.38809281250000005,13.330304Q0.4209928125,13.250876,0.46152281249999993,13.175056Q0.5020428125,13.099235,0.5498128124999999,13.027752Q0.5975728124999999,12.95627,0.6521128125,12.88981Q0.7066528125,12.82335,0.7674428124999999,12.76256Q0.8282328125,12.70177,0.8946928125,12.64723Q0.9611528125,12.59269,1.0326348125,12.54493Q1.1041178125,12.497160000000001,1.1799388125,12.45664Q1.2557588124999999,12.41611,1.3351868125,12.38321Q1.4146148125,12.35031,1.4968848125,12.32535Q1.5791548125000001,12.3004,1.6634748125,12.28363Q1.7477948125,12.26685,1.8333528125,12.25843Q1.9189108125,12.25,2.0048828125,12.25Z" fill-rule="evenodd" fill="#FFFFFF" fill-opacity="1" style="mix-blend-mode:passthrough"/></g><g><path d="M17.0048828125,12.25L22.0048828125,12.25Q22.0908528125,12.25,22.1764128125,12.25843Q22.261972812499998,12.26685,22.3462928125,12.28363Q22.4306128125,12.3004,22.5128828125,12.32535Q22.5951528125,12.35031,22.6745728125,12.38321Q22.754002812499998,12.41611,22.829822812499998,12.45664Q22.9056428125,12.497160000000001,22.9771328125,12.54493Q23.0486128125,12.59269,23.1150728125,12.64723Q23.181532812500002,12.70177,23.2423228125,12.76256Q23.3031128125,12.82335,23.3576528125,12.88981Q23.4121928125,12.95627,23.4599528125,13.027752Q23.5077128125,13.099235,23.5482428125,13.175056Q23.5887728125,13.250876,23.6216728125,13.330304Q23.6545728125,13.409732,23.6795228125,13.492002Q23.7044828125,13.574272,23.7212528125,13.658592Q23.738032812500002,13.742912,23.7464528125,13.82847Q23.7548828125,13.914028,23.7548828125,14Q23.7548828125,14.085972,23.7464528125,14.17153Q23.738032812500002,14.257088,23.7212528125,14.341408Q23.7044828125,14.425728,23.6795228125,14.507998Q23.6545728125,14.590268,23.6216728125,14.669696Q23.5887728125,14.749124,23.5482428125,14.824944Q23.5077128125,14.900765,23.4599528125,14.972248Q23.4121928125,15.04373,23.3576528125,15.11019Q23.3031128125,15.17665,23.2423228125,15.23744Q23.181532812500002,15.29823,23.1150728125,15.35277Q23.0486128125,15.40731,22.9771328125,15.45507Q22.9056428125,15.502839999999999,22.829822812499998,15.54336Q22.754002812499998,15.58389,22.6745728125,15.61679Q22.5951528125,15.64969,22.5128828125,15.67465Q22.4306128125,15.6996,22.3462928125,15.71637Q22.261972812499998,15.73315,22.1764128125,15.74157Q22.0908528125,15.75,22.0048828125,15.75L21.2548828125,15.75L21.2548828125,21Q21.2548828125,21.08597,21.2464528125,21.17153Q21.238032812500002,21.257089999999998,21.2212528125,21.34141Q21.2044828125,21.42573,21.1795328125,21.508Q21.1545728125,21.59027,21.1216728125,21.66969Q21.0887728125,21.749119999999998,21.0482428125,21.824939999999998Q21.0077228125,21.90076,20.9599528125,21.97225Q20.9121928125,22.04373,20.8576528125,22.11019Q20.8031128125,22.17664,20.7423228125,22.23744Q20.6815328125,22.29823,20.6150728125,22.35277Q20.5486128125,22.407310000000003,20.4771328125,22.45507Q20.4056428125,22.50283,20.329822812499998,22.54336Q20.2540028125,22.58389,20.1745828125,22.61679Q20.0951528125,22.64969,20.0128828125,22.67465Q19.9306128125,22.6996,19.8462928125,22.716369999999998Q19.761972812499998,22.733150000000002,19.6764128125,22.74157Q19.5908528125,22.75,19.5048828125,22.75Q19.4189128125,22.75,19.3333528125,22.74157Q19.247792812500002,22.733150000000002,19.1634728125,22.716369999999998Q19.0791528125,22.6996,18.9968828125,22.67465Q18.9146128125,22.64969,18.8351828125,22.61679Q18.7557628125,22.58389,18.6799428125,22.54336Q18.6041228125,22.50284,18.5326328125,22.45507Q18.4611528125,22.407310000000003,18.3946928125,22.35277Q18.3282328125,22.29823,18.2674428125,22.23744Q18.2066528125,22.17664,18.1521128125,22.11019Q18.0975728125,22.04373,18.0498128125,21.97225Q18.0020478125,21.90076,17.9615208125,21.824939999999998Q17.9209938125,21.749119999999998,17.8880938125,21.66969Q17.8551938125,21.59027,17.8302368125,21.508Q17.8052808125,21.42573,17.7885088125,21.34141Q17.7717358125,21.257089999999998,17.7633098125,21.17153Q17.7548828125,21.08597,17.7548828125,21L17.7548828125,15.75L17.0048828125,15.75Q16.9189108125,15.75,16.8333528125,15.74157Q16.7477948125,15.73315,16.6634748125,15.71637Q16.5791548125,15.6996,16.4968848125,15.67465Q16.414614812499998,15.64969,16.3351868125,15.61679Q16.2557588125,15.58389,16.1799388125,15.54336Q16.1041178125,15.502839999999999,16.0326348125,15.45507Q15.9611528125,15.40731,15.8946928125,15.35277Q15.8282328125,15.29823,15.7674428125,15.23744Q15.7066528125,15.17665,15.6521128125,15.11019Q15.5975728125,15.04373,15.5498128125,14.972248Q15.502042812500001,14.900765,15.4615228125,14.824944Q15.4209928125,14.749124,15.3880928125,14.669696Q15.3551928125,14.590268,15.3302328125,14.507998Q15.3052828125,14.425728,15.2885128125,14.341408Q15.2717328125,14.257088,15.2633128125,14.17153Q15.2548828125,14.085972,15.2548828125,14Q15.2548828125,13.914028,15.2633128125,13.82847Q15.2717328125,13.742912,15.2885128125,13.658592Q15.3052828125,13.574272,15.3302328125,13.492002Q15.3551928125,13.409732,15.3880928125,13.330304Q15.4209928125,13.250876,15.4615228125,13.175056Q15.502042812500001,13.099235,15.5498128125,13.027752Q15.5975728125,12.95627,15.6521128125,12.88981Q15.7066528125,12.82335,15.7674428125,12.76256Q15.8282328125,12.70177,15.8946928125,12.64723Q15.9611528125,12.59269,16.0326348125,12.54493Q16.1041178125,12.497160000000001,16.1799388125,12.45664Q16.2557588125,12.41611,16.3351868125,12.38321Q16.414614812499998,12.35031,16.4968848125,12.32535Q16.5791548125,12.3004,16.6634748125,12.28363Q16.7477948125,12.26685,16.8333528125,12.25843Q16.9189108125,12.25,17.0048828125,12.25Z" fill-rule="evenodd" fill="#FFFFFF" fill-opacity="1" style="mix-blend-mode:passthrough"/></g></g><g><g><path d="M10.0048828125,21.75L10.0564833125,21.75Q10.1222308125,21.75,10.1869758125,21.73856Q10.2517208125,21.72712,10.3134878125,21.70459Q10.3752548125,21.68206,10.4321598125,21.64913Q10.4890648125,21.6162,10.5393718125,21.57386Q10.5896778125,21.53153,10.6318528125,21.481090000000002Q10.6740268125,21.43066,10.706781812500001,21.373649999999998Q10.7395368125,21.31664,10.7618738125,21.2548Q10.7842108125,21.19297,10.7954478125,21.12818L14.6560628125,14.372104Q14.730082812500001,14.242576,14.7488928125,14.0945828Q14.767712812500001,13.9465896,14.728452812499999,13.802662Q14.6892028125,13.658734,14.5978628125,13.540784Q14.506512812499999,13.422834,14.3769828125,13.348818Q14.204052812499999,13.25,14.0048828125,13.25L13.9543828125,13.25Q13.8888128125,13.25,13.8242328125,13.261378Q13.7596628125,13.272756,13.6980428125,13.295167Q13.636422812500001,13.317578,13.5796228125,13.350343Q13.5228228125,13.383107,13.472572812500001,13.425229Q13.4223228125,13.467352,13.3801428125,13.517556Q13.337962812499999,13.567759,13.3051428125,13.62452Q13.272312812500001,13.681281,13.2498328125,13.742878Q13.2273528125,13.804474,13.2159028125,13.869037L9.3537008125,20.6279Q9.2548828125,20.80083,9.2548828125,21Q9.2548828125,21.07387,9.269293812499999,21.14632Q9.2837048125,21.21877,9.3119728125,21.287010000000002Q9.3402418125,21.35526,9.3812808125,21.41668Q9.4223198125,21.4781,9.4745528125,21.53033Q9.5267858125,21.58256,9.5882048125,21.6236Q9.6496248125,21.66464,9.7178698125,21.69291Q9.7861158125,21.72118,9.8585648125,21.735590000000002Q9.9310143125,21.75,10.0048828125,21.75Z" fill-rule="evenodd" fill="#2882FF" fill-opacity="1" style="mix-blend-mode:passthrough"/></g><g><path d="M10.0564833125,13.25L10.0048828125,13.25Q9.9310143125,13.25,9.8585648125,13.264410999999999Q9.7861158125,13.278822,9.7178698125,13.30709Q9.6496248125,13.335359,9.5882048125,13.376398Q9.5267858125,13.417437,9.4745528125,13.46967Q9.4223198125,13.521903,9.3812808125,13.583322Q9.3402418125,13.644742,9.3119728125,13.712987Q9.2837048125,13.781233,9.269293812499999,13.853682Q9.2548828125,13.9261315,9.2548828125,14Q9.2548828125,14.199173,9.3537008125,14.372104L13.2159028125,21.13096Q13.2273528125,21.195529999999998,13.2498328125,21.25712Q13.272312812500001,21.31872,13.3051428125,21.37548Q13.3379728125,21.43224,13.3801428125,21.48244Q13.4223228125,21.53265,13.472572812500001,21.57477Q13.5228228125,21.616889999999998,13.5796228125,21.64966Q13.636422812500001,21.68242,13.6980428125,21.70483Q13.7596628125,21.727240000000002,13.8242328125,21.73862Q13.8888128125,21.75,13.9543828125,21.75L14.0048828125,21.75Q14.204052812499999,21.75,14.3769828125,21.65118Q14.506512812499999,21.57717,14.5978628125,21.459220000000002Q14.6892028125,21.34126,14.728452812499999,21.19734Q14.767712812500001,21.05341,14.7488928125,20.90542Q14.730082812500001,20.75742,14.6560628125,20.6279L10.7954478125,13.871816Q10.7842108125,13.807035,10.7618738125,13.745198Q10.7395368125,13.683361,10.706781812500001,13.626354Q10.6740268125,13.569346,10.6318528125,13.518907Q10.5896778125,13.468468,10.5393718125,13.426137Q10.4890648125,13.383805,10.4321598125,13.350872Q10.3752548125,13.317938999999999,10.3134878125,13.295409Q10.2517208125,13.272879,10.1869758125,13.261439Q10.1222308125,13.25,10.0564833125,13.25Z" fill-rule="evenodd" fill="#2882FF" fill-opacity="1" style="mix-blend-mode:passthrough"/></g><g><path d="M2.0048828125,13.25L7.0048828125,13.25Q7.0787528125,13.25,7.1512028125,13.264410999999999Q7.2236528125,13.278822,7.2918928125,13.30709Q7.3601428125,13.335359,7.4215628125,13.376398Q7.4829828125,13.417437,7.5352128125,13.46967Q7.5874428125,13.521903,7.6284828125,13.583322Q7.6695228125,13.644742,7.6977928125,13.712987Q7.7260628125,13.781233,7.7404728125,13.853682Q7.7548828125,13.9261315,7.7548828125,14Q7.7548828125,14.0738685,7.7404728125,14.146318Q7.7260628125,14.218767,7.6977928125,14.287013Q7.6695228125,14.355258,7.6284828125,14.416678Q7.5874428125,14.478097,7.5352128125,14.53033Q7.4829828125,14.582563,7.4215628125,14.623602Q7.3601428125,14.664641,7.2918928125,14.69291Q7.2236528125,14.721178,7.1512028125,14.735589000000001Q7.0787528125,14.75,7.0048828125,14.75L5.2548828125,14.75L5.2548828125,21Q5.2548828125,21.07387,5.2404728125,21.14632Q5.2260628125,21.21877,5.1977928124999995,21.287010000000002Q5.1695228125,21.35526,5.1284828125,21.41668Q5.0874428125,21.4781,5.0352128125,21.53033Q4.9829828124999995,21.58256,4.9215628124999995,21.6236Q4.8601428124999995,21.66464,4.7918928125,21.69291Q4.7236528125,21.72118,4.651202812499999,21.735590000000002Q4.578752812499999,21.75,4.5048828125,21.75Q4.431012812500001,21.75,4.358562812500001,21.735590000000002Q4.2861128125,21.72118,4.2178728125,21.69291Q4.1496228125000005,21.66464,4.0882028125000005,21.6236Q4.0267828125000005,21.58256,3.9745528125,21.53033Q3.9223228125,21.4781,3.8812828125000003,21.41668Q3.8402428125,21.35526,3.8119728125,21.287010000000002Q3.7837028125,21.21877,3.7692928125,21.14632Q3.7548828125,21.07387,3.7548828125,21L3.7548828125,14.75L2.0048828125,14.75Q1.9310143124999999,14.75,1.8585648125,14.735589000000001Q1.7861158125,14.721178,1.7178698125,14.69291Q1.6496248125,14.664641,1.5882048125,14.623602Q1.5267858125,14.582563,1.4745528125,14.53033Q1.4223198125,14.478097,1.3812808125,14.416678Q1.3402418125,14.355258,1.3119728125,14.287013Q1.2837048125,14.218767,1.2692938125,14.146318Q1.2548828125,14.0738685,1.2548828125,14Q1.2548828125,13.9261315,1.2692938125,13.853682Q1.2837048125,13.781233,1.3119728125,13.712987Q1.3402418125,13.644742,1.3812808125,13.583322Q1.4223198125,13.521903,1.4745528125,13.46967Q1.5267858125,13.417437,1.5882048125,13.376398Q1.6496248125,13.335359,1.7178698125,13.30709Q1.7861158125,13.278822,1.8585648125,13.264410999999999Q1.9310143124999999,13.25,2.0048828125,13.25Z" fill-rule="evenodd" fill="#2882FF" fill-opacity="1" style="mix-blend-mode:passthrough"/></g><g><path d="M17.0048828125,13.25L22.0048828125,13.25Q22.0787528125,13.25,22.1512028125,13.264410999999999Q22.2236528125,13.278822,22.291892812500002,13.30709Q22.3601428125,13.335359,22.4215628125,13.376398Q22.4829828125,13.417437,22.5352128125,13.46967Q22.5874428125,13.521903,22.6284828125,13.583322Q22.6695228125,13.644742,22.6977928125,13.712987Q22.7260628125,13.781233,22.740472812500002,13.853682Q22.7548828125,13.9261315,22.7548828125,14Q22.7548828125,14.0738685,22.740472812500002,14.146318Q22.7260628125,14.218767,22.6977928125,14.287013Q22.6695228125,14.355258,22.6284828125,14.416678Q22.5874428125,14.478097,22.5352128125,14.53033Q22.4829828125,14.582563,22.4215628125,14.623602Q22.3601428125,14.664641,22.291892812500002,14.69291Q22.2236528125,14.721178,22.1512028125,14.735589000000001Q22.0787528125,14.75,22.0048828125,14.75L20.2548828125,14.75L20.2548828125,21Q20.2548828125,21.07387,20.240472812500002,21.14632Q20.2260628125,21.21877,20.1977928125,21.287010000000002Q20.1695228125,21.35526,20.1284828125,21.41668Q20.0874428125,21.4781,20.0352128125,21.53033Q19.9829828125,21.58256,19.9215628125,21.6236Q19.8601428125,21.66464,19.7918928125,21.69291Q19.7236528125,21.72118,19.6512028125,21.735590000000002Q19.5787528125,21.75,19.5048828125,21.75Q19.4310128125,21.75,19.3585628125,21.735590000000002Q19.2861128125,21.72118,19.2178728125,21.69291Q19.1496228125,21.66464,19.0882028125,21.6236Q19.0267828125,21.58256,18.9745528125,21.53033Q18.9223228125,21.4781,18.8812828125,21.41668Q18.8402428125,21.35526,18.8119728125,21.287010000000002Q18.7837028125,21.21877,18.7692928125,21.14632Q18.7548828125,21.07387,18.7548828125,21L18.7548828125,14.75L17.0048828125,14.75Q16.9310143125,14.75,16.8585648125,14.735589000000001Q16.7861158125,14.721178,16.7178698125,14.69291Q16.6496248125,14.664641,16.5882048125,14.623602Q16.526785812500002,14.582563,16.4745528125,14.53033Q16.4223198125,14.478097,16.381280812500002,14.416678Q16.3402418125,14.355258,16.3119728125,14.287013Q16.2837048125,14.218767,16.2692938125,14.146318Q16.2548828125,14.0738685,16.2548828125,14Q16.2548828125,13.9261315,16.2692938125,13.853682Q16.2837048125,13.781233,16.3119728125,13.712987Q16.3402418125,13.644742,16.381280812500002,13.583322Q16.4223198125,13.521903,16.4745528125,13.46967Q16.526785812500002,13.417437,16.5882048125,13.376398Q16.6496248125,13.335359,16.7178698125,13.30709Q16.7861158125,13.278822,16.8585648125,13.264410999999999Q16.9310143125,13.25,17.0048828125,13.25Z" fill-rule="evenodd" fill="#2882FF" fill-opacity="1" style="mix-blend-mode:passthrough"/></g></g></g></svg>