<svg xmlns="http://www.w3.org/2000/svg" xmlns:xlink="http://www.w3.org/1999/xlink" fill="none" version="1.1" width="24" height="24" viewBox="0 0 24 24"><defs><clipPath id="master_svg0_63_19342"><rect x="0" y="0" width="24" height="24" rx="0"/></clipPath></defs><g clip-path="url(#master_svg0_63_19342)"><g><path d="M7,20.75L13,20.75Q13.07387,20.75,13.14632,20.7356Q13.21877,20.7212,13.28701,20.6929Q13.35526,20.6646,13.41668,20.6236Q13.4781,20.5826,13.53033,20.5303Q13.58256,20.4781,13.6236,20.4167Q13.66464,20.3553,13.69291,20.287Q13.72118,20.2188,13.73559,20.1463Q13.75,20.0739,13.75,20Q13.75,19.926099999999998,13.73559,19.8537Q13.72118,19.7812,13.69291,19.713Q13.66464,19.6447,13.6236,19.5833Q13.58256,19.521900000000002,13.53033,19.4697Q13.4781,19.4174,13.41668,19.3764Q13.35526,19.3354,13.28701,19.3071Q13.21877,19.2788,13.14632,19.264400000000002Q13.07387,19.25,13,19.25L7,19.25Q6.4822299999999995,19.25,6.1161200000000004,18.8839Q5.75,18.5178,5.75,18L5.75,6Q5.75,5.4822299999999995,6.1161200000000004,5.1161200000000004Q6.4822299999999995,4.75,7,4.75L18,4.75Q18.25,4.75,18.25,5L18.25,12Q18.25,12.07387,18.264400000000002,12.14632Q18.2788,12.21877,18.3071,12.28701Q18.3354,12.35526,18.3764,12.41668Q18.4174,12.4781,18.4697,12.53033Q18.521900000000002,12.58256,18.5833,12.6236Q18.6447,12.66464,18.713,12.69291Q18.7812,12.72118,18.8537,12.73559Q18.926099999999998,12.75,19,12.75Q19.073900000000002,12.75,19.1463,12.73559Q19.2188,12.72118,19.287,12.69291Q19.3553,12.66464,19.4167,12.6236Q19.478099999999998,12.58256,19.5303,12.53033Q19.5826,12.4781,19.6236,12.41668Q19.6646,12.35526,19.6929,12.28701Q19.7212,12.21877,19.735599999999998,12.14632Q19.75,12.07387,19.75,12L19.75,11.9988L19.75,5Q19.75,4.275127,19.2374,3.762564Q18.724899999999998,3.25,18,3.25L7,3.25Q5.860913,3.25,5.0554564,4.0554564Q4.25,4.860913,4.25,6L4.25,18Q4.25,19.1391,5.0554565,19.944499999999998Q5.860911,20.75,7,20.75Z" fill-rule="evenodd" fill="#231F2E" fill-opacity="1"/></g><g><path d="M4.466417,16.929345Q4.25,17.44101,4.25,18Q4.25,18.07387,4.264411,18.14632Q4.278822,18.21877,4.30709,18.28701Q4.335359,18.35526,4.376398,18.41668Q4.417437,18.4781,4.46967,18.53033Q4.521903,18.58256,4.583322,18.6236Q4.644742,18.66464,4.712987,18.69291Q4.781233,18.72118,4.853682,18.735590000000002Q4.9261315,18.75,5,18.75Q5.0738685,18.75,5.146318,18.735590000000002Q5.218767,18.72118,5.287013,18.69291Q5.355258,18.66464,5.416678,18.6236Q5.478097,18.58256,5.53033,18.53033Q5.582563,18.4781,5.623602,18.41668Q5.664641,18.35526,5.69291,18.28701Q5.721178,18.21877,5.735589,18.14632Q5.75,18.07387,5.75,18Q5.75,17.48223,6.1161200000000004,17.11612Q6.4822299999999995,16.75,7,16.75L13,16.75Q13.07387,16.75,13.14632,16.735589Q13.21877,16.721178,13.28701,16.69291Q13.35526,16.664641,13.41668,16.623601999999998Q13.4781,16.582563,13.53033,16.53033Q13.58256,16.478096999999998,13.6236,16.416678Q13.66464,16.355258,13.69291,16.287013Q13.72118,16.218767,13.73559,16.146318Q13.75,16.0738685,13.75,16Q13.75,15.9261315,13.73559,15.853682Q13.72118,15.781233,13.69291,15.712987Q13.66464,15.644742,13.6236,15.583322Q13.58256,15.521903,13.53033,15.46967Q13.4781,15.417437,13.41668,15.376398Q13.35526,15.335359,13.28701,15.30709Q13.21877,15.278822,13.14632,15.264410999999999Q13.07387,15.25,13,15.25L7,15.25Q6.44101,15.25,5.929346,15.466416Q5.435703,15.67521,5.0554565,16.0554559Q4.67521,16.435702,4.466417,16.929345Z" fill-rule="evenodd" fill="#231F2E" fill-opacity="1"/></g><g><path d="M13,3.25L9,3.25Q8.9261315,3.25,8.853682,3.264411Q8.781233,3.278822,8.712987,3.30709Q8.644742,3.335359,8.583322,3.376398Q8.521903,3.417437,8.46967,3.46967Q8.417437,3.521903,8.376398,3.583322Q8.335359,3.644742,8.30709,3.712987Q8.278822,3.781233,8.264410999999999,3.853682Q8.25,3.9261315,8.25,4L8.25,9.66663Q8.25,9.893699999999999,8.375951,10.08263Q8.4587,10.206769999999999,8.582653,10.28978Q8.706606,10.3728,8.852892,10.402059999999999Q8.999178557,10.43132,9.145527,10.402370000000001Q9.291876,10.37342,9.416008,10.29068L11,9.23474L12.58399,10.29068Q12.77293,10.41663,13,10.41663Q13.07387,10.41663,13.14632,10.40221Q13.21877,10.3878,13.28701,10.35953Q13.355260000000001,10.33127,13.41668,10.290230000000001Q13.478100000000001,10.249189999999999,13.53033,10.19696Q13.58256,10.14472,13.6236,10.083300000000001Q13.66464,10.02188,13.692910000000001,9.95364Q13.72118,9.885390000000001,13.73559,9.812940000000001Q13.75,9.740490000000001,13.75,9.66663L13.75,4Q13.75,3.9261315,13.73559,3.853682Q13.72118,3.781233,13.692910000000001,3.712987Q13.66464,3.644742,13.6236,3.583322Q13.58256,3.521903,13.53033,3.46967Q13.478100000000001,3.417437,13.41668,3.376398Q13.355260000000001,3.335359,13.28701,3.30709Q13.21877,3.278822,13.14632,3.264411Q13.07387,3.25,13,3.25ZM9.75,4.75L9.75,8.26529L10.58399,7.70932Q10.67639,7.64773,10.78267,7.61555Q10.88895,7.58337,11,7.58337Q11.11105,7.58337,11.21733,7.61555Q11.32361,7.64773,11.41601,7.70932L12.25,8.26529L12.25,4.75L9.75,4.75Z" fill-rule="evenodd" fill="#231F2E" fill-opacity="1"/></g><g><g><path d="M15.5692228125,21.809439296875Q16.0085628125,22.248779296875,16.6298828125,22.248779296875Q16.7037528125,22.248779296875,16.7762028125,22.234369296875002Q16.8486528125,22.219959296875,16.9168928125,22.191689296875Q16.9851428125,22.163419296875,17.0465628125,22.122379296875Q17.1079828125,22.081339296875,17.1602128125,22.029109296875Q17.2124428125,21.976879296875,17.2534828125,21.915459296875Q17.2945228125,21.854039296875,17.3227928125,21.785789296875002Q17.3510628125,21.717549296875,17.365472812500002,21.645099296875Q17.3798828125,21.572649296875,17.3798828125,21.498779296875Q17.3798828125,21.424909296875,17.365472812500002,21.352459296875Q17.3510628125,21.280009296875,17.3227928125,21.211769296874998Q17.2945228125,21.143519296875,17.2534828125,21.082099296875Q17.2124428125,21.020679296875,17.1602128125,20.968449296875Q17.1079828125,20.916219296875,17.0465628125,20.875179296875Q16.9851428125,20.834139296875,16.9168928125,20.805869296875Q16.8486528125,20.777599296875,16.7762028125,20.763189296874998Q16.7037528125,20.748779296875,16.6298828125,20.748779296875L16.6298828125,19.623779296875Q16.6298828125,18.987749296875002,16.3388028125,18.498779296875Q16.6298828125,18.009809296874998,16.6298828125,17.373779296875L16.6298828125,16.248779296875Q16.7037528125,16.248779296875,16.7762028125,16.234368296875Q16.8486528125,16.219957296875,16.9168928125,16.191689296875Q16.9851428125,16.163420296875,17.0465628125,16.122381296874998Q17.1079828125,16.081342296875,17.1602128125,16.029109296875Q17.2124428125,15.976876296875,17.2534828125,15.915457296875Q17.2945228125,15.854037296875,17.3227928125,15.785792296875Q17.3510628125,15.717546296875,17.365472812500002,15.645097296875Q17.3798828125,15.572647796875,17.3798828125,15.498779296875Q17.3798828125,15.424910796875,17.365472812500002,15.352461296875Q17.3510628125,15.280012296875,17.3227928125,15.211766296875Q17.2945228125,15.143521296875,17.2534828125,15.082101296875Q17.2124428125,15.020682296875,17.1602128125,14.968449296875Q17.1079828125,14.916216296875,17.0465628125,14.875177296875Q16.9851428125,14.834138296875,16.9168928125,14.805869296875Q16.8486528125,14.777601296875,16.7762028125,14.763190296874999Q16.7037528125,14.748779296875,16.6298828125,14.748779296875Q16.0085628125,14.748779296875,15.5692228125,15.188119296875Q15.1298828125,15.627459296875,15.1298828125,16.248779296875L15.1298828125,17.373779296875Q15.1298828125,17.612689296875,15.0361752125,17.753249296875L15.0351436125,17.754789296875Q14.9678088125,17.763359296875,14.9031078125,17.783889296875Q14.8384068125,17.804409296875,14.7784418125,17.836219296875Q14.7184768125,17.868019296875,14.6651968125,17.910079296875Q14.6119168125,17.952139296875,14.5670528125,18.003079296875Q14.5221898125,18.054009296875,14.4872008125,18.112179296875Q14.4522118125,18.170349296875,14.4282338125,18.233849296875Q14.4042568125,18.297349296874998,14.3920698125,18.364129296875Q14.3798828125,18.430899296875,14.3798828125,18.498779296875Q14.3798828125,18.566659296875,14.3920698125,18.633429296875Q14.4042568125,18.700209296875002,14.4282338125,18.763709296875Q14.4522118125,18.827209296875,14.4872008125,18.885379296875Q14.5221898125,18.943549296875,14.5670528125,18.994479296875Q14.6119168125,19.045419296875,14.6651968125,19.087479296875Q14.7184768125,19.129539296875,14.7784418125,19.161339296875Q14.8384068125,19.193149296875,14.9031078125,19.213669296875Q14.9678088125,19.234199296875,15.0351435125,19.242769296875L15.0361752125,19.244309296875Q15.1298828125,19.384869296875,15.1298828125,19.623779296875L15.1298828125,20.748779296875Q15.1298828125,21.370099296875,15.5692228125,21.809439296875Z" fill-rule="evenodd" fill="#2882FF" fill-opacity="1" style="mix-blend-mode:passthrough"/></g><g><path d="M20.3798828125,14.748779296875Q21.001203812500002,14.748779296875,21.4405428125,15.188119296875Q21.8798828125,15.627459296875,21.8798828125,16.248779296875L21.8798828125,17.373779296875Q21.8798828125,17.612689296875,21.9735928125,17.753249296875L21.9746228125,17.754789296875Q22.0419528125,17.763359296875,22.1066528125,17.783889296875Q22.1713628125,17.804409296875,22.2313228125,17.836219296875Q22.2912928125,17.868019296875,22.3445728125,17.910079296875Q22.3978528125,17.952139296875,22.442712812499998,18.003079296875Q22.487572812499998,18.054009296875,22.5225628125,18.112179296875Q22.5575528125,18.170349296875,22.5815328125,18.233849296875Q22.6055128125,18.297349296874998,22.6176928125,18.364129296875Q22.6298828125,18.430899296875,22.6298828125,18.498779296875Q22.6298828125,18.566659296875,22.6176928125,18.633429296875Q22.6055128125,18.700209296875002,22.5815328125,18.763709296875Q22.5575528125,18.827209296875,22.5225628125,18.885379296875Q22.487572812499998,18.943549296875,22.442712812499998,18.994479296875Q22.3978528125,19.045419296875,22.3445728125,19.087479296875Q22.2912928125,19.129539296875,22.2313228125,19.161339296875Q22.1713628125,19.193149296875,22.1066528125,19.213669296875Q22.0419528125,19.234199296875,21.9746228125,19.242769296875L21.9735928125,19.244309296875Q21.8798828125,19.384869296875,21.8798828125,19.623779296875L21.8798828125,20.748779296875Q21.8798828125,21.370099296875,21.4405428125,21.809439296875Q21.0012028125,22.248779296875,20.3798828125,22.248779296875Q20.3060143125,22.248779296875,20.2335648125,22.234369296875002Q20.1611158125,22.219959296875,20.0928698125,22.191689296875Q20.0246248125,22.163419296875,19.9632048125,22.122379296875Q19.901785812500002,22.081339296875,19.8495528125,22.029109296875Q19.7973198125,21.976879296875,19.756280812500002,21.915459296875Q19.7152418125,21.854039296875,19.6869728125,21.785789296875002Q19.6587048125,21.717549296875,19.6442938125,21.645099296875Q19.6298828125,21.572649296875,19.6298828125,21.498779296875Q19.6298828125,21.424909296875,19.6442938125,21.352459296875Q19.6587048125,21.280009296875,19.6869728125,21.211769296874998Q19.7152418125,21.143519296875,19.756280812500002,21.082099296875Q19.7973198125,21.020679296875,19.8495528125,20.968449296875Q19.901785812500002,20.916219296875,19.9632048125,20.875179296875Q20.0246248125,20.834139296875,20.0928698125,20.805869296875Q20.1611158125,20.777599296875,20.2335648125,20.763189296874998Q20.3060143125,20.748779296875,20.3798828125,20.748779296875L20.3798828125,19.623779296875Q20.3798828125,18.987749296875002,20.6709638125,18.498779296875Q20.3798828125,18.009809296874998,20.3798828125,17.373779296875L20.3798828125,16.248779296875Q20.3060143125,16.248779296875,20.2335648125,16.234368296875Q20.1611158125,16.219957296875,20.0928698125,16.191689296875Q20.0246248125,16.163420296875,19.9632048125,16.122381296874998Q19.901785812500002,16.081342296875,19.8495528125,16.029109296875Q19.7973198125,15.976876296875,19.756280812500002,15.915457296875Q19.7152418125,15.854037296875,19.6869728125,15.785792296875Q19.6587048125,15.717546296875,19.6442938125,15.645097296875Q19.6298828125,15.572647796875,19.6298828125,15.498779296875Q19.6298828125,15.424910796875,19.6442938125,15.352461296875Q19.6587048125,15.280012296875,19.6869728125,15.211766296875Q19.7152418125,15.143521296875,19.756280812500002,15.082101296875Q19.7973198125,15.020682296875,19.8495528125,14.968449296875Q19.901785812500002,14.916216296875,19.9632048125,14.875177296875Q20.0246248125,14.834138296875,20.0928698125,14.805869296875Q20.1611158125,14.777601296875,20.2335648125,14.763190296874999Q20.3060143125,14.748779296875,20.3798828125,14.748779296875Z" fill-rule="evenodd" fill="#2882FF" fill-opacity="1" style="mix-blend-mode:passthrough"/></g></g></g></svg>