<svg xmlns="http://www.w3.org/2000/svg" xmlns:xlink="http://www.w3.org/1999/xlink" fill="none" version="1.1" width="24" height="24" viewBox="0 0 24 24"><defs><clipPath id="master_svg0_63_04086"><rect x="0" y="0" width="24" height="24" rx="0"/></clipPath></defs><g clip-path="url(#master_svg0_63_04086)"><g><rect x="3.5048828125" y="3.5" width="17" height="17" rx="1.7894736528396606" fill-opacity="0" stroke-opacity="1" stroke="#231F2E" fill="none" stroke-width="1.3421052694320679"/></g><g><path d="M8,7.25L16,7.25Q16.07387,7.25,16.14632,7.264411Q16.21877,7.278822,16.287010000000002,7.30709Q16.35526,7.335359,16.41668,7.376398Q16.478099999999998,7.417437,16.53033,7.46967Q16.58256,7.521903,16.6236,7.583322Q16.66464,7.644742,16.692909999999998,7.712987Q16.72118,7.781233,16.735590000000002,7.853682Q16.75,7.9261315,16.75,8Q16.75,8.0738685,16.735590000000002,8.146318Q16.72118,8.218767,16.692909999999998,8.287013Q16.66464,8.355258,16.6236,8.416678Q16.58256,8.478097,16.53033,8.53033Q16.478099999999998,8.582563,16.41668,8.623602Q16.35526,8.664641,16.287010000000002,8.69291Q16.21877,8.721178,16.14632,8.735589000000001Q16.07387,8.75,16,8.75L8,8.75Q7.9261315,8.75,7.853682,8.735589000000001Q7.781233,8.721178,7.712987,8.69291Q7.644742,8.664641,7.583322,8.623602Q7.521903,8.582563,7.46967,8.53033Q7.417437,8.478097,7.376398,8.416678Q7.335359,8.355258,7.30709,8.287013Q7.278822,8.218767,7.264411,8.146318Q7.25,8.0738685,7.25,8Q7.25,7.9261315,7.264411,7.853682Q7.278822,7.781233,7.30709,7.712987Q7.335359,7.644742,7.376398,7.583322Q7.417437,7.521903,7.46967,7.46967Q7.521903,7.417437,7.583322,7.376398Q7.644742,7.335359,7.712987,7.30709Q7.781233,7.278822,7.853682,7.264411Q7.9261315,7.25,8,7.25Z" fill-rule="evenodd" fill="#2882FF" fill-opacity="1"/></g><g><path d="M11.25,8Q11.25,7.9261315,11.264410999999999,7.853682Q11.278822,7.781233,11.30709,7.712987Q11.335359,7.644742,11.376398,7.583322Q11.417437,7.521903,11.46967,7.46967Q11.521903,7.417437,11.583322,7.376398Q11.644742,7.335359,11.712987,7.30709Q11.781233,7.278822,11.853682,7.264411Q11.9261315,7.25,12,7.25Q12.0738685,7.25,12.146318,7.264411Q12.218767,7.278822,12.287013,7.30709Q12.355258,7.335359,12.416678,7.376398Q12.478097,7.417437,12.53033,7.46967Q12.582563,7.521903,12.623602,7.583322Q12.664641,7.644742,12.69291,7.712987Q12.721178,7.781233,12.735589000000001,7.853682Q12.75,7.9261315,12.75,8L12.75,17Q12.75,17.07387,12.735589000000001,17.14632Q12.721178,17.21877,12.69291,17.287010000000002Q12.664641,17.35526,12.623602,17.41668Q12.582563,17.478099999999998,12.53033,17.53033Q12.478097,17.58256,12.416678,17.6236Q12.355258,17.66464,12.287013,17.692909999999998Q12.218767,17.72118,12.146318,17.735590000000002Q12.0738685,17.75,12,17.75Q11.9261315,17.75,11.853682,17.735590000000002Q11.781233,17.72118,11.712987,17.692909999999998Q11.644742,17.66464,11.583322,17.6236Q11.521903,17.58256,11.46967,17.53033Q11.417437,17.478099999999998,11.376398,17.41668Q11.335359,17.35526,11.30709,17.287010000000002Q11.278822,17.21877,11.264410999999999,17.14632Q11.25,17.07387,11.25,17L11.25,8Z" fill-rule="evenodd" fill="#2882FF" fill-opacity="1"/></g><g><g><path d="M18.76256,18.23744Q18.64069,18.11556,18.54493,17.972248Q18.44917,17.828936,18.38321,17.669696Q18.31725,17.510456,18.28363,17.341408Q18.25,17.17236,18.25,17Q18.25,16.914028,18.25843,16.82847Q18.26685,16.742912,18.28363,16.658592Q18.3004,16.574272,18.32535,16.492002Q18.35031,16.409731999999998,18.38321,16.330304Q18.41611,16.250876,18.45664,16.175056Q18.49716,16.099235,18.54493,16.027752Q18.59269,15.95627,18.64723,15.88981Q18.70177,15.82335,18.76256,15.76256Q18.82335,15.70177,18.88981,15.64723Q18.95627,15.59269,19.027752,15.54493Q19.099235,15.497160000000001,19.175056,15.45664Q19.250876,15.41611,19.330304,15.38321Q19.409731999999998,15.35031,19.492002,15.32535Q19.574272,15.3004,19.658592,15.28363Q19.742912,15.26685,19.82847,15.25843Q19.914028,15.25,20,15.25Q20.17236,15.25,20.341408,15.28363Q20.510456,15.31725,20.669696,15.38321Q20.828936,15.44917,20.972248,15.54493Q21.11556,15.64069,21.23744,15.76256L23.23744,17.762563Q23.29823,17.823355,23.35277,17.889812Q23.40731,17.956269,23.45507,18.02775Q23.50284,18.09924,23.54336,18.17506Q23.58389,18.25088,23.61679,18.3303Q23.64969,18.40973,23.67465,18.492Q23.6996,18.57427,23.71637,18.65859Q23.733150000000002,18.74291,23.74157,18.82847Q23.75,18.91403,23.75,19Q23.75,19.08597,23.74157,19.17153Q23.733150000000002,19.257089999999998,23.71637,19.34141Q23.6996,19.42573,23.67465,19.508Q23.64969,19.59027,23.61679,19.6697Q23.58389,19.74912,23.54336,19.824939999999998Q23.50284,19.90076,23.45507,19.97225Q23.40731,20.04373,23.35277,20.11019Q23.29823,20.17665,23.23744,20.23744L21.23772,22.23715L21.23744,22.23744Q21.11556,22.35931,20.972248,22.45507Q20.828936,22.55083,20.669696,22.61679Q20.510456,22.68275,20.341408,22.71637Q20.17236,22.75,20,22.75Q19.914028,22.75,19.82847,22.74157Q19.742912,22.733150000000002,19.658592,22.71637Q19.574272,22.6996,19.492002,22.67465Q19.409731999999998,22.64969,19.330304,22.61679Q19.250876,22.58389,19.175056,22.54336Q19.099235,22.50284,19.027752,22.45507Q18.95627,22.40731,18.88981,22.35277Q18.82335,22.29823,18.76256,22.23744Q18.70177,22.176650000000002,18.64723,22.11019Q18.59269,22.04373,18.54493,21.97225Q18.49716,21.90076,18.45664,21.824939999999998Q18.41611,21.749119999999998,18.38321,21.6697Q18.35031,21.59027,18.32535,21.508Q18.3004,21.42573,18.28363,21.34141Q18.26685,21.257089999999998,18.25843,21.17153Q18.25,21.08597,18.25,21Q18.25,20.82764,18.28363,20.65859Q18.31725,20.489539999999998,18.38321,20.3303Q18.44917,20.17106,18.54493,20.02775Q18.64069,19.88444,18.76256,19.76256L18.76285,19.76228L19.525126,19L18.76256,18.23744Z" fill-rule="evenodd" fill="#FFFFFF" fill-opacity="1" style="mix-blend-mode:passthrough"/></g><g><path d="M18.23744,18.23744Q18.35931,18.11556,18.45507,17.972248Q18.55083,17.828936,18.61679,17.669696Q18.68275,17.510456,18.71637,17.341408Q18.75,17.17236,18.75,17Q18.75,16.914028,18.74157,16.82847Q18.733150000000002,16.742912,18.71637,16.658592Q18.6996,16.574272,18.67465,16.492002Q18.64969,16.409731999999998,18.61679,16.330304Q18.58389,16.250876,18.54336,16.175056Q18.50284,16.099235,18.45507,16.027752Q18.40731,15.95627,18.35277,15.88981Q18.29823,15.82335,18.23744,15.76256Q18.17665,15.70177,18.11019,15.64723Q18.04373,15.59269,17.97225,15.54493Q17.90076,15.497160000000001,17.824939999999998,15.45664Q17.74912,15.41611,17.6697,15.38321Q17.59027,15.35031,17.508,15.32535Q17.42573,15.3004,17.34141,15.28363Q17.257089999999998,15.26685,17.17153,15.25843Q17.08597,15.25,17,15.25Q16.82764,15.25,16.65859,15.28363Q16.48954,15.31725,16.3303,15.38321Q16.17106,15.44917,16.02775,15.54493Q15.88444,15.64069,15.762563,15.76256L13.76256,17.762563Q13.64069,17.88444,13.54493,18.02775Q13.44917,18.17106,13.38321,18.3303Q13.31725,18.48954,13.28363,18.65859Q13.25,18.82764,13.25,19Q13.25,19.17236,13.28363,19.34141Q13.31725,19.510460000000002,13.38321,19.6697Q13.44917,19.82894,13.54493,19.97225Q13.64069,20.11556,13.76256,20.23744L15.76228,22.23715L15.762563,22.23744Q15.88444,22.35931,16.02775,22.45507Q16.17106,22.55083,16.3303,22.61679Q16.48954,22.68275,16.65859,22.71637Q16.82764,22.75,17,22.75Q17.08597,22.75,17.17153,22.74157Q17.257089999999998,22.733150000000002,17.34141,22.71637Q17.42573,22.6996,17.508,22.67465Q17.59027,22.64969,17.6697,22.61679Q17.74912,22.58389,17.824939999999998,22.54336Q17.90076,22.50284,17.97225,22.45507Q18.04373,22.40731,18.11019,22.35277Q18.17665,22.29823,18.23744,22.23744Q18.29823,22.176650000000002,18.35277,22.11019Q18.40731,22.04373,18.45507,21.97225Q18.50284,21.90076,18.54336,21.824939999999998Q18.58389,21.749119999999998,18.61679,21.6697Q18.64969,21.59027,18.67465,21.508Q18.6996,21.42573,18.71637,21.34141Q18.733150000000002,21.257089999999998,18.74157,21.17153Q18.75,21.08597,18.75,21Q18.75,20.82764,18.71637,20.65859Q18.68275,20.489539999999998,18.61679,20.3303Q18.55083,20.17106,18.45507,20.02775Q18.35931,19.88444,18.23744,19.76256L17.47487,19L18.23715,18.23772L18.23744,18.23744Z" fill-rule="evenodd" fill="#FFFFFF" fill-opacity="1" style="mix-blend-mode:passthrough"/></g></g><g><g><path d="M20.530484,16.469824L22.53033,18.46967Q22.58256,18.5219,22.6236,18.58332Q22.66464,18.64474,22.69291,18.71299Q22.72118,18.78123,22.735590000000002,18.85368Q22.75,18.92613,22.75,19Q22.75,19.07387,22.735590000000002,19.14632Q22.72118,19.21877,22.69291,19.28701Q22.66464,19.35526,22.6236,19.41668Q22.58256,19.4781,22.53033,19.53033L20.53033,21.53033Q20.424841,21.63582,20.287013,21.69291Q20.149184,21.75,20,21.75Q19.9261315,21.75,19.853682,21.735590000000002Q19.781233,21.72118,19.712987,21.69291Q19.644742,21.66464,19.583322,21.6236Q19.521903000000002,21.58256,19.46967,21.53033Q19.417437,21.4781,19.376398000000002,21.41668Q19.335359,21.35526,19.30709,21.287010000000002Q19.278822,21.21877,19.264411,21.14632Q19.25,21.07387,19.25,21Q19.25,20.85082,19.30709,20.71299Q19.364181,20.57516,19.46967,20.46967L20.93934,19L19.469824,17.530484L19.46967,17.53033Q19.364181,17.424841,19.30709,17.287013Q19.25,17.149184,19.25,17Q19.25,16.9261315,19.264411,16.853682Q19.278822,16.781233,19.30709,16.712987Q19.335359,16.644742,19.376398000000002,16.583322Q19.417437,16.521903000000002,19.46967,16.46967Q19.521903000000002,16.417437,19.583322,16.376398000000002Q19.644742,16.335359,19.712987,16.30709Q19.781233,16.278822,19.853682,16.264411Q19.9261315,16.25,20,16.25Q20.149184,16.25,20.287013,16.30709Q20.424841,16.364181,20.53033,16.46967L20.530484,16.469824Z" fill-rule="evenodd" fill="#2882FF" fill-opacity="1" style="mix-blend-mode:passthrough"/></g><g><path d="M17.53033,17.53033Q17.63582,17.424841,17.69291,17.287013Q17.75,17.149184,17.75,17Q17.75,16.9261315,17.735590000000002,16.853682Q17.72118,16.781233,17.69291,16.712987Q17.66464,16.644742,17.6236,16.583322Q17.58256,16.521903000000002,17.53033,16.46967Q17.4781,16.417437,17.41668,16.376398000000002Q17.35526,16.335359,17.28701,16.30709Q17.21877,16.278822,17.14632,16.264411Q17.07387,16.25,17,16.25Q16.85082,16.25,16.71299,16.30709Q16.57516,16.364181,16.46967,16.46967L16.46952,16.469824L14.46967,18.46967Q14.417437,18.5219,14.376398,18.58332Q14.335359,18.64474,14.30709,18.71299Q14.278822,18.78123,14.264410999999999,18.85368Q14.25,18.92613,14.25,19Q14.25,19.07387,14.264410999999999,19.14632Q14.278822,19.21877,14.30709,19.28701Q14.335359,19.35526,14.376398,19.41668Q14.417437,19.4781,14.46967,19.53033L16.46967,21.53033Q16.57516,21.63582,16.71299,21.69291Q16.85082,21.75,17,21.75Q17.07387,21.75,17.14632,21.735590000000002Q17.21877,21.72118,17.28701,21.69291Q17.35526,21.66464,17.41668,21.6236Q17.4781,21.58256,17.53033,21.53033Q17.58256,21.4781,17.6236,21.41668Q17.66464,21.35526,17.69291,21.287010000000002Q17.72118,21.21877,17.735590000000002,21.14632Q17.75,21.07387,17.75,21Q17.75,20.85082,17.69291,20.71299Q17.63582,20.57516,17.53033,20.46967L16.06066,19L17.53033,17.53033Z" fill-rule="evenodd" fill="#2882FF" fill-opacity="1" style="mix-blend-mode:passthrough"/></g></g></g></svg>