<svg xmlns="http://www.w3.org/2000/svg" xmlns:xlink="http://www.w3.org/1999/xlink" fill="none" version="1.1" width="24" height="24" viewBox="0 0 24 24"><defs><clipPath id="master_svg0_63_04485"><rect x="0" y="0" width="24" height="24" rx="0"/></clipPath></defs><g clip-path="url(#master_svg0_63_04485)"><g><rect x="3.5048828125" y="3.5" width="17" height="17" rx="1.7894736528396606" fill-opacity="0" stroke-opacity="1" stroke="#231F2E" fill="none" stroke-width="1.3421052694320679"/></g><g><path d="M8,7.25L16,7.25Q16.07387,7.25,16.14632,7.264411Q16.21877,7.278822,16.287010000000002,7.30709Q16.35526,7.335359,16.41668,7.376398Q16.478099999999998,7.417437,16.53033,7.46967Q16.58256,7.521903,16.6236,7.583322Q16.66464,7.644742,16.692909999999998,7.712987Q16.72118,7.781233,16.735590000000002,7.853682Q16.75,7.9261315,16.75,8Q16.75,8.0738685,16.735590000000002,8.146318Q16.72118,8.218767,16.692909999999998,8.287013Q16.66464,8.355258,16.6236,8.416678Q16.58256,8.478097,16.53033,8.53033Q16.478099999999998,8.582563,16.41668,8.623602Q16.35526,8.664641,16.287010000000002,8.69291Q16.21877,8.721178,16.14632,8.735589000000001Q16.07387,8.75,16,8.75L8,8.75Q7.9261315,8.75,7.853682,8.735589000000001Q7.781233,8.721178,7.712987,8.69291Q7.644742,8.664641,7.583322,8.623602Q7.521903,8.582563,7.46967,8.53033Q7.417437,8.478097,7.376398,8.416678Q7.335359,8.355258,7.30709,8.287013Q7.278822,8.218767,7.264411,8.146318Q7.25,8.0738685,7.25,8Q7.25,7.9261315,7.264411,7.853682Q7.278822,7.781233,7.30709,7.712987Q7.335359,7.644742,7.376398,7.583322Q7.417437,7.521903,7.46967,7.46967Q7.521903,7.417437,7.583322,7.376398Q7.644742,7.335359,7.712987,7.30709Q7.781233,7.278822,7.853682,7.264411Q7.9261315,7.25,8,7.25Z" fill-rule="evenodd" fill="#2882FF" fill-opacity="1"/></g><g><path d="M11.25,8Q11.25,7.9261315,11.264410999999999,7.853682Q11.278822,7.781233,11.30709,7.712987Q11.335359,7.644742,11.376398,7.583322Q11.417437,7.521903,11.46967,7.46967Q11.521903,7.417437,11.583322,7.376398Q11.644742,7.335359,11.712987,7.30709Q11.781233,7.278822,11.853682,7.264411Q11.9261315,7.25,12,7.25Q12.0738685,7.25,12.146318,7.264411Q12.218767,7.278822,12.287013,7.30709Q12.355258,7.335359,12.416678,7.376398Q12.478097,7.417437,12.53033,7.46967Q12.582563,7.521903,12.623602,7.583322Q12.664641,7.644742,12.69291,7.712987Q12.721178,7.781233,12.735589000000001,7.853682Q12.75,7.9261315,12.75,8L12.75,17Q12.75,17.07387,12.735589000000001,17.14632Q12.721178,17.21877,12.69291,17.287010000000002Q12.664641,17.35526,12.623602,17.41668Q12.582563,17.478099999999998,12.53033,17.53033Q12.478097,17.58256,12.416678,17.6236Q12.355258,17.66464,12.287013,17.692909999999998Q12.218767,17.72118,12.146318,17.735590000000002Q12.0738685,17.75,12,17.75Q11.9261315,17.75,11.853682,17.735590000000002Q11.781233,17.72118,11.712987,17.692909999999998Q11.644742,17.66464,11.583322,17.6236Q11.521903,17.58256,11.46967,17.53033Q11.417437,17.478099999999998,11.376398,17.41668Q11.335359,17.35526,11.30709,17.287010000000002Q11.278822,17.21877,11.264410999999999,17.14632Q11.25,17.07387,11.25,17L11.25,8Z" fill-rule="evenodd" fill="#2882FF" fill-opacity="1"/></g><g transform="matrix(0,-1,1,0,-7.066650390625,38.566650390625)"><g><path d="M18.02115,25.169360390625002C17.5972,25.558660390625,16.95396,25.647450390625,16.429298,25.344240390625C15.827221,24.997170390625,15.585605,24.250680390625,15.870129,23.616643390625C16.154652,22.982606390625,16.87294,22.666870390625,17.53246,22.885937890625C18.19198,23.105005390625,18.57861,23.787753390625,18.42724,24.466020390625L18.62162,24.578100390625C18.803,24.682600390625,18.843609999999998,24.924620390625,18.74073,25.107090390625C18.63624,25.292270390625,18.39962,25.387560390625,18.21553,25.281440390625L18.02115,25.169360390625002ZM16.8325,24.644030390625C17.09268,24.794250390625,17.42543,24.703910390625,17.57392,24.442740390625C17.72102,24.184000390625002,17.631709999999998,23.855040390625,17.37395,23.706223390625C17.1162,23.557405390625,16.78666,23.644529390625,16.636131,23.901290390625C16.484183,24.160470390625,16.572311,24.493810390625,16.8325,24.644030390625ZM19.07048,25.719470390625C19.19936,25.238640390625,19.56,24.854030390625,20.03154,24.694510390625L21.78691,24.100540390625C22.06534,24.006220390625,22.36546,23.996420390625,22.64944,24.072390390625L23.07285,24.186090390625C23.23145,24.228720390625,23.34876,24.362670390625,23.37009,24.525510390625C23.39142,24.688340390625,23.31258,24.848000390625,23.17031,24.930040390625L18.42724,27.668680390625C18.62746,28.570250390625,17.88629,29.403340390625,16.96753,29.309390390625C16.048781,29.215450390625,15.491557,28.249590390625002,15.870113,27.407200390625C16.248669,26.564800390625,17.34088,26.340170390625,18.02115,26.964790390624998L18.86743,26.476410390625L19.07048,25.719470390625ZM20.03153,27.440130390625C20.00013,27.429300390625002,19.997419999999998,27.387070390625,20.025579999999998,27.370830390625L20.02612,27.370830390625L21.47178,26.535920390625C21.639310000000002,26.439200390625,21.84571,26.439200390625,22.01323,26.535920390625L23.1703,27.204610390625C23.31257,27.286650390625,23.39141,27.446300390624998,23.37008,27.609130390625C23.34875,27.771970390625,23.23144,27.905930390625,23.07284,27.948550390625L22.64997,28.061170390625C22.36609,28.137490390625,22.06598,28.128070390625,21.78745,28.034100390625L20.03153,27.440130390625ZM17.37809,28.434160390625C17.63828,28.283930390625,17.726399999999998,27.950600390625,17.57446,27.691420390624998C17.42393,27.434660390624998,17.09439,27.347530390625,16.83663,27.496350390625C16.578881,27.645170390625,16.489569,27.974130390625,16.636672,28.232860390625C16.78516,28.494040390625,17.11791,28.584380390625,17.37809,28.434160390625Z" fill-rule="evenodd" fill="#FFFFFF" fill-opacity="1" style="mix-blend-mode:passthrough"/><path d="M18.69751,25.905930390625Q18.13739,26.420270390625,17.38015,26.509600390625Q16.60541,26.601000390625,15.928931,26.210060390625Q15.14486,25.758070390625,14.865832,24.895990390625002Q14.58681,24.033920390625,14.957781,23.207227390625Q15.328756,22.380539390625,16.158265,22.015915390625Q16.98777,21.651290390625,17.84769,21.936921390625Q18.7076,22.222552390625,19.1541,23.011017390625Q19.60059,23.799482390625,19.40323,24.683840390625L18.42724,24.466020390625L18.92675,23.599711390625L19.12113,23.711791390625Q19.6431,24.012510390625,19.76698,24.610500390625Q19.87493,25.131560390625,19.61183,25.598210390625Q19.34712,26.067280390625,18.841639999999998,26.246190390625Q18.25004,26.455590390624998,17.7161,26.147790390625L17.52164,26.035660390625L18.02115,25.169360390625002L18.69751,25.905930390625ZM17.88514,23.936610390625L18.71496,24.415080390625Q18.45096,24.262890390625,18.17432,24.360810390625Q17.97353,24.431870390625,17.86964,24.615970390625Q17.76434,24.802740390625,17.80856,25.016210390624998Q17.8668,25.297320390625,18.1221,25.444400390625L17.29121,24.965310390625L17.45125,24.248200390625Q17.52096,23.935840390625,17.21723,23.834950390625Q16.91351,23.734067390625,16.78248,24.026060390625Q16.651446,24.318050390625,16.92966,24.478430390625Q17.15394,24.608040390625,17.34479,24.432790390625L17.88514,23.936610390625ZM17.33251,23.778011390625Q17.16724,23.682592390625,16.98308,23.732593390625Q16.79891,23.782593390625,16.704596,23.948490390625Q16.611159,24.112830390625,16.660692,24.295270390625Q16.710225,24.477720390625,16.87394,24.572240390625Q17.03766,24.666770390625,17.22043,24.618450390625Q17.4032,24.570130390625,17.49881,24.407040390625Q17.59532,24.242410390625,17.54655,24.057920390625Q17.49777,23.873430390625,17.33251,23.778010390625L17.33251,23.778011390625ZM16.332485,25.510050390625Q15.7769438,25.189300390625,15.612981,24.569120390625Q15.449017,23.948940390625,15.7734514,23.395536390625Q16.094852,22.847311390625,16.709235,22.684881390625Q17.32362,22.522451390625,17.87397,22.840203990625Q18.42431,23.157957390625,18.59082,23.771247390625Q18.75733,24.384540390625,18.44324,24.936980390625Q18.12618,25.494640390625,17.5071,25.662720390625Q16.88803,25.830800390625,16.332484,25.510050390625L16.332485,25.510050390625ZM18.10457,25.460560390624998Q18.44941,24.174060390625,19.71109,23.747242390625L21.46639,23.153299390625Q22.17983,22.911606390625,22.90785,23.106351390625L23.3322,23.220307390625Q24.23959,23.464195390625,24.361620000000002,24.395610390625Q24.483629999999998,25.327030390625,23.66988,25.796310390625L18.92727,28.534680390625L18.42724,27.668680390625L19.40345,27.451870390625Q19.66452,28.627400390625,18.86412,29.527050390625Q18.06372,30.426700390625,16.86581,30.304210390625002Q15.6678929,30.181710390625,15.066147,29.138680390624998Q14.4644,28.095660390625,14.95798,26.997300390625Q15.451561,25.898950390625,16.631035,25.656370390625Q17.81051,25.413780390625,18.697490000000002,26.228200390625L18.02115,26.964790390624998L17.52132,26.098670390625L18.3676,25.610290390625L18.86743,26.476410390625L17.90158,26.217330390625L18.10462,25.460390390625L18.10457,25.460560390624998ZM20.03633,25.978550390625L19.72599,27.135520390625L17.88537,28.197720390625L17.34482,27.701390390625Q17.21138,27.578870390625,17.03394,27.615360390625Q16.8565,27.651860390625,16.78225,27.817090390625Q16.707992,27.982330390625002,16.79852,28.139240390624998Q16.88905,28.296150390625,17.06926,28.314580390625Q17.24947,28.333010390625,17.36988,28.197670390625Q17.4903,28.062320390625,17.45102,27.885480390625L17.292,27.169430390625L22.670740000000002,24.063760390625Q22.32702,24.261980390625,22.37856,24.655400390625Q22.4301,25.048820390625,22.8135,25.151870390625L22.39103,25.038420390625Q22.248,25.000160390625,22.10743,25.047780390625L20.35199,25.641770390625Q20.104129999999998,25.725620390625,20.03638,25.978370390625L20.03633,25.978550390625ZM19.70552,28.385500390625Q19.06193,28.163560390625,19.00922,27.484950390625002Q18.95851,26.831960390625,19.52586,26.504640390625L19.75815,26.370630390625L20.02686,26.370830390625L20.02612,27.370830390625L19.526,26.504870390625L20.97167,25.669960390625Q21.74251,25.224920390625,22.51323,25.669890390625L23.67067,26.338790390625Q24.483629999999998,26.807610390625,24.36161,27.739030390625Q24.23959,28.670450390625,23.33241,28.914280390625L22.90732,29.027490390625Q22.181829999999998,29.222530390625,21.46778,28.981630390625L19.711100000000002,28.387410390625L19.70552,28.385500390625ZM20.35196,26.492860390625L22.10711,27.086570390625Q22.24739,27.133900390625,22.39262,27.094860390625L22.81327,26.982830390625Q22.43009,27.085820390625,22.37855,27.479240390625Q22.32701,27.872660390625,22.66994,28.070420390625L21.51323,27.401950390625Q21.74251,27.534320390625,21.971899999999998,27.401880390625L20.2938,28.371030390625002L20.02484,28.370830390625L20.025579999999998,27.370830390625L20.5253,28.237020390625Q21.05014,27.934220390625,21.00322,27.330080390625Q20.95433,26.700570390625,20.35755,26.494770390625L20.35196,26.492860390625ZM16.87808,27.568140390625Q16.712818,27.663550390624998,16.664042,27.848050390624998Q16.615265,28.032540390625,16.711779,28.197170390625Q16.80739,28.360250390624998,16.99016,28.408570390625002Q17.17293,28.456890390625,17.33665,28.362370390625Q17.50036,28.267840390625,17.5499,28.085400390625Q17.599429999999998,27.902960390625,17.50599,27.738610390625Q17.41167,27.572720390625,17.22751,27.522720390625Q17.04334,27.472720390625,16.87808,27.568140390625L16.87808,27.568140390625ZM17.8781,29.300170390625Q17.32256,29.620930390625,16.703483,29.452850390625Q16.084407,29.284770390625,15.767350799999999,28.727110390625Q15.45326,28.174660390625,15.619768,27.561370390625Q15.7862746,26.948080390625,16.336622,26.630330390625Q16.88697,26.312580390625,17.50135,26.475010390625002Q18.11574,26.637440390625,18.43714,27.185660390625Q18.76157,27.739060390625,18.59761,28.359240390625Q18.43365,28.979430390624998,17.8781,29.300180390625002L17.8781,29.300170390625Z" fill="#FFFFFF" fill-opacity="1"/></g><g><path d="M18.02115,25.169360390625002C17.5972,25.558660390625,16.95396,25.647450390625,16.429298,25.344240390625C15.827221,24.997170390625,15.585605,24.250680390625,15.870129,23.616643390625C16.154652,22.982606390625,16.87294,22.666870390625,17.53246,22.885937890625C18.19198,23.105005390625,18.57861,23.787753390625,18.42724,24.466020390625L18.62162,24.578100390625C18.803,24.682600390625,18.843609999999998,24.924620390625,18.74073,25.107090390625C18.63624,25.292270390625,18.39962,25.387560390625,18.21553,25.281440390625L18.02115,25.169360390625002ZM16.8325,24.644030390625C17.09268,24.794250390625,17.42543,24.703910390625,17.57392,24.442740390625C17.72102,24.184000390625002,17.631709999999998,23.855040390625,17.37395,23.706223390625C17.1162,23.557405390625,16.78666,23.644529390625,16.636131,23.901290390625C16.484183,24.160470390625,16.572311,24.493810390625,16.8325,24.644030390625ZM19.07048,25.719470390625C19.19936,25.238640390625,19.56,24.854030390625,20.03154,24.694510390625L21.78691,24.100540390625C22.06534,24.006220390625,22.36546,23.996420390625,22.64944,24.072390390625L23.07285,24.186090390625C23.23145,24.228720390625,23.34876,24.362670390625,23.37009,24.525510390625C23.39142,24.688340390625,23.31258,24.848000390625,23.17031,24.930040390625L18.42724,27.668680390625C18.62746,28.570250390625,17.88629,29.403340390625,16.96753,29.309390390625C16.048781,29.215450390625,15.491557,28.249590390625002,15.870113,27.407200390625C16.248669,26.564800390625,17.34088,26.340170390625,18.02115,26.964790390624998L18.86743,26.476410390625L19.07048,25.719470390625ZM20.03153,27.440130390625C20.00013,27.429300390625002,19.997419999999998,27.387070390625,20.025579999999998,27.370830390625L20.02612,27.370830390625L21.47178,26.535920390625C21.639310000000002,26.439200390625,21.84571,26.439200390625,22.01323,26.535920390625L23.1703,27.204610390625C23.31257,27.286650390625,23.39141,27.446300390624998,23.37008,27.609130390625C23.34875,27.771970390625,23.23144,27.905930390625,23.07284,27.948550390625L22.64997,28.061170390625C22.36609,28.137490390625,22.06598,28.128070390625,21.78745,28.034100390625L20.03153,27.440130390625ZM17.37809,28.434160390625C17.63828,28.283930390625,17.726399999999998,27.950600390625,17.57446,27.691420390624998C17.42393,27.434660390624998,17.09439,27.347530390625,16.83663,27.496350390625C16.578881,27.645170390625,16.489569,27.974130390625,16.636672,28.232860390625C16.78516,28.494040390625,17.11791,28.584380390625,17.37809,28.434160390625Z" fill-rule="evenodd" fill="#2882FF" fill-opacity="1" style="mix-blend-mode:passthrough"/></g></g></g></svg>