<svg xmlns="http://www.w3.org/2000/svg" xmlns:xlink="http://www.w3.org/1999/xlink" fill="none" version="1.1" width="24" height="24" viewBox="0 0 24 24"><defs><clipPath id="master_svg0_70_01859"><rect x="0" y="0" width="24" height="24" rx="0"/></clipPath></defs><g clip-path="url(#master_svg0_70_01859)"><g><path d="M7.249998371810913,18.75001287460327L6.0000183718109135,18.75001287460327Q4.446718371810913,18.75001287460327,3.348376371810913,17.651612874603273Q2.250030371810913,16.55331287460327,2.2500293718109132,15.000012874603271L2.250028371810913,7.000022874603271Q2.250028371810913,5.446722874603271,3.348377371810913,4.348368874603271Q4.446728371810913,3.2500188746032714,6.000028371810913,3.2500178746032713L18.000028371810913,3.2500138746032716Q19.553328371810913,3.2500128746032715,20.65162837181091,4.348365874603272Q21.750028371810913,5.446712874603271,21.750028371810913,7.000022874603271L21.749928371810913,15.000012874603271Q21.749928371810913,16.55331287460327,20.65162837181091,17.651612874603273Q19.553228371810913,18.75001287460327,18.000028371810913,18.75001287460327L13.207728371810914,18.75001287460327L8.385868371810913,21.643112874603272Q8.322528371810913,21.681112874603272,8.252988371810913,21.70601287460327Q8.183448371810913,21.73091287460327,8.110388371810913,21.741812874603273Q8.037318371810912,21.752712874603272,7.963538371810913,21.74911287460327Q7.889758371810913,21.74551287460327,7.818098371810913,21.72761287460327Q7.746438371810913,21.709712874603273,7.679648371810913,21.678112874603272Q7.612848371810913,21.64661287460327,7.553498371810913,21.60261287460327Q7.494148371810913,21.55861287460327,7.444518371810913,21.503912874603273Q7.3948883718109135,21.449212874603273,7.356878371810913,21.38591287460327Q7.249998371810913,21.20771287460327,7.249998371810913,21.00001287460327L7.249998371810913,18.75001287460327ZM8.749998371810914,18.00001287460327Q8.749998371810914,17.92611287460327,8.735588371810913,17.85371287460327Q8.721178371810913,17.78121287460327,8.692908371810912,17.713012874603272Q8.664638371810913,17.64471287460327,8.623598371810914,17.583312874603273Q8.582558371810913,17.521912874603274,8.530328371810914,17.46971287460327Q8.478098371810912,17.417412874603272,8.416678371810914,17.37641287460327Q8.355258371810912,17.33531287460327,8.287018371810912,17.30711287460327Q8.218768371810913,17.278812874603272,8.146318371810914,17.264412874603273Q8.073868371810914,17.25001287460327,7.999998371810913,17.25001287460327L6.000028371810913,17.25001287460327Q5.068048371810914,17.25001287460327,4.409038371810913,16.591012874603273Q3.750030371810913,15.932012874603272,3.7500293718109132,15.000012874603271L3.750028371810913,7.000022874603271Q3.750028371810913,6.068042874603272,4.409038371810913,5.409032874603271Q5.068048371810914,4.750017874603271,6.000028371810913,4.750017874603271L18.000028371810913,4.750013874603272Q18.931928371810912,4.750013874603272,19.591028371810914,5.409022874603272Q20.250028371810913,6.068032874603272,20.250028371810913,7.000022874603271L20.249928371810913,15.000012874603271Q20.249928371810913,15.932012874603272,19.590928371810914,16.591012874603273Q18.931928371810912,17.25001287460327,18.000028371810913,17.25001287460327L12.999998371810912,17.25001287460327Q12.792258371810913,17.25001287460327,12.614128371810914,17.35691287460327L8.749998371810914,19.67531287460327L8.749998371810914,18.00001287460327Z" fill-rule="evenodd" fill="#231F2E" fill-opacity="1"/></g><g><g><path d="M15.70140552520752,11.951302162701417L15.70140552520752,11.956622262701416L15.72158832520752,11.918367862701416L15.70140552520752,11.951302162701417Z" fill="#133C9A" fill-opacity="1" style="mix-blend-mode:passthrough"/></g><g><path d="M12.197374096870423,11.20015L12.222494096870422,11.17595L12.272734096870423,11.12748L12.306224096870423,11.093779999999999L12.410934096870422,10.98846L12.550144096870422,10.85049L12.665284096870423,10.73254L12.777304096870424,10.62722L12.894564096870422,10.51136L12.999234096870422,10.40605L13.147864096870421,10.25755L13.234754096870422,10.1754C13.288124096870423,10.12589,13.339424096870422,10.077449999999999,13.401204096870423,10.032160000000001C13.462974096870422,9.98687,13.505874096870421,9.94896,13.562414096870423,9.90999C13.638874096870422,9.85425,13.718214096870422,9.80257,13.800044096870423,9.75517C13.879594096870424,9.70743,13.961254096870423,9.66319,14.044984096870422,9.62247C14.123514096870423,9.58455,14.204124096870423,9.54874,14.285744096870422,9.51715C14.331804096870423,9.49924,14.377874096870421,9.48239,14.424994096870423,9.46659L14.495124096870423,9.44342C14.288564096870422,8.62467,13.909824096870423,7.860042,13.384434096870422,7.201162C13.334154096870423,7.138153,13.270394096870422,7.0873506,13.197894096870423,7.052526C13.125394096870423,7.0177014,13.046064096870422,6.999749713,12.965704096870422,7.00000264255L8.673791496870422,7.00000264255C8.656872496870422,7.00014831,8.640426496870422,7.00564579,8.626788396870422,7.0157173C8.613145996870422,7.0257889,8.603003926870421,7.0399236,8.597793526870422,7.0561184C8.592583126870423,7.0723132,8.592566216870422,7.0897468,8.597751246870422,7.10595C8.602936376870423,7.122153,8.613057296870423,7.136304,8.626682796870423,7.146397C10.091624096870422,8.22511,11.305734096870422,9.61159,12.184784096870423,11.20965L12.197374096870423,11.20015Z" fill="#00D6B9" fill-opacity="1" style="mix-blend-mode:passthrough"/></g><g><path d="M10.4962379296875,14.999999350204469C11.547297929687499,15.000299350204468,12.5792779296875,14.717739350204468,13.485267929687499,14.181579350204467C14.3912179296875,13.645469350204468,15.1381479296875,12.875319350204467,15.6486679296875,11.950959350204467C15.6832079296875,11.887799350204467,15.7177479296875,11.823529350204467,15.7533379296875,11.758259350204469C15.7029679296875,11.854689350204467,15.6466879296875,11.947919350204469,15.5847879296875,12.037349350204469C15.5628279296875,12.068939350204468,15.5397779296875,12.099459350204468,15.5167579296875,12.130029350204467C15.4937079296875,12.160559350204467,15.4581579296875,12.203759350204468,15.4267379296875,12.235339350204468C15.3953279296875,12.266919350204468,15.3775079296875,12.290099350204468,15.3523879296875,12.317499350204468C15.3011279296875,12.371209350204468,15.2477179296875,12.422809350204467,15.1911779296875,12.471239350204467C15.1598079296875,12.497589350204468,15.1283879296875,12.523939350204468,15.0959179296875,12.549179350204469C15.0634979296875,12.574479350204468,15.0195379296875,12.606059350204468,14.979727929687499,12.632409350204467C14.9399479296875,12.658709350204468,14.9294779296875,12.666099350204467,14.903337929687499,12.681889350204468L14.8227379296875,12.729309350204467C14.7672579296875,12.760889350204469,14.710717929687501,12.789309350204467,14.652067929687501,12.815659350204468C14.593467929687499,12.841959350204467,14.547397929687499,12.858849350204467,14.4992679296875,12.877809350204467C14.4510879296875,12.896769350204467,14.3861879296875,12.916739350204468,14.328637929687499,12.933629350204468C14.2421679296875,12.957399350204469,14.1544279296875,12.976399350204467,14.065877929687499,12.990499350204468C14.0009879296875,12.999959350204467,13.936087929687499,13.007349350204468,13.8701379296875,13.012589350204468C13.8041779296875,13.017859350204468,13.7319379296875,13.018919350204467,13.6607479296875,13.012589350204468C13.589557929687501,13.006299350204468,13.506887929687501,13.006299350204468,13.4283479296875,12.997849350204469C13.3704179296875,12.991519350204468,13.3128679296875,12.983109350204469,13.2556579296875,12.972559350204467C13.1983979296875,12.962049350204467,13.1481579296875,12.951529350204467,13.1048779296875,12.940979350204469L13.0253279296875,12.920959350204468L12.8044579296875,12.858849350204467L12.6997879296875,12.826169350204468L12.5364679296875,12.776679350204468L12.3941279296875,12.744049350204467L12.2684779296875,12.701909350204467L12.1847479296875,12.672429350204467L12.0800679296875,12.636629350204467L12.005757929687501,12.609229350204467C11.957577929687499,12.592379350204467,11.9083879296875,12.574479350204468,11.8602579296875,12.555519350204468L11.775427929687499,12.523939350204468L11.6634579296875,12.479689350204467L11.5440879296875,12.432269350204468L11.4676679296875,12.400679350204468L11.372407929687501,12.360659350204468L11.2991479296875,12.329069350204467L11.222727929687501,12.296439350204468L11.1567779296875,12.266919350204468L11.0960579296875,12.239559350204468L11.0353479296875,12.212159350204468L10.9725379296875,12.182689350204468L10.8929779296875,12.145819350204468L10.8134179296875,12.101569350204468L10.7244479296875,12.058419350204467L10.6490779296875,12.021559350204468C9.3328179296875,11.360759350204468,8.1442279296875,10.469149350204468,7.1391059296875,9.388546050204468C7.1280189296875,9.376723550204467,7.1136569296875,9.368527930204468,7.0978835296875,9.365019230204467C7.0821101296875,9.361514560204467,7.0656527296875,9.362853048204467,7.0506456296875,9.368870000204467C7.0356391296875,9.374886750204467,7.0227753296875,9.385303350204468,7.0137232296875,9.398764150204467C7.0046710896875,9.412224850204467,6.9998483766875,9.428113550204468,6.9998801224375,9.444365350204468L6.9998801224375,13.252709350204467L6.9998801224375,13.562379350204468C6.9996281306875,13.650669350204467,7.0210991296875,13.737649350204467,7.0623787296875,13.815549350204467C7.1036589296875,13.893489350204469,7.1634639296875005,13.959909350204468,7.2364599296875,14.008929350204468C8.2013979296875,14.654989350204467,9.3350579296875,14.998779350204469,10.4962379296875,14.999999350204469Z" fill="#3370FF" fill-opacity="1" style="mix-blend-mode:passthrough"/></g><g><path d="M16.999983988876345,9.630808399658203C16.251743988876342,9.261737199658203,15.394563988876342,9.182994699658202,14.592323988876343,9.409633399658203L14.487613988876342,9.440177399658204L14.417473988876342,9.463345399658204C14.370393988876343,9.479145399658202,14.324333988876344,9.495997399658203,14.278263988876343,9.513899399658204C14.196603988876342,9.545495399658202,14.116003988876344,9.581305399658204,14.037503988876342,9.619221399658203C13.958973988876343,9.657134399658203,13.872073988876343,9.704530399658204,13.792523988876344,9.751925399658203C13.710693988876343,9.799325399658203,13.631363988876343,9.851003399658204,13.554893988876342,9.906742399658203C13.499413988876343,9.945714399658204,13.450223988876342,9.985733399658203,13.393683988876344,10.028915399658203C13.337193988876344,10.072097399658203,13.280653988876342,10.122647399658202,13.227243988876342,10.172150399658204L13.140383988876343,10.254299399658203L13.001133988876344,10.402803399658204L12.896463988876343,10.508123399658203L12.777133988876344,10.627133399658202L12.665123988876342,10.732453399658203L12.546813988876343,10.851463399658202L12.407603988876343,10.989433399658203L12.302923988876342,11.094753399658202L12.269443988876343,11.128453399658204L12.219153988876343,11.176883399658204L12.194033988876342,11.201113399658203L12.156373988876343,11.236923399658203L12.114483988876342,11.275893399658203C11.745662988876342,11.617183399658202,11.335166988876344,11.909883399658202,10.892863988876343,12.146883399658204L10.972421488876343,12.183743399658203L11.035228988876343,12.213253399658203L11.095945988876343,12.240613399658203L11.156658988876343,12.268023399658203L11.222599988876343,12.297493399658203L11.299023988876343,12.330173399658204L11.372323988876342,12.361753399658204L11.467579988876343,12.401783399658203L11.543961988876342,12.433363399658203L11.663326988876342,12.480743399658204L11.775345988876342,12.524993399658204L11.860130988876342,12.556573399658204C11.908263988876342,12.575533399658203,11.957453988876342,12.593433399658203,12.005633988876342,12.610323399658203L12.079943988876343,12.637683399658203L12.184613988876343,12.673493399658202L12.270453988876342,12.703003399658204L12.396073988876342,12.745103399658204L12.529033988876343,12.787243399658204L12.692353988876343,12.836723399658203L12.797023988876344,12.869403399658204L13.017893988876343,12.931513399658204L13.097443988876343,12.951533399658203C13.147693988876343,12.964203399658203,13.197933988876343,12.974713399658203,13.248183988876342,12.983113399658203C13.298433988876344,12.991563399658203,13.356023988876343,13.000003399658203,13.420923988876343,13.008403399658203C13.499413988876343,13.016853399658203,13.576893988876343,13.022083399658204,13.653313988876343,13.023143399658203C13.729743988876344,13.024193399658204,13.793583988876343,13.023143399658203,13.862663988876342,13.023143399658203C13.931783988876344,13.023143399658203,13.993513988876343,13.010513399658203,14.058403988876343,13.001063399658204C14.146993988876343,12.986953399658203,14.234693988876343,12.967953399658203,14.321163988876343,12.944183399658204C14.378753988876342,12.927293399658204,14.435293988876342,12.909393399658203,14.491793988876342,12.888363399658203C14.548323988876342,12.867293399658204,14.596503988876343,12.848333399658204,14.644633988876343,12.826213399658203C14.692813988876342,12.804083399658204,14.759783988876343,12.771453399658203,14.815263988876342,12.739863399658203L14.895863988876343,12.692453399658202C14.922043988876343,12.676653399658203,14.947173988876344,12.659813399658203,14.972293988876343,12.642963399658203C14.997413988876342,12.626113399658204,15.050823988876342,12.588203399658203,15.088493988876344,12.559743399658203C15.126193988876341,12.531323399658202,15.152333988876343,12.508143399658202,15.183743988876342,12.481793399658203C15.239223988876343,12.433363399658203,15.288413988876343,12.376493399658203,15.344953988876343,12.328063399658204C15.370083988876342,12.300653399658202,15.395203988876343,12.274353399658203,15.419263988876342,12.245893399658204C15.443373988876342,12.217473399658203,15.479983988876342,12.173223399658204,15.509333988876342,12.140593399658203C15.538633988876342,12.107903399658204,15.555353988876343,12.079493399658203,15.577353988876343,12.047903399658203C15.638663988876342,11.959023399658204,15.694603988876342,11.866513399658203,15.744853988876343,11.770923399658203L15.801393988876342,11.655063399658204L16.324793988876344,10.615543399658204C16.488453988876344,10.248709399658203,16.717263988876343,9.914996399658204,16.999983988876345,9.630808399658203Z" fill="#133C9A" fill-opacity="1" style="mix-blend-mode:passthrough"/></g></g></g></svg>