<svg xmlns="http://www.w3.org/2000/svg" xmlns:xlink="http://www.w3.org/1999/xlink" fill="none" version="1.1" width="24" height="24" viewBox="0 0 24 24"><defs><clipPath id="master_svg0_69_15620"><rect x="0" y="0" width="24" height="24" rx="0"/></clipPath></defs><g clip-path="url(#master_svg0_69_15620)"><g><path d="M5.5,21L13.125,21Q13.19887,21,13.2713,20.9856Q13.3438,20.9712,13.412,20.9429Q13.4803,20.9146,13.5417,20.8736Q13.6031,20.8326,13.6553,20.7803Q13.7076,20.7281,13.7486,20.6667Q13.7896,20.6053,13.8179,20.537Q13.8462,20.4688,13.8606,20.3963Q13.875,20.3239,13.875,20.25Q13.875,20.1761,13.8606,20.1037Q13.8462,20.0312,13.8179,19.963Q13.7896,19.8947,13.7486,19.8333Q13.7076,19.7719,13.6553,19.7197Q13.6031,19.6674,13.5417,19.6264Q13.4803,19.5854,13.412,19.5571Q13.3438,19.5288,13.2713,19.514400000000002Q13.19887,19.5,13.125,19.5L5.5,19.5Q4,19.5,4,18L4,6Q4,4.5,5.5,4.5L8.87903,4.5Q9.18952,4.5,9.40945,4.720115L12.52967,7.84033Q12.54288,7.85354,12.55674,7.86608Q13.2073,8.4992,14.1203,8.5L19.5,8.5Q21,8.5,21,10L21,11.5Q21,11.57387,21.0144,11.64632Q21.0288,11.71877,21.0571,11.78701Q21.0854,11.85526,21.1264,11.91668Q21.1674,11.9781,21.2197,12.03033Q21.2719,12.08256,21.3333,12.1236Q21.3947,12.16464,21.463,12.19291Q21.5312,12.22118,21.6037,12.23559Q21.6761,12.25,21.75,12.25Q21.8239,12.25,21.8963,12.23559Q21.9688,12.22118,22.037,12.19291Q22.1053,12.16464,22.1667,12.1236Q22.2281,12.08256,22.2803,12.03033Q22.3326,11.9781,22.3736,11.91668Q22.4146,11.85526,22.4429,11.78701Q22.4712,11.71877,22.4856,11.64632Q22.5,11.57387,22.5,11.5L22.5,10Q22.5,8.75736,21.6213,7.87868Q20.7426,7,19.5,7L14.1216,7Q13.8111,6.99973,13.5916,6.779999999999999Q13.5801,6.76844,13.5681,6.7574000000000005L10.47055,3.6598902Q9.8112,3,8.87903,3L5.5,3Q4.25736,3,3.37868,3.87868Q2.5,4.75736,2.5,6L2.5,18Q2.5,19.2426,3.37868,20.1213Q4.25736,21,5.5,21Z" fill-rule="evenodd" fill="#231F2E" fill-opacity="1"/></g><g><path d="M11,4.5L18,4.5Q19.34619,4.5,20.298099999999998,5.451903Q21.25,6.40381,21.25,7.75Q21.25,7.823869999999999,21.235599999999998,7.896319999999999Q21.2212,7.96877,21.1929,8.03701Q21.1646,8.10526,21.1236,8.16668Q21.0826,8.2281,21.0303,8.28033Q20.978099999999998,8.33256,20.91668,8.3736Q20.85526,8.41464,20.787010000000002,8.44291Q20.71877,8.47118,20.64632,8.48559Q20.57387,8.5,20.5,8.5Q20.42613,8.5,20.35368,8.48559Q20.28123,8.47118,20.212989999999998,8.44291Q20.14474,8.41464,20.08332,8.3736Q20.021900000000002,8.33256,19.96967,8.28033Q19.91744,8.2281,19.8764,8.16668Q19.83536,8.10526,19.807090000000002,8.03701Q19.77882,7.96877,19.764409999999998,7.896319999999999Q19.75,7.823869999999999,19.75,7.75Q19.75,7.02513,19.23744,6.51256Q18.72487,6,18,6L11,6Q10.9261315,6,10.853682,5.985589Q10.781233,5.971178,10.712987,5.94291Q10.644742,5.914641,10.583322,5.873602Q10.521903,5.832563,10.46967,5.78033Q10.417437,5.728097,10.376398,5.666678Q10.335359,5.605258,10.30709,5.537013Q10.278822,5.468767,10.264410999999999,5.396318Q10.25,5.3238685,10.25,5.25Q10.25,5.1761315,10.264410999999999,5.103682Q10.278822,5.031233,10.30709,4.962987Q10.335359,4.894742,10.376398,4.833322Q10.417437,4.771903,10.46967,4.71967Q10.521903,4.667437,10.583322,4.626398Q10.644742,4.585359,10.712987,4.55709Q10.781233,4.528822,10.853682,4.514411Q10.9261315,4.5,11,4.5Z" fill-rule="evenodd" fill="#231F2E" fill-opacity="1"/></g><g transform="matrix(-1,0,0,1,43.5,0)"><g><path d="M21.75,16.5Q23.3033,16.5,24.40165,17.598349Q25.499670000000002,18.69637,25.5,20.24907L25.5,20.25Q25.5,20.32387,25.485590000000002,20.39632Q25.47118,20.46877,25.44291,20.53701Q25.41464,20.60526,25.3736,20.66668Q25.33256,20.7281,25.28033,20.78033Q25.2281,20.83256,25.16668,20.8736Q25.10526,20.91464,25.03701,20.94291Q24.96877,20.97118,24.89632,20.985590000000002Q24.82387,21,24.75,21Q24.67613,21,24.60368,20.985590000000002Q24.53123,20.97118,24.46299,20.94291Q24.39474,20.91464,24.33332,20.8736Q24.2719,20.83256,24.21967,20.78033Q24.16744,20.7281,24.1264,20.66668Q24.08536,20.60526,24.05709,20.53701Q24.02882,20.46877,24.014409999999998,20.39632Q24,20.32387,24,20.25Q24,19.31802,23.34099,18.65901Q22.681981,18,21.75,18Q21.6761315,18,21.603682,17.985589Q21.531233,17.971178,21.462987,17.94291Q21.394742,17.914641,21.333322,17.873601999999998Q21.271903000000002,17.832563,21.21967,17.78033Q21.167437,17.728096999999998,21.126398000000002,17.666678Q21.085359,17.605258,21.05709,17.537013Q21.028822,17.468767,21.014411,17.396318Q21,17.3238685,21,17.25Q21,17.1761315,21.014411,17.103682Q21.028822,17.031233,21.05709,16.962987Q21.085359,16.894742,21.126398000000002,16.833322Q21.167437,16.771903000000002,21.21967,16.71967Q21.271903000000002,16.667437,21.333322,16.626398000000002Q21.394742,16.585359,21.462987,16.55709Q21.531233,16.528822,21.603682,16.514411Q21.6761315,16.5,21.75,16.5Z" fill-rule="evenodd" fill="#2882FF" fill-opacity="1"/></g><g><path d="M21.75,13.5Q24.54594,13.5,26.52297,15.47703Q28.49956,17.45361,28.5,20.248739999999998L28.5,20.25Q28.5,20.32387,28.485590000000002,20.39632Q28.47118,20.46877,28.44291,20.537010000000002Q28.41464,20.60526,28.3736,20.66668Q28.33256,20.7281,28.28033,20.78033Q28.2281,20.83256,28.16668,20.8736Q28.10526,20.91464,28.037010000000002,20.94291Q27.96877,20.97118,27.89632,20.985590000000002Q27.82387,21,27.75,21Q27.67613,21,27.60368,20.985590000000002Q27.53123,20.97118,27.462989999999998,20.94291Q27.39474,20.91464,27.33332,20.8736Q27.2719,20.83256,27.21967,20.78033Q27.16744,20.7281,27.1264,20.66668Q27.08536,20.60526,27.05709,20.537010000000002Q27.02882,20.46877,27.014409999999998,20.39632Q27,20.32387,27,20.25Q27,18.07538,25.46231,16.53769Q23.92462,15,21.75,15Q21.6761315,15,21.603682,14.985589000000001Q21.531233,14.971178,21.462987,14.94291Q21.394742,14.914641,21.333322,14.873602Q21.271903000000002,14.832563,21.21967,14.78033Q21.167437,14.728097,21.126398000000002,14.666678Q21.085359,14.605258,21.05709,14.537013Q21.028822,14.468767,21.014411,14.396318Q21,14.3238685,21,14.25Q21,14.1761315,21.014411,14.103682Q21.028822,14.031233,21.05709,13.962987Q21.085359,13.894742,21.126398000000002,13.833322Q21.167437,13.771903,21.21967,13.71967Q21.271903000000002,13.667437,21.333322,13.626398Q21.394742,13.585359,21.462987,13.55709Q21.531233,13.528822,21.603682,13.514410999999999Q21.6761315,13.5,21.75,13.5Z" fill-rule="evenodd" fill="#2882FF" fill-opacity="1"/></g><g><path d="M21.75,19.5Q21.6761315,19.5,21.603682,19.514411Q21.531233,19.528822,21.462987,19.55709Q21.394742,19.585359,21.333322,19.626398000000002Q21.271903000000002,19.667437,21.21967,19.71967Q21.167437,19.771903000000002,21.126398000000002,19.833322Q21.085359,19.894742,21.05709,19.962987Q21.028822,20.031233,21.014411,20.103682Q21,20.1761315,21,20.25Q21,20.3238685,21.014411,20.396318Q21.028822,20.468767,21.05709,20.537013Q21.085359,20.605258,21.126398000000002,20.666678Q21.167437,20.728096999999998,21.21967,20.78033Q21.271903000000002,20.832563,21.333322,20.873601999999998Q21.394742,20.914641,21.462987,20.94291Q21.531233,20.971178,21.603682,20.985589Q21.6761315,21,21.75,21L21.7600002,21Q21.8338688,21,21.906318,20.985589Q21.978767,20.971178,22.047013,20.94291Q22.115258,20.914641,22.176678,20.873601999999998Q22.238097,20.832563,22.29033,20.78033Q22.342563,20.728096999999998,22.383602,20.666678Q22.424641,20.605258,22.45291,20.537013Q22.481178,20.468767,22.495589,20.396318Q22.51,20.3238685,22.51,20.25Q22.51,20.1761315,22.495589,20.103682Q22.481178,20.031233,22.45291,19.962987Q22.424642,19.894742,22.383602,19.833322Q22.342563,19.771903000000002,22.29033,19.71967Q22.238097,19.667437,22.176678,19.626398000000002Q22.115258,19.585359,22.047013,19.55709Q21.978767,19.528822,21.906318,19.514411Q21.8338688,19.5,21.7600002,19.5L21.75,19.5Z" fill-rule="evenodd" fill="#2882FF" fill-opacity="1"/></g></g><g><g><path d="M2,10.75L12,10.75Q12.086,10.75,12.1715,10.75843Q12.2571,10.76685,12.3414,10.78363Q12.4257,10.8004,12.508,10.82535Q12.5903,10.85031,12.6697,10.88321Q12.7491,10.91611,12.8249,10.95664Q12.9008,10.997160000000001,12.9722,11.04493Q13.0437,11.09269,13.1102,11.14723Q13.1766,11.20177,13.2374,11.26256Q13.2982,11.32335,13.3528,11.38981Q13.4073,11.45627,13.4551,11.527752Q13.5028,11.599235,13.5434,11.675056Q13.5839,11.750876,13.6168,11.830304Q13.6497,11.909732,13.6746,11.992002Q13.6996,12.074272,13.7164,12.158592Q13.7331,12.242912,13.7416,12.32847Q13.75,12.414028,13.75,12.5Q13.75,12.585972,13.7416,12.67153Q13.7331,12.757088,13.7164,12.841408Q13.6996,12.925728,13.6746,13.007998Q13.6497,13.090268,13.6168,13.169696Q13.5839,13.249124,13.5434,13.324944Q13.5028,13.400765,13.4551,13.472248Q13.4073,13.54373,13.3528,13.61019Q13.2982,13.67665,13.2374,13.73744Q13.1766,13.79823,13.1102,13.85277Q13.0437,13.90731,12.9722,13.95507Q12.9008,14.002839999999999,12.8249,14.04336Q12.7491,14.08389,12.6697,14.11679Q12.5903,14.14969,12.508,14.17465Q12.4257,14.1996,12.3414,14.21637Q12.2571,14.23315,12.1715,14.24157Q12.086,14.25,12,14.25L2,14.25Q1.914028,14.25,1.82847,14.24157Q1.742912,14.23315,1.658592,14.21637Q1.5742720000000001,14.1996,1.492002,14.17465Q1.409732,14.14969,1.330304,14.11679Q1.2508759999999999,14.08389,1.175056,14.04336Q1.099235,14.002839999999999,1.027752,13.95507Q0.95627,13.90731,0.88981,13.85277Q0.82335,13.79823,0.7625599999999999,13.73744Q0.70177,13.67665,0.64723,13.61019Q0.5926899999999999,13.54373,0.5449299999999999,13.472248Q0.49716000000000005,13.400765,0.45663999999999993,13.324944Q0.41611,13.249124,0.38321000000000005,13.169696Q0.3503099999999999,13.090268,0.32535000000000003,13.007998Q0.3004,12.925728,0.28363000000000005,12.841408Q0.26685000000000003,12.757088,0.25842999999999994,12.67153Q0.25,12.585972,0.25,12.5Q0.25,12.414028,0.25842999999999994,12.32847Q0.26685000000000003,12.242912,0.28363000000000005,12.158592Q0.3004,12.074272,0.32535000000000003,11.992002Q0.3503099999999999,11.909732,0.38321000000000005,11.830304Q0.41611,11.750876,0.45663999999999993,11.675056Q0.49716000000000005,11.599235,0.5449299999999999,11.527752Q0.5926899999999999,11.45627,0.64723,11.38981Q0.70177,11.32335,0.7625599999999999,11.26256Q0.82335,11.20177,0.88981,11.14723Q0.95627,11.09269,1.027752,11.04493Q1.099235,10.997160000000001,1.175056,10.95664Q1.2508759999999999,10.91611,1.330304,10.88321Q1.409732,10.85031,1.492002,10.82535Q1.5742720000000001,10.8004,1.658592,10.78363Q1.742912,10.76685,1.82847,10.75843Q1.914028,10.75,2,10.75Z" fill-rule="evenodd" fill="#FFFFFF" fill-opacity="1"/></g><g><path d="M6.76256,9.73744Q6.64069,9.61556,6.54493,9.472248Q6.4491700000000005,9.328936,6.38321,9.169696Q6.31725,9.010456,6.2836300000000005,8.841408Q6.25,8.67236,6.25,8.5Q6.25,8.414028,6.25843,8.32847Q6.26685,8.242912,6.2836300000000005,8.158592Q6.3004,8.074272,6.32535,7.992002Q6.35031,7.909732,6.38321,7.830304Q6.41611,7.750876,6.45664,7.675056Q6.49716,7.599235,6.54493,7.5277519999999996Q6.59269,7.45627,6.64723,7.38981Q6.70177,7.32335,6.76256,7.26256Q6.82335,7.20177,6.88981,7.14723Q6.95627,7.09269,7.0277519999999996,7.04493Q7.099235,6.99716,7.175056,6.95664Q7.250876,6.91611,7.330304,6.88321Q7.409732,6.85031,7.492002,6.82535Q7.574272,6.8004,7.658592,6.7836300000000005Q7.7429120000000005,6.76685,7.82847,6.75843Q7.914028,6.75,8,6.75Q8.17236,6.75,8.341408,6.7836300000000005Q8.510456,6.81725,8.669696,6.88321Q8.828936,6.9491700000000005,8.972248,7.04493Q9.11556,7.14069,9.23744,7.26256L13.23744,11.26256Q13.29823,11.32335,13.35277,11.38981Q13.407309999999999,11.45627,13.45507,11.527750000000001Q13.502839999999999,11.59924,13.54336,11.67506Q13.58389,11.75088,13.61679,11.8303Q13.64969,11.90973,13.67464,11.992Q13.6996,12.07427,13.716370000000001,12.15859Q13.73315,12.24291,13.74157,12.32847Q13.75,12.41403,13.75,12.5Q13.75,12.58597,13.74157,12.67153Q13.73315,12.75709,13.716370000000001,12.84141Q13.6996,12.92573,13.67464,13.008Q13.64969,13.09027,13.61679,13.169699999999999Q13.58389,13.24912,13.54336,13.32494Q13.502839999999999,13.40076,13.45507,13.472249999999999Q13.407309999999999,13.54373,13.35277,13.61019Q13.29823,13.67665,13.23744,13.73744L9.23744,17.73744Q9.11556,17.85931,8.972248,17.95507Q8.828936,18.050829999999998,8.669696,18.11679Q8.510456,18.18275,8.341408,18.216369999999998Q8.17236,18.25,8,18.25Q7.914028,18.25,7.82847,18.24157Q7.7429120000000005,18.233150000000002,7.658592,18.216369999999998Q7.574272,18.1996,7.492002,18.17464Q7.409732,18.14969,7.330304,18.11679Q7.250876,18.08389,7.175056,18.04336Q7.099235,18.00283,7.0277519999999996,17.95507Q6.95627,17.907310000000003,6.88981,17.85277Q6.82335,17.79823,6.76256,17.73744Q6.70177,17.676650000000002,6.64723,17.61019Q6.59269,17.54373,6.54493,17.472250000000003Q6.49716,17.40076,6.45664,17.324939999999998Q6.41611,17.249119999999998,6.38321,17.1697Q6.35031,17.09027,6.32535,17.008Q6.3004,16.92573,6.2836300000000005,16.84141Q6.26685,16.757089999999998,6.25843,16.67153Q6.25,16.58597,6.25,16.5Q6.25,16.32764,6.2836300000000005,16.15859Q6.31725,15.98954,6.38321,15.830300000000001Q6.4491700000000005,15.67106,6.54493,15.527750000000001Q6.64069,15.38444,6.76256,15.26256L6.76285,15.26228L9.52513,12.5L6.76256,9.73744Z" fill-rule="evenodd" fill="#FFFFFF" fill-opacity="1"/></g></g><g><g><path d="M2,11.75L12,11.75Q12.0739,11.75,12.1463,11.764410999999999Q12.2188,11.778822,12.287,11.80709Q12.3553,11.835359,12.4167,11.876398Q12.4781,11.917437,12.5303,11.96967Q12.5826,12.021903,12.6236,12.083322Q12.6646,12.144742,12.6929,12.212987Q12.7212,12.281233,12.7356,12.353682Q12.75,12.4261315,12.75,12.5Q12.75,12.5738685,12.7356,12.646318Q12.7212,12.718767,12.6929,12.787013Q12.6646,12.855258,12.6236,12.916678Q12.5826,12.978097,12.5303,13.03033Q12.4781,13.082563,12.4167,13.123602Q12.3553,13.164641,12.287,13.19291Q12.2188,13.221178,12.1463,13.235589000000001Q12.0739,13.25,12,13.25L2,13.25Q1.9261314999999999,13.25,1.853682,13.235589000000001Q1.781233,13.221178,1.712987,13.19291Q1.644742,13.164641,1.583322,13.123602Q1.521903,13.082563,1.46967,13.03033Q1.417437,12.978097,1.376398,12.916678Q1.335359,12.855258,1.30709,12.787013Q1.278822,12.718767,1.264411,12.646318Q1.25,12.5738685,1.25,12.5Q1.25,12.4261315,1.264411,12.353682Q1.278822,12.281233,1.30709,12.212987Q1.335359,12.144742,1.376398,12.083322Q1.417437,12.021903,1.46967,11.96967Q1.521903,11.917437,1.583322,11.876398Q1.644742,11.835359,1.712987,11.80709Q1.781233,11.778822,1.853682,11.764410999999999Q1.9261314999999999,11.75,2,11.75Z" fill-rule="evenodd" fill="#2882FF" fill-opacity="1"/></g><g><path d="M8.530484,7.969824L12.53033,11.96967Q12.58256,12.0219,12.6236,12.08332Q12.66464,12.14474,12.692910000000001,12.21299Q12.72118,12.28123,12.73559,12.35368Q12.75,12.42613,12.75,12.5Q12.75,12.57387,12.73559,12.64632Q12.72118,12.71877,12.692910000000001,12.78701Q12.66464,12.855260000000001,12.6236,12.91668Q12.58256,12.978100000000001,12.53033,13.03033L8.530792,17.029870000000003L8.53033,17.03033Q8.424841,17.135820000000002,8.287013,17.192909999999998Q8.149184,17.25,8,17.25Q7.9261315,17.25,7.853682,17.235590000000002Q7.781233,17.22118,7.712987,17.192909999999998Q7.644742,17.16464,7.583322,17.1236Q7.521903,17.08256,7.46967,17.03033Q7.417437,16.978099999999998,7.376398,16.91668Q7.335359,16.85526,7.30709,16.787010000000002Q7.278822,16.71877,7.264411,16.64632Q7.25,16.57387,7.25,16.5Q7.25,16.35082,7.30709,16.212989999999998Q7.364181,16.07516,7.46967,15.96967L10.93934,12.5L7.469824,9.030484L7.46967,9.03033Q7.364181,8.924841,7.30709,8.787013Q7.25,8.649184,7.25,8.5Q7.25,8.4261315,7.264411,8.353682Q7.278822,8.281233,7.30709,8.212987Q7.335359,8.144742,7.376398,8.083322Q7.417437,8.021903,7.46967,7.96967Q7.521903,7.917437,7.583322,7.876398Q7.644742,7.835359,7.712987,7.80709Q7.781233,7.778822,7.853682,7.764411Q7.9261315,7.75,8,7.75Q8.149184,7.75,8.287013,7.80709Q8.424841,7.864181,8.53033,7.96967L8.530484,7.969824Z" fill-rule="evenodd" fill="#2882FF" fill-opacity="1"/></g></g></g></svg>