<svg xmlns="http://www.w3.org/2000/svg" xmlns:xlink="http://www.w3.org/1999/xlink" fill="none" version="1.1" width="24" height="24" viewBox="0 0 24 24"><defs><clipPath id="master_svg0_69_15477"><rect x="0" y="0" width="24" height="24" rx="0"/></clipPath></defs><g clip-path="url(#master_svg0_69_15477)"><g></g><g><path d="M2.84835,20.1517Q3.9467,21.25,5.5,21.25L18.5,21.25Q20.0533,21.25,21.1517,20.1517Q22.25,19.0533,22.25,17.5L22.25,6.5Q22.25,4.9467,21.1517,3.84835Q20.0533,2.75,18.5,2.75L5.5,2.75Q3.9467,2.75,2.84835,3.84835Q1.75,4.9467,1.75,6.5L1.75,17.5Q1.75,19.0533,2.84835,20.1517ZM18.5,19.75L5.5,19.75Q4.568020000000001,19.75,3.9090100000000003,19.091Q3.25,18.432000000000002,3.25,17.5L3.25,6.5Q3.25,5.568020000000001,3.9090100000000003,4.90901Q4.568020000000001,4.25,5.5,4.25L18.5,4.25Q19.432,4.25,20.091,4.90901Q20.75,5.568020000000001,20.75,6.5L20.75,17.5Q20.75,18.432000000000002,20.091,19.091Q19.432,19.75,18.5,19.75Z" fill-rule="evenodd" fill="#231F2E" fill-opacity="1"/></g><g><ellipse cx="9" cy="6" rx="1" ry="1" fill="#231F2E" fill-opacity="1"/></g><g><ellipse cx="6" cy="6" rx="1" ry="1" fill="#231F2E" fill-opacity="1"/></g><g><path d="M3,7.75L21,7.75Q21.0739,7.75,21.1463,7.764411Q21.2188,7.778822,21.287,7.80709Q21.3553,7.835359,21.4167,7.876398Q21.4781,7.917437,21.5303,7.96967Q21.5826,8.021903,21.6236,8.083322Q21.6646,8.144742,21.6929,8.212987Q21.7212,8.281233,21.7356,8.353682Q21.75,8.4261315,21.75,8.5Q21.75,8.5738685,21.7356,8.646318Q21.7212,8.718767,21.6929,8.787013Q21.6646,8.855258,21.6236,8.916678Q21.5826,8.978097,21.5303,9.03033Q21.4781,9.082563,21.4167,9.123602Q21.3553,9.164641,21.287,9.19291Q21.2188,9.221178,21.1463,9.235589000000001Q21.0739,9.25,21,9.25L3,9.25Q2.9261315,9.25,2.853682,9.235589000000001Q2.781233,9.221178,2.712987,9.19291Q2.644742,9.164641,2.583322,9.123602Q2.521903,9.082563,2.46967,9.03033Q2.417437,8.978097,2.376398,8.916678Q2.335359,8.855258,2.30709,8.787013Q2.278822,8.718767,2.264411,8.646318Q2.25,8.5738685,2.25,8.5Q2.25,8.4261315,2.264411,8.353682Q2.278822,8.281233,2.30709,8.212987Q2.335359,8.144742,2.376398,8.083322Q2.417437,8.021903,2.46967,7.96967Q2.521903,7.917437,2.583322,7.876398Q2.644742,7.835359,2.712987,7.80709Q2.781233,7.778822,2.853682,7.764411Q2.9261315,7.75,3,7.75Z" fill-rule="evenodd" fill="#231F2E" fill-opacity="1"/></g><g><path d="M11.25,11.5Q11.25,11.4261315,11.26441,11.353682Q11.27882,11.281233,11.30709,11.212987Q11.33536,11.144742,11.3764,11.083322Q11.41744,11.021903,11.46967,10.96967Q11.5219,10.917437,11.58332,10.876398Q11.64474,10.835359,11.71299,10.80709Q11.78123,10.778822,11.85368,10.764410999999999Q11.92613,10.75,12,10.75Q12.07387,10.75,12.14632,10.764410999999999Q12.21877,10.778822,12.28701,10.80709Q12.35526,10.835359,12.41668,10.876398Q12.4781,10.917437,12.53033,10.96967Q12.58256,11.021903,12.6236,11.083322Q12.66464,11.144742,12.69291,11.212987Q12.72118,11.281233,12.73559,11.353682Q12.75,11.4261315,12.75,11.5L12.75,15.68934L14.469280000000001,13.97006L14.46967,13.96967Q14.57516,13.864180000000001,14.71299,13.80709Q14.850819999999999,13.75,15,13.75Q15.07387,13.75,15.14632,13.76441Q15.21877,13.77882,15.28701,13.80709Q15.355260000000001,13.83536,15.41668,13.8764Q15.478100000000001,13.91744,15.53033,13.96967Q15.58256,14.0219,15.6236,14.08332Q15.66464,14.14474,15.692910000000001,14.21299Q15.72118,14.28123,15.73559,14.35368Q15.75,14.42613,15.75,14.5Q15.75,14.64918,15.692910000000001,14.78701Q15.635819999999999,14.92484,15.53033,15.03033L15.5298,15.03086L12.53033,18.03033Q12.42484,18.13582,12.28701,18.19291Q12.14918,18.25,12,18.25Q11.85082,18.25,11.71299,18.19291Q11.57516,18.13582,11.46967,18.03033L8.469965,15.030619999999999L8.46967,15.03033Q8.364181,14.92484,8.30709,14.78701Q8.25,14.64918,8.25,14.5Q8.25,14.42613,8.264410999999999,14.35368Q8.278822,14.28123,8.30709,14.21299Q8.335359,14.14474,8.376398,14.08332Q8.417437,14.0219,8.46967,13.96967Q8.521903,13.91744,8.583322,13.8764Q8.644742,13.83536,8.712987,13.80709Q8.781233,13.77882,8.853682,13.76441Q8.9261315,13.75,9,13.75Q9.149184,13.75,9.287013,13.80709Q9.424841,13.864180000000001,9.53033,13.96967L11.25,15.68934L11.25,11.5Z" fill-rule="evenodd" fill="#2882FF" fill-opacity="1" style="mix-blend-mode:passthrough"/></g></g></svg>