<svg xmlns="http://www.w3.org/2000/svg" xmlns:xlink="http://www.w3.org/1999/xlink" fill="none" version="1.1" width="24" height="24" viewBox="0 0 24 24"><defs><clipPath id="master_svg0_69_15205"><rect x="0" y="0" width="24" height="24" rx="0"/></clipPath></defs><g clip-path="url(#master_svg0_69_15205)"><g></g><g><path d="M2.84835,20.1517Q3.9467,21.25,5.5,21.25L18.5,21.25Q20.0533,21.25,21.1517,20.1517Q22.25,19.0533,22.25,17.5L22.25,6.5Q22.25,4.9467,21.1517,3.84835Q20.0533,2.75,18.5,2.75L5.5,2.75Q3.9467,2.75,2.84835,3.84835Q1.75,4.9467,1.75,6.5L1.75,17.5Q1.75,19.0533,2.84835,20.1517ZM18.5,19.75L5.5,19.75Q4.568020000000001,19.75,3.9090100000000003,19.091Q3.25,18.432000000000002,3.25,17.5L3.25,6.5Q3.25,5.568020000000001,3.9090100000000003,4.90901Q4.568020000000001,4.25,5.5,4.25L18.5,4.25Q19.432,4.25,20.091,4.90901Q20.75,5.568020000000001,20.75,6.5L20.75,17.5Q20.75,18.432000000000002,20.091,19.091Q19.432,19.75,18.5,19.75Z" fill-rule="evenodd" fill="#231F2E" fill-opacity="1"/></g><g><ellipse cx="9" cy="6" rx="1" ry="1" fill="#231F2E" fill-opacity="1"/></g><g><ellipse cx="6" cy="6" rx="1" ry="1" fill="#231F2E" fill-opacity="1"/></g><g><path d="M9,13.75L15,13.75Q15.07387,13.75,15.14632,13.764410999999999Q15.21877,13.778822,15.28701,13.80709Q15.355260000000001,13.835359,15.41668,13.876398Q15.478100000000001,13.917437,15.53033,13.96967Q15.58256,14.021903,15.6236,14.083322Q15.66464,14.144742,15.692910000000001,14.212987Q15.72118,14.281233,15.73559,14.353682Q15.75,14.4261315,15.75,14.5Q15.75,14.5738685,15.73559,14.646318Q15.72118,14.718767,15.692910000000001,14.787013Q15.66464,14.855258,15.6236,14.916678Q15.58256,14.978097,15.53033,15.03033Q15.478100000000001,15.082563,15.41668,15.123602Q15.355260000000001,15.164641,15.28701,15.19291Q15.21877,15.221178,15.14632,15.235589000000001Q15.07387,15.25,15,15.25L9,15.25Q8.9261315,15.25,8.853682,15.235589000000001Q8.781233,15.221178,8.712987,15.19291Q8.644742,15.164641,8.583322,15.123602Q8.521903,15.082563,8.46967,15.03033Q8.417437,14.978097,8.376398,14.916678Q8.335359,14.855258,8.30709,14.787013Q8.278822,14.718767,8.264410999999999,14.646318Q8.25,14.5738685,8.25,14.5Q8.25,14.4261315,8.264410999999999,14.353682Q8.278822,14.281233,8.30709,14.212987Q8.335359,14.144742,8.376398,14.083322Q8.417437,14.021903,8.46967,13.96967Q8.521903,13.917437,8.583322,13.876398Q8.644742,13.835359,8.712987,13.80709Q8.781233,13.778822,8.853682,13.764410999999999Q8.9261315,13.75,9,13.75Z" fill-rule="evenodd" fill="#2882FF" fill-opacity="1"/></g><g><path d="M12.530484,10.969824L15.53033,13.96967Q15.635819999999999,14.07516,15.69291,14.21299Q15.75,14.35082,15.75,14.5Q15.75,14.64918,15.69291,14.78701Q15.635819999999999,14.92484,15.53033,15.03033L12.530792,18.02987L12.53033,18.03033Q12.424841,18.13582,12.287013,18.19291Q12.149184,18.25,12,18.25Q11.9261315,18.25,11.853682,18.235590000000002Q11.781233,18.22118,11.712987,18.19291Q11.644742,18.16464,11.583322,18.1236Q11.521903,18.08256,11.46967,18.03033Q11.417437,17.9781,11.376398,17.91668Q11.335359,17.85526,11.30709,17.787010000000002Q11.278822,17.71877,11.264410999999999,17.64632Q11.25,17.57387,11.25,17.5Q11.25,17.35082,11.30709,17.212989999999998Q11.364181,17.07516,11.46967,16.96967L11.470132,16.96921L13.93934,14.5L11.469824,12.030484L11.46967,12.03033Q11.364181,11.924841,11.30709,11.787013Q11.25,11.649184,11.25,11.5Q11.25,11.4261315,11.264410999999999,11.353682Q11.278822,11.281233,11.30709,11.212987Q11.335359,11.144742,11.376398,11.083322Q11.417437,11.021903,11.46967,10.96967Q11.521903,10.917437,11.583322,10.876398Q11.644742,10.835359,11.712987,10.80709Q11.781233,10.778822,11.853682,10.764410999999999Q11.9261315,10.75,12,10.75Q12.149184,10.75,12.287013,10.80709Q12.424841,10.864181,12.53033,10.96967L12.530484,10.969824Z" fill-rule="evenodd" fill="#2882FF" fill-opacity="1"/></g><g><path d="M3,7.75L21,7.75Q21.0739,7.75,21.1463,7.764411Q21.2188,7.778822,21.287,7.80709Q21.3553,7.835359,21.4167,7.876398Q21.4781,7.917437,21.5303,7.96967Q21.5826,8.021903,21.6236,8.083322Q21.6646,8.144742,21.6929,8.212987Q21.7212,8.281233,21.7356,8.353682Q21.75,8.4261315,21.75,8.5Q21.75,8.5738685,21.7356,8.646318Q21.7212,8.718767,21.6929,8.787013Q21.6646,8.855258,21.6236,8.916678Q21.5826,8.978097,21.5303,9.03033Q21.4781,9.082563,21.4167,9.123602Q21.3553,9.164641,21.287,9.19291Q21.2188,9.221178,21.1463,9.235589000000001Q21.0739,9.25,21,9.25L3,9.25Q2.9261315,9.25,2.853682,9.235589000000001Q2.781233,9.221178,2.712987,9.19291Q2.644742,9.164641,2.583322,9.123602Q2.521903,9.082563,2.46967,9.03033Q2.417437,8.978097,2.376398,8.916678Q2.335359,8.855258,2.30709,8.787013Q2.278822,8.718767,2.264411,8.646318Q2.25,8.5738685,2.25,8.5Q2.25,8.4261315,2.264411,8.353682Q2.278822,8.281233,2.30709,8.212987Q2.335359,8.144742,2.376398,8.083322Q2.417437,8.021903,2.46967,7.96967Q2.521903,7.917437,2.583322,7.876398Q2.644742,7.835359,2.712987,7.80709Q2.781233,7.778822,2.853682,7.764411Q2.9261315,7.75,3,7.75Z" fill-rule="evenodd" fill="#231F2E" fill-opacity="1"/></g></g></svg>