<svg xmlns="http://www.w3.org/2000/svg" xmlns:xlink="http://www.w3.org/1999/xlink" fill="none" version="1.1" width="24" height="24" viewBox="0 0 24 24"><defs><clipPath id="master_svg0_70_01321"><rect x="0" y="0" width="24" height="24" rx="0"/></clipPath></defs><g clip-path="url(#master_svg0_70_01321)"><g><path d="M7.249998371810913,18.75001287460327L6.0000183718109135,18.75001287460327Q4.446718371810913,18.75001287460327,3.348376371810913,17.651612874603273Q2.250030371810913,16.55331287460327,2.2500293718109132,15.000012874603271L2.250028371810913,7.000022874603271Q2.250028371810913,5.446722874603271,3.348377371810913,4.348368874603271Q4.446728371810913,3.2500188746032714,6.000028371810913,3.2500178746032713L18.000028371810913,3.2500138746032716Q19.553328371810913,3.2500128746032715,20.65162837181091,4.348365874603272Q21.750028371810913,5.446712874603271,21.750028371810913,7.000022874603271L21.749928371810913,15.000012874603271Q21.749928371810913,16.55331287460327,20.65162837181091,17.651612874603273Q19.553228371810913,18.75001287460327,18.000028371810913,18.75001287460327L13.207728371810914,18.75001287460327L8.385868371810913,21.643112874603272Q8.322528371810913,21.681112874603272,8.252988371810913,21.70601287460327Q8.183448371810913,21.73091287460327,8.110388371810913,21.741812874603273Q8.037318371810912,21.752712874603272,7.963538371810913,21.74911287460327Q7.889758371810913,21.74551287460327,7.818098371810913,21.72761287460327Q7.746438371810913,21.709712874603273,7.679648371810913,21.678112874603272Q7.612848371810913,21.64661287460327,7.553498371810913,21.60261287460327Q7.494148371810913,21.55861287460327,7.444518371810913,21.503912874603273Q7.3948883718109135,21.449212874603273,7.356878371810913,21.38591287460327Q7.249998371810913,21.20771287460327,7.249998371810913,21.00001287460327L7.249998371810913,18.75001287460327ZM8.749998371810914,18.00001287460327Q8.749998371810914,17.92611287460327,8.735588371810913,17.85371287460327Q8.721178371810913,17.78121287460327,8.692908371810912,17.713012874603272Q8.664638371810913,17.64471287460327,8.623598371810914,17.583312874603273Q8.582558371810913,17.521912874603274,8.530328371810914,17.46971287460327Q8.478098371810912,17.417412874603272,8.416678371810914,17.37641287460327Q8.355258371810912,17.33531287460327,8.287018371810912,17.30711287460327Q8.218768371810913,17.278812874603272,8.146318371810914,17.264412874603273Q8.073868371810914,17.25001287460327,7.999998371810913,17.25001287460327L6.000028371810913,17.25001287460327Q5.068048371810914,17.25001287460327,4.409038371810913,16.591012874603273Q3.750030371810913,15.932012874603272,3.7500293718109132,15.000012874603271L3.750028371810913,7.000022874603271Q3.750028371810913,6.068042874603272,4.409038371810913,5.409032874603271Q5.068048371810914,4.750017874603271,6.000028371810913,4.750017874603271L18.000028371810913,4.750013874603272Q18.931928371810912,4.750013874603272,19.591028371810914,5.409022874603272Q20.250028371810913,6.068032874603272,20.250028371810913,7.000022874603271L20.249928371810913,15.000012874603271Q20.249928371810913,15.932012874603272,19.590928371810914,16.591012874603273Q18.931928371810912,17.25001287460327,18.000028371810913,17.25001287460327L12.999998371810912,17.25001287460327Q12.792258371810913,17.25001287460327,12.614128371810914,17.35691287460327L8.749998371810914,19.67531287460327L8.749998371810914,18.00001287460327Z" fill-rule="evenodd" fill="#231F2E" fill-opacity="1"/></g><g><path d="M13.75624765625,9.909259531250001C13.870437656250001,9.909259531250001,13.98305765625,9.917609531250001,14.09457765625,9.92973953125C13.79073765625,8.529429531249999,12.27753765625,7.48876953125,10.55046765625,7.48876953125C8.61945765625,7.48876953125,7.03759765625,8.79127953125,7.03759765625,10.44507953125C7.03759765625,11.39953953125,7.56398665625,12.18345953125,8.44328765625,12.791479531250001L8.09199765625,13.83740953125L9.31988765625,13.22789953125C9.75953765625,13.31382953125,10.11188765625,13.40244953125,10.55046765625,13.40244953125C10.66064765625,13.40244953125,10.76973765625,13.39708953125,10.87830765625,13.38846953125C10.80960765625,13.15625953125,10.76973765625,12.91273953125,10.76973765625,12.66029953125C10.76975765625,11.14173953125,12.08761765625,9.909259531250001,13.75624765625,9.909259531250001ZM11.86778765625,8.96665953125C12.13232765625,8.96665953125,12.307427656249999,9.13906953125,12.307427656249999,9.40064953125C12.307427656249999,9.66114953125,12.13232765625,9.83570953125,11.86778765625,9.83570953125C11.60431765625,9.83570953125,11.34031765625,9.66114953125,11.34031765625,9.40064953125C11.34031765625,9.13906953125,11.60432765625,8.96665953125,11.86778765625,8.96665953125ZM9.40932765625,9.83569953125C9.14584765625,9.83569953125,8.88022765625,9.66113953125,8.88022765625,9.40063953125C8.88022765625,9.13904953125,9.14584765625,8.96664953125,9.40932765625,8.96664953125C9.67250765625,8.96664953125,9.84788765625,9.13904953125,9.84788765625,9.40063953125C9.84788765625,9.66114953125,9.67250765625,9.83569953125,9.40932765625,9.83569953125ZM16.96253765625,12.61853953125C16.96253765625,11.22873953125,15.55711765625,10.09594953125,13.97874765625,10.09594953125C12.307427656249999,10.09594953125,10.99118765625,11.22873953125,10.99118765625,12.61853953125C10.99118765625,14.01035953125,12.307427656249999,15.140729531249999,13.97874765625,15.140729531249999C14.32841765625,15.140729531249999,14.68132765625,15.053959531250001,15.03258765625,14.96669953125L15.99623765625,15.48876953125L15.73194765625,14.62024953125C16.437237656249998,14.09655953125,16.96253765625,13.40244953125,16.96253765625,12.61853953125ZM13.01000765625,12.18345953125C12.83518765625,12.18345953125,12.65872765625,12.01132953125,12.65872765625,11.835679531250001C12.65872765625,11.66246953125,12.83518765625,11.48816953125,13.01000765625,11.48816953125C13.27562765625,11.48816953125,13.44965765625,11.66246953125,13.44965765625,11.835679531250001C13.44965765625,12.01132953125,13.27562765625,12.18345953125,13.01000765625,12.18345953125ZM14.94208765625,12.18345953125C14.768617656250001,12.18345953125,14.59323765625,12.01132953125,14.59323765625,11.835679531250001C14.59323765625,11.66246953125,14.768617656250001,11.48816953125,14.94208765625,11.48816953125C15.20555765625,11.48816953125,15.38173765625,11.66246953125,15.38173765625,11.835679531250001C15.38173765625,12.01132953125,15.20555765625,12.18345953125,14.94208765625,12.18345953125Z" fill="#2882FF" fill-opacity="1"/></g></g></svg>