<svg xmlns="http://www.w3.org/2000/svg" xmlns:xlink="http://www.w3.org/1999/xlink" fill="none" version="1.1" width="24" height="24" viewBox="0 0 24 24"><defs><clipPath id="master_svg0_74_01495"><rect x="0" y="0" width="24" height="24" rx="0"/></clipPath></defs><g clip-path="url(#master_svg0_74_01495)"><g><path d="M4.5,21L13.125,21Q13.1989,21,13.2713,20.9856Q13.3438,20.9712,13.412,20.9429Q13.4803,20.9146,13.5417,20.8736Q13.6031,20.8326,13.6553,20.7803Q13.7076,20.7281,13.7486,20.6667Q13.7896,20.6053,13.8179,20.537Q13.8462,20.4688,13.8606,20.3963Q13.875,20.3239,13.875,20.25Q13.875,20.1761,13.8606,20.1037Q13.8462,20.0312,13.8179,19.963Q13.7896,19.8947,13.7486,19.8333Q13.7076,19.7719,13.6553,19.7197Q13.6031,19.6674,13.5417,19.6264Q13.4803,19.5854,13.412,19.5571Q13.3438,19.5288,13.2713,19.514400000000002Q13.1989,19.5,13.125,19.5L4.5,19.5Q3,19.5,3,18L3,6Q3,4.5,4.5,4.5L9.87903,4.5Q10.18946,4.5,10.40939,4.720115L13.5297,7.84034Q13.5429,7.85354,13.5568,7.86608Q14.2074,8.4992,15.1203,8.5L19.5,8.5Q21,8.5,21,10L21,11.5Q21,11.57387,21.0144,11.64632Q21.0288,11.71877,21.0571,11.78701Q21.0854,11.85526,21.1264,11.91668Q21.1674,11.9781,21.2197,12.03033Q21.2719,12.08256,21.3333,12.1236Q21.3947,12.16464,21.463,12.19291Q21.5312,12.22118,21.6037,12.23559Q21.6761,12.25,21.75,12.25Q21.8239,12.25,21.8963,12.23559Q21.9688,12.22118,22.037,12.19291Q22.1053,12.16464,22.1667,12.1236Q22.2281,12.08256,22.2803,12.03033Q22.3326,11.9781,22.3736,11.91668Q22.4146,11.85526,22.4429,11.78701Q22.4712,11.71877,22.4856,11.64632Q22.5,11.57387,22.5,11.5L22.5,10Q22.5,8.75736,21.6213,7.87868Q20.7426,7,19.5,7L15.1216,7Q14.8112,6.99973,14.5917,6.779999999999999Q14.5801,6.76844,14.5681,6.75739L11.47049,3.6598902Q10.81114,3,9.87903,3L4.5,3Q3.2573600000000003,3,2.37868,3.87868Q1.5,4.75736,1.5,6L1.5,18Q1.5,19.2426,2.37868,20.1213Q3.2573600000000003,21,4.5,21Z" fill-rule="evenodd" fill="#231F2E" fill-opacity="1"/></g><g><path d="M12,4.5L18,4.5Q19.3462,4.5,20.298099999999998,5.451903Q21.25,6.40381,21.25,7.75Q21.25,7.823869999999999,21.235590000000002,7.896319999999999Q21.22118,7.96877,21.192909999999998,8.03701Q21.16464,8.10526,21.1236,8.16668Q21.08256,8.2281,21.03033,8.28033Q20.978099999999998,8.33256,20.91668,8.3736Q20.85526,8.41464,20.787010000000002,8.44291Q20.71877,8.47118,20.64632,8.48559Q20.57387,8.5,20.5,8.5Q20.42613,8.5,20.35368,8.48559Q20.28123,8.47118,20.212989999999998,8.44291Q20.14474,8.41464,20.08332,8.3736Q20.021900000000002,8.33256,19.96967,8.28033Q19.91744,8.2281,19.8764,8.16668Q19.83536,8.10526,19.80709,8.03701Q19.77882,7.96877,19.764409999999998,7.896319999999999Q19.75,7.823869999999999,19.75,7.75Q19.75,7.02513,19.23744,6.51256Q18.72487,6,18,6L12,6Q11.9261315,6,11.853682,5.985589Q11.781233,5.971178,11.712987,5.94291Q11.644742,5.914641,11.583322,5.873602Q11.521903,5.832563,11.46967,5.78033Q11.417437,5.728097,11.376398,5.666678Q11.335359,5.605258,11.30709,5.537013Q11.278822,5.468767,11.264410999999999,5.396318Q11.25,5.3238685,11.25,5.25Q11.25,5.1761315,11.264410999999999,5.103682Q11.278822,5.031233,11.30709,4.962987Q11.335359,4.894742,11.376398,4.833322Q11.417437,4.771903,11.46967,4.71967Q11.521903,4.667437,11.583322,4.626398Q11.644742,4.585359,11.712987,4.55709Q11.781233,4.528822,11.853682,4.514411Q11.9261315,4.5,12,4.5Z" fill-rule="evenodd" fill="#231F2E" fill-opacity="1"/></g><g transform="matrix(-1,0,0,1,43.5,0)"><g><path d="M21.75,16.5Q23.3033,16.5,24.40165,17.598349Q25.499670000000002,18.69637,25.5,20.24907L25.5,20.25Q25.5,20.32387,25.485590000000002,20.39632Q25.47118,20.46877,25.44291,20.53701Q25.41464,20.60526,25.3736,20.66668Q25.33256,20.7281,25.28033,20.78033Q25.2281,20.83256,25.16668,20.8736Q25.10526,20.91464,25.03701,20.94291Q24.96877,20.97118,24.89632,20.985590000000002Q24.82387,21,24.75,21Q24.67613,21,24.60368,20.985590000000002Q24.53123,20.97118,24.46299,20.94291Q24.39474,20.91464,24.33332,20.8736Q24.2719,20.83256,24.21967,20.78033Q24.16744,20.7281,24.1264,20.66668Q24.08536,20.60526,24.05709,20.53701Q24.02882,20.46877,24.014409999999998,20.39632Q24,20.32387,24,20.25Q24,19.31802,23.34099,18.65901Q22.681981,18,21.75,18Q21.6761315,18,21.603682,17.985589Q21.531233,17.971178,21.462987,17.94291Q21.394742,17.914641,21.333322,17.873601999999998Q21.271903000000002,17.832563,21.21967,17.78033Q21.167437,17.728096999999998,21.126398000000002,17.666678Q21.085359,17.605258,21.05709,17.537013Q21.028822,17.468767,21.014411,17.396318Q21,17.3238685,21,17.25Q21,17.1761315,21.014411,17.103682Q21.028822,17.031233,21.05709,16.962987Q21.085359,16.894742,21.126398000000002,16.833322Q21.167437,16.771903000000002,21.21967,16.71967Q21.271903000000002,16.667437,21.333322,16.626398000000002Q21.394742,16.585359,21.462987,16.55709Q21.531233,16.528822,21.603682,16.514411Q21.6761315,16.5,21.75,16.5Z" fill-rule="evenodd" fill="#2882FF" fill-opacity="1"/></g><g><path d="M21.75,13.5Q24.54594,13.5,26.52297,15.47703Q28.49956,17.45361,28.5,20.248739999999998L28.5,20.25Q28.5,20.32387,28.485590000000002,20.39632Q28.47118,20.46877,28.44291,20.537010000000002Q28.41464,20.60526,28.3736,20.66668Q28.33256,20.7281,28.28033,20.78033Q28.2281,20.83256,28.16668,20.8736Q28.10526,20.91464,28.037010000000002,20.94291Q27.96877,20.97118,27.89632,20.985590000000002Q27.82387,21,27.75,21Q27.67613,21,27.60368,20.985590000000002Q27.53123,20.97118,27.462989999999998,20.94291Q27.39474,20.91464,27.33332,20.8736Q27.2719,20.83256,27.21967,20.78033Q27.16744,20.7281,27.1264,20.66668Q27.08536,20.60526,27.05709,20.537010000000002Q27.02882,20.46877,27.014409999999998,20.39632Q27,20.32387,27,20.25Q27,18.07538,25.46231,16.53769Q23.92462,15,21.75,15Q21.6761315,15,21.603682,14.985589000000001Q21.531233,14.971178,21.462987,14.94291Q21.394742,14.914641,21.333322,14.873602Q21.271903000000002,14.832563,21.21967,14.78033Q21.167437,14.728097,21.126398000000002,14.666678Q21.085359,14.605258,21.05709,14.537013Q21.028822,14.468767,21.014411,14.396318Q21,14.3238685,21,14.25Q21,14.1761315,21.014411,14.103682Q21.028822,14.031233,21.05709,13.962987Q21.085359,13.894742,21.126398000000002,13.833322Q21.167437,13.771903,21.21967,13.71967Q21.271903000000002,13.667437,21.333322,13.626398Q21.394742,13.585359,21.462987,13.55709Q21.531233,13.528822,21.603682,13.514410999999999Q21.6761315,13.5,21.75,13.5Z" fill-rule="evenodd" fill="#2882FF" fill-opacity="1"/></g><g><path d="M21.75,19.5Q21.6761315,19.5,21.603682,19.514411Q21.531233,19.528822,21.462987,19.55709Q21.394742,19.585359,21.333322,19.626398000000002Q21.271903000000002,19.667437,21.21967,19.71967Q21.167437,19.771903000000002,21.126398000000002,19.833322Q21.085359,19.894742,21.05709,19.962987Q21.028822,20.031233,21.014411,20.103682Q21,20.1761315,21,20.25Q21,20.3238685,21.014411,20.396318Q21.028822,20.468767,21.05709,20.537013Q21.085359,20.605258,21.126398000000002,20.666678Q21.167437,20.728096999999998,21.21967,20.78033Q21.271903000000002,20.832563,21.333322,20.873601999999998Q21.394742,20.914641,21.462987,20.94291Q21.531233,20.971178,21.603682,20.985589Q21.6761315,21,21.75,21L21.7600002,21Q21.8338688,21,21.906318,20.985589Q21.978767,20.971178,22.047013,20.94291Q22.115258,20.914641,22.176678,20.873601999999998Q22.238097,20.832563,22.29033,20.78033Q22.342563,20.728096999999998,22.383602,20.666678Q22.424641,20.605258,22.45291,20.537013Q22.481178,20.468767,22.495589,20.396318Q22.51,20.3238685,22.51,20.25Q22.51,20.1761315,22.495589,20.103682Q22.481178,20.031233,22.45291,19.962987Q22.424642,19.894742,22.383602,19.833322Q22.342563,19.771903000000002,22.29033,19.71967Q22.238097,19.667437,22.176678,19.626398000000002Q22.115258,19.585359,22.047013,19.55709Q21.978767,19.528822,21.906318,19.514411Q21.8338688,19.5,21.7600002,19.5L21.75,19.5Z" fill-rule="evenodd" fill="#2882FF" fill-opacity="1"/></g></g><g transform="matrix(0,1,1,0,-4.7415771484375,4.7415771484375)"><path d="M4.2403280859375,14.699285234375001L4.2401550859375,14.699455234375Q4.1291470859375,14.805575234374999,4.0687850859375,14.946785234375Q4.0084230859375,15.088005234375,4.0084230859375,15.241575234375Q4.0084230859375,15.315445234375,4.0228340859375,15.387895234375Q4.0372450859375,15.460345234375,4.0655130859375,15.528585234375Q4.0937820859375,15.596835234375,4.1348210859375,15.658255234375Q4.1758600859375,15.719675234375,4.2280930859375,15.771905234375Q4.2803260859375,15.824135234375,4.3417450859375,15.865175234375Q4.4031650859375,15.906215234375,4.4714100859375,15.934485234375Q4.5396560859375,15.962755234374999,4.6121050859375,15.977165234375Q4.6845542859375,15.991575234375,4.7584228559375,15.991575234375Q4.9032270859375,15.991575234375,5.0376240859375,15.937675234375Q5.1720210859375,15.883765234375,5.2766900859375,15.783705234374999L9.247458085937499,11.987665234375001Q9.462168085937499,11.782415234375,9.735298085937501,11.899165234375Q10.0084280859375,12.015905234375,10.0084280859375,12.312945234375L10.0084280859375,15.241575234375Q10.0084180859375,15.315445234375,10.0228380859375,15.387895234375Q10.037248085937499,15.460345234375,10.0655180859375,15.528585234375Q10.093778085937501,15.596835234375,10.1348180859375,15.658255234375Q10.175858085937499,15.719675234375,10.2280880859375,15.771905234375Q10.2803280859375,15.824135234375,10.3417480859375,15.865175234375Q10.4031580859375,15.906215234375,10.471408085937501,15.934485234375Q10.5396580859375,15.962755234374999,10.6121080859375,15.977165234375Q10.6845580859375,15.991575234375,10.7584180859375,15.991575234375Q10.832288085937499,15.991575234375,10.904738085937499,15.977165234375Q10.977188085937499,15.962755234374999,11.0454380859375,15.934485234375Q11.1136780859375,15.906215234375,11.175098085937499,15.865175234375Q11.236518085937501,15.824135234375,11.288748085937499,15.771905234375Q11.3409880859375,15.719675234375,11.382028085937499,15.658255234375Q11.4230680859375,15.596835234375,11.4513280859375,15.528585234375Q11.4795980859375,15.460345234375,11.4940080859375,15.387895234375Q11.5084180859375,15.315445234375,11.5084180859375,15.241575234375L11.5084180859375,12.312945234375Q11.5084180859375,11.695755234375,11.164498085937499,11.201095234375Q10.845648085937501,10.742495234375,10.3248680859375,10.519885234375Q9.8040980859375,10.297278234375,9.2522680859375,10.383706234375Q8.6570480859375,10.476929234375,8.2109280859375,10.903415234375L4.2403280859375,14.699285234375001Z" fill-rule="evenodd" fill="#2882FF" fill-opacity="1"/></g><g transform="matrix(0,1,1,0,-2,2)"><path d="M6.75,9.5Q6.75,9.4261315,6.764411,9.353682Q6.778822,9.281233,6.80709,9.212987Q6.835359,9.144742,6.876398,9.083322Q6.917437,9.021903,6.96967,8.96967Q7.021903,8.917437,7.083322,8.876398Q7.144742,8.835359,7.212987,8.80709Q7.281233,8.778822,7.353682,8.764410999999999Q7.4261315,8.75,7.5,8.75Q7.5738685,8.75,7.646318,8.764410999999999Q7.718767,8.778822,7.787013,8.80709Q7.855258,8.835359,7.916678,8.876398Q7.978097,8.917437,8.03033,8.96967Q8.082563,9.021903,8.123602,9.083322Q8.164641,9.144742,8.19291,9.212987Q8.221178,9.281233,8.235589000000001,9.353682Q8.25,9.4261315,8.25,9.5L8.25,11.75L10.5,11.75Q10.57387,11.75,10.64632,11.76441Q10.71877,11.77882,10.78701,11.80709Q10.85526,11.83536,10.91668,11.8764Q10.9781,11.91744,11.03033,11.96967Q11.08256,12.0219,11.1236,12.08332Q11.16464,12.14474,11.19291,12.21299Q11.22118,12.28123,11.23559,12.35368Q11.25,12.42613,11.25,12.5Q11.25,12.57387,11.23559,12.64632Q11.22118,12.71877,11.19291,12.78701Q11.16464,12.85526,11.1236,12.91668Q11.08256,12.9781,11.03033,13.03033Q10.9781,13.08256,10.91668,13.1236Q10.85526,13.16464,10.78701,13.19291Q10.71877,13.22118,10.64632,13.23559Q10.57387,13.25,10.5,13.25L7.5,13.25Q7.4261315,13.25,7.353682,13.23559Q7.281233,13.22118,7.212987,13.19291Q7.144742,13.16464,7.083322,13.1236Q7.021903,13.08256,6.96967,13.03033Q6.917437,12.9781,6.876398,12.91668Q6.835359,12.85526,6.80709,12.78701Q6.778822,12.71877,6.764411,12.64632Q6.75,12.57387,6.75,12.5L6.75,9.5Z" fill-rule="evenodd" fill="#2882FF" fill-opacity="1"/></g></g></svg>