<svg xmlns="http://www.w3.org/2000/svg" xmlns:xlink="http://www.w3.org/1999/xlink" fill="none" version="1.1" width="24" height="24" viewBox="0 0 24 24"><defs><clipPath id="master_svg0_69_15313"><rect x="0" y="0" width="24" height="24" rx="0"/></clipPath></defs><g clip-path="url(#master_svg0_69_15313)"><g><path d="M3.416025,6.375962L11.30662,11.63636Q12,12.09861,12.69337,11.63636L20.584,6.375962Q20.7729,6.25,21,6.25Q21.0739,6.25,21.1463,6.264411Q21.2188,6.278822,21.287,6.30709Q21.3553,6.335359,21.4167,6.376398Q21.4781,6.417437,21.5303,6.46967Q21.5826,6.521903,21.6236,6.583322Q21.6646,6.644742,21.6929,6.712987Q21.7212,6.781233,21.7356,6.853682Q21.75,6.9261315,21.75,7Q21.75,7.0926034,21.7275,7.182426Q21.705,7.272248,21.6613,7.353894Q21.6176,7.43554,21.5553,7.504106Q21.4931,7.572672,21.416,7.624039L21.415,7.624726L13.5254,12.88444Q12.83263,13.3463,12,13.3463Q11.16737,13.3463,10.47457,12.88444L2.583975,7.624038Q2.506924,7.572671,2.4446820000000002,7.504105Q2.38244,7.435539,2.338744,7.353893Q2.295048,7.272248,2.2725239999999998,7.182425Q2.25,7.0926032,2.25,7Q2.25,6.9261315,2.264411,6.853682Q2.278822,6.781233,2.30709,6.712987Q2.335359,6.644742,2.376398,6.583322Q2.417437,6.521903,2.46967,6.46967Q2.521903,6.417437,2.583322,6.376398Q2.644742,6.335359,2.712987,6.30709Q2.781233,6.278822,2.853682,6.264411Q2.9261315,6.25,3,6.25Q3.2270820000000002,6.25,3.416025,6.375962Z" fill-rule="evenodd" fill="#231F2E" fill-opacity="1"/></g><g><path d="M20.75,13.99831L20.75,14Q20.75,14.07387,20.7644,14.14632Q20.7788,14.21877,20.8071,14.28701Q20.8354,14.35526,20.8764,14.41668Q20.9174,14.4781,20.9697,14.5303Q21.0219,14.5826,21.0833,14.6236Q21.1447,14.6646,21.213,14.6929Q21.2812,14.7212,21.3537,14.7356Q21.4261,14.75,21.5,14.75Q21.5739,14.75,21.6463,14.7356Q21.7188,14.7212,21.787,14.6929Q21.8553,14.6646,21.9167,14.6236Q21.9781,14.5826,22.0303,14.5303Q22.0826,14.4781,22.1236,14.41668Q22.1646,14.35526,22.1929,14.28701Q22.2212,14.21877,22.2356,14.14632Q22.25,14.07387,22.25,14L22.25,7.5Q22.25,5.9467,21.1517,4.84835Q20.0533,3.75,18.5,3.75L5.5,3.75Q3.9467,3.75,2.848349,4.84835Q1.75,5.9467,1.75,7.5L1.75,16.5Q1.75,18.0533,2.84835,19.151600000000002Q3.9467,20.25,5.5,20.25L12,20.25Q12.07387,20.25,12.14632,20.235599999999998Q12.21877,20.2212,12.28701,20.1929Q12.35526,20.1646,12.41668,20.1236Q12.4781,20.0826,12.5303,20.0303Q12.5826,19.978099999999998,12.6236,19.9167Q12.6646,19.8553,12.6929,19.787Q12.7212,19.7188,12.7356,19.6463Q12.75,19.573900000000002,12.75,19.5Q12.75,19.426099999999998,12.7356,19.3537Q12.7212,19.2812,12.6929,19.213Q12.6646,19.1447,12.6236,19.0833Q12.5826,19.021900000000002,12.5303,18.9697Q12.4781,18.9174,12.41668,18.8764Q12.35526,18.8354,12.28701,18.8071Q12.21877,18.7788,12.14632,18.764400000000002Q12.07387,18.75,12,18.75L5.5,18.75Q4.568020000000001,18.75,3.9090100000000003,18.091Q3.25,17.432000000000002,3.25,16.5L3.25,7.5Q3.25,6.568020000000001,3.9090100000000003,5.90901Q4.568020000000001,5.25,5.5,5.25L18.5,5.25Q19.432,5.25,20.091,5.90901Q20.75,6.568020000000001,20.75,7.5L20.75,13.99831Z" fill-rule="evenodd" fill="#231F2E" fill-opacity="1"/></g><g><path d="M21.53033,17.03033Q21.63582,16.924841,21.69291,16.787013Q21.75,16.649184,21.75,16.5Q21.75,16.4261315,21.735590000000002,16.353682Q21.72118,16.281233,21.69291,16.212987Q21.66464,16.144742,21.6236,16.083322Q21.58256,16.021903000000002,21.53033,15.96967Q21.4781,15.917437,21.41668,15.876398Q21.35526,15.835359,21.287010000000002,15.80709Q21.21877,15.778822,21.14632,15.764410999999999Q21.07387,15.75,21,15.75Q20.85082,15.75,20.712989999999998,15.80709Q20.57516,15.864181,20.46967,15.96967L17,19.43934L15.530484,17.96982L15.53033,17.96967Q15.424841,17.86418,15.287013,17.80709Q15.149184,17.75,15,17.75Q14.9261315,17.75,14.853682,17.76441Q14.781233,17.77882,14.712987,17.80709Q14.644742,17.83536,14.583322,17.8764Q14.521903,17.91744,14.46967,17.96967Q14.417437,18.0219,14.376398,18.08332Q14.335359,18.14474,14.30709,18.21299Q14.278822,18.28123,14.264410999999999,18.35368Q14.25,18.42613,14.25,18.5Q14.25,18.64918,14.30709,18.78701Q14.364181,18.92484,14.46967,19.03033L16.46967,21.03033Q16.57516,21.13582,16.71299,21.19291Q16.85082,21.25,17,21.25Q17.14918,21.25,17.28701,21.19291Q17.42484,21.13582,17.53033,21.03033L21.53033,17.03033L21.53033,17.03033Z" fill-rule="evenodd" fill="#2882FF" fill-opacity="1" style="mix-blend-mode:passthrough"/></g></g></svg>