<svg xmlns="http://www.w3.org/2000/svg" xmlns:xlink="http://www.w3.org/1999/xlink" fill="none" version="1.1" width="24" height="24" viewBox="0 0 24 24"><defs><clipPath id="master_svg0_70_01782"><rect x="0" y="0" width="24" height="24" rx="0"/></clipPath></defs><g clip-path="url(#master_svg0_70_01782)"><g><path d="M7.249998371810913,18.75001287460327L6.0000183718109135,18.75001287460327Q4.446718371810913,18.75001287460327,3.348376371810913,17.651612874603273Q2.250030371810913,16.55331287460327,2.2500293718109132,15.000012874603271L2.250028371810913,7.000022874603271Q2.250028371810913,5.446722874603271,3.348377371810913,4.348368874603271Q4.446728371810913,3.2500188746032714,6.000028371810913,3.2500178746032713L18.000028371810913,3.2500138746032716Q19.553328371810913,3.2500128746032715,20.65162837181091,4.348365874603272Q21.750028371810913,5.446712874603271,21.750028371810913,7.000022874603271L21.749928371810913,15.000012874603271Q21.749928371810913,16.55331287460327,20.65162837181091,17.651612874603273Q19.553228371810913,18.75001287460327,18.000028371810913,18.75001287460327L13.207728371810914,18.75001287460327L8.385868371810913,21.643112874603272Q8.322528371810913,21.681112874603272,8.252988371810913,21.70601287460327Q8.183448371810913,21.73091287460327,8.110388371810913,21.741812874603273Q8.037318371810912,21.752712874603272,7.963538371810913,21.74911287460327Q7.889758371810913,21.74551287460327,7.818098371810913,21.72761287460327Q7.746438371810913,21.709712874603273,7.679648371810913,21.678112874603272Q7.612848371810913,21.64661287460327,7.553498371810913,21.60261287460327Q7.494148371810913,21.55861287460327,7.444518371810913,21.503912874603273Q7.3948883718109135,21.449212874603273,7.356878371810913,21.38591287460327Q7.249998371810913,21.20771287460327,7.249998371810913,21.00001287460327L7.249998371810913,18.75001287460327ZM8.749998371810914,18.00001287460327Q8.749998371810914,17.92611287460327,8.735588371810913,17.85371287460327Q8.721178371810913,17.78121287460327,8.692908371810912,17.713012874603272Q8.664638371810913,17.64471287460327,8.623598371810914,17.583312874603273Q8.582558371810913,17.521912874603274,8.530328371810914,17.46971287460327Q8.478098371810912,17.417412874603272,8.416678371810914,17.37641287460327Q8.355258371810912,17.33531287460327,8.287018371810912,17.30711287460327Q8.218768371810913,17.278812874603272,8.146318371810914,17.264412874603273Q8.073868371810914,17.25001287460327,7.999998371810913,17.25001287460327L6.000028371810913,17.25001287460327Q5.068048371810914,17.25001287460327,4.409038371810913,16.591012874603273Q3.750030371810913,15.932012874603272,3.7500293718109132,15.000012874603271L3.750028371810913,7.000022874603271Q3.750028371810913,6.068042874603272,4.409038371810913,5.409032874603271Q5.068048371810914,4.750017874603271,6.000028371810913,4.750017874603271L18.000028371810913,4.750013874603272Q18.931928371810912,4.750013874603272,19.591028371810914,5.409022874603272Q20.250028371810913,6.068032874603272,20.250028371810913,7.000022874603271L20.249928371810913,15.000012874603271Q20.249928371810913,15.932012874603272,19.590928371810914,16.591012874603273Q18.931928371810912,17.25001287460327,18.000028371810913,17.25001287460327L12.999998371810912,17.25001287460327Q12.792258371810913,17.25001287460327,12.614128371810914,17.35691287460327L8.749998371810914,19.67531287460327L8.749998371810914,18.00001287460327Z" fill-rule="evenodd" fill="#231F2E" fill-opacity="1"/></g><g><path d="M12.000029999999999,7.48876953125C9.79081,7.48876953125,8,9.27957953125,8,11.488799531249999C8,13.69795953125,9.79081,15.48876953125,12.000029999999999,15.48876953125C14.20919,15.48876953125,16,13.69795953125,16,11.488799531249999C16,9.27957953125,14.20919,7.48876953125,12.000029999999999,7.48876953125ZM13.8483,10.95309953125C13.84029,10.98786953125,13.8195,11.03944953125,13.79071,11.10101953125L13.791509999999999,11.10101953125L13.7883,11.10700953125Q13.62033,11.465989531249999,13.18201,12.17035953125L13.18003,12.16554953125L13.05203,12.38861953125L13.66912,12.38861953125L12.49019,13.95527953125L12.75811,12.88952953125L12.272210000000001,12.88952953125L12.44099,12.18476953125C12.30464,12.21755953125,12.14304,12.26269953125,11.95189,12.32425953125Q11.693529999999999,12.47538953125,11.20725,12.03326953125Q10.8793,11.74421953125,11.06969,11.67226953125C11.15047,11.64150953125,11.46199,11.60230953125,11.707139999999999,11.56952953125Q12.03906,11.52476953125,12.242609999999999,11.50078953125Q11.220839999999999,11.51596953125,10.97849,11.47798953125C10.73612,11.44001953125,10.428609999999999,11.03544953125,10.36301,10.680049531249999Q10.26183,10.48496953125,10.58098,10.57730953125Q10.90012,10.66967953125,12.22102,10.93711953125Q10.5034,10.41063953125,10.3886,10.28188953125C10.27423,10.15397953125,10.05229,9.580709531250001,10.08108,9.22894953125Q10.09349,9.14098953125,10.18387,9.16495953125Q11.453990000000001,9.74463953125,12.32221,10.06243953125C13.19083,10.38024953125,13.94586,10.54174953125,13.8483,10.95309953125Z" fill="#2882FF" fill-opacity="1" style="mix-blend-mode:passthrough"/></g></g></svg>