<svg xmlns="http://www.w3.org/2000/svg" xmlns:xlink="http://www.w3.org/1999/xlink" fill="none" version="1.1" width="24" height="24" viewBox="0 0 24 24"><defs><clipPath id="master_svg0_72_04907"><rect x="0" y="0" width="24" height="24" rx="0"/></clipPath></defs><g clip-path="url(#master_svg0_72_04907)"><g><g><g><path d="M2.25,15.75L2.25,7.25L8.550049999999999,7.25L8.550049999999999,15.75L2.25,15.75ZM7.05005,8.75L3.75,8.75L3.75,14.25L7.05005,14.25L7.05005,8.75Z" fill-rule="evenodd" fill="#736F78" fill-opacity="1"/></g><g><path d="M7.050048828125,19.75L7.050048828125,14.25L17.050048828125,14.25L17.050048828125,19.75L7.050048828125,19.75ZM15.550048828125,15.75L8.550048828125,15.75L8.550048828125,18.25L15.550048828125,18.25L15.550048828125,15.75Z" fill-rule="evenodd" fill="#736F78" fill-opacity="1"/></g><g><path d="M15.550048828125,15.75L15.550048828125,7.25L21.749998828125,7.25L21.749998828125,15.75L15.550048828125,15.75ZM20.249998828125,8.75L17.050048828125,8.75L17.050048828125,14.25L20.249998828125,14.25L20.249998828125,8.75Z" fill-rule="evenodd" fill="#736F78" fill-opacity="1"/></g><g><path d="M7.050048828125,8.75L7.050048828125,3.25L17.050048828125,3.25L17.050048828125,8.75L7.050048828125,8.75ZM15.550048828125,4.75L8.550048828125,4.75L8.550048828125,7.25L15.550048828125,7.25L15.550048828125,4.75Z" fill-rule="evenodd" fill="#736F78" fill-opacity="1"/></g><g><path d="M7.800048828125,8L7.800048828125,15L16.300048828125,15L16.300048828125,8L7.800048828125,8Z" fill="#2882FF" fill-opacity="0.20000000298023224"/><path d="M7.050048828125,15.75L7.050048828125,7.25L17.050048828125,7.25L17.050048828125,15.75L7.050048828125,15.75ZM15.550048828125,8.75L8.550048828125,8.75L8.550048828125,14.25L15.550048828125,14.25L15.550048828125,8.75Z" fill-rule="evenodd" fill="#2882FF" fill-opacity="1"/></g></g><g><path d="M20.25,5.5L20.25,14.5Q20.25,14.5739,20.2644,14.6463Q20.2788,14.7188,20.3071,14.787Q20.3354,14.8553,20.3764,14.9167Q20.4174,14.9781,20.4697,15.0303Q20.5219,15.0826,20.5833,15.1236Q20.6447,15.1646,20.713,15.1929Q20.7812,15.2212,20.8537,15.2356Q20.9261,15.25,21,15.25Q21.0739,15.25,21.1463,15.2356Q21.2188,15.2212,21.287,15.1929Q21.3553,15.1646,21.4167,15.1236Q21.4781,15.0826,21.5303,15.0303Q21.5826,14.9781,21.6236,14.9167Q21.6646,14.8553,21.6929,14.787Q21.7212,14.7188,21.7356,14.6463Q21.75,14.5739,21.75,14.5L21.75,14.4983L21.75,5.5Q21.75,4.56802,21.091,3.9090098Q20.432,3.25,19.5,3.25L4.5,3.25Q3.5680199999999997,3.25,2.90901,3.9090098Q2.25,4.568019,2.25,5.5L2.25,17.5Q2.25,18.432000000000002,2.90901,19.091Q3.568019,19.75,4.5,19.75L17.5,19.75Q17.573900000000002,19.75,17.6463,19.735599999999998Q17.7188,19.7212,17.787,19.6929Q17.8553,19.6646,17.9167,19.6236Q17.978099999999998,19.5826,18.0303,19.5303Q18.0826,19.478099999999998,18.1236,19.4167Q18.1646,19.3553,18.1929,19.287Q18.2212,19.2188,18.235599999999998,19.1463Q18.25,19.073900000000002,18.25,19Q18.25,18.926099999999998,18.235599999999998,18.8537Q18.2212,18.7812,18.1929,18.713Q18.1646,18.6447,18.1236,18.5833Q18.0826,18.521900000000002,18.0303,18.4697Q17.978099999999998,18.4174,17.9167,18.3764Q17.8553,18.3354,17.787,18.3071Q17.7188,18.2788,17.6463,18.264400000000002Q17.573900000000002,18.25,17.5,18.25L4.5,18.25Q3.75,18.25,3.75,17.5L3.75,5.5Q3.75,5.18934,3.96967,4.96967Q4.18934,4.75,4.5,4.75L19.5,4.75Q19.8107,4.75,20.0303,4.96967Q20.25,5.18934,20.25,5.5Z" fill-rule="evenodd" fill="#231F2E" fill-opacity="1"/></g></g><g><g><ellipse cx="18.75" cy="18.75" rx="4.75" ry="4.75" fill="#FFFFFF" fill-opacity="1"/><path d="M23.5,18.75Q23.5,18.86661,23.49428,18.983069999999998Q23.48856,19.09954,23.477130000000002,19.21558Q23.4657,19.33163,23.44859,19.44697Q23.43148,19.56231,23.40873,19.67668Q23.38598,19.79104,23.35765,19.90415Q23.32931,20.01727,23.29547,20.12885Q23.26162,20.24044,23.22233,20.35023Q23.18305,20.46002,23.13843,20.56775Q23.0938,20.67547,23.043950000000002,20.78089Q22.99409,20.8863,22.939120000000003,20.98913Q22.88416,21.09197,22.82421,21.19199Q22.76426,21.292,22.69948,21.38896Q22.634700000000002,21.48591,22.56523,21.57957Q22.49577,21.67323,22.421799999999998,21.763370000000002Q22.34782,21.8535,22.26952,21.9399Q22.191209999999998,22.0263,22.10876,22.10876Q22.0263,22.191209999999998,21.9399,22.26952Q21.8535,22.34782,21.763370000000002,22.421799999999998Q21.67323,22.49577,21.57957,22.56523Q21.48591,22.634700000000002,21.38896,22.69948Q21.292,22.76426,21.19199,22.82421Q21.09197,22.88416,20.98913,22.93913Q20.8863,22.99409,20.78089,23.043950000000002Q20.67547,23.0938,20.56775,23.13843Q20.46002,23.18305,20.35023,23.22233Q20.24044,23.26162,20.12885,23.29547Q20.01727,23.32931,19.90415,23.35765Q19.79104,23.38598,19.67668,23.40873Q19.56231,23.43148,19.44697,23.44859Q19.33163,23.4657,19.21558,23.477130000000002Q19.09954,23.48856,18.983069999999998,23.49428Q18.86661,23.5,18.75,23.5Q18.63339,23.5,18.516930000000002,23.49428Q18.40046,23.48856,18.28442,23.477130000000002Q18.16837,23.4657,18.05303,23.44859Q17.93769,23.43148,17.82332,23.40873Q17.70896,23.38598,17.59584,23.35765Q17.48273,23.32931,17.37115,23.29547Q17.25956,23.26162,17.14977,23.22233Q17.03998,23.18305,16.93225,23.13843Q16.82452,23.0938,16.71911,23.043950000000002Q16.6137,22.99409,16.51087,22.939120000000003Q16.40803,22.88416,16.30801,22.82421Q16.208,22.76426,16.11104,22.69948Q16.01409,22.634700000000002,15.92043,22.56523Q15.82677,22.49577,15.73663,22.421799999999998Q15.64649,22.34782,15.5601,22.26952Q15.473700000000001,22.191209999999998,15.39124,22.10876Q15.30879,22.0263,15.23048,21.9399Q15.15217,21.8535,15.0782,21.763370000000002Q15.00423,21.67323,14.934764,21.57957Q14.865302,21.48591,14.800519,21.38896Q14.735736,21.292,14.675789,21.19199Q14.615842,21.09197,14.560874,20.98913Q14.505906,20.8863,14.456051,20.78089Q14.406195,20.67547,14.361572,20.56775Q14.316949,20.46002,14.277666,20.35023Q14.238382,20.24044,14.204533,20.12885Q14.170684,20.01727,14.142352,19.90415Q14.114019,19.79104,14.0912699,19.67668Q14.0685212,19.56231,14.0514116,19.44697Q14.0343019,19.33163,14.0228725,19.21558Q14.0114432,19.09954,14.00572158,18.983069999999998Q14,18.86661,14,18.75Q14,18.63339,14.00572158,18.516930000000002Q14.0114432,18.40046,14.0228725,18.28442Q14.0343019,18.16837,14.0514116,18.05303Q14.0685212,17.93769,14.0912699,17.82332Q14.114019,17.70896,14.142352,17.59584Q14.170684,17.48273,14.204533,17.37115Q14.238382,17.25956,14.277666,17.14977Q14.316949,17.03998,14.361572,16.93225Q14.406195,16.82452,14.456051,16.71911Q14.505906,16.6137,14.560874,16.51087Q14.615842,16.40803,14.675789,16.30801Q14.735736,16.208,14.800519,16.11104Q14.865302,16.01409,14.934764,15.92043Q15.00423,15.82677,15.0782,15.73663Q15.15217,15.64649,15.23048,15.5601Q15.30879,15.473700000000001,15.39124,15.39124Q15.473700000000001,15.30879,15.56009,15.23048Q15.64649,15.15217,15.73663,15.0782Q15.82677,15.00423,15.92043,14.934764Q16.01409,14.865302,16.11104,14.800519Q16.208,14.735736,16.30801,14.675789Q16.40803,14.615842,16.51087,14.560874Q16.6137,14.505906,16.71911,14.456051Q16.82452,14.406195,16.93225,14.361572Q17.03998,14.316949,17.14977,14.277666Q17.25956,14.238382,17.37115,14.204533Q17.48273,14.170684,17.59584,14.142352Q17.70896,14.114019,17.82332,14.0912699Q17.93769,14.0685212,18.05303,14.0514116Q18.16837,14.0343019,18.28442,14.0228725Q18.40046,14.0114432,18.516930000000002,14.00572158Q18.63339,14,18.75,14Q18.86661,14,18.983069999999998,14.00572158Q19.09954,14.0114432,19.21558,14.0228725Q19.33163,14.0343019,19.44697,14.0514116Q19.56231,14.0685212,19.67668,14.0912699Q19.79104,14.114019,19.90415,14.142352Q20.01727,14.170684,20.12885,14.204533Q20.24044,14.238382,20.35023,14.277666Q20.46002,14.316949,20.56775,14.361572Q20.67547,14.406195,20.78089,14.456051Q20.8863,14.505906,20.98913,14.560874Q21.09197,14.615842,21.19199,14.675789Q21.292,14.735736,21.38896,14.800519Q21.48591,14.865302,21.57957,14.934764Q21.67323,15.00423,21.763370000000002,15.0782Q21.8535,15.15217,21.9399,15.23048Q22.0263,15.30879,22.10876,15.39124Q22.191209999999998,15.473700000000001,22.26952,15.56009Q22.34782,15.64649,22.421799999999998,15.73663Q22.49577,15.82677,22.56523,15.92043Q22.634700000000002,16.01409,22.69948,16.11104Q22.76426,16.208,22.82421,16.30801Q22.88416,16.40803,22.93913,16.51087Q22.99409,16.6137,23.043950000000002,16.71911Q23.0938,16.82452,23.13843,16.93225Q23.18305,17.03998,23.22233,17.14977Q23.26162,17.25956,23.29547,17.37115Q23.32931,17.48273,23.35765,17.59584Q23.38598,17.70896,23.40873,17.82332Q23.43148,17.93769,23.44859,18.05303Q23.4657,18.16837,23.477130000000002,18.28442Q23.48856,18.40046,23.49428,18.516930000000002Q23.5,18.63339,23.5,18.75ZM22.5,18.75Q22.5,18.56577,22.48194,18.38244Q22.46388,18.1991,22.42794,18.01841Q22.392,17.83773,22.338520000000003,17.66143Q22.28505,17.48514,22.21455,17.31494Q22.14405,17.14473,22.057209999999998,16.98226Q21.97036,16.81979,21.868009999999998,16.66661Q21.76566,16.51343,21.648789999999998,16.37103Q21.53192,16.22862,21.40165,16.09835Q21.27138,15.96808,21.12897,15.85121Q20.98657,15.73434,20.83339,15.63199Q20.68021,15.52964,20.51774,15.4428Q20.35527,15.35595,20.18506,15.28545Q20.01486,15.21495,19.83857,15.16147Q19.66227,15.108,19.48159,15.07206Q19.3009,15.03611,19.11756,15.01806Q18.93423,15,18.75,15Q18.56577,15,18.38244,15.01806Q18.1991,15.03611,18.01841,15.07206Q17.83773,15.108,17.66143,15.16147Q17.48514,15.21495,17.31494,15.28545Q17.14473,15.35595,16.98226,15.4428Q16.81979,15.52964,16.66661,15.63199Q16.51343,15.73434,16.37103,15.85121Q16.22862,15.96808,16.09835,16.09835Q15.96808,16.22862,15.85121,16.37103Q15.73434,16.51343,15.63199,16.66661Q15.52964,16.81979,15.4428,16.98226Q15.35595,17.14473,15.28545,17.31494Q15.21495,17.48514,15.16147,17.66143Q15.108,17.83773,15.07206,18.01841Q15.03611,18.1991,15.01806,18.38244Q15,18.56577,15,18.75Q15,18.93423,15.01806,19.11756Q15.03611,19.3009,15.07205,19.48159Q15.108,19.66227,15.16147,19.83857Q15.21495,20.01486,15.28545,20.18506Q15.35595,20.35526,15.4428,20.51774Q15.52964,20.68021,15.63199,20.83339Q15.73434,20.98657,15.85121,21.12897Q15.96808,21.27138,16.09835,21.40165Q16.22862,21.53192,16.37103,21.648789999999998Q16.51343,21.76566,16.66661,21.868009999999998Q16.81979,21.97036,16.98226,22.0572Q17.14473,22.14405,17.31494,22.21455Q17.48514,22.28505,17.66143,22.33853Q17.83773,22.392,18.01841,22.42794Q18.1991,22.46388,18.38244,22.48194Q18.56577,22.5,18.75,22.5Q18.93423,22.5,19.11756,22.48194Q19.3009,22.46388,19.48159,22.42794Q19.66227,22.392,19.83857,22.338520000000003Q20.01486,22.28505,20.18506,22.21455Q20.35526,22.14405,20.51774,22.057209999999998Q20.68021,21.97036,20.83339,21.868009999999998Q20.98657,21.76566,21.12897,21.648789999999998Q21.27138,21.53192,21.40165,21.40165Q21.53192,21.27138,21.648789999999998,21.12897Q21.76566,20.98657,21.868009999999998,20.83339Q21.97036,20.68021,22.0572,20.51774Q22.14405,20.35527,22.21455,20.18506Q22.28505,20.01486,22.33853,19.83857Q22.392,19.66227,22.42794,19.48159Q22.46388,19.3009,22.48194,19.11756Q22.5,18.93423,22.5,18.75Z" fill="#FFFFFF" fill-opacity="1"/></g><g><g><path d="M20.490513698387147,17.007486468684387Q19.768743698387148,16.285714268684387,18.748003698387144,16.285714268684387Q17.727258698387146,16.285714268684387,17.005486398387145,17.007486468684387Q16.283713698387146,17.729259268684388,16.283713698387146,18.750004268684386Q16.283713698387146,19.77074426868439,17.005486398387145,20.49251426868439Q17.727258698387146,21.214284268684388,18.748003698387144,21.214284268684388Q19.768743698387148,21.214284268684388,20.490513698387147,20.49251426868439Q21.212283698387147,19.77074426868439,21.212283698387147,18.750004268684386Q21.212283698387147,17.729259268684388,20.490513698387147,17.007486468684387ZM18.066143698387148,18.06814426868439Q18.348583698387145,17.785714268684387,18.748003698387144,17.785714268684387Q19.147423698387147,17.785714268684387,19.429853698387145,18.06814426868439Q19.712283698387147,18.350584268684386,19.712283698387147,18.750004268684386Q19.712283698387147,19.14942426868439,19.429853698387145,19.431854268684386Q19.147423698387147,19.714284268684388,18.748003698387144,19.714284268684388Q18.348583698387145,19.714284268684388,18.066143698387148,19.431854268684386Q17.783713698387146,19.14942426868439,17.783713698387146,18.750004268684386Q17.783713698387146,18.350584268684386,18.066143698387148,18.06814426868439Z" fill-rule="evenodd" fill="#2882FF" fill-opacity="1" style="mix-blend-mode:passthrough"/></g><g><path d="M19.49799942970276,15.75L19.49799942970276,17.03571Q19.49799942970276,17.10958,19.48358842970276,17.18203Q19.469177429702757,17.25448,19.44090942970276,17.32273Q19.41264042970276,17.39097,19.371601429702757,17.45239Q19.33056242970276,17.51381,19.278329429702758,17.56604Q19.226096429702757,17.61828,19.16467742970276,17.65932Q19.103257429702758,17.70036,19.03501242970276,17.72862Q18.96676642970276,17.75689,18.89431742970276,17.7713Q18.82186792970276,17.78571,18.74799942970276,17.78571Q18.67413092970276,17.78571,18.601681429702758,17.7713Q18.52923242970276,17.75689,18.460986429702757,17.72862Q18.39274142970276,17.70036,18.331321429702758,17.65932Q18.26990242970276,17.61828,18.21766942970276,17.56604Q18.16543642970276,17.51381,18.12439742970276,17.45239Q18.08335842970276,17.39097,18.055089429702758,17.32273Q18.02682142970276,17.25448,18.012410429702758,17.18203Q17.99799942970276,17.10958,17.99799942970276,17.03571L17.99799942970276,15.75Q17.99799942970276,15.6761315,18.012410429702758,15.603682Q18.02682142970276,15.531233,18.055089429702758,15.462987Q18.08335842970276,15.394742,18.12439742970276,15.333322Q18.16543642970276,15.271903,18.21766942970276,15.21967Q18.26990242970276,15.167437,18.331321429702758,15.126398Q18.39274142970276,15.085359,18.460986429702757,15.05709Q18.52923242970276,15.028822,18.601681429702758,15.014410999999999Q18.67413092970276,15,18.74799942970276,15Q18.82186792970276,15,18.89431742970276,15.014410999999999Q18.96676642970276,15.028822,19.03501242970276,15.05709Q19.103257429702758,15.085359,19.16467742970276,15.126398Q19.226096429702757,15.167437,19.278329429702758,15.21967Q19.33056242970276,15.271903,19.371601429702757,15.333322Q19.41264042970276,15.394742,19.44090942970276,15.462987Q19.469177429702757,15.531233,19.48358842970276,15.603682Q19.49799942970276,15.6761315,19.49799942970276,15.75Z" fill-rule="evenodd" fill="#2882FF" fill-opacity="1" style="mix-blend-mode:passthrough"/></g><g><path d="M19.49799942970276,20.464285850524902L19.49799942970276,21.749995850524904Q19.49799942970276,21.823865850524903,19.48358842970276,21.896315850524903Q19.469177429702757,21.968765850524903,19.44090942970276,22.037015850524902Q19.41264042970276,22.1052558505249,19.371601429702757,22.166675850524904Q19.33056242970276,22.228095850524902,19.278329429702758,22.280325850524903Q19.226096429702757,22.3325658505249,19.16467742970276,22.373605850524903Q19.103257429702758,22.414645850524902,19.03501242970276,22.4429058505249Q18.96676642970276,22.4711758505249,18.89431742970276,22.485585850524902Q18.82186792970276,22.499995850524904,18.74799942970276,22.499995850524904Q18.67413092970276,22.499995850524904,18.601681429702758,22.485585850524902Q18.52923242970276,22.4711758505249,18.460986429702757,22.4429058505249Q18.39274142970276,22.414645850524902,18.331321429702758,22.373605850524903Q18.26990242970276,22.3325658505249,18.21766942970276,22.280325850524903Q18.16543642970276,22.228095850524902,18.12439742970276,22.166675850524904Q18.08335842970276,22.1052558505249,18.055089429702758,22.037015850524902Q18.02682142970276,21.968765850524903,18.012410429702758,21.896315850524903Q17.99799942970276,21.823865850524903,17.99799942970276,21.749995850524904L17.99799942970276,20.464285850524902Q17.99799942970276,20.390417350524903,18.012410429702758,20.3179678505249Q18.02682142970276,20.245518850524903,18.055089429702758,20.1772728505249Q18.08335842970276,20.109027850524903,18.12439742970276,20.0476078505249Q18.16543642970276,19.986188850524904,18.21766942970276,19.933955850524903Q18.26990242970276,19.881722850524902,18.331321429702758,19.840683850524904Q18.39274142970276,19.799644850524903,18.460986429702757,19.7713758505249Q18.52923242970276,19.743107850524904,18.601681429702758,19.7286968505249Q18.67413092970276,19.714285850524902,18.74799942970276,19.714285850524902Q18.82186792970276,19.714285850524902,18.89431742970276,19.7286968505249Q18.96676642970276,19.743107850524904,19.03501242970276,19.7713758505249Q19.103257429702758,19.799644850524903,19.16467742970276,19.840683850524904Q19.226096429702757,19.881722850524902,19.278329429702758,19.933955850524903Q19.33056242970276,19.986188850524904,19.371601429702757,20.0476078505249Q19.41264042970276,20.109027850524903,19.44090942970276,20.1772728505249Q19.469177429702757,20.245518850524903,19.48358842970276,20.3179678505249Q19.49799942970276,20.390417350524903,19.49799942970276,20.464285850524902Z" fill-rule="evenodd" fill="#2882FF" fill-opacity="1" style="mix-blend-mode:passthrough"/></g><g><path d="M21.72101112503052,17.899514Q21.806521125030518,17.850144,21.876331125030518,17.780325Q21.946151125030518,17.710506,21.995521125030518,17.624996Q22.044891125030517,17.539486,22.070441125030516,17.444112Q22.09600112503052,17.3487382,22.09600112503052,17.25Q22.09600112503052,17.1761315,22.081591125030517,17.103682Q22.06718112503052,17.031233,22.038911125030516,16.962987Q22.010641125030517,16.894742,21.96960112503052,16.833322Q21.92856112503052,16.771903000000002,21.876331125030518,16.71967Q21.824101125030516,16.667437,21.762681125030518,16.626398000000002Q21.701261125030516,16.585359,21.633011125030517,16.55709Q21.564771125030518,16.528822,21.492321125030518,16.514411Q21.419871125030518,16.5,21.34600112503052,16.5Q21.145032125030518,16.5,20.97099112503052,16.600486L19.857563125030516,17.24334283Q19.772054125030518,17.292713,19.702236125030517,17.362532Q19.63241812503052,17.432351,19.583049125030517,17.517861Q19.53368112503052,17.603371,19.50812612503052,17.698745Q19.482571125030518,17.794119,19.482571125030518,17.892857Q19.482571125030518,17.966726,19.496982125030517,18.039175Q19.51139312503052,18.111624,19.539661125030516,18.17987Q19.567930125030518,18.248115,19.60896912503052,18.30953Q19.650008125030517,18.37095,19.70224112503052,18.423189999999998Q19.75447412503052,18.47542,19.815893125030517,18.51646Q19.87731312503052,18.5575,19.945558125030516,18.58577Q20.013804125030518,18.61403,20.086253125030517,18.62845Q20.158702625030518,18.64286,20.232571125030518,18.64286Q20.433538125030516,18.64286,20.60757912503052,18.54237L21.72101112503052,17.899514L21.72101112503052,17.899514Z" fill-rule="evenodd" fill="#2882FF" fill-opacity="1" style="mix-blend-mode:passthrough"/></g><g><path d="M17.639080095367433,20.25678192526245Q17.72463009536743,20.20742492526245,17.794490095367433,20.13759992526245Q17.86435009536743,20.067775925262453,17.91374009536743,19.98224692526245Q17.963140095367432,19.89671792526245,17.98871009536743,19.801314925262453Q18.014290095367432,19.705912825262452,18.014290095367432,19.60714292526245Q18.014290095367432,19.53327442526245,17.99987009536743,19.46082492526245Q17.985460095367433,19.38837592526245,17.957200095367433,19.32012992526245Q17.92893009536743,19.251884925262452,17.887890095367432,19.19046492526245Q17.846850095367433,19.129045925262453,17.79462009536743,19.076812925262452Q17.74238009536743,19.02457992526245,17.680960095367432,18.983540925262453Q17.61954009536743,18.94250192526245,17.55130009536743,18.91423292526245Q17.48305009536743,18.885964925262453,17.410600095367432,18.87155392526245Q17.338150095367432,18.85714292526245,17.264290095367432,18.85714292526245Q17.063453095367432,18.85714292526245,16.889494095367432,18.95750392526245L16.889352095367432,18.95758592526245L15.775265095367432,19.60032833526245L15.775208095367432,19.60036084526245Q15.689655095367431,19.649718425262453,15.619797095367431,19.719542925262452Q15.549940095367432,19.789366925262453,15.500541095367431,19.87489592526245Q15.451142095367432,19.96042492526245,15.425571095367431,20.055827925262452Q15.400000095367432,20.151229925262452,15.400000095367432,20.24999992526245Q15.400000095367432,20.323868925262452,15.41441109536743,20.39631792526245Q15.428822095367432,20.46876692526245,15.457090095367432,20.537012925262452Q15.485359095367432,20.60525792526245,15.526398095367432,20.66667292526245Q15.567437095367431,20.72809292526245,15.619670095367432,20.78033292526245Q15.671903095367432,20.83256292526245,15.733322095367432,20.87360292526245Q15.794742095367432,20.914642925262452,15.862987095367432,20.94291292526245Q15.931233095367432,20.97117292526245,16.00368209536743,20.985592925262452Q16.076131595367432,21.00000292526245,16.15000009536743,21.00000292526245Q16.35083309536743,21.00000292526245,16.52479209536743,20.89964292526245L17.639080095367433,20.25678192526245Z" fill-rule="evenodd" fill="#2882FF" fill-opacity="1" style="mix-blend-mode:passthrough"/></g><g><path d="M15.775351095367432,17.899722L15.775208095367432,17.899639Q15.689655095367431,17.850282,15.619797095367431,17.780458Q15.549940095367432,17.710633,15.500541095367431,17.625104Q15.451142095367432,17.539575,15.425571095367431,17.444172000000002Q15.400000095367432,17.3487699,15.400000095367432,17.25Q15.400000095367432,17.1761315,15.41441109536743,17.103682Q15.428822095367432,17.031233,15.457090095367432,16.962987Q15.485359095367432,16.894742,15.526398095367432,16.833322Q15.567437095367431,16.771903000000002,15.619670095367432,16.71967Q15.671903095367432,16.667437,15.733322095367432,16.626398000000002Q15.794742095367432,16.585359,15.862987095367432,16.55709Q15.931233095367432,16.528822,16.00368209536743,16.514411Q16.076131595367432,16.5,16.15000009536743,16.5Q16.35083309536743,16.5,16.52479209536743,16.600361L16.52493409536743,16.600443L17.639080095367433,17.24321792Q17.72463009536743,17.2925755,17.794490095367433,17.3624Q17.86435009536743,17.432224,17.91374009536743,17.517753Q17.963140095367432,17.603282,17.98871009536743,17.698685Q18.014290095367432,17.794087,18.014290095367432,17.892857Q18.014290095367432,17.966726,17.99987009536743,18.039175Q17.985460095367433,18.111624,17.957200095367433,18.17987Q17.92893009536743,18.248115,17.887890095367432,18.30953Q17.846850095367433,18.37095,17.79462009536743,18.423189999999998Q17.74238009536743,18.47542,17.680960095367432,18.51646Q17.61954009536743,18.5575,17.55130009536743,18.58577Q17.48305009536743,18.61403,17.410600095367432,18.62845Q17.338150095367432,18.64286,17.264290095367432,18.64286Q17.063453095367432,18.64286,16.889494095367432,18.5425L15.775351095367432,17.899722Z" fill-rule="evenodd" fill="#2882FF" fill-opacity="1" style="mix-blend-mode:passthrough"/></g><g><path d="M19.857922125030516,20.25686492526245L19.85777912503052,20.25678192526245Q19.772226125030517,20.20742492526245,19.702368125030517,20.13760092526245Q19.63251112503052,20.067775925262453,19.583112125030517,19.98224692526245Q19.533713125030516,19.89671792526245,19.508142125030517,19.801314925262453Q19.482571125030518,19.705912825262452,19.482571125030518,19.60714292526245Q19.482571125030518,19.53327442526245,19.496982125030517,19.46082492526245Q19.51139312503052,19.38837592526245,19.539661125030516,19.32012992526245Q19.567930125030518,19.251884925262452,19.60896912503052,19.19046492526245Q19.650008125030517,19.129045925262453,19.70224112503052,19.076812925262452Q19.75447412503052,19.02457992526245,19.815893125030517,18.983540925262453Q19.87731312503052,18.94250192526245,19.945558125030516,18.91423292526245Q20.013804125030518,18.885964925262453,20.086253125030517,18.87155392526245Q20.158702625030518,18.85714292526245,20.232571125030518,18.85714292526245Q20.433404125030517,18.85714292526245,20.607363125030517,18.95750392526245L20.607505125030517,18.95758592526245L21.72165112503052,19.60036084526245Q21.807201125030517,19.649718425262453,21.87706112503052,19.719542925262452Q21.946921125030517,19.789366925262453,21.996311125030516,19.87489592526245Q22.045711125030518,19.96042492526245,22.071281125030517,20.055827925262452Q22.096861125030518,20.151229925262452,22.096861125030518,20.24999992526245Q22.096861125030518,20.323868925262452,22.082441125030517,20.39631792526245Q22.06803112503052,20.46876692526245,22.03977112503052,20.537012925262452Q22.011501125030517,20.60525792526245,21.970461125030518,20.66667292526245Q21.92942112503052,20.72809292526245,21.877191125030517,20.78033292526245Q21.824951125030516,20.83256292526245,21.763531125030518,20.87360292526245Q21.702111125030516,20.914642925262452,21.633871125030517,20.94291292526245Q21.565621125030518,20.97117292526245,21.493171125030518,20.985592925262452Q21.420721125030518,21.00000292526245,21.346861125030518,21.00000292526245Q21.146024125030518,21.00000292526245,20.972065125030518,20.89964292526245L19.857922125030516,20.25686492526245Z" fill-rule="evenodd" fill="#2882FF" fill-opacity="1" style="mix-blend-mode:passthrough"/></g></g></g></g></svg>