<svg xmlns="http://www.w3.org/2000/svg" xmlns:xlink="http://www.w3.org/1999/xlink" fill="none" version="1.1" width="24" height="24" viewBox="0 0 24 24"><defs><clipPath id="master_svg0_74_12668"><rect x="0" y="0" width="24" height="24" rx="0"/></clipPath></defs><g clip-path="url(#master_svg0_74_12668)"><g><path d="M7.249998371810913,18.75001287460327L6.0000183718109135,18.75001287460327Q4.446718371810913,18.75001287460327,3.348376371810913,17.651612874603273Q2.250030371810913,16.55331287460327,2.2500293718109132,15.000012874603271L2.250028371810913,7.000022874603271Q2.250028371810913,5.446722874603271,3.348377371810913,4.348368874603271Q4.446728371810913,3.2500188746032714,6.000028371810913,3.2500178746032713L18.000028371810913,3.2500138746032716Q19.553328371810913,3.2500128746032715,20.65162837181091,4.348365874603272Q21.750028371810913,5.446712874603271,21.750028371810913,7.000022874603271L21.749928371810913,15.000012874603271Q21.749928371810913,16.55331287460327,20.65162837181091,17.651612874603273Q19.553228371810913,18.75001287460327,18.000028371810913,18.75001287460327L13.207728371810914,18.75001287460327L8.385868371810913,21.643112874603272Q8.322528371810913,21.681112874603272,8.252988371810913,21.70601287460327Q8.183448371810913,21.73091287460327,8.110388371810913,21.741812874603273Q8.037318371810912,21.752712874603272,7.963538371810913,21.74911287460327Q7.889758371810913,21.74551287460327,7.818098371810913,21.72761287460327Q7.746438371810913,21.709712874603273,7.679648371810913,21.678112874603272Q7.612848371810913,21.64661287460327,7.553498371810913,21.60261287460327Q7.494148371810913,21.55861287460327,7.444518371810913,21.503912874603273Q7.3948883718109135,21.449212874603273,7.356878371810913,21.38591287460327Q7.249998371810913,21.20771287460327,7.249998371810913,21.00001287460327L7.249998371810913,18.75001287460327ZM8.749998371810914,18.00001287460327Q8.749998371810914,17.92611287460327,8.735588371810913,17.85371287460327Q8.721178371810913,17.78121287460327,8.692908371810912,17.713012874603272Q8.664638371810913,17.64471287460327,8.623598371810914,17.583312874603273Q8.582558371810913,17.521912874603274,8.530328371810914,17.46971287460327Q8.478098371810912,17.417412874603272,8.416678371810914,17.37641287460327Q8.355258371810912,17.33531287460327,8.287018371810912,17.30711287460327Q8.218768371810913,17.278812874603272,8.146318371810914,17.264412874603273Q8.073868371810914,17.25001287460327,7.999998371810913,17.25001287460327L6.000028371810913,17.25001287460327Q5.068048371810914,17.25001287460327,4.409038371810913,16.591012874603273Q3.750030371810913,15.932012874603272,3.7500293718109132,15.000012874603271L3.750028371810913,7.000022874603271Q3.750028371810913,6.068042874603272,4.409038371810913,5.409032874603271Q5.068048371810914,4.750017874603271,6.000028371810913,4.750017874603271L18.000028371810913,4.750013874603272Q18.931928371810912,4.750013874603272,19.591028371810914,5.409022874603272Q20.250028371810913,6.068032874603272,20.250028371810913,7.000022874603271L20.249928371810913,15.000012874603271Q20.249928371810913,15.932012874603272,19.590928371810914,16.591012874603273Q18.931928371810912,17.25001287460327,18.000028371810913,17.25001287460327L12.999998371810912,17.25001287460327Q12.792258371810913,17.25001287460327,12.614128371810914,17.35691287460327L8.749998371810914,19.67531287460327L8.749998371810914,18.00001287460327Z" fill-rule="evenodd" fill="#231F2E" fill-opacity="1"/></g><g><path d="M7,7.75L12,7.75Q12.07387,7.75,12.14632,7.764411Q12.21877,7.778822,12.28701,7.80709Q12.355260000000001,7.835359,12.41668,7.876398Q12.478100000000001,7.917437,12.53033,7.96967Q12.58256,8.021903,12.6236,8.083322Q12.66464,8.144742,12.692910000000001,8.212987Q12.72118,8.281233,12.73559,8.353682Q12.75,8.4261315,12.75,8.5Q12.75,8.5738685,12.73559,8.646318Q12.72118,8.718767,12.692910000000001,8.787013Q12.66464,8.855258,12.6236,8.916678Q12.58256,8.978097,12.53033,9.03033Q12.478100000000001,9.082563,12.41668,9.123602Q12.355260000000001,9.164641,12.28701,9.19291Q12.21877,9.221178,12.14632,9.235589000000001Q12.07387,9.25,12,9.25L7,9.25Q6.9261315,9.25,6.853682,9.235589000000001Q6.781233,9.221178,6.712987,9.19291Q6.644742,9.164641,6.583322,9.123602Q6.521903,9.082563,6.46967,9.03033Q6.417437,8.978097,6.376398,8.916678Q6.335359,8.855258,6.30709,8.787013Q6.278822,8.718767,6.264411,8.646318Q6.25,8.5738685,6.25,8.5Q6.25,8.4261315,6.264411,8.353682Q6.278822,8.281233,6.30709,8.212987Q6.335359,8.144742,6.376398,8.083322Q6.417437,8.021903,6.46967,7.96967Q6.521903,7.917437,6.583322,7.876398Q6.644742,7.835359,6.712987,7.80709Q6.781233,7.778822,6.853682,7.764411Q6.9261315,7.75,7,7.75Z" fill-rule="evenodd" fill="#2882FF" fill-opacity="1"/></g><g><path d="M7,10.75L9.5,10.75Q9.57387,10.75,9.64632,10.764410999999999Q9.71877,10.778822,9.78701,10.80709Q9.85526,10.835359,9.91668,10.876398Q9.9781,10.917437,10.03033,10.96967Q10.08256,11.021903,10.1236,11.083322Q10.16464,11.144742,10.19291,11.212987Q10.22118,11.281233,10.23559,11.353682Q10.25,11.4261315,10.25,11.5Q10.25,11.5738685,10.23559,11.646318Q10.22118,11.718767,10.19291,11.787013Q10.16464,11.855258,10.1236,11.916678Q10.08256,11.978097,10.03033,12.03033Q9.9781,12.082563,9.91668,12.123602Q9.85526,12.164641,9.78701,12.19291Q9.71877,12.221178,9.64632,12.235589000000001Q9.57387,12.25,9.5,12.25L7,12.25Q6.9261315,12.25,6.853682,12.235589000000001Q6.781233,12.221178,6.712987,12.19291Q6.644742,12.164641,6.583322,12.123602Q6.521903,12.082563,6.46967,12.03033Q6.417437,11.978097,6.376398,11.916678Q6.335359,11.855258,6.30709,11.787013Q6.278822,11.718767,6.264411,11.646318Q6.25,11.5738685,6.25,11.5Q6.25,11.4261315,6.264411,11.353682Q6.278822,11.281233,6.30709,11.212987Q6.335359,11.144742,6.376398,11.083322Q6.417437,11.021903,6.46967,10.96967Q6.521903,10.917437,6.583322,10.876398Q6.644742,10.835359,6.712987,10.80709Q6.781233,10.778822,6.853682,10.764410999999999Q6.9261315,10.75,7,10.75Z" fill-rule="evenodd" fill="#2882FF" fill-opacity="1"/></g><g transform="matrix(1,0,0,-1,0,28.46435546875)"><path d="M14.5,13.482177734375L17,13.482177734375Q17.07387,13.482177734375,17.14632,13.496588734374999Q17.21877,13.510999734375,17.28701,13.539267734375Q17.35526,13.567536734375,17.41668,13.608575734375Q17.4781,13.649614734375,17.53033,13.701847734375Q17.58256,13.754080734375,17.6236,13.815499734375Q17.66464,13.876919734375,17.69291,13.945164734375Q17.72118,14.013410734375,17.735590000000002,14.085859734375Q17.75,14.158309234375,17.75,14.232177734375Q17.75,14.306046234375,17.735590000000002,14.378495734375Q17.72118,14.450944734375,17.69291,14.519190734375Q17.66464,14.587435734375,17.6236,14.648855734375Q17.58256,14.710274734375,17.53033,14.762507734375Q17.4781,14.814740734375,17.41668,14.855779734375Q17.35526,14.896818734375,17.28701,14.925087734375Q17.21877,14.953355734375,17.14632,14.967766734375001Q17.07387,14.982177734375,17,14.982177734375L14.5,14.982177734375Q14.4261315,14.982177734375,14.353682,14.967766734375001Q14.281233,14.953355734375,14.212987,14.925087734375Q14.144742,14.896818734375,14.083322,14.855779734375Q14.021903,14.814740734375,13.96967,14.762507734375Q13.917437,14.710274734375,13.876398,14.648855734375Q13.835359,14.587435734375,13.80709,14.519190734375Q13.778822,14.450944734375,13.764410999999999,14.378495734375Q13.75,14.306046234375,13.75,14.232177734375Q13.75,14.158309234375,13.764410999999999,14.085859734375Q13.778822,14.013410734375,13.80709,13.945164734375Q13.835359,13.876919734375,13.876398,13.815499734375Q13.917437,13.754080734375,13.96967,13.701847734375Q14.021903,13.649614734375,14.083322,13.608575734375Q14.144742,13.567536734375,14.212987,13.539267734375Q14.281233,13.510999734375,14.353682,13.496588734374999Q14.4261315,13.482177734375,14.5,13.482177734375Z" fill-rule="evenodd" fill="#2882FF" fill-opacity="1"/></g><g><path d="M7,13.48223876953125Q6.9261315,13.48223876953125,6.853682,13.496649769531249Q6.781233,13.51106076953125,6.712987,13.53932876953125Q6.644742,13.56759776953125,6.583322,13.60863676953125Q6.521903,13.64967576953125,6.46967,13.70190876953125Q6.417437,13.75414176953125,6.376398,13.81556076953125Q6.335359,13.87698076953125,6.30709,13.94522576953125Q6.278822,14.01347176953125,6.264411,14.08592076953125Q6.25,14.15837026953125,6.25,14.23223876953125Q6.25,14.30610726953125,6.264411,14.37855676953125Q6.278822,14.45100576953125,6.30709,14.51925176953125Q6.335359,14.58749676953125,6.376398,14.64891676953125Q6.417437,14.71033576953125,6.46967,14.76256876953125Q6.521903,14.81480176953125,6.583322,14.85584076953125Q6.644742,14.89687976953125,6.712987,14.92514876953125Q6.781233,14.95341676953125,6.853682,14.967827769531251Q6.9261315,14.98223876953125,7,14.98223876953125L8,14.98223876953125Q8.07387,14.98223876953125,8.14632,14.967827769531251Q8.21877,14.95341676953125,8.28701,14.92514876953125Q8.35526,14.89687976953125,8.41668,14.85584076953125Q8.4781,14.81480176953125,8.53033,14.76256876953125Q8.58256,14.71033576953125,8.6236,14.64891676953125Q8.66464,14.58749676953125,8.69291,14.51925176953125Q8.72118,14.45100576953125,8.73559,14.37855676953125Q8.75,14.30610726953125,8.75,14.23223876953125Q8.75,14.15837026953125,8.73559,14.08592076953125Q8.72118,14.01347176953125,8.69291,13.94522576953125Q8.66464,13.87698076953125,8.6236,13.81556076953125Q8.58256,13.75414176953125,8.53033,13.70190876953125Q8.4781,13.64967576953125,8.41668,13.60863676953125Q8.35526,13.56759776953125,8.28701,13.53932876953125Q8.21877,13.51106076953125,8.14632,13.496649769531249Q8.07387,13.48223876953125,8,13.48223876953125L7,13.48223876953125Z" fill-rule="evenodd" fill="#2882FF" fill-opacity="1"/></g><g><path d="M17.707169999999998,7.292835C17.31665,6.9023884,16.68358,6.9023884,16.29307,7.292835L15.85231,7.733597L17.2664,9.1477L17.707169999999998,8.70693C18.09761,8.31642,18.09761,7.683346,17.707169999999998,7.292835ZM16.86221,9.55189L15.44811,8.13779L10.819534,12.76637C10.58443,13.00136,10.411601,13.29124,10.316676,13.6098L10.0119138,14.63266C9.9819379,14.73322,10.00949407,14.84211,10.083691,14.91631C10.157888,14.99051,10.266785,15.01806,10.367343,14.98809L11.3902,14.68332C11.70877,14.5884,11.99865,14.415569999999999,12.23363,14.18047L16.86221,9.55189L16.86221,9.55189Z" fill="#2882FF" fill-opacity="1"/></g></g></svg>