<svg xmlns="http://www.w3.org/2000/svg" xmlns:xlink="http://www.w3.org/1999/xlink" fill="none" version="1.1" width="24" height="24" viewBox="0 0 24 24"><defs><clipPath id="master_svg0_74_12855"><rect x="0" y="0" width="24" height="24" rx="0"/></clipPath></defs><g clip-path="url(#master_svg0_74_12855)"><g><path d="M7.249998371810913,18.75001287460327L6.0000183718109135,18.75001287460327Q4.446718371810913,18.75001287460327,3.348376371810913,17.651612874603273Q2.250030371810913,16.55331287460327,2.2500293718109132,15.000012874603271L2.250028371810913,7.000022874603271Q2.250028371810913,5.446722874603271,3.348377371810913,4.348368874603271Q4.446728371810913,3.2500188746032714,6.000028371810913,3.2500178746032713L18.000028371810913,3.2500138746032716Q19.553328371810913,3.2500128746032715,20.65162837181091,4.348365874603272Q21.750028371810913,5.446712874603271,21.750028371810913,7.000022874603271L21.749928371810913,15.000012874603271Q21.749928371810913,16.55331287460327,20.65162837181091,17.651612874603273Q19.553228371810913,18.75001287460327,18.000028371810913,18.75001287460327L13.207728371810914,18.75001287460327L8.385868371810913,21.643112874603272Q8.322528371810913,21.681112874603272,8.252988371810913,21.70601287460327Q8.183448371810913,21.73091287460327,8.110388371810913,21.741812874603273Q8.037318371810912,21.752712874603272,7.963538371810913,21.74911287460327Q7.889758371810913,21.74551287460327,7.818098371810913,21.72761287460327Q7.746438371810913,21.709712874603273,7.679648371810913,21.678112874603272Q7.612848371810913,21.64661287460327,7.553498371810913,21.60261287460327Q7.494148371810913,21.55861287460327,7.444518371810913,21.503912874603273Q7.3948883718109135,21.449212874603273,7.356878371810913,21.38591287460327Q7.249998371810913,21.20771287460327,7.249998371810913,21.00001287460327L7.249998371810913,18.75001287460327ZM8.749998371810914,18.00001287460327Q8.749998371810914,17.92611287460327,8.735588371810913,17.85371287460327Q8.721178371810913,17.78121287460327,8.692908371810912,17.713012874603272Q8.664638371810913,17.64471287460327,8.623598371810914,17.583312874603273Q8.582558371810913,17.521912874603274,8.530328371810914,17.46971287460327Q8.478098371810912,17.417412874603272,8.416678371810914,17.37641287460327Q8.355258371810912,17.33531287460327,8.287018371810912,17.30711287460327Q8.218768371810913,17.278812874603272,8.146318371810914,17.264412874603273Q8.073868371810914,17.25001287460327,7.999998371810913,17.25001287460327L6.000028371810913,17.25001287460327Q5.068048371810914,17.25001287460327,4.409038371810913,16.591012874603273Q3.750030371810913,15.932012874603272,3.7500293718109132,15.000012874603271L3.750028371810913,7.000022874603271Q3.750028371810913,6.068042874603272,4.409038371810913,5.409032874603271Q5.068048371810914,4.750017874603271,6.000028371810913,4.750017874603271L18.000028371810913,4.750013874603272Q18.931928371810912,4.750013874603272,19.591028371810914,5.409022874603272Q20.250028371810913,6.068032874603272,20.250028371810913,7.000022874603271L20.249928371810913,15.000012874603271Q20.249928371810913,15.932012874603272,19.590928371810914,16.591012874603273Q18.931928371810912,17.25001287460327,18.000028371810913,17.25001287460327L12.999998371810912,17.25001287460327Q12.792258371810913,17.25001287460327,12.614128371810914,17.35691287460327L8.749998371810914,19.67531287460327L8.749998371810914,18.00001287460327Z" fill-rule="evenodd" fill="#231F2E" fill-opacity="1"/></g><g><path d="M7.25,7.800754234375L7.25,14.022975234375Q7.25,14.701825234375,7.73002,15.181845234375Q8.210038,15.661865234375,8.888889,15.661865234375L15.11111,15.661865234375Q15.78996,15.661865234375,16.26998,15.181845234375Q16.75,14.701825234375,16.75,14.022975234375L16.75,7.800754234375Q16.75,7.121904234375,16.26998,6.641885234375Q15.78996,6.161865234375,15.11111,6.161865234375L8.888889,6.161865234375Q8.210039,6.161865234375,7.730019,6.641884234375Q7.25,7.121904234375,7.25,7.800754234375ZM8.888889,14.161865234375Q8.75,14.161865234375,8.75,14.022975234375L8.75,7.800754234375Q8.75,7.661865234375,8.888889,7.661865234375L15.11111,7.661865234375Q15.25,7.661865234375,15.25,7.800754234375L15.25,14.022975234375Q15.25,14.161865234375,15.11111,14.161865234375L8.888889,14.161865234375Z" fill-rule="evenodd" fill="#2882FF" fill-opacity="1"/></g><g><path d="M8,9.75L16,9.75Q16.07387,9.75,16.14632,9.764410999999999Q16.21877,9.778822,16.287010000000002,9.80709Q16.35526,9.835359,16.41668,9.876398Q16.478099999999998,9.917437,16.53033,9.96967Q16.58256,10.021903,16.6236,10.083322Q16.66464,10.144742,16.692909999999998,10.212987Q16.72118,10.281233,16.735590000000002,10.353682Q16.75,10.4261315,16.75,10.5Q16.75,10.5738685,16.735590000000002,10.646318Q16.72118,10.718767,16.692909999999998,10.787013Q16.66464,10.855258,16.6236,10.916678Q16.58256,10.978097,16.53033,11.03033Q16.478099999999998,11.082563,16.41668,11.123602Q16.35526,11.164641,16.287010000000002,11.19291Q16.21877,11.221178,16.14632,11.235589000000001Q16.07387,11.25,16,11.25L8,11.25Q7.9261315,11.25,7.853682,11.235589000000001Q7.781233,11.221178,7.712987,11.19291Q7.644742,11.164641,7.583322,11.123602Q7.521903,11.082563,7.46967,11.03033Q7.417437,10.978097,7.376398,10.916678Q7.335359,10.855258,7.30709,10.787013Q7.278822,10.718767,7.264411,10.646318Q7.25,10.5738685,7.25,10.5Q7.25,10.4261315,7.264411,10.353682Q7.278822,10.281233,7.30709,10.212987Q7.335359,10.144742,7.376398,10.083322Q7.417437,10.021903,7.46967,9.96967Q7.521903,9.917437,7.583322,9.876398Q7.644742,9.835359,7.712987,9.80709Q7.781233,9.778822,7.853682,9.764410999999999Q7.9261315,9.75,8,9.75Z" fill-rule="evenodd" fill="#2882FF" fill-opacity="1"/></g><g><path d="M10.75,6.911865234375Q10.75,6.837996734375,10.764410999999999,6.765547234375Q10.778822,6.693098234375,10.80709,6.624852234375Q10.835359,6.556607234375,10.876398,6.495187234375Q10.917437,6.433768234375,10.96967,6.381535234375Q11.021903,6.329302234375,11.083322,6.288263234375Q11.144742,6.247224234375,11.212987,6.218955234375Q11.281233,6.190687234375,11.353682,6.176276234375Q11.4261315,6.161865234375,11.5,6.161865234375Q11.5738685,6.161865234375,11.646318,6.176276234375Q11.718767,6.190687234375,11.787013,6.218955234375Q11.855258,6.247224234375,11.916678,6.288263234375Q11.978097,6.329302234375,12.03033,6.381535234375Q12.082563,6.433768234375,12.123602,6.495187234375Q12.164641,6.556607234375,12.19291,6.624852234375Q12.221178,6.693098234375,12.235589000000001,6.765547234375Q12.25,6.837996734375,12.25,6.911865234375L12.25,14.911865234375Q12.25,14.985735234375,12.235589000000001,15.058185234375Q12.221178,15.130635234375,12.19291,15.198875234375Q12.164641,15.267125234375,12.123602,15.328545234375Q12.082563,15.389965234375,12.03033,15.442195234375Q11.978097,15.494425234375,11.916678,15.535465234375Q11.855258,15.576505234375,11.787013,15.604775234375Q11.718767,15.633045234375,11.646318,15.647455234375Q11.5738685,15.661865234375,11.5,15.661865234375Q11.4261315,15.661865234375,11.353682,15.647455234375Q11.281233,15.633045234375,11.212987,15.604775234375Q11.144742,15.576505234375,11.083322,15.535465234375Q11.021903,15.494425234375,10.96967,15.442195234375Q10.917437,15.389965234375,10.876398,15.328545234375Q10.835359,15.267125234375,10.80709,15.198875234375Q10.778822,15.130635234375,10.764410999999999,15.058185234375Q10.75,14.985735234375,10.75,14.911865234375L10.75,6.911865234375Z" fill-rule="evenodd" fill="#2882FF" fill-opacity="1"/></g></g></svg>