<svg xmlns="http://www.w3.org/2000/svg" xmlns:xlink="http://www.w3.org/1999/xlink" fill="none" version="1.1" width="24" height="24" viewBox="0 0 24 24"><defs><clipPath id="master_svg0_72_05023"><rect x="0" y="0" width="24" height="24" rx="0"/></clipPath></defs><g clip-path="url(#master_svg0_72_05023)"><g><g><path d="M16.25,6.4988L16.25,6.5Q16.25,6.573869999999999,16.264400000000002,6.646319999999999Q16.2788,6.71877,16.3071,6.78701Q16.3354,6.8552599999999995,16.3764,6.9166799999999995Q16.4174,6.9780999999999995,16.4697,7.03033Q16.521900000000002,7.08256,16.5833,7.1236Q16.6447,7.16464,16.713,7.1929099999999995Q16.7812,7.22118,16.8537,7.23559Q16.926099999999998,7.25,17,7.25Q17.073900000000002,7.25,17.1463,7.23559Q17.2188,7.22118,17.287,7.1929099999999995Q17.3553,7.16464,17.4167,7.1236Q17.478099999999998,7.08256,17.5303,7.03033Q17.5826,6.9780999999999995,17.6236,6.9166799999999995Q17.6646,6.8552599999999995,17.6929,6.78701Q17.7212,6.71877,17.735599999999998,6.646319999999999Q17.75,6.573869999999999,17.75,6.5L17.75,5.5Q17.75,4.56802,17.091,3.90901Q16.432000000000002,3.25,15.5,3.25L4.5,3.25Q3.568019,3.25,2.9090097,3.9090099Q2.25,4.56802,2.25,5.5L2.25,14.1666Q2.25,15.0986,2.9090261,15.7576Q3.568052,16.4167,4.50005,16.416600000000003L5,16.416600000000003L5.00002,16.416600000000003Q5.07388,16.416600000000003,5.14633,16.4022Q5.218780000000001,16.3878,5.28702,16.3595Q5.35527,16.3313,5.41669,16.2902Q5.4780999999999995,16.249200000000002,5.53034,16.197Q5.5825700000000005,16.1447,5.62361,16.0833Q5.66464,16.021900000000002,5.6929099999999995,15.9536Q5.72118,15.8854,5.73559,15.8129Q5.75,15.7405,5.75,15.6666Q5.75,15.5928,5.73559,15.5203Q5.72118,15.4479,5.6929099999999995,15.3796Q5.66464,15.3114,5.6236,15.2499Q5.58256,15.1885,5.53033,15.1363Q5.4780999999999995,15.0841,5.4166799999999995,15.043Q5.3552599999999995,15.002,5.28701,14.9737Q5.21877,14.9454,5.146319999999999,14.931Q5.073869999999999,14.9166,5,14.9166L4.99998,14.9166L4.50002,14.9166Q4.18935,14.9166,3.969675,14.697Q3.75,14.4773,3.75,14.1666L3.75,5.5Q3.75,5.18934,3.96967,4.96967Q4.18934,4.75,4.5,4.75L15.5,4.75Q15.8107,4.75,16.0303,4.96967Q16.25,5.18934,16.25,5.5L16.25,6.4988Z" fill-rule="evenodd" fill="#2882FF" fill-opacity="1"/></g><g><g><path d="M10.916666984558105,13.63889L10.916666984558105,8.25L17.083336984558105,8.25L17.083336984558105,13.63889L10.916666984558105,13.63889ZM15.583336984558105,9.75L12.416666984558105,9.75L12.416666984558105,12.13889L15.583336984558105,12.13889L15.583336984558105,9.75Z" fill-rule="evenodd" fill="#736F78" fill-opacity="1"/></g><g><path d="M15.583333969116211,13.63889L21.75000396911621,13.63889L21.75000396911621,10.5Q21.75000396911621,9.568019,21.090993969116212,8.9090098Q20.43198396911621,8.25,19.50000396911621,8.25L15.583333969116211,8.25L15.583333969116211,13.63889ZM20.25000396911621,12.13889L20.25000396911621,10.5Q20.25000396911621,10.18934,20.03033396911621,9.96967Q19.81066396911621,9.75,19.50000396911621,9.75L17.08333396911621,9.75L17.08333396911621,12.13889L20.25000396911621,12.13889Z" fill-rule="evenodd" fill="#736F78" fill-opacity="1"/></g><g><path d="M15.583333969116211,17.527778835906982L15.583333969116211,12.138888835906982L21.75000396911621,12.138888835906982L21.75000396911621,17.527778835906982L15.583333969116211,17.527778835906982ZM20.25000396911621,13.638888835906982L17.08333396911621,13.638888835906982L17.08333396911621,16.027778835906982L20.25000396911621,16.027778835906982L20.25000396911621,13.638888835906982Z" fill-rule="evenodd" fill="#736F78" fill-opacity="1"/></g><g><path d="M10.916666984558105,21.416667671813965L10.916666984558105,16.027777671813965L17.083336984558105,16.027777671813965L17.083336984558105,21.416667671813965L10.916666984558105,21.416667671813965ZM15.583336984558105,17.527777671813965L12.416666984558105,17.527777671813965L12.416666984558105,19.916667671813965L15.583336984558105,19.916667671813965L15.583336984558105,17.527777671813965Z" fill-rule="evenodd" fill="#736F78" fill-opacity="1"/></g><g><path d="M6.25,17.41672203125L6.25,12.02783203125L12.41667,12.02783203125L12.41667,17.41672203125L6.25,17.41672203125ZM10.91667,13.52783203125L7.75,13.52783203125L7.75,15.91672203125L10.91667,15.91672203125L10.91667,13.52783203125Z" fill-rule="evenodd" fill="#736F78" fill-opacity="1"/></g><g><path d="M10.916666984558105,17.527778835906982L10.916666984558105,12.138888835906982L17.083336984558105,12.138888835906982L17.083336984558105,17.527778835906982L10.916666984558105,17.527778835906982ZM15.583336984558105,13.638888835906982L12.416666984558105,13.638888835906982L12.416666984558105,16.027778835906982L15.583336984558105,16.027778835906982L15.583336984558105,13.638888835906982Z" fill-rule="evenodd" fill="#736F78" fill-opacity="1"/></g><g><path d="M10.916666984558105,21.416667671813965L10.916666984558105,16.027777671813965L17.083336984558105,16.027777671813965L17.083336984558105,21.416667671813965L10.916666984558105,21.416667671813965ZM15.583336984558105,17.527777671813965L12.416666984558105,17.527777671813965L12.416666984558105,19.916667671813965L15.583336984558105,19.916667671813965L15.583336984558105,17.527777671813965Z" fill-rule="evenodd" fill="#736F78" fill-opacity="1"/></g></g><g><path d="M21.091,20.7577Q21.75,20.098599999999998,21.75,19.1667L21.75,10.5Q21.75,9.56802,21.091,8.9090099Q20.432000000000002,8.25,19.5,8.25L8.5,8.25Q7.56802,8.25,6.9090098,8.9090099Q6.25,9.56802,6.25,10.5L6.25,19.1667Q6.25,20.098599999999998,6.9090099,20.7577Q7.568019,21.4167,8.5,21.4167L19.5,21.4167Q20.432000000000002,21.4167,21.091,20.7577ZM20.25,10.5L20.25,19.1667Q20.25,19.9167,19.5,19.9167L8.5,19.9167Q7.75,19.9167,7.75,19.1667L7.75,10.5Q7.75,9.75,8.5,9.75L19.5,9.75Q19.8107,9.75,20.0303,9.96967Q20.25,10.18934,20.25,10.5Z" fill-rule="evenodd" fill="#231F2E" fill-opacity="1"/></g></g></g></svg>