<svg xmlns="http://www.w3.org/2000/svg" xmlns:xlink="http://www.w3.org/1999/xlink" fill="none" version="1.1" width="24" height="24" viewBox="0 0 24 24"><defs><clipPath id="master_svg0_70_01722"><rect x="0" y="0" width="24" height="24" rx="0"/></clipPath></defs><g clip-path="url(#master_svg0_70_01722)"><g><path d="M5,15.25L7,15.25Q7.07387,15.25,7.14632,15.23559Q7.21877,15.22118,7.28701,15.19291Q7.35526,15.16464,7.41668,15.1236Q7.4781,15.08256,7.53033,15.03033Q7.58256,14.9781,7.6236,14.91668Q7.66464,14.85526,7.69291,14.78701Q7.72118,14.71877,7.73559,14.64632Q7.75,14.57387,7.75,14.5Q7.75,14.42613,7.73559,14.35368Q7.72118,14.28123,7.69291,14.21299Q7.66464,14.14474,7.6236,14.08332Q7.58256,14.0219,7.53033,13.96967Q7.4781,13.91744,7.41668,13.8764Q7.35526,13.83536,7.28701,13.80709Q7.21877,13.77882,7.14632,13.76441Q7.07387,13.75,7,13.75L5,13.75Q4.4822299999999995,13.75,4.1161200000000004,13.383880000000001Q3.75,13.017769999999999,3.75,12.5L3.75,7.5Q3.75,6.9822299999999995,4.1161200000000004,6.6161200000000004Q4.4822299999999995,6.25,5,6.25L19,6.25Q19.5178,6.25,19.8839,6.6161200000000004Q20.25,6.9822299999999995,20.25,7.5L20.25,12.5Q20.25,13.017769999999999,19.8839,13.383880000000001Q19.5178,13.75,19,13.75L17,13.75Q16.926099999999998,13.75,16.8537,13.76441Q16.7812,13.77882,16.713,13.80709Q16.6447,13.83536,16.5833,13.8764Q16.521900000000002,13.91744,16.4697,13.96967Q16.4174,14.0219,16.3764,14.08332Q16.3354,14.14474,16.3071,14.21299Q16.2788,14.28123,16.264400000000002,14.35368Q16.25,14.42613,16.25,14.5Q16.25,14.57387,16.264400000000002,14.64632Q16.2788,14.71877,16.3071,14.78701Q16.3354,14.85526,16.3764,14.91668Q16.4174,14.9781,16.4697,15.03033Q16.521900000000002,15.08256,16.5833,15.1236Q16.6447,15.16464,16.713,15.19291Q16.7812,15.22118,16.8537,15.23559Q16.926099999999998,15.25,17,15.25L19,15.25Q20.1391,15.25,20.9445,14.44454Q21.75,13.63909,21.75,12.5L21.75,7.5Q21.75,6.36091,20.9445,5.5554565Q20.1391,4.75,19,4.75L5,4.75Q3.860913,4.75,3.0554564,5.5554563Q2.25,6.360913,2.25,7.5L2.25,12.5Q2.25,13.63909,3.0554564,14.44454Q3.860913,15.25,5,15.25Z" fill-rule="evenodd" fill="#231F2E" fill-opacity="1"/></g><g><path d="M6.25,4.5L6.25,5.5Q6.25,5.573869999999999,6.264411,5.646319999999999Q6.278822,5.71877,6.30709,5.78701Q6.335359,5.8552599999999995,6.376398,5.9166799999999995Q6.417437,5.9780999999999995,6.46967,6.03033Q6.521903,6.08256,6.583322,6.1236Q6.644742,6.16464,6.712987,6.1929099999999995Q6.781233,6.22118,6.853682,6.23559Q6.9261315,6.25,7,6.25Q7.0738685,6.25,7.146318,6.23559Q7.218767,6.22118,7.287013,6.1929099999999995Q7.355258,6.16464,7.416678,6.1236Q7.478097,6.08256,7.53033,6.03033Q7.582563,5.9780999999999995,7.623602,5.9166799999999995Q7.664641,5.8552599999999995,7.69291,5.78701Q7.721178,5.71877,7.735589,5.646319999999999Q7.75,5.573869999999999,7.75,5.5L7.75,4.5Q7.75,3.98223,8.11612,3.61612Q8.48223,3.25,9,3.25L15,3.25Q15.51777,3.25,15.88388,3.61612Q16.25,3.98223,16.25,4.5L16.25,5.5Q16.25,5.573869999999999,16.264409999999998,5.646319999999999Q16.27882,5.71877,16.307090000000002,5.78701Q16.33536,5.8552599999999995,16.3764,5.9166799999999995Q16.41744,5.9780999999999995,16.46967,6.03033Q16.521900000000002,6.08256,16.58332,6.1236Q16.64474,6.16464,16.712989999999998,6.1929099999999995Q16.78123,6.22118,16.85368,6.23559Q16.92613,6.25,17,6.25Q17.073900000000002,6.25,17.1463,6.23559Q17.2188,6.22118,17.287,6.1929099999999995Q17.3553,6.16464,17.4167,6.1236Q17.478099999999998,6.08256,17.5303,6.03033Q17.5826,5.9780999999999995,17.6236,5.9166799999999995Q17.6646,5.8552599999999995,17.6929,5.78701Q17.7212,5.71877,17.735599999999998,5.646319999999999Q17.75,5.573869999999999,17.75,5.5L17.75,4.5Q17.75,3.360913,16.94454,2.5554565Q16.13909,1.75,15,1.75L9,1.75Q7.860913,1.75,7.0554564,2.5554564Q6.25,3.360913,6.25,4.5Z" fill-rule="evenodd" fill="#231F2E" fill-opacity="1"/></g><g><path d="M6.25,13.5L6.25,19.5Q6.25,20.63909,7.0554568,21.44454Q7.860913,22.25,9,22.25L15,22.25Q16.13909,22.25,16.94454,21.44454Q17.75,20.63909,17.75,19.5L17.75,13.5Q17.75,12.360914,16.94454,11.5554565Q16.13909,10.75,15,10.75L9,10.75Q7.860913,10.75,7.0554564,11.5554565Q6.25,12.360913,6.25,13.5ZM8.11612,20.383879999999998Q7.75,20.01777,7.75,19.5L7.75,13.5Q7.75,12.98223,8.11612,12.61612Q8.48223,12.25,9,12.25L15,12.25Q15.51777,12.25,15.88388,12.61612Q16.25,12.98223,16.25,13.5L16.25,19.5Q16.25,20.01777,15.88388,20.383879999999998Q15.51777,20.75,15,20.75L9,20.75Q8.48223,20.75,8.11612,20.383879999999998Z" fill-rule="evenodd" fill="#231F2E" fill-opacity="1"/></g><g><path d="M16,7.753692626953125L18,7.753692626953125Q18.07387,7.753692626953125,18.14632,7.768103626953125Q18.21877,7.782514626953125,18.28701,7.810782626953125Q18.35526,7.839051626953125,18.41668,7.880090626953125Q18.4781,7.921129626953125,18.53033,7.973362626953125Q18.58256,8.025595626953125,18.6236,8.087014626953126Q18.66464,8.148434626953126,18.69291,8.216679626953125Q18.72118,8.284925626953125,18.735590000000002,8.357374626953124Q18.75,8.429824126953125,18.75,8.503692626953125Q18.75,8.577561126953125,18.735590000000002,8.650010626953126Q18.72118,8.722459626953125,18.69291,8.790705626953125Q18.66464,8.858950626953124,18.6236,8.920370626953124Q18.58256,8.981789626953125,18.53033,9.034022626953124Q18.4781,9.086255626953125,18.41668,9.127294626953125Q18.35526,9.168333626953125,18.28701,9.196602626953124Q18.21877,9.224870626953125,18.14632,9.239281626953126Q18.07387,9.253692626953125,18,9.253692626953125L16,9.253692626953125Q15.9261315,9.253692626953125,15.853682,9.239281626953126Q15.781233,9.224870626953125,15.712987,9.196602626953124Q15.644742,9.168333626953125,15.583322,9.127294626953125Q15.521903,9.086255626953125,15.46967,9.034022626953124Q15.417437,8.981789626953125,15.376398,8.920370626953124Q15.335359,8.858950626953124,15.30709,8.790705626953125Q15.278822,8.722459626953125,15.264410999999999,8.650010626953126Q15.25,8.577561126953125,15.25,8.503692626953125Q15.25,8.429824126953125,15.264410999999999,8.357374626953124Q15.278822,8.284925626953125,15.30709,8.216679626953125Q15.335359,8.148434626953126,15.376398,8.087014626953126Q15.417437,8.025595626953125,15.46967,7.973362626953125Q15.521903,7.921129626953125,15.583322,7.880090626953125Q15.644742,7.839051626953125,15.712987,7.810782626953125Q15.781233,7.782514626953125,15.853682,7.768103626953125Q15.9261315,7.753692626953125,16,7.753692626953125Z" fill-rule="evenodd" fill="#2882FF" fill-opacity="1"/></g><g><path d="M10,14.25L14,14.25Q14.07387,14.25,14.14632,14.264410999999999Q14.21877,14.278822,14.28701,14.30709Q14.355260000000001,14.335359,14.41668,14.376398Q14.478100000000001,14.417437,14.53033,14.46967Q14.58256,14.521903,14.6236,14.583322Q14.66464,14.644742,14.692910000000001,14.712987Q14.72118,14.781233,14.73559,14.853682Q14.75,14.9261315,14.75,15Q14.75,15.0738685,14.73559,15.146318Q14.72118,15.218767,14.692910000000001,15.287013Q14.66464,15.355258,14.6236,15.416678Q14.58256,15.478097,14.53033,15.53033Q14.478100000000001,15.582563,14.41668,15.623602Q14.355260000000001,15.664641,14.28701,15.69291Q14.21877,15.721178,14.14632,15.735589000000001Q14.07387,15.75,14,15.75L10,15.75Q9.9261315,15.75,9.853682,15.735589000000001Q9.781233,15.721178,9.712987,15.69291Q9.644742,15.664641,9.583322,15.623602Q9.521903,15.582563,9.46967,15.53033Q9.417437,15.478097,9.376398,15.416678Q9.335359,15.355258,9.30709,15.287013Q9.278822,15.218767,9.264410999999999,15.146318Q9.25,15.0738685,9.25,15Q9.25,14.9261315,9.264410999999999,14.853682Q9.278822,14.781233,9.30709,14.712987Q9.335359,14.644742,9.376398,14.583322Q9.417437,14.521903,9.46967,14.46967Q9.521903,14.417437,9.583322,14.376398Q9.644742,14.335359,9.712987,14.30709Q9.781233,14.278822,9.853682,14.264410999999999Q9.9261315,14.25,10,14.25Z" fill-rule="evenodd" fill="#2882FF" fill-opacity="1"/></g><g><path d="M10,17.25L12,17.25Q12.07387,17.25,12.14632,17.264411Q12.21877,17.278822,12.28701,17.30709Q12.35526,17.335359,12.41668,17.376398000000002Q12.4781,17.417437,12.53033,17.46967Q12.58256,17.521903000000002,12.6236,17.583322Q12.66464,17.644742,12.69291,17.712987Q12.72118,17.781233,12.73559,17.853682Q12.75,17.9261315,12.75,18Q12.75,18.0738685,12.73559,18.146318Q12.72118,18.218767,12.69291,18.287013Q12.66464,18.355258,12.6236,18.416678Q12.58256,18.478096999999998,12.53033,18.53033Q12.4781,18.582563,12.41668,18.623601999999998Q12.35526,18.664641,12.28701,18.69291Q12.21877,18.721178,12.14632,18.735589Q12.07387,18.75,12,18.75L10,18.75Q9.9261315,18.75,9.853682,18.735589Q9.781233,18.721178,9.712987,18.69291Q9.644742,18.664641,9.583322,18.623601999999998Q9.521903,18.582563,9.46967,18.53033Q9.417437,18.478096999999998,9.376398,18.416678Q9.335359,18.355258,9.30709,18.287013Q9.278822,18.218767,9.264410999999999,18.146318Q9.25,18.0738685,9.25,18Q9.25,17.9261315,9.264410999999999,17.853682Q9.278822,17.781233,9.30709,17.712987Q9.335359,17.644742,9.376398,17.583322Q9.417437,17.521903000000002,9.46967,17.46967Q9.521903,17.417437,9.583322,17.376398000000002Q9.644742,17.335359,9.712987,17.30709Q9.781233,17.278822,9.853682,17.264411Q9.9261315,17.25,10,17.25Z" fill-rule="evenodd" fill="#2882FF" fill-opacity="1"/></g></g></svg>