<svg xmlns="http://www.w3.org/2000/svg" xmlns:xlink="http://www.w3.org/1999/xlink" fill="none" version="1.1" width="24" height="24" viewBox="0 0 24 24"><defs><clipPath id="master_svg0_72_04805"><rect x="0" y="0" width="24" height="24" rx="0"/></clipPath></defs><g clip-path="url(#master_svg0_72_04805)"><g><g><g><path d="M6,6.5L6,8.5C6,8.77614,6.223858,9,6.5,9L8.5,9C8.77614,9,9,8.77614,9,8.5L9,6.5C9,6.223858,8.77614,6,8.5,6L6.5,6C6.223858,6,6,6.223858,6,6.5Z" fill="#2882FF" fill-opacity="1"/></g><g><path d="M11,8.5C11,8.77614,11.223858,9,11.5,9L17.5,9C17.776139999999998,9,18,8.77614,18,8.5L18,6.5C18,6.223858,17.776139999999998,6,17.5,6L11.5,6C11.223858,6,11,6.223858,11,6.5L11,8.5Z" fill="#2882FF" fill-opacity="1"/></g><g><path d="M6,11.5L6,17.5C6,17.776139999999998,6.223858,18,6.5,18L8.5,18C8.77614,18,9,17.776139999999998,9,17.5L9,11.5C9,11.223858,8.77614,11,8.5,11L6.5,11C6.223858,11,6,11.223858,6,11.5Z" fill="#2882FF" fill-opacity="1"/></g><g><path d="M19.25,11.5L19.25,15.75Q19.25,15.8239,19.2644,15.8963Q19.2788,15.9688,19.3071,16.037Q19.3354,16.1053,19.3764,16.1667Q19.4174,16.228099999999998,19.4697,16.2803Q19.5219,16.3326,19.5833,16.3736Q19.6447,16.4146,19.713,16.4429Q19.7812,16.4712,19.8537,16.485599999999998Q19.9261,16.5,20,16.5Q20.0739,16.5,20.1463,16.485599999999998Q20.2188,16.4712,20.287,16.4429Q20.3553,16.4146,20.4167,16.3736Q20.4781,16.3326,20.5303,16.2803Q20.5826,16.228099999999998,20.6236,16.1667Q20.6646,16.1053,20.6929,16.037Q20.7212,15.9688,20.7356,15.8963Q20.75,15.8239,20.75,15.75L20.75,4.5Q20.75,3.568019,20.091,2.9090098Q19.432,2.25,18.5,2.25L4.5,2.25Q3.5680199999999997,2.25,2.9090098,2.9090098Q2.25,3.568019,2.25,4.5L2.25,18.5Q2.25,19.432,2.9090098,20.091Q3.568019,20.75,4.5,20.75L15.75,20.75Q15.8239,20.75,15.8963,20.7356Q15.9688,20.7212,16.037,20.6929Q16.1053,20.6646,16.1667,20.6236Q16.228099999999998,20.5826,16.2803,20.5303Q16.3326,20.4781,16.3736,20.4167Q16.4146,20.3553,16.4429,20.287Q16.4712,20.2188,16.485599999999998,20.1463Q16.5,20.0739,16.5,20Q16.5,19.9261,16.485599999999998,19.8537Q16.4712,19.7812,16.4429,19.713Q16.4146,19.6447,16.3736,19.5833Q16.3326,19.5219,16.2803,19.4697Q16.228099999999998,19.4174,16.1667,19.3764Q16.1053,19.3354,16.037,19.3071Q15.9688,19.2788,15.8963,19.2644Q15.8239,19.25,15.75,19.25L4.5,19.25Q3.75,19.25,3.75,18.5L3.75,4.5Q3.75,3.75,4.5,3.75L18.5,3.75Q19.25,3.75,19.25,4.5L19.25,11.5Z" fill-rule="evenodd" fill="#231F2E" fill-opacity="1"/></g></g></g><g><g><path d="M21.64351,14.356494C21.1681,13.881168,20.3974,13.881168,19.922,14.356494L19.38541,14.893075L21.10693,16.61459L21.64351,16.07801C22.118830000000003,15.6026,22.118830000000003,14.8319,21.64351,14.356494ZM20.61487,17.106650000000002L18.893349999999998,15.38513L14.997694,19.2808C14.71148,19.56687,14.50108,19.91976,14.385519,20.30758L14.0145036,21.5528C13.9780114,21.67522,14.011558,21.80779,14.101885,21.89812C14.192212,21.98844,14.324782,22.021990000000002,14.4472,21.985500000000002L15.69242,21.61448C16.08024,21.49892,16.43313,21.28852,16.7192,21.00231L20.61487,17.106650000000002Z" fill="#13943C" fill-opacity="1"/><path d="M21.675530000000002,17.106650000000002L22.17384,16.60834L22.17388,16.60829Q22.75,16.03207,22.75,15.21725Q22.75,14.402426,22.17388,13.826209Q21.59758,13.25,20.78275,13.25Q19.96793,13.25,19.39171,13.82612L18.89336,14.324474L18.32475,14.893075L14.467364,18.75047Q13.897066,19.32048,13.666751,20.0934L13.29573,21.338639999999998Q13.108807,21.9657,13.571555,22.428449999999998Q14.0343072,22.89119,14.661455,22.70424L15.90658,22.33325Q16.67943,22.10296,17.24954,21.53264L21.675530000000002,17.106650000000002L21.675530000000002,17.106650000000002ZM19.55421,17.106650000000002L18.893349999999998,16.44579L15.52802,19.81113Q15.22613,20.11287,15.10429,20.52176L14.94558,21.05442L15.47826,20.89571Q15.887129999999999,20.77387,16.18874,20.47211L16.18887,20.471980000000002L19.55421,17.106650000000002ZM21.10693,15.55393L21.11318,15.54768Q21.44352,15.21723,21.113129999999998,14.88678Q20.78275,14.556454,20.452280000000002,14.886869L20.44607,14.893075L21.10693,15.55393Z" fill-rule="evenodd" fill="#FFFFFF" fill-opacity="1"/></g><g><path d="M21.64351,14.356494C21.1681,13.881168,20.3974,13.881168,19.922,14.356494L19.38541,14.893075L21.10693,16.61459L21.64351,16.07801C22.118830000000003,15.6026,22.118830000000003,14.8319,21.64351,14.356494ZM20.61487,17.106650000000002L18.893349999999998,15.38513L14.997694,19.2808C14.71148,19.56687,14.50108,19.91976,14.385519,20.30758L14.0145036,21.5528C13.9780114,21.67522,14.011558,21.80779,14.101885,21.89812C14.192212,21.98844,14.324782,22.021990000000002,14.4472,21.985500000000002L15.69242,21.61448C16.08024,21.49892,16.43313,21.28852,16.7192,21.00231L20.61487,17.106650000000002Z" fill="#2882FF" fill-opacity="1"/></g></g></g></svg>