<svg xmlns="http://www.w3.org/2000/svg" xmlns:xlink="http://www.w3.org/1999/xlink" fill="none" version="1.1" width="24" height="24" viewBox="0 0 24 24"><defs><clipPath id="master_svg0_83_06167"><rect x="0" y="0" width="24" height="24" rx="0"/></clipPath></defs><g clip-path="url(#master_svg0_83_06167)"><g></g><g><path d="M20.6708,7.6645900000000005Q20.6164,7.5557300000000005,20.5303,7.46967Q20.4443,7.38361,20.3354,7.32918L12.33541,3.32918Q12.2573,3.290127,12.17231,3.270063Q12.08733,3.25,12,3.25Q11.91267,3.25,11.82769,3.270063Q11.7427,3.290127,11.66459,3.32918L3.66459,7.32918Q3.531155,7.3959,3.43341,7.5085999999999995Q3.335664,7.6213,3.288488,7.76283Q3.241311,7.9043600000000005,3.251887,8.05317Q3.262462,8.201979999999999,3.32918,8.33541Q3.383609,8.44427,3.46967,8.53033Q3.5557309999999998,8.616389999999999,3.66459,8.670819999999999L11.66459,12.67082Q11.7427,12.70987,11.82769,12.72994Q11.91267,12.75,12,12.75Q12.08733,12.75,12.17231,12.72994Q12.2573,12.70987,12.33541,12.67082L20.3354,8.670819999999999Q20.4688,8.604099999999999,20.5666,8.491399999999999Q20.6643,8.3787,20.7115,8.237169999999999Q20.7587,8.09564,20.7481,7.94683Q20.7375,7.79802,20.6708,7.6645900000000005ZM18.3229,8L12,4.838525L5.6770499999999995,8L12,11.16147L18.3229,8Z" fill-rule="evenodd" fill="#231F2E" fill-opacity="1"/></g><g><path d="M4.335631,15.32929L12,19.16147L19.6643,15.329322L19.6646,15.329180000000001Q19.8229,15.25,20,15.25Q20.0739,15.25,20.1463,15.264410999999999Q20.2188,15.278822,20.287,15.30709Q20.3553,15.335359,20.4167,15.376398Q20.4781,15.417437,20.5303,15.46967Q20.5826,15.521903,20.6236,15.583322Q20.6646,15.644742,20.6929,15.712987Q20.7212,15.781233,20.7356,15.853682Q20.75,15.9261315,20.75,16Q20.75,16.104463,20.7215,16.20495Q20.6929,16.305437,20.638,16.394298Q20.5831,16.48316,20.506,16.553631Q20.4288,16.624103,20.3354,16.67082L12.33541,20.67082Q12.2573,20.70987,12.17231,20.72994Q12.08733,20.75,12,20.75Q11.91267,20.75,11.82769,20.72994Q11.7427,20.70987,11.66459,20.67082L3.664811,16.670931L3.66459,16.67082Q3.571155,16.624103,3.494043,16.553631Q3.416931,16.48316,3.362012,16.394298Q3.307093,16.305437,3.278546,16.20495Q3.25,16.104463,3.25,16Q3.25,15.9261315,3.264411,15.853682Q3.278822,15.781233,3.30709,15.712987Q3.335359,15.644742,3.376398,15.583322Q3.417437,15.521903,3.46967,15.46967Q3.521903,15.417437,3.583322,15.376398Q3.644742,15.335359,3.712987,15.30709Q3.781233,15.278822,3.853682,15.264410999999999Q3.9261315,15.25,4,15.25Q4.177051,15.25,4.3354099999999995,15.329180000000001L4.335631,15.32929Z" fill-rule="evenodd" fill="#231F2E" fill-opacity="1"/></g><g><path d="M4.335631,11.32929L12,15.16147L19.6643,11.329322L19.6646,11.329180000000001Q19.8229,11.25,20,11.25Q20.0739,11.25,20.1463,11.264410999999999Q20.2188,11.278822,20.287,11.30709Q20.3553,11.335359,20.4167,11.376398Q20.4781,11.417437,20.5303,11.46967Q20.5826,11.521903,20.6236,11.583322Q20.6646,11.644742,20.6929,11.712987Q20.7212,11.781233,20.7356,11.853682Q20.75,11.9261315,20.75,12Q20.75,12.104463,20.7215,12.20495Q20.6929,12.305437,20.638,12.394298Q20.5831,12.48316,20.506,12.553631Q20.4288,12.624103,20.3354,12.670819999999999L12.33541,16.67082Q12.2573,16.70987,12.17231,16.72994Q12.08733,16.75,12,16.75Q11.91267,16.75,11.82769,16.72994Q11.7427,16.70987,11.66459,16.67082L3.664811,12.670931L3.66459,12.670819999999999Q3.571155,12.624103,3.494043,12.553631Q3.416931,12.48316,3.362012,12.394298Q3.307093,12.305437,3.278546,12.20495Q3.25,12.104463,3.25,12Q3.25,11.9261315,3.264411,11.853682Q3.278822,11.781233,3.30709,11.712987Q3.335359,11.644742,3.376398,11.583322Q3.417437,11.521903,3.46967,11.46967Q3.521903,11.417437,3.583322,11.376398Q3.644742,11.335359,3.712987,11.30709Q3.781233,11.278822,3.853682,11.264410999999999Q3.9261315,11.25,4,11.25Q4.177051,11.25,4.3354099999999995,11.329180000000001L4.335631,11.32929Z" fill-rule="evenodd" fill="#231F2E" fill-opacity="1"/></g><g><g><path d="M18.23791,15.76304L23.236530000000002,20.76166L23.23744,20.76256Q23.35931,20.88444,23.45507,21.02775Q23.55083,21.17106,23.61679,21.3303Q23.68275,21.489539999999998,23.71637,21.65859Q23.75,21.82764,23.75,22Q23.75,22.08597,23.74157,22.17153Q23.733150000000002,22.257089999999998,23.71637,22.34141Q23.6996,22.42573,23.67464,22.508Q23.64969,22.59027,23.61679,22.66969Q23.58389,22.749119999999998,23.54336,22.824939999999998Q23.50283,22.90076,23.45507,22.97225Q23.40731,23.04373,23.35277,23.11019Q23.29823,23.176650000000002,23.23744,23.23744Q23.176650000000002,23.29823,23.11019,23.35277Q23.04373,23.40731,22.97225,23.45507Q22.90076,23.50283,22.824939999999998,23.54336Q22.749119999999998,23.58389,22.66969,23.61679Q22.59027,23.64969,22.508,23.67464Q22.42573,23.6996,22.34141,23.71637Q22.257089999999998,23.733150000000002,22.17153,23.74157Q22.08597,23.75,22,23.75Q21.82764,23.75,21.65859,23.71637Q21.489539999999998,23.68275,21.3303,23.61679Q21.17106,23.55083,21.02775,23.45507Q20.88444,23.35931,20.76256,23.23744L20.76166,23.236530000000002L15.76304,18.23791L15.76256,18.23744Q15.64069,18.11556,15.54493,17.972248Q15.44917,17.828936,15.38321,17.669696Q15.31725,17.510456,15.28363,17.341408Q15.25,17.17236,15.25,17Q15.25,16.914028,15.25843,16.82847Q15.26685,16.742912,15.28363,16.658592Q15.3004,16.574272,15.32535,16.492002Q15.35031,16.409731999999998,15.38321,16.330304Q15.41611,16.250876,15.45664,16.175056Q15.497160000000001,16.099235,15.54493,16.027752Q15.59269,15.95627,15.64723,15.88981Q15.70177,15.82335,15.76256,15.76256Q15.82335,15.70177,15.88981,15.64723Q15.95627,15.59269,16.027752,15.54493Q16.099235,15.497160000000001,16.175056,15.45664Q16.250876,15.41611,16.330304,15.38321Q16.409731999999998,15.35031,16.492002,15.32535Q16.574272,15.3004,16.658592,15.28363Q16.742912,15.26685,16.82847,15.25843Q16.914028,15.25,17,15.25Q17.17236,15.25,17.341408,15.28363Q17.510456,15.31725,17.669696,15.38321Q17.828936,15.44917,17.972248,15.54493Q18.11556,15.64069,18.23744,15.76256L18.23791,15.76304Z" fill-rule="evenodd" fill="#FFFFFF" fill-opacity="1"/></g><g><path d="M23.23744,18.23744Q23.35931,18.11556,23.45507,17.972248Q23.55083,17.828936,23.61679,17.669696Q23.68275,17.510456,23.71637,17.341408Q23.75,17.17236,23.75,17Q23.75,16.914028,23.74157,16.82847Q23.733150000000002,16.742912,23.71637,16.658592Q23.6996,16.574272,23.67464,16.492002Q23.64969,16.409731999999998,23.61679,16.330304Q23.58389,16.250876,23.54336,16.175056Q23.50283,16.099235,23.45507,16.027752Q23.40731,15.95627,23.35277,15.88981Q23.29823,15.82335,23.23744,15.76256Q23.176650000000002,15.70177,23.11019,15.64723Q23.04373,15.59269,22.97225,15.54493Q22.90076,15.497160000000001,22.824939999999998,15.45664Q22.749119999999998,15.41611,22.66969,15.38321Q22.59027,15.35031,22.508,15.32535Q22.42573,15.3004,22.34141,15.28363Q22.257089999999998,15.26685,22.17153,15.25843Q22.08597,15.25,22,15.25Q21.82764,15.25,21.65859,15.28363Q21.489539999999998,15.31725,21.3303,15.38321Q21.17106,15.44917,21.02775,15.54493Q20.88444,15.64069,20.76256,15.76256L20.76209,15.76304L15.76256,20.76256Q15.64069,20.88444,15.54493,21.02775Q15.44917,21.17106,15.38321,21.3303Q15.31725,21.489539999999998,15.28363,21.65859Q15.25,21.82764,15.25,22Q15.25,22.08597,15.25843,22.17153Q15.26685,22.257089999999998,15.28363,22.34141Q15.3004,22.42573,15.32535,22.508Q15.35031,22.59027,15.38321,22.66969Q15.41611,22.749119999999998,15.45664,22.824939999999998Q15.497160000000001,22.90076,15.54493,22.97225Q15.59269,23.04373,15.64723,23.11019Q15.70177,23.176650000000002,15.76256,23.23744Q15.82335,23.29823,15.88981,23.35277Q15.95627,23.40731,16.027752,23.45507Q16.099235,23.50283,16.175056,23.54336Q16.250876,23.58389,16.330304,23.61679Q16.409731999999998,23.64969,16.492002,23.67464Q16.574272,23.6996,16.658592,23.71637Q16.742912,23.733150000000002,16.82847,23.74157Q16.914028,23.75,17,23.75Q17.17236,23.75,17.341408,23.71637Q17.510456,23.68275,17.669696,23.61679Q17.828936,23.55083,17.972248,23.45507Q18.11556,23.35931,18.23744,23.23744L18.23834,23.236530000000002L23.23744,18.23744L23.23744,18.23744Z" fill-rule="evenodd" fill="#FFFFFF" fill-opacity="1"/></g></g><g><g><path d="M17.530484,16.469824L22.5297,21.46904L22.53033,21.46967Q22.63582,21.57516,22.69291,21.712989999999998Q22.75,21.85082,22.75,22Q22.75,22.07387,22.735590000000002,22.14632Q22.72118,22.21877,22.69291,22.287010000000002Q22.66464,22.35526,22.6236,22.41668Q22.58256,22.4781,22.53033,22.53033Q22.4781,22.58256,22.41668,22.6236Q22.35526,22.66464,22.287010000000002,22.69291Q22.21877,22.72118,22.14632,22.735590000000002Q22.07387,22.75,22,22.75Q21.85082,22.75,21.712989999999998,22.69291Q21.57516,22.63582,21.46967,22.53033L21.46904,22.5297L16.469824,17.530484L16.46967,17.53033Q16.364181,17.424841,16.30709,17.287013Q16.25,17.149184,16.25,17Q16.25,16.9261315,16.264411,16.853682Q16.278822,16.781233,16.30709,16.712987Q16.335359,16.644742,16.376398000000002,16.583322Q16.417437,16.521903000000002,16.46967,16.46967Q16.521903000000002,16.417437,16.583322,16.376398000000002Q16.644742,16.335359,16.712987,16.30709Q16.781233,16.278822,16.853682,16.264411Q16.9261315,16.25,17,16.25Q17.149184,16.25,17.287013,16.30709Q17.424841,16.364181,17.53033,16.46967L17.530484,16.469824Z" fill-rule="evenodd" fill="#DE1000" fill-opacity="1"/></g><g><path d="M22.53033,17.53033Q22.63582,17.424841,22.69291,17.287013Q22.75,17.149184,22.75,17Q22.75,16.9261315,22.735590000000002,16.853682Q22.72118,16.781233,22.69291,16.712987Q22.66464,16.644742,22.6236,16.583322Q22.58256,16.521903000000002,22.53033,16.46967Q22.4781,16.417437,22.41668,16.376398000000002Q22.35526,16.335359,22.287010000000002,16.30709Q22.21877,16.278822,22.14632,16.264411Q22.07387,16.25,22,16.25Q21.85082,16.25,21.712989999999998,16.30709Q21.57516,16.364181,21.46967,16.46967L21.46921,16.470132L16.470132,21.46921L16.46967,21.46967Q16.364181,21.57516,16.30709,21.712989999999998Q16.25,21.85082,16.25,22Q16.25,22.07387,16.264411,22.14632Q16.278822,22.21877,16.30709,22.287010000000002Q16.335359,22.35526,16.376398000000002,22.41668Q16.417437,22.4781,16.46967,22.53033Q16.521903000000002,22.58256,16.583322,22.6236Q16.644742,22.66464,16.712987,22.69291Q16.781233,22.72118,16.853682,22.735590000000002Q16.9261315,22.75,17,22.75Q17.149184,22.75,17.287013,22.69291Q17.424841,22.63582,17.53033,22.53033L17.530792,22.52987L22.52987,17.530792L22.53033,17.53033L22.53033,17.53033Z" fill-rule="evenodd" fill="#DE1000" fill-opacity="1"/></g></g></g></svg>