<svg xmlns="http://www.w3.org/2000/svg" xmlns:xlink="http://www.w3.org/1999/xlink" fill="none" version="1.1" width="24" height="24" viewBox="0 0 24 24"><defs><clipPath id="master_svg0_72_04581"><rect x="0" y="0" width="24" height="24" rx="0"/></clipPath><clipPath id="master_svg1_75_02621"><rect x="1" y="0" width="22" height="22" rx="0"/></clipPath></defs><g clip-path="url(#master_svg0_72_04581)"><g clip-path="url(#master_svg1_75_02621)"><g></g><g><path d="M5.57416625,11.790179171875C5.91742625,14.264286171875,7.64635625,16.323666171875,10.02365625,17.090126171875C12.40095625,17.856586171875,15.00720625,17.194876171875002,16.73090625,15.387176171875C16.65070625,15.201976171875,16.60240625,15.004566171875,16.58790625,14.803266171875L16.58330625,14.666676171875L16.58790625,14.529176171875001C16.66440625,13.510446171875,17.55880625,12.750756171875,18.57650625,12.840136171875C19.59420625,12.929526171875,20.34250625,13.833496171875,20.24020625,14.849966171875C20.13800625,15.866436171875,19.22460625,16.603226171875,18.20950625,16.488096171875C16.036306250000003,18.893276171875,12.66637625,19.821486171875,9.56813625,18.868276171875C6.46988625,17.915056171875,4.20453925,15.253086171875001,3.75916719,12.042266171875C3.70655995,11.550057171875,4.05423425,11.104991871875,4.5445382500000004,11.036894241875C5.03484625,10.968796571875,5.49064625,11.302268171875,5.57416625,11.790179171875Z" fill="#F97316" fill-opacity="1"/></g><g><path d="M11.99998298828125,7.33331298828125C14.00119298828125,7.33331473668125,15.63277298828125,8.93791298828125,15.66613298828125,10.93885298828125C15.69950298828125,12.93978298828125,14.122322988281251,14.597882988281249,12.12222298828125,14.664612988281249C10.12213298828125,14.731332988281249,8.43795698828125,13.18202298828125,8.33789642828125,11.18331298828125L8.33331298828125,10.99998298828125L8.33789642828125,10.81664298828125C8.43558498828125,8.86530298828125,10.04619298828125,7.33331298828125,11.99998298828125,7.33331298828125Z" fill="#231F2E" fill-opacity="1" style="mix-blend-mode:passthrough"/></g><g><path d="M13.04683,2.8325187828125C16.776600000000002,3.3141073828125,19.723,6.2319173828125,20.2408,9.9568473828125C20.2949,10.4497073828125,19.9473,10.8962173828125,19.456200000000003,10.9646673828125C18.9651,11.0331273828125,18.5086,10.6987073828125,18.425800000000002,10.2098473828125C18.0217,7.3029973828125,15.722,5.0262473828125,12.81125,4.6511873828125C10.75689,4.3837473828124995,8.698,5.1108973828124995,7.267250000000001,6.6091873828125C7.71654,7.6506073828125,7.12194,8.8460373828125,6.0203299999999995,9.1160473828125C4.91873,9.3860573828125,3.8387197,8.6010873828125,3.75550004,7.4699373828125L3.75,7.3333473828125L3.75458344,7.1958473828125C3.8323056,6.1602873828125,4.75383,5.3959473828124995,5.78592,5.511017382812501C7.62,3.4807163828125,10.33363,2.4796803828125,13.04683,2.8325187828125Z" fill="#231F2E" fill-opacity="1" style="mix-blend-mode:passthrough"/></g></g></g></svg>