<svg xmlns="http://www.w3.org/2000/svg" xmlns:xlink="http://www.w3.org/1999/xlink" fill="none" version="1.1" width="24" height="24" viewBox="0 0 24 24"><defs><clipPath id="master_svg0_74_12710"><rect x="0" y="0" width="24" height="24" rx="0"/></clipPath></defs><g clip-path="url(#master_svg0_74_12710)"><g><path d="M7.249998371810913,18.75001287460327L6.0000183718109135,18.75001287460327Q4.446718371810913,18.75001287460327,3.348376371810913,17.651612874603273Q2.250030371810913,16.55331287460327,2.2500293718109132,15.000012874603271L2.250028371810913,7.000022874603271Q2.250028371810913,5.446722874603271,3.348377371810913,4.348368874603271Q4.446728371810913,3.2500188746032714,6.000028371810913,3.2500178746032713L18.000028371810913,3.2500138746032716Q19.553328371810913,3.2500128746032715,20.65162837181091,4.348365874603272Q21.750028371810913,5.446712874603271,21.750028371810913,7.000022874603271L21.749928371810913,15.000012874603271Q21.749928371810913,16.55331287460327,20.65162837181091,17.651612874603273Q19.553228371810913,18.75001287460327,18.000028371810913,18.75001287460327L13.207728371810914,18.75001287460327L8.385868371810913,21.643112874603272Q8.322528371810913,21.681112874603272,8.252988371810913,21.70601287460327Q8.183448371810913,21.73091287460327,8.110388371810913,21.741812874603273Q8.037318371810912,21.752712874603272,7.963538371810913,21.74911287460327Q7.889758371810913,21.74551287460327,7.818098371810913,21.72761287460327Q7.746438371810913,21.709712874603273,7.679648371810913,21.678112874603272Q7.612848371810913,21.64661287460327,7.553498371810913,21.60261287460327Q7.494148371810913,21.55861287460327,7.444518371810913,21.503912874603273Q7.3948883718109135,21.449212874603273,7.356878371810913,21.38591287460327Q7.249998371810913,21.20771287460327,7.249998371810913,21.00001287460327L7.249998371810913,18.75001287460327ZM8.749998371810914,18.00001287460327Q8.749998371810914,17.92611287460327,8.735588371810913,17.85371287460327Q8.721178371810913,17.78121287460327,8.692908371810912,17.713012874603272Q8.664638371810913,17.64471287460327,8.623598371810914,17.583312874603273Q8.582558371810913,17.521912874603274,8.530328371810914,17.46971287460327Q8.478098371810912,17.417412874603272,8.416678371810914,17.37641287460327Q8.355258371810912,17.33531287460327,8.287018371810912,17.30711287460327Q8.218768371810913,17.278812874603272,8.146318371810914,17.264412874603273Q8.073868371810914,17.25001287460327,7.999998371810913,17.25001287460327L6.000028371810913,17.25001287460327Q5.068048371810914,17.25001287460327,4.409038371810913,16.591012874603273Q3.750030371810913,15.932012874603272,3.7500293718109132,15.000012874603271L3.750028371810913,7.000022874603271Q3.750028371810913,6.068042874603272,4.409038371810913,5.409032874603271Q5.068048371810914,4.750017874603271,6.000028371810913,4.750017874603271L18.000028371810913,4.750013874603272Q18.931928371810912,4.750013874603272,19.591028371810914,5.409022874603272Q20.250028371810913,6.068032874603272,20.250028371810913,7.000022874603271L20.249928371810913,15.000012874603271Q20.249928371810913,15.932012874603272,19.590928371810914,16.591012874603273Q18.931928371810912,17.25001287460327,18.000028371810913,17.25001287460327L12.999998371810912,17.25001287460327Q12.792258371810913,17.25001287460327,12.614128371810914,17.35691287460327L8.749998371810914,19.67531287460327L8.749998371810914,18.00001287460327Z" fill-rule="evenodd" fill="#231F2E" fill-opacity="1"/></g><g><path d="M15.35876,7.641243Q13.96751,6.25,12,6.25Q10.03249,6.25,8.641243,7.641243Q7.25,9.03249,7.25,11Q7.25,12.96751,8.641243,14.35876Q10.03249,15.75,12,15.75Q13.96751,15.75,15.35876,14.35876Q16.75,12.96752,16.75,11Q16.75,9.03249,15.35876,7.641243ZM9.7019,8.7019Q10.65381,7.75,12,7.75Q13.34619,7.75,14.2981,8.7019Q15.25,9.65381,15.25,11Q15.25,12.34619,14.2981,13.2981Q13.34619,14.25,12,14.25Q10.65381,14.25,9.7019,13.2981Q8.75,12.34619,8.75,11Q8.75,9.65381,9.7019,8.7019Z" fill-rule="evenodd" fill="#2882FF" fill-opacity="1"/></g><g><path d="M11.25,9.5Q11.25,9.4261315,11.264410999999999,9.353682Q11.278822,9.281233,11.30709,9.212987Q11.335359,9.144742,11.376398,9.083322Q11.417437,9.021903,11.46967,8.96967Q11.521903,8.917437,11.583322,8.876398Q11.644742,8.835359,11.712987,8.80709Q11.781233,8.778822,11.853682,8.764410999999999Q11.9261315,8.75,12,8.75Q12.0738685,8.75,12.146318,8.764410999999999Q12.218767,8.778822,12.287013,8.80709Q12.355258,8.835359,12.416678,8.876398Q12.478097,8.917437,12.53033,8.96967Q12.582563,9.021903,12.623602,9.083322Q12.664641,9.144742,12.69291,9.212987Q12.721178,9.281233,12.735589000000001,9.353682Q12.75,9.4261315,12.75,9.5L12.75,10.68934L13.03033,10.96967Q13.13582,11.07516,13.19291,11.21299Q13.25,11.35082,13.25,11.5Q13.25,11.57387,13.23559,11.64632Q13.22118,11.71877,13.19291,11.78701Q13.16464,11.85526,13.1236,11.91668Q13.08256,11.9781,13.03033,12.03033Q12.978097,12.08256,12.916678,12.1236Q12.855258,12.16464,12.787013,12.19291Q12.718767,12.22118,12.646318,12.23559Q12.573869,12.25,12.5,12.25Q12.350816,12.25,12.212987,12.19291Q12.0751592,12.135819999999999,11.96967,12.03033L11.46967,11.53033Q11.364181,11.42484,11.30709,11.28701Q11.25,11.14918,11.25,11L11.25,9.5Z" fill-rule="evenodd" fill="#2882FF" fill-opacity="1"/></g></g></svg>