<svg xmlns="http://www.w3.org/2000/svg" xmlns:xlink="http://www.w3.org/1999/xlink" fill="none" version="1.1" width="24" height="24" viewBox="0 0 24 24"><defs><clipPath id="master_svg0_72_04936"><rect x="0" y="0" width="24" height="24" rx="0"/></clipPath></defs><g clip-path="url(#master_svg0_72_04936)"><g><g><g><path d="M2.25,15.75L2.25,7.25L8.550049999999999,7.25L8.550049999999999,15.75L2.25,15.75ZM7.05005,8.75L3.75,8.75L3.75,14.25L7.05005,14.25L7.05005,8.75Z" fill-rule="evenodd" fill="#736F78" fill-opacity="1"/></g><g><path d="M7.050048828125,19.75L7.050048828125,14.25L17.050048828125,14.25L17.050048828125,19.75L7.050048828125,19.75ZM15.550048828125,15.75L8.550048828125,15.75L8.550048828125,18.25L15.550048828125,18.25L15.550048828125,15.75Z" fill-rule="evenodd" fill="#736F78" fill-opacity="1"/></g><g><path d="M15.550048828125,15.75L15.550048828125,7.25L21.749998828125,7.25L21.749998828125,15.75L15.550048828125,15.75ZM20.249998828125,8.75L17.050048828125,8.75L17.050048828125,14.25L20.249998828125,14.25L20.249998828125,8.75Z" fill-rule="evenodd" fill="#736F78" fill-opacity="1"/></g><g><path d="M7.050048828125,8.75L7.050048828125,3.25L17.050048828125,3.25L17.050048828125,8.75L7.050048828125,8.75ZM15.550048828125,4.75L8.550048828125,4.75L8.550048828125,7.25L15.550048828125,7.25L15.550048828125,4.75Z" fill-rule="evenodd" fill="#736F78" fill-opacity="1"/></g><g><path d="M7.800048828125,8L7.800048828125,15L16.300048828125,15L16.300048828125,8L7.800048828125,8Z" fill="#2882FF" fill-opacity="0.20000000298023224"/><path d="M7.050048828125,15.75L7.050048828125,7.25L17.050048828125,7.25L17.050048828125,15.75L7.050048828125,15.75ZM15.550048828125,8.75L8.550048828125,8.75L8.550048828125,14.25L15.550048828125,14.25L15.550048828125,8.75Z" fill-rule="evenodd" fill="#2882FF" fill-opacity="1"/></g></g><g><path d="M20.25,5.5L20.25,15.5Q20.25,15.5739,20.2644,15.6463Q20.2788,15.7188,20.3071,15.787Q20.3354,15.8553,20.3764,15.9167Q20.4174,15.9781,20.4697,16.0303Q20.5219,16.0826,20.5833,16.1236Q20.6447,16.1646,20.713,16.1929Q20.7812,16.2212,20.8537,16.235599999999998Q20.9261,16.25,21,16.25Q21.0739,16.25,21.1463,16.235599999999998Q21.2188,16.2212,21.287,16.1929Q21.3553,16.1646,21.4167,16.1236Q21.4781,16.0826,21.5303,16.0303Q21.5826,15.9781,21.6236,15.9167Q21.6646,15.8553,21.6929,15.787Q21.7212,15.7188,21.7356,15.6463Q21.75,15.5739,21.75,15.5L21.75,15.4983L21.75,5.5Q21.75,4.56802,21.091,3.9090096Q20.432,3.25,19.5,3.25L4.5,3.25Q3.5680199999999997,3.25,2.90901,3.9090098Q2.25,4.568019,2.25,5.5L2.25,17.5Q2.25,18.432000000000002,2.90901,19.091Q3.568019,19.75,4.5,19.75L17.5,19.75Q17.573900000000002,19.75,17.6463,19.735599999999998Q17.7188,19.7212,17.787,19.6929Q17.8553,19.6646,17.9167,19.6236Q17.978099999999998,19.5826,18.0303,19.5303Q18.0826,19.478099999999998,18.1236,19.4167Q18.1646,19.3553,18.1929,19.287Q18.2212,19.2188,18.235599999999998,19.1463Q18.25,19.073900000000002,18.25,19Q18.25,18.926099999999998,18.235599999999998,18.8537Q18.2212,18.7812,18.1929,18.713Q18.1646,18.6447,18.1236,18.5833Q18.0826,18.521900000000002,18.0303,18.4697Q17.978099999999998,18.4174,17.9167,18.3764Q17.8553,18.3354,17.787,18.3071Q17.7188,18.2788,17.6463,18.264400000000002Q17.573900000000002,18.25,17.5,18.25L4.5,18.25Q3.75,18.25,3.75,17.5L3.75,5.5Q3.75,5.18934,3.96967,4.96967Q4.18934,4.75,4.5,4.75L19.5,4.75Q20.25,4.75,20.25,5.5Z" fill-rule="evenodd" fill="#231F2E" fill-opacity="1"/></g></g><g><g><g><path d="M13.25,16.37021L13.25,17.87294Q13.25,17.95892,13.25843,18.04447Q13.26685,18.13003,13.28363,18.21435Q13.3004,18.29867,13.32535,18.38094Q13.35031,18.46321,13.38321,18.54264Q13.41611,18.62207,13.45664,18.69789Q13.497160000000001,18.77371,13.54493,18.84519Q13.59269,18.91668,13.64723,18.98313Q13.70177,19.04959,13.76256,19.11038Q13.82335,19.17117,13.88981,19.22571Q13.95627,19.28025,14.027752,19.32802Q14.099235,19.37578,14.175056,19.41631Q14.250876,19.45683,14.330304,19.48973Q14.409732,19.52263,14.492002,19.54759Q14.574272,19.57255,14.658592,19.58932Q14.742912,19.606090000000002,14.82847,19.61452Q14.914028,19.62294,15,19.62294L16.50273,19.62294Q16.58871,19.62294,16.67426,19.61452Q16.75982,19.606090000000002,16.84414,19.58932Q16.92846,19.57255,17.01073,19.54759Q17.093,19.52263,17.17243,19.48973Q17.25186,19.45683,17.32768,19.41631Q17.4035,19.37578,17.47498,19.32802Q17.54647,19.28025,17.61292,19.22571Q17.679380000000002,19.17117,17.74017,19.11038Q17.80096,19.04959,17.8555,18.98313Q17.91004,18.91668,17.95781,18.84519Q18.00557,18.77371,18.0461,18.69789Q18.08662,18.62207,18.11952,18.54264Q18.15242,18.46321,18.17738,18.38094Q18.20234,18.29867,18.21911,18.21435Q18.23588,18.13003,18.24431,18.04447Q18.25273,17.95892,18.25273,17.87294Q18.25273,17.82388,18.24999,17.7749Q18.62787,17.84828,18.90671,18.12441Q19.05595,18.27221,19.15048,18.45855L19.15106,18.45971Q19.20559,18.56745,19.27439,18.66669Q19.3432,18.76593,19.42499,18.854779999999998Q19.50677,18.94362,19.59999,19.02039Q19.6932,19.09716,19.79608,19.1604Q19.89896,19.22364,20.00954,19.27215Q20.12013,19.32066,20.23633,19.35352Q20.35253,19.38638,20.47215,19.40296Q20.59176,19.41955,20.712519999999998,19.41955Q20.79849,19.41955,20.884050000000002,19.41112Q20.96961,19.4027,21.05393,19.38592Q21.13825,19.36915,21.22052,19.34419Q21.30279,19.31924,21.38222,19.28634Q21.46164,19.25344,21.53747,19.21291Q21.61329,19.17238,21.68477,19.12462Q21.75625,19.07686,21.82271,19.02232Q21.88917,18.96778,21.94996,18.90699Q22.01075,18.84619,22.06529,18.77974Q22.11983,18.71328,22.16759,18.6418Q22.21536,18.57031,22.25588,18.49449Q22.29641,18.41867,22.32931,18.33925Q22.36221,18.25982,22.38717,18.17755Q22.41212,18.09528,22.42889,18.01096Q22.44567,17.92664,22.45409,17.84108Q22.462519999999998,17.75552,22.462519999999998,17.66955Q22.462519999999998,17.25198,22.27398,16.879394L22.27386,16.879159L22.27324,16.877927Q21.922240000000002,16.184887,21.36947,15.637487Q20.21777,14.49698,18.61024,14.28955Q17.09993,14.09468,15.769739,14.79859Q15.405538,14.62021,15,14.62021Q14.914028,14.62021,14.82847,14.62864Q14.742912,14.63706,14.658592,14.65384Q14.574272,14.67061,14.492002,14.69556Q14.409732,14.72052,14.330304,14.75342Q14.250876,14.78632,14.175056,14.82685Q14.099235,14.86737,14.027752,14.915140000000001Q13.95627,14.9629,13.88981,15.017441999999999Q13.82335,15.071982,13.76256,15.132773Q13.70177,15.193564,13.64723,15.260022Q13.59269,15.326478999999999,13.54493,15.397962Q13.497160000000001,15.469445,13.45664,15.545266Q13.41611,15.621086,13.38321,15.700514Q13.35031,15.779942,13.32535,15.862212Q13.3004,15.9444818,13.28363,16.0288019Q13.26685,16.113122,13.25843,16.19868Q13.25,16.284238,13.25,16.37021Z" fill-rule="evenodd" fill="#FFFFFF" fill-opacity="1"/></g><g><path d="M19.508251914062498,18.37701416015625Q19.4222719140625,18.37701416015625,19.3367219140625,18.38544416015625Q19.2511619140625,18.39386416015625,19.166841914062502,18.41064416015625Q19.0825219140625,18.42741416015625,19.0002519140625,18.45236416015625Q18.9179819140625,18.47732416015625,18.8385519140625,18.51022416015625Q18.7591219140625,18.54312416015625,18.6833019140625,18.58365416015625Q18.6074819140625,18.62417416015625,18.5360019140625,18.67194416015625Q18.4645219140625,18.71970416015625,18.3980619140625,18.77424416015625Q18.3316019140625,18.82878416015625,18.2708119140625,18.88957416015625Q18.2100219140625,18.95036416015625,18.1554819140625,19.01682416015625Q18.1009419140625,19.08328416015625,18.0531719140625,19.15476616015625Q18.0054119140625,19.22624916015625,17.9648819140625,19.30207016015625Q17.9243619140625,19.37789016015625,17.8914619140625,19.45731816015625Q17.8585619140625,19.536746160156248,17.8336019140625,19.61901616015625Q17.8086419140625,19.70128616015625,17.7918719140625,19.78560616015625Q17.7751019140625,19.86992616015625,17.7666719140625,19.95548416015625Q17.758251914062498,20.04104216015625,17.758251914062498,20.12701416015625Q17.758251914062498,20.17607526015625,17.7610019140625,20.22505926015625Q17.3831119140625,20.15167426015625,17.1042719140625,19.87554416015625Q16.954571914062498,19.72729516015625,16.8599219140625,19.54025116015625Q16.8053919140625,19.43250316015625,16.7365919140625,19.33326516015625Q16.667781914062502,19.23402816015625,16.5859919140625,19.14518216015625Q16.504211914062502,19.05633416015625,16.4109919140625,18.97956416015625Q16.3177819140625,18.90279416015625,16.2149019140625,18.83955416015625Q16.1120259140625,18.77631416015625,16.0014389140625,18.72781416015625Q15.8908519140625,18.67930416015625,15.7746499140625,18.64644416015625Q15.6584479140625,18.61358416015625,15.5388339140625,18.59699416015625Q15.4192199140625,18.58040416015625,15.2984619140625,18.58040416015625Q15.2124899140625,18.58040416015625,15.1269319140625,18.58883416015625Q15.0413739140625,18.59726416015625,14.9570539140625,18.61403416015625Q14.8727339140625,18.63080416015625,14.7904639140625,18.65576416015625Q14.7081939140625,18.68072416015625,14.6287659140625,18.71362416015625Q14.5493379140625,18.74652416015625,14.4735179140625,18.78704416015625Q14.3976969140625,18.82757416015625,14.3262139140625,18.87533416015625Q14.2547319140625,18.92310416015625,14.1882719140625,18.97764416015625Q14.1218119140625,19.03218416015625,14.0610219140625,19.09297416015625Q14.0002319140625,19.15376316015625,13.9456919140625,19.22022016015625Q13.8911519140625,19.28667816015625,13.8433919140625,19.35816116015625Q13.795621914062501,19.42964416015625,13.7551019140625,19.50546416015625Q13.7145719140625,19.58128516015625,13.6816719140625,19.66071316015625Q13.6487719140625,19.74014016015625,13.6238119140625,19.82241016015625Q13.5988619140625,19.90468016015625,13.5820919140625,19.98900116015625Q13.5653119140625,20.07332076015625,13.5568919140625,20.15887876015625Q13.5484619140625,20.24443716015625,13.5484619140625,20.33040916015625Q13.5484619140625,20.74798216015625,13.7370019140625,21.12056616015625Q14.0881519140625,21.81449416015625,14.6415139140625,22.36247416015625Q15.7932149140625,23.50298416015625,17.4007419140625,23.71040416015625Q18.9110519140625,23.90528416015625,20.2412419140625,23.20137416015625Q20.6054419140625,23.37974416015625,21.010981914062498,23.37974416015625Q21.0969519140625,23.37974416015625,21.182511914062502,23.37132416015625Q21.2680719140625,23.36289416015625,21.3523919140625,23.34612416015625Q21.4367119140625,23.32935416015625,21.5189819140625,23.30439416015625Q21.6012519140625,23.27943416015625,21.6806819140625,23.24653416015625Q21.7601019140625,23.21363416015625,21.8359319140625,23.17311416015625Q21.9117519140625,23.13258416015625,21.9832319140625,23.08482416015625Q22.0547119140625,23.03705416015625,22.1211719140625,22.98251416015625Q22.1876319140625,22.92797416015625,22.2484219140625,22.86718416015625Q22.3092119140625,22.806394160156252,22.3637519140625,22.73993416015625Q22.4182919140625,22.67348416015625,22.4660519140625,22.60199416015625Q22.5138219140625,22.53051416015625,22.5543419140625,22.45469416015625Q22.5948719140625,22.37887416015625,22.6277719140625,22.29944416015625Q22.6606719140625,22.22001416015625,22.6856319140625,22.13774416015625Q22.7105819140625,22.05547416015625,22.7273519140625,21.97115416015625Q22.7441319140625,21.88683416015625,22.7525519140625,21.80127416015625Q22.760981914062498,21.71572416015625,22.760981914062498,21.62974416015625L22.760981914062498,20.12701416015625Q22.760981914062498,20.04104216015625,22.7525519140625,19.95548416015625Q22.7441319140625,19.86992616015625,22.7273519140625,19.78560616015625Q22.7105819140625,19.70128616015625,22.6856319140625,19.61901616015625Q22.6606719140625,19.536746160156248,22.6277719140625,19.45731816015625Q22.5948719140625,19.37789016015625,22.5543419140625,19.30207016015625Q22.5138219140625,19.22624916015625,22.4660519140625,19.15476616015625Q22.4182919140625,19.08328416015625,22.3637519140625,19.01682416015625Q22.3092119140625,18.95036416015625,22.2484219140625,18.88957416015625Q22.1876319140625,18.82878416015625,22.1211719140625,18.77424416015625Q22.0547119140625,18.71970416015625,21.9832319140625,18.67194416015625Q21.9117519140625,18.62417416015625,21.8359319140625,18.58365416015625Q21.7601019140625,18.54312416015625,21.6806819140625,18.51022416015625Q21.6012519140625,18.47732416015625,21.5189819140625,18.45236416015625Q21.4367119140625,18.42741416015625,21.3523919140625,18.41064416015625Q21.2680719140625,18.39386416015625,21.182511914062502,18.38544416015625Q21.0969519140625,18.37701416015625,21.010981914062498,18.37701416015625L19.508251914062498,18.37701416015625Z" fill-rule="evenodd" fill="#FFFFFF" fill-opacity="1"/></g></g><g><g><path d="M15.187842,18.62294L15,18.62294Q14.9261315,18.62294,14.853682,18.608530000000002Q14.781233,18.59412,14.712987,18.56585Q14.644742,18.53759,14.583322,18.49655Q14.521903,18.45551,14.46967,18.40327Q14.417437,18.35104,14.376398,18.28962Q14.335359,18.2282,14.30709,18.159959999999998Q14.278822,18.09171,14.264410999999999,18.01926Q14.25,17.94681,14.25,17.87294L14.25,16.37021Q14.25,16.296341,14.264410999999999,16.223892Q14.278822,16.151443,14.30709,16.0831974Q14.335359,16.0149518,14.376398,15.953532299999999Q14.417437,15.892113,14.46967,15.83988Q14.521903,15.787647,14.583322,15.746608Q14.644742,15.705569,14.712987,15.6773Q14.781233,15.649032,14.853682,15.634621Q14.9261315,15.62021,15,15.62021Q15.105422,15.62021,15.206759,15.649273Q15.308097,15.678335,15.397495,15.734208Q15.486893,15.790082,15.557424,15.868435Q15.627955,15.946788,15.674153,16.041549Q15.874096,15.889023,16.09946,15.758829Q17.21012,15.117184,18.48227,15.281331Q19.75441,15.445478,20.66582,16.348037Q21.10352,16.78148,21.3813,17.33008L21.381700000000002,17.33088L21.38172,17.33091Q21.462519999999998,17.49059,21.462519999999998,17.66955Q21.462519999999998,17.74342,21.44811,17.81587Q21.4337,17.88832,21.40543,17.95656Q21.37716,18.02481,21.33612,18.08623Q21.29508,18.14765,21.24285,18.19988Q21.19062,18.252110000000002,21.1292,18.29315Q21.06778,18.33419,20.99953,18.36246Q20.93129,18.39073,20.85884,18.40514Q20.78639,18.41955,20.712519999999998,18.41955Q20.60852,18.41955,20.50844,18.39125Q20.408360000000002,18.36295,20.31976,18.30849Q20.23116,18.25402,20.16072,18.177500000000002Q20.09028,18.10099,20.04332,18.00819Q19.87539,17.67632,19.61035,17.41386Q19.05937,16.868231,18.290309999999998,16.768998Q17.521250000000002,16.669765,16.84981,17.05766Q16.77359,17.10169,16.70219,17.14995Q16.76113,17.16621,16.81667,17.19181Q16.8722,17.2174,16.92286,17.25166Q16.97351,17.28591,17.01795,17.32792Q17.06238,17.36992,17.099429999999998,17.41857Q17.13647,17.46722,17.16515,17.52123Q17.19383,17.57524,17.21338,17.63317Q17.23292,17.69111,17.24283,17.75145Q17.25273,17.8118,17.25273,17.87294Q17.25273,17.94681,17.23832,18.01926Q17.22391,18.09171,17.19564,18.159959999999998Q17.16738,18.2282,17.12634,18.28962Q17.0853,18.35104,17.03306,18.40327Q16.98083,18.45551,16.91941,18.49655Q16.85799,18.53759,16.78975,18.56585Q16.7215,18.59412,16.64905,18.608530000000002Q16.5766,18.62294,16.50273,18.62294L15.187842,18.62294Z" fill-rule="evenodd" fill="#2882FF" fill-opacity="1"/></g><g><path d="M20.8231419140625,19.37701416015625L19.508251914062498,19.37701416015625Q19.4343819140625,19.37701416015625,19.3619319140625,19.39142516015625Q19.2894819140625,19.40583616015625,19.2212319140625,19.43410416015625Q19.1529919140625,19.46237316015625,19.0915719140625,19.503412160156252Q19.0301519140625,19.54445116015625,18.9779219140625,19.59668416015625Q18.9256819140625,19.648917160156252,18.8846419140625,19.71033616015625Q18.8436119140625,19.77175616015625,18.8153419140625,19.84000116015625Q18.7870719140625,19.90824716015625,18.7726619140625,19.98069616015625Q18.758251914062498,20.05314566015625,18.758251914062498,20.12701416015625Q18.758251914062498,20.18816266015625,18.7681519140625,20.24850316015625Q18.7780619140625,20.30884416015625,18.7976119140625,20.36678416015625Q18.8171619140625,20.42472316015625,18.8458319140625,20.47873116015625Q18.8745119140625,20.53273916015625,18.9115519140625,20.58138816015625Q18.9486019140625,20.63003716015625,18.993041914062502,20.67204316015625Q19.0374719140625,20.71404916015625,19.0881319140625,20.74830216015625Q19.1387819140625,20.78255516015625,19.1943219140625,20.80815016015625Q19.2498519140625,20.83374616015625,19.3088019140625,20.85000716015625Q19.2373919140625,20.89826316015625,19.1611719140625,20.94229416015625Q18.4897319140625,21.33019416015625,17.7206719140625,21.23096416015625Q16.9516119140625,21.13172416015625,16.4006319140625,20.58609516015625Q16.1355959140625,20.32363716015625,15.9676579140625,19.99177016015625Q15.9206989140625,19.89897216015625,15.8502609140625,19.82245416015625Q15.7798229140625,19.74593616015625,15.691221914062499,19.69147216015625Q15.6026209140625,19.63700816015625,15.5025429140625,19.60870816015625Q15.4024639140625,19.58040916015625,15.2984619140625,19.58040916015625Q15.2245934140625,19.58040916015625,15.1521439140625,19.59482016015625Q15.0796949140625,19.60923116015625,15.0114489140625,19.63749916015625Q14.9432039140625,19.66576716015625,14.8817839140625,19.70680616015625Q14.8203649140625,19.74784616015625,14.7681319140625,19.80007816015625Q14.7158989140625,19.85231116015625,14.6748599140625,19.91373116015625Q14.6338209140625,19.97515016015625,14.6055519140625,20.04339616015625Q14.5772839140625,20.11164176015625,14.562872914062499,20.18409096015625Q14.5484619140625,20.25654016015625,14.5484619140625,20.33040916015625Q14.5484619140625,20.50936916015625,14.6292659140625,20.66904816015625Q14.9071319140625,21.21815416015625,15.3451595140625,21.65192416015625Q16.2565749140625,22.55448416015625,17.528711914062498,22.71862416015625Q18.8008619140625,22.88277416015625,19.9115219140625,22.24113416015625Q20.1368919140625,22.11093416015625,20.3368319140625,21.95840416015625Q20.3830319140625,22.05317416015625,20.4535619140625,22.13152416015625Q20.5240919140625,22.20987416015625,20.6134919140625,22.26575416015625Q20.702881914062502,22.32162416015625,20.804221914062502,22.35068416015625Q20.9055619140625,22.37974416015625,21.010981914062498,22.37974416015625Q21.0848519140625,22.37974416015625,21.1573019140625,22.36533416015625Q21.2297519140625,22.35092416015625,21.2979919140625,22.32265416015625Q21.3662419140625,22.29439416015625,21.4276619140625,22.25335416015625Q21.4890819140625,22.21231416015625,21.5413119140625,22.16007416015625Q21.5935419140625,22.10784416015625,21.6345819140625,22.04642416015625Q21.6756219140625,21.98500416015625,21.7038919140625,21.91676416015625Q21.7321619140625,21.84851416015625,21.7465719140625,21.77606416015625Q21.760981914062498,21.70361416015625,21.760981914062498,21.62974416015625L21.760981914062498,20.12701416015625Q21.760981914062498,20.05314566015625,21.7465719140625,19.98069616015625Q21.7321619140625,19.90824716015625,21.7038919140625,19.84000116015625Q21.6756219140625,19.77175616015625,21.6345819140625,19.71033616015625Q21.5935419140625,19.648917160156252,21.5413119140625,19.59668416015625Q21.4890819140625,19.54445116015625,21.4276619140625,19.503412160156252Q21.3662419140625,19.46237316015625,21.2979919140625,19.43410416015625Q21.2297519140625,19.40583616015625,21.1573019140625,19.39142516015625Q21.0848519140625,19.37701416015625,21.010981914062498,19.37701416015625L20.8231419140625,19.37701416015625Z" fill-rule="evenodd" fill="#2882FF" fill-opacity="1"/></g></g></g></g></svg>