<svg xmlns="http://www.w3.org/2000/svg" xmlns:xlink="http://www.w3.org/1999/xlink" fill="none" version="1.1" width="24" height="24" viewBox="0 0 24 24"><defs><clipPath id="master_svg0_72_04633"><rect x="0" y="0" width="24" height="24" rx="0"/></clipPath><clipPath id="master_svg1_75_02760"><rect x="1" y="0" width="22" height="22" rx="0"/></clipPath></defs><g clip-path="url(#master_svg0_72_04633)"><g clip-path="url(#master_svg1_75_02760)"><g></g><g><path d="M19.5,5.50001701171875L19.5,11.45835701171875Q19.5,11.53222701171875,19.514400000000002,11.60466701171875Q19.5288,11.67711701171875,19.5571,11.74536701171875Q19.5854,11.81360701171875,19.6264,11.87502701171875Q19.6674,11.93644701171875,19.7197,11.98868701171875Q19.7719,12.04091701171875,19.8333,12.08195701171875Q19.8947,12.12299701171875,19.963,12.15126701171875Q20.0312,12.17953701171875,20.1037,12.19394701171875Q20.1761,12.20835701171875,20.25,12.20835701171875Q20.3239,12.20835701171875,20.3963,12.19394701171875Q20.4688,12.17953701171875,20.537,12.15126701171875Q20.6053,12.12299701171875,20.6667,12.08195701171875Q20.7281,12.04091701171875,20.7803,11.98868701171875Q20.8326,11.93644701171875,20.8736,11.87502701171875Q20.9146,11.81360701171875,20.9429,11.74536701171875Q20.9712,11.67711701171875,20.9856,11.60466701171875Q21,11.53222701171875,21,11.45835701171875L21,5.50001701171875Q21,4.42996801171875,20.2434,3.67332783171875Q19.4867,2.91668701171875,18.4167,2.91668701171875L5.58333,2.91668701171875Q4.513282,2.91668701171875,3.75664071,3.67332777171875Q3,4.42996801171875,3,5.50001701171875L3,16.49998701171875Q3,17.570087011718748,3.75664109,18.32668701171875Q4.513283,19.08338701171875,5.58333,19.08338701171875L12,19.08338701171875Q12.07387,19.08338701171875,12.14632,19.06898701171875Q12.21877,19.05448701171875,12.28701,19.02628701171875Q12.35526,18.99798701171875,12.41668,18.956987011718752Q12.4781,18.915887011718752,12.53033,18.86368701171875Q12.58256,18.81148701171875,12.6236,18.74998701171875Q12.66464,18.688587011718752,12.69291,18.620387011718748Q12.72118,18.55208701171875,12.73559,18.479687011718752Q12.75,18.40718701171875,12.75,18.33338701171875Q12.75,18.25948701171875,12.73559,18.18698701171875Q12.72118,18.11458701171875,12.69291,18.04638701171875Q12.66464,17.97808701171875,12.6236,17.91668701171875Q12.58256,17.85528701171875,12.53033,17.80298701171875Q12.4781,17.75078701171875,12.41668,17.709787011718753Q12.35526,17.668687011718752,12.28701,17.64048701171875Q12.21877,17.61218701171875,12.14632,17.59778701171875Q12.07387,17.58338701171875,12,17.58338701171875L5.58333,17.58338701171875Q5.1346,17.58338701171875,4.8172999999999995,17.26608701171875Q4.5,16.94878701171875,4.5,16.49998701171875L4.5,5.50001701171875Q4.5,5.05128701171875,4.8172999999999995,4.7339870117187495Q5.1346,4.41668701171875,5.58333,4.41668701171875L18.4167,4.41668701171875Q18.8654,4.41668701171875,19.1827,4.7339870117187495Q19.5,5.05128701171875,19.5,5.50001701171875Z" fill-rule="evenodd" fill="#231F2E" fill-opacity="1" style="mix-blend-mode:passthrough"/></g><g><path d="M9.25,14.83331298828125L12.45833,14.83331298828125Q12.5322,14.83331298828125,12.60465,14.847723988281249Q12.6771,14.86213498828125,12.74535,14.89040298828125Q12.81359,14.91867198828125,12.87501,14.95971098828125Q12.93643,15.00074998828125,12.98866,15.05298298828125Q13.0409,15.10521598828125,13.08194,15.16663498828125Q13.12297,15.22805498828125,13.15124,15.29629998828125Q13.17951,15.36454598828125,13.19392,15.43699498828125Q13.20833,15.50944448828125,13.20833,15.58331298828125Q13.20833,15.65718148828125,13.19392,15.72963098828125Q13.17951,15.80207998828125,13.15124,15.87032598828125Q13.12297,15.93857098828125,13.08194,15.99999098828125Q13.0409,16.061409988281248,12.98866,16.11364298828125Q12.93643,16.16587598828125,12.87501,16.206914988281248Q12.81359,16.24795398828125,12.74535,16.27622298828125Q12.6771,16.30449098828125,12.60465,16.31890198828125Q12.5322,16.33331298828125,12.45833,16.33331298828125L9.25,16.33331298828125Q9.1761315,16.33331298828125,9.103682,16.31890198828125Q9.031233,16.30449098828125,8.962987,16.27622298828125Q8.894742,16.24795398828125,8.833322,16.206914988281248Q8.771903,16.16587598828125,8.71967,16.11364298828125Q8.667437,16.061409988281248,8.626398,15.99999098828125Q8.585359,15.93857098828125,8.55709,15.87032598828125Q8.528822,15.80207998828125,8.514410999999999,15.72963098828125Q8.5,15.65718148828125,8.5,15.58331298828125Q8.5,15.50944448828125,8.514410999999999,15.43699498828125Q8.528822,15.36454598828125,8.55709,15.29629998828125Q8.585359,15.22805498828125,8.626398,15.16663498828125Q8.667437,15.10521598828125,8.71967,15.05298298828125Q8.771903,15.00074998828125,8.833322,14.95971098828125Q8.894742,14.91867198828125,8.962987,14.89040298828125Q9.031233,14.86213498828125,9.103682,14.847723988281249Q9.1761315,14.83331298828125,9.25,14.83331298828125Z" fill-rule="evenodd" fill="#231F2E" fill-opacity="1" style="mix-blend-mode:passthrough"/></g><g><path d="M17.66668701171875,14.66668701171875Q17.66668701171875,14.59281851171875,17.68109801171875,14.52036901171875Q17.69550901171875,14.44792001171875,17.72377701171875,14.37967401171875Q17.75204601171875,14.31142901171875,17.793085011718752,14.25000901171875Q17.83412401171875,14.18859001171875,17.88635701171875,14.13635701171875Q17.938590011718752,14.08412401171875,18.00000901171875,14.04308501171875Q18.06142901171875,14.00204601171875,18.12967401171875,13.97377701171875Q18.19792001171875,13.94550901171875,18.27036901171875,13.931098011718749Q18.34281851171875,13.91668701171875,18.41668701171875,13.91668701171875Q18.49055551171875,13.91668701171875,18.56300501171875,13.931098011718749Q18.63545401171875,13.94550901171875,18.70370001171875,13.97377701171875Q18.77194501171875,14.00204601171875,18.83336501171875,14.04308501171875Q18.894784011718748,14.08412401171875,18.94701701171875,14.13635701171875Q18.99925001171875,14.18859001171875,19.040289011718748,14.25000901171875Q19.08132801171875,14.31142901171875,19.10959701171875,14.37967401171875Q19.13786501171875,14.44792001171875,19.15227601171875,14.52036901171875Q19.16668701171875,14.59281851171875,19.16668701171875,14.66668701171875L19.16668701171875,20.16668701171875Q19.16668701171875,20.24055701171875,19.15227601171875,20.31300701171875Q19.13786501171875,20.38545701171875,19.10959701171875,20.453697011718752Q19.08132801171875,20.52194701171875,19.040289011718748,20.58336701171875Q18.99925001171875,20.64478701171875,18.94701701171875,20.69701701171875Q18.894784011718748,20.74924701171875,18.83336501171875,20.79028701171875Q18.77194501171875,20.83132701171875,18.70370001171875,20.85959701171875Q18.63545401171875,20.88786701171875,18.56300501171875,20.902277011718752Q18.49055551171875,20.91668701171875,18.41668701171875,20.91668701171875Q18.34281851171875,20.91668701171875,18.27036901171875,20.902277011718752Q18.19792001171875,20.88786701171875,18.12967401171875,20.85959701171875Q18.06142901171875,20.83132701171875,18.00000901171875,20.79028701171875Q17.938590011718752,20.74924701171875,17.88635701171875,20.69701701171875Q17.83412401171875,20.64478701171875,17.793085011718752,20.58336701171875Q17.75204601171875,20.52194701171875,17.72377701171875,20.453697011718752Q17.69550901171875,20.38545701171875,17.68109801171875,20.31300701171875Q17.66668701171875,20.24055701171875,17.66668701171875,20.16668701171875L17.66668701171875,14.66668701171875Z" fill-rule="evenodd" fill="#F97316" fill-opacity="1"/></g><g><path d="M17.88635701171875,14.13635701171875L15.13635701171875,16.88635701171875Q15.03086801171875,16.99184701171875,14.97377701171875,17.12967701171875Q14.91668701171875,17.26750701171875,14.91668701171875,17.41668701171875Q14.91668701171875,17.49055701171875,14.931098011718749,17.56300701171875Q14.94550901171875,17.63545701171875,14.97377701171875,17.70369701171875Q15.00204601171875,17.77194701171875,15.04308501171875,17.83336701171875Q15.08412401171875,17.89478701171875,15.13635701171875,17.94701701171875Q15.18859001171875,17.99924701171875,15.25000901171875,18.04028701171875Q15.31142901171875,18.08132701171875,15.37967401171875,18.10959701171875Q15.44792001171875,18.13786701171875,15.52036901171875,18.152277011718752Q15.59281851171875,18.16668701171875,15.66668701171875,18.16668701171875Q15.81587101171875,18.16668701171875,15.95370001171875,18.10959701171875Q16.09152801171875,18.05250701171875,16.19701701171875,17.94701701171875L16.19725201171875,17.94677701171875L18.41668701171875,15.72734701171875L20.63582701171875,17.94648701171875L20.63635701171875,17.94701701171875Q20.74184701171875,18.05250701171875,20.879677011718748,18.10959701171875Q21.01750701171875,18.16668701171875,21.16668701171875,18.16668701171875Q21.24055701171875,18.16668701171875,21.31300701171875,18.152277011718752Q21.38545701171875,18.13786701171875,21.453697011718752,18.10959701171875Q21.52194701171875,18.08132701171875,21.58336701171875,18.04028701171875Q21.64478701171875,17.99924701171875,21.69701701171875,17.94701701171875Q21.74924701171875,17.89478701171875,21.79028701171875,17.83336701171875Q21.83132701171875,17.77194701171875,21.85959701171875,17.70369701171875Q21.88786701171875,17.63545701171875,21.902277011718752,17.56300701171875Q21.91668701171875,17.49055701171875,21.91668701171875,17.41668701171875Q21.91668701171875,17.26750701171875,21.85959701171875,17.12967701171875Q21.80250701171875,16.99184701171875,21.69701701171875,16.88635701171875L18.94701701171875,14.13635701171875Q18.84152701171875,14.03086801171875,18.70369701171875,13.97377701171875Q18.56586701171875,13.91668701171875,18.41668701171875,13.91668701171875Q18.26750701171875,13.91668701171875,18.12967701171875,13.97377701171875Q17.99184701171875,14.03086801171875,17.88635701171875,14.13635701171875Z" fill-rule="evenodd" fill="#F97316" fill-opacity="1"/></g></g></g></svg>