<svg xmlns="http://www.w3.org/2000/svg" xmlns:xlink="http://www.w3.org/1999/xlink" fill="none" version="1.1" width="24" height="24" viewBox="0 0 24 24"><defs><clipPath id="master_svg0_72_05079"><rect x="0" y="0" width="24" height="24" rx="0"/></clipPath></defs><g clip-path="url(#master_svg0_72_05079)"><g><path d="M14,3.25Q13.92613,3.25,13.85368,3.264411Q13.78123,3.278822,13.71299,3.30709Q13.64474,3.335359,13.58332,3.376398Q13.5219,3.417437,13.46967,3.46967Q13.41744,3.521903,13.3764,3.583322Q13.33536,3.644742,13.30709,3.712987Q13.27882,3.781233,13.26441,3.853682Q13.25,3.9261315,13.25,4L13.25,10Q13.25,10.07387,13.26441,10.14632Q13.27882,10.21877,13.30709,10.28701Q13.33536,10.355260000000001,13.3764,10.41668Q13.41744,10.478100000000001,13.46967,10.53033Q13.5219,10.58256,13.58332,10.6236Q13.64474,10.66464,13.71299,10.692910000000001Q13.78123,10.72118,13.85368,10.73559Q13.92613,10.75,14,10.75L20,10.75Q20.0739,10.75,20.1463,10.73559Q20.2188,10.72118,20.287,10.692910000000001Q20.3553,10.66464,20.4167,10.6236Q20.4781,10.58256,20.5303,10.53033Q20.5826,10.478100000000001,20.6236,10.41668Q20.6646,10.355260000000001,20.6929,10.28701Q20.7212,10.21877,20.7356,10.14632Q20.75,10.07387,20.75,10L20.75,4Q20.75,3.9261315,20.7356,3.853682Q20.7212,3.781233,20.6929,3.712987Q20.6646,3.644742,20.6236,3.583322Q20.5826,3.521903,20.5303,3.46967Q20.4781,3.417437,20.4167,3.376398Q20.3553,3.335359,20.287,3.30709Q20.2188,3.278822,20.1463,3.264411Q20.0739,3.25,20,3.25L14,3.25ZM14.75,9.25L19.25,9.25L19.25,4.75L14.75,4.75L14.75,9.25ZM4,6.25L10,6.25Q10.07387,6.25,10.14632,6.26441Q10.21877,6.27882,10.28701,6.3070900000000005Q10.355260000000001,6.33536,10.41668,6.3764Q10.478100000000001,6.41744,10.53033,6.46967Q10.58256,6.5219000000000005,10.6236,6.5833200000000005Q10.66464,6.6447400000000005,10.692910000000001,6.71299Q10.72118,6.78123,10.73559,6.853680000000001Q10.75,6.926130000000001,10.75,7Q10.75,7.073869999999999,10.73559,7.146319999999999Q10.72118,7.21877,10.692910000000001,7.28701Q10.66464,7.3552599999999995,10.6236,7.4166799999999995Q10.58256,7.4780999999999995,10.53033,7.53033Q10.478100000000001,7.58256,10.41668,7.6236Q10.355260000000001,7.66464,10.28701,7.6929099999999995Q10.21877,7.72118,10.14632,7.73559Q10.07387,7.75,10,7.75L4,7.75Q3.9261315,7.75,3.853682,7.73559Q3.781233,7.72118,3.712987,7.6929099999999995Q3.644742,7.66464,3.583322,7.6236Q3.521903,7.58256,3.46967,7.53033Q3.417437,7.4780999999999995,3.376398,7.4166799999999995Q3.335359,7.3552599999999995,3.30709,7.28701Q3.278822,7.21877,3.264411,7.146319999999999Q3.25,7.073869999999999,3.25,7Q3.25,6.926130000000001,3.264411,6.853680000000001Q3.278822,6.78123,3.30709,6.71299Q3.335359,6.6447400000000005,3.376398,6.5833200000000005Q3.417437,6.5219000000000005,3.46967,6.46967Q3.521903,6.41744,3.583322,6.3764Q3.644742,6.33536,3.712987,6.3070900000000005Q3.781233,6.27882,3.853682,6.26441Q3.9261315,6.25,4,6.25ZM3.25,14L3.25,20Q3.25,20.0739,3.264411,20.1463Q3.278822,20.2188,3.30709,20.287Q3.335359,20.3553,3.376398,20.4167Q3.417437,20.4781,3.46967,20.5303Q3.521903,20.5826,3.583322,20.6236Q3.644742,20.6646,3.712987,20.6929Q3.781233,20.7212,3.853682,20.7356Q3.9261315,20.75,4,20.75L10,20.75Q10.07387,20.75,10.14632,20.7356Q10.21877,20.7212,10.28701,20.6929Q10.355260000000001,20.6646,10.41668,20.6236Q10.478100000000001,20.5826,10.53033,20.5303Q10.58256,20.4781,10.6236,20.4167Q10.66464,20.3553,10.692910000000001,20.287Q10.72118,20.2188,10.73559,20.1463Q10.75,20.0739,10.75,20L10.75,14Q10.75,13.92613,10.73559,13.85368Q10.72118,13.78123,10.692910000000001,13.71299Q10.66464,13.64474,10.6236,13.58332Q10.58256,13.5219,10.53033,13.46967Q10.478100000000001,13.41744,10.41668,13.3764Q10.355260000000001,13.33536,10.28701,13.30709Q10.21877,13.27882,10.14632,13.26441Q10.07387,13.25,10,13.25L4,13.25Q3.9261315,13.25,3.853682,13.26441Q3.781233,13.27882,3.712987,13.30709Q3.644742,13.33536,3.583322,13.3764Q3.521903,13.41744,3.46967,13.46967Q3.417437,13.5219,3.376398,13.58332Q3.335359,13.64474,3.30709,13.71299Q3.278822,13.78123,3.264411,13.85368Q3.25,13.92613,3.25,14ZM16.25,14Q16.25,13.92613,16.264400000000002,13.85368Q16.2788,13.78123,16.3071,13.71299Q16.3354,13.64474,16.3764,13.58332Q16.4174,13.5219,16.4697,13.46967Q16.521900000000002,13.41744,16.5833,13.3764Q16.6447,13.33536,16.713,13.30709Q16.7812,13.27882,16.8537,13.26441Q16.926099999999998,13.25,17,13.25Q17.073900000000002,13.25,17.1463,13.26441Q17.2188,13.27882,17.287,13.30709Q17.3553,13.33536,17.4167,13.3764Q17.478099999999998,13.41744,17.5303,13.46967Q17.5826,13.5219,17.6236,13.58332Q17.6646,13.64474,17.6929,13.71299Q17.7212,13.78123,17.735599999999998,13.85368Q17.75,13.92613,17.75,14L17.75,16.25L20,16.25Q20.0739,16.25,20.1463,16.264400000000002Q20.2188,16.2788,20.287,16.3071Q20.3553,16.3354,20.4167,16.3764Q20.4781,16.4174,20.5303,16.4697Q20.5826,16.521900000000002,20.6236,16.5833Q20.6646,16.6447,20.6929,16.713Q20.7212,16.7812,20.7356,16.8537Q20.75,16.926099999999998,20.75,17Q20.75,17.073900000000002,20.7356,17.1463Q20.7212,17.2188,20.6929,17.287Q20.6646,17.3553,20.6236,17.4167Q20.5826,17.478099999999998,20.5303,17.5303Q20.4781,17.5826,20.4167,17.6236Q20.3553,17.6646,20.287,17.6929Q20.2188,17.7212,20.1463,17.735599999999998Q20.0739,17.75,20,17.75L17.75,17.75L17.75,20Q17.75,20.0739,17.735599999999998,20.1463Q17.7212,20.2188,17.6929,20.287Q17.6646,20.3553,17.6236,20.4167Q17.5826,20.4781,17.5303,20.5303Q17.478099999999998,20.5826,17.4167,20.6236Q17.3553,20.6646,17.287,20.6929Q17.2188,20.7212,17.1463,20.7356Q17.073900000000002,20.75,17,20.75Q16.926099999999998,20.75,16.8537,20.7356Q16.7812,20.7212,16.713,20.6929Q16.6447,20.6646,16.5833,20.6236Q16.521900000000002,20.5826,16.4697,20.5303Q16.4174,20.4781,16.3764,20.4167Q16.3354,20.3553,16.3071,20.287Q16.2788,20.2188,16.264400000000002,20.1463Q16.25,20.0739,16.25,20L16.25,17.75L14,17.75Q13.92613,17.75,13.85368,17.735599999999998Q13.78123,17.7212,13.71299,17.6929Q13.64474,17.6646,13.58332,17.6236Q13.5219,17.5826,13.46967,17.5303Q13.41744,17.478099999999998,13.3764,17.4167Q13.33536,17.3553,13.30709,17.287Q13.27882,17.2188,13.26441,17.1463Q13.25,17.073900000000002,13.25,17Q13.25,16.926099999999998,13.26441,16.8537Q13.27882,16.7812,13.30709,16.713Q13.33536,16.6447,13.3764,16.5833Q13.41744,16.521900000000002,13.46967,16.4697Q13.5219,16.4174,13.58332,16.3764Q13.64474,16.3354,13.71299,16.3071Q13.78123,16.2788,13.85368,16.264400000000002Q13.92613,16.25,14,16.25L16.25,16.25L16.25,14ZM4.75,19.25L9.25,19.25L9.25,14.75L4.75,14.75L4.75,19.25Z" fill-rule="evenodd" fill="#231F2E" fill-opacity="1" style="mix-blend-mode:passthrough"/></g><g><path d="M4,6.25L10,6.25Q10.07387,6.25,10.14632,6.264411Q10.21877,6.278822,10.28701,6.30709Q10.355260000000001,6.335359,10.41668,6.376398Q10.478100000000001,6.417437,10.53033,6.46967Q10.58256,6.521903,10.6236,6.583322Q10.66464,6.644742,10.692910000000001,6.712987Q10.72118,6.781233,10.73559,6.853682Q10.75,6.9261315,10.75,7Q10.75,7.0738685,10.73559,7.146318Q10.72118,7.218767,10.692910000000001,7.287013Q10.66464,7.355258,10.6236,7.416678Q10.58256,7.478097,10.53033,7.53033Q10.478100000000001,7.582563,10.41668,7.623602Q10.355260000000001,7.664641,10.28701,7.69291Q10.21877,7.721178,10.14632,7.735589Q10.07387,7.75,10,7.75L4,7.75Q3.9261315,7.75,3.853682,7.735589Q3.781233,7.721178,3.712987,7.69291Q3.644742,7.664641,3.583322,7.623602Q3.521903,7.582563,3.46967,7.53033Q3.417437,7.478097,3.376398,7.416678Q3.335359,7.355258,3.30709,7.287013Q3.278822,7.218767,3.264411,7.146318Q3.25,7.0738685,3.25,7Q3.25,6.9261315,3.264411,6.853682Q3.278822,6.781233,3.30709,6.712987Q3.335359,6.644742,3.376398,6.583322Q3.417437,6.521903,3.46967,6.46967Q3.521903,6.417437,3.583322,6.376398Q3.644742,6.335359,3.712987,6.30709Q3.781233,6.278822,3.853682,6.264411Q3.9261315,6.25,4,6.25ZM17.75,14.0012L17.75,16.25L20,16.25Q20.0739,16.25,20.1463,16.264409999999998Q20.2188,16.27882,20.287,16.307090000000002Q20.3553,16.33536,20.4167,16.3764Q20.4781,16.41744,20.5303,16.46967Q20.5826,16.521900000000002,20.6236,16.58332Q20.6646,16.64474,20.6929,16.712989999999998Q20.7212,16.78123,20.7356,16.85368Q20.75,16.92613,20.75,17Q20.75,17.073900000000002,20.7356,17.1463Q20.7212,17.2188,20.6929,17.287Q20.6646,17.3553,20.6236,17.4167Q20.5826,17.478099999999998,20.5303,17.5303Q20.4781,17.5826,20.4167,17.6236Q20.3553,17.6646,20.287,17.6929Q20.2188,17.7212,20.1463,17.735599999999998Q20.0739,17.75,20,17.75L19.9988,17.75L17.75,17.75L17.75,20Q17.75,20.073900000000002,17.735599999999998,20.1463Q17.7212,20.2188,17.6929,20.287Q17.6646,20.3553,17.6236,20.4167Q17.5826,20.478099999999998,17.5303,20.5303Q17.478099999999998,20.5826,17.4167,20.6236Q17.3553,20.6646,17.287,20.6929Q17.2188,20.7212,17.1463,20.735599999999998Q17.073900000000002,20.75,17,20.75Q16.926099999999998,20.75,16.8537,20.735599999999998Q16.7812,20.7212,16.713,20.6929Q16.6447,20.6646,16.5833,20.6236Q16.521900000000002,20.5826,16.4697,20.5303Q16.4174,20.478099999999998,16.3764,20.4167Q16.3354,20.3553,16.3071,20.287Q16.2788,20.2188,16.264400000000002,20.1463Q16.25,20.073900000000002,16.25,20L16.25,17.75L14,17.75Q13.92613,17.75,13.85368,17.735599999999998Q13.78123,17.7212,13.71299,17.6929Q13.64474,17.6646,13.58332,17.6236Q13.5219,17.5826,13.46967,17.5303Q13.41744,17.478099999999998,13.3764,17.4167Q13.33536,17.3553,13.30709,17.287Q13.27882,17.2188,13.26441,17.1463Q13.25,17.073900000000002,13.25,17Q13.25,16.92613,13.26441,16.85368Q13.27882,16.78123,13.30709,16.712989999999998Q13.33536,16.64474,13.3764,16.58332Q13.41744,16.521900000000002,13.46967,16.46967Q13.5219,16.41744,13.58332,16.3764Q13.64474,16.33536,13.71299,16.307090000000002Q13.78123,16.27882,13.85368,16.264409999999998Q13.92613,16.25,14,16.25L16.25,16.25L16.25,14Q16.25,13.92613,16.264400000000002,13.85368Q16.2788,13.78123,16.3071,13.71299Q16.3354,13.644739999999999,16.3764,13.58332Q16.4174,13.521899999999999,16.4697,13.46967Q16.521900000000002,13.41744,16.5833,13.3764Q16.6447,13.33536,16.713,13.307089999999999Q16.7812,13.27882,16.8537,13.26441Q16.926099999999998,13.25,17,13.25Q17.073900000000002,13.25,17.1463,13.26441Q17.2188,13.27882,17.287,13.307089999999999Q17.3553,13.33536,17.4167,13.3764Q17.478099999999998,13.41744,17.5303,13.46967Q17.5826,13.521899999999999,17.6236,13.58332Q17.6646,13.644739999999999,17.6929,13.71299Q17.7212,13.78123,17.735599999999998,13.85368Q17.75,13.92613,17.75,14L17.75,14.0012Z" fill-rule="evenodd" fill="#2882FF" fill-opacity="1" style="mix-blend-mode:passthrough"/></g></g></svg>