<svg xmlns="http://www.w3.org/2000/svg" xmlns:xlink="http://www.w3.org/1999/xlink" fill="none" version="1.1" width="24" height="24" viewBox="0 0 24 24"><defs><clipPath id="master_svg0_70_02044"><rect x="0" y="0" width="24" height="24" rx="0"/></clipPath></defs><g clip-path="url(#master_svg0_70_02044)"><g><path d="M8.5,18.5L8.5,19L15.5,19L15.5,18.5C13.40629,17.0045,10.5937,17.0045,8.5,18.5Z" fill="#2882FF" fill-opacity="1"/><path d="M16.25,19L16.25,18.5Q16.25,18.41046,16.22892,18.32345Q16.20784,18.23643,16.16688,18.15681Q16.12591,18.0772,16.06735,18.00947Q16.00879,17.94174,15.935929999999999,17.8897Q15.06317,17.2663,14.04364,16.943718Q13.046990000000001,16.628372,12,16.628372Q10.95302,16.628372,9.95636,16.943719Q8.936832,17.2663,8.064071,17.8897Q7.991213,17.94174,7.932654,18.00947Q7.874094,18.0772,7.833124,18.15681Q7.792155,18.23643,7.771077,18.32345Q7.75,18.41046,7.75,18.5L7.75,19Q7.75,19.07387,7.764411,19.14632Q7.778822,19.21877,7.80709,19.28701Q7.835359,19.35526,7.876398,19.41668Q7.917437,19.4781,7.96967,19.53033Q8.021903,19.58256,8.083322,19.6236Q8.144742,19.66464,8.212987,19.69291Q8.281233,19.72118,8.353682,19.735590000000002Q8.4261315,19.75,8.5,19.75L15.5,19.75Q15.57387,19.75,15.64632,19.735590000000002Q15.71877,19.72118,15.78701,19.69291Q15.855260000000001,19.66464,15.91668,19.6236Q15.978100000000001,19.58256,16.03033,19.53033Q16.08256,19.4781,16.1236,19.41668Q16.16464,19.35526,16.19291,19.28701Q16.22118,19.21877,16.235590000000002,19.14632Q16.25,19.07387,16.25,19ZM13.15016,18.25L10.84984,18.25Q11.405429999999999,18.12837,12,18.12837Q12.594570000000001,18.12837,13.15016,18.25Z" fill-rule="evenodd" fill="#2882FF" fill-opacity="1"/></g><g><path d="M8.5,7L9.542300000000001,8.48901C10.73661,10.19516,13.263390000000001,10.19516,14.457699999999999,8.48901L15.5,7L8.5,7Z" fill="#2882FF" fill-opacity="1"/><path d="M7.885576,7.430097L8.92788,8.9191Q9.472756,9.6975,10.3089,10.11857Q11.10329,10.51862,12,10.51862Q12.896709999999999,10.51862,13.691099999999999,10.11857Q14.527239999999999,9.6975,15.07212,8.9191L16.11442,7.430097Q16.25,7.236417,16.25,7Q16.25,6.9261315,16.235590000000002,6.853682Q16.22118,6.781233,16.19291,6.712987Q16.16464,6.644742,16.1236,6.583322Q16.08256,6.521903,16.03033,6.46967Q15.978100000000001,6.417437,15.91668,6.376398Q15.855260000000001,6.335359,15.78701,6.30709Q15.71877,6.278822,15.64632,6.264411Q15.57387,6.25,15.5,6.25L8.5,6.25Q8.263583,6.25,8.069903,6.385576Q7.947687,6.471128,7.867513,6.596937Q7.787338,6.722747,7.761412,6.869661Q7.735486,7.0165752,7.767755,7.162228Q7.800025,7.30788,7.885576,7.430097ZM10.98357,8.77886Q10.48491,8.52774,10.15673,8.058910000000001L9.94049,7.75L14.05951,7.75L13.84327,8.058910000000001Q13.51509,8.52774,13.01643,8.77886Q12.54034,9.01862,12,9.01862Q11.45966,9.01862,10.98357,8.77886Z" fill-rule="evenodd" fill="#2882FF" fill-opacity="1"/></g><g><path d="M5.762563,21.23744Q6.275126,21.75,7,21.75L17,21.75Q17.724899999999998,21.75,18.2374,21.23744Q18.75,20.72487,18.75,20L18.75,18Q18.75,15.20406,16.773,13.22703Q14.79595,11.25,12,11.25Q9.20406,11.25,7.22703,13.22703Q5.25,15.20406,5.25,18L5.25,20Q5.25,20.72487,5.762563,21.23744ZM17.25,20Q17.25,20.25,17,20.25L7,20.25Q6.896447,20.25,6.823224,20.17678Q6.75,20.10355,6.75,20L6.75,18Q6.75,15.82538,8.28769,14.28769Q9.82538,12.75,12,12.75Q14.17462,12.75,15.71231,14.28769Q17.25,15.82538,17.25,18L17.25,20Z" fill-rule="evenodd" fill="#231F2E" fill-opacity="1"/></g><g><path d="M17,2.25L7,2.25Q6.275126,2.25,5.762563,2.762563Q5.25,3.275126,5.25,4L5.25,6Q5.25,8.79594,7.22703,10.77297Q9.20406,12.75,12,12.75Q14.79594,12.75,16.773,10.77297Q18.75,8.79594,18.75,6L18.75,4Q18.75,3.275127,18.2374,2.762563Q17.724899999999998,2.25,17,2.25ZM6.8232230000000005,3.823223Q6.896447,3.75,7,3.75L17,3.75Q17.1036,3.75,17.1768,3.8232239999999997Q17.25,3.896447,17.25,4L17.25,6Q17.25,8.17462,15.71231,9.71231Q14.17462,11.25,12,11.25Q9.82538,11.25,8.28769,9.71231Q6.75,8.17462,6.75,6L6.75,4Q6.75,3.896447,6.8232230000000005,3.823223Z" fill-rule="evenodd" fill="#231F2E" fill-opacity="1"/></g></g></svg>