<svg xmlns="http://www.w3.org/2000/svg" xmlns:xlink="http://www.w3.org/1999/xlink" fill="none" version="1.1" width="24" height="24" viewBox="0 0 24 24"><defs><clipPath id="master_svg0_74_12767"><rect x="0" y="0" width="24" height="24" rx="0"/></clipPath></defs><g clip-path="url(#master_svg0_74_12767)"><g><path d="M7.249998371810913,18.75001287460327L6.0000183718109135,18.75001287460327Q4.446718371810913,18.75001287460327,3.348376371810913,17.651612874603273Q2.250030371810913,16.55331287460327,2.2500293718109132,15.000012874603271L2.250028371810913,7.000022874603271Q2.250028371810913,5.446722874603271,3.348377371810913,4.348368874603271Q4.446728371810913,3.2500188746032714,6.000028371810913,3.2500178746032713L18.000028371810913,3.2500138746032716Q19.553328371810913,3.2500128746032715,20.65162837181091,4.348365874603272Q21.750028371810913,5.446712874603271,21.750028371810913,7.000022874603271L21.749928371810913,15.000012874603271Q21.749928371810913,16.55331287460327,20.65162837181091,17.651612874603273Q19.553228371810913,18.75001287460327,18.000028371810913,18.75001287460327L13.207728371810914,18.75001287460327L8.385868371810913,21.643112874603272Q8.322528371810913,21.681112874603272,8.252988371810913,21.70601287460327Q8.183448371810913,21.73091287460327,8.110388371810913,21.741812874603273Q8.037318371810912,21.752712874603272,7.963538371810913,21.74911287460327Q7.889758371810913,21.74551287460327,7.818098371810913,21.72761287460327Q7.746438371810913,21.709712874603273,7.679648371810913,21.678112874603272Q7.612848371810913,21.64661287460327,7.553498371810913,21.60261287460327Q7.494148371810913,21.55861287460327,7.444518371810913,21.503912874603273Q7.3948883718109135,21.449212874603273,7.356878371810913,21.38591287460327Q7.249998371810913,21.20771287460327,7.249998371810913,21.00001287460327L7.249998371810913,18.75001287460327ZM8.749998371810914,18.00001287460327Q8.749998371810914,17.92611287460327,8.735588371810913,17.85371287460327Q8.721178371810913,17.78121287460327,8.692908371810912,17.713012874603272Q8.664638371810913,17.64471287460327,8.623598371810914,17.583312874603273Q8.582558371810913,17.521912874603274,8.530328371810914,17.46971287460327Q8.478098371810912,17.417412874603272,8.416678371810914,17.37641287460327Q8.355258371810912,17.33531287460327,8.287018371810912,17.30711287460327Q8.218768371810913,17.278812874603272,8.146318371810914,17.264412874603273Q8.073868371810914,17.25001287460327,7.999998371810913,17.25001287460327L6.000028371810913,17.25001287460327Q5.068048371810914,17.25001287460327,4.409038371810913,16.591012874603273Q3.750030371810913,15.932012874603272,3.7500293718109132,15.000012874603271L3.750028371810913,7.000022874603271Q3.750028371810913,6.068042874603272,4.409038371810913,5.409032874603271Q5.068048371810914,4.750017874603271,6.000028371810913,4.750017874603271L18.000028371810913,4.750013874603272Q18.931928371810912,4.750013874603272,19.591028371810914,5.409022874603272Q20.250028371810913,6.068032874603272,20.250028371810913,7.000022874603271L20.249928371810913,15.000012874603271Q20.249928371810913,15.932012874603272,19.590928371810914,16.591012874603273Q18.931928371810912,17.25001287460327,18.000028371810913,17.25001287460327L12.999998371810912,17.25001287460327Q12.792258371810913,17.25001287460327,12.614128371810914,17.35691287460327L8.749998371810914,19.67531287460327L8.749998371810914,18.00001287460327Z" fill-rule="evenodd" fill="#231F2E" fill-opacity="1"/></g><g><path d="M11.9166259765625,7.911865234375Q11.9166259765625,7.837996734375,11.931036976562499,7.765547234375Q11.9454479765625,7.693098234375,11.9737159765625,7.624852234375Q12.0019849765625,7.556607234375,12.0430239765625,7.495187234375Q12.0840629765625,7.433768234375,12.1362959765625,7.381535234375Q12.1885289765625,7.329302234375,12.2499479765625,7.288263234375Q12.3113679765625,7.247224234375,12.3796129765625,7.218955234375Q12.4478589765625,7.190687234375,12.5203079765625,7.176276234375Q12.5927574765625,7.161865234375,12.6666259765625,7.161865234375Q12.7404944765625,7.161865234375,12.8129439765625,7.176276234375Q12.8853929765625,7.190687234375,12.9536389765625,7.218955234375Q13.0218839765625,7.247224234375,13.0833039765625,7.288263234375Q13.1447229765625,7.329302234375,13.1969559765625,7.381535234375Q13.2491889765625,7.433768234375,13.2902279765625,7.495187234375Q13.3312669765625,7.556607234375,13.3595359765625,7.624852234375Q13.3878039765625,7.693098234375,13.402214976562501,7.765547234375Q13.4166259765625,7.837996734375,13.4166259765625,7.911865234375L13.4166259765625,8.828532234375L14.3332959765625,8.828532234375Q14.4071659765625,8.828532234375,14.4796059765625,8.842943234375Q14.5520559765625,8.857354234375,14.6203059765625,8.885622234374999Q14.6885459765625,8.913895234375,14.7499659765625,8.954925234375Q14.8113859765625,8.995965234375,14.8636259765625,9.048205234375Q14.9158559765625,9.100435234375,14.9568959765625,9.161855234375Q14.9979359765625,9.223275234375,15.0262059765625,9.291515234375Q15.0544659765625,9.359765234375,15.0688859765625,9.432215234375Q15.0832959765625,9.504665234375,15.0832959765625,9.578535234375Q15.0832959765625,9.652405234375,15.0688859765625,9.724845234375Q15.0544659765625,9.797295234375,15.0262059765625,9.865545234375Q14.9979359765625,9.933795234375,14.9568959765625,9.995205234375Q14.9158559765625,10.056625234375,14.8636259765625,10.108865234375Q14.8113859765625,10.161095234375,14.7499659765625,10.202135234375Q14.6885459765625,10.243175234375,14.6203059765625,10.271445234375Q14.5520559765625,10.299705234375,14.4796059765625,10.314125234375Q14.4071659765625,10.328535234375,14.3332959765625,10.328535234375L12.9999589765625,10.328535234375Q12.5512279765625,10.328535234375,12.2339269765625,10.011235234375Q11.9166259765625,9.693925234375,11.9166259765625,9.245195234375L11.9166259765625,7.911865234375Z" fill-rule="evenodd" fill="#2882FF" fill-opacity="1" style="mix-blend-mode:passthrough"/></g><g><path d="M14.6683559765625,14.246935234375Q15.0832959765625,13.832005234375,15.0832959765625,13.245195234375L15.0832959765625,9.578535234375Q15.0832959765625,9.429345234374999,15.026205976562501,9.291515234375Q14.9691059765625,9.153695234375,14.8636259765625,9.048205234375L13.1969559765625,7.381535234375Q13.0914659765625,7.276046234375,12.9536359765625,7.218955234375Q12.8158059765625,7.161865234375,12.6666259765625,7.161865234375L10.3332929765625,7.161865234375Q9.7464901765625,7.161865234375,9.3315579765625,7.576797234375Q8.9166259765625,7.991729434375,8.9166259765625,8.578532234375L8.9166259765625,13.245195234375Q8.9166259765625,13.832005234375,9.3315589765625,14.246935234375Q9.7464906765625,14.661865234375,10.3332929765625,14.661865234375L13.6666259765625,14.661865234375Q14.2534259765625,14.661865234375,14.6683559765625,14.246935234375ZM13.5832959765625,13.161865234375L13.5832959765625,9.889195234375L12.3559659765625,8.661865234375L10.4166259765625,8.661865234375L10.4166259765625,13.161865234375L13.5832959765625,13.161865234375Z" fill-rule="evenodd" fill="#2882FF" fill-opacity="1" style="mix-blend-mode:passthrough"/></g></g></svg>