<svg xmlns="http://www.w3.org/2000/svg" xmlns:xlink="http://www.w3.org/1999/xlink" fill="none" version="1.1" width="24" height="24" viewBox="0 0 24 24"><defs><clipPath id="master_svg0_69_12537"><rect x="0" y="0" width="24" height="24" rx="0"/></clipPath></defs><g clip-path="url(#master_svg0_69_12537)"><g><path d="M19.499990940093994,18.750000476837158L19.499990940093994,17.913700476837157L19.499990940093994,17.912000476837157Q19.499990940093994,17.83810047683716,19.485590940093996,17.76570047683716Q19.471190940093994,17.693200476837156,19.442890940093996,17.625000476837158Q19.414590940093994,17.556700476837158,19.373590940093994,17.49530047683716Q19.332590940093993,17.43390047683716,19.280290940093995,17.38170047683716Q19.228090940093995,17.329400476837158,19.166690940093993,17.288400476837158Q19.105290940093994,17.247400476837157,19.036990940093993,17.219100476837156Q18.968790940093996,17.190800476837158,18.896290940093994,17.17640047683716Q18.823890940093992,17.162000476837157,18.749990940093994,17.162000476837157Q18.676090940093996,17.162000476837157,18.603690940093994,17.17640047683716Q18.531190940093992,17.190800476837158,18.462990940093995,17.219100476837156Q18.394690940093994,17.247400476837157,18.333290940093995,17.288400476837158Q18.271890940093993,17.329400476837158,18.219690940093994,17.38170047683716Q18.167390940093995,17.43390047683716,18.126390940093994,17.49530047683716Q18.085390940093994,17.556700476837158,18.057090940093993,17.625000476837158Q18.028790940093995,17.693200476837156,18.014390940093996,17.76570047683716Q17.999990940093994,17.83810047683716,17.999990940093994,17.912000476837157L17.999990940093994,18.750000476837158Q17.999990940093994,19.26780047683716,17.633890940093995,19.63390047683716Q17.267790940093995,20.000000476837158,16.749990940093994,20.000000476837158L4.249990940093994,20.000000476837158Q3.732230940093994,20.000000476837158,3.366110940093994,19.63390047683716Q2.999993940093994,19.26780047683716,2.9999949400939943,18.750000476837158L3.0000119400939944,8.250000476837158Q3.000012940093994,7.732230476837158,3.366130940093994,7.366120476837159Q3.732240940093994,7.0000024768371585,4.250010940093994,7.000001476837158L4.500000940093994,7.000000476837158Q4.573870940093994,7.000000476837158,4.646320940093994,6.985589476837158Q4.718770940093995,6.971178476837158,4.787010940093994,6.942910476837159Q4.855260940093994,6.914641476837158,4.916680940093994,6.873602476837158Q4.978100940093994,6.832563476837159,5.030330940093994,6.780330476837158Q5.082560940093995,6.728097476837158,5.123600940093994,6.666678476837158Q5.164640940093994,6.605258476837158,5.192910940093994,6.537013476837158Q5.221180940093994,6.468767476837158,5.235590940093994,6.396318476837158Q5.250000940093994,6.323868976837158,5.250000940093994,6.250000476837158Q5.250000940093994,6.1761319768371585,5.235590940093994,6.103682476837158Q5.221180940093994,6.0312334768371585,5.192910940093994,5.962987476837158Q5.164640940093994,5.894742476837158,5.123600940093994,5.833322476837158Q5.082560940093995,5.771903476837158,5.030330940093994,5.719670476837158Q4.978100940093994,5.667437476837158,4.916680940093994,5.626398476837158Q4.855260940093994,5.585359476837159,4.787010940093994,5.557090476837158Q4.718770940093995,5.528822476837158,4.646320940093994,5.514411476837158Q4.573870940093994,5.500000476837158,4.500000940093994,5.500000476837158L4.250000940093994,5.500001476837158Q3.110920940093994,5.500004476837158,2.305467640093994,6.305458576837158Q1.5000139400939942,7.110912476837158,1.5000119400939942,8.250000476837158L1.4999949400939943,18.750000476837158Q1.4999919400939943,19.889100476837157,2.305449340093994,20.694500476837156Q3.110906940093994,21.500000476837158,4.249990940093994,21.500000476837158L16.749990940093994,21.500000476837158Q17.889090940093993,21.500000476837158,18.694490940093996,20.694500476837156Q19.499990940093994,19.889100476837157,19.499990940093994,18.750000476837158Z" fill-rule="evenodd" fill="#2882FF" fill-opacity="1"/></g><g><path d="M12.975950000000001,3.629747Q11.04139,2.5,9.87903,2.5L7.5,2.5Q6.25736,2.5,5.37868,3.37868Q4.5,4.25736,4.5,5.5L4.5,15.5Q4.5,16.7426,5.37868,17.621299999999998Q6.25736,18.5,7.5,18.5L19.75,18.5Q20.8891,18.5,21.6945,17.694499999999998Q22.5,16.8891,22.5,15.75L22.5,7.5Q22.5,6.25736,21.6213,5.37868Q20.7426,4.5,19.5,4.5L15.12163,4.5Q14.46517,4.49942,12.975950000000001,3.629747ZM7.5,4L9.87903,4Q10.63547,4,12.21952,4.92505Q14.05865,5.99907,15.12031,6L19.5,6Q20.121299999999998,6,20.5607,6.43934Q21,6.87868,21,7.5L21,15.75Q21,16.2678,20.6339,16.6339Q20.2678,17,19.75,17L7.5,17Q6.87868,17,6.43934,16.5607Q6,16.121299999999998,6,15.5L6,5.5Q6,4.87868,6.43934,4.43934Q6.87868,4,7.5,4Z" fill-rule="evenodd" fill="#231F2E" fill-opacity="1"/></g></g></svg>