<svg xmlns="http://www.w3.org/2000/svg" xmlns:xlink="http://www.w3.org/1999/xlink" fill="none" version="1.1" width="24" height="24" viewBox="0 0 24 24"><defs><clipPath id="master_svg0_69_12537"><rect x="0" y="0" width="24" height="24" rx="0"/></clipPath></defs><g clip-path="url(#master_svg0_69_12537)"><g><path d="M4.5,7Q4.573869999999999,7,4.646319999999999,6.985589Q4.71877,6.971178,4.78701,6.94291Q4.8552599999999995,6.914641,4.9166799999999995,6.873602Q4.9780999999999995,6.832563,5.03033,6.78033Q5.08256,6.728097,5.1236,6.666678Q5.16464,6.605258,5.1929099999999995,6.537013Q5.22118,6.468767,5.23559,6.396318Q5.25,6.3238685,5.25,6.25Q5.25,6.1761315,5.23559,6.103682Q5.22118,6.031233,5.1929099999999995,5.962987Q5.16464,5.894742,5.1236,5.833322Q5.08256,5.771903,5.03033,5.71967Q4.9780999999999995,5.667437,4.9166799999999995,5.626398Q4.8552599999999995,5.585359,4.78701,5.55709Q4.71877,5.528822,4.646319999999999,5.514411Q4.573869999999999,5.5,4.5,5.5L4.4993300000000005,5.5Q3.25712,5.5002379999999995,2.37868,6.37868Q1.5,7.25736,1.5,8.5L1.5,18.5Q1.5,19.7426,2.37868,20.621299999999998Q3.2573600000000003,21.5,4.5,21.5L16.75,21.5Q17.8891,21.5,18.6945,20.694499999999998Q19.5,19.8891,19.5,18.75L19.5,17.843600000000002Q19.5,17.7698,19.4856,17.6973Q19.4712,17.6249,19.4429,17.5566Q19.4146,17.4884,19.3736,17.427Q19.3326,17.3655,19.2803,17.313299999999998Q19.2281,17.2611,19.1667,17.22Q19.1053,17.179000000000002,19.037,17.1507Q18.9688,17.122500000000002,18.8963,17.1081Q18.8239,17.093600000000002,18.75,17.093600000000002Q18.6761,17.093600000000002,18.6037,17.1081Q18.5312,17.122500000000002,18.463,17.1507Q18.3947,17.179000000000002,18.3333,17.22Q18.2719,17.2611,18.2197,17.313299999999998Q18.1674,17.3655,18.1264,17.427Q18.0854,17.4884,18.0571,17.5566Q18.0288,17.6249,18.014400000000002,17.6973Q18,17.7698,18,17.843600000000002L18,18.75Q18,19.2678,17.6339,19.6339Q17.2678,20,16.75,20L4.5,20Q3.87868,20,3.43934,19.5607Q3,19.121299999999998,3,18.5L3,8.5Q3,7.87868,3.43934,7.43934Q3.87868,7,4.5,7Z" fill-rule="evenodd" fill="#2882FF" fill-opacity="1"/></g><g><path d="M12.975950000000001,3.629747Q11.04139,2.5,9.87903,2.5L7.5,2.5Q6.25736,2.5,5.37868,3.37868Q4.5,4.25736,4.5,5.5L4.5,15.5Q4.5,16.7426,5.37868,17.621299999999998Q6.25736,18.5,7.5,18.5L19.75,18.5Q20.8891,18.5,21.6945,17.694499999999998Q22.5,16.8891,22.5,15.75L22.5,7.5Q22.5,6.25736,21.6213,5.37868Q20.7426,4.5,19.5,4.5L15.12163,4.5Q14.46517,4.49942,12.975950000000001,3.629747ZM7.5,4L9.87903,4Q10.63547,4,12.21952,4.92505Q14.05865,5.99907,15.12031,6L19.5,6Q20.121299999999998,6,20.5607,6.43934Q21,6.87868,21,7.5L21,15.75Q21,16.2678,20.6339,16.6339Q20.2678,17,19.75,17L7.5,17Q6.87868,17,6.43934,16.5607Q6,16.121299999999998,6,15.5L6,5.5Q6,4.87868,6.43934,4.43934Q6.87868,4,7.5,4Z" fill-rule="evenodd" fill="#231F2E" fill-opacity="1"/></g></g></svg>