<svg xmlns="http://www.w3.org/2000/svg" xmlns:xlink="http://www.w3.org/1999/xlink" fill="none" version="1.1" width="24" height="24" viewBox="0 0 24 24"><defs><clipPath id="master_svg0_74_12062"><rect x="0" y="0" width="24" height="24" rx="0"/></clipPath></defs><g clip-path="url(#master_svg0_74_12062)"><g><path d="M2.1020399375,15.83730123046875L2.1015139375,15.83782123046875Q1.9960209375,15.943311230468751,1.9389289375,16.08115123046875Q1.8818359375,16.21898123046875,1.8818359375,16.36816123046875Q1.8818359375,16.44203123046875,1.8962469375,16.51448123046875Q1.9106579375,16.58693123046875,1.9389259375,16.65517123046875Q1.9671949375,16.72342123046875,2.0082339375,16.78484123046875Q2.0492729375,16.84626123046875,2.1015059375,16.89849123046875Q2.1537389375,16.95072123046875,2.2151579375,16.99176123046875Q2.2765779375,17.03280123046875,2.3448229375,17.061071230468748Q2.4130689375,17.08934123046875,2.4855179375,17.10375123046875Q2.5579674375,17.11816123046875,2.6318359375,17.11816123046875Q2.7810169375,17.11816123046875,2.9188429375,17.061071230468748Q3.0566689375,17.00399123046875,3.1621579375,16.89850123046875L3.1623119375,16.898351230468748L3.5303219375,16.53035123046875L8.530325937499999,11.53034123046875Q9.4999959375,10.59743423046875,10.4799559375,11.54043123046875L14.4690359375,15.52969123046875L14.4696359375,15.53034123046875Q14.5751359375,15.63583123046875,14.7130359375,15.69292123046875Q14.8508359375,15.75001123046875,15.0000359375,15.75001123046875Q15.0738359375,15.75001123046875,15.1463359375,15.735601230468749Q15.2187359375,15.72119123046875,15.2870359375,15.69292123046875Q15.3552359375,15.664651230468749,15.4166359375,15.62361123046875Q15.4781359375,15.58257123046875,15.5303359375,15.53034123046875Q15.5825359375,15.47811123046875,15.6236359375,15.41669123046875Q15.6646359375,15.35527123046875,15.6929359375,15.28702123046875Q15.7211359375,15.21878123046875,15.7356359375,15.14633123046875Q15.7500359375,15.07388123046875,15.7500359375,15.00001123046875Q15.7500359375,14.85083123046875,15.6929359375,14.71300123046875Q15.6358359375,14.57517123046875,15.5303359375,14.469681230468751L11.5200359375,10.45958823046875Q10.606245937499999,9.58026123046875,9.4999959375,9.58026123046875Q8.3937459375,9.58026123046875,7.4696659375,10.46968123046875L2.4696779375,15.46967123046875L2.1020399375,15.83730123046875Z" fill-rule="evenodd" fill="#231F2E" fill-opacity="1"/></g><g><path d="M20.75,5.5L20.75,13.5Q20.75,13.5739,20.7644,13.6463Q20.7788,13.7188,20.8071,13.787Q20.8354,13.8553,20.8764,13.9167Q20.9174,13.9781,20.9697,14.0303Q21.0219,14.0826,21.0833,14.1236Q21.1447,14.1646,21.213,14.1929Q21.2812,14.2212,21.3537,14.2356Q21.4261,14.25,21.5,14.25Q21.5739,14.25,21.6463,14.2356Q21.7188,14.2212,21.787,14.1929Q21.8553,14.1646,21.9167,14.1236Q21.9781,14.0826,22.0303,14.0303Q22.0826,13.9781,22.1236,13.9167Q22.1646,13.8553,22.1929,13.787Q22.2212,13.7188,22.2356,13.6463Q22.25,13.5739,22.25,13.5L22.25,5.5Q22.25,4.360912,21.4445,3.5554566Q20.6391,2.75,19.5,2.75L4.5,2.75Q3.360913,2.75,2.5554564,3.5554564Q1.75,4.360913,1.75,5.5L1.75,18.5Q1.75,19.6391,2.5554565,20.4445Q3.360912,21.25,4.5,21.25L14,21.25Q14.0739,21.25,14.1463,21.2356Q14.2188,21.2212,14.287,21.1929Q14.3553,21.1646,14.4167,21.1236Q14.4781,21.0826,14.5303,21.0303Q14.5826,20.9781,14.6236,20.9167Q14.6646,20.8553,14.6929,20.787Q14.7212,20.7188,14.7356,20.6463Q14.75,20.5739,14.75,20.5Q14.75,20.4261,14.7356,20.3537Q14.7212,20.2812,14.6929,20.213Q14.6646,20.1447,14.6236,20.0833Q14.5826,20.0219,14.5303,19.9697Q14.4781,19.9174,14.4167,19.8764Q14.3553,19.8354,14.287,19.8071Q14.2188,19.7788,14.1463,19.7644Q14.0739,19.75,14,19.75L4.5,19.75Q3.25,19.75,3.25,18.5L3.25,5.5Q3.25,4.25,4.5,4.25L19.5,4.25Q20.0178,4.25,20.3839,4.6161200000000004Q20.75,4.9822299999999995,20.75,5.5Z" fill-rule="evenodd" fill="#231F2E" fill-opacity="1"/></g><g><ellipse cx="15" cy="8" rx="1" ry="1" fill="#231F2E" fill-opacity="1"/></g><g transform="matrix(1,-4.0080045948798215e-8,4.0080045948798215e-8,1,-5.39365768048583e-7,6.813607811295697e-7)"><path d="M20.36414,22.45721435546875C20.33819,22.45721435546875,20.31224,22.452194355468748,20.28713,22.442984355468752C20.23356,22.422054355468752,20.19087,22.381044355468752,20.16743,22.328304355468752L18.91686,19.43710435546875L17.360772,20.899444355468752C17.29883,20.95804435546875,17.20759,20.973114355468752,17.128907,20.93962435546875C17.0510605,20.90614435546875,17,20.82829435546875,17,20.74292435546875L17,13.67145335546875C17,13.58607335546875,17.0502235,13.50906395546875,17.128907,13.47474435546875C17.206753,13.44126205546875,17.297993,13.45632927246875,17.360772,13.51492315546875L22.50366,18.31461435546875C22.5656,18.37237435546875,22.58736,18.46193435546875,22.559739999999998,18.54145435546875C22.53212,18.62181435546875,22.46013,18.67789435546875,22.37559,18.68543435546875L20.19338,18.87293435546875L21.5017,21.72562435546875C21.52514,21.776684355468753,21.52765,21.83611435546875,21.507559999999998,21.889684355468752C21.487470000000002,21.94326435546875,21.44813,21.98595435546875,21.39623,22.00938435546875L20.45287,22.43796435546875C20.4244,22.450514355468748,20.39511,22.45721435546875,20.36414,22.45721435546875Z" fill="#2882FF" fill-opacity="1"/></g><g><path d="M16.2449,13.110800903991699Q16.30573,13.0960149039917,16.36326,13.071349903991699Q16.4208,13.0466859039917,16.47344,13.012823903991698Q16.52609,12.978962903991698,16.572400000000002,12.9368429039917Q16.61871,12.8947219039917,16.6574,12.845507903991699Q16.69608,12.796292903991699,16.72607,12.7413469039917Q16.75606,12.6864009039917,16.77653,12.6272429039917Q16.797,12.5680849039917,16.80737,12.506352903991699Q16.81775,12.4446203039917,16.81775,12.3820219039917Q16.81775,12.3081534039917,16.80334,12.235703903991698Q16.78893,12.1632549039917,16.76066,12.0950089039917Q16.73239,12.0267639039917,16.69135,11.9653439039917Q16.65031,11.9039249039917,16.59808,11.8516919039917Q16.54585,11.799458903991699,16.48443,11.7584199039917Q16.42301,11.7173809039917,16.35476,11.6891119039917Q16.28652,11.6608439039917,16.21407,11.646432903991698Q16.14162,11.6320219039917,16.06775,11.6320219039917Q15.9779,11.6320219039917,15.8906,11.653243903991699L15.89036,11.6533019039917L15.88988,11.6534189039917Q15.12504,11.8395539039917,14.480265,12.459304303991699L13.469724,13.469641903991699L13.46967,13.469691903991698Q13.364181,13.5751819039917,13.30709,13.7130119039917Q13.25,13.8508419039917,13.25,14.0000219039917Q13.25,14.073891903991699,13.264410999999999,14.146341903991699Q13.278822,14.218791903991699,13.30709,14.2870319039917Q13.335359,14.355281903991699,13.376398,14.416701903991699Q13.417437,14.478121903991699,13.46967,14.530351903991699Q13.521903,14.582581903991699,13.583322,14.6236219039917Q13.644742,14.6646619039917,13.712987,14.692931903991699Q13.781233,14.721201903991698,13.853682,14.7356119039917Q13.9261315,14.7500219039917,14,14.7500219039917Q14.149184,14.7500219039917,14.287013,14.692931903991699Q14.424841,14.6358419039917,14.53033,14.530351903991699L14.530386,14.5302919039917L15.51973,13.5407419039917Q15.87283,13.2013479039917,16.24459,13.1108749039917L16.2449,13.1107999039917L16.2449,13.110800903991699Z" fill-rule="evenodd" fill="#231F2E" fill-opacity="1"/></g></g></svg>