<svg xmlns="http://www.w3.org/2000/svg" xmlns:xlink="http://www.w3.org/1999/xlink" fill="none" version="1.1" width="24" height="24" viewBox="0 0 24 24"><defs><clipPath id="master_svg0_69_01188"><rect x="0" y="0" width="24" height="24" rx="0"/></clipPath></defs><g clip-path="url(#master_svg0_69_01188)"><g><path d="M12.25,3Q12.25,2.9261315,12.264410999999999,2.853682Q12.278822,2.781233,12.30709,2.712987Q12.335359,2.644742,12.376398,2.583322Q12.417437,2.521903,12.46967,2.46967Q12.521903,2.417437,12.583322,2.376398Q12.644742,2.335359,12.712987,2.30709Q12.781233,2.278822,12.853682,2.264411Q12.9261315,2.25,13,2.25Q13.0738685,2.25,13.146318,2.264411Q13.218767,2.278822,13.287013,2.30709Q13.355258,2.335359,13.416678,2.376398Q13.478097,2.417437,13.53033,2.46967Q13.582563,2.521903,13.623602,2.583322Q13.664641,2.644742,13.69291,2.712987Q13.721178,2.781233,13.735589000000001,2.853682Q13.75,2.9261315,13.75,3L13.75,7Q13.75,7.10355,13.823223,7.17678Q13.896447,7.25,14,7.25L18,7.25Q18.07387,7.25,18.14632,7.26441Q18.21877,7.27882,18.287010000000002,7.30709Q18.35526,7.33536,18.41668,7.3764Q18.4781,7.41744,18.53033,7.46967Q18.58256,7.5219,18.6236,7.58332Q18.66464,7.64474,18.69291,7.71299Q18.72118,7.78123,18.735590000000002,7.85368Q18.75,7.92613,18.75,8Q18.75,8.07387,18.735590000000002,8.14632Q18.72118,8.21877,18.69291,8.28701Q18.66464,8.355260000000001,18.6236,8.41668Q18.58256,8.478100000000001,18.53033,8.53033Q18.4781,8.58256,18.41668,8.6236Q18.35526,8.66464,18.287010000000002,8.692910000000001Q18.21877,8.72118,18.14632,8.73559Q18.07387,8.75,18,8.75L14,8.75Q13.275126,8.75,12.762563,8.23744Q12.25,7.72487,12.25,7L12.25,3Z" fill-rule="evenodd" fill="#231F2E" fill-opacity="1"/></g><g><path d="M17.25,8.31066L17.25,12.5Q17.25,12.57387,17.264400000000002,12.64632Q17.2788,12.71877,17.3071,12.78701Q17.3354,12.85526,17.3764,12.91668Q17.4174,12.9781,17.4697,13.0303Q17.521900000000002,13.0826,17.5833,13.1236Q17.6447,13.1646,17.713,13.1929Q17.7812,13.2212,17.8537,13.2356Q17.926099999999998,13.25,18,13.25Q18.073900000000002,13.25,18.1463,13.2356Q18.2188,13.2212,18.287,13.1929Q18.3553,13.1646,18.4167,13.1236Q18.478099999999998,13.0826,18.5303,13.0303Q18.5826,12.9781,18.6236,12.91668Q18.6646,12.85526,18.6929,12.78701Q18.7212,12.71877,18.735599999999998,12.64632Q18.75,12.57387,18.75,12.5L18.75,12.4988L18.75,8Q18.75,7.85082,18.6929,7.71299Q18.6358,7.57516,18.5303,7.46967L13.53033,2.46967Q13.42484,2.364181,13.28701,2.30709Q13.14919,2.25,13,2.25L6,2.25Q4.860913,2.25,4.0554564,3.0554564Q3.25,3.860913,3.25,5L3.25,19Q3.25,20.1391,4.0554563,20.9445Q4.860912,21.75,6,21.75L11,21.75Q11.07387,21.75,11.14632,21.7356Q11.21877,21.7212,11.28701,21.6929Q11.355260000000001,21.6646,11.41668,21.6236Q11.478100000000001,21.5826,11.53033,21.5303Q11.58256,21.4781,11.6236,21.4167Q11.66464,21.3553,11.692910000000001,21.287Q11.72118,21.2188,11.73559,21.1463Q11.75,21.0739,11.75,21Q11.75,20.9261,11.73559,20.8537Q11.72118,20.7812,11.692910000000001,20.713Q11.66464,20.6447,11.6236,20.5833Q11.58256,20.5219,11.53033,20.4697Q11.478100000000001,20.4174,11.41668,20.3764Q11.355260000000001,20.3354,11.28701,20.3071Q11.21877,20.2788,11.14632,20.2644Q11.07387,20.25,11,20.25L6,20.25Q5.4822299999999995,20.25,5.1161200000000004,19.8839Q4.75,19.5178,4.75,19L4.75,5Q4.75,4.4822299999999995,5.1161200000000004,4.1161200000000004Q5.4822299999999995,3.75,6,3.75L12.68934,3.75L17.25,8.31066Z" fill-rule="evenodd" fill="#231F2E" fill-opacity="1"/></g><g><path d="M7,7.25L9,7.25Q9.07387,7.25,9.14632,7.264411Q9.21877,7.278822,9.28701,7.30709Q9.35526,7.335359,9.41668,7.376398Q9.4781,7.417437,9.53033,7.46967Q9.58256,7.521903,9.6236,7.583322Q9.66464,7.644742,9.69291,7.712987Q9.72118,7.781233,9.73559,7.853682Q9.75,7.9261315,9.75,8Q9.75,8.0738685,9.73559,8.146318Q9.72118,8.218767,9.69291,8.287013Q9.66464,8.355258,9.6236,8.416678Q9.58256,8.478097,9.53033,8.53033Q9.4781,8.582563,9.41668,8.623602Q9.35526,8.664641,9.28701,8.69291Q9.21877,8.721178,9.14632,8.735589000000001Q9.07387,8.75,9,8.75L7,8.75Q6.9261315,8.75,6.853682,8.735589000000001Q6.781233,8.721178,6.712987,8.69291Q6.644742,8.664641,6.583322,8.623602Q6.521903,8.582563,6.46967,8.53033Q6.417437,8.478097,6.376398,8.416678Q6.335359,8.355258,6.30709,8.287013Q6.278822,8.218767,6.264411,8.146318Q6.25,8.0738685,6.25,8Q6.25,7.9261315,6.264411,7.853682Q6.278822,7.781233,6.30709,7.712987Q6.335359,7.644742,6.376398,7.583322Q6.417437,7.521903,6.46967,7.46967Q6.521903,7.417437,6.583322,7.376398Q6.644742,7.335359,6.712987,7.30709Q6.781233,7.278822,6.853682,7.264411Q6.9261315,7.25,7,7.25Z" fill-rule="evenodd" fill="#231F2E" fill-opacity="1"/></g><g><path d="M7,11.25L15,11.25Q15.07387,11.25,15.14632,11.264410999999999Q15.21877,11.278822,15.28701,11.30709Q15.35526,11.335359,15.41668,11.376398Q15.4781,11.417437,15.53033,11.46967Q15.58256,11.521903,15.6236,11.583322Q15.66464,11.644742,15.69291,11.712987Q15.72118,11.781233,15.73559,11.853682Q15.75,11.9261315,15.75,12Q15.75,12.0738685,15.73559,12.146318Q15.72118,12.218767,15.69291,12.287013Q15.66464,12.355258,15.6236,12.416678Q15.58256,12.478097,15.53033,12.53033Q15.4781,12.582563,15.41668,12.623602Q15.35526,12.664641,15.28701,12.69291Q15.21877,12.721178,15.14632,12.735589000000001Q15.07387,12.75,15,12.75L7,12.75Q6.9261315,12.75,6.853682,12.735589000000001Q6.781233,12.721178,6.712987,12.69291Q6.644742,12.664641,6.583322,12.623602Q6.521903,12.582563,6.46967,12.53033Q6.417437,12.478097,6.376398,12.416678Q6.335359,12.355258,6.30709,12.287013Q6.278822,12.218767,6.264411,12.146318Q6.25,12.0738685,6.25,12Q6.25,11.9261315,6.264411,11.853682Q6.278822,11.781233,6.30709,11.712987Q6.335359,11.644742,6.376398,11.583322Q6.417437,11.521903,6.46967,11.46967Q6.521903,11.417437,6.583322,11.376398Q6.644742,11.335359,6.712987,11.30709Q6.781233,11.278822,6.853682,11.264410999999999Q6.9261315,11.25,7,11.25Z" fill-rule="evenodd" fill="#231F2E" fill-opacity="1"/></g><g><path d="M7,15.25L11,15.25Q11.07387,15.25,11.14632,15.264410999999999Q11.21877,15.278822,11.28701,15.30709Q11.355260000000001,15.335359,11.41668,15.376398Q11.478100000000001,15.417437,11.53033,15.46967Q11.58256,15.521903,11.6236,15.583322Q11.66464,15.644742,11.692910000000001,15.712987Q11.72118,15.781233,11.73559,15.853682Q11.75,15.9261315,11.75,16Q11.75,16.0738685,11.73559,16.146318Q11.72118,16.218767,11.692910000000001,16.287013Q11.66464,16.355258,11.6236,16.416678Q11.58256,16.478096999999998,11.53033,16.53033Q11.478100000000001,16.582563,11.41668,16.623601999999998Q11.355260000000001,16.664641,11.28701,16.69291Q11.21877,16.721178,11.14632,16.735589Q11.07387,16.75,11,16.75L7,16.75Q6.9261315,16.75,6.853682,16.735589Q6.781233,16.721178,6.712987,16.69291Q6.644742,16.664641,6.583322,16.623601999999998Q6.521903,16.582563,6.46967,16.53033Q6.417437,16.478096999999998,6.376398,16.416678Q6.335359,16.355258,6.30709,16.287013Q6.278822,16.218767,6.264411,16.146318Q6.25,16.0738685,6.25,16Q6.25,15.9261315,6.264411,15.853682Q6.278822,15.781233,6.30709,15.712987Q6.335359,15.644742,6.376398,15.583322Q6.417437,15.521903,6.46967,15.46967Q6.521903,15.417437,6.583322,15.376398Q6.644742,15.335359,6.712987,15.30709Q6.781233,15.278822,6.853682,15.264410999999999Q6.9261315,15.25,7,15.25Z" fill-rule="evenodd" fill="#231F2E" fill-opacity="1"/></g><g><g><path d="M16.030484,15.969824L21.0297,20.96904L21.03033,20.96967Q21.13582,21.07516,21.19291,21.212989999999998Q21.25,21.35082,21.25,21.5Q21.25,21.57387,21.235590000000002,21.64632Q21.22118,21.71877,21.19291,21.787010000000002Q21.16464,21.85526,21.1236,21.91668Q21.08256,21.9781,21.03033,22.03033Q20.9781,22.08256,20.91668,22.1236Q20.85526,22.16464,20.787010000000002,22.19291Q20.71877,22.22118,20.64632,22.235590000000002Q20.57387,22.25,20.5,22.25Q20.35082,22.25,20.212989999999998,22.19291Q20.07516,22.13582,19.96967,22.03033L19.96904,22.0297L14.969824,17.030484L14.96967,17.03033Q14.864181,16.924841,14.80709,16.787013Q14.75,16.649184,14.75,16.5Q14.75,16.4261315,14.764410999999999,16.353682Q14.778822,16.281233,14.80709,16.212987Q14.835359,16.144742,14.876398,16.083322Q14.917437,16.021903000000002,14.96967,15.96967Q15.021903,15.917437,15.083322,15.876398Q15.144742,15.835359,15.212987,15.80709Q15.281233,15.778822,15.353682,15.764410999999999Q15.4261315,15.75,15.5,15.75Q15.649184,15.75,15.787013,15.80709Q15.924841,15.864181,16.03033,15.96967L16.030484,15.969824Z" fill-rule="evenodd" fill="#DE1000" fill-opacity="1" style="mix-blend-mode:passthrough"/></g><g><path d="M21.03033,17.03033Q21.13582,16.924841,21.19291,16.787013Q21.25,16.649184,21.25,16.5Q21.25,16.4261315,21.235590000000002,16.353682Q21.22118,16.281233,21.19291,16.212987Q21.16464,16.144742,21.1236,16.083322Q21.08256,16.021903000000002,21.03033,15.96967Q20.9781,15.917437,20.91668,15.876398Q20.85526,15.835359,20.787010000000002,15.80709Q20.71877,15.778822,20.64632,15.764410999999999Q20.57387,15.75,20.5,15.75Q20.35082,15.75,20.212989999999998,15.80709Q20.07516,15.864181,19.96967,15.96967L19.96921,15.970132L14.970132,20.96921L14.96967,20.96967Q14.864181,21.07516,14.80709,21.212989999999998Q14.75,21.35082,14.75,21.5Q14.75,21.57387,14.764410999999999,21.64632Q14.778822,21.71877,14.80709,21.787010000000002Q14.835359,21.85526,14.876398,21.91668Q14.917437,21.9781,14.96967,22.03033Q15.021903,22.08256,15.083322,22.1236Q15.144742,22.16464,15.212987,22.19291Q15.281233,22.22118,15.353682,22.235590000000002Q15.4261315,22.25,15.5,22.25Q15.649184,22.25,15.787013,22.19291Q15.924841,22.13582,16.03033,22.03033L16.030792,22.02987L21.02987,17.030792L21.03033,17.03033L21.03033,17.03033Z" fill-rule="evenodd" fill="#DE1000" fill-opacity="1" style="mix-blend-mode:passthrough"/></g></g></g></svg>