<svg xmlns="http://www.w3.org/2000/svg" xmlns:xlink="http://www.w3.org/1999/xlink" fill="none" version="1.1" width="24" height="24" viewBox="0 0 24 24"><defs><clipPath id="master_svg0_69_12440"><rect x="0" y="0" width="24" height="24" rx="0"/></clipPath><linearGradient x1="0.31302955746650696" y1="0.07551626116037369" x2="0.7799554834135483" y2="0.8449152780454272" id="master_svg1_69_12585"><stop offset="0%" stop-color="#1784D8" stop-opacity="1"/><stop offset="100%" stop-color="#0864C5" stop-opacity="1"/></linearGradient><linearGradient x1="0.12399999797344208" y1="0.11881744116544724" x2="1.172237567839329" y2="0.7278056756036047" id="master_svg2_69_12586"><stop offset="0%" stop-color="#31ABEC" stop-opacity="1"/><stop offset="100%" stop-color="#1582D5" stop-opacity="1"/></linearGradient><linearGradient x1="0.20936129987239838" y1="0.23351871967315674" x2="1.4038717945164758" y2="1.2904112829731833" id="master_svg3_69_12587"><stop offset="0%" stop-color="#31ABEC" stop-opacity="1"/><stop offset="100%" stop-color="#1582D5" stop-opacity="1"/></linearGradient><linearGradient x1="0.18637770414352417" y1="0.27372804284095764" x2="1.7653435263728545" y2="1.1783665912517889" id="master_svg4_69_12588"><stop offset="0%" stop-color="#54DAFF" stop-opacity="1"/><stop offset="100%" stop-color="#25A2E5" stop-opacity="1"/></linearGradient></defs><g clip-path="url(#master_svg0_69_12440)"><g><path d="M9.9999931640625,12.5130005L2.5054931640625,12.5L2.5059932710625,18.001C2.5059932710625,18.5005,2.8744931640624998,18.923000000000002,3.3689931640625,18.991500000000002L9.9999931640625,19.909L9.9999931640625,12.5130005Z" fill="url(#master_svg1_69_12585)" fill-opacity="1" style="mix-blend-mode:passthrough"/></g><g><path d="M11,12.5150146484375L11,20.0475146484375L20.361,21.3425146484375C20.962,21.4255146484375,21.497999999999998,20.959014648437503,21.497999999999998,20.3520146484375L21.5,12.5330148484375L11,12.5150146484375Z" fill="url(#master_svg2_69_12586)" fill-opacity="1" style="mix-blend-mode:passthrough"/></g><g><path d="M9.999976562499999,4.1279296875L3.3609765625,5.0679296874999995C2.8674765625,5.1379296875,2.5004769135,5.5604296875,2.500977020264,6.0589296875L2.5069767025,11.4999296875L9.999976562499999,11.4999296875L9.999976562499999,4.1279296875Z" fill="url(#master_svg3_69_12587)" fill-opacity="1" style="mix-blend-mode:passthrough"/></g><g><path d="M11,3.9864771875000002L11,11.4999771875L21.497500000000002,11.4999771875L21.497500000000002,3.6514771875000003C21.497500000000002,3.0434811875,20.9595,2.5759810875,20.3575,2.6614809875L11,3.9864771875000002Z" fill="url(#master_svg4_69_12588)" fill-opacity="1" style="mix-blend-mode:passthrough"/></g></g></svg>