<svg xmlns="http://www.w3.org/2000/svg" xmlns:xlink="http://www.w3.org/1999/xlink" fill="none" version="1.1" width="24" height="24" viewBox="0 0 24 24"><defs><clipPath id="master_svg0_69_12703"><rect x="0" y="0" width="24" height="24" rx="0"/></clipPath></defs><g clip-path="url(#master_svg0_69_12703)"><g><path d="M1.5,6L1.5,18Q1.5,19.2426,2.37868,20.1213Q3.2573600000000003,21,4.5,21L19.75,21Q20.8891,21,21.6945,20.1945Q22.5,19.3891,22.5,18.25L22.5,10Q22.5,8.75736,21.6213,7.87868Q20.7426,7,19.5,7L14.121,7Q13.8111,6.99973,13.5916,6.779999999999999Q13.5801,6.76844,13.5681,6.7574000000000005L10.47033,3.6596724Q9.8112,3,8.87903,3L4.5,3Q3.2573600000000003,3,2.37868,3.87868Q1.5,4.75736,1.5,6ZM4.5,19.5Q3,19.5,3,18L3,6Q3,4.5,4.5,4.5L8.87903,4.5Q9.18952,4.5,9.40967,4.720333L12.5297,7.84033Q12.5429,7.85355,12.5567,7.86609Q13.2073,8.4992,14.121,8.5L19.5,8.5Q21,8.5,21,10L21,18.25Q21,18.7678,20.6339,19.1339Q20.2678,19.5,19.75,19.5L4.5,19.5Z" fill-rule="evenodd" fill="#231F2E" fill-opacity="1"/></g><g><path d="M11,4.5L18,4.5Q19.34619,4.5,20.298099999999998,5.451903Q21.25,6.40381,21.25,7.75Q21.25,7.823869999999999,21.235599999999998,7.896319999999999Q21.2212,7.96877,21.1929,8.03701Q21.1646,8.10526,21.1236,8.16668Q21.0826,8.2281,21.0303,8.28033Q20.978099999999998,8.33256,20.91668,8.3736Q20.85526,8.41464,20.787010000000002,8.44291Q20.71877,8.47118,20.64632,8.48559Q20.57387,8.5,20.5,8.5Q20.42613,8.5,20.35368,8.48559Q20.28123,8.47118,20.212989999999998,8.44291Q20.14474,8.41464,20.08332,8.3736Q20.021900000000002,8.33256,19.96967,8.28033Q19.91744,8.2281,19.8764,8.16668Q19.83536,8.10526,19.807090000000002,8.03701Q19.77882,7.96877,19.764409999999998,7.896319999999999Q19.75,7.823869999999999,19.75,7.75Q19.75,7.02513,19.23744,6.51256Q18.72487,6,18,6L11,6Q10.9261315,6,10.853682,5.985589Q10.781233,5.971178,10.712987,5.94291Q10.644742,5.914641,10.583322,5.873602Q10.521903,5.832563,10.46967,5.78033Q10.417437,5.728097,10.376398,5.666678Q10.335359,5.605258,10.30709,5.537013Q10.278822,5.468767,10.264410999999999,5.396318Q10.25,5.3238685,10.25,5.25Q10.25,5.1761315,10.264410999999999,5.103682Q10.278822,5.031233,10.30709,4.962987Q10.335359,4.894742,10.376398,4.833322Q10.417437,4.771903,10.46967,4.71967Q10.521903,4.667437,10.583322,4.626398Q10.644742,4.585359,10.712987,4.55709Q10.781233,4.528822,10.853682,4.514411Q10.9261315,4.5,11,4.5Z" fill-rule="evenodd" fill="#231F2E" fill-opacity="1"/></g><g><path d="M5.7099609375,11.75L9.2799709375,11.75Q9.3538409375,11.75,9.4262809375,11.764410999999999Q9.4987309375,11.778822,9.5669809375,11.80709Q9.6352309375,11.835359,9.6966409375,11.876398Q9.7580609375,11.917437,9.8103009375,11.96967Q9.8625309375,12.021903,9.9035709375,12.083322Q9.9446109375,12.144742,9.972880937500001,12.212987Q10.0011409375,12.281233,10.0155609375,12.353682Q10.0299709375,12.4261315,10.0299709375,12.5Q10.0299709375,12.5738685,10.0155609375,12.646318Q10.0011409375,12.718767,9.972880937500001,12.787013Q9.9446109375,12.855258,9.9035709375,12.916678Q9.8625309375,12.978097,9.8103009375,13.03033Q9.7580609375,13.082563,9.6966409375,13.123602Q9.6352309375,13.164641,9.5669809375,13.19291Q9.4987309375,13.221178,9.4262809375,13.235589000000001Q9.3538409375,13.25,9.2799709375,13.25L8.2499409375,13.25L8.2499409375,17.5Q8.2499409375,17.57387,8.2355309375,17.64632Q8.2211209375,17.71877,8.1928509375,17.787010000000002Q8.1645809375,17.85526,8.1235409375,17.91668Q8.0825009375,17.9781,8.0302709375,18.03033Q7.9780309375,18.08256,7.916620937499999,18.1236Q7.855200937499999,18.16464,7.7869509375,18.19291Q7.7187009374999995,18.22118,7.6462609375,18.235590000000002Q7.5738109375,18.25,7.4999409375,18.25Q7.4260709375000005,18.25,7.3536209375,18.235590000000002Q7.2811709375,18.22118,7.2129309374999995,18.19291Q7.1446809375,18.16464,7.0832609375,18.1236Q7.0218409375,18.08256,6.9696109375,18.03033Q6.9173709375,17.9781,6.8763409375,17.91668Q6.8353009375,17.85526,6.8070309375,17.787010000000002Q6.7787609374999995,17.71877,6.7643509375,17.64632Q6.7499409375,17.57387,6.7499409375,17.5L6.7499409375,13.25L5.7099609375,13.25Q5.6360924375,13.25,5.5636429375,13.235589000000001Q5.4911939375,13.221178,5.4229479375,13.19291Q5.3547029375,13.164641,5.2932829375,13.123602Q5.2318639375,13.082563,5.1796309375,13.03033Q5.1273979375,12.978097,5.0863589375,12.916678Q5.0453199375,12.855258,5.0170509375,12.787013Q4.9887829375,12.718767,4.9743719375,12.646318Q4.9599609375,12.5738685,4.9599609375,12.5Q4.9599609375,12.4261315,4.9743719375,12.353682Q4.9887829375,12.281233,5.0170509375,12.212987Q5.0453199375,12.144742,5.0863589375,12.083322Q5.1273979375,12.021903,5.1796309375,11.96967Q5.2318639375,11.917437,5.2932829375,11.876398Q5.3547029375,11.835359,5.4229479375,11.80709Q5.4911939375,11.778822,5.5636429375,11.764410999999999Q5.6360924375,11.75,5.7099609375,11.75Z" fill-rule="evenodd" fill="#2882FF" fill-opacity="1" style="mix-blend-mode:passthrough"/></g><g><path d="M10.5,16.748992919921875L13.5,16.748992919921875Q13.57387,16.748992919921875,13.64632,16.763403919921874Q13.71877,16.777814919921877,13.78701,16.806082919921874Q13.85526,16.834351919921875,13.91668,16.875390919921877Q13.9781,16.916429919921875,14.03033,16.968662919921876Q14.08256,17.020895919921877,14.1236,17.082314919921874Q14.16464,17.143734919921876,14.19291,17.211979919921873Q14.22118,17.280225919921875,14.23559,17.352674919921874Q14.25,17.425124419921875,14.25,17.498992919921875Q14.25,17.572861419921875,14.23559,17.645310919921876Q14.22118,17.717759919921875,14.19291,17.786005919921877Q14.16464,17.854250919921874,14.1236,17.915670919921876Q14.08256,17.977089919921873,14.03033,18.029322919921874Q13.9781,18.081555919921875,13.91668,18.122594919921873Q13.85526,18.163633919921875,13.78701,18.191902919921876Q13.71877,18.220170919921873,13.64632,18.234581919921876Q13.57387,18.248992919921875,13.5,18.248992919921875L10.5,18.248992919921875Q10.4261315,18.248992919921875,10.353682,18.234581919921876Q10.281233,18.220170919921873,10.212987,18.191902919921876Q10.144742,18.163633919921875,10.083322,18.122594919921873Q10.021903,18.081555919921875,9.96967,18.029322919921874Q9.917437,17.977089919921873,9.876398,17.915670919921876Q9.835359,17.854250919921874,9.80709,17.786005919921877Q9.778822,17.717759919921875,9.764410999999999,17.645310919921876Q9.75,17.572861419921875,9.75,17.498992919921875Q9.75,17.425124419921875,9.764410999999999,17.352674919921874Q9.778822,17.280225919921875,9.80709,17.211979919921873Q9.835359,17.143734919921876,9.876398,17.082314919921874Q9.917437,17.020895919921877,9.96967,16.968662919921876Q10.021903,16.916429919921875,10.083322,16.875390919921877Q10.144742,16.834351919921875,10.212987,16.806082919921874Q10.281233,16.777814919921877,10.353682,16.763403919921874Q10.4261315,16.748992919921875,10.5,16.748992919921875Z" fill-rule="evenodd" fill="#2882FF" fill-opacity="1"/></g></g></svg>