<svg xmlns="http://www.w3.org/2000/svg" xmlns:xlink="http://www.w3.org/1999/xlink" fill="none" version="1.1" width="24" height="24" viewBox="0 0 24 24"><defs><clipPath id="master_svg0_69_01390"><rect x="0" y="0" width="24" height="24" rx="0"/></clipPath></defs><g clip-path="url(#master_svg0_69_01390)"><g><path d="M21,10L21,12.5Q21,12.57387,21.0144,12.64632Q21.0288,12.71877,21.0571,12.78701Q21.0854,12.85526,21.1264,12.91668Q21.1674,12.9781,21.2197,13.03033Q21.2719,13.08256,21.3333,13.1236Q21.3947,13.16464,21.463,13.19291Q21.5312,13.22118,21.6037,13.23559Q21.6761,13.25,21.75,13.25Q21.8239,13.25,21.8963,13.23559Q21.9688,13.22118,22.037,13.19291Q22.1053,13.16464,22.1667,13.1236Q22.2281,13.08256,22.2803,13.03033Q22.3326,12.9781,22.3736,12.91668Q22.4146,12.85526,22.4429,12.78701Q22.4712,12.71877,22.4856,12.64632Q22.5,12.57387,22.5,12.5L22.5,10Q22.5,8.75736,21.6213,7.87868Q20.7426,7,19.5,7L14.121,7Q13.8111,6.99973,13.5916,6.779999999999999Q13.5801,6.76844,13.5681,6.7574000000000005L10.47033,3.6596724Q9.8112,3,8.87903,3L4.5,3Q3.2573600000000003,3,2.37868,3.87868Q1.5,4.75736,1.5,6L1.5,18Q1.5,19.2426,2.37868,20.1213Q3.2573600000000003,21,4.5,21L12,21Q12.07387,21,12.14632,20.9856Q12.21877,20.9712,12.287,20.9429Q12.3553,20.9146,12.4167,20.8736Q12.4781,20.8326,12.5303,20.7803Q12.5826,20.7281,12.6236,20.6667Q12.6646,20.6053,12.6929,20.537Q12.7212,20.4688,12.7356,20.3963Q12.75,20.3239,12.75,20.25Q12.75,20.1761,12.7356,20.1037Q12.7212,20.0312,12.6929,19.963Q12.6646,19.8947,12.6236,19.8333Q12.5826,19.7719,12.5303,19.7197Q12.4781,19.6674,12.4167,19.6264Q12.3553,19.5854,12.287,19.5571Q12.21877,19.5288,12.14632,19.514400000000002Q12.07387,19.5,12,19.5L4.5,19.5Q3,19.5,3,18L3,6Q3,4.5,4.5,4.5L8.87903,4.5Q9.18952,4.5,9.40967,4.720333L12.5297,7.84033Q12.5429,7.85355,12.5567,7.86609Q13.2073,8.4992,14.121,8.5L19.5,8.5Q21,8.5,21,10Z" fill-rule="evenodd" fill="#231F2E" fill-opacity="1"/></g><g><path d="M11,4.5L18,4.5Q19.34619,4.5,20.298099999999998,5.451903Q21.25,6.40381,21.25,7.75Q21.25,7.823869999999999,21.235599999999998,7.896319999999999Q21.2212,7.96877,21.1929,8.03701Q21.1646,8.10526,21.1236,8.16668Q21.0826,8.2281,21.0303,8.28033Q20.978099999999998,8.33256,20.91668,8.3736Q20.85526,8.41464,20.787010000000002,8.44291Q20.71877,8.47118,20.64632,8.48559Q20.57387,8.5,20.5,8.5Q20.42613,8.5,20.35368,8.48559Q20.28123,8.47118,20.212989999999998,8.44291Q20.14474,8.41464,20.08332,8.3736Q20.021900000000002,8.33256,19.96967,8.28033Q19.91744,8.2281,19.8764,8.16668Q19.83536,8.10526,19.807090000000002,8.03701Q19.77882,7.96877,19.764409999999998,7.896319999999999Q19.75,7.823869999999999,19.75,7.75Q19.75,7.02513,19.23744,6.51256Q18.72487,6,18,6L11,6Q10.9261315,6,10.853682,5.985589Q10.781233,5.971178,10.712987,5.94291Q10.644742,5.914641,10.583322,5.873602Q10.521903,5.832563,10.46967,5.78033Q10.417437,5.728097,10.376398,5.666678Q10.335359,5.605258,10.30709,5.537013Q10.278822,5.468767,10.264410999999999,5.396318Q10.25,5.3238685,10.25,5.25Q10.25,5.1761315,10.264410999999999,5.103682Q10.278822,5.031233,10.30709,4.962987Q10.335359,4.894742,10.376398,4.833322Q10.417437,4.771903,10.46967,4.71967Q10.521903,4.667437,10.583322,4.626398Q10.644742,4.585359,10.712987,4.55709Q10.781233,4.528822,10.853682,4.514411Q10.9261315,4.5,11,4.5Z" fill-rule="evenodd" fill="#231F2E" fill-opacity="1"/></g><g><path d="M15,21.25L17,21.25Q17.07387,21.25,17.14632,21.264411Q17.21877,21.278822,17.28701,21.30709Q17.35526,21.335359,17.41668,21.376398000000002Q17.4781,21.417437,17.53033,21.46967Q17.58256,21.521903000000002,17.6236,21.583322Q17.66464,21.644742,17.69291,21.712987Q17.72118,21.781233,17.735590000000002,21.853682Q17.75,21.9261315,17.75,22Q17.75,22.0738685,17.735590000000002,22.146318Q17.72118,22.218767,17.69291,22.287013Q17.66464,22.355258,17.6236,22.416678Q17.58256,22.478096999999998,17.53033,22.53033Q17.4781,22.582563,17.41668,22.623601999999998Q17.35526,22.664641,17.28701,22.69291Q17.21877,22.721178,17.14632,22.735589Q17.07387,22.75,17,22.75L15,22.75Q14.9261315,22.75,14.853682,22.735589Q14.781233,22.721178,14.712987,22.69291Q14.644742,22.664641,14.583322,22.623601999999998Q14.521903,22.582563,14.46967,22.53033Q14.417437,22.478096999999998,14.376398,22.416678Q14.335359,22.355258,14.30709,22.287013Q14.278822,22.218767,14.264410999999999,22.146318Q14.25,22.0738685,14.25,22Q14.25,21.9261315,14.264410999999999,21.853682Q14.278822,21.781233,14.30709,21.712987Q14.335359,21.644742,14.376398,21.583322Q14.417437,21.521903000000002,14.46967,21.46967Q14.521903,21.417437,14.583322,21.376398000000002Q14.644742,21.335359,14.712987,21.30709Q14.781233,21.278822,14.853682,21.264411Q14.9261315,21.25,15,21.25Z" fill-rule="evenodd" fill="#2882FF" fill-opacity="1"/></g><g><path d="M15,18.25L21,18.25Q21.07387,18.25,21.14632,18.264411Q21.21877,18.278822,21.287010000000002,18.30709Q21.35526,18.335359,21.41668,18.376398000000002Q21.4781,18.417437,21.53033,18.46967Q21.58256,18.521903000000002,21.6236,18.583322Q21.66464,18.644742,21.69291,18.712987Q21.72118,18.781233,21.735590000000002,18.853682Q21.75,18.9261315,21.75,19Q21.75,19.0738685,21.735590000000002,19.146318Q21.72118,19.218767,21.69291,19.287013Q21.66464,19.355258,21.6236,19.416678Q21.58256,19.478096999999998,21.53033,19.53033Q21.4781,19.582563,21.41668,19.623601999999998Q21.35526,19.664641,21.287010000000002,19.69291Q21.21877,19.721178,21.14632,19.735589Q21.07387,19.75,21,19.75L15,19.75Q14.9261315,19.75,14.853682,19.735589Q14.781233,19.721178,14.712987,19.69291Q14.644742,19.664641,14.583322,19.623601999999998Q14.521903,19.582563,14.46967,19.53033Q14.417437,19.478096999999998,14.376398,19.416678Q14.335359,19.355258,14.30709,19.287013Q14.278822,19.218767,14.264410999999999,19.146318Q14.25,19.0738685,14.25,19Q14.25,18.9261315,14.264410999999999,18.853682Q14.278822,18.781233,14.30709,18.712987Q14.335359,18.644742,14.376398,18.583322Q14.417437,18.521903000000002,14.46967,18.46967Q14.521903,18.417437,14.583322,18.376398000000002Q14.644742,18.335359,14.712987,18.30709Q14.781233,18.278822,14.853682,18.264411Q14.9261315,18.25,15,18.25Z" fill-rule="evenodd" fill="#2882FF" fill-opacity="1"/></g><g><path d="M15,15.25L21,15.25Q21.07387,15.25,21.14632,15.264410999999999Q21.21877,15.278822,21.287010000000002,15.30709Q21.35526,15.335359,21.41668,15.376398Q21.4781,15.417437,21.53033,15.46967Q21.58256,15.521903,21.6236,15.583322Q21.66464,15.644742,21.69291,15.712987Q21.72118,15.781233,21.735590000000002,15.853682Q21.75,15.9261315,21.75,16Q21.75,16.0738685,21.735590000000002,16.146318Q21.72118,16.218767,21.69291,16.287013Q21.66464,16.355258,21.6236,16.416678Q21.58256,16.478096999999998,21.53033,16.53033Q21.4781,16.582563,21.41668,16.623601999999998Q21.35526,16.664641,21.287010000000002,16.69291Q21.21877,16.721178,21.14632,16.735589Q21.07387,16.75,21,16.75L15,16.75Q14.9261315,16.75,14.853682,16.735589Q14.781233,16.721178,14.712987,16.69291Q14.644742,16.664641,14.583322,16.623601999999998Q14.521903,16.582563,14.46967,16.53033Q14.417437,16.478096999999998,14.376398,16.416678Q14.335359,16.355258,14.30709,16.287013Q14.278822,16.218767,14.264410999999999,16.146318Q14.25,16.0738685,14.25,16Q14.25,15.9261315,14.264410999999999,15.853682Q14.278822,15.781233,14.30709,15.712987Q14.335359,15.644742,14.376398,15.583322Q14.417437,15.521903,14.46967,15.46967Q14.521903,15.417437,14.583322,15.376398Q14.644742,15.335359,14.712987,15.30709Q14.781233,15.278822,14.853682,15.264410999999999Q14.9261315,15.25,15,15.25Z" fill-rule="evenodd" fill="#2882FF" fill-opacity="1"/></g></g></svg>