<svg xmlns="http://www.w3.org/2000/svg" xmlns:xlink="http://www.w3.org/1999/xlink" fill="none" version="1.1" width="24" height="24" viewBox="0 0 24 24"><defs><clipPath id="master_svg0_69_01556"><rect x="0" y="0" width="24" height="24" rx="0"/></clipPath></defs><g clip-path="url(#master_svg0_69_01556)"><g><path d="M21,10L21,12.5Q21,12.57387,21.0144,12.64632Q21.0288,12.71877,21.0571,12.78701Q21.0854,12.85526,21.1264,12.91668Q21.1674,12.9781,21.2197,13.03033Q21.2719,13.08256,21.3333,13.1236Q21.3947,13.16464,21.463,13.19291Q21.5312,13.22118,21.6037,13.23559Q21.6761,13.25,21.75,13.25Q21.8239,13.25,21.8963,13.23559Q21.9688,13.22118,22.037,13.19291Q22.1053,13.16464,22.1667,13.1236Q22.2281,13.08256,22.2803,13.03033Q22.3326,12.9781,22.3736,12.91668Q22.4146,12.85526,22.4429,12.78701Q22.4712,12.71877,22.4856,12.64632Q22.5,12.57387,22.5,12.5L22.5,10Q22.5,8.75736,21.6213,7.87868Q20.7426,7,19.5,7L14.121,7Q13.8111,6.99973,13.5916,6.779999999999999Q13.5801,6.76844,13.5681,6.7574000000000005L10.47033,3.6596724Q9.8112,3,8.87903,3L4.5,3Q3.2573600000000003,3,2.37868,3.87868Q1.5,4.75736,1.5,6L1.5,18Q1.5,19.2426,2.37868,20.1213Q3.2573600000000003,21,4.5,21L12,21Q12.07387,21,12.14632,20.9856Q12.21877,20.9712,12.287,20.9429Q12.3553,20.9146,12.4167,20.8736Q12.4781,20.8326,12.5303,20.7803Q12.5826,20.7281,12.6236,20.6667Q12.6646,20.6053,12.6929,20.537Q12.7212,20.4688,12.7356,20.3963Q12.75,20.3239,12.75,20.25Q12.75,20.1761,12.7356,20.1037Q12.7212,20.0312,12.6929,19.963Q12.6646,19.8947,12.6236,19.8333Q12.5826,19.7719,12.5303,19.7197Q12.4781,19.6674,12.4167,19.6264Q12.3553,19.5854,12.287,19.5571Q12.21877,19.5288,12.14632,19.514400000000002Q12.07387,19.5,12,19.5L4.5,19.5Q3,19.5,3,18L3,6Q3,4.5,4.5,4.5L8.87903,4.5Q9.18952,4.5,9.40967,4.720333L12.5297,7.84033Q12.5429,7.85355,12.5567,7.86609Q13.2073,8.4992,14.121,8.5L19.5,8.5Q21,8.5,21,10Z" fill-rule="evenodd" fill="#231F2E" fill-opacity="1"/></g><g><path d="M11,4.5L18,4.5Q19.34619,4.5,20.298099999999998,5.451903Q21.25,6.40381,21.25,7.75Q21.25,7.823869999999999,21.235599999999998,7.896319999999999Q21.2212,7.96877,21.1929,8.03701Q21.1646,8.10526,21.1236,8.16668Q21.0826,8.2281,21.0303,8.28033Q20.978099999999998,8.33256,20.91668,8.3736Q20.85526,8.41464,20.787010000000002,8.44291Q20.71877,8.47118,20.64632,8.48559Q20.57387,8.5,20.5,8.5Q20.42613,8.5,20.35368,8.48559Q20.28123,8.47118,20.212989999999998,8.44291Q20.14474,8.41464,20.08332,8.3736Q20.021900000000002,8.33256,19.96967,8.28033Q19.91744,8.2281,19.8764,8.16668Q19.83536,8.10526,19.807090000000002,8.03701Q19.77882,7.96877,19.764409999999998,7.896319999999999Q19.75,7.823869999999999,19.75,7.75Q19.75,7.02513,19.23744,6.51256Q18.72487,6,18,6L11,6Q10.9261315,6,10.853682,5.985589Q10.781233,5.971178,10.712987,5.94291Q10.644742,5.914641,10.583322,5.873602Q10.521903,5.832563,10.46967,5.78033Q10.417437,5.728097,10.376398,5.666678Q10.335359,5.605258,10.30709,5.537013Q10.278822,5.468767,10.264410999999999,5.396318Q10.25,5.3238685,10.25,5.25Q10.25,5.1761315,10.264410999999999,5.103682Q10.278822,5.031233,10.30709,4.962987Q10.335359,4.894742,10.376398,4.833322Q10.417437,4.771903,10.46967,4.71967Q10.521903,4.667437,10.583322,4.626398Q10.644742,4.585359,10.712987,4.55709Q10.781233,4.528822,10.853682,4.514411Q10.9261315,4.5,11,4.5Z" fill-rule="evenodd" fill="#231F2E" fill-opacity="1"/></g><g><path d="M17.030484,15.974722071289062L22.0297,20.973938071289062L22.03033,20.974568071289063Q22.13582,21.080058071289063,22.19291,21.21788807128906Q22.25,21.35571807128906,22.25,21.504898071289062Q22.25,21.578768071289062,22.235590000000002,21.651218071289062Q22.22118,21.72366807128906,22.19291,21.791908071289065Q22.16464,21.860158071289064,22.1236,21.921578071289062Q22.08256,21.982998071289064,22.03033,22.035228071289062Q21.9781,22.087458071289063,21.91668,22.128498071289062Q21.85526,22.16953807128906,21.787010000000002,22.197808071289064Q21.71877,22.226078071289063,21.64632,22.240488071289064Q21.57387,22.254898071289062,21.5,22.254898071289062Q21.35082,22.254898071289062,21.212989999999998,22.197808071289064Q21.07516,22.14071807128906,20.96967,22.035228071289062L20.96904,22.03459807128906L15.969824,17.035382071289064L15.96967,17.035228071289062Q15.864181,16.929739071289063,15.80709,16.791911071289064Q15.75,16.654082071289064,15.75,16.504898071289062Q15.75,16.431029571289063,15.764410999999999,16.35858007128906Q15.778822,16.286131071289063,15.80709,16.21788507128906Q15.835359,16.149640071289063,15.876398,16.08822007128906Q15.917437,16.026801071289064,15.96967,15.974568071289063Q16.021903000000002,15.922335071289062,16.083322,15.881296071289063Q16.144742,15.840257071289063,16.212987,15.811988071289063Q16.281233,15.783720071289062,16.353682,15.769309071289062Q16.4261315,15.754898071289062,16.5,15.754898071289062Q16.649184,15.754898071289062,16.787013,15.811988071289063Q16.924841,15.869079071289063,17.03033,15.974568071289063L17.030484,15.974722071289062Z" fill-rule="evenodd" fill="#DE1000" fill-opacity="1" style="mix-blend-mode:passthrough"/></g><g><path d="M22.03033,17.035228071289062Q22.13582,16.929739071289063,22.19291,16.791911071289064Q22.25,16.654082071289064,22.25,16.504898071289062Q22.25,16.431029571289063,22.235590000000002,16.35858007128906Q22.22118,16.286131071289063,22.19291,16.21788507128906Q22.16464,16.149640071289063,22.1236,16.08822007128906Q22.08256,16.026801071289064,22.03033,15.974568071289063Q21.9781,15.922335071289062,21.91668,15.881296071289063Q21.85526,15.840257071289063,21.787010000000002,15.811988071289063Q21.71877,15.783720071289062,21.64632,15.769309071289062Q21.57387,15.754898071289062,21.5,15.754898071289062Q21.35082,15.754898071289062,21.212989999999998,15.811988071289063Q21.07516,15.869079071289063,20.96967,15.974568071289063L20.96921,15.975030071289062L15.970132,20.974108071289063L15.96967,20.974568071289063Q15.864181,21.080058071289063,15.80709,21.21788807128906Q15.75,21.35571807128906,15.75,21.504898071289062Q15.75,21.578768071289062,15.764410999999999,21.651218071289062Q15.778822,21.72366807128906,15.80709,21.791908071289065Q15.835359,21.860158071289064,15.876398,21.921578071289062Q15.917437,21.982998071289064,15.96967,22.035228071289062Q16.021903000000002,22.087458071289063,16.083322,22.128498071289062Q16.144742,22.16953807128906,16.212987,22.197808071289064Q16.281233,22.226078071289063,16.353682,22.240488071289064Q16.4261315,22.254898071289062,16.5,22.254898071289062Q16.649184,22.254898071289062,16.787013,22.197808071289064Q16.924841,22.14071807128906,17.03033,22.035228071289062L17.030792,22.03476807128906L22.02987,17.035690071289064L22.03033,17.035228071289062L22.03033,17.035228071289062Z" fill-rule="evenodd" fill="#DE1000" fill-opacity="1" style="mix-blend-mode:passthrough"/></g></g></svg>