<svg xmlns="http://www.w3.org/2000/svg" xmlns:xlink="http://www.w3.org/1999/xlink" fill="none" version="1.1" width="24" height="24" viewBox="0 0 24 24"><defs><clipPath id="master_svg0_74_01379"><rect x="0" y="0" width="24" height="24" rx="0"/></clipPath></defs><g clip-path="url(#master_svg0_74_01379)"><g><path d="M11.25,15Q11.25,14.9261315,11.264410999999999,14.853682Q11.278822,14.781233,11.30709,14.712987Q11.335359,14.644742,11.376398,14.583322Q11.417437,14.521903,11.46967,14.46967Q11.521903,14.417437,11.583322,14.376398Q11.644742,14.335359,11.712987,14.30709Q11.781233,14.278822,11.853682,14.264410999999999Q11.9261315,14.25,12,14.25Q12.0738685,14.25,12.146318,14.264410999999999Q12.218767,14.278822,12.287013,14.30709Q12.355258,14.335359,12.416678,14.376398Q12.478097,14.417437,12.53033,14.46967Q12.582563,14.521903,12.623602,14.583322Q12.664641,14.644742,12.69291,14.712987Q12.721178,14.781233,12.735589000000001,14.853682Q12.75,14.9261315,12.75,15L12.75,21Q12.75,21.07387,12.735589000000001,21.14632Q12.721178,21.21877,12.69291,21.287010000000002Q12.664641,21.35526,12.623602,21.41668Q12.582563,21.4781,12.53033,21.53033Q12.478097,21.58256,12.416678,21.6236Q12.355258,21.66464,12.287013,21.69291Q12.218767,21.72118,12.146318,21.735590000000002Q12.0738685,21.75,12,21.75Q11.9261315,21.75,11.853682,21.735590000000002Q11.781233,21.72118,11.712987,21.69291Q11.644742,21.66464,11.583322,21.6236Q11.521903,21.58256,11.46967,21.53033Q11.417437,21.4781,11.376398,21.41668Q11.335359,21.35526,11.30709,21.287010000000002Q11.278822,21.21877,11.264410999999999,21.14632Q11.25,21.07387,11.25,21L11.25,15Z" fill-rule="evenodd" fill="#231F2E" fill-opacity="1"/></g><g><path d="M11.25,3Q11.25,2.9261315,11.264410999999999,2.853682Q11.278822,2.781233,11.30709,2.712987Q11.335359,2.644742,11.376398,2.583322Q11.417437,2.521903,11.46967,2.46967Q11.521903,2.417437,11.583322,2.376398Q11.644742,2.335359,11.712987,2.30709Q11.781233,2.278822,11.853682,2.264411Q11.9261315,2.25,12,2.25Q12.0738685,2.25,12.146318,2.264411Q12.218767,2.278822,12.287013,2.30709Q12.355258,2.335359,12.416678,2.376398Q12.478097,2.417437,12.53033,2.46967Q12.582563,2.521903,12.623602,2.583322Q12.664641,2.644742,12.69291,2.712987Q12.721178,2.781233,12.735589000000001,2.853682Q12.75,2.9261315,12.75,3L12.75,9Q12.75,9.07387,12.735589000000001,9.14632Q12.721178,9.21877,12.69291,9.28701Q12.664641,9.355260000000001,12.623602,9.41668Q12.582563,9.478100000000001,12.53033,9.53033Q12.478097,9.58256,12.416678,9.6236Q12.355258,9.66464,12.287013,9.692910000000001Q12.218767,9.72118,12.146318,9.73559Q12.0738685,9.75,12,9.75Q11.9261315,9.75,11.853682,9.73559Q11.781233,9.72118,11.712987,9.692910000000001Q11.644742,9.66464,11.583322,9.6236Q11.521903,9.58256,11.46967,9.53033Q11.417437,9.478100000000001,11.376398,9.41668Q11.335359,9.355260000000001,11.30709,9.28701Q11.278822,9.21877,11.264410999999999,9.14632Q11.25,9.07387,11.25,9L11.25,3Z" fill-rule="evenodd" fill="#231F2E" fill-opacity="1"/></g><g><path d="M5,11.25L19,11.25Q19.073900000000002,11.25,19.1463,11.264410999999999Q19.2188,11.278822,19.287,11.30709Q19.3553,11.335359,19.4167,11.376398Q19.478099999999998,11.417437,19.5303,11.46967Q19.5826,11.521903,19.6236,11.583322Q19.6646,11.644742,19.6929,11.712987Q19.7212,11.781233,19.735599999999998,11.853682Q19.75,11.9261315,19.75,12Q19.75,12.0738685,19.735599999999998,12.146318Q19.7212,12.218767,19.6929,12.287013Q19.6646,12.355258,19.6236,12.416678Q19.5826,12.478097,19.5303,12.53033Q19.478099999999998,12.582563,19.4167,12.623602Q19.3553,12.664641,19.287,12.69291Q19.2188,12.721178,19.1463,12.735589000000001Q19.073900000000002,12.75,19,12.75L5,12.75Q4.9261315,12.75,4.853682,12.735589000000001Q4.781233,12.721178,4.712987,12.69291Q4.644742,12.664641,4.583322,12.623602Q4.521903,12.582563,4.46967,12.53033Q4.417437,12.478097,4.376398,12.416678Q4.335359,12.355258,4.30709,12.287013Q4.278822,12.218767,4.264411,12.146318Q4.25,12.0738685,4.25,12Q4.25,11.9261315,4.264411,11.853682Q4.278822,11.781233,4.30709,11.712987Q4.335359,11.644742,4.376398,11.583322Q4.417437,11.521903,4.46967,11.46967Q4.521903,11.417437,4.583322,11.376398Q4.644742,11.335359,4.712987,11.30709Q4.781233,11.278822,4.853682,11.264410999999999Q4.9261315,11.25,5,11.25Z" fill-rule="evenodd" fill="#2882FF" fill-opacity="1"/></g><g><path d="M9.530484,17.469824L12,19.93934L14.46921,17.470132L14.46967,17.46967Q14.57516,17.364181,14.71299,17.30709Q14.850819999999999,17.25,15,17.25Q15.07387,17.25,15.14632,17.264411Q15.21877,17.278822,15.28701,17.30709Q15.355260000000001,17.335359,15.41668,17.376398000000002Q15.478100000000001,17.417437,15.53033,17.46967Q15.58256,17.521903000000002,15.6236,17.583322Q15.66464,17.644742,15.692910000000001,17.712987Q15.72118,17.781233,15.73559,17.853682Q15.75,17.9261315,15.75,18Q15.75,18.149184,15.692910000000001,18.287013Q15.635819999999999,18.424841,15.53033,18.53033L15.529869999999999,18.530792L12.53033,21.53033Q12.42484,21.63582,12.28701,21.69291Q12.14918,21.75,12,21.75Q11.85082,21.75,11.71299,21.69291Q11.57516,21.63582,11.46967,21.53033L8.46967,18.53033Q8.364181,18.424841,8.30709,18.287013Q8.25,18.149184,8.25,18Q8.25,17.9261315,8.264410999999999,17.853682Q8.278822,17.781233,8.30709,17.712987Q8.335359,17.644742,8.376398,17.583322Q8.417437,17.521903000000002,8.46967,17.46967Q8.521903,17.417437,8.583322,17.376398000000002Q8.644742,17.335359,8.712987,17.30709Q8.781233,17.278822,8.853682,17.264411Q8.9261315,17.25,9,17.25Q9.149184,17.25,9.287013,17.30709Q9.424841,17.364181,9.53033,17.46967L9.530484,17.469824Z" fill-rule="evenodd" fill="#231F2E" fill-opacity="1"/></g><g><path d="M11.46967,2.46967L8.46967,5.46967Q8.364181,5.57516,8.30709,5.71299Q8.25,5.850820000000001,8.25,6Q8.25,6.073869999999999,8.264410999999999,6.146319999999999Q8.278822,6.21877,8.30709,6.28701Q8.335359,6.3552599999999995,8.376398,6.4166799999999995Q8.417437,6.4780999999999995,8.46967,6.53033Q8.521903,6.58256,8.583322,6.6236Q8.644742,6.66464,8.712987,6.6929099999999995Q8.781233,6.72118,8.853682,6.73559Q8.9261315,6.75,9,6.75Q9.149184,6.75,9.287013,6.6929099999999995Q9.424841,6.63582,9.53033,6.53033L9.530625,6.53004L12,4.06066L14.46914,6.5298L14.46967,6.53033Q14.57516,6.63582,14.71299,6.6929099999999995Q14.850819999999999,6.75,15,6.75Q15.07387,6.75,15.14632,6.73559Q15.21877,6.72118,15.28701,6.6929099999999995Q15.355260000000001,6.66464,15.41668,6.6236Q15.478100000000001,6.58256,15.53033,6.53033Q15.58256,6.4780999999999995,15.6236,6.4166799999999995Q15.66464,6.3552599999999995,15.692910000000001,6.28701Q15.72118,6.21877,15.73559,6.146319999999999Q15.75,6.073869999999999,15.75,6Q15.75,5.850820000000001,15.692910000000001,5.71299Q15.635819999999999,5.57516,15.53033,5.46967L12.53033,2.46967Q12.4781,2.417437,12.41668,2.376398Q12.35526,2.335359,12.28701,2.30709Q12.21877,2.278822,12.14632,2.264411Q12.07387,2.25,12,2.25Q11.92613,2.25,11.85368,2.264411Q11.78123,2.278822,11.71299,2.30709Q11.64474,2.335359,11.58332,2.376398Q11.5219,2.417437,11.46967,2.46967Z" fill-rule="evenodd" fill="#231F2E" fill-opacity="1"/></g></g></svg>