<svg xmlns="http://www.w3.org/2000/svg" xmlns:xlink="http://www.w3.org/1999/xlink" fill="none" version="1.1" width="24" height="24" viewBox="0 0 24 24"><defs><clipPath id="master_svg0_74_12095"><rect x="0" y="0" width="24" height="24" rx="0"/></clipPath></defs><g clip-path="url(#master_svg0_74_12095)"><g><path d="M2.1020399375,15.837289786376953L2.1015139375,15.837809786376953Q1.9960209375,15.943299786376954,1.9389289375,16.08113978637695Q1.8818359375,16.218969786376952,1.8818359375,16.368149786376954Q1.8818359375,16.442019786376953,1.8962469375,16.514469786376953Q1.9106579375,16.586919786376953,1.9389259375,16.655159786376952Q1.9671949375,16.723409786376955,2.0082339375,16.784829786376953Q2.0492729375,16.84624978637695,2.1015059375,16.898479786376953Q2.1537389375,16.950709786376954,2.2151579375,16.991749786376953Q2.2765779375,17.032789786376952,2.3448229375,17.06105978637695Q2.4130689375,17.089329786376954,2.4855179375,17.103739786376952Q2.5579674375,17.118149786376954,2.6318359375,17.118149786376954Q2.7810169375,17.118149786376954,2.9188429375,17.06105978637695Q3.0566689375,17.003979786376952,3.1621579375,16.898489786376953L3.1623119375,16.89833978637695L3.5303219375,16.530339786376953L8.530325937499999,11.530329786376953Q9.4999959375,10.597422786376953,10.4799559375,11.540419786376953L14.4690359375,15.529679786376953L14.4696359375,15.530329786376953Q14.5751359375,15.635819786376953,14.7130359375,15.692909786376953Q14.8508359375,15.749999786376954,15.0000359375,15.749999786376954Q15.0738359375,15.749999786376954,15.1463359375,15.735589786376952Q15.2187359375,15.721179786376954,15.2870359375,15.692909786376953Q15.3552359375,15.664639786376952,15.4166359375,15.623599786376953Q15.4781359375,15.582559786376953,15.5303359375,15.530329786376953Q15.5825359375,15.478099786376953,15.6236359375,15.416679786376953Q15.6646359375,15.355259786376953,15.6929359375,15.287009786376952Q15.7211359375,15.218769786376953,15.7356359375,15.146319786376953Q15.7500359375,15.073869786376953,15.7500359375,14.999999786376954Q15.7500359375,14.850819786376952,15.6929359375,14.712989786376953Q15.6358359375,14.575159786376954,15.5303359375,14.469669786376954L11.5200359375,10.459576786376953Q10.606245937499999,9.580249786376953,9.4999959375,9.580249786376953Q8.3937459375,9.580249786376953,7.4696659375,10.469669786376953L2.4696779375,15.469659786376953L2.1020399375,15.837289786376953Z" fill-rule="evenodd" fill="#231F2E" fill-opacity="1"/></g><g><path d="M15.51973,13.540718944396973Q16.2025,12.884444944396973,16.91072,13.159217944396973Q17.0416,13.209999944396973,17.182,13.209999944396973Q17.25587,13.209999944396973,17.32832,13.195588944396972Q17.40077,13.181177944396973,17.46901,13.152909944396972Q17.53726,13.124640944396972,17.59868,13.083601944396973Q17.6601,13.042562944396973,17.71233,12.990329944396972Q17.76456,12.938096944396973,17.8056,12.876677944396972Q17.84664,12.815257944396972,17.87491,12.747012944396973Q17.90318,12.678766944396973,17.91759,12.606317944396972Q17.932,12.533868944396973,17.932,12.459999944396973Q17.932,12.346581944396974,17.89846,12.238235344396973Q17.86493,12.129888944396972,17.80085,12.036302944396972Q17.73678,11.942716944396972,17.6479,11.872261944396973Q17.55902,11.801805944396973,17.45328,11.760781944396973Q16.6809,11.461114944396973,15.8906,11.653221944396973Q15.12534,11.839239944396972,14.480265,12.459281944396972L13.469724,13.469618944396974L13.46967,13.469668944396972Q13.364181,13.575158944396973,13.30709,13.712988944396972Q13.25,13.850818944396973,13.25,13.999998944396973Q13.25,14.073868944396972,13.264410999999999,14.146318944396972Q13.278822,14.218768944396972,13.30709,14.287008944396973Q13.335359,14.355258944396972,13.376398,14.416678944396972Q13.417437,14.478098944396972,13.46967,14.530328944396972Q13.521903,14.582558944396972,13.583322,14.623598944396972Q13.644742,14.664638944396973,13.712987,14.692908944396972Q13.781233,14.721178944396973,13.853682,14.735588944396973Q13.9261315,14.749998944396973,14,14.749998944396973Q14.149184,14.749998944396973,14.287013,14.692908944396972Q14.424841,14.635818944396974,14.53033,14.530328944396972L14.530686,14.529978944396973L15.51973,13.540718944396973Z" fill-rule="evenodd" fill="#231F2E" fill-opacity="1"/></g><g><path d="M20.75,5.5L20.75,11.5Q20.75,11.57387,20.7644,11.64632Q20.7788,11.71877,20.8071,11.78701Q20.8354,11.85526,20.8764,11.91668Q20.9174,11.9781,20.9697,12.03033Q21.0219,12.08256,21.0833,12.1236Q21.1447,12.16464,21.213,12.19291Q21.2812,12.22118,21.3537,12.23559Q21.4261,12.25,21.5,12.25Q21.5739,12.25,21.6463,12.23559Q21.7188,12.22118,21.787,12.19291Q21.8553,12.16464,21.9167,12.1236Q21.9781,12.08256,22.0303,12.03033Q22.0826,11.9781,22.1236,11.91668Q22.1646,11.85526,22.1929,11.78701Q22.2212,11.71877,22.2356,11.64632Q22.25,11.57387,22.25,11.5L22.25,5.5Q22.25,4.360912,21.4445,3.5554565Q20.6391,2.75,19.5,2.75L4.5,2.75Q3.360913,2.75,2.5554564,3.5554564Q1.75,4.360913,1.75,5.5L1.75,18.5Q1.75,19.6391,2.5554565,20.4445Q3.360912,21.25,4.5,21.25L13,21.25Q13.0739,21.25,13.1463,21.2356Q13.2188,21.2212,13.287,21.1929Q13.3553,21.1646,13.4167,21.1236Q13.4781,21.0826,13.5303,21.0303Q13.5826,20.9781,13.6236,20.9167Q13.6646,20.8553,13.6929,20.787Q13.7212,20.7188,13.7356,20.6463Q13.75,20.5739,13.75,20.5Q13.75,20.4261,13.7356,20.3537Q13.7212,20.2812,13.6929,20.213Q13.6646,20.1447,13.6236,20.0833Q13.5826,20.0219,13.5303,19.9697Q13.4781,19.9174,13.4167,19.8764Q13.3553,19.8354,13.287,19.8071Q13.2188,19.7788,13.1463,19.7644Q13.0739,19.75,13,19.75L4.5,19.75Q3.25,19.75,3.25,18.5L3.25,5.5Q3.25,4.25,4.5,4.25L19.5,4.25Q20.75,4.25,20.75,5.5Z" fill-rule="evenodd" fill="#231F2E" fill-opacity="1"/></g><g><ellipse cx="15" cy="8" rx="1" ry="1" fill="#231F2E" fill-opacity="1"/></g><g><path d="M21.28076615234375,15.0000000417233C21.65456615234375,14.999883717,21.96523615234375,15.282213,21.99327615234375,15.6475L21.99505615234375,15.7L21.99505615234375,16.4C21.99544615234375,17.25997,20.82118615234375,18.05711,20.06898615234375,18.5C20.79168615234375,18.92535,21.96098615234375,19.67925,21.99327615234375,20.5048L21.99505615234375,20.6L21.99505615234375,21.3C21.99517615234375,21.66632,21.70708615234375,21.97078,21.33434615234375,21.99825L21.28076615234375,22L17.70934215234375,22C17.33554715234375,22.00012,17.02487665234375,21.71779,16.99684208234375,21.3525L16.99505632264275,21.3L16.99505632264275,20.6C16.99466327234375,19.74003,18.16892615234375,18.94289,18.92112615234375,18.5C18.19842615234375,18.07465,17.02912245234375,17.32075,16.99684190234375,16.4952L16.99505615234375,16.4L16.99505615234375,15.7C16.99493796534375,15.333681,17.28302915234375,15.0292238,17.65577015234375,15.00175008L17.70934215234375,15.0000000417233L21.28076615234375,15.0000000417233Z" fill="#2882FF" fill-opacity="1"/></g></g></svg>