<svg xmlns="http://www.w3.org/2000/svg" xmlns:xlink="http://www.w3.org/1999/xlink" fill="none" version="1.1" width="24" height="24" viewBox="0 0 24 24"><defs><clipPath id="master_svg0_74_12118"><rect x="0" y="0" width="24" height="24" rx="0"/></clipPath></defs><g clip-path="url(#master_svg0_74_12118)"><g></g><g><path d="M4,5.25L20,5.25Q20.0739,5.25,20.1463,5.264411Q20.2188,5.278822,20.287,5.30709Q20.3553,5.335359,20.4167,5.376398Q20.4781,5.417437,20.5303,5.46967Q20.5826,5.521903,20.6236,5.583322Q20.6646,5.644742,20.6929,5.712987Q20.7212,5.781233,20.7356,5.853682Q20.75,5.9261315,20.75,6Q20.75,6.0738685,20.7356,6.146318Q20.7212,6.218767,20.6929,6.287013Q20.6646,6.355258,20.6236,6.416678Q20.5826,6.478097,20.5303,6.53033Q20.4781,6.582563,20.4167,6.623602Q20.3553,6.664641,20.287,6.69291Q20.2188,6.721178,20.1463,6.735589Q20.0739,6.75,20,6.75L4,6.75Q3.9261315,6.75,3.853682,6.735589Q3.781233,6.721178,3.712987,6.69291Q3.644742,6.664641,3.583322,6.623602Q3.521903,6.582563,3.46967,6.53033Q3.417437,6.478097,3.376398,6.416678Q3.335359,6.355258,3.30709,6.287013Q3.278822,6.218767,3.264411,6.146318Q3.25,6.0738685,3.25,6Q3.25,5.9261315,3.264411,5.853682Q3.278822,5.781233,3.30709,5.712987Q3.335359,5.644742,3.376398,5.583322Q3.417437,5.521903,3.46967,5.46967Q3.521903,5.417437,3.583322,5.376398Q3.644742,5.335359,3.712987,5.30709Q3.781233,5.278822,3.853682,5.264411Q3.9261315,5.25,4,5.25Z" fill-rule="evenodd" fill="#231F2E" fill-opacity="1"/></g><g><path d="M4,11.25L19,11.25Q19.073900000000002,11.25,19.1463,11.264410999999999Q19.2188,11.278822,19.287,11.30709Q19.3553,11.335359,19.4167,11.376398Q19.478099999999998,11.417437,19.5303,11.46967Q19.5826,11.521903,19.6236,11.583322Q19.6646,11.644742,19.6929,11.712987Q19.7212,11.781233,19.735599999999998,11.853682Q19.75,11.9261315,19.75,12Q19.75,12.0738685,19.735599999999998,12.146318Q19.7212,12.218767,19.6929,12.287013Q19.6646,12.355258,19.6236,12.416678Q19.5826,12.478097,19.5303,12.53033Q19.478099999999998,12.582563,19.4167,12.623602Q19.3553,12.664641,19.287,12.69291Q19.2188,12.721178,19.1463,12.735589000000001Q19.073900000000002,12.75,19,12.75L4,12.75Q3.9261315,12.75,3.853682,12.735589000000001Q3.781233,12.721178,3.712987,12.69291Q3.644742,12.664641,3.583322,12.623602Q3.521903,12.582563,3.46967,12.53033Q3.417437,12.478097,3.376398,12.416678Q3.335359,12.355258,3.30709,12.287013Q3.278822,12.218767,3.264411,12.146318Q3.25,12.0738685,3.25,12Q3.25,11.9261315,3.264411,11.853682Q3.278822,11.781233,3.30709,11.712987Q3.335359,11.644742,3.376398,11.583322Q3.417437,11.521903,3.46967,11.46967Q3.521903,11.417437,3.583322,11.376398Q3.644742,11.335359,3.712987,11.30709Q3.781233,11.278822,3.853682,11.264410999999999Q3.9261315,11.25,4,11.25Z" fill-rule="evenodd" fill="#231F2E" fill-opacity="1"/></g><g><path d="M4,17.25L9,17.25Q9.07387,17.25,9.14632,17.264411Q9.21877,17.278822,9.28701,17.30709Q9.355260000000001,17.335359,9.41668,17.376398000000002Q9.478100000000001,17.417437,9.53033,17.46967Q9.58256,17.521903000000002,9.6236,17.583322Q9.66464,17.644742,9.692910000000001,17.712987Q9.72118,17.781233,9.73559,17.853682Q9.75,17.9261315,9.75,18Q9.75,18.0738685,9.73559,18.146318Q9.72118,18.218767,9.692910000000001,18.287013Q9.66464,18.355258,9.6236,18.416678Q9.58256,18.478096999999998,9.53033,18.53033Q9.478100000000001,18.582563,9.41668,18.623601999999998Q9.355260000000001,18.664641,9.28701,18.69291Q9.21877,18.721178,9.14632,18.735589Q9.07387,18.75,9,18.75L4,18.75Q3.9261315,18.75,3.853682,18.735589Q3.781233,18.721178,3.712987,18.69291Q3.644742,18.664641,3.583322,18.623601999999998Q3.521903,18.582563,3.46967,18.53033Q3.417437,18.478096999999998,3.376398,18.416678Q3.335359,18.355258,3.30709,18.287013Q3.278822,18.218767,3.264411,18.146318Q3.25,18.0738685,3.25,18Q3.25,17.9261315,3.264411,17.853682Q3.278822,17.781233,3.30709,17.712987Q3.335359,17.644742,3.376398,17.583322Q3.417437,17.521903000000002,3.46967,17.46967Q3.521903,17.417437,3.583322,17.376398000000002Q3.644742,17.335359,3.712987,17.30709Q3.781233,17.278822,3.853682,17.264411Q3.9261315,17.25,4,17.25Z" fill-rule="evenodd" fill="#231F2E" fill-opacity="1"/></g><g><g transform="matrix(0.9135454297065735,-0.4067366421222687,0.4067366421222687,0.9135454297065735,-4.133273721488166,5.1892081457288555)"><g transform="matrix(1,-3.319054897588103e-8,3.319054897588103e-8,1,-4.0882015994725407e-7,5.025053972929072e-7)"><path d="M16.8900146484375,12.317366600036621L16.8900146484375,14.317366600036621Q16.8900146484375,14.40333660003662,16.8815846484375,14.488896600036622Q16.8731646484375,14.574456600036621,16.8563846484375,14.65877660003662Q16.8396146484375,14.74309660003662,16.8146646484375,14.82536660003662Q16.7897046484375,14.907636600036621,16.7568046484375,14.987066600036622Q16.7239046484375,15.06648660003662,16.6833746484375,15.14230660003662Q16.6428546484375,15.218126600036621,16.5950846484375,15.28961660003662Q16.5473246484375,15.361096600036621,16.4927846484375,15.42755660003662Q16.4382446484375,15.494016600036622,16.3774546484375,15.55480660003662Q16.3166646484375,15.615596600036621,16.2502046484375,15.67013660003662Q16.1837446484375,15.72467660003662,16.1122626484375,15.77243660003662Q16.0407796484375,15.82020660003662,15.9649586484375,15.860726600036621Q15.8891386484375,15.901256600036621,15.8097106484375,15.934156600036621Q15.7302826484375,15.96705660003662,15.6480126484375,15.99201660003662Q15.5657426484375,16.01696660003662,15.4814226484375,16.033736600036622Q15.3971026484375,16.050516600036623,15.3115446484375,16.05893660003662Q15.2259866484375,16.06736660003662,15.1400146484375,16.06736660003662Q15.0540426484375,16.06736660003662,14.9684846484375,16.05893660003662Q14.8829266484375,16.050516600036623,14.7986066484375,16.033736600036622Q14.7142866484375,16.01696660003662,14.6320166484375,15.99201660003662Q14.5497466484375,15.96705660003662,14.4703186484375,15.934156600036621Q14.3908906484375,15.901256600036621,14.3150706484375,15.860726600036621Q14.2392496484375,15.82020660003662,14.1677666484375,15.77243660003662Q14.0962846484375,15.72467660003662,14.0298246484375,15.67013660003662Q13.9633646484375,15.615596600036621,13.9025746484375,15.55480660003662Q13.8417846484375,15.494016600036622,13.7872446484375,15.42755660003662Q13.7327046484375,15.361096600036621,13.6849446484375,15.28961660003662Q13.637174648437501,15.218126600036621,13.5966546484375,15.14230660003662Q13.5561246484375,15.06648660003662,13.5232246484375,14.987066600036622Q13.4903246484375,14.907636600036621,13.4653646484375,14.82536660003662Q13.4404146484375,14.74309660003662,13.4236446484375,14.65877660003662Q13.4068646484375,14.574456600036621,13.3984446484375,14.488896600036622Q13.3900146484375,14.40333660003662,13.3900146484375,14.317366600036621L13.3900146484375,12.317366600036621Q13.3900146484375,12.231394600036621,13.3984446484375,12.14583660003662Q13.4068646484375,12.060278600036622,13.4236446484375,11.975958600036622Q13.4404146484375,11.891638600036622,13.4653646484375,11.80936860003662Q13.4903246484375,11.727098600036621,13.5232246484375,11.647670600036621Q13.5561246484375,11.568242600036621,13.5966546484375,11.49242260003662Q13.637174648437501,11.416601600036621,13.6849446484375,11.34511860003662Q13.7327046484375,11.273636600036621,13.7872446484375,11.207176600036622Q13.8417846484375,11.14071660003662,13.9025746484375,11.079926600036622Q13.9633646484375,11.01913660003662,14.0298246484375,10.964596600036622Q14.0962846484375,10.91005660003662,14.1677666484375,10.862296600036622Q14.2392496484375,10.814526600036622,14.3150706484375,10.774006600036621Q14.3908906484375,10.73347660003662,14.4703186484375,10.700576600036621Q14.5497466484375,10.667676600036621,14.6320166484375,10.642716600036621Q14.7142866484375,10.61776660003662,14.7986066484375,10.600996600036622Q14.8829266484375,10.584216600036621,14.9684846484375,10.575796600036622Q15.0540426484375,10.567366600036621,15.1400146484375,10.567366600036621Q15.2259866484375,10.567366600036621,15.3115446484375,10.575796600036622Q15.3971026484375,10.584216600036621,15.4814226484375,10.600996600036622Q15.5657426484375,10.61776660003662,15.6480126484375,10.642716600036621Q15.7302826484375,10.667676600036621,15.8097106484375,10.700576600036621Q15.8891386484375,10.73347660003662,15.9649586484375,10.774006600036621Q16.0407796484375,10.814526600036622,16.1122626484375,10.862296600036622Q16.1837446484375,10.91005660003662,16.2502046484375,10.964596600036622Q16.3166646484375,11.01913660003662,16.3774546484375,11.079926600036622Q16.4382446484375,11.14071660003662,16.4927846484375,11.207176600036622Q16.5473246484375,11.273636600036621,16.5950846484375,11.34511860003662Q16.6428546484375,11.416601600036621,16.6833746484375,11.49242260003662Q16.7239046484375,11.568242600036621,16.7568046484375,11.647670600036621Q16.7897046484375,11.727098600036621,16.8146646484375,11.80936860003662Q16.8396146484375,11.891638600036622,16.8563846484375,11.975958600036622Q16.8731646484375,12.060278600036622,16.8815846484375,12.14583660003662Q16.8900146484375,12.231394600036621,16.8900146484375,12.317366600036621Z" fill-rule="evenodd" fill="#FFFFFF" fill-opacity="1"/></g><g transform="matrix(0.7071067690849304,0.7071067690849304,-0.7071067690849304,0.7071067690849304,15.215209437837814,-9.169076165211493)"><path d="M20.4256591796875,13.781844139099121L20.4256591796875,15.781844139099121Q20.4256591796875,15.86781413909912,20.4172291796875,15.953374139099122Q20.4088091796875,16.03893413909912,20.3920291796875,16.12325413909912Q20.3752591796875,16.207574139099123,20.3503091796875,16.28984413909912Q20.3253491796875,16.37211413909912,20.2924491796875,16.45154413909912Q20.2595491796875,16.530964139099122,20.2190191796875,16.60678413909912Q20.1784991796875,16.68260413909912,20.1307291796875,16.75409413909912Q20.0829691796875,16.82557413909912,20.0284291796875,16.89203413909912Q19.9738891796875,16.95849413909912,19.9130991796875,17.01928413909912Q19.8523091796875,17.08007413909912,19.7858491796875,17.13461413909912Q19.7193891796875,17.18915413909912,19.6479071796875,17.23691413909912Q19.5764241796875,17.28468413909912,19.5006031796875,17.32520413909912Q19.4247831796875,17.36573413909912,19.3453551796875,17.398634139099123Q19.265927179687502,17.43153413909912,19.1836571796875,17.45649413909912Q19.1013871796875,17.48144413909912,19.0170671796875,17.498214139099122Q18.9327471796875,17.514994139099123,18.8471891796875,17.52341413909912Q18.7616311796875,17.53184413909912,18.6756591796875,17.53184413909912Q18.5896871796875,17.53184413909912,18.5041291796875,17.52341413909912Q18.4185711796875,17.514994139099123,18.3342511796875,17.498214139099122Q18.2499311796875,17.48144413909912,18.1676611796875,17.45649413909912Q18.085391179687498,17.43153413909912,18.0059631796875,17.398634139099123Q17.9265351796875,17.36573413909912,17.8507151796875,17.32520413909912Q17.7748941796875,17.28468413909912,17.7034111796875,17.23691413909912Q17.6319291796875,17.18915413909912,17.5654691796875,17.13461413909912Q17.4990091796875,17.08007413909912,17.4382191796875,17.01928413909912Q17.3774291796875,16.95849413909912,17.3228891796875,16.89203413909912Q17.2683491796875,16.82557413909912,17.2205891796875,16.75409413909912Q17.1728191796875,16.68260413909912,17.1322991796875,16.60678413909912Q17.0917691796875,16.530964139099122,17.0588691796875,16.45154413909912Q17.0259691796875,16.37211413909912,17.0010091796875,16.28984413909912Q16.9760591796875,16.207574139099123,16.9592891796875,16.12325413909912Q16.9425091796875,16.03893413909912,16.9340891796875,15.953374139099122Q16.9256591796875,15.86781413909912,16.9256591796875,15.781844139099121L16.9256591796875,13.781844139099121Q16.9256591796875,13.695872139099121,16.9340891796875,13.61031413909912Q16.9425091796875,13.524756139099122,16.9592891796875,13.440436139099122Q16.9760591796875,13.356116139099122,17.0010091796875,13.27384613909912Q17.0259691796875,13.191576139099121,17.0588691796875,13.112148139099121Q17.0917691796875,13.032720139099121,17.1322991796875,12.95690013909912Q17.1728191796875,12.881079139099121,17.2205891796875,12.80959613909912Q17.2683491796875,12.738114139099121,17.3228891796875,12.671654139099122Q17.3774291796875,12.60519413909912,17.4382191796875,12.544404139099122Q17.4990091796875,12.48361413909912,17.5654691796875,12.429074139099122Q17.6319291796875,12.37453413909912,17.7034111796875,12.326774139099122Q17.7748941796875,12.279004139099122,17.8507151796875,12.238484139099121Q17.9265351796875,12.19795413909912,18.0059631796875,12.165054139099121Q18.085391179687498,12.132154139099121,18.1676611796875,12.107194139099121Q18.2499311796875,12.08224413909912,18.3342511796875,12.065474139099122Q18.4185711796875,12.048694139099121,18.5041291796875,12.040274139099122Q18.5896871796875,12.031844139099121,18.6756591796875,12.031844139099121Q18.7616311796875,12.031844139099121,18.8471891796875,12.040274139099122Q18.9327471796875,12.048694139099121,19.0170671796875,12.065474139099122Q19.1013871796875,12.08224413909912,19.1836571796875,12.107194139099121Q19.265927179687502,12.132154139099121,19.3453551796875,12.165054139099121Q19.4247831796875,12.19795413909912,19.5006031796875,12.238484139099121Q19.5764241796875,12.279004139099122,19.6479071796875,12.326774139099122Q19.7193891796875,12.37453413909912,19.7858491796875,12.429074139099122Q19.8523091796875,12.48361413909912,19.9130991796875,12.544404139099122Q19.9738891796875,12.60519413909912,20.0284291796875,12.671654139099122Q20.0829691796875,12.738114139099121,20.1307291796875,12.80959613909912Q20.1784991796875,12.881079139099121,20.2190191796875,12.95690013909912Q20.2595491796875,13.032720139099121,20.2924491796875,13.112148139099121Q20.3253491796875,13.191576139099121,20.3503091796875,13.27384613909912Q20.3752591796875,13.356116139099122,20.3920291796875,13.440436139099122Q20.4088091796875,13.524756139099122,20.4172291796875,13.61031413909912Q20.4256591796875,13.695872139099121,20.4256591796875,13.781844139099121Z" fill-rule="evenodd" fill="#FFFFFF" fill-opacity="1"/></g><g transform="matrix(0,1,-1,0,37.45738124847412,-2.822648048400879)"><path d="M21.8900146484375,17.31736660003662L21.8900146484375,19.31736660003662Q21.8900146484375,19.40333660003662,21.8815846484375,19.48889660003662Q21.8731646484375,19.57445660003662,21.8563846484375,19.65877660003662Q21.8396146484375,19.743096600036623,21.8146646484375,19.82536660003662Q21.7897046484375,19.90763660003662,21.7568046484375,19.98706660003662Q21.7239046484375,20.066486600036622,21.6833746484375,20.14230660003662Q21.6428546484375,20.21812660003662,21.5950846484375,20.28961660003662Q21.5473246484375,20.36109660003662,21.4927846484375,20.42755660003662Q21.4382446484375,20.49401660003662,21.3774546484375,20.55480660003662Q21.3166646484375,20.61559660003662,21.2502046484375,20.67013660003662Q21.1837446484375,20.72467660003662,21.1122626484375,20.77243660003662Q21.0407796484375,20.82020660003662,20.9649586484375,20.86072660003662Q20.8891386484375,20.90125660003662,20.8097106484375,20.934156600036623Q20.730282648437502,20.96705660003662,20.6480126484375,20.99201660003662Q20.5657426484375,21.01696660003662,20.4814226484375,21.033736600036622Q20.3971026484375,21.050516600036623,20.3115446484375,21.05893660003662Q20.2259866484375,21.06736660003662,20.1400146484375,21.06736660003662Q20.0540426484375,21.06736660003662,19.9684846484375,21.05893660003662Q19.8829266484375,21.050516600036623,19.7986066484375,21.033736600036622Q19.7142866484375,21.01696660003662,19.6320166484375,20.99201660003662Q19.549746648437498,20.96705660003662,19.4703186484375,20.934156600036623Q19.3908906484375,20.90125660003662,19.3150706484375,20.86072660003662Q19.2392496484375,20.82020660003662,19.1677666484375,20.77243660003662Q19.0962846484375,20.72467660003662,19.0298246484375,20.67013660003662Q18.9633646484375,20.61559660003662,18.9025746484375,20.55480660003662Q18.8417846484375,20.49401660003662,18.7872446484375,20.42755660003662Q18.7327046484375,20.36109660003662,18.6849446484375,20.28961660003662Q18.6371746484375,20.21812660003662,18.5966546484375,20.14230660003662Q18.5561246484375,20.066486600036622,18.5232246484375,19.98706660003662Q18.4903246484375,19.90763660003662,18.4653646484375,19.82536660003662Q18.4404146484375,19.743096600036623,18.4236446484375,19.65877660003662Q18.4068646484375,19.57445660003662,18.3984446484375,19.48889660003662Q18.3900146484375,19.40333660003662,18.3900146484375,19.31736660003662L18.3900146484375,17.31736660003662Q18.3900146484375,17.23139460003662,18.3984446484375,17.14583660003662Q18.4068646484375,17.06027860003662,18.4236446484375,16.97595860003662Q18.4404146484375,16.89163860003662,18.4653646484375,16.80936860003662Q18.4903246484375,16.72709860003662,18.5232246484375,16.647670600036623Q18.5561246484375,16.568242600036623,18.5966546484375,16.492422600036623Q18.6371746484375,16.41660160003662,18.6849446484375,16.34511860003662Q18.7327046484375,16.27363660003662,18.7872446484375,16.20717660003662Q18.8417846484375,16.140716600036622,18.9025746484375,16.07992660003662Q18.9633646484375,16.01913660003662,19.0298246484375,15.964596600036622Q19.0962846484375,15.91005660003662,19.1677666484375,15.862296600036622Q19.2392496484375,15.814526600036622,19.3150706484375,15.774006600036621Q19.3908906484375,15.73347660003662,19.4703186484375,15.700576600036621Q19.549746648437498,15.667676600036621,19.6320166484375,15.642716600036621Q19.7142866484375,15.61776660003662,19.7986066484375,15.600996600036622Q19.8829266484375,15.584216600036621,19.9684846484375,15.575796600036622Q20.0540426484375,15.567366600036621,20.1400146484375,15.567366600036621Q20.2259866484375,15.567366600036621,20.3115446484375,15.575796600036622Q20.3971026484375,15.584216600036621,20.4814226484375,15.600996600036622Q20.5657426484375,15.61776660003662,20.6480126484375,15.642716600036621Q20.730282648437502,15.667676600036621,20.8097106484375,15.700576600036621Q20.8891386484375,15.73347660003662,20.9649586484375,15.774006600036621Q21.0407796484375,15.814526600036622,21.1122626484375,15.862296600036622Q21.1837446484375,15.91005660003662,21.2502046484375,15.964596600036622Q21.3166646484375,16.01913660003662,21.3774546484375,16.07992660003662Q21.4382446484375,16.140716600036622,21.4927846484375,16.20717660003662Q21.5473246484375,16.27363660003662,21.5950846484375,16.34511860003662Q21.6428546484375,16.41660160003662,21.6833746484375,16.492422600036623Q21.7239046484375,16.568242600036623,21.7568046484375,16.647670600036623Q21.7897046484375,16.72709860003662,21.8146646484375,16.80936860003662Q21.8396146484375,16.89163860003662,21.8563846484375,16.97595860003662Q21.8731646484375,17.06027860003662,21.8815846484375,17.14583660003662Q21.8900146484375,17.23139460003662,21.8900146484375,17.31736660003662Z" fill-rule="evenodd" fill="#FFFFFF" fill-opacity="1"/></g><g transform="matrix(0,-1,1,0,-7.177290916442871,27.45732021331787)"><path d="M11.8900146484375,17.31730556488037L11.8900146484375,19.31730556488037Q11.8900146484375,19.40327556488037,11.8815846484375,19.48883556488037Q11.8731646484375,19.57439556488037,11.8563846484375,19.65871556488037Q11.8396146484375,19.743035564880373,11.8146646484375,19.82530556488037Q11.7897046484375,19.90757556488037,11.7568046484375,19.98700556488037Q11.7239046484375,20.066425564880372,11.6833746484375,20.14224556488037Q11.642854648437499,20.21806556488037,11.5950846484375,20.28955556488037Q11.5473246484375,20.36103556488037,11.4927846484375,20.42749556488037Q11.4382446484375,20.49395556488037,11.3774546484375,20.55474556488037Q11.3166646484375,20.61553556488037,11.2502046484375,20.67007556488037Q11.1837446484375,20.72461556488037,11.1122626484375,20.77237556488037Q11.0407796484375,20.82014556488037,10.9649586484375,20.86066556488037Q10.8891386484375,20.90119556488037,10.8097106484375,20.934095564880373Q10.7302826484375,20.96699556488037,10.6480126484375,20.99195556488037Q10.5657426484375,21.01690556488037,10.4814226484375,21.033675564880372Q10.3971026484375,21.050455564880373,10.3115446484375,21.05887556488037Q10.2259866484375,21.06730556488037,10.1400146484375,21.06730556488037Q10.0540426484375,21.06730556488037,9.9684846484375,21.05887556488037Q9.8829266484375,21.050455564880373,9.7986066484375,21.033675564880372Q9.7142866484375,21.01690556488037,9.6320166484375,20.99195556488037Q9.5497466484375,20.96699556488037,9.4703186484375,20.934095564880373Q9.3908906484375,20.90119556488037,9.3150706484375,20.86066556488037Q9.2392496484375,20.82014556488037,9.1677666484375,20.77237556488037Q9.0962846484375,20.72461556488037,9.0298246484375,20.67007556488037Q8.9633646484375,20.61553556488037,8.9025746484375,20.55474556488037Q8.8417846484375,20.49395556488037,8.7872446484375,20.42749556488037Q8.7327046484375,20.36103556488037,8.6849446484375,20.28955556488037Q8.637174648437501,20.21806556488037,8.5966546484375,20.14224556488037Q8.5561246484375,20.066425564880372,8.5232246484375,19.98700556488037Q8.4903246484375,19.90757556488037,8.4653646484375,19.82530556488037Q8.4404146484375,19.743035564880373,8.4236446484375,19.65871556488037Q8.4068646484375,19.57439556488037,8.3984446484375,19.48883556488037Q8.3900146484375,19.40327556488037,8.3900146484375,19.31730556488037L8.3900146484375,17.31730556488037Q8.3900146484375,17.23133356488037,8.3984446484375,17.14577556488037Q8.4068646484375,17.06021756488037,8.4236446484375,16.97589756488037Q8.4404146484375,16.89157756488037,8.4653646484375,16.80930756488037Q8.4903246484375,16.72703756488037,8.5232246484375,16.647609564880373Q8.5561246484375,16.568181564880373,8.5966546484375,16.492361564880373Q8.637174648437501,16.41654056488037,8.6849446484375,16.34505756488037Q8.7327046484375,16.27357556488037,8.7872446484375,16.20711556488037Q8.8417846484375,16.140655564880372,8.9025746484375,16.07986556488037Q8.9633646484375,16.01907556488037,9.0298246484375,15.964535564880372Q9.0962846484375,15.90999556488037,9.1677666484375,15.862235564880372Q9.2392496484375,15.814465564880372,9.3150706484375,15.773945564880371Q9.3908906484375,15.73341556488037,9.4703186484375,15.700515564880371Q9.5497466484375,15.667615564880371,9.6320166484375,15.642655564880371Q9.7142866484375,15.61770556488037,9.7986066484375,15.600935564880372Q9.8829266484375,15.584155564880371,9.9684846484375,15.575735564880372Q10.0540426484375,15.567305564880371,10.1400146484375,15.567305564880371Q10.2259866484375,15.567305564880371,10.3115446484375,15.575735564880372Q10.3971026484375,15.584155564880371,10.4814226484375,15.600935564880372Q10.5657426484375,15.61770556488037,10.6480126484375,15.642655564880371Q10.7302826484375,15.667615564880371,10.8097106484375,15.700515564880371Q10.8891386484375,15.73341556488037,10.9649586484375,15.773945564880371Q11.0407796484375,15.814465564880372,11.1122626484375,15.862235564880372Q11.1837446484375,15.90999556488037,11.2502046484375,15.964535564880372Q11.3166646484375,16.01907556488037,11.3774546484375,16.07986556488037Q11.4382446484375,16.140655564880372,11.4927846484375,16.20711556488037Q11.5473246484375,16.27357556488037,11.5950846484375,16.34505756488037Q11.642854648437499,16.41654056488037,11.6833746484375,16.492361564880373Q11.7239046484375,16.568181564880373,11.7568046484375,16.647609564880373Q11.7897046484375,16.72703756488037,11.8146646484375,16.80930756488037Q11.8396146484375,16.89157756488037,11.8563846484375,16.97589756488037Q11.8731646484375,17.06021756488037,11.8815846484375,17.14577556488037Q11.8900146484375,17.23133356488037,11.8900146484375,17.31730556488037Z" fill-rule="evenodd" fill="#FFFFFF" fill-opacity="1"/></g><g transform="matrix(0.7071066498756409,-0.70710688829422,0.70710688829422,0.7071066498756409,-6.346358330865485,12.242226861730217)"><path d="M13.3544921875,13.781844139099121L13.3544921875,15.781844139099121Q13.3544921875,15.86781413909912,13.3460621875,15.953374139099122Q13.3376421875,16.03893413909912,13.3208621875,16.12325413909912Q13.3040921875,16.207574139099123,13.2791421875,16.28984413909912Q13.2541821875,16.37211413909912,13.2212821875,16.45154413909912Q13.1883821875,16.530964139099122,13.1478521875,16.60678413909912Q13.107332187499999,16.68260413909912,13.0595621875,16.75409413909912Q13.0118021875,16.82557413909912,12.9572621875,16.89203413909912Q12.9027221875,16.95849413909912,12.8419321875,17.01928413909912Q12.7811421875,17.08007413909912,12.7146821875,17.13461413909912Q12.6482221875,17.18915413909912,12.5767401875,17.23691413909912Q12.5052571875,17.28468413909912,12.4294361875,17.32520413909912Q12.3536161875,17.36573413909912,12.2741881875,17.398634139099123Q12.1947601875,17.43153413909912,12.1124901875,17.45649413909912Q12.0302201875,17.48144413909912,11.9459001875,17.498214139099122Q11.8615801875,17.514994139099123,11.7760221875,17.52341413909912Q11.6904641875,17.53184413909912,11.6044921875,17.53184413909912Q11.5185201875,17.53184413909912,11.4329621875,17.52341413909912Q11.3474041875,17.514994139099123,11.2630841875,17.498214139099122Q11.1787641875,17.48144413909912,11.0964941875,17.45649413909912Q11.0142241875,17.43153413909912,10.9347961875,17.398634139099123Q10.8553681875,17.36573413909912,10.7795481875,17.32520413909912Q10.7037271875,17.28468413909912,10.6322441875,17.23691413909912Q10.5607621875,17.18915413909912,10.4943021875,17.13461413909912Q10.4278421875,17.08007413909912,10.3670521875,17.01928413909912Q10.3062621875,16.95849413909912,10.2517221875,16.89203413909912Q10.1971821875,16.82557413909912,10.1494221875,16.75409413909912Q10.101652187500001,16.68260413909912,10.0611321875,16.60678413909912Q10.0206021875,16.530964139099122,9.9877021875,16.45154413909912Q9.9548021875,16.37211413909912,9.9298421875,16.28984413909912Q9.9048921875,16.207574139099123,9.8881221875,16.12325413909912Q9.8713421875,16.03893413909912,9.8629221875,15.953374139099122Q9.8544921875,15.86781413909912,9.8544921875,15.781844139099121L9.8544921875,13.781844139099121Q9.8544921875,13.695872139099121,9.8629221875,13.61031413909912Q9.8713421875,13.524756139099122,9.8881221875,13.440436139099122Q9.9048921875,13.356116139099122,9.9298421875,13.27384613909912Q9.9548021875,13.191576139099121,9.9877021875,13.112148139099121Q10.0206021875,13.032720139099121,10.0611321875,12.95690013909912Q10.101652187500001,12.881079139099121,10.1494221875,12.80959613909912Q10.1971821875,12.738114139099121,10.2517221875,12.671654139099122Q10.3062621875,12.60519413909912,10.3670521875,12.544404139099122Q10.4278421875,12.48361413909912,10.4943021875,12.429074139099122Q10.5607621875,12.37453413909912,10.6322441875,12.326774139099122Q10.7037271875,12.279004139099122,10.7795481875,12.238484139099121Q10.8553681875,12.19795413909912,10.9347961875,12.165054139099121Q11.0142241875,12.132154139099121,11.0964941875,12.107194139099121Q11.1787641875,12.08224413909912,11.2630841875,12.065474139099122Q11.3474041875,12.048694139099121,11.4329621875,12.040274139099122Q11.5185201875,12.031844139099121,11.6044921875,12.031844139099121Q11.6904641875,12.031844139099121,11.7760221875,12.040274139099122Q11.8615801875,12.048694139099121,11.9459001875,12.065474139099122Q12.0302201875,12.08224413909912,12.1124901875,12.107194139099121Q12.1947601875,12.132154139099121,12.2741881875,12.165054139099121Q12.3536161875,12.19795413909912,12.4294361875,12.238484139099121Q12.5052571875,12.279004139099122,12.5767401875,12.326774139099122Q12.6482221875,12.37453413909912,12.7146821875,12.429074139099122Q12.7811421875,12.48361413909912,12.8419321875,12.544404139099122Q12.9027221875,12.60519413909912,12.9572621875,12.671654139099122Q13.0118021875,12.738114139099121,13.0595621875,12.80959613909912Q13.107332187499999,12.881079139099121,13.1478521875,12.95690013909912Q13.1883821875,13.032720139099121,13.2212821875,13.112148139099121Q13.2541821875,13.191576139099121,13.2791421875,13.27384613909912Q13.3040921875,13.356116139099122,13.3208621875,13.440436139099122Q13.3376421875,13.524756139099122,13.3460621875,13.61031413909912Q13.3544921875,13.695872139099121,13.3544921875,13.781844139099121Z" fill-rule="evenodd" fill="#FFFFFF" fill-opacity="1"/></g></g><g transform="matrix(1,-4.0080045948798215e-8,4.0080045948798215e-8,1,-5.39365768048583e-7,6.412807351807714e-7)"><path d="M19.36414,23.20721435546875Q19.56733,23.20721435546875,19.75562,23.124134355468748L19.76308,23.12079435546875L20.70492,22.69291435546875Q21.06901,22.52848435546875,21.2098,22.15304435546875Q21.35069,21.777364355468748,21.183419999999998,21.412964355468752L20.31936,19.52894435546875L21.442140000000002,19.43247435546875Q22.06561,19.376924355468752,22.26822,18.78754435546875Q22.47431,18.19423435546875,22.01538,17.76630435546875L16.87251,12.96663135546875Q16.411802,12.53663835546875,15.82906,12.78729135546875Q15.25,13.03986135546875,15.25,13.67145335546875L15.25,20.74292435546875Q15.25,21.37803435546875,15.835244,21.629744355468752Q16.417986,21.87771435546875,16.874383,21.44598435546875L17.6524,20.71484435546875L18.48207,22.63291435546875Q18.643819999999998,22.99686435546875,19.029,23.14716435546875Q19.19281,23.20721435546875,19.36414,23.20721435546875ZM18.20126,18.20541435546875L20.111539999999998,18.04127435546875L16.75,14.90405435546875L16.75,19.50446435546875L18.08327,18.25152435546875L18.06739,18.21691435546875L18.1254,18.21193435546875L18.18134,18.15936435546875L18.20126,18.20541435546875Z" fill-rule="evenodd" fill="#FFFFFF" fill-opacity="1"/></g><g transform="matrix(0.9135454297065735,-0.4067366421222687,0.4067366421222687,0.9135454297065735,-4.133273721488166,5.1892081457288555)"><g transform="matrix(1,-3.319054897588103e-8,3.319054897588103e-8,1,-4.0882015994725407e-7,5.025053972929072e-7)"><path d="M14.3900146484375,12.317366600036621Q14.3900146484375,12.243498100036621,14.404425648437499,12.17104860003662Q14.4188366484375,12.098599600036621,14.4471046484375,12.030353600036621Q14.4753736484375,11.962108600036622,14.5164126484375,11.900688600036622Q14.5574516484375,11.839269600036621,14.6096846484375,11.787036600036622Q14.6619176484375,11.73480360003662,14.7233366484375,11.693764600036621Q14.7847566484375,11.652725600036622,14.8530016484375,11.624456600036622Q14.9212476484375,11.596188600036621,14.9936966484375,11.58177760003662Q15.0661461484375,11.567366600036621,15.1400146484375,11.567366600036621Q15.2138831484375,11.567366600036621,15.2863326484375,11.58177760003662Q15.3587816484375,11.596188600036621,15.4270276484375,11.624456600036622Q15.4952726484375,11.652725600036622,15.5566926484375,11.693764600036621Q15.6181116484375,11.73480360003662,15.6703446484375,11.787036600036622Q15.7225776484375,11.839269600036621,15.7636166484375,11.900688600036622Q15.8046556484375,11.962108600036622,15.8329246484375,12.030353600036621Q15.8611926484375,12.098599600036621,15.875603648437501,12.17104860003662Q15.8900146484375,12.243498100036621,15.8900146484375,12.317366600036621L15.8900146484375,14.317366600036621Q15.8900146484375,14.39123660003662,15.875603648437501,14.46368660003662Q15.8611926484375,14.53613660003662,15.8329246484375,14.604376600036622Q15.8046556484375,14.67262660003662,15.7636166484375,14.73404660003662Q15.7225776484375,14.79546660003662,15.6703446484375,14.84769660003662Q15.6181116484375,14.899926600036622,15.5566926484375,14.94096660003662Q15.4952726484375,14.982006600036621,15.4270276484375,15.01027660003662Q15.3587816484375,15.038546600036621,15.2863326484375,15.052956600036621Q15.2138831484375,15.067366600036621,15.1400146484375,15.067366600036621Q15.0661461484375,15.067366600036621,14.9936966484375,15.052956600036621Q14.9212476484375,15.038546600036621,14.8530016484375,15.01027660003662Q14.7847566484375,14.982006600036621,14.7233366484375,14.94096660003662Q14.6619176484375,14.899926600036622,14.6096846484375,14.84769660003662Q14.5574516484375,14.79546660003662,14.5164126484375,14.73404660003662Q14.4753736484375,14.67262660003662,14.4471046484375,14.604376600036622Q14.4188366484375,14.53613660003662,14.404425648437499,14.46368660003662Q14.3900146484375,14.39123660003662,14.3900146484375,14.317366600036621L14.3900146484375,12.317366600036621Z" fill-rule="evenodd" fill="#2882FF" fill-opacity="1"/></g><g transform="matrix(0.7071067690849304,0.7071067690849304,-0.7071067690849304,0.7071067690849304,15.215209437837814,-9.169076165211493)"><path d="M17.9256591796875,13.781844139099121Q17.9256591796875,13.707975639099121,17.9400701796875,13.63552613909912Q17.9544811796875,13.563077139099121,17.9827491796875,13.494831139099121Q18.0110181796875,13.426586139099122,18.052057179687502,13.365166139099122Q18.0930961796875,13.303747139099121,18.1453291796875,13.251514139099122Q18.197562179687502,13.19928113909912,18.2589811796875,13.158242139099121Q18.3204011796875,13.117203139099122,18.3886461796875,13.088934139099122Q18.4568921796875,13.060666139099121,18.5293411796875,13.04625513909912Q18.6017906796875,13.031844139099121,18.6756591796875,13.031844139099121Q18.7495276796875,13.031844139099121,18.8219771796875,13.04625513909912Q18.8944261796875,13.060666139099121,18.9626721796875,13.088934139099122Q19.0309171796875,13.117203139099122,19.0923371796875,13.158242139099121Q19.153756179687498,13.19928113909912,19.2059891796875,13.251514139099122Q19.2582221796875,13.303747139099121,19.299261179687498,13.365166139099122Q19.3403001796875,13.426586139099122,19.3685691796875,13.494831139099121Q19.3968371796875,13.563077139099121,19.4112481796875,13.63552613909912Q19.4256591796875,13.707975639099121,19.4256591796875,13.781844139099121L19.4256591796875,15.781844139099121Q19.4256591796875,15.85571413909912,19.4112481796875,15.92816413909912Q19.3968371796875,16.00061413909912,19.3685691796875,16.06885413909912Q19.3403001796875,16.137104139099122,19.299261179687498,16.19852413909912Q19.2582221796875,16.259944139099122,19.2059891796875,16.31217413909912Q19.153756179687498,16.364404139099122,19.0923371796875,16.40544413909912Q19.0309171796875,16.44648413909912,18.9626721796875,16.474754139099122Q18.8944261796875,16.50302413909912,18.8219771796875,16.517434139099123Q18.7495276796875,16.53184413909912,18.6756591796875,16.53184413909912Q18.6017906796875,16.53184413909912,18.5293411796875,16.517434139099123Q18.4568921796875,16.50302413909912,18.3886461796875,16.474754139099122Q18.3204011796875,16.44648413909912,18.2589811796875,16.40544413909912Q18.197562179687502,16.364404139099122,18.1453291796875,16.31217413909912Q18.0930961796875,16.259944139099122,18.052057179687502,16.19852413909912Q18.0110181796875,16.137104139099122,17.9827491796875,16.06885413909912Q17.9544811796875,16.00061413909912,17.9400701796875,15.92816413909912Q17.9256591796875,15.85571413909912,17.9256591796875,15.781844139099121L17.9256591796875,13.781844139099121Z" fill-rule="evenodd" fill="#2882FF" fill-opacity="1"/></g><g transform="matrix(0,1,-1,0,37.45738124847412,-2.822648048400879)"><path d="M19.3900146484375,17.31736660003662Q19.3900146484375,17.24349810003662,19.4044256484375,17.17104860003662Q19.4188366484375,17.09859960003662,19.4471046484375,17.03035360003662Q19.4753736484375,16.962108600036622,19.516412648437502,16.90068860003662Q19.5574516484375,16.839269600036623,19.6096846484375,16.787036600036622Q19.661917648437502,16.73480360003662,19.7233366484375,16.693764600036623Q19.7847566484375,16.65272560003662,19.8530016484375,16.62445660003662Q19.9212476484375,16.596188600036623,19.9936966484375,16.58177760003662Q20.0661461484375,16.56736660003662,20.1400146484375,16.56736660003662Q20.2138831484375,16.56736660003662,20.2863326484375,16.58177760003662Q20.3587816484375,16.596188600036623,20.4270276484375,16.62445660003662Q20.4952726484375,16.65272560003662,20.5566926484375,16.693764600036623Q20.618111648437498,16.73480360003662,20.6703446484375,16.787036600036622Q20.7225776484375,16.839269600036623,20.763616648437498,16.90068860003662Q20.8046556484375,16.962108600036622,20.8329246484375,17.03035360003662Q20.8611926484375,17.09859960003662,20.8756036484375,17.17104860003662Q20.8900146484375,17.24349810003662,20.8900146484375,17.31736660003662L20.8900146484375,19.31736660003662Q20.8900146484375,19.39123660003662,20.8756036484375,19.46368660003662Q20.8611926484375,19.53613660003662,20.8329246484375,19.60437660003662Q20.8046556484375,19.672626600036622,20.763616648437498,19.73404660003662Q20.7225776484375,19.795466600036622,20.6703446484375,19.84769660003662Q20.618111648437498,19.899926600036622,20.5566926484375,19.94096660003662Q20.4952726484375,19.98200660003662,20.4270276484375,20.010276600036622Q20.3587816484375,20.03854660003662,20.2863326484375,20.052956600036623Q20.2138831484375,20.06736660003662,20.1400146484375,20.06736660003662Q20.0661461484375,20.06736660003662,19.9936966484375,20.052956600036623Q19.9212476484375,20.03854660003662,19.8530016484375,20.010276600036622Q19.7847566484375,19.98200660003662,19.7233366484375,19.94096660003662Q19.661917648437502,19.899926600036622,19.6096846484375,19.84769660003662Q19.5574516484375,19.795466600036622,19.516412648437502,19.73404660003662Q19.4753736484375,19.672626600036622,19.4471046484375,19.60437660003662Q19.4188366484375,19.53613660003662,19.4044256484375,19.46368660003662Q19.3900146484375,19.39123660003662,19.3900146484375,19.31736660003662L19.3900146484375,17.31736660003662Z" fill-rule="evenodd" fill="#2882FF" fill-opacity="1"/></g><g transform="matrix(0,-1,1,0,-7.177290916442871,27.45732021331787)"><path d="M9.3900146484375,17.31730556488037Q9.3900146484375,17.24343706488037,9.404425648437499,17.17098756488037Q9.4188366484375,17.09853856488037,9.4471046484375,17.03029256488037Q9.4753736484375,16.962047564880372,9.5164126484375,16.90062756488037Q9.5574516484375,16.839208564880373,9.6096846484375,16.786975564880372Q9.6619176484375,16.73474256488037,9.7233366484375,16.693703564880373Q9.7847566484375,16.65266456488037,9.8530016484375,16.62439556488037Q9.9212476484375,16.596127564880373,9.9936966484375,16.58171656488037Q10.0661461484375,16.56730556488037,10.1400146484375,16.56730556488037Q10.2138831484375,16.56730556488037,10.2863326484375,16.58171656488037Q10.3587816484375,16.596127564880373,10.4270276484375,16.62439556488037Q10.4952726484375,16.65266456488037,10.5566926484375,16.693703564880373Q10.6181116484375,16.73474256488037,10.6703446484375,16.786975564880372Q10.7225776484375,16.839208564880373,10.7636166484375,16.90062756488037Q10.8046556484375,16.962047564880372,10.8329246484375,17.03029256488037Q10.8611926484375,17.09853856488037,10.875603648437501,17.17098756488037Q10.8900146484375,17.24343706488037,10.8900146484375,17.31730556488037L10.8900146484375,19.31730556488037Q10.8900146484375,19.39117556488037,10.875603648437501,19.46362556488037Q10.8611926484375,19.53607556488037,10.8329246484375,19.60431556488037Q10.8046556484375,19.672565564880372,10.7636166484375,19.73398556488037Q10.7225776484375,19.795405564880372,10.6703446484375,19.84763556488037Q10.6181116484375,19.899865564880372,10.5566926484375,19.94090556488037Q10.4952726484375,19.98194556488037,10.4270276484375,20.010215564880372Q10.3587816484375,20.03848556488037,10.2863326484375,20.052895564880373Q10.2138831484375,20.06730556488037,10.1400146484375,20.06730556488037Q10.0661461484375,20.06730556488037,9.9936966484375,20.052895564880373Q9.9212476484375,20.03848556488037,9.8530016484375,20.010215564880372Q9.7847566484375,19.98194556488037,9.7233366484375,19.94090556488037Q9.6619176484375,19.899865564880372,9.6096846484375,19.84763556488037Q9.5574516484375,19.795405564880372,9.5164126484375,19.73398556488037Q9.4753736484375,19.672565564880372,9.4471046484375,19.60431556488037Q9.4188366484375,19.53607556488037,9.404425648437499,19.46362556488037Q9.3900146484375,19.39117556488037,9.3900146484375,19.31730556488037L9.3900146484375,17.31730556488037Z" fill-rule="evenodd" fill="#2882FF" fill-opacity="1"/></g><g transform="matrix(0.7071066498756409,-0.70710688829422,0.70710688829422,0.7071066498756409,-6.346358330865485,12.242226861730217)"><path d="M10.8544921875,13.781844139099121Q10.8544921875,13.707975639099121,10.868903187499999,13.63552613909912Q10.8833141875,13.563077139099121,10.9115821875,13.494831139099121Q10.9398511875,13.426586139099122,10.9808901875,13.365166139099122Q11.0219291875,13.303747139099121,11.0741621875,13.251514139099122Q11.1263951875,13.19928113909912,11.1878141875,13.158242139099121Q11.2492341875,13.117203139099122,11.3174791875,13.088934139099122Q11.3857251875,13.060666139099121,11.4581741875,13.04625513909912Q11.5306236875,13.031844139099121,11.6044921875,13.031844139099121Q11.6783606875,13.031844139099121,11.7508101875,13.04625513909912Q11.8232591875,13.060666139099121,11.8915051875,13.088934139099122Q11.9597501875,13.117203139099122,12.0211701875,13.158242139099121Q12.0825891875,13.19928113909912,12.1348221875,13.251514139099122Q12.1870551875,13.303747139099121,12.2280941875,13.365166139099122Q12.2691331875,13.426586139099122,12.2974021875,13.494831139099121Q12.3256701875,13.563077139099121,12.340081187500001,13.63552613909912Q12.3544921875,13.707975639099121,12.3544921875,13.781844139099121L12.3544921875,15.781844139099121Q12.3544921875,15.85571413909912,12.340081187500001,15.92816413909912Q12.3256701875,16.00061413909912,12.2974021875,16.06885413909912Q12.2691331875,16.137104139099122,12.2280941875,16.19852413909912Q12.1870551875,16.259944139099122,12.1348221875,16.31217413909912Q12.0825891875,16.364404139099122,12.0211701875,16.40544413909912Q11.9597501875,16.44648413909912,11.8915051875,16.474754139099122Q11.8232591875,16.50302413909912,11.7508101875,16.517434139099123Q11.6783606875,16.53184413909912,11.6044921875,16.53184413909912Q11.5306236875,16.53184413909912,11.4581741875,16.517434139099123Q11.3857251875,16.50302413909912,11.3174791875,16.474754139099122Q11.2492341875,16.44648413909912,11.1878141875,16.40544413909912Q11.1263951875,16.364404139099122,11.0741621875,16.31217413909912Q11.0219291875,16.259944139099122,10.9808901875,16.19852413909912Q10.9398511875,16.137104139099122,10.9115821875,16.06885413909912Q10.8833141875,16.00061413909912,10.868903187499999,15.92816413909912Q10.8544921875,15.85571413909912,10.8544921875,15.781844139099121L10.8544921875,13.781844139099121Z" fill-rule="evenodd" fill="#2882FF" fill-opacity="1"/></g></g><g transform="matrix(1,-4.0080045948798215e-8,4.0080045948798215e-8,1,-5.39365768048583e-7,6.412807351807714e-7)"><path d="M19.36414,22.45721435546875C19.33819,22.45721435546875,19.31224,22.452194355468748,19.28713,22.442984355468752C19.23356,22.422054355468752,19.19087,22.381044355468752,19.16743,22.328304355468752L17.91686,19.43710435546875L16.360772,20.899444355468752C16.29883,20.95804435546875,16.20759,20.973114355468752,16.128907,20.93962435546875C16.0510605,20.90614435546875,16,20.82829435546875,16,20.74292435546875L16,13.67145335546875C16,13.58607335546875,16.0502235,13.50906395546875,16.128907,13.47474435546875C16.206753,13.44126205546875,16.297993,13.45632927246875,16.360772,13.51492315546875L21.50366,18.31461435546875C21.5656,18.37237435546875,21.58736,18.46193435546875,21.559739999999998,18.54145435546875C21.53212,18.62181435546875,21.46013,18.67789435546875,21.37559,18.68543435546875L19.19338,18.87293435546875L20.5017,21.72562435546875C20.52514,21.776684355468753,20.52765,21.83611435546875,20.507559999999998,21.889684355468752C20.487470000000002,21.94326435546875,20.44813,21.98595435546875,20.39623,22.00938435546875L19.45287,22.43796435546875C19.4244,22.450514355468748,19.39511,22.45721435546875,19.36414,22.45721435546875Z" fill="#2882FF" fill-opacity="1"/></g></g></g></svg>