<svg xmlns="http://www.w3.org/2000/svg" xmlns:xlink="http://www.w3.org/1999/xlink" fill="none" version="1.1" width="24" height="24" viewBox="0 0 24 24"><defs><clipPath id="master_svg0_74_12563"><rect x="0" y="0" width="24" height="24" rx="0"/></clipPath></defs><g clip-path="url(#master_svg0_74_12563)"><g></g><g><path d="M4,5.25L20,5.25Q20.0739,5.25,20.1463,5.264411Q20.2188,5.278822,20.287,5.30709Q20.3553,5.335359,20.4167,5.376398Q20.4781,5.417437,20.5303,5.46967Q20.5826,5.521903,20.6236,5.583322Q20.6646,5.644742,20.6929,5.712987Q20.7212,5.781233,20.7356,5.853682Q20.75,5.9261315,20.75,6Q20.75,6.0738685,20.7356,6.146318Q20.7212,6.218767,20.6929,6.287013Q20.6646,6.355258,20.6236,6.416678Q20.5826,6.478097,20.5303,6.53033Q20.4781,6.582563,20.4167,6.623602Q20.3553,6.664641,20.287,6.69291Q20.2188,6.721178,20.1463,6.735589Q20.0739,6.75,20,6.75L4,6.75Q3.9261315,6.75,3.853682,6.735589Q3.781233,6.721178,3.712987,6.69291Q3.644742,6.664641,3.583322,6.623602Q3.521903,6.582563,3.46967,6.53033Q3.417437,6.478097,3.376398,6.416678Q3.335359,6.355258,3.30709,6.287013Q3.278822,6.218767,3.264411,6.146318Q3.25,6.0738685,3.25,6Q3.25,5.9261315,3.264411,5.853682Q3.278822,5.781233,3.30709,5.712987Q3.335359,5.644742,3.376398,5.583322Q3.417437,5.521903,3.46967,5.46967Q3.521903,5.417437,3.583322,5.376398Q3.644742,5.335359,3.712987,5.30709Q3.781233,5.278822,3.853682,5.264411Q3.9261315,5.25,4,5.25Z" fill-rule="evenodd" fill="#231F2E" fill-opacity="1"/></g><g><path d="M4,11.25L20,11.25Q20.0739,11.25,20.1463,11.264410999999999Q20.2188,11.278822,20.287,11.30709Q20.3553,11.335359,20.4167,11.376398Q20.4781,11.417437,20.5303,11.46967Q20.5826,11.521903,20.6236,11.583322Q20.6646,11.644742,20.6929,11.712987Q20.7212,11.781233,20.7356,11.853682Q20.75,11.9261315,20.75,12Q20.75,12.0738685,20.7356,12.146318Q20.7212,12.218767,20.6929,12.287013Q20.6646,12.355258,20.6236,12.416678Q20.5826,12.478097,20.5303,12.53033Q20.4781,12.582563,20.4167,12.623602Q20.3553,12.664641,20.287,12.69291Q20.2188,12.721178,20.1463,12.735589000000001Q20.0739,12.75,20,12.75L4,12.75Q3.9261315,12.75,3.853682,12.735589000000001Q3.781233,12.721178,3.712987,12.69291Q3.644742,12.664641,3.583322,12.623602Q3.521903,12.582563,3.46967,12.53033Q3.417437,12.478097,3.376398,12.416678Q3.335359,12.355258,3.30709,12.287013Q3.278822,12.218767,3.264411,12.146318Q3.25,12.0738685,3.25,12Q3.25,11.9261315,3.264411,11.853682Q3.278822,11.781233,3.30709,11.712987Q3.335359,11.644742,3.376398,11.583322Q3.417437,11.521903,3.46967,11.46967Q3.521903,11.417437,3.583322,11.376398Q3.644742,11.335359,3.712987,11.30709Q3.781233,11.278822,3.853682,11.264410999999999Q3.9261315,11.25,4,11.25Z" fill-rule="evenodd" fill="#231F2E" fill-opacity="1"/></g><g><path d="M4,17.25L11,17.25Q11.07387,17.25,11.14632,17.264411Q11.21877,17.278822,11.28701,17.30709Q11.355260000000001,17.335359,11.41668,17.376398000000002Q11.478100000000001,17.417437,11.53033,17.46967Q11.58256,17.521903000000002,11.6236,17.583322Q11.66464,17.644742,11.692910000000001,17.712987Q11.72118,17.781233,11.73559,17.853682Q11.75,17.9261315,11.75,18Q11.75,18.0738685,11.73559,18.146318Q11.72118,18.218767,11.692910000000001,18.287013Q11.66464,18.355258,11.6236,18.416678Q11.58256,18.478096999999998,11.53033,18.53033Q11.478100000000001,18.582563,11.41668,18.623601999999998Q11.355260000000001,18.664641,11.28701,18.69291Q11.21877,18.721178,11.14632,18.735589Q11.07387,18.75,11,18.75L4,18.75Q3.9261315,18.75,3.853682,18.735589Q3.781233,18.721178,3.712987,18.69291Q3.644742,18.664641,3.583322,18.623601999999998Q3.521903,18.582563,3.46967,18.53033Q3.417437,18.478096999999998,3.376398,18.416678Q3.335359,18.355258,3.30709,18.287013Q3.278822,18.218767,3.264411,18.146318Q3.25,18.0738685,3.25,18Q3.25,17.9261315,3.264411,17.853682Q3.278822,17.781233,3.30709,17.712987Q3.335359,17.644742,3.376398,17.583322Q3.417437,17.521903000000002,3.46967,17.46967Q3.521903,17.417437,3.583322,17.376398000000002Q3.644742,17.335359,3.712987,17.30709Q3.781233,17.278822,3.853682,17.264411Q3.9261315,17.25,4,17.25Z" fill-rule="evenodd" fill="#231F2E" fill-opacity="1"/></g><g transform="matrix(1,-4.0080045948798215e-8,4.0080045948798215e-8,1,-5.39363323781572e-7,6.412807351807714e-7)"><path d="M19.36414,23.2071533203125Q19.56733,23.2071533203125,19.75562,23.124073320312498L19.76308,23.1207333203125L20.70492,22.6928533203125Q21.06901,22.5284233203125,21.2098,22.1529833203125Q21.35069,21.777303320312498,21.183419999999998,21.412903320312502L20.31936,19.5288833203125L21.442140000000002,19.4324133203125Q22.06561,19.376863320312502,22.26822,18.7874833203125Q22.47431,18.1941733203125,22.01538,17.7662433203125L16.87251,12.9665703203125Q16.411802,12.5365773203125,15.82906,12.7872303203125Q15.25,13.0398003203125,15.25,13.6713923203125L15.25,20.7428633203125Q15.25,21.3779733203125,15.835244,21.629683320312502Q16.417986,21.8776533203125,16.874383,21.4459233203125L17.6524,20.7147833203125L18.48207,22.6328533203125Q18.643819999999998,22.9968033203125,19.029,23.1471033203125Q19.19281,23.2071533203125,19.36414,23.2071533203125ZM18.20126,18.2053533203125L20.111539999999998,18.0412133203125L16.75,14.9039933203125L16.75,19.5044033203125L18.08327,18.2514633203125L18.06739,18.2168533203125L18.1254,18.2118733203125L18.18134,18.1593033203125L18.20126,18.2053533203125Z" fill-rule="evenodd" fill="#FFFFFF" fill-opacity="1"/></g><g transform="matrix(1,-4.0080045948798215e-8,4.0080045948798215e-8,1,-5.39363323781572e-7,6.412807351807714e-7)"><path d="M19.36414,22.4571533203125C19.33819,22.4571533203125,19.31224,22.452133320312498,19.28713,22.442923320312502C19.23356,22.421993320312502,19.19087,22.380983320312502,19.16743,22.328243320312502L17.91686,19.4370433203125L16.360772,20.899383320312502C16.29883,20.9579833203125,16.20759,20.973053320312502,16.128907,20.9395633203125C16.0510605,20.9060833203125,16,20.8282333203125,16,20.7428633203125L16,13.6713923203125C16,13.5860123203125,16.0502235,13.5090029203125,16.128907,13.4746833203125C16.206753,13.4412010203125,16.297993,13.4562682373125,16.360772,13.5148621203125L21.50366,18.3145533203125C21.5656,18.3723133203125,21.58736,18.4618733203125,21.559739999999998,18.5413933203125C21.53212,18.6217533203125,21.46013,18.6778333203125,21.37559,18.6853733203125L19.19338,18.8728733203125L20.5017,21.7255633203125C20.52514,21.776623320312503,20.52765,21.8360533203125,20.507559999999998,21.889623320312502C20.487470000000002,21.9432033203125,20.44813,21.9858933203125,20.39623,22.0093233203125L19.45287,22.4379033203125C19.4244,22.450453320312498,19.39511,22.4571533203125,19.36414,22.4571533203125Z" fill="#2882FF" fill-opacity="1"/></g></g></svg>