<svg xmlns="http://www.w3.org/2000/svg" xmlns:xlink="http://www.w3.org/1999/xlink" fill="none" version="1.1" width="24" height="24" viewBox="0 0 24 24"><defs><clipPath id="master_svg0_69_12944"><rect x="0" y="0" width="24" height="24" rx="0"/></clipPath></defs><g clip-path="url(#master_svg0_69_12944)"><g><path d="M14.9443,4.0920000000000005L14.9441,4.09136Q14.6352,2.99958,13.5,3L10.5,3Q9.3631,3,9.05653,4.08912Q9,4.29221,9,4.5L15,4.5Q15,4.28855,14.9444,4.09257L14.9443,4.0920000000000005L14.9443,4.0920000000000005ZM16.0607,5.56066Q16.4237,5.19759,16.486800000000002,4.71023Q17.0016,4.75852,17.506700000000002,4.817019999999999Q18.0377,4.87881,18.392,5.28798Q18.75,5.7013300000000005,18.75,6.257L18.75,19.5Q18.75,20.1213,18.3107,20.5607Q17.871299999999998,21,17.25,21L6.75,21Q6.12868,21,5.68934,20.5607Q5.25,20.1213,5.25,19.5L5.25,6.257Q5.25,5.70105,5.60767,5.28787Q5.96178,4.87881,6.49361,4.81698Q7.00284,4.75802,7.5132200000000005,4.71008Q7.57621,5.19753,7.93934,5.56066Q8.37868,6,9,6L15,6Q15.6213,6,16.0607,5.56066ZM8.67376,2.119742Q8.10289,2.558043,7.80323,3.178146Q7.06083,3.241286,6.32039,3.32702Q5.209343,3.4561900000000003,4.4735777,4.30613Q3.75,5.14199,3.75,6.257L3.75,19.5Q3.75,20.7426,4.62868,21.6213Q5.50736,22.5,6.75,22.5L17.25,22.5Q18.4926,22.5,19.371299999999998,21.6213Q20.25,20.7426,20.25,19.5L20.25,6.257Q20.25,5.142110000000001,19.526,4.30602Q18.790100000000002,3.4562299999999997,17.679299999999998,3.32698Q16.9478,3.2422649999999997,16.197,3.178326Q15.8929,2.547675,15.3104,2.107177Q14.507,1.499627,13.5,1.5L10.5,1.5Q9.48094,1.5,8.67376,2.119742Z" fill-rule="evenodd" fill="#231F2E" fill-opacity="1"/></g><g><path d="M8,8.747802734375L16,8.747802734375Q16.07387,8.747802734375,16.14632,8.762213734374999Q16.21877,8.776624734375,16.287010000000002,8.804892734375Q16.35526,8.833161734375,16.41668,8.874200734375Q16.478099999999998,8.915239734375,16.53033,8.967472734375Q16.58256,9.019705734375,16.6236,9.081124734375Q16.66464,9.142544734375,16.692909999999998,9.210789734375Q16.72118,9.279035734375,16.735590000000002,9.351484734375Q16.75,9.423934234375,16.75,9.497802734375Q16.75,9.571671234375,16.735590000000002,9.644120734375Q16.72118,9.716569734375,16.692909999999998,9.784815734375Q16.66464,9.853060734375,16.6236,9.914480734375Q16.58256,9.975899734375,16.53033,10.028132734375Q16.478099999999998,10.080365734375,16.41668,10.121404734375Q16.35526,10.162443734375,16.287010000000002,10.190712734375Q16.21877,10.218980734375,16.14632,10.233391734375001Q16.07387,10.247802734375,16,10.247802734375L8,10.247802734375Q7.9261315,10.247802734375,7.853682,10.233391734375001Q7.781233,10.218980734375,7.712987,10.190712734375Q7.644742,10.162443734375,7.583322,10.121404734375Q7.521903,10.080365734375,7.46967,10.028132734375Q7.417437,9.975899734375,7.376398,9.914480734375Q7.335359,9.853060734375,7.30709,9.784815734375Q7.278822,9.716569734375,7.264411,9.644120734375Q7.25,9.571671234375,7.25,9.497802734375Q7.25,9.423934234375,7.264411,9.351484734375Q7.278822,9.279035734375,7.30709,9.210789734375Q7.335359,9.142544734375,7.376398,9.081124734375Q7.417437,9.019705734375,7.46967,8.967472734375Q7.521903,8.915239734375,7.583322,8.874200734375Q7.644742,8.833161734375,7.712987,8.804892734375Q7.781233,8.776624734375,7.853682,8.762213734374999Q7.9261315,8.747802734375,8,8.747802734375Z" fill-rule="evenodd" fill="#2882FF" fill-opacity="1"/></g><g><path d="M8,11.752716064453125L16,11.752716064453125Q16.07387,11.752716064453125,16.14632,11.767127064453124Q16.21877,11.781538064453125,16.287010000000002,11.809806064453126Q16.35526,11.838075064453125,16.41668,11.879114064453125Q16.478099999999998,11.920153064453125,16.53033,11.972386064453126Q16.58256,12.024619064453125,16.6236,12.086038064453126Q16.66464,12.147458064453126,16.692909999999998,12.215703064453125Q16.72118,12.283949064453125,16.735590000000002,12.356398064453124Q16.75,12.428847564453125,16.75,12.502716064453125Q16.75,12.576584564453125,16.735590000000002,12.649034064453126Q16.72118,12.721483064453125,16.692909999999998,12.789729064453125Q16.66464,12.857974064453124,16.6236,12.919394064453124Q16.58256,12.980813064453125,16.53033,13.033046064453124Q16.478099999999998,13.085279064453125,16.41668,13.126318064453125Q16.35526,13.167357064453125,16.287010000000002,13.195626064453124Q16.21877,13.223894064453125,16.14632,13.238305064453126Q16.07387,13.252716064453125,16,13.252716064453125L8,13.252716064453125Q7.9261315,13.252716064453125,7.853682,13.238305064453126Q7.781233,13.223894064453125,7.712987,13.195626064453124Q7.644742,13.167357064453125,7.583322,13.126318064453125Q7.521903,13.085279064453125,7.46967,13.033046064453124Q7.417437,12.980813064453125,7.376398,12.919394064453124Q7.335359,12.857974064453124,7.30709,12.789729064453125Q7.278822,12.721483064453125,7.264411,12.649034064453126Q7.25,12.576584564453125,7.25,12.502716064453125Q7.25,12.428847564453125,7.264411,12.356398064453124Q7.278822,12.283949064453125,7.30709,12.215703064453125Q7.335359,12.147458064453126,7.376398,12.086038064453126Q7.417437,12.024619064453125,7.46967,11.972386064453126Q7.521903,11.920153064453125,7.583322,11.879114064453125Q7.644742,11.838075064453125,7.712987,11.809806064453126Q7.781233,11.781538064453125,7.853682,11.767127064453124Q7.9261315,11.752716064453125,8,11.752716064453125Z" fill-rule="evenodd" fill="#2882FF" fill-opacity="1"/></g><g><path d="M8,14.75762939453125L12,14.75762939453125Q12.07387,14.75762939453125,12.14632,14.772040394531249Q12.21877,14.78645139453125,12.28701,14.81471939453125Q12.355260000000001,14.84298839453125,12.41668,14.88402739453125Q12.478100000000001,14.92506639453125,12.53033,14.97729939453125Q12.58256,15.02953239453125,12.6236,15.09095139453125Q12.66464,15.15237139453125,12.692910000000001,15.22061639453125Q12.72118,15.28886239453125,12.73559,15.36131139453125Q12.75,15.43376089453125,12.75,15.50762939453125Q12.75,15.58149789453125,12.73559,15.65394739453125Q12.72118,15.72639639453125,12.692910000000001,15.79464239453125Q12.66464,15.86288739453125,12.6236,15.92430739453125Q12.58256,15.98572639453125,12.53033,16.03795939453125Q12.478100000000001,16.09019239453125,12.41668,16.131231394531248Q12.355260000000001,16.17227039453125,12.28701,16.20053939453125Q12.21877,16.22880739453125,12.14632,16.24321839453125Q12.07387,16.25762939453125,12,16.25762939453125L8,16.25762939453125Q7.9261315,16.25762939453125,7.853682,16.24321839453125Q7.781233,16.22880739453125,7.712987,16.20053939453125Q7.644742,16.17227039453125,7.583322,16.131231394531248Q7.521903,16.09019239453125,7.46967,16.03795939453125Q7.417437,15.98572639453125,7.376398,15.92430739453125Q7.335359,15.86288739453125,7.30709,15.79464239453125Q7.278822,15.72639639453125,7.264411,15.65394739453125Q7.25,15.58149789453125,7.25,15.50762939453125Q7.25,15.43376089453125,7.264411,15.36131139453125Q7.278822,15.28886239453125,7.30709,15.22061639453125Q7.335359,15.15237139453125,7.376398,15.09095139453125Q7.417437,15.02953239453125,7.46967,14.97729939453125Q7.521903,14.92506639453125,7.583322,14.88402739453125Q7.644742,14.84298839453125,7.712987,14.81471939453125Q7.781233,14.78645139453125,7.853682,14.772040394531249Q7.9261315,14.75762939453125,8,14.75762939453125Z" fill-rule="evenodd" fill="#2882FF" fill-opacity="1"/></g></g></svg>