<svg xmlns="http://www.w3.org/2000/svg" xmlns:xlink="http://www.w3.org/1999/xlink" fill="none" version="1.1" width="24" height="24" viewBox="0 0 24 24"><defs><clipPath id="master_svg0_74_12145"><rect x="0" y="0" width="24" height="24" rx="0"/></clipPath></defs><g clip-path="url(#master_svg0_74_12145)"><g><path d="M10.25,4.5L10.25,12Q10.25,12.07387,10.26441,12.14632Q10.27882,12.21877,10.30709,12.28701Q10.33536,12.35526,10.3764,12.41668Q10.41744,12.4781,10.46967,12.53033Q10.5219,12.58256,10.58332,12.6236Q10.64474,12.66464,10.71299,12.69291Q10.78123,12.72118,10.85368,12.73559Q10.92613,12.75,11,12.75Q11.07387,12.75,11.14632,12.73559Q11.21877,12.72118,11.28701,12.69291Q11.35526,12.66464,11.41668,12.6236Q11.4781,12.58256,11.53033,12.53033Q11.58256,12.4781,11.6236,12.41668Q11.66464,12.35526,11.69291,12.28701Q11.72118,12.21877,11.73559,12.14632Q11.75,12.07387,11.75,12L11.75,4.5Q11.75,3.5680199999999997,11.09099,2.9090098Q10.43198,2.25,9.5,2.25Q8.568019,2.25,7.9090097,2.9090097Q7.25,3.568019,7.25,4.5L7.25,13Q7.25,13.0739,7.264411,13.1463Q7.278822,13.2188,7.30709,13.287Q7.335359,13.3553,7.376398,13.4167Q7.417437,13.4781,7.46967,13.5303Q7.521903,13.5826,7.583322,13.6236Q7.644742,13.6646,7.712987,13.6929Q7.781233,13.7212,7.853682,13.7356Q7.9261315,13.75,8,13.75Q8.0738685,13.75,8.146318,13.7356Q8.218767,13.7212,8.287013,13.6929Q8.355258,13.6646,8.416678,13.6236Q8.478097,13.5826,8.53033,13.5303Q8.582563,13.4781,8.623602,13.4167Q8.664641,13.3553,8.69291,13.287Q8.721178,13.2188,8.735589000000001,13.1463Q8.75,13.0739,8.75,13L8.75,4.5Q8.75,4.18934,8.96967,3.96967Q9.18934,3.75,9.5,3.75Q9.81066,3.75,10.03033,3.96967Q10.25,4.18934,10.25,4.5Z" fill-rule="evenodd" fill="#231F2E" fill-opacity="1"/></g><g><path d="M13.03033,8.96967Q13.25,9.18934,13.25,9.5L13.25,12Q13.25,12.07387,13.26441,12.14632Q13.27882,12.21877,13.30709,12.28701Q13.33536,12.355260000000001,13.3764,12.41668Q13.41744,12.478100000000001,13.46967,12.53033Q13.5219,12.58256,13.58332,12.6236Q13.64474,12.66464,13.71299,12.692910000000001Q13.78123,12.72118,13.85368,12.73559Q13.92613,12.75,14,12.75Q14.07387,12.75,14.14632,12.73559Q14.21877,12.72118,14.28701,12.692910000000001Q14.35526,12.66464,14.41668,12.6236Q14.4781,12.58256,14.53033,12.53033Q14.58256,12.478100000000001,14.6236,12.41668Q14.66464,12.355260000000001,14.69291,12.28701Q14.72118,12.21877,14.73559,12.14632Q14.75,12.07387,14.75,12L14.75,11.9994L14.75,9.5Q14.75,8.56802,14.09099,7.9090098Q13.43198,7.25,12.5,7.25Q11.56802,7.25,10.9090107,7.9090096Q10.250001,8.568019,10.25,9.5L10.25,11.4997L10.25,11.5Q10.25,11.57387,10.264410999999999,11.64632Q10.278822,11.71877,10.30709,11.78701Q10.335359,11.85526,10.376398,11.91668Q10.417437,11.9781,10.46967,12.03033Q10.521903,12.08256,10.583322,12.1236Q10.644742,12.16464,10.712987,12.192910000000001Q10.781233,12.22118,10.853682,12.23559Q10.9261315,12.25,11,12.25Q11.0738685,12.25,11.146318,12.23559Q11.218767,12.22118,11.287013,12.192910000000001Q11.355258,12.16464,11.416678,12.1236Q11.478097,12.08256,11.53033,12.03033Q11.582563,11.9781,11.623602,11.91668Q11.664641,11.85526,11.69291,11.78701Q11.721178,11.71877,11.735589000000001,11.64632Q11.75,11.57387,11.75,11.5L11.75,11.4997L11.75,9.5Q11.750001,9.18934,11.969671,8.96967Q12.18934,8.75,12.5,8.75Q12.81066,8.75,13.03033,8.96967Z" fill-rule="evenodd" fill="#231F2E" fill-opacity="1"/></g><g><path d="M16.03033,9.96967Q16.25,10.18934,16.25,10.5L16.25,12Q16.25,12.07387,16.264409999999998,12.14632Q16.27882,12.21877,16.30709,12.28701Q16.33536,12.35526,16.3764,12.41668Q16.41744,12.4781,16.46967,12.53033Q16.5219,12.58256,16.58332,12.6236Q16.64474,12.66464,16.71299,12.69291Q16.78123,12.72118,16.85368,12.73559Q16.92613,12.75,17,12.75Q17.07387,12.75,17.14632,12.73559Q17.21877,12.72118,17.28701,12.69291Q17.35526,12.66464,17.41668,12.6236Q17.4781,12.58256,17.53033,12.53033Q17.58256,12.4781,17.6236,12.41668Q17.66464,12.35526,17.69291,12.28701Q17.72118,12.21877,17.735590000000002,12.14632Q17.75,12.07387,17.75,12L17.75,10.5Q17.75,9.56802,17.09099,8.9090101Q16.43198,8.25,15.5,8.25Q14.56802,8.25,13.9090107,8.9090095Q13.250001,9.568019,13.25,10.5Q13.25,10.57387,13.264410999999999,10.64632Q13.278822,10.71877,13.30709,10.78701Q13.335359,10.85526,13.376398,10.91668Q13.417437,10.9781,13.46967,11.03033Q13.521903,11.08256,13.583322,11.1236Q13.644742,11.16464,13.712987,11.19291Q13.781233,11.22118,13.853682,11.23559Q13.9261315,11.25,14,11.25Q14.0738685,11.25,14.146318,11.23559Q14.218767,11.22118,14.287013,11.19291Q14.355258,11.16464,14.416678,11.1236Q14.478097,11.08256,14.53033,11.03033Q14.582563,10.9781,14.623602,10.91668Q14.664641,10.85526,14.69291,10.78701Q14.721178,10.71877,14.735589000000001,10.64632Q14.75,10.57387,14.75,10.5Q14.75,10.18934,14.969671,9.96967Q15.18934,9.75,15.5,9.75Q15.81066,9.75,16.03033,9.96967Z" fill-rule="evenodd" fill="#231F2E" fill-opacity="1"/></g><g><path d="M5.999666917648316,12.06033L7.469666917648315,13.53033Q7.575156917648315,13.635819999999999,7.7129869176483155,13.69291Q7.850816917648316,13.75,7.999996917648315,13.75Q8.073866917648315,13.75,8.146316917648315,13.73559Q8.218766917648315,13.72118,8.287006917648316,13.69291Q8.355256917648315,13.66464,8.416676917648315,13.6236Q8.478096917648315,13.58256,8.530326917648315,13.53033Q8.582566917648315,13.4781,8.623596917648316,13.41668Q8.664636917648316,13.35526,8.692906917648315,13.28701Q8.721176917648314,13.21877,8.735586917648316,13.14632Q8.749996917648314,13.07387,8.749996917648314,13Q8.749996917648314,12.85081,8.692906917648315,12.71299Q8.635816917648317,12.57516,8.530326917648315,12.46967L8.530176917648316,12.46951L7.060326917648315,10.999669Q6.423096917648316,10.363168,5.529576917648315,10.253437Q4.6360569176483155,10.143707,3.8641189176483155,10.606885Q3.0805779176483155,11.07665,2.8464209176483153,11.95998Q2.6122649176483153,12.8433,3.0603479176483153,13.63975Q5.8918769176483154,18.67291,6.3715569176483156,19.40934L6.568126917648316,19.71021Q7.5063169176483155,21.134900000000002,9.005686917648315,21.9426Q10.368976917648315,22.677,11.900706917648316,22.7434Q11.950136917648315,22.75,11.999996917648316,22.75L13.999976917648315,22.75Q16.795976917648318,22.75,18.772976917648315,20.773Q20.749976917648315,18.79594,20.749976917648315,16L20.749976917648315,11.5Q20.749976917648315,10.56802,20.090976917648316,9.9090093Q19.431976917648313,9.25,18.499976917648315,9.25Q17.567976917648316,9.25,16.908976917648317,9.9090094Q16.249976917648315,10.56802,16.249976917648315,11.5Q16.249976917648315,11.57387,16.264376917648313,11.64632Q16.278776917648315,11.71877,16.307076917648317,11.78701Q16.335376917648315,11.85526,16.376376917648315,11.91668Q16.417476917648315,11.9781,16.469676917648314,12.03033Q16.521876917648314,12.08256,16.583276917648316,12.1236Q16.644776917648315,12.16464,16.712976917648316,12.19291Q16.781276917648313,12.22118,16.853676917648315,12.23559Q16.926176917648313,12.25,16.999976917648315,12.25Q17.073876917648313,12.25,17.146276917648315,12.23559Q17.218776917648313,12.22118,17.286976917648317,12.19291Q17.355276917648315,12.16464,17.416676917648317,12.1236Q17.478076917648316,12.08256,17.530376917648315,12.03033Q17.582576917648318,11.9781,17.623576917648315,11.91668Q17.664676917648315,11.85526,17.692876917648313,11.78701Q17.721176917648314,11.71877,17.735576917648316,11.64632Q17.749976917648315,11.57387,17.749976917648315,11.5Q17.749976917648315,11.125,17.937476917648315,10.937501Q18.124976917648315,10.75,18.499976917648315,10.75Q18.810676917648316,10.75,19.030376917648315,10.96967Q19.249976917648315,11.18934,19.249976917648315,11.5L19.249976917648315,16Q19.249976917648315,18.17462,17.712276917648317,19.712310000000002Q16.174576917648317,21.25,13.999976917648315,21.25L12.205596917648315,21.25Q9.377886917648315,21.249499999999998,7.823876917648316,18.889789999999998L7.628446917648316,18.59066Q7.175326917648316,17.89501,4.367651917648315,12.904250000000001Q4.009918917648315,12.2684,4.635886917648316,11.89311Q5.383286917648316,11.44465,5.999666917648316,12.06033Z" fill-rule="evenodd" fill="#231F2E" fill-opacity="1"/></g><g><path d="M4.5304839999999995,1.469824L5.53018,2.469516L5.53033,2.46967Q5.63582,2.575159,5.6929099999999995,2.712987Q5.75,2.850816,5.75,3Q5.75,3.0738700000000003,5.73559,3.1463200000000002Q5.72118,3.21877,5.6929099999999995,3.28701Q5.66464,3.35526,5.6236,3.41668Q5.58256,3.4781,5.53033,3.53033Q5.4780999999999995,3.58256,5.4166799999999995,3.6235999999999997Q5.3552599999999995,3.66464,5.28701,3.69291Q5.21877,3.72118,5.14632,3.73559Q5.07387,3.75,5,3.75Q4.850816,3.75,4.712987,3.69291Q4.575159,3.63582,4.46967,3.53033L4.469516,3.53018L3.46967,2.53033Q3.364181,2.424841,3.30709,2.287013Q3.25,2.149184,3.25,2Q3.25,1.9261314999999999,3.264411,1.853682Q3.278822,1.781233,3.30709,1.712987Q3.335359,1.644742,3.376398,1.583322Q3.417437,1.521903,3.46967,1.46967Q3.521903,1.417437,3.583322,1.376398Q3.644742,1.335359,3.712987,1.30709Q3.781233,1.278822,3.853682,1.264411Q3.9261315,1.25,4,1.25Q4.149184,1.25,4.287013,1.30709Q4.424841,1.3641809999999999,4.53033,1.46967L4.5304839999999995,1.469824Z" fill-rule="evenodd" fill="#2882FF" fill-opacity="1" style="mix-blend-mode:passthrough"/></g><g><path d="M3,6.25L4,6.25Q4.07387,6.25,4.14632,6.264411Q4.21877,6.278822,4.28701,6.30709Q4.3552599999999995,6.335359,4.4166799999999995,6.376398Q4.4780999999999995,6.417437,4.53033,6.46967Q4.58256,6.521903,4.6236,6.583322Q4.66464,6.644742,4.6929099999999995,6.712987Q4.72118,6.781233,4.73559,6.853682Q4.75,6.9261315,4.75,7Q4.75,7.0738685,4.73559,7.146318Q4.72118,7.218767,4.6929099999999995,7.287013Q4.66464,7.355258,4.6236,7.416678Q4.58256,7.478097,4.53033,7.53033Q4.4780999999999995,7.582563,4.4166799999999995,7.623602Q4.3552599999999995,7.664641,4.28701,7.69291Q4.21877,7.721178,4.14632,7.735589Q4.07387,7.75,4,7.75L3,7.75Q2.9261315,7.75,2.853682,7.735589Q2.781233,7.721178,2.712987,7.69291Q2.644742,7.664641,2.583322,7.623602Q2.521903,7.582563,2.46967,7.53033Q2.417437,7.478097,2.376398,7.416678Q2.335359,7.355258,2.30709,7.287013Q2.278822,7.218767,2.264411,7.146318Q2.25,7.0738685,2.25,7Q2.25,6.9261315,2.264411,6.853682Q2.278822,6.781233,2.30709,6.712987Q2.335359,6.644742,2.376398,6.583322Q2.417437,6.521903,2.46967,6.46967Q2.521903,6.417437,2.583322,6.376398Q2.644742,6.335359,2.712987,6.30709Q2.781233,6.278822,2.853682,6.264411Q2.9261315,6.25,3,6.25Z" fill-rule="evenodd" fill="#2882FF" fill-opacity="1" style="mix-blend-mode:passthrough"/></g><g><path d="M15.53033,2.53033Q15.63582,2.424841,15.69291,2.287013Q15.75,2.149184,15.75,2Q15.75,1.9261314999999999,15.73559,1.853682Q15.72118,1.781233,15.69291,1.712987Q15.66464,1.644742,15.6236,1.583322Q15.58256,1.521903,15.53033,1.46967Q15.4781,1.417437,15.41668,1.376398Q15.35526,1.335359,15.28701,1.30709Q15.21877,1.278822,15.14632,1.264411Q15.07387,1.25,15,1.25Q14.850816,1.25,14.712987,1.30709Q14.575159,1.3641809999999999,14.46967,1.46967L14.469516,1.469824L13.46967,2.46967Q13.364181,2.575159,13.30709,2.712987Q13.25,2.850816,13.25,3Q13.25,3.0738700000000003,13.264410999999999,3.1463200000000002Q13.278822,3.21877,13.30709,3.28701Q13.335359,3.35526,13.376398,3.41668Q13.417437,3.4781,13.46967,3.53033Q13.521903,3.58256,13.583322,3.6235999999999997Q13.644742,3.66464,13.712987,3.69291Q13.781233,3.72118,13.853682,3.73559Q13.9261315,3.75,14,3.75Q14.149184,3.75,14.287013,3.69291Q14.424841,3.63582,14.53033,3.53033L14.530484,3.53018L15.53018,2.530484L15.53033,2.53033Z" fill-rule="evenodd" fill="#2882FF" fill-opacity="1" style="mix-blend-mode:passthrough"/></g><g><path d="M15,5.25Q14.9261315,5.25,14.853682,5.264411Q14.781233,5.278822,14.712987,5.30709Q14.644742,5.335359,14.583322,5.376398Q14.521903,5.417437,14.46967,5.46967Q14.417437,5.521903,14.376398,5.583322Q14.335359,5.644742,14.30709,5.712987Q14.278822,5.781233,14.264410999999999,5.853682Q14.25,5.9261315,14.25,6Q14.25,6.0738685,14.264410999999999,6.146318Q14.278822,6.218767,14.30709,6.287013Q14.335359,6.355258,14.376398,6.416678Q14.417437,6.478097,14.46967,6.53033Q14.521903,6.582563,14.583322,6.623602Q14.644742,6.664641,14.712987,6.69291Q14.781233,6.721178,14.853682,6.735589Q14.9261315,6.75,15,6.75L16,6.75Q16.07387,6.75,16.14632,6.735589Q16.21877,6.721178,16.28701,6.69291Q16.35526,6.664641,16.41668,6.623602Q16.4781,6.582563,16.53033,6.53033Q16.58256,6.478097,16.6236,6.416678Q16.66464,6.355258,16.69291,6.287013Q16.72118,6.218767,16.73559,6.146318Q16.75,6.0738685,16.75,6Q16.75,5.9261315,16.73559,5.853682Q16.72118,5.781233,16.69291,5.712987Q16.66464,5.644742,16.6236,5.583322Q16.58256,5.521903,16.53033,5.46967Q16.4781,5.417437,16.41668,5.376398Q16.35526,5.335359,16.28701,5.30709Q16.21877,5.278822,16.14632,5.264411Q16.07387,5.25,16,5.25L15,5.25Z" fill-rule="evenodd" fill="#2882FF" fill-opacity="1" style="mix-blend-mode:passthrough"/></g></g></svg>