<svg xmlns="http://www.w3.org/2000/svg" xmlns:xlink="http://www.w3.org/1999/xlink" fill="none" version="1.1" width="24" height="24" viewBox="0 0 24 24"><defs><clipPath id="master_svg0_69_13853"><rect x="0" y="0" width="24" height="24" rx="0"/></clipPath></defs><g clip-path="url(#master_svg0_69_13853)"><g><path d="M21.651653269958498,17.651699999999998Q22.750053269958496,16.5533,22.750053269958496,15L22.750053269958496,9Q22.750053269958496,7.4467,21.651653269958498,6.34835Q20.553353269958496,5.25,19.000053269958496,5.25L4.999973269958496,5.25Q3.446663269958496,5.25,2.3483112699584963,6.348356Q1.2499602699584962,7.4467099999999995,1.249968269958496,9.00002L1.249997269958496,15.00002Q1.2500052699584963,16.5533,2.348354269958496,17.651699999999998Q3.446703269958496,18.75,5.000003269958496,18.75L19.000053269958496,18.75Q20.553353269958496,18.75,21.651653269958498,17.651699999999998ZM21.250053269958496,9L21.250053269958496,15Q21.250053269958496,15.93198,20.590953269958497,16.591Q19.931953269958495,17.25,19.000053269958496,17.25L5.000003269958496,17.25Q4.068023269958497,17.25,3.4090132699584963,16.591Q2.750002269958496,15.93199,2.749997269958496,15.00001L2.749968269958496,9.00001Q2.749963269958496,8.06803,3.408973269958496,7.40901Q4.067983269958496,6.75,4.999973269958496,6.75L19.000053269958496,6.75Q19.931953269958495,6.75,20.590953269958497,7.40901Q21.250053269958496,8.06802,21.250053269958496,9Z" fill-rule="evenodd" fill="#231F2E" fill-opacity="1"/></g><g><path d="M5,10.0100002L5,10L5,10.0100002ZM6,11.01Q6.0984914,11.01,6.19509,10.990785Q6.291689,10.971571,6.382683,10.93388Q6.473678,10.896189,6.55557,10.84147Q6.637463,10.786751,6.707107,10.717107Q6.776751,10.647463,6.83147,10.56557Q6.886188,10.483678,6.923879,10.392684Q6.96157,10.301689,6.980785,10.205091Q7,10.108492,7,10.0100002L5,10.0100002Q5,10.108492,5.019215,10.205091Q5.03843,10.301689,5.076121,10.392684Q5.113812,10.483678,5.16853,10.56557Q5.223249,10.647463,5.292893,10.717107Q5.362537,10.786751,5.44443,10.84147Q5.526322,10.896189,5.617317,10.93388Q5.708311,10.971571,5.80491,10.990785Q5.9015086,11.01,6,11.01Z" fill-rule="evenodd" fill="#231F2E" fill-opacity="1"/></g><g><path d="M9,10.0100002L9,10L9,10.0100002ZM10,11.01Q10.0984914,11.01,10.19509,10.990785Q10.291689,10.971571,10.382683,10.93388Q10.473678,10.896189,10.55557,10.84147Q10.637463,10.786751,10.707107,10.717107Q10.776751,10.647463,10.83147,10.56557Q10.886188,10.483678,10.923879,10.392684Q10.96157,10.301689,10.980785000000001,10.205091Q11,10.108492,11,10.0100002L9,10.0100002Q9,10.108492,9.019214999999999,10.205091Q9.03843,10.301689,9.076121,10.392684Q9.113812,10.483678,9.16853,10.56557Q9.223249,10.647463,9.292893,10.717107Q9.362537,10.786751,9.44443,10.84147Q9.526322,10.896189,9.617317,10.93388Q9.708311,10.971571,9.80491,10.990785Q9.9015086,11.01,10,11.01Z" fill-rule="evenodd" fill="#231F2E" fill-opacity="1"/></g><g><path d="M13,10.0100002L13,10L13,10.0100002ZM14,11.01Q14.0984914,11.01,14.19509,10.990785Q14.291689,10.971571,14.382683,10.93388Q14.473678,10.896189,14.55557,10.84147Q14.637463,10.786751,14.707107,10.717107Q14.776751,10.647463,14.83147,10.56557Q14.886188,10.483678,14.923879,10.392684Q14.96157,10.301689,14.980785000000001,10.205091Q15,10.108492,15,10.0100002L13,10.0100002Q13,10.108492,13.019214999999999,10.205091Q13.03843,10.301689,13.076121,10.392684Q13.113812,10.483678,13.16853,10.56557Q13.223249,10.647463,13.292893,10.717107Q13.362537,10.786751,13.44443,10.84147Q13.526322,10.896189,13.617317,10.93388Q13.708311,10.971571,13.80491,10.990785Q13.9015086,11.01,14,11.01Z" fill-rule="evenodd" fill="#231F2E" fill-opacity="1"/></g><g><path d="M17,10.0100002L17,10L17,10.0100002ZM18,11.01Q18.0984914,11.01,18.19509,10.990785Q18.291689,10.971571,18.382683,10.93388Q18.473678,10.896189,18.55557,10.84147Q18.637463,10.786751,18.707107,10.717107Q18.776751,10.647463,18.83147,10.56557Q18.886188,10.483678,18.923879,10.392684Q18.961570000000002,10.301689,18.980785,10.205091Q19,10.108492,19,10.0100002L17,10.0100002Q17,10.108492,17.019215,10.205091Q17.038429999999998,10.301689,17.076121,10.392684Q17.113812,10.483678,17.16853,10.56557Q17.223249,10.647463,17.292893,10.717107Q17.362537,10.786751,17.44443,10.84147Q17.526322,10.896189,17.617317,10.93388Q17.708311,10.971571,17.80491,10.990785Q17.9015086,11.01,18,11.01Z" fill-rule="evenodd" fill="#231F2E" fill-opacity="1"/></g><g><path d="M5,14.0100002L5,14L5,14.0100002ZM6,15.01Q6.0984914,15.01,6.19509,14.990785Q6.291689,14.971571,6.382683,14.93388Q6.473678,14.896189,6.55557,14.84147Q6.637463,14.786751,6.707107,14.717107Q6.776751,14.647463,6.83147,14.56557Q6.886188,14.483678,6.923879,14.392684Q6.96157,14.301689,6.980785,14.205091Q7,14.108492,7,14.0100002L5,14.0100002Q5,14.108492,5.019215,14.205091Q5.03843,14.301689,5.076121,14.392684Q5.113812,14.483678,5.16853,14.56557Q5.223249,14.647463,5.292893,14.717107Q5.362537,14.786751,5.44443,14.84147Q5.526322,14.896189,5.617317,14.93388Q5.708311,14.971571,5.80491,14.990785Q5.9015086,15.01,6,15.01Z" fill-rule="evenodd" fill="#231F2E" fill-opacity="1"/></g><g><path d="M17,14.0100002L17,14L17,14.0100002ZM18,15.01Q18.0984914,15.01,18.19509,14.990785Q18.291689,14.971571,18.382683,14.93388Q18.473678,14.896189,18.55557,14.84147Q18.637463,14.786751,18.707107,14.717107Q18.776751,14.647463,18.83147,14.56557Q18.886188,14.483678,18.923879,14.392684Q18.961570000000002,14.301689,18.980785,14.205091Q19,14.108492,19,14.0100002L17,14.0100002Q17,14.108492,17.019215,14.205091Q17.038429999999998,14.301689,17.076121,14.392684Q17.113812,14.483678,17.16853,14.56557Q17.223249,14.647463,17.292893,14.717107Q17.362537,14.786751,17.44443,14.84147Q17.526322,14.896189,17.617317,14.93388Q17.708311,14.971571,17.80491,14.990785Q17.9015086,15.01,18,15.01Z" fill-rule="evenodd" fill="#231F2E" fill-opacity="1"/></g><g><path d="M10.00250005,13.000003L14,13.009997L14.002500000000001,13.010003Q14.10083,13.010249,14.19724,13.029644Q14.29364,13.049039,14.38442,13.08684Q14.47519,13.124641,14.55687,13.1794Q14.63855,13.234159,14.707989999999999,13.303778Q14.77744,13.373397,14.831990000000001,13.45521Q14.88655,13.537022,14.92412,13.627894Q14.96169,13.718766,14.98085,13.815216Q15,13.9116666,15,14.0100002Q15,14.108492,14.98078,14.205091Q14.96157,14.301689,14.92388,14.392684Q14.88619,14.483678,14.83147,14.56557Q14.77675,14.647463,14.70711,14.717107Q14.63746,14.786751,14.55557,14.84147Q14.47368,14.896189,14.38268,14.93388Q14.29169,14.971571,14.19509,14.990785Q14.09849,15.01,14,15.01L13.9975,15.01L10,15L9.99749995,14.999997Q9.899167,14.999751,9.802765,14.980356Q9.706363,14.960961,9.615585,14.92316Q9.524807,14.88536,9.443131,14.830601Q9.361455,14.775842,9.29201,14.706222Q9.222564,14.636603000000001,9.16801,14.554791Q9.113455,14.472978,9.075881,14.382106Q9.038308,14.291234,9.019154,14.194784Q9,14.0983336,9,14Q9,13.9015086,9.019214999999999,13.80491Q9.03843,13.708311,9.076121,13.617317Q9.113812,13.526322,9.16853,13.44443Q9.223249,13.362537,9.292893,13.292893Q9.362537,13.223249,9.44443,13.16853Q9.526322,13.113812,9.617317,13.076121Q9.708311,13.03843,9.80491,13.019214999999999Q9.9015086,13,10,13L10.00250005,13.000003Z" fill-rule="evenodd" fill="#2882FF" fill-opacity="1"/></g><g><g><path d="M19.73955,13.751239776611328Q19.8125,13.506561776611328,19.8125,13.251239776611328Q19.8125,13.165267776611328,19.80407,13.079709776611327Q19.795650000000002,12.994151776611329,19.77887,12.909831776611329Q19.7621,12.825511776611329,19.73715,12.743241776611328Q19.71219,12.660971776611328,19.67929,12.581543776611328Q19.64639,12.502115776611328,19.60586,12.426295776611328Q19.56534,12.350474776611328,19.51757,12.278991776611328Q19.46981,12.207509776611328,19.41527,12.141049776611329Q19.36073,12.074589776611328,19.29994,12.013799776611329Q19.23915,11.953009776611328,19.17269,11.898469776611329Q19.10623,11.843929776611327,19.03475,11.796169776611329Q18.96326,11.748399776611329,18.887439999999998,11.707879776611328Q18.81162,11.667349776611328,18.7322,11.634449776611328Q18.65277,11.601549776611328,18.5705,11.576589776611328Q18.48823,11.551639776611328,18.40391,11.534869776611329Q18.319589999999998,11.518089776611328,18.23403,11.509669776611329Q18.14847,11.501239776611328,18.0625,11.501239776611328Q17.88054,11.501239776611328,17.702469999999998,11.538679776611328Q17.5244,11.576109776611329,17.35784,11.649379776611328Q17.19128,11.722649776611329,17.04336,11.828619776611328Q16.895437,11.934589776611329,16.77248,12.068719776611328L16.772165,12.069069776611329L15.74123,13.193721676611329L14.70998,14.318719776611328Q14.65189,14.382099776611328,14.60029,14.450859776611328Q14.548680000000001,14.519619776611329,14.50407,14.593109776611328Q14.45946,14.666599776611328,14.42226,14.744109776611328Q14.38507,14.821619776611328,14.35565,14.902399776611329Q14.32623,14.983189776611328,14.30487,15.066459776611328Q14.28351,15.149739776611328,14.27042,15.234709776611329Q14.25732,15.319679776611327,14.25262,15.405519776611328Q14.24792,15.49135977661133,14.25165,15.577249776611328Q14.25539,15.663149776611329,14.26752,15.748259776611327Q14.27966,15.833369776611327,14.30008,15.916879776611328Q14.32049,16.00038977661133,14.349,16.081499776611327Q14.377510000000001,16.162609776611326,14.41383,16.24052977661133Q14.45015,16.318459776611327,14.49393,16.39244977661133Q14.53771,16.466429776611328,14.58853,16.53576977661133Q14.63936,16.60511977661133,14.69673,16.669139776611328Q14.75411,16.733169776611327,14.81748,16.791259776611327Q14.93747,16.90124977661133,15.075678,16.98721977661133Q15.213889,17.07318977661133,15.365585,17.13219977661133Q15.51728,17.191199776611327,15.677256,17.221219776611328Q15.837232,17.251239776611328,16,17.251239776611328L22,17.251239776611328Q22.08597,17.251239776611328,22.17153,17.242809776611328Q22.257089999999998,17.23438977661133,22.34141,17.21760977661133Q22.42573,17.20083977661133,22.508,17.175889776611328Q22.59027,17.150929776611328,22.66969,17.11802977661133Q22.749119999999998,17.08512977661133,22.824939999999998,17.044599776611328Q22.90076,17.004079776611327,22.97225,16.956309776611327Q23.04373,16.908549776611327,23.11019,16.854009776611328Q23.176650000000002,16.79946977661133,23.23744,16.738679776611328Q23.29823,16.677889776611327,23.35277,16.611429776611327Q23.40731,16.544969776611328,23.45507,16.473489776611327Q23.50284,16.401999776611326,23.54336,16.326179776611326Q23.58389,16.25035977661133,23.61679,16.170939776611327Q23.64969,16.09150977661133,23.67465,16.009239776611327Q23.6996,15.926969776611328,23.71637,15.842649776611328Q23.733150000000002,15.758329776611328,23.74157,15.672769776611329Q23.75,15.587209776611328,23.75,15.501239776611328Q23.75,15.415269776611328,23.74157,15.329709776611327Q23.733150000000002,15.244149776611328,23.71637,15.159829776611328Q23.6996,15.075509776611328,23.67465,14.993239776611329Q23.64969,14.910969776611328,23.61679,14.831539776611327Q23.58389,14.752119776611329,23.54336,14.676299776611328Q23.50284,14.600479776611328,23.45507,14.528989776611327Q23.40731,14.457509776611328,23.35277,14.391049776611329Q23.29823,14.324589776611328,23.23744,14.263799776611329Q23.176650000000002,14.203011776611328,23.11019,14.148471776611329Q23.04373,14.093931776611328,22.97225,14.046167776611329Q22.90076,13.998404776611329,22.824939999999998,13.957877776611328Q22.749119999999998,13.917350776611329,22.6697,13.884450776611327Q22.59027,13.851550776611328,22.508,13.826593776611329Q22.42573,13.801637776611328,22.34141,13.784865776611328Q22.257089999999998,13.768092776611327,22.17153,13.759666776611327Q22.08597,13.751239776611328,22,13.751239776611328L19.73955,13.751239776611328Z" fill-rule="evenodd" fill="#FFFFFF" fill-opacity="1"/></g><g><path d="M16,16.751239776611328L22,16.751239776611328Q22.162770000000002,16.751239776611328,22.32274,16.78125977661133Q22.48272,16.81127977661133,22.63442,16.870279776611326Q22.78611,16.929289776611327,22.92432,17.015259776611327Q23.06253,17.101229776611326,23.18252,17.21121977661133Q23.24589,17.26930977661133,23.30327,17.33333977661133Q23.36064,17.397359776611328,23.41147,17.466709776611328Q23.46229,17.536045776611328,23.50607,17.61003477661133Q23.54985,17.68402377661133,23.58617,17.761946776611328Q23.62249,17.839870776611328,23.651,17.920978776611328Q23.67951,18.00208777661133,23.69992,18.08559977661133Q23.72034,18.169111776611327,23.73248,18.25422277661133Q23.74461,18.33933377661133,23.748350000000002,18.425224776611326Q23.75208,18.511115606611327,23.74738,18.59695887661133Q23.74268,18.682801776611328,23.72958,18.76777077661133Q23.71649,18.85273977661133,23.69513,18.93601677661133Q23.67377,19.019292776611326,23.64435,19.10007477661133Q23.61493,19.18085677661133,23.57774,19.258365776611328Q23.54054,19.335875776611328,23.49593,19.409365776611327Q23.45132,19.482855776611327,23.39971,19.55161977661133Q23.34811,19.62037977661133,23.29002,19.68375977661133L21.22752,21.93375977661133Q21.10456,22.067889776611327,20.95664,22.17385977661133Q20.80872,22.27982977661133,20.64216,22.353099776611327Q20.4756,22.426369776611327,20.297530000000002,22.463799776611328Q20.11946,22.501239776611328,19.9375,22.501239776611328Q19.85153,22.501239776611328,19.76597,22.492809776611328Q19.680410000000002,22.48438977661133,19.59609,22.46760977661133Q19.51177,22.45083977661133,19.4295,22.425889776611328Q19.34723,22.400929776611328,19.2678,22.36802977661133Q19.18838,22.33512977661133,19.112560000000002,22.294599776611328Q19.03673,22.254079776611327,18.96525,22.206309776611327Q18.89377,22.158549776611327,18.82731,22.104009776611328Q18.76085,22.04946977661133,18.70006,21.988679776611328Q18.63927,21.927889776611327,18.58473,21.861429776611327Q18.53019,21.794969776611328,18.48243,21.723489776611327Q18.43466,21.651999776611326,18.39414,21.576179776611326Q18.35361,21.50035977661133,18.32071,21.420939776611327Q18.28781,21.34150977661133,18.26285,21.259239776611327Q18.2379,21.17696977661133,18.22113,21.092649776611328Q18.204349999999998,21.008329776611326,18.19593,20.92276977661133Q18.1875,20.837209776611328,18.1875,20.751239776611328Q18.1875,20.495919776611327,18.26045,20.251239776611328L16,20.251239776611328Q15.914028,20.251239776611328,15.82847,20.242809776611328Q15.742912,20.234389776611327,15.658592,20.21760977661133Q15.574272,20.20083977661133,15.492002,20.175889776611328Q15.409732,20.150929776611328,15.330304,20.11802977661133Q15.250876,20.08512977661133,15.175056,20.044599776611328Q15.099235,20.004079776611327,15.027752,19.956309776611327Q14.95627,19.908549776611327,14.88981,19.854009776611328Q14.82335,19.79946977661133,14.76256,19.738679776611328Q14.70177,19.677889776611327,14.64723,19.611429776611327Q14.59269,19.544969776611328,14.54493,19.47348777661133Q14.497160000000001,19.402004776611328,14.45664,19.326183776611327Q14.41611,19.250363776611326,14.38321,19.170935776611326Q14.35031,19.09150777661133,14.32535,19.00923777661133Q14.3004,18.926967776611328,14.28363,18.84264777661133Q14.26685,18.758327776611328,14.25843,18.67276977661133Q14.25,18.58721177661133,14.25,18.501239776611328Q14.25,18.415267776611326,14.25843,18.329709776611327Q14.26685,18.24415177661133,14.28363,18.159831776611327Q14.3004,18.07551177661133,14.32535,17.993241776611328Q14.35031,17.910971776611326,14.38321,17.83154377661133Q14.41611,17.75211577661133,14.45664,17.67629577661133Q14.497160000000001,17.60047477661133,14.54493,17.528991776611328Q14.59269,17.457509776611328,14.64723,17.39104977661133Q14.70177,17.32458977661133,14.76256,17.26379977661133Q14.82335,17.203009776611328,14.88981,17.14846977661133Q14.95627,17.09392977661133,15.027752,17.04616977661133Q15.099235,16.99839977661133,15.175056,16.95787977661133Q15.250876,16.917349776611328,15.330304,16.884449776611326Q15.409732,16.85154977661133,15.492002,16.82658977661133Q15.574272,16.801639776611328,15.658592,16.784869776611327Q15.742912,16.76808977661133,15.82847,16.75966977661133Q15.914028,16.751239776611328,16,16.751239776611328Z" fill-rule="evenodd" fill="#FFFFFF" fill-opacity="1"/></g></g><g><g><path d="M18.61537,13.758032776611328Q18.71046,13.654291776611329,18.76148,13.523131776611327Q18.8125,13.391972776611329,18.8125,13.251239776611328Q18.8125,13.177371276611328,18.798090000000002,13.104921776611327Q18.78368,13.032472776611328,18.75541,12.964226776611328Q18.72714,12.895981776611329,18.6861,12.834561776611329Q18.64506,12.773142776611328,18.59283,12.720909776611329Q18.5406,12.668676776611328,18.47918,12.627637776611328Q18.41776,12.586598776611329,18.34951,12.558329776611329Q18.28127,12.530061776611328,18.20882,12.515650776611327Q18.13637,12.501239776611328,18.0625,12.501239776611328Q17.90483,12.501239776611328,17.7605,12.564728776611329Q17.61618,12.628217776611327,17.50963,12.744446776611328L15.447134,14.994449776611328Q15.346327,15.104419776611328,15.295277,15.244599776611327Q15.244228,15.384769776611328,15.250708,15.533819776611328Q15.257188,15.682859776611329,15.320211,15.818079776611327Q15.383234999999999,15.953299776611328,15.493207,16.054109776611327Q15.596948,16.14919977661133,15.728108,16.200219776611327Q15.859267,16.251239776611328,16,16.251239776611328L22,16.251239776611328Q22.07387,16.251239776611328,22.14632,16.23682977661133Q22.21877,16.22241977661133,22.287010000000002,16.19414977661133Q22.35526,16.165879776611327,22.41668,16.124839776611328Q22.4781,16.08379977661133,22.53033,16.031569776611327Q22.58256,15.979339776611328,22.6236,15.917919776611328Q22.66464,15.856499776611328,22.69291,15.788249776611329Q22.72118,15.720009776611327,22.735590000000002,15.647559776611327Q22.75,15.575109776611328,22.75,15.501239776611328Q22.75,15.427369776611329,22.735590000000002,15.354919776611329Q22.72118,15.282469776611329,22.69291,15.214229776611328Q22.66464,15.145979776611329,22.6236,15.084559776611329Q22.58256,15.023139776611329,22.53033,14.970909776611329Q22.4781,14.918679776611327,22.41668,14.877639776611328Q22.35526,14.836599776611328,22.287010000000002,14.808329776611329Q22.21877,14.780059776611328,22.14632,14.765649776611328Q22.07387,14.751239776611328,22,14.751239776611328L17.70493,14.751239776611328L18.61537,13.758032776611328L18.61537,13.758032776611328Z" fill-rule="evenodd" fill="#2882FF" fill-opacity="1"/></g><g><path d="M19.38482,20.244239776611327L19.38463,20.24444977661133Q19.28954,20.348189776611328,19.23852,20.47934977661133Q19.1875,20.610509776611327,19.1875,20.751239776611328Q19.1875,20.825109776611328,19.201909999999998,20.897559776611327Q19.21632,20.970009776611327,19.24459,21.038249776611327Q19.27286,21.10649977661133,19.3139,21.167919776611328Q19.35494,21.22933977661133,19.40717,21.281569776611327Q19.4594,21.33379977661133,19.52082,21.374839776611328Q19.58224,21.415879776611327,19.65049,21.44414977661133Q19.71873,21.47241977661133,19.79118,21.48682977661133Q19.86363,21.501239776611328,19.9375,21.501239776611328Q20.09517,21.501239776611328,20.2395,21.437749776611327Q20.38382,21.37425977661133,20.49037,21.258029776611327L20.490560000000002,21.257829776611327L22.55287,19.008033776611327Q22.653669999999998,18.89806177661133,22.704720000000002,18.75788377661133Q22.75577,18.61770477661133,22.749290000000002,18.46866157661133Q22.74281,18.319617776611327,22.67979,18.18439977661133Q22.61677,18.049181776611327,22.50679,17.948373776611326Q22.40305,17.85327777661133,22.27189,17.80225877661133Q22.140729999999998,17.751239776611328,22,17.751239776611328L16,17.751239776611328Q15.9261315,17.751239776611328,15.853682,17.765650776611327Q15.781233,17.78006177661133,15.712987,17.808329776611327Q15.644742,17.83659877661133,15.583322,17.87763777661133Q15.521903,17.918676776611328,15.46967,17.97090977661133Q15.417437,18.02314277661133,15.376398,18.084561776611327Q15.335359,18.14598177661133,15.30709,18.214226776611326Q15.278822,18.28247277661133,15.264410999999999,18.354921776611327Q15.25,18.42737127661133,15.25,18.501239776611328Q15.25,18.575108276611328,15.264410999999999,18.64755777661133Q15.278822,18.720006776611328,15.30709,18.78825277661133Q15.335359,18.856497776611327,15.376398,18.91791777661133Q15.417437,18.979336776611326,15.46967,19.031569776611327Q15.521903,19.08380277661133,15.583322,19.124841776611326Q15.644742,19.165880776611328,15.712987,19.19414977661133Q15.781233,19.222417776611326,15.853682,19.23682877661133Q15.9261315,19.251239776611328,16,19.251239776611328L20.29507,19.251239776611328L19.38482,20.244239776611327Z" fill-rule="evenodd" fill="#2882FF" fill-opacity="1"/></g></g></g></svg>