<svg xmlns="http://www.w3.org/2000/svg" xmlns:xlink="http://www.w3.org/1999/xlink" fill="none" version="1.1" width="24" height="24" viewBox="0 0 24 24"><defs><clipPath id="master_svg0_69_12592"><rect x="0" y="0" width="24" height="24" rx="0"/></clipPath></defs><g clip-path="url(#master_svg0_69_12592)"><g><path d="M1.5,6L1.5,18Q1.5,19.2426,2.37868,20.1213Q3.2573600000000003,21,4.5,21L17.75,21Q18.8891,21,19.6945,20.1945Q20.5,19.3891,20.5,18.25L20.5,10Q20.5,8.75736,19.6213,7.87868Q18.7426,7,17.5,7L13.121,7Q12.8111,6.99973,12.5916,6.779999999999999Q12.5801,6.76844,12.5681,6.7574000000000005L9.47033,3.6596724Q8.8112,3,7.87903,3L4.5,3Q3.2573600000000003,3,2.37868,3.87868Q1.5,4.75736,1.5,6ZM4.5,19.5Q3,19.5,3,18L3,6Q3,4.5,4.5,4.5L7.87903,4.5Q8.18952,4.5,8.40967,4.720333L11.52967,7.84033Q11.54288,7.85355,11.55674,7.86609Q12.20731,8.4992,13.121,8.5L17.5,8.5Q19,8.5,19,10L19,18.25Q19,18.7678,18.6339,19.1339Q18.2678,19.5,17.75,19.5L4.5,19.5Z" fill-rule="evenodd" fill="#231F2E" fill-opacity="1"/></g><g><path d="M10,4.5L15,4.5Q16.34619,4.5,17.298099999999998,5.451903Q18.25,6.40381,18.25,7.75Q18.25,7.823869999999999,18.235590000000002,7.896319999999999Q18.22118,7.96877,18.192909999999998,8.03701Q18.16464,8.10526,18.1236,8.16668Q18.08256,8.2281,18.03033,8.28033Q17.9781,8.33256,17.91668,8.3736Q17.85526,8.41464,17.787010000000002,8.44291Q17.71877,8.47118,17.64632,8.48559Q17.57387,8.5,17.5,8.5Q17.42613,8.5,17.35368,8.48559Q17.28123,8.47118,17.212989999999998,8.44291Q17.14474,8.41464,17.08332,8.3736Q17.0219,8.33256,16.96967,8.28033Q16.91744,8.2281,16.8764,8.16668Q16.83536,8.10526,16.80709,8.03701Q16.77882,7.96877,16.764409999999998,7.896319999999999Q16.75,7.823869999999999,16.75,7.75Q16.75,7.02513,16.23744,6.51256Q15.72487,6,15,6L10,6Q9.9261315,6,9.853682,5.985589Q9.781233,5.971178,9.712987,5.94291Q9.644742,5.914641,9.583322,5.873602Q9.521903,5.832563,9.46967,5.78033Q9.417437,5.728097,9.376398,5.666678Q9.335359,5.605258,9.30709,5.537013Q9.278822,5.468767,9.264410999999999,5.396318Q9.25,5.3238685,9.25,5.25Q9.25,5.1761315,9.264410999999999,5.103682Q9.278822,5.031233,9.30709,4.962987Q9.335359,4.894742,9.376398,4.833322Q9.417437,4.771903,9.46967,4.71967Q9.521903,4.667437,9.583322,4.626398Q9.644742,4.585359,9.712987,4.55709Q9.781233,4.528822,9.853682,4.514411Q9.9261315,4.5,10,4.5Z" fill-rule="evenodd" fill="#231F2E" fill-opacity="1"/></g><g><g><path d="M12.98744,10.742338071289062Q13.10931,10.620458071289063,13.20507,10.477146071289063Q13.300830000000001,10.333834071289063,13.36679,10.174594071289063Q13.43275,10.015354071289062,13.466370000000001,9.846306071289062Q13.5,9.677258071289062,13.5,9.504898071289062Q13.5,9.418926071289063,13.49157,9.333368071289062Q13.48315,9.247810071289063,13.466370000000001,9.163490071289063Q13.4496,9.079170071289063,13.42465,8.996900071289062Q13.39969,8.914630071289062,13.36679,8.835202071289062Q13.33389,8.755774071289062,13.29336,8.679954071289062Q13.252839999999999,8.604133071289063,13.20507,8.532650071289062Q13.157309999999999,8.461168071289062,13.10277,8.394708071289063Q13.04823,8.328248071289062,12.98744,8.267458071289063Q12.92665,8.206668071289062,12.86019,8.152128071289063Q12.79373,8.097588071289062,12.722249999999999,8.049828071289063Q12.65076,8.002058071289063,12.57494,7.961538071289063Q12.49912,7.921008071289062,12.419699999999999,7.8881080712890626Q12.34027,7.855208071289063,12.258,7.830248071289063Q12.17573,7.805298071289062,12.09141,7.788528071289063Q12.00709,7.771748071289062,11.92153,7.763328071289062Q11.83597,7.7548980712890625,11.75,7.7548980712890625Q11.57764,7.7548980712890625,11.40859,7.788528071289063Q11.23954,7.822148071289062,11.0803,7.8881080712890626Q10.92106,7.954068071289063,10.777750000000001,8.049828071289063Q10.63444,8.145588071289062,10.51256,8.267458071289063L6.51256,12.267458071289063Q6.39069,12.389338071289062,6.29493,12.532648071289064Q6.1991700000000005,12.675958071289063,6.13321,12.835198071289062Q6.06725,12.994438071289062,6.0336300000000005,13.163488071289063Q6,13.332538071289063,6,13.504898071289062Q6,13.677258071289064,6.0336300000000005,13.846308071289062Q6.06725,14.015358071289063,6.13321,14.174598071289061Q6.1991700000000005,14.333838071289062,6.29493,14.477148071289061Q6.39069,14.620458071289063,6.51256,14.742338071289062L10.51256,18.742338071289062Q10.63444,18.864208071289063,10.777750000000001,18.95996807128906Q10.92106,19.05572807128906,11.0803,19.121688071289064Q11.23954,19.18764807128906,11.40859,19.22126807128906Q11.57764,19.254898071289062,11.75,19.254898071289062Q11.83597,19.254898071289062,11.92153,19.246468071289062Q12.00709,19.238048071289064,12.09141,19.22126807128906Q12.17573,19.204498071289063,12.258,19.179538071289063Q12.34027,19.154588071289062,12.419699999999999,19.121688071289064Q12.49912,19.088788071289063,12.57494,19.048258071289062Q12.65076,19.007728071289062,12.722249999999999,18.95996807128906Q12.79373,18.912208071289065,12.86019,18.857668071289062Q12.92665,18.803128071289063,12.98744,18.742338071289062Q13.04823,18.681548071289065,13.10277,18.615088071289062Q13.157309999999999,18.548628071289063,13.20507,18.477148071289065Q13.252839999999999,18.40565807128906,13.29336,18.32983807128906Q13.33389,18.25401807128906,13.36679,18.17459807128906Q13.39969,18.095168071289063,13.42464,18.01289807128906Q13.4496,17.930628071289064,13.466370000000001,17.846308071289062Q13.48315,17.76198807128906,13.49157,17.676428071289063Q13.5,17.590868071289062,13.5,17.504898071289062Q13.5,17.33253807128906,13.466370000000001,17.163488071289063Q13.43275,16.99443807128906,13.36679,16.835198071289064Q13.300830000000001,16.675958071289063,13.20507,16.532648071289064Q13.10931,16.38933807128906,12.98744,16.267458071289063L10.22487,13.504898071289062L12.98715,10.742618071289062L12.98744,10.742338071289062Z" fill-rule="evenodd" fill="#FFFFFF" fill-opacity="1"/></g><g><path d="M7.75,11.754898071289062L21.75,11.754898071289062Q21.836,11.754898071289062,21.9215,11.763328071289063Q22.0071,11.771748071289062,22.0914,11.788528071289063Q22.1757,11.805298071289062,22.258,11.830248071289063Q22.3403,11.855208071289063,22.4197,11.888108071289063Q22.4991,11.921008071289062,22.5749,11.961538071289063Q22.6508,12.002058071289063,22.7222,12.049828071289063Q22.7937,12.097588071289062,22.8602,12.152128071289063Q22.9266,12.206668071289062,22.9874,12.267458071289063Q23.0482,12.328248071289062,23.102800000000002,12.394708071289063Q23.1573,12.461168071289062,23.2051,12.532650071289062Q23.2528,12.604133071289063,23.2934,12.679954071289062Q23.3339,12.755774071289062,23.366799999999998,12.835202071289062Q23.3997,12.914630071289062,23.424599999999998,12.996900071289062Q23.4496,13.079170071289063,23.4664,13.163490071289063Q23.4831,13.247810071289063,23.4916,13.333368071289062Q23.5,13.418926071289063,23.5,13.504898071289062Q23.5,13.590870071289062,23.4916,13.676428071289063Q23.4831,13.761986071289062,23.4664,13.846306071289062Q23.4496,13.930626071289062,23.424599999999998,14.012896071289063Q23.3997,14.095166071289063,23.366799999999998,14.174594071289063Q23.3339,14.254022071289063,23.2934,14.329842071289063Q23.2528,14.405663071289062,23.2051,14.477146071289063Q23.1573,14.548628071289063,23.102800000000002,14.615088071289062Q23.0482,14.681548071289063,22.9874,14.742338071289062Q22.9266,14.803128071289063,22.8602,14.857668071289062Q22.7937,14.912208071289063,22.7222,14.959968071289062Q22.6508,15.007738071289062,22.5749,15.048258071289062Q22.4991,15.088788071289063,22.4197,15.121688071289062Q22.3403,15.154588071289062,22.258,15.179548071289062Q22.1757,15.204498071289063,22.0914,15.221268071289062Q22.0071,15.238048071289063,21.9215,15.246468071289062Q21.836,15.254898071289062,21.75,15.254898071289062L7.75,15.254898071289062Q7.664028,15.254898071289062,7.57847,15.246468071289062Q7.4929120000000005,15.238048071289063,7.408592,15.221268071289062Q7.324272,15.204498071289063,7.242002,15.179548071289062Q7.159732,15.154588071289062,7.080304,15.121688071289062Q7.000876,15.088788071289063,6.925056,15.048258071289062Q6.849235,15.007738071289062,6.7777519999999996,14.959968071289062Q6.70627,14.912208071289063,6.63981,14.857668071289062Q6.57335,14.803128071289063,6.51256,14.742338071289062Q6.45177,14.681548071289063,6.39723,14.615088071289062Q6.34269,14.548628071289063,6.29493,14.477146071289063Q6.24716,14.405663071289062,6.20664,14.329842071289063Q6.16611,14.254022071289063,6.13321,14.174594071289063Q6.10031,14.095166071289063,6.07535,14.012896071289063Q6.0504,13.930626071289062,6.0336300000000005,13.846306071289062Q6.01685,13.761986071289062,6.00843,13.676428071289063Q6,13.590870071289062,6,13.504898071289062Q6,13.418926071289063,6.00843,13.333368071289062Q6.01685,13.247810071289063,6.0336300000000005,13.163490071289063Q6.0504,13.079170071289063,6.07535,12.996900071289062Q6.10031,12.914630071289062,6.13321,12.835202071289062Q6.16611,12.755774071289062,6.20664,12.679954071289062Q6.24716,12.604133071289063,6.29493,12.532650071289062Q6.34269,12.461168071289062,6.39723,12.394708071289063Q6.45177,12.328248071289062,6.51256,12.267458071289063Q6.57335,12.206668071289062,6.63981,12.152128071289063Q6.70627,12.097588071289062,6.7777519999999996,12.049828071289063Q6.849235,12.002058071289063,6.925056,11.961538071289063Q7.000876,11.921008071289062,7.080304,11.888108071289063Q7.159732,11.855208071289063,7.242002,11.830248071289063Q7.324272,11.805298071289062,7.408592,11.788528071289063Q7.4929120000000005,11.771748071289062,7.57847,11.763328071289063Q7.664028,11.754898071289062,7.75,11.754898071289062Z" fill-rule="evenodd" fill="#FFFFFF" fill-opacity="1"/></g></g><g><g><path d="M12.28033,10.035228071289062Q12.385819999999999,9.929739071289063,12.442910000000001,9.791911071289062Q12.5,9.654082071289062,12.5,9.504898071289062Q12.5,9.431029571289063,12.48559,9.358580071289062Q12.47118,9.286131071289063,12.442910000000001,9.217885071289063Q12.41464,9.149640071289063,12.3736,9.088220071289063Q12.33256,9.026801071289063,12.28033,8.974568071289063Q12.228100000000001,8.922335071289062,12.16668,8.881296071289063Q12.105260000000001,8.840257071289063,12.03701,8.811988071289063Q11.96877,8.783720071289062,11.89632,8.769309071289062Q11.82387,8.754898071289062,11.75,8.754898071289062Q11.60082,8.754898071289062,11.46299,8.811988071289063Q11.32516,8.869079071289063,11.21967,8.974568071289063L7.21967,12.974568071289063Q7.167437,13.026798071289063,7.126398,13.088218071289063Q7.085359,13.149638071289063,7.05709,13.217888071289062Q7.028822,13.286128071289063,7.014411,13.358578071289063Q7,13.431028071289063,7,13.504898071289062Q7,13.578768071289062,7.014411,13.651218071289062Q7.028822,13.723668071289062,7.05709,13.791908071289063Q7.085359,13.860158071289064,7.126398,13.921578071289062Q7.167437,13.982998071289064,7.21967,14.035228071289062L11.21928,18.034838071289062L11.21967,18.035228071289062Q11.32516,18.140718071289065,11.46299,18.19780807128906Q11.60082,18.254898071289062,11.75,18.254898071289062Q11.82387,18.254898071289062,11.89632,18.240488071289064Q11.96877,18.226078071289063,12.03701,18.19780807128906Q12.105260000000001,18.16953807128906,12.16668,18.128498071289062Q12.228100000000001,18.087458071289063,12.28033,18.035228071289062Q12.33256,17.98299807128906,12.3736,17.921578071289062Q12.41464,17.860158071289064,12.442910000000001,17.791908071289065Q12.47118,17.72366807128906,12.48559,17.651218071289062Q12.5,17.578768071289062,12.5,17.504898071289062Q12.5,17.35571807128906,12.442910000000001,17.21788807128906Q12.385819999999999,17.080058071289063,12.28033,16.974568071289063L8.81066,13.504898071289062L12.28033,10.035228071289062L12.28033,10.035228071289062Z" fill-rule="evenodd" fill="#2882FF" fill-opacity="1"/></g><g><path d="M7.75,12.754898071289062L21.75,12.754898071289062Q21.823900000000002,12.754898071289062,21.8963,12.769309071289062Q21.9688,12.783720071289062,22.037,12.811988071289063Q22.1053,12.840257071289063,22.1667,12.881296071289063Q22.228099999999998,12.922335071289062,22.2803,12.974568071289063Q22.3326,13.026801071289063,22.3736,13.088220071289063Q22.4146,13.149640071289063,22.4429,13.217885071289063Q22.4712,13.286131071289063,22.485599999999998,13.358580071289062Q22.5,13.431029571289063,22.5,13.504898071289062Q22.5,13.578766571289062,22.485599999999998,13.651216071289063Q22.4712,13.723665071289062,22.4429,13.791911071289062Q22.4146,13.860156071289062,22.3736,13.921576071289062Q22.3326,13.982995071289062,22.2803,14.035228071289062Q22.228099999999998,14.087461071289063,22.1667,14.128500071289062Q22.1053,14.169539071289062,22.037,14.197808071289062Q21.9688,14.226076071289063,21.8963,14.240487071289063Q21.823900000000002,14.254898071289062,21.75,14.254898071289062L7.75,14.254898071289062Q7.6761315,14.254898071289062,7.603682,14.240487071289063Q7.531233,14.226076071289063,7.462987,14.197808071289062Q7.394742,14.169539071289062,7.333322,14.128500071289062Q7.271903,14.087461071289063,7.21967,14.035228071289062Q7.167437,13.982995071289062,7.126398,13.921576071289062Q7.085359,13.860156071289062,7.05709,13.791911071289062Q7.028822,13.723665071289062,7.014411,13.651216071289063Q7,13.578766571289062,7,13.504898071289062Q7,13.431029571289063,7.014411,13.358580071289062Q7.028822,13.286131071289063,7.05709,13.217885071289063Q7.085359,13.149640071289063,7.126398,13.088220071289063Q7.167437,13.026801071289063,7.21967,12.974568071289063Q7.271903,12.922335071289062,7.333322,12.881296071289063Q7.394742,12.840257071289063,7.462987,12.811988071289063Q7.531233,12.783720071289062,7.603682,12.769309071289062Q7.6761315,12.754898071289062,7.75,12.754898071289062Z" fill-rule="evenodd" fill="#2882FF" fill-opacity="1"/></g></g></g></svg>