<svg xmlns="http://www.w3.org/2000/svg" xmlns:xlink="http://www.w3.org/1999/xlink" fill="none" version="1.1" width="24" height="24" viewBox="0 0 24 24"><defs><clipPath id="master_svg0_69_00823"><rect x="0" y="0" width="24" height="24" rx="0"/></clipPath></defs><g clip-path="url(#master_svg0_69_00823)"><g><path d="M20.8713,20.1213Q21.75,19.2426,21.75,18L21.75,6Q21.75,4.75736,20.8713,3.87868Q19.9926,3,18.75,3L5.25,3Q4.00736,3,3.128679,3.87868Q2.25,4.75736,2.25,6L2.25,18Q2.25,19.2426,3.12868,20.1213Q4.00736,21,5.25,21L18.75,21Q19.9926,21,20.8713,20.1213ZM20.25,6L20.25,18Q20.25,19.5,18.75,19.5L5.25,19.5Q4.62868,19.5,4.18934,19.0607Q3.75,18.621299999999998,3.75,18L3.75,6Q3.75,4.5,5.25,4.5L18.75,4.5Q20.25,4.5,20.25,6Z" fill-rule="evenodd" fill="#231F2E" fill-opacity="1"/></g><g><path d="M7.2,6.9L10.2,9.15Q10.28571,9.21429,10.35,9.3Q10.43951,9.41935,10.47654,9.56386Q10.51356,9.70838,10.49246,9.856069999999999Q10.47136,10.00375,10.39536,10.13212Q10.31935,10.26049,10.2,10.35L7.20028,12.599789999999999L7.2,12.6Q7.102633,12.67303,6.987171,12.71151Q6.871708,12.75,6.75,12.75Q6.6761315,12.75,6.603682,12.73559Q6.531233,12.72118,6.462987,12.692910000000001Q6.394742,12.66464,6.333322,12.6236Q6.271903,12.58256,6.21967,12.53033Q6.167437,12.478100000000001,6.126398,12.41668Q6.085359,12.355260000000001,6.05709,12.28701Q6.028822,12.21877,6.014411,12.14632Q6,12.07387,6,12Q6,11.91267,6.020063,11.82769Q6.040127,11.7427,6.07918,11.66459Q6.118233,11.58648,6.174186,11.51944Q6.2301400000000005,11.4524,6.3,11.4L6.30028,11.39979L8.5,9.75L6.3,8.1Q6.2301400000000005,8.047605,6.174186,7.980561Q6.118233,7.9135159999999996,6.07918,7.8354099999999995Q6.040127,7.7573039999999995,6.020063,7.672315Q6,7.5873254,6,7.5Q6,7.4261315,6.014411,7.353682Q6.028822,7.281233,6.05709,7.212987Q6.085359,7.144742,6.126398,7.083322Q6.167437,7.021903,6.21967,6.96967Q6.271903,6.917437,6.333322,6.876398Q6.394742,6.835359,6.462987,6.80709Q6.531233,6.778822,6.603682,6.764411Q6.6761315,6.75,6.75,6.75Q6.871708,6.75,6.987171,6.788487Q7.102633,6.826975,7.2,6.9ZM11.25,11.25L14.25,11.25Q14.32387,11.25,14.39632,11.26441Q14.46877,11.27882,14.53701,11.30709Q14.605260000000001,11.33536,14.66668,11.3764Q14.728100000000001,11.41744,14.78033,11.46967Q14.83256,11.521899999999999,14.8736,11.58332Q14.91464,11.644739999999999,14.94291,11.71299Q14.97118,11.78123,14.98559,11.85368Q15,11.92613,15,12Q15,12.07387,14.98559,12.14632Q14.97118,12.21877,14.94291,12.28701Q14.91464,12.355260000000001,14.8736,12.41668Q14.83256,12.478100000000001,14.78033,12.53033Q14.728100000000001,12.58256,14.66668,12.6236Q14.605260000000001,12.66464,14.53701,12.692910000000001Q14.46877,12.72118,14.39632,12.73559Q14.32387,12.75,14.25,12.75L11.25,12.75Q11.17613,12.75,11.10368,12.73559Q11.03123,12.72118,10.96299,12.692910000000001Q10.894739999999999,12.66464,10.83332,12.6236Q10.771899999999999,12.58256,10.71967,12.53033Q10.66744,12.478100000000001,10.6264,12.41668Q10.58536,12.355260000000001,10.55709,12.28701Q10.52882,12.21877,10.51441,12.14632Q10.5,12.07387,10.5,12Q10.5,11.92613,10.51441,11.85368Q10.52882,11.78123,10.55709,11.71299Q10.58536,11.644739999999999,10.6264,11.58332Q10.66744,11.521899999999999,10.71967,11.46967Q10.771899999999999,11.41744,10.83332,11.3764Q10.894739999999999,11.33536,10.96299,11.30709Q11.03123,11.27882,11.10368,11.26441Q11.17613,11.25,11.25,11.25Z" fill-rule="evenodd" fill="#2882FF" fill-opacity="1"/></g></g></svg>