<svg xmlns="http://www.w3.org/2000/svg" xmlns:xlink="http://www.w3.org/1999/xlink" fill="none" version="1.1" width="24" height="24" viewBox="0 0 24 24"><defs><clipPath id="master_svg0_69_01150"><rect x="0" y="0" width="24" height="24" rx="0"/></clipPath></defs><g clip-path="url(#master_svg0_69_01150)"><g><path d="M13.25,3Q13.25,2.9261315,13.264410999999999,2.853682Q13.278822,2.781233,13.30709,2.712987Q13.335359,2.644742,13.376398,2.583322Q13.417437,2.521903,13.46967,2.46967Q13.521903,2.417437,13.583322,2.376398Q13.644742,2.335359,13.712987,2.30709Q13.781233,2.278822,13.853682,2.264411Q13.9261315,2.25,14,2.25Q14.0738685,2.25,14.146318,2.264411Q14.218767,2.278822,14.287013,2.30709Q14.355258,2.335359,14.416678,2.376398Q14.478097,2.417437,14.53033,2.46967Q14.582563,2.521903,14.623602,2.583322Q14.664641,2.644742,14.69291,2.712987Q14.721178,2.781233,14.735589000000001,2.853682Q14.75,2.9261315,14.75,3L14.75,7Q14.75,7.10355,14.823223,7.17678Q14.896447,7.25,15,7.25L19,7.25Q19.07387,7.25,19.14632,7.26441Q19.21877,7.27882,19.287010000000002,7.30709Q19.35526,7.33536,19.41668,7.3764Q19.4781,7.41744,19.53033,7.46967Q19.58256,7.5219,19.6236,7.58332Q19.66464,7.64474,19.69291,7.71299Q19.72118,7.78123,19.735590000000002,7.85368Q19.75,7.92613,19.75,8Q19.75,8.07387,19.735590000000002,8.14632Q19.72118,8.21877,19.69291,8.28701Q19.66464,8.355260000000001,19.6236,8.41668Q19.58256,8.478100000000001,19.53033,8.53033Q19.4781,8.58256,19.41668,8.6236Q19.35526,8.66464,19.287010000000002,8.692910000000001Q19.21877,8.72118,19.14632,8.73559Q19.07387,8.75,19,8.75L15,8.75Q14.275126,8.75,13.762563,8.23744Q13.25,7.72487,13.25,7L13.25,3Z" fill-rule="evenodd" fill="#231F2E" fill-opacity="1"/></g><g><path d="M18.944499999999998,20.9445Q19.75,20.1391,19.75,19L19.75,8Q19.75,7.85082,19.6929,7.71299Q19.6358,7.57516,19.5303,7.46967L14.53033,2.46967Q14.42484,2.364181,14.28701,2.30709Q14.14919,2.25,14,2.25L7,2.25Q5.860913,2.25,5.0554564,3.0554564Q4.25,3.860913,4.25,5L4.25,19Q4.25,20.1391,5.0554563,20.9445Q5.860912,21.75,7,21.75L17,21.75Q18.1391,21.75,18.944499999999998,20.9445ZM18.25,8.31066L18.25,19Q18.25,19.5178,17.8839,19.8839Q17.5178,20.25,17,20.25L7,20.25Q6.4822299999999995,20.25,6.1161200000000004,19.8839Q5.75,19.5178,5.75,19L5.75,5Q5.75,4.4822299999999995,6.1161200000000004,4.1161200000000004Q6.4822299999999995,3.75,7,3.75L13.68934,3.75L18.25,8.31066Z" fill-rule="evenodd" fill="#231F2E" fill-opacity="1"/></g><g><path d="M7.71002197265625,11.75L11.28003197265625,11.75Q11.35390197265625,11.75,11.42634197265625,11.764410999999999Q11.49879197265625,11.778822,11.56704197265625,11.80709Q11.63529197265625,11.835359,11.69670197265625,11.876398Q11.75812197265625,11.917437,11.81036197265625,11.96967Q11.86259197265625,12.021903,11.90363197265625,12.083322Q11.94467197265625,12.144742,11.972941972656251,12.212987Q12.00120197265625,12.281233,12.01562197265625,12.353682Q12.03003197265625,12.4261315,12.03003197265625,12.5Q12.03003197265625,12.5738685,12.01562197265625,12.646318Q12.00120197265625,12.718767,11.972941972656251,12.787013Q11.94467197265625,12.855258,11.90363197265625,12.916678Q11.86259197265625,12.978097,11.81036197265625,13.03033Q11.75812197265625,13.082563,11.69670197265625,13.123602Q11.63529197265625,13.164641,11.56704197265625,13.19291Q11.49879197265625,13.221178,11.42634197265625,13.235589000000001Q11.35390197265625,13.25,11.28003197265625,13.25L10.25000197265625,13.25L10.25000197265625,17.5Q10.25000197265625,17.57387,10.23559197265625,17.64632Q10.22118197265625,17.71877,10.19291197265625,17.787010000000002Q10.16464197265625,17.85526,10.12360197265625,17.91668Q10.08256197265625,17.9781,10.03033197265625,18.03033Q9.97809197265625,18.08256,9.91668197265625,18.1236Q9.85526197265625,18.16464,9.78701197265625,18.19291Q9.71876197265625,18.22118,9.64632197265625,18.235590000000002Q9.57387197265625,18.25,9.50000197265625,18.25Q9.42613197265625,18.25,9.35368197265625,18.235590000000002Q9.28123197265625,18.22118,9.21299197265625,18.19291Q9.14474197265625,18.16464,9.08332197265625,18.1236Q9.02190197265625,18.08256,8.96967197265625,18.03033Q8.91743197265625,17.9781,8.87640197265625,17.91668Q8.83536197265625,17.85526,8.80709197265625,17.787010000000002Q8.77882197265625,17.71877,8.76441197265625,17.64632Q8.75000197265625,17.57387,8.75000197265625,17.5L8.75000197265625,13.25L7.71002197265625,13.25Q7.63615347265625,13.25,7.56370397265625,13.235589000000001Q7.49125497265625,13.221178,7.42300897265625,13.19291Q7.35476397265625,13.164641,7.29334397265625,13.123602Q7.23192497265625,13.082563,7.17969197265625,13.03033Q7.12745897265625,12.978097,7.08641997265625,12.916678Q7.04538097265625,12.855258,7.01711197265625,12.787013Q6.98884397265625,12.718767,6.97443297265625,12.646318Q6.96002197265625,12.5738685,6.96002197265625,12.5Q6.96002197265625,12.4261315,6.97443297265625,12.353682Q6.98884397265625,12.281233,7.01711197265625,12.212987Q7.04538097265625,12.144742,7.08641997265625,12.083322Q7.12745897265625,12.021903,7.17969197265625,11.96967Q7.23192497265625,11.917437,7.29334397265625,11.876398Q7.35476397265625,11.835359,7.42300897265625,11.80709Q7.49125497265625,11.778822,7.56370397265625,11.764410999999999Q7.63615347265625,11.75,7.71002197265625,11.75Z" fill-rule="evenodd" fill="#2882FF" fill-opacity="1" style="mix-blend-mode:passthrough"/></g><g><path d="M12.5,16.749000549316406L15.5,16.749000549316406Q15.57387,16.749000549316406,15.64632,16.763411549316405Q15.71877,16.777822549316408,15.78701,16.806090549316405Q15.85526,16.834359549316407,15.91668,16.875398549316408Q15.9781,16.916437549316406,16.03033,16.968670549316407Q16.08256,17.020903549316408,16.1236,17.082322549316405Q16.16464,17.143742549316407,16.19291,17.211987549316405Q16.22118,17.280233549316407,16.235590000000002,17.352682549316405Q16.25,17.425132049316407,16.25,17.499000549316406Q16.25,17.572869049316406,16.235590000000002,17.645318549316407Q16.22118,17.717767549316406,16.19291,17.786013549316408Q16.16464,17.854258549316405,16.1236,17.915678549316407Q16.08256,17.977097549316404,16.03033,18.029330549316406Q15.9781,18.081563549316407,15.91668,18.122602549316404Q15.85526,18.163641549316406,15.78701,18.191910549316407Q15.71877,18.220178549316405,15.64632,18.234589549316407Q15.57387,18.249000549316406,15.5,18.249000549316406L12.5,18.249000549316406Q12.4261315,18.249000549316406,12.353682,18.234589549316407Q12.281233,18.220178549316405,12.212987,18.191910549316407Q12.144742,18.163641549316406,12.083322,18.122602549316404Q12.021903,18.081563549316407,11.96967,18.029330549316406Q11.917437,17.977097549316404,11.876398,17.915678549316407Q11.835359,17.854258549316405,11.80709,17.786013549316408Q11.778822,17.717767549316406,11.764410999999999,17.645318549316407Q11.75,17.572869049316406,11.75,17.499000549316406Q11.75,17.425132049316407,11.764410999999999,17.352682549316405Q11.778822,17.280233549316407,11.80709,17.211987549316405Q11.835359,17.143742549316407,11.876398,17.082322549316405Q11.917437,17.020903549316408,11.96967,16.968670549316407Q12.021903,16.916437549316406,12.083322,16.875398549316408Q12.144742,16.834359549316407,12.212987,16.806090549316405Q12.281233,16.777822549316408,12.353682,16.763411549316405Q12.4261315,16.749000549316406,12.5,16.749000549316406Z" fill-rule="evenodd" fill="#2882FF" fill-opacity="1"/></g></g></svg>