<svg xmlns="http://www.w3.org/2000/svg" xmlns:xlink="http://www.w3.org/1999/xlink" fill="none" version="1.1" width="24" height="24" viewBox="0 0 24 24"><defs><clipPath id="master_svg0_74_12617"><rect x="0" y="0" width="24" height="24" rx="0"/></clipPath></defs><g clip-path="url(#master_svg0_74_12617)"><g></g><g><path d="M4,5.25L20,5.25Q20.0739,5.25,20.1463,5.264411Q20.2188,5.278822,20.287,5.30709Q20.3553,5.335359,20.4167,5.376398Q20.4781,5.417437,20.5303,5.46967Q20.5826,5.521903,20.6236,5.583322Q20.6646,5.644742,20.6929,5.712987Q20.7212,5.781233,20.7356,5.853682Q20.75,5.9261315,20.75,6Q20.75,6.0738685,20.7356,6.146318Q20.7212,6.218767,20.6929,6.287013Q20.6646,6.355258,20.6236,6.416678Q20.5826,6.478097,20.5303,6.53033Q20.4781,6.582563,20.4167,6.623602Q20.3553,6.664641,20.287,6.69291Q20.2188,6.721178,20.1463,6.735589Q20.0739,6.75,20,6.75L4,6.75Q3.9261315,6.75,3.853682,6.735589Q3.781233,6.721178,3.712987,6.69291Q3.644742,6.664641,3.583322,6.623602Q3.521903,6.582563,3.46967,6.53033Q3.417437,6.478097,3.376398,6.416678Q3.335359,6.355258,3.30709,6.287013Q3.278822,6.218767,3.264411,6.146318Q3.25,6.0738685,3.25,6Q3.25,5.9261315,3.264411,5.853682Q3.278822,5.781233,3.30709,5.712987Q3.335359,5.644742,3.376398,5.583322Q3.417437,5.521903,3.46967,5.46967Q3.521903,5.417437,3.583322,5.376398Q3.644742,5.335359,3.712987,5.30709Q3.781233,5.278822,3.853682,5.264411Q3.9261315,5.25,4,5.25Z" fill-rule="evenodd" fill="#231F2E" fill-opacity="1"/></g><g><path d="M4,11.25L20,11.25Q20.0739,11.25,20.1463,11.264410999999999Q20.2188,11.278822,20.287,11.30709Q20.3553,11.335359,20.4167,11.376398Q20.4781,11.417437,20.5303,11.46967Q20.5826,11.521903,20.6236,11.583322Q20.6646,11.644742,20.6929,11.712987Q20.7212,11.781233,20.7356,11.853682Q20.75,11.9261315,20.75,12Q20.75,12.0738685,20.7356,12.146318Q20.7212,12.218767,20.6929,12.287013Q20.6646,12.355258,20.6236,12.416678Q20.5826,12.478097,20.5303,12.53033Q20.4781,12.582563,20.4167,12.623602Q20.3553,12.664641,20.287,12.69291Q20.2188,12.721178,20.1463,12.735589000000001Q20.0739,12.75,20,12.75L4,12.75Q3.9261315,12.75,3.853682,12.735589000000001Q3.781233,12.721178,3.712987,12.69291Q3.644742,12.664641,3.583322,12.623602Q3.521903,12.582563,3.46967,12.53033Q3.417437,12.478097,3.376398,12.416678Q3.335359,12.355258,3.30709,12.287013Q3.278822,12.218767,3.264411,12.146318Q3.25,12.0738685,3.25,12Q3.25,11.9261315,3.264411,11.853682Q3.278822,11.781233,3.30709,11.712987Q3.335359,11.644742,3.376398,11.583322Q3.417437,11.521903,3.46967,11.46967Q3.521903,11.417437,3.583322,11.376398Q3.644742,11.335359,3.712987,11.30709Q3.781233,11.278822,3.853682,11.264410999999999Q3.9261315,11.25,4,11.25Z" fill-rule="evenodd" fill="#231F2E" fill-opacity="1"/></g><g><path d="M4,17.25L12,17.25Q12.07387,17.25,12.14632,17.264411Q12.21877,17.278822,12.28701,17.30709Q12.35526,17.335359,12.41668,17.376398000000002Q12.4781,17.417437,12.53033,17.46967Q12.58256,17.521903000000002,12.6236,17.583322Q12.66464,17.644742,12.69291,17.712987Q12.72118,17.781233,12.73559,17.853682Q12.75,17.9261315,12.75,18Q12.75,18.0738685,12.73559,18.146318Q12.72118,18.218767,12.69291,18.287013Q12.66464,18.355258,12.6236,18.416678Q12.58256,18.478096999999998,12.53033,18.53033Q12.4781,18.582563,12.41668,18.623601999999998Q12.35526,18.664641,12.28701,18.69291Q12.21877,18.721178,12.14632,18.735589Q12.07387,18.75,12,18.75L4,18.75Q3.9261315,18.75,3.853682,18.735589Q3.781233,18.721178,3.712987,18.69291Q3.644742,18.664641,3.583322,18.623601999999998Q3.521903,18.582563,3.46967,18.53033Q3.417437,18.478096999999998,3.376398,18.416678Q3.335359,18.355258,3.30709,18.287013Q3.278822,18.218767,3.264411,18.146318Q3.25,18.0738685,3.25,18Q3.25,17.9261315,3.264411,17.853682Q3.278822,17.781233,3.30709,17.712987Q3.335359,17.644742,3.376398,17.583322Q3.417437,17.521903000000002,3.46967,17.46967Q3.521903,17.417437,3.583322,17.376398000000002Q3.644742,17.335359,3.712987,17.30709Q3.781233,17.278822,3.853682,17.264411Q3.9261315,17.25,4,17.25Z" fill-rule="evenodd" fill="#231F2E" fill-opacity="1"/></g><g><path d="M20.28076615234375,15.0000000417233C20.65456615234375,14.999883717,20.96523615234375,15.282213,20.99327615234375,15.6475L20.99505615234375,15.7L20.99505615234375,16.4C20.99544615234375,17.25997,19.82118615234375,18.05711,19.06898615234375,18.5C19.79168615234375,18.92535,20.96098615234375,19.67925,20.99327615234375,20.5048L20.99505615234375,20.6L20.99505615234375,21.3C20.99517615234375,21.66632,20.70708615234375,21.97078,20.33434615234375,21.99825L20.28076615234375,22L16.70934215234375,22C16.33554715234375,22.00012,16.02487665234375,21.71779,15.99684208234375,21.3525L15.99505632264275,21.3L15.99505632264275,20.6C15.99466327234375,19.74003,17.16892615234375,18.94289,17.92112615234375,18.5C17.19842615234375,18.07465,16.02912245234375,17.32075,15.99684190234375,16.4952L15.99505615234375,16.4L15.99505615234375,15.7C15.99493796534375,15.333681,16.28302915234375,15.0292238,16.65577015234375,15.00175008L16.70934215234375,15.0000000417233L20.28076615234375,15.0000000417233Z" fill="#2882FF" fill-opacity="1"/></g></g></svg>