<svg xmlns="http://www.w3.org/2000/svg" xmlns:xlink="http://www.w3.org/1999/xlink" fill="none" version="1.1" width="24" height="24" viewBox="0 0 24 24"><defs><clipPath id="master_svg0_69_13453"><rect x="0" y="0" width="24" height="24" rx="0"/></clipPath></defs><g clip-path="url(#master_svg0_69_13453)"><g><path d="M20.75,11.99831L20.75,12Q20.75,12.07387,20.7644,12.14632Q20.7788,12.21877,20.8071,12.28701Q20.8354,12.355260000000001,20.8764,12.41668Q20.9174,12.478100000000001,20.9697,12.53033Q21.0219,12.58256,21.0833,12.6236Q21.1447,12.66464,21.213,12.69291Q21.2812,12.72118,21.3537,12.73559Q21.4261,12.75,21.5,12.75Q21.5739,12.75,21.6463,12.73559Q21.7188,12.72118,21.787,12.69291Q21.8553,12.66464,21.9167,12.6236Q21.9781,12.58256,22.0303,12.53033Q22.0826,12.478100000000001,22.1236,12.41668Q22.1646,12.355260000000001,22.1929,12.28701Q22.2212,12.21877,22.2356,12.14632Q22.25,12.07387,22.25,12L22.25,7.5Q22.25,5.9467,21.1517,4.84835Q20.0533,3.75,18.5,3.75L5.5,3.75Q3.9467,3.75,2.848349,4.84835Q1.75,5.9467,1.75,7.5L1.75,16.5Q1.75,18.0533,2.84835,19.151600000000002Q3.9467,20.25,5.5,20.25L12,20.25Q12.07387,20.25,12.14632,20.235599999999998Q12.21877,20.2212,12.28701,20.1929Q12.35526,20.1646,12.41668,20.1236Q12.4781,20.0826,12.5303,20.0303Q12.5826,19.978099999999998,12.6236,19.9167Q12.6646,19.8553,12.6929,19.787Q12.7212,19.7188,12.7356,19.6463Q12.75,19.573900000000002,12.75,19.5Q12.75,19.426099999999998,12.7356,19.3537Q12.7212,19.2812,12.6929,19.213Q12.6646,19.1447,12.6236,19.0833Q12.5826,19.021900000000002,12.5303,18.9697Q12.4781,18.9174,12.41668,18.8764Q12.35526,18.8354,12.28701,18.8071Q12.21877,18.7788,12.14632,18.764400000000002Q12.07387,18.75,12,18.75L5.5,18.75Q4.568020000000001,18.75,3.9090100000000003,18.091Q3.25,17.432000000000002,3.25,16.5L3.25,7.5Q3.25,6.568020000000001,3.9090100000000003,5.90901Q4.568020000000001,5.25,5.5,5.25L18.5,5.25Q19.432,5.25,20.091,5.90901Q20.75,6.568020000000001,20.75,7.5L20.75,11.99831Z" fill-rule="evenodd" fill="#231F2E" fill-opacity="1"/></g><g><path d="M15.8255279296875,12.832837329101562C15.4904979296875,12.924427329101562,15.153807929687499,12.970767329101562,14.8247079296875,12.970767329101562C12.731737929687501,12.970767329101562,11.0289779296875,11.268147329101563,11.0289779296875,9.175187329101563C11.0289779296875,8.846493329101563,11.0754679296875,8.509665329101562,11.1670479296875,8.174355329101562C11.1801579296875,8.126493329101562,11.1664979296875,8.075458529101562,11.1314679296875,8.040424029101562C11.0962879296875,8.005527499101563,11.0452579296875,7.992148199101562,10.9975379296875,8.004837859101562C9.2325679296875,8.487045329101562,7.9998779296875,10.100567329101562,7.9998779296875,11.928557329101562C7.9998779296875,14.173527329101564,9.8262179296875,16.000007329101564,12.071327929687499,16.000007329101564C13.8994679296875,16.000007329101564,15.5128479296875,14.767187329101564,15.9950479296875,13.002217329101562C16.0081579296875,12.954357329101562,15.994497929687501,12.903317329101561,15.9594679296875,12.868287329101562C15.9242879296875,12.833387329101562,15.873257929687501,12.819877329101562,15.8255279296875,12.832837329101562Z" fill="#2882FF" fill-opacity="1"/></g><g><path d="M14.4653642578125,8.952015258789062C14.0717142578125,8.952015258789062,13.7513642578125,8.631667258789063,13.7513642578125,8.238015258789062C13.7513642578125,8.106639258789063,13.6449742578125,8.000015258789062,13.5133642578125,8.000015258789062C13.3817542578125,8.000015258789062,13.2753642578125,8.106639258789063,13.2753642578125,8.238015258789062C13.2753642578125,8.631667258789063,12.9550162578125,8.952015258789062,12.5613642578125,8.952015258789062C12.4297502578125,8.952015258789062,12.3233642578125,9.058635258789062,12.3233642578125,9.190015258789062C12.3233642578125,9.321395258789062,12.4297502578125,9.428015258789063,12.5613642578125,9.428015258789063C12.9550162578125,9.428015258789063,13.2753642578125,9.748365258789063,13.2753642578125,10.142015258789062C13.2753642578125,10.273395258789062,13.3817542578125,10.380015258789062,13.5133642578125,10.380015258789062C13.6449742578125,10.380015258789062,13.7513642578125,10.273395258789062,13.7513642578125,10.142015258789062C13.7513642578125,9.748365258789063,14.0717142578125,9.428015258789063,14.4653642578125,9.428015258789063C14.5969742578125,9.428015258789063,14.703364257812499,9.321395258789062,14.703364257812499,9.190015258789062C14.703364257812499,9.058635258789062,14.5969742578125,8.952015258789062,14.4653642578125,8.952015258789062Z" fill="#2882FF" fill-opacity="1"/></g><g><path d="M15.86198546875,10.7586331796875C15.63384546875,10.7586331796875,15.44819146875,10.5729781796875,15.44819146875,10.3448401796875C15.44819146875,10.2687022796875,15.38653646875,10.2069091796875,15.31026046875,10.2069091796875C15.23398446875,10.2069091796875,15.17232946875,10.2687022796875,15.17232946875,10.3448401796875C15.17232946875,10.5729781796875,14.98667446875,10.7586331796875,14.75853646875,10.7586331796875C14.68226046875,10.7586331796875,14.62060546875,10.8204261796875,14.62060546875,10.8965641796875C14.62060546875,10.9727021796875,14.68226046875,11.0344951796875,14.75853646875,11.0344951796875C14.98667446875,11.0344951796875,15.17232946875,11.2201491796875,15.17232946875,11.4482891796875C15.17232946875,11.5244291796875,15.23398446875,11.5862191796875,15.31026046875,11.5862191796875C15.38653646875,11.5862191796875,15.44819146875,11.5244291796875,15.44819146875,11.4482891796875C15.44819146875,11.2201491796875,15.63384546875,11.0344951796875,15.86198546875,11.0344951796875C15.93826546875,11.0344951796875,15.99991546875,10.9727021796875,15.99991546875,10.8965641796875C15.99991546875,10.8204261796875,15.93826546875,10.7586331796875,15.86198546875,10.7586331796875Z" fill="#2882FF" fill-opacity="1"/></g><g><path d="M18.25,15Q18.25,14.9261315,18.264411,14.853682Q18.278822,14.781233,18.30709,14.712987Q18.335359,14.644742,18.376398000000002,14.583322Q18.417437,14.521903,18.46967,14.46967Q18.521903000000002,14.417437,18.583322,14.376398Q18.644742,14.335359,18.712987,14.30709Q18.781233,14.278822,18.853682,14.264410999999999Q18.9261315,14.25,19,14.25Q19.0738685,14.25,19.146318,14.264410999999999Q19.218767,14.278822,19.287013,14.30709Q19.355258,14.335359,19.416678,14.376398Q19.478096999999998,14.417437,19.53033,14.46967Q19.582563,14.521903,19.623601999999998,14.583322Q19.664641,14.644742,19.69291,14.712987Q19.721178,14.781233,19.735589,14.853682Q19.75,14.9261315,19.75,15L19.75,21Q19.75,21.07387,19.735589,21.14632Q19.721178,21.21877,19.69291,21.287010000000002Q19.664641,21.35526,19.623601999999998,21.41668Q19.582563,21.4781,19.53033,21.53033Q19.478096999999998,21.58256,19.416678,21.6236Q19.355258,21.66464,19.287013,21.69291Q19.218767,21.72118,19.146318,21.735590000000002Q19.0738685,21.75,19,21.75Q18.9261315,21.75,18.853682,21.735590000000002Q18.781233,21.72118,18.712987,21.69291Q18.644742,21.66464,18.583322,21.6236Q18.521903000000002,21.58256,18.46967,21.53033Q18.417437,21.4781,18.376398000000002,21.41668Q18.335359,21.35526,18.30709,21.287010000000002Q18.278822,21.21877,18.264411,21.14632Q18.25,21.07387,18.25,21L18.25,15Z" fill-rule="evenodd" fill="#2882FF" fill-opacity="1" style="mix-blend-mode:passthrough"/></g><g><path d="M18.46967,14.46967L15.46967,17.46967Q15.364181,17.57516,15.30709,17.71299Q15.25,17.85082,15.25,18Q15.25,18.07387,15.264410999999999,18.14632Q15.278822,18.21877,15.30709,18.28701Q15.335359,18.35526,15.376398,18.41668Q15.417437,18.4781,15.46967,18.53033Q15.521903,18.58256,15.583322,18.6236Q15.644742,18.66464,15.712987,18.69291Q15.781233,18.72118,15.853682,18.735590000000002Q15.9261315,18.75,16,18.75Q16.149184,18.75,16.287013,18.69291Q16.424841,18.63582,16.53033,18.53033L16.530625,18.53004L19,16.06066L21.46914,18.5298L21.46967,18.53033Q21.57516,18.63582,21.712989999999998,18.69291Q21.85082,18.75,22,18.75Q22.07387,18.75,22.14632,18.735590000000002Q22.21877,18.72118,22.287010000000002,18.69291Q22.35526,18.66464,22.41668,18.6236Q22.4781,18.58256,22.53033,18.53033Q22.58256,18.4781,22.6236,18.41668Q22.66464,18.35526,22.69291,18.28701Q22.72118,18.21877,22.735590000000002,18.14632Q22.75,18.07387,22.75,18Q22.75,17.85082,22.69291,17.71299Q22.63582,17.57516,22.53033,17.46967L19.53033,14.46967Q19.4781,14.417437,19.41668,14.376398Q19.35526,14.335359,19.28701,14.30709Q19.21877,14.278822,19.14632,14.264410999999999Q19.07387,14.25,19,14.25Q18.92613,14.25,18.85368,14.264410999999999Q18.78123,14.278822,18.71299,14.30709Q18.64474,14.335359,18.58332,14.376398Q18.5219,14.417437,18.46967,14.46967Z" fill-rule="evenodd" fill="#2882FF" fill-opacity="1" style="mix-blend-mode:passthrough"/></g></g></svg>