<svg xmlns="http://www.w3.org/2000/svg" xmlns:xlink="http://www.w3.org/1999/xlink" fill="none" version="1.1" width="24" height="24" viewBox="0 0 24 24"><defs><clipPath id="master_svg0_48_03345"><rect x="0" y="0" width="24" height="24" rx="0"/></clipPath></defs><g clip-path="url(#master_svg0_48_03345)"><g><path d="M2.25,9L2.25,18Q2.25,19.1391,3.0554568,19.944499999999998Q3.860912,20.75,5,20.75L19,20.75Q20.1391,20.75,20.9445,19.944499999999998Q21.75,19.1391,21.75,18L21.75,9Q21.75,7.860913,20.9445,7.0554564Q20.1391,6.25,19,6.25L5,6.25Q3.860913,6.25,3.0554564,7.0554565Q2.25,7.860913,2.25,9ZM4.1161200000000004,18.8839Q3.75,18.5178,3.75,18L3.75,9Q3.75,8.48223,4.1161200000000004,8.11612Q4.4822299999999995,7.75,5,7.75L19,7.75Q19.5178,7.75,19.8839,8.11612Q20.25,8.48223,20.25,9L20.25,18Q20.25,18.5178,19.8839,18.8839Q19.5178,19.25,19,19.25L5,19.25Q4.4822299999999995,19.25,4.1161200000000004,18.8839Z" fill-rule="evenodd" fill="#231F2E" fill-opacity="1"/></g><g><path d="M15.25,5L15.25,7Q15.25,7.07387,15.26441,7.14632Q15.27882,7.21877,15.307089999999999,7.28701Q15.33536,7.35526,15.3764,7.41668Q15.41744,7.4781,15.46967,7.53033Q15.521899999999999,7.58256,15.58332,7.6236Q15.644739999999999,7.66464,15.71299,7.69291Q15.78123,7.72118,15.85368,7.73559Q15.92613,7.75,16,7.75Q16.07387,7.75,16.14632,7.73559Q16.21877,7.72118,16.287010000000002,7.69291Q16.35526,7.66464,16.41668,7.6236Q16.478099999999998,7.58256,16.53033,7.53033Q16.58256,7.4781,16.6236,7.41668Q16.66464,7.35526,16.692909999999998,7.28701Q16.72118,7.21877,16.735590000000002,7.14632Q16.75,7.07387,16.75,7L16.75,5Q16.75,3.860913,15.94454,3.0554564Q15.13909,2.25,14,2.25L10,2.25Q8.860913,2.25,8.0554564,3.0554564Q7.25,3.860913,7.25,5L7.25,7Q7.25,7.07387,7.264411,7.14632Q7.278822,7.21877,7.30709,7.28701Q7.335359,7.35526,7.376398,7.41668Q7.417437,7.4781,7.46967,7.53033Q7.521903,7.58256,7.583322,7.6236Q7.644742,7.66464,7.712987,7.69291Q7.781233,7.72118,7.853682,7.73559Q7.9261315,7.75,8,7.75Q8.0738685,7.75,8.146318,7.73559Q8.218767,7.72118,8.287013,7.69291Q8.355258,7.66464,8.416678,7.6236Q8.478097,7.58256,8.53033,7.53033Q8.582563,7.4781,8.623602,7.41668Q8.664641,7.35526,8.69291,7.28701Q8.721178,7.21877,8.735589000000001,7.14632Q8.75,7.07387,8.75,7L8.75,5Q8.75,4.4822299999999995,9.11612,4.1161200000000004Q9.48223,3.75,10,3.75L14,3.75Q14.517769999999999,3.75,14.883880000000001,4.1161200000000004Q15.25,4.4822299999999995,15.25,5Z" fill-rule="evenodd" fill="#231F2E" fill-opacity="1"/></g><g><path d="M12.75,12L12.75,12.0100002L12.749933,12.0100002Q12.748957,12.0832312,12.733832,12.15489Q12.718707,12.226549,12.690005,12.293928Q12.661303,12.361307,12.620108,12.42186Q12.578913,12.482414,12.526783,12.533854Q12.474652,12.585294,12.413554,12.625678Q12.352457,12.666061,12.284701,12.693862Q12.216945,12.721664,12.145091,12.735832Q12.0732375,12.75,12,12.75Q11.9267625,12.75,11.854909,12.735832Q11.783055,12.721664,11.715299,12.693862Q11.647543,12.666061,11.586446,12.625678Q11.525348,12.585294,11.473217,12.533854Q11.421087,12.482414,11.379892,12.42186Q11.338697,12.361307,11.309995,12.293928Q11.281293,12.226549,11.266168,12.15489Q11.251043,12.0832312,11.250067,12.0100002L11.25,12.0100002L11.250017,12.00500011L11.25,12Q11.25,11.9261315,11.264410999999999,11.853682Q11.278822,11.781233,11.30709,11.712987Q11.335359,11.644742,11.376398,11.583322Q11.417437,11.521903,11.46967,11.46967Q11.521903,11.417437,11.583322,11.376398Q11.644742,11.335359,11.712987,11.30709Q11.781233,11.278822,11.853682,11.264410999999999Q11.9261315,11.25,12,11.25Q12.0738685,11.25,12.146318,11.264410999999999Q12.218767,11.278822,12.287013,11.30709Q12.355258,11.335359,12.416678,11.376398Q12.478097,11.417437,12.53033,11.46967Q12.582563,11.521903,12.623602,11.583322Q12.664641,11.644742,12.69291,11.712987Q12.721178,11.781233,12.735589000000001,11.853682Q12.75,11.9261315,12.75,12ZM11.25,12.0100002L11.25,12L12.749983,12.00500011L12.75,12.0100002Q12.75,12.0838688,12.735589000000001,12.156318Q12.721178,12.228767,12.69291,12.297013Q12.664641,12.365258,12.623602,12.426678Q12.582563,12.488097,12.53033,12.54033Q12.478097,12.592563,12.416678,12.633602Q12.355258,12.674641,12.287013,12.70291Q12.218767,12.731178,12.146318,12.745589Q12.0738685,12.76,12,12.76Q11.9261315,12.76,11.853682,12.745589Q11.781233,12.731178,11.712987,12.70291Q11.644742,12.674642,11.583322,12.633602Q11.521903,12.592563,11.46967,12.54033Q11.417437,12.488097,11.376398,12.426678Q11.335359,12.365258,11.30709,12.297013Q11.278822,12.228767,11.264410999999999,12.156318Q11.25,12.0838688,11.25,12.0100002Z" fill-rule="evenodd" fill="#231F2E" fill-opacity="1"/></g><g><path d="M3.3375,12.330229Q7.424,14.38943,12,14.38943Q16.5745,14.38943,20.6597,12.331619Q20.6611,12.330953000000001,20.6624,12.330288L20.6625,12.330229Q20.8217,12.25,21,12.25Q21.0739,12.25,21.1463,12.264410999999999Q21.2188,12.278822,21.287,12.30709Q21.3553,12.335359,21.4167,12.376398Q21.4781,12.417437,21.5303,12.46967Q21.5826,12.521903,21.6236,12.583322Q21.6646,12.644742,21.6929,12.712987Q21.7212,12.781233,21.7356,12.853682Q21.75,12.9261315,21.75,13Q21.75,13.104165,21.7216,13.204387Q21.6932,13.30461,21.6386,13.393303Q21.584,13.481996,21.5073,13.552446Q21.4305,13.622896,21.3375,13.669771Q16.9326,15.88943,12,15.88943Q7.06743,15.88943,2.6625,13.669771Q2.569478,13.622897,2.49275,13.552447Q2.416022,13.481997,2.361398,13.393303Q2.3067729999999997,13.30461,2.278387,13.204387Q2.25,13.104165,2.25,13Q2.25,12.9261315,2.264411,12.853682Q2.278822,12.781233,2.30709,12.712987Q2.335359,12.644742,2.376398,12.583322Q2.417437,12.521903,2.46967,12.46967Q2.521903,12.417437,2.583322,12.376398Q2.644742,12.335359,2.712987,12.30709Q2.781233,12.278822,2.853682,12.264410999999999Q2.9261315,12.25,3,12.25Q3.178286,12.25,3.3375,12.330229Z" fill-rule="evenodd" fill="#231F2E" fill-opacity="1"/></g></g></svg>