<svg xmlns="http://www.w3.org/2000/svg" xmlns:xlink="http://www.w3.org/1999/xlink" fill="none" version="1.1" width="24" height="24" viewBox="0 0 24 24"><defs><clipPath id="master_svg0_48_02290"><rect x="0" y="0" width="24" height="24" rx="0"/></clipPath></defs><g clip-path="url(#master_svg0_48_02290)"><g><path d="M20.999984741210938,7.5L3.0000000000109375,7.5Q2.9261315412109377,7.5,2.8536827412109376,7.514411Q2.7812337412109374,7.528822,2.7129877412109376,7.55709Q2.6447417412109377,7.585359,2.5833227412109374,7.626398Q2.5219027412109374,7.667437,2.4696707412109378,7.71967Q2.4174377412109376,7.771903,2.3763977412109374,7.833322Q2.3353587412109373,7.894742,2.3070907412109376,7.962987Q2.2788227412109374,8.031233,2.2644117412109375,8.103682Q2.2499997412109374,8.1761314,2.2499997412109374,8.25L2.2499897412109373,17.24998Q2.2499867412109373,18.8033,3.3483367412109377,19.901600000000002Q4.446684741210937,21,5.9999847412109375,21L17.999984741210938,21Q19.553284741210938,21,20.65168474121094,19.901600000000002Q21.749984741210938,18.8033,21.749984741210938,17.24999L21.749984741210938,8.25Q21.749984741210938,8.1761315,21.73558474121094,8.103682Q21.721184741210937,8.031233,21.69288474121094,7.962987Q21.664584741210938,7.894742,21.623584741210937,7.833322Q21.582584741210937,7.771903,21.530284741210938,7.71967Q21.47808474121094,7.667437,21.416684741210936,7.626398Q21.355284741210937,7.585359,21.286984741210937,7.55709Q21.21878474121094,7.528822,21.146284741210938,7.514411Q21.073884741210936,7.5,20.999984741210938,7.5ZM3.7499987412109377,9L3.7499897412109373,17.24998Q3.7499877412109375,18.18197,4.408994741210938,18.841Q5.068004741210938,19.5,5.9999847412109375,19.5L17.999984741210938,19.5Q18.93198474121094,19.5,19.59098474121094,18.841Q20.249984741210938,18.18197,20.249984741210938,17.24999L20.249984741210938,9L3.7499987412109377,9Z" fill-rule="evenodd" fill="#231F2E" fill-opacity="1"/></g><g><path d="M2.25,6.75Q2.25,5.1967,3.34835,4.09835Q4.4467,3.00000488758,6,3.00000435114L18,3Q19.5534,3,20.6535,4.10792Q21.75,5.21217,21.75,6.76539L21.75,8.25001C21.75,8.66423,21.4142,9.00001,21,9.00001L3,9.00001C2.585786,9.00001,2.25,8.66423,2.25,8.25001L2.25,6.75ZM4.5,6L4.5,6.008C4.5,6.42221,4.835789999999999,6.758,5.25,6.758L5.258,6.758C5.67221,6.758,6.008,6.42221,6.008,6.008L6.008,6C6.008,5.585789999999999,5.67221,5.25,5.258,5.25L5.25,5.25C4.835789999999999,5.25,4.5,5.585789999999999,4.5,6ZM6.75,6L6.75,6.008C6.75,6.42221,7.08579,6.758,7.5,6.758L7.508,6.758C7.92221,6.758,8.258,6.42221,8.258,6.008L8.258,6C8.258,5.585789999999999,7.92221,5.25,7.508,5.25L7.5,5.25C7.08579,5.25,6.75,5.585789999999999,6.75,6ZM10.508,6.008L10.508,6C10.508,5.585789999999999,10.17221,5.25,9.758,5.25L9.75,5.25C9.33579,5.25,9,5.585789999999999,9,6L9,6.008C9,6.42221,9.33579,6.758,9.75,6.758L9.758,6.758C10.17221,6.758,10.508,6.42221,10.508,6.008Z" fill-rule="evenodd" fill="#231F2E" fill-opacity="1"/></g><g><path d="M14.65165,11.59835Q13.5533,10.5,12,10.5Q10.4467,10.5,9.34835,11.598349Q8.25,12.6967,8.25,14.25Q8.25,15.8033,9.348349,16.90165Q10.4467,18,12,18Q13.5533,18,14.65165,16.90165Q15.75,15.8033,15.75,14.25Q15.75,12.6967,14.65165,11.59835ZM10.40901,12.65901Q11.06802,12,12,12Q12.93198,12,13.59099,12.65901Q14.25,13.31802,14.25,14.25Q14.25,15.18198,13.59099,15.84099Q12.93198,16.5,12,16.5Q11.06802,16.5,10.40901,15.84099Q9.75,15.18198,9.75,14.25Q9.75,13.31802,10.40901,12.65901Z" fill-rule="evenodd" fill="#2882FF" fill-opacity="1"/></g><g><path d="M14.53033,12.78033Q14.635819999999999,12.674841,14.692910000000001,12.537013Q14.75,12.399184,14.75,12.25Q14.75,12.1761315,14.73559,12.103682Q14.72118,12.031233,14.692910000000001,11.962987Q14.66464,11.894742,14.6236,11.833322Q14.58256,11.771903,14.53033,11.71967Q14.478100000000001,11.667437,14.41668,11.626398Q14.355260000000001,11.585359,14.28701,11.55709Q14.21877,11.528822,14.14632,11.514410999999999Q14.07387,11.5,14,11.5Q13.85082,11.5,13.71299,11.55709Q13.57516,11.614181,13.46967,11.71967L9.46967,15.71967Q9.364181,15.82516,9.30709,15.96299Q9.25,16.10082,9.25,16.25Q9.25,16.32387,9.264410999999999,16.39632Q9.278822,16.46877,9.30709,16.537010000000002Q9.335359,16.60526,9.376398,16.66668Q9.417437,16.7281,9.46967,16.78033Q9.521903,16.83256,9.583322,16.8736Q9.644742,16.91464,9.712987,16.94291Q9.781233,16.97118,9.853682,16.985590000000002Q9.9261315,17,10,17Q10.149184,17,10.287013,16.94291Q10.424841,16.88582,10.53033,16.78033L14.53033,12.78033L14.53033,12.78033Z" fill-rule="evenodd" fill="#2882FF" fill-opacity="1"/></g></g></svg>