<svg xmlns="http://www.w3.org/2000/svg" xmlns:xlink="http://www.w3.org/1999/xlink" fill="none" version="1.1" width="24" height="24" viewBox="0 0 24 24"><defs><clipPath id="master_svg0_48_02129"><rect x="0" y="0" width="24" height="24" rx="0"/></clipPath></defs><g clip-path="url(#master_svg0_48_02129)"><g transform="matrix(0,-1,-1,0,26.4647216796875,26.4647216796875)"><path d="M12,13.7147216796875L12.724701,13.7147216796875Q13.88836,13.7147216796875,14.90633,14.4108145796875Q15.88478,15.0798856796875,16.50583,16.2449116796875L16.897199999999998,16.9788016796875Q17.34505,17.8190516796875,18.01965,18.2803416796875Q18.65478,18.7146516796875,19.35479,18.7147216796875L23.4648,18.7147216796875Q23.5387,18.7147216796875,23.6111,18.729131679687498Q23.683500000000002,18.7435416796875,23.7518,18.7718116796875Q23.82,18.8000816796875,23.881500000000003,18.8411216796875Q23.9429,18.8821616796875,23.9951,18.9343916796875Q24.0473,18.9866216796875,24.0884,19.0480416796875Q24.1294,19.1094616796875,24.1577,19.177711679687498Q24.186,19.2459516796875,24.200400000000002,19.3184016796875Q24.2148,19.3908516796875,24.2148,19.4647216796875Q24.2148,19.5385916796875,24.200400000000002,19.6110416796875Q24.186,19.6834916796875,24.1577,19.751731679687502Q24.1294,19.8199816796875,24.0884,19.8814016796875Q24.0473,19.9428216796875,23.9951,19.9950516796875Q23.9429,20.0472816796875,23.881500000000003,20.0883216796875Q23.82,20.1293616796875,23.7518,20.1576316796875Q23.683500000000002,20.1859016796875,23.6111,20.200311679687502Q23.5387,20.2147216796875,23.4648,20.2147216796875L19.35465,20.2147216796875Q18.19089,20.2146116796875,17.17296,19.5185416796875Q16.194490000000002,18.8494516796875,15.57365,17.684641679687502L15.18216,16.9505316796875Q14.73425,16.1103116796875,14.05964,15.6490116796875Q13.42454,15.2147216796875,12.724701,15.2147216796875L12,15.2147216796875Q11.9261315,15.2147216796875,11.853682,15.200310679687501Q11.781233,15.1858996796875,11.712987,15.1576316796875Q11.644742,15.1293626796875,11.583322,15.0883236796875Q11.521903,15.0472846796875,11.46967,14.9950516796875Q11.417437,14.9428186796875,11.376398,14.8813996796875Q11.335359,14.8199796796875,11.30709,14.7517346796875Q11.278822,14.6834886796875,11.264410999999999,14.6110396796875Q11.25,14.5385901796875,11.25,14.4647216796875Q11.25,14.3908531796875,11.264410999999999,14.3184036796875Q11.278822,14.2459546796875,11.30709,14.1777086796875Q11.335359,14.1094636796875,11.376398,14.0480436796875Q11.417437,13.9866246796875,11.46967,13.9343916796875Q11.521903,13.8821586796875,11.583322,13.8411196796875Q11.644742,13.8000806796875,11.712987,13.7718116796875Q11.781233,13.7435436796875,11.853682,13.729132679687499Q11.9261315,13.7147216796875,12,13.7147216796875Z" fill-rule="evenodd" fill="#231F2E" fill-opacity="1"/></g><g transform="matrix(0,-1,-1,0,31.4647216796875,31.4647216796875)"><path d="M17.726986,18.7147216796875L17,18.7147216796875Q16.9261315,18.7147216796875,16.853682,18.729131679687498Q16.781233,18.7435416796875,16.712987,18.7718116796875Q16.644742,18.8000816796875,16.583322,18.8411216796875Q16.521903000000002,18.8821616796875,16.46967,18.9343916796875Q16.417437,18.9866216796875,16.376398000000002,19.0480416796875Q16.335359,19.1094616796875,16.30709,19.177711679687498Q16.278822,19.2459516796875,16.264411,19.3184016796875Q16.25,19.3908516796875,16.25,19.4647216796875Q16.25,19.5385916796875,16.264411,19.6110416796875Q16.278822,19.6834916796875,16.30709,19.751731679687502Q16.335359,19.8199816796875,16.376398000000002,19.8814016796875Q16.417437,19.9428216796875,16.46967,19.9950516796875Q16.521903000000002,20.0472816796875,16.583322,20.0883216796875Q16.644742,20.1293616796875,16.712987,20.1576316796875Q16.781233,20.1859016796875,16.853682,20.200311679687502Q16.9261315,20.2147216796875,17,20.2147216796875L17.726986,20.2147216796875Q18.89105,20.2147216796875,19.90932,19.5179316796875Q20.88799,18.8482416796875,21.509,17.6822916796875L21.89755,16.9519916796875Q22.34521,16.1112216796875,23.020220000000002,15.649431679687499Q23.65572,15.2146806796875,24.3562,15.2147216796875L28.4648,15.2147216796875Q28.5387,15.2147216796875,28.6111,15.200310679687501Q28.683500000000002,15.1858996796875,28.7518,15.1576316796875Q28.82,15.1293626796875,28.881500000000003,15.0883236796875Q28.9429,15.0472846796875,28.9951,14.9950516796875Q29.0473,14.9428186796875,29.0884,14.8813996796875Q29.1294,14.8199796796875,29.1577,14.7517346796875Q29.186,14.6834886796875,29.200400000000002,14.6110396796875Q29.2148,14.5385901796875,29.2148,14.4647216796875Q29.2148,14.3908531796875,29.200400000000002,14.3184036796875Q29.186,14.2459546796875,29.1577,14.1777086796875Q29.1294,14.1094636796875,29.0884,14.0480436796875Q29.0473,13.9866246796875,28.9951,13.9343916796875Q28.9429,13.8821586796875,28.881500000000003,13.8411196796875Q28.82,13.8000806796875,28.7518,13.7718116796875Q28.683500000000002,13.7435436796875,28.6111,13.729132679687499Q28.5387,13.7147216796875,28.4648,13.7147216796875L24.35629,13.7147216796875Q23.191769999999998,13.7146536796875,22.17327,14.4114212796875Q21.19429,15.0811606796875,20.57331,16.2474516796875L20.18508,16.977151679687502Q19.73712,17.8182016796875,19.06224,18.2800116796875Q18.42696,18.7147216796875,17.726986,18.7147216796875Z" fill-rule="evenodd" fill="#231F2E" fill-opacity="1"/></g><g transform="matrix(0,-1,-1,0,26,26)"><path d="M20.530484,5.469824L23.53033,8.46967Q23.63582,8.57516,23.69291,8.71299Q23.75,8.85082,23.75,9Q23.75,9.14918,23.69291,9.28701Q23.63582,9.42484,23.53033,9.53033L20.530792,12.529869999999999L20.53033,12.53033Q20.424841,12.635819999999999,20.287013,12.692910000000001Q20.149184,12.75,20,12.75Q19.9261315,12.75,19.853682,12.73559Q19.781233,12.72118,19.712987,12.692910000000001Q19.644742,12.66464,19.583322,12.6236Q19.521903000000002,12.58256,19.46967,12.53033Q19.417437,12.478100000000001,19.376398000000002,12.41668Q19.335359,12.355260000000001,19.30709,12.28701Q19.278822,12.21877,19.264411,12.14632Q19.25,12.07387,19.25,12Q19.25,11.850819999999999,19.30709,11.71299Q19.364181,11.57516,19.46967,11.46967L19.470132,11.46921L21.93934,9L19.469824,6.5304839999999995L19.46967,6.53033Q19.364181,6.424841,19.30709,6.287013Q19.25,6.149184,19.25,6Q19.25,5.9261315,19.264411,5.853682Q19.278822,5.781233,19.30709,5.712987Q19.335359,5.644742,19.376398000000002,5.583322Q19.417437,5.521903,19.46967,5.46967Q19.521903000000002,5.417437,19.583322,5.376398Q19.644742,5.335359,19.712987,5.30709Q19.781233,5.278822,19.853682,5.264411Q19.9261315,5.25,20,5.25Q20.149184,5.25,20.287013,5.30709Q20.424841,5.364181,20.53033,5.46967L20.530484,5.469824Z" fill-rule="evenodd" fill="#231F2E" fill-opacity="1"/></g><g transform="matrix(0,-1,-1,0,16,16)"><path d="M10.530484,5.469824L13.53033,8.46967Q13.635819999999999,8.57516,13.69291,8.71299Q13.75,8.85082,13.75,9Q13.75,9.14918,13.69291,9.28701Q13.635819999999999,9.42484,13.53033,9.53033L10.530792,12.529869999999999L10.53033,12.53033Q10.424841,12.635819999999999,10.287013,12.692910000000001Q10.149184,12.75,10,12.75Q9.9261315,12.75,9.853682,12.73559Q9.781233,12.72118,9.712987,12.692910000000001Q9.644742,12.66464,9.583322,12.6236Q9.521903,12.58256,9.46967,12.53033Q9.417437,12.478100000000001,9.376398,12.41668Q9.335359,12.355260000000001,9.30709,12.28701Q9.278822,12.21877,9.264410999999999,12.14632Q9.25,12.07387,9.25,12Q9.25,11.850819999999999,9.30709,11.71299Q9.364181,11.57516,9.46967,11.46967L9.470132,11.46921L11.93934,9L9.469824,6.5304839999999995L9.46967,6.53033Q9.364181,6.424841,9.30709,6.287013Q9.25,6.149184,9.25,6Q9.25,5.9261315,9.264410999999999,5.853682Q9.278822,5.781233,9.30709,5.712987Q9.335359,5.644742,9.376398,5.583322Q9.417437,5.521903,9.46967,5.46967Q9.521903,5.417437,9.583322,5.376398Q9.644742,5.335359,9.712987,5.30709Q9.781233,5.278822,9.853682,5.264411Q9.9261315,5.25,10,5.25Q10.149184,5.25,10.287013,5.30709Q10.424841,5.364181,10.53033,5.46967L10.530484,5.469824Z" fill-rule="evenodd" fill="#231F2E" fill-opacity="1"/></g><g transform="matrix(1,0,0,-1,0,41.999755859375)"><path d="M13.94454,21.0553338296875Q13.13909,20.2498779296875,12,20.2498779296875Q10.860913,20.2498779296875,10.0554565,21.0553338296875Q9.25,21.8607899296875,9.25,22.9998779296875Q9.25,24.1389679296875,10.0554565,24.9444179296875Q10.860913,25.7498779296875,12,25.7498779296875Q13.13909,25.7498779296875,13.94454,24.9444179296875Q14.75,24.1389679296875,14.75,22.9998779296875Q14.75,21.8607899296875,13.94454,21.0553338296875ZM11.11612,22.1159979296875Q11.48223,21.7498779296875,12,21.7498779296875Q12.51777,21.7498779296875,12.88388,22.1159979296875Q13.25,22.4821079296875,13.25,22.9998779296875Q13.25,23.5176479296875,12.88388,23.8837579296875Q12.51777,24.2498779296875,12,24.2498779296875Q11.48223,24.2498779296875,11.11612,23.8837579296875Q10.75,23.5176479296875,10.75,22.9998779296875Q10.75,22.4821079296875,11.11612,22.1159979296875Z" fill-rule="evenodd" fill="#2882FF" fill-opacity="1"/></g></g></svg>