<svg xmlns="http://www.w3.org/2000/svg" xmlns:xlink="http://www.w3.org/1999/xlink" fill="none" version="1.1" width="24" height="24" viewBox="0 0 24 24"><defs><clipPath id="master_svg0_48_02249"><rect x="0" y="0" width="24" height="24" rx="0"/></clipPath></defs><g clip-path="url(#master_svg0_48_02249)"><g><path d="M20.999984741210938,7.5L3.0000000000109375,7.5Q2.9261315412109377,7.5,2.8536827412109376,7.514411Q2.7812337412109374,7.528822,2.7129877412109376,7.55709Q2.6447417412109377,7.585359,2.5833227412109374,7.626398Q2.5219027412109374,7.667437,2.4696707412109378,7.71967Q2.4174377412109376,7.771903,2.3763977412109374,7.833322Q2.3353587412109373,7.894742,2.3070907412109376,7.962987Q2.2788227412109374,8.031233,2.2644117412109375,8.103682Q2.2499997412109374,8.1761314,2.2499997412109374,8.25L2.2499897412109373,17.24998Q2.2499867412109373,18.8033,3.3483367412109377,19.901600000000002Q4.446684741210937,21,5.9999847412109375,21L17.999984741210938,21Q19.553284741210938,21,20.65168474121094,19.901600000000002Q21.749984741210938,18.8033,21.749984741210938,17.24999L21.749984741210938,8.25Q21.749984741210938,8.1761315,21.73558474121094,8.103682Q21.721184741210937,8.031233,21.69288474121094,7.962987Q21.664584741210938,7.894742,21.623584741210937,7.833322Q21.582584741210937,7.771903,21.530284741210938,7.71967Q21.47808474121094,7.667437,21.416684741210936,7.626398Q21.355284741210937,7.585359,21.286984741210937,7.55709Q21.21878474121094,7.528822,21.146284741210938,7.514411Q21.073884741210936,7.5,20.999984741210938,7.5ZM3.7499987412109377,9L3.7499897412109373,17.24998Q3.7499877412109375,18.18197,4.408994741210938,18.841Q5.068004741210938,19.5,5.9999847412109375,19.5L17.999984741210938,19.5Q18.93198474121094,19.5,19.59098474121094,18.841Q20.249984741210938,18.18197,20.249984741210938,17.24999L20.249984741210938,9L3.7499987412109377,9Z" fill-rule="evenodd" fill="#231F2E" fill-opacity="1"/></g><g><path d="M2.25,6.75Q2.25,5.1967,3.34835,4.09835Q4.4467,3.00000488758,6,3.00000435114L18,3Q19.5534,3,20.6535,4.10792Q21.75,5.21217,21.75,6.76539L21.75,8.25001C21.75,8.66423,21.4142,9.00001,21,9.00001L3,9.00001C2.585786,9.00001,2.25,8.66423,2.25,8.25001L2.25,6.75ZM4.5,6L4.5,6.008C4.5,6.42221,4.835789999999999,6.758,5.25,6.758L5.258,6.758C5.67221,6.758,6.008,6.42221,6.008,6.008L6.008,6C6.008,5.585789999999999,5.67221,5.25,5.258,5.25L5.25,5.25C4.835789999999999,5.25,4.5,5.585789999999999,4.5,6ZM6.75,6L6.75,6.008C6.75,6.42221,7.08579,6.758,7.5,6.758L7.508,6.758C7.92221,6.758,8.258,6.42221,8.258,6.008L8.258,6C8.258,5.585789999999999,7.92221,5.25,7.508,5.25L7.5,5.25C7.08579,5.25,6.75,5.585789999999999,6.75,6ZM10.508,6.008L10.508,6C10.508,5.585789999999999,10.17221,5.25,9.758,5.25L9.75,5.25C9.33579,5.25,9,5.585789999999999,9,6L9,6.008C9,6.42221,9.33579,6.758,9.75,6.758L9.758,6.758C10.17221,6.758,10.508,6.42221,10.508,6.008Z" fill-rule="evenodd" fill="#231F2E" fill-opacity="1"/></g><g><path d="M16.00439892578125,14.254908447265624Q16.00439892578125,14.451658447265626,15.98511892578125,14.647468447265625Q15.96582892578125,14.843268447265626,15.927448925781249,15.036248447265624Q15.88907892578125,15.229218447265625,15.83196892578125,15.417498447265626Q15.774858925781249,15.605778447265624,15.69957892578125,15.787558447265624Q15.62429892578125,15.969328447265625,15.53156892578125,16.142848447265624Q15.43882892578125,16.316368447265624,15.32953892578125,16.479968447265627Q15.22023892578125,16.643558447265626,15.095438925781249,16.795648447265627Q14.97064892578125,16.947748447265624,14.831538925781249,17.086868447265626Q14.69243892578125,17.225998447265624,14.54036892578125,17.350818447265624Q14.38829892578125,17.475628447265624,14.22472892578125,17.584938447265625Q14.06115892578125,17.694258447265625,13.887668925781249,17.786998447265624Q13.71416892578125,17.879748447265627,13.53242892578125,17.955048447265625Q13.35067892578125,18.030338447265624,13.16242892578125,18.087458447265625Q12.97416892578125,18.144568447265627,12.78122892578125,18.182948447265623Q12.58828892578125,18.221338447265623,12.39250892578125,18.240628447265625Q12.19673892578125,18.259908447265623,12.00001892578125,18.259908447265623Q11.80328892578125,18.259908447265623,11.60751892578125,18.240628447265625Q11.41173892578125,18.221338447265623,11.21879892578125,18.182948447265623Q11.02585892578125,18.144568447265627,10.83760892578125,18.087458447265625Q10.64934892578125,18.030338447265624,10.46760892578125,17.955048447265625Q10.28585892578125,17.879748447265627,10.11235892578125,17.786998447265624Q9.93886892578125,17.694258447265625,9.77529892578125,17.584938447265625Q9.61172892578125,17.475628447265624,9.45965892578125,17.350818447265624Q9.30759892578125,17.225998447265624,9.16848892578125,17.086868447265626Q9.02938892578125,16.947748447265624,8.90458792578125,16.795648447265627Q8.77978792578125,16.643558447265626,8.67049492578125,16.479968447265627Q8.56120192578125,16.316368447265624,8.46846792578125,16.142848447265624Q8.37573292578125,15.969328447265625,8.30045092578125,15.787558447265624Q8.22516792578125,15.605778447265624,8.16806292578125,15.417498447265626Q8.11095692578125,15.229218447265625,8.07257832578125,15.036248447265624Q8.03419962578125,14.843268447265626,8.01491752578125,14.647468447265625Q7.99563529578125,14.451658447265626,7.99563529578125,14.254908447265624Q7.99563529578125,14.058158447265626,8.01491752578125,13.862348447265624Q8.03419962578125,13.666548447265626,8.07257832578125,13.473568447265626Q8.11095692578125,13.280598447265625,8.16806292578125,13.092318447265626Q8.22516792578125,12.904038447265625,8.30045092578125,12.722258447265625Q8.37573292578125,12.540488447265625,8.46846792578125,12.366968447265625Q8.56120192578125,12.193448447265625,8.67049492578125,12.029848447265625Q8.77978792578125,11.866258447265626,8.90458792578125,11.714158447265625Q9.02938892578125,11.562068447265625,9.16848892578125,11.422948447265625Q9.30759892578125,11.283818447265626,9.45965892578125,11.159001447265625Q9.61172892578125,11.034182447265625,9.77529892578125,10.924872447265624Q9.93886892578125,10.815562447265625,10.11235892578125,10.722813447265626Q10.28585892578125,10.630065447265626,10.46760892578125,10.554770447265625Q10.64934892578125,10.479476447265625,10.83760892578125,10.422362447265625Q11.02585892578125,10.365248447265625,11.21879892578125,10.326863347265625Q11.41173892578125,10.288478747265625,11.60751892578125,10.269193647265626Q11.80328892578125,10.249908447265625,12.00001892578125,10.249908447265625Q12.19673892578125,10.249908447265625,12.39250892578125,10.269193647265626Q12.58828892578125,10.288478747265625,12.78122892578125,10.326863347265625Q12.97416892578125,10.365248447265625,13.16242892578125,10.422362447265625Q13.35067892578125,10.479476447265625,13.53242892578125,10.554770447265625Q13.71416892578125,10.630065447265626,13.887668925781249,10.722813447265626Q14.06115892578125,10.815562447265625,14.22472892578125,10.924872447265624Q14.38829892578125,11.034182447265625,14.54036892578125,11.159001447265625Q14.69243892578125,11.283818447265626,14.831538925781249,11.422948447265625Q14.97064892578125,11.562068447265625,15.09544892578125,11.714158447265625Q15.22023892578125,11.866258447265626,15.32953892578125,12.029848447265625Q15.43882892578125,12.193448447265625,15.53156892578125,12.366968447265625Q15.62429892578125,12.540488447265625,15.69957892578125,12.722258447265625Q15.774858925781249,12.904038447265625,15.83196892578125,13.092318447265626Q15.88907892578125,13.280598447265625,15.927448925781249,13.473568447265626Q15.96582892578125,13.666548447265626,15.98511892578125,13.862348447265624Q16.00439892578125,14.058158447265626,16.00439892578125,14.254908447265624Z" fill="#2882FF" fill-opacity="1"/></g><g><path d="M10.5,13.5L13.5,13.5Q13.57387,13.5,13.64632,13.514410999999999Q13.71877,13.528822,13.78701,13.55709Q13.85526,13.585359,13.91668,13.626398Q13.9781,13.667437,14.03033,13.71967Q14.08256,13.771903,14.1236,13.833322Q14.16464,13.894742,14.19291,13.962987Q14.22118,14.031233,14.23559,14.103682Q14.25,14.1761315,14.25,14.25Q14.25,14.3238685,14.23559,14.396318Q14.22118,14.468767,14.19291,14.537013Q14.16464,14.605258,14.1236,14.666678Q14.08256,14.728097,14.03033,14.78033Q13.9781,14.832563,13.91668,14.873602Q13.85526,14.914641,13.78701,14.94291Q13.71877,14.971178,13.64632,14.985589000000001Q13.57387,15,13.5,15L10.5,15Q10.4261315,15,10.353682,14.985589000000001Q10.281233,14.971178,10.212987,14.94291Q10.144742,14.914641,10.083322,14.873602Q10.021903,14.832563,9.96967,14.78033Q9.917437,14.728097,9.876398,14.666678Q9.835359,14.605258,9.80709,14.537013Q9.778822,14.468767,9.764410999999999,14.396318Q9.75,14.3238685,9.75,14.25Q9.75,14.1761315,9.764410999999999,14.103682Q9.778822,14.031233,9.80709,13.962987Q9.835359,13.894742,9.876398,13.833322Q9.917437,13.771903,9.96967,13.71967Q10.021903,13.667437,10.083322,13.626398Q10.144742,13.585359,10.212987,13.55709Q10.281233,13.528822,10.353682,13.514410999999999Q10.4261315,13.5,10.5,13.5Z" fill-rule="evenodd" fill="#FFFFFF" fill-opacity="1" style="mix-blend-mode:passthrough"/></g><g><path d="M11.25,12.75Q11.25,12.6761315,11.264410999999999,12.603682Q11.278822,12.531233,11.30709,12.462987Q11.335359,12.394742,11.376398,12.333322Q11.417437,12.271903,11.46967,12.21967Q11.521903,12.167437,11.583322,12.126398Q11.644742,12.085359,11.712987,12.05709Q11.781233,12.028822,11.853682,12.014410999999999Q11.9261315,12,12,12Q12.0738685,12,12.146318,12.014410999999999Q12.218767,12.028822,12.287013,12.05709Q12.355258,12.085359,12.416678,12.126398Q12.478097,12.167437,12.53033,12.21967Q12.582563,12.271903,12.623602,12.333322Q12.664641,12.394742,12.69291,12.462987Q12.721178,12.531233,12.735589000000001,12.603682Q12.75,12.6761315,12.75,12.75L12.75,15.75Q12.75,15.82387,12.735589000000001,15.89632Q12.721178,15.96877,12.69291,16.03701Q12.664641,16.10526,12.623602,16.16668Q12.582563,16.2281,12.53033,16.28033Q12.478097,16.33256,12.416678,16.3736Q12.355258,16.41464,12.287013,16.44291Q12.218767,16.47118,12.146318,16.485590000000002Q12.0738685,16.5,12,16.5Q11.9261315,16.5,11.853682,16.485590000000002Q11.781233,16.47118,11.712987,16.44291Q11.644742,16.41464,11.583322,16.3736Q11.521903,16.33256,11.46967,16.28033Q11.417437,16.2281,11.376398,16.16668Q11.335359,16.10526,11.30709,16.03701Q11.278822,15.96877,11.264410999999999,15.89632Q11.25,15.82387,11.25,15.75L11.25,12.75Z" fill-rule="evenodd" fill="#FFFFFF" fill-opacity="1" style="mix-blend-mode:passthrough"/></g></g></svg>