<svg xmlns="http://www.w3.org/2000/svg" xmlns:xlink="http://www.w3.org/1999/xlink" fill="none" version="1.1" width="24" height="24" viewBox="0 0 24 24"><defs><clipPath id="master_svg0_48_02185"><rect x="0" y="0" width="24" height="24" rx="0"/></clipPath></defs><g clip-path="url(#master_svg0_48_02185)"><g><path d="M17.5308,2.470096L20.5303,5.46967Q20.6358,5.57516,20.6929,5.71299Q20.75,5.850820000000001,20.75,6Q20.75,6.149179999999999,20.6929,6.28701Q20.6358,6.42484,20.5303,6.53033L17.5307,9.52994L17.5303,9.53033Q17.424799999999998,9.635819999999999,17.287,9.692910000000001Q17.1492,9.75,17,9.75Q16.926099999999998,9.75,16.8537,9.73559Q16.7812,9.72118,16.713,9.692910000000001Q16.6447,9.66464,16.5833,9.6236Q16.521900000000002,9.58256,16.4697,9.53033Q16.4174,9.478100000000001,16.3764,9.41668Q16.3354,9.355260000000001,16.3071,9.28701Q16.2788,9.21877,16.264400000000002,9.14632Q16.25,9.07387,16.25,9Q16.25,8.850819999999999,16.3071,8.71299Q16.3642,8.57516,16.4697,8.46967L16.4703,8.46904L18.1893,6.75L7,6.75Q6.068020000000001,6.75,5.40901,7.40901Q4.75,8.06802,4.75,9L4.75,12Q4.75,12.07387,4.735589,12.14632Q4.721178,12.21877,4.69291,12.28701Q4.664641,12.35526,4.623602,12.41668Q4.582563,12.4781,4.53033,12.53033Q4.478097,12.58256,4.416678,12.6236Q4.355258,12.66464,4.287013,12.69291Q4.218767,12.72118,4.146318,12.73559Q4.0738685,12.75,4,12.75Q3.9261315,12.75,3.853682,12.73559Q3.781233,12.72118,3.712987,12.69291Q3.644742,12.66464,3.583322,12.6236Q3.521903,12.58256,3.46967,12.53033Q3.417437,12.4781,3.376398,12.41668Q3.335359,12.35526,3.30709,12.28701Q3.278822,12.21877,3.264411,12.14632Q3.25,12.07387,3.25,12L3.25,9Q3.25,7.4467,4.34835,6.34835Q5.4467,5.25,7,5.25L18.1893,5.25L16.470100000000002,3.5307560000000002L16.4697,3.53033Q16.3642,3.424841,16.3071,3.287013Q16.25,3.149184,16.25,3Q16.25,2.9261315,16.264400000000002,2.853682Q16.2788,2.781233,16.3071,2.712987Q16.3354,2.644742,16.3764,2.583322Q16.4174,2.521903,16.4697,2.46967Q16.521900000000002,2.417437,16.5833,2.376398Q16.6447,2.335359,16.713,2.30709Q16.7812,2.278822,16.8537,2.264411Q16.926099999999998,2.25,17,2.25Q17.1492,2.25,17.287,2.30709Q17.424799999999998,2.364181,17.5303,2.46967L17.5308,2.470096Z" fill-rule="evenodd" fill="#231F2E" fill-opacity="1"/></g><g><path d="M19.25,12Q19.25,11.9261315,19.264400000000002,11.853682Q19.2788,11.781233,19.3071,11.712987Q19.3354,11.644742,19.3764,11.583322Q19.4174,11.521903,19.4697,11.46967Q19.521900000000002,11.417437,19.5833,11.376398Q19.6447,11.335359,19.713,11.30709Q19.7812,11.278822,19.8537,11.264410999999999Q19.926099999999998,11.25,20,11.25Q20.0739,11.25,20.1463,11.264410999999999Q20.2188,11.278822,20.287,11.30709Q20.3553,11.335359,20.4167,11.376398Q20.4781,11.417437,20.5303,11.46967Q20.5826,11.521903,20.6236,11.583322Q20.6646,11.644742,20.6929,11.712987Q20.7212,11.781233,20.7356,11.853682Q20.75,11.9261315,20.75,12L20.75,15Q20.75,16.5533,19.651699999999998,17.65165Q18.5533,18.75,17,18.75L5.81066,18.75L7.52994,20.469279999999998L7.53033,20.46967Q7.63582,20.57516,7.6929099999999995,20.712989999999998Q7.75,20.85082,7.75,21Q7.75,21.07387,7.73559,21.14632Q7.72118,21.21877,7.6929099999999995,21.287010000000002Q7.66464,21.35526,7.6236,21.41668Q7.58256,21.478099999999998,7.53033,21.53033Q7.4780999999999995,21.58256,7.4166799999999995,21.6236Q7.3552599999999995,21.66464,7.28701,21.692909999999998Q7.21877,21.72118,7.146319999999999,21.735590000000002Q7.073869999999999,21.75,7,21.75Q6.850820000000001,21.75,6.71299,21.692909999999998Q6.57516,21.635820000000002,6.46967,21.53033L3.46967,18.53033Q3.364181,18.42484,3.30709,18.287010000000002Q3.25,18.14918,3.25,18Q3.25,17.85082,3.30709,17.712989999999998Q3.364181,17.57516,3.46967,17.46967L6.4692799999999995,14.47006L6.46967,14.46967Q6.57516,14.364180000000001,6.71299,14.30709Q6.850820000000001,14.25,7,14.25Q7.073869999999999,14.25,7.146319999999999,14.26441Q7.21877,14.27882,7.28701,14.30709Q7.3552599999999995,14.33536,7.4166799999999995,14.3764Q7.4780999999999995,14.41744,7.53033,14.46967Q7.58256,14.5219,7.6236,14.58332Q7.66464,14.64474,7.6929099999999995,14.71299Q7.72118,14.78123,7.73559,14.85368Q7.75,14.92613,7.75,15Q7.75,15.14918,7.6929099999999995,15.28701Q7.63582,15.42484,7.53033,15.53033L5.81066,17.25L17,17.25Q17.932000000000002,17.25,18.591,16.590989999999998Q19.25,15.93198,19.25,15L19.25,12Z" fill-rule="evenodd" fill="#231F2E" fill-opacity="1"/></g><g transform="matrix(0.7071067690849304,0.7071067690849304,-0.7071067690849304,0.7071067690849304,9.373704818151964,-5.953794387367452)"><g><path d="M11.87371826171875,10.338165283203125L17.23085826171875,10.338165283203125Q17.280108261718752,10.338165283203125,17.32840826171875,10.347772283203126Q17.37670826171875,10.357380283203124,17.422198261718748,10.376225283203125Q17.467698261718752,10.395071283203125,17.50864826171875,10.422430283203125Q17.54958826171875,10.449790283203125,17.58441826171875,10.484612283203125Q17.61923826171875,10.519434283203125,17.64659826171875,10.560380283203125Q17.67395826171875,10.601326283203125,17.69279826171875,10.646823283203124Q17.71164826171875,10.692320283203125,17.72124826171875,10.740620183203125Q17.73085826171875,10.788919583203125,17.73085826171875,10.838165283203125Q17.73085826171875,10.887410983203125,17.72124826171875,10.935710383203125Q17.71164826171875,10.984010283203125,17.69279826171875,11.029507283203126Q17.67395826171875,11.075004283203125,17.64659826171875,11.115950283203125Q17.61923826171875,11.156896283203125,17.58441826171875,11.191718283203125Q17.54958826171875,11.226540283203125,17.50864826171875,11.253900283203125Q17.467698261718752,11.281259283203125,17.422198261718748,11.300105283203125Q17.37670826171875,11.318950283203126,17.32840826171875,11.328558283203124Q17.280108261718752,11.338165283203125,17.23085826171875,11.338165283203125L11.87371826171875,11.338165283203125Q11.82447256171875,11.338165283203125,11.77617316171875,11.328558283203124Q11.72787326171875,11.318950283203126,11.68237626171875,11.300105283203125Q11.63687926171875,11.281259283203125,11.59593326171875,11.253900283203125Q11.55498726171875,11.226540283203125,11.52016526171875,11.191718283203125Q11.48534326171875,11.156896283203125,11.45798326171875,11.115950283203125Q11.43062426171875,11.075004283203125,11.41177826171875,11.029507283203126Q11.392933261718749,10.984010283203125,11.38332526171875,10.935710383203125Q11.37371826171875,10.887410983203125,11.37371826171875,10.838165283203125Q11.37371826171875,10.788919583203125,11.38332526171875,10.740620183203125Q11.392933261718749,10.692320283203125,11.41177826171875,10.646823283203124Q11.43062426171875,10.601326283203125,11.45798326171875,10.560380283203125Q11.48534326171875,10.519434283203125,11.52016526171875,10.484612283203125Q11.55498726171875,10.449790283203125,11.59593326171875,10.422430283203125Q11.63687926171875,10.395071283203125,11.68237626171875,10.376225283203125Q11.72787326171875,10.357380283203124,11.77617316171875,10.347772283203126Q11.82447256171875,10.338165283203125,11.87371826171875,10.338165283203125Z" fill-rule="evenodd" fill="#2882FF" fill-opacity="1"/></g><g><path d="M14.3772819609375,8.691718283203125Q14.3069549609375,8.621392283203125,14.2688949609375,8.529507283203126Q14.2308349609375,8.437621483203126,14.2308349609375,8.338165283203125Q14.2308349609375,8.288919583203125,14.2404419609375,8.240620183203125Q14.250049960937499,8.192320283203125,14.2688949609375,8.146823283203124Q14.2877409609375,8.101326283203125,14.3150999609375,8.060380283203125Q14.3424599609375,8.019434283203125,14.3772819609375,7.984612283203125Q14.4121039609375,7.949790283203125,14.4530499609375,7.922430283203125Q14.4939959609375,7.895071283203125,14.5394929609375,7.876225283203125Q14.5849899609375,7.857380283203125,14.6332898609375,7.847772283203125Q14.6815892609375,7.838165283203125,14.7308349609375,7.838165283203125Q14.8302911609375,7.838165283203125,14.9221769609375,7.876225283203125Q15.0140619609375,7.914285283203125,15.0843879609375,7.984612283203125L17.5843849609375,10.484615283203125Q17.6547149609375,10.554935283203125,17.6927749609375,10.646825283203125Q17.7308349609375,10.738705283203124,17.7308349609375,10.838165283203125Q17.7308349609375,10.937625283203126,17.6927749609375,11.029505283203125Q17.6547149609375,11.121395283203125,17.5843849609375,11.191715283203125L15.0845449609375,13.691565283203126L15.0843879609375,13.691715283203125Q15.0140619609375,13.762045283203125,14.9221769609375,13.800105283203125Q14.8302911609375,13.838165283203125,14.7308349609375,13.838165283203125Q14.6815892609375,13.838165283203125,14.6332898609375,13.828555283203125Q14.5849899609375,13.818945283203124,14.5394929609375,13.800105283203125Q14.4939959609375,13.781255283203125,14.4530499609375,13.753895283203125Q14.4121039609375,13.726535283203125,14.3772819609375,13.691715283203125Q14.3424599609375,13.656895283203125,14.3150999609375,13.615945283203125Q14.2877409609375,13.575005283203126,14.2688949609375,13.529505283203125Q14.250049960937499,13.484005283203125,14.2404419609375,13.435715283203125Q14.2308349609375,13.387415283203126,14.2308349609375,13.338165283203125Q14.2308349609375,13.238705283203124,14.2688949609375,13.146825283203125Q14.3069549609375,13.054935283203125,14.3772819609375,12.984615283203125L14.3774389609375,12.984455283203125L16.5237249609375,10.838165283203125L14.3772819609375,8.691718283203125L14.3772819609375,8.691718283203125Z" fill-rule="evenodd" fill="#2882FF" fill-opacity="1"/></g></g></g></svg>