<svg xmlns="http://www.w3.org/2000/svg" xmlns:xlink="http://www.w3.org/1999/xlink" fill="none" version="1.1" width="24" height="24" viewBox="0 0 24 24"><defs><clipPath id="master_svg0_74_13376"><rect x="0" y="0" width="24" height="24" rx="0"/></clipPath></defs><g clip-path="url(#master_svg0_74_13376)"><g><g transform="matrix(0,1,-1,0,21.53515625,-2.46484375)"><path d="M12,8.78515625L12.724701,8.78515625Q13.88836,8.78515625,14.90633,9.48124915Q15.88478,10.15032025,16.50583,11.31534625L16.897199999999998,12.04923625Q17.34505,12.889486250000001,18.01965,13.35077625Q18.65478,13.785086249999999,19.35479,13.78515625L23.4648,13.78515625Q23.5387,13.78515625,23.6111,13.79956625Q23.683500000000002,13.81397625,23.7518,13.842246249999999Q23.82,13.87051625,23.881500000000003,13.91155625Q23.9429,13.95259625,23.9951,14.00482625Q24.0473,14.057056249999999,24.0884,14.11847625Q24.1294,14.179896249999999,24.1577,14.24814625Q24.186,14.31638625,24.200400000000002,14.38883625Q24.2148,14.46128625,24.2148,14.53515625Q24.2148,14.60902625,24.200400000000002,14.68147625Q24.186,14.75392625,24.1577,14.82216625Q24.1294,14.890416250000001,24.0884,14.95183625Q24.0473,15.013256250000001,23.9951,15.06548625Q23.9429,15.11771625,23.881500000000003,15.15875625Q23.82,15.19979625,23.7518,15.228066250000001Q23.683500000000002,15.25633625,23.6111,15.27074625Q23.5387,15.28515625,23.4648,15.28515625L19.35465,15.28515625Q18.19089,15.28504625,17.17296,14.58897625Q16.194490000000002,13.919886250000001,15.57365,12.75507625L15.18216,12.02096625Q14.73425,11.18074625,14.05964,10.71944625Q13.42454,10.28515625,12.724701,10.28515625L12,10.28515625Q11.9261315,10.28515625,11.853682,10.270745250000001Q11.781233,10.25633425,11.712987,10.22806625Q11.644742,10.19979725,11.583322,10.15875825Q11.521903,10.11771925,11.46967,10.06548625Q11.417437,10.01325325,11.376398,9.95183425Q11.335359,9.89041425,11.30709,9.82216925Q11.278822,9.75392325,11.264410999999999,9.68147425Q11.25,9.60902475,11.25,9.53515625Q11.25,9.46128775,11.264410999999999,9.38883825Q11.278822,9.31638925,11.30709,9.24814325Q11.335359,9.17989825,11.376398,9.11847825Q11.417437,9.05705925,11.46967,9.00482625Q11.521903,8.95259325,11.583322,8.91155425Q11.644742,8.87051525,11.712987,8.84224625Q11.781233,8.81397825,11.853682,8.799567249999999Q11.9261315,8.78515625,12,8.78515625Z" fill-rule="evenodd" fill="#231F2E" fill-opacity="1"/></g><g transform="matrix(0,1,-1,0,26.53515625,-7.46484375)"><path d="M17.726986,13.78515625L17,13.78515625Q16.9261315,13.78515625,16.853682,13.79956625Q16.781233,13.81397625,16.712987,13.842246249999999Q16.644742,13.87051625,16.583322,13.91155625Q16.521903000000002,13.95259625,16.46967,14.00482625Q16.417437,14.057056249999999,16.376398000000002,14.11847625Q16.335359,14.179896249999999,16.30709,14.24814625Q16.278822,14.31638625,16.264411,14.38883625Q16.25,14.46128625,16.25,14.53515625Q16.25,14.60902625,16.264411,14.68147625Q16.278822,14.75392625,16.30709,14.82216625Q16.335359,14.890416250000001,16.376398000000002,14.95183625Q16.417437,15.013256250000001,16.46967,15.06548625Q16.521903000000002,15.11771625,16.583322,15.15875625Q16.644742,15.19979625,16.712987,15.228066250000001Q16.781233,15.25633625,16.853682,15.27074625Q16.9261315,15.28515625,17,15.28515625L17.726986,15.28515625Q18.89105,15.28515625,19.90932,14.58836625Q20.88799,13.91867625,21.509,12.75272625L21.89755,12.02242625Q22.34521,11.18165625,23.020220000000002,10.719866249999999Q23.65572,10.28511525,24.3562,10.28515625L28.4648,10.28515625Q28.5387,10.28515625,28.6111,10.270745250000001Q28.683500000000002,10.25633425,28.7518,10.22806625Q28.82,10.19979725,28.881500000000003,10.15875825Q28.9429,10.11771925,28.9951,10.06548625Q29.0473,10.01325325,29.0884,9.95183425Q29.1294,9.89041425,29.1577,9.82216925Q29.186,9.75392325,29.200400000000002,9.68147425Q29.2148,9.60902475,29.2148,9.53515625Q29.2148,9.46128775,29.200400000000002,9.38883825Q29.186,9.31638925,29.1577,9.24814325Q29.1294,9.17989825,29.0884,9.11847825Q29.0473,9.05705925,28.9951,9.00482625Q28.9429,8.95259325,28.881500000000003,8.91155425Q28.82,8.87051525,28.7518,8.84224625Q28.683500000000002,8.81397825,28.6111,8.799567249999999Q28.5387,8.78515625,28.4648,8.78515625L24.35629,8.78515625Q23.191769999999998,8.78508825,22.17327,9.48185585Q21.19429,10.15159525,20.57331,11.31788625L20.18508,12.04758625Q19.73712,12.88863625,19.06224,13.350446250000001Q18.42696,13.78515625,17.726986,13.78515625Z" fill-rule="evenodd" fill="#231F2E" fill-opacity="1"/></g><g transform="matrix(0,1,-1,0,37.9998779296875,-2.0001220703125)"><path d="M20.530484,17.4697019296875L23.53033,20.4695479296875Q23.63582,20.5750379296875,23.69291,20.7128679296875Q23.75,20.8506979296875,23.75,20.9998779296875Q23.75,21.1490579296875,23.69291,21.2868879296875Q23.63582,21.4247179296875,23.53033,21.5302079296875L20.530792,24.5297479296875L20.53033,24.5302079296875Q20.424841,24.6356979296875,20.287013,24.6927879296875Q20.149184,24.7498779296875,20,24.7498779296875Q19.9261315,24.7498779296875,19.853682,24.735467929687502Q19.781233,24.7210579296875,19.712987,24.6927879296875Q19.644742,24.6645179296875,19.583322,24.6234779296875Q19.521903000000002,24.5824379296875,19.46967,24.5302079296875Q19.417437,24.4779779296875,19.376398000000002,24.4165579296875Q19.335359,24.3551379296875,19.30709,24.286887929687502Q19.278822,24.2186479296875,19.264411,24.1461979296875Q19.25,24.0737479296875,19.25,23.9998779296875Q19.25,23.8506979296875,19.30709,23.712867929687498Q19.364181,23.5750379296875,19.46967,23.4695479296875L19.470132,23.4690879296875L21.93934,20.9998779296875L19.469824,18.5303619296875L19.46967,18.5302079296875Q19.364181,18.4247189296875,19.30709,18.2868909296875Q19.25,18.1490619296875,19.25,17.9998779296875Q19.25,17.9260094296875,19.264411,17.8535599296875Q19.278822,17.7811109296875,19.30709,17.7128649296875Q19.335359,17.6446199296875,19.376398000000002,17.5831999296875Q19.417437,17.521780929687502,19.46967,17.4695479296875Q19.521903000000002,17.4173149296875,19.583322,17.376275929687502Q19.644742,17.3352369296875,19.712987,17.3069679296875Q19.781233,17.2786999296875,19.853682,17.2642889296875Q19.9261315,17.2498779296875,20,17.2498779296875Q20.149184,17.2498779296875,20.287013,17.3069679296875Q20.424841,17.3640589296875,20.53033,17.4695479296875L20.530484,17.4697019296875Z" fill-rule="evenodd" fill="#231F2E" fill-opacity="1"/></g><g transform="matrix(0,1,-1,0,27.9998779296875,7.9998779296875)"><path d="M10.530484,17.4697019296875L13.53033,20.4695479296875Q13.635819999999999,20.5750379296875,13.69291,20.7128679296875Q13.75,20.8506979296875,13.75,20.9998779296875Q13.75,21.1490579296875,13.69291,21.2868879296875Q13.635819999999999,21.4247179296875,13.53033,21.5302079296875L10.530792,24.5297479296875L10.53033,24.5302079296875Q10.424841,24.6356979296875,10.287013,24.6927879296875Q10.149184,24.7498779296875,10,24.7498779296875Q9.9261315,24.7498779296875,9.853682,24.735467929687502Q9.781233,24.7210579296875,9.712987,24.6927879296875Q9.644742,24.6645179296875,9.583322,24.6234779296875Q9.521903,24.5824379296875,9.46967,24.5302079296875Q9.417437,24.4779779296875,9.376398,24.4165579296875Q9.335359,24.3551379296875,9.30709,24.286887929687502Q9.278822,24.2186479296875,9.264410999999999,24.1461979296875Q9.25,24.0737479296875,9.25,23.9998779296875Q9.25,23.8506979296875,9.30709,23.712867929687498Q9.364181,23.5750379296875,9.46967,23.4695479296875L9.470132,23.4690879296875L11.93934,20.9998779296875L9.469824,18.5303619296875L9.46967,18.5302079296875Q9.364181,18.4247189296875,9.30709,18.2868909296875Q9.25,18.1490619296875,9.25,17.9998779296875Q9.25,17.9260094296875,9.264410999999999,17.8535599296875Q9.278822,17.7811109296875,9.30709,17.7128649296875Q9.335359,17.6446199296875,9.376398,17.5831999296875Q9.417437,17.521780929687502,9.46967,17.4695479296875Q9.521903,17.4173149296875,9.583322,17.376275929687502Q9.644742,17.3352369296875,9.712987,17.3069679296875Q9.781233,17.2786999296875,9.853682,17.2642889296875Q9.9261315,17.2498779296875,10,17.2498779296875Q10.149184,17.2498779296875,10.287013,17.3069679296875Q10.424841,17.3640589296875,10.53033,17.4695479296875L10.530484,17.4697019296875Z" fill-rule="evenodd" fill="#231F2E" fill-opacity="1"/></g></g><g><g><g><g><path d="M8.53850533203125,7.17494L9.866685332031249,10.62821Q9.91403533203125,10.75132,9.97929533203125,10.865929999999999Q10.044565332031251,10.980550000000001,10.126265332031249,11.08409Q10.20797533203125,11.18763,10.30427533203125,11.27775Q10.40058533203125,11.36788,10.50930533203125,11.44255Q10.61802533203125,11.51722,10.736715332031249,11.57475Q10.85539533203125,11.63228,10.981365332031249,11.67137Q11.10733533203125,11.71046,11.237745332031249,11.73023Q11.36814533203125,11.75,11.500045332031249,11.75Q11.58601533203125,11.75,11.67157533203125,11.74157Q11.75713533203125,11.73315,11.841445332031249,11.71637Q11.92576533203125,11.6996,12.00804533203125,11.67465Q12.09030533203125,11.64969,12.16973533203125,11.61679Q12.24916533203125,11.58389,12.32498533203125,11.54336Q12.40080533203125,11.50284,12.47228533203125,11.45507Q12.543775332031249,11.40731,12.61023533203125,11.35277Q12.67668533203125,11.29823,12.73747533203125,11.23744Q12.798275332031249,11.17664,12.85281533203125,11.11019Q12.907355332031251,11.04373,12.95511533203125,10.972249999999999Q13.00287533203125,10.90076,13.04340533203125,10.82494Q13.083935332031249,10.74912,13.11683533203125,10.66969Q13.14973533203125,10.59027,13.174685332031249,10.508Q13.199645332031249,10.42573,13.21641533203125,10.34141Q13.233185332031251,10.25709,13.24161533203125,10.17153Q13.250045332031249,10.08597,13.250045332031249,10Q13.250045332031249,9.67506,13.133395332031249,9.37179L10.44108533203125,2.371787Q10.39374533203125,2.2486829999999998,10.32847533203125,2.134067Q10.263215332031251,2.01945,10.18150533203125,1.91591Q10.09980533203125,1.81237,10.00349533203125,1.72225Q9.90719533203125,1.63213,9.79847533203125,1.55745Q9.68975533203125,1.48278,9.57106533203125,1.42525Q9.45237533203125,1.36772,9.32640533203125,1.32863Q9.20044533203125,1.28954,9.07003533203125,1.26977Q8.93962533203125,1.25,8.80773533203125,1.25L8.269275332031249,1.25Q8.137375332031251,1.25,8.00697533203125,1.26977Q7.87656533203125,1.28954,7.75059533203125,1.32863Q7.62463533203125,1.36772,7.50594533203125,1.42525Q7.38725533203125,1.48278,7.27853533203125,1.55745Q7.16981533203125,1.63213,7.0735053320312495,1.72225Q6.97720533203125,1.81237,6.8955053320312505,1.91591Q6.81379533203125,2.01945,6.7485253320312495,2.134066Q6.68326533203125,2.2486829999999998,6.63591533203125,2.371786L3.94369533203125,9.37157L3.94361533203125,9.37179Q3.82696533203125,9.67506,3.82696533203125,10Q3.82696533203125,10.08597,3.8353953320312497,10.17153Q3.84381533203125,10.25709,3.86059533203125,10.34141Q3.87736533203125,10.42573,3.9023153320312503,10.508Q3.92727533203125,10.59027,3.96017533203125,10.66969Q3.9930753320312498,10.74912,4.03360533203125,10.82494Q4.07412533203125,10.90076,4.12189533203125,10.972249999999999Q4.16965533203125,11.04373,4.22419533203125,11.11019Q4.27873533203125,11.17664,4.33952533203125,11.23744Q4.40031533203125,11.29823,4.46677533203125,11.35277Q4.53323533203125,11.40731,4.6047173320312496,11.45507Q4.67620033203125,11.50283,4.75202133203125,11.54336Q4.82784133203125,11.58389,4.90726933203125,11.61679Q4.98669733203125,11.64969,5.06896733203125,11.67465Q5.15123733203125,11.6996,5.23555733203125,11.71637Q5.3198773320312505,11.73315,5.40543533203125,11.74157Q5.49099333203125,11.75,5.57696533203125,11.75Q5.70886033203125,11.75,5.83926533203125,11.73023Q5.96967033203125,11.71046,6.09563933203125,11.67137Q6.22160833203125,11.63228,6.34029433203125,11.57475Q6.45898133203125,11.51721,6.56770333203125,11.44254Q6.6764253320312505,11.36788,6.77272533203125,11.27775Q6.86903533203125,11.18763,6.95073533203125,11.08409Q7.03244533203125,10.980550000000001,7.09770533203125,10.865929999999999Q7.16297533203125,10.75132,7.21031533203125,10.62821L8.53850533203125,7.17494Z" fill-rule="evenodd" fill="#FFFFFF" fill-opacity="1"/></g><g><path d="M6.6773360973886104,5.75L10.354337737388612,5.75Q10.440307737388611,5.75,10.52586773738861,5.75843Q10.611427737388611,5.76685,10.695747737388611,5.7836300000000005Q10.78006773738861,5.8004,10.86233773738861,5.82535Q10.944607737388612,5.85031,11.02403773738861,5.88321Q11.103457737388611,5.91611,11.17927773738861,5.95664Q11.25509773738861,5.99716,11.32658773738861,6.04493Q11.398067737388612,6.09269,11.464527737388611,6.14723Q11.53098773738861,6.20177,11.591777737388611,6.26256Q11.652567737388612,6.32335,11.707107737388611,6.38981Q11.76164773738861,6.45627,11.80940773738861,6.5277519999999996Q11.85717773738861,6.599235,11.897697737388611,6.675056Q11.938227737388612,6.750876,11.97112773738861,6.830304Q12.004027737388611,6.909732,12.028987737388611,6.992002Q12.053937737388612,7.074272,12.070707737388611,7.158592Q12.08748773738861,7.2429120000000005,12.095907737388611,7.32847Q12.104337737388612,7.414028,12.104337737388612,7.5Q12.104337737388612,7.585972,12.095907737388611,7.67153Q12.08748773738861,7.7570879999999995,12.070707737388611,7.841408Q12.053937737388612,7.925728,12.028987737388611,8.007998Q12.004027737388611,8.090268,11.97112773738861,8.169696Q11.938227737388612,8.249124,11.897697737388611,8.324944Q11.85717773738861,8.400765,11.80940773738861,8.472248Q11.76164773738861,8.54373,11.707107737388611,8.61019Q11.652567737388612,8.67665,11.591777737388611,8.73744Q11.53098773738861,8.79823,11.464527737388611,8.85277Q11.398067737388612,8.90731,11.32658773738861,8.95507Q11.25509773738861,9.002839999999999,11.17927773738861,9.04336Q11.103457737388611,9.08389,11.02403773738861,9.11679Q10.944607737388612,9.14969,10.86233773738861,9.17465Q10.78006773738861,9.1996,10.695747737388611,9.21637Q10.611427737388611,9.23315,10.52586773738861,9.24157Q10.440307737388611,9.25,10.354337737388612,9.25L6.6773360973886104,9.25Q6.591364137388611,9.25,6.505805737388611,9.24157Q6.42024773738861,9.23315,6.3359277373886105,9.21637Q6.2516077373886105,9.1996,6.169337737388611,9.17465Q6.087067737388611,9.14969,6.007639737388611,9.11679Q5.928212737388611,9.08389,5.8523917373886105,9.04336Q5.776571737388611,9.002839999999999,5.7050887373886106,8.95507Q5.633607737388611,8.90731,5.567147737388611,8.85277Q5.500687737388611,8.79823,5.439897737388611,8.73744Q5.379107737388611,8.67665,5.324567737388611,8.61019Q5.270027737388611,8.54373,5.222267737388611,8.472248Q5.174497737388611,8.400765,5.13397773738861,8.324944Q5.093447737388611,8.249124,5.06054773738861,8.169696Q5.027647737388611,8.090268,5.0026877373886105,8.007998Q4.977737737388611,7.925728,4.960957737388611,7.841408Q4.944187737388611,7.7570879999999995,4.935767737388611,7.67153Q4.927337737388611,7.585972,4.927337737388611,7.5Q4.927337737388611,7.414028,4.935767737388611,7.32847Q4.944187737388611,7.2429120000000005,4.960957737388611,7.158592Q4.977737737388611,7.074272,5.0026877373886105,6.992002Q5.027647737388611,6.909732,5.06054773738861,6.830304Q5.093447737388611,6.750876,5.13397773738861,6.675056Q5.174497737388611,6.599235,5.222267737388611,6.5277519999999996Q5.270027737388611,6.45627,5.324567737388611,6.38981Q5.379107737388611,6.32335,5.439897737388611,6.26256Q5.500687737388611,6.20177,5.567147737388611,6.14723Q5.633607737388611,6.09269,5.7050887373886106,6.04493Q5.776571737388611,5.99716,5.8523917373886105,5.95664Q5.928212737388611,5.91611,6.007639737388611,5.88321Q6.087067737388611,5.85031,6.169337737388611,5.82535Q6.2516077373886105,5.8004,6.3359277373886105,5.7836300000000005Q6.42024773738861,5.76685,6.505805737388611,5.75843Q6.591364137388611,5.75,6.6773360973886104,5.75Z" fill-rule="evenodd" fill="#FFFFFF" fill-opacity="1"/></g></g><g><g><path d="M11.82696533203125,6.23077L11.82696533203125,3Q11.82696533203125,2.914028,11.83539533203125,2.82847Q11.84381533203125,2.742912,11.86059533203125,2.658592Q11.87736533203125,2.574272,11.90231533203125,2.4920020000000003Q11.92727533203125,2.409732,11.96017533203125,2.330304Q11.99307533203125,2.250876,12.03360533203125,2.175056Q12.074125332031251,2.099235,12.12189533203125,2.027752Q12.16965533203125,1.95627,12.22419533203125,1.88981Q12.27873533203125,1.82335,12.33952533203125,1.76256Q12.40031533203125,1.70177,12.46677533203125,1.64723Q12.53323533203125,1.59269,12.60471733203125,1.54493Q12.67620033203125,1.49716,12.75202133203125,1.45664Q12.82784133203125,1.41611,12.90726933203125,1.38321Q12.98669733203125,1.35031,13.06896733203125,1.32535Q13.15123733203125,1.3004,13.23555733203125,1.28363Q13.31987733203125,1.26685,13.40543533203125,1.25843Q13.49099333203125,1.25,13.57696533203125,1.25L16.26927533203125,1.25Q17.66326533203125,1.25,18.64895533203125,2.235698Q19.63465533203125,3.221397,19.63465533203125,4.61538Q19.63465533203125,5.2921,19.402365332031252,5.8726Q20.17311533203125,6.83436,20.17311533203125,8.11539Q20.17311533203125,9.62089,19.10856533203125,10.68545Q18.04401533203125,11.75,16.53850533203125,11.75L13.57696533203125,11.75Q13.49099333203125,11.75,13.40543533203125,11.74157Q13.31987733203125,11.73315,13.23555733203125,11.71637Q13.15123733203125,11.6996,13.06896733203125,11.67465Q12.98669733203125,11.64969,12.90726933203125,11.61679Q12.82784133203125,11.58389,12.75202133203125,11.54336Q12.67620033203125,11.50284,12.60471733203125,11.45507Q12.53323533203125,11.40731,12.46677533203125,11.35277Q12.40031533203125,11.29823,12.33952533203125,11.23744Q12.27873533203125,11.17665,12.22419533203125,11.11019Q12.16965533203125,11.04373,12.12189533203125,10.972249999999999Q12.074125332031251,10.90076,12.03360533203125,10.82494Q11.99307533203125,10.74912,11.96017533203125,10.669699999999999Q11.92727533203125,10.59027,11.90231533203125,10.508Q11.87736533203125,10.42573,11.86059533203125,10.34141Q11.84381533203125,10.25709,11.83539533203125,10.17153Q11.82696533203125,10.08597,11.82696533203125,10L11.82696533203125,6.23077ZM15.32696533203125,7.98077L15.32696533203125,8.25L16.53850533203125,8.25Q16.67311533203125,8.25,16.67311533203125,8.11539Q16.67311533203125,7.98077,16.53850533203125,7.98077Q16.48436533203125,7.98077,16.430335332031248,7.97742Q16.35050533203125,7.98077,16.26927533203125,7.98077L15.32696533203125,7.98077Z" fill-rule="evenodd" fill="#FFFFFF" fill-opacity="1"/></g></g></g><g><g><g><path d="M8.53850533203125,4.38926L10.80003533203125,10.26923Q10.84084533203125,10.37536,10.91128533203125,10.46461Q10.98171533203125,10.55387,11.07544533203125,10.61823Q11.16916533203125,10.6826,11.27775533203125,10.7163Q11.38634533203125,10.75,11.500045332031249,10.75Q11.57390533203125,10.75,11.64635533203125,10.73559Q11.71880533203125,10.72118,11.787055332031251,10.692910000000001Q11.85529533203125,10.66464,11.91671533203125,10.6236Q11.97813533203125,10.58256,12.03037533203125,10.53033Q12.08260533203125,10.478100000000001,12.12364533203125,10.41668Q12.164685332031251,10.355260000000001,12.19295533203125,10.28701Q12.22121533203125,10.21877,12.23563533203125,10.14632Q12.250045332031249,10.07387,12.250045332031249,10Q12.250045332031249,9.86074,12.200055332031251,9.73077L12.199925332031249,9.73043L9.50774533203125,2.730766Q9.46692533203125,2.624645,9.39649533203125,2.53539Q9.32606533203125,2.446135,9.23233533203125,2.381766Q9.13861533203125,2.317397,9.03002533203125,2.283699Q8.92143533203125,2.25,8.80773533203125,2.25L8.269275332031249,2.25Q8.15557533203125,2.25,8.04698533203125,2.283699Q7.93839533203125,2.317397,7.84467533203125,2.381766Q7.75094533203125,2.446135,7.68051533203125,2.53539Q7.610075332031251,2.624645,7.56926533203125,2.730766L4.87715133203125,9.730260000000001L4.87695633203125,9.73077Q4.82696533203125,9.86074,4.82696533203125,10Q4.82696533203125,10.07387,4.84137633203125,10.14632Q4.85578733203125,10.21877,4.88405533203125,10.28701Q4.91232433203125,10.355260000000001,4.95336333203125,10.41668Q4.99440233203125,10.478100000000001,5.04663533203125,10.53033Q5.09886833203125,10.58256,5.16028733203125,10.6236Q5.22170733203125,10.66464,5.28995233203125,10.692910000000001Q5.35819833203125,10.72118,5.43064733203125,10.73559Q5.50309683203125,10.75,5.57696533203125,10.75Q5.69066433203125,10.75,5.79925433203125,10.7163Q5.90784433203125,10.6826,6.00156733203125,10.61823Q6.09529133203125,10.55387,6.16572533203125,10.46461Q6.23615933203125,10.37536,6.27697433203125,10.26923L6.2770433320312495,10.26906L8.53850533203125,4.38926Z" fill-rule="evenodd" fill="#2882FF" fill-opacity="1"/></g><g><path d="M6.6773360973886104,6.75L10.354337737388612,6.75Q10.428207737388611,6.75,10.500657737388611,6.764411Q10.57310773738861,6.778822,10.64134773738861,6.80709Q10.709597737388611,6.835359,10.771017737388611,6.876398Q10.832437737388611,6.917437,10.884667737388611,6.96967Q10.93689773738861,7.021903,10.977937737388611,7.083322Q11.01897773738861,7.144742,11.047247737388611,7.212987Q11.075517737388612,7.281233,11.08992773738861,7.353682Q11.104337737388612,7.4261315,11.104337737388612,7.5Q11.104337737388612,7.5738685,11.08992773738861,7.646318Q11.075517737388612,7.718767,11.047247737388611,7.787013Q11.01897773738861,7.855258,10.977937737388611,7.916678Q10.93689773738861,7.978097,10.884667737388611,8.03033Q10.832437737388611,8.082563,10.771017737388611,8.123602Q10.709597737388611,8.164641,10.64134773738861,8.19291Q10.57310773738861,8.221178,10.500657737388611,8.235589000000001Q10.428207737388611,8.25,10.354337737388612,8.25L6.6773360973886104,8.25Q6.603467537388611,8.25,6.531018737388611,8.235589000000001Q6.458568737388611,8.221178,6.390323737388611,8.19291Q6.322077737388611,8.164641,6.260658737388611,8.123602Q6.199238737388611,8.082563,6.147005737388611,8.03033Q6.0947727373886105,7.978097,6.053733737388611,7.916678Q6.01269473738861,7.855258,5.984426737388611,7.787013Q5.956157737388611,7.718767,5.941746737388611,7.646318Q5.927335737388611,7.5738685,5.927335737388611,7.5Q5.927335737388611,7.4261315,5.941746737388611,7.353682Q5.956157737388611,7.281233,5.984426737388611,7.212987Q6.01269473738861,7.144742,6.053733737388611,7.083322Q6.0947727373886105,7.021903,6.147005737388611,6.96967Q6.199238737388611,6.917437,6.260658737388611,6.876398Q6.322077737388611,6.835359,6.390323737388611,6.80709Q6.458568737388611,6.778822,6.531018737388611,6.764411Q6.603467537388611,6.75,6.6773360973886104,6.75Z" fill-rule="evenodd" fill="#2882FF" fill-opacity="1"/></g></g><g><g><path d="M12.82696533203125,6.23077L12.82696533203125,3Q12.82696533203125,2.9261315,12.841376332031249,2.853682Q12.85578733203125,2.781233,12.88405533203125,2.712987Q12.91232433203125,2.644742,12.95336333203125,2.583322Q12.99440233203125,2.521903,13.04663533203125,2.46967Q13.09886833203125,2.417437,13.16028733203125,2.376398Q13.22170733203125,2.335359,13.28995233203125,2.30709Q13.35819833203125,2.278822,13.43064733203125,2.264411Q13.50309683203125,2.25,13.57696533203125,2.25L16.26927533203125,2.25Q17.24904533203125,2.25,17.94185533203125,2.9428051Q18.63465533203125,3.63561,18.63465533203125,4.61538Q18.63465533203125,5.4244699999999995,18.162225332031248,6.03786Q18.28545533203125,6.13643,18.40145533203125,6.25243Q19.17311533203125,7.02409,19.17311533203125,8.11539Q19.17311533203125,9.20668,18.40145533203125,9.97834Q17.62979533203125,10.75,16.53850533203125,10.75L13.57696533203125,10.75Q13.50309683203125,10.75,13.43064733203125,10.73559Q13.35819833203125,10.72118,13.28995233203125,10.692910000000001Q13.22170733203125,10.66464,13.16028733203125,10.6236Q13.09886833203125,10.58256,13.04663533203125,10.53033Q12.99440233203125,10.478100000000001,12.95336333203125,10.41668Q12.91232433203125,10.355260000000001,12.88405533203125,10.28701Q12.85578733203125,10.21877,12.841376332031249,10.14632Q12.82696533203125,10.07387,12.82696533203125,10L12.82696533203125,6.23077ZM14.32696533203125,6.98077L14.32696533203125,9.25L16.53850533203125,9.25Q17.00847533203125,9.25,17.34079533203125,8.91768Q17.67311533203125,8.58536,17.67311533203125,8.11539Q17.67311533203125,7.64541,17.34079533203125,7.31309Q17.00847533203125,6.98077,16.53850533203125,6.98077Q16.49190533203125,6.98077,16.44567533203125,6.975Q16.35866533203125,6.98077,16.26927533203125,6.98077L14.32696533203125,6.98077ZM14.32696533203125,5.48077L16.26927533203125,5.48077Q16.62772533203125,5.48077,16.88119533203125,5.2273Q17.13465533203125,4.97384,17.13465533203125,4.61538Q17.13465533203125,4.2569300000000005,16.88119533203125,4.00347Q16.62772533203125,3.75,16.26927533203125,3.75L14.32696533203125,3.75L14.32696533203125,5.48077Z" fill-rule="evenodd" fill="#2882FF" fill-opacity="1"/></g></g></g></g></g></svg>