<svg xmlns="http://www.w3.org/2000/svg" xmlns:xlink="http://www.w3.org/1999/xlink" fill="none" version="1.1" width="24" height="24" viewBox="0 0 24 24"><defs><clipPath id="master_svg0_48_02148"><rect x="0" y="0" width="24" height="24" rx="0"/></clipPath></defs><g clip-path="url(#master_svg0_48_02148)"><g><path d="M17.5308,2.470096L20.5303,5.46967Q20.6358,5.57516,20.6929,5.71299Q20.75,5.850820000000001,20.75,6Q20.75,6.149179999999999,20.6929,6.28701Q20.6358,6.42484,20.5303,6.53033L17.5307,9.52994L17.5303,9.53033Q17.424799999999998,9.635819999999999,17.287,9.692910000000001Q17.1492,9.75,17,9.75Q16.926099999999998,9.75,16.8537,9.73559Q16.7812,9.72118,16.713,9.692910000000001Q16.6447,9.66464,16.5833,9.6236Q16.521900000000002,9.58256,16.4697,9.53033Q16.4174,9.478100000000001,16.3764,9.41668Q16.3354,9.355260000000001,16.3071,9.28701Q16.2788,9.21877,16.264400000000002,9.14632Q16.25,9.07387,16.25,9Q16.25,8.850819999999999,16.3071,8.71299Q16.3642,8.57516,16.4697,8.46967L16.4703,8.46904L18.1893,6.75L7,6.75Q6.068020000000001,6.75,5.40901,7.40901Q4.75,8.06802,4.75,9L4.75,12Q4.75,12.07387,4.735589,12.14632Q4.721178,12.21877,4.69291,12.28701Q4.664641,12.35526,4.623602,12.41668Q4.582563,12.4781,4.53033,12.53033Q4.478097,12.58256,4.416678,12.6236Q4.355258,12.66464,4.287013,12.69291Q4.218767,12.72118,4.146318,12.73559Q4.0738685,12.75,4,12.75Q3.9261315,12.75,3.853682,12.73559Q3.781233,12.72118,3.712987,12.69291Q3.644742,12.66464,3.583322,12.6236Q3.521903,12.58256,3.46967,12.53033Q3.417437,12.4781,3.376398,12.41668Q3.335359,12.35526,3.30709,12.28701Q3.278822,12.21877,3.264411,12.14632Q3.25,12.07387,3.25,12L3.25,9Q3.25,7.4467,4.34835,6.34835Q5.4467,5.25,7,5.25L18.1893,5.25L16.470100000000002,3.5307560000000002L16.4697,3.53033Q16.3642,3.424841,16.3071,3.287013Q16.25,3.149184,16.25,3Q16.25,2.9261315,16.264400000000002,2.853682Q16.2788,2.781233,16.3071,2.712987Q16.3354,2.644742,16.3764,2.583322Q16.4174,2.521903,16.4697,2.46967Q16.521900000000002,2.417437,16.5833,2.376398Q16.6447,2.335359,16.713,2.30709Q16.7812,2.278822,16.8537,2.264411Q16.926099999999998,2.25,17,2.25Q17.1492,2.25,17.287,2.30709Q17.424799999999998,2.364181,17.5303,2.46967L17.5308,2.470096Z" fill-rule="evenodd" fill="#231F2E" fill-opacity="1"/></g><g><path d="M19.25,12Q19.25,11.9261315,19.264400000000002,11.853682Q19.2788,11.781233,19.3071,11.712987Q19.3354,11.644742,19.3764,11.583322Q19.4174,11.521903,19.4697,11.46967Q19.521900000000002,11.417437,19.5833,11.376398Q19.6447,11.335359,19.713,11.30709Q19.7812,11.278822,19.8537,11.264410999999999Q19.926099999999998,11.25,20,11.25Q20.0739,11.25,20.1463,11.264410999999999Q20.2188,11.278822,20.287,11.30709Q20.3553,11.335359,20.4167,11.376398Q20.4781,11.417437,20.5303,11.46967Q20.5826,11.521903,20.6236,11.583322Q20.6646,11.644742,20.6929,11.712987Q20.7212,11.781233,20.7356,11.853682Q20.75,11.9261315,20.75,12L20.75,15Q20.75,16.5533,19.651699999999998,17.65165Q18.5533,18.75,17,18.75L5.81066,18.75L7.52994,20.469279999999998L7.53033,20.46967Q7.63582,20.57516,7.6929099999999995,20.712989999999998Q7.75,20.85082,7.75,21Q7.75,21.07387,7.73559,21.14632Q7.72118,21.21877,7.6929099999999995,21.287010000000002Q7.66464,21.35526,7.6236,21.41668Q7.58256,21.478099999999998,7.53033,21.53033Q7.4780999999999995,21.58256,7.4166799999999995,21.6236Q7.3552599999999995,21.66464,7.28701,21.692909999999998Q7.21877,21.72118,7.146319999999999,21.735590000000002Q7.073869999999999,21.75,7,21.75Q6.850820000000001,21.75,6.71299,21.692909999999998Q6.57516,21.635820000000002,6.46967,21.53033L3.46967,18.53033Q3.364181,18.42484,3.30709,18.287010000000002Q3.25,18.14918,3.25,18Q3.25,17.85082,3.30709,17.712989999999998Q3.364181,17.57516,3.46967,17.46967L6.4692799999999995,14.47006L6.46967,14.46967Q6.57516,14.364180000000001,6.71299,14.30709Q6.850820000000001,14.25,7,14.25Q7.073869999999999,14.25,7.146319999999999,14.26441Q7.21877,14.27882,7.28701,14.30709Q7.3552599999999995,14.33536,7.4166799999999995,14.3764Q7.4780999999999995,14.41744,7.53033,14.46967Q7.58256,14.5219,7.6236,14.58332Q7.66464,14.64474,7.6929099999999995,14.71299Q7.72118,14.78123,7.73559,14.85368Q7.75,14.92613,7.75,15Q7.75,15.14918,7.6929099999999995,15.28701Q7.63582,15.42484,7.53033,15.53033L5.81066,17.25L17,17.25Q17.932000000000002,17.25,18.591,16.590989999999998Q19.25,15.93198,19.25,15L19.25,12Z" fill-rule="evenodd" fill="#231F2E" fill-opacity="1"/></g><g><path d="M10.48268,12.772817001953126L11.64992,11.645547001953124L12.81845,10.509837001953125Q12.888449999999999,10.441808401953125,12.97889,10.405098851953126Q13.06933,10.368389301953124,13.16694,10.368389301953124Q13.21618,10.368389301953124,13.264479999999999,10.377996601953125Q13.31278,10.387604001953125,13.35828,10.406449511953126Q13.40377,10.425295001953126,13.44472,10.452654501953125Q13.485669999999999,10.480013901953125,13.520489999999999,10.514836001953125Q13.55531,10.549658001953125,13.58267,10.590604001953125Q13.61003,10.631550001953125,13.62887,10.677048001953125Q13.64772,10.722545001953126,13.65733,10.770844001953124Q13.66694,10.819144001953125,13.66694,10.868389001953124Q13.66694,10.969697001953126,13.627500000000001,11.063015001953126Q13.58807,11.156333001953126,13.515419999999999,11.226941001953126L12.34689,12.362657001953124L11.37167,13.304477001953124Q11.36817,13.308007001953126,11.36459,13.311457001953125L11.364329999999999,13.311707001953124L11.17801,13.491767001953125L10.991769999999999,13.671577001953125L10.99151,13.671827001953126Q10.90999,13.750537001953125,10.80249,13.786407001953124Q10.29675,14.101427001953125,9.65775,14.101427001953125Q8.769272,14.101427001953125,8.138347,13.492337001953125Q7.5,12.885497001953125,7.5,12.000897001953124Q7.5,11.116303001953124,8.141118,10.506810001953125Q8.777782,9.900177001953125,9.65775,9.900177001953125Q10.53772,9.900177001953125,11.17479,10.507202001953125Q11.24907,10.577976001953125,11.289480000000001,10.672284001953125Q11.32988,10.766591001953126,11.32988,10.869189001953124Q11.32988,10.918435001953124,11.32027,10.966734001953125Q11.31066,11.015034001953126,11.29182,11.060531001953125Q11.27297,11.106028001953124,11.24561,11.146974001953126Q11.21825,11.187921001953125,11.18343,11.222743001953125Q11.14861,11.257564001953124,11.10766,11.284924001953126Q11.06672,11.312283001953125,11.02122,11.331129001953125Q10.975719999999999,11.349974001953125,10.92742,11.359582001953125Q10.87913,11.369189001953124,10.82988,11.369189001953124Q10.73356,11.369189001953124,10.64413,11.333406001953126Q10.5547,11.297622001953124,10.48497,11.231177001953125Q10.13758,10.900177001953125,9.65775,10.900177001953125Q9.17792,10.900177001953125,8.830123,11.231567001953126Q8.5,11.545407001953125,8.5,12.000897001953124Q8.5,12.456397001953125,8.832894,12.772887001953125Q9.173210000000001,13.101427001953125,9.65775,13.101427001953125Q10.14205,13.101427001953125,10.482330000000001,12.773147001953125L10.48254,12.772957001953126L10.48268,12.772817001953126Z" fill-rule="evenodd" fill="#2882FF" fill-opacity="1"/></g><g><path d="M12.82532884765625,10.5054715703125L12.82520884765625,10.5055815703125Q12.75092884765625,10.5763565703125,12.71052884765625,10.6706645703125Q12.67011884765625,10.7649715703125,12.67011884765625,10.8675705703125Q12.67011884765625,10.916815570312501,12.67972884765625,10.9651155703125Q12.68933884765625,11.0134145703125,12.70817884765625,11.0589115703125Q12.72702884765625,11.1044085703125,12.75438884765625,11.1453555703125Q12.78174884765625,11.1863015703125,12.81656884765625,11.2211235703125Q12.85138884765625,11.2559455703125,12.89233884765625,11.2833045703125Q12.93328884765625,11.3106645703125,12.97877884765625,11.3295095703125Q13.02427884765625,11.3483555703125,13.07257884765625,11.3579625703125Q13.12087884765625,11.3675705703125,13.17011884765625,11.3675705703125Q13.26644884765625,11.3675705703125,13.35586884765625,11.3317865703125Q13.44529884765625,11.2960035703125,13.51503884765625,11.2295585703125Q13.86241884765625,10.8985595703125,14.34224884765625,10.8985595703125Q14.82208884765625,10.8985595703125,15.169468847656251,11.2295585703125Q15.49999884765625,11.5437895703125,15.49999884765625,11.999279570312499Q15.49999884765625,12.4547795703125,15.16987884765625,12.7686195703125Q14.82717884765625,13.0994295703125,14.34128884765625,13.0992095703125Q13.87689884765625,13.0989895703125,13.54716884765625,12.7992095703125L13.51814884765625,12.7711395703125L13.33241884765625,12.5920195703125L13.33155884765625,12.5911895703125Q13.32418884765625,12.5840795703125,13.316528847656251,12.5772795703125L12.34893884765625,11.6428295703125L11.18167784765625,10.5075415703125Q11.11167484765625,10.4394557703125,11.02119784765625,10.4027131103125Q10.93072154765625,10.3659703703125,10.83306884765625,10.3659703703125Q10.78382314765625,10.3659703703125,10.73552374765625,10.3755777703125Q10.68722384765625,10.3851851703125,10.64172684765625,10.4040306303125Q10.59622984765625,10.4228761703125,10.55528384765625,10.4502355703125Q10.51433784765625,10.4775950703125,10.47951584765625,10.5124165703125Q10.44469384765625,10.5472385703125,10.41733384765625,10.5881855703125Q10.38997484765625,10.6291315703125,10.37112884765625,10.6746285703125Q10.352283847656249,10.7201255703125,10.34267584765625,10.7684255703125Q10.33306884765625,10.8167245703125,10.33306884765625,10.8659705703125Q10.33306884765625,10.9672325703125,10.37246884765625,11.0605155703125Q10.41186884765625,11.1537975703125,10.48445984765625,11.2243995703125L11.65425484765625,12.3621395703125L12.82241884765625,13.4902995703125L12.82277884765625,13.490649570312499L12.82331884765625,13.4911695703125Q12.82714884765625,13.494869570312499,12.83099884765625,13.498569570312501L13.00971884765625,13.6706495703125L13.01057884765625,13.6714695703125Q13.091448847656249,13.7493395703125,13.19784884765625,13.7851595703125Q13.70210884765625,14.0988995703125,14.34081884765625,14.0991995703125Q15.23091884765625,14.0996195703125,15.85888884765625,13.493369570312499Q16.50000884765625,12.8838795703125,16.49999884765625,11.999279570312499Q16.50000884765625,11.1146845703125,15.85929884765625,10.5055815703125Q15.22221884765625,9.8985595703125,14.34224884765625,9.8985595703125Q13.46266884765625,9.8985595703125,12.82576884765625,10.5050535703125L12.82532884765625,10.5054715703125Z" fill-rule="evenodd" fill="#2882FF" fill-opacity="1"/></g></g></svg>