<svg xmlns="http://www.w3.org/2000/svg" xmlns:xlink="http://www.w3.org/1999/xlink" fill="none" version="1.1" width="24" height="24" viewBox="0 0 24 24"><defs><clipPath id="master_svg0_48_02158"><rect x="0" y="0" width="24" height="24" rx="0"/></clipPath></defs><g clip-path="url(#master_svg0_48_02158)"><g><path d="M17.5308,2.470096L20.5303,5.46967Q20.6358,5.57516,20.6929,5.71299Q20.75,5.850820000000001,20.75,6Q20.75,6.149179999999999,20.6929,6.28701Q20.6358,6.42484,20.5303,6.53033L17.5307,9.52994L17.5303,9.53033Q17.424799999999998,9.635819999999999,17.287,9.692910000000001Q17.1492,9.75,17,9.75Q16.926099999999998,9.75,16.8537,9.73559Q16.7812,9.72118,16.713,9.692910000000001Q16.6447,9.66464,16.5833,9.6236Q16.521900000000002,9.58256,16.4697,9.53033Q16.4174,9.478100000000001,16.3764,9.41668Q16.3354,9.355260000000001,16.3071,9.28701Q16.2788,9.21877,16.264400000000002,9.14632Q16.25,9.07387,16.25,9Q16.25,8.850819999999999,16.3071,8.71299Q16.3642,8.57516,16.4697,8.46967L16.4703,8.46904L18.1893,6.75L7,6.75Q6.068020000000001,6.75,5.40901,7.40901Q4.75,8.06802,4.75,9L4.75,12Q4.75,12.07387,4.735589,12.14632Q4.721178,12.21877,4.69291,12.28701Q4.664641,12.35526,4.623602,12.41668Q4.582563,12.4781,4.53033,12.53033Q4.478097,12.58256,4.416678,12.6236Q4.355258,12.66464,4.287013,12.69291Q4.218767,12.72118,4.146318,12.73559Q4.0738685,12.75,4,12.75Q3.9261315,12.75,3.853682,12.73559Q3.781233,12.72118,3.712987,12.69291Q3.644742,12.66464,3.583322,12.6236Q3.521903,12.58256,3.46967,12.53033Q3.417437,12.4781,3.376398,12.41668Q3.335359,12.35526,3.30709,12.28701Q3.278822,12.21877,3.264411,12.14632Q3.25,12.07387,3.25,12L3.25,9Q3.25,7.4467,4.34835,6.34835Q5.4467,5.25,7,5.25L18.1893,5.25L16.470100000000002,3.5307560000000002L16.4697,3.53033Q16.3642,3.424841,16.3071,3.287013Q16.25,3.149184,16.25,3Q16.25,2.9261315,16.264400000000002,2.853682Q16.2788,2.781233,16.3071,2.712987Q16.3354,2.644742,16.3764,2.583322Q16.4174,2.521903,16.4697,2.46967Q16.521900000000002,2.417437,16.5833,2.376398Q16.6447,2.335359,16.713,2.30709Q16.7812,2.278822,16.8537,2.264411Q16.926099999999998,2.25,17,2.25Q17.1492,2.25,17.287,2.30709Q17.424799999999998,2.364181,17.5303,2.46967L17.5308,2.470096Z" fill-rule="evenodd" fill="#231F2E" fill-opacity="1"/></g><g><path d="M19.25,12Q19.25,11.9261315,19.264400000000002,11.853682Q19.2788,11.781233,19.3071,11.712987Q19.3354,11.644742,19.3764,11.583322Q19.4174,11.521903,19.4697,11.46967Q19.521900000000002,11.417437,19.5833,11.376398Q19.6447,11.335359,19.713,11.30709Q19.7812,11.278822,19.8537,11.264410999999999Q19.926099999999998,11.25,20,11.25Q20.0739,11.25,20.1463,11.264410999999999Q20.2188,11.278822,20.287,11.30709Q20.3553,11.335359,20.4167,11.376398Q20.4781,11.417437,20.5303,11.46967Q20.5826,11.521903,20.6236,11.583322Q20.6646,11.644742,20.6929,11.712987Q20.7212,11.781233,20.7356,11.853682Q20.75,11.9261315,20.75,12L20.75,15Q20.75,16.5533,19.651699999999998,17.65165Q18.5533,18.75,17,18.75L5.81066,18.75L7.52994,20.469279999999998L7.53033,20.46967Q7.63582,20.57516,7.6929099999999995,20.712989999999998Q7.75,20.85082,7.75,21Q7.75,21.07387,7.73559,21.14632Q7.72118,21.21877,7.6929099999999995,21.287010000000002Q7.66464,21.35526,7.6236,21.41668Q7.58256,21.478099999999998,7.53033,21.53033Q7.4780999999999995,21.58256,7.4166799999999995,21.6236Q7.3552599999999995,21.66464,7.28701,21.692909999999998Q7.21877,21.72118,7.146319999999999,21.735590000000002Q7.073869999999999,21.75,7,21.75Q6.850820000000001,21.75,6.71299,21.692909999999998Q6.57516,21.635820000000002,6.46967,21.53033L3.46967,18.53033Q3.364181,18.42484,3.30709,18.287010000000002Q3.25,18.14918,3.25,18Q3.25,17.85082,3.30709,17.712989999999998Q3.364181,17.57516,3.46967,17.46967L6.4692799999999995,14.47006L6.46967,14.46967Q6.57516,14.364180000000001,6.71299,14.30709Q6.850820000000001,14.25,7,14.25Q7.073869999999999,14.25,7.146319999999999,14.26441Q7.21877,14.27882,7.28701,14.30709Q7.3552599999999995,14.33536,7.4166799999999995,14.3764Q7.4780999999999995,14.41744,7.53033,14.46967Q7.58256,14.5219,7.6236,14.58332Q7.66464,14.64474,7.6929099999999995,14.71299Q7.72118,14.78123,7.73559,14.85368Q7.75,14.92613,7.75,15Q7.75,15.14918,7.6929099999999995,15.28701Q7.63582,15.42484,7.53033,15.53033L5.81066,17.25L17,17.25Q17.932000000000002,17.25,18.591,16.590989999999998Q19.25,15.93198,19.25,15L19.25,12Z" fill-rule="evenodd" fill="#231F2E" fill-opacity="1"/></g><g><path d="M8.25,11.20711L8.25,14Q8.25,14.04925,8.259607,14.09755Q8.269214999999999,14.14584,8.28806,14.19134Q8.306906,14.23684,8.334265,14.27778Q8.361625,14.31873,8.396447,14.35355Q8.431269,14.38837,8.472215,14.41573Q8.513161,14.44309,8.558658,14.46194Q8.604155,14.48078,8.652455,14.49039Q8.700754,14.5,8.75,14.5Q8.79925,14.5,8.84755,14.49039Q8.89584,14.48078,8.94134,14.46194Q8.98684,14.44309,9.02779,14.41573Q9.06873,14.38837,9.10355,14.35355Q9.13838,14.31873,9.16573,14.27778Q9.19309,14.23684,9.21194,14.19134Q9.23079,14.14584,9.24039,14.09755Q9.25,14.04925,9.25,14L9.25,10Q9.25,9.9507543,9.24039,9.9024549Q9.23079,9.854155,9.21194,9.808658Q9.19309,9.763161,9.16573,9.722215Q9.13838,9.681269,9.10355,9.646447Q9.06873,9.611625,9.02779,9.584265Q8.98684,9.556906,8.94134,9.53806Q8.89584,9.519214999999999,8.84755,9.509607Q8.79925,9.5,8.75,9.5Q8.650544,9.5,8.558658,9.53806Q8.466773,9.57612,8.396447,9.646447L7.396447,10.646447Q7.32612,10.716773,7.28806,10.808658Q7.25,10.900544,7.25,11Q7.25,11.04925,7.259607,11.09755Q7.269215,11.14584,7.28806,11.19134Q7.306906,11.23684,7.334265,11.27779Q7.361625,11.31873,7.396447,11.35355Q7.431269,11.38838,7.472215,11.41573Q7.513161,11.44309,7.558658,11.46194Q7.604155,11.48079,7.6524549,11.49039Q7.7007543,11.5,7.75,11.5Q7.8494562,11.5,7.941342,11.46194Q8.033227,11.42388,8.103553,11.35355L8.25,11.20711Z" fill-rule="evenodd" fill="#2882FF" fill-opacity="1"/></g><g><path d="M11,14.5L12.5,14.5Q12.54925,14.5,12.59754,14.49039Q12.64584,14.48078,12.69134,14.46194Q12.73684,14.44309,12.77778,14.41573Q12.81873,14.38837,12.85355,14.35355Q12.88838,14.31873,12.91573,14.27778Q12.94309,14.23684,12.96194,14.19134Q12.98078,14.14584,12.99039,14.09755Q13,14.04925,13,14Q13,13.95075,12.99039,13.90245Q12.98078,13.85415,12.96194,13.80866Q12.94309,13.76316,12.91573,13.72221Q12.88838,13.68127,12.85355,13.64645Q12.81873,13.61162,12.77779,13.58426Q12.73684,13.55691,12.69134,13.53806Q12.64584,13.519210000000001,12.59754,13.50961Q12.54925,13.5,12.5,13.5L11,13.5L11,12.5L12,12.5Q12.41421,12.5,12.70711,12.20711Q13,11.91421,13,11.5L13,10.5Q13,10.0857864,12.70711,9.792893Q12.41421,9.5,12,9.5L10.5,9.5Q10.4507543,9.5,10.4024549,9.509607Q10.354155,9.519214999999999,10.308658,9.53806Q10.263161,9.556906,10.222215,9.584265Q10.181269,9.611625,10.146447,9.646447Q10.111625,9.681269,10.084265,9.722215Q10.056906,9.763161,10.03806,9.808658Q10.019214999999999,9.854155,10.009607,9.9024549Q10,9.9507543,10,10Q10,10.0492457,10.009607,10.0975451Q10.019214999999999,10.145845,10.03806,10.191342Q10.056906,10.236839,10.084265,10.277785Q10.111625,10.318731,10.146447,10.353553Q10.181269,10.388375,10.222215,10.415735Q10.263161,10.443094,10.308658,10.46194Q10.354155,10.480785000000001,10.4024549,10.490393Q10.4507543,10.5,10.5,10.5L12,10.5L12,11.5L11,11.5Q10.5857864,11.5,10.292893,11.79289Q10,12.08579,10,12.5L10,13.5Q10,13.91421,10.292893,14.20711Q10.5857861,14.5,11,14.5Z" fill-rule="evenodd" fill="#2882FF" fill-opacity="1"/></g><g><path d="M14,9.5L15.25,9.5Q15.76777,9.5,16.13388,9.866116Q16.5,10.232233,16.5,10.75L16.5,11.25Q16.5,11.67643,16.25166,12Q16.5,12.32357,16.5,12.75L16.5,13.25Q16.5,13.76777,16.13388,14.133880000000001Q15.76777,14.5,15.25,14.5L14,14.5Q13.9507543,14.5,13.9024549,14.49039Q13.854155,14.48078,13.808658,14.46194Q13.763161,14.44309,13.722215,14.41573Q13.681269,14.38837,13.646447,14.35355Q13.611625,14.31873,13.584265,14.27778Q13.556906,14.23684,13.53806,14.19134Q13.519214999999999,14.14584,13.509607,14.09755Q13.5,14.04925,13.5,14Q13.5,13.95075,13.509607,13.90245Q13.519214999999999,13.85415,13.53806,13.80866Q13.556906,13.76316,13.584265,13.72221Q13.611625,13.68127,13.646447,13.64645Q13.681269,13.61162,13.722215,13.58426Q13.763161,13.55691,13.808658,13.53806Q13.854155,13.519210000000001,13.9024549,13.50961Q13.9507543,13.5,14,13.5L15.25,13.5Q15.35355,13.5,15.42678,13.42678Q15.5,13.35355,15.5,13.25L15.5,12.75Q15.5,12.64645,15.42678,12.57322Q15.35355,12.5,15.25,12.5L14.5,12.5Q14.450754,12.5,14.402455,12.49039Q14.354155,12.48078,14.308658,12.46194Q14.263161,12.44309,14.222215,12.41573Q14.181269,12.38838,14.146447,12.35355Q14.111625,12.31873,14.0842652,12.27779Q14.0569057,12.23684,14.0380602,12.19134Q14.0192147,12.14584,14.00960736,12.09754Q14,12.04925,14,12Q14,11.95075,14.00960736,11.90245Q14.0192147,11.85416,14.0380602,11.80866Q14.0569057,11.76316,14.0842652,11.72221Q14.111625,11.68127,14.146447,11.64645Q14.181269,11.61162,14.222215,11.58426Q14.263161,11.55691,14.308658,11.53806Q14.354155,11.51921,14.402455,11.50961Q14.450754,11.5,14.5,11.5L15.25,11.5Q15.35355,11.5,15.42678,11.42678Q15.5,11.35355,15.5,11.25L15.5,10.75Q15.5,10.646447,15.42678,10.573223Q15.35355,10.5,15.25,10.5L14,10.5Q13.9507543,10.5,13.9024549,10.490393Q13.854155,10.480785000000001,13.808658,10.46194Q13.763161,10.443094,13.722215,10.415735Q13.681269,10.388375,13.646447,10.353553Q13.611625,10.318731,13.584265,10.277785Q13.556906,10.236839,13.53806,10.191342Q13.519214999999999,10.145845,13.509607,10.0975451Q13.5,10.0492457,13.5,10Q13.5,9.9507543,13.509607,9.9024549Q13.519214999999999,9.854155,13.53806,9.808658Q13.556906,9.763161,13.584265,9.722215Q13.611625,9.681269,13.646447,9.646447Q13.681269,9.611625,13.722215,9.584265Q13.763161,9.556906,13.808658,9.53806Q13.854155,9.519214999999999,13.9024549,9.509607Q13.9507543,9.5,14,9.5Z" fill-rule="evenodd" fill="#2882FF" fill-opacity="1"/></g></g></svg>