<svg xmlns="http://www.w3.org/2000/svg" xmlns:xlink="http://www.w3.org/1999/xlink" fill="none" version="1.1" width="24" height="24" viewBox="0 0 24 24"><defs><clipPath id="master_svg0_85_01378"><rect x="0" y="0" width="24" height="24" rx="0"/></clipPath></defs><g clip-path="url(#master_svg0_85_01378)"><g><path d="M18.89549952316284,5.103793405914306Q16.039599523162842,2.246894405914307,11.999999523162842,2.2468934059143066Q7.9604295231628415,2.2468934059143066,5.104519523162842,5.103793405914306Q2.248605523162842,7.960693405914307,2.250000523162842,12.000263405914307Q2.248605523162842,16.039293405914307,5.104519523162842,18.896193405914307Q7.9604295231628415,21.753093405914306,11.999999523162842,21.753093405914306Q16.039599523162842,21.753093405914306,18.89549952316284,18.896193405914307Q21.751399523162842,16.039293405914307,21.749999523162842,11.999743405914307Q21.751399523162842,7.960703405914306,18.89549952316284,5.103793405914306ZM6.1653595231628415,6.164273405914306Q8.581909523162842,3.7468934059143066,11.999999523162842,3.7468934059143066Q15.418099523162843,3.7468934059143066,17.834599523162844,6.164273405914306Q20.251199523162843,8.581643405914306,20.249999523162842,12.000263405914307Q20.251199523162843,15.418393405914307,17.834599523162844,17.835693405914306Q15.418099523162843,20.253093405914306,11.999999523162842,20.253093405914306Q8.581909523162842,20.253093405914306,6.1653595231628415,17.835693405914306Q3.748819523162842,15.418393405914307,3.750000523162842,11.999743405914307Q3.748819523162842,8.581643405914306,6.1653595231628415,6.164273405914306Z" fill-rule="evenodd" fill="#231F2E" fill-opacity="1"/></g><g><path d="M12,8.25L20.4,8.25Q20.473869999999998,8.25,20.54632,8.264410999999999Q20.618769999999998,8.278822,20.68701,8.30709Q20.75526,8.335359,20.816679999999998,8.376398Q20.8781,8.417437,20.930329999999998,8.46967Q20.98256,8.521903,21.023600000000002,8.583322Q21.06464,8.644742,21.09291,8.712987Q21.121180000000003,8.781233,21.13559,8.853682Q21.15,8.9261315,21.15,9Q21.15,9.0738685,21.13559,9.146318Q21.121180000000003,9.218767,21.09291,9.287013Q21.06464,9.355258,21.023600000000002,9.416678Q20.98256,9.478097,20.930329999999998,9.53033Q20.8781,9.582563,20.816679999999998,9.623602Q20.75526,9.664641,20.68701,9.69291Q20.618769999999998,9.721178,20.54632,9.735589000000001Q20.473869999999998,9.75,20.4,9.75L12,9.75Q11.9261315,9.75,11.853682,9.735589000000001Q11.781233,9.721178,11.712987,9.69291Q11.644742,9.664641,11.583322,9.623602Q11.521903,9.582563,11.46967,9.53033Q11.417437,9.478097,11.376398,9.416678Q11.335359,9.355258,11.30709,9.287013Q11.278822,9.218767,11.264410999999999,9.146318Q11.25,9.0738685,11.25,9Q11.25,8.9261315,11.264410999999999,8.853682Q11.278822,8.781233,11.30709,8.712987Q11.335359,8.644742,11.376398,8.583322Q11.417437,8.521903,11.46967,8.46967Q11.521903,8.417437,11.583322,8.376398Q11.644742,8.335359,11.712987,8.30709Q11.781233,8.278822,11.853682,8.264410999999999Q11.9261315,8.25,12,8.25Z" fill-rule="evenodd" fill="#231F2E" fill-opacity="1"/></g><g><path d="M15.24752976348877,13.874985Q15.347999763488769,13.700953,15.347999763488769,13.5Q15.347999763488769,13.4261315,15.33358976348877,13.353682Q15.31917976348877,13.281233,15.29090976348877,13.212987Q15.26263976348877,13.144742,15.221599763488769,13.083322Q15.18055976348877,13.021903,15.12832976348877,12.96967Q15.07609976348877,12.917437,15.014679763488768,12.876398Q14.95325976348877,12.835359,14.88500976348877,12.80709Q14.81676976348877,12.778822,14.74431976348877,12.764410999999999Q14.671869763488768,12.75,14.597999763488769,12.75Q14.49925976348877,12.75,14.40387976348877,12.775557Q14.308499763488769,12.801114,14.22298976348877,12.850485Q14.13747976348877,12.899857,14.06765976348877,12.969679Q13.99783976348877,13.039501,13.94846976348877,13.125015L13.94825976348877,13.125382L9.748721763488769,20.39958L9.74847176348877,20.40001Q9.64799976348877,20.57405,9.64799976348877,20.775Q9.64799976348877,20.848869999999998,9.662410763488769,20.92132Q9.67682176348877,20.993769999999998,9.70508976348877,21.06201Q9.73335876348877,21.13026,9.77439776348877,21.191679999999998Q9.81543676348877,21.2531,9.86766976348877,21.305329999999998Q9.91990276348877,21.35756,9.98132176348877,21.398600000000002Q10.04274176348877,21.43964,10.11098676348877,21.46791Q10.17923276348877,21.49618,10.251681763488769,21.51059Q10.32413126348877,21.525,10.39799976348877,21.525Q10.496741263488769,21.525,10.592117763488769,21.49944Q10.68749476348877,21.47389,10.77300676348877,21.424509999999998Q10.85851876348877,21.375140000000002,10.92833876348877,21.305320000000002Q10.99815876348877,21.235500000000002,11.04752776348877,21.14998L15.24752976348877,13.874985L15.24752976348877,13.874985Z" fill-rule="evenodd" fill="#231F2E" fill-opacity="1"/></g><g><path d="M4.552472617980957,6.599984904632568Q4.452000617980957,6.4259529046325685,4.452000617980957,6.224999904632568Q4.452000617980957,6.151131404632569,4.466411617980957,6.078681904632568Q4.480822617980957,6.006232904632569,4.509090617980957,5.937986904632568Q4.537359617980957,5.869741904632568,4.578398617980957,5.808321904632568Q4.619437617980957,5.746902904632568,4.671670617980957,5.694669904632568Q4.723903617980957,5.642436904632568,4.785322617980957,5.601397904632568Q4.846742617980957,5.560358904632569,4.914987617980957,5.532089904632568Q4.983233617980957,5.503821904632568,5.055682617980957,5.489410904632568Q5.128132117980957,5.474999904632568,5.202000617980957,5.474999904632568Q5.300742217980957,5.474999904632568,5.396118617980957,5.500556904632568Q5.491495617980957,5.526112904632568,5.577008617980957,5.575484904632568Q5.662520617980957,5.624856904632568,5.732339617980957,5.6946789046325685Q5.802159617980957,5.764500904632568,5.851528617980957,5.850014904632569L10.051530617980957,13.125019904632568Q10.152000617980956,13.299049904632568,10.152000617980956,13.499999904632569Q10.152000617980956,13.573869904632568,10.137590617980958,13.646319904632568Q10.123180617980957,13.718769904632568,10.094910617980958,13.78700990463257Q10.066640617980957,13.855259904632568,10.025600617980956,13.916679904632568Q9.984560617980957,13.978099904632568,9.932330617980957,14.030329904632568Q9.880100617980958,14.082559904632568,9.818680617980956,14.123599904632568Q9.757260617980958,14.164639904632569,9.689010617980957,14.192909904632568Q9.620770617980957,14.221179904632567,9.548320617980957,14.235589904632569Q9.475870617980956,14.249999904632569,9.402000617980956,14.249999904632569Q9.303260617980957,14.249999904632569,9.207880617980958,14.224439904632568Q9.112500617980956,14.19888990463257,9.026990617980957,14.149509904632568Q8.941480617980957,14.100139904632568,8.871660617980957,14.030319904632568Q8.801840617980957,13.960499904632568,8.752470617980958,13.874979904632568L4.552472617980957,6.599984904632568Z" fill-rule="evenodd" fill="#231F2E" fill-opacity="1"/></g><g><path d="M14.65165,9.34835Q13.5533,8.25,12,8.25Q10.4467,8.25,9.34835,9.348349Q8.25,10.4467,8.25,12Q8.25,13.5533,9.348349,14.65165Q10.4467,15.75,12,15.75Q13.5533,15.75,14.65165,14.65165Q15.75,13.5533,15.75,12Q15.75,10.4467,14.65165,9.34835ZM10.40901,10.40901Q11.06802,9.75,12,9.75Q12.93198,9.75,13.59099,10.40901Q14.25,11.06802,14.25,12Q14.25,12.93198,13.59099,13.59099Q12.93198,14.25,12,14.25Q11.06802,14.25,10.40901,13.59099Q9.75,12.93198,9.75,12Q9.75,11.06802,10.40901,10.40901Z" fill-rule="evenodd" fill="#2882FF" fill-opacity="1"/></g></g></svg>