<svg xmlns="http://www.w3.org/2000/svg" xmlns:xlink="http://www.w3.org/1999/xlink" fill="none" version="1.1" width="24" height="24" viewBox="0 0 24 24"><defs><clipPath id="master_svg0_48_03332"><rect x="0" y="0" width="24" height="24" rx="0"/></clipPath></defs><g clip-path="url(#master_svg0_48_03332)"><g><path d="M11.999971389770508,5.75L16.499971389770508,5.75Q16.57387138977051,5.75,16.646271389770508,5.735589Q16.71877138977051,5.721178,16.786971389770507,5.69291Q16.855271389770508,5.664641,16.916671389770507,5.623602Q16.978071389770506,5.582563,17.03027138977051,5.53033Q17.082571389770507,5.478097,17.123571389770508,5.416678Q17.164571389770508,5.355258,17.19287138977051,5.287013Q17.221171389770507,5.218767,17.235571389770506,5.146318Q17.249971389770508,5.0738685,17.249971389770508,5Q17.249971389770508,4.9261315,17.235571389770506,4.853682Q17.221171389770507,4.781233,17.19287138977051,4.712987Q17.164571389770508,4.644742,17.123571389770508,4.583322Q17.082571389770507,4.521903,17.03027138977051,4.46967Q16.978071389770506,4.417437,16.916671389770507,4.376398Q16.855271389770508,4.335359,16.786971389770507,4.30709Q16.71877138977051,4.278822,16.646271389770508,4.264411Q16.57387138977051,4.25,16.499971389770508,4.25L5.999981389770507,4.25Q4.446681389770507,4.25,3.348328389770508,5.348349Q2.249979389770508,6.4467,2.249978389770508,8L2.2499733897705076,16Q2.249972389770508,17.5533,3.348322389770508,18.651600000000002Q4.446671389770508,19.75,5.999971389770508,19.75L17.999971389770508,19.75Q19.553271389770508,19.75,20.651571389770506,18.651699999999998Q21.749971389770508,17.5533,21.749971389770508,16L21.749971389770508,9Q21.749971389770508,8.92613,21.73557138977051,8.85368Q21.721171389770507,8.78123,21.69287138977051,8.71299Q21.664571389770508,8.64474,21.623571389770508,8.58332Q21.582571389770507,8.5219,21.53027138977051,8.46967Q21.47807138977051,8.41744,21.416671389770507,8.3764Q21.355271389770508,8.33536,21.286971389770507,8.30709Q21.21877138977051,8.27882,21.146271389770508,8.26441Q21.073871389770506,8.25,20.999971389770508,8.25Q20.92607138977051,8.25,20.853671389770508,8.26441Q20.781171389770506,8.27882,20.71297138977051,8.30709Q20.644671389770508,8.33536,20.58327138977051,8.3764Q20.521871389770507,8.41744,20.469671389770507,8.46967Q20.41737138977051,8.5219,20.376371389770508,8.58332Q20.335371389770508,8.64474,20.307071389770506,8.71299Q20.278771389770508,8.78123,20.264371389770506,8.85368Q20.249971389770508,8.92613,20.249971389770508,9L20.249971389770508,16Q20.249971389770508,16.932000000000002,19.59097138977051,17.591Q18.93197138977051,18.25,17.999971389770508,18.25L5.999971389770508,18.25Q5.0679913897705084,18.25,4.408981389770508,17.591Q3.749972389770508,16.932000000000002,3.7499733897705076,16L3.749978389770508,8Q3.749979389770508,7.068020000000001,4.408991389770508,6.40901Q5.068001389770508,5.75,5.999981389770507,5.75L11.999971389770508,5.75Z" fill-rule="evenodd" fill="#231F2E" fill-opacity="1"/></g><g><path d="M6,8.245086669921875L12.5,8.245086669921875Q12.57387,8.245086669921875,12.64632,8.259497669921874Q12.71877,8.273908669921875,12.78701,8.302176669921876Q12.855260000000001,8.330445669921875,12.91668,8.371484669921875Q12.978100000000001,8.412523669921875,13.03033,8.464756669921876Q13.08256,8.516989669921875,13.1236,8.578408669921876Q13.16464,8.639828669921876,13.192910000000001,8.708073669921875Q13.22118,8.776319669921875,13.23559,8.848768669921874Q13.25,8.921218169921875,13.25,8.995086669921875Q13.25,9.068955169921875,13.23559,9.141404669921876Q13.22118,9.213853669921875,13.192910000000001,9.282099669921875Q13.16464,9.350344669921874,13.1236,9.411764669921874Q13.08256,9.473183669921875,13.03033,9.525416669921874Q12.978100000000001,9.577649669921875,12.91668,9.618688669921875Q12.855260000000001,9.659727669921875,12.78701,9.687996669921874Q12.71877,9.716264669921875,12.64632,9.730675669921876Q12.57387,9.745086669921875,12.5,9.745086669921875L6,9.745086669921875Q5.9261315,9.745086669921875,5.853682,9.730675669921876Q5.781233,9.716264669921875,5.712987,9.687996669921874Q5.644742,9.659727669921875,5.583322,9.618688669921875Q5.521903,9.577649669921875,5.46967,9.525416669921874Q5.417437,9.473183669921875,5.376398,9.411764669921874Q5.335359,9.350344669921874,5.30709,9.282099669921875Q5.278822,9.213853669921875,5.264411,9.141404669921876Q5.25,9.068955169921875,5.25,8.995086669921875Q5.25,8.921218169921875,5.264411,8.848768669921874Q5.278822,8.776319669921875,5.30709,8.708073669921875Q5.335359,8.639828669921876,5.376398,8.578408669921876Q5.417437,8.516989669921875,5.46967,8.464756669921876Q5.521903,8.412523669921875,5.583322,8.371484669921875Q5.644742,8.330445669921875,5.712987,8.302176669921876Q5.781233,8.273908669921875,5.853682,8.259497669921874Q5.9261315,8.245086669921875,6,8.245086669921875Z" fill-rule="evenodd" fill="#231F2E" fill-opacity="1"/></g><g><path d="M6,11.25L11,11.25Q11.07387,11.25,11.14632,11.264410999999999Q11.21877,11.278822,11.28701,11.30709Q11.355260000000001,11.335359,11.41668,11.376398Q11.478100000000001,11.417437,11.53033,11.46967Q11.58256,11.521903,11.6236,11.583322Q11.66464,11.644742,11.692910000000001,11.712987Q11.72118,11.781233,11.73559,11.853682Q11.75,11.9261315,11.75,12Q11.75,12.0738685,11.73559,12.146318Q11.72118,12.218767,11.692910000000001,12.287013Q11.66464,12.355258,11.6236,12.416678Q11.58256,12.478097,11.53033,12.53033Q11.478100000000001,12.582563,11.41668,12.623602Q11.355260000000001,12.664641,11.28701,12.69291Q11.21877,12.721178,11.14632,12.735589000000001Q11.07387,12.75,11,12.75L6,12.75Q5.9261315,12.75,5.853682,12.735589000000001Q5.781233,12.721178,5.712987,12.69291Q5.644742,12.664641,5.583322,12.623602Q5.521903,12.582563,5.46967,12.53033Q5.417437,12.478097,5.376398,12.416678Q5.335359,12.355258,5.30709,12.287013Q5.278822,12.218767,5.264411,12.146318Q5.25,12.0738685,5.25,12Q5.25,11.9261315,5.264411,11.853682Q5.278822,11.781233,5.30709,11.712987Q5.335359,11.644742,5.376398,11.583322Q5.417437,11.521903,5.46967,11.46967Q5.521903,11.417437,5.583322,11.376398Q5.644742,11.335359,5.712987,11.30709Q5.781233,11.278822,5.853682,11.264410999999999Q5.9261315,11.25,6,11.25Z" fill-rule="evenodd" fill="#231F2E" fill-opacity="1"/></g><g><path d="M6,14.254913330078125L18,14.254913330078125Q18.073900000000002,14.254913330078125,18.1463,14.269324330078124Q18.2188,14.283735330078125,18.287,14.312003330078126Q18.3553,14.340272330078125,18.4167,14.381311330078125Q18.478099999999998,14.422350330078125,18.5303,14.474583330078126Q18.5826,14.526816330078125,18.6236,14.588235330078126Q18.6646,14.649655330078126,18.6929,14.717900330078125Q18.7212,14.786146330078125,18.735599999999998,14.858595330078124Q18.75,14.931044830078125,18.75,15.004913330078125Q18.75,15.078781830078125,18.735599999999998,15.151231330078126Q18.7212,15.223680330078125,18.6929,15.291926330078125Q18.6646,15.360171330078124,18.6236,15.421591330078124Q18.5826,15.483010330078125,18.5303,15.535243330078124Q18.478099999999998,15.587476330078125,18.4167,15.628515330078125Q18.3553,15.669554330078125,18.287,15.697823330078124Q18.2188,15.726091330078125,18.1463,15.740502330078126Q18.073900000000002,15.754913330078125,18,15.754913330078125L6,15.754913330078125Q5.9261315,15.754913330078125,5.853682,15.740502330078126Q5.781233,15.726091330078125,5.712987,15.697823330078124Q5.644742,15.669554330078125,5.583322,15.628515330078125Q5.521903,15.587476330078125,5.46967,15.535243330078124Q5.417437,15.483010330078125,5.376398,15.421591330078124Q5.335359,15.360171330078124,5.30709,15.291926330078125Q5.278822,15.223680330078125,5.264411,15.151231330078126Q5.25,15.078781830078125,5.25,15.004913330078125Q5.25,14.931044830078125,5.264411,14.858595330078124Q5.278822,14.786146330078125,5.30709,14.717900330078125Q5.335359,14.649655330078126,5.376398,14.588235330078126Q5.417437,14.526816330078125,5.46967,14.474583330078126Q5.521903,14.422350330078125,5.583322,14.381311330078125Q5.644742,14.340272330078125,5.712987,14.312003330078126Q5.781233,14.283735330078125,5.853682,14.269324330078124Q5.9261315,14.254913330078125,6,14.254913330078125Z" fill-rule="evenodd" fill="#231F2E" fill-opacity="1"/></g><g><path d="M21.64351,4.361407330078125C21.1681,3.886081330078125,20.3974,3.886081330078125,19.922,4.361407330078125L19.38541,4.897988330078125L21.10693,6.619503330078125L21.64351,6.082923330078125C22.118830000000003,5.607513330078125,22.118830000000003,4.836813330078125,21.64351,4.361407330078125ZM20.61487,7.111563330078125L18.893349999999998,5.390043330078125L14.997694,9.285713330078124C14.71148,9.571783330078125,14.50108,9.924673330078125,14.385519,10.312493330078125L14.0145036,11.557713330078126C13.9780114,11.680133330078124,14.011558,11.812703330078126,14.101885,11.903033330078124C14.192212,11.993353330078126,14.324782,12.026903330078126,14.4472,11.990413330078125L15.69242,11.619393330078125C16.08024,11.503833330078125,16.43313,11.293433330078125,16.7192,11.007223330078125L20.61487,7.111563330078125Z" fill="#2882FF" fill-opacity="1"/></g></g></svg>