<svg xmlns="http://www.w3.org/2000/svg" xmlns:xlink="http://www.w3.org/1999/xlink" fill="none" version="1.1" width="24" height="24" viewBox="0 0 24 24"><defs><clipPath id="master_svg0_53_01454"><rect x="0" y="0" width="24" height="24" rx="0"/></clipPath></defs><g clip-path="url(#master_svg0_53_01454)"><g><path d="M20.999984741210938,7.5L3.0000000000109375,7.5Q2.9261315412109377,7.5,2.8536827412109376,7.514411Q2.7812337412109374,7.528822,2.7129877412109376,7.55709Q2.6447417412109377,7.585359,2.5833227412109374,7.626398Q2.5219027412109374,7.667437,2.4696707412109378,7.71967Q2.4174377412109376,7.771903,2.3763977412109374,7.833322Q2.3353587412109373,7.894742,2.3070907412109376,7.962987Q2.2788227412109374,8.031233,2.2644117412109375,8.103682Q2.2499997412109374,8.1761314,2.2499997412109374,8.25L2.2499897412109373,17.24998Q2.2499867412109373,18.8033,3.3483367412109377,19.901600000000002Q4.446684741210937,21,5.9999847412109375,21L17.999984741210938,21Q19.553284741210938,21,20.65168474121094,19.901600000000002Q21.749984741210938,18.8033,21.749984741210938,17.24999L21.749984741210938,8.25Q21.749984741210938,8.1761315,21.73558474121094,8.103682Q21.721184741210937,8.031233,21.69288474121094,7.962987Q21.664584741210938,7.894742,21.623584741210937,7.833322Q21.582584741210937,7.771903,21.530284741210938,7.71967Q21.47808474121094,7.667437,21.416684741210936,7.626398Q21.355284741210937,7.585359,21.286984741210937,7.55709Q21.21878474121094,7.528822,21.146284741210938,7.514411Q21.073884741210936,7.5,20.999984741210938,7.5ZM3.7499987412109377,9L3.7499897412109373,17.24998Q3.7499877412109375,18.18197,4.408994741210938,18.841Q5.068004741210938,19.5,5.9999847412109375,19.5L17.999984741210938,19.5Q18.93198474121094,19.5,19.59098474121094,18.841Q20.249984741210938,18.18197,20.249984741210938,17.24999L20.249984741210938,9L3.7499987412109377,9Z" fill-rule="evenodd" fill="#231F2E" fill-opacity="1"/></g><g><path d="M2.25,6.75Q2.25,5.1967,3.34835,4.09835Q4.4467,3.00000488758,6,3.00000435114L18,3Q19.5534,3,20.6535,4.10792Q21.75,5.21217,21.75,6.76539L21.75,8.25001C21.75,8.66423,21.4142,9.00001,21,9.00001L3,9.00001C2.585786,9.00001,2.25,8.66423,2.25,8.25001L2.25,6.75ZM4.5,6L4.5,6.008C4.5,6.42221,4.835789999999999,6.758,5.25,6.758L5.258,6.758C5.67221,6.758,6.008,6.42221,6.008,6.008L6.008,6C6.008,5.585789999999999,5.67221,5.25,5.258,5.25L5.25,5.25C4.835789999999999,5.25,4.5,5.585789999999999,4.5,6ZM6.75,6L6.75,6.008C6.75,6.42221,7.08579,6.758,7.5,6.758L7.508,6.758C7.92221,6.758,8.258,6.42221,8.258,6.008L8.258,6C8.258,5.585789999999999,7.92221,5.25,7.508,5.25L7.5,5.25C7.08579,5.25,6.75,5.585789999999999,6.75,6ZM10.508,6.008L10.508,6C10.508,5.585789999999999,10.17221,5.25,9.758,5.25L9.75,5.25C9.33579,5.25,9,5.585789999999999,9,6L9,6.008C9,6.42221,9.33579,6.758,9.75,6.758L9.758,6.758C10.17221,6.758,10.508,6.42221,10.508,6.008Z" fill-rule="evenodd" fill="#231F2E" fill-opacity="1"/></g><g><path d="M5,12.5L5,15.5Q5,16.12132,5.4393397,16.56066Q5.87868,17,6.5,17L17.5,17Q18.121299999999998,17,18.5607,16.56066Q19,16.12132,19,15.5L19,12.5Q19,11.87868,18.5607,11.4393398Q18.121299999999998,11,17.5,11L6.5,11Q5.87868,11,5.4393399,11.4393399Q5,11.87868,5,12.5ZM6.146447,15.85355Q6,15.70711,6,15.5L6,12.5Q6,12.292893,6.146447,12.146447Q6.292893,12,6.5,12L17.5,12Q17.7071,12,17.8536,12.146447Q18,12.292894,18,12.5L18,15.5Q18,15.70711,17.8536,15.85355Q17.7071,16,17.5,16L6.5,16Q6.292893,16,6.146447,15.85355Z" fill-rule="evenodd" fill="#231F2E" fill-opacity="1"/></g><g><path d="M16.47757734375,13C16.69058734375,13,16.80183734375,13.246504,16.67333734375,13.405757L16.65433734375,13.426757L15.15430734375,14.92678C15.06523734375,15.01584,14.92382734375,15.02473,14.82430734375,14.94753L14.80080734375,14.92678L13.30077874375,13.426757L13.28002834375,13.403257L13.26652814375,13.384007L13.25302794375,13.360006L13.24877784375,13.351006L13.24202774375,13.334256L13.23402760375,13.307255L13.23152750375,13.294005L13.22902740375,13.279005L13.22802734375,13.264754L13.22802734375,13.235254L13.22927739375,13.220754L13.23152738375,13.205753L13.23402748375,13.192753L13.24202764375,13.165753L13.24877774375,13.149002L13.26627804375,13.116002L13.28252834375,13.0935014L13.30077864375,13.073251L13.32427894375,13.0525006L13.34352934375,13.0390004L13.36752934375,13.0255002L13.37652934375,13.0212501L13.39328034375,13.0144999L13.420280343750001,13.00649987L13.43353034375,13.00399977L13.44853134375,13.00149968L13.46278134375,13.000499733L16.47757734375,13Z" fill="#2882FF" fill-opacity="1"/></g></g></svg>