<svg xmlns="http://www.w3.org/2000/svg" xmlns:xlink="http://www.w3.org/1999/xlink" fill="none" version="1.1" width="24" height="24" viewBox="0 0 24 24"><defs><clipPath id="master_svg0_61_01024"><rect x="0" y="0" width="24" height="24" rx="0"/></clipPath></defs><g clip-path="url(#master_svg0_61_01024)"><g><path d="M3.7499997412109374,8.250299965L3.7499977412109375,9.65591Q3.7499977412109375,9.72978,3.7355867412109376,9.80223Q3.7211757412109376,9.87468,3.6929077412109375,9.94292Q3.6646387412109376,10.01117,3.6235997412109375,10.07259Q3.5825607412109375,10.13401,3.5303277412109377,10.18624Q3.4780947412109375,10.23847,3.4166747412109375,10.27951Q3.3552557412109376,10.32055,3.2870097412109374,10.34882Q3.2187637412109376,10.377089999999999,3.1463147412109373,10.3915Q3.0738658412109374,10.40591,2.9999972586109376,10.40591Q2.9261287412109374,10.40591,2.8536797412109376,10.3915Q2.7812307412109374,10.377089999999999,2.7129847412109376,10.34882Q2.6447387412109373,10.32055,2.5833197412109374,10.27951Q2.5219007412109375,10.23847,2.4696677412109374,10.18624Q2.4174347412109376,10.13401,2.3763957412109376,10.07259Q2.3353567412109375,10.01117,2.3070887412109373,9.94292Q2.2788197412109374,9.87468,2.2644087412109375,9.80223Q2.2499977412109375,9.72978,2.2499987412109377,9.65591L2.2499997412109374,8.250298058L2.2499997412109374,8.25Q2.2499997412109374,8.1761315,2.2644107412109378,8.103682Q2.2788227412109374,8.031233,2.3070907412109376,7.962987Q2.3353587412109373,7.894742,2.3763977412109374,7.833322Q2.4174367412109374,7.771903,2.4696697412109376,7.71967Q2.5219027412109374,7.667437,2.5833227412109374,7.626398Q2.6447417412109377,7.585359,2.7129877412109376,7.55709Q2.7812327412109377,7.528822,2.8536827412109376,7.514411Q2.9261314412109374,7.5,3.0000000000109375,7.5Q3.0738685412109374,7.5,3.1463177412109373,7.514411Q3.2187667412109375,7.528822,3.2870127412109373,7.55709Q3.3552577412109374,7.585359,3.4166777412109375,7.626398Q3.4780967412109374,7.667437,3.5303297412109376,7.71967Q3.5825627412109373,7.771903,3.6236017412109374,7.833322Q3.6646417412109376,7.894742,3.6929097412109373,7.962987Q3.7211777412109375,8.031233,3.7355887412109374,8.103682Q3.7499997412109374,8.1761315,3.7499997412109374,8.25L3.7499997412109374,8.250299965ZM20.249984741210938,8.25Q20.249984741210938,8.1761315,20.264384741210936,8.103682Q20.278784741210938,8.031233,20.307084741210936,7.962987Q20.335384741210937,7.894742,20.376384741210938,7.833322Q20.417384741210938,7.771903,20.469684741210937,7.71967Q20.521884741210936,7.667437,20.58328474121094,7.626398Q20.644784741210938,7.585359,20.71298474121094,7.55709Q20.781184741210936,7.528822,20.853684741210937,7.514411Q20.92608474121094,7.5,20.999984741210938,7.5Q21.073884741210936,7.5,21.146284741210938,7.514411Q21.21878474121094,7.528822,21.286984741210937,7.55709Q21.355284741210937,7.585359,21.416684741210936,7.626398Q21.47808474121094,7.667437,21.530284741210938,7.71967Q21.582584741210937,7.771903,21.623584741210937,7.833322Q21.664584741210938,7.894742,21.69288474121094,7.962987Q21.721184741210937,8.031233,21.73558474121094,8.103682Q21.749984741210938,8.1761315,21.749984741210938,8.25L21.749984741210938,9.65591Q21.749984741210938,9.72978,21.73558474121094,9.80223Q21.721184741210937,9.87467,21.69288474121094,9.94292Q21.664584741210938,10.01117,21.623584741210937,10.07259Q21.582584741210937,10.13401,21.530284741210938,10.18624Q21.47808474121094,10.23847,21.416684741210936,10.27951Q21.355284741210937,10.32055,21.286984741210937,10.34882Q21.21878474121094,10.377089999999999,21.146284741210938,10.3915Q21.073884741210936,10.40591,20.999984741210938,10.40591Q20.92608474121094,10.40591,20.853684741210937,10.3915Q20.781184741210936,10.377089999999999,20.71298474121094,10.34882Q20.644784741210938,10.32055,20.58328474121094,10.27951Q20.521884741210936,10.23847,20.469684741210937,10.18624Q20.417384741210938,10.13401,20.376384741210938,10.07259Q20.335384741210937,10.01117,20.307084741210936,9.94292Q20.278784741210938,9.87467,20.264384741210936,9.80223Q20.249984741210938,9.72978,20.249984741210938,9.65591L20.249984741210938,8.25ZM20.249984741210938,12.46773L20.249984741210938,15.27955Q20.249984741210938,15.35342,20.264384741210936,15.42587Q20.278784741210938,15.49831,20.307084741210936,15.566559999999999Q20.335384741210937,15.63481,20.376384741210938,15.69623Q20.417384741210938,15.75764,20.469684741210937,15.80988Q20.521884741210936,15.862110000000001,20.58328474121094,15.90315Q20.644784741210938,15.944189999999999,20.71298474121094,15.97246Q20.781184741210936,16.00072,20.853684741210937,16.01514Q20.92608474121094,16.02955,20.999984741210938,16.02955Q21.073884741210936,16.02955,21.146284741210938,16.01514Q21.21878474121094,16.00072,21.286984741210937,15.97246Q21.355284741210937,15.944189999999999,21.416684741210936,15.90315Q21.47808474121094,15.862110000000001,21.530284741210938,15.80988Q21.582584741210937,15.75764,21.623584741210937,15.69623Q21.664584741210938,15.63481,21.69288474121094,15.566559999999999Q21.721184741210937,15.49831,21.73558474121094,15.42587Q21.749984741210938,15.35342,21.749984741210938,15.27955L21.749984741210938,12.46773Q21.749984741210938,12.39386,21.73558474121094,12.32141Q21.721184741210937,12.24896,21.69288474121094,12.18072Q21.664584741210938,12.11247,21.623584741210937,12.05105Q21.582584741210937,11.98963,21.530284741210938,11.9374Q21.47808474121094,11.88517,21.416684741210936,11.84413Q21.355284741210937,11.803090000000001,21.286984741210937,11.77482Q21.21878474121094,11.74655,21.146284741210938,11.73214Q21.073884741210936,11.71773,20.999984741210938,11.71773Q20.92608474121094,11.71773,20.853684741210937,11.73214Q20.781184741210936,11.74655,20.71298474121094,11.77482Q20.644784741210938,11.803090000000001,20.58328474121094,11.84413Q20.521884741210936,11.88517,20.469684741210937,11.9374Q20.417384741210938,11.98963,20.376384741210938,12.05105Q20.335384741210937,12.11247,20.307084741210936,12.18072Q20.278784741210938,12.24896,20.264384741210936,12.32141Q20.249984741210938,12.39386,20.249984741210938,12.46773ZM3.7499907412109375,15.27955L3.7499947412109376,12.46773Q3.7499947412109376,12.39386,3.7355837412109376,12.32141Q3.7211727412109377,12.24896,3.6929047412109375,12.18072Q3.6646367412109377,12.11247,3.6235977412109373,12.05105Q3.5825577412109375,11.98963,3.5303257412109375,11.9374Q3.4780927412109373,11.88517,3.4166727412109377,11.84413Q3.3552537412109373,11.803090000000001,3.2870077412109375,11.77482Q3.2187627412109374,11.74655,3.1463137412109377,11.73214Q3.0738641412109375,11.71773,2.9999955905109377,11.71773Q2.8508117412109373,11.71773,2.7129827412109373,11.77482Q2.5751547412109375,11.83191,2.4696657412109375,11.9374Q2.3641757412109374,12.04289,2.3070857412109373,12.18072Q2.2499947412109376,12.318539999999999,2.2499947412109376,12.46773L2.2499907412109375,15.27955Q2.2499907412109375,15.42873,2.3070807412109375,15.566559999999999Q2.3641717412109378,15.70439,2.4696607412109373,15.80988Q2.5751497412109376,15.91537,2.7129777412109375,15.97246Q2.8508057412109373,16.02955,2.9999901077809374,16.02955Q3.1491747412109374,16.02955,3.2870027412109373,15.97246Q3.4248307412109376,15.91537,3.5303207412109376,15.80988Q3.6358097412109376,15.70439,3.6929007412109374,15.566559999999999Q3.7499907412109375,15.42873,3.7499907412109375,15.27955ZM20.160084741210937,17.88234Q19.839984741210937,18.9784,18.764684741210935,19.3669Q18.695284741210937,19.392,18.631984741210935,19.4302Q18.568784741210937,19.468400000000003,18.51418474121094,19.5181Q18.45958474121094,19.5679,18.41578474121094,19.6274Q18.371984741210937,19.6869,18.34058474121094,19.753700000000002Q18.309284741210938,19.8206,18.291484741210937,19.8923Q18.27378474121094,19.964,18.27038474121094,20.0378Q18.266984741210937,20.1116,18.27808474121094,20.1846Q18.289084741210935,20.2577,18.314284741210937,20.3271Q18.364884741210936,20.4675,18.465484741210936,20.5777Q18.56598474121094,20.6879,18.701084741210938,20.7513Q18.83608474121094,20.8146,18.985184741210936,20.8215Q19.134184741210937,20.8283,19.274484741210937,20.7776Q21.066184741210936,20.130200000000002,21.59998474121094,18.3029Q21.620684741210937,18.232,21.627184741210936,18.15842Q21.63358474121094,18.08483,21.625584741210936,18.011400000000002Q21.617584741210937,17.93796,21.59548474121094,17.8675Q21.573284741210937,17.797040000000003,21.537784741210938,17.73225Q21.50228474121094,17.66747,21.454884741210936,17.610860000000002Q21.407384741210937,17.55424,21.349784741210936,17.50797Q21.29218474121094,17.46171,21.22668474121094,17.42756Q21.16118474121094,17.39341,21.090284741210937,17.372700000000002Q20.947084741210936,17.33088,20.798784741210937,17.34703Q20.65048474121094,17.36319,20.519684741210938,17.43487Q20.388884741210937,17.50655,20.29538474121094,17.62285Q20.20198474121094,17.73914,20.160084741210937,17.88234ZM5.235254741210937,19.3669Q4.160004741210938,18.9784,3.8398627412109376,17.88234Q3.7980357412109376,17.73914,3.7045907412109376,17.62285Q3.6111467412109377,17.50655,3.4803127412109376,17.43487Q3.3494777412109373,17.36319,3.2011707412109374,17.34704Q3.0528639412109375,17.33088,2.9096634412109377,17.372709999999998Q2.7664627412109377,17.41453,2.6501697412109375,17.50798Q2.5338767412109373,17.601419999999997,2.4621947412109373,17.73226Q2.3905137412109374,17.86309,2.3743567412109376,18.011400000000002Q2.3581997412109375,18.15971,2.4000277412109376,18.3029Q2.9337717412109376,20.130200000000002,4.7255147412109375,20.7776Q4.794984741210937,20.8027,4.868024741210937,20.8138Q4.941054741210937,20.8249,5.014844741210938,20.8215Q5.088634741210937,20.8181,5.160344741210937,20.8004Q5.232054741210938,20.782600000000002,5.298934741210937,20.7513Q5.365804741210937,20.719900000000003,5.425274741210938,20.676099999999998Q5.484744741210937,20.6323,5.534524741210937,20.5777Q5.5843047412109375,20.5231,5.6224747412109375,20.459899999999998Q5.6606447412109375,20.3966,5.685754741210937,20.3271Q5.710854741210937,20.2577,5.7219247412109375,20.1846Q5.732984741210938,20.1116,5.729594741210938,20.0378Q5.7261947412109375,19.964,5.708474741210937,19.8923Q5.690754741210938,19.8206,5.659374741210938,19.753700000000002Q5.628004741210937,19.6869,5.5841847412109376,19.6274Q5.540364741210937,19.5679,5.485784741210937,19.5181Q5.431214741210937,19.468400000000003,5.367974741210937,19.4302Q5.304734741210938,19.392,5.235254741210937,19.3669ZM10.594084741210938,19.5L7.782264741210938,19.5Q7.708394741210937,19.5,7.635944741210937,19.514400000000002Q7.5634947412109375,19.5288,7.495254741210937,19.5571Q7.427004741210937,19.5853,7.365584741210937,19.6264Q7.304164741210937,19.6674,7.251934741210937,19.7197Q7.199704741210938,19.771900000000002,7.158664741210938,19.8333Q7.117624741210937,19.8947,7.089354741210937,19.963Q7.061084741210937,20.0312,7.046674741210937,20.1037Q7.032264741210938,20.176099999999998,7.032264741210938,20.25Q7.032264741210938,20.323900000000002,7.046674741210937,20.3963Q7.061084741210937,20.4688,7.089354741210937,20.537Q7.117624741210937,20.6052,7.158664741210938,20.6667Q7.199704741210938,20.728099999999998,7.251934741210937,20.7803Q7.304164741210937,20.8325,7.365584741210937,20.8736Q7.427004741210937,20.9146,7.495254741210937,20.9429Q7.5634947412109375,20.9712,7.635944741210937,20.985599999999998Q7.708394741210937,21,7.782264741210938,21L10.594084741210938,21Q10.667954741210938,21,10.740404741210938,20.985599999999998Q10.812854741210938,20.9712,10.881094741210937,20.9429Q10.949344741210938,20.9146,11.010764741210938,20.8736Q11.072184741210938,20.8325,11.124414741210938,20.7803Q11.176644741210938,20.728099999999998,11.217684741210938,20.6667Q11.258724741210937,20.6052,11.286994741210938,20.537Q11.315264741210937,20.4688,11.329674741210937,20.3963Q11.344084741210937,20.323900000000002,11.344084741210937,20.25Q11.344084741210937,20.176099999999998,11.329674741210937,20.1037Q11.315264741210937,20.0312,11.286994741210938,19.963Q11.258724741210937,19.8947,11.217684741210938,19.8333Q11.176644741210938,19.771900000000002,11.124414741210938,19.7197Q11.072184741210938,19.6674,11.010764741210938,19.6264Q10.949344741210938,19.5853,10.881094741210937,19.5571Q10.812854741210938,19.5288,10.740404741210938,19.514400000000002Q10.667954741210938,19.5,10.594084741210938,19.5ZM16.217684741210938,19.5L13.405884741210938,19.5Q13.332084741210938,19.5,13.259584741210938,19.514400000000002Q13.187184741210938,19.5288,13.118884741210938,19.5571Q13.050684741210938,19.5853,12.989224741210938,19.6264Q12.927804741210938,19.6674,12.875574741210938,19.7197Q12.823344741210937,19.771900000000002,12.782304741210938,19.8333Q12.741264741210937,19.8947,12.712994741210938,19.963Q12.684724741210937,20.0312,12.670314741210937,20.1037Q12.655904741210938,20.176099999999998,12.655904741210938,20.25Q12.655904741210938,20.323900000000002,12.670314741210937,20.3963Q12.684724741210937,20.4688,12.712994741210938,20.537Q12.741264741210937,20.6052,12.782304741210938,20.6667Q12.823344741210937,20.728099999999998,12.875574741210938,20.7803Q12.927804741210938,20.8325,12.989224741210938,20.8736Q13.050684741210938,20.9146,13.118884741210938,20.9429Q13.187184741210938,20.9712,13.259584741210938,20.985599999999998Q13.332084741210938,21,13.405884741210938,21L16.217684741210938,21Q16.29158474121094,21,16.364084741210938,20.985599999999998Q16.43648474121094,20.9712,16.504784741210937,20.9429Q16.572984741210938,20.9146,16.634384741210937,20.8736Q16.695784741210936,20.8325,16.74808474121094,20.7803Q16.800284741210938,20.728099999999998,16.841284741210938,20.6667Q16.882384741210938,20.6052,16.91058474121094,20.537Q16.938884741210938,20.4688,16.953284741210936,20.3963Q16.967684741210938,20.323900000000002,16.967684741210938,20.25Q16.967684741210938,20.176099999999998,16.953284741210936,20.1037Q16.938884741210938,20.0312,16.91058474121094,19.963Q16.882384741210938,19.8947,16.841284741210938,19.8333Q16.800284741210938,19.771900000000002,16.74808474121094,19.7197Q16.695784741210936,19.6674,16.634384741210937,19.6264Q16.572984741210938,19.5853,16.504784741210937,19.5571Q16.43648474121094,19.5288,16.364084741210938,19.514400000000002Q16.29158474121094,19.5,16.217684741210938,19.5Z" fill-rule="evenodd" fill="#231F2E" fill-opacity="1"/></g><g><path d="M2.25,6.75Q2.25,5.1967,3.34835,4.09835Q4.4467,3.00000488758,6,3.00000435114L18,3Q19.5534,3,20.6535,4.10792Q21.75,5.21217,21.75,6.76539L21.75,8.25001C21.75,8.66423,21.4142,9.00001,21,9.00001L3,9.00001C2.585786,9.00001,2.25,8.66423,2.25,8.25001L2.25,6.75ZM4.5,6L4.5,6.008C4.5,6.42221,4.835789999999999,6.758,5.25,6.758L5.258,6.758C5.67221,6.758,6.008,6.42221,6.008,6.008L6.008,6C6.008,5.585789999999999,5.67221,5.25,5.258,5.25L5.25,5.25C4.835789999999999,5.25,4.5,5.585789999999999,4.5,6ZM6.75,6L6.75,6.008C6.75,6.42221,7.08579,6.758,7.5,6.758L7.508,6.758C7.92221,6.758,8.258,6.42221,8.258,6.008L8.258,6C8.258,5.585789999999999,7.92221,5.25,7.508,5.25L7.5,5.25C7.08579,5.25,6.75,5.585789999999999,6.75,6ZM10.508,6.008L10.508,6C10.508,5.585789999999999,10.17221,5.25,9.758,5.25L9.75,5.25C9.33579,5.25,9,5.585789999999999,9,6L9,6.008C9,6.42221,9.33579,6.758,9.75,6.758L9.758,6.758C10.17221,6.758,10.508,6.42221,10.508,6.008Z" fill-rule="evenodd" fill="#231F2E" fill-opacity="1"/></g><g><g><path d="M13.27275302810669,14.250002748947143Q13.27275302810669,14.312522748947144,13.266633028106689,14.374752748947143Q13.26050302810669,14.436972748947143,13.24830302810669,14.498292748947144Q13.23610302810669,14.559622748947143,13.21795302810669,14.619452748947143Q13.19980302810669,14.679282748947143,13.17587302810669,14.737052748947143Q13.15195302810669,14.794812748947143,13.12247302810669,14.849962748947144Q13.09300302810669,14.905102748947144,13.05826302810669,14.957092748947144Q13.02352302810669,15.009072748947144,12.98386302810669,15.057412748947144Q12.944193028106689,15.105742748947144,12.89998302810669,15.149952748947143Q12.85577302810669,15.194162748947143,12.80744302810669,15.233832748947144Q12.75910302810669,15.273492748947143,12.70712302810669,15.308232748947145Q12.65513302810669,15.342972748947144,12.59999302810669,15.372442748947144Q12.544843028106689,15.401922748947143,12.487083028106689,15.425842748947144Q12.429313028106689,15.449772748947144,12.36948302810669,15.467922748947144Q12.30965302810669,15.486072748947144,12.24832302810669,15.498272748947144Q12.18700302810669,15.510472748947144,12.12478302810669,15.516602748947143Q12.06255302810669,15.522722748947144,12.000033028106689,15.522722748947144Q11.93750302810669,15.522722748947144,11.87528302810669,15.516602748947143Q11.81305302810669,15.510472748947144,11.75173302810669,15.498272748947144Q11.69041002810669,15.486072748947144,11.63057702810669,15.467922748947144Q11.57074402810669,15.449772748947144,11.51297902810669,15.425842748947144Q11.455213028106689,15.401922748947143,11.400071028106689,15.372442748947144Q11.344929028106689,15.342972748947144,11.29294102810669,15.308232748947145Q11.24095302810669,15.273492748947143,11.19262102810669,15.233832748947144Q11.14428802810669,15.194162748947143,11.10007602810669,15.149952748947143Q11.05586402810669,15.105742748947144,11.016199028106689,15.057412748947144Q10.97653302810669,15.009072748947144,10.941796028106689,14.957092748947144Q10.907059028106689,14.905102748947144,10.87758502810669,14.849962748947144Q10.84811102810669,14.794812748947143,10.82418362810669,14.737052748947143Q10.80025632810669,14.679282748947143,10.78210622810669,14.619452748947143Q10.76395612810669,14.559622748947143,10.75175812810669,14.498292748947144Q10.739560128106689,14.436972748947143,10.73343155810669,14.374752748947143Q10.72730302810669,14.312522748947144,10.72730302810669,14.250002748947143Q10.72730302810669,14.187472748947144,10.73343155810669,14.125252748947144Q10.739560128106689,14.063022748947144,10.75175812810669,14.001702748947144Q10.76395612810669,13.940379748947144,10.78210622810669,13.880546748947143Q10.80025632810669,13.820713748947144,10.82418362810669,13.762948748947144Q10.84811102810669,13.705182748947143,10.87758502810669,13.650040748947143Q10.907059028106689,13.594898748947143,10.941796028106689,13.542910748947143Q10.97653302810669,13.490922748947144,11.016199028106689,13.442590748947143Q11.05586402810669,13.394257748947144,11.10007602810669,13.350045748947144Q11.14428802810669,13.305833748947144,11.19262102810669,13.266168748947143Q11.24095302810669,13.226502748947144,11.29294102810669,13.191765748947143Q11.344929028106689,13.157028748947143,11.400071028106689,13.127554748947144Q11.455213028106689,13.098080748947144,11.51297902810669,13.074153348947144Q11.57074402810669,13.050226048947144,11.63057702810669,13.032075948947144Q11.69041002810669,13.013925848947144,11.75173302810669,13.001727848947144Q11.81305302810669,12.989529848947143,11.87528302810669,12.983401278947143Q11.93750302810669,12.977272748947144,12.000033028106689,12.977272748947144Q12.06255302810669,12.977272748947144,12.12478302810669,12.983401278947143Q12.18700302810669,12.989529848947143,12.24832302810669,13.001727848947144Q12.30965302810669,13.013925848947144,12.36948302810669,13.032075948947144Q12.429313028106689,13.050226048947144,12.487083028106689,13.074153348947144Q12.544843028106689,13.098080748947144,12.59999302810669,13.127554748947144Q12.65513302810669,13.157028748947143,12.70712302810669,13.191765748947143Q12.75910302810669,13.226502748947144,12.80744302810669,13.266168748947143Q12.85577302810669,13.305833748947144,12.89998302810669,13.350045748947144Q12.944193028106689,13.394257748947144,12.98386302810669,13.442590748947143Q13.02352302810669,13.490922748947144,13.05826302810669,13.542910748947143Q13.09300302810669,13.594898748947143,13.12247302810669,13.650040748947143Q13.15195302810669,13.705182748947143,13.17587302810669,13.762948748947144Q13.19980302810669,13.820713748947144,13.21795302810669,13.880546748947143Q13.23610302810669,13.940379748947144,13.24830302810669,14.001702748947144Q13.26050302810669,14.063022748947144,13.266633028106689,14.125252748947144Q13.27275302810669,14.187472748947144,13.27275302810669,14.250002748947143Z" fill="#2882FF" fill-opacity="1"/></g><g><path d="M7.47039375234375,14.01539C8.10166615234375,12.11861,9.89069615234375,10.75,12.00045615234375,10.75C14.10893615234375,10.75,15.89712615234375,12.117329999999999,16.529246152343752,14.01242C16.58015615234375,14.166,16.58015615234375,14.33145,16.529246152343752,14.48461C15.89839615234375,16.38139,14.10893615234375,17.75,11.99960615234375,17.75C9.89112615234375,17.75,8.10251515234375,16.38267,7.47081815234375,14.48758C7.41980215234375,14.33432,7.41980215234375,14.16865,7.47081815234375,14.01539L7.47039375234375,14.01539ZM14.22730615234375,14.25C14.22730615234375,15.48009,13.23011615234375,16.47727,12.00002615234375,16.47727C10.76994615234375,16.47727,9.77275615234375,15.48009,9.77275615234375,14.25C9.77275615234375,13.01991,10.76994615234375,12.02273,12.00002615234375,12.02273C13.23011615234375,12.02273,14.22730615234375,13.01991,14.22730615234375,14.25Z" fill-rule="evenodd" fill="#2882FF" fill-opacity="1"/></g></g></g></svg>