<svg xmlns="http://www.w3.org/2000/svg" xmlns:xlink="http://www.w3.org/1999/xlink" fill="none" version="1.1" width="24" height="24" viewBox="0 0 24 24"><defs><clipPath id="master_svg0_48_03307"><rect x="0" y="0" width="24" height="24" rx="0"/></clipPath></defs><g clip-path="url(#master_svg0_48_03307)"><g><path d="M9.002685546875,15Q9.002685546875,14.9261315,9.017096546874999,14.853682Q9.031507546875,14.781233,9.059775546875,14.712987Q9.088044546875,14.644742,9.129083546875,14.583322Q9.170122546875,14.521903,9.222355546875,14.46967Q9.274588546875,14.417437,9.336007546875,14.376398Q9.397427546875,14.335359,9.465672546875,14.30709Q9.533918546875,14.278822,9.606367546875,14.264410999999999Q9.678817046875,14.25,9.752685546875,14.25Q9.826554046875,14.25,9.899003546875,14.264410999999999Q9.971452546875,14.278822,10.039698546875,14.30709Q10.107943546875,14.335359,10.169363546875,14.376398Q10.230782546875,14.417437,10.283015546875,14.46967Q10.335248546875,14.521903,10.376287546875,14.583322Q10.417326546875,14.644742,10.445595546875,14.712987Q10.473863546875,14.781233,10.488274546875001,14.853682Q10.502685546875,14.9261315,10.502685546875,15L10.502685546875,20.19299Q10.502685546875,20.26686,10.488274546875001,20.33931Q10.473863546875,20.41176,10.445595546875,20.48001Q10.417326546875,20.54825,10.376287546875,20.60967Q10.335248546875,20.67109,10.283015546875,20.72332Q10.230782546875,20.77556,10.169363546875,20.816589999999998Q10.107943546875,20.85763,10.039698546875,20.8859Q9.971452546875,20.91417,9.899003546875,20.92858Q9.826554046875,20.94299,9.752685546875,20.94299Q9.678817046875,20.94299,9.606367546875,20.92858Q9.533918546875,20.91417,9.465672546875,20.8859Q9.397427546875,20.85763,9.336007546875,20.816589999999998Q9.274588546875,20.77556,9.222355546875,20.72332Q9.170122546875,20.67109,9.129083546875,20.60967Q9.088044546875,20.54825,9.059775546875,20.48001Q9.031507546875,20.41176,9.017096546874999,20.33931Q9.002685546875,20.26686,9.002685546875,20.19299L9.002685546875,15Z" fill-rule="evenodd" fill="#2882FF" fill-opacity="1"/></g><g><path d="M9.25,7.75L20.9586,7.75Q21.0325,7.75,21.1049,7.735589Q21.1774,7.721178,21.2456,7.69291Q21.3139,7.664641,21.3753,7.623602Q21.436700000000002,7.582563,21.4889,7.53033Q21.5412,7.478097,21.5822,7.416678Q21.6233,7.355258,21.6515,7.287013Q21.6798,7.218767,21.694200000000002,7.146318Q21.7086,7.0738685,21.7086,7Q21.7086,6.9261315,21.694200000000002,6.853682Q21.6798,6.781233,21.6515,6.712987Q21.6233,6.644742,21.5822,6.583322Q21.5412,6.521903,21.4889,6.46967Q21.436700000000002,6.417437,21.3753,6.376398Q21.3139,6.335359,21.2456,6.30709Q21.1774,6.278822,21.1049,6.264411Q21.0325,6.25,20.9586,6.25L9.25,6.25Q7.6967,6.25,6.59835,7.34835Q5.5,8.4467,5.5,10L5.5,20.192999999999998Q5.5,20.2669,5.514411,20.3393Q5.528822,20.4118,5.55709,20.48Q5.585359,20.5482,5.626398,20.6097Q5.667437,20.6711,5.71967,20.723300000000002Q5.771903,20.7756,5.833322,20.8166Q5.894742,20.857599999999998,5.962987,20.8859Q6.031233,20.9142,6.103682,20.9286Q6.1761315,20.942999999999998,6.25,20.942999999999998Q6.3238685,20.942999999999998,6.396318,20.9286Q6.468767,20.9142,6.537013,20.8859Q6.605258,20.857599999999998,6.666678,20.8166Q6.728097,20.7756,6.78033,20.723300000000002Q6.832563,20.6711,6.873602,20.6097Q6.914641,20.5482,6.94291,20.48Q6.971178,20.4118,6.985589,20.3393Q7,20.2669,7,20.192999999999998L7,10Q7,9.06802,7.65901,8.40901Q8.31802,7.75,9.25,7.75Z" fill-rule="evenodd" fill="#231F2E" fill-opacity="1"/></g><g><path d="M12.75,9.75000435114L21,9.75L21,15.75L9.75,15.75001C9.335786,15.75001,9,15.41423,9,15.00001L9,13.5Q9,11.9467,10.09835,10.84835Q11.1967,9.75000488758,12.75,9.75000435114ZM11.25,12.75L11.25,12.758C11.25,13.17221,11.58579,13.508,12,13.508L12.008,13.508C12.42221,13.508,12.758,13.17221,12.758,12.758L12.758,12.75C12.758,12.33579,12.42221,12,12.008,12L12,12C11.58579,12,11.25,12.33579,11.25,12.75ZM13.5,12.75L13.5,12.758C13.5,13.17221,13.83579,13.508,14.25,13.508L14.258,13.508C14.67221,13.508,15.008,13.17221,15.008,12.758L15.008,12.75C15.008,12.33579,14.67221,12,14.258,12L14.25,12C13.83579,12,13.5,12.33579,13.5,12.75ZM17.258,12.758L17.258,12.75C17.258,12.33579,16.92221,12,16.508,12L16.5,12C16.08579,12,15.75,12.33579,15.75,12.75L15.75,12.758C15.75,13.17221,16.08579,13.508,16.5,13.508L16.508,13.508C16.92221,13.508,17.258,13.17221,17.258,12.758Z" fill-rule="evenodd" fill="#2882FF" fill-opacity="1"/></g><g><path d="M17.999984741210938,3.0000123977661133L5.9999847412109375,3.0000123977661133Q4.446684741210937,3.0000123977661133,3.3483347412109374,4.098362397766113Q2.2499847412109375,5.196712397766113,2.2499847412109375,6.750012397766113L2.2499847412109375,17.250012397766113Q2.2499847412109375,18.803312397766113,3.3483347412109374,19.90161239776611Q4.446684741210937,21.000012397766113,5.9999847412109375,21.000012397766113L17.999984741210938,21.000012397766113Q19.553284741210938,21.000012397766113,20.65168474121094,19.90161239776611Q21.749984741210938,18.803312397766113,21.749984741210938,17.250012397766113L21.749984741210938,6.750012397766113Q21.749984741210938,5.196712397766113,20.65168474121094,4.098361397766113Q19.553284741210938,3.0000123977661133,17.999984741210938,3.0000123977661133ZM4.408994741210938,5.159022397766114Q5.068004741210938,4.500012397766113,5.9999847412109375,4.500012397766113L17.999984741210938,4.500012397766113Q18.93198474121094,4.500012397766113,19.59098474121094,5.159022397766114Q20.249984741210938,5.818032397766114,20.249984741210938,6.750012397766113L20.249984741210938,17.250012397766113Q20.249984741210938,18.182012397766115,19.59098474121094,18.841012397766114Q18.93198474121094,19.500012397766113,17.999984741210938,19.500012397766113L5.9999847412109375,19.500012397766113Q5.068004741210938,19.500012397766113,4.408994741210938,18.841012397766114Q3.7499847412109375,18.182012397766115,3.7499847412109375,17.250012397766113L3.7499847412109375,6.750012397766113Q3.7499847412109375,5.818032397766114,4.408994741210938,5.159022397766114Z" fill-rule="evenodd" fill="#231F2E" fill-opacity="1"/></g></g></svg>