<svg xmlns="http://www.w3.org/2000/svg" xmlns:xlink="http://www.w3.org/1999/xlink" fill="none" version="1.1" width="24" height="24" viewBox="0 0 24 24"><defs><clipPath id="master_svg0_48_02175"><rect x="0" y="0" width="24" height="24" rx="0"/></clipPath></defs><g clip-path="url(#master_svg0_48_02175)"><g><path d="M17.5308,2.470096L20.5303,5.46967Q20.6358,5.57516,20.6929,5.71299Q20.75,5.850820000000001,20.75,6Q20.75,6.149179999999999,20.6929,6.28701Q20.6358,6.42484,20.5303,6.53033L17.5307,9.52994L17.5303,9.53033Q17.424799999999998,9.635819999999999,17.287,9.692910000000001Q17.1492,9.75,17,9.75Q16.926099999999998,9.75,16.8537,9.73559Q16.7812,9.72118,16.713,9.692910000000001Q16.6447,9.66464,16.5833,9.6236Q16.521900000000002,9.58256,16.4697,9.53033Q16.4174,9.478100000000001,16.3764,9.41668Q16.3354,9.355260000000001,16.3071,9.28701Q16.2788,9.21877,16.264400000000002,9.14632Q16.25,9.07387,16.25,9Q16.25,8.850819999999999,16.3071,8.71299Q16.3642,8.57516,16.4697,8.46967L16.4703,8.46904L18.1893,6.75L7,6.75Q6.068020000000001,6.75,5.40901,7.40901Q4.75,8.06802,4.75,9L4.75,12Q4.75,12.07387,4.735589,12.14632Q4.721178,12.21877,4.69291,12.28701Q4.664641,12.35526,4.623602,12.41668Q4.582563,12.4781,4.53033,12.53033Q4.478097,12.58256,4.416678,12.6236Q4.355258,12.66464,4.287013,12.69291Q4.218767,12.72118,4.146318,12.73559Q4.0738685,12.75,4,12.75Q3.9261315,12.75,3.853682,12.73559Q3.781233,12.72118,3.712987,12.69291Q3.644742,12.66464,3.583322,12.6236Q3.521903,12.58256,3.46967,12.53033Q3.417437,12.4781,3.376398,12.41668Q3.335359,12.35526,3.30709,12.28701Q3.278822,12.21877,3.264411,12.14632Q3.25,12.07387,3.25,12L3.25,9Q3.25,7.4467,4.34835,6.34835Q5.4467,5.25,7,5.25L18.1893,5.25L16.470100000000002,3.5307560000000002L16.4697,3.53033Q16.3642,3.424841,16.3071,3.287013Q16.25,3.149184,16.25,3Q16.25,2.9261315,16.264400000000002,2.853682Q16.2788,2.781233,16.3071,2.712987Q16.3354,2.644742,16.3764,2.583322Q16.4174,2.521903,16.4697,2.46967Q16.521900000000002,2.417437,16.5833,2.376398Q16.6447,2.335359,16.713,2.30709Q16.7812,2.278822,16.8537,2.264411Q16.926099999999998,2.25,17,2.25Q17.1492,2.25,17.287,2.30709Q17.424799999999998,2.364181,17.5303,2.46967L17.5308,2.470096Z" fill-rule="evenodd" fill="#231F2E" fill-opacity="1"/></g><g><path d="M19.25,12Q19.25,11.9261315,19.264400000000002,11.853682Q19.2788,11.781233,19.3071,11.712987Q19.3354,11.644742,19.3764,11.583322Q19.4174,11.521903,19.4697,11.46967Q19.521900000000002,11.417437,19.5833,11.376398Q19.6447,11.335359,19.713,11.30709Q19.7812,11.278822,19.8537,11.264410999999999Q19.926099999999998,11.25,20,11.25Q20.0739,11.25,20.1463,11.264410999999999Q20.2188,11.278822,20.287,11.30709Q20.3553,11.335359,20.4167,11.376398Q20.4781,11.417437,20.5303,11.46967Q20.5826,11.521903,20.6236,11.583322Q20.6646,11.644742,20.6929,11.712987Q20.7212,11.781233,20.7356,11.853682Q20.75,11.9261315,20.75,12L20.75,15Q20.75,16.5533,19.651699999999998,17.65165Q18.5533,18.75,17,18.75L5.81066,18.75L7.52994,20.469279999999998L7.53033,20.46967Q7.63582,20.57516,7.6929099999999995,20.712989999999998Q7.75,20.85082,7.75,21Q7.75,21.07387,7.73559,21.14632Q7.72118,21.21877,7.6929099999999995,21.287010000000002Q7.66464,21.35526,7.6236,21.41668Q7.58256,21.478099999999998,7.53033,21.53033Q7.4780999999999995,21.58256,7.4166799999999995,21.6236Q7.3552599999999995,21.66464,7.28701,21.692909999999998Q7.21877,21.72118,7.146319999999999,21.735590000000002Q7.073869999999999,21.75,7,21.75Q6.850820000000001,21.75,6.71299,21.692909999999998Q6.57516,21.635820000000002,6.46967,21.53033L3.46967,18.53033Q3.364181,18.42484,3.30709,18.287010000000002Q3.25,18.14918,3.25,18Q3.25,17.85082,3.30709,17.712989999999998Q3.364181,17.57516,3.46967,17.46967L6.4692799999999995,14.47006L6.46967,14.46967Q6.57516,14.364180000000001,6.71299,14.30709Q6.850820000000001,14.25,7,14.25Q7.073869999999999,14.25,7.146319999999999,14.26441Q7.21877,14.27882,7.28701,14.30709Q7.3552599999999995,14.33536,7.4166799999999995,14.3764Q7.4780999999999995,14.41744,7.53033,14.46967Q7.58256,14.5219,7.6236,14.58332Q7.66464,14.64474,7.6929099999999995,14.71299Q7.72118,14.78123,7.73559,14.85368Q7.75,14.92613,7.75,15Q7.75,15.14918,7.6929099999999995,15.28701Q7.63582,15.42484,7.53033,15.53033L5.81066,17.25L17,17.25Q17.932000000000002,17.25,18.591,16.590989999999998Q19.25,15.93198,19.25,15L19.25,12Z" fill-rule="evenodd" fill="#231F2E" fill-opacity="1"/></g><g><g><path d="M10.366666555404663,9.497650146484375L15.499996555404664,9.497650146484375Q15.549246555404663,9.497650146484375,15.597546555404662,9.507257146484376Q15.645846555404663,9.516865146484374,15.691336555404664,9.535710146484375Q15.736836555404663,9.554556146484375,15.777786555404663,9.581915146484375Q15.818726555404663,9.609275146484375,15.853556555404662,9.644097146484375Q15.888376555404662,9.678919146484375,15.915736555404663,9.719865146484375Q15.943096555404663,9.760811146484375,15.961936555404662,9.806308146484374Q15.980786555404663,9.851805146484375,15.990396555404663,9.900105046484375Q15.999996555404664,9.948404446484375,15.999996555404664,9.997650146484375Q15.999996555404664,10.046895846484375,15.990396555404663,10.095195246484375Q15.980786555404663,10.143495146484375,15.961936555404662,10.188992146484376Q15.943096555404663,10.234489146484375,15.915736555404663,10.275435146484375Q15.888376555404662,10.316381146484375,15.853556555404662,10.351203146484375Q15.818726555404663,10.386025146484375,15.777786555404663,10.413385146484375Q15.736836555404663,10.440744146484375,15.691336555404664,10.459590146484375Q15.645846555404663,10.478435146484376,15.597546555404662,10.488043146484374Q15.549246555404663,10.497650146484375,15.499996555404664,10.497650146484375L10.366666555404663,10.497650146484375Q10.317420855404663,10.497650146484375,10.269121455404663,10.488043146484374Q10.220821555404664,10.478435146484376,10.175324555404663,10.459590146484375Q10.129827555404663,10.440744146484375,10.088881555404663,10.413385146484375Q10.047935555404663,10.386025146484375,10.013113555404663,10.351203146484375Q9.978291555404663,10.316381146484375,9.950931555404663,10.275435146484375Q9.923572555404663,10.234489146484375,9.904726555404663,10.188992146484376Q9.885881555404662,10.143495146484375,9.876273555404664,10.095195246484375Q9.866666555404663,10.046895846484375,9.866666555404663,9.997650146484375Q9.866666555404663,9.948404446484375,9.876273555404664,9.900105046484375Q9.885881555404662,9.851805146484375,9.904726555404663,9.806308146484374Q9.923572555404663,9.760811146484375,9.950931555404663,9.719865146484375Q9.978291555404663,9.678919146484375,10.013113555404663,9.644097146484375Q10.047935555404663,9.609275146484375,10.088881555404663,9.581915146484375Q10.129827555404663,9.554556146484375,10.175324555404663,9.535710146484375Q10.220821555404664,9.516865146484374,10.269121455404663,9.507257146484376Q10.317420855404663,9.497650146484375,10.366666555404663,9.497650146484375Z" fill-rule="evenodd" fill="#2882FF" fill-opacity="1"/></g><g><path d="M10.366666555404663,11.497650146484375L15.499996555404664,11.497650146484375Q15.549246555404663,11.497650146484375,15.597546555404662,11.507257146484376Q15.645846555404663,11.516865146484374,15.691336555404664,11.535710146484375Q15.736836555404663,11.554556146484375,15.777786555404663,11.581915146484375Q15.818726555404663,11.609275146484375,15.853556555404662,11.644097146484375Q15.888376555404662,11.678919146484375,15.915736555404663,11.719865146484375Q15.943096555404663,11.760811146484375,15.961936555404662,11.806308146484374Q15.980786555404663,11.851805146484375,15.990396555404663,11.900105046484375Q15.999996555404664,11.948404446484375,15.999996555404664,11.997650146484375Q15.999996555404664,12.046895846484375,15.990396555404663,12.095195246484375Q15.980786555404663,12.143495146484375,15.961936555404662,12.188992146484376Q15.943096555404663,12.234489146484375,15.915736555404663,12.275435146484375Q15.888376555404662,12.316381146484375,15.853556555404662,12.351203146484375Q15.818726555404663,12.386025146484375,15.777786555404663,12.413385146484375Q15.736836555404663,12.440744146484375,15.691336555404664,12.459590146484375Q15.645846555404663,12.478435146484376,15.597546555404662,12.488043146484374Q15.549246555404663,12.497650146484375,15.499996555404664,12.497650146484375L10.366666555404663,12.497650146484375Q10.317420855404663,12.497650146484375,10.269121455404663,12.488043146484374Q10.220821555404664,12.478435146484376,10.175324555404663,12.459590146484375Q10.129827555404663,12.440744146484375,10.088881555404663,12.413385146484375Q10.047935555404663,12.386025146484375,10.013113555404663,12.351203146484375Q9.978291555404663,12.316381146484375,9.950931555404663,12.275435146484375Q9.923572555404663,12.234489146484375,9.904726555404663,12.188992146484376Q9.885881555404662,12.143495146484375,9.876273555404664,12.095195246484375Q9.866666555404663,12.046895846484375,9.866666555404663,11.997650146484375Q9.866666555404663,11.948404446484375,9.876273555404664,11.900105046484375Q9.885881555404662,11.851805146484375,9.904726555404663,11.806308146484374Q9.923572555404663,11.760811146484375,9.950931555404663,11.719865146484375Q9.978291555404663,11.678919146484375,10.013113555404663,11.644097146484375Q10.047935555404663,11.609275146484375,10.088881555404663,11.581915146484375Q10.129827555404663,11.554556146484375,10.175324555404663,11.535710146484375Q10.220821555404664,11.516865146484374,10.269121455404663,11.507257146484376Q10.317420855404663,11.497650146484375,10.366666555404663,11.497650146484375Z" fill-rule="evenodd" fill="#2882FF" fill-opacity="1"/></g><g><path d="M10.366666555404663,13.497650146484375L15.499996555404664,13.497650146484375Q15.549246555404663,13.497650146484375,15.597546555404662,13.507257146484376Q15.645846555404663,13.516865146484374,15.691336555404664,13.535710146484375Q15.736836555404663,13.554556146484375,15.777786555404663,13.581915146484375Q15.818726555404663,13.609275146484375,15.853556555404662,13.644097146484375Q15.888376555404662,13.678919146484375,15.915736555404663,13.719865146484375Q15.943096555404663,13.760811146484375,15.961936555404662,13.806308146484374Q15.980786555404663,13.851805146484375,15.990396555404663,13.900105046484375Q15.999996555404664,13.948404446484375,15.999996555404664,13.997650146484375Q15.999996555404664,14.046895846484375,15.990396555404663,14.095195246484375Q15.980786555404663,14.143495146484375,15.961936555404662,14.188992146484376Q15.943096555404663,14.234489146484375,15.915736555404663,14.275435146484375Q15.888376555404662,14.316381146484375,15.853556555404662,14.351203146484375Q15.818726555404663,14.386025146484375,15.777786555404663,14.413385146484375Q15.736836555404663,14.440744146484375,15.691336555404664,14.459590146484375Q15.645846555404663,14.478435146484376,15.597546555404662,14.488043146484374Q15.549246555404663,14.497650146484375,15.499996555404664,14.497650146484375L10.366666555404663,14.497650146484375Q10.317420855404663,14.497650146484375,10.269121455404663,14.488043146484374Q10.220821555404664,14.478435146484376,10.175324555404663,14.459590146484375Q10.129827555404663,14.440744146484375,10.088881555404663,14.413385146484375Q10.047935555404663,14.386025146484375,10.013113555404663,14.351203146484375Q9.978291555404663,14.316381146484375,9.950931555404663,14.275435146484375Q9.923572555404663,14.234489146484375,9.904726555404663,14.188992146484376Q9.885881555404662,14.143495146484375,9.876273555404664,14.095195246484375Q9.866666555404663,14.046895846484375,9.866666555404663,13.997650146484375Q9.866666555404663,13.948404446484375,9.876273555404664,13.900105046484375Q9.885881555404662,13.851805146484375,9.904726555404663,13.806308146484374Q9.923572555404663,13.760811146484375,9.950931555404663,13.719865146484375Q9.978291555404663,13.678919146484375,10.013113555404663,13.644097146484375Q10.047935555404663,13.609275146484375,10.088881555404663,13.581915146484375Q10.129827555404663,13.554556146484375,10.175324555404663,13.535710146484375Q10.220821555404664,13.516865146484374,10.269121455404663,13.507257146484376Q10.317420855404663,13.497650146484375,10.366666555404663,13.497650146484375Z" fill-rule="evenodd" fill="#2882FF" fill-opacity="1"/></g><g><path d="M7.875,10.002316916484375L7.875,9.997650146484375L7.875,10.002316896484375Q7.875,10.063874046484376,7.887009,10.124248146484375Q7.899018,10.184622146484376,7.922575,10.241494146484374Q7.946132,10.298365146484375,7.980332,10.349548146484375Q8.014531,10.400731146484375,8.058058,10.444258146484374Q8.101586,10.487786146484375,8.152769,10.521985146484376Q8.203952,10.556185146484374,8.260823,10.579741146484375Q8.317694,10.603298146484375,8.378069,10.615307146484374Q8.4384429,10.627317146484375,8.5,10.627317146484375Q8.5615571,10.627317146484375,8.621931,10.615307146484374Q8.682306,10.603298146484375,8.739177,10.579741146484375Q8.796048,10.556185146484374,8.847231,10.521985146484376Q8.898414,10.487786146484375,8.941942,10.444258146484374Q8.985469,10.400731146484375,9.019668,10.349548146484375Q9.053868,10.298365146484375,9.077425,10.241494146484374Q9.100982,10.184622146484376,9.112991,10.124248146484375Q9.125,10.063874046484376,9.125,10.002316896484375L7.875,10.002316916484375Z" fill-rule="evenodd" fill="#2882FF" fill-opacity="1"/></g><g><path d="M7.875,12.002316916484375L7.875,11.997650146484375L7.875,12.002316896484375Q7.875,12.063874046484376,7.887009,12.124248146484375Q7.899018,12.184622146484376,7.922575,12.241494146484374Q7.946132,12.298365146484375,7.980332,12.349548146484375Q8.014531,12.400731146484375,8.058058,12.444258146484374Q8.101586,12.487786146484375,8.152769,12.521985146484376Q8.203952,12.556185146484374,8.260823,12.579741146484375Q8.317694,12.603298146484375,8.378069,12.615307146484374Q8.4384429,12.627317146484375,8.5,12.627317146484375Q8.5615571,12.627317146484375,8.621931,12.615307146484374Q8.682306,12.603298146484375,8.739177,12.579741146484375Q8.796048,12.556185146484374,8.847231,12.521985146484376Q8.898414,12.487786146484375,8.941942,12.444258146484374Q8.985469,12.400731146484375,9.019668,12.349548146484375Q9.053868,12.298365146484375,9.077425,12.241494146484374Q9.100982,12.184622146484376,9.112991,12.124248146484375Q9.125,12.063874046484376,9.125,12.002316896484375L7.875,12.002316916484375Z" fill-rule="evenodd" fill="#2882FF" fill-opacity="1"/></g><g><path d="M7.875,14.002316916484375L7.875,13.997650146484375L7.875,14.002316896484375Q7.875,14.063874046484376,7.887009,14.124248146484375Q7.899018,14.184622146484376,7.922575,14.241494146484374Q7.946132,14.298365146484375,7.980332,14.349548146484375Q8.014531,14.400731146484375,8.058058,14.444258146484374Q8.101586,14.487786146484375,8.152769,14.521985146484376Q8.203952,14.556185146484374,8.260823,14.579741146484375Q8.317694,14.603298146484375,8.378069,14.615307146484374Q8.4384429,14.627317146484375,8.5,14.627317146484375Q8.5615571,14.627317146484375,8.621931,14.615307146484374Q8.682306,14.603298146484375,8.739177,14.579741146484375Q8.796048,14.556185146484374,8.847231,14.521985146484376Q8.898414,14.487786146484375,8.941942,14.444258146484374Q8.985469,14.400731146484375,9.019668,14.349548146484375Q9.053868,14.298365146484375,9.077425,14.241494146484374Q9.100982,14.184622146484376,9.112991,14.124248146484375Q9.125,14.063874046484376,9.125,14.002316896484375L7.875,14.002316916484375Z" fill-rule="evenodd" fill="#2882FF" fill-opacity="1"/></g></g></g></svg>