<svg xmlns="http://www.w3.org/2000/svg" xmlns:xlink="http://www.w3.org/1999/xlink" fill="none" version="1.1" width="24" height="24" viewBox="0 0 24 24"><defs><clipPath id="master_svg0_58_01575"><rect x="0" y="0" width="24" height="24" rx="0"/></clipPath></defs><g clip-path="url(#master_svg0_58_01575)"><g><path d="M20.249984741210938,9L20.249984741210938,14.25Q20.249984741210938,14.32387,20.264384741210936,14.39632Q20.278784741210938,14.46877,20.307084741210936,14.53701Q20.335384741210937,14.605260000000001,20.376384741210938,14.66668Q20.417384741210938,14.728100000000001,20.469684741210937,14.78033Q20.521884741210936,14.83256,20.58328474121094,14.8736Q20.644684741210938,14.91464,20.71298474121094,14.942910000000001Q20.781184741210936,14.97118,20.853684741210937,14.98559Q20.92608474121094,15,20.999984741210938,15Q21.073884741210936,15,21.146284741210938,14.98559Q21.21878474121094,14.97118,21.286984741210937,14.942910000000001Q21.355284741210937,14.91464,21.416684741210936,14.8736Q21.47808474121094,14.83256,21.530284741210938,14.78033Q21.582584741210937,14.728100000000001,21.623584741210937,14.66668Q21.664584741210938,14.605260000000001,21.69288474121094,14.53701Q21.721184741210937,14.46877,21.73558474121094,14.39632Q21.749984741210938,14.32387,21.749984741210938,14.25L21.749984741210938,8.25Q21.749984741210938,8.100816,21.69288474121094,7.962988Q21.635784741210937,7.825161,21.530284741210938,7.719671Q21.42488474121094,7.614182,21.286984741210937,7.557091Q21.149184741210938,7.5,20.999984741210938,7.5L3.0000000000109375,7.5Q2.9261315412109377,7.5,2.8536827412109376,7.514411Q2.7812337412109374,7.528822,2.7129877412109376,7.55709Q2.6447417412109377,7.585359,2.5833227412109374,7.626398Q2.5219027412109374,7.667437,2.4696707412109378,7.71967Q2.4174377412109376,7.771903,2.3763977412109374,7.833322Q2.3353587412109373,7.894742,2.3070907412109376,7.962987Q2.2788227412109374,8.031233,2.2644107412109378,8.103682Q2.2499997412109374,8.1761314,2.2499997412109374,8.25L2.2499887412109376,17.24999Q2.2499867412109373,18.8033,3.3483347412109374,19.901600000000002Q4.446684741210937,21,5.9999847412109375,21L12.999984741210938,21Q13.073884741210938,21,13.146284741210938,20.985599999999998Q13.218784741210937,20.9712,13.286984741210938,20.9429Q13.355284741210937,20.9146,13.416684741210938,20.8736Q13.478084741210937,20.8326,13.530284741210938,20.7803Q13.582584741210937,20.728099999999998,13.623584741210937,20.6667Q13.664584741210938,20.6053,13.692884741210937,20.537Q13.721184741210937,20.4688,13.735584741210937,20.3963Q13.749984741210938,20.323900000000002,13.749984741210938,20.25Q13.749984741210938,20.176099999999998,13.735584741210937,20.1037Q13.721184741210937,20.0312,13.692884741210937,19.963Q13.664584741210938,19.8947,13.623584741210937,19.8333Q13.582584741210937,19.771900000000002,13.530284741210938,19.7197Q13.478084741210937,19.6674,13.416684741210938,19.6264Q13.355284741210937,19.5854,13.286984741210938,19.5571Q13.218784741210937,19.5288,13.146284741210938,19.514400000000002Q13.073884741210938,19.5,12.999984741210938,19.5L5.9999847412109375,19.5Q5.068004741210938,19.5,4.408994741210938,18.841Q3.7499877412109375,18.18197,3.7499887412109376,17.24999L3.7499987412109377,9L20.249984741210938,9Z" fill-rule="evenodd" fill="#231F2E" fill-opacity="1"/></g><g><path d="M2.25,6.75Q2.25,5.1967,3.34835,4.09835Q4.4467,3.00000488758,6,3.00000435114L18,3Q19.5534,3,20.6535,4.10792Q21.75,5.21217,21.75,6.76539L21.75,8.25001C21.75,8.66423,21.4142,9.00001,21,9.00001L3,9.00001C2.585786,9.00001,2.25,8.66423,2.25,8.25001L2.25,6.75ZM4.5,6L4.5,6.008C4.5,6.42221,4.835789999999999,6.758,5.25,6.758L5.258,6.758C5.67221,6.758,6.008,6.42221,6.008,6.008L6.008,6C6.008,5.585789999999999,5.67221,5.25,5.258,5.25L5.25,5.25C4.835789999999999,5.25,4.5,5.585789999999999,4.5,6ZM6.75,6L6.75,6.008C6.75,6.42221,7.08579,6.758,7.5,6.758L7.508,6.758C7.92221,6.758,8.258,6.42221,8.258,6.008L8.258,6C8.258,5.585789999999999,7.92221,5.25,7.508,5.25L7.5,5.25C7.08579,5.25,6.75,5.585789999999999,6.75,6ZM10.508,6.008L10.508,6C10.508,5.585789999999999,10.17221,5.25,9.758,5.25L9.75,5.25C9.33579,5.25,9,5.585789999999999,9,6L9,6.008C9,6.42221,9.33579,6.758,9.75,6.758L9.758,6.758C10.17221,6.758,10.508,6.42221,10.508,6.008Z" fill-rule="evenodd" fill="#231F2E" fill-opacity="1"/></g><g><path d="M14.5,14.5L16.5,14.5Q16.549239999999998,14.5,16.597540000000002,14.49039Q16.64584,14.48078,16.69134,14.46194Q16.73684,14.44309,16.77778,14.41573Q16.818730000000002,14.38838,16.85355,14.35355Q16.888370000000002,14.31873,16.91573,14.27778Q16.943089999999998,14.23684,16.96194,14.19134Q16.98078,14.14584,16.990389999999998,14.09754Q17,14.04925,17,14Q17,13.95075,16.990389999999998,13.90245Q16.98078,13.85415,16.96194,13.80866Q16.943089999999998,13.76316,16.91573,13.72221Q16.888370000000002,13.68127,16.85355,13.64645Q16.818730000000002,13.61162,16.77778,13.58426Q16.73684,13.55691,16.69134,13.53806Q16.64584,13.519210000000001,16.597540000000002,13.50961Q16.549239999999998,13.5,16.5,13.5L14.829699999999999,13.5L13.45957,10.30304Q13.420390000000001,10.211626,13.349219999999999,10.142162Q13.27804,10.072699,13.185690000000001,10.035762Q13.093350000000001,9.998825,12.9939,10.000037Q12.894449999999999,10.00125,12.80304,10.040428Q12.699349999999999,10.084865,12.62479,10.169518Q12.550229999999999,10.254172,12.51924,10.362639L10.90559,16.01041L9.95957,13.80304Q9.93066,13.73558,9.88359,13.67928Q9.83651,13.62298,9.77525,13.58258Q9.71398,13.54218,9.64368,13.521090000000001Q9.57339,13.5,9.5,13.5L7.5,13.5Q7.4507543,13.5,7.4024549,13.50961Q7.354155,13.519210000000001,7.308658,13.53806Q7.263161,13.55691,7.222215,13.58426Q7.181269,13.61162,7.146447,13.64645Q7.111625,13.68127,7.084265,13.72221Q7.056906,13.76316,7.03806,13.80866Q7.019215,13.85415,7.009607,13.90245Q7,13.95075,7,14Q7,14.04925,7.009607,14.09754Q7.019215,14.14584,7.03806,14.19134Q7.056906,14.23684,7.084265,14.27778Q7.111625,14.31873,7.146447,14.35355Q7.181269,14.38838,7.222215,14.41573Q7.263161,14.44309,7.308658,14.46194Q7.354155,14.48078,7.4024549,14.49039Q7.4507543,14.5,7.5,14.5L9.1703,14.5L10.54043,17.69696Q10.584859999999999,17.80065,10.66952,17.87521Q10.75417,17.94977,10.862639999999999,17.98076Q10.90999,17.99429,10.95907,17.99832Q11.00815,18.00235,11.05707,17.99673Q11.106,17.99111,11.15289,17.97605Q11.199770000000001,17.96099,11.24282,17.93708Q11.28587,17.91316,11.32342,17.88131Q11.36098,17.84945,11.3916,17.81088Q11.42222,17.77231,11.44473,17.72851Q11.46723,17.68471,11.48076,17.63736L13.09441,11.98959L14.04043,14.19696Q14.06934,14.26441,14.11641,14.32072Q14.16349,14.37702,14.22476,14.41742Q14.28602,14.45782,14.35632,14.478909999999999Q14.42661,14.5,14.5,14.5Z" fill-rule="evenodd" fill="#2882FF" fill-opacity="1"/></g><g><path d="M16.25,17Q16.25,16.9261315,16.264411,16.853682Q16.278822,16.781233,16.30709,16.712987Q16.335359,16.644742,16.376398000000002,16.583322Q16.417437,16.521903000000002,16.46967,16.46967Q16.521903000000002,16.417437,16.583322,16.376398000000002Q16.644742,16.335359,16.712987,16.30709Q16.781233,16.278822,16.853682,16.264411Q16.9261315,16.25,17,16.25Q17.0738685,16.25,17.146318,16.264411Q17.218767,16.278822,17.287013,16.30709Q17.355258,16.335359,17.416678,16.376398000000002Q17.478096999999998,16.417437,17.53033,16.46967Q17.582563,16.521903000000002,17.623601999999998,16.583322Q17.664641,16.644742,17.69291,16.712987Q17.721178,16.781233,17.735589,16.853682Q17.75,16.9261315,17.75,17L17.75,22Q17.75,22.07387,17.735589,22.14632Q17.721178,22.21877,17.69291,22.287010000000002Q17.664641,22.35526,17.623601999999998,22.41668Q17.582563,22.4781,17.53033,22.53033Q17.478096999999998,22.58256,17.416678,22.6236Q17.355258,22.66464,17.287013,22.69291Q17.218767,22.72118,17.146318,22.735590000000002Q17.0738685,22.75,17,22.75Q16.9261315,22.75,16.853682,22.735590000000002Q16.781233,22.72118,16.712987,22.69291Q16.644742,22.66464,16.583322,22.6236Q16.521903000000002,22.58256,16.46967,22.53033Q16.417437,22.4781,16.376398000000002,22.41668Q16.335359,22.35526,16.30709,22.287010000000002Q16.278822,22.21877,16.264411,22.14632Q16.25,22.07387,16.25,22L16.25,17Z" fill-rule="evenodd" fill="#2882FF" fill-opacity="1"/></g><g><path d="M20.25,17Q20.25,16.9261315,20.264411,16.853682Q20.278822,16.781233,20.30709,16.712987Q20.335359,16.644742,20.376398000000002,16.583322Q20.417437,16.521903000000002,20.46967,16.46967Q20.521903000000002,16.417437,20.583322,16.376398000000002Q20.644742,16.335359,20.712987,16.30709Q20.781233,16.278822,20.853682,16.264411Q20.9261315,16.25,21,16.25Q21.0738685,16.25,21.146318,16.264411Q21.218767,16.278822,21.287013,16.30709Q21.355258,16.335359,21.416678,16.376398000000002Q21.478096999999998,16.417437,21.53033,16.46967Q21.582563,16.521903000000002,21.623601999999998,16.583322Q21.664641,16.644742,21.69291,16.712987Q21.721178,16.781233,21.735589,16.853682Q21.75,16.9261315,21.75,17L21.75,22Q21.75,22.07387,21.735589,22.14632Q21.721178,22.21877,21.69291,22.287010000000002Q21.664641,22.35526,21.623601999999998,22.41668Q21.582563,22.4781,21.53033,22.53033Q21.478096999999998,22.58256,21.416678,22.6236Q21.355258,22.66464,21.287013,22.69291Q21.218767,22.72118,21.146318,22.735590000000002Q21.0738685,22.75,21,22.75Q20.9261315,22.75,20.853682,22.735590000000002Q20.781233,22.72118,20.712987,22.69291Q20.644742,22.66464,20.583322,22.6236Q20.521903000000002,22.58256,20.46967,22.53033Q20.417437,22.4781,20.376398000000002,22.41668Q20.335359,22.35526,20.30709,22.287010000000002Q20.278822,22.21877,20.264411,22.14632Q20.25,22.07387,20.25,22L20.25,17Z" fill-rule="evenodd" fill="#2882FF" fill-opacity="1"/></g></g></svg>