<svg xmlns="http://www.w3.org/2000/svg" xmlns:xlink="http://www.w3.org/1999/xlink" fill="none" version="1.1" width="24" height="24" viewBox="0 0 24 24"><defs><clipPath id="master_svg0_48_02161"><rect x="0" y="0" width="24" height="24" rx="0"/></clipPath></defs><g clip-path="url(#master_svg0_48_02161)"><g><path d="M17.5308,2.470096L20.5303,5.46967Q20.6358,5.57516,20.6929,5.71299Q20.75,5.850820000000001,20.75,6Q20.75,6.149179999999999,20.6929,6.28701Q20.6358,6.42484,20.5303,6.53033L17.5307,9.52994L17.5303,9.53033Q17.424799999999998,9.635819999999999,17.287,9.692910000000001Q17.1492,9.75,17,9.75Q16.926099999999998,9.75,16.8537,9.73559Q16.7812,9.72118,16.713,9.692910000000001Q16.6447,9.66464,16.5833,9.6236Q16.521900000000002,9.58256,16.4697,9.53033Q16.4174,9.478100000000001,16.3764,9.41668Q16.3354,9.355260000000001,16.3071,9.28701Q16.2788,9.21877,16.264400000000002,9.14632Q16.25,9.07387,16.25,9Q16.25,8.850819999999999,16.3071,8.71299Q16.3642,8.57516,16.4697,8.46967L16.4703,8.46904L18.1893,6.75L7,6.75Q6.068020000000001,6.75,5.40901,7.40901Q4.75,8.06802,4.75,9L4.75,12Q4.75,12.07387,4.735589,12.14632Q4.721178,12.21877,4.69291,12.28701Q4.664641,12.35526,4.623602,12.41668Q4.582563,12.4781,4.53033,12.53033Q4.478097,12.58256,4.416678,12.6236Q4.355258,12.66464,4.287013,12.69291Q4.218767,12.72118,4.146318,12.73559Q4.0738685,12.75,4,12.75Q3.9261315,12.75,3.853682,12.73559Q3.781233,12.72118,3.712987,12.69291Q3.644742,12.66464,3.583322,12.6236Q3.521903,12.58256,3.46967,12.53033Q3.417437,12.4781,3.376398,12.41668Q3.335359,12.35526,3.30709,12.28701Q3.278822,12.21877,3.264411,12.14632Q3.25,12.07387,3.25,12L3.25,9Q3.25,7.4467,4.34835,6.34835Q5.4467,5.25,7,5.25L18.1893,5.25L16.470100000000002,3.5307560000000002L16.4697,3.53033Q16.3642,3.424841,16.3071,3.287013Q16.25,3.149184,16.25,3Q16.25,2.9261315,16.264400000000002,2.853682Q16.2788,2.781233,16.3071,2.712987Q16.3354,2.644742,16.3764,2.583322Q16.4174,2.521903,16.4697,2.46967Q16.521900000000002,2.417437,16.5833,2.376398Q16.6447,2.335359,16.713,2.30709Q16.7812,2.278822,16.8537,2.264411Q16.926099999999998,2.25,17,2.25Q17.1492,2.25,17.287,2.30709Q17.424799999999998,2.364181,17.5303,2.46967L17.5308,2.470096Z" fill-rule="evenodd" fill="#231F2E" fill-opacity="1"/></g><g><path d="M19.25,12Q19.25,11.9261315,19.264400000000002,11.853682Q19.2788,11.781233,19.3071,11.712987Q19.3354,11.644742,19.3764,11.583322Q19.4174,11.521903,19.4697,11.46967Q19.521900000000002,11.417437,19.5833,11.376398Q19.6447,11.335359,19.713,11.30709Q19.7812,11.278822,19.8537,11.264410999999999Q19.926099999999998,11.25,20,11.25Q20.0739,11.25,20.1463,11.264410999999999Q20.2188,11.278822,20.287,11.30709Q20.3553,11.335359,20.4167,11.376398Q20.4781,11.417437,20.5303,11.46967Q20.5826,11.521903,20.6236,11.583322Q20.6646,11.644742,20.6929,11.712987Q20.7212,11.781233,20.7356,11.853682Q20.75,11.9261315,20.75,12L20.75,15Q20.75,16.5533,19.651699999999998,17.65165Q18.5533,18.75,17,18.75L5.81066,18.75L7.52994,20.469279999999998L7.53033,20.46967Q7.63582,20.57516,7.6929099999999995,20.712989999999998Q7.75,20.85082,7.75,21Q7.75,21.07387,7.73559,21.14632Q7.72118,21.21877,7.6929099999999995,21.287010000000002Q7.66464,21.35526,7.6236,21.41668Q7.58256,21.478099999999998,7.53033,21.53033Q7.4780999999999995,21.58256,7.4166799999999995,21.6236Q7.3552599999999995,21.66464,7.28701,21.692909999999998Q7.21877,21.72118,7.146319999999999,21.735590000000002Q7.073869999999999,21.75,7,21.75Q6.850820000000001,21.75,6.71299,21.692909999999998Q6.57516,21.635820000000002,6.46967,21.53033L3.46967,18.53033Q3.364181,18.42484,3.30709,18.287010000000002Q3.25,18.14918,3.25,18Q3.25,17.85082,3.30709,17.712989999999998Q3.364181,17.57516,3.46967,17.46967L6.4692799999999995,14.47006L6.46967,14.46967Q6.57516,14.364180000000001,6.71299,14.30709Q6.850820000000001,14.25,7,14.25Q7.073869999999999,14.25,7.146319999999999,14.26441Q7.21877,14.27882,7.28701,14.30709Q7.3552599999999995,14.33536,7.4166799999999995,14.3764Q7.4780999999999995,14.41744,7.53033,14.46967Q7.58256,14.5219,7.6236,14.58332Q7.66464,14.64474,7.6929099999999995,14.71299Q7.72118,14.78123,7.73559,14.85368Q7.75,14.92613,7.75,15Q7.75,15.14918,7.6929099999999995,15.28701Q7.63582,15.42484,7.53033,15.53033L5.81066,17.25L17,17.25Q17.932000000000002,17.25,18.591,16.590989999999998Q19.25,15.93198,19.25,15L19.25,12Z" fill-rule="evenodd" fill="#231F2E" fill-opacity="1"/></g><g><path d="M9.146447,9.853553Q9.07612,9.783227,9.03806,9.691342Q9,9.5994562,9,9.5Q9,9.4507543,9.009607,9.4024549Q9.019214999999999,9.354155,9.03806,9.308658Q9.056906,9.263161,9.084265,9.222215Q9.111625,9.181269,9.146447,9.146447Q9.181269,9.111625,9.222215,9.084265Q9.263161,9.056906,9.308658,9.03806Q9.354155,9.019214999999999,9.4024549,9.009607Q9.4507543,9,9.5,9Q9.5994562,9,9.691342,9.03806Q9.783227,9.07612,9.853553,9.146447L14.85355,14.14645Q14.92388,14.21677,14.96194,14.30866Q15,14.40054,15,14.5Q15,14.54925,14.99039,14.59755Q14.98078,14.64584,14.96194,14.69134Q14.94309,14.73684,14.91573,14.77778Q14.88837,14.81873,14.85355,14.85355Q14.81873,14.88837,14.77778,14.91573Q14.73684,14.94309,14.69134,14.96194Q14.64584,14.98078,14.59755,14.99039Q14.54925,15,14.5,15Q14.40054,15,14.30866,14.96194Q14.21677,14.92388,14.14645,14.85355L9.146447,9.853553L9.146447,9.853553Z" fill-rule="evenodd" fill="#2882FF" fill-opacity="1"/></g><g><path d="M14.85355,9.853553Q14.92388,9.783227,14.96194,9.691342Q15,9.5994562,15,9.5Q15,9.4507543,14.99039,9.4024549Q14.98078,9.354155,14.96194,9.308658Q14.94309,9.263161,14.91573,9.222215Q14.88837,9.181269,14.85355,9.146447Q14.81873,9.111625,14.77778,9.084265Q14.73684,9.056906,14.69134,9.03806Q14.64584,9.019214999999999,14.59755,9.009607Q14.54925,9,14.5,9Q14.40054,9,14.30866,9.03806Q14.21677,9.07612,14.14645,9.146447L14.14629,9.146604L9.146604,14.14629L9.146447,14.14645Q9.07612,14.21677,9.03806,14.30866Q9,14.40054,9,14.5Q9,14.54925,9.009607,14.59755Q9.019214999999999,14.64584,9.03806,14.69134Q9.056906,14.73684,9.084265,14.77778Q9.111625,14.81873,9.146447,14.85355Q9.181269,14.88837,9.222215,14.91573Q9.263161,14.94309,9.308658,14.96194Q9.354155,14.98078,9.4024549,14.99039Q9.4507543,15,9.5,15Q9.5994562,15,9.691342,14.96194Q9.783227,14.92388,9.853553,14.85355L9.85371,14.8534L14.8534,9.85371L14.85355,9.853553L14.85355,9.853553Z" fill-rule="evenodd" fill="#2882FF" fill-opacity="1"/></g></g></svg>