<svg xmlns="http://www.w3.org/2000/svg" xmlns:xlink="http://www.w3.org/1999/xlink" fill="none" version="1.1" width="24" height="24" viewBox="0 0 24 24"><defs><clipPath id="master_svg0_48_03198"><rect x="0" y="0" width="24" height="24" rx="0"/></clipPath></defs><g clip-path="url(#master_svg0_48_03198)"><g><path d="M20.999984741210938,7.5L3.0000000000109375,7.5Q2.9261315412109377,7.5,2.8536827412109376,7.514411Q2.7812337412109374,7.528822,2.7129877412109376,7.55709Q2.6447417412109377,7.585359,2.5833227412109374,7.626398Q2.5219027412109374,7.667437,2.4696707412109378,7.71967Q2.4174377412109376,7.771903,2.3763977412109374,7.833322Q2.3353587412109373,7.894742,2.3070907412109376,7.962987Q2.2788227412109374,8.031233,2.2644117412109375,8.103682Q2.2499997412109374,8.1761314,2.2499997412109374,8.25L2.2499897412109373,17.24998Q2.2499867412109373,18.8033,3.3483367412109377,19.901600000000002Q4.446684741210937,21,5.9999847412109375,21L17.999984741210938,21Q19.553284741210938,21,20.65168474121094,19.901600000000002Q21.749984741210938,18.8033,21.749984741210938,17.24999L21.749984741210938,8.25Q21.749984741210938,8.1761315,21.73558474121094,8.103682Q21.721184741210937,8.031233,21.69288474121094,7.962987Q21.664584741210938,7.894742,21.623584741210937,7.833322Q21.582584741210937,7.771903,21.530284741210938,7.71967Q21.47808474121094,7.667437,21.416684741210936,7.626398Q21.355284741210937,7.585359,21.286984741210937,7.55709Q21.21878474121094,7.528822,21.146284741210938,7.514411Q21.073884741210936,7.5,20.999984741210938,7.5ZM3.7499987412109377,9L3.7499897412109373,17.24998Q3.7499877412109375,18.18197,4.408994741210938,18.841Q5.068004741210938,19.5,5.9999847412109375,19.5L17.999984741210938,19.5Q18.93198474121094,19.5,19.59098474121094,18.841Q20.249984741210938,18.18197,20.249984741210938,17.24999L20.249984741210938,9L3.7499987412109377,9Z" fill-rule="evenodd" fill="#231F2E" fill-opacity="1"/></g><g><path d="M2.25,6.75Q2.25,5.1967,3.34835,4.09835Q4.4467,3.00000488758,6,3.00000435114L18,3Q19.5534,3,20.6535,4.10792Q21.75,5.21217,21.75,6.76539L21.75,8.25001C21.75,8.66423,21.4142,9.00001,21,9.00001L3,9.00001C2.585786,9.00001,2.25,8.66423,2.25,8.25001L2.25,6.75ZM4.5,6L4.5,6.008C4.5,6.42221,4.835789999999999,6.758,5.25,6.758L5.258,6.758C5.67221,6.758,6.008,6.42221,6.008,6.008L6.008,6C6.008,5.585789999999999,5.67221,5.25,5.258,5.25L5.25,5.25C4.835789999999999,5.25,4.5,5.585789999999999,4.5,6ZM6.75,6L6.75,6.008C6.75,6.42221,7.08579,6.758,7.5,6.758L7.508,6.758C7.92221,6.758,8.258,6.42221,8.258,6.008L8.258,6C8.258,5.585789999999999,7.92221,5.25,7.508,5.25L7.5,5.25C7.08579,5.25,6.75,5.585789999999999,6.75,6ZM10.508,6.008L10.508,6C10.508,5.585789999999999,10.17221,5.25,9.758,5.25L9.75,5.25C9.33579,5.25,9,5.585789999999999,9,6L9,6.008C9,6.42221,9.33579,6.758,9.75,6.758L9.758,6.758C10.17221,6.758,10.508,6.42221,10.508,6.008Z" fill-rule="evenodd" fill="#231F2E" fill-opacity="1"/></g><g><path d="M14.353613,12.896506L15.35356,13.896452Q15.38838,13.931274,15.41574,13.97222Q15.4431,14.013166,15.46194,14.058663Q15.48079,14.10416,15.4904,14.15246Q15.5,14.200759,15.50001,14.25001Q15.5,14.29925,15.4904,14.34755Q15.48079,14.39585,15.46194,14.44135Q15.4431,14.48684,15.41574,14.52779Q15.38838,14.56874,15.35356,14.60356L14.353553,15.60356Q14.283227,15.67389,14.191342,15.71195Q14.0994562,15.75001,14,15.75001Q13.9507543,15.75001,13.9024549,15.740400000000001Q13.854155,15.7308,13.808658,15.71195Q13.763161,15.6931,13.722215,15.66574Q13.681269,15.63839,13.646447,15.60356Q13.611625,15.56874,13.584265,15.5278Q13.556906,15.48685,13.53806,15.44135Q13.519214999999999,15.39585,13.509607,15.34756Q13.5,15.29926,13.5,15.25001Q13.5,15.150549999999999,13.53806,15.05867Q13.57612,14.96678,13.646447,14.89646L14.292898,14.25001L13.646447,13.603553Q13.57612,13.533227,13.53806,13.441342Q13.5,13.3494562,13.5,13.25Q13.5,13.2007543,13.509607,13.1524549Q13.519214999999999,13.104155,13.53806,13.058658Q13.556906,13.013161,13.584265,12.972215Q13.611625,12.931269,13.646447,12.896447Q13.681269,12.861625,13.722215,12.834265Q13.763161,12.806906,13.808658,12.78806Q13.854155,12.769214999999999,13.9024549,12.759607Q13.9507543,12.75,14,12.75Q14.0994562,12.75,14.191342,12.78806Q14.283227,12.82612,14.353553,12.896447L14.353613,12.896506Z" fill-rule="evenodd" fill="#2882FF" fill-opacity="1"/></g><g><path d="M9,13.75L15,13.75Q15.04925,13.75,15.09755,13.759607Q15.14584,13.769214999999999,15.19134,13.78806Q15.23684,13.806906,15.27778,13.834265Q15.31873,13.861625,15.35355,13.896447Q15.38837,13.931269,15.41573,13.972215Q15.44309,14.013161,15.46194,14.058658Q15.48078,14.104155,15.49039,14.1524549Q15.5,14.2007543,15.5,14.25Q15.5,14.2992457,15.49039,14.3475451Q15.48078,14.395845,15.46194,14.441342Q15.44309,14.486839,15.41573,14.527785Q15.38837,14.568731,15.35355,14.603553Q15.31873,14.638375,15.27778,14.665735Q15.23684,14.693094,15.19134,14.71194Q15.14584,14.730785000000001,15.09755,14.740393Q15.04925,14.75,15,14.75L9,14.75Q8.9507543,14.75,8.9024549,14.740393Q8.854155,14.730785000000001,8.808658,14.71194Q8.763161,14.693094,8.722215,14.665735Q8.681269,14.638375,8.646447,14.603553Q8.611625,14.568731,8.584265,14.527785Q8.556906,14.486839,8.53806,14.441342Q8.519214999999999,14.395845,8.509607,14.3475451Q8.5,14.2992457,8.5,14.25Q8.5,14.2007543,8.509607,14.1524549Q8.519214999999999,14.104155,8.53806,14.058658Q8.556906,14.013161,8.584265,13.972215Q8.611625,13.931269,8.646447,13.896447Q8.681269,13.861625,8.722215,13.834265Q8.763161,13.806906,8.808658,13.78806Q8.854155,13.769214999999999,8.9024549,13.759607Q8.9507543,13.75,9,13.75Z" fill-rule="evenodd" fill="#2882FF" fill-opacity="1"/></g><g transform="matrix(-1,0,0,1,20,0)"><path d="M10.353613,12.896506L11.35356,13.896452Q11.38838,13.931274,11.41574,13.97222Q11.4431,14.013166,11.46194,14.058663Q11.48079,14.10416,11.4904,14.15246Q11.5,14.200759,11.50001,14.25001Q11.5,14.29925,11.4904,14.34755Q11.48079,14.39585,11.46194,14.44135Q11.4431,14.48684,11.41574,14.52779Q11.38838,14.56874,11.35356,14.60356L10.353553,15.60356Q10.283227,15.67389,10.191342,15.71195Q10.0994562,15.75001,10,15.75001Q9.9507543,15.75001,9.9024549,15.740400000000001Q9.854155,15.7308,9.808658,15.71195Q9.763161,15.6931,9.722215,15.66574Q9.681269,15.63839,9.646447,15.60356Q9.611625,15.56874,9.584265,15.5278Q9.556906,15.48685,9.53806,15.44135Q9.519214999999999,15.39585,9.509607,15.34756Q9.5,15.29926,9.5,15.25001Q9.5,15.150549999999999,9.53806,15.05867Q9.57612,14.96678,9.646447,14.89646L10.292898,14.25001L9.646447,13.603553Q9.57612,13.533227,9.53806,13.441342Q9.5,13.3494562,9.5,13.25Q9.5,13.2007543,9.509607,13.1524549Q9.519214999999999,13.104155,9.53806,13.058658Q9.556906,13.013161,9.584265,12.972215Q9.611625,12.931269,9.646447,12.896447Q9.681269,12.861625,9.722215,12.834265Q9.763161,12.806906,9.808658,12.78806Q9.854155,12.769214999999999,9.9024549,12.759607Q9.9507543,12.75,10,12.75Q10.0994562,12.75,10.191342,12.78806Q10.283227,12.82612,10.353553,12.896447L10.353613,12.896506Z" fill-rule="evenodd" fill="#2882FF" fill-opacity="1"/></g><g transform="matrix(0,1,1,0,-5.25,5.25)"><path d="M11.353613,15.896506L12.35356,16.896452Q12.38838,16.931274,12.41574,16.97222Q12.4431,17.013166,12.46194,17.058663Q12.48079,17.10416,12.4904,17.15246Q12.5,17.200759,12.50001,17.25001Q12.5,17.29925,12.4904,17.34755Q12.48079,17.39585,12.46194,17.44135Q12.4431,17.48684,12.41574,17.52779Q12.38838,17.56874,12.35356,17.60356L11.353553,18.60356Q11.283227,18.67389,11.191342,18.71195Q11.0994562,18.75001,11,18.75001Q10.9507543,18.75001,10.9024549,18.7404Q10.854155,18.7308,10.808658,18.71195Q10.763161,18.6931,10.722215,18.66574Q10.681269,18.63839,10.646447,18.60356Q10.611625,18.56874,10.584265,18.5278Q10.556906,18.48685,10.53806,18.44135Q10.519214999999999,18.39585,10.509607,18.34756Q10.5,18.29926,10.5,18.25001Q10.5,18.15055,10.53806,18.05867Q10.57612,17.96678,10.646447,17.89646L11.292898,17.25001L10.646447,16.603553Q10.57612,16.533227,10.53806,16.441342Q10.5,16.3494562,10.5,16.25Q10.5,16.2007543,10.509607,16.1524549Q10.519214999999999,16.104155,10.53806,16.058658Q10.556906,16.013161,10.584265,15.972215Q10.611625,15.931269,10.646447,15.896447Q10.681269,15.861625,10.722215,15.834265Q10.763161,15.806906,10.808658,15.78806Q10.854155,15.769214999999999,10.9024549,15.759607Q10.9507543,15.75,11,15.75Q11.0994562,15.75,11.191342,15.78806Q11.283227,15.82612,11.353553,15.896447L11.353613,15.896506Z" fill-rule="evenodd" fill="#2882FF" fill-opacity="1"/></g><g transform="matrix(0,1,1,0,0.75,-0.75)"><path d="M12,10.75L18,10.75Q18.04925,10.75,18.09755,10.759607Q18.14584,10.769214999999999,18.19134,10.78806Q18.23684,10.806906,18.27778,10.834265Q18.318730000000002,10.861625,18.35355,10.896447Q18.388370000000002,10.931269,18.41573,10.972215Q18.443089999999998,11.013161,18.46194,11.058658Q18.48078,11.104155,18.490389999999998,11.1524549Q18.5,11.2007543,18.5,11.25Q18.5,11.2992457,18.490389999999998,11.3475451Q18.48078,11.395845,18.46194,11.441342Q18.443089999999998,11.486839,18.41573,11.527785Q18.388370000000002,11.568731,18.35355,11.603553Q18.318730000000002,11.638375,18.27778,11.665735Q18.23684,11.693094,18.19134,11.71194Q18.14584,11.730785000000001,18.09755,11.740393Q18.04925,11.75,18,11.75L12,11.75Q11.9507543,11.75,11.9024549,11.740393Q11.854155,11.730785000000001,11.808658,11.71194Q11.763161,11.693094,11.722215,11.665735Q11.681269,11.638375,11.646447,11.603553Q11.611625,11.568731,11.584265,11.527785Q11.556906,11.486839,11.53806,11.441342Q11.519214999999999,11.395845,11.509607,11.3475451Q11.5,11.2992457,11.5,11.25Q11.5,11.2007543,11.509607,11.1524549Q11.519214999999999,11.104155,11.53806,11.058658Q11.556906,11.013161,11.584265,10.972215Q11.611625,10.931269,11.646447,10.896447Q11.681269,10.861625,11.722215,10.834265Q11.763161,10.806906,11.808658,10.78806Q11.854155,10.769214999999999,11.9024549,10.759607Q11.9507543,10.75,12,10.75Z" fill-rule="evenodd" fill="#2882FF" fill-opacity="1"/></g><g transform="matrix(0,-1,1,0,-1.25,23.25)"><path d="M11.353613,11.896506L12.35356,12.896452Q12.38838,12.931274,12.41574,12.97222Q12.4431,13.013166,12.46194,13.058663Q12.48079,13.10416,12.4904,13.15246Q12.5,13.200759,12.50001,13.25001Q12.5,13.29925,12.4904,13.34755Q12.48079,13.39585,12.46194,13.44135Q12.4431,13.48684,12.41574,13.52779Q12.38838,13.56874,12.35356,13.60356L11.353553,14.60356Q11.283227,14.67389,11.191342,14.71195Q11.0994562,14.75001,11,14.75001Q10.9507543,14.75001,10.9024549,14.740400000000001Q10.854155,14.7308,10.808658,14.71195Q10.763161,14.6931,10.722215,14.66574Q10.681269,14.63839,10.646447,14.60356Q10.611625,14.56874,10.584265,14.5278Q10.556906,14.48685,10.53806,14.44135Q10.519214999999999,14.39585,10.509607,14.34756Q10.5,14.29926,10.5,14.25001Q10.5,14.150549999999999,10.53806,14.05867Q10.57612,13.96678,10.646447,13.89646L11.292898,13.25001L10.646447,12.603553Q10.57612,12.533227,10.53806,12.441342Q10.5,12.3494562,10.5,12.25Q10.5,12.2007543,10.509607,12.1524549Q10.519214999999999,12.104155,10.53806,12.058658Q10.556906,12.013161,10.584265,11.972215Q10.611625,11.931269,10.646447,11.896447Q10.681269,11.861625,10.722215,11.834265Q10.763161,11.806906,10.808658,11.78806Q10.854155,11.769214999999999,10.9024549,11.759607Q10.9507543,11.75,11,11.75Q11.0994562,11.75,11.191342,11.78806Q11.283227,11.82612,11.353553,11.896447L11.353613,11.896506Z" fill-rule="evenodd" fill="#2882FF" fill-opacity="1"/></g></g></svg>