<svg xmlns="http://www.w3.org/2000/svg" xmlns:xlink="http://www.w3.org/1999/xlink" fill="none" version="1.1" width="24" height="24" viewBox="0 0 24 24"><defs><clipPath id="master_svg0_58_01216"><rect x="0" y="0" width="24" height="24" rx="0"/></clipPath></defs><g clip-path="url(#master_svg0_58_01216)"><g><path d="M20.999984741210938,7.5L3.0000000000109375,7.5Q2.9261315412109377,7.5,2.8536827412109376,7.514411Q2.7812337412109374,7.528822,2.7129877412109376,7.55709Q2.6447417412109377,7.585359,2.5833227412109374,7.626398Q2.5219027412109374,7.667437,2.4696707412109378,7.71967Q2.4174377412109376,7.771903,2.3763977412109374,7.833322Q2.3353587412109373,7.894742,2.3070907412109376,7.962987Q2.2788227412109374,8.031233,2.2644117412109375,8.103682Q2.2499997412109374,8.1761314,2.2499997412109374,8.25L2.2499897412109373,17.24998Q2.2499867412109373,18.8033,3.3483367412109377,19.901600000000002Q4.446684741210937,21,5.9999847412109375,21L17.999984741210938,21Q19.553284741210938,21,20.65168474121094,19.901600000000002Q21.749984741210938,18.8033,21.749984741210938,17.24999L21.749984741210938,8.25Q21.749984741210938,8.1761315,21.73558474121094,8.103682Q21.721184741210937,8.031233,21.69288474121094,7.962987Q21.664584741210938,7.894742,21.623584741210937,7.833322Q21.582584741210937,7.771903,21.530284741210938,7.71967Q21.47808474121094,7.667437,21.416684741210936,7.626398Q21.355284741210937,7.585359,21.286984741210937,7.55709Q21.21878474121094,7.528822,21.146284741210938,7.514411Q21.073884741210936,7.5,20.999984741210938,7.5ZM3.7499987412109377,9L3.7499897412109373,17.24998Q3.7499877412109375,18.18197,4.408994741210938,18.841Q5.068004741210938,19.5,5.9999847412109375,19.5L17.999984741210938,19.5Q18.93198474121094,19.5,19.59098474121094,18.841Q20.249984741210938,18.18197,20.249984741210938,17.24999L20.249984741210938,9L3.7499987412109377,9Z" fill-rule="evenodd" fill="#231F2E" fill-opacity="1"/></g><g><path d="M11.99996959991455,15.007113984375L13.210339599914551,15.997413984375001L13.84357959991455,15.223456984375L12.31658959991455,13.974104984375Q12.283339599914552,13.946898984375,12.24592959991455,13.925764984375Q12.20852959991455,13.904629984375,12.168069599914551,13.890185984375Q12.12759959991455,13.875742984375,12.08526959991455,13.868412984375Q12.04293959991455,13.861083984375,11.99996959991455,13.861083984375Q11.957009599914551,13.861083984375,11.914679599914551,13.868412984375Q11.87233959991455,13.875742984375,11.83187959991455,13.890185984375Q11.791419599914551,13.904629984375,11.75400959991455,13.925764984375Q11.71660959991455,13.946898984375,11.68334959991455,13.974104984375L10.156400599914551,15.223430984375L10.78963859991455,15.997383984375L11.99996959991455,15.007113984375Z" fill-rule="evenodd" fill="#2882FF" fill-opacity="1"/></g><g><path d="M11.5,14.3610399609375L11.5,13.0277099609375L12.5,13.0277099609375L12.5,14.3610399609375L11.5,14.3610399609375Z" fill-rule="evenodd" fill="#2882FF" fill-opacity="1"/></g><g><path d="M2.25,6.75Q2.25,5.1967,3.34835,4.09835Q4.4467,3.00000488758,6,3.00000435114L18,3Q19.5534,3,20.6535,4.10792Q21.75,5.21217,21.75,6.76539L21.75,8.25001C21.75,8.66423,21.4142,9.00001,21,9.00001L3,9.00001C2.585786,9.00001,2.25,8.66423,2.25,8.25001L2.25,6.75ZM4.5,6L4.5,6.008C4.5,6.42221,4.835789999999999,6.758,5.25,6.758L5.258,6.758C5.67221,6.758,6.008,6.42221,6.008,6.008L6.008,6C6.008,5.585789999999999,5.67221,5.25,5.258,5.25L5.25,5.25C4.835789999999999,5.25,4.5,5.585789999999999,4.5,6ZM6.75,6L6.75,6.008C6.75,6.42221,7.08579,6.758,7.5,6.758L7.508,6.758C7.92221,6.758,8.258,6.42221,8.258,6.008L8.258,6C8.258,5.585789999999999,7.92221,5.25,7.508,5.25L7.5,5.25C7.08579,5.25,6.75,5.585789999999999,6.75,6ZM10.508,6.008L10.508,6C10.508,5.585789999999999,10.17221,5.25,9.758,5.25L9.75,5.25C9.33579,5.25,9,5.585789999999999,9,6L9,6.008C9,6.42221,9.33579,6.758,9.75,6.758L9.758,6.758C10.17221,6.758,10.508,6.42221,10.508,6.008Z" fill-rule="evenodd" fill="#231F2E" fill-opacity="1"/></g><g><path d="M13.2373179296875,10.2625629Q12.7247479296875,9.75,11.9998779296875,9.75Q11.2750039296875,9.75,10.7624411296875,10.2625629Q10.2498779296875,10.775126,10.2498779296875,11.5Q10.2498779296875,12.22487,10.7624411296875,12.73744Q11.2750049296875,13.25,11.9998779296875,13.25Q12.7247479296875,13.25,13.2373179296875,12.73744Q13.7498779296875,12.22487,13.7498779296875,11.5Q13.7498779296875,10.775126,13.2373179296875,10.2625629ZM11.4695479296875,10.96967Q11.6892179296875,10.75,11.9998779296875,10.75Q12.3105379296875,10.75,12.5302079296875,10.96967Q12.7498779296875,11.18934,12.7498779296875,11.5Q12.7498779296875,11.81066,12.5302079296875,12.03033Q12.3105379296875,12.25,11.9998779296875,12.25Q11.6892179296875,12.25,11.4695479296875,12.03033Q11.2498779296875,11.81066,11.2498779296875,11.5Q11.2498779296875,11.18934,11.4695479296875,10.96967Z" fill-rule="evenodd" fill="#2882FF" fill-opacity="1"/></g><g><path d="M10.76527203125,15.20695987265625Q10.25270203125,14.69439697265625,9.52783203125,14.69439697265625Q8.80295803125,14.69439697265625,8.29039523125,15.20695987265625Q7.77783203125,15.71952297265625,7.77783203125,16.44439697265625Q7.77783203125,17.16926697265625,8.29039523125,17.68183697265625Q8.80295903125,18.19439697265625,9.52783203125,18.19439697265625Q10.25270203125,18.19439697265625,10.76527203125,17.68183697265625Q11.27783203125,17.16926697265625,11.27783203125,16.44439697265625Q11.27783203125,15.71952297265625,10.76527203125,15.20695987265625ZM8.99750203125,15.91406697265625Q9.21717203125,15.69439697265625,9.52783203125,15.69439697265625Q9.83849203125,15.69439697265625,10.05816203125,15.91406697265625Q10.27783203125,16.13373697265625,10.27783203125,16.44439697265625Q10.27783203125,16.75505697265625,10.05816203125,16.97472697265625Q9.83849203125,17.19439697265625,9.52783203125,17.19439697265625Q9.21717203125,17.19439697265625,8.99750203125,16.97472697265625Q8.77783203125,16.75505697265625,8.77783203125,16.44439697265625Q8.77783203125,16.13373697265625,8.99750203125,15.91406697265625Z" fill-rule="evenodd" fill="#2882FF" fill-opacity="1"/></g><g><path d="M15.7097300390625,15.20695987265625Q15.1971600390625,14.69439697265625,14.4722900390625,14.69439697265625Q13.7474160390625,14.69439697265625,13.2348532390625,15.20695987265625Q12.7222900390625,15.71952297265625,12.7222900390625,16.44439697265625Q12.7222900390625,17.16926697265625,13.2348532390625,17.68183697265625Q13.7474170390625,18.19439697265625,14.4722900390625,18.19439697265625Q15.1971600390625,18.19439697265625,15.7097300390625,17.68183697265625Q16.2222900390625,17.16926697265625,16.2222900390625,16.44439697265625Q16.2222900390625,15.71952297265625,15.7097300390625,15.20695987265625ZM13.9419600390625,15.91406697265625Q14.1616300390625,15.69439697265625,14.4722900390625,15.69439697265625Q14.7829500390625,15.69439697265625,15.0026200390625,15.91406697265625Q15.2222900390625,16.13373697265625,15.2222900390625,16.44439697265625Q15.2222900390625,16.75505697265625,15.0026200390625,16.97472697265625Q14.7829500390625,17.19439697265625,14.4722900390625,17.19439697265625Q14.1616300390625,17.19439697265625,13.9419600390625,16.97472697265625Q13.7222900390625,16.75505697265625,13.7222900390625,16.44439697265625Q13.7222900390625,16.13373697265625,13.9419600390625,15.91406697265625Z" fill-rule="evenodd" fill="#2882FF" fill-opacity="1"/></g></g></svg>