<svg xmlns="http://www.w3.org/2000/svg" xmlns:xlink="http://www.w3.org/1999/xlink" fill="none" version="1.1" width="24" height="24" viewBox="0 0 24 24"><defs><clipPath id="master_svg0_53_01836"><rect x="0" y="0" width="24" height="24" rx="0"/></clipPath></defs><g clip-path="url(#master_svg0_53_01836)"><g><path d="M20.999984741210938,7.5L3.0000000000109375,7.5Q2.9261315412109377,7.5,2.8536827412109376,7.514411Q2.7812337412109374,7.528822,2.7129877412109376,7.55709Q2.6447417412109377,7.585359,2.5833227412109374,7.626398Q2.5219027412109374,7.667437,2.4696707412109378,7.71967Q2.4174377412109376,7.771903,2.3763977412109374,7.833322Q2.3353587412109373,7.894742,2.3070907412109376,7.962987Q2.2788227412109374,8.031233,2.2644117412109375,8.103682Q2.2499997412109374,8.1761314,2.2499997412109374,8.25L2.2499897412109373,17.24998Q2.2499867412109373,18.8033,3.3483367412109377,19.901600000000002Q4.446684741210937,21,5.9999847412109375,21L17.999984741210938,21Q19.553284741210938,21,20.65168474121094,19.901600000000002Q21.749984741210938,18.8033,21.749984741210938,17.24999L21.749984741210938,8.25Q21.749984741210938,8.1761315,21.73558474121094,8.103682Q21.721184741210937,8.031233,21.69288474121094,7.962987Q21.664584741210938,7.894742,21.623584741210937,7.833322Q21.582584741210937,7.771903,21.530284741210938,7.71967Q21.47808474121094,7.667437,21.416684741210936,7.626398Q21.355284741210937,7.585359,21.286984741210937,7.55709Q21.21878474121094,7.528822,21.146284741210938,7.514411Q21.073884741210936,7.5,20.999984741210938,7.5ZM3.7499987412109377,9L3.7499897412109373,17.24998Q3.7499877412109375,18.18197,4.408994741210938,18.841Q5.068004741210938,19.5,5.9999847412109375,19.5L17.999984741210938,19.5Q18.93198474121094,19.5,19.59098474121094,18.841Q20.249984741210938,18.18197,20.249984741210938,17.24999L20.249984741210938,9L3.7499987412109377,9Z" fill-rule="evenodd" fill="#231F2E" fill-opacity="1"/></g><g><path d="M2.25,6.75Q2.25,5.1967,3.34835,4.09835Q4.4467,3.00000488758,6,3.00000435114L18,3Q19.5534,3,20.6535,4.10792Q21.75,5.21217,21.75,6.76539L21.75,8.25001C21.75,8.66423,21.4142,9.00001,21,9.00001L3,9.00001C2.585786,9.00001,2.25,8.66423,2.25,8.25001L2.25,6.75ZM4.5,6L4.5,6.008C4.5,6.42221,4.835789999999999,6.758,5.25,6.758L5.258,6.758C5.67221,6.758,6.008,6.42221,6.008,6.008L6.008,6C6.008,5.585789999999999,5.67221,5.25,5.258,5.25L5.25,5.25C4.835789999999999,5.25,4.5,5.585789999999999,4.5,6ZM6.75,6L6.75,6.008C6.75,6.42221,7.08579,6.758,7.5,6.758L7.508,6.758C7.92221,6.758,8.258,6.42221,8.258,6.008L8.258,6C8.258,5.585789999999999,7.92221,5.25,7.508,5.25L7.5,5.25C7.08579,5.25,6.75,5.585789999999999,6.75,6ZM10.508,6.008L10.508,6C10.508,5.585789999999999,10.17221,5.25,9.758,5.25L9.75,5.25C9.33579,5.25,9,5.585789999999999,9,6L9,6.008C9,6.42221,9.33579,6.758,9.75,6.758L9.758,6.758C10.17221,6.758,10.508,6.42221,10.508,6.008Z" fill-rule="evenodd" fill="#231F2E" fill-opacity="1"/></g><g><path d="M11.64888,10.71126084375L8,12.07958984375L11.64888,13.44791984375C11.87526,13.53280984375,12.12474,13.53280984375,12.35112,13.44791984375L16,12.07958984375L12.35112,10.71126084375C12.12474,10.62636674375,11.87526,10.62636674375,11.64888,10.71126084375" fill="#2882FF" fill-opacity="1"/><path d="M16.468159999999997,11.90402984375Q16.43013,11.80261984375,16.35355,11.72603984375Q16.27697,11.64944984375,16.17556,11.61142984375L12.52669,10.24309684375Q12,10.04558984375,11.473320000000001,10.24309684375L7.824438,11.61142984375Q7.778328,11.62871984375,7.736477,11.65466984375Q7.694626,11.68062984375,7.658643,11.71424984375Q7.62266,11.74786984375,7.593927,11.78785984375Q7.565195,11.82785984375,7.544817,11.872689843749999Q7.524439,11.91751984375,7.513199,11.96546984375Q7.501958,12.01340984375,7.500288,12.062629843749999Q7.498617,12.11184984375,7.506581,12.16043984375Q7.514544,12.20903984375,7.531835,12.25514984375Q7.569864,12.35655984375,7.646447,12.43313984375Q7.72303,12.50972984375,7.824438,12.54774984375L11.47331,13.91607984375Q12,14.113589843749999,12.52669,13.91607984375L16.17556,12.54774984375Q16.26869,12.51282984375,16.34136,12.44492984375Q16.41403,12.37702984375,16.45518,12.286489843750001Q16.49634,12.19594984375,16.49971,12.096549843750001Q16.50309,11.99714984375,16.468159999999997,11.90402984375ZM14.576,12.07958984375L12.17556,11.17942584375Q12,11.11358984375,11.82444,11.17942584375L9.424,12.07958984375L11.82444,12.97974984375Q12,13.045589843750001,12.17556,12.97974984375L14.576,12.07958984375Z" fill-rule="evenodd" fill="#2882FF" fill-opacity="1"/></g><g><path d="M8.175562,13.76810208984375L11.82444,15.13643108984375Q12,15.20226708984375,12.17556,15.13643108984375L15.82414,13.76821208984375L15.82444,13.76810208984375Q15.90933,13.73626708984375,16,13.73626708984375Q16.049239999999998,13.73626708984375,16.097540000000002,13.74587408984375Q16.14584,13.755482089843749,16.19134,13.77432708984375Q16.23684,13.79317308984375,16.27778,13.82053208984375Q16.318730000000002,13.84789208984375,16.35355,13.88271408984375Q16.388370000000002,13.91753608984375,16.41573,13.95848208984375Q16.443089999999998,13.99942808984375,16.46194,14.04492508984375Q16.48078,14.09042208984375,16.490389999999998,14.13872198984375Q16.5,14.18702138984375,16.5,14.23626708984375Q16.5,14.31260358984375,16.477220000000003,14.38546208984375Q16.454439999999998,14.45832108984375,16.41096,14.52106408984375Q16.36748,14.58380708984375,16.30726,14.63071808984375Q16.24704,14.67762808984375,16.17556,14.70443208984375L12.52669,16.07275708984375Q12,16.27026708984375,11.473320000000001,16.07275708984375L7.824438,14.70443208984375Q7.752962,14.67762808984375,7.69274,14.63071808984375Q7.632518,14.58380708984375,7.589037,14.52106408984375Q7.545556,14.45832108984375,7.522778,14.38546308984375Q7.5,14.31260368984375,7.5,14.23626708984375Q7.5,14.18702138984375,7.509607,14.13872198984375Q7.519215,14.09042208984375,7.53806,14.04492508984375Q7.556906,13.99942808984375,7.584265,13.95848208984375Q7.611625,13.91753608984375,7.646447,13.88271408984375Q7.681269,13.84789208984375,7.722215,13.82053208984375Q7.763161,13.79317308984375,7.808658,13.77432708984375Q7.854155,13.755482089843749,7.9024549,13.74587408984375Q7.9507543,13.73626708984375,8,13.73626708984375Q8.0906673,13.73626708984375,8.175562,13.76810208984375Z" fill-rule="evenodd" fill="#2882FF" fill-opacity="1"/></g><g><path d="M8.175562,15.9247793359375L11.82444,17.2931083359375Q12,17.3589443359375,12.17556,17.2931083359375L15.82414,15.9248893359375L15.82444,15.9247793359375Q15.90933,15.8929443359375,16,15.8929443359375Q16.049239999999998,15.8929443359375,16.097540000000002,15.9025513359375Q16.14584,15.912159335937499,16.19134,15.9310043359375Q16.23684,15.9498503359375,16.27778,15.9772093359375Q16.318730000000002,16.0045693359375,16.35355,16.0393913359375Q16.388370000000002,16.0742133359375,16.41573,16.1151593359375Q16.443089999999998,16.1561053359375,16.46194,16.2016023359375Q16.48078,16.2470993359375,16.490389999999998,16.2953992359375Q16.5,16.3436986359375,16.5,16.3929443359375Q16.5,16.4692808359375,16.477220000000003,16.5421393359375Q16.454439999999998,16.6149983359375,16.41096,16.6777413359375Q16.36748,16.7404843359375,16.30726,16.7873953359375Q16.24704,16.8343053359375,16.17556,16.8611093359375L12.52669,18.2294343359375Q12,18.4269443359375,11.473320000000001,18.2294343359375L7.824438,16.8611093359375Q7.752962,16.8343053359375,7.69274,16.7873953359375Q7.632518,16.7404843359375,7.589037,16.6777413359375Q7.545556,16.6149983359375,7.522778,16.5421403359375Q7.5,16.4692809359375,7.5,16.3929443359375Q7.5,16.3436986359375,7.509607,16.2953992359375Q7.519215,16.2470993359375,7.53806,16.2016023359375Q7.556906,16.1561053359375,7.584265,16.1151593359375Q7.611625,16.0742133359375,7.646447,16.0393913359375Q7.681269,16.0045693359375,7.722215,15.9772093359375Q7.763161,15.9498503359375,7.808658,15.9310043359375Q7.854155,15.912159335937499,7.9024549,15.9025513359375Q7.9507543,15.8929443359375,8,15.8929443359375Q8.0906673,15.8929443359375,8.175562,15.9247793359375Z" fill-rule="evenodd" fill="#2882FF" fill-opacity="1"/></g></g></svg>