<svg xmlns="http://www.w3.org/2000/svg" xmlns:xlink="http://www.w3.org/1999/xlink" fill="none" version="1.1" width="24" height="24" viewBox="0 0 24 24"><defs><clipPath id="master_svg0_58_01234"><rect x="0" y="0" width="24" height="24" rx="0"/></clipPath></defs><g clip-path="url(#master_svg0_58_01234)"><g><path d="M20.999984741210938,7.5L3.0000000000109375,7.5Q2.9261315412109377,7.5,2.8536827412109376,7.514411Q2.7812337412109374,7.528822,2.7129877412109376,7.55709Q2.6447417412109377,7.585359,2.5833227412109374,7.626398Q2.5219027412109374,7.667437,2.4696707412109378,7.71967Q2.4174377412109376,7.771903,2.3763977412109374,7.833322Q2.3353587412109373,7.894742,2.3070907412109376,7.962987Q2.2788227412109374,8.031233,2.2644117412109375,8.103682Q2.2499997412109374,8.1761314,2.2499997412109374,8.25L2.2499897412109373,17.24998Q2.2499867412109373,18.8033,3.3483367412109377,19.901600000000002Q4.446684741210937,21,5.9999847412109375,21L17.999984741210938,21Q19.553284741210938,21,20.65168474121094,19.901600000000002Q21.749984741210938,18.8033,21.749984741210938,17.24999L21.749984741210938,8.25Q21.749984741210938,8.1761315,21.73558474121094,8.103682Q21.721184741210937,8.031233,21.69288474121094,7.962987Q21.664584741210938,7.894742,21.623584741210937,7.833322Q21.582584741210937,7.771903,21.530284741210938,7.71967Q21.47808474121094,7.667437,21.416684741210936,7.626398Q21.355284741210937,7.585359,21.286984741210937,7.55709Q21.21878474121094,7.528822,21.146284741210938,7.514411Q21.073884741210936,7.5,20.999984741210938,7.5ZM3.7499987412109377,9L3.7499897412109373,17.24998Q3.7499877412109375,18.18197,4.408994741210938,18.841Q5.068004741210938,19.5,5.9999847412109375,19.5L17.999984741210938,19.5Q18.93198474121094,19.5,19.59098474121094,18.841Q20.249984741210938,18.18197,20.249984741210938,17.24999L20.249984741210938,9L3.7499987412109377,9Z" fill-rule="evenodd" fill="#231F2E" fill-opacity="1"/></g><g><path d="M2.25,6.75Q2.25,5.1967,3.34835,4.09835Q4.4467,3.00000488758,6,3.00000435114L18,3Q19.5534,3,20.6535,4.10792Q21.75,5.21217,21.75,6.76539L21.75,8.25001C21.75,8.66423,21.4142,9.00001,21,9.00001L3,9.00001C2.585786,9.00001,2.25,8.66423,2.25,8.25001L2.25,6.75ZM4.5,6L4.5,6.008C4.5,6.42221,4.835789999999999,6.758,5.25,6.758L5.258,6.758C5.67221,6.758,6.008,6.42221,6.008,6.008L6.008,6C6.008,5.585789999999999,5.67221,5.25,5.258,5.25L5.25,5.25C4.835789999999999,5.25,4.5,5.585789999999999,4.5,6ZM6.75,6L6.75,6.008C6.75,6.42221,7.08579,6.758,7.5,6.758L7.508,6.758C7.92221,6.758,8.258,6.42221,8.258,6.008L8.258,6C8.258,5.585789999999999,7.92221,5.25,7.508,5.25L7.5,5.25C7.08579,5.25,6.75,5.585789999999999,6.75,6ZM10.508,6.008L10.508,6C10.508,5.585789999999999,10.17221,5.25,9.758,5.25L9.75,5.25C9.33579,5.25,9,5.585789999999999,9,6L9,6.008C9,6.42221,9.33579,6.758,9.75,6.758L9.758,6.758C10.17221,6.758,10.508,6.42221,10.508,6.008Z" fill-rule="evenodd" fill="#231F2E" fill-opacity="1"/></g><g><path d="M10,11.333333L10,14.66667Q10,15.21895,10.390525,15.60948Q10.781049,16,11.333333,16L14.66667,16Q15.21895,16,15.60948,15.60948Q16,15.21895,16,14.66667L16,11.333333Q16,10.781049,15.60948,10.390524Q15.21895,10,14.66667,10L11.333333,10Q10.781049,10,10.390524,10.390524Q10,10.781049,10,11.333333ZM11.097631,14.902370000000001Q11,14.804739999999999,11,14.66667L11,11.333333Q11,11.195262,11.097631,11.097631Q11.195262,11,11.333333,11L14.66667,11Q14.804739999999999,11,14.902370000000001,11.097631Q15,11.195262,15,11.333333L15,14.66667Q15,14.804739999999999,14.902370000000001,14.902370000000001Q14.804739999999999,15,14.66667,15L11.333333,15Q11.195262,15,11.097631,14.902370000000001Z" fill-rule="evenodd" fill="#2882FF" fill-opacity="1"/></g><g><path d="M8,13.333333L8,16.66667Q8,17.21895,8.390525,17.609479999999998Q8.781049,18,9.333333,18L12.66667,18Q13.21895,18,13.60948,17.609479999999998Q14,17.21895,14,16.66667L14,13.333333Q14,12.781049,13.60948,12.390524Q13.21895,12,12.66667,12L9.333333,12Q8.781049,12,8.390524,12.390524Q8,12.781049,8,13.333333ZM9.097631,16.90237Q9,16.80474,9,16.66667L9,13.333333Q9,13.195262,9.097631,13.097631Q9.195262,13,9.333333,13L12.66667,13Q12.804739999999999,13,12.902370000000001,13.097631Q13,13.195262,13,13.333333L13,16.66667Q13,16.80474,12.902370000000001,16.90237Q12.804739999999999,17,12.66667,17L9.333333,17Q9.195262,17,9.097631,16.90237Z" fill-rule="evenodd" fill="#2882FF" fill-opacity="1"/></g></g></svg>