<svg xmlns="http://www.w3.org/2000/svg" xmlns:xlink="http://www.w3.org/1999/xlink" fill="none" version="1.1" width="24" height="24" viewBox="0 0 24 24"><defs><clipPath id="master_svg0_53_01732"><rect x="0" y="0" width="24" height="24" rx="0"/></clipPath></defs><g clip-path="url(#master_svg0_53_01732)"><g><path d="M20.999984741210938,7.5L3.0000000000109375,7.5Q2.9261315412109377,7.5,2.8536827412109376,7.514411Q2.7812337412109374,7.528822,2.7129877412109376,7.55709Q2.6447417412109377,7.585359,2.5833227412109374,7.626398Q2.5219027412109374,7.667437,2.4696707412109378,7.71967Q2.4174377412109376,7.771903,2.3763977412109374,7.833322Q2.3353587412109373,7.894742,2.3070907412109376,7.962987Q2.2788227412109374,8.031233,2.2644117412109375,8.103682Q2.2499997412109374,8.1761314,2.2499997412109374,8.25L2.2499897412109373,17.24998Q2.2499867412109373,18.8033,3.3483367412109377,19.901600000000002Q4.446684741210937,21,5.9999847412109375,21L17.999984741210938,21Q19.553284741210938,21,20.65168474121094,19.901600000000002Q21.749984741210938,18.8033,21.749984741210938,17.24999L21.749984741210938,8.25Q21.749984741210938,8.1761315,21.73558474121094,8.103682Q21.721184741210937,8.031233,21.69288474121094,7.962987Q21.664584741210938,7.894742,21.623584741210937,7.833322Q21.582584741210937,7.771903,21.530284741210938,7.71967Q21.47808474121094,7.667437,21.416684741210936,7.626398Q21.355284741210937,7.585359,21.286984741210937,7.55709Q21.21878474121094,7.528822,21.146284741210938,7.514411Q21.073884741210936,7.5,20.999984741210938,7.5ZM3.7499987412109377,9L3.7499897412109373,17.24998Q3.7499877412109375,18.18197,4.408994741210938,18.841Q5.068004741210938,19.5,5.9999847412109375,19.5L17.999984741210938,19.5Q18.93198474121094,19.5,19.59098474121094,18.841Q20.249984741210938,18.18197,20.249984741210938,17.24999L20.249984741210938,9L3.7499987412109377,9Z" fill-rule="evenodd" fill="#231F2E" fill-opacity="1"/></g><g><path d="M2.25,6.75Q2.25,5.1967,3.34835,4.09835Q4.4467,3.00000488758,6,3.00000435114L18,3Q19.5534,3,20.6535,4.10792Q21.75,5.21217,21.75,6.76539L21.75,8.25001C21.75,8.66423,21.4142,9.00001,21,9.00001L3,9.00001C2.585786,9.00001,2.25,8.66423,2.25,8.25001L2.25,6.75ZM4.5,6L4.5,6.008C4.5,6.42221,4.835789999999999,6.758,5.25,6.758L5.258,6.758C5.67221,6.758,6.008,6.42221,6.008,6.008L6.008,6C6.008,5.585789999999999,5.67221,5.25,5.258,5.25L5.25,5.25C4.835789999999999,5.25,4.5,5.585789999999999,4.5,6ZM6.75,6L6.75,6.008C6.75,6.42221,7.08579,6.758,7.5,6.758L7.508,6.758C7.92221,6.758,8.258,6.42221,8.258,6.008L8.258,6C8.258,5.585789999999999,7.92221,5.25,7.508,5.25L7.5,5.25C7.08579,5.25,6.75,5.585789999999999,6.75,6ZM10.508,6.008L10.508,6C10.508,5.585789999999999,10.17221,5.25,9.758,5.25L9.75,5.25C9.33579,5.25,9,5.585789999999999,9,6L9,6.008C9,6.42221,9.33579,6.758,9.75,6.758L9.758,6.758C10.17221,6.758,10.508,6.42221,10.508,6.008Z" fill-rule="evenodd" fill="#231F2E" fill-opacity="1"/></g><g><path d="M11.652753984375,11Q11.701993984375001,11,11.750293984375,10.990393Q11.798593984375,10.980785000000001,11.844093984375,10.96194Q11.889593984375,10.943094,11.930533984375,10.915735Q11.971483984375,10.888375,12.006303984375,10.853553Q12.041123984375,10.818731,12.068483984375,10.777785Q12.095843984375,10.736839,12.114693984375,10.691342Q12.133533984375,10.645845,12.143143984375,10.5975451Q12.152753984375,10.5492457,12.152753984375,10.5Q12.152753984375,10.4507543,12.143143984375,10.4024549Q12.133533984375,10.354155,12.114693984375,10.308658Q12.095843984375,10.263161,12.068483984375,10.222215Q12.041123984375,10.181269,12.006303984375,10.146447Q11.971483984375,10.111625,11.930533984375,10.084265Q11.889593984375,10.056906,11.844093984375,10.03806Q11.798593984375,10.019214999999999,11.750293984375,10.009607Q11.701993984375001,10,11.652753984375,10L11.652063984375,10Q11.313683984375,10.000134,11.003854984375,10.13118Q10.704669984375,10.257725,10.474239384375,10.4881554Q10.243808984375,10.718586,10.117263984375,11.017771Q9.986083984375,11.327916,9.986083984375,11.66667L9.986083984375,16.33333Q9.986083984375,16.67208,10.117263984375,16.98223Q10.243808984375,17.28141,10.474239484375,17.51185Q10.704669984375,17.74228,11.003855984375,17.86882Q11.313366984375,17.99973,11.651363984375,18L11.652753984375,18Q11.701993984375001,18,11.750293984375,17.990389999999998Q11.798593984375,17.98078,11.844093984375,17.96194Q11.889593984375,17.943089999999998,11.930533984375,17.91573Q11.971483984375,17.888370000000002,12.006303984375,17.85355Q12.041123984375,17.818730000000002,12.068483984375,17.77778Q12.095843984375,17.73684,12.114693984375,17.69134Q12.133533984375,17.64584,12.143143984375,17.597540000000002Q12.152753984375,17.54925,12.152753984375,17.5Q12.152753984375,17.45075,12.143143984375,17.40245Q12.133533984375,17.35415,12.114693984375,17.30866Q12.095843984375,17.26316,12.068483984375,17.22221Q12.041123984375,17.181269999999998,12.006303984375,17.14645Q11.971483984375,17.111620000000002,11.930533984375,17.08426Q11.889593984375,17.0569,11.844093984375,17.03806Q11.798593984375,17.01921,11.750293984375,17.009610000000002Q11.701993984375001,17,11.652753984375,17Q11.376607984375,17,11.181345984375,16.80474Q10.986083984375,16.609479999999998,10.986083984375,16.33333L10.986083984375,11.66667Q10.986083984375,11.390524,11.181345984375,11.195262Q11.376607984375,11,11.652753984375,11Z" fill-rule="evenodd" fill="#2882FF" fill-opacity="1"/></g><g><path d="M9.319925394125,10Q9.658489078125,10.000067,9.968476078125,10.13118Q10.267661078125,10.257725,10.498090078125,10.4881554Q10.728520078125,10.718586,10.855070078125,11.017771Q10.986250078125,11.327916,10.986250078125,11.66667L10.986250078125,16.33333Q10.986250078125,16.67208,10.855070078125,16.98223Q10.728520078125,17.28141,10.498090078125,17.51185Q10.267660078125001,17.74228,9.968475078125,17.86882Q9.658705078125,17.99984,9.320397243125,18L9.319580078125,18Q9.270334378125,18,9.222034978125,17.990389999999998Q9.173735078125,17.98078,9.128238078125,17.96194Q9.082741078125,17.943089999999998,9.041795078125,17.91573Q9.000849078125,17.888370000000002,8.966027078125,17.85355Q8.931205078125,17.818730000000002,8.903845078125,17.77778Q8.876486078125,17.73684,8.857640078125,17.69134Q8.838795078124999,17.64584,8.829187078125,17.597540000000002Q8.819580078125,17.54925,8.819580078125,17.5Q8.819580078125,17.45075,8.829187078125,17.40245Q8.838795078124999,17.35415,8.857640078125,17.30866Q8.876486078125,17.26316,8.903845078125,17.22221Q8.931205078125,17.181269999999998,8.966027078125,17.14645Q9.000849078125,17.111620000000002,9.041795078125,17.08426Q9.082741078125,17.0569,9.128238078125,17.03806Q9.173735078125,17.01921,9.222034978125,17.009610000000002Q9.270334378125,17,9.319580078125,17Q9.595723078125,17,9.790985078125,16.80474Q9.986247078125,16.609479999999998,9.986247078125,16.33333L9.986247078125,11.66667Q9.986247078125,11.390524,9.790985078125,11.195262Q9.595723078125,11,9.319580078125,11Q9.270334378125,11,9.222034978125,10.990393Q9.173735078125,10.980785000000001,9.128238078125,10.96194Q9.082741078125,10.943094,9.041795078125,10.915735Q9.000849078125,10.888375,8.966027078125,10.853553Q8.931205078125,10.818731,8.903845078125,10.777785Q8.876486078125,10.736839,8.857640078125,10.691342Q8.838795078124999,10.645845,8.829187078125,10.5975451Q8.819580078125,10.5492457,8.819580078125,10.5Q8.819580078125,10.4507543,8.829187078125,10.4024549Q8.838795078124999,10.354155,8.857640078125,10.308658Q8.876486078125,10.263161,8.903845078125,10.222215Q8.931205078125,10.181269,8.966027078125,10.146447Q9.000849078125,10.111625,9.041795078125,10.084265Q9.082741078125,10.056906,9.128238078125,10.03806Q9.173735078125,10.019214999999999,9.222034978125,10.009607Q9.270334378125,10,9.319580078125,10L9.319925394125,10Z" fill-rule="evenodd" fill="#2882FF" fill-opacity="1"/></g><g><path d="M16.5,15L12.5,15Q12.4507543,15,12.4024549,15.00961Q12.354155,15.019210000000001,12.308658,15.03806Q12.263161,15.05691,12.222215,15.08426Q12.181269,15.11162,12.146447,15.14645Q12.111625,15.18127,12.084265,15.22221Q12.056906,15.26316,12.03806,15.30866Q12.019214999999999,15.35415,12.009607,15.40245Q12,15.45075,12,15.5Q12,15.54925,12.009607,15.59754Q12.019214999999999,15.64584,12.03806,15.69134Q12.056906,15.73684,12.084265,15.77778Q12.111625,15.81873,12.146447,15.85355Q12.181269,15.88837,12.222215,15.91573Q12.263161,15.94309,12.308658,15.96194Q12.354155,15.98078,12.4024549,15.99039Q12.4507543,16,12.5,16L16.5,16Q17.12132,16,17.56066,15.56066Q18,15.12132,18,14.5L18,13.5Q18,12.87868,17.56066,12.4393398Q17.12132,12,16.5,12L12.5,12Q12.4507543,12,12.4024549,12.009607Q12.354155,12.019214999999999,12.308658,12.03806Q12.263161,12.056906,12.222215,12.084265Q12.181269,12.111625,12.146447,12.146447Q12.111625,12.181269,12.084265,12.222215Q12.056906,12.263161,12.03806,12.308658Q12.019214999999999,12.354155,12.009607,12.4024549Q12,12.4507543,12,12.5Q12,12.5492457,12.009607,12.5975451Q12.019214999999999,12.645845,12.03806,12.691342Q12.056906,12.736839,12.084265,12.777785Q12.111625,12.818731,12.146447,12.853553Q12.181269,12.888375,12.222215,12.915735Q12.263161,12.943094,12.308658,12.96194Q12.354155,12.980785000000001,12.4024549,12.990393Q12.4507543,13,12.5,13L16.5,13Q16.70711,13,16.85355,13.146447Q17,13.292893,17,13.5L17,14.5Q17,14.70711,16.85355,14.85355Q16.70711,15,16.5,15Z" fill-rule="evenodd" fill="#231F2E" fill-opacity="1"/></g><g><path d="M6.4393398,15.56066Q6.87868,16,7.5,16L8.5,16Q8.54925,16,8.59754,15.99039Q8.64584,15.98078,8.69134,15.96194Q8.73684,15.94309,8.77778,15.91573Q8.81873,15.88837,8.85355,15.85355Q8.88838,15.81873,8.91573,15.77778Q8.94309,15.73684,8.96194,15.69134Q8.98078,15.64584,8.99039,15.59754Q9,15.54925,9,15.5Q9,15.45075,8.99039,15.40245Q8.98078,15.35415,8.96194,15.30866Q8.94309,15.26316,8.91573,15.22221Q8.88838,15.18127,8.85355,15.14645Q8.81873,15.11162,8.77779,15.08426Q8.73684,15.05691,8.69134,15.03806Q8.64584,15.019210000000001,8.59754,15.00961Q8.54925,15,8.5,15L7.5,15Q7.292893,15,7.146447,14.85355Q7,14.70711,7,14.5L7,13.5Q7,13.292893,7.146447,13.146447Q7.292893,13,7.5,13L8.5,13Q8.54925,13,8.59754,12.990393Q8.64584,12.980785000000001,8.69134,12.96194Q8.73684,12.943094,8.77778,12.915735Q8.81873,12.888375,8.85355,12.853553Q8.88838,12.818731,8.91573,12.777785Q8.94309,12.736839,8.96194,12.691342Q8.98078,12.645845,8.99039,12.5975451Q9,12.5492457,9,12.5Q9,12.4507543,8.99039,12.4024549Q8.98078,12.354155,8.96194,12.308658Q8.94309,12.263161,8.91573,12.222215Q8.88838,12.181269,8.85355,12.146447Q8.81873,12.111625,8.77779,12.084265Q8.73684,12.056906,8.69134,12.03806Q8.64584,12.019214999999999,8.59754,12.009607Q8.54925,12,8.5,12L7.5,12Q6.87868,12,6.4393398,12.4393398Q6,12.87868,6,13.5L6,14.5Q6,15.12132,6.4393398,15.56066Z" fill-rule="evenodd" fill="#231F2E" fill-opacity="1"/></g><g><path d="M15.5,13.5Q15.4507543,13.5,15.4024549,13.509607Q15.354155,13.519214999999999,15.308658,13.53806Q15.263161,13.556906,15.222215,13.584265Q15.181269,13.611625,15.146447,13.646447Q15.111625,13.681269,15.084265,13.722215Q15.056906,13.763161,15.03806,13.808658Q15.019214999999999,13.854155,15.009607,13.9024549Q15,13.9507543,15,14Q15,14.0492457,15.009607,14.0975451Q15.019214999999999,14.145845,15.03806,14.191342Q15.056906,14.236839,15.084265,14.277785Q15.111625,14.318731,15.146447,14.353553Q15.181269,14.388375,15.222215,14.415735Q15.263161,14.443094,15.308658,14.46194Q15.354155,14.480785000000001,15.4024549,14.490393Q15.4507543,14.5,15.5,14.5L15.50388898,14.5Q15.5531347,14.5,15.601434,14.490393Q15.649734,14.480785000000001,15.695231,14.46194Q15.740728,14.443094,15.781674,14.415735Q15.82262,14.388375,15.857442,14.353553Q15.892264,14.318731,15.919624,14.277785Q15.946983,14.236839,15.965829,14.191342Q15.984674,14.145845,15.994282,14.0975451Q16.003889,14.0492457,16.003889,14Q16.003889,13.9507543,15.994282,13.9024549Q15.984674,13.854155,15.965829,13.808658Q15.946983,13.763161,15.919624,13.722215Q15.892264,13.681269,15.857442,13.646447Q15.82262,13.611625,15.781674,13.584265Q15.740728,13.556906,15.695231,13.53806Q15.649734,13.519214999999999,15.601434,13.509607Q15.5531347,13.5,15.50388896,13.5L15.5,13.5Z" fill-rule="evenodd" fill="#2882FF" fill-opacity="1"/></g><g><path d="M13.5,13.5Q13.4507543,13.5,13.4024549,13.509607Q13.354155,13.519214999999999,13.308658,13.53806Q13.263161,13.556906,13.222215,13.584265Q13.181269,13.611625,13.146447,13.646447Q13.111625,13.681269,13.084265,13.722215Q13.056906,13.763161,13.03806,13.808658Q13.019214999999999,13.854155,13.009607,13.9024549Q13,13.9507543,13,14Q13,14.0492457,13.009607,14.0975451Q13.019214999999999,14.145845,13.03806,14.191342Q13.056906,14.236839,13.084265,14.277785Q13.111625,14.318731,13.146447,14.353553Q13.181269,14.388375,13.222215,14.415735Q13.263161,14.443094,13.308658,14.46194Q13.354155,14.480785000000001,13.4024549,14.490393Q13.4507543,14.5,13.5,14.5L13.50388898,14.5Q13.5531347,14.5,13.601434,14.490393Q13.649734,14.480785000000001,13.695231,14.46194Q13.740728,14.443094,13.781674,14.415735Q13.82262,14.388375,13.857442,14.353553Q13.892264,14.318731,13.919624,14.277785Q13.946983,14.236839,13.965829,14.191342Q13.984674,14.145845,13.994282,14.0975451Q14.003889000000001,14.0492457,14.003889000000001,14Q14.003889000000001,13.9507543,13.994282,13.9024549Q13.984674,13.854155,13.965829,13.808658Q13.946983,13.763161,13.919624,13.722215Q13.892264,13.681269,13.857442,13.646447Q13.82262,13.611625,13.781674,13.584265Q13.740728,13.556906,13.695231,13.53806Q13.649734,13.519214999999999,13.601434,13.509607Q13.5531347,13.5,13.50388896,13.5L13.5,13.5Z" fill-rule="evenodd" fill="#2882FF" fill-opacity="1"/></g></g></svg>