<svg xmlns="http://www.w3.org/2000/svg" xmlns:xlink="http://www.w3.org/1999/xlink" fill="none" version="1.1" width="24" height="24" viewBox="0 0 24 24"><defs><clipPath id="master_svg0_61_01052"><rect x="0" y="0" width="24" height="24" rx="0"/></clipPath></defs><g clip-path="url(#master_svg0_61_01052)"><g><path d="M20.25,9L20.25,14.24999Q20.25,14.32386,20.2644,14.39631Q20.2788,14.46876,20.3071,14.53701Q20.3354,14.60525,20.3764,14.66667Q20.4174,14.72809,20.4697,14.78032Q20.5219,14.83256,20.5833,14.8736Q20.6448,14.914629999999999,20.713,14.9429Q20.7812,14.97117,20.8537,14.985579999999999Q20.9261,14.99999,21,14.99999Q21.0739,14.99999,21.1463,14.985579999999999Q21.2188,14.97117,21.287,14.9429Q21.3553,14.914629999999999,21.4167,14.8736Q21.4781,14.83256,21.5303,14.78032Q21.5826,14.72809,21.6236,14.66667Q21.6646,14.60525,21.6929,14.53701Q21.7212,14.46876,21.7356,14.39631Q21.75,14.32386,21.75,14.24999L21.75,8.25Q21.75,8.1761315,21.7356,8.103682Q21.7212,8.031233,21.6929,7.962987Q21.6646,7.894742,21.6236,7.833322Q21.5826,7.771903,21.5303,7.71967Q21.4781,7.667437,21.4167,7.626398Q21.3553,7.585359,21.287,7.55709Q21.2188,7.528822,21.1463,7.514411Q21.0739,7.5,21,7.5L3.0000152588,7.5Q2.9261468,7.5,2.853698,7.514411Q2.781249,7.528822,2.713003,7.55709Q2.6447570000000002,7.585359,2.583338,7.626398Q2.521918,7.667437,2.4696860000000003,7.71967Q2.417453,7.771903,2.376413,7.833322Q2.335374,7.894742,2.307106,7.962987Q2.278838,8.031233,2.2644260000000003,8.103682Q2.250015,8.1761314,2.250015,8.25L2.250004,17.24999Q2.250002,18.8033,3.34835,19.901600000000002Q4.4467,21,6,21L12,21Q12.07387,21,12.14631,20.985599999999998Q12.21876,20.9712,12.28701,20.9429Q12.35526,20.9146,12.41668,20.8736Q12.4781,20.8326,12.53033,20.7803Q12.58256,20.728099999999998,12.6236,20.6667Q12.66464,20.6053,12.69291,20.537Q12.72118,20.4688,12.73559,20.3963Q12.75,20.323900000000002,12.75,20.25Q12.75,20.176099999999998,12.73559,20.1037Q12.72118,20.0312,12.69291,19.963Q12.66464,19.8947,12.6236,19.8333Q12.58256,19.771900000000002,12.53033,19.7197Q12.4781,19.6674,12.41668,19.6264Q12.35526,19.5854,12.28701,19.5571Q12.21877,19.5288,12.14632,19.514400000000002Q12.07387,19.5,12,19.5L6,19.5Q5.068020000000001,19.5,4.40901,18.841Q3.750003,18.18197,3.750004,17.24999L3.750014,9L20.25,9Z" fill-rule="evenodd" fill="#231F2E" fill-opacity="1"/></g><g><path d="M2.25,6.75Q2.25,5.1967,3.34835,4.09835Q4.4467,3.00000488758,6,3.00000435114L18,3Q19.5534,3,20.6535,4.10792Q21.75,5.21217,21.75,6.76539L21.75,8.25001C21.75,8.66423,21.4142,9.00001,21,9.00001L3,9.00001C2.585786,9.00001,2.25,8.66423,2.25,8.25001L2.25,6.75ZM4.5,6L4.5,6.008C4.5,6.42221,4.835789999999999,6.758,5.25,6.758L5.258,6.758C5.67221,6.758,6.008,6.42221,6.008,6.008L6.008,6C6.008,5.585789999999999,5.67221,5.25,5.258,5.25L5.25,5.25C4.835789999999999,5.25,4.5,5.585789999999999,4.5,6ZM6.75,6L6.75,6.008C6.75,6.42221,7.08579,6.758,7.5,6.758L7.508,6.758C7.92221,6.758,8.258,6.42221,8.258,6.008L8.258,6C8.258,5.585789999999999,7.92221,5.25,7.508,5.25L7.5,5.25C7.08579,5.25,6.75,5.585789999999999,6.75,6ZM10.508,6.008L10.508,6C10.508,5.585789999999999,10.17221,5.25,9.758,5.25L9.75,5.25C9.33579,5.25,9,5.585789999999999,9,6L9,6.008C9,6.42221,9.33579,6.758,9.75,6.758L9.758,6.758C10.17221,6.758,10.508,6.42221,10.508,6.008Z" fill-rule="evenodd" fill="#231F2E" fill-opacity="1"/></g><g><g><path d="M20.25,18Q20.25,17.9261315,20.264409999999998,17.853682Q20.27882,17.781233,20.30709,17.712987Q20.33536,17.644742,20.3764,17.583322Q20.41744,17.521903000000002,20.46967,17.46967Q20.5219,17.417437,20.58332,17.376398000000002Q20.64474,17.335359,20.71299,17.30709Q20.78123,17.278822,20.85368,17.264411Q20.92613,17.25,21,17.25Q21.07387,17.25,21.14632,17.264411Q21.21877,17.278822,21.287010000000002,17.30709Q21.35526,17.335359,21.41668,17.376398000000002Q21.4781,17.417437,21.53033,17.46967Q21.58256,17.521903000000002,21.6236,17.583322Q21.66464,17.644742,21.69291,17.712987Q21.72118,17.781233,21.735590000000002,17.853682Q21.75,17.9261315,21.75,18L21.75,22Q21.75,22.07387,21.735590000000002,22.14632Q21.72118,22.21877,21.69291,22.287010000000002Q21.66464,22.35526,21.6236,22.41668Q21.58256,22.4781,21.53033,22.53033Q21.4781,22.58256,21.41668,22.6236Q21.35526,22.66464,21.287010000000002,22.69291Q21.21877,22.72118,21.14632,22.735590000000002Q21.07387,22.75,21,22.75L17,22.75Q16.9261315,22.75,16.853682,22.735590000000002Q16.781233,22.72118,16.712987,22.69291Q16.644742,22.66464,16.583322,22.6236Q16.521903000000002,22.58256,16.46967,22.53033Q16.417437,22.4781,16.376398000000002,22.41668Q16.335359,22.35526,16.30709,22.287010000000002Q16.278822,22.21877,16.264411,22.14632Q16.25,22.07387,16.25,22Q16.25,21.92613,16.264411,21.85368Q16.278822,21.78123,16.30709,21.71299Q16.335359,21.64474,16.376398000000002,21.58332Q16.417437,21.5219,16.46967,21.46967Q16.521903000000002,21.41744,16.583322,21.3764Q16.644742,21.33536,16.712987,21.30709Q16.781233,21.27882,16.853682,21.264409999999998Q16.9261315,21.25,17,21.25L20.25,21.25L20.25,18Z" fill-rule="evenodd" fill="#2882FF" fill-opacity="1"/></g><g><path d="M17.530484,17.469824L21.53033,21.46967Q21.63582,21.57516,21.69291,21.71299Q21.75,21.85082,21.75,22Q21.75,22.07387,21.735590000000002,22.14632Q21.72118,22.21877,21.69291,22.287010000000002Q21.66464,22.35526,21.6236,22.41668Q21.58256,22.4781,21.53033,22.53033Q21.4781,22.58256,21.41668,22.6236Q21.35526,22.66464,21.287010000000002,22.69291Q21.21877,22.72118,21.14632,22.735590000000002Q21.07387,22.75,21,22.75Q20.85082,22.75,20.71299,22.69291Q20.57516,22.63582,20.46967,22.53033L16.469824,18.530484L16.46967,18.53033Q16.364181,18.424841,16.30709,18.287013Q16.25,18.149184,16.25,18Q16.25,17.9261315,16.264411,17.853682Q16.278822,17.781233,16.30709,17.712987Q16.335359,17.644742,16.376398000000002,17.583322Q16.417437,17.521903000000002,16.46967,17.46967Q16.521903000000002,17.417437,16.583322,17.376398000000002Q16.644742,17.335359,16.712987,17.30709Q16.781233,17.278822,16.853682,17.264411Q16.9261315,17.25,17,17.25Q17.149184,17.25,17.287013,17.30709Q17.424841,17.364181,17.53033,17.46967L17.530484,17.469824Z" fill-rule="evenodd" fill="#2882FF" fill-opacity="1"/></g><g><path d="M10.25,12L10.25,16Q10.25,16.07387,10.264410999999999,16.14632Q10.278822,16.21877,10.30709,16.287010000000002Q10.335359,16.35526,10.376398,16.41668Q10.417437,16.4781,10.46967,16.53033Q10.521903,16.58256,10.583322,16.6236Q10.644742,16.66464,10.712987,16.69291Q10.781233,16.72118,10.853682,16.735590000000002Q10.9261315,16.75,11,16.75Q11.0738685,16.75,11.146318,16.735590000000002Q11.218767,16.72118,11.287013,16.69291Q11.355258,16.66464,11.416678,16.6236Q11.478097,16.58256,11.53033,16.53033Q11.582563,16.4781,11.623602,16.41668Q11.664641,16.35526,11.69291,16.287010000000002Q11.721178,16.21877,11.735589000000001,16.14632Q11.75,16.07387,11.75,16L11.75,12.75L15,12.75Q15.07387,12.75,15.14632,12.735589000000001Q15.21877,12.721178,15.28701,12.69291Q15.355260000000001,12.664641,15.41668,12.623602Q15.478100000000001,12.582563,15.53033,12.53033Q15.58256,12.478097,15.6236,12.416678Q15.66464,12.355258,15.692910000000001,12.287013Q15.72118,12.218767,15.73559,12.146318Q15.75,12.0738685,15.75,12Q15.75,11.9261315,15.73559,11.853682Q15.72118,11.781233,15.692910000000001,11.712987Q15.66464,11.644742,15.6236,11.583322Q15.58256,11.521903,15.53033,11.46967Q15.478100000000001,11.417437,15.41668,11.376398Q15.355260000000001,11.335359,15.28701,11.30709Q15.21877,11.278822,15.14632,11.264410999999999Q15.07387,11.25,15,11.25L11,11.25Q10.9261315,11.25,10.853682,11.264410999999999Q10.781233,11.278822,10.712987,11.30709Q10.644742,11.335359,10.583322,11.376398Q10.521903,11.417437,10.46967,11.46967Q10.417437,11.521903,10.376398,11.583322Q10.335359,11.644742,10.30709,11.712987Q10.278822,11.781233,10.264410999999999,11.853682Q10.25,11.9261315,10.25,12Z" fill-rule="evenodd" fill="#2882FF" fill-opacity="1"/></g><g><path d="M11.530484,11.469824L15.53033,15.46967Q15.635819999999999,15.57516,15.692910000000001,15.71299Q15.75,15.85082,15.75,16Q15.75,16.07387,15.73559,16.14632Q15.72118,16.21877,15.692910000000001,16.287010000000002Q15.66464,16.35526,15.6236,16.41668Q15.58256,16.4781,15.53033,16.53033Q15.478100000000001,16.58256,15.41668,16.6236Q15.355260000000001,16.66464,15.28701,16.69291Q15.21877,16.72118,15.14632,16.735590000000002Q15.07387,16.75,15,16.75Q14.85082,16.75,14.71299,16.69291Q14.57516,16.63582,14.46967,16.53033L10.469824,12.530484L10.46967,12.53033Q10.364181,12.424841,10.30709,12.287013Q10.25,12.149184,10.25,12Q10.25,11.9261315,10.264410999999999,11.853682Q10.278822,11.781233,10.30709,11.712987Q10.335359,11.644742,10.376398,11.583322Q10.417437,11.521903,10.46967,11.46967Q10.521903,11.417437,10.583322,11.376398Q10.644742,11.335359,10.712987,11.30709Q10.781233,11.278822,10.853682,11.264410999999999Q10.9261315,11.25,11,11.25Q11.149184,11.25,11.287013,11.30709Q11.424841,11.364181,11.53033,11.46967L11.530484,11.469824Z" fill-rule="evenodd" fill="#2882FF" fill-opacity="1"/></g></g></g></svg>