<svg xmlns="http://www.w3.org/2000/svg" xmlns:xlink="http://www.w3.org/1999/xlink" fill="none" version="1.1" width="24" height="24" viewBox="0 0 24 24"><defs><clipPath id="master_svg0_48_02166"><rect x="0" y="0" width="24" height="24" rx="0"/></clipPath></defs><g clip-path="url(#master_svg0_48_02166)"><g><path d="M17.5308,2.470096L20.5303,5.46967Q20.6358,5.57516,20.6929,5.71299Q20.75,5.850820000000001,20.75,6Q20.75,6.149179999999999,20.6929,6.28701Q20.6358,6.42484,20.5303,6.53033L17.5307,9.52994L17.5303,9.53033Q17.424799999999998,9.635819999999999,17.287,9.692910000000001Q17.1492,9.75,17,9.75Q16.926099999999998,9.75,16.8537,9.73559Q16.7812,9.72118,16.713,9.692910000000001Q16.6447,9.66464,16.5833,9.6236Q16.521900000000002,9.58256,16.4697,9.53033Q16.4174,9.478100000000001,16.3764,9.41668Q16.3354,9.355260000000001,16.3071,9.28701Q16.2788,9.21877,16.264400000000002,9.14632Q16.25,9.07387,16.25,9Q16.25,8.850819999999999,16.3071,8.71299Q16.3642,8.57516,16.4697,8.46967L16.4703,8.46904L18.1893,6.75L7,6.75Q6.068020000000001,6.75,5.40901,7.40901Q4.75,8.06802,4.75,9L4.75,12Q4.75,12.07387,4.735589,12.14632Q4.721178,12.21877,4.69291,12.28701Q4.664641,12.35526,4.623602,12.41668Q4.582563,12.4781,4.53033,12.53033Q4.478097,12.58256,4.416678,12.6236Q4.355258,12.66464,4.287013,12.69291Q4.218767,12.72118,4.146318,12.73559Q4.0738685,12.75,4,12.75Q3.9261315,12.75,3.853682,12.73559Q3.781233,12.72118,3.712987,12.69291Q3.644742,12.66464,3.583322,12.6236Q3.521903,12.58256,3.46967,12.53033Q3.417437,12.4781,3.376398,12.41668Q3.335359,12.35526,3.30709,12.28701Q3.278822,12.21877,3.264411,12.14632Q3.25,12.07387,3.25,12L3.25,9Q3.25,7.4467,4.34835,6.34835Q5.4467,5.25,7,5.25L18.1893,5.25L16.470100000000002,3.5307560000000002L16.4697,3.53033Q16.3642,3.424841,16.3071,3.287013Q16.25,3.149184,16.25,3Q16.25,2.9261315,16.264400000000002,2.853682Q16.2788,2.781233,16.3071,2.712987Q16.3354,2.644742,16.3764,2.583322Q16.4174,2.521903,16.4697,2.46967Q16.521900000000002,2.417437,16.5833,2.376398Q16.6447,2.335359,16.713,2.30709Q16.7812,2.278822,16.8537,2.264411Q16.926099999999998,2.25,17,2.25Q17.1492,2.25,17.287,2.30709Q17.424799999999998,2.364181,17.5303,2.46967L17.5308,2.470096Z" fill-rule="evenodd" fill="#231F2E" fill-opacity="1"/></g><g><path d="M19.25,12Q19.25,11.9261315,19.264400000000002,11.853682Q19.2788,11.781233,19.3071,11.712987Q19.3354,11.644742,19.3764,11.583322Q19.4174,11.521903,19.4697,11.46967Q19.521900000000002,11.417437,19.5833,11.376398Q19.6447,11.335359,19.713,11.30709Q19.7812,11.278822,19.8537,11.264410999999999Q19.926099999999998,11.25,20,11.25Q20.0739,11.25,20.1463,11.264410999999999Q20.2188,11.278822,20.287,11.30709Q20.3553,11.335359,20.4167,11.376398Q20.4781,11.417437,20.5303,11.46967Q20.5826,11.521903,20.6236,11.583322Q20.6646,11.644742,20.6929,11.712987Q20.7212,11.781233,20.7356,11.853682Q20.75,11.9261315,20.75,12L20.75,15Q20.75,16.5533,19.651699999999998,17.65165Q18.5533,18.75,17,18.75L5.81066,18.75L7.52994,20.469279999999998L7.53033,20.46967Q7.63582,20.57516,7.6929099999999995,20.712989999999998Q7.75,20.85082,7.75,21Q7.75,21.07387,7.73559,21.14632Q7.72118,21.21877,7.6929099999999995,21.287010000000002Q7.66464,21.35526,7.6236,21.41668Q7.58256,21.478099999999998,7.53033,21.53033Q7.4780999999999995,21.58256,7.4166799999999995,21.6236Q7.3552599999999995,21.66464,7.28701,21.692909999999998Q7.21877,21.72118,7.146319999999999,21.735590000000002Q7.073869999999999,21.75,7,21.75Q6.850820000000001,21.75,6.71299,21.692909999999998Q6.57516,21.635820000000002,6.46967,21.53033L3.46967,18.53033Q3.364181,18.42484,3.30709,18.287010000000002Q3.25,18.14918,3.25,18Q3.25,17.85082,3.30709,17.712989999999998Q3.364181,17.57516,3.46967,17.46967L6.4692799999999995,14.47006L6.46967,14.46967Q6.57516,14.364180000000001,6.71299,14.30709Q6.850820000000001,14.25,7,14.25Q7.073869999999999,14.25,7.146319999999999,14.26441Q7.21877,14.27882,7.28701,14.30709Q7.3552599999999995,14.33536,7.4166799999999995,14.3764Q7.4780999999999995,14.41744,7.53033,14.46967Q7.58256,14.5219,7.6236,14.58332Q7.66464,14.64474,7.6929099999999995,14.71299Q7.72118,14.78123,7.73559,14.85368Q7.75,14.92613,7.75,15Q7.75,15.14918,7.6929099999999995,15.28701Q7.63582,15.42484,7.53033,15.53033L5.81066,17.25L17,17.25Q17.932000000000002,17.25,18.591,16.590989999999998Q19.25,15.93198,19.25,15L19.25,12Z" fill-rule="evenodd" fill="#231F2E" fill-opacity="1"/></g><g><g transform="matrix(0,1,-1,0,22.396721839904785,-1.6032648086547852)"><path d="M11.999993324279785,9.896728515625L12.322084324279786,9.896728515625Q12.890805324279786,9.896728515625,13.385773324279786,10.235194515625Q13.854403324279785,10.555645515625,14.149663324279786,11.109526515625L14.323603324279786,11.435678515625Q14.503423324279785,11.773058515625,14.769483324279784,11.954998515625Q15.009233324279785,12.118938515625,15.268823324279785,12.118958515625L17.095483324279783,12.118958515625Q17.144723324279784,12.118958515625,17.193023324279785,12.128568515625Q17.241323324279783,12.138178515625,17.286823324279787,12.157018515625Q17.332313324279784,12.175868515625,17.373263324279783,12.203228515625Q17.414213324279785,12.230588515625,17.449033324279785,12.265408515625Q17.483853324279785,12.300228515625,17.511213324279787,12.341178515625Q17.538573324279785,12.382118515625,17.557413324279786,12.427618515625Q17.576263324279786,12.473118515625,17.585873324279785,12.521418515625001Q17.595473324279787,12.569718515625,17.595483324279783,12.618958515625Q17.595473324279787,12.668208515625,17.585873324279785,12.716508515625Q17.576263324279786,12.764808515624999,17.557413324279786,12.810298515625Q17.538573324279785,12.855798515625,17.511213324279787,12.896748515625Q17.483853324279785,12.937688515625,17.449033324279785,12.972518515625Q17.414213324279785,13.007338515625,17.373263324279783,13.034698515625Q17.332313324279784,13.062058515625,17.286823324279787,13.080898515625Q17.241323324279783,13.099748515625,17.193023324279785,13.109358515625Q17.144723324279784,13.118958515625,17.095483324279783,13.118958515625L15.268723324279785,13.118958515625Q14.699973324279785,13.118908515625,14.205023324279786,12.780458515625Q13.736383324279785,12.459998515625,13.441233324279786,11.906238515625L13.267223324279785,11.579938515625Q13.087393324279786,11.242598515625,12.821318324279785,11.060655515625Q12.581591324279785,10.896728515625,12.322084324279786,10.896728515625L11.999993324279785,10.896728515625Q11.950747624279785,10.896728515625,11.902448224279786,10.887121515625Q11.854148324279786,10.877513515625001,11.808651324279785,10.858668515625Q11.763154324279785,10.839822515625,11.722208324279785,10.812463515625Q11.681262324279786,10.785103515625,11.646440324279785,10.750281515625Q11.611618324279785,10.715459515625,11.584258324279785,10.674513515625Q11.556899324279785,10.633567515625,11.538053324279785,10.588070515625Q11.519208324279784,10.542573515625,11.509600324279786,10.494273615625Q11.499993324279785,10.445974215625,11.499993324279785,10.396728515625Q11.499993324279785,10.347482815625,11.509600324279786,10.299183415625Q11.519208324279784,10.250883515625,11.538053324279785,10.205386515625Q11.556899324279785,10.159889515625,11.584258324279785,10.118943515625Q11.611618324279785,10.077997515625,11.646440324279785,10.043175515625Q11.681262324279786,10.008353515625,11.722208324279785,9.980993515625Q11.763154324279785,9.953634515625,11.808651324279785,9.934788515625Q11.854148324279786,9.915943515624999,11.902448224279786,9.906335515625Q11.950747624279785,9.896728515625,11.999993324279785,9.896728515625Z" fill-rule="evenodd" fill="#2882FF" fill-opacity="1"/></g><g transform="matrix(0,1,-1,0,24.618950843811035,-3.825493812561035)"><path d="M14.545328328186034,12.118958515625L14.222222328186035,12.118958515625Q14.172976628186035,12.118958515625,14.124677228186036,12.128568515625Q14.076377328186036,12.138178515625,14.030880328186035,12.157018515625Q13.985383328186035,12.175868515625,13.944437328186035,12.203228515625Q13.903491328186036,12.230588515625,13.868669328186035,12.265408515625Q13.833847328186035,12.300228515625,13.806487328186035,12.341178515625Q13.779128328186035,12.382118515625,13.760282328186035,12.427618515625Q13.741437328186034,12.473118515625,13.731829328186036,12.521418515625001Q13.722222328186035,12.569718515625,13.722222328186035,12.618958515625Q13.722222328186035,12.668208515625,13.731829328186036,12.716508515625Q13.741437328186034,12.764808515624999,13.760282328186035,12.810298515625Q13.779128328186035,12.855798515625,13.806487328186035,12.896748515625Q13.833847328186035,12.937688515625,13.868669328186035,12.972518515625Q13.903491328186036,13.007338515625,13.944437328186035,13.034698515625Q13.985383328186035,13.062058515625,14.030880328186035,13.080898515625Q14.076377328186036,13.099748515625,14.124677228186036,13.109358515625Q14.172976628186035,13.118958515625,14.222222328186035,13.118958515625L14.545328328186034,13.118958515625Q15.114258328186036,13.118958515625,15.609382328186035,12.780158515625Q16.078102328186034,12.459418515625,16.373332328186034,11.905118515625L16.546062328186036,11.580468515625Q16.725762328186036,11.242959515625,16.991992328186036,11.060826515625Q17.231882328186035,10.896713515625,17.491652328186035,10.896728515625L19.317712328186033,10.896728515625Q19.366952328186034,10.896728515625,19.415252328186035,10.887121515625Q19.463552328186033,10.877513515625001,19.509052328186037,10.858668515625Q19.554542328186034,10.839822515625,19.595492328186033,10.812463515625Q19.636442328186035,10.785103515625,19.671262328186035,10.750281515625Q19.706082328186035,10.715459515625,19.733442328186037,10.674513515625Q19.760802328186035,10.633567515625,19.779642328186036,10.588070515625Q19.798492328186036,10.542573515625,19.808102328186035,10.494273615625Q19.817702328186037,10.445974215625,19.817712328186033,10.396728515625Q19.817702328186037,10.347482815625,19.808102328186035,10.299183415625Q19.798492328186036,10.250883515625,19.779642328186036,10.205386515625Q19.760802328186035,10.159889515625,19.733442328186037,10.118943515625Q19.706082328186035,10.077997515625,19.671262328186035,10.043175515625Q19.636442328186035,10.008353515625,19.595492328186033,9.980993515625Q19.554542328186034,9.953634515625,19.509052328186037,9.934788515625Q19.463552328186033,9.915943515624999,19.415252328186035,9.906335515625Q19.366952328186034,9.896728515625,19.317712328186033,9.896728515625L17.491712328186036,9.896728515625Q16.922582328186035,9.896695515625,16.427362328186035,10.235483515625Q15.958482328186035,10.556252515625,15.663232328186036,11.110773515625L15.490722328186035,11.435018515625Q15.310852328186035,11.772728515625,15.044657328186036,11.954878515625Q14.804867328186035,12.118958515625,14.545328328186034,12.118958515625Z" fill-rule="evenodd" fill="#2882FF" fill-opacity="1"/></g><g transform="matrix(0,1,-1,0,29.714409828186035,-1.3966608047485352)"><path d="M15.909148316467284,13.80538051171875L17.242425316467283,15.13866151171875Q17.312755316467285,15.20898451171875,17.350815316467283,15.30087451171875Q17.388875316467285,15.39275451171875,17.388875316467285,15.49221451171875Q17.388875316467285,15.59167451171875,17.350815316467283,15.68355451171875Q17.312755316467285,15.77544451171875,17.242425316467283,15.84576451171875L15.909276316467285,17.17892451171875L15.909088316467285,17.17910451171875Q15.838762316467285,17.24943451171875,15.746877316467286,17.28749451171875Q15.654991516467286,17.32555451171875,15.555535316467285,17.32555451171875Q15.506289616467285,17.32555451171875,15.457990216467286,17.31594451171875Q15.409690316467286,17.30634451171875,15.364193316467285,17.28749451171875Q15.318696316467285,17.26864451171875,15.277750316467285,17.24128451171875Q15.236804316467286,17.21393451171875,15.201982316467285,17.17910451171875Q15.167160316467285,17.14428451171875,15.139800316467285,17.10333451171875Q15.112441316467285,17.06239451171875,15.093595316467285,17.01689451171875Q15.074750316467284,16.97139451171875,15.065142316467286,16.92310451171875Q15.055535316467285,16.87480451171875,15.055535316467285,16.82555451171875Q15.055535316467285,16.72609451171875,15.093595316467285,16.63421451171875Q15.131655316467285,16.54232451171875,15.201982316467285,16.47200451171875L15.202169316467286,16.47181451171875L16.181768316467284,15.49221451171875L15.201982316467285,14.51242751171875Q15.131655316467285,14.44210151171875,15.093595316467285,14.35021651171875Q15.055535316467285,14.25833071171875,15.055535316467285,14.15887451171875Q15.055535316467285,14.10962881171875,15.065142316467286,14.06132941171875Q15.074750316467284,14.01302951171875,15.093595316467285,13.96753251171875Q15.112441316467285,13.92203551171875,15.139800316467285,13.88108951171875Q15.167160316467285,13.84014351171875,15.201982316467285,13.80532151171875Q15.236804316467286,13.77049951171875,15.277750316467285,13.74313951171875Q15.318696316467285,13.71578051171875,15.364193316467285,13.69693451171875Q15.409690316467286,13.678089511718749,15.457990216467286,13.66848151171875Q15.506289616467285,13.65887451171875,15.555535316467285,13.65887451171875Q15.654991516467286,13.65887451171875,15.746877316467286,13.69693451171875Q15.838762316467285,13.73499451171875,15.909088316467285,13.80532151171875L15.909148316467284,13.80538051171875Z" fill-rule="evenodd" fill="#2882FF" fill-opacity="1"/></g><g transform="matrix(0,1,-1,0,25.269951820373535,3.047797203063965)"><path d="M11.464690308654784,13.80538051171875L12.797967308654785,15.13866151171875Q12.868297308654785,15.20898451171875,12.906357308654785,15.30087451171875Q12.944417308654785,15.39275451171875,12.944417308654785,15.49221451171875Q12.944417308654785,15.59167451171875,12.906357308654785,15.68355451171875Q12.868297308654785,15.77544451171875,12.797967308654785,15.84576451171875L11.464818308654785,17.17892451171875L11.464630308654785,17.17910451171875Q11.394304308654785,17.24943451171875,11.302419308654786,17.28749451171875Q11.210533508654786,17.32555451171875,11.111077308654785,17.32555451171875Q11.061831608654785,17.32555451171875,11.013532208654786,17.31594451171875Q10.965232308654786,17.30634451171875,10.919735308654785,17.28749451171875Q10.874238308654785,17.26864451171875,10.833292308654785,17.24128451171875Q10.792346308654786,17.21393451171875,10.757524308654785,17.17910451171875Q10.722702308654785,17.14428451171875,10.695342308654785,17.10333451171875Q10.667983308654785,17.06239451171875,10.649137308654785,17.01689451171875Q10.630292308654784,16.97139451171875,10.620684308654786,16.92310451171875Q10.611077308654785,16.87480451171875,10.611077308654785,16.82555451171875Q10.611077308654785,16.72609451171875,10.649137308654785,16.63421451171875Q10.687197308654785,16.54232451171875,10.757524308654785,16.47200451171875L10.757711308654786,16.47181451171875L11.737310308654784,15.49221451171875L10.757524308654785,14.51242751171875Q10.687197308654785,14.44210151171875,10.649137308654785,14.35021651171875Q10.611077308654785,14.25833071171875,10.611077308654785,14.15887451171875Q10.611077308654785,14.10962881171875,10.620684308654786,14.06132941171875Q10.630292308654784,14.01302951171875,10.649137308654785,13.96753251171875Q10.667983308654785,13.92203551171875,10.695342308654785,13.88108951171875Q10.722702308654785,13.84014351171875,10.757524308654785,13.80532151171875Q10.792346308654786,13.77049951171875,10.833292308654785,13.74313951171875Q10.874238308654785,13.71578051171875,10.919735308654785,13.69693451171875Q10.965232308654786,13.678089511718749,11.013532208654786,13.66848151171875Q11.061831608654785,13.65887451171875,11.111077308654785,13.65887451171875Q11.210533508654786,13.65887451171875,11.302419308654786,13.69693451171875Q11.394304308654785,13.73499451171875,11.464630308654785,13.80532151171875L11.464690308654784,13.80538051171875Z" fill-rule="evenodd" fill="#2882FF" fill-opacity="1"/></g><g><path d="M13,9.5078125Q13,9.6063025,12.98079,9.7029025Q12.96157,9.7995025,12.92388,9.8904925Q12.88619,9.9814925,12.83147,10.0633825Q12.77675,10.1452725,12.70711,10.2149225Q12.63746,10.2845625,12.55557,10.3392825Q12.47368,10.3940025,12.38268,10.4316925Q12.29169,10.4693825,12.19509,10.4886025Q12.09849,10.5078125,12,10.5078125Q11.901509,10.5078125,11.80491,10.4886025Q11.708311,10.4693825,11.617316,10.4316925Q11.526322,10.3940025,11.44443,10.3392825Q11.362537,10.2845625,11.292893,10.2149225Q11.223249,10.1452725,11.16853,10.0633825Q11.113811,9.9814925,11.0761205,9.8904925Q11.0384294,9.7995025,11.0192147,9.7029025Q11,9.6063025,11,9.5078125Q11,9.4093215,11.0192147,9.3127225Q11.0384294,9.2161235,11.0761205,9.1251285Q11.113811,9.0341345,11.16853,8.9522425Q11.223249,8.8703495,11.292893,8.8007055Q11.362537,8.7310615,11.44443,8.6763425Q11.526322,8.6216235,11.617316,8.583933Q11.708311,8.5462419,11.80491,8.5270272Q11.901509,8.5078125,12,8.5078125Q12.09849,8.5078125,12.19509,8.5270272Q12.29169,8.5462419,12.38268,8.583933Q12.47368,8.6216235,12.55557,8.6763425Q12.63746,8.7310615,12.70711,8.8007055Q12.77675,8.8703495,12.83147,8.9522425Q12.88619,9.0341345,12.92388,9.1251285Q12.96157,9.2161235,12.98079,9.3127225Q13,9.4093215,13,9.5078125Z" fill="#2882FF" fill-opacity="1"/></g></g></g></svg>