<svg xmlns="http://www.w3.org/2000/svg" xmlns:xlink="http://www.w3.org/1999/xlink" fill="none" version="1.1" width="24" height="24" viewBox="0 0 24 24"><defs><clipPath id="master_svg0_58_01314"><rect x="0" y="0" width="24" height="24" rx="0"/></clipPath></defs><g clip-path="url(#master_svg0_58_01314)"><g><path d="M20.999984741210938,7.5L3.0000000000109375,7.5Q2.9261315412109377,7.5,2.8536827412109376,7.514411Q2.7812337412109374,7.528822,2.7129877412109376,7.55709Q2.6447417412109377,7.585359,2.5833227412109374,7.626398Q2.5219027412109374,7.667437,2.4696707412109378,7.71967Q2.4174377412109376,7.771903,2.3763977412109374,7.833322Q2.3353587412109373,7.894742,2.3070907412109376,7.962987Q2.2788227412109374,8.031233,2.2644117412109375,8.103682Q2.2499997412109374,8.1761314,2.2499997412109374,8.25L2.2499897412109373,17.24998Q2.2499867412109373,18.8033,3.3483367412109377,19.901600000000002Q4.446684741210937,21,5.9999847412109375,21L17.999984741210938,21Q19.553284741210938,21,20.65168474121094,19.901600000000002Q21.749984741210938,18.8033,21.749984741210938,17.24999L21.749984741210938,8.25Q21.749984741210938,8.1761315,21.73558474121094,8.103682Q21.721184741210937,8.031233,21.69288474121094,7.962987Q21.664584741210938,7.894742,21.623584741210937,7.833322Q21.582584741210937,7.771903,21.530284741210938,7.71967Q21.47808474121094,7.667437,21.416684741210936,7.626398Q21.355284741210937,7.585359,21.286984741210937,7.55709Q21.21878474121094,7.528822,21.146284741210938,7.514411Q21.073884741210936,7.5,20.999984741210938,7.5ZM3.7499987412109377,9L3.7499897412109373,17.24998Q3.7499877412109375,18.18197,4.408994741210938,18.841Q5.068004741210938,19.5,5.9999847412109375,19.5L17.999984741210938,19.5Q18.93198474121094,19.5,19.59098474121094,18.841Q20.249984741210938,18.18197,20.249984741210938,17.24999L20.249984741210938,9L3.7499987412109377,9Z" fill-rule="evenodd" fill="#231F2E" fill-opacity="1"/></g><g><path d="M2.25,6.75Q2.25,5.1967,3.34835,4.09835Q4.4467,3.00000488758,6,3.00000435114L18,3Q19.5534,3,20.6535,4.10792Q21.75,5.21217,21.75,6.76539L21.75,8.25001C21.75,8.66423,21.4142,9.00001,21,9.00001L3,9.00001C2.585786,9.00001,2.25,8.66423,2.25,8.25001L2.25,6.75ZM4.5,6L4.5,6.008C4.5,6.42221,4.835789999999999,6.758,5.25,6.758L5.258,6.758C5.67221,6.758,6.008,6.42221,6.008,6.008L6.008,6C6.008,5.585789999999999,5.67221,5.25,5.258,5.25L5.25,5.25C4.835789999999999,5.25,4.5,5.585789999999999,4.5,6ZM6.75,6L6.75,6.008C6.75,6.42221,7.08579,6.758,7.5,6.758L7.508,6.758C7.92221,6.758,8.258,6.42221,8.258,6.008L8.258,6C8.258,5.585789999999999,7.92221,5.25,7.508,5.25L7.5,5.25C7.08579,5.25,6.75,5.585789999999999,6.75,6ZM10.508,6.008L10.508,6C10.508,5.585789999999999,10.17221,5.25,9.758,5.25L9.75,5.25C9.33579,5.25,9,5.585789999999999,9,6L9,6.008C9,6.42221,9.33579,6.758,9.75,6.758L9.758,6.758C10.17221,6.758,10.508,6.42221,10.508,6.008Z" fill-rule="evenodd" fill="#231F2E" fill-opacity="1"/></g><g><path d="M9,11Q9,10.9507543,9.009607,10.9024549Q9.019214999999999,10.854155,9.03806,10.808658Q9.056906,10.763161,9.084265,10.722215Q9.111625,10.681269,9.146447,10.646447Q9.181269,10.611625,9.222215,10.584265Q9.263161,10.556906,9.308658,10.53806Q9.354155,10.519214999999999,9.4024549,10.509607Q9.4507543,10.5,9.5,10.5Q9.5492457,10.5,9.5975451,10.509607Q9.645845,10.519214999999999,9.691342,10.53806Q9.736839,10.556906,9.777785,10.584265Q9.818731,10.611625,9.853553,10.646447Q9.888375,10.681269,9.915735,10.722215Q9.943094,10.763161,9.96194,10.808658Q9.980785000000001,10.854155,9.990393,10.9024549Q10,10.9507543,10,11L10,15.5Q10,15.70711,10.146447,15.85355Q10.292893,16,10.5,16L15,16Q15.049240000000001,16,15.09754,16.009610000000002Q15.14584,16.01921,15.19134,16.03806Q15.23684,16.056910000000002,15.27778,16.08426Q15.31873,16.111620000000002,15.35355,16.14645Q15.38837,16.181269999999998,15.41573,16.22221Q15.44309,16.26316,15.46194,16.30866Q15.48078,16.35415,15.49039,16.40245Q15.5,16.45075,15.5,16.5Q15.5,16.54924,15.49039,16.597540000000002Q15.48078,16.64584,15.46194,16.69134Q15.44309,16.73684,15.41573,16.77778Q15.38837,16.818730000000002,15.35355,16.85355Q15.31873,16.888370000000002,15.27778,16.91573Q15.23684,16.943089999999998,15.19134,16.96194Q15.14584,16.98078,15.09754,16.990389999999998Q15.049240000000001,17,15,17L10.5,17Q9.87868,17,9.4393399,16.56066Q9,16.12132,9,15.5L9,11Z" fill-rule="evenodd" fill="#2882FF" fill-opacity="1"/></g><g><path d="M11.5,12L12.5,12Q13.12132,12,13.56066,12.4393398Q14,12.878679,14,13.5L14,14.5Q14,14.54925,13.99039,14.59754Q13.98078,14.64584,13.96194,14.69134Q13.94309,14.73684,13.91573,14.77778Q13.88838,14.81873,13.85355,14.85355Q13.81873,14.88838,13.77779,14.91573Q13.73684,14.94309,13.69134,14.96194Q13.64584,14.98078,13.59754,14.99039Q13.54925,15,13.5,15Q13.45075,15,13.40245,14.99039Q13.35416,14.98078,13.30866,14.96194Q13.26316,14.94309,13.22221,14.91573Q13.18127,14.88838,13.14645,14.85355Q13.11162,14.81873,13.08426,14.77779Q13.05691,14.73684,13.03806,14.69134Q13.01921,14.64584,13.00961,14.59754Q13,14.54925,13,14.5L13,13.5Q13,13.292893,12.85355,13.146447Q12.70711,13,12.5,13L11.5,13Q11.4507543,13,11.4024549,12.990393Q11.354155,12.980785000000001,11.308658,12.96194Q11.263161,12.943094,11.222215,12.915735Q11.181269,12.888375,11.146447,12.853553Q11.111625,12.818731,11.084265,12.777785Q11.056906,12.736839,11.03806,12.691342Q11.019214999999999,12.645845,11.009607,12.5975451Q11,12.5492457,11,12.5Q11,12.4507543,11.009607,12.4024549Q11.019214999999999,12.354155,11.03806,12.308658Q11.056906,12.263161,11.084265,12.222215Q11.111625,12.181269,11.146447,12.146447Q11.181269,12.111625,11.222215,12.084265Q11.263161,12.056906,11.308658,12.03806Q11.354155,12.019214999999999,11.4024549,12.009607Q11.4507543,12,11.5,12Z" fill-rule="evenodd" fill="#2882FF" fill-opacity="1"/></g><g><path d="M8,12L9.5,12Q9.54925,12,9.59754,12.009607Q9.64584,12.019214999999999,9.69134,12.03806Q9.73684,12.056906,9.77778,12.084265Q9.81873,12.111625,9.85355,12.146447Q9.88838,12.181269,9.91573,12.222215Q9.94309,12.263161,9.96194,12.308658Q9.98078,12.354155,9.99039,12.4024549Q10,12.4507543,10,12.5Q10,12.5492457,9.99039,12.5975451Q9.98078,12.645845,9.96194,12.691342Q9.94309,12.736839,9.91573,12.777785Q9.88838,12.818731,9.85355,12.853553Q9.81873,12.888375,9.77778,12.915735Q9.73684,12.943094,9.69134,12.96194Q9.64584,12.980785000000001,9.59754,12.990393Q9.54925,13,9.5,13L8,13Q7.9507543,13,7.9024549,12.990393Q7.854155,12.980785000000001,7.808658,12.96194Q7.763161,12.943094,7.722215,12.915735Q7.681269,12.888375,7.646447,12.853553Q7.611625,12.818731,7.584265,12.777785Q7.556906,12.736839,7.53806,12.691342Q7.519215,12.645845,7.509607,12.5975451Q7.5,12.5492457,7.5,12.5Q7.5,12.4507543,7.509607,12.4024549Q7.519215,12.354155,7.53806,12.308658Q7.556906,12.263161,7.584265,12.222215Q7.611625,12.181269,7.646447,12.146447Q7.681269,12.111625,7.722215,12.084265Q7.763161,12.056906,7.808658,12.03806Q7.854155,12.019214999999999,7.9024549,12.009607Q7.9507543,12,8,12Z" fill-rule="evenodd" fill="#2882FF" fill-opacity="1"/></g><g><path d="M13,16.5Q13,16.4507543,13.009607,16.4024549Q13.019214999999999,16.354155,13.03806,16.308658Q13.056906,16.263161,13.084265,16.222215Q13.111625,16.181269,13.146447,16.146447Q13.181269,16.111625,13.222215,16.084265Q13.263161,16.056906,13.308658,16.03806Q13.354155,16.019215,13.4024549,16.009607Q13.4507543,16,13.5,16Q13.5492457,16,13.5975451,16.009607Q13.645845,16.019215,13.691342,16.03806Q13.736839,16.056906,13.777785,16.084265Q13.818731,16.111625,13.853553,16.146447Q13.888375,16.181269,13.915735,16.222215Q13.943094,16.263161,13.96194,16.308658Q13.980785000000001,16.354155,13.990393,16.4024549Q14,16.4507543,14,16.5L14,18Q14,18.04925,13.990393,18.09754Q13.980785000000001,18.14584,13.96194,18.19134Q13.943094,18.23684,13.915735,18.27778Q13.888375,18.31873,13.853553,18.35355Q13.818731,18.38838,13.777785,18.41573Q13.736839,18.44309,13.691342,18.46194Q13.645845,18.48078,13.5975451,18.49039Q13.5492457,18.5,13.5,18.5Q13.4507543,18.5,13.4024549,18.49039Q13.354155,18.48078,13.308658,18.46194Q13.263161,18.44309,13.222215,18.41573Q13.181269,18.38838,13.146447,18.35355Q13.111625,18.31873,13.084265,18.27778Q13.056906,18.23684,13.03806,18.19134Q13.019214999999999,18.14584,13.009607,18.09754Q13,18.04925,13,18L13,16.5Z" fill-rule="evenodd" fill="#2882FF" fill-opacity="1"/></g></g></svg>