<svg xmlns="http://www.w3.org/2000/svg" xmlns:xlink="http://www.w3.org/1999/xlink" fill="none" version="1.1" width="24" height="24" viewBox="0 0 24 24"><defs><clipPath id="master_svg0_48_03318"><rect x="0" y="0" width="24" height="24" rx="0"/></clipPath></defs><g clip-path="url(#master_svg0_48_03318)"><g><path d="M5.9999847412109375,21L9.499984741210938,21Q9.573854741210937,21,9.646304741210937,20.985599999999998Q9.718754741210937,20.9712,9.786994741210938,20.9429Q9.855244741210939,20.9146,9.916664741210937,20.8736Q9.978084741210939,20.8326,10.030314741210937,20.7803Q10.082544741210938,20.728099999999998,10.123584741210937,20.6667Q10.164624741210938,20.6053,10.192894741210939,20.537Q10.221164741210938,20.4688,10.235574741210938,20.3963Q10.249984741210938,20.323900000000002,10.249984741210938,20.25Q10.249984741210938,20.176099999999998,10.235574741210938,20.1037Q10.221164741210938,20.0312,10.192894741210939,19.963Q10.164624741210938,19.8947,10.123584741210937,19.8333Q10.082544741210938,19.771900000000002,10.030314741210937,19.7197Q9.978084741210939,19.6674,9.916664741210937,19.6264Q9.855244741210939,19.5854,9.786994741210938,19.5571Q9.718754741210937,19.5288,9.646304741210937,19.514400000000002Q9.573854741210937,19.5,9.499984741210938,19.5L5.9999847412109375,19.5Q5.068004741210938,19.5,4.408994741210938,18.841Q3.7499877412109375,18.18197,3.7499887412109376,17.24999L3.7499987412109377,9L20.249984741210938,9L20.249984741210938,17.25Q20.249984741210938,18.18198,19.59098474121094,18.841Q18.93198474121094,19.5,17.999984741210938,19.5L17.998384741210938,19.5Q17.92448474121094,19.5,17.852084741210938,19.514400000000002Q17.77958474121094,19.5288,17.711384741210935,19.5571Q17.643184741210938,19.5854,17.581684741210935,19.6264Q17.520284741210936,19.6674,17.468084741210937,19.7197Q17.41578474121094,19.771900000000002,17.374784741210938,19.8333Q17.333784741210938,19.8947,17.30548474121094,19.963Q17.277184741210938,20.0312,17.262784741210936,20.1037Q17.248384741210938,20.176099999999998,17.248384741210938,20.25Q17.248384741210938,20.323900000000002,17.262784741210936,20.3963Q17.277184741210938,20.4688,17.30548474121094,20.537Q17.333784741210938,20.6053,17.374784741210938,20.6667Q17.41578474121094,20.728099999999998,17.468084741210937,20.7803Q17.520284741210936,20.8326,17.581684741210935,20.8736Q17.643184741210938,20.9146,17.711384741210935,20.9429Q17.77958474121094,20.9712,17.852084741210938,20.985599999999998Q17.92448474121094,21,17.998384741210938,21L17.999984741210938,21Q19.553284741210938,21,20.65168474121094,19.901600000000002Q21.749984741210938,18.8033,21.749984741210938,17.25L21.749984741210938,8.25Q21.749984741210938,8.1761315,21.73558474121094,8.103682Q21.721184741210937,8.031233,21.69288474121094,7.962987Q21.664584741210938,7.894742,21.623584741210937,7.833322Q21.582584741210937,7.771903,21.530284741210938,7.71967Q21.47808474121094,7.667437,21.416684741210936,7.626398Q21.355284741210937,7.585359,21.286984741210937,7.55709Q21.21878474121094,7.528822,21.146284741210938,7.514411Q21.073884741210936,7.5,20.999984741210938,7.5L3.0000000000109375,7.5Q2.9261315412109377,7.5,2.8536827412109376,7.514411Q2.7812337412109374,7.528822,2.7129877412109376,7.55709Q2.6447417412109377,7.585359,2.5833227412109374,7.626398Q2.5219027412109374,7.667437,2.4696697412109376,7.71967Q2.4174377412109376,7.771903,2.3763977412109374,7.833322Q2.3353587412109373,7.894742,2.3070907412109376,7.962987Q2.2788227412109374,8.031233,2.2644107412109378,8.103682Q2.2499997412109374,8.1761314,2.2499997412109374,8.25L2.2499887412109376,17.24999Q2.2499867412109373,18.8033,3.3483337412109373,19.901600000000002Q4.446684741210937,21,5.9999847412109375,21Z" fill-rule="evenodd" fill="#231F2E" fill-opacity="1"/></g><g><path d="M2.25,6.75Q2.25,5.1967,3.34835,4.09835Q4.4467,3.00000488758,6,3.00000435114L18,3Q19.5534,3,20.6535,4.10792Q21.75,5.21217,21.75,6.76539L21.75,8.25001C21.75,8.66423,21.4142,9.00001,21,9.00001L3,9.00001C2.585786,9.00001,2.25,8.66423,2.25,8.25001L2.25,6.75ZM4.5,6L4.5,6.008C4.5,6.42221,4.835789999999999,6.758,5.25,6.758L5.258,6.758C5.67221,6.758,6.008,6.42221,6.008,6.008L6.008,6C6.008,5.585789999999999,5.67221,5.25,5.258,5.25L5.25,5.25C4.835789999999999,5.25,4.5,5.585789999999999,4.5,6ZM6.75,6L6.75,6.008C6.75,6.42221,7.08579,6.758,7.5,6.758L7.508,6.758C7.92221,6.758,8.258,6.42221,8.258,6.008L8.258,6C8.258,5.585789999999999,7.92221,5.25,7.508,5.25L7.5,5.25C7.08579,5.25,6.75,5.585789999999999,6.75,6ZM10.508,6.008L10.508,6C10.508,5.585789999999999,10.17221,5.25,9.758,5.25L9.75,5.25C9.33579,5.25,9,5.585789999999999,9,6L9,6.008C9,6.42221,9.33579,6.758,9.75,6.758L9.758,6.758C10.17221,6.758,10.508,6.42221,10.508,6.008Z" fill-rule="evenodd" fill="#231F2E" fill-opacity="1"/></g><g transform="matrix(1,-4.0080045948798215e-8,4.0080045948798215e-8,1,-5.393657698249399e-7,4.4088050543678037e-7)"><path d="M14.364139999999999,22.45721435546875C14.33819,22.45721435546875,14.31224,22.452194355468748,14.28713,22.442984355468752C14.23356,22.422054355468752,14.19087,22.381044355468752,14.16743,22.328304355468752L12.91686,19.43710435546875L11.360772,20.899444355468752C11.29883,20.95804435546875,11.20759,20.973114355468752,11.128907,20.93962435546875C11.0510605,20.90614435546875,11,20.82829435546875,11,20.74292435546875L11,13.67145335546875C11,13.58607335546875,11.0502235,13.50906395546875,11.128907,13.47474435546875C11.206753,13.44126205546875,11.297993,13.45632927246875,11.360772,13.51492315546875L16.50366,18.31461435546875C16.5656,18.37237435546875,16.58736,18.46193435546875,16.559739999999998,18.54145435546875C16.53212,18.62181435546875,16.46013,18.67789435546875,16.37559,18.68543435546875L14.19338,18.87293435546875L15.5017,21.72562435546875C15.52514,21.776684355468753,15.527650000000001,21.83611435546875,15.50756,21.889684355468752C15.48747,21.94326435546875,15.448129999999999,21.98595435546875,15.39623,22.00938435546875L14.45287,22.43796435546875C14.4244,22.450514355468748,14.395109999999999,22.45721435546875,14.364139999999999,22.45721435546875Z" fill="#2882FF" fill-opacity="1"/></g><g transform="matrix(0.9135454297065735,-0.4067366421222687,0.4067366421222687,0.9135454297065735,-4.565656843441502,3.154977543215864)"><g transform="matrix(1,-3.319054897588103e-8,3.319054897588103e-8,1,-4.088196838836211e-7,3.3650808539675836e-7)"><path d="M9.388671875,12.317352294921875Q9.388671875,12.243483794921875,9.403082874999999,12.171034294921874Q9.417493875,12.098585294921875,9.445761875,12.030339294921875Q9.474030875,11.962094294921876,9.515069875,11.900674294921876Q9.556108875,11.839255294921875,9.608341875,11.787022294921876Q9.660574875,11.734789294921875,9.721993875,11.693750294921875Q9.783413875,11.652711294921875,9.851658875,11.624442294921876Q9.919904875,11.596174294921875,9.992353875,11.581763294921874Q10.064803375,11.567352294921875,10.138671875,11.567352294921875Q10.212540375,11.567352294921875,10.284989875,11.581763294921874Q10.357438875,11.596174294921875,10.425684875,11.624442294921876Q10.493929875,11.652711294921875,10.555349875,11.693750294921875Q10.616768875,11.734789294921875,10.669001875,11.787022294921876Q10.721234875,11.839255294921875,10.762273875,11.900674294921876Q10.803312875,11.962094294921876,10.831581875,12.030339294921875Q10.859849875,12.098585294921875,10.874260875000001,12.171034294921874Q10.888671875,12.243483794921875,10.888671875,12.317352294921875L10.888671875,14.317352294921875Q10.888671875,14.391222294921874,10.874260875000001,14.463672294921874Q10.859849875,14.536122294921874,10.831581875,14.604362294921875Q10.803312875,14.672612294921874,10.762273875,14.734032294921874Q10.721234875,14.795452294921875,10.669001875,14.847682294921874Q10.616768875,14.899912294921876,10.555349875,14.940952294921875Q10.493929875,14.981992294921875,10.425684875,15.010262294921874Q10.357438875,15.038532294921875,10.284989875,15.052942294921875Q10.212540375,15.067352294921875,10.138671875,15.067352294921875Q10.064803375,15.067352294921875,9.992353875,15.052942294921875Q9.919904875,15.038532294921875,9.851658875,15.010262294921874Q9.783413875,14.981992294921875,9.721993875,14.940952294921875Q9.660574875,14.899912294921876,9.608341875,14.847682294921874Q9.556108875,14.795452294921875,9.515069875,14.734032294921874Q9.474030875,14.672612294921874,9.445761875,14.604362294921875Q9.417493875,14.536122294921874,9.403082874999999,14.463672294921874Q9.388671875,14.391222294921874,9.388671875,14.317352294921875L9.388671875,12.317352294921875Z" fill-rule="evenodd" fill="#2882FF" fill-opacity="1"/></g><g transform="matrix(0.7071067690849304,0.7071067690849304,-0.7071067690849304,0.7071067690849304,13.7503398787685,-5.632597025471114)"><path d="M12.92431640625,13.781829833984375Q12.92431640625,13.707961333984375,12.938727406249999,13.635511833984374Q12.95313840625,13.563062833984375,12.98140640625,13.494816833984375Q13.00967540625,13.426571833984376,13.05071440625,13.365151833984376Q13.09175340625,13.303732833984375,13.14398640625,13.251499833984376Q13.19621940625,13.199266833984375,13.25763840625,13.158227833984375Q13.31905840625,13.117188833984375,13.38730340625,13.088919833984376Q13.45554940625,13.060651833984375,13.52799840625,13.046240833984374Q13.60044790625,13.031829833984375,13.67431640625,13.031829833984375Q13.74818490625,13.031829833984375,13.82063440625,13.046240833984374Q13.89308340625,13.060651833984375,13.96132940625,13.088919833984376Q14.02957440625,13.117188833984375,14.09099440625,13.158227833984375Q14.15241340625,13.199266833984375,14.20464640625,13.251499833984376Q14.25687940625,13.303732833984375,14.29791840625,13.365151833984376Q14.33895740625,13.426571833984376,14.36722640625,13.494816833984375Q14.39549440625,13.563062833984375,14.409905406250001,13.635511833984374Q14.42431640625,13.707961333984375,14.42431640625,13.781829833984375L14.42431640625,15.781829833984375Q14.42431640625,15.855699833984374,14.409905406250001,15.928149833984374Q14.39549440625,16.000599833984374,14.36722640625,16.068839833984374Q14.33895740625,16.137089833984376,14.29791840625,16.198509833984374Q14.25687940625,16.259929833984376,14.20464640625,16.312159833984374Q14.15241340625,16.364389833984376,14.09099440625,16.405429833984375Q14.02957440625,16.446469833984374,13.96132940625,16.474739833984376Q13.89308340625,16.503009833984375,13.82063440625,16.517419833984377Q13.74818490625,16.531829833984375,13.67431640625,16.531829833984375Q13.60044790625,16.531829833984375,13.52799840625,16.517419833984377Q13.45554940625,16.503009833984375,13.38730340625,16.474739833984376Q13.31905840625,16.446469833984374,13.25763840625,16.405429833984375Q13.19621940625,16.364389833984376,13.14398640625,16.312159833984374Q13.09175340625,16.259929833984376,13.05071440625,16.198509833984374Q13.00967540625,16.137089833984376,12.98140640625,16.068839833984374Q12.95313840625,16.000599833984374,12.938727406249999,15.928149833984374Q12.92431640625,15.855699833984374,12.92431640625,15.781829833984375L12.92431640625,13.781829833984375Z" fill-rule="evenodd" fill="#2882FF" fill-opacity="1"/></g><g transform="matrix(0,1,-1,0,32.456024169921875,2.178680419921875)"><path d="M14.388671875,17.317352294921875Q14.388671875,17.243483794921875,14.403082874999999,17.171034294921874Q14.417493875,17.098585294921875,14.445761875,17.030339294921873Q14.474030875,16.962094294921876,14.515069875,16.900674294921874Q14.556108875,16.839255294921877,14.608341875,16.787022294921876Q14.660574875,16.734789294921875,14.721993875,16.693750294921877Q14.783413875,16.652711294921875,14.851658875,16.624442294921874Q14.919904875,16.596174294921877,14.992353875,16.581763294921874Q15.064803375,16.567352294921875,15.138671875,16.567352294921875Q15.212540375,16.567352294921875,15.284989875,16.581763294921874Q15.357438875,16.596174294921877,15.425684875,16.624442294921874Q15.493929875,16.652711294921875,15.555349875,16.693750294921877Q15.616768875,16.734789294921875,15.669001875,16.787022294921876Q15.721234875,16.839255294921877,15.762273875,16.900674294921874Q15.803312875,16.962094294921876,15.831581875,17.030339294921873Q15.859849875,17.098585294921875,15.874260875000001,17.171034294921874Q15.888671875,17.243483794921875,15.888671875,17.317352294921875L15.888671875,19.317352294921875Q15.888671875,19.391222294921874,15.874260875000001,19.463672294921874Q15.859849875,19.536122294921874,15.831581875,19.604362294921874Q15.803312875,19.672612294921876,15.762273875,19.734032294921874Q15.721234875,19.795452294921876,15.669001875,19.847682294921874Q15.616768875,19.899912294921876,15.555349875,19.940952294921875Q15.493929875,19.981992294921874,15.425684875,20.010262294921876Q15.357438875,20.038532294921875,15.284989875,20.052942294921877Q15.212540375,20.067352294921875,15.138671875,20.067352294921875Q15.064803375,20.067352294921875,14.992353875,20.052942294921877Q14.919904875,20.038532294921875,14.851658875,20.010262294921876Q14.783413875,19.981992294921874,14.721993875,19.940952294921875Q14.660574875,19.899912294921876,14.608341875,19.847682294921874Q14.556108875,19.795452294921876,14.515069875,19.734032294921874Q14.474030875,19.672612294921876,14.445761875,19.604362294921874Q14.417493875,19.536122294921874,14.403082874999999,19.463672294921874Q14.388671875,19.391222294921874,14.388671875,19.317352294921875L14.388671875,17.317352294921875Z" fill-rule="evenodd" fill="#2882FF" fill-opacity="1"/></g><g transform="matrix(0,-1,1,0,-12.178619384765625,22.455963134765625)"><path d="M4.388671875,17.317291259765625Q4.388671875,17.243422759765625,4.403082875,17.170973259765624Q4.417493875,17.098524259765625,4.445761875,17.030278259765623Q4.474030875,16.962033259765626,4.515069875,16.900613259765624Q4.556108875,16.839194259765627,4.608341875,16.786961259765626Q4.660574875,16.734728259765625,4.721993875,16.693689259765627Q4.783413875,16.652650259765625,4.851658875,16.624381259765624Q4.919904875,16.596113259765627,4.992353875,16.581702259765624Q5.064803375,16.567291259765625,5.138671875,16.567291259765625Q5.212540375,16.567291259765625,5.284989875,16.581702259765624Q5.357438875,16.596113259765627,5.425684875,16.624381259765624Q5.493929875,16.652650259765625,5.555349875,16.693689259765627Q5.616768875,16.734728259765625,5.669001875,16.786961259765626Q5.721234875,16.839194259765627,5.762273875,16.900613259765624Q5.803312875,16.962033259765626,5.831581875,17.030278259765623Q5.859849875,17.098524259765625,5.874260875,17.170973259765624Q5.888671875,17.243422759765625,5.888671875,17.317291259765625L5.888671875,19.317291259765625Q5.888671875,19.391161259765624,5.874260875,19.463611259765624Q5.859849875,19.536061259765624,5.831581875,19.604301259765624Q5.803312875,19.672551259765626,5.762273875,19.733971259765624Q5.721234875,19.795391259765626,5.669001875,19.847621259765624Q5.616768875,19.899851259765626,5.555349875,19.940891259765625Q5.493929875,19.981931259765624,5.425684875,20.010201259765626Q5.357438875,20.038471259765625,5.284989875,20.052881259765627Q5.212540375,20.067291259765625,5.138671875,20.067291259765625Q5.064803375,20.067291259765625,4.992353875,20.052881259765627Q4.919904875,20.038471259765625,4.851658875,20.010201259765626Q4.783413875,19.981931259765624,4.721993875,19.940891259765625Q4.660574875,19.899851259765626,4.608341875,19.847621259765624Q4.556108875,19.795391259765626,4.515069875,19.733971259765624Q4.474030875,19.672551259765626,4.445761875,19.604301259765624Q4.417493875,19.536061259765624,4.403082875,19.463611259765624Q4.388671875,19.391161259765624,4.388671875,19.317291259765625L4.388671875,17.317291259765625Z" fill-rule="evenodd" fill="#2882FF" fill-opacity="1"/></g><g transform="matrix(0.7071066498756409,-0.70710688829422,0.70710688829422,0.7071066498756409,-7.811208255652673,8.70573874603906)"><path d="M5.8531494140625,13.781829833984375Q5.8531494140625,13.707961333984375,5.8675604140625,13.635511833984374Q5.8819714140625,13.563062833984375,5.9102394140625,13.494816833984375Q5.9385084140625,13.426571833984376,5.9795474140625,13.365151833984376Q6.0205864140625,13.303732833984375,6.0728194140625,13.251499833984376Q6.1250524140625,13.199266833984375,6.1864714140625,13.158227833984375Q6.2478914140625,13.117188833984375,6.3161364140625,13.088919833984376Q6.3843824140625,13.060651833984375,6.4568314140625,13.046240833984374Q6.5292809140625,13.031829833984375,6.6031494140625,13.031829833984375Q6.6770179140625,13.031829833984375,6.7494674140625,13.046240833984374Q6.8219164140625,13.060651833984375,6.8901624140625,13.088919833984376Q6.9584074140625,13.117188833984375,7.0198274140625,13.158227833984375Q7.0812464140625,13.199266833984375,7.1334794140625,13.251499833984376Q7.1857124140625,13.303732833984375,7.2267514140625,13.365151833984376Q7.2677904140625,13.426571833984376,7.2960594140625,13.494816833984375Q7.3243274140625,13.563062833984375,7.3387384140625,13.635511833984374Q7.3531494140625,13.707961333984375,7.3531494140625,13.781829833984375L7.3531494140625,15.781829833984375Q7.3531494140625,15.855699833984374,7.3387384140625,15.928149833984374Q7.3243274140625,16.000599833984374,7.2960594140625,16.068839833984374Q7.2677904140625,16.137089833984376,7.2267514140625,16.198509833984374Q7.1857124140625,16.259929833984376,7.1334794140625,16.312159833984374Q7.0812464140625,16.364389833984376,7.0198274140625,16.405429833984375Q6.9584074140625,16.446469833984374,6.8901624140625,16.474739833984376Q6.8219164140625,16.503009833984375,6.7494674140625,16.517419833984377Q6.6770179140625,16.531829833984375,6.6031494140625,16.531829833984375Q6.5292809140625,16.531829833984375,6.4568314140625,16.517419833984377Q6.3843824140625,16.503009833984375,6.3161364140625,16.474739833984376Q6.2478914140625,16.446469833984374,6.1864714140625,16.405429833984375Q6.1250524140625,16.364389833984376,6.0728194140625,16.312159833984374Q6.0205864140625,16.259929833984376,5.9795474140625,16.198509833984374Q5.9385084140625,16.137089833984376,5.9102394140625,16.068839833984374Q5.8819714140625,16.000599833984374,5.8675604140625,15.928149833984374Q5.8531494140625,15.855699833984374,5.8531494140625,15.781829833984375L5.8531494140625,13.781829833984375Z" fill-rule="evenodd" fill="#2882FF" fill-opacity="1"/></g></g></g></svg>