<svg xmlns="http://www.w3.org/2000/svg" xmlns:xlink="http://www.w3.org/1999/xlink" fill="none" version="1.1" width="24" height="24" viewBox="0 0 24 24"><defs><clipPath id="master_svg0_48_02113"><rect x="0" y="0" width="24" height="24" rx="0"/></clipPath></defs><g clip-path="url(#master_svg0_48_02113)"><g><path d="M6.25,16Q6.25,15.9261315,6.264411,15.853682Q6.278822,15.781233,6.30709,15.712987Q6.335359,15.644742,6.376398,15.583322Q6.417437,15.521903,6.46967,15.46967Q6.521903,15.417437,6.583322,15.376398Q6.644742,15.335359,6.712987,15.30709Q6.781233,15.278822,6.853682,15.264410999999999Q6.9261315,15.25,7,15.25Q7.0738685,15.25,7.146318,15.264410999999999Q7.218767,15.278822,7.287013,15.30709Q7.355258,15.335359,7.416678,15.376398Q7.478097,15.417437,7.53033,15.46967Q7.582563,15.521903,7.623602,15.583322Q7.664641,15.644742,7.69291,15.712987Q7.721178,15.781233,7.735589,15.853682Q7.75,15.9261315,7.75,16L7.75,21Q7.75,21.07387,7.735589,21.14632Q7.721178,21.21877,7.69291,21.287010000000002Q7.664641,21.35526,7.623602,21.41668Q7.582563,21.4781,7.53033,21.53033Q7.478097,21.58256,7.416678,21.6236Q7.355258,21.66464,7.287013,21.69291Q7.218767,21.72118,7.146318,21.735590000000002Q7.0738685,21.75,7,21.75Q6.9261315,21.75,6.853682,21.735590000000002Q6.781233,21.72118,6.712987,21.69291Q6.644742,21.66464,6.583322,21.6236Q6.521903,21.58256,6.46967,21.53033Q6.417437,21.4781,6.376398,21.41668Q6.335359,21.35526,6.30709,21.287010000000002Q6.278822,21.21877,6.264411,21.14632Q6.25,21.07387,6.25,21L6.25,16Z" fill-rule="evenodd" fill="#231F2E" fill-opacity="1"/></g><g><path d="M6.25,3Q6.25,2.9261315,6.264411,2.853682Q6.278822,2.781233,6.30709,2.712987Q6.335359,2.644742,6.376398,2.583322Q6.417437,2.521903,6.46967,2.46967Q6.521903,2.417437,6.583322,2.376398Q6.644742,2.335359,6.712987,2.30709Q6.781233,2.278822,6.853682,2.264411Q6.9261315,2.25,7,2.25Q7.0738685,2.25,7.146318,2.264411Q7.218767,2.278822,7.287013,2.30709Q7.355258,2.335359,7.416678,2.376398Q7.478097,2.417437,7.53033,2.46967Q7.582563,2.521903,7.623602,2.583322Q7.664641,2.644742,7.69291,2.712987Q7.721178,2.781233,7.735589,2.853682Q7.75,2.9261315,7.75,3L7.75,6Q7.75,6.073869999999999,7.735589,6.146319999999999Q7.721178,6.21877,7.69291,6.28701Q7.664641,6.3552599999999995,7.623602,6.4166799999999995Q7.582563,6.4780999999999995,7.53033,6.53033Q7.478097,6.58256,7.416678,6.6236Q7.355258,6.66464,7.287013,6.6929099999999995Q7.218767,6.72118,7.146318,6.73559Q7.0738685,6.75,7,6.75Q6.9261315,6.75,6.853682,6.73559Q6.781233,6.72118,6.712987,6.6929099999999995Q6.644742,6.66464,6.583322,6.6236Q6.521903,6.58256,6.46967,6.53033Q6.417437,6.4780999999999995,6.376398,6.4166799999999995Q6.335359,6.3552599999999995,6.30709,6.28701Q6.278822,6.21877,6.264411,6.146319999999999Q6.25,6.073869999999999,6.25,6L6.25,3Z" fill-rule="evenodd" fill="#231F2E" fill-opacity="1"/></g><g transform="matrix(1,0,0,-1,0,22)"><path d="M12,10.25L20,10.25Q20.07387,10.25,20.14632,10.264410999999999Q20.21877,10.278822,20.287010000000002,10.30709Q20.35526,10.335359,20.41668,10.376398Q20.478099999999998,10.417437,20.53033,10.46967Q20.58256,10.521903,20.6236,10.583322Q20.66464,10.644742,20.692909999999998,10.712987Q20.72118,10.781233,20.735590000000002,10.853682Q20.75,10.9261315,20.75,11Q20.75,11.0738685,20.735590000000002,11.146318Q20.72118,11.218767,20.692909999999998,11.287013Q20.66464,11.355258,20.6236,11.416678Q20.58256,11.478097,20.53033,11.53033Q20.478099999999998,11.582563,20.41668,11.623602Q20.35526,11.664641,20.287010000000002,11.69291Q20.21877,11.721178,20.14632,11.735589000000001Q20.07387,11.75,20,11.75L12,11.75Q11.9261315,11.75,11.853682,11.735589000000001Q11.781233,11.721178,11.712987,11.69291Q11.644742,11.664641,11.583322,11.623602Q11.521903,11.582563,11.46967,11.53033Q11.417437,11.478097,11.376398,11.416678Q11.335359,11.355258,11.30709,11.287013Q11.278822,11.218767,11.264410999999999,11.146318Q11.25,11.0738685,11.25,11Q11.25,10.9261315,11.264410999999999,10.853682Q11.278822,10.781233,11.30709,10.712987Q11.335359,10.644742,11.376398,10.583322Q11.417437,10.521903,11.46967,10.46967Q11.521903,10.417437,11.583322,10.376398Q11.644742,10.335359,11.712987,10.30709Q11.781233,10.278822,11.853682,10.264410999999999Q11.9261315,10.25,12,10.25Z" fill-rule="evenodd" fill="#231F2E" fill-opacity="1"/></g><g><path d="M8.9494228125,9.0554559Q8.1439728125,8.25,7.0048828125,8.25Q5.8657958125,8.25,5.0603393125,9.0554559Q4.2548828125,9.860912,4.2548828125,11Q4.2548828125,12.13909,5.0603393125,12.94454Q5.8657958125,13.75,7.0048828125,13.75Q8.1439728125,13.75,8.9494228125,12.94454Q9.7548828125,12.13909,9.7548828125,11Q9.7548828125,9.860912,8.9494228125,9.0554559ZM6.1210028125000004,10.11612Q6.4871128124999995,9.75,7.0048828125,9.75Q7.5226528125000005,9.75,7.8887628124999996,10.11612Q8.2548828125,10.48223,8.2548828125,11Q8.2548828125,11.51777,7.8887628124999996,11.88388Q7.5226528125000005,12.25,7.0048828125,12.25Q6.4871128124999995,12.25,6.1210028125000004,11.88388Q5.7548828125,11.51777,5.7548828125,11Q5.7548828125,10.48223,6.1210028125000004,10.11612Z" fill-rule="evenodd" fill="#2882FF" fill-opacity="1"/></g><g><path d="M4.5304839999999995,17.469824L7,19.93934L9.46921,17.470132L9.46967,17.46967Q9.57516,17.364181,9.71299,17.30709Q9.850819999999999,17.25,10,17.25Q10.07387,17.25,10.14632,17.264411Q10.21877,17.278822,10.28701,17.30709Q10.355260000000001,17.335359,10.41668,17.376398000000002Q10.478100000000001,17.417437,10.53033,17.46967Q10.58256,17.521903000000002,10.6236,17.583322Q10.66464,17.644742,10.692910000000001,17.712987Q10.72118,17.781233,10.73559,17.853682Q10.75,17.9261315,10.75,18Q10.75,18.149184,10.692910000000001,18.287013Q10.635819999999999,18.424841,10.53033,18.53033L10.529869999999999,18.530792L7.53033,21.53033Q7.42484,21.63582,7.28701,21.69291Q7.149179999999999,21.75,7,21.75Q6.850820000000001,21.75,6.71299,21.69291Q6.57516,21.63582,6.46967,21.53033L3.46967,18.53033Q3.364181,18.424841,3.30709,18.287013Q3.25,18.149184,3.25,18Q3.25,17.9261315,3.264411,17.853682Q3.278822,17.781233,3.30709,17.712987Q3.335359,17.644742,3.376398,17.583322Q3.417437,17.521903000000002,3.46967,17.46967Q3.521903,17.417437,3.583322,17.376398000000002Q3.644742,17.335359,3.712987,17.30709Q3.781233,17.278822,3.853682,17.264411Q3.9261315,17.25,4,17.25Q4.149184,17.25,4.287013,17.30709Q4.424841,17.364181,4.53033,17.46967L4.5304839999999995,17.469824Z" fill-rule="evenodd" fill="#231F2E" fill-opacity="1"/></g><g><path d="M17.530484,7.469824L20.53033,10.46967Q20.63582,10.57516,20.69291,10.71299Q20.75,10.85082,20.75,11Q20.75,11.14918,20.69291,11.28701Q20.63582,11.42484,20.53033,11.53033L17.530792,14.529869999999999L17.53033,14.53033Q17.424841,14.635819999999999,17.287013,14.692910000000001Q17.149184,14.75,17,14.75Q16.9261315,14.75,16.853682,14.73559Q16.781233,14.72118,16.712987,14.692910000000001Q16.644742,14.66464,16.583322,14.6236Q16.521903000000002,14.58256,16.46967,14.53033Q16.417437,14.478100000000001,16.376398000000002,14.41668Q16.335359,14.355260000000001,16.30709,14.28701Q16.278822,14.21877,16.264411,14.14632Q16.25,14.07387,16.25,14Q16.25,13.850819999999999,16.30709,13.71299Q16.364181,13.57516,16.46967,13.46967L16.470132,13.46921L18.93934,11L16.469824,8.530484L16.46967,8.53033Q16.364181,8.424841,16.30709,8.287013Q16.25,8.149184,16.25,8Q16.25,7.9261315,16.264411,7.853682Q16.278822,7.781233,16.30709,7.712987Q16.335359,7.644742,16.376398000000002,7.583322Q16.417437,7.521903,16.46967,7.46967Q16.521903000000002,7.417437,16.583322,7.376398Q16.644742,7.335359,16.712987,7.30709Q16.781233,7.278822,16.853682,7.264411Q16.9261315,7.25,17,7.25Q17.149184,7.25,17.287013,7.30709Q17.424841,7.364181,17.53033,7.46967L17.530484,7.469824Z" fill-rule="evenodd" fill="#231F2E" fill-opacity="1"/></g></g></svg>