<svg xmlns="http://www.w3.org/2000/svg" xmlns:xlink="http://www.w3.org/1999/xlink" fill="none" version="1.1" width="24" height="24" viewBox="0 0 24 24"><defs><clipPath id="master_svg0_58_01557"><rect x="0" y="0" width="24" height="24" rx="0"/></clipPath></defs><g clip-path="url(#master_svg0_58_01557)"><g><path d="M20.249984741210938,9L20.249984741210938,14.24999Q20.249984741210938,14.32386,20.264384741210936,14.39631Q20.278784741210938,14.46876,20.307084741210936,14.53701Q20.335384741210937,14.60525,20.376384741210938,14.66667Q20.417384741210938,14.72809,20.469684741210937,14.78032Q20.521884741210936,14.83256,20.58328474121094,14.8736Q20.644784741210938,14.914629999999999,20.71298474121094,14.9429Q20.781184741210936,14.97117,20.853684741210937,14.985579999999999Q20.92608474121094,14.99999,20.999984741210938,14.99999Q21.073884741210936,14.99999,21.146284741210938,14.985579999999999Q21.21878474121094,14.97117,21.286984741210937,14.9429Q21.355284741210937,14.914629999999999,21.416684741210936,14.8736Q21.47808474121094,14.83256,21.530284741210938,14.78032Q21.582584741210937,14.72809,21.623584741210937,14.66667Q21.664584741210938,14.60525,21.69288474121094,14.53701Q21.721184741210937,14.46876,21.73558474121094,14.39631Q21.749984741210938,14.32386,21.749984741210938,14.24999L21.749984741210938,8.25Q21.749984741210938,8.1761315,21.73558474121094,8.103682Q21.721184741210937,8.031233,21.69288474121094,7.962987Q21.664584741210938,7.894742,21.623584741210937,7.833322Q21.582584741210937,7.771903,21.530284741210938,7.71967Q21.47808474121094,7.667437,21.416684741210936,7.626398Q21.355284741210937,7.585359,21.286984741210937,7.55709Q21.21878474121094,7.528822,21.146284741210938,7.514411Q21.073884741210936,7.5,20.999984741210938,7.5L3.0000000000109375,7.5Q2.9261315412109377,7.5,2.8536827412109376,7.514411Q2.7812337412109374,7.528822,2.7129877412109376,7.55709Q2.6447417412109377,7.585359,2.5833227412109374,7.626398Q2.5219027412109374,7.667437,2.4696707412109378,7.71967Q2.4174377412109376,7.771903,2.3763977412109374,7.833322Q2.3353587412109373,7.894742,2.3070907412109376,7.962987Q2.2788227412109374,8.031233,2.2644107412109378,8.103682Q2.2499997412109374,8.1761314,2.2499997412109374,8.25L2.2499887412109376,17.24999Q2.2499867412109373,18.8033,3.3483347412109374,19.901600000000002Q4.446684741210937,21,5.9999847412109375,21L13.999984741210938,21Q14.073884741210938,21,14.146284741210938,20.985599999999998Q14.218784741210937,20.9712,14.286984741210938,20.9429Q14.355284741210937,20.9146,14.416684741210938,20.8736Q14.478084741210937,20.8326,14.530284741210938,20.7803Q14.582584741210937,20.728099999999998,14.623584741210937,20.6667Q14.664584741210938,20.6053,14.692884741210937,20.537Q14.721184741210937,20.4688,14.735584741210937,20.3963Q14.749984741210938,20.323900000000002,14.749984741210938,20.25Q14.749984741210938,20.176099999999998,14.735584741210937,20.1037Q14.721184741210937,20.0312,14.692884741210937,19.963Q14.664584741210938,19.8947,14.623584741210937,19.8333Q14.582584741210937,19.771900000000002,14.530284741210938,19.7197Q14.478084741210937,19.6674,14.416684741210938,19.6264Q14.355284741210937,19.5854,14.286984741210938,19.5571Q14.218784741210937,19.5288,14.146284741210938,19.514400000000002Q14.073884741210938,19.5,13.999984741210938,19.5L5.9999847412109375,19.5Q5.068004741210938,19.5,4.408994741210938,18.841Q3.7499877412109375,18.18197,3.7499887412109376,17.24999L3.7499987412109377,9L20.249984741210938,9Z" fill-rule="evenodd" fill="#231F2E" fill-opacity="1"/></g><g><path d="M2.25,6.75Q2.25,5.1967,3.34835,4.09835Q4.4467,3.00000488758,6,3.00000435114L18,3Q19.5534,3,20.6535,4.10792Q21.75,5.21217,21.75,6.76539L21.75,8.25001C21.75,8.66423,21.4142,9.00001,21,9.00001L3,9.00001C2.585786,9.00001,2.25,8.66423,2.25,8.25001L2.25,6.75ZM4.5,6L4.5,6.008C4.5,6.42221,4.835789999999999,6.758,5.25,6.758L5.258,6.758C5.67221,6.758,6.008,6.42221,6.008,6.008L6.008,6C6.008,5.585789999999999,5.67221,5.25,5.258,5.25L5.25,5.25C4.835789999999999,5.25,4.5,5.585789999999999,4.5,6ZM6.75,6L6.75,6.008C6.75,6.42221,7.08579,6.758,7.5,6.758L7.508,6.758C7.92221,6.758,8.258,6.42221,8.258,6.008L8.258,6C8.258,5.585789999999999,7.92221,5.25,7.508,5.25L7.5,5.25C7.08579,5.25,6.75,5.585789999999999,6.75,6ZM10.508,6.008L10.508,6C10.508,5.585789999999999,10.17221,5.25,9.758,5.25L9.75,5.25C9.33579,5.25,9,5.585789999999999,9,6L9,6.008C9,6.42221,9.33579,6.758,9.75,6.758L9.758,6.758C10.17221,6.758,10.508,6.42221,10.508,6.008Z" fill-rule="evenodd" fill="#231F2E" fill-opacity="1"/></g><g><path d="M14.5,14.5L16.5,14.5Q16.549239999999998,14.5,16.597540000000002,14.49039Q16.64584,14.48078,16.69134,14.46194Q16.73684,14.44309,16.77778,14.41573Q16.818730000000002,14.38838,16.85355,14.35355Q16.888370000000002,14.31873,16.91573,14.27778Q16.943089999999998,14.23684,16.96194,14.19134Q16.98078,14.14584,16.990389999999998,14.09754Q17,14.04925,17,14Q17,13.95075,16.990389999999998,13.90245Q16.98078,13.85415,16.96194,13.80866Q16.943089999999998,13.76316,16.91573,13.72221Q16.888370000000002,13.68127,16.85355,13.64645Q16.818730000000002,13.61162,16.77778,13.58426Q16.73684,13.55691,16.69134,13.53806Q16.64584,13.519210000000001,16.597540000000002,13.50961Q16.549239999999998,13.5,16.5,13.5L14.829699999999999,13.5L13.45957,10.30304Q13.420390000000001,10.211626,13.349219999999999,10.142162Q13.27804,10.072699,13.185690000000001,10.035762Q13.093350000000001,9.998825,12.9939,10.000037Q12.894449999999999,10.00125,12.80304,10.040428Q12.699349999999999,10.084865,12.62479,10.169518Q12.550229999999999,10.254172,12.51924,10.362639L10.90559,16.01041L9.95957,13.80304Q9.93066,13.73558,9.88359,13.67928Q9.83651,13.62298,9.77525,13.58258Q9.71398,13.54218,9.64368,13.521090000000001Q9.57339,13.5,9.5,13.5L7.5,13.5Q7.4507543,13.5,7.4024549,13.50961Q7.354155,13.519210000000001,7.308658,13.53806Q7.263161,13.55691,7.222215,13.58426Q7.181269,13.61162,7.146447,13.64645Q7.111625,13.68127,7.084265,13.72221Q7.056906,13.76316,7.03806,13.80866Q7.019215,13.85415,7.009607,13.90245Q7,13.95075,7,14Q7,14.04925,7.009607,14.09754Q7.019215,14.14584,7.03806,14.19134Q7.056906,14.23684,7.084265,14.27778Q7.111625,14.31873,7.146447,14.35355Q7.181269,14.38838,7.222215,14.41573Q7.263161,14.44309,7.308658,14.46194Q7.354155,14.48078,7.4024549,14.49039Q7.4507543,14.5,7.5,14.5L9.1703,14.5L10.54043,17.69696Q10.584859999999999,17.80065,10.66952,17.87521Q10.75417,17.94977,10.862639999999999,17.98076Q10.90999,17.99429,10.95907,17.99832Q11.00815,18.00235,11.05707,17.99673Q11.106,17.99111,11.15289,17.97605Q11.199770000000001,17.96099,11.24282,17.93708Q11.28587,17.91316,11.32342,17.88131Q11.36098,17.84945,11.3916,17.81088Q11.42222,17.77231,11.44473,17.72851Q11.46723,17.68471,11.48076,17.63736L13.09441,11.98959L14.04043,14.19696Q14.06934,14.26441,14.11641,14.32072Q14.16349,14.37702,14.22476,14.41742Q14.28602,14.45782,14.35632,14.478909999999999Q14.42661,14.5,14.5,14.5Z" fill-rule="evenodd" fill="#2882FF" fill-opacity="1"/></g><g><path d="M18.236645390625,16L18.186865390625,16.00165942C17.840495390625,16.0277107,17.572785390625,16.316403,17.572895390625,16.663754L17.572895390625,18.98656L16.714657390625,18.98689C16.446237390625,18.98695,16.204274390625,19.14867,16.101562090625,19.39666C15.998850090625,19.64465,16.055610560625,19.93009,16.245383390625,20.11992L18.431125390625,22.30566C18.690325390625,22.56478,19.110475390625,22.56478,19.369675390624998,22.30566L21.555415390625,20.11992C21.745355390625,19.9301,21.802205390624998,19.64453,21.699445390625,19.39643L21.676875390625,19.34831C21.563305390625,19.12646,21.335175390625,18.98689,21.086135390625,18.98689L20.227905390625,18.98656L20.227905390625,16.663754C20.227905390625,16.297173,19.930735390625,16.000000158251,19.564155390625,16.000000158251L18.236645390625,16Z" fill="#2882FF" fill-opacity="1"/></g></g></svg>