<svg xmlns="http://www.w3.org/2000/svg" xmlns:xlink="http://www.w3.org/1999/xlink" fill="none" version="1.1" width="24" height="24" viewBox="0 0 24 24"><defs><clipPath id="master_svg0_48_02129"><rect x="0" y="0" width="24" height="24" rx="0"/></clipPath></defs><g clip-path="url(#master_svg0_48_02129)"><g transform="matrix(0,1,-1,0,21.535125732421875,-2.464874267578125)"><path d="M12,8.785125732421875L12.724701,8.785125732421875Q13.88836,8.785125732421875,14.90633,9.481218632421875Q15.88478,10.150289732421875,16.50583,11.315315732421874L16.897199999999998,12.049205732421875Q17.34505,12.889455732421876,18.01965,13.350745732421874Q18.65478,13.785055732421874,19.35479,13.785125732421875L23.4648,13.785125732421875Q23.5387,13.785125732421875,23.6111,13.799535732421875Q23.683500000000002,13.813945732421875,23.7518,13.842215732421874Q23.82,13.870485732421875,23.881500000000003,13.911525732421875Q23.9429,13.952565732421874,23.9951,14.004795732421876Q24.0473,14.057025732421874,24.0884,14.118445732421876Q24.1294,14.179865732421874,24.1577,14.248115732421875Q24.186,14.316355732421876,24.200400000000002,14.388805732421876Q24.2148,14.461255732421876,24.2148,14.535125732421875Q24.2148,14.608995732421874,24.200400000000002,14.681445732421874Q24.186,14.753895732421874,24.1577,14.822135732421875Q24.1294,14.890385732421876,24.0884,14.951805732421874Q24.0473,15.013225732421876,23.9951,15.065455732421874Q23.9429,15.117685732421876,23.881500000000003,15.158725732421875Q23.82,15.199765732421875,23.7518,15.228035732421876Q23.683500000000002,15.256305732421875,23.6111,15.270715732421875Q23.5387,15.285125732421875,23.4648,15.285125732421875L19.35465,15.285125732421875Q18.19089,15.285015732421876,17.17296,14.588945732421875Q16.194490000000002,13.919855732421876,15.57365,12.755045732421875L15.18216,12.020935732421876Q14.73425,11.180715732421875,14.05964,10.719415732421876Q13.42454,10.285125732421875,12.724701,10.285125732421875L12,10.285125732421875Q11.9261315,10.285125732421875,11.853682,10.270714732421876Q11.781233,10.256303732421875,11.712987,10.228035732421874Q11.644742,10.199766732421875,11.583322,10.158727732421875Q11.521903,10.117688732421875,11.46967,10.065455732421874Q11.417437,10.013222732421875,11.376398,9.951803732421874Q11.335359,9.890383732421874,11.30709,9.822138732421875Q11.278822,9.753892732421875,11.264410999999999,9.681443732421876Q11.25,9.608994232421875,11.25,9.535125732421875Q11.25,9.461257232421875,11.264410999999999,9.388807732421874Q11.278822,9.316358732421875,11.30709,9.248112732421875Q11.335359,9.179867732421876,11.376398,9.118447732421876Q11.417437,9.057028732421875,11.46967,9.004795732421876Q11.521903,8.952562732421875,11.583322,8.911523732421875Q11.644742,8.870484732421875,11.712987,8.842215732421876Q11.781233,8.813947732421875,11.853682,8.799536732421874Q11.9261315,8.785125732421875,12,8.785125732421875Z" fill-rule="evenodd" fill="#231F2E" fill-opacity="1"/></g><g transform="matrix(0,1,-1,0,26.535125732421875,-7.464874267578125)"><path d="M17.726986,13.785125732421875L17,13.785125732421875Q16.9261315,13.785125732421875,16.853682,13.799535732421875Q16.781233,13.813945732421875,16.712987,13.842215732421874Q16.644742,13.870485732421875,16.583322,13.911525732421875Q16.521903000000002,13.952565732421874,16.46967,14.004795732421876Q16.417437,14.057025732421874,16.376398000000002,14.118445732421876Q16.335359,14.179865732421874,16.30709,14.248115732421875Q16.278822,14.316355732421876,16.264411,14.388805732421876Q16.25,14.461255732421876,16.25,14.535125732421875Q16.25,14.608995732421874,16.264411,14.681445732421874Q16.278822,14.753895732421874,16.30709,14.822135732421875Q16.335359,14.890385732421876,16.376398000000002,14.951805732421874Q16.417437,15.013225732421876,16.46967,15.065455732421874Q16.521903000000002,15.117685732421876,16.583322,15.158725732421875Q16.644742,15.199765732421875,16.712987,15.228035732421876Q16.781233,15.256305732421875,16.853682,15.270715732421875Q16.9261315,15.285125732421875,17,15.285125732421875L17.726986,15.285125732421875Q18.89105,15.285125732421875,19.90932,14.588335732421875Q20.88799,13.918645732421876,21.509,12.752695732421875L21.89755,12.022395732421876Q22.34521,11.181625732421875,23.020220000000002,10.719835732421874Q23.65572,10.285084732421875,24.3562,10.285125732421875L28.4648,10.285125732421875Q28.5387,10.285125732421875,28.6111,10.270714732421876Q28.683500000000002,10.256303732421875,28.7518,10.228035732421874Q28.82,10.199766732421875,28.881500000000003,10.158727732421875Q28.9429,10.117688732421875,28.9951,10.065455732421874Q29.0473,10.013222732421875,29.0884,9.951803732421874Q29.1294,9.890383732421874,29.1577,9.822138732421875Q29.186,9.753892732421875,29.200400000000002,9.681443732421876Q29.2148,9.608994232421875,29.2148,9.535125732421875Q29.2148,9.461257232421875,29.200400000000002,9.388807732421874Q29.186,9.316358732421875,29.1577,9.248112732421875Q29.1294,9.179867732421876,29.0884,9.118447732421876Q29.0473,9.057028732421875,28.9951,9.004795732421876Q28.9429,8.952562732421875,28.881500000000003,8.911523732421875Q28.82,8.870484732421875,28.7518,8.842215732421876Q28.683500000000002,8.813947732421875,28.6111,8.799536732421874Q28.5387,8.785125732421875,28.4648,8.785125732421875L24.35629,8.785125732421875Q23.191769999999998,8.785057732421874,22.17327,9.481825332421876Q21.19429,10.151564732421875,20.57331,11.317855732421876L20.18508,12.047555732421875Q19.73712,12.888605732421874,19.06224,13.350415732421876Q18.42696,13.785125732421875,17.726986,13.785125732421875Z" fill-rule="evenodd" fill="#231F2E" fill-opacity="1"/></g><g transform="matrix(0,1,-1,0,37.999908447265625,-2.000091552734375)"><path d="M20.530484,17.469732447265624L23.53033,20.469578447265626Q23.63582,20.575068447265625,23.69291,20.712898447265626Q23.75,20.850728447265624,23.75,20.999908447265625Q23.75,21.149088447265626,23.69291,21.286918447265624Q23.63582,21.424748447265625,23.53033,21.530238447265624L20.530792,24.529778447265624L20.53033,24.530238447265624Q20.424841,24.635728447265624,20.287013,24.692818447265626Q20.149184,24.749908447265625,20,24.749908447265625Q19.9261315,24.749908447265625,19.853682,24.735498447265627Q19.781233,24.721088447265625,19.712987,24.692818447265626Q19.644742,24.664548447265624,19.583322,24.623508447265625Q19.521903000000002,24.582468447265626,19.46967,24.530238447265624Q19.417437,24.478008447265626,19.376398000000002,24.416588447265624Q19.335359,24.355168447265626,19.30709,24.286918447265627Q19.278822,24.218678447265624,19.264411,24.146228447265624Q19.25,24.073778447265624,19.25,23.999908447265625Q19.25,23.850728447265624,19.30709,23.712898447265623Q19.364181,23.575068447265625,19.46967,23.469578447265626L19.470132,23.469118447265625L21.93934,20.999908447265625L19.469824,18.530392447265626L19.46967,18.530238447265624Q19.364181,18.424749447265626,19.30709,18.286921447265627Q19.25,18.149092447265627,19.25,17.999908447265625Q19.25,17.926039947265625,19.264411,17.853590447265624Q19.278822,17.781141447265625,19.30709,17.712895447265623Q19.335359,17.644650447265626,19.376398000000002,17.583230447265624Q19.417437,17.521811447265627,19.46967,17.469578447265626Q19.521903000000002,17.417345447265625,19.583322,17.376306447265627Q19.644742,17.335267447265625,19.712987,17.306998447265624Q19.781233,17.278730447265627,19.853682,17.264319447265624Q19.9261315,17.249908447265625,20,17.249908447265625Q20.149184,17.249908447265625,20.287013,17.306998447265624Q20.424841,17.364089447265624,20.53033,17.469578447265626L20.530484,17.469732447265624Z" fill-rule="evenodd" fill="#231F2E" fill-opacity="1"/></g><g transform="matrix(0,1,-1,0,27.999908447265625,7.999908447265625)"><path d="M10.530484,17.469732447265624L13.53033,20.469578447265626Q13.635819999999999,20.575068447265625,13.69291,20.712898447265626Q13.75,20.850728447265624,13.75,20.999908447265625Q13.75,21.149088447265626,13.69291,21.286918447265624Q13.635819999999999,21.424748447265625,13.53033,21.530238447265624L10.530792,24.529778447265624L10.53033,24.530238447265624Q10.424841,24.635728447265624,10.287013,24.692818447265626Q10.149184,24.749908447265625,10,24.749908447265625Q9.9261315,24.749908447265625,9.853682,24.735498447265627Q9.781233,24.721088447265625,9.712987,24.692818447265626Q9.644742,24.664548447265624,9.583322,24.623508447265625Q9.521903,24.582468447265626,9.46967,24.530238447265624Q9.417437,24.478008447265626,9.376398,24.416588447265624Q9.335359,24.355168447265626,9.30709,24.286918447265627Q9.278822,24.218678447265624,9.264410999999999,24.146228447265624Q9.25,24.073778447265624,9.25,23.999908447265625Q9.25,23.850728447265624,9.30709,23.712898447265623Q9.364181,23.575068447265625,9.46967,23.469578447265626L9.470132,23.469118447265625L11.93934,20.999908447265625L9.469824,18.530392447265626L9.46967,18.530238447265624Q9.364181,18.424749447265626,9.30709,18.286921447265627Q9.25,18.149092447265627,9.25,17.999908447265625Q9.25,17.926039947265625,9.264410999999999,17.853590447265624Q9.278822,17.781141447265625,9.30709,17.712895447265623Q9.335359,17.644650447265626,9.376398,17.583230447265624Q9.417437,17.521811447265627,9.46967,17.469578447265626Q9.521903,17.417345447265625,9.583322,17.376306447265627Q9.644742,17.335267447265625,9.712987,17.306998447265624Q9.781233,17.278730447265627,9.853682,17.264319447265624Q9.9261315,17.249908447265625,10,17.249908447265625Q10.149184,17.249908447265625,10.287013,17.306998447265624Q10.424841,17.364089447265624,10.53033,17.469578447265626L10.530484,17.469732447265624Z" fill-rule="evenodd" fill="#231F2E" fill-opacity="1"/></g><g><path d="M13.94454,3.0554559Q13.13909,2.25,12,2.25Q10.860913,2.25,10.0554565,3.0554559Q9.25,3.860912,9.25,5Q9.25,6.1390899999999995,10.0554565,6.94454Q10.860913,7.75,12,7.75Q13.13909,7.75,13.94454,6.94454Q14.75,6.1390899999999995,14.75,5Q14.75,3.860912,13.94454,3.0554559ZM11.11612,4.1161200000000004Q11.48223,3.75,12,3.75Q12.51777,3.75,12.88388,4.1161200000000004Q13.25,4.4822299999999995,13.25,5Q13.25,5.5177700000000005,12.88388,5.8838799999999996Q12.51777,6.25,12,6.25Q11.48223,6.25,11.11612,5.8838799999999996Q10.75,5.5177700000000005,10.75,5Q10.75,4.4822299999999995,11.11612,4.1161200000000004Z" fill-rule="evenodd" fill="#2882FF" fill-opacity="1"/></g></g></svg>