<svg xmlns="http://www.w3.org/2000/svg" xmlns:xlink="http://www.w3.org/1999/xlink" fill="none" version="1.1" width="24" height="24" viewBox="0 0 24 24"><defs><clipPath id="master_svg0_60_01177"><rect x="0" y="0" width="24" height="24" rx="0"/></clipPath></defs><g clip-path="url(#master_svg0_60_01177)"><g><path d="M20.249984741210938,9L20.249984741210938,14.24999Q20.249984741210938,14.32386,20.264384741210936,14.39631Q20.278784741210938,14.46876,20.307084741210936,14.53701Q20.335384741210937,14.60525,20.376384741210938,14.66667Q20.417384741210938,14.72809,20.469684741210937,14.78032Q20.521884741210936,14.83256,20.58328474121094,14.8736Q20.644784741210938,14.914629999999999,20.71298474121094,14.9429Q20.781184741210936,14.97117,20.853684741210937,14.985579999999999Q20.92608474121094,14.99999,20.999984741210938,14.99999Q21.073884741210936,14.99999,21.146284741210938,14.985579999999999Q21.21878474121094,14.97117,21.286984741210937,14.9429Q21.355284741210937,14.914629999999999,21.416684741210936,14.8736Q21.47808474121094,14.83256,21.530284741210938,14.78032Q21.582584741210937,14.72809,21.623584741210937,14.66667Q21.664584741210938,14.60525,21.69288474121094,14.53701Q21.721184741210937,14.46876,21.73558474121094,14.39631Q21.749984741210938,14.32386,21.749984741210938,14.24999L21.749984741210938,8.25Q21.749984741210938,8.1761315,21.73558474121094,8.103682Q21.721184741210937,8.031233,21.69288474121094,7.962987Q21.664584741210938,7.894742,21.623584741210937,7.833322Q21.582584741210937,7.771903,21.530284741210938,7.71967Q21.47808474121094,7.667437,21.416684741210936,7.626398Q21.355284741210937,7.585359,21.286984741210937,7.55709Q21.21878474121094,7.528822,21.146284741210938,7.514411Q21.073884741210936,7.5,20.999984741210938,7.5L3.0000000000109375,7.5Q2.9261315412109377,7.5,2.8536827412109376,7.514411Q2.7812337412109374,7.528822,2.7129877412109376,7.55709Q2.6447417412109377,7.585359,2.5833227412109374,7.626398Q2.5219027412109374,7.667437,2.4696707412109378,7.71967Q2.4174377412109376,7.771903,2.3763977412109374,7.833322Q2.3353587412109373,7.894742,2.3070907412109376,7.962987Q2.2788227412109374,8.031233,2.2644117412109375,8.103682Q2.2499997412109374,8.1761314,2.2499997412109374,8.25L2.2499887412109376,17.24998Q2.2499867412109373,18.8033,3.3483367412109377,19.901600000000002Q4.446684741210937,21,5.9999847412109375,21L11.999994741210937,21Q12.073854741210937,21,12.146304741210937,20.985599999999998Q12.218754741210937,20.9712,12.287004741210938,20.9429Q12.355244741210937,20.9146,12.416664741210937,20.8736Q12.478084741210937,20.8325,12.530324741210938,20.7803Q12.582554741210938,20.728099999999998,12.623594741210937,20.6667Q12.664634741210937,20.6052,12.692894741210937,20.537Q12.721164741210938,20.4688,12.735574741210938,20.3963Q12.749994741210937,20.323900000000002,12.749994741210937,20.25Q12.749994741210937,20.176099999999998,12.735574741210938,20.1037Q12.721164741210938,20.0312,12.692894741210937,19.963Q12.664634741210937,19.8947,12.623594741210937,19.8333Q12.582554741210938,19.771900000000002,12.530324741210938,19.7197Q12.478084741210937,19.6674,12.416664741210937,19.6264Q12.355244741210937,19.5853,12.287004741210938,19.5571Q12.218754741210937,19.5288,12.146304741210937,19.514400000000002Q12.073854741210937,19.5,11.999994741210937,19.5L5.9999847412109375,19.5Q5.068004741210938,19.5,4.408994741210938,18.841Q3.7499877412109375,18.18197,3.7499887412109376,17.24998L3.7499987412109377,9L20.249984741210938,9Z" fill-rule="evenodd" fill="#231F2E" fill-opacity="1"/></g><g><path d="M2.25,6.75Q2.25,5.1967,3.34835,4.09835Q4.4467,3.00000488758,6,3.00000435114L18,3Q19.5534,3,20.6535,4.10792Q21.75,5.21217,21.75,6.76539L21.75,8.25001C21.75,8.66423,21.4142,9.00001,21,9.00001L3,9.00001C2.585786,9.00001,2.25,8.66423,2.25,8.25001L2.25,6.75ZM4.5,6L4.5,6.008C4.5,6.42221,4.835789999999999,6.758,5.25,6.758L5.258,6.758C5.67221,6.758,6.008,6.42221,6.008,6.008L6.008,6C6.008,5.585789999999999,5.67221,5.25,5.258,5.25L5.25,5.25C4.835789999999999,5.25,4.5,5.585789999999999,4.5,6ZM6.75,6L6.75,6.008C6.75,6.42221,7.08579,6.758,7.5,6.758L7.508,6.758C7.92221,6.758,8.258,6.42221,8.258,6.008L8.258,6C8.258,5.585789999999999,7.92221,5.25,7.508,5.25L7.5,5.25C7.08579,5.25,6.75,5.585789999999999,6.75,6ZM10.508,6.008L10.508,6C10.508,5.585789999999999,10.17221,5.25,9.758,5.25L9.75,5.25C9.33579,5.25,9,5.585789999999999,9,6L9,6.008C9,6.42221,9.33579,6.758,9.75,6.758L9.758,6.758C10.17221,6.758,10.508,6.42221,10.508,6.008Z" fill-rule="evenodd" fill="#231F2E" fill-opacity="1"/></g><g><path d="M18.25,16Q18.25,15.9261315,18.264411,15.853682Q18.278822,15.781233,18.30709,15.712987Q18.335359,15.644742,18.376398000000002,15.583322Q18.417437,15.521903,18.46967,15.46967Q18.521903000000002,15.417437,18.583322,15.376398Q18.644742,15.335359,18.712987,15.30709Q18.781233,15.278822,18.853682,15.264410999999999Q18.9261315,15.25,19,15.25Q19.0738685,15.25,19.146318,15.264410999999999Q19.218767,15.278822,19.287013,15.30709Q19.355258,15.335359,19.416678,15.376398Q19.478096999999998,15.417437,19.53033,15.46967Q19.582563,15.521903,19.623601999999998,15.583322Q19.664641,15.644742,19.69291,15.712987Q19.721178,15.781233,19.735589,15.853682Q19.75,15.9261315,19.75,16L19.75,22Q19.75,22.07387,19.735589,22.14632Q19.721178,22.21877,19.69291,22.287010000000002Q19.664641,22.35526,19.623601999999998,22.41668Q19.582563,22.4781,19.53033,22.53033Q19.478096999999998,22.58256,19.416678,22.6236Q19.355258,22.66464,19.287013,22.69291Q19.218767,22.72118,19.146318,22.735590000000002Q19.0738685,22.75,19,22.75Q18.9261315,22.75,18.853682,22.735590000000002Q18.781233,22.72118,18.712987,22.69291Q18.644742,22.66464,18.583322,22.6236Q18.521903000000002,22.58256,18.46967,22.53033Q18.417437,22.4781,18.376398000000002,22.41668Q18.335359,22.35526,18.30709,22.287010000000002Q18.278822,22.21877,18.264411,22.14632Q18.25,22.07387,18.25,22L18.25,16Z" fill-rule="evenodd" fill="#2882FF" fill-opacity="1"/></g><g><path d="M16.530484,18.469824L19,20.93934L21.46921,18.470132L21.46967,18.46967Q21.57516,18.364181,21.712989999999998,18.30709Q21.85082,18.25,22,18.25Q22.07387,18.25,22.14632,18.264411Q22.21877,18.278822,22.287010000000002,18.30709Q22.35526,18.335359,22.41668,18.376398000000002Q22.4781,18.417437,22.53033,18.46967Q22.58256,18.521903000000002,22.6236,18.583322Q22.66464,18.644742,22.69291,18.712987Q22.72118,18.781233,22.735590000000002,18.853682Q22.75,18.9261315,22.75,19Q22.75,19.149184,22.69291,19.287013Q22.63582,19.424841,22.53033,19.53033L22.52987,19.530792L19.53033,22.53033Q19.42484,22.63582,19.28701,22.69291Q19.14918,22.75,19,22.75Q18.85082,22.75,18.71299,22.69291Q18.57516,22.63582,18.46967,22.53033L15.46967,19.53033Q15.364181,19.424841,15.30709,19.287013Q15.25,19.149184,15.25,19Q15.25,18.9261315,15.264410999999999,18.853682Q15.278822,18.781233,15.30709,18.712987Q15.335359,18.644742,15.376398,18.583322Q15.417437,18.521903000000002,15.46967,18.46967Q15.521903,18.417437,15.583322,18.376398000000002Q15.644742,18.335359,15.712987,18.30709Q15.781233,18.278822,15.853682,18.264411Q15.9261315,18.25,16,18.25Q16.149184,18.25,16.287013,18.30709Q16.424841,18.364181,16.53033,18.46967L16.530484,18.469824Z" fill-rule="evenodd" fill="#2882FF" fill-opacity="1"/></g><g><g><path d="M10.031776015625,17.99993896484375L13.968296015625,17.99993896484375C14.599476015625001,17.99993896484375,15.111156015625,17.48826896484375,15.111156015625,16.85707896484375L15.111156015625,12.28564896484375L12.822786015625,9.99993896484375L10.031776015625,9.99993896484375C9.400595015625,9.99993896484375,8.888920128325,10.51161296484375,8.888919781665,11.14279896484375L8.888916643299,16.85707896484375C8.888916296644,17.48826896484375,9.400591015625,17.99993896484375,10.031776015625,17.99993896484375" fill="#2882FF" fill-opacity="1"/></g><g style="opacity:0.800000011920929;"><path d="M15.111124859924317,12.28564896484375L13.394183859924317,12.28564896484375C13.078591859924316,12.28564896484375,12.822754859924316,12.02981896484375,12.822754859924316,11.71422896484375L12.822754859924316,9.99993896484375" fill="#FFFFFF" fill-opacity="0.800000011920929"/></g></g></g></svg>