<svg xmlns="http://www.w3.org/2000/svg" xmlns:xlink="http://www.w3.org/1999/xlink" fill="none" version="1.1" width="24" height="24" viewBox="0 0 24 24"><defs><clipPath id="master_svg0_5518_08981"><rect x="0" y="0" width="24" height="24" rx="0"/></clipPath><clipPath id="master_svg1_5518_08991"><rect x="2" y="2" width="20" height="20" rx="0"/></clipPath></defs><g clip-path="url(#master_svg0_5518_08981)"><g clip-path="url(#master_svg1_5518_08991)"><g><g><g><path d="M3.1666675994415283,10.999997706718444L5.314170599441528,12.626667706718445L12.814170599441528,9.293327706718445L7.000000599441528,13.875877706718445L7.000000599441528,19.499977706718443C7.000360599441528,19.849877706718445,7.219300599441528,20.162377706718445,7.548080599441528,20.282177706718446C7.876870599441529,20.401877706718444,8.245470599441528,20.303477706718446,8.470830599441529,20.035877706718445L11.079170599441529,16.936677706718445L16.500040599441526,20.999977706718443C16.98944059944153,21.368077706718445,17.69554059944153,21.100177706718444,17.81754059944153,20.499977706718443L21.15084059944153,3.833331706718445C21.21094059944153,3.5333917067184446,21.101940599441527,3.224616706718445,20.866740599441528,3.028949706718445C20.63164059944153,2.833283106718445,20.30814059944153,2.782183506718445,20.024140599441527,2.895831706718445L3.3575005994415283,9.562497706718446C3.079153599441528,9.674797706718444,2.8827017994415285,9.928107706718444,2.8432029294415284,10.225637706718445C2.8037040994415285,10.523177706718446,2.9272614994415282,10.818967706718444,3.1666675994415283,10.999997706718444Z" fill="#38363C" fill-opacity="1" style="mix-blend-mode:passthrough"/></g></g></g></g></g></svg>