<svg xmlns="http://www.w3.org/2000/svg" xmlns:xlink="http://www.w3.org/1999/xlink" fill="none" version="1.1" width="24" height="24" viewBox="0 0 24 24"><defs><clipPath id="master_svg0_5518_09130"><rect x="0" y="0" width="24" height="24" rx="0"/></clipPath><clipPath id="master_svg1_5518_09135"><rect x="0" y="0" width="24" height="24" rx="0"/></clipPath><clipPath id="master_svg2_5518_09131"><rect x="0" y="24" width="24" height="24" rx="0"/></clipPath></defs><g clip-path="url(#master_svg0_5518_09130)"><g clip-path="url(#master_svg1_5518_09135)"></g><g transform="matrix(1,0,0,-1,0,48)" clip-path="url(#master_svg2_5518_09131)"><g transform="matrix(-1,0,0,1,42,0)"><g><path d="M32.475,40.05L21.675,40.05C21.302208,40.05,21,39.7478,21,39.375C21,39.0022,21.302208,38.7,21.675,38.7L32.475,38.7Q34.6185,38.7,36.134299999999996,37.1843Q37.65,35.66852,37.65,33.52498Q37.65,31.381439999999998,36.134299999999996,29.86572Q34.6185,28.35,32.475,28.35L28.425,28.35C28.05221,28.35,27.75,28.04779,27.75,27.675C27.75,27.302208,28.05221,27,28.425,27L32.475,27.000000697374Q35.1777,27.000000590086,37.088899999999995,28.91112Q39,30.82225,39,33.52498Q39,36.22771,37.088899999999995,38.1389Q35.1777,40.05,32.475,40.05Z" fill-rule="evenodd" fill="#38363C" fill-opacity="1" style="mix-blend-mode:passthrough"/></g><g><path d="M26.85000011920929,34.874999809265134C26.85000011920929,35.05402080926514,26.77888011920929,35.22570980926513,26.65230011920929,35.35229980926513L26.65230011920929,35.35229980926513L22.62959011920929,39.374999809265134L26.65230011920929,43.397699809265134C26.77888011920929,43.524289809265134,26.85000011920929,43.69597980926514,26.85000011920929,43.874999809265134C26.85000011920929,44.24779980926514,26.54779011920929,44.54999980926514,26.17500011920929,44.54999980926514C25.99598011920929,44.54999980926514,25.82429011920929,44.47889980926514,25.69770011920929,44.35229980926513L25.69770011920929,44.35229980926513L21.19770311920929,39.85229980926513C21.07111591920929,39.72570980926514,21.00000011920929,39.554019809265135,21.00000011920929,39.374999809265134C21.00000011920929,39.19597980926514,21.07111591920929,39.024289809265134,21.19770311920929,38.897699809265134L25.69729011920929,34.398118809265135L25.69729011920929,34.398118809265135C25.82429011920929,34.27111560926514,25.99598011920929,34.19999980926514,26.17500011920929,34.19999980926514C26.54779011920929,34.19999980926514,26.85000011920929,34.50220780926514,26.85000011920929,34.874999809265134Z" fill-rule="evenodd" fill="#38363C" fill-opacity="1" style="mix-blend-mode:passthrough"/></g></g></g></g></svg>