<?xml version="1.0" encoding="utf-8"?>
<!-- Generator: Adobe Illustrator 25.0.0, SVG Export Plug-In . SVG Version: 6.00 Build 0)  -->
<svg version="1.1" id="图层_1" xmlns="http://www.w3.org/2000/svg" xmlns:xlink="http://www.w3.org/1999/xlink" x="0px" y="0px"
	 viewBox="0 0 24 24" style="enable-background:new 0 0 24 24;" xml:space="preserve">
<style type="text/css">
	.st0{fill:#F44343;}
	.st1{fill:url(#SVGID_1_);}
	.st2{fill:url(#SVGID_2_);}
	.st3{fill:url(#SVGID_3_);}
	.st4{fill-rule:evenodd;clip-rule:evenodd;}
	.st5{fill-rule:evenodd;clip-rule:evenodd;fill:#FFBC00;}
	.st6{opacity:0.5;fill-rule:evenodd;clip-rule:evenodd;fill:#FFBC00;}
	.st7{fill:#989898;}
	.st8{fill:#333333;}
	.st9{fill:#272636;}
	.st10{fill:#272536;}
</style>
<path d="M23.5,22.3l-4.2-4.2c1.7-2,2.6-4.4,2.6-7c0-2.9-1.1-5.6-3.2-7.6c-4.2-4.2-11.1-4.2-15.3,0c-2,2-3.2,4.8-3.2,7.6
	s1.1,5.6,3.2,7.6c2.1,2.1,4.9,3.2,7.6,3.2c2.5,0,5-0.9,7-2.6l4.2,4.2c0.2,0.2,0.4,0.3,0.6,0.3c0.2,0,0.4-0.1,0.6-0.3
	C23.8,23.1,23.8,22.6,23.5,22.3z M4.7,17.5c-3.5-3.5-3.5-9.3,0-12.8C6.4,2.9,8.7,2,11.1,2c2.3,0,4.6,0.9,6.4,2.7
	c1.7,1.7,2.7,4,2.7,6.4c0,2.4-0.9,4.6-2.5,6.3c-0.1,0-0.1,0.1-0.1,0.1c0,0-0.1,0.1-0.1,0.1C13.8,21,8.1,21,4.7,17.5z"/>
</svg>
