<?xml version="1.0" encoding="UTF-8"?>
<svg id="_图层_1" data-name="图层 1" xmlns="http://www.w3.org/2000/svg" viewBox="0 0 24 24">
  <path d="M17.16,12.53c-.01-1.06,.33-2.02,1.03-2.87,.35-.43,.75-.79,1.19-1.07h.02c-.52-.77-1.22-1.33-2.1-1.68-.55-.23-1.11-.36-1.68-.38-.44-.04-.93,0-1.45,.14-.3,.08-.72,.23-1.27,.44-.32,.13-.55,.22-.69,.26-.23,.07-.42,.1-.57,.1s-.34-.03-.59-.1c-.13-.04-.36-.13-.69-.26-.44-.17-.79-.3-1.03-.36-.4-.11-.77-.16-1.09-.16-.87,.01-1.7,.25-2.46,.72-.77,.46-1.37,1.09-1.82,1.87-.58,1-.87,2.18-.87,3.55,0,1.2,.22,2.44,.65,3.73,.39,1.18,.9,2.23,1.53,3.13,.57,.83,1.04,1.43,1.43,1.8,.61,.58,1.21,.85,1.82,.83,.27-.01,.54-.06,.81-.14,.16-.04,.39-.13,.69-.26,.35-.15,.63-.25,.83-.3,.34-.09,.69-.14,1.06-.14s.72,.05,1.04,.14c.19,.05,.44,.15,.77,.28s.57,.23,.73,.28c.3,.08,.59,.12,.89,.12,.44-.01,.86-.15,1.25-.4,.34-.2,.68-.51,1.03-.93,.22-.27,.51-.67,.89-1.21,.39-.59,.74-1.23,1.05-1.92,.15-.35,.27-.69,.36-1.01l.02-.02h-.02c-.26-.11-.52-.26-.79-.44-.52-.36-.96-.8-1.29-1.31-.44-.71-.67-1.52-.69-2.42h0Zm-2.6-7.69c.39-.46,.68-.96,.87-1.51,.2-.61,.28-1.2,.22-1.78-.52,.03-1.07,.19-1.64,.47-.57,.29-1.04,.65-1.41,1.08-.37,.43-.66,.91-.86,1.45-.23,.62-.31,1.2-.24,1.76,.57,.04,1.13-.08,1.7-.36s1-.64,1.37-1.11h0Z"/>
</svg>