<?xml version="1.0" encoding="UTF-8"?>
<svg id="_图层_1" data-name="图层 1" xmlns="http://www.w3.org/2000/svg" viewBox="0 0 24 24">
  <path
    d="M17.67,10.8c-.21-.36-.51-.66-.87-.87l-6-3.47c-1.15-.66-2.62-.27-3.28,.88-.21,.36-.32,.78-.32,1.2v6.94c0,.86,.46,1.65,1.2,2.08,.74,.43,1.66,.43,2.4,0l6-3.47c1.15-.67,1.54-2.13,.87-3.28Zm-2.64,1.53l-4.86,2.81c-.25,.15-.57-.04-.57-.33v-5.62c0-.29,.32-.48,.57-.33l4.86,2.81c.25,.15,.25,.51,0,.66Z" />
  <path
    d="M12,0C5.37,0,0,5.37,0,12s5.37,12,12,12,12-5.37,12-12S18.63,0,12,0Zm0,21.6c-5.3,0-9.6-4.3-9.6-9.6S6.7,2.4,12,2.4s9.6,4.3,9.6,9.6-4.3,9.6-9.6,9.6Z" />
</svg>