<?xml version="1.0" encoding="UTF-8"?>
<svg id="_图层_1" data-name="图层 1" xmlns="http://www.w3.org/2000/svg" viewBox="0 0 24 24">
  <path d="M11.63,11.01v4.74c0,.49,.4,.89,.89,.89s.89-.4,.89-.89v-4.74c0-2.12,1.6-3.85,3.57-3.85h3.96c.36,0,.67-.21,.82-.54s.08-.7-.17-.96l-3.47-3.68c-.33-.36-.9-.38-1.26-.04-.36,.34-.37,.9-.04,1.26l2.06,2.19h-1.9c-2.95,0-5.35,2.52-5.35,5.62Z"/>
  <path d="M20.94,11.44c-.49,0-.89,.4-.89,.89v6.58c0,.67-.54,1.22-1.22,1.22H4.62c-.67,0-1.22-.55-1.22-1.22V5.48c0-.67,.55-1.22,1.22-1.22h6.84c.49,0,.89-.4,.89-.89s-.4-.89-.89-.89H4.62c-1.65,0-2.99,1.34-2.99,2.99v13.42c0,1.65,1.34,2.99,2.99,2.99h14.21c1.65,0,2.99-1.34,2.99-2.99v-6.58c0-.49-.4-.89-.89-.89Z"/>
</svg>