<?xml version="1.0" encoding="UTF-8"?>
<svg id="_图层_1" data-name="图层 1" xmlns="http://www.w3.org/2000/svg" viewBox="0 0 24 24">
  <path d="M21.59,8.81c-.57-.58-1.35-.9-2.16-.89h-5.5l.72-2.8c.13-.5,.1-1-.07-1.49-.17-.49-.47-.9-.89-1.2l-.8-.61c-.33-.24-.69-.35-1.1-.31-.41,.03-.76,.19-1.04,.48l-.03,.03-5.14,6.01c-.14,.14-.26,.29-.34,.47h-1.7c-.58,0-1.08,.22-1.48,.68-.37,.41-.56,.9-.56,1.47v9.71c0,.57,.19,1.06,.56,1.47,.41,.44,.9,.68,1.48,.68h13.83c.43,0,.82-.12,1.18-.35s.62-.55,.78-.94l2.94-7.07c.15-.37,.23-.76,.23-1.17v-1.98c0-.84-.3-1.56-.9-2.16v-.02s-.01,0-.01,0ZM5,20.14h-1.17V10.81h1.17v9.33h0Zm15.16-7.2c0,.09-.02,.19-.06,.27l-2.88,6.93H7.33V9.57l4.68-5.49,.29,.21s.07,.09,.08,.12c.01,.05,.02,.09,0,.14l-1.47,5.71h8.51c.2,0,.37,.07,.51,.21s.21,.3,.21,.5v1.98h.01Z"/>
</svg>