<?xml version="1.0" encoding="UTF-8"?>
<svg id="_图层_1" data-name="图层 1" xmlns="http://www.w3.org/2000/svg" viewBox="0 0 24 24">
  <path d="M20.13,5.24h-1.11c-.51,0-.93,.42-.93,.93s.42,.93,.93,.93h1.11c.59,0,1.09,.59,1.09,1.29v12.48c0,.71-.59,1.29-1.31,1.29H4.09c-.72,0-1.31-.58-1.31-1.29V8.38c0-.7,.5-1.29,1.09-1.29h1.1c.51,0,.93-.42,.93-.93h0c0-.51-.42-.93-.93-.93h-1.1c-1.64,0-2.98,1.41-2.98,3.14v12.48c0,1.73,1.44,3.14,3.2,3.14h15.81c1.77,0,3.2-1.41,3.2-3.14V8.38c0-1.73-1.34-3.14-2.98-3.14Zm-8.75,11.13s0,0,.01,.01c.04,.03,.08,.07,.12,.09,0,0,0,0,0,0,.04,.02,.08,.04,.12,.06,0,0,.01,0,.02,0,.04,.02,.08,.03,.12,.04,.02,0,.03,.01,.05,.01,.06,.01,.12,.02,.18,.02,.06,0,.11,0,.17-.02,.02,0,.04-.01,.06-.02,.04,0,.07-.02,.11-.03,.02,0,.04-.02,.07-.03,.03-.02,.06-.03,.09-.05,.02-.01,.04-.03,.06-.04,.02-.01,.04-.03,.06-.04l4.7-4.23c.37-.33,.39-.89,.05-1.25-.34-.36-.91-.38-1.28-.05l-3.19,2.87V.89C12.9,.4,12.5,0,12,0s-.9,.4-.9,.89V13.66l-3.03-2.81c-.36-.34-.93-.32-1.28,.03-.34,.36-.33,.92,.03,1.25l4.55,4.23Z"/>
</svg>