<?xml version="1.0" encoding="UTF-8"?>
<svg id="_图层_1" data-name="图层 1" xmlns="http://www.w3.org/2000/svg" viewBox="0 0 24 24">
  <path d="M10.25,3.73c-1.12,0-2.18,.53-2.91,1.39-1.12,1.59-.33,3.77,.33,5.03s3.44,5.75,3.57,5.82c.13,.13,.2,.13,.2,0,0-.12,.28-5.65,.17-7.78-.01-.3-.07-.59-.15-.87-.36-1.25-.73-2.44-1.21-3.58Zm-6.15,3.04c-.2,0-1.65,1.59-1.85,2.91-.2,1.39,.53,2.38,2.18,3.57,1.79,1.26,5.82,3.44,5.95,3.37,.13-.2-1.59-3.11-3.04-5.36s-3.04-4.5-3.24-4.5Zm.53,13.36c1.26,.53,3.24-.73,3.77-1.06l1.46-1.06-7.14,.26c.46,.73,1.06,1.32,1.92,1.85h0Zm.2-5.75c-1.26-.6-3.84-2.12-3.97-2.12s-.53,1.85,.33,3.24c.79,1.39,2.38,1.79,3.11,1.92,.86,.13,5.62,.13,5.62,0-.13-.13-3.84-2.38-5.09-3.04h0ZM16.47,5.12c-.73-.86-1.79-1.39-2.91-1.39-.53,1.26-.93,2.51-1.12,3.84-.2,1.59,.13,8.27,.13,8.27,0,.13,.13,.13,.2,0,.13-.13,3.04-4.7,3.57-5.82,.46-1.19,1.26-3.37,.13-4.89Zm6.55,7.21c-.13,0-2.71,1.46-3.97,2.12-1.26,.6-5.03,2.91-5.09,3.04,0,.13,4.76,.13,5.62,0,.73-.13,2.32-.53,3.11-1.85,.79-1.46,.33-3.31,.33-3.31Zm-7.61,6.75c.53,.33,2.51,1.59,3.77,1.06,.86-.4,1.46-1.12,1.85-1.98l-7.08-.2,1.46,1.12Zm6.15-9.39c-.13-1.39-1.65-2.91-1.85-2.91s-1.98,2.32-3.31,4.5-3.04,5.09-2.91,5.36c.13,.2,4.17-2.12,5.95-3.37,1.59-1.19,2.25-2.12,2.12-3.57h0Z"/>
</svg>