<?xml version="1.0" encoding="UTF-8"?>
<svg id="_图层_1" data-name="图层 1" xmlns="http://www.w3.org/2000/svg" viewBox="0 0 24 24">
  <path
    d="M15.6,16.8h-7.2c-.66,0-1.2,.54-1.2,1.2,0,.66,.54,1.2,1.2,1.2h7.2c.66,0,1.2-.54,1.2-1.2,0-.66-.54-1.2-1.2-1.2Zm-7.2-2.4h3.6c.66,0,1.2-.54,1.2-1.2s-.54-1.2-1.2-1.2h-3.6c-.66,0-1.2,.54-1.2,1.2s.54,1.2,1.2,1.2Z" />
  <path
    d="M21.29,7.6L14.76,.4C14.53,.14,14.21,0,13.87,0H5.47c-1.68-.02-3.05,1.32-3.07,3h0V21c.02,1.68,1.39,3.02,3.07,3h0s13.06,0,13.06,0c1.68,.02,3.05-1.32,3.07-3h0V8.4c0-.3-.11-.58-.31-.8Zm-6.89-4l3.29,3.6h-2.4c-.52-.03-.92-.48-.89-1,0,0,0-.01,0-.02V3.6Zm4.13,18H5.47c-.35,.02-.65-.25-.67-.6,0,0,0,0,0,0V3c.02-.35,.32-.62,.67-.6,0,0,0,0,0,0h6.53v3.78c-.04,1.84,1.41,3.37,3.25,3.42h3.95v11.4c-.02,.35-.32,.62-.67,.6,0,0,0,0,0,0Z" />
</svg>