<?xml version="1.0" encoding="UTF-8"?>
<svg id="_图层_1" data-name="图层 1" xmlns="http://www.w3.org/2000/svg" viewBox="0 0 24 24">
  <path d="M22.19,6.21c0-.53-.18-1.32-1.05-2.1-.55-.5-1.32-.94-2.28-1.3-1.84-.7-4.27-1.09-6.84-1.09s-5,.39-6.84,1.09c-.96,.36-1.72,.8-2.28,1.3-.87,.78-1.05,1.58-1.05,2.1,0,.07,0,.15,.01,.23h-.01v11.36c0,.53,.18,1.32,1.05,2.1,.55,.5,1.32,.94,2.28,1.3,1.84,.7,4.27,1.09,6.84,1.09s5-.39,6.84-1.09c.96-.36,1.72-.8,2.28-1.3,.87-.78,1.05-1.58,1.05-2.1V6.44h-.01c0-.08,.01-.16,.01-.23Zm-2,11.58c0,.23-.24,.48-.39,.62-.36,.33-.94,.65-1.65,.92-1.62,.62-3.8,.96-6.13,.96s-4.51-.34-6.13-.96c-1.4-.53-2.04-1.17-2.04-1.53v-2.72c0-.15,.16-.25,.29-.18,.31,.16,.66,.32,1.03,.46,1.84,.7,4.27,1.09,6.84,1.09s5-.39,6.84-1.09c.37-.14,.72-.3,1.03-.46,.13-.07,.29,.03,.29,.18v2.72Zm0-5.78c0,.23-.24,.48-.39,.62-.36,.33-.94,.65-1.65,.92-1.62,.62-3.8,.96-6.13,.96s-4.51-.34-6.13-.96c-1.4-.53-2.04-1.17-2.04-1.53v-2.68c0-.15,.16-.25,.29-.18,.31,.16,.66,.32,1.03,.46,1.84,.7,4.27,1.09,6.84,1.09s5-.39,6.84-1.09c.37-.14,.72-.3,1.03-.46,.13-.07,.29,.03,.29,.18v2.68Zm-.39-5.19c-.36,.33-.93,.65-1.65,.92-1.62,.62-3.8,.96-6.13,.96s-4.51-.34-6.13-.96c-1.4-.53-2.04-1.17-2.04-1.53,0-.23,.24-.48,.39-.62,.36-.33,.93-.65,1.65-.92,1.62-.62,3.8-.96,6.13-.96s4.51,.34,6.13,.96c1.4,.53,2.04,1.17,2.04,1.53,0,.23-.24,.48-.39,.62Z"/>
</svg>