<?xml version="1.0" encoding="UTF-8"?>
<svg id="_图层_1" data-name="图层 1" xmlns="http://www.w3.org/2000/svg" viewBox="0 0 24 24">
  <path d="M20.53,.01H3.47C1.5,.08-.05,1.74,.01,3.71v1.63c0,.74,.6,1.33,1.33,1.33s1.33-.6,1.33-1.33v-1.63c-.05-.5,.3-.96,.8-1.04H20.53c.5,.08,.85,.54,.8,1.04V20.29c.05,.5-.3,.96-.8,1.04h-1.86c-.74,0-1.33,.6-1.33,1.33,0,.73,.6,1.33,1.33,1.33h1.86c1.98-.07,3.52-1.73,3.46-3.7V3.71c.06-1.98-1.49-3.63-3.46-3.7Z"/>
  <path d="M0,20.09v-6.31C0,11.62,1.76,9.87,3.91,9.87h6.49c2.15,0,3.9,1.75,3.9,3.9v6.31c0,2.15-1.75,3.9-3.9,3.9H3.91C1.76,23.99,0,22.24,0,20.09Zm11.69-6.31c0-.72-.58-1.3-1.3-1.3H3.91c-.72,0-1.3,.58-1.3,1.3h0v6.31c0,.72,.58,1.3,1.3,1.3h6.49c.72,0,1.3-.58,1.3-1.3h0v-6.31Z"/>
</svg>