<?xml version="1.0" encoding="utf-8"?>
<!-- Generator: Adobe Illustrator 25.0.0, SVG Export Plug-In . SVG Version: 6.00 Build 0)  -->
<svg version="1.1" id="图层_1" xmlns="http://www.w3.org/2000/svg" xmlns:xlink="http://www.w3.org/1999/xlink" x="0px" y="0px"
	 viewBox="0 0 24 24" style="enable-background:new 0 0 24 24;" xml:space="preserve">
<style type="text/css">
	.st0{fill:#F44343;}
	.st1{fill:url(#SVGID_1_);}
	.st2{fill:url(#SVGID_2_);}
	.st3{fill:url(#SVGID_3_);}
	.st4{fill-rule:evenodd;clip-rule:evenodd;}
	.st5{fill-rule:evenodd;clip-rule:evenodd;fill:#FFBC00;}
	.st6{opacity:0.5;fill-rule:evenodd;clip-rule:evenodd;fill:#FFBC00;}
	.st7{fill:#989898;}
	.st8{fill:#333333;}
	.st9{fill:#7C8295;}
	.st10{fill:#4A90E2;}
	.st11{fill:none;stroke:#000000;stroke-width:1.6;stroke-miterlimit:10;}
</style>
<g>
	<path d="M12,23.1c-0.5,0-1-0.1-1.5-0.4l-7-4C2.6,18.1,2,17.1,2,16V8c0-1.1,0.6-2.1,1.5-2.6l7-4c0.9-0.5,2.1-0.5,3,0l7,4
		C21.4,5.9,22,6.9,22,8V16c0,1.1-0.6,2.1-1.5,2.6l-7,4C13,22.9,12.5,23.1,12,23.1z M12,2.5c-0.2,0-0.5,0.1-0.7,0.2l-7,4
		C3.9,7,3.6,7.5,3.6,8V16c0,0.5,0.3,1,0.7,1.2l7,4c0.4,0.2,1,0.2,1.4,0l7-4c0.4-0.2,0.7-0.7,0.7-1.2V8c0-0.5-0.3-1-0.7-1.2l-7-4
		C12.5,2.6,12.2,2.5,12,2.5z"/>
</g>
<g>
	<path d="M11.2,14.4H9.5c-0.7,0-1.4,0.5-1.7,1.2l-0.3,1C7.4,16.8,7.1,17,6.7,17H6.1c-0.5,0-0.8-0.5-0.6-0.9L8.7,8
		C9,7.4,9.6,7,10.3,7h0.2c0.7,0,1.3,0.4,1.6,1.1l3.2,8.1c0.2,0.4-0.1,0.9-0.6,0.9H14c-0.3,0-0.6-0.2-0.8-0.5l-0.3-0.9
		C12.6,14.8,12,14.4,11.2,14.4z M11.7,12.1l-0.8-2.2c-0.2-0.4-0.8-0.4-0.9,0l-0.8,2.2c-0.1,0.3,0.1,0.7,0.5,0.7h1.7
		C11.5,12.8,11.8,12.4,11.7,12.1z"/>
</g>
<path d="M15.7,16.2V7.8c0-0.5,0.4-0.8,0.8-0.8h0c0.5,0,0.8,0.4,0.8,0.8v8.4c0,0.5-0.4,0.8-0.8,0.8h0C16.1,17,15.7,16.7,15.7,16.2z"
	/>
</svg>
