<?xml version="1.0" encoding="UTF-8"?>
<svg id="_图层_1" data-name="图层 1" xmlns="http://www.w3.org/2000/svg" viewBox="0 0 24 24">
  <path d="M12.03,19.24l-.57,.86c.34,.23,.79,.23,1.14,0l-.57-.86ZM2.78,5.87l-.57-.86c-.29,.19-.46,.51-.46,.86,0,0,1.03,0,1.03,0Zm0,13.37H1.75c0,.57,.46,1.03,1.03,1.03,.2,0,.4-.06,.57-.17l-.57-.86ZM21.29,5.87h1.03c0-.34-.17-.67-.46-.86,0,0-.57,.86-.57,.86Zm0,13.37l-.57,.86c.47,.31,1.11,.19,1.43-.29,.11-.17,.17-.37,.17-.57h-1.03ZM11.01,5.87v13.37h2.06V5.87h-2.06Zm-7.66,.86c1.02-.67,2.44-1.12,4.06-1.12V3.55c-1.97,0-3.81,.54-5.2,1.46,0,0,1.14,1.71,1.14,1.71Zm4.06-1.12c1.62,0,3.05,.44,4.06,1.12l1.14-1.71c-1.39-.92-3.22-1.46-5.2-1.46v2.06ZM3.35,20.1c1.02-.67,2.44-1.12,4.06-1.12v-2.06c-1.97,0-3.81,.54-5.2,1.46l1.14,1.71Zm4.06-1.12c1.62,0,3.05,.44,4.06,1.12l1.14-1.71c-1.39-.92-3.22-1.46-5.2-1.46v2.06ZM1.75,5.87v13.37H3.81V5.87H1.75Zm20.11-.86c-1.39-.92-3.22-1.46-5.2-1.46v2.06c1.62,0,3.05,.44,4.06,1.12,0,0,1.14-1.71,1.14-1.71Zm-5.2-1.46c-1.97,0-3.81,.54-5.2,1.46l1.14,1.71c1.02-.67,2.44-1.12,4.06-1.12V3.55Zm5.2,14.83c-1.39-.92-3.22-1.46-5.2-1.46v2.06c1.62,0,3.05,.44,4.06,1.12,0,0,1.14-1.71,1.14-1.71Zm-5.2-1.46c-1.97,0-3.81,.54-5.2,1.46l1.14,1.71c1.02-.67,2.44-1.12,4.06-1.12v-2.06Zm3.6-11.05v13.37h2.06V5.87h-2.06Z"/>
</svg>