<?xml version="1.0" encoding="UTF-8"?>
<svg id="_图层_1" data-name="图层 1" xmlns="http://www.w3.org/2000/svg" viewBox="0 0 24 24">
  <path d="M20.38,8.41c-1.52,0-2.87,.96-3.38,2.4H1.22C.55,10.8,.02,11.34,.02,12s.54,1.2,1.2,1.2h15.78c.66,1.87,2.71,2.85,4.58,2.19,1.87-.66,2.85-2.71,2.19-4.58-.51-1.44-1.87-2.4-3.4-2.4ZM1.22,5.26h1.41c.68,1.87,2.74,2.83,4.6,2.15,1-.36,1.79-1.15,2.15-2.15h13.39c.66,0,1.2-.54,1.2-1.2s-.54-1.2-1.2-1.2H9.38C8.71,1,6.65,.04,4.78,.72c-1,.36-1.79,1.15-2.15,2.15H1.22C.55,2.87,.02,3.4,.02,4.07s.54,1.2,1.2,1.2Zm21.56,13.47H14.17c-.68-1.87-2.74-2.83-4.6-2.15-1,.36-1.79,1.15-2.15,2.15H1.22c-.66,0-1.2,.54-1.2,1.2,0,.66,.54,1.2,1.2,1.2H7.42c.68,1.87,2.74,2.83,4.6,2.15,1-.36,1.79-1.15,2.15-2.15h8.6c.66,0,1.2-.54,1.2-1.2,0-.66-.54-1.2-1.2-1.2Z"/>
</svg>