<?xml version="1.0" encoding="UTF-8"?>
<svg id="_图层_1" data-name="图层 1" xmlns="http://www.w3.org/2000/svg" viewBox="0 0 24 24">
  <path d="M12,24C5.48,24,.21,18.9,0,12.38v-.38S0,11.67,0,11.67C.18,5.12,5.45,0,12,0s12,5.38,12,11.99c0,3.2-1.24,6.22-3.51,8.48-2.26,2.27-5.28,3.52-8.48,3.52h-.01Zm0-22.29C6.39,1.71,1.87,6.1,1.72,11.71v.3s0,.34,0,.34c.18,5.57,4.69,9.94,10.28,9.94h.01c2.75,0,5.33-1.07,7.27-3.02,1.94-1.94,3.01-4.53,3.01-7.27,0-5.67-4.61-10.28-10.29-10.28Z"/>
  <g>
    <path d="M12,10.2h-1.34c-.66,.09-1.13,.68-1.05,1.34,.07,.55,.5,.98,1.05,1.05h.14v3.75c.07,.55,.51,.99,1.06,1.05h.14s1.2,0,1.2,0h.14c.55-.07,.99-.51,1.05-1.06v-.14s0-.14,0-.14c-.06-.5-.43-.91-.92-1.03l-.13-.02h-.14v-3.75c-.07-.55-.51-.99-1.06-1.05h-.14Z"/>
    <path d="M12.01,6.6h-.15c-.66,.09-1.13,.68-1.05,1.34,.07,.55,.5,.98,1.05,1.05h.14s.15,0,.15,0c.66-.08,1.13-.68,1.05-1.33-.07-.55-.5-.98-1.05-1.05h-.14Z"/>
  </g>
</svg>