<?xml version="1.0" encoding="UTF-8"?>
<svg id="_图层_1" data-name="图层 1" xmlns="http://www.w3.org/2000/svg" xmlns:xlink="http://www.w3.org/1999/xlink" viewBox="0 0 24 24">
  <defs>
    <style>
      .cls-1 {
        fill: #fff;
      }

      .cls-2 {
        fill: url(#argument-color);
      }
    </style>
    <linearGradient id="argument-color" data-name="未命名的渐变 35" x1="0" y1="24" x2="24" y2="0" gradientUnits="userSpaceOnUse">
      <stop offset="0" stop-color="#1975ff"/>
      <stop offset="1" stop-color="#71a4f1"/>
    </linearGradient>
  </defs>
  <rect class="cls-2" width="24" height="24"/>
  <path class="cls-1" d="M16.59,10.06c-.83,0-1.57,.52-1.85,1.29H6.1c-.36,0-.66,.29-.66,.65s.29,.65,.66,.65H14.74c.36,1.01,1.49,1.54,2.51,1.18,1.02-.36,1.56-1.47,1.2-2.48-.28-.78-1.02-1.3-1.86-1.29Zm-10.49-1.7h.77c.37,1.01,1.5,1.53,2.52,1.16,.55-.2,.98-.62,1.18-1.16h7.33c.36,0,.66-.29,.66-.65s-.29-.65-.66-.65h-7.33c-.37-1.01-1.5-1.53-2.52-1.16-.55,.2-.98,.62-1.18,1.16h-.77c-.36,0-.66,.29-.66,.65s.29,.65,.66,.65Zm11.8,7.28h-4.71c-.37-1.01-1.5-1.53-2.52-1.16-.55,.2-.98,.62-1.18,1.16h-3.4c-.36,0-.66,.29-.66,.65,0,.36,.29,.65,.66,.65h3.4c.37,1.01,1.5,1.53,2.52,1.16,.55-.2,.98-.62,1.18-1.16h4.71c.36,0,.66-.29,.65-.65,0-.36-.29-.65-.65-.65Z"/>
</svg>