<?xml version="1.0" encoding="UTF-8"?>
<svg id="_图层_1" data-name="图层 1" xmlns="http://www.w3.org/2000/svg" viewBox="0 0 24 24">
  <path
    d="M12,1.5C6.2,1.5,1.5,6.2,1.5,12s4.7,10.5,10.5,10.5,10.5-4.7,10.5-10.5S17.8,1.5,12,1.5Zm0,18.9c-4.64,0-8.4-3.76-8.4-8.4S7.36,3.6,12,3.6s8.4,3.76,8.4,8.4-3.76,8.4-8.4,8.4Z" />
  <path
    d="M17.18,10.22c.4-.42,.39-1.08-.02-1.49-.42-.4-1.08-.39-1.49,.02l-4.95,5.1-2.17-2.29c-.4-.42-1.06-.44-1.48-.04-.42,.4-.44,1.06-.04,1.48h0l2.92,3.1c.2,.2,.47,.33,.75,.33s.56-.12,.76-.32l5.71-5.88h0Z" />
</svg>