<?xml version="1.0" encoding="UTF-8"?>
<svg id="_图层_1" data-name="图层 1" xmlns="http://www.w3.org/2000/svg" viewBox="0 0 24 24">
  <path
    d="M12,1.5C6.2,1.5,1.5,6.2,1.5,12s4.7,10.5,10.5,10.5,10.5-4.7,10.5-10.5S17.8,1.5,12,1.5ZM3.6,12C3.6,7.36,7.36,3.6,12,3.6s8.4,3.76,8.4,8.4c0,4.64-3.76,8.4-8.4,8.4-4.64,0-8.4-3.76-8.4-8.4Zm12.11-2.23c.41-.41,.41-1.08,0-1.49-.41-.41-1.08-.41-1.49,0h0l-2.23,2.23-2.23-2.23c-.41-.41-1.08-.41-1.49,0s-.41,1.08,0,1.49l2.23,2.23-2.23,2.23c-.41,.41-.41,1.08,0,1.49,.41,.41,1.08,.41,1.49,0l2.23-2.23,2.23,2.23c.41,.41,1.08,.41,1.49,0s.41-1.08,0-1.49l-2.23-2.23,2.23-2.23Z" />
</svg>