<?xml version="1.0" encoding="UTF-8"?>
<svg id="_图层_1" data-name="图层 1" xmlns="http://www.w3.org/2000/svg" viewBox="0 0 24 24">
  <path d="M18.99,15.57h-.25c-1.43,0-2.64,.93-3.06,2.21l-7.73-.11c-.98-.01-1.78-.97-1.75-2.14v-.21c.01-1.15,.82-2.09,1.79-2.09h.02l8.05,.11c1.3,.01,2.52-.51,3.44-1.49,.88-.95,1.37-2.2,1.39-3.53,.04-2.81-2.07-5.12-4.7-5.16l-8.34-.12c-.58-.8-1.53-1.33-2.6-1.33h-.25c-1.78,0-3.23,1.45-3.23,3.24v.25c0,1.79,1.45,3.23,3.23,3.23h.25c1.49,0,2.75-1.01,3.12-2.38l7.79,.11c.98,.01,1.78,.97,1.75,2.14-.01,.59-.22,1.13-.6,1.54-.34,.36-.77,.56-1.22,.56l-8.05-.12c-2.63-.04-4.79,2.21-4.84,5.02v.21c-.04,2.81,2.07,5.12,4.7,5.16l8.11,.12c.57,.9,1.58,1.5,2.72,1.5h.25c1.79,0,3.23-1.45,3.23-3.23v-.25c.01-1.79-1.44-3.24-3.23-3.24Z"/>
</svg>