<?xml version="1.0" encoding="UTF-8"?>
<svg id="_图层_1" data-name="图层 1" xmlns="http://www.w3.org/2000/svg" viewBox="0 0 24 24">
  <path d="M22.35,1.6l.02,.02,.02,.02c.71,.72,1.03,1.74,1,2.94-.03,1.08-.35,2.32-.92,3.66-.52,1.21-1.23,2.48-2.12,3.76,.88,1.28,1.6,2.55,2.12,3.76,.57,1.34,.89,2.58,.92,3.66,.03,1.21-.3,2.23-1.02,2.96-.72,.72-1.75,1.05-2.96,1.02-1.08-.03-2.32-.35-3.66-.92-1.21-.52-2.48-1.23-3.76-2.12-1.28,.88-2.55,1.6-3.76,2.12-1.34,.57-2.58,.89-3.66,.92-1.21,.03-2.23-.3-2.96-1.02-.72-.72-1.05-1.75-1.02-2.96,.03-1.08,.35-2.32,.92-3.66,.52-1.21,1.23-2.48,2.12-3.76-.88-1.28-1.6-2.55-2.12-3.76-.57-1.34-.89-2.58-.92-3.66-.03-1.2,.29-2.21,1-2.94l.02-.02,.02-.02c.72-.71,1.74-1.03,2.94-1,1.08,.03,2.32,.35,3.66,.92,1.21,.52,2.48,1.24,3.76,2.12,1.28-.88,2.55-1.6,3.76-2.12,1.34-.57,2.58-.89,3.66-.92,1.2-.03,2.21,.29,2.94,1ZM4.81,13.58l-.02,.03c-.64,.99-1.17,1.96-1.57,2.88-.95,2.22-1,3.87-.29,4.57,.71,.71,2.35,.66,4.57-.29,.93-.4,1.91-.93,2.91-1.58-1-.79-2-1.68-2.96-2.64-.96-.96-1.85-1.96-2.64-2.96Zm14.37,0l-.05,.06c-.78,.98-1.65,1.96-2.59,2.9s-1.96,1.85-2.96,2.64c1,.65,1.98,1.19,2.91,1.58,2.23,.95,3.87,1,4.57,.29,.71-.71,.66-2.35-.29-4.57-.4-.93-.93-1.91-1.58-2.91Zm-7.19-7.65l-.04,.03c-1.08,.82-2.16,1.77-3.19,2.81-1.05,1.05-2,2.14-2.83,3.23,.83,1.09,1.78,2.18,2.83,3.23,1.05,1.05,2.14,2,3.23,2.83,1.09-.83,2.18-1.78,3.23-2.83,1.05-1.05,2-2.14,2.83-3.23-.83-1.09-1.78-2.18-2.83-3.23-1.05-1.05-2.14-2-3.23-2.83Zm-.01,4.7c.75,0,1.36,.6,1.37,1.34v.02s0,.02,0,.02c0,.75-.61,1.36-1.37,1.36s-1.36-.6-1.37-1.34v-.02s0-.02,0-.02c0-.75,.61-1.36,1.37-1.36ZM2.96,2.91l-.02,.02-.02,.02c-.68,.72-.63,2.35,.32,4.55,.4,.93,.93,1.91,1.58,2.91,.79-1,1.68-2,2.64-2.96,.96-.96,1.96-1.85,2.96-2.64-1-.65-1.98-1.19-2.91-1.58-2.2-.94-3.84-1-4.55-.32h0Zm13.53,.32c-.93,.4-1.91,.93-2.91,1.58,1,.79,2,1.68,2.96,2.64,.96,.96,1.85,1.96,2.64,2.96,.65-1,1.19-1.98,1.58-2.91,.94-2.2,1-3.84,.32-4.55l-.02-.02-.02-.02c-.72-.68-2.35-.63-4.55,.32Z"/>
</svg>