<?xml version="1.0" encoding="utf-8"?>
<!-- Generator: Adobe Illustrator 24.2.0, SVG Export Plug-In . SVG Version: 6.00 Build 0)  -->
<svg version="1.1" id="图层_1" xmlns="http://www.w3.org/2000/svg" xmlns:xlink="http://www.w3.org/1999/xlink" x="0px" y="0px"
	 viewBox="0 0 24 24" style="enable-background:new 0 0 24 24;" xml:space="preserve">
<style type="text/css">
	.st0{fill-rule:evenodd;clip-rule:evenodd;fill:#13C2C2;}
	.st1{fill-rule:evenodd;clip-rule:evenodd;fill:url(#SVGID_1_);}
	.st2{fill:#FFFFFF;}
	.st3{fill-rule:evenodd;clip-rule:evenodd;fill:#FFFFFF;}
</style>
<g>
	<g>
		<path class="st0" d="M17.4,3.7h1.2c1,0,1.9,0.4,2.7,1.1c0.7,0.7,1.1,1.6,1.1,2.7v8c0,1-0.4,1.9-1.1,2.7c-0.7,0.7-1.6,1.1-2.7,1.1
			h-12c-1,0-1.9-0.4-2.7-1.1c-0.7-0.7-1.1-1.6-1.1-2.7v-8c0-1,0.4-1.9,1.1-2.7c0.7-0.7,1.6-1.1,2.7-1.1h4.8l4.8-2.9
			c0,0,0.1,0,0.1-0.1c0,0,0.1,0,0.1,0c0,0,0.1,0,0.1,0c0,0,0.1,0,0.1,0c0,0,0.1,0,0.1,0c0,0,0.1,0,0.1,0.1c0,0,0.1,0.1,0.1,0.1
			c0,0,0.1,0.1,0.1,0.1c0.1,0.1,0.1,0.2,0.1,0.4V3.7z"/>
		<linearGradient id="SVGID_1_" gradientUnits="userSpaceOnUse" x1="1.5586" y1="14.0478" x2="21.0508" y2="14.0478">
			<stop  offset="0" style="stop-color:#5769FC"/>
			<stop  offset="1" style="stop-color:#3D63E8"/>
		</linearGradient>
		<path class="st1" d="M6.6,20.3H5.3c-1,0-1.9-0.4-2.7-1.1c-0.7-0.7-1.1-1.6-1.1-2.7v-8c0-1,0.4-1.9,1.1-2.7
			c0.7-0.7,1.6-1.1,2.7-1.1h12c1,0,1.9,0.4,2.7,1.1c0.7,0.7,1.1,1.6,1.1,2.7v8c0,1-0.4,1.9-1.1,2.7c-0.7,0.7-1.6,1.1-2.7,1.1h-4.8
			l-4.8,2.9c0,0-0.1,0-0.1,0.1c0,0-0.1,0-0.1,0c0,0-0.1,0-0.1,0c0,0-0.1,0-0.1,0c0,0-0.1,0-0.1,0c0,0-0.1,0-0.1-0.1
			c0,0-0.1-0.1-0.1-0.1S6.7,23,6.7,22.9c-0.1-0.1-0.1-0.2-0.1-0.4V20.3z"/>
		<g>
			<g>
				<path class="st2" d="M8.4,17.6c-0.1,0-0.2,0-0.4-0.1c-0.3-0.2-0.5-0.6-0.3-1l4.8-8.3c0.2-0.3,0.6-0.5,1-0.3
					c0.3,0.2,0.5,0.6,0.3,1L9,17.3C8.9,17.5,8.7,17.6,8.4,17.6z"/>
			</g>
			<g>
				<path class="st3" d="M14.7,13.1l0.5,0.9c0,0.1,0.1,0.1,0.1,0.1l0.9,0.5c0.2,0.1,0.2,0.5,0,0.6l-0.9,0.5c-0.1,0-0.1,0.1-0.1,0.1
					l-0.5,0.9c-0.1,0.2-0.5,0.2-0.6,0l-0.5-0.9c0-0.1-0.1-0.1-0.1-0.1l-0.9-0.5c-0.2-0.1-0.2-0.5,0-0.6l0.9-0.5
					c0.1,0,0.1-0.1,0.1-0.1l0.5-0.9C14.2,12.9,14.5,12.9,14.7,13.1z"/>
			</g>
			<g>
				<path class="st3" d="M7.9,8.9l0.3,0.6c0,0,0.1,0.1,0.1,0.1L9,10c0.2,0.1,0.2,0.3,0,0.4l-0.6,0.3c0,0-0.1,0.1-0.1,0.1l-0.3,0.6
					c-0.1,0.2-0.3,0.2-0.4,0l-0.3-0.6c0,0-0.1-0.1-0.1-0.1l-0.6-0.3c-0.2-0.1-0.2-0.3,0-0.4l0.6-0.3c0,0,0.1-0.1,0.1-0.1l0.3-0.6
					C7.6,8.7,7.8,8.7,7.9,8.9z"/>
			</g>
		</g>
	</g>
</g>
</svg>
