<?xml version="1.0" encoding="UTF-8"?>
<svg id="_图层_1" data-name="图层 1" xmlns="http://www.w3.org/2000/svg" viewBox="0 0 24 24">
  <defs>
    <style>
      .apa-robot {
        fill-rule: evenodd;
      }
    </style>
  </defs>
  <path class="apa-robot" d="M23.16,5.05c-.14-.61-.28-.34-.28-.34-.69,0-.84,2.32-1.49,2.55-.2,.07-.3,.29-.35,.58-1.51-2.24-3.97-3.79-6.87-4.31,.02-.17,.02-.27,.02-.27-2.41-1.46-4.5-.04-4.5-.04,0,.11,0,.22,.01,.33-2.74,.52-5.08,1.94-6.59,4.01-.12-.08-.27-.14-.45-.18-.5-.11-.76-1.44-.99-2.07-.19-.52-.4-.64-.57-.6-.03-.03-.12-.07-.21,.14-.01,.01-.02,.02-.03,.04,0,0,0,.02,0,.06-.02,.05-.03,.11-.05,.18-1.73,7.55-.07,9.82,.82,10.43,.48,1.84,1.51,3.36,2.95,4.28,2.01,1.36,4.83,1.54,7.76,1.57,2.95-.04,5.46-.24,7.3-1.61,1.29-.91,2.25-2.41,2.7-4.23,.86-.54,2.64-2.75,.82-10.51Zm-2.82,8.33c-.29,3.42-2.46,3.58-3.12,3.58-.67,0-2.02-.44-3.27-.87-1.46-.5-3.61-.33-4.89,.22-1.29,.54-2.31,.73-2.72,.68-2.99-.38-2.8-3.64-2.8-4.11-.01-3.62,2.3-3.99,2.3-3.99,1.71-.36,3.13,.64,3.74,.87,1.06,.39,3.58,.4,4.55-.01,1.97-.84,2.56-.94,2.92-.95,3.37-.1,3.33,4.02,3.28,4.58Z"/>
  <path class="apa-robot" d="M8.88,13.56c-.01,.53-.45,.95-.98,.94-.53-.01-.95-.45-.94-.98l.02-1.15c.01-.53,.45-.95,.98-.94,.53,.01,.95,.45,.94,.98l-.02,1.15Z"/>
  <path class="apa-robot" d="M16.55,13.71c-.01,.53-.45,.95-.98,.94s-.95-.45-.94-.98l.02-1.15c.01-.53,.45-.95,.98-.94,.53,.01,.95,.45,.94,.98l-.02,1.15Z"/>
</svg>