<?xml version="1.0" encoding="utf-8"?>
<!-- Generator: Adobe Illustrator 24.2.0, SVG Export Plug-In . SVG Version: 6.00 Build 0)  -->
<svg version="1.1" id="图层_1" xmlns="http://www.w3.org/2000/svg" xmlns:xlink="http://www.w3.org/1999/xlink" x="0px" y="0px"
	 viewBox="0 0 24 24" style="enable-background:new 0 0 24 24;" xml:space="preserve">
<style type="text/css">
	.st0{fill-rule:evenodd;clip-rule:evenodd;}
</style>
<path class="st0" d="M21.7,8.1l-8.9,9.6c-0.1,0.1-0.2,0.2-0.4,0.3C12.3,18,12.1,18,12,18s-0.3,0-0.4-0.1c-0.1-0.1-0.3-0.1-0.4-0.3
	L2.3,8.1C2.2,7.9,2.1,7.8,2.1,7.7C2,7.5,2,7.4,2,7.2C2,7.1,2,7.1,2,7c0-0.1,0-0.2,0.1-0.2c0-0.1,0.1-0.1,0.1-0.2
	c0-0.1,0.1-0.1,0.1-0.2c0.1-0.1,0.1-0.1,0.2-0.2c0.1,0,0.1-0.1,0.2-0.1C2.8,6.1,2.8,6,2.9,6C3,6,3,6,3.1,6c0.1,0,0.3,0,0.4,0.1
	c0.1,0.1,0.3,0.1,0.4,0.3l8.1,8.7l8.1-8.7c0.1-0.1,0.2-0.2,0.4-0.3C20.6,6,20.7,6,20.9,6C21,6,21,6,21.1,6c0.1,0,0.1,0,0.2,0.1
	c0.1,0,0.1,0.1,0.2,0.1c0.1,0,0.1,0.1,0.2,0.1c0.1,0.1,0.1,0.1,0.1,0.2c0,0.1,0.1,0.1,0.1,0.2S22,6.9,22,7c0,0.1,0,0.2,0,0.2
	c0,0.2,0,0.3-0.1,0.5C21.9,7.8,21.8,7.9,21.7,8.1"/>
</svg>
