<?xml version="1.0" encoding="UTF-8"?>
<svg id="_图层_1" data-name="图层 1" xmlns="http://www.w3.org/2000/svg" viewBox="0 0 24 24">
  <path
    d="M13.13,24h-2.27c-1.11,0-2.02-.9-2.02-2.02v-1.31c-.01-.16-.12-.29-.26-.35-.15-.1-.34-.1-.49,0l-.89,.96c-.78,.79-2.05,.79-2.83,0,0,0,0,0,0,0l-1.64-1.61c-.38-.38-.6-.89-.6-1.43,0-.54,.22-1.07,.6-1.45l.89-.89c.09-.14,.09-.31,0-.44-.07-.18-.19-.31-.36-.31h-1.22C.9,15.15,0,14.24,0,13.13v-2.27C0,9.75,.9,8.84,2.02,8.84h1.31c.16-.01,.29-.12,.35-.26,.1-.15,.1-.34,0-.49l-.96-.89c-.79-.78-.79-2.05,0-2.83,0,0,0,0,0,0l1.61-1.64c.37-.38,.88-.6,1.42-.6,.55,0,1.08,.21,1.46,.6l.89,.89c.14,.09,.31,.09,.44,0,.18-.07,.31-.19,.31-.36v-1.22C8.85,.9,9.76,0,10.87,0h2.33C14.31,0,15.22,.9,15.22,2.02v1.31c.01,.16,.12,.29,.26,.35,.15,.1,.34,.1,.49,0l.83-.96c.78-.79,2.05-.79,2.83,0,0,0,0,0,0,0l1.64,1.61c.38,.38,.6,.89,.6,1.43,.01,.55-.21,1.07-.6,1.45l-.89,.89c-.09,.14-.09,.31,0,.44,.07,.18,.19,.31,.36,.31h1.31c1.08,.05,1.93,.94,1.93,2.03v2.33c0,1.11-.9,2.02-2.02,2.02h-1.31c-.16,.01-.29,.12-.35,.26-.09,.14-.09,.31,0,.44l.92,.92c.79,.78,.79,2.05,0,2.83,0,0,0,0,0,0l-1.57,1.6c-.37,.38-.88,.6-1.42,.6-.54,0-1.05-.22-1.43-.6l-.92-.89c-.14-.09-.31-.09-.44,0-.18,.07-.31,.19-.31,.36v1.31c-.05,1.08-.94,1.93-2.03,1.93Zm-1.88-2.4h1.51v-.92c.01-1.13,.7-2.15,1.75-2.57,1.05-.46,2.28-.24,3.11,.56l.65,.65,1.06-1.06-.65-.66c-.8-.81-1.02-2.03-.58-3.07,.43-1.05,1.44-1.73,2.57-1.74h.94v-1.55h-.92c-1.13-.01-2.15-.7-2.57-1.75-.46-1.05-.24-2.28,.56-3.11l.65-.65-1.06-1.06-.66,.65c-1.17,1.07-2.98,.99-4.05-.18-.46-.5-.72-1.14-.75-1.82v-.92h-1.56v.92c-.01,1.13-.7,2.15-1.75,2.57-1.05,.46-2.28,.24-3.11-.56l-.65-.65-1.06,1.06,.65,.66c1.07,1.17,.99,2.98-.18,4.05-.5,.46-1.14,.72-1.82,.75h-.92v1.51h.92c1.13,.01,2.15,.7,2.57,1.75,.46,1.05,.24,2.28-.56,3.11l-.65,.65,1.06,1.06,.66-.65c1.17-1.07,2.98-.99,4.05,.18,.46,.5,.72,1.14,.75,1.82l.05,.97Z" />
  <path
    d="M12,16.2c-2.32,0-4.2-1.88-4.2-4.2s1.88-4.2,4.2-4.2,4.2,1.88,4.2,4.2h0c0,2.32-1.88,4.2-4.2,4.2Zm0-6c-.99,0-1.8,.81-1.8,1.8s.81,1.8,1.8,1.8,1.8-.81,1.8-1.8-.81-1.8-1.8-1.8Z" />
</svg>