<?xml version="1.0" encoding="UTF-8"?>
<svg id="_图层_1" data-name="图层 1" xmlns="http://www.w3.org/2000/svg" viewBox="0 0 24 24">
  <path
    d="M20.12,20.39H3.88c-.58,0-1.05,.47-1.05,1.05,0,.58,.47,1.05,1.05,1.05H20.12c.58,0,1.05-.47,1.05-1.05,0-.58-.47-1.05-1.05-1.05Z" />
  <path
    d="M19.8,4.96l-2.89-2.89c-.78-.73-1.98-.76-2.8-.07L4.63,11.47c-.34,.34-.55,.79-.6,1.27l-.45,4.39c-.03,.31,.08,.62,.31,.84,.2,.2,.47,.31,.75,.31h.09l4.39-.4c.48-.05,.93-.26,1.27-.6L19.87,7.81c.77-.81,.73-2.09-.07-2.85ZM8.95,15.78l-3.16,.29,.28-3.15,5.93-5.89,2.84,2.84-5.9,5.9Zm7.27-7.31l-2.82-2.82,2.05-2.11,2.87,2.87-2.11,2.05Z" />
</svg>