<?xml version="1.0" encoding="UTF-8"?>
<svg id="_图层_1" data-name="图层 1" xmlns="http://www.w3.org/2000/svg" viewBox="0 0 24 24">
  <path d="M2.02,4.24c0,.92,.74,1.66,1.66,1.66s1.66-.74,1.66-1.66-.74-1.66-1.66-1.66-1.66,.74-1.66,1.66Z"/>
  <path d="M2.02,12c0,.92,.74,1.66,1.66,1.66s1.66-.74,1.66-1.66-.74-1.66-1.66-1.66-1.66,.74-1.66,1.66Z"/>
  <path d="M2.02,19.76c0,.92,.74,1.66,1.66,1.66s1.66-.74,1.66-1.66-.74-1.66-1.66-1.66-1.66,.74-1.66,1.66Z"/>
  <path d="M7.56,10.89h13.31c.74,0,1.11,.37,1.11,1.11h0c0,.74-.37,1.11-1.11,1.11H7.56c-.74,0-1.11-.37-1.11-1.11h0c0-.74,.37-1.11,1.11-1.11Z"/>
  <path d="M7.56,3.13h13.31c.74,0,1.11,.37,1.11,1.11h0c0,.74-.37,1.11-1.11,1.11H7.56c-.74,0-1.11-.37-1.11-1.11h0c0-.74,.37-1.11,1.11-1.11Z"/>
  <path d="M7.56,18.66h13.31c.74,0,1.11,.37,1.11,1.11h0c0,.74-.37,1.11-1.11,1.11H7.56c-.74,0-1.11-.37-1.11-1.11h0c0-.74,.37-1.11,1.11-1.11Z"/>
</svg>