<?xml version="1.0" encoding="UTF-8"?>
<svg id="_图层_1" data-name="图层 1" xmlns="http://www.w3.org/2000/svg" viewBox="0 0 24 24">
  <defs>
    <style>
      .apa-scene {
        fill: #231f20;
      }
    </style>
  </defs>
  <path class="apa-scene" d="M21.28,5.95l-3.23-3.23c-.64-.64-1.51-1-2.42-1.01h-7.25c-.91,0-1.78,.36-2.42,1.01l-3.23,3.23c-.64,.64-1,1.51-1.01,2.42v10.48c0,1.89,1.54,3.43,3.43,3.43h13.71c1.89,0,3.43-1.54,3.43-3.43V8.38c0-.91-.36-1.78-1.01-2.42Zm-7.98,11.94H6.61c-.56,0-1-.44-1-1s.44-1,1-1h6.7c.52,0,1,.44,1,1s-.44,1-1,1Zm-7.69-5.01c0-.56,.44-1,1-1h4.7c.52,0,1,.44,1,1s-.44,1-1,1H6.61c-.56,0-1-.44-1-1Zm0-6.6l1.95-1.95c.22-.21,.51-.33,.81-.33h7.25c.3,0,.59,.12,.81,.33l1.95,1.95H5.61Z"/>
</svg>