<?xml version="1.0" encoding="UTF-8"?>
<svg id="_图层_1" data-name="图层 1" xmlns="http://www.w3.org/2000/svg" viewBox="0 0 24 24">
  <path d="M12,1.71c1.75,0,3.37,.2,4.83,.54,.51,.12,.97,.25,1.36,.37,.22,.07,.39,.13,.49,.17,1.03,.35,1.81,1.49,1.81,2.61V14.69c0,1.05-.61,2.3-1.42,2.92l-5.49,4.17c-.89,.68-2.27,.68-3.16,0l-5.49-4.17c-.81-.61-1.42-1.88-1.42-2.92V5.41c0-1.13,.78-2.27,1.81-2.61,.1-.04,.26-.1,.48-.17,.45-.14,.9-.27,1.36-.37,1.46-.34,3.08-.54,4.83-.54Zm0,1.54c-1.63,0-3.13,.19-4.48,.5-.47,.11-.88,.22-1.24,.34-.12,.04-.23,.08-.31,.11-.05,.02-.08,.03-.09,.03-.02,0-.04,.02-.06,.02-.39,.12-.76,.67-.76,1.15V14.69c0,.57,.39,1.37,.81,1.69l5.49,4.17c.34,.26,.95,.26,1.29,0l5.49-4.17c.42-.32,.81-1.12,.81-1.69V5.41c0-.48-.38-1.02-.77-1.15l-.05-.02s-.06-.02-.09-.03c-.09-.03-.19-.07-.31-.11-.41-.13-.82-.24-1.24-.34-1.35-.31-2.85-.5-4.48-.5Zm3.31,4.6c.3-.3,.79-.3,1.09,0,.3,.3,.3,.79,0,1.09h0l-5.14,5.14c-.3,.3-.79,.3-1.09,0l-2.58-2.57c-.3-.3-.31-.79-.01-1.09,.3-.3,.79-.31,1.09-.01,0,0,0,0,0,0l2.03,2.02,4.59-4.6Z"/>
</svg>