<?xml version="1.0" encoding="UTF-8"?>
<svg id="_图层_1" data-name="图层 1" xmlns="http://www.w3.org/2000/svg" viewBox="0 0 24 24">
  <path d="M16.84,9.79h3.21c1.21,0,2.2-.98,2.2-2.2v-3.21c0-1.21-.98-2.2-2.2-2.2h-3.21c-1.21,0-2.2,.98-2.2,2.2v.61h-2.16c-.57,0-1.03,.46-1.03,1.03v5.14h-1.2v-1.06c0-1.21-.98-2.2-2.2-2.2H3.88c-1.21,0-2.2,.98-2.2,2.2v4.17c0,1.21,.98,2.2,2.2,2.2h4.17c1.21,0,2.2-.98,2.2-2.2v-1.06h1.2v5.14c0,.57,.46,1.03,1.03,1.03h2.16v.5c0,1.21,.98,2.2,2.2,2.2h3.21c1.21,0,2.2-.98,2.2-2.2v-3.21c0-1.21-.98-2.2-2.2-2.2h-3.21c-1.21,0-2.2,.98-2.2,2.2v.66h-1.13V7.04h1.13v.55c0,1.21,.98,2.2,2.2,2.2Zm-8.64,4.48c0,.08-.06,.14-.14,.14H3.88c-.08,0-.14-.06-.14-.14v-4.17c0-.08,.06-.14,.14-.14h4.17c.08,0,.14,.06,.14,.14v4.17Zm8.5,2.4c0-.08,.06-.14,.14-.14h3.21c.08,0,.14,.06,.14,.14v3.21c0,.08-.06,.14-.14,.14h-3.21c-.08,0-.14-.06-.14-.14v-3.21Zm0-12.29c0-.08,.06-.14,.14-.14h3.21c.08,0,.14,.06,.14,.14v3.21c0,.08-.06,.14-.14,.14h-3.21c-.08,0-.14-.06-.14-.14v-3.21Z"/>
</svg>