<?xml version="1.0" encoding="UTF-8"?>
<svg id="_图层_1" data-name="图层 1" xmlns="http://www.w3.org/2000/svg" viewBox="0 0 24 24">
  <path d="M12,22.29c-5.68,0-10.29-4.61-10.29-10.29S6.32,1.72,12,1.72s10.29,4.61,10.29,10.29-4.61,10.29-10.29,10.29Zm0-1.54c4.83,0,8.74-3.91,8.74-8.74S16.83,3.26,12,3.26,3.26,7.18,3.26,12s3.91,8.74,8.74,8.74Zm.2-6.4l-1.96-2.14-2.31,2.39c-.3,.31-.78,.32-1.09,.02-.31-.3-.32-.78-.02-1.09l2.88-2.98c.3-.31,.78-.32,1.09-.02,.01,.01,.02,.02,.03,.03l1.97,2.15,3.29-3.3c.3-.31,.78-.32,1.09-.02s.32,.78,.02,1.09c0,0-.01,.01-.02,.02l-3.86,3.87c-.3,.3-.79,.3-1.09,0,0,0-.02-.02-.02-.02h0Z"/>
</svg>