<?xml version="1.0" encoding="UTF-8"?>
<svg id="_图层_1" data-name="图层 1" xmlns="http://www.w3.org/2000/svg" viewBox="0 0 24 24">
  <defs>
    <style>
      .apa-normal-win1 {
        fill: #231815;
        fill-rule: evenodd;
      }
    </style>
  </defs>
  <g>
    <path class="apa-normal-win1" d="M23.25,18.97c0,1.16-.41,2.15-1.23,2.97-.82,.82-1.81,1.23-2.97,1.23h-2.85c-1.16,0-2.15-.41-2.97-1.23-.82-.82-1.23-1.81-1.23-2.97v-3.16c0-1.16,.41-2.15,1.23-2.97,.82-.82,1.81-1.23,2.97-1.23h2.85c1.16,0,2.15,.41,2.97,1.23,.82,.82,1.23,1.81,1.23,2.97v3.16m-2.53-4.82c-.46-.46-1.02-.69-1.67-.69h-2.85c-.65,0-1.2,.23-1.66,.69-.46,.46-.69,1.01-.69,1.66v3.16c0,.65,.23,1.21,.69,1.67,.46,.46,1.01,.69,1.66,.69h2.86c.65,0,1.21-.23,1.67-.69,.46-.46,.69-1.02,.69-1.67v-3.16c0-.65-.23-1.2-.69-1.66"/>
    <path class="apa-normal-win1" d="M21.52,8.54h0c0,.06,0,.12,.02,.17,.01,.06,.03,.11,.05,.16,.02,.05,.05,.1,.08,.15,.03,.05,.07,.09,.11,.13,.04,.04,.08,.08,.13,.11,.05,.03,.1,.06,.15,.08,.05,.02,.11,.04,.16,.05,.06,.01,.11,.02,.17,.02,.06,0,.11,0,.17-.02s.11-.03,.16-.05,.1-.05,.15-.08c.05-.03,.09-.07,.13-.11,.04-.04,.08-.08,.11-.13,.03-.05,.06-.1,.08-.15,.02-.05,.04-.11,.05-.16,.01-.06,.02-.11,.02-.17v-3.46c0-1.19-.42-2.21-1.27-3.06-.85-.84-1.87-1.27-3.06-1.27H5.08c-1.19,0-2.21,.42-3.06,1.27-.84,.85-1.27,1.87-1.27,3.06v13.85c0,1.19,.42,2.21,1.27,3.06,.85,.84,1.87,1.27,3.06,1.27h4.04c.06,0,.11,0,.17-.02,.06-.01,.11-.03,.16-.05,.05-.02,.1-.05,.15-.08,.05-.03,.09-.07,.13-.11,.04-.04,.08-.08,.11-.13,.03-.05,.06-.1,.08-.15,.02-.05,.04-.11,.05-.16,.01-.06,.02-.11,.02-.17,0-.06,0-.11-.02-.17s-.03-.11-.05-.16-.05-.1-.08-.15c-.03-.05-.07-.09-.11-.13-.04-.04-.08-.08-.13-.11-.05-.03-.1-.06-.15-.08-.05-.02-.11-.04-.16-.05-.06-.01-.11-.02-.17-.02H5.08c-.72,0-1.33-.25-1.84-.76-.51-.51-.76-1.12-.76-1.84V5.08c0-.72,.25-1.33,.76-1.84,.51-.51,1.12-.76,1.84-.76h13.85c.72,0,1.33,.25,1.84,.76,.51,.51,.76,1.12,.76,1.84v3.46Z"/>
  </g>
  <path class="apa-normal-win1" d="M4.63,11.03c.04,.11,.11,.2,.19,.28,.04,.04,.08,.08,.13,.11,.05,.03,.1,.06,.15,.08s.11,.04,.16,.05c.05,.01,.11,.02,.17,.02,.06,0,.11,0,.17-.02,.06-.01,.11-.03,.16-.05,.05-.02,.1-.05,.15-.08,.05-.03,.09-.07,.13-.11,.08-.08,.14-.18,.19-.28,.04-.11,.07-.22,.07-.33v-2.81s3.42,3.42,3.42,3.42c.04,.04,.08,.08,.13,.11,.05,.03,.1,.06,.15,.08,.05,.02,.11,.04,.16,.05,.06,.01,.11,.02,.17,.02,.06,0,.11,0,.17-.02,.05-.01,.11-.03,.16-.05s.1-.05,.15-.08c.05-.03,.09-.07,.13-.11s.08-.08,.11-.13c.03-.05,.06-.1,.08-.15,.02-.05,.04-.11,.05-.16,.01-.06,.02-.11,.02-.17,0-.06,0-.11-.02-.17-.01-.06-.03-.11-.05-.16-.02-.05-.05-.1-.08-.15-.03-.05-.07-.09-.11-.13l-3.42-3.42h2.81c.11,0,.23-.02,.33-.07,.11-.04,.2-.11,.28-.19,.04-.04,.08-.08,.11-.13,.03-.05,.06-.1,.08-.15,.02-.05,.04-.11,.05-.16,.01-.06,.02-.11,.02-.17,0-.06,0-.11-.02-.17-.01-.06-.03-.11-.05-.16-.02-.05-.05-.1-.08-.15-.03-.05-.07-.09-.11-.13-.08-.08-.18-.14-.28-.19-.11-.04-.22-.07-.33-.07H5.43c-.06,0-.11,0-.17,.02-.06,.01-.11,.03-.16,.05-.05,.02-.1,.05-.15,.08-.05,.03-.09,.07-.13,.11-.04,.04-.08,.08-.11,.13-.03,.05-.06,.1-.08,.15-.02,.05-.04,.11-.05,.16-.01,.06-.02,.11-.02,.17v4.9c0,.11,.02,.23,.07,.33Z"/>
</svg>