<?xml version="1.0" encoding="UTF-8"?>
<svg id="_图层_1" data-name="图层 1" xmlns="http://www.w3.org/2000/svg" viewBox="0 0 24 24">
  <path d="M21.28,11.05c-.53,0-.95,.43-.95,.95,0,4.59-3.73,8.32-8.32,8.32S3.68,16.59,3.68,12,7.41,3.68,12,3.68c.53,0,.95-.43,.95-.95s-.43-.95-.95-.95C6.36,1.77,1.77,6.36,1.77,12s4.59,10.23,10.23,10.23,10.23-4.59,10.23-10.23c0-.53-.43-.95-.95-.95Zm-1.03-9.28h-3.61c-.53,0-.95,.43-.95,.95s.43,.95,.95,.95h1.81L10.29,11.83c-.36,.37-.36,.95,0,1.32,.19,.19,.43,.29,.68,.29s.48-.09,.66-.27L20.32,4.5v2.86c0,.53,.43,.95,.95,.95s.95-.43,.95-.95V3.75c0-1.09-.89-1.99-1.99-1.99Z"/>
</svg>