<?xml version="1.0" encoding="UTF-8"?>
<svg id="_图层_1" data-name="图层 1" xmlns="http://www.w3.org/2000/svg" viewBox="0 0 24 24">
  <path d="M19.11,3H4.89c-1.04,0-1.89,.85-1.89,1.89v14.21c0,1.04,.85,1.89,1.89,1.89h2.98c.41,0,.75-.34,.75-.75s-.34-.75-.75-.75h-2.98c-.22,0-.4-.18-.4-.4V8.62h15.76c.41,0,.75-.33,.75-.75v-2.98c0-1.04-.85-1.89-1.89-1.89Zm.4,4.12H4.49v-2.23c0-.22,.18-.4,.4-.4h14.22c.22,0,.4,.18,.4,.4v2.23Zm1.37,5.28c.08-.12,.12-.26,.12-.4,0-.41-.33-.75-.74-.75H12c-.14,0-.28,.04-.41,.12-.17,.11-.28,.28-.32,.47-.04,.2,0,.4,.11,.56l2.48,3.72-.07,.11-2.41,3.61c-.08,.12-.12,.26-.12,.4,0,.41,.33,.75,.74,.75h8.26c.14,0,.28-.04,.41-.13,.17-.11,.28-.28,.32-.47,.04-.2,0-.4-.11-.56l-2.48-3.72,.07-.11,2.41-3.61Zm-3.99,4.13l1.98,2.97h-5.46l.2-.29,1.78-2.67c.17-.25,.17-.58,0-.83l-1.98-2.97h5.46l-1.98,2.97c-.17,.25-.17,.58,0,.83Z"/>
</svg>