<?xml version="1.0" encoding="UTF-8"?>
<svg id="_图层_1" data-name="图层 1" xmlns="http://www.w3.org/2000/svg" viewBox="0 0 24 24">
  <defs>
    <style>
      .cls-1 {
        fill: #fff;
      }

      .cls-2 {
        fill: #ccc;
      }

      .cls-3 {
        fill: #f5bd0c;
      }
    </style>
  </defs>
  <path class="cls-1" d="M12.31,4.38c-.22,.14-.38,.35-.47,.59-.1,.31-.08,.64,.04,.95,.1,.32,.29,.6,.56,.8,.14,.1,.29,.16,.46,.18,.17,.02,.33,0,.48-.08,.18-.1,.32-.25,.4-.43,.08-.19,.13-.38,.13-.59,.02-.26-.02-.51-.1-.76-.09-.27-.26-.49-.49-.65-.12-.08-.25-.13-.39-.15s-.28,0-.41,.05c-.07,.03-.14,.07-.21,.11"/>
  <path class="cls-2" d="M19.47,14.63c-.13-.71-.33-1.41-.6-2.08-.18-.5-.43-.97-.74-1.4-.31-.41-.71-.76-1.01-1.18-.16-.22-.3-.46-.46-.68-.07-.14-.13-.28-.2-.42-.2-.44-.38-.89-.62-1.31-.04-.07-.08-.13-.12-.19-.03-.4-.07-.8-.1-1.21,.02-.81-.05-1.62-.2-2.41-.11-.38-.27-.74-.48-1.08-.25-.39-.56-.73-.93-1.01-.61-.43-1.33-.66-2.07-.66-.55-.01-1.09,.11-1.57,.36-.51,.28-.92,.71-1.18,1.23-.24,.53-.37,1.09-.38,1.67-.02,.57,.03,1.13,.06,1.7,.02,.59,.01,1.18,.06,1.77,.02,.19,.04,.38,.04,.57,0,.1,0,.19,0,.28v.02c-.26,.43-.55,.85-.86,1.25-.22,.27-.43,.55-.65,.81-.28,.32-.53,.67-.72,1.06-.13,.33-.23,.67-.31,1.02v.03c-.13,.4-.28,.79-.46,1.16-.02,.04-.04,.07-.05,.11-.11,.22-.22,.45-.34,.67l-.14,.25c-.09,.15-.16,.31-.23,.47-.04,.1-.07,.2-.09,.3-.03,.22-.02,.44,.04,.65,.01,.05,.03,.11,.05,.16,.06,.16,.12,.31,.2,.45,.04,.07,.07,.13,.11,.2l.03,.05c.04,.06,.07,.13,.11,.19h0c.04,.08,.09,.15,.14,.21h0c.05,.08,.1,.14,.15,.21,.19,.73,.53,1.4,1,1.98-.07,.13-.14,.25-.21,.38-.26,.37-.47,.77-.63,1.19-.07,.22-.09,.44-.05,.67,.04,.23,.15,.43,.33,.58,.12,.09,.25,.15,.4,.18,.14,.03,.29,.05,.44,.04,.56-.04,1.11-.15,1.64-.32,.32-.09,.64-.16,.97-.23,.34-.08,.68-.13,1.03-.14,.09,0,.17,0,.25,0,.24,.03,.47,.04,.71,.03h.09c.06,0,.12,0,.19,.01,.42,.02,.83,.07,1.24,.13,.36,.06,.72,.13,1.08,.21,.55,.17,1.12,.28,1.69,.32,.15,0,.3,0,.45-.04,.15-.03,.29-.1,.41-.19,.18-.15,.29-.35,.33-.58,.04-.22,.02-.45-.05-.67-.17-.42-.38-.82-.64-1.19-.09-.15-.18-.31-.27-.46,.39-.43,.73-.91,1.02-1.42,.18,.01,.35-.01,.52-.07,.44-.15,.82-.43,1.09-.82,.08-.11,.14-.24,.18-.37,.17-.27,.29-.57,.35-.89,.08-.52,.07-1.06-.04-1.58h0Z"/>
  <path class="cls-1" d="M9.81,7.51c-.08,.1-.13,.22-.16,.34s-.05,.25-.05,.38c0,.25-.01,.51-.06,.76-.09,.26-.22,.5-.39,.71-.29,.37-.53,.78-.68,1.23-.08,.27-.11,.56-.08,.85-.3,.45-.57,.93-.79,1.42-.34,.75-.55,1.55-.64,2.37-.11,1.01,.04,2.03,.43,2.96,.28,.67,.72,1.28,1.26,1.76,.28,.24,.59,.45,.92,.61,1.17,.57,2.55,.56,3.71-.04,.58-.34,1.11-.76,1.57-1.24,.3-.27,.57-.58,.8-.91,.39-.68,.62-1.43,.67-2.21,.24-1.35,.09-2.73-.42-4-.2-.42-.47-.81-.8-1.15-.09-.59-.26-1.17-.51-1.71-.18-.39-.4-.76-.57-1.16-.07-.16-.13-.33-.2-.49-.07-.16-.17-.31-.3-.43-.13-.12-.29-.22-.46-.27-.17-.06-.35-.09-.53-.09-.36-.02-.73,.03-1.08,.02-.29-.01-.57-.06-.86-.05-.14,0-.29,.04-.42,.09-.14,.05-.25,.14-.35,.25m.12-3.14c-.14,.01-.26,.07-.36,.16s-.17,.21-.21,.34c-.07,.26-.09,.54-.05,.8,0,.24,.05,.49,.13,.72,.05,.11,.11,.22,.2,.31s.19,.15,.31,.18c.11,.03,.23,.02,.34-.01s.21-.1,.29-.18c.12-.12,.2-.27,.25-.43,.04-.16,.06-.33,.06-.5,0-.21-.03-.42-.1-.62s-.17-.38-.32-.54c-.07-.07-.15-.14-.24-.18-.09-.04-.19-.07-.29-.06m2.39,0c-.22,.14-.38,.35-.47,.59-.1,.31-.08,.64,.04,.95,.1,.32,.29,.6,.56,.8,.14,.1,.29,.16,.46,.18,.17,.02,.33,0,.48-.08,.18-.1,.32-.25,.4-.43,.08-.19,.13-.38,.13-.59,.02-.26-.02-.51-.1-.76-.09-.27-.26-.49-.49-.65-.12-.08-.25-.13-.39-.15s-.28,0-.41,.05c-.07,.03-.14,.07-.21,.11"/>
  <path class="cls-2" d="M12.8,5.01c-.08,0-.16,.03-.22,.07s-.13,.1-.17,.17c-.09,.13-.13,.29-.14,.45,0,.12,.01,.24,.05,.35s.11,.21,.2,.29c.1,.08,.21,.12,.33,.13,.12,0,.24-.03,.34-.1,.08-.06,.15-.13,.19-.22,.05-.09,.07-.18,.09-.28,.03-.17,0-.35-.08-.5-.08-.16-.21-.27-.37-.34-.07-.03-.14-.04-.22-.04"/>
  <path class="cls-1" d="M9.93,4.38c-.14,.01-.26,.07-.36,.16s-.17,.21-.21,.34c-.07,.26-.09,.54-.05,.8,0,.24,.05,.49,.13,.72,.05,.12,.11,.22,.2,.31s.19,.15,.31,.18c.11,.03,.23,.02,.34-.01s.21-.1,.29-.18c.12-.12,.2-.27,.25-.43,.04-.16,.06-.33,.06-.5,0-.21-.03-.42-.1-.62s-.17-.38-.32-.54c-.07-.07-.15-.14-.24-.18-.09-.04-.19-.07-.29-.06"/>
  <path class="cls-2" d="M9.6,5.49c-.03,.17-.03,.34,.03,.51,.04,.11,.1,.21,.18,.29,.05,.06,.11,.1,.18,.14,.07,.04,.14,.05,.22,.03,.07-.02,.13-.06,.17-.11s.07-.12,.09-.18c.06-.2,.05-.4-.01-.6-.04-.14-.12-.27-.23-.37-.05-.05-.12-.08-.19-.1-.07-.02-.14-.01-.21,.02-.07,.04-.13,.09-.16,.16s-.06,.15-.07,.22"/>
  <path class="cls-2" d="M9.28,7.61s.01,.05,.03,.06c.02,.04,.05,.06,.09,.09,.03,.02,.07,.04,.1,.06,.17,.12,.33,.26,.45,.43,.15,.24,.34,.45,.55,.63,.16,.11,.35,.18,.55,.2,.23,.02,.46-.01,.69-.08,.21-.06,.4-.15,.59-.26,.32-.26,.66-.48,1.02-.67,.09-.03,.17-.05,.25-.09,.08-.04,.15-.1,.2-.18,.03-.08,.05-.17,.05-.25,.01-.09,.04-.18,.06-.27,.02-.09,.01-.18-.02-.27-.04-.07-.09-.12-.16-.16-.07-.03-.14-.05-.22-.06-.15,0-.3,.02-.45,.05-.2,.02-.4,0-.6,0-.25,0-.5,.06-.75,.07-.29,.02-.57-.03-.86-.04-.12,0-.25,0-.37,.02-.12,.02-.24,.06-.34,.13-.1,.08-.18,.16-.27,.24-.05,.04-.1,.08-.15,.1-.06,.03-.11,.04-.18,.04-.03,0-.06,0-.09,0-.02,0-.04,.02-.05,.03l-.04,.05s-.05,.08-.07,.12"/>
  <path class="cls-1" d="M9.91,6.97c-.1,.06-.2,.13-.3,.19-.05,.03-.1,.08-.13,.13-.02,.04-.03,.08-.02,.13s0,.09,0,.13c0,.03-.01,.06-.01,.09,0,.02,0,.03,0,.04,0,.02,.01,.03,.02,.04,.01,.01,.03,.02,.05,.03,.02,0,.04,0,.06,.01,.09,.03,.17,.07,.23,.14,.07,.06,.13,.13,.2,.19,.2,.15,.44,.23,.69,.23,.25,0,.49-.04,.73-.1,.19-.04,.37-.09,.56-.15,.28-.11,.54-.26,.76-.46,.1-.1,.2-.18,.31-.26,.1-.06,.22-.11,.32-.17,.01,0,.02-.01,.03-.02,0,0,.02-.02,.02-.03,0-.02,0-.04,0-.06,0-.02-.01-.03-.02-.05-.01-.02-.03-.03-.04-.04-.12-.09-.25-.13-.4-.14-.15-.01-.28,0-.42-.03-.13-.03-.26-.07-.38-.11-.13-.04-.27-.08-.41-.1-.33-.05-.66-.05-.98,.03-.3,.07-.6,.18-.87,.34"/>
  <path class="cls-2" d="M9.88,6.63c-.15,.1-.28,.22-.39,.35-.07,.08-.12,.16-.15,.26-.02,.08-.04,.15-.05,.23,0,.03-.01,.06-.01,.09,0,.02,0,.03,0,.04,0,.02,.01,.03,.02,.04,.02,.02,.04,.03,.07,.03,.02,0,.05,0,.07,0,.11,.02,.21,.06,.3,.13,.09,.06,.18,.14,.27,.2,.21,.13,.45,.19,.7,.2,.25,0,.49-.02,.73-.07,.19-.04,.38-.09,.56-.16,.27-.12,.53-.27,.76-.46,.11-.08,.21-.17,.31-.26,.03-.03,.07-.07,.1-.1,.04-.03,.08-.05,.12-.07,.07-.02,.14-.02,.21,0,.05,.01,.1,.02,.16,.02,.03,0,.05,0,.08-.01,.03-.01,.05-.03,.06-.05,.02-.03,.03-.06,.03-.1s-.01-.07-.03-.1c-.04-.06-.1-.1-.16-.13-.09-.04-.18-.06-.27-.08-.28-.07-.56-.17-.82-.3-.13-.07-.25-.14-.38-.2-.13-.07-.27-.14-.41-.18-.32-.09-.67-.07-.98,.05-.35,.12-.67,.34-.91,.62"/>
  <path class="cls-1" d="M11.52,6.23c.02,.06,.11,.05,.16,.07s.08,.07,.13,.08c.05,0,.13-.02,.13-.07,.01-.07-.09-.11-.15-.13-.08-.04-.17-.04-.25,0-.02,0-.04,.03-.03,.05Zm-.86-.03c-.07-.02-.18,.1-.15,.16,.01,.02,.04,.04,.06,.03s.06-.08,.09-.1c.03-.02,.02-.08,0-.09Z"/>
  <path class="cls-3" d="M21.42,20.24c-.05,.13-.12,.25-.21,.36-.21,.23-.47,.41-.75,.53-.48,.22-.94,.47-1.39,.74-.29,.2-.57,.42-.82,.66-.21,.22-.43,.42-.67,.61-.25,.18-.53,.3-.83,.35-.37,.05-.74-.01-1.08-.16-.24-.09-.45-.26-.6-.47-.13-.23-.18-.49-.17-.75,.02-.46,.07-.92,.17-1.37,.07-.38,.13-.75,.17-1.13,.07-.69,.08-1.39,.03-2.08-.01-.12-.01-.23,0-.35,.02-.24,.21-.42,.45-.41,.11,0,.22,0,.32,.03,.25,.03,.5,.07,.75,.13,.15,.04,.31,.1,.46,.14,.26,.08,.53,.1,.79,.07,.28-.07,.56-.11,.85-.13,.12,0,.24,.03,.35,.06,.12,.03,.22,.09,.31,.17,.06,.07,.11,.15,.15,.23,.05,.13,.08,.26,.09,.4,0,.12,.02,.24,.03,.36,.04,.19,.14,.37,.27,.53,.13,.15,.28,.28,.43,.4,.15,.13,.3,.25,.47,.36,.08,.05,.16,.1,.23,.16,.08,.06,.14,.13,.19,.21,.06,.11,.08,.24,.05,.36"/>
  <path class="cls-2" d="M21.42,20.24c-.05,.13-.12,.25-.21,.36-.21,.23-.47,.41-.75,.53-.48,.22-.94,.47-1.39,.74-.29,.2-.57,.42-.82,.66-.21,.22-.43,.42-.67,.61-.25,.18-.53,.3-.83,.35-.37,.05-.74-.01-1.08-.16-.24-.09-.45-.26-.6-.47-.13-.23-.18-.49-.17-.75,.02-.46,.07-.92,.17-1.37,.07-.38,.13-.75,.17-1.13,.07-.69,.08-1.39,.03-2.08-.01-.12-.01-.23,0-.35,.02-.24,.21-.42,.45-.41,.11,0,.22,0,.32,.03,.25,.03,.5,.07,.75,.13,.15,.04,.31,.1,.46,.14,.26,.08,.53,.1,.79,.07,.28-.07,.56-.11,.85-.13,.12,0,.24,.03,.35,.06,.12,.03,.22,.09,.31,.17,.06,.07,.11,.15,.15,.23,.05,.13,.08,.26,.09,.4,0,.12,.02,.24,.03,.36,.04,.19,.14,.37,.27,.53,.13,.15,.28,.28,.43,.4,.15,.13,.3,.25,.47,.36,.08,.05,.16,.1,.23,.16,.08,.06,.14,.13,.19,.21,.06,.11,.08,.24,.05,.36m-15.79-3.85c.12-.05,.26-.06,.39-.04,.13,.03,.25,.08,.36,.15,.21,.16,.39,.35,.53,.57,.35,.49,.69,.98,1,1.5,.25,.42,.48,.85,.77,1.25,.19,.26,.4,.49,.59,.75,.2,.25,.35,.54,.44,.84,.11,.4,.07,.83-.12,1.21-.14,.26-.34,.48-.59,.63-.25,.15-.54,.23-.83,.22-.46-.06-.91-.2-1.32-.42-.88-.35-1.83-.46-2.73-.73-.28-.08-.55-.18-.83-.26-.13-.03-.25-.07-.37-.12-.12-.05-.22-.14-.29-.24-.05-.09-.08-.19-.07-.29s.02-.2,.06-.29c.07-.19,.18-.36,.25-.54,.11-.31,.15-.64,.13-.96-.02-.32-.07-.65-.09-.97-.02-.15-.01-.29,.02-.43,.04-.29,.26-.52,.55-.56,.13-.02,.27-.03,.4-.03,.13,0,.27,0,.4,0s.27-.05,.38-.11c.11-.07,.2-.16,.28-.26s.14-.21,.2-.33,.13-.22,.21-.32c.08-.1,.18-.18,.3-.24"/>
  <path class="cls-2" d="M9.72,21.42c-.09-.3-.24-.59-.44-.84-.19-.26-.4-.5-.59-.75-.29-.39-.52-.83-.77-1.25-.31-.52-.65-1.02-1-1.5-.14-.22-.32-.41-.53-.57-.11-.08-.23-.13-.36-.15-.13-.03-.26-.01-.39,.04-.12,.05-.22,.13-.3,.24-.08,.1-.15,.21-.21,.32s-.13,.22-.2,.33c-.07,.11-.17,.2-.28,.26-.12,.06-.25,.1-.38,.11-.13,0-.27,0-.4,0-.13,0-.27,0-.4,.03-.29,.04-.51,.27-.55,.56-.03,.14-.03,.29-.02,.43,.02,.33,.08,.65,.09,.97,.03,.32-.02,.65-.13,.96-.07,.19-.18,.35-.25,.54-.04,.09-.06,.19-.06,.29,0,.1,.02,.2,.07,.29,.07,.11,.17,.19,.29,.24,.12,.05,.24,.09,.37,.12,.28,.08,.55,.18,.83,.26,.9,.27,1.86,.38,2.73,.73,.41,.21,.86,.35,1.32,.42,.29,0,.58-.07,.83-.22,.25-.15,.45-.37,.59-.63,.19-.37,.23-.8,.12-1.21Z"/>
</svg>