<svg id="图层_1" data-name="图层 1" xmlns="http://www.w3.org/2000/svg" viewBox="0 0 24 24">
  <path
    d="M2.27,7.47h2.8A2.3,2.3,0,0,0,7.34,5.16V4.72H23a1,1,0,0,0,0-2H7.34V2.31A2.3,2.3,0,0,0,5.07,0H2.27A2.3,2.3,0,0,0,0,2.31V5.16A2.3,2.3,0,0,0,2.27,7.47ZM2,2.31A.32.32,0,0,1,2.27,2h2.8a.32.32,0,0,1,.32.33V5.16a.32.32,0,0,1-.32.33H2.27A.32.32,0,0,1,2,5.16Zm19.78,6h-2.8a2.29,2.29,0,0,0-2.27,2.31V11H1a1,1,0,0,0,0,2H16.66v.43a2.29,2.29,0,0,0,2.27,2.31h2.8A2.29,2.29,0,0,0,24,13.42V10.58A2.29,2.29,0,0,0,21.73,8.27Zm.32,5.15a.32.32,0,0,1-.32.33h-2.8a.33.33,0,0,1-.32-.33V10.58a.33.33,0,0,1,.32-.33h2.8a.32.32,0,0,1,.32.33Zm1,5.86H7.34v-.44a2.3,2.3,0,0,0-2.27-2.31H2.27A2.3,2.3,0,0,0,0,18.84v2.85A2.3,2.3,0,0,0,2.27,24h2.8a2.3,2.3,0,0,0,2.27-2.31v-.43H23a1,1,0,0,0,0-2ZM5.39,21.69a.32.32,0,0,1-.32.33H2.27A.32.32,0,0,1,2,21.69V18.84a.32.32,0,0,1,.32-.33h2.8a.32.32,0,0,1,.32.33Z" />
</svg>