<?xml version="1.0" encoding="UTF-8"?>
<svg id="_图层_1" data-name="图层 1" xmlns="http://www.w3.org/2000/svg" viewBox="0 0 24 24">
  <path d="M2.53,13.24h2.2c.43,1.04,1.47,1.73,2.58,1.73s2.15-.69,2.58-1.73h11.57c.57,0,1.03-.46,1.03-1.03v-.21c0-.57-.46-1.03-1.03-1.03H9.86c-.46-.99-1.45-1.62-2.55-1.62s-2.08,.64-2.55,1.62H2.53c-.57,0-1.03,.46-1.03,1.03v.21c0,.57,.46,1.03,1.03,1.03Zm3.99-1.1c0-.43,.35-.79,.79-.79s.79,.35,.79,.79-.35,.79-.79,.79-.79-.35-.79-.79Z"/>
  <path d="M2.53,5.73H13.39c.43,1.04,1.47,1.73,2.58,1.73s2.15-.69,2.58-1.73h2.91c.57,0,1.03-.46,1.03-1.03v-.21c0-.57-.46-1.03-1.03-1.03h-2.95c-.46-.99-1.46-1.63-2.55-1.63s-2.08,.64-2.55,1.63H2.53c-.57,0-1.03,.46-1.03,1.03v.21c0,.57,.46,1.03,1.03,1.03Zm12.66-1.08c0-.43,.35-.79,.79-.79s.79,.35,.79,.78-.35,.79-.79,.79-.79-.35-.79-.78Z"/>
  <path d="M2.53,20.51H13.76c.45,1.01,1.45,1.67,2.56,1.67s2.11-.67,2.56-1.67h2.58c.57,0,1.03-.46,1.03-1.03v-.21c0-.57-.46-1.03-1.03-1.03h-2.57c-.45-1.01-1.47-1.69-2.57-1.69-.75,0-1.46,.29-1.99,.82-.25,.25-.44,.54-.58,.86H2.53c-.57,0-1.03,.46-1.03,1.03v.21c0,.57,.46,1.03,1.03,1.03Zm14.39-.52h-.02c-.12,.12-.31,.25-.58,.25s-.46-.13-.58-.23c-.19-.17-.29-.4-.29-.64s.09-.45,.27-.62c.33-.32,.87-.32,1.21,0,.17,.17,.27,.39,.27,.62s-.1,.45-.28,.62Z"/>
</svg>