<?xml version="1.0" encoding="UTF-8"?>
<svg id="_图层_1" data-name="图层 1" xmlns="http://www.w3.org/2000/svg" viewBox="0 0 24 24">
  <path d="M23.56,8.38c.1-.23,.15-.48,.16-.75,0-.03,0-.06,0-.09v-.03l-.05-4.92c-.01-1.21-1-2.19-2.21-2.19h-.02c-1.1,.01-2,.82-2.16,1.87-.26-.19-.53-.37-.81-.54C15.75,.08,12.52-.41,9.41,.35,6.3,1.11,3.67,3.04,2.01,5.78S-.14,11.75,.62,14.86c.76,3.11,2.69,5.74,5.43,7.4,1.9,1.15,4.03,1.74,6.2,1.74,.96,0,1.93-.11,2.88-.35,3.11-.76,5.74-2.7,7.4-5.44,.63-1.04,.3-2.4-.74-3.03-1.04-.63-2.4-.3-3.03,.74-2.17,3.57-6.84,4.72-10.41,2.56-1.73-1.05-2.95-2.71-3.44-4.68-.48-1.97-.17-4,.88-5.74,2.14-3.53,6.73-4.7,10.29-2.63-.97,.24-1.69,1.12-1.68,2.16,.01,1.21,1,2.19,2.21,2.19h.02l4.92-.05c.84,0,1.56-.48,1.93-1.17,.03-.06,.06-.12,.09-.18,0,0,0,0,0-.01Z"/>
</svg>