<?xml version="1.0" encoding="UTF-8"?>
<svg id="_图层_1" data-name="图层 1" xmlns="http://www.w3.org/2000/svg" xmlns:xlink="http://www.w3.org/1999/xlink" viewBox="0 0 24 24">
  <defs>
    <style>
      .apa-logo1 {
        fill: #fff;
      }

      .apa-logo2 {
        fill: url(#hbfis423e);
      }

      .apa-logo3 {
        fill: #00c0ff;
      }

      .apa-logo4 {
        fill: url(#hcuisdiofv);
      }
    </style>
    <linearGradient id="hcuisdiofv" data-name="未命名的渐变 16" x1="11.91" y1=".64" x2="12.38" y2="23.32" gradientUnits="userSpaceOnUse">
      <stop offset="0" stop-color="#22a6ff"/>
      <stop offset=".57" stop-color="#216eff"/>
      <stop offset="1" stop-color="#1054ff"/>
    </linearGradient>
    <linearGradient id="hbfis423e" data-name="未命名的渐变 16" x1="5.74" y1="11.35" x2="13.64" y2="11.35" xlink:href="#hcuisdiofv"/>
  </defs>
  <path class="apa-logo4" d="M22.48,6.66l.43-.63c.4-.58,.37-1.35-.07-1.9l-1.29-1.59c-.46-.56-1.23-.75-1.89-.45l-.82,.37c-.45,.2-.97,.18-1.39-.06-1.6-.91-3.46-1.43-5.43-1.43,0,0,0,0-.01,0,0,0,0,0-.01,0-1.98,0-3.83,.52-5.43,1.43-.43,.24-.94,.26-1.39,.06l-.82-.37c-.66-.3-1.44-.12-1.89,.45l-1.29,1.59c-.44,.55-.47,1.32-.07,1.9l.43,.63c.29,.42,.35,.95,.17,1.42-.46,1.22-.72,2.54-.72,3.92,0,6.02,4.84,10.92,10.84,11.02,0,0,0,0,.01,0,.06,0,.12,0,.17,0,0,0,0,0,.01,0,0,0,0,0,.01,0,.06,0,.12,0,.17,0,0,0,0,0,.01,0,6-.1,10.84-5,10.84-11.02,0-1.38-.25-2.7-.72-3.92-.18-.47-.12-1,.17-1.42Z"/>
  <path class="apa-logo1" d="M20.22,11.96c-.11-4.72-3.68-7.52-8.22-7.52S3.78,7.24,3.78,11.96s3.68,6.45,8.22,6.45c.54,0,1.07-.02,1.59-.08h0s2.41-.44,2.08,.96c-.23,.94,4.68-1.92,4.55-7.32Z"/>
  <path class="apa-logo2" d="M13.53,13.75c-1.07-1.91-2.09-3.72-3.15-5.62-.32-.57-1.13-.56-1.45,0l-3.1,5.62c-.3,.55,.09,1.22,.72,1.22h6.25c.63,0,1.03-.68,.72-1.23Zm-2.87-.63h-1.97c-.21,0-.34-.22-.24-.4l.94-1.78c.1-.19,.37-.2,.48,0l1.03,1.78c.11,.18-.03,.41-.24,.41Z"/>
  <path class="apa-logo3" d="M14.72,7.83c1.17,2.12,2.3,4.15,3.44,6.2,.18,.32,0,.73-.36,.81-1.6,.38-2,.09-2.87-1.43-.43-.75-.83-1.51-1.25-2.27-.95-1.72-1.05-1.96,.12-3.39,.25-.3,.73-.26,.92,.08Z"/>
</svg>