<?xml version="1.0" encoding="UTF-8"?>
<svg id="_图层_1" data-name="图层 1" xmlns="http://www.w3.org/2000/svg" viewBox="0 0 24 24">
  <path d="M5.67,22.12h12.67c1,0,2.07-.76,2.07-2v-2.8c0-.43-.15-.86-.42-1.21l-3.28-4.14,.03-.04,3.28-4.09c.25-.34,.39-.74,.39-1.15V3.87c0-1.23-1.09-2-2.09-2H5.67c-1,0-2.07,.76-2.07,2v2.8c0,.44,.15,.87,.42,1.21l3.26,4.12-.04,.05-2.96,4.07c-.27,.34-.69,.77-.69,1.21v2.8c0,1.23,1.08,2,2.07,2Zm-.18-4.81l.02-.02,3.24-4.08c.57-.71,.57-1.71,0-2.42l-3.25-4.1V3.85l.02-.02s.11-.06,.16-.06h12.65s0,0,0,0c.05,0,.11,.02,.15,.06l.02,.02v2.86s-3.3,4.12-3.3,4.12c-.52,.71-.51,1.68,.04,2.36l3.27,4.12v2.84l-.02,.02s-.1,.06-.16,.06H5.67s0,0,0,0c-.05,0-.11-.02-.15-.06l-.02-.02v-2.84Z"/>
  <path d="M14.68,17.08h-5.36c-.52,0-.95,.42-.95,.95s.43,.95,.95,.95h5.36c.52,0,.95-.43,.95-.95,0-.52-.43-.95-.95-.95Z"/>
</svg>