<?xml version="1.0" encoding="UTF-8"?>
<svg id="_图层_1" data-name="图层 1" xmlns="http://www.w3.org/2000/svg" viewBox="0 0 24 24">
  <path d="M21.9,9.1C19.61,3.6,13.3,1,7.8,3.29,3.82,4.97,1.23,8.88,1.22,13.21c0,5.96,4.82,10.79,10.78,10.79,1.44,0,2.87-.29,4.2-.85,5.43-2.33,7.97-8.59,5.7-14.05Zm-9.9,12.87c-4.83,0-8.75-3.92-8.75-8.75,0-4.83,3.92-8.75,8.75-8.75,2.32,0,4.55,.92,6.19,2.56,1.64,1.64,2.56,3.87,2.56,6.19,0,4.83-3.92,8.75-8.75,8.75Z"/>
  <path d="M23.84,5.23c-1.45-2.23-3.48-4.01-5.89-5.14-.49-.23-1.08-.02-1.31,.47-.11,.24-.12,.51-.04,.76,.09,.25,.27,.45,.51,.56,2.07,.97,3.83,2.5,5.07,4.42,.18,.28,.49,.45,.83,.45,0,0,0,0,0,0,.19,0,.38-.05,.54-.16,.46-.3,.59-.91,.29-1.37Z"/>
  <path d="M7.37,.57c-.23-.49-.82-.71-1.31-.47C3.64,1.22,1.61,3,.16,5.23c-.3,.46-.17,1.07,.29,1.37,.16,.1,.35,.16,.54,.16h0c.34,0,.65-.17,.83-.45,1.25-1.92,3-3.45,5.07-4.42,.49-.23,.71-.82,.47-1.31Z"/>
  <g>
    <path d="M16.67,14.16h-4.61c-.55,0-1-.45-1-1s.45-1,1-1h4.61c.55,0,1,.45,1,1s-.45,1-1,1Z"/>
    <path d="M12.06,14.16c-.55,0-1-.45-1-1V7.33c0-.55,.45-1,1-1s1,.45,1,1v5.83c0,.55-.45,1-1,1Z"/>
  </g>
</svg>