<?xml version="1.0" encoding="utf-8"?>
<!-- Generator: Adobe Illustrator 24.2.0, SVG Export Plug-In . SVG Version: 6.00 Build 0)  -->
<svg version="1.1" id="图层_1" xmlns="http://www.w3.org/2000/svg" xmlns:xlink="http://www.w3.org/1999/xlink" x="0px" y="0px"
	 viewBox="0 0 24 24" style="enable-background:new 0 0 24 24;" xml:space="preserve">
<style type="text/css">
	.st0{fill-rule:evenodd;clip-rule:evenodd;}
</style>
<path class="st0" d="M9,4.1c0.5-0.5,0.7-1,0.7-1.7S9.4,1.2,9,0.7C8.5,0.2,8,0,7.3,0C6.7,0,6.1,0.2,5.7,0.7C5.2,1.2,5,1.7,5,2.4
	s0.2,1.2,0.7,1.7c0.5,0.5,1,0.7,1.6,0.7C8,4.8,8.5,4.6,9,4.1 M9,13.7c0.5-0.5,0.7-1,0.7-1.7S9.4,10.8,9,10.3C8.5,9.8,8,9.6,7.3,9.6
	c-0.6,0-1.2,0.2-1.6,0.7C5.2,10.8,5,11.3,5,12s0.2,1.2,0.7,1.7c0.5,0.5,1,0.7,1.6,0.7C8,14.4,8.5,14.2,9,13.7 M9,23.3
	c0.5-0.5,0.7-1,0.7-1.7c0-0.7-0.2-1.2-0.7-1.7c-0.5-0.5-1-0.7-1.7-0.7c-0.6,0-1.2,0.2-1.6,0.7c-0.5,0.5-0.7,1-0.7,1.7
	c0,0.7,0.2,1.2,0.7,1.7c0.5,0.5,1,0.7,1.6,0.7C8,24,8.5,23.8,9,23.3 M18.3,4.1c0.5-0.5,0.7-1,0.7-1.7s-0.2-1.2-0.7-1.7
	c-0.5-0.5-1-0.7-1.6-0.7S15.5,0.2,15,0.7c-0.5,0.5-0.7,1-0.7,1.7s0.2,1.2,0.7,1.7c0.5,0.5,1,0.7,1.6,0.7S17.9,4.6,18.3,4.1
	 M18.3,13.7c0.5-0.5,0.7-1,0.7-1.7s-0.2-1.2-0.7-1.7c-0.5-0.5-1-0.7-1.6-0.7c-0.6,0-1.2,0.2-1.6,0.7c-0.5,0.5-0.7,1-0.7,1.7
	s0.2,1.2,0.7,1.7c0.5,0.5,1,0.7,1.6,0.7C17.3,14.4,17.9,14.2,18.3,13.7 M18.3,23.3c0.5-0.5,0.7-1,0.7-1.7c0-0.7-0.2-1.2-0.7-1.7
	c-0.5-0.5-1-0.7-1.6-0.7s-1.2,0.2-1.6,0.7c-0.5,0.5-0.7,1-0.7,1.7c0,0.7,0.2,1.2,0.7,1.7c0.5,0.5,1,0.7,1.6,0.7S17.9,23.8,18.3,23.3
	"/>
</svg>
