<svg id="图层_1" data-name="图层 1" xmlns="http://www.w3.org/2000/svg" viewBox="0 0 24 24">
  <path
    d="M20.48,3.51a12,12,0,0,0-17,17,12,12,0,0,0,17-17ZM12,1.85A10.07,10.07,0,0,1,18.49,4.2L16.35,6.34a7.14,7.14,0,0,0-8.7,0L5.51,4.2A10.07,10.07,0,0,1,12,1.85Zm3.76,13.91a5.32,5.32,0,1,1,0-7.53A5.31,5.31,0,0,1,15.76,15.76ZM4.2,5.51,6.34,7.65a7.14,7.14,0,0,0,0,8.7L4.2,18.49A10.17,10.17,0,0,1,4.2,5.51ZM12,22.15A10.07,10.07,0,0,1,5.51,19.8l2.14-2.14a7,7,0,0,0,8.7,0l2.14,2.14A10.07,10.07,0,0,1,12,22.15Zm7.8-3.66-2.14-2.14a7.14,7.14,0,0,0,0-8.7L19.8,5.51A10.17,10.17,0,0,1,19.8,18.49ZM9.17,9.17a4,4,0,1,0,5.66,0A4,4,0,0,0,9.17,9.17Zm4.35,4.35a2.15,2.15,0,1,1,0-3A2.15,2.15,0,0,1,13.52,13.52Z" />
</svg>