<?xml version="1.0" encoding="utf-8"?>
<!-- Generator: Adobe Illustrator 25.0.0, SVG Export Plug-In . SVG Version: 6.00 Build 0)  -->
<svg version="1.1" id="图层_1" xmlns="http://www.w3.org/2000/svg" xmlns:xlink="http://www.w3.org/1999/xlink" x="0px" y="0px"
	 viewBox="0 0 24 24" style="enable-background:new 0 0 24 24;" xml:space="preserve">
<style type="text/css">
	.st0{fill:#F44343;}
	.st1{fill:url(#SVGID_1_);}
	.st2{fill:url(#SVGID_2_);}
	.st3{fill:url(#SVGID_3_);}
	.st4{fill-rule:evenodd;clip-rule:evenodd;}
	.st5{fill-rule:evenodd;clip-rule:evenodd;fill:#FFBC00;}
	.st6{opacity:0.5;fill-rule:evenodd;clip-rule:evenodd;fill:#FFBC00;}
	.st7{fill:#989898;}
	.st8{fill:#333333;}
	.st9{fill:#7C8295;}
	.st10{fill:#4A90E2;}
</style>
<g>
	<path d="M12,21.5c-0.5,0-1-0.3-1.3-0.7l-0.4-0.6c0,0-0.1-0.1-0.1-0.1l-6.8,0c-1.2,0-2.2-0.9-2.2-2.1V4.6c0-1.2,1-2.1,2.2-2.1l5.4,0
		c1.1,0,2.1,0.4,2.8,1.1c0.2,0.2,0.3,0.3,0.5,0.5c0.1-0.2,0.3-0.3,0.4-0.5c0.8-0.7,1.8-1.1,2.8-1.1h5.4c1.2,0,2.2,0.9,2.2,2.1V18
		c0,1.2-1,2.1-2.2,2.1h-6.7c-0.1,0-0.1,0-0.1,0.1l-0.4,0.6C13.1,21.2,12.6,21.5,12,21.5z M3.3,4C2.9,4,2.6,4.3,2.6,4.6v13.4
		c0,0.3,0.3,0.6,0.7,0.6l6.8,0c0.5,0,1,0.3,1.3,0.7l0.4,0.6C11.9,20,12,20,12,20s0.1,0,0.1-0.1l0.4-0.6c0.3-0.4,0.8-0.7,1.3-0.7h6.7
		c0.4,0,0.7-0.3,0.7-0.6V4.6c0-0.3-0.3-0.6-0.7-0.6h-5.4c-1.4,0-2.5,1-2.5,2.3v9.8c0,0.4-0.3,0.7-0.7,0.7c-0.4,0-0.7-0.3-0.7-0.7
		V6.3c0-0.6-0.3-1.2-0.7-1.6C10.1,4.2,9.4,4,8.8,4L3.3,4z"/>
	<path d="M8.8,8.1H5.3c-0.4,0-0.7-0.3-0.7-0.7c0-0.4,0.3-0.7,0.7-0.7h3.5c0.4,0,0.7,0.3,0.7,0.7C9.6,7.8,9.2,8.1,8.8,8.1z M7.5,11.4
		H5.3c-0.4,0-0.7-0.3-0.7-0.7c0-0.4,0.3-0.7,0.7-0.7h2.1c0.4,0,0.7,0.3,0.7,0.7C8.2,11,7.9,11.4,7.5,11.4z M18.7,8.1h-3.5
		c-0.4,0-0.7-0.3-0.7-0.7c0-0.4,0.3-0.7,0.7-0.7h3.5c0.4,0,0.7,0.3,0.7,0.7C19.5,7.8,19.1,8.1,18.7,8.1L18.7,8.1z M18.7,11.4h-2.1
		c-0.4,0-0.7-0.3-0.7-0.7c0-0.4,0.3-0.7,0.7-0.7h2.1c0.4,0,0.7,0.3,0.7,0.7C19.5,11,19.1,11.4,18.7,11.4L18.7,11.4z"/>
</g>
</svg>
