<?xml version="1.0" encoding="UTF-8"?>
<svg id="_图层_1" data-name="图层 1" xmlns="http://www.w3.org/2000/svg" viewBox="0 0 24 24">
  <defs>
    <style>
      .cls-1 {
        fill-rule: evenodd;
      }
    </style>
  </defs>
  <path class="cls-1" d="M3,5.25v13.5c0,.62,.22,1.15,.66,1.59,.44,.44,.97,.66,1.59,.66h13.5c.62,0,1.15-.22,1.59-.66s.66-.97,.66-1.59V5.25c0-.62-.22-1.15-.66-1.59-.44-.44-.97-.66-1.59-.66H5.25c-.62,0-1.15,.22-1.59,.66-.44,.44-.66,.97-.66,1.59m1.45,14.3c-.22-.22-.33-.49-.33-.8V5.25c0-.31,.11-.58,.33-.8s.48-.33,.8-.33h13.5c.31,0,.58,.11,.8,.33,.22,.22,.33,.48,.33,.8v13.5c0,.31-.11,.58-.33,.8-.22,.22-.48,.33-.8,.33H5.25c-.31,0-.58-.11-.8-.33"/>
  <path class="cls-1" d="M15.94,11.44h-7.88c-.31,.02-.55,.29-.53,.6,.02,.28,.24,.51,.53,.53h7.88c.31-.02,.55-.29,.53-.6-.02-.28-.24-.51-.53-.53"/>
</svg>