<?xml version="1.0" encoding="UTF-8"?>
<svg id="_图层_1" data-name="图层 1" xmlns="http://www.w3.org/2000/svg" viewBox="0 0 24 24">
  <path d="M9.71,3H4.35c-.84,0-1.53,.69-1.53,1.53v14.94c0,.84,.69,1.53,1.53,1.53h5.35c.84,0,1.53-.69,1.53-1.53V4.53c0-.84-.69-1.53-1.53-1.53Zm0,16.47H4.35V4.53h5.35v14.94ZM19.65,3h-5.35c-.84,0-1.53,.69-1.53,1.53v6.53c0,.84,.69,1.53,1.53,1.53h5.35c.84,0,1.53-.69,1.53-1.53V4.53c0-.84-.69-1.53-1.53-1.53h0Zm0,8.06h-5.35V4.53h5.35v6.53h0Zm0,3.06h-5.35c-.84,0-1.53,.69-1.53,1.53v3.82c0,.84,.69,1.53,1.53,1.53h5.35c.84,0,1.53-.69,1.53-1.53v-3.82c0-.84-.69-1.53-1.53-1.53h0Zm0,5.35h-5.35v-3.82h5.35v3.82h0Z"/>
</svg>