<?xml version="1.0" encoding="UTF-8"?>
<svg id="_图层_1" data-name="图层 1" xmlns="http://www.w3.org/2000/svg" viewBox="0 0 24 24">
  <defs>
    <style>
      .bjucsa {
        fill-rule: evenodd;
      }
    </style>
  </defs>
  <path class="bjucsa" d="M11.31,12.64c-.12-.14-.2-.3-.22-.49,0-.06,0-.12,0-.18,0-.06,.01-.12,.03-.18,.02-.06,.04-.11,.06-.17,.03-.05,.06-.1,.1-.15,.04-.05,.08-.09,.12-.13,.05-.04,.1-.07,.15-.1,.05-.03,.11-.05,.16-.07s.12-.03,.18-.04c.08,0,.15-.01,.23,0,.08,0,.15,.03,.22,.05,.07,.03,.14,.06,.2,.11,.06,.04,.12,.09,.17,.15l2.91,3.33c.12,.14,.2,.3,.22,.49,0,.06,0,.12,0,.18,0,.06-.01,.12-.03,.18-.02,.06-.04,.11-.06,.17-.03,.05-.06,.1-.1,.15-.04,.05-.08,.09-.12,.13-.05,.04-.1,.07-.15,.1-.05,.03-.11,.05-.16,.07s-.12,.03-.18,.04c-.08,0-.15,.01-.23,0-.08,0-.15-.03-.22-.05-.07-.03-.14-.06-.2-.11-.06-.04-.12-.09-.17-.15l-2.91-3.33Z"/>
  <path class="bjucsa" d="M11.08,5.83c0-.06,0-.12,.02-.18,.01-.06,.03-.12,.05-.17,.02-.06,.05-.11,.09-.16,.03-.05,.07-.1,.11-.14,.04-.04,.09-.08,.14-.12,.05-.03,.1-.06,.16-.08,.06-.02,.11-.04,.17-.05s.12-.02,.18-.02,.12,0,.18,.02,.12,.03,.17,.05c.06,.02,.11,.05,.16,.09s.1,.07,.14,.11c.04,.04,.08,.09,.12,.14,.03,.05,.06,.1,.08,.16,.02,.06,.04,.11,.05,.17,.01,.06,.02,.12,.02,.18v6.14c0,.06,0,.12-.02,.18-.01,.06-.03,.12-.05,.17-.02,.06-.05,.11-.09,.16-.03,.05-.07,.1-.11,.14-.04,.04-.09,.08-.14,.12-.05,.03-.1,.06-.16,.08-.06,.02-.11,.04-.17,.05s-.12,.02-.18,.02-.12,0-.18-.02-.12-.03-.17-.05c-.06-.02-.11-.05-.16-.09-.05-.03-.1-.07-.14-.11-.04-.04-.08-.09-.12-.14-.03-.05-.06-.1-.08-.16-.02-.06-.04-.11-.05-.17s-.02-.12-.02-.18V5.83Z"/>
  <g>
    <path class="ghjcbdj" d="M18.48,3.75c.29,0,.58-.14,.77-.4,.3-.42,.2-1.01-.22-1.31-1.34-.95-2.83-1.61-4.44-1.95-.51-.1-1.01,.22-1.12,.72s.22,1.01,.72,1.12c1.35,.29,2.61,.84,3.74,1.64,.17,.12,.36,.17,.54,.17Z"/>
    <path class="ghjcbdj" d="M23.06,11.3s.09,0,.13,0c.51-.07,.87-.54,.8-1.06-.22-1.6-.75-3.11-1.57-4.49-.26-.44-.84-.6-1.29-.33-.45,.27-.59,.84-.33,1.29,.69,1.17,1.14,2.44,1.33,3.79,.07,.47,.47,.81,.93,.81Z"/>
    <path class="ghjcbdj" d="M21.06,19.33c.29,0,.58-.13,.76-.39,.81-1.12,1.42-2.36,1.8-3.67,.15-.5-.14-1.02-.64-1.17-.5-.14-1.02,.14-1.17,.64-.32,1.11-.83,2.15-1.52,3.1-.31,.42-.21,1.01,.21,1.31,.17,.12,.36,.18,.55,.18Z"/>
    <path class="ghjcbdj" d="M12.05,23.93c2.51,0,4.92-.77,6.97-2.22,.42-.3,.52-.89,.22-1.31-.3-.43-.89-.53-1.31-.22-1.73,1.22-3.76,1.87-5.88,1.87-5.61,0-10.17-4.56-10.17-10.17,0-4.79,3.4-8.98,8.08-9.96,.51-.11,.83-.6,.73-1.11-.11-.51-.61-.83-1.11-.73C4.03,1.25,0,6.21,0,11.88c0,6.65,5.41,12.05,12.05,12.05Z"/>
  </g>
</svg>