<?xml version="1.0" encoding="UTF-8"?>
<svg id="_图层_1" data-name="图层 1" xmlns="http://www.w3.org/2000/svg" viewBox="0 0 24 24">
  <path
    d="M12,0C5.37,0,0,5.37,0,12s5.37,12,12,12,12-5.37,12-12S18.63,0,12,0Zm4.8,14.08l-6,3.47c-.74,.43-1.66,.43-2.4,0-.74-.43-1.2-1.22-1.2-2.08v-6.94c0-.42,.11-.83,.32-1.2,.66-1.15,2.13-1.54,3.28-.88l6,3.47c.36,.21,.66,.51,.87,.87,.67,1.15,.27,2.62-.87,3.28Z" />
  <path
    d="M15.03,12.33l-4.86,2.81c-.25,.15-.57-.04-.57-.33v-5.62c0-.29,.32-.48,.57-.33l4.86,2.81c.25,.15,.25,.51,0,.66Z" />
</svg>