<?xml version="1.0" encoding="UTF-8"?>
<svg id="_图层_1" data-name="图层 1" xmlns="http://www.w3.org/2000/svg" viewBox="0 0 24 24">
  <path d="M20.4,8.48h-4.53c-.19,0-.35-.16-.35-.35V2.6c0-.31,.38-.47,.6-.25l4.53,5.53c.22,.22,.06,.6-.25,.6Z"/>
  <path d="M20.17,10.33h0s-4.97,0-4.97,0c-.85,0-1.53-.69-1.53-1.53V2.83c0-.46-.37-.83-.83-.83H4.8c-.99,0-1.8,.81-1.8,1.8V20.2c0,.99,.81,1.8,1.8,1.8h14.4c.99,0,1.8-.81,1.8-1.8V11.17c0-.46-.37-.83-.83-.83Zm-12.8,6.87c0,.69-.38,1.35-1.02,1.61h0c-.2,.08-.41,.12-.62,.12-.4,0-.8-.16-1.11-.45l-.04-.04c-.24-.25-.24-.64,0-.88,.25-.24,.64-.24,.88,0,.17,.17,.34,.12,.41,.09,.06-.02,.24-.12,.24-.36v-3.08c0-.35,.28-.62,.62-.62s.62,.28,.62,.62v2.99Zm-.63-4.07c-.44,0-.8-.36-.8-.8s.36-.8,.8-.8,.8,.36,.8,.8-.36,.8-.8,.8Zm4.14,3.96h0c-.12,.4-.42,.75-.81,.9-.66,.26-1.35,.04-1.73-.47-.19-.26-.19-.63,.04-.85,.29-.28,.75-.22,.96,.1,.04,.05,.1,.09,.16,.09,.11,0,.19-.09,.19-.19s-.09-.19-.19-.19c-.04,0-.09,0-.13-.01-.82-.07-1.45-.83-1.29-1.71,.11-.57,.57-1.03,1.14-1.14,.53-.1,1.05,.09,1.39,.49,.19,.23,.22,.56,.04,.8-.26,.34-.75,.33-1,0-.02-.02-.07-.08-.15-.08-.11,0-.19,.09-.19,.19s.09,.19,.19,.19c.04,0,.09,0,.13,.01,.87,.08,1.53,.92,1.25,1.86Zm2.36,.96c-.83-.19-1.5-.85-1.68-1.68-.37-1.65,1.07-3.09,2.72-2.72,.83,.19,1.5,.85,1.68,1.68,.37,1.65-1.07,3.09-2.72,2.72Zm6.22-.19c-.28,.08-.59-.04-.75-.3l-.79-1.31v1.17c0,.35-.28,.62-.62,.62s-.62-.28-.62-.62v-3.05c0-.29,.15-.57,.42-.69,.33-.15,.7-.04,.89,.25l.71,1.17v-.9c0-.35,.28-.62,.62-.62s.62,.28,.62,.62v3.01h0c0,.3-.2,.56-.49,.64Z"/>
  <path d="M13.52,14.87c-.35,.09-.64,.38-.73,.73-.18,.75,.48,1.41,1.23,1.23,.35-.09,.64-.38,.73-.73,.18-.75-.48-1.41-1.23-1.23h0Z"/>
</svg>