<svg 
 xmlns="http://www.w3.org/2000/svg"
 xmlns:xlink="http://www.w3.org/1999/xlink"
 width="13px" height="16px">
<path fill-rule="evenodd"  fill="rgb(153, 166, 183)"
 d="M11.286,15.285 L2.072,15.286 C1.112,15.286 0.331,14.467 0.331,13.460 L0.331,7.833 C0.331,6.826 1.112,6.007 2.072,6.007 L3.198,6.007 L3.198,4.232 C3.198,2.231 4.752,0.602 6.662,0.602 C8.573,0.602 10.127,2.231 10.127,4.232 L10.127,6.007 L11.253,6.007 C12.213,6.007 12.995,6.826 12.995,7.833 L12.995,13.460 C12.995,14.450 12.228,15.268 11.286,15.285 ZM8.932,4.232 C8.932,2.924 7.914,1.860 6.662,1.860 C5.411,1.860 4.393,2.924 4.393,4.232 L4.393,6.007 L8.932,6.007 L8.932,4.232 ZM11.799,7.833 C11.799,7.520 11.554,7.265 11.253,7.265 L2.072,7.265 C1.771,7.265 1.527,7.520 1.527,7.833 L1.527,13.460 C1.527,13.773 1.771,14.028 2.072,14.028 L11.253,14.028 C11.554,14.028 11.799,13.773 11.799,13.460 L11.799,7.833 ZM6.662,12.302 C6.326,12.302 6.052,12.020 6.052,11.674 L6.052,9.872 C6.052,9.526 6.326,9.244 6.662,9.244 C6.999,9.244 7.273,9.526 7.273,9.872 L7.273,11.674 C7.273,12.020 6.999,12.302 6.662,12.302 Z"/>
</svg>
