<?xml version="1.0" encoding="utf-8"?>
<!-- Generator: Adobe Illustrator 24.2.0, SVG Export Plug-In . SVG Version: 6.00 Build 0)  -->
<svg version="1.1" id="图层_1" xmlns="http://www.w3.org/2000/svg" xmlns:xlink="http://www.w3.org/1999/xlink" x="0px" y="0px"
	 viewBox="0 0 24 24" style="enable-background:new 0 0 24 24;" xml:space="preserve">
<path d="M5.8,24h12.4c1.8,0,3.3-1.5,3.3-3.3v-9.3h0.4c0.6,0,1.1-0.2,1.5-0.6C23.8,10.4,24,10,24,9.4V8.2c0-0.9-0.3-1.7-1-2.3
	c-0.7-0.6-1.4-1-2.4-1h-5.3V3.3c0-0.9-0.3-1.7-1-2.3c-0.7-0.6-1.4-1-2.4-1s-1.7,0.3-2.4,1c-0.7,0.6-1,1.4-1,2.3v1.6H3.3
	c-0.9,0-1.7,0.3-2.4,1C0.3,6.5,0,7.3,0,8.2v1.2c0,0.6,0.2,1,0.6,1.5c0.4,0.4,0.9,0.6,1.5,0.6h0.4v9.3C2.5,22.5,4,24,5.8,24z
	 M19.8,20.7c0,0.4-0.2,0.8-0.5,1.1c-0.3,0.3-0.7,0.5-1.1,0.5h-2.9v-5c0-0.2-0.1-0.4-0.2-0.6c-0.2-0.2-0.4-0.3-0.6-0.3c0,0,0,0,0,0
	c-0.2,0-0.4,0.1-0.6,0.2c-0.2,0.2-0.2,0.4-0.2,0.6v5h-3.3v-5c0-0.5-0.4-0.8-0.9-0.8s-0.9,0.4-0.9,0.8v5H5.8c-0.4,0-0.8-0.2-1.1-0.5
	c-0.3-0.3-0.5-0.7-0.5-1.1v-9.3h15.6V20.7z M10.4,3.3c0-0.4,0.2-0.8,0.5-1.1c0.6-0.6,1.7-0.6,2.3,0c0.3,0.3,0.5,0.7,0.5,1.1v1.6
	h-3.3V3.3z M1.7,9.8V8.2c0-0.4,0.2-0.8,0.5-1.1c0.3-0.3,0.7-0.5,1.1-0.5h17.3c0.4,0,0.8,0.2,1.1,0.5s0.5,0.7,0.5,1.1v1.6H1.7z"/>
</svg>
