<?xml version="1.0" encoding="UTF-8"?>
<svg id="_图层_1" data-name="图层 1" xmlns="http://www.w3.org/2000/svg" viewBox="0 0 24 24">
  <path d="M19.5,1.5H4.5c-1.66,0-3,1.34-3,3v15c0,1.66,1.34,3,3,3h15c1.66,0,3-1.34,3-3V4.5c0-1.66-1.34-3-3-3Zm1.5,18c0,.83-.67,1.5-1.5,1.5,0,0,0,0,0,0H4.5c-.4,0-.78-.15-1.06-.44s-.44-.66-.44-1.06V4.5c0-.83,.67-1.5,1.51-1.5h15c.83,0,1.5,.67,1.5,1.5h0v15Z"/>
  <path d="M18.19,8.06h-6c-.41,0-.75,.34-.75,.75s.34,.75,.75,.75h6c.41,0,.75-.34,.75-.75s-.34-.75-.75-.75Zm0,6h-6c-.41,0-.75,.34-.75,.75s.34,.75,.75,.75h6c.41,0,.75-.34,.75-.75s-.34-.75-.75-.75Zm-10.5-1.87c-1.45,0-2.62,1.18-2.62,2.62s1.18,2.62,2.62,2.62,2.62-1.18,2.62-2.62-1.18-2.62-2.62-2.62Zm.8,3.42c-.44,.44-1.15,.44-1.59,0-.44-.44-.44-1.15,0-1.59,.44-.44,1.15-.44,1.59,0,.21,.21,.33,.5,.33,.8,0,.3-.12,.59-.33,.8h0Zm.92-8.83l-2.47,2.47-.97-.97c-.29-.29-.77-.29-1.06,0s-.29,.77,0,1.06l1.5,1.5c.29,.29,.77,.29,1.06,0h0s3-3,3-3c.29-.29,.29-.77,0-1.06-.29-.29-.76-.29-1.05,0Z"/>
</svg>