<?xml version="1.0" encoding="UTF-8"?>
<svg id="_图层_1" data-name="图层 1" xmlns="http://www.w3.org/2000/svg" viewBox="0 0 24 24">
  <path d="M10.85,1.71c.63,0,1.14,.51,1.14,1.14s-.51,1.14-1.14,1.14H3.99v16h16v-6.99c.08-.63,.65-1.07,1.28-1,.57,.07,1.01,.56,1.01,1.13v6.86c0,1.26-1.02,2.29-2.29,2.29H3.99c-1.26,0-2.29-1.02-2.29-2.29V4c0-1.26,1.02-2.29,2.29-2.29h6.86Zm11.11,.33c.45,.45,.45,1.17,0,1.62L11.45,14.17c-.45,.44-1.18,.43-1.62-.03-.43-.44-.43-1.15,0-1.59L20.34,2.05c.45-.45,1.17-.45,1.62,0h0Z"/>
</svg>