<svg id="图层_1" data-name="图层 1" xmlns="http://www.w3.org/2000/svg" viewBox="0 0 24 24">
  <defs>
    <style>
      .apa-video1 {
        fill: #6666f2;
      }

      .apa-video1,
      .apa-video3 {
        fill-rule: evenodd;
      }

      .apa-video2 {
        fill: none;
      }

      .apa-video3 {
        fill: #bdb6ff;
      }

      .apa-video4 {
        fill: #fff;
      }
    </style>
  </defs>
  <path class="apa-video1"
    d="M21,23a3.27,3.27,0,0,0,1-2.4V5.85a1,1,0,0,0-.07-.36,1.21,1.21,0,0,0-.2-.3L16.8.27a.79.79,0,0,0-.3-.2A.84.84,0,0,0,16.15,0H5.39A3.27,3.27,0,0,0,3,1,3.26,3.26,0,0,0,2,3.38V20.61A3.27,3.27,0,0,0,3,23a3.28,3.28,0,0,0,2.4,1H18.61A3.27,3.27,0,0,0,21,23" />
  <rect class="apa-video2" x="2" width="19.99" height="24" />
  <path class="apa-video3"
    d="M22,5.85a1,1,0,0,0-.07-.36,1.21,1.21,0,0,0-.2-.3L16.8.27,16.67.16A.7.7,0,0,0,16.5.07l-.17,0-.18,0L16,0,15.8.07a.83.83,0,0,0-.16.09L15.5.27a1,1,0,0,0-.2.3.84.84,0,0,0-.07.35V4.48A2.33,2.33,0,0,0,16,6.24a2.08,2.08,0,0,0,1.41.53h3.69l.18,0,.18,0a.65.65,0,0,0,.16-.09l.14-.11a.76.76,0,0,0,.11-.14l.09-.16A1,1,0,0,0,22,5.85" />
  <path class="apa-video4"
    d="M16.76,12.29a.52.52,0,0,0-.67-.26l-1.31.59V12a1,1,0,0,0-1-1H8.21a1,1,0,0,0-1,1v5.1a1,1,0,0,0,1,1h5.56a1,1,0,0,0,1-1v-.64l1.31.58a.45.45,0,0,0,.2,0,.5.5,0,0,0,.51-.5V12.5A.52.52,0,0,0,16.76,12.29ZM12.47,15l-2.07,1.2a.57.57,0,0,1-.29.07c-.29,0-.55-.14-.55-.45V13.25c0-.31.26-.46.55-.46a.53.53,0,0,1,.29.08l2.07,1.2A.51.51,0,0,1,12.47,15Z" />
</svg>