<?xml version="1.0" encoding="UTF-8"?>
<svg id="_图层_1" data-name="图层 1" xmlns="http://www.w3.org/2000/svg" viewBox="0 0 24 24">
  <path d="M9.74,2.14c-.63,.62-.94,1.38-.94,2.26v1.07H4.53c-.88,0-1.64,.31-2.26,.94-.63,.62-.94,1.38-.94,2.26v1.07c0,.59,.21,1.09,.63,1.51s.92,.63,1.51,.63v7.73c0,1.77,1.43,3.2,3.2,3.2h10.67c1.77,0,3.2-1.43,3.2-3.2v-7.73c.59,0,1.09-.21,1.51-.63,.42-.42,.63-.92,.63-1.51v-1.07c0-.88-.31-1.64-.94-2.26-.62-.63-1.38-.94-2.26-.94h-4.27v-1.07c0-.88-.31-1.64-.94-2.26-.62-.63-1.38-.94-2.26-.94s-1.64,.31-2.26,.94Zm3.33,2.26v1.07h-2.13v-1.07c0-.29,.1-.55,.31-.75s.46-.31,.75-.31,.55,.1,.75,.31,.31,.46,.31,.75Zm7.47,4.27v1.07H3.47v-1.07c0-.29,.1-.55,.31-.75,.21-.21,.46-.31,.75-.31h14.93c.29,0,.55,.1,.75,.31s.31,.46,.31,.75ZM5.6,19.6v-7.73h12.8v7.73c0,.29-.1,.55-.31,.75-.21,.21-.46,.31-.75,.31h-2.13v-4c0-.59-.48-1.07-1.07-1.07-.59,0-1.07,.48-1.07,1.07h0v4h-2.13v-4c0-.59-.48-1.07-1.07-1.07s-1.07,.48-1.07,1.07v4h-2.13c-.29,0-.55-.1-.75-.31s-.31-.46-.31-.75Z"/>
</svg>