<svg id="图层_1" data-name="图层 1" xmlns="http://www.w3.org/2000/svg" viewBox="0 0 24 24">
  <defs>
    <style>
      .apa-image1 {
        fill: #f7a021;
      }

      .apa-image1,
      .apa-image2 {
        fill-rule: evenodd;
      }

      .apa-image2 {
        fill: #ffd392;
      }

      .apa-image3 {
        fill: none;
      }

      .apa-image4 {
        fill: #fff;
      }
    </style>
  </defs>
  <path class="apa-image1"
    d="M21,23a3.27,3.27,0,0,0,1-2.4V5.85a1,1,0,0,0-.07-.36,1.21,1.21,0,0,0-.2-.3L16.8.27a.79.79,0,0,0-.3-.2A.84.84,0,0,0,16.15,0H5.39A3.27,3.27,0,0,0,3,1,3.26,3.26,0,0,0,2,3.38V20.61A3.27,3.27,0,0,0,3,23a3.28,3.28,0,0,0,2.4,1H18.61A3.27,3.27,0,0,0,21,23" />
  <path class="apa-image2"
    d="M22,5.85a1,1,0,0,0-.07-.36,1.21,1.21,0,0,0-.2-.3L16.8.27,16.67.16A.7.7,0,0,0,16.5.07l-.17,0-.18,0L16,0,15.8.07a.83.83,0,0,0-.16.09L15.5.27a1,1,0,0,0-.2.3.84.84,0,0,0-.07.35V4.48A2.33,2.33,0,0,0,16,6.24a2.08,2.08,0,0,0,1.41.53h3.69l.18,0,.18,0a.65.65,0,0,0,.16-.09l.14-.11a.76.76,0,0,0,.11-.14l.09-.16A1,1,0,0,0,22,5.85" />
  <rect class="apa-image3" x="2" width="19.99" height="24" />
  <path class="apa-image4"
    d="M12.93,17,10.51,13.1a.48.48,0,0,0-.65-.16.61.61,0,0,0-.16.16L6.77,17.87a.47.47,0,0,0,.15.65.59.59,0,0,0,.25.07h9.66a.48.48,0,0,0,.47-.48.42.42,0,0,0-.07-.24l-2-3.33a.45.45,0,0,0-.64-.16.44.44,0,0,0-.17.16Z" />
  <circle class="apa-image4" cx="15.3" cy="11.5" r="0.94" />
</svg>