<?xml version="1.0" encoding="UTF-8"?>
<svg id="_图层_1" data-name="图层 1" xmlns="http://www.w3.org/2000/svg" viewBox="0 0 24 24">
  <path d="M3.12,18.95l5.1-5.1c.35-.35,.91-.35,1.25,0,0,0,0,0,0,0l.63,.63c.35,.35,.35,.91,0,1.25l-5.18,5.18h.8c.24,0,.46,.09,.63,.26l1.11,1.11c.31,.31,.31,.82,0,1.13-.15,.15-.35,.23-.57,.23H.99c-.34,0-.62-.28-.62-.62v-5.89c0-.44,.36-.8,.8-.8,.21,0,.42,.08,.57,.23l1.11,1.11c.17,.17,.26,.39,.26,.63v.63Z"/>
  <path d="M20.94,5.11l-5.17,5.17c-.35,.35-.92,.35-1.27,0l-.64-.64c-.35-.35-.35-.92,0-1.27l5.25-5.25h-.81c-.24,0-.47-.09-.64-.26l-1.12-1.12c-.32-.32-.32-.83,0-1.15,.15-.15,.36-.24,.58-.24h5.97c.35,0,.63,.28,.63,.63V6.93c0,.45-.36,.81-.81,.81-.22,0-.42-.09-.58-.24l-1.12-1.12c-.17-.17-.26-.4-.26-.64v-.64h0Z"/>
</svg>