<?xml version="1.0" encoding="UTF-8"?>
<svg id="_图层_1" data-name="图层 1" xmlns="http://www.w3.org/2000/svg" viewBox="0 0 24 24">
  <path d="M21.46,15.19h-3.14c-.58,0-1.05,.47-1.05,1.04s.47,1.04,1.05,1.04h3.14c.58,0,1.04-.47,1.04-1.04s-.47-1.04-1.04-1.04Z"/>
  <path d="M21.46,19.37h-7.32c-.58,0-1.04,.47-1.04,1.04s.47,1.04,1.04,1.04h7.32c.58,0,1.04-.47,1.04-1.04s-.47-1.04-1.04-1.04Z"/>
  <path d="M2.03,14.27c-.34,.38-.53,.88-.53,1.39v4.31c.05,.82,.74,1.47,1.57,1.47H7.41c.51-.03,.99-.25,1.36-.61l11.11-11.11c.74-.83,.7-2.09-.08-2.87l-3.78-3.78c-.4-.36-.9-.53-1.39-.53-.54,0-1.07,.21-1.48,.61L2.03,14.27Zm5.26,5.09H3.59v-3.7L11.66,7.59l.05,.05,3.64,3.64L7.29,19.36ZM14.67,4.68l3.64,3.64-1.48,1.48-.05-.05-3.64-3.64,1.48-1.48,.05,.05Z"/>
</svg>