<?xml version="1.0" encoding="UTF-8"?>
<svg id="_图层_1" data-name="图层 1" xmlns="http://www.w3.org/2000/svg" viewBox="0 0 24 24">
  <defs>
    <style>
      .casfsa121 {
        fill-rule: evenodd;
      }
    </style>
  </defs>
  <g>
    <path class="casfsa121" d="M5.09,3.48h2.3s.09,0,.13-.01c.04,0,.09-.02,.13-.04,.04-.02,.08-.04,.12-.06,.04-.02,.07-.05,.1-.09,.03-.03,.06-.07,.09-.1,.02-.04,.05-.08,.06-.12,.02-.04,.03-.08,.04-.13,0-.04,.01-.09,.01-.14,0-.05,0-.09-.01-.13,0-.04-.02-.09-.04-.13-.02-.04-.04-.08-.06-.12-.02-.04-.05-.07-.09-.1-.03-.03-.07-.06-.1-.09-.04-.02-.08-.05-.12-.06-.04-.02-.08-.03-.13-.04-.04,0-.09-.01-.14-.01h-2.3c-.83,0-1.53,.29-2.12,.88-.58,.58-.88,1.29-.88,2.12v1.15s0,.09,.01,.13c0,.04,.02,.09,.04,.13,.02,.04,.04,.08,.06,.12,.02,.04,.05,.07,.09,.1,.03,.03,.07,.06,.1,.09,.04,.02,.08,.05,.12,.06,.04,.02,.08,.03,.13,.04s.09,.01,.14,.01c.05,0,.09,0,.13-.01s.09-.02,.13-.04,.08-.04,.12-.06,.07-.05,.1-.09c.03-.03,.06-.07,.09-.1,.02-.04,.05-.08,.06-.12,.02-.04,.03-.08,.04-.13,0-.04,.01-.09,.01-.14v-1.15c0-.45,.16-.82,.47-1.14,.31-.31,.69-.47,1.14-.47"/>
    <path class="casfsa121" d="M2.1,17.76s0-.09,.01-.13c0-.04,.02-.09,.04-.13,.02-.04,.04-.08,.06-.12,.02-.04,.05-.07,.09-.1,.03-.03,.07-.06,.1-.09,.04-.02,.08-.05,.12-.06,.04-.02,.08-.03,.13-.04s.09-.01,.14-.01c.05,0,.09,0,.13,.01s.09,.02,.13,.04,.08,.04,.12,.06,.07,.05,.1,.09c.03,.03,.06,.07,.09,.1,.02,.04,.05,.08,.06,.12,.02,.04,.03,.08,.04,.13,0,.04,.01,.09,.01,.14v1.15c0,.45,.16,.82,.47,1.14,.31,.31,.69,.47,1.14,.47h2.3s.09,0,.13,.01c.04,0,.09,.02,.13,.04,.04,.02,.08,.04,.12,.06,.04,.02,.07,.05,.1,.09,.03,.03,.06,.07,.09,.1,.02,.04,.05,.08,.06,.12,.02,.04,.03,.08,.04,.13s.01,.09,.01,.14,0,.09-.01,.13c0,.04-.02,.09-.04,.13-.02,.04-.04,.08-.06,.12s-.05,.07-.09,.1c-.03,.03-.07,.06-.1,.09-.04,.02-.08,.05-.12,.06-.04,.02-.08,.03-.13,.04-.04,0-.09,.01-.14,.01h-2.3c-.83,0-1.53-.29-2.12-.88-.58-.58-.88-1.29-.88-2.12v-1.15Z"/>
    <path class="casfsa121" d="M16.6,2.1h2.3c.83,0,1.53,.29,2.12,.88,.58,.58,.88,1.29,.88,2.12v1.15s0,.09-.01,.13c0,.04-.02,.09-.04,.13-.02,.04-.04,.08-.06,.12-.02,.04-.05,.07-.09,.1-.03,.03-.07,.06-.1,.09-.04,.02-.08,.05-.12,.06-.04,.02-.08,.03-.13,.04-.04,0-.09,.01-.14,.01s-.09,0-.13-.01-.09-.02-.13-.04-.08-.04-.12-.06-.07-.05-.1-.09c-.03-.03-.06-.07-.09-.1-.02-.04-.05-.08-.06-.12-.02-.04-.03-.08-.04-.13,0-.04-.01-.09-.01-.14v-1.15c0-.45-.16-.82-.47-1.14-.31-.31-.69-.47-1.14-.47h-2.3s-.09,0-.13-.01c-.04,0-.09-.02-.13-.04-.04-.02-.08-.04-.12-.06-.04-.02-.07-.05-.1-.09-.03-.03-.06-.07-.09-.1-.02-.04-.05-.08-.06-.12-.02-.04-.03-.08-.04-.13,0-.04-.01-.09-.01-.14,0-.05,0-.09,.01-.13,0-.04,.02-.09,.04-.13,.02-.04,.04-.08,.06-.12,.02-.04,.05-.07,.09-.1,.03-.03,.07-.06,.1-.09,.04-.02,.08-.05,.12-.06,.04-.02,.08-.03,.13-.04,.04,0,.09-.01,.14-.01"/>
    <path class="casfsa121" d="M20.52,17.76s0-.09,.01-.13c0-.04,.02-.09,.04-.13s.04-.08,.06-.12c.02-.04,.05-.07,.09-.1,.03-.03,.07-.06,.1-.09,.04-.02,.08-.05,.12-.06,.04-.02,.08-.03,.13-.04,.04,0,.09-.01,.14-.01s.09,0,.13,.01,.09,.02,.13,.04,.08,.04,.12,.06,.07,.05,.1,.09c.03,.03,.06,.07,.09,.1,.02,.04,.05,.08,.06,.12,.02,.04,.03,.08,.04,.13,0,.04,.01,.09,.01,.14v1.15c0,.83-.29,1.53-.88,2.12-.58,.58-1.29,.88-2.12,.88h-2.3s-.09,0-.13-.01c-.04,0-.09-.02-.13-.04-.04-.02-.08-.04-.12-.06-.04-.02-.07-.05-.1-.09-.03-.03-.06-.07-.09-.1-.02-.04-.05-.08-.06-.12-.02-.04-.03-.08-.04-.13,0-.04-.01-.09-.01-.14s0-.09,.01-.13c0-.04,.02-.09,.04-.13,.02-.04,.04-.08,.06-.12s.05-.07,.09-.1c.03-.03,.07-.06,.1-.09,.04-.02,.08-.05,.12-.06,.04-.02,.08-.03,.13-.04,.04,0,.09-.01,.14-.01h2.3c.45,0,.82-.16,1.14-.47,.31-.31,.47-.69,.47-1.14v-1.15Z"/>
  </g>
  <rect x="1.5" y="11.25" width="21" height="1.5" rx=".5" ry=".5"/>
</svg>