<?xml version="1.0" encoding="UTF-8"?>
<svg id="_图层_1" data-name="图层 1" xmlns="http://www.w3.org/2000/svg" viewBox="0 0 24 24">
  <defs>
    <style>
      .apa-general {
        fill: #1975ff;
      }
    </style>
  </defs>
  <path class="apa-general"
    d="M8.5,1.5H3.83c-1.29,0-2.33,1.04-2.33,2.33h0v4.67c0,1.29,1.04,2.33,2.33,2.33h4.67c1.29,0,2.33-1.04,2.33-2.33h0V3.83c0-1.29-1.04-2.33-2.33-2.33h0Zm11.67,0h-4.67c-1.29,0-2.33,1.04-2.33,2.33v4.67c0,1.29,1.04,2.33,2.33,2.33h4.67c1.29,0,2.33-1.04,2.33-2.33V3.83c0-1.29-1.04-2.33-2.33-2.33ZM8.5,13.17H3.83c-1.29,0-2.33,1.04-2.33,2.33v4.67c0,1.29,1.04,2.33,2.33,2.33h4.67c1.29,0,2.33-1.04,2.33-2.33v-4.67c0-1.29-1.04-2.33-2.33-2.33Zm11.67,0h-4.67c-1.29,0-2.33,1.04-2.33,2.33v4.67c0,1.29,1.04,2.33,2.33,2.33h4.67c1.29,0,2.33-1.04,2.33-2.33v-4.67c0-1.29-1.04-2.33-2.33-2.33Z" />
</svg>