<?xml version="1.0" encoding="UTF-8"?>
<svg id="_图层_1" data-name="图层 1" xmlns="http://www.w3.org/2000/svg" viewBox="0 0 24 24">
  <path d="M20.98,16.36c-.42-.42-.92-.62-1.51-.62v-1.07c0-.74-.26-1.37-.78-1.89-.52-.52-1.15-.78-1.89-.78s-1.37,.26-1.89,.78c-.52,.52-.78,1.15-.78,1.89v1.07c-.59,0-1.09,.21-1.51,.62s-.62,.92-.62,1.51v2.67c0,.57,.22,1.11,.62,1.51,.42,.42,.92,.62,1.51,.62h5.33c.59,0,1.09-.21,1.51-.62s.62-.92,.62-1.51v-2.67c0-.59-.21-1.09-.62-1.51Zm-4.95-1.62c0-.45,.37-.82,.82-.82s.82,.37,.82,.82v.98h-1.64v-.98Zm3.65,5.51c0,.28-.23,.5-.5,.5h-4.76c-.28,0-.5-.23-.5-.5v-2.11c0-.28,.23-.5,.5-.5h4.76c.28,0,.5,.23,.5,.5v2.11Z"/>
  <path d="M7.73,6.67c-.64,0-1.07,.43-1.07,1.07s.43,1.07,1.07,1.07h6.4c.64,0,1.07-.43,1.07-1.07s-.43-1.07-1.07-1.07H7.73Z"/>
  <path d="M6.66,12c0-.64,.43-1.07,1.07-1.07h3.2c.64,0,1.07,.43,1.07,1.07s-.43,1.07-1.07,1.07h-3.2c-.64,0-1.07-.43-1.07-1.07Z"/>
  <path d="M4.53,1.33h12.8c1.17,0,2.13,.96,2.13,2.13v5.33c0,.64-.43,1.07-1.07,1.07s-1.07-.43-1.07-1.07V3.47H4.53V20.53h4.27c.64,0,1.07,.43,1.07,1.07s-.43,1.07-1.07,1.07H4.53c-1.17,0-2.13-.96-2.13-2.13V3.47c0-1.17,.96-2.13,2.13-2.13Z"/>
</svg>