<?xml version="1.0" encoding="UTF-8"?>
<svg id="_图层_1" data-name="图层 1" xmlns="http://www.w3.org/2000/svg" viewBox="0 0 24 24">
  <path d="M7.5,12c0,2.49,2.01,4.5,4.5,4.5s4.5-2.01,4.5-4.5-2.01-4.5-4.5-4.5-4.5,2.01-4.5,4.5Z"/>
  <path d="M22.5,12c0-1.26-.22-2.48-.65-3.64-.15-.39-.59-.58-.97-.42-.37,.15-.57,.56-.43,.94,.37,.99,.55,2.04,.55,3.12,0,.52-.05,1.02-.14,1.51-.77,.07-1.36,.71-1.36,1.49,0,.44,.2,.84,.5,1.11-1.49,2.9-4.51,4.89-8,4.89-4.97,0-9-4.03-9-9,0-.52,.05-1.02,.14-1.51,.77-.07,1.36-.71,1.36-1.49,0-.44-.2-.84-.5-1.11,1.49-2.9,4.51-4.89,8-4.89,.78,0,1.54,.11,2.28,.3,.17,.81,.97,1.33,1.78,1.15,.69-.15,1.18-.75,1.19-1.46,0-.83-.67-1.5-1.5-1.5-.38,0-.73,.15-.99,.38-.9-.25-1.83-.38-2.76-.38C7.77,1.5,4.14,4,2.48,7.6c-.59,.22-.98,.78-.98,1.4,0,.29,.09,.57,.23,.8-.16,.72-.23,1.46-.23,2.2,0,5.8,4.7,10.5,10.5,10.5,4.23,0,7.86-2.5,9.52-6.1,.59-.22,.98-.78,.98-1.4,0-.29-.09-.57-.23-.8,.15-.71,.23-1.45,.23-2.2Z"/>
</svg>