<?xml version="1.0" encoding="UTF-8"?>
<svg id="_图层_1" data-name="图层 1" xmlns="http://www.w3.org/2000/svg" viewBox="0 0 24 24">
  <defs>
    <style>
      .cls-1 {
        fill: #f8682c;
      }

      .cls-2 {
        fill: #00b4f1;
      }

      .cls-3 {
        fill: #ffc300;
      }

      .cls-4 {
        fill: #91c300;
      }
    </style>
  </defs>
  <path class="cls-3" d="M20.97,13.71l-8.52-.2c-.44-.01-.8,.34-.8,.78v5.78c0,.38,.28,.71,.65,.77l8.52,1.4c.47,.08,.91-.29,.91-.77v-6.98c0-.42-.34-.77-.76-.78Z"/>
  <path class="cls-2" d="M9.76,13.22l-6.73-.16h-.01s.01,0,.01,0c-.44-.01-.8,.34-.8,.78v4.7c0,.38,.27,.71,.65,.77l6.73,1.13c.48,.08,.91-.29,.91-.77v-5.67c0-.42-.34-.77-.76-.78Z"/>
  <path class="cls-1" d="M9.64,4.1l-6.73,.9c-.39,.05-.68,.38-.68,.77v5.38c0,.43,.35,.78,.78,.78h6.73c.43,0,.78-.35,.78-.78V4.87c0-.47-.42-.84-.88-.77Z"/>
  <path class="cls-4" d="M20.85,2.75l-8.52,1.09c-.39,.05-.68,.38-.68,.77v6.54c0,.43,.35,.78,.78,.78h8.52c.43,0,.78-.35,.78-.78V3.52c0-.47-.41-.83-.88-.77Z"/>
</svg>