<?xml version="1.0" encoding="UTF-8"?>
<svg id="_图层_1" data-name="图层 1" xmlns="http://www.w3.org/2000/svg" viewBox="0 0 24 24">
  <path d="M15.36,2.2c-.52-.27-1.15-.23-1.63,.1L6.42,7.3H3.08c-.87,0-1.58,.71-1.58,1.58v6.27c0,.87,.71,1.58,1.58,1.58h3.35l7.31,4.97c.72,.49,1.7,.31,2.19-.41,.18-.26,.28-.57,.28-.89V3.6c0-.59-.32-1.12-.84-1.4ZM5.7,14.63h-1.58c-.29,0-.52-.24-.52-.52v-4.2c0-.29,.24-.53,.52-.53h1.58v5.25Zm12.6-6.3c-.58,0-1.05,.47-1.05,1.05h0v5.25c0,.58,.47,1.05,1.05,1.05,.58,0,1.05-.47,1.05-1.05v-5.25c0-.58-.47-1.05-1.05-1.05h0Zm3.15-2.1c-.58,0-1.05,.47-1.05,1.05h0v9.45c0,.58,.47,1.05,1.05,1.05,.58,0,1.05-.47,1.05-1.05V7.28c0-.58-.47-1.05-1.05-1.05h0Z"/>
</svg>