<?xml version="1.0" encoding="UTF-8"?>
<svg id="_图层_1" data-name="图层 1" xmlns="http://www.w3.org/2000/svg" viewBox="0 0 24 24">
  <path d="M16.76,5.99c-1.02,.63-2.35,.32-2.98-.69-.63-1.02-.32-2.35,.69-2.98s2.35-.32,2.98,.69c.2,.32,.31,.69,.33,1.07,2.87,1.78,4.62,4.91,4.61,8.29,0,1.05-.17,2.06-.47,3l-2.05-.72c.23-.72,.35-1.49,.35-2.28,0-2.57-1.31-4.97-3.47-6.37ZM5.07,11.74c1.04,.6,1.39,1.92,.79,2.96-.6,1.04-1.92,1.39-2.96,.79-1.04-.6-1.39-1.92-.79-2.96,.19-.33,.46-.6,.79-.79,.22-3.37,2.17-6.38,5.15-7.97,.9-.48,1.87-.82,2.87-1l.32,2.14c-.76,.14-1.5,.4-2.18,.76-2.27,1.21-3.78,3.49-3.99,6.06Zm10.72,7.53c.02-1.2,1.01-2.15,2.2-2.13,1.2,.02,2.15,1.01,2.13,2.2s-1.01,2.15-2.2,2.13c-.38,0-.75-.11-1.07-.31-3.05,1.44-6.63,1.2-9.47-.63-.86-.55-1.62-1.24-2.26-2.03l1.72-1.32c.49,.6,1.08,1.11,1.73,1.53,2.16,1.4,4.88,1.61,7.23,.55Z"/>
</svg>