<?xml version="1.0" encoding="UTF-8"?>
<svg id="_图层_1" data-name="图层 1" xmlns="http://www.w3.org/2000/svg" viewBox="0 0 24 24">
  <defs>
    <style>
      .apa-vector-color {
        fill: #96f;
      }
    </style>
  </defs>
  <path class="apa-vector-color"
    d="M8.13,16.42c0-.66-.44-1.11-1.11-1.11h-1.11v-3.32H3.71v3.32h-1.11c-.66,0-1.11,.44-1.11,1.11v4.42c0,.66,.44,1.11,1.11,1.11H7.03c.66,0,1.11-.44,1.11-1.11v-1.11h4.42v-2.21h-4.42v-1.11Z" />
  <path class="apa-vector-color"
    d="M21.39,15.32h-3.98L8.13,7.14V3.16c0-.66-.44-1.11-1.11-1.11H2.61c-.66,0-1.11,.44-1.11,1.11V7.58c0,.66,.44,1.11,1.11,1.11h3.98l9.28,8.18v3.98c0,.66,.44,1.11,1.11,1.11h4.42c.66,0,1.11-.44,1.11-1.11v-4.42c0-.66-.44-1.11-1.11-1.11ZM4.82,6.47c-.66,0-1.11-.44-1.11-1.11s.44-1.11,1.11-1.11,1.11,.44,1.11,1.11-.44,1.11-1.11,1.11Zm14.37,13.26c-.66,0-1.11-.44-1.11-1.11s.44-1.11,1.11-1.11,1.11,.44,1.11,1.11-.44,1.11-1.11,1.11Z" />
  <path class="apa-vector-color"
    d="M21.39,2.05h-4.42c-.66,0-1.11,.44-1.11,1.11v1.11h-4.42v2.21h4.42v1.11c0,.66,.44,1.11,1.11,1.11h1.11v3.32h2.21v-3.32h1.11c.66,0,1.11-.44,1.11-1.11V3.16c0-.66-.44-1.11-1.11-1.11Z" />
</svg>