<?xml version="1.0" encoding="UTF-8"?>
<svg id="_图层_1" data-name="图层 1" xmlns="http://www.w3.org/2000/svg" viewBox="0 0 24 24">
  <defs>
    <style>
      .cls-1 {
        fill-rule: evenodd;
      }
    </style>
  </defs>
  <path d="M11.88,24h-.58c-.2-.02-.4-.04-.6-.06l-.55-.07c-.23-.03-.42-.07-.62-.11l-.56-.13c-.2-.05-.39-.1-.58-.16-.19-.06-.37-.12-.55-.18-.19-.06-.38-.14-.57-.22-.17-.07-.35-.15-.52-.23-.18-.08-.36-.17-.53-.27-.17-.09-.34-.19-.51-.29-.17-.1-.33-.2-.49-.31-.17-.11-.32-.22-.48-.34-.16-.12-.32-.24-.47-.36-.16-.13-.3-.26-.45-.39-.15-.13-.29-.27-.43-.41s-.27-.28-.4-.42c-.13-.15-.26-.29-.38-.45-.13-.15-.25-.31-.37-.47-.11-.15-.23-.31-.34-.48-.11-.17-.22-.33-.32-.5-.1-.16-.2-.33-.29-.51-.09-.18-.18-.35-.27-.53-.08-.17-.16-.35-.24-.53-.08-.18-.15-.36-.21-.55-.07-.19-.13-.37-.18-.56-.06-.19-.11-.38-.16-.57-.05-.19-.09-.38-.13-.57-.04-.2-.07-.39-.1-.58s-.05-.39-.07-.58c-.02-.2-.03-.4-.04-.59-.01-.19-.01-.39-.01-.59s0-.39,.01-.59c0-.19,.02-.39,.04-.58,.02-.2,.04-.39,.07-.58,.03-.2,.06-.39,.1-.59,.04-.19,.08-.38,.13-.57,.05-.2,.1-.39,.16-.58l.18-.55c.07-.19,.14-.38,.22-.57,.07-.18,.15-.35,.24-.53,.08-.18,.17-.35,.26-.53,.09-.17,.19-.34,.29-.51,.1-.17,.21-.34,.32-.5,.11-.16,.22-.32,.33-.48,.12-.16,.24-.32,.37-.47,.13-.15,.26-.3,.39-.45,.13-.14,.26-.29,.41-.43,.13-.14,.28-.27,.42-.4,.15-.13,.29-.26,.44-.38,.16-.13,.31-.25,.47-.37,.16-.12,.32-.23,.48-.34,.17-.11,.34-.22,.51-.32,.16-.1,.33-.19,.5-.29,.18-.1,.36-.18,.53-.27,.17-.08,.35-.16,.53-.24,.18-.08,.37-.15,.55-.21,.18-.07,.37-.13,.56-.19,.18-.06,.37-.11,.56-.15,.19-.05,.38-.09,.57-.13,.2-.04,.39-.07,.59-.1,.19-.03,.39-.05,.58-.07,.2-.02,.39-.03,.59-.04,.41-.02,.79-.02,1.18,0,.2,.01,.39,.03,.59,.04,.2,.02,.39,.05,.58,.07,.2,.03,.4,.06,.59,.1,.19,.04,.38,.08,.56,.13,.2,.05,.39,.1,.58,.16,.19,.06,.37,.12,.56,.18,.18,.06,.37,.14,.55,.21,.18,.08,.36,.15,.54,.24,.17,.08,.35,.17,.52,.26,.18,.1,.35,.19,.51,.29,.17,.1,.33,.2,.5,.31,.16,.11,.32,.22,.47,.33,.16,.12,.32,.24,.47,.37,.15,.13,.3,.25,.44,.39,.15,.13,.29,.27,.43,.41,.14,.14,.27,.28,.41,.43,.13,.15,.26,.29,.39,.45,.12,.15,.24,.3,.36,.46,.12,.16,.23,.32,.34,.48,.11,.16,.22,.33,.31,.5,.1,.17,.2,.34,.29,.51,.09,.17,.18,.35,.27,.53,.08,.17,.16,.35,.24,.53,.07,.18,.14,.36,.21,.55,.07,.19,.13,.38,.19,.56,.06,.18,.11,.37,.16,.57,.05,.19,.09,.38,.13,.57,.04,.19,.07,.39,.1,.59,.03,.19,.05,.39,.07,.58,.02,.2,.03,.39,.04,.59,0,.2,.01,.4,.01,.59s0,.39-.01,.58c-.01,.2-.03,.4-.04,.59-.02,.2-.04,.39-.07,.58-.03,.2-.06,.39-.1,.58-.04,.19-.08,.38-.13,.57s-.1,.38-.16,.57c-.06,.18-.12,.37-.18,.55-.07,.19-.14,.37-.21,.55-.08,.19-.16,.37-.24,.54-.08,.18-.17,.35-.26,.52-.09,.17-.19,.34-.29,.52-.1,.16-.2,.33-.31,.49-.11,.17-.22,.33-.34,.49-.12,.16-.24,.31-.36,.46-.12,.15-.25,.3-.39,.45-.14,.15-.27,.29-.4,.42-.13,.13-.28,.27-.43,.41-.15,.14-.3,.26-.44,.38-.15,.12-.3,.24-.46,.36-.17,.13-.33,.24-.49,.34-.16,.1-.32,.21-.49,.31-.18,.11-.35,.21-.52,.29-.16,.09-.33,.17-.51,.26-.19,.09-.37,.17-.55,.25-.17,.07-.35,.14-.53,.21-.19,.07-.38,.13-.57,.19-.18,.06-.37,.11-.56,.16-.2,.05-.38,.09-.57,.13-.2,.04-.39,.07-.58,.1-.19,.03-.39,.05-.58,.07-.2,.02-.4,.03-.59,.04-.19,.01-.39,.02-.59,.02Zm0-22.29c-.17,0-.34,0-.51,.01-.16,.01-.34,.02-.51,.04-.16,.02-.33,.04-.5,.06-.17,.03-.33,.06-.5,.09-.16,.03-.32,.07-.48,.11-.17,.04-.33,.09-.5,.14-.16,.05-.31,.1-.47,.15-.17,.06-.32,.12-.48,.18-.15,.06-.31,.13-.46,.2-.16,.07-.31,.15-.46,.23-.14,.08-.29,.16-.44,.25-.15,.09-.29,.18-.43,.27-.14,.09-.28,.19-.42,.29-.13,.1-.26,.2-.4,.31-.13,.1-.26,.22-.38,.33-.12,.11-.24,.22-.36,.34-.12,.12-.24,.24-.35,.36-.12,.13-.23,.26-.33,.39-.11,.13-.21,.27-.31,.4-.1,.13-.19,.27-.29,.41-.1,.14-.19,.28-.27,.43-.08,.14-.17,.29-.25,.44-.08,.15-.15,.3-.22,.45-.08,.16-.14,.32-.21,.47-.06,.15-.12,.3-.17,.46l-.16,.5c-.05,.15-.09,.31-.13,.47-.04,.17-.08,.34-.11,.5-.03,.16-.06,.32-.08,.49-.03,.17-.05,.34-.06,.51-.02,.16-.03,.33-.04,.49,0,.17-.01,.34-.01,.51s0,.34,.01,.5c0,.17,.02,.34,.04,.51,.02,.16,.04,.33,.06,.5s.05,.33,.09,.5c.03,.16,.07,.33,.11,.49,.04,.17,.09,.33,.13,.49,.05,.16,.1,.32,.16,.48,.06,.15,.12,.31,.18,.47,.06,.15,.13,.31,.2,.46,.07,.16,.15,.31,.23,.45,.08,.15,.16,.29,.25,.44,.09,.15,.18,.29,.27,.43,.09,.14,.19,.27,.29,.41,.1,.14,.2,.27,.31,.4s.22,.26,.33,.38c.11,.12,.23,.25,.35,.37,.12,.12,.24,.24,.36,.35,.13,.11,.26,.22,.39,.33,.12,.1,.26,.21,.39,.31,.13,.1,.27,.2,.42,.29,.14,.09,.28,.18,.42,.27,.14,.09,.29,.17,.44,.25,.15,.08,.3,.16,.45,.23l.47,.21c.15,.06,.3,.12,.45,.17l.5,.17c.15,.05,.31,.09,.47,.13l.51,.12c.15,.03,.31,.06,.48,.08l.52,.06c.15,.02,.32,.03,.48,.03h.52c.16,.01,.33,.01,.49,0,.18,0,.35-.02,.52-.04,.16-.02,.33-.04,.49-.06,.17-.03,.33-.06,.5-.09,.16-.03,.33-.07,.5-.11,.16-.04,.32-.09,.48-.13,.16-.05,.31-.1,.47-.16l.48-.19c.15-.06,.3-.13,.45-.2,.15-.08,.31-.15,.45-.23,.15-.08,.29-.16,.44-.25,.15-.09,.29-.18,.43-.27,.13-.09,.27-.18,.41-.29,.14-.1,.27-.21,.4-.31,.12-.1,.25-.21,.38-.33,.12-.11,.24-.23,.36-.34,.12-.12,.24-.25,.36-.38,.11-.12,.22-.25,.32-.37,.11-.13,.21-.27,.32-.41,.1-.14,.2-.27,.29-.41,.09-.13,.18-.28,.27-.43,.09-.15,.17-.29,.25-.44,.08-.15,.15-.3,.23-.46,.07-.15,.14-.31,.21-.46,.06-.15,.12-.31,.18-.47,.06-.16,.11-.32,.16-.48,.05-.16,.09-.32,.13-.49,.04-.17,.08-.33,.11-.5,.03-.16,.06-.33,.09-.5,.03-.17,.05-.34,.06-.5,.02-.16,.03-.33,.04-.5,0-.17,.01-.33,.01-.5s0-.34-.01-.51c0-.17-.02-.33-.04-.5-.02-.16-.04-.33-.06-.5-.02-.17-.05-.33-.09-.49-.03-.17-.07-.33-.11-.5-.04-.16-.09-.32-.13-.48-.05-.16-.1-.32-.16-.48-.06-.16-.12-.32-.18-.48-.06-.15-.13-.3-.2-.45-.07-.16-.15-.31-.23-.45-.08-.15-.16-.3-.25-.44-.09-.14-.17-.28-.27-.42-.09-.14-.19-.28-.29-.42-.1-.13-.2-.26-.31-.39-.11-.13-.22-.26-.33-.38-.11-.12-.23-.25-.35-.36-.12-.12-.24-.24-.37-.35-.13-.11-.25-.22-.39-.33-.12-.1-.26-.21-.39-.31-.13-.1-.27-.2-.42-.29-.14-.09-.28-.18-.42-.26-.15-.09-.3-.17-.45-.25-.14-.08-.29-.15-.44-.22-.16-.08-.31-.14-.47-.21-.15-.07-.31-.12-.46-.18-.17-.06-.33-.11-.49-.16-.16-.05-.32-.09-.48-.13-.17-.04-.33-.08-.5-.11-.16-.03-.33-.06-.49-.09-.16-.02-.33-.04-.5-.06-.16-.02-.33-.03-.51-.04-.16,0-.33-.01-.5-.01Z"/>
  <path class="cls-1" d="M7.8,6.72s-.09-.08-.14-.11c-.05-.03-.1-.06-.16-.08-.05-.02-.11-.04-.17-.05-.06-.01-.12-.02-.18-.02s-.12,0-.18,.02c-.06,.01-.11,.03-.17,.05-.05,.02-.11,.05-.16,.08s-.1,.07-.14,.11c-.08,.08-.15,.18-.19,.29-.05,.11-.07,.22-.07,.34s.02,.23,.07,.34,.11,.21,.19,.29l4.07,4.07-4.07,4.07s-.08,.09-.11,.14c-.03,.05-.06,.1-.08,.16-.02,.05-.04,.11-.05,.17-.01,.06-.02,.12-.02,.18,0,.06,0,.12,.02,.18,.01,.06,.03,.11,.05,.17,.02,.06,.05,.11,.08,.16,.03,.05,.07,.1,.11,.14,.04,.04,.09,.08,.14,.11s.1,.06,.16,.08c.05,.02,.11,.04,.17,.05,.06,.01,.12,.02,.18,.02s.12,0,.18-.02c.06-.01,.11-.03,.17-.05,.06-.02,.11-.05,.16-.08,.05-.03,.1-.07,.14-.11l4.07-4.07,4.07,4.07s.09,.08,.14,.11c.05,.03,.1,.06,.16,.08,.05,.02,.11,.04,.17,.05s.12,.02,.18,.02,.12,0,.18-.02c.06-.01,.11-.03,.17-.05,.06-.02,.11-.05,.16-.08,.05-.03,.1-.07,.14-.11,.04-.04,.08-.09,.11-.14s.06-.1,.08-.16c.02-.05,.04-.11,.05-.17s.02-.12,.02-.18c0-.06,0-.12-.02-.18-.01-.06-.03-.11-.05-.17s-.05-.11-.08-.16-.07-.1-.11-.14l-4.07-4.07,4.07-4.07s.08-.09,.11-.14c.03-.05,.06-.1,.08-.16,.02-.05,.04-.11,.05-.17,.01-.06,.02-.12,.02-.18,0-.06,0-.12-.02-.18-.01-.06-.03-.11-.05-.17-.02-.06-.05-.11-.08-.16-.03-.05-.07-.1-.11-.14-.04-.04-.09-.08-.14-.11-.05-.03-.1-.06-.16-.08-.05-.02-.11-.04-.17-.05-.06-.01-.12-.02-.18-.02-.06,0-.12,0-.18,.02-.06,.01-.11,.03-.17,.05-.05,.02-.11,.05-.16,.08-.05,.03-.1,.07-.14,.11l-4.07,4.07L7.8,6.72Z"/>
</svg>