<?xml version="1.0" encoding="UTF-8"?>
<svg id="_图层_1" data-name="图层 1" xmlns="http://www.w3.org/2000/svg" viewBox="0 0 24 24">
  <defs>
    <style>
      .apa-full-txt-color {
        fill: #f0953a;
      }
    </style>
  </defs>
  <path class="apa-full-txt-color"
    d="M9.32,16.95c0-3.96,3.21-7.17,7.17-7.17,.87,0,1.69,.18,2.47,.46v-2.61c0-.27-.1-.53-.28-.73L13.83,1.45c-.21-.23-.5-.36-.81-.36H4.29c-1.52-.02-2.78,1.2-2.79,2.73h0V20.18c.02,1.52,1.27,2.75,2.79,2.73H12.51c-1.92-1.29-3.18-3.47-3.18-5.96ZM12.41,3.27l4.08,4.36h-3.31c-.47-.05-.81-.46-.77-.93V3.27Z" />
  <path class="apa-full-txt-color"
    d="M20.68,19.58h-.05c1.61-2.54,.63-6.03-2.4-7.25-1.3-.53-2.82-.45-4.06,.21-2.88,1.54-3.49,5.11-1.62,7.46,1.57,1.97,4.37,2.46,6.51,1.13,0,0,0,0,0,0l1.59,1.47c.43,.39,1.09,.39,1.51-.02h0c.46-.44,.45-1.17,0-1.6l-1.47-1.4Zm-2.27-.67c-.52,.51-1.22,.79-1.95,.78,0,0,.02,0,.03,0h-.06s.02,0,.03,0c-1.3-.01-2.42-.93-2.67-2.21-.25-1.28,.44-2.57,1.66-3.06,1.22-.49,2.61-.06,3.34,1.03,.72,1.09,.56,2.54-.37,3.46Z" />
</svg>