<?xml version="1.0" encoding="UTF-8"?>
<svg id="_图层_1" data-name="图层 1" xmlns="http://www.w3.org/2000/svg" viewBox="0 0 24 24">
  <defs>
    <style>
      .apa-more-1 {
        fill-rule: evenodd;
      }
    </style>
  </defs>
  <path class="apa-more-1" d="M5.24,10.55c-.4-.4-.89-.6-1.45-.6s-1.05,.2-1.45,.6c-.4,.4-.6,.89-.6,1.45s.2,1.05,.6,1.45c.4,.4,.89,.6,1.45,.6s1.05-.2,1.45-.6c.4-.4,.6-.89,.6-1.45s-.2-1.05-.6-1.45m8.23,0c-.4-.4-.89-.6-1.45-.6s-1.05,.2-1.45,.6-.6,.89-.6,1.45,.2,1.05,.6,1.45c.4,.4,.89,.6,1.45,.6s1.05-.2,1.45-.6c.4-.4,.6-.89,.6-1.45,0-.57-.2-1.05-.6-1.45m8.23,0c-.4-.4-.89-.6-1.45-.6s-1.05,.2-1.45,.6c-.4,.4-.6,.89-.6,1.45s.2,1.05,.6,1.45c.4,.4,.89,.6,1.45,.6,.57,0,1.05-.2,1.45-.6,.4-.4,.6-.89,.6-1.45s-.2-1.05-.6-1.45"/>
</svg>