<?xml version="1.0" encoding="UTF-8"?>
<svg id="_图层_1" data-name="图层 1" xmlns="http://www.w3.org/2000/svg" viewBox="0 0 24 24">
  <path d="M20.8,22.95h-6.6c-1.21,0-2.19-.98-2.2-2.19v-6.57c0-1.21,.99-2.19,2.2-2.19h6.6c1.21,0,2.19,.98,2.2,2.19v6.57c0,1.21-.99,2.19-2.2,2.19Zm0-8.76h-6.6v6.57h6.6v-6.57Zm0-5.48c-.61,0-1.1-.49-1.1-1.09v-2.19c0-.61-.49-1.1-1.1-1.1h-2.2c-.6,.06-1.14-.38-1.2-.98-.06-.6,.38-1.14,.98-1.2,.07,0,.15,0,.22,0h3.3c1.21,0,2.19,.98,2.2,2.19v3.28c0,.61-.49,1.1-1.1,1.1Zm-11,3.29H3.2c-1.21,0-2.19-.98-2.2-2.19V3.24c0-1.21,.99-2.19,2.2-2.19h6.6c1.21,0,2.19,.98,2.2,2.19v6.57c0,1.21-.99,2.19-2.2,2.19Zm0-8.76H3.2v6.57h6.6V3.24ZM3.2,15.29c.61,0,1.1,.49,1.1,1.1v2.19c0,.61,.49,1.1,1.1,1.1h2.2c.6-.06,1.14,.38,1.2,.98,.06,.6-.38,1.14-.98,1.2-.07,0-.15,0-.22,0h-3.3c-1.21,0-2.19-.98-2.2-2.19v-3.28c0-.61,.49-1.1,1.1-1.1,0,0,0,0,0,0Z"/>
</svg>