<?xml version="1.0" encoding="UTF-8"?>
<svg id="_图层_1" data-name="图层 1" xmlns="http://www.w3.org/2000/svg" viewBox="0 0 24 24">
  <path d="M18.67,2.44c1.02-.25,2.05,.34,2.34,1.33,.28,.98-.29,2-1.28,2.28,0,0,0,0,0,0l-13.4,3.33h13.07c1.04,0,1.92,.78,2.01,1.81v.19s0,8.21,0,8.21c0,1.1-.91,2-2.03,2H4.64c-1.12,0-2.03-.9-2.03-2V11.38c0-.87,.56-1.6,1.33-1.88-.5-.24-.86-.67-1.01-1.19-.28-.98,.29-2,1.28-2.28h0s14.45-3.59,14.45-3.59ZM3.97,13.24v6.35c0,.32,.23,.6,.55,.66h.12s14.75,.01,14.75,.01c.37,0,.68-.3,.68-.67v-6.35H3.97Zm5.96-2.53H4.65c-.37,0-.68,.3-.68,.67v.48h4.83l-.02-.02,1.14-1.13Zm4.59,0h-2.68l-1.16,1.15h2.72l-.02-.02,1.14-1.13Zm4.87,0h-2.96l-1.16,1.15h4.8v-.48c0-.32-.23-.6-.55-.66h-.12s0-.01,0-.01Zm-.28-6.99l-.12,.02L4.61,7.31l-.11,.04c-.22,.11-.32,.36-.26,.59,.09,.3,.41,.48,.72,.41l14.39-3.57,.11-.04c.22-.11,.32-.36,.26-.59-.09-.3-.4-.48-.71-.41l.12-.02Z"/>
</svg>