<?xml version="1.0" encoding="UTF-8"?>
<svg id="_图层_1" data-name="图层 1" xmlns="http://www.w3.org/2000/svg" viewBox="0 0 24 24">
  <path d="M7.13,14.43l1.87-8.1h1.64l-1.87,8.1h-1.64Zm6.39-2.33h-1.01l-.53,2.33h-1.64l1.87-8.1h2.33c.88,0,1.52,.18,1.91,.54,.39,.36,.59,.94,.59,1.75,0,1.14-.31,2-.93,2.59-.62,.59-1.48,.89-2.58,.89m.21-1.43c.5,0,.89-.18,1.18-.53,.29-.35,.43-.85,.43-1.5,0-.3-.07-.52-.21-.67-.14-.14-.38-.21-.71-.21h-.91l-.67,2.91h.89Z"/>
  <path d="M21.77,2.31H2.38c-.45,0-.81,.36-.81,.81v14.54c0,.45,.36,.81,.81,.81H21.77c.45,0,.81-.36,.81-.81V3.12c0-.45-.36-.81-.81-.81Zm-.75,14.47H3.25V3.85H21.02v12.92Zm-.86,3.3H4c-.45,0-.81,.36-.81,.81s.36,.81,.81,.81H20.15c.45,0,.81-.36,.81-.81s-.36-.81-.81-.81Z"/>
</svg>