<?xml version="1.0" encoding="UTF-8"?>
<svg id="_图层_1" data-name="图层 1" xmlns="http://www.w3.org/2000/svg" xmlns:xlink="http://www.w3.org/1999/xlink" viewBox="0 0 24 24">
  <defs>
    <style>
      .cls-1 {
        fill: url(#ksw1);
      }

      .cls-2 {
        fill: url(#ksw2);
      }
    </style>
    <linearGradient id="ksw2" data-name="未命名的渐变 33" x1="21.51" y1="13.39" x2=".31" y2="13.39" gradientUnits="userSpaceOnUse">
      <stop offset="0" stop-color="#37bfff"/>
      <stop offset="1" stop-color="#1975ff"/>
    </linearGradient>
    <linearGradient id="ksw1" data-name="未命名的渐变 33" x1="23.69" y1="4.21" x2="15.29" y2="4.21" xlink:href="#_未命名的渐变_33"/>
  </defs>
  <path class="cls-2" d="M11.14,2.82c.4,.09,.71,.4,.8,.8l.29,1.29c.8,3.59,3.6,6.39,7.19,7.19l1.29,.29c.56,.12,.92,.68,.8,1.25-.09,.4-.4,.71-.8,.8l-1.28,.28c-3.59,.8-6.39,3.6-7.19,7.19l-.29,1.29c-.13,.56-.69,.92-1.25,.79-.39-.09-.7-.4-.79-.79l-.29-1.29c-.8-3.58-3.6-6.38-7.18-7.18l-1.29-.28c-.56-.12-.92-.68-.8-1.25,.09-.4,.4-.71,.8-.8l1.29-.29c3.59-.8,6.39-3.6,7.18-7.19l.29-1.29c.13-.56,.68-.92,1.25-.8h0Z"/>
  <path class="cls-1" d="M19.42,3.42c.11,.14,.23,.27,.36,.4,.22,.21,.45,.38,.68,.53-.19,.14-.38,.3-.55,.49-.15,.16-.27,.32-.38,.48-.16-.21-.36-.43-.59-.63-.14-.12-.28-.23-.42-.33,.18-.13,.35-.28,.52-.46,.15-.16,.28-.32,.39-.48M19.34,0c-.71,.05-.34,1.74-1.41,2.87-1.06,1.14-2.64,.7-2.64,1.45s1.44,.45,2.66,1.51c1.2,1.04,.8,2.57,1.53,2.57,0,0,.02,0,.03,0,.77-.04,.56-1.53,1.5-2.54,.93-1,2.73-.87,2.69-1.64-.04-.77-1.76-.4-2.87-1.47C19.74,1.7,20.05,0,19.37,0c0,0-.02,0-.03,0h0Z"/>
</svg>