<?xml version="1.0" encoding="UTF-8"?>
<svg id="_图层_1" data-name="图层 1" xmlns="http://www.w3.org/2000/svg" viewBox="0 0 24 24">
  <path d="M17.11,22.15H2.77c-.18,0-.31-.12-.31-.31V2.15c0-.18,.12-.31,.31-.31H11.69V6.46c0,1.17,.98,2.15,2.15,2.15h4.62v1.11c0,.49,.43,.92,.92,.92s.92-.43,.92-.92v-3.88c0-.25-.12-.49-.25-.68L15.14,.25c-.18-.18-.43-.25-.68-.25H2.77C1.6,0,.62,.98,.62,2.15V21.85c0,1.17,.98,2.15,2.15,2.15h14.34c.49,0,.92-.43,.92-.92s-.43-.92-.92-.92Zm1.35-15.88v.49h-4.62c-.18,0-.31-.12-.31-.31V1.85h.55l4.37,4.43Z"/>
  <path d="M12.89,14.46h7.32s-1.48-1.48-1.48-1.48c-.37-.37-.37-.92,0-1.29s.92-.37,1.29,0l3.08,3.08c.37,.37,.37,.92,0,1.29l-3.08,3.08c-.18,.18-.43,.25-.68,.25s-.49-.06-.68-.25c-.37-.37-.37-.92,0-1.29l1.54-1.54h-7.32c-.49,0-.92-.43-.92-.92,0-.49,.43-.92,.92-.92Z"/>
</svg>