<?xml version="1.0" encoding="utf-8"?>
<!-- Generator: Adobe Illustrator 25.0.0, SVG Export Plug-In . SVG Version: 6.00 Build 0)  -->
<svg version="1.1" id="图层_1" xmlns="http://www.w3.org/2000/svg" xmlns:xlink="http://www.w3.org/1999/xlink" x="0px" y="0px"
	 viewBox="0 0 24 24" style="enable-background:new 0 0 24 24;" xml:space="preserve">
<style type="text/css">
	.st0{fill:#F44343;}
	.st1{fill:url(#SVGID_1_);}
	.st2{fill:url(#SVGID_2_);}
	.st3{fill:url(#SVGID_3_);}
	.st4{fill-rule:evenodd;clip-rule:evenodd;}
	.st5{fill-rule:evenodd;clip-rule:evenodd;fill:#FFBC00;}
	.st6{opacity:0.5;fill-rule:evenodd;clip-rule:evenodd;fill:#FFBC00;}
	.st7{fill:#989898;}
	.st8{fill:#333333;}
	.st9{fill:#272636;}
	.st10{fill:#272536;}
</style>
<path class="st4" d="M21.1,23.7H2.9c-1.4,0-2.6-1.2-2.6-2.6v-16c0-1.4,1.2-2.6,2.6-2.6h3.2V1.1c0-0.5,0.4-0.9,0.9-0.9
	c0.5,0,0.9,0.4,0.9,0.9v1.4h8.3V1.1c0-0.5,0.4-0.9,0.9-0.9c0.5,0,0.9,0.4,0.9,0.9v1.4h3.2c1.4,0,2.6,1.2,2.6,2.6v16
	C23.7,22.6,22.6,23.7,21.1,23.7z M22,5.1c0-0.5-0.4-0.9-0.9-0.9h-3.2v1.3c0,0.5-0.4,0.9-0.9,0.9c-0.5,0-0.9-0.4-0.9-0.9V4.2H7.9v1.3
	C7.9,6,7.5,6.4,7,6.4C6.5,6.4,6.1,6,6.1,5.6V4.2H2.9C2.4,4.2,2,4.6,2,5.1v3.1h20V5.1z M22,9.9H2v11.2C2,21.6,2.4,22,2.9,22h18.3
	c0.5,0,0.9-0.4,0.9-0.9V9.9z M9.1,18.1H5.9c-0.5,0-0.9-0.4-0.9-0.9c0-0.5,0.4-0.9,0.9-0.9h3.3c0.5,0,0.9,0.4,0.9,0.9
	C10,17.7,9.6,18.1,9.1,18.1z"/>
</svg>
