<?xml version="1.0" encoding="UTF-8"?>
<svg id="_图层_1" data-name="图层 1" xmlns="http://www.w3.org/2000/svg" viewBox="0 0 24 24">
  <path d="M1.5,12c0,.64,.52,1.17,1.17,1.17s1.17-.52,1.17-1.17-.52-1.17-1.17-1.17-1.17,.52-1.17,1.17Z" />
  <path
    d="M7.26,10.83h14.14c.73,0,1.1,.37,1.1,1.1v.14c0,.73-.37,1.1-1.1,1.1H7.26c-.73,0-1.1-.37-1.1-1.1v-.14c0-.73,.37-1.1,1.1-1.1Z" />
  <path
    d="M2.6,16.67H21.4c.73,0,1.1,.37,1.1,1.1v.14c0,.73-.37,1.1-1.1,1.1H2.6c-.73,0-1.1-.37-1.1-1.1v-.14c0-.73,.37-1.1,1.1-1.1Z" />
  <path
    d="M2.6,5H21.4c.73,0,1.1,.37,1.1,1.1v.14c0,.73-.37,1.1-1.1,1.1H2.6c-.73,0-1.1-.37-1.1-1.1v-.14c0-.73,.37-1.1,1.1-1.1Z" />
</svg>