<?xml version="1.0" encoding="UTF-8"?>
<svg id="_图层_1" data-name="图层 1" xmlns="http://www.w3.org/2000/svg" viewBox="0 0 24 24">
  <path d="M7.35,5.7c0,.58,.47,1.05,1.05,1.05,.58,0,1.05-.47,1.05-1.05h0c0-.58-.47-1.05-1.05-1.05-.58,0-1.05,.47-1.05,1.05h0Z"/>
  <path d="M7.35,12c0,.58,.47,1.05,1.05,1.05,.58,0,1.05-.47,1.05-1.05h0c0-.58-.47-1.05-1.05-1.05-.58,0-1.05,.47-1.05,1.05h0Z"/>
  <path d="M18.3,1.5H5.7c-1.16,0-2.1,.95-2.1,2.1V20.4c0,1.16,.94,2.1,2.1,2.1h12.6c1.16,0,2.1-.95,2.1-2.1V3.6c0-1.16-.95-2.1-2.1-2.1Zm0,18.9H5.7v-4.2h12.6v4.2Zm0-6.3H5.7v-4.2h12.6v4.2Zm0-6.3H5.7V3.6h12.6V7.8Z"/>
  <path d="M7.35,18.3c0,.58,.47,1.05,1.05,1.05,.58,0,1.05-.47,1.05-1.05h0c0-.58-.47-1.05-1.05-1.05-.58,0-1.05,.47-1.05,1.05h0Z"/>
</svg>