<?xml version="1.0" encoding="utf-8"?>
<!-- Generator: Adobe Illustrator 24.2.0, SVG Export Plug-In . SVG Version: 6.00 Build 0)  -->
<svg version="1.1" id="图层_1" xmlns="http://www.w3.org/2000/svg" xmlns:xlink="http://www.w3.org/1999/xlink" x="0px" y="0px"
	 viewBox="0 0 24 24" style="enable-background:new 0 0 24 24;" xml:space="preserve">
<g>
	<path d="M8,22.9c-2,0-4.1-0.8-5.6-2.3C0.8,19,0,17,0,14.9c0-2.1,0.8-4.1,2.3-5.6l7.8-7.8c0.5-0.5,1.2-0.5,1.6,0
		c0.5,0.4,0.5,1.2,0,1.6L4,10.9c-1.1,1.1-1.7,2.5-1.7,4c0,1.5,0.6,2.9,1.7,4c2.2,2.2,5.8,2.2,8,0l8.7-8.7c1.4-1.4,1.4-3.6,0-5
		c-1.3-1.3-3.7-1.3-5,0l-8.4,8.4c-0.3,0.3-0.4,0.6-0.4,1c0,0.4,0.1,0.7,0.4,1c0.5,0.5,1.5,0.5,2,0l7.5-7.5c0.5-0.5,1.2-0.5,1.6,0
		c0.5,0.4,0.5,1.2,0,1.6l-7.5,7.5c-1.4,1.4-3.9,1.4-5.3,0c-0.7-0.7-1.1-1.6-1.1-2.6s0.4-1.9,1.1-2.6L14,3.6c1.1-1.1,2.6-1.7,4.1-1.7
		c1.6,0,3,0.6,4.1,1.7c2.3,2.3,2.3,6,0,8.3l-8.7,8.7C12.1,22.1,10,22.9,8,22.9z"/>
</g>
</svg>
