<?xml version="1.0" encoding="UTF-8"?>
<svg id="_图层_1" data-name="图层 1" xmlns="http://www.w3.org/2000/svg" viewBox="0 0 24 24">
  <path d="M8.85,2.52c0-.58,.47-1.05,1.05-1.05h4.2c.58,0,1.05,.47,1.05,1.05s-.47,1.05-1.05,1.05h-4.2c-.58,0-1.05-.47-1.05-1.05Z"/>
  <path d="M1.64,5.67c0-.58,.47-1.05,1.05-1.05H21.31c.58,0,1.05,.47,1.05,1.05,0,.58-.47,1.05-1.05,1.05H2.69c-.58,0-1.05-.47-1.05-1.05h0Z"/>
  <path d="M6.29,6.2c0-.58-.47-1.05-1.05-1.05s-1.05,.47-1.05,1.05v15.22c0,.58,.47,1.05,1.05,1.05h13.53c.58,0,1.05-.47,1.05-1.05h0V6.2c0-.58-.47-1.05-1.05-1.05-.58,0-1.05,.47-1.05,1.05h0v14.18H6.29s0-14.17,0-14.17Z"/>
  <g>
    <path d="M9.9,8.82c.58,0,1.05,.47,1.05,1.05v7.35c0,.58-.47,1.05-1.05,1.05s-1.05-.47-1.05-1.05v-7.35c0-.58,.47-1.05,1.05-1.05Z"/>
    <path d="M15.15,9.87c0-.58-.47-1.05-1.05-1.05-.58,0-1.05,.47-1.05,1.05h0v7.35c0,.58,.47,1.05,1.05,1.05,.58,0,1.05-.47,1.05-1.05h0v-7.35Z"/>
  </g>
</svg>