<svg id="图层_1" data-name="图层 1" xmlns="http://www.w3.org/2000/svg" viewBox="0 0 24 24">
  <defs>
    <style>
      .apa-radio1 {
        fill: #4da5f4;
      }

      .apa-radio1,
      .apa-radio2 {
        fill-rule: evenodd;
      }

      .apa-radio2 {
        fill: #a9daff;
      }

      .apa-radio3 {
        fill: none;
      }

      .apa-radio4 {
        fill: #fff;
      }
    </style>
  </defs>
  <path class="apa-radio1"
    d="M21,23a3.27,3.27,0,0,0,1-2.4V5.85a1,1,0,0,0-.07-.36,1.21,1.21,0,0,0-.2-.3L16.8.27a.79.79,0,0,0-.3-.2A.84.84,0,0,0,16.15,0H5.39A3.27,3.27,0,0,0,3,1,3.26,3.26,0,0,0,2,3.38V20.61A3.27,3.27,0,0,0,3,23a3.28,3.28,0,0,0,2.4,1H18.61A3.27,3.27,0,0,0,21,23" />
  <path class="apa-radio2"
    d="M22,5.85a1,1,0,0,0-.07-.36,1.21,1.21,0,0,0-.2-.3L16.8.27,16.67.16A.7.7,0,0,0,16.5.07l-.17,0-.18,0L16,0,15.8.07a.83.83,0,0,0-.16.09L15.5.27a1,1,0,0,0-.2.3.84.84,0,0,0-.07.35V4.48A2.33,2.33,0,0,0,16,6.24a2.08,2.08,0,0,0,1.41.53h3.69l.18,0,.18,0a.65.65,0,0,0,.16-.09l.14-.11a.76.76,0,0,0,.11-.14l.09-.16A1,1,0,0,0,22,5.85" />
  <rect class="apa-radio3" x="2" width="19.99" height="24" />
  <path class="apa-radio4"
    d="M16.79,13.63a1.57,1.57,0,0,0-.42-1.05c-.36-.49-1.08-.44-1.59-1s-.3-.77-.51-1.14a1.75,1.75,0,0,0-.18-.26s0,0-.06-.07l0,0h0l0,0,0,0h0a.56.56,0,0,0-.45-.11c-.27,0-.44.15-.52.47l-1.39,5.91a3.54,3.54,0,0,0-1.33-.6c-1.43-.34-2.76.16-3,1.12h0c-.22,1,.75,2,2.18,2.33s2.76-.17,3-1.12h0V18l0-.08,1.4-5.94.08.11a1.94,1.94,0,0,0,.71.56l.13.07c.4.14.74.24.85.51a7.65,7.65,0,0,1,.68,1.46C16.37,15.15,16.85,14.11,16.79,13.63Z" />
</svg>