<?xml version="1.0" encoding="utf-8"?>
<!-- Generator: Adobe Illustrator 24.2.0, SVG Export Plug-In . SVG Version: 6.00 Build 0)  -->
<svg version="1.1" id="图层_1" xmlns="http://www.w3.org/2000/svg" xmlns:xlink="http://www.w3.org/1999/xlink" x="0px" y="0px"
	 viewBox="0 0 24 24" style="enable-background:new 0 0 24 24;" xml:space="preserve">
<g>
	<g>
		<g>
			<path d="M12,8.3c-2.1,0-3.9,1.7-3.9,3.7c0,2.1,1.7,3.7,3.9,3.7c2.1,0,3.9-1.7,3.9-3.7C15.9,9.9,14.1,8.3,12,8.3z M12,13.3
				c-0.8,0-1.4-0.6-1.4-1.3c0-0.7,0.6-1.3,1.4-1.3c0.8,0,1.4,0.6,1.4,1.3C13.4,12.7,12.8,13.3,12,13.3z M22,20.1h-4
				c-0.7,0-1.2,0.5-1.2,1.2c0,0.7,0.6,1.2,1.2,1.2h4c0.7,0,1.2-0.5,1.2-1.2C23.3,20.6,22.7,20.1,22,20.1z M22,16.7h-4
				c-0.7,0-1.2,0.5-1.2,1.2s0.6,1.2,1.2,1.2h4c0.7,0,1.2-0.5,1.2-1.2S22.7,16.7,22,16.7z M22,13.3h-4c-0.7,0-1.2,0.5-1.2,1.2
				c0,0.7,0.6,1.2,1.2,1.2h4c0.7,0,1.2-0.5,1.2-1.2C23.3,13.9,22.7,13.3,22,13.3z M14.7,19.3c-0.4-0.6-1.2-0.8-1.9-0.7
				c-0.5,0.1-1.1,0.1-1.6,0c-0.7-0.1-1.5,0.2-1.9,0.7L8.7,20l-2.2-1.2l0.3-0.8c0.3-0.7,0.2-1.4-0.3-2c-0.3-0.4-0.6-0.9-0.8-1.4
				c-0.3-0.6-0.9-1.1-1.6-1.2l-0.9-0.1v-2.4l0.9-0.1c0.7-0.1,1.4-0.5,1.6-1.2c0.2-0.5,0.5-1,0.8-1.4c0.5-0.6,0.6-1.3,0.3-2L6.5,5.2
				L8.7,4l0.6,0.7c0.4,0.6,1.2,0.8,1.9,0.7c0.5-0.1,1.1-0.1,1.6,0c0.7,0.1,1.5-0.2,1.9-0.7L15.3,4l2.2,1.2l-0.3,0.8
				c-0.3,0.7-0.2,1.4,0.3,2C17.7,8.5,18,9,18.2,9.5c0.3,0.6,0.9,1.1,1.6,1.2l1,0.1v0.2c0,0.7,0.6,1.2,1.2,1.2c0.7,0,1.2-0.5,1.2-1.2
				l0-0.6c0-1-0.8-1.8-1.8-1.9l-1.1-0.1c-0.2-0.5-0.6-1-0.9-1.5l0.4-1c0.4-0.9,0-1.9-0.9-2.5l-2.8-1.6c-0.9-0.5-2-0.3-2.6,0.5
				l-0.7,0.8c-0.6-0.1-1.2-0.1-1.8,0l-0.7-0.8c-0.6-0.8-1.8-1-2.6-0.5L5,3.3C4.1,3.8,3.7,4.9,4.1,5.8l0.4,1c-0.4,0.5-0.7,1-0.9,1.5
				L2.5,8.5c-1,0.1-1.8,1-1.8,2v3.2c0,1,0.8,1.8,1.8,2l1.1,0.1c0.2,0.5,0.6,1,0.9,1.5l-0.4,1c-0.4,0.9,0,1.9,0.9,2.5l2.8,1.6
				c0.3,0.2,0.7,0.3,1,0.3c0.6,0,1.2-0.3,1.6-0.8l0.7-0.8c0.6,0.1,1.2,0.1,1.8,0l0.3,0.4c0.4,0.5,1.2,0.6,1.7,0.2
				c0.5-0.4,0.6-1.2,0.2-1.7L14.7,19.3z"/>
		</g>
	</g>
</g>
</svg>
