<?xml version="1.0" encoding="UTF-8"?>
<svg id="_图层_1" data-name="图层 1" xmlns="http://www.w3.org/2000/svg" viewBox="0 0 24 24">
  <path d="M22.38,8.07l-2.99-5.25c-.47-.82-1.33-1.32-2.27-1.32H6.89c-.94,0-1.81,.51-2.27,1.32L1.62,8.07c-.08,.13-.12,.28-.12,.43v11.37c0,1.45,1.18,2.62,2.62,2.62h15.75c1.45,0,2.62-1.18,2.62-2.62V8.5c0-.15-.04-.3-.12-.43ZM6.13,3.69c.16-.27,.45-.44,.76-.44h10.22c.31,0,.6,.17,.76,.44l2.25,3.94H3.88l2.25-3.94Zm14.62,16.19c0,.48-.39,.88-.87,.88H4.13c-.48,0-.88-.39-.88-.88V9.38H20.75v10.5Z"/>
  <g>
    <rect x="5.85" y="12.14" width="6.84" height="1.74" rx=".54" ry=".54"/>
    <rect x="5.85" y="16.24" width="8.87" height="1.74" rx=".54" ry=".54"/>
  </g>
</svg>