<?xml version="1.0" encoding="UTF-8"?>
<svg id="_图层_1" data-name="图层 1" xmlns="http://www.w3.org/2000/svg" xmlns:xlink="http://www.w3.org/1999/xlink" viewBox="0 0 24 24">
  <defs>
    <style>
      .apa-hot-color-1 {
        fill: url(#ksw);
      }
    </style>
    <linearGradient id="ksw" data-name="未命名的渐变 6" x1="12" y1="22.97" x2="12" y2="1.03" gradientUnits="userSpaceOnUse">
      <stop offset="0" stop-color="#fd5392"/>
      <stop offset="1" stop-color="#fa594c"/>
    </linearGradient>
  </defs>
  <path class="apa-hot-color-1" d="M21.35,10.71c-.56-2.06-1.73-4.11-3.22-5.61-.57-.57-1.12-.46-1.33-.38-.2,.07-.68,.33-.73,1.07-.02,.38-.12,.72-.28,1.05-.55-1.44-1.5-2.71-2.21-3.54-.96-1.12-1.87-1.86-2.3-2.08-.66-.33-1.15-.15-1.38-.01-.24,.14-.64,.49-.66,1.26-.07,2.33-1.21,4.64-2.13,6.24-.24-.45-.46-.81-.66-1.12-.3-.46-.7-.53-.91-.53-.26,0-.64,.1-.95,.57-1.24,1.86-1.99,3.67-2.23,5.38-.24,1.72,.03,3.34,.8,4.81,.06,.16,.96,2.27,3.59,3.69,1.53,.92,3.44,1.45,5.24,1.45,.04,0,.07,0,.12,0,1.84-.02,3.53-.52,5.16-1.53,.18-.11,1.82-1.11,3.21-3.52,1.27-2.13,1.56-4.62,.86-7.21Z"/>
</svg>