<?xml version="1.0" encoding="UTF-8"?>
<svg id="_图层_1" data-name="图层 1" xmlns="http://www.w3.org/2000/svg" viewBox="0 0 24 24">
  <path d="M20.89,12.01l1.07-3.28c.19-.57-.06-1.17-.59-1.44l-3.07-1.57-1.57-3.07c-.27-.52-.88-.77-1.44-.59l-3.28,1.07-3.28-1.07c-.57-.19-1.17,.06-1.44,.59l-1.59,3.05-3.07,1.57c-.52,.27-.77,.88-.59,1.44l1.07,3.28-1.06,3.28c-.19,.57,.06,1.17,.59,1.44l3.07,1.57,1.57,3.07c.27,.52,.88,.77,1.44,.59l3.28-1.07,3.28,1.07c.13,.04,.25,.06,.38,.06,.44,0,.86-.23,1.09-.63l1.57-3.07,3.07-1.57c.52-.27,.77-.88,.59-1.44l-1.07-3.28Zm-4.11-1.48l-5.03,5.03s-.01,.02-.02,.02h0c-.41,.41-1.08,.41-1.49,0l-3.01-3.01c-.41-.41-.41-1.08,0-1.49h0c.41-.41,1.08-.41,1.49,0l2.26,2.26,4.32-4.32c.41-.41,1.08-.41,1.49,0h0c.41,.41,.41,1.08,0,1.49Z"/>
</svg>