<?xml version="1.0" encoding="UTF-8"?>
<svg id="_图层_1" data-name="图层 1" xmlns="http://www.w3.org/2000/svg" viewBox="0 0 24 24">
  <path d="M20.93,19.55h-4.53c-.36,.06-.63,.38-.63,.76,0,.42,.34,.76,.76,.76h4.55c.35-.06,.61-.38,.61-.76,0-.42-.34-.76-.76-.76Zm-4.41-1.96h4.56c.35-.06,.61-.38,.61-.76,0-.42-.34-.76-.76-.76h-4.54c-.36,.06-.64,.38-.64,.77,0,.41,.34,.75,.76,.75Zm0-5h-.12c-.36,.06-.63,.38-.63,.76,0,.42,.34,.76,.76,.76h4.55c.35-.06,.61-.38,.61-.76,0-.42-.34-.76-.76-.76h-4.41Zm-5.04-5.38v.12s0,4.17,0,4.17h-3.17c-.38,0-.7,.28-.75,.66v.12c0,.36,.27,.68,.65,.73h.12s3.91,0,3.91,0c.37,0,.7-.28,.75-.65v-.12s0-4.93,0-4.93c0-.42-.34-.76-.76-.76-.38,0-.7,.28-.75,.66Zm2.12,12.76c-1.28,.26-2.66,.22-4.11-.27-2.96-1.01-5.1-3.58-5.47-6.69C3.43,8.07,7.26,3.88,12.04,3.88c3.96,0,7.24,2.88,7.93,6.66,.06,.35,.36,.6,.71,.6h.02c.46,0,.82-.42,.73-.88-.85-4.67-5.04-8.17-9.99-7.86C6.58,2.7,2.68,6.71,2.48,11.59c-.23,5.49,4.15,10.02,9.56,10.02,.64,0,1.26-.07,1.86-.19,.34-.07,.58-.38,.58-.73,0-.47-.43-.83-.88-.73Z"/>
</svg>