<?xml version="1.0" encoding="UTF-8"?>
<svg id="_图层_1" data-name="图层 1" xmlns="http://www.w3.org/2000/svg" viewBox="0 0 24 24">
  <path d="M19.91,15.11c-1.72,4.17-6.49,6.16-10.66,4.44-4.17-1.72-6.16-6.49-4.44-10.66,1.72-4.17,6.49-6.16,10.66-4.44,.97,.4,1.85,.98,2.6,1.72h-2.21c-.64,0-1.17,.52-1.17,1.17s.52,1.17,1.17,1.17h4.67c.64,0,1.17-.52,1.17-1.17h0V2.67c0-.64-.52-1.17-1.17-1.17-.64,0-1.16,.52-1.17,1.17v1.51C15.04,.31,8.4,.68,4.53,5c-1.72,1.92-2.67,4.42-2.67,7,0,5.8,4.69,10.5,10.49,10.5,4.26,0,8.1-2.57,9.72-6.51,.22-.61-.09-1.27-.7-1.49-.57-.21-1.21,.06-1.46,.61h0Z"/>
</svg>