<?xml version="1.0" encoding="UTF-8"?>
<svg id="_图层_1" data-name="图层 1" xmlns="http://www.w3.org/2000/svg" viewBox="0 0 24 24">
  <path d="M10.15,2.32h3.7c1.25,0,2.26,1.01,2.26,2.26v3.12c0,1.25-1.01,2.26-2.26,2.26h-.82v1.03h5.14c.57,0,1.03,.46,1.03,1.03h0v2.06h.82c1.25,0,2.26,1.01,2.26,2.26h0v3.12c0,1.25-1.01,2.26-2.26,2.26h-3.7c-1.25,0-2.26-1.01-2.26-2.26h0v-3.12c0-1.25,1.01-2.26,2.26-2.26h.82v-1.03H6.86v1.03h.82c1.25,0,2.26,1.01,2.26,2.26h0v3.12c0,1.25-1.01,2.26-2.26,2.26H3.98c-1.25,0-2.26-1.01-2.26-2.26v-3.12c0-1.25,1.01-2.26,2.26-2.26h.82v-2.06c0-.57,.46-1.03,1.03-1.03h5.14v-1.03h-.82c-1.25,0-2.26-1.01-2.26-2.26v-3.12c0-1.25,1.01-2.26,2.26-2.26Zm0,2.06c-.11,0-.21,.09-.21,.21v3.12c0,.11,.09,.21,.21,.21h3.7c.11,0,.21-.09,.21-.21v-3.12c0-.11-.09-.21-.21-.21h-3.7ZM3.98,16.13c-.11,0-.21,.09-.21,.21v3.12c0,.11,.09,.21,.21,.21h3.7c.11,0,.21-.09,.21-.21v-3.12c0-.11-.09-.21-.21-.21,0,0-3.7,0-3.7,0Zm12.34,0c-.11,0-.21,.09-.21,.21v3.12c0,.11,.09,.21,.21,.21h3.7c.11,0,.21-.09,.21-.21v-3.12c0-.11-.09-.21-.21-.21h-3.7Z"/>
</svg>