<?xml version="1.0" encoding="UTF-8"?>
<svg id="_图层_1" data-name="图层 1" xmlns="http://www.w3.org/2000/svg" viewBox="0 0 24 24">
  <defs>
    <style>
      .apa-config {
        fill-rule: evenodd;
      }
    </style>
  </defs>
  <path class="apa-config" d="M11.69,22.15h-1.6c-.26,0-.41-.13-.46-.39l-.26-1.58c-.13-.76-.54-1.33-1.26-1.73-.08-.05-.16-.09-.24-.14-.7-.42-1.41-.5-2.12-.23l-1.5,.56c-.24,.09-.43,.02-.56-.2l-1.6-2.77c-.13-.23-.1-.42,.11-.59l1.24-1.02c.59-.49,.88-1.14,.87-1.95,0-.09,0-.19,0-.28,.01-.81-.27-1.46-.87-1.95l-1.24-1.02c-.2-.17-.24-.36-.11-.59l1.6-2.76c.13-.23,.32-.29,.56-.2l1.5,.56c.72,.27,1.43,.19,2.12-.23,.05-.03,.14-.08,.25-.15,.71-.39,1.12-.96,1.25-1.72h0s.26-1.58,.26-1.58c.04-.26,.19-.39,.46-.39h3.19c.26,0,.41,.13,.46,.39l.26,1.58c.13,.76,.55,1.33,1.26,1.73,.07,.04,.15,.08,.24,.14,.7,.42,1.41,.5,2.12,.23l1.5-.56c.25-.09,.43-.03,.56,.2l1.59,2.77c.13,.23,.1,.42-.11,.59l-1.24,1.02c-.59,.49-.88,1.14-.87,1.95,0,.09,0,.18,0,.28-.01,.62,.16,1.14,.5,1.57h2.81s-.02-.02-.03-.03l-1.24-1.02c-.13-.11-.2-.27-.19-.49,0-.11,0-.23,0-.35,0-.22,.06-.38,.19-.49l1.23-1.02c1.01-.83,1.18-1.81,.53-2.94l-1.6-2.77c-.65-1.13-1.59-1.47-2.81-1.01l-1.5,.56c-.16,.06-.34,.03-.52-.08-.12-.07-.22-.13-.3-.17-.19-.11-.3-.24-.33-.41l-.26-1.58c-.21-1.29-.97-1.93-2.28-1.93h-3.19c-1.3,0-2.06,.64-2.28,1.93l-.26,1.58h0c-.03,.17-.14,.31-.34,.42-.13,.07-.23,.13-.29,.17-.19,.11-.36,.14-.52,.08l-1.5-.56c-1.22-.46-2.16-.12-2.81,1.01L.5,7.38c-.65,1.13-.47,2.11,.53,2.93l1.24,1.02c.13,.11,.2,.27,.19,.49,0,.12,0,.23,0,.35,0,.22-.06,.38-.19,.49l-1.23,1.02C.02,14.51-.15,15.49,.5,16.62l1.6,2.77c.65,1.13,1.59,1.46,2.81,1.01l1.5-.56c.16-.06,.34-.03,.52,.08,.1,.06,.2,.12,.3,.17,.19,.11,.3,.24,.33,.41l.26,1.58c.22,1.28,.97,1.93,2.28,1.93h1.6v-1.85Z"/>
  <path d="M23.49,17.14H13.83c-.22,0-.4-.17-.4-.39v-.93c0-.22,.18-.39,.4-.39h9.65c.22,0,.39,.17,.4,.39v.93c0,.22-.18,.39-.4,.39Z"/>
  <path d="M23.49,20.57H13.83c-.22,0-.4-.17-.4-.39v-.93c0-.22,.18-.39,.4-.39h9.65c.22,0,.39,.17,.4,.39v.92c0,.22-.18,.39-.4,.39Z"/>
  <path d="M23.49,24H13.83c-.22,0-.4-.17-.4-.39v-.93c0-.22,.18-.39,.4-.39h9.65c.22,0,.39,.17,.4,.39v.92c0,.22-.18,.39-.4,.39Z"/>
  <path class="apa-config" d="M11.69,14.77h0c-.76,0-1.42-.27-1.96-.81s-.81-1.19-.81-1.96,.27-1.42,.81-1.96c.54-.54,1.19-.81,1.96-.81s1.42,.27,1.96,.81,.81,1.19,.81,1.96c0,.65-.21,1.22-.61,1.71h2.13c.21-.53,.32-1.1,.32-1.71,0-1.27-.45-2.36-1.35-3.26-.9-.9-1.99-1.35-3.26-1.35s-2.36,.45-3.26,1.35c-.9,.9-1.35,1.99-1.35,3.26s.45,2.36,1.35,3.26c.9,.9,1.99,1.35,3.26,1.35h0v-1.85Z"/>
</svg>