<?xml version="1.0" encoding="UTF-8"?>
<svg id="_图层_1" data-name="图层 1" xmlns="http://www.w3.org/2000/svg" viewBox="0 0 24 24">
  <path d="M16.72,12.32h-3.8V7.3c0-.52-.42-.94-.94-.94s-.94,.42-.94,.94v5.95c0,.52,.42,.94,.94,.94h4.73c.52,0,.94-.42,.94-.94s-.42-.94-.94-.94Z"/>
  <path d="M11.99,24.04c-5.96,0-10.78-4.83-10.78-10.79,0-4.33,2.59-8.24,6.58-9.92,5.5-2.29,11.81,.32,14.1,5.82,2.27,5.45-.28,11.72-5.7,14.05-1.33,.56-2.75,.85-4.2,.85Zm0-19.69c-4.92,0-8.91,3.99-8.91,8.91,0,4.92,3.99,8.91,8.91,8.91s8.91-3.99,8.91-8.91c0-2.36-.94-4.63-2.61-6.3-1.67-1.68-3.93-2.61-6.3-2.61Z"/>
  <path d="M23.05,6.69c-.32,0-.61-.16-.79-.43-1.25-1.93-3.01-3.47-5.1-4.44-.47-.22-.67-.78-.45-1.25,.22-.47,.78-.67,1.25-.45h0c2.4,1.12,4.43,2.9,5.87,5.12,.28,.43,.16,1.01-.28,1.3-.15,.1-.33,.15-.51,.15ZM.93,6.69c.32,0,.61-.16,.79-.43,1.25-1.93,3.01-3.47,5.1-4.44,.47-.22,.67-.78,.45-1.25-.22-.47-.78-.67-1.25-.45C3.61,1.25,1.58,3.02,.14,5.25c-.28,.43-.16,1.01,.28,1.3,.15,.1,.33,.15,.51,.15Z"/>
</svg>