<?xml version="1.0" encoding="UTF-8"?>
<svg id="_图层_1" data-name="图层 1" xmlns="http://www.w3.org/2000/svg" viewBox="0 0 24 24">
  <path d="M12.13,5.25c-2.49,0-4.5,2.01-4.5,4.5s2.01,4.5,4.5,4.5,4.5-2.01,4.5-4.5-2.01-4.5-4.5-4.5Zm0,6.75c-1.24,0-2.25-1.01-2.25-2.25s1.01-2.25,2.25-2.25,2.25,1.01,2.25,2.25-1.01,2.25-2.25,2.25Z"/>
  <path d="M12.13,.75C5.93,.75,.89,5.79,.89,11.99c0,2.95,1.14,5.63,2.99,7.63,2.12,2.31,5.12,3.62,8.25,3.62,6.21,0,11.24-5.04,11.24-11.24S18.34,.75,12.13,.75Zm0,20.24c-1.87,0-3.61-.57-5.05-1.55,1.41-1.18,3.2-1.82,5.04-1.82,1.91,0,3.68,.69,5.05,1.83-1.49,1.01-3.24,1.55-5.04,1.54Zm6.75-3.05c-1.85-1.66-4.26-2.58-6.75-2.57-2.59,0-4.96,.98-6.75,2.57-3.29-3.72-2.93-9.41,.79-12.69,1.64-1.45,3.76-2.25,5.95-2.25,4.97,0,8.99,4.02,9,8.99,0,2.19-.8,4.31-2.25,5.95Z"/>
</svg>