<?xml version="1.0" encoding="UTF-8"?>
<svg id="_图层_1" data-name="图层 1" xmlns="http://www.w3.org/2000/svg" viewBox="0 0 24 24">
  <path d="M23.59,14.66c-.15-.1-.32-.15-.49-.15-.29,0-.58,.15-.76,.43l-1.3,2.09-1.14,1.84-1.42,2.28-1.37-2.12c-.17-.27-.46-.42-.75-.42-.17,0-.35,.05-.5,.16-.41,.29-.52,.88-.24,1.32l2.13,3.3s0,0,0,0h0c.04,.06,.08,.11,.13,.16,.02,.02,.04,.03,.06,.05,.02,.02,.04,.04,.06,.05,.01,0,.02,0,.03,.02,.05,.03,.1,.05,.16,.08,.02,0,.05,.02,.07,.03,.08,.02,.15,.03,.23,.03h.01c.08,0,.16-.01,.23-.03,.02,0,.05-.02,.07-.03,.05-.02,.11-.05,.16-.08,.01,0,.02,0,.04-.02,.02-.02,.04-.03,.06-.05l.05-.05c.05-.05,.1-.11,.14-.17l.91-1.47,.41-.65,1.17-1.87,2.12-3.4c.26-.44,.15-1.02-.27-1.31Z"/>
  <path d="M1.85,21.9c.46-5.04,4.5-8.99,9.4-8.99,3.14,0,5.92,1.62,7.64,4.1l1.05-1.69c-1.32-1.68-3.07-2.97-5.07-3.69,1.47-1.16,2.43-3,2.43-5.09C17.29,3.05,14.58,.2,11.25,.2S5.21,3.05,5.21,6.56c0,2.08,.96,3.93,2.44,5.09C3.21,13.23,0,17.65,0,22.85c0,.52,.41,.95,.9,.95H15.83l-1.23-1.9H1.85ZM7.02,6.56c0-2.46,1.9-4.46,4.24-4.46s4.24,2,4.24,4.46-1.9,4.46-4.24,4.46-4.24-2-4.24-4.46Z"/>
</svg>