<?xml version="1.0" encoding="UTF-8"?>
<svg id="_图层_1" data-name="图层 1" xmlns="http://www.w3.org/2000/svg" viewBox="0 0 24 24">
  <path d="M10.5,11.13c-.42-.4-1.08-.39-1.48,.03-.39,.41-.39,1.05,0,1.46l1.48,1.48-1.48,1.48c-.4,.42-.39,1.08,.03,1.48,.41,.39,1.05,.39,1.46,0l1.48-1.48,1.48,1.48c.42,.4,1.08,.39,1.48-.03,.39-.41,.39-1.05,0-1.46l-1.48-1.48,1.48-1.48c.42-.4,.43-1.07,.03-1.48-.4-.42-1.07-.43-1.48-.03,0,0-.02,.02-.03,.03l-1.48,1.48s-1.48-1.48-1.48-1.48Z"/>
  <path d="M18.39,3.6h-.05c-.25-1.22-1.32-2.1-2.57-2.1h-7.54c-1.25,0-2.32,.88-2.57,2.1h-.05c-1.74,0-3.15,1.41-3.15,3.15v12.6c0,1.74,1.41,3.15,3.15,3.15h12.79c1.74,0,3.15-1.41,3.15-3.15V6.75c0-1.74-1.41-3.15-3.15-3.15Zm-10.69,.52c0-.29,.23-.52,.53-.52h7.54c.29,0,.52,.23,.52,.52v1.05c0,.29-.23,.52-.52,.52h-7.54c-.29,0-.53-.23-.53-.52v-1.05Zm11.74,15.23c0,.58-.47,1.05-1.05,1.05H5.61c-.58,0-1.05-.47-1.05-1.05V6.75c0-.58,.47-1.05,1.05-1.05h.05c.25,1.22,1.32,2.1,2.57,2.1h7.54c1.25,0,2.32-.88,2.57-2.1h.05c.58,0,1.05,.47,1.05,1.05v12.6Z"/>
</svg>