<?xml version="1.0" encoding="utf-8"?>
<!-- Generator: Adobe Illustrator 25.0.0, SVG Export Plug-In . SVG Version: 6.00 Build 0)  -->
<svg version="1.1" id="图层_1" xmlns="http://www.w3.org/2000/svg" xmlns:xlink="http://www.w3.org/1999/xlink" x="0px" y="0px"
	 viewBox="0 0 24 24" style="enable-background:new 0 0 24 24;" xml:space="preserve">
<style type="text/css">
	.st0{fill:#F44343;}
	.st1{fill:url(#SVGID_1_);}
	.st2{fill:url(#SVGID_2_);}
	.st3{fill:url(#SVGID_3_);}
	.st4{fill-rule:evenodd;clip-rule:evenodd;}
	.st5{fill-rule:evenodd;clip-rule:evenodd;fill:#FFBC00;}
	.st6{opacity:0.5;fill-rule:evenodd;clip-rule:evenodd;fill:#FFBC00;}
	.st7{fill:#989898;}
	.st8{fill:#333333;}
	.st9{fill:#7C8295;}
	.st10{fill:#4A90E2;}
</style>
<path d="M12,20.1c-3.9,0-7.5-2.5-10.6-7.4c-0.3-0.4-0.3-1,0-1.4C4.5,6.4,8.1,3.9,12,3.9s7.5,2.5,10.6,7.4c0.3,0.4,0.3,1,0,1.4
	C19.5,17.6,15.9,20.1,12,20.1z M12,5.5c-3.3,0-6.3,2.1-9.1,6.5c2.8,4.3,5.8,6.5,9.1,6.5s6.3-2.1,9.1-6.5C18.3,7.7,15.3,5.5,12,5.5z
	 M12,15.8c-2.1,0-3.8-1.7-3.8-3.8S9.9,8.2,12,8.2s3.8,1.7,3.8,3.8S14.1,15.8,12,15.8L12,15.8z M12,14.2c1.2,0,2.2-1,2.2-2.2
	s-1-2.2-2.2-2.2s-2.2,1-2.2,2.2S10.8,14.2,12,14.2L12,14.2z"/>
</svg>
