<?xml version="1.0" encoding="UTF-8"?>
<svg id="_图层_1" data-name="图层 1" xmlns="http://www.w3.org/2000/svg" viewBox="0 0 24 24">
  <path d="M.13,16.17v6.5c0,.09,0,.17,.03,.26,.02,.09,.04,.17,.07,.25,.03,.08,.08,.16,.12,.23,.05,.07,.1,.14,.17,.2,.06,.06,.13,.12,.2,.17,.07,.05,.15,.09,.23,.12,.08,.03,.16,.06,.25,.08,.09,.02,.17,.03,.26,.03H7.97c.09,0,.17,0,.26-.03,.09-.02,.17-.04,.25-.07,.08-.03,.16-.08,.23-.12,.07-.05,.14-.1,.2-.17,.06-.06,.12-.13,.17-.2,.05-.07,.09-.15,.12-.23,.03-.08,.06-.16,.08-.25,.02-.08,.03-.17,.03-.26s0-.18-.03-.26c-.02-.09-.04-.17-.07-.25-.03-.08-.08-.16-.12-.23-.05-.07-.1-.14-.17-.2-.06-.06-.13-.12-.2-.17-.07-.05-.15-.09-.23-.12-.08-.03-.16-.06-.25-.08-.09-.02-.17-.03-.26-.03H2.8v-5.17c0-.09,0-.17-.03-.26-.02-.09-.04-.17-.07-.25-.03-.08-.08-.16-.12-.23-.05-.07-.1-.14-.17-.2-.06-.06-.13-.12-.2-.17-.07-.05-.15-.09-.23-.12s-.16-.06-.25-.08c-.09-.02-.17-.03-.26-.03s-.17,0-.26,.03c-.09,.02-.17,.04-.25,.07-.08,.03-.16,.07-.23,.12-.07,.05-.14,.1-.2,.17-.06,.06-.12,.13-.17,.2-.05,.07-.09,.15-.12,.23s-.06,.16-.08,.25c-.02,.09-.03,.17-.03,.26ZM24.13,7.83V1.33c0-.09,0-.17-.03-.26-.02-.09-.04-.17-.07-.25-.03-.08-.08-.16-.12-.23-.05-.07-.1-.14-.17-.2-.06-.06-.13-.12-.2-.17-.07-.05-.15-.09-.23-.12-.08-.03-.16-.06-.25-.08C22.98,0,22.89,0,22.8,0h-6.5C16.21,0,16.13,0,16.04,.03c-.09,.02-.17,.04-.25,.07-.08,.03-.16,.08-.23,.12-.07,.05-.14,.1-.2,.17-.06,.06-.12,.13-.17,.2-.05,.07-.09,.15-.12,.23-.03,.08-.06,.16-.08,.25-.02,.09-.03,.17-.03,.26s0,.17,.03,.26c.02,.09,.04,.17,.07,.25,.03,.08,.07,.16,.12,.23,.05,.07,.1,.14,.17,.2,.06,.06,.13,.12,.2,.17,.07,.05,.15,.09,.23,.12,.08,.03,.16,.06,.25,.08,.09,.02,.17,.03,.26,.03h5.17V7.83c0,.09,0,.17,.03,.26,.02,.09,.04,.17,.07,.25,.03,.08,.08,.16,.12,.23,.05,.07,.1,.14,.17,.2,.06,.06,.13,.12,.2,.17,.07,.05,.15,.09,.23,.12,.08,.03,.16,.06,.25,.08,.08,.02,.17,.03,.26,.03s.18,0,.26-.03c.09-.02,.17-.04,.25-.07,.08-.03,.16-.08,.23-.12,.07-.05,.14-.1,.2-.17,.06-.06,.12-.13,.17-.2,.05-.07,.09-.15,.12-.23,.03-.08,.06-.16,.08-.25,.02-.09,.03-.17,.03-.26Z"/>
  <path d="M24.11,15.91c-.02-.09-.04-.17-.08-.25s-.08-.16-.12-.23c-.05-.07-.1-.14-.17-.2-.06-.06-.13-.12-.2-.17-.07-.05-.15-.09-.23-.12-.08-.03-.16-.06-.25-.07-.09-.02-.17-.03-.26-.03s-.17,0-.26,.03c-.09,.02-.17,.04-.25,.08s-.16,.08-.23,.12c-.07,.05-.14,.1-.2,.17-.06,.06-.12,.13-.17,.2-.05,.07-.09,.15-.12,.23-.03,.08-.06,.16-.07,.25-.02,.09-.03,.17-.03,.26v5.17h-5.17c-.09,0-.17,0-.26,.03-.09,.02-.17,.04-.25,.08-.08,.03-.16,.08-.23,.12-.07,.05-.14,.1-.2,.17-.06,.06-.12,.13-.17,.2-.05,.07-.09,.15-.12,.23-.03,.08-.06,.16-.07,.25-.02,.08-.03,.17-.03,.26s0,.18,.03,.26c.02,.09,.04,.17,.08,.25,.03,.08,.08,.16,.12,.23,.05,.07,.1,.14,.17,.2,.06,.06,.13,.12,.2,.17,.07,.05,.15,.09,.23,.12,.08,.03,.16,.06,.25,.07,.09,.02,.17,.03,.26,.03h6.5c.09,0,.17,0,.26-.03,.09-.02,.17-.04,.25-.08,.08-.03,.16-.08,.23-.12,.07-.05,.14-.1,.2-.17,.06-.06,.12-.13,.17-.2,.05-.07,.09-.15,.12-.23,.03-.08,.06-.16,.07-.25,.02-.09,.03-.17,.03-.26v-6.5c0-.09,0-.17-.03-.26ZM.16,8.09c.02,.09,.04,.17,.08,.25,.03,.08,.08,.16,.12,.23,.05,.07,.1,.14,.17,.2,.06,.06,.13,.12,.2,.17,.07,.05,.15,.09,.23,.12,.08,.03,.16,.06,.25,.07,.08,.02,.17,.03,.26,.03s.18,0,.26-.03c.09-.02,.17-.04,.25-.08,.08-.03,.16-.08,.23-.12,.07-.05,.14-.1,.2-.17,.06-.06,.12-.13,.17-.2,.05-.07,.09-.15,.12-.23,.03-.08,.06-.16,.07-.25,.02-.09,.03-.17,.03-.26V2.67H7.97c.09,0,.17,0,.26-.03,.09-.02,.17-.04,.25-.08,.08-.03,.16-.08,.23-.12,.07-.05,.14-.1,.2-.17,.06-.06,.12-.13,.17-.2,.05-.07,.09-.15,.12-.23,.03-.08,.06-.16,.07-.25,.02-.09,.03-.17,.03-.26,0-.09,0-.17-.03-.26-.02-.09-.04-.17-.08-.25-.03-.08-.08-.16-.12-.23-.05-.07-.1-.14-.17-.2-.06-.06-.13-.12-.2-.17-.07-.05-.15-.09-.23-.12-.08-.03-.16-.06-.25-.07C8.14,0,8.05,0,7.97,0H1.47c-.09,0-.18,0-.26,.03-.09,.02-.17,.04-.25,.08-.08,.03-.16,.08-.23,.12-.07,.05-.14,.1-.2,.17-.06,.06-.12,.13-.17,.2-.05,.07-.09,.15-.12,.23-.03,.08-.06,.16-.07,.25-.02,.09-.03,.17-.03,.26V7.83c0,.09,0,.17,.03,.26Z"/>
</svg>