<svg id="图层_1" data-name="图层 1" xmlns="http://www.w3.org/2000/svg" viewBox="0 0 24 24">
  <defs>
    <style>
      .apa-txt1 {
        fill: #a8aaad;
      }

      .apa-txt1,
      .apa-txt2 {
        fill-rule: evenodd;
      }

      .apa-txt2 {
        fill: #d9dadb;
      }

      .apa-txt3 {
        fill: none;
      }

      .apa-txt4 {
        fill: #fff;
      }
    </style>
  </defs>
  <path class="apa-txt1"
    d="M21,23a3.27,3.27,0,0,0,1-2.4V5.85a1,1,0,0,0-.07-.36,1.21,1.21,0,0,0-.2-.3L16.8.27a.79.79,0,0,0-.3-.2A.84.84,0,0,0,16.15,0H5.39A3.27,3.27,0,0,0,3,1,3.26,3.26,0,0,0,2,3.38V20.61A3.27,3.27,0,0,0,3,23a3.28,3.28,0,0,0,2.4,1H18.61A3.27,3.27,0,0,0,21,23" />
  <path class="apa-txt2"
    d="M22,5.85a1,1,0,0,0-.07-.36,1.21,1.21,0,0,0-.2-.3L16.8.27,16.67.16A.7.7,0,0,0,16.5.07l-.17,0-.18,0L16,0,15.8.07a.83.83,0,0,0-.16.09L15.5.27a1,1,0,0,0-.2.3.84.84,0,0,0-.07.35V4.48A2.33,2.33,0,0,0,16,6.24a2.08,2.08,0,0,0,1.41.53h3.69l.18,0,.18,0a.65.65,0,0,0,.16-.09l.14-.11a.76.76,0,0,0,.11-.14l.09-.16A1,1,0,0,0,22,5.85" />
  <rect class="apa-txt3" x="2" width="19.99" height="24" />
  <path class="apa-txt4" d="M12.47,18.77V11.21h3v-.84H8.57v.84h3v7.56Z" />
</svg>