<?xml version="1.0" encoding="UTF-8"?>
<svg id="_图层_1" data-name="图层 1" xmlns="http://www.w3.org/2000/svg" viewBox="0 0 24 24">
  <path d="M15.14,1.7c.43,0,.78,.35,.78,.78h0v.88c0,.43-.35,.78-.78,.78h-6.28c-.43,0-.78-.35-.78-.78v-.88c0-.43,.35-.78,.78-.78,0,0,6.28,0,6.28,0Z"/>
  <path d="M18.38,2.68h-.98v.69c0,1.25-1.01,2.26-2.26,2.26h-6.28c-1.25,0-2.26-1.01-2.26-2.26v-.69h-.98c-1.08,0-1.96,.88-1.96,1.96v15.7c0,1.08,.88,1.96,1.96,1.96h12.75c1.08,0,1.96-.88,1.96-1.96V4.64c0-1.08-.88-1.96-1.96-1.96Zm-3.15,11.98h-2.15v2.15c0,.59-.48,1.08-1.08,1.08s-1.08-.48-1.08-1.08v-2.15h-2.15c-.59,0-1.08-.48-1.08-1.08s.48-1.08,1.08-1.08h2.15v-2.15c0-.59,.48-1.07,1.08-1.07s1.08,.48,1.08,1.07v2.15h2.15c.59,0,1.08,.48,1.08,1.08s-.48,1.08-1.08,1.08Z"/>
</svg>