<svg 
 xmlns="http://www.w3.org/2000/svg"
 xmlns:xlink="http://www.w3.org/1999/xlink"
 width="14px" height="16px">
<path fill-rule="evenodd"  fill="rgb(153, 166, 183)"
 d="M13.804,5.415 L13.804,8.786 C13.804,9.689 13.633,10.568 13.295,11.395 C12.968,12.196 12.502,12.915 11.911,13.530 C11.321,14.146 10.631,14.631 9.861,14.972 C9.065,15.324 8.222,15.502 7.355,15.502 L7.233,15.502 C6.366,15.502 5.522,15.324 4.727,14.972 C3.956,14.630 3.267,14.145 2.678,13.530 C2.084,12.912 1.619,12.193 1.293,11.395 C0.955,10.568 0.784,9.689 0.784,8.786 L0.784,5.402 C0.784,5.386 0.785,5.182 0.786,4.918 L0.790,3.973 C0.793,3.490 1.072,3.062 1.502,2.881 L6.632,0.728 C7.027,0.558 7.467,0.558 7.871,0.723 L13.084,2.879 C13.519,3.061 13.800,3.490 13.801,3.973 C13.804,4.221 13.810,5.361 13.804,5.415 ZM12.588,8.841 L12.588,5.405 C12.588,5.371 12.587,4.551 12.584,4.042 L7.419,1.906 C7.313,1.859 7.190,1.859 7.086,1.905 L2.005,4.038 L2.001,5.403 L2.001,8.786 C2.001,11.792 4.349,14.237 7.235,14.237 L7.356,14.237 C10.201,14.237 12.541,11.837 12.589,8.880 L12.588,8.841 ZM7.138,10.830 C7.026,10.937 6.879,10.997 6.724,10.997 C6.559,10.997 6.404,10.931 6.289,10.809 L4.012,8.401 C3.897,8.280 3.834,8.121 3.835,7.952 C3.836,7.781 3.901,7.622 4.017,7.504 C4.132,7.387 4.284,7.321 4.445,7.321 C4.612,7.324 4.765,7.391 4.878,7.510 L6.743,9.481 L9.845,6.490 C10.093,6.253 10.482,6.272 10.708,6.527 C10.818,6.651 10.876,6.813 10.869,6.983 C10.861,7.152 10.792,7.309 10.673,7.425 L7.138,10.830 Z"/>
</svg>
