<?xml version="1.0" encoding="UTF-8"?>
<svg id="_图层_1" data-name="图层 1" xmlns="http://www.w3.org/2000/svg" viewBox="0 0 24 24">
  <path d="M19,1.5H9.67c-1.98,0-3.5,1.52-3.5,3.5v1.17h-1.17c-1.98,0-3.5,1.52-3.5,3.5v9.33c0,1.98,1.52,3.5,3.5,3.5H14.33c1.98,0,3.5-1.52,3.5-3.5v-1.17h1.17c1.98,0,3.5-1.52,3.5-3.5V5c0-1.98-1.52-3.5-3.5-3.5Zm-3.5,17.5c0,.7-.47,1.17-1.17,1.17H5c-.7,0-1.17-.47-1.17-1.17V9.67c0-.7,.47-1.17,1.17-1.17H14.33c.7,0,1.17,.47,1.17,1.17v9.33Zm4.67-4.67c0,.7-.47,1.17-1.17,1.17h-1.17v-5.83c0-1.98-1.52-3.5-3.5-3.5h-5.83v-1.17c0-.7,.47-1.17,1.17-1.17h9.33c.7,0,1.17,.47,1.17,1.17V14.33Z"/>
</svg>