<?xml version="1.0" encoding="UTF-8"?>
<svg id="_图层_1" data-name="图层 1" xmlns="http://www.w3.org/2000/svg" xmlns:xlink="http://www.w3.org/1999/xlink" viewBox="0 0 24 24">
  <defs>
    <style>
      .cls-1 {
        fill: url(#_id_8h4uhi);
      }

      .cls-2 {
        fill: url(#id_cop8up);
      }

      .cls-3 {
        fill: url(#id_99oko7);
      }

      .cls-4 {
        fill: url(#id_hnc0pd);
      }
    </style>
    <linearGradient id="id_cop8up" data-name="未命名的渐变 33" x1="6.15" y1="12" x2="21.13" y2="12" gradientUnits="userSpaceOnUse">
      <stop offset="0" stop-color="#37bfff"/>
      <stop offset="1" stop-color="#1975ff"/>
    </linearGradient>
    <linearGradient id="_id_8h4uhi" data-name="未命名的渐变 33" x1="2" y1="9.78" x2="10.29" y2="9.78" xlink:href="#id_cop8up"/>
    <linearGradient id="id_99oko7" data-name="未命名的渐变 33" x1="10.42" y1="3.57" x2="14.57" y2="3.57" xlink:href="#id_cop8up"/>
    <linearGradient id="id_hnc0pd" data-name="未命名的渐变 33" x1="18.32" y1="11.72" x2="22" y2="11.72" xlink:href="#id_cop8up"/>
  </defs>
  <path class="cls-2" d="M19.15,1.49h1.27c.66,0,.87,.5,.58,.98-.29,.5-11.37,19.06-11.53,19.31-.27,.48-.79,.71-1.35,.71h-1.27c-.66,0-.87-.46-.58-.98,.29-.52,11.35-19.01,11.53-19.31,.27-.48,.79-.71,1.35-.71h0Z"/>
  <path class="cls-1" d="M6.24,5.65c.16,.03,.28,.16,.31,.31l.11,.5c.31,1.4,1.41,2.5,2.81,2.81l.5,.11c.22,.05,.36,.27,.31,.49-.03,.16-.16,.28-.31,.31l-.5,.11c-1.4,.31-2.5,1.41-2.81,2.81l-.11,.5c-.05,.22-.27,.36-.49,.31-.15-.03-.27-.16-.31-.31l-.11-.5c-.31-1.4-1.41-2.5-2.81-2.81l-.5-.11c-.22-.05-.36-.27-.31-.49,.03-.16,.16-.28,.31-.31l.5-.11c1.4-.31,2.5-1.41,2.81-2.81l.11-.5c.05-.22,.27-.36,.49-.31h0Z"/>
  <path class="cls-3" d="M12.42,1.49c.35-.02,.19,.83,.73,1.35,.55,.53,1.39,.35,1.42,.73,.02,.38-.87,.31-1.33,.81-.46,.5-.36,1.24-.74,1.26-.38,.02-.17-.75-.77-1.27-.6-.52-1.31-.37-1.31-.74s.78-.15,1.31-.71c.53-.56,.34-1.39,.7-1.42h0Z"/>
  <path class="cls-4" d="M20.1,9.88c.31-.02,.17,.73,.65,1.2,.48,.47,1.24,.31,1.25,.64,.02,.34-.77,.28-1.18,.72-.41,.44-.32,1.1-.66,1.11-.33,.02-.15-.67-.68-1.13-.53-.46-1.16-.33-1.16-.66s.69-.14,1.16-.63c.47-.49,.3-1.24,.62-1.26h0Z"/>
</svg>