<?xml version="1.0" encoding="UTF-8"?>
<svg id="_图层_1" data-name="图层 1" xmlns="http://www.w3.org/2000/svg" viewBox="0 0 24 24">
  <path
    d="M13.81,4.9h8.53c.6,0,1.09-.49,1.09-1.09s-.49-1.09-1.09-1.09H13.81c-.6,0-1.09,.49-1.09,1.09s.49,1.09,1.09,1.09Z" />
  <path
    d="M22.34,18.84H13.81c-.6,0-1.09,.49-1.09,1.09,0,.6,.49,1.09,1.09,1.09h8.53c.6,0,1.09-.49,1.09-1.09,0-.6-.49-1.09-1.09-1.09Z" />
  <path
    d="M22.34,10.78H11.46c-.6,0-1.09,.49-1.09,1.09,0,.6,.49,1.09,1.09,1.09h10.88c.6,0,1.09-.49,1.09-1.09s-.49-1.09-1.09-1.09h0Z" />
  <path
    d="M5.88,13.44c-.1-.09-.22-.17-.34-.22-.25-.1-.54-.1-.79,0-.13,.05-.24,.12-.34,.22l-3.53,3.53c-.41,.41-.41,1.07,0,1.47,.41,.41,1.07,.41,1.47,0h0l1.75-1.76v4.57c0,.57,.46,1.04,1.04,1.04s1.04-.46,1.04-1.04v-4.57l1.75,1.77c.4,.41,1.06,.41,1.47,0,0,0,0,0,0,0,.41-.4,.41-1.06,0-1.47,0,0,0,0,0,0l-3.53-3.53Z" />
  <path
    d="M4.41,10.56c.1,.09,.22,.17,.34,.22,.25,.1,.54,.1,.79,0,.13-.05,.24-.12,.34-.22l3.53-3.53c.41-.41,.41-1.07,0-1.47-.41-.41-1.07-.41-1.47,0h0l-1.75,1.76V2.75c0-.57-.46-1.04-1.04-1.04s-1.04,.46-1.04,1.04V7.32l-1.75-1.77c-.4-.41-1.06-.41-1.47,0,0,0,0,0,0,0-.41,.4-.41,1.06,0,1.47,0,0,0,0,0,0l3.53,3.53Z" />
</svg>