<?xml version="1.0" encoding="UTF-8"?>
<svg id="_图层_1" data-name="图层 1" xmlns="http://www.w3.org/2000/svg" viewBox="0 0 24 24">
  <path d="M6.48,5.34c.3-2.13,2.27-3.6,4.4-3.3,1.71,.24,3.06,1.59,3.3,3.3h1.15c1.84,0,3.33,1.49,3.33,3.33v1.15c2.13,.3,3.6,2.27,3.3,4.4-.24,1.71-1.59,3.06-3.3,3.3v1.15c0,1.84-1.49,3.33-3.33,3.33h-3.33v-.56c0-.92-.75-1.67-1.67-1.67s-1.67,.75-1.67,1.67v.56h-3.33c-1.84,0-3.33-1.49-3.33-3.33v-3.33h.56c.92,0,1.67-.75,1.67-1.67s-.75-1.67-1.67-1.67h-.56v-3.33c0-1.84,1.49-3.33,3.33-3.33h1.15Z"/>
</svg>