<?xml version="1.0" encoding="UTF-8"?>
<svg id="_图层_1" data-name="图层 1" xmlns="http://www.w3.org/2000/svg" viewBox="0 0 24 24">
  <path d="M15.76,13.37l-6.98-6.98,.05-.05-1.24-2.34L4.86,1.9,1.85,4.91l2.1,2.73,2.34,1.24,.05-.05,6.98,6.98-1.05,1.05,4.73,4.73c.91,.91,2.44,.91,3.35,0l1.2-1.2c.91-.91,.91-2.44,0-3.35l-4.73-4.73s-1.05,1.05-1.05,1.05Z"/>
  <path d="M20.87,10.02c1.53-1.53,1.82-3.87,.86-5.74l-3.11,3.11-2.06-2.06,3.11-3.06c-1.86-.96-4.16-.67-5.74,.86-1.29,1.29-1.67,3.11-1.24,4.73L2.18,18.39c-.62,.62-.62,1.62,0,2.24,0,0,0,0,0,0l1.24,1.15c.62,.62,1.63,.62,2.25,0l10.52-10.52c1.63,.48,3.39,.05,4.69-1.24Z"/>
</svg>