<?xml version="1.0" encoding="UTF-8"?>
<svg id="_图层_1" data-name="图层 1" xmlns="http://www.w3.org/2000/svg" viewBox="0 0 24 24">
  <defs>
    <style>
      .cls-1 {
        fill-rule: evenodd;
      }
    </style>
  </defs>
  <path class="cls-1" d="M19.66,5.98c.11-.11,.19-.23,.25-.38s.09-.29,.09-.44c0-.08,0-.15-.02-.23-.02-.08-.04-.15-.07-.22s-.07-.14-.11-.2c-.04-.06-.09-.12-.14-.17-.05-.05-.11-.1-.17-.15-.06-.04-.13-.08-.2-.11-.07-.03-.14-.05-.22-.07-.07-.02-.15-.02-.23-.02-.15,0-.3,.03-.44,.09-.14,.06-.27,.14-.38,.25L4.34,18.02c-.11,.11-.19,.23-.25,.38s-.09,.29-.09,.44c0,.08,0,.15,.02,.23,.02,.08,.04,.15,.07,.22s.07,.14,.11,.2c.04,.06,.09,.12,.14,.17,.05,.05,.11,.1,.17,.15,.06,.04,.13,.08,.2,.11,.07,.03,.14,.05,.22,.07,.07,.02,.15,.02,.23,.02,.15,0,.3-.03,.44-.09,.14-.06,.27-.14,.38-.25L19.66,5.98Z"/>
  <path class="cls-1" d="M4.34,5.98c-.11-.11-.19-.23-.25-.38s-.09-.29-.09-.44c0-.08,0-.15,.02-.23,.02-.08,.04-.15,.07-.22s.07-.14,.11-.2c.04-.06,.09-.12,.14-.17,.05-.05,.11-.1,.17-.15,.06-.04,.13-.08,.2-.11,.07-.03,.14-.05,.22-.07,.07-.02,.15-.02,.23-.02,.15,0,.3,.03,.44,.09,.14,.06,.27,.14,.38,.25l13.68,13.68c.11,.11,.19,.23,.25,.38s.09,.29,.09,.44c0,.08,0,.15-.02,.23-.02,.08-.04,.15-.07,.22s-.07,.14-.11,.2c-.04,.06-.09,.12-.14,.17-.05,.05-.11,.1-.17,.15-.06,.04-.13,.08-.2,.11-.07,.03-.14,.05-.22,.07-.07,.02-.15,.02-.23,.02-.15,0-.3-.03-.44-.09-.14-.06-.27-.14-.38-.25L4.34,5.98Z"/>
</svg>