<?xml version="1.0" encoding="UTF-8"?>
<svg id="_图层_1" data-name="图层 1" xmlns="http://www.w3.org/2000/svg" viewBox="0 0 24 24">
  <path
    d="M21.98,8.84h-1.31c-.17,0-.29-.13-.36-.31-.09-.14-.09-.31,0-.44l.97-.89c.38-.37,.6-.88,.6-1.42,0-.54-.22-1.05-.6-1.43l-1.61-1.64c-.78-.79-2.05-.79-2.83,0,0,0,0,0,0,0l-.92,.89c-.15,.1-.34,.1-.49,0-.15-.06-.25-.19-.26-.35v-1.24C15.16,.93,14.29,.03,13.2,0h-2.33c-1.12,0-2.02,.9-2.03,2.02v1.31c0,.17-.13,.29-.31,.36-.14,.09-.31,.09-.44,0l-.89-.97c-.38-.38-.89-.59-1.43-.6-.53,0-1.04,.22-1.42,.6l-1.64,1.61c-.8,.77-.82,2.04-.05,2.83,.02,.02,.03,.03,.05,.05l.89,.89c.1,.15,.1,.34,0,.49-.06,.15-.19,.25-.35,.26h-1.24C.9,8.84,0,9.75,0,10.86v2.27c0,1.12,.9,2.02,2.02,2.03h1.31c.17,0,.29,.13,.36,.31,.09,.14,.09,.31,0,.44l-.97,.89c-.38,.38-.59,.89-.6,1.43,0,.54,.22,1.05,.6,1.43l1.61,1.63c.78,.79,2.05,.79,2.83,0,0,0,0,0,0,0l.92-.89c.15-.1,.34-.1,.49,0,.15,.06,.25,.19,.26,.35v1.31c.04,1.09,.93,1.94,2.02,1.94h2.27c1.12,0,2.02-.9,2.03-2.02v-1.31c0-.17,.13-.29,.31-.36,.14-.09,.31-.09,.44,0l.91,.92c.38,.38,.89,.59,1.43,.6,.53,0,1.04-.22,1.42-.6l1.61-1.61c.79-.78,.79-2.05,0-2.83,0,0,0,0,0,0l-.88-.88c-.09-.14-.09-.31,0-.44,.06-.15,.19-.25,.35-.26h1.31c1.08-.04,1.94-.92,1.94-2v-2.33c0-1.12-.9-2.02-2.02-2.03Zm-9.98,7.36c-2.32,0-4.2-1.88-4.2-4.2s1.88-4.2,4.2-4.2,4.2,1.88,4.2,4.2h0c0,2.32-1.88,4.2-4.2,4.2Z" />
</svg>