<?xml version="1.0" encoding="UTF-8"?>
<svg id="_图层_1" data-name="图层 1" xmlns="http://www.w3.org/2000/svg" viewBox="0 0 24 24">
  <path d="M12,1.5C6.2,1.5,1.5,6.2,1.5,12s4.7,10.5,10.5,10.5,10.5-4.7,10.5-10.5S17.8,1.5,12,1.5Zm-3.47,14.59c-.12,.19-.66,1.14-.78,1.35-.27,.46-.69,.65-1.14,.52-.45-.13-.7-.51-.68-1.03,0-.07,.04-.15,.05-.19,.19-.44,.47-.83,.7-1.25,.04-.08,.11-.11,.19-.13,.62-.15,1.17-.02,1.62,.44,.09,.09,.1,.17,.04,.29Zm5.87-1.39c-.04,.18-.12,.27-.33,.27-2.76,0-5.52,0-8.28,0,0,0,0,0,0,0h-.13c-.22,0-.42-.08-.58-.2-.01,0-.02-.02-.04-.03-.03-.02-.05-.05-.08-.07-.02-.02-.03-.04-.05-.06-.02-.03-.05-.06-.07-.09,0,0,0,0,0,0-.09-.14-.14-.31-.14-.49,0-.53,.43-.96,.96-.96,0,0,2.13,.01,2.22,.01,.12,0,.22-.02,.29-.14,.75-1.32,2.74-4.76,2.96-5.13,.07-.11,.01-.19-.04-.28-.29-.49-.58-.99-.85-1.48-.29-.51-.11-1.11,.4-1.35,.44-.21,.96-.06,1.23,.37,.12,.19,.23,.39,.33,.58,.06,.11,.12,.12,.18,0,.1-.18,.21-.37,.32-.55,.29-.48,.85-.64,1.32-.37,.46,.27,.6,.83,.33,1.31-.48,.84-3.17,5.5-3.94,6.83-.11,.19-.1,.21,.13,.21,.86,0,1.71,0,2.57,0,.22,0,.51,.02,.74,.17,.48,.37,.69,.85,.56,1.47Zm4.92,.19c-.21,.07-.35,.08-.53,.08-.31,0-.62,0-.94,0-.25,0-.26,.01-.14,.23,.22,.39,.91,1.61,.93,1.86h0c-.04,.32-.16,.59-.43,.77-.44,.3-1.04,.18-1.34-.28-.17-.25-3.23-5.59-3.5-6.05-.47-.79-.56-1.61-.26-2.47,0-.02,.21-.55,.59-.79,.01,.03,2.41,4.16,2.63,4.59,.1,.19,.22,.23,.42,.23,.07,0,2.18-.02,2.18-.02,.53,0,.96,.43,.96,.96,0,.21-.07,.4-.18,.55-.12,.24-.41,.33-.41,.33Z"/>
</svg>