<?xml version="1.0" encoding="utf-8"?>
<!-- Generator: Adobe Illustrator 25.0.0, SVG Export Plug-In . SVG Version: 6.00 Build 0)  -->
<svg version="1.1" id="图层_1" xmlns="http://www.w3.org/2000/svg" xmlns:xlink="http://www.w3.org/1999/xlink" x="0px" y="0px"
	 viewBox="0 0 24 24" style="enable-background:new 0 0 24 24;" xml:space="preserve">
<style type="text/css">
	.st0{fill:#F44343;}
	.st1{fill:url(#SVGID_1_);}
	.st2{fill:url(#SVGID_2_);}
	.st3{fill:url(#SVGID_3_);}
	.st4{fill-rule:evenodd;clip-rule:evenodd;}
	.st5{fill-rule:evenodd;clip-rule:evenodd;fill:#FFBC00;}
	.st6{opacity:0.5;fill-rule:evenodd;clip-rule:evenodd;fill:#FFBC00;}
	.st7{fill:#989898;}
	.st8{fill:#333333;}
	.st9{fill:#7C8295;}
	.st10{fill:#4A90E2;}
</style>
<g>
	<path d="M12,1C5.9,1,1,5.9,1,12s4.9,11,11,11s11-4.9,11-11S18.1,1,12,1z M12,21.5c-5.2,0-9.5-4.3-9.5-9.5c0-5.2,4.3-9.5,9.5-9.5
		s9.5,4.3,9.5,9.5C21.5,17.2,17.2,21.5,12,21.5z"/>
	<path d="M17.1,12.7H6.9c-0.4,0-0.7-0.3-0.7-0.7v-0.2c0-0.4,0.3-0.7,0.7-0.7h10.3c0.4,0,0.7,0.3,0.7,0.7v0.2
		C17.8,12.5,17.5,12.7,17.1,12.7z"/>
	<path d="M11.3,17.1V6.9c0-0.4,0.3-0.7,0.7-0.7h0.2c0.4,0,0.7,0.3,0.7,0.7v10.3c0,0.4-0.3,0.7-0.7,0.7h-0.2
		C11.5,17.8,11.3,17.5,11.3,17.1z"/>
</g>
</svg>
