<?xml version="1.0" encoding="utf-8"?>
<!-- Generator: Adobe Illustrator 25.0.0, SVG Export Plug-In . SVG Version: 6.00 Build 0)  -->
<svg version="1.1" id="图层_1" xmlns="http://www.w3.org/2000/svg" xmlns:xlink="http://www.w3.org/1999/xlink" x="0px" y="0px"
	 viewBox="0 0 24 24" style="enable-background:new 0 0 24 24;" xml:space="preserve">
<style type="text/css">
	.st0{fill:#F44343;}
	.st1{fill:url(#SVGID_1_);}
	.st2{fill:url(#SVGID_2_);}
	.st3{fill:url(#SVGID_3_);}
	.st4{fill-rule:evenodd;clip-rule:evenodd;}
	.st5{fill-rule:evenodd;clip-rule:evenodd;fill:#FFBC00;}
	.st6{opacity:0.5;fill-rule:evenodd;clip-rule:evenodd;fill:#FFBC00;}
	.st7{fill:#989898;}
	.st8{fill:#333333;}
	.st9{fill:#7C8295;}
	.st10{fill:#4A90E2;}
</style>
<path d="M21.2,8h-0.3V6.9c0-1.3-1-2.3-2.3-2.3h-1.6V3.8c0-1.1-0.9-2.1-2.1-2.1H9.1C8,1.7,7.1,2.6,7.1,3.8v0.8H5.5
	c-1.3,0-2.3,1-2.3,2.3V8H2.8c-1.2,0-2.1,1-2.1,2.1v11.1c0,1.2,1,2.1,2.1,2.1h18.4c1.2,0,2.1-1,2.1-2.1V10.1C23.4,9,22.4,8,21.2,8z
	 M2.4,10.1c0-0.2,0.2-0.4,0.4-0.4H4c0.5,0,0.9-0.4,0.9-0.9V6.9c0-0.3,0.3-0.6,0.6-0.6h2.5c0.5,0,0.9-0.4,0.9-0.9V3.8
	c0-0.2,0.1-0.3,0.3-0.3h5.7c0.2,0,0.3,0.1,0.3,0.3v1.7c0,0.5,0.4,0.9,0.9,0.9h2.5c0.3,0,0.6,0.3,0.6,0.6v1.9c0,0.5,0.4,0.9,0.9,0.9
	h1.2c0.2,0,0.4,0.2,0.4,0.4v11.1c0,0.2-0.2,0.4-0.4,0.4H2.8c-0.2,0-0.4-0.2-0.4-0.4V10.1z"/>
<path d="M17.5,12.7L17.5,12.7c0.6,0,1.1,0.5,1.1,1.1v4.6c0,0.6-0.5,1.1-1.1,1.1h0c-0.6,0-1.1-0.5-1.1-1.1v-4.6
	C16.4,13.2,16.9,12.7,17.5,12.7z"/>
<path d="M12.1,12.7L12.1,12.7c0.6,0,1.1,0.5,1.1,1.1v4.6c0,0.6-0.5,1.1-1.1,1.1h0c-0.6,0-1.1-0.5-1.1-1.1v-4.6
	C11,13.2,11.5,12.7,12.1,12.7z"/>
<path d="M6.7,12.7L6.7,12.7c0.6,0,1.1,0.5,1.1,1.1v4.6c0,0.6-0.5,1.1-1.1,1.1h0c-0.6,0-1.1-0.5-1.1-1.1v-4.6
	C5.6,13.2,6.1,12.7,6.7,12.7z"/>
</svg>
