<svg xmlns="http://www.w3.org/2000/svg" width="24px" height="24px" viewBox="0 0 24 24">
  <path
    d="M3 18.5h.5v.5c0 .55.45 1 1 1h2c.55 0 1-.45 1-1v-.5h9v.5c0 .55.45 1 1 1h2c.55 0 1-.45 1-1v-.5h.5c1.1 0 2-.9 2-2H1c0 1.1.9 2 2 2M21 12h-2V4.75c0-.4-.35-.75-.75-.75s-.75.35-.75.75V12h-11V4.75c0-.4-.35-.75-.75-.75S5 4.35 5 4.75V12H3c-1.1 0-2 .9-2 2v1.5h22V14c0-1.1-.9-2-2-2m-7.75 2.5c-.4 0-.75-.35-.75-.75s.35-.75.75-.75.75.35.75.75-.35.75-.75.75m2.5 0c-.4 0-.75-.35-.75-.75s.35-.75.75-.75.75.35.75.75-.35.75-.75.75m2.5 0c-.4 0-.75-.35-.75-.75s.35-.75.75-.75.75.35.75.75-.35.75-.75.75">
  </path>
</svg>