<?xml version="1.0" encoding="UTF-8"?>
<svg id="_图层_1" data-name="图层 1" xmlns="http://www.w3.org/2000/svg" viewBox="0 0 24 24">
  <defs>
    <style>
      .apa-remote-desk-1 {
        fill-rule: evenodd;
      }
    </style>
  </defs>
  <path class="apa-remote-desk-1" d="M22.32,1.68c-.62-.62-1.37-.93-2.24-.93H3.92c-.88,0-1.62,.31-2.24,.93-.62,.62-.93,1.37-.93,2.24V20.08c0,.88,.31,1.62,.93,2.24,.62,.62,1.37,.93,2.24,.93H20.08c.88,0,1.62-.31,2.24-.93,.62-.62,.93-1.37,.93-2.24V3.92c0-.88-.31-1.62-.93-2.24ZM2.48,20.08V3.92c0-.96,.48-1.44,1.44-1.44H13.44V21.52H3.92c-.96,0-1.44-.48-1.44-1.44Zm19.04,0c0,.96-.48,1.44-1.44,1.44h-4.9V2.48h4.9c.96,0,1.44,.48,1.44,1.44V20.08Z"/>
</svg>