<?xml version="1.0" encoding="UTF-8"?>
<svg id="_图层_1" data-name="图层 1" xmlns="http://www.w3.org/2000/svg" viewBox="0 0 24 24">
  <path d="M21.59,15.19c-.57,.58-1.35,.9-2.16,.89h-5.5s.72,2.8,.72,2.8c.13,.5,.1,1-.07,1.49-.17,.49-.47,.9-.89,1.2l-.8,.61c-.33,.24-.69,.35-1.1,.31-.41-.03-.76-.19-1.04-.48l-.03-.03-5.14-6.01c-.14-.14-.26-.29-.34-.47l.02-11.86c0-.57,.19-1.06,.56-1.47,.41-.44,.9-.68,1.48-.68h10.06c.43,0,.82,.12,1.18,.35s.62,.55,.78,.94l2.94,7.07c.15,.37,.23,.76,.23,1.17v1.98c0,.84-.3,1.56-.9,2.16v.02s-.01,0-.01,0Z"/>
  <rect x="1.5" y="1.5" width="2.6" height="14.01" rx=".87" ry=".87"/>
</svg>