<?xml version="1.0" encoding="UTF-8"?>
<svg id="_图层_1" data-name="图层 1" xmlns="http://www.w3.org/2000/svg" viewBox="0 0 24 24">
  <path d="M6.97,21.33c-3.53,0-6.4-2.87-6.4-6.4,0-2.28,1.21-4.35,3.1-5.48l.14-.08c.38-3.71,3.47-6.61,7.26-6.7h.17c3.96,0,7.19,3.08,7.45,6.97v.06c2.69,.49,4.74,2.81,4.81,5.62v.15c0,3.18-2.52,5.77-5.71,5.86h-.16s-1.6,0-1.6,0h-.08c-.59-.04-1.03-.55-.99-1.14,.04-.56,.51-.99,1.07-.99h1.71c2.02-.06,3.62-1.71,3.62-3.73,0-2.06-1.67-3.73-3.72-3.73h-.02c-.59,0-1.07-.47-1.08-1.05,0-.03,0-.07,0-.1,.01-.15,.02-.3,.02-.45,0-2.95-2.39-5.33-5.33-5.33s-5.29,2.34-5.33,5.26v.08c-.04,.39-.28,.72-.64,.88-2.16,.94-3.15,3.45-2.21,5.61,.68,1.56,2.22,2.57,3.92,2.56h.53c.59,0,1.07,.48,1.07,1.07,0,.59-.48,1.07-1.07,1.07h-.53Zm5.55-8.75l2.67,2.67,.06,.07c.36,.42,.33,1.05-.06,1.44l-.07,.06c-.42,.36-1.05,.33-1.44-.06l-.85-.84v4.25c0,.59-.48,1.07-1.07,1.07s-1.07-.48-1.07-1.07h0v-4.25l-.85,.85-.07,.06c-.45,.38-1.12,.32-1.5-.13-.35-.42-.33-1.05,.06-1.44l2.67-2.67,.07-.06c.42-.36,1.05-.33,1.44,.06Z"/>
</svg>