<?xml version="1.0" encoding="UTF-8"?>
<svg id="_图层_1" data-name="图层 1" xmlns="http://www.w3.org/2000/svg" viewBox="0 0 24 24">
  <defs>
    <style>
      .cls-1 {
        fill: #fff;
      }

      .cls-2 {
        fill: #00c0ff;
      }

      .cls-2, .cls-3 {
        fill-rule: evenodd;
      }

      .cls-4 {
        fill: none;
      }

      .cls-3 {
        fill: #c3f0ff;
      }
    </style>
  </defs>
  <path class="cls-2" d="M21,23c.65-.63,1.01-1.5,1-2.4V5.85c0-.12-.02-.25-.07-.36-.05-.11-.12-.21-.2-.3L16.8,.27c-.08-.09-.19-.16-.3-.2-.11-.05-.23-.07-.35-.07H5.39c-.9,0-1.76,.35-2.39,1-.65,.62-1.01,1.48-1,2.38V20.61c0,.9,.35,1.76,1,2.39,.63,.65,1.5,1.01,2.4,1h13.21c.9,0,1.76-.35,2.39-1"/>
  <path class="cls-3" d="M22,5.85c0-.12-.02-.25-.07-.36-.05-.11-.12-.21-.2-.3L16.8,.27l-.13-.11c-.05-.04-.11-.07-.17-.09h-.35L16,0l-.2,.07c-.06,.03-.11,.06-.16,.09l-.14,.11c-.08,.09-.15,.19-.2,.3-.05,.11-.07,.23-.07,.35v3.56c0,.67,.27,1.31,.77,1.76,.39,.35,.89,.54,1.41,.53h4.05c.06-.02,.11-.05,.16-.09l.14-.11s.08-.09,.11-.14l.09-.16c.04-.14,.06-.28,.04-.42"/>
  <path class="cls-4" d="M2,0H21.99V24H2V0Z"/>
  <rect class="cls-1" x="7" y="11.79" width="10" height="1"/>
  <rect class="cls-1" x="7" y="16.06" width="10" height="1"/>
</svg>