<?xml version="1.0" encoding="UTF-8"?>
<svg id="_图层_1" data-name="图层 1" xmlns="http://www.w3.org/2000/svg" viewBox="0 0 24 24">
  <path d="M4,0C1.79,0,0,1.79,0,4V14.67c0,2.21,1.79,4,4,4H20c2.21,0,4-1.79,4-4V4c0-2.21-1.79-4-4-4H4Zm-1.33,4c0-.74,.6-1.33,1.33-1.33H20c.74,0,1.33,.6,1.33,1.33h0V14.67c0,.74-.6,1.33-1.33,1.33H4c-.74,0-1.33-.6-1.33-1.33h0V4Zm9.33,1.33c-.74,0-1.33,.6-1.33,1.33v5.33c0,.74,.6,1.33,1.33,1.33s1.33-.6,1.33-1.33V6.67c0-.74-.6-1.33-1.33-1.33h0Zm5.33,1.33c-.74,0-1.33,.6-1.33,1.33h0v4c0,.74,.6,1.33,1.33,1.33,.74,0,1.33-.6,1.33-1.33h0v-4c0-.74-.6-1.33-1.33-1.33h0Zm-10.67,1.33c-.74,0-1.33,.6-1.33,1.33v2.67c0,.74,.6,1.33,1.33,1.33s1.33-.6,1.33-1.33v-2.67c0-.74-.6-1.33-1.33-1.33Zm-2.67,14.67c0,.09,0,.17,.03,.26,.02,.09,.04,.17,.07,.25,.03,.08,.08,.16,.12,.23,.05,.07,.1,.14,.17,.2,.06,.06,.13,.12,.2,.17,.07,.05,.15,.09,.23,.12,.08,.03,.16,.06,.25,.08,.09,.02,.17,.03,.26,.03h13.33c.09,0,.17,0,.26-.03,.09-.02,.17-.04,.25-.07,.08-.03,.16-.08,.23-.12,.07-.05,.14-.1,.2-.17,.06-.06,.12-.13,.17-.2,.05-.07,.09-.15,.12-.23,.03-.08,.06-.16,.08-.25,.02-.08,.03-.17,.03-.26s0-.18-.03-.26c-.02-.09-.04-.17-.07-.25-.03-.08-.08-.16-.12-.23-.05-.07-.1-.14-.17-.2s-.13-.12-.2-.17c-.07-.05-.15-.09-.23-.12-.08-.03-.16-.06-.25-.08-.08-.02-.17-.03-.26-.03H5.33c-.09,0-.17,0-.26,.03-.09,.02-.17,.04-.25,.07-.08,.03-.16,.08-.23,.12-.07,.05-.14,.1-.2,.17-.06,.06-.12,.13-.17,.2-.05,.07-.09,.15-.12,.23-.03,.08-.06,.16-.08,.25-.02,.08-.03,.17-.03,.26Z"/>
</svg>