<?xml version="1.0" encoding="UTF-8"?>
<svg id="_图层_1" data-name="图层 1" xmlns="http://www.w3.org/2000/svg" viewBox="0 0 24 24">
  <path
    d="M21.29,6.4L15.96,.4C15.73,.14,15.41,0,15.07,0H5.47c-1.68-.02-3.05,1.32-3.07,3h0V21c.02,1.68,1.39,3.02,3.07,3h0s13.06,0,13.06,0c1.68,.02,3.05-1.32,3.07-3h0V7.2c0-.3-.11-.58-.31-.8Zm-12.89,5.6h3.6c.66,0,1.2,.54,1.2,1.2,0,.66-.54,1.2-1.2,1.2h-3.6c-.66,0-1.2-.54-1.2-1.2s.54-1.2,1.2-1.2Zm7.2,7.2h-7.2c-.66,0-1.2-.54-1.2-1.2,0-.66,.54-1.2,1.2-1.2h7.2c.66,0,1.2,.54,1.2,1.2,0,.66-.54,1.2-1.2,1.2Zm-.35-12c-.51-.05-.89-.5-.85-1.02V2.4l4.49,4.8h-3.64Z" />
</svg>