<?xml version="1.0" encoding="UTF-8"?>
<svg id="_图层_1" data-name="图层 1" xmlns="http://www.w3.org/2000/svg" viewBox="0 0 24 24">
  <path d="M21.56,15.19v-.02c.61-.59,.91-1.32,.91-2.16v-1.98c0-.41-.08-.79-.23-1.17l-2.94-7.06c-.16-.4-.42-.71-.78-.94s-.75-.35-1.18-.35H3.51c-.58,0-1.07,.23-1.48,.68-.37,.41-.56,.9-.56,1.47V13.36c0,.57,.19,1.06,.56,1.47,.4,.45,.9,.68,1.48,.68h1.7c.08,.17,.2,.33,.34,.47l5.14,6.01,.03,.03c.28,.29,.63,.44,1.04,.48,.41,.03,.77-.07,1.1-.31l.8-.61c.42-.3,.71-.71,.89-1.2,.17-.49,.2-.99,.07-1.49l-.72-2.8h5.5c.84,0,1.56-.29,2.16-.89h0ZM4.97,3.86V13.19h-1.17V3.86h1.17s0,0,0,0Zm15.16,7.2h-.01v1.98c0,.19-.07,.37-.21,.5-.14,.14-.31,.21-.51,.21H10.88s1.47,5.71,1.47,5.71c.02,.05,.01,.09,0,.14,0,.03-.03,.07-.08,.12l-.29,.21-4.68-5.49V3.86h9.89s2.88,6.92,2.88,6.92c.03,.08,.06,.17,.06,.27h0Z"/>
</svg>