<?xml version="1.0" encoding="UTF-8"?>
<svg id="_图层_1" data-name="图层 1" xmlns="http://www.w3.org/2000/svg" viewBox="0 0 24 24">
  <defs>
    <style>
      .apa-config-app-1 {
        fill-rule: evenodd;
      }
    </style>
  </defs>
  <path class="apa-config-app-1" d="M11.69,14.31c-.64,0-1.18-.23-1.63-.68s-.68-.99-.68-1.63,.23-1.18,.68-1.63h0c.45-.45,.99-.68,1.63-.68s1.18,.23,1.63,.68,.68,.99,.68,1.63-.23,1.18-.68,1.63c-.03,.03-.07,.05-.1,.08h2.76c.21-.53,.32-1.1,.32-1.71,0-1.27-.45-2.36-1.35-3.26-.9-.9-1.99-1.35-3.26-1.35s-2.36,.45-3.26,1.35c-.9,.9-1.35,1.99-1.35,3.26s.45,2.36,1.35,3.26c.9,.9,1.99,1.35,3.26,1.35v-2.31Z"/>
  <path d="M23.49,17.34H13.83c-.22,0-.4-.17-.4-.39v-1.12c0-.22,.18-.39,.4-.39h9.65c.22,0,.39,.17,.4,.39v1.12c0,.22-.18,.39-.4,.39Z"/>
  <path d="M23.49,20.67H13.83c-.22,0-.4-.17-.4-.39v-1.12c0-.22,.18-.39,.4-.39h9.65c.22,0,.39,.17,.4,.39v1.12c0,.22-.18,.39-.4,.39Z"/>
  <path d="M23.49,24H13.83c-.22,0-.4-.17-.4-.39v-1.12c0-.22,.18-.39,.4-.39h9.65c.22,0,.4,.17,.4,.39v1.12c0,.22-.18,.39-.4,.39Z"/>
  <path class="apa-config-app-1" d="M11.69,21.69h-1.52c-.25,0-.39-.12-.43-.37l-.25-1.5c-.12-.72-.52-1.27-1.2-1.65-.08-.04-.16-.09-.23-.13-.67-.4-1.34-.47-2.03-.22l-1.43,.54c-.23,.09-.41,.02-.54-.19l-1.52-2.64c-.12-.22-.09-.4,.1-.56l1.18-.97c.56-.46,.84-1.08,.83-1.86,0-.09,0-.18,0-.27,.01-.78-.26-1.4-.83-1.86l-1.18-.97c-.19-.16-.23-.34-.1-.56l1.52-2.64c.12-.22,.3-.28,.54-.19l1.43,.54c.69,.26,1.36,.18,2.03-.22,.05-.03,.13-.08,.24-.14,.67-.37,1.07-.92,1.19-1.64h0s.25-1.5,.25-1.5c.04-.25,.19-.37,.43-.37h3.05c.25,0,.39,.12,.43,.37l.25,1.5c.12,.72,.52,1.27,1.2,1.65,.06,.03,.14,.08,.23,.13,.67,.4,1.34,.47,2.03,.22l1.43-.54c.23-.09,.41-.02,.54,.19l1.52,2.64c.13,.22,.09,.4-.1,.56l-1.18,.97c-.57,.47-.84,1.09-.83,1.86,0,.09,0,.18,0,.27-.01,.63,.17,1.15,.54,1.58h3.1s-.02-.02-.03-.03l-1.24-1.02c-.13-.11-.2-.27-.19-.49,0-.11,0-.23,0-.35,0-.22,.06-.38,.19-.49l1.23-1.02c1.01-.83,1.18-1.81,.53-2.94l-1.6-2.77c-.65-1.13-1.59-1.47-2.81-1.01l-1.5,.56c-.16,.06-.34,.03-.52-.08-.12-.07-.22-.13-.3-.17-.19-.11-.3-.24-.33-.41l-.26-1.58c-.21-1.29-.97-1.93-2.28-1.93h-3.19c-1.3,0-2.06,.64-2.28,1.93h0s-.26,1.58-.26,1.58h0c-.03,.17-.14,.31-.34,.42-.13,.07-.23,.13-.29,.17-.19,.11-.36,.14-.52,.08l-1.5-.56c-1.22-.46-2.16-.12-2.81,1.01L.5,7.38c-.65,1.13-.47,2.11,.53,2.93l1.24,1.02c.13,.11,.2,.27,.19,.49,0,.12,0,.23,0,.35,0,.22-.06,.38-.19,.49l-1.23,1.02C.02,14.51-.15,15.49,.5,16.62l1.6,2.77c.65,1.13,1.59,1.46,2.81,1.01l1.5-.56c.16-.06,.34-.03,.52,.08,.1,.06,.2,.12,.3,.17,.19,.11,.3,.24,.33,.41l.26,1.58c.22,1.28,.97,1.93,2.28,1.93h1.6v-2.31Z"/>
</svg>