<?xml version="1.0" encoding="utf-8"?>
<!-- Generator: Adobe Illustrator 24.2.0, SVG Export Plug-In . SVG Version: 6.00 Build 0)  -->
<svg version="1.1" id="图层_1" xmlns="http://www.w3.org/2000/svg" xmlns:xlink="http://www.w3.org/1999/xlink" x="0px" y="0px"
	 viewBox="0 0 24 24" style="enable-background:new 0 0 24 24;" xml:space="preserve">
<g>
	<g>
		<path d="M2,8.4V3.6c0-0.5-0.4-1-1-1c-0.6,0-1,0.4-1,1v4.8c0,0.5,0.4,1,1,1C1.6,9.4,2,8.9,2,8.4z M5.2,12c0.6,0,1-0.4,1-1V1
			c0-0.5-0.4-1-1-1c-0.6,0-1,0.4-1,1v10C4.2,11.5,4.6,12,5.2,12z M9.4,2.6c-0.6,0-1,0.4-1,1v4.8c0,0.5,0.4,1,1,1c0.6,0,1-0.4,1-1
			V3.6C10.4,3,9.9,2.6,9.4,2.6z M23,14.7h-4c0-0.2,0-0.4-0.1-0.6l-0.8-1.3c-0.3-0.5-0.9-0.6-1.4-0.3c-0.5,0.3-0.6,0.9-0.4,1.3l0.6,1
			h-4.7c-0.6,0-1,0.4-1,1c0,0.5,0.4,1,1,1h1c0.4,0.8,1.4,2.2,2.8,3.6c-1.6,1.2-2.8,2-2.8,2c-0.5,0.3-0.6,0.9-0.3,1.4
			c0.2,0.3,0.5,0.4,0.8,0.4c0.2,0,0.4-0.1,0.6-0.2c0.1,0,1.4-0.9,3.2-2.3c1.8,1.4,3.2,2.3,3.2,2.3c0.2,0.1,0.4,0.2,0.6,0.2
			c0.3,0,0.6-0.2,0.8-0.4c0.3-0.4,0.2-1.1-0.3-1.4c0,0-1.2-0.8-2.8-2c1.5-1.4,2.4-2.8,2.8-3.6h1c0.6,0,1-0.4,1-1
			C24,15.1,23.6,14.7,23,14.7z M17.6,19c-0.9-0.8-1.6-1.7-2-2.3h4.1C19.2,17.3,18.5,18.2,17.6,19z M8.7,20.2h-4
			c-0.9,0-1.7-0.7-1.7-1.6v-3.9c0-0.5-0.4-1-1-1c-0.6,0-1,0.4-1,1v3.9c0,2,1.6,3.6,3.7,3.6h4c0.6,0,1-0.4,1-1
			C9.7,20.6,9.3,20.2,8.7,20.2z M14.1,3.9h4c0.9,0,1.7,0.7,1.7,1.6v3.9c0,0.5,0.4,1,1,1c0.6,0,1-0.4,1-1V5.5c0-2-1.6-3.6-3.7-3.6h-4
			c-0.6,0-1,0.4-1,1C13.1,3.5,13.5,3.9,14.1,3.9z"/>
	</g>
</g>
</svg>
