<?xml version="1.0" encoding="utf-8"?>
<!-- Generator: Adobe Illustrator 24.2.0, SVG Export Plug-In . SVG Version: 6.00 Build 0)  -->
<svg version="1.1" id="图层_1" xmlns="http://www.w3.org/2000/svg" xmlns:xlink="http://www.w3.org/1999/xlink" x="0px" y="0px"
	 viewBox="0 0 24 24" style="enable-background:new 0 0 24 24;" xml:space="preserve">
<path d="M20.3,0h-11C7.1,0,5.5,1.6,5.5,3.7v1.8H3.7C1.6,5.5,0,7.1,0,9.2v11C0,22.4,1.6,24,3.7,24h11c2.1,0,3.7-1.6,3.7-3.7v-1.8h1.8
	c2.1,0,3.7-1.6,3.7-3.7v-11C24,1.6,22.4,0,20.3,0z M16.5,20.3c0,1.1-0.7,1.8-1.8,1.8h-11c-1.1,0-1.8-0.7-1.8-1.8v-11
	c0-1.1,0.7-1.8,1.8-1.8h11c1.1,0,1.8,0.7,1.8,1.8V20.3z M22.1,14.8c0,1.1-0.7,1.8-1.8,1.8h-1.8V9.2c0-2.1-1.6-3.7-3.7-3.7H7.5V3.7
	c0-1.1,0.7-1.8,1.8-1.8h11c1.1,0,1.8,0.7,1.8,1.8V14.8z"/>
</svg>
