<?xml version="1.0" encoding="UTF-8"?>
<svg id="_图层_1" data-name="图层 1" xmlns="http://www.w3.org/2000/svg" viewBox="0 0 24 24">
  <path d="M21.45,17.41l-6.15-6.15c1-2.59,.37-5.53-1.59-7.49-1.87-1.88-4.64-2.54-7.16-1.71-.43,.14-.75,.49-.85,.92-.11,.44,.02,.91,.35,1.23l2.44,2.44c.51,.51,.57,1.3,.15,1.81-.23,.29-.58,.46-.95,.48-.37,.02-.73-.12-.98-.38l-2.49-2.49c-.32-.32-.79-.46-1.24-.35-.44,.1-.79,.43-.93,.86-.76,2.39-.21,5.02,1.43,6.85,1.95,2.17,5.03,2.91,7.76,1.88l6.09,6.09c.56,.56,1.33,.88,2.13,.88,.64,0,1.27-.21,1.79-.63,.62-.51,1-1.27,1.04-2.08,.04-.81-.27-1.59-.84-2.17Z"/>
</svg>