<svg xmlns="http://www.w3.org/2000/svg" xmlns:xlink="http://www.w3.org/1999/xlink" width="29px" height="29px">
  <path fill-rule="evenodd"
    d="M24.799,28.935 L4.912,28.935 C2.601,28.935 0.721,27.058 0.721,24.749 L0.721,5.988 C0.721,3.679 2.601,1.802 4.912,1.802 L14.487,1.802 C15.174,1.802 15.732,2.359 15.732,3.045 C15.732,3.731 15.174,4.288 14.487,4.288 L4.912,4.288 C3.973,4.288 3.210,5.051 3.210,5.988 L3.210,24.749 C3.210,25.686 3.973,26.449 4.912,26.449 L24.799,26.449 C25.737,26.449 26.500,25.686 26.500,24.749 L26.500,15.553 C26.500,14.866 27.058,14.309 27.745,14.309 C28.432,14.309 28.990,14.866 28.990,15.553 L28.990,24.749 C28.990,27.058 27.110,28.935 24.799,28.935 ZM27.745,8.335 L22.199,8.335 C19.445,8.335 17.205,10.747 17.205,13.713 L17.205,20.335 C17.205,21.021 16.647,21.578 15.960,21.578 C15.273,21.578 14.715,21.021 14.715,20.335 L14.715,13.713 C14.715,9.377 18.073,5.849 22.199,5.849 L24.864,5.849 L21.986,2.793 C21.515,2.294 21.539,1.506 22.040,1.035 C22.541,0.564 23.330,0.591 23.799,1.090 L28.651,6.239 C28.997,6.607 29.088,7.123 28.888,7.585 C28.687,8.048 28.250,8.335 27.745,8.335 Z" />
</svg>