<?xml version="1.0" encoding="UTF-8"?>
<svg id="_图层_1" data-name="图层 1" xmlns="http://www.w3.org/2000/svg" viewBox="0 0 24 24">
  <path d="M6,11.88l-2.54-3.83c-.32-.48,.03-1.13,.61-1.13h1.18c.25,0,.49,.13,.62,.35l2.12,3.49h.12l2.12-3.49c.13-.22,.37-.35,.62-.35h1.14c.58,0,.93,.65,.6,1.13l-2.53,3.81c-.16,.24-.16,.56,0,.81l2.73,4.09c.32,.48-.02,1.13-.6,1.13h-1.22c-.25,0-.49-.13-.62-.35l-2.26-3.69h-.12l-2.32,3.7c-.13,.21-.37,.34-.61,.34h-1.19c-.58,0-.93-.65-.6-1.13l2.76-4.07c.17-.24,.17-.56,0-.81Z"/>
  <path d="M18.52,18.09c-.84,0-1.59-.09-2.24-.26-.66-.18-1.21-.48-1.67-.91s-.8-1.01-1.04-1.75c-.24-.73-.36-1.65-.36-2.76s.12-2.03,.36-2.76c.24-.73,.58-1.31,1.04-1.75,.45-.43,1.01-.74,1.67-.91,.66-.18,1.4-.26,2.24-.26,.57,0,1.1,.03,1.59,.1,.24,.03,.46,.07,.67,.11,.34,.07,.58,.37,.58,.71v.64c0,.46-.43,.81-.88,.71-.11-.02-.23-.05-.34-.06-.42-.07-.87-.1-1.36-.1-.53,0-.98,.06-1.35,.17s-.68,.31-.91,.58-.41,.64-.52,1.1c-.11,.46-.16,1.04-.16,1.75s.05,1.26,.16,1.72c.11,.45,.28,.81,.52,1.09s.55,.46,.92,.57c.38,.11,.84,.16,1.38,.16,.46,0,.91-.03,1.36-.1,.13-.02,.26-.04,.39-.07,.45-.1,.87,.25,.87,.71v.63c0,.34-.24,.64-.57,.71,0,0,0,0,0,0-.22,.05-.47,.09-.73,.13-.26,.04-.53,.07-.81,.09-.28,.02-.55,.03-.8,.03Z"/>
</svg>