<svg id="图层_1" data-name="图层 1" xmlns="http://www.w3.org/2000/svg" viewBox="0 0 24 24">
  <defs>
    <style>
      .apa-pdf1 {
        fill: #fa4e4e;
      }

      .apa-pdf1,
      .apa-pdf2 {
        fill-rule: evenodd;
      }

      .apa-pdf2 {
        fill: #fdb8b8;
      }

      .apa-pdf3 {
        fill: none;
      }

      .apa-pdf4 {
        fill: #fff;
      }
    </style>
  </defs>
  <path class="apa-pdf1"
    d="M21,23a3.27,3.27,0,0,0,1-2.4V5.85a1,1,0,0,0-.07-.36,1.21,1.21,0,0,0-.2-.3L16.8.27a.79.79,0,0,0-.3-.2A.84.84,0,0,0,16.15,0H5.39A3.27,3.27,0,0,0,3,1,3.26,3.26,0,0,0,2,3.38V20.61A3.27,3.27,0,0,0,3,23a3.28,3.28,0,0,0,2.4,1H18.61A3.27,3.27,0,0,0,21,23" />
  <path class="apa-pdf2"
    d="M22,5.85a1,1,0,0,0-.07-.36,1.21,1.21,0,0,0-.2-.3L16.8.27,16.67.16A.7.7,0,0,0,16.5.07l-.17,0-.18,0L16,0,15.8.07a.83.83,0,0,0-.16.09L15.5.27a1,1,0,0,0-.2.3.84.84,0,0,0-.07.35V4.48A2.33,2.33,0,0,0,16,6.24a2.08,2.08,0,0,0,1.41.53h3.69l.18,0,.18,0a.65.65,0,0,0,.16-.09l.14-.11a.76.76,0,0,0,.11-.14l.09-.16A1,1,0,0,0,22,5.85" />
  <rect class="apa-pdf3" x="2" width="19.99" height="24" />
  <path class="apa-pdf4"
    d="M15.61,17.07a3.61,3.61,0,0,1-2.06-.84,19.51,19.51,0,0,0-3.3,1.06c-.86,1.53-1.67,2.31-2.36,2.31a.76.76,0,0,1-.42-.11A.83.83,0,0,1,7,18.74c0-.25.06-.95,2.69-2.09a20.14,20.14,0,0,0,1.48-3.45c-.34-.67-1.06-2.32-.56-3.15A1,1,0,0,1,12.19,10c.36.5.34,1.56-.14,3.11a8.35,8.35,0,0,0,1.73,2.23,9.37,9.37,0,0,1,1.75-.19c1.3,0,1.5.64,1.47,1C17,17.07,16.08,17.07,15.61,17.07ZM7.83,18.79l.09,0A1.78,1.78,0,0,0,8.83,18a2.18,2.18,0,0,0-1,.8Zm3.7-8.35h-.09a.17.17,0,0,0-.11,0,2.26,2.26,0,0,0,.17,1.42A2.32,2.32,0,0,0,11.53,10.44Zm.19,4,0,0,0,0a20.26,20.26,0,0,1-.84,1.9l.06,0v.06a15.74,15.74,0,0,1,1.89-.56l0,0h.08A9.44,9.44,0,0,1,11.72,14.48ZM15.5,16a2.92,2.92,0,0,0-.72.06,2.28,2.28,0,0,0,.83.22,1.25,1.25,0,0,0,.55-.05C16.16,16.09,16.05,16,15.5,16Z" />
</svg>