<?xml version="1.0" encoding="utf-8"?>
<!-- Generator: Adobe Illustrator 25.0.0, SVG Export Plug-In . SVG Version: 6.00 Build 0)  -->
<svg version="1.1" id="图层_1" xmlns="http://www.w3.org/2000/svg" xmlns:xlink="http://www.w3.org/1999/xlink" x="0px" y="0px"
	 viewBox="0 0 24 24" style="enable-background:new 0 0 24 24;" xml:space="preserve">
<style type="text/css">
	.st0{fill:#F44343;}
	.st1{fill:url(#SVGID_1_);}
	.st2{fill:url(#SVGID_2_);}
	.st3{fill:url(#SVGID_3_);}
	.st4{fill-rule:evenodd;clip-rule:evenodd;}
	.st5{fill-rule:evenodd;clip-rule:evenodd;fill:#FFBC00;}
	.st6{opacity:0.5;fill-rule:evenodd;clip-rule:evenodd;fill:#FFBC00;}
	.st7{fill:#989898;}
	.st8{fill:#333333;}
	.st9{fill:#7C8295;}
	.st10{fill:#4A90E2;}
</style>
<path d="M12,15.2c-3.9,0-7.9-1.2-10.7-3.6C1,11.3,1,10.8,1.3,10.5c0,0,0,0,0,0c0.3-0.3,0.8-0.4,1.1-0.1c4.9,4.2,14.3,4.2,19.2,0
	c0.3-0.3,0.8-0.3,1.1,0.1c0.3,0.3,0.3,0.8-0.1,1.1C19.9,14,15.9,15.2,12,15.2z M9.1,18.7c0,0-0.1,0-0.1,0c-0.2,0-0.4-0.2-0.5-0.3
	c-0.1-0.2-0.2-0.4-0.1-0.6l0.5-3.1c0.1-0.4,0.5-0.7,0.9-0.7c0.4,0.1,0.7,0.5,0.7,0.9c0,0,0,0,0,0L9.9,18C9.8,18.4,9.5,18.7,9.1,18.7
	L9.1,18.7z M21.1,17.1c-0.2,0-0.4-0.1-0.6-0.2l-2.6-2.7c-0.3-0.3-0.4-0.8-0.1-1.1c0.1-0.1,0.3-0.2,0.4-0.3c0.3-0.1,0.6,0,0.8,0.3
	l2.6,2.7c0.3,0.3,0.3,0.8,0,1.1C21.5,17,21.3,17.1,21.1,17.1L21.1,17.1z M2.9,17.1c-0.2,0-0.4-0.1-0.5-0.2c-0.3-0.3-0.3-0.8,0-1.1
	c0,0,0,0,0,0L5,13.1c0.3-0.4,0.8-0.4,1.1-0.2c0.2,0.1,0.3,0.3,0.3,0.5c0.1,0.3-0.1,0.6-0.3,0.8l-2.6,2.7C3.4,17,3.2,17.1,2.9,17.1
	L2.9,17.1z M15,18.7c-0.4,0-0.7-0.3-0.8-0.7l-0.5-3.1c-0.1-0.3,0-0.6,0.2-0.8c0.2-0.2,0.6-0.3,0.8-0.2c0.3,0.1,0.5,0.4,0.5,0.7
	l0.5,3.1c0,0.2,0,0.4-0.1,0.6c-0.1,0.2-0.3,0.3-0.5,0.3C15,18.7,15,18.7,15,18.7L15,18.7z"/>
</svg>
