<?xml version="1.0" encoding="UTF-8"?>
<svg id="_图层_1" data-name="图层 1" xmlns="http://www.w3.org/2000/svg" viewBox="0 0 24 24">
  <defs>
    <style>
      .apa-label-color1 {
        fill: #00bfff;
      }

      .apa-label-color2 {
        fill: #409eff;
      }
    </style>
  </defs>
  <polygon class="apa-label-color2" points="1.3 11.95 3.31 10.84 3.61 10.84 11.85 15.37 12.15 15.37 20.39 10.84 20.69 10.84 22.7 11.95 12.25 17.78 11.95 17.78 1.3 11.95"/>
  <path class="apa-label-color1" d="M1.8,7.03L11.85,1.5h.3l10.05,5.53c.2,.1,.2,.4,0,.5l-10.05,5.53h-.3L1.8,7.53c-.2-.2-.2-.4,0-.5Z"/>
  <path class="apa-label-color2" d="M12.05,20.09l8.24-4.52h.3l2.01,1.11-10.45,5.83h-.3L1.3,16.67l2.01-1.11h.3l8.24,4.52c0,.1,.2,.1,.2,0Z"/>
</svg>