<?xml version="1.0" encoding="UTF-8"?>
<svg id="_图层_1" data-name="图层 1" xmlns="http://www.w3.org/2000/svg" viewBox="0 0 24 24">
  <defs>
    <style>
      .cls-1 {
        opacity: .7;
      }

      .cls-1, .cls-2 {
        fill: #ffbc00;
      }
    </style>
  </defs>
  <path class="cls-1" d="M1.5,4.51c0-1.01,.82-1.83,1.83-1.83h5.71c1.01,0,1.83,.82,1.83,1.83v.46c0,.5,.41,.91,.91,.91h6.63c1.01,0,1.83,.82,1.83,1.83v.46H6.71c-1.01,0-1.97,.82-2.15,1.78l-2.01,11.01c-.59,0-1.05-.82-1.05-1.83,0,0,0-14.62,0-14.62Z"/>
  <path class="cls-2" d="M5.57,10.4c.14-.73,.87-1.33,1.65-1.33h14.17c.78,0,1.23,.59,1.1,1.33l-1.78,9.19c-.14,.73-.87,1.33-1.65,1.33H3.51s2.06-10.51,2.06-10.51Z"/>
</svg>