<?xml version="1.0" encoding="UTF-8"?>
<svg id="_图层_1" data-name="图层 1" xmlns="http://www.w3.org/2000/svg" viewBox="0 0 24 24">
  <defs>
    <style>
      .cls-1 {
        fill-rule: evenodd;
      }
    </style>
  </defs>
  <path class="cls-1" d="M14.59,12l-7.29,7.29c-.09,.09-.17,.2-.22,.32-.05,.12-.08,.25-.08,.38,0,.07,0,.13,.02,.2s.03,.13,.06,.19c.03,.06,.06,.12,.09,.17,.04,.05,.08,.1,.13,.15,.05,.05,.1,.09,.15,.12,.06,.04,.11,.07,.17,.09,.06,.02,.12,.04,.19,.06,.06,.01,.13,.02,.19,.02,.13,0,.26-.03,.38-.08,.12-.05,.23-.12,.32-.22l8-8c.09-.09,.17-.2,.22-.32,.05-.12,.08-.25,.08-.38,0-.13-.03-.26-.08-.38-.05-.12-.12-.23-.22-.32L8.71,3.29c-.09-.09-.2-.17-.32-.22-.12-.05-.25-.08-.38-.08-.07,0-.13,0-.2,.02s-.13,.03-.19,.06c-.06,.03-.12,.06-.17,.09-.05,.04-.1,.08-.15,.13-.05,.05-.09,.1-.12,.15-.04,.06-.07,.11-.09,.17-.02,.06-.04,.12-.06,.19-.01,.06-.02,.13-.02,.19s.03,.26,.08,.38,.12,.23,.22,.32l7.29,7.29Z"/>
</svg>