<?xml version="1.0" encoding="UTF-8"?>
<svg id="_图层_1" data-name="图层 1" xmlns="http://www.w3.org/2000/svg" viewBox="0 0 24 24">
  <path d="M22.16,7.03c.34,.26,.4,.75,.13,1.08-.26,.34-.75,.4-1.08,.13,0,0,0,0-.01-.01-2.56-2.04-5.71-3.17-9.03-3.17s-6.47,1.13-9.03,3.17c-.33,.27-.82,.22-1.08-.11-.27-.33-.22-.82,.11-1.08,0,0,0,0,.01-.01,2.83-2.26,6.32-3.51,9.99-3.51s7.16,1.25,9.99,3.51Zm-5.67,7.18c.34,.26,.41,.74,.15,1.08s-.74,.41-1.08,.15h0c-.98-.74-2.17-1.13-3.39-1.13-1.24,0-2.42,.4-3.39,1.13-.34,.26-.82,.2-1.08-.14-.26-.34-.2-.82,.14-1.08,0,0,.01-.01,.02-.02,1.24-.94,2.76-1.44,4.32-1.44,1.58,0,3.08,.51,4.32,1.44h0Zm3.08-3.6c.34,.26,.41,.74,.15,1.08-.26,.34-.74,.41-1.08,.15-1.85-1.39-4.1-2.16-6.47-2.16s-4.62,.76-6.48,2.16c-.34,.26-.82,.19-1.08-.14s-.19-.82,.14-1.08c0,0,0,0,0,0,2.12-1.59,4.69-2.47,7.4-2.47s5.28,.87,7.4,2.47Zm-7.4,9.87c-.85,0-1.54-.69-1.54-1.54s.69-1.54,1.54-1.54,1.54,.69,1.54,1.54-.69,1.54-1.54,1.54Z"/>
</svg>