<?xml version="1.0" encoding="utf-8"?>
<!-- Generator: Adobe Illustrator 27.0.0, SVG Export Plug-In . SVG Version: 6.00 Build 0)  -->
<svg version="1.1" id="_图层_1" xmlns="http://www.w3.org/2000/svg" xmlns:xlink="http://www.w3.org/1999/xlink" x="0px" y="0px"
	 viewBox="0 0 24 24" style="enable-background:new 0 0 24 24;" xml:space="preserve">
<path d="M14.3,15.3h-1.5v-1.6c1.9-0.4,3.3-2,3.3-4.1c0-2.3-1.9-4.1-4.1-4.1S7.9,7.4,7.9,9.7c0,2,1.4,3.7,3.3,4.1v4.4
	c0,0.4,0.4,0.8,0.8,0.8s0.8-0.4,0.8-0.8v-1.3h1.5c0.4,0,0.8-0.4,0.8-0.8C15.1,15.7,14.7,15.3,14.3,15.3z M9.4,9.7
	c0-1.4,1.1-2.6,2.6-2.6s2.6,1.1,2.6,2.6c0,1.2-0.8,2.1-1.9,2.5c-0.2,0.1-0.4,0.1-0.7,0.1s-0.5-0.1-0.7-0.1
	C10.2,11.8,9.4,10.8,9.4,9.7L9.4,9.7z"/>
<path d="M12,2.5c0.2,0,0.4,0,0.6,0.1l6.7,2.8c0.6,0.3,0.9,0.8,0.9,1.4v5.8c0,2.9-1.6,5.5-4.1,6.9l-3.9,2.1c-0.1,0.1-0.2,0.1-0.4,0
	l-3.9-2.1c-2.6-1.3-4.1-4-4.1-6.9V6.9c0-0.6,0.4-1.2,0.9-1.4l6.6-2.8C11.6,2.5,11.8,2.5,12,2.5 M12,0.9c-0.4,0-0.8,0.1-1.2,0.3
	L4.2,4C3,4.5,2.3,5.7,2.3,6.9v5.8c0,3.5,1.9,6.7,4.9,8.3l3.3,1.7c1,0.5,2.1,0.5,3.1,0l3.3-1.7c3-1.6,4.9-4.8,4.9-8.3V6.9
	c0-1.2-0.7-2.4-1.9-2.9l-6.7-2.8C12.8,1,12.4,0.9,12,0.9z"/>
</svg>
