<?xml version="1.0" encoding="UTF-8"?>
<svg id="_图层_1" data-name="图层 1" xmlns="http://www.w3.org/2000/svg" viewBox="0 0 24 24">
  <path d="M20.31,3.76c-.53-.38-1.21-.49-1.83-.29-.81,.23-1.64,.33-2.48,.32-1.24-.07-2.45-.37-3.58-.89-1.39-.64-2.89-1-4.42-1.06-3.3,0-4.57,1.14-4.8,1.3-.22,.22-.34,.51-.34,.82V21.27c0,.63,.51,1.14,1.14,1.14s1.14-.51,1.14-1.14v-4.91c.91-.35,1.88-.51,2.86-.47,1.24,.07,2.45,.37,3.58,.89,1.39,.64,2.89,1,4.42,1.06,1.38,.05,2.75-.22,4-.8,.69-.32,1.13-1.01,1.14-1.77V5.4c0-.65-.31-1.25-.83-1.63Zm-1.45,11.33c-.91,.35-1.88,.51-2.86,.47-1.24-.07-2.45-.37-3.58-.9-1.39-.63-2.89-.99-4.42-1.05-.96-.02-1.92,.09-2.86,.33V4.61c.91-.36,1.88-.52,2.86-.48,1.24,.07,2.45,.37,3.58,.9,1.39,.63,2.89,.99,4.42,1.05,.96,.01,1.92-.1,2.86-.34V15.09Z"/>
</svg>