<?xml version="1.0" encoding="UTF-8"?>
<svg id="_图层_1" data-name="图层 1" xmlns="http://www.w3.org/2000/svg" viewBox="0 0 24 24">
  <defs>
    <style>
      .cls-1 {
        fill: #a4c439;
      }
    </style>
  </defs>
  <path class="cls-1" d="M7.35,5.17l-.1,.08c-1.66,1.3-2.71,3.17-2.94,5.2h15.36c-.23-2.04-1.27-3.9-2.94-5.2l-.09-.08,1.35-1.69c.11-.15,.16-.36,.12-.59-.03-.22-.14-.42-.29-.53-.15-.11-.37-.16-.59-.13-.23,.04-.42,.14-.53,.29l-1.44,1.8-.08-.04c-2.06-.93-4.32-.93-6.37,0l-.08,.04-.02-.02-1.42-1.78c-.17-.21-.4-.33-.64-.33-.17,0-.34,.06-.49,.16-.41,.33-.39,.82-.16,1.13l1.35,1.69Zm6.69,1.68c.2-.19,.45-.3,.73-.3s.54,.11,.73,.3c.19,.19,.3,.45,.3,.73,0,.28-.11,.54-.3,.73-.19,.19-.45,.3-.73,.3-.57,0-1.04-.46-1.04-1.03,0-.28,.11-.54,.3-.73Zm-5.54,0c.2-.19,.46-.3,.73-.3h0c.57,0,1.03,.46,1.03,1.03s-.46,1.03-1.03,1.03-1.03-.46-1.03-1.03c0-.28,.11-.54,.3-.73Z"/>
  <path class="cls-1" d="M4.27,11.28s0,.02,0,.03v8.77c0,.95,.78,1.73,1.73,1.73h12c.95,0,1.73-.78,1.73-1.73V11.31s0-.02,0-.03H4.27Z"/>
  <path class="cls-1" d="M2.3,10.5c-.49,0-.8,.32-.8,.8v5.54c0,.49,.32,.8,.8,.8s.8-.32,.8-.8v-5.54c0-.49-.32-.8-.8-.8Z"/>
  <path class="cls-1" d="M21.7,10.5c-.49,0-.81,.32-.81,.8v5.54c0,.49,.32,.8,.81,.8s.8-.32,.8-.8v-5.54c0-.49-.32-.8-.8-.8Z"/>
</svg>