<?xml version="1.0" encoding="UTF-8"?>
<svg id="_图层_1" data-name="图层 1" xmlns="http://www.w3.org/2000/svg" viewBox="0 0 24 24">
  <defs>
    <style>
      .apa-runing {
        fill-rule: evenodd;
      }
    </style>
  </defs>
  <path class="apa-runing" d="M9.65,21.96c-.99-.23-1.93-.59-2.81-1.1-.45-.25-1.01-.09-1.26,.36-.24,.44-.09,.99,.34,1.25,1.04,.6,2.15,1.03,3.33,1.3,.5,.13,1-.17,1.13-.66,.13-.5-.17-1-.66-1.13-.02,0-.04,0-.06-.01M21.37,4.47C19.61,2.26,17.36,.85,14.61,.22c-.5-.1-.99,.22-1.1,.72-.1,.49,.2,.97,.68,1.09,2.32,.53,4.23,1.73,5.72,3.59,1.49,1.86,2.23,3.99,2.23,6.37s-.74,4.51-2.23,6.37c-1.49,1.86-3.39,3.06-5.72,3.59-.5,.11-.81,.61-.7,1.11,.11,.5,.61,.81,1.11,.7,2.75-.63,5-2.04,6.76-4.25,1.76-2.2,2.63-4.71,2.63-7.53,0-2.82-.88-5.33-2.63-7.53M.32,15.35c.36,1.25,.91,2.41,1.65,3.48,.28,.43,.85,.56,1.28,.28,.43-.28,.56-.85,.28-1.28-.01-.02-.02-.03-.03-.05-.62-.91-1.09-1.89-1.39-2.94-.16-.49-.69-.75-1.17-.59-.46,.15-.73,.63-.61,1.11M3.18,6.45c0,.16-.04,.31-.12,.45l-.2,.37c-.5,.95-.84,1.96-1.02,3.02h0c-.09,.51-.57,.85-1.07,.76S-.07,10.49,.01,9.98H.01c.21-1.26,.62-2.46,1.21-3.59v-.02s.22-.38,.22-.38c.25-.45,.81-.61,1.26-.36,.3,.16,.48,.48,.48,.81M10.38,1.12c0,.43-.3,.81-.72,.91-1.27,.29-2.44,.8-3.51,1.54-.42,.29-1,.18-1.29-.24-.29-.42-.18-1,.24-1.29,1.27-.87,2.65-1.48,4.15-1.82,.5-.11,1,.2,1.11,.7,.01,.07,.02,.13,.02,.2"/>
  <path class="apa-runing" d="M12.85,8.28c0,.18-.05,.36-.16,.52l-1.51,2.27h3.22c.51,0,.93,.42,.93,.93,0,.18-.05,.36-.16,.52l-2.48,3.72c-.29,.42-.87,.53-1.29,.24-.42-.28-.53-.85-.25-1.27l1.51-2.27h-3.22c-.51,0-.93-.42-.93-.93,0-.18,.05-.36,.16-.52l2.48-3.72c.28-.43,.86-.54,1.29-.26,.26,.17,.41,.46,.41,.77"/>
</svg>