<?xml version="1.0" encoding="UTF-8"?>
<svg id="_图层_1" data-name="图层 1" xmlns="http://www.w3.org/2000/svg" viewBox="0 0 24 24">
  <path d="M19.34,1.8H4.65c-1.74,0-3.15,1.41-3.15,3.15v14.1c0,1.74,1.41,3.15,3.15,3.15h14.7c1.74,0,3.15-1.41,3.15-3.15V4.95c-.01-1.74-1.42-3.15-3.16-3.15h0Zm0,18.29H4.65c-.58,0-1.05-.47-1.05-1.05V4.95c0-.58,.47-1.05,1.05-1.05h14.7c.58,0,1.05,.47,1.05,1.05v14.1c0,.58-.48,1.05-1.06,1.05Z"/>
  <path d="M18,8.4v7.2c0,.66-.54,1.2-1.2,1.2s-1.2-.54-1.2-1.2v-4.3l-2.75,2.75c-.47,.47-1.23,.47-1.7,0l-2.75-2.75v4.3c0,.66-.54,1.2-1.2,1.2s-1.2-.54-1.2-1.2v-7.2c0-.66,.54-1.2,1.2-1.2,.32,0,.62,.13,.85,.35l3.95,3.95,3.95-3.95c.47-.47,1.23-.47,1.7,0,.23,.23,.35,.53,.35,.85Z"/>
</svg>