<?xml version="1.0" encoding="UTF-8"?>
<svg id="_图层_1" data-name="图层 1" xmlns="http://www.w3.org/2000/svg" viewBox="0 0 24 24">
  <defs>
    <style>
      .apa-father-seg-color {
        fill: #f0953a;
      }
    </style>
  </defs>
  <path class="apa-father-seg-color"
    d="M8.85,10.95c2.32,0,4.2-1.88,4.2-4.2s-1.88-4.2-4.2-4.2-4.2,1.88-4.2,4.2h0c0,2.32,1.88,4.2,4.2,4.2h0Zm8.4,2.1c1.74,0,3.15-1.41,3.15-3.15s-1.41-3.15-3.15-3.15-3.15,1.41-3.15,3.15,1.41,3.15,3.15,3.15Zm4.2,7.35c.58,0,1.05-.47,1.05-1.05h0c0-2.9-2.36-5.25-5.25-5.25-1.16,0-2.29,.39-3.21,1.1-2.88-2.86-7.53-2.86-10.39,.02-1.37,1.38-2.14,3.24-2.14,5.18,0,.58,.47,1.05,1.05,1.05H15.15c.58,0,1.05-.47,1.05-1.05h0" />
</svg>