<?xml version="1.0" encoding="UTF-8"?>
<svg id="_图层_1" data-name="图层 1" xmlns="http://www.w3.org/2000/svg" viewBox="0 0 24 24">
  <defs>
    <style>
      .apa-mix-color {
        fill: #1975ff;
      }
    </style>
  </defs>
  <path class="apa-mix-color"
    d="M12,.9C5.87,.9,.9,5.87,.9,12s4.97,11.1,11.1,11.1,11.1-4.97,11.1-11.1S18.13,.9,12,.9Zm4.98,7.53l-1.96,5.89c-.11,.33-.37,.59-.7,.7l-5.89,1.96c-.58,.19-1.21-.12-1.4-.7-.08-.23-.08-.47,0-.7l1.96-5.89c.11-.33,.37-.59,.7-.7l5.89-1.96c.4-.13,.84-.03,1.14,.27,.3,.3,.4,.74,.27,1.14Z" />
  <polygon class="apa-mix-color" points="10.91 10.91 9.83 14.17 13.08 13.08 14.17 9.83 10.92 10.92 10.91 10.91" />
</svg>