<?xml version="1.0" encoding="UTF-8"?>
<svg id="_图层_1" data-name="图层 1" xmlns="http://www.w3.org/2000/svg" viewBox="0 0 24 24">
  <path d="M13.73,5.09c0,.23,0,.46-.12,.58l-3.11,5.18h4.84c.46,0,.81,.23,1.04,.58,.23,.35,.23,.81,0,1.15l-3.46,6.8c-.12,.46-.46,.69-.92,.69-.69,0-1.15-.46-1.15-1.15,0-.23,0-.35,.12-.46l2.65-5.3h-4.95c-.46,0-.81-.23-1.04-.58-.23-.46-.23-.81,0-1.27l4.03-6.8c.12-.35,.46-.58,.92-.58,.69,0,1.15,.46,1.15,1.15Z"/>
  <g>
    <path d="M0,5.39C0,3.43,1.5,1.94,3.46,1.94h2.3c.69,0,1.15,.46,1.15,1.15s-.46,1.15-1.15,1.15H3.46c-.69,0-1.15,.46-1.15,1.15v13.22c0,.69,.46,1.15,1.15,1.15h2.3c.69,0,1.15,.46,1.15,1.15s-.46,1.15-1.15,1.15H3.46C1.5,22.06,0,20.57,0,18.61V5.39Z"/>
    <path d="M20.54,1.94h-2.3c-.69,0-1.15,.46-1.15,1.15s.46,1.15,1.15,1.15h2.3c.69,0,1.15,.46,1.15,1.15v13.22c0,.69-.46,1.15-1.15,1.15h-2.3c-.69,0-1.15,.46-1.15,1.15s.46,1.15,1.15,1.15h2.3c1.96,0,3.46-1.5,3.46-3.46V5.39c0-1.96-1.5-3.46-3.46-3.46Z"/>
  </g>
</svg>