<?xml version="1.0" encoding="UTF-8"?>
<svg id="_图层_1" data-name="图层 1" xmlns="http://www.w3.org/2000/svg" viewBox="0 0 24 24">
  <path d="M16.74,6.7h0c.27,0,.52-.1,.71-.29,.19-.18,.3-.44,.3-.7V2.48c0-.26-.11-.52-.3-.7s-.44-.28-.73-.28c-.26,0-.5,.1-.69,.28-.19,.19-.3,.44-.3,.71v3.23c0,.27,.11,.52,.3,.7,.19,.18,.44,.28,.71,.28Z"/>
  <path d="M6.64,6.49c.16,.12,.35,.19,.55,.21,.02,0,.05,0,.07,0,.25,0,.48-.09,.71-.29,.19-.18,.3-.44,.3-.7V2.48c0-.26-.11-.52-.3-.7-.13-.12-.29-.21-.46-.25-.08-.02-.16-.03-.27-.03-.54,0-.99,.44-1,.99v3.23c0,.23,.09,.46,.25,.64l.14,.13Z"/>
  <path d="M22.46,5.69h0c-.04-1-.53-1.79-1.38-2.24-.52-.28-.88-.32-1.3-.32h-.62c-.54,0-.99,.44-.99,.99,0,.55,.45,.99,1,.99h.31c.72,0,.96,.1,.98,.62,0,1.7,0,3.83,0,6,0,2.55,0,5.16,0,7.16v1.01c0,.33-.26,.61-.58,.61H4.09c-.31,0-.58-.28-.58-.61V5.73c0-.49,.25-.67,.63-.67h.62c.26,0,.51-.1,.7-.29,.19-.19,.29-.44,.29-.7,0-.27-.1-.51-.29-.7-.19-.19-.43-.29-.7-.29h-.61c-1.32,0-2.26,.79-2.55,1.92-.06,.23-.1,.47-.1,.72v14.16c0,.95,.53,1.85,1.36,2.3,.38,.21,.81,.32,1.24,.32h15.81c1.41,0,2.6-1.2,2.6-2.61l-.04-14.19Z"/>
  <path d="M9.65,5.11h4.42c.55,0,1-.46,1-1.01,0-.27-.1-.52-.29-.71-.19-.19-.44-.3-.71-.3h-4.13c-.27,0-.52,.11-.71,.3-.19,.19-.29,.45-.29,.71,0,.45,.29,.89,.71,1.01Z"/>
  <path d="M7.05,12.77c0,.25,.1,.5,.28,.68l2.97,2.97c.36,.36,1,.36,1.36,0l5.53-5.52c.18-.18,.28-.43,.28-.68s-.1-.5-.28-.68c-.37-.37-.98-.37-1.36,0l-4.84,4.84-2.3-2.3c-.19-.18-.43-.27-.67-.27s-.49,.09-.68,.28c-.18,.18-.28,.43-.28,.68Z"/>
</svg>