<?xml version="1.0" encoding="UTF-8"?>
<svg id="_图层_1" data-name="图层 1" xmlns="http://www.w3.org/2000/svg" viewBox="0 0 24 24">
  <path d="M21.04,15.55c-1.96,4.77-7.41,7.04-12.18,5.08-4.77-1.96-7.04-7.41-5.08-12.18C5.75,3.68,11.2,1.41,15.96,3.37c1.11,.46,2.12,1.12,2.98,1.96h-2.53c-.74,0-1.33,.6-1.33,1.33s.6,1.33,1.33,1.33h5.33c.74,0,1.33-.6,1.33-1.33h0V1.33c0-.74-.6-1.33-1.33-1.33-.74,0-1.33,.6-1.33,1.33v1.72C15.47-1.36,7.88-.94,3.47,4,1.5,6.2,.41,9.05,.41,12c0,6.63,5.36,12,11.99,12,4.87,0,9.25-2.94,11.1-7.44,.25-.69-.11-1.46-.8-1.71-.65-.24-1.38,.07-1.67,.7h0Z"/>
</svg>