<?xml version="1.0" encoding="UTF-8"?>
<svg id="_图层_1" data-name="图层 1" xmlns="http://www.w3.org/2000/svg" viewBox="0 0 24 24">
  <path d="M6.32,5.15c.31-2.19,2.34-3.71,4.52-3.39,1.76,.25,3.14,1.63,3.39,3.39h1.18c1.89,0,3.43,1.53,3.43,3.43v1.18c2.19,.31,3.71,2.34,3.39,4.52-.25,1.76-1.63,3.14-3.39,3.39v1.18c0,1.89-1.53,3.43-3.43,3.43h-3.43v-.57c0-.95-.77-1.71-1.71-1.71s-1.71,.77-1.71,1.71v.57h-3.43c-1.89,0-3.43-1.53-3.43-3.43v-3.43h.57c.95,0,1.71-.77,1.71-1.71s-.77-1.71-1.71-1.71h-.57v-3.43c0-1.89,1.53-3.43,3.43-3.43h0s1.18,0,1.18,0Zm2.24,.57v1.71h-3.43c-.32,0-.58,.11-.81,.33s-.33,.49-.33,.81v1.51c.4,.19,.77,.46,1.11,.8,.78,.78,1.17,1.72,1.17,2.83s-.39,2.05-1.17,2.83c-.34,.34-.71,.61-1.11,.8v1.51c0,.32,.11,.58,.33,.81,.22,.22,.49,.33,.81,.33h1.51c.19-.4,.46-.77,.8-1.11,.78-.78,1.72-1.17,2.83-1.17s2.05,.39,2.83,1.17c.34,.34,.61,.71,.8,1.11h1.51c.32,0,.58-.11,.81-.33,.22-.22,.33-.49,.33-.81v-3.43h1.71c.95,0,1.71-.77,1.71-1.71s-.77-1.71-1.71-1.71h-1.71v-3.43c0-.32-.11-.58-.33-.81s-.49-.33-.81-.33h-3.43v-1.71c0-.95-.77-1.71-1.71-1.71s-1.71,.77-1.71,1.71Z"/>
</svg>