<?xml version="1.0" encoding="UTF-8"?>
<svg id="_图层_1" data-name="图层 1" xmlns="http://www.w3.org/2000/svg" viewBox="0 0 24 24">
  <path d="M19.74,5.34c0-.57-.46-1.04-1.04-1.04s-1.04,.46-1.04,1.04v4.88c0,.28-.11,.54-.3,.74-.2,.19-.46,.3-.74,.3H7.37l2.22-2.95c.21-.53-.06-1.14-.59-1.34-.33-.13-.7-.08-.98,.13l-3.58,4.62c-.3,.38-.3,.92,0,1.3l3.6,4.63c.2,.24,.5,.39,.81,.38,.23,0,.46-.08,.64-.23,.45-.36,.52-1.01,.16-1.46,0,0,0,0,0,0l-2.21-2.93h9.26c1.72,0,3.11-1.39,3.11-3.11l-.06-4.95Z"/>
  <path d="M20,0H4C1.79,0,0,1.79,0,4V20c0,2.21,1.79,4,4,4H20c2.21,0,4-1.79,4-4V4c0-2.21-1.79-4-4-4Zm1.8,20.4c0,.77-.63,1.4-1.4,1.4H3.6c-.77,0-1.4-.63-1.4-1.4V3.6c0-.77,.63-1.4,1.4-1.4H20.4c.77,0,1.4,.63,1.4,1.4V20.4Z"/>
</svg>