<?xml version="1.0" encoding="UTF-8"?>
<svg id="_图层_1" data-name="图层 1" xmlns="http://www.w3.org/2000/svg" viewBox="0 0 24 24">
  <path d="M17.42,3.6h-.05c-.25-1.22-1.32-2.1-2.57-2.1h-5.25c-1.25,0-2.32,.88-2.57,2.1h-.05c-1.74,0-3.15,1.41-3.15,3.15v12.6c0,1.74,1.41,3.15,3.15,3.15h10.5c1.74,0,3.15-1.41,3.15-3.15V6.75c0-1.74-1.41-3.15-3.15-3.15Zm-8.4,.52c0-.29,.23-.52,.53-.52h5.25c.29,0,.52,.23,.52,.52v1.05c0,.29-.23,.52-.52,.52h-5.25c-.29,0-.53-.23-.53-.52v-1.05Zm9.45,15.23c0,.58-.47,1.05-1.05,1.05H6.92c-.58,0-1.05-.47-1.05-1.05V6.75c0-.58,.47-1.05,1.05-1.05h.05c.25,1.22,1.32,2.1,2.57,2.1h5.25c1.25,0,2.32-.88,2.57-2.1h.05c.58,0,1.05,.47,1.05,1.05v12.6Z"/>
  <path d="M7.97,16.2c0-.58,.47-1.05,1.05-1.05h6.3c.58,0,1.05,.47,1.05,1.05s-.47,1.05-1.05,1.05h-6.3c-.58,0-1.05-.47-1.05-1.05Zm0-4.2c0-.58,.47-1.05,1.05-1.05h6.3c.58,0,1.05,.47,1.05,1.05s-.47,1.05-1.05,1.05h-6.3c-.58,0-1.05-.47-1.05-1.05Z"/>
</svg>