<?xml version="1.0" encoding="UTF-8"?>
<svg id="_图层_1" data-name="图层 1" xmlns="http://www.w3.org/2000/svg" viewBox="0 0 24 24">
  <path d="M21.92,11.89c0-5.32-4.31-9.79-9.61-9.98h-.74C6.28,2.09,1.97,6.57,1.97,11.89s4.31,9.8,9.61,9.97h.74c5.29-.18,9.6-4.65,9.6-9.97ZM14.04,3.61c3.43,.86,5.99,3.8,6.37,7.32l.03,.24h-4.16v-.2c-.2-3.17-1.51-5.53-2.48-7.03l-.3-.46,.54,.13Zm-2.26,.27l.17-.23,.17,.23c1.64,2.13,2.62,4.58,2.82,7.07l.02,.23h-6.03l.02-.24c.29-3.32,1.89-5.85,2.82-7.06ZM3.39,10.93c.47-3.52,3.03-6.46,6.37-7.32l.54-.13-.3,.47c-1.49,2.31-2.32,4.67-2.47,7.03v.2H3.36l.03-.25Zm6.46,9.23c-3.43-.86-5.99-3.8-6.37-7.32l-.03-.24H7.61v.2c.16,2.35,.99,4.72,2.48,7.03l.3,.46-.54-.13Zm2.26-.27l-.17,.23-.17-.23c-1.64-2.13-2.62-4.57-2.82-7.06l-.02-.23h6.03l-.02,.24c-.28,3.32-1.89,5.85-2.82,7.06Zm2.01,.27l-.54,.13,.3-.47c1.49-2.31,2.32-4.67,2.47-7.03v-.2h4.17l-.03,.25c-.47,3.52-3.03,6.46-6.37,7.32Z"/>
</svg>