<?xml version="1.0" encoding="UTF-8"?>
<svg id="_图层_1" data-name="图层 1" xmlns="http://www.w3.org/2000/svg" viewBox="0 0 24 24">
  <defs>
    <style>
      .apa-add-sup {
        fill-rule: evenodd;
      }
    </style>
  </defs>
  <path class="apa-add-sup" d="M10.54,5.27c0,2.51-1.75,4.61-4.1,5.14v5.4c0,.65,.52,1.17,1.17,1.17h3.17c-.16,.36-.24,.75-.24,1.17s.09,.81,.24,1.17h-3.17c-1.94,0-3.51-1.57-3.51-3.51v-5.4C1.75,9.87,0,7.78,0,5.27,0,2.36,2.36,0,5.27,0s5.27,2.36,5.27,5.27Zm-5.27,2.93c1.62,0,2.93-1.31,2.93-2.93s-1.31-2.93-2.93-2.93-2.93,1.31-2.93,2.93,1.31,2.93,2.93,2.93Z"/>
  <path d="M18.15,12.29c.65,0,1.17,.52,1.17,1.17v3.51h3.51c.65,0,1.17,.52,1.17,1.17s-.52,1.17-1.17,1.17h-3.51v3.51c0,.65-.52,1.17-1.17,1.17s-1.17-.52-1.17-1.17v-3.51h-3.51c-.65,0-1.17-.52-1.17-1.17s.52-1.17,1.17-1.17h3.51v-3.51c0-.65,.52-1.17,1.17-1.17Z"/>
</svg>