<?xml version="1.0" encoding="UTF-8"?>
<svg id="_图层_1" data-name="图层 1" xmlns="http://www.w3.org/2000/svg" viewBox="0 0 24 24">
  <path d="M21.81,.75c1.12,0,2.02,.9,2.02,2.02v13.85c0,1.11-.9,2.02-2.02,2.02H2.19c-1.11,0-2.02-.9-2.02-2.02V2.77C.17,1.65,1.08,.75,2.19,.75c0,0,19.62,0,19.62,0Zm0,1.73H2.19c-.16,0-.29,.13-.29,.29h0v13.85c0,.16,.13,.29,.29,.29H21.81c.16,0,.29-.13,.29-.29V2.77c0-.16-.13-.29-.29-.29h0Z"/>
  <path d="M21.81,12.36H2.19c-1.12,0-2.02,.9-2.02,2.02v2.23c0,1.11,.9,2.02,2.02,2.02H21.81c1.11,0,2.02-.9,2.02-2.02v-2.23c0-1.12-.9-2.02-2.02-2.02Zm.29,4.25c0,.16-.13,.29-.29,.29H2.19c-.16,0-.29-.13-.29-.29v-2.23c0-.16,.13-.29,.29-.29H21.81c.16,0,.29,.13,.29,.29v2.23Z"/>
  <path d="M15.73,16.96c.45-.17,.95,.06,1.11,.51l1.73,4.62c.17,.45-.06,.95-.51,1.11-.1,.04-.2,.06-.3,.06H6.23c-.48,0-.87-.39-.87-.86,0-.1,.02-.21,.06-.3l1.73-4.62c.17-.45,.67-.67,1.12-.51s.67,.67,.51,1.12h0l-1.29,3.44h9.04l-1.29-3.44c-.15-.41,.02-.87,.41-1.07l.1-.04h0Z"/>
</svg>