<?xml version="1.0" encoding="UTF-8"?>
<svg id="_图层_1" data-name="图层 1" xmlns="http://www.w3.org/2000/svg" viewBox="0 0 24 24">
  <path
    d="M17.86,19.04c.15-.09,.29-.2,.41-.33l5.04-5.04c.93-.93,.93-2.43,0-3.36,0,0,0,0,0,0l-5.04-5.04c-.93-.93-2.43-.93-3.36,0l-1.76,1.76,2.13,2.13c1.56,1.56,1.56,4.09,0,5.65-.32,.32-.83,.32-1.15,0-.32-.32-.32-.83,0-1.15,.93-.93,.93-2.43,0-3.36l-2.13-2.13-2.91-2.91s-.09-.09-.14-.13c-.94-.8-2.34-.75-3.22,.13L.69,10.32c-.93,.93-.93,2.43,0,3.36l5.04,5.04c.93,.93,2.43,.93,3.36,0l1.76-1.76-2.13-2.13c-1.56-1.56-1.56-4.09,0-5.65,.32-.32,.83-.32,1.15,0,.32,.32,.32,.83,0,1.15-.93,.93-.93,2.43,0,3.36l5.04,5.04c.79,.78,2.01,.92,2.95,.33h0Z" />
</svg>