<?xml version="1.0" encoding="UTF-8"?>
<svg id="_图层_1" data-name="图层 1" xmlns="http://www.w3.org/2000/svg" xmlns:xlink="http://www.w3.org/1999/xlink" viewBox="0 0 24 24">
  <defs>
    <style>
      .cls-1 {
        fill: url(#tool-color_jnkijas);
      }

      .cls-2 {
        fill: #fff;
      }

      .cls-3 {
        fill: #13c2c2;
      }
    </style>
    <linearGradient id="tool-color_jnkijas" data-name="未命名的渐变 5" x1="0" y1="12" x2="21.98" y2="12" gradientUnits="userSpaceOnUse">
      <stop offset="0" stop-color="#5769fc"/>
      <stop offset="1" stop-color="#3d63e8"/>
    </linearGradient>
  </defs>
  <path class="cls-3" d="M14.32,7.43c0-1.99,1.58-3.6,3.52-3.6h1.32c2.67,0,4.84,2.21,4.84,4.94h0v9.51c0,2.73-2.17,4.95-4.84,4.95h-1.32c-1.94,0-3.52-1.61-3.52-3.6V7.43Z"/>
  <path class="cls-1" d="M20.83,5c-.77-.78-1.69-1.17-2.78-1.17h-1.75c-.16-.71-.51-1.34-1.05-1.89-.77-.78-1.69-1.17-2.78-1.17s-2.01,.39-2.77,1.18c-.54,.55-.89,1.18-1.05,1.89h-1.75c-1.08,0-2.01,.39-2.78,1.17-.77,.78-1.15,1.73-1.15,2.84v1.78c-.69,.16-1.31,.52-1.85,1.07-.77,.78-1.15,1.73-1.15,2.84s.38,2.05,1.15,2.84c.54,.55,1.15,.91,1.85,1.07v1.79c0,1.11,.38,2.05,1.15,2.84,.77,.78,1.69,1.18,2.78,1.18h3.78v-2.11c0-.5,.17-.93,.52-1.29,.35-.36,.77-.53,1.26-.53,.49,0,.91,.18,1.26,.53s.52,.79,.52,1.29v2.1h3.78c1.08,0,2.01-.39,2.78-1.17,.77-.78,1.15-1.73,1.15-2.84V7.84c0-1.11-.38-2.05-1.15-2.84h0Z"/>
  <path class="cls-2" d="M16.9,13.47c-.08,0-.16,.04-.24,.05l-2.57-3.66s.04-.09,.06-.14c.16-.28,.28-.58,.28-.93,0-1.03-.84-1.87-1.87-1.87s-1.87,.84-1.87,1.87c0,.41,.16,.77,.38,1.08,0,0,0,.02,.01,.02l-2.55,3.64s0,0,0,0c-.1-.02-.18-.06-.28-.06-1.03,0-1.87,.84-1.87,1.87s.84,1.87,1.87,1.87c.75,0,1.38-.44,1.68-1.08h5.28c.3,.63,.93,1.08,1.68,1.08,1.03,0,1.87-.84,1.87-1.87s-.84-1.87-1.87-1.87Zm-4.37-2.81h.06s.11,0,.11,0l2.62,3.75s-.06,.08-.08,.12h-5.31s-.03-.04-.04-.06v-.02s2.64-3.78,2.64-3.78Z"/>
</svg>