<svg xmlns="http://www.w3.org/2000/svg" width="18" height="18" viewBox="0 0 18 18">
  <defs>
    <style>
      .apa-menu-expand {
        fill: #787f91;
        fill-rule: evenodd;
      }
    </style>
  </defs>
  <path id="IconMenuExpand" class="apa-menu-expand"
    d="M407.542,1035.01h-11.1a3.457,3.457,0,0,0-3.454,3.45v11.08a3.457,3.457,0,0,0,3.454,3.45h11.1a3.458,3.458,0,0,0,3.454-3.45v-11.08A3.458,3.458,0,0,0,407.542,1035.01Zm-12.584,14.53v-11.08a1.479,1.479,0,0,1,1.481-1.48h0.467v14.04h-0.467A1.479,1.479,0,0,1,394.958,1049.54Zm14.064,0a1.479,1.479,0,0,1-1.48,1.48H398.88v-14.04h8.662a1.479,1.479,0,0,1,1.48,1.48v11.08Zm-7.084-8.29a0.989,0.989,0,0,0-1.4,1.4L401.9,1044l-1.354,1.35a0.981,0.981,0,0,0,0,1.39,0.985,0.985,0,0,0,1.4,0l2.052-2.04a0.993,0.993,0,0,0,0-1.4Z"
    transform="translate(-393 -1035)" />
</svg>