<?xml version="1.0" encoding="UTF-8"?>
<svg id="_图层_1" data-name="图层 1" xmlns="http://www.w3.org/2000/svg" viewBox="0 0 24 24">
  <path d="M7.61,2.93c.75,0,1.44,.39,1.83,1.04l1.3,2.16h8.75c1.77,0,3.2,1.43,3.2,3.2v8.53c0,1.77-1.43,3.2-3.2,3.2H4.55c-1.77,0-3.2-1.43-3.2-3.2V5.07c0-1.18,.96-2.13,2.13-2.13H7.61Zm0,2.13H3.49v12.8c0,.56,.43,1.02,.99,1.06h.08s14.93,0,14.93,0c.56,0,1.02-.43,1.06-.99v-.08s0-8.53,0-8.53c0-.56-.43-1.02-.99-1.06h-.08s-9.95,0-9.95,0l-1.92-3.2Zm3.96,4.91c.27-.54,.92-.76,1.46-.5,.22,.11,.39,.28,.5,.5l.67,1.35,1.49,.22c.57,.08,.97,.59,.93,1.16v.08c-.04,.24-.16,.46-.33,.63l-1.08,1.05,.26,1.49c.1,.56-.26,1.11-.81,1.25l-.08,.02c-.24,.04-.48,0-.69-.11l-1.34-.7-1.34,.7c-.51,.27-1.13,.1-1.43-.38l-.04-.07c-.11-.21-.15-.46-.11-.69l.26-1.49-1.08-1.05c-.41-.4-.44-1.04-.08-1.48l.06-.07c.17-.17,.39-.28,.63-.32l1.49-.22,.67-1.35Zm.98,2.83l-.02,.04c-.17,.28-.46,.47-.78,.52h.05s.03,.02,.03,.02c.17,.2,.27,.45,.27,.72v.1s-.01,.04-.01,.04l.05-.02c.27-.11,.57-.11,.84,0l.05,.02v-.04c-.03-.3,.06-.59,.26-.81l.03-.03h-.04c-.29-.07-.54-.26-.69-.51l-.02-.04ZM18.42,2.93c.59,0,1.07,.48,1.07,1.07s-.48,1.07-1.07,1.07h-6.4c-.59,0-1.07-.48-1.07-1.07s.48-1.07,1.07-1.07h6.4Z"/>
</svg>