<svg xmlns="http://www.w3.org/2000/svg" width="24px" height="24px" viewBox="0 0 24 24">
  <path
    d="M4 3h9.25a1 1 0 0 1 1 1v3.25a1 1 0 0 1-1 1H4a1 1 0 0 1-1-1V4a1 1 0 0 1 1-1m6.75 6.75H20a1 1 0 0 1 1 1V14a1 1 0 0 1-1 1h-9.25a1 1 0 0 1-1-1v-3.25a1 1 0 0 1 1-1M4 9.75h3.25a1 1 0 0 1 1 1V14a1 1 0 0 1-1 1H4a1 1 0 0 1-1-1v-3.25a1 1 0 0 1 1-1m12.75 6.75H20a1 1 0 0 1 1 1V20a1 1 0 0 1-1 1h-3.25a1 1 0 0 1-1-1v-2.5a1 1 0 0 1 1-1m0-13.5H20a1 1 0 0 1 1 1v3.25a1 1 0 0 1-1 1h-3.25a1 1 0 0 1-1-1V4a1 1 0 0 1 1-1M4 16.5h9.25a1 1 0 0 1 1 1V20a1 1 0 0 1-1 1H4a1 1 0 0 1-1-1v-2.5a1 1 0 0 1 1-1">
  </path>
</svg>