<?xml version="1.0" encoding="utf-8"?>
<!-- Generator: Adobe Illustrator 24.2.0, SVG Export Plug-In . SVG Version: 6.00 Build 0)  -->
<svg version="1.1" id="图层_1" xmlns="http://www.w3.org/2000/svg" xmlns:xlink="http://www.w3.org/1999/xlink" x="0px" y="0px"
	 viewBox="0 0 24 24" style="enable-background:new 0 0 24 24;" xml:space="preserve">
<path d="M2.4,7.6c-0.6,0-1.2,0.5-1.2,1.2v6.5c0,0.7,0.5,1.2,1.2,1.2s1.2-0.5,1.2-1.2V8.8C3.5,8.1,3,7.6,2.4,7.6z M7.2,5
	C6.5,5,6,5.6,6,6.2v11.6C6,18.4,6.5,19,7.2,19c0.6,0,1.2-0.5,1.2-1.2V6.2C8.3,5.6,7.8,5,7.2,5z M12,1.2c-0.6,0-1.2,0.5-1.2,1.2v19.2
	c0,0.7,0.5,1.2,1.2,1.2c0.6,0,1.2-0.5,1.2-1.2V2.4C13.2,1.7,12.6,1.2,12,1.2z M21.6,7.6c-0.6,0-1.2,0.5-1.2,1.2v6.5
	c0,0.7,0.5,1.2,1.2,1.2c0.6,0,1.2-0.5,1.2-1.2V8.8C22.8,8.1,22.3,7.6,21.6,7.6z M16.8,5c-0.6,0-1.2,0.5-1.2,1.2v11.6
	c0,0.7,0.5,1.2,1.2,1.2c0.6,0,1.2-0.5,1.2-1.2V6.2C18,5.6,17.5,5,16.8,5z"/>
</svg>
