<svg 
 xmlns="http://www.w3.org/2000/svg"
 xmlns:xlink="http://www.w3.org/1999/xlink"
 width="15px" height="16px">
<path fill-rule="evenodd"  fill="rgb(153, 166, 183)"
 d="M7.527,0.620 C3.489,0.620 0.203,3.905 0.203,7.944 C0.203,11.983 3.489,15.269 7.527,15.269 C11.566,15.269 14.852,11.983 14.852,7.944 C14.852,3.905 11.566,0.620 7.527,0.620 ZM10.926,13.087 C10.606,13.300 10.270,13.480 9.927,13.625 C9.167,13.947 8.360,14.110 7.527,14.110 C6.695,14.110 5.888,13.947 5.128,13.625 C4.798,13.486 4.470,13.310 4.152,13.102 L4.135,13.090 L4.137,13.071 C4.278,11.299 5.773,9.912 7.540,9.912 C9.299,9.912 10.793,11.293 10.941,13.056 L10.943,13.076 L10.926,13.087 ZM5.923,6.736 C5.923,5.844 6.648,5.119 7.540,5.119 C8.432,5.119 9.157,5.844 9.157,6.736 C9.157,7.628 8.432,8.353 7.540,8.353 C6.648,8.353 5.923,7.628 5.923,6.736 ZM13.693,7.944 C13.693,8.778 13.530,9.585 13.209,10.344 C12.922,11.022 12.512,11.644 11.989,12.192 L11.948,12.236 L11.932,12.177 C11.727,11.401 11.319,10.692 10.755,10.127 C10.303,9.676 9.778,9.332 9.194,9.105 L9.023,9.038 L9.170,8.929 C9.861,8.414 10.274,7.595 10.274,6.736 C10.274,5.229 9.047,4.002 7.540,4.002 C6.032,4.002 4.806,5.229 4.806,6.736 C4.806,7.595 5.218,8.414 5.909,8.929 L6.056,9.038 L5.886,9.105 C5.301,9.332 4.776,9.676 4.325,10.127 C3.754,10.699 3.345,11.415 3.143,12.198 L3.128,12.257 L3.086,12.214 C2.554,11.661 2.137,11.032 1.846,10.344 C1.525,9.584 1.362,8.776 1.362,7.944 C1.362,7.112 1.525,6.304 1.846,5.545 C2.156,4.811 2.601,4.152 3.168,3.585 C3.733,3.019 4.393,2.574 5.128,2.263 C5.887,1.941 6.694,1.779 7.527,1.779 C8.361,1.779 9.168,1.941 9.927,2.263 C10.660,2.573 11.320,3.017 11.887,3.585 C12.454,4.152 12.899,4.811 13.209,5.545 C13.530,6.304 13.693,7.110 13.693,7.944 Z"/>
</svg>
