<svg xmlns="http://www.w3.org/2000/svg" xmlns:xlink="http://www.w3.org/1999/xlink" fill="none" version="1.1" width="24" height="24" viewBox="0 0 24 24"><defs><clipPath id="master_svg0_732_41658"><rect x="0" y="0" width="24" height="24" rx="0"/></clipPath></defs><g clip-path="url(#master_svg0_732_41658)"><g><path d="M4.2499847412109375,4L4.249992921950938,20C4.249993423960937,21.1046,5.145423741210937,22,6.249994741210937,22L18.249984741210938,22C19.354584741210935,22,20.249984741210938,21.1046,20.249984741210938,20L20.249984741210938,4C20.249984741210938,2.89543,19.354584741210935,2,18.249984741210938,2L6.2499847412109375,2C5.145415741210938,2,4.2499847412109375,2.895431,4.2499847412109375,4Z" fill="#4464F8" fill-opacity="1"/><path d="M6.249994741210937,22.75L18.249984741210938,22.75Q20.999984741210938,22.75,20.999984741210938,20L20.999984741210938,4Q20.999984741210938,1.25,18.249984741210938,1.25L6.2499847412109375,1.25Q5.1108977412109375,1.25,4.3054415412109375,2.0554567Q3.4999847412109375,2.860913,3.4999857412109376,4L3.4999927412109377,20Q3.4999947412109376,22.75,6.249994741210937,22.75ZM19.499984741210938,20Q19.499984741210938,21.25,18.249984741210938,21.25L6.249994741210937,21.25Q5.7322247412109375,21.25,5.366114741210938,20.8839Q4.999993741210938,20.5178,4.999992741210938,20L4.999985741210938,4Q4.999985741210938,3.48223,5.366104741210938,3.11612Q5.732214741210937,2.75,6.2499847412109375,2.75L18.249984741210938,2.75Q19.499984741210938,2.75,19.499984741210938,4L19.499984741210938,20Z" fill-rule="evenodd" fill="#4464F8" fill-opacity="1"/></g><g><path d="M8.249984741210938,7.25L16.249984741210938,7.25Q16.323854741210937,7.25,16.396304741210937,7.264411Q16.468754741210937,7.278822,16.53699474121094,7.30709Q16.60524474121094,7.335359,16.666664741210937,7.376398Q16.728084741210935,7.417437,16.780314741210937,7.46967Q16.83254474121094,7.521903,16.873584741210937,7.583322Q16.914624741210936,7.644742,16.942894741210935,7.712987Q16.971164741210938,7.781233,16.98557474121094,7.853682Q16.999984741210938,7.9261315,16.999984741210938,8Q16.999984741210938,8.0738685,16.98557474121094,8.146318Q16.971164741210938,8.218767,16.942894741210935,8.287013Q16.914624741210936,8.355258,16.873584741210937,8.416678Q16.83254474121094,8.478097,16.780314741210937,8.53033Q16.728084741210935,8.582563,16.666664741210937,8.623602Q16.60524474121094,8.664641,16.53699474121094,8.69291Q16.468754741210937,8.721178,16.396304741210937,8.735589000000001Q16.323854741210937,8.75,16.249984741210938,8.75L8.249984741210938,8.75Q8.176116241210938,8.75,8.103666741210937,8.735589000000001Q8.031217741210938,8.721178,7.9629717412109375,8.69291Q7.894726741210937,8.664641,7.833306741210937,8.623602Q7.7718877412109375,8.582563,7.719654741210937,8.53033Q7.667421741210937,8.478097,7.6263827412109375,8.416678Q7.585343741210938,8.355258,7.557074741210937,8.287013Q7.528806741210937,8.218767,7.5143957412109375,8.146318Q7.4999847412109375,8.0738685,7.4999847412109375,8Q7.4999847412109375,7.9261315,7.5143957412109375,7.853682Q7.528806741210937,7.781233,7.557074741210937,7.712987Q7.585343741210938,7.644742,7.6263827412109375,7.583322Q7.667421741210937,7.521903,7.719654741210937,7.46967Q7.7718877412109375,7.417437,7.833306741210937,7.376398Q7.894726741210937,7.335359,7.9629717412109375,7.30709Q8.031217741210938,7.278822,8.103666741210937,7.264411Q8.176116241210938,7.25,8.249984741210938,7.25Z" fill-rule="evenodd" fill="#FFFFFF" fill-opacity="1"/></g><g><path d="M8.249984741210938,11.25L12.249984741210938,11.25Q12.323854741210937,11.25,12.396304741210937,11.264410999999999Q12.468754741210937,11.278822,12.536994741210938,11.30709Q12.605244741210939,11.335359,12.666664741210937,11.376398Q12.728084741210939,11.417437,12.780314741210937,11.46967Q12.832544741210938,11.521903,12.873584741210937,11.583322Q12.914624741210938,11.644742,12.942894741210939,11.712987Q12.971164741210938,11.781233,12.985574741210938,11.853682Q12.999984741210938,11.9261315,12.999984741210938,12Q12.999984741210938,12.0738685,12.985574741210938,12.146318Q12.971164741210938,12.218767,12.942894741210939,12.287013Q12.914624741210938,12.355258,12.873584741210937,12.416678Q12.832544741210938,12.478097,12.780314741210937,12.53033Q12.728084741210939,12.582563,12.666664741210937,12.623602Q12.605244741210939,12.664641,12.536994741210938,12.69291Q12.468754741210937,12.721178,12.396304741210937,12.735589000000001Q12.323854741210937,12.75,12.249984741210938,12.75L8.249984741210938,12.75Q8.176116241210938,12.75,8.103666741210937,12.735589000000001Q8.031217741210938,12.721178,7.9629717412109375,12.69291Q7.894726741210937,12.664641,7.833306741210937,12.623602Q7.7718877412109375,12.582563,7.719654741210937,12.53033Q7.667421741210937,12.478097,7.6263827412109375,12.416678Q7.585343741210938,12.355258,7.557074741210937,12.287013Q7.528806741210937,12.218767,7.5143957412109375,12.146318Q7.4999847412109375,12.0738685,7.4999847412109375,12Q7.4999847412109375,11.9261315,7.5143957412109375,11.853682Q7.528806741210937,11.781233,7.557074741210937,11.712987Q7.585343741210938,11.644742,7.6263827412109375,11.583322Q7.667421741210937,11.521903,7.719654741210937,11.46967Q7.7718877412109375,11.417437,7.833306741210937,11.376398Q7.894726741210937,11.335359,7.9629717412109375,11.30709Q8.031217741210938,11.278822,8.103666741210937,11.264410999999999Q8.176116241210938,11.25,8.249984741210938,11.25Z" fill-rule="evenodd" fill="#FFFFFF" fill-opacity="1"/></g><g><path d="M17.99798,16.932249921874998C17.99763,15.589596921875,19.29414,14.627979921875,20.5789,15.017990221875C20.78546,15.080562921875,20.85072,15.340769921875,20.698140000000002,15.493412921875L19.43339,16.757779921875C19.45739,16.938729921875,19.53853,17.113589921875,19.67758,17.252629921875C19.81663,17.391679921875,19.99148,17.472819921875,20.17281,17.496439921875L21.436799999999998,16.232069921875C21.58944,16.079489921875002,21.84965,16.144749921875,21.912219999999998,16.351309921875C22.32321,17.705009921875,21.23722,19.045829921875,19.82767,18.924989921875C19.43987,18.892229921875,19.1153,18.963089921875,18.94807,19.166509921875L16.22429,22.475049921874998C15.75222,23.045479921875,14.891714,23.086039921875,14.368088,22.562519921875C13.844462,22.039009921875,13.884830000000001,21.178499921875,14.455165,20.706309921875L17.76332,17.982149921875C17.96636,17.814529921875,18.0376,17.490339921874998,18.00484,17.102539921875C18.00018,17.045899921874998,17.997889999999998,16.989089921875,17.99798,16.932249921874998Z" fill-rule="evenodd" fill="#FFFFFF" fill-opacity="1"/><path d="M16.99798,16.930609921875Q16.99777,17.057779921875,17.00821,17.184559921875L17.00839,17.186719921875Q17.01426,17.256219921875,17.01278,17.304769921875L13.817444,19.936039921875Q13.049225,20.572059921875,13.00249,21.568309921875Q12.95575,22.564559921875002,13.661058,23.269709921875Q14.366361,23.974859921875,15.3626,23.927909921875Q16.35883,23.880959921875,16.99632,23.110629921875002L19.62553,19.916969921875Q19.67369,19.915549921874998,19.74226,19.921339921875Q21.32801,20.057279921875,22.329729999999998,18.820499921875Q23.33146,17.583719921875,22.86927,16.061379921875Q22.658079999999998,15.364255921875,21.95155,15.187056921875Q21.862659999999998,15.164761921875,21.77679,15.153427921875Q21.76545,15.067557921875,21.74316,14.978658121875Q21.56596,14.272127921875,20.86938,14.061107921875Q19.42401,13.622349921875,18.2108,14.522182921875Q16.99759,15.422019921875,16.99798,16.930609921875ZM18.933709999999998,17.922019921875Q18.91841,17.976869921875,18.90018,18.029579921875Q18.95289,18.011359921875,19.00775,17.996079921875Q18.98896,17.978229921875,18.97047,17.959739921875Q18.95177,17.941029921875,18.933709999999998,17.922019921875ZM17.13628,19.793909921875L15.09289,21.476569921875Q15.0056,21.548839921875,15.00029,21.662029921875Q14.994982,21.775219921875,15.07512,21.855339921875Q15.15525,21.935459921875,15.26845,21.930129921875Q15.38164,21.924789921875,15.45225,21.839459921875L17.13628,19.793909921875Z" fill-rule="evenodd" fill="#FFFFFF" fill-opacity="1"/></g><g><path d="M17.99798,16.932249921874998C17.99763,15.589596921875,19.29414,14.627979921875,20.5789,15.017990221875C20.78546,15.080562921875,20.85072,15.340769921875,20.698140000000002,15.493412921875L19.43339,16.757779921875C19.45739,16.938729921875,19.53853,17.113589921875,19.67758,17.252629921875C19.81663,17.391679921875,19.99148,17.472819921875,20.17281,17.496439921875L21.436799999999998,16.232069921875C21.58944,16.079489921875002,21.84965,16.144749921875,21.912219999999998,16.351309921875C22.32321,17.705009921875,21.23722,19.045829921875,19.82767,18.924989921875C19.43987,18.892229921875,19.1153,18.963089921875,18.94807,19.166509921875L16.22429,22.475049921874998C15.75222,23.045479921875,14.891714,23.086039921875,14.368088,22.562519921875C13.844462,22.039009921875,13.884830000000001,21.178499921875,14.455165,20.706309921875L17.76332,17.982149921875C17.96636,17.814529921875,18.0376,17.490339921874998,18.00484,17.102539921875C18.00018,17.045899921874998,17.997889999999998,16.989089921875,17.99798,16.932249921874998ZM14.994968,21.646489921875002C14.994968,21.488689921875,15.12289,21.360769921875,15.28068,21.360769921875L15.28373,21.360769921875C15.44152,21.360769921875,15.56944,21.488689921875,15.56944,21.646489921875002L15.56944,21.649529921875C15.56944,21.807329921875,15.44152,21.935239921875,15.28373,21.935239921875L15.28068,21.935239921875C15.12289,21.935239921875,14.994968,21.807329921875,14.994968,21.649529921875L14.994968,21.646489921875002Z" fill-rule="evenodd" fill="#71C7FB" fill-opacity="1"/></g></g></svg>