<svg xmlns="http://www.w3.org/2000/svg" xmlns:xlink="http://www.w3.org/1999/xlink" fill="none" version="1.1" width="24" height="24" viewBox="0 0 24 24"><defs><clipPath id="master_svg0_700_32376"><rect x="0" y="0" width="24" height="24" rx="0"/></clipPath></defs><g clip-path="url(#master_svg0_700_32376)"><g transform="matrix(0.4999999701976776,0.866025447845459,-0.866025447845459,0.4999999701976776,11.1867016971446,-12.696247728774324)"><path d="M26.588623046875,3.33984375C21.244273046875,8.14975375,21.244273046875,16.52994375,26.588623046875,21.33984375C31.932923046875,16.52994375,31.932923046875,8.14975375,26.588623046875,3.33984375Z" fill="#FCE996" fill-opacity="1"/><path d="M27.090323046875,2.78237275Q27.039123046874998,2.73628575,26.980423046875,2.70029775Q26.921623046875,2.66431075,26.857323046875003,2.63962875Q26.793023046875,2.61494575,26.725223046875,2.60239475Q26.657523046875,2.58984375,26.588623046875,2.58984375Q26.519733046875,2.58984375,26.451993046875,2.60239475Q26.384243046875,2.61494575,26.319923046874997,2.63962875Q26.255603046875002,2.66431075,26.196853046875,2.70029775Q26.138113046875,2.73628575,26.086903046875,2.78237275Q21.830363046875,6.61326375,21.830363046875,12.33984375Q21.830363046875,18.066443749999998,26.086903046875,21.89734375Q26.138113046875,21.94344375,26.196853046875,21.97934375Q26.255603046875002,22.01534375,26.319923046874997,22.04004375Q26.384243046875,22.06474375,26.451993046875,22.07724375Q26.519733046875,22.08984375,26.588623046875,22.08984375Q26.657523046875,22.08984375,26.725223046875,22.07724375Q26.793023046875,22.06474375,26.857323046875003,22.04004375Q26.921623046875,22.01534375,26.980423046875,21.97934375Q27.039123046874998,21.94344375,27.090323046875,21.89734375Q31.346923046875,18.066443749999998,31.346923046875,12.33984375Q31.346923046875,6.61325375,27.090323046875,2.78237275ZM26.588623046875,4.37302375Q23.330363046875,7.63088375,23.330363046875,12.33984375Q23.330363046875,17.04884375,26.588623046875,20.30664375Q29.846923046875,17.04884375,29.846923046875,12.33984375Q29.846923046875,7.63088375,26.588623046875,4.37302375Z" fill-rule="evenodd" fill="#FCE996" fill-opacity="1"/></g><g transform="matrix(0.8660253882408142,0.5,-0.5,0.8660253882408142,1.055050227259926,-3.1147467722621514)"><path d="M16.3397216796875,0.411376953125C10.9953716796875,5.221286953125,10.9953716796875,13.601476953125,16.3397216796875,18.411376953125C21.6840216796875,13.601476953125,21.6840216796875,5.221286953125,16.3397216796875,0.411376953125Z" fill="#F9CC45" fill-opacity="1"/><path d="M16.8414216796875,-0.14609404687500005Q16.790221679687498,-0.19218104687500004,16.7315216796875,-0.22816904687499995Q16.6727216796875,-0.26415604687500005,16.608421679687503,-0.28883804687500003Q16.5441216796875,-0.31352104687500004,16.4763216796875,-0.326072046875Q16.4086216796875,-0.338623046875,16.3397216796875,-0.338623046875Q16.2708316796875,-0.338623046875,16.2030916796875,-0.326072046875Q16.1353416796875,-0.31352104687500004,16.071021679687497,-0.28883804687500003Q16.006701679687502,-0.26415604687500005,15.9479516796875,-0.22816904687499995Q15.8892116796875,-0.19218104687500004,15.8380016796875,-0.14609404687500005Q11.5814616796875,3.684796953125,11.5814616796875,9.411376953125Q11.5814616796875,15.137976953125,15.8380016796875,18.968876953125Q15.8892116796875,19.014976953125,15.9479516796875,19.050876953125Q16.006701679687502,19.086876953125,16.071021679687497,19.111576953125Q16.1353416796875,19.136276953125,16.2030916796875,19.148776953125Q16.2708316796875,19.161376953125,16.3397216796875,19.161376953125Q16.4086216796875,19.161376953125,16.4763216796875,19.148776953125Q16.5441216796875,19.136276953125,16.608421679687503,19.111576953125Q16.6727216796875,19.086876953125,16.7315216796875,19.050876953125Q16.790221679687498,19.014976953125,16.8414216796875,18.968876953125Q21.0980216796875,15.137976953125,21.0980216796875,9.411376953125Q21.0980216796875,3.684786953125,16.8414216796875,-0.14609404687500005ZM16.3397216796875,1.444556953125Q13.0814616796875,4.702416953125,13.0814616796875,9.411376953125Q13.0814616796875,14.120376953125,16.3397216796875,17.378176953125Q19.5980216796875,14.120376953125,19.5980216796875,9.411376953125Q19.5980216796875,4.702416953125,16.3397216796875,1.444556953125Z" fill-rule="evenodd" fill="#F9CC45" fill-opacity="1"/></g><g><path d="M6,3C0.6556499999999996,7.80991,0.6556499999999996,16.1901,6,21C11.3443,16.1901,11.3443,7.80991,6,3Z" fill="#FF7D00" fill-opacity="1"/><path d="M6.5017,2.442529Q6.4505,2.396442,6.3918,2.360454Q6.333,2.324467,6.268700000000001,2.299785Q6.2044,2.275102,6.1366,2.262551Q6.068899999999999,2.25,6,2.25Q5.93111,2.25,5.86337,2.262551Q5.7956199999999995,2.275102,5.731299999999999,2.299785Q5.666980000000001,2.324467,5.608230000000001,2.360454Q5.5494900000000005,2.396442,5.498279999999999,2.442529Q1.24174,6.27342,1.24174,12Q1.24174,17.726599999999998,5.498279999999999,21.5575Q5.5494900000000005,21.6036,5.608230000000001,21.6395Q5.666980000000001,21.6755,5.731299999999999,21.7002Q5.7956199999999995,21.7249,5.86337,21.7374Q5.93111,21.75,6,21.75Q6.068899999999999,21.75,6.1366,21.7374Q6.2044,21.7249,6.268700000000001,21.7002Q6.333,21.6755,6.3918,21.6395Q6.4505,21.6036,6.5017,21.5575Q10.7583,17.726599999999998,10.7583,12Q10.7583,6.27341,6.5017,2.442529ZM6,4.03318Q2.74174,7.29104,2.74174,12Q2.74174,16.709,6,19.9668Q9.2583,16.709,9.2583,12Q9.2583,7.29104,6,4.03318Z" fill-rule="evenodd" fill="#FF7D00" fill-opacity="1"/></g><g><g><path d="M22.999996507720947,20.16751223572095L22.999996507720947,22.499996507720947Q22.999996507720947,22.573686507720947,22.992776507720947,22.64702650772095Q22.985556507720947,22.720356507720947,22.971176507720948,22.792636507720946Q22.95679650772095,22.864906507720946,22.93540650772095,22.935426507720948Q22.914016507720948,23.005946507720946,22.885816507720946,23.074026507720948Q22.857616507720948,23.142106507720946,22.82287650772095,23.207096507720948Q22.788146507720946,23.272086507720946,22.747206507720946,23.333356507720946Q22.706266507720947,23.394626507720947,22.659516507720948,23.451586507720947Q22.61276650772095,23.508556507720947,22.560656507720946,23.560656507720946Q22.508556507720947,23.61276650772095,22.451586507720947,23.659516507720948Q22.394626507720947,23.706266507720947,22.333356507720946,23.747206507720946Q22.272086507720946,23.788146507720946,22.207096507720948,23.82287650772095Q22.142106507720946,23.857616507720948,22.074026507720948,23.885816507720946Q22.005946507720946,23.914016507720948,21.935426507720948,23.93540650772095Q21.864906507720946,23.95679650772095,21.792636507720946,23.971176507720948Q21.720356507720947,23.985556507720947,21.64702650772095,23.992776507720947Q21.573686507720947,23.999996507720947,21.499996507720947,23.999996507720947L19.166666507720947,23.999996507720947Q19.092976207720948,23.999996507720947,19.019640507720947,23.992776507720947Q18.946305507720947,23.985556507720947,18.874031507720947,23.971176507720948Q18.80175650772095,23.95679650772095,18.731239507720947,23.93540650772095Q18.660722507720948,23.914016507720948,18.59264150772095,23.885816507720946Q18.52456050772095,23.857616507720948,18.45957150772095,23.82287650772095Q18.394582507720948,23.788146507720946,18.333311507720946,23.747206507720946Q18.272039507720947,23.706266507720947,18.215076507720948,23.659516507720948Q18.158116507720948,23.61276650772095,18.10600650772095,23.560656507720946Q18.053896507720946,23.508556507720947,18.007146507720947,23.451586507720947Q17.960406507720947,23.394626507720947,17.919466507720948,23.333356507720946Q17.87852650772095,23.272086507720946,17.843786507720946,23.207096507720948Q17.809046507720947,23.142106507720946,17.78084650772095,23.074026507720948Q17.752646507720947,23.005946507720946,17.731256507720946,22.935426507720948Q17.709866507720946,22.864906507720946,17.695486507720947,22.792636507720946Q17.681116507720947,22.720356507720947,17.673886507720947,22.64702650772095Q17.666666507720947,22.573686507720947,17.666666507720947,22.499996507720947Q17.666666507720947,22.42630650772095,17.673886507720947,22.352976507720946Q17.681116507720947,22.279636507720948,17.695486507720947,22.20736650772095Q17.709866507720946,22.13508650772095,17.731256507720946,22.064576507720947Q17.752646507720947,21.99405650772095,17.78084650772095,21.925976507720947Q17.809046507720947,21.857896507720948,17.843786507720946,21.792906507720947Q17.87852650772095,21.72791650772095,17.919466507720948,21.666646507720948Q17.960406507720947,21.605376507720948,18.007146507720947,21.548406507720948Q18.053896507720946,21.491446507720948,18.10600650772095,21.43933650772095Q18.158116507720948,21.387236507720946,18.215076507720948,21.340486507720946Q18.272039507720947,21.293736507720947,18.333311507720946,21.252796507720948Q18.394582507720948,21.21185650772095,18.45957150772095,21.177116507720946Q18.52456050772095,21.142380507720947,18.59264150772095,21.114180507720945Q18.660722507720948,21.085980507720947,18.731239507720947,21.064589507720946Q18.80175650772095,21.04319850772095,18.874031507720947,21.02882150772095Q18.946305507720947,21.014445507720946,19.019640507720947,21.007222507720947Q19.092976207720948,20.999999507720947,19.166666507720947,20.999999507720947L19.167089371720948,20.999999507720947L19.999999507720947,20.999999507720947L19.999999507720947,20.166666507720947Q19.999999507720947,20.092976207720948,20.007222507720947,20.019640507720947Q20.014445507720946,19.946305507720947,20.02882150772095,19.874031507720947Q20.04319850772095,19.80175650772095,20.064589507720946,19.731239507720947Q20.085980507720947,19.660722507720948,20.114180507720945,19.59264150772095Q20.142380507720947,19.52456050772095,20.177116507720946,19.45957150772095Q20.21185650772095,19.394582507720948,20.252796507720948,19.333311507720946Q20.293736507720947,19.272039507720947,20.340486507720946,19.215076507720948Q20.387236507720946,19.158116507720948,20.43933650772095,19.10600650772095Q20.491446507720948,19.053896507720946,20.548406507720948,19.007146507720947Q20.605376507720948,18.960406507720947,20.666646507720948,18.919466507720948Q20.72791650772095,18.87852650772095,20.792906507720947,18.843786507720946Q20.857896507720948,18.809046507720947,20.925976507720947,18.78084650772095Q20.99405650772095,18.752646507720947,21.064576507720947,18.731256507720946Q21.13508650772095,18.709866507720946,21.20736650772095,18.695486507720947Q21.279636507720948,18.681116507720947,21.352976507720946,18.673886507720947Q21.42630650772095,18.666666507720947,21.499996507720947,18.666666507720947Q21.573686507720947,18.666666507720947,21.64702650772095,18.673886507720947Q21.720356507720947,18.681116507720947,21.792636507720946,18.695486507720947Q21.864906507720946,18.709866507720946,21.935426507720948,18.731256507720946Q22.005946507720946,18.752646507720947,22.074026507720948,18.78084650772095Q22.142106507720946,18.809046507720947,22.207096507720948,18.843786507720946Q22.272086507720946,18.87852650772095,22.333356507720946,18.919466507720948Q22.394626507720947,18.960406507720947,22.451586507720947,19.007146507720947Q22.508556507720947,19.053896507720946,22.560656507720946,19.10600650772095Q22.61276650772095,19.158116507720948,22.659516507720948,19.215076507720948Q22.706266507720947,19.272039507720947,22.747206507720946,19.333311507720946Q22.788146507720946,19.394582507720948,22.82287650772095,19.45957150772095Q22.857616507720948,19.52456050772095,22.885816507720946,19.59264150772095Q22.914016507720948,19.660722507720948,22.93540650772095,19.731239507720947Q22.95679650772095,19.80175650772095,22.971176507720948,19.874031507720947Q22.985556507720947,19.946305507720947,22.992776507720947,20.019640507720947Q22.999996507720947,20.092976207720948,22.999996507720947,20.166666507720947L22.999996507720947,20.16751223572095Z" fill-rule="evenodd" fill="#FFFFFF" fill-opacity="1"/></g><g><path d="M19.16726452772095,17L19.166666507720947,17Q19.092976207720948,17,19.019640507720947,16.99278Q18.946305507720947,16.98555,18.874031507720947,16.97118Q18.80175650772095,16.9568,18.731239507720947,16.93541Q18.660722507720948,16.91402,18.59264150772095,16.88582Q18.52456050772095,16.85762,18.45957150772095,16.82288Q18.394582507720948,16.78814,18.333311507720946,16.7472Q18.272039507720947,16.70626,18.215076507720948,16.65952Q18.158116507720948,16.61277,18.10600650772095,16.56066Q18.053896507720946,16.50855,18.007146507720947,16.45159Q17.960406507720947,16.394627,17.919466507720948,16.333355Q17.87852650772095,16.272084,17.843786507720946,16.207095Q17.809046507720947,16.142106,17.78084650772095,16.074025Q17.752646507720947,16.005944,17.731256507720946,15.935427Q17.709866507720946,15.86491,17.695486507720947,15.792635Q17.681116507720947,15.720361,17.673886507720947,15.647026Q17.666666507720947,15.5736903,17.666666507720947,15.5Q17.666666507720947,15.4263097,17.673886507720947,15.352974Q17.681116507720947,15.279639,17.695486507720947,15.207365Q17.709866507720946,15.13509,17.731256507720946,15.064573Q17.752646507720947,14.994056,17.78084650772095,14.925975Q17.809046507720947,14.857894,17.843786507720946,14.792905Q17.87852650772095,14.727916,17.919466507720948,14.666645Q17.960406507720947,14.605373,18.007146507720947,14.54841Q18.053896507720946,14.49145,18.10600650772095,14.43934Q18.158116507720948,14.38723,18.215076507720948,14.34048Q18.272039507720947,14.29374,18.333311507720946,14.2528Q18.394582507720948,14.21186,18.45957150772095,14.17712Q18.52456050772095,14.14238,18.59264150772095,14.11418Q18.660722507720948,14.08598,18.731239507720947,14.064589999999999Q18.80175650772095,14.0432,18.874031507720947,14.02882Q18.946305507720947,14.01445,19.019640507720947,14.00722Q19.092976207720948,14,19.166666507720947,14L19.16726452772095,14L21.499996507720947,14Q21.573686507720947,14,21.64702650772095,14.00722Q21.720356507720947,14.01445,21.792636507720946,14.02882Q21.864906507720946,14.0432,21.935426507720948,14.064589999999999Q22.005946507720946,14.08598,22.074026507720948,14.11418Q22.142106507720946,14.14238,22.207096507720948,14.17712Q22.272086507720946,14.21186,22.333356507720946,14.2528Q22.394626507720947,14.29374,22.451586507720947,14.34048Q22.508556507720947,14.38723,22.560656507720946,14.43934Q22.61276650772095,14.49145,22.659516507720948,14.54841Q22.706266507720947,14.605373,22.747206507720946,14.666645Q22.788146507720946,14.727916,22.82287650772095,14.792905Q22.857616507720948,14.857894,22.885816507720946,14.925975Q22.914016507720948,14.994056,22.93540650772095,15.064573Q22.95679650772095,15.13509,22.971176507720948,15.207365Q22.985556507720947,15.279639,22.992776507720947,15.352974Q22.999996507720947,15.4263097,22.999996507720947,15.5L22.999996507720947,17.83333Q22.999996507720947,17.90702,22.992776507720947,17.98036Q22.985556507720947,18.05369,22.971176507720948,18.12597Q22.95679650772095,18.19824,22.93540650772095,18.26876Q22.914016507720948,18.33928,22.885816507720946,18.40736Q22.857616507720948,18.47544,22.82287650772095,18.54043Q22.788146507720946,18.60542,22.747206507720946,18.66669Q22.706266507720947,18.72796,22.659516507720948,18.78492Q22.61276650772095,18.84189,22.560656507720946,18.89399Q22.508556507720947,18.9461,22.451586507720947,18.99285Q22.394626507720947,19.0396,22.333356507720946,19.08054Q22.272086507720946,19.12148,22.207096507720948,19.15621Q22.142106507720946,19.19095,22.074026507720948,19.21915Q22.005946507720946,19.24735,21.935426507720948,19.26874Q21.864906507720946,19.29013,21.792636507720946,19.30451Q21.720356507720947,19.31889,21.64702650772095,19.32611Q21.573686507720947,19.33333,21.499996507720947,19.33333Q21.42630650772095,19.33333,21.352976507720946,19.32611Q21.279636507720948,19.31889,21.20736650772095,19.30451Q21.13508650772095,19.29013,21.064576507720947,19.26874Q20.99405650772095,19.24735,20.925976507720947,19.21915Q20.857896507720948,19.19095,20.792906507720947,19.15621Q20.72791650772095,19.12148,20.666646507720948,19.08054Q20.605376507720948,19.0396,20.548406507720948,18.99285Q20.491446507720948,18.9461,20.43933650772095,18.89399Q20.387236507720946,18.84189,20.340486507720946,18.78492Q20.293736507720947,18.72796,20.252796507720948,18.66669Q20.21185650772095,18.60542,20.177116507720946,18.54043Q20.142380507720947,18.47544,20.114180507720945,18.40736Q20.085980507720947,18.33928,20.064589507720946,18.26876Q20.04319850772095,18.19824,20.02882150772095,18.12597Q20.014445507720946,18.05369,20.007222507720947,17.98036Q19.999999507720947,17.90702,19.999999507720947,17.83333L19.999999507720947,17.83291L19.999999507720947,17L19.16726452772095,17Z" fill-rule="evenodd" fill="#FFFFFF" fill-opacity="1"/></g><g><path d="M22.56066,16.56066Q22.66512,16.456195,22.7472,16.333356Q22.82928,16.210517,22.885820000000002,16.074025Q22.94236,15.937534,22.97118,15.792636Q23,15.647737,23,15.5Q23,15.4263097,22.99278,15.352974Q22.98555,15.279639,22.97118,15.207365Q22.9568,15.13509,22.935409999999997,15.064573Q22.91402,14.994056,22.885820000000002,14.925975Q22.85762,14.857894,22.822879999999998,14.792905Q22.78814,14.727916,22.7472,14.666645Q22.70626,14.605373,22.65952,14.54841Q22.612769999999998,14.49145,22.56066,14.43934Q22.50855,14.38723,22.45159,14.34048Q22.39463,14.29374,22.33335,14.2528Q22.27208,14.21186,22.20709,14.17712Q22.14211,14.14238,22.07402,14.11418Q22.00594,14.08598,21.93543,14.064589999999999Q21.864910000000002,14.0432,21.79263,14.02882Q21.72036,14.01445,21.64703,14.00722Q21.57369,14,21.5,14Q21.35226,14,21.20736,14.02882Q21.06247,14.05764,20.92597,14.11418Q20.78948,14.17072,20.66664,14.2528Q20.54381,14.33487,20.43934,14.43934L13.43934,21.43934Q13.33487,21.54381,13.2528,21.66664Q13.17072,21.78948,13.11418,21.92597Q13.05764,22.06247,13.02882,22.20736Q13,22.35226,13,22.5Q13,22.57369,13.00722,22.64703Q13.01445,22.72036,13.02882,22.79263Q13.0432,22.864910000000002,13.064589999999999,22.93543Q13.08598,23.00594,13.11418,23.07402Q13.14238,23.14211,13.17712,23.20709Q13.21186,23.27208,13.2528,23.33335Q13.29374,23.39463,13.34048,23.45159Q13.38723,23.50855,13.43934,23.56066Q13.49145,23.612769999999998,13.54841,23.65952Q13.605373,23.70626,13.666645,23.7472Q13.727916,23.78814,13.792905,23.822879999999998Q13.857894,23.85762,13.925975,23.885820000000002Q13.994056,23.91402,14.064573,23.935409999999997Q14.13509,23.9568,14.207365,23.97118Q14.279639,23.98555,14.352974,23.99278Q14.4263097,24,14.5,24Q14.647737,24,14.792636,23.97118Q14.937534,23.94236,15.074025,23.885820000000002Q15.210517,23.82928,15.333356,23.7472Q15.456195,23.66512,15.56066,23.56066L15.56158,23.559739999999998L22.559739999999998,16.56158L22.56066,16.56066L22.56066,16.56066Z" fill-rule="evenodd" fill="#FFFFFF" fill-opacity="1"/></g><g><path d="M13.43934,14.43934Q13.38723,14.49145,13.34048,14.54841Q13.29374,14.605373,13.2528,14.666645Q13.21186,14.727916,13.17712,14.792905Q13.14238,14.857894,13.11418,14.925975Q13.08598,14.994056,13.064589999999999,15.064573Q13.0432,15.13509,13.02882,15.207365Q13.01445,15.279639,13.00722,15.352974Q13,15.4263097,13,15.5Q13,15.5736903,13.00722,15.647026Q13.01445,15.720361,13.02882,15.792635Q13.0432,15.86491,13.064589999999999,15.935427Q13.08598,16.005944,13.11418,16.074025Q13.14238,16.142106,13.17712,16.207095Q13.21186,16.272084,13.2528,16.333355Q13.29374,16.394627,13.34048,16.45159Q13.38723,16.50855,13.43934,16.56066L16.93934,20.06066Q17.04014,20.161459999999998,17.15812,20.24147Q17.2761,20.321469999999998,17.40704,20.37782Q17.53798,20.43417,17.67719,20.46485Q17.8164,20.49553,17.9589,20.49944Q17.9628,20.641930000000002,17.993479999999998,20.78114Q18.024160000000002,20.92035,18.08051,21.05129Q18.13686,21.18223,18.21687,21.30021Q18.29687,21.41819,18.39767,21.51899L18.39826,21.51958L19.85601,22.977330000000002L20.34212,23.46344L20.43857,23.55989L20.43934,23.56066Q20.54381,23.66512,20.66664,23.7472Q20.78948,23.82928,20.92597,23.885820000000002Q21.06247,23.94236,21.20736,23.97118Q21.35226,24,21.5,24Q21.57369,24,21.64703,23.99278Q21.72036,23.98555,21.79263,23.97118Q21.864910000000002,23.9568,21.93543,23.935409999999997Q22.00594,23.91402,22.07402,23.885820000000002Q22.14211,23.85762,22.20709,23.822879999999998Q22.27208,23.78814,22.33335,23.7472Q22.39463,23.70626,22.45159,23.65952Q22.50855,23.612769999999998,22.56066,23.56066Q22.612769999999998,23.50855,22.65952,23.45159Q22.70626,23.39463,22.7472,23.33335Q22.78814,23.27208,22.822879999999998,23.20709Q22.85762,23.14211,22.885820000000002,23.07402Q22.91402,23.00594,22.935409999999997,22.93543Q22.9568,22.864910000000002,22.97118,22.79263Q22.98555,22.72036,22.99278,22.64703Q23,22.57369,23,22.5Q23,22.35226,22.97118,22.20736Q22.94236,22.06247,22.885820000000002,21.92597Q22.82928,21.78948,22.7472,21.66664Q22.66512,21.5438,22.56066,21.43934L22.55989,21.43857L22.46344,21.34212L21.977330000000002,20.85601L20.51958,19.39826L20.51899,19.39767Q20.41819,19.29687,20.30021,19.21687Q20.18223,19.13686,20.05129,19.08051Q19.92035,19.024160000000002,19.78114,18.993479999999998Q19.641930000000002,18.9628,19.49943,18.9589Q19.49553,18.8164,19.46485,18.67719Q19.43417,18.53798,19.37782,18.40704Q19.321469999999998,18.2761,19.24147,18.15812Q19.161459999999998,18.04014,19.06066,17.93934L15.56066,14.43934Q15.50855,14.38723,15.45159,14.34048Q15.394627,14.29374,15.333355,14.2528Q15.272084,14.21186,15.207095,14.17712Q15.142106,14.14238,15.074025,14.11418Q15.005944,14.08598,14.935427,14.064589999999999Q14.86491,14.0432,14.792635,14.02882Q14.720361,14.01445,14.647026,14.00722Q14.5736903,14,14.5,14Q14.4263097,14,14.352974,14.00722Q14.279639,14.01445,14.207365,14.02882Q14.13509,14.0432,14.064573,14.064589999999999Q13.994056,14.08598,13.925975,14.11418Q13.857894,14.14238,13.792905,14.17712Q13.727916,14.21186,13.666645,14.2528Q13.605373,14.29374,13.54841,14.34048Q13.49145,14.38723,13.43934,14.43934Z" fill-rule="evenodd" fill="#FFFFFF" fill-opacity="1"/></g></g><g><g><path d="M20.999996507720947,20.166666507720947Q20.999996507720947,20.117420807720947,21.009606507720946,20.069121407720946Q21.019216507720948,20.020821507720946,21.03805650772095,19.97532450772095Q21.056906507720946,19.929827507720947,21.084266507720947,19.888881507720946Q21.11162650772095,19.847935507720948,21.14644650772095,19.813113507720946Q21.18126650772095,19.778291507720947,21.222216507720947,19.750931507720946Q21.263156507720947,19.72357250772095,21.308656507720947,19.70472650772095Q21.354156507720948,19.685881507720946,21.40245650772095,19.676273507720946Q21.450756507720946,19.666666507720947,21.499996507720947,19.666666507720947Q21.549246507720948,19.666666507720947,21.59754650772095,19.676273507720946Q21.645846507720947,19.685881507720946,21.691336507720948,19.70472650772095Q21.736836507720948,19.72357250772095,21.777786507720947,19.750931507720946Q21.818726507720946,19.778291507720947,21.853556507720945,19.813113507720946Q21.88837650772095,19.847935507720948,21.915736507720947,19.888881507720946Q21.94309650772095,19.929827507720947,21.961936507720946,19.97532450772095Q21.980786507720946,20.020821507720946,21.99039650772095,20.069121407720946Q21.999996507720947,20.117420807720947,21.999996507720947,20.166666507720947L21.999996507720947,22.499996507720947Q21.999996507720947,22.549246507720948,21.99039650772095,22.59754650772095Q21.980786507720946,22.645846507720947,21.961936507720946,22.691336507720948Q21.94309650772095,22.736836507720948,21.915736507720947,22.777786507720947Q21.88837650772095,22.818726507720946,21.853556507720945,22.853556507720945Q21.818726507720946,22.88837650772095,21.777786507720947,22.915736507720947Q21.736836507720948,22.94309650772095,21.691336507720948,22.961936507720946Q21.645846507720947,22.980786507720946,21.59754650772095,22.99039650772095Q21.549246507720948,22.999996507720947,21.499996507720947,22.999996507720947L19.166666507720947,22.999996507720947Q19.117420807720947,22.999996507720947,19.069121407720946,22.99039650772095Q19.020821507720946,22.980786507720946,18.97532450772095,22.961936507720946Q18.929827507720947,22.94309650772095,18.888881507720946,22.915736507720947Q18.847935507720948,22.88837650772095,18.813113507720946,22.853556507720945Q18.778291507720947,22.818726507720946,18.750931507720946,22.777786507720947Q18.72357250772095,22.736836507720948,18.70472650772095,22.691336507720948Q18.685881507720946,22.645846507720947,18.676273507720946,22.59754650772095Q18.666666507720947,22.549246507720948,18.666666507720947,22.499996507720947Q18.666666507720947,22.450756507720946,18.676273507720946,22.40245650772095Q18.685881507720946,22.354156507720948,18.70472650772095,22.308656507720947Q18.72357250772095,22.263156507720947,18.750931507720946,22.222216507720947Q18.778291507720947,22.18126650772095,18.813113507720946,22.14644650772095Q18.847935507720948,22.11162650772095,18.888881507720946,22.084266507720947Q18.929827507720947,22.056906507720946,18.97532450772095,22.03805650772095Q19.020821507720946,22.019216507720948,19.069121407720946,22.009606507720946Q19.117420807720947,21.999996507720947,19.166666507720947,21.999996507720947L20.999996507720947,21.999996507720947L20.999996507720947,20.166666507720947Z" fill-rule="evenodd" fill="#D25F00" fill-opacity="1"/></g><g><path d="M19.166666507720947,15L21.499996507720947,15Q21.549246507720948,15,21.59754650772095,15.009607Q21.645846507720947,15.019214999999999,21.691336507720948,15.03806Q21.736836507720948,15.056906,21.777786507720947,15.084265Q21.818726507720946,15.111625,21.853556507720945,15.146447Q21.88837650772095,15.181269,21.915736507720947,15.222215Q21.94309650772095,15.263161,21.961936507720946,15.308658Q21.980786507720946,15.354155,21.99039650772095,15.4024549Q21.999996507720947,15.4507543,21.999996507720947,15.5L21.999996507720947,17.83333Q21.999996507720947,17.88258,21.99039650772095,17.930880000000002Q21.980786507720946,17.97918,21.961936507720946,18.02467Q21.94309650772095,18.07017,21.915736507720947,18.11112Q21.88837650772095,18.15206,21.853556507720945,18.18689Q21.818726507720946,18.22171,21.777786507720947,18.24907Q21.736836507720948,18.27643,21.691336507720948,18.29527Q21.645846507720947,18.31412,21.59754650772095,18.32373Q21.549246507720948,18.33333,21.499996507720947,18.33333Q21.450756507720946,18.33333,21.40245650772095,18.32373Q21.354156507720948,18.31412,21.308656507720947,18.29527Q21.263156507720947,18.27643,21.222216507720947,18.24907Q21.18126650772095,18.22171,21.14644650772095,18.18689Q21.11162650772095,18.15206,21.084266507720947,18.11112Q21.056906507720946,18.07017,21.03805650772095,18.02467Q21.019216507720948,17.97918,21.009606507720946,17.930880000000002Q20.999996507720947,17.88258,20.999996507720947,17.83333L20.999996507720947,16L19.166666507720947,16Q19.117420807720947,16,19.069121407720946,15.990393Q19.020821507720946,15.980785000000001,18.97532450772095,15.96194Q18.929827507720947,15.943094,18.888881507720946,15.915735Q18.847935507720948,15.888375,18.813113507720946,15.853553Q18.778291507720947,15.818731,18.750931507720946,15.777785Q18.72357250772095,15.736839,18.70472650772095,15.691342Q18.685881507720946,15.645845,18.676273507720946,15.5975451Q18.666666507720947,15.5492457,18.666666507720947,15.5Q18.666666507720947,15.4507543,18.676273507720946,15.4024549Q18.685881507720946,15.354155,18.70472650772095,15.308658Q18.72357250772095,15.263161,18.750931507720946,15.222215Q18.778291507720947,15.181269,18.813113507720946,15.146447Q18.847935507720948,15.111625,18.888881507720946,15.084265Q18.929827507720947,15.056906,18.97532450772095,15.03806Q19.020821507720946,15.019214999999999,19.069121407720946,15.009607Q19.117420807720947,15,19.166666507720947,15Z" fill-rule="evenodd" fill="#D25F00" fill-opacity="1"/></g><g><path d="M21.85355,15.853553Q21.92388,15.783227,21.96194,15.691342Q22,15.5994562,22,15.5Q22,15.4507543,21.990389999999998,15.4024549Q21.98078,15.354155,21.96194,15.308658Q21.943089999999998,15.263161,21.91573,15.222215Q21.888370000000002,15.181269,21.85355,15.146447Q21.818730000000002,15.111625,21.77778,15.084265Q21.73684,15.056906,21.69134,15.03806Q21.64584,15.019214999999999,21.597540000000002,15.009607Q21.54925,15,21.5,15Q21.40054,15,21.30866,15.03806Q21.21677,15.076121,21.14645,15.146447L14.146447,22.14645Q14.07612,22.21677,14.03806,22.30866Q14,22.40054,14,22.5Q14,22.54925,14.009607,22.597540000000002Q14.019214999999999,22.64584,14.03806,22.69134Q14.056906,22.73684,14.084265,22.77778Q14.111625,22.818730000000002,14.146447,22.85355Q14.181269,22.888370000000002,14.222215,22.91573Q14.263161,22.943089999999998,14.308658,22.96194Q14.354155,22.98078,14.4024549,22.990389999999998Q14.4507543,23,14.5,23Q14.5994562,23,14.691342,22.96194Q14.783227,22.92388,14.853553,22.85355L14.853767,22.85334L21.85334,15.853767L21.85355,15.853553L21.85355,15.853553Z" fill-rule="evenodd" fill="#D25F00" fill-opacity="1"/></g><g><path d="M14.146447,15.146447Q14.111625,15.181269,14.084265,15.222215Q14.056906,15.263161,14.03806,15.308658Q14.019214999999999,15.354155,14.009607,15.4024549Q14,15.4507543,14,15.5Q14,15.5492457,14.009607,15.5975451Q14.019214999999999,15.645845,14.03806,15.691342Q14.056906,15.736839,14.084265,15.777785Q14.111625,15.818731,14.146447,15.853553L17.64645,19.35355Q17.71677,19.42388,17.80866,19.46194Q17.90054,19.5,18,19.5Q18.09946,19.5,18.19134,19.46194Q18.28323,19.42388,18.35355,19.35355Q18.42388,19.28323,18.46194,19.19134Q18.5,19.09946,18.5,19Q18.5,18.90054,18.46194,18.80866Q18.42388,18.71677,18.35355,18.64645L14.853553,15.146447Q14.818731,15.111625,14.777785,15.084265Q14.736839,15.056906,14.691342,15.03806Q14.645845,15.019214999999999,14.5975451,15.009607Q14.5492457,15,14.5,15Q14.4507543,15,14.4024549,15.009607Q14.354155,15.019214999999999,14.308658,15.03806Q14.263161,15.056906,14.222215,15.084265Q14.181269,15.111625,14.146447,15.146447ZM19.81237,20.10527L19.81189,20.104779999999998Q19.74156,20.03445,19.64967,19.996389999999998Q19.55779,19.95833,19.45833,19.95833Q19.40909,19.95833,19.36079,19.96794Q19.31249,19.97755,19.26699,19.996389999999998Q19.22149,20.01524,19.18055,20.0426Q19.1396,20.069960000000002,19.104779999999998,20.104779999999998Q19.069960000000002,20.1396,19.0426,20.18055Q19.01524,20.22149,18.996389999999998,20.26699Q18.97755,20.31249,18.96794,20.36079Q18.95833,20.40909,18.95833,20.45833Q18.95833,20.55779,18.996389999999998,20.64967Q19.03445,20.74156,19.104779999999998,20.81189L19.10527,20.81237L19.59089,21.298000000000002L21.04922,22.75633L21.14645,22.85355Q21.21677,22.92388,21.30866,22.96194Q21.40054,23,21.5,23Q21.54925,23,21.597540000000002,22.990389999999998Q21.64584,22.98078,21.69134,22.96194Q21.73684,22.943089999999998,21.77778,22.91573Q21.818730000000002,22.888370000000002,21.85355,22.85355Q21.888370000000002,22.818730000000002,21.91573,22.77778Q21.943089999999998,22.73684,21.96194,22.69134Q21.98078,22.64584,21.990389999999998,22.597540000000002Q22,22.54925,22,22.5Q22,22.40054,21.96194,22.30866Q21.92388,22.21677,21.85355,22.14645L21.75633,22.04922L20.298000000000002,20.59089L19.81237,20.10527Z" fill-rule="evenodd" fill="#D25F00" fill-opacity="1"/></g></g></g></svg>