<svg xmlns="http://www.w3.org/2000/svg" xmlns:xlink="http://www.w3.org/1999/xlink" fill="none" version="1.1" width="24" height="24" viewBox="0 0 24 24"><defs><clipPath id="master_svg0_732_40938"><rect x="0" y="0" width="24" height="24" rx="0"/></clipPath></defs><g clip-path="url(#master_svg0_732_40938)"><g><path d="M5.507000085830688,4.048C6.076990085830689,3.382835,6.909140085830689,3,7.7850000858306885,3L16.215000085830688,3C17.09090008583069,3.000026226,17.92310008583069,3.382862,18.493000085830687,4.048L20.215000085830688,6.056C19.97850008583069,6.01848,19.739400085830688,5.999750000000001,19.50000008583069,6L4.500000085830688,6C4.257000085830688,6,4.018000085830688,6.02,3.7850000858306885,6.056L5.507000085830688,4.048Z" fill="#7BC0FC" fill-opacity="1"/></g><g><path d="M1.5,10.5C1.5,8.84315,2.84315,7.5,4.5,7.5L19.5,7.5C21.1569,7.5,22.5,8.84315,22.5,10.5C22.5,12.15685,21.1569,13.5,19.5,13.5L4.5,13.5C2.84315,13.5,1.5,12.15685,1.5,10.5ZM6.5,10.5C6.5,10.91421,6.16421,11.25,5.75,11.25C5.335789999999999,11.25,5,10.91421,5,10.5C5,10.08579,5.335789999999999,9.75,5.75,9.75C6.16421,9.75,6.5,10.08579,6.5,10.5ZM8.75,11.25C9.16421,11.25,9.5,10.91421,9.5,10.5C9.5,10.08579,9.16421,9.75,8.75,9.75C8.33579,9.75,8,10.08579,8,10.5C8,10.91421,8.33579,11.25,8.75,11.25ZM4.5,15C2.84315,15,1.5,16.34315,1.5,18C1.5,19.6569,2.84315,21,4.5,21L19.5,21C21.1569,21,22.5,19.6569,22.5,18C22.5,16.34315,21.1569,15,19.5,15L4.5,15ZM5.75,18.75C6.16421,18.75,6.5,18.4142,6.5,18C6.5,17.5858,6.16421,17.25,5.75,17.25C5.335789999999999,17.25,5,17.5858,5,18C5,18.4142,5.335789999999999,18.75,5.75,18.75ZM9.5,18C9.5,18.4142,9.16421,18.75,8.75,18.75C8.33579,18.75,8,18.4142,8,18C8,17.5858,8.33579,17.25,8.75,17.25C9.16421,17.25,9.5,17.5858,9.5,18Z" fill-rule="evenodd" fill="#165DFF" fill-opacity="1"/></g><g><g><path d="M18.791868139381407,23.939204589996336Q20.36727813938141,23.939204589996336,21.603718139381407,22.966884589996337L19.74925813938141,20.60870458999634Q19.32898813938141,20.939208589996337,18.791868139381407,20.939208589996337Q18.25474813938141,20.939208589996337,17.83447313938141,20.60870458999634L15.98002213938141,22.966884589996337Q17.21646113938141,23.939204589996336,18.791868139381407,23.939204589996336Z" fill-rule="evenodd" fill="#FFFFFF" fill-opacity="1"/></g><g><path d="M14.24057850241661,19.387916980438234Q14.24057850241661,20.146666980438233,14.48438850241661,20.86014698043823L17.323218502416612,19.89005698043823Q17.24057850241661,19.64822698043823,17.24057850241661,19.387916980438234Q17.24057850241661,18.87026698043823,17.54954850241661,18.45855698043823Q17.854468502416612,18.05222698043823,18.33500850241661,17.904576980438232L17.45385850241661,15.036896980438232Q16.04063050241661,15.471139980438233,15.150055502416611,16.657876980438232Q14.24057850241661,17.86979698043823,14.24057850241661,19.387916980438234Z" fill-rule="evenodd" fill="#FFFFFF" fill-opacity="1"/></g><g><path d="M20.343157259155273,19.387916980438234Q20.343157259155273,19.64822698043823,20.260518259155273,19.89005698043823L23.099346259155272,20.86014698043823Q23.343156259155272,20.146656980438234,23.343156259155272,19.387916980438234Q23.343156259155272,17.869806980438234,22.433676259155273,16.657876980438232Q21.543106259155273,15.471139980438233,20.129883259155275,15.036896980438232L19.248730259155273,17.904576980438232Q19.729267059155273,18.05222698043823,20.034187259155274,18.45855698043823Q20.343157259155273,18.87026698043823,20.343157259155273,19.387916980438234Z" fill-rule="evenodd" fill="#FFFFFF" fill-opacity="1"/></g><g><path d="M22.202137080078124,21.182813118255616C22.202137080078124,21.423615118255615,22.107287080078123,21.642245118255616,21.952947080078125,21.803425118255614C21.789577080078125,21.974035118255614,21.559547080078126,22.080255118255614,21.304695080078126,22.080255118255614C20.809058080078124,22.080255118255614,20.407257080078125,21.678445118255617,20.407257080078125,21.182813118255616C20.407257080078125,20.822025118255617,20.620147080078127,20.510973118255617,20.927179080078126,20.368406218255615C21.041925080078126,20.315116418255617,21.169846080078123,20.285375118255615,21.304695080078126,20.285375118255615C21.800327080078127,20.285375118255615,22.202137080078124,20.687176118255614,22.202137080078124,21.182813118255616Z" fill="#FFFFFF" fill-opacity="1"/><path d="M22.999937080078126,19.487570118255615Q22.297747080078125,18.785375118255615,21.304695080078126,18.785375118255615Q20.774647080078125,18.785375118255615,20.295452080078125,19.007925118255613Q19.671050080078125,19.297855118255615,19.295057080078124,19.875302118255615Q18.907257080078125,20.470894118255615,18.907257080078125,21.182813118255616Q18.907257080078125,22.175865118255615,19.609452080078125,22.878055118255617Q20.311647280078127,23.580255118255614,21.304695080078126,23.580255118255614Q22.328297080078126,23.580255118255614,23.036347080078126,22.840855118255615Q23.702137080078124,22.145565118255615,23.702137080078124,21.182813118255616Q23.702137080078124,20.189765118255615,22.999937080078126,19.487570118255615ZM21.558907080078125,21.728895118255615Q21.437287080078125,21.785375118255615,21.304695080078126,21.785375118255615Q21.055102080078125,21.785375118255615,20.878618080078127,21.608895118255614Q20.702133080078124,21.432405118255616,20.702133080078124,21.182813118255616Q20.702133080078124,20.940839118255614,20.869558080078125,20.765997118255616Q21.047428080078124,20.580251118255614,21.304695080078126,20.580251118255614Q21.554287080078126,20.580251118255614,21.730777080078123,20.756736118255617Q21.907257080078125,20.933221118255616,21.907257080078125,21.182814118255614Q21.907257080078125,21.567135118255614,21.558907080078125,21.728895118255615Z" fill-rule="evenodd" fill="#FFFFFF" fill-opacity="1"/></g><g><path d="M17.176483240966796,21.182813118255616C17.176483240966796,21.423615118255615,17.081633240966795,21.642245118255616,16.927293240966797,21.803425118255614C16.763923240966797,21.974035118255614,16.533893240966798,22.080255118255614,16.279041240966798,22.080255118255614C15.783400240966797,22.080255118255614,15.381603240966797,21.678445118255617,15.381603240966797,21.182813118255616C15.381603240966797,20.822025118255617,15.594500240966797,20.510973118255617,15.901519240966797,20.368406218255615C16.016279240966796,20.315116418255617,16.144187240966797,20.285375118255615,16.279041240966798,20.285375118255615C16.774683240966798,20.285375118255615,17.176483240966796,20.687176118255614,17.176483240966796,21.182813118255616Z" fill="#FFFFFF" fill-opacity="1"/><path d="M17.9742832409668,19.487570118255615Q17.272093240966797,18.785375118255615,16.279041240966798,18.785375118255615Q15.749042240966796,18.785375118255615,15.269770240966796,19.007935118255617Q14.645391240966797,19.297867118255617,14.269413240966797,19.875301118255614Q13.881603240966797,20.470896118255617,13.881603240966797,21.182813118255616Q13.881603240966797,22.175865118255615,14.583795240966797,22.878055118255617Q15.285990040966796,23.580255118255614,16.279041240966798,23.580255118255614Q17.3026432409668,23.580255118255614,18.0106932409668,22.840855118255615Q18.676483240966796,22.145565118255615,18.676483240966796,21.182813118255616Q18.676483240966796,20.189765718255615,17.9742832409668,19.487570118255615ZM16.533273240966796,21.728885118255615Q16.411613240966798,21.785375118255615,16.279041240966798,21.785375118255615Q16.029449240966798,21.785375118255615,15.852964240966797,21.608895118255614Q15.676479240966797,21.432405118255616,15.676479240966797,21.182813118255616Q15.676479240966797,20.940840118255615,15.843904240966797,20.765998118255617Q16.021775240966797,20.580251118255614,16.279041240966798,20.580251118255614Q16.528633240966798,20.580251118255614,16.705123240966795,20.756738118255615Q16.881603240966797,20.933223118255615,16.881603240966797,21.182814118255614Q16.881603240966797,21.567125118255614,16.533273240966796,21.728885118255615Z" fill-rule="evenodd" fill="#FFFFFF" fill-opacity="1"/></g><g><path d="M19.68931016052246,16.336646984375C19.68931016052246,16.577448984375,19.59446016052246,16.796078984375,19.44012016052246,16.957258984375C19.27675016052246,17.127868984375,19.04672016052246,17.234088984375,18.791868160522462,17.234088984375C18.29623116052246,17.234088984375,17.89443016052246,16.832288984375,17.89443016052246,16.336646984375C17.89443016052246,15.975860984375,18.107320160522463,15.664799984375,18.414352160522462,15.522239984375C18.529098160522462,15.468953684375,18.65701916052246,15.439208984375,18.791868160522462,15.439208984375C19.287510160522462,15.439208984375,19.68931016052246,15.841005984375,19.68931016052246,16.336646984375Z" fill="#FFFFFF" fill-opacity="1"/><path d="M20.487110160522462,14.641400984375Q19.78492016052246,13.939208984375,18.791868160522462,13.939208984375Q18.261852160522462,13.939208984375,17.78265016052246,14.161738984374999Q17.15823016052246,14.451670984375,16.78223016052246,15.029138984375Q16.39443016052246,15.624731984375,16.39443016052246,16.336646984375Q16.39443016052246,17.329698984375,17.09662516052246,18.031888984375Q17.79881996052246,18.734088984375,18.791868160522462,18.734088984375Q19.815470160522462,18.734088984375,20.523520160522462,17.994688984375Q21.18931016052246,17.299398984375,21.18931016052246,16.336646984375Q21.18931016052246,15.343595784375,20.487110160522462,14.641400984375ZM19.046050160522462,16.882738984375Q18.92445016052246,16.939208984375,18.791868160522462,16.939208984375Q18.54227716052246,16.939208984375,18.36579216052246,16.762728984375Q18.18930616052246,16.586238984375,18.18930616052246,16.336646984375Q18.18930616052246,16.094673984375,18.35673016052246,15.919831984375Q18.53460216052246,15.734084984375,18.791868160522462,15.734084984375Q19.041460160522462,15.734084984375,19.21795016052246,15.910569984375Q19.39443016052246,16.087054984375,19.39443016052246,16.336646984375Q19.39443016052246,16.720978984375,19.046050160522462,16.882738984375Z" fill-rule="evenodd" fill="#FFFFFF" fill-opacity="1"/></g></g><g><g><path d="M18.791868139381407,22.939204589996336Q20.02117813938141,22.939204589996336,20.985568139381407,22.180824589996337L20.36741813938141,21.39476458999634Q19.67507813938141,21.939208589996337,18.791868139381407,21.939208589996337Q17.90865813938141,21.939208589996337,17.21632313938141,21.39476458999634L16.59817313938141,22.180824589996337Q17.56255813938141,22.939204589996336,18.791868139381407,22.939204589996336Z" fill-rule="evenodd" fill="#7BC0FC" fill-opacity="1"/></g><g><path d="M15.24057850241661,19.387916980438234Q15.24057850241661,19.98051698043823,15.430667502416611,20.536786980438233L16.37694150241661,20.213416980438232Q16.24057850241661,19.814376980438233,16.24057850241661,19.387916980438234Q16.24057850241661,18.536776980438233,16.74971850241661,17.858326980438232Q17.24985850241661,17.19186698043823,18.04128850241661,16.94868298043823L17.747568502416613,15.992790980438233Q16.645243502416612,16.33150398043823,15.94988650241661,17.258101980438234Q15.24057850241661,18.203286980438232,15.24057850241661,19.387916980438234Z" fill-rule="evenodd" fill="#7BC0FC" fill-opacity="1"/></g><g><path d="M21.343156259155272,19.387916980438234Q21.343156259155272,19.814366980438233,21.206796259155272,20.213416980438232L22.153066259155274,20.536776980438233Q22.343156259155272,19.980506980438232,22.343156259155272,19.387916980438234Q22.343156259155272,18.203296980438232,21.633846259155273,17.258101980438234Q20.938496259155272,16.33150398043823,19.836165259155273,15.992790980438233L19.54244825915527,16.94868298043823Q20.333880259155272,17.19186698043823,20.834016259155273,17.858326980438232Q21.343156259155272,18.536776980438233,21.343156259155272,19.387916980438234Z" fill-rule="evenodd" fill="#7BC0FC" fill-opacity="1"/></g><g><path d="M22.202137080078124,21.182813118255616C22.202137080078124,21.423615118255615,22.107287080078123,21.642245118255616,21.952947080078125,21.803425118255614C21.789577080078125,21.974035118255614,21.559547080078126,22.080255118255614,21.304695080078126,22.080255118255614C20.809058080078124,22.080255118255614,20.407257080078125,21.678445118255617,20.407257080078125,21.182813118255616C20.407257080078125,20.822025118255617,20.620147080078127,20.510973118255617,20.927179080078126,20.368406218255615C21.041925080078126,20.315116418255617,21.169846080078123,20.285375118255615,21.304695080078126,20.285375118255615C21.800327080078127,20.285375118255615,22.202137080078124,20.687176118255614,22.202137080078124,21.182813118255616Z" fill="#7BC0FC" fill-opacity="1"/><path d="M22.292827080078126,20.194677018255614Q21.883527080078125,19.785375118255615,21.304695080078126,19.785375118255615Q20.995526080078125,19.785375118255615,20.716603080078126,19.914911118255617Q19.907257080078125,20.290722718255616,19.907257080078125,21.182813118255616Q19.907257080078125,21.761645118255615,20.316559080078125,22.170945118255617Q20.725861080078126,22.580255118255614,21.304695080078126,22.580255118255614Q21.901347080078125,22.580255118255614,22.314077080078125,22.149235118255614Q22.702137080078124,21.743995118255615,22.702137080078124,21.182813118255616Q22.702137080078124,20.603979118255616,22.292827080078126,20.194677018255614ZM21.137755080078126,20.821901118255614Q21.216405080078125,20.785375118255615,21.304695080078126,20.785375118255615Q21.702137080078124,20.785375118255615,21.702137080078124,21.182813118255616Q21.702137080078124,21.342415118255616,21.591817080078126,21.457615118255614Q21.474387080078124,21.580255118255614,21.304695080078126,21.580255118255614Q21.140074080078126,21.580255118255614,21.023666080078126,21.463845118255616Q20.907257080078125,21.347435118255614,20.907257080078125,21.182814118255614Q20.907257080078125,20.928930118255614,21.137755080078126,20.821901118255614Z" fill-rule="evenodd" fill="#7BC0FC" fill-opacity="1"/></g><g><path d="M17.176483240966796,21.182813118255616C17.176483240966796,21.423615118255615,17.081633240966795,21.642245118255616,16.927293240966797,21.803425118255614C16.763923240966797,21.974035118255614,16.533893240966798,22.080255118255614,16.279041240966798,22.080255118255614C15.783400240966797,22.080255118255614,15.381603240966797,21.678445118255617,15.381603240966797,21.182813118255616C15.381603240966797,20.822025118255617,15.594500240966797,20.510973118255617,15.901519240966797,20.368406218255615C16.016279240966796,20.315116418255617,16.144187240966797,20.285375118255615,16.279041240966798,20.285375118255615C16.774683240966798,20.285375118255615,17.176483240966796,20.687176118255614,17.176483240966796,21.182813118255616Z" fill="#7BC0FC" fill-opacity="1"/><path d="M17.267173240966798,20.194677018255614Q16.857873240966796,19.785375118255615,16.279041240966798,19.785375118255615Q15.969898240966797,19.785375118255615,15.690936240966797,19.914914118255616Q14.881603240966797,20.290735978255615,14.881603240966797,21.182813118255616Q14.881603240966797,21.761645118255615,15.290903240966797,22.170945118255617Q15.700204240966796,22.580255118255614,16.279041240966798,22.580255118255614Q16.875693240966797,22.580255118255614,17.288423240966797,22.149235118255614Q17.676483240966796,21.743995118255615,17.676483240966796,21.182813118255616Q17.676483240966796,20.603979118255616,17.267173240966798,20.194677018255614ZM16.112103240966796,20.821898118255614Q16.190754240966797,20.785375118255615,16.279041240966798,20.785375118255615Q16.676483240966796,20.785375118255615,16.676483240966796,21.182813118255616Q16.676483240966796,21.342415118255616,16.566163240966798,21.457615118255614Q16.448733240966796,21.580255118255614,16.279041240966798,21.580255118255614Q16.114419240966797,21.580255118255614,15.998011240966797,21.463845118255616Q15.881603240966797,21.347435118255614,15.881603240966797,21.182814118255614Q15.881603240966797,20.928932118255617,16.112103240966796,20.821898118255614Z" fill-rule="evenodd" fill="#7BC0FC" fill-opacity="1"/></g><g><path d="M19.68931016052246,16.336646984375C19.68931016052246,16.577448984375,19.59446016052246,16.796078984375,19.44012016052246,16.957258984375C19.27675016052246,17.127868984375,19.04672016052246,17.234088984375,18.791868160522462,17.234088984375C18.29623116052246,17.234088984375,17.89443016052246,16.832288984375,17.89443016052246,16.336646984375C17.89443016052246,15.975860984375,18.107320160522463,15.664799984375,18.414352160522462,15.522239984375C18.529098160522462,15.468953684375,18.65701916052246,15.439208984375,18.791868160522462,15.439208984375C19.287510160522462,15.439208984375,19.68931016052246,15.841005984375,19.68931016052246,16.336646984375Z" fill="#7BC0FC" fill-opacity="1"/><path d="M19.780000160522462,15.348508984375Q19.37070016052246,14.939208984375,18.791868160522462,14.939208984375Q18.48271816052246,14.939208984375,18.20378516052246,15.068740984375Q17.39443016052246,15.444537434375,17.39443016052246,16.336646984375Q17.39443016052246,16.915478984375,17.80373186052246,17.324778984375Q18.21303316052246,17.734088984375,18.791868160522462,17.734088984375Q19.38852016052246,17.734088984375,19.80125016052246,17.303068984375Q20.18931016052246,16.897828984375,20.18931016052246,16.336646984375Q20.18931016052246,15.757809984375,19.780000160522462,15.348508984375ZM18.62491916052246,15.975738984374999Q18.70358316052246,15.939208984375,18.791868160522462,15.939208984375Q19.18931016052246,15.939208984375,19.18931016052246,16.336646984375Q19.18931016052246,16.496248984375,19.078990160522462,16.611448984375Q18.96156016052246,16.734088984375,18.791868160522462,16.734088984375Q18.39443016052246,16.734088984375,18.39443016052246,16.336646984375Q18.39443016052246,16.082758984375,18.62491916052246,15.975738984374999Z" fill-rule="evenodd" fill="#7BC0FC" fill-opacity="1"/></g></g></g></svg>