<svg xmlns="http://www.w3.org/2000/svg" xmlns:xlink="http://www.w3.org/1999/xlink" fill="none" version="1.1" width="24" height="24" viewBox="0 0 24 24"><defs><clipPath id="master_svg0_644_65484"><rect x="0" y="0" width="24" height="24" rx="0"/></clipPath></defs><g clip-path="url(#master_svg0_644_65484)"><g><path d="M3.5,5.080078125L3.5,20.999978125C3.5,22.104578125,4.395431,22.999978125,5.5,22.999978125L18.5,22.999978125C19.6046,22.999978125,20.5,22.104578125,20.5,20.999978125L20.5,5.080078125C20.5,3.975509125,19.6046,3.080078125,18.5,3.080078125L17.5,3.080078125L17.5,5.499998124999999C17.5,6.328428125,16.828400000000002,6.999998124999999,16,6.999998124999999L8,6.999998124999999C7.17157,6.999998124999999,6.5,6.328428125,6.5,5.499998124999999L6.5,3.080078125L5.5,3.080078125C4.395431,3.080078125,3.5,3.975509125,3.5,5.080078125Z" fill="#FF7D00" fill-opacity="1"/></g><g><path d="M8.333333,6L15.66667,6C16.1269,6,16.5,5.6269,16.5,5.16667L16.5,3.91662C16.5,3.45637,16.1226,3.08327,15.66235,3.08328Q15.23012,3.0833,14.91375,3.08331C14.453520000000001,3.08333,14.09583,2.6800100000000002,13.9132,2.25756C13.59339,1.517792,12.857050000000001,1,11.99999,1C11.14293,1,10.40659,1.517792,10.086780000000001,2.25756C9.904160000000001,2.6800100000000002,9.56107,3.08333,9.10083,3.08332Q8.75319,3.08331,8.311497,3.08329C7.851244,3.08327,7.5,3.45637,7.5,3.91662L7.5,5.16667C7.5,5.6269,7.873096,6,8.333333,6M11.99999,3.91667C11.53958,3.91667,11.16666,3.54375,11.16666,3.08333C11.16666,2.6229199999999997,11.53958,2.25,11.99999,2.25C12.46041,2.25,12.83333,2.6229199999999997,12.83333,3.08333C12.83333,3.54375,12.46041,3.91667,11.99999,3.91667Z" fill="#F9CC45" fill-opacity="1"/></g><g><path d="M9.009425458984374,9.850398359375Q9.114915458984374,9.744909359375,9.172005458984374,9.607081359375Q9.229095458984375,9.469252359375,9.229095458984375,9.320068359375Q9.229095458984375,9.246199859375,9.214685458984375,9.173750359375Q9.200275458984375,9.101301359375,9.172005458984374,9.033055359375Q9.143735458984375,8.964810359375,9.102695458984375,8.903390359375Q9.061655458984376,8.841971359375,9.009425458984374,8.789738359375Q8.957195458984375,8.737505359375,8.895775458984374,8.696466359375Q8.834355458984374,8.655427359375,8.766105458984375,8.627158359375Q8.697865458984374,8.598890359375,8.625415458984374,8.584479359374999Q8.552965458984374,8.570068359375,8.479095458984375,8.570068359375Q8.329915458984376,8.570068359375,8.192085458984375,8.627158359375Q8.054255458984375,8.684249359375,7.948765458984375,8.789738359375L6.854095458984375,9.884408359375L6.571925458984375,9.602238359375Q6.466436458984375,9.496749359375,6.328608458984375,9.439658359375Q6.190779458984375,9.382568359375,6.041595458984375,9.382568359375Q5.967726958984375,9.382568359375,5.895277458984375,9.396979359375Q5.822828458984375,9.411390459375,5.754582458984375,9.439658359375Q5.686337458984375,9.467927359375,5.624917458984375,9.508966359375Q5.563498458984375,9.550005359375,5.511265458984375,9.602238359375Q5.459032458984375,9.654471359375,5.417993458984375,9.715890359375Q5.376954458984375,9.777310359375,5.348685458984375,9.845555359375Q5.320417458984375,9.913801359375,5.306006458984375,9.986250359375Q5.291595458984375,10.058699359375,5.291595458984375,10.132568359375Q5.291595458984375,10.281752359375,5.348685458984375,10.419578359375Q5.405776458984375,10.557408359375,5.511265458984375,10.662898359375L6.323765458984375,11.475398359375Q6.429254458984375,11.580888359374999,6.567082458984375,11.637978359375Q6.704911458984375,11.695068359375,6.854095458984375,11.695068359375Q7.003279458984375,11.695068359375,7.141105458984375,11.637978359375Q7.278935458984375,11.580888359374999,7.384425458984375,11.475398359375L9.009185458984375,9.850633359375L9.009425458984374,9.850398359375L9.009425458984374,9.850398359375Z" fill-rule="evenodd" fill="#FFFFFF" fill-opacity="1"/></g><g><path d="M12.00006103515625,9.381591796875L17.95839103515625,9.381591796875Q18.03226103515625,9.381591796875,18.10471103515625,9.396002796874999Q18.17716103515625,9.410413796875,18.245411035156252,9.438681796875Q18.313651035156248,9.466950796875,18.37507103515625,9.507989796875Q18.43649103515625,9.549028796875,18.48872103515625,9.601261796875Q18.54096103515625,9.653494796875,18.58200103515625,9.714913796875Q18.62303103515625,9.776333796875,18.65130103515625,9.844578796875Q18.67957103515625,9.912824796875,18.69398103515625,9.985273796875Q18.70839103515625,10.057723296875,18.70839103515625,10.131591796875Q18.70839103515625,10.205460296875,18.69398103515625,10.277909796875Q18.67957103515625,10.350358796875,18.65130103515625,10.418604796875Q18.62303103515625,10.486849796875,18.58199103515625,10.548269796875Q18.54096103515625,10.609688796875,18.48872103515625,10.661921796875Q18.43649103515625,10.714154796875,18.37507103515625,10.755193796875Q18.313651035156248,10.796232796875,18.245411035156252,10.824501796875Q18.17716103515625,10.852769796875,18.10471103515625,10.867180796875001Q18.03226103515625,10.881591796875,17.95839103515625,10.881591796875L12.00006103515625,10.881591796875Q11.92619253515625,10.881591796875,11.85374303515625,10.867180796875001Q11.78129403515625,10.852769796875,11.71304803515625,10.824501796875Q11.64480303515625,10.796232796875,11.58338303515625,10.755193796875Q11.52196403515625,10.714154796875,11.46973103515625,10.661921796875Q11.41749803515625,10.609688796875,11.37645903515625,10.548269796875Q11.33542003515625,10.486849796875,11.30715103515625,10.418604796875Q11.27888303515625,10.350358796875,11.264472035156249,10.277909796875Q11.25006103515625,10.205460296875,11.25006103515625,10.131591796875Q11.25006103515625,10.057723296875,11.264472035156249,9.985273796875Q11.27888303515625,9.912824796875,11.30715103515625,9.844578796875Q11.33542003515625,9.776333796875,11.37645903515625,9.714913796875Q11.41749803515625,9.653494796875,11.46973103515625,9.601261796875Q11.52196403515625,9.549028796875,11.58338303515625,9.507989796875Q11.64480303515625,9.466950796875,11.71304803515625,9.438681796875Q11.78129403515625,9.410413796875,11.85374303515625,9.396002796874999Q11.92619253515625,9.381591796875,12.00006103515625,9.381591796875Z" fill-rule="evenodd" fill="#FFFFFF" fill-opacity="1"/></g><g><path d="M9.009425458984374,14.475398359375Q9.114915458984374,14.369909359375,9.172005458984374,14.232081359375Q9.229095458984375,14.094252359375,9.229095458984375,13.945068359375Q9.229095458984375,13.871199859375,9.214685458984375,13.798750359375Q9.200275458984375,13.726301359375,9.172005458984374,13.658055359375Q9.143735458984375,13.589810359375,9.102695458984375,13.528390359375Q9.061655458984376,13.466971359375,9.009425458984374,13.414738359375Q8.957195458984375,13.362505359375,8.895775458984374,13.321466359375Q8.834355458984374,13.280427359375,8.766105458984375,13.252158359375Q8.697865458984374,13.223890359375,8.625415458984374,13.209479359374999Q8.552965458984374,13.195068359375,8.479095458984375,13.195068359375Q8.329915458984376,13.195068359375,8.192085458984375,13.252158359375Q8.054255458984375,13.309249359375,7.948765458984375,13.414738359375L6.854095458984375,14.509408359375L6.571925458984375,14.227238359375Q6.466436458984375,14.121749359375,6.328608458984375,14.064658359375Q6.190779458984375,14.007568359375,6.041595458984375,14.007568359375Q5.967726958984375,14.007568359375,5.895277458984375,14.021979359375Q5.822828458984375,14.036390459375,5.754582458984375,14.064658359375Q5.686337458984375,14.092927359375,5.624917458984375,14.133966359375Q5.563498458984375,14.175005359375,5.511265458984375,14.227238359375Q5.459032458984375,14.279471359375,5.417993458984375,14.340890359375Q5.376954458984375,14.402310359375,5.348685458984375,14.470555359375Q5.320417458984375,14.538801359375,5.306006458984375,14.611250359375Q5.291595458984375,14.683699359375,5.291595458984375,14.757568359375Q5.291595458984375,14.906752359375,5.348685458984375,15.044578359375Q5.405776458984375,15.182408359375,5.511265458984375,15.287898359375L6.323765458984375,16.100398359375Q6.429254458984375,16.205888359375,6.567082458984375,16.262978359375Q6.704911458984375,16.320068359375,6.854095458984375,16.320068359375Q7.003279458984375,16.320068359375,7.141105458984375,16.262978359375Q7.278935458984375,16.205888359375,7.384425458984375,16.100398359375L9.009185458984375,14.475633359375L9.009425458984374,14.475398359375L9.009425458984374,14.475398359375Z" fill-rule="evenodd" fill="#FFFFFF" fill-opacity="1"/></g><g><path d="M12.00006103515625,14.006591796875L17.95839103515625,14.006591796875Q18.03226103515625,14.006591796875,18.10471103515625,14.021002796874999Q18.17716103515625,14.035413796875,18.245411035156252,14.063681796875Q18.313651035156248,14.091950796875,18.37507103515625,14.132989796875Q18.43649103515625,14.174028796875,18.48872103515625,14.226261796875Q18.54096103515625,14.278494796875,18.58200103515625,14.339913796875Q18.62303103515625,14.401333796875,18.65130103515625,14.469578796875Q18.67957103515625,14.537824796875,18.69398103515625,14.610273796875Q18.70839103515625,14.682723296875,18.70839103515625,14.756591796875Q18.70839103515625,14.830460296875,18.69398103515625,14.902909796875Q18.67957103515625,14.975358796875,18.65130103515625,15.043604796875Q18.62303103515625,15.111849796875,18.58199103515625,15.173269796875Q18.54096103515625,15.234688796875,18.48872103515625,15.286921796875Q18.43649103515625,15.339154796875,18.37507103515625,15.380193796875Q18.313651035156248,15.421232796875,18.245411035156252,15.449501796875Q18.17716103515625,15.477769796875,18.10471103515625,15.492180796875001Q18.03226103515625,15.506591796875,17.95839103515625,15.506591796875L12.00006103515625,15.506591796875Q11.92619253515625,15.506591796875,11.85374303515625,15.492180796875001Q11.78129403515625,15.477769796875,11.71304803515625,15.449501796875Q11.64480303515625,15.421232796875,11.58338303515625,15.380193796875Q11.52196403515625,15.339154796875,11.46973103515625,15.286921796875Q11.41749803515625,15.234688796875,11.37645903515625,15.173269796875Q11.33542003515625,15.111849796875,11.30715103515625,15.043604796875Q11.27888303515625,14.975358796875,11.264472035156249,14.902909796875Q11.25006103515625,14.830460296875,11.25006103515625,14.756591796875Q11.25006103515625,14.682723296875,11.264472035156249,14.610273796875Q11.27888303515625,14.537824796875,11.30715103515625,14.469578796875Q11.33542003515625,14.401333796875,11.37645903515625,14.339913796875Q11.41749803515625,14.278494796875,11.46973103515625,14.226261796875Q11.52196403515625,14.174028796875,11.58338303515625,14.132989796875Q11.64480303515625,14.091950796875,11.71304803515625,14.063681796875Q11.78129403515625,14.035413796875,11.85374303515625,14.021002796874999Q11.92619253515625,14.006591796875,12.00006103515625,14.006591796875Z" fill-rule="evenodd" fill="#FFFFFF" fill-opacity="1"/></g><g><path d="M9.009425458984374,19.100398359375Q9.114915458984374,18.994909359375,9.172005458984374,18.857081359375Q9.229095458984375,18.719252359375,9.229095458984375,18.570068359375Q9.229095458984375,18.496199859375,9.214685458984375,18.423750359375Q9.200275458984375,18.351301359375,9.172005458984374,18.283055359375Q9.143735458984375,18.214810359375,9.102695458984375,18.153390359375Q9.061655458984376,18.091971359375002,9.009425458984374,18.039738359375Q8.957195458984375,17.987505359375,8.895775458984374,17.946466359375002Q8.834355458984374,17.905427359375,8.766105458984375,17.877158359375Q8.697865458984374,17.848890359375,8.625415458984374,17.834479359375Q8.552965458984374,17.820068359375,8.479095458984375,17.820068359375Q8.329915458984376,17.820068359375,8.192085458984375,17.877158359375Q8.054255458984375,17.934249359375,7.948765458984375,18.039738359375L6.854095458984375,19.134408359375L6.571925458984375,18.852238359375Q6.466436458984375,18.746749359375,6.328608458984375,18.689658359375Q6.190779458984375,18.632568359375,6.041595458984375,18.632568359375Q5.967726958984375,18.632568359375,5.895277458984375,18.646979359375Q5.822828458984375,18.661390459375,5.754582458984375,18.689658359375Q5.686337458984375,18.717927359375,5.624917458984375,18.758966359375002Q5.563498458984375,18.800005359375,5.511265458984375,18.852238359375Q5.459032458984375,18.904471359375002,5.417993458984375,18.965890359375Q5.376954458984375,19.027310359375,5.348685458984375,19.095555359375Q5.320417458984375,19.163801359375,5.306006458984375,19.236250359375Q5.291595458984375,19.308699359375,5.291595458984375,19.382568359375Q5.291595458984375,19.531752359374998,5.348685458984375,19.669578359375Q5.405776458984375,19.807408359375,5.511265458984375,19.912898359375L6.323765458984375,20.725398359375Q6.429254458984375,20.830888359375,6.567082458984375,20.887978359375Q6.704911458984375,20.945068359375,6.854095458984375,20.945068359375Q7.003279458984375,20.945068359375,7.141105458984375,20.887978359375Q7.278935458984375,20.830888359375,7.384425458984375,20.725398359375L9.009185458984375,19.100633359375L9.009425458984374,19.100398359375L9.009425458984374,19.100398359375Z" fill-rule="evenodd" fill="#FFFFFF" fill-opacity="1"/></g><g><path d="M12.00006103515625,18.631591796875L14.95840103515625,18.631591796875Q15.03227103515625,18.631591796875,15.104721035156249,18.646002796875Q15.177171035156249,18.660413796875,15.24542103515625,18.688681796875Q15.313661035156251,18.716950796875,15.37508103515625,18.757989796875002Q15.436501035156251,18.799028796875,15.488731035156249,18.851261796875Q15.54097103515625,18.903494796875002,15.582011035156249,18.964913796875Q15.62304103515625,19.026333796875,15.651311035156251,19.094578796875Q15.67958103515625,19.162824796875,15.69399103515625,19.235273796875Q15.70840103515625,19.307723296875,15.70840103515625,19.381591796875Q15.70840103515625,19.455460296875,15.69399103515625,19.527909796875Q15.67958103515625,19.600358796875,15.651311035156251,19.668604796875Q15.62304103515625,19.736849796875,15.582011035156249,19.798269796875Q15.54097103515625,19.859688796874998,15.488731035156249,19.911921796875Q15.436501035156251,19.964154796875,15.37508103515625,20.005193796874998Q15.313661035156251,20.046232796875,15.24542103515625,20.074501796875Q15.177171035156249,20.102769796875,15.104721035156249,20.117180796875Q15.03227103515625,20.131591796875,14.95840103515625,20.131591796875L12.00006103515625,20.131591796875Q11.92619253515625,20.131591796875,11.85374303515625,20.117180796875Q11.78129403515625,20.102769796875,11.71304803515625,20.074501796875Q11.64480303515625,20.046232796875,11.58338303515625,20.005193796874998Q11.52196403515625,19.964154796875,11.46973103515625,19.911921796875Q11.41749803515625,19.859688796874998,11.37645903515625,19.798269796875Q11.33542003515625,19.736849796875,11.30715103515625,19.668604796875Q11.27888303515625,19.600358796875,11.264472035156249,19.527909796875Q11.25006103515625,19.455460296875,11.25006103515625,19.381591796875Q11.25006103515625,19.307723296875,11.264472035156249,19.235273796875Q11.27888303515625,19.162824796875,11.30715103515625,19.094578796875Q11.33542003515625,19.026333796875,11.37645903515625,18.964913796875Q11.41749803515625,18.903494796875002,11.46973103515625,18.851261796875Q11.52196403515625,18.799028796875,11.58338303515625,18.757989796875002Q11.64480303515625,18.716950796875,11.71304803515625,18.688681796875Q11.78129403515625,18.660413796875,11.85374303515625,18.646002796875Q11.92619253515625,18.631591796875,12.00006103515625,18.631591796875Z" fill-rule="evenodd" fill="#FFFFFF" fill-opacity="1"/></g><g><path d="M20.747084541015624,15.361960765625Q19.410754541015624,14.025634765625,17.520904541015625,14.025634765625Q15.631054541015626,14.025634765625,14.294730541015625,15.361959765625Q12.958404541015625,16.698284765625,12.958404541015625,18.588134765625Q12.958404541015625,20.477984765625,14.294730541015625,21.814304765625Q15.631054541015626,23.150634765625,17.520904541015625,23.150634765625Q18.611214541015624,23.150634765625,19.517294541015623,22.705844765625L20.396964541015624,23.585524765625L20.397744541015626,23.586294765625Q20.502214541015626,23.690754765625,20.625044541015626,23.772834765625Q20.747884541015626,23.854914765625,20.884374541015625,23.911454765625002Q21.020874541015626,23.967994765625,21.165764541015626,23.996814765625Q21.310664541015626,24.025634765625,21.458404541015625,24.025634765625Q21.532094541015624,24.025634765625,21.605434541015626,24.018414765625Q21.678764541015624,24.011184765625,21.751034541015624,23.996814765625Q21.823314541015627,23.982434765625,21.893834541015625,23.961044765624997Q21.964344541015624,23.939654765625,22.032424541015626,23.911454765625002Q22.100514541015624,23.883254765625,22.165494541015626,23.848514765624998Q22.230484541015624,23.813774765625,22.291754541015624,23.772834765625Q22.353034541015624,23.731894765625,22.409994541015624,23.685154765625Q22.466954541015625,23.638404765624998,22.519064541015624,23.586294765625Q22.571174541015623,23.534184765625,22.617924541015626,23.477224765625Q22.664664541015625,23.420264765625,22.705604541015624,23.358984765625Q22.746544541015624,23.297714765625,22.781284541015623,23.232724765625Q22.816024541015626,23.167744765625,22.844224541015627,23.099654765625Q22.872424541015626,23.031574765625,22.893814541015622,22.961064765625Q22.915204541015626,22.890544765625002,22.929584541015625,22.818264765625Q22.943954541015625,22.745994765625,22.951184541015625,22.672664765625Q22.958404541015625,22.599324765625,22.958404541015625,22.525634765625Q22.958404541015625,22.377894765625,22.929584541015625,22.232994765625Q22.900764541015626,22.088104765625,22.844224541015627,21.951604765625Q22.787684541015626,21.815114765625,22.705604541015624,21.692274765625Q22.623524541015627,21.569434765625,22.519064541015624,21.464974765625L22.518294541015624,21.464194765625L21.638614541015624,20.584524765624998Q22.083404541015625,19.678444765625,22.083404541015625,18.588134765625Q22.083404541015625,16.698284765625,20.747084541015624,15.361960765625ZM18.640214541015624,19.678364765625Q19.083404541015625,19.225034765625,19.083404541015625,18.588134765625Q19.083404541015625,17.940924765625,18.625754541015624,17.483284765625Q18.168114541015626,17.025634765625,17.520904541015625,17.025634765625Q15.958404541015625,17.025634765625,15.958404541015625,18.588134765625Q15.958404541015625,20.150634765625,17.520904541015625,20.150634765625Q18.157804541015626,20.150634765625,18.611134541015623,19.707444765625Q18.625474541015624,19.692704765625,18.640214541015624,19.678364765625Z" fill-rule="evenodd" fill="#FFFFFF" fill-opacity="1"/></g><g><path d="M20.039974541015624,16.069066765625Q18.996544541015624,15.025634765625,17.520904541015625,15.025634765625Q16.045264541015626,15.025634765625,15.001837541015625,16.069066765625Q13.958405541015624,17.112494765625,13.958404541015625,18.588134765625Q13.958405541015624,20.063774765625,15.001837541015625,21.107204765625Q16.045274541015626,22.150634765625,17.520904541015625,22.150634765625Q18.740014541015626,22.150634765625,19.664124541015624,21.438454765625L21.104854541015627,22.879184765625Q21.175174541015625,22.949514765625,21.267064541015625,22.987574765625Q21.358944541015624,23.025634765625,21.458404541015625,23.025634765625Q21.507654541015626,23.025634765625,21.555944541015627,23.016024765624998Q21.604244541015625,23.006414765625,21.649744541015625,22.987574765625Q21.695244541015626,22.968724765624998,21.736184541015625,22.941364765625Q21.777134541015627,22.914004765625002,21.811954541015623,22.879184765625Q21.846774541015627,22.844364765625002,21.874134541015625,22.803414765625Q21.901494541015623,22.762474765625,21.920344541015623,22.716974765625Q21.939184541015624,22.671474765625,21.948794541015623,22.623174765625002Q21.958404541015625,22.574884765625,21.958404541015625,22.525634765625Q21.958404541015625,22.426174765625,21.920344541015623,22.334294765625Q21.882284541015625,22.242404765625,21.811954541015623,22.172084765625L20.371224541015625,20.731354765625Q21.083404541015625,19.807234765625,21.083404541015625,18.588134765625Q21.083404541015625,17.112504765625,20.039974541015624,16.069066765625ZM19.343334541015626,20.389574765625Q20.083404541015625,19.642124765625,20.083404541015625,18.588134765625Q20.083404541015625,17.526714765625,19.332864541015624,16.776174765625Q18.582324541015623,16.025634765625,17.520904541015625,16.025634765625Q16.459484541015627,16.025634765625,15.708944541015626,16.776174765625Q14.958404541015625,17.526714765625,14.958404541015625,18.588134765625Q14.958405541015624,19.649554765625,15.708944541015626,20.400094765625Q16.459484541015627,21.150634765625,17.520904541015625,21.150634765625Q18.574904541015627,21.150634765625,19.322344541015624,20.410564765625Q19.332524541015623,20.399754765624998,19.343334541015626,20.389574765625Z" fill-rule="evenodd" fill="#D25F00" fill-opacity="1"/></g></g></svg>