<svg xmlns="http://www.w3.org/2000/svg" xmlns:xlink="http://www.w3.org/1999/xlink" fill="none" version="1.1" width="24" height="24" viewBox="0 0 24 24"><defs><clipPath id="master_svg0_630_32560"><rect x="0" y="0" width="24" height="24" rx="0"/></clipPath></defs><g clip-path="url(#master_svg0_630_32560)"><g><path d="M8.17157,2L3,2C1.8954309999999999,2,1,2.895431,1,4L1,19C1,20.1046,1.8954309999999999,21,3,21L21,21C22.1046,21,23,20.1046,23,19L23,7C23,5.89543,22.1046,5,21,5L12.8284,5C12.298,5,11.7893,4.789289999999999,11.4142,4.414210000000001L9.58579,2.585786C9.21071,2.210714,8.70201,2,8.17157,2" fill="#3491FA" fill-opacity="1"/></g><g><path d="M11.250004223632812,10Q11.250004223632812,9.9261315,11.264414223632812,9.853682Q11.278824223632812,9.781233,11.307094223632813,9.712987Q11.335354223632812,9.644742,11.376394223632813,9.583322Q11.417434223632812,9.521903,11.469674223632813,9.46967Q11.521904223632813,9.417437,11.583324223632813,9.376398Q11.644744223632813,9.335359,11.712984223632812,9.30709Q11.781234223632813,9.278822,11.853684223632813,9.264410999999999Q11.926134223632813,9.25,12.000004223632812,9.25Q12.073864223632812,9.25,12.146314223632812,9.264410999999999Q12.218764223632812,9.278822,12.287014223632813,9.30709Q12.355254223632812,9.335359,12.416674223632812,9.376398Q12.478094223632812,9.417437,12.530334223632813,9.46967Q12.582564223632811,9.521903,12.623604223632812,9.583322Q12.664644223632813,9.644742,12.692914223632812,9.712987Q12.721174223632813,9.781233,12.735584223632813,9.853682Q12.750004223632812,9.9261315,12.750004223632812,10L12.750004223632812,12.25L14.000004223632812,12.25Q14.724874223632813,12.25,15.237434223632812,12.76256Q15.750004223632812,13.27513,15.750004223632812,14L15.750004223632812,16Q15.750004223632812,16.07387,15.735584223632813,16.14632Q15.721174223632811,16.21877,15.692904223632812,16.287010000000002Q15.664644223632813,16.35526,15.623604223632812,16.41668Q15.582564223632811,16.4781,15.530334223632813,16.53033Q15.478094223632812,16.58256,15.416674223632812,16.6236Q15.355254223632812,16.66464,15.287014223632813,16.69291Q15.218764223632814,16.72118,15.146314223632812,16.735590000000002Q15.073864223632812,16.75,15.000004223632812,16.75Q14.926134223632811,16.75,14.853684223632811,16.735590000000002Q14.781234223632811,16.72118,14.712984223632812,16.69291Q14.644744223632813,16.66464,14.583324223632813,16.6236Q14.521904223632813,16.58256,14.469674223632811,16.53033Q14.417434223632814,16.4781,14.376394223632811,16.41668Q14.335354223632812,16.35526,14.307094223632813,16.287010000000002Q14.278824223632814,16.21877,14.264414223632812,16.14632Q14.250004223632812,16.07387,14.250004223632812,16L14.250004223632812,14Q14.250004223632812,13.75,14.000004223632812,13.75L9.999954223632812,13.75Q9.749954223632812,13.75,9.749954223632812,14L9.749954223632812,16Q9.749954223632812,16.07387,9.735543223632813,16.14632Q9.721132223632813,16.21877,9.692864223632812,16.287010000000002Q9.664595223632812,16.35526,9.623556223632812,16.41668Q9.582517223632813,16.4781,9.530284223632812,16.53033Q9.478051223632812,16.58256,9.416632223632812,16.6236Q9.355212223632812,16.66464,9.286967223632812,16.69291Q9.218721223632812,16.72118,9.146272223632813,16.735590000000002Q9.073822723632812,16.75,8.999954223632812,16.75Q8.926085723632813,16.75,8.853636223632812,16.735590000000002Q8.781187223632813,16.72118,8.712941223632813,16.69291Q8.644696223632813,16.66464,8.583276223632813,16.6236Q8.521857223632813,16.58256,8.469624223632813,16.53033Q8.417391223632812,16.4781,8.376352223632813,16.41668Q8.335313223632813,16.35526,8.307044223632813,16.287010000000002Q8.278776223632812,16.21877,8.264365223632812,16.14632Q8.249954223632812,16.07387,8.249954223632812,16L8.249954223632812,14Q8.249954223632812,13.27513,8.762517223632813,12.76256Q9.275080223632813,12.25,9.999954223632812,12.25L11.250004223632812,12.25L11.250004223632812,10Z" fill-rule="evenodd" fill="#FFFFFF" fill-opacity="1"/></g><g><rect x="13" y="15" width="4" height="4" rx="1" fill="#FFFFFF" fill-opacity="1"/></g><g><rect x="6.9999542236328125" y="15" width="4" height="4" rx="1" fill="#FFFFFF" fill-opacity="1"/></g><g><rect x="10" y="7" width="4" height="4" rx="1" fill="#FFFFFF" fill-opacity="1"/></g></g></svg>