<svg xmlns="http://www.w3.org/2000/svg" xmlns:xlink="http://www.w3.org/1999/xlink" fill="none" version="1.1" width="24" height="24" viewBox="0 0 24 24"><defs><clipPath id="master_svg0_732_41615"><rect x="0" y="0" width="24" height="24" rx="0"/></clipPath></defs><g clip-path="url(#master_svg0_732_41615)"><g><path d="M2.3656463623046875,6Q2.3656463623046875,5.9015086,2.3848613623046875,5.80491Q2.4040763623046875,5.708311,2.4417673623046876,5.617317Q2.4794583623046877,5.526322,2.5341763623046876,5.44443Q2.5888953623046875,5.362537,2.6585393623046873,5.292893Q2.7281833623046876,5.223249,2.8100763623046876,5.16853Q2.8919683623046875,5.113812,2.9829633623046874,5.076121Q3.0739573623046876,5.03843,3.1705563623046875,5.019215Q3.2671549623046876,5,3.3656463623046875,5Q3.4641377623046874,5,3.5607363623046875,5.019215Q3.6573353623046874,5.03843,3.7483293623046876,5.076121Q3.8393243623046875,5.113812,3.9212163623046874,5.16853Q4.003109362304688,5.223249,4.072753362304687,5.292893Q4.1423973623046875,5.362537,4.197116362304688,5.44443Q4.251834362304687,5.526322,4.289525362304688,5.617317Q4.3272163623046875,5.708311,4.3464313623046875,5.80491Q4.3656463623046875,5.9015086,4.3656463623046875,6L4.3656463623046875,18Q4.3656463623046875,18.314799999999998,5.878566362304687,18.8191Q7.921326362304687,19.5,10.865646362304688,19.5Q10.964136362304687,19.5,11.060736362304688,19.519199999999998Q11.157336362304687,19.5384,11.248326362304688,19.5761Q11.339326362304687,19.613799999999998,11.421216362304687,19.6685Q11.503106362304688,19.7232,11.572756362304688,19.7929Q11.642396362304687,19.8625,11.697116362304687,19.9444Q11.751836362304687,20.0263,11.789526362304688,20.1173Q11.827216362304688,20.2083,11.846426362304687,20.3049Q11.865646362304688,20.4015,11.865646362304688,20.5Q11.865646362304688,20.5985,11.846426362304687,20.6951Q11.827216362304688,20.7917,11.789526362304688,20.8827Q11.751836362304687,20.9737,11.697116362304687,21.0556Q11.642396362304687,21.1375,11.572756362304688,21.2071Q11.503106362304688,21.276699999999998,11.421216362304687,21.3315Q11.339326362304687,21.386200000000002,11.248326362304688,21.4239Q11.157336362304687,21.4616,11.060736362304688,21.480800000000002Q10.964136362304687,21.5,10.865646362304688,21.5Q2.3656463623046875,21.5,2.3656463623046875,18L2.3656463623046875,6ZM17.365646362304688,6Q17.365646362304688,5.9015086,17.384846362304685,5.80491Q17.404046362304687,5.708311,17.441746362304688,5.617317Q17.479446362304685,5.526322,17.53414636230469,5.44443Q17.588846362304686,5.362537,17.658546362304687,5.292893Q17.728146362304688,5.223249,17.81004636230469,5.16853Q17.891946362304687,5.113812,17.982946362304688,5.076121Q18.07394636230469,5.03843,18.170546362304687,5.019215Q18.267146362304686,5,18.365646362304688,5Q18.46414636230469,5,18.560746362304688,5.019215Q18.657346362304686,5.03843,18.748346362304687,5.076121Q18.83934636230469,5.113812,18.921246362304686,5.16853Q19.003146362304687,5.223249,19.072746362304688,5.292893Q19.142346362304686,5.362537,19.197146362304686,5.44443Q19.25184636230469,5.526322,19.289546362304687,5.617317Q19.327246362304688,5.708311,19.34644636230469,5.80491Q19.365646362304688,5.9015086,19.365646362304688,6L19.365646362304688,10.97192Q19.365646362304688,11.07042,19.34644636230469,11.167010000000001Q19.327246362304688,11.26361,19.289546362304687,11.354610000000001Q19.25184636230469,11.445599999999999,19.197146362304686,11.52749Q19.142346362304686,11.609390000000001,19.072746362304688,11.679030000000001Q19.003146362304687,11.74867,18.921246362304686,11.80339Q18.83934636230469,11.85811,18.748346362304687,11.895800000000001Q18.657346362304686,11.933489999999999,18.560746362304688,11.95271Q18.46414636230469,11.97192,18.365646362304688,11.97192Q18.267146362304686,11.97192,18.170546362304687,11.95271Q18.07394636230469,11.933489999999999,17.982946362304688,11.895800000000001Q17.891946362304687,11.85811,17.81004636230469,11.80339Q17.728146362304688,11.74867,17.658546362304687,11.679030000000001Q17.588846362304686,11.609390000000001,17.53414636230469,11.52749Q17.479446362304685,11.445599999999999,17.441746362304688,11.354610000000001Q17.404046362304687,11.26361,17.384846362304685,11.167010000000001Q17.365646362304688,11.07042,17.365646362304688,10.97192L17.365646362304688,6Z" fill-rule="evenodd" fill="#4464F8" fill-opacity="1"/></g><g><path d="M18.365646362304688,6Q18.365646362304688,6.06137,18.356646362304687,6.122669999999999Q18.347546362304687,6.18397,18.32954636230469,6.2450399999999995Q18.311446362304686,6.30612,18.284446362304685,6.36683Q18.257446362304687,6.42753,18.221546362304686,6.48773Q18.185646362304688,6.5479199999999995,18.140846362304686,6.60745Q18.096146362304687,6.666980000000001,18.042746362304687,6.725709999999999Q17.989246362304687,6.78444,17.927246362304686,6.84222Q17.86524636230469,6.90001,17.794746362304686,6.95671Q17.724246362304687,7.01341,17.645546362304685,7.06889Q17.566846362304688,7.12437,17.480046362304687,7.17849Q17.393246362304687,7.23262,17.298646362304687,7.28526Q17.203946362304688,7.337899999999999,17.101646362304688,7.38893Q16.999346362304685,7.43995,16.889746362304688,7.48925Q16.780046362304688,7.53854,16.663246362304687,7.58598Q16.546446362304685,7.63342,16.422746362304686,7.6789Q16.29914636230469,7.72437,16.168946362304688,7.76777Q16.038746362304686,7.81116,15.902346362304687,7.85238Q15.765946362304687,7.89359,15.623546362304687,7.93253Q15.481246362304688,7.97146,15.333346362304688,8.00802Q15.185546362304688,8.04458,15.032446362304688,8.078669999999999Q14.879346362304688,8.112770000000001,14.721446362304688,8.14432Q14.563446362304688,8.17587,14.401146362304688,8.204799999999999Q14.238746362304688,8.233730000000001,14.072346362304687,8.25997Q13.905846362304688,8.28621,13.735746362304688,8.3097Q13.565646362304687,8.333179999999999,13.392346362304687,8.353860000000001Q13.218966362304688,8.37453,13.042776362304688,8.39235Q12.866596362304687,8.41017,12.687996362304688,8.425080000000001Q12.509396362304688,8.43999,12.328826362304687,8.45196Q12.148246362304688,8.463940000000001,11.966126362304687,8.472940000000001Q11.784006362304687,8.481950000000001,11.600776362304687,8.487960000000001Q11.417546362304687,8.49398,11.233656362304687,8.49699Q11.049756362304688,8.5,10.865646362304688,8.5Q10.681536362304687,8.5,10.497636362304688,8.49699Q10.313746362304688,8.49398,10.130516362304688,8.487960000000001Q9.947286362304688,8.481950000000001,9.765166362304686,8.472940000000001Q9.583046362304687,8.463940000000001,9.402466362304686,8.45196Q9.221896362304687,8.43999,9.043296362304687,8.425080000000001Q8.864696362304688,8.41017,8.688506362304688,8.39235Q8.512326362304687,8.37453,8.338976362304688,8.353860000000001Q8.165616362304688,8.333179999999999,7.995516362304688,8.3097Q7.825416362304687,8.28621,7.658986362304687,8.25997Q7.4925463623046875,8.233730000000001,7.330166362304688,8.204799999999999Q7.167796362304688,8.17587,7.009876362304688,8.14432Q6.851956362304687,8.112770000000001,6.698866362304687,8.078669999999999Q6.545786362304687,8.04458,6.397896362304687,8.00802Q6.250016362304688,7.97146,6.107696362304687,7.93253Q5.965376362304688,7.89359,5.828956362304687,7.85238Q5.692536362304688,7.81116,5.562346362304687,7.76777Q5.432156362304688,7.72437,5.308516362304688,7.6789Q5.184866362304687,7.63342,5.0680663623046875,7.58598Q4.951266362304688,7.53854,4.841586362304687,7.48925Q4.731916362304688,7.43995,4.629626362304688,7.38893Q4.527336362304688,7.337899999999999,4.432686362304688,7.28526Q4.338027362304688,7.23262,4.251236362304687,7.17849Q4.164445362304687,7.12437,4.085726362304688,7.06889Q4.007007362304687,7.01341,3.9365493623046874,6.95671Q3.8660923623046877,6.90001,3.8040653623046876,6.84222Q3.7420393623046877,6.78444,3.6885933623046876,6.725709999999999Q3.6351483623046876,6.666980000000001,3.5904123623046873,6.60745Q3.5456753623046877,6.5479199999999995,3.5097563623046875,6.48773Q3.4738373623046876,6.42753,3.4468225623046873,6.36683Q3.4198072623046873,6.30612,3.4017608623046875,6.2450399999999995Q3.3837145623046876,6.18397,3.3746804423046877,6.122669999999999Q3.3656463623046875,6.06137,3.3656463623046875,6Q3.3656463623046875,5.93863,3.3746804423046877,5.877330000000001Q3.3837145623046876,5.81603,3.4017608623046875,5.7549600000000005Q3.4198072623046873,5.69388,3.4468225623046873,5.63317Q3.4738373623046876,5.57247,3.5097563623046875,5.51227Q3.5456753623046877,5.4520800000000005,3.5904123623046873,5.39255Q3.6351483623046876,5.33302,3.6885933623046876,5.27429Q3.7420393623046877,5.21556,3.8040653623046876,5.15778Q3.8660923623046877,5.09999,3.9365493623046874,5.04329Q4.007007362304687,4.98659,4.085726362304688,4.93111Q4.164445362304687,4.87563,4.251236362304687,4.82151Q4.338027362304688,4.76738,4.432686362304688,4.71474Q4.527336362304688,4.6621,4.629626362304688,4.61107Q4.731916362304688,4.56005,4.841586362304687,4.51075Q4.951266362304688,4.461457,5.0680663623046875,4.414017Q5.184866362304687,4.366576,5.308516362304688,4.321102Q5.432156362304688,4.275629,5.562346362304687,4.232233Q5.692536362304688,4.188837,5.828956362304687,4.147622Q5.965376362304688,4.106408,6.107696362304687,4.067474Q6.250016362304688,4.02854,6.397896362304687,3.991981Q6.545786362304687,3.955422,6.698866362304687,3.921326Q6.851956362304687,3.88723,7.009876362304688,3.855678Q7.167796362304688,3.824127,7.330166362304688,3.795197Q7.4925463623046875,3.766266,7.658986362304687,3.740027Q7.825416362304687,3.713787,7.995516362304688,3.690301Q8.165616362304688,3.666815,8.338976362304688,3.64614Q8.512326362304687,3.625464,8.688516362304687,3.607649Q8.864696362304688,3.5898339,9.043296362304687,3.5749219Q9.221896362304687,3.5600098,9.402466362304686,3.5480368Q9.583046362304687,3.5360638,9.765166362304686,3.5270587Q9.947286362304688,3.5180536,10.130516362304688,3.5120382Q10.313746362304688,3.50602272,10.497636362304688,3.50301136Q10.681536362304687,3.5,10.865646362304688,3.5Q11.049756362304688,3.5,11.233656362304687,3.50301136Q11.417546362304687,3.50602272,11.600776362304687,3.5120382Q11.784006362304687,3.5180536,11.966126362304687,3.5270587Q12.148246362304688,3.5360638,12.328826362304687,3.5480368Q12.509396362304688,3.5600098,12.687996362304688,3.5749219Q12.866596362304687,3.5898339,13.042776362304688,3.607649Q13.218966362304688,3.625464,13.392346362304687,3.64614Q13.565646362304687,3.666815,13.735746362304688,3.690301Q13.905846362304688,3.713787,14.072346362304687,3.740027Q14.238746362304688,3.766266,14.401146362304688,3.795197Q14.563446362304688,3.824127,14.721446362304688,3.855678Q14.879346362304688,3.88723,15.032446362304688,3.921326Q15.185546362304688,3.955422,15.333346362304688,3.991981Q15.481246362304688,4.02854,15.623546362304687,4.067474Q15.765946362304687,4.106408,15.902346362304687,4.147622Q16.038746362304686,4.188837,16.168946362304688,4.232233Q16.29914636230469,4.275629,16.422746362304686,4.321102Q16.546446362304685,4.366576,16.663246362304687,4.414017Q16.780046362304688,4.461457,16.889746362304688,4.51075Q16.999346362304685,4.56005,17.101646362304688,4.61107Q17.203946362304688,4.6621,17.298646362304687,4.71474Q17.393246362304687,4.76738,17.480046362304687,4.82151Q17.566846362304688,4.87563,17.645546362304685,4.93111Q17.724246362304687,4.98659,17.794746362304686,5.04329Q17.86524636230469,5.09999,17.927246362304686,5.15778Q17.989246362304687,5.21556,18.042746362304687,5.27429Q18.096146362304687,5.33302,18.140846362304686,5.39255Q18.185646362304688,5.4520800000000005,18.221546362304686,5.51227Q18.257446362304687,5.57247,18.284446362304685,5.63317Q18.311446362304686,5.69388,18.32954636230469,5.7549600000000005Q18.347546362304687,5.81603,18.356646362304687,5.877330000000001Q18.365646362304688,5.93863,18.365646362304688,6Z" fill="#4464F8" fill-opacity="1"/><path d="M16.48514636230469,3.283551Q14.134546362304688,2.5,10.865646362304688,2.5Q7.596756362304688,2.5,5.246116362304687,3.283551Q2.3656463623046875,4.243707,2.3656463623046875,6Q2.3656463623046875,7.75629,5.246106362304688,8.71645Q7.596766362304687,9.5,10.865646362304688,9.5Q14.134546362304688,9.5,16.48514636230469,8.71645Q19.365646362304688,7.75629,19.365646362304688,6Q19.365646362304688,4.243707,16.48514636230469,3.283551ZM5.878566362304687,5.18092Q7.921316362304688,4.5,10.865646362304688,4.5Q13.809946362304688,4.5,15.852746362304687,5.18092Q16.725146362304688,5.4717199999999995,17.15724636230469,5.8123000000000005Q17.290046362304686,5.9169599999999996,17.34834636230469,6Q17.290046362304686,6.08303,17.15724636230469,6.1876999999999995Q16.725146362304688,6.5282800000000005,15.852746362304687,6.81908Q13.809946362304688,7.5,10.865646362304688,7.5Q7.921316362304688,7.5,5.878566362304687,6.81908Q5.006166362304688,6.5282800000000005,4.574006362304687,6.1876999999999995Q4.441196362304687,6.08303,4.382976362304688,6Q4.441196362304687,5.9169599999999996,4.574006362304687,5.8123000000000005Q5.006166362304688,5.4717199999999995,5.878566362304687,5.18092Z" fill-rule="evenodd" fill="#4464F8" fill-opacity="1"/></g><g><path d="M2.3656463623046875,14Q2.3656463623046875,13.9015086,2.3848613623046875,13.80491Q2.4040763623046875,13.708311,2.4417673623046876,13.617317Q2.4794583623046877,13.526322,2.5341763623046876,13.44443Q2.5888953623046875,13.362537,2.6585393623046873,13.292893Q2.7281833623046876,13.223249,2.8100763623046876,13.16853Q2.8919683623046875,13.113812,2.9829633623046874,13.076121Q3.0739573623046876,13.03843,3.1705563623046875,13.019214999999999Q3.2671549623046876,13,3.3656463623046875,13Q3.4641376623046876,13,3.5607363623046875,13.019214999999999Q3.6573353623046874,13.038429,3.7483293623046876,13.07612Q3.8393233623046874,13.113811,3.9212153623046877,13.16853Q4.003108362304688,13.223249,4.072752362304687,13.292892Q4.142396362304687,13.362536,4.197115362304688,13.444428Q4.251834362304687,13.526321,4.289525362304688,13.617315Q4.3272163623046875,13.708309,4.3464313623046875,13.804908Q4.3656463623046875,13.9015063,4.3656463623046875,13.99999749371L4.370246362304687,13.9806608Q4.425486362304687,14.0706534,4.574006362304687,14.187697Q5.006166362304688,14.528277,5.878566362304687,14.81908Q7.921316362304688,15.5,10.865646362304688,15.5Q11.505916362304687,15.5,12.130286362304687,15.46293Q12.737346362304688,15.42689,13.314696362304687,15.35671L13.316666362304687,15.35647Q13.376846362304688,15.34915,13.437446362304687,15.34915Q13.535946362304687,15.34915,13.632546362304687,15.36836Q13.729146362304688,15.38758,13.820146362304687,15.42527Q13.911146362304688,15.46296,13.993046362304687,15.51768Q14.074946362304688,15.5724,14.144546362304688,15.64204Q14.214146362304687,15.71169,14.268946362304687,15.79358Q14.323646362304688,15.87547,14.361346362304687,15.96647Q14.399046362304688,16.05746,14.418246362304687,16.15406Q14.437446362304687,16.25066,14.437446362304687,16.34915Q14.437446362304687,16.44001,14.421046362304688,16.52937Q14.404746362304687,16.61874,14.372446362304688,16.7037Q14.340246362304688,16.78865,14.293246362304687,16.866410000000002Q14.246246362304687,16.94416,14.186046362304687,17.01218Q14.125846362304687,17.08019,14.054246362304687,17.13624Q13.982746362304688,17.19228,13.902346362304687,17.23452Q13.821846362304688,17.27676,13.735146362304688,17.30381Q13.648446362304687,17.330849999999998,13.558246362304688,17.34183Q12.918596362304687,17.41965,12.248816362304687,17.45942Q11.565226362304687,17.5,10.865646362304688,17.5Q7.596766362304687,17.5,5.246106362304688,16.716450000000002Q2.3656463623046875,15.75629,2.3656463623046875,14Z" fill-rule="evenodd" fill="#4464F8" fill-opacity="1"/></g><g><path d="M2.3656463623046875,10Q2.3656463623046875,9.9015086,2.3848613623046875,9.80491Q2.4040763623046875,9.708311,2.4417673623046876,9.617317Q2.4794583623046877,9.526322,2.5341763623046876,9.44443Q2.5888953623046875,9.362537,2.6585393623046873,9.292893Q2.7281833623046876,9.223249,2.8100763623046876,9.16853Q2.8919683623046875,9.113812,2.9829633623046874,9.076121Q3.0739573623046876,9.03843,3.1705563623046875,9.019214999999999Q3.2671549623046876,9,3.3656463623046875,9Q3.4641376623046876,9,3.5607363623046875,9.019214999999999Q3.6573353623046874,9.038429,3.7483293623046876,9.07612Q3.8393233623046874,9.113811,3.9212153623046877,9.16853Q4.003108362304688,9.223249,4.072752362304687,9.292892Q4.142396362304687,9.362536,4.197115362304688,9.444428Q4.251834362304687,9.526321,4.289525362304688,9.617315Q4.3272163623046875,9.708309,4.3464313623046875,9.804908Q4.3656463623046875,9.9015063,4.3656463623046875,9.99999749371L4.370246362304687,9.9806608Q4.425486362304687,10.0706534,4.574006362304687,10.187697Q5.006166362304688,10.528277,5.878566362304687,10.81908Q7.921316362304688,11.5,10.865646362304688,11.5Q12.802666362304688,11.5,14.453646362304687,11.17835Q14.548346362304688,11.1599,14.644946362304687,11.1599Q14.743346362304688,11.1599,14.839946362304687,11.17911Q14.936546362304687,11.19833,15.027546362304687,11.23602Q15.118546362304688,11.27371,15.200446362304687,11.32843Q15.282346362304688,11.38315,15.352046362304687,11.45279Q15.421646362304687,11.52244,15.476346362304687,11.604330000000001Q15.531046362304687,11.68622,15.568746362304687,11.77722Q15.606446362304688,11.86821,15.625646362304687,11.96481Q15.644846362304687,12.06141,15.644946362304687,12.1599Q15.644846362304687,12.24626,15.630046362304688,12.33135Q15.615246362304687,12.41643,15.586146362304687,12.497720000000001Q15.556946362304688,12.579,15.514246362304688,12.65408Q15.471546362304688,12.72916,15.416646362304688,12.79581Q15.361746362304688,12.86247,15.296246362304688,12.91872Q15.230646362304688,12.97496,15.156446362304688,13.01914Q15.082246362304687,13.063320000000001,15.001546362304687,13.09413Q14.920846362304687,13.124929999999999,14.836146362304687,13.141449999999999Q12.995666362304688,13.5,10.865646362304688,13.5Q7.596766362304687,13.5,5.246106362304688,12.71645Q2.3656463623046875,11.75629,2.3656463623046875,10Z" fill-rule="evenodd" fill="#4464F8" fill-opacity="1"/></g><g><path d="M18.24335,14.930419921875C17.9989,14.930419921875,17.79001,15.107308921875,17.75001,15.348197921875L17.6549,15.917529921875C17.62735,16.083749921875,17.51623,16.222419921875,17.36868,16.303749921875C17.33579,16.322419921875,17.3029,16.341089921875,17.2709,16.360639921875C17.12646,16.447749921875,16.9509,16.474859921875,16.79268,16.415749921875L16.25223,16.213089921875C16.02322,16.127079921875,15.765592999999999,16.219409921875,15.643345,16.431309921875L15.066901,17.429969921875C14.9450341,17.641619921874998,14.99389087,17.910329921875,15.182457,18.065529921875L15.628679,18.433089921875002C15.758456,18.540199921875,15.822901,18.705089921875,15.81979,18.873969921875002C15.819095,18.911749921875,15.819095,18.949529921875,15.81979,18.987309921875C15.822901,19.155309921875002,15.758456,19.321089921875,15.628679,19.427749921874998L15.182457,19.795309921875C14.99365393,19.950559921874998,14.9447788,20.219559921875,15.066901,20.431309921875L15.643345,21.429969921875C15.765698,21.641489921875,16.02301,21.733589921875,16.25179,21.647749921875L16.79268,21.445089921875C16.9509,21.385969921875,17.12646,21.413089921875,17.2709,21.500199921875C17.30312,21.519639921875,17.33572,21.538459921875,17.36868,21.556639921875C17.51623,21.638419921875,17.62735,21.777089921875,17.6549,21.943309921875L17.74957,22.512639921875C17.79001,22.753529921875,17.99846,22.930419921875,18.2429,22.930419921875L19.395789999999998,22.930419921875C19.64023,22.930419921875,19.84912,22.753969921875,19.88912,22.512639921875L19.98379,21.943309921875C20.01179,21.777089921875,20.1229,21.638419921875,20.27001,21.557089921875C20.302970000000002,21.538769921875,20.33557,21.519799921875,20.36779,21.500199921875C20.51268,21.413089921875,20.68823,21.385979921875,20.84601,21.445089921875L21.3869,21.647749921875C21.61579,21.733509921875,21.87313,21.641209921875,21.995350000000002,21.429529921875L22.57223,20.430859921875C22.69401,20.219749921875,22.64512,19.950859921875,22.45668,19.795309921875L22.010460000000002,19.427749921874998C21.88023,19.320639921875,21.81579,19.155309921875002,21.81935,18.987309921875C21.819969999999998,18.949529921875,21.819969999999998,18.911749921875,21.81935,18.873979921875C21.81579,18.705529921875,21.88023,18.540199921875,22.010460000000002,18.433089921875002L22.456229999999998,18.065529921875C22.64504,17.910279921875,22.69391,17.641279921875,22.57179,17.429529921875L21.99579,16.430859921875C21.8734,16.219129921875002,21.61581,16.126999921875,21.3869,16.213089921875L20.84601,16.415749921875C20.68823,16.474859921875,20.51268,16.447749921875,20.36823,16.360639921875C20.33579,16.341089921875,20.303350000000002,16.321979921875,20.27046,16.304199921875C20.1229,16.222419921875,20.01179,16.083749921875,19.98379,15.917530921875L19.88912,15.348197921875C19.84912,15.107308921875,19.64023,14.930419921875,19.395789999999998,14.930419921875L18.24335,14.930419921875ZM18.81936,20.263839921875Q18.88486,20.263839921875,18.95005,20.257409921875002Q19.01523,20.250989921875,19.07948,20.238209921875Q19.143720000000002,20.225439921875,19.206400000000002,20.206419921875Q19.26908,20.187409921875002,19.3296,20.162339921875Q19.39012,20.137269921875,19.44789,20.106399921875Q19.50565,20.075519921875,19.56012,20.039129921875002Q19.61458,20.002739921875,19.665210000000002,19.961179921875Q19.71585,19.919629921875,19.76217,19.873309921875Q19.80848,19.826989921875,19.85004,19.776359921875Q19.89159,19.725729921875,19.927979999999998,19.671259921875Q19.96437,19.616799921875,19.99525,19.559029921875002Q20.026130000000002,19.501259921875,20.0512,19.440749921875Q20.07626,19.380229921875,20.09528,19.317549921875Q20.11429,19.254869921875,20.12707,19.190619921875Q20.13985,19.126379921875,20.14627,19.061189921875Q20.15269,18.995999921875,20.15269,18.930499921875Q20.15269,18.864999921875,20.14627,18.799809921875Q20.13985,18.734619921875,20.12707,18.670379921875Q20.11429,18.606139921875,20.09528,18.543459921874998Q20.07626,18.480769921875,20.0512,18.420259921875Q20.026130000000002,18.359739921875,19.99525,18.301969921875Q19.96437,18.244199921875,19.927979999999998,18.189739921875Q19.89159,18.135279921875,19.85004,18.084639921875Q19.80848,18.034009921875,19.76217,17.987689921875Q19.71585,17.941379921875,19.665210000000002,17.899819921875Q19.61458,17.858269921875,19.56012,17.821869921875Q19.50565,17.785479921875,19.44789,17.754609921875Q19.39012,17.723729921874998,19.3296,17.698659921875Q19.26908,17.673599921875,19.206400000000002,17.654579921875Q19.143720000000002,17.635569921875,19.07948,17.622789921875Q19.01523,17.610009921875,18.95005,17.603589921875Q18.88486,17.597169921875,18.81936,17.597169921875Q18.75385,17.597169921875,18.688670000000002,17.603589921875Q18.62348,17.610009921875,18.55924,17.622789921875Q18.49499,17.635569921875,18.43231,17.654579921875Q18.36963,17.673599921875,18.30911,17.698659921875Q18.2486,17.723729921874998,18.19083,17.754609921875Q18.13306,17.785479921875,18.0786,17.821869921875Q18.02413,17.858269921875,17.9735,17.899819921875Q17.92286,17.941379921875,17.87655,17.987689921875Q17.83023,18.034009921875,17.78868,18.084639921875Q17.74712,18.135279921875,17.710729999999998,18.189739921875Q17.67434,18.244199921875,17.64346,18.301969921875Q17.61258,18.359739921875,17.58752,18.420259921875Q17.56245,18.480769921875,17.54344,18.543459921874998Q17.52442,18.606139921875,17.51164,18.670379921875Q17.49886,18.734619921875,17.492440000000002,18.799809921875Q17.48602,18.864999921875,17.48602,18.930499921875Q17.48602,18.995999921875,17.492440000000002,19.061189921875Q17.49886,19.126379921875,17.51164,19.190619921875Q17.52442,19.254869921875,17.54344,19.317549921875Q17.56245,19.380229921875,17.58752,19.440749921875Q17.61258,19.501259921875,17.64346,19.559029921875002Q17.67434,19.616799921875,17.710729999999998,19.671259921875Q17.74712,19.725719921875,17.78868,19.776359921875Q17.83023,19.826989921875,17.87655,19.873309921875Q17.92286,19.919629921875,17.9735,19.961179921875Q18.02413,20.002739921875,18.0786,20.039129921875002Q18.13306,20.075519921875,18.19083,20.106399921875Q18.24859,20.137269921875,18.30911,20.162339921875Q18.36963,20.187409921875002,18.43231,20.206419921875Q18.49499,20.225439921875,18.55924,20.238209921875Q18.62348,20.250989921875,18.688670000000002,20.257409921875002Q18.75385,20.263839921875,18.81936,20.263839921875Z" fill-rule="evenodd" fill="#71C7FB" fill-opacity="1"/></g></g></svg>