<svg xmlns="http://www.w3.org/2000/svg" xmlns:xlink="http://www.w3.org/1999/xlink" fill="none" version="1.1" width="24" height="24" viewBox="0 0 24 24"><defs><clipPath id="master_svg0_630_28931"><rect x="0" y="0" width="24" height="24" rx="0"/></clipPath></defs><g clip-path="url(#master_svg0_630_28931)"><g><rect x="2" y="3" width="20" height="15" rx="2" fill="#3491FA" fill-opacity="1"/><path d="M1,16L1,5Q1,2,4,2L20,2Q23,2,23,5L23,16Q23,19,20,19L4,19Q1,19,1,16ZM3,16Q3,17,4,17L20,17Q21,17,21,16L21,5Q21,4,20,4L4,4Q3,4,3,5L3,16Z" fill="#3491FA" fill-opacity="1"/></g><g><path d="M5,20.5L19,20.5Q19.0985,20.5,19.1951,20.519215Q19.2917,20.538429999999998,19.3827,20.576121Q19.4737,20.613812,19.5556,20.66853Q19.6375,20.723249,19.7071,20.792893Q19.776699999999998,20.862537,19.8315,20.94443Q19.886200000000002,21.026322,19.9239,21.117317Q19.9616,21.208311,19.980800000000002,21.30491Q20,21.4015086,20,21.5Q20,21.5984914,19.980800000000002,21.69509Q19.9616,21.791689,19.9239,21.882683Q19.886200000000002,21.973678,19.8315,22.05557Q19.776699999999998,22.137463,19.7071,22.207107Q19.6375,22.276751,19.5556,22.33147Q19.4737,22.386188,19.3827,22.423879Q19.2917,22.461570000000002,19.1951,22.480785Q19.0985,22.5,19,22.5L5,22.5Q4.9015086,22.5,4.80491,22.480785Q4.708311,22.461570000000002,4.617317,22.423879Q4.526322,22.386188,4.44443,22.33147Q4.362537,22.276751,4.292893,22.207107Q4.223249,22.137463,4.16853,22.05557Q4.113812,21.973678,4.076121,21.882683Q4.03843,21.791689,4.019215,21.69509Q4,21.5984914,4,21.5Q4,21.4015086,4.019215,21.30491Q4.03843,21.208311,4.076121,21.117317Q4.113812,21.026322,4.16853,20.94443Q4.223249,20.862537,4.292893,20.792893Q4.362537,20.723249,4.44443,20.66853Q4.526322,20.613812,4.617317,20.576121Q4.708311,20.538429999999998,4.80491,20.519215Q4.9015086,20.5,5,20.5Z" fill-rule="evenodd" fill="#9FD4FD" fill-opacity="1"/></g><g><path d="M15.130447065429689,4.5L7.3043670654296875,4.5C8.024627065429687,4.5,8.608717065429687,5.084087,8.608717065429687,5.8043499999999995L8.608717065429687,15.1956C8.608717065429687,15.9159,9.192797065429687,16.5,9.913067065429686,16.5L16.434797065429688,16.5L16.434797065429688,5.8043499999999995C16.434797065429688,5.084087,15.850717065429688,4.5,15.130447065429689,4.5Z" fill="#FFFFFF" fill-opacity="1"/></g><g><path d="M7.3043499999999995,4.5C6.584087,4.5,6,5.084087,6,5.8043499999999995L8.608699999999999,5.8043499999999995C8.608699999999999,5.084087,8.02461,4.5,7.3043499999999995,4.5Z" fill="#9FD4FD" fill-opacity="1"/></g><g><path d="M11.217405419921874,15.195556640625C11.217405419921874,15.915817640625,10.633316419921876,16.499906640625,9.913055419921875,16.499906640625L16.695665419921873,16.499906640625C17.415925419921876,16.499906640625,18.000015419921873,15.915817640625,18.000015419921873,15.195556640625L11.217405419921874,15.195556640625Z" fill="#9FD4FD" fill-opacity="1"/></g><g><path d="M10.5,7L14.5,7Q14.54925,7,14.59755,7.009607Q14.64584,7.019215,14.69134,7.03806Q14.73684,7.056906,14.77778,7.084265Q14.81873,7.111625,14.85355,7.146447Q14.88837,7.181269,14.91573,7.222215Q14.94309,7.263161,14.96194,7.308658Q14.98078,7.354155,14.99039,7.4024549Q15,7.4507543,15,7.5Q15,7.5492457,14.99039,7.5975451Q14.98078,7.645845,14.96194,7.691342Q14.94309,7.736839,14.91573,7.777785Q14.88837,7.818731,14.85355,7.853553Q14.81873,7.888375,14.77778,7.915735Q14.73684,7.943094,14.69134,7.96194Q14.64584,7.980785,14.59755,7.990393Q14.54925,8,14.5,8L10.5,8Q10.4507543,8,10.4024549,7.990393Q10.354155,7.980785,10.308658,7.96194Q10.263161,7.943094,10.222215,7.915735Q10.181269,7.888375,10.146447,7.853553Q10.111625,7.818731,10.084265,7.777785Q10.056906,7.736839,10.03806,7.691342Q10.019214999999999,7.645845,10.009607,7.5975451Q10,7.5492457,10,7.5Q10,7.4507543,10.009607,7.4024549Q10.019214999999999,7.354155,10.03806,7.308658Q10.056906,7.263161,10.084265,7.222215Q10.111625,7.181269,10.146447,7.146447Q10.181269,7.111625,10.222215,7.084265Q10.263161,7.056906,10.308658,7.03806Q10.354155,7.019215,10.4024549,7.009607Q10.4507543,7,10.5,7Z" fill-rule="evenodd" fill="#9FD4FD" fill-opacity="1"/></g><g><path d="M10.5,9L14.5,9Q14.54925,9,14.59755,9.009607Q14.64584,9.019214999999999,14.69134,9.03806Q14.73684,9.056906,14.77778,9.084265Q14.81873,9.111625,14.85355,9.146447Q14.88837,9.181269,14.91573,9.222215Q14.94309,9.263161,14.96194,9.308658Q14.98078,9.354155,14.99039,9.4024549Q15,9.4507543,15,9.5Q15,9.5492457,14.99039,9.5975451Q14.98078,9.645845,14.96194,9.691342Q14.94309,9.736839,14.91573,9.777785Q14.88837,9.818731,14.85355,9.853553Q14.81873,9.888375,14.77778,9.915735Q14.73684,9.943094,14.69134,9.96194Q14.64584,9.980785000000001,14.59755,9.990393Q14.54925,10,14.5,10L10.5,10Q10.4507543,10,10.4024549,9.990393Q10.354155,9.980785000000001,10.308658,9.96194Q10.263161,9.943094,10.222215,9.915735Q10.181269,9.888375,10.146447,9.853553Q10.111625,9.818731,10.084265,9.777785Q10.056906,9.736839,10.03806,9.691342Q10.019214999999999,9.645845,10.009607,9.5975451Q10,9.5492457,10,9.5Q10,9.4507543,10.009607,9.4024549Q10.019214999999999,9.354155,10.03806,9.308658Q10.056906,9.263161,10.084265,9.222215Q10.111625,9.181269,10.146447,9.146447Q10.181269,9.111625,10.222215,9.084265Q10.263161,9.056906,10.308658,9.03806Q10.354155,9.019214999999999,10.4024549,9.009607Q10.4507543,9,10.5,9Z" fill-rule="evenodd" fill="#9FD4FD" fill-opacity="1"/></g><g><path d="M10.5,11L12.5,11Q12.54925,11,12.59754,11.009607Q12.64584,11.019214999999999,12.69134,11.03806Q12.73684,11.056906,12.77778,11.084265Q12.81873,11.111625,12.85355,11.146447Q12.88838,11.181269,12.91573,11.222215Q12.94309,11.263161,12.96194,11.308658Q12.98078,11.354155,12.99039,11.4024549Q13,11.4507543,13,11.5Q13,11.5492457,12.99039,11.5975451Q12.98078,11.645845,12.96194,11.691342Q12.94309,11.736839,12.91573,11.777785Q12.88838,11.818731,12.85355,11.853553Q12.81873,11.888375,12.77779,11.915735Q12.73684,11.943094,12.69134,11.96194Q12.64584,11.980785000000001,12.59754,11.990393Q12.54925,12,12.5,12L10.5,12Q10.4507543,12,10.4024549,11.990393Q10.354155,11.980785000000001,10.308658,11.96194Q10.263161,11.943094,10.222215,11.915735Q10.181269,11.888375,10.146447,11.853553Q10.111625,11.818731,10.084265,11.777785Q10.056906,11.736839,10.03806,11.691342Q10.019214999999999,11.645845,10.009607,11.5975451Q10,11.5492457,10,11.5Q10,11.4507543,10.009607,11.4024549Q10.019214999999999,11.354155,10.03806,11.308658Q10.056906,11.263161,10.084265,11.222215Q10.111625,11.181269,10.146447,11.146447Q10.181269,11.111625,10.222215,11.084265Q10.263161,11.056906,10.308658,11.03806Q10.354155,11.019214999999999,10.4024549,11.009607Q10.4507543,11,10.5,11Z" fill-rule="evenodd" fill="#9FD4FD" fill-opacity="1"/></g></g></svg>