<svg xmlns="http://www.w3.org/2000/svg" xmlns:xlink="http://www.w3.org/1999/xlink" fill="none" version="1.1" width="24" height="24" viewBox="0 0 24 24"><defs><clipPath id="master_svg0_732_38817"><rect x="0" y="0" width="24" height="24" rx="0"/></clipPath></defs><g clip-path="url(#master_svg0_732_38817)"><g><path d="M11,5Q11,4.9015086,11.019214999999999,4.80491Q11.03843,4.708311,11.076121,4.617317Q11.113812,4.526322,11.16853,4.44443Q11.223249,4.362537,11.292893,4.292893Q11.362537,4.223249,11.44443,4.16853Q11.526322,4.113812,11.617317,4.076121Q11.708311,4.03843,11.80491,4.019215Q11.9015086,4,12,4Q12.0984914,4,12.19509,4.019215Q12.291689,4.03843,12.382683,4.076121Q12.473678,4.113812,12.55557,4.16853Q12.637463,4.223249,12.707107,4.292893Q12.776751,4.362537,12.83147,4.44443Q12.886188,4.526322,12.923879,4.617317Q12.96157,4.708311,12.980785000000001,4.80491Q13,4.9015086,13,5L13,9Q13,9.09849,12.980785000000001,9.19509Q12.96157,9.29169,12.923879,9.38268Q12.886188,9.47368,12.83147,9.55557Q12.776751,9.63746,12.707107,9.70711Q12.637463,9.77675,12.55557,9.83147Q12.473678,9.88619,12.382683,9.92388Q12.291689,9.96157,12.19509,9.98078Q12.0984914,10,12,10Q11.9015086,10,11.80491,9.98078Q11.708311,9.96157,11.617317,9.92388Q11.526322,9.88619,11.44443,9.83147Q11.362537,9.77675,11.292893,9.70711Q11.223249,9.63746,11.16853,9.55557Q11.113812,9.47368,11.076121,9.38268Q11.03843,9.29169,11.019214999999999,9.19509Q11,9.09849,11,9L11,5Z" fill-rule="evenodd" fill="#165DFF" fill-opacity="1"/></g><g><path d="M1,13Q1,12.9015086,1.019215,12.80491Q1.03843,12.708311,1.076121,12.617317Q1.113812,12.526322,1.16853,12.44443Q1.223249,12.362537,1.2928929999999998,12.292893Q1.362537,12.223249,1.44443,12.16853Q1.526322,12.113812,1.617317,12.076121Q1.7083110000000001,12.03843,1.80491,12.019214999999999Q1.9015086,12,2,12Q2.0984914,12,2.19509,12.019214999999999Q2.291689,12.03843,2.382683,12.076121Q2.473678,12.113812,2.55557,12.16853Q2.637463,12.223249,2.707107,12.292893Q2.776751,12.362537,2.83147,12.44443Q2.8861879999999998,12.526322,2.923879,12.617317Q2.96157,12.708311,2.980785,12.80491Q3,12.9015086,3,13L3,17Q3,17.098489999999998,2.980785,17.19509Q2.96157,17.29169,2.923879,17.38268Q2.8861879999999998,17.47368,2.83147,17.55557Q2.776751,17.63746,2.707107,17.70711Q2.637463,17.77675,2.55557,17.83147Q2.473678,17.88619,2.382683,17.92388Q2.291689,17.961570000000002,2.19509,17.98078Q2.0984914,18,2,18Q1.9015086,18,1.80491,17.98078Q1.7083110000000001,17.961570000000002,1.617317,17.92388Q1.526322,17.88619,1.44443,17.83147Q1.362537,17.77675,1.2928929999999998,17.70711Q1.223249,17.63746,1.16853,17.55557Q1.113812,17.47368,1.076121,17.38268Q1.03843,17.29169,1.019215,17.19509Q1,17.098489999999998,1,17L1,13Z" fill-rule="evenodd" fill="#165DFF" fill-opacity="1"/></g><g><path d="M21,13Q21,12.9015086,21.019215,12.80491Q21.038429999999998,12.708311,21.076121,12.617317Q21.113812,12.526322,21.16853,12.44443Q21.223249,12.362537,21.292893,12.292893Q21.362537,12.223249,21.44443,12.16853Q21.526322,12.113812,21.617317,12.076121Q21.708311,12.03843,21.80491,12.019214999999999Q21.9015086,12,22,12Q22.0984914,12,22.19509,12.019214999999999Q22.291689,12.03843,22.382683,12.076121Q22.473678,12.113812,22.55557,12.16853Q22.637463,12.223249,22.707107,12.292893Q22.776751,12.362537,22.83147,12.44443Q22.886188,12.526322,22.923879,12.617317Q22.961570000000002,12.708311,22.980785,12.80491Q23,12.9015086,23,13L23,17Q23,17.098489999999998,22.980785,17.19509Q22.961570000000002,17.29169,22.923879,17.38268Q22.886188,17.47368,22.83147,17.55557Q22.776751,17.63746,22.707107,17.70711Q22.637463,17.77675,22.55557,17.83147Q22.473678,17.88619,22.382683,17.92388Q22.291689,17.961570000000002,22.19509,17.98078Q22.0984914,18,22,18Q21.9015086,18,21.80491,17.98078Q21.708311,17.961570000000002,21.617317,17.92388Q21.526322,17.88619,21.44443,17.83147Q21.362537,17.77675,21.292893,17.70711Q21.223249,17.63746,21.16853,17.55557Q21.113812,17.47368,21.076121,17.38268Q21.038429999999998,17.29169,21.019215,17.19509Q21,17.098489999999998,21,17L21,13Z" fill-rule="evenodd" fill="#165DFF" fill-opacity="1"/></g><g><path d="M4,13L4,17Q4,19.0711,5.46448,20.535600000000002Q6.92895,22.0001,9,22L15,22Q17.0711,22,18.5355,20.535600000000002Q20,19.071199999999997,20,17L20,13Q20,10.92893,18.5355,9.46436Q17.0711,7.999889374,15,8L9,8Q6.928929999999999,8,5.46448,9.46436Q4.0000114441,10.92882,4,13ZM10,14.5L10,15.5C10,16.05228,9.55228,16.5,9,16.5C8.44772,16.5,8,16.05228,8,15.5L8,14.5C8,13.94772,8.44772,13.5,9,13.5C9.55228,13.5,10,13.94772,10,14.5ZM16,15.5L16,14.5C16,13.94772,15.5523,13.5,15,13.5C14.4477,13.5,14,13.94772,14,14.5L14,15.5C14,16.05228,14.4477,16.5,15,16.5C15.5523,16.5,16,16.05228,16,15.5Z" fill-rule="evenodd" fill="#165DFF" fill-opacity="1"/></g><g><ellipse cx="12" cy="4" rx="1" ry="1" fill-opacity="0" stroke-opacity="1" stroke="#165DFF" fill="none" stroke-width="2"/></g></g></svg>