<svg xmlns="http://www.w3.org/2000/svg" xmlns:xlink="http://www.w3.org/1999/xlink" fill="none" version="1.1" width="24" height="24" viewBox="0 0 24 24"><defs><clipPath id="master_svg0_732_37882"><rect x="0" y="0" width="24" height="24" rx="0"/></clipPath></defs><g clip-path="url(#master_svg0_732_37882)"><g><path d="M4.57371,15.7253Q5.88445,18.7476,8.75798,19.7511Q8.43807,19.2804,8.147310000000001,18.698900000000002Q7.6744,17.7531,7.36154,16.6801Q5.93643,16.3179,4.57371,15.7253ZM9.0547,17.0258Q9.24849,17.5471,9.488949999999999,18.028Q10.599779999999999,20.2497,12,20.2497Q12.01,20.2497,12.02,20.25Q12.47542,20.2489,12.92626,20.1982Q12.96802,20.1935,13.01,20.1935Q13.0839,20.1935,13.1564,20.2079Q13.2288,20.2223,13.2971,20.2506Q13.3653,20.2788,13.4267,20.3199Q13.4881,20.3609,13.5404,20.4132Q13.5926,20.4654,13.6336,20.5268Q13.6747,20.5882,13.703,20.6565Q13.7312,20.7247,13.7456,20.7972Q13.76,20.8696,13.76,20.9435Q13.76,21.0121,13.7476,21.0795Q13.7352,21.1469,13.7107,21.211Q13.6863,21.2751,13.6506,21.3336Q13.6149,21.3922,13.5692,21.4433Q13.5235,21.4944,13.4693,21.5364Q13.4151,21.5784,13.3542,21.6099Q13.2932,21.6413,13.2276,21.6612Q13.162,21.6811,13.0938,21.6888Q12.5496,21.75,12.00005,21.75L11.98661,21.7499Q8.66084,21.7456,6.02989,19.7091Q3.393616,17.6684,2.557941,14.4411Q2.557038,14.4376,2.556169,14.4341Q2.248903,13.2361,2.250004,11.99933Q2.250004,9.43354,3.503951,7.21319Q6.30023,2.248131,11.99915,2.250001L11.99925,2.250001L11.99933,2.250001L11.99969,2.250001L12,2.250001L12.00032,2.250001L12.00068,2.250001L12.00075,2.250001L12.00085,2.250001Q17.698900000000002,2.248132,20.4956,7.21245L20.4961,7.21335L20.4962,7.21349L20.4965,7.21396L20.4968,7.21446Q21.7541,9.44265,21.75,12.0012Q21.75,12.80956,21.6185,13.6041Q21.6077,13.6694,21.5857,13.7317Q21.5637,13.794,21.531,13.8516Q21.4984,13.9091,21.4563,13.96Q21.4141,14.0109,21.3637,14.0537Q21.3133,14.0964,21.2561,14.1297Q21.199,14.163,21.137,14.1858Q21.0749,14.2086,21.0098,14.2201Q20.9447,14.2317,20.8786,14.2317Q20.8047,14.2317,20.7323,14.2173Q20.6598,14.2029,20.5916,14.1746Q20.5233,14.1463,20.4619,14.1053Q20.4005,14.0643,20.3482,14.012Q20.296,13.9598,20.255,13.8984Q20.2139,13.837,20.1857,13.7687Q20.1574,13.7005,20.143,13.628Q20.1286,13.5556,20.1286,13.4817Q20.1286,13.4201,20.1386,13.3593Q20.25,12.68628,20.25,11.9988Q20.2527,10.28792,19.5884,8.751750000000001Q18.4349,9.61984,17.1692,10.18629Q17.25,11.06105,17.25,12Q17.25,12.77989,17.186700000000002,13.5437Q17.180999999999997,13.6134,17.162399999999998,13.6808Q17.1438,13.7483,17.1131,13.8111Q17.0824,13.874,17.0405,13.9301Q16.9987,13.9862,16.9473,14.0335Q16.8958,14.0809,16.836399999999998,14.118Q16.7771,14.155,16.7119,14.1804Q16.6467,14.2059,16.578,14.2188Q16.5092,14.2318,16.4393,14.2318Q16.3654,14.2318,16.293,14.2173Q16.2205,14.2029,16.1523,14.1747Q16.084,14.1464,16.0226,14.1054Q15.9612,14.0643,15.909,14.0121Q15.8567,13.9599,15.8157,13.8984Q15.7746,13.837,15.7464,13.7688Q15.7181,13.7005,15.7037,13.6281Q15.6893,13.5556,15.6893,13.4818Q15.6893,13.4507,15.6918,13.4198Q15.75,12.71786,15.75,12Q15.75,11.34613,15.708,10.728629999999999Q13.9515,11.25281,11.99892,11.25Q10.04758,11.25,8.292200000000001,10.72578Q8.25,11.34448,8.25,11.99971Q8.25,13.8563,8.588799999999999,15.4197Q10.24946,15.75,12,15.75Q12.47983,15.7508,12.95778,15.7248Q12.97806,15.7237,12.99838,15.7237Q13.0722,15.7237,13.1447,15.7381Q13.2171,15.7526,13.2854,15.7808Q13.3536,15.8091,13.4151,15.8501Q13.4765,15.8912,13.5287,15.9434Q13.5809,15.9956,13.622,16.0571Q13.663,16.118499999999997,13.6913,16.186700000000002Q13.7196,16.255000000000003,13.734,16.3274Q13.7484,16.399900000000002,13.7484,16.4737Q13.7484,16.545,13.7349,16.615099999999998Q13.7215,16.6851,13.6951,16.7513Q13.6687,16.8176,13.6303,16.8777Q13.5919,16.9377,13.5429,16.9895Q13.4938,17.0413,13.4359,17.082900000000002Q13.378,17.124499999999998,13.3133,17.154400000000003Q13.2486,17.1844,13.1794,17.2016Q13.1102,17.2188,13.039,17.2226Q12.5193,17.250799999999998,12,17.25Q10.49698,17.25,9.0547,17.0258ZM6.83104,10.18351Q6.75,11.05942,6.75,11.99971Q6.75,13.602,6.98531,15.0174Q5.41866,14.5407,3.9364090000000003,13.7538Q3.749212,12.88908,3.750003,12.00067Q3.750003,10.283470000000001,4.41209,8.75102Q5.56542,9.61748,6.83104,10.18351ZM8.468630000000001,9.20607Q10.13293,9.75,12.00108,9.75Q13.8681,9.752690000000001,15.5318,9.209050000000001Q15.2301,7.40973,14.5111,5.97166Q13.4004,3.7502459999999997,12.00031,3.750001L12,3.750001L11.99969,3.750001L11.99915,3.750001Q10.59942,3.750676,9.48894,5.97153Q8.77046,7.40843,8.468630000000001,9.20607ZM8.68552,4.3571100000000005Q8.40498,4.78537,8.147310000000001,5.30068Q7.39639,6.80247,7.04901,8.624839999999999Q6.05026,8.12874,5.13349,7.41391Q6.53337,5.24144,8.68552,4.3571100000000005ZM15.3143,4.35695Q15.595,4.78535,15.8527,5.30084Q16.604100000000003,6.80365,16.9514,8.62743Q17.95,8.130790000000001,18.8669,7.41442Q17.467,5.241350000000001,15.3143,4.35695Z" fill-rule="evenodd" fill="#165DFF" fill-opacity="1"/></g><g><path d="M18.24335,14.930419921875C17.9989,14.930419921875,17.79001,15.107308921875,17.75001,15.348197921875L17.6549,15.917529921875C17.62735,16.083749921875,17.51623,16.222419921875,17.36868,16.303749921875C17.33579,16.322419921875,17.3029,16.341089921875,17.2709,16.360639921875C17.12646,16.447749921875,16.9509,16.474859921875,16.79268,16.415749921875L16.25223,16.213089921875C16.02322,16.127079921875,15.765592999999999,16.219409921875,15.643345,16.431309921875L15.066901,17.429969921875C14.9450341,17.641619921874998,14.99389087,17.910329921875,15.182457,18.065529921875L15.628679,18.433089921875002C15.758456,18.540199921875,15.822901,18.705089921875,15.81979,18.873969921875002C15.819095,18.911749921875,15.819095,18.949529921875,15.81979,18.987309921875C15.822901,19.155309921875002,15.758456,19.321089921875,15.628679,19.427749921874998L15.182457,19.795309921875C14.99365393,19.950559921874998,14.9447788,20.219559921875,15.066901,20.431309921875L15.643345,21.429969921875C15.765698,21.641489921875,16.02301,21.733589921875,16.25179,21.647749921875L16.79268,21.445089921875C16.9509,21.385969921875,17.12646,21.413089921875,17.2709,21.500199921875C17.30312,21.519639921875,17.33572,21.538459921875,17.36868,21.556639921875C17.51623,21.638419921875,17.62735,21.777089921875,17.6549,21.943309921875L17.74957,22.512639921875C17.79001,22.753529921875,17.99846,22.930419921875,18.2429,22.930419921875L19.395789999999998,22.930419921875C19.64023,22.930419921875,19.84912,22.753969921875,19.88912,22.512639921875L19.98379,21.943309921875C20.01179,21.777089921875,20.1229,21.638419921875,20.27001,21.557089921875C20.302970000000002,21.538769921875,20.33557,21.519799921875,20.36779,21.500199921875C20.51268,21.413089921875,20.68823,21.385979921875,20.84601,21.445089921875L21.3869,21.647749921875C21.61579,21.733509921875,21.87313,21.641209921875,21.995350000000002,21.429529921875L22.57223,20.430859921875C22.69401,20.219749921875,22.64512,19.950859921875,22.45668,19.795309921875L22.010460000000002,19.427749921874998C21.88023,19.320639921875,21.81579,19.155309921875002,21.81935,18.987309921875C21.819969999999998,18.949529921875,21.819969999999998,18.911749921875,21.81935,18.873979921875C21.81579,18.705529921875,21.88023,18.540199921875,22.010460000000002,18.433089921875002L22.456229999999998,18.065529921875C22.64504,17.910279921875,22.69391,17.641279921875,22.57179,17.429529921875L21.99579,16.430859921875C21.8734,16.219129921875002,21.61581,16.126999921875,21.3869,16.213089921875L20.84601,16.415749921875C20.68823,16.474859921875,20.51268,16.447749921875,20.36823,16.360639921875C20.33579,16.341089921875,20.303350000000002,16.321979921875,20.27046,16.304199921875C20.1229,16.222419921875,20.01179,16.083749921875,19.98379,15.917530921875L19.88912,15.348197921875C19.84912,15.107308921875,19.64023,14.930419921875,19.395789999999998,14.930419921875L18.24335,14.930419921875ZM18.81936,20.263839921875Q18.88486,20.263839921875,18.95005,20.257409921875002Q19.01523,20.250989921875,19.07948,20.238209921875Q19.143720000000002,20.225439921875,19.206400000000002,20.206419921875Q19.26908,20.187409921875002,19.3296,20.162339921875Q19.39012,20.137269921875,19.44789,20.106399921875Q19.50565,20.075519921875,19.56012,20.039129921875002Q19.61458,20.002739921875,19.665210000000002,19.961179921875Q19.71585,19.919629921875,19.76217,19.873309921875Q19.80848,19.826989921875,19.85004,19.776359921875Q19.89159,19.725729921875,19.927979999999998,19.671259921875Q19.96437,19.616799921875,19.99525,19.559029921875002Q20.026130000000002,19.501259921875,20.0512,19.440749921875Q20.07626,19.380229921875,20.09528,19.317549921875Q20.11429,19.254869921875,20.12707,19.190619921875Q20.13985,19.126379921875,20.14627,19.061189921875Q20.15269,18.995999921875,20.15269,18.930499921875Q20.15269,18.864999921875,20.14627,18.799809921875Q20.13985,18.734619921875,20.12707,18.670379921875Q20.11429,18.606139921875,20.09528,18.543459921874998Q20.07626,18.480769921875,20.0512,18.420259921875Q20.026130000000002,18.359739921875,19.99525,18.301969921875Q19.96437,18.244199921875,19.927979999999998,18.189739921875Q19.89159,18.135279921875,19.85004,18.084639921875Q19.80848,18.034009921875,19.76217,17.987689921875Q19.71585,17.941379921875,19.665210000000002,17.899819921875Q19.61458,17.858269921875,19.56012,17.821869921875Q19.50565,17.785479921875,19.44789,17.754609921875Q19.39012,17.723729921874998,19.3296,17.698659921875Q19.26908,17.673599921875,19.206400000000002,17.654579921875Q19.143720000000002,17.635569921875,19.07948,17.622789921875Q19.01523,17.610009921875,18.95005,17.603589921875Q18.88486,17.597169921875,18.81936,17.597169921875Q18.75385,17.597169921875,18.688670000000002,17.603589921875Q18.62348,17.610009921875,18.55924,17.622789921875Q18.49499,17.635569921875,18.43231,17.654579921875Q18.36963,17.673599921875,18.30911,17.698659921875Q18.2486,17.723729921874998,18.19083,17.754609921875Q18.13306,17.785479921875,18.0786,17.821869921875Q18.02413,17.858269921875,17.9735,17.899819921875Q17.92286,17.941379921875,17.87655,17.987689921875Q17.83023,18.034009921875,17.78868,18.084639921875Q17.74712,18.135279921875,17.710729999999998,18.189739921875Q17.67434,18.244199921875,17.64346,18.301969921875Q17.61258,18.359739921875,17.58752,18.420259921875Q17.56245,18.480769921875,17.54344,18.543459921874998Q17.52442,18.606139921875,17.51164,18.670379921875Q17.49886,18.734619921875,17.492440000000002,18.799809921875Q17.48602,18.864999921875,17.48602,18.930499921875Q17.48602,18.995999921875,17.492440000000002,19.061189921875Q17.49886,19.126379921875,17.51164,19.190619921875Q17.52442,19.254869921875,17.54344,19.317549921875Q17.56245,19.380229921875,17.58752,19.440749921875Q17.61258,19.501259921875,17.64346,19.559029921875002Q17.67434,19.616799921875,17.710729999999998,19.671259921875Q17.74712,19.725719921875,17.78868,19.776359921875Q17.83023,19.826989921875,17.87655,19.873309921875Q17.92286,19.919629921875,17.9735,19.961179921875Q18.02413,20.002739921875,18.0786,20.039129921875002Q18.13306,20.075519921875,18.19083,20.106399921875Q18.24859,20.137269921875,18.30911,20.162339921875Q18.36963,20.187409921875002,18.43231,20.206419921875Q18.49499,20.225439921875,18.55924,20.238209921875Q18.62348,20.250989921875,18.688670000000002,20.257409921875002Q18.75385,20.263839921875,18.81936,20.263839921875Z" fill-rule="evenodd" fill="#7BC0FC" fill-opacity="1"/></g></g></svg>