<svg xmlns="http://www.w3.org/2000/svg" xmlns:xlink="http://www.w3.org/1999/xlink" fill="none" version="1.1" width="24"
  height="24" viewBox="0 0 24 24">
  <defs>
    <clipPath id="master_svg0_732_33495">
      <rect x="0" y="0" width="24" height="24" rx="0" />
    </clipPath>
  </defs>
  <g clip-path="url(#master_svg0_732_33495)">
    <g>
      <path
        d="M2 5C2 3.34314575050762 3.34314575050762 2 5 2L19 2C20.65685424949238 2 22 3.34314575050762 22 5L22 8C22 8 22 8 22 8L2 8C2 8 2 8 2 8Z"
        fill="#F9CC45" fill-opacity="1" />
    </g>
    <g>
      <path
        d="M2 8C2 8 2 8 2 8L22 8C22 8 22 8 22 8L22 19C22 20.65685424949238 20.65685424949238 22 19 22L5 22C3.34314575050762 22 2 20.65685424949238 2 19Z"
        fill="#FF7D00" fill-opacity="1" />
    </g>
    <g style="opacity:0.5;">
      <path d="M8.5,8L8.50000550225,12.66667L15.5,12.66667L15.5,8L8.5,8Z" fill="#FFCF8B" fill-opacity="1" />
    </g>
    <g style="opacity:0.6000000238418579;">
      <path d="M15.5,8L15.50000510924,12.66667L22,12.66667L22,8L15.5,8Z" fill="#FFCF8B" fill-opacity="1" />
    </g>
    <g style="opacity:0.30000001192092896;">
      <path d="M2,8L2.00000510924,12.66667L8.5,12.66667L8.5,8L2,8Z" fill="#FFCF8B" fill-opacity="1" />
    </g>
    <g style="opacity:0.30000001192092896;">
      <path
        d="M8.5,17.333251953125L8.50000550225,21.999921953125L15.5,21.999921953125L15.5,17.333251953125L8.5,17.333251953125Z"
        fill="#FFCF8B" fill-opacity="1" />
    </g>
    <g style="opacity:0.4000000059604645;">
      <path
        d="M15.5,17.333251953125L15.50000510924,21.999921953125L17.33333,21.999921953125C18.88784,21.999921953125,19.68532,21.996521953125,20.28603,21.711071953125C20.90965,21.414731953125,21.41481,20.909561953125,21.71115,20.285951953125C21.9966,19.685231953125,22,18.887751953125,22,17.333251953125L15.5,17.333251953125Z"
        fill="#FFCF8B" fill-opacity="1" />
    </g>
    <g style="opacity:0.10000000149011612;">
      <path
        d="M2,17.333251953125C2,18.887761953125,2.00339755,19.685241953125,2.288853,20.285951953125C2.585191,20.909571953125,3.09035,21.414731953125,3.7139699999999998,21.711071953125C4.31468,21.996521953125,5.11217,21.999921953125,6.66667,21.999921953125L8.5,21.999921953125L8.5,17.333251953125L2,17.333251953125Z"
        fill="#FFCF8B" fill-opacity="1" />
    </g>
    <g style="opacity:0.4000000059604645;">
      <path
        d="M8.5,12.666748046875L8.50000550225,17.333418046875L15.5,17.333418046875L15.5,12.666748046875L8.5,12.666748046875Z"
        fill="#FFCF8B" fill-opacity="1" />
    </g>
    <g style="opacity:0.5;">
      <path
        d="M15.5,12.666748046875L15.50000510924,17.333418046875L22,17.333418046875L22,12.666748046875L15.5,12.666748046875Z"
        fill="#FFCF8B" fill-opacity="1" />
    </g>
    <g style="opacity:0.20000000298023224;">
      <path
        d="M2,12.666748046875L2.00000510924,17.333418046875L8.5,17.333418046875L8.5,12.666748046875L2,12.666748046875Z"
        fill="#FFCF8B" fill-opacity="1" />
    </g>
    <g>
      <path
        d="M18.9990786328125,17.001829999999998C18.9987286328125,15.659177,20.2952386328125,14.69756,21.5799986328125,15.0875703C21.7865586328125,15.150143,21.8518186328125,15.41035,21.699238632812502,15.562993L20.4344886328125,16.82736C20.4584886328125,17.00831,20.5396286328125,17.18317,20.6786786328125,17.32221C20.8177286328125,17.46126,20.9925786328125,17.5424,21.1739086328125,17.56602L22.437898632812498,16.30165C22.5905386328125,16.149070000000002,22.8507486328125,16.21433,22.913318632812498,16.42089C23.3243086328125,17.77459,22.2383186328125,19.11541,20.8287686328125,18.99457C20.4409686328125,18.96181,20.1163986328125,19.03267,19.9491686328125,19.23609L17.2253886328125,22.544629999999998C16.7533186328125,23.11506,15.8928126328125,23.15562,15.3691866328125,22.6321C14.8455606328125,22.10859,14.885928632812501,21.24808,15.4562636328125,20.77589L18.7644186328125,18.05173C18.9674586328125,17.88411,19.0386986328125,17.559919999999998,19.0059386328125,17.17212C19.0012786328125,17.115479999999998,18.998988632812498,17.05867,18.9990786328125,17.001829999999998Z"
        fill-rule="evenodd" fill="#FFFFFF" fill-opacity="1" />
      <path
        d="M17.9990786328125,17.00019Q17.9988686328125,17.12736,18.0093086328125,17.25414L18.0094886328125,17.2563Q18.0153586328125,17.3258,18.0138786328125,17.37435L14.8185426328125,20.00562Q14.0503236328125,20.64164,14.0035886328125,21.63789Q13.9568486328125,22.634140000000002,14.6621566328125,23.33929Q15.3674596328125,24.04444,16.3636986328125,23.99749Q17.3599286328125,23.95054,17.9974186328125,23.180210000000002L20.6266286328125,19.98655Q20.6747886328125,19.985129999999998,20.7433586328125,19.99092Q22.3291086328125,20.12686,23.330828632812498,18.89008Q24.3325586328125,17.6533,23.8703686328125,16.13096Q23.659178632812498,15.433836,22.9526486328125,15.256637Q22.863758632812498,15.234342,22.7778886328125,15.223008Q22.7665486328125,15.137138,22.7442586328125,15.0482382Q22.5670586328125,14.341708,21.8704786328125,14.130688Q20.4251086328125,13.69193,19.2118986328125,14.591763Q17.9986886328125,15.4916,17.9990786328125,17.00019ZM19.934808632812498,17.9916Q19.9195086328125,18.04645,19.9012786328125,18.09916Q19.9539886328125,18.08094,20.0088486328125,18.06566Q19.9900586328125,18.04781,19.9715686328125,18.02932Q19.9528686328125,18.01061,19.934808632812498,17.9916ZM18.1373786328125,19.86349L16.0939886328125,21.54615Q16.0066986328125,21.61842,16.0013886328125,21.73161Q15.9960806328125,21.8448,16.0762186328125,21.92492Q16.1563486328125,22.00504,16.2695486328125,21.99971Q16.3827386328125,21.99437,16.4533486328125,21.90904L18.1373786328125,19.86349Z"
        fill-rule="evenodd" fill="#FFFFFF" fill-opacity="1" />
    </g>
    <g>
      <path
        d="M18.9990786328125,17.001829999999998C18.9987286328125,15.659177,20.2952386328125,14.69756,21.5799986328125,15.0875703C21.7865586328125,15.150143,21.8518186328125,15.41035,21.699238632812502,15.562993L20.4344886328125,16.82736C20.4584886328125,17.00831,20.5396286328125,17.18317,20.6786786328125,17.32221C20.8177286328125,17.46126,20.9925786328125,17.5424,21.1739086328125,17.56602L22.437898632812498,16.30165C22.5905386328125,16.149070000000002,22.8507486328125,16.21433,22.913318632812498,16.42089C23.3243086328125,17.77459,22.2383186328125,19.11541,20.8287686328125,18.99457C20.4409686328125,18.96181,20.1163986328125,19.03267,19.9491686328125,19.23609L17.2253886328125,22.544629999999998C16.7533186328125,23.11506,15.8928126328125,23.15562,15.3691866328125,22.6321C14.8455606328125,22.10859,14.885928632812501,21.24808,15.4562636328125,20.77589L18.7644186328125,18.05173C18.9674586328125,17.88411,19.0386986328125,17.559919999999998,19.0059386328125,17.17212C19.0012786328125,17.115479999999998,18.998988632812498,17.05867,18.9990786328125,17.001829999999998ZM15.9960666328125,21.716070000000002C15.9960666328125,21.55827,16.123988632812498,21.43035,16.2817786328125,21.43035L16.2848286328125,21.43035C16.4426186328125,21.43035,16.5705386328125,21.55827,16.5705386328125,21.716070000000002L16.5705386328125,21.71911C16.5705386328125,21.87691,16.4426186328125,22.00482,16.2848286328125,22.00482L16.2817786328125,22.00482C16.123988632812498,22.00482,15.9960666328125,21.87691,15.9960666328125,21.71911L15.9960666328125,21.716070000000002Z"
        fill-rule="evenodd" fill="#D25F00" fill-opacity="1" />
    </g>
  </g>
  <style>
      .month {
          font-size: 4px;
          font-weight: 600;
          fill: #792E00;
          text-anchor: middle;
      }
      .day {
          font-size: 12px;
          font-weight: 600;
          fill: #fff;
          text-anchor: middle;
          dominant-baseline: middle;
      }
  </style>
  <text x="50%" y="6.75" class="month">MMM</text>
  <text x="50%" y="15.5" class="day">DD</text>
</svg>