<svg xmlns="http://www.w3.org/2000/svg" xmlns:xlink="http://www.w3.org/1999/xlink" fill="none" version="1.1" width="24" height="24" viewBox="0 0 24 24"><defs><clipPath id="master_svg0_732_41796"><rect x="0" y="0" width="24" height="24" rx="0"/></clipPath></defs><g clip-path="url(#master_svg0_732_41796)"><g><path d="M2.25,6.5C2.25,8.98528,4.2647200000000005,11,6.75,11L9.173079999999999,11C10.32013,11,11.25,10.07013,11.25,8.923079999999999L11.25,6.5C11.25,4.0147200000000005,9.23528,2,6.75,2C4.2647200000000005,2,2.25,4.0147200000000005,2.25,6.5Z" fill="#165DFF" fill-opacity="1"/></g><g transform="matrix(1,0,0,-1,0,43)"><path d="M2.25,26C2.25,28.48528,4.2647200000000005,30.5,6.75,30.5L9.173079999999999,30.5C10.32013,30.5,11.25,29.57013,11.25,28.42308L11.25,26C11.25,23.51472,9.23528,21.5,6.75,21.5C4.2647200000000005,21.5,2.25,23.51472,2.25,26Z" fill="#165DFF" fill-opacity="1"/></g><g transform="matrix(-1,0,0,1,43.5,0)"><path d="M21.75,6.5C21.75,8.98528,23.76472,11,26.25,11L28.67308,11C29.82013,11,30.75,10.07013,30.75,8.923079999999999L30.75,6.5C30.75,4.0147200000000005,28.73528,2,26.25,2C23.76472,2,21.75,4.0147200000000005,21.75,6.5Z" fill="#165DFF" fill-opacity="1"/></g><g transform="matrix(0,1,-1,0,34.25,-9.25)"><ellipse cx="26.25" cy="17" rx="4.5" ry="4.5" fill="#7BC0FC" fill-opacity="1"/></g><g><path d="M17.8125,14.8030925Q17.815,14.7766051,17.815,14.75Q17.815,14.6943524,17.804144,14.639774Q17.793287,14.585196,17.771992,14.533784Q17.750696,14.482372,17.71978,14.436103Q17.688864,14.389834,17.649515,14.350485Q17.610166,14.311136,17.563897,14.28022Q17.517628,14.249304,17.466216,14.228007999999999Q17.414804,14.206713,17.360226,14.195856Q17.3056476,14.185,17.25,14.185Q17.1943524,14.185,17.139774,14.195856Q17.085196,14.206713,17.033784,14.228007999999999Q16.982372,14.249304,16.936103,14.28022Q16.889834,14.311136,16.850485,14.350485Q16.811136,14.389834,16.78022,14.436103Q16.749304,14.482372,16.728008,14.533784Q16.706713,14.585196,16.695856,14.639774Q16.685,14.6943524,16.685,14.75Q16.685,14.7766051,16.6875,14.8030925L16.6875,17Q16.6875,17.0554,16.698308,17.10974Q16.709117,17.16407,16.730318,17.21526Q16.751519,17.26644,16.782298,17.31251Q16.813078,17.35857,16.852252,17.39775Q16.891427,17.43692,16.937492,17.4677Q16.983556,17.49848,17.034741,17.51968Q17.085925,17.54088,17.140262,17.55169Q17.1945986,17.5625,17.25,17.5625L18.99691,17.5625Q19.02339,17.565,19.05,17.565Q19.10565,17.565,19.16023,17.55414Q19.2148,17.54329,19.26622,17.52199Q19.31763,17.500700000000002,19.3639,17.46978Q19.41017,17.43886,19.44952,17.39952Q19.48886,17.36017,19.51978,17.3139Q19.5507,17.26763,19.57199,17.21622Q19.59329,17.1648,19.60414,17.11023Q19.615000000000002,17.05565,19.615000000000002,17Q19.615000000000002,16.94435,19.60414,16.88977Q19.59329,16.8352,19.57199,16.78378Q19.5507,16.73237,19.51978,16.6861Q19.48886,16.63983,19.44952,16.60048Q19.41017,16.56114,19.3639,16.53022Q19.31763,16.4993,19.26622,16.47801Q19.2148,16.45671,19.16023,16.44586Q19.10565,16.435,19.05,16.435Q19.0234,16.435,18.99691,16.4375L17.8125,16.4375L17.8125,14.8030925Z" fill-rule="evenodd" fill="#FFFFFF" fill-opacity="1"/></g></g></svg>