<svg xmlns="http://www.w3.org/2000/svg" xmlns:xlink="http://www.w3.org/1999/xlink" fill="none" version="1.1" width="24" height="24" viewBox="0 0 24 24"><defs><clipPath id="master_svg0_644_31824"><rect x="0" y="0" width="24" height="24" rx="0"/></clipPath></defs><g clip-path="url(#master_svg0_644_31824)"><g><path d="M12.00024318359375,7.000904453125C11.99936318359375,3.644934453125,15.23996318359375,1.241365453125,18.45126318359375,2.216196453125C18.96756318359375,2.372598453125,19.13066318359375,3.022984453125,18.74926318359375,3.404524453125L15.58806318359375,6.564814453125C15.64806318359375,7.017094453125,15.85086318359375,7.454144453125,16.19836318359375,7.801694453125C16.54596318359375,8.149244453125,16.98296318359375,8.352054453125,17.436263183593752,8.411094453125L20.59556318359375,5.250804453125C20.97716318359375,4.869434453125,21.62746318359375,5.032554453125,21.78386318359375,5.548834453125C22.81116318359375,8.932424453125,20.09676318359375,12.283814453125,16.57356318359375,11.981774453125C15.60426318359375,11.899884453125,14.79296318359375,12.077014453125,14.37496318359375,12.585414453125L7.56688318359375,20.855114453125C6.38694318359375,22.280914453125,4.23610318359375,22.382314453125,2.92730118359375,21.073814453125C1.61849518359375,19.765314453125,1.71939418359375,17.614414453125,3.14495318359375,16.434214453125L11.41369318359375,9.625124453125C11.92121318359375,9.206164453125,12.09926318359375,8.395854453125,12.01736318359375,7.426534453125C12.00572318359375,7.284964453125,12.00001318359375,7.142964453125,12.00024318359375,7.000904453125ZM4.49419318359375,18.784114453125C4.49419318359375,18.389714453125,4.81392318359375,18.070014453125,5.20833318359375,18.070014453125L5.21594318359375,18.070014453125C5.61035318359375,18.070014453125,5.93008318359375,18.389714453125,5.93008318359375,18.784114453125L5.93008318359375,18.791814453125C5.93008318359375,19.186214453125,5.61035318359375,19.505914453125,5.21594318359375,19.505914453125L5.20833318359375,19.505914453125C4.81392318359375,19.505914453125,4.49419318359375,19.186214453125,4.49419318359375,18.791814453125L4.49419318359375,18.784114453125Z" fill-rule="evenodd" fill="#00B42A" fill-opacity="1"/></g><g><path d="M10.168249658203125,8.800374296874999L8.072489658203125,6.705574296875L8.072489658203125,5.214454296875C8.072479658203125,4.963674296875,7.940919658203125,4.731274296875,7.725899658203125,4.602204296875L4.155219658203125,2.459792296875C3.874219658203125,2.291348196875,3.514659658203125,2.335705296875,3.283020658203125,2.567388296875L2.568883658203125,3.281525296875C2.337200758203125,3.513164296875,2.292843558203125,3.872724296875,2.461287658203125,4.153724296875L4.603699658203125,7.724404296875C4.732789658203124,7.939434296875,4.9651896582031245,8.071004296875,5.215949658203125,8.070994296875L6.705159658203125,8.070994296875L8.668559658203126,10.034394296875L10.168249658203125,8.799414296875L10.168249658203125,8.800374296874999Z" fill="#4CD263" fill-opacity="1"/></g><g><path d="M12.529632568359375,17.0739578125L16.512612568359376,21.0559778125C17.767612568359375,22.3109778125,19.802372568359374,22.3109778125,21.057372568359376,21.0559778125C22.312372568359375,19.8009778125,22.312372568359375,17.7662178125,21.057372568359376,16.5112178125L17.909462568359373,13.3642578125C17.426932568359376,13.4326655125,16.938232568359375,13.4464001125,16.452622568359374,13.4052018125C16.077462568359376,13.3728272825,15.803232568359375,13.3994891125,15.627082568359375,13.4451933125C15.571332568359376,13.4569955125,15.517712568359375,13.4772228125,15.468062568359375,13.5051808125L12.529632568359375,17.0739578125ZM15.780382568359375,15.7789878125C16.059192568359375,15.5005178125,16.510872568359375,15.5005178125,16.789692568359374,15.7789878125L18.575032568359376,17.5652778125C18.870812568359376,17.8408878125,18.879042568359374,18.3068578125,18.593162568359375,18.5927278125C18.307292568359376,18.8785978125,17.841332568359377,18.8703778125,17.565722568359377,18.574597812500002L15.780382568359375,16.7892578125C15.501912568359375,16.5104378125,15.501912568359375,16.0587578125,15.780382568359375,15.7799378125L15.780382568359375,15.7789878125Z" fill-rule="evenodd" fill="#4CD263" fill-opacity="1"/></g></g></svg>