<svg xmlns="http://www.w3.org/2000/svg" xmlns:xlink="http://www.w3.org/1999/xlink" fill="none" version="1.1" width="24" height="24" viewBox="0 0 24 24"><defs><clipPath id="master_svg0_644_31754"><rect x="0" y="0" width="24" height="24" rx="0"/></clipPath></defs><g clip-path="url(#master_svg0_644_31754)"><g><path d="M8,11L16,11Q16.098489999999998,11,16.19509,11.019214999999999Q16.29169,11.03843,16.38268,11.076121Q16.47368,11.113812,16.55557,11.16853Q16.63746,11.223249,16.70711,11.292893Q16.77675,11.362537,16.83147,11.44443Q16.88619,11.526322,16.92388,11.617317Q16.961570000000002,11.708311,16.98078,11.80491Q17,11.9015086,17,12Q17,12.0984914,16.98078,12.19509Q16.961570000000002,12.291689,16.92388,12.382683Q16.88619,12.473678,16.83147,12.55557Q16.77675,12.637463,16.70711,12.707107Q16.63746,12.776751,16.55557,12.83147Q16.47368,12.886188,16.38268,12.923879Q16.29169,12.96157,16.19509,12.980785000000001Q16.098489999999998,13,16,13L8,13Q7.9015086,13,7.80491,12.980785000000001Q7.708311,12.96157,7.617317,12.923879Q7.526322,12.886188,7.44443,12.83147Q7.362537,12.776751,7.292893,12.707107Q7.223249,12.637463,7.16853,12.55557Q7.113812,12.473678,7.076121,12.382683Q7.03843,12.291689,7.019215,12.19509Q7,12.0984914,7,12Q7,11.9015086,7.019215,11.80491Q7.03843,11.708311,7.076121,11.617317Q7.113812,11.526322,7.16853,11.44443Q7.223249,11.362537,7.292893,11.292893Q7.362537,11.223249,7.44443,11.16853Q7.526322,11.113812,7.617317,11.076121Q7.708311,11.03843,7.80491,11.019214999999999Q7.9015086,11,8,11Z" fill-rule="evenodd" fill="#4CD263" fill-opacity="1"/></g><g><path d="M12.28087,6.124695Q12.387260000000001,5.99171,12.443629999999999,5.831007Q12.5,5.670304,12.5,5.5Q12.5,5.4015086,12.48078,5.30491Q12.46157,5.208311,12.42388,5.117317Q12.38619,5.026322,12.33147,4.94443Q12.27675,4.862537,12.20711,4.792893Q12.13746,4.723249,12.05557,4.66853Q11.97368,4.613812,11.88268,4.576121Q11.79169,4.53843,11.69509,4.519215Q11.59849,4.5,11.5,4.5Q11.38752,4.5,11.27786,4.524986Q11.16819,4.549973,11.06681,4.598697Q10.96543,4.647421,10.87742,4.717448Q10.7894,4.787475,10.71913,4.875305L10.71901,4.875459L6.71944,9.87492L6.719131,9.875309999999999Q6.612743,10.008289999999999,6.556372,10.16899Q6.5,10.329699999999999,6.5,10.5Q6.5,10.59849,6.519215,10.69509Q6.53843,10.79169,6.576121,10.88268Q6.613812,10.97368,6.66853,11.05557Q6.723249,11.13746,6.792893,11.20711Q6.862537,11.27675,6.94443,11.33147Q7.026322,11.38619,7.117317,11.42388Q7.208311,11.46157,7.30491,11.48078Q7.4015086,11.5,7.5,11.5Q7.612478,11.5,7.722145,11.475010000000001Q7.831812,11.45003,7.933189,11.401299999999999Q8.034565,11.35258,8.122585,11.28255Q8.210605,11.21252,8.280869,11.124690000000001L8.281177,11.124310000000001L12.28087,6.124695L12.28087,6.124695Z" fill-rule="evenodd" fill="#4CD263" fill-opacity="1"/></g><g><path d="M17.28072959411621,14.124747Q17.38713959411621,13.991756,17.44351959411621,13.831039Q17.49989959411621,13.670321,17.49989959411621,13.5Q17.49989959411621,13.4015086,17.48068959411621,13.30491Q17.46146959411621,13.208311,17.423779594116212,13.117317Q17.38608959411621,13.026322,17.33136959411621,12.94443Q17.27664959411621,12.862537,17.20700959411621,12.792893Q17.137359594116212,12.723249,17.05546959411621,12.66853Q16.97357959411621,12.613812,16.882579594116212,12.576121Q16.79158959411621,12.53843,16.694989594116212,12.519214999999999Q16.59838959411621,12.5,16.49989959411621,12.5Q16.38742959411621,12.5,16.27776959411621,12.524983Q16.16810959411621,12.549965,16.06673959411621,12.598682Q15.965369594116211,12.647399,15.87735959411621,12.717416Q15.78933959411621,12.787434,15.719069594116212,12.875252L15.71895959411621,12.875398L11.71852259411621,17.87525Q11.612115594116212,18.00824,11.555732594116211,18.16896Q11.499349594116211,18.32968,11.499349594116211,18.5Q11.499349594116211,18.598489999999998,11.51856459411621,18.69509Q11.537779594116211,18.79169,11.575470594116211,18.88268Q11.61316159411621,18.97368,11.667879594116211,19.05557Q11.72259859411621,19.13746,11.79224259411621,19.20711Q11.86188659411621,19.27675,11.943779594116211,19.33147Q12.025671594116211,19.38619,12.11666659411621,19.42388Q12.207660594116211,19.461570000000002,12.30425959411621,19.48078Q12.40085819411621,19.5,12.499349594116211,19.5Q12.611818594116212,19.5,12.721478594116212,19.47502Q12.83113759411621,19.450029999999998,12.932507594116212,19.40132Q13.03387859411621,19.3526,13.121894594116212,19.28258Q13.20991159411621,19.21257,13.280176594116211,19.12475L13.28053659411621,19.124299999999998L17.28072959411621,14.124748L17.28072959411621,14.124747Z" fill-rule="evenodd" fill="#4CD263" fill-opacity="1"/></g><g><ellipse cx="11" cy="20" rx="3" ry="3" fill="#00B42A" fill-opacity="1"/></g><g><ellipse cx="13" cy="4" rx="3" ry="3" fill="#00B42A" fill-opacity="1"/></g><g><ellipse cx="18" cy="12" rx="3" ry="3" fill="#00B42A" fill-opacity="1"/></g><g><ellipse cx="6" cy="12" rx="3" ry="3" fill="#00B42A" fill-opacity="1"/></g></g></svg>