<svg xmlns="http://www.w3.org/2000/svg" xmlns:xlink="http://www.w3.org/1999/xlink" fill="none" version="1.1" width="24" height="24" viewBox="0 0 24 24"><defs><clipPath id="master_svg0_732_33267"><rect x="0" y="0" width="24" height="24" rx="0"/></clipPath></defs><g clip-path="url(#master_svg0_732_33267)"><g><path d="M4,10Q4,5,9,5Q9.09849,5,9.19509,4.980785Q9.29169,4.96157,9.38268,4.923879Q9.47368,4.886188,9.55557,4.83147Q9.63746,4.776751,9.70711,4.707107Q9.77675,4.637463,9.83147,4.55557Q9.88619,4.473678,9.92388,4.382683Q9.96157,4.291689,9.98078,4.19509Q10,4.0984914,10,4Q10,3.9015086,9.98078,3.80491Q9.96157,3.708311,9.92388,3.617317Q9.88619,3.526322,9.83147,3.44443Q9.77675,3.362537,9.70711,3.292893Q9.63746,3.223249,9.55557,3.16853Q9.47368,3.1138120000000002,9.38268,3.076121Q9.29169,3.03843,9.19509,3.019215Q9.09849,3,9,3Q2.00044,3,2,9.99912L2,10Q2,10.09849,2.019215,10.19509Q2.03843,10.29169,2.076121,10.38268Q2.1138120000000002,10.47368,2.1685309999999998,10.55557Q2.223249,10.63746,2.292893,10.70711Q2.362537,10.77675,2.44443,10.83147Q2.526322,10.88619,2.617317,10.92388Q2.708311,10.96157,2.80491,10.98078Q2.9015086,11,3,11Q3.0984914,11,3.19509,10.98078Q3.291689,10.96157,3.382683,10.92388Q3.473678,10.88619,3.55557,10.83147Q3.637463,10.77675,3.707107,10.70711Q3.776751,10.63746,3.83147,10.55557Q3.886189,10.47368,3.92388,10.38268Q3.961571,10.29169,3.980786,10.19509Q4,10.09849,4,10Z" fill-rule="evenodd" fill="#DDBEF6" fill-opacity="1"/></g><g><path d="M19,15Q19,14.9015086,19.01921,14.80491Q19.038429999999998,14.708311,19.07612,14.617317Q19.11381,14.526322,19.16853,14.44443Q19.22325,14.362537,19.29289,14.292893Q19.36254,14.223249,19.44443,14.16853Q19.52632,14.113812,19.61732,14.076121Q19.70831,14.03843,19.80491,14.019214999999999Q19.901510000000002,14,20,14Q20.098489999999998,14,20.19509,14.019214999999999Q20.29169,14.03843,20.38268,14.076121Q20.47368,14.113812,20.55557,14.16853Q20.63746,14.223249,20.70711,14.292893Q20.77675,14.362537,20.83147,14.44443Q20.88619,14.526322,20.92388,14.617317Q20.961570000000002,14.708311,20.98078,14.80491Q21,14.9015086,21,15Q21,18.41421,19.20711,20.20711Q17.41421,22,14,22Q13.9015086,22,13.80491,21.98078Q13.708311,21.961570000000002,13.617317,21.92388Q13.526322,21.88619,13.44443,21.83147Q13.362537,21.77675,13.292893,21.70711Q13.223249,21.63746,13.16853,21.55557Q13.113812,21.47368,13.076121,21.38268Q13.03843,21.29169,13.019214999999999,21.19509Q13,21.098489999999998,13,21Q13,20.901510000000002,13.019214999999999,20.80491Q13.03843,20.70831,13.076121,20.61732Q13.113812,20.52632,13.16853,20.44443Q13.223249,20.36254,13.292893,20.29289Q13.362537,20.22325,13.44443,20.16853Q13.526322,20.11381,13.617317,20.07612Q13.708311,20.038429999999998,13.80491,20.01921Q13.9015086,20,14,20Q16.58579,20,17.79289,18.79289Q19,17.58579,19,15Z" fill-rule="evenodd" fill="#DDBEF6" fill-opacity="1"/></g><g><path d="M14,9C14,6.2386,16.238599999999998,4,19,4L21,4L21,11L14,11L14,9Z" fill="#8D4EDA" fill-opacity="1"/><path d="M13,9L13,11Q13,11.09849,13.019214999999999,11.19509Q13.03843,11.29169,13.076121,11.38268Q13.113812,11.47368,13.16853,11.55557Q13.223249,11.63746,13.292893,11.70711Q13.362537,11.77675,13.44443,11.83147Q13.526322,11.88619,13.617317,11.92388Q13.708311,11.96157,13.80491,11.98078Q13.9015086,12,14,12L21,12Q21.098489999999998,12,21.19509,11.98078Q21.29169,11.96157,21.38268,11.92388Q21.47368,11.88619,21.55557,11.83147Q21.63746,11.77675,21.70711,11.70711Q21.77675,11.63746,21.83147,11.55557Q21.88619,11.47368,21.92388,11.38268Q21.961570000000002,11.29169,21.98078,11.19509Q22,11.09849,22,11L22,4Q22,3.9015086,21.98078,3.80491Q21.961570000000002,3.708311,21.92388,3.617317Q21.88619,3.526322,21.83147,3.44443Q21.77675,3.362537,21.70711,3.292893Q21.63746,3.223249,21.55557,3.16853Q21.47368,3.1138120000000002,21.38268,3.076121Q21.29169,3.03843,21.19509,3.019215Q21.098489999999998,3,21,3L19,3Q16.51474,3,14.757368,4.757368Q13,6.51474,13,9ZM15,10L20,10L20,5L19,5Q17.34316,5,16.17158,6.1715800000000005Q15,7.34316,15,9L15,10Z" fill-rule="evenodd" fill="#8D4EDA" fill-opacity="1"/></g><g><path d="M3,14L10,14L10,16C10,18.761400000000002,7.7614,21,5,21L3,21L3,14Z" fill="#8D4EDA" fill-opacity="1"/><path d="M2,14L2,21Q2,21.098489999999998,2.019215,21.19509Q2.03843,21.29169,2.076121,21.38268Q2.1138120000000002,21.47368,2.16853,21.55557Q2.223249,21.63746,2.292893,21.70711Q2.362537,21.77675,2.44443,21.83147Q2.526322,21.88619,2.617317,21.92388Q2.708311,21.961570000000002,2.80491,21.98078Q2.9015086,22,3,22L5,22Q7.48526,22,9.24263,20.24263Q11,18.48526,11,16L11,14Q11,13.9015086,10.98078,13.80491Q10.96157,13.708311,10.92388,13.617317Q10.88619,13.526322,10.83147,13.44443Q10.77675,13.362537,10.70711,13.292893Q10.63746,13.223249,10.55557,13.16853Q10.47368,13.113812,10.38268,13.076121Q10.29169,13.03843,10.19509,13.019214999999999Q10.09849,13,10,13L3,13Q2.9015086,13,2.80491,13.019214999999999Q2.708311,13.03843,2.617317,13.076121Q2.526322,13.113812,2.44443,13.16853Q2.362537,13.223249,2.292893,13.292893Q2.223249,13.362537,2.16853,13.44443Q2.1138120000000002,13.526322,2.076121,13.617317Q2.03843,13.708311,2.019215,13.80491Q2,13.9015086,2,14ZM4,20L5,20Q6.65684,20,7.82842,18.82842Q9,17.65684,9,16L9,15L4,15L4,20Z" fill-rule="evenodd" fill="#8D4EDA" fill-opacity="1"/></g></g></svg>