<svg xmlns="http://www.w3.org/2000/svg" xmlns:xlink="http://www.w3.org/1999/xlink" fill="none" version="1.1" width="24" height="24" viewBox="0 0 24 24"><defs><clipPath id="master_svg0_644_31824"><rect x="0" y="0" width="24" height="24" rx="0"/></clipPath></defs><g clip-path="url(#master_svg0_644_31824)"><g><path d="M12.00024318359375,7.000904453125C11.99936318359375,3.644934453125,15.23996318359375,1.241365453125,18.45126318359375,2.216196453125C18.96756318359375,2.372598453125,19.13066318359375,3.022984453125,18.74926318359375,3.404524453125L15.58806318359375,6.564814453125C15.64806318359375,7.017094453125,15.85086318359375,7.454144453125,16.19836318359375,7.801694453125C16.54596318359375,8.149244453125,16.98296318359375,8.352054453125,17.436263183593752,8.411094453125L20.59556318359375,5.250804453125C20.97716318359375,4.869434453125,21.62746318359375,5.032554453125,21.78386318359375,5.548834453125C22.81116318359375,8.932424453125,20.09676318359375,12.283814453125,16.57356318359375,11.981774453125C15.60426318359375,11.899884453125,14.79296318359375,12.077014453125,14.37496318359375,12.585414453125L7.56688318359375,20.855114453125C6.38694318359375,22.280914453125,4.23610318359375,22.382314453125,2.92730118359375,21.073814453125C1.61849518359375,19.765314453125,1.71939418359375,17.614414453125,3.14495318359375,16.434214453125L11.41369318359375,9.625124453125C11.92121318359375,9.206164453125,12.09926318359375,8.395854453125,12.01736318359375,7.426534453125C12.00572318359375,7.284964453125,12.00001318359375,7.142964453125,12.00024318359375,7.000904453125ZM4.49419318359375,18.784114453125C4.49419318359375,18.389714453125,4.81392318359375,18.070014453125,5.20833318359375,18.070014453125L5.21594318359375,18.070014453125C5.61035318359375,18.070014453125,5.93008318359375,18.389714453125,5.93008318359375,18.784114453125L5.93008318359375,18.791814453125C5.93008318359375,19.186214453125,5.61035318359375,19.505914453125,5.21594318359375,19.505914453125L5.20833318359375,19.505914453125C4.81392318359375,19.505914453125,4.49419318359375,19.186214453125,4.49419318359375,18.791814453125L4.49419318359375,18.784114453125Z" fill-rule="evenodd" fill="#00B42A" fill-opacity="1"/></g></g></svg>