<svg xmlns="http://www.w3.org/2000/svg" xmlns:xlink="http://www.w3.org/1999/xlink" fill="none" version="1.1" width="24" height="24" viewBox="0 0 24 24"><defs><clipPath id="master_svg0_732_37988"><rect x="0" y="0" width="24" height="24" rx="0"/></clipPath></defs><g clip-path="url(#master_svg0_732_37988)"><g><path d="M5.507000085830688,4.048C6.076990085830689,3.382835,6.909140085830689,3,7.7850000858306885,3L16.215000085830688,3C17.09090008583069,3.000026226,17.92310008583069,3.382862,18.493000085830687,4.048L20.215000085830688,6.056C19.97850008583069,6.01848,19.739400085830688,5.999750000000001,19.50000008583069,6L4.500000085830688,6C4.257000085830688,6,4.018000085830688,6.02,3.7850000858306885,6.056L5.507000085830688,4.048Z" fill="#71C7FB" fill-opacity="1"/></g><g><path d="M1.5,10.5C1.5,8.84315,2.84315,7.5,4.5,7.5L19.5,7.5C21.1569,7.5,22.5,8.84315,22.5,10.5C22.5,12.15685,21.1569,13.5,19.5,13.5L4.5,13.5C2.84315,13.5,1.5,12.15685,1.5,10.5ZM6.5,10.5C6.5,10.91421,6.16421,11.25,5.75,11.25C5.335789999999999,11.25,5,10.91421,5,10.5C5,10.08579,5.335789999999999,9.75,5.75,9.75C6.16421,9.75,6.5,10.08579,6.5,10.5ZM8.75,11.25C9.16421,11.25,9.5,10.91421,9.5,10.5C9.5,10.08579,9.16421,9.75,8.75,9.75C8.33579,9.75,8,10.08579,8,10.5C8,10.91421,8.33579,11.25,8.75,11.25ZM4.5,15C2.84315,15,1.5,16.34315,1.5,18C1.5,19.6569,2.84315,21,4.5,21L19.5,21C21.1569,21,22.5,19.6569,22.5,18C22.5,16.34315,21.1569,15,19.5,15L4.5,15ZM5.75,18.75C6.16421,18.75,6.5,18.4142,6.5,18C6.5,17.5858,6.16421,17.25,5.75,17.25C5.335789999999999,17.25,5,17.5858,5,18C5,18.4142,5.335789999999999,18.75,5.75,18.75ZM9.5,18C9.5,18.4142,9.16421,18.75,8.75,18.75C8.33579,18.75,8,18.4142,8,18C8,17.5858,8.33579,17.25,8.75,17.25C9.16421,17.25,9.5,17.5858,9.5,18Z" fill-rule="evenodd" fill="#4464F8" fill-opacity="1"/></g><g><path d="M13.38602,23.62342Q12.844073999999999,23.08147,13.0629839,22.34711L13.367753,21.32423Q13.584705,20.59615,14.12186,20.059260000000002L18.44753,15.7336L19.45755,14.723575L19.59545,14.585669Q20.18122,14,21.00955,14Q21.83788,14,22.423650000000002,14.585669Q23.0094,15.17155,23.0094,15.999880000000001Q23.0094,16.82821,22.42371,17.41404L22.28586,17.55189L21.275840000000002,18.56191L16.95035,22.8874Q16.41329,23.42473,15.685179999999999,23.64169L14.66244,23.94642Q13.927962,24.165399999999998,13.38602,23.62342Z" fill-rule="evenodd" fill="#FFFFFF" fill-opacity="1"/></g><g><path d="M21.707169999999998,15.292835C21.31665,14.9023884,20.68358,14.9023884,20.29307,15.292835L19.85231,15.733597L21.2664,17.1477L21.707169999999998,16.70693C22.09761,16.31642,22.09761,15.683346,21.707169999999998,15.292835ZM20.86221,17.55189L19.44811,16.13779L14.819534,20.766370000000002C14.58443,21.00136,14.411601,21.29123,14.316676,21.6098L14.0119138,22.63266C13.9819379,22.73322,14.00949407,22.842109999999998,14.083691,22.91631C14.157888,22.99051,14.266785,23.01806,14.367343,22.98809L15.3902,22.683320000000002C15.70876,22.5884,15.99865,22.41557,16.233629999999998,22.18047L20.86221,17.55189L20.86221,17.55189Z" fill="#4464F8" fill-opacity="1"/></g></g></svg>