<svg xmlns="http://www.w3.org/2000/svg" xmlns:xlink="http://www.w3.org/1999/xlink" fill="none" version="1.1" width="24" height="24" viewBox="0 0 24 24"><defs><clipPath id="master_svg0_732_41838"><rect x="0" y="0" width="24" height="24" rx="0"/></clipPath></defs><g clip-path="url(#master_svg0_732_41838)"><g><path d="M15,4.4769995322418215L15,5.392999532241822Q15,5.466869532241821,15.01441,5.539319532241821Q15.02882,5.611769532241821,15.057089999999999,5.680009532241821Q15.08536,5.748259532241821,15.1264,5.809679532241821Q15.16744,5.871099532241821,15.21967,5.923329532241821Q15.271899999999999,5.975559532241821,15.33332,6.0165995322418215Q15.394739999999999,6.057639532241821,15.46299,6.085909532241821Q15.53123,6.114179532241821,15.60368,6.128589532241821Q15.67613,6.142999532241822,15.75,6.142999532241822Q15.82387,6.142999532241822,15.89632,6.128589532241821Q15.96877,6.114179532241821,16.037010000000002,6.085909532241821Q16.10526,6.057639532241821,16.16668,6.0165995322418215Q16.2281,5.975559532241821,16.28033,5.923329532241821Q16.33256,5.871099532241821,16.3736,5.809679532241821Q16.41464,5.748259532241821,16.442909999999998,5.680009532241821Q16.47118,5.611769532241821,16.485590000000002,5.539319532241821Q16.5,5.466869532241821,16.5,5.392999532241822L16.5,4.4769995322418215Q16.5,3.289929532241821,15.69345,2.4336385322418215Q14.87404,1.5636995322418215,13.68351,1.5263685322418215Q12,1.4725625322418212,10.316040000000001,1.5263835322418213Q9.126059,1.5636955322418213,8.3064707,2.4340985322418214Q7.5,3.2905695322418214,7.5,4.4769995322418215L7.5,5.392999532241822Q7.5,5.466869532241821,7.514411,5.539319532241821Q7.528822,5.611769532241821,7.55709,5.680009532241821Q7.585359,5.748259532241821,7.626398,5.809679532241821Q7.667437,5.871099532241821,7.71967,5.923329532241821Q7.771903,5.975559532241821,7.833322,6.0165995322418215Q7.894742,6.057639532241821,7.962987,6.085909532241821Q8.031233,6.114179532241821,8.103682,6.128589532241821Q8.1761315,6.142999532241822,8.25,6.142999532241822Q8.3238685,6.142999532241822,8.396318,6.128589532241821Q8.468767,6.114179532241821,8.537013,6.085909532241821Q8.605258,6.057639532241821,8.666678,6.0165995322418215Q8.728097,5.975559532241821,8.78033,5.923329532241821Q8.832563,5.871099532241821,8.873602,5.809679532241821Q8.914641,5.748259532241821,8.94291,5.680009532241821Q8.971178,5.611769532241821,8.985589000000001,5.539319532241821Q9,5.466869532241821,9,5.392999532241822L9,4.4769995322418215Q9,3.8856395322418216,9.398530000000001,3.4623995322418213Q9.79295,3.0435215322418214,10.36396,3.0256175322418213Q12,2.9733285322418213,13.6365,3.025631532241821Q14.20728,3.043529532241821,14.60155,3.462109532241821Q15,3.8851295322418213,15,4.4769995322418215Z" fill-rule="evenodd" fill="#7BC0FC" fill-opacity="1"/></g><g><path d="M19.228000953674318,5.790032222503662C19.570000953674317,5.842032222503662,19.910000953674317,5.897032222503662,20.250000953674316,5.956032222503662M19.228000953674318,5.791032222503662L18.160000953674317,19.673038222503664C18.069600953674318,20.845338222503663,17.091800953674316,21.75033822250366,15.916000953674317,21.75003822250366L8.084000953674316,21.75003822250366C6.908210953674317,21.75033822250366,5.930400953674317,20.845338222503663,5.840000953674316,19.673038222503664L4.772000953674317,5.790032222503662M19.228000953674318,5.790032222503662C18.07390095367432,5.615548222503662,16.91380095367432,5.483127222503662,15.750000953674316,5.393032222503662M3.7500009536743164,5.955032222503662C4.090000953674316,5.896032222503662,4.430000953674316,5.841032222503662,4.772000953674317,5.790032222503662M4.772000953674317,5.790032222503662C5.926130953674317,5.615550222503662,7.0862409536743165,5.4831292225036625,8.250000953674316,5.393032222503662M15.750000953674316,5.393032222503662C13.253720953674316,5.200106822503662,10.746280953674315,5.200106822503662,8.250000953674316,5.393032222503662" fill="#165DFF" fill-opacity="1"/><path d="M15.692100953674316,6.140795222503662L15.692200953674316,6.1408022225036625L15.693300953674317,6.140884222503662Q17.064400953674316,6.247065222503662,18.426400953674317,6.432548222503662L17.412200953674315,19.615538222503663Q17.305400953674315,21.00043822250366,15.916200953674316,21.00003822250366L8.084000953674316,21.00003822250366Q6.694590953674316,21.00043822250366,6.587780953674317,19.615338222503663L5.573640953674317,6.432538222503662Q6.936220953674317,6.2469872225036625,8.307790953674317,6.1408022225036625Q11.999470953674317,5.855490222503662,15.691100953674317,6.140720222503662L15.692100953674316,6.140795222503662ZM4.660689953674316,5.048338222503662Q6.419060953674316,4.782536222503662,8.192210953674316,4.645262222503662Q11.999470953674317,4.351017222503662,15.806700953674316,4.6451802225036625L15.807700953674317,4.645257222503663L15.807900953674316,4.645270222503662L15.807900953674316,4.645272222503662L15.808800953674316,4.6453392225036625Q17.580900953674316,4.782566222503662,19.338400953674316,5.048203222503662L19.340000953674316,5.048449222503662L19.340100953674316,5.048459222503662L19.340700953674315,5.048554222503662Q19.876700953674316,5.130049222503662,20.378200953674316,5.217075422503662Q20.443000953674318,5.228316122503662,20.504800953674316,5.250655332503662Q20.566700953674317,5.272994622503662,20.623700953674316,5.3057509225036625Q20.680700953674318,5.338507322503662,20.731100953674318,5.380682222503662Q20.781600953674317,5.422856222503662,20.823900953674315,5.473162222503662Q20.866200953674316,5.523468222503662,20.899100953674317,5.580371222503662Q20.932100953674315,5.637274222503662,20.954600953674316,5.699039222503663Q20.977100953674316,5.760803222503662,20.988600953674318,5.825545222503662Q21.000000953674316,5.890287222503662,21.000000953674316,5.956032222503662Q21.000000953674316,6.029900222503662,20.985600953674318,6.102349222503662Q20.971200953674316,6.174799222503662,20.942900953674318,6.243044222503662Q20.914600953674316,6.311288222503662,20.873600953674316,6.372708222503662Q20.832600953674316,6.434128222503662,20.780300953674317,6.486358222503662Q20.728100953674318,6.538598222503662,20.666700953674315,6.579638222503662Q20.605300953674316,6.620678222503662,20.537000953674315,6.648938222503662Q20.468800953674318,6.677208222503662,20.396300953674317,6.691618222503662Q20.323900953674315,6.706028222503662,20.250000953674316,6.706028222503662Q20.185400953674318,6.706028222503662,20.121800953674317,6.694988222503662Q20.018400953674316,6.677048222503662,19.913400953674316,6.659338222503662L18.907800953674318,19.73053822250366Q18.694100953674315,22.500838222503663,15.915800953674317,22.50003822250366L8.084000953674316,22.50003822250366Q5.305850953674316,22.500838222503663,5.092220953674317,19.73073822250366L4.086581953674316,6.658348222503662Q3.9826309536743163,6.675868222503662,3.8782319536743164,6.693988222503663Q3.814591853674316,6.705028222503662,3.7500009536743164,6.705028222503662Q3.6761324536743163,6.705028222503662,3.6036829536743165,6.690618222503662Q3.5312339536743163,6.6762082225036625,3.4629879536743164,6.647938222503662Q3.3947429536743163,6.619678222503662,3.3333229536743163,6.578638222503662Q3.2719039536743164,6.537598222503663,3.219670953674316,6.485358222503662Q3.1674379536743165,6.433128222503662,3.1263989536743164,6.371708222503662Q3.0853599536743164,6.310288222503662,3.0570909536743165,6.242044222503662Q3.0288229536743163,6.173799222503662,3.0144119536743164,6.101350222503662Q3.0000009536743164,6.028900222503662,3.0000009536743164,5.955032222503662Q3.0000009536743164,5.889287222503662,3.0114389536743165,5.824545222503662Q3.0228779536743167,5.759803222503662,3.0454059536743165,5.698039222503662Q3.0679339536743164,5.636274222503662,3.1008639536743163,5.579371222503662Q3.1337939536743162,5.522468222503662,3.1761229536743163,5.472162222503662Q3.218450953674316,5.421856222503662,3.2688859536743164,5.379681222503662Q3.3193209536743162,5.337507322503662,3.3763239536743166,5.304750922503662Q3.4333279536743166,5.271994522503662,3.4951609536743162,5.249655352503662Q3.5569939536743163,5.227316122503662,3.6217699536743164,5.216075522503662Q4.1463069536743165,5.125053222503662,4.660689953674316,5.048338222503662Z" fill-rule="evenodd" fill="#165DFF" fill-opacity="1"/></g><g><g><path d="M10.128497862686157,11.502715583267213L10.128449862686157,11.502805583267211Q10.068683862686157,11.613795583267212,10.068683862686157,11.739865583267212Q10.068683862686157,11.789105583267212,10.078290862686158,11.837405583267213Q10.087898862686156,11.885705583267212,10.106743862686157,11.93120558326721Q10.125589862686157,11.976695583267212,10.152948862686157,12.017645583267212Q10.180308862686157,12.058595583267213,10.215130862686157,12.093415583267213Q10.249952862686158,12.128235583267212,10.290898862686157,12.155595583267212Q10.331844862686157,12.182955583267212,10.377341862686157,12.201795583267213Q10.422838862686158,12.220645583267212,10.471138762686158,12.230255583267212Q10.519438162686157,12.239855583267211,10.568683862686157,12.239865583267212Q10.636396462686157,12.239865583267212,10.701669862686158,12.221855583267212Q10.766943862686157,12.203845583267212,10.825075862686157,12.169115583267212Q10.883208862686157,12.134395583267212,10.930011862686158,12.085465583267212Q10.976814862686158,12.036535583267213,11.008917862686157,11.976915583267212L11.008966862686158,11.976825583267212L12.023703862686157,10.092327583267211L13.534893862686157,12.709755583267212Q13.567813862686158,12.766765583267212,13.614353862686157,12.813315583267212Q13.660903862686158,12.859855583267212,13.717903862686157,12.892765583267213Q13.774913862686157,12.925685583267212,13.838493862686157,12.942715583267212Q13.902083862686158,12.959755583267212,13.967903862686157,12.959755583267212Q14.017153862686158,12.959755583267212,14.065453862686157,12.950145583267211Q14.113753862686156,12.940545583267212,14.159243862686157,12.921695583267212Q14.204743862686158,12.902845583267212,14.245693862686156,12.875495583267211Q14.286633862686157,12.848135583267212,14.321463862686157,12.813305583267212Q14.356283862686157,12.778485583267212,14.383643862686156,12.737545583267211Q14.411003862686158,12.69659558326721,14.429843862686157,12.651095583267212Q14.448693862686158,12.605605583267213,14.458303862686158,12.557305583267212Q14.467903862686157,12.509005583267212,14.467903862686157,12.459755583267212Q14.467903862686157,12.325785583267212,14.400923862686158,12.209755583267212L14.400703862686157,12.209385583267212L12.810283862686157,9.454720683267212Q12.542683862686157,8.991191583267211,12.007503862686157,8.999126583267213Q11.472335862686156,9.007061583267213,11.218576862686158,9.478311683267211L10.128497862686157,11.502715583267213Z" fill-rule="evenodd" fill="#FFFFFF" fill-opacity="1"/></g><g><path d="M14.256539488677978,14.264437477325439Q14.182369488677978,14.14390947732544,14.182369488677978,14.00238847732544Q14.182369488677978,13.95314277732544,14.191979488677978,13.90484337732544Q14.201589488677978,13.85654347732544,14.22042948867798,13.811046477325439Q14.239279488677978,13.76554947732544,14.266639488677978,13.72460347732544Q14.29399948867798,13.68365747732544,14.32881948867798,13.64883547732544Q14.363639488677979,13.61401347732544,14.404589488677978,13.58665347732544Q14.445529488677979,13.55929447732544,14.49102948867798,13.54044847732544Q14.536529488677978,13.521603477325439,14.584829488677979,13.51199547732544Q14.633129488677978,13.50238847732544,14.682369488677978,13.50238847732544Q14.74641948867798,13.50238847732544,14.808389488677978,13.518529477325439Q14.870369488677978,13.534671477325439,14.926269488677978,13.56591147732544Q14.982179488677978,13.59715147732544,15.028409488677978,13.64147447732544Q15.074639488677978,13.68579647732544,15.108199488677979,13.74033947732544L16.36784948867798,15.787268477325439Q16.64809948867798,16.24267847732544,16.387259488677977,16.70947847732544Q16.12641948867798,17.17628847732544,15.591679488677979,17.17628847732544L12.214159488677979,17.17628847732544Q12.164913788677978,17.17628847732544,12.116614388677979,17.16667847732544Q12.068314488677979,17.15706847732544,12.022817488677978,17.13822847732544Q11.977320488677979,17.11937847732544,11.936374488677979,17.09201847732544Q11.895428488677979,17.064658477325438,11.860606488677979,17.02983847732544Q11.825784488677979,16.995018477325438,11.798424488677979,16.95406847732544Q11.771065488677978,16.91312847732544,11.752219488677978,16.86762847732544Q11.733374488677978,16.82212847732544,11.72376648867798,16.773828477325438Q11.714159488677979,16.72552847732544,11.714159488677979,16.67628847732544Q11.714159488677979,16.62703847732544,11.72376648867798,16.57873847732544Q11.733374488677978,16.53043847732544,11.752219488677978,16.48494847732544Q11.771065488677978,16.43944847732544,11.798424488677979,16.39849847732544Q11.825784488677979,16.35755847732544,11.860606488677979,16.32272847732544Q11.895428488677979,16.287908477325438,11.936374488677979,16.26054847732544Q11.977320488677979,16.233188477325438,12.022817488677978,16.21434847732544Q12.068314488677979,16.19549847732544,12.116614388677979,16.185898477325438Q12.164913788677978,16.17628847732544,12.214159488677979,16.17628847732544L15.43306948867798,16.17628847732544L14.256539488677978,14.264437477325439Z" fill-rule="evenodd" fill="#FFFFFF" fill-opacity="1"/></g><g><path d="M10.176892631835937,13.433161545120239Q10.245922631835938,13.315804545120239,10.245922631835938,13.17965054512024Q10.245922631835938,13.130404845120239,10.236322631835938,13.08210544512024Q10.226712631835937,13.03380554512024,10.207862631835937,12.988308545120239Q10.189022631835938,12.94281154512024,10.161662631835938,12.90186554512024Q10.134302631835938,12.86091954512024,10.099482631835937,12.82609754512024Q10.064652631835937,12.79127554512024,10.023712631835938,12.76391554512024Q9.982762631835937,12.736556545120239,9.937262631835937,12.717710545120239Q9.891772631835938,12.698865545120238,9.843472631835937,12.68925754512024Q9.795172631835937,12.67965054512024,9.745922631835938,12.67965054512024Q9.680612631835938,12.67965054512024,9.617502631835938,12.696425545120238Q9.554382631835937,12.71320054512024,9.497682631835938,12.74562554512024Q9.440992631835938,12.778050545120239,9.394532631835938,12.823948545120238Q9.348072631835937,12.869847545120239,9.314962631835938,12.92613954512024L9.314832631835937,12.926361545120239L7.622782631835937,15.802830545120239Q7.354733631835938,16.25849054512024,7.617203631835937,16.71739054512024Q7.879667631835938,17.17629054512024,8.408316631835937,17.17629054512024L10.568662631835938,17.17629054512024Q10.617912631835937,17.17629054512024,10.666212631835938,17.16668054512024Q10.714512631835937,17.157070545120238,10.760002631835938,17.13823054512024Q10.805502631835937,17.11938054512024,10.846452631835938,17.09202054512024Q10.887392631835937,17.06466054512024,10.922212631835936,17.02984054512024Q10.957042631835938,16.99502054512024,10.984402631835938,16.95407054512024Q11.011752631835938,16.91312054512024,11.030602631835936,16.86763054512024Q11.049452631835937,16.82213054512024,11.059052631835938,16.77383054512024Q11.068662631835938,16.72553054512024,11.068662631835938,16.67629054512024Q11.068662631835938,16.627040545120238,11.059052631835938,16.57874054512024Q11.049452631835937,16.53044054512024,11.030602631835936,16.48494054512024Q11.011752631835938,16.439450545120238,10.984402631835938,16.39850054512024Q10.957042631835938,16.35755054512024,10.922212631835936,16.32273054512024Q10.887392631835937,16.28791054512024,10.846452631835938,16.26055054512024Q10.805502631835937,16.233190545120237,10.760002631835938,16.21435054512024Q10.714512631835937,16.19550054512024,10.666212631835938,16.185890545120238Q10.617912631835937,16.17629054512024,10.568662631835938,16.17629054512024L10.568172631835937,16.17629054512024L8.563285631835937,16.17629054512024L10.176892631835937,13.433161545120239Z" fill-rule="evenodd" fill="#FFFFFF" fill-opacity="1"/></g><g><path d="M13.390449488677978,16.207101526763918Q13.460779488677979,16.136775526763916,13.498839488677978,16.044890526763915Q13.536899488677978,15.953004726763917,13.536899488677978,15.853548526763916Q13.536899488677978,15.804302826763916,13.527289488677978,15.756003426763916Q13.51767948867798,15.707703526763916,13.498839488677978,15.662206526763915Q13.479989488677978,15.616709526763916,13.452629488677978,15.575763526763916Q13.425269488677978,15.534817526763916,13.390449488677978,15.499995526763916Q13.355629488677979,15.465173526763916,13.314679488677978,15.437813526763916Q13.273739488677979,15.410454526763916,13.228239488677978,15.391608526763916Q13.182741488677978,15.372763526763915,13.134442488677978,15.363155526763917Q13.086142488677979,15.353548526763916,13.036897488677978,15.353548526763916Q12.937441488677978,15.353548526763916,12.845555488677979,15.391608526763916Q12.753670488677978,15.429668526763916,12.683343488677979,15.499995526763916L11.860606488677979,16.322732526763915Q11.825784488677979,16.357554526763916,11.798424488677979,16.398501526763916Q11.771065488677978,16.439447526763917,11.752219488677978,16.484944526763915Q11.733374488677978,16.530441526763916,11.72376648867798,16.578741526763917Q11.714159488677979,16.627040526763917,11.714159488677979,16.676286526763917Q11.714159488677979,16.725532526763917,11.72376648867798,16.773831526763917Q11.733374488677978,16.822130526763917,11.752219488677978,16.867628526763916Q11.771065488677978,16.913128526763916,11.798424488677979,16.954068526763916Q11.825784488677979,16.995018526763914,11.860606488677979,17.029838526763918L12.683085488677978,17.852318526763916L12.683343488677979,17.852578526763917Q12.753669488677978,17.922908526763916,12.845555488677979,17.960968526763917Q12.937441488677978,17.999028526763915,13.036897488677978,17.999028526763915Q13.086142488677979,17.999028526763915,13.134442488677978,17.989418526763917Q13.182741488677978,17.979808526763915,13.228239488677978,17.960968526763917Q13.273739488677979,17.942118526763917,13.314679488677978,17.914758526763915Q13.355629488677979,17.887398526763917,13.390449488677978,17.852578526763917Q13.425269488677978,17.817758526763917,13.452629488677978,17.776808526763915Q13.479989488677978,17.735858526763916,13.498839488677978,17.690368526763915Q13.51767948867798,17.644868526763915,13.527289488677978,17.596568526763917Q13.536899488677978,17.548268526763916,13.536899488677978,17.499028526763915Q13.536899488677978,17.399568526763915,13.498839488677978,17.307678526763915Q13.460779488677979,17.215798526763916,13.390449488677978,17.145468526763917L12.921266488677979,16.676286526763917L13.390449488677978,16.207101526763918L13.390449488677978,16.207101526763918Z" fill-rule="evenodd" fill="#FFFFFF" fill-opacity="1"/></g><g><path d="M14.739202997436523,11.499074410850525Q14.756232997436523,11.435492410850525,14.756232997436523,11.369667410850525Q14.756232997436523,11.320421710850525,14.746632997436523,11.272122310850525Q14.737022997436524,11.223822410850525,14.718172997436524,11.178325410850524Q14.699332997436523,11.132828410850525,14.671972997436523,11.091882410850525Q14.644612997436523,11.050936410850525,14.609792997436523,11.016114410850525Q14.574962997436524,10.981292410850525,14.534022997436523,10.953932410850525Q14.493072997436524,10.926573410850525,14.447572997436524,10.907727410850525Q14.402082997436523,10.888882410850524,14.353782997436523,10.879274410850526Q14.305482997436524,10.869667410850525,14.256232997436523,10.869667410850525Q14.173682997436524,10.869667410850525,14.095512997436524,10.896202410850524Q14.017342997436524,10.922737410850525,13.951852997436523,10.972991410850526Q13.886362997436523,11.023245410850524,13.840502997436523,11.091883410850524Q13.794637997436524,11.160522410850525,13.773271997436524,11.240260410850524L13.773194997436523,11.240549410850525L13.601539997436523,11.881187410850526L12.960724997436524,11.709469410850526L12.960630997436523,11.709444410850525Q12.897043597436523,11.692405410850524,12.831212997436523,11.692405410850524Q12.781967297436523,11.692405410850524,12.733667897436524,11.702012410850525Q12.685367997436524,11.711619410850524,12.639870997436523,11.730465410850526Q12.594373997436524,11.749310410850525,12.553427997436524,11.776670410850524Q12.512481997436524,11.804029410850525,12.477659997436524,11.838851410850525Q12.442837997436524,11.873673410850525,12.415477997436524,11.914620410850524Q12.388118997436523,11.955566410850524,12.369272997436523,12.001063410850525Q12.350427997436523,12.046560410850525,12.340819997436524,12.094860410850526Q12.331212997436523,12.143159410850524,12.331212997436523,12.192405410850524Q12.331212997436523,12.274954410850524,12.357746997436523,12.353122410850524Q12.384280997436523,12.431287410850524,12.434533997436523,12.496777410850525Q12.484785997436523,12.562277410850525,12.553422997436524,12.608137410850524Q12.622058997436524,12.653997410850526,12.701794997436524,12.675367410850525L12.701878997436523,12.675387410850526L13.825685997436523,12.976527410850524Q13.873252997436524,12.989277410850525,13.922392997436523,12.992497410850525Q13.971532997436523,12.995717410850524,14.020362997436523,12.989287410850524Q14.069182997436524,12.982857410850524,14.115812997436523,12.967037410850525Q14.162442997436523,12.951207410850525,14.205092997436523,12.926577410850525Q14.247742997436523,12.901957410850525,14.284762997436523,12.869487410850525Q14.321792997436523,12.837017410850525,14.351772997436523,12.797947410850526Q14.381752997436523,12.758877410850525,14.403532997436523,12.714707410850526Q14.425312997436524,12.670547410850524,14.438052997436523,12.622977410850524L14.739202997436523,11.499074410850525Z" fill-rule="evenodd" fill="#FFFFFF" fill-opacity="1"/></g><g><path d="M9.556697720733643,14.432770545120238L9.556741720733642,14.432940545120239Q9.578107720733643,14.51268054512024,9.623971720733643,14.581320545120239Q9.669831720733642,14.64995054512024,9.735321720733642,14.700210545120239Q9.800811720733643,14.750460545120239,9.878981720733643,14.77700054512024Q9.957151720733643,14.803530545120239,10.039701720733643,14.803530545120239Q10.088951720733643,14.803530545120239,10.137251720733643,14.793920545120239Q10.185551720733642,14.78432054512024,10.231041720733643,14.76547054512024Q10.276541720733643,14.746620545120239,10.317491720733642,14.719270545120239Q10.358431720733643,14.691910545120239,10.393261720733642,14.65708054512024Q10.428081720733642,14.62226054512024,10.455441720733642,14.581320545120239Q10.482801720733642,14.54037054512024,10.501641720733643,14.49487054512024Q10.520491720733643,14.449370545120239,10.530101720733642,14.401080545120239Q10.539701720733643,14.35278054512024,10.539701720733643,14.303530545120239Q10.539701720733643,14.237700545120239,10.522671720733642,14.17412154512024L10.221521720733643,13.050241545120238Q10.208781720733644,13.002673545120238,10.187001720733642,12.958506545120239Q10.165221720733642,12.914339545120239,10.135241720733642,12.87526954512024Q10.105261720733642,12.836200545120239,10.068231720733642,12.803730545120239Q10.031211720733642,12.771260545120239,9.988561720733642,12.746637545120238Q9.945911720733642,12.72201554512024,9.899281720733642,12.706185545120238Q9.852651720733643,12.69035654512024,9.803821720733643,12.683928545120239Q9.755001720733642,12.677500545120239,9.705861720733642,12.680721545120239Q9.656721720733643,12.68394154512024,9.609152720733643,12.69668754512024L8.485272720733642,12.99783054512024Q8.405534720733643,13.019195545120239,8.336896720733643,13.06505854512024Q8.268258720733643,13.110920845120239,8.218004720733642,13.176412385120239Q8.167751720733643,13.241903945120239,8.141216720733642,13.32007354512024Q8.114681720733643,13.398242545120238,8.114681720733643,13.480793545120239Q8.114681720733643,13.53003854512024,8.124288720733643,13.57833854512024Q8.133896720733642,13.62663754512024,8.152741720733642,13.672134545120239Q8.171587720733642,13.71763154512024,8.198946720733643,13.758578545120239Q8.226306720733643,13.799524545120239,8.261128720733643,13.834346545120239Q8.295950720733643,13.869168545120239,8.336896720733643,13.89652754512024Q8.377842720733643,13.92388754512024,8.423339720733642,13.94273254512024Q8.468836720733643,13.96157854512024,8.517136620733643,13.971185545120239Q8.565436020733642,13.980793545120239,8.614681720733643,13.980793545120239Q8.680507920733643,13.980793545120239,8.744090720733643,13.963756545120239L9.385008720733643,13.79202254512024L9.556697720733643,14.432770545120238Z" fill-rule="evenodd" fill="#FFFFFF" fill-opacity="1"/></g></g></g></svg>