<svg xmlns="http://www.w3.org/2000/svg" xmlns:xlink="http://www.w3.org/1999/xlink" fill="none" version="1.1" width="24" height="24" viewBox="0 0 24 24"><defs><clipPath id="master_svg0_732_53841"><rect x="0" y="0" width="24" height="24" rx="0"/></clipPath></defs><g clip-path="url(#master_svg0_732_53841)"><g><path d="M11.000038447265625,6.999755859375Q11.000038447265625,6.901264459375,11.019248447265625,6.804665859375Q11.038468447265625,6.708066859375,11.076158447265625,6.617072859375Q11.113848447265624,6.526077859375,11.168568447265624,6.444185859375Q11.223288447265624,6.362292859375,11.292928447265625,6.292648859375Q11.362568447265625,6.223004859375,11.444468447265624,6.168285859375Q11.526358447265626,6.113567859375,11.617348447265625,6.075876859375Q11.708348447265625,6.038185859375,11.804948447265625,6.018970859375Q11.901538447265626,5.999755859375,12.000038447265625,5.999755859375Q12.098528447265625,5.999755859375,12.195128447265624,6.018970859375Q12.291728447265626,6.038185859375,12.382718447265624,6.075876859375Q12.473708447265626,6.113567859375,12.555608447265625,6.168285859375Q12.637498447265624,6.223004859375,12.707138447265624,6.292648859375Q12.776788447265625,6.362292859375,12.831508447265625,6.444185859375Q12.886218447265625,6.526077859375,12.923918447265624,6.617072859375Q12.961608447265625,6.708066859375,12.980818447265625,6.804665859375Q13.000038447265625,6.901264459375,13.000038447265625,6.999755859375L13.000038447265625,10.999805859375L15.333408447265626,10.999805859375Q16.437978447265625,10.999805859375,17.219008447265622,11.780855859375Q18.000108447265625,12.561915859375,18.000108447265625,13.666485859375001L18.000108447265625,16.999855859375Q18.000108447265625,17.098355859374998,17.980908447265627,17.194955859375Q17.961608447265625,17.291555859375002,17.924008447265624,17.382555859375Q17.886308447265627,17.473555859375,17.831508447265627,17.555455859375Q17.776808447265623,17.637355859375,17.707208447265625,17.706955859375Q17.637508447265624,17.776555859375,17.555608447265627,17.831355859375Q17.473808447265625,17.886055859375,17.382808447265624,17.923755859375Q17.291808447265623,17.961455859375,17.195208447265625,17.980655859375Q17.098608447265626,17.999855859375,17.000108447265625,17.999855859375Q16.901588447265624,17.999855859375,16.804998447265625,17.980655859375Q16.708398447265623,17.961455859375,16.617398447265625,17.923755859375Q16.526408447265624,17.886055859375,16.444508447265626,17.831355859375Q16.362618447265625,17.776555859375,16.292978447265625,17.706955859375Q16.223328447265626,17.637355859375,16.168608447265626,17.555455859375Q16.113898447265626,17.473555859375,16.076208447265625,17.382555859375Q16.038508447265627,17.291555859375002,16.019298447265626,17.194955859375Q16.000088447265625,17.098355859374998,16.000088447265625,16.999855859375L16.000088447265625,13.666485859375001Q16.000088447265625,13.390335859375,15.804818447265625,13.195075859374999Q15.609548447265626,12.999805859375,15.333408447265626,12.999805859375L8.666588447265624,12.999805859375Q7.999908447265625,12.999805859375,7.999908447265625,13.666485859375001L7.999908447265625,16.999855859375Q7.999908447265625,17.098355859374998,7.980693447265625,17.194955859375Q7.961478447265625,17.291555859375002,7.923787447265625,17.382555859375Q7.886096447265625,17.473555859375,7.831378447265625,17.555455859375Q7.776659447265625,17.637355859375,7.707015447265625,17.706955859375Q7.637371447265625,17.776555859375,7.555478447265625,17.831355859375Q7.473586447265625,17.886055859375,7.382591447265625,17.923755859375Q7.291597447265625,17.961455859375,7.194998447265625,17.980655859375Q7.098399847265625,17.999855859375,6.999908447265625,17.999855859375Q6.901417047265625,17.999855859375,6.804818447265625,17.980655859375Q6.708219447265625,17.961455859375,6.617225447265625,17.923755859375Q6.526230447265625,17.886055859375,6.444338447265625,17.831355859375Q6.362445447265625,17.776555859375,6.292801447265625,17.706955859375Q6.223157447265625,17.637355859375,6.168438447265625,17.555455859375Q6.113720447265625,17.473555859375,6.076029447265625,17.382555859375Q6.038338447265625,17.291555859375002,6.019123447265625,17.194955859375Q5.999908447265625,17.098355859374998,5.999908447265625,16.999855859375L5.999908447265625,13.666485859375001Q5.999908447265625,12.561915859375,6.780962447265625,11.780855859375Q7.562015447265625,10.999805859375,8.666588447265624,10.999805859375L11.000038447265625,10.999805859375L11.000038447265625,6.999755859375Z" fill-rule="evenodd" fill="#F9CC45" fill-opacity="1"/></g><g><rect x="13.666717529296875" y="15.333251953125" width="6.6667327880859375" height="6.6667327880859375" rx="1.6666831970214844" fill="#FF7D00" fill-opacity="1"/></g><g><rect x="3.66656494140625" y="15.333251953125" width="6.6667327880859375" height="6.6667327880859375" rx="1.6666831970214844" fill="#FF7D00" fill-opacity="1"/></g><g><rect x="8.66668701171875" y="2" width="6.6667327880859375" height="6.6667327880859375" rx="1.6666831970214844" fill="#FF7D00" fill-opacity="1"/></g></g></svg>