<svg xmlns="http://www.w3.org/2000/svg" xmlns:xlink="http://www.w3.org/1999/xlink" fill="none" version="1.1" width="24" height="24" viewBox="0 0 24 24"><defs><clipPath id="master_svg0_732_39913"><rect x="0" y="0" width="24" height="24" rx="0"/></clipPath></defs><g clip-path="url(#master_svg0_732_39913)"><g><path d="M11,5Q11,4.9015086,11.019214999999999,4.80491Q11.03843,4.708311,11.076121,4.617317Q11.113812,4.526322,11.16853,4.44443Q11.223249,4.362537,11.292893,4.292893Q11.362537,4.223249,11.44443,4.16853Q11.526322,4.113812,11.617317,4.076121Q11.708311,4.03843,11.80491,4.019215Q11.9015086,4,12,4Q12.0984914,4,12.19509,4.019215Q12.291689,4.03843,12.382683,4.076121Q12.473678,4.113812,12.55557,4.16853Q12.637463,4.223249,12.707107,4.292893Q12.776751,4.362537,12.83147,4.44443Q12.886188,4.526322,12.923879,4.617317Q12.96157,4.708311,12.980785000000001,4.80491Q13,4.9015086,13,5L13,9Q13,9.09849,12.980785000000001,9.19509Q12.96157,9.29169,12.923879,9.38268Q12.886188,9.47368,12.83147,9.55557Q12.776751,9.63746,12.707107,9.70711Q12.637463,9.77675,12.55557,9.83147Q12.473678,9.88619,12.382683,9.92388Q12.291689,9.96157,12.19509,9.98078Q12.0984914,10,12,10Q11.9015086,10,11.80491,9.98078Q11.708311,9.96157,11.617317,9.92388Q11.526322,9.88619,11.44443,9.83147Q11.362537,9.77675,11.292893,9.70711Q11.223249,9.63746,11.16853,9.55557Q11.113812,9.47368,11.076121,9.38268Q11.03843,9.29169,11.019214999999999,9.19509Q11,9.09849,11,9L11,5Z" fill-rule="evenodd" fill="#4464F8" fill-opacity="1"/></g><g><path d="M1,13Q1,12.9015086,1.019215,12.80491Q1.03843,12.708311,1.076121,12.617317Q1.113812,12.526322,1.16853,12.44443Q1.223249,12.362537,1.2928929999999998,12.292893Q1.362537,12.223249,1.44443,12.16853Q1.526322,12.113812,1.617317,12.076121Q1.7083110000000001,12.03843,1.80491,12.019214999999999Q1.9015086,12,2,12Q2.0984914,12,2.19509,12.019214999999999Q2.291689,12.03843,2.382683,12.076121Q2.473678,12.113812,2.55557,12.16853Q2.637463,12.223249,2.707107,12.292893Q2.776751,12.362537,2.83147,12.44443Q2.8861879999999998,12.526322,2.923879,12.617317Q2.96157,12.708311,2.980785,12.80491Q3,12.9015086,3,13L3,17Q3,17.098489999999998,2.980785,17.19509Q2.96157,17.29169,2.923879,17.38268Q2.8861879999999998,17.47368,2.83147,17.55557Q2.776751,17.63746,2.707107,17.70711Q2.637463,17.77675,2.55557,17.83147Q2.473678,17.88619,2.382683,17.92388Q2.291689,17.961570000000002,2.19509,17.98078Q2.0984914,18,2,18Q1.9015086,18,1.80491,17.98078Q1.7083110000000001,17.961570000000002,1.617317,17.92388Q1.526322,17.88619,1.44443,17.83147Q1.362537,17.77675,1.2928929999999998,17.70711Q1.223249,17.63746,1.16853,17.55557Q1.113812,17.47368,1.076121,17.38268Q1.03843,17.29169,1.019215,17.19509Q1,17.098489999999998,1,17L1,13Z" fill-rule="evenodd" fill="#4464F8" fill-opacity="1"/></g><g><path d="M21,13C21,12.44772,21.4477,12,22,12C22.5523,12,23,12.44772,23,13L23,17C23,17.55228,22.5523,18,22,18C21.4477,18,21,17.55228,21,17L21,13ZM4,13L4,17Q4,19.0711,5.46448,20.535600000000002Q6.92895,22.0001,9,22L15,22Q17.0711,22,18.5355,20.535600000000002Q20,19.071199999999997,20,17L20,13Q20,10.92893,18.5355,9.46436Q17.0711,7.999889374,15,8L9,8Q6.928929999999999,8,5.46448,9.46436Q4.0000114441,10.92882,4,13ZM10,14.5L10,15.5C10,16.05228,9.55228,16.5,9,16.5C8.44772,16.5,8,16.05228,8,15.5L8,14.5C8,13.94772,8.44772,13.5,9,13.5C9.55228,13.5,10,13.94772,10,14.5ZM16,15.5L16,14.5C16,13.94772,15.5523,13.5,15,13.5C14.4477,13.5,14,13.94772,14,14.5L14,15.5C14,16.05228,14.4477,16.5,15,16.5C15.5523,16.5,16,16.05228,16,15.5Z" fill-rule="evenodd" fill="#4464F8" fill-opacity="1"/></g><g><ellipse cx="12" cy="4" rx="1" ry="1" fill-opacity="0" stroke-opacity="1" stroke="#4464F8" fill="none" stroke-width="2"/></g><g><g><path d="M22.252687624664308,19.792591036224366L23.075907624664307,20.615810036224364Q23.180377624664306,20.720276036224366,23.262447624664308,20.843115186224367Q23.344527624664305,20.965954036224364,23.401067624664307,21.102445036224367Q23.457597624664306,21.238937036224364,23.486427624664305,21.383835036224365Q23.515247624664305,21.528734036224364,23.515247624664305,21.676471036224367Q23.515247624664305,21.824208036224366,23.486427624664305,21.969111036224366Q23.457597624664306,22.114001036224366,23.401067624664307,22.250491036224364Q23.344527624664305,22.386991036224366,23.262447624664308,22.509821036224366Q23.180377624664306,22.632661036224366,23.075907624664307,22.737131036224365L22.252377624664305,23.560661036224367Q22.147911624664307,23.665121036224367,22.025072624664308,23.747201036224364Q21.902233624664305,23.829281036224366,21.765742624664306,23.885821036224364Q21.629251624664306,23.942351036224366,21.48435362466431,23.971181036224365Q21.339454624664306,24.000001036224365,21.191717624664307,24.000001036224365Q21.118027324664308,24.000001036224365,21.044691624664306,23.992781036224365Q20.971356624664306,23.985551036224365,20.899082624664306,23.971181036224365Q20.82680762466431,23.956801036224366,20.756290624664306,23.935411036224366Q20.685773624664307,23.914021036224366,20.617692624664308,23.885821036224364Q20.54961162466431,23.857621036224366,20.484622624664308,23.822881036224366Q20.419633624664307,23.788141036224367,20.358362624664306,23.747201036224364Q20.297090624664307,23.706261036224365,20.240127624664307,23.659511036224366Q20.183167624664307,23.612771036224366,20.131057624664308,23.560661036224367Q20.078947624664305,23.508551036224365,20.032197624664306,23.451591036224364Q19.985457624664306,23.394631036224364,19.944517624664307,23.333351036224364Q19.903577624664308,23.272081036224364,19.868837624664305,23.207091036224366Q19.834097624664306,23.142101036224364,19.805897624664308,23.074021036224366Q19.777697624664306,23.005941036224364,19.756307624664306,22.935431036224365Q19.734917624664305,22.864911036224363,19.720537624664306,22.792631036224364Q19.706167624664307,22.720361036224364,19.698937624664307,22.647021036224366Q19.691717624664307,22.573691036224364,19.691717624664307,22.500001036224365Q19.691717624664307,22.280511036224365,19.754607624664306,22.070211036224364Q19.817497624664306,21.859921036224364,19.938007624664305,21.676470036224366Q19.817497624664306,21.493016036224365,19.754607624664306,21.282725036224367Q19.691717624664307,21.072434036224365,19.691717624664307,20.852941036224365Q19.691717624664307,20.779250736224366,19.698937624664307,20.705915036224365Q19.706167624664307,20.632580036224365,19.720537624664306,20.560306036224365Q19.734917624664305,20.488031036224367,19.756307624664306,20.417514036224365Q19.777697624664306,20.346997036224366,19.805897624664308,20.278916036224366Q19.834097624664306,20.210835036224367,19.868837624664305,20.145846036224366Q19.903577624664308,20.080857036224366,19.944517624664307,20.019586036224364Q19.985457624664306,19.958314036224365,20.032197624664306,19.901351036224366Q20.078947624664305,19.844391036224366,20.131057624664308,19.792281036224367Q20.183167624664307,19.740171036224364,20.240127624664307,19.693421036224365Q20.297090624664307,19.646681036224365,20.358362624664306,19.605741036224366Q20.419633624664307,19.564801036224367,20.484622624664308,19.530061036224364Q20.54961162466431,19.495321036224365,20.617692624664308,19.467121036224366Q20.685773624664307,19.438921036224365,20.756290624664306,19.417531036224364Q20.82680762466431,19.396141036224364,20.899082624664306,19.381761036224365Q20.971356624664306,19.367391036224365,21.044691624664306,19.360161036224365Q21.118027324664308,19.352941036224365,21.191717624664307,19.352941036224365Q21.339454624664306,19.352941036224365,21.48435362466431,19.381761036224365Q21.629251624664306,19.410581036224364,21.765742624664306,19.467121036224366Q21.902233624664305,19.523661036224365,22.025072624664308,19.605741036224366Q22.147911624664307,19.687811036224364,22.252377624664305,19.792281036224367L22.252687624664308,19.792591036224366Z" fill-rule="evenodd" fill="#FFFFFF" fill-opacity="1"/></g><g><path d="M22.252687624664308,14.43965L23.075907624664307,15.262869Q23.180377624664306,15.367335,23.262447624664308,15.49017415Q23.344527624664305,15.613013,23.401067624664307,15.749504Q23.457597624664306,15.885996,23.486427624664305,16.030894Q23.515247624664305,16.175793,23.515247624664305,16.32353Q23.515247624664305,16.471267,23.486427624664305,16.61617Q23.457597624664306,16.76106,23.401067624664307,16.89755Q23.344527624664305,17.03405,23.262447624664308,17.15688Q23.180377624664306,17.27972,23.075907624664307,17.38419L22.252377624664305,18.207720000000002Q22.147911624664307,18.31218,22.025072624664308,18.39426Q21.902233624664305,18.47634,21.765742624664306,18.53288Q21.629251624664306,18.58941,21.48435362466431,18.61824Q21.339454624664306,18.64706,21.191717624664307,18.64706Q21.118027324664308,18.64706,21.044691624664306,18.63984Q20.971356624664306,18.63261,20.899082624664306,18.61824Q20.82680762466431,18.60386,20.756290624664306,18.58247Q20.685773624664307,18.56108,20.617692624664308,18.53288Q20.54961162466431,18.50468,20.484622624664308,18.46994Q20.419633624664307,18.435200000000002,20.358362624664306,18.39426Q20.297090624664307,18.35332,20.240127624664307,18.30657Q20.183167624664307,18.25983,20.131057624664308,18.207720000000002Q20.078947624664305,18.15561,20.032197624664306,18.09865Q19.985457624664306,18.04169,19.944517624664307,17.98041Q19.903577624664308,17.91914,19.868837624664305,17.85415Q19.834097624664306,17.78916,19.805897624664308,17.72108Q19.777697624664306,17.653,19.756307624664306,17.58249Q19.734917624664305,17.511969999999998,19.720537624664306,17.43969Q19.706167624664307,17.36742,19.698937624664307,17.29408Q19.691717624664307,17.22075,19.691717624664307,17.14706Q19.691717624664307,16.92757,19.754607624664306,16.71727Q19.817497624664306,16.50698,19.938007624664305,16.323529Q19.817497624664306,16.140075,19.754607624664306,15.929784Q19.691717624664307,15.719493,19.691717624664307,15.5Q19.691717624664307,15.4263097,19.698937624664307,15.352974Q19.706167624664307,15.279639,19.720537624664306,15.207365Q19.734917624664305,15.13509,19.756307624664306,15.064573Q19.777697624664306,14.994056,19.805897624664308,14.925975Q19.834097624664306,14.857894,19.868837624664305,14.792905Q19.903577624664308,14.727916,19.944517624664307,14.666645Q19.985457624664306,14.605373,20.032197624664306,14.54841Q20.078947624664305,14.49145,20.131057624664308,14.43934Q20.183167624664307,14.38723,20.240127624664307,14.34048Q20.297090624664307,14.29374,20.358362624664306,14.2528Q20.419633624664307,14.21186,20.484622624664308,14.17712Q20.54961162466431,14.14238,20.617692624664308,14.11418Q20.685773624664307,14.08598,20.756290624664306,14.064589999999999Q20.82680762466431,14.0432,20.899082624664306,14.02882Q20.971356624664306,14.01445,21.044691624664306,14.00722Q21.118027324664308,14,21.191717624664307,14Q21.339454624664306,14,21.48435362466431,14.02882Q21.629251624664306,14.05764,21.765742624664306,14.11418Q21.902233624664305,14.17072,22.025072624664308,14.2528Q22.147911624664307,14.33487,22.252377624664305,14.43934L22.252687624664308,14.43965Z" fill-rule="evenodd" fill="#FFFFFF" fill-opacity="1"/></g><g><path d="M20.574070173950197,23.176469422283173L22.015250173950196,23.176469422283173Q22.088940173950196,23.176469422283173,22.162270173950194,23.169249422283173Q22.235610173950196,23.162029422283172,22.307880173950196,23.147649422283173Q22.380160173950195,23.13326942228317,22.450670173950193,23.111879422283174Q22.521190173950195,23.090489422283174,22.589270173950197,23.062289422283172Q22.657350173950196,23.034089422283174,22.722340173950194,22.999349422283174Q22.787330173950195,22.96461942228317,22.848600173950196,22.923669422283172Q22.909870173950196,22.882729422283173,22.966840173950196,22.835989422283173Q23.023800173950196,22.789239422283174,23.075910173950195,22.73712942228317Q23.128010173950194,22.685019422283172,23.174760173950197,22.628059422283172Q23.221510173950193,22.571099422283172,23.262450173950196,22.509829422283172Q23.303390173950195,22.448549422283172,23.338130173950194,22.383569422283173Q23.372870173950197,22.31857942228317,23.401070173950195,22.250499422283173Q23.429270173950194,22.182409422283172,23.450660173950197,22.111899422283173Q23.472050173950194,22.04137942228317,23.486420173950194,21.96910942228317Q23.500800173950196,21.896829422283172,23.508020173950197,21.823499422283174Q23.515250173950196,21.750159422283172,23.515250173950196,21.676469422283173Q23.515250173950196,21.602779422283174,23.508020173950197,21.529439422283172Q23.500800173950196,21.456109422283173,23.486420173950194,21.38382942228317Q23.472050173950194,21.311559422283175,23.450660173950197,21.241039422283173Q23.429270173950194,21.170529422283174,23.401070173950195,21.102439422283172Q23.372870173950197,21.034359422283174,23.338130173950194,20.969369422283172Q23.303390173950195,20.904389422283174,23.262450173950196,20.843119422283173Q23.221510173950193,20.781839422283173,23.174760173950197,20.724879422283173Q23.128010173950194,20.667919422283173,23.075910173950195,20.61580942228317Q23.023800173950196,20.56369942228317,22.966840173950196,20.516959422283172Q22.909870173950196,20.470209422283173,22.848600173950196,20.429269422283173Q22.787330173950195,20.38832942228317,22.722340173950194,20.35358942228317Q22.657350173950196,20.318849422283172,22.589270173950197,20.290649422283174Q22.521190173950195,20.262449422283172,22.450670173950193,20.241059422283172Q22.380160173950195,20.21966942228317,22.307880173950196,20.205289422283172Q22.235610173950196,20.190919422283173,22.162270173950194,20.183689422283173Q22.088940173950196,20.176469422283173,22.015250173950196,20.176469422283173L20.574070173950197,20.176469422283173Q20.086760173950196,20.176469422283173,19.742180173950196,19.831889422283172Q19.397600173950195,19.48730942228317,19.397600173950195,18.999999422283175Q19.397600173950195,18.512689422283174,19.742180173950196,18.168109422283173Q20.086760173950196,17.823529422283173,20.574070173950197,17.823529422283173L22.015250173950196,17.823529422283173Q22.088940173950196,17.823529422283173,22.162270173950194,17.816309422283172Q22.235610173950196,17.809079422283173,22.307880173950196,17.794709422283173Q22.380160173950195,17.780329422283174,22.450670173950193,17.758939422283174Q22.521190173950195,17.737549422283173,22.589270173950197,17.70934942228317Q22.657350173950196,17.681149422283173,22.722340173950194,17.646409422283174Q22.787330173950195,17.61166942228317,22.848600173950196,17.570729422283172Q22.909870173950196,17.529789422283173,22.966840173950196,17.483049422283173Q23.023800173950196,17.436299422283174,23.075910173950195,17.38418942228317Q23.128010173950194,17.332079422283172,23.174760173950197,17.275119422283172Q23.221510173950193,17.218156422283172,23.262450173950196,17.156884422283174Q23.303390173950195,17.095613422283172,23.338130173950194,17.03062442228317Q23.372870173950197,16.96563542228317,23.401070173950195,16.89755442228317Q23.429270173950194,16.829473422283172,23.450660173950197,16.758956422283173Q23.472050173950194,16.68843942228317,23.486420173950194,16.616164422283173Q23.500800173950196,16.543890422283173,23.508020173950197,16.470555422283173Q23.515250173950196,16.39721972228317,23.515250173950196,16.323529422283173Q23.515250173950196,16.249839122283174,23.508020173950197,16.176503422283172Q23.500800173950196,16.103168422283172,23.486420173950194,16.030894422283172Q23.472050173950194,15.958619422283173,23.450660173950197,15.888102422283172Q23.429270173950194,15.817585422283173,23.401070173950195,15.749504422283172Q23.372870173950197,15.681423422283173,23.338130173950194,15.616434422283172Q23.303390173950195,15.551445422283173,23.262450173950196,15.490174422283173Q23.221510173950193,15.428902422283173,23.174760173950197,15.371939422283173Q23.128010173950194,15.314979422283173,23.075910173950195,15.262869422283172Q23.023800173950196,15.210759422283173,22.966840173950196,15.164009422283172Q22.909870173950196,15.117269422283172,22.848600173950196,15.076329422283173Q22.787330173950195,15.035389422283172,22.722340173950194,15.000649422283173Q22.657350173950196,14.965909422283172,22.589270173950197,14.937709422283172Q22.521190173950195,14.909509422283172,22.450670173950193,14.888119422283172Q22.380160173950195,14.866729422283173,22.307880173950196,14.852349422283172Q22.235610173950196,14.837979422283173,22.162270173950194,14.830749422283173Q22.088940173950196,14.823529422283173,22.015250173950196,14.823529422283173L20.574070173950197,14.823529422283173Q18.844120173950195,14.823529422283173,17.620860173950195,16.046789422283172Q16.397600173950195,17.270049422283172,16.397600173950195,18.999999422283175Q16.397600173950195,20.729949422283173,17.620860173950195,21.953209422283173Q18.844120173950195,23.176469422283173,20.574070173950197,23.176469422283173Z" fill-rule="evenodd" fill="#FFFFFF" fill-opacity="1"/></g><g><path d="M13.779953002929688,14.823529422283173L15.221133002929687,14.823529422283173Q16.951083002929686,14.823529422283173,18.17434300292969,16.046789422283172Q19.39760300292969,17.270049422283172,19.39760300292969,18.999999422283175Q19.39760300292969,20.729949422283173,18.17434300292969,21.953209422283173Q16.951083002929686,23.176469422283173,15.221133002929687,23.176469422283173L13.779953002929688,23.176469422283173Q13.706262702929687,23.176469422283173,13.632927002929687,23.169249422283173Q13.559592002929687,23.162029422283172,13.487318002929687,23.147649422283173Q13.415043002929687,23.13326942228317,13.344526002929687,23.111879422283174Q13.274009002929688,23.090489422283174,13.205928002929687,23.062289422283172Q13.137847002929687,23.034089422283174,13.072858002929687,22.999349422283174Q13.007869002929688,22.96461942228317,12.946598002929688,22.923669422283172Q12.885326002929688,22.882729422283173,12.828363002929688,22.835989422283173Q12.771403002929688,22.789239422283174,12.719293002929687,22.73712942228317Q12.667183002929688,22.685019422283172,12.620433002929687,22.628059422283172Q12.573693002929687,22.571099422283172,12.532753002929688,22.509829422283172Q12.491813002929687,22.448549422283172,12.457073002929688,22.383569422283173Q12.422333002929687,22.31857942228317,12.394133002929687,22.250499422283173Q12.365933002929687,22.182409422283172,12.344543002929687,22.111899422283173Q12.323153002929688,22.04137942228317,12.308773002929687,21.96910942228317Q12.294403002929688,21.896829422283172,12.287173002929688,21.823499422283174Q12.279953002929688,21.750159422283172,12.279953002929688,21.676469422283173Q12.279953002929688,21.602779422283174,12.287173002929688,21.529439422283172Q12.294403002929688,21.456109422283173,12.308773002929687,21.38382942228317Q12.323153002929688,21.311559422283175,12.344543002929687,21.241039422283173Q12.365933002929687,21.170529422283174,12.394133002929687,21.102439422283172Q12.422333002929687,21.034359422283174,12.457073002929688,20.969369422283172Q12.491813002929687,20.904389422283174,12.532753002929688,20.843119422283173Q12.573693002929687,20.781839422283173,12.620433002929687,20.724879422283173Q12.667183002929688,20.667919422283173,12.719293002929687,20.61580942228317Q12.771403002929688,20.56369942228317,12.828363002929688,20.516959422283172Q12.885326002929688,20.470209422283173,12.946598002929688,20.429269422283173Q13.007869002929688,20.38832942228317,13.072858002929687,20.35358942228317Q13.137847002929687,20.318849422283172,13.205928002929687,20.290649422283174Q13.274009002929688,20.262449422283172,13.344526002929687,20.241059422283172Q13.415043002929687,20.21966942228317,13.487318002929687,20.205289422283172Q13.559592002929687,20.190919422283173,13.632927002929687,20.183689422283173Q13.706262702929687,20.176469422283173,13.779953002929688,20.176469422283173L15.221133002929687,20.176469422283173Q15.708443002929688,20.176469422283173,16.053023002929688,19.831889422283172Q16.39760300292969,19.48730942228317,16.39760300292969,18.999999422283175Q16.39760300292969,18.512689422283174,16.053023002929688,18.168109422283173Q15.708443002929688,17.823529422283173,15.221133002929687,17.823529422283173L13.779953002929688,17.823529422283173Q13.706262702929687,17.823529422283173,13.632927002929687,17.816309422283172Q13.559592002929687,17.809079422283173,13.487318002929687,17.794709422283173Q13.415043002929687,17.780329422283174,13.344526002929687,17.758939422283174Q13.274009002929688,17.737549422283173,13.205928002929687,17.70934942228317Q13.137847002929687,17.681149422283173,13.072858002929687,17.646409422283174Q13.007869002929688,17.61166942228317,12.946598002929688,17.570729422283172Q12.885326002929688,17.529789422283173,12.828363002929688,17.483049422283173Q12.771403002929688,17.436299422283174,12.719293002929687,17.38418942228317Q12.667183002929688,17.332079422283172,12.620433002929687,17.275119422283172Q12.573693002929687,17.218156422283172,12.532753002929688,17.156884422283174Q12.491813002929687,17.095613422283172,12.457073002929688,17.03062442228317Q12.422333002929687,16.96563542228317,12.394133002929687,16.89755442228317Q12.365933002929687,16.829473422283172,12.344543002929687,16.758956422283173Q12.323153002929688,16.68843942228317,12.308773002929687,16.616164422283173Q12.294403002929688,16.543890422283173,12.287173002929688,16.470555422283173Q12.279953002929688,16.39721972228317,12.279953002929688,16.323529422283173Q12.279953002929688,16.249839122283174,12.287173002929688,16.176503422283172Q12.294403002929688,16.103168422283172,12.308773002929687,16.030894422283172Q12.323153002929688,15.958619422283173,12.344543002929687,15.888102422283172Q12.365933002929687,15.817585422283173,12.394133002929687,15.749504422283172Q12.422333002929687,15.681423422283173,12.457073002929688,15.616434422283172Q12.491813002929687,15.551445422283173,12.532753002929688,15.490174422283173Q12.573693002929687,15.428902422283173,12.620433002929687,15.371939422283173Q12.667183002929688,15.314979422283173,12.719293002929687,15.262869422283172Q12.771403002929688,15.210759422283173,12.828363002929688,15.164009422283172Q12.885326002929688,15.117269422283172,12.946598002929688,15.076329422283173Q13.007869002929688,15.035389422283172,13.072858002929687,15.000649422283173Q13.137847002929687,14.965909422283172,13.205928002929687,14.937709422283172Q13.274009002929688,14.909509422283172,13.344526002929687,14.888119422283172Q13.415043002929687,14.866729422283173,13.487318002929687,14.852349422283172Q13.559592002929687,14.837979422283173,13.632927002929687,14.830749422283173Q13.706262702929687,14.823529422283173,13.779953002929688,14.823529422283173Z" fill-rule="evenodd" fill="#FFFFFF" fill-opacity="1"/></g></g><g><g><path d="M21.545330624664306,20.499447036224364L22.368797624664307,21.322917036224364Q22.439127624664305,21.393243036224366,22.477187624664307,21.485129036224365Q22.51524762466431,21.577014036224366,22.51524762466431,21.676470036224366Q22.51524762466431,21.775927036224367,22.477187624664307,21.867811036224364Q22.439127624664305,21.959701036224367,22.368797624664307,22.030021036224365L21.545458624664306,22.853361036224364L21.545270624664308,22.853551036224367Q21.474944624664307,22.923881036224365,21.383059624664305,22.961941036224367Q21.291173824664305,23.000001036224365,21.191717624664307,23.000001036224365Q21.142471924664306,23.000001036224365,21.094172524664305,22.990391036224366Q21.045872624664305,22.980781036224364,21.000375624664308,22.961941036224367Q20.954878624664307,22.943091036224367,20.913932624664305,22.915731036224365Q20.872986624664307,22.888371036224363,20.838164624664305,22.853551036224367Q20.803342624664307,22.818731036224364,20.775982624664305,22.777781036224365Q20.748623624664308,22.736841036224366,20.729777624664308,22.691341036224365Q20.710932624664306,22.645841036224365,20.701324624664306,22.597541036224364Q20.691717624664307,22.549241036224366,20.691717624664307,22.500001036224365Q20.691717624664307,22.400541036224364,20.729777624664308,22.308661036224365Q20.767837624664306,22.216771036224365,20.838164624664305,22.146451036224367L21.308140624664308,21.676470036224366L20.838223624664305,21.206554036224365L20.838164624664305,21.206494036224367Q20.767837624664306,21.136168036224365,20.729777624664308,21.044283036224364Q20.691717624664307,20.952397236224364,20.691717624664307,20.852941036224365Q20.691717624664307,20.803695336224365,20.701324624664306,20.755395936224364Q20.710932624664306,20.707096036224364,20.729777624664308,20.661599036224366Q20.748623624664308,20.616102036224365,20.775982624664305,20.575156036224364Q20.803342624664307,20.534210036224366,20.838164624664305,20.499388036224364Q20.872986624664307,20.464566036224365,20.913932624664305,20.437206036224364Q20.954878624664307,20.409847036224367,21.000375624664308,20.391001036224367Q21.045872624664305,20.372156036224364,21.094172524664305,20.362548036224364Q21.142471924664306,20.352941036224365,21.191717624664307,20.352941036224365Q21.291173824664305,20.352941036224365,21.383059624664305,20.391001036224367Q21.474944624664307,20.429061036224365,21.545270624664308,20.499388036224364L21.545330624664306,20.499447036224364Z" fill-rule="evenodd" fill="#71C7FB" fill-opacity="1"/></g><g><path d="M21.545330624664306,15.146506L22.368797624664307,15.969976Q22.439127624664305,16.040302,22.477187624664307,16.132188Q22.51524762466431,16.224073,22.51524762466431,16.323529Q22.51524762466431,16.422986,22.477187624664307,16.51487Q22.439127624664305,16.60676,22.368797624664307,16.67708L21.545458624664306,17.50042L21.545270624664308,17.50061Q21.474944624664307,17.57094,21.383059624664305,17.609Q21.291173824664305,17.64706,21.191717624664307,17.64706Q21.142471924664306,17.64706,21.094172524664305,17.63745Q21.045872624664305,17.62784,21.000375624664308,17.609Q20.954878624664307,17.59015,20.913932624664305,17.56279Q20.872986624664307,17.535429999999998,20.838164624664305,17.50061Q20.803342624664307,17.46579,20.775982624664305,17.42484Q20.748623624664308,17.3839,20.729777624664308,17.3384Q20.710932624664306,17.2929,20.701324624664306,17.2446Q20.691717624664307,17.1963,20.691717624664307,17.14706Q20.691717624664307,17.0476,20.729777624664308,16.95572Q20.767837624664306,16.86383,20.838164624664305,16.79351L21.308140624664308,16.323529L20.838223624664305,15.853613L20.838164624664305,15.853553Q20.767837624664306,15.783227,20.729777624664308,15.691342Q20.691717624664307,15.5994562,20.691717624664307,15.5Q20.691717624664307,15.4507543,20.701324624664306,15.4024549Q20.710932624664306,15.354155,20.729777624664308,15.308658Q20.748623624664308,15.263161,20.775982624664305,15.222215Q20.803342624664307,15.181269,20.838164624664305,15.146447Q20.872986624664307,15.111625,20.913932624664305,15.084265Q20.954878624664307,15.056906,21.000375624664308,15.03806Q21.045872624664305,15.019214999999999,21.094172524664305,15.009607Q21.142471924664306,15,21.191717624664307,15Q21.291173824664305,15,21.383059624664305,15.03806Q21.474944624664307,15.07612,21.545270624664308,15.146447L21.545330624664306,15.146506Z" fill-rule="evenodd" fill="#71C7FB" fill-opacity="1"/></g><g><path d="M20.574070173950197,22.176469422283173L22.015250173950196,22.176469422283173Q22.064490173950198,22.176469422283173,22.112790173950195,22.166859422283174Q22.161090173950196,22.157259422283172,22.206590173950197,22.13840942228317Q22.252090173950194,22.11956942228317,22.293030173950196,22.092209422283172Q22.333980173950195,22.064849422283174,22.368800173950195,22.03001942228317Q22.403620173950195,21.99519942228317,22.430980173950196,21.954259422283172Q22.458340173950194,21.913309422283174,22.477190173950195,21.867809422283173Q22.496030173950196,21.822319422283172,22.505640173950194,21.774019422283175Q22.515250173950196,21.725719422283174,22.515250173950196,21.676469422283173Q22.515250173950196,21.627229422283172,22.505640173950194,21.578929422283174Q22.496030173950196,21.530629422283173,22.477190173950195,21.485129422283173Q22.458340173950194,21.439629422283172,22.430980173950196,21.398689422283173Q22.403620173950195,21.357739422283174,22.368800173950195,21.32291942228317Q22.333980173950195,21.28808942228317,22.293030173950196,21.260739422283173Q22.252090173950194,21.23337942228317,22.206590173950197,21.21452942228317Q22.161090173950196,21.195689422283174,22.112790173950195,21.18607942228317Q22.064490173950198,21.176469422283173,22.015250173950196,21.176469422283173L20.574070173950197,21.176469422283173Q19.672550173950196,21.176469422283173,19.035070173950196,20.538999422283172Q18.397600173950195,19.901519422283172,18.397600173950195,18.999999422283175Q18.397600173950195,18.098479422283173,19.035070173950196,17.460999422283173Q19.672550173950196,16.823529422283173,20.574070173950197,16.823529422283173L22.015250173950196,16.823529422283173Q22.064490173950198,16.823529422283173,22.112790173950195,16.813922422283174Q22.161090173950196,16.804314422283174,22.206590173950197,16.78546942228317Q22.252090173950194,16.76662342228317,22.293030173950196,16.739264422283174Q22.333980173950195,16.711904422283173,22.368800173950195,16.677082422283174Q22.403620173950195,16.642260422283172,22.430980173950196,16.601314422283174Q22.458340173950194,16.560368422283172,22.477190173950195,16.51487142228317Q22.496030173950196,16.469374422283174,22.505640173950194,16.421074522283174Q22.515250173950196,16.372775122283173,22.515250173950196,16.323529422283173Q22.515250173950196,16.274283722283172,22.505640173950194,16.22598432228317Q22.496030173950196,16.17768442228317,22.477190173950195,16.132187422283174Q22.458340173950194,16.086690422283173,22.430980173950196,16.04574442228317Q22.403620173950195,16.004798422283173,22.368800173950195,15.969976422283173Q22.333980173950195,15.935154422283173,22.293030173950196,15.907794422283173Q22.252090173950194,15.880435422283172,22.206590173950197,15.861589422283172Q22.161090173950196,15.842744422283172,22.112790173950195,15.833136422283173Q22.064490173950198,15.823529422283173,22.015250173950196,15.823529422283173L20.574070173950197,15.823529422283173Q19.258330173950196,15.823529422283173,18.327967173950196,16.753896422283173Q17.397600173950195,17.684259422283173,17.397600173950195,18.999999422283175Q17.397600173950195,20.315739422283173,18.327967173950196,21.246099422283173Q19.258330173950196,22.176469422283173,20.574070173950197,22.176469422283173Z" fill-rule="evenodd" fill="#71C7FB" fill-opacity="1"/></g><g><path d="M13.779953002929688,15.823529422283173L15.221133002929687,15.823529422283173Q16.53686300292969,15.823529422283173,17.46723300292969,16.753896422283173Q18.39760300292969,17.684259422283173,18.39760300292969,18.999999422283175Q18.39760300292969,20.315739422283173,17.46723300292969,21.246099422283173Q16.53686300292969,22.176469422283173,15.221133002929687,22.176469422283173L13.779953002929688,22.176469422283173Q13.730707302929687,22.176469422283173,13.682407902929688,22.166859422283174Q13.634108002929688,22.157259422283172,13.588611002929687,22.13840942228317Q13.543114002929688,22.11956942228317,13.502168002929688,22.092209422283172Q13.461222002929688,22.064849422283174,13.426400002929688,22.03001942228317Q13.391578002929688,21.99519942228317,13.364218002929688,21.954259422283172Q13.336859002929687,21.913309422283174,13.318013002929687,21.867809422283173Q13.299168002929687,21.822319422283172,13.289560002929688,21.774019422283175Q13.279953002929688,21.725719422283174,13.279953002929688,21.676469422283173Q13.279953002929688,21.627229422283172,13.289560002929688,21.578929422283174Q13.299168002929687,21.530629422283173,13.318013002929687,21.485129422283173Q13.336859002929687,21.439629422283172,13.364218002929688,21.398689422283173Q13.391578002929688,21.357739422283174,13.426400002929688,21.32291942228317Q13.461222002929688,21.28808942228317,13.502168002929688,21.260739422283173Q13.543114002929688,21.23337942228317,13.588611002929687,21.21452942228317Q13.634108002929688,21.195689422283174,13.682407902929688,21.18607942228317Q13.730707302929687,21.176469422283173,13.779953002929688,21.176469422283173L15.221133002929687,21.176469422283173Q16.122653002929688,21.176469422283173,16.76012300292969,20.538999422283172Q17.39760300292969,19.901519422283172,17.39760300292969,18.999999422283175Q17.39760300292969,18.098479422283173,16.76012300292969,17.460999422283173Q16.122653002929688,16.823529422283173,15.221133002929687,16.823529422283173L13.779953002929688,16.823529422283173Q13.730707302929687,16.823529422283173,13.682407902929688,16.813922422283174Q13.634108002929688,16.804314422283174,13.588611002929687,16.78546942228317Q13.543114002929688,16.76662342228317,13.502168002929688,16.739264422283174Q13.461222002929688,16.711904422283173,13.426400002929688,16.677082422283174Q13.391578002929688,16.642260422283172,13.364218002929688,16.601314422283174Q13.336859002929687,16.560368422283172,13.318013002929687,16.51487142228317Q13.299168002929687,16.469374422283174,13.289560002929688,16.421074522283174Q13.279953002929688,16.372775122283173,13.279953002929688,16.323529422283173Q13.279953002929688,16.274283722283172,13.289560002929688,16.22598432228317Q13.299168002929687,16.17768442228317,13.318013002929687,16.132187422283174Q13.336859002929687,16.086690422283173,13.364218002929688,16.04574442228317Q13.391578002929688,16.004798422283173,13.426400002929688,15.969976422283173Q13.461222002929688,15.935154422283173,13.502168002929688,15.907794422283173Q13.543114002929688,15.880435422283172,13.588611002929687,15.861589422283172Q13.634108002929688,15.842744422283172,13.682407902929688,15.833136422283173Q13.730707302929687,15.823529422283173,13.779953002929688,15.823529422283173Z" fill-rule="evenodd" fill="#71C7FB" fill-opacity="1"/></g></g></g></svg>