<svg xmlns="http://www.w3.org/2000/svg" xmlns:xlink="http://www.w3.org/1999/xlink" fill="none" version="1.1" width="24" height="24" viewBox="0 0 24 24"><defs><clipPath id="master_svg0_630_28758"><rect x="0" y="0" width="24" height="24" rx="0"/></clipPath></defs><g clip-path="url(#master_svg0_630_28758)"><g><rect x="2" y="3" width="20" height="15" rx="2" fill="#3491FA" fill-opacity="1"/><path d="M1,16L1,5Q1,2,4,2L20,2Q23,2,23,5L23,16Q23,19,20,19L4,19Q1,19,1,16ZM3,16Q3,17,4,17L20,17Q21,17,21,16L21,5Q21,4,20,4L4,4Q3,4,3,5L3,16Z" fill="#3491FA" fill-opacity="1"/></g><g><path d="M5,20.5L19,20.5Q19.0985,20.5,19.1951,20.519215Q19.2917,20.538429999999998,19.3827,20.576121Q19.4737,20.613812,19.5556,20.66853Q19.6375,20.723249,19.7071,20.792893Q19.776699999999998,20.862537,19.8315,20.94443Q19.886200000000002,21.026322,19.9239,21.117317Q19.9616,21.208311,19.980800000000002,21.30491Q20,21.4015086,20,21.5Q20,21.5984914,19.980800000000002,21.69509Q19.9616,21.791689,19.9239,21.882683Q19.886200000000002,21.973678,19.8315,22.05557Q19.776699999999998,22.137463,19.7071,22.207107Q19.6375,22.276751,19.5556,22.33147Q19.4737,22.386188,19.3827,22.423879Q19.2917,22.461570000000002,19.1951,22.480785Q19.0985,22.5,19,22.5L5,22.5Q4.9015086,22.5,4.80491,22.480785Q4.708311,22.461570000000002,4.617317,22.423879Q4.526322,22.386188,4.44443,22.33147Q4.362537,22.276751,4.292893,22.207107Q4.223249,22.137463,4.16853,22.05557Q4.113812,21.973678,4.076121,21.882683Q4.03843,21.791689,4.019215,21.69509Q4,21.5984914,4,21.5Q4,21.4015086,4.019215,21.30491Q4.03843,21.208311,4.076121,21.117317Q4.113812,21.026322,4.16853,20.94443Q4.223249,20.862537,4.292893,20.792893Q4.362537,20.723249,4.44443,20.66853Q4.526322,20.613812,4.617317,20.576121Q4.708311,20.538429999999998,4.80491,20.519215Q4.9015086,20.5,5,20.5Z" fill-rule="evenodd" fill="#3491FA" fill-opacity="1"/></g><g><path d="M16,11Q16,10.9015086,16.019215,10.80491Q16.038429999999998,10.708311,16.076121,10.617317Q16.113812,10.526322,16.16853,10.44443Q16.223249,10.362537,16.292893,10.292893Q16.362537,10.223249,16.44443,10.16853Q16.526322,10.113812,16.617317,10.076121Q16.708311,10.03843,16.80491,10.019214999999999Q16.9015086,10,17,10Q17.0984914,10,17.19509,10.019214999999999Q17.291689,10.03843,17.382683,10.076121Q17.473678,10.113812,17.55557,10.16853Q17.637463,10.223249,17.707107,10.292893Q17.776751,10.362537,17.83147,10.44443Q17.886188,10.526322,17.923879,10.617317Q17.961570000000002,10.708311,17.980785,10.80491Q18,10.9015086,18,11L18,14.5Q18,14.59849,17.980785,14.69509Q17.961570000000002,14.79169,17.923879,14.88268Q17.886188,14.97368,17.83147,15.05557Q17.776751,15.13746,17.707107,15.20711Q17.637463,15.27675,17.55557,15.33147Q17.473678,15.38619,17.382683,15.42388Q17.291689,15.46157,17.19509,15.48078Q17.0984914,15.5,17,15.5Q16.9015086,15.5,16.80491,15.48078Q16.708311,15.46157,16.617317,15.42388Q16.526322,15.38619,16.44443,15.33147Q16.362537,15.27675,16.292893,15.20711Q16.223249,15.13746,16.16853,15.05557Q16.113812,14.97368,16.076121,14.88268Q16.038429999999998,14.79169,16.019215,14.69509Q16,14.59849,16,14.5L16,11Z" fill-rule="evenodd" fill="#FFFFFF" fill-opacity="1"/></g><g><path d="M11,7Q11,6.9015086,11.019214999999999,6.80491Q11.03843,6.708311,11.076121,6.617317Q11.113812,6.526322,11.16853,6.44443Q11.223249,6.362537,11.292893,6.292893Q11.362537,6.223249,11.44443,6.16853Q11.526322,6.113812,11.617317,6.076121Q11.708311,6.03843,11.80491,6.019215Q11.9015086,6,12,6Q12.0984914,6,12.19509,6.019215Q12.291689,6.03843,12.382683,6.076121Q12.473678,6.113812,12.55557,6.16853Q12.637463,6.223249,12.707107,6.292893Q12.776751,6.362537,12.83147,6.44443Q12.886188,6.526322,12.923879,6.617317Q12.96157,6.708311,12.980785000000001,6.80491Q13,6.9015086,13,7L13,15Q13,15.09849,12.980785000000001,15.19509Q12.96157,15.29169,12.923879,15.38268Q12.886188,15.47368,12.83147,15.55557Q12.776751,15.63746,12.707107,15.70711Q12.637463,15.77675,12.55557,15.83147Q12.473678,15.88619,12.382683,15.92388Q12.291689,15.96157,12.19509,15.98078Q12.0984914,16,12,16Q11.9015086,16,11.80491,15.98078Q11.708311,15.96157,11.617317,15.92388Q11.526322,15.88619,11.44443,15.83147Q11.362537,15.77675,11.292893,15.70711Q11.223249,15.63746,11.16853,15.55557Q11.113812,15.47368,11.076121,15.38268Q11.03843,15.29169,11.019214999999999,15.19509Q11,15.09849,11,15L11,7Z" fill-rule="evenodd" fill="#FFFFFF" fill-opacity="1"/></g><g><path d="M6,9Q6,8.9015086,6.019215,8.80491Q6.03843,8.708311,6.076121,8.617317Q6.113812,8.526322,6.16853,8.44443Q6.223249,8.362537,6.292893,8.292893Q6.362537,8.223249,6.44443,8.16853Q6.526322,8.113812,6.617317,8.076121Q6.708311,8.03843,6.80491,8.019214999999999Q6.9015086,8,7,8Q7.0984914,8,7.19509,8.019214999999999Q7.291689,8.03843,7.382683,8.076121Q7.473678,8.113812,7.55557,8.16853Q7.637463,8.223249,7.707107,8.292893Q7.776751,8.362537,7.83147,8.44443Q7.886188,8.526322,7.923879,8.617317Q7.96157,8.708311,7.980785,8.80491Q8,8.9015086,8,9L8,15Q8,15.09849,7.980785,15.19509Q7.96157,15.29169,7.923879,15.38268Q7.886188,15.47368,7.83147,15.55557Q7.776751,15.63746,7.707107,15.70711Q7.637463,15.77675,7.55557,15.83147Q7.473678,15.88619,7.382683,15.92388Q7.291689,15.96157,7.19509,15.98078Q7.0984914,16,7,16Q6.9015086,16,6.80491,15.98078Q6.708311,15.96157,6.617317,15.92388Q6.526322,15.88619,6.44443,15.83147Q6.362537,15.77675,6.292893,15.70711Q6.223249,15.63746,6.16853,15.55557Q6.113812,15.47368,6.076121,15.38268Q6.03843,15.29169,6.019215,15.19509Q6,15.09849,6,15L6,9Z" fill-rule="evenodd" fill="#FFFFFF" fill-opacity="1"/></g></g></svg>