<svg xmlns="http://www.w3.org/2000/svg" xmlns:xlink="http://www.w3.org/1999/xlink" fill="none" version="1.1" width="24" height="24" viewBox="0 0 24 24"><defs><clipPath id="master_svg0_732_33194"><rect x="0" y="0" width="24" height="24" rx="0"/></clipPath></defs><g clip-path="url(#master_svg0_732_33194)"><g><path d="M7,12.5C7,9.7386,9.2386,7.5,12,7.5C14.7614,7.5,17,9.7386,17,12.5L17,20.5L7,20.5L7,12.5Z" fill="#FF7D00" fill-opacity="1"/><path d="M6,12.5L6,20.5Q6,20.5985,6.019215,20.6951Q6.03843,20.7917,6.076121,20.8827Q6.113812,20.9737,6.16853,21.0556Q6.223249,21.1375,6.292893,21.2071Q6.362537,21.276699999999998,6.44443,21.3315Q6.526322,21.386200000000002,6.617317,21.4239Q6.708311,21.4616,6.80491,21.480800000000002Q6.9015086,21.5,7,21.5L17,21.5Q17.0985,21.5,17.1951,21.480800000000002Q17.2917,21.4616,17.3827,21.4239Q17.4737,21.386200000000002,17.5556,21.3315Q17.6375,21.276699999999998,17.7071,21.2071Q17.776699999999998,21.1375,17.8315,21.0556Q17.886200000000002,20.9737,17.9239,20.8827Q17.9616,20.7917,17.980800000000002,20.6951Q18,20.5985,18,20.5L18,12.5Q18,10.01474,16.24263,8.257368Q14.48526,6.5,12,6.5Q9.51474,6.5,7.757368,8.257368Q6,10.01474,6,12.5ZM8,19.5L16,19.5L16,12.5Q16,10.843160000000001,14.828420000000001,9.67158Q13.656839999999999,8.5,12,8.5Q10.343160000000001,8.5,9.17158,9.67158Q8,10.843160000000001,8,12.5L8,19.5Z" fill-rule="evenodd" fill="#FF7D00" fill-opacity="1"/></g><g><path d="M13,2.5L13,4Q13,4.09849,12.980785000000001,4.19509Q12.96157,4.29169,12.923879,4.38268Q12.886188,4.47368,12.83147,4.5555699999999995Q12.776751,4.63746,12.707107,4.70711Q12.637463,4.77675,12.55557,4.8314699999999995Q12.473678,4.88619,12.382683,4.9238800000000005Q12.291689,4.96157,12.19509,4.98078Q12.0984914,5,12,5Q11.9015086,5,11.80491,4.98078Q11.708311,4.96157,11.617317,4.9238800000000005Q11.526322,4.88619,11.44443,4.8314699999999995Q11.362537,4.77675,11.292893,4.70711Q11.223249,4.63746,11.16853,4.5555699999999995Q11.113812,4.47368,11.076121,4.38268Q11.03843,4.29169,11.019214999999999,4.19509Q11,4.09849,11,4L11,2.5Q11,2.4015086,11.019214999999999,2.30491Q11.03843,2.208311,11.076121,2.117317Q11.113812,2.026322,11.16853,1.94443Q11.223249,1.862537,11.292893,1.7928929999999998Q11.362537,1.723249,11.44443,1.66853Q11.526322,1.613812,11.617317,1.576121Q11.708311,1.53843,11.80491,1.519215Q11.9015086,1.5,12,1.5Q12.0984914,1.5,12.19509,1.519215Q12.291689,1.53843,12.382683,1.576121Q12.473678,1.613812,12.55557,1.66853Q12.637463,1.723249,12.707107,1.7928929999999998Q12.776751,1.862537,12.83147,1.94443Q12.886188,2.026322,12.923879,2.117317Q12.96157,2.208311,12.980785000000001,2.30491Q13,2.4015086,13,2.5Z" fill-rule="evenodd" fill="#F9CC45" fill-opacity="1"/></g><g><path d="M18.711940897216795,5.306902952087403Q18.825280897216796,5.171828952087402,18.885590897216797,5.006135952087402Q18.945900897216795,4.840441952087402,18.945900897216795,4.664114952087402Q18.945900897216795,4.565623552087402,18.926680897216798,4.469024952087402Q18.907470897216797,4.3724259520874025,18.869780897216796,4.281431952087402Q18.832090897216798,4.190436952087403,18.777370897216798,4.108544952087402Q18.7226508972168,4.026651952087402,18.653010897216795,3.957007952087402Q18.583360897216796,3.8873639520874024,18.501470897216798,3.8326449520874024Q18.419580897216797,3.7779269520874026,18.328580897216796,3.7402359520874024Q18.237590897216798,3.7025449520874023,18.140990897216795,3.6833299520874023Q18.044390897216797,3.6641149520874023,17.945899897216798,3.6641149520874023Q17.836381897216796,3.6641149520874023,17.729460897216796,3.6878189520874023Q17.622538897216796,3.7115229520874022,17.523281897216798,3.7578069520874022Q17.424025897216797,3.8040909520874022,17.337138897216796,3.8707609520874025Q17.250252897216797,3.9374309520874022,17.179855897216797,4.021326952087402L16.215825897216796,5.1702099520874025L16.215656897216796,5.170411952087402Q16.102315897216798,5.305485952087403,16.042008897216796,5.471178952087403Q15.981700897216797,5.636872952087402,15.981700897216797,5.8132049520874025Q15.981700897216797,5.9116949520874025,16.000915897216796,6.008294952087402Q16.020130897216795,6.104884952087403,16.057821897216797,6.195884952087402Q16.095512897216796,6.286874952087402,16.150230897216797,6.368774952087403Q16.204949897216796,6.450664952087402,16.274593897216796,6.520304952087402Q16.344237897216797,6.589954952087402,16.426130897216797,6.644664952087402Q16.508022897216797,6.699384952087403,16.599017897216797,6.7370749520874025Q16.690011897216795,6.7747749520874025,16.786610897216796,6.793984952087403Q16.883209497216797,6.8132049520874025,16.981700897216797,6.8132049520874025Q17.091218897216798,6.8132049520874025,17.198139897216798,6.789494952087402Q17.305061897216795,6.765794952087402,17.404318897216797,6.719504952087402Q17.503574897216797,6.673224952087402,17.590461897216798,6.606554952087402Q17.677347897216798,6.5398849520874025,17.747744897216798,6.455984952087403L18.711940897216795,5.306902952087403Z" fill-rule="evenodd" fill="#F9CC45" fill-opacity="1"/></g><g><path d="M21.283009151611328,11.12845505493164Q21.369169151611327,11.11326205493164,21.451379151611327,11.08333905493164Q21.533589151611327,11.05341505493164,21.60935915161133,11.009670054931641Q21.685129151611328,10.965926054931641,21.752149151611327,10.90968905493164Q21.819159151611327,10.85345205493164,21.87539915161133,10.786432054931641Q21.93163915161133,10.71941205493164,21.975379151611328,10.64364605493164Q22.019119151611328,10.567879054931641,22.04903915161133,10.48566705493164Q22.07896915161133,10.40345505493164,22.09415915161133,10.317297054931641Q22.10934915161133,10.23113785493164,22.10934915161133,10.14365005493164Q22.10934915161133,10.04515865493164,22.09013915161133,9.94856005493164Q22.070919151611328,9.85196105493164,22.03322915161133,9.76096705493164Q21.99553915161133,9.669972054931641,21.94081915161133,9.588080054931641Q21.88609915161133,9.50618705493164,21.816459151611326,9.43654305493164Q21.746809151611327,9.36689905493164,21.66491915161133,9.312180054931641Q21.583029151611328,9.25746205493164,21.492029151611327,9.219771054931641Q21.40103915161133,9.18208005493164,21.304439151611327,9.16286505493164Q21.207839151611328,9.14365005493164,21.10934915161133,9.14365005493164Q21.021859151611327,9.14365005493164,20.935689151611328,9.158845054931641L19.458437151611328,9.419345054931641Q19.372279151611327,9.434538054931641,19.29006815161133,9.46446105493164Q19.207856151611328,9.49438505493164,19.13209015161133,9.53813005493164Q19.056324151611328,9.58187405493164,18.98930515161133,9.63811105493164Q18.922286151611328,9.694348054931641,18.86605015161133,9.76136805493164Q18.80981515161133,9.82838805493164,18.766071151611328,9.90415405493164Q18.722327151611328,9.97992105493164,18.69240515161133,10.06213305493164Q18.66248315161133,10.144344819931641,18.647291151611327,10.23050355493164Q18.632099151611328,10.31666205493164,18.632099151611328,10.404150054931641Q18.632099151611328,10.50264105493164,18.651314151611327,10.599240054931641Q18.670529151611326,10.69583905493164,18.70822015161133,10.786833054931641Q18.745911151611327,10.877827054931641,18.80062915161133,10.95972005493164Q18.855348151611327,11.041613054931641,18.924992151611328,11.11125705493164Q18.994636151611328,11.18090005493164,19.07652915161133,11.23562005493164Q19.15842115161133,11.29034005493164,19.249416151611328,11.328030054931642Q19.340410151611326,11.365720054931641,19.437009151611328,11.38494005493164Q19.533607751611328,11.404150054931641,19.632099151611328,11.404150054931641Q19.719594651611327,11.404150054931641,19.80576115161133,11.38896005493164L19.806044151611328,11.38891005493164L21.283009151611328,11.12845505493164Z" fill-rule="evenodd" fill="#F9CC45" fill-opacity="1"/></g><g><path d="M3.0642139388885496,9.158889645996094Q2.97806143888855,9.143699645996094,2.89057993888855,9.143699645996094Q2.79208853888855,9.143699645996094,2.69548993888855,9.162914645996093Q2.59889093888855,9.182129645996094,2.5078969388885497,9.219820645996094Q2.4169019388885498,9.257511645996093,2.33500993888855,9.312229645996094Q2.25311693888855,9.366948645996093,2.1834729388885497,9.436592645996093Q2.11382893888855,9.506236645996093,2.05910993888855,9.588129645996094Q2.00439193888855,9.670021645996094,1.96670093888855,9.761016645996094Q1.9290099388885498,9.852010645996094,1.9097949388885498,9.948609645996093Q1.8905799388885498,10.045208245996093,1.8905799388885498,10.143699645996094Q1.8905799388885498,10.231189245996093,1.9057729388885498,10.317349645996094Q1.9209649388885497,10.403509645996094,1.9508889388885498,10.485722645996093Q1.9808119388885497,10.567936645996094,2.0245569388885496,10.643704645996094Q2.06830193888855,10.719472645996094,2.1245399388885495,10.786492645996093Q2.18077793888855,10.853513645996093,2.2477989388885495,10.909749645996094Q2.3148209388885497,10.965986645996093,2.3905889388885497,11.009730645996093Q2.46635793888855,11.053474645996094,2.54857193888855,11.083396645996094Q2.63078493888855,11.113318645996094,2.71694593888855,11.128509645996093L4.19415993888855,11.388959645996094Q4.28030993888855,11.404149645996094,4.367789938888549,11.404149645996094Q4.46627993888855,11.404149645996094,4.56287993888855,11.384939645996093Q4.65947993888855,11.365719645996094,4.75046993888855,11.328029645996093Q4.84146993888855,11.290339645996093,4.92335993888855,11.235619645996094Q5.00524993888855,11.180899645996094,5.074899938888549,11.111256645996093Q5.14453993888855,11.041612645996093,5.19925993888855,10.959719645996094Q5.25397993888855,10.877827645996094,5.29166993888855,10.786833645996094Q5.329359938888549,10.695839645996093,5.34857993888855,10.599240645996094Q5.367789938888549,10.502641645996095,5.367789938888549,10.404149645996094Q5.367789938888549,10.316660645996095,5.35259993888855,10.230500045996093Q5.33740993888855,10.144339710996094,5.30747993888855,10.062126545996094Q5.277559938888549,9.979913645996094,5.23380993888855,9.904145645996094Q5.19006993888855,9.828377645996094,5.1338299388885495,9.761356645996093Q5.07758993888855,9.694336645996094,5.010569938888549,9.638099645996094Q4.94354993888855,9.581863645996094,4.86777993888855,9.538119645996094Q4.792009938888549,9.494375645996094,4.709799938888549,9.464452645996094Q4.62757993888855,9.434530645996094,4.54141993888855,9.419339645996093L3.0642139388885496,9.158889645996094Z" fill-rule="evenodd" fill="#F9CC45" fill-opacity="1"/></g><g><path d="M5.288254831390381,5.306797047912598Q5.174914831390381,5.1717230479125975,5.114606831390381,5.006030047912597Q5.054299831390381,4.840337047912597,5.054299831390381,4.664010047912598Q5.054299831390381,4.565518647912597,5.073514831390381,4.468920047912597Q5.092729831390381,4.372321047912598,5.1304208313903805,4.2813270479125975Q5.168111831390381,4.190332047912598,5.2228298313903805,4.108440047912597Q5.277548831390381,4.026547047912597,5.347192831390381,3.9569030479125975Q5.4168368313903805,3.8872590479125977,5.4987298313903805,3.8325400479125977Q5.580621831390381,3.777822047912598,5.671616831390381,3.7401310479125978Q5.762610831390381,3.7024400479125976,5.85920983139038,3.6832250479125976Q5.9558084313903805,3.6640100479125977,6.054299831390381,3.6640100479125977Q6.16381783139038,3.6640100479125977,6.270739831390381,3.6877140479125976Q6.377661831390381,3.7114180479125976,6.476917831390381,3.7577020479125975Q6.5761748313903805,3.8039870479125977,6.663061831390381,3.870657047912598Q6.749947831390381,3.9373270479125977,6.820344831390381,4.021223047912597L7.784539831390381,5.170313047912598Q7.897889831390381,5.305387047912598,7.958189831390381,5.471080047912597Q8.01849983139038,5.636773047912598,8.01849983139038,5.813100047912598Q8.01849983139038,5.911590047912598,7.999289831390381,6.008190047912597Q7.980069831390381,6.104790047912598,7.942379831390381,6.1957800479125975Q7.904689831390381,6.286780047912598,7.849969831390381,6.368670047912598Q7.795249831390381,6.450560047912598,7.725609831390381,6.520210047912598Q7.655959831390381,6.589850047912598,7.574069831390381,6.644570047912598Q7.492179831390381,6.699290047912598,7.401179831390381,6.736980047912597Q7.310189831390381,6.774670047912598,7.213589831390381,6.793880047912598Q7.116989831390381,6.813100047912598,7.018499831390381,6.813100047912598Q6.908981831390381,6.813100047912598,6.80205983139038,6.789400047912597Q6.695137831390381,6.765690047912598,6.595881831390381,6.719410047912598Q6.496624831390381,6.673120047912597,6.409737831390381,6.606450047912597Q6.3228518313903805,6.539780047912598,6.252454831390381,6.455890047912598L5.288254831390381,5.306797047912598L5.288254831390381,5.306797047912598Z" fill-rule="evenodd" fill="#F9CC45" fill-opacity="1"/></g><g><path d="M3,19.5L21.5,19.5Q21.5985,19.5,21.6951,19.519215Q21.7917,19.538429999999998,21.8827,19.576121Q21.9737,19.613812,22.0556,19.66853Q22.1375,19.723249,22.2071,19.792893Q22.2767,19.862537,22.3315,19.94443Q22.3862,20.026322,22.4239,20.117317Q22.4616,20.208311,22.4808,20.30491Q22.5,20.4015086,22.5,20.5Q22.5,20.5984914,22.4808,20.69509Q22.4616,20.791689,22.4239,20.882683Q22.3862,20.973678,22.3315,21.05557Q22.2767,21.137463,22.2071,21.207107Q22.1375,21.276751,22.0556,21.33147Q21.9737,21.386188,21.8827,21.423879Q21.7917,21.461570000000002,21.6951,21.480785Q21.5985,21.5,21.5,21.5L3,21.5Q2.9015086,21.5,2.80491,21.480785Q2.708311,21.461570000000002,2.617317,21.423879Q2.526322,21.386188,2.44443,21.33147Q2.362537,21.276751,2.292893,21.207107Q2.223249,21.137463,2.16853,21.05557Q2.1138120000000002,20.973678,2.076121,20.882683Q2.03843,20.791689,2.019215,20.69509Q2,20.5984914,2,20.5Q2,20.4015086,2.019215,20.30491Q2.03843,20.208311,2.076121,20.117317Q2.1138120000000002,20.026322,2.16853,19.94443Q2.223249,19.862537,2.292893,19.792893Q2.362537,19.723249,2.44443,19.66853Q2.526322,19.613812,2.617317,19.576121Q2.708311,19.538429999999998,2.80491,19.519215Q2.9015086,19.5,3,19.5Z" fill-rule="evenodd" fill="#FF7D00" fill-opacity="1"/></g><g><g><path d="M15.138824462890625,15.888894L15.138824462890625,17.63892Q15.138824462890625,17.71261,15.146044462890625,17.78594Q15.153274462890625,17.85928,15.167644462890625,17.93155Q15.182024462890626,18.00383,15.203414462890624,18.07434Q15.224804462890624,18.14486,15.253004462890624,18.21294Q15.281204462890624,18.281019999999998,15.315944462890625,18.34601Q15.350684462890625,18.411,15.391624462890626,18.47227Q15.432564462890625,18.53354,15.479304462890624,18.590510000000002Q15.526054462890626,18.64747,15.578164462890625,18.69958Q15.630274462890625,18.75169,15.687234462890626,18.79843Q15.744197462890625,18.84518,15.805469462890626,18.88612Q15.866740462890625,18.92706,15.931729462890624,18.9618Q15.996718462890625,18.99654,16.064799462890626,19.02474Q16.132880462890625,19.05294,16.203397462890624,19.07433Q16.273914462890627,19.09572,16.346189462890624,19.1101Q16.418463462890625,19.12447,16.491798462890625,19.1317Q16.565134162890626,19.13892,16.638824462890625,19.13892Q16.712514762890624,19.13892,16.785850462890625,19.1317Q16.859185462890625,19.12447,16.931459462890626,19.1101Q17.003734462890623,19.09572,17.074251462890626,19.07433Q17.144768462890625,19.05294,17.212849462890624,19.02474Q17.280930462890623,18.99654,17.345919462890624,18.9618Q17.410908462890625,18.92706,17.472179462890626,18.88612Q17.533451462890625,18.84518,17.590414462890624,18.79843Q17.647374462890625,18.75169,17.699484462890624,18.69958Q17.751594462890626,18.64747,17.798344462890626,18.590510000000002Q17.845084462890625,18.53354,17.886024462890624,18.47227Q17.926964462890624,18.411,17.961704462890626,18.34601Q17.996444462890626,18.281019999999998,18.024644462890624,18.21294Q18.052844462890626,18.14486,18.074234462890626,18.07434Q18.095624462890626,18.00383,18.110004462890625,17.93155Q18.124374462890625,17.85928,18.131604462890625,17.78594Q18.138824462890625,17.71261,18.138824462890625,17.63892L18.138824462890625,17L20.000004462890626,17L20.000004462890626,18.86118L19.361084462890624,18.86118Q19.287394462890624,18.86118,19.214054462890626,18.8684Q19.140724462890624,18.87562,19.068444462890625,18.89Q18.996174462890625,18.90438,18.925654462890627,18.92577Q18.855144462890625,18.94716,18.787054462890623,18.97536Q18.718974462890625,19.00356,18.653984462890627,19.03829Q18.589004462890625,19.07303,18.527724462890625,19.113970000000002Q18.466454462890624,19.15491,18.409494462890624,19.20166Q18.352534462890624,19.24841,18.300424462890625,19.30052Q18.248314462890626,19.35262,18.201564462890627,19.40959Q18.154814462890624,19.466549999999998,18.113874462890625,19.52782Q18.072934462890625,19.58909,18.038204462890626,19.65408Q18.003464462890626,19.719070000000002,17.975264462890625,19.78715Q17.947064462890626,19.85523,17.925674462890626,19.92575Q17.904284462890626,19.99627,17.889904462890627,20.06854Q17.875534462890624,20.140819999999998,17.868304462890624,20.21415Q17.861084462890624,20.28749,17.861084462890624,20.36118Q17.861084462890624,20.43487,17.868304462890624,20.508200000000002Q17.875534462890624,20.58154,17.889904462890627,20.65381Q17.904284462890626,20.72609,17.925674462890626,20.796599999999998Q17.947064462890626,20.86712,17.975264462890625,20.935200000000002Q18.003464462890626,21.00328,18.038204462890626,21.06827Q18.072934462890625,21.13326,18.113874462890625,21.19453Q18.154814462890624,21.2558,18.201564462890627,21.31277Q18.248314462890626,21.36973,18.300424462890625,21.42184Q18.352534462890624,21.47394,18.409494462890624,21.520690000000002Q18.466454462890624,21.56744,18.527724462890625,21.60838Q18.589004462890625,21.64932,18.653984462890627,21.68406Q18.718974462890625,21.7188,18.787054462890623,21.747Q18.855144462890625,21.775199999999998,18.925654462890627,21.796590000000002Q18.996174462890625,21.81798,19.068444462890625,21.832349999999998Q19.140724462890624,21.84673,19.214054462890626,21.85395Q19.287394462890624,21.86118,19.361084462890624,21.86118L21.111104462890623,21.86118Q21.893514462890625,21.86118,22.446764462890627,21.30793Q23.000004462890626,20.75469,23.000004462890626,19.972279999999998L23.000004462890626,15.888894Q23.000004462890626,15.106493,22.446764462890627,14.55325Q21.893524462890625,14,21.111104462890623,14L17.027718462890626,14Q16.245304462890626,14,15.692060462890625,14.55325Q15.138824462890625,15.106492,15.138824462890625,15.888894Z" fill-rule="evenodd" fill="#FFFFFF" fill-opacity="1"/></g><g><path d="M20.8610579296875,22.110951874999998L20.8610579296875,20.360931875Q20.8610579296875,20.287241875,20.8538279296875,20.213901875Q20.8466079296875,20.140571875,20.832227929687498,20.068291875Q20.8178579296875,19.996021875,20.796467929687502,19.925501875000002Q20.775077929687498,19.854991875,20.7468779296875,19.786901874999998Q20.7186779296875,19.718821875,20.6839379296875,19.653831875Q20.6491979296875,19.588851875,20.6082579296875,19.527571875Q20.5673179296875,19.466301875,20.520567929687502,19.409341875Q20.4738179296875,19.352381875,20.4217179296875,19.300271875Q20.3696079296875,19.248161875,20.3126479296875,19.201411875Q20.2556779296875,19.154671875,20.1944079296875,19.113721875Q20.1331379296875,19.072781875,20.0681479296875,19.038051875Q20.0031579296875,19.003311875,19.935077929687502,18.975111875Q19.8669979296875,18.946911875,19.796477929687498,18.925521875Q19.7259679296875,18.904131875,19.6536879296875,18.889751875Q19.5814179296875,18.875381875,19.508077929687502,18.868151875Q19.4347479296875,18.860931875,19.3610579296875,18.860931875Q19.2873679296875,18.860931875,19.2140279296875,18.868151875Q19.140697929687498,18.875381875,19.0684179296875,18.889751875Q18.9961479296875,18.904131875,18.9256279296875,18.925521875Q18.8551079296875,18.946911875,18.7870279296875,18.975111875Q18.718947929687502,19.003311875,18.6539579296875,19.038051875Q18.5889679296875,19.072781875,18.5276979296875,19.113721875Q18.466427929687498,19.154671875,18.4094679296875,19.201411875Q18.3524979296875,19.248161875,18.3003979296875,19.300271875Q18.2482879296875,19.352381875,18.2015379296875,19.409341875Q18.1547879296875,19.466301875,18.113847929687502,19.527571875Q18.0729079296875,19.588851875,18.0381779296875,19.653831875Q18.0034379296875,19.718821875,17.9752379296875,19.786901874999998Q17.9470379296875,19.854991875,17.9256479296875,19.925501875000002Q17.9042579296875,19.996021875,17.8898779296875,20.068291875Q17.8754979296875,20.140571875,17.8682779296875,20.213901875Q17.8610579296875,20.287241875,17.8610579296875,20.360931875L17.8610579296875,20.999851875L15.9998779296875,20.999851875L15.9998779296875,19.138671875L16.6387979296875,19.138671875Q16.7124879296875,19.138671875,16.7858179296875,19.131451875Q16.8591579296875,19.124221875,16.9314279296875,19.109851875Q17.0037079296875,19.095471875,17.0742179296875,19.074081875Q17.1447379296875,19.052691875,17.2128179296875,19.024491875Q17.280897929687498,18.996291875,17.3458879296875,18.961551875Q17.4108779296875,18.926811875,17.4721479296875,18.885871875Q17.5334179296875,18.844931875,17.590387929687502,18.798191875Q17.6473479296875,18.751441875,17.6994579296875,18.699331875Q17.7515679296875,18.647221875,17.7983079296875,18.590261875Q17.8450579296875,18.533298875,17.8859979296875,18.472026875Q17.9269379296875,18.410755875,17.9616779296875,18.345766875Q17.9964179296875,18.280777875,18.0246179296875,18.212696875Q18.0528179296875,18.144615875,18.0742079296875,18.074098875Q18.0955979296875,18.003581875,18.1099779296875,17.931306875Q18.1243479296875,17.859032875,18.1315779296875,17.785697875Q18.1387979296875,17.712362175,18.1387979296875,17.638671875Q18.1387979296875,17.564981575,18.1315779296875,17.491645875Q18.1243479296875,17.418310875,18.1099779296875,17.346036875Q18.0955979296875,17.273761875,18.0742079296875,17.203244875Q18.0528179296875,17.132727875,18.0246179296875,17.064646875Q17.9964179296875,16.996565875,17.9616779296875,16.931576875Q17.9269379296875,16.866587875,17.8859979296875,16.805316875Q17.8450579296875,16.744044875,17.7983079296875,16.687081875Q17.7515679296875,16.630121875,17.6994579296875,16.578011875Q17.6473479296875,16.525901875,17.590387929687502,16.479151875Q17.5334179296875,16.432411875,17.4721479296875,16.391471875Q17.4108779296875,16.350531875,17.3458879296875,16.315791875Q17.280897929687498,16.281051875,17.2128179296875,16.252851875Q17.1447379296875,16.224651875,17.0742179296875,16.203261875Q17.0037079296875,16.181871875,16.9314279296875,16.167491875Q16.8591579296875,16.153121875,16.7858179296875,16.145891875Q16.7124879296875,16.138671875,16.6387979296875,16.138671875L14.8887719296875,16.138671875Q14.1063699296875,16.138671875,13.5531279296875,16.691907875Q12.9998779296875,17.245151875,12.9998779296875,18.027565875L12.9998779296875,22.110951874999998Q12.9998779296875,22.893371875,13.5531289296875,23.446611875000002Q14.1063709296875,23.999851875,14.8887719296875,23.999851875L18.972157929687498,23.999851875Q19.7545679296875,23.999851875,20.307817929687502,23.446601875Q20.8610579296875,22.893361875,20.8610579296875,22.110951874999998Z" fill-rule="evenodd" fill="#FFFFFF" fill-opacity="1"/></g><g><path d="M15.138824462890625,20.360931875L15.138824462890625,17.638671875Q15.138824462890625,17.564981575,15.146044462890625,17.491645875Q15.153274462890625,17.418310875,15.167644462890625,17.346036875Q15.182024462890626,17.273761875,15.203414462890624,17.203244875Q15.224804462890624,17.132727875,15.253004462890624,17.064646875Q15.281204462890624,16.996565875,15.315944462890625,16.931576875Q15.350684462890625,16.866587875,15.391624462890626,16.805316875Q15.432564462890625,16.744044875,15.479304462890624,16.687081875Q15.526054462890626,16.630121875,15.578164462890625,16.578011875Q15.630274462890625,16.525901875,15.687234462890626,16.479151875Q15.744197462890625,16.432411875,15.805469462890626,16.391471875Q15.866740462890625,16.350531875,15.931729462890624,16.315791875Q15.996718462890625,16.281051875,16.064799462890626,16.252851875Q16.132880462890625,16.224651875,16.203397462890624,16.203261875Q16.273914462890627,16.181871875,16.346189462890624,16.167491875Q16.418463462890625,16.153121875,16.491798462890625,16.145891875Q16.565134162890626,16.138671875,16.638824462890625,16.138671875L19.361084462890624,16.138671875Q19.434774462890626,16.138671875,19.508104462890625,16.145891875Q19.581444462890623,16.153121875,19.653714462890626,16.167491875Q19.725994462890625,16.181871875,19.796514462890624,16.203261875Q19.867024462890626,16.224651875,19.935104462890624,16.252851875Q20.003184462890626,16.281051875,20.068174462890624,16.315791875Q20.133164462890626,16.350531875,20.194434462890626,16.391471875Q20.255714462890626,16.432411875,20.312674462890627,16.479151875Q20.369634462890623,16.525901875,20.421744462890626,16.578011875Q20.473854462890625,16.630121875,20.520594462890624,16.687081875Q20.567344462890624,16.744044875,20.608284462890627,16.805316875Q20.649224462890626,16.866587875,20.683964462890625,16.931576875Q20.718704462890624,16.996565875,20.746904462890626,17.064646875Q20.775104462890624,17.132727875,20.796494462890625,17.203244875Q20.817884462890625,17.273761875,20.832264462890624,17.346036875Q20.846634462890627,17.418310875,20.853864462890627,17.491645875Q20.861084462890624,17.564981575,20.861084462890624,17.638671875L20.861084462890624,20.360931875Q20.861084462890624,20.434621875,20.853864462890627,20.507951875Q20.846634462890627,20.581291874999998,20.832264462890624,20.653561875Q20.817884462890625,20.725841875,20.796494462890625,20.796361875Q20.775104462890624,20.866871875,20.746904462890626,20.934951875Q20.718704462890624,21.003031875,20.683964462890625,21.068021875Q20.649224462890626,21.133011875,20.608284462890627,21.194281875Q20.567344462890624,21.255561875,20.520594462890624,21.312521875Q20.473854462890625,21.369481874999998,20.421744462890626,21.421591875Q20.369634462890623,21.473701875,20.312674462890627,21.520441875Q20.255714462890626,21.567191875,20.194434462890626,21.608131875Q20.133164462890626,21.649071875,20.068174462890624,21.683811875Q20.003184462890626,21.718551875,19.935104462890624,21.746751875Q19.867024462890626,21.774951875,19.796514462890624,21.796341875Q19.725994462890625,21.817731875,19.653714462890626,21.832111875Q19.581444462890623,21.846481875000002,19.508104462890625,21.853711875000002Q19.434774462890626,21.860931875,19.361084462890624,21.860931875L16.638824462890625,21.860931875Q16.565134162890626,21.860931875,16.491798462890625,21.853711875000002Q16.418463462890625,21.846481875000002,16.346189462890624,21.832111875Q16.273914462890627,21.817731875,16.203397462890624,21.796341875Q16.132880462890625,21.774951875,16.064799462890626,21.746751875Q15.996718462890625,21.718551875,15.931729462890624,21.683811875Q15.866740462890625,21.649071875,15.805469462890626,21.608131875Q15.744197462890625,21.567191875,15.687234462890626,21.520441875Q15.630274462890625,21.473701875,15.578164462890625,21.421591875Q15.526054462890626,21.369481874999998,15.479304462890624,21.312521875Q15.432564462890625,21.255561875,15.391624462890626,21.194281875Q15.350684462890625,21.133011875,15.315944462890625,21.068021875Q15.281204462890624,21.003031875,15.253004462890624,20.934951875Q15.224804462890624,20.866871875,15.203414462890624,20.796361875Q15.182024462890626,20.725841875,15.167644462890625,20.653561875Q15.153274462890625,20.581291874999998,15.146044462890625,20.507951875Q15.138824462890625,20.434621875,15.138824462890625,20.360931875Z" fill="#FFFFFF" fill-opacity="1"/></g></g><g><g><path d="M16.138824462890625,15.888894L16.138824462890625,17.63892Q16.138824462890625,17.68816,16.148431462890624,17.73646Q16.158039462890624,17.78476,16.176884462890627,17.83026Q16.195730462890626,17.87576,16.223089462890623,17.9167Q16.250449462890625,17.95765,16.285271462890623,17.99247Q16.320093462890625,18.02729,16.361039462890623,18.05465Q16.401985462890625,18.08201,16.447482462890626,18.10086Q16.492979462890624,18.1197,16.541279362890624,18.12931Q16.589578762890625,18.13892,16.638824462890625,18.13892Q16.688070162890625,18.13892,16.736369562890626,18.12931Q16.784669462890626,18.1197,16.830166462890624,18.10086Q16.875663462890625,18.08201,16.916609462890627,18.05465Q16.957555462890625,18.02729,16.992377462890627,17.99247Q17.027199462890625,17.95765,17.054559462890627,17.9167Q17.081918462890624,17.87576,17.100764462890623,17.83026Q17.119609462890626,17.78476,17.129217462890626,17.73646Q17.138824462890625,17.68816,17.138824462890625,17.63892L17.138824462890625,16L21.000004462890626,16L21.000004462890626,19.86118L19.361084462890624,19.86118Q19.311834462890626,19.86118,19.263534462890625,19.87078Q19.215234462890624,19.88039,19.169744462890627,19.89924Q19.124244462890626,19.91808,19.083294462890624,19.945439999999998Q19.042354462890625,19.9728,19.007534462890625,20.00762Q18.972704462890626,20.04244,18.945344462890624,20.08339Q18.917984462890626,20.12434,18.899144462890625,20.16984Q18.880294462890625,20.21533,18.870694462890626,20.26363Q18.861084462890624,20.31193,18.861084462890624,20.36118Q18.861084462890624,20.410420000000002,18.870694462890626,20.45872Q18.880294462890625,20.50702,18.899144462890625,20.55252Q18.917984462890626,20.598010000000002,18.945344462890624,20.63896Q18.972704462890626,20.67991,19.007534462890625,20.71473Q19.042354462890625,20.74955,19.083294462890624,20.77691Q19.124244462890626,20.80427,19.169744462890627,20.82312Q19.215234462890624,20.84196,19.263534462890625,20.85157Q19.311834462890626,20.86118,19.361084462890624,20.86118L21.111104462890623,20.86118Q22.000004462890626,20.86118,22.000004462890626,19.972279999999998L22.000004462890626,15.888894Q22.000004462890626,15,21.111104462890623,15L17.027718462890626,15Q16.138824462890625,15,16.138824462890625,15.888894Z" fill-rule="evenodd" fill="#D25F00" fill-opacity="1"/></g><g><path d="M19.8610579296875,22.110951874999998L19.8610579296875,20.360931875Q19.8610579296875,20.311681875,19.8514479296875,20.263381875Q19.8418379296875,20.215081875,19.8229979296875,20.169591875000002Q19.8041479296875,20.124091875,19.7767879296875,20.083141875Q19.7494279296875,20.042201875,19.7146079296875,20.007381875Q19.6797879296875,19.972551875,19.6388379296875,19.945191875Q19.597887929687502,19.917831875,19.5523979296875,19.898991875Q19.5068979296875,19.880141875,19.4585979296875,19.870541875Q19.410297929687502,19.860931875,19.3610579296875,19.860931875Q19.3118079296875,19.860931875,19.2635079296875,19.870541875Q19.2152079296875,19.880141875,19.1697179296875,19.898991875Q19.1242179296875,19.917831875,19.0832679296875,19.945191875Q19.0423179296875,19.972551875,19.0074979296875,20.007381875Q18.9726779296875,20.042201875,18.945317929687498,20.083141875Q18.9179579296875,20.124091875,18.8991179296875,20.169591875000002Q18.8802679296875,20.215081875,18.8706579296875,20.263381875Q18.8610579296875,20.311681875,18.8610579296875,20.360931875L18.8610579296875,21.999851875L14.9998779296875,21.999851875L14.9998779296875,18.138671875L16.6387979296875,18.138671875Q16.6880379296875,18.138671875,16.7363379296875,18.129064875Q16.7846379296875,18.119456875,16.8301379296875,18.100611875Q16.8756379296875,18.081765875,16.9165779296875,18.054406875Q16.9575279296875,18.027046875,16.9923479296875,17.992224875Q17.0271679296875,17.957402875,17.0545279296875,17.916456875Q17.0818879296875,17.875510875,17.1007379296875,17.830013875Q17.1195779296875,17.784516875,17.1291879296875,17.736216975Q17.1387979296875,17.687917575,17.1387979296875,17.638671875Q17.1387979296875,17.589426175,17.1291879296875,17.541126775Q17.1195779296875,17.492826875,17.1007379296875,17.447329875Q17.0818879296875,17.401832875,17.0545279296875,17.360886875Q17.0271679296875,17.319940875,16.9923479296875,17.285118875Q16.9575279296875,17.250296875,16.9165779296875,17.222936875Q16.8756379296875,17.195577875,16.8301379296875,17.176731875Q16.7846379296875,17.157886875,16.7363379296875,17.148278875Q16.6880379296875,17.138671875,16.6387979296875,17.138671875L14.8887719296875,17.138671875Q13.9998779296875,17.138671875,13.9998779296875,18.027565875L13.9998779296875,22.110951874999998Q13.9998779296875,22.999851875,14.8887719296875,22.999851875L18.972157929687498,22.999851875Q19.8610579296875,22.999851875,19.8610579296875,22.110951874999998Z" fill-rule="evenodd" fill="#D25F00" fill-opacity="1"/></g><g><rect x="16.638824462890625" y="17.638671875" width="2.722259044647217" height="2.722259044647217" rx="0" fill="#D25F00" fill-opacity="1"/><path d="M16.138824462890625,20.360931875L16.138824462890625,17.638671875Q16.138824462890625,17.589426175,16.148431462890624,17.541126775Q16.158039462890624,17.492826875,16.176884462890627,17.447329875Q16.195730462890626,17.401832875,16.223089462890623,17.360886875Q16.250449462890625,17.319940875,16.285271462890623,17.285118875Q16.320093462890625,17.250296875,16.361039462890623,17.222936875Q16.401985462890625,17.195577875,16.447482462890626,17.176731875Q16.492979462890624,17.157886875,16.541279362890624,17.148278875Q16.589578762890625,17.138671875,16.638824462890625,17.138671875L19.361084462890624,17.138671875Q19.410324462890625,17.138671875,19.458624462890626,17.148278875Q19.506924462890623,17.157886875,19.552424462890624,17.176731875Q19.597924462890624,17.195577875,19.638864462890623,17.222936875Q19.679814462890626,17.250296875,19.714634462890626,17.285118875Q19.749454462890625,17.319940875,19.776814462890624,17.360886875Q19.804174462890625,17.401832875,19.823024462890626,17.447329875Q19.841864462890626,17.492826875,19.851474462890625,17.541126775Q19.861084462890624,17.589426175,19.861084462890624,17.638671875L19.861084462890624,20.360931875Q19.861084462890624,20.410171875,19.851474462890625,20.458471875Q19.841864462890626,20.506771875,19.823024462890626,20.552271875Q19.804174462890625,20.597771875,19.776814462890624,20.638711875Q19.749454462890625,20.679661875,19.714634462890626,20.714481875Q19.679814462890626,20.749301875,19.638864462890623,20.776661875Q19.597924462890624,20.804021875,19.552424462890624,20.822871875Q19.506924462890623,20.841711875,19.458624462890626,20.851321875Q19.410324462890625,20.860931875,19.361084462890624,20.860931875L16.638824462890625,20.860931875Q16.589578762890625,20.860931875,16.541279362890624,20.851321875Q16.492979462890624,20.841711875,16.447482462890626,20.822871875Q16.401985462890625,20.804021875,16.361039462890623,20.776661875Q16.320093462890625,20.749301875,16.285271462890623,20.714481875Q16.250449462890625,20.679661875,16.223089462890623,20.638711875Q16.195730462890626,20.597771875,16.176884462890627,20.552271875Q16.158039462890624,20.506771875,16.148431462890624,20.458471875Q16.138824462890625,20.410171875,16.138824462890625,20.360931875ZM17.138824462890625,18.138671875L17.138824462890625,19.860931875L18.861084462890624,19.860931875L18.861084462890624,18.138671875L17.138824462890625,18.138671875Z" fill="#D25F00" fill-opacity="1"/></g></g></g></svg>