<svg xmlns="http://www.w3.org/2000/svg" xmlns:xlink="http://www.w3.org/1999/xlink" fill="none" version="1.1" width="24" height="24" viewBox="0 0 24 24"><defs><clipPath id="master_svg0_732_40187"><rect x="0" y="0" width="24" height="24" rx="0"/></clipPath></defs><g clip-path="url(#master_svg0_732_40187)"><g><path d="M3,4L21,4Q21.0983,4,21.196,4.00963Q21.2938,4.01926,21.3902,4.03843Q21.4866,4.0576,21.5806,4.08612Q21.6746,4.11464,21.7654,4.15224Q21.8561,4.18984,21.9428,4.23616Q22.0294,4.28247,22.1111,4.33706Q22.1928,4.39165,22.2688,4.45398Q22.3447,4.51631,22.4142,4.58579Q22.4837,4.65526,22.546,4.73121Q22.6084,4.80716,22.6629,4.88886Q22.7175,4.97055,22.7638,5.057207Q22.8102,5.143859,22.8478,5.234633Q22.8854,5.325408,22.9139,5.419431Q22.9424,5.513454,22.9616,5.609819Q22.9807,5.706185,22.9904,5.803966Q23,5.9017463,23,6Q23,6.0982537,22.9904,6.196034Q22.9807,6.293815,22.9616,6.390181Q22.9424,6.486546,22.9139,6.580569Q22.8854,6.674592,22.8478,6.765367Q22.8102,6.856141,22.7638,6.942793Q22.7175,7.02945,22.6629,7.11114Q22.6084,7.19284,22.546,7.26879Q22.4837,7.34474,22.4142,7.41421Q22.3447,7.48369,22.2688,7.54602Q22.1928,7.60835,22.1111,7.66294Q22.0294,7.71753,21.9428,7.76384Q21.8561,7.81016,21.7654,7.84776Q21.6746,7.88536,21.5806,7.91388Q21.4865,7.9424,21.3902,7.96157Q21.2938,7.98074,21.196,7.99037Q21.0983,8,21,8L3,8Q2.9017463,8,2.803966,7.99037Q2.706185,7.98074,2.609819,7.96157Q2.513454,7.9424,2.419431,7.91388Q2.325408,7.88536,2.234633,7.84776Q2.143859,7.81016,2.057207,7.76384Q1.97055,7.71753,1.88886,7.66294Q1.80716,7.60835,1.73121,7.54602Q1.65526,7.48369,1.58579,7.41421Q1.51631,7.34474,1.45398,7.26879Q1.39165,7.19284,1.33706,7.11114Q1.28247,7.02945,1.23616,6.942793Q1.18984,6.856141,1.15224,6.765367Q1.11464,6.674592,1.08612,6.580569Q1.0576,6.486546,1.03843,6.390181Q1.01926,6.293815,1.00963,6.196034Q1,6.0982537,1,6Q1,5.9017463,1.00963,5.803966Q1.01926,5.706185,1.03843,5.609819Q1.0576,5.513454,1.08612,5.419431Q1.11464,5.325408,1.15224,5.234633Q1.18984,5.143859,1.23616,5.057207Q1.28247,4.97055,1.33706,4.88886Q1.39165,4.80716,1.45398,4.73121Q1.51631,4.65526,1.58579,4.58579Q1.65526,4.51631,1.73121,4.45398Q1.80716,4.39165,1.88886,4.33706Q1.97055,4.28247,2.057207,4.23616Q2.143859,4.18984,2.234633,4.15224Q2.325408,4.11464,2.419431,4.08612Q2.513454,4.0576,2.609819,4.03843Q2.706185,4.01926,2.803966,4.00963Q2.9017463,4,3,4Z" fill-rule="evenodd" fill="#4464F8" fill-opacity="1"/></g><g><path d="M3,16L21,16Q21.0983,16,21.196,16.00963Q21.2938,16.01926,21.3902,16.038429999999998Q21.4866,16.0576,21.5806,16.08612Q21.6746,16.11464,21.7654,16.15224Q21.8561,16.18984,21.9428,16.236159999999998Q22.0294,16.28247,22.1111,16.33706Q22.1928,16.39165,22.2688,16.45398Q22.3447,16.51631,22.4142,16.58579Q22.4837,16.65526,22.546,16.73121Q22.6084,16.80716,22.6629,16.88886Q22.7175,16.97055,22.7638,17.057207Q22.8102,17.143859,22.8478,17.234633Q22.8854,17.325408,22.9139,17.419431Q22.9424,17.513454,22.9616,17.609819Q22.9807,17.706185,22.9904,17.803966Q23,17.9017463,23,18Q23,18.0982537,22.9904,18.196034Q22.9807,18.293815,22.9616,18.390181Q22.9424,18.486546,22.9139,18.580569Q22.8854,18.674592,22.8478,18.765367Q22.8102,18.856141,22.7638,18.942793Q22.7175,19.02945,22.6629,19.11114Q22.6084,19.19284,22.546,19.26879Q22.4837,19.34474,22.4142,19.41421Q22.3447,19.48369,22.2688,19.54602Q22.1928,19.60835,22.1111,19.66294Q22.0294,19.71753,21.9428,19.763840000000002Q21.8561,19.81016,21.7654,19.84776Q21.6746,19.88536,21.5806,19.91388Q21.4865,19.9424,21.3902,19.961570000000002Q21.2938,19.98074,21.196,19.99037Q21.0983,20,21,20L3,20Q2.9017463,20,2.803966,19.99037Q2.706185,19.98074,2.609819,19.961570000000002Q2.513454,19.9424,2.419431,19.91388Q2.325408,19.88536,2.234633,19.84776Q2.143859,19.81016,2.057207,19.763840000000002Q1.97055,19.71753,1.88886,19.66294Q1.80716,19.60835,1.73121,19.54602Q1.65526,19.48369,1.58579,19.41421Q1.51631,19.34474,1.45398,19.26879Q1.39165,19.19284,1.33706,19.11114Q1.28247,19.02945,1.23616,18.942793Q1.18984,18.856141,1.15224,18.765367Q1.11464,18.674592,1.08612,18.580569Q1.0576,18.486546,1.03843,18.390181Q1.01926,18.293815,1.00963,18.196034Q1,18.0982537,1,18Q1,17.9017463,1.00963,17.803966Q1.01926,17.706185,1.03843,17.609819Q1.0576,17.513454,1.08612,17.419431Q1.11464,17.325408,1.15224,17.234633Q1.18984,17.143859,1.23616,17.057207Q1.28247,16.97055,1.33706,16.88886Q1.39165,16.80716,1.45398,16.73121Q1.51631,16.65526,1.58579,16.58579Q1.65526,16.51631,1.73121,16.45398Q1.80716,16.39165,1.88886,16.33706Q1.97055,16.28247,2.057207,16.236159999999998Q2.143859,16.18984,2.234633,16.15224Q2.325408,16.11464,2.419431,16.08612Q2.513454,16.0576,2.609819,16.038429999999998Q2.706185,16.01926,2.803966,16.00963Q2.9017463,16,3,16Z" fill-rule="evenodd" fill="#4464F8" fill-opacity="1"/></g><g><ellipse cx="15.000000238418579" cy="6.000000238418579" rx="3.500000238418579" ry="3.500000238418579" fill="#FFFFFF" fill-opacity="1"/><ellipse cx="15.000000238418579" cy="6.000000238418579" rx="3.500000238418579" ry="3.500000238418579" fill-opacity="0" stroke-opacity="1" stroke="#9FDB1D" fill="none" stroke-width="2.5"/></g><g><ellipse cx="9.000000238418579" cy="18.00000023841858" rx="3.500000238418579" ry="3.500000238418579" fill="#FFFFFF" fill-opacity="1"/><ellipse cx="9.000000238418579" cy="18.00000023841858" rx="3.500000238418579" ry="3.500000238418579" fill-opacity="0" stroke-opacity="1" stroke="#71C7FB" fill="none" stroke-width="2.5"/></g></g></svg>