<svg xmlns="http://www.w3.org/2000/svg" xmlns:xlink="http://www.w3.org/1999/xlink" fill="none" version="1.1" width="24" height="24" viewBox="0 0 24 24"><defs><clipPath id="master_svg0_732_39890"><rect x="0" y="0" width="24" height="24" rx="0"/></clipPath></defs><g clip-path="url(#master_svg0_732_39890)"><g><path d="M11,5Q11,4.9015086,11.019214999999999,4.80491Q11.03843,4.708311,11.076121,4.617317Q11.113812,4.526322,11.16853,4.44443Q11.223249,4.362537,11.292893,4.292893Q11.362537,4.223249,11.44443,4.16853Q11.526322,4.113812,11.617317,4.076121Q11.708311,4.03843,11.80491,4.019215Q11.9015086,4,12,4Q12.0984914,4,12.19509,4.019215Q12.291689,4.03843,12.382683,4.076121Q12.473678,4.113812,12.55557,4.16853Q12.637463,4.223249,12.707107,4.292893Q12.776751,4.362537,12.83147,4.44443Q12.886188,4.526322,12.923879,4.617317Q12.96157,4.708311,12.980785000000001,4.80491Q13,4.9015086,13,5L13,9Q13,9.09849,12.980785000000001,9.19509Q12.96157,9.29169,12.923879,9.38268Q12.886188,9.47368,12.83147,9.55557Q12.776751,9.63746,12.707107,9.70711Q12.637463,9.77675,12.55557,9.83147Q12.473678,9.88619,12.382683,9.92388Q12.291689,9.96157,12.19509,9.98078Q12.0984914,10,12,10Q11.9015086,10,11.80491,9.98078Q11.708311,9.96157,11.617317,9.92388Q11.526322,9.88619,11.44443,9.83147Q11.362537,9.77675,11.292893,9.70711Q11.223249,9.63746,11.16853,9.55557Q11.113812,9.47368,11.076121,9.38268Q11.03843,9.29169,11.019214999999999,9.19509Q11,9.09849,11,9L11,5Z" fill-rule="evenodd" fill="#4464F8" fill-opacity="1"/></g><g><path d="M1,13Q1,12.9015086,1.019215,12.80491Q1.03843,12.708311,1.076121,12.617317Q1.113812,12.526322,1.16853,12.44443Q1.223249,12.362537,1.2928929999999998,12.292893Q1.362537,12.223249,1.44443,12.16853Q1.526322,12.113812,1.617317,12.076121Q1.7083110000000001,12.03843,1.80491,12.019214999999999Q1.9015086,12,2,12Q2.0984914,12,2.19509,12.019214999999999Q2.291689,12.03843,2.382683,12.076121Q2.473678,12.113812,2.55557,12.16853Q2.637463,12.223249,2.707107,12.292893Q2.776751,12.362537,2.83147,12.44443Q2.8861879999999998,12.526322,2.923879,12.617317Q2.96157,12.708311,2.980785,12.80491Q3,12.9015086,3,13L3,17Q3,17.098489999999998,2.980785,17.19509Q2.96157,17.29169,2.923879,17.38268Q2.8861879999999998,17.47368,2.83147,17.55557Q2.776751,17.63746,2.707107,17.70711Q2.637463,17.77675,2.55557,17.83147Q2.473678,17.88619,2.382683,17.92388Q2.291689,17.961570000000002,2.19509,17.98078Q2.0984914,18,2,18Q1.9015086,18,1.80491,17.98078Q1.7083110000000001,17.961570000000002,1.617317,17.92388Q1.526322,17.88619,1.44443,17.83147Q1.362537,17.77675,1.2928929999999998,17.70711Q1.223249,17.63746,1.16853,17.55557Q1.113812,17.47368,1.076121,17.38268Q1.03843,17.29169,1.019215,17.19509Q1,17.098489999999998,1,17L1,13Z" fill-rule="evenodd" fill="#4464F8" fill-opacity="1"/></g><g><path d="M4,17L4,13Q4.0000114441,10.92882,5.46448,9.46436Q6.928929999999999,8,9,8L15,8Q17.0711,7.999889374,18.5355,9.46436Q20,10.92893,20,13L20,13.87652Q19.0354,13.5,18,13.5Q17.441000000000003,13.5,16.8934,13.612459999999999Q16.3459,13.72493,15.8321,13.945260000000001C15.6528,13.67681,15.3471,13.5,15,13.5C14.4477,13.5,14,13.94772,14,14.5L14,15.22508Q13.64199,15.60444,13.36167,16.04434Q13.08136,16.48424,12.88874,16.968989999999998Q12.69612,17.45374,12.59806,17.96606Q12.5,18.4784,12.5,19Q12.5,19.3973,12.55711,19.7905Q12.61422,20.1837,12.72725,20.5646Q12.84028,20.9456,13.00689,21.3063Q13.1735,21.667,13.39023,22L9,22Q6.92895,22.0001,5.46448,20.535600000000002Q4,19.0711,4,17ZM23,16.70871L23,13C23,12.44772,22.5523,12,22,12C21.4477,12,21,12.44772,21,13L21,14.390229999999999Q21.3256,14.60214,21.6182,14.85772Q21.9108,15.11331,22.1646,15.40749Q22.4184,15.70166,22.6283,16.02859Q22.8381,16.35552,23,16.70871ZM10,15.5L10,14.5C10,13.94772,9.55228,13.5,9,13.5C8.44772,13.5,8,13.94772,8,14.5L8,15.5C8,16.05228,8.44772,16.5,9,16.5C9.55228,16.5,10,16.05228,10,15.5Z" fill-rule="evenodd" fill="#4464F8" fill-opacity="1"/></g><g><ellipse cx="12" cy="4" rx="1" ry="1" fill-opacity="0" stroke-opacity="1" stroke="#4464F8" fill="none" stroke-width="2"/></g><g transform="matrix(0,1,-1,0,37.00091552734375,-7.00091552734375)"><ellipse cx="26.00091552734375" cy="19" rx="4" ry="4" fill="#71C7FB" fill-opacity="1"/></g><g><path d="M17.50091552734375,17Q17.50091552734375,16.9507543,17.51052252734375,16.9024549Q17.52013052734375,16.854155,17.53897552734375,16.808658Q17.55782152734375,16.763161,17.58518052734375,16.722215Q17.61254052734375,16.681269,17.64736252734375,16.646447Q17.68218452734375,16.611625,17.72313052734375,16.584265Q17.76407652734375,16.556906,17.80957352734375,16.53806Q17.85507052734375,16.519215,17.90337042734375,16.509607Q17.95166982734375,16.5,18.00091552734375,16.5Q18.05016122734375,16.5,18.09846062734375,16.509607Q18.14676052734375,16.519215,18.19225752734375,16.53806Q18.23775452734375,16.556906,18.27870052734375,16.584265Q18.31964652734375,16.611625,18.35446852734375,16.646447Q18.38929052734375,16.681269,18.41665052734375,16.722215Q18.44400952734375,16.763161,18.46285552734375,16.808658Q18.48170052734375,16.854155,18.49130852734375,16.9024549Q18.50091552734375,16.9507543,18.50091552734375,17L18.50091552734375,18.5L19.60091552734375,18.5Q19.65016552734375,18.5,19.69845552734375,18.50961Q19.74675552734375,18.51921,19.792255527343748,18.53806Q19.83775552734375,18.55691,19.87869552734375,18.58426Q19.91964552734375,18.61162,19.95446552734375,18.64645Q19.98929552734375,18.68127,20.01664552734375,18.72221Q20.04400552734375,18.76316,20.06285552734375,18.80866Q20.08170552734375,18.85416,20.09130552734375,18.90245Q20.10091552734375,18.95075,20.10091552734375,19Q20.10091552734375,19.04925,20.09130552734375,19.09754Q20.08170552734375,19.14584,20.06285552734375,19.19134Q20.04400552734375,19.23684,20.01664552734375,19.27778Q19.98929552734375,19.31873,19.95446552734375,19.35355Q19.91964552734375,19.38838,19.87869552734375,19.41573Q19.83775552734375,19.44309,19.792255527343748,19.46194Q19.74675552734375,19.48078,19.69845552734375,19.49039Q19.65016552734375,19.5,19.60091552734375,19.5L18.00091552734375,19.5Q17.95166982734375,19.5,17.90337042734375,19.49039Q17.85507052734375,19.48078,17.80957352734375,19.46194Q17.76407652734375,19.44309,17.72313052734375,19.41573Q17.68218452734375,19.38838,17.64736252734375,19.35355Q17.61254052734375,19.31873,17.58518052734375,19.27779Q17.55782152734375,19.23684,17.53897552734375,19.19134Q17.52013052734375,19.14584,17.51052252734375,19.09754Q17.50091552734375,19.04925,17.50091552734375,19L17.50091552734375,17Z" fill-rule="evenodd" fill="#FFFFFF" fill-opacity="1"/></g></g></svg>