<svg xmlns="http://www.w3.org/2000/svg" xmlns:xlink="http://www.w3.org/1999/xlink" fill="none" version="1.1" width="24" height="24" viewBox="0 0 24 24"><defs><clipPath id="master_svg0_732_59797"><rect x="0" y="0" width="24" height="24" rx="0"/></clipPath></defs><g clip-path="url(#master_svg0_732_59797)"><g><path d="M2 4.5C2 3.3954305003384135 2.8954305003384135 2.5 4 2.5L20 2.5C21.104569499661586 2.5 22 3.3954305003384135 22 4.5L22 6.5C22 6.5 22 6.5 22 6.5L2 6.5C2 6.5 2 6.5 2 6.5Z" fill="#F9CC45" fill-opacity="1"/></g><g><path d="M2 6.5C2 6.5 2 6.5 2 6.5L22 6.5C22 6.5 22 6.5 22 6.5L22 19.5C22 20.604569499661586 21.104569499661586 21.5 20 21.5L4 21.5C2.8954305003384135 21.5 2 20.604569499661586 2 19.5Z" fill="#FF7D00" fill-opacity="1"/></g><g style="opacity:0.5;"><path d="M8.5,6.5L8.50000550225,11.5L15.5,11.5L15.5,6.5L8.5,6.5Z" fill="#FFCF8B" fill-opacity="1"/></g><g style="opacity:0.6000000238418579;"><path d="M15.5,6.5L15.50000510924,11.5L22,11.5L22,6.5L15.5,6.5Z" fill="#FFCF8B" fill-opacity="1"/></g><g style="opacity:0.30000001192092896;"><path d="M2,6.5L2.00000510924,11.5L8.5,11.5L8.5,6.5L2,6.5Z" fill="#FFCF8B" fill-opacity="1"/></g><g style="opacity:0.30000001192092896;"><path d="M8.5,16.5L8.50000550225,21.5L15.5,21.5L15.5,16.5L8.5,16.5Z" fill="#FFCF8B" fill-opacity="1"/></g><g style="opacity:0.4000000059604645;"><path d="M15.5,16.5L15.50000510924,21.5L20,21.5C21.10457,21.5,22,20.60457,22,19.5L22,16.5L15.5,16.5Z" fill="#FFCF8B" fill-opacity="1"/></g><g style="opacity:0.10000000149011612;"><path d="M2,16.5L2.00000306554,19.5C2.00000419424,20.60457,2.895434,21.5,4,21.5L8.5,21.5L8.5,16.5L2,16.5Z" fill="#FFCF8B" fill-opacity="1"/></g><g style="opacity:0.4000000059604645;"><path d="M8.5,11.5L8.50000550225,16.5L15.5,16.5L15.5,11.5L8.5,11.5Z" fill="#FFCF8B" fill-opacity="1"/></g><g style="opacity:0.5;"><path d="M15.5,11.5L15.50000510924,16.5L22,16.5L22,11.5L15.5,11.5Z" fill="#FFCF8B" fill-opacity="1"/></g><g style="opacity:0.20000000298023224;"><path d="M2,11.5L2.00000510924,16.5L8.5,16.5L8.5,11.5L2,11.5Z" fill="#FFCF8B" fill-opacity="1"/></g><g><path d="M8.401302470703126,14.47727234375L8.401302470703126,13.28503234375L8.889972470703125,13.28503234375Q9.425992470703125,13.28503234375,9.716382470703126,12.99311234375Q10.004542470703125,12.71328234375,10.004562470703124,12.26396234375Q9.994632470703126,11.80472234375,9.705592470703126,11.51412234375Q9.415302470703125,11.23221234375,8.954742470703124,11.22221234375Q8.627662470703125,11.22221234375,8.357962470703125,11.43414234375L8.356962470703126,11.43492234375L8.355942470703125,11.435682343749999Q8.072692470703124,11.64682234375,7.972762470703125,12.09884234375L7.9554324707031245,12.17725234375L6.636550270703125,12.17725234375L6.647403270703125,12.06742234375Q6.737389470703125,11.15675234375,7.384333470703125,10.53257334375Q8.022902470703125,9.91122104375,8.910282470703125,9.89991685745L8.911422470703124,9.89990234375L8.912562470703126,9.89991385485Q10.029562470703125,9.91113974375,10.691032470703124,10.61784134375Q11.321482470703124,11.30459234375,11.332752470703124,12.24012234375Q11.332752470703124,12.71213234375,11.164142470703126,13.15051234375L11.163162470703124,13.15306234375L11.162042470703124,13.15556234375Q10.985522470703124,13.54893234375,10.569832470703124,13.86350234375Q10.998182470703124,14.17704234375,11.204692470703126,14.60017234375Q11.424512470703124,15.073642343749999,11.424512470703124,15.59332234375Q11.413302470703126,16.742482343749998,10.709082470703125,17.40723234375Q10.016372470703125,18.08868234375,8.933152470703124,18.09991234375Q8.092632470703125,18.09990234375,7.444035470703125,17.55944234375Q6.795598470703125,17.01910234375,6.605440270703125,16.00304234375L6.583282470703125,15.88464234375L7.900752470703125,15.88464234375L7.925332470703125,15.948912343749999Q8.067722470703124,16.32107234375,8.325542470703125,16.54912234375Q8.577662470703125,16.77761234375,9.003332470703125,16.77761234375Q9.458462470703125,16.77761234375,9.769242470703125,16.46606234375L9.770672470703126,16.46462234375L9.772162470703126,16.46325234375Q10.085792470703126,16.17335234375,10.096292470703125,15.62742234375Q10.085772470703125,15.069732343750001,9.771582470703125,14.76950234375Q9.460362470703124,14.47727234375,8.976342470703125,14.47727234375L8.401302470703126,14.47727234375ZM12.732002470703126,15.73723234375L12.732002470703126,15.73723234375L12.732002470703126,12.25721234375Q12.743262470703126,11.12384234375,13.462262470703125,10.50690634375Q14.132882470703125,9.89990872145,15.061432470703124,9.8999087438Q16.017732470703123,9.89992076155,16.688382470703125,10.50861134375Q17.373782470703127,11.125902343749999,17.396282470703127,12.26163234375L17.396282470703127,15.73481234375Q17.373782470703127,16.86308234375,16.688682470703124,17.48021234375Q16.018232470703126,18.08865234375,15.062602470703125,18.09990234375L15.061422470703125,18.09991234375L15.060232470703125,18.09990234375Q14.132392470703124,18.088752343750002,13.462262470703125,17.48217234375Q12.743252470703126,16.86514234375,12.732002470703126,15.73723234375ZM16.068032470703123,15.66994234375Q16.066152470703123,15.73792234375,16.060642470703122,15.80172234375Q15.977162470703124,16.76832234375,15.060422470703125,16.77760234375Q14.080032470703124,16.76777234375,14.060182470703126,15.66949234375L14.060202470703125,12.32852234375Q14.080002470703125,11.24313234375,15.061432470703124,11.22224234375Q15.182662470703125,11.22483234375,15.289302470703126,11.24385234375Q16.041482470703123,11.37802234375,16.068032470703123,12.32987234375L16.068032470703123,15.66994234375Z" fill-rule="evenodd" fill="#FFFFFF" fill-opacity="1"/></g><g><g><path d="M21.1678966796875,16.999755859375L21.1678966796875,17.505399859375Q21.9584566796875,17.559519859375,22.533316679687502,18.134375859374998Q23.1679166796875,18.768985859375,23.1679166796875,19.666445859375L23.1679166796875,20.999795859375Q23.1679166796875,21.073485859375,23.1606966796875,21.146825859375Q23.1534666796875,21.220155859374998,23.1390966796875,21.292425859375Q23.124716679687502,21.364705859375,23.1033266796875,21.435225859375Q23.0819366796875,21.505735859375,23.0537366796875,21.573815859375Q23.025536679687498,21.641905859375,22.9907966796875,21.706885859375Q22.9560566796875,21.771875859375,22.9151166796875,21.833145859375Q22.8741766796875,21.894425859374998,22.8274366796875,21.951385859375Q22.7806866796875,22.008345859374998,22.7285766796875,22.060455859375Q22.6764666796875,22.112565859375,22.6195066796875,22.159315859375Q22.5625466796875,22.206055859375,22.5012766796875,22.246995859374998Q22.4399966796875,22.287935859375,22.375016679687498,22.322675859375Q22.3100266796875,22.357415859375,22.2419466796875,22.385615859375Q22.1738566796875,22.413815859375,22.1033466796875,22.435205859375Q22.0328266796875,22.456595859375,21.9605566796875,22.470975859375Q21.8882766796875,22.485345859375002,21.814946679687502,22.492575859375002Q21.7416066796875,22.499795859375,21.6679166796875,22.499795859375Q21.5942266796875,22.499795859375,21.5208866796875,22.492575859375002Q21.4475566796875,22.485345859375002,21.3752766796875,22.470975859375Q21.3030066796875,22.456595859375,21.2324866796875,22.435205859375Q21.1619766796875,22.413815859375,21.0938966796875,22.385615859375Q21.0258066796875,22.357415859375,20.9608266796875,22.322675859375Q20.8958366796875,22.287935859375,20.834556679687502,22.246995859374998Q20.7732866796875,22.206055859375,20.7163266796875,22.159305859375Q20.6593666796875,22.112565859375,20.6072566796875,22.060455859375Q20.5551466796875,22.008345859374998,20.5083966796875,21.951385859375Q20.4616566796875,21.894425859374998,20.4207166796875,21.833145859375Q20.3797766796875,21.771875859375,20.3450366796875,21.706885859375Q20.3102966796875,21.641905859375,20.2820966796875,21.573815859375Q20.2538966796875,21.505735859375,20.2325066796875,21.435225859375Q20.2111166796875,21.364705859375,20.1967366796875,21.292425859375Q20.1823666796875,21.220155859374998,20.1751366796875,21.146825859375Q20.1679166796875,21.073485859375,20.1679166796875,20.999795859375L20.1679166796875,20.499775859375L19.1678466796875,20.499775859375L19.1678466796875,20.999795859375Q19.1678466796875,21.073485859375,19.1606266796875,21.146825859375Q19.1533966796875,21.220155859374998,19.1390266796875,21.292425859375Q19.1246466796875,21.364705859375,19.1032566796875,21.435225859375Q19.0818666796875,21.505735859375,19.0536666796875,21.573815859375Q19.0254666796875,21.641905859375,18.9907266796875,21.706885859375Q18.9559866796875,21.771875859375,18.9150466796875,21.833145859375Q18.8741066796875,21.894425859374998,18.8273666796875,21.951385859375Q18.7806166796875,22.008345859374998,18.7285066796875,22.060455859375Q18.6763966796875,22.112565859375,18.6194366796875,22.159315859375Q18.5624736796875,22.206055859375,18.5012016796875,22.246995859374998Q18.4399306796875,22.287935859375,18.3749416796875,22.322675859375Q18.3099526796875,22.357415859375,18.2418716796875,22.385615859375Q18.1737906796875,22.413815859375,18.1032736796875,22.435205859375Q18.0327566796875,22.456595859375,17.9604816796875,22.470975859375Q17.8882076796875,22.485345859375002,17.8148726796875,22.492575859375002Q17.7415369796875,22.499795859375,17.6678466796875,22.499795859375Q17.5941563796875,22.499795859375,17.5208206796875,22.492575859375002Q17.4474856796875,22.485345859375002,17.3752116796875,22.470975859375Q17.3029366796875,22.456595859375,17.2324196796875,22.435205859375Q17.1619026796875,22.413815859375,17.0938216796875,22.385615859375Q17.0257406796875,22.357415859375,16.9607516796875,22.322675859375Q16.8957626796875,22.287935859375,16.8344916796875,22.246995859374998Q16.7732196796875,22.206055859375,16.7162566796875,22.159305859375Q16.6592966796875,22.112565859375,16.6071866796875,22.060455859375Q16.5550766796875,22.008345859374998,16.5083266796875,21.951385859375Q16.4615866796875,21.894425859374998,16.4206466796875,21.833145859375Q16.3797066796875,21.771875859375,16.3449666796875,21.706885859375Q16.3102266796875,21.641905859375,16.2820266796875,21.573815859375Q16.2538266796875,21.505735859375,16.2324366796875,21.435225859375Q16.2110466796875,21.364705859375,16.1966666796875,21.292425859375Q16.1822966796875,21.220155859374998,16.1750666796875,21.146825859375Q16.1678466796875,21.073485859375,16.1678466796875,20.999795859375L16.1678466796875,19.666445859375Q16.1678466796875,18.768985859375,16.8024506796875,18.134375859374998Q17.3773206796875,17.559508859375,18.1678966796875,17.505397859375L18.1678966796875,16.999755859375Q18.1678966796875,16.926065559375,18.1751196796875,16.852729859375Q18.1823426796875,16.779394859375,18.1967186796875,16.707120859375Q18.2110956796875,16.634845859375,18.2324866796875,16.564328859375Q18.2538776796875,16.493811859375,18.2820776796875,16.425730859375Q18.3102776796875,16.357649859375,18.3450156796875,16.292660859375Q18.3797526796875,16.227671859375,18.4206926796875,16.166400859375Q18.4616326796875,16.105128859375,18.5083816796875,16.048165859375Q18.5551296796875,15.991205859375,18.6072366796875,15.939095859375Q18.6593436796875,15.886985859375,18.7163066796875,15.840235859375Q18.7732666796875,15.793495859375,18.8345366796875,15.752555859375Q18.8958166796875,15.711615859375,18.9608066796875,15.676875859375Q19.0257866796875,15.642135859375,19.0938766796875,15.613935859375Q19.1619566796875,15.585735859375,19.2324666796875,15.564345859374999Q19.3029866796875,15.542955859375,19.3752566796875,15.528575859375Q19.4475366796875,15.514205859375,19.5208666796875,15.506975859375Q19.5942066796875,15.499755859375,19.6678966796875,15.499755859375Q19.7415866796875,15.499755859375,19.8149266796875,15.506975859375Q19.8882566796875,15.514205859375,19.9605366796875,15.528575859375Q20.0328066796875,15.542955859375,20.1033266796875,15.564345859374999Q20.1738366796875,15.585735859375,20.2419266796875,15.613935859375Q20.3100066796875,15.642135859375,20.3749966796875,15.676875859375Q20.4399766796875,15.711615859375,20.5012566796875,15.752555859375Q20.5625266796875,15.793495859375,20.6194866796875,15.840235859375Q20.6764466796875,15.886985859375,20.7285566796875,15.939095859375Q20.7806666796875,15.991205859375,20.8274166796875,16.048165859375Q20.874156679687502,16.105128859375,20.9150966796875,16.166400859375Q20.9560466796875,16.227671859375,20.9907766796875,16.292660859375Q21.0255166796875,16.357649859375,21.0537166796875,16.425730859375Q21.0819166796875,16.493811859375,21.1033066796875,16.564328859375Q21.1246966796875,16.634845859375,21.1390766796875,16.707120859375Q21.153446679687498,16.779394859375,21.1606766796875,16.852729859375Q21.1678966796875,16.926065559375,21.1678966796875,16.999755859375Z" fill-rule="evenodd" fill="#FFFFFF" fill-opacity="1"/></g><g><rect x="20.334564208984375" y="20.333251953125" width="2.6666932106018066" height="2.6666932106018066" rx="0.6666733026504517" fill-opacity="0" stroke-opacity="1" stroke="#FFFFFF" fill="none" stroke-width="2.5"/></g><g><rect x="16.334503173828125" y="20.333251953125" width="2.6666932106018066" height="2.6666932106018066" rx="0.6666733026504517" fill-opacity="0" stroke-opacity="1" stroke="#FFFFFF" fill="none" stroke-width="2.5"/></g><g><rect x="18.334564208984375" y="15" width="2.6666932106018066" height="2.6666932106018066" rx="0.6666733026504517" fill-opacity="0" stroke-opacity="1" stroke="#FFFFFF" fill="none" stroke-width="2.5"/></g></g><g><g><path d="M19.2678966796875,16.999755859375Q19.2678966796875,16.960359259375,19.2755866796875,16.921719759375Q19.2832666796875,16.883079859375,19.2983466796875,16.846682859375Q19.3134266796875,16.810284859375,19.3353066796875,16.777527859375Q19.3571966796875,16.744770859375,19.3850566796875,16.716912859375Q19.4129166796875,16.689055859375,19.4456666796875,16.667167859375Q19.4784266796875,16.645280859375,19.5148266796875,16.630203859375Q19.5512166796875,16.615127859375,19.5898566796875,16.607441859375Q19.6284966796875,16.599755859375,19.6678966796875,16.599755859375Q19.7072966796875,16.599755859375,19.7459366796875,16.607441859375Q19.7845766796875,16.615127859375,19.8209666796875,16.630203859375Q19.8573666796875,16.645280859375,19.8901266796875,16.667167859375Q19.9228866796875,16.689055859375,19.950736679687502,16.716912859375Q19.9785966796875,16.744770859375,20.0004866796875,16.777527859375Q20.0223766796875,16.810284859375,20.0374466796875,16.846682859375Q20.0525266796875,16.883079859375,20.0602066796875,16.921719759375Q20.0678966796875,16.960359259375,20.0678966796875,16.999755859375L20.0678966796875,18.599775859375L21.0012466796875,18.599775859375Q21.4430766796875,18.599775859375,21.7554966796875,18.912195859375Q22.0679166796875,19.224615859375,22.0679166796875,19.666445859375L22.0679166796875,20.999795859375Q22.0679166796875,21.039195859375,22.0602266796875,21.077835859375Q22.0525466796875,21.116475859375,22.0374666796875,21.152865859374998Q22.0223966796875,21.189265859375,22.0005066796875,21.222025859375Q21.978616679687498,21.254775859375002,21.9507566796875,21.282635859375Q21.9229066796875,21.310495859375,21.8901466796875,21.332385859375Q21.8573866796875,21.354265859375,21.8209866796875,21.369345859375Q21.7845966796875,21.384425859375,21.7459566796875,21.392105859375Q21.7073166796875,21.399795859375,21.6679166796875,21.399795859375Q21.6285166796875,21.399795859375,21.5898766796875,21.392105859375Q21.5512366796875,21.384425859375,21.5148466796875,21.369345859375Q21.4784466796875,21.354265859375,21.4456866796875,21.332385859375Q21.4129366796875,21.310495859375,21.3850766796875,21.282635859375Q21.3572166796875,21.254775859375002,21.3353266796875,21.222025859375Q21.3134366796875,21.189265859375,21.2983666796875,21.152865859374998Q21.2832866796875,21.116475859375,21.2756066796875,21.077835859375Q21.2679166796875,21.039195859375,21.2679166796875,20.999795859375L21.2679166796875,19.666445859375Q21.2679166796875,19.555985859375,21.1898066796875,19.477885859375Q21.1117066796875,19.399775859375,21.0012466796875,19.399775859375L18.3345196796875,19.399775859375Q18.0678466796875,19.399775859375,18.0678466796875,19.666445859375L18.0678466796875,20.999795859375Q18.0678466796875,21.039195859375,18.0601606796875,21.077835859375Q18.0524746796875,21.116475859375,18.0373986796875,21.152865859374998Q18.0223216796875,21.189265859375,18.0004346796875,21.222025859375Q17.9785466796875,21.254775859375002,17.9506896796875,21.282635859375Q17.9228316796875,21.310495859375,17.8900746796875,21.332385859375Q17.8573176796875,21.354265859375,17.8209196796875,21.369345859375Q17.7845226796875,21.384425859375,17.7458827796875,21.392105859375Q17.7072432796875,21.399795859375,17.6678466796875,21.399795859375Q17.6284500796875,21.399795859375,17.5898105796875,21.392105859375Q17.5511706796875,21.384425859375,17.5147736796875,21.369345859375Q17.4783756796875,21.354265859375,17.4456186796875,21.332385859375Q17.4128616796875,21.310495859375,17.3850036796875,21.282635859375Q17.3571466796875,21.254775859375002,17.3352586796875,21.222025859375Q17.3133716796875,21.189265859375,17.2982946796875,21.152865859374998Q17.2832186796875,21.116475859375,17.2755326796875,21.077835859375Q17.2678466796875,21.039195859375,17.2678466796875,20.999795859375L17.2678466796875,19.666445859375Q17.2678466796875,19.224615859375,17.5802679796875,18.912195859375Q17.8926896796875,18.599775859375,18.3345196796875,18.599775859375L19.2678966796875,18.599775859375L19.2678966796875,16.999755859375Z" fill-rule="evenodd" fill="#F9CC45" fill-opacity="1"/></g><g><rect x="20.334564208984375" y="20.333251953125" width="2.6666932106018066" height="2.6666932106018066" rx="0.6666733026504517" fill="#FF7D00" fill-opacity="1"/></g><g><rect x="16.334503173828125" y="20.333251953125" width="2.6666932106018066" height="2.6666932106018066" rx="0.6666733026504517" fill="#FF7D00" fill-opacity="1"/></g><g><rect x="18.334564208984375" y="15" width="2.6666932106018066" height="2.6666932106018066" rx="0.6666733026504517" fill="#FF7D00" fill-opacity="1"/></g></g></g></svg>