<svg xmlns="http://www.w3.org/2000/svg" xmlns:xlink="http://www.w3.org/1999/xlink" fill="none" version="1.1" width="24" height="24" viewBox="0 0 24 24"><defs><clipPath id="master_svg0_700_32421"><rect x="0" y="0" width="24" height="24" rx="0"/></clipPath></defs><g clip-path="url(#master_svg0_700_32421)"><g><path d="M7,12.5C7,9.7386,9.2386,7.5,12,7.5C14.7614,7.5,17,9.7386,17,12.5L17,20.5L7,20.5L7,12.5Z" fill="#FF7D00" fill-opacity="1"/><path d="M6,12.5L6,20.5Q6,20.5985,6.019215,20.6951Q6.03843,20.7917,6.076121,20.8827Q6.113812,20.9737,6.16853,21.0556Q6.223249,21.1375,6.292893,21.2071Q6.362537,21.276699999999998,6.44443,21.3315Q6.526322,21.386200000000002,6.617317,21.4239Q6.708311,21.4616,6.80491,21.480800000000002Q6.9015086,21.5,7,21.5L17,21.5Q17.0985,21.5,17.1951,21.480800000000002Q17.2917,21.4616,17.3827,21.4239Q17.4737,21.386200000000002,17.5556,21.3315Q17.6375,21.276699999999998,17.7071,21.2071Q17.776699999999998,21.1375,17.8315,21.0556Q17.886200000000002,20.9737,17.9239,20.8827Q17.9616,20.7917,17.980800000000002,20.6951Q18,20.5985,18,20.5L18,12.5Q18,10.01474,16.24263,8.257368Q14.48526,6.5,12,6.5Q9.51474,6.5,7.757368,8.257368Q6,10.01474,6,12.5ZM8,19.5L16,19.5L16,12.5Q16,10.843160000000001,14.828420000000001,9.67158Q13.656839999999999,8.5,12,8.5Q10.343160000000001,8.5,9.17158,9.67158Q8,10.843160000000001,8,12.5L8,19.5Z" fill-rule="evenodd" fill="#FF7D00" fill-opacity="1"/></g><g><path d="M13,2.5L13,4Q13,4.09849,12.980785000000001,4.19509Q12.96157,4.29169,12.923879,4.38268Q12.886188,4.47368,12.83147,4.5555699999999995Q12.776751,4.63746,12.707107,4.70711Q12.637463,4.77675,12.55557,4.8314699999999995Q12.473678,4.88619,12.382683,4.9238800000000005Q12.291689,4.96157,12.19509,4.98078Q12.0984914,5,12,5Q11.9015086,5,11.80491,4.98078Q11.708311,4.96157,11.617317,4.9238800000000005Q11.526322,4.88619,11.44443,4.8314699999999995Q11.362537,4.77675,11.292893,4.70711Q11.223249,4.63746,11.16853,4.5555699999999995Q11.113812,4.47368,11.076121,4.38268Q11.03843,4.29169,11.019214999999999,4.19509Q11,4.09849,11,4L11,2.5Q11,2.4015086,11.019214999999999,2.30491Q11.03843,2.208311,11.076121,2.117317Q11.113812,2.026322,11.16853,1.94443Q11.223249,1.862537,11.292893,1.7928929999999998Q11.362537,1.723249,11.44443,1.66853Q11.526322,1.613812,11.617317,1.576121Q11.708311,1.53843,11.80491,1.519215Q11.9015086,1.5,12,1.5Q12.0984914,1.5,12.19509,1.519215Q12.291689,1.53843,12.382683,1.576121Q12.473678,1.613812,12.55557,1.66853Q12.637463,1.723249,12.707107,1.7928929999999998Q12.776751,1.862537,12.83147,1.94443Q12.886188,2.026322,12.923879,2.117317Q12.96157,2.208311,12.980785000000001,2.30491Q13,2.4015086,13,2.5Z" fill-rule="evenodd" fill="#F9CC45" fill-opacity="1"/></g><g><path d="M18.711940897216795,5.306902952087403Q18.825280897216796,5.171828952087402,18.885590897216797,5.006135952087402Q18.945900897216795,4.840441952087402,18.945900897216795,4.664114952087402Q18.945900897216795,4.565623552087402,18.926680897216798,4.469024952087402Q18.907470897216797,4.3724259520874025,18.869780897216796,4.281431952087402Q18.832090897216798,4.190436952087403,18.777370897216798,4.108544952087402Q18.7226508972168,4.026651952087402,18.653010897216795,3.957007952087402Q18.583360897216796,3.8873639520874024,18.501470897216798,3.8326449520874024Q18.419580897216797,3.7779269520874026,18.328580897216796,3.7402359520874024Q18.237590897216798,3.7025449520874023,18.140990897216795,3.6833299520874023Q18.044390897216797,3.6641149520874023,17.945899897216798,3.6641149520874023Q17.836381897216796,3.6641149520874023,17.729460897216796,3.6878189520874023Q17.622538897216796,3.7115229520874022,17.523281897216798,3.7578069520874022Q17.424025897216797,3.8040909520874022,17.337138897216796,3.8707609520874025Q17.250252897216797,3.9374309520874022,17.179855897216797,4.021326952087402L16.215825897216796,5.1702099520874025L16.215656897216796,5.170411952087402Q16.102315897216798,5.305485952087403,16.042008897216796,5.471178952087403Q15.981700897216797,5.636872952087402,15.981700897216797,5.8132049520874025Q15.981700897216797,5.9116949520874025,16.000915897216796,6.008294952087402Q16.020130897216795,6.104884952087403,16.057821897216797,6.195884952087402Q16.095512897216796,6.286874952087402,16.150230897216797,6.368774952087403Q16.204949897216796,6.450664952087402,16.274593897216796,6.520304952087402Q16.344237897216797,6.589954952087402,16.426130897216797,6.644664952087402Q16.508022897216797,6.699384952087403,16.599017897216797,6.7370749520874025Q16.690011897216795,6.7747749520874025,16.786610897216796,6.793984952087403Q16.883209497216797,6.8132049520874025,16.981700897216797,6.8132049520874025Q17.091218897216798,6.8132049520874025,17.198139897216798,6.789494952087402Q17.305061897216795,6.765794952087402,17.404318897216797,6.719504952087402Q17.503574897216797,6.673224952087402,17.590461897216798,6.606554952087402Q17.677347897216798,6.5398849520874025,17.747744897216798,6.455984952087403L18.711940897216795,5.306902952087403Z" fill-rule="evenodd" fill="#F9CC45" fill-opacity="1"/></g><g><path d="M21.283009151611328,11.12845505493164Q21.369169151611327,11.11326205493164,21.451379151611327,11.08333905493164Q21.533589151611327,11.05341505493164,21.60935915161133,11.009670054931641Q21.685129151611328,10.965926054931641,21.752149151611327,10.90968905493164Q21.819159151611327,10.85345205493164,21.87539915161133,10.786432054931641Q21.93163915161133,10.71941205493164,21.975379151611328,10.64364605493164Q22.019119151611328,10.567879054931641,22.04903915161133,10.48566705493164Q22.07896915161133,10.40345505493164,22.09415915161133,10.317297054931641Q22.10934915161133,10.23113785493164,22.10934915161133,10.14365005493164Q22.10934915161133,10.04515865493164,22.09013915161133,9.94856005493164Q22.070919151611328,9.85196105493164,22.03322915161133,9.76096705493164Q21.99553915161133,9.669972054931641,21.94081915161133,9.588080054931641Q21.88609915161133,9.50618705493164,21.816459151611326,9.43654305493164Q21.746809151611327,9.36689905493164,21.66491915161133,9.312180054931641Q21.583029151611328,9.25746205493164,21.492029151611327,9.219771054931641Q21.40103915161133,9.18208005493164,21.304439151611327,9.16286505493164Q21.207839151611328,9.14365005493164,21.10934915161133,9.14365005493164Q21.021859151611327,9.14365005493164,20.935689151611328,9.158845054931641L19.458437151611328,9.419345054931641Q19.372279151611327,9.434538054931641,19.29006815161133,9.46446105493164Q19.207856151611328,9.49438505493164,19.13209015161133,9.53813005493164Q19.056324151611328,9.58187405493164,18.98930515161133,9.63811105493164Q18.922286151611328,9.694348054931641,18.86605015161133,9.76136805493164Q18.80981515161133,9.82838805493164,18.766071151611328,9.90415405493164Q18.722327151611328,9.97992105493164,18.69240515161133,10.06213305493164Q18.66248315161133,10.144344819931641,18.647291151611327,10.23050355493164Q18.632099151611328,10.31666205493164,18.632099151611328,10.404150054931641Q18.632099151611328,10.50264105493164,18.651314151611327,10.599240054931641Q18.670529151611326,10.69583905493164,18.70822015161133,10.786833054931641Q18.745911151611327,10.877827054931641,18.80062915161133,10.95972005493164Q18.855348151611327,11.041613054931641,18.924992151611328,11.11125705493164Q18.994636151611328,11.18090005493164,19.07652915161133,11.23562005493164Q19.15842115161133,11.29034005493164,19.249416151611328,11.328030054931642Q19.340410151611326,11.365720054931641,19.437009151611328,11.38494005493164Q19.533607751611328,11.404150054931641,19.632099151611328,11.404150054931641Q19.719594651611327,11.404150054931641,19.80576115161133,11.38896005493164L19.806044151611328,11.38891005493164L21.283009151611328,11.12845505493164Z" fill-rule="evenodd" fill="#F9CC45" fill-opacity="1"/></g><g><path d="M3.0642139388885496,9.158889645996094Q2.97806143888855,9.143699645996094,2.89057993888855,9.143699645996094Q2.79208853888855,9.143699645996094,2.69548993888855,9.162914645996093Q2.59889093888855,9.182129645996094,2.5078969388885497,9.219820645996094Q2.4169019388885498,9.257511645996093,2.33500993888855,9.312229645996094Q2.25311693888855,9.366948645996093,2.1834729388885497,9.436592645996093Q2.11382893888855,9.506236645996093,2.05910993888855,9.588129645996094Q2.00439193888855,9.670021645996094,1.96670093888855,9.761016645996094Q1.9290099388885498,9.852010645996094,1.9097949388885498,9.948609645996093Q1.8905799388885498,10.045208245996093,1.8905799388885498,10.143699645996094Q1.8905799388885498,10.231189245996093,1.9057729388885498,10.317349645996094Q1.9209649388885497,10.403509645996094,1.9508889388885498,10.485722645996093Q1.9808119388885497,10.567936645996094,2.0245569388885496,10.643704645996094Q2.06830193888855,10.719472645996094,2.1245399388885495,10.786492645996093Q2.18077793888855,10.853513645996093,2.2477989388885495,10.909749645996094Q2.3148209388885497,10.965986645996093,2.3905889388885497,11.009730645996093Q2.46635793888855,11.053474645996094,2.54857193888855,11.083396645996094Q2.63078493888855,11.113318645996094,2.71694593888855,11.128509645996093L4.19415993888855,11.388959645996094Q4.28030993888855,11.404149645996094,4.367789938888549,11.404149645996094Q4.46627993888855,11.404149645996094,4.56287993888855,11.384939645996093Q4.65947993888855,11.365719645996094,4.75046993888855,11.328029645996093Q4.84146993888855,11.290339645996093,4.92335993888855,11.235619645996094Q5.00524993888855,11.180899645996094,5.074899938888549,11.111256645996093Q5.14453993888855,11.041612645996093,5.19925993888855,10.959719645996094Q5.25397993888855,10.877827645996094,5.29166993888855,10.786833645996094Q5.329359938888549,10.695839645996093,5.34857993888855,10.599240645996094Q5.367789938888549,10.502641645996095,5.367789938888549,10.404149645996094Q5.367789938888549,10.316660645996095,5.35259993888855,10.230500045996093Q5.33740993888855,10.144339710996094,5.30747993888855,10.062126545996094Q5.277559938888549,9.979913645996094,5.23380993888855,9.904145645996094Q5.19006993888855,9.828377645996094,5.1338299388885495,9.761356645996093Q5.07758993888855,9.694336645996094,5.010569938888549,9.638099645996094Q4.94354993888855,9.581863645996094,4.86777993888855,9.538119645996094Q4.792009938888549,9.494375645996094,4.709799938888549,9.464452645996094Q4.62757993888855,9.434530645996094,4.54141993888855,9.419339645996093L3.0642139388885496,9.158889645996094Z" fill-rule="evenodd" fill="#F9CC45" fill-opacity="1"/></g><g><path d="M5.288254831390381,5.306797047912598Q5.174914831390381,5.1717230479125975,5.114606831390381,5.006030047912597Q5.054299831390381,4.840337047912597,5.054299831390381,4.664010047912598Q5.054299831390381,4.565518647912597,5.073514831390381,4.468920047912597Q5.092729831390381,4.372321047912598,5.1304208313903805,4.2813270479125975Q5.168111831390381,4.190332047912598,5.2228298313903805,4.108440047912597Q5.277548831390381,4.026547047912597,5.347192831390381,3.9569030479125975Q5.4168368313903805,3.8872590479125977,5.4987298313903805,3.8325400479125977Q5.580621831390381,3.777822047912598,5.671616831390381,3.7401310479125978Q5.762610831390381,3.7024400479125976,5.85920983139038,3.6832250479125976Q5.9558084313903805,3.6640100479125977,6.054299831390381,3.6640100479125977Q6.16381783139038,3.6640100479125977,6.270739831390381,3.6877140479125976Q6.377661831390381,3.7114180479125976,6.476917831390381,3.7577020479125975Q6.5761748313903805,3.8039870479125977,6.663061831390381,3.870657047912598Q6.749947831390381,3.9373270479125977,6.820344831390381,4.021223047912597L7.784539831390381,5.170313047912598Q7.897889831390381,5.305387047912598,7.958189831390381,5.471080047912597Q8.01849983139038,5.636773047912598,8.01849983139038,5.813100047912598Q8.01849983139038,5.911590047912598,7.999289831390381,6.008190047912597Q7.980069831390381,6.104790047912598,7.942379831390381,6.1957800479125975Q7.904689831390381,6.286780047912598,7.849969831390381,6.368670047912598Q7.795249831390381,6.450560047912598,7.725609831390381,6.520210047912598Q7.655959831390381,6.589850047912598,7.574069831390381,6.644570047912598Q7.492179831390381,6.699290047912598,7.401179831390381,6.736980047912597Q7.310189831390381,6.774670047912598,7.213589831390381,6.793880047912598Q7.116989831390381,6.813100047912598,7.018499831390381,6.813100047912598Q6.908981831390381,6.813100047912598,6.80205983139038,6.789400047912597Q6.695137831390381,6.765690047912598,6.595881831390381,6.719410047912598Q6.496624831390381,6.673120047912597,6.409737831390381,6.606450047912597Q6.3228518313903805,6.539780047912598,6.252454831390381,6.455890047912598L5.288254831390381,5.306797047912598L5.288254831390381,5.306797047912598Z" fill-rule="evenodd" fill="#F9CC45" fill-opacity="1"/></g><g><path d="M3,19.5L21.5,19.5Q21.5985,19.5,21.6951,19.519215Q21.7917,19.538429999999998,21.8827,19.576121Q21.9737,19.613812,22.0556,19.66853Q22.1375,19.723249,22.2071,19.792893Q22.2767,19.862537,22.3315,19.94443Q22.3862,20.026322,22.4239,20.117317Q22.4616,20.208311,22.4808,20.30491Q22.5,20.4015086,22.5,20.5Q22.5,20.5984914,22.4808,20.69509Q22.4616,20.791689,22.4239,20.882683Q22.3862,20.973678,22.3315,21.05557Q22.2767,21.137463,22.2071,21.207107Q22.1375,21.276751,22.0556,21.33147Q21.9737,21.386188,21.8827,21.423879Q21.7917,21.461570000000002,21.6951,21.480785Q21.5985,21.5,21.5,21.5L3,21.5Q2.9015086,21.5,2.80491,21.480785Q2.708311,21.461570000000002,2.617317,21.423879Q2.526322,21.386188,2.44443,21.33147Q2.362537,21.276751,2.292893,21.207107Q2.223249,21.137463,2.16853,21.05557Q2.1138120000000002,20.973678,2.076121,20.882683Q2.03843,20.791689,2.019215,20.69509Q2,20.5984914,2,20.5Q2,20.4015086,2.019215,20.30491Q2.03843,20.208311,2.076121,20.117317Q2.1138120000000002,20.026322,2.16853,19.94443Q2.223249,19.862537,2.292893,19.792893Q2.362537,19.723249,2.44443,19.66853Q2.526322,19.613812,2.617317,19.576121Q2.708311,19.538429999999998,2.80491,19.519215Q2.9015086,19.5,3,19.5Z" fill-rule="evenodd" fill="#FF7D00" fill-opacity="1"/></g><g><g><path d="M20.5,20Q20.5,19.9263097,20.507223,19.852974Q20.514446,19.779639,20.528822,19.707365Q20.543198,19.63509,20.564589,19.564573Q20.585981,19.494056,20.614181,19.425975Q20.642381,19.357894,20.677118,19.292905Q20.711855,19.227916,20.752796,19.166645Q20.793736,19.105373,20.840484,19.04841Q20.887233,18.99145,20.93934,18.93934Q20.991447,18.88723,21.04841,18.84048Q21.10537,18.79374,21.16664,18.7528Q21.22792,18.71186,21.2929,18.67712Q21.35789,18.64238,21.42597,18.61418Q21.49406,18.58598,21.56457,18.56459Q21.635089999999998,18.5432,21.70736,18.52882Q21.77964,18.51445,21.85297,18.50722Q21.92631,18.5,22,18.5Q22.07369,18.5,22.14703,18.50722Q22.22036,18.51445,22.29264,18.52882Q22.364910000000002,18.5432,22.43543,18.56459Q22.50594,18.58598,22.57402,18.61418Q22.64211,18.64238,22.70709,18.67712Q22.77208,18.71186,22.83335,18.7528Q22.89463,18.79374,22.95159,18.84048Q23.00855,18.88723,23.06066,18.93934Q23.11277,18.99145,23.15952,19.04841Q23.20626,19.105373,23.2472,19.166645Q23.28814,19.227916,23.32288,19.292905Q23.35762,19.357894,23.38582,19.425975Q23.41402,19.494056,23.43541,19.564573Q23.4568,19.63509,23.47118,19.707365Q23.48555,19.779639,23.49278,19.852974Q23.5,19.9263097,23.5,20L23.5,22Q23.5,22.07369,23.49278,22.14703Q23.48555,22.22036,23.47118,22.29264Q23.4568,22.364910000000002,23.43541,22.43543Q23.41402,22.50594,23.38582,22.57402Q23.35762,22.64211,23.32288,22.70709Q23.28814,22.77208,23.2472,22.83335Q23.20626,22.89463,23.15952,22.95159Q23.11277,23.00855,23.06066,23.06066Q23.00855,23.11277,22.95159,23.15952Q22.89463,23.20626,22.83335,23.2472Q22.77208,23.28814,22.70709,23.32288Q22.64211,23.35762,22.57402,23.38582Q22.50594,23.41402,22.43543,23.43541Q22.364910000000002,23.4568,22.29264,23.47118Q22.22036,23.48555,22.14703,23.49278Q22.07369,23.5,22,23.5L20,23.5Q19.9263097,23.5,19.852974,23.49278Q19.779639,23.48555,19.707365,23.47118Q19.63509,23.4568,19.564573,23.43541Q19.494056,23.41402,19.425975,23.38582Q19.357894,23.35762,19.292905,23.32288Q19.227916,23.28814,19.166645,23.2472Q19.105373,23.20626,19.04841,23.15952Q18.99145,23.11277,18.93934,23.06066Q18.88723,23.00855,18.84048,22.95159Q18.79374,22.89463,18.7528,22.83335Q18.71186,22.77208,18.67712,22.70709Q18.64238,22.64211,18.61418,22.57402Q18.58598,22.50594,18.56459,22.43543Q18.5432,22.364910000000002,18.52882,22.29264Q18.51445,22.22036,18.50722,22.14703Q18.5,22.07369,18.5,22Q18.5,21.92631,18.50722,21.85297Q18.51445,21.77964,18.52882,21.70736Q18.5432,21.635089999999998,18.56459,21.56457Q18.58598,21.49406,18.61418,21.42597Q18.64238,21.35789,18.67712,21.2929Q18.71186,21.22792,18.7528,21.16664Q18.79374,21.10537,18.84048,21.04841Q18.88723,20.991447,18.93934,20.93934Q18.99145,20.887233,19.04841,20.840484Q19.105373,20.793736,19.166645,20.752796Q19.227916,20.711855,19.292905,20.677118Q19.357894,20.642381,19.425975,20.614181Q19.494056,20.585981,19.564573,20.56459Q19.63509,20.543198,19.707365,20.528822Q19.779639,20.514446,19.852974,20.507223Q19.9263097,20.5,20,20.5L20.5,20.5L20.5,20Z" fill-rule="evenodd" fill="#FFFFFF" fill-opacity="1"/></g><g><path d="M20.5,17.5L20,17.5Q19.9263097,17.5,19.852974,17.49278Q19.779639,17.48555,19.707365,17.47118Q19.63509,17.4568,19.564573,17.43541Q19.494056,17.41402,19.425975,17.38582Q19.357894,17.35762,19.292905,17.32288Q19.227916,17.28814,19.166645,17.2472Q19.105373,17.20626,19.04841,17.15952Q18.99145,17.11277,18.93934,17.06066Q18.88723,17.00855,18.84048,16.95159Q18.79374,16.894627,18.7528,16.833355Q18.71186,16.772084,18.67712,16.707095Q18.64238,16.642106,18.61418,16.574025Q18.58598,16.505944,18.56459,16.435427Q18.5432,16.36491,18.52882,16.292635Q18.51445,16.220361,18.50722,16.147026Q18.5,16.0736903,18.5,16Q18.5,15.9263097,18.50722,15.852974Q18.51445,15.779639,18.52882,15.707365Q18.5432,15.63509,18.56459,15.564573Q18.58598,15.494056,18.61418,15.425975Q18.64238,15.357894,18.67712,15.292905Q18.71186,15.227916,18.7528,15.166645Q18.79374,15.105373,18.84048,15.04841Q18.88723,14.99145,18.93934,14.93934Q18.99145,14.88723,19.04841,14.84048Q19.105373,14.79374,19.166645,14.7528Q19.227916,14.71186,19.292905,14.67712Q19.357894,14.64238,19.425975,14.61418Q19.494056,14.58598,19.564573,14.564589999999999Q19.63509,14.5432,19.707365,14.52882Q19.779639,14.51445,19.852974,14.50722Q19.9263097,14.5,20,14.5L22,14.5Q22.07369,14.5,22.14703,14.50722Q22.22036,14.51445,22.29264,14.52882Q22.364910000000002,14.5432,22.43543,14.564589999999999Q22.50594,14.58598,22.57402,14.61418Q22.64211,14.64238,22.70709,14.67712Q22.77208,14.71186,22.83335,14.7528Q22.89463,14.79374,22.95159,14.84048Q23.00855,14.88723,23.06066,14.93934Q23.11277,14.99145,23.15952,15.04841Q23.20626,15.105373,23.2472,15.166645Q23.28814,15.227916,23.32288,15.292905Q23.35762,15.357894,23.38582,15.425975Q23.41402,15.494056,23.43541,15.564573Q23.4568,15.63509,23.47118,15.707365Q23.48555,15.779639,23.49278,15.852974Q23.5,15.9263097,23.5,16L23.5,18Q23.5,18.07369,23.49278,18.14703Q23.48555,18.22036,23.47118,18.29264Q23.4568,18.364910000000002,23.43541,18.43543Q23.41402,18.50594,23.38582,18.57402Q23.35762,18.64211,23.32288,18.70709Q23.28814,18.77208,23.2472,18.83335Q23.20626,18.89463,23.15952,18.95159Q23.11277,19.00855,23.06066,19.06066Q23.00855,19.11277,22.95159,19.15952Q22.89463,19.20626,22.83335,19.2472Q22.77208,19.28814,22.70709,19.32288Q22.64211,19.35762,22.57402,19.38582Q22.50594,19.41402,22.43543,19.43541Q22.364910000000002,19.4568,22.29264,19.47118Q22.22036,19.48555,22.14703,19.49278Q22.07369,19.5,22,19.5Q21.92631,19.5,21.85297,19.49278Q21.77964,19.48555,21.70736,19.47118Q21.635089999999998,19.4568,21.56457,19.43541Q21.49406,19.41402,21.42597,19.38582Q21.35789,19.35762,21.2929,19.32288Q21.22792,19.28814,21.16664,19.2472Q21.10537,19.20626,21.04841,19.15952Q20.991447,19.11277,20.93934,19.06066Q20.887233,19.00855,20.840484,18.95159Q20.793736,18.89463,20.752795,18.83335Q20.711855,18.77208,20.677118,18.70709Q20.642381,18.64211,20.614181,18.57402Q20.585981,18.50594,20.56459,18.43543Q20.543198,18.364910000000002,20.528822,18.29264Q20.514446,18.22036,20.507223,18.14703Q20.5,18.07369,20.5,18L20.5,17.5Z" fill-rule="evenodd" fill="#FFFFFF" fill-opacity="1"/></g><g><path d="M23.06066,17.06066Q23.16513,16.956194,23.2472,16.833355Q23.32928,16.710516,23.38582,16.574025Q23.44236,16.437534,23.47118,16.292636Q23.5,16.147737,23.5,16Q23.5,15.9263097,23.49278,15.852974Q23.48555,15.779639,23.47118,15.707365Q23.4568,15.63509,23.43541,15.564573Q23.41402,15.494056,23.38582,15.425975Q23.35762,15.357894,23.322879999999998,15.292905Q23.28814,15.227916,23.2472,15.166645Q23.20626,15.105373,23.15952,15.04841Q23.11277,14.99145,23.06066,14.93934Q23.00855,14.88723,22.95159,14.84048Q22.89463,14.79374,22.83335,14.7528Q22.77208,14.71186,22.70709,14.67712Q22.64211,14.64238,22.57402,14.61418Q22.50594,14.58598,22.43543,14.564589999999999Q22.364910000000002,14.5432,22.29263,14.52882Q22.22036,14.51445,22.14703,14.50722Q22.07369,14.5,22,14.5Q21.85226,14.5,21.70736,14.52882Q21.56247,14.55764,21.42597,14.61418Q21.28948,14.67072,21.16664,14.7528Q21.04381,14.83487,20.93934,14.93934L14.93934,20.93934Q14.83487,21.04381,14.7528,21.16664Q14.67072,21.28948,14.61418,21.42597Q14.55764,21.56247,14.52882,21.70736Q14.5,21.85226,14.5,22Q14.5,22.07369,14.50722,22.14703Q14.51445,22.22036,14.52882,22.29263Q14.5432,22.364910000000002,14.564589999999999,22.43543Q14.58598,22.50594,14.61418,22.57402Q14.64238,22.64211,14.67712,22.70709Q14.71186,22.77208,14.7528,22.83335Q14.79374,22.89463,14.84048,22.95159Q14.88723,23.00855,14.93934,23.06066Q14.99145,23.11277,15.04841,23.15952Q15.105373,23.20626,15.166645,23.2472Q15.227916,23.28814,15.292905,23.322879999999998Q15.357894,23.35762,15.425975,23.38582Q15.494056,23.41402,15.564573,23.43541Q15.63509,23.4568,15.707365,23.47118Q15.779639,23.48555,15.852974,23.49278Q15.9263097,23.5,16,23.5Q16.147737,23.5,16.292636,23.47118Q16.437534,23.44236,16.574025,23.38582Q16.710516,23.32928,16.833355,23.2472Q16.956194,23.16513,17.06066,23.06066L17.06125,23.06007L23.06066,17.06066L23.06066,17.06066Z" fill-rule="evenodd" fill="#FFFFFF" fill-opacity="1"/></g><g><path d="M14.93934,14.93934Q14.88723,14.99145,14.84048,15.04841Q14.79374,15.105373,14.7528,15.166645Q14.71186,15.227916,14.67712,15.292905Q14.64238,15.357894,14.61418,15.425975Q14.58598,15.494056,14.564589999999999,15.564573Q14.5432,15.63509,14.52882,15.707365Q14.51445,15.779639,14.50722,15.852974Q14.5,15.9263097,14.5,16Q14.5,16.0736903,14.50722,16.147026Q14.51445,16.220361,14.52882,16.292635Q14.5432,16.36491,14.564589999999999,16.435427Q14.58598,16.505944,14.61418,16.574025Q14.64238,16.642106,14.67712,16.707095Q14.71186,16.772084,14.7528,16.833355Q14.79374,16.894627,14.84048,16.95159Q14.88723,17.00855,14.93934,17.06066L17.93934,20.06066Q18.10783,20.22915,18.32023,20.337130000000002Q18.53263,20.44511,18.76804,20.48196Q18.80489,20.71737,18.912869999999998,20.92977Q19.02085,21.14217,19.18934,21.31066L19.18965,21.31097L19.60601,21.727330000000002L20.43934,22.56066L20.85601,22.977330000000002L20.93934,23.06066Q21.04381,23.16513,21.16664,23.2472Q21.28948,23.32928,21.42597,23.38582Q21.56247,23.44236,21.70736,23.47118Q21.85226,23.5,22,23.5Q22.07369,23.5,22.14703,23.49278Q22.22036,23.48555,22.29263,23.47118Q22.364910000000002,23.4568,22.43543,23.43541Q22.50594,23.41402,22.57402,23.38582Q22.64211,23.35762,22.70709,23.322879999999998Q22.77208,23.28814,22.83335,23.2472Q22.89463,23.20626,22.95159,23.15952Q23.00855,23.11277,23.06066,23.06066Q23.11277,23.00855,23.15952,22.95159Q23.20626,22.89463,23.2472,22.83335Q23.28814,22.77208,23.322879999999998,22.70709Q23.35762,22.64211,23.38582,22.57402Q23.41402,22.50594,23.43541,22.43543Q23.4568,22.364910000000002,23.47118,22.29263Q23.48555,22.22036,23.49278,22.14703Q23.5,22.07369,23.5,22Q23.5,21.85226,23.47118,21.70736Q23.44236,21.56247,23.38582,21.42597Q23.32928,21.28948,23.2472,21.16664Q23.16513,21.04381,23.06066,20.93934L22.977330000000002,20.85601L22.56066,20.43934L21.727330000000002,19.60601L21.31097,19.18965L21.31066,19.18934Q21.14217,19.02085,20.92977,18.912869999999998Q20.71737,18.80489,20.48196,18.76804Q20.44511,18.53263,20.337130000000002,18.32023Q20.22915,18.10783,20.06066,17.93934L17.06066,14.93934Q17.00855,14.88723,16.95159,14.84048Q16.894627,14.79374,16.833355,14.7528Q16.772084,14.71186,16.707095,14.67712Q16.642106,14.64238,16.574025,14.61418Q16.505944,14.58598,16.435427,14.564589999999999Q16.36491,14.5432,16.292635,14.52882Q16.220361,14.51445,16.147026,14.50722Q16.0736903,14.5,16,14.5Q15.9263097,14.5,15.852974,14.50722Q15.779639,14.51445,15.707365,14.52882Q15.63509,14.5432,15.564573,14.564589999999999Q15.494056,14.58598,15.425975,14.61418Q15.357894,14.64238,15.292905,14.67712Q15.227916,14.71186,15.166645,14.7528Q15.105373,14.79374,15.04841,14.84048Q14.99145,14.88723,14.93934,14.93934Z" fill-rule="evenodd" fill="#FFFFFF" fill-opacity="1"/></g></g><g><g><path d="M21.5,20Q21.5,19.9507543,21.50961,19.9024549Q21.51921,19.854155,21.53806,19.808658Q21.55691,19.763161,21.58426,19.722215Q21.61162,19.681269,21.64645,19.646447Q21.68127,19.611625,21.72221,19.584265Q21.76316,19.556906,21.80866,19.53806Q21.85416,19.519215,21.90245,19.509607Q21.95075,19.5,22,19.5Q22.04925,19.5,22.09754,19.509607Q22.14584,19.519215,22.19134,19.53806Q22.23684,19.556906,22.27778,19.584265Q22.31873,19.611625,22.35355,19.646447Q22.38838,19.681269,22.41573,19.722215Q22.44309,19.763161,22.46194,19.808658Q22.48078,19.854155,22.49039,19.9024549Q22.5,19.9507543,22.5,20L22.5,22Q22.5,22.04925,22.49039,22.09754Q22.48078,22.14584,22.46194,22.19134Q22.44309,22.23684,22.41573,22.27778Q22.38838,22.31873,22.35355,22.35355Q22.31873,22.38838,22.27779,22.41573Q22.23684,22.44309,22.19134,22.46194Q22.14584,22.48078,22.09754,22.49039Q22.04925,22.5,22,22.5L20,22.5Q19.9507543,22.5,19.9024549,22.49039Q19.854155,22.48078,19.808658,22.46194Q19.763161,22.44309,19.722215,22.41573Q19.681269,22.38838,19.646447,22.35355Q19.611625,22.31873,19.584265,22.27779Q19.556906,22.23684,19.53806,22.19134Q19.519215,22.14584,19.509607,22.09754Q19.5,22.04925,19.5,22Q19.5,21.95075,19.509607,21.90245Q19.519215,21.85416,19.53806,21.80866Q19.556906,21.76316,19.584265,21.72221Q19.611625,21.68127,19.646447,21.64645Q19.681269,21.61162,19.722215,21.58426Q19.763161,21.55691,19.808658,21.53806Q19.854155,21.51921,19.9024549,21.50961Q19.9507543,21.5,20,21.5L21.5,21.5L21.5,20Z" fill-rule="evenodd" fill="#D25F00" fill-opacity="1"/></g><g><path d="M20,15.5L22,15.5Q22.04925,15.5,22.09754,15.509607Q22.14584,15.519214999999999,22.19134,15.53806Q22.23684,15.556906,22.27778,15.584265Q22.31873,15.611625,22.35355,15.646447Q22.38838,15.681269,22.41573,15.722215Q22.44309,15.763161,22.46194,15.808658Q22.48078,15.854155,22.49039,15.9024549Q22.5,15.9507543,22.5,16L22.5,18Q22.5,18.04925,22.49039,18.09754Q22.48078,18.14584,22.46194,18.19134Q22.44309,18.23684,22.41573,18.27778Q22.38838,18.31873,22.35355,18.35355Q22.31873,18.38838,22.27779,18.41573Q22.23684,18.44309,22.19134,18.46194Q22.14584,18.48078,22.09754,18.49039Q22.04925,18.5,22,18.5Q21.95075,18.5,21.90245,18.49039Q21.85416,18.48078,21.80866,18.46194Q21.76316,18.44309,21.72221,18.41573Q21.68127,18.38838,21.64645,18.35355Q21.61162,18.31873,21.58426,18.27779Q21.55691,18.23684,21.53806,18.19134Q21.51921,18.14584,21.50961,18.09754Q21.5,18.04925,21.5,18L21.5,16.5L20,16.5Q19.9507543,16.5,19.9024549,16.490393Q19.854155,16.480785,19.808658,16.46194Q19.763161,16.443094,19.722215,16.415735Q19.681269,16.388375,19.646447,16.353553Q19.611625,16.318731,19.584265,16.277785Q19.556906,16.236839,19.53806,16.191342Q19.519215,16.145845,19.509607,16.0975451Q19.5,16.0492457,19.5,16Q19.5,15.9507543,19.509607,15.9024549Q19.519215,15.854155,19.53806,15.808658Q19.556906,15.763161,19.584265,15.722215Q19.611625,15.681269,19.646447,15.646447Q19.681269,15.611625,19.722215,15.584265Q19.763161,15.556906,19.808658,15.53806Q19.854155,15.519214999999999,19.9024549,15.509607Q19.9507543,15.5,20,15.5Z" fill-rule="evenodd" fill="#D25F00" fill-opacity="1"/></g><g><path d="M22.35355,16.353554Q22.42388,16.283228,22.46194,16.191342Q22.5,16.0994563,22.5,16Q22.5,15.9507543,22.490389999999998,15.9024549Q22.48078,15.854155,22.46194,15.808658Q22.443089999999998,15.763161,22.41573,15.722215Q22.388370000000002,15.681269,22.35355,15.646447Q22.318730000000002,15.611625,22.27778,15.584265Q22.23684,15.556906,22.19134,15.53806Q22.14584,15.519214999999999,22.09755,15.509607Q22.04925,15.5,22,15.5Q21.90054,15.5,21.80866,15.53806Q21.71677,15.57612,21.64645,15.646447L21.646259999999998,15.646634L15.646634,21.646259999999998L15.646447,21.64645Q15.57612,21.71677,15.53806,21.80866Q15.5,21.90054,15.5,22Q15.5,22.04925,15.509607,22.09755Q15.519214999999999,22.14584,15.53806,22.19134Q15.556906,22.23684,15.584265,22.27778Q15.611625,22.318730000000002,15.646447,22.35355Q15.681269,22.388370000000002,15.722215,22.41573Q15.763161,22.443089999999998,15.808658,22.46194Q15.854155,22.48078,15.9024549,22.490389999999998Q15.9507543,22.5,16,22.5Q16.0994563,22.5,16.191342,22.46194Q16.283228,22.42388,16.353554,22.35355L16.354004,22.3531L22.35355,16.353553L22.35355,16.353554Z" fill-rule="evenodd" fill="#D25F00" fill-opacity="1"/></g><g><path d="M15.646447,15.646447Q15.611625,15.681269,15.584265,15.722215Q15.556906,15.763161,15.53806,15.808658Q15.519214999999999,15.854155,15.509607,15.9024549Q15.5,15.9507543,15.5,16Q15.5,16.0492457,15.509607,16.0975451Q15.519214999999999,16.145845,15.53806,16.191342Q15.556906,16.236839,15.584265,16.277785Q15.611625,16.318731,15.646447,16.353553L18.64645,19.35355Q18.71677,19.42388,18.80866,19.46194Q18.90054,19.5,19,19.5Q19.09946,19.5,19.19134,19.46194Q19.28323,19.42388,19.35355,19.35355Q19.42388,19.28323,19.46194,19.19134Q19.5,19.09946,19.5,19Q19.5,18.90054,19.46194,18.80866Q19.42388,18.71677,19.35355,18.64645L16.353553,15.646447Q16.318731,15.611625,16.277785,15.584265Q16.236839,15.556906,16.191342,15.53806Q16.145845,15.519214999999999,16.0975451,15.509607Q16.0492457,15.5,16,15.5Q15.9507543,15.5,15.9024549,15.509607Q15.854155,15.519214999999999,15.808658,15.53806Q15.763161,15.556906,15.722215,15.584265Q15.681269,15.611625,15.646447,15.646447ZM19.89645,20.60355Q19.82612,20.53323,19.78806,20.44134Q19.75,20.34946,19.75,20.25Q19.75,20.20075,19.75961,20.15245Q19.76921,20.10416,19.78806,20.05866Q19.80691,20.01316,19.83426,19.97221Q19.86162,19.93127,19.89645,19.89645Q19.93127,19.86162,19.97221,19.83426Q20.01316,19.80691,20.05866,19.78806Q20.10416,19.76921,20.15245,19.75961Q20.20075,19.75,20.25,19.75Q20.34946,19.75,20.44134,19.78806Q20.53323,19.82612,20.60355,19.89645L21.020220000000002,20.31311L21.85355,21.14645L22.270220000000002,21.56311L22.35355,21.64645Q22.42388,21.71677,22.46194,21.80866Q22.5,21.90054,22.5,22Q22.5,22.04925,22.490389999999998,22.09755Q22.48078,22.14584,22.46194,22.19134Q22.443089999999998,22.23684,22.41573,22.27778Q22.388370000000002,22.318730000000002,22.35355,22.35355Q22.318730000000002,22.388370000000002,22.27778,22.41573Q22.23684,22.443089999999998,22.19134,22.46194Q22.14584,22.48078,22.09755,22.490389999999998Q22.04925,22.5,22,22.5Q21.90054,22.5,21.80866,22.46194Q21.71677,22.42388,21.64645,22.35355L21.64596,22.35307L21.56311,22.270220000000002L21.14645,21.85355L19.89645,20.60355L19.89645,20.60355Z" fill-rule="evenodd" fill="#D25F00" fill-opacity="1"/></g></g></g></svg>