<svg xmlns="http://www.w3.org/2000/svg" xmlns:xlink="http://www.w3.org/1999/xlink" fill="none" version="1.1" width="24"
  height="24" viewBox="0 0 24 24">
  <defs>
    <clipPath id="master_svg0_644_65161">
      <rect x="0" y="0" width="24" height="24" rx="0" />
    </clipPath>
  </defs>
  <g clip-path="url(#master_svg0_644_65161)">
    <g>
      <path
        d="M2 5C2 3.34314575050762 3.34314575050762 2 5 2L19 2C20.65685424949238 2 22 3.34314575050762 22 5L22 8C22 8 22 8 22 8L2 8C2 8 2 8 2 8Z"
        fill="#F9CC45" fill-opacity="1" />
    </g>
    <g>
      <path
        d="M2 8C2 8 2 8 2 8L22 8C22 8 22 8 22 8L22 19C22 20.65685424949238 20.65685424949238 22 19 22L5 22C3.34314575050762 22 2 20.65685424949238 2 19Z"
        fill="#FF7D00" fill-opacity="1" />
    </g>
    <g style="opacity:0.5;">
      <path d="M8.5,8L8.50000550225,12.66667L15.5,12.66667L15.5,8L8.5,8Z" fill="#FFCF8B" fill-opacity="1" />
    </g>
    <g style="opacity:0.6000000238418579;">
      <path d="M15.5,8L15.50000510924,12.66667L22,12.66667L22,8L15.5,8Z" fill="#FFCF8B" fill-opacity="1" />
    </g>
    <g style="opacity:0.30000001192092896;">
      <path d="M2,8L2.00000510924,12.66667L8.5,12.66667L8.5,8L2,8Z" fill="#FFCF8B" fill-opacity="1" />
    </g>
    <g style="opacity:0.30000001192092896;">
      <path
        d="M8.5,17.333251953125L8.50000550225,21.999921953125L15.5,21.999921953125L15.5,17.333251953125L8.5,17.333251953125Z"
        fill="#FFCF8B" fill-opacity="1" />
    </g>
    <g style="opacity:0.4000000059604645;">
      <path
        d="M15.5,17.333251953125L15.50000510924,21.999921953125L17.33333,21.999921953125C18.88784,21.999921953125,19.68532,21.996521953125,20.28603,21.711071953125C20.90965,21.414731953125,21.41481,20.909561953125,21.71115,20.285951953125C21.9966,19.685231953125,22,18.887751953125,22,17.333251953125L15.5,17.333251953125Z"
        fill="#FFCF8B" fill-opacity="1" />
    </g>
    <g style="opacity:0.10000000149011612;">
      <path
        d="M2,17.333251953125C2,18.887761953125,2.00339755,19.685241953125,2.288853,20.285951953125C2.585191,20.909571953125,3.09035,21.414731953125,3.7139699999999998,21.711071953125C4.31468,21.996521953125,5.11217,21.999921953125,6.66667,21.999921953125L8.5,21.999921953125L8.5,17.333251953125L2,17.333251953125Z"
        fill="#FFCF8B" fill-opacity="1" />
    </g>
    <g style="opacity:0.4000000059604645;">
      <path
        d="M8.5,12.666748046875L8.50000550225,17.333418046875L15.5,17.333418046875L15.5,12.666748046875L8.5,12.666748046875Z"
        fill="#FFCF8B" fill-opacity="1" />
    </g>
    <g style="opacity:0.5;">
      <path
        d="M15.5,12.666748046875L15.50000510924,17.333418046875L22,17.333418046875L22,12.666748046875L15.5,12.666748046875Z"
        fill="#FFCF8B" fill-opacity="1" />
    </g>
    <g style="opacity:0.20000000298023224;">
      <path
        d="M2,12.666748046875L2.00000510924,17.333418046875L8.5,17.333418046875L8.5,12.666748046875L2,12.666748046875Z"
        fill="#FFCF8B" fill-opacity="1" />
    </g>
  </g>
  <style>
      .month {
          font-size: 4px;
          font-weight: 600;
          fill: #792E00;
          text-anchor: middle;
      }
      .day {
          font-size: 12px;
          font-weight: 600;
          fill: #fff;
          text-anchor: middle;
          dominant-baseline: middle;
      }
  </style>
  <text x="50%" y="6.75" class="month">MMM</text>
  <text x="50%" y="15.5" class="day">DD</text>
</svg>