<svg xmlns="http://www.w3.org/2000/svg" xmlns:xlink="http://www.w3.org/1999/xlink" fill="none" version="1.1" width="24" height="24" viewBox="0 0 24 24"><defs><clipPath id="master_svg0_732_33194"><rect x="0" y="0" width="24" height="24" rx="0"/></clipPath></defs><g clip-path="url(#master_svg0_732_33194)"><g><path d="M7,12.5C7,9.7386,9.2386,7.5,12,7.5C14.7614,7.5,17,9.7386,17,12.5L17,20.5L7,20.5L7,12.5Z" fill="#FF7D00" fill-opacity="1"/><path d="M6,12.5L6,20.5Q6,20.5985,6.019215,20.6951Q6.03843,20.7917,6.076121,20.8827Q6.113812,20.9737,6.16853,21.0556Q6.223249,21.1375,6.292893,21.2071Q6.362537,21.276699999999998,6.44443,21.3315Q6.526322,21.386200000000002,6.617317,21.4239Q6.708311,21.4616,6.80491,21.480800000000002Q6.9015086,21.5,7,21.5L17,21.5Q17.0985,21.5,17.1951,21.480800000000002Q17.2917,21.4616,17.3827,21.4239Q17.4737,21.386200000000002,17.5556,21.3315Q17.6375,21.276699999999998,17.7071,21.2071Q17.776699999999998,21.1375,17.8315,21.0556Q17.886200000000002,20.9737,17.9239,20.8827Q17.9616,20.7917,17.980800000000002,20.6951Q18,20.5985,18,20.5L18,12.5Q18,10.01474,16.24263,8.257368Q14.48526,6.5,12,6.5Q9.51474,6.5,7.757368,8.257368Q6,10.01474,6,12.5ZM8,19.5L16,19.5L16,12.5Q16,10.843160000000001,14.828420000000001,9.67158Q13.656839999999999,8.5,12,8.5Q10.343160000000001,8.5,9.17158,9.67158Q8,10.843160000000001,8,12.5L8,19.5Z" fill-rule="evenodd" fill="#FF7D00" fill-opacity="1"/></g><g><path d="M13,2.5L13,4Q13,4.09849,12.980785000000001,4.19509Q12.96157,4.29169,12.923879,4.38268Q12.886188,4.47368,12.83147,4.5555699999999995Q12.776751,4.63746,12.707107,4.70711Q12.637463,4.77675,12.55557,4.8314699999999995Q12.473678,4.88619,12.382683,4.9238800000000005Q12.291689,4.96157,12.19509,4.98078Q12.0984914,5,12,5Q11.9015086,5,11.80491,4.98078Q11.708311,4.96157,11.617317,4.9238800000000005Q11.526322,4.88619,11.44443,4.8314699999999995Q11.362537,4.77675,11.292893,4.70711Q11.223249,4.63746,11.16853,4.5555699999999995Q11.113812,4.47368,11.076121,4.38268Q11.03843,4.29169,11.019214999999999,4.19509Q11,4.09849,11,4L11,2.5Q11,2.4015086,11.019214999999999,2.30491Q11.03843,2.208311,11.076121,2.117317Q11.113812,2.026322,11.16853,1.94443Q11.223249,1.862537,11.292893,1.7928929999999998Q11.362537,1.723249,11.44443,1.66853Q11.526322,1.613812,11.617317,1.576121Q11.708311,1.53843,11.80491,1.519215Q11.9015086,1.5,12,1.5Q12.0984914,1.5,12.19509,1.519215Q12.291689,1.53843,12.382683,1.576121Q12.473678,1.613812,12.55557,1.66853Q12.637463,1.723249,12.707107,1.7928929999999998Q12.776751,1.862537,12.83147,1.94443Q12.886188,2.026322,12.923879,2.117317Q12.96157,2.208311,12.980785000000001,2.30491Q13,2.4015086,13,2.5Z" fill-rule="evenodd" fill="#F9CC45" fill-opacity="1"/></g><g><path d="M18.711940897216795,5.306902952087403Q18.825280897216796,5.171828952087402,18.885590897216797,5.006135952087402Q18.945900897216795,4.840441952087402,18.945900897216795,4.664114952087402Q18.945900897216795,4.565623552087402,18.926680897216798,4.469024952087402Q18.907470897216797,4.3724259520874025,18.869780897216796,4.281431952087402Q18.832090897216798,4.190436952087403,18.777370897216798,4.108544952087402Q18.7226508972168,4.026651952087402,18.653010897216795,3.957007952087402Q18.583360897216796,3.8873639520874024,18.501470897216798,3.8326449520874024Q18.419580897216797,3.7779269520874026,18.328580897216796,3.7402359520874024Q18.237590897216798,3.7025449520874023,18.140990897216795,3.6833299520874023Q18.044390897216797,3.6641149520874023,17.945899897216798,3.6641149520874023Q17.836381897216796,3.6641149520874023,17.729460897216796,3.6878189520874023Q17.622538897216796,3.7115229520874022,17.523281897216798,3.7578069520874022Q17.424025897216797,3.8040909520874022,17.337138897216796,3.8707609520874025Q17.250252897216797,3.9374309520874022,17.179855897216797,4.021326952087402L16.215825897216796,5.1702099520874025L16.215656897216796,5.170411952087402Q16.102315897216798,5.305485952087403,16.042008897216796,5.471178952087403Q15.981700897216797,5.636872952087402,15.981700897216797,5.8132049520874025Q15.981700897216797,5.9116949520874025,16.000915897216796,6.008294952087402Q16.020130897216795,6.104884952087403,16.057821897216797,6.195884952087402Q16.095512897216796,6.286874952087402,16.150230897216797,6.368774952087403Q16.204949897216796,6.450664952087402,16.274593897216796,6.520304952087402Q16.344237897216797,6.589954952087402,16.426130897216797,6.644664952087402Q16.508022897216797,6.699384952087403,16.599017897216797,6.7370749520874025Q16.690011897216795,6.7747749520874025,16.786610897216796,6.793984952087403Q16.883209497216797,6.8132049520874025,16.981700897216797,6.8132049520874025Q17.091218897216798,6.8132049520874025,17.198139897216798,6.789494952087402Q17.305061897216795,6.765794952087402,17.404318897216797,6.719504952087402Q17.503574897216797,6.673224952087402,17.590461897216798,6.606554952087402Q17.677347897216798,6.5398849520874025,17.747744897216798,6.455984952087403L18.711940897216795,5.306902952087403Z" fill-rule="evenodd" fill="#F9CC45" fill-opacity="1"/></g><g><path d="M21.283009151611328,11.12845505493164Q21.369169151611327,11.11326205493164,21.451379151611327,11.08333905493164Q21.533589151611327,11.05341505493164,21.60935915161133,11.009670054931641Q21.685129151611328,10.965926054931641,21.752149151611327,10.90968905493164Q21.819159151611327,10.85345205493164,21.87539915161133,10.786432054931641Q21.93163915161133,10.71941205493164,21.975379151611328,10.64364605493164Q22.019119151611328,10.567879054931641,22.04903915161133,10.48566705493164Q22.07896915161133,10.40345505493164,22.09415915161133,10.317297054931641Q22.10934915161133,10.23113785493164,22.10934915161133,10.14365005493164Q22.10934915161133,10.04515865493164,22.09013915161133,9.94856005493164Q22.070919151611328,9.85196105493164,22.03322915161133,9.76096705493164Q21.99553915161133,9.669972054931641,21.94081915161133,9.588080054931641Q21.88609915161133,9.50618705493164,21.816459151611326,9.43654305493164Q21.746809151611327,9.36689905493164,21.66491915161133,9.312180054931641Q21.583029151611328,9.25746205493164,21.492029151611327,9.219771054931641Q21.40103915161133,9.18208005493164,21.304439151611327,9.16286505493164Q21.207839151611328,9.14365005493164,21.10934915161133,9.14365005493164Q21.021859151611327,9.14365005493164,20.935689151611328,9.158845054931641L19.458437151611328,9.419345054931641Q19.372279151611327,9.434538054931641,19.29006815161133,9.46446105493164Q19.207856151611328,9.49438505493164,19.13209015161133,9.53813005493164Q19.056324151611328,9.58187405493164,18.98930515161133,9.63811105493164Q18.922286151611328,9.694348054931641,18.86605015161133,9.76136805493164Q18.80981515161133,9.82838805493164,18.766071151611328,9.90415405493164Q18.722327151611328,9.97992105493164,18.69240515161133,10.06213305493164Q18.66248315161133,10.144344819931641,18.647291151611327,10.23050355493164Q18.632099151611328,10.31666205493164,18.632099151611328,10.404150054931641Q18.632099151611328,10.50264105493164,18.651314151611327,10.599240054931641Q18.670529151611326,10.69583905493164,18.70822015161133,10.786833054931641Q18.745911151611327,10.877827054931641,18.80062915161133,10.95972005493164Q18.855348151611327,11.041613054931641,18.924992151611328,11.11125705493164Q18.994636151611328,11.18090005493164,19.07652915161133,11.23562005493164Q19.15842115161133,11.29034005493164,19.249416151611328,11.328030054931642Q19.340410151611326,11.365720054931641,19.437009151611328,11.38494005493164Q19.533607751611328,11.404150054931641,19.632099151611328,11.404150054931641Q19.719594651611327,11.404150054931641,19.80576115161133,11.38896005493164L19.806044151611328,11.38891005493164L21.283009151611328,11.12845505493164Z" fill-rule="evenodd" fill="#F9CC45" fill-opacity="1"/></g><g><path d="M3.0642139388885496,9.158889645996094Q2.97806143888855,9.143699645996094,2.89057993888855,9.143699645996094Q2.79208853888855,9.143699645996094,2.69548993888855,9.162914645996093Q2.59889093888855,9.182129645996094,2.5078969388885497,9.219820645996094Q2.4169019388885498,9.257511645996093,2.33500993888855,9.312229645996094Q2.25311693888855,9.366948645996093,2.1834729388885497,9.436592645996093Q2.11382893888855,9.506236645996093,2.05910993888855,9.588129645996094Q2.00439193888855,9.670021645996094,1.96670093888855,9.761016645996094Q1.9290099388885498,9.852010645996094,1.9097949388885498,9.948609645996093Q1.8905799388885498,10.045208245996093,1.8905799388885498,10.143699645996094Q1.8905799388885498,10.231189245996093,1.9057729388885498,10.317349645996094Q1.9209649388885497,10.403509645996094,1.9508889388885498,10.485722645996093Q1.9808119388885497,10.567936645996094,2.0245569388885496,10.643704645996094Q2.06830193888855,10.719472645996094,2.1245399388885495,10.786492645996093Q2.18077793888855,10.853513645996093,2.2477989388885495,10.909749645996094Q2.3148209388885497,10.965986645996093,2.3905889388885497,11.009730645996093Q2.46635793888855,11.053474645996094,2.54857193888855,11.083396645996094Q2.63078493888855,11.113318645996094,2.71694593888855,11.128509645996093L4.19415993888855,11.388959645996094Q4.28030993888855,11.404149645996094,4.367789938888549,11.404149645996094Q4.46627993888855,11.404149645996094,4.56287993888855,11.384939645996093Q4.65947993888855,11.365719645996094,4.75046993888855,11.328029645996093Q4.84146993888855,11.290339645996093,4.92335993888855,11.235619645996094Q5.00524993888855,11.180899645996094,5.074899938888549,11.111256645996093Q5.14453993888855,11.041612645996093,5.19925993888855,10.959719645996094Q5.25397993888855,10.877827645996094,5.29166993888855,10.786833645996094Q5.329359938888549,10.695839645996093,5.34857993888855,10.599240645996094Q5.367789938888549,10.502641645996095,5.367789938888549,10.404149645996094Q5.367789938888549,10.316660645996095,5.35259993888855,10.230500045996093Q5.33740993888855,10.144339710996094,5.30747993888855,10.062126545996094Q5.277559938888549,9.979913645996094,5.23380993888855,9.904145645996094Q5.19006993888855,9.828377645996094,5.1338299388885495,9.761356645996093Q5.07758993888855,9.694336645996094,5.010569938888549,9.638099645996094Q4.94354993888855,9.581863645996094,4.86777993888855,9.538119645996094Q4.792009938888549,9.494375645996094,4.709799938888549,9.464452645996094Q4.62757993888855,9.434530645996094,4.54141993888855,9.419339645996093L3.0642139388885496,9.158889645996094Z" fill-rule="evenodd" fill="#F9CC45" fill-opacity="1"/></g><g><path d="M5.288254831390381,5.306797047912598Q5.174914831390381,5.1717230479125975,5.114606831390381,5.006030047912597Q5.054299831390381,4.840337047912597,5.054299831390381,4.664010047912598Q5.054299831390381,4.565518647912597,5.073514831390381,4.468920047912597Q5.092729831390381,4.372321047912598,5.1304208313903805,4.2813270479125975Q5.168111831390381,4.190332047912598,5.2228298313903805,4.108440047912597Q5.277548831390381,4.026547047912597,5.347192831390381,3.9569030479125975Q5.4168368313903805,3.8872590479125977,5.4987298313903805,3.8325400479125977Q5.580621831390381,3.777822047912598,5.671616831390381,3.7401310479125978Q5.762610831390381,3.7024400479125976,5.85920983139038,3.6832250479125976Q5.9558084313903805,3.6640100479125977,6.054299831390381,3.6640100479125977Q6.16381783139038,3.6640100479125977,6.270739831390381,3.6877140479125976Q6.377661831390381,3.7114180479125976,6.476917831390381,3.7577020479125975Q6.5761748313903805,3.8039870479125977,6.663061831390381,3.870657047912598Q6.749947831390381,3.9373270479125977,6.820344831390381,4.021223047912597L7.784539831390381,5.170313047912598Q7.897889831390381,5.305387047912598,7.958189831390381,5.471080047912597Q8.01849983139038,5.636773047912598,8.01849983139038,5.813100047912598Q8.01849983139038,5.911590047912598,7.999289831390381,6.008190047912597Q7.980069831390381,6.104790047912598,7.942379831390381,6.1957800479125975Q7.904689831390381,6.286780047912598,7.849969831390381,6.368670047912598Q7.795249831390381,6.450560047912598,7.725609831390381,6.520210047912598Q7.655959831390381,6.589850047912598,7.574069831390381,6.644570047912598Q7.492179831390381,6.699290047912598,7.401179831390381,6.736980047912597Q7.310189831390381,6.774670047912598,7.213589831390381,6.793880047912598Q7.116989831390381,6.813100047912598,7.018499831390381,6.813100047912598Q6.908981831390381,6.813100047912598,6.80205983139038,6.789400047912597Q6.695137831390381,6.765690047912598,6.595881831390381,6.719410047912598Q6.496624831390381,6.673120047912597,6.409737831390381,6.606450047912597Q6.3228518313903805,6.539780047912598,6.252454831390381,6.455890047912598L5.288254831390381,5.306797047912598L5.288254831390381,5.306797047912598Z" fill-rule="evenodd" fill="#F9CC45" fill-opacity="1"/></g><g><path d="M3,19.5L21.5,19.5Q21.5985,19.5,21.6951,19.519215Q21.7917,19.538429999999998,21.8827,19.576121Q21.9737,19.613812,22.0556,19.66853Q22.1375,19.723249,22.2071,19.792893Q22.2767,19.862537,22.3315,19.94443Q22.3862,20.026322,22.4239,20.117317Q22.4616,20.208311,22.4808,20.30491Q22.5,20.4015086,22.5,20.5Q22.5,20.5984914,22.4808,20.69509Q22.4616,20.791689,22.4239,20.882683Q22.3862,20.973678,22.3315,21.05557Q22.2767,21.137463,22.2071,21.207107Q22.1375,21.276751,22.0556,21.33147Q21.9737,21.386188,21.8827,21.423879Q21.7917,21.461570000000002,21.6951,21.480785Q21.5985,21.5,21.5,21.5L3,21.5Q2.9015086,21.5,2.80491,21.480785Q2.708311,21.461570000000002,2.617317,21.423879Q2.526322,21.386188,2.44443,21.33147Q2.362537,21.276751,2.292893,21.207107Q2.223249,21.137463,2.16853,21.05557Q2.1138120000000002,20.973678,2.076121,20.882683Q2.03843,20.791689,2.019215,20.69509Q2,20.5984914,2,20.5Q2,20.4015086,2.019215,20.30491Q2.03843,20.208311,2.076121,20.117317Q2.1138120000000002,20.026322,2.16853,19.94443Q2.223249,19.862537,2.292893,19.792893Q2.362537,19.723249,2.44443,19.66853Q2.526322,19.613812,2.617317,19.576121Q2.708311,19.538429999999998,2.80491,19.519215Q2.9015086,19.5,3,19.5Z" fill-rule="evenodd" fill="#FF7D00" fill-opacity="1"/></g><g><path d="M16.333343505859375,16.333338L16.333343505859375,17.83336Q16.333343505859375,17.907049999999998,16.340563505859375,17.98038Q16.347793505859375,18.05372,16.362163505859375,18.12599Q16.376543505859374,18.19827,16.397933505859374,18.26878Q16.419323505859374,18.3393,16.447523505859376,18.40738Q16.475723505859374,18.475459999999998,16.510463505859374,18.54045Q16.545203505859376,18.60544,16.586143505859376,18.666710000000002Q16.627083505859375,18.72798,16.673823505859374,18.78495Q16.720573505859374,18.84191,16.772683505859376,18.89402Q16.824793505859375,18.94613,16.881753505859376,18.99287Q16.938716505859375,19.03962,16.999988505859374,19.08056Q17.061259505859375,19.1215,17.126248505859376,19.15624Q17.191237505859377,19.19098,17.259318505859376,19.21918Q17.327399505859375,19.24738,17.397916505859374,19.26877Q17.468433505859377,19.29016,17.540708505859374,19.30454Q17.612982505859375,19.31891,17.686317505859375,19.32614Q17.759653205859376,19.33336,17.833343505859375,19.33336Q17.907033805859374,19.33336,17.980369505859375,19.32614Q18.053704505859375,19.31891,18.125978505859376,19.30454Q18.198253505859373,19.29016,18.268770505859376,19.26877Q18.339287505859375,19.24738,18.407368505859374,19.21918Q18.475449505859373,19.19098,18.540438505859374,19.15624Q18.605427505859375,19.1215,18.666698505859376,19.08056Q18.727970505859375,19.03962,18.784933505859374,18.99287Q18.841893505859375,18.94613,18.894003505859374,18.89402Q18.946113505859376,18.84191,18.992863505859376,18.78495Q19.039603505859375,18.72798,19.080543505859374,18.666710000000002Q19.121483505859374,18.60544,19.156223505859376,18.54045Q19.190963505859376,18.475459999999998,19.219163505859374,18.40738Q19.247363505859376,18.3393,19.268753505859376,18.26879Q19.290143505859376,18.19827,19.304523505859375,18.12599Q19.318893505859375,18.05372,19.326123505859375,17.98038Q19.333343505859375,17.907049999999998,19.333343505859375,17.83336L19.333343505859375,17.5L20.500063505859377,17.5L20.500063505859377,18.66672L20.166713505859374,18.66672Q20.093023505859374,18.66672,20.019683505859376,18.67395Q19.946343505859375,18.68117,19.874073505859375,18.69555Q19.801803505859375,18.70992,19.731283505859373,18.73131Q19.660763505859375,18.7527,19.592683505859377,18.7809Q19.524603505859375,18.8091,19.459613505859377,18.84384Q19.394623505859375,18.87858,19.333353505859375,18.91952Q19.272083505859374,18.96046,19.215123505859374,19.00721Q19.158153505859374,19.05396,19.106043505859375,19.10606Q19.053943505859376,19.15817,19.007193505859377,19.21513Q18.960443505859374,19.272100000000002,18.919503505859375,19.33337Q18.878563505859375,19.39464,18.843823505859376,19.45963Q18.809089505859376,19.52462,18.780889505859374,19.5927Q18.752689505859376,19.66078,18.731298505859375,19.7313Q18.709906505859376,19.80181,18.695530505859374,19.87409Q18.681154505859375,19.94636,18.673931505859375,20.0197Q18.666708505859376,20.09303,18.666708505859376,20.166719999999998Q18.666708505859376,20.24041,18.673931505859375,20.31375Q18.681154505859375,20.38708,18.695530505859374,20.45936Q18.709906505859376,20.53163,18.731298505859375,20.60215Q18.752689505859376,20.67267,18.780889505859374,20.74075Q18.809089505859376,20.80883,18.843823505859376,20.873820000000002Q18.878563505859375,20.93881,18.919503505859375,21.00008Q18.960443505859374,21.06135,19.007193505859377,21.11831Q19.053943505859376,21.17528,19.106043505859375,21.22738Q19.158153505859374,21.27949,19.215123505859374,21.32624Q19.272083505859374,21.37299,19.333353505859375,21.41393Q19.394623505859375,21.45487,19.459613505859377,21.4896Q19.524603505859375,21.52434,19.592683505859377,21.55254Q19.660763505859375,21.58074,19.731283505859373,21.60213Q19.801803505859375,21.62352,19.874073505859375,21.637900000000002Q19.946343505859375,21.65228,20.019683505859376,21.6595Q20.093023505859374,21.666719999999998,20.166713505859374,21.666719999999998L21.666733505859376,21.666719999999998Q22.426123505859376,21.666719999999998,22.963093505859376,21.12975Q23.500063505859373,20.59278,23.500063505859373,19.83339L23.500063505859373,16.333338Q23.500063505859373,15.573949,22.963103505859376,15.036979Q22.426133505859376,14.5,21.666733505859376,14.5L18.166681505859376,14.5Q17.407280505859376,14.5,16.870308505859374,15.036978Q16.333343505859375,15.573948,16.333343505859375,16.333338Z" fill-rule="evenodd" fill="#FFFFFF" fill-opacity="1"/></g><g><path d="M21.666689482421873,21.666641953125L21.666689482421873,20.166621953125Q21.666689482421873,20.092931953125,21.659469482421876,20.019591953125Q21.652249482421876,19.946251953125,21.637869482421877,19.873981953125Q21.623489482421874,19.801711953125,21.602099482421874,19.731191953125Q21.580709482421874,19.660671953125,21.552509482421875,19.592591953125Q21.524309482421874,19.524511953125,21.489569482421874,19.459521953125Q21.454839482421875,19.394531953125,21.413899482421876,19.333261953125Q21.372959482421876,19.271991953125,21.326209482421874,19.215031953125Q21.279459482421874,19.158061953125,21.227349482421875,19.105951953125Q21.175249482421876,19.053851953125,21.118279482421876,19.007101953125Q21.061319482421876,18.960351953125,21.000049482421876,18.919411953125Q20.938779482421875,18.878471953125,20.873789482421877,18.843731953125Q20.808799482421875,18.808997953125,20.740719482421873,18.780797953125Q20.672639482421875,18.752597953125,20.602119482421877,18.731206953125Q20.531599482421875,18.709815953125,20.459329482421875,18.695438953125Q20.387049482421876,18.681062953125,20.313719482421874,18.673839953125Q20.240379482421876,18.666616953125,20.166689482421873,18.666616953125Q20.092999482421874,18.666616953125,20.019669482421875,18.673839953125Q19.946329482421874,18.681062953125,19.874059482421874,18.695438953125Q19.801779482421875,18.709815953125,19.731269482421876,18.731206953125Q19.660749482421874,18.752597953125,19.592669482421876,18.780797953125Q19.524589482421874,18.808997953125,19.459599482421876,18.843731953125Q19.394609482421874,18.878471953125,19.333339482421874,18.919411953125Q19.272069482421877,18.960351953125,19.215099482421873,19.007101953125Q19.158139482421873,19.053851953125,19.106029482421874,19.105951953125Q19.053929482421875,19.158061953125,19.007179482421876,19.215031953125Q18.960429482421876,19.271991953125,18.919489482421874,19.333261953125Q18.878549482421874,19.394531953125,18.843809482421875,19.459521953125Q18.809069482421876,19.524511953125,18.780869482421874,19.592591953125Q18.752669482421876,19.660671953125,18.731279482421876,19.731191953125Q18.709889482421875,19.801711953125,18.695519482421876,19.873981953125Q18.681139482421877,19.946251953125,18.673919482421876,20.019591953125Q18.666689482421877,20.092931953125,18.666689482421877,20.166621953125L18.666689482421877,20.499971953125L17.499969482421875,20.499971953125L17.499969482421875,19.333251953125L17.833329482421874,19.333251953125Q17.907019482421873,19.333251953125,17.980349482421875,19.326031953125Q18.053689482421873,19.318801953125,18.125959482421877,19.304431953125Q18.198239482421876,19.290051953125,18.268749482421875,19.268661953125Q18.339269482421876,19.247271953125,18.407349482421875,19.219071953125Q18.475429482421873,19.190871953125,18.540419482421875,19.156131953125Q18.605409482421877,19.121391953125,18.666679482421877,19.080451953125Q18.727949482421874,19.039511953125,18.784919482421873,18.992771953125Q18.841879482421874,18.946021953125,18.893989482421876,18.893911953125Q18.946099482421875,18.841801953125,18.992839482421875,18.784841953125Q19.039589482421874,18.727878953125,19.080529482421873,18.666606953125Q19.121469482421876,18.605335953125,19.156209482421875,18.540346953125Q19.190949482421875,18.475357953125,19.219149482421876,18.407276953125Q19.247349482421875,18.339195953125,19.268739482421875,18.268678953125Q19.290129482421875,18.198161953125,19.304509482421874,18.125886953125Q19.318879482421874,18.053612953125,19.326109482421874,17.980277953125Q19.333329482421874,17.906942253125,19.333329482421874,17.833251953125Q19.333329482421874,17.759561653125,19.326109482421874,17.686225953125Q19.318879482421874,17.612890953125,19.304509482421874,17.540616953125Q19.290129482421875,17.468341953125,19.268739482421875,17.397824953125Q19.247349482421875,17.327307953125,19.219149482421876,17.259226953125Q19.190949482421875,17.191145953125,19.156209482421875,17.126156953125Q19.121469482421876,17.061167953125,19.080529482421873,16.999896953125Q19.039589482421874,16.938624953125,18.992839482421875,16.881661953125Q18.946099482421875,16.824701953125,18.893989482421876,16.772591953125Q18.841879482421874,16.720481953125,18.784919482421873,16.673731953125Q18.727949482421874,16.626991953125,18.666679482421877,16.586051953125Q18.605409482421877,16.545111953125,18.540419482421875,16.510371953125Q18.475429482421873,16.475631953125,18.407349482421875,16.447431953125Q18.339269482421876,16.419231953125,18.268759482421874,16.397841953125Q18.198239482421876,16.376451953125,18.125959482421877,16.362071953125Q18.053689482421873,16.347701953125,17.980349482421875,16.340471953125Q17.907019482421873,16.333251953125,17.833329482421874,16.333251953125L16.333307482421876,16.333251953125Q15.573917482421875,16.333251953125,15.036947482421875,16.870216953125Q14.499969482421875,17.407188953125,14.499969482421875,18.166589953125L14.499969482421875,21.666641953125Q14.499969482421875,22.426041953125,15.036947482421875,22.963011953125Q15.573917482421875,23.499971953124998,16.333307482421876,23.499971953124998L19.833359482421876,23.499971953124998Q20.592749482421876,23.499971953124998,21.129719482421876,22.963001953125Q21.666689482421873,22.426031953125,21.666689482421873,21.666641953125Z" fill-rule="evenodd" fill="#FFFFFF" fill-opacity="1"/></g><g><path d="M16.333343505859375,20.166611953125L16.333343505859375,17.833251953125Q16.333343505859375,17.759561653125,16.340563505859375,17.686225953125Q16.347793505859375,17.612890953125,16.362163505859375,17.540616953125Q16.376543505859374,17.468341953125,16.397933505859374,17.397824953125Q16.419323505859374,17.327307953125,16.447523505859376,17.259226953125Q16.475723505859374,17.191145953125,16.510463505859374,17.126156953125Q16.545203505859376,17.061167953125,16.586143505859376,16.999896953125Q16.627083505859375,16.938624953125,16.673823505859374,16.881661953125Q16.720573505859374,16.824701953125,16.772683505859376,16.772591953125Q16.824793505859375,16.720481953125,16.881753505859376,16.673731953125Q16.938716505859375,16.626991953125,16.999988505859374,16.586051953125Q17.061259505859375,16.545111953125,17.126248505859376,16.510371953125Q17.191237505859377,16.475631953125,17.259318505859376,16.447431953125Q17.327399505859375,16.419231953125,17.397916505859374,16.397841953125Q17.468433505859377,16.376451953125,17.540708505859374,16.362071953125Q17.612982505859375,16.347701953125,17.686317505859375,16.340471953125Q17.759653205859376,16.333251953125,17.833343505859375,16.333251953125L20.166703505859374,16.333251953125Q20.240403505859376,16.333251953125,20.313733505859375,16.340471953125Q20.387073505859377,16.347701953125,20.459343505859376,16.362071953125Q20.531613505859376,16.376451953125,20.602133505859374,16.397841953125Q20.672653505859376,16.419231953125,20.740733505859374,16.447431953125Q20.808813505859376,16.475631953125,20.873803505859374,16.510371953125Q20.938793505859376,16.545111953125,21.000063505859377,16.586051953125Q21.061333505859373,16.626991953125,21.118293505859373,16.673731953125Q21.175263505859377,16.720481953125,21.227373505859376,16.772591953125Q21.279473505859375,16.824701953125,21.326223505859375,16.881661953125Q21.372973505859374,16.938624953125,21.413913505859377,16.999896953125Q21.454853505859376,17.061167953125,21.489593505859375,17.126156953125Q21.524323505859375,17.191145953125,21.552523505859376,17.259226953125Q21.580723505859375,17.327307953125,21.602123505859375,17.397824953125Q21.623513505859375,17.468341953125,21.637883505859374,17.540616953125Q21.652263505859374,17.612890953125,21.659483505859374,17.686225953125Q21.666713505859374,17.759561653125,21.666713505859374,17.833251953125L21.666713505859374,20.166611953125Q21.666713505859374,20.240311953125,21.659483505859374,20.313641953125Q21.652263505859374,20.386981953125,21.637883505859374,20.459251953125Q21.623513505859375,20.531521953125,21.602123505859375,20.602041953125Q21.580723505859375,20.672561953125,21.552523505859376,20.740641953125Q21.524323505859375,20.808721953125,21.489593505859375,20.873711953125Q21.454853505859376,20.938701953125,21.413913505859377,20.999971953125Q21.372973505859374,21.061241953125,21.326223505859375,21.118201953125Q21.279473505859375,21.175171953125002,21.227373505859376,21.227281953125Q21.175263505859377,21.279381953125,21.118303505859373,21.326131953125Q21.061333505859373,21.372881953125,21.000063505859377,21.413821953125Q20.938793505859376,21.454761953125,20.873803505859374,21.489501953125Q20.808813505859376,21.524231953125,20.740733505859374,21.552431953125Q20.672653505859376,21.580631953125,20.602133505859374,21.602031953125Q20.531613505859376,21.623421953125,20.459343505859376,21.637791953125Q20.387073505859377,21.652171953125,20.313733505859375,21.659391953125Q20.240403505859376,21.666621953125,20.166703505859374,21.666621953125L17.833343505859375,21.666621953125Q17.759653205859376,21.666621953125,17.686317505859375,21.659391953125Q17.612982505859375,21.652171953125,17.540708505859374,21.637791953125Q17.468433505859377,21.623421953125,17.397916505859374,21.602031953125Q17.327399505859375,21.580631953125,17.259318505859376,21.552431953125Q17.191237505859377,21.524231953125,17.126248505859376,21.489501953125Q17.061259505859375,21.454761953125,16.999988505859374,21.413821953125Q16.938716505859375,21.372881953125,16.881753505859376,21.326131953125Q16.824793505859375,21.279381953125,16.772683505859376,21.227281953125Q16.720573505859374,21.175171953125002,16.673823505859374,21.118211953124998Q16.627083505859375,21.061241953125,16.586143505859376,20.999971953125Q16.545203505859376,20.938701953125,16.510463505859374,20.873711953125Q16.475723505859374,20.808721953125,16.447523505859376,20.740641953125Q16.419323505859374,20.672561953125,16.397933505859374,20.602041953125Q16.376543505859374,20.531521953125,16.362163505859375,20.459251953125Q16.347793505859375,20.386981953125,16.340563505859375,20.313641953125Q16.333343505859375,20.240311953125,16.333343505859375,20.166611953125Z" fill="#FFFFFF" fill-opacity="1"/></g><g><path d="M17.333343505859375,16.333338L17.333343505859375,17.83336Q17.333343505859375,17.8826,17.342950505859374,17.9309Q17.352558505859374,17.9792,17.371403505859377,18.0247Q17.390249505859376,18.0702,17.417608505859373,18.11114Q17.444968505859375,18.15209,17.479790505859373,18.18691Q17.514612505859375,18.22173,17.555558505859373,18.24909Q17.596504505859375,18.27645,17.642001505859376,18.2953Q17.687498505859374,18.314140000000002,17.735798405859374,18.32375Q17.784097805859375,18.33336,17.833343505859375,18.33336Q17.882589205859375,18.33336,17.930888605859376,18.32375Q17.979188505859376,18.314140000000002,18.024685505859374,18.2953Q18.070182505859375,18.27645,18.111128505859377,18.24909Q18.152074505859375,18.22173,18.186896505859377,18.18691Q18.221718505859375,18.15209,18.249078505859377,18.11114Q18.276437505859374,18.0702,18.295283505859373,18.0247Q18.314128505859376,17.9792,18.323736505859376,17.9309Q18.333343505859375,17.8826,18.333343505859375,17.83336L18.333343505859375,16.5L21.500063505859377,16.5L21.500063505859377,19.66672L20.166713505859374,19.66672Q20.117463505859376,19.66672,20.069163505859375,19.67633Q20.020863505859374,19.68594,19.975363505859374,19.70478Q19.929873505859376,19.72363,19.888923505859374,19.75099Q19.847973505859375,19.77835,19.813153505859376,19.81317Q19.778333505859376,19.84799,19.750973505859374,19.888939999999998Q19.723613505859376,19.92988,19.704773505859375,19.97538Q19.685923505859375,20.02088,19.676313505859376,20.06918Q19.666713505859374,20.11748,19.666713505859374,20.166719999999998Q19.666713505859374,20.21597,19.676313505859376,20.26427Q19.685923505859375,20.31257,19.704773505859375,20.358060000000002Q19.723613505859376,20.40356,19.750973505859374,20.44451Q19.778333505859376,20.48545,19.813153505859376,20.52028Q19.847973505859375,20.5551,19.888923505859374,20.58246Q19.929873505859376,20.60982,19.975363505859374,20.62866Q20.020863505859374,20.64751,20.069163505859375,20.65711Q20.117463505859376,20.666719999999998,20.166713505859374,20.666719999999998L21.666733505859376,20.666719999999998Q22.011913505859376,20.666719999999998,22.255993505859376,20.42265Q22.500063505859373,20.17857,22.500063505859373,19.83339L22.500063505859373,16.333338Q22.500063505859373,15.5,21.666733505859376,15.5L18.166681505859376,15.5Q17.333343505859375,15.5,17.333343505859375,16.333338Z" fill-rule="evenodd" fill="#D25F00" fill-opacity="1"/></g><g><path d="M20.666689482421873,21.666641953125L20.666689482421873,20.166621953125Q20.666689482421873,20.117371953125,20.657079482421874,20.069071953125Q20.647479482421875,20.020771953125,20.628629482421875,19.975271953125Q20.609789482421874,19.929781953125,20.582429482421876,19.888831953125Q20.555069482421874,19.847881953125,20.520249482421875,19.813061953125Q20.485419482421875,19.778241953125,20.444479482421876,19.750881953125Q20.403529482421874,19.723521953125,20.358029482421877,19.704681953125Q20.312539482421876,19.685831953125,20.264239482421875,19.676221953125Q20.215939482421874,19.666621953125,20.166689482421873,19.666621953125Q20.117449482421875,19.666621953125,20.069149482421874,19.676221953125Q20.020849482421873,19.685831953125,19.975349482421876,19.704681953125Q19.929849482421876,19.723521953125,19.888909482421873,19.750881953125Q19.847959482421874,19.778241953125,19.813139482421875,19.813061953125Q19.778319482421875,19.847881953125,19.750959482421877,19.888831953125Q19.723599482421875,19.929781953125,19.704749482421875,19.975271953125Q19.685909482421874,20.020771953125,19.676299482421875,20.069071953125Q19.666689482421877,20.117371953125,19.666689482421877,20.166621953125L19.666689482421877,21.499971953125L16.499969482421875,21.499971953125L16.499969482421875,18.333251953125L17.833329482421874,18.333251953125Q17.882569482421875,18.333251953125,17.930869482421876,18.323644953125Q17.979169482421874,18.314036953125,18.024669482421874,18.295191953125Q18.070169482421875,18.276345953125,18.111109482421874,18.248986953125Q18.152059482421876,18.221626953125,18.186879482421876,18.186804953125Q18.221699482421876,18.151982953125,18.249059482421874,18.111036953125Q18.276419482421876,18.070090953125,18.295269482421876,18.024593953125Q18.314109482421877,17.979096953125,18.323719482421875,17.930797053125Q18.333329482421874,17.882497653125,18.333329482421874,17.833251953125Q18.333329482421874,17.784006253125,18.323719482421875,17.735706853125Q18.314109482421877,17.687406953125,18.295269482421876,17.641909953125Q18.276419482421876,17.596412953125,18.249059482421874,17.555466953125Q18.221699482421876,17.514520953125,18.186879482421876,17.479698953125Q18.152059482421876,17.444876953125,18.111109482421874,17.417516953125Q18.070169482421875,17.390157953125,18.024669482421874,17.371311953125Q17.979169482421874,17.352466953125,17.930869482421876,17.342858953125Q17.882569482421875,17.333251953125,17.833329482421874,17.333251953125L16.333307482421876,17.333251953125Q15.499969482421875,17.333251953125,15.499969482421875,18.166589953125L15.499969482421875,21.666641953125Q15.499969482421875,22.499971953124998,16.333307482421876,22.499971953124998L19.833359482421876,22.499971953124998Q20.178539482421876,22.499971953124998,20.422619482421876,22.255901953125Q20.666689482421873,22.011821953125,20.666689482421873,21.666641953125Z" fill-rule="evenodd" fill="#D25F00" fill-opacity="1"/></g><g><rect x="17.833343505859375" y="17.833251953125" width="2.333364963531494" height="2.333364963531494" rx="0" fill="#D25F00" fill-opacity="1"/><path d="M17.333343505859375,20.166611953125L17.333343505859375,17.833251953125Q17.333343505859375,17.784006253125,17.342950505859374,17.735706853125Q17.352558505859374,17.687406953125,17.371403505859377,17.641909953125Q17.390249505859376,17.596412953125,17.417608505859373,17.555466953125Q17.444968505859375,17.514520953125,17.479790505859373,17.479698953125Q17.514612505859375,17.444876953125,17.555558505859373,17.417516953125Q17.596504505859375,17.390157953125,17.642001505859376,17.371311953125Q17.687498505859374,17.352466953125,17.735798405859374,17.342858953125Q17.784097805859375,17.333251953125,17.833343505859375,17.333251953125L20.166703505859374,17.333251953125Q20.215953505859375,17.333251953125,20.264253505859376,17.342858953125Q20.312553505859377,17.352466953125,20.358053505859374,17.371311953125Q20.403543505859375,17.390157953125,20.444493505859374,17.417516953125Q20.485443505859376,17.444876953125,20.520263505859376,17.479698953125Q20.555083505859375,17.514520953125,20.582443505859374,17.555466953125Q20.609803505859375,17.596412953125,20.628643505859376,17.641909953125Q20.647493505859376,17.687406953125,20.657103505859375,17.735706853125Q20.666703505859374,17.784006253125,20.666703505859374,17.833251953125L20.666703505859374,20.166611953125Q20.666703505859374,20.215861953125,20.657103505859375,20.264161953125Q20.647493505859376,20.312461953125002,20.628643505859376,20.357961953125Q20.609803505859375,20.403451953125,20.582443505859374,20.444401953125Q20.555083505859375,20.485351953125,20.520263505859376,20.520171953125Q20.485443505859376,20.554991953125,20.444493505859374,20.582351953125Q20.403543505859375,20.609711953125,20.358053505859374,20.628551953125Q20.312553505859377,20.647401953125,20.264253505859376,20.657011953125Q20.215953505859375,20.666611953125,20.166703505859374,20.666611953125L17.833343505859375,20.666611953125Q17.784097805859375,20.666611953125,17.735798405859374,20.657011953125Q17.687498505859374,20.647401953125,17.642001505859376,20.628551953125Q17.596504505859375,20.609711953125,17.555558505859373,20.582351953125Q17.514612505859375,20.554991953125,17.479790505859373,20.520171953125Q17.444968505859375,20.485351953125,17.417608505859373,20.444401953125Q17.390249505859376,20.403451953125,17.371403505859377,20.357961953125Q17.352558505859374,20.312461953125002,17.342950505859374,20.264161953125Q17.333343505859375,20.215861953125,17.333343505859375,20.166611953125ZM18.333343505859375,18.333251953125L18.333343505859375,19.666611953125L19.666703505859374,19.666611953125L19.666703505859374,18.333251953125L18.333343505859375,18.333251953125Z" fill="#D25F00" fill-opacity="1"/></g></g></svg>