<svg xmlns="http://www.w3.org/2000/svg" xmlns:xlink="http://www.w3.org/1999/xlink" fill="none" version="1.1" width="24" height="24" viewBox="0 0 24 24"><defs><clipPath id="master_svg0_644_65161"><rect x="0" y="0" width="24" height="24" rx="0"/></clipPath></defs><g clip-path="url(#master_svg0_644_65161)"><g><path d="M2 4.5C2 3.3954305003384135 2.8954305003384135 2.5 4 2.5L20 2.5C21.104569499661586 2.5 22 3.3954305003384135 22 4.5L22 6.5C22 6.5 22 6.5 22 6.5L2 6.5C2 6.5 2 6.5 2 6.5Z" fill="#F9CC45" fill-opacity="1"/></g><g><path d="M2 6.5C2 6.5 2 6.5 2 6.5L22 6.5C22 6.5 22 6.5 22 6.5L22 19.5C22 20.604569499661586 21.104569499661586 21.5 20 21.5L4 21.5C2.8954305003384135 21.5 2 20.604569499661586 2 19.5Z" fill="#FF7D00" fill-opacity="1"/></g><g style="opacity:0.5;"><path d="M8.5,6.5L8.50000550225,11.5L15.5,11.5L15.5,6.5L8.5,6.5Z" fill="#FFCF8B" fill-opacity="1"/></g><g style="opacity:0.6000000238418579;"><path d="M15.5,6.5L15.50000510924,11.5L22,11.5L22,6.5L15.5,6.5Z" fill="#FFCF8B" fill-opacity="1"/></g><g style="opacity:0.30000001192092896;"><path d="M2,6.5L2.00000510924,11.5L8.5,11.5L8.5,6.5L2,6.5Z" fill="#FFCF8B" fill-opacity="1"/></g><g style="opacity:0.30000001192092896;"><path d="M8.5,16.5L8.50000550225,21.5L15.5,21.5L15.5,16.5L8.5,16.5Z" fill="#FFCF8B" fill-opacity="1"/></g><g style="opacity:0.4000000059604645;"><path d="M15.5,16.5L15.50000510924,21.5L20,21.5C21.10457,21.5,22,20.60457,22,19.5L22,16.5L15.5,16.5Z" fill="#FFCF8B" fill-opacity="1"/></g><g style="opacity:0.10000000149011612;"><path d="M2,16.5L2.00000306554,19.5C2.00000419424,20.60457,2.895434,21.5,4,21.5L8.5,21.5L8.5,16.5L2,16.5Z" fill="#FFCF8B" fill-opacity="1"/></g><g style="opacity:0.4000000059604645;"><path d="M8.5,11.5L8.50000550225,16.5L15.5,16.5L15.5,11.5L8.5,11.5Z" fill="#FFCF8B" fill-opacity="1"/></g><g style="opacity:0.5;"><path d="M15.5,11.5L15.50000510924,16.5L22,16.5L22,11.5L15.5,11.5Z" fill="#FFCF8B" fill-opacity="1"/></g><g style="opacity:0.20000000298023224;"><path d="M2,11.5L2.00000510924,16.5L8.5,16.5L8.5,11.5L2,11.5Z" fill="#FFCF8B" fill-opacity="1"/></g><g><path d="M8.401302470703126,14.47727234375L8.401302470703126,13.28503234375L8.889972470703125,13.28503234375Q9.425992470703125,13.28503234375,9.716382470703126,12.99311234375Q10.004542470703125,12.71328234375,10.004562470703124,12.26396234375Q9.994632470703126,11.80472234375,9.705592470703126,11.51412234375Q9.415302470703125,11.23221234375,8.954742470703124,11.22221234375Q8.627662470703125,11.22221234375,8.357962470703125,11.43414234375L8.356962470703126,11.43492234375L8.355942470703125,11.435682343749999Q8.072692470703124,11.64682234375,7.972762470703125,12.09884234375L7.9554324707031245,12.17725234375L6.636550270703125,12.17725234375L6.647403270703125,12.06742234375Q6.737389470703125,11.15675234375,7.384333470703125,10.53257334375Q8.022902470703125,9.91122104375,8.910282470703125,9.89991685745L8.911422470703124,9.89990234375L8.912562470703126,9.89991385485Q10.029562470703125,9.91113974375,10.691032470703124,10.61784134375Q11.321482470703124,11.30459234375,11.332752470703124,12.24012234375Q11.332752470703124,12.71213234375,11.164142470703126,13.15051234375L11.163162470703124,13.15306234375L11.162042470703124,13.15556234375Q10.985522470703124,13.54893234375,10.569832470703124,13.86350234375Q10.998182470703124,14.17704234375,11.204692470703126,14.60017234375Q11.424512470703124,15.073642343749999,11.424512470703124,15.59332234375Q11.413302470703126,16.742482343749998,10.709082470703125,17.40723234375Q10.016372470703125,18.08868234375,8.933152470703124,18.09991234375Q8.092632470703125,18.09990234375,7.444035470703125,17.55944234375Q6.795598470703125,17.01910234375,6.605440270703125,16.00304234375L6.583282470703125,15.88464234375L7.900752470703125,15.88464234375L7.925332470703125,15.948912343749999Q8.067722470703124,16.32107234375,8.325542470703125,16.54912234375Q8.577662470703125,16.77761234375,9.003332470703125,16.77761234375Q9.458462470703125,16.77761234375,9.769242470703125,16.46606234375L9.770672470703126,16.46462234375L9.772162470703126,16.46325234375Q10.085792470703126,16.17335234375,10.096292470703125,15.62742234375Q10.085772470703125,15.069732343750001,9.771582470703125,14.76950234375Q9.460362470703124,14.47727234375,8.976342470703125,14.47727234375L8.401302470703126,14.47727234375ZM12.732002470703126,15.73723234375L12.732002470703126,15.73723234375L12.732002470703126,12.25721234375Q12.743262470703126,11.12384234375,13.462262470703125,10.50690634375Q14.132882470703125,9.89990872145,15.061432470703124,9.8999087438Q16.017732470703123,9.89992076155,16.688382470703125,10.50861134375Q17.373782470703127,11.125902343749999,17.396282470703127,12.26163234375L17.396282470703127,15.73481234375Q17.373782470703127,16.86308234375,16.688682470703124,17.48021234375Q16.018232470703126,18.08865234375,15.062602470703125,18.09990234375L15.061422470703125,18.09991234375L15.060232470703125,18.09990234375Q14.132392470703124,18.088752343750002,13.462262470703125,17.48217234375Q12.743252470703126,16.86514234375,12.732002470703126,15.73723234375ZM16.068032470703123,15.66994234375Q16.066152470703123,15.73792234375,16.060642470703122,15.80172234375Q15.977162470703124,16.76832234375,15.060422470703125,16.77760234375Q14.080032470703124,16.76777234375,14.060182470703126,15.66949234375L14.060202470703125,12.32852234375Q14.080002470703125,11.24313234375,15.061432470703124,11.22224234375Q15.182662470703125,11.22483234375,15.289302470703126,11.24385234375Q16.041482470703123,11.37802234375,16.068032470703123,12.32987234375L16.068032470703123,15.66994234375Z" fill-rule="evenodd" fill="#FFFFFF" fill-opacity="1"/></g></g></svg>