<svg xmlns="http://www.w3.org/2000/svg" xmlns:xlink="http://www.w3.org/1999/xlink" fill="none" version="1.1" width="24" height="24" viewBox="0 0 24 24"><defs><clipPath id="master_svg0_732_33226"><rect x="0" y="0" width="24" height="24" rx="0"/></clipPath></defs><g clip-path="url(#master_svg0_732_33226)"><g><path d="M11.999969482421875,1.5C10.895419482421875,1.5,9.999969482421875,2.39543,9.999969482421875,3.5L13.999969482421875,3.5C13.999969482421875,2.39543,13.104519482421875,1.5,11.999969482421875,1.5Z" fill-rule="evenodd" fill="#FF7D00" fill-opacity="1"/></g><g><path d="M9.070770263671875,18.8291015625L14.929170263671875,18.8291015625C14.929170263671875,20.4468515625,13.617720263671874,21.7583015625,11.999970263671875,21.7583015625C10.382220263671876,21.7583015625,9.070770263671875,20.4468515625,9.070770263671875,18.8291015625Z" fill="#F9CC45" fill-opacity="1"/><path d="M9.398385263671875,21.4306915625Q10.476000263671875,22.5083015625,11.999970263671875,22.5083015625Q13.523940263671875,22.5083015625,14.601560263671875,21.4306915625Q15.679170263671875,20.3530715625,15.679170263671875,18.8291015625L15.679170263671875,18.0791015625L8.320770263671875,18.0791015625L8.320770263671875,18.8291015625Q8.320770263671875,20.3530715625,9.398385263671875,21.4306915625ZM13.540900263671876,20.3700315625Q12.902620263671874,21.0083015625,11.999970263671875,21.0083015625Q11.097320263671875,21.0083015625,10.459050263671875,20.3700315625Q10.104390263671874,20.0153715625,9.946801263671874,19.5791015625L14.053140263671875,19.5791015625Q13.895550263671876,20.0153815625,13.540900263671876,20.3700315625Z" fill-rule="evenodd" fill="#F9CC45" fill-opacity="1"/></g><g><path d="M3.212371826171875,18.82902421875L20.787571826171874,18.82902421875Q17.858371826171876,16.388024218749997,17.858371826171876,9.55322421875C17.858371826171876,6.31770421875,15.235471826171874,3.69482421875,11.999971826171874,3.69482421875C8.764491826171875,3.69482421875,6.141571826171875,6.31770421875,6.141571826171875,9.55322421875Q6.141571826171875,16.388024218749997,3.212371826171875,18.82902421875Z" fill="#FF7D00" fill-opacity="1"/><path d="M21.267671826171874,18.25282421875Q18.608371826171876,16.036724218750003,18.608371826171876,9.55322421875Q18.608371826171876,6.81593421875,16.672771826171875,4.88037421875Q14.737271826171876,2.94482421875,11.999981826171876,2.94482421875Q9.262691826171874,2.94482421875,7.327141826171875,4.88037421875Q5.391571826171875,6.81593421875,5.391571826171875,9.55322421875Q5.391571826171875,16.036724218750003,2.732233826171875,18.25282421875Q2.617626826171875,18.34832421875,2.548292826171875,18.480424218750002Q2.478957826171875,18.61252421875,2.4654518261718747,18.76112421875Q2.451945826171875,18.90972421875,2.496322826171875,19.052124218750002Q2.540700826171875,19.19452421875,2.6362058261718753,19.30912421875Q2.743077826171875,19.43742421875,2.894254826171875,19.50822421875Q3.045432826171875,19.57902421875,3.212371826171875,19.57902421875L20.787571826171874,19.57902421875Q20.861471826171876,19.57902421875,20.933871826171874,19.564624218749998Q21.006371826171875,19.55022421875,21.074571826171876,19.52192421875Q21.142871826171874,19.49362421875,21.204271826171876,19.45262421875Q21.265671826171875,19.41162421875,21.317871826171874,19.35932421875Q21.370171826171877,19.307124218749998,21.411171826171874,19.24572421875Q21.452171826171874,19.18432421875,21.480471826171875,19.11602421875Q21.508771826171873,19.04782421875,21.523171826171875,18.97532421875Q21.537571826171874,18.90292421875,21.537571826171874,18.82902421875Q21.537571826171874,18.66212421875,21.466771826171875,18.51092421875Q21.395971826171873,18.35972421875,21.267671826171874,18.25282421875ZM15.612171826171876,5.94103421875Q17.108371826171876,7.437254218750001,17.108371826171876,9.55322421875Q17.108371826171876,15.22312421875,19.099871826171874,18.07902421875L4.900031826171875,18.07902421875Q6.891571826171875,15.22312421875,6.891571826171875,9.55322421875Q6.891571826171875,7.437254218750001,8.387791826171874,5.94103421875Q9.884011826171875,4.44482421875,11.999981826171876,4.44482421875Q14.115971826171876,4.44482421875,15.612171826171876,5.94103421875Z" fill-rule="evenodd" fill="#FF7D00" fill-opacity="1"/></g></g></svg>