<svg xmlns="http://www.w3.org/2000/svg" xmlns:xlink="http://www.w3.org/1999/xlink" fill="none" version="1.1" width="24" height="24" viewBox="0 0 24 24"><defs><clipPath id="master_svg0_732_35270"><rect x="0" y="0" width="24" height="24" rx="0"/></clipPath></defs><g clip-path="url(#master_svg0_732_35270)"><g><path d="M4.2499847412109375,4L4.249992921950938,20C4.249993423960937,21.1046,5.145423741210937,22,6.249994741210937,22L18.249984741210938,22C19.354584741210935,22,20.249984741210938,21.1046,20.249984741210938,20L20.249984741210938,4C20.249984741210938,2.89543,19.354584741210935,2,18.249984741210938,2L6.2499847412109375,2C5.145415741210938,2,4.2499847412109375,2.895431,4.2499847412109375,4Z" fill="#FF7D00" fill-opacity="1"/><path d="M6.249994741210937,22.75L18.249984741210938,22.75Q20.999984741210938,22.75,20.999984741210938,20L20.999984741210938,4Q20.999984741210938,1.25,18.249984741210938,1.25L6.2499847412109375,1.25Q5.1108977412109375,1.25,4.3054415412109375,2.0554567Q3.4999847412109375,2.860913,3.4999857412109376,4L3.4999927412109377,20Q3.4999947412109376,22.75,6.249994741210937,22.75ZM19.499984741210938,20Q19.499984741210938,21.25,18.249984741210938,21.25L6.249994741210937,21.25Q5.7322247412109375,21.25,5.366114741210938,20.8839Q4.999993741210938,20.5178,4.999992741210938,20L4.999985741210938,4Q4.999985741210938,3.48223,5.366104741210938,3.11612Q5.732214741210937,2.75,6.2499847412109375,2.75L18.249984741210938,2.75Q19.499984741210938,2.75,19.499984741210938,4L19.499984741210938,20Z" fill-rule="evenodd" fill="#FF7D00" fill-opacity="1"/></g><g><path d="M8.249984741210938,7.25L16.249984741210938,7.25Q16.323854741210937,7.25,16.396304741210937,7.264411Q16.468754741210937,7.278822,16.53699474121094,7.30709Q16.60524474121094,7.335359,16.666664741210937,7.376398Q16.728084741210935,7.417437,16.780314741210937,7.46967Q16.83254474121094,7.521903,16.873584741210937,7.583322Q16.914624741210936,7.644742,16.942894741210935,7.712987Q16.971164741210938,7.781233,16.98557474121094,7.853682Q16.999984741210938,7.9261315,16.999984741210938,8Q16.999984741210938,8.0738685,16.98557474121094,8.146318Q16.971164741210938,8.218767,16.942894741210935,8.287013Q16.914624741210936,8.355258,16.873584741210937,8.416678Q16.83254474121094,8.478097,16.780314741210937,8.53033Q16.728084741210935,8.582563,16.666664741210937,8.623602Q16.60524474121094,8.664641,16.53699474121094,8.69291Q16.468754741210937,8.721178,16.396304741210937,8.735589000000001Q16.323854741210937,8.75,16.249984741210938,8.75L8.249984741210938,8.75Q8.176116241210938,8.75,8.103666741210937,8.735589000000001Q8.031217741210938,8.721178,7.9629717412109375,8.69291Q7.894726741210937,8.664641,7.833306741210937,8.623602Q7.7718877412109375,8.582563,7.719654741210937,8.53033Q7.667421741210937,8.478097,7.6263827412109375,8.416678Q7.585343741210938,8.355258,7.557074741210937,8.287013Q7.528806741210937,8.218767,7.5143957412109375,8.146318Q7.4999847412109375,8.0738685,7.4999847412109375,8Q7.4999847412109375,7.9261315,7.5143957412109375,7.853682Q7.528806741210937,7.781233,7.557074741210937,7.712987Q7.585343741210938,7.644742,7.6263827412109375,7.583322Q7.667421741210937,7.521903,7.719654741210937,7.46967Q7.7718877412109375,7.417437,7.833306741210937,7.376398Q7.894726741210937,7.335359,7.9629717412109375,7.30709Q8.031217741210938,7.278822,8.103666741210937,7.264411Q8.176116241210938,7.25,8.249984741210938,7.25Z" fill-rule="evenodd" fill="#FFFFFF" fill-opacity="1"/></g><g><path d="M8.249984741210938,11.25L12.249984741210938,11.25Q12.323854741210937,11.25,12.396304741210937,11.264410999999999Q12.468754741210937,11.278822,12.536994741210938,11.30709Q12.605244741210939,11.335359,12.666664741210937,11.376398Q12.728084741210939,11.417437,12.780314741210937,11.46967Q12.832544741210938,11.521903,12.873584741210937,11.583322Q12.914624741210938,11.644742,12.942894741210939,11.712987Q12.971164741210938,11.781233,12.985574741210938,11.853682Q12.999984741210938,11.9261315,12.999984741210938,12Q12.999984741210938,12.0738685,12.985574741210938,12.146318Q12.971164741210938,12.218767,12.942894741210939,12.287013Q12.914624741210938,12.355258,12.873584741210937,12.416678Q12.832544741210938,12.478097,12.780314741210937,12.53033Q12.728084741210939,12.582563,12.666664741210937,12.623602Q12.605244741210939,12.664641,12.536994741210938,12.69291Q12.468754741210937,12.721178,12.396304741210937,12.735589000000001Q12.323854741210937,12.75,12.249984741210938,12.75L8.249984741210938,12.75Q8.176116241210938,12.75,8.103666741210937,12.735589000000001Q8.031217741210938,12.721178,7.9629717412109375,12.69291Q7.894726741210937,12.664641,7.833306741210937,12.623602Q7.7718877412109375,12.582563,7.719654741210937,12.53033Q7.667421741210937,12.478097,7.6263827412109375,12.416678Q7.585343741210938,12.355258,7.557074741210937,12.287013Q7.528806741210937,12.218767,7.5143957412109375,12.146318Q7.4999847412109375,12.0738685,7.4999847412109375,12Q7.4999847412109375,11.9261315,7.5143957412109375,11.853682Q7.528806741210937,11.781233,7.557074741210937,11.712987Q7.585343741210938,11.644742,7.6263827412109375,11.583322Q7.667421741210937,11.521903,7.719654741210937,11.46967Q7.7718877412109375,11.417437,7.833306741210937,11.376398Q7.894726741210937,11.335359,7.9629717412109375,11.30709Q8.031217741210938,11.278822,8.103666741210937,11.264410999999999Q8.176116241210938,11.25,8.249984741210938,11.25Z" fill-rule="evenodd" fill="#FFFFFF" fill-opacity="1"/></g><g><g><path d="M18.408815986328126,15.000732421875C18.023095986328126,15.000732421875,17.704325986328126,15.287495421875,17.654105986328126,15.659466421875Q17.083745986328125,15.833740421875,16.629395986328124,16.288082421875Q15.892335986328124,17.025152421875,15.892335986328124,18.067522421875Q15.892335986328124,20.536452421875,14.879650986328125,21.380352421875C14.821460686328125,21.428852421875,14.784917356328124,21.498472421875,14.778059676328125,21.573902421875C14.771202016328125,21.649342421874998,14.794591686328125,21.724412421875,14.843083086328125,21.782602421874998C14.897345986328125,21.847712421875002,14.977726986328125,21.885362421875,15.062487986328126,21.885362421875L17.034635986328126,21.885362421875Q17.112755986328125,22.284872421875,17.418135986328124,22.590252421875Q17.828495986328125,23.000612421875,18.408825986328125,23.000612421875Q18.989155986328125,23.000612421875,19.399515986328126,22.590252421875Q19.704895986328125,22.284872421875,19.783015986328124,21.885362421875L21.755155986328127,21.885362421875C21.912895986328124,21.885362421875,22.040765986328125,21.757492421875,22.040765986328125,21.599762421875C22.040765986328125,21.515002421875,22.003115986328126,21.434622421874998,21.937995986328126,21.380352421875Q20.925315986328126,20.536452421875,20.925315986328126,18.067522421875Q20.925315986328126,17.025152421875,20.188245986328127,16.288082421875Q19.733895986328125,15.833736421875,19.163535986328124,15.659463421875C19.113305986328125,15.287494421875,18.794545986328124,15.000732421875,18.408815986328126,15.000732421875Z" fill-rule="evenodd" fill="#FFFFFF" fill-opacity="1"/><path d="M19.996275986328126,14.921128921875Q19.605095986328124,14.000732421875,18.408815986328126,14.000732421875Q17.212535986328124,14.000732421875,16.821365986328125,14.921134621875Q16.333885986328124,15.169384421875,15.922295986328125,15.580979421875Q14.892332986328125,16.610932421875,14.892332986328125,18.067522421875Q14.892331986328125,20.068082421875,14.239465986328124,20.612132421875Q13.830377986328125,20.953042421875,13.782165986328124,21.483372421875Q13.733955986328125,22.013702421875,14.074865986328126,22.422782421875Q14.460340986328125,22.885362421875,15.062487986328126,22.885362421875L16.376725986328125,22.885362421875Q16.517315986328125,23.103652421874997,16.711035986328124,23.297362421875Q17.414285986328125,24.000612421874997,18.408825986328125,24.000612421874997Q19.403375986328125,24.000612421874997,20.106625986328126,23.297362421875Q20.300335986328125,23.103652421874997,20.440925986328125,22.885362421875L21.755155986328127,22.885362421875Q22.287675986328125,22.885362421875,22.664215986328124,22.508822421875Q23.040765986328125,22.132272421875,23.040765986328125,21.599762421875Q23.040765986328125,20.997612421875,22.578175986328127,20.612132421875Q21.925315986328126,20.068082421875,21.925315986328126,18.067512421875Q21.925315986328126,16.610932421875,20.895355986328127,15.580979421875Q20.483755986328127,15.169378421875,19.996275986328126,14.921128921875ZM19.163535986328124,15.659463421875C19.113305986328125,15.287494421875,18.794545986328124,15.000732421875,18.408815986328126,15.000732421875C18.023095986328126,15.000732421875,17.704325986328126,15.287495421875,17.654105986328126,15.659466421875Q17.083745986328125,15.833740421875,16.629395986328124,16.288082421875Q15.892335986328124,17.025152421875,15.892335986328124,18.067522421875Q15.892335986328124,19.947592421875,15.305106986328125,20.885362421875Q15.294905986328125,20.901652421875,15.284534986328126,20.917652421875Q15.107790986328125,21.190242421875,14.879650986328125,21.380352421875C14.821460686328125,21.428852421875,14.784917356328124,21.498472421875,14.778059676328125,21.573902421875C14.771202016328125,21.649342421874998,14.794591686328125,21.724412421875,14.843083086328125,21.782602421874998C14.897345986328125,21.847712421875002,14.977726986328125,21.885362421875,15.062487986328126,21.885362421875L17.034635986328126,21.885362421875Q17.112755986328125,22.284872421875,17.418135986328124,22.590252421875Q17.828495986328125,23.000612421875,18.408825986328125,23.000612421875Q18.989155986328125,23.000612421875,19.399515986328126,22.590252421875Q19.704895986328125,22.284872421875,19.783015986328124,21.885362421875L21.755155986328127,21.885362421875C21.912895986328124,21.885362421875,22.040765986328125,21.757492421875,22.040765986328125,21.599762421875C22.040765986328125,21.515002421875,22.003115986328126,21.434622421874998,21.937995986328126,21.380352421875Q21.710185986328124,21.190512421875,21.533615986328126,20.918422421875Q21.522975986328124,20.902032421875,21.512545986328124,20.885362421875Q20.925315986328126,19.947602421875,20.925315986328126,18.067522421875Q20.925315986328126,17.025152421875,20.188245986328127,16.288082421875Q19.733895986328125,15.833736421875,19.163535986328124,15.659463421875Z" fill-rule="evenodd" fill="#FFFFFF" fill-opacity="1"/></g><g><path d="M18.408825068283083,23.000735006713867Q17.82849006828308,23.000735006713867,17.41813306828308,22.590375006713867Q17.00777506828308,22.180018006713865,17.00777506828308,21.599686006713867L17.00777506828308,21.314085006713867L19.80986506828308,21.314085006713867L19.80986506828308,21.599686006713867Q19.80986506828308,22.180018006713865,19.39951506828308,22.590375006713867Q18.989155068283083,23.000735006713867,18.408825068283083,23.000735006713867Z" fill-rule="evenodd" fill="#F9CC45" fill-opacity="1"/></g><g><path d="M17.654105986328126,15.659466421875C17.704325986328126,15.287495421875,18.023095986328126,15.000732421875,18.408815986328126,15.000732421875C18.794545986328124,15.000732421875,19.113305986328125,15.287494421875,19.163535986328124,15.659463421875Q19.733895986328125,15.833736421875,20.188245986328127,16.288082421875Q20.925315986328126,17.025152421875,20.925315986328126,18.067522421875Q20.925315986328126,20.536452421875,21.937995986328126,21.380352421875C22.003115986328126,21.434622421874998,22.040765986328125,21.515002421875,22.040765986328125,21.599762421875C22.040765986328125,21.757492421875,21.912895986328124,21.885362421875,21.755155986328127,21.885362421875L15.062487986328126,21.885362421875C14.977726986328125,21.885362421875,14.897345986328125,21.847712421875002,14.843083086328125,21.782602421874998C14.794591686328125,21.724412421875,14.771202016328125,21.649342421874998,14.778059676328125,21.573902421875C14.784917356328124,21.498472421875,14.821460686328125,21.428852421875,14.879650986328125,21.380352421875Q15.892335986328124,20.536452421875,15.892335986328124,18.067522421875Q15.892335986328124,17.025152421875,16.629395986328124,16.288082421875Q17.083745986328125,15.833740421875,17.654105986328126,15.659466421875Z" fill-rule="evenodd" fill="#FF7D00" fill-opacity="1"/></g></g></g></svg>