<svg xmlns="http://www.w3.org/2000/svg" xmlns:xlink="http://www.w3.org/1999/xlink" fill="none" version="1.1" width="36" height="36" viewBox="0 0 36 36"><defs><clipPath id="master_svg0_1020_67083"><rect x="0" y="0" width="36" height="36" rx="0"/></clipPath></defs><g><g clip-path="url(#master_svg0_1020_67083)"><g><path d="M16.5,7.5Q16.5,7.4263097,16.50722,7.352974Q16.51445,7.279639,16.52882,7.207365Q16.5432,7.13509,16.56459,7.064573Q16.58598,6.9940560000000005,16.61418,6.925975Q16.64238,6.857894,16.67712,6.792905Q16.71186,6.7279160000000005,16.7528,6.666645Q16.79374,6.605373,16.84048,6.54841Q16.88723,6.49145,16.93934,6.43934Q16.99145,6.38723,17.04841,6.3404799999999994Q17.105373,6.29374,17.166645,6.2528Q17.227916,6.21186,17.292905,6.17712Q17.357894,6.14238,17.425975,6.11418Q17.494056,6.08598,17.564573,6.06459Q17.63509,6.0432,17.707365,6.02882Q17.779639,6.01445,17.852974,6.00722Q17.9263097,6,18,6Q18.0736903,6,18.147026,6.00722Q18.220361,6.01445,18.292635,6.02882Q18.36491,6.0432,18.435427,6.06459Q18.505944,6.08598,18.574025,6.11418Q18.642106,6.14238,18.707095,6.17712Q18.772084,6.21186,18.833355,6.2528Q18.894627,6.29374,18.95159,6.3404799999999994Q19.00855,6.38723,19.06066,6.43934Q19.11277,6.49145,19.15952,6.54841Q19.20626,6.605373,19.2472,6.666645Q19.28814,6.7279160000000005,19.32288,6.792905Q19.35762,6.857894,19.38582,6.925975Q19.41402,6.9940560000000005,19.43541,7.064573Q19.4568,7.13509,19.47118,7.207365Q19.48555,7.279639,19.49278,7.352974Q19.5,7.4263097,19.5,7.5L19.5,13.5Q19.5,13.57369,19.49278,13.64703Q19.48555,13.72036,19.47118,13.792629999999999Q19.4568,13.86491,19.43541,13.93543Q19.41402,14.005939999999999,19.38582,14.07402Q19.35762,14.142109999999999,19.32288,14.20709Q19.28814,14.272079999999999,19.2472,14.33335Q19.20626,14.39463,19.15952,14.45159Q19.11277,14.50855,19.06066,14.56066Q19.00855,14.612770000000001,18.95159,14.65952Q18.894627,14.70626,18.833355,14.7472Q18.772084,14.78814,18.707095,14.82288Q18.642106,14.85762,18.574025,14.885819999999999Q18.505944,14.91402,18.435427,14.935410000000001Q18.36491,14.956800000000001,18.292635,14.97118Q18.220361,14.98555,18.147026,14.99278Q18.0736903,15,18,15Q17.9263097,15,17.852974,14.99278Q17.779639,14.98555,17.707365,14.97118Q17.63509,14.956800000000001,17.564573,14.935410000000001Q17.494056,14.91402,17.425975,14.885819999999999Q17.357894,14.85762,17.292905,14.82288Q17.227916,14.78814,17.166645,14.7472Q17.105373,14.70626,17.04841,14.65952Q16.99145,14.612770000000001,16.93934,14.56066Q16.88723,14.50855,16.84048,14.45159Q16.79374,14.39463,16.7528,14.33335Q16.71186,14.272079999999999,16.67712,14.20709Q16.64238,14.142109999999999,16.61418,14.07402Q16.58598,14.005939999999999,16.56459,13.93543Q16.5432,13.86491,16.52882,13.792629999999999Q16.51445,13.72036,16.50722,13.64703Q16.5,13.57369,16.5,13.5L16.5,7.5Z" fill-rule="evenodd" fill="#165DFF" fill-opacity="1"/></g><g><path d="M1.5,19.5Q1.5,19.4263097,1.50722,19.352974Q1.51445,19.279639,1.52882,19.207365Q1.5432,19.13509,1.56459,19.064573Q1.58598,18.994056,1.61418,18.925975Q1.64238,18.857894,1.67712,18.792905Q1.71186,18.727916,1.7528,18.666645Q1.79374,18.605373,1.84048,18.54841Q1.88723,18.49145,1.93934,18.43934Q1.99145,18.38723,2.04841,18.34048Q2.105373,18.29374,2.166645,18.2528Q2.227916,18.21186,2.292905,18.17712Q2.357894,18.14238,2.425975,18.11418Q2.494056,18.08598,2.564573,18.06459Q2.63509,18.0432,2.7073650000000002,18.02882Q2.779639,18.01445,2.852974,18.00722Q2.9263097,18,3,18Q3.0736903,18,3.147026,18.00722Q3.220361,18.01445,3.2926349999999998,18.02882Q3.36491,18.0432,3.435427,18.06459Q3.505944,18.08598,3.574025,18.11418Q3.642106,18.14238,3.707095,18.17712Q3.772084,18.21186,3.833355,18.2528Q3.894627,18.29374,3.95159,18.34048Q4.00855,18.38723,4.06066,18.43934Q4.11277,18.49145,4.1595200000000006,18.54841Q4.20626,18.605373,4.2472,18.666645Q4.28814,18.727916,4.32288,18.792905Q4.35762,18.857894,4.38582,18.925975Q4.41402,18.994056,4.43541,19.064573Q4.4568,19.13509,4.47118,19.207365Q4.48555,19.279639,4.49278,19.352974Q4.5,19.4263097,4.5,19.5L4.5,25.5Q4.5,25.57369,4.49278,25.64703Q4.48555,25.72036,4.47118,25.79263Q4.4568,25.864910000000002,4.43541,25.93543Q4.41402,26.00594,4.38582,26.07402Q4.35762,26.14211,4.32288,26.20709Q4.28814,26.27208,4.2472,26.33335Q4.20626,26.39463,4.1595200000000006,26.45159Q4.11277,26.50855,4.06066,26.56066Q4.00855,26.61277,3.95159,26.65952Q3.894627,26.70626,3.833355,26.7472Q3.772084,26.78814,3.707095,26.822879999999998Q3.642106,26.85762,3.574025,26.88582Q3.505944,26.91402,3.435427,26.93541Q3.36491,26.9568,3.2926349999999998,26.97118Q3.220361,26.98555,3.147026,26.99278Q3.0736903,27,3,27Q2.9263097,27,2.852974,26.99278Q2.779639,26.98555,2.7073650000000002,26.97118Q2.63509,26.9568,2.564573,26.93541Q2.494056,26.91402,2.425975,26.88582Q2.357894,26.85762,2.292905,26.822879999999998Q2.227916,26.78814,2.166645,26.7472Q2.105373,26.70626,2.04841,26.65952Q1.99145,26.61277,1.93934,26.56066Q1.88723,26.50855,1.84048,26.45159Q1.79374,26.39463,1.7528,26.33335Q1.71186,26.27208,1.67712,26.20709Q1.64238,26.14211,1.61418,26.07402Q1.58598,26.00594,1.56459,25.93543Q1.5432,25.864910000000002,1.52882,25.79263Q1.51445,25.72036,1.50722,25.64703Q1.5,25.57369,1.5,25.5L1.5,19.5Z" fill-rule="evenodd" fill="#165DFF" fill-opacity="1"/></g><g><path d="M31.5,19.5C31.5,18.67157,32.1716,18,33,18C33.8284,18,34.5,18.67157,34.5,19.5L34.5,25.5C34.5,26.328400000000002,33.8284,27,33,27C32.1716,27,31.5,26.328400000000002,31.5,25.5L31.5,19.5ZM6,19.5L6,25.5Q6,28.6066,8.19672,30.8035Q10.393419999999999,33.0002,13.5,33L22.5,33Q25.6066,33,27.8033,30.8035Q30,28.6068,30,25.5L30,19.5Q30,16.3934,27.8033,14.19653Q25.6066,11.999834061,22.5,12L13.5,12Q10.3934,12,8.19672,14.19653Q6.0000171661,16.39323,6,19.5ZM15,21.75L15,23.25C15,24.078400000000002,14.32843,24.75,13.5,24.75C12.67157,24.75,12,24.078400000000002,12,23.25L12,21.75C12,20.92157,12.67157,20.25,13.5,20.25C14.32843,20.25,15,20.92157,15,21.75ZM24,23.25L24,21.75C24,20.92157,23.3284,20.25,22.5,20.25C21.671599999999998,20.25,21,20.92157,21,21.75L21,23.25C21,24.078400000000002,21.671599999999998,24.75,22.5,24.75C23.3284,24.75,24,24.078400000000002,24,23.25Z" fill-rule="evenodd" fill="#165DFF" fill-opacity="1"/></g><g><ellipse cx="18" cy="6" rx="1.5" ry="1.5" fill-opacity="0" stroke-opacity="1" stroke="#165DFF" fill="none" stroke-width="3"/></g></g><g><rect x="20" y="20" width="16" height="16" rx="8" fill="#FFFFFF" fill-opacity="0"/><g><g><path d="M31.390810000000002,29.05403C31.33482,28.738,31.24699,28.42868,31.12952,28.13163C31.04938,27.91053,30.94069,27.70059,30.80565,27.50851C30.66952,27.32426,30.49716,27.16904,30.36432,26.98255C30.29405,26.88539,30.23477,26.77708,30.16121,26.68215C30.13157,26.61962,30.10303,26.55708,30.07448,26.49455C29.98665,26.299129999999998,29.90651,26.09924,29.80222,25.91386C29.78575,25.88483,29.76818,25.8558,29.75171,25.82788C29.73854,25.64921,29.71988,25.47053,29.70999,25.29186C29.71768,24.9334,29.68804,24.57382,29.62107,24.22094C29.57496,24.05232,29.5047,23.8904,29.412480000000002,23.742995C29.30489,23.568789,29.16656,23.416918,29.004080000000002,23.295197C28.73949,23.104241,28.42331,23.00150477,28.09944,23.000388065C27.86121,22.99480455,27.62517,23.049523,27.41329,23.161193C27.19042,23.285147,27.01038,23.476103,26.8973,23.70726C26.7919,23.940651,26.73591,24.19303,26.73262,24.44987C26.72642,24.62809,26.73609,24.8052,26.74579,24.98277C26.74983,25.05665,26.75387,25.13061,26.75677,25.20476C26.76665,25.466070000000002,26.76116,25.72849,26.78202,25.9898C26.78861,26.07355,26.79849,26.1573,26.79849,26.24217C26.79849,26.28461,26.79629,26.32704,26.7952,26.36836L26.7919,26.377299999999998C26.67992,26.57048,26.55586,26.75697,26.42083,26.93453C26.32641,27.05625,26.232,27.17685,26.13648,27.29634C26.012430000000002,27.43816,25.90703,27.59562,25.8236,27.76536C25.76761,27.91276,25.72259,28.06463,25.68746,28.21874L25.68417,28.23102Q25.60512,28.49735,25.48656,28.746940000000002C25.47887,28.76257,25.47119,28.77932,25.4646,28.79384C25.41739,28.89323,25.36799,28.99261,25.31639,29.08977L25.2571,29.20255C25.21978,29.27067,25.18684,29.34102,25.1583,29.41249C25.14183,29.45604,25.12866,29.500709999999998,25.12097,29.5465C25.1067,29.64365,25.11329,29.74192,25.13854,29.835720000000002C25.14402,29.85917,25.15171,29.88262,25.15939,29.90607C25.16766,29.92977,25.17644,29.95333,25.18578,29.97667C25.16268,30.00969,25.14208,30.04401,25.12318,30.08006C25.09683,30.13031,25.06829,30.17833,25.03645,30.22523C25.00461,30.27213,24.962892,30.31234,24.915684,30.34137C24.864085,30.36929,24.805899,30.38604,24.747713,30.38939C24.689527,30.39274,24.630243,30.39274,24.572056,30.38939C24.51387,30.38604,24.455684,30.39051,24.397498,30.40056C24.271245,30.419539999999998,24.173536,30.521160000000002,24.157068,30.64846C24.150165,30.68849,24.146734,30.72895,24.146776,30.76958C24.146751,30.79405,24.147986,30.81858,24.150481,30.84312C24.158166,30.98829,24.183416,31.131230000000002,24.190004,31.275280000000002C24.192342,31.30317,24.193528,31.33115,24.193569,31.35912C24.193576,31.47512,24.1739,31.591,24.135111,31.700400000000002C24.103273,31.78303,24.0549676,31.85785,24.0253256,31.9416C24.00995562,31.98181,24.00117279,32.02536,24.0000749413,32.07002L24,32.07704C23.9999050279,32.11985,24.0108647,32.162440000000004,24.0319127,32.19991C24.0615547,32.24793,24.106567,32.2859,24.158166,32.30823C24.210863,32.33056,24.264657,32.34731,24.31955,32.36072C24.44251,32.394220000000004,24.561078,32.43888,24.68294,32.47574C25.07817,32.59634,25.49425,32.64547,25.8774,32.8007C26.05745,32.89562,26.25287,32.95815,26.45487,32.98607C26.58332,32.98942,26.70958,32.95592,26.81936,32.88892C26.92805,32.82191,27.01698,32.72476,27.07626,32.60862C27.09544,32.56987,27.11122,32.52978,27.12354,32.48881C27.14287,32.484700000000004,27.16223,32.48067,27.18164,32.47672C27.32985,32.442099999999996,27.48026,32.42089,27.63176,32.41419C27.66909,32.4153,27.706409999999998,32.41307,27.74264,32.41084C27.84584,32.422,27.94904,32.42647,28.05334,32.422L28.09176,32.41977C28.11811,32.42312,28.14556,32.42424,28.173000000000002,32.42647C28.355249999999998,32.43652,28.53639,32.4555,28.71644,32.48342C28.87453,32.50799,29.03262,32.53926,29.18852,32.57834C29.26832,32.6028,29.34885,32.62456,29.430030000000002,32.64349C29.43895,32.66615,29.44921,32.68838,29.4608,32.71006C29.525570000000002,32.80609,29.61779,32.87868,29.72428,32.92C29.87249,32.98811,30.03607,33.0138,30.19746,32.992580000000004C30.3292,32.971360000000004,30.45326,32.916650000000004,30.560850000000002,32.836240000000004C30.66404,32.75249,30.76175,32.66315,30.85287,32.566C30.96376,32.456559999999996,31.08342,32.35829,31.21187,32.271190000000004C31.409489999999998,32.1517,31.61259,32.04227,31.82118,31.944000000000003C31.94414,31.88816,32.05612,31.807760000000002,32.14834,31.707259999999998C32.18786,31.65924,32.2197,31.60564,32.241659999999996,31.54757L32.24385,31.543100000000003C32.24818,31.52512,32.25014,31.5069,32.24988,31.48879C32.24939,31.45174,32.23961,31.41517,32.2219,31.38214C32.20104,31.3464,32.173590000000004,31.31513,32.14065,31.290570000000002C32.10882,31.264879999999998,32.074780000000004,31.24367,32.04075,31.22021C31.96939,31.17108,31.90132,31.11748,31.83655,31.05941C31.76848,31.00581,31.7059,30.94551,31.64772,30.88074C31.59063,30.81374,31.55001,30.73333,31.53135,30.64735C31.52476,30.59374,31.52037,30.54014,31.518169999999998,30.486539999999998C31.51378,30.42624,31.50061,30.36705,31.47975,30.3101C31.46548,30.27213,31.44352,30.23752,31.41607,30.20737C31.37765,30.17052,31.33044,30.14483,31.27994,30.13031C31.27694,30.12934,31.27392,30.1284,31.2709,30.12748C31.33961,30.01336,31.38672,29.88675,31.40947,29.7542C31.4446,29.52193,31.43911,29.28407,31.393,29.05403L31.390810000000002,29.05403Z" fill-rule="evenodd" fill="#F5BD0C" fill-opacity="1"/><path d="M29.913809999999998,29.31571Q29.85624,28.99076,29.73463,28.68327L29.72667,28.66314L29.7193,28.642789999999998Q29.66588,28.49541,29.57856,28.37122L30.80565,27.50851L29.59922,28.39987Q29.57727,28.37017,29.47889,28.261Q29.26161,28.01991,29.14258,27.852809999999998Q29.09301,27.78434,29.0123,27.65835Q28.984740000000002,27.61534,28.97516,27.6011L28.97555,27.60095L28.87563,27.47202L28.80577,27.32463Q28.77151,27.25235,28.70995,27.11749L28.70992,27.11741Q28.68217,27.05574,28.637909999999998,26.95459Q28.53737,26.72482,28.49492,26.64938Q28.49317,26.64631,28.47646,26.61819Q28.4657,26.60008,28.45974,26.58998L28.28156,26.28792L28.25577,25.93817Q28.251350000000002,25.87822,28.24035,25.74955Q28.21961,25.50716,28.21228,25.37469L28.20911,25.317239999999998L28.210340000000002,25.25971Q28.21857,24.87579,28.14737,24.50062L29.62107,24.22094L28.17419,24.61659Q28.16218,24.57268,28.14084,24.53856Q28.12259,24.50907,28.10474,24.4957Q28.1109,24.50044,28.09427,24.50038Q28.08916,24.50056,28.112650000000002,24.48818L27.41329,23.161193L28.14238,24.47208Q28.21194,24.43339,28.24471,24.3664L26.8973,23.70726L28.26437,24.3246Q28.23347,24.39303,28.23249,24.4691Q28.22784,24.61323,28.243560000000002,24.90095L28.243560000000002,24.90095L28.243560000000002,24.90097Q28.25227,25.06035,28.25562,25.14608Q28.25996,25.26063,28.26333,25.46985Q28.26789,25.75296,28.27727,25.87044Q28.27847,25.88572,28.2815,25.92006Q28.29849,26.11219,28.29849,26.24217Q28.29849,26.29697,28.29559,26.38005Q28.29486,26.40103,28.29467,26.4082L28.2881,26.6553L28.15454,27.01757L28.08965,27.12953Q27.87368,27.502119999999998,27.61477,27.84255Q27.43977,28.06827,27.30816,28.23292L27.28739,28.2589L27.26549,28.28394Q27.20755,28.35017,27.16975,28.42707L25.8236,27.76536L27.22585,28.29799Q27.18091,28.41628,27.14994,28.55214L27.14363,28.579819999999998L27.12783,28.63874L27.12217,28.657809999999998Q27.009990000000002,29.035800000000002,26.84144,29.39059L26.83055,29.41365Q26.72928,29.6274,26.64114,29.79335L26.58486,29.90046Q26.56116,29.94418,26.5513,29.96886Q26.58662,29.876179999999998,26.60028,29.794800000000002Q26.62895,29.60176,26.58698,29.44582L26.59341,29.46973L26.59905,29.49384Q26.58971,29.45391,26.58481,29.43895Q26.57726,29.41651,26.57845,29.41949L26.87966,30.17234L26.41475,30.83669Q26.43625,30.805970000000002,26.45164,30.77662Q26.37199,30.928530000000002,26.27752,31.067700000000002Q26.04783,31.40606,25.7015,31.619059999999998L25.66607,31.64085L25.62949,31.66064Q25.25624,31.86259,24.833939,31.88691Q24.659885,31.896929999999998,24.485843,31.88691Q24.575282,31.89206,24.65281,31.87867Q25.52739,31.74752,25.64467,30.8409L25.64062,30.87225L25.63524,30.90341Q25.64685,30.83614,25.64678,30.76804Q25.646819999999998,30.73101,25.64278,30.69135L25.64646,30.72752L25.64838,30.76382Q25.64977,30.79004,25.66058,30.885939999999998Q25.68278,31.08298,25.68844,31.20676L24.190004,31.275280000000002L25.68476,31.14997Q25.69341,31.2532,25.69357,31.3569Q25.6936,31.793509999999998,25.54887,32.20167L25.5421,32.22077L25.53482,32.239670000000004Q25.49386,32.34599,25.42436,32.48475Q25.41379,32.50587,25.41373,32.506Q25.4266,32.47818,25.43938,32.44207L25.43312,32.45976L25.42641,32.47728Q25.49492,32.2981,25.49962,32.106880000000004L25.49991,32.09306Q25.50073,31.751910000000002,25.33968,31.46524L24.0319127,32.19991L25.3083,31.41198Q25.10577,31.0839,24.753989,30.93164Q24.704619,30.91067,24.675305,30.90351L24.694649,30.90824L24.713861,30.91347Q24.825872,30.94399,25.00631,31.00401Q25.08647,31.03068,25.11713,31.039949999999997Q25.22757,31.07365,25.49871,31.13539Q26.09916,31.27212,26.44062,31.41045L26.51036,31.4387L26.57693,31.4738Q26.61519,31.493969999999997,26.66023,31.50019L26.45487,32.98607L26.49399,31.48658Q26.24827,31.48017,26.03795,31.608530000000002Q25.84053,31.73021,25.74026,31.92664Q25.7047,31.99824,25.68704,32.05699L25.94401,31.20213L26.87605,31.00818L27.18164,32.47672L26.84047,31.01604Q27.2013,30.93176,27.56548,30.91565L27.62105,30.91319L27.67664,30.91486Q27.6509,30.91409,27.631149999999998,30.914830000000002Q27.63243,30.91478,27.65034,30.91368L27.77743,30.90584L27.90401,30.919539999999998Q27.95355,30.9249,27.98915,30.92338L28.14329,30.91425L28.28094,30.93175Q28.25519,30.92847,28.24812,30.92799Q28.27578,30.92988,28.29461,30.93141L28.173000000000002,32.42647L28.2556,30.92875Q28.60296,30.9479,28.94627,31.00113Q29.26053,31.049970000000002,29.5533,31.12337L29.590980000000002,31.132820000000002L29.62812,31.14421Q29.69952,31.16609,29.77064,31.18267L30.53724,31.361420000000003L30.82569,32.09383Q30.80735,32.04726,30.7838,32.00318L29.4608,32.71006L30.70437,31.871299999999998Q30.53996,31.62753,30.26687,31.52157L30.30932,31.538040000000002L30.35069,31.55706Q30.18569,31.48122,30.00193,31.505380000000002L30.19746,32.992580000000004L29.95894,31.511670000000002Q29.79144,31.53864,29.66292,31.63469L30.560850000000002,32.836240000000004L29.61562,31.67153Q29.697969999999998,31.6047,29.75879,31.53985L29.7786,31.518729999999998L29.7992,31.4984Q30.06347,31.23758,30.37002,31.02971L30.40233,31.0078L30.43574,30.9876Q30.80286,30.76561,31.1819,30.587040000000002Q31.11109,30.61904,31.04311,30.69313L32.14834,31.707259999999998L30.99019,30.75401Q30.89378,30.87114,30.83861,31.017049999999998L30.863889999999998,30.95018L30.89762,30.88155L32.24385,31.543100000000003L30.78553,31.19198Q30.74775,31.34888,30.75004,31.51006Q30.75419,31.81915,30.89994,32.09097L32.2219,31.38214L30.92646,32.13835Q31.04834,32.34713,31.24381,32.49293L31.221,32.47591L31.19885,32.45804Q31.226950000000002,32.48071,31.23271,32.48458Q31.20654,32.46702,31.18968,32.4554Q31.00395,32.32752,30.83529,32.17631L31.83655,31.05941L30.90852,32.23787Q30.71024,32.081720000000004,30.531869999999998,31.88318L30.518720000000002,31.86854L30.50596,31.85356Q30.17355,31.463430000000002,30.06548,30.965519999999998L30.050919999999998,30.89844L30.04255,30.83032Q30.02522,30.68936,30.01943,30.54795L31.518169999999998,30.486539999999998L30.02213,30.59546Q30.03089,30.71581,30.07125,30.826Q30.15588,31.05128,30.306820000000002,31.217100000000002L31.41607,30.20737L30.37783,31.28998Q30.58892,31.49242,30.86553,31.571930000000002L30.84821,31.56695L29.00195,30.98784L29.98585,29.353740000000002Q29.94448,29.42246,29.93109,29.50043Q29.94019,29.438299999999998,29.92226,29.34883L31.393,29.05403L31.393,30.55403L30.133200000000002,30.55403L29.913809999999998,29.31571ZM32.86781,28.79235L31.390810000000002,29.05403L31.390810000000002,27.55403L32.62217,27.55403L32.863749999999996,28.75923Q32.9853,29.36564,32.88785,30.00797Q32.80574,30.48634,32.55594,30.90121L31.2709,30.12748L31.71983,28.69623L31.72887,28.69907L31.27994,30.13031L31.69434,28.68869Q32.13029,28.81401,32.45431,29.12475L32.49106,29.15999L32.52533,29.19763Q32.76163,29.45723,32.888239999999996,29.79421Q32.99245,30.07872,33.01421,30.37762L33.01594,30.40136L33.016909999999996,30.42514Q33.01771,30.44457,33.02014,30.46438L31.53135,30.64735L32.99721,30.32918Q32.94553,30.091070000000002,32.78948,29.90791L31.64772,30.88074L32.76357,29.8783L32.76458,29.88095L32.80218,29.91056L32.83781,29.94251Q32.863479999999996,29.965519999999998,32.891819999999996,29.985030000000002Q32.89355,29.98622,32.90447,29.99355Q33.008070000000004,30.06308,33.08246,30.12309L32.14065,31.290570000000002L33.03749,30.0882Q33.33141,30.30743,33.51733,30.62593L33.53101,30.64937L33.54385,30.6733Q33.74407,31.046709999999997,33.74973,31.46753Q33.7528,31.683970000000002,33.70218,31.89422L33.663309999999996,32.05564L33.58789,32.20913L32.241659999999996,31.54757L33.64471,32.07809Q33.52475,32.39533,33.30649,32.66051L33.28085,32.69166L33.253569999999996,32.72139Q32.90819,33.0978,32.46046,33.301Q32.22207,33.4133,31.988,33.5548L31.21187,32.271190000000004L32.05373,33.5127Q31.97494,33.5661,31.90654,33.6336L30.85287,32.566L31.94695,33.5922Q31.746679999999998,33.8057,31.50607,34.0009L31.48279,34.019800000000004L31.45877,34.037800000000004Q30.99656,34.3832,30.43597,34.4735L30.41452,34.477000000000004L30.39298,34.4798Q29.71897,34.5684,29.09787,34.2829L29.72428,32.92L29.18169,34.3184Q28.57843,34.0844,28.21722,33.5488L28.174120000000002,33.484899999999996L28.1378,33.4169Q28.07959,33.308,28.03436,33.1931L29.430030000000002,32.64349L29.08941,34.1043Q28.91839,34.0644,28.748910000000002,34.0125L29.18852,32.57834L28.82373,34.0333Q28.66415,33.9933,28.48661,33.9657Q28.28978,33.9352,28.0904,33.9242L28.07088,33.9231L28.051389999999998,33.9215L28.04429,33.921099999999996Q27.96384,33.9156,27.90258,33.9078L28.09176,32.41977L28.17877,33.9172L28.11752,33.9206Q27.855809999999998,33.9318,27.58128,33.902100000000004L27.74264,32.41084L27.83494,33.908Q27.69359,33.9167,27.58688,33.9135L27.63176,32.41419L27.69804,33.9127Q27.61227,33.9165,27.52281,33.9374L27.50507,33.9416L27.42913,33.9574L27.12354,32.48881L28.56003,32.92063Q28.50519,33.1031,28.41226,33.2906Q28.13036,33.8428,27.60077,34.1693Q27.05524,34.5022,26.41576,34.4856L26.33226,34.4834L26.24952,34.4719Q25.68238,34.3936,25.177880000000002,34.1276L25.8774,32.8007L25.31419,34.1909Q25.19707,34.1435,24.832632,34.0605Q24.45574,33.9747,24.248747,33.911500000000004Q24.178608,33.890299999999996,24.059346,33.8506Q23.957417,33.8167,23.9252388,33.808L24.31955,32.36072L23.9637956,33.8179Q23.757363,33.7675,23.562343,33.684799999999996Q23.04848,33.4624,22.75553,32.98784L22.73929,32.96154L22.72415,32.93459Q22.49898,32.53378,22.50009,32.061009999999996L22.50053,32.03317Q22.5085,31.70863,22.62424,31.405929999999998L24.0253256,31.9416L22.61128,31.44114Q22.65813,31.30875,22.74194,31.14141Q22.75234,31.12063,22.75343,31.11831Q22.744979999999998,31.13625,22.7354,31.16112L24.135111,31.700400000000002L22.72135,31.19912Q22.69356,31.27748,22.69357,31.36134Q22.6936,31.380940000000002,22.69525,31.40059L22.69287,31.372230000000002L22.69157,31.3438Q22.69047,31.31971,22.67944,31.22184Q22.65867,31.037509999999997,22.65258,30.92241L24.150481,30.84312L22.65818,30.994889999999998Q22.64666,30.88163,22.64678,30.77112Q22.64658,30.580849999999998,22.67889,30.39351L24.157068,30.64846L22.66946,30.45603Q22.74563,29.86724,23.158035,29.44094Q23.577902,29.00693,24.142185,28.92244Q24.40397,28.87723,24.65827,28.89187Q24.659885,28.89196,24.661487,28.89187Q24.416497,28.90597,24.201877,29.022100000000002L24.915684,30.34137L24.12987,29.063679999999998Q23.9274937,29.18815,23.79538,29.38277L23.794717,29.38351Q23.868371,29.24303,23.9568088,29.11666L25.18578,29.97667L23.793105,30.53386Q23.766874,30.4683,23.733983,30.37319Q23.698343,30.26444,23.678017,30.17761L25.13854,29.835720000000002L23.690096,30.22562Q23.570417,29.78103,23.641665,29.298189999999998Q23.676627,29.0899,23.765294,28.85613Q23.842717,28.66228,23.9293523,28.504640000000002L23.99163603,28.38618Q24.0482628,28.27956,24.098641,28.174030000000002Q24.121408,28.12386,24.131672000000002,28.103279999999998Q24.20026,27.95891,24.246165,27.80423L25.68417,28.23102L24.235355,27.84251L24.238649,27.83023L25.68746,28.21874L24.224983,27.88534Q24.302327,27.54606,24.421347,27.23272L24.446363,27.16686L24.477442,27.10364Q24.689487,26.67227,25.00748,26.30874L26.13648,27.29634L24.964811,26.35976Q25.08274,26.212229999999998,25.22689,26.026510000000002Q25.37225,25.83537,25.49416,25.62506L26.7919,26.377299999999998L25.3845,25.85844L25.38779,25.8495L26.7952,26.36836L25.29573,26.32852Q25.29625,26.30883,25.29742,26.27539Q25.29849,26.24463,25.29849,26.24217L25.29827,26.24585Q25.29727,26.23078,25.29316,26.184260000000002Q25.28884,26.13543,25.28678,26.10916Q25.26981,25.896630000000002,25.26372,25.51817Q25.26087,25.34149,25.25792,25.26344Q25.25547,25.20086,25.24803,25.064610000000002L25.24803,25.06459L25.24802,25.06459Q25.22499,24.64294,25.23274,24.43063Q25.24174,23.72875,25.53022,23.0899236L25.53973,23.0688708L25.54988,23.0481207Q25.93087,22.269296,26.68419,21.85031L26.69897,21.84209L26.71392,21.83421Q27.38009,21.48312,28.10462,21.5004Q29.08506,21.50378,29.90341,22.094697Q30.37629,22.448944,30.68412,22.9474265Q30.93954,23.355689,31.06795,23.825299L31.083660000000002,23.882749L31.09476,23.941265Q31.22463,24.62554,31.20965,25.32402L29.70999,25.29186L31.20771,25.20903Q31.21254,25.29644,31.22943,25.49383Q31.24194,25.64008,31.24765,25.717579999999998L29.75171,25.82788L31.043689999999998,25.06578Q31.047060000000002,25.07148,31.055410000000002,25.08555Q31.08766,25.13981,31.10951,25.17834Q31.22557,25.38463,31.3863,25.75195Q31.42462,25.83953,31.43905,25.87169L31.43908,25.871760000000002Q31.49165,25.98692,31.51666,26.03968L30.16121,26.68215L31.34688,25.76335Q31.42903,25.86937,31.53836,26.04002Q31.57346,26.0948,31.58605,26.11228Q31.60528,26.13928,31.70739,26.252580000000002Q31.90345,26.47012,32.01209,26.61716L32.02258,26.63136L32.032740000000004,26.64581Q32.350049999999996,27.09715,32.53974,27.62048L31.12952,28.13163L32.5244,27.58Q32.757400000000004,28.169159999999998,32.86781,28.79235Z" fill="#FFFFFF" fill-opacity="1"/></g></g><g><g><path d="M28.261945737182618,24.49558351749878C28.167530737182616,24.558119217498778,28.095072537182617,24.64968821749878,28.054451937182616,24.75689221749878C28.012733537182616,24.89536321749878,28.01932066718262,25.042767217498778,28.070919737182617,25.17788821749878C28.113736037182615,25.31970921749878,28.199368737182617,25.44366621749878,28.314642737182616,25.53299621749878C28.373926737182618,25.57543621749878,28.441993737182617,25.602236217498778,28.514452737182616,25.61116621749878C28.586910737182617,25.62010621749878,28.659368737182618,25.60781621749878,28.724142737182618,25.57431621749878C28.800991737182617,25.53076621749878,28.862471737182616,25.46264621749878,28.89870073718262,25.38112821749878C28.93383173718262,25.29849221749878,28.95359373718262,25.21027321749878,28.955789737182617,25.12093621749878C28.96347473718262,25.00703321749878,28.949201737182616,24.893129217498778,28.914070737182616,24.78480921749878C28.875645737182616,24.66643921749878,28.800991737182617,24.56481921749878,28.699989737182616,24.49558351749878C28.648390737182616,24.46208251749878,28.59130173718262,24.43974841749878,28.530919737182618,24.43081484749878C28.47053873718262,24.42188122749878,28.40905873718262,24.42858144749878,28.351969737182618,24.45091551749878C28.320132737182618,24.46431591749878,28.289392737182617,24.48106641749878,28.260848737182616,24.50116711749878" fill="#FFFFFF" fill-opacity="1"/></g><g><path d="M31.390820332527163,29.05403C31.33483033252716,28.738,31.24700033252716,28.42868,31.12953033252716,28.13163C31.04939033252716,27.91053,30.94070033252716,27.70059,30.80567033252716,27.50851C30.66953033252716,27.32426,30.497170332527162,27.16904,30.36433033252716,26.98255C30.294070332527163,26.88539,30.23478033252716,26.77708,30.16123033252716,26.68215C30.13159033252716,26.61962,30.10304033252716,26.55708,30.074500332527162,26.49455C29.98667033252716,26.299129999999998,29.90653033252716,26.09924,29.80223033252716,25.91386C29.78576033252716,25.88483,29.76820033252716,25.8558,29.75173033252716,25.82788C29.73855033252716,25.64921,29.71989033252716,25.47053,29.710010332527162,25.29186C29.71770033252716,24.9334,29.688050332527162,24.57382,29.62108033252716,24.22094C29.574970332527162,24.05232,29.50471033252716,23.8904,29.41249033252716,23.742995C29.30490033252716,23.568789,29.16657033252716,23.416918,29.00409033252716,23.295197C28.73951033252716,23.104241,28.42333033252716,23.00150477,28.099460332527162,23.000388065C27.86123033252716,22.99480455,27.62519033252716,23.049523,27.41330033252716,23.161193C27.19044033252716,23.285147,27.01039033252716,23.476103,26.897310332527162,23.70726C26.791920332527162,23.940651,26.73593033252716,24.19303,26.73263033252716,24.44987C26.72385033252716,24.70224,26.74690033252716,24.95238,26.75678033252716,25.20476C26.76667033252716,25.466070000000002,26.76118033252716,25.72849,26.78204033252716,25.9898C26.78862033252716,26.07355,26.798500332527162,26.1573,26.798500332527162,26.24217C26.798500332527162,26.28461,26.79631033252716,26.32704,26.795210332527162,26.36836L26.791920332527162,26.377299999999998C26.67994033252716,26.57048,26.55588033252716,26.75697,26.42084033252716,26.93453C26.32643033252716,27.05625,26.23201033252716,27.17685,26.13650033252716,27.29634C26.01244133252716,27.43816,25.90704733252716,27.59562,25.82361033252716,27.76536C25.767620332527162,27.91276,25.72260833252716,28.06463,25.68747633252716,28.21874L25.684183332527162,28.23102C25.63148633252716,28.40858,25.56561533252716,28.58055,25.48656933252716,28.746940000000002C25.478884332527162,28.76257,25.47119933252716,28.77932,25.46461233252716,28.79384C25.41740433252716,28.89323,25.36800133252716,28.99261,25.31640233252716,29.08977L25.25711833252716,29.20255C25.219791332527162,29.27067,25.18685563252716,29.34102,25.15831153252716,29.41249C25.14184373252716,29.45604,25.12866943252716,29.500709999999998,25.12098448252716,29.5465C25.10671239252716,29.64365,25.11329951452716,29.74192,25.13855013252716,29.835720000000002C25.144039432527162,29.85917,25.15172433252716,29.88262,25.15940933252716,29.90607C25.18356213252716,29.97531,25.21210633252716,30.04343,25.24613933252716,30.1082C25.26150933252716,30.13835,25.27797733252716,30.16738,25.293347332527162,30.19753L25.30761933252716,30.21875C25.32298933252716,30.24667,25.33945733252716,30.27459,25.35592533252716,30.301389999999998L25.35812033252716,30.30474C25.376784332527162,30.336,25.39764333252716,30.36615,25.41740433252716,30.39631L25.42069833252716,30.40077C25.44155733252716,30.42981,25.462416332527162,30.45996,25.48437333252716,30.48899C25.56561533252716,30.81172,25.71492333252716,31.11211,25.92022133252716,31.37119C25.888383332527162,31.42814,25.859839332527162,31.48397,25.828001332527162,31.53981C25.71602033252716,31.705080000000002,25.62380133252716,31.882640000000002,25.552440332527162,32.06913C25.52279833252716,32.16516,25.51511333252716,32.26678,25.53158133252716,32.36617C25.54695133252716,32.46667,25.597452332527162,32.55712,25.674302332527162,32.62301C25.72590133252716,32.66321,25.78518533252716,32.69113,25.847763332527162,32.70453C25.91034133252716,32.71793,25.97511433252716,32.72463,26.03988733252716,32.72128C26.28361033252716,32.7023,26.52514033252716,32.65316,26.75788033252716,32.57723C26.89841033252716,32.53926,27.038930332527162,32.50576,27.181650332527163,32.47672C27.32986033252716,32.442099999999996,27.480270332527162,32.42089,27.63177033252716,32.41419C27.66910033252716,32.4153,27.706430332527162,32.41307,27.742660332527162,32.41084C27.84586033252716,32.422,27.94905033252716,32.42647,28.05335033252716,32.422L28.09177033252716,32.41977C28.118120332527162,32.42312,28.14557033252716,32.42424,28.17302033252716,32.42647C28.35526033252716,32.43652,28.53641033252716,32.4555,28.71645033252716,32.48342C28.87454033252716,32.50799,29.032630332527162,32.53926,29.18853033252716,32.57834C29.42896033252716,32.65204,29.67598033252716,32.70118,29.92738033252716,32.7224C29.99326033252716,32.72575,30.05913033252716,32.72016,30.12500033252716,32.70676C30.18977033252716,32.69336,30.25125033252716,32.66433,30.30395033252716,32.62413C30.38080033252716,32.55936,30.43130033252716,32.4689,30.44777033252716,32.3684C30.46424033252716,32.26902,30.45655033252716,32.1674,30.42691033252716,32.07136C30.35445033252716,31.88487,30.26113033252716,31.70731,30.14696033252716,31.54316C30.10743033252716,31.47504,30.07011033252716,31.404690000000002,30.030580332527162,31.336570000000002C30.20075033252716,31.14338,30.35116033252716,30.93121,30.47741033252716,30.70563C30.55426033252716,30.7101,30.63001033252716,30.70117,30.70357033252716,30.6766C30.89569033252716,30.61071,31.062560332527163,30.48341,31.178940332527162,30.313670000000002C31.21407033252716,30.26342,31.24151033252716,30.20758,31.25798033252716,30.1484C31.33373033252716,30.02891,31.38533033252716,29.89491,31.40949033252716,29.7542C31.444620332527162,29.52193,31.43913033252716,29.28407,31.39302033252716,29.05403L31.390820332527163,29.05403Z" fill="#020204" fill-opacity="1"/></g><g><path d="M27.1684725289917,25.890479654998778C27.1344425289917,25.935149654998778,27.1102925289917,25.98763965499878,27.0982125289917,26.04235965499878C27.086132528991698,26.09706965499878,27.0784525289917,26.15402965499878,27.0773525289917,26.20985965499878C27.0806425289917,26.32264965499878,27.071862528991698,26.43543965499878,27.049902528991698,26.545989654998777C27.0114825289917,26.66100965499878,26.9532925289917,26.76709965499878,26.8786415289917,26.86201965499878C26.7501925289917,27.026169654998778,26.6491895289917,27.21042965499878,26.580025528991698,27.40696965499878C26.5448935289917,27.52868965499878,26.5328175289917,27.65598965499878,26.5459915289917,27.78328965499878C26.413151528991698,27.98317965499878,26.2978765289917,28.19535965499878,26.2023635289917,28.41645965499878C26.0552515289917,28.75035965499878,25.960836128991698,29.10658965499878,25.9224113289917,29.47062965499878C25.8752036289917,29.91842965499878,25.939976928991697,30.370689654998777,26.109046528991698,30.78610965499878C26.2331035289917,31.08537965499878,26.4219345289917,31.35338965499878,26.6612665289917,31.56890965499878C26.784225528991698,31.67722965499878,26.9192625289917,31.76879965499878,27.0641825289917,31.84138965499878C27.5768725289917,32.09599965499878,28.1774025289917,32.09040965499878,28.6846125289917,31.82575965499878C28.9382125289917,31.67499965499878,29.1698625289917,31.48850965499878,29.3718625289917,31.27298965499878C29.502512528991698,31.15237965499878,29.618882528991698,31.017259654998778,29.720982528991698,30.86985965499878C29.8911525289917,30.56946965499878,29.9910525289917,30.23221965499878,30.0119125289917,29.88603965499878C30.1173025289917,29.28748965499878,30.052532528991698,28.671069654998778,29.826372528991698,28.10824965499878C29.7374525289917,27.92064965499878,29.6199825289917,27.748679654998778,29.477262528991698,27.59903965499878C29.4388325289917,27.33656965499878,29.3641725289917,27.08091965499878,29.2554925289917,26.83967965499878C29.1764425289917,26.66658965499878,29.0809325289917,26.50131965499878,29.007382528991698,26.323759654998778C28.977732528991698,26.25117965499878,28.9513925289917,26.17747965499878,28.9184525289917,26.10711965499878C28.886612528991698,26.035659654998778,28.8427025289917,25.969769654998778,28.7889025289917,25.913939654998778C28.7307225289917,25.85921965499878,28.6615525289917,25.81789965499878,28.5858025289917,25.79444965499878C28.5100525289917,25.76987965499878,28.4321025289917,25.756479654998778,28.3530625289917,25.75424965499878C28.1949625289917,25.746429654998778,28.0357825289917,25.76652965499878,27.8798825289917,25.76094965499878C27.753632528991698,25.75535965499878,27.629572528991698,25.73302965499878,27.5033225289917,25.74084965499878C27.4407425289917,25.74419965499878,27.378162528991698,25.756479654998778,27.319982528991698,25.779929654998778C27.2606925289917,25.80337965499878,27.2090925289917,25.84134965499878,27.1684725289917,25.891599654998778M27.2189725289917,24.49460695499878C27.159692528991698,24.49907385499878,27.1037025289917,24.52475795499878,27.060882528991698,24.56607565499878C27.0180725289917,24.60739365499878,26.9862325289917,24.659878654998778,26.9686625289917,24.71683065499878C26.9390225289917,24.83296765499878,26.9313425289917,24.95468865499878,26.947802528991698,25.07417565499878C26.9500025289917,25.182495654998778,26.9686625289917,25.29081565499878,27.0037925289917,25.39355165499878C27.0235625289917,25.44379965499878,27.0521025289917,25.490709654998778,27.0894325289917,25.52978965499878C27.126752528991698,25.568869654998778,27.173962528991698,25.59790965499878,27.2255625289917,25.61130965499878C27.2749625289917,25.623589654998778,27.326562528991698,25.62135965499878,27.3737725289917,25.60572965499878C27.4209825289917,25.590089654998778,27.464892528991697,25.56328965499878,27.5000225289917,25.52755965499878C27.5516225289917,25.47395965499878,27.588952528991697,25.40806865499878,27.607612528991698,25.33660065499878C27.6262825289917,25.26513165499878,27.6350625289917,25.190312654998777,27.632862528991698,25.11549365499878C27.632862528991698,25.022806654998778,27.618592528991698,24.93012065499878,27.5911525289917,24.840784654998778C27.563702528991698,24.75144865499878,27.516492528991698,24.66992965499878,27.4528225289917,24.60181065499878C27.422082528991698,24.569425654998778,27.3869425289917,24.54150865499878,27.3474225289917,24.52140785499878C27.3068025289917,24.50242395499878,27.2628925289917,24.492373554998778,27.2189725289917,24.49460695499878ZM28.2619325289917,24.49460695499878C28.1675225289917,24.557142654998778,28.0950625289917,24.64871165499878,28.0544425289917,24.75591565499878C28.0127225289917,24.89438665499878,28.019312528991698,25.041790654998778,28.0709125289917,25.17691165499878C28.1137225289917,25.31873265499878,28.1993625289917,25.44268965499878,28.314632528991698,25.53201965499878C28.3739125289917,25.57445965499878,28.441982528991698,25.601259654998778,28.5144425289917,25.61018965499878C28.5869025289917,25.61912965499878,28.6593625289917,25.60683965499878,28.7241325289917,25.57333965499878C28.8009825289917,25.52978965499878,28.8624625289917,25.46166965499878,28.8986925289917,25.38015165499878C28.933822528991698,25.29751565499878,28.9535825289917,25.20929665499878,28.955782528991698,25.11995965499878C28.9634625289917,25.00605665499878,28.9491925289917,24.892152654998778,28.9140625289917,24.78383265499878C28.875632528991698,24.66546265499878,28.8009825289917,24.56384265499878,28.6999825289917,24.49460695499878C28.6483825289917,24.46110595499878,28.591292528991698,24.43877185499878,28.5309125289917,24.42983828499878C28.4705325289917,24.42090466499878,28.4090525289917,24.42760488499878,28.3519625289917,24.44993895499878C28.3201225289917,24.46333935499878,28.2893825289917,24.48008985499878,28.2608425289917,24.50019045499878" fill="#FFFFFF" fill-opacity="1"/></g><g><path d="M28.473829143615724,24.778257966717224C28.438697143615723,24.780491366717225,28.40576214361572,24.791658436717224,28.376120143615722,24.810642336717223C28.346478143615723,24.829626236717225,28.32122734361572,24.855310436717225,28.30146594361572,24.884344236717226C28.264138943615723,24.943530236717223,28.24327976361572,25.012765236717225,28.242181913615724,25.084234236717226C28.23888835361572,25.136719236717223,28.246573323615724,25.190321236717224,28.263041143615723,25.240572236717224C28.279508943615724,25.290824236717224,28.31024884361572,25.335492236717226,28.349771143615722,25.368993236717223C28.391490143615723,25.403611236717225,28.441991143615724,25.423711236717224,28.49578614361572,25.427062236717223C28.549581143615722,25.429295236717223,28.602278143615724,25.414778236717225,28.64619214361572,25.383510236717225C28.68132314361572,25.357826236717223,28.70986714361572,25.325442236717222,28.729628143615724,25.286357236717222C28.749390143615724,25.248389236717223,28.761466143615724,25.205955236717223,28.766956143615722,25.163520236717225C28.777934143615724,25.087584236717223,28.76476014361572,25.009415236717224,28.73182414361572,24.941296236717225C28.697791143615724,24.872060936717226,28.63960514361572,24.819575936717225,28.56934214361572,24.791658436717224C28.538602143615723,24.779374666717224,28.506764143615722,24.774907858717224,28.473829143615724,24.776024560717225" fill="#020204" fill-opacity="1"/></g><g><path d="M27.218977914505004,24.495651731824463C27.159693914505006,24.500118538824463,27.103702914505003,24.525802638824462,27.060886914505005,24.567120638824463C27.018070614505003,24.608438638824463,26.986232814505005,24.660923638824464,26.968667214505004,24.717875638824463C26.939025166505004,24.83401263882446,26.931340194505005,24.955732638824465,26.947807994505006,25.075219638824464C26.950003714505005,25.183539638824463,26.968667214505004,25.291859638824462,27.003798514505004,25.394596638824463C27.023559814505006,25.445964638824464,27.052103914505004,25.491749638824462,27.089430914505005,25.530834638824462C27.126757914505006,25.569914638824464,27.173965914505004,25.598954638824463,27.225564914505004,25.612354638824463C27.274967914505005,25.624634638824464,27.326566914505005,25.622404638824463,27.373774914505006,25.60677463882446C27.420982914505004,25.591134638824464,27.464896914505005,25.564334638824462,27.500027914505004,25.52860463882446C27.551626914505004,25.474999638824464,27.588953914505005,25.40911363882446,27.607617914505006,25.337644638824464C27.626280914505006,25.266175638824464,27.635063914505004,25.191356638824463,27.632867914505006,25.116537638824465C27.632867914505006,25.023851638824464,27.618595914505004,24.931165638824464,27.591149914505007,24.841829638824464C27.563703914505005,24.75249363882446,27.516495914505004,24.670973638824464,27.452820914505004,24.602854638824464C27.422080914505006,24.57047073882446,27.386948914505005,24.542553238824464,27.347426914505004,24.522452538824464C27.306805914505006,24.503468648824462,27.262891914505005,24.49341832882446,27.218977914505004,24.495651731824463Z" fill="#FFFFFF" fill-opacity="1"/></g><g><path d="M27.07735459569702,24.992510998298645C27.063082515697023,25.067329998298646,27.066376075697022,25.145498998298645,27.089430995697022,25.218084998298647C27.106996595697023,25.266102998298646,27.13334509569702,25.309653998298646,27.16847639569702,25.346504998298645C27.19043349569702,25.371072998298644,27.215684495697023,25.392289998298644,27.24532649569702,25.406806998298645C27.27496849569702,25.422440998298644,27.307903495697023,25.426907998298645,27.340839495697022,25.419090998298646C27.37048149569702,25.411273998298643,27.39573149569702,25.393406998298644,27.414395495697022,25.368838998298646C27.433058495697022,25.344271998298645,27.446233495697022,25.316354998298646,27.455015495697022,25.287319998298646C27.480266495697023,25.200217998298644,27.478070495697022,25.107530998298646,27.45062449569702,25.020427998298644C27.433058495697022,24.956776998298643,27.39902549569702,24.898707998298644,27.35071949569702,24.855156598298645C27.327665495697023,24.835055998298646,27.29912049569702,24.819422198298646,27.269478495697022,24.811605248298644C27.23873849569702,24.803788338298645,27.20690149569702,24.806021738298647,27.177259495697022,24.819422198298646C27.146519295697022,24.835055998298646,27.121268695697022,24.860740098298646,27.105898795697023,24.892007798298646C27.090528795697022,24.923274998298645,27.080648195697023,24.956776998298643,27.076256745697023,24.991393998298644" fill="#020204" fill-opacity="1"/></g><g><path d="M26.937925577163696,25.931815253189086C26.940121287163695,25.941865253189086,26.943414847163698,25.951916253189086,26.948904077163697,25.959733253189086C26.958784777163697,25.975366253189087,26.970861177163695,25.987650253189088,26.986231077163698,25.997700253189088C27.000503177163697,26.007751253189088,27.014775277163697,26.016684253189087,27.029047377163696,26.025618253189087C27.104799577163696,26.078103253189088,27.171768577163697,26.142872253189086,27.225562577163696,26.218807253189087C27.291434577163695,26.323777253189085,27.373773577163696,26.417580253189087,27.467090577163695,26.497983253189087C27.538451577163695,26.548235253189088,27.621887577163697,26.57838725318909,27.708618577163698,26.586207253189087C27.809620577163695,26.594017253189087,27.911720577163695,26.581737253189086,28.009425577163697,26.550468253189088C28.099455577163695,26.523667253189085,28.186185577163695,26.485699253189086,28.267425577163696,26.435447253189086C28.406855577163697,26.32154425318909,28.556165577163696,26.221041253189085,28.714255577163698,26.137288253189087C28.751575577163695,26.123888253189087,28.788905577163696,26.113837253189086,28.824035577163695,26.097087253189088C28.860265577163695,26.081453253189085,28.891005577163696,26.054652253189087,28.909665577163697,26.01891825318909C28.921745577163698,25.983183253189086,28.929435577163694,25.945215253189087,28.930525577163696,25.90724825318909C28.936015577163698,25.867046253189088,28.949195577163696,25.827962253189085,28.955775577163696,25.787760253189088C28.964565577163697,25.74755925318909,28.961265577163697,25.706241253189088,28.946995577163698,25.667156953189085C28.931625577163697,25.637005953189085,28.907475577163694,25.612438553189087,28.877835577163697,25.596804653189086C28.848185577163697,25.582287553189087,28.815255577163697,25.573353953189088,28.782315577163697,25.572237253189087C28.715345577163696,25.57447065318909,28.649475577163695,25.581170863189087,28.584705577163696,25.592337853189086C28.496875577163696,25.600154753189088,28.409045577163695,25.588987753189087,28.321215577163695,25.592337853189086C28.212535577163695,25.59568795318909,28.103845577163696,25.62025545318909,27.994055577163696,25.624722253189088C27.868904577163697,25.63142245318909,27.744847577163696,25.611321853189086,27.619692577163697,25.605738353189086C27.565897577163696,25.602388253189087,27.511004577163696,25.60462165318909,27.457209577163695,25.613555253189087C27.403415577163695,25.621372153189085,27.351816577163696,25.64147275318909,27.306804577163696,25.672740253189087C27.265085577163696,25.706241253189088,27.226660577163695,25.741976253189087,27.189333577163698,25.779944253189086C27.169572577163695,25.79781125318909,27.147615577163695,25.813445253189087,27.124560577163695,25.825728253189087C27.100407577163697,25.83801225318909,27.075157577163697,25.844712253189087,27.047710577163695,25.843596253189087C27.034536677163697,25.841362253189086,27.020264577163697,25.841362253189086,27.007090277163698,25.843596253189087C26.999405377163697,25.84694625318909,26.991720377163695,25.851412253189086,26.986231077163698,25.856996253189088L26.969763277163697,25.87709725318909C26.958784777163697,25.893847253189087,26.948904077163697,25.911714253189086,26.941219137163696,25.929582253189086" fill="#D99A03" fill-opacity="1"/></g><g><path d="M27.213495262557984,25.65032109274292C27.169581262557983,25.67712209274292,27.126765262557985,25.70615609274292,27.083948662557983,25.73630709274292C27.060893762557985,25.75082409274292,27.042230262557982,25.76980809274292,27.027958162557983,25.79325909274292C27.020273232557983,25.81112609274292,27.016979672557984,25.83011009274292,27.018077532557985,25.84909409274292C27.019175382557982,25.86807809274292,27.019175382557982,25.88706209274292,27.018077532557985,25.90604609274292C27.016979672557984,25.91833009274292,27.012588262557983,25.93173009274292,27.012588262557983,25.94513009274292C27.012588262557983,25.95183109274292,27.012588262557983,25.95853109274292,27.014783972557982,25.96411409274292C27.016979672557984,25.97081509274292,27.019175382557982,25.97639809274292,27.023566762557984,25.98086509274292C27.029056062557984,25.98644809274292,27.036741062557983,25.99091509274292,27.04552386255798,25.99314909274292C27.053208862557984,25.99538209274292,27.061991662557983,25.99649909274292,27.070774462557985,25.99873209274292C27.109199362557984,26.00989909274292,27.144330262557983,26.03111609274292,27.172875262557984,26.05903409274292C27.202517262557983,26.08583509274292,27.228865262557985,26.11710209274292,27.260703262557982,26.14278709274292C27.348531262557984,26.20978909274292,27.455023262557983,26.24440609274292,27.563710262557983,26.24329009274292C27.672398262557984,26.24105609274292,27.779987262557984,26.22542309274292,27.884283262557982,26.19750509274292C27.966622262557983,26.17963809274292,28.047868262557984,26.15730409274292,28.126908262557983,26.12938609274292C28.249868262557982,26.08248509274292,28.362948262557982,26.014366092742918,28.460658262557985,25.92614609274292C28.503468262557984,25.88371209274292,28.548488262557985,25.84574409274292,28.596788262557983,25.81112609274292C28.640708262557983,25.78320909274292,28.692308262557983,25.76422509274292,28.736218262557983,25.73742409274292C28.740608262557984,25.73519009274292,28.743898262557984,25.73184009274292,28.748298262557984,25.72960709274292C28.751588262557984,25.72625709274292,28.754878262557984,25.72290709274292,28.757078262557982,25.71844009274292C28.760368262557982,25.71062309274292,28.760368262557982,25.70168909274292,28.757078262557982,25.69387209274292C28.754878262557984,25.68605609274292,28.751588262557984,25.67935509274292,28.747198262557983,25.67377209274292C28.741708262557985,25.66707209274292,28.735118262557982,25.66037109274292,28.728528262557983,25.65478809274292C28.678028262557984,25.61682009274292,28.617648262557985,25.59560309274292,28.555068262557985,25.59336909274292C28.491398262557983,25.58890209274292,28.431018262557984,25.59336909274292,28.369538262557985,25.58108609274292C28.312448262557982,25.56880189274292,28.256458262557985,25.55205139274292,28.201558262557985,25.53195079274292C28.143378262557984,25.51296679274292,28.084088262557984,25.49844969274292,28.022608262557984,25.48839939274292C27.879892262557984,25.46494864274292,27.734975262557985,25.46829874274292,27.593352262557982,25.49956639274292C27.460512262557984,25.52971739274292,27.332063262557984,25.58108609274292,27.213495262557984,25.65032109274292Z" fill="#604405" fill-opacity="1"/></g><g><path d="M27.1992172086792,25.49851985722351C27.1355412086792,25.54207085722351,27.0784532086792,25.595672857223512,27.0290496086792,25.655974857223512C27.0005054086792,25.68947585722351,26.977450508679198,25.72856085722351,26.9620805086792,25.77099485722351C26.9521998086792,25.80449585722351,26.9456127086792,25.83911385722351,26.9401234786792,25.87373185722351C26.936829918679198,25.886015857223512,26.9346342086792,25.89941585722351,26.9346342086792,25.91281585722351C26.9346342086792,25.91951685722351,26.9357320586792,25.926216857223512,26.9379277686792,25.93179985722351C26.9401234786792,25.93850085722351,26.9434170286792,25.94408385722351,26.9478084086792,25.94855085722351C26.9554934086792,25.956367857223512,26.9653741086792,25.96083485722351,26.9763526086792,25.96306785722351C26.9862333086792,25.96530085722351,26.9972118086792,25.96530085722351,27.0081903086792,25.96641785722351C27.0564962086792,25.97423485722351,27.1015082086792,25.99433585722351,27.1410302086792,26.02336985722351C27.1805532086792,26.05128685722351,27.217880208679198,26.08367185722351,27.2585012086792,26.11047285722351C27.3507202086792,26.16630785722351,27.4561142086792,26.19645685722351,27.563704208679198,26.19869685722351C27.6712932086792,26.20092685722351,27.777785208679198,26.18975685722351,27.8820812086792,26.16630785722351C27.9655142086792,26.15067385722351,28.047854208679198,26.12722285722351,28.1280042086792,26.09595585722351C28.2476642086792,26.04346985722351,28.3596442086792,25.97535185722351,28.4617442086792,25.89271585722351C28.5089542086792,25.856980857223512,28.555064208679198,25.819012857223512,28.5978842086792,25.77769585722351C28.6121542086792,25.76317785722351,28.6264242086792,25.74866085722351,28.6417942086792,25.735260857223512C28.6571642086792,25.72185985722351,28.674734208679197,25.71180985722351,28.693394208679198,25.705109857223512C28.7230342086792,25.69729285722351,28.7537742086792,25.696175857223512,28.784514208679198,25.70399285722351C28.806474208679198,25.70957685722351,28.8295242086792,25.71180985722351,28.8525842086792,25.71180985722351C28.864664208679198,25.71180985722351,28.875634208679198,25.70957685722351,28.886614208679198,25.70622685722351C28.897594208679198,25.70175985722351,28.9074742086792,25.695059857223512,28.9140642086792,25.686125857223512C28.9239442086792,25.67384185722351,28.9283342086792,25.65932485722351,28.9283342086792,25.64369085722351C28.9283342086792,25.62805685722351,28.9239442086792,25.61353985722351,28.9162542086792,25.60013985722351C28.8997942086792,25.574455857223512,28.8745442086792,25.55435485722351,28.8470942086792,25.54318785722351C28.8086742086792,25.52755385722351,28.7691442086792,25.51527085722351,28.7285242086792,25.50745385722351C28.6044642086792,25.47730285722351,28.4837042086792,25.432634857223512,28.3695242086792,25.374565857223512C28.3124442086792,25.34553185722351,28.2586442086792,25.314263857223512,28.201554208679198,25.284112857223512C28.1444642086792,25.25172875722351,28.0851842086792,25.22381125722351,28.0237042086792,25.20371055722351C27.8820812086792,25.16462605722351,27.7316752086792,25.17132621722351,27.5944442086792,25.22381125722351C27.4407442086792,25.27852955722351,27.3035132086792,25.37344885722351,27.1981192086792,25.49963685722351" fill="#F5BD0C" fill-opacity="1"/></g><g><path d="M27.913922850097656,25.320826246380616C27.921607850097658,25.346510346380615,27.961130850097657,25.342043546380616,27.984185850097656,25.353210546380616C28.007240850097656,25.364377546380616,28.020414850097655,25.385594946380614,28.042371850097656,25.387828346380616C28.065426850097655,25.390061946380616,28.097264850097655,25.380011446380614,28.100557850097655,25.358794046380616C28.104949850097658,25.329759846380615,28.063230850097657,25.311892546380616,28.036882850097655,25.301842246380616C28.001750850097658,25.285091746380616,27.962228850097656,25.283975046380615,27.927096850097655,25.299608846380615C27.919411850097656,25.302958946380617,27.911727850097655,25.313009346380614,27.913922850097656,25.320826246380616ZM27.536261750097655,25.307425746380616C27.506619650097655,25.297375476380616,27.458314150097657,25.349860446380614,27.472586230097658,25.377778046380616C27.476977640097655,25.385594946380614,27.490151850097657,25.394528946380614,27.498934750097657,25.390061946380616C27.507717550097656,25.385594946380614,27.524185350097657,25.355443946380614,27.538457450097656,25.345393646380614C27.549435950097656,25.336460046380616,27.547240250097655,25.310775846380615,27.536261750097655,25.307425746380616Z" fill="#CD8907" fill-opacity="1"/></g><g><path d="M32.24165887832642,31.54773204925537C32.21969887832642,31.60580204925537,32.18786887832641,31.65940204925537,32.14833887832641,31.70742204925537C32.056118878326416,31.80793204925537,31.944138878326417,31.88833204925537,31.821178878326418,31.94416204925537C31.612588878326417,32.04243204925537,31.409488878326417,32.151872049255374,31.211878878326416,32.27136204925537C31.083428878326416,32.35846204925537,30.963758878326416,32.45673204925537,30.852878878326415,32.56617204925537C30.761758878326415,32.66332204925537,30.664048878326415,32.75266204925537,30.560848878326418,32.83641204925537C30.453258878326416,32.91681204925537,30.329200878326414,32.97153204925537,30.197457878326418,32.99275204925537C30.036073878326416,33.01396204925537,29.872493878326416,32.988282049255375,29.724283878326418,32.920162049255374C29.617791878326415,32.87884204925537,29.525571878326417,32.80626204925537,29.460798778326417,32.71022204925537C29.405906178326415,32.607482049255374,29.380655518326417,32.49246204925537,29.386144783326415,32.37633204925537C29.392731898326417,32.17197204925537,29.416884678326415,31.968732049255372,29.458603078326416,31.767722049255372C29.487146878326417,31.600222049255372,29.515691878326415,31.43271204925537,29.533256878326416,31.26409204925537C29.563996878326417,30.95588404925537,29.567290878326418,30.64655704925537,29.544235878326415,30.33834804925537C29.538745878326417,30.286979049255372,29.538745878326417,30.23449404925537,29.544235878326415,30.18312604925537C29.550822878326414,30.078156249255372,29.637552878326417,29.99775372525537,29.741848878326415,29.998870427255373C29.789056878326416,29.99775372525537,29.836264878326418,30.00222052925537,29.882373878326415,30.011154149255372C29.992159878326415,30.02455454925537,30.101944878326417,30.04353854925537,30.209534878326416,30.06922264925537C30.276503878326416,30.08708984925537,30.343472878326416,30.11165704925537,30.410438878326417,30.13064104925537C30.522418878326416,30.16414204925537,30.640988878326414,30.174193049255372,30.757358878326414,30.16302604925537C30.879228878326415,30.13399104925537,31.003278878326416,30.11500704925537,31.128438878326417,30.10384004925537C31.180038878326418,30.106074049255373,31.231638878326414,30.11500704925537,31.279938878326416,30.13064104925537C31.330438878326415,30.14515804925537,31.377648878326415,30.17084204925537,31.416078878326417,30.20769404925537C31.443518878326415,30.23784504925537,31.465478878326415,30.27246204925537,31.479748878326415,30.31043004925537C31.500608878326418,30.367382049255372,31.513788878326416,30.42656704925537,31.518178878326417,30.486869049255372C31.520368878326416,30.54047104925537,31.524758878326416,30.59407304925537,31.531348878326416,30.64767404925537C31.550008878326416,30.73366004925537,31.590628878326417,30.81406304925537,31.647718878326415,30.881065049255373C31.705908878326415,30.94583404925537,31.768488878326416,31.00613204925537,31.836548878326415,31.05974204925537C31.901328878326417,31.11780204925537,31.969388878326416,31.17141204925537,32.04074887832642,31.22054204925537C32.074788878326416,31.24399204925537,32.10881887832642,31.26521204925537,32.14065887832642,31.290892049255373C32.17358887832641,31.31546204925537,32.201038878326415,31.346732049255372,32.221898878326414,31.38246204925537C32.248248878326415,31.43160204925537,32.257028878326416,31.48855204925537,32.243858878326414,31.54327204925537" fill="#F5BD0C" fill-opacity="1"/></g><g><path d="M32.241659999999996,31.547627725982665C32.2197,31.605697725982665,32.18786,31.659297725982665,32.14834,31.707317725982666C32.05612,31.807817725982666,31.94414,31.888217725982667,31.82118,31.944057725982667C31.61259,32.042327725982666,31.409480000000002,32.15175772598266,31.21187,32.27124772598267C31.08342,32.35834772598267,30.96376,32.45661772598267,30.85287,32.56605772598267C30.76175,32.663207725982666,30.66404,32.752547725982666,30.56084,32.83629772598267C30.45325,32.916697725982665,30.3292,32.97141772598267,30.19746,32.99263772598267C30.03607,33.01385772598267,29.87249,32.98816772598266,29.72428,32.92004772598266C29.61779,32.878727725982664,29.525570000000002,32.80614772598267,29.4608,32.71010772598267C29.4059,32.607377725982666,29.38065,32.492357725982664,29.38614,32.37621772598266C29.39273,32.17185772598267,29.41688,31.968617725982668,29.4586,31.767617725982667C29.48714,31.600107725982667,29.51569,31.432607725982667,29.53325,31.263977725982667C29.56399,30.955767725982668,29.56729,30.646445725982666,29.54423,30.338235725982667C29.53874,30.286867725982667,29.53874,30.234382725982666,29.54423,30.183014725982666C29.55082,30.078044725982664,29.63755,29.997641725982668,29.74185,29.998758725982665C29.78905,29.997641725982668,29.83626,30.002108725982666,29.88237,30.011042725982666C29.99216,30.024442725982667,30.10194,30.043426725982666,30.20953,30.069110725982664C30.2765,30.086978725982664,30.34347,30.111545725982666,30.41044,30.130529725982665C30.52242,30.164030725982666,30.640990000000002,30.174080725982666,30.75736,30.162913725982666C30.87922,30.133879725982666,31.00328,30.114895725982667,31.12844,30.103728725982666C31.180030000000002,30.105961725982667,31.23163,30.114895725982667,31.27994,30.130529725982665C31.33044,30.145046725982667,31.37765,30.170730725982665,31.41607,30.207581725982667C31.44352,30.237732725982667,31.46548,30.272350725982665,31.47975,30.310318725982665C31.50061,30.367270725982667,31.51378,30.426455725982667,31.518169999999998,30.486757725982667C31.52037,30.540359725982665,31.52476,30.593960725982665,31.53135,30.647562725982667C31.55001,30.733548725982665,31.59063,30.813947725982665,31.64772,30.880957725982665C31.7059,30.945717725982668,31.76848,31.006027725982666,31.83655,31.059627725982665C31.90132,31.117697725982666,31.96939,31.171297725982665,32.04075,31.220427725982667C32.074780000000004,31.243877725982667,32.10882,31.265097725982667,32.14065,31.290787725982668C32.173590000000004,31.315347725982665,32.20104,31.346617725982664,32.2219,31.382347725982665C32.248239999999996,31.431487725982667,32.25703,31.488437725982667,32.24385,31.543157725982667M25.34385,29.833486925982665C25.39764,29.812269602282665,25.45583,29.806686095982666,25.51292,29.817853115982665C25.57,29.829020125982666,25.6238,29.852470825982667,25.67101,29.885971925982666C25.76213,29.956323725982667,25.841169999999998,30.043426725982666,25.90375,30.140579725982665C26.05855,30.357219725982667,26.20676,30.578326725982667,26.3418,30.808367725982666C26.45158,30.994857725982666,26.55149,31.186927725982667,26.67774,31.362247725982666C26.76008,31.476157725982667,26.8534,31.582237725982665,26.93683,31.696147725982666C27.02356,31.807817725982666,27.08943,31.935117725982664,27.13005,32.070237725982665C27.17836,32.25002772598267,27.1586,32.440987725982666,27.07626,32.607377725982666C27.01698,32.723507725982664,26.92805,32.820667725982666,26.81936,32.887667725982666C26.70958,32.95466772598267,26.58332,32.98816772598266,26.45487,32.984817725982666C26.25287,32.956897725982664,26.05745,32.89436772598267,25.8774,32.79944772598267C25.49425,32.64422772598267,25.07817,32.595087725982665,24.68294,32.47448772598267C24.561078,32.43763772598267,24.44251,32.392967725982665,24.31955,32.35946772598267C24.264658,32.346067725982664,24.210863,32.32931772598267,24.158166,32.30697772598266C24.106567,32.284647725982666,24.0615547,32.246677725982664,24.0319127,32.19865772598266C24.00995562,32.159577725982665,23.99897709,32.11490772598267,24.0000749413,32.070237725982665C24.00117279,32.025577725982664,24.00995562,31.982017725982665,24.0253256,31.941817725982666C24.0549676,31.858067725982664,24.103273,31.783247725982665,24.135111,31.700607725982668C24.183416,31.564377725982666,24.20208,31.418087725982666,24.190004,31.274027725982666C24.183416,31.129977725982666,24.158166,30.985927725982666,24.150481,30.841867725982667C24.143894,30.777099725982666,24.146089,30.712331725982665,24.157068,30.648679725982667C24.173536,30.521375725982665,24.271245,30.419755725982665,24.397498,30.400771725982665C24.455684,30.390720725982668,24.51387,30.386254725982667,24.572056,30.389604725982664C24.630243,30.392954725982666,24.689527,30.392954725982666,24.747713,30.389604725982664C24.805899,30.386254725982667,24.864085,30.369503725982668,24.915684,30.341586725982665C24.962892,30.312551725982665,25.00461,30.272350725982665,25.03645,30.225449725982667C25.06829,30.178547725982668,25.09683,30.130529725982665,25.12318,30.080277725982665C25.14953,30.030026725982665,25.17917,29.983124725982666,25.2143,29.938456725982665C25.24724,29.892672125982667,25.29225,29.858054425982665,25.34385,29.833486925982665Z" fill="#F5BD0C" fill-opacity="1"/></g><g><path d="M25.34385,29.83466089906616C25.39764,29.81344357536616,25.45583,29.807860069066162,25.51292,29.81902708906616C25.57,29.830194099066162,25.6238,29.853644799066164,25.67101,29.887145899066162C25.76213,29.957497699066163,25.841169999999998,30.044600699066162,25.90375,30.14175369906616C26.05855,30.358393699066163,26.20676,30.579500699066163,26.3418,30.809541699066163C26.45158,30.99603169906616,26.55149,31.188101699066163,26.67774,31.363421699066162C26.76008,31.477331699066163,26.85339,31.58341169906616,26.93683,31.697321699066162C27.02356,31.808991699066162,27.08943,31.93629169906616,27.13005,32.07141169906616C27.17836,32.251201699066165,27.1586,32.44216169906616,27.07626,32.60855169906616C27.01698,32.72468169906616,26.92805,32.82184169906616,26.81936,32.88884169906616C26.70958,32.95584169906616,26.58332,32.98934169906616,26.45487,32.98599169906616C26.25287,32.95807169906616,26.05745,32.895541699066165,25.8774,32.80062169906616C25.49425,32.64540169906616,25.07817,32.59626169906616,24.68294,32.475661699066166C24.561078,32.438811699066164,24.44251,32.39414169906616,24.31955,32.360641699066164C24.264657,32.34724169906616,24.210863,32.330491699066165,24.158166,32.30815169906616C24.106567,32.28582169906616,24.0615547,32.24785169906616,24.0319127,32.19983169906616C24.00995562,32.16075169906616,23.99897709,32.116081699066164,24.0000749413,32.07141169906616C24.00117279,32.02675169906616,24.00995562,31.98319169906616,24.0253256,31.942991699066162C24.0549676,31.85924169906616,24.103273,31.78442169906616,24.135111,31.701781699066164C24.183416,31.565551699066162,24.20208,31.419261699066162,24.190004,31.275201699066162C24.183416,31.131151699066162,24.158166,30.988211699066163,24.150481,30.843041699066163C24.143894,30.778273699066162,24.146089,30.71350569906616,24.157068,30.649853699066163C24.173536,30.52254969906616,24.271245,30.42092969906616,24.397498,30.40194569906616C24.455684,30.391894699066164,24.51387,30.387428699066163,24.572056,30.39077869906616C24.630243,30.39412869906616,24.689527,30.39412869906616,24.747713,30.39077869906616C24.805899,30.387428699066163,24.864085,30.370677699066164,24.915684,30.34276069906616C24.962892,30.31372569906616,25.00461,30.27352469906616,25.03645,30.226623699066163C25.06829,30.179721699066164,25.09683,30.13170369906616,25.12318,30.08145169906616C25.14953,30.03120069906616,25.17917,29.984298699066162,25.2143,29.93963069906616C25.24724,29.893846099066163,25.29225,29.85811169906616,25.34385,29.83466089906616Z" fill="#F5BD0C" fill-opacity="1"/></g><g><path d="M25.428386535966396,29.928345318554687C25.476686535966397,29.909361398554687,25.530486535966396,29.906011298554688,25.580986535966396,29.918295018554687C25.631486535966395,29.93057871855469,25.678696535966395,29.954029518554687,25.719316535966396,29.98753051855469C25.797266535966397,30.05676651855469,25.863136535966397,30.13940151855469,25.912536535966396,30.232088518554686C26.044276535966397,30.448728518554688,26.172726535966397,30.667601518554687,26.292396535966397,30.890942518554688C26.379126535966396,31.061796518554686,26.476836535966395,31.227066518554686,26.584426535966397,31.384526518554686C26.659076535966395,31.487256518554688,26.744706535966397,31.58106651855469,26.821556535966398,31.68156651855469C26.901706535966397,31.78095651855469,26.962086535966396,31.893736518554686,26.999416535966397,32.015456518554686C27.043326535966397,32.17514651855469,27.024666535966396,32.34600651855469,26.950006535966395,32.494526518554686C26.895116535966395,32.59949651855469,26.812776535966396,32.68771651855469,26.711776535966397,32.746896518554685C26.610776535966394,32.807206518554686,26.494396535966395,32.836236518554685,26.378026535966395,32.83065651855469C26.194686535966397,32.80161651855469,26.016836535966398,32.74578651855469,25.848866535966398,32.66426651855469C25.515116535966396,32.54030651855469,25.151726535966397,32.524676518554685,24.809195535966396,32.427526518554686C24.686236535966398,32.39402651855469,24.566570535966395,32.348236518554685,24.442512535966397,32.316966518554686C24.387620535966395,32.30468651855469,24.332727535966395,32.28905651855469,24.280030535966397,32.26895651855469C24.227333535966395,32.24885651855469,24.181223835966396,32.21088651855469,24.150483935966395,32.16286651855469C24.130722555966397,32.124896518554685,24.120841885966396,32.08246651855469,24.123037587966397,32.04002651855469C24.125233295966396,31.997596518554687,24.134016135966398,31.955156518554688,24.149386035966398,31.91495651855469C24.179028135966398,31.83567651855469,24.226235535966396,31.763086518554687,24.255877535966395,31.683796518554686C24.297596535966395,31.560966518554686,24.311868535966397,31.431426518554687,24.298694535966398,31.30188651855469C24.289911535966397,31.173466518554687,24.266856535966397,31.04616651855469,24.260269535966398,30.916626518554686C24.255877535966395,30.859674518554687,24.258073535966396,30.80160651855469,24.267954535966396,30.744654518554686C24.277834535966395,30.687702518554687,24.304183535966395,30.635217518554686,24.343706535966398,30.59278251855469C24.389815535966395,30.55034851855469,24.446904535966397,30.52243051855469,24.508383535966395,30.514613518554686C24.569863535966395,30.506796518554687,24.631343535966398,30.506796518554687,24.691725535966395,30.514613518554686C24.753205535966398,30.52243051855469,24.814684535966396,30.524664518554687,24.876164535966396,30.523547518554686C24.996928535966397,30.523547518554686,25.106713535966396,30.45207851855469,25.158316535966396,30.34040851855469C25.183566535966396,30.29015651855469,25.205516535966396,30.237671518554688,25.223086535966395,30.185186518554687C25.241746535966396,30.131585518554687,25.266996535966395,30.081333518554686,25.296646535966396,30.033315518554687C25.327386535966397,29.985297118554687,25.371296535966398,29.94732921855469,25.422896535966395,29.924995218554688" fill="#F5BD0C" fill-opacity="1"/></g></g></g></g></svg>