<svg xmlns="http://www.w3.org/2000/svg" xmlns:xlink="http://www.w3.org/1999/xlink" fill="none" version="1.1" width="24" height="24" viewBox="0 0 24 24"><defs><clipPath id="master_svg0_644_42293"><rect x="0" y="0" width="24" height="24" rx="0"/></clipPath></defs><g clip-path="url(#master_svg0_644_42293)"><g><path d="M12.41377,9.598772109375L19.4745,6.389402109375C20.2598,6.032482109375,20.2551,4.915492109375,19.4669,4.565202109375L12.43351,1.439507709375C12.15749,1.316713509375,11.8425,1.316713509375,11.56595,1.439507709375L4.53301,4.565622109375C3.74484,4.915962109375,3.7401999999999997,6.032932109375,4.52543,6.389812109375L11.58622,9.598792109375C11.84913,9.718272109375,12.15086,9.718272109375,12.41377,9.598772109375" fill="#F9CC45" fill-opacity="1"/></g><g><path d="M12.5,11.293259609375L12.5,21.113549609375C12.5,21.837249609375,13.242,22.322549609375002,13.90329,22.028649609375Q18.02274,20.197749609375002,20.906,18.916349609375C21.2675,18.755849609374998,21.5,18.397849609375,21.5,18.002349609375003L21.5,8.111369609375C21.5,7.3840756093749995,20.74829,6.900043609375,20.086190000000002,7.2010046093749995L13.086189,10.382889609374999C12.729199,10.545169609375,12.5,10.901119609375,12.5,11.293259609375" fill="#FF7D00" fill-opacity="1"/></g><g><path d="M10.91381,10.382889609374999L3.91381,7.2010046093749995C3.25171,6.900043609375,2.5,7.3840756093749995,2.5,8.111369609375L2.5,18.002349609375003C2.5,18.397349609375,2.7325,18.755849609374998,3.094,18.916349609375L10.09386,22.027449609374997C10.75515,22.321349609374998,11.5,21.837249609375,11.5,21.113549609375L11.5,11.293259609375C11.5,10.901119609375,11.2708,10.545169609375,10.91381,10.382889609374999" fill="#FF7D00" fill-opacity="1"/></g><g><path d="M17.75001,15.07012175C17.79001,14.82923275,17.9989,14.65234375,18.24335,14.65234375L19.395789999999998,14.65234375C19.64023,14.65234375,19.84912,14.82923275,19.88912,15.07012175L19.98379,15.63945475C20.01179,15.80567375,20.1229,15.94434375,20.27046,16.02612375C20.303350000000002,16.04390375,20.33579,16.06301375,20.36823,16.08256375C20.51268,16.16967375,20.68823,16.19678375,20.84601,16.13767375L21.3869,15.93501375C21.61581,15.84892375,21.8734,15.94105375,21.99579,16.15278375L22.57179,17.15145375C22.69391,17.36320375,22.64504,17.63220375,22.456229999999998,17.78745375L22.010460000000002,18.155013750000002C21.88023,18.26212375,21.81579,18.42745375,21.81935,18.59590375C21.819969999999998,18.63367375,21.819969999999998,18.67145375,21.81935,18.70923375C21.81579,18.877233750000002,21.88023,19.04256375,22.010460000000002,19.149673749999998L22.45668,19.51723375C22.64512,19.67278375,22.69401,19.94167375,22.57223,20.15278375L21.995350000000002,21.15145375C21.87313,21.36313375,21.61579,21.45543375,21.3869,21.36967375L20.84601,21.16701375C20.68823,21.10790375,20.51268,21.13501375,20.36779,21.22212375C20.33557,21.24172375,20.302970000000002,21.26069375,20.27001,21.27901375C20.1229,21.36034375,20.01179,21.49901375,19.98379,21.66523375L19.88912,22.23456375C19.84912,22.47589375,19.64023,22.65234375,19.395789999999998,22.65234375L18.2429,22.65234375C17.99846,22.65234375,17.79001,22.47545375,17.74957,22.23456375L17.6549,21.66523375C17.62735,21.49901375,17.51623,21.36034375,17.36868,21.27856375C17.33572,21.26038375,17.30312,21.24156375,17.2709,21.22212375C17.12646,21.13501375,16.9509,21.10789375,16.79268,21.16701375L16.25179,21.36967375C16.02301,21.45551375,15.765698,21.36341375,15.643345,21.15189375L15.066901,20.15323375C14.9447788,19.94148375,14.99365393,19.672483749999998,15.182457,19.51723375L15.628679,19.149673749999998C15.758456,19.04301375,15.822901,18.877233750000002,15.81979,18.70923375C15.819095,18.67145375,15.819095,18.63367375,15.81979,18.595893750000002C15.822901,18.42701375,15.758456,18.26212375,15.628679,18.155013750000002L15.182457,17.78745375C14.99389087,17.63225375,14.9450341,17.363543749999998,15.066901,17.15189375L15.643345,16.15323375C15.765592999999999,15.94133375,16.02322,15.84900375,16.25223,15.93501375L16.79268,16.13767375C16.9509,16.19678375,17.12646,16.16967375,17.2709,16.08256375C17.3029,16.06301375,17.33579,16.04434375,17.36868,16.02567375C17.51623,15.94434375,17.62735,15.80567375,17.6549,15.63945375L17.75001,15.07012175L17.75001,15.07012175Z" fill="#D25F00" fill-opacity="1"/><path d="M16.76368,14.90534875L16.76352,14.90631275L16.73956,15.04975475L16.60382,14.99885375Q15.412870999999999,14.55157775,14.777269,15.65332375L14.2003,16.65289375Q13.5669,17.75291375,14.546668,18.55931375L14.659604,18.65234375L14.547314,18.744833749999998Q13.627089999999999,19.50154375,14.127755,20.51664375Q14.161133,20.58432375,14.200825,20.653143749999998L14.777734,21.65261375Q15.41377,22.752153749999998,16.60266,22.30610375L16.73923,22.25493375L16.763370000000002,22.400143749999998Q16.97361,23.65234375,18.2429,23.65234375L19.395789999999998,23.65234375Q20.66777,23.65234375,20.87558,22.39859375L20.89947,22.25493375L21.03605,22.30610375Q22.22602,22.75195375,22.86125,21.65165375L23.43845,20.65245375Q23.99288,19.69131375,23.31216,18.95205375Q23.21492,18.84644375,23.09247,18.74537375L22.97936,18.652203749999998L23.09138,18.55984375Q24.07295,17.75270375,23.438029999999998,16.65183375L22.86156,15.65234375Q22.22516,14.55137975,21.03603,14.99858675L20.89947,15.04975575L20.875619999999998,14.90631475Q20.66739,13.65234375,19.395789999999998,13.65234375L18.24335,13.65234375Q16.97223,13.65234375,16.76368,14.90534875ZM18.24335,14.65234375C17.9989,14.65234375,17.79001,14.82923275,17.75001,15.07012175L17.6549,15.63945375C17.62735,15.80567375,17.51623,15.94434375,17.36868,16.02567375C17.33579,16.04434375,17.3029,16.06301375,17.2709,16.08256375C17.12646,16.16967375,16.9509,16.19678375,16.79268,16.13767375L16.25223,15.93501375C16.02322,15.84900375,15.765592999999999,15.94133375,15.643345,16.15323375L15.066901,17.15189375C14.9450341,17.363543749999998,14.99389087,17.63225375,15.182457,17.78745375L15.628679,18.155013750000002C15.758456,18.26212375,15.822901,18.42701375,15.81979,18.595893750000002C15.819095,18.63367375,15.819095,18.67145375,15.81979,18.70923375C15.822901,18.877233750000002,15.758456,19.04301375,15.628679,19.149673749999998L15.182457,19.51723375C14.99365393,19.672483749999998,14.9447788,19.94148375,15.066901,20.15323375L15.643345,21.15189375C15.765698,21.36341375,16.02301,21.45551375,16.25179,21.36967375L16.79268,21.16701375C16.9509,21.10789375,17.12646,21.13501375,17.2709,21.22212375C17.30312,21.24156375,17.33572,21.26038375,17.36868,21.27856375C17.51623,21.36034375,17.62735,21.49901375,17.6549,21.66523375L17.74957,22.23456375C17.79001,22.47545375,17.99846,22.65234375,18.2429,22.65234375L19.395789999999998,22.65234375C19.64023,22.65234375,19.84912,22.47589375,19.88912,22.23456375L19.98379,21.66523375C20.01179,21.49901375,20.1229,21.36034375,20.27001,21.27901375C20.302970000000002,21.26069375,20.33557,21.24172375,20.36779,21.22212375C20.51268,21.13501375,20.68823,21.10790375,20.84601,21.16701375L21.3869,21.36967375C21.61579,21.45543375,21.87313,21.36313375,21.995350000000002,21.15145375L22.57223,20.15278375C22.69401,19.94167375,22.64512,19.67278375,22.45668,19.51723375L22.010460000000002,19.149673749999998C21.88023,19.04256375,21.81579,18.877233750000002,21.81935,18.70923375C21.819969999999998,18.67145375,21.819969999999998,18.63367375,21.81935,18.59590375C21.81579,18.42745375,21.88023,18.26212375,22.010460000000002,18.155013750000002L22.456229999999998,17.78745375C22.64504,17.63220375,22.69391,17.36320375,22.57179,17.15145375L21.99579,16.15278375C21.8734,15.94105375,21.61581,15.84892375,21.3869,15.93501375L20.84601,16.13767375C20.68823,16.19678375,20.51268,16.16967375,20.36823,16.08256375C20.33579,16.06301375,20.303350000000002,16.04390375,20.27046,16.02612375C20.1229,15.94434375,20.01179,15.80567375,19.98379,15.63945475L19.88912,15.07012175C19.84912,14.82923275,19.64023,14.65234375,19.395789999999998,14.65234375L18.24335,14.65234375Z" fill-rule="evenodd" fill="#FFFFFF" fill-opacity="1"/></g><g><path d="M20.15269294921875,18.652421796875Q20.15269294921875,18.717931796875,20.14627294921875,18.783111796875Q20.13985294921875,18.848301796875,20.12707294921875,18.912541796875Q20.11429294921875,18.976791796875,20.09527294921875,19.039471796875Q20.07626294921875,19.102151796875,20.051192949218752,19.162671796875Q20.02613294921875,19.223181796875,19.99525294921875,19.280951796875Q19.96437294921875,19.338721796875,19.92798294921875,19.393181796874998Q19.89159294921875,19.447651796875,19.85003294921875,19.498281796875Q19.80848294921875,19.548921796875,19.762162949218748,19.595231796874998Q19.71585294921875,19.641551796875,19.66521294921875,19.683101796875Q19.61458294921875,19.724661796875,19.560112949218748,19.761051796875Q19.50565294921875,19.797441796875,19.44788294921875,19.828321796875Q19.39011294921875,19.859201796875,19.32960294921875,19.884261796875002Q19.26908294921875,19.909331796875,19.20640294921875,19.928341796875Q19.14372294921875,19.947361796875,19.07947294921875,19.960141796875Q19.01523294921875,19.972921796875,18.95004294921875,19.979341796875Q18.88486294921875,19.985761796875,18.81935294921875,19.985761796875Q18.75385294921875,19.985761796875,18.68866294921875,19.979341796875Q18.62348294921875,19.972921796875,18.55923294921875,19.960141796875Q18.49499294921875,19.947361796875,18.43230994921875,19.928341796875Q18.36962794921875,19.909331796875,18.30911194921875,19.884261796875002Q18.24859494921875,19.859201796875,18.19082694921875,19.828321796875Q18.13305894921875,19.797441796875,18.07859594921875,19.761051796875Q18.02413294921875,19.724661796875,17.97349894921875,19.683101796875Q17.92286494921875,19.641551796875,17.87654694921875,19.595231796874998Q17.83022994921875,19.548921796875,17.78867594921875,19.498281796875Q17.74712094921875,19.447651796875,17.71072994921875,19.393181796874998Q17.67433894921875,19.338721796875,17.64346094921875,19.280951796875Q17.61258394921875,19.223181796875,17.58751694921875,19.162671796875Q17.56245014921875,19.102151796875,17.54343584921875,19.039471796875Q17.52442144921875,18.976791796875,17.51164254921875,18.912541796875Q17.49886364921875,18.848301796875,17.49244330921875,18.783111796875Q17.48602294921875,18.717931796875,17.48602294921875,18.652421796875Q17.48602294921875,18.586921796875,17.49244330921875,18.521731796875Q17.49886364921875,18.456551796875,17.51164254921875,18.392301796875Q17.52442144921875,18.328061796875,17.54343584921875,18.265378796875Q17.56245014921875,18.202696796875,17.58751694921875,18.142180796875Q17.61258394921875,18.081663796875,17.64346094921875,18.023895796875Q17.67433894921875,17.966127796875,17.71072994921875,17.911664796875Q17.74712094921875,17.857201796875,17.78867594921875,17.806567796875Q17.83022994921875,17.755933796875,17.87654694921875,17.709615796875Q17.92286494921875,17.663298796875,17.97349894921875,17.621744796875Q18.02413294921875,17.580189796875,18.07859594921875,17.543798796875Q18.13305894921875,17.507407796875,18.19082694921875,17.476529796875Q18.24859494921875,17.445652796875,18.30911194921875,17.420585796875Q18.36962794921875,17.395518996875,18.43230994921875,17.376504696875Q18.49499294921875,17.357490296875,18.55923294921875,17.344711396875Q18.62348294921875,17.331932496875,18.68866294921875,17.325512156875Q18.75385294921875,17.319091796875,18.81935294921875,17.319091796875Q18.88486294921875,17.319091796875,18.95004294921875,17.325512156875Q19.01523294921875,17.331932496875,19.07947294921875,17.344711396875Q19.14372294921875,17.357490296875,19.20640294921875,17.376504696875Q19.26908294921875,17.395518996875,19.32960294921875,17.420585796875Q19.39011294921875,17.445652796875,19.44788294921875,17.476529796875Q19.50565294921875,17.507407796875,19.560112949218748,17.543798796875Q19.61458294921875,17.580189796875,19.66521294921875,17.621744796875Q19.71585294921875,17.663298796875,19.762162949218748,17.709615796875Q19.80848294921875,17.755933796875,19.85003294921875,17.806567796875Q19.89159294921875,17.857201796875,19.92798294921875,17.911664796875Q19.96437294921875,17.966127796875,19.99525294921875,18.023895796875Q20.02613294921875,18.081663796875,20.051192949218752,18.142180796875Q20.07626294921875,18.202696796875,20.09527294921875,18.265378796875Q20.11429294921875,18.328061796875,20.12707294921875,18.392301796875Q20.13985294921875,18.456551796875,20.14627294921875,18.521731796875Q20.15269294921875,18.586921796875,20.15269294921875,18.652421796875Z" fill="#FFFFFF" fill-opacity="1"/></g></g></svg>