<svg xmlns="http://www.w3.org/2000/svg" xmlns:xlink="http://www.w3.org/1999/xlink" fill="none" version="1.1" width="24" height="24" viewBox="0 0 24 24"><defs><clipPath id="master_svg0_732_39819"><rect x="0" y="0" width="24" height="24" rx="0"/></clipPath></defs><g clip-path="url(#master_svg0_732_39819)"><g><path d="M11,5Q11,4.9015086,11.019214999999999,4.80491Q11.03843,4.708311,11.076121,4.617317Q11.113812,4.526322,11.16853,4.44443Q11.223249,4.362537,11.292893,4.292893Q11.362537,4.223249,11.44443,4.16853Q11.526322,4.113812,11.617317,4.076121Q11.708311,4.03843,11.80491,4.019215Q11.9015086,4,12,4Q12.0984914,4,12.19509,4.019215Q12.291689,4.03843,12.382683,4.076121Q12.473678,4.113812,12.55557,4.16853Q12.637463,4.223249,12.707107,4.292893Q12.776751,4.362537,12.83147,4.44443Q12.886188,4.526322,12.923879,4.617317Q12.96157,4.708311,12.980785000000001,4.80491Q13,4.9015086,13,5L13,9Q13,9.09849,12.980785000000001,9.19509Q12.96157,9.29169,12.923879,9.38268Q12.886188,9.47368,12.83147,9.55557Q12.776751,9.63746,12.707107,9.70711Q12.637463,9.77675,12.55557,9.83147Q12.473678,9.88619,12.382683,9.92388Q12.291689,9.96157,12.19509,9.98078Q12.0984914,10,12,10Q11.9015086,10,11.80491,9.98078Q11.708311,9.96157,11.617317,9.92388Q11.526322,9.88619,11.44443,9.83147Q11.362537,9.77675,11.292893,9.70711Q11.223249,9.63746,11.16853,9.55557Q11.113812,9.47368,11.076121,9.38268Q11.03843,9.29169,11.019214999999999,9.19509Q11,9.09849,11,9L11,5Z" fill-rule="evenodd" fill="#4464F8" fill-opacity="1"/></g><g><path d="M1,13Q1,12.9015086,1.019215,12.80491Q1.03843,12.708311,1.076121,12.617317Q1.113812,12.526322,1.16853,12.44443Q1.223249,12.362537,1.2928929999999998,12.292893Q1.362537,12.223249,1.44443,12.16853Q1.526322,12.113812,1.617317,12.076121Q1.7083110000000001,12.03843,1.80491,12.019214999999999Q1.9015086,12,2,12Q2.0984914,12,2.19509,12.019214999999999Q2.291689,12.03843,2.382683,12.076121Q2.473678,12.113812,2.55557,12.16853Q2.637463,12.223249,2.707107,12.292893Q2.776751,12.362537,2.83147,12.44443Q2.8861879999999998,12.526322,2.923879,12.617317Q2.96157,12.708311,2.980785,12.80491Q3,12.9015086,3,13L3,17Q3,17.098489999999998,2.980785,17.19509Q2.96157,17.29169,2.923879,17.38268Q2.8861879999999998,17.47368,2.83147,17.55557Q2.776751,17.63746,2.707107,17.70711Q2.637463,17.77675,2.55557,17.83147Q2.473678,17.88619,2.382683,17.92388Q2.291689,17.961570000000002,2.19509,17.98078Q2.0984914,18,2,18Q1.9015086,18,1.80491,17.98078Q1.7083110000000001,17.961570000000002,1.617317,17.92388Q1.526322,17.88619,1.44443,17.83147Q1.362537,17.77675,1.2928929999999998,17.70711Q1.223249,17.63746,1.16853,17.55557Q1.113812,17.47368,1.076121,17.38268Q1.03843,17.29169,1.019215,17.19509Q1,17.098489999999998,1,17L1,13Z" fill-rule="evenodd" fill="#4464F8" fill-opacity="1"/></g><g><path d="M4,17L4,13Q4.0000114441,10.92882,5.46448,9.46436Q6.928929999999999,8,9,8L15,8Q17.0711,7.999889374,18.5355,9.46436Q20,10.92893,20,13L20,13.87652Q19.0354,13.5,18,13.5Q17.441000000000003,13.5,16.8934,13.612459999999999Q16.3459,13.72493,15.8321,13.945260000000001C15.6528,13.67681,15.3471,13.5,15,13.5C14.4477,13.5,14,13.94772,14,14.5L14,15.22508Q13.64199,15.60444,13.36167,16.04434Q13.08136,16.48424,12.88874,16.968989999999998Q12.69612,17.45374,12.59806,17.96606Q12.5,18.4784,12.5,19Q12.5,19.3973,12.55711,19.7905Q12.61422,20.1837,12.72725,20.5646Q12.84028,20.9456,13.00689,21.3063Q13.1735,21.667,13.39023,22L9,22Q6.92895,22.0001,5.46448,20.535600000000002Q4,19.0711,4,17ZM23,16.70871L23,13C23,12.44772,22.5523,12,22,12C21.4477,12,21,12.44772,21,13L21,14.390229999999999Q21.3256,14.60214,21.6182,14.85772Q21.9108,15.11331,22.1646,15.40749Q22.4184,15.70166,22.6283,16.02859Q22.8381,16.35552,23,16.70871ZM10,15.5L10,14.5C10,13.94772,9.55228,13.5,9,13.5C8.44772,13.5,8,13.94772,8,14.5L8,15.5C8,16.05228,8.44772,16.5,9,16.5C9.55228,16.5,10,16.05228,10,15.5Z" fill-rule="evenodd" fill="#4464F8" fill-opacity="1"/></g><g><ellipse cx="12" cy="4" rx="1" ry="1" fill-opacity="0" stroke-opacity="1" stroke="#4464F8" fill="none" stroke-width="2"/></g><g transform="matrix(0,1,-1,0,37,-7)"><ellipse cx="26" cy="19" rx="4" ry="4" fill="#71C7FB" fill-opacity="1"/></g><g><path d="M17.25,19.380859375Q17.25,19.306990875,17.264411,19.234541375Q17.278822,19.162092375,17.30709,19.093846375Q17.335359,19.025601375,17.376398000000002,18.964181375Q17.417437,18.902762375000002,17.46967,18.850529375Q17.521903000000002,18.798296375,17.583322,18.757257375000002Q17.644742,18.716218375,17.712987,18.687949375Q17.781233,18.659681375,17.853682,18.645270375Q17.9261315,18.630859375,18,18.630859375Q18.0738685,18.630859375,18.146318,18.645270375Q18.218767,18.659681375,18.287013,18.687949375Q18.355258,18.716218375,18.416678,18.757257375000002Q18.478096999999998,18.798296375,18.53033,18.850529375Q18.582563,18.902762375000002,18.623601999999998,18.964181375Q18.664641,19.025601375,18.69291,19.093846375Q18.721178,19.162092375,18.735589,19.234541375Q18.75,19.306990875,18.75,19.380859375L18.75,20.999909375Q18.75,21.073779375,18.735589,21.146229375Q18.721178,21.218669375,18.69291,21.286919375Q18.664641,21.355169375,18.623601999999998,21.416589375Q18.582563,21.477999375,18.53033,21.530239375Q18.478096999999998,21.582469375,18.416678,21.623509375Q18.355258,21.664549375,18.287013,21.692819375Q18.218767,21.721089375,18.146318,21.735499375Q18.0738685,21.749909375,18,21.749909375Q17.9261315,21.749909375,17.853682,21.735499375Q17.781233,21.721089375,17.712987,21.692819375Q17.644742,21.664549375,17.583322,21.623509375Q17.521903000000002,21.582469375,17.46967,21.530239375Q17.417437,21.477999375,17.376398000000002,21.416589375Q17.335359,21.355169375,17.30709,21.286919375Q17.278822,21.218669375,17.264411,21.146229375Q17.25,21.073779375,17.25,20.999909375L17.25,19.380859375Z" fill-rule="evenodd" fill="#FFFFFF" fill-opacity="1"/></g><g><ellipse cx="18" cy="17.23681640625" rx="0.75" ry="0.75" fill="#FFFFFF" fill-opacity="1"/></g></g></svg>