<svg xmlns="http://www.w3.org/2000/svg" xmlns:xlink="http://www.w3.org/1999/xlink" fill="none" version="1.1" width="24" height="24" viewBox="0 0 24 24"><defs><clipPath id="master_svg0_732_42202"><rect x="0" y="0" width="24" height="24" rx="0"/></clipPath></defs><g clip-path="url(#master_svg0_732_42202)"><g><path d="M4.2499847412109375,4L4.249992921950938,20C4.249993423960937,21.1046,5.145423741210937,22,6.249994741210937,22L18.249984741210938,22C19.354584741210935,22,20.249984741210938,21.1046,20.249984741210938,20L20.249984741210938,4C20.249984741210938,2.89543,19.354584741210935,2,18.249984741210938,2L6.2499847412109375,2C5.145415741210938,2,4.2499847412109375,2.895431,4.2499847412109375,4Z" fill="#4464F8" fill-opacity="1"/><path d="M6.249994741210937,22.75L18.249984741210938,22.75Q20.999984741210938,22.75,20.999984741210938,20L20.999984741210938,4Q20.999984741210938,1.25,18.249984741210938,1.25L6.2499847412109375,1.25Q5.1108977412109375,1.25,4.3054415412109375,2.0554567Q3.4999847412109375,2.860913,3.4999857412109376,4L3.4999927412109377,20Q3.4999947412109376,22.75,6.249994741210937,22.75ZM19.499984741210938,20Q19.499984741210938,21.25,18.249984741210938,21.25L6.249994741210937,21.25Q5.7322247412109375,21.25,5.366114741210938,20.8839Q4.999993741210938,20.5178,4.999992741210938,20L4.999985741210938,4Q4.999985741210938,3.48223,5.366104741210938,3.11612Q5.732214741210937,2.75,6.2499847412109375,2.75L18.249984741210938,2.75Q19.499984741210938,2.75,19.499984741210938,4L19.499984741210938,20Z" fill-rule="evenodd" fill="#4464F8" fill-opacity="1"/></g><g><path d="M8.249984741210938,7.25L16.249984741210938,7.25Q16.323854741210937,7.25,16.396304741210937,7.264411Q16.468754741210937,7.278822,16.53699474121094,7.30709Q16.60524474121094,7.335359,16.666664741210937,7.376398Q16.728084741210935,7.417437,16.780314741210937,7.46967Q16.83254474121094,7.521903,16.873584741210937,7.583322Q16.914624741210936,7.644742,16.942894741210935,7.712987Q16.971164741210938,7.781233,16.98557474121094,7.853682Q16.999984741210938,7.9261315,16.999984741210938,8Q16.999984741210938,8.0738685,16.98557474121094,8.146318Q16.971164741210938,8.218767,16.942894741210935,8.287013Q16.914624741210936,8.355258,16.873584741210937,8.416678Q16.83254474121094,8.478097,16.780314741210937,8.53033Q16.728084741210935,8.582563,16.666664741210937,8.623602Q16.60524474121094,8.664641,16.53699474121094,8.69291Q16.468754741210937,8.721178,16.396304741210937,8.735589000000001Q16.323854741210937,8.75,16.249984741210938,8.75L8.249984741210938,8.75Q8.176116241210938,8.75,8.103666741210937,8.735589000000001Q8.031217741210938,8.721178,7.9629717412109375,8.69291Q7.894726741210937,8.664641,7.833306741210937,8.623602Q7.7718877412109375,8.582563,7.719654741210937,8.53033Q7.667421741210937,8.478097,7.6263827412109375,8.416678Q7.585343741210938,8.355258,7.557074741210937,8.287013Q7.528806741210937,8.218767,7.5143957412109375,8.146318Q7.4999847412109375,8.0738685,7.4999847412109375,8Q7.4999847412109375,7.9261315,7.5143957412109375,7.853682Q7.528806741210937,7.781233,7.557074741210937,7.712987Q7.585343741210938,7.644742,7.6263827412109375,7.583322Q7.667421741210937,7.521903,7.719654741210937,7.46967Q7.7718877412109375,7.417437,7.833306741210937,7.376398Q7.894726741210937,7.335359,7.9629717412109375,7.30709Q8.031217741210938,7.278822,8.103666741210937,7.264411Q8.176116241210938,7.25,8.249984741210938,7.25Z" fill-rule="evenodd" fill="#FFFFFF" fill-opacity="1"/></g><g><path d="M8.249984741210938,11.25L12.249984741210938,11.25Q12.323854741210937,11.25,12.396304741210937,11.264410999999999Q12.468754741210937,11.278822,12.536994741210938,11.30709Q12.605244741210939,11.335359,12.666664741210937,11.376398Q12.728084741210939,11.417437,12.780314741210937,11.46967Q12.832544741210938,11.521903,12.873584741210937,11.583322Q12.914624741210938,11.644742,12.942894741210939,11.712987Q12.971164741210938,11.781233,12.985574741210938,11.853682Q12.999984741210938,11.9261315,12.999984741210938,12Q12.999984741210938,12.0738685,12.985574741210938,12.146318Q12.971164741210938,12.218767,12.942894741210939,12.287013Q12.914624741210938,12.355258,12.873584741210937,12.416678Q12.832544741210938,12.478097,12.780314741210937,12.53033Q12.728084741210939,12.582563,12.666664741210937,12.623602Q12.605244741210939,12.664641,12.536994741210938,12.69291Q12.468754741210937,12.721178,12.396304741210937,12.735589000000001Q12.323854741210937,12.75,12.249984741210938,12.75L8.249984741210938,12.75Q8.176116241210938,12.75,8.103666741210937,12.735589000000001Q8.031217741210938,12.721178,7.9629717412109375,12.69291Q7.894726741210937,12.664641,7.833306741210937,12.623602Q7.7718877412109375,12.582563,7.719654741210937,12.53033Q7.667421741210937,12.478097,7.6263827412109375,12.416678Q7.585343741210938,12.355258,7.557074741210937,12.287013Q7.528806741210937,12.218767,7.5143957412109375,12.146318Q7.4999847412109375,12.0738685,7.4999847412109375,12Q7.4999847412109375,11.9261315,7.5143957412109375,11.853682Q7.528806741210937,11.781233,7.557074741210937,11.712987Q7.585343741210938,11.644742,7.6263827412109375,11.583322Q7.667421741210937,11.521903,7.719654741210937,11.46967Q7.7718877412109375,11.417437,7.833306741210937,11.376398Q7.894726741210937,11.335359,7.9629717412109375,11.30709Q8.031217741210938,11.278822,8.103666741210937,11.264410999999999Q8.176116241210938,11.25,8.249984741210938,11.25Z" fill-rule="evenodd" fill="#FFFFFF" fill-opacity="1"/></g><g><g><path d="M14.141206830739975,16.175729921560286Q14.141206830739975,16.274219921560288,14.160421830739974,16.370819921560287Q14.179636830739975,16.46741992156029,14.217327830739976,16.558409921560287Q14.255018830739974,16.649409921560288,14.309737830739975,16.731299921560286Q14.364455830739974,16.813189921560287,14.434099830739974,16.882829921560287Q14.503743830739975,16.952479921560286,14.585636830739976,17.007199921560286Q14.667528830739975,17.06191992156029,14.758523830739975,17.099609921560287Q14.849517830739975,17.137299921560288,14.946116830739975,17.156509921560286Q15.042715430739975,17.175729921560286,15.141206830739975,17.175729921560286L16.880336830739974,17.175729921560286Q16.978826830739976,17.175729921560286,17.075426830739975,17.156509921560286Q17.172026830739973,17.137299921560288,17.263016830739975,17.099609921560287Q17.354016830739976,17.06191992156029,17.435906830739974,17.007199921560286Q17.517796830739975,16.952479921560286,17.587446830739975,16.882829921560287Q17.657086830739974,16.813189921560287,17.711806830739974,16.731299921560286Q17.766526830739974,16.649409921560288,17.804216830739975,16.558409921560287Q17.841906830739976,16.46741992156029,17.861126830739977,16.370819921560287Q17.880336830739974,16.274219921560288,17.880336830739974,16.175729921560286L17.880336830739974,16.00181492156029Q17.880336830739974,15.222384521560288,17.335266830739975,14.677316921560287Q16.790206830739976,14.132249921560287,16.010771830739976,14.132249921560287Q15.231341130739976,14.132249921560287,14.686273830739974,14.677316921560287Q14.141206830739975,15.222384221560288,14.141206830739975,16.00181492156029L14.141206830739975,16.175729921560286ZM15.733984830739974,15.175728121560287C15.386376830739975,15.289070921560288,15.141206830739975,15.612010921560287,15.141206830739975,16.00181492156029L15.141206830739975,16.175729921560286L16.141206830739975,16.175729921560286L16.880336830739974,16.175729921560286L16.880336830739974,16.00181492156029C16.880336830739974,15.612010921560287,16.635166830739976,15.289070921560288,16.287556830739973,15.175728121560287C16.200926830739974,15.147479221560287,16.107923830739974,15.132249921560287,16.010771830739976,15.132249921560287C15.913619830739975,15.132249921560287,15.820620830739974,15.147479221560287,15.733984830739974,15.175728121560287Z" fill-rule="evenodd" fill="#FFFFFF" fill-opacity="1"/></g><g><path d="" fill-rule="evenodd" fill="#FFFFFF" fill-opacity="1"/></g><g><path d="M15.880337109031677,21.914859921560286L15.880337109031677,16.123706921560288L15.880337109031677,16.00181492156029Q15.880337109031677,16.132249921560287,16.010772109031677,16.132249921560287L16.010772109031677,15.132249921560287C16.497729109031678,15.132249921560287,16.88033710903168,15.514858921560288,16.88033710903168,16.00181492156029L16.88033710903168,21.914859921560286C16.88033710903168,22.40181992156029,17.262942109031677,22.784419921560286,17.749902109031677,22.784419921560286L21.749902109031677,22.784419921560286L21.749902109031677,16.00181492156029C21.749902109031677,15.514858921560288,21.367292109031677,15.132249921560287,20.880342109031677,15.132249921560287L16.010772109031677,15.132249921560287L16.010772109031677,14.132249921560287L20.880342109031677,14.132249921560287Q21.659772109031678,14.132249921560287,22.204832109031678,14.677316921560287Q22.749902109031677,15.222383721560288,22.749902109031677,16.00181492156029L22.749902109031677,22.784419921560286Q22.749902109031677,22.882919921560287,22.730682109031676,22.979509921560286Q22.71147210903168,23.07610992156029,22.673782109031677,23.16710992156029Q22.63609210903168,23.258099921560287,22.581372109031676,23.33998992156029Q22.526652109031676,23.421889921560286,22.457012109031677,23.491529921560286Q22.387362109031677,23.561169921560285,22.305472109031676,23.61588992156029Q22.22358210903168,23.67060992156029,22.132582109031677,23.70829992156029Q22.041592109031676,23.745989921560287,21.944992109031677,23.765209921560288Q21.84839210903168,23.784419921560286,21.749902109031677,23.784419921560286L17.749902109031677,23.784419921560286Q16.970471109031678,23.784419921560286,16.42540410903168,23.239359921560286Q15.880337109031677,22.694289921560287,15.880337109031677,21.914859921560286Z" fill-rule="evenodd" fill="#FFFFFF" fill-opacity="1"/></g><g><path d="M18.619471301498415,20.740897178649902L22.793386301498412,20.740897178649902Q22.891876301498414,20.740897178649902,22.988476301498412,20.7601121786499Q23.08507630149841,20.7793271786499,23.176066301498413,20.817018178649903Q23.267066301498414,20.8547091786499,23.34895630149841,20.909427178649903Q23.430846301498413,20.9641461786499,23.500496301498412,21.0337901786499Q23.57013630149841,21.103434178649902,23.62485630149841,21.185327178649903Q23.679576301498415,21.267219178649903,23.717266301498412,21.358214178649902Q23.754956301498414,21.4492081786499,23.77416630149841,21.545807178649902Q23.793386301498412,21.642405778649902,23.793386301498412,21.740897178649902L23.793386301498412,21.9148101786499Q23.793386301498412,22.694241178649904,23.248316301498413,23.239307178649902Q22.703246301498414,23.7843771786499,21.923816301498412,23.7843771786499L17.749906301498413,23.7843771786499L17.650402601498413,21.789338278649904Q17.619471301498415,21.7924313786499,17.619471301498415,21.9148101786499L17.619471301498415,21.792918478649902L17.619471301498415,21.740897178649902Q17.619471301498415,21.642405778649902,17.638686301498414,21.545807178649902Q17.657901001498413,21.4492081786499,17.69559200149841,21.358214178649902Q17.733283001498414,21.267219178649903,17.78800190149841,21.185327178649903Q17.842720801498412,21.103434178649902,17.912364301498414,21.0337901786499Q17.982008301498414,20.9641461786499,18.06390130149841,20.909428178649904Q18.145794301498412,20.8547091786499,18.236788301498414,20.817018178649903Q18.327782301498413,20.7793271786499,18.424381301498414,20.7601121786499Q18.520980301498412,20.740897178649902,18.619471301498415,20.740897178649902ZM18.619471301498415,21.740897178649902L22.793386301498412,21.740897178649902L22.793386301498412,21.9148101786499C22.793386301498412,22.304614178649903,22.548216301498414,22.627554178649902,22.200606301498414,22.740897178649902C22.113966301498415,22.769147178649902,22.020976301498415,22.7843771786499,21.923816301498412,22.7843771786499L17.749906301498413,22.7843771786499Q18.619471301498415,22.697419178649902,18.619471301498415,21.9148101786499L18.619471301498415,21.740897178649902Z" fill-rule="evenodd" fill="#FFFFFF" fill-opacity="1"/></g></g><g><g><path d="M16.880336830739974,16.175729921560286L15.141206830739975,16.175729921560286L15.141206830739975,16.00181492156029C15.141206830739975,15.514858921560288,15.523815830739975,15.132249921560287,16.010771830739976,15.132249921560287C16.497726830739975,15.132249921560287,16.880336830739974,15.514858921560288,16.880336830739974,16.00181492156029L16.880336830739974,16.175729921560286Z" fill="#71C7FB" fill-opacity="1"/><path d="M17.130336830739974,16.175729921560286L17.130336830739974,16.00181492156029Q17.130336830739974,15.533044921560288,16.804936830739976,15.207647121560287Q16.479546830739974,14.882249921560287,16.010771830739976,14.882249921560287Q15.542000830739974,14.882249921560287,15.216604030739974,15.207647121560287Q14.891206830739975,15.533043921560287,14.891206830739975,16.00181492156029L14.891206830739975,16.175729921560286Q14.891206830739975,16.225459921560287,14.910236830739976,16.27139992156029Q14.929266830739975,16.317339921560286,14.964429830739975,16.352499921560288Q14.999592830739974,16.38766992156029,15.045536030739974,16.40669992156029Q15.091478730739976,16.425729921560286,15.141206830739975,16.425729921560286L16.880336830739974,16.425729921560286Q16.930066830739975,16.425729921560286,16.976006830739976,16.40669992156029Q17.021946830739974,16.38766992156029,17.057116830739975,16.352499921560288Q17.092276830739976,16.317339921560286,17.111306830739974,16.27139992156029Q17.130336830739974,16.225459921560287,17.130336830739974,16.175729921560286ZM16.626366830739975,15.925727921560288Q16.603696830739974,15.713506921560288,16.451386830739974,15.561200921560287Q16.272436830739974,15.382249921560287,16.010771830739976,15.382249921560287Q15.749107830739975,15.382249921560287,15.570157830739975,15.561200921560287Q15.417851830739975,15.713505921560287,15.395173830739974,15.925727921560288L16.626366830739975,15.925727921560288Z" fill-rule="evenodd" fill="#71C7FB" fill-opacity="1"/></g><g><path d="" fill-rule="evenodd" fill="#71C7FB" fill-opacity="1"/></g><g><path d="M16.010772109031677,15.132249921560287C16.497729109031678,15.132249921560287,16.88033710903168,15.514858921560288,16.88033710903168,16.00181492156029L16.88033710903168,21.914859921560286C16.88033710903168,22.40181992156029,17.262942109031677,22.784419921560286,17.749902109031677,22.784419921560286L21.749902109031677,22.784419921560286L21.749902109031677,16.00181492156029C21.749902109031677,15.514858921560288,21.367292109031677,15.132249921560287,20.880342109031677,15.132249921560287L16.010772109031677,15.132249921560287Z" fill="#FFFFFF" fill-opacity="1"/><path d="M16.63033710903168,21.914859921560286Q16.63033710903168,23.034419921560286,17.749902109031677,23.034419921560286L21.749902109031677,23.034419921560286Q21.799632109031677,23.034419921560286,21.84557210903168,23.01538992156029Q21.891512109031677,22.996359921560288,21.926682109031677,22.961199921560286Q21.96184210903168,22.92603992156029,21.98087210903168,22.880089921560288Q21.999902109031677,22.83414992156029,21.999902109031677,22.784419921560286L21.999902109031677,16.00181492156029Q21.999902109031677,15.533043921560287,21.67450210903168,15.207647121560287Q21.349112109031676,14.882249921560287,20.880342109031677,14.882249921560287L16.010772109031677,14.882249921560287Q15.961044009031678,14.882249921560287,15.915101309031677,14.901279921560288Q15.869158109031677,14.920309921560287,15.833995109031678,14.955472921560288Q15.798832109031677,14.990635921560287,15.779802109031678,15.036579121560287Q15.760772109031677,15.082521821560288,15.760772109031677,15.132249921560287Q15.760772109031677,15.181978021560287,15.779802109031678,15.227920721560288Q15.798832109031677,15.273863921560288,15.833995109031678,15.309026921560287Q15.869158109031677,15.344189921560288,15.915101309031677,15.363219921560287Q15.961044009031678,15.382249921560287,16.010772109031677,15.382249921560287Q16.63033710903168,15.382249921560287,16.63033710903168,16.00181492156029L16.63033710903168,21.914859921560286ZM17.007144109031678,15.382249921560287Q17.130342109031677,15.630435921560288,17.130342109031677,16.00181492156029L17.130342109031677,21.914859921560286Q17.130342109031677,22.17651992156029,17.309292109031677,22.35546992156029Q17.488242109031678,22.534419921560286,17.749902109031677,22.534419921560286L21.499902109031677,22.534419921560286L21.499902109031677,16.00181492156029Q21.499902109031677,15.740150921560288,21.320952109031676,15.561200921560287Q21.14200210903168,15.382249921560287,20.880342109031677,15.382249921560287L17.007144109031678,15.382249921560287Z" fill-rule="evenodd" fill="#71C7FB" fill-opacity="1"/></g><g><path d="M18.428428649902344,17.055908203125L20.428428649902344,17.055908203125Q20.478158649902344,17.055908203125,20.524098649902342,17.074938203125Q20.570038649902344,17.093968203125,20.605208649902345,17.129131203125Q20.640368649902342,17.164294203125,20.659398649902343,17.210237403125Q20.678428649902344,17.256180103125,20.678428649902344,17.305908203125Q20.678428649902344,17.355636303125,20.659398649902343,17.401579003125Q20.640368649902342,17.447522203125,20.605208649902345,17.482685203125Q20.570038649902344,17.517848203125,20.524098649902342,17.536878203125Q20.478158649902344,17.555908203125,20.428428649902344,17.555908203125L18.428428649902344,17.555908203125Q18.378700549902344,17.555908203125,18.332757849902343,17.536878203125Q18.286814649902343,17.517848203125,18.251651649902342,17.482685203125Q18.216488649902345,17.447522203125,18.197458649902345,17.401579003125Q18.178428649902344,17.355636303125,18.178428649902344,17.305908203125Q18.178428649902344,17.256180103125,18.197458649902345,17.210237403125Q18.216488649902345,17.164294203125,18.251651649902342,17.129131203125Q18.286814649902343,17.093968203125,18.332757849902343,17.074938203125Q18.378700549902344,17.055908203125,18.428428649902344,17.055908203125Z" fill-rule="evenodd" fill="#71C7FB" fill-opacity="1"/></g><g><path d="M18.428428649902344,18.055908203125L20.428428649902344,18.055908203125Q20.478158649902344,18.055908203125,20.524098649902342,18.074938203125Q20.570038649902344,18.093968203125,20.605208649902345,18.129131203125Q20.640368649902342,18.164294203125,20.659398649902343,18.210237403125Q20.678428649902344,18.256180103125,20.678428649902344,18.305908203125Q20.678428649902344,18.355636303125,20.659398649902343,18.401579003125Q20.640368649902342,18.447522203125,20.605208649902345,18.482685203125Q20.570038649902344,18.517848203125,20.524098649902342,18.536878203125Q20.478158649902344,18.555908203125,20.428428649902344,18.555908203125L18.428428649902344,18.555908203125Q18.378700549902344,18.555908203125,18.332757849902343,18.536878203125Q18.286814649902343,18.517848203125,18.251651649902342,18.482685203125Q18.216488649902345,18.447522203125,18.197458649902345,18.401579003125Q18.178428649902344,18.355636303125,18.178428649902344,18.305908203125Q18.178428649902344,18.256180103125,18.197458649902345,18.210237403125Q18.216488649902345,18.164294203125,18.251651649902342,18.129131203125Q18.286814649902343,18.093968203125,18.332757849902343,18.074938203125Q18.378700549902344,18.055908203125,18.428428649902344,18.055908203125Z" fill-rule="evenodd" fill="#71C7FB" fill-opacity="1"/></g><g><path d="M18.428428649902344,19.055908203125L19.428428649902344,19.055908203125Q19.478158649902344,19.055908203125,19.524098649902342,19.074938203125Q19.570038649902344,19.093968203125,19.605208649902345,19.129131203125Q19.640368649902342,19.164294203125,19.659398649902343,19.210237403125Q19.678428649902344,19.256180103125,19.678428649902344,19.305908203125Q19.678428649902344,19.355636303125,19.659398649902343,19.401579003125Q19.640368649902342,19.447522203125,19.605208649902345,19.482685203125Q19.570038649902344,19.517848203125,19.524098649902342,19.536878203125Q19.478158649902344,19.555908203125,19.428428649902344,19.555908203125L18.428428649902344,19.555908203125Q18.378700549902344,19.555908203125,18.332757849902343,19.536878203125Q18.286814649902343,19.517848203125,18.251651649902342,19.482685203125Q18.216488649902345,19.447522203125,18.197458649902345,19.401579003125Q18.178428649902344,19.355636303125,18.178428649902344,19.305908203125Q18.178428649902344,19.256180103125,18.197458649902345,19.210237403125Q18.216488649902345,19.164294203125,18.251651649902342,19.129131203125Q18.286814649902343,19.093968203125,18.332757849902343,19.074938203125Q18.378700549902344,19.055908203125,18.428428649902344,19.055908203125Z" fill-rule="evenodd" fill="#71C7FB" fill-opacity="1"/></g><g><path d="M18.619471301498415,21.740897178649902L18.619471301498415,21.9148101786499Q18.619471301498415,22.697419178649902,17.749906301498413,22.7843771786499Q21.871646301498412,22.7843771786499,21.923816301498412,22.7843771786499C22.410776301498412,22.7843771786499,22.793386301498412,22.401766178649904,22.793386301498412,21.9148101786499L22.793386301498412,21.740897178649902L18.619471301498415,21.740897178649902Z" fill="#71C7FB" fill-opacity="1"/><path d="M23.043386301498412,21.740897178649902Q23.043386301498412,21.691169078649903,23.024356301498415,21.6452263786499Q23.005326301498414,21.5992831786499,22.970156301498413,21.5641201786499Q22.934996301498412,21.528957178649904,22.889056301498414,21.509927178649903Q22.843116301498412,21.490897178649902,22.793386301498412,21.490897178649902L18.619471301498415,21.490897178649902Q18.569743301498413,21.490897178649902,18.52380030149841,21.509927178649903Q18.477857301498414,21.528957178649904,18.442694301498413,21.5641201786499Q18.407531301498413,21.5992831786499,18.388501301498412,21.6452263786499Q18.369471301498415,21.691169078649903,18.369471301498415,21.740897178649902L18.369471301498415,21.9148101786499Q18.369471301498415,22.4711721786499,17.72503040149841,22.535616178649903Q17.62199130149841,22.5459201786499,17.556417301498414,22.626066178649904Q17.490843301498412,22.706212178649903,17.501147301498413,22.8092471786499Q17.50577330149841,22.8555171786499,17.526726301498414,22.897027178649903Q17.547679301498412,22.938537178649902,17.582155301498414,22.9697371786499Q17.616631301498412,23.000937178649902,17.660019701498413,23.017657178649902Q17.703408301498413,23.0343771786499,17.749906301498413,23.0343771786499L21.923816301498412,23.0343771786499Q22.39258630149841,23.0343771786499,22.717986301498414,22.708978178649904Q23.043386301498412,22.3835811786499,23.043386301498412,21.9148101786499L23.043386301498412,21.740897178649902ZM22.539416301498413,21.990897178649902L18.867856301498414,21.990897178649902Q18.854056301498414,22.311247178649904,18.721909301498414,22.534375178649903L21.923816301498412,22.534375178649903Q22.185486301498415,22.534375178649903,22.364436301498415,22.355425178649902Q22.516736301498412,22.203119178649903,22.539416301498413,21.990897178649902Z" fill-rule="evenodd" fill="#71C7FB" fill-opacity="1"/></g></g></g></svg>