<svg xmlns="http://www.w3.org/2000/svg" xmlns:xlink="http://www.w3.org/1999/xlink" fill="none" version="1.1" width="24" height="24" viewBox="0 0 24 24"><defs><clipPath id="master_svg0_732_53799"><rect x="0" y="0" width="24" height="24" rx="0"/></clipPath></defs><g clip-path="url(#master_svg0_732_53799)"><g><path d="M8.17157,2L3,2C1.8954309999999999,2,1,2.895431,1,4L1,19C1,20.1046,1.8954309999999999,21,3,21L21,21C22.1046,21,23,20.1046,23,19L23,7C23,5.89543,22.1046,5,21,5L12.8284,5C12.298,5,11.7893,4.789289999999999,11.4142,4.414210000000001L9.58579,2.585786C9.21071,2.210714,8.70201,2,8.17157,2" fill="#165DFF" fill-opacity="1"/></g><g><path d="M11.996858115234375,10.00216C11.996328115234375,7.98857,13.940708115234376,6.54643,15.867478115234375,7.131329C16.177268115234376,7.225171,16.275068115234376,7.615403,16.046268115234376,7.844323L14.149548115234374,9.7405C14.185538115234374,10.01187,14.307228115234375,10.2741,14.515758115234375,10.48263C14.724288115234375,10.69116,14.986518115234375,10.81284,15.258458115234374,10.84827L17.154068115234374,8.95209C17.382968115234377,8.72327,17.773168115234377,8.82114,17.867068115234375,9.13091C18.483468115234373,11.161069999999999,16.854768115234375,13.1719,14.740848115234375,12.99067C14.159258115234374,12.94154,13.672508115234375,13.04781,13.421698115234374,13.35289L9.336838115234375,18.314700000000002C8.628878115234375,19.1702,7.338378115234375,19.231,6.553091115234375,18.4459C5.767807115234375,17.660800000000002,5.828347115234375,16.370269999999998,6.683681115234375,15.66212L11.644928115234375,11.57668C11.949438115234376,11.32531,12.056268115234374,10.83912,12.007138115234376,10.25753C12.000148115234374,10.17259,11.996718115234376,10.08739,11.996858115234375,10.00216ZM7.493228115234375,17.0721C7.493228115234375,16.835459999999998,7.685068115234375,16.64363,7.921708115234375,16.64363L7.926278115234375,16.64363C8.162918115234374,16.64363,8.354758115234375,16.835459999999998,8.354758115234375,17.0721L8.354758115234375,17.076700000000002C8.354758115234375,17.313299999999998,8.162918115234374,17.505200000000002,7.926278115234375,17.505200000000002L7.921708115234375,17.505200000000002C7.685068115234375,17.505200000000002,7.493228115234375,17.313299999999998,7.493228115234375,17.076700000000002L7.493228115234375,17.0721Z" fill-rule="evenodd" fill="#FFFFFF" fill-opacity="1"/></g><g style="opacity:0.800000011920929;"><path d="M10.8976844140625,11.081882734375L9.6402344140625,9.825002734375L9.6402344140625,8.930332734375C9.6402244140625,8.779862734375,9.5612844140625,8.640422734375,9.4322744140625,8.562982734375L7.2898644140624995,7.277535534375C7.1212684140625,7.176469034375,6.9055274140625,7.203083334375,6.7665464140625,7.342093734375L6.3380654140625,7.770574734375C6.1990551140625,7.909555734375,6.1724407140625,8.125296734375,6.2735072140625,8.293892734375L7.5589544140625,10.436302734375C7.6364144140625,10.565322734375,7.7758444140625,10.644262734375,7.9263044140625,10.644262734375L8.8198344140625,10.644262734375L9.997874414062501,11.822302734375L10.8976844140625,11.081312734375L10.8976844140625,11.081882734375Z" fill="#FFFFFF" fill-opacity="1"/></g><g style="opacity:0.800000011920929;"><path d="M12.31451416015625,16.045888359375L14.70430416015625,18.435098359375C15.45730416015625,19.188098359375,16.67815416015625,19.188108359375,17.43115416015625,18.435098359375C18.18416416015625,17.682098359375,18.18416416015625,16.461248359375,17.43115416015625,15.708248359375L15.54241416015625,13.820068359375C15.25289416015625,13.861112959375,14.95967416015625,13.869353759375,14.66830416015625,13.844634759375C14.44321416015625,13.825210039375,14.27867416015625,13.841207159375,14.17298416015625,13.868629659375C14.13953416015625,13.875710959375,14.10736416015625,13.887847359375,14.07757416015625,13.904621959375L12.31451416015625,16.045888359375ZM14.26496416015625,15.268908359375C14.43225416015625,15.101828359375,14.70326416015625,15.101828359375,14.87055416015625,15.268908359375L15.94175416015625,16.340678359375C16.11922416015625,16.506048359375,16.12415416015625,16.785628359375,15.95263416015625,16.957148359375C15.78111416015625,17.128678359375,15.50153416015625,17.123738359375,15.336164160156251,16.946268359375L14.26496416015625,15.875068359375C14.09788416015625,15.707778359375,14.09788416015625,15.436768359375,14.26496416015625,15.269478359375L14.26496416015625,15.268908359375Z" fill-rule="evenodd" fill="#FFFFFF" fill-opacity="1"/></g></g></svg>