<svg xmlns="http://www.w3.org/2000/svg" xmlns:xlink="http://www.w3.org/1999/xlink" fill="none" version="1.1" width="24" height="24" viewBox="0 0 24 24"><defs><clipPath id="master_svg0_1306_62087"><rect x="0" y="0" width="24" height="24" rx="0"/></clipPath></defs><g clip-path="url(#master_svg0_1306_62087)"><g><path d="M9.19868,17.751774875Q9.25,17.597824875,9.25,17.435546875Q9.25,17.337055475,9.23078,17.240456875Q9.21157,17.143857875,9.17388,17.052863875Q9.13619,16.961868875,9.08147,16.879976875Q9.02675,16.798083875,8.95711,16.728439875Q8.88746,16.658795875,8.80557,16.604076875Q8.72368,16.549358875,8.63268,16.511667875Q8.54169,16.473976874999998,8.44509,16.454761875Q8.34849,16.435546875,8.25,16.435546875Q8.17178,16.435546875,8.0945,16.447710875Q8.01723,16.459873875,7.9427900000000005,16.483905875Q7.8683499999999995,16.507936875,7.7985500000000005,16.543251875Q7.728749,16.578565875,7.66529,16.624304875Q7.601831,16.670042875,7.546256,16.725092875Q7.490681,16.780142875,7.444343,16.843164875Q7.398004,16.906186875,7.362029,16.975647875Q7.326053,17.045108875,7.301317,17.119318875L7.301247,17.119528875L6.301317,20.119316875L5.801317,21.619316875Q5.75,21.773266875,5.75,21.935546875Q5.75,22.034036874999998,5.769215,22.130636875Q5.78843,22.227236875,5.826121,22.318226875Q5.863812,22.409226875,5.91853,22.491116875Q5.973249,22.573006875,6.042893,22.642656875Q6.112537,22.712296875,6.19443,22.767016875Q6.276322,22.821736875,6.367317,22.859426875Q6.458311,22.897116875000002,6.55491,22.916326875Q6.6515086,22.935546875,6.75,22.935546875Q6.8282243,22.935546875,6.905497,22.923386875Q6.98277,22.911216875,7.057212,22.887186875Q7.131653,22.863156875,7.201452,22.827846875Q7.271251,22.792526875,7.33471,22.746786874999998Q7.398169,22.701046875,7.453744,22.645996875Q7.509319,22.590946875,7.555658,22.527926875Q7.601996,22.464906875,7.637971,22.395446875Q7.673947,22.325986874999998,7.698683,22.251776875L7.69881,22.251396875L7.97076,21.435546875L16.02924,21.435546875L16.30132,22.251776875Q16.326050000000002,22.325986874999998,16.36203,22.395446875Q16.398,22.464906875,16.44434,22.527926875Q16.490679999999998,22.590946875,16.54626,22.645996875Q16.60183,22.701046875,16.66529,22.746786874999998Q16.728749999999998,22.792526875,16.7985,22.827836875Q16.868299999999998,22.863156875,16.9428,22.887186875Q17.017200000000003,22.911216875,17.0945,22.923386875Q17.171799999999998,22.935546875,17.25,22.935546875Q17.3485,22.935546875,17.4451,22.916326875Q17.5417,22.897116875000002,17.6327,22.859426875Q17.7237,22.821736875,17.8056,22.767016875Q17.8875,22.712296875,17.9571,22.642656875Q18.0268,22.573006875,18.0815,22.491116875Q18.136200000000002,22.409226875,18.1739,22.318226875Q18.2116,22.227236875,18.230800000000002,22.130636875Q18.25,22.034036874999998,18.25,21.935546875Q18.25,21.773266875,18.198700000000002,21.619316875L18.1983,21.618286875L17.698700000000002,20.119316875L16.69868,17.119318875Q16.673949999999998,17.045108875,16.63797,16.975647875Q16.602,16.906186875,16.55566,16.843164875Q16.509320000000002,16.780142875,16.45374,16.725092875Q16.39817,16.670042875,16.33471,16.624304875Q16.271250000000002,16.578565875,16.20145,16.543251875Q16.13165,16.507936875,16.057209999999998,16.483905875Q15.98277,16.459873875,15.9055,16.447710875Q15.82822,16.435546875,15.75,16.435546875Q15.65151,16.435546875,15.55491,16.454761875Q15.45831,16.473976874999998,15.36732,16.511667875Q15.27632,16.549358875,15.19443,16.604076875Q15.11254,16.658795875,15.04289,16.728439875Q14.97325,16.798083875,14.91853,16.879976875Q14.86381,16.961868875,14.82612,17.052863875Q14.78843,17.143857875,14.76921,17.240456875Q14.75,17.337055475,14.75,17.435546875Q14.75,17.597824875,14.80132,17.751774875L15.36257,19.435546875L8.63743,19.435546875L9.19861,17.751983875L9.19868,17.751774875Z" fill-rule="evenodd" fill="#DDBEF6" fill-opacity="1" style="mix-blend-mode:passthrough"/></g><g><path d="M3.111114501953125,3.111083984375L3.111114501953125,14.222183984375C3.111114501953125,15.449483984375,4.106037501953125,16.444383984375,5.333334501953125,16.444383984375L18.666714501953123,16.444383984375C19.894014501953126,16.444383984375,20.888914501953124,15.449483984375,20.888914501953124,14.222183984375L20.888914501953124,3.111083984375" fill="#8D4EDA" fill-opacity="1"/><path d="M2.111114501953125,3.111083984375Q2.111114501953125,3.012592584375,2.130329501953125,2.915993984375Q2.149544501953125,2.819394984375,2.187235501953125,2.728400984375Q2.2249265019531252,2.637405984375,2.279644501953125,2.555513984375Q2.334363501953125,2.473620984375,2.404007501953125,2.403976984375Q2.473651501953125,2.334332984375,2.555544501953125,2.279613984375Q2.637436501953125,2.2248959843750002,2.728431501953125,2.187204984375Q2.819425501953125,2.149513984375,2.916024501953125,2.130298984375Q3.012623101953125,2.111083984375,3.111114501953125,2.111083984375Q3.209605901953125,2.111083984375,3.306204501953125,2.130298984375Q3.402803501953125,2.149513984375,3.493797501953125,2.187204984375Q3.584792501953125,2.2248959843750002,3.666684501953125,2.279613984375Q3.748577501953125,2.334332984375,3.818221501953125,2.403976984375Q3.887865501953125,2.473620984375,3.942584501953125,2.555513984375Q3.9973025019531248,2.637405984375,4.034993501953125,2.728400984375Q4.072684501953125,2.819394984375,4.091899501953125,2.915993984375Q4.111114501953125,3.012592584375,4.111114501953125,3.111083984375L4.111114501953125,14.222183984375Q4.111114501953125,14.728483984375,4.4690945019531245,15.086483984375Q4.827074501953125,15.444383984375,5.333334501953125,15.444383984375L18.666714501953123,15.444383984375Q19.172914501953127,15.444383984375,19.530914501953124,15.086483984375Q19.888914501953124,14.728483984375,19.888914501953124,14.222183984375L19.888914501953124,3.111083984375Q19.888914501953124,3.012592584375,19.908114501953126,2.915993984375Q19.927314501953123,2.819394984375,19.965014501953124,2.728400984375Q20.002714501953125,2.637405984375,20.057414501953126,2.555513984375Q20.112114501953126,2.473620984375,20.181814501953124,2.403976984375Q20.251414501953125,2.334332984375,20.333314501953126,2.279613984375Q20.415214501953123,2.2248959843750002,20.506214501953124,2.187204984375Q20.597214501953125,2.149513984375,20.693814501953124,2.130298984375Q20.790414501953126,2.111083984375,20.888914501953124,2.111083984375Q20.987414501953126,2.111083984375,21.084014501953124,2.130298984375Q21.180614501953126,2.149513984375,21.271614501953124,2.187204984375Q21.362614501953125,2.2248959843750002,21.444414501953126,2.279613984375Q21.526314501953124,2.334332984375,21.596014501953125,2.403976984375Q21.665614501953126,2.473620984375,21.720314501953126,2.555513984375Q21.775114501953126,2.637405984375,21.812814501953124,2.728400984375Q21.850414501953125,2.819394984375,21.869714501953126,2.915993984375Q21.888914501953124,3.012592584375,21.888914501953124,3.111083984375L21.888914501953124,14.222183984375Q21.888914501953124,15.556883984375,20.945114501953125,16.500683984375Q20.001314501953125,17.444383984375,18.666714501953123,17.444383984375L5.333334501953125,17.444383984375Q3.998648501953125,17.444383984375,3.054881101953125,16.500683984375Q2.111114501953125,15.556883984375,2.111114501953125,14.222183984375L2.111114501953125,3.111083984375Z" fill-rule="evenodd" fill="#8D4EDA" fill-opacity="1" style="mix-blend-mode:passthrough"/></g><g><path d="M11.621330791015625,5.777832911565C11.245120791015625,5.777832911565,10.924300791015625,6.04983303125,10.862350791015626,6.42070503125L10.789330791015626,6.86050203125C10.781120791015624,6.90973203125,10.742150791015625,6.96716203125,10.667480791015624,7.00327203125C10.526910791015625,7.07084203125,10.391680791015625,7.14901203125,10.262970791015626,7.23711203125C10.194870791015624,7.28429203125,10.125940791015624,7.28881203125,10.078350791015625,7.27116203125L9.661120791015625,7.11445203125C9.308880791015625,6.98248203125,8.912858791015625,7.12461203125,8.724917791015624,7.45045203125L8.346661791015626,8.10563203125C8.158655591015625,8.43126203125,8.233612751015626,8.845092031250001,8.523892791015625,9.08409203125L8.868507791015626,9.36798203125C8.907481791015625,9.39998203125,8.938250791015625,9.46193203125,8.931686791015625,9.54439203125C8.919995791015625,9.69994203125,8.919995791015625,9.856132031249999,8.931686791015625,10.01168203125C8.937840791015624,10.09373203125,8.907481791015625,10.156092031250001,8.868917791015624,10.188092031250001L8.523891791015625,10.47198203125C8.233613041015625,10.71099203125,8.158655891015625,11.12481203125,8.346661791015626,11.45045203125L8.724917791015624,12.10563203125C8.912989791015626,12.43131203125,9.308980791015625,12.57325203125,9.661120791015625,12.44121203125L10.079170791015624,12.28450203125C10.126350791015625,12.26686203125,10.195280791015625,12.27178203125,10.263790791015625,12.31814203125C10.391790791015625,12.40593203125,10.526760791015626,12.48429203125,10.667890791015624,12.551982031249999C10.742560791015626,12.58809203125,10.781530791015625,12.64552203125,10.789740791015625,12.69557203125L10.862760791015624,13.13496203125C10.924710791015626,13.50583203125,11.245530791015625,13.77783203125,11.621740791015625,13.77783203125L12.378250791015624,13.77783203125C12.754040791015626,13.77783203125,13.075280791015626,13.50583203125,13.137220791015626,13.13496203125L13.210250791015625,12.69516203125C13.218460791015625,12.64593203125,13.257020791015625,12.58850203125,13.332100791015625,12.551982031249999C13.473220791015624,12.48429203125,13.608200791015625,12.40593203125,13.736200791015625,12.31814203125C13.804710791015625,12.27137203125,13.873630791015625,12.26686203125,13.920810791015626,12.28450203125L14.339280791015625,12.44121203125C14.691290791015625,12.572722031249999,15.086790791015625,12.43065203125,15.274660791015625,12.10521203125L15.653330791015625,11.45003203125C15.841330791015626,11.12440203125,15.766380791015624,10.710572031249999,15.476100791015625,10.47157203125L15.131480791015626,10.187682031249999C15.092510791015625,10.155682031249999,15.061740791015625,10.09373203125,15.068300791015625,10.01127203125C15.079970791015626,9.85572203125,15.079970791015626,9.69953203125,15.068300791015625,9.54398203125C15.061740791015625,9.46193203125,15.092510791015625,9.399572031249999,15.131070791015624,9.367572031249999L15.475690791015625,9.08368203125C15.766150791015626,8.84491203125,15.841230791015626,8.43137203125,15.653330791015625,8.10521203125L15.275070791015626,7.45003203125C15.087000791015626,7.12435203125,14.691010791015625,6.98241203125,14.338870791015625,7.11445203125L13.920410791015625,7.27116203125C13.873640791015625,7.28880203125,13.804710791015625,7.28388203125,13.736200791015625,7.23711203125C13.607630791015625,7.14903203125,13.472530791015625,7.07085203125,13.332100791015625,7.00327203125C13.257020791015625,6.9675720312500005,13.218460791015625,6.91014203125,13.210250791015625,6.86050203125L13.136820791015625,6.42070403125C13.075030791015624,6.04967103125,12.753980791015625,5.77773783755,12.377840791015625,5.7778321290627L11.621740791015625,5.7778321290627L11.621330791015625,5.777832911565ZM11.999580791015624,11.31629203125C12.849250791015624,11.31629203125,13.538050791015625,10.62750203125,13.538050791015625,9.77783203125C13.538050791015625,8.92816203125,12.849250791015624,8.23937203125,11.999580791015624,8.23937203125C11.149910791015625,8.23937203125,10.461120791015626,8.92816203125,10.461120791015626,9.77783203125C10.461120791015626,10.62750203125,11.149910791015625,11.31629203125,11.999580791015624,11.31629203125Z" fill-rule="evenodd" fill="#FFFFFF" fill-opacity="1" style="mix-blend-mode:passthrough"/></g><g><path d="M2,2.111083984375L22,2.111083984375Q22.0985,2.111083984375,22.1951,2.130298984375Q22.2917,2.149513984375,22.3827,2.187204984375Q22.4737,2.2248959843750002,22.5556,2.279613984375Q22.6375,2.334332984375,22.7071,2.403976984375Q22.7767,2.473620984375,22.8315,2.555513984375Q22.8862,2.637405984375,22.9239,2.728400984375Q22.9616,2.819394984375,22.9808,2.915993984375Q23,3.012592584375,23,3.111083984375Q23,3.209575384375,22.9808,3.306173984375Q22.9616,3.402772984375,22.9239,3.493766984375Q22.8862,3.584761984375,22.8315,3.666653984375Q22.7767,3.748546984375,22.7071,3.818190984375Q22.6375,3.887834984375,22.5556,3.942553984375Q22.4737,3.9972719843749998,22.3827,4.034962984375Q22.2917,4.072653984375,22.1951,4.091868984375Q22.0985,4.111083984375,22,4.111083984375L2,4.111083984375Q1.9015086,4.111083984375,1.80491,4.091868984375Q1.7083110000000001,4.072653984375,1.617317,4.034962984375Q1.526322,3.9972719843749998,1.44443,3.942553984375Q1.362537,3.887834984375,1.2928929999999998,3.818190984375Q1.223249,3.748546984375,1.16853,3.666653984375Q1.113812,3.584761984375,1.076121,3.493766984375Q1.03843,3.402772984375,1.019215,3.306173984375Q1,3.209575384375,1,3.111083984375Q1,3.012592584375,1.019215,2.915993984375Q1.03843,2.819394984375,1.076121,2.728400984375Q1.113812,2.637405984375,1.16853,2.555513984375Q1.223249,2.473620984375,1.2928929999999998,2.403976984375Q1.362537,2.334332984375,1.44443,2.279613984375Q1.526322,2.2248959843750002,1.617317,2.187204984375Q1.7083110000000001,2.149513984375,1.80491,2.130298984375Q1.9015086,2.111083984375,2,2.111083984375Z" fill-rule="evenodd" fill="#DDBEF6" fill-opacity="1" style="mix-blend-mode:passthrough"/></g></g></svg>