<svg xmlns="http://www.w3.org/2000/svg" xmlns:xlink="http://www.w3.org/1999/xlink" fill="none" version="1.1" width="24" height="24" viewBox="0 0 24 24"><defs><clipPath id="master_svg0_732_53087"><rect x="0" y="0" width="24" height="24" rx="0"/></clipPath></defs><g clip-path="url(#master_svg0_732_53087)"><g><path d="M11.000038447265625,6.999755859375Q11.000038447265625,6.901264459375,11.019248447265625,6.804665859375Q11.038468447265625,6.708066859375,11.076158447265625,6.617072859375Q11.113848447265624,6.526077859375,11.168568447265624,6.444185859375Q11.223288447265624,6.362292859375,11.292928447265625,6.292648859375Q11.362568447265625,6.223004859375,11.444468447265624,6.168285859375Q11.526358447265626,6.113567859375,11.617348447265625,6.075876859375Q11.708348447265625,6.038185859375,11.804948447265625,6.018970859375Q11.901538447265626,5.999755859375,12.000038447265625,5.999755859375Q12.098528447265625,5.999755859375,12.195128447265624,6.018970859375Q12.291728447265626,6.038185859375,12.382718447265624,6.075876859375Q12.473708447265626,6.113567859375,12.555608447265625,6.168285859375Q12.637498447265624,6.223004859375,12.707138447265624,6.292648859375Q12.776788447265625,6.362292859375,12.831508447265625,6.444185859375Q12.886218447265625,6.526077859375,12.923918447265624,6.617072859375Q12.961608447265625,6.708066859375,12.980818447265625,6.804665859375Q13.000038447265625,6.901264459375,13.000038447265625,6.999755859375L13.000038447265625,10.999805859375L15.333408447265626,10.999805859375Q16.437978447265625,10.999805859375,17.219008447265622,11.780855859375Q18.000108447265625,12.561915859375,18.000108447265625,13.666485859375001L18.000108447265625,16.999855859375Q18.000108447265625,17.098355859374998,17.980908447265627,17.194955859375Q17.961608447265625,17.291555859375002,17.924008447265624,17.382555859375Q17.886308447265627,17.473555859375,17.831508447265627,17.555455859375Q17.776808447265623,17.637355859375,17.707208447265625,17.706955859375Q17.637508447265624,17.776555859375,17.555608447265627,17.831355859375Q17.473808447265625,17.886055859375,17.382808447265624,17.923755859375Q17.291808447265623,17.961455859375,17.195208447265625,17.980655859375Q17.098608447265626,17.999855859375,17.000108447265625,17.999855859375Q16.901588447265624,17.999855859375,16.804998447265625,17.980655859375Q16.708398447265623,17.961455859375,16.617398447265625,17.923755859375Q16.526408447265624,17.886055859375,16.444508447265626,17.831355859375Q16.362618447265625,17.776555859375,16.292978447265625,17.706955859375Q16.223328447265626,17.637355859375,16.168608447265626,17.555455859375Q16.113898447265626,17.473555859375,16.076208447265625,17.382555859375Q16.038508447265627,17.291555859375002,16.019298447265626,17.194955859375Q16.000088447265625,17.098355859374998,16.000088447265625,16.999855859375L16.000088447265625,13.666485859375001Q16.000088447265625,13.390335859375,15.804818447265625,13.195075859374999Q15.609548447265626,12.999805859375,15.333408447265626,12.999805859375L8.666588447265624,12.999805859375Q7.999908447265625,12.999805859375,7.999908447265625,13.666485859375001L7.999908447265625,16.999855859375Q7.999908447265625,17.098355859374998,7.980693447265625,17.194955859375Q7.961478447265625,17.291555859375002,7.923787447265625,17.382555859375Q7.886096447265625,17.473555859375,7.831378447265625,17.555455859375Q7.776659447265625,17.637355859375,7.707015447265625,17.706955859375Q7.637371447265625,17.776555859375,7.555478447265625,17.831355859375Q7.473586447265625,17.886055859375,7.382591447265625,17.923755859375Q7.291597447265625,17.961455859375,7.194998447265625,17.980655859375Q7.098399847265625,17.999855859375,6.999908447265625,17.999855859375Q6.901417047265625,17.999855859375,6.804818447265625,17.980655859375Q6.708219447265625,17.961455859375,6.617225447265625,17.923755859375Q6.526230447265625,17.886055859375,6.444338447265625,17.831355859375Q6.362445447265625,17.776555859375,6.292801447265625,17.706955859375Q6.223157447265625,17.637355859375,6.168438447265625,17.555455859375Q6.113720447265625,17.473555859375,6.076029447265625,17.382555859375Q6.038338447265625,17.291555859375002,6.019123447265625,17.194955859375Q5.999908447265625,17.098355859374998,5.999908447265625,16.999855859375L5.999908447265625,13.666485859375001Q5.999908447265625,12.561915859375,6.780962447265625,11.780855859375Q7.562015447265625,10.999805859375,8.666588447265624,10.999805859375L11.000038447265625,10.999805859375L11.000038447265625,6.999755859375Z" fill-rule="evenodd" fill="#7BC0FC" fill-opacity="1"/></g><g><rect x="13.666717529296875" y="15.333251953125" width="6.6667327880859375" height="6.6667327880859375" rx="1.6666831970214844" fill="#165DFF" fill-opacity="1"/></g><g><rect x="3.66656494140625" y="15.333251953125" width="6.6667327880859375" height="6.6667327880859375" rx="1.6666831970214844" fill="#165DFF" fill-opacity="1"/></g><g><rect x="8.66668701171875" y="2" width="6.6667327880859375" height="6.6667327880859375" rx="1.6666831970214844" fill="#165DFF" fill-opacity="1"/></g><g><path d="M18.89889298828125,14.966332859375001L15.333192988281251,18.531910859375L14.434412988281249,17.633130859375Q13.70218298828125,16.900900859375,12.66664298828125,16.900900859375Q11.63111298828125,16.900900859375,10.89887898828125,17.633130859375L10.62620598828125,17.905800859375C10.23568188828125,18.296330859375,10.23568188828125,18.929490859375,10.62620598828125,19.320020859375L13.29291298828125,21.986720859374998C13.29291298828125,21.986720859374998,13.30401298828125,21.997660859375,13.30401298828125,21.997660859375L13.56552298828125,22.259180859375Q14.29774298828125,22.991450859375,15.33330298828125,22.991470859375Q16.36886298828125,22.991490859375,17.10111298828125,22.259240859374998L22.70711298828125,16.653270859375C23.09761298828125,16.262740859375,23.09761298828125,15.629580859375,22.70711298828125,15.239060859375L22.434412988281252,14.966364859375Q21.70221298828125,14.234140157695,20.66661298828125,14.234130859375Q19.63113298828125,14.234121680255,18.89889298828125,14.966332859375001Z" fill-rule="evenodd" fill="#FFFFFF" fill-opacity="1"/></g><g><path d="M11.33331298828125,18.612871015625L14.00001298828125,21.279581015625L15.33331298828125,19.946211015625L13.72730298828125,18.340201015625C13.14152298828125,17.754415015625,12.191772988281251,17.754415015625,11.60598598828125,18.340201015625L11.33331298828125,18.612871015625Z" fill="#7BC0FC" fill-opacity="1"/></g><g><path d="M13.999908447265625,21.27929296875L14.272652447265624,21.55206296875C14.858433447265625,22.13788296875,15.808208447265624,22.137892968750002,16.394008447265627,21.55209296875L21.999978447265626,15.94612296875L21.727288447265625,15.67343296875C21.141508447265625,15.08765596875,20.191778447265627,15.08764696875,19.605988447265624,15.67341296875L13.999908447265625,21.27929296875Z" fill="#165DFF" fill-opacity="1"/></g></g></svg>