<svg xmlns="http://www.w3.org/2000/svg" xmlns:xlink="http://www.w3.org/1999/xlink" fill="none" version="1.1" width="24" height="24" viewBox="0 0 24 24"><defs><clipPath id="master_svg0_732_53810"><rect x="0" y="0" width="24" height="24" rx="0"/></clipPath></defs><g clip-path="url(#master_svg0_732_53810)"><g><path d="M12.00024318359375,7.000904453125C11.99936318359375,3.644934453125,15.23996318359375,1.241365453125,18.45126318359375,2.216196453125C18.96756318359375,2.372598453125,19.13066318359375,3.022984453125,18.74926318359375,3.404524453125L15.58806318359375,6.564814453125C15.64806318359375,7.017094453125,15.85086318359375,7.454144453125,16.19836318359375,7.801694453125C16.54596318359375,8.149244453125,16.98296318359375,8.352054453125,17.436263183593752,8.411094453125L20.59556318359375,5.250804453125C20.97716318359375,4.869434453125,21.62746318359375,5.032554453125,21.78386318359375,5.548834453125C22.81116318359375,8.932424453125,20.09676318359375,12.283814453125,16.57356318359375,11.981774453125C15.60426318359375,11.899884453125,14.79296318359375,12.077014453125,14.37496318359375,12.585414453125L7.56688318359375,20.855114453125C6.38694318359375,22.280914453125,4.23610318359375,22.382314453125,2.92730118359375,21.073814453125C1.61849518359375,19.765314453125,1.71939418359375,17.614414453125,3.14495318359375,16.434214453125L11.41369318359375,9.625124453125C11.92121318359375,9.206164453125,12.09926318359375,8.395854453125,12.01736318359375,7.426534453125C12.00572318359375,7.284964453125,12.00001318359375,7.142964453125,12.00024318359375,7.000904453125ZM4.49419318359375,18.784114453125C4.49419318359375,18.389714453125,4.81392318359375,18.070014453125,5.20833318359375,18.070014453125L5.21594318359375,18.070014453125C5.61035318359375,18.070014453125,5.93008318359375,18.389714453125,5.93008318359375,18.784114453125L5.93008318359375,18.791814453125C5.93008318359375,19.186214453125,5.61035318359375,19.505914453125,5.21594318359375,19.505914453125L5.20833318359375,19.505914453125C4.81392318359375,19.505914453125,4.49419318359375,19.186214453125,4.49419318359375,18.791814453125L4.49419318359375,18.784114453125Z" fill-rule="evenodd" fill="#165DFF" fill-opacity="1"/></g><g><path d="M10.168249658203125,8.800374296874999L8.072489658203125,6.705574296875L8.072489658203125,5.214454296875C8.072479658203125,4.963674296875,7.940919658203125,4.731274296875,7.725899658203125,4.602204296875L4.155219658203125,2.459792296875C3.874219658203125,2.291348196875,3.514659658203125,2.335705296875,3.283020658203125,2.567388296875L2.568883658203125,3.281525296875C2.337200758203125,3.513164296875,2.292843558203125,3.872724296875,2.461287658203125,4.153724296875L4.603699658203125,7.724404296875C4.732789658203124,7.939434296875,4.9651896582031245,8.071004296875,5.215949658203125,8.070994296875L6.705159658203125,8.070994296875L8.668559658203126,10.034394296875L10.168249658203125,8.799414296875L10.168249658203125,8.800374296874999Z" fill="#7BC0FC" fill-opacity="1"/></g><g><path d="M16.688021630859375,13.993408203125C16.443571630859374,13.993408203125,16.234681630859374,14.170297203125,16.194681630859375,14.411186203125L16.099571630859376,14.980518203125C16.072021630859375,15.146738203125,15.960901630859375,15.285408203125,15.813351630859374,15.366738203125C15.780461630859374,15.385408203125,15.747571630859376,15.404078203125,15.715571630859376,15.423628203125C15.571131630859375,15.510738203125,15.395571630859376,15.537848203125,15.237351630859376,15.478738203125L14.696901630859376,15.276078203125C14.467891630859375,15.190068203125,14.210264630859374,15.282398203125,14.088016630859375,15.494298203125L13.511572630859375,16.492958203125C13.389705730859376,16.704608203124998,13.438562500859375,16.973318203125,13.627128630859374,17.128518203125L14.073350630859375,17.496078203125002C14.203127630859376,17.603188203125,14.267572630859375,17.768078203125,14.264461630859374,17.936958203125002C14.263766630859376,17.974738203125,14.263766630859376,18.012518203125,14.264461630859374,18.050298203125C14.267572630859375,18.218298203125002,14.203127630859376,18.384078203125,14.073350630859375,18.490738203124998L13.627128630859374,18.858298203125C13.438325560859376,19.013548203124998,13.389450430859375,19.282548203125,13.511572630859375,19.494298203125L14.088016630859375,20.492958203125C14.210369630859375,20.704478203125,14.467681630859374,20.796578203125,14.696461630859375,20.710738203125L15.237351630859376,20.508078203125C15.395571630859376,20.448958203125,15.571131630859375,20.476078203125,15.715571630859376,20.563188203125C15.747791630859375,20.582628203125,15.780391630859375,20.601448203125,15.813351630859374,20.619628203125C15.960901630859375,20.701408203125,16.072021630859375,20.840078203125,16.099571630859376,21.006298203125L16.194241630859374,21.575628203125C16.234681630859374,21.816518203125,16.443131630859376,21.993408203125,16.687571630859374,21.993408203125L17.840461630859373,21.993408203125C18.084901630859374,21.993408203125,18.293791630859374,21.816958203125,18.333791630859373,21.575628203125L18.428461630859374,21.006298203125C18.456461630859376,20.840078203125,18.567571630859376,20.701408203125,18.714681630859374,20.620078203125C18.747641630859377,20.601758203125,18.780241630859376,20.582788203125,18.812461630859374,20.563188203125C18.957351630859375,20.476078203125,19.132901630859376,20.448968203125,19.290681630859375,20.508078203125L19.831571630859376,20.710738203125C20.060461630859376,20.796498203125,20.317801630859375,20.704198203125,20.440021630859377,20.492518203125L21.016901630859376,19.493848203125C21.138681630859374,19.282738203125,21.089791630859374,19.013848203125,20.901351630859374,18.858298203125L20.455131630859377,18.490738203124998C20.324901630859376,18.383628203125,20.260461630859375,18.218298203125002,20.264021630859375,18.050298203125C20.264641630859373,18.012518203125,20.264641630859373,17.974738203125,20.264021630859375,17.936968203125C20.260461630859375,17.768518203125,20.324901630859376,17.603188203125,20.455131630859377,17.496078203125002L20.900901630859373,17.128518203125C21.089711630859377,16.973268203125,21.138581630859374,16.704268203125,21.016461630859375,16.492518203125L20.440461630859375,15.493848203125C20.318071630859375,15.282118203125,20.060481630859375,15.189988203125,19.831571630859376,15.276078203125L19.290681630859375,15.478738203125C19.132901630859376,15.537848203125,18.957351630859375,15.510738203125,18.812901630859376,15.423628203125C18.780461630859374,15.404078203125,18.748021630859377,15.384968203125,18.715131630859375,15.367188203125C18.567571630859376,15.285408203125,18.456461630859376,15.146738203125,18.428461630859374,14.980519203125L18.333791630859373,14.411186203125C18.293791630859374,14.170297203125,18.084901630859374,13.993408203125,17.840461630859373,13.993408203125L16.688021630859375,13.993408203125ZM17.264001630859376,19.326828203125Q17.329501630859376,19.326828203125,17.394691630859374,19.320398203125002Q17.459871630859375,19.313978203125,17.524121630859376,19.301198203125Q17.588361630859374,19.288428203125,17.651041630859375,19.269408203125Q17.713721630859375,19.250398203125002,17.774241630859375,19.225328203125Q17.834761630859376,19.200258203125,17.892521630859374,19.169388203125Q17.950291630859375,19.138508203125,18.004761630859374,19.102118203125002Q18.059221630859376,19.065728203125,18.109851630859374,19.024168203125Q18.160491630859376,18.982618203125,18.206801630859374,18.936298203125Q18.253121630859376,18.889978203125,18.294681630859376,18.839348203125Q18.336231630859373,18.788718203125,18.372621630859374,18.734248203125Q18.409011630859375,18.679788203125,18.439891630859375,18.622018203125002Q18.470771630859375,18.564248203125,18.495831630859374,18.503738203125Q18.520901630859374,18.443218203125,18.539921630859375,18.380538203125Q18.558931630859377,18.317858203125,18.571711630859376,18.253608203125Q18.584491630859375,18.189368203125,18.590911630859374,18.124178203125Q18.597331630859376,18.058988203125,18.597331630859376,17.993488203125Q18.597331630859376,17.927988203125,18.590911630859374,17.862798203125Q18.584491630859375,17.797608203125,18.571711630859376,17.733368203125Q18.558931630859377,17.669128203125,18.539921630859375,17.606448203124998Q18.520901630859374,17.543758203125,18.495831630859374,17.483248203125Q18.470771630859375,17.422728203125,18.439891630859375,17.364958203125Q18.409011630859375,17.307188203125,18.372621630859374,17.252728203125Q18.336231630859373,17.198268203125,18.294681630859376,17.147628203125Q18.253121630859376,17.096998203125,18.206801630859374,17.050678203125Q18.160491630859376,17.004368203125,18.109851630859374,16.962808203125Q18.059221630859376,16.921258203125,18.004761630859374,16.884858203125Q17.950291630859375,16.848468203125,17.892521630859374,16.817598203125Q17.834761630859376,16.786718203124998,17.774241630859375,16.761648203125Q17.713721630859375,16.736588203125,17.651041630859375,16.717568203125Q17.588361630859374,16.698558203125,17.524121630859376,16.685778203125Q17.459871630859375,16.672998203125,17.394691630859374,16.666578203125Q17.329501630859376,16.660158203125,17.264001630859376,16.660158203125Q17.198491630859376,16.660158203125,17.133311630859374,16.666578203125Q17.068121630859373,16.672998203125,17.003881630859375,16.685778203125Q16.939631630859374,16.698558203125,16.876951630859374,16.717568203125Q16.814271630859373,16.736588203125,16.753751630859377,16.761648203125Q16.693231630859376,16.786718203124998,16.635471630859374,16.817598203125Q16.577701630859377,16.848468203125,16.523241630859374,16.884858203125Q16.468771630859376,16.921258203125,16.418141630859374,16.962808203125Q16.367501630859376,17.004368203125,16.321191630859374,17.050678203125Q16.274871630859376,17.096998203125,16.233321630859376,17.147628203125Q16.191761630859375,17.198268203125,16.155371630859374,17.252728203125Q16.118981630859373,17.307188203125,16.088101630859374,17.364958203125Q16.057221630859374,17.422728203125,16.032161630859374,17.483248203125Q16.007091630859374,17.543758203125,15.988081630859375,17.606448203124998Q15.969061630859375,17.669128203125,15.956281630859376,17.733368203125Q15.943501630859375,17.797608203125,15.937081630859375,17.862798203125Q15.930661630859376,17.927988203125,15.930661630859376,17.993488203125Q15.930661630859376,18.058988203125,15.937081630859375,18.124178203125Q15.943501630859375,18.189368203125,15.956281630859376,18.253608203125Q15.969061630859375,18.317858203125,15.988081630859375,18.380538203125Q16.007091630859374,18.443218203125,16.032161630859374,18.503738203125Q16.057221630859374,18.564248203125,16.088101630859374,18.622018203125002Q16.118981630859373,18.679788203125,16.155371630859374,18.734248203125Q16.191761630859375,18.788708203125,16.233321630859376,18.839348203125Q16.274871630859376,18.889978203125,16.321191630859374,18.936298203125Q16.367501630859376,18.982618203125,16.418141630859374,19.024168203125Q16.468771630859376,19.065728203125,16.523241630859374,19.102118203125002Q16.577701630859377,19.138508203125,16.635471630859374,19.169388203125Q16.693231630859376,19.200258203125,16.753751630859377,19.225328203125Q16.814271630859373,19.250398203125002,16.876951630859374,19.269408203125Q16.939631630859374,19.288428203125,17.003881630859375,19.301198203125Q17.068121630859373,19.313978203125,17.133311630859374,19.320398203125002Q17.198491630859376,19.326828203125,17.264001630859376,19.326828203125Z" fill-rule="evenodd" fill="#7BC0FC" fill-opacity="1"/></g></g></svg>