<svg xmlns="http://www.w3.org/2000/svg" xmlns:xlink="http://www.w3.org/1999/xlink" fill="none" version="1.1" width="24" height="24" viewBox="0 0 24 24"><defs><clipPath id="master_svg0_732_40572"><rect x="0" y="0" width="24" height="24" rx="0"/></clipPath></defs><g clip-path="url(#master_svg0_732_40572)"><g><path d="M5.507000085830688,4.048C6.076990085830689,3.382835,6.909140085830689,3,7.7850000858306885,3L16.215000085830688,3C17.09090008583069,3.000026226,17.92310008583069,3.382862,18.493000085830687,4.048L20.215000085830688,6.056C19.97850008583069,6.01848,19.739400085830688,5.999750000000001,19.50000008583069,6L4.500000085830688,6C4.257000085830688,6,4.018000085830688,6.02,3.7850000858306885,6.056L5.507000085830688,4.048Z" fill="#71C7FB" fill-opacity="1"/></g><g><path d="M1.5,10.5C1.5,8.84315,2.84315,7.5,4.5,7.5L19.5,7.5C21.1569,7.5,22.5,8.84315,22.5,10.5C22.5,12.15685,21.1569,13.5,19.5,13.5L4.5,13.5C2.84315,13.5,1.5,12.15685,1.5,10.5ZM6.5,10.5C6.5,10.91421,6.16421,11.25,5.75,11.25C5.335789999999999,11.25,5,10.91421,5,10.5C5,10.08579,5.335789999999999,9.75,5.75,9.75C6.16421,9.75,6.5,10.08579,6.5,10.5ZM8.75,11.25C9.16421,11.25,9.5,10.91421,9.5,10.5C9.5,10.08579,9.16421,9.75,8.75,9.75C8.33579,9.75,8,10.08579,8,10.5C8,10.91421,8.33579,11.25,8.75,11.25ZM4.5,15C2.84315,15,1.5,16.34315,1.5,18C1.5,19.6569,2.84315,21,4.5,21L19.5,21C21.1569,21,22.5,19.6569,22.5,18C22.5,16.34315,21.1569,15,19.5,15L4.5,15ZM5.75,18.75C6.16421,18.75,6.5,18.4142,6.5,18C6.5,17.5858,6.16421,17.25,5.75,17.25C5.335789999999999,17.25,5,17.5858,5,18C5,18.4142,5.335789999999999,18.75,5.75,18.75ZM9.5,18C9.5,18.4142,9.16421,18.75,8.75,18.75C8.33579,18.75,8,18.4142,8,18C8,17.5858,8.33579,17.25,8.75,17.25C9.16421,17.25,9.5,17.5858,9.5,18Z" fill-rule="evenodd" fill="#4464F8" fill-opacity="1"/></g><g><g><path d="M13.531912207603455,20.917675495147705L13.531912207603455,21.967675495147706Q13.531912207603455,22.041365495147705,13.539132207603455,22.114705495147707Q13.546362207603455,22.188035495147705,13.560732207603454,22.260315495147704Q13.575112207603455,22.332585495147704,13.596502207603454,22.403105495147706Q13.617892207603454,22.473615495147705,13.646092207603454,22.541695495147707Q13.674292207603454,22.609785495147705,13.709032207603455,22.674765495147707Q13.743772207603454,22.739755495147705,13.784712207603455,22.801035495147705Q13.825652207603454,22.862305495147705,13.872392207603454,22.919265495147705Q13.919142207603455,22.976225495147705,13.971252207603454,23.028335495147704Q14.023362207603455,23.080445495147707,14.080322207603455,23.127195495147706Q14.137285207603455,23.173935495147706,14.198557207603455,23.214875495147705Q14.259828207603455,23.255815495147704,14.324817207603454,23.290555495147704Q14.389806207603455,23.325295495147707,14.457887207603454,23.353495495147705Q14.525968207603455,23.381695495147707,14.596485207603454,23.403085495147707Q14.667002207603455,23.424475495147703,14.739277207603454,23.438855495147706Q14.811551207603454,23.453225495147706,14.884886207603454,23.460455495147706Q14.958221907603454,23.467675495147706,15.031912207603455,23.467675495147706Q15.154358207603455,23.467675495147706,15.275183207603455,23.447815495147704Q15.396009207603454,23.427955495147707,15.512014207603455,23.388765495147705Q15.628018207603455,23.349575495147704,15.736132207603454,23.292085495147706Q15.844245207603455,23.234605495147704,15.941603207603455,23.160345495147705Q16.038962207603454,23.086085495147707,16.122992207603456,22.997025495147703Q16.207012207603455,22.907955495147704,16.275482207603453,22.806445495147706Q16.343952207603454,22.704925495147705,16.395052207603456,22.593655495147704Q16.446152207603454,22.482375495147704,16.478532207603454,22.364295495147704Q16.596612207603453,22.331915495147705,16.707892207603454,22.280815495147706Q16.819162207603455,22.229715495147705,16.920682207603456,22.161245495147703Q17.022192207603453,22.092775495147706,17.111262207603453,22.008755495147707Q17.200322207603456,21.924725495147705,17.274582207603455,21.827366495147704Q17.348842207603454,21.730008495147704,17.406322207603456,21.621895495147704Q17.463812207603453,21.513781495147704,17.503002207603455,21.397777495147704Q17.542192207603456,21.281772495147706,17.562052207603454,21.160946495147705Q17.581912207603455,21.040121495147705,17.581912207603455,20.917675495147705Q17.581912207603455,20.843985195147706,17.574692207603455,20.770649495147705Q17.567462207603455,20.697314495147705,17.553092207603456,20.625040495147704Q17.538712207603453,20.552765495147707,17.517322207603456,20.482248495147704Q17.495932207603456,20.411731495147706,17.467732207603454,20.343650495147706Q17.439532207603456,20.275569495147707,17.404792207603453,20.210580495147706Q17.370052207603454,20.145591495147706,17.329112207603455,20.084320495147704Q17.288172207603456,20.023048495147705,17.241432207603456,19.966085495147706Q17.194682207603456,19.909125495147705,17.142572207603454,19.857015495147706Q17.090462207603455,19.804905495147704,17.033502207603455,19.758155495147705Q16.976542207603455,19.711415495147705,16.915272207603454,19.670475495147706Q16.853992207603454,19.629535495147707,16.789002207603456,19.594795495147704Q16.724022207603454,19.560055495147704,16.655932207603456,19.531855495147706Q16.587852207603454,19.503655495147704,16.517342207603456,19.482265495147704Q16.446822207603454,19.460875495147704,16.374552207603454,19.446495495147705Q16.302272207603455,19.432125495147705,16.228942207603456,19.424895495147705Q16.155602207603454,19.417675495147705,16.081912207603455,19.417675495147705L15.031912207603455,19.417675495147705Q14.958221907603454,19.417675495147705,14.884886207603454,19.424895495147705Q14.811551207603454,19.432125495147705,14.739277207603454,19.446495495147705Q14.667002207603455,19.460875495147704,14.596485207603454,19.482265495147704Q14.525968207603455,19.503655495147704,14.457887207603454,19.531855495147706Q14.389806207603455,19.560055495147704,14.324817207603454,19.594795495147704Q14.259828207603455,19.629535495147707,14.198557207603455,19.670475495147706Q14.137285207603455,19.711415495147705,14.080322207603455,19.758155495147705Q14.023362207603455,19.804905495147704,13.971252207603454,19.857015495147706Q13.919142207603455,19.909125495147705,13.872392207603454,19.966085495147706Q13.825652207603454,20.023048495147705,13.784712207603455,20.084320495147704Q13.743772207603454,20.145591495147706,13.709032207603455,20.210580495147706Q13.674292207603454,20.275569495147707,13.646092207603454,20.343650495147706Q13.617892207603454,20.411731495147706,13.596502207603454,20.482248495147704Q13.575112207603455,20.552765495147707,13.560732207603454,20.625040495147704Q13.546362207603455,20.697314495147705,13.539132207603455,20.770649495147705Q13.531912207603455,20.843985195147706,13.531912207603455,20.917675495147705Z" fill-rule="evenodd" fill="#FFFFFF" fill-opacity="1"/></g><g><path d="M21.378531945343017,20.521060495147704Q21.496611945343016,20.553436495147704,21.607891945343017,20.604535495147704Q21.719161945343018,20.655634495147705,21.82068194534302,20.724103495147705Q21.922191945343016,20.792572495147706,22.011261945343016,20.876599095147704Q22.10032194534302,20.960625395147705,22.174581945343018,21.057984495147704Q22.248841945343017,21.155342495147703,22.30632194534302,21.263455495147706Q22.363811945343016,21.371568495147706,22.403001945343018,21.487573495147704Q22.44219194534302,21.603578495147705,22.462051945343017,21.724403495147705Q22.48191194534302,21.845229495147706,22.48191194534302,21.967675495147706Q22.48191194534302,22.041365495147705,22.474691945343018,22.114705495147707Q22.467461945343018,22.188035495147705,22.45309194534302,22.260315495147704Q22.438711945343016,22.332585495147704,22.41732194534302,22.403105495147706Q22.39593194534302,22.473615495147705,22.367731945343017,22.541695495147707Q22.33953194534302,22.609785495147705,22.304791945343016,22.674765495147707Q22.270051945343017,22.739755495147705,22.229111945343018,22.801035495147705Q22.18817194534302,22.862305495147705,22.14143194534302,22.919265495147705Q22.09468194534302,22.976225495147705,22.042571945343017,23.028335495147704Q21.990461945343018,23.080445495147707,21.933501945343018,23.127195495147706Q21.876541945343018,23.173935495147706,21.815271945343017,23.214875495147705Q21.753991945343017,23.255815495147704,21.68900194534302,23.290555495147704Q21.624021945343017,23.325295495147707,21.55593194534302,23.353495495147705Q21.487851945343017,23.381695495147707,21.41734194534302,23.403085495147707Q21.346821945343017,23.424475495147703,21.274551945343017,23.438855495147706Q21.202271945343018,23.453225495147706,21.12894194534302,23.460455495147706Q21.055601945343017,23.467675495147706,20.98191194534302,23.467675495147706L19.931911945343018,23.467675495147706Q19.85822164534302,23.467675495147706,19.784885945343017,23.460455495147706Q19.711550945343017,23.453225495147706,19.639276945343017,23.438855495147706Q19.56700194534302,23.424475495147703,19.496484945343017,23.403085495147707Q19.425967945343018,23.381695495147707,19.35788694534302,23.353495495147705Q19.28980594534302,23.325295495147707,19.22481694534302,23.290555495147704Q19.159827945343018,23.255815495147704,19.098556945343017,23.214875495147705Q19.037284945343018,23.173935495147706,18.980321945343018,23.127195495147706Q18.923361945343018,23.080445495147707,18.87125194534302,23.028335495147704Q18.819141945343016,22.976225495147705,18.772391945343017,22.919265495147705Q18.725651945343017,22.862305495147705,18.684711945343018,22.801035495147705Q18.64377194534302,22.739755495147705,18.609031945343016,22.674765495147707Q18.574291945343017,22.609785495147705,18.54609194534302,22.541695495147707Q18.517891945343017,22.473615495147705,18.496501945343017,22.403105495147706Q18.475111945343016,22.332585495147704,18.460731945343017,22.260315495147704Q18.446361945343018,22.188035495147705,18.439131945343018,22.114705495147707Q18.431911945343018,22.041365495147705,18.431911945343018,21.967675495147706L18.431911945343018,20.917675495147705Q18.431911945343018,20.843985195147706,18.439131945343018,20.770649495147705Q18.446361945343018,20.697314495147705,18.460731945343017,20.625040495147704Q18.475111945343016,20.552765495147707,18.496501945343017,20.482248495147704Q18.517891945343017,20.411731495147706,18.54609194534302,20.343650495147706Q18.574291945343017,20.275569495147707,18.609031945343016,20.210580495147706Q18.64377194534302,20.145591495147706,18.684711945343018,20.084320495147704Q18.725651945343017,20.023048495147705,18.772391945343017,19.966085495147706Q18.819141945343016,19.909125495147705,18.87125194534302,19.857015495147706Q18.923361945343018,19.804905495147704,18.980321945343018,19.758155495147705Q19.037284945343018,19.711415495147705,19.098556945343017,19.670475495147706Q19.159827945343018,19.629535495147707,19.22481694534302,19.594795495147704Q19.28980594534302,19.560055495147704,19.35788694534302,19.531855495147706Q19.425967945343018,19.503655495147704,19.496484945343017,19.482265495147704Q19.56700194534302,19.460875495147704,19.639276945343017,19.446495495147705Q19.711550945343017,19.432125495147705,19.784885945343017,19.424895495147705Q19.85822164534302,19.417675495147705,19.931911945343018,19.417675495147705Q20.054357945343018,19.417675495147705,20.175182945343018,19.437535495147706Q20.29600894534302,19.457395495147704,20.412013945343016,19.496585495147706Q20.528017945343016,19.535775495147703,20.636131945343017,19.593265495147705Q20.744244945343016,19.650745495147707,20.841602945343016,19.725005495147705Q20.938961945343017,19.799265495147704,21.02299194534302,19.888325495147704Q21.107011945343018,19.977395495147704,21.175481945343016,20.078909495147705Q21.243951945343017,20.180423495147704,21.29505194534302,20.291697495147705Q21.346151945343017,20.402971495147703,21.378531945343017,20.521060495147704Z" fill-rule="evenodd" fill="#FFFFFF" fill-opacity="1"/></g><g><path d="M22.48191194534302,16.017675757408142L22.48191194534302,17.067675757408143Q22.48191194534302,17.141365757408142,22.474691945343018,17.214705757408144Q22.467461945343018,17.288035757408142,22.45309194534302,17.36031575740814Q22.438711945343016,17.43258575740814,22.41732194534302,17.503105757408143Q22.39593194534302,17.57361575740814,22.367731945343017,17.641695757408144Q22.33953194534302,17.70978575740814,22.304791945343016,17.774765757408144Q22.270051945343017,17.839755757408142,22.229111945343018,17.901035757408142Q22.18817194534302,17.962305757408142,22.14143194534302,18.019265757408142Q22.09468194534302,18.076225757408142,22.042571945343017,18.12833575740814Q21.990461945343018,18.180445757408144,21.933501945343018,18.227195757408143Q21.876541945343018,18.273935757408143,21.815271945343017,18.314875757408142Q21.753991945343017,18.35581575740814,21.68900194534302,18.39055575740814Q21.624021945343017,18.425295757408144,21.55593194534302,18.45349575740814Q21.487851945343017,18.481695757408144,21.41734194534302,18.503085757408144Q21.346821945343017,18.52447575740814,21.274551945343017,18.538855757408143Q21.202271945343018,18.553225757408143,21.12894194534302,18.560455757408143Q21.055601945343017,18.567675757408143,20.98191194534302,18.567675757408143L19.931911945343018,18.567675757408143Q19.85822164534302,18.567675757408143,19.784885945343017,18.560455757408143Q19.711550945343017,18.553225757408143,19.639276945343017,18.538855757408143Q19.56700194534302,18.52447575740814,19.496484945343017,18.503085757408144Q19.425967945343018,18.481695757408144,19.35788694534302,18.45349575740814Q19.28980594534302,18.425295757408144,19.22481694534302,18.39055575740814Q19.159827945343018,18.35581575740814,19.098556945343017,18.314875757408142Q19.037284945343018,18.273935757408143,18.980321945343018,18.227195757408143Q18.923361945343018,18.180445757408144,18.87125194534302,18.12833575740814Q18.819141945343016,18.076225757408142,18.772391945343017,18.019265757408142Q18.725651945343017,17.962305757408142,18.684711945343018,17.901035757408142Q18.64377194534302,17.839755757408142,18.609031945343016,17.774765757408144Q18.574291945343017,17.70978575740814,18.54609194534302,17.641695757408144Q18.517891945343017,17.57361575740814,18.496501945343017,17.503105757408143Q18.475111945343016,17.43258575740814,18.460731945343017,17.36031575740814Q18.446361945343018,17.288035757408142,18.439131945343018,17.214705757408144Q18.431911945343018,17.141365757408142,18.431911945343018,17.067675757408143Q18.431911945343018,16.945229757408143,18.45177194534302,16.82440375740814Q18.471631945343017,16.703578757408142,18.510821945343018,16.58757375740814Q18.550011945343016,16.471568757408143,18.607501945343017,16.363455757408143Q18.66498194534302,16.25534275740814,18.739241945343018,16.15798475740814Q18.813501945343017,16.060625657408142,18.902561945343017,15.976599357408142Q18.991631945343016,15.892572757408143,19.093145945343018,15.824103757408142Q19.194659945343016,15.755634757408142,19.305933945343018,15.704535757408141Q19.417207945343016,15.653436757408143,19.535296945343017,15.621060757408141Q19.567672945343016,15.502971757408142,19.618771945343017,15.391697757408142Q19.669870945343018,15.280423757408142,19.738339945343018,15.178909757408142Q19.80680894534302,15.077395757408143,19.890835545343016,14.988325757408141Q19.974861845343018,14.899265757408141,20.072220945343016,14.825005757408142Q20.169578945343016,14.750745757408142,20.27769194534302,14.693265757408142Q20.38580494534302,14.635775757408142,20.501809945343016,14.596585757408143Q20.617814945343017,14.557395757408141,20.738639945343017,14.537535757408142Q20.85946594534302,14.517675757408142,20.98191194534302,14.517675757408142Q21.055601945343017,14.517675757408142,21.12894194534302,14.524895757408142Q21.202271945343018,14.532125757408142,21.274551945343017,14.546495757408142Q21.346821945343017,14.560875757408143,21.41734194534302,14.582265757408141Q21.487851945343017,14.603655757408141,21.55593194534302,14.631855757408141Q21.624021945343017,14.660055757408141,21.68900194534302,14.694795757408142Q21.753991945343017,14.729535757408142,21.815271945343017,14.770475757408143Q21.876541945343018,14.811415757408142,21.933501945343018,14.858155757408142Q21.990461945343018,14.904905757408143,22.042571945343017,14.957015757408142Q22.09468194534302,15.009125757408142,22.14143194534302,15.066085757408143Q22.18817194534302,15.123048757408142,22.229111945343018,15.184320757408143Q22.270051945343017,15.245591757408143,22.304791945343016,15.310580757408141Q22.33953194534302,15.375569757408142,22.367731945343017,15.443650757408141Q22.39593194534302,15.511731757408143,22.41732194534302,15.582248757408141Q22.438711945343016,15.652765757408142,22.45309194534302,15.725040757408141Q22.467461945343018,15.797314757408142,22.474691945343018,15.870649757408142Q22.48191194534302,15.943985457408141,22.48191194534302,16.017675757408142Z" fill-rule="evenodd" fill="#FFFFFF" fill-opacity="1"/></g><g><path d="M15.031912207603455,14.517675757408142Q14.958221907603454,14.517675757408142,14.884886207603454,14.524895757408142Q14.811551207603454,14.532125757408142,14.739277207603454,14.546495757408142Q14.667002207603455,14.560875757408143,14.596485207603454,14.582265757408141Q14.525968207603455,14.603655757408141,14.457887207603454,14.631855757408141Q14.389806207603455,14.660055757408141,14.324817207603454,14.694795757408142Q14.259828207603455,14.729535757408142,14.198557207603455,14.770475757408143Q14.137285207603455,14.811415757408142,14.080322207603455,14.858155757408142Q14.023362207603455,14.904905757408143,13.971252207603454,14.957015757408142Q13.919142207603455,15.009125757408142,13.872392207603454,15.066085757408143Q13.825652207603454,15.123048757408142,13.784712207603455,15.184320757408143Q13.743772207603454,15.245591757408143,13.709032207603455,15.310580757408141Q13.674292207603454,15.375569757408142,13.646092207603454,15.443650757408141Q13.617892207603454,15.511731757408143,13.596502207603454,15.582248757408141Q13.575112207603455,15.652765757408142,13.560732207603454,15.725040757408141Q13.546362207603455,15.797314757408142,13.539132207603455,15.870649757408142Q13.531912207603455,15.943985457408141,13.531912207603455,16.017675757408142Q13.531912207603455,16.140121757408142,13.551772207603454,16.260946757408142Q13.571632207603454,16.381772757408143,13.610822207603455,16.49777775740814Q13.650012207603455,16.61378175740814,13.707502207603454,16.72189575740814Q13.764982207603454,16.83000875740814,13.839242207603455,16.92736675740814Q13.913502207603454,17.02472575740814,14.002562207603454,17.108755757408144Q14.091632207603455,17.192775757408143,14.193146207603455,17.26124575740814Q14.294660207603455,17.32971575740814,14.405934207603455,17.380815757408143Q14.517208207603455,17.43191575740814,14.635297207603454,17.46429575740814Q14.667673207603455,17.58237575740814,14.718772207603454,17.69365575740814Q14.769871207603455,17.804925757408142,14.838340207603455,17.906445757408143Q14.906809207603455,18.00795575740814,14.990835807603455,18.09702575740814Q15.074862107603455,18.186085757408144,15.172221207603455,18.260345757408142Q15.269579207603455,18.33460575740814,15.377692207603454,18.392085757408143Q15.485805207603455,18.44957575740814,15.601810207603455,18.488765757408142Q15.717815207603454,18.527955757408144,15.838640207603454,18.54781575740814Q15.959466207603455,18.567675757408143,16.081912207603455,18.567675757408143Q16.155602207603454,18.567675757408143,16.228942207603456,18.560455757408143Q16.302272207603455,18.553225757408143,16.374552207603454,18.538855757408143Q16.446822207603454,18.52447575740814,16.517342207603456,18.503085757408144Q16.587852207603454,18.481695757408144,16.655932207603456,18.45349575740814Q16.724022207603454,18.425295757408144,16.789002207603456,18.39055575740814Q16.853992207603454,18.35581575740814,16.915272207603454,18.314875757408142Q16.976542207603455,18.273935757408143,17.033502207603455,18.227195757408143Q17.090462207603455,18.180445757408144,17.142572207603454,18.12833575740814Q17.194682207603456,18.076225757408142,17.241432207603456,18.019265757408142Q17.288172207603456,17.962305757408142,17.329112207603455,17.901035757408142Q17.370052207603454,17.839755757408142,17.404792207603453,17.774765757408144Q17.439532207603456,17.70978575740814,17.467732207603454,17.641695757408144Q17.495932207603456,17.57361575740814,17.517322207603456,17.503105757408143Q17.538712207603453,17.43258575740814,17.553092207603456,17.36031575740814Q17.567462207603455,17.288035757408142,17.574692207603455,17.214705757408144Q17.581912207603455,17.141365757408142,17.581912207603455,17.067675757408143L17.581912207603455,16.017675757408142Q17.581912207603455,15.943985457408141,17.574692207603455,15.870649757408142Q17.567462207603455,15.797314757408142,17.553092207603456,15.725040757408141Q17.538712207603453,15.652765757408142,17.517322207603456,15.582248757408141Q17.495932207603456,15.511731757408143,17.467732207603454,15.443650757408141Q17.439532207603456,15.375569757408142,17.404792207603453,15.310580757408141Q17.370052207603454,15.245591757408143,17.329112207603455,15.184320757408143Q17.288172207603456,15.123048757408142,17.241432207603456,15.066085757408143Q17.194682207603456,15.009125757408142,17.142572207603454,14.957015757408142Q17.090462207603455,14.904905757408143,17.033502207603455,14.858155757408142Q16.976542207603455,14.811415757408142,16.915272207603454,14.770475757408143Q16.853992207603454,14.729535757408142,16.789002207603456,14.694795757408142Q16.724022207603454,14.660055757408141,16.655932207603456,14.631855757408141Q16.587852207603454,14.603655757408141,16.517342207603456,14.582265757408141Q16.446822207603454,14.560875757408143,16.374552207603454,14.546495757408142Q16.302272207603455,14.532125757408142,16.228942207603456,14.524895757408142Q16.155602207603454,14.517675757408142,16.081912207603455,14.517675757408142L15.031912207603455,14.517675757408142Z" fill-rule="evenodd" fill="#FFFFFF" fill-opacity="1"/></g><g><path d="M16.907982231445313,17.321157069244386Q17.06333223144531,17.218667069244386,17.18892223144531,17.081307069244385Q17.314512231445313,16.943951069244385,17.402722231445313,16.780066069244384Q17.490942231445313,16.616182069244385,17.536422231445314,16.435708069244384Q17.581912231445312,16.255235069244385,17.581912231445312,16.069117069244385Q17.581912231445312,15.995426769244384,17.57469223144531,15.922091069244384Q17.56746223144531,15.848756069244384,17.553092231445312,15.776482069244384Q17.538712231445313,15.704207069244385,17.517322231445313,15.633690069244384Q17.495932231445313,15.563173069244385,17.46773223144531,15.495092069244384Q17.439532231445313,15.427011069244385,17.404792231445313,15.362022069244384Q17.370052231445314,15.297033069244385,17.32911223144531,15.235762069244386Q17.288172231445312,15.174490069244385,17.241432231445312,15.117527069244385Q17.194682231445313,15.060567069244385,17.142572231445314,15.008457069244384Q17.09046223144531,14.956347069244385,17.03350223144531,14.909597069244384Q16.97654223144531,14.862857069244384,16.91526223144531,14.821917069244385Q16.85399223144531,14.780977069244384,16.789002231445313,14.746237069244385Q16.72402223144531,14.711497069244384,16.655932231445313,14.683297069244384Q16.58785223144531,14.655097069244384,16.517342231445312,14.633707069244384Q16.446822231445314,14.612317069244385,16.374552231445314,14.597937069244384Q16.30227223144531,14.583567069244385,16.228942231445313,14.576337069244385Q16.15560223144531,14.569117069244385,16.081912231445312,14.569117069244385Q15.861642231445312,14.569117069244385,15.650672231445313,14.632447069244385Q15.439702231445313,14.695767069244384,15.255844231445312,14.817077069244384Q14.221453231445313,15.499540069244384,13.624473231445313,16.584183069244386Q13.006912231445312,17.706217069244385,13.006912231445312,18.992657069244384Q13.006912231445312,19.369817069244384,13.062712231445312,19.740777069244384Q13.082582231445313,19.872907069244384,13.125502231445312,19.999447069244386Q13.168422231445312,20.125977069244385,13.233022231445313,20.242937069244384Q13.297632231445313,20.359897069244383,13.381892231445313,20.463597069244386Q13.466162231445313,20.567297069244383,13.567422231445313,20.654467069244383Q13.668687231445313,20.741637069244383,13.783766231445313,20.809537069244385Q13.898844231445313,20.877437069244387,14.024112231445313,20.923937069244385Q14.149381231445313,20.970427069244383,14.280894231445313,20.994037069244385Q14.412407531445313,21.017657069244386,14.546024631445313,21.017657069244386Q14.619715231445312,21.017657069244386,14.693050231445312,21.010437069244386Q14.766386231445313,21.003217069244386,14.838660231445312,20.988837069244383Q14.910934231445312,20.974457069244384,14.981451231445313,20.953067069244383Q15.051969231445312,20.931677069244387,15.120050231445312,20.903477069244385Q15.188130231445312,20.875277069244383,15.253120231445312,20.840537069244384Q15.318109231445312,20.805807069244384,15.379380231445312,20.764867069244385Q15.440651231445312,20.723927069244386,15.497614231445313,20.677177069244387Q15.554582231445313,20.630427069244384,15.606682231445312,20.578317069244385Q15.658792231445313,20.526207069244386,15.705542231445312,20.469247069244386Q15.752292231445313,20.412287069244385,15.793232231445312,20.351017069244385Q15.834172231445313,20.289747069244385,15.868902231445313,20.224757069244383Q15.903642231445312,20.159767069244385,15.931842231445312,20.091687069244387Q15.960042231445312,20.023607069244385,15.981432231445313,19.953087069244386Q16.00282223144531,19.882567069244384,16.017202231445314,19.810297069244385Q16.031582231445313,19.738017069244385,16.038802231445313,19.664687069244383Q16.046022231445313,19.591347069244385,16.046022231445313,19.517657069244386Q16.046022231445313,19.405477069244384,16.029342231445312,19.294537069244384Q16.006912231445312,19.145447069244383,16.006912231445312,18.992657069244384Q16.006912231445312,17.915667069244385,16.907982231445313,17.321157069244386Z" fill-rule="evenodd" fill="#FFFFFF" fill-opacity="1"/></g><g><path d="M13.921393857421876,21.875591765625Q13.787223857421875,21.685703765625,13.716843857421875,21.464109765625Q13.646453857421875,21.242514765625,13.646453857421875,21.010009765625Q13.646453857421875,20.936319465625,13.653673857421875,20.862983765625Q13.660903857421875,20.789648765625,13.675273857421875,20.717374765625Q13.689653857421876,20.645099765625,13.711043857421874,20.574582765625Q13.732433857421874,20.504065765625,13.760633857421874,20.435984765625Q13.788833857421874,20.367903765625,13.823573857421875,20.302914765625Q13.858313857421875,20.237925765625,13.899253857421876,20.176654765625Q13.940193857421875,20.115382765625,13.986933857421874,20.058419765625Q14.033683857421876,20.001459765625,14.085793857421875,19.949349765625Q14.137903857421875,19.897239765625,14.194863857421876,19.850489765625Q14.251826857421875,19.803749765625,14.313098857421876,19.762809765625Q14.374369857421875,19.721869765625,14.439358857421874,19.687129765625Q14.504347857421875,19.652389765625,14.572428857421874,19.624189765625Q14.640509857421875,19.595989765625,14.711026857421874,19.574599765625Q14.781543857421875,19.553209765625,14.853818857421874,19.538829765625Q14.926092857421875,19.524459765625,14.999427857421875,19.517229765625Q15.072763557421874,19.510009765625,15.146453857421875,19.510009765625Q15.326500857421875,19.510009765625,15.501433857421874,19.552619765625Q15.676365857421874,19.595229765625,15.836245857421876,19.678019765625Q15.996125857421875,19.760819765625,16.131870857421873,19.879099765625Q16.267613857421875,19.997379765625,16.371513857421874,20.144427765625Q16.970813857421874,20.992613165625,18.006893857421876,20.992613265625Q18.159683857421875,20.992613065625,18.308783857421876,20.970187065625Q18.419713857421876,20.953500765625,18.531893857421874,20.953500765625Q18.605583857421877,20.953500765625,18.678923857421875,20.960723665625Q18.752253857421874,20.967946565625,18.824533857421876,20.982322865625Q18.896803857421876,20.996699065625,18.967323857421874,21.018090245625Q19.037843857421876,21.039481365625,19.105923857421875,21.067681465625Q19.174003857421873,21.095881465625,19.238993857421875,21.130618765625Q19.303983857421876,21.165355765625,19.365253857421877,21.206296765625Q19.426523857421877,21.247236765625,19.483483857421874,21.293984765625Q19.540453857421873,21.340733765625,19.592553857421876,21.392840765625Q19.644663857421875,21.444947765625,19.691413857421875,21.501910765625Q19.738163857421874,21.558873765625002,19.779103857421873,21.620145765625Q19.820043857421876,21.681416765625,19.854773857421876,21.746405765625Q19.889513857421875,21.811394765625,19.917713857421873,21.879475765625Q19.945913857421875,21.947556765625,19.967303857421875,22.018069765625Q19.988693857421875,22.088589765625,20.003073857421874,22.160869765625Q20.017453857421877,22.233139765625,20.024673857421874,22.306479765625Q20.031893857421874,22.379809765625,20.031893857421874,22.453499765625Q20.031893857421874,22.587119765625,20.008273857421877,22.718629765625Q19.984663857421875,22.850139765625,19.938173857421873,22.975409765625Q19.891683857421874,23.100679765625,19.823773857421877,23.215759765625002Q19.755873857421875,23.330839765625,19.668703857421875,23.432099765625Q19.581533857421874,23.533369765625,19.477833857421874,23.617629765625Q19.374133857421874,23.701889765625,19.257173857421876,23.766499765625Q19.140213857421877,23.831109765625,19.013683857421874,23.874019765625Q18.887143857421876,23.916939765625,18.755013857421876,23.936809765625L18.754363857421875,23.936909765625L18.752733857421873,23.937159765625Q18.382893857421877,23.992609765625,18.006893857421876,23.992609765625Q16.763133857421874,23.992609765625,15.669142857421875,23.413239765625Q14.612645857421874,22.853719765625,13.921683857421876,21.876005765625L13.921393857421876,21.875591765625L13.921393857421876,21.875591765625Z" fill-rule="evenodd" fill="#FFFFFF" fill-opacity="1"/></g><g><path d="M22.951451945343017,18.246833924301146Q23.006911945343017,18.616674924301147,23.006911945343017,18.992675924301146Q23.006911945343017,20.27911592430115,22.389351945343016,21.401155924301147Q21.792371945343017,22.485785924301148,20.757989945343017,23.168265924301146Q20.57413094534302,23.289575924301147,20.36315794534302,23.352895924301148Q20.152184945343016,23.41622592430115,19.931911945343018,23.41622592430115Q19.85822164534302,23.41622592430115,19.784885945343017,23.409005924301148Q19.711550945343017,23.40177592430115,19.639276945343017,23.38740592430115Q19.56700194534302,23.373025924301146,19.496484945343017,23.35163592430115Q19.425967945343018,23.330245924301146,19.35788694534302,23.302045924301147Q19.28980594534302,23.27384592430115,19.22481694534302,23.239105924301146Q19.159827945343018,23.204365924301147,19.098556945343017,23.163425924301148Q19.037284945343018,23.12248592430115,18.980321945343018,23.075745924301145Q18.923361945343018,23.02899592430115,18.87125194534302,22.976885924301147Q18.819141945343016,22.924775924301148,18.772391945343017,22.867815924301148Q18.725651945343017,22.810855924301148,18.684711945343018,22.749585924301147Q18.64377194534302,22.688305924301147,18.609031945343016,22.623315924301146Q18.574291945343017,22.558335924301147,18.54609194534302,22.49024592430115Q18.517891945343017,22.422165924301147,18.496501945343017,22.35165592430115Q18.475111945343016,22.281135924301147,18.460731945343017,22.208865924301147Q18.446361945343018,22.136585924301148,18.439131945343018,22.063255924301146Q18.431911945343018,21.989915924301147,18.431911945343018,21.91622592430115Q18.431911945343018,21.73010592430115,18.47740194534302,21.549635924301146Q18.522881945343016,21.369165924301146,18.611091945343016,21.205285924301148Q18.699301945343016,21.04139592430115,18.82489194534302,20.904045924301148Q18.950484945343018,20.766685924301147,19.10583394534302,20.664185924301147Q20.006912045343018,20.069665924301148,20.006912045343018,18.992675924301146Q20.00691184534302,18.839883924301148,19.984485845343016,18.690793924301147Q19.967799545343016,18.57985892430115,19.967799545343016,18.467675924301147Q19.967799545343016,18.39398562430115,19.97502244534302,18.320649924301147Q19.982245345343017,18.247314924301147,19.99662164534302,18.175040924301147Q20.010997845343017,18.10276592430115,20.03238894534302,18.032248924301147Q20.053779945343017,17.961731924301148,20.08197994534302,17.89365092430115Q20.110179945343017,17.82556992430115,20.144917945343018,17.76058092430115Q20.179654945343017,17.695591924301148,20.220594945343016,17.634320924301147Q20.26153494534302,17.573048924301148,20.308283945343018,17.516085924301148Q20.355032945343016,17.459125924301148,20.407138945343018,17.40701592430115Q20.459245945343017,17.354905924301146,20.516209945343018,17.308155924301147Q20.573172945343018,17.261415924301147,20.63444394534302,17.220475924301148Q20.695714945343017,17.17953592430115,20.76070494534302,17.144795924301146Q20.82569394534302,17.110055924301147,20.893773945343018,17.08185592430115Q20.961851945343017,17.053655924301147,21.032371945343016,17.032265924301146Q21.102891945343018,17.010875924301146,21.175161945343017,16.996495924301147Q21.247441945343017,16.982125924301148,21.32077194534302,16.974895924301148Q21.394111945343017,16.967675924301147,21.467801945343016,16.967675924301147Q21.601411945343017,16.967675924301147,21.73293194534302,16.99129592430115Q21.864441945343017,17.014905924301146,21.989711945343018,17.061405924301148Q22.11498194534302,17.107895924301147,22.230061945343017,17.17579592430115Q22.345131945343017,17.243695924301147,22.446401945343016,17.330865924301147Q22.547661945343016,17.418035924301147,22.631931945343016,17.521735924301147Q22.716191945343017,17.62543392430115,22.78080194534302,17.742392924301146Q22.845401945343017,17.85935292430115,22.888321945343016,17.985889924301148Q22.931241945343018,18.112426924301147,22.95111194534302,18.244557924301148L22.951291945343016,18.245751924301146L22.951451945343017,18.246833924301146Z" fill-rule="evenodd" fill="#FFFFFF" fill-opacity="1"/></g><g><path d="M19.67814237449646,17.89332578125L19.67842237449646,17.89375578125Q19.78092237449646,18.04910578125,19.91828237449646,18.17469578125Q20.05563237449646,18.30027578125,20.21952237449646,18.38849578125Q20.38340237449646,18.47670578125,20.56387237449646,18.522185781250002Q20.744342374496462,18.56767578125,20.93046237449646,18.56767578125Q21.00415237449646,18.56767578125,21.077492374496458,18.56045578125Q21.15082237449646,18.55322578125,21.22310237449646,18.53885578125Q21.29537237449646,18.52447578125,21.36589237449646,18.50308578125Q21.43640237449646,18.48169578125,21.50448237449646,18.45349578125Q21.57257237449646,18.42529578125,21.637552374496458,18.39055578125Q21.70254237449646,18.35581578125,21.76382237449646,18.31487578125Q21.82509237449646,18.27393578125,21.88205237449646,18.22719578125Q21.93901237449646,18.18044578125,21.99112237449646,18.12833578125Q22.043232374496462,18.07622578125,22.089982374496458,18.01926578125Q22.13672237449646,17.96230578125,22.17766237449646,17.90102578125Q22.21860237449646,17.83975578125,22.25334237449646,17.77476578125Q22.28808237449646,17.709785781249998,22.31628237449646,17.64169578125Q22.344482374496458,17.57361578125,22.365872374496462,17.50310578125Q22.38726237449646,17.43258578125,22.40164237449646,17.36031578125Q22.41601237449646,17.28803578125,22.42324237449646,17.21470578125Q22.43046237449646,17.14136578125,22.43046237449646,17.06767578125Q22.43046237449646,16.84740578125,22.36713237449646,16.63642578125Q22.30380237449646,16.42545178125,22.182492374496462,16.24159078125Q22.18192237449646,16.24071778125,22.18133237449646,16.23983678125Q21.49910237449646,15.20670478125,20.41539237449646,14.61023678125Q19.29335237449646,13.99267578125,18.00691237449646,13.99267578125Q17.62975337449646,13.99267578125,17.25879437449646,14.04847578125Q17.12666337449646,14.06834578125,17.00012637449646,14.11126578125Q16.87358937449646,14.15418578125,16.75662937449646,14.21878578125Q16.63967037449646,14.28339578125,16.53597237449646,14.36765578125Q16.43227237449646,14.45192578125,16.34510237449646,14.55318678125Q16.25793237449646,14.65445178125,16.19003237449646,14.76952978125Q16.12213237449646,14.88460778125,16.07564237449646,15.00987678125Q16.02914237449646,15.13514478125,16.00553237449646,15.26665778125Q15.98191237449646,15.39817118125,15.98191237449646,15.53178818125Q15.98191237449646,15.60547878125,15.98913237449646,15.67881378125Q15.99636237449646,15.75214978125,16.01073237449646,15.82442378125Q16.02511237449646,15.89669778125,16.04650237449646,15.96721478125Q16.06789237449646,16.03773278125,16.09609237449646,16.10581378125Q16.12429237449646,16.17389378125,16.15903237449646,16.23888378125Q16.19377237449646,16.30387278125,16.23471237449646,16.36514378125Q16.27565237449646,16.42641478125,16.32239237449646,16.48337778125Q16.36914237449646,16.54034578125,16.42125237449646,16.59244578125Q16.47336237449646,16.64455578125,16.53032237449646,16.69130578125Q16.58728537449646,16.73805578125,16.64855737449646,16.77899578125Q16.70982837449646,16.81993578125,16.77481737449646,16.85466578125Q16.83980637449646,16.88940578125,16.90788737449646,16.91760578125Q16.97596837449646,16.94580578125,17.04648537449646,16.96719578125Q17.11700237449646,16.98858578125,17.18927737449646,17.00296578125Q17.26155137449646,17.01734578125,17.33488637449646,17.02456578125Q17.40822207449646,17.03178578125,17.48191237449646,17.03178578125Q17.59409537449646,17.03178578125,17.70503037449646,17.01510578125Q17.85411937449646,16.99267578125,18.00691237449646,16.99267578125Q19.08365237449646,16.99267578125,19.67814237449646,17.89332578125Z" fill-rule="evenodd" fill="#FFFFFF" fill-opacity="1"/></g></g><g><g><path d="M14.531912207603455,20.917675495147705L14.531912207603455,21.967675495147706Q14.531912207603455,22.016925495147706,14.541519207603455,22.065215495147704Q14.551127207603454,22.113515495147706,14.569972207603454,22.159015495147706Q14.588818207603454,22.204515495147707,14.616177207603455,22.245455495147706Q14.643537207603455,22.286405495147704,14.678359207603455,22.321225495147704Q14.713181207603455,22.356055495147704,14.754127207603455,22.383405495147706Q14.795073207603455,22.410765495147704,14.840570207603454,22.429615495147704Q14.886067207603455,22.448455495147705,14.934367107603455,22.458065495147704Q14.982666507603454,22.467675495147706,15.031912207603455,22.467675495147706Q15.081157907603455,22.467675495147706,15.129457307603454,22.458065495147704Q15.177757207603454,22.448455495147705,15.223254207603455,22.429615495147704Q15.268751207603454,22.410765495147704,15.309697207603454,22.383405495147706Q15.350643207603454,22.356055495147704,15.385465207603454,22.321225495147704Q15.420287207603455,22.286405495147704,15.447647207603454,22.245455495147706Q15.475006207603455,22.204515495147707,15.493852207603455,22.159015495147706Q15.512697207603455,22.113515495147706,15.522305207603454,22.065215495147704Q15.531912207603455,22.016925495147706,15.531912207603455,21.967675495147706L15.531912207603455,21.417675495147705L16.081912207603455,21.417675495147705Q16.131162207603456,21.417675495147705,16.179452207603454,21.408068495147706Q16.227752207603455,21.398460495147706,16.273252207603456,21.379615495147704Q16.318752207603456,21.360769495147704,16.359692207603455,21.333410495147707Q16.400642207603454,21.306050495147705,16.435462207603454,21.271228495147707Q16.470292207603453,21.236406495147705,16.497642207603455,21.195460495147707Q16.525002207603453,21.154514495147705,16.543852207603454,21.109017495147704Q16.562692207603455,21.063520495147706,16.572302207603453,21.015220595147706Q16.581912207603455,20.966921195147705,16.581912207603455,20.917675495147705Q16.581912207603455,20.868429795147705,16.572302207603453,20.820130395147704Q16.562692207603455,20.771830495147704,16.543852207603454,20.726333495147706Q16.525002207603453,20.680836495147705,16.497642207603455,20.639890495147704Q16.470292207603453,20.598944495147705,16.435462207603454,20.564122495147704Q16.400642207603454,20.529300495147705,16.359692207603455,20.501940495147704Q16.318752207603456,20.474581495147707,16.273252207603456,20.455735495147707Q16.227752207603455,20.436890495147704,16.179452207603454,20.427282495147704Q16.131162207603456,20.417675495147705,16.081912207603455,20.417675495147705L15.031912207603455,20.417675495147705Q14.982666507603454,20.417675495147705,14.934367107603455,20.427282495147704Q14.886067207603455,20.436890495147704,14.840570207603454,20.455735495147707Q14.795073207603455,20.474581495147707,14.754127207603455,20.501940495147704Q14.713181207603455,20.529300495147705,14.678359207603455,20.564122495147704Q14.643537207603455,20.598944495147705,14.616177207603455,20.639890495147704Q14.588818207603454,20.680836495147705,14.569972207603454,20.726333495147706Q14.551127207603454,20.771830495147704,14.541519207603455,20.820130395147704Q14.531912207603455,20.868429795147705,14.531912207603455,20.917675495147705Z" fill-rule="evenodd" fill="#71C7FB" fill-opacity="1"/></g><g><path d="M19.431911945343018,20.917675495147705Q19.431911945343018,20.868429795147705,19.441518945343017,20.820130395147704Q19.451126945343017,20.771830495147704,19.46997194534302,20.726333495147706Q19.48881794534302,20.680836495147705,19.516176945343016,20.639890495147704Q19.543536945343018,20.598944495147705,19.578358945343016,20.564122495147704Q19.613180945343018,20.529300495147705,19.654126945343016,20.501940495147704Q19.695072945343018,20.474581495147707,19.74056994534302,20.455735495147707Q19.786066945343016,20.436890495147704,19.834366845343016,20.427282495147704Q19.882666245343017,20.417675495147705,19.931911945343018,20.417675495147705Q19.981157645343018,20.417675495147705,20.02945704534302,20.427282495147704Q20.07775694534302,20.436890495147704,20.123253945343016,20.455735495147707Q20.168750945343017,20.474581495147707,20.20969694534302,20.501940495147704Q20.250642945343017,20.529300495147705,20.28546494534302,20.564122495147704Q20.320286945343017,20.598944495147705,20.34764694534302,20.639890495147704Q20.375005945343016,20.680836495147705,20.393851945343016,20.726333495147706Q20.41269694534302,20.771830495147704,20.42230494534302,20.820130395147704Q20.431911945343018,20.868429795147705,20.431911945343018,20.917675495147705L20.431911945343018,21.467675495147706L20.98191194534302,21.467675495147706Q21.03116194534302,21.467675495147706,21.079451945343017,21.477282495147705Q21.127751945343018,21.486890495147705,21.17325194534302,21.505735495147704Q21.21875194534302,21.524581495147704,21.259691945343018,21.551940495147704Q21.300641945343017,21.579300495147706,21.335461945343017,21.614121495147707Q21.370291945343016,21.648943495147705,21.397641945343018,21.689890495147704Q21.425001945343016,21.730836495147706,21.443851945343017,21.776333495147703Q21.462691945343018,21.821830495147704,21.472301945343016,21.870130495147706Q21.48191194534302,21.918425495147705,21.48191194534302,21.967675495147706Q21.48191194534302,22.016925495147706,21.472301945343016,22.065215495147704Q21.462691945343018,22.113515495147706,21.443851945343017,22.159015495147706Q21.425001945343016,22.204515495147707,21.397641945343018,22.245455495147706Q21.370291945343016,22.286405495147704,21.335461945343017,22.321225495147704Q21.300641945343017,22.356055495147704,21.259691945343018,22.383405495147706Q21.21875194534302,22.410765495147704,21.17325194534302,22.429615495147704Q21.127751945343018,22.448455495147705,21.079451945343017,22.458065495147704Q21.03116194534302,22.467675495147706,20.98191194534302,22.467675495147706L19.931911945343018,22.467675495147706Q19.882666245343017,22.467675495147706,19.834366845343016,22.458065495147704Q19.786066945343016,22.448465495147705,19.74056994534302,22.429615495147704Q19.695072945343018,22.410765495147704,19.654126945343016,22.383405495147706Q19.613180945343018,22.356055495147704,19.578358945343016,22.321225495147704Q19.543536945343018,22.286405495147704,19.516176945343016,22.245465495147705Q19.48881794534302,22.204515495147707,19.46997194534302,22.159015495147706Q19.451126945343017,22.113515495147706,19.441518945343017,22.065215495147704Q19.431911945343018,22.016925495147706,19.431911945343018,21.967675495147706L19.431911945343018,20.917675495147705Z" fill-rule="evenodd" fill="#71C7FB" fill-opacity="1"/></g><g><path d="M20.48191194534302,16.017675757408142Q20.48191194534302,15.968430057408142,20.491518945343017,15.920130657408142Q20.501126945343017,15.871830757408143,20.519971945343016,15.826333757408142Q20.538817945343016,15.780836757408142,20.566176945343017,15.739890757408142Q20.593535945343017,15.698944757408142,20.62835794534302,15.664122757408142Q20.663179945343018,15.629300757408142,20.704126945343017,15.601940757408142Q20.74507294534302,15.574581757408142,20.790569945343016,15.555735757408142Q20.836066945343017,15.536890757408141,20.884366945343018,15.527282757408143Q20.932661945343018,15.517675757408142,20.98191194534302,15.517675757408142Q21.03116194534302,15.517675757408142,21.079451945343017,15.527282757408143Q21.127751945343018,15.536890757408141,21.17325194534302,15.555735757408142Q21.21875194534302,15.574581757408142,21.259691945343018,15.601940757408142Q21.300641945343017,15.629300757408142,21.335461945343017,15.664122757408142Q21.370291945343016,15.698944757408142,21.397641945343018,15.739890757408142Q21.425001945343016,15.780836757408142,21.443851945343017,15.826333757408142Q21.462691945343018,15.871830757408143,21.472301945343016,15.920130657408142Q21.48191194534302,15.968430057408142,21.48191194534302,16.017675757408142L21.48191194534302,17.067675757408143Q21.48191194534302,17.116925757408143,21.472301945343016,17.16521575740814Q21.462701945343017,17.213515757408143,21.443851945343017,17.259015757408143Q21.425001945343016,17.304515757408144,21.397641945343018,17.345465757408142Q21.370291945343016,17.38640575740814,21.335461945343017,17.42122575740814Q21.300641945343017,17.45605575740814,21.259701945343018,17.483405757408143Q21.21875194534302,17.51076575740814,21.17325194534302,17.52961575740814Q21.127751945343018,17.54846575740814,21.079451945343017,17.55806575740814Q21.03116194534302,17.567675757408143,20.98191194534302,17.567675757408143L19.931911945343018,17.567675757408143Q19.882666245343017,17.567675757408143,19.834366845343016,17.55806575740814Q19.786066945343016,17.54846575740814,19.74056994534302,17.52961575740814Q19.695072945343018,17.51076575740814,19.654126945343016,17.483405757408143Q19.613180945343018,17.45605575740814,19.578358945343016,17.42122575740814Q19.543536945343018,17.38640575740814,19.516176945343016,17.345465757408142Q19.48881794534302,17.304515757408144,19.46997194534302,17.259015757408143Q19.451126945343017,17.213515757408143,19.441518945343017,17.16521575740814Q19.431911945343018,17.116925757408143,19.431911945343018,17.067675757408143Q19.431911945343018,17.018425757408142,19.441518945343017,16.970130757408143Q19.451126945343017,16.92183075740814,19.46997194534302,16.87633375740814Q19.48881794534302,16.830836757408143,19.516176945343016,16.78989075740814Q19.543536945343018,16.748943757408142,19.578358945343016,16.714121757408144Q19.613180945343018,16.679300757408143,19.654126945343016,16.65194075740814Q19.695072945343018,16.62458175740814,19.74056994534302,16.60573575740814Q19.786066945343016,16.586890757408142,19.834366845343016,16.577282757408142Q19.882666245343017,16.567675757408143,19.931911945343018,16.567675757408143L20.48191194534302,16.567675757408143L20.48191194534302,16.017675757408142Z" fill-rule="evenodd" fill="#71C7FB" fill-opacity="1"/></g><g><path d="M15.031912207603455,15.517675757408142L16.081912207603455,15.517675757408142Q16.131162207603456,15.517675757408142,16.179452207603454,15.527282757408143Q16.227752207603455,15.536890757408141,16.273252207603456,15.555735757408142Q16.318752207603456,15.574581757408142,16.359702207603455,15.601940757408142Q16.400642207603454,15.629300757408142,16.435462207603454,15.664122757408142Q16.470292207603453,15.698944757408142,16.497642207603455,15.739890757408142Q16.525002207603453,15.780836757408142,16.543852207603454,15.826333757408142Q16.562702207603454,15.871830757408143,16.572302207603453,15.920130657408142Q16.581912207603455,15.968430057408142,16.581912207603455,16.017675757408142L16.581912207603455,17.067675757408143Q16.581912207603455,17.116925757408143,16.572302207603453,17.16521575740814Q16.562702207603454,17.213515757408143,16.543852207603454,17.259015757408143Q16.525002207603453,17.304515757408144,16.497642207603455,17.345455757408143Q16.470292207603453,17.38640575740814,16.435462207603454,17.42122575740814Q16.400642207603454,17.45605575740814,16.359702207603455,17.483405757408143Q16.318752207603456,17.51076575740814,16.273252207603456,17.52961575740814Q16.227752207603455,17.548455757408142,16.179452207603454,17.55806575740814Q16.131162207603456,17.567675757408143,16.081912207603455,17.567675757408143Q16.032662207603455,17.567675757408143,15.984367207603455,17.55806575740814Q15.936067207603454,17.548455757408142,15.890570207603455,17.52961575740814Q15.845073207603456,17.51076575740814,15.804127207603454,17.483405757408143Q15.763180207603455,17.45605575740814,15.728358207603454,17.42122575740814Q15.693536207603454,17.38640575740814,15.666177207603454,17.345455757408143Q15.638818207603455,17.304515757408144,15.619972207603455,17.259015757408143Q15.601127207603454,17.213515757408143,15.591519207603454,17.16521575740814Q15.581912207603455,17.116925757408143,15.581912207603455,17.067675757408143L15.581912207603455,16.517675757408142L15.031912207603455,16.517675757408142Q14.982666507603454,16.517675757408142,14.934367107603455,16.508068757408143Q14.886067207603455,16.498460757408143,14.840570207603454,16.47961575740814Q14.795073207603455,16.46076975740814,14.754127207603455,16.433410757408144Q14.713181207603455,16.406050757408142,14.678359207603455,16.371228757408144Q14.643537207603455,16.33640675740814,14.616177207603455,16.295460757408144Q14.588818207603454,16.254514757408142,14.569972207603454,16.20901775740814Q14.551127207603454,16.163520757408143,14.541519207603455,16.115220857408143Q14.531912207603455,16.066921457408142,14.531912207603455,16.017675757408142Q14.531912207603455,15.968430057408142,14.541519207603455,15.920130657408142Q14.551127207603454,15.871830757408143,14.569972207603454,15.826333757408142Q14.588818207603454,15.780836757408142,14.616177207603455,15.739890757408142Q14.643537207603455,15.698944757408142,14.678359207603455,15.664122757408142Q14.713181207603455,15.629300757408142,14.754127207603455,15.601940757408142Q14.795073207603455,15.574581757408142,14.840570207603454,15.555735757408142Q14.886067207603455,15.536890757408141,14.934367107603455,15.527282757408143Q14.982666507603454,15.517675757408142,15.031912207603455,15.517675757408142Z" fill-rule="evenodd" fill="#71C7FB" fill-opacity="1"/></g><g><path d="M16.35727223144531,16.486465069244385Q16.40905223144531,16.452299069244386,16.45091223144531,16.406514069244384Q16.49278223144531,16.360728069244384,16.522182231445314,16.306100069244383Q16.551592231445312,16.251472069244386,16.566752231445314,16.191314069244385Q16.581912231445312,16.131156269244386,16.581912231445312,16.069117069244385Q16.581912231445312,16.019871369244385,16.572302231445313,15.971571969244385Q16.56269223144531,15.923272069244385,16.543852231445314,15.877775069244384Q16.525002231445313,15.832278069244385,16.49764223144531,15.791332069244385Q16.470292231445313,15.750386069244385,16.435462231445314,15.715564069244385Q16.400642231445314,15.680742069244385,16.35969223144531,15.653382069244385Q16.318752231445313,15.626023069244384,16.273252231445312,15.607177069244385Q16.22775223144531,15.588332069244384,16.179452231445314,15.578724069244386Q16.131162231445312,15.569117069244385,16.081912231445312,15.569117069244385Q15.931832231445313,15.569117069244385,15.806552231445313,15.651769069244384L15.806302231445313,15.651939069244385L15.805712231445312,15.652325069244386Q14.978149231445313,16.198614069244385,14.500543831445313,17.066366069244385Q14.006912231445312,17.963237069244386,14.006912231445312,18.992657069244384Q14.006912231445312,19.294707069244385,14.051493231445313,19.591407069244383L14.051574231445313,19.591947069244384L14.051587231445312,19.592027069244384Q14.058212231445312,19.636077069244386,14.072517231445312,19.678257069244385Q14.086823231445312,19.720437069244383,14.108358231445312,19.759417069244385Q14.129894231445313,19.798407069244384,14.157981231445312,19.832967069244386Q14.186069231445313,19.867537069244385,14.219824231445312,19.896597069244386Q14.253579231445313,19.925657069244384,14.291938231445313,19.948287069244383Q14.330298231445312,19.970917069244386,14.372054231445313,19.986417069244386Q14.413810031445312,20.001917069244385,14.457647831445312,20.009787069244386Q14.501485631445313,20.017657069244386,14.546024631445313,20.017657069244386Q14.595270331445313,20.017657069244386,14.643570231445313,20.008047069244384Q14.691869231445313,19.998447069244385,14.737366231445312,19.979597069244384Q14.782863231445312,19.960747069244384,14.823810231445313,19.933397069244386Q14.864756231445313,19.906037069244384,14.899578231445313,19.871207069244385Q14.934400231445313,19.836387069244385,14.961759231445313,19.795447069244386Q14.989119231445313,19.754497069244383,15.007964231445312,19.708997069244383Q15.026810231445312,19.663507069244385,15.036417231445313,19.615207069244384Q15.046025231445313,19.566907069244387,15.046024231445312,19.517657069244386Q15.046024231445312,19.480267069244384,15.040462231445312,19.443287069244384Q15.006912231445312,19.220237069244384,15.006912231445312,18.992657069244384Q15.006912231445312,17.377397069244385,16.35727223144531,16.486465069244385Z" fill-rule="evenodd" fill="#71C7FB" fill-opacity="1"/></g><g><path d="M14.738100857421875,21.298536765625Q14.646453857421875,21.168828765625,14.646453857421875,21.010009765625Q14.646453857421875,20.960764065625,14.656060857421876,20.912464665625Q14.665668857421874,20.864164765625,14.684513857421875,20.818667765625Q14.703359857421875,20.773170765625,14.730718857421875,20.732224765625Q14.758078857421875,20.691278765625,14.792900857421875,20.656456765625Q14.827722857421875,20.621634765625,14.868668857421875,20.594274765625Q14.909614857421875,20.566915765625,14.955111857421874,20.548069765625Q15.000608857421875,20.529224765625,15.048908757421875,20.519616765625Q15.097208157421875,20.510009765625,15.146453857421875,20.510009765625Q15.268239857421875,20.510009765625,15.376384857421876,20.566014765625Q15.484528857421875,20.622018765625,15.554806857421875,20.721482765625Q16.452943857421875,21.992612765625,18.006893857421876,21.992612765625Q18.234473857421875,21.992612765625,18.457523857421876,21.959062765625Q18.494503857421876,21.953500765625,18.531893857421874,21.953500765625Q18.581143857421875,21.953500765625,18.629443857421876,21.963107765625Q18.677743857421873,21.972715765625,18.723233857421874,21.991560765625Q18.768733857421875,22.010409765625,18.809683857421874,22.037769765625Q18.850623857421876,22.065129765625,18.885443857421876,22.099949765625Q18.920273857421876,22.134769765625,18.947633857421874,22.175719765625Q18.974993857421875,22.216659765625,18.993833857421876,22.262159765625Q19.012683857421877,22.307659765625,19.022283857421876,22.355959765625Q19.031893857421874,22.404259765625,19.031893857421874,22.453499765625Q19.031893857421874,22.498049765625,19.024013857421874,22.541899765625Q19.016143857421874,22.585759765625,19.000633857421874,22.627519765625Q18.985123857421875,22.669289765625,18.962483857421876,22.707659765625Q18.939833857421874,22.746029765625,18.910763857421877,22.779779765625Q18.881683857421876,22.813539765625,18.847103857421875,22.841629765625Q18.812513857421877,22.869719765625,18.773513857421875,22.891249765625Q18.734503857421874,22.912779765625,18.692313857421876,22.927069765625Q18.650113857421875,22.941359765625,18.606053857421877,22.947969765625L18.605513857421876,22.948049765625Q18.308873857421876,22.992609765625,18.006893857421876,22.992609765625Q17.011593857421875,22.992609765625,16.137158857421873,22.529519765625Q15.291383857421875,22.081599765625,14.738100857421875,21.298536765625Q14.808378857421875,21.398000765625,14.916522857421874,21.454004765625Q15.024667857421875,21.510009765625,15.146453857421875,21.510009765625Q15.195699557421875,21.510009765625,15.243998957421875,21.500402765625Q15.292298857421875,21.490794765625,15.337795857421876,21.471949765625Q15.383292857421875,21.453103765625,15.424238857421875,21.425744765625Q15.465184857421875,21.398384765625,15.500006857421875,21.363562765625Q15.534828857421875,21.328740765625,15.562188857421875,21.287794765625Q15.589547857421875,21.246848765625,15.608393857421875,21.201351765625Q15.627238857421876,21.155854765625,15.636846857421874,21.107554865625Q15.646453857421875,21.059255465625,15.646453857421875,21.010009765625Q15.646453857421875,20.851190765625,15.554806857421875,20.721482765625L14.738100857421875,21.298536765625Z" fill-rule="evenodd" fill="#71C7FB" fill-opacity="1"/></g><g><path d="M20.97336194534302,18.54204862430115Q20.967801945343016,18.505070224301146,20.967801945343016,18.467675924301147Q20.967801945343016,18.418430224301147,20.97740194534302,18.370130824301146Q20.987011945343017,18.321830924301146,21.005861945343018,18.27633392430115Q21.02470194534302,18.230836924301148,21.052061945343016,18.189890924301146Q21.079421945343018,18.148944924301148,21.114241945343018,18.114122924301146Q21.149071945343017,18.079300924301148,21.190011945343016,18.051940924301146Q21.23096194534302,18.02458192430115,21.276461945343016,18.00573592430115Q21.321951945343017,17.986890924301147,21.370251945343018,17.977282924301146Q21.41855194534302,17.967675924301147,21.467801945343016,17.967675924301147Q21.51239194534302,17.967675924301147,21.556271945343017,17.975565924301147Q21.600161945343018,17.983455924301147,21.641951945343017,17.998986924301146Q21.68375194534302,18.01451792430115,21.72214194534302,18.037198924301148Q21.76053194534302,18.059880924301147,21.79430194534302,18.088997924301147Q21.82807194534302,18.11811392430115,21.85615194534302,18.152746924301148Q21.884241945343017,18.187379924301148,21.905751945343017,18.226435924301146Q21.927261945343016,18.26549192430115,21.941531945343016,18.307737924301147Q21.955791945343016,18.349983924301146,21.962351945343016,18.394087324301147Q22.006911945343017,18.690706924301146,22.006911945343017,18.992675924301146Q22.006911945343017,20.022095924301148,21.513281945343017,20.918965924301148Q21.035431945343017,21.78716592430115,20.20727094534302,22.333575924301147Q20.08199694534302,22.41622592430115,19.931911945343018,22.41622592430115Q19.882666245343017,22.41622592430115,19.834366845343016,22.406615924301146Q19.786066945343016,22.397005924301148,19.74056994534302,22.378165924301147Q19.695072945343018,22.359315924301146,19.654126945343016,22.33195592430115Q19.613180945343018,22.304605924301146,19.578358945343016,22.269775924301147Q19.543536945343018,22.234955924301147,19.516176945343016,22.194015924301148Q19.48881794534302,22.153065924301146,19.46997194534302,22.10756592430115Q19.451126945343017,22.062065924301148,19.441518945343017,22.013775924301147Q19.431911945343018,21.965475924301145,19.431911945343018,21.91622592430115Q19.431911945343018,21.85418592430115,19.447073945343018,21.79402592430115Q19.462235945343018,21.73387592430115,19.491639945343017,21.67924592430115Q19.521043945343017,21.624615924301146,19.562906945343016,21.578835924301146Q19.60476994534302,21.53304592430115,19.656552945343016,21.498875924301146L19.656967945343016,21.49860592430115Q21.006911945343017,20.607685924301148,21.006911945343017,18.992675924301146Q21.006911945343017,18.765095924301146,20.97336194534302,18.54204862430115L20.97336194534302,18.54204862430115Z" fill-rule="evenodd" fill="#71C7FB" fill-opacity="1"/></g><g><path d="M20.51284237449646,17.34261578125L20.51311237449646,17.34303578125Q20.54728237449646,17.39481578125,20.593072374496458,17.43667578125Q20.63885237449646,17.47854578125,20.69348237449646,17.50794578125Q20.74811237449646,17.53735578125,20.80826237449646,17.55251578125Q20.86842237449646,17.56767578125,20.93046237449646,17.56767578125Q20.979712374496458,17.56767578125,21.02801237449646,17.55806578125Q21.07630237449646,17.54845578125,21.12180237449646,17.52961578125Q21.167302374496458,17.51076578125,21.20824237449646,17.48340578125Q21.24919237449646,17.45605578125,21.28401237449646,17.42122578125Q21.31884237449646,17.38640578125,21.34619237449646,17.34545578125Q21.37355237449646,17.30451578125,21.39240237449646,17.25901578125Q21.41124237449646,17.21351578125,21.42085237449646,17.16521578125Q21.43046237449646,17.11692578125,21.43046237449646,17.06767578125Q21.43046237449646,16.91759578125,21.34781237449646,16.79231578125Q20.801402374496462,15.96415378125,19.93320237449646,15.48630719125Q19.03633237449646,14.99267578125,18.00691237449646,14.99267578125Q17.70466137449646,14.99267578125,17.40777357449646,15.03731578125L17.40753977449646,15.03735078125Q17.36349637449646,15.04397578125,17.32131737449646,15.05828078125Q17.27913837449646,15.07258678125,17.24015137449646,15.09412178125Q17.20116537449646,15.11565778125,17.16659937449646,15.14374478125Q17.13203237449646,15.17183278125,17.10297537449646,15.20558778125Q17.07391837449646,15.23934278125,17.05128437449646,15.27770178125Q17.02865137449646,15.31606178125,17.01315437449646,15.35781778125Q16.99765737449646,15.39957368125,16.98978437449646,15.44341148125Q16.98191237449646,15.48724920125,16.98191237449646,15.53178818125Q16.98191237449646,15.58103388125,16.99151937449646,15.62933378125Q17.00112737449646,15.67763278125,17.01997237449646,15.72312978125Q17.03881837449646,15.76862678125,17.06617737449646,15.80957378125Q17.09353737449646,15.85051978125,17.12835937449646,15.88534178125Q17.16318137449646,15.92016378125,17.20412737449646,15.947522781250001Q17.24507337449646,15.97488278125,17.29057037449646,15.99372778125Q17.33606737449646,16.01257378125,17.38436727449646,16.02218078125Q17.43266667449646,16.03178778125,17.48191237449646,16.03178778125Q17.51930677449646,16.03178778125,17.55628507449646,16.026225781249998Q17.77933137449646,15.99267578125,18.00691237449646,15.99267578125Q19.62192237449646,15.99267578125,20.51284237449646,17.34261578125Z" fill-rule="evenodd" fill="#71C7FB" fill-opacity="1"/></g></g></g></svg>