<svg xmlns="http://www.w3.org/2000/svg" xmlns:xlink="http://www.w3.org/1999/xlink" fill="none" version="1.1" width="24" height="24" viewBox="0 0 24 24"><defs><clipPath id="master_svg0_644_31775"><rect x="0" y="0" width="24" height="24" rx="0"/></clipPath></defs><g clip-path="url(#master_svg0_644_31775)"><g><path d="M7.5,5C7.5,3.34315,8.84315,2,10.5,2L13.5,2C15.1569,2,16.5,3.34315,16.5,5L16.5,5.205C17.433,5.29,18.357,5.402,19.274,5.539C20.728,5.757,21.75,7.022,21.75,8.456L21.75,11.489C21.75,11.85787,21.6819,12.2202,21.5532,12.5572Q21.159,12.2998,20.7319,12.102Q20.3048,11.90413,19.8536,11.76989Q19.4024,11.63565,18.9366,11.56783Q18.4707,11.5,18,11.5Q17.761,11.5,17.5227,11.51755Q17.2843,11.5351,17.0479,11.5701Q16.811500000000002,11.60511,16.5783,11.65738Q16.345100000000002,11.70965,16.1164,11.7789Q15.8877,11.84816,15.6646,11.93402Q15.4416,12.0199,15.2255,12.1219Q15.0094,12.2239,14.8013,12.3415Q14.5933,12.4591,14.3944,12.5917Q14.1956,12.7242,14.007,12.871Q13.8185,13.0179,13.6412,13.1781Q13.4639,13.3384,13.2988,13.5112Q13.1338,13.6841,12.9819,13.8686Q12.83,14.0531,12.6921,14.2482Q12.5541,14.4434,12.4309,14.6481Q12.3077,14.8529,12.19978,15.0661Q12.09192,15.2794,12,15.5C9.27,15.5,6.643,15.058,4.186,14.241C2.984,13.841,2.25,12.7,2.25,11.489L2.25,8.456C2.25,7.022,3.2720000000000002,5.756,4.726,5.539C5.64729,5.40122,6.57234,5.28984,7.5,5.205L7.5,5ZM11.57786,16.997C8.904440000000001,16.9563,6.2521,16.506999999999998,3.713,15.664C3.46646,15.5824,3.227818,15.4787,3,15.354L3,18.15C3,19.602,4.047,20.878,5.523,21.073C7.67024,21.3578,9.83395,21.5004,12,21.5C12.17389,21.5,12.3476,21.4991,12.521,21.4973Q12.2723,21.1075,12.08116,20.6865Q11.89006,20.2655,11.76048,19.8216Q11.6309,19.3778,11.56545,18.9201Q11.5,18.4624,11.5,18Q11.5,17.4955,11.57786,16.997ZM15,5L15,5.09C13.0018,4.968640000000001,10.99816,4.968640000000001,9,5.09L9,5C9,4.17157,9.67157,3.5,10.5,3.5L13.5,3.5C14.3284,3.5,15,4.17157,15,5ZM12,13.25C12.4142,13.25,12.75,12.9142,12.75,12.5C12.75,12.0858,12.4142,11.75,12,11.75C11.58579,11.75,11.25,12.0858,11.25,12.5C11.25,12.9142,11.58579,13.25,12,13.25Z" fill-rule="evenodd" fill="#00B42A" fill-opacity="1"/></g><g><ellipse cx="18" cy="18" rx="5" ry="5" fill="#00B42A" fill-opacity="1"/></g><g><path d="M16.87359619140625,17.5L19.54360619140625,17.5Q19.59285619140625,17.5,19.64115619140625,17.509607Q19.68944619140625,17.519215,19.73494619140625,17.53806Q19.78044619140625,17.556906,19.82139619140625,17.584265Q19.86233619140625,17.611625,19.89715619140625,17.646447Q19.93198619140625,17.681269,19.95933619140625,17.722215Q19.98669619140625,17.763161,20.00554619140625,17.808658Q20.02439619140625,17.854155,20.03399619140625,17.9024549Q20.04360619140625,17.9507543,20.04360619140625,18Q20.04360619140625,18.0492457,20.03399619140625,18.0975451Q20.02439619140625,18.145845,20.00554619140625,18.191342Q19.98669619140625,18.236839,19.95933619140625,18.277785Q19.93198619140625,18.318731,19.89715619140625,18.353553Q19.86233619140625,18.388375,19.82139619140625,18.415735Q19.78044619140625,18.443094,19.73494619140625,18.46194Q19.68944619140625,18.480785,19.64115619140625,18.490393Q19.59285619140625,18.5,19.54360619140625,18.5L16.87359619140625,18.5Q16.82435049140625,18.5,16.77605109140625,18.490393Q16.72775119140625,18.480785,16.68225419140625,18.46194Q16.63675719140625,18.443094,16.59581119140625,18.415735Q16.55486519140625,18.388375,16.52004319140625,18.353553Q16.48522119140625,18.318731,16.45786119140625,18.277785Q16.43050219140625,18.236839,16.41165619140625,18.191342Q16.39281119140625,18.145845,16.38320319140625,18.0975451Q16.37359619140625,18.0492457,16.37359619140625,18Q16.37359619140625,17.9507543,16.38320319140625,17.9024549Q16.39281119140625,17.854155,16.41165619140625,17.808658Q16.43050219140625,17.763161,16.45786119140625,17.722215Q16.48522119140625,17.681269,16.52004319140625,17.646447Q16.55486519140625,17.611625,16.59581119140625,17.584265Q16.63675719140625,17.556906,16.68225419140625,17.53806Q16.72775119140625,17.519215,16.77605109140625,17.509607Q16.82435049140625,17.5,16.87359619140625,17.5Z" fill-rule="evenodd" fill="#AFF0B5" fill-opacity="1"/></g><g><path d="M18.43216607421875,16.143158546875Q18.54173607421875,16.006201546875,18.54173607421875,15.830810546875Q18.54173607421875,15.781564846875,18.53212607421875,15.733265446875Q18.52251607421875,15.684965546875,18.50366607421875,15.639468546875Q18.48482607421875,15.593971546875,18.45746607421875,15.553025546875Q18.43010607421875,15.512079546875,18.39528607421875,15.477257546875Q18.36046607421875,15.442435546875,18.31951607421875,15.415075546875Q18.27856607421875,15.387716546875,18.23307607421875,15.368870546875Q18.18757607421875,15.350025546874999,18.13927607421875,15.340417546875Q18.09097607421875,15.330810546875,18.04173607421875,15.330810546875Q17.92781607421875,15.330810546875,17.82513607421875,15.380158546875Q17.72246607421875,15.429507546875,17.65129707421875,15.518462546875L16.31629207421875,17.187220546875Q16.20672607421875,17.324180546875,16.20672607421875,17.499570546875Q16.20672607421875,17.548810546875,16.21633307421875,17.597110546875Q16.22594107421875,17.645410546875,16.24478607421875,17.690910546875Q16.26363207421875,17.736410546875,16.29099107421875,17.777350546875Q16.31835107421875,17.818300546875,16.35317307421875,17.853120546875Q16.38799507421875,17.887940546875,16.42894107421875,17.915300546875Q16.46988707421875,17.942660546875,16.51538407421875,17.961510546875Q16.56088107421875,17.980350546875002,16.60918097421875,17.989960546875Q16.65748037421875,17.999570546875,16.70672607421875,17.999570546875Q16.82064507421875,17.999570546875,16.92332007421875,17.950220546875Q17.02599607421875,17.900870546874998,17.09716007421875,17.811910546875L17.09731507421875,17.811720546875L18.43196607421875,16.143408546875L18.43216607421875,16.143158546875L18.43216607421875,16.143158546875Z" fill-rule="evenodd" fill="#AFF0B5" fill-opacity="1"/></g><g><path d="M17.984861658203126,19.857112421875L19.320050658203126,18.188358421875L20.100874658203125,18.813106421875L18.765687658203124,20.481862421875L17.984861658203126,19.857112421875Z" fill-rule="evenodd" fill="#AFF0B5" fill-opacity="1"/></g><g><ellipse cx="17.874816834926605" cy="20.670165956020355" rx="0.9999999403953552" ry="0.9999999403953552" fill="#FFFFFF" fill-opacity="1"/></g><g><ellipse cx="18.54232782125473" cy="15.330078065395355" rx="0.9999999403953552" ry="0.9999999403953552" fill="#FFFFFF" fill-opacity="1"/></g><g><ellipse cx="20.211059510707855" cy="18.000244081020355" rx="0.9999999403953552" ry="0.9999999403953552" fill="#FFFFFF" fill-opacity="1"/></g><g><ellipse cx="16.20608514547348" cy="18.000244081020355" rx="0.9999999403953552" ry="0.9999999403953552" fill="#FFFFFF" fill-opacity="1"/></g></g></svg>