<svg xmlns="http://www.w3.org/2000/svg" xmlns:xlink="http://www.w3.org/1999/xlink" fill="none" version="1.1" width="24" height="24" viewBox="0 0 24 24"><defs><clipPath id="master_svg0_732_33294"><rect x="0" y="0" width="24" height="24" rx="0"/></clipPath></defs><g clip-path="url(#master_svg0_732_33294)"><g><path d="M9.594003398208617,3.94C9.684003398208617,3.398,10.15400339820862,3,10.704003398208618,3L13.297003398208618,3C13.846973398208618,3,14.316973398208619,3.398,14.406973398208619,3.94L14.619973398208618,5.221C14.682973398208619,5.595000000000001,14.932973398208619,5.907,15.264973398208618,6.091C15.338973398208617,6.131,15.411973398208618,6.1739999999999995,15.484973398208618,6.218C15.809973398208617,6.414,16.20497339820862,6.475,16.55997339820862,6.3420000000000005L17.776973398208618,5.886C18.29207339820862,5.6922999999999995,18.871673398208618,5.8995999999999995,19.14697339820862,6.3759999999999994L20.44297339820862,8.623000000000001C20.717773398208617,9.09943,20.607773398208618,9.70468,20.182973398208617,10.054L19.179973398208617,10.881C18.886973398208617,11.122,18.741973398208618,11.494,18.749973398208617,11.873C18.75137339820862,11.95799,18.75137339820862,12.043,18.749973398208617,12.128C18.741973398208618,12.506,18.886973398208617,12.878,19.179973398208617,13.119L20.183973398208618,13.946C20.607973398208618,14.296,20.717973398208617,14.901,20.44397339820862,15.376L19.145973398208618,17.622999999999998C18.87107339820862,18.0993,18.29197339820862,18.307000000000002,17.776973398208618,18.114L16.55997339820862,17.658C16.20497339820862,17.525,15.809973398208617,17.586,15.483973398208619,17.782C15.411473398208619,17.8261,15.338173398208617,17.8688,15.263973398208618,17.91C14.932973398208619,18.093,14.682973398208619,18.405,14.619973398208618,18.779L14.406973398208619,20.06C14.316973398208619,20.603,13.846973398208618,21,13.297003398208618,21L10.703003398208619,21C10.153003398208618,21,9.684003398208617,20.602,9.59300339820862,20.06L9.380003398208618,18.779C9.318003398208617,18.405,9.068003398208617,18.093,8.736003398208618,17.909C8.661853398208617,17.8681,8.58850339820862,17.8258,8.516003398208618,17.782C8.191003398208618,17.586,7.796003398208618,17.525,7.440003398208618,17.658L6.223003398208618,18.114C5.708243398208618,18.3071,5.129293398208619,18.099899999999998,4.854003398208619,17.624000000000002L3.557000398208618,15.377C3.282225398208618,14.9006,3.392194698208618,14.2953,3.8170003982086183,13.946L4.821003398208618,13.119C5.113003398208618,12.879,5.2580033982086185,12.506,5.251003398208618,12.128C5.249433398208618,12.043,5.249433398208618,11.95799,5.251003398208618,11.873C5.2580033982086185,11.493,5.113003398208618,11.122,4.821003398208618,10.881L3.8170003982086183,10.054C3.392727898208618,9.704799999999999,3.282800398208618,9.10019,3.557000398208618,8.623999999999999L4.854003398208619,6.377C5.129053398208618,5.90022,5.708713398208618,5.69247,6.224003398208618,5.886L7.440003398208618,6.3420000000000005C7.796003398208618,6.475,8.191003398208618,6.414,8.516003398208618,6.218C8.588003398208619,6.1739999999999995,8.662003398208618,6.132,8.736003398208618,6.09C9.068003398208617,5.907,9.318003398208617,5.595000000000001,9.380003398208618,5.221L9.594003398208617,3.94L9.594003398208617,3.94Z" fill="#4464F8" fill-opacity="1"/><path d="M8.854253398208618,3.81642L8.640253398208618,5.09742L8.640103398208618,5.09834Q8.605773398208619,5.30539,8.365803398208618,5.43773Q8.207253398208618,5.52772,8.128673398208619,5.57575Q7.900453398208618,5.71339,7.703343398208618,5.639749999999999L6.487693398208618,5.18388Q4.999003398208618,4.62479,4.2044433982086185,6.00206L2.9070493982086183,8.249749999999999Q2.1152933982086184,9.62476,3.3401596982086184,10.6329L4.343596398208618,11.45943Q4.506023398208618,11.59349,4.501123398208618,11.8592Q4.498523398208619,12.0005,4.501133398208618,12.14188Q4.506043398208618,12.40705,4.344159398208618,12.5401L3.340643398208618,13.3667Q2.113683398208618,14.3756,2.9074433982086183,15.7519L4.204792398208618,17.999499999999998Q4.999833398208619,19.374,6.486153398208618,18.8163L7.702473398208618,18.360599999999998Q7.900453398208618,18.2866,8.128453398208618,18.4241Q8.249733398208619,18.4973,8.372443398208619,18.564999999999998Q8.605723398208617,18.6943,8.640163398208617,18.902L8.853353398208618,20.1842Q9.116243398208617,21.75,10.703003398208619,21.75L13.297003398208618,21.75Q14.887073398208619,21.75,15.146873398208617,20.183L15.359573398208617,18.9036Q15.394773398208619,18.694699999999997,15.628373398208618,18.5656Q15.752473398208618,18.496499999999997,15.870473398208619,18.424799999999998Q16.100173398208618,18.2866,16.296873398208618,18.360300000000002L17.513873398208617,18.8163Q19.00137339820862,19.3736,19.795473398208618,17.9981L21.09367339820862,15.7508Q21.885473398208617,14.378,20.66087339820862,13.3671L19.656473398208618,12.53977Q19.49427339820862,12.40639,19.499873398208617,12.14038Q19.50217339820862,12.0005,19.499873398208617,11.85717Q19.49427339820862,11.59362,19.657173398208617,11.45966L20.65937339820862,10.633289999999999Q21.88627339820862,9.62435,21.092673398208618,8.248280000000001L19.79637339820862,6.0006699999999995Q19.00087339820862,4.62446,17.513873398208617,5.18368L16.296873398208618,5.639670000000001Q16.100373398208617,5.713290000000001,15.872173398208618,5.57566Q15.727173398208619,5.48827,15.628573398208617,5.43501Q15.394773398208619,5.30545,15.359873398208618,5.09798L15.146873398208617,3.817145Q14.886673398208618,2.25,13.297003398208618,2.25L10.704003398208618,2.25Q9.114353398208618,2.25,8.854253398208618,3.81642ZM10.11975339820862,5.3445800000000006L10.119903398208617,5.34366L10.333753398208618,4.06358Q10.385823398208618,3.75,10.704003398208618,3.75L13.297003398208618,3.75Q13.615173398208618,3.75,13.667173398208618,4.06286L13.880173398208617,5.34402Q14.035673398208619,6.2671600000000005,14.901473398208617,6.74699Q14.982973398208618,6.79111,15.097873398208618,6.86034Q15.947073398208618,7.37252,16.823173398208617,7.04433L18.040173398208616,6.5883199999999995Q18.338573398208617,6.47609,18.49767339820862,6.751329999999999L19.79327339820862,8.997720000000001Q19.95207339820862,9.27291,19.70667339820862,9.47471L18.702873398208617,10.302330000000001Q17.97927339820862,10.89754,18.000173398208617,11.88883Q18.00197339820862,12.0005,18.00007339820862,12.11561Q17.979173398208616,13.1024,18.70357339820862,13.6982L19.707173398208617,14.5249Q19.952373398208618,14.7273,19.794373398208617,15.0012L18.496573398208618,17.247799999999998Q18.33767339820862,17.5231,18.040173398208616,17.4117L16.823173398208617,16.9557Q15.948073398208619,16.6278,15.097573398208619,17.139200000000002Q14.997973398208618,17.1998,14.899673398208618,17.2544Q14.035773398208619,17.732,13.880373398208619,18.654400000000003L13.667173398208618,19.937Q13.615273398208618,20.25,13.297003398208618,20.25L10.703003398208619,20.25Q10.385403398208618,20.25,10.332653398208617,19.9358L10.11984339820862,18.656Q9.966953398208618,17.7337,9.099563398208618,17.253Q8.999783398208617,17.198,8.903543398208619,17.1399Q8.054443398208619,16.6278,7.177523398208618,16.955399999999997L5.959843398208618,17.4117Q5.662213398208618,17.5233,5.503213398208619,17.2485L4.206558398208618,15.0021Q4.047964398208618,14.7271,4.293357398208618,14.5253L5.297843398208618,13.6979Q6.019223398208618,13.105,6.000873398208618,12.11411Q5.998783398208618,12.00049,6.000873398208618,11.88679Q6.0191033982086175,10.89738,5.2984033982086185,10.30256L4.2938413982086185,9.475100000000001Q4.0486003982086185,9.27325,4.206951398208618,8.998249999999999L5.503553398208618,6.75193Q5.662573398208618,6.4763,5.960313398208618,6.58811L7.176653398208618,7.04424Q8.054443398208619,7.37218,8.903323398208618,6.86024Q8.968743398208618,6.82028,9.106203398208617,6.74226Q9.966233398208619,6.26828,10.11975339820862,5.3445800000000006Z" fill-rule="evenodd" fill="#4464F8" fill-opacity="1"/></g><g><path d="M15,12Q15,12.14738,14.98555,12.29405Q14.97111,12.440719999999999,14.942350000000001,12.58527Q14.913599999999999,12.72982,14.87082,12.87085Q14.82804,13.011890000000001,14.77164,13.14805Q14.71524,13.28421,14.64576,13.41419Q14.57629,13.544170000000001,14.49441,13.66671Q14.41253,13.78925,14.31903,13.903179999999999Q14.22553,14.017109999999999,14.12132,14.12132Q14.017109999999999,14.22553,13.903179999999999,14.31903Q13.78925,14.41253,13.66671,14.49441Q13.544170000000001,14.57629,13.41419,14.64576Q13.28421,14.71524,13.14805,14.77164Q13.011890000000001,14.82804,12.87085,14.87082Q12.72982,14.913599999999999,12.58527,14.94236Q12.440719999999999,14.97111,12.29405,14.98555Q12.14738,15,12,15Q11.85262,15,11.70595,14.98555Q11.559280000000001,14.97111,11.41473,14.942350000000001Q11.27018,14.913599999999999,11.12915,14.87082Q10.98811,14.82804,10.85195,14.77164Q10.71579,14.71524,10.58581,14.64576Q10.45583,14.57629,10.33329,14.49441Q10.21075,14.41253,10.09682,14.31903Q9.982893,14.22553,9.87868,14.12132Q9.774466,14.017109999999999,9.680969,13.903179999999999Q9.587471,13.78925,9.505591,13.66671Q9.423711,13.544170000000001,9.354236,13.41419Q9.284761,13.28421,9.228361,13.14805Q9.171961,13.011890000000001,9.129179,12.87085Q9.0863967,12.72982,9.0576442,12.58527Q9.0288916,12.440719999999999,9.0144458,12.29405Q9,12.14738,9,12Q9,11.85262,9.0144458,11.70595Q9.0288916,11.559280000000001,9.0576442,11.41473Q9.0863967,11.27018,9.129179,11.12915Q9.171961,10.98811,9.228361,10.85195Q9.284761,10.71579,9.354236,10.58581Q9.423711,10.45583,9.505591,10.33329Q9.587471,10.21075,9.680969,10.09682Q9.774466,9.982893,9.87868,9.87868Q9.982893,9.774466,10.09682,9.680969Q10.21075,9.587471,10.33329,9.505591Q10.45583,9.423711,10.58581,9.354236Q10.71579,9.284761,10.85195,9.228361Q10.98811,9.171961,11.12915,9.129179Q11.27018,9.0863967,11.41473,9.0576442Q11.559280000000001,9.0288916,11.70595,9.0144458Q11.85262,9,12,9Q12.14738,9,12.29405,9.0144458Q12.440719999999999,9.0288916,12.58527,9.0576442Q12.72982,9.0863967,12.87085,9.129179Q13.011890000000001,9.171961,13.14805,9.228361Q13.28421,9.284761,13.41419,9.354236Q13.544170000000001,9.423711,13.66671,9.505591Q13.78925,9.587471,13.903179999999999,9.680969Q14.017109999999999,9.774466,14.12132,9.87868Q14.22553,9.982893,14.31903,10.09682Q14.41253,10.21075,14.49441,10.33329Q14.57629,10.45583,14.64576,10.58581Q14.71524,10.71579,14.77164,10.85195Q14.82804,10.98811,14.87082,11.12915Q14.913599999999999,11.27018,14.94236,11.41473Q14.97111,11.559280000000001,14.98555,11.70595Q15,11.85262,15,12Z" fill="#FFFFFF" fill-opacity="1"/><path d="M14.65165,9.348349Q13.5533,8.25,12,8.25Q10.4467,8.25,9.348349,9.34835Q8.25,10.4467,8.25,12Q8.25,13.5533,9.34835,14.65165Q10.4467,15.75,12,15.75Q13.5533,15.75,14.65165,14.65165Q15.75,13.5533,15.75,12Q15.75,10.4467,14.65165,9.348349ZM10.40901,10.40901Q11.06802,9.75,12,9.75Q12.93198,9.75,13.59099,10.40901Q14.25,11.06802,14.25,12Q14.25,12.93198,13.59099,13.59099Q12.93198,14.25,12,14.25Q11.06802,14.25,10.40901,13.59099Q9.75,12.93198,9.75,12Q9.75,11.06802,10.40901,10.40901Z" fill-rule="evenodd" fill="#71C7FB" fill-opacity="1"/></g></g></svg>