<svg xmlns="http://www.w3.org/2000/svg" xmlns:xlink="http://www.w3.org/1999/xlink" fill="none" version="1.1" width="24" height="24" viewBox="0 0 24 24"><defs><clipPath id="master_svg0_644_65509"><rect x="0" y="0" width="24" height="24" rx="0"/></clipPath></defs><g clip-path="url(#master_svg0_644_65509)"><g><path d="M3.5,5.080078125L3.5,20.999978125C3.5,22.104578125,4.395431,22.999978125,5.5,22.999978125L18.5,22.999978125C19.6046,22.999978125,20.5,22.104578125,20.5,20.999978125L20.5,5.080078125C20.5,3.975509125,19.6046,3.080078125,18.5,3.080078125L17.5,3.080078125L17.5,5.499998124999999C17.5,6.328428125,16.828400000000002,6.999998124999999,16,6.999998124999999L8,6.999998124999999C7.17157,6.999998124999999,6.5,6.328428125,6.5,5.499998124999999L6.5,3.080078125L5.5,3.080078125C4.395431,3.080078125,3.5,3.975509125,3.5,5.080078125Z" fill="#FF7D00" fill-opacity="1"/></g><g><path d="M8.333333,6L15.66667,6C16.1269,6,16.5,5.6269,16.5,5.16667L16.5,3.91662C16.5,3.45637,16.1226,3.08327,15.66235,3.08328Q15.23012,3.0833,14.91375,3.08331C14.453520000000001,3.08333,14.09583,2.6800100000000002,13.9132,2.25756C13.59339,1.517792,12.857050000000001,1,11.99999,1C11.14293,1,10.40659,1.517792,10.086780000000001,2.25756C9.904160000000001,2.6800100000000002,9.56107,3.08333,9.10083,3.08332Q8.75319,3.08331,8.311497,3.08329C7.851244,3.08327,7.5,3.45637,7.5,3.91662L7.5,5.16667C7.5,5.6269,7.873096,6,8.333333,6M11.99999,3.91667C11.53958,3.91667,11.16666,3.54375,11.16666,3.08333C11.16666,2.6229199999999997,11.53958,2.25,11.99999,2.25C12.46041,2.25,12.83333,2.6229199999999997,12.83333,3.08333C12.83333,3.54375,12.46041,3.91667,11.99999,3.91667Z" fill="#F9CC45" fill-opacity="1"/></g><g><path d="M9.009425458984374,9.850398359375Q9.114915458984374,9.744909359375,9.172005458984374,9.607081359375Q9.229095458984375,9.469252359375,9.229095458984375,9.320068359375Q9.229095458984375,9.246199859375,9.214685458984375,9.173750359375Q9.200275458984375,9.101301359375,9.172005458984374,9.033055359375Q9.143735458984375,8.964810359375,9.102695458984375,8.903390359375Q9.061655458984376,8.841971359375,9.009425458984374,8.789738359375Q8.957195458984375,8.737505359375,8.895775458984374,8.696466359375Q8.834355458984374,8.655427359375,8.766105458984375,8.627158359375Q8.697865458984374,8.598890359375,8.625415458984374,8.584479359374999Q8.552965458984374,8.570068359375,8.479095458984375,8.570068359375Q8.329915458984376,8.570068359375,8.192085458984375,8.627158359375Q8.054255458984375,8.684249359375,7.948765458984375,8.789738359375L6.854095458984375,9.884408359375L6.571925458984375,9.602238359375Q6.466436458984375,9.496749359375,6.328608458984375,9.439658359375Q6.190779458984375,9.382568359375,6.041595458984375,9.382568359375Q5.967726958984375,9.382568359375,5.895277458984375,9.396979359375Q5.822828458984375,9.411390459375,5.754582458984375,9.439658359375Q5.686337458984375,9.467927359375,5.624917458984375,9.508966359375Q5.563498458984375,9.550005359375,5.511265458984375,9.602238359375Q5.459032458984375,9.654471359375,5.417993458984375,9.715890359375Q5.376954458984375,9.777310359375,5.348685458984375,9.845555359375Q5.320417458984375,9.913801359375,5.306006458984375,9.986250359375Q5.291595458984375,10.058699359375,5.291595458984375,10.132568359375Q5.291595458984375,10.281752359375,5.348685458984375,10.419578359375Q5.405776458984375,10.557408359375,5.511265458984375,10.662898359375L6.323765458984375,11.475398359375Q6.429254458984375,11.580888359374999,6.567082458984375,11.637978359375Q6.704911458984375,11.695068359375,6.854095458984375,11.695068359375Q7.003279458984375,11.695068359375,7.141105458984375,11.637978359375Q7.278935458984375,11.580888359374999,7.384425458984375,11.475398359375L9.009185458984375,9.850633359375L9.009425458984374,9.850398359375L9.009425458984374,9.850398359375Z" fill-rule="evenodd" fill="#FFFFFF" fill-opacity="1"/></g><g><path d="M12.00006103515625,9.381591796875L17.95839103515625,9.381591796875Q18.03226103515625,9.381591796875,18.10471103515625,9.396002796874999Q18.17716103515625,9.410413796875,18.245411035156252,9.438681796875Q18.313651035156248,9.466950796875,18.37507103515625,9.507989796875Q18.43649103515625,9.549028796875,18.48872103515625,9.601261796875Q18.54096103515625,9.653494796875,18.58200103515625,9.714913796875Q18.62303103515625,9.776333796875,18.65130103515625,9.844578796875Q18.67957103515625,9.912824796875,18.69398103515625,9.985273796875Q18.70839103515625,10.057723296875,18.70839103515625,10.131591796875Q18.70839103515625,10.205460296875,18.69398103515625,10.277909796875Q18.67957103515625,10.350358796875,18.65130103515625,10.418604796875Q18.62303103515625,10.486849796875,18.58199103515625,10.548269796875Q18.54096103515625,10.609688796875,18.48872103515625,10.661921796875Q18.43649103515625,10.714154796875,18.37507103515625,10.755193796875Q18.313651035156248,10.796232796875,18.245411035156252,10.824501796875Q18.17716103515625,10.852769796875,18.10471103515625,10.867180796875001Q18.03226103515625,10.881591796875,17.95839103515625,10.881591796875L12.00006103515625,10.881591796875Q11.92619253515625,10.881591796875,11.85374303515625,10.867180796875001Q11.78129403515625,10.852769796875,11.71304803515625,10.824501796875Q11.64480303515625,10.796232796875,11.58338303515625,10.755193796875Q11.52196403515625,10.714154796875,11.46973103515625,10.661921796875Q11.41749803515625,10.609688796875,11.37645903515625,10.548269796875Q11.33542003515625,10.486849796875,11.30715103515625,10.418604796875Q11.27888303515625,10.350358796875,11.264472035156249,10.277909796875Q11.25006103515625,10.205460296875,11.25006103515625,10.131591796875Q11.25006103515625,10.057723296875,11.264472035156249,9.985273796875Q11.27888303515625,9.912824796875,11.30715103515625,9.844578796875Q11.33542003515625,9.776333796875,11.37645903515625,9.714913796875Q11.41749803515625,9.653494796875,11.46973103515625,9.601261796875Q11.52196403515625,9.549028796875,11.58338303515625,9.507989796875Q11.64480303515625,9.466950796875,11.71304803515625,9.438681796875Q11.78129403515625,9.410413796875,11.85374303515625,9.396002796874999Q11.92619253515625,9.381591796875,12.00006103515625,9.381591796875Z" fill-rule="evenodd" fill="#FFFFFF" fill-opacity="1"/></g><g><path d="M9.009425458984374,14.475398359375Q9.114915458984374,14.369909359375,9.172005458984374,14.232081359375Q9.229095458984375,14.094252359375,9.229095458984375,13.945068359375Q9.229095458984375,13.871199859375,9.214685458984375,13.798750359375Q9.200275458984375,13.726301359375,9.172005458984374,13.658055359375Q9.143735458984375,13.589810359375,9.102695458984375,13.528390359375Q9.061655458984376,13.466971359375,9.009425458984374,13.414738359375Q8.957195458984375,13.362505359375,8.895775458984374,13.321466359375Q8.834355458984374,13.280427359375,8.766105458984375,13.252158359375Q8.697865458984374,13.223890359375,8.625415458984374,13.209479359374999Q8.552965458984374,13.195068359375,8.479095458984375,13.195068359375Q8.329915458984376,13.195068359375,8.192085458984375,13.252158359375Q8.054255458984375,13.309249359375,7.948765458984375,13.414738359375L6.854095458984375,14.509408359375L6.571925458984375,14.227238359375Q6.466436458984375,14.121749359375,6.328608458984375,14.064658359375Q6.190779458984375,14.007568359375,6.041595458984375,14.007568359375Q5.967726958984375,14.007568359375,5.895277458984375,14.021979359375Q5.822828458984375,14.036390459375,5.754582458984375,14.064658359375Q5.686337458984375,14.092927359375,5.624917458984375,14.133966359375Q5.563498458984375,14.175005359375,5.511265458984375,14.227238359375Q5.459032458984375,14.279471359375,5.417993458984375,14.340890359375Q5.376954458984375,14.402310359375,5.348685458984375,14.470555359375Q5.320417458984375,14.538801359375,5.306006458984375,14.611250359375Q5.291595458984375,14.683699359375,5.291595458984375,14.757568359375Q5.291595458984375,14.906752359375,5.348685458984375,15.044578359375Q5.405776458984375,15.182408359375,5.511265458984375,15.287898359375L6.323765458984375,16.100398359375Q6.429254458984375,16.205888359375,6.567082458984375,16.262978359375Q6.704911458984375,16.320068359375,6.854095458984375,16.320068359375Q7.003279458984375,16.320068359375,7.141105458984375,16.262978359375Q7.278935458984375,16.205888359375,7.384425458984375,16.100398359375L9.009185458984375,14.475633359375L9.009425458984374,14.475398359375L9.009425458984374,14.475398359375Z" fill-rule="evenodd" fill="#FFFFFF" fill-opacity="1"/></g><g><path d="M12.00006103515625,14.006591796875L17.95839103515625,14.006591796875Q18.03226103515625,14.006591796875,18.10471103515625,14.021002796874999Q18.17716103515625,14.035413796875,18.245411035156252,14.063681796875Q18.313651035156248,14.091950796875,18.37507103515625,14.132989796875Q18.43649103515625,14.174028796875,18.48872103515625,14.226261796875Q18.54096103515625,14.278494796875,18.58200103515625,14.339913796875Q18.62303103515625,14.401333796875,18.65130103515625,14.469578796875Q18.67957103515625,14.537824796875,18.69398103515625,14.610273796875Q18.70839103515625,14.682723296875,18.70839103515625,14.756591796875Q18.70839103515625,14.830460296875,18.69398103515625,14.902909796875Q18.67957103515625,14.975358796875,18.65130103515625,15.043604796875Q18.62303103515625,15.111849796875,18.58199103515625,15.173269796875Q18.54096103515625,15.234688796875,18.48872103515625,15.286921796875Q18.43649103515625,15.339154796875,18.37507103515625,15.380193796875Q18.313651035156248,15.421232796875,18.245411035156252,15.449501796875Q18.17716103515625,15.477769796875,18.10471103515625,15.492180796875001Q18.03226103515625,15.506591796875,17.95839103515625,15.506591796875L12.00006103515625,15.506591796875Q11.92619253515625,15.506591796875,11.85374303515625,15.492180796875001Q11.78129403515625,15.477769796875,11.71304803515625,15.449501796875Q11.64480303515625,15.421232796875,11.58338303515625,15.380193796875Q11.52196403515625,15.339154796875,11.46973103515625,15.286921796875Q11.41749803515625,15.234688796875,11.37645903515625,15.173269796875Q11.33542003515625,15.111849796875,11.30715103515625,15.043604796875Q11.27888303515625,14.975358796875,11.264472035156249,14.902909796875Q11.25006103515625,14.830460296875,11.25006103515625,14.756591796875Q11.25006103515625,14.682723296875,11.264472035156249,14.610273796875Q11.27888303515625,14.537824796875,11.30715103515625,14.469578796875Q11.33542003515625,14.401333796875,11.37645903515625,14.339913796875Q11.41749803515625,14.278494796875,11.46973103515625,14.226261796875Q11.52196403515625,14.174028796875,11.58338303515625,14.132989796875Q11.64480303515625,14.091950796875,11.71304803515625,14.063681796875Q11.78129403515625,14.035413796875,11.85374303515625,14.021002796874999Q11.92619253515625,14.006591796875,12.00006103515625,14.006591796875Z" fill-rule="evenodd" fill="#FFFFFF" fill-opacity="1"/></g><g><path d="M9.009425458984374,19.100398359375Q9.114915458984374,18.994909359375,9.172005458984374,18.857081359375Q9.229095458984375,18.719252359375,9.229095458984375,18.570068359375Q9.229095458984375,18.496199859375,9.214685458984375,18.423750359375Q9.200275458984375,18.351301359375,9.172005458984374,18.283055359375Q9.143735458984375,18.214810359375,9.102695458984375,18.153390359375Q9.061655458984376,18.091971359375002,9.009425458984374,18.039738359375Q8.957195458984375,17.987505359375,8.895775458984374,17.946466359375002Q8.834355458984374,17.905427359375,8.766105458984375,17.877158359375Q8.697865458984374,17.848890359375,8.625415458984374,17.834479359375Q8.552965458984374,17.820068359375,8.479095458984375,17.820068359375Q8.329915458984376,17.820068359375,8.192085458984375,17.877158359375Q8.054255458984375,17.934249359375,7.948765458984375,18.039738359375L6.854095458984375,19.134408359375L6.571925458984375,18.852238359375Q6.466436458984375,18.746749359375,6.328608458984375,18.689658359375Q6.190779458984375,18.632568359375,6.041595458984375,18.632568359375Q5.967726958984375,18.632568359375,5.895277458984375,18.646979359375Q5.822828458984375,18.661390459375,5.754582458984375,18.689658359375Q5.686337458984375,18.717927359375,5.624917458984375,18.758966359375002Q5.563498458984375,18.800005359375,5.511265458984375,18.852238359375Q5.459032458984375,18.904471359375002,5.417993458984375,18.965890359375Q5.376954458984375,19.027310359375,5.348685458984375,19.095555359375Q5.320417458984375,19.163801359375,5.306006458984375,19.236250359375Q5.291595458984375,19.308699359375,5.291595458984375,19.382568359375Q5.291595458984375,19.531752359374998,5.348685458984375,19.669578359375Q5.405776458984375,19.807408359375,5.511265458984375,19.912898359375L6.323765458984375,20.725398359375Q6.429254458984375,20.830888359375,6.567082458984375,20.887978359375Q6.704911458984375,20.945068359375,6.854095458984375,20.945068359375Q7.003279458984375,20.945068359375,7.141105458984375,20.887978359375Q7.278935458984375,20.830888359375,7.384425458984375,20.725398359375L9.009185458984375,19.100633359375L9.009425458984374,19.100398359375L9.009425458984374,19.100398359375Z" fill-rule="evenodd" fill="#FFFFFF" fill-opacity="1"/></g><g><path d="M12.00006103515625,18.631591796875L14.95840103515625,18.631591796875Q15.03227103515625,18.631591796875,15.104721035156249,18.646002796875Q15.177171035156249,18.660413796875,15.24542103515625,18.688681796875Q15.313661035156251,18.716950796875,15.37508103515625,18.757989796875002Q15.436501035156251,18.799028796875,15.488731035156249,18.851261796875Q15.54097103515625,18.903494796875002,15.582011035156249,18.964913796875Q15.62304103515625,19.026333796875,15.651311035156251,19.094578796875Q15.67958103515625,19.162824796875,15.69399103515625,19.235273796875Q15.70840103515625,19.307723296875,15.70840103515625,19.381591796875Q15.70840103515625,19.455460296875,15.69399103515625,19.527909796875Q15.67958103515625,19.600358796875,15.651311035156251,19.668604796875Q15.62304103515625,19.736849796875,15.582011035156249,19.798269796875Q15.54097103515625,19.859688796874998,15.488731035156249,19.911921796875Q15.436501035156251,19.964154796875,15.37508103515625,20.005193796874998Q15.313661035156251,20.046232796875,15.24542103515625,20.074501796875Q15.177171035156249,20.102769796875,15.104721035156249,20.117180796875Q15.03227103515625,20.131591796875,14.95840103515625,20.131591796875L12.00006103515625,20.131591796875Q11.92619253515625,20.131591796875,11.85374303515625,20.117180796875Q11.78129403515625,20.102769796875,11.71304803515625,20.074501796875Q11.64480303515625,20.046232796875,11.58338303515625,20.005193796874998Q11.52196403515625,19.964154796875,11.46973103515625,19.911921796875Q11.41749803515625,19.859688796874998,11.37645903515625,19.798269796875Q11.33542003515625,19.736849796875,11.30715103515625,19.668604796875Q11.27888303515625,19.600358796875,11.264472035156249,19.527909796875Q11.25006103515625,19.455460296875,11.25006103515625,19.381591796875Q11.25006103515625,19.307723296875,11.264472035156249,19.235273796875Q11.27888303515625,19.162824796875,11.30715103515625,19.094578796875Q11.33542003515625,19.026333796875,11.37645903515625,18.964913796875Q11.41749803515625,18.903494796875002,11.46973103515625,18.851261796875Q11.52196403515625,18.799028796875,11.58338303515625,18.757989796875002Q11.64480303515625,18.716950796875,11.71304803515625,18.688681796875Q11.78129403515625,18.660413796875,11.85374303515625,18.646002796875Q11.92619253515625,18.631591796875,12.00006103515625,18.631591796875Z" fill-rule="evenodd" fill="#FFFFFF" fill-opacity="1"/></g><g><g><path d="M16.888956533203125,15.417778C16.928956533203124,15.176889,17.137846533203124,15,17.382296533203125,15L18.534736533203123,15C18.779176533203124,15,18.988066533203124,15.176889,19.028066533203123,15.417778L19.122736533203124,15.987111C19.150736533203126,16.15333,19.261846533203126,16.292,19.409406533203125,16.37378C19.442296533203127,16.39156,19.474736533203124,16.41067,19.507176533203126,16.43022C19.651626533203125,16.51733,19.827176533203126,16.54444,19.984956533203125,16.48533L20.525846533203126,16.28267C20.754756533203125,16.19658,21.012346533203125,16.288710000000002,21.134736533203125,16.50044L21.710736533203125,17.49911C21.832856533203124,17.71086,21.783986533203127,17.97986,21.595176533203123,18.13511L21.149406533203127,18.502670000000002C21.019176533203126,18.60978,20.954736533203125,18.77511,20.958296533203125,18.94356C20.958916533203123,18.98133,20.958916533203123,19.01911,20.958296533203125,19.05689C20.954736533203125,19.224890000000002,21.019176533203126,19.39022,21.149406533203127,19.497329999999998L21.595626533203124,19.86489C21.784066533203124,20.02044,21.832956533203124,20.28933,21.711176533203126,20.50044L21.134296533203127,21.49911C21.012076533203125,21.71079,20.754736533203126,21.80309,20.525846533203126,21.71733L19.984956533203125,21.51467C19.827176533203126,21.45556,19.651626533203125,21.48267,19.506736533203124,21.56978C19.474516533203126,21.58938,19.441916533203127,21.60835,19.408956533203124,21.62667C19.261846533203126,21.708,19.150736533203126,21.84667,19.122736533203124,22.01289L19.028066533203123,22.58222C18.988066533203124,22.82355,18.779176533203124,23,18.534736533203123,23L17.381846533203124,23C17.137406533203126,23,16.928956533203124,22.82311,16.888516533203124,22.58222L16.793846533203126,22.01289C16.766296533203125,21.84667,16.655176533203125,21.708,16.507626533203126,21.62622C16.474666533203123,21.60804,16.442066533203125,21.58922,16.409846533203126,21.56978C16.265406533203127,21.48267,16.089846533203126,21.45555,15.931626533203126,21.51467L15.390736533203125,21.71733C15.161956533203124,21.80317,14.904644533203125,21.71107,14.782291533203125,21.49955L14.205847533203125,20.50089C14.083725333203125,20.28914,14.132600463203126,20.020139999999998,14.321403533203124,19.86489L14.767625533203125,19.497329999999998C14.897402533203126,19.39067,14.961847533203125,19.224890000000002,14.958736533203124,19.05689C14.958041533203126,19.01911,14.958041533203126,18.98133,14.958736533203124,18.943550000000002C14.961847533203125,18.77467,14.897402533203126,18.60978,14.767625533203125,18.502670000000002L14.321403533203124,18.13511C14.132837403203125,17.97991,14.083980633203126,17.711199999999998,14.205847533203125,17.49955L14.782291533203125,16.50089C14.904539533203124,16.28899,15.162166533203125,16.19666,15.391176533203126,16.28267L15.931626533203126,16.48533C16.089846533203126,16.54444,16.265406533203127,16.51733,16.409846533203126,16.43022C16.441846533203126,16.41067,16.474736533203124,16.392,16.507626533203126,16.37333C16.655176533203125,16.292,16.766296533203125,16.15333,16.793846533203126,15.98711L16.888956533203125,15.417778L16.888956533203125,15.417778Z" fill="#D25F00" fill-opacity="1"/><path d="M15.902626533203126,15.253005L15.902466533203125,15.253969L15.878506533203126,15.397411L15.742766533203126,15.34651Q14.551817533203124,14.899234,13.916215533203125,16.00098L13.339246533203125,17.00055Q12.705846533203125,18.10057,13.685614533203125,18.90697L13.798550533203125,19L13.686260533203125,19.092489999999998Q12.766036533203124,19.8492,13.266701533203126,20.8643Q13.300079533203125,20.93198,13.339771533203125,21.000799999999998L13.916680533203126,22.00027Q14.552716533203125,23.099809999999998,15.741606533203125,22.65376L15.878176533203124,22.60259L15.902316533203125,22.747799999999998Q16.112556533203126,24,17.381846533203124,24L18.534736533203123,24Q19.806716533203126,24,20.014526533203124,22.74625L20.038416533203126,22.60259L20.174996533203124,22.65376Q21.364966533203123,23.09961,22.000196533203123,21.99931L22.577396533203125,21.00011Q23.131826533203125,20.03897,22.451106533203124,19.29971Q22.353866533203124,19.1941,22.231416533203124,19.09303L22.118306533203125,18.999859999999998L22.230326533203126,18.9075Q23.211896533203124,18.10036,22.576976533203123,16.99949L22.000506533203126,16Q21.364106533203124,14.899036,20.174976533203125,15.346243L20.038416533203126,15.397412L20.014566533203123,15.253971Q19.806336533203126,14,18.534736533203123,14L17.382296533203125,14Q16.111176533203125,14,15.902626533203126,15.253005ZM17.382296533203125,15C17.137846533203124,15,16.928956533203124,15.176889,16.888956533203125,15.417778L16.793846533203126,15.98711C16.766296533203125,16.15333,16.655176533203125,16.292,16.507626533203126,16.37333C16.474736533203124,16.392,16.441846533203126,16.41067,16.409846533203126,16.43022C16.265406533203127,16.51733,16.089846533203126,16.54444,15.931626533203126,16.48533L15.391176533203126,16.28267C15.162166533203125,16.19666,14.904539533203124,16.28899,14.782291533203125,16.50089L14.205847533203125,17.49955C14.083980633203126,17.711199999999998,14.132837403203125,17.97991,14.321403533203124,18.13511L14.767625533203125,18.502670000000002C14.897402533203126,18.60978,14.961847533203125,18.77467,14.958736533203124,18.943550000000002C14.958041533203126,18.98133,14.958041533203126,19.01911,14.958736533203124,19.05689C14.961847533203125,19.224890000000002,14.897402533203126,19.39067,14.767625533203125,19.497329999999998L14.321403533203124,19.86489C14.132600463203126,20.020139999999998,14.083725333203125,20.28914,14.205847533203125,20.50089L14.782291533203125,21.49955C14.904644533203125,21.71107,15.161956533203124,21.80317,15.390736533203125,21.71733L15.931626533203126,21.51467C16.089846533203126,21.45555,16.265406533203127,21.48267,16.409846533203126,21.56978C16.442066533203125,21.58922,16.474666533203123,21.60804,16.507626533203126,21.62622C16.655176533203125,21.708,16.766296533203125,21.84667,16.793846533203126,22.01289L16.888516533203124,22.58222C16.928956533203124,22.82311,17.137406533203126,23,17.381846533203124,23L18.534736533203123,23C18.779176533203124,23,18.988066533203124,22.82355,19.028066533203123,22.58222L19.122736533203124,22.01289C19.150736533203126,21.84667,19.261846533203126,21.708,19.408956533203124,21.62667C19.441916533203127,21.60835,19.474516533203126,21.58938,19.506736533203124,21.56978C19.651626533203125,21.48267,19.827176533203126,21.45556,19.984956533203125,21.51467L20.525846533203126,21.71733C20.754736533203126,21.80309,21.012076533203125,21.71079,21.134296533203127,21.49911L21.711176533203126,20.50044C21.832956533203124,20.28933,21.784066533203124,20.02044,21.595626533203124,19.86489L21.149406533203127,19.497329999999998C21.019176533203126,19.39022,20.954736533203125,19.224890000000002,20.958296533203125,19.05689C20.958916533203123,19.01911,20.958916533203123,18.98133,20.958296533203125,18.94356C20.954736533203125,18.77511,21.019176533203126,18.60978,21.149406533203127,18.502670000000002L21.595176533203123,18.13511C21.783986533203127,17.97986,21.832856533203124,17.71086,21.710736533203125,17.49911L21.134736533203125,16.50044C21.012346533203125,16.288710000000002,20.754756533203125,16.19658,20.525846533203126,16.28267L19.984956533203125,16.48533C19.827176533203126,16.54444,19.651626533203125,16.51733,19.507176533203126,16.43022C19.474736533203124,16.41067,19.442296533203127,16.39156,19.409406533203125,16.37378C19.261846533203126,16.292,19.150736533203126,16.15333,19.122736533203124,15.987111L19.028066533203123,15.417778C18.988066533203124,15.176889,18.779176533203124,15,18.534736533203123,15L17.382296533203125,15Z" fill-rule="evenodd" fill="#FFFFFF" fill-opacity="1"/></g><g><path d="M19.291624223632812,19.000078046875Q19.291624223632812,19.065588046875,19.285204223632814,19.130768046875Q19.27878422363281,19.195958046875,19.266004223632812,19.260198046875Q19.253224223632813,19.324448046875,19.234204223632812,19.387128046875Q19.215194223632814,19.449808046875,19.190124223632814,19.510328046875Q19.16506422363281,19.570838046875,19.13418422363281,19.628608046875Q19.10330422363281,19.686378046875,19.066914223632814,19.740838046874998Q19.030524223632813,19.795308046875,18.988964223632813,19.845938046875Q18.947414223632812,19.896578046875,18.90109422363281,19.942888046874998Q18.854784223632812,19.989208046875,18.80414422363281,20.030758046875Q18.753514223632813,20.072318046875,18.69904422363281,20.108708046875Q18.644584223632812,20.145098046875,18.586814223632814,20.175978046875Q18.529044223632813,20.206858046875,18.468534223632812,20.231918046875002Q18.40801422363281,20.256988046875,18.34533422363281,20.275998046875Q18.28265422363281,20.295018046875,18.218404223632813,20.307798046875Q18.15416422363281,20.320578046875,18.088974223632814,20.326998046875Q18.023794223632812,20.333418046875,17.958284223632813,20.333418046875Q17.892784223632813,20.333418046875,17.82759422363281,20.326998046875Q17.762414223632813,20.320578046875,17.698164223632812,20.307798046875Q17.633924223632814,20.295018046875,17.571241223632814,20.275998046875Q17.508559223632812,20.256988046875,17.448043223632812,20.231918046875002Q17.38752622363281,20.206858046875,17.329758223632812,20.175978046875Q17.271990223632812,20.145098046875,17.217527223632814,20.108708046875Q17.163064223632812,20.072318046875,17.112430223632813,20.030758046875Q17.06179622363281,19.989208046875,17.01547822363281,19.942888046874998Q16.969161223632813,19.896578046875,16.927607223632812,19.845938046875Q16.886052223632813,19.795308046875,16.84966122363281,19.740838046874998Q16.813270223632813,19.686378046875,16.78239222363281,19.628608046875Q16.75151522363281,19.570838046875,16.72644822363281,19.510328046875Q16.701381423632814,19.449808046875,16.68236712363281,19.387128046875Q16.663352723632812,19.324448046875,16.65057382363281,19.260198046875Q16.637794923632814,19.195958046875,16.631374583632812,19.130768046875Q16.624954223632812,19.065588046875,16.624954223632812,19.000078046875Q16.624954223632812,18.934578046875,16.631374583632812,18.869388046875Q16.637794923632814,18.804208046875,16.65057382363281,18.739958046875Q16.663352723632812,18.675718046875,16.68236712363281,18.613035046875Q16.701381423632814,18.550353046875,16.72644822363281,18.489837046875Q16.75151522363281,18.429320046875,16.78239222363281,18.371552046875Q16.813270223632813,18.313784046875,16.84966122363281,18.259321046875Q16.886052223632813,18.204858046875,16.927607223632812,18.154224046875Q16.969161223632813,18.103590046875,17.01547822363281,18.057272046875Q17.06179622363281,18.010955046875,17.112430223632813,17.969401046875Q17.163064223632812,17.927846046875,17.217527223632814,17.891455046875Q17.271990223632812,17.855064046875,17.329758223632812,17.824186046875Q17.38752622363281,17.793309046875,17.448043223632812,17.768242046875Q17.508559223632812,17.743175246875,17.571241223632814,17.724160946875Q17.633924223632814,17.705146546875,17.698164223632812,17.692367646875Q17.762414223632813,17.679588746875,17.82759422363281,17.673168406875Q17.892784223632813,17.666748046875,17.958284223632813,17.666748046875Q18.023794223632812,17.666748046875,18.088974223632814,17.673168406875Q18.15416422363281,17.679588746875,18.218404223632813,17.692367646875Q18.28265422363281,17.705146546875,18.34533422363281,17.724160946875Q18.40801422363281,17.743175246875,18.468534223632812,17.768242046875Q18.529044223632813,17.793309046875,18.586814223632814,17.824186046875Q18.644584223632812,17.855064046875,18.69904422363281,17.891455046875Q18.753514223632813,17.927846046875,18.80414422363281,17.969401046875Q18.854784223632812,18.010955046875,18.90109422363281,18.057272046875Q18.947414223632812,18.103590046875,18.988964223632813,18.154224046875Q19.030524223632813,18.204858046875,19.066914223632814,18.259321046875Q19.10330422363281,18.313784046875,19.13418422363281,18.371552046875Q19.16506422363281,18.429320046875,19.190124223632814,18.489837046875Q19.215194223632814,18.550353046875,19.234204223632812,18.613035046875Q19.253224223632813,18.675718046875,19.266004223632812,18.739958046875Q19.27878422363281,18.804208046875,19.285204223632814,18.869388046875Q19.291624223632812,18.934578046875,19.291624223632812,19.000078046875Z" fill="#FFFFFF" fill-opacity="1"/></g></g></g></svg>