<svg xmlns="http://www.w3.org/2000/svg" xmlns:xlink="http://www.w3.org/1999/xlink" fill="none" version="1.1" width="24" height="24" viewBox="0 0 24 24"><defs><clipPath id="master_svg0_732_53278"><rect x="0" y="0" width="24" height="24" rx="0"/></clipPath></defs><g clip-path="url(#master_svg0_732_53278)"><g><rect x="2" y="3" width="20" height="15" rx="2" fill="#165DFF" fill-opacity="1"/><path d="M1,16L1,5Q1,2,4,2L20,2Q23,2,23,5L23,16Q23,19,20,19L4,19Q1,19,1,16ZM3,16Q3,17,4,17L20,17Q21,17,21,16L21,5Q21,4,20,4L4,4Q3,4,3,5L3,16Z" fill="#165DFF" fill-opacity="1"/></g><g><path d="M11.996858115234375,7.502404140625C11.996328115234375,5.488814140625,13.940708115234376,4.046674140625,15.867478115234375,4.631573140625C16.177268115234376,4.725415140625,16.275068115234376,5.115647140625,16.046268115234376,5.344567140625L14.149548115234374,7.240744140625C14.185538115234374,7.512114140625,14.307228115234375,7.774344140625,14.515758115234375,7.982874140625C14.724288115234375,8.191404140625,14.986518115234375,8.313084140625,15.258458115234374,8.348514140625L17.154068115234374,6.452334140625C17.382968115234377,6.223514140625,17.773168115234377,6.321384140625,17.867068115234375,6.631154140625C18.483468115234373,8.661314140624999,16.854768115234375,10.672144140625,14.740848115234375,10.490914140625C14.159258115234374,10.441784140625,13.672508115234375,10.548054140625,13.421698115234374,10.853134140625L9.336838115234375,15.814944140625C8.628878115234375,16.670444140625,7.338378115234375,16.731244140625,6.553091115234375,15.946144140625C5.767807115234375,15.161044140625,5.828347115234375,13.870514140625,6.683681115234375,13.162364140625L11.644928115234375,9.076924140625C11.949438115234376,8.825554140625,12.056268115234374,8.339364140625,12.007138115234376,7.757774140625C12.000148115234374,7.672834140625,11.996718115234376,7.587634140625,11.996858115234375,7.502404140625ZM7.493228115234375,14.572344140625C7.493228115234375,14.335704140625,7.685068115234375,14.143874140625,7.921708115234375,14.143874140625L7.926278115234375,14.143874140625C8.162918115234374,14.143874140625,8.354758115234375,14.335704140625,8.354758115234375,14.572344140625L8.354758115234375,14.576944140625C8.354758115234375,14.813544140625,8.162918115234374,15.005444140625,7.926278115234375,15.005444140625L7.921708115234375,15.005444140625C7.685068115234375,15.005444140625,7.493228115234375,14.813544140625,7.493228115234375,14.576944140625L7.493228115234375,14.572344140625Z" fill-rule="evenodd" fill="#FFFFFF" fill-opacity="1"/></g><g style="opacity:0.800000011920929;"><path d="M10.8976844140625,8.582126875L9.6402344140625,7.3252468749999995L9.6402344140625,6.430576875C9.6402244140625,6.2801068749999995,9.5612844140625,6.140666875,9.4322744140625,6.063226875L7.2898644140624995,4.777779675C7.1212684140625,4.676713175,6.9055274140625,4.703327475,6.7665464140625,4.842337875L6.3380654140625,5.270818875C6.1990551140625,5.409799875,6.1724407140625,5.625540875,6.2735072140625,5.7941368749999995L7.5589544140625,7.9365468749999994C7.6364144140625,8.065566875,7.7758444140625,8.144506875,7.9263044140625,8.144506875L8.8198344140625,8.144506875L9.997874414062501,9.322546875L10.8976844140625,8.581556875L10.8976844140625,8.582126875Z" fill="#FFFFFF" fill-opacity="1"/></g><g style="opacity:0.800000011920929;"><path d="M12.31451416015625,13.5461325L14.70430416015625,15.9353425C15.45730416015625,16.6883425,16.67815416015625,16.6883525,17.43115416015625,15.9353425C18.18416416015625,15.1823425,18.18416416015625,13.9614925,17.43115416015625,13.2084925L15.54241416015625,11.3203125C15.25289416015625,11.3613571,14.95967416015625,11.3695979,14.66830416015625,11.3448789C14.44321416015625,11.32545418,14.27867416015625,11.3414513,14.17298416015625,11.3688738C14.13953416015625,11.3759551,14.10736416015625,11.3880915,14.07757416015625,11.4048661L12.31451416015625,13.5461325ZM14.26496416015625,12.7691525C14.43225416015625,12.6020725,14.70326416015625,12.6020725,14.87055416015625,12.7691525L15.94175416015625,13.8409225C16.11922416015625,14.0062925,16.12415416015625,14.2858725,15.95263416015625,14.457392500000001C15.78111416015625,14.6289225,15.50153416015625,14.6239825,15.336164160156251,14.4465125L14.26496416015625,13.3753125C14.09788416015625,13.2080225,14.09788416015625,12.9370125,14.26496416015625,12.7697225L14.26496416015625,12.7691525Z" fill-rule="evenodd" fill="#FFFFFF" fill-opacity="1"/></g><g><path d="M5,20.5L19,20.5Q19.0985,20.5,19.1951,20.519215Q19.2917,20.538429999999998,19.3827,20.576121Q19.4737,20.613812,19.5556,20.66853Q19.6375,20.723249,19.7071,20.792893Q19.776699999999998,20.862537,19.8315,20.94443Q19.886200000000002,21.026322,19.9239,21.117317Q19.9616,21.208311,19.980800000000002,21.30491Q20,21.4015086,20,21.5Q20,21.5984914,19.980800000000002,21.69509Q19.9616,21.791689,19.9239,21.882683Q19.886200000000002,21.973678,19.8315,22.05557Q19.776699999999998,22.137463,19.7071,22.207107Q19.6375,22.276751,19.5556,22.33147Q19.4737,22.386188,19.3827,22.423879Q19.2917,22.461570000000002,19.1951,22.480785Q19.0985,22.5,19,22.5L5,22.5Q4.9015086,22.5,4.80491,22.480785Q4.708311,22.461570000000002,4.617317,22.423879Q4.526322,22.386188,4.44443,22.33147Q4.362537,22.276751,4.292893,22.207107Q4.223249,22.137463,4.16853,22.05557Q4.113812,21.973678,4.076121,21.882683Q4.03843,21.791689,4.019215,21.69509Q4,21.5984914,4,21.5Q4,21.4015086,4.019215,21.30491Q4.03843,21.208311,4.076121,21.117317Q4.113812,21.026322,4.16853,20.94443Q4.223249,20.862537,4.292893,20.792893Q4.362537,20.723249,4.44443,20.66853Q4.526322,20.613812,4.617317,20.576121Q4.708311,20.538429999999998,4.80491,20.519215Q4.9015086,20.5,5,20.5Z" fill-rule="evenodd" fill="#7BC0FC" fill-opacity="1"/></g></g></svg>