<svg xmlns="http://www.w3.org/2000/svg" xmlns:xlink="http://www.w3.org/1999/xlink" fill="none" version="1.1" width="24" height="24" viewBox="0 0 24 24"><defs><clipPath id="master_svg0_700_32376"><rect x="0" y="0" width="24" height="24" rx="0"/></clipPath></defs><g clip-path="url(#master_svg0_700_32376)"><g transform="matrix(0.4999999701976776,0.866025447845459,-0.866025447845459,0.4999999701976776,11.1867016971446,-12.696247728774324)"><path d="M26.588623046875,3.33984375C21.244273046875,8.14975375,21.244273046875,16.52994375,26.588623046875,21.33984375C31.932923046875,16.52994375,31.932923046875,8.14975375,26.588623046875,3.33984375Z" fill="#FCE996" fill-opacity="1"/><path d="M27.090323046875,2.78237275Q27.039123046874998,2.73628575,26.980423046875,2.70029775Q26.921623046875,2.66431075,26.857323046875003,2.63962875Q26.793023046875,2.61494575,26.725223046875,2.60239475Q26.657523046875,2.58984375,26.588623046875,2.58984375Q26.519733046875,2.58984375,26.451993046875,2.60239475Q26.384243046875,2.61494575,26.319923046874997,2.63962875Q26.255603046875002,2.66431075,26.196853046875,2.70029775Q26.138113046875,2.73628575,26.086903046875,2.78237275Q21.830363046875,6.61326375,21.830363046875,12.33984375Q21.830363046875,18.066443749999998,26.086903046875,21.89734375Q26.138113046875,21.94344375,26.196853046875,21.97934375Q26.255603046875002,22.01534375,26.319923046874997,22.04004375Q26.384243046875,22.06474375,26.451993046875,22.07724375Q26.519733046875,22.08984375,26.588623046875,22.08984375Q26.657523046875,22.08984375,26.725223046875,22.07724375Q26.793023046875,22.06474375,26.857323046875003,22.04004375Q26.921623046875,22.01534375,26.980423046875,21.97934375Q27.039123046874998,21.94344375,27.090323046875,21.89734375Q31.346923046875,18.066443749999998,31.346923046875,12.33984375Q31.346923046875,6.61325375,27.090323046875,2.78237275ZM26.588623046875,4.37302375Q23.330363046875,7.63088375,23.330363046875,12.33984375Q23.330363046875,17.04884375,26.588623046875,20.30664375Q29.846923046875,17.04884375,29.846923046875,12.33984375Q29.846923046875,7.63088375,26.588623046875,4.37302375Z" fill-rule="evenodd" fill="#FCE996" fill-opacity="1"/></g><g transform="matrix(0.8660253882408142,0.5,-0.5,0.8660253882408142,1.055050227259926,-3.1147467722621514)"><path d="M16.3397216796875,0.411376953125C10.9953716796875,5.221286953125,10.9953716796875,13.601476953125,16.3397216796875,18.411376953125C21.6840216796875,13.601476953125,21.6840216796875,5.221286953125,16.3397216796875,0.411376953125Z" fill="#F9CC45" fill-opacity="1"/><path d="M16.8414216796875,-0.14609404687500005Q16.790221679687498,-0.19218104687500004,16.7315216796875,-0.22816904687499995Q16.6727216796875,-0.26415604687500005,16.608421679687503,-0.28883804687500003Q16.5441216796875,-0.31352104687500004,16.4763216796875,-0.326072046875Q16.4086216796875,-0.338623046875,16.3397216796875,-0.338623046875Q16.2708316796875,-0.338623046875,16.2030916796875,-0.326072046875Q16.1353416796875,-0.31352104687500004,16.071021679687497,-0.28883804687500003Q16.006701679687502,-0.26415604687500005,15.9479516796875,-0.22816904687499995Q15.8892116796875,-0.19218104687500004,15.8380016796875,-0.14609404687500005Q11.5814616796875,3.684796953125,11.5814616796875,9.411376953125Q11.5814616796875,15.137976953125,15.8380016796875,18.968876953125Q15.8892116796875,19.014976953125,15.9479516796875,19.050876953125Q16.006701679687502,19.086876953125,16.071021679687497,19.111576953125Q16.1353416796875,19.136276953125,16.2030916796875,19.148776953125Q16.2708316796875,19.161376953125,16.3397216796875,19.161376953125Q16.4086216796875,19.161376953125,16.4763216796875,19.148776953125Q16.5441216796875,19.136276953125,16.608421679687503,19.111576953125Q16.6727216796875,19.086876953125,16.7315216796875,19.050876953125Q16.790221679687498,19.014976953125,16.8414216796875,18.968876953125Q21.0980216796875,15.137976953125,21.0980216796875,9.411376953125Q21.0980216796875,3.684786953125,16.8414216796875,-0.14609404687500005ZM16.3397216796875,1.444556953125Q13.0814616796875,4.702416953125,13.0814616796875,9.411376953125Q13.0814616796875,14.120376953125,16.3397216796875,17.378176953125Q19.5980216796875,14.120376953125,19.5980216796875,9.411376953125Q19.5980216796875,4.702416953125,16.3397216796875,1.444556953125Z" fill-rule="evenodd" fill="#F9CC45" fill-opacity="1"/></g><g><path d="M6,3C0.6556499999999996,7.80991,0.6556499999999996,16.1901,6,21C11.3443,16.1901,11.3443,7.80991,6,3Z" fill="#FF7D00" fill-opacity="1"/><path d="M6.5017,2.442529Q6.4505,2.396442,6.3918,2.360454Q6.333,2.324467,6.268700000000001,2.299785Q6.2044,2.275102,6.1366,2.262551Q6.068899999999999,2.25,6,2.25Q5.93111,2.25,5.86337,2.262551Q5.7956199999999995,2.275102,5.731299999999999,2.299785Q5.666980000000001,2.324467,5.608230000000001,2.360454Q5.5494900000000005,2.396442,5.498279999999999,2.442529Q1.24174,6.27342,1.24174,12Q1.24174,17.726599999999998,5.498279999999999,21.5575Q5.5494900000000005,21.6036,5.608230000000001,21.6395Q5.666980000000001,21.6755,5.731299999999999,21.7002Q5.7956199999999995,21.7249,5.86337,21.7374Q5.93111,21.75,6,21.75Q6.068899999999999,21.75,6.1366,21.7374Q6.2044,21.7249,6.268700000000001,21.7002Q6.333,21.6755,6.3918,21.6395Q6.4505,21.6036,6.5017,21.5575Q10.7583,17.726599999999998,10.7583,12Q10.7583,6.27341,6.5017,2.442529ZM6,4.03318Q2.74174,7.29104,2.74174,12Q2.74174,16.709,6,19.9668Q9.2583,16.709,9.2583,12Q9.2583,7.29104,6,4.03318Z" fill-rule="evenodd" fill="#FF7D00" fill-opacity="1"/></g><g><g><path d="M20.5,20Q20.5,19.9263097,20.507223,19.852974Q20.514446,19.779639,20.528822,19.707365Q20.543198,19.63509,20.564589,19.564573Q20.585981,19.494056,20.614181,19.425975Q20.642381,19.357894,20.677118,19.292905Q20.711855,19.227916,20.752796,19.166645Q20.793736,19.105373,20.840484,19.04841Q20.887233,18.99145,20.93934,18.93934Q20.991447,18.88723,21.04841,18.84048Q21.10537,18.79374,21.16664,18.7528Q21.22792,18.71186,21.2929,18.67712Q21.35789,18.64238,21.42597,18.61418Q21.49406,18.58598,21.56457,18.56459Q21.635089999999998,18.5432,21.70736,18.52882Q21.77964,18.51445,21.85297,18.50722Q21.92631,18.5,22,18.5Q22.07369,18.5,22.14703,18.50722Q22.22036,18.51445,22.29264,18.52882Q22.364910000000002,18.5432,22.43543,18.56459Q22.50594,18.58598,22.57402,18.61418Q22.64211,18.64238,22.70709,18.67712Q22.77208,18.71186,22.83335,18.7528Q22.89463,18.79374,22.95159,18.84048Q23.00855,18.88723,23.06066,18.93934Q23.11277,18.99145,23.15952,19.04841Q23.20626,19.105373,23.2472,19.166645Q23.28814,19.227916,23.32288,19.292905Q23.35762,19.357894,23.38582,19.425975Q23.41402,19.494056,23.43541,19.564573Q23.4568,19.63509,23.47118,19.707365Q23.48555,19.779639,23.49278,19.852974Q23.5,19.9263097,23.5,20L23.5,22Q23.5,22.07369,23.49278,22.14703Q23.48555,22.22036,23.47118,22.29264Q23.4568,22.364910000000002,23.43541,22.43543Q23.41402,22.50594,23.38582,22.57402Q23.35762,22.64211,23.32288,22.70709Q23.28814,22.77208,23.2472,22.83335Q23.20626,22.89463,23.15952,22.95159Q23.11277,23.00855,23.06066,23.06066Q23.00855,23.11277,22.95159,23.15952Q22.89463,23.20626,22.83335,23.2472Q22.77208,23.28814,22.70709,23.32288Q22.64211,23.35762,22.57402,23.38582Q22.50594,23.41402,22.43543,23.43541Q22.364910000000002,23.4568,22.29264,23.47118Q22.22036,23.48555,22.14703,23.49278Q22.07369,23.5,22,23.5L20,23.5Q19.9263097,23.5,19.852974,23.49278Q19.779639,23.48555,19.707365,23.47118Q19.63509,23.4568,19.564573,23.43541Q19.494056,23.41402,19.425975,23.38582Q19.357894,23.35762,19.292905,23.32288Q19.227916,23.28814,19.166645,23.2472Q19.105373,23.20626,19.04841,23.15952Q18.99145,23.11277,18.93934,23.06066Q18.88723,23.00855,18.84048,22.95159Q18.79374,22.89463,18.7528,22.83335Q18.71186,22.77208,18.67712,22.70709Q18.64238,22.64211,18.61418,22.57402Q18.58598,22.50594,18.56459,22.43543Q18.5432,22.364910000000002,18.52882,22.29264Q18.51445,22.22036,18.50722,22.14703Q18.5,22.07369,18.5,22Q18.5,21.92631,18.50722,21.85297Q18.51445,21.77964,18.52882,21.70736Q18.5432,21.635089999999998,18.56459,21.56457Q18.58598,21.49406,18.61418,21.42597Q18.64238,21.35789,18.67712,21.2929Q18.71186,21.22792,18.7528,21.16664Q18.79374,21.10537,18.84048,21.04841Q18.88723,20.991447,18.93934,20.93934Q18.99145,20.887233,19.04841,20.840484Q19.105373,20.793736,19.166645,20.752796Q19.227916,20.711855,19.292905,20.677118Q19.357894,20.642381,19.425975,20.614181Q19.494056,20.585981,19.564573,20.56459Q19.63509,20.543198,19.707365,20.528822Q19.779639,20.514446,19.852974,20.507223Q19.9263097,20.5,20,20.5L20.5,20.5L20.5,20Z" fill-rule="evenodd" fill="#FFFFFF" fill-opacity="1"/></g><g><path d="M20.5,17.5L20,17.5Q19.9263097,17.5,19.852974,17.49278Q19.779639,17.48555,19.707365,17.47118Q19.63509,17.4568,19.564573,17.43541Q19.494056,17.41402,19.425975,17.38582Q19.357894,17.35762,19.292905,17.32288Q19.227916,17.28814,19.166645,17.2472Q19.105373,17.20626,19.04841,17.15952Q18.99145,17.11277,18.93934,17.06066Q18.88723,17.00855,18.84048,16.95159Q18.79374,16.894627,18.7528,16.833355Q18.71186,16.772084,18.67712,16.707095Q18.64238,16.642106,18.61418,16.574025Q18.58598,16.505944,18.56459,16.435427Q18.5432,16.36491,18.52882,16.292635Q18.51445,16.220361,18.50722,16.147026Q18.5,16.0736903,18.5,16Q18.5,15.9263097,18.50722,15.852974Q18.51445,15.779639,18.52882,15.707365Q18.5432,15.63509,18.56459,15.564573Q18.58598,15.494056,18.61418,15.425975Q18.64238,15.357894,18.67712,15.292905Q18.71186,15.227916,18.7528,15.166645Q18.79374,15.105373,18.84048,15.04841Q18.88723,14.99145,18.93934,14.93934Q18.99145,14.88723,19.04841,14.84048Q19.105373,14.79374,19.166645,14.7528Q19.227916,14.71186,19.292905,14.67712Q19.357894,14.64238,19.425975,14.61418Q19.494056,14.58598,19.564573,14.564589999999999Q19.63509,14.5432,19.707365,14.52882Q19.779639,14.51445,19.852974,14.50722Q19.9263097,14.5,20,14.5L22,14.5Q22.07369,14.5,22.14703,14.50722Q22.22036,14.51445,22.29264,14.52882Q22.364910000000002,14.5432,22.43543,14.564589999999999Q22.50594,14.58598,22.57402,14.61418Q22.64211,14.64238,22.70709,14.67712Q22.77208,14.71186,22.83335,14.7528Q22.89463,14.79374,22.95159,14.84048Q23.00855,14.88723,23.06066,14.93934Q23.11277,14.99145,23.15952,15.04841Q23.20626,15.105373,23.2472,15.166645Q23.28814,15.227916,23.32288,15.292905Q23.35762,15.357894,23.38582,15.425975Q23.41402,15.494056,23.43541,15.564573Q23.4568,15.63509,23.47118,15.707365Q23.48555,15.779639,23.49278,15.852974Q23.5,15.9263097,23.5,16L23.5,18Q23.5,18.07369,23.49278,18.14703Q23.48555,18.22036,23.47118,18.29264Q23.4568,18.364910000000002,23.43541,18.43543Q23.41402,18.50594,23.38582,18.57402Q23.35762,18.64211,23.32288,18.70709Q23.28814,18.77208,23.2472,18.83335Q23.20626,18.89463,23.15952,18.95159Q23.11277,19.00855,23.06066,19.06066Q23.00855,19.11277,22.95159,19.15952Q22.89463,19.20626,22.83335,19.2472Q22.77208,19.28814,22.70709,19.32288Q22.64211,19.35762,22.57402,19.38582Q22.50594,19.41402,22.43543,19.43541Q22.364910000000002,19.4568,22.29264,19.47118Q22.22036,19.48555,22.14703,19.49278Q22.07369,19.5,22,19.5Q21.92631,19.5,21.85297,19.49278Q21.77964,19.48555,21.70736,19.47118Q21.635089999999998,19.4568,21.56457,19.43541Q21.49406,19.41402,21.42597,19.38582Q21.35789,19.35762,21.2929,19.32288Q21.22792,19.28814,21.16664,19.2472Q21.10537,19.20626,21.04841,19.15952Q20.991447,19.11277,20.93934,19.06066Q20.887233,19.00855,20.840484,18.95159Q20.793736,18.89463,20.752795,18.83335Q20.711855,18.77208,20.677118,18.70709Q20.642381,18.64211,20.614181,18.57402Q20.585981,18.50594,20.56459,18.43543Q20.543198,18.364910000000002,20.528822,18.29264Q20.514446,18.22036,20.507223,18.14703Q20.5,18.07369,20.5,18L20.5,17.5Z" fill-rule="evenodd" fill="#FFFFFF" fill-opacity="1"/></g><g><path d="M23.06066,17.06066Q23.16513,16.956194,23.2472,16.833355Q23.32928,16.710516,23.38582,16.574025Q23.44236,16.437534,23.47118,16.292636Q23.5,16.147737,23.5,16Q23.5,15.9263097,23.49278,15.852974Q23.48555,15.779639,23.47118,15.707365Q23.4568,15.63509,23.43541,15.564573Q23.41402,15.494056,23.38582,15.425975Q23.35762,15.357894,23.322879999999998,15.292905Q23.28814,15.227916,23.2472,15.166645Q23.20626,15.105373,23.15952,15.04841Q23.11277,14.99145,23.06066,14.93934Q23.00855,14.88723,22.95159,14.84048Q22.89463,14.79374,22.83335,14.7528Q22.77208,14.71186,22.70709,14.67712Q22.64211,14.64238,22.57402,14.61418Q22.50594,14.58598,22.43543,14.564589999999999Q22.364910000000002,14.5432,22.29263,14.52882Q22.22036,14.51445,22.14703,14.50722Q22.07369,14.5,22,14.5Q21.85226,14.5,21.70736,14.52882Q21.56247,14.55764,21.42597,14.61418Q21.28948,14.67072,21.16664,14.7528Q21.04381,14.83487,20.93934,14.93934L14.93934,20.93934Q14.83487,21.04381,14.7528,21.16664Q14.67072,21.28948,14.61418,21.42597Q14.55764,21.56247,14.52882,21.70736Q14.5,21.85226,14.5,22Q14.5,22.07369,14.50722,22.14703Q14.51445,22.22036,14.52882,22.29263Q14.5432,22.364910000000002,14.564589999999999,22.43543Q14.58598,22.50594,14.61418,22.57402Q14.64238,22.64211,14.67712,22.70709Q14.71186,22.77208,14.7528,22.83335Q14.79374,22.89463,14.84048,22.95159Q14.88723,23.00855,14.93934,23.06066Q14.99145,23.11277,15.04841,23.15952Q15.105373,23.20626,15.166645,23.2472Q15.227916,23.28814,15.292905,23.322879999999998Q15.357894,23.35762,15.425975,23.38582Q15.494056,23.41402,15.564573,23.43541Q15.63509,23.4568,15.707365,23.47118Q15.779639,23.48555,15.852974,23.49278Q15.9263097,23.5,16,23.5Q16.147737,23.5,16.292636,23.47118Q16.437534,23.44236,16.574025,23.38582Q16.710516,23.32928,16.833355,23.2472Q16.956194,23.16513,17.06066,23.06066L17.06125,23.06007L23.06066,17.06066L23.06066,17.06066Z" fill-rule="evenodd" fill="#FFFFFF" fill-opacity="1"/></g><g><path d="M14.93934,14.93934Q14.88723,14.99145,14.84048,15.04841Q14.79374,15.105373,14.7528,15.166645Q14.71186,15.227916,14.67712,15.292905Q14.64238,15.357894,14.61418,15.425975Q14.58598,15.494056,14.564589999999999,15.564573Q14.5432,15.63509,14.52882,15.707365Q14.51445,15.779639,14.50722,15.852974Q14.5,15.9263097,14.5,16Q14.5,16.0736903,14.50722,16.147026Q14.51445,16.220361,14.52882,16.292635Q14.5432,16.36491,14.564589999999999,16.435427Q14.58598,16.505944,14.61418,16.574025Q14.64238,16.642106,14.67712,16.707095Q14.71186,16.772084,14.7528,16.833355Q14.79374,16.894627,14.84048,16.95159Q14.88723,17.00855,14.93934,17.06066L17.93934,20.06066Q18.10783,20.22915,18.32023,20.337130000000002Q18.53263,20.44511,18.76804,20.48196Q18.80489,20.71737,18.912869999999998,20.92977Q19.02085,21.14217,19.18934,21.31066L19.18965,21.31097L19.60601,21.727330000000002L20.43934,22.56066L20.85601,22.977330000000002L20.93934,23.06066Q21.04381,23.16513,21.16664,23.2472Q21.28948,23.32928,21.42597,23.38582Q21.56247,23.44236,21.70736,23.47118Q21.85226,23.5,22,23.5Q22.07369,23.5,22.14703,23.49278Q22.22036,23.48555,22.29263,23.47118Q22.364910000000002,23.4568,22.43543,23.43541Q22.50594,23.41402,22.57402,23.38582Q22.64211,23.35762,22.70709,23.322879999999998Q22.77208,23.28814,22.83335,23.2472Q22.89463,23.20626,22.95159,23.15952Q23.00855,23.11277,23.06066,23.06066Q23.11277,23.00855,23.15952,22.95159Q23.20626,22.89463,23.2472,22.83335Q23.28814,22.77208,23.322879999999998,22.70709Q23.35762,22.64211,23.38582,22.57402Q23.41402,22.50594,23.43541,22.43543Q23.4568,22.364910000000002,23.47118,22.29263Q23.48555,22.22036,23.49278,22.14703Q23.5,22.07369,23.5,22Q23.5,21.85226,23.47118,21.70736Q23.44236,21.56247,23.38582,21.42597Q23.32928,21.28948,23.2472,21.16664Q23.16513,21.04381,23.06066,20.93934L22.977330000000002,20.85601L22.56066,20.43934L21.727330000000002,19.60601L21.31097,19.18965L21.31066,19.18934Q21.14217,19.02085,20.92977,18.912869999999998Q20.71737,18.80489,20.48196,18.76804Q20.44511,18.53263,20.337130000000002,18.32023Q20.22915,18.10783,20.06066,17.93934L17.06066,14.93934Q17.00855,14.88723,16.95159,14.84048Q16.894627,14.79374,16.833355,14.7528Q16.772084,14.71186,16.707095,14.67712Q16.642106,14.64238,16.574025,14.61418Q16.505944,14.58598,16.435427,14.564589999999999Q16.36491,14.5432,16.292635,14.52882Q16.220361,14.51445,16.147026,14.50722Q16.0736903,14.5,16,14.5Q15.9263097,14.5,15.852974,14.50722Q15.779639,14.51445,15.707365,14.52882Q15.63509,14.5432,15.564573,14.564589999999999Q15.494056,14.58598,15.425975,14.61418Q15.357894,14.64238,15.292905,14.67712Q15.227916,14.71186,15.166645,14.7528Q15.105373,14.79374,15.04841,14.84048Q14.99145,14.88723,14.93934,14.93934Z" fill-rule="evenodd" fill="#FFFFFF" fill-opacity="1"/></g></g><g><g><path d="M21.5,20Q21.5,19.9507543,21.50961,19.9024549Q21.51921,19.854155,21.53806,19.808658Q21.55691,19.763161,21.58426,19.722215Q21.61162,19.681269,21.64645,19.646447Q21.68127,19.611625,21.72221,19.584265Q21.76316,19.556906,21.80866,19.53806Q21.85416,19.519215,21.90245,19.509607Q21.95075,19.5,22,19.5Q22.04925,19.5,22.09754,19.509607Q22.14584,19.519215,22.19134,19.53806Q22.23684,19.556906,22.27778,19.584265Q22.31873,19.611625,22.35355,19.646447Q22.38838,19.681269,22.41573,19.722215Q22.44309,19.763161,22.46194,19.808658Q22.48078,19.854155,22.49039,19.9024549Q22.5,19.9507543,22.5,20L22.5,22Q22.5,22.04925,22.49039,22.09754Q22.48078,22.14584,22.46194,22.19134Q22.44309,22.23684,22.41573,22.27778Q22.38838,22.31873,22.35355,22.35355Q22.31873,22.38838,22.27779,22.41573Q22.23684,22.44309,22.19134,22.46194Q22.14584,22.48078,22.09754,22.49039Q22.04925,22.5,22,22.5L20,22.5Q19.9507543,22.5,19.9024549,22.49039Q19.854155,22.48078,19.808658,22.46194Q19.763161,22.44309,19.722215,22.41573Q19.681269,22.38838,19.646447,22.35355Q19.611625,22.31873,19.584265,22.27779Q19.556906,22.23684,19.53806,22.19134Q19.519215,22.14584,19.509607,22.09754Q19.5,22.04925,19.5,22Q19.5,21.95075,19.509607,21.90245Q19.519215,21.85416,19.53806,21.80866Q19.556906,21.76316,19.584265,21.72221Q19.611625,21.68127,19.646447,21.64645Q19.681269,21.61162,19.722215,21.58426Q19.763161,21.55691,19.808658,21.53806Q19.854155,21.51921,19.9024549,21.50961Q19.9507543,21.5,20,21.5L21.5,21.5L21.5,20Z" fill-rule="evenodd" fill="#D25F00" fill-opacity="1"/></g><g><path d="M20,15.5L22,15.5Q22.04925,15.5,22.09754,15.509607Q22.14584,15.519214999999999,22.19134,15.53806Q22.23684,15.556906,22.27778,15.584265Q22.31873,15.611625,22.35355,15.646447Q22.38838,15.681269,22.41573,15.722215Q22.44309,15.763161,22.46194,15.808658Q22.48078,15.854155,22.49039,15.9024549Q22.5,15.9507543,22.5,16L22.5,18Q22.5,18.04925,22.49039,18.09754Q22.48078,18.14584,22.46194,18.19134Q22.44309,18.23684,22.41573,18.27778Q22.38838,18.31873,22.35355,18.35355Q22.31873,18.38838,22.27779,18.41573Q22.23684,18.44309,22.19134,18.46194Q22.14584,18.48078,22.09754,18.49039Q22.04925,18.5,22,18.5Q21.95075,18.5,21.90245,18.49039Q21.85416,18.48078,21.80866,18.46194Q21.76316,18.44309,21.72221,18.41573Q21.68127,18.38838,21.64645,18.35355Q21.61162,18.31873,21.58426,18.27779Q21.55691,18.23684,21.53806,18.19134Q21.51921,18.14584,21.50961,18.09754Q21.5,18.04925,21.5,18L21.5,16.5L20,16.5Q19.9507543,16.5,19.9024549,16.490393Q19.854155,16.480785,19.808658,16.46194Q19.763161,16.443094,19.722215,16.415735Q19.681269,16.388375,19.646447,16.353553Q19.611625,16.318731,19.584265,16.277785Q19.556906,16.236839,19.53806,16.191342Q19.519215,16.145845,19.509607,16.0975451Q19.5,16.0492457,19.5,16Q19.5,15.9507543,19.509607,15.9024549Q19.519215,15.854155,19.53806,15.808658Q19.556906,15.763161,19.584265,15.722215Q19.611625,15.681269,19.646447,15.646447Q19.681269,15.611625,19.722215,15.584265Q19.763161,15.556906,19.808658,15.53806Q19.854155,15.519214999999999,19.9024549,15.509607Q19.9507543,15.5,20,15.5Z" fill-rule="evenodd" fill="#D25F00" fill-opacity="1"/></g><g><path d="M22.35355,16.353554Q22.42388,16.283228,22.46194,16.191342Q22.5,16.0994563,22.5,16Q22.5,15.9507543,22.490389999999998,15.9024549Q22.48078,15.854155,22.46194,15.808658Q22.443089999999998,15.763161,22.41573,15.722215Q22.388370000000002,15.681269,22.35355,15.646447Q22.318730000000002,15.611625,22.27778,15.584265Q22.23684,15.556906,22.19134,15.53806Q22.14584,15.519214999999999,22.09755,15.509607Q22.04925,15.5,22,15.5Q21.90054,15.5,21.80866,15.53806Q21.71677,15.57612,21.64645,15.646447L21.646259999999998,15.646634L15.646634,21.646259999999998L15.646447,21.64645Q15.57612,21.71677,15.53806,21.80866Q15.5,21.90054,15.5,22Q15.5,22.04925,15.509607,22.09755Q15.519214999999999,22.14584,15.53806,22.19134Q15.556906,22.23684,15.584265,22.27778Q15.611625,22.318730000000002,15.646447,22.35355Q15.681269,22.388370000000002,15.722215,22.41573Q15.763161,22.443089999999998,15.808658,22.46194Q15.854155,22.48078,15.9024549,22.490389999999998Q15.9507543,22.5,16,22.5Q16.0994563,22.5,16.191342,22.46194Q16.283228,22.42388,16.353554,22.35355L16.354004,22.3531L22.35355,16.353553L22.35355,16.353554Z" fill-rule="evenodd" fill="#D25F00" fill-opacity="1"/></g><g><path d="M15.646447,15.646447Q15.611625,15.681269,15.584265,15.722215Q15.556906,15.763161,15.53806,15.808658Q15.519214999999999,15.854155,15.509607,15.9024549Q15.5,15.9507543,15.5,16Q15.5,16.0492457,15.509607,16.0975451Q15.519214999999999,16.145845,15.53806,16.191342Q15.556906,16.236839,15.584265,16.277785Q15.611625,16.318731,15.646447,16.353553L18.64645,19.35355Q18.71677,19.42388,18.80866,19.46194Q18.90054,19.5,19,19.5Q19.09946,19.5,19.19134,19.46194Q19.28323,19.42388,19.35355,19.35355Q19.42388,19.28323,19.46194,19.19134Q19.5,19.09946,19.5,19Q19.5,18.90054,19.46194,18.80866Q19.42388,18.71677,19.35355,18.64645L16.353553,15.646447Q16.318731,15.611625,16.277785,15.584265Q16.236839,15.556906,16.191342,15.53806Q16.145845,15.519214999999999,16.0975451,15.509607Q16.0492457,15.5,16,15.5Q15.9507543,15.5,15.9024549,15.509607Q15.854155,15.519214999999999,15.808658,15.53806Q15.763161,15.556906,15.722215,15.584265Q15.681269,15.611625,15.646447,15.646447ZM19.89645,20.60355Q19.82612,20.53323,19.78806,20.44134Q19.75,20.34946,19.75,20.25Q19.75,20.20075,19.75961,20.15245Q19.76921,20.10416,19.78806,20.05866Q19.80691,20.01316,19.83426,19.97221Q19.86162,19.93127,19.89645,19.89645Q19.93127,19.86162,19.97221,19.83426Q20.01316,19.80691,20.05866,19.78806Q20.10416,19.76921,20.15245,19.75961Q20.20075,19.75,20.25,19.75Q20.34946,19.75,20.44134,19.78806Q20.53323,19.82612,20.60355,19.89645L21.020220000000002,20.31311L21.85355,21.14645L22.270220000000002,21.56311L22.35355,21.64645Q22.42388,21.71677,22.46194,21.80866Q22.5,21.90054,22.5,22Q22.5,22.04925,22.490389999999998,22.09755Q22.48078,22.14584,22.46194,22.19134Q22.443089999999998,22.23684,22.41573,22.27778Q22.388370000000002,22.318730000000002,22.35355,22.35355Q22.318730000000002,22.388370000000002,22.27778,22.41573Q22.23684,22.443089999999998,22.19134,22.46194Q22.14584,22.48078,22.09755,22.490389999999998Q22.04925,22.5,22,22.5Q21.90054,22.5,21.80866,22.46194Q21.71677,22.42388,21.64645,22.35355L21.64596,22.35307L21.56311,22.270220000000002L21.14645,21.85355L19.89645,20.60355L19.89645,20.60355Z" fill-rule="evenodd" fill="#D25F00" fill-opacity="1"/></g></g></g></svg>