<svg xmlns="http://www.w3.org/2000/svg" xmlns:xlink="http://www.w3.org/1999/xlink" fill="none" version="1.1" width="24" height="24" viewBox="0 0 24 24"><defs><clipPath id="master_svg0_732_40561"><rect x="0" y="0" width="24" height="24" rx="0"/></clipPath></defs><g clip-path="url(#master_svg0_732_40561)"><g><path d="M5.507000085830688,4.048C6.076990085830689,3.382835,6.909140085830689,3,7.7850000858306885,3L16.215000085830688,3C17.09090008583069,3.000026226,17.92310008583069,3.382862,18.493000085830687,4.048L20.215000085830688,6.056C19.97850008583069,6.01848,19.739400085830688,5.999750000000001,19.50000008583069,6L4.500000085830688,6C4.257000085830688,6,4.018000085830688,6.02,3.7850000858306885,6.056L5.507000085830688,4.048Z" fill="#7BC0FC" fill-opacity="1"/></g><g><path d="M1.5,10.5C1.5,8.84315,2.84315,7.5,4.5,7.5L19.5,7.5C21.1569,7.5,22.5,8.84315,22.5,10.5C22.5,12.15685,21.1569,13.5,19.5,13.5L4.5,13.5C2.84315,13.5,1.5,12.15685,1.5,10.5ZM6.5,10.5C6.5,10.91421,6.16421,11.25,5.75,11.25C5.335789999999999,11.25,5,10.91421,5,10.5C5,10.08579,5.335789999999999,9.75,5.75,9.75C6.16421,9.75,6.5,10.08579,6.5,10.5ZM8.75,11.25C9.16421,11.25,9.5,10.91421,9.5,10.5C9.5,10.08579,9.16421,9.75,8.75,9.75C8.33579,9.75,8,10.08579,8,10.5C8,10.91421,8.33579,11.25,8.75,11.25ZM4.5,15C2.84315,15,1.5,16.34315,1.5,18C1.5,19.6569,2.84315,21,4.5,21L19.5,21C21.1569,21,22.5,19.6569,22.5,18C22.5,16.34315,21.1569,15,19.5,15L4.5,15ZM5.75,18.75C6.16421,18.75,6.5,18.4142,6.5,18C6.5,17.5858,6.16421,17.25,5.75,17.25C5.335789999999999,17.25,5,17.5858,5,18C5,18.4142,5.335789999999999,18.75,5.75,18.75ZM9.5,18C9.5,18.4142,9.16421,18.75,8.75,18.75C8.33579,18.75,8,18.4142,8,18C8,17.5858,8.33579,17.25,8.75,17.25C9.16421,17.25,9.5,17.5858,9.5,18Z" fill-rule="evenodd" fill="#165DFF" fill-opacity="1"/></g><g><path d="M17.75001,15.348197921875C17.79001,15.107308921875,17.9989,14.930419921875,18.24335,14.930419921875L19.395789999999998,14.930419921875C19.64023,14.930419921875,19.84912,15.107308921875,19.88912,15.348197921875L19.98379,15.917530921875C20.01179,16.083749921875,20.1229,16.222419921875,20.27046,16.304199921875C20.303350000000002,16.321979921875,20.33579,16.341089921875,20.36823,16.360639921875C20.51268,16.447749921875,20.68823,16.474859921875,20.84601,16.415749921875L21.3869,16.213089921875C21.61581,16.126999921875,21.8734,16.219129921875002,21.99579,16.430859921875L22.57179,17.429529921875C22.69391,17.641279921875,22.64504,17.910279921875,22.456229999999998,18.065529921875L22.010460000000002,18.433089921875002C21.88023,18.540199921875,21.81579,18.705529921875,21.81935,18.873979921875C21.819969999999998,18.911749921875,21.819969999999998,18.949529921875,21.81935,18.987309921875C21.81579,19.155309921875002,21.88023,19.320639921875,22.010460000000002,19.427749921874998L22.45668,19.795309921875C22.64512,19.950859921875,22.69401,20.219749921875,22.57223,20.430859921875L21.995350000000002,21.429529921875C21.87313,21.641209921875,21.61579,21.733509921875,21.3869,21.647749921875L20.84601,21.445089921875C20.68823,21.385979921875,20.51268,21.413089921875,20.36779,21.500199921875C20.33557,21.519799921875,20.302970000000002,21.538769921875,20.27001,21.557089921875C20.1229,21.638419921875,20.01179,21.777089921875,19.98379,21.943309921875L19.88912,22.512639921875C19.84912,22.753969921875,19.64023,22.930419921875,19.395789999999998,22.930419921875L18.2429,22.930419921875C17.99846,22.930419921875,17.79001,22.753529921875,17.74957,22.512639921875L17.6549,21.943309921875C17.62735,21.777089921875,17.51623,21.638419921875,17.36868,21.556639921875C17.33572,21.538459921875,17.30312,21.519639921875,17.2709,21.500199921875C17.12646,21.413089921875,16.9509,21.385969921875,16.79268,21.445089921875L16.25179,21.647749921875C16.02301,21.733589921875,15.765698,21.641489921875,15.643345,21.429969921875L15.066901,20.431309921875C14.9447788,20.219559921875,14.99365393,19.950559921874998,15.182457,19.795309921875L15.628679,19.427749921874998C15.758456,19.321089921875,15.822901,19.155309921875002,15.81979,18.987309921875C15.819095,18.949529921875,15.819095,18.911749921875,15.81979,18.873969921875002C15.822901,18.705089921875,15.758456,18.540199921875,15.628679,18.433089921875002L15.182457,18.065529921875C14.99389087,17.910329921875,14.9450341,17.641619921874998,15.066901,17.429969921875L15.643345,16.431309921875C15.765592999999999,16.219409921875,16.02322,16.127079921875,16.25223,16.213089921875L16.79268,16.415749921875C16.9509,16.474859921875,17.12646,16.447749921875,17.2709,16.360639921875C17.3029,16.341089921875,17.33579,16.322419921875,17.36868,16.303749921875C17.51623,16.222419921875,17.62735,16.083749921875,17.6549,15.917529921875L17.75001,15.348197921875L17.75001,15.348197921875Z" fill="#7BC0FC" fill-opacity="1"/><path d="M16.76368,15.183424921875L16.76352,15.184388921875L16.73956,15.327830921875L16.60382,15.276929921875Q15.412870999999999,14.829653921875,14.777269,15.931399921875L14.2003,16.930969921875Q13.5669,18.030989921875,14.546668,18.837389921875L14.659604,18.930419921875L14.547314,19.022909921874998Q13.627089999999999,19.779619921875,14.127755,20.794719921875Q14.161133,20.862399921875,14.200825,20.931219921874998L14.777734,21.930689921875Q15.41377,23.030229921874998,16.60266,22.584179921875L16.73923,22.533009921875L16.763370000000002,22.678219921874998Q16.97361,23.930419921875,18.2429,23.930419921875L19.395789999999998,23.930419921875Q20.66777,23.930419921875,20.87558,22.676669921875L20.89947,22.533009921875L21.03605,22.584179921875Q22.22602,23.030029921875,22.86125,21.929729921875L23.43845,20.930529921875Q23.99288,19.969389921875,23.31216,19.230129921875Q23.21492,19.124519921875,23.09247,19.023449921875L22.97936,18.930279921874998L23.09138,18.837919921875Q24.07295,18.030779921875,23.438029999999998,16.929909921875L22.86156,15.930419921875Q22.22516,14.829455921875,21.03603,15.276662921875L20.89947,15.327831921875L20.875619999999998,15.184390921875Q20.66739,13.930419921875,19.395789999999998,13.930419921875L18.24335,13.930419921875Q16.97223,13.930419921875,16.76368,15.183424921875ZM18.24335,14.930419921875C17.9989,14.930419921875,17.79001,15.107308921875,17.75001,15.348197921875L17.6549,15.917529921875C17.62735,16.083749921875,17.51623,16.222419921875,17.36868,16.303749921875C17.33579,16.322419921875,17.3029,16.341089921875,17.2709,16.360639921875C17.12646,16.447749921875,16.9509,16.474859921875,16.79268,16.415749921875L16.25223,16.213089921875C16.02322,16.127079921875,15.765592999999999,16.219409921875,15.643345,16.431309921875L15.066901,17.429969921875C14.9450341,17.641619921874998,14.99389087,17.910329921875,15.182457,18.065529921875L15.628679,18.433089921875002C15.758456,18.540199921875,15.822901,18.705089921875,15.81979,18.873969921875002C15.819095,18.911749921875,15.819095,18.949529921875,15.81979,18.987309921875C15.822901,19.155309921875002,15.758456,19.321089921875,15.628679,19.427749921874998L15.182457,19.795309921875C14.99365393,19.950559921874998,14.9447788,20.219559921875,15.066901,20.431309921875L15.643345,21.429969921875C15.765698,21.641489921875,16.02301,21.733589921875,16.25179,21.647749921875L16.79268,21.445089921875C16.9509,21.385969921875,17.12646,21.413089921875,17.2709,21.500199921875C17.30312,21.519639921875,17.33572,21.538459921875,17.36868,21.556639921875C17.51623,21.638419921875,17.62735,21.777089921875,17.6549,21.943309921875L17.74957,22.512639921875C17.79001,22.753529921875,17.99846,22.930419921875,18.2429,22.930419921875L19.395789999999998,22.930419921875C19.64023,22.930419921875,19.84912,22.753969921875,19.88912,22.512639921875L19.98379,21.943309921875C20.01179,21.777089921875,20.1229,21.638419921875,20.27001,21.557089921875C20.302970000000002,21.538769921875,20.33557,21.519799921875,20.36779,21.500199921875C20.51268,21.413089921875,20.68823,21.385979921875,20.84601,21.445089921875L21.3869,21.647749921875C21.61579,21.733509921875,21.87313,21.641209921875,21.995350000000002,21.429529921875L22.57223,20.430859921875C22.69401,20.219749921875,22.64512,19.950859921875,22.45668,19.795309921875L22.010460000000002,19.427749921874998C21.88023,19.320639921875,21.81579,19.155309921875002,21.81935,18.987309921875C21.819969999999998,18.949529921875,21.819969999999998,18.911749921875,21.81935,18.873979921875C21.81579,18.705529921875,21.88023,18.540199921875,22.010460000000002,18.433089921875002L22.456229999999998,18.065529921875C22.64504,17.910279921875,22.69391,17.641279921875,22.57179,17.429529921875L21.99579,16.430859921875C21.8734,16.219129921875002,21.61581,16.126999921875,21.3869,16.213089921875L20.84601,16.415749921875C20.68823,16.474859921875,20.51268,16.447749921875,20.36823,16.360639921875C20.33579,16.341089921875,20.303350000000002,16.321979921875,20.27046,16.304199921875C20.1229,16.222419921875,20.01179,16.083749921875,19.98379,15.917530921875L19.88912,15.348197921875C19.84912,15.107308921875,19.64023,14.930419921875,19.395789999999998,14.930419921875L18.24335,14.930419921875Z" fill-rule="evenodd" fill="#FFFFFF" fill-opacity="1"/></g><g><path d="M20.15269294921875,18.93049796875Q20.15269294921875,18.99600796875,20.14627294921875,19.06118796875Q20.13985294921875,19.12637796875,20.12707294921875,19.19061796875Q20.11429294921875,19.25486796875,20.09527294921875,19.31754796875Q20.07626294921875,19.38022796875,20.051192949218752,19.44074796875Q20.02613294921875,19.50125796875,19.99525294921875,19.55902796875Q19.96437294921875,19.61679796875,19.92798294921875,19.671257968749998Q19.89159294921875,19.72572796875,19.85003294921875,19.77635796875Q19.80848294921875,19.82699796875,19.762162949218748,19.873307968749998Q19.71585294921875,19.91962796875,19.66521294921875,19.96117796875Q19.61458294921875,20.00273796875,19.560112949218748,20.03912796875Q19.50565294921875,20.07551796875,19.44788294921875,20.10639796875Q19.39011294921875,20.13727796875,19.32960294921875,20.162337968750002Q19.26908294921875,20.18740796875,19.20640294921875,20.20641796875Q19.14372294921875,20.22543796875,19.07947294921875,20.23821796875Q19.01523294921875,20.25099796875,18.95004294921875,20.25741796875Q18.88486294921875,20.26383796875,18.81935294921875,20.26383796875Q18.75385294921875,20.26383796875,18.68866294921875,20.25741796875Q18.62348294921875,20.25099796875,18.55923294921875,20.23821796875Q18.49499294921875,20.22543796875,18.43230994921875,20.20641796875Q18.36962794921875,20.18740796875,18.30911194921875,20.162337968750002Q18.24859494921875,20.13727796875,18.19082694921875,20.10639796875Q18.13305894921875,20.07551796875,18.07859594921875,20.03912796875Q18.02413294921875,20.00273796875,17.97349894921875,19.96117796875Q17.92286494921875,19.91962796875,17.87654694921875,19.873307968749998Q17.83022994921875,19.82699796875,17.78867594921875,19.77635796875Q17.74712094921875,19.72572796875,17.71072994921875,19.671257968749998Q17.67433894921875,19.61679796875,17.64346094921875,19.55902796875Q17.61258394921875,19.50125796875,17.58751694921875,19.44074796875Q17.56245014921875,19.38022796875,17.54343584921875,19.31754796875Q17.52442144921875,19.25486796875,17.51164254921875,19.19061796875Q17.49886364921875,19.12637796875,17.49244330921875,19.06118796875Q17.48602294921875,18.99600796875,17.48602294921875,18.93049796875Q17.48602294921875,18.86499796875,17.49244330921875,18.79980796875Q17.49886364921875,18.73462796875,17.51164254921875,18.67037796875Q17.52442144921875,18.60613796875,17.54343584921875,18.54345496875Q17.56245014921875,18.48077296875,17.58751694921875,18.42025696875Q17.61258394921875,18.35973996875,17.64346094921875,18.30197196875Q17.67433894921875,18.24420396875,17.71072994921875,18.18974096875Q17.74712094921875,18.13527796875,17.78867594921875,18.08464396875Q17.83022994921875,18.03400996875,17.87654694921875,17.98769196875Q17.92286494921875,17.94137496875,17.97349894921875,17.89982096875Q18.02413294921875,17.85826596875,18.07859594921875,17.82187496875Q18.13305894921875,17.78548396875,18.19082694921875,17.75460596875Q18.24859494921875,17.72372896875,18.30911194921875,17.69866196875Q18.36962794921875,17.67359516875,18.43230994921875,17.65458086875Q18.49499294921875,17.63556646875,18.55923294921875,17.62278756875Q18.62348294921875,17.61000866875,18.68866294921875,17.60358832875Q18.75385294921875,17.59716796875,18.81935294921875,17.59716796875Q18.88486294921875,17.59716796875,18.95004294921875,17.60358832875Q19.01523294921875,17.61000866875,19.07947294921875,17.62278756875Q19.14372294921875,17.63556646875,19.20640294921875,17.65458086875Q19.26908294921875,17.67359516875,19.32960294921875,17.69866196875Q19.39011294921875,17.72372896875,19.44788294921875,17.75460596875Q19.50565294921875,17.78548396875,19.560112949218748,17.82187496875Q19.61458294921875,17.85826596875,19.66521294921875,17.89982096875Q19.71585294921875,17.94137496875,19.762162949218748,17.98769196875Q19.80848294921875,18.03400996875,19.85003294921875,18.08464396875Q19.89159294921875,18.13527796875,19.92798294921875,18.18974096875Q19.96437294921875,18.24420396875,19.99525294921875,18.30197196875Q20.02613294921875,18.35973996875,20.051192949218752,18.42025696875Q20.07626294921875,18.48077296875,20.09527294921875,18.54345496875Q20.11429294921875,18.60613796875,20.12707294921875,18.67037796875Q20.13985294921875,18.73462796875,20.14627294921875,18.79980796875Q20.15269294921875,18.86499796875,20.15269294921875,18.93049796875Z" fill="#FFFFFF" fill-opacity="1"/></g></g></svg>