<svg xmlns="http://www.w3.org/2000/svg" xmlns:xlink="http://www.w3.org/1999/xlink" fill="none" version="1.1" width="24" height="24" viewBox="0 0 24 24"><defs><clipPath id="master_svg0_732_33311"><rect x="0" y="0" width="24" height="24" rx="0"/></clipPath></defs><g clip-path="url(#master_svg0_732_33311)"><g><path d="M4.5,6.375C4.5,4.09682,6.34683,2.25,8.625,2.25C10.90318,2.25,12.75,4.09683,12.75,6.375C12.75,8.65317,10.90318,10.5,8.625,10.5C6.34683,10.5,4.5,8.653179999999999,4.5,6.375ZM1.5,19.125C1.50135803,15.1909,4.69093,12.00246,8.625,12.00246C12.5591,12.00246,15.7486,15.1909,15.75,19.125L15.75,19.128L15.749,19.247C15.7447,19.5055,15.6075,19.7436,15.386,19.877C13.3452,21.106,11.00727,21.7536,8.625,21.75C6.153,21.75,3.839,21.066,1.865,19.877C1.643107,19.7439,1.50552404,19.5057,1.500999808,19.247L1.5,19.125Z" fill="#4464F8" fill-opacity="1"/></g><g><path d="M14.25,8.625C14.25,6.7610399999999995,15.76104,5.25,17.625,5.25C19.48896,5.25,21,6.7610399999999995,21,8.625C21,10.488959999999999,19.48896,12,17.625,12C15.76104,12,14.25,10.488959999999999,14.25,8.625ZM17.25,19.128L17.249,19.272C17.24341,19.6053,17.16382,19.9332,17.016,20.232C18.7617,20.3397,20.50541,19.9916,22.076,19.222C22.323439999999998,19.101,22.48469,18.8542,22.496000000000002,18.579C22.65024,14.91414,18.854219999999998,12.39819,15.539,13.968C16.65219,15.4566,17.25225,17.266199999999998,17.249,19.125L17.25,19.128L17.25,19.128Z" fill="#71C7FB" fill-opacity="1"/></g><g><path d="M13.38602,23.62342Q12.844073999999999,23.08147,13.0629839,22.34711L13.367753,21.32423Q13.584705,20.59615,14.12186,20.059260000000002L18.44753,15.7336L19.45755,14.723575L19.59545,14.585669Q20.18122,14,21.00955,14Q21.83788,14,22.423650000000002,14.585669Q23.0094,15.17155,23.0094,15.999880000000001Q23.0094,16.82821,22.42371,17.41404L22.28586,17.55189L21.275840000000002,18.56191L16.95035,22.8874Q16.41329,23.42473,15.685179999999999,23.64169L14.66244,23.94642Q13.927962,24.165399999999998,13.38602,23.62342Z" fill-rule="evenodd" fill="#FFFFFF" fill-opacity="1"/></g><g><path d="M21.707169999999998,15.292835C21.31665,14.9023884,20.68358,14.9023884,20.29307,15.292835L19.85231,15.733597L21.2664,17.1477L21.707169999999998,16.70693C22.09761,16.31642,22.09761,15.683346,21.707169999999998,15.292835ZM20.86221,17.55189L19.44811,16.13779L14.819534,20.766370000000002C14.58443,21.00136,14.411601,21.29123,14.316676,21.6098L14.0119138,22.63266C13.9819379,22.73322,14.00949407,22.842109999999998,14.083691,22.91631C14.157888,22.99051,14.266785,23.01806,14.367343,22.98809L15.3902,22.683320000000002C15.70876,22.5884,15.99865,22.41557,16.233629999999998,22.18047L20.86221,17.55189L20.86221,17.55189Z" fill="#4464F8" fill-opacity="1"/></g></g></svg>