<svg xmlns="http://www.w3.org/2000/svg" xmlns:xlink="http://www.w3.org/1999/xlink" fill="none" version="1.1" width="24" height="24" viewBox="0 0 24 24"><defs><clipPath id="master_svg0_732_36033"><rect x="0" y="0" width="24" height="24" rx="0"/></clipPath></defs><g clip-path="url(#master_svg0_732_36033)"><g><path d="M5.507000085830688,4.048C6.076990085830689,3.382835,6.909140085830689,3,7.7850000858306885,3L16.215000085830688,3C17.09090008583069,3.000026226,17.92310008583069,3.382862,18.493000085830687,4.048L20.215000085830688,6.056C19.97850008583069,6.01848,19.739400085830688,5.999750000000001,19.50000008583069,6L4.500000085830688,6C4.257000085830688,6,4.018000085830688,6.02,3.7850000858306885,6.056L5.507000085830688,4.048Z" fill="#DDBEF6" fill-opacity="1"/></g><g><path d="M1.5,10.5C1.5,8.84315,2.84315,7.5,4.5,7.5L19.5,7.5C21.1569,7.5,22.5,8.84315,22.5,10.5C22.5,12.15685,21.1569,13.5,19.5,13.5L4.5,13.5C2.84315,13.5,1.5,12.15685,1.5,10.5ZM6.5,10.5C6.5,10.91421,6.16421,11.25,5.75,11.25C5.335789999999999,11.25,5,10.91421,5,10.5C5,10.08579,5.335789999999999,9.75,5.75,9.75C6.16421,9.75,6.5,10.08579,6.5,10.5ZM8.75,11.25C9.16421,11.25,9.5,10.91421,9.5,10.5C9.5,10.08579,9.16421,9.75,8.75,9.75C8.33579,9.75,8,10.08579,8,10.5C8,10.91421,8.33579,11.25,8.75,11.25ZM4.5,15C2.84315,15,1.5,16.34315,1.5,18C1.5,19.6569,2.84315,21,4.5,21L19.5,21C21.1569,21,22.5,19.6569,22.5,18C22.5,16.34315,21.1569,15,19.5,15L4.5,15ZM5.75,18.75C6.16421,18.75,6.5,18.4142,6.5,18C6.5,17.5858,6.16421,17.25,5.75,17.25C5.335789999999999,17.25,5,17.5858,5,18C5,18.4142,5.335789999999999,18.75,5.75,18.75ZM9.5,18C9.5,18.4142,9.16421,18.75,8.75,18.75C8.33579,18.75,8,18.4142,8,18C8,17.5858,8.33579,17.25,8.75,17.25C9.16421,17.25,9.5,17.5858,9.5,18Z" fill-rule="evenodd" fill="#8D4EDA" fill-opacity="1"/></g><g><path d="M17.024436318359374,14.162991640625Q14.236159318359375,14.910409640625,13.489606318359375,17.698921640625Q13.438576318359376,17.889531640625002,13.438576318359376,18.086851640625Q13.438576318359376,18.294431640625,13.494947318359374,18.494211640625Q13.551322318359375,18.694001640625,13.659835318359375,18.870961640625Q13.506276318359376,18.973791640625,13.382266318359376,19.110831640625Q13.258266318359375,19.247861640625,13.171226318359375,19.410891640625Q13.084196318359375,19.573921640625,13.039336318359375,19.753211640625Q12.994476318359375,19.932491640625,12.994476318359375,20.117301640625Q12.994476318359375,20.135141640625,12.994896318359375,20.152971640625L12.994896318359375,22.234711640625Q12.994896318359375,22.308401640625,13.002126318359375,22.381741640625002Q13.009346318359375,22.455071640625,13.023726318359374,22.527351640625Q13.038096318359376,22.599621640625,13.059486318359376,22.670141640625Q13.080876318359374,22.740661640625,13.109076318359374,22.808741640625Q13.137276318359374,22.876821640625,13.172016318359375,22.941811640624998Q13.206756318359375,23.006801640625,13.247696318359376,23.068071640625Q13.288636318359375,23.129341640625,13.335386318359376,23.186301640625Q13.382136318359375,23.243271640625,13.434236318359375,23.295371640625Q13.486346318359375,23.347481640625,13.543310318359374,23.394231640625Q13.600273318359376,23.440981640625,13.661545318359375,23.481921640625Q13.722816318359374,23.522861640625003,13.787805318359375,23.557591640625Q13.852794318359376,23.592331640624998,13.920875318359375,23.620531640625Q13.988956318359374,23.648731640625,14.059473318359375,23.670121640625Q14.129990318359376,23.691511640625002,14.202265318359375,23.705891640624998Q14.274539318359375,23.720271640625,14.347874318359375,23.727491640625Q14.421210118359374,23.734711640625,14.494900345359374,23.734711640625Q14.654545318359375,23.734711640625,14.810614318359375,23.701111640625Q14.966682318359375,23.667511640625,15.112183318359374,23.601811640625Q15.257683318359375,23.536111640625002,15.386096318359375,23.441261640625Q15.514506318359375,23.346411640625,15.620086318359375,23.226661640625Q17.375976318359374,24.421401640625,19.612556318359374,23.821871640624998Q22.400826318359375,23.074451640625,23.147386318359374,20.285941640625Q23.198416318359374,20.095331640624998,23.198416318359374,19.898011640625Q23.198416318359374,19.690431640625,23.142046318359377,19.490651640625Q23.085666318359372,19.290861640625,22.977156318359377,19.113901640625Q23.130716318359376,19.011071640625,23.254726318359374,18.874031640625Q23.378726318359377,18.737001640625,23.465766318359375,18.573971640625Q23.552796318359377,18.410941640625,23.597656318359377,18.231651640625Q23.642516318359377,18.052371640625,23.642516318359377,17.867561640625L23.642516318359377,17.867131640625L23.642516318359377,15.750146640625Q23.642516318359377,15.676456640625,23.635286318359377,15.603120640625Q23.628066318359373,15.529785540625,23.613696318359374,15.457511240625Q23.599316318359374,15.385236640625,23.577926318359374,15.314719640625Q23.556536318359377,15.244202640625,23.528336318359376,15.176121640625Q23.500136318359374,15.108040640625,23.465396318359375,15.043052640625Q23.430656318359375,14.978063640625,23.389716318359376,14.916792640625Q23.348776318359377,14.855520640625,23.302026318359374,14.798557640625Q23.255276318359375,14.741594640625,23.203176318359375,14.689487640625Q23.151066318359376,14.637380640625,23.094106318359373,14.590632640625Q23.037136318359373,14.543883640625,22.975866318359373,14.502943640625Q22.914596318359376,14.462001640625001,22.849606318359378,14.427261640625Q22.784616318359376,14.392531640625,22.716536318359374,14.364331640625Q22.648456318359376,14.336131640625,22.577936318359377,14.314741640625Q22.507426318359375,14.293351640625,22.435146318359376,14.278971640625Q22.362876318359376,14.264591640625,22.289536318359374,14.257371640625Q22.216206318359376,14.250151640624999,22.142516318359377,14.250151640624999Q21.982836318359375,14.250151640624999,21.826746318359376,14.283761640625Q21.670646318359374,14.317371640625,21.525126318359376,14.383101640625Q21.379596318359376,14.448821640625,21.251176318359377,14.543702640625Q21.122746318359376,14.638586640625,21.017176318359375,14.758379640625Q19.261186318359375,13.563411640625,17.024436318359374,14.162991640625ZM18.783376318359373,17.026071640625Q18.325276318359375,16.920201640625,17.801186318359374,17.060691640625Q16.686546318359376,17.359481640625,16.387776318359375,18.473891640625L16.387546318359377,18.474771640625Q16.368156318359375,18.547191640625,16.341646318359373,18.617301640625L16.612306318359376,18.617301640625Q16.685996318359376,18.617301640625,16.759336318359374,18.624531640625Q16.832676318359376,18.631751640625,16.904946318359375,18.646131640625Q16.977216318359375,18.660501640625,17.047736318359377,18.681891640625Q17.118256318359375,18.703281640625,17.186336318359373,18.731481640625Q17.254416318359375,18.759681640625,17.319406318359377,18.794421640625Q17.384396318359375,18.829161640625,17.445666318359375,18.870101640625002Q17.506936318359376,18.911041640625,17.563896318359376,18.957791640625Q17.620866318359376,19.004541640625,17.672966318359375,19.056641640625Q17.725076318359374,19.108751640625,17.771826318359373,19.165711640625Q17.818576318359376,19.222681640624998,17.859516318359375,19.283951640625Q17.900456318359375,19.345221640625,17.935196318359374,19.410211640625Q17.969926318359374,19.475201640625,17.998126318359375,19.543281640625Q18.026326318359374,19.611361640625,18.047716318359374,19.681881640625Q18.069116318359374,19.752391640625,18.083486318359377,19.824671640625Q18.097866318359376,19.896941640625002,18.105086318359376,19.970281640625Q18.112306318359376,20.043611640625,18.112306318359376,20.117301640625Q18.112306318359376,20.342341640625,18.046276318359375,20.557471640625Q17.980236318359374,20.772601640625,17.853986318359375,20.958881640625002Q18.311916318359376,21.064601640625,18.835806318359374,20.924171640624998Q19.950446318359376,20.625381640625,20.249216318359373,19.510961640625L20.249456318359375,19.510081640625Q20.268836318359376,19.437671640625,20.295346318359375,19.367561640625L20.025106318359377,19.367561640625Q19.951416318359374,19.367561640625,19.878076318359376,19.360331640625Q19.804746318359374,19.353111640625,19.732466318359375,19.338731640625Q19.660196318359375,19.324361640625,19.589676318359373,19.302971640625Q19.519156318359375,19.281581640625,19.451076318359377,19.253371640625Q19.382996318359375,19.225171640625,19.318006318359373,19.190441640625Q19.253016318359375,19.155701640625,19.191746318359375,19.114761640624998Q19.130476318359374,19.073821640625,19.073516318359374,19.027071640625Q19.016556318359374,18.980321640625,18.964446318359375,18.928221640625Q18.912336318359376,18.876111640625,18.865586318359377,18.819151640625Q18.818846318359377,18.762181640625002,18.777896318359375,18.700911640625Q18.736966318359375,18.639641640625,18.702226318359376,18.574651640625Q18.667486318359373,18.509661640625,18.639286318359375,18.441581640625Q18.611086318359376,18.373501640625,18.589696318359376,18.302981640625Q18.568306318359376,18.232471640625,18.553926318359373,18.160191640625Q18.539546318359374,18.087921640624998,18.532326318359374,18.014581640625Q18.525106318359377,17.941251640625,18.525106318359377,17.867561640625Q18.525106318359377,17.642551640625,18.591126318359375,17.427441640625Q18.657146318359374,17.212341640625,18.783376318359373,17.026071640625Z" fill-rule="evenodd" fill="#FFFFFF" fill-opacity="1"/></g><g><path d="M14.455713718359375,17.957051640625L14.455582518359375,17.957541640625Q14.438572418359374,18.021071640625,14.438572418359374,18.086851640625Q14.438572418359374,18.136091640625,14.448179718359375,18.184391640625Q14.457787118359375,18.232691640625,14.476632618359375,18.278191640625Q14.495478148359375,18.323691640625,14.522837618359375,18.364631640625Q14.550197018359375,18.405581640625,14.585019018359375,18.440401640625Q14.619841318359375,18.475221640625,14.660787318359375,18.502581640625Q14.701733318359375,18.529941640625,14.747230318359374,18.548791640625Q14.792727318359375,18.567631640625,14.841027318359375,18.577241640625Q14.889326318359375,18.586851640625,14.938572318359375,18.586851640625Q15.021136318359375,18.586851640625,15.099317318359375,18.560301640625Q15.177497318359375,18.533761640625,15.242994318359376,18.483491640625Q15.308491318359374,18.433221640625,15.354350318359375,18.364571640625Q15.400210318359376,18.295911640625,15.421562318359374,18.216161640625Q15.869456318359376,16.543201640625,17.542276318359374,16.094789640625Q19.215096318359375,15.646377640625,20.439706318359374,16.871001640625L20.935946318359374,17.367561640625L20.025106318359377,17.367561640625Q19.975856318359376,17.367561640625,19.927556318359375,17.377161640625Q19.879256318359374,17.386771640625,19.833766318359373,17.405621640625Q19.788266318359376,17.424461640625,19.747316318359374,17.451821640625Q19.706376318359375,17.479181640625,19.671556318359375,17.514001640625Q19.636726318359376,17.548821640625,19.609366318359374,17.589771640625Q19.582006318359376,17.630721640625,19.563166318359375,17.676211640625Q19.544316318359375,17.721711640625,19.534716318359376,17.770011640625Q19.525106318359377,17.818311640625,19.525106318359377,17.867561640625Q19.525106318359377,17.916801640625,19.534716318359376,17.965101640625Q19.544316318359375,18.013401640625,19.563166318359375,18.058901640625Q19.582006318359376,18.104391640625,19.609366318359374,18.145341640625Q19.636726318359376,18.186291640625,19.671556318359375,18.221111640625Q19.706376318359375,18.255931640625,19.747316318359374,18.283291640625Q19.788266318359376,18.310651640625,19.833766318359373,18.329501640625Q19.879256318359374,18.348341640625,19.927556318359375,18.357951640625Q19.975856318359376,18.367561640625,20.025106318359377,18.367561640625L22.142516318359377,18.367561640625Q22.191766318359374,18.367561640625,22.240066318359375,18.357951640625Q22.288356318359376,18.348341640625,22.333856318359373,18.329501640625Q22.379356318359374,18.310651640625,22.420306318359376,18.283291640625Q22.461246318359375,18.255931640625,22.496066318359375,18.221111640625Q22.530896318359375,18.186291640625,22.558246318359373,18.145341640625Q22.585606318359375,18.104391640625,22.604456318359375,18.058901640625Q22.623306318359376,18.013401640625,22.632906318359375,17.965101640625Q22.642516318359377,17.916801640625,22.642516318359377,17.867561640625L22.642516318359377,17.867131640625L22.642516318359377,15.750147640625Q22.642516318359377,15.700901640625,22.632906318359375,15.652602640625Q22.623296318359372,15.604303640625,22.604456318359375,15.558806140625Q22.585606318359375,15.513309140625,22.558246318359373,15.472362840625Q22.530886318359375,15.431416640625,22.496066318359375,15.396594740625Q22.461246318359375,15.361772640625,22.420296318359377,15.334413640625Q22.379356318359374,15.307053640625,22.333856318359373,15.288208640625Q22.288356318359376,15.269362640625,22.240056318359375,15.259755640625Q22.191756318359374,15.250148640625,22.142516318359377,15.250148640625Q22.093266318359376,15.250148640625,22.044966318359375,15.259755640625Q21.996666318359374,15.269362640625,21.951176318359373,15.288208640625Q21.905676318359376,15.307053640625,21.864726318359374,15.334413640625Q21.823786318359375,15.361772640625,21.788956318359375,15.396594840625Q21.754136318359375,15.431416840625,21.726776318359377,15.472363140625Q21.699416318359376,15.513309440625,21.680576318359375,15.558806540625Q21.661726318359374,15.604303640625,21.652116318359376,15.652602640625Q21.642516318359377,15.700902640625,21.642516318359377,15.750148640625L21.642516318359377,15.750839640625L21.642516318359377,16.659911640625L21.146816318359374,16.163903640625Q19.513906318359375,14.530973640625,17.283356318359374,15.128889640625Q15.053052318359375,15.726739640625,14.455713718359375,17.957051640625ZM22.181406318359375,20.027321640625Q22.198416318359374,19.963791640625,22.198416318359374,19.898011640625Q22.198416318359374,19.848771640625,22.188816318359375,19.800471640625Q22.179206318359377,19.752171640625,22.160356318359376,19.706671640625Q22.141516318359376,19.661171640625,22.114156318359374,19.620231640625Q22.086796318359376,19.579281640625,22.051976318359376,19.544461640625002Q22.017146318359373,19.509641640625,21.976206318359374,19.482281640625Q21.935256318359375,19.454921640625,21.889756318359375,19.436071640625Q21.844266318359374,19.417231640625,21.795966318359376,19.407621640625Q21.747666318359375,19.398011640625,21.698416318359374,19.398011640625Q21.615856318359377,19.398011640625,21.537676318359374,19.424561640625Q21.459496318359374,19.451101640625,21.393996318359374,19.501371640625Q21.328506318359373,19.551641640625,21.282646318359376,19.620291640625Q21.236786318359375,19.688951640625,21.215426318359377,19.768701640625Q20.767536318359376,21.441661640625,19.094716318359374,21.890071640625Q17.421896318359376,22.338481640624998,16.197286318359374,21.113861640625L15.701046318359374,20.617301640625L16.612306318359376,20.617301640625Q16.661556318359374,20.617301640625,16.709856318359375,20.607701640625Q16.758156318359376,20.598091640625,16.803656318359376,20.579241640625Q16.849146318359374,20.560401640625,16.890096318359376,20.533041640625Q16.931036318359375,20.505681640625,16.965866318359375,20.470861640625Q17.000686318359374,20.436031640625,17.028046318359376,20.395091640625Q17.055406318359374,20.354141640625002,17.074246318359375,20.308641640624998Q17.093096318359375,20.263151640625,17.102706318359374,20.214851640625Q17.112306318359376,20.166551640625002,17.112306318359376,20.117301640625Q17.112306318359376,20.068061640625,17.102706318359374,20.019761640625Q17.093096318359375,19.971461640625,17.074246318359375,19.925961640625Q17.055406318359374,19.880461640625,17.028046318359376,19.839521640625Q17.000686318359374,19.798571640625,16.965866318359375,19.763751640625Q16.931036318359375,19.728931640625,16.890096318359376,19.701571640624998Q16.849146318359374,19.674211640625,16.803656318359376,19.655361640625Q16.758156318359376,19.636521640625,16.709856318359375,19.626911640625Q16.661556318359374,19.617301640625,16.612306318359376,19.617301640625L14.494476318359375,19.617301640625Q14.445230618359375,19.617301640625,14.396931218359375,19.626911640625Q14.348631318359375,19.636521640625,14.303134318359374,19.655361640625Q14.257637318359375,19.674211640625,14.216691318359375,19.701571640624998Q14.175745318359375,19.728931640625,14.140923318359375,19.763751640625Q14.106101318359375,19.798571640625,14.078741318359375,19.839521640625Q14.051382318359375,19.880461640625,14.032536318359375,19.925961640625Q14.013691318359374,19.971461640625,14.004083318359376,20.019761640625Q13.994476318359375,20.068061640625,13.994476318359375,20.117301640625Q13.994476318359375,20.127601640625,13.994900318359376,20.137891640625L13.994900318359376,22.234711640625Q13.994900318359376,22.283961640625,14.004507318359375,22.332261640625Q14.014115318359375,22.380561640625,14.032960318359375,22.426051640625Q14.051806318359375,22.471551640625,14.079165318359376,22.512501640625Q14.106525318359376,22.553441640625,14.141347318359376,22.588271640625Q14.176169318359374,22.623091640625,14.217115318359374,22.650451640625Q14.258061318359376,22.677811640625002,14.303558318359375,22.696651640625Q14.349055318359374,22.715501640625,14.397355218359374,22.725101640625Q14.445654618359375,22.734711640625,14.494900345359374,22.734711640625Q14.544146018359376,22.734711640625,14.592445518359375,22.725101640625Q14.640745318359375,22.715501640625,14.686242318359374,22.696651640625Q14.731739318359375,22.677811640625002,14.772685318359375,22.650451640625Q14.813631318359375,22.623091640625,14.848453318359375,22.588271640625Q14.883275318359376,22.553441640625,14.910635318359375,22.512501640625Q14.937994318359374,22.471551640625,14.956840318359376,22.426051640625Q14.975685318359375,22.380561640625,14.985293318359375,22.332261640625Q14.994900318359376,22.283961640625,14.994900318359376,22.234711640625L14.994900318359376,21.325371640625L15.490175318359375,21.820961640625Q17.123086318359377,23.453891640625,19.353636318359374,22.855971640625Q21.584186318359375,22.258061640625,22.181406318359375,20.027321640625Z" fill-rule="evenodd" fill="#8D4EDA" fill-opacity="1"/></g></g></svg>