<svg xmlns="http://www.w3.org/2000/svg" xmlns:xlink="http://www.w3.org/1999/xlink" fill="none" version="1.1" width="24" height="24" viewBox="0 0 24 24"><defs><clipPath id="master_svg0_732_53061"><rect x="0" y="0" width="24" height="24" rx="0"/></clipPath></defs><g clip-path="url(#master_svg0_732_53061)"><g><rect x="2" y="3" width="20" height="15" rx="2" fill="#165DFF" fill-opacity="1"/><path d="M1,16L1,5Q1,2,4,2L20,2Q23,2,23,5L23,16Q23,19,20,19L4,19Q1,19,1,16ZM3,16Q3,17,4,17L20,17Q21,17,21,16L21,5Q21,4,20,4L4,4Q3,4,3,5L3,16Z" fill="#165DFF" fill-opacity="1"/></g><g><path d="M5,20.5L19,20.5Q19.0985,20.5,19.1951,20.519215Q19.2917,20.538429999999998,19.3827,20.576121Q19.4737,20.613812,19.5556,20.66853Q19.6375,20.723249,19.7071,20.792893Q19.776699999999998,20.862537,19.8315,20.94443Q19.886200000000002,21.026322,19.9239,21.117317Q19.9616,21.208311,19.980800000000002,21.30491Q20,21.4015086,20,21.5Q20,21.5984914,19.980800000000002,21.69509Q19.9616,21.791689,19.9239,21.882683Q19.886200000000002,21.973678,19.8315,22.05557Q19.776699999999998,22.137463,19.7071,22.207107Q19.6375,22.276751,19.5556,22.33147Q19.4737,22.386188,19.3827,22.423879Q19.2917,22.461570000000002,19.1951,22.480785Q19.0985,22.5,19,22.5L5,22.5Q4.9015086,22.5,4.80491,22.480785Q4.708311,22.461570000000002,4.617317,22.423879Q4.526322,22.386188,4.44443,22.33147Q4.362537,22.276751,4.292893,22.207107Q4.223249,22.137463,4.16853,22.05557Q4.113812,21.973678,4.076121,21.882683Q4.03843,21.791689,4.019215,21.69509Q4,21.5984914,4,21.5Q4,21.4015086,4.019215,21.30491Q4.03843,21.208311,4.076121,21.117317Q4.113812,21.026322,4.16853,20.94443Q4.223249,20.862537,4.292893,20.792893Q4.362537,20.723249,4.44443,20.66853Q4.526322,20.613812,4.617317,20.576121Q4.708311,20.538429999999998,4.80491,20.519215Q4.9015086,20.5,5,20.5Z" fill-rule="evenodd" fill="#7BC0FC" fill-opacity="1"/></g><g style="opacity:0.800000011920929;"><path d="M11.250019482421875,7.5Q11.250019482421875,7.4261315,11.264429482421875,7.353682Q11.278839482421875,7.281233,11.307109482421875,7.212987Q11.335369482421875,7.144742,11.376409482421876,7.083322Q11.417449482421874,7.021903,11.469689482421876,6.96967Q11.521919482421875,6.917437,11.583339482421875,6.876398Q11.644759482421875,6.835359,11.712999482421875,6.80709Q11.781249482421876,6.778822,11.853699482421876,6.764411Q11.926149482421875,6.75,12.000019482421875,6.75Q12.073879482421875,6.75,12.146329482421875,6.764411Q12.218779482421875,6.778822,12.287029482421875,6.80709Q12.355269482421875,6.835359,12.416689482421875,6.876398Q12.478109482421875,6.917437,12.530349482421876,6.96967Q12.582579482421874,7.021903,12.623619482421875,7.083322Q12.664659482421875,7.144742,12.692929482421874,7.212987Q12.721189482421876,7.281233,12.735599482421875,7.353682Q12.750019482421875,7.4261315,12.750019482421875,7.5L12.750019482421875,9.75L14.000019482421875,9.75Q14.724889482421876,9.75,15.237449482421875,10.26256Q15.750019482421875,10.77513,15.750019482421875,11.5L15.750019482421875,13.5Q15.750019482421875,13.57387,15.735599482421875,13.64632Q15.721189482421874,13.71877,15.692919482421875,13.78701Q15.664659482421875,13.855260000000001,15.623619482421875,13.91668Q15.582579482421874,13.978100000000001,15.530349482421876,14.03033Q15.478109482421875,14.08256,15.416689482421875,14.1236Q15.355269482421875,14.16464,15.287029482421875,14.192910000000001Q15.218779482421876,14.22118,15.146329482421875,14.23559Q15.073879482421875,14.25,15.000019482421875,14.25Q14.926149482421874,14.25,14.853699482421874,14.23559Q14.781249482421874,14.22118,14.712999482421875,14.192910000000001Q14.644759482421875,14.16464,14.583339482421875,14.1236Q14.521919482421875,14.08256,14.469689482421874,14.03033Q14.417449482421876,13.978100000000001,14.376409482421874,13.91668Q14.335369482421875,13.855260000000001,14.307109482421875,13.78701Q14.278839482421876,13.71877,14.264429482421875,13.64632Q14.250019482421875,13.57387,14.250019482421875,13.5L14.250019482421875,11.5Q14.250019482421875,11.25,14.000019482421875,11.25L9.999969482421875,11.25Q9.749969482421875,11.25,9.749969482421875,11.5L9.749969482421875,13.5Q9.749969482421875,13.57387,9.735558482421876,13.64632Q9.721147482421875,13.71877,9.692879482421874,13.78701Q9.664610482421875,13.855260000000001,9.623571482421875,13.91668Q9.582532482421875,13.978100000000001,9.530299482421874,14.03033Q9.478066482421875,14.08256,9.416647482421874,14.1236Q9.355227482421874,14.16464,9.286982482421875,14.192910000000001Q9.218736482421875,14.22118,9.146287482421876,14.23559Q9.073837982421875,14.25,8.999969482421875,14.25Q8.926100982421875,14.25,8.853651482421874,14.23559Q8.781202482421875,14.22118,8.712956482421875,14.192910000000001Q8.644711482421876,14.16464,8.583291482421876,14.1236Q8.521872482421875,14.08256,8.469639482421876,14.03033Q8.417406482421875,13.978100000000001,8.376367482421875,13.91668Q8.335328482421875,13.855260000000001,8.307059482421876,13.78701Q8.278791482421875,13.71877,8.264380482421874,13.64632Q8.249969482421875,13.57387,8.249969482421875,13.5L8.249969482421875,11.5Q8.249969482421875,10.77513,8.762532482421875,10.26256Q9.275095482421875,9.75,9.999969482421875,9.75L11.250019482421875,9.75L11.250019482421875,7.5Z" fill-rule="evenodd" fill="#FFFFFF" fill-opacity="1"/></g><g><rect x="13.000030517578125" y="12.5" width="4" height="4" rx="1" fill="#FFFFFF" fill-opacity="1"/></g><g><rect x="6.999969482421875" y="12.5" width="4" height="4" rx="1" fill="#FFFFFF" fill-opacity="1"/></g><g><rect x="10.000030517578125" y="4.5" width="4" height="4" rx="1" fill="#FFFFFF" fill-opacity="1"/></g></g></svg>