<svg xmlns="http://www.w3.org/2000/svg" xmlns:xlink="http://www.w3.org/1999/xlink" fill="none" version="1.1" width="24"
  height="24" viewBox="0 0 24 24">
  <defs>
    <clipPath id="master_svg0_732_59797">
      <rect x="0" y="0" width="24" height="24" rx="0" />
    </clipPath>
  </defs>
  <g clip-path="url(#master_svg0_732_59797)">
    <g>
      <path
        d="M2 5C2 3.34314575050762 3.34314575050762 2 5 2L19 2C20.65685424949238 2 22 3.34314575050762 22 5L22 8C22 8 22 8 22 8L2 8C2 8 2 8 2 8Z"
        fill="#F9CC45" fill-opacity="1" />
    </g>
    <g>
      <path
        d="M2 8C2 8 2 8 2 8L22 8C22 8 22 8 22 8L22 19C22 20.65685424949238 20.65685424949238 22 19 22L5 22C3.34314575050762 22 2 20.65685424949238 2 19Z"
        fill="#FF7D00" fill-opacity="1" />
    </g>
    <g style="opacity:0.5;">
      <path d="M8.5,8L8.50000550225,12.66667L15.5,12.66667L15.5,8L8.5,8Z" fill="#FFCF8B" fill-opacity="1" />
    </g>
    <g style="opacity:0.6000000238418579;">
      <path d="M15.5,8L15.50000510924,12.66667L22,12.66667L22,8L15.5,8Z" fill="#FFCF8B" fill-opacity="1" />
    </g>
    <g style="opacity:0.30000001192092896;">
      <path d="M2,8L2.00000510924,12.66667L8.5,12.66667L8.5,8L2,8Z" fill="#FFCF8B" fill-opacity="1" />
    </g>
    <g style="opacity:0.30000001192092896;">
      <path
        d="M8.5,17.333251953125L8.50000550225,21.999921953125L15.5,21.999921953125L15.5,17.333251953125L8.5,17.333251953125Z"
        fill="#FFCF8B" fill-opacity="1" />
    </g>
    <g style="opacity:0.4000000059604645;">
      <path
        d="M15.5,17.333251953125L15.50000510924,21.999921953125L17.33333,21.999921953125C18.88784,21.999921953125,19.68532,21.996521953125,20.28603,21.711071953125C20.90965,21.414731953125,21.41481,20.909561953125,21.71115,20.285951953125C21.9966,19.685231953125,22,18.887751953125,22,17.333251953125L15.5,17.333251953125Z"
        fill="#FFCF8B" fill-opacity="1" />
    </g>
    <g style="opacity:0.10000000149011612;">
      <path
        d="M2,17.333251953125C2,18.887761953125,2.00339755,19.685241953125,2.288853,20.285951953125C2.585191,20.909571953125,3.09035,21.414731953125,3.7139699999999998,21.711071953125C4.31468,21.996521953125,5.11217,21.999921953125,6.66667,21.999921953125L8.5,21.999921953125L8.5,17.333251953125L2,17.333251953125Z"
        fill="#FFCF8B" fill-opacity="1" />
    </g>
    <g style="opacity:0.4000000059604645;">
      <path
        d="M8.5,12.666748046875L8.50000550225,17.333418046875L15.5,17.333418046875L15.5,12.666748046875L8.5,12.666748046875Z"
        fill="#FFCF8B" fill-opacity="1" />
    </g>
    <g style="opacity:0.5;">
      <path
        d="M15.5,12.666748046875L15.50000510924,17.333418046875L22,17.333418046875L22,12.666748046875L15.5,12.666748046875Z"
        fill="#FFCF8B" fill-opacity="1" />
    </g>
    <g style="opacity:0.20000000298023224;">
      <path
        d="M2,12.666748046875L2.00000510924,17.333418046875L8.5,17.333418046875L8.5,12.666748046875L2,12.666748046875Z"
        fill="#FFCF8B" fill-opacity="1" />
    </g>
    <g>
      <g>
        <path
          d="M21.1678966796875,16.999755859375L21.1678966796875,17.505399859375Q21.9584566796875,17.559519859375,22.533316679687502,18.134375859374998Q23.1679166796875,18.768985859375,23.1679166796875,19.666445859375L23.1679166796875,20.999795859375Q23.1679166796875,21.073485859375,23.1606966796875,21.146825859375Q23.1534666796875,21.220155859374998,23.1390966796875,21.292425859375Q23.124716679687502,21.364705859375,23.1033266796875,21.435225859375Q23.0819366796875,21.505735859375,23.0537366796875,21.573815859375Q23.025536679687498,21.641905859375,22.9907966796875,21.706885859375Q22.9560566796875,21.771875859375,22.9151166796875,21.833145859375Q22.8741766796875,21.894425859374998,22.8274366796875,21.951385859375Q22.7806866796875,22.008345859374998,22.7285766796875,22.060455859375Q22.6764666796875,22.112565859375,22.6195066796875,22.159315859375Q22.5625466796875,22.206055859375,22.5012766796875,22.246995859374998Q22.4399966796875,22.287935859375,22.375016679687498,22.322675859375Q22.3100266796875,22.357415859375,22.2419466796875,22.385615859375Q22.1738566796875,22.413815859375,22.1033466796875,22.435205859375Q22.0328266796875,22.456595859375,21.9605566796875,22.470975859375Q21.8882766796875,22.485345859375002,21.814946679687502,22.492575859375002Q21.7416066796875,22.499795859375,21.6679166796875,22.499795859375Q21.5942266796875,22.499795859375,21.5208866796875,22.492575859375002Q21.4475566796875,22.485345859375002,21.3752766796875,22.470975859375Q21.3030066796875,22.456595859375,21.2324866796875,22.435205859375Q21.1619766796875,22.413815859375,21.0938966796875,22.385615859375Q21.0258066796875,22.357415859375,20.9608266796875,22.322675859375Q20.8958366796875,22.287935859375,20.834556679687502,22.246995859374998Q20.7732866796875,22.206055859375,20.7163266796875,22.159305859375Q20.6593666796875,22.112565859375,20.6072566796875,22.060455859375Q20.5551466796875,22.008345859374998,20.5083966796875,21.951385859375Q20.4616566796875,21.894425859374998,20.4207166796875,21.833145859375Q20.3797766796875,21.771875859375,20.3450366796875,21.706885859375Q20.3102966796875,21.641905859375,20.2820966796875,21.573815859375Q20.2538966796875,21.505735859375,20.2325066796875,21.435225859375Q20.2111166796875,21.364705859375,20.1967366796875,21.292425859375Q20.1823666796875,21.220155859374998,20.1751366796875,21.146825859375Q20.1679166796875,21.073485859375,20.1679166796875,20.999795859375L20.1679166796875,20.499775859375L19.1678466796875,20.499775859375L19.1678466796875,20.999795859375Q19.1678466796875,21.073485859375,19.1606266796875,21.146825859375Q19.1533966796875,21.220155859374998,19.1390266796875,21.292425859375Q19.1246466796875,21.364705859375,19.1032566796875,21.435225859375Q19.0818666796875,21.505735859375,19.0536666796875,21.573815859375Q19.0254666796875,21.641905859375,18.9907266796875,21.706885859375Q18.9559866796875,21.771875859375,18.9150466796875,21.833145859375Q18.8741066796875,21.894425859374998,18.8273666796875,21.951385859375Q18.7806166796875,22.008345859374998,18.7285066796875,22.060455859375Q18.6763966796875,22.112565859375,18.6194366796875,22.159315859375Q18.5624736796875,22.206055859375,18.5012016796875,22.246995859374998Q18.4399306796875,22.287935859375,18.3749416796875,22.322675859375Q18.3099526796875,22.357415859375,18.2418716796875,22.385615859375Q18.1737906796875,22.413815859375,18.1032736796875,22.435205859375Q18.0327566796875,22.456595859375,17.9604816796875,22.470975859375Q17.8882076796875,22.485345859375002,17.8148726796875,22.492575859375002Q17.7415369796875,22.499795859375,17.6678466796875,22.499795859375Q17.5941563796875,22.499795859375,17.5208206796875,22.492575859375002Q17.4474856796875,22.485345859375002,17.3752116796875,22.470975859375Q17.3029366796875,22.456595859375,17.2324196796875,22.435205859375Q17.1619026796875,22.413815859375,17.0938216796875,22.385615859375Q17.0257406796875,22.357415859375,16.9607516796875,22.322675859375Q16.8957626796875,22.287935859375,16.8344916796875,22.246995859374998Q16.7732196796875,22.206055859375,16.7162566796875,22.159305859375Q16.6592966796875,22.112565859375,16.6071866796875,22.060455859375Q16.5550766796875,22.008345859374998,16.5083266796875,21.951385859375Q16.4615866796875,21.894425859374998,16.4206466796875,21.833145859375Q16.3797066796875,21.771875859375,16.3449666796875,21.706885859375Q16.3102266796875,21.641905859375,16.2820266796875,21.573815859375Q16.2538266796875,21.505735859375,16.2324366796875,21.435225859375Q16.2110466796875,21.364705859375,16.1966666796875,21.292425859375Q16.1822966796875,21.220155859374998,16.1750666796875,21.146825859375Q16.1678466796875,21.073485859375,16.1678466796875,20.999795859375L16.1678466796875,19.666445859375Q16.1678466796875,18.768985859375,16.8024506796875,18.134375859374998Q17.3773206796875,17.559508859375,18.1678966796875,17.505397859375L18.1678966796875,16.999755859375Q18.1678966796875,16.926065559375,18.1751196796875,16.852729859375Q18.1823426796875,16.779394859375,18.1967186796875,16.707120859375Q18.2110956796875,16.634845859375,18.2324866796875,16.564328859375Q18.2538776796875,16.493811859375,18.2820776796875,16.425730859375Q18.3102776796875,16.357649859375,18.3450156796875,16.292660859375Q18.3797526796875,16.227671859375,18.4206926796875,16.166400859375Q18.4616326796875,16.105128859375,18.5083816796875,16.048165859375Q18.5551296796875,15.991205859375,18.6072366796875,15.939095859375Q18.6593436796875,15.886985859375,18.7163066796875,15.840235859375Q18.7732666796875,15.793495859375,18.8345366796875,15.752555859375Q18.8958166796875,15.711615859375,18.9608066796875,15.676875859375Q19.0257866796875,15.642135859375,19.0938766796875,15.613935859375Q19.1619566796875,15.585735859375,19.2324666796875,15.564345859374999Q19.3029866796875,15.542955859375,19.3752566796875,15.528575859375Q19.4475366796875,15.514205859375,19.5208666796875,15.506975859375Q19.5942066796875,15.499755859375,19.6678966796875,15.499755859375Q19.7415866796875,15.499755859375,19.8149266796875,15.506975859375Q19.8882566796875,15.514205859375,19.9605366796875,15.528575859375Q20.0328066796875,15.542955859375,20.1033266796875,15.564345859374999Q20.1738366796875,15.585735859375,20.2419266796875,15.613935859375Q20.3100066796875,15.642135859375,20.3749966796875,15.676875859375Q20.4399766796875,15.711615859375,20.5012566796875,15.752555859375Q20.5625266796875,15.793495859375,20.6194866796875,15.840235859375Q20.6764466796875,15.886985859375,20.7285566796875,15.939095859375Q20.7806666796875,15.991205859375,20.8274166796875,16.048165859375Q20.874156679687502,16.105128859375,20.9150966796875,16.166400859375Q20.9560466796875,16.227671859375,20.9907766796875,16.292660859375Q21.0255166796875,16.357649859375,21.0537166796875,16.425730859375Q21.0819166796875,16.493811859375,21.1033066796875,16.564328859375Q21.1246966796875,16.634845859375,21.1390766796875,16.707120859375Q21.153446679687498,16.779394859375,21.1606766796875,16.852729859375Q21.1678966796875,16.926065559375,21.1678966796875,16.999755859375Z"
          fill-rule="evenodd" fill="#FFFFFF" fill-opacity="1" />
      </g>
      <g>
        <rect x="20.334564208984375" y="20.333251953125" width="2.6666932106018066" height="2.6666932106018066"
          rx="0.6666733026504517" fill-opacity="0" stroke-opacity="1" stroke="#FFFFFF" fill="none" stroke-width="2.5" />
      </g>
      <g>
        <rect x="16.334503173828125" y="20.333251953125" width="2.6666932106018066" height="2.6666932106018066"
          rx="0.6666733026504517" fill-opacity="0" stroke-opacity="1" stroke="#FFFFFF" fill="none" stroke-width="2.5" />
      </g>
      <g>
        <rect x="18.334564208984375" y="15" width="2.6666932106018066" height="2.6666932106018066"
          rx="0.6666733026504517" fill-opacity="0" stroke-opacity="1" stroke="#FFFFFF" fill="none" stroke-width="2.5" />
      </g>
    </g>
    <g>
      <g>
        <path
          d="M19.2678966796875,16.999755859375Q19.2678966796875,16.960359259375,19.2755866796875,16.921719759375Q19.2832666796875,16.883079859375,19.2983466796875,16.846682859375Q19.3134266796875,16.810284859375,19.3353066796875,16.777527859375Q19.3571966796875,16.744770859375,19.3850566796875,16.716912859375Q19.4129166796875,16.689055859375,19.4456666796875,16.667167859375Q19.4784266796875,16.645280859375,19.5148266796875,16.630203859375Q19.5512166796875,16.615127859375,19.5898566796875,16.607441859375Q19.6284966796875,16.599755859375,19.6678966796875,16.599755859375Q19.7072966796875,16.599755859375,19.7459366796875,16.607441859375Q19.7845766796875,16.615127859375,19.8209666796875,16.630203859375Q19.8573666796875,16.645280859375,19.8901266796875,16.667167859375Q19.9228866796875,16.689055859375,19.950736679687502,16.716912859375Q19.9785966796875,16.744770859375,20.0004866796875,16.777527859375Q20.0223766796875,16.810284859375,20.0374466796875,16.846682859375Q20.0525266796875,16.883079859375,20.0602066796875,16.921719759375Q20.0678966796875,16.960359259375,20.0678966796875,16.999755859375L20.0678966796875,18.599775859375L21.0012466796875,18.599775859375Q21.4430766796875,18.599775859375,21.7554966796875,18.912195859375Q22.0679166796875,19.224615859375,22.0679166796875,19.666445859375L22.0679166796875,20.999795859375Q22.0679166796875,21.039195859375,22.0602266796875,21.077835859375Q22.0525466796875,21.116475859375,22.0374666796875,21.152865859374998Q22.0223966796875,21.189265859375,22.0005066796875,21.222025859375Q21.978616679687498,21.254775859375002,21.9507566796875,21.282635859375Q21.9229066796875,21.310495859375,21.8901466796875,21.332385859375Q21.8573866796875,21.354265859375,21.8209866796875,21.369345859375Q21.7845966796875,21.384425859375,21.7459566796875,21.392105859375Q21.7073166796875,21.399795859375,21.6679166796875,21.399795859375Q21.6285166796875,21.399795859375,21.5898766796875,21.392105859375Q21.5512366796875,21.384425859375,21.5148466796875,21.369345859375Q21.4784466796875,21.354265859375,21.4456866796875,21.332385859375Q21.4129366796875,21.310495859375,21.3850766796875,21.282635859375Q21.3572166796875,21.254775859375002,21.3353266796875,21.222025859375Q21.3134366796875,21.189265859375,21.2983666796875,21.152865859374998Q21.2832866796875,21.116475859375,21.2756066796875,21.077835859375Q21.2679166796875,21.039195859375,21.2679166796875,20.999795859375L21.2679166796875,19.666445859375Q21.2679166796875,19.555985859375,21.1898066796875,19.477885859375Q21.1117066796875,19.399775859375,21.0012466796875,19.399775859375L18.3345196796875,19.399775859375Q18.0678466796875,19.399775859375,18.0678466796875,19.666445859375L18.0678466796875,20.999795859375Q18.0678466796875,21.039195859375,18.0601606796875,21.077835859375Q18.0524746796875,21.116475859375,18.0373986796875,21.152865859374998Q18.0223216796875,21.189265859375,18.0004346796875,21.222025859375Q17.9785466796875,21.254775859375002,17.9506896796875,21.282635859375Q17.9228316796875,21.310495859375,17.8900746796875,21.332385859375Q17.8573176796875,21.354265859375,17.8209196796875,21.369345859375Q17.7845226796875,21.384425859375,17.7458827796875,21.392105859375Q17.7072432796875,21.399795859375,17.6678466796875,21.399795859375Q17.6284500796875,21.399795859375,17.5898105796875,21.392105859375Q17.5511706796875,21.384425859375,17.5147736796875,21.369345859375Q17.4783756796875,21.354265859375,17.4456186796875,21.332385859375Q17.4128616796875,21.310495859375,17.3850036796875,21.282635859375Q17.3571466796875,21.254775859375002,17.3352586796875,21.222025859375Q17.3133716796875,21.189265859375,17.2982946796875,21.152865859374998Q17.2832186796875,21.116475859375,17.2755326796875,21.077835859375Q17.2678466796875,21.039195859375,17.2678466796875,20.999795859375L17.2678466796875,19.666445859375Q17.2678466796875,19.224615859375,17.5802679796875,18.912195859375Q17.8926896796875,18.599775859375,18.3345196796875,18.599775859375L19.2678966796875,18.599775859375L19.2678966796875,16.999755859375Z"
          fill-rule="evenodd" fill="#F9CC45" fill-opacity="1" />
      </g>
      <g>
        <rect x="20.334564208984375" y="20.333251953125" width="2.6666932106018066" height="2.6666932106018066"
          rx="0.6666733026504517" fill="#FF7D00" fill-opacity="1" />
      </g>
      <g>
        <rect x="16.334503173828125" y="20.333251953125" width="2.6666932106018066" height="2.6666932106018066"
          rx="0.6666733026504517" fill="#FF7D00" fill-opacity="1" />
      </g>
      <g>
        <rect x="18.334564208984375" y="15" width="2.6666932106018066" height="2.6666932106018066"
          rx="0.6666733026504517" fill="#FF7D00" fill-opacity="1" />
      </g>
    </g>
  </g>
  <style>
      .month {
          font-size: 4px;
          font-weight: 600;
          fill: #792E00;
          text-anchor: middle;
      }
      .day {
          font-size: 12px;
          font-weight: 600;
          fill: #fff;
          text-anchor: middle;
          dominant-baseline: middle;
      }
  </style>
  <text x="50%" y="6.75" class="month">MMM</text>
  <text x="50%" y="15.5" class="day">DD</text>
</svg>