<svg xmlns="http://www.w3.org/2000/svg" xmlns:xlink="http://www.w3.org/1999/xlink" fill="none" version="1.1" width="24" height="24" viewBox="0 0 24 24"><defs><clipPath id="master_svg0_732_41818"><rect x="0" y="0" width="24" height="24" rx="0"/></clipPath></defs><g clip-path="url(#master_svg0_732_41818)"><g><path d="M4.2499847412109375,4L4.249992921950938,20C4.249993423960937,21.1046,5.145423741210937,22,6.249994741210937,22L18.249984741210938,22C19.354584741210935,22,20.249984741210938,21.1046,20.249984741210938,20L20.249984741210938,4C20.249984741210938,2.89543,19.354584741210935,2,18.249984741210938,2L6.2499847412109375,2C5.145415741210938,2,4.2499847412109375,2.895431,4.2499847412109375,4Z" fill="#165DFF" fill-opacity="1"/><path d="M6.249994741210937,22.75L18.249984741210938,22.75Q20.999984741210938,22.75,20.999984741210938,20L20.999984741210938,4Q20.999984741210938,1.25,18.249984741210938,1.25L6.2499847412109375,1.25Q5.1108977412109375,1.25,4.3054415412109375,2.0554567Q3.4999847412109375,2.860913,3.4999857412109376,4L3.4999927412109377,20Q3.4999947412109376,22.75,6.249994741210937,22.75ZM19.499984741210938,20Q19.499984741210938,21.25,18.249984741210938,21.25L6.249994741210937,21.25Q5.7322247412109375,21.25,5.366114741210938,20.8839Q4.999993741210938,20.5178,4.999992741210938,20L4.999985741210938,4Q4.999985741210938,3.48223,5.366104741210938,3.11612Q5.732214741210937,2.75,6.2499847412109375,2.75L18.249984741210938,2.75Q19.499984741210938,2.75,19.499984741210938,4L19.499984741210938,20Z" fill-rule="evenodd" fill="#165DFF" fill-opacity="1"/></g><g><path d="M8.249984741210938,7.25L16.249984741210938,7.25Q16.323854741210937,7.25,16.396304741210937,7.264411Q16.468754741210937,7.278822,16.53699474121094,7.30709Q16.60524474121094,7.335359,16.666664741210937,7.376398Q16.728084741210935,7.417437,16.780314741210937,7.46967Q16.83254474121094,7.521903,16.873584741210937,7.583322Q16.914624741210936,7.644742,16.942894741210935,7.712987Q16.971164741210938,7.781233,16.98557474121094,7.853682Q16.999984741210938,7.9261315,16.999984741210938,8Q16.999984741210938,8.0738685,16.98557474121094,8.146318Q16.971164741210938,8.218767,16.942894741210935,8.287013Q16.914624741210936,8.355258,16.873584741210937,8.416678Q16.83254474121094,8.478097,16.780314741210937,8.53033Q16.728084741210935,8.582563,16.666664741210937,8.623602Q16.60524474121094,8.664641,16.53699474121094,8.69291Q16.468754741210937,8.721178,16.396304741210937,8.735589000000001Q16.323854741210937,8.75,16.249984741210938,8.75L8.249984741210938,8.75Q8.176116241210938,8.75,8.103666741210937,8.735589000000001Q8.031217741210938,8.721178,7.9629717412109375,8.69291Q7.894726741210937,8.664641,7.833306741210937,8.623602Q7.7718877412109375,8.582563,7.719654741210937,8.53033Q7.667421741210937,8.478097,7.6263827412109375,8.416678Q7.585343741210938,8.355258,7.557074741210937,8.287013Q7.528806741210937,8.218767,7.5143957412109375,8.146318Q7.4999847412109375,8.0738685,7.4999847412109375,8Q7.4999847412109375,7.9261315,7.5143957412109375,7.853682Q7.528806741210937,7.781233,7.557074741210937,7.712987Q7.585343741210938,7.644742,7.6263827412109375,7.583322Q7.667421741210937,7.521903,7.719654741210937,7.46967Q7.7718877412109375,7.417437,7.833306741210937,7.376398Q7.894726741210937,7.335359,7.9629717412109375,7.30709Q8.031217741210938,7.278822,8.103666741210937,7.264411Q8.176116241210938,7.25,8.249984741210938,7.25Z" fill-rule="evenodd" fill="#FFFFFF" fill-opacity="1"/></g><g><path d="M8.249984741210938,11.25L12.249984741210938,11.25Q12.323854741210937,11.25,12.396304741210937,11.264410999999999Q12.468754741210937,11.278822,12.536994741210938,11.30709Q12.605244741210939,11.335359,12.666664741210937,11.376398Q12.728084741210939,11.417437,12.780314741210937,11.46967Q12.832544741210938,11.521903,12.873584741210937,11.583322Q12.914624741210938,11.644742,12.942894741210939,11.712987Q12.971164741210938,11.781233,12.985574741210938,11.853682Q12.999984741210938,11.9261315,12.999984741210938,12Q12.999984741210938,12.0738685,12.985574741210938,12.146318Q12.971164741210938,12.218767,12.942894741210939,12.287013Q12.914624741210938,12.355258,12.873584741210937,12.416678Q12.832544741210938,12.478097,12.780314741210937,12.53033Q12.728084741210939,12.582563,12.666664741210937,12.623602Q12.605244741210939,12.664641,12.536994741210938,12.69291Q12.468754741210937,12.721178,12.396304741210937,12.735589000000001Q12.323854741210937,12.75,12.249984741210938,12.75L8.249984741210938,12.75Q8.176116241210938,12.75,8.103666741210937,12.735589000000001Q8.031217741210938,12.721178,7.9629717412109375,12.69291Q7.894726741210937,12.664641,7.833306741210937,12.623602Q7.7718877412109375,12.582563,7.719654741210937,12.53033Q7.667421741210937,12.478097,7.6263827412109375,12.416678Q7.585343741210938,12.355258,7.557074741210937,12.287013Q7.528806741210937,12.218767,7.5143957412109375,12.146318Q7.4999847412109375,12.0738685,7.4999847412109375,12Q7.4999847412109375,11.9261315,7.5143957412109375,11.853682Q7.528806741210937,11.781233,7.557074741210937,11.712987Q7.585343741210938,11.644742,7.6263827412109375,11.583322Q7.667421741210937,11.521903,7.719654741210937,11.46967Q7.7718877412109375,11.417437,7.833306741210937,11.376398Q7.894726741210937,11.335359,7.9629717412109375,11.30709Q8.031217741210938,11.278822,8.103666741210937,11.264410999999999Q8.176116241210938,11.25,8.249984741210938,11.25Z" fill-rule="evenodd" fill="#FFFFFF" fill-opacity="1"/></g><g><g><path d="M19.629624536132813,16.300635640625Q19.764074536132814,16.004845640625,19.764074536132814,15.679931640625Q19.764074536132814,15.606241340625,19.756844536132814,15.532905640625Q19.749624536132814,15.459570640625,19.73524453613281,15.387296640625Q19.72087453613281,15.315021640625,19.699484536132815,15.244504640625Q19.678084536132815,15.173987640625,19.649884536132813,15.105906640625Q19.62168453613281,15.037825640625,19.58695453613281,14.972836640625Q19.552214536132812,14.907847640625,19.511274536132813,14.846576640625Q19.47033453613281,14.785304640625,19.423584536132815,14.728341640625Q19.37683453613281,14.671381640625,19.324734536132812,14.619271640625Q19.272624536132813,14.567161640625,19.215664536132813,14.520411640625Q19.158694536132813,14.473671640625,19.097424536132813,14.432731640625Q19.036154536132813,14.391791640625,18.97116453613281,14.357051640625Q18.906174536132813,14.322311640625,18.838094536132814,14.294111640625Q18.770014536132813,14.265911640625,18.69949453613281,14.244521640624999Q18.628984536132812,14.223131640625,18.556704536132813,14.208751640625Q18.484434536132813,14.194381640625,18.41109453613281,14.187151640625Q18.337764536132813,14.179931640625,18.264074536132814,14.179931640625Q18.156624536132814,14.179931640625,18.05026453613281,14.195251640625Q17.943914536132812,14.210561640625,17.840834536132814,14.240881640625Q17.73775453613281,14.271201640625,17.640044536132812,14.315901640625Q17.542334536132813,14.360601640625,17.451994536132812,14.418771640625Q17.36165453613281,14.476941640625,17.280524536132813,14.547391640625Q17.19939453613281,14.617851640625,17.129144536132813,14.699147640625Q17.058884536132812,14.780445640625,17.000934536132814,14.870927640625Q16.942984536132812,14.961409640625,16.89852453613281,15.059227640625L13.943974536132812,21.559231640625Q13.809524536132812,21.855021640625,13.809524536132812,22.179931640625Q13.809524536132812,22.253621640625,13.816744536132813,22.326961640625Q13.823974536132813,22.400291640625,13.838344536132812,22.472561640625Q13.852724536132813,22.544841640625002,13.874114536132812,22.615361640625Q13.895504536132812,22.685871640625,13.923704536132812,22.753951640625Q13.951904536132812,22.822041640625,13.986644536132813,22.887031640625Q14.021384536132812,22.952011640625,14.062324536132813,23.013281640625Q14.103264536132812,23.074561640625,14.150004536132812,23.131521640625Q14.196754536132813,23.188481640625,14.248864536132812,23.240591640625Q14.300974536132813,23.292701640625,14.357934536132813,23.339451640625Q14.414897536132813,23.386191640625,14.476169536132813,23.427131640625Q14.537440536132813,23.468071640625,14.602429536132812,23.502811640624998Q14.667418536132812,23.537551640625,14.735499536132812,23.565751640625Q14.803580536132813,23.593951640625,14.874097536132812,23.615341640625Q14.944614536132812,23.636731640625,15.016889536132812,23.651111640625Q15.089163536132812,23.665481640625,15.162498536132812,23.672711640625Q15.235834236132812,23.679931640625,15.309524536132812,23.679931640625Q15.416973536132813,23.679931640625,15.523325536132813,23.664621640625Q15.629677536132812,23.649301640624998,15.732760536132812,23.618981640625Q15.835843536132813,23.588661640625,15.933553536132813,23.543961640625Q16.03126253613281,23.499261640625,16.121603536132813,23.441091640625Q16.21194353613281,23.382921640625,16.293070536132813,23.312471640625Q16.374194536132812,23.242011640625,16.444454536132813,23.160711640625Q16.51470453613281,23.079421640625,16.572664536132812,22.988931640625Q16.630614536132814,22.898451640624998,16.67507453613281,22.800631640625L16.67517453613281,22.800421640625L19.629354536132812,16.301219640625L19.629624536132813,16.300635640625L19.629624536132813,16.300635640625Z" fill-rule="evenodd" fill="#FFFFFF" fill-opacity="1"/></g><g><path d="M16.491342663764954,18.61175012588501L20.036792663764952,18.61175012588501Q20.110482663764955,18.61175012588501,20.183822663764953,18.61897012588501Q20.257162663764955,18.62620012588501,20.329432663764955,18.64057012588501Q20.401702663764954,18.65495012588501,20.472222663764953,18.67634012588501Q20.542742663764955,18.69773012588501,20.610822663764953,18.72593012588501Q20.678902663764955,18.75413012588501,20.743892663764953,18.78887012588501Q20.808882663764955,18.82361012588501,20.870152663764955,18.86455012588501Q20.931422663764955,18.90549012588501,20.988382663764952,18.95223012588501Q21.04535266376495,18.99898012588501,21.097452663764955,19.05109012588501Q21.149562663764954,19.10320012588501,21.196312663764953,19.16016012588501Q21.243062663764952,19.21712312588501,21.28400266376495,19.27839512588501Q21.324942663764954,19.33966612588501,21.359682663764954,19.40465512588501Q21.394412663764953,19.46964412588501,21.42261266376495,19.53772512588501Q21.450812663764953,19.60580612588501,21.472202663764953,19.67632312588501Q21.493602663764953,19.74684012588501,21.507972663764953,19.81911512588501Q21.522352663764956,19.89138912588501,21.529572663764952,19.96472412588501Q21.536792663764952,20.03805982588501,21.536792663764952,20.11175012588501Q21.536792663764952,20.18544042588501,21.529572663764952,20.25877612588501Q21.522352663764956,20.33211112588501,21.507972663764953,20.40438512588501Q21.493602663764953,20.476660125885008,21.472202663764953,20.54717712588501Q21.450812663764953,20.61769412588501,21.42261266376495,20.68577512588501Q21.394412663764953,20.753856125885008,21.359682663764954,20.81884512588501Q21.324942663764954,20.88383412588501,21.28400266376495,20.94510512588501Q21.243062663764952,21.00637712588501,21.196312663764953,21.06334012588501Q21.149562663764954,21.12030012588501,21.097452663764955,21.17241012588501Q21.04535266376495,21.22452012588501,20.988382663764952,21.27127012588501Q20.931422663764955,21.31801012588501,20.870152663764955,21.35895012588501Q20.808882663764955,21.39989012588501,20.743892663764953,21.43463012588501Q20.678902663764955,21.46937012588501,20.610822663764953,21.49757012588501Q20.542742663764955,21.52577012588501,20.472222663764953,21.54716012588501Q20.401702663764954,21.56855012588501,20.329432663764955,21.58293012588501Q20.257162663764955,21.59730012588501,20.183822663764953,21.60453012588501Q20.110482663764955,21.61175012588501,20.036792663764952,21.61175012588501L16.491342663764954,21.61175012588501Q16.417652363764955,21.61175012588501,16.344316663764953,21.60453012588501Q16.270981663764953,21.59730012588501,16.198707663764953,21.58293012588501Q16.126432663764955,21.56855012588501,16.055915663764953,21.54716012588501Q15.985398663764954,21.52577012588501,15.917317663764953,21.49757012588501Q15.849236663764954,21.46937012588501,15.784247663764953,21.43463012588501Q15.719258663764954,21.39989012588501,15.657987663764954,21.35895012588501Q15.596715663764954,21.31801012588501,15.539752663764954,21.27127012588501Q15.482792663764954,21.22452012588501,15.430682663764953,21.17241012588501Q15.378572663764954,21.12030012588501,15.331822663764953,21.06334012588501Q15.285082663764953,21.00637712588501,15.244142663764954,20.94510512588501Q15.203202663764953,20.88383412588501,15.168462663764954,20.81884512588501Q15.133722663764953,20.753856125885008,15.105522663764953,20.68577512588501Q15.077322663764953,20.61769412588501,15.055932663764953,20.54717712588501Q15.034542663764954,20.476660125885008,15.020162663764953,20.40438512588501Q15.005792663764954,20.33211112588501,14.998562663764954,20.25877612588501Q14.991342663764954,20.18544042588501,14.991342663764954,20.11175012588501Q14.991342663764954,20.03805982588501,14.998562663764954,19.96472412588501Q15.005792663764954,19.89138912588501,15.020162663764953,19.81911512588501Q15.034542663764954,19.74684012588501,15.055932663764953,19.67632312588501Q15.077322663764953,19.60580612588501,15.105522663764953,19.53772512588501Q15.133722663764953,19.46964412588501,15.168462663764954,19.40465512588501Q15.203202663764953,19.33966612588501,15.244142663764954,19.27839512588501Q15.285082663764953,19.21712312588501,15.331822663764953,19.16016012588501Q15.378572663764954,19.10320012588501,15.430682663764953,19.05109012588501Q15.482792663764954,18.99898012588501,15.539752663764954,18.95223012588501Q15.596715663764954,18.90549012588501,15.657987663764954,18.86455012588501Q15.719258663764954,18.82361012588501,15.784247663764953,18.78887012588501Q15.849236663764954,18.75413012588501,15.917317663764953,18.72593012588501Q15.985398663764954,18.69773012588501,16.055915663764953,18.67634012588501Q16.126432663764955,18.65495012588501,16.198707663764953,18.64057012588501Q16.270981663764953,18.62620012588501,16.344316663764953,18.61897012588501Q16.417652363764955,18.61175012588501,16.491342663764954,18.61175012588501Z" fill-rule="evenodd" fill="#FFFFFF" fill-opacity="1"/></g><g><path d="M16.8985200340271,16.300635640625Q16.7640700340271,16.004845640625,16.7640700340271,15.679931640625Q16.7640700340271,15.606241340625,16.7712900340271,15.532905640625Q16.7785200340271,15.459570640625,16.7928900340271,15.387296640625Q16.8072700340271,15.315021640625,16.8286600340271,15.244504640625Q16.8500500340271,15.173987640625,16.8782500340271,15.105906640625Q16.9064500340271,15.037825640625,16.941190034027098,14.972836640625Q16.9759300340271,14.907847640625,17.0168700340271,14.846576640625Q17.0578100340271,14.785304640625,17.1045500340271,14.728341640625Q17.1513000340271,14.671381640625,17.2034100340271,14.619271640625Q17.2555200340271,14.567161640625,17.3124800340271,14.520411640625Q17.3694430340271,14.473671640625,17.4307150340271,14.432731640625Q17.4919860340271,14.391791640625,17.5569750340271,14.357051640625Q17.6219640340271,14.322311640625,17.6900450340271,14.294111640625Q17.7581260340271,14.265911640625,17.8286430340271,14.244521640624999Q17.8991600340271,14.223131640625,17.9714350340271,14.208751640625Q18.0437090340271,14.194381640625,18.1170440340271,14.187151640625Q18.1903797340271,14.179931640625,18.2640700340271,14.179931640625Q18.3715190340271,14.179931640625,18.4778710340271,14.195251640625Q18.5842230340271,14.210561640625,18.6873060340271,14.240881640625Q18.7903890340271,14.271201640625,18.8880990340271,14.315901640625Q18.985808034027098,14.360601640625,19.0761490340271,14.418771640625Q19.166489034027098,14.476941640625,19.2476160340271,14.547391640625Q19.3287400340271,14.617851640625,19.3990000340271,14.699147640625Q19.469250034027098,14.780445640625,19.5272100340271,14.870927640625Q19.5851600340271,14.961409640625,19.6296200340271,15.059227640625L22.5840200340271,21.558921640625L22.5841700340271,21.559231640625Q22.7186200340271,21.855021640625,22.7186200340271,22.179931640625Q22.7186200340271,22.253621640625,22.7113900340271,22.326961640625Q22.7041700340271,22.400291640625,22.689790034027098,22.472561640625Q22.6754200340271,22.544841640625002,22.6540300340271,22.615361640625Q22.632630034027102,22.685871640625,22.6044300340271,22.753951640625Q22.5762300340271,22.822041640625,22.5415000340271,22.887031640625Q22.5067600340271,22.952011640625,22.4658200340271,23.013281640625Q22.424880034027098,23.074561640625,22.3781300340271,23.131521640625Q22.3313800340271,23.188481640625,22.2792800340271,23.240591640625Q22.2271700340271,23.292701640625,22.1702100340271,23.339451640625Q22.1132400340271,23.386191640625,22.0519700340271,23.427131640625Q21.9907000340271,23.468071640625,21.925710034027098,23.502811640624998Q21.8607200340271,23.537551640625,21.7926400340271,23.565751640625Q21.7245600340271,23.593951640625,21.654040034027098,23.615341640625Q21.5835300340271,23.636731640625,21.5112500340271,23.651111640625Q21.4389800340271,23.665481640625,21.3656400340271,23.672711640625Q21.2923100340271,23.679931640625,21.2186200340271,23.679931640625Q21.1111700340271,23.679931640625,21.0048100340271,23.664621640625Q20.8984600340271,23.649301640624998,20.7953800340271,23.618981640625Q20.6923000340271,23.588661640625,20.5945900340271,23.543961640625Q20.4968800340271,23.499261640625,20.4065400340271,23.441091640625Q20.316200034027098,23.382921640625,20.2350700340271,23.312471640625Q20.153940034027098,23.242011640625,20.0836900340271,23.160711640625Q20.0134300340271,23.079421640625,19.9554800340271,22.988931640625Q19.8975300340271,22.898451640624998,19.8530700340271,22.800631640625L16.8985200340271,16.300635640625L16.8985200340271,16.300635640625Z" fill-rule="evenodd" fill="#FFFFFF" fill-opacity="1"/></g></g><g><g><path d="M18.719254536132812,15.886833640625Q18.764074536132814,15.788236640625,18.764074536132814,15.679931640625Q18.764074536132814,15.630685940625,18.75446453613281,15.582386540625Q18.744854536132813,15.534086640625,18.726004536132812,15.488589640625Q18.70716453613281,15.443092640625,18.679804536132814,15.402146640625Q18.652444536132812,15.361200640625,18.617624536132812,15.326378640625Q18.582804536132812,15.291556640625,18.541854536132814,15.264196640625Q18.50090453613281,15.236837640625,18.455414536132814,15.217991640625Q18.409914536132813,15.199146640624999,18.361614536132812,15.189538640625Q18.31331453613281,15.179931640625,18.264074536132814,15.179931640625Q18.19206453613281,15.179931640625,18.12299453613281,15.200247640625Q18.05391453613281,15.220563640625,17.993374536132812,15.259544640625Q17.932844536132812,15.298525640625,17.88576453613281,15.353003640625Q17.838684536132813,15.407481640625,17.808884536132812,15.473030640625L14.854341536132813,21.973031640625Q14.809524536132812,22.071631640625,14.809524536132812,22.179931640625Q14.809524536132812,22.229181640625,14.819131536132813,22.277471640625002Q14.828739536132812,22.325771640625,14.847584536132812,22.371271640625Q14.866430536132812,22.416771640625,14.893789536132813,22.457711640625Q14.921149536132813,22.498661640625002,14.955971536132813,22.533481640625Q14.990793536132813,22.568301640625002,15.031739536132813,22.595661640625Q15.072685536132813,22.623021640624998,15.118182536132812,22.641871640625Q15.163679536132813,22.660711640625,15.211979436132813,22.670321640624998Q15.260278836132812,22.679931640625,15.309524536132812,22.679931640625Q15.381526736132813,22.679931640625,15.450603536132812,22.659611640625002Q15.519679536132813,22.639301640625,15.580217536132812,22.600321640625Q15.640754536132812,22.561341640625,15.687833536132812,22.506861640625Q15.734913536132812,22.452381640625,15.764707536132812,22.386831640625L18.719074536132812,15.887234640625L18.719254536132812,15.886832640625L18.719254536132812,15.886833640625Z" fill-rule="evenodd" fill="#7BC0FC" fill-opacity="1"/></g><g><path d="M16.491342663764954,19.61175012588501L20.036792663764952,19.61175012588501Q20.086042663764953,19.61175012588501,20.134342663764954,19.62135712588501Q20.182642663764952,19.63096512588501,20.228142663764952,19.64981012588501Q20.273632663764953,19.66865612588501,20.314582663764952,19.69601512588501Q20.355532663764954,19.72337512588501,20.390352663764954,19.758197125885008Q20.425172663764954,19.79301912588501,20.452532663764956,19.83396512588501Q20.479892663764954,19.87491112588501,20.498732663764955,19.92040812588501Q20.517582663764955,19.96590512588501,20.527192663764954,20.01420502588501Q20.536792663764952,20.06250442588501,20.536792663764952,20.11175012588501Q20.536792663764952,20.16099582588501,20.527192663764954,20.20929522588501Q20.517582663764955,20.25759512588501,20.498732663764955,20.30309212588501Q20.479892663764954,20.34858912588501,20.452532663764956,20.38953512588501Q20.425172663764954,20.43048112588501,20.390352663764954,20.46530312588501Q20.355532663764954,20.50012512588501,20.314582663764952,20.52748512588501Q20.273632663764953,20.55484412588501,20.228142663764952,20.57369012588501Q20.182642663764952,20.59253512588501,20.134342663764954,20.60214312588501Q20.086042663764953,20.61175012588501,20.036792663764952,20.61175012588501L16.491342663764954,20.61175012588501Q16.442096963764953,20.61175012588501,16.393797563764952,20.60214312588501Q16.345497663764952,20.59253512588501,16.300000663764955,20.57369012588501Q16.254503663764954,20.55484412588501,16.213557663764952,20.52748512588501Q16.172611663764954,20.50012512588501,16.137789663764952,20.46530312588501Q16.102967663764954,20.43048112588501,16.075607663764952,20.38953512588501Q16.048248663764955,20.34858912588501,16.029402663764955,20.30309212588501Q16.010557663764953,20.25759512588501,16.000949663764953,20.20929522588501Q15.991342663764954,20.16099582588501,15.991342663764954,20.11175012588501Q15.991342663764954,20.06250442588501,16.000949663764953,20.01420502588501Q16.010557663764953,19.96590512588501,16.029402663764955,19.92040812588501Q16.048248663764955,19.87491112588501,16.075607663764952,19.83396512588501Q16.102967663764954,19.79301912588501,16.137789663764952,19.758197125885008Q16.172611663764954,19.72337512588501,16.213557663764952,19.69601512588501Q16.254503663764954,19.66865612588501,16.300000663764955,19.64981012588501Q16.345497663764952,19.63096512588501,16.393797563764952,19.62135712588501Q16.442096963764953,19.61175012588501,16.491342663764954,19.61175012588501Z" fill-rule="evenodd" fill="#7BC0FC" fill-opacity="1"/></g><g><path d="M18.7193270340271,15.473192640625L21.6738000340271,21.973031640625Q21.7186200340271,22.071631640625,21.7186200340271,22.179931640625Q21.7186200340271,22.229181640625,21.7090100340271,22.277471640625002Q21.6994000340271,22.325771640625,21.6805500340271,22.371271640625Q21.6617100340271,22.416771640625,21.6343500340271,22.457711640625Q21.6069900340271,22.498661640625002,21.5721700340271,22.533481640625Q21.5373500340271,22.568301640625002,21.4964000340271,22.595661640625Q21.4554500340271,22.623021640624998,21.4099600340271,22.641871640625Q21.3644600340271,22.660711640625,21.3161600340271,22.670321640624998Q21.2678600340271,22.679931640625,21.2186200340271,22.679931640625Q21.1466100340271,22.679931640625,21.0775400340271,22.659611640625002Q21.0084600340271,22.639301640625,20.9479200340271,22.600321640625Q20.8873900340271,22.561341640625,20.840310034027098,22.506861640625Q20.7932300340271,22.452381640625,20.7634300340271,22.386831640625L17.8089610340271,15.886995640625L17.808887034027098,15.886832640625Q17.7640700340271,15.788236640625,17.7640700340271,15.679931640625Q17.7640700340271,15.630685940625,17.7736770340271,15.582386540625Q17.7832850340271,15.534086640625,17.8021300340271,15.488589640625Q17.8209760340271,15.443092640625,17.848335034027098,15.402146640625Q17.8756950340271,15.361200640625,17.910517034027098,15.326378640625Q17.9453390340271,15.291556640625,17.986285034027098,15.264196640625Q18.0272310340271,15.236837640625,18.0727280340271,15.217991640625Q18.1182250340271,15.199146640624999,18.1665249340271,15.189538640625Q18.2148243340271,15.179931640625,18.2640700340271,15.179931640625Q18.3360722340271,15.179931640625,18.4051490340271,15.200247640625Q18.4742250340271,15.220563640625,18.5347630340271,15.259544640625Q18.5953000340271,15.298525640625,18.6423790340271,15.353003640625Q18.6894590340271,15.407481640625,18.7192530340271,15.473030640625L18.7193270340271,15.473192640625Z" fill-rule="evenodd" fill="#7BC0FC" fill-opacity="1"/></g></g></g></svg>