<svg xmlns="http://www.w3.org/2000/svg" xmlns:xlink="http://www.w3.org/1999/xlink" fill="none" version="1.1" width="24" height="24" viewBox="0 0 24 24"><defs><clipPath id="master_svg0_5339_05802"><rect x="0" y="0" width="24" height="24" rx="0"/></clipPath></defs><g clip-path="url(#master_svg0_5339_05802)"><g><path d="M8.25,3.75L19.5,3.75Q19.573900000000002,3.75,19.6463,3.764411Q19.7188,3.778822,19.787,3.80709Q19.8553,3.835359,19.9167,3.876398Q19.978099999999998,3.917437,20.0303,3.96967Q20.0826,4.021903,20.1236,4.083322Q20.1646,4.144742,20.1929,4.212987Q20.2212,4.281233,20.235599999999998,4.353682Q20.25,4.4261315,20.25,4.5L20.25,15.75Q20.25,15.8239,20.235599999999998,15.8963Q20.2212,15.9688,20.1929,16.037Q20.1646,16.1053,20.1236,16.1667Q20.0826,16.228099999999998,20.0303,16.2803Q19.978099999999998,16.3326,19.9167,16.3736Q19.8553,16.4146,19.787,16.4429Q19.7188,16.4712,19.6463,16.485599999999998Q19.573900000000002,16.5,19.5,16.5Q19.426099999999998,16.5,19.3537,16.485599999999998Q19.2812,16.4712,19.213,16.4429Q19.1447,16.4146,19.0833,16.3736Q19.021900000000002,16.3326,18.9697,16.2803Q18.9174,16.228099999999998,18.8764,16.1667Q18.8354,16.1053,18.8071,16.037Q18.7788,15.9688,18.764400000000002,15.8963Q18.75,15.8239,18.75,15.75L18.75,6.31066L5.030792,20.029899999999998L5.03033,20.0303Q4.924841,20.1358,4.787013,20.1929Q4.649184,20.25,4.5,20.25Q4.4261315,20.25,4.353682,20.235599999999998Q4.281233,20.2212,4.212987,20.1929Q4.144742,20.1646,4.083322,20.1236Q4.021903,20.0826,3.96967,20.0303Q3.917437,19.978099999999998,3.876398,19.9167Q3.835359,19.8553,3.80709,19.787Q3.778822,19.7188,3.764411,19.6463Q3.75,19.573900000000002,3.75,19.5Q3.75,19.3508,3.80709,19.213Q3.864181,19.075200000000002,3.96967,18.9697L3.970132,18.9692L17.6893,5.25L8.25,5.25Q8.17613,5.25,8.10368,5.235589Q8.03123,5.221178,7.96299,5.19291Q7.8947400000000005,5.164641,7.8333200000000005,5.123602Q7.7719000000000005,5.082563,7.71967,5.03033Q7.66744,4.978097,7.6264,4.916678Q7.58536,4.855258,7.5570900000000005,4.787013Q7.52882,4.718767,7.51441,4.646318Q7.5,4.5738685,7.5,4.5Q7.5,4.4261315,7.51441,4.353682Q7.52882,4.281233,7.5570900000000005,4.212987Q7.58536,4.144742,7.6264,4.083322Q7.66744,4.021903,7.71967,3.96967Q7.7719000000000005,3.917437,7.8333200000000005,3.876398Q7.8947400000000005,3.835359,7.96299,3.80709Q8.03123,3.778822,8.10368,3.764411Q8.17613,3.75,8.25,3.75Z" fill-rule="evenodd" fill="#000000" fill-opacity="1"/></g></g></svg>