<svg xmlns="http://www.w3.org/2000/svg" xmlns:xlink="http://www.w3.org/1999/xlink" fill="none" version="1.1" width="24" height="24" viewBox="0 0 24 24"><defs><clipPath id="master_svg0_450_84047"><rect x="0" y="0" width="24" height="24" rx="0"/></clipPath><clipPath id="master_svg1_3105_3980"><rect x="0" y="0" width="24" height="24" rx="0"/></clipPath></defs><g clip-path="url(#master_svg0_450_84047)"><g clip-path="url(#master_svg1_3105_3980)"></g><g transform="matrix(-1,0,0,-1,42,32)"><g><g><path d="M21.498273,15.439443L30,22.99653L38.501000000000005,15.440077L38.5017,15.439443Q38.6047,15.347917,38.7335,15.298959Q38.8622,15.25,39,15.25Q39.073899999999995,15.25,39.1463,15.264410999999999Q39.2188,15.278822,39.287,15.30709Q39.3553,15.335359,39.4167,15.376398Q39.4781,15.417437,39.5303,15.46967Q39.5826,15.521903,39.623599999999996,15.583322Q39.6646,15.644742,39.6929,15.712987Q39.721199999999996,15.781233,39.735600000000005,15.853682Q39.75,15.9261315,39.75,16Q39.75,16.160671,39.684200000000004,16.307242Q39.6184,16.453813,39.4983,16.560557L39.4976,16.56119L30.498269999999998,24.560560000000002Q30.44722,24.60594,30.3888,24.64135Q30.33039,24.676769999999998,30.26654,24.70104Q30.20269,24.72532,30.1355,24.737659999999998Q30.06831,24.75,30,24.75Q29.93169,24.75,29.8645,24.737659999999998Q29.79732,24.72532,29.73347,24.70104Q29.66961,24.676769999999998,29.6112,24.64135Q29.55278,24.60594,29.501730000000002,24.560560000000002L20.501727,16.560557Q20.38164,16.453813,20.31582,16.307242Q20.25,16.160671,20.25,16Q20.25,15.9261315,20.264411,15.853682Q20.278822,15.781233,20.30709,15.712987Q20.335359,15.644742,20.376398000000002,15.583322Q20.417437,15.521903,20.46967,15.46967Q20.521903000000002,15.417437,20.583322,15.376398Q20.644742,15.335359,20.712987,15.30709Q20.781233,15.278822,20.853682,15.264410999999999Q20.9261315,15.25,21,15.25Q21.137764,15.25,21.266535,15.298959Q21.395307,15.347917,21.498273,15.439443Z" fill-rule="evenodd" fill="#38363C" fill-opacity="1"/></g></g></g></g></svg>