<svg xmlns="http://www.w3.org/2000/svg" xmlns:xlink="http://www.w3.org/1999/xlink" fill="none" version="1.1" width="24" height="24" viewBox="0 0 24 24"><defs><clipPath id="master_svg0_5372_07794"><rect x="0" y="0" width="24" height="24" rx="0"/></clipPath><clipPath id="master_svg1_5372_07796"><rect x="2" y="2" width="20" height="20" rx="0"/></clipPath></defs><g clip-path="url(#master_svg0_5372_07794)"><g clip-path="url(#master_svg1_5372_07796)"><g><g><g><path d="M18.25,4.5L18.25,3.25C18.25,2.559644,17.6904,2,17,2C16.3096,2,15.75,2.559644,15.75,3.25L15.75,4.5L15.75,5.75C15.75,6.44036,15.1904,7,14.5,7L9.5,7C8.809650000000001,7,8.25,6.44036,8.25,5.75L8.25,4.5L8.25,3.25C8.25,2.559644,7.69036,2,7,2C6.30964,2,5.75,2.559644,5.75,3.25L5.75,4.5L5.75,5.75C5.75,6.44036,5.19036,7,4.5,7C3.11929,7,2,8.11929,2,9.5L2,19.5C2,20.8807,3.11929,22,4.5,22L19.5,22C20.8807,22,22,20.8807,22,19.5L22,9.5C22,8.11929,20.8807,7,19.5,7C18.8096,7,18.25,6.44036,18.25,5.75L18.25,4.5ZM14.5,10.75C15.25,10.75,15.75,11.25,15.75,12C15.75,12.75,15.25,13.25,14.5,13.25C13.75,13.25,13.25,12.75,13.25,12C13.25,11.25,13.75,10.75,14.5,10.75ZM9.5,10.75C10.25,10.75,10.75,11.25,10.75,12C10.75,12.75,10.25,13.25,9.5,13.25C8.75,13.25,8.25,12.75,8.25,12C8.25,11.25,8.75,10.75,9.5,10.75ZM15.75,18.25L8.25,18.25C7.55964,18.25,7,17.6904,7,17C7,16.3096,7.55964,15.75,8.25,15.75L15.75,15.75C16.4404,15.75,17,16.3096,17,17C17,17.6904,16.4404,18.25,15.75,18.25Z" fill="#2882FF" fill-opacity="1"/></g></g></g></g></g></svg>