<svg xmlns="http://www.w3.org/2000/svg" xmlns:xlink="http://www.w3.org/1999/xlink" fill="none" version="1.1" width="24" height="24" viewBox="0 0 24 24"><defs><clipPath id="master_svg0_3105_4135"><rect x="0" y="0" width="24" height="24" rx="0"/></clipPath><clipPath id="master_svg1_3105_4137"><rect x="4" y="4" width="16" height="16" rx="2"/></clipPath></defs><g><g clip-path="url(#master_svg0_3105_4135)"></g><g clip-path="url(#master_svg1_3105_4137)"><rect x="4" y="4" width="16" height="16" rx="2" fill="#69B4FF" fill-opacity="1"/><g><path d="M11.488499912261963,9.271397290496825L11.488499912261963,10.536397290496826L8.221499912261963,10.536397290496826L8.221499912261963,13.110397290496827L7.0884999122619625,13.110397290496827L7.0884999122619625,13.891397290496826L11.202499912261963,13.891397290496826C10.762499912261962,14.871947290496827,9.629499912261963,15.764317290496827,6.879499912261963,16.381347290496826C7.066499912261963,16.568527290496824,7.286499912261963,16.89903729049683,7.385499912261963,17.075417290496826C10.256499912261962,16.381347290496826,11.499499912261964,15.345637290496827,12.016499912261963,14.177917290496826C12.896499912261962,15.786317290496827,14.392499912261963,16.689697290496824,16.592499912261964,17.075417290496826C16.702499912261963,16.84403729049683,16.933499912261965,16.502527290496825,17.120499912261963,16.326177290496826C14.997499912261963,16.028837290496824,13.512499912261962,15.257637290496826,12.720499912261964,13.891397290496826L16.856499912261963,13.891397290496826L16.856499912261963,13.110397290496827L15.767499912261963,13.110397290496827L15.767499912261963,10.536397290496826L12.346499912261962,10.536397290496826L12.346499912261962,9.271397290496825L11.488499912261963,9.271397290496825ZM9.013499912261963,13.110397290496827L9.013499912261963,11.262397290496827L11.488499912261963,11.262397290496827L11.488499912261963,12.307397290496827C11.488499912261963,12.571397290496826,11.477499912261962,12.846397290496826,11.433499912261963,13.110397290496827L9.013499912261963,13.110397290496827ZM14.942499912261964,13.110397290496827L12.302499912261963,13.110397290496827C12.335499912261962,12.846397290496826,12.346499912261962,12.582397290496825,12.346499912261962,12.318397290496826L12.346499912261962,11.262397290496827L14.942499912261964,11.262397290496827L14.942499912261964,13.110397290496827ZM13.501499912261963,6.924617290496826L13.501499912261963,7.940397290496826L10.366499912261963,7.940397290496826L10.366499912261963,6.924617290496826L9.552499912261963,6.924617290496826L9.552499912261963,7.940397290496826L7.220499912261963,7.940397290496826L7.220499912261963,8.688397290496827L9.552499912261963,8.688397290496827L9.552499912261963,9.843397290496826L10.366499912261963,9.843397290496826L10.366499912261963,8.688397290496827L13.501499912261963,8.688397290496827L13.501499912261963,9.843397290496826L14.326499912261962,9.843397290496826L14.326499912261962,8.688397290496827L16.669499912261962,8.688397290496827L16.669499912261962,7.940397290496826L14.326499912261962,7.940397290496826L14.326499912261962,6.924617290496826L13.501499912261963,6.924617290496826Z" fill="#FFFFFF" fill-opacity="1"/></g></g></g></svg>