<svg xmlns="http://www.w3.org/2000/svg" xmlns:xlink="http://www.w3.org/1999/xlink" fill="none" version="1.1" width="24" height="24" viewBox="0 0 24 24"><defs><clipPath id="master_svg0_3105_4160"><rect x="0" y="0" width="24" height="24" rx="0"/></clipPath><clipPath id="master_svg1_3105_4162"><rect x="4" y="4" width="16" height="16" rx="2"/></clipPath><clipPath id="master_svg2_3125_4906"><rect x="0" y="0" width="24" height="24" rx="0"/></clipPath></defs><g><g clip-path="url(#master_svg0_3105_4160)"></g><g clip-path="url(#master_svg1_3105_4162)"><g clip-path="url(#master_svg2_3125_4906)"><g><path d="M11.95687,6Q8.91038,6,9.1005,7.32113L9.10425,8.68988L12.01125,8.68988L12.01125,9.1005L7.94887,9.1005Q6,8.879249999999999,6,11.9535Q6,15.027,7.70137,14.91825L8.71687,14.91825L8.71687,13.49175Q8.66212,11.790379999999999,10.39125,11.790379999999999L13.27425,11.790379999999999Q14.89425,11.81663,14.89425,10.22475L14.89425,7.59263Q15.14025,6,11.95687,6ZM10.35375,6.92025C10.64288,6.92025,10.87687,7.15425,10.87687,7.44338C10.87687,7.7325,10.64288,7.9665,10.35375,7.9665C10.06466,7.96692,9.830210000000001,7.73246,9.83062,7.44337C9.83062,7.15425,10.06462,6.92025,10.35375,6.92025Z" fill="#387EB8" fill-opacity="1"/></g><g><path d="M12.043122340698243,17.9373570703125Q15.089622340698241,17.9373570703125,14.899502340698241,16.6162370703125L14.895752340698241,15.2474870703125L11.988752340698243,15.2474870703125L11.988752340698243,14.8368670703125L16.050752340698242,14.8368670703125Q18.00000234069824,15.0581170703125,18.00000234069824,11.9842370703125Q18.00000234069824,8.9103620703125,16.29862234069824,9.0194879103125L15.283122340698242,9.0194879103125L15.283122340698242,10.4456170703125Q15.337872340698242,12.1469870703125,13.608752340698242,12.1469870703125L10.725752340698243,12.1469870703125Q9.105749140698242,12.1207370703125,9.105749140698242,13.7126170703125L9.105749140698242,16.3447370703125Q8.859748340698243,17.9373670703125,12.043122340698243,17.9373570703125ZM13.646252340698243,17.0171070703125C13.357162340698242,17.0175270703125,13.122712340698243,16.7830770703125,13.123122340698242,16.4939870703125C13.123122340698242,16.2052370703125,13.357122340698243,15.971237070312501,13.646252340698243,15.971237070312501C13.935372340698242,15.971237070312501,14.169372340698242,16.2048570703125,14.169372340698242,16.4939870703125C14.169372340698242,16.7834870703125,13.935372340698242,17.0171070703125,13.646252340698243,17.0171070703125Z" fill="#FAC814" fill-opacity="1"/></g></g></g></g></svg>