<svg xmlns="http://www.w3.org/2000/svg" xmlns:xlink="http://www.w3.org/1999/xlink" fill="none" version="1.1" width="24" height="24" viewBox="0 0 24 24"><defs><clipPath id="master_svg0_3105_4207"><rect x="0" y="0" width="24" height="24" rx="0"/></clipPath><clipPath id="master_svg1_3338_02832"><rect x="4" y="4" width="16" height="16" rx="2"/></clipPath><clipPath id="master_svg2_3338_02833"><rect x="5" y="5" width="14" height="14" rx="0"/></clipPath></defs><g><g clip-path="url(#master_svg0_3105_4207)"></g><g clip-path="url(#master_svg1_3338_02832)"><g clip-path="url(#master_svg2_3338_02833)"><g><g><path d="M18.41661298828125,9.80713L16.47221298828125,9.80713L16.47221298828125,8.02688L13.24352298828125,5L5.58331298828125,5L5.58331298828125,19L16.47221298828125,19L16.47221298828125,16.9132L18.41661298828125,16.9132L18.41661298828125,9.80713ZM17.25001298828125,15.7466L9.08331298828125,15.7466L9.08331298828125,10.9738L17.25001298828125,10.9738L17.25001298828125,15.7466Z" fill="#0078D7" fill-opacity="1"/></g></g><g><path d="M11.748000171661378,12.763999980926513Q11.748000171661378,12.991999980926513,11.654000171661377,13.133999980926514Q11.560000171661377,13.275999980926514,11.344000171661378,13.339999980926514L11.344000171661378,13.355999980926514Q11.832000171661377,13.471999980926514,11.832000171661377,13.995999980926513Q11.832000171661377,14.259999980926514,11.740000171661377,14.435999980926514Q11.648000171661376,14.611999980926514,11.424000171661376,14.703999980926515Q11.200000171661376,14.795999980926513,10.812000171661378,14.795999980926513L9.820000171661377,14.795999980926513L9.820000171661377,12.019999980926514L10.732000171661378,12.019999980926514Q11.124000171661377,12.019999980926514,11.346000171661377,12.099999880926514Q11.568000171661376,12.179999980926514,11.658000171661378,12.341999980926513Q11.748000171661378,12.503999980926514,11.748000171661378,12.763999980926513ZM10.680000171661376,14.339999980926514Q10.916000171661377,14.339999980926514,11.038000171661377,14.307999980926514Q11.160000171661377,14.275999980926514,11.212000171661376,14.197999980926514Q11.264000171661376,14.119999980926513,11.264000171661376,13.963999980926513Q11.264000171661376,13.819999980926514,11.212000171661376,13.739999980926514Q11.160000171661377,13.659999980926514,11.034000171661377,13.623999980926513Q10.908000171661378,13.587999980926513,10.680000171661376,13.587999980926513L10.384000171661377,13.587999980926513L10.384000171661377,14.339999980926514L10.680000171661376,14.339999980926514ZM10.600000171661376,13.175999980926514Q10.824000171661377,13.175999980926514,10.948000171661377,13.147999980926514Q11.072000171661378,13.119999980926513,11.132000171661376,13.043999980926515Q11.192000171661377,12.967999980926514,11.192000171661377,12.819999980926514Q11.192000171661377,12.667999980926513,11.134000171661377,12.593999980926514Q11.076000171661377,12.519999980926514,10.954000171661377,12.495999980926513Q10.832000171661377,12.471999980926514,10.600000171661376,12.471999980926514L10.384000171661377,12.471999980926514L10.384000171661377,13.175999980926514L10.600000171661376,13.175999980926514ZM12.928000171661377,14.083999980926514L12.672000171661377,14.795999980926513L12.092000171661377,14.795999980926513L13.128000171661377,12.019999980926514L13.884000171661377,12.019999980926514L14.916000171661377,14.795999980926513L14.316000171661377,14.795999980926513L14.072000171661376,14.083999980926514L12.928000171661377,14.083999980926514ZM13.904000171661377,13.611999980926514L13.528000171661377,12.519999980926514L13.480000171661377,12.519999980926514L13.092000171661377,13.611999980926514L13.904000171661377,13.611999980926514ZM15.984000171661377,12.511999980926515L15.984000171661377,14.795999980926513L15.420000171661377,14.795999980926513L15.420000171661377,12.511999980926515L14.680000171661376,12.511999980926515L14.680000171661376,12.019999980926514L16.724000171661377,12.019999980926514L16.724000171661377,12.511999980926515L15.984000171661377,12.511999980926515Z" fill="#0078D7" fill-opacity="1"/></g></g></g></g></svg>