<svg xmlns="http://www.w3.org/2000/svg" xmlns:xlink="http://www.w3.org/1999/xlink" fill="none" version="1.1" width="20" height="20" viewBox="0 0 20 20"><defs><clipPath id="master_svg0_1020_49340/953_61485/823_38370/1020_49746"><rect x="1.6669921875" y="1.66650390625" width="16.66666603088379" height="16.66666603088379" rx="2"/></clipPath><clipPath id="master_svg1_1020_49340/953_61485/823_38370/1020_49747"><rect x="4.1669921875" y="4.16650390625" width="11.666666030883789" height="11.666666030883789" rx="0"/></clipPath></defs><g><g clip-path="url(#master_svg0_1020_49340/953_61485/823_38370/1020_49746)"><rect x="1.6669921875" y="1.66650390625" width="16.66666603088379" height="16.66666603088379" rx="2" fill="#FAEBFF" fill-opacity="1"/><g clip-path="url(#master_svg1_1020_49340/953_61485/823_38370/1020_49747)"><g><g><path d="M15.10417,10.72902685405C14.328669999999999,10.81775970625,13.62538,11.22609390625,13.16385,11.85559390625C12.8753,11.16986990625,12.20228,10.72531696625,11.45833,10.72902685405C11.05563,10.72902685405,10.729167,11.05548590625,10.729167,11.45819390625C10.729167,11.86090390625,11.05563,12.18736390625,11.45833,12.18736390625C11.72156,12.18736390625,11.87396,12.39079390625,12.107289999999999,13.12361390625C11.63552,13.70402390625,11.05073,14.374863906249999,10.729167,14.374863906249999C10.326459,14.374863906249999,10,14.70131390625,10,15.10402390625C10,15.50673390625,10.326459,15.83319390625,10.729167,15.83319390625C11.50466,15.744463906250001,12.20795,15.33612390625,12.66948,14.70663390625C12.95803,15.392353906250001,13.63105,15.83690390625,14.375,15.83319390625C14.777709999999999,15.83319390625,15.10417,15.50673390625,15.10417,15.10402390625C15.10417,14.70131390625,14.777709999999999,14.374863906249999,14.375,14.374863906249999C14.11177,14.374863906249999,13.95865,14.17142390625,13.72604,13.43861390625C14.19781,12.85819390625,14.7826,12.18736390625,15.10417,12.18736390625C15.50687,12.18736390625,15.83333,11.86090390625,15.83333,11.45819390625C15.83333,11.05548590625,15.50687,10.72902685405,15.10417,10.72902685405Z" fill="#A52FFF" fill-opacity="1"/></g><g><path d="M11.4586621875,9.99983390625C11.8613621875,9.99983390625,12.1878221875,9.67337390625,12.1878221875,9.27067390625C12.1878221875,8.86796390625,11.8613621875,8.54150390625,11.4586621875,8.54150390625L9.872722187499999,8.54150390625C10.1877221875,6.7761939062500005,10.5894921875,5.62483390625,11.4586621875,5.62483390625C11.8613621875,5.62483390625,12.1878221875,5.95129390625,12.1878221875,6.35400390625C12.1878221875,6.75671390625,12.5142821875,7.08317390625,12.9169921875,7.08317390625C13.3197021875,7.08317390625,13.6461621875,6.75671390625,13.6461621875,6.35400390625C13.6461621875,5.14588090625,12.6667821875,4.16650390625,11.4586621875,4.16650390625C9.4118821875,4.16650390625,8.7702221875,6.28108390625,8.3910521875,8.54150390625L6.3544921875,8.54150390625C5.9517821875,8.54150390625,5.6253221875,8.86796390625,5.6253221875,9.27067390625C5.6253221875,9.67337390625,5.9517821875,9.99983390625,6.3544921875,9.99983390625L8.1701121875,9.99983390625C7.8011621875,12.56650390625,7.440952187500001,14.37480390625,6.3544921875,14.37480390625C5.9517821875,14.37480390625,5.6253221875,14.04837390625,5.6253221875,13.64567390625C5.6253221875,13.24296390625,5.2988621875,12.91650390625,4.8961581875,12.91650390625C4.4934511875,12.91650390625,4.166992013653,13.24296390625,4.166992013653,13.64567390625C4.166992037656,14.85380390625,5.1463691875,15.83320390625,6.3544921875,15.83320390625C8.8095921875,15.83320390625,9.244912187499999,12.78890390625,9.628452187499999,10.10338390625L9.643032187500001,9.99983390625L11.4586621875,9.99983390625Z" fill="#A52FFF" fill-opacity="1"/></g></g></g></g></g></svg>