<svg xmlns="http://www.w3.org/2000/svg" xmlns:xlink="http://www.w3.org/1999/xlink" fill="none" version="1.1" width="24" height="24" viewBox="0 0 24 24"><defs><clipPath id="master_svg0_3105_4114"><rect x="0" y="0" width="24" height="24" rx="0"/></clipPath><clipPath id="master_svg1_3105_4111"><rect x="4" y="4" width="16" height="16" rx="2"/></clipPath></defs><g><g clip-path="url(#master_svg0_3105_4114)"></g><g clip-path="url(#master_svg1_3105_4111)"><rect x="4" y="4" width="16" height="16" rx="2" fill="#2882FF" fill-opacity="1"/><g><path d="M11.5490166015625,6.940773010253906L11.5490166015625,8.914243010253907L7.5670166015625,8.914243010253907L7.5670166015625,14.140273010253907L8.3920166015625,14.140273010253907L8.3920166015625,13.457243010253906L11.5490166015625,13.457243010253906L11.5490166015625,17.059273010253904L12.418016601562499,17.059273010253904L12.418016601562499,13.457243010253906L15.5860166015625,13.457243010253906L15.5860166015625,14.085103010253906L16.4330166015625,14.085103010253906L16.4330166015625,8.914243010253907L12.418016601562499,8.914243010253907L12.418016601562499,6.940773010253906L11.5490166015625,6.940773010253906ZM8.3920166015625,12.643243010253906L8.3920166015625,9.717243010253906L11.5490166015625,9.717243010253906L11.5490166015625,12.643243010253906L8.3920166015625,12.643243010253906ZM15.5860166015625,12.643243010253906L12.418016601562499,12.643243010253906L12.418016601562499,9.717243010253906L15.5860166015625,9.717243010253906L15.5860166015625,12.643243010253906Z" fill="#FFFFFF" fill-opacity="1"/></g></g></g></svg>