<svg xmlns="http://www.w3.org/2000/svg" xmlns:xlink="http://www.w3.org/1999/xlink" fill="none" version="1.1" width="24" height="24" viewBox="0 0 24 24"><defs><clipPath id="master_svg0_5401_05984"><rect x="0" y="0" width="24" height="24" rx="0"/></clipPath><clipPath id="master_svg1_5401_06014"><rect x="0" y="0" width="24" height="24" rx="0"/></clipPath><clipPath id="master_svg2_5401_06007"><rect x="3.109999895095825" y="2" width="17.7760009765625" height="20" rx="0"/></clipPath></defs><g clip-path="url(#master_svg0_5401_05984)"><g clip-path="url(#master_svg1_5401_06014)"></g><g clip-path="url(#master_svg2_5401_06007)"><g><path d="M20.807009397888184,7.920529189453125C20.806809397888184,7.587549189453125,20.735609397888183,7.293309189453125,20.591609397888185,7.040859189453125C20.450209397888184,6.792469189453125,20.238309397888184,6.584339189453125,19.954109397888182,6.419779189453125C17.608509397888184,5.0672491894531255,15.260509397888184,3.718849189453125,12.915589397888183,2.364940189453125C12.283409397888184,1.999972889453125,11.670469397888183,2.013347189453125,11.042979397888184,2.383554189453125C10.109329397888184,2.934108189453125,5.434859397888184,5.612209189453125,4.041931397888184,6.419019189453125C3.4682823978881836,6.751169189453125,3.1891452878881834,7.259389189453125,3.1890074078881834,7.919909189453125C3.1881111901981836,10.639929189453126,3.1890074078881834,13.359919189453125,3.1881111901981836,16.080019189453125C3.1881111901981836,16.405619189453127,3.256430597888184,16.694219189453126,3.3941033978881836,16.942919189453125C3.5356373978881837,17.198719189453126,3.7504533978881835,17.412619189453125,4.041172397888183,17.580819189453123C5.4341693978881835,18.387619189453126,10.109259397888184,21.065519189453124,11.042699397888184,21.616319189453126C11.670469397888183,21.986719189453126,12.283409397888184,22.000019189453123,12.915799397888184,21.634919189453125C15.260809397888183,20.280919189453126,17.608909397888183,18.932519189453124,19.954909397888184,17.580019189453125C20.245609397888185,17.411819189453126,20.460409397888185,17.197819189453124,20.602009397888185,16.942219189453127C20.739409397888185,16.693419189453124,20.807909397888185,16.404919189453125,20.807909397888185,16.079219189453127Q20.807909397888185,10.640619189453124,20.807009397888184,7.920529189453125Z" fill="#A179DC" fill-opacity="1"/></g><g><path d="M12.024949473953248,11.97344970703125L3.394099473953247,16.942909707031248C3.535633473953247,17.19874970703125,3.750449473953247,17.412599707031248,4.041168473953247,17.58087970703125C5.434169473953247,18.38767970703125,10.109249473953248,21.065579707031247,11.042699473953247,21.61633970703125C11.670469473953247,21.98674970703125,12.283409473953247,21.99994970703125,12.915799473953246,21.63494970703125C15.260799473953247,20.28097970703125,17.608899473953247,18.932579707031252,19.954899473953247,17.58004970703125C20.24559947395325,17.41183970703125,20.460399473953245,17.19784970703125,20.601999473953246,16.94221970703125L12.024949473953248,11.97344970703125Z" fill="#280068" fill-opacity="1"/></g><g><path d="M20.8069959879303,7.9205655546875C20.806855987930298,7.5875865546875,20.735645987930297,7.2933505546875,20.5916259879303,7.0408935546875L12.024955987930298,11.973543554687499L20.6019659879303,16.9422435546875C20.7394359879303,16.6935035546875,20.8077559879303,16.4049935546875,20.807895987930298,16.0792535546875Q20.807895987930298,10.6406535546875,20.8069959879303,7.9205655546875Z" fill="#390091" fill-opacity="1"/></g><g><g><path d="M17.106502755661012,10.11572265625L17.106502755661012,11.04461765625L18.03540275566101,11.04461765625L18.03540275566101,10.11572265625L18.49985275566101,10.11572265625L18.49985275566101,11.04461765625L19.428742755661013,11.04461765625L19.428742755661013,11.50906265625L18.49985275566101,11.50906265625L18.49985275566101,12.43789265625L19.428742755661013,12.43789265625L19.428742755661013,12.90234265625L18.49985275566101,12.90234265625L18.49985275566101,13.83123265625L18.03540275566101,13.83123265625L18.03540275566101,12.90234265625L17.106502755661012,12.90234265625L17.106502755661012,13.83123265625L16.64205875566101,13.83123265625L16.64205875566101,12.90234265625L15.71323275566101,12.90234265625L15.71323275566101,12.43789265625L16.64205875566101,12.43789265625L16.64205875566101,11.50906265625L15.71323275566101,11.50906265625L15.71323275566101,11.04461765625L16.64205875566101,11.04461765625L16.64205875566101,10.11572265625L17.106502755661012,10.11572265625ZM18.03540275566101,11.50899265625L17.106502755661012,11.50899265625L17.106502755661012,12.43789265625L18.03540275566101,12.43789265625L18.03540275566101,11.50899265625Z" fill="#FFFFFF" fill-opacity="1"/></g><g><path d="M12.043903327560425,5.450722656271875C14.466733327560425,5.450722656271875,16.582053327560423,6.766513076171875,17.715053327560426,8.722333076171875L17.704053327560423,8.703513076171875L14.853343327560426,10.344833076171875C14.291763327560425,9.393943076171876,13.262213327560424,8.752183076171875,12.081063327560425,8.738943076171875L12.043833327560424,8.738743076171875C10.242783327560424,8.738743076171875,8.782643327560425,10.198883076171875,8.782643327560425,11.999943076171874C8.782043327560425,12.567613076171874,8.930353327560425,13.125513076171874,9.212753327560424,13.617953076171874C9.774893327560424,14.599313076171875,10.831673327560424,15.261203076171874,12.043903327560425,15.261203076171874C13.263663327560426,15.261203076171874,14.326433327560425,14.590903076171875,14.885673327560426,13.599063076171875L14.872093327560425,13.622853076171875L17.718453327560425,15.271753076171874C16.597753327560426,17.211053076171876,14.511473327560426,18.522753076171874,12.116843327560424,18.548853076171874L12.043913327560425,18.549253076171873C9.613433327560426,18.549253076171873,7.492153327560425,17.225353076171874,6.361954327560425,15.259203076171875C5.810229327560425,14.299353076171874,5.494553327560425,13.186603076171874,5.494553327560425,11.999943076171874C5.494553327560425,8.382943076171875,8.426703327560425,5.450653076171875,12.043843327560424,5.450653076171875L12.043903327560425,5.450722656271875Z" fill="#FFFFFF" fill-opacity="1"/></g></g></g></g></svg>