<svg xmlns="http://www.w3.org/2000/svg" xmlns:xlink="http://www.w3.org/1999/xlink" fill="none" version="1.1" width="24" height="24" viewBox="0 0 24 24"><defs><clipPath id="master_svg0_4476_05849"><rect x="0" y="0" width="24" height="24" rx="0"/></clipPath></defs><g><g clip-path="url(#master_svg0_4476_05849)"></g><g><rect x="3" y="3" width="18" height="18" rx="2" fill="#2882FF" fill-opacity="1"/><g><path d="M9.420375537109376,11.211656024169923C9.316595537109375,11.104206024169923,9.192455537109375,11.018506024169922,9.055205537109375,10.959546024169923C8.917945537109375,10.900586024169922,8.770325537109375,10.86954602416992,8.620955537109374,10.868246024169922C8.471573537109375,10.866946024169922,8.323434537109375,10.895416024169922,8.185176537109374,10.951986024169923C8.046917537109374,11.008546024169922,7.921310537109375,11.092086024169921,7.815680537109375,11.197716024169921C7.710051537109375,11.303346024169922,7.626516537109375,11.428946024169921,7.569950737109375,11.567206024169922C7.513384737109375,11.705466024169922,7.484919967109375,11.853606024169922,7.486218013009375,12.002986024169921C7.487516057109375,12.152356024169922,7.518550137109375,12.299986024169922,7.577510237109375,12.437236024169922C7.636470537109375,12.574486024169921,7.722176537109375,12.698626024169922,7.829625537109375,12.802406024169922C7.829625537109375,12.802406024169922,10.079625537109376,15.052406024169922,10.079625537109376,15.052406024169922C10.290595537109375,15.263306024169921,10.576685537109375,15.381796024169923,10.874995537109374,15.381796024169923C11.173305537109375,15.381796024169923,11.459405537109376,15.263306024169921,11.670375537109376,15.052406024169922C11.670375537109376,15.052406024169922,16.170375537109376,10.552406024169922,16.170375537109376,10.552406024169922C16.277825537109376,10.448626024169922,16.363525537109375,10.324486024169921,16.422485537109374,10.187236024169922C16.481455537109376,10.049986024169922,16.512485537109377,9.902356024169922,16.513785537109374,9.752986024169921C16.515085537109375,9.603605024169921,16.486615537109373,9.455466024169922,16.430045537109375,9.317207024169921C16.373485537109374,9.178949024169922,16.289945537109375,9.053341024169923,16.184315537109377,8.947712024169922C16.078685537109376,8.842082024169923,15.953085537109375,8.758548024169922,15.814825537109375,8.701981724169922C15.676565537109376,8.645415724169922,15.528425537109374,8.616950454169922,15.379055537109375,8.618248499369923C15.229675537109376,8.619546544169921,15.082045537109375,8.650581124169921,14.944795537109375,8.709541224169921C14.807535537109375,8.768501024169922,14.683405537109376,8.854207024169922,14.579625537109376,8.961656024169923C14.579625537109376,8.961656024169923,10.874995537109374,12.66628602416992,10.874995537109374,12.66628602416992C10.874995537109374,12.66628602416992,9.420375537109376,11.211656024169923,9.420375537109376,11.211656024169923C9.420375537109376,11.211656024169923,9.420375537109376,11.211656024169923,9.420375537109376,11.211656024169923Z" fill-rule="evenodd" fill="#FFFFFF" fill-opacity="1"/></g></g></g></svg>