<svg xmlns="http://www.w3.org/2000/svg" xmlns:xlink="http://www.w3.org/1999/xlink" fill="none" version="1.1" width="24" height="24" viewBox="0 0 24 24"><defs><clipPath id="master_svg0_234_6225"><rect x="0" y="0" width="24" height="24" rx="0"/></clipPath></defs><g clip-path="url(#master_svg0_234_6225)"><g transform="matrix(-0.038400229066610336,0.9992624521255493,-0.9992624521255493,-0.038400229066610336,24.14280074945725,-3.309385446296119)"><line x1="13.663726806640625" y1="9.21173095703125" x2="20.668893337249756" y2="9.21173095703125" fill-opacity="0" stroke-opacity="1" stroke="#000000" fill="none" stroke-width="1.5" stroke-linecap="ROUND" stroke-linejoin="round"/></g><g transform="matrix(-0.038400229066610336,-0.9992624521255493,0.9992624521255493,-0.038400229066610336,-5.936721515278919,28.2104985547237)"><line x1="10.605255126953125" y1="16.21173095703125" x2="17.610421657562256" y2="16.21173095703125" fill-opacity="0" stroke-opacity="1" stroke="#000000" fill="none" stroke-width="1.5" stroke-linecap="ROUND" stroke-linejoin="round"/></g><g><path d="M5.519810173828125,5.732823815234375L6.587793173828125,19.615630615234373Q6.632783173828125,20.201430615234376,7.064183173828125,20.600730615234376Q7.495763173828125,21.000130615234376,8.084003173828124,21.000130615234376L15.916003173828125,21.000130615234376Q16.504203173828124,21.000130615234376,16.935803173828127,20.600730615234376Q17.367203173828123,20.201430615234376,17.412203173828125,19.615730615234376L18.480203173828123,5.733599915234375Q18.485603173828125,5.663570615234375,18.503903173828125,5.595759615234375Q18.522203173828125,5.527948615234375,18.552803173828124,5.464712615234375Q18.583303173828124,5.401477615234375,18.625103173828123,5.345017615234375Q18.666903173828125,5.2885576152343745,18.718403173828126,5.240835615234375Q18.769903173828126,5.193114615234375,18.829403173828126,5.155790615234375Q18.888903173828126,5.118467615234375,18.954303173828123,5.092839615234375Q19.019703173828127,5.067211615234375,19.088803173828126,5.054170615234375Q19.157803173828125,5.041130615234375,19.228003173828125,5.041130615234375Q19.301903173828123,5.041130615234375,19.374303173828125,5.055541615234375Q19.446803173828123,5.069952615234375,19.515003173828127,5.098220615234375Q19.583303173828124,5.126489615234375,19.644703173828127,5.167528615234375Q19.706103173828126,5.208567615234375,19.758303173828125,5.260800615234375Q19.810603173828127,5.313033615234375,19.851603173828124,5.374452615234375Q19.892603173828125,5.435872615234375,19.920903173828123,5.504117615234375Q19.949203173828124,5.572363615234375,19.963603173828126,5.644812615234375Q19.978003173828125,5.717262015234375,19.978003173828125,5.791130543234375Q19.978003173828125,5.819938315234375,19.975803173828126,5.848661215234375L18.907803173828125,19.730530615234375Q18.817803173828125,20.902730615234375,17.954703173828126,21.701530615234375Q17.091803173828126,22.500130615234376,15.916003173828125,22.500130615234376L8.084003173828124,22.500130615234376Q6.908153173828126,22.500130615234376,6.045323173828125,21.701530615234375Q5.182220173828125,20.902730615234375,5.092212173828125,19.730630615234375L4.024229173828125,5.847876815234375L4.024212173828125,5.847657115234375Q4.022003173828125,5.818936315234375,4.022003173828125,5.790130615234375Q4.022003173828125,5.716262115234375,4.036414173828125,5.643812615234375Q4.050825173828125,5.571363615234375,4.079093173828125,5.503117615234375Q4.107362173828125,5.434872615234375,4.148401173828125,5.373452615234375Q4.189440173828125,5.312033615234375,4.241673173828125,5.259800615234375Q4.293906173828125,5.207567615234375,4.355325173828125,5.166528615234375Q4.416745173828125,5.125489615234375,4.484990173828125,5.097220615234375Q4.553236173828125,5.068952615234375,4.625685173828125,5.054541615234375Q4.698134673828125,5.040130615234375,4.772003173828125,5.040130615234375Q4.842239573828125,5.040130615234375,4.911255173828125,5.053171615234375Q4.980270173828125,5.066211615234375,5.045664173828125,5.091839615234375Q5.111057173828125,5.117467615234375,5.170556173828125,5.154791615234375Q5.230055173828125,5.192115615234375,5.281589173828125,5.239837615234375Q5.333123173828125,5.287559615234375,5.374901173828125,5.344019615234375Q5.416678173828125,5.400480615234375,5.447246173828125,5.463715615234375Q5.477815173828125,5.526951615234375,5.496110173828125,5.594762615234375Q5.514406173828125,5.662574615234375,5.519794173828125,5.732604115234375L5.519810173828125,5.732823815234375Z" fill-rule="evenodd" fill="#000000" fill-opacity="1"/></g><g><path d="M7.5,4.4771279296875L7.5,5.3931279296875Q7.5,5.4669979296874995,7.514411,5.539447929687499Q7.528822,5.611897929687499,7.55709,5.6801379296875005Q7.585359,5.7483879296875,7.626398,5.8098079296875Q7.667437,5.8712279296875,7.71967,5.923457929687499Q7.771903,5.9756879296875,7.833322,6.0167279296875Q7.894742,6.0577679296875,7.962987,6.0860379296875Q8.031233,6.1143079296875005,8.103682,6.1287179296875Q8.1761315,6.1431279296875,8.25,6.1431279296875Q8.3238685,6.1431279296875,8.396318,6.1287179296875Q8.468767,6.1143079296875005,8.537013,6.0860379296875Q8.605258,6.0577679296875,8.666678,6.0167279296875Q8.728097,5.9756879296875,8.78033,5.923457929687499Q8.832563,5.8712279296875,8.873602,5.8098079296875Q8.914641,5.7483879296875,8.94291,5.6801379296875005Q8.971178,5.611897929687499,8.985589000000001,5.539447929687499Q9,5.4669979296874995,9,5.3931279296875L9,4.4771279296875Q9,3.8857679296875,9.398530000000001,3.4625279296875Q9.79295,3.0436499296875,10.36351,3.0257599296875Q12,2.9739719296875,13.63628,3.0257529296875Q14.20728,3.0436569296875,14.60155,3.4622379296875003Q15,3.8852579296875,15,4.4771279296875L15,5.3931279296875Q15,5.4669979296874995,15.01441,5.539447929687499Q15.02882,5.611897929687499,15.057089999999999,5.6801379296875005Q15.08536,5.7483879296875,15.1264,5.8098079296875Q15.16744,5.8712279296875,15.21967,5.923457929687499Q15.271899999999999,5.9756879296875,15.33332,6.0167279296875Q15.394739999999999,6.0577679296875,15.46299,6.0860379296875Q15.53123,6.1143079296875005,15.60368,6.1287179296875Q15.67613,6.1431279296875,15.75,6.1431279296875Q15.82387,6.1431279296875,15.89632,6.1287179296875Q15.96877,6.1143079296875005,16.037010000000002,6.0860379296875Q16.10526,6.0577679296875,16.16668,6.0167279296875Q16.2281,5.9756879296875,16.28033,5.923457929687499Q16.33256,5.8712279296875,16.3736,5.8098079296875Q16.41464,5.7483879296875,16.442909999999998,5.6801379296875005Q16.47118,5.611897929687499,16.485590000000002,5.539447929687499Q16.5,5.4669979296874995,16.5,5.3931279296875L16.5,4.4771279296875Q16.5,3.2900579296875003,15.69345,2.4337659296875Q14.87404,1.5638269296875,13.683720000000001,1.5265029296875001Q12,1.4732209296874998,10.31649,1.5264969296875Q9.126059,1.5638229296875,8.3064708,2.4342259296875Q7.5,3.2906979296875,7.5,4.4771279296875Z" fill-rule="evenodd" fill="#000000" fill-opacity="1"/></g><g><path d="M3.877832,6.694151098632813Q12.01003,5.287518498632813,20.1218,6.695081098632812Q20.1854,6.706131098632812,20.25,6.706131098632812Q20.3239,6.706131098632812,20.3963,6.691711098632813Q20.4688,6.677301098632812,20.537,6.649031098632813Q20.6053,6.6207710986328125,20.6667,6.579731098632813Q20.7281,6.538691098632812,20.7803,6.486461098632812Q20.8326,6.434221098632813,20.8736,6.372801098632813Q20.9146,6.311381098632813,20.9429,6.243139098632812Q20.9712,6.174893098632813,20.9856,6.102444098632812Q21,6.029995098632813,21,5.956126098632812Q21,5.890381098632813,20.9886,5.825639098632813Q20.9771,5.760896098632813,20.9546,5.699132098632813Q20.9321,5.637367098632812,20.8991,5.580463098632812Q20.8662,5.523560098632813,20.8239,5.473254098632813Q20.7816,5.422948098632813,20.7311,5.380774098632813Q20.6807,5.338599298632812,20.6237,5.305842998632812Q20.5667,5.2730867986328125,20.5048,5.250747838632813Q20.443,5.2284088986328126,20.3782,5.217168698632812Q12.01079,3.7652310986328126,3.62288,5.215977698632813L3.622172,5.216099898632812L3.877832,6.694151098632813Z" fill-rule="evenodd" fill="#000000" fill-opacity="1"/></g></g></svg>