<svg xmlns="http://www.w3.org/2000/svg" xmlns:xlink="http://www.w3.org/1999/xlink" fill="none" version="1.1" width="24" height="24" viewBox="0 0 24 24"><defs><clipPath id="master_svg0_5292_05787"><rect x="0" y="0" width="24" height="24" rx="0"/></clipPath></defs><g clip-path="url(#master_svg0_5292_05787)"><g><path d="M22.75,12Q22.75,12.2639,22.7371,12.5275Q22.7241,12.7911,22.6982,13.0537Q22.6724,13.3163,22.6336,13.5774Q22.5949,13.8384,22.5434,14.0972Q22.492,14.356,22.4278,14.612Q22.3637,14.868,22.2871,15.1206Q22.2105,15.3731,22.1216,15.6216Q22.0327,15.87,21.9317,16.113799999999998Q21.8307,16.3577,21.7179,16.5962Q21.6051,16.8348,21.4807,17.067500000000003Q21.3563,17.3003,21.2206,17.526600000000002Q21.0849,17.753,20.9383,17.9724Q20.7917,18.1918,20.6345,18.4038Q20.4773,18.6157,20.3099,18.8197Q20.1424,19.0237,19.9652,19.2193Q19.788,19.4148,19.6014,19.6014Q19.4148,19.788,19.2193,19.9652Q19.0237,20.1424,18.8197,20.3099Q18.6157,20.4773,18.4038,20.6345Q18.1918,20.7917,17.9724,20.9383Q17.753,21.0849,17.526600000000002,21.2206Q17.3003,21.3563,17.067500000000003,21.4807Q16.8348,21.6051,16.5962,21.7179Q16.3577,21.8307,16.113799999999998,21.9317Q15.87,22.0327,15.6216,22.1216Q15.3731,22.2105,15.1206,22.2871Q14.868,22.3637,14.612,22.4278Q14.356,22.492,14.0972,22.5434Q13.8384,22.5949,13.5774,22.6336Q13.3163,22.6724,13.0537,22.6982Q12.7911,22.7241,12.5275,22.7371Q12.2639,22.75,12,22.75Q11.7361,22.75,11.47252,22.7371Q11.20894,22.7241,10.94632,22.6982Q10.68369,22.6724,10.42265,22.6336Q10.16161,22.5949,9.90278,22.5434Q9.64395,22.492,9.38796,22.4278Q9.131969999999999,22.3637,8.879439999999999,22.2871Q8.6269,22.2105,8.37843,22.1216Q8.12996,22.0327,7.88615,21.9317Q7.64234,21.8307,7.40378,21.7179Q7.16522,21.6051,6.93249,21.4807Q6.69975,21.3563,6.4734,21.2206Q6.24704,21.0849,6.02762,20.9383Q5.808199999999999,20.7917,5.59623,20.6345Q5.38427,20.4773,5.18027,20.3099Q4.97628,20.1424,4.78074,19.9652Q4.58521,19.788,4.3986,19.6014Q4.212,19.4148,4.03478,19.2193Q3.85755,19.0237,3.69014,18.8197Q3.52272,18.6157,3.36552,18.4038Q3.20832,18.1918,3.0617,17.9724Q2.915088,17.753,2.779417,17.526600000000002Q2.643747,17.3003,2.519346,17.067500000000003Q2.394946,16.8348,2.282115,16.5962Q2.169284,16.3577,2.068295,16.113799999999998Q1.9673058,15.87,1.878401,15.6216Q1.789497,15.3731,1.712891,15.1206Q1.6362860000000001,14.868,1.572164,14.612Q1.508042,14.356,1.456558,14.0972Q1.405074,13.8384,1.3663530000000002,13.5774Q1.327631,13.3163,1.301764,13.0537Q1.275898,12.7911,1.2629489999999999,12.5275Q1.25,12.2639,1.25,12Q1.25,11.7361,1.2629489999999999,11.47252Q1.275898,11.20894,1.301764,10.94632Q1.327631,10.68369,1.3663530000000002,10.42265Q1.405074,10.16161,1.456558,9.90278Q1.508042,9.64395,1.572164,9.38796Q1.6362860000000001,9.131969999999999,1.712891,8.879439999999999Q1.789497,8.6269,1.878401,8.37843Q1.9673058,8.12996,2.068295,7.88615Q2.169284,7.64234,2.282115,7.40378Q2.394946,7.16522,2.519346,6.93249Q2.643747,6.69975,2.779417,6.4734Q2.915088,6.24704,3.0617,6.02762Q3.20832,5.808199999999999,3.36552,5.59623Q3.52272,5.38427,3.69014,5.18027Q3.85755,4.97628,4.03478,4.78074Q4.212,4.58521,4.3986,4.3986Q4.58521,4.212,4.78074,4.03478Q4.97628,3.85755,5.18027,3.69014Q5.38427,3.52272,5.59623,3.36552Q5.808199999999999,3.20832,6.02762,3.0617Q6.24704,2.915088,6.4734,2.779417Q6.69975,2.643747,6.93249,2.519346Q7.16522,2.394946,7.40378,2.282115Q7.64234,2.169284,7.88615,2.068295Q8.12996,1.9673058,8.37843,1.878401Q8.6269,1.789497,8.879439999999999,1.712891Q9.131969999999999,1.6362860000000001,9.38796,1.572164Q9.64395,1.508042,9.90278,1.456558Q10.16161,1.405074,10.42265,1.3663530000000002Q10.68369,1.327631,10.94632,1.301764Q11.20894,1.275898,11.47252,1.2629489999999999Q11.7361,1.25,12,1.25Q12.2639,1.25,12.5275,1.2629489999999999Q12.7911,1.275898,13.0537,1.301764Q13.3163,1.327631,13.5774,1.3663530000000002Q13.8384,1.405074,14.0972,1.456558Q14.356,1.508042,14.612,1.572164Q14.868,1.6362860000000001,15.1206,1.712891Q15.3731,1.789497,15.6216,1.878401Q15.87,1.9673058,16.113799999999998,2.068295Q16.3577,2.169284,16.5962,2.282115Q16.8348,2.394946,17.067500000000003,2.519346Q17.3003,2.643747,17.526600000000002,2.779417Q17.753,2.915088,17.9724,3.0617Q18.1918,3.20832,18.4038,3.36552Q18.6157,3.52272,18.8197,3.69014Q19.0237,3.85755,19.2193,4.03478Q19.4148,4.212,19.6014,4.3986Q19.788,4.58521,19.9652,4.78074Q20.1424,4.97628,20.3099,5.18027Q20.4773,5.38427,20.6345,5.59623Q20.7917,5.808199999999999,20.9383,6.02762Q21.0849,6.24704,21.2206,6.4734Q21.3563,6.69975,21.4807,6.93249Q21.6051,7.16522,21.7179,7.40378Q21.8307,7.64234,21.9317,7.88615Q22.0327,8.12996,22.1216,8.37843Q22.2105,8.6269,22.2871,8.879439999999999Q22.3637,9.131969999999999,22.4278,9.38796Q22.492,9.64395,22.5434,9.90278Q22.5949,10.16161,22.6336,10.42265Q22.6724,10.68369,22.6982,10.94632Q22.7241,11.20894,22.7371,11.47252Q22.75,11.7361,22.75,12ZM21.25,12Q21.25,11.77292,21.2389,11.54612Q21.2277,11.31932,21.2055,11.09334Q21.1832,10.86736,21.1499,10.64274Q21.1166,10.41813,21.0723,10.19541Q21.028,9.9727,20.9728,9.75243Q20.9176,9.532160000000001,20.8517,9.314869999999999Q20.7858,9.097570000000001,20.7093,8.88377Q20.6328,8.66997,20.5459,8.460180000000001Q20.459,8.25039,20.3619,8.045110000000001Q20.2648,7.83984,20.1578,7.63958Q20.0507,7.43932,19.934,7.24455Q19.8172,7.04978,19.6911,6.86097Q19.5649,6.67217,19.4297,6.48978Q19.2944,6.30739,19.1503,6.13186Q19.0063,5.9563299999999995,18.8538,5.78808Q18.7013,5.61983,18.5407,5.4592600000000004Q18.3802,5.2987,18.2119,5.1462Q18.0437,4.99371,17.8681,4.8496500000000005Q17.6926,4.7056000000000004,17.510199999999998,4.57033Q17.3278,4.43506,17.139,4.30891Q16.950200000000002,4.18275,16.755499999999998,4.06601Q16.5607,3.9492700000000003,16.3604,3.84223Q16.1602,3.7351900000000002,15.9549,3.6380999999999997Q15.7496,3.54101,15.5398,3.45411Q15.33,3.36722,15.1162,3.2907200000000003Q14.9024,3.21422,14.6851,3.1483Q14.4678,3.08239,14.2476,3.02721Q14.0273,2.972036,13.8046,2.927736Q13.5819,2.883436,13.3573,2.850117Q13.1326,2.816799,12.9067,2.794541Q12.6807,2.772284,12.4539,2.761142Q12.2271,2.75,12,2.75Q11.77292,2.75,11.54612,2.761142Q11.31932,2.772284,11.09334,2.794541Q10.86736,2.816799,10.64274,2.850117Q10.41813,2.883436,10.19541,2.927736Q9.9727,2.972036,9.75243,3.02721Q9.532160000000001,3.08239,9.314869999999999,3.1483Q9.097570000000001,3.21422,8.88377,3.2907200000000003Q8.66997,3.36722,8.460180000000001,3.45411Q8.25039,3.54101,8.045110000000001,3.6380999999999997Q7.83984,3.7351900000000002,7.63958,3.84223Q7.43932,3.9492700000000003,7.24455,4.06601Q7.04978,4.18275,6.86097,4.30891Q6.67217,4.43506,6.48978,4.57033Q6.30739,4.7056000000000004,6.13186,4.8496500000000005Q5.9563299999999995,4.99371,5.78808,5.1462Q5.61983,5.2987,5.4592600000000004,5.4592600000000004Q5.2987,5.61983,5.1462,5.78808Q4.99371,5.9563299999999995,4.8496500000000005,6.13186Q4.7056000000000004,6.30739,4.57033,6.48978Q4.43506,6.67217,4.30891,6.86097Q4.18275,7.04978,4.06601,7.24455Q3.9492700000000003,7.43932,3.84223,7.63958Q3.7351900000000002,7.83984,3.6380999999999997,8.045110000000001Q3.54101,8.25039,3.45411,8.460180000000001Q3.36722,8.66997,3.2907200000000003,8.88377Q3.21422,9.097570000000001,3.1483,9.314869999999999Q3.08239,9.532160000000001,3.02721,9.75243Q2.972036,9.9727,2.927736,10.19541Q2.883436,10.41813,2.850117,10.64274Q2.816798,10.86736,2.794541,11.09334Q2.772284,11.31932,2.761142,11.54612Q2.75,11.77292,2.75,12Q2.75,12.2271,2.761142,12.4539Q2.772284,12.6807,2.794541,12.9067Q2.816798,13.1326,2.850117,13.3573Q2.883436,13.5819,2.927736,13.8046Q2.972036,14.0273,3.02721,14.2476Q3.08239,14.4678,3.1483,14.6851Q3.21422,14.9024,3.2907200000000003,15.1162Q3.36722,15.33,3.45411,15.5398Q3.54101,15.7496,3.6380999999999997,15.9549Q3.7351900000000002,16.1602,3.84223,16.3604Q3.9492700000000003,16.5607,4.06601,16.7554Q4.18275,16.950200000000002,4.30891,17.139Q4.43506,17.3278,4.57033,17.510199999999998Q4.7056000000000004,17.6926,4.8496500000000005,17.8681Q4.99371,18.0437,5.1462,18.2119Q5.2987,18.3802,5.4592600000000004,18.5407Q5.61983,18.7013,5.78808,18.8538Q5.9563299999999995,19.0063,6.13186,19.1503Q6.30739,19.2944,6.48978,19.4297Q6.67217,19.5649,6.86097,19.6911Q7.04978,19.8172,7.24455,19.934Q7.43932,20.0507,7.63958,20.1578Q7.83984,20.2648,8.045110000000001,20.3619Q8.25039,20.459,8.460180000000001,20.5459Q8.66997,20.6328,8.88377,20.7093Q9.097570000000001,20.7858,9.314869999999999,20.8517Q9.532160000000001,20.9176,9.75243,20.9728Q9.9727,21.028,10.19541,21.0723Q10.41813,21.1166,10.64274,21.1499Q10.86736,21.1832,11.09334,21.2055Q11.31932,21.2277,11.54612,21.2389Q11.77292,21.25,12,21.25Q12.2271,21.25,12.4539,21.2389Q12.6807,21.2277,12.9067,21.2055Q13.1326,21.1832,13.3573,21.1499Q13.5819,21.1166,13.8046,21.0723Q14.0273,21.028,14.2476,20.9728Q14.4678,20.9176,14.6851,20.8517Q14.9024,20.7858,15.1162,20.7093Q15.33,20.6328,15.5398,20.5459Q15.7496,20.459,15.9549,20.3619Q16.1602,20.2648,16.3604,20.1578Q16.5607,20.0507,16.7554,19.934Q16.950200000000002,19.8172,17.139,19.6911Q17.3278,19.5649,17.510199999999998,19.4297Q17.6926,19.2944,17.8681,19.1503Q18.0437,19.0063,18.2119,18.8538Q18.3802,18.7013,18.5407,18.5407Q18.7013,18.3802,18.8538,18.2119Q19.0063,18.0437,19.1503,17.8681Q19.2944,17.6926,19.4297,17.510199999999998Q19.5649,17.3278,19.6911,17.139Q19.8172,16.950200000000002,19.934,16.755499999999998Q20.0507,16.5607,20.1578,16.3604Q20.2648,16.1602,20.3619,15.9549Q20.459,15.7496,20.5459,15.5398Q20.6328,15.33,20.7093,15.1162Q20.7858,14.9024,20.8517,14.6851Q20.9176,14.4678,20.9728,14.2476Q21.028,14.0273,21.0723,13.8046Q21.1166,13.5819,21.1499,13.3573Q21.1832,13.1326,21.2055,12.9067Q21.2277,12.6807,21.2389,12.4539Q21.25,12.2271,21.25,12Z" fill="#333333" fill-opacity="1"/></g><g><path d="M8.030484,9.969824L12,13.93934L15.96921,9.970132L15.96967,9.96967Q16.07516,9.864181,16.212989999999998,9.80709Q16.35082,9.75,16.5,9.75Q16.57387,9.75,16.64632,9.764410999999999Q16.71877,9.778822,16.787010000000002,9.80709Q16.85526,9.835359,16.91668,9.876398Q16.978099999999998,9.917437,17.03033,9.96967Q17.08256,10.021903,17.1236,10.083322Q17.16464,10.144742,17.192909999999998,10.212987Q17.22118,10.281233,17.235590000000002,10.353682Q17.25,10.4261315,17.25,10.5Q17.25,10.649184,17.192909999999998,10.787013Q17.135820000000002,10.924841,17.03033,11.03033L17.029870000000003,11.030792L12.53033,15.53033Q12.478100000000001,15.58256,12.41668,15.6236Q12.355260000000001,15.66464,12.28701,15.692910000000001Q12.21877,15.72118,12.14632,15.73559Q12.07387,15.75,12,15.75Q11.92613,15.75,11.85368,15.73559Q11.78123,15.72118,11.71299,15.692910000000001Q11.644739999999999,15.66464,11.58332,15.6236Q11.521899999999999,15.58256,11.46967,15.53033L6.969824,11.030484L6.96967,11.03033Q6.864181,10.924841,6.80709,10.787013Q6.75,10.649184,6.75,10.5Q6.75,10.4261315,6.764411,10.353682Q6.778822,10.281233,6.80709,10.212987Q6.835359,10.144742,6.876398,10.083322Q6.917437,10.021903,6.96967,9.96967Q7.021903,9.917437,7.083322,9.876398Q7.144742,9.835359,7.212987,9.80709Q7.281233,9.778822,7.353682,9.764410999999999Q7.4261315,9.75,7.5,9.75Q7.649184,9.75,7.787013,9.80709Q7.924841,9.864181,8.03033,9.96967L8.030484,9.969824Z" fill-rule="evenodd" fill="#333333" fill-opacity="1"/></g></g></svg>