<svg xmlns="http://www.w3.org/2000/svg" xmlns:xlink="http://www.w3.org/1999/xlink" fill="none" version="1.1" width="24" height="24" viewBox="0 0 24 24"><defs><clipPath id="master_svg0_5437_05996"><rect x="3" y="3" width="18" height="18" rx="0"/></clipPath></defs><g><g clip-path="url(#master_svg0_5437_05996)"><g><g><path d="M18.37457275390625,20.625030517578125L5.62457275390625,20.625030517578125C5.21019775390625,20.625030517578125,4.87457275390625,20.289430517578126,4.87457275390625,19.875030517578125L4.87457275390625,4.125030517578125C4.87457275390625,3.710655517578125,5.21019775390625,3.375030517578125,5.62457275390625,3.375030517578125L14.62457275390625,3.375030517578125L19.12457275390625,7.875030517578125L19.12457275390625,19.875030517578125C19.12457275390625,20.289430517578126,18.78897275390625,20.625030517578125,18.37457275390625,20.625030517578125Z" fill="#C2CCD3" fill-opacity="1" style="mix-blend-mode:passthrough"/></g><g><path d="M14.62542724609375,3.375030517578125L14.62542724609375,7.125030517578125C14.62542724609375,7.539400517578125,14.96105224609375,7.875030517578125,15.37542724609375,7.875030517578125L19.12542724609375,7.875030517578125L14.62542724609375,3.375030517578125Z" fill="#8195A2" fill-opacity="1" style="mix-blend-mode:passthrough"/></g></g><g><g><path d="M16.714287216796876,12.642822265625L7.285718216796875,12.642822265625C7.049025216796875,12.642822265625,6.857147216796875,12.930639265625,6.857147216796875,13.285679265625C6.857147216796875,13.640720265625,7.049025216796875,13.928532265625,7.285718216796875,13.928532265625L16.714287216796876,13.928532265625C16.950947216796877,13.928532265625,17.142847216796874,13.640720265625,17.142847216796874,13.285679265625C17.142847216796874,12.930639265625,16.950947216796877,12.642822265625,16.714287216796876,12.642822265625Z" fill-rule="evenodd" fill="#FFFFFF" fill-opacity="1"/></g><g><path d="M16.714287216796876,9.4285888671875L7.285718216796875,9.4285888671875C7.049025216796875,9.4285888671875,6.857147216796875,9.7164058671875,6.857147216796875,10.0714458671875C6.857147216796875,10.4264868671875,7.049025216796875,10.7142988671875,7.285718216796875,10.7142988671875L16.714287216796876,10.7142988671875C16.950947216796877,10.7142988671875,17.142847216796874,10.4264868671875,17.142847216796874,10.0714458671875C17.142847216796874,9.7164058671875,16.950947216796877,9.4285888671875,16.714287216796876,9.4285888671875Z" fill-rule="evenodd" fill="#FFFFFF" fill-opacity="1"/></g><g><path d="M12.000007216796874,15.857177734375L7.285718216796875,15.857177734375C7.049025216796875,15.857177734375,6.857147216796875,16.144994734375,6.857147216796875,16.500034734375C6.857147216796875,16.855075734375,7.049025216796875,17.142887734375,7.285718216796875,17.142887734375L12.000007216796874,17.142887734375C12.236697216796875,17.142887734375,12.428577216796874,16.855075734375,12.428577216796874,16.500034734375C12.428577216796874,16.144994734375,12.236697216796875,15.857177734375,12.000007216796874,15.857177734375Z" fill-rule="evenodd" fill="#FFFFFF" fill-opacity="1"/></g></g></g></g></svg>