<svg xmlns="http://www.w3.org/2000/svg" xmlns:xlink="http://www.w3.org/1999/xlink" fill="none" version="1.1" width="24" height="24" viewBox="0 0 24 24"><defs><clipPath id="master_svg0_5445_06352"><rect x="0" y="0" width="24" height="24" rx="0"/></clipPath><clipPath id="master_svg1_5445_06374"><rect x="3" y="3" width="18" height="18" rx="0"/></clipPath></defs><g><g clip-path="url(#master_svg0_5445_06352)"></g><g><g clip-path="url(#master_svg1_5445_06374)"><g><g><g><path d="M13.85714285797119,13.013611770105362C13.602892857971192,12.421861770105362,10.712772857971192,9.150361770105363,9.482019857971192,7.772239770105362C9.30314485797119,7.570864470105362,9.003894857971192,7.525864470105362,8.774394857971192,7.664239170105362C8.542644557971192,7.802614770105362,8.442519257971192,8.086113770105362,8.534769557971192,8.339238770105363C8.614644857971191,8.560863770105362,10.508022857971191,13.767361770105362,10.75664285797119,14.34561177010536C11.031142857971192,14.983491770105362,11.655522857971192,15.367111770105362,12.310272857971192,15.367111770105362C12.53189285797119,15.367111770105362,12.758022857971191,15.323241770105362,12.974022857971192,15.229861770105362C13.827892857971191,14.861991770105362,14.22502285797119,13.868611770105362,13.85827285797119,13.013611770105362L13.85714285797119,13.013611770105362Z" fill="#2882FF" fill-opacity="1"/></g><g><path d="M11.999999046325684,3C7.037619046325684,3,2.9999990463256836,7.03762,2.9999990463256836,12C2.9999990463256836,16.962400000000002,7.037619046325684,21,11.999999046325684,21C16.962399046325686,21,20.999999046325684,16.962400000000002,20.999999046325684,12C20.999999046325684,7.03762,16.962399046325686,3,11.999999046325684,3ZM15.625899046325683,13.125C15.874499046325683,14.6213,15.093799046325683,16.154600000000002,13.640199046325684,16.780099999999997C13.216099046325684,16.962400000000002,12.768379046325684,17.0546,12.309369046325683,17.0546C10.958249046325683,17.0546,9.739869046325683,16.2536,9.206619046325685,15.0139C9.110999046325684,14.7911,8.826379046325684,14.034,8.489999046325684,13.125L5.351249046325684,13.125C5.2893690463256835,12.75825,5.249999046325684,12.38363,5.249999046325684,12C5.249999046325684,8.27738,8.277379046325684,5.25,11.999999046325684,5.25C15.722599046325684,5.25,18.749999046325684,8.27738,18.749999046325684,12C18.749999046325684,12.38363,18.710599046325683,12.75825,18.648799046325685,13.125L15.625899046325683,13.125Z" fill="#2882FF" fill-opacity="1"/></g><g><path d="M21.249999046325684,11.999998718500137Q21.249999046325684,15.825298718500138,18.537699046325685,18.53769871850014Q15.825299046325684,21.249998718500137,11.999999046325684,21.249998718500137Q8.174669046325683,21.249998718500137,5.462329046325683,18.53769871850014Q2.7500003278256835,15.825298718500138,2.7499990463256836,11.999998718500137Q2.7500003278256835,8.174668718500136,5.462329046325683,5.462328718500137Q8.174669046325683,2.7500000000001372,11.999999046325684,2.7499987185001373Q15.825299046325684,2.7499974370001374,18.537699046325685,5.462328718500137Q21.249999046325684,8.174658718500137,21.249999046325684,11.999998718500137ZM20.749999046325684,11.999998718500137Q20.749999046325684,8.381768718500137,18.184099046325684,5.815888718500137Q15.618199046325683,3.2499997185001375,11.999999046325684,3.2499987185001373Q8.381779046325683,3.2499997185001375,5.815889046325683,5.815888718500137Q3.2500000463256837,8.381768718500137,3.2499990463256836,11.999998718500137Q3.2500000463256837,15.618198718500137,5.815889046325683,18.184098718500138Q8.381769046325683,20.749998718500137,11.999999046325684,20.749998718500137Q15.618199046325683,20.749998718500137,18.184099046325684,18.184098718500138Q20.749999046325684,15.618198718500137,20.749999046325684,11.999998718500137ZM18.648799046325685,13.374998718500137L15.909799046325684,13.374998718500137Q16.004999046325686,14.434398718500137,15.491999046325684,15.396698718500136Q14.897799046325684,16.511098718500136,13.739099046325684,17.009798718500136Q13.052899046325683,17.304598718500138,12.309379046325684,17.304598718500138Q11.221099046325683,17.304598718500138,10.313929046325683,16.707998718500136Q9.406499046325685,16.111298718500137,8.976969046325683,15.112698718500138Q8.853309046325684,14.824598718500138,8.315989046325683,13.374998718500137L5.1398990463256835,13.374998718500137L5.104739046325683,13.166598718500138Q4.999999046325684,12.545808718500137,4.999999046325684,11.999998718500137Q4.999999046325684,9.104478718500136,7.052239046325684,7.052238718500138Q9.104479046325682,4.999998718500137,11.999999046325684,4.999998718500137Q14.895499046325684,4.999998718500137,16.947799046325684,7.052238718500138Q18.999999046325684,9.104468718500137,18.999999046325684,11.999998718500137Q18.999999046325684,12.545828718500138,18.895299046325682,13.166598718500138L18.860099046325683,13.374998718500137L18.648799046325685,13.374998718500137ZM18.499999046325684,11.999998718500137Q18.499999046325684,12.412228718500137,18.434599046325683,12.874998718500137L15.330899046325683,12.874998718500137L15.379299046325684,13.165998718500138Q15.553999046325684,14.217598718500136,15.050799046325684,15.161498718500138Q14.539099046325683,16.12119871850014,13.541399046325683,16.550498718500137Q12.949999046325683,16.804598718500138,12.309379046325684,16.804598718500138Q11.370769046325684,16.804598718500138,10.588669046325684,16.29029871850014Q9.806549046325683,15.775898718500137,9.436279046325684,14.915098718500138Q9.311009046325683,14.623298718500138,8.724459046325684,13.038198718500137L8.664059046325683,12.874998718500137L5.565419046325683,12.874998718500137Q5.499999046325684,12.412218718500137,5.499999046325684,11.999998718500137Q5.499999046325684,9.311588718500136,7.405789046325683,7.4057987185001375Q9.311589046325683,5.500008718500137,11.999999046325684,5.499998718500137Q14.688399046325683,5.499998718500137,16.594199046325684,7.405788718500137Q18.499999046325684,9.311578718500137,18.499999046325684,11.999998718500137Z" fill-rule="evenodd" fill="#FFFFFF" fill-opacity="1"/></g></g></g></g></g></g></svg>