<svg xmlns="http://www.w3.org/2000/svg" xmlns:xlink="http://www.w3.org/1999/xlink" fill="none" version="1.1" width="24" height="24" viewBox="0 0 24 24"><defs><clipPath id="master_svg0_5481_07935"><rect x="0" y="0" width="24" height="24" rx="0"/></clipPath><clipPath id="master_svg1_5481_07936"><rect x="0" y="0" width="24" height="24" rx="0"/></clipPath></defs><g clip-path="url(#master_svg0_5481_07935)"><g clip-path="url(#master_svg1_5481_07936)"></g><g><rect x="17.339996337890625" y="15.83331298828125" width="3.5625" height="3.5" rx="1" fill="#38363C" fill-opacity="1"/></g><g><path d="M10.224999904632568,4L10.224999904632568,5.5Q10.224999904632568,5.59849,10.24420990463257,5.69509Q10.263429904632568,5.79169,10.301119904632568,5.882680000000001Q10.33880990463257,5.97368,10.393529904632569,6.0555699999999995Q10.448249904632569,6.13746,10.517889904632568,6.20711Q10.587539904632568,6.27675,10.669429904632569,6.3314699999999995Q10.751319904632568,6.38619,10.842319904632568,6.4238800000000005Q10.93330990463257,6.46157,11.029909904632568,6.48078Q11.126509904632568,6.5,11.224999904632568,6.5L12.787499904632568,6.5Q12.885989904632568,6.5,12.982589904632569,6.48078Q13.079189904632567,6.46157,13.170199904632568,6.4238800000000005Q13.261199904632567,6.38619,13.343099904632568,6.3314699999999995Q13.424999904632568,6.27675,13.494599904632569,6.20711Q13.564199904632568,6.13746,13.618999904632568,6.0555699999999995Q13.673699904632569,5.97368,13.711399904632568,5.882680000000001Q13.749099904632569,5.79169,13.768299904632569,5.69509Q13.787499904632568,5.59849,13.787499904632568,5.5L13.787499904632568,4Q13.787499904632568,3.901509,13.768299904632569,3.80491Q13.749099904632569,3.708311,13.711399904632568,3.6173159999999998Q13.673699904632569,3.526322,13.618999904632568,3.44443Q13.564199904632568,3.362537,13.494599904632569,3.292893Q13.424999904632568,3.223249,13.343099904632568,3.16853Q13.261199904632567,3.113811,13.170199904632568,3.0761205Q13.079189904632567,3.0384294,12.982589904632569,3.0192147Q12.885989904632568,3,12.787499904632568,3L11.224999904632568,3Q11.126509904632568,3,11.029909904632568,3.0192147Q10.93330990463257,3.0384294,10.842319904632568,3.0761205Q10.751319904632568,3.113811,10.669429904632569,3.16853Q10.587539904632568,3.223249,10.517889904632568,3.292893Q10.448249904632569,3.362537,10.393529904632569,3.44443Q10.33880990463257,3.526322,10.301119904632568,3.6173159999999998Q10.263429904632568,3.708311,10.24420990463257,3.80491Q10.224999904632568,3.901509,10.224999904632568,4ZM11.412499904632568,8.25002C11.412499904632568,7.92785,11.678329904632568,7.66669,12.006249904632568,7.66669C12.334169904632569,7.66669,12.599999904632568,7.92785,12.599999904632568,8.25002L12.599999904632568,10.00002L19.131199904632567,10.00002C19.45919990463257,10.00002,19.72499990463257,10.26119,19.72499990463257,10.58335L19.72499990463257,14C19.72499990463257,14.3222,19.45919990463257,14.5834,19.131199904632567,14.5834C18.803299904632567,14.5834,18.53749990463257,14.3222,18.53749990463257,14L18.53749990463257,11.16669L12.599999904632568,11.16669L12.599999904632568,14.0834C12.599999904632568,14.4055,12.334169904632569,14.6667,12.006249904632568,14.6667C11.678329904632568,14.6667,11.412499904632568,14.4055,11.412499904632568,14.0834L11.412499904632568,11.16669L5.474999904632568,11.16669L5.474999904632568,14.0834C5.474999904632568,14.4055,5.209169904632569,14.6667,4.881249904632568,14.6667C4.553329904632569,14.6667,4.287499904632568,14.4055,4.287499904632568,14.0834L4.287499904632568,10.58335C4.287499904632568,10.26118,4.553329904632569,10.00002,4.881249904632568,10.00002L11.412499904632568,10.00002L11.412499904632568,8.25002ZM3.0999999046325684,16.8333L3.0999999046325684,18.3333Q3.0999999046325684,18.431800000000003,3.1192146046325684,18.528399999999998Q3.1384293046325684,18.625,3.1761204046325684,18.716Q3.2138109046325685,18.807000000000002,3.2685299046325684,18.8889Q3.3232489046325684,18.9708,3.392892904632568,19.0404Q3.4625369046325685,19.1101,3.5444299046325685,19.1648Q3.6263219046325683,19.2195,3.717315904632568,19.2572Q3.8083109046325685,19.2949,3.9049099046325684,19.3141Q4.001508904632568,19.3333,4.099999904632568,19.3333L5.662499904632568,19.3333Q5.760989904632568,19.3333,5.857589904632569,19.3141Q5.954189904632568,19.2949,6.045179904632569,19.2572Q6.136179904632568,19.2195,6.218069904632568,19.1648Q6.299959904632568,19.1101,6.3696099046325685,19.0404Q6.439249904632568,18.9708,6.493969904632568,18.8889Q6.548689904632568,18.807000000000002,6.586379904632569,18.716Q6.624069904632568,18.625,6.643289904632568,18.528399999999998Q6.662499904632568,18.431800000000003,6.662499904632568,18.3333L6.662499904632568,16.8333Q6.662499904632568,16.7348,6.643289904632568,16.638199999999998Q6.624069904632568,16.541600000000003,6.586379904632569,16.4506Q6.548689904632568,16.3596,6.493969904632568,16.2777Q6.439249904632568,16.1958,6.3696099046325685,16.1262Q6.299959904632568,16.0566,6.218069904632568,16.0018Q6.136179904632568,15.9471,6.045179904632569,15.9094Q5.954189904632568,15.8717,5.857589904632569,15.8525Q5.760989904632568,15.8333,5.662499904632568,15.8333L4.099999904632568,15.8333Q4.001508904632568,15.8333,3.9049099046325684,15.8525Q3.8083109046325685,15.8717,3.717315904632568,15.9094Q3.6263219046325683,15.9471,3.5444299046325685,16.0018Q3.4625369046325685,16.0566,3.392892904632568,16.1262Q3.3232489046325684,16.1958,3.2685299046325684,16.2777Q3.2138109046325685,16.3596,3.1761204046325684,16.4506Q3.1384293046325684,16.541600000000003,3.1192146046325684,16.638199999999998Q3.0999999046325684,16.7348,3.0999999046325684,16.8333ZM10.224999904632568,16.8333L10.224999904632568,18.3333Q10.224999904632568,18.431800000000003,10.24420990463257,18.528399999999998Q10.263429904632568,18.625,10.301119904632568,18.716Q10.33880990463257,18.807000000000002,10.393529904632569,18.8889Q10.448249904632569,18.9708,10.517889904632568,19.0404Q10.587539904632568,19.1101,10.669429904632569,19.1648Q10.751319904632568,19.2195,10.842319904632568,19.2572Q10.93330990463257,19.2949,11.029909904632568,19.3141Q11.126509904632568,19.3333,11.224999904632568,19.3333L12.787499904632568,19.3333Q12.885989904632568,19.3333,12.982589904632569,19.3141Q13.079189904632567,19.2949,13.170199904632568,19.2572Q13.261199904632567,19.2195,13.343099904632568,19.1648Q13.424999904632568,19.1101,13.494599904632569,19.0404Q13.564199904632568,18.9708,13.618999904632568,18.8889Q13.673699904632569,18.807000000000002,13.711399904632568,18.716Q13.749099904632569,18.625,13.768299904632569,18.528399999999998Q13.787499904632568,18.431800000000003,13.787499904632568,18.3333L13.787499904632568,16.8333Q13.787499904632568,16.7348,13.768299904632569,16.638199999999998Q13.749099904632569,16.541600000000003,13.711399904632568,16.4506Q13.673699904632569,16.3596,13.618999904632568,16.2777Q13.564199904632568,16.1958,13.494599904632569,16.1262Q13.424999904632568,16.0566,13.343099904632568,16.0018Q13.261199904632567,15.9471,13.170199904632568,15.9094Q13.079189904632567,15.8717,12.982589904632569,15.8525Q12.885989904632568,15.8333,12.787499904632568,15.8333L11.224999904632568,15.8333Q11.126509904632568,15.8333,11.029909904632568,15.8525Q10.93330990463257,15.8717,10.842319904632568,15.9094Q10.751319904632568,15.9471,10.669429904632569,16.0018Q10.587539904632568,16.0566,10.517889904632568,16.1262Q10.448249904632569,16.1958,10.393529904632569,16.2777Q10.33880990463257,16.3596,10.301119904632568,16.4506Q10.263429904632568,16.541600000000003,10.24420990463257,16.638199999999998Q10.224999904632568,16.7348,10.224999904632568,16.8333Z" fill-rule="evenodd" fill="#38363C" fill-opacity="1"/></g></g></svg>