<svg xmlns="http://www.w3.org/2000/svg" xmlns:xlink="http://www.w3.org/1999/xlink" fill="none" version="1.1" width="24" height="24" viewBox="0 0 24 24"><defs><clipPath id="master_svg0_5445_06457"><rect x="0" y="0" width="24" height="24" rx="0"/></clipPath><clipPath id="master_svg1_5445_06468"><rect x="5" y="5" width="14" height="14" rx="0"/></clipPath></defs><g><g clip-path="url(#master_svg0_5445_06457)"></g><g><g clip-path="url(#master_svg1_5445_06468)"><g><g><g><path d="M14.399196980552674,9.60070806503296C14.181256980552673,9.386512065032958,13.938976980552674,9.19856706503296,13.677326980552673,9.040708065032959L12.380576980552673,10.337458065032958C13.884956980552673,10.906618065032958,14.299976980552673,12.839048065032959,13.161956980552674,13.975708065032958L10.536946980552674,16.600708065032958C9.666616980552673,17.44400806503296,8.280676980552673,17.43306806503296,7.423756980552673,16.57614806503296C6.566836980552673,15.719228065032958,6.555906980552673,14.33328806503296,7.399206980552673,13.462958065032959L7.449956980552674,13.40870806503296C7.235806980552674,12.827698065032958,7.1262069805526735,12.213008065032959,7.1262069805526735,11.593078065032959C7.1262069805526735,11.475828065032958,7.134946980552673,11.36032806503296,7.142826980552673,11.24307806503296L6.161956980552674,12.22570806503296C4.612171980552674,13.77548806503296,4.612171980552674,16.28817806503296,6.161956980552674,17.837958065032957C7.711736980552674,19.38770806503296,10.224426980552673,19.38770806503296,11.774206980552673,17.837958065032957L14.399206980552673,15.212958065032959C15.948716980552673,13.66305806503296,15.948716980552673,11.150608065032959,14.399196980552674,9.60070806503296Z" fill="#FAC814" fill-opacity="1"/></g><g><path d="M9.602644949302674,14.39750242050171C9.820764949302674,14.61150242050171,10.063014949302673,14.79943242050171,10.324524949302674,14.95751242050171L11.621274949302673,13.66250242050171C10.115264949302674,13.093782420501709,9.699984949302673,11.15921242050171,10.839894949302673,10.02250242050171L13.464894949302673,7.397502420501709C14.335224949302674,6.554172420501709,15.721184949302673,6.565092420501709,16.578124949302673,7.42203242050171C17.43506494930267,8.27896242050171,17.445974949302673,9.66493242050171,16.60264494930267,10.53525242050171L16.548394949302676,10.589512420501709C16.764414949302676,11.170512420501709,16.875514949302673,11.785272420501709,16.876524949302674,12.405132420501708C16.876524949302674,12.52238242050171,16.866894949302676,12.63788242050171,16.859024949302672,12.75513242050171L17.839894949302675,11.77250242050171C19.389634949302675,10.222722420501709,19.389634949302675,7.7100424205017095,17.839894949302675,6.160262420501709C16.290114949302673,4.610477420501709,13.777424949302674,4.610477420501709,12.227644949302674,6.160252420501709L9.602644949302674,8.78526242050171C8.053164949302673,10.33516242050171,8.053164949302673,12.847602420501708,9.602644949302674,14.39750242050171Z" fill="#FAC814" fill-opacity="1"/></g></g></g></g></g></g></svg>