<svg xmlns="http://www.w3.org/2000/svg" xmlns:xlink="http://www.w3.org/1999/xlink" fill="none" version="1.1" width="24" height="24" viewBox="0 0 24 24"><defs><clipPath id="master_svg0_5445_06399"><rect x="0" y="0" width="24" height="24" rx="0"/></clipPath><clipPath id="master_svg1_5445_06407"><rect x="5" y="3" width="14" height="18" rx="0"/></clipPath></defs><g><g clip-path="url(#master_svg0_5445_06399)"></g><g clip-path="url(#master_svg1_5445_06407)"><g><g><path d="M9,3C8.44772,3,8,3.447715,8,4L16,4C16,3.447715,15.5523,3,15,3L9,3ZM8,5C7.44772,5,7,5.44772,7,6L17,6C17,5.44772,16.552300000000002,5,16,5L8,5ZM5,9L5,19Q5,19.0983,5.00963055,19.196Q5.0192611,19.2938,5.0384294,19.3902Q5.0575978,19.4865,5.0861193,19.5806Q5.114641,19.6746,5.152241,19.7654Q5.189841,19.8561,5.236157,19.9428Q5.282474,20.0294,5.337061,20.1111Q5.391648,20.1928,5.453979,20.2688Q5.516311,20.3447,5.585786,20.4142Q5.6552620000000005,20.4837,5.731213,20.546Q5.807164,20.6084,5.888859,20.6629Q5.970554,20.7175,6.0572099999999995,20.7638Q6.14386,20.8102,6.23463,20.8478Q6.32541,20.8854,6.41943,20.9139Q6.51345,20.9424,6.60982,20.9616Q6.70619,20.9807,6.80397,20.9904Q6.90175,21,7,21L17,21Q17.098300000000002,21,17.195999999999998,20.9904Q17.293799999999997,20.9807,17.3902,20.9616Q17.4865,20.9424,17.5806,20.9139Q17.674599999999998,20.8854,17.7654,20.8478Q17.856099999999998,20.8102,17.9428,20.7638Q18.029400000000003,20.7175,18.1111,20.6629Q18.1928,20.6084,18.2688,20.546Q18.3447,20.4837,18.4142,20.4142Q18.4837,20.3447,18.546,20.2688Q18.6084,20.1928,18.6629,20.1111Q18.7175,20.0294,18.7638,19.9428Q18.810200000000002,19.8561,18.8478,19.7654Q18.8854,19.6746,18.913899999999998,19.5806Q18.9424,19.4865,18.9616,19.3902Q18.9807,19.2938,18.9904,19.196Q19,19.0983,19,19L19,9Q19,8.90175,18.9904,8.80397Q18.9807,8.70618,18.9616,8.60982Q18.9424,8.513449999999999,18.913899999999998,8.41943Q18.8854,8.32541,18.8478,8.23463Q18.810200000000002,8.14386,18.7638,8.057210000000001Q18.7175,7.97055,18.6629,7.88886Q18.6084,7.80716,18.546,7.73121Q18.4837,7.65526,18.4142,7.58579Q18.3447,7.51631,18.2688,7.45398Q18.1928,7.39165,18.1111,7.33706Q18.029400000000003,7.28247,17.9428,7.23616Q17.856099999999998,7.18984,17.7654,7.15224Q17.674599999999998,7.11464,17.5806,7.08612Q17.4865,7.0576,17.3902,7.03843Q17.293799999999997,7.01926,17.195999999999998,7.00963Q17.098300000000002,7,17,7L7,7Q6.90175,7,6.80397,7.00963Q6.70619,7.01926,6.60982,7.03843Q6.51345,7.0576,6.41943,7.08612Q6.32541,7.11464,6.23463,7.15224Q6.14386,7.18984,6.0572099999999995,7.23616Q5.970554,7.28247,5.888859,7.33706Q5.807164,7.39165,5.731213,7.45398Q5.6552620000000005,7.51631,5.585786,7.58579Q5.516311,7.65526,5.453979,7.73121Q5.391648,7.80716,5.337061,7.88886Q5.282474,7.97055,5.236157,8.057210000000001Q5.189841,8.14386,5.152241,8.23463Q5.114641,8.32541,5.0861193,8.41943Q5.0575978,8.513449999999999,5.0384294,8.60982Q5.0192611,8.70618,5.00963055,8.80397Q5,8.90175,5,9ZM13,16Q15,12.82843,15,12C15,10.34315,13.65685,9,12,9C10.34315,9,9,10.34315,9,12Q9,12.82843,11,16L13,16ZM11,18.5C11,18.7761,11.22386,19,11.5,19L12.5,19C12.77614,19,13,18.7761,13,18.5L13,17.5C13,17.2239,12.77614,17,12.5,17L11.5,17C11.22386,17,11,17.2239,11,17.5L11,18.5Z" fill-rule="evenodd" fill="#22C55E" fill-opacity="1"/></g></g></g></g></svg>