<svg xmlns="http://www.w3.org/2000/svg" xmlns:xlink="http://www.w3.org/1999/xlink" fill="none" version="1.1" width="24" height="24" viewBox="0 0 24 24"><defs><clipPath id="master_svg0_20_4769"><rect x="0" y="0" width="24" height="24" rx="0"/></clipPath></defs><g clip-path="url(#master_svg0_20_4769)"><g><path d="M1.25,15L1.25,6Q1.25,4.4467,2.34835,3.34835Q3.4467,2.25,5,2.25L19,2.25Q20.5533,2.25,21.6516,3.34835Q22.75,4.4467,22.75,6L22.75,15Q22.75,16.5533,21.6516,17.651600000000002Q20.5533,18.75,19,18.75L5,18.75Q3.4467,18.75,2.34835,17.651600000000002Q1.25,16.5533,1.25,15ZM2.75,15Q2.75,15.932,3.4090100000000003,16.591Q4.068020000000001,17.25,5,17.25L19,17.25Q19.932,17.25,20.591,16.591Q21.25,15.932,21.25,15L21.25,6Q21.25,5.068020000000001,20.591,4.40901Q19.932,3.75,19,3.75L5,3.75Q4.068020000000001,3.75,3.4090100000000003,4.40901Q2.75,5.068020000000001,2.75,6L2.75,15Z" fill="#000000" fill-opacity="1" style="mix-blend-mode:passthrough"/></g><g><path d="M11.25,18Q11.25,17.9261315,11.264410999999999,17.853682Q11.278822,17.781233,11.30709,17.712987Q11.335359,17.644742,11.376398,17.583322Q11.417437,17.521903000000002,11.46967,17.46967Q11.521903,17.417437,11.583322,17.376398000000002Q11.644742,17.335359,11.712987,17.30709Q11.781233,17.278822,11.853682,17.264411Q11.9261315,17.25,12,17.25Q12.0738685,17.25,12.146318,17.264411Q12.218767,17.278822,12.287013,17.30709Q12.355258,17.335359,12.416678,17.376398000000002Q12.478097,17.417437,12.53033,17.46967Q12.582563,17.521903000000002,12.623602,17.583322Q12.664641,17.644742,12.69291,17.712987Q12.721178,17.781233,12.735589000000001,17.853682Q12.75,17.9261315,12.75,18L12.75,21.5Q12.75,21.57387,12.735589000000001,21.64632Q12.721178,21.71877,12.69291,21.78701Q12.664641,21.85526,12.623602,21.91668Q12.582563,21.9781,12.53033,22.03033Q12.478097,22.08256,12.416678,22.1236Q12.355258,22.16464,12.287013,22.19291Q12.218767,22.22118,12.146318,22.235590000000002Q12.0738685,22.25,12,22.25Q11.9261315,22.25,11.853682,22.235590000000002Q11.781233,22.22118,11.712987,22.19291Q11.644742,22.16464,11.583322,22.1236Q11.521903,22.08256,11.46967,22.03033Q11.417437,21.9781,11.376398,21.91668Q11.335359,21.85526,11.30709,21.78701Q11.278822,21.71877,11.264410999999999,21.64632Q11.25,21.57387,11.25,21.5L11.25,18Z" fill-rule="evenodd" fill="#000000" fill-opacity="1" style="mix-blend-mode:passthrough"/></g><g><path d="M5,20.75L19,20.75Q19.073900000000002,20.75,19.1463,20.764411Q19.2188,20.778822,19.287,20.80709Q19.3553,20.835359,19.4167,20.876398000000002Q19.478099999999998,20.917437,19.5303,20.96967Q19.5826,21.021903000000002,19.6236,21.083322Q19.6646,21.144742,19.6929,21.212987Q19.7212,21.281233,19.735599999999998,21.353682Q19.75,21.4261315,19.75,21.5Q19.75,21.5738685,19.735599999999998,21.646318Q19.7212,21.718767,19.6929,21.787013Q19.6646,21.855258,19.6236,21.916678Q19.5826,21.978096999999998,19.5303,22.03033Q19.478099999999998,22.082563,19.4167,22.123601999999998Q19.3553,22.164641,19.287,22.19291Q19.2188,22.221178,19.1463,22.235589Q19.073900000000002,22.25,19,22.25L5,22.25Q4.9261315,22.25,4.853682,22.235589Q4.781233,22.221178,4.712987,22.19291Q4.644742,22.164641,4.583322,22.123601999999998Q4.521903,22.082563,4.46967,22.03033Q4.417437,21.978096999999998,4.376398,21.916678Q4.335359,21.855258,4.30709,21.787013Q4.278822,21.718767,4.264411,21.646318Q4.25,21.5738685,4.25,21.5Q4.25,21.4261315,4.264411,21.353682Q4.278822,21.281233,4.30709,21.212987Q4.335359,21.144742,4.376398,21.083322Q4.417437,21.021903000000002,4.46967,20.96967Q4.521903,20.917437,4.583322,20.876398000000002Q4.644742,20.835359,4.712987,20.80709Q4.781233,20.778822,4.853682,20.764411Q4.9261315,20.75,5,20.75Z" fill-rule="evenodd" fill="#000000" fill-opacity="1" style="mix-blend-mode:passthrough"/></g><g><path d="M16.25,11Q16.25,10.9261315,16.264411,10.853682Q16.278822,10.781233,16.30709,10.712987Q16.335359,10.644742,16.376398000000002,10.583322Q16.417437,10.521903,16.46967,10.46967Q16.521903000000002,10.417437,16.583322,10.376398Q16.644742,10.335359,16.712987,10.30709Q16.781233,10.278822,16.853682,10.264410999999999Q16.9261315,10.25,17,10.25Q17.0738685,10.25,17.146318,10.264410999999999Q17.218767,10.278822,17.287013,10.30709Q17.355258,10.335359,17.416678,10.376398Q17.478096999999998,10.417437,17.53033,10.46967Q17.582563,10.521903,17.623601999999998,10.583322Q17.664641,10.644742,17.69291,10.712987Q17.721178,10.781233,17.735589,10.853682Q17.75,10.9261315,17.75,11L17.75,14Q17.75,14.07387,17.735589,14.14632Q17.721178,14.21877,17.69291,14.28701Q17.664641,14.35526,17.623601999999998,14.41668Q17.582563,14.4781,17.53033,14.53033Q17.478096999999998,14.58256,17.416678,14.6236Q17.355258,14.66464,17.287013,14.69291Q17.218767,14.72118,17.146318,14.73559Q17.0738685,14.75,17,14.75Q16.9261315,14.75,16.853682,14.73559Q16.781233,14.72118,16.712987,14.69291Q16.644742,14.66464,16.583322,14.6236Q16.521903000000002,14.58256,16.46967,14.53033Q16.417437,14.4781,16.376398000000002,14.41668Q16.335359,14.35526,16.30709,14.28701Q16.278822,14.21877,16.264411,14.14632Q16.25,14.07387,16.25,14L16.25,11Z" fill-rule="evenodd" fill="#000000" fill-opacity="1" style="mix-blend-mode:passthrough"/></g><g><path d="M11.25,7Q11.25,6.9261315,11.264410999999999,6.853682Q11.278822,6.781233,11.30709,6.712987Q11.335359,6.644742,11.376398,6.583322Q11.417437,6.521903,11.46967,6.46967Q11.521903,6.417437,11.583322,6.376398Q11.644742,6.335359,11.712987,6.30709Q11.781233,6.278822,11.853682,6.264411Q11.9261315,6.25,12,6.25Q12.0738685,6.25,12.146318,6.264411Q12.218767,6.278822,12.287013,6.30709Q12.355258,6.335359,12.416678,6.376398Q12.478097,6.417437,12.53033,6.46967Q12.582563,6.521903,12.623602,6.583322Q12.664641,6.644742,12.69291,6.712987Q12.721178,6.781233,12.735589000000001,6.853682Q12.75,6.9261315,12.75,7L12.75,14Q12.75,14.07387,12.735589000000001,14.14632Q12.721178,14.21877,12.69291,14.28701Q12.664641,14.355260000000001,12.623602,14.41668Q12.582563,14.478100000000001,12.53033,14.53033Q12.478097,14.58256,12.416678,14.6236Q12.355258,14.66464,12.287013,14.692910000000001Q12.218767,14.72118,12.146318,14.73559Q12.0738685,14.75,12,14.75Q11.9261315,14.75,11.853682,14.73559Q11.781233,14.72118,11.712987,14.692910000000001Q11.644742,14.66464,11.583322,14.6236Q11.521903,14.58256,11.46967,14.53033Q11.417437,14.478100000000001,11.376398,14.41668Q11.335359,14.355260000000001,11.30709,14.28701Q11.278822,14.21877,11.264410999999999,14.14632Q11.25,14.07387,11.25,14L11.25,7Z" fill-rule="evenodd" fill="#000000" fill-opacity="1" style="mix-blend-mode:passthrough"/></g><g><path d="M6.25,9Q6.25,8.9261315,6.264411,8.853682Q6.278822,8.781233,6.30709,8.712987Q6.335359,8.644742,6.376398,8.583322Q6.417437,8.521903,6.46967,8.46967Q6.521903,8.417437,6.583322,8.376398Q6.644742,8.335359,6.712987,8.30709Q6.781233,8.278822,6.853682,8.264410999999999Q6.9261315,8.25,7,8.25Q7.0738685,8.25,7.146318,8.264410999999999Q7.218767,8.278822,7.287013,8.30709Q7.355258,8.335359,7.416678,8.376398Q7.478097,8.417437,7.53033,8.46967Q7.582563,8.521903,7.623602,8.583322Q7.664641,8.644742,7.69291,8.712987Q7.721178,8.781233,7.735589,8.853682Q7.75,8.9261315,7.75,9L7.75,14Q7.75,14.07387,7.735589,14.14632Q7.721178,14.21877,7.69291,14.28701Q7.664641,14.355260000000001,7.623602,14.41668Q7.582563,14.478100000000001,7.53033,14.53033Q7.478097,14.58256,7.416678,14.6236Q7.355258,14.66464,7.287013,14.692910000000001Q7.218767,14.72118,7.146318,14.73559Q7.0738685,14.75,7,14.75Q6.9261315,14.75,6.853682,14.73559Q6.781233,14.72118,6.712987,14.692910000000001Q6.644742,14.66464,6.583322,14.6236Q6.521903,14.58256,6.46967,14.53033Q6.417437,14.478100000000001,6.376398,14.41668Q6.335359,14.355260000000001,6.30709,14.28701Q6.278822,14.21877,6.264411,14.14632Q6.25,14.07387,6.25,14L6.25,9Z" fill-rule="evenodd" fill="#000000" fill-opacity="1" style="mix-blend-mode:passthrough"/></g></g></svg>