<svg xmlns="http://www.w3.org/2000/svg" xmlns:xlink="http://www.w3.org/1999/xlink" fill="none" version="1.1" width="24" height="24" viewBox="0 0 24 24"><defs><clipPath id="master_svg0_20_4814"><rect x="0" y="0" width="24" height="24" rx="0"/></clipPath></defs><g clip-path="url(#master_svg0_20_4814)"><g><path d="M3.25,12.5Q3.25,12.4261315,3.264411,12.353682Q3.278822,12.281233,3.30709,12.212987Q3.335359,12.144742,3.376398,12.083322Q3.417437,12.021903,3.46967,11.96967Q3.521903,11.917437,3.583322,11.876398Q3.644742,11.835359,3.712987,11.80709Q3.781233,11.778822,3.853682,11.764410999999999Q3.9261315,11.75,4,11.75Q4.0738685,11.75,4.146318,11.764410999999999Q4.218767,11.778822,4.287013,11.80709Q4.355258,11.835359,4.416678,11.876398Q4.478097,11.917437,4.53033,11.96967Q4.582563,12.021903,4.623602,12.083322Q4.664641,12.144742,4.69291,12.212987Q4.721178,12.281233,4.735589,12.353682Q4.75,12.4261315,4.75,12.5L4.75,19Q4.75,19.310670000000002,4.969668,19.53034Q5.18933,19.75,5.5,19.75L18.5,19.75Q18.8107,19.75,19.0303,19.53034Q19.25,19.310679999999998,19.25,19L19.25,12.5Q19.25,12.4261315,19.264400000000002,12.353682Q19.2788,12.281233,19.3071,12.212987Q19.3354,12.144742,19.3764,12.083322Q19.4174,12.021903,19.4697,11.96967Q19.521900000000002,11.917437,19.5833,11.876398Q19.6447,11.835359,19.713,11.80709Q19.7812,11.778822,19.8537,11.764410999999999Q19.926099999999998,11.75,20,11.75Q20.0739,11.75,20.1463,11.764410999999999Q20.2188,11.778822,20.287,11.80709Q20.3553,11.835359,20.4167,11.876398Q20.4781,11.917437,20.5303,11.96967Q20.5826,12.021903,20.6236,12.083322Q20.6646,12.144742,20.6929,12.212987Q20.7212,12.281233,20.7356,12.353682Q20.75,12.4261315,20.75,12.5L20.75,19Q20.75,19.932000000000002,20.091,20.591Q19.432000000000002,21.25,18.5,21.25L5.5,21.25Q4.568019,21.25,3.9090135,20.591Q3.25,19.932000000000002,3.25,19L3.25,12.5Z" fill-rule="evenodd" fill="#000000" fill-opacity="1" style="mix-blend-mode:passthrough"/></g><g><path d="M1.75,7.5L1.75,11.5Q1.75,12.224879999999999,2.262566,12.737449999999999Q2.775126,13.25,3.5,13.25L20.5,13.25Q21.2249,13.25,21.7374,12.73744Q22.25,12.22489,22.25,11.5L22.25,7.5Q22.25,6.775113,21.7374,6.262557Q21.2249,5.75,20.5,5.75L3.5,5.75Q2.775126,5.75,2.262566,6.262555Q1.75,6.7751149999999996,1.75,7.5ZM3.5,11.75Q3.25,11.75,3.25,11.5L3.25,7.5Q3.25,7.25,3.5,7.25L20.5,7.25Q20.75,7.25,20.75,7.5L20.75,11.5Q20.75,11.603570000000001,20.6768,11.67678Q20.6036,11.75,20.5,11.75L3.5,11.75Z" fill-rule="evenodd" fill="#000000" fill-opacity="1" style="mix-blend-mode:passthrough"/></g><g><path d="M7.75,4.5L7.75,6.5Q7.75,6.573869999999999,7.764411,6.646319999999999Q7.778822,6.71877,7.80709,6.78701Q7.835359,6.8552599999999995,7.876398,6.9166799999999995Q7.917437,6.9780999999999995,7.96967,7.03033Q8.021903,7.08256,8.083322,7.1236Q8.144742,7.16464,8.212987,7.1929099999999995Q8.281233,7.22118,8.353682,7.23559Q8.4261315,7.25,8.5,7.25Q8.5738685,7.25,8.646318,7.23559Q8.718767,7.22118,8.787013,7.1929099999999995Q8.855258,7.16464,8.916678,7.1236Q8.978097,7.08256,9.03033,7.03033Q9.082563,6.9780999999999995,9.123602,6.9166799999999995Q9.164641,6.8552599999999995,9.19291,6.78701Q9.221178,6.71877,9.235589000000001,6.646319999999999Q9.25,6.573869999999999,9.25,6.5L9.25,4.5Q9.25,4.396442,9.32322,4.32322Q9.39644,4.25,9.5,4.25L14.5,4.25Q14.60356,4.25,14.67678,4.323221Q14.75,4.396441,14.75,4.5L14.75,6.5Q14.75,6.573869999999999,14.76441,6.646319999999999Q14.77882,6.71877,14.807089999999999,6.78701Q14.83536,6.8552599999999995,14.8764,6.9166799999999995Q14.91744,6.9780999999999995,14.96967,7.03033Q15.021899999999999,7.08256,15.08332,7.1236Q15.144739999999999,7.16464,15.21299,7.1929099999999995Q15.28123,7.22118,15.35368,7.23559Q15.42613,7.25,15.5,7.25Q15.57387,7.25,15.64632,7.23559Q15.71877,7.22118,15.78701,7.1929099999999995Q15.855260000000001,7.16464,15.91668,7.1236Q15.978100000000001,7.08256,16.03033,7.03033Q16.08256,6.9780999999999995,16.1236,6.9166799999999995Q16.16464,6.8552599999999995,16.19291,6.78701Q16.22118,6.71877,16.235590000000002,6.646319999999999Q16.25,6.573869999999999,16.25,6.5L16.25,4.5Q16.25,3.775126,15.737449999999999,3.262566Q15.22489,2.75,14.5,2.75L9.5,2.75Q8.775115,2.75,8.262554,3.262566Q7.75,3.775126,7.75,4.5Z" fill-rule="evenodd" fill="#000000" fill-opacity="1" style="mix-blend-mode:passthrough"/></g><g><path d="M6.75,11.5Q6.75,11.4261315,6.764411,11.353682Q6.778822,11.281233,6.80709,11.212987Q6.835359,11.144742,6.876398,11.083322Q6.917437,11.021903,6.96967,10.96967Q7.021903,10.917437,7.083322,10.876398Q7.144742,10.835359,7.212987,10.80709Q7.281233,10.778822,7.353682,10.764410999999999Q7.4261315,10.75,7.5,10.75Q7.5738685,10.75,7.646318,10.764410999999999Q7.718767,10.778822,7.787013,10.80709Q7.855258,10.835359,7.916678,10.876398Q7.978097,10.917437,8.03033,10.96967Q8.082563,11.021903,8.123602,11.083322Q8.164641,11.144742,8.19291,11.212987Q8.221178,11.281233,8.235589000000001,11.353682Q8.25,11.4261315,8.25,11.5L8.25,14.5Q8.25,14.57387,8.235589000000001,14.64632Q8.221178,14.71877,8.19291,14.78701Q8.164641,14.85526,8.123602,14.91668Q8.082563,14.9781,8.03033,15.03033Q7.978097,15.08256,7.916678,15.1236Q7.855258,15.16464,7.787013,15.19291Q7.718767,15.22118,7.646318,15.23559Q7.5738685,15.25,7.5,15.25Q7.4261315,15.25,7.353682,15.23559Q7.281233,15.22118,7.212987,15.19291Q7.144742,15.16464,7.083322,15.1236Q7.021903,15.08256,6.96967,15.03033Q6.917437,14.9781,6.876398,14.91668Q6.835359,14.85526,6.80709,14.78701Q6.778822,14.71877,6.764411,14.64632Q6.75,14.57387,6.75,14.5L6.75,11.5Z" fill-rule="evenodd" fill="#000000" fill-opacity="1" style="mix-blend-mode:passthrough"/></g><g><path d="M15.75,11.5Q15.75,11.4261315,15.764410999999999,11.353682Q15.778822,11.281233,15.80709,11.212987Q15.835359,11.144742,15.876398,11.083322Q15.917437,11.021903,15.96967,10.96967Q16.021903000000002,10.917437,16.083322,10.876398Q16.144742,10.835359,16.212987,10.80709Q16.281233,10.778822,16.353682,10.764410999999999Q16.4261315,10.75,16.5,10.75Q16.5738685,10.75,16.646318,10.764410999999999Q16.718767,10.778822,16.787013,10.80709Q16.855258,10.835359,16.916678,10.876398Q16.978096999999998,10.917437,17.03033,10.96967Q17.082563,11.021903,17.123601999999998,11.083322Q17.164641,11.144742,17.19291,11.212987Q17.221178,11.281233,17.235589,11.353682Q17.25,11.4261315,17.25,11.5L17.25,14.5Q17.25,14.57387,17.235589,14.64632Q17.221178,14.71877,17.19291,14.78701Q17.164641,14.85526,17.123601999999998,14.91668Q17.082563,14.9781,17.03033,15.03033Q16.978096999999998,15.08256,16.916678,15.1236Q16.855258,15.16464,16.787013,15.19291Q16.718767,15.22118,16.646318,15.23559Q16.5738685,15.25,16.5,15.25Q16.4261315,15.25,16.353682,15.23559Q16.281233,15.22118,16.212987,15.19291Q16.144742,15.16464,16.083322,15.1236Q16.021903000000002,15.08256,15.96967,15.03033Q15.917437,14.9781,15.876398,14.91668Q15.835359,14.85526,15.80709,14.78701Q15.778822,14.71877,15.764410999999999,14.64632Q15.75,14.57387,15.75,14.5L15.75,11.5Z" fill-rule="evenodd" fill="#000000" fill-opacity="1" style="mix-blend-mode:passthrough"/></g></g></svg>