<svg xmlns="http://www.w3.org/2000/svg" xmlns:xlink="http://www.w3.org/1999/xlink" fill="none" version="1.1" width="24" height="24" viewBox="0 0 24 24"><defs><clipPath id="master_svg0_5380_07132"><rect x="0" y="0" width="24" height="24" rx="0"/></clipPath></defs><g clip-path="url(#master_svg0_5380_07132)"><g><path d="M2,16.499910049819945L4.22304,4.145320049819946C4.3944600000000005,3.192677049819946,5.22348,2.4995100498199463,6.19143,2.4995100498199463L17.8345,2.4995100498199463C18.804,2.4995100498199463,19.6339,3.1948270498199465,19.8036,4.149340049819946L22,16.499910049819945" fill="#F7BA1E" fill-opacity="1"/><path d="M2,17.249910049819945L22,17.249910049819945Q22.0662,17.249910049819945,22.1313,17.238310049819944Q22.204,17.225410049819946,22.2728,17.198510049819944Q22.3417,17.171610049819947,22.4039,17.131810049819947Q22.4661,17.092110049819944,22.5194,17.040910049819946Q22.5727,16.989810049819944,22.615,16.929210049819947Q22.6573,16.868610049819946,22.6869,16.801010049819947Q22.7166,16.73331004981995,22.7325,16.661210049819946Q22.7483,16.589010049819947,22.7498,16.51521004981995Q22.7513,16.441310049819947,22.7384,16.368610049819946L20.5421,4.018020049819946Q20.1386,1.7495100498199463,17.8345,1.7495100498199463L6.19143,1.7495100498199463Q3.89209,1.7495100498199463,3.4849,4.012500049819947L1.261854,16.367110049819946Q1.25,16.43301004981995,1.25,16.499910049819945Q1.25,16.573810049819947,1.264411,16.646210049819945Q1.278822,16.718710049819947,1.30709,16.786910049819944Q1.335359,16.855210049819945,1.376398,16.916610049819944Q1.417437,16.978010049819947,1.46967,17.030210049819946Q1.521903,17.082510049819945,1.583322,17.12351004981995Q1.644742,17.164510049819945,1.712987,17.192810049819947Q1.781233,17.22111004981995,1.853682,17.235510049819947Q1.9261314999999999,17.249910049819945,2,17.249910049819945ZM21.1049,15.749910049819947L19.0652,4.280650049819946Q18.8819,3.2495100498199463,17.8345,3.2495100498199463L6.19143,3.2495100498199463Q5.14628,3.2495100498199463,4.96119,4.278140049819946L2.896997,15.749910049819947L21.1049,15.749910049819947Z" fill-rule="evenodd" fill="#F7B200" fill-opacity="1"/></g><g><path d="M20,14.5L4,14.5C2.895431,14.5,2,15.395431,2,16.5L2,19C2,20.10457,2.895431,21,4,21L20,21C21.1046,21,22,20.10457,22,19L22,16.5C22,15.395431,21.1046,14.5,20,14.5" fill="#404040" fill-opacity="1"/><path d="M21.9445,20.94454Q22.75,20.13909,22.75,19L22.75,16.5Q22.75,15.360912,21.9445,14.5554566Q21.1391,13.75,20,13.75L4,13.75Q2.860913,13.75,2.0554563,14.5554564Q1.25,15.360913,1.25,16.5L1.25,19Q1.25,20.13909,2.0554564,20.94454Q2.860912,21.75,4,21.75L20,21.75Q21.1391,21.75,21.9445,20.94454ZM21.25,16.5L21.25,19Q21.25,19.51777,20.8839,19.88388Q20.5178,20.25,20,20.25L4,20.25Q3.48223,20.25,3.11612,19.88388Q2.75,19.51777,2.75,19L2.75,16.5Q2.75,15.25,4,15.25L20,15.25Q21.25,15.25,21.25,16.5Z" fill-rule="evenodd" fill="#D8D8D8" fill-opacity="1"/></g><g><path d="M19.25,17.75Q19.25,17.848489999999998,19.23079,17.94509Q19.211570000000002,18.04169,19.17388,18.13268Q19.13619,18.22368,19.08147,18.30557Q19.02675,18.38746,18.95711,18.45711Q18.88746,18.52675,18.80557,18.58147Q18.72368,18.63619,18.63268,18.67388Q18.54169,18.711570000000002,18.44509,18.73079Q18.348489999999998,18.75,18.25,18.75Q18.151509,18.75,18.05491,18.73079Q17.958311,18.711570000000002,17.867316,18.67388Q17.776322,18.63619,17.69443,18.58147Q17.612537,18.52675,17.542893,18.45711Q17.473249,18.38746,17.41853,18.30557Q17.363811,18.22368,17.3261205,18.13268Q17.2884294,18.04169,17.2692147,17.94509Q17.25,17.848489999999998,17.25,17.75Q17.25,17.651509,17.2692147,17.55491Q17.2884294,17.458311,17.3261205,17.367316Q17.363811,17.276322,17.41853,17.19443Q17.473249,17.112537,17.542893,17.042893Q17.612537,16.973249,17.69443,16.91853Q17.776322,16.863811,17.867316,16.8261205Q17.958311,16.7884294,18.05491,16.7692147Q18.151509,16.75,18.25,16.75Q18.348489999999998,16.75,18.44509,16.7692147Q18.54169,16.7884294,18.63268,16.8261205Q18.72368,16.863811,18.80557,16.91853Q18.88746,16.973249,18.95711,17.042893Q19.02675,17.112537,19.08147,17.19443Q19.13619,17.276322,19.17388,17.367316Q19.211570000000002,17.458311,19.23079,17.55491Q19.25,17.651509,19.25,17.75Z" fill="#00B42A" fill-opacity="1"/></g></g></svg>