<svg xmlns="http://www.w3.org/2000/svg" xmlns:xlink="http://www.w3.org/1999/xlink" fill="none" version="1.1" width="24" height="24" viewBox="0 0 24 24"><defs><clipPath id="master_svg0_5233_11983/4030_27773"><rect x="0" y="0" width="24" height="24" rx="0"/></clipPath><clipPath id="master_svg1_5233_11983/4030_27774"><rect x="0" y="0" width="24" height="24" rx="0"/></clipPath></defs><g><g clip-path="url(#master_svg0_5233_11983/4030_27773)"></g><g clip-path="url(#master_svg1_5233_11983/4030_27774)"><g><rect x="1" y="1" width="22" height="22" rx="0" fill="#D8D8D8" fill-opacity="1"/></g><g><path d="M4.708000183105469,9.447999954223633L5.4280001831054685,9.447999954223633L5.4280001831054685,14.999999954223632L4.708000183105469,14.999999954223632L4.708000183105469,9.447999954223633ZM8.63600018310547,15.079999954223632Q8.15600018310547,15.079999954223632,7.784000183105469,14.971999954223634Q7.412000183105469,14.863999954223633,7.156000183105469,14.603999954223632Q6.900000183105469,14.343999954223634,6.768000183105469,13.915999954223633Q6.636000183105469,13.487999954223632,6.636000183105469,12.839999954223632Q6.636000183105469,12.191999954223633,6.768000183105469,11.763999954223632Q6.900000183105469,11.335999954223633,7.156000183105469,11.075999954223633Q7.412000183105469,10.815999954223633,7.784000183105469,10.707999954223633Q8.15600018310547,10.599999954223632,8.63600018310547,10.599999954223632Q8.996000183105469,10.599999954223632,9.288000183105469,10.647999954223632Q9.580000183105469,10.695999954223632,9.76400018310547,10.759999954223632L9.76400018310547,11.391999954223632Q9.524000183105468,11.303999954223633,9.25200018310547,11.251999954223633Q8.980000183105469,11.199999954223633,8.644000183105469,11.199999954223633Q8.28400018310547,11.199999954223633,8.044000183105469,11.279999954223634Q7.804000183105469,11.359999954223632,7.652000183105469,11.547999954223632Q7.500000183105469,11.735999954223633,7.4360001831054685,12.051999954223632Q7.3720001831054685,12.367999954223633,7.3720001831054685,12.847999954223633Q7.3720001831054685,13.319999954223633,7.4360001831054685,13.631999954223634Q7.500000183105469,13.943999954223633,7.652000183105469,14.131999954223634Q7.804000183105469,14.319999954223633,8.048000183105469,14.395999954223633Q8.292000183105468,14.471999954223634,8.652000183105468,14.471999954223634Q8.95600018310547,14.471999954223634,9.25200018310547,14.427999954223633Q9.548000183105469,14.383999954223633,9.780000183105468,14.287999954223633L9.780000183105468,14.919999954223634Q9.692000183105469,14.951999954223632,9.560000183105469,14.979999954223633Q9.428000183105468,15.007999954223632,9.272000183105469,15.031999954223632Q9.11600018310547,15.055999954223633,8.952000183105469,15.067999954223634Q8.788000183105469,15.079999954223632,8.63600018310547,15.079999954223632ZM12.612000183105469,15.079999954223632Q12.132000183105468,15.079999954223632,11.760000183105468,14.971999954223634Q11.388000183105468,14.863999954223633,11.132000183105468,14.603999954223632Q10.876000183105468,14.343999954223634,10.744000183105468,13.915999954223633Q10.612000183105469,13.487999954223632,10.612000183105469,12.839999954223632Q10.612000183105469,12.191999954223633,10.744000183105468,11.763999954223632Q10.876000183105468,11.335999954223633,11.132000183105468,11.075999954223633Q11.388000183105468,10.815999954223633,11.760000183105468,10.707999954223633Q12.132000183105468,10.599999954223632,12.612000183105469,10.599999954223632Q13.092000183105469,10.599999954223632,13.464000183105469,10.707999954223633Q13.836000183105469,10.815999954223633,14.08800018310547,11.075999954223633Q14.340000183105468,11.335999954223633,14.472000183105468,11.763999954223632Q14.60400018310547,12.191999954223633,14.60400018310547,12.839999954223632Q14.60400018310547,13.487999954223632,14.472000183105468,13.915999954223633Q14.340000183105468,14.343999954223634,14.08800018310547,14.603999954223632Q13.836000183105469,14.863999954223633,13.464000183105469,14.971999954223634Q13.092000183105469,15.079999954223632,12.612000183105469,15.079999954223632ZM12.612000183105469,14.495999954223633Q12.980000183105469,14.495999954223633,13.224000183105469,14.415999954223633Q13.468000183105469,14.335999954223633,13.612000183105469,14.143999954223633Q13.756000183105469,13.951999954223632,13.81600018310547,13.631999954223634Q13.876000183105468,13.311999954223634,13.876000183105468,12.839999954223632Q13.876000183105468,12.367999954223633,13.812000183105468,12.047999954223632Q13.748000183105468,11.727999954223632,13.600000183105468,11.535999954223634Q13.452000183105469,11.343999954223634,13.208000183105469,11.259999954223632Q12.964000183105469,11.175999954223633,12.612000183105469,11.175999954223633Q12.25200018310547,11.175999954223633,12.00800018310547,11.259999954223632Q11.76400018310547,11.343999954223634,11.61600018310547,11.535999954223634Q11.468000183105469,11.727999954223632,11.408000183105468,12.047999954223632Q11.34800018310547,12.367999954223633,11.34800018310547,12.839999954223632Q11.34800018310547,13.311999954223634,11.41200018310547,13.631999954223634Q11.47600018310547,13.951999954223632,11.628000183105469,14.143999954223633Q11.780000183105468,14.335999954223633,12.02000018310547,14.415999954223633Q12.260000183105468,14.495999954223633,12.612000183105469,14.495999954223633ZM17.88400018310547,10.599999954223632Q18.30800018310547,10.599999954223632,18.58800018310547,10.703999954223633Q18.86800018310547,10.807999954223632,19.032000183105467,10.995999954223633Q19.19600018310547,11.183999954223633,19.264000183105466,11.439999954223634Q19.33200018310547,11.695999954223634,19.33200018310547,12.007999954223633L19.33200018310547,14.999999954223632L18.63600018310547,14.999999954223632L18.63600018310547,12.263999954223632Q18.63600018310547,12.015999954223632,18.60400018310547,11.819999954223633Q18.57200018310547,11.623999954223633,18.480000183105467,11.491999954223633Q18.38800018310547,11.359999954223632,18.22800018310547,11.287999954223633Q18.068000183105468,11.215999954223633,17.812000183105468,11.215999954223633Q17.60400018310547,11.215999954223633,17.408000183105468,11.243999954223632Q17.212000183105467,11.271999954223633,17.04000018310547,11.363999954223633Q16.86800018310547,11.455999954223632,16.72800018310547,11.623999954223633Q16.58800018310547,11.791999954223632,16.50000018310547,12.079999954223632L16.50000018310547,14.999999954223632L15.812000183105468,14.999999954223632L15.812000183105468,10.679999954223632L16.50000018310547,10.679999954223632L16.50000018310547,11.295999954223634Q16.596000183105467,11.087999954223633,16.75200018310547,10.951999954223632Q16.908000183105468,10.815999954223633,17.09200018310547,10.739999954223633Q17.276000183105467,10.663999954223632,17.480000183105467,10.631999954223632Q17.684000183105468,10.599999954223632,17.88400018310547,10.599999954223632Z" fill="#9E9E9E" fill-opacity="1"/></g></g></g></svg>