<svg xmlns="http://www.w3.org/2000/svg" xmlns:xlink="http://www.w3.org/1999/xlink" fill="none" version="1.1" width="24" height="24" viewBox="0 0 24 24"><defs><clipPath id="master_svg0_4030_27773"><rect x="0" y="0" width="24" height="24" rx="0"/></clipPath><clipPath id="master_svg1_4030_27774"><rect x="0" y="0" width="24" height="24" rx="0"/></clipPath></defs><g><g clip-path="url(#master_svg0_4030_27773)"></g><g clip-path="url(#master_svg1_4030_27774)"><rect x="0" y="0" width="24" height="24" rx="0" fill="#EEEEEE" fill-opacity="1"/><g><path d="M4.708,9.448L5.428,9.448L5.428,15L4.708,15L4.708,9.448ZM8.636,15.08Q8.156,15.08,7.784,14.972Q7.412,14.864,7.156,14.604Q6.9,14.344,6.768,13.916Q6.636,13.488,6.636,12.84Q6.636,12.192,6.768,11.764Q6.9,11.336,7.156,11.076Q7.412,10.816,7.784,10.708Q8.156,10.6,8.636,10.6Q8.996,10.6,9.288,10.648Q9.58,10.696,9.764,10.76L9.764,11.392Q9.524,11.304,9.252,11.252Q8.98,11.2,8.644,11.2Q8.284,11.2,8.044,11.28Q7.804,11.36,7.652,11.548Q7.5,11.736,7.436,12.052Q7.372,12.368,7.372,12.848Q7.372,13.32,7.436,13.632Q7.5,13.944,7.652,14.132Q7.804,14.32,8.048,14.396Q8.292,14.472,8.652,14.472Q8.956,14.472,9.252,14.428Q9.548,14.384,9.78,14.288L9.78,14.92Q9.692,14.952,9.56,14.98Q9.428,15.008,9.272,15.032Q9.116,15.056,8.952,15.068Q8.788,15.08,8.636,15.08ZM12.612,15.08Q12.132,15.08,11.76,14.972Q11.388,14.864,11.132,14.604Q10.876,14.344,10.744,13.916Q10.612,13.488,10.612,12.84Q10.612,12.192,10.744,11.764Q10.876,11.336,11.132,11.076Q11.388,10.816,11.76,10.708Q12.132,10.6,12.612,10.6Q13.092,10.6,13.464,10.708Q13.836,10.816,14.088,11.076Q14.34,11.336,14.472,11.764Q14.604,12.192,14.604,12.84Q14.604,13.488,14.472,13.916Q14.34,14.344,14.088,14.604Q13.836,14.864,13.464,14.972Q13.092,15.08,12.612,15.08ZM12.612,14.496Q12.98,14.496,13.224,14.416Q13.468,14.336,13.612,14.144Q13.756,13.952,13.816,13.632Q13.876,13.312,13.876,12.84Q13.876,12.368,13.812,12.048Q13.748,11.728,13.6,11.536Q13.452,11.344,13.208,11.26Q12.964,11.176,12.612,11.176Q12.252,11.176,12.008,11.26Q11.764,11.344,11.616,11.536Q11.468,11.728,11.408,12.048Q11.348,12.368,11.348,12.84Q11.348,13.312,11.412,13.632Q11.476,13.952,11.628,14.144Q11.78,14.336,12.02,14.416Q12.26,14.496,12.612,14.496ZM17.884,10.6Q18.308,10.6,18.588,10.704Q18.868,10.808,19.032,10.996Q19.196,11.184,19.264,11.44Q19.332,11.696,19.332,12.008L19.332,15L18.636,15L18.636,12.264Q18.636,12.016,18.604,11.82Q18.572,11.624,18.48,11.492Q18.388,11.36,18.228,11.288Q18.068,11.216,17.812,11.216Q17.604,11.216,17.408,11.244Q17.212,11.272,17.04,11.364Q16.868,11.456,16.728,11.624Q16.588,11.792,16.5,12.08L16.5,15L15.812,15L15.812,10.68L16.5,10.68L16.5,11.296Q16.596,11.088,16.752,10.952Q16.908,10.816,17.092,10.74Q17.276,10.664,17.48,10.632Q17.684,10.6,17.884,10.6Z" fill="#9E9E9E" fill-opacity="1"/></g></g></g></svg>