<svg xmlns="http://www.w3.org/2000/svg" xmlns:xlink="http://www.w3.org/1999/xlink" fill="none" version="1.1" width="24" height="24" viewBox="0 0 24 24"><defs><clipPath id="master_svg0_5445_06705"><rect x="0" y="0" width="24" height="24" rx="0"/></clipPath><clipPath id="master_svg1_5445_06712"><rect x="0" y="0" width="24" height="24" rx="0"/></clipPath></defs><g clip-path="url(#master_svg0_5445_06705)"><g clip-path="url(#master_svg1_5445_06712)"></g><g><g><path d="M12.5,4Q12.29134,4,12.08292,4.0102386Q11.87451,4.0204772,11.66685,4.0409298Q11.4592,4.0613824,11.252790000000001,4.0919997Q11.046389999999999,4.122617,10.84173,4.163325Q10.637080000000001,4.204033,10.43467,4.254734Q10.23226,4.305435,10.03258,4.366007Q9.8329,4.426579,9.63644,4.496875Q9.439969999999999,4.567172,9.24719,4.647024Q9.05441,4.726876,8.86578,4.816091Q8.677150000000001,4.905306,8.49313,5.00367Q8.3091,5.10203,8.130130000000001,5.20931Q7.95115,5.31658,7.7776499999999995,5.43251Q7.60416,5.54844,7.43656,5.67274Q7.26896,5.79704,7.10766,5.92941Q6.94636,6.06179,6.79175,6.201919999999999Q6.6371400000000005,6.34205,6.48959,6.48959Q6.34205,6.6371400000000005,6.201919999999999,6.79175Q6.06179,6.94636,5.92941,7.10766Q5.79704,7.26896,5.67274,7.43656Q5.54844,7.60416,5.43251,7.7776499999999995Q5.31658,7.95115,5.20931,8.130130000000001Q5.10203,8.3091,5.00367,8.49313Q4.905306,8.677150000000001,4.816091,8.86578Q4.726876,9.05441,4.647024,9.24719Q4.567172,9.439969999999999,4.496875,9.63644Q4.426579,9.8329,4.366007,10.03258Q4.305435,10.23226,4.254734,10.43467Q4.204033,10.637080000000001,4.163325,10.84173Q4.122617,11.046389999999999,4.0919997,11.252790000000001Q4.0613824,11.4592,4.0409298,11.66685Q4.0204772,11.87451,4.0102386,12.08292Q4,12.29134,4,12.5Q4,12.70866,4.0102386,12.91708Q4.0204772,13.12549,4.0409298,13.33315Q4.0613824,13.5408,4.0919997,13.74721Q4.122617,13.95361,4.163325,14.1583Q4.204033,14.3629,4.254734,14.5653Q4.305435,14.7677,4.366007,14.9674Q4.426579,15.1671,4.496875,15.3636Q4.567172,15.56,4.647024,15.7528Q4.726876,15.9456,4.816091,16.1342Q4.905306,16.3228,5.00367,16.5069Q5.10203,16.6909,5.20931,16.8699Q5.31658,17.0488,5.43251,17.2223Q5.54844,17.3958,5.67274,17.5634Q5.79704,17.731,5.92941,17.8923Q6.06179,18.0536,6.201919999999999,18.208199999999998Q6.34205,18.3629,6.48959,18.5104Q6.6371400000000005,18.658,6.79175,18.798099999999998Q6.94636,18.938200000000002,7.10766,19.0706Q7.26896,19.203,7.43656,19.3273Q7.60416,19.4516,7.7776499999999995,19.567500000000003Q7.95115,19.6834,8.130130000000001,19.7907Q8.3091,19.898,8.49313,19.996299999999998Q8.677150000000001,20.0947,8.86578,20.1839Q9.05441,20.2731,9.24719,20.353Q9.439969999999999,20.4328,9.63644,20.5031Q9.8329,20.5734,10.03258,20.634Q10.23226,20.6946,10.43467,20.7453Q10.637080000000001,20.796,10.84173,20.8367Q11.046389999999999,20.8774,11.252790000000001,20.908Q11.4592,20.9386,11.66685,20.9591Q11.87451,20.9795,12.08292,20.9898Q12.29134,21,12.5,21Q12.70866,21,12.91708,20.9898Q13.12549,20.9795,13.33315,20.9591Q13.5408,20.9386,13.74721,20.908Q13.95361,20.8774,14.1583,20.8367Q14.3629,20.796,14.5653,20.7453Q14.7677,20.6946,14.9674,20.634Q15.1671,20.5734,15.3636,20.5031Q15.56,20.4328,15.7528,20.353Q15.9456,20.2731,16.1342,20.1839Q16.3228,20.0947,16.5069,19.996299999999998Q16.6909,19.898,16.8699,19.7907Q17.0488,19.6834,17.2223,19.567500000000003Q17.3958,19.4516,17.5634,19.3273Q17.731,19.203,17.8923,19.0706Q18.0536,18.938200000000002,18.208199999999998,18.798099999999998Q18.3629,18.658,18.5104,18.5104Q18.658,18.3629,18.798099999999998,18.208199999999998Q18.938200000000002,18.0536,19.0706,17.8923Q19.203,17.731,19.3273,17.5634Q19.4516,17.3958,19.567500000000003,17.2223Q19.6834,17.0488,19.7907,16.8699Q19.898,16.6909,19.996299999999998,16.5069Q20.0947,16.3228,20.1839,16.1342Q20.2731,15.9456,20.353,15.7528Q20.4328,15.56,20.5031,15.3636Q20.5734,15.1671,20.634,14.9674Q20.6946,14.7677,20.7453,14.5653Q20.796,14.3629,20.8367,14.1583Q20.8774,13.95361,20.908,13.74721Q20.9386,13.5408,20.9591,13.33315Q20.9795,13.12549,20.9898,12.91708Q21,12.70866,21,12.5Q21,12.29134,20.9898,12.08292Q20.9795,11.87451,20.9591,11.66685Q20.9386,11.4592,20.908,11.252790000000001Q20.8774,11.046389999999999,20.8367,10.84173Q20.796,10.637080000000001,20.7453,10.43467Q20.6946,10.23226,20.634,10.03258Q20.5734,9.8329,20.5031,9.63644Q20.4328,9.439969999999999,20.353,9.24719Q20.2731,9.05441,20.1839,8.86578Q20.0947,8.677150000000001,19.996299999999998,8.49313Q19.898,8.3091,19.7907,8.130130000000001Q19.6834,7.95115,19.567500000000003,7.7776499999999995Q19.4516,7.60416,19.3273,7.43656Q19.203,7.26896,19.0706,7.10766Q18.938200000000002,6.94636,18.798099999999998,6.79175Q18.658,6.6371400000000005,18.5104,6.48959Q18.3629,6.34205,18.208199999999998,6.201919999999999Q18.0536,6.06179,17.8923,5.92941Q17.731,5.79704,17.5634,5.67274Q17.3958,5.54844,17.2223,5.43251Q17.0488,5.31658,16.8699,5.20931Q16.6909,5.10203,16.5069,5.00367Q16.3228,4.905306,16.1342,4.816091Q15.9456,4.726876,15.7528,4.647024Q15.56,4.567172,15.3636,4.496875Q15.1671,4.426579,14.9674,4.366007Q14.7677,4.305435,14.5653,4.254734Q14.3629,4.204033,14.1583,4.163325Q13.95361,4.122617,13.74721,4.0919997Q13.5408,4.0613824,13.33315,4.0409298Q13.12549,4.0204772,12.91708,4.0102386Q12.70866,4,12.5,4ZM10.5,9.5Q10.40151,9.5,10.30491,9.519210000000001Q10.20831,9.53843,10.11732,9.57612Q10.02632,9.61381,9.94443,9.66853Q9.86254,9.72325,9.79289,9.79289Q9.72325,9.86254,9.66853,9.94443Q9.61381,10.02632,9.57612,10.11732Q9.53843,10.20831,9.519210000000001,10.30491Q9.5,10.40151,9.5,10.5L9.5,14.5Q9.5,14.5985,9.519210000000001,14.6951Q9.53843,14.7917,9.57612,14.8827Q9.61381,14.9737,9.66853,15.0556Q9.72325,15.1375,9.79289,15.2071Q9.86254,15.2768,9.94443,15.3315Q10.02632,15.3862,10.11732,15.4239Q10.20831,15.4616,10.30491,15.4808Q10.40151,15.5,10.5,15.5L14.5,15.5Q14.5985,15.5,14.6951,15.4808Q14.7917,15.4616,14.8827,15.4239Q14.9737,15.3862,15.0556,15.3315Q15.1375,15.2768,15.2071,15.2071Q15.2768,15.1375,15.3315,15.0556Q15.3862,14.9737,15.4239,14.8827Q15.4616,14.7917,15.4808,14.6951Q15.5,14.5985,15.5,14.5L15.5,10.5Q15.5,10.40151,15.4808,10.30491Q15.4616,10.20831,15.4239,10.11732Q15.3862,10.02632,15.3315,9.94443Q15.2768,9.86254,15.2071,9.79289Q15.1375,9.72325,15.0556,9.66853Q14.9737,9.61381,14.8827,9.57612Q14.7917,9.53843,14.6951,9.519210000000001Q14.5985,9.5,14.5,9.5L10.5,9.5Z" fill-rule="evenodd" fill="#EF4444" fill-opacity="1"/></g></g></g></svg>