<svg xmlns="http://www.w3.org/2000/svg" xmlns:xlink="http://www.w3.org/1999/xlink" fill="none" version="1.1" width="24" height="24" viewBox="0 0 24 24"><defs><clipPath id="master_svg0_5445_06676"><rect x="0" y="0" width="24" height="24" rx="0"/></clipPath><clipPath id="master_svg1_5445_06677"><rect x="0" y="0" width="24" height="24" rx="0"/></clipPath></defs><g clip-path="url(#master_svg0_5445_06676)"><g clip-path="url(#master_svg1_5445_06677)"></g><g><g><rect x="4" y="4" width="17" height="17" rx="8.5" fill="#F97316" fill-opacity="1"/></g><g><path d="M8.887847900390625,9.84375C8.887847900390625,9.291465,9.335562900390626,8.84375,9.887847900390625,8.84375C10.440127900390625,8.84375,10.887847900390625,9.291465,10.887847900390625,9.84375L10.887847900390625,15.15625C10.887847900390625,15.70853,10.440127900390625,16.15625,9.887847900390625,16.15625C9.335562900390626,16.15625,8.887847900390625,15.70853,8.887847900390625,15.15625L8.887847900390625,9.84375Z" fill-rule="evenodd" fill="#FFFFFF" fill-opacity="1"/></g><g><path d="M14.112152099609375,9.84375C14.112152099609375,9.291465,14.559867099609376,8.84375,15.112152099609375,8.84375C15.664432099609375,8.84375,16.112152099609375,9.291465,16.112152099609375,9.84375L16.112152099609375,15.15625C16.112152099609375,15.70853,15.664432099609375,16.15625,15.112152099609375,16.15625C14.559867099609376,16.15625,14.112152099609375,15.70853,14.112152099609375,15.15625L14.112152099609375,9.84375Z" fill-rule="evenodd" fill="#FFFFFF" fill-opacity="1"/></g></g></g></svg>