<svg xmlns="http://www.w3.org/2000/svg" xmlns:xlink="http://www.w3.org/1999/xlink" fill="none" version="1.1" width="24" height="24" viewBox="0 0 24 24"><defs><clipPath id="master_svg0_5462_05996"><rect x="0" y="0" width="24" height="24" rx="0"/></clipPath><clipPath id="master_svg1_5462_05997"><rect x="0" y="0" width="24" height="24" rx="0"/></clipPath><clipPath id="master_svg2_5462_06111"><rect x="1.9999995231628418" y="1.998291015625" width="20.000001907348633" height="20" rx="0"/></clipPath><linearGradient x1="0.5" y1="-2.0816681711721685e-16" x2="0.5" y2="1" id="master_svg3_5462_06121"><stop offset="0%" stop-color="#B88163" stop-opacity="1"/><stop offset="100%" stop-color="#976545" stop-opacity="1"/></linearGradient><linearGradient x1="0.5" y1="6.938893903907228e-17" x2="0.5" y2="1" id="master_svg4_5462_06115"><stop offset="0%" stop-color="#FFD36E" stop-opacity="1"/><stop offset="100%" stop-color="#F6B828" stop-opacity="1"/></linearGradient></defs><g clip-path="url(#master_svg0_5462_05996)"><g clip-path="url(#master_svg1_5462_05997)"></g><g clip-path="url(#master_svg2_5462_06111)"><g><g><path d="M18.66657745285034,3.2484130859375L5.333207452850342,3.2484130859375C4.182619452850342,3.2484130859375,3.249877452850342,4.1811550859375,3.249877452850342,5.3317430859375L3.249877452850342,18.6651130859375C3.249877452850342,19.8156130859375,4.182619452850342,20.7484130859375,5.333207452850342,20.7484130859375L18.66657745285034,20.7484130859375C19.81717745285034,20.7484130859375,20.749877452850342,19.8156130859375,20.749877452850342,18.6651130859375L20.749877452850342,5.3317430859375C20.749877452850342,4.1811550859375,19.81717745285034,3.2484130859375,18.66657745285034,3.2484130859375Z" fill="url(#master_svg3_5462_06121)" fill-opacity="1" style="mix-blend-mode:passthrough"/></g><g style="opacity:0.15000000596046448;"><path d="M15.333085382537842,3.2484130859375L8.666422382537842,3.2484130859375C8.436422382537842,3.2484130859375,8.249755382537842,3.4350800859375,8.249755382537842,3.6650800859375L8.249755382537842,11.9984130859375C8.249755382537842,12.2284130859375,8.436422382537842,12.4150830859375,8.666422382537842,12.4150830859375C8.756422382537842,12.4150830859375,8.844338382537842,12.3859130859375,8.916422382537842,12.3317430859375L11.999755382537842,10.0192430859375L15.083085382537842,12.3317430859375C15.267255382537842,12.4696630859375,15.52850538253784,12.4325830859375,15.666425382537842,12.2484130859375C15.720585382537841,12.1763330859375,15.749755382537842,12.0884130859375,15.749755382537842,11.9984130859375L15.749755382537842,3.6650800859375C15.749755382537842,3.4350800859375,15.563085382537842,3.2484130859375,15.333085382537842,3.2484130859375Z" fill="#000000" fill-opacity="1" style="mix-blend-mode:passthrough"/></g><g><path d="M15.333085382537842,2.83172607421875L8.666422382537842,2.83172607421875C8.436422382537842,2.83172607421875,8.249755382537842,3.01839307421875,8.249755382537842,3.24839307421875L8.249755382537842,11.58172607421875C8.249755382537842,11.81172607421875,8.436422382537842,11.99839607421875,8.666422382537842,11.99839607421875C8.756422382537842,11.99839607421875,8.844338382537842,11.96922607421875,8.916422382537842,11.91505607421875L11.999755382537842,9.60255607421875L15.083085382537842,11.91505607421875C15.267255382537842,12.05297607421875,15.52850538253784,12.01589607421875,15.666425382537842,11.83172607421875C15.720585382537841,11.75964607421875,15.749755382537842,11.67172607421875,15.749755382537842,11.58172607421875L15.749755382537842,3.24839307421875C15.749755382537842,3.01839307421875,15.563085382537842,2.83172607421875,15.333085382537842,2.83172607421875Z" fill="url(#master_svg4_5462_06115)" fill-opacity="1" style="mix-blend-mode:passthrough"/></g></g></g></g></svg>