<svg xmlns="http://www.w3.org/2000/svg" xmlns:xlink="http://www.w3.org/1999/xlink" fill="none" version="1.1" width="24" height="24" viewBox="0 0 24 24"><defs><clipPath id="master_svg0_5480_07929"><rect x="0" y="0" width="24" height="24" rx="0"/></clipPath><clipPath id="master_svg1_5480_07930"><rect x="0" y="0" width="24" height="24" rx="0"/></clipPath></defs><g clip-path="url(#master_svg0_5480_07929)"><g clip-path="url(#master_svg1_5480_07930)"></g><g><g><path d="M3,4.25L3,3.75C3,3.335786,3.335786,3,3.75,3L20.25,3C20.6642,3,21,3.335786,21,3.75L21,4.25C21,4.66421,20.6642,5,20.25,5L3.75,5C3.335786,5,3,4.66421,3,4.25Z" fill="#38363C" fill-opacity="1"/></g><g><path d="M3,20.25L3,19.75C3,19.335786,3.335786,19,3.75,19L20.25,19C20.6642,19,21,19.335786,21,19.75L21,20.25C21,20.66421,20.6642,21,20.25,21L3.75,21C3.335786,21,3,20.66421,3,20.25Z" fill="#38363C" fill-opacity="1"/></g><g><path d="M11,9.5L11,9C11,8.585786,11.335786,8.25,11.75,8.25L20.25,8.25C20.66421,8.25,21,8.585786,21,9L21,9.5C21,9.91421,20.66421,10.25,20.25,10.25L11.75,10.25C11.335786,10.25,11,9.91421,11,9.5Z" fill="#38363C" fill-opacity="1"/></g><g><path d="M11,15L11,14.5C11,14.085786,11.335786,13.75,11.75,13.75L20.25,13.75C20.66421,13.75,21,14.085786,21,14.5L21,15C21,15.41421,20.66421,15.75,20.25,15.75L11.75,15.75C11.335786,15.75,11,15.41421,11,15Z" fill="#38363C" fill-opacity="1"/></g><g><path d="M3,15.13841081100464C3,15.522320811004638,3.4147410000000002,15.763000811004638,3.7480700000000002,15.57253081100464L9.24029,12.43412081100464C9.57619,12.24217081100464,9.57619,11.757820811004638,9.24029,11.56588081100464L3.748069,8.42746811100464C3.4147410000000002,8.236994811004639,3,8.47767781100464,3,8.861589811004638L3,15.13841081100464Z" fill="#38363C" fill-opacity="1"/></g></g></g></svg>