<svg xmlns="http://www.w3.org/2000/svg" xmlns:xlink="http://www.w3.org/1999/xlink" fill="none" version="1.1" width="24" height="24" viewBox="0 0 24 24"><defs><clipPath id="master_svg0_5480_07929"><rect x="0" y="0" width="24" height="24" rx="0"/></clipPath><clipPath id="master_svg1_5480_07930"><rect x="0" y="0" width="24" height="24" rx="0"/></clipPath></defs><g clip-path="url(#master_svg0_5480_07929)"><g clip-path="url(#master_svg1_5480_07930)"><g><g><path d="M24,0L0,0L0,24L24,24L24,0Z" fill="#FFFFFF" fill-opacity="1"/></g><g><path d="M2.728288,15.9168Q3.49208,17.7226,4.88474,19.1153Q6.27744,20.5079,8.08322,21.2717Q9.9529,22.0625,12,22.0625Q14.0471,22.0625,15.9168,21.2717Q17.7226,20.5079,19.1153,19.1153Q20.5079,17.7226,21.2717,15.9168Q22.0625,14.0471,22.0625,12Q22.0625,9.952919999999999,21.2717,8.08322Q20.5079,6.27745,19.1153,4.88474Q17.7226,3.49208,15.9168,2.728288Q14.0472,1.9375,12,1.9375003Q9.95284,1.9375,8.08322,2.728288Q6.2774,3.49208,4.88474,4.88474Q3.49209,6.27742,2.728288,8.08322Q1.9375,9.95284,1.9375003,12Q1.9375,14.0472,2.728288,15.9168ZM8.131910000000001,21.1566Q6.34858,20.4023,4.973129999999999,19.0269Q3.59771,17.6515,2.843414,15.8681Q2.0625,14.0218,2.0625003,12Q2.0625,9.97819,2.843413,8.131910000000001Q3.59772,6.34857,4.973129999999999,4.973129999999999Q6.34857,3.59771,8.131910000000001,2.843413Q9.97819,2.0625,12,2.0625003Q14.0219,2.0625,15.8681,2.843414Q17.651400000000002,3.59771,19.0269,4.973129999999999Q20.4023,6.34859,21.1566,8.131910000000001Q21.9375,9.97827,21.9375,12Q21.9375,14.0218,21.1566,15.8681Q20.4023,17.651400000000002,19.0269,19.0269Q17.651400000000002,20.4023,15.8681,21.1566Q14.0218,21.9375,12,21.9375Q9.97827,21.9375,8.131910000000001,21.1566Z" fill-rule="evenodd" fill="#DADFE3" fill-opacity="0.949999988079071"/></g><g><path d="M3.9375,22.0625L3.9375,1.9375L20.0625,1.9375L20.0625,22.0625L3.9375,22.0625ZM19.9375,2.0625L4.0625,2.0625L4.0625,21.9375L19.9375,21.9375L19.9375,2.0625Z" fill-rule="evenodd" fill="#DADFE3" fill-opacity="1"/></g><g><path d="M1.9375,20.0625L1.9375,3.9375L22.0625,3.9375L22.0625,20.0625L1.9375,20.0625ZM21.9375,4.0625L2.0625,4.0625L2.0625,19.9375L21.9375,19.9375L21.9375,4.0625Z" fill-rule="evenodd" fill="#DADFE3" fill-opacity="1"/></g><g><path d="M2.9375,21.0625L2.9375,2.9375L21.0625,2.9375L21.0625,21.0625L2.9375,21.0625ZM20.9375,3.0625L3.0625,3.0625L3.0625,20.9375L20.9375,20.9375L20.9375,3.0625Z" fill-rule="evenodd" fill="#DADFE3" fill-opacity="1"/></g><g><path d="M5.9375,18.0625L5.9375,5.9375L18.0625,5.9375L18.0625,18.0625L5.9375,18.0625ZM17.9375,6.0625L6.0625,6.0625L6.0625,17.9375L17.9375,17.9375L17.9375,6.0625Z" fill-rule="evenodd" fill="#DADFE3" fill-opacity="1"/></g><g><path d="M7.796067,10.22404Q7.4375,11.0718,7.4375,12Q7.4375,12.92822,7.796067,13.77598Q8.14238,14.59477,8.77382,15.2262Q9.40525,15.85763,10.22404,16.20394Q11.07179,16.5625,12,16.5625Q12.92823,16.5625,13.77598,16.20394Q14.59477,15.85763,15.2262,15.2262Q15.85763,14.59478,16.20394,13.77598Q16.5625,12.92823,16.5625,12Q16.5625,11.07179,16.20394,10.22404Q15.85763,9.40525,15.2262,8.77382Q14.59477,8.142379,13.77598,7.796067Q12.92822,7.4375,12,7.4375Q11.07179,7.4375,10.22404,7.796067Q9.40526,8.142382,8.77382,8.77382Q8.142382,9.40526,7.796067,10.22404ZM7.911193,13.72729Q7.5625,12.90287,7.5625,12Q7.5625,11.09715,7.911192,10.27274Q8.24801,9.4764,8.86221,8.86221Q9.4764,8.248011,10.27274,7.911193Q11.09714,7.5625,12,7.5625Q12.90287,7.5625,13.72728,7.911192Q14.52361,8.248006,15.13781,8.86221Q15.752,9.4764,16.088810000000002,10.27274Q16.4375,11.09714,16.4375,12Q16.4375,12.90288,16.088810000000002,13.72728Q15.75199,14.52363,15.13781,15.13781Q14.52363,15.75199,13.72729,16.088810000000002Q12.90288,16.4375,12,16.4375Q11.09714,16.4375,10.27274,16.088810000000002Q9.4764,15.752,8.86221,15.13781Q8.248008,14.523620000000001,7.911193,13.72729Z" fill-rule="evenodd" fill="#DADFE3" fill-opacity="1"/></g><g><path d="M12,1.875259L0.9459109,20.9687L0.891597,21.0625L23.1084,21.0625L12,1.875259ZM1.108403,20.9375L22.8916,20.9375L12,2.124742L1.108403,20.9375Z" fill-rule="evenodd" fill="#DADFE3" fill-opacity="1"/></g></g></g><g><g><path d="M3,4.25L3,3.75C3,3.335786,3.335786,3,3.75,3L20.25,3C20.6642,3,21,3.335786,21,3.75L21,4.25C21,4.66421,20.6642,5,20.25,5L3.75,5C3.335786,5,3,4.66421,3,4.25Z" fill="#38363C" fill-opacity="1"/></g><g><path d="M3,20.25L3,19.75C3,19.335786,3.335786,19,3.75,19L20.25,19C20.6642,19,21,19.335786,21,19.75L21,20.25C21,20.66421,20.6642,21,20.25,21L3.75,21C3.335786,21,3,20.66421,3,20.25Z" fill="#38363C" fill-opacity="1"/></g><g><path d="M11,9.5L11,9C11,8.585786,11.335786,8.25,11.75,8.25L20.25,8.25C20.66421,8.25,21,8.585786,21,9L21,9.5C21,9.91421,20.66421,10.25,20.25,10.25L11.75,10.25C11.335786,10.25,11,9.91421,11,9.5Z" fill="#38363C" fill-opacity="1"/></g><g><path d="M11,15L11,14.5C11,14.085786,11.335786,13.75,11.75,13.75L20.25,13.75C20.66421,13.75,21,14.085786,21,14.5L21,15C21,15.41421,20.66421,15.75,20.25,15.75L11.75,15.75C11.335786,15.75,11,15.41421,11,15Z" fill="#38363C" fill-opacity="1"/></g><g><path d="M3,15.13841081100464C3,15.522320811004638,3.4147410000000002,15.763000811004638,3.7480700000000002,15.57253081100464L9.24029,12.43412081100464C9.57619,12.24217081100464,9.57619,11.757820811004638,9.24029,11.56588081100464L3.748069,8.42746811100464C3.4147410000000002,8.236994811004639,3,8.47767781100464,3,8.861589811004638L3,15.13841081100464Z" fill="#38363C" fill-opacity="1"/></g></g></g></svg>