<svg xmlns="http://www.w3.org/2000/svg" xmlns:xlink="http://www.w3.org/1999/xlink" fill="none" version="1.1" width="24" height="24" viewBox="0 0 24 24"><defs><clipPath id="master_svg0_29_4839"><rect x="0" y="0" width="24" height="24" rx="0"/></clipPath></defs><g clip-path="url(#master_svg0_29_4839)"><g></g><g><path d="M19.70708341331482,6.29289Q19.99998341331482,6.58579,19.99998341331482,7L19.99998341331482,9Q19.99998341331482,9.09849,20.01918341331482,9.19509Q20.03838341331482,9.29169,20.07608341331482,9.38268Q20.11378341331482,9.47368,20.16848341331482,9.55557Q20.22328341331482,9.63746,20.29288341331482,9.70711Q20.36258341331482,9.77675,20.44438341331482,9.83147Q20.526283413314818,9.88619,20.61728341331482,9.92388Q20.70828341331482,9.96157,20.80488341331482,9.98078Q20.901483413314818,10,20.99998341331482,10Q21.09848341331482,10,21.19508341331482,9.98078Q21.291683413314818,9.96157,21.38268341331482,9.92388Q21.47368341331482,9.88619,21.55558341331482,9.83147Q21.63748341331482,9.77675,21.70708341331482,9.70711Q21.77678341331482,9.63746,21.83148341331482,9.55557Q21.886183413314818,9.47368,21.92388341331482,9.38268Q21.96158341331482,9.29169,21.980783413314818,9.19509Q21.99998341331482,9.09849,21.99998341331482,9L21.99998341331482,7Q21.99998341331482,5.757358,21.12128341331482,4.87868Q20.24268341331482,4,18.99998341331482,4L4.999883413314819,4Q3.7572434133148196,4,2.8785634133148195,4.87868Q1.9998834133148193,5.757359,1.9998834133148193,7L1.9998834133148193,17Q1.9998834133148193,18.2426,2.8785634133148195,19.121299999999998Q3.757240413314819,20,4.999883413314819,20L8.500003413314818,20Q8.59849341331482,20,8.695093413314819,19.980800000000002Q8.79169341331482,19.9616,8.882683413314819,19.9239Q8.97368341331482,19.886200000000002,9.05557341331482,19.8315Q9.13746341331482,19.776699999999998,9.207113413314818,19.7071Q9.276753413314818,19.6375,9.33147341331482,19.5556Q9.38619341331482,19.4737,9.423883413314819,19.3827Q9.46157341331482,19.2917,9.480793413314819,19.1951Q9.500003413314818,19.0985,9.500003413314818,19Q9.500003413314818,18.9015,9.480793413314819,18.8049Q9.46157341331482,18.7083,9.423883413314819,18.6173Q9.38619341331482,18.5263,9.33147341331482,18.4444Q9.276753413314818,18.3625,9.207113413314818,18.2929Q9.13746341331482,18.2232,9.05557341331482,18.1685Q8.97368341331482,18.113799999999998,8.882683413314819,18.0761Q8.79169341331482,18.0384,8.695093413314819,18.019199999999998Q8.59849341331482,18,8.500003413314818,18L4.999883413314819,18Q4.58567341331482,18,4.292773413314819,17.7071Q3.9998834133148193,17.4142,3.9998834133148193,17L3.9998834133148193,7Q3.9998834133148193,6.58579,4.292773413314819,6.29289Q4.58567341331482,6,4.999883413314819,6L18.99998341331482,6Q19.41418341331482,6,19.70708341331482,6.29289Z" fill-rule="evenodd" fill="#000000" fill-opacity="1" style="mix-blend-mode:passthrough"/></g><g><path d="M19.53553,12.464466Q18.07107,11,16,11Q13.92893,11,12.464466,12.464466Q11,13.92893,11,16Q11,18.07107,12.464466,19.53553Q13.92893,21,16,21Q18.07107,21,19.53553,19.53553Q21,18.07107,21,16Q21,13.92893,19.53553,12.464466ZM13.87868,13.87868Q14.75736,13,16,13Q17.24264,13,18.12132,13.87868Q19,14.75736,19,16Q19,17.24264,18.12132,18.12132Q17.24264,19,16,19Q14.75736,19,13.87868,18.12132Q13,17.24264,13,16Q13,14.75736,13.87868,13.87868Z" fill-rule="evenodd" fill="#000000" fill-opacity="1" style="mix-blend-mode:passthrough"/></g><g><path d="M18.792893,20.207107Q18.652241,20.066455,18.57612,19.882683Q18.5,19.698912,18.5,19.5Q18.5,19.4015086,18.519215,19.30491Q18.538429999999998,19.208311,18.576121,19.117317Q18.613812,19.026322,18.66853,18.94443Q18.723249,18.862537,18.792893,18.792893Q18.862537,18.723249,18.94443,18.66853Q19.026322,18.613812,19.117317,18.576121Q19.208311,18.538429999999998,19.30491,18.519215Q19.4015086,18.5,19.5,18.5Q19.698912,18.5,19.882683,18.57612Q20.066455,18.652241,20.207107,18.792893L22.70711,21.29289Q22.84776,21.43355,22.92388,21.61732Q23,21.80109,23,22Q23,22.098489999999998,22.98078,22.19509Q22.961570000000002,22.29169,22.92388,22.38268Q22.88619,22.47368,22.83147,22.55557Q22.77675,22.63746,22.70711,22.70711Q22.63746,22.77675,22.55557,22.83147Q22.47368,22.88619,22.38268,22.92388Q22.29169,22.961570000000002,22.19509,22.98078Q22.098489999999998,23,22,23Q21.80109,23,21.61732,22.92388Q21.43355,22.84776,21.29289,22.70711L18.792893,20.207107L18.792893,20.207107Z" fill-rule="evenodd" fill="#000000" fill-opacity="1" style="mix-blend-mode:passthrough"/></g><g><path d="M7,8L17,8Q17.0985,8,17.1951,8.019214999999999Q17.2917,8.03843,17.3827,8.076121Q17.4737,8.113812,17.5556,8.16853Q17.6375,8.223249,17.7071,8.292893Q17.776699999999998,8.362537,17.8315,8.44443Q17.886200000000002,8.526322,17.9239,8.617317Q17.9616,8.708311,17.980800000000002,8.80491Q18,8.9015086,18,9Q18,9.0984914,17.980800000000002,9.19509Q17.9616,9.291689,17.9239,9.382683Q17.886200000000002,9.473678,17.8315,9.55557Q17.776699999999998,9.637463,17.7071,9.707107Q17.6375,9.776751,17.5556,9.83147Q17.4737,9.886188,17.3827,9.923879Q17.2917,9.96157,17.1951,9.980785000000001Q17.0985,10,17,10L7,10Q6.9015086,10,6.80491,9.980785000000001Q6.708311,9.96157,6.617317,9.923879Q6.526322,9.886188,6.44443,9.83147Q6.362537,9.776751,6.292893,9.707107Q6.223249,9.637463,6.16853,9.55557Q6.113812,9.473678,6.076121,9.382683Q6.03843,9.291689,6.019215,9.19509Q6,9.0984914,6,9Q6,8.9015086,6.019215,8.80491Q6.03843,8.708311,6.076121,8.617317Q6.113812,8.526322,6.16853,8.44443Q6.223249,8.362537,6.292893,8.292893Q6.362537,8.223249,6.44443,8.16853Q6.526322,8.113812,6.617317,8.076121Q6.708311,8.03843,6.80491,8.019214999999999Q6.9015086,8,7,8Z" fill-rule="evenodd" fill="#000000" fill-opacity="1" style="mix-blend-mode:passthrough"/></g><g><path d="M9,14L7,14Q6.9015086,14,6.80491,13.980785000000001Q6.708311,13.96157,6.617317,13.923879Q6.526322,13.886188,6.44443,13.83147Q6.362537,13.776751,6.292893,13.707107Q6.223249,13.637463,6.16853,13.55557Q6.113812,13.473678,6.076121,13.382683Q6.03843,13.291689,6.019215,13.19509Q6,13.0984914,6,13Q6,12.9015086,6.019215,12.80491Q6.03843,12.708311,6.076121,12.617317Q6.113812,12.526322,6.16853,12.44443Q6.223249,12.362537,6.292893,12.292893Q6.362537,12.223249,6.44443,12.16853Q6.526322,12.113812,6.617317,12.076121Q6.708311,12.03843,6.80491,12.019214999999999Q6.9015086,12,7,12L9,12Q9.09849,12,9.19509,12.019214999999999Q9.29169,12.03843,9.38268,12.076121Q9.47368,12.113812,9.55557,12.16853Q9.63746,12.223249,9.70711,12.292893Q9.77675,12.362537,9.83147,12.44443Q9.88619,12.526322,9.92388,12.617317Q9.96157,12.708311,9.98078,12.80491Q10,12.9015086,10,13Q10,13.0984914,9.98078,13.19509Q9.96157,13.291689,9.92388,13.382683Q9.88619,13.473678,9.83147,13.55557Q9.77675,13.637463,9.70711,13.707107Q9.63746,13.776751,9.55557,13.83147Q9.47368,13.886188,9.38268,13.923879Q9.29169,13.96157,9.19509,13.980785000000001Q9.09849,14,9,14Z" fill-rule="evenodd" fill="#000000" fill-opacity="1" style="mix-blend-mode:passthrough"/></g></g></svg>