<svg xmlns="http://www.w3.org/2000/svg" xmlns:xlink="http://www.w3.org/1999/xlink" fill="none" version="1.1" width="24" height="24" viewBox="0 0 24 24"><defs><clipPath id="master_svg0_450_29623"><rect x="0" y="0" width="24" height="24" rx="0"/></clipPath><clipPath id="master_svg1_3105_3978"><rect x="0" y="0" width="24" height="24" rx="0"/></clipPath></defs><g clip-path="url(#master_svg0_450_29623)"><g clip-path="url(#master_svg1_3105_3978)"></g><g><g><g><rect x="10.25" y="5" width="10.75" height="6" rx="1" fill-opacity="0" stroke-opacity="1" stroke="#38363C" fill="none" stroke-width="1.5"/></g><g><rect x="10.25" y="14" width="10.75" height="6" rx="1" fill-opacity="0" stroke-opacity="1" stroke="#38363C" fill="none" stroke-width="1.5"/></g><g><path d="M2.25,4Q2.25,3.9261315,2.264411,3.853682Q2.278822,3.781233,2.30709,3.712987Q2.335359,3.644742,2.376398,3.583322Q2.417437,3.521903,2.46967,3.46967Q2.521903,3.417437,2.583322,3.376398Q2.644742,3.335359,2.712987,3.30709Q2.781233,3.278822,2.853682,3.264411Q2.9261315,3.25,3,3.25Q3.0738685,3.25,3.146318,3.264411Q3.218767,3.278822,3.287013,3.30709Q3.355258,3.335359,3.416678,3.376398Q3.478097,3.417437,3.53033,3.46967Q3.582563,3.521903,3.623602,3.583322Q3.664641,3.644742,3.69291,3.712987Q3.721178,3.781233,3.735589,3.853682Q3.75,3.9261315,3.75,4L3.75,16.25L6.5,16.25Q6.573869999999999,16.25,6.646319999999999,16.264400000000002Q6.71877,16.2788,6.78701,16.3071Q6.8552599999999995,16.3354,6.9166799999999995,16.3764Q6.9780999999999995,16.4174,7.03033,16.4697Q7.08256,16.521900000000002,7.1236,16.5833Q7.16464,16.6447,7.19291,16.713Q7.22118,16.7812,7.23559,16.8537Q7.25,16.926099999999998,7.25,17Q7.25,17.073900000000002,7.23559,17.1463Q7.22118,17.2188,7.19291,17.287Q7.16464,17.3553,7.1236,17.4167Q7.08256,17.478099999999998,7.03033,17.5303Q6.9780999999999995,17.5826,6.9166799999999995,17.6236Q6.8552599999999995,17.6646,6.78701,17.6929Q6.71877,17.7212,6.646319999999999,17.735599999999998Q6.573869999999999,17.75,6.5,17.75L3,17.75Q2.9261315,17.75,2.853682,17.735599999999998Q2.781233,17.7212,2.712987,17.6929Q2.644742,17.6646,2.583322,17.6236Q2.521903,17.5826,2.46967,17.5303Q2.417437,17.478099999999998,2.376398,17.4167Q2.335359,17.3553,2.30709,17.287Q2.278822,17.2188,2.264411,17.1463Q2.25,17.073900000000002,2.25,17L2.25,4Z" fill-rule="evenodd" fill="#38363C" fill-opacity="1"/></g><g><path d="M3.75,7.25L6.5,7.25Q6.573869999999999,7.25,6.646319999999999,7.264411Q6.71877,7.278822,6.78701,7.30709Q6.8552599999999995,7.335359,6.9166799999999995,7.376398Q6.9780999999999995,7.417437,7.03033,7.46967Q7.08256,7.521903,7.1236,7.583322Q7.16464,7.644742,7.1929099999999995,7.712987Q7.22118,7.781233,7.23559,7.853682Q7.25,7.9261315,7.25,8Q7.25,8.0738685,7.23559,8.146318Q7.22118,8.218767,7.1929099999999995,8.287013Q7.16464,8.355258,7.1236,8.416678Q7.08256,8.478097,7.03033,8.53033Q6.9780999999999995,8.582563,6.9166799999999995,8.623602Q6.8552599999999995,8.664641,6.78701,8.69291Q6.71877,8.721178,6.646319999999999,8.735589000000001Q6.573869999999999,8.75,6.5,8.75L3.75,8.75Q3.6761315,8.75,3.603682,8.735589000000001Q3.531233,8.721178,3.462987,8.69291Q3.394742,8.664641,3.333322,8.623602Q3.271903,8.582563,3.21967,8.53033Q3.167437,8.478097,3.126398,8.416678Q3.085359,8.355258,3.05709,8.287013Q3.028822,8.218767,3.014411,8.146318Q3,8.0738685,3,8Q3,7.9261315,3.014411,7.853682Q3.028822,7.781233,3.05709,7.712987Q3.085359,7.644742,3.126398,7.583322Q3.167437,7.521903,3.21967,7.46967Q3.271903,7.417437,3.333322,7.376398Q3.394742,7.335359,3.462987,7.30709Q3.531233,7.278822,3.603682,7.264411Q3.6761315,7.25,3.75,7.25Z" fill-rule="evenodd" fill="#38363C" fill-opacity="1"/></g></g></g></g></svg>