<svg xmlns="http://www.w3.org/2000/svg" xmlns:xlink="http://www.w3.org/1999/xlink" fill="none" version="1.1" width="24" height="24" viewBox="0 0 24 24"><defs><clipPath id="master_svg0_5042_13854"><rect x="0" y="0" width="24" height="24" rx="0"/></clipPath><clipPath id="master_svg1_5042_13878"><rect x="3" y="3" width="18" height="18" rx="0"/></clipPath></defs><g><g clip-path="url(#master_svg0_5042_13854)"><g><g><path d="M24,0L0,0L0,24L24,24L24,0Z" fill="#FFFFFF" fill-opacity="1"/><path d="M-0.0625,24.0625L-0.0625,-0.0625L24.0625,-0.0625L24.0625,24.0625L-0.0625,24.0625ZM23.9375,0.0625L0.0625,0.0625L0.0625,23.9375L23.9375,23.9375L23.9375,0.0625Z" fill-rule="evenodd" fill="#000000" fill-opacity="1"/></g><g><path d="M2.728288,15.9168Q3.49206,17.7226,4.88474,19.1153Q6.27742,20.5079,8.08322,21.2717Q9.95288,22.0625,12,22.0625Q14.0471,22.0625,15.9168,21.2717Q17.7227,20.5079,19.1153,19.1153Q20.5079,17.7227,21.2717,15.9168Q22.0625,14.0471,22.0625,12Q22.0625,9.95288,21.2717,8.08322Q20.5079,6.2774,19.1153,4.88474Q17.7226,3.49206,15.9168,2.728288Q14.0472,1.9375,12,1.9374997999999999Q9.95288,1.9375,8.08322,2.728288Q6.27742,3.49208,4.88474,4.88474Q3.49207,6.27742,2.728288,8.08322Q1.9375,9.95285,1.9374997999999999,12Q1.9375,14.0472,2.728288,15.9168ZM8.131910000000001,21.1566Q6.34856,20.4023,4.973129999999999,19.0269Q3.59769,17.651400000000002,2.843413,15.8681Q2.0625,14.0219,2.0624998,12Q2.0624981,9.978200000000001,2.843413,8.131910000000001Q3.59771,6.34857,4.973129999999999,4.973129999999999Q6.34857,3.5976999999999997,8.131910000000001,2.843413Q9.97818,2.0625,12,2.0624998Q14.0219,2.0625,15.8681,2.843413Q17.651400000000002,3.59768,19.0269,4.973129999999999Q20.4022,6.34856,21.1566,8.131910000000001Q21.9375,9.97821,21.9375,12Q21.9375,14.0218,21.1566,15.8681Q20.4023,17.6515,19.0269,19.0269Q17.6515,20.4023,15.8681,21.1566Q14.0218,21.9375,12,21.9375Q9.97823,21.9375,8.131910000000001,21.1566Z" fill-rule="evenodd" fill="#DADFE3" fill-opacity="0.949999988079071"/></g><g><path d="M3.9375,22.0625L3.9375,1.9375L20.0625,1.9375L20.0625,22.0625L3.9375,22.0625ZM19.9375,2.0625L4.0625,2.0625L4.0625,21.9375L19.9375,21.9375L19.9375,2.0625Z" fill-rule="evenodd" fill="#DADFE3" fill-opacity="1"/></g><g><path d="M1.9375,20.0625L1.9375,3.9375L22.0625,3.9375L22.0625,20.0625L1.9375,20.0625ZM21.9375,4.0625L2.0625,4.0625L2.0625,19.9375L21.9375,19.9375L21.9375,4.0625Z" fill-rule="evenodd" fill="#DADFE3" fill-opacity="1"/></g><g><path d="M2.9375,21.0625L2.9375,2.9375L21.0625,2.9375L21.0625,21.0625L2.9375,21.0625ZM20.9375,3.0625L3.0625,3.0625L3.0625,20.9375L20.9375,20.9375L20.9375,3.0625Z" fill-rule="evenodd" fill="#DADFE3" fill-opacity="1"/></g><g><path d="M5.9375,18.0625L5.9375,5.9375L18.0625,5.9375L18.0625,18.0625L5.9375,18.0625ZM17.9375,6.0625L6.0625,6.0625L6.0625,17.9375L17.9375,17.9375L17.9375,6.0625Z" fill-rule="evenodd" fill="#DADFE3" fill-opacity="1"/></g><g><path d="M8.77382,8.77382Q7.4375,10.11014,7.4375,12Q7.4375,13.889890000000001,8.77382,15.2262Q10.11012,16.5625,12,16.5625Q13.88991,16.5625,15.2262,15.2262Q16.5625,13.889890000000001,16.5625,12Q16.5625,10.11012,15.2262,8.77382Q13.88988,7.4375,12,7.4375Q10.11014,7.4375,8.77382,8.77382ZM8.86221,15.13781Q7.5625,13.8381,7.5625,12Q7.5625,10.16191,8.86221,8.86221Q10.16191,7.5625,12,7.5625Q13.8381,7.5625,15.13781,8.86221Q16.43752,10.1619,16.4375,12Q16.4375,13.83812,15.13781,15.13781Q13.83813,16.4375,12,16.4375Q10.1619,16.4375,8.86221,15.13781Z" fill-rule="evenodd" fill="#DADFE3" fill-opacity="1"/></g><g><path d="M12,1.875259L0.9459109,20.9687L0.891597,21.0625L23.1084,21.0625L12,1.875259ZM1.108403,20.9375L22.8916,20.9375L12,2.124742L1.108403,20.9375Z" fill-rule="evenodd" fill="#DADFE3" fill-opacity="1"/></g></g></g><g clip-path="url(#master_svg1_5042_13878)"><g><g><g><path d="M20.437540371513364,17.587499976158142C20.768840371513367,17.587499976158142,21.037540371513366,17.856128976158143,21.037540371513366,18.187499976158144L21.037540371513366,18.562499976158144Q21.037540371513366,19.59852997615814,20.31804037151337,20.31800997615814Q19.598540371513366,21.03749997615814,18.562500371513366,21.03749997615814L9.562499371513367,21.03749997615814C9.258779371513366,21.03749997615814,9.002960471513367,20.810539976158143,8.966773691513367,20.50898997615814C8.927292571513366,20.179979976158144,9.162002371513367,19.88125997615814,9.491012371513367,19.84176997615814Q10.222470371513367,19.75399997615814,10.544490371513367,19.431989976158142Q10.837500371513366,19.13896997615814,10.837500371513366,18.562499976158144L10.837500371513366,18.187499976158144C10.837500371513366,17.856128976158143,11.106130371513366,17.587499976158142,11.437500371513366,17.587499976158142L20.437540371513364,17.587499976158142ZM12.030110371513366,18.78749997615814L19.820340371513367,18.78749997615814Q19.757940371513367,19.18100997615814,19.469440371513365,19.469489976158144Q19.101440371513366,19.837499976158142,18.562500371513366,19.837499976158142L11.731920371513366,19.837499976158142Q11.989980371513367,19.385039976158144,12.030110371513366,18.78749997615814Z" fill-rule="evenodd" fill="#38363C" fill-opacity="1"/></g><g><path d="M8.287499976158141,5.812500214576721L8.287499976158141,6.187500214576721C8.287499976158141,6.518870214576721,8.018869976158143,6.787500214576721,7.687499976158142,6.787500214576721L3.937499976158142,6.787500214576721C3.606128976158142,6.787500214576721,3.337499976158142,6.518870214576721,3.337499976158142,6.187500214576721L3.337499976158142,5.812500214576721Q3.337499916553542,4.7764702145767215,4.056985976158142,4.056986214576721Q4.776469976158142,3.337500095367721,5.812499976158142,3.337500214576721Q6.848529976158142,3.337499976157721,7.568009976158142,4.056986214576721Q8.287499976158141,4.7764702145767215,8.287499976158141,5.812500214576721ZM6.719489976158142,4.905510214576721Q7.007959976158142,5.193990214576721,7.070309976158143,5.587500214576721L4.5546899761581425,5.587500214576721Q4.617039976158142,5.193990214576721,4.905509976158142,4.905510214576721Q5.273529976158142,4.537500214576721,5.812499976158142,4.537500214576721Q6.351469976158143,4.537500214576721,6.719489976158142,4.905510214576721Z" fill-rule="evenodd" fill="#38363C" fill-opacity="1"/></g><g><path d="M18.187500095367433,21.03749997615814L9.562500095367431,21.03749997615814Q8.526470095367431,21.03749997615814,7.806990095367432,20.31799997615814Q7.087500095367432,19.59849997615814,7.087500095367432,18.562499976158144L7.087500095367432,5.812499976158142Q7.087500095367432,5.273529976158142,6.719490095367432,4.905509976158142Q6.351470095367432,4.537499976158142,5.812500095367431,4.537499976158142C5.481129095367431,4.537499976158142,5.212500095367432,4.2688709761581425,5.212500095367432,3.937499976158142C5.212500095367432,3.778369976158142,5.275714195367431,3.625757976158142,5.388236095367431,3.513235976158142C5.5007580953674315,3.400714176158142,5.653370095367432,3.337500095367142,5.812500095367431,3.337499976158142L16.312500095367433,3.337499976158142Q17.34850009536743,3.337499976158142,18.06800009536743,4.056985976158142Q18.78750009536743,4.776469976158142,18.78750009536743,5.812499976158142L18.78750009536743,18.187499976158144C18.78750009536743,18.518899976158142,18.51890009536743,18.78749997615814,18.187500095367433,18.78749997615814C17.85610009536743,18.78749997615814,17.58750009536743,18.518899976158142,17.58750009536743,18.187499976158144L17.58750009536743,5.812499976158142Q17.58750009536743,5.273529976158142,17.21950009536743,4.905509976158142Q16.85150009536743,4.537499976158142,16.312500095367433,4.537499976158142L7.947380095367432,4.537499976158142Q8.287500095367431,5.100179976158142,8.287500095367431,5.812499976158142L8.287500095367431,18.562499976158144Q8.287500095367431,19.10149997615814,8.655510095367433,19.469499976158144Q9.023530095367432,19.837499976158142,9.562500095367431,19.837499976158142L18.187500095367433,19.837499976158142C18.51890009536743,19.837499976158142,18.78750009536743,20.10609997615814,18.78750009536743,20.437499976158144C18.78750009536743,20.768899976158142,18.51890009536743,21.03749997615814,18.187500095367433,21.03749997615814Z" fill-rule="evenodd" fill="#38363C" fill-opacity="1"/></g><g><path d="M12.037499976158141,10.687499976158142C12.037499976158141,10.846629976158143,11.974289976158142,10.999241976158142,11.861759976158142,11.111759976158142L10.786029976158142,12.187499976158142L11.861759976158142,13.263239976158141C11.974289976158142,13.375759976158143,12.037499976158141,13.528369976158142,12.037499976158141,13.687499976158142C12.037499976158141,14.018869976158141,11.768869976158141,14.287499976158141,11.437499976158142,14.287499976158141C11.278369976158142,14.287499976158141,11.125759976158141,14.224289976158143,11.013239976158141,14.111759976158142L9.513235976158143,12.611759976158142C9.278921376158141,12.377449976158143,9.278921376158141,11.997549976158142,9.513235976158143,11.763239976158141L11.013139976158142,10.263331976158142C11.125759976158141,10.150714076158142,11.278369976158142,10.087499976158142,11.437499976158142,10.087499976158142C11.768869976158141,10.087499976158142,12.037499976158141,10.356128976158143,12.037499976158141,10.687499976158142Z" fill-rule="evenodd" fill="#38363C" fill-opacity="1"/></g><g><path d="M16.36175997615814,11.763239976158141L14.861759976158142,10.263235976158143C14.749241976158142,10.150714076158142,14.596629976158143,10.087499976158142,14.437499976158142,10.087499976158142C14.106128976158143,10.087499976158142,13.837499976158142,10.356128976158143,13.837499976158142,10.687499976158142C13.837499976158142,10.846629976158143,13.900714076158142,10.999241976158142,14.013235976158143,11.111759976158142L15.088969976158142,12.187499976158142L14.013390976158142,13.263079976158142C13.900714076158142,13.375759976158143,13.837499976158142,13.528369976158142,13.837499976158142,13.687499976158142C13.837499976158142,14.018869976158141,14.106128976158143,14.287499976158141,14.437499976158142,14.287499976158141C14.596629976158143,14.287499976158141,14.749241976158142,14.224289976158143,14.861759976158142,14.111759976158142L16.36175997615814,12.611759976158142C16.59607997615814,12.377449976158143,16.59607997615814,11.997549976158142,16.36175997615814,11.763239976158141Z" fill-rule="evenodd" fill="#38363C" fill-opacity="1"/></g></g></g></g></g></svg>