<svg xmlns="http://www.w3.org/2000/svg" xmlns:xlink="http://www.w3.org/1999/xlink" fill="none" version="1.1" width="24" height="24" viewBox="0 0 24 24"><defs><clipPath id="master_svg0_234_14846"><rect x="0" y="0" width="24" height="24" rx="0"/></clipPath></defs><g clip-path="url(#master_svg0_234_14846)"><g><path d="M8.854274140625,3.81642L8.640274140625,5.09742L8.640124140625,5.09834Q8.605794140625001,5.30539,8.365824140625,5.43773Q8.207274140625,5.52772,8.128694140625,5.57575Q7.900474140625,5.71339,7.703364140625,5.639749999999999L6.487714140625,5.18388Q4.999024140625,4.62479,4.204464140625,6.00206L2.907070140625,8.249749999999999Q2.1153141406250002,9.62476,3.340180440625,10.6329L4.343617140625,11.45943Q4.506044140625,11.59349,4.501144140625,11.8592Q4.498544140625,12.0005,4.501154140625,12.14188Q4.506064140625,12.40705,4.344180140625,12.5401L3.340664140625,13.3667Q2.113704140625,14.3756,2.907464140625,15.7519L4.204813140625,17.999499999999998Q4.9998541406250006,19.374,6.486174140625,18.8163L7.702494140625,18.360599999999998Q7.900474140625,18.2866,8.128474140625,18.4241Q8.249754140625,18.4973,8.372464140625,18.564999999999998Q8.605744140625,18.6943,8.640184140625,18.902L8.853374140625,20.1842Q9.116264140624999,21.75,10.703024140625,21.75L13.297024140625,21.75Q14.887094140625,21.75,15.146894140625,20.183L15.359594140625,18.9036Q15.394794140625,18.694699999999997,15.628394140625,18.5656Q15.752494140625,18.496499999999997,15.870494140625,18.424799999999998Q16.100194140625,18.2866,16.296894140625,18.360300000000002L17.513894140625,18.8163Q19.001394140625003,19.3736,19.795494140625,17.9981L21.093694140625,15.7508Q21.885494140625,14.378,20.660894140625,13.3671L19.656494140625,12.53977Q19.494294140625,12.40639,19.499894140625,12.14038Q19.502194140625,12.0005,19.499894140625,11.85717Q19.494294140625,11.59362,19.657194140625,11.45966L20.659394140625,10.633289999999999Q21.886294140625,9.62435,21.092694140625,8.248280000000001L19.796394140625,6.0006699999999995Q19.000894140625,4.62446,17.513894140625,5.18368L16.296894140625,5.639670000000001Q16.100394140625,5.713290000000001,15.872194140625,5.57566Q15.727194140625,5.48827,15.628594140625,5.43501Q15.394794140625,5.30545,15.359894140625,5.09798L15.146894140625,3.817145Q14.886694140625,2.25,13.297024140625,2.25L10.704024140625,2.25Q9.114374140625,2.25,8.854274140625,3.81642ZM10.119774140625001,5.3445800000000006L10.119924140624999,5.34366L10.333774140625,4.06358Q10.385844140625,3.75,10.704024140625,3.75L13.297024140625,3.75Q13.615194140625,3.75,13.667194140625,4.06286L13.880194140625,5.34402Q14.035694140625,6.2671600000000005,14.901494140625,6.74699Q14.982994140625,6.79111,15.097894140625,6.86034Q15.947094140625,7.37252,16.823194140625,7.04433L18.040194140624997,6.5883199999999995Q18.338594140625,6.47609,18.497694140625,6.751329999999999L19.793294140625,8.997720000000001Q19.952094140625,9.27291,19.706694140625,9.47471L18.702894140625,10.302330000000001Q17.979294140625,10.89754,18.000194140625,11.88883Q18.001994140625,12.0005,18.000094140625002,12.11561Q17.979194140624998,13.1024,18.703594140625,13.6982L19.707194140625,14.5249Q19.952394140625,14.7273,19.794394140625,15.0012L18.496594140625,17.247799999999998Q18.337694140625,17.5231,18.040194140624997,17.4117L16.823194140625,16.9557Q15.948094140625,16.6278,15.097594140625,17.139200000000002Q14.997994140625,17.1998,14.899694140625,17.2544Q14.035794140625,17.732,13.880394140625,18.654400000000003L13.667194140625,19.937Q13.615294140625,20.25,13.297024140625,20.25L10.703024140625,20.25Q10.385424140625,20.25,10.332674140624999,19.9358L10.119864140625001,18.656Q9.966974140625,17.7337,9.099584140625,17.253Q8.999804140624999,17.198,8.903564140625,17.1399Q8.054464140625,16.6278,7.177544140625,16.955399999999997L5.959864140625,17.4117Q5.662234140624999,17.5233,5.5032341406250005,17.2485L4.206579140625,15.0021Q4.047985140625,14.7271,4.293378140625,14.5253L5.297864140625,13.6979Q6.019244140625,13.105,6.000894140625,12.11411Q5.9988041406249994,12.00049,6.000894140625,11.88679Q6.019124140624999,10.89738,5.298424140625,10.30256L4.293862140625,9.475100000000001Q4.048621140625,9.27325,4.206972140625,8.998249999999999L5.503574140625,6.75193Q5.662594140625,6.4763,5.960334140625,6.58811L7.176674140625,7.04424Q8.054464140625,7.37218,8.903344140625,6.86024Q8.968764140625,6.82028,9.106224140624999,6.74226Q9.966254140625,6.26828,10.119774140625001,5.3445800000000006Z" fill-rule="evenodd" fill="#000000" fill-opacity="1"/></g><g><path d="M14.65165,9.348349Q13.5533,8.25,12,8.25Q10.4467,8.25,9.348349,9.34835Q8.25,10.4467,8.25,12Q8.25,13.5533,9.34835,14.65165Q10.4467,15.75,12,15.75Q13.5533,15.75,14.65165,14.65165Q15.75,13.5533,15.75,12Q15.75,10.4467,14.65165,9.348349ZM10.40901,10.40901Q11.06802,9.75,12,9.75Q12.93198,9.75,13.59099,10.40901Q14.25,11.06802,14.25,12Q14.25,12.93198,13.59099,13.59099Q12.93198,14.25,12,14.25Q11.06802,14.25,10.40901,13.59099Q9.75,12.93198,9.75,12Q9.75,11.06802,10.40901,10.40901Z" fill-rule="evenodd" fill="#000000" fill-opacity="1"/></g></g></svg>