<svg xmlns="http://www.w3.org/2000/svg" xmlns:xlink="http://www.w3.org/1999/xlink" fill="none" version="1.1" width="24" height="24" viewBox="0 0 24 24"><defs><clipPath id="master_svg0_3707_7683"><rect x="0" y="0" width="24" height="24" rx="0"/></clipPath></defs><g clip-path="url(#master_svg0_3707_7683)"><g><path d="M4.928936198883056,19.07108474121094Q2.0000061988830566,16.142084741210937,2.0000061988830566,11.999984741210938Q2.0000061988830566,7.857894741210938,4.9289461988830565,4.928904741210937Q7.857916198883057,1.9999847412109375,12.000006198883057,1.9999847412109375Q16.142106198883056,1.9999847412109375,19.071106198883058,4.928914741210937Q22.000006198883057,7.857894741210938,22.000006198883057,11.999984741210938Q22.000006198883057,16.142084741210937,19.071106198883058,19.07108474121094Q16.142106198883056,21.999984741210938,12.000006198883057,21.999984741210938Q7.857916198883057,21.999984741210938,4.928936198883056,19.07108474121094ZM13.136906198883057,7.227294741210938Q13.136906198883057,7.283114741210937,13.131406198883056,7.338674741210937Q13.125906198883056,7.394234741210938,13.115006198883057,7.448984741210937Q13.104106198883057,7.503734741210938,13.087906198883056,7.557154741210938Q13.071706198883057,7.610584741210937,13.050406198883056,7.662154741210937Q13.029006198883057,7.713734741210938,13.002706198883057,7.762964741210937Q12.976406198883057,7.812204741210937,12.945306198883056,7.858624741210938Q12.914306198883057,7.905034741210938,12.878906198883056,7.948194741210938Q12.843506198883057,7.991344741210938,12.804006198883057,8.030824741210939Q12.764506198883057,8.070294741210937,12.721406198883056,8.105714741210939Q12.678206198883057,8.141124741210938,12.631806198883057,8.172144741210937Q12.585406198883057,8.203154741210938,12.536206198883056,8.229474741210938Q12.486906198883057,8.255794741210938,12.435406198883056,8.277154741210937Q12.383806198883057,8.298514741210937,12.330406198883056,8.314724741210938Q12.276906198883056,8.330924741210938,12.222206198883057,8.341824741210939Q12.167406198883057,8.352714741210939,12.111906198883057,8.358184741210938Q12.056306198883057,8.363654741210937,12.000506198883057,8.363654741210937Q11.944676198883057,8.363654741210937,11.889116198883057,8.358184741210938Q11.833556198883057,8.352714741210939,11.778806198883057,8.341814741210937Q11.724046198883057,8.330924741210938,11.670626198883056,8.314724741210938Q11.617206198883057,8.298514741210937,11.565626198883056,8.277154741210937Q11.514056198883056,8.255794741210938,11.464816198883057,8.229474741210938Q11.415586198883057,8.203154741210938,11.369166198883057,8.172144741210937Q11.322746198883056,8.141124741210938,11.279596198883057,8.105714741210939Q11.236446198883057,8.070294741210937,11.196966198883057,8.030824741210939Q11.157496198883056,7.991344741210938,11.122076198883057,7.948194741210938Q11.086666198883057,7.905034741210938,11.055646198883057,7.858614741210937Q11.024626198883057,7.812204741210937,10.998316198883057,7.762964741210937Q10.971996198883057,7.713734741210938,10.950636198883057,7.662154741210937Q10.929266198883056,7.610584741210937,10.913066198883056,7.557154741210938Q10.896856198883057,7.503734741210938,10.885966198883057,7.448984741210937Q10.875076198883056,7.394234741210938,10.869606198883057,7.338674741210937Q10.864136198883056,7.283114741210937,10.864136198883056,7.227294741210938Q10.864136198883056,7.171464741210937,10.869606198883057,7.1159047412109375Q10.875076198883056,7.060354741210937,10.885966198883057,7.005594741210937Q10.896856198883057,6.950844741210937,10.913066198883056,6.897424741210937Q10.929266198883056,6.843994741210937,10.950636198883057,6.7924247412109375Q10.971996198883057,6.740844741210937,10.998316198883057,6.6916147412109375Q11.024626198883057,6.642374741210937,11.055646198883057,6.5959647412109375Q11.086666198883057,6.549544741210937,11.122076198883057,6.506384741210938Q11.157496198883056,6.463234741210938,11.196966198883057,6.423764741210937Q11.236446198883057,6.384284741210937,11.279596198883057,6.348874741210937Q11.322756198883056,6.313454741210937,11.369166198883057,6.282434741210937Q11.415586198883057,6.251424741210937,11.464816198883057,6.225104741210938Q11.514056198883056,6.198794741210937,11.565626198883056,6.177424741210937Q11.617206198883057,6.156064741210938,11.670626198883056,6.139854741210938Q11.724046198883057,6.123654741210937,11.778806198883057,6.112764741210937Q11.833556198883057,6.1018747412109375,11.889116198883057,6.096394741210937Q11.944676198883057,6.090924741210937,12.000506198883057,6.090924741210937Q12.056306198883057,6.090924741210937,12.111906198883057,6.096394741210937Q12.167406198883057,6.1018747412109375,12.222206198883057,6.112764741210937Q12.276906198883056,6.123654741210937,12.330406198883056,6.139854741210938Q12.383806198883057,6.156064741210938,12.435406198883056,6.177424741210937Q12.486906198883057,6.198794741210937,12.536206198883056,6.225104741210938Q12.585406198883057,6.251424741210937,12.631806198883057,6.282434741210937Q12.678206198883057,6.313454741210937,12.721406198883056,6.348874741210937Q12.764506198883057,6.384284741210937,12.804006198883057,6.423764741210937Q12.843506198883057,6.463234741210938,12.878906198883056,6.506384741210938Q12.914306198883057,6.549544741210937,12.945306198883056,6.595954741210938Q12.976406198883057,6.642374741210937,13.002706198883057,6.6916147412109375Q13.029006198883057,6.740844741210937,13.050406198883056,6.7924247412109375Q13.071706198883057,6.843994741210937,13.087906198883056,6.897424741210937Q13.104106198883057,6.950844741210937,13.115006198883057,7.005594741210937Q13.125906198883056,7.060354741210937,13.131406198883056,7.1159047412109375Q13.136906198883057,7.171464741210937,13.136906198883057,7.227294741210938ZM11.318426198883056,11.093504741210937C10.814916198883056,11.093504741210937,10.406736198883056,10.685324741210938,10.406736198883056,10.181814741210937C10.406736198883056,9.678304741210937,10.814916198883056,9.270124741210937,11.318426198883056,9.270124741210937C11.341376198883056,9.270124741210937,11.364316198883056,9.270994741210938,11.387196198883057,9.272724741210936L12.227506198883056,9.272724741210936C12.729606198883056,9.272724741210936,13.136606198883056,9.679734741210938,13.136606198883056,10.181814741210937L13.136606198883056,15.636284741210938L13.749606198883056,15.636284741210938C13.772506198883057,15.634584741210938,13.795506198883057,15.633684741210937,13.818406198883057,15.633684741210937C14.321906198883056,15.633684741210937,14.730106198883057,16.041884741210936,14.730106198883057,16.54538474121094C14.730106198883057,17.048884741210937,14.321906198883056,17.457084741210938,13.818406198883057,17.457084741210938C13.795506198883057,17.457084741210938,13.772506198883057,17.45618474121094,13.749606198883056,17.454484741210937L12.297506198883056,17.454484741210937C12.274406198883057,17.456284741210936,12.251106198883056,17.457184741210938,12.227506198883056,17.457184741210938C12.204006198883057,17.457184741210938,12.180606198883057,17.456284741210936,12.157506198883057,17.454484741210937L10.705366198883057,17.454484741210937C10.682486198883057,17.45618474121094,10.659546198883056,17.457084741210938,10.636596198883057,17.457084741210938C10.133086198883056,17.457084741210938,9.724906198883057,17.048884741210937,9.724906198883057,16.54538474121094C9.724906198883057,16.041884741210936,10.133086198883056,15.633684741210937,10.636596198883057,15.633684741210937C10.659546198883056,15.633684741210937,10.682486198883057,15.634584741210938,10.705366198883057,15.636284741210938L11.318426198883056,15.636284741210938L11.318426198883056,11.093504741210937Z" fill-rule="evenodd" fill="#2882FF" fill-opacity="1"/></g></g></svg>