<svg xmlns="http://www.w3.org/2000/svg" xmlns:xlink="http://www.w3.org/1999/xlink" fill="none" version="1.1" width="24.00000762939453" height="24" viewBox="0 0 24.00000762939453 24"><g><g><path d="M22.100990844726564,12.1004755859375Q22.100990844726564,12.3459755859375,22.088990844726563,12.5911755859375Q22.076890844726563,12.8363755859375,22.052790844726562,13.0806755859375Q22.02879084472656,13.3249755859375,21.992790844726564,13.5678755859375Q21.956690844726563,13.8106755859375,21.908790844726564,14.0514755859375Q21.860890844726562,14.2922755859375,21.801290844726562,14.5303755859375Q21.741590844726563,14.7685755859375,21.670390844726562,15.0034755859375Q21.59909084472656,15.2383755859375,21.516390844726562,15.4695755859375Q21.433690844726563,15.7006755859375,21.33979084472656,15.9274755859375Q21.245790844726564,16.154275585937498,21.140790844726563,16.3762755859375Q21.035890844726563,16.5981755859375,20.920190844726562,16.8146755859375Q20.804390844726562,17.0311755859375,20.67819084472656,17.2417755859375Q20.551990844726564,17.4523755859375,20.415590844726562,17.6564755859375Q20.279190844726564,17.8605755859375,20.132990844726564,18.0577755859375Q19.986690844726564,18.2549755859375,19.830990844726564,18.4446755859375Q19.67519084472656,18.6344755859375,19.51039084472656,18.8163755859375Q19.345490844726562,18.9982755859375,19.171890844726562,19.1718755859375Q18.99829084472656,19.3454755859375,18.816390844726563,19.5103755859375Q18.634490844726564,19.6751755859375,18.444690844726562,19.8309755859375Q18.254990844726564,19.9866755859375,18.05779084472656,20.1329755859375Q17.860590844726563,20.2791755859375,17.656490844726562,20.4155755859375Q17.452390844726562,20.5519755859375,17.241790844726562,20.6781755859375Q17.031190844726563,20.8043755859375,16.814690844726563,20.9201755859375Q16.598190844726563,21.0358755859375,16.37629084472656,21.1407755859375Q16.15429084472656,21.2457755859375,15.927490844726563,21.3397755859375Q15.700690844726562,21.4336755859375,15.469590844726563,21.5163755859375Q15.238390844726563,21.5990755859375,15.003490844726562,21.6703755859375Q14.768590844726562,21.7415755859375,14.530390844726563,21.8012755859375Q14.292290844726562,21.8608755859375,14.051490844726562,21.9087755859375Q13.810690844726562,21.9566755859375,13.567890844726563,21.9927755859375Q13.324990844726562,22.0287755859375,13.080690844726563,22.0527755859375Q12.836390844726562,22.0768755859375,12.591190844726562,22.0889755859375Q12.345990844726563,22.1009755859375,12.100490844726563,22.1009755859375Q11.854990844726563,22.1009755859375,11.609790844726563,22.0889755859375Q11.364590844726562,22.0768755859375,11.120270844726562,22.0527755859375Q10.875950844726562,22.0287755859375,10.633110844726563,21.9927755859375Q10.390270844726562,21.9566755859375,10.149490844726563,21.9087755859375Q9.908710844726563,21.8608755859375,9.670570844726562,21.8012755859375Q9.432430844726563,21.7415755859375,9.197500844726562,21.6703755859375Q8.962570844726564,21.5990755859375,8.731420844726562,21.5163755859375Q8.500270844726563,21.4336755859375,8.273460844726563,21.3397755859375Q8.046650844726562,21.2457755859375,7.824720844726563,21.1407755859375Q7.602800844726563,21.0358755859375,7.386290844726562,20.9201755859375Q7.169780844726563,20.8043755859375,6.9592008447265625,20.6781755859375Q6.748630844726563,20.5519755859375,6.544510844726562,20.4155755859375Q6.340380844726562,20.2791755859375,6.143200844726563,20.1329755859375Q5.946010844726563,19.9866755859375,5.7562408447265625,19.8309755859375Q5.566470844726562,19.6751755859375,5.384560844726563,19.5103755859375Q5.202660844726562,19.3454755859375,5.029070844726562,19.1718755859375Q4.855470844726563,18.9982755859375,4.690610844726562,18.8163755859375Q4.525740844726562,18.6344755859375,4.370000844726563,18.4446755859375Q4.214260844726562,18.2549755859375,4.068010844726563,18.0577755859375Q3.9217708447265625,17.8605755859375,3.7853808447265624,17.6564755859375Q3.6489908447265624,17.4523755859375,3.5227708447265624,17.2417755859375Q3.3965608447265625,17.0311755859375,3.2808408447265625,16.8146755859375Q3.165110844726563,16.5981755859375,3.0601458447265624,16.3762755859375Q2.9551818447265625,16.154275585937498,2.8612338447265624,15.9274755859375Q2.7672848447265626,15.7006755859375,2.6845788447265626,15.4695755859375Q2.6018728447265627,15.2383755859375,2.5306088447265624,15.0034755859375Q2.4593448447265627,14.7685755859375,2.3996928447265624,14.5303755859375Q2.3400418447265623,14.2922755859375,2.2921478447265624,14.0514755859375Q2.2442528447265624,13.8106755859375,2.2082308447265624,13.5678755859375Q2.1722090447265625,13.3249755859375,2.1481459447265623,13.0806755859375Q2.1240829447265623,12.8363755859375,2.1120368447265623,12.5911755859375Q2.0999908447265625,12.3459755859375,2.0999908447265625,12.1004755859375Q2.0999908447265625,11.8549755859375,2.1120368447265623,11.6097755859375Q2.1240829447265623,11.3645755859375,2.1481459447265623,11.1202555859375Q2.1722090447265625,10.8759355859375,2.2082308447265624,10.6330955859375Q2.2442528447265624,10.3902555859375,2.2921478447265624,10.1494755859375Q2.3400418447265623,9.908695585937501,2.3996928447265624,9.6705555859375Q2.4593448447265627,9.4324155859375,2.5306088447265624,9.1974855859375Q2.6018728447265627,8.962555585937501,2.6845788447265626,8.7314055859375Q2.7672848447265626,8.5002555859375,2.8612338447265624,8.2734455859375Q2.9551818447265625,8.0466355859375,3.0601458447265624,7.8247055859375Q3.165110844726563,7.6027855859375,3.2808408447265625,7.3862755859375Q3.3965608447265625,7.1697655859375,3.5227708447265624,6.9591855859375Q3.6489908447265624,6.7486155859375,3.7853808447265624,6.5444955859375Q3.9217708447265625,6.3403655859375,4.068010844726563,6.1431855859375Q4.214260844726562,5.9459955859375,4.370000844726563,5.7562255859375Q4.525740844726562,5.5664555859375,4.690610844726562,5.3845455859375Q4.855470844726563,5.2026455859375,5.029070844726562,5.0290555859375Q5.202660844726562,4.8554555859375,5.384560844726563,4.6905955859374995Q5.566470844726562,4.5257255859375,5.7562408447265625,4.3699855859375Q5.946010844726563,4.214245585937499,6.143200844726563,4.0679955859375Q6.340380844726562,3.9217555859375,6.544510844726562,3.7853655859375Q6.748630844726563,3.6489755859375,6.9592008447265625,3.5227555859375Q7.169780844726563,3.3965455859375,7.386290844726562,3.2808255859375Q7.602800844726563,3.1650955859375003,7.824720844726563,3.0601305859375Q8.046650844726562,2.9551665859375,8.273460844726563,2.8612185859375Q8.500270844726563,2.7672695859375,8.731420844726562,2.6845635859375Q8.962570844726564,2.6018575859375,9.197500844726562,2.5305935859375Q9.432430844726563,2.4593295859375,9.670570844726562,2.3996775859375Q9.908710844726563,2.3400265859375,10.149490844726563,2.2921325859375Q10.390270844726562,2.2442375859375,10.633110844726563,2.2082155859375Q10.875950844726562,2.1721937859375,11.120270844726562,2.1481306859375Q11.364590844726562,2.1240676859375,11.609790844726563,2.1120215859375Q11.854990844726563,2.0999755859375,12.100490844726563,2.0999755859375Q12.345990844726563,2.0999755859375,12.591190844726562,2.1120215859375Q12.836390844726562,2.1240676859375,13.080690844726563,2.1481306859375Q13.324990844726562,2.1721937859375,13.567890844726563,2.2082155859375Q13.810690844726562,2.2442375859375,14.051490844726562,2.2921325859375Q14.292290844726562,2.3400265859375,14.530390844726563,2.3996775859375Q14.768590844726562,2.4593295859375,15.003490844726562,2.5305935859375Q15.238390844726563,2.6018575859375,15.469590844726563,2.6845635859375Q15.700690844726562,2.7672695859375,15.927490844726563,2.8612185859375Q16.15429084472656,2.9551665859375,16.37629084472656,3.0601305859375Q16.598190844726563,3.1650955859375003,16.814690844726563,3.2808255859375Q17.031190844726563,3.3965455859375,17.241790844726562,3.5227555859375Q17.452390844726562,3.6489755859375,17.656490844726562,3.7853655859375Q17.860590844726563,3.9217555859375,18.05779084472656,4.0679955859375Q18.254990844726564,4.214245585937499,18.444690844726562,4.3699855859375Q18.634490844726564,4.5257255859375,18.816390844726563,4.6905955859374995Q18.99829084472656,4.8554555859375,19.171890844726562,5.0290555859375Q19.345490844726562,5.2026455859375,19.51039084472656,5.3845455859375Q19.67519084472656,5.5664555859375,19.830990844726564,5.7562255859375Q19.986690844726564,5.9459955859375,20.132990844726564,6.1431855859375Q20.279190844726564,6.3403655859375,20.415590844726562,6.5444955859375Q20.551990844726564,6.7486155859375,20.67819084472656,6.9591855859375Q20.804390844726562,7.1697655859375,20.920190844726562,7.3862755859375Q21.035890844726563,7.6027855859375,21.140790844726563,7.8247055859375Q21.245790844726564,8.0466355859375,21.33979084472656,8.2734455859375Q21.433690844726563,8.5002555859375,21.516390844726562,8.7314055859375Q21.59909084472656,8.962555585937501,21.670390844726562,9.1974855859375Q21.741590844726563,9.4324155859375,21.801290844726562,9.6705555859375Q21.860890844726562,9.908695585937501,21.908790844726564,10.1494755859375Q21.956690844726563,10.3902555859375,21.992790844726564,10.6330955859375Q22.02879084472656,10.8759355859375,22.052790844726562,11.1202555859375Q22.076890844726563,11.3645755859375,22.088990844726563,11.6097755859375Q22.100990844726564,11.8549755859375,22.100990844726564,12.1004755859375ZM16.54469084472656,7.6351955859375Q16.596990844726562,7.6874255859375,16.637990844726563,7.7488455859375Q16.679090844726563,7.8102655859375,16.707290844726565,7.8785155859375Q16.735590844726563,7.9467555859375,16.74999084472656,8.019205585937499Q16.764390844726563,8.091655585937499,16.764390844726563,8.1655255859375Q16.764390844726563,8.239395585937501,16.74999084472656,8.311845585937501Q16.735590844726563,8.384295585937501,16.707290844726565,8.4525355859375Q16.679090844726563,8.5207855859375,16.637990844726563,8.582205585937501Q16.596990844726562,8.6436255859375,16.54469084472656,8.695855585937501L13.150590844726562,12.0900155859375L16.54469084472656,15.4841755859375Q16.596890844726563,15.5363755859375,16.637990844726563,15.5977755859375Q16.678990844726563,15.6591755859375,16.707290844726565,15.7274755859375Q16.735590844726563,15.7956755859375,16.74999084472656,15.8681755859375Q16.764390844726563,15.9405755859375,16.764390844726563,16.0144755859375Q16.764390844726563,16.0883755859375,16.74999084472656,16.1607755859375Q16.735590844726563,16.2332755859375,16.707290844726565,16.3014755859375Q16.678990844726563,16.3696755859375,16.637990844726563,16.431175585937503Q16.596890844726563,16.4925755859375,16.54469084472656,16.5447755859375Q16.49249084472656,16.5970755859375,16.431090844726562,16.6380755859375Q16.369590844726563,16.6790755859375,16.301390844726562,16.7073755859375Q16.23309084472656,16.7356755859375,16.160690844726563,16.750075585937502Q16.08819084472656,16.7644755859375,16.014390844726563,16.7644755859375Q15.940490844726563,16.7644755859375,15.868090844726563,16.750075585937502Q15.795590844726563,16.7356755859375,15.727390844726562,16.7073755859375Q15.659090844726563,16.6790755859375,15.597690844726563,16.6380755859375Q15.536290844726562,16.5970755859375,15.484090844726563,16.5447755859375L12.089920844726562,13.1506755859375L8.695850844726563,16.5447755859375Q8.643620844726563,16.5969755859375,8.582200844726563,16.6379755859375Q8.520780844726563,16.6790755859375,8.452530844726564,16.707275585937502Q8.384290844726562,16.7355755859375,8.311840844726563,16.7499755859375Q8.239390844726563,16.7643755859375,8.165520844726561,16.7643755859375Q8.091650844726562,16.7643755859375,8.019200844726562,16.7499755859375Q7.946750844726562,16.7355755859375,7.878510844726563,16.707275585937502Q7.810260844726563,16.6790755859375,7.748840844726563,16.6379755859375Q7.687420844726563,16.5969755859375,7.635190844726562,16.5447755859375Q7.582960844726562,16.4924755859375,7.541920844726563,16.4310755859375Q7.500880844726563,16.3696755859375,7.472610844726563,16.3013755859375Q7.444340844726563,16.233175585937502,7.429930844726562,16.1607755859375Q7.415520844726562,16.088275585937502,7.415520844726562,16.0143755859375Q7.415520844726562,15.9405755859375,7.429930844726562,15.8680755859375Q7.444340844726563,15.7956755859375,7.472610844726563,15.7273755859375Q7.500880844726563,15.6591755859375,7.541920844726563,15.5977755859375Q7.582960844726562,15.5362755859375,7.635190844726562,15.4840755859375L11.029260844726563,12.0900155859375L7.635160844726562,8.6959055859375Q7.529670844726563,8.5904155859375,7.472580844726562,8.4525955859375Q7.415490844726563,8.3147655859375,7.415490844726563,8.1655755859375Q7.415490844726563,8.016395585937499,7.472580844726562,7.8785655859375Q7.529670844726563,7.7407355859375,7.635160844726562,7.6352455859375Q7.687390844726562,7.5830155859375,7.748810844726562,7.5419755859375Q7.810230844726562,7.5009355859375,7.878480844726562,7.4726655859375Q7.9467208447265625,7.4444055859375,8.019170844726563,7.4299855859375Q8.091620844726563,7.4155755859375,8.165490844726563,7.4155755859375Q8.239360844726562,7.4155755859375,8.311810844726562,7.4299855859375Q8.384250844726562,7.4444055859375,8.452500844726561,7.4726655859375Q8.520750844726562,7.5009355859375,8.582170844726562,7.5419755859375Q8.643590844726562,7.5830155859375,8.695820844726562,7.6352455859375L12.089920844726562,11.0293555859375L15.484090844726563,7.6351955859375Q15.536290844726562,7.5829655859375,15.597690844726563,7.5419255859375Q15.659190844726563,7.5008855859375,15.727390844726562,7.4726155859375Q15.795590844726563,7.4443455859375,15.868090844726563,7.4299355859375Q15.940490844726563,7.4155255859375,16.014390844726563,7.4155255859375Q16.088290844726565,7.4155255859375,16.160690844726563,7.4299355859375Q16.233190844726565,7.4443455859375,16.301390844726562,7.4726155859375Q16.369690844726563,7.5008855859375,16.431090844726562,7.5419255859375Q16.49249084472656,7.5829655859375,16.54469084472656,7.6351955859375Z" fill-rule="evenodd" fill="#EF4444" fill-opacity="1"/></g></g></svg>