<svg xmlns="http://www.w3.org/2000/svg" xmlns:xlink="http://www.w3.org/1999/xlink" fill="none" version="1.1" width="24" height="24" viewBox="0 0 24 24"><defs><clipPath id="master_svg0_3707_7685/3410_01155"><rect x="0" y="0" width="24" height="24" rx="0"/></clipPath><clipPath id="master_svg1_3707_7685/3410_01156"><rect x="0" y="0" width="7.200000286102295" height="7.200000286102295" rx="0"/></clipPath><clipPath id="master_svg2_3707_7685/3410_01157"><rect x="2" y="2" width="20" height="20" rx="0"/></clipPath></defs><g><g clip-path="url(#master_svg0_3707_7685/3410_01155)"><g clip-path="url(#master_svg1_3707_7685/3410_01156)"></g><g clip-path="url(#master_svg2_3707_7685/3410_01157)"><g><path d="M4.579941740217208,21.083257958984376L4.576661740217209,21.083257958984376Q3.1745517402172085,21.088057958984376,2.446753740217209,19.888657958984375Q1.718099740217209,18.687957958984374,2.3720857402172086,17.444857958984375L9.797031740217209,3.408427958984375Q10.121191740217208,2.795763958984375,10.71490174021721,2.4382109589843752Q11.30860174021721,2.080657958984375,12.001661740217209,2.080657958984375Q12.694751740217209,2.080657958984375,13.288451740217209,2.4382109589843752Q13.882151740217209,2.795764958984375,14.206251740217208,3.408357958984375L21.630451740217207,17.443457958984375Q22.285951740217207,18.689257958984374,21.55535174021721,19.890757958984373Q20.82475174021721,21.092157958984377,19.418551740217207,21.083257958984376L4.579941740217208,21.083257958984376ZM11.100011740217209,8.999947958984375L11.100011740217209,14.099957958984374Q11.100011740217209,14.188557958984376,11.11730174021721,14.275557958984376Q11.134601740217208,14.362457958984375,11.168521740217209,14.444357958984375Q11.202441740217209,14.526257958984376,11.25169174021721,14.599957958984374Q11.300941740217208,14.673657958984375,11.363621740217209,14.736357958984375Q11.426301740217209,14.799057958984376,11.50000174021721,14.848257958984375Q11.573701740217208,14.897557958984375,11.65560174021721,14.931457958984375Q11.737491740217209,14.965357958984375,11.824431740217209,14.982657958984374Q11.91137174021721,14.999957958984375,12.000011740217209,14.999957958984375Q12.088651740217209,14.999957958984375,12.175551740217209,14.982657958984374Q12.262551740217209,14.965357958984375,12.34445174021721,14.931457958984375Q12.426351740217209,14.897557958984375,12.50005174021721,14.848257958984375Q12.573751740217208,14.799057958984376,12.63645174021721,14.736357958984375Q12.69905174021721,14.673657958984375,12.74835174021721,14.599957958984374Q12.797551740217209,14.526257958984376,12.83155174021721,14.444357958984375Q12.865451740217209,14.362457958984375,12.88275174021721,14.275557958984376Q12.90005174021721,14.188557958984376,12.90005174021721,14.099957958984374L12.90005174021721,8.999947958984375Q12.90005174021721,8.911297958984374,12.88275174021721,8.824367958984375Q12.865451740217209,8.737427958984375,12.83155174021721,8.655527958984376Q12.797551740217209,8.573637958984374,12.74835174021721,8.499927958984376Q12.69905174021721,8.426227958984375,12.63645174021721,8.363547958984375Q12.573751740217208,8.300867958984375,12.50005174021721,8.251617958984376Q12.426351740217209,8.202377958984375,12.34445174021721,8.168447958984375Q12.262551740217209,8.134527958984375,12.175551740217209,8.117237958984376Q12.088651740217209,8.099947958984375,12.000011740217209,8.099947958984375Q11.91137174021721,8.099947958984375,11.824431740217209,8.117237958984376Q11.737491740217209,8.134527958984375,11.65560174021721,8.168447958984375Q11.573701740217208,8.202377958984375,11.50000174021721,8.251617958984376Q11.426301740217209,8.300867958984375,11.363621740217209,8.363547958984375Q11.300941740217208,8.426227958984375,11.25169174021721,8.499927958984376Q11.202441740217209,8.573637958984374,11.168521740217209,8.655527958984376Q11.134601740217208,8.737427958984375,11.11730174021721,8.824367958984375Q11.100011740217209,8.911297958984374,11.100011740217209,8.999947958984375ZM11.100011740217209,16.799957958984375Q11.100011740217209,16.711357958984372,11.11730174021721,16.624457958984372Q11.134601740217208,16.537457958984376,11.168521740217209,16.455557958984375Q11.202441740217209,16.373657958984374,11.25169174021721,16.299957958984375Q11.300941740217208,16.226257958984377,11.363621740217209,16.163557958984377Q11.426301740217209,16.100957958984374,11.50000174021721,16.051657958984375Q11.573701740217208,16.002457958984373,11.65560174021721,15.968457958984375Q11.737491740217209,15.934557958984374,11.824431740217209,15.917257958984376Q11.91137174021721,15.899957958984375,12.000011740217209,15.899957958984375Q12.088651740217209,15.899957958984375,12.175551740217209,15.917257958984376Q12.262551740217209,15.934557958984374,12.34445174021721,15.968457958984375Q12.426351740217209,16.002457958984373,12.50005174021721,16.051657958984375Q12.573751740217208,16.100957958984374,12.63645174021721,16.163557958984377Q12.69905174021721,16.226257958984377,12.74835174021721,16.299957958984375Q12.797551740217209,16.373657958984374,12.83155174021721,16.455557958984375Q12.865451740217209,16.537457958984376,12.88275174021721,16.624457958984372Q12.90005174021721,16.711357958984372,12.90005174021721,16.799957958984375Q12.90005174021721,16.888657958984375,12.88275174021721,16.975557958984375Q12.865451740217209,17.062557958984375,12.83155174021721,17.144357958984376Q12.797551740217209,17.226257958984377,12.74835174021721,17.299957958984375Q12.69905174021721,17.373657958984374,12.63645174021721,17.436357958984374Q12.573751740217208,17.499057958984373,12.50005174021721,17.548357958984376Q12.426351740217209,17.597557958984375,12.34445174021721,17.631457958984377Q12.262551740217209,17.665357958984373,12.175551740217209,17.682657958984375Q12.088651740217209,17.699957958984378,12.000011740217209,17.699957958984378Q11.91137174021721,17.699957958984378,11.824431740217209,17.682657958984375Q11.737491740217209,17.665357958984373,11.65560174021721,17.631457958984377Q11.573701740217208,17.597557958984375,11.50000174021721,17.548357958984376Q11.426301740217209,17.499057958984373,11.363621740217209,17.436357958984374Q11.300941740217208,17.373757958984378,11.25169174021721,17.299957958984375Q11.202441740217209,17.226257958984377,11.168521740217209,17.144457958984376Q11.134601740217208,17.062557958984375,11.11730174021721,16.975557958984375Q11.100011740217209,16.888657958984375,11.100011740217209,16.799957958984375Z" fill-rule="evenodd" fill="#F97316" fill-opacity="1"/></g></g></g></g></svg>