<svg xmlns="http://www.w3.org/2000/svg" xmlns:xlink="http://www.w3.org/1999/xlink" fill="none" version="1.1" width="24" height="24" viewBox="0 0 24 24"><defs><clipPath id="master_svg0_5372_06627"><rect x="0" y="0" width="24" height="24" rx="0"/></clipPath><clipPath id="master_svg1_5372_06628"><rect x="0" y="1.29998779296875" width="24" height="21.473684310913086" rx="0"/></clipPath><filter id="master_svg2_5372_06666" filterUnits="objectBoundingBox" color-interpolation-filters="sRGB" x="-32" y="-23" width="56.42105293273926" height="56.34678077697754"><feFlood flood-opacity="0" result="BackgroundImageFix"/><feColorMatrix in="SourceAlpha" type="matrix" values="0 0 0 0 0 0 0 0 0 0 0 0 0 0 0 0 0 0 127 0"/><feOffset dy="8" dx="0"/><feGaussianBlur stdDeviation="5"/><feColorMatrix type="matrix" values="0 0 0 0 0.5708330273628235 0 0 0 0 0.7496529817581177 0 0 0 0 1 0 0 0 0.11999999731779099 0"/><feBlend mode="normal" in2="BackgroundImageFix" result="effect1_dropShadow"/><feColorMatrix in="SourceAlpha" type="matrix" values="0 0 0 0 0 0 0 0 0 0 0 0 0 0 0 0 0 0 127 0"/><feOffset dy="1" dx="0"/><feGaussianBlur stdDeviation="3"/><feColorMatrix type="matrix" values="0 0 0 0 1 0 0 0 0 1 0 0 0 0 1 0 0 0 0.25 0"/><feBlend mode="normal" in2="effect1_dropShadow" result="effect2_dropShadow"/><feBlend mode="normal" in="SourceGraphic" in2="effect2_dropShadow" result="shape"/></filter><linearGradient x1="1.0499999523162842" y1="1.0911352634429932" x2="0.23936153948307037" y2="-0.00581089872866869" id="master_svg3_5372_05879"><stop offset="0%" stop-color="#C4DCFF" stop-opacity="1"/><stop offset="100%" stop-color="#F5F7FA" stop-opacity="1"/></linearGradient><filter id="master_svg4_5372_06651" filterUnits="objectBoundingBox" color-interpolation-filters="sRGB" x="-4" y="-2" width="26.442106246948242" height="20.378948211669922"><feFlood flood-opacity="0" result="BackgroundImageFix"/><feColorMatrix in="SourceAlpha" type="matrix" values="0 0 0 0 0 0 0 0 0 0 0 0 0 0 0 0 0 0 127 0"/><feOffset dy="2" dx="0"/><feGaussianBlur stdDeviation="1"/><feColorMatrix type="matrix" values="0 0 0 0 0.45490196347236633 0 0 0 0 0.5686274766921997 0 0 0 0 0.7490196228027344 0 0 0 0.30000001192092896 0"/><feBlend mode="normal" in2="BackgroundImageFix" result="effect1_dropShadow"/><feBlend mode="normal" in="SourceGraphic" in2="effect1_dropShadow" result="shape"/></filter><filter id="master_svg5_5372_06653" filterUnits="objectBoundingBox" color-interpolation-filters="sRGB" x="-4" y="-2" width="26.442106246948242" height="20.378948211669922"><feFlood flood-opacity="0" result="BackgroundImageFix"/><feColorMatrix in="SourceAlpha" type="matrix" values="0 0 0 0 0 0 0 0 0 0 0 0 0 0 0 0 0 0 127 0"/><feOffset dy="2" dx="0"/><feGaussianBlur stdDeviation="1"/><feColorMatrix type="matrix" values="0 0 0 0 0.45490196347236633 0 0 0 0 0.5686274766921997 0 0 0 0 0.7490196228027344 0 0 0 0.30000001192092896 0"/><feBlend mode="normal" in2="BackgroundImageFix" result="effect1_dropShadow"/><feBlend mode="normal" in="SourceGraphic" in2="effect1_dropShadow" result="shape"/></filter><linearGradient x1="-0.4693904221057892" y1="0.4740918278694153" x2="0.1167328730225563" y2="1.7921632528305054" id="master_svg6_5372_06366"><stop offset="0%" stop-color="#F2F4F6" stop-opacity="1"/><stop offset="100%" stop-color="#F2F4F6" stop-opacity="1"/></linearGradient><filter id="master_svg7_5372_06659" filterUnits="objectBoundingBox" color-interpolation-filters="sRGB" x="-4" y="-2" width="20.75789451599121" height="9.51578950881958"><feFlood flood-opacity="0" result="BackgroundImageFix"/><feColorMatrix in="SourceAlpha" type="matrix" values="0 0 0 0 0 0 0 0 0 0 0 0 0 0 0 0 0 0 127 0"/><feOffset dy="2" dx="0"/><feGaussianBlur stdDeviation="1"/><feColorMatrix type="matrix" values="0 0 0 0 0 0 0 0 0 0 0 0 0 0 0 0 0 0 0.029999999329447746 0"/><feBlend mode="normal" in2="BackgroundImageFix" result="effect1_dropShadow"/><feBlend mode="normal" in="SourceGraphic" in2="effect1_dropShadow" result="shape"/></filter><filter id="master_svg8_5372_06664" filterUnits="objectBoundingBox" color-interpolation-filters="sRGB" x="-4" y="-2" width="20.75789451599121" height="14.06315803527832"><feFlood flood-opacity="0" result="BackgroundImageFix"/><feColorMatrix in="SourceAlpha" type="matrix" values="0 0 0 0 0 0 0 0 0 0 0 0 0 0 0 0 0 0 127 0"/><feOffset dy="2" dx="0"/><feGaussianBlur stdDeviation="1"/><feColorMatrix type="matrix" values="0 0 0 0 0 0 0 0 0 0 0 0 0 0 0 0 0 0 0.029999999329447746 0"/><feBlend mode="normal" in2="BackgroundImageFix" result="effect1_dropShadow"/><feBlend mode="normal" in="SourceGraphic" in2="effect1_dropShadow" result="shape"/></filter><filter id="master_svg9_5372_06643" filterUnits="objectBoundingBox" color-interpolation-filters="sRGB" x="-8.17199993133545" y="-6.128999948501587" width="34.78610610961914" height="17.762399435043335"><feFlood flood-opacity="0" result="BackgroundImageFix"/><feColorMatrix in="SourceAlpha" type="matrix" values="0 0 0 0 0 0 0 0 0 0 0 0 0 0 0 0 0 0 127 0"/><feOffset dy="2.0429999828338623" dx="0"/><feGaussianBlur stdDeviation="2.0429999828338623"/><feColorMatrix type="matrix" values="0 0 0 0 0.4546460211277008 0 0 0 0 0.5671598315238953 0 0 0 0 0.75 0 0 0 0.30000001192092896 0"/><feBlend mode="normal" in2="BackgroundImageFix" result="effect1_dropShadow"/><feBlend mode="normal" in="SourceGraphic" in2="effect1_dropShadow" result="shape"/></filter><linearGradient x1="-0.4693904221057892" y1="0.47412949800491333" x2="-0.4583767056465149" y2="2.3597826957702637" id="master_svga_5372_05854"><stop offset="0%" stop-color="#F7F8FA" stop-opacity="1"/><stop offset="100%" stop-color="#FFFFFF" stop-opacity="1"/></linearGradient><filter id="master_svgb_5372_06635" filterUnits="objectBoundingBox" color-interpolation-filters="sRGB" x="-6" y="-6" width="13.714557886123657" height="13.772921562194824"><feFlood flood-opacity="0" result="BackgroundImageFix"/><feColorMatrix in="SourceAlpha" type="matrix" values="0 0 0 0 0 0 0 0 0 0 0 0 0 0 0 0 0 0 127 0"/><feMorphology radius="4" operator="dilate" in="SourceAlpha" result="effect1_dropShadow"/><feOffset dy="0" dx="0"/><feGaussianBlur stdDeviation="0.5"/><feColorMatrix type="matrix" values="0 0 0 0 0 0 0 0 0 0 0 0 0 0 0 0 0 0 0.20000000298023224 0"/><feBlend mode="normal" in2="BackgroundImageFix" result="effect1_dropShadow"/><feBlend mode="normal" in="SourceGraphic" in2="effect1_dropShadow" result="shape"/></filter><filter id="master_svgc_5372_06633" filterUnits="objectBoundingBox" color-interpolation-filters="sRGB" x="-6" y="-6" width="13.915371298789978" height="13.991019010543823"><feFlood flood-opacity="0" result="BackgroundImageFix"/><feColorMatrix in="SourceAlpha" type="matrix" values="0 0 0 0 0 0 0 0 0 0 0 0 0 0 0 0 0 0 127 0"/><feMorphology radius="4" operator="dilate" in="SourceAlpha" result="effect1_dropShadow"/><feOffset dy="0" dx="0"/><feGaussianBlur stdDeviation="0.5"/><feColorMatrix type="matrix" values="0 0 0 0 0 0 0 0 0 0 0 0 0 0 0 0 0 0 0.20000000298023224 0"/><feBlend mode="normal" in2="BackgroundImageFix" result="effect1_dropShadow"/><feBlend mode="normal" in="SourceGraphic" in2="effect1_dropShadow" result="shape"/></filter></defs><g clip-path="url(#master_svg0_5372_06627)"><g clip-path="url(#master_svg1_5372_06628)"><g><g filter="url(#master_svg2_5372_06666)"><g><path d="M20.210620263671874,11.9996839453125Q20.210620263671874,12.2003239453125,20.200720263671876,12.4007339453125Q20.190820263671874,12.6011339453125,20.171020263671874,12.8008139453125Q20.151320263671874,13.0004939453125,20.121720263671875,13.1989739453125Q20.092120263671877,13.3974439453125,20.052820263671876,13.5942339453125Q20.013520263671875,13.7910239453125,19.964520263671876,13.9856939453125Q19.915520263671876,14.1802939453125,19.857020263671874,14.3722939453125Q19.798520263671875,14.5642939453125,19.730620263671874,14.7531939453125Q19.662720263671876,14.9420939453125,19.585620263671874,15.1274939453125Q19.508420263671873,15.3128939453125,19.422320263671875,15.4942939453125Q19.336120263671873,15.6755939453125,19.241120263671874,15.8525939453125Q19.146020263671875,16.0295939453125,19.042420263671875,16.2015939453125Q18.938820263671875,16.3737939453125,18.826820263671877,16.5405939453125Q18.714820263671875,16.7073939453125,18.594820263671878,16.868593945312497Q18.474720263671877,17.029693945312502,18.346820263671873,17.1847939453125Q18.219020263671876,17.3398939453125,18.083620263671875,17.488593945312502Q17.948320263671874,17.6372939453125,17.805720263671873,17.7790939453125Q17.663220263671874,17.9209939453125,17.513920263671874,18.0557939453125Q17.364520263671874,18.1904939453125,17.208720263671875,18.317793945312502Q17.052920263671876,18.4450939453125,16.891020263671876,18.564593945312502Q16.729120263671874,18.684093945312497,16.561520263671873,18.7955939453125Q16.394020263671877,18.9070939453125,16.221120263671875,19.0101939453125Q16.048220263671872,19.113393945312502,15.870420263671875,19.207993945312502Q15.692720263671875,19.302593945312502,15.510520263671875,19.388293945312498Q15.328320263671875,19.4740939453125,15.142120263671876,19.550893945312502Q14.955820263671875,19.6276939453125,14.766120263671874,19.6952939453125Q14.576320263671874,19.7628939453125,14.383420263671875,19.821093945312498Q14.190520263671875,19.8793939453125,13.995020263671876,19.9280939453125Q13.799520263671875,19.9768939453125,13.601840263671875,20.0159939453125Q13.404160263671875,20.0551939453125,13.204780263671875,20.0845939453125Q13.005410263671875,20.1140939453125,12.804820263671875,20.1336939453125Q12.604230263671875,20.1533939453125,12.402920263671875,20.1631939453125Q12.201600263671875,20.1730939453125,12.000050263671875,20.1730939453125Q11.798490263671875,20.1730939453125,11.597170263671874,20.1631939453125Q11.395860263671874,20.1533939453125,11.195270263671876,20.1336939453125Q10.994690263671874,20.1140939453125,10.795310263671876,20.0845939453125Q10.595940263671874,20.0551939453125,10.398250263671876,20.0159939453125Q10.200570263671874,19.9768939453125,10.005050263671876,19.9280939453125Q9.809530263671874,19.8793939453125,9.616660263671875,19.821093945312498Q9.423780263671876,19.7628939453125,9.234000263671875,19.6952939453125Q9.044230263671874,19.6276939453125,8.858010263671876,19.550893945312502Q8.671800263671875,19.4740939453125,8.489590263671875,19.388293945312498Q8.307390263671875,19.302593945312502,8.129630263671874,19.207993945312502Q7.951870263671875,19.113393945312502,7.778990263671875,19.0101939453125Q7.606110263671875,18.9070939453125,7.438520263671875,18.7955939453125Q7.270930263671875,18.684093945312497,7.109040263671875,18.564593945312502Q6.947150263671875,18.4450939453125,6.791340263671875,18.317793945312502Q6.635540263671875,18.1904939453125,6.486190263671875,18.0557939453125Q6.3368502636718755,17.9209939453125,6.1943302636718744,17.7790939453125Q6.0518002636718755,17.6372939453125,5.916450263671875,17.488593945312502Q5.781090263671875,17.3398939453125,5.653220263671875,17.1847939453125Q5.525360263671875,17.029693945312502,5.4052902636718745,16.868593945312497Q5.285220263671875,16.7073939453125,5.173240263671875,16.5405939453125Q5.061260263671875,16.3737939453125,4.957640263671875,16.2016939453125Q4.854020263671875,16.0295939453125,4.759009263671875,15.8525939453125Q4.663995263671875,15.6755939453125,4.577818263671875,15.4942939453125Q4.491642263671875,15.3128939453125,4.414509263671875,15.1274939453125Q4.337376263671875,14.9420939453125,4.269474263671875,14.7531939453125Q4.201571263671875,14.5642939453125,4.143063263671875,14.3722939453125Q4.084554263671875,14.1802939453125,4.035579263671875,13.9856939453125Q3.986605263671875,13.7910239453125,3.947283263671875,13.5942339453125Q3.907961263671875,13.3974439453125,3.878386763671875,13.1989739453125Q3.848812263671875,13.0004939453125,3.829056163671875,12.8008139453125Q3.809300163671875,12.6011339453125,3.799410203671875,12.4007339453125Q3.789520263671875,12.2003239453125,3.789520263671875,11.9996839453125Q3.789520263671875,11.7990339453125,3.799410203671875,11.5986339453125Q3.809300163671875,11.3982339453125,3.829056163671875,11.1985539453125Q3.848812263671875,10.9988739453125,3.878386763671875,10.8003939453125Q3.907961263671875,10.6019239453125,3.947283263671875,10.4051339453125Q3.986605263671875,10.2083439453125,4.035579263671875,10.0137139453125Q4.084554263671875,9.8190839453125,4.143062263671875,9.6270739453125Q4.201571263671875,9.4350639453125,4.269474263671875,9.2461539453125Q4.337376263671875,9.0572339453125,4.414509263671875,8.8718639453125Q4.491642263671875,8.686493945312499,4.577818263671875,8.5051039453125Q4.663995263671875,8.3237239453125,4.759009263671875,8.1467739453125Q4.854020263671875,7.9698239453125,4.957640263671875,7.7977239453125Q5.061260263671875,7.625623945312499,5.173240263671875,7.4587939453125Q5.285220263671875,7.291963945312499,5.4052902636718745,7.1308039453125005Q5.525360263671875,6.9696439453125,5.653220263671875,6.8145439453125Q5.781090263671875,6.6594339453125,5.916450263671875,6.510773945312501Q6.0518002636718755,6.3621039453125,6.1943302636718744,6.2202239453125Q6.3368502636718755,6.0783439453125006,6.486190263671875,5.9436039453125Q6.635540263671875,5.8088539453125,6.791340263671875,5.6815639453125Q6.947150263671875,5.5542839453125,7.109040263671875,5.4347539453125Q7.270930263671875,5.3152339453124995,7.438520263671875,5.2037539453125Q7.606110263671875,5.0922839453125,7.778990263671875,4.9891339453125Q7.951870263671875,4.8859839453125,8.129630263671874,4.7913979453125Q8.307390263671875,4.6968139453125,8.489590263671875,4.6110269453125Q8.671800263671875,4.5252399453125,8.858010263671876,4.4484559453125Q9.044230263671874,4.3716729453125,9.234000263671875,4.3040769453125Q9.423780263671876,4.2364819453125,9.616660263671875,4.1782369453125Q9.809530263671874,4.1199929453125,10.005050263671876,4.0712399453125Q10.200570263671874,4.0224869453125,10.398250263671876,3.9833429453124998Q10.595940263671874,3.9441989453125,10.795310263671876,3.9147585453125Q10.994690263671874,3.8853177453125,11.195270263671876,3.8656510453125Q11.395860263671874,3.8459843453125,11.597170263671874,3.8361391553125Q11.798490263671875,3.8262939453125,12.000050263671875,3.8262939453125Q12.201600263671875,3.8262939453125,12.402920263671875,3.8361391553125Q12.604230263671875,3.8459843453125,12.804820263671875,3.8656510453125Q13.005410263671875,3.8853177453125,13.204780263671875,3.9147585453125Q13.404160263671875,3.9441989453125,13.601840263671875,3.9833429453124998Q13.799520263671875,4.0224869453125,13.995020263671876,4.0712399453125Q14.190520263671875,4.1199929453125,14.383420263671875,4.1782369453125Q14.576320263671874,4.2364819453125,14.766120263671874,4.3040769453125Q14.955820263671875,4.3716729453125,15.142120263671876,4.4484559453125Q15.328320263671875,4.5252399453125,15.510520263671875,4.6110269453125Q15.692720263671875,4.6968139453125,15.870420263671875,4.7913979453125Q16.048220263671872,4.8859839453125,16.221120263671875,4.9891339453125Q16.394020263671877,5.0922839453125,16.561520263671873,5.2037539453125Q16.729120263671874,5.3152339453124995,16.891020263671876,5.4347539453125Q17.052920263671876,5.5542839453125,17.208720263671875,5.6815639453125Q17.364520263671874,5.8088539453125,17.513920263671874,5.9436039453125Q17.663220263671874,6.0783439453125006,17.805720263671873,6.2202239453125Q17.948320263671874,6.3621039453125,18.083620263671875,6.510773945312501Q18.219020263671876,6.6594339453125,18.346820263671873,6.8145439453125Q18.474720263671877,6.9696439453125,18.594820263671878,7.1308039453125005Q18.714820263671875,7.291963945312499,18.826820263671877,7.4587939453125Q18.938820263671875,7.625623945312499,19.042420263671875,7.7977239453125Q19.146020263671875,7.9698239453125,19.241120263671874,8.1467739453125Q19.336120263671873,8.3237239453125,19.422320263671875,8.5051139453125Q19.508420263671873,8.686493945312499,19.585620263671874,8.8718639453125Q19.662720263671876,9.0572339453125,19.730620263671874,9.2461539453125Q19.798520263671875,9.4350639453125,19.857020263671874,9.6270739453125Q19.915520263671876,9.8190839453125,19.964520263671876,10.0137139453125Q20.013520263671875,10.2083439453125,20.052820263671876,10.4051339453125Q20.092120263671877,10.6019239453125,20.121720263671875,10.8003939453125Q20.151320263671874,10.9988739453125,20.171020263671874,11.1985539453125Q20.190820263671874,11.3982339453125,20.200720263671876,11.5986339453125Q20.210620263671874,11.7990339453125,20.210620263671874,11.9996839453125Z" fill="url(#master_svg3_5372_05879)" fill-opacity="0.800000011920929"/></g></g><g filter="url(#master_svg4_5372_06651)"><g><path d="M2.778961181640625,17.793438818359377L2.778961181640625,6.027538818359375C2.778961181640625,5.858263818359375,2.916186181640625,5.721038818359375,3.0854611816406248,5.721038818359375L20.914561181640625,5.721038818359375C21.083861181640625,5.721038818359375,21.221061181640625,5.858263818359375,21.221061181640625,6.027538818359375L21.221061181640625,17.793438818359377C21.221061181640625,17.962738818359377,21.083861181640625,18.099938818359377,20.914561181640625,18.099938818359377L3.0854611816406248,18.099938818359377C2.916186181640625,18.099938818359377,2.778961181640625,17.962738818359377,2.778961181640625,17.793438818359377Z" fill="#FFFFFF" fill-opacity="1"/></g><g filter="url(#master_svg5_5372_06653)"><path d="M2.778961181640625,17.793438818359377L2.778961181640625,6.027538818359375C2.778961181640625,5.858263818359375,2.916186181640625,5.721038818359375,3.0854611816406248,5.721038818359375L20.914561181640625,5.721038818359375C21.083861181640625,5.721038818359375,21.221061181640625,5.858263818359375,21.221061181640625,6.027538818359375L21.221061181640625,17.793438818359377C21.221061181640625,17.962738818359377,21.083861181640625,18.099938818359377,20.914561181640625,18.099938818359377L3.0854611816406248,18.099938818359377C2.916186181640625,18.099938818359377,2.778961181640625,17.962738818359377,2.778961181640625,17.793438818359377Z" fill="url(#master_svg6_5372_06366)" fill-opacity="1"/></g></g><g style="opacity:0.699999988079071;" filter="url(#master_svg7_5372_06659)"><path d="M7.326324462890625,9.623795078125L7.326324462890625,8.312405078125C7.326324462890625,8.255961578125,7.372080962890625,8.210205078125,7.428524462890625,8.210205078125L19.982024462890625,8.210205078125C20.038424462890625,8.210205078125,20.084224462890624,8.255961578125,20.084224462890624,8.312405078125L20.084224462890624,9.623795078125C20.084224462890624,9.680235078125,20.038424462890625,9.725995078124999,19.982024462890625,9.725995078124999L7.428524462890625,9.725995078124999C7.372080962890625,9.725995078124999,7.326324462890625,9.680235078125,7.326324462890625,9.623795078125Z" fill="#FFFFFF" fill-opacity="1"/></g><g style="opacity:0.699999988079071;" filter="url(#master_svg8_5372_06664)"><path d="M7.326324462890625,16.697501748046875L7.326324462890625,10.838741748046875C7.326324462890625,10.782298248046875,7.372080962890625,10.736541748046875,7.428524462890625,10.736541748046875L19.982024462890625,10.736541748046875C20.038424462890625,10.736541748046875,20.084224462890624,10.782298248046875,20.084224462890624,10.838741748046875L20.084224462890624,16.697501748046875C20.084224462890624,16.753941748046877,20.038424462890625,16.799701748046875,19.982024462890625,16.799701748046875L7.428524462890625,16.799701748046875C7.372080962890625,16.799701748046875,7.326324462890625,16.753941748046877,7.326324462890625,16.697501748046875Z" fill="#FFFFFF" fill-opacity="1"/></g><g style="opacity:0.49900001287460327;"><path d="M8.361236572265625,6.595970828125L8.361236572265625,6.488623828125C8.361236572265625,6.375847328125,8.452660072265624,6.284423828125,8.565436572265625,6.284423828125L9.325962572265626,6.284423828125C9.438736572265626,6.284423828125,9.530166572265625,6.375847328125,9.530166572265625,6.488623828125L9.530166572265625,6.595970828125C9.530166572265625,6.708747828125,9.438736572265626,6.800170828125,9.325962572265626,6.800170828125L8.565436572265625,6.800170828125C8.452660072265624,6.800170828125,8.361236572265625,6.708747828125,8.361236572265625,6.595970828125Z" fill="#ADBACC" fill-opacity="1"/></g><g><path d="M2.778961181640625,6.881622314453125L6.4154711816406245,6.881622314453125L6.4154711816406245,18.100022314453128L3.233572181640625,18.100022314453128C2.982329181640625,18.100022314453128,2.778961181640625,17.926822314453126,2.778961181640625,17.713222314453127L2.778961181640625,6.881622314453125Z" fill="#FFFFFF" fill-opacity="1"/></g><g><path d="M2.908843994140625,9.165047220703125L2.908843994140625,8.337826220703125C2.908843994140625,8.281382720703125,2.954600494140625,8.235626220703125,3.011043994140625,8.235626220703125L6.183313994140625,8.235626220703125C6.239763994140625,8.235626220703125,6.285513994140625,8.281382720703125,6.285513994140625,8.337826220703125L6.285513994140625,9.165047220703125C6.285513994140625,9.221491220703125,6.239763994140625,9.267246220703125,6.183313994140625,9.267246220703125L3.011043994140625,9.267246220703125C2.954600494140625,9.267246220703125,2.908843994140625,9.221491220703125,2.908843994140625,9.165047220703125Z" fill="#2882FF" fill-opacity="0.1599999964237213"/></g><g style="opacity:0.5;"><path d="M3.298370361328125,8.893635810546876L3.298370361328125,8.608930810546875C3.298370361328125,8.580709110546875,3.321248561328125,8.557830810546875,3.349470361328125,8.557830810546875L5.844700361328125,8.557830810546875C5.872920361328125,8.557830810546875,5.895800361328125,8.580709110546875,5.895800361328125,8.608930810546875L5.895800361328125,8.893635810546876C5.895800361328125,8.921857810546875,5.872920361328125,8.944735810546875,5.844700361328125,8.944735810546875L3.349470361328125,8.944735810546875C3.321248561328125,8.944735810546875,3.298370361328125,8.921857810546875,3.298370361328125,8.893635810546876Z" fill="#2882FF" fill-opacity="1"/></g><g><path d="M3.298370361328125,7.862019599609375L3.298370361328125,7.577314599609375C3.298370361328125,7.549092899609375,3.321248561328125,7.526214599609375,3.349470361328125,7.526214599609375L5.065460361328125,7.526214599609375C5.093680361328125,7.526214599609375,5.1165603613281245,7.549092899609375,5.1165603613281245,7.577314599609375L5.1165603613281245,7.862019599609375C5.1165603613281245,7.890241599609375,5.093680361328125,7.913119599609375,5.065460361328125,7.913119599609375L3.349470361328125,7.913119599609375C3.321248561328125,7.913119599609375,3.298370361328125,7.890241599609375,3.298370361328125,7.862019599609375Z" fill="#D8E0EB" fill-opacity="1"/></g><g><path d="M3.298370361328125,9.9252825390625L3.298370361328125,9.6405775390625C3.298370361328125,9.6123558390625,3.321248561328125,9.5894775390625,3.349470361328125,9.5894775390625L5.065460361328125,9.5894775390625C5.093680361328125,9.5894775390625,5.1165603613281245,9.6123558390625,5.1165603613281245,9.6405775390625L5.1165603613281245,9.9252825390625C5.1165603613281245,9.9535045390625,5.093680361328125,9.9763825390625,5.065460361328125,9.9763825390625L3.349470361328125,9.9763825390625C3.321248561328125,9.9763825390625,3.298370361328125,9.9535045390625,3.298370361328125,9.9252825390625Z" fill="#D8E0EB" fill-opacity="1"/></g><g><path d="M3.298370361328125,10.95689875L3.298370361328125,10.67219375C3.298370361328125,10.64397205,3.321248561328125,10.62109375,3.349470361328125,10.62109375L5.065460361328125,10.62109375C5.093680361328125,10.62109375,5.1165603613281245,10.64397205,5.1165603613281245,10.67219375L5.1165603613281245,10.95689875C5.1165603613281245,10.98512075,5.093680361328125,11.00799875,5.065460361328125,11.00799875L3.349470361328125,11.00799875C3.321248561328125,11.00799875,3.298370361328125,10.98512075,3.298370361328125,10.95689875Z" fill="#D8E0EB" fill-opacity="1"/></g><g><path d="M3.298370361328125,11.988392890625L3.298370361328125,11.703687890625C3.298370361328125,11.675466190625,3.321248561328125,11.652587890625,3.349470361328125,11.652587890625L5.065460361328125,11.652587890625C5.093680361328125,11.652587890625,5.1165603613281245,11.675466190625,5.1165603613281245,11.703687890625L5.1165603613281245,11.988392890625C5.1165603613281245,12.016614890625,5.093680361328125,12.039492890625,5.065460361328125,12.039492890625L3.349470361328125,12.039492890625C3.321248561328125,12.039492890625,3.298370361328125,12.016614890625,3.298370361328125,11.988392890625Z" fill="#D8E0EB" fill-opacity="1"/></g><g><path d="M3.298370361328125,13.0200091015625L3.298370361328125,12.7353041015625C3.298370361328125,12.7070824015625,3.321248561328125,12.6842041015625,3.349470361328125,12.6842041015625L5.065460361328125,12.6842041015625C5.093680361328125,12.6842041015625,5.1165603613281245,12.7070824015625,5.1165603613281245,12.7353041015625L5.1165603613281245,13.0200091015625C5.1165603613281245,13.0482311015625,5.093680361328125,13.0711091015625,5.065460361328125,13.0711091015625L3.349470361328125,13.0711091015625C3.321248561328125,13.0711091015625,3.298370361328125,13.0482311015625,3.298370361328125,13.0200091015625Z" fill="#D8E0EB" fill-opacity="1"/></g><g><path d="M3.298370361328125,14.0516253125L3.298370361328125,13.7669203125C3.298370361328125,13.7386986125,3.321248561328125,13.7158203125,3.349470361328125,13.7158203125L5.065460361328125,13.7158203125C5.093680361328125,13.7158203125,5.1165603613281245,13.7386986125,5.1165603613281245,13.7669203125L5.1165603613281245,14.0516253125C5.1165603613281245,14.0798473125,5.093680361328125,14.1027253125,5.065460361328125,14.1027253125L3.349470361328125,14.1027253125C3.321248561328125,14.1027253125,3.298370361328125,14.0798473125,3.298370361328125,14.0516253125Z" fill="#D8E0EB" fill-opacity="1"/></g><g><path d="M3.298370361328125,17.6620989453125L3.298370361328125,17.3773939453125C3.298370361328125,17.3491722453125,3.321248561328125,17.3262939453125,3.349470361328125,17.3262939453125L4.8057503613281245,17.3262939453125C4.833980361328125,17.3262939453125,4.856850361328125,17.3491722453125,4.856850361328125,17.3773939453125L4.856850361328125,17.6620989453125C4.856850361328125,17.6903209453125,4.833980361328125,17.7131989453125,4.8057503613281245,17.7131989453125L3.349470361328125,17.7131989453125C3.321248561328125,17.7131989453125,3.298370361328125,17.6903209453125,3.298370361328125,17.6620989453125Z" fill="#D8E0EB" fill-opacity="1"/></g><g style="opacity:0.746999979019165;"><path d="M3.688050431640625,6.301329673828125Q3.688050431640625,6.339797673828125,3.673223431640625,6.375336673828125Q3.6583964316406252,6.410876673828125,3.631000431640625,6.4380766738281245Q3.603604431640625,6.465277673828125,3.567810431640625,6.479998673828125Q3.532015431640625,6.494719673828125,3.493271431640625,6.494719673828125Q3.454527431640625,6.494719673828125,3.418732431640625,6.479998673828125Q3.382937931640625,6.465277673828125,3.355541831640625,6.4380766738281245Q3.328145731640625,6.410876673828125,3.313319131640625,6.375336673828125Q3.298492431640625,6.339797673828125,3.298492431640625,6.301329673828125Q3.298492431640625,6.262862673828125,3.313319131640625,6.227323673828125Q3.328145731640625,6.191783773828125,3.355541831640625,6.164583173828125Q3.382937931640625,6.137382473828125,3.418732431640625,6.122661573828125Q3.454527431640625,6.107940673828125,3.493271431640625,6.107940673828125Q3.532015431640625,6.107940673828125,3.567810431640625,6.122661573828125Q3.603604431640625,6.137382473828125,3.631000431640625,6.164583173828125Q3.6583964316406252,6.191783773828125,3.673223431640625,6.227323673828125Q3.688050431640625,6.262862673828125,3.688050431640625,6.301329673828125Z" fill="#FFFFFF" fill-opacity="1"/></g><g style="opacity:0.746999979019165;"><path d="M4.467286271484375,6.301329673828125Q4.467286271484375,6.339797673828125,4.452459271484375,6.375336673828125Q4.437632271484375,6.410876673828125,4.410236271484375,6.4380766738281245Q4.382840271484375,6.465277673828125,4.347046271484375,6.479998673828125Q4.311251271484375,6.494719673828125,4.272507271484375,6.494719673828125Q4.233763271484375,6.494719673828125,4.197968271484375,6.479998673828125Q4.162173771484375,6.465277673828125,4.134777671484375,6.4380766738281245Q4.107381571484375,6.410876673828125,4.092554971484375,6.375336673828125Q4.077728271484375,6.339797673828125,4.077728271484375,6.301329673828125Q4.077728271484375,6.262862673828125,4.092554971484375,6.227323673828125Q4.107381571484375,6.191783773828125,4.134777671484375,6.164583173828125Q4.162173771484375,6.137382473828125,4.197968271484375,6.122661573828125Q4.233763271484375,6.107940673828125,4.272507271484375,6.107940673828125Q4.311251271484375,6.107940673828125,4.347046271484375,6.122661573828125Q4.382840271484375,6.137382473828125,4.410236271484375,6.164583173828125Q4.437632271484375,6.191783773828125,4.452459271484375,6.227323673828125Q4.467286271484375,6.262862673828125,4.467286271484375,6.301329673828125Z" fill="#FFFFFF" fill-opacity="1"/></g><g style="opacity:0.746999979019165;"><path d="M5.246522111328125,6.301329673828125Q5.246522111328125,6.339797673828125,5.231695111328125,6.375336673828125Q5.216868111328125,6.410876673828125,5.189472111328125,6.4380766738281245Q5.162076111328125,6.465277673828125,5.126282111328125,6.479998673828125Q5.090487111328125,6.494719673828125,5.051743111328125,6.494719673828125Q5.012999111328125,6.494719673828125,4.977204111328125,6.479998673828125Q4.941409611328125,6.465277673828125,4.914013511328125,6.4380766738281245Q4.886617411328125,6.410876673828125,4.871790811328125,6.375336673828125Q4.856964111328125,6.339797673828125,4.856964111328125,6.301329673828125Q4.856964111328125,6.262862673828125,4.871790811328125,6.227323673828125Q4.886617411328125,6.191783773828125,4.914013511328125,6.164583173828125Q4.941409611328125,6.137382473828125,4.977204111328125,6.122661573828125Q5.012999111328125,6.107940673828125,5.051743111328125,6.107940673828125Q5.090487111328125,6.107940673828125,5.126282111328125,6.122661573828125Q5.162076111328125,6.137382473828125,5.189472111328125,6.164583173828125Q5.216868111328125,6.191783773828125,5.231695111328125,6.227323673828125Q5.246522111328125,6.262862673828125,5.246522111328125,6.301329673828125Z" fill="#FFFFFF" fill-opacity="1"/></g><g filter="url(#master_svg9_5372_06643)"><g><path d="M2.778961181640625,6.108196818359375C2.778891553340625,5.894395818359375,2.952192181640625,5.721038818359375,3.165992181640625,5.721038818359375L20.833861181640625,5.721038818359375C21.047761181640624,5.721038336502375,21.221061181640625,5.894374818359375,21.221061181640625,6.108196818359375L21.221061181640625,7.139438818359375L2.778961181640625,7.139438818359375L2.778961181640625,6.108196818359375Z" fill="#FFFFFF" fill-opacity="1"/></g><g><path d="M2.778961181640625,6.108196818359375C2.778891553340625,5.894395818359375,2.952192181640625,5.721038818359375,3.165992181640625,5.721038818359375L20.833861181640625,5.721038818359375C21.047761181640624,5.721038336502375,21.221061181640625,5.894374818359375,21.221061181640625,6.108196818359375L21.221061181640625,7.139438818359375L2.778961181640625,7.139438818359375L2.778961181640625,6.108196818359375Z" fill="url(#master_svga_5372_05854)" fill-opacity="1"/></g></g><g style="opacity:0.699999988079071;"><path d="M3.818023681640625,6.521490888671875L3.818023681640625,6.338985888671875C3.818023681640625,6.282542388671875,3.863780181640625,6.236785888671875,3.920223681640625,6.236785888671875L6.443233681640625,6.236785888671875C6.499673681640624,6.236785888671875,6.545433681640625,6.282542388671875,6.545433681640625,6.338985888671875L6.545433681640625,6.521490888671875C6.545433681640625,6.577934888671875,6.499673681640624,6.623690888671875,6.443233681640625,6.623690888671875L3.920223681640625,6.623690888671875C3.863780181640625,6.623690888671875,3.818023681640625,6.577934888671875,3.818023681640625,6.521490888671875Z" fill="#CFD8E5" fill-opacity="1"/></g><g style="opacity:0.699999988079071;"><path d="M19.143035888671875,6.521490888671875L19.143035888671875,6.338985888671875C19.143035888671875,6.282542388671875,19.188792388671875,6.236785888671875,19.245235888671875,6.236785888671875L20.079782888671875,6.236785888671875C20.136226888671874,6.236785888671875,20.181985888671875,6.282542388671875,20.181985888671875,6.338985888671875L20.181985888671875,6.521490888671875C20.181985888671875,6.577934888671875,20.136226888671874,6.623690888671875,20.079782888671875,6.623690888671875L19.245235888671875,6.623690888671875C19.188792388671875,6.623690888671875,19.143035888671875,6.577934888671875,19.143035888671875,6.521490888671875Z" fill="#CFD8E5" fill-opacity="1"/></g><g><path d="M5.875713337890625,4.494512552734375Q5.875713337890625,4.543130552734375,5.857108337890625,4.588048552734375Q5.838502337890625,4.632965552734375,5.804124337890625,4.667344552734375Q5.769745337890625,4.701722552734375,5.724828337890625,4.720328552734375Q5.679910337890625,4.738933552734375,5.631292337890625,4.738933552734375Q5.582674337890625,4.738933552734375,5.537756337890625,4.720328552734375Q5.492839337890625,4.701722552734375,5.458460637890625,4.667344552734375Q5.424082237890625,4.632965552734375,5.405476737890625,4.588048552734375Q5.386871337890625,4.543130552734375,5.386871337890625,4.494512552734375Q5.386871337890625,4.445894552734375,5.405476737890625,4.400976552734375Q5.424082237890625,4.356059552734375,5.458460637890625,4.321680852734375Q5.492839337890625,4.287302452734375,5.537756337890625,4.268696952734375Q5.582674337890625,4.250091552734375,5.631292337890625,4.250091552734375Q5.679910337890625,4.250091552734375,5.724828337890625,4.268696952734375Q5.769745337890625,4.287302452734375,5.804124337890625,4.321680852734375Q5.838502337890625,4.356059552734375,5.857108337890625,4.400976552734375Q5.875713337890625,4.445894552734375,5.875713337890625,4.494512552734375Z" fill="#D9E8FD" fill-opacity="1"/></g><g><path d="M6.364682841796875,4.087019265625Q6.364682841796875,4.119432265625,6.352278841796875,4.149377265625Q6.339874841796875,4.179322265625,6.316955841796875,4.202241265625Q6.294037841796875,4.225159265625,6.264092841796875,4.237563265625Q6.234147841796875,4.249967265625,6.201734841796875,4.249967265625Q6.169322841796875,4.249967265625,6.139377841796875,4.237563265625Q6.109432941796875,4.225159265625,6.086514041796875,4.202241265625Q6.063595141796875,4.179322265625,6.051191441796875,4.149377265625Q6.038787841796875,4.119432265625,6.038787841796875,4.087019265625Q6.038787841796875,4.054607265625,6.051191441796875,4.024662265625Q6.063595141796875,3.994717365625,6.086514041796875,3.971798465625Q6.109432941796875,3.948879565625,6.139377841796875,3.936475865625Q6.169322841796875,3.924072265625,6.201734841796875,3.924072265625Q6.234147841796875,3.924072265625,6.264092841796875,3.936475865625Q6.294037841796875,3.948879565625,6.316956841796875,3.971798465625Q6.339874841796875,3.994717365625,6.352278841796875,4.024662265625Q6.364682841796875,4.054607265625,6.364682841796875,4.087019265625Z" fill="#D9E8FD" fill-opacity="1"/></g><g><path d="M22.989503162109376,13.5403596015625Q22.989503162109376,13.5885196015625,22.980107162109373,13.6357526015625Q22.970712162109375,13.6829866015625,22.952282162109373,13.7274806015625Q22.933853162109376,13.7719736015625,22.907097162109373,13.8120166015625Q22.880341162109374,13.8520596015625,22.846287162109377,13.8861126015625Q22.812234162109377,13.9201666015625,22.772191162109376,13.9469226015625Q22.732148162109375,13.9736786015625,22.687655162109376,13.9921076015625Q22.643161162109376,14.0105376015625,22.595927162109376,14.0199326015625Q22.548694162109374,14.0293286015625,22.500534162109375,14.0293286015625Q22.452375162109377,14.0293286015625,22.405141162109373,14.0199326015625Q22.357908162109375,14.0105376015625,22.313414162109375,13.9921076015625Q22.268921162109375,13.9736786015625,22.228878162109375,13.9469226015625Q22.188835162109374,13.9201666015625,22.154782162109374,13.8861126015625Q22.120728162109376,13.8520596015625,22.093972162109374,13.8120166015625Q22.067216362109374,13.7719736015625,22.048786662109375,13.7274806015625Q22.030356962109376,13.6829866015625,22.020961552109377,13.6357526015625Q22.011566162109375,13.5885196015625,22.011566162109375,13.5403596015625Q22.011566162109375,13.4922006015625,22.020961552109377,13.4449666015625Q22.030356962109376,13.3977336015625,22.048786662109375,13.3532396015625Q22.067216362109374,13.3087466015625,22.093972162109374,13.2687036015625Q22.120728162109376,13.2286606015625,22.154782162109374,13.1946076015625Q22.188835162109374,13.1605536015625,22.228878162109375,13.1337976015625Q22.268921162109375,13.1070418015625,22.313414162109375,13.0886121015625Q22.357908162109375,13.0701824015625,22.405141162109373,13.0607869915625Q22.452375162109377,13.0513916015625,22.500534162109375,13.0513916015625Q22.548694162109374,13.0513916015625,22.595927162109376,13.0607869915625Q22.643161162109376,13.0701824015625,22.687655162109376,13.0886121015625Q22.732148162109375,13.1070418015625,22.772191162109376,13.1337976015625Q22.812234162109377,13.1605536015625,22.846287162109377,13.1946076015625Q22.880341162109374,13.2286606015625,22.907097162109373,13.2687036015625Q22.933853162109376,13.3087466015625,22.952282162109373,13.3532396015625Q22.970712162109375,13.3977336015625,22.980107162109373,13.4449666015625Q22.989503162109376,13.4922006015625,22.989503162109376,13.5403596015625Z" fill="#D9E8FD" fill-opacity="1"/></g><g><path d="M22.500547099609374,12.236524880859376Q22.500547099609374,12.268937880859376,22.488143099609374,12.298882880859376Q22.475739099609374,12.328827880859375,22.452820099609376,12.351746880859375Q22.429902099609375,12.374664880859376,22.399957099609374,12.387068880859376Q22.370012099609376,12.399472880859374,22.337599099609374,12.399472880859374Q22.305187099609373,12.399472880859374,22.275242099609375,12.387068880859376Q22.245297199609375,12.374664880859376,22.222378299609375,12.351746880859375Q22.199459399609374,12.328827880859375,22.187055699609374,12.298882880859376Q22.174652099609375,12.268937880859376,22.174652099609375,12.236524880859376Q22.174652099609375,12.204112880859375,22.187055699609374,12.174167880859375Q22.199459399609374,12.144222980859375,22.222378299609375,12.121304080859375Q22.245297199609375,12.098385180859376,22.275242099609375,12.085981480859376Q22.305187099609373,12.073577880859375,22.337599099609374,12.073577880859375Q22.370012099609376,12.073577880859375,22.399957099609374,12.085981480859376Q22.429902099609375,12.098385180859376,22.452821099609373,12.121304080859375Q22.475739099609374,12.144222980859375,22.488143099609374,12.174167880859375Q22.500547099609374,12.204112880859375,22.500547099609374,12.236524880859376Z" fill="#D9E8FD" fill-opacity="1"/></g></g><g><g><path d="M6.3095703125,7.766455078125C6.3095703125,7.683612378125,6.3767276125,7.616455078125,6.4595703125,7.616455078125C6.5424133125,7.616455078125,6.6095703125,7.683612378125,6.6095703125,7.766455078125L6.6095703125,8.365502078125001C6.6095703125,8.448345078125,6.5424133125,8.515502078125,6.4595703125,8.515502078125C6.3767276125,8.515502078125,6.3095703125,8.448345078125,6.3095703125,8.365502078125001L6.3095703125,7.766455078125Z" fill-rule="evenodd" fill="#F5BD0C" fill-opacity="1"/></g><g filter="url(#master_svgb_5372_06635)"><path d="M7.80617111328125,9.489362966796875L6.32205331328125,9.027440456796874C6.28473661328125,9.015825856796875,6.24911996328125,9.049592066796874,6.25872895328125,9.087474766796875L6.64871611328125,10.624965966796875C6.65973711328125,10.668415966796875,6.71795411328125,10.676535966796875,6.74043711328125,10.637755966796876L7.03258211328125,10.133855966796876L7.65155111328125,10.743915966796875C7.72476111328125,10.816075966796875,7.84360111328125,10.816075966796875,7.91682111328125,10.743915966796875C7.98968111328125,10.672105966796876,7.99030111328125,10.554885966796874,7.91682111328125,10.482465966796875L7.29785111328125,9.872405966796874L7.81585111328125,9.580669966796876C7.85405111328125,9.559154966796875,7.84803111328125,9.502392966796876,7.80617111328125,9.489362966796875Z" fill="#2882FF" fill-opacity="1"/></g><g filter="url(#master_svgc_5372_06633)"><path d="M6.5518300703125,10.649552265625L6.1618432703125,9.112058265625Q6.1402229703125,9.026822265625,6.2040383703125,8.966322265625Q6.2678540703125,8.905822465625,6.3518160703125,8.931955265625L7.8359320703125,9.393878265625Q7.9301220703125,9.423194265625,7.9405220703125,9.521292265625Q7.9509220703125,9.619389265625,7.8649620703125,9.667798265625L7.4626520703125,9.894381265625L7.9870620703125,10.411242265625Q8.0719320703125,10.494892265625,8.0717420703125,10.613582265625Q8.0715520703125,10.731862265625,7.9870620703125,10.815132265625Q7.7842320703125,11.015052265625,7.5814020703125,10.815132265625L7.0543820703125,10.295702265625L6.8269930703125,10.687912265625Q6.7764070703125,10.775162265625,6.6765170703125,10.761232265625Q6.5766270703125,10.747312265625,6.5518300703125,10.649552265625ZM6.9808240703125,10.223202265625L7.0326270703125005,10.133852265625L7.1061850703125,10.206352265625L7.6515920703125,10.743912265625C7.7248120703125,10.816072265625,7.8436520703124994,10.816072265625,7.9168620703125,10.743912265625C7.9897220703125,10.672102265625,7.9903420703125,10.554882265625,7.9168620703125,10.482462265625L7.3720020703125,9.945442265625L7.2979020703124995,9.872403265625L7.3885520703125,9.821346265625L7.8158920703125006,9.580667265625C7.8540920703125,9.559152265625,7.8480820703125005,9.502389265625,7.8062120703125,9.489360265625L6.3220980703125,9.027437265625C6.2847810703124996,9.015822765625,6.2491646703125,9.049589265625,6.2587740703125,9.087471265625L6.6487610703125,10.624962265625C6.6597820703125,10.668412265625,6.7179990703125,10.676532265625,6.7404820703125,10.637752265625L6.9808240703125,10.223202265625Z" fill-rule="evenodd" fill="#FFFFFF" fill-opacity="1"/></g><g><path d="M7.68405766796875,8.20511474609375C7.68405766796875,8.24527374609375,7.66795366796875,8.28375674609375,7.63935166796875,8.31194674609375L7.20961966796875,8.73549374609375L7.20961966796875,8.73549374609375C7.18151366796875,8.76319474609375,7.14369066796875,8.77870174609375,7.10428466796875,8.77870174609375C7.02144196796875,8.77870174609375,6.95428466796875,8.71154474609375,6.95428466796875,8.62870174609375C6.95428466796875,8.58854274609375,6.97038816796875,8.55005974609375,6.99899026796875,8.52186974609375L6.99899026796875,8.52186974609375L7.42876266796875,8.09828274609375C7.45682866796875,8.07062124609375,7.49465166796875,8.05511474609375,7.53405766796875,8.05511474609375C7.61689966796875,8.05511474609375,7.68405766796875,8.12227204609375,7.68405766796875,8.20511474609375Z" fill-rule="evenodd" fill="#F5BD0C" fill-opacity="1"/></g><g><path d="M5.96482138671875,9.89945068359375C5.96482138671875,9.93961068359375,5.94871738671875,9.97809268359375,5.92011538671875,10.00628268359375L5.49034038671875,10.42986968359375C5.46227538671875,10.45753068359375,5.42445238671875,10.47303668359375,5.38504638671875,10.47303668359375C5.30220368671875,10.47303668359375,5.23504638671875,10.40587968359375,5.23504638671875,10.32303668359375C5.23504638671875,10.28287768359375,5.25114998671875,10.24439568359375,5.27975228671875,10.21620468359375L5.70949338671875,9.79265138359375L5.70949338671875,9.79265138359375C5.73759238671875,9.76495708359375,5.77541538671875,9.74945068359375,5.81482138671875,9.74945068359375C5.89766338671875,9.74945068359375,5.96482138671875,9.81660798359375,5.96482138671875,9.89945068359375Z" fill-rule="evenodd" fill="#F5BD0C" fill-opacity="1"/></g><g><path d="M4.9401611328125,9.114105224609375L5.5479571328125,9.114105224609375C5.6308001328125,9.114105224609375,5.6979571328125,9.181262524609375,5.6979571328125,9.264105224609375C5.6979571328125,9.346948224609376,5.6308001328125,9.414105224609376,5.5479571328125,9.414105224609376L4.9401611328125,9.414105224609376C4.8573184328125,9.414105224609376,4.7901611328125,9.346948224609376,4.7901611328125,9.264105224609375C4.7901611328125,9.181262524609375,4.8573184328125,9.114105224609375,4.9401611328125,9.114105224609375Z" fill-rule="evenodd" fill="#F5BD0C" fill-opacity="1"/></g><g><path d="M5.92017745703125,8.52181074609375L5.49046245703125,8.09828244609375C5.46239745703125,8.07062114609375,5.42457445703125,8.05511474609375,5.38516845703125,8.05511474609375C5.30232575703125,8.05511474609375,5.23516845703125,8.12227204609375,5.23516845703125,8.20511474609375C5.23516845703125,8.24527474609375,5.25127205703125,8.28375674609375,5.27987425703125,8.31194674609375L5.7095704570312495,8.73545674609375L5.7095704570312495,8.73545674609375C5.73771545703125,8.76319674609375,5.77553845703125,8.77870274609375,5.81494445703125,8.77870274609375C5.89778745703125,8.77870274609375,5.96494445703125,8.71154574609375,5.96494445703125,8.62870274609375C5.96494445703125,8.58854374609375,5.94884145703125,8.55006174609375,5.92017745703125,8.52181074609375L5.92017745703125,8.52181074609375Z" fill-rule="evenodd" fill="#F5BD0C" fill-opacity="1"/></g></g></g></g></svg>