<svg xmlns="http://www.w3.org/2000/svg" xmlns:xlink="http://www.w3.org/1999/xlink" fill="none" version="1.1" width="24" height="24" viewBox="0 0 24 24"><g><g><path d="M12.100508010864258,22.100977493286134Q12.346008010864258,22.100977493286134,12.591208010864257,22.088977493286134Q12.836408010864258,22.076877493286133,13.080708010864258,22.052777493286133Q13.325008010864257,22.02877749328613,13.567908010864258,21.992777493286134Q13.810708010864257,21.956677493286133,14.051508010864257,21.908777493286134Q14.292308010864257,21.860877493286132,14.530408010864258,21.801277493286133Q14.768608010864257,21.741577493286133,15.003508010864257,21.670377493286132Q15.238408010864259,21.59907749328613,15.469608010864258,21.516377493286132Q15.700708010864258,21.433677493286133,15.927508010864258,21.33977749328613Q16.154308010864256,21.245777493286134,16.376308010864257,21.140777493286134Q16.59820801086426,21.035877493286133,16.81470801086426,20.920177493286133Q17.03120801086426,20.804377493286133,17.241808010864258,20.67817749328613Q17.452408010864257,20.551977493286135,17.656508010864258,20.415577493286133Q17.860608010864258,20.279177493286134,18.057808010864257,20.132977493286134Q18.25500801086426,19.986677493286134,18.444708010864257,19.830977493286134Q18.63450801086426,19.67517749328613,18.816408010864258,19.510377493286132Q18.998308010864257,19.345477493286133,19.171908010864257,19.171877493286132Q19.345508010864258,18.998277493286132,19.510408010864257,18.816377493286133Q19.675208010864257,18.634477493286134,19.83100801086426,18.444677493286132Q19.98670801086426,18.254977493286134,20.13300801086426,18.05777749328613Q20.27920801086426,17.860577493286133,20.415608010864258,17.656477493286133Q20.55200801086426,17.452377493286132,20.678208010864257,17.241777493286133Q20.804408010864258,17.031177493286133,20.920208010864258,16.814677493286133Q21.035908010864258,16.598177493286133,21.14080801086426,16.376277493286132Q21.24580801086426,16.15427749328613,21.339808010864257,15.927477493286133Q21.433708010864258,15.700677493286133,21.516408010864257,15.469577493286133Q21.599108010864256,15.238377493286134,21.670408010864257,15.003477493286132Q21.741608010864258,14.768577493286132,21.801308010864258,14.530377493286133Q21.860908010864257,14.292277493286132,21.90880801086426,14.051477493286132Q21.956708010864258,13.810677493286132,21.99280801086426,13.567877493286133Q22.028808010864257,13.324977493286132,22.052808010864258,13.080677493286133Q22.07690801086426,12.836377493286133,22.08900801086426,12.591177493286132Q22.10100801086426,12.345977493286133,22.10100801086426,12.100477493286133Q22.10100801086426,11.854977493286134,22.08900801086426,11.609777493286133Q22.07690801086426,11.364577493286133,22.052808010864258,11.120257493286132Q22.028808010864257,10.875937493286132,21.99280801086426,10.633097493286133Q21.956708010864258,10.390257493286132,21.90880801086426,10.149477493286133Q21.860908010864257,9.908697493286134,21.801308010864258,9.670557493286132Q21.741608010864258,9.432417493286133,21.670408010864257,9.197487493286133Q21.599108010864256,8.962557493286134,21.516408010864257,8.731407493286133Q21.433708010864258,8.500257493286133,21.339808010864257,8.273447493286133Q21.24580801086426,8.046637493286132,21.14080801086426,7.824707493286133Q21.035908010864258,7.602787493286133,20.920208010864258,7.386277493286133Q20.804408010864258,7.169767493286133,20.678208010864257,6.959187493286133Q20.55200801086426,6.748617493286133,20.415608010864258,6.544497493286133Q20.27920801086426,6.3403674932861325,20.13300801086426,6.143187493286133Q19.98670801086426,5.945997493286133,19.83100801086426,5.756227493286133Q19.675208010864257,5.566457493286133,19.510408010864257,5.384547493286133Q19.345508010864258,5.202647493286133,19.171908010864257,5.029057493286133Q18.998308010864257,4.855457493286133,18.816408010864258,4.690597493286132Q18.63450801086426,4.525727493286133,18.444708010864257,4.369987493286133Q18.25500801086426,4.214247493286132,18.057808010864257,4.067997493286133Q17.860608010864258,3.9217574932861328,17.656508010864258,3.7853674932861328Q17.452408010864257,3.6489774932861327,17.241808010864258,3.5227574932861327Q17.03120801086426,3.396547493286133,16.81470801086426,3.2808274932861328Q16.59820801086426,3.165097493286133,16.376308010864257,3.0601324932861327Q16.154308010864256,2.955168493286133,15.927508010864258,2.8612204932861327Q15.700708010864258,2.767271493286133,15.469608010864258,2.684565493286133Q15.238408010864259,2.601859493286133,15.003508010864257,2.5305954932861328Q14.768608010864257,2.459331493286133,14.530408010864258,2.3996794932861327Q14.292308010864257,2.3400284932861326,14.051508010864257,2.2921344932861327Q13.810708010864257,2.2442394932861327,13.567908010864258,2.2082174932861327Q13.325008010864257,2.172195693286133,13.080708010864258,2.1481325932861326Q12.836408010864258,2.1240695932861327,12.591208010864257,2.1120234932861326Q12.346008010864258,2.099977493286133,12.100508010864258,2.099977493286133Q11.855008010864259,2.099977493286133,11.609808010864258,2.1120234932861326Q11.364608010864258,2.1240695932861327,11.120288010864257,2.1481325932861326Q10.875968010864257,2.172195693286133,10.633128010864258,2.2082174932861327Q10.390288010864257,2.2442394932861327,10.149508010864258,2.2921344932861327Q9.908728010864259,2.3400284932861326,9.670588010864257,2.3996794932861327Q9.432448010864258,2.459331493286133,9.197518010864258,2.5305954932861328Q8.962588010864259,2.601859493286133,8.731438010864258,2.684565493286133Q8.500288010864258,2.767271493286133,8.273478010864258,2.8612204932861327Q8.046668010864257,2.955168493286133,7.824738010864258,3.0601324932861327Q7.602818010864258,3.165097493286133,7.386308010864258,3.2808274932861328Q7.169798010864258,3.396547493286133,6.959218010864258,3.5227574932861327Q6.748648010864258,3.6489774932861327,6.544528010864258,3.7853674932861328Q6.3403980108642575,3.9217574932861328,6.143218010864258,4.067997493286133Q5.946028010864258,4.214247493286132,5.756258010864258,4.369987493286133Q5.566488010864258,4.525727493286133,5.384578010864258,4.690597493286132Q5.202678010864258,4.855457493286133,5.029088010864258,5.029057493286133Q4.855488010864258,5.202647493286133,4.690628010864257,5.384547493286133Q4.525758010864258,5.566457493286133,4.370018010864258,5.756227493286133Q4.214278010864257,5.945997493286133,4.068028010864258,6.143187493286133Q3.9217880108642578,6.3403674932861325,3.7853980108642578,6.544497493286133Q3.6490080108642577,6.748617493286133,3.5227880108642577,6.959187493286133Q3.396578010864258,7.169767493286133,3.2808580108642578,7.386277493286133Q3.165128010864258,7.602787493286133,3.0601630108642577,7.824707493286133Q2.955199010864258,8.046637493286132,2.8612510108642577,8.273447493286133Q2.767302010864258,8.500257493286133,2.684596010864258,8.731407493286133Q2.601890010864258,8.962557493286134,2.5306260108642578,9.197487493286133Q2.459362010864258,9.432417493286133,2.3997100108642577,9.670557493286132Q2.3400590108642576,9.908697493286134,2.2921650108642577,10.149477493286133Q2.2442700108642577,10.390257493286132,2.2082480108642577,10.633097493286133Q2.172226210864258,10.875937493286132,2.1481631108642576,11.120257493286132Q2.1241001108642577,11.364577493286133,2.1120540108642576,11.609777493286133Q2.100008010864258,11.854977493286134,2.100008010864258,12.100477493286133Q2.100008010864258,12.345977493286133,2.1120540108642576,12.591177493286132Q2.1241001108642577,12.836377493286133,2.1481631108642576,13.080677493286133Q2.172226210864258,13.324977493286132,2.2082480108642577,13.567877493286133Q2.2442700108642577,13.810677493286132,2.2921650108642577,14.051477493286132Q2.3400590108642576,14.292277493286132,2.3997100108642577,14.530377493286133Q2.459362010864258,14.768577493286132,2.5306260108642578,15.003477493286132Q2.601890010864258,15.238377493286134,2.684596010864258,15.469577493286133Q2.767302010864258,15.700677493286133,2.8612510108642577,15.927477493286133Q2.955199010864258,16.15427749328613,3.0601630108642577,16.376277493286132Q3.165128010864258,16.598177493286133,3.2808580108642578,16.814677493286133Q3.396578010864258,17.031177493286133,3.5227880108642577,17.241777493286133Q3.6490080108642577,17.452377493286132,3.7853980108642578,17.656477493286133Q3.9217880108642578,17.860577493286133,4.068028010864258,18.05777749328613Q4.214278010864257,18.254977493286134,4.370018010864258,18.444677493286132Q4.525758010864258,18.634477493286134,4.690628010864257,18.816377493286133Q4.855488010864258,18.998277493286132,5.029088010864258,19.171877493286132Q5.202678010864258,19.345477493286133,5.384578010864258,19.510377493286132Q5.566488010864258,19.67517749328613,5.756258010864258,19.830977493286134Q5.946028010864258,19.986677493286134,6.143218010864258,20.132977493286134Q6.3403980108642575,20.279177493286134,6.544528010864258,20.415577493286133Q6.748648010864258,20.551977493286135,6.959218010864258,20.67817749328613Q7.169798010864258,20.804377493286133,7.386308010864258,20.920177493286133Q7.602818010864258,21.035877493286133,7.824738010864258,21.140777493286134Q8.046668010864257,21.245777493286134,8.273478010864258,21.33977749328613Q8.500288010864258,21.433677493286133,8.731438010864258,21.516377493286132Q8.962588010864259,21.59907749328613,9.197518010864258,21.670377493286132Q9.432448010864258,21.741577493286133,9.670588010864257,21.801277493286133Q9.908728010864259,21.860877493286132,10.149508010864258,21.908777493286134Q10.390288010864257,21.956677493286133,10.633128010864258,21.992777493286134Q10.875968010864257,22.02877749328613,11.120288010864257,22.052777493286133Q11.364608010864258,22.076877493286133,11.609808010864258,22.088977493286134Q11.855008010864259,22.100977493286134,12.100508010864258,22.100977493286134ZM10.316258010864258,16.804577493286132L17.20490801086426,8.880147493286133C17.531008010864255,8.505017493286132,17.491208010864256,7.9365574932861325,17.11610801086426,7.610467493286133C16.74090801086426,7.284367493286132,16.172508010864256,7.324117493286133,15.846408010864257,7.699247493286133L9.923928010864259,14.512277493286133C9.825118010864259,14.625877493286133,9.652858010864257,14.637977493286133,9.539178010864259,14.539177493286132L8.160118010864258,13.340277493286132C7.784978010864258,13.014177493286132,7.216518010864258,13.053977493286133,6.890428010864258,13.429077493286133C6.564338010864258,13.804277493286133,6.6040980108642575,14.372677493286133,6.979218010864257,14.698777493286133L9.469798010864258,16.863777493286133C9.719878010864257,17.081177493286134,10.098858010864259,17.054677493286135,10.316258010864258,16.804577493286132Z" fill-rule="evenodd" fill="#22C55E" fill-opacity="1"/></g></g></svg>