<svg xmlns="http://www.w3.org/2000/svg" xmlns:xlink="http://www.w3.org/1999/xlink" fill="none" version="1.1" width="24" height="24" viewBox="0 0 24 24"><g><g><g><ellipse cx="12" cy="16.875" rx="12" ry="2.625" fill="#F5F5F5" fill-opacity="1"/></g><g><g><path d="M21.125,13.625L2.875,13.625L2.875,9.84936C2.875,9.605789999999999,2.9639004,9.37059,3.125014,9.187909999999999L6.77893,5.044936Q7.21423,4.3750000298023,7.90988,4.3750000298023L16.0901,4.375Q16.786,4.3750000596046,17.2212,5.045395L20.8749,9.18749C21.0361,9.370180000000001,21.125,9.60541,21.125,9.84901L21.125,13.625ZM3.875,12.625L20.125,12.625L20.125,9.84901L16.4176,5.64613L16.3955,5.61058Q16.249200000000002,5.375,16.0901,5.375L7.90988,5.375Q7.75077,5.375,7.60433,5.61045L7.58231,5.64584L3.875,9.84936L3.875,12.625Z" fill-rule="evenodd" fill="#D9D9D9" fill-opacity="1"/></g><g><path d="M15.6049,10.84912C15.6049,10.24725,15.9776,9.750374794,16.439999999999998,9.75L20.625,9.75L20.625,16.55137C20.625,17.3475,20.13,18,19.5187,18L4.48125,18C3.87,18,3.375,17.34712,3.375,16.55137L3.375,9.75L7.56,9.75C8.02238,9.75,8.39512,10.246125,8.39512,10.848L8.39512,10.85625C8.39512,11.45813,8.772,11.94412,9.234,11.94412L14.766,11.94412C15.228,11.94412,15.6049,11.45362,15.6049,10.85175L15.6049,10.84912Z" fill="#FAFAFA" fill-opacity="1"/></g><g><path d="M15.1049,10.85175L15.1049,10.84912Q15.1049,9.25108206,16.4396,9.250000149012L20.125,9.2500000318034C20.6773,9.2500000142389,21.125,9.697715,21.125,10.25L21.125,16.55137Q21.125,18.5,19.5187,18.5L4.48125,18.5Q2.875000119209,18.5,2.875,16.55137L2.875,10.25C2.875,9.697715,3.322715,9.25,3.875,9.25L7.56,9.25Q8.15446,9.2500000298023,8.54947,9.771336Q8.89512,10.227517,8.89512,10.848L8.89512,10.85625Q8.89512,11.44413,9.234,11.44413L14.766,11.44413Q15.1049,11.44413,15.1049,10.85175ZM16.1049,10.85175Q16.1049,12.44413,14.766,12.44413L9.234,12.44413Q7.89512,12.44412,7.89512,10.85625L7.89512,10.848Q7.89512,10.25,7.56,10.25L4.375,10.25C4.09886,10.25,3.875,10.47386,3.875,10.75L3.875,16.55137Q3.875,17.5,4.48125,17.5L19.5187,17.5Q20.125,17.5,20.125,16.55137L20.125,10.75C20.125,10.47386,19.9011,10.25,19.625,10.25L16.4404,10.25Q16.1049,10.25027,16.1049,10.84912L16.1049,10.85175Z" fill-rule="evenodd" fill="#D9D9D9" fill-opacity="1"/></g></g></g></g></svg>