<svg xmlns="http://www.w3.org/2000/svg" xmlns:xlink="http://www.w3.org/1999/xlink" fill="none" version="1.1" width="24" height="24" viewBox="0 0 24 24"><defs><clipPath id="master_svg0_5380_08045"><rect x="0" y="0" width="24" height="24" rx="0"/></clipPath></defs><g clip-path="url(#master_svg0_5380_08045)"><g><path d="M7.55556,22L16.4444,22C19.5128,22,22,19.5128,22,16.4444L22,7.55556C22,4.487220000000001,19.5128,2,16.4444,2L7.55556,2C4.487220000000001,2,2,4.487220000000001,2,7.55556L2,16.4444C2,19.5128,4.487220000000001,22,7.55556,22Z" fill="#ECEFF1" fill-opacity="1"/></g><g><g><ellipse cx="5.768330782651901" cy="9.075556963682175" rx="0.42333337664604187" ry="0.42333337664604187" fill="#FFC107" fill-opacity="1"/></g><g><path d="M7.54555606842041,10.783341041264535L8.34777806842041,10.444451041264534C8.72555606842041,9.766671041264534,9.36722606842041,9.373892041264535,10.19888606842041,9.373892041264535C10.387776068420411,9.373892041264535,10.56500606842041,9.397781041264533,10.73333606842041,9.436671041264534L11.49555606842041,9.115004041264534C11.11999606842041,8.930004041264533,10.68944606842041,8.822781041264534,10.19888606842041,8.822781041264534C8.87111606842041,8.822782100904535,7.92388906842041,9.552226041264534,7.54555606842041,10.783341041264535Z" fill="#FF5722" fill-opacity="1"/></g><g><path d="M6.053889610351563,11.413333746139527L6.053889610351563,10.541666746139526L5.4850006103515625,10.541666746139526L5.4850006103515625,11.653886746139527L6.053889610351563,11.413333746139527Z" fill="#FF5722" fill-opacity="1"/></g><g><path d="M6.053889610351563,12.962756726684571L6.053889610351563,11.41331672668457L5.4850006103515625,11.65387272668457L5.4850006103515625,13.20275672668457L6.053889610351563,12.962756726684571Z" fill="#F44336" fill-opacity="1"/></g><g><path d="M7.96777788722229,12.082231332092285C7.96777788722229,11.432784332092286,8.10444488722229,10.880562332092286,8.34777788722229,10.444451332092285L7.54555588722229,10.783340332092285C7.42666728722229,11.170006332092285,7.36055588722229,11.603341332092285,7.36055588722229,12.082231332092285C7.36055588722229,12.193891332092285,7.37611138722229,12.294451332092285,7.38277808722229,12.401121332092284L7.97277788722229,12.151671332092285C7.97222288722229,12.127781332092285,7.96777788722229,12.106671332092285,7.96777788722229,12.082231332092285Z" fill="#F44336" fill-opacity="1"/></g><g><path d="M15.567223243713379,8.944444447755814C15.41222324371338,8.992222447755813,15.268889243713378,9.052777447755814,15.137223243713379,9.126110447755813L15.567223243713379,8.944444447755814Z" fill="#F44336" fill-opacity="1"/></g><g><path d="M11.495555587646484,9.115003824234009L10.733333587646484,9.436670824234008C11.303889587646484,9.56833682423401,11.748893587646485,9.916115824234009,12.038893587646484,10.434443824234009L12.606663587646484,10.194443824234009C12.346663587646484,9.710004824234009,11.967223587646485,9.347781824234008,11.495555587646484,9.115003824234009Z" fill="#F44336" fill-opacity="1"/></g><g><path d="M6.053889610351563,14.511651878967285L6.053889610351563,12.962761878967285L5.4850006103515625,13.202762878967285L5.4850006103515625,14.751651878967285L6.053889610351563,14.511651878967285Z" fill="#E91E63" fill-opacity="1"/></g><g><path d="M15.567220305786133,8.94444157764244L15.137221305786133,9.126107577642442C14.591110305786133,9.42999757764244,14.261110305786133,9.939443577642441,14.261110305786133,10.55944357764244C14.261110305786133,10.727223577642441,14.286665605786133,10.876663577642441,14.326110605786132,11.01777357764244L14.899443305786132,10.775553577642441C14.880554305786132,10.70222357764244,14.868332305786133,10.62555357764244,14.868332305786133,10.54222357764244C14.868332305786133,9.860553577642442,15.488890305786132,9.36610757764244,16.387220305786133,9.36610757764244C16.829440305786132,9.36610757764244,17.202220305786135,9.484440577642442,17.475000305786132,9.687774577642442L18.05722030578613,9.441662577642441C17.671670305786133,9.06166257764244,17.093330305786132,8.823328875832441,16.40500030578613,8.823328875832441C16.100550305786133,8.822774684642441,15.820000305786133,8.866663877642441,15.567220305786133,8.94444157764244Z" fill="#E91E63" fill-opacity="1"/></g><g><path d="M7.97222336769104,12.152215003967285L7.38222336769104,12.401659003967286C7.41500116769104,12.934437003967286,7.52666836769104,13.407775003967284,7.71389036769104,13.810545003967285L8.27166736769104,13.574995003967285C8.08555736769104,13.178325003967284,7.98111236769104,12.699993003967284,7.97222336769104,12.152215003967285Z" fill="#E91E63" fill-opacity="1"/></g><g><path d="M12.606664977600097,10.194987058639526L12.038887977600098,10.434987058639527C12.250554977600098,10.813875058639526,12.373887977600099,11.286097058639527,12.404443977600097,11.829427058639526L12.993888977600097,11.580547058639526C12.941665977600097,11.053877058639527,12.814998977600098,10.584432058639527,12.606664977600097,10.194987058639526Z" fill="#E91E63" fill-opacity="1"/></g><g><path d="M12.893889187103271,13.171086558685303C12.975000187103271,12.836646558685302,13.028333187103271,12.478310558685303,13.028333187103271,12.082198558685302C13.028333187103271,11.906642558685302,13.010000187103271,11.743865558685302,12.993334187103272,11.579976558685303L12.403889187103271,11.828865558685303C12.408889187103272,11.913865558685302,12.420556187103271,11.993309558685302,12.420556187103271,12.082198558685302C12.420556187103271,12.619976558685302,12.322222187103272,13.087196558685303,12.153333187103271,13.483866558685303L12.893889187103271,13.171086558685303Z" fill="#9C27B0" fill-opacity="1"/></g><g><path d="M8.272223352554322,13.57443618774414L7.714445352554321,13.80999118774414C7.941111352554321,14.29832518774414,8.274445352554322,14.68110618774414,8.70166735255432,14.94221618774414L9.40055535255432,14.64721618774414C8.89999535255432,14.45943618774414,8.51500035255432,14.09110318774414,8.272223352554322,13.57443618774414Z" fill="#9C27B0" fill-opacity="1"/></g><g><path d="M6.053889610351563,14.511664867401123L5.4850006103515625,14.751664867401123L5.4850006103515625,15.216108867401124L6.053889610351563,15.216108867401124L6.053889610351563,14.511664867401123Z" fill="#9C27B0" fill-opacity="1"/></g><g><path d="M14.900000785644531,10.774990558624268L14.326667785644531,11.017213558624267C14.462779785644532,11.498323558624268,14.83500178564453,11.834440558624268,15.50944778564453,12.066660558624267L16.398337785644532,11.691101558624268L16.210557785644532,11.643880558624268C15.40110778564453,11.441657558624268,15.003334785644531,11.181657558624268,14.900000785644531,10.774990558624268Z" fill="#9C27B0" fill-opacity="1"/></g><g><path d="M17.95500237359619,10.484991133823394L18.553886373596193,10.484991133823394C18.526116373596192,10.078878133823395,18.343334373596193,9.722212133823394,18.057778373596193,9.441101133823395L17.47555637359619,9.687213133823395C17.737778373596193,9.882767133823394,17.908333373596193,10.157767133823395,17.95500237359619,10.484991133823394Z" fill="#9C27B0" fill-opacity="1"/></g><g><path d="M12.893892747192382,13.17112922668457L12.153332747192383,13.48390722668457C11.803892747192382,14.30390922668457,11.125552747192383,14.79501922668457,10.198332747192383,14.79501922668457C9.905002747192382,14.79501922668457,9.642223747192382,14.73779922668457,9.400001747192382,14.64668922668457L8.701112747192383,14.94168922668457C9.118890747192383,15.19668922668457,9.616668747192383,15.346129226684571,10.198332747192383,15.346129226684571C11.611112747192383,15.346129226684571,12.566112747192383,14.52279922668457,12.893892747192382,13.17112922668457Z" fill="#3F51B5" fill-opacity="1"/></g><g><path d="M14.68222483013916,13.588338375091553L14.08333683013916,13.588338375091553C14.09778073013916,13.792782375091553,14.15389283013916,13.980005375091553,14.230003830139161,14.155560375091552L14.77944783013916,13.923338375091554C14.73278183013916,13.818339375091552,14.69611483013916,13.707783375091553,14.68222483013916,13.588338375091553Z" fill="#3F51B5" fill-opacity="1"/></g><g><path d="M16.830559198303224,11.800558894622803L16.39777819830322,11.691670894622803L15.508889198303223,12.067226894622802C15.638889198303223,12.112226894622802,15.779444198303223,12.153893894622803,15.932222198303222,12.191671894622802L16.648329198303223,12.373893894622803C17.044999198303223,12.471671894622803,17.34666919830322,12.595559894622802,17.569999198303222,12.745560894622802L18.239449198303223,12.462781894622802C17.946109198303223,12.176670894622802,17.487779198303222,11.963336894622802,16.830559198303224,11.800558894622803Z" fill="#3F51B5" fill-opacity="1"/></g><g><path d="M14.779444542236329,13.923896312713623L14.229999542236328,14.156118312713623C14.439444542236329,14.639452312713622,14.862777542236328,15.006676312713623,15.433329542236327,15.196676312713624L16.373329542236327,14.800006312713624C15.607219542236328,14.781674312713623,15.008333542236327,14.442230312713622,14.779444542236329,13.923896312713623Z" fill="#03A9F4" fill-opacity="1"/></g><g><path d="M18.618885686950684,13.851672382965088C18.638335686950683,13.744452382965088,18.653885686950684,13.635002382965087,18.653885686950684,13.519452382965088C18.653885686950684,13.083893382965087,18.523888686950684,12.739449382965088,18.240001686950684,12.462782382965088L17.570555686950684,12.745560382965088C17.892221686950684,12.962227382965088,18.046110686950684,13.236115382965089,18.046110686950684,13.584452382965088C18.046110686950684,13.802782382965088,17.973332686950684,14.001112382965088,17.852777686950684,14.175002382965088L18.618885686950684,13.851672382965088Z" fill="#03A9F4" fill-opacity="1"/></g><g><path d="M18.618889389038085,13.851666927337646L17.852779389038087,14.175555927337646C17.590559389038084,14.554443927337646,17.078329389038085,14.804444927337647,16.436109389038087,14.804444927337647C16.414444389038085,14.804444927337647,16.395000389038085,14.801110927337646,16.373889389038087,14.800555927337646L15.433889389038086,15.197226927337647C15.719445389038086,15.292226927337646,16.037223389038086,15.346666927337647,16.383890389038086,15.346666927337647C17.609999389038087,15.346106927337647,18.452779389038085,14.757777927337646,18.618889389038085,13.851666927337646Z" fill="#009688" fill-opacity="1"/></g></g></g></svg>