<svg xmlns="http://www.w3.org/2000/svg" xmlns:xlink="http://www.w3.org/1999/xlink" fill="none" version="1.1" width="24" height="24" viewBox="0 0 24 24"><defs><clipPath id="master_svg0_5233_12689"><rect x="0" y="0" width="24" height="24" rx="0"/></clipPath><clipPath id="master_svg1_5233_12696"><rect x="2" y="2" width="20" height="20" rx="0"/></clipPath></defs><g><g clip-path="url(#master_svg0_5233_12689)"></g><g clip-path="url(#master_svg1_5233_12696)"><g><g><path d="M8.041669976158143,4.474999976158142L4.474999976158142,4.474999976158142L4.474999976158142,20.774999976158142L19.94169997615814,20.774999976158142L19.94169997615814,4.474999976158142L16.374999976158144,4.474999976158142C16.04359997615814,4.474999976158142,15.774999976158142,4.2063709761581425,15.774999976158142,3.874999976158142C15.774999976158142,3.543628976158142,16.04359997615814,3.274999976158142,16.374999976158144,3.274999976158142L20.541699976158142,3.274999976158142C20.87299997615814,3.274999976158142,21.141699976158144,3.543628976158142,21.141699976158144,3.874999976158142L21.141699976158144,21.374999976158144C21.141699976158144,21.706399976158142,20.87299997615814,21.97499997615814,20.541699976158142,21.97499997615814L3.874999976158142,21.97499997615814C3.543628976158142,21.97499997615814,3.274999976158142,21.706399976158142,3.274999976158142,21.374999976158144L3.274999976158142,3.874999976158142C3.274999976158142,3.543628976158142,3.543628976158142,3.274999976158142,3.874999976158142,3.274999976158142L8.041669976158143,3.274999976158142C8.373039976158143,3.274999976158142,8.641669976158141,3.543628976158142,8.641669976158141,3.874999976158142C8.641669976158141,4.2063709761581425,8.373039976158143,4.474999976158142,8.041669976158143,4.474999976158142Z" fill-rule="evenodd" fill="#38363C" fill-opacity="1"/></g><g><path d="M15.30833203792572,13.041656470298767C15.30833203792572,13.200786470298768,15.245122037925722,13.353398470298767,15.13259203792572,13.465916470298767L11.79926203792572,16.799256470298765C11.564952037925721,17.033566470298766,11.18505203792572,17.033566470298766,10.95073203792572,16.799256470298765L9.28416403792572,15.132686470298767C9.17154613792572,15.020066470298767,9.10833203792572,14.867456470298768,9.10833203792572,14.708326470298767C9.10833203792572,14.376956470298767,9.37696103792572,14.108326470298767,9.70833203792572,14.108326470298767C9.867462037925721,14.108326470298767,10.02007403792572,14.171536470298767,10.13259203792572,14.284056470298767L11.37500203792572,15.526466470298768L14.28396203792572,12.617499470298768C14.396592037925721,12.504870570298767,14.54920203792572,12.441656470298767,14.70833203792572,12.441656470298767C15.039702037925721,12.441656470298767,15.30833203792572,12.710285470298768,15.30833203792572,13.041656470298767Z" fill-rule="evenodd" fill="#38363C" fill-opacity="1"/></g><g><path d="M16.374997914390562,2.4416717290878296C16.70636791439056,2.4416717290878296,16.974997914390563,2.7103007290878294,16.974997914390563,3.0416717290878297L16.974997914390563,8.04167172908783C16.974997914390563,8.37304172908783,16.70636791439056,8.641671729087829,16.374997914390562,8.641671729087829L13.874997914390564,8.641671729087829C13.543627914390564,8.641671729087829,13.274997914390564,8.37304172908783,13.274997914390564,8.04167172908783Q13.274997914390564,7.599571729087829,12.962717914390563,7.28729172908783Q12.650427914390564,6.97500172908783,12.208337914390565,6.97500172908783Q11.766237914390564,6.97500172908783,11.453957914390564,7.28729172908783Q11.141667914390563,7.599571729087829,11.141667914390563,8.04167172908783C11.141667914390563,8.37304172908783,10.873037914390563,8.641671729087829,10.541667914390564,8.641671729087829L8.041667914390564,8.641671729087829C7.710296914390564,8.641671729087829,7.441667914390564,8.37304172908783,7.441667914390564,8.04167172908783L7.441667914390564,3.0416717290878297C7.441667914390564,2.7103007290878294,7.710296914390564,2.4416717290878296,8.041667914390564,2.4416717290878296L16.374997914390562,2.4416717290878296ZM8.641667914390563,3.6416717290878298L15.774997914390564,3.6416717290878298L15.774997914390564,7.44167172908783L14.400067914390565,7.44167172908783Q14.251987914390565,6.8795017290878295,13.811247914390563,6.43876172908783Q13.147487914390563,5.77500172908783,12.208337914390565,5.77500172908783Q11.269177914390564,5.77500172908783,10.605427914390564,6.43876172908783Q10.164677914390564,6.8795017290878295,10.016597914390564,7.44167172908783L8.641667914390563,7.44167172908783L8.641667914390563,3.6416717290878298Z" fill-rule="evenodd" fill="#38363C" fill-opacity="1"/></g></g></g></g></svg>