<svg xmlns="http://www.w3.org/2000/svg" xmlns:xlink="http://www.w3.org/1999/xlink" fill="none" version="1.1" width="24" height="24" viewBox="0 0 24 24"><g><g><path d="M2.0950969,16.1846Q2.9111219999999998,18.1139,4.3986,19.6014Q5.8861,21.0889,7.8154,21.9049Q9.81344,22.75,12,22.75Q14.1866,22.75,16.1846,21.9049Q18.1139,21.0889,19.6014,19.6014Q21.0889,18.1139,21.9049,16.1846Q22.75,14.1866,22.75,12Q22.75,9.81344,21.9049,7.8154Q21.0889,5.8861,19.6014,4.3986Q18.1139,2.911121,16.1846,2.0950969Q14.1866,1.25,12,1.25Q9.81343,1.25,7.8154,2.0950966Q5.8861,2.91112,4.3986,4.3986Q2.91112,5.8861,2.0950966,7.8154Q1.25,9.81343,1.25,12Q1.25,14.1866,2.0950969,16.1846ZM8.39973,20.5234Q6.73988,19.8213,5.4592600000000004,18.5407Q4.17866,17.2601,3.4766,15.6003Q2.75,13.8824,2.75,12Q2.75,10.11761,3.4766,8.39973Q4.17866,6.73988,5.4592600000000004,5.4592600000000004Q6.73988,4.17866,8.39973,3.4766Q10.11761,2.75,12,2.75Q13.8824,2.75,15.6003,3.4766Q17.2601,4.17866,18.5407,5.4592600000000004Q19.8213,6.73989,20.5234,8.39973Q21.25,10.11761,21.25,12Q21.25,13.8824,20.5234,15.6003Q19.8213,17.2601,18.5407,18.5407Q17.2601,19.8213,15.6003,20.5234Q13.8824,21.25,12,21.25Q10.11761,21.25,8.39973,20.5234Z" fill-rule="evenodd" fill="#000000" fill-opacity="1"/></g><g><path d="M13.25,6.75Q13.25,6.81141,13.24398,6.87252Q13.237960000000001,6.93363,13.22598,6.99386Q13.214,7.05409,13.19618,7.1128599999999995Q13.17835,7.17162,13.15485,7.22835Q13.13135,7.28509,13.1024,7.33925Q13.07345,7.3934,13.03934,7.44446Q13.00522,7.49552,12.96626,7.54299Q12.92731,7.59046,12.88388,7.6338799999999996Q12.84046,7.67731,12.79299,7.71626Q12.745519999999999,7.75522,12.69446,7.78934Q12.6434,7.823449999999999,12.58925,7.852399999999999Q12.53509,7.881349999999999,12.47835,7.90485Q12.42162,7.92835,12.36286,7.94618Q12.30409,7.964,12.24386,7.97598Q12.18363,7.98796,12.12252,7.9939800000000005Q12.06141,8,12,8Q11.93859,8,11.87748,7.9939800000000005Q11.81637,7.98796,11.75614,7.97598Q11.695908,7.964,11.637144,7.94618Q11.57838,7.92835,11.521646,7.90485Q11.464912,7.881349999999999,11.410754,7.852399999999999Q11.356597,7.823449999999999,11.305537,7.78934Q11.254478,7.75522,11.207008,7.71626Q11.159539,7.67731,11.116116,7.6338799999999996Q11.072694,7.59046,11.033737,7.54299Q10.99478,7.49552,10.960663,7.44446Q10.926546,7.3934,10.897598,7.33925Q10.868651,7.28509,10.8451506,7.22835Q10.8216505,7.17162,10.8038246,7.1128599999999995Q10.7859986,7.05409,10.7740184,6.99386Q10.7620382,6.93363,10.75601909,6.87252Q10.75,6.81141,10.75,6.75Q10.75,6.68859,10.75601909,6.62748Q10.7620382,6.56637,10.7740184,6.50614Q10.7859986,6.445908,10.8038246,6.387144Q10.8216505,6.32838,10.8451506,6.2716460000000005Q10.868651,6.214912,10.897598,6.160754Q10.926546,6.106597,10.960663,6.055537Q10.99478,6.004478,11.033737,5.957008Q11.072694,5.909539,11.116116,5.866116Q11.159539,5.822694,11.207008,5.783737Q11.254478,5.74478,11.305537,5.710663Q11.356597,5.676546,11.410754,5.647598Q11.464912,5.618651,11.521646,5.5951506Q11.57838,5.5716505,11.637144,5.5538246000000004Q11.695908,5.5359986,11.75614,5.5240184Q11.81637,5.5120382,11.87748,5.50601909Q11.93859,5.5,12,5.5Q12.06141,5.5,12.12252,5.50601909Q12.18363,5.5120382,12.24386,5.5240184Q12.30409,5.5359986,12.36286,5.5538246000000004Q12.42162,5.5716505,12.47835,5.5951506Q12.53509,5.618651,12.58925,5.647598Q12.6434,5.676546,12.69446,5.710663Q12.745519999999999,5.74478,12.79299,5.783737Q12.84046,5.822694,12.88388,5.866116Q12.92731,5.909539,12.96626,5.957008Q13.00522,6.004478,13.03934,6.055537Q13.07345,6.106597,13.1024,6.160754Q13.13135,6.214912,13.15485,6.2716460000000005Q13.17835,6.32838,13.19618,6.387144Q13.214,6.445908,13.22598,6.50614Q13.237960000000001,6.56637,13.24398,6.62748Q13.25,6.68859,13.25,6.75Z" fill="#000000" fill-opacity="1"/></g><g><path d="M11.5,10.75L11.25,10.75Q11.1761315,10.75,11.103682,10.735589000000001Q11.031233,10.721178,10.962987,10.69291Q10.894742,10.664641,10.833322,10.623602Q10.771903,10.582563,10.71967,10.53033Q10.667437,10.478097,10.626398,10.416678Q10.585359,10.355258,10.55709,10.287013Q10.528822,10.218767,10.514410999999999,10.146318Q10.5,10.0738685,10.5,10Q10.5,9.9261315,10.514410999999999,9.853682Q10.528822,9.781233,10.55709,9.712987Q10.585359,9.644742,10.626398,9.583322Q10.667437,9.521903,10.71967,9.46967Q10.771903,9.417437,10.833322,9.376398Q10.894742,9.335359,10.962987,9.30709Q11.031233,9.278822,11.103682,9.264410999999999Q11.1761315,9.25,11.25,9.25L12.25,9.25Q12.32387,9.25,12.39632,9.264410999999999Q12.46877,9.278822,12.53701,9.30709Q12.60526,9.335359,12.66668,9.376398Q12.7281,9.417437,12.78033,9.46967Q12.83256,9.521903,12.8736,9.583322Q12.91464,9.644742,12.94291,9.712987Q12.97118,9.781233,12.98559,9.853682Q13,9.9261315,13,10L13,17Q13,17.07387,12.98559,17.14632Q12.97118,17.21877,12.94291,17.287010000000002Q12.91464,17.35526,12.8736,17.41668Q12.83256,17.4781,12.78033,17.53033Q12.7281,17.58256,12.66668,17.6236Q12.60526,17.66464,12.53701,17.69291Q12.46877,17.72118,12.39632,17.735590000000002Q12.32387,17.75,12.25,17.75Q12.176131,17.75,12.103682,17.735590000000002Q12.031233,17.72118,11.962987,17.69291Q11.894742,17.66464,11.833322,17.6236Q11.771903,17.58256,11.71967,17.53033Q11.667437,17.4781,11.626398,17.41668Q11.585359,17.35526,11.55709,17.287010000000002Q11.528822,17.21877,11.514411,17.14632Q11.5,17.07387,11.5,17L11.5,10.75Z" fill-rule="evenodd" fill="#000000" fill-opacity="1"/></g><g><path d="M10.5,16.25L14,16.25Q14.07387,16.25,14.14632,16.264411Q14.21877,16.278822,14.28701,16.30709Q14.35526,16.335359,14.41668,16.376398000000002Q14.4781,16.417437,14.53033,16.46967Q14.58256,16.521903000000002,14.6236,16.583322Q14.66464,16.644742,14.692910000000001,16.712987Q14.72118,16.781233,14.73559,16.853682Q14.75,16.9261315,14.75,17Q14.75,17.0738685,14.73559,17.146318Q14.72118,17.218767,14.692910000000001,17.287013Q14.66464,17.355258,14.6236,17.416678Q14.58256,17.478096999999998,14.53033,17.53033Q14.4781,17.582563,14.41668,17.623601999999998Q14.35526,17.664641,14.28701,17.69291Q14.21877,17.721178,14.14632,17.735589Q14.07387,17.75,14,17.75L10.5,17.75Q10.4261315,17.75,10.353682,17.735589Q10.281233,17.721178,10.212987,17.69291Q10.144742,17.664641,10.083322,17.623601999999998Q10.021903,17.582563,9.96967,17.53033Q9.917437,17.478096999999998,9.876398,17.416678Q9.835359,17.355258,9.80709,17.287013Q9.778822,17.218767,9.764410999999999,17.146318Q9.75,17.0738685,9.75,17Q9.75,16.9261315,9.764410999999999,16.853682Q9.778822,16.781233,9.80709,16.712987Q9.835359,16.644742,9.876398,16.583322Q9.917437,16.521903000000002,9.96967,16.46967Q10.021903,16.417437,10.083322,16.376398000000002Q10.144742,16.335359,10.212987,16.30709Q10.281233,16.278822,10.353682,16.264411Q10.4261315,16.25,10.5,16.25Z" fill-rule="evenodd" fill="#000000" fill-opacity="1"/></g></g></svg>