<svg xmlns="http://www.w3.org/2000/svg" xmlns:xlink="http://www.w3.org/1999/xlink" fill="none" version="1.1" width="24" height="24" viewBox="0 0 24 24"><defs><clipPath id="master_svg0_29_4817"><rect x="0" y="0" width="24" height="24" rx="0"/></clipPath></defs><g clip-path="url(#master_svg0_29_4817)"><g><path d="M4.5,6.375000238418579C4.5,4.096820238418579,6.34683,2.250000238418579,8.625,2.250000238418579C10.90318,2.250000238418579,12.75,4.096830238418579,12.75,6.375000238418579C12.75,8.653170238418578,10.90318,10.500000238418579,8.625,10.500000238418579C6.34683,10.500000238418579,4.5,8.653180238418578,4.5,6.375000238418579ZM14.25,8.625000238418579C14.25,6.7610402384185795,15.761,5.250000238418579,17.625,5.250000238418579C19.489,5.250000238418579,21,6.7610402384185795,21,8.625000238418579C21,10.48896023841858,19.489,12.000000238418579,17.625,12.000000238418579C15.761,12.000000238418579,14.25,10.48896023841858,14.25,8.625000238418579ZM1.5,19.12500023841858C1.50135803,15.190900238418578,4.69093,12.002460238418578,8.625,12.002460238418578C12.5591,12.002460238418578,15.7486,15.190900238418578,15.75,19.12500023841858L15.75,19.12800023841858L15.749,19.24700023841858C15.7447,19.50550023841858,15.6075,19.74360023841858,15.386,19.877000238418578C13.3452,21.10600023841858,11.00727,21.753600238418578,8.625,21.75000023841858C6.153,21.75000023841858,3.839,21.066000238418578,1.865,19.877000238418578C1.643107,19.74390023841858,1.50552404,19.50570023841858,1.500999808,19.24700023841858L1.5,19.12500023841858ZM17.25,19.12800023841858L17.249000000000002,19.272000238418578C17.2434,19.60530023841858,17.163800000000002,19.93320023841858,17.016,20.23200023841858C18.7617,20.33970023841858,20.5054,19.991600238418577,22.076,19.22200023841858C22.3234,19.101000238418578,22.4847,18.854200238418578,22.496,18.57900023841858C22.6502,14.914100238418579,18.8542,12.398200238418578,15.539,13.968000238418579C16.6522,15.456600238418579,17.252200000000002,17.266200238418577,17.249000000000002,19.12500023841858L17.25,19.12800023841858L17.25,19.12800023841858Z" fill="#000000" fill-opacity="1" style="mix-blend-mode:passthrough"/></g></g></svg>