<svg xmlns="http://www.w3.org/2000/svg" xmlns:xlink="http://www.w3.org/1999/xlink" fill="none" version="1.1" width="24" height="24" viewBox="0 0 24 24"><defs><clipPath id="master_svg0_5042_13921"><rect x="0" y="0" width="24" height="24" rx="0"/></clipPath></defs><g><g clip-path="url(#master_svg0_5042_13921)"><g><g><path d="M24,0L0,0L0,24L24,24L24,0Z" fill="#FFFFFF" fill-opacity="1"/><path d="M-0.0625,24.0625L-0.0625,-0.0625L24.0625,-0.0625L24.0625,24.0625L-0.0625,24.0625ZM23.9375,0.0625L0.0625,0.0625L0.0625,23.9375L23.9375,23.9375L23.9375,0.0625Z" fill-rule="evenodd" fill="#000000" fill-opacity="1"/></g><g><path d="M2.728288,15.9168Q3.49206,17.7226,4.88474,19.1153Q6.27742,20.5079,8.08322,21.2717Q9.95288,22.0625,12,22.0625Q14.0471,22.0625,15.9168,21.2717Q17.7227,20.5079,19.1153,19.1153Q20.5079,17.7227,21.2717,15.9168Q22.0625,14.0471,22.0625,12Q22.0625,9.95288,21.2717,8.08322Q20.5079,6.2774,19.1153,4.88474Q17.7226,3.49206,15.9168,2.728288Q14.0472,1.9375,12,1.9374997999999999Q9.95288,1.9375,8.08322,2.728288Q6.27742,3.49208,4.88474,4.88474Q3.49207,6.27742,2.728288,8.08322Q1.9375,9.95285,1.9374997999999999,12Q1.9375,14.0472,2.728288,15.9168ZM8.131910000000001,21.1566Q6.34856,20.4023,4.973129999999999,19.0269Q3.59769,17.651400000000002,2.843413,15.8681Q2.0625,14.0219,2.0624998,12Q2.0624981,9.978200000000001,2.843413,8.131910000000001Q3.59771,6.34857,4.973129999999999,4.973129999999999Q6.34857,3.5976999999999997,8.131910000000001,2.843413Q9.97818,2.0625,12,2.0624998Q14.0219,2.0625,15.8681,2.843413Q17.651400000000002,3.59768,19.0269,4.973129999999999Q20.4022,6.34856,21.1566,8.131910000000001Q21.9375,9.97821,21.9375,12Q21.9375,14.0218,21.1566,15.8681Q20.4023,17.6515,19.0269,19.0269Q17.6515,20.4023,15.8681,21.1566Q14.0218,21.9375,12,21.9375Q9.97823,21.9375,8.131910000000001,21.1566Z" fill-rule="evenodd" fill="#DADFE3" fill-opacity="0.949999988079071"/></g><g><path d="M3.9375,22.0625L3.9375,1.9375L20.0625,1.9375L20.0625,22.0625L3.9375,22.0625ZM19.9375,2.0625L4.0625,2.0625L4.0625,21.9375L19.9375,21.9375L19.9375,2.0625Z" fill-rule="evenodd" fill="#DADFE3" fill-opacity="1"/></g><g><path d="M1.9375,20.0625L1.9375,3.9375L22.0625,3.9375L22.0625,20.0625L1.9375,20.0625ZM21.9375,4.0625L2.0625,4.0625L2.0625,19.9375L21.9375,19.9375L21.9375,4.0625Z" fill-rule="evenodd" fill="#DADFE3" fill-opacity="1"/></g><g><path d="M2.9375,21.0625L2.9375,2.9375L21.0625,2.9375L21.0625,21.0625L2.9375,21.0625ZM20.9375,3.0625L3.0625,3.0625L3.0625,20.9375L20.9375,20.9375L20.9375,3.0625Z" fill-rule="evenodd" fill="#DADFE3" fill-opacity="1"/></g><g><path d="M5.9375,18.0625L5.9375,5.9375L18.0625,5.9375L18.0625,18.0625L5.9375,18.0625ZM17.9375,6.0625L6.0625,6.0625L6.0625,17.9375L17.9375,17.9375L17.9375,6.0625Z" fill-rule="evenodd" fill="#DADFE3" fill-opacity="1"/></g><g><path d="M8.77382,8.77382Q7.4375,10.11014,7.4375,12Q7.4375,13.889890000000001,8.77382,15.2262Q10.11012,16.5625,12,16.5625Q13.88991,16.5625,15.2262,15.2262Q16.5625,13.889890000000001,16.5625,12Q16.5625,10.11012,15.2262,8.77382Q13.88988,7.4375,12,7.4375Q10.11014,7.4375,8.77382,8.77382ZM8.86221,15.13781Q7.5625,13.8381,7.5625,12Q7.5625,10.16191,8.86221,8.86221Q10.16191,7.5625,12,7.5625Q13.8381,7.5625,15.13781,8.86221Q16.43752,10.1619,16.4375,12Q16.4375,13.83812,15.13781,15.13781Q13.83813,16.4375,12,16.4375Q10.1619,16.4375,8.86221,15.13781Z" fill-rule="evenodd" fill="#DADFE3" fill-opacity="1"/></g><g><path d="M12,1.875259L0.9459109,20.9687L0.891597,21.0625L23.1084,21.0625L12,1.875259ZM1.108403,20.9375L22.8916,20.9375L12,2.124742L1.108403,20.9375Z" fill-rule="evenodd" fill="#DADFE3" fill-opacity="1"/></g></g></g><g><g><path d="M3,9L3,6C3,4.89543,3.89543,4,5,4L19,4C20.1046,4,21,4.89543,21,6L21,9C21,10.104569999999999,20.1046,11,19,11L5,11C3.89543,11,3,10.104569999999999,3,9ZM4.2,9Q4.2,9.33137,4.43431,9.56569Q4.66863,9.8,5,9.8L19,9.8Q19.3314,9.8,19.5657,9.56569Q19.8,9.33137,19.8,9L19.8,6Q19.8,5.66863,19.5657,5.43431Q19.3314,5.2,19,5.2L5,5.2Q4.66863,5.2,4.43431,5.43431Q4.2,5.66863,4.2,6L4.2,9Z" fill-rule="evenodd" fill="#000000" fill-opacity="1"/></g><g><path d="M3,18L3,15C3,13.89543,3.89543,13,5,13L9,13C10.104569999999999,13,11,13.89543,11,15L11,18C11,19.10457,10.104569999999999,20,9,20L5,20C3.89543,20,3,19.10457,3,18ZM4.2,18Q4.2,18.33137,4.43431,18.56569Q4.66863,18.8,5,18.8L9,18.8Q9.33137,18.8,9.56569,18.56569Q9.8,18.33137,9.8,18L9.8,15Q9.8,14.66863,9.56569,14.43431Q9.33137,14.2,9,14.2L5,14.2Q4.66863,14.2,4.43431,14.43431Q4.2,14.66863,4.2,15L4.2,18Z" fill-rule="evenodd" fill="#000000" fill-opacity="1"/></g><g><path d="M13,18L13,15C13,13.89543,13.89543,13,15,13L19,13C20.10457,13,21,13.89543,21,15L21,18C21,19.10457,20.10457,20,19,20L15,20C13.89543,20,13,19.10457,13,18ZM14.2,18Q14.2,18.33137,14.43431,18.56569Q14.66863,18.8,15,18.8L19,18.8Q19.33137,18.8,19.56569,18.56569Q19.8,18.33137,19.8,18L19.8,15Q19.8,14.66863,19.56569,14.43431Q19.33137,14.2,19,14.2L15,14.2Q14.66863,14.2,14.43431,14.43431Q14.2,14.66863,14.2,15L14.2,18Z" fill-rule="evenodd" fill="#000000" fill-opacity="1"/></g></g></g></svg>