<svg xmlns="http://www.w3.org/2000/svg" xmlns:xlink="http://www.w3.org/1999/xlink" fill="none" version="1.1" width="24" height="24" viewBox="0 0 24 24"><defs><clipPath id="master_svg0_3253_04053"><rect x="0" y="0" width="24" height="24" rx="0"/></clipPath><clipPath id="master_svg1_3253_04054"><rect x="0" y="0" width="24" height="24" rx="0"/></clipPath><clipPath id="master_svg2_3253_05656"><rect x="2" y="2" width="20" height="20" rx="0"/></clipPath></defs><g clip-path="url(#master_svg0_3253_04053)"><g clip-path="url(#master_svg1_3253_04054)"></g><g clip-path="url(#master_svg2_3253_05656)"><g><g><path d="M4.579916378440856,21.08330570230484L4.576636378440857,21.08330570230484Q3.1745263784408566,21.08810570230484,2.446728378440857,19.88870570230484Q1.718074378440857,18.68800570230484,2.3720603784408567,17.44490570230484L9.797006378440857,3.40847570230484Q10.121166378440856,2.79581170230484,10.714876378440858,2.4382587023048403Q11.308576378440858,2.08070564270024,12.001636378440857,2.08070570230484Q12.694726378440857,2.08070552349084,13.288426378440857,2.4382587023048403Q13.882126378440857,2.7958127023048402,14.206226378440856,3.40840570230484L21.630426378440855,17.44350570230484Q22.285926378440855,18.68930570230484,21.555326378440856,19.89080570230484Q20.824726378440857,21.09220570230484,19.418526378440855,21.08330570230484L4.579916378440856,21.08330570230484ZM4.576636378440857,19.58330570230484L19.42802637844086,19.58330570230484Q19.984526378440858,19.58690570230484,20.273726378440855,19.11140570230484Q20.562826378440857,18.63590570230484,20.30452637844086,18.14480570230484L12.880326378440857,4.1099257023048406Q12.600326378440856,3.58070570230484,12.001636378440857,3.58070570230484Q11.402906378440857,3.58070570230484,11.122926378440857,4.10985570230484L3.699536378440857,18.14340570230484Q3.440706378440857,18.63530570230484,3.729086378440857,19.11050570230484Q4.017466378440857,19.58580570230484,4.573346378440856,19.58330570230484L4.576636378440857,19.58330570230484Z" fill-rule="evenodd" fill="#38363C" fill-opacity="1"/></g><g transform="matrix(0,1,-1,0,20.83333057165146,-5.499998390674591)"><path d="M14.166664481163025,7.666666090488434L19.166664481163025,7.666666090488434C19.718944481163025,7.666666090488434,20.166664481163025,8.114381090488434,20.166664481163025,8.666666090488434C20.166664481163025,9.218946090488433,19.718944481163025,9.666666090488434,19.166664481163025,9.666666090488434L14.166664481163025,9.666666090488434C13.614379481163025,9.666666090488434,13.166664481163025,9.218946090488433,13.166664481163025,8.666666090488434C13.166664481163025,8.114381090488434,13.614379481163025,7.666666090488434,14.166664481163025,7.666666090488434Z" fill-rule="evenodd" fill="#38363C" fill-opacity="1"/></g><g><ellipse cx="12.000038504600525" cy="16.58333784341812" rx="1.25" ry="1.25" fill="#38363C" fill-opacity="1"/></g></g></g></g></svg>